<?xml version="1.0" encoding="UTF-8"?>
<svg xmlns="http://www.w3.org/2000/svg" xmlns:xlink="http://www.w3.org/1999/xlink" width="800" height="800" viewBox="0 0 800 800">
<rect x="-80" y="-80" width="960" height="960" fill="rgb(100%, 100%, 100%)" fill-opacity="1"/>
<path fill="none" stroke-width="3.5" stroke-linecap="butt" stroke-linejoin="miter" stroke="rgb(70.196078%, 70.196078%, 70.196078%)" stroke-opacity="1" stroke-miterlimit="10" d="M 671.550781 347.804688 C 654.007812 329.644531 632.515625 319.941406 607.394531 322.203125 "/>
<path fill-rule="nonzero" fill="rgb(70.196078%, 70.196078%, 70.196078%)" fill-opacity="1" d="M 600.289062 322.839844 L 607.1875 319.894531 L 607.601562 324.511719 L 600.289062 322.839844 "/>
<path fill="none" stroke-width="2.5" stroke-linecap="butt" stroke-linejoin="miter" stroke="rgb(70.196078%, 70.196078%, 70.196078%)" stroke-opacity="1" stroke-miterlimit="10" d="M 671.550781 347.804688 C 687.679688 371.414062 709.828125 386.183594 738.292969 388.597656 "/>
<path fill-rule="nonzero" fill="rgb(70.196078%, 70.196078%, 70.196078%)" fill-opacity="1" d="M 745.398438 389.203125 L 738.097656 390.910156 L 738.488281 386.289062 L 745.398438 389.203125 "/>
<path fill="none" stroke-width="1.5" stroke-linecap="butt" stroke-linejoin="miter" stroke="rgb(12.156863%, 47.058824%, 70.588235%)" stroke-opacity="1" stroke-miterlimit="10" d="M 671.550781 347.804688 C 664.007812 377.433594 667.90625 405.566406 685.992188 430.191406 "/>
<path fill-rule="nonzero" fill="rgb(12.156863%, 47.058824%, 70.588235%)" fill-opacity="1" d="M 690.214844 435.941406 L 684.125 431.5625 L 687.863281 428.820312 L 690.214844 435.941406 "/>
<path fill="none" stroke-width="2.5" stroke-linecap="butt" stroke-linejoin="miter" stroke="rgb(70.196078%, 70.196078%, 70.196078%)" stroke-opacity="1" stroke-miterlimit="10" d="M 671.550781 347.804688 C 647.765625 359.804688 631.324219 378.4375 625.679688 404.449219 "/>
<path fill-rule="nonzero" fill="rgb(70.196078%, 70.196078%, 70.196078%)" fill-opacity="1" d="M 624.167969 411.417969 L 623.414062 403.957031 L 627.945312 404.9375 L 624.167969 411.417969 "/>
<path fill="none" stroke-width="2.5" stroke-linecap="butt" stroke-linejoin="miter" stroke="rgb(70.196078%, 70.196078%, 70.196078%)" stroke-opacity="1" stroke-miterlimit="10" d="M 671.550781 347.804688 C 697.882812 345.851562 720.011719 335.042969 735.046875 313.371094 "/>
<path fill-rule="nonzero" fill="rgb(70.196078%, 70.196078%, 70.196078%)" fill-opacity="1" d="M 739.113281 307.507812 L 736.949219 314.691406 L 733.140625 312.050781 L 739.113281 307.507812 "/>
<path fill="none" stroke-width="1.5" stroke-linecap="butt" stroke-linejoin="miter" stroke="rgb(12.156863%, 47.058824%, 70.588235%)" stroke-opacity="1" stroke-miterlimit="10" d="M 671.550781 347.804688 C 687.246094 323.21875 692.179688 296.550781 683.113281 268.851562 "/>
<path fill-rule="nonzero" fill="rgb(12.156863%, 47.058824%, 70.588235%)" fill-opacity="1" d="M 680.890625 262.070312 L 685.3125 268.128906 L 680.910156 269.570312 L 680.890625 262.070312 "/>
<path fill="none" stroke-width="3.5" stroke-linecap="butt" stroke-linejoin="miter" stroke="rgb(70.196078%, 70.196078%, 70.196078%)" stroke-opacity="1" stroke-miterlimit="10" d="M 595.695312 323.253906 C 611.785156 340.785156 631.8125 350.601562 655.511719 348.933594 "/>
<path fill-rule="nonzero" fill="rgb(70.196078%, 70.196078%, 70.196078%)" fill-opacity="1" d="M 662.628906 348.429688 L 655.675781 351.242188 L 655.351562 346.621094 L 662.628906 348.429688 "/>
<path fill="none" stroke-width="5.5" stroke-linecap="butt" stroke-linejoin="miter" stroke="rgb(70.196078%, 70.196078%, 70.196078%)" stroke-opacity="1" stroke-miterlimit="10" d="M 614.996094 202.53125 C 610.09375 254.101562 624.414062 299.710938 660.664062 336.695312 "/>
<path fill-rule="nonzero" fill="rgb(70.196078%, 70.196078%, 70.196078%)" fill-opacity="1" d="M 665.65625 341.789062 L 659.007812 338.316406 L 662.320312 335.070312 L 665.65625 341.789062 "/>
<path fill="none" stroke-width="5.5" stroke-linecap="butt" stroke-linejoin="miter" stroke="rgb(70.196078%, 70.196078%, 70.196078%)" stroke-opacity="1" stroke-miterlimit="10" d="M 614.773438 105.746094 C 600.390625 133.746094 597.828125 162.878906 610.324219 191.746094 "/>
<path fill-rule="nonzero" fill="rgb(70.196078%, 70.196078%, 70.196078%)" fill-opacity="1" d="M 613.160156 198.292969 L 608.199219 192.667969 L 612.453125 190.824219 L 613.160156 198.292969 "/>
<path fill="none" stroke-width="2.5" stroke-linecap="butt" stroke-linejoin="miter" stroke="rgb(70.196078%, 70.196078%, 70.196078%)" stroke-opacity="1" stroke-miterlimit="10" d="M 750 389.59375 C 735.210938 366.84375 714.527344 352.207031 687.5625 349.441406 "/>
<path fill-rule="nonzero" fill="rgb(70.196078%, 70.196078%, 70.196078%)" fill-opacity="1" d="M 680.464844 348.714844 L 687.796875 347.136719 L 687.324219 351.75 L 680.464844 348.714844 "/>
<path fill="none" stroke-width="5.5" stroke-linecap="butt" stroke-linejoin="miter" stroke="rgb(70.196078%, 70.196078%, 70.196078%)" stroke-opacity="1" stroke-miterlimit="10" d="M 554.3125 50 C 563.003906 74.679688 579.074219 93.058594 603.707031 101.8125 "/>
<path fill-rule="nonzero" fill="rgb(70.196078%, 70.196078%, 70.196078%)" fill-opacity="1" d="M 610.425781 104.203125 L 602.929688 103.996094 L 604.480469 99.628906 L 610.425781 104.203125 "/>
<path fill="none" stroke-width="5.5" stroke-linecap="butt" stroke-linejoin="miter" stroke="rgb(70.196078%, 70.196078%, 70.196078%)" stroke-opacity="1" stroke-miterlimit="10" d="M 473.734375 98.738281 C 504.191406 96.738281 529.730469 84.363281 547.476562 59.558594 "/>
<path fill-rule="nonzero" fill="rgb(70.196078%, 70.196078%, 70.196078%)" fill-opacity="1" d="M 551.625 53.757812 L 549.359375 60.90625 L 545.589844 58.210938 L 551.625 53.757812 "/>
<path fill="none" stroke-width="1.5" stroke-linecap="butt" stroke-linejoin="miter" stroke="rgb(12.156863%, 47.058824%, 70.588235%)" stroke-opacity="1" stroke-miterlimit="10" d="M 691.769531 438.058594 C 699.660156 410.722656 697.027344 384.316406 680.761719 361.007812 "/>
<path fill-rule="nonzero" fill="rgb(12.156863%, 47.058824%, 70.588235%)" fill-opacity="1" d="M 676.683594 355.15625 L 682.664062 359.679688 L 678.863281 362.332031 L 676.683594 355.15625 "/>
<path fill="none" stroke-width="5.5" stroke-linecap="butt" stroke-linejoin="miter" stroke="rgb(70.196078%, 70.196078%, 70.196078%)" stroke-opacity="1" stroke-miterlimit="10" d="M 405.375 181.542969 C 437.796875 167.46875 460.625 143.960938 470.460938 110.03125 "/>
<path fill-rule="nonzero" fill="rgb(70.196078%, 70.196078%, 70.196078%)" fill-opacity="1" d="M 472.449219 103.179688 L 472.6875 110.675781 L 468.234375 109.382812 L 472.449219 103.179688 "/>
<path fill="none" stroke-width="5.5" stroke-linecap="butt" stroke-linejoin="miter" stroke="rgb(70.196078%, 70.196078%, 70.196078%)" stroke-opacity="1" stroke-miterlimit="10" d="M 262.675781 271.542969 C 320.082031 265.207031 366.429688 239.121094 398.785156 191.289062 "/>
<path fill-rule="nonzero" fill="rgb(70.196078%, 70.196078%, 70.196078%)" fill-opacity="1" d="M 402.78125 185.382812 L 400.703125 192.589844 L 396.863281 189.992188 L 402.78125 185.382812 "/>
<path fill="none" stroke-width="2.5" stroke-linecap="butt" stroke-linejoin="miter" stroke="rgb(70.196078%, 70.196078%, 70.196078%)" stroke-opacity="1" stroke-miterlimit="10" d="M 623.1875 415.929688 C 645.945312 405.136719 662.058594 387.9375 667.847656 363.457031 "/>
<path fill-rule="nonzero" fill="rgb(70.196078%, 70.196078%, 70.196078%)" fill-opacity="1" d="M 669.492188 356.515625 L 670.105469 363.988281 L 665.59375 362.921875 L 669.492188 356.515625 "/>
<path fill="none" stroke-width="5.5" stroke-linecap="butt" stroke-linejoin="miter" stroke="rgb(70.196078%, 70.196078%, 70.196078%)" stroke-opacity="1" stroke-miterlimit="10" d="M 207.347656 369.566406 C 238.328125 348.902344 257.53125 320.25 261.441406 283.234375 "/>
<path fill-rule="nonzero" fill="rgb(70.196078%, 70.196078%, 70.196078%)" fill-opacity="1" d="M 262.1875 276.140625 L 263.746094 283.476562 L 259.136719 282.992188 L 262.1875 276.140625 "/>
<path fill="none" stroke-width="5.5" stroke-linecap="butt" stroke-linejoin="miter" stroke="rgb(70.196078%, 70.196078%, 70.196078%)" stroke-opacity="1" stroke-miterlimit="10" d="M 155.949219 604.003906 C 207.296875 537.765625 226.371094 463.230469 209.691406 381.105469 "/>
<path fill-rule="nonzero" fill="rgb(70.196078%, 70.196078%, 70.196078%)" fill-opacity="1" d="M 208.269531 374.113281 L 211.960938 380.644531 L 207.417969 381.566406 L 208.269531 374.113281 "/>
<path fill="none" stroke-width="5.5" stroke-linecap="butt" stroke-linejoin="miter" stroke="rgb(70.196078%, 70.196078%, 70.196078%)" stroke-opacity="1" stroke-miterlimit="10" d="M 190.632812 714.066406 C 196.816406 676.292969 188.714844 641.792969 163.652344 612.886719 "/>
<path fill-rule="nonzero" fill="rgb(70.196078%, 70.196078%, 70.196078%)" fill-opacity="1" d="M 158.976562 607.5 L 165.402344 611.371094 L 161.898438 614.40625 L 158.976562 607.5 "/>
<path fill="none" stroke-width="5.5" stroke-linecap="butt" stroke-linejoin="miter" stroke="rgb(70.196078%, 70.196078%, 70.196078%)" stroke-opacity="1" stroke-miterlimit="10" d="M 249.800781 750 C 239.179688 731.53125 223.609375 718.976562 202.570312 715.84375 "/>
<path fill-rule="nonzero" fill="rgb(70.196078%, 70.196078%, 70.196078%)" fill-opacity="1" d="M 195.511719 714.792969 L 202.910156 713.550781 L 202.226562 718.132812 L 195.511719 714.792969 "/>
<path fill="none" stroke-width="5.5" stroke-linecap="butt" stroke-linejoin="miter" stroke="rgb(70.196078%, 70.196078%, 70.196078%)" stroke-opacity="1" stroke-miterlimit="10" d="M 260.566406 660.695312 C 244.171875 684.59375 238.351562 710.933594 246.496094 738.722656 "/>
<path fill-rule="nonzero" fill="rgb(70.196078%, 70.196078%, 70.196078%)" fill-opacity="1" d="M 248.5 745.570312 L 244.269531 739.375 L 248.71875 738.070312 L 248.5 745.570312 "/>
<path fill="none" stroke-width="5.5" stroke-linecap="butt" stroke-linejoin="miter" stroke="rgb(70.196078%, 70.196078%, 70.196078%)" stroke-opacity="1" stroke-miterlimit="10" d="M 214.183594 568.140625 C 213.898438 602.078125 225.597656 631.3125 251.566406 653.132812 "/>
<path fill-rule="nonzero" fill="rgb(70.196078%, 70.196078%, 70.196078%)" fill-opacity="1" d="M 257.027344 657.722656 L 250.074219 654.90625 L 253.058594 651.359375 L 257.027344 657.722656 "/>
<path fill="none" stroke-width="2.5" stroke-linecap="butt" stroke-linejoin="miter" stroke="rgb(70.196078%, 70.196078%, 70.196078%)" stroke-opacity="1" stroke-miterlimit="10" d="M 741.742188 303.71875 C 716.828125 304.949219 695.546875 314.558594 680.964844 334.761719 "/>
<path fill-rule="nonzero" fill="rgb(70.196078%, 70.196078%, 70.196078%)" fill-opacity="1" d="M 676.789062 340.546875 L 679.085938 333.40625 L 682.84375 336.117188 L 676.789062 340.546875 "/>
<path fill="none" stroke-width="1.5" stroke-linecap="butt" stroke-linejoin="miter" stroke="rgb(12.156863%, 47.058824%, 70.588235%)" stroke-opacity="1" stroke-miterlimit="10" d="M 680.074219 259.574219 C 664.773438 281.875 659.183594 306.507812 666.933594 332.386719 "/>
<path fill-rule="nonzero" fill="rgb(12.156863%, 47.058824%, 70.588235%)" fill-opacity="1" d="M 668.980469 339.21875 L 664.714844 333.050781 L 669.15625 331.722656 L 668.980469 339.21875 "/>
<path fill="none" stroke-width="5.5" stroke-linecap="butt" stroke-linejoin="miter" stroke="rgb(70.196078%, 70.196078%, 70.196078%)" stroke-opacity="1" stroke-miterlimit="10" d="M 110.039062 522.1875 C 133.957031 551.335938 164.742188 567.808594 202.429688 568.0625 "/>
<path fill-rule="nonzero" fill="rgb(70.196078%, 70.196078%, 70.196078%)" fill-opacity="1" d="M 209.5625 568.109375 L 202.414062 570.378906 L 202.445312 565.742188 L 209.5625 568.109375 "/>
<path fill="none" stroke-width="5.5" stroke-linecap="butt" stroke-linejoin="miter" stroke="rgb(70.196078%, 70.196078%, 70.196078%)" stroke-opacity="1" stroke-miterlimit="10" d="M 50 465.613281 C 58.460938 490.472656 74.390625 509.085938 99.015625 518.136719 "/>
<path fill-rule="nonzero" fill="rgb(70.196078%, 70.196078%, 70.196078%)" fill-opacity="1" d="M 105.710938 520.597656 L 98.214844 520.3125 L 99.8125 515.960938 L 105.710938 520.597656 "/>
<path fill="none" stroke-width="5.5" stroke-linecap="butt" stroke-linejoin="miter" stroke="rgb(70.196078%, 70.196078%, 70.196078%)" stroke-opacity="1" stroke-miterlimit="10" d="M 147.472656 415.777344 C 129.863281 394.648438 107.296875 382.492188 79.820312 382.835938 "/>
<path fill-rule="nonzero" fill="rgb(70.196078%, 70.196078%, 70.196078%)" fill-opacity="1" d="M 72.6875 382.925781 L 79.789062 380.519531 L 79.847656 385.152344 L 72.6875 382.925781 "/>
<path fill="none" stroke-width="5.5" stroke-linecap="butt" stroke-linejoin="miter" stroke="rgb(70.196078%, 70.196078%, 70.196078%)" stroke-opacity="1" stroke-miterlimit="10" d="M 252.496094 427.210938 C 223.46875 408.175781 191.855469 402.082031 158.703125 412.3125 "/>
<path fill-rule="nonzero" fill="rgb(70.196078%, 70.196078%, 70.196078%)" fill-opacity="1" d="M 151.890625 414.414062 L 158.019531 410.097656 L 159.386719 414.527344 L 151.890625 414.414062 "/>
<path fill="none" stroke-width="5.5" stroke-linecap="butt" stroke-linejoin="miter" stroke="rgb(70.196078%, 70.196078%, 70.196078%)" stroke-opacity="1" stroke-miterlimit="10" d="M 68.070312 382.984375 C 50.648438 403.640625 42.734375 427.558594 47.796875 454.074219 "/>
<path fill-rule="nonzero" fill="rgb(70.196078%, 70.196078%, 70.196078%)" fill-opacity="1" d="M 49.132812 461.082031 L 45.519531 454.507812 L 50.074219 453.640625 L 49.132812 461.082031 "/>
<path fill="none" stroke-width="5.5" stroke-linecap="butt" stroke-linejoin="miter" stroke="rgb(70.196078%, 70.196078%, 70.196078%)" stroke-opacity="1" stroke-miterlimit="10" d="M 306.792969 334.511719 C 277.015625 353.59375 258.222656 380.460938 253.925781 415.542969 "/>
<path fill-rule="nonzero" fill="rgb(70.196078%, 70.196078%, 70.196078%)" fill-opacity="1" d="M 253.058594 422.621094 L 251.625 415.261719 L 256.226562 415.824219 L 253.058594 422.621094 "/>
<path fill="none" stroke-width="5.5" stroke-linecap="butt" stroke-linejoin="miter" stroke="rgb(70.196078%, 70.196078%, 70.196078%)" stroke-opacity="1" stroke-miterlimit="10" d="M 323.070312 197.253906 C 297.613281 236.300781 289.921875 278.640625 303.390625 323.253906 "/>
<path fill-rule="nonzero" fill="rgb(70.196078%, 70.196078%, 70.196078%)" fill-opacity="1" d="M 305.453125 330.082031 L 301.171875 323.921875 L 305.609375 322.582031 L 305.453125 330.082031 "/>
<path fill="none" stroke-width="5.5" stroke-linecap="butt" stroke-linejoin="miter" stroke="rgb(70.196078%, 70.196078%, 70.196078%)" stroke-opacity="1" stroke-miterlimit="10" d="M 391.761719 301.207031 C 386.78125 259.867188 367.816406 226.363281 332.929688 203.667969 "/>
<path fill-rule="nonzero" fill="rgb(70.196078%, 70.196078%, 70.196078%)" fill-opacity="1" d="M 326.949219 199.777344 L 334.191406 201.722656 L 331.664062 205.609375 L 326.949219 199.777344 "/>
<path fill="none" stroke-width="5.5" stroke-linecap="butt" stroke-linejoin="miter" stroke="rgb(70.196078%, 70.196078%, 70.196078%)" stroke-opacity="1" stroke-miterlimit="10" d="M 392.488281 427.96875 C 411.230469 389.902344 413.652344 350.757812 396.515625 311.964844 "/>
<path fill-rule="nonzero" fill="rgb(70.196078%, 70.196078%, 70.196078%)" fill-opacity="1" d="M 393.632812 305.4375 L 398.636719 311.027344 L 394.394531 312.898438 L 393.632812 305.4375 "/>
<path fill="none" stroke-width="5.5" stroke-linecap="butt" stroke-linejoin="miter" stroke="rgb(70.196078%, 70.196078%, 70.196078%)" stroke-opacity="1" stroke-miterlimit="10" d="M 518.597656 655.261719 C 507.171875 627.476562 487.613281 607.519531 458.894531 598.769531 "/>
<path fill-rule="nonzero" fill="rgb(70.196078%, 70.196078%, 70.196078%)" fill-opacity="1" d="M 452.074219 596.691406 L 459.570312 596.554688 L 458.222656 600.988281 L 452.074219 596.691406 "/>
<path fill="none" stroke-width="5.5" stroke-linecap="butt" stroke-linejoin="miter" stroke="rgb(70.196078%, 70.196078%, 70.196078%)" stroke-opacity="1" stroke-miterlimit="10" d="M 447.65625 595.34375 C 455.683594 535.375 440.792969 481.710938 400.355469 436.71875 "/>
<path fill-rule="nonzero" fill="rgb(70.196078%, 70.196078%, 70.196078%)" fill-opacity="1" d="M 395.585938 431.414062 L 402.078125 435.167969 L 398.628906 438.269531 L 395.585938 431.414062 "/>
<path fill="none" stroke-width="5.5" stroke-linecap="butt" stroke-linejoin="miter" stroke="rgb(70.196078%, 70.196078%, 70.196078%)" stroke-opacity="1" stroke-miterlimit="10" d="M 516.148438 463.46875 C 519.75 486.550781 530.800781 505.414062 551.046875 517.003906 "/>
<path fill-rule="nonzero" fill="rgb(70.196078%, 70.196078%, 70.196078%)" fill-opacity="1" d="M 557.238281 520.546875 L 549.894531 519.015625 L 552.199219 514.992188 L 557.238281 520.546875 "/>
<path fill="none" stroke-width="5.5" stroke-linecap="butt" stroke-linejoin="miter" stroke="rgb(70.196078%, 70.196078%, 70.196078%)" stroke-opacity="1" stroke-miterlimit="10" d="M 452.878906 496.605469 C 475.09375 496.953125 494.605469 489.679688 508.691406 472.539062 "/>
<path fill-rule="nonzero" fill="rgb(70.196078%, 70.196078%, 70.196078%)" fill-opacity="1" d="M 513.222656 467.03125 L 510.484375 474.011719 L 506.902344 471.070312 L 513.222656 467.03125 "/>
<path fill="none" stroke-width="5.5" stroke-linecap="butt" stroke-linejoin="miter" stroke="rgb(70.196078%, 70.196078%, 70.196078%)" stroke-opacity="1" stroke-miterlimit="10" d="M 579.816406 612.257812 C 556.523438 615.019531 537.1875 625.410156 524.804688 645.292969 "/>
<path fill-rule="nonzero" fill="rgb(70.196078%, 70.196078%, 70.196078%)" fill-opacity="1" d="M 521.035156 651.347656 L 522.835938 644.066406 L 526.773438 646.519531 L 521.035156 651.347656 "/>
<path fill="none" stroke-width="5.5" stroke-linecap="butt" stroke-linejoin="miter" stroke="rgb(70.196078%, 70.196078%, 70.196078%)" stroke-opacity="1" stroke-miterlimit="10" d="M 561.238281 522.839844 C 553.21875 551.210938 556.199219 578.484375 573.082031 602.628906 "/>
<path fill-rule="nonzero" fill="rgb(70.196078%, 70.196078%, 70.196078%)" fill-opacity="1" d="M 577.167969 608.472656 L 571.183594 603.957031 L 574.980469 601.300781 L 577.167969 608.472656 "/>
<path fill="none" stroke-width="5.5" stroke-linecap="butt" stroke-linejoin="miter" stroke="rgb(70.196078%, 70.196078%, 70.196078%)" stroke-opacity="1" stroke-miterlimit="10" d="M 375.335938 536.625 C 403.335938 536.816406 427.597656 527.246094 445.402344 505.667969 "/>
<path fill-rule="nonzero" fill="rgb(70.196078%, 70.196078%, 70.196078%)" fill-opacity="1" d="M 449.941406 500.164062 L 447.191406 507.140625 L 443.617188 504.191406 L 449.941406 500.164062 "/>
<path fill="none" stroke-width="5.5" stroke-linecap="butt" stroke-linejoin="miter" stroke="rgb(70.196078%, 70.196078%, 70.196078%)" stroke-opacity="1" stroke-miterlimit="10" d="M 362 617.3125 C 377.765625 596.636719 384.285156 573.265625 378.121094 548.035156 "/>
<path fill-rule="nonzero" fill="rgb(70.196078%, 70.196078%, 70.196078%)" fill-opacity="1" d="M 376.429688 541.105469 L 380.375 547.484375 L 375.871094 548.585938 L 376.429688 541.105469 "/>
<path fill-rule="nonzero" fill="rgb(14.901961%, 14.901961%, 14.901961%)" fill-opacity="1" stroke-width="1" stroke-linecap="butt" stroke-linejoin="miter" stroke="rgb(14.901961%, 14.901961%, 14.901961%)" stroke-opacity="1" stroke-miterlimit="10" d="M 662.703125 356.652344 L 671.550781 338.953125 L 680.402344 356.652344 Z M 662.703125 356.652344 "/>
<path fill-rule="nonzero" fill="rgb(70.196078%, 70.196078%, 70.196078%)" fill-opacity="1" stroke-width="1" stroke-linecap="butt" stroke-linejoin="miter" stroke="rgb(70.196078%, 70.196078%, 70.196078%)" stroke-opacity="1" stroke-miterlimit="10" d="M 600.546875 323.253906 C 600.546875 329.722656 590.847656 329.722656 590.847656 323.253906 C 590.847656 316.789062 600.546875 316.789062 600.546875 323.253906 "/>
<path fill-rule="nonzero" fill="rgb(70.196078%, 70.196078%, 70.196078%)" fill-opacity="1" stroke-width="1" stroke-linecap="butt" stroke-linejoin="miter" stroke="rgb(70.196078%, 70.196078%, 70.196078%)" stroke-opacity="1" stroke-miterlimit="10" d="M 619.84375 202.53125 C 619.84375 208.996094 610.144531 208.996094 610.144531 202.53125 C 610.144531 196.0625 619.84375 196.0625 619.84375 202.53125 "/>
<path fill-rule="nonzero" fill="rgb(70.196078%, 70.196078%, 70.196078%)" fill-opacity="1" stroke-width="1" stroke-linecap="butt" stroke-linejoin="miter" stroke="rgb(70.196078%, 70.196078%, 70.196078%)" stroke-opacity="1" stroke-miterlimit="10" d="M 619.625 105.746094 C 619.625 112.214844 609.925781 112.214844 609.925781 105.746094 C 609.925781 99.28125 619.625 99.28125 619.625 105.746094 "/>
<path fill-rule="nonzero" fill="rgb(70.196078%, 70.196078%, 70.196078%)" fill-opacity="1" stroke-width="1" stroke-linecap="butt" stroke-linejoin="miter" stroke="rgb(70.196078%, 70.196078%, 70.196078%)" stroke-opacity="1" stroke-miterlimit="10" d="M 754.851562 389.59375 C 754.851562 396.058594 745.148438 396.058594 745.148438 389.59375 C 745.148438 383.125 754.851562 383.125 754.851562 389.59375 "/>
<path fill-rule="nonzero" fill="rgb(70.196078%, 70.196078%, 70.196078%)" fill-opacity="1" stroke-width="1" stroke-linecap="butt" stroke-linejoin="miter" stroke="rgb(70.196078%, 70.196078%, 70.196078%)" stroke-opacity="1" stroke-miterlimit="10" d="M 559.164062 50 C 559.164062 56.464844 549.460938 56.464844 549.460938 50 C 549.460938 43.535156 559.164062 43.535156 559.164062 50 "/>
<path fill-rule="nonzero" fill="rgb(70.196078%, 70.196078%, 70.196078%)" fill-opacity="1" stroke-width="1" stroke-linecap="butt" stroke-linejoin="miter" stroke="rgb(70.196078%, 70.196078%, 70.196078%)" stroke-opacity="1" stroke-miterlimit="10" d="M 478.585938 98.738281 C 478.585938 105.207031 468.886719 105.207031 468.886719 98.738281 C 468.886719 92.273438 478.585938 92.273438 478.585938 98.738281 "/>
<path fill-rule="nonzero" fill="rgb(12.156863%, 47.058824%, 70.588235%)" fill-opacity="1" stroke-width="1" stroke-linecap="butt" stroke-linejoin="miter" stroke="rgb(12.156863%, 47.058824%, 70.588235%)" stroke-opacity="1" stroke-miterlimit="10" d="M 694.519531 438.058594 C 694.519531 441.726562 689.019531 441.726562 689.019531 438.058594 C 689.019531 434.390625 694.519531 434.390625 694.519531 438.058594 "/>
<path fill-rule="nonzero" fill="rgb(70.196078%, 70.196078%, 70.196078%)" fill-opacity="1" stroke-width="1" stroke-linecap="butt" stroke-linejoin="miter" stroke="rgb(70.196078%, 70.196078%, 70.196078%)" stroke-opacity="1" stroke-miterlimit="10" d="M 410.226562 181.542969 C 410.226562 188.011719 400.527344 188.011719 400.527344 181.542969 C 400.527344 175.078125 410.226562 175.078125 410.226562 181.542969 "/>
<path fill-rule="nonzero" fill="rgb(70.196078%, 70.196078%, 70.196078%)" fill-opacity="1" stroke-width="1" stroke-linecap="butt" stroke-linejoin="miter" stroke="rgb(70.196078%, 70.196078%, 70.196078%)" stroke-opacity="1" stroke-miterlimit="10" d="M 267.523438 271.542969 C 267.523438 278.007812 257.824219 278.007812 257.824219 271.542969 C 257.824219 265.074219 267.523438 265.074219 267.523438 271.542969 "/>
<path fill-rule="nonzero" fill="rgb(70.196078%, 70.196078%, 70.196078%)" fill-opacity="1" stroke-width="1" stroke-linecap="butt" stroke-linejoin="miter" stroke="rgb(70.196078%, 70.196078%, 70.196078%)" stroke-opacity="1" stroke-miterlimit="10" d="M 628.039062 415.929688 C 628.039062 422.394531 618.339844 422.394531 618.339844 415.929688 C 618.339844 409.460938 628.039062 409.460938 628.039062 415.929688 "/>
<path fill-rule="nonzero" fill="rgb(70.196078%, 70.196078%, 70.196078%)" fill-opacity="1" stroke-width="1" stroke-linecap="butt" stroke-linejoin="miter" stroke="rgb(70.196078%, 70.196078%, 70.196078%)" stroke-opacity="1" stroke-miterlimit="10" d="M 212.199219 369.566406 C 212.199219 376.035156 202.496094 376.035156 202.496094 369.566406 C 202.496094 363.101562 212.199219 363.101562 212.199219 369.566406 "/>
<path fill-rule="nonzero" fill="rgb(70.196078%, 70.196078%, 70.196078%)" fill-opacity="1" stroke-width="1" stroke-linecap="butt" stroke-linejoin="miter" stroke="rgb(70.196078%, 70.196078%, 70.196078%)" stroke-opacity="1" stroke-miterlimit="10" d="M 160.796875 604.003906 C 160.796875 610.472656 151.097656 610.472656 151.097656 604.003906 C 151.097656 597.539062 160.796875 597.539062 160.796875 604.003906 "/>
<path fill-rule="nonzero" fill="rgb(70.196078%, 70.196078%, 70.196078%)" fill-opacity="1" stroke-width="1" stroke-linecap="butt" stroke-linejoin="miter" stroke="rgb(70.196078%, 70.196078%, 70.196078%)" stroke-opacity="1" stroke-miterlimit="10" d="M 195.484375 714.066406 C 195.484375 720.53125 185.785156 720.53125 185.785156 714.066406 C 185.785156 707.597656 195.484375 707.597656 195.484375 714.066406 "/>
<path fill-rule="nonzero" fill="rgb(70.196078%, 70.196078%, 70.196078%)" fill-opacity="1" stroke-width="1" stroke-linecap="butt" stroke-linejoin="miter" stroke="rgb(70.196078%, 70.196078%, 70.196078%)" stroke-opacity="1" stroke-miterlimit="10" d="M 254.648438 750 C 254.648438 756.464844 244.949219 756.464844 244.949219 750 C 244.949219 743.535156 254.648438 743.535156 254.648438 750 "/>
<path fill-rule="nonzero" fill="rgb(70.196078%, 70.196078%, 70.196078%)" fill-opacity="1" stroke-width="1" stroke-linecap="butt" stroke-linejoin="miter" stroke="rgb(70.196078%, 70.196078%, 70.196078%)" stroke-opacity="1" stroke-miterlimit="10" d="M 265.417969 660.695312 C 265.417969 667.160156 255.714844 667.160156 255.714844 660.695312 C 255.714844 654.226562 265.417969 654.226562 265.417969 660.695312 "/>
<path fill-rule="nonzero" fill="rgb(70.196078%, 70.196078%, 70.196078%)" fill-opacity="1" stroke-width="1" stroke-linecap="butt" stroke-linejoin="miter" stroke="rgb(70.196078%, 70.196078%, 70.196078%)" stroke-opacity="1" stroke-miterlimit="10" d="M 219.035156 568.140625 C 219.035156 574.605469 209.335938 574.605469 209.335938 568.140625 C 209.335938 561.671875 219.035156 561.671875 219.035156 568.140625 "/>
<path fill-rule="nonzero" fill="rgb(70.196078%, 70.196078%, 70.196078%)" fill-opacity="1" stroke-width="1" stroke-linecap="butt" stroke-linejoin="miter" stroke="rgb(70.196078%, 70.196078%, 70.196078%)" stroke-opacity="1" stroke-miterlimit="10" d="M 746.59375 303.71875 C 746.59375 310.183594 736.890625 310.183594 736.890625 303.71875 C 736.890625 297.25 746.59375 297.25 746.59375 303.71875 "/>
<path fill-rule="nonzero" fill="rgb(12.156863%, 47.058824%, 70.588235%)" fill-opacity="1" stroke-width="1" stroke-linecap="butt" stroke-linejoin="miter" stroke="rgb(12.156863%, 47.058824%, 70.588235%)" stroke-opacity="1" stroke-miterlimit="10" d="M 682.824219 259.574219 C 682.824219 263.242188 677.324219 263.242188 677.324219 259.574219 C 677.324219 255.910156 682.824219 255.910156 682.824219 259.574219 "/>
<path fill-rule="nonzero" fill="rgb(70.196078%, 70.196078%, 70.196078%)" fill-opacity="1" stroke-width="1" stroke-linecap="butt" stroke-linejoin="miter" stroke="rgb(70.196078%, 70.196078%, 70.196078%)" stroke-opacity="1" stroke-miterlimit="10" d="M 114.890625 522.1875 C 114.890625 528.65625 105.191406 528.65625 105.191406 522.1875 C 105.191406 515.722656 114.890625 515.722656 114.890625 522.1875 "/>
<path fill-rule="nonzero" fill="rgb(70.196078%, 70.196078%, 70.196078%)" fill-opacity="1" stroke-width="1" stroke-linecap="butt" stroke-linejoin="miter" stroke="rgb(70.196078%, 70.196078%, 70.196078%)" stroke-opacity="1" stroke-miterlimit="10" d="M 54.851562 465.613281 C 54.851562 472.082031 45.148438 472.082031 45.148438 465.613281 C 45.148438 459.148438 54.851562 459.148438 54.851562 465.613281 "/>
<path fill-rule="nonzero" fill="rgb(70.196078%, 70.196078%, 70.196078%)" fill-opacity="1" stroke-width="1" stroke-linecap="butt" stroke-linejoin="miter" stroke="rgb(70.196078%, 70.196078%, 70.196078%)" stroke-opacity="1" stroke-miterlimit="10" d="M 152.320312 415.777344 C 152.320312 422.242188 142.621094 422.242188 142.621094 415.777344 C 142.621094 409.308594 152.320312 409.308594 152.320312 415.777344 "/>
<path fill-rule="nonzero" fill="rgb(70.196078%, 70.196078%, 70.196078%)" fill-opacity="1" stroke-width="1" stroke-linecap="butt" stroke-linejoin="miter" stroke="rgb(70.196078%, 70.196078%, 70.196078%)" stroke-opacity="1" stroke-miterlimit="10" d="M 257.34375 427.210938 C 257.34375 433.679688 247.644531 433.679688 247.644531 427.210938 C 247.644531 420.746094 257.34375 420.746094 257.34375 427.210938 "/>
<path fill-rule="nonzero" fill="rgb(70.196078%, 70.196078%, 70.196078%)" fill-opacity="1" stroke-width="1" stroke-linecap="butt" stroke-linejoin="miter" stroke="rgb(70.196078%, 70.196078%, 70.196078%)" stroke-opacity="1" stroke-miterlimit="10" d="M 72.921875 382.984375 C 72.921875 389.449219 63.222656 389.449219 63.222656 382.984375 C 63.222656 376.515625 72.921875 376.515625 72.921875 382.984375 "/>
<path fill-rule="nonzero" fill="rgb(70.196078%, 70.196078%, 70.196078%)" fill-opacity="1" stroke-width="1" stroke-linecap="butt" stroke-linejoin="miter" stroke="rgb(70.196078%, 70.196078%, 70.196078%)" stroke-opacity="1" stroke-miterlimit="10" d="M 311.640625 334.511719 C 311.640625 340.980469 301.941406 340.980469 301.941406 334.511719 C 301.941406 328.046875 311.640625 328.046875 311.640625 334.511719 "/>
<path fill-rule="nonzero" fill="rgb(70.196078%, 70.196078%, 70.196078%)" fill-opacity="1" stroke-width="1" stroke-linecap="butt" stroke-linejoin="miter" stroke="rgb(70.196078%, 70.196078%, 70.196078%)" stroke-opacity="1" stroke-miterlimit="10" d="M 327.921875 197.253906 C 327.921875 203.71875 318.222656 203.71875 318.222656 197.253906 C 318.222656 190.785156 327.921875 190.785156 327.921875 197.253906 "/>
<path fill-rule="nonzero" fill="rgb(70.196078%, 70.196078%, 70.196078%)" fill-opacity="1" stroke-width="1" stroke-linecap="butt" stroke-linejoin="miter" stroke="rgb(70.196078%, 70.196078%, 70.196078%)" stroke-opacity="1" stroke-miterlimit="10" d="M 396.613281 301.207031 C 396.613281 307.671875 386.914062 307.671875 386.914062 301.207031 C 386.914062 294.738281 396.613281 294.738281 396.613281 301.207031 "/>
<path fill-rule="nonzero" fill="rgb(70.196078%, 70.196078%, 70.196078%)" fill-opacity="1" stroke-width="1" stroke-linecap="butt" stroke-linejoin="miter" stroke="rgb(70.196078%, 70.196078%, 70.196078%)" stroke-opacity="1" stroke-miterlimit="10" d="M 397.335938 427.96875 C 397.335938 434.433594 387.636719 434.433594 387.636719 427.96875 C 387.636719 421.5 397.335938 421.5 397.335938 427.96875 "/>
<path fill-rule="nonzero" fill="rgb(70.196078%, 70.196078%, 70.196078%)" fill-opacity="1" stroke-width="1" stroke-linecap="butt" stroke-linejoin="miter" stroke="rgb(70.196078%, 70.196078%, 70.196078%)" stroke-opacity="1" stroke-miterlimit="10" d="M 523.445312 655.261719 C 523.445312 661.726562 513.746094 661.726562 513.746094 655.261719 C 513.746094 648.792969 523.445312 648.792969 523.445312 655.261719 "/>
<path fill-rule="nonzero" fill="rgb(70.196078%, 70.196078%, 70.196078%)" fill-opacity="1" stroke-width="1" stroke-linecap="butt" stroke-linejoin="miter" stroke="rgb(70.196078%, 70.196078%, 70.196078%)" stroke-opacity="1" stroke-miterlimit="10" d="M 452.503906 595.34375 C 452.503906 601.8125 442.804688 601.8125 442.804688 595.34375 C 442.804688 588.878906 452.503906 588.878906 452.503906 595.34375 "/>
<path fill-rule="nonzero" fill="rgb(70.196078%, 70.196078%, 70.196078%)" fill-opacity="1" stroke-width="1" stroke-linecap="butt" stroke-linejoin="miter" stroke="rgb(70.196078%, 70.196078%, 70.196078%)" stroke-opacity="1" stroke-miterlimit="10" d="M 520.996094 463.46875 C 520.996094 469.9375 511.296875 469.9375 511.296875 463.46875 C 511.296875 457.003906 520.996094 457.003906 520.996094 463.46875 "/>
<path fill-rule="nonzero" fill="rgb(70.196078%, 70.196078%, 70.196078%)" fill-opacity="1" stroke-width="1" stroke-linecap="butt" stroke-linejoin="miter" stroke="rgb(70.196078%, 70.196078%, 70.196078%)" stroke-opacity="1" stroke-miterlimit="10" d="M 457.730469 496.605469 C 457.730469 503.070312 448.03125 503.070312 448.03125 496.605469 C 448.03125 490.136719 457.730469 490.136719 457.730469 496.605469 "/>
<path fill-rule="nonzero" fill="rgb(70.196078%, 70.196078%, 70.196078%)" fill-opacity="1" stroke-width="1" stroke-linecap="butt" stroke-linejoin="miter" stroke="rgb(70.196078%, 70.196078%, 70.196078%)" stroke-opacity="1" stroke-miterlimit="10" d="M 584.664062 612.257812 C 584.664062 618.726562 574.964844 618.726562 574.964844 612.257812 C 574.964844 605.792969 584.664062 605.792969 584.664062 612.257812 "/>
<path fill-rule="nonzero" fill="rgb(70.196078%, 70.196078%, 70.196078%)" fill-opacity="1" stroke-width="1" stroke-linecap="butt" stroke-linejoin="miter" stroke="rgb(70.196078%, 70.196078%, 70.196078%)" stroke-opacity="1" stroke-miterlimit="10" d="M 566.089844 522.839844 C 566.089844 529.304688 556.390625 529.304688 556.390625 522.839844 C 556.390625 516.371094 566.089844 516.371094 566.089844 522.839844 "/>
<path fill-rule="nonzero" fill="rgb(70.196078%, 70.196078%, 70.196078%)" fill-opacity="1" stroke-width="1" stroke-linecap="butt" stroke-linejoin="miter" stroke="rgb(70.196078%, 70.196078%, 70.196078%)" stroke-opacity="1" stroke-miterlimit="10" d="M 380.1875 536.625 C 380.1875 543.089844 370.488281 543.089844 370.488281 536.625 C 370.488281 530.15625 380.1875 530.15625 380.1875 536.625 "/>
<path fill-rule="nonzero" fill="rgb(100%, 84.313725%, 0%)" fill-opacity="1" stroke-width="1" stroke-linecap="butt" stroke-linejoin="miter" stroke="rgb(100%, 84.313725%, 0%)" stroke-opacity="1" stroke-miterlimit="10" d="M 356.652344 611.960938 L 367.351562 611.960938 L 367.351562 622.660156 L 356.652344 622.660156 Z M 356.652344 611.960938 "/>
</svg>
