<?xml version="1.0" encoding="UTF-8"?>
<svg xmlns="http://www.w3.org/2000/svg" xmlns:xlink="http://www.w3.org/1999/xlink" width="800" height="800" viewBox="0 0 800 800">
<rect x="-80" y="-80" width="960" height="960" fill="rgb(100%, 100%, 100%)" fill-opacity="1"/>
<path fill="none" stroke-width="4.5" stroke-linecap="butt" stroke-linejoin="miter" stroke="rgb(70.196078%, 70.196078%, 70.196078%)" stroke-opacity="1" stroke-miterlimit="10" d="M 603.277344 347.246094 C 596.832031 380.5625 603.027344 411.4375 624.605469 437.597656 "/>
<path fill-rule="nonzero" fill="rgb(70.196078%, 70.196078%, 70.196078%)" fill-opacity="1" d="M 629.144531 443.101562 L 622.816406 439.074219 L 626.394531 436.125 L 629.144531 443.101562 "/>
<path fill="none" stroke-width="4.5" stroke-linecap="butt" stroke-linejoin="miter" stroke="rgb(70.196078%, 70.196078%, 70.196078%)" stroke-opacity="1" stroke-miterlimit="10" d="M 604.210938 271.695312 C 592.710938 292.449219 589.828125 314.457031 598.820312 336.378906 "/>
<path fill-rule="nonzero" fill="rgb(70.196078%, 70.196078%, 70.196078%)" fill-opacity="1" d="M 601.527344 342.980469 L 596.675781 337.257812 L 600.964844 335.5 L 601.527344 342.980469 "/>
<path fill="none" stroke-width="4.5" stroke-linecap="butt" stroke-linejoin="miter" stroke="rgb(70.196078%, 70.196078%, 70.196078%)" stroke-opacity="1" stroke-miterlimit="10" d="M 678.101562 238.878906 C 652.507812 237.070312 629.683594 244.339844 612.214844 263.101562 "/>
<path fill-rule="nonzero" fill="rgb(70.196078%, 70.196078%, 70.196078%)" fill-opacity="1" d="M 607.351562 268.320312 L 610.519531 261.519531 L 613.910156 264.679688 L 607.351562 268.320312 "/>
<path fill="none" stroke-width="1.5" stroke-linecap="butt" stroke-linejoin="miter" stroke="rgb(12.156863%, 47.058824%, 70.588235%)" stroke-opacity="1" stroke-miterlimit="10" d="M 678.101562 238.878906 C 673.625 268.273438 680.058594 295.148438 699.929688 317.234375 "/>
<path fill-rule="nonzero" fill="rgb(12.156863%, 47.058824%, 70.588235%)" fill-opacity="1" d="M 704.699219 322.535156 L 698.207031 318.785156 L 701.652344 315.683594 L 704.699219 322.535156 "/>
<path fill="none" stroke-width="4.5" stroke-linecap="butt" stroke-linejoin="miter" stroke="rgb(70.196078%, 70.196078%, 70.196078%)" stroke-opacity="1" stroke-miterlimit="10" d="M 750 203.691406 C 724.808594 202.761719 702.617188 210.640625 686.109375 229.652344 "/>
<path fill-rule="nonzero" fill="rgb(70.196078%, 70.196078%, 70.196078%)" fill-opacity="1" d="M 681.433594 235.039062 L 684.359375 228.132812 L 687.859375 231.171875 L 681.433594 235.039062 "/>
<path fill="none" stroke-width="1.5" stroke-linecap="butt" stroke-linejoin="miter" stroke="rgb(12.156863%, 47.058824%, 70.588235%)" stroke-opacity="1" stroke-miterlimit="10" d="M 670.464844 151.476562 C 659.601562 177.300781 659.183594 203.398438 672.351562 228.097656 "/>
<path fill-rule="nonzero" fill="rgb(12.156863%, 47.058824%, 70.588235%)" fill-opacity="1" d="M 675.707031 234.390625 L 670.308594 229.1875 L 674.398438 227.003906 L 675.707031 234.390625 "/>
<path fill="none" stroke-width="5.5" stroke-linecap="butt" stroke-linejoin="miter" stroke="rgb(70.196078%, 70.196078%, 70.196078%)" stroke-opacity="1" stroke-miterlimit="10" d="M 632.386719 447.03125 C 607.03125 469.179688 593.050781 497.117188 593.988281 530.75 "/>
<path fill-rule="nonzero" fill="rgb(70.196078%, 70.196078%, 70.196078%)" fill-opacity="1" d="M 594.1875 537.878906 L 591.671875 530.8125 L 596.304688 530.683594 L 594.1875 537.878906 "/>
<path fill="none" stroke-width="1.5" stroke-linecap="butt" stroke-linejoin="miter" stroke="rgb(12.156863%, 47.058824%, 70.588235%)" stroke-opacity="1" stroke-miterlimit="10" d="M 404.820312 50 C 391.898438 75.222656 389.480469 101.523438 400.898438 127.429688 "/>
<path fill-rule="nonzero" fill="rgb(12.156863%, 47.058824%, 70.588235%)" fill-opacity="1" d="M 403.773438 133.957031 L 398.777344 128.367188 L 403.019531 126.496094 L 403.773438 133.957031 "/>
<path fill="none" stroke-width="1.5" stroke-linecap="butt" stroke-linejoin="miter" stroke="rgb(12.156863%, 47.058824%, 70.588235%)" stroke-opacity="1" stroke-miterlimit="10" d="M 706.457031 324.488281 C 691.539062 347.785156 686.773438 373.09375 695.390625 399.359375 "/>
<path fill-rule="nonzero" fill="rgb(12.156863%, 47.058824%, 70.588235%)" fill-opacity="1" d="M 697.617188 406.136719 L 693.191406 400.082031 L 697.59375 398.636719 L 697.617188 406.136719 "/>
<path fill="none" stroke-width="1.5" stroke-linecap="butt" stroke-linejoin="miter" stroke="rgb(12.156863%, 47.058824%, 70.588235%)" stroke-opacity="1" stroke-miterlimit="10" d="M 698.4375 408.628906 C 674.6875 409.3125 654.242188 418.050781 639.957031 436.992188 "/>
<path fill-rule="nonzero" fill="rgb(12.156863%, 47.058824%, 70.588235%)" fill-opacity="1" d="M 635.660156 442.6875 L 638.105469 435.597656 L 641.808594 438.386719 L 635.660156 442.6875 "/>
<path fill="none" stroke-width="1.5" stroke-linecap="butt" stroke-linejoin="miter" stroke="rgb(12.156863%, 47.058824%, 70.588235%)" stroke-opacity="1" stroke-miterlimit="10" d="M 373.199219 413.152344 C 392.027344 393.101562 401.40625 369.210938 397.664062 341.988281 "/>
<path fill-rule="nonzero" fill="rgb(12.156863%, 47.058824%, 70.588235%)" fill-opacity="1" d="M 396.691406 334.921875 L 399.960938 341.671875 L 395.367188 342.304688 L 396.691406 334.921875 "/>
<path fill="none" stroke-width="1.5" stroke-linecap="butt" stroke-linejoin="miter" stroke="rgb(12.156863%, 47.058824%, 70.588235%)" stroke-opacity="1" stroke-miterlimit="10" d="M 50 330.496094 C 66.65625 337.929688 83.851562 338.929688 99.898438 330.34375 "/>
<path fill-rule="nonzero" fill="rgb(12.156863%, 47.058824%, 70.588235%)" fill-opacity="1" d="M 106.1875 326.980469 L 100.992188 332.386719 L 98.804688 328.300781 L 106.1875 326.980469 "/>
<path fill="none" stroke-width="5.5" stroke-linecap="butt" stroke-linejoin="miter" stroke="rgb(70.196078%, 70.196078%, 70.196078%)" stroke-opacity="1" stroke-miterlimit="10" d="M 366.847656 750 C 349.386719 729.234375 327.070312 717.324219 299.96875 717.800781 "/>
<path fill-rule="nonzero" fill="rgb(70.196078%, 70.196078%, 70.196078%)" fill-opacity="1" d="M 292.835938 717.925781 L 299.929688 715.484375 L 300.007812 720.121094 L 292.835938 717.925781 "/>
<path fill="none" stroke-width="1.5" stroke-linecap="butt" stroke-linejoin="miter" stroke="rgb(12.156863%, 47.058824%, 70.588235%)" stroke-opacity="1" stroke-miterlimit="10" d="M 110.972656 324.421875 C 93.289062 317 75.257812 316.457031 58.527344 325.757812 "/>
<path fill-rule="nonzero" fill="rgb(12.156863%, 47.058824%, 70.588235%)" fill-opacity="1" d="M 52.292969 329.222656 L 57.398438 323.730469 L 59.652344 327.785156 L 52.292969 329.222656 "/>
<path fill="none" stroke-width="5.5" stroke-linecap="butt" stroke-linejoin="miter" stroke="rgb(70.196078%, 70.196078%, 70.196078%)" stroke-opacity="1" stroke-miterlimit="10" d="M 110.972656 324.421875 C 153.898438 282.65625 175.15625 231.78125 171.171875 172.035156 "/>
<path fill-rule="nonzero" fill="rgb(70.196078%, 70.196078%, 70.196078%)" fill-opacity="1" d="M 170.699219 164.917969 L 173.484375 171.878906 L 168.859375 172.1875 L 170.699219 164.917969 "/>
<path fill="none" stroke-width="5.5" stroke-linecap="butt" stroke-linejoin="miter" stroke="rgb(70.196078%, 70.196078%, 70.196078%)" stroke-opacity="1" stroke-miterlimit="10" d="M 121.132812 465.59375 C 139.1875 421.480469 138.75 377.480469 116.648438 335.261719 "/>
<path fill-rule="nonzero" fill="rgb(70.196078%, 70.196078%, 70.196078%)" fill-opacity="1" d="M 113.34375 328.945312 L 118.703125 334.1875 L 114.597656 336.339844 L 113.34375 328.945312 "/>
<path fill="none" stroke-width="5.5" stroke-linecap="butt" stroke-linejoin="miter" stroke="rgb(70.196078%, 70.196078%, 70.196078%)" stroke-opacity="1" stroke-miterlimit="10" d="M 161.757812 581.265625 C 166.9375 540.6875 156.925781 504.203125 129.125 474.21875 "/>
<path fill-rule="nonzero" fill="rgb(70.196078%, 70.196078%, 70.196078%)" fill-opacity="1" d="M 124.277344 468.988281 L 130.828125 472.644531 L 127.425781 475.792969 L 124.277344 468.988281 "/>
<path fill="none" stroke-width="5.5" stroke-linecap="butt" stroke-linejoin="miter" stroke="rgb(70.196078%, 70.196078%, 70.196078%)" stroke-opacity="1" stroke-miterlimit="10" d="M 219.222656 661.421875 C 214.539062 629.617188 199.347656 603.910156 171.828125 587.328125 "/>
<path fill-rule="nonzero" fill="rgb(70.196078%, 70.196078%, 70.196078%)" fill-opacity="1" d="M 165.71875 583.648438 L 173.023438 585.34375 L 170.632812 589.316406 L 165.71875 583.648438 "/>
<path fill="none" stroke-width="5.5" stroke-linecap="butt" stroke-linejoin="miter" stroke="rgb(70.196078%, 70.196078%, 70.196078%)" stroke-opacity="1" stroke-miterlimit="10" d="M 288.222656 718.007812 C 276.980469 691.578125 258.070312 672.675781 230.507812 664.691406 "/>
<path fill-rule="nonzero" fill="rgb(70.196078%, 70.196078%, 70.196078%)" fill-opacity="1" d="M 223.65625 662.707031 L 231.152344 662.464844 L 229.863281 666.917969 L 223.65625 662.707031 "/>
<path fill="none" stroke-width="1.5" stroke-linecap="butt" stroke-linejoin="miter" stroke="rgb(12.156863%, 47.058824%, 70.588235%)" stroke-opacity="1" stroke-miterlimit="10" d="M 322.621094 200.40625 C 355.664062 195.53125 382.351562 179.738281 399.582031 151.148438 "/>
<path fill-rule="nonzero" fill="rgb(12.156863%, 47.058824%, 70.588235%)" fill-opacity="1" d="M 403.261719 145.039062 L 401.566406 152.34375 L 397.59375 149.953125 L 403.261719 145.039062 "/>
<path fill="none" stroke-width="5.5" stroke-linecap="butt" stroke-linejoin="miter" stroke="rgb(70.196078%, 70.196078%, 70.196078%)" stroke-opacity="1" stroke-miterlimit="10" d="M 455.445312 592.519531 C 436.46875 627.898438 432.828125 664.863281 447.816406 702.089844 "/>
<path fill-rule="nonzero" fill="rgb(70.196078%, 70.196078%, 70.196078%)" fill-opacity="1" d="M 450.480469 708.707031 L 445.667969 702.953125 L 449.964844 701.222656 L 450.480469 708.707031 "/>
<path fill="none" stroke-width="5.5" stroke-linecap="butt" stroke-linejoin="miter" stroke="rgb(70.196078%, 70.196078%, 70.196078%)" stroke-opacity="1" stroke-miterlimit="10" d="M 452.207031 712.996094 C 422.175781 710.886719 395.550781 719.5625 374.910156 741.449219 "/>
<path fill-rule="nonzero" fill="rgb(70.196078%, 70.196078%, 70.196078%)" fill-opacity="1" d="M 370.015625 746.640625 L 373.226562 739.859375 L 376.597656 743.039062 L 370.015625 746.640625 "/>
<path fill="none" stroke-width="1.5" stroke-linecap="butt" stroke-linejoin="miter" stroke="rgb(12.156863%, 47.058824%, 70.588235%)" stroke-opacity="1" stroke-miterlimit="10" d="M 106.132812 105.003906 C 96.585938 134.515625 98.695312 163.273438 115.453125 189.351562 "/>
<path fill-rule="nonzero" fill="rgb(12.156863%, 47.058824%, 70.588235%)" fill-opacity="1" d="M 119.3125 195.351562 L 113.503906 190.601562 L 117.402344 188.097656 L 119.3125 195.351562 "/>
<path fill="none" stroke-width="1.5" stroke-linecap="butt" stroke-linejoin="miter" stroke="rgb(12.156863%, 47.058824%, 70.588235%)" stroke-opacity="1" stroke-miterlimit="10" d="M 466.222656 113.390625 C 446.90625 111.390625 429.222656 116.121094 415.78125 130.089844 "/>
<path fill-rule="nonzero" fill="rgb(12.156863%, 47.058824%, 70.588235%)" fill-opacity="1" d="M 410.839844 135.230469 L 414.113281 128.484375 L 417.453125 131.699219 L 410.839844 135.230469 "/>
<path fill="none" stroke-width="1.5" stroke-linecap="butt" stroke-linejoin="miter" stroke="rgb(12.156863%, 47.058824%, 70.588235%)" stroke-opacity="1" stroke-miterlimit="10" d="M 187.996094 96.066406 C 173.90625 110.28125 166.324219 127.523438 168.800781 147.347656 "/>
<path fill-rule="nonzero" fill="rgb(12.156863%, 47.058824%, 70.588235%)" fill-opacity="1" d="M 169.683594 154.425781 L 166.5 147.636719 L 171.101562 147.0625 L 169.683594 154.425781 "/>
<path fill="none" stroke-width="1.5" stroke-linecap="butt" stroke-linejoin="miter" stroke="rgb(12.156863%, 47.058824%, 70.588235%)" stroke-opacity="1" stroke-miterlimit="10" d="M 406.378906 139.867188 C 419.367188 113.246094 421.234375 85.773438 408.890625 58.871094 "/>
<path fill-rule="nonzero" fill="rgb(12.156863%, 47.058824%, 70.588235%)" fill-opacity="1" d="M 405.917969 52.386719 L 410.996094 57.90625 L 406.785156 59.835938 L 405.917969 52.386719 "/>
<path fill="none" stroke-width="1.5" stroke-linecap="butt" stroke-linejoin="miter" stroke="rgb(12.156863%, 47.058824%, 70.588235%)" stroke-opacity="1" stroke-miterlimit="10" d="M 406.378906 139.867188 C 427.019531 141.417969 445.59375 135.75 459.609375 120.5625 "/>
<path fill-rule="nonzero" fill="rgb(12.156863%, 47.058824%, 70.588235%)" fill-opacity="1" d="M 464.445312 115.320312 L 461.3125 122.132812 L 457.90625 118.988281 L 464.445312 115.320312 "/>
<path fill="none" stroke-width="5.5" stroke-linecap="butt" stroke-linejoin="miter" stroke="rgb(70.196078%, 70.196078%, 70.196078%)" stroke-opacity="1" stroke-miterlimit="10" d="M 406.378906 139.867188 C 390.921875 130.933594 374.269531 128.179688 357.789062 134.933594 "/>
<path fill-rule="nonzero" fill="rgb(70.196078%, 70.196078%, 70.196078%)" fill-opacity="1" d="M 351.1875 137.636719 L 356.910156 132.789062 L 358.664062 137.078125 L 351.1875 137.636719 "/>
<path fill="none" stroke-width="1.5" stroke-linecap="butt" stroke-linejoin="miter" stroke="rgb(12.156863%, 47.058824%, 70.588235%)" stroke-opacity="1" stroke-miterlimit="10" d="M 406.378906 139.867188 C 385.46875 109.667969 356.878906 91.25 320.308594 88 "/>
<path fill-rule="nonzero" fill="rgb(12.156863%, 47.058824%, 70.588235%)" fill-opacity="1" d="M 313.203125 87.367188 L 320.511719 85.691406 L 320.101562 90.308594 L 313.203125 87.367188 "/>
<path fill="none" stroke-width="1.5" stroke-linecap="butt" stroke-linejoin="miter" stroke="rgb(12.156863%, 47.058824%, 70.588235%)" stroke-opacity="1" stroke-miterlimit="10" d="M 395.675781 327.53125 C 376.28125 349.257812 367.164062 374.761719 371.683594 403.511719 "/>
<path fill-rule="nonzero" fill="rgb(12.156863%, 47.058824%, 70.588235%)" fill-opacity="1" d="M 372.789062 410.558594 L 369.394531 403.871094 L 373.972656 403.152344 L 372.789062 410.558594 "/>
<path fill="none" stroke-width="5.5" stroke-linecap="butt" stroke-linejoin="miter" stroke="rgb(70.196078%, 70.196078%, 70.196078%)" stroke-opacity="1" stroke-miterlimit="10" d="M 395.675781 327.53125 C 427.066406 271.394531 433.300781 212.542969 410.964844 152.242188 "/>
<path fill-rule="nonzero" fill="rgb(70.196078%, 70.196078%, 70.196078%)" fill-opacity="1" d="M 408.484375 145.554688 L 413.136719 151.4375 L 408.789062 153.046875 L 408.484375 145.554688 "/>
<path fill="none" stroke-width="1.5" stroke-linecap="butt" stroke-linejoin="miter" stroke="rgb(12.156863%, 47.058824%, 70.588235%)" stroke-opacity="1" stroke-miterlimit="10" d="M 395.675781 327.53125 C 415.21875 343.21875 437.582031 350.0625 462.046875 344.734375 "/>
<path fill-rule="nonzero" fill="rgb(12.156863%, 47.058824%, 70.588235%)" fill-opacity="1" d="M 469.015625 343.214844 L 462.539062 346.996094 L 461.554688 342.46875 L 469.015625 343.214844 "/>
<path fill="none" stroke-width="1.5" stroke-linecap="butt" stroke-linejoin="miter" stroke="rgb(12.156863%, 47.058824%, 70.588235%)" stroke-opacity="1" stroke-miterlimit="10" d="M 395.675781 327.53125 C 416.289062 319.378906 431.464844 305.214844 437.949219 284.050781 "/>
<path fill-rule="nonzero" fill="rgb(12.156863%, 47.058824%, 70.588235%)" fill-opacity="1" d="M 440.039062 277.230469 L 440.167969 284.730469 L 435.734375 283.371094 L 440.039062 277.230469 "/>
<path fill="none" stroke-width="1.5" stroke-linecap="butt" stroke-linejoin="miter" stroke="rgb(12.156863%, 47.058824%, 70.588235%)" stroke-opacity="1" stroke-miterlimit="10" d="M 395.675781 327.53125 C 396.414062 360.585938 408.695312 388.691406 434.628906 409.171875 "/>
<path fill-rule="nonzero" fill="rgb(12.156863%, 47.058824%, 70.588235%)" fill-opacity="1" d="M 440.226562 413.589844 L 433.191406 410.988281 L 436.066406 407.351562 L 440.226562 413.589844 "/>
<path fill="none" stroke-width="1.5" stroke-linecap="butt" stroke-linejoin="miter" stroke="rgb(12.156863%, 47.058824%, 70.588235%)" stroke-opacity="1" stroke-miterlimit="10" d="M 471.582031 342.65625 C 453.734375 327.445312 432.96875 320.265625 409.988281 324.742188 "/>
<path fill-rule="nonzero" fill="rgb(12.156863%, 47.058824%, 70.588235%)" fill-opacity="1" d="M 402.984375 326.109375 L 409.542969 322.46875 L 410.429688 327.019531 L 402.984375 326.109375 "/>
<path fill="none" stroke-width="1.5" stroke-linecap="butt" stroke-linejoin="miter" stroke="rgb(12.156863%, 47.058824%, 70.588235%)" stroke-opacity="1" stroke-miterlimit="10" d="M 440.808594 274.722656 C 421.453125 281.640625 406.78125 294.25 400.289062 313.710938 "/>
<path fill-rule="nonzero" fill="rgb(12.156863%, 47.058824%, 70.588235%)" fill-opacity="1" d="M 398.03125 320.476562 L 398.089844 312.976562 L 402.484375 314.445312 L 398.03125 320.476562 "/>
<path fill="none" stroke-width="1.5" stroke-linecap="butt" stroke-linejoin="miter" stroke="rgb(12.156863%, 47.058824%, 70.588235%)" stroke-opacity="1" stroke-miterlimit="10" d="M 310.585938 87.136719 C 297.257812 123.148438 298.667969 158.644531 317.761719 191.9375 "/>
<path fill-rule="nonzero" fill="rgb(12.156863%, 47.058824%, 70.588235%)" fill-opacity="1" d="M 321.3125 198.125 L 315.753906 193.09375 L 319.773438 190.785156 L 321.3125 198.125 "/>
<path fill="none" stroke-width="4.5" stroke-linecap="butt" stroke-linejoin="miter" stroke="rgb(70.196078%, 70.196078%, 70.196078%)" stroke-opacity="1" stroke-miterlimit="10" d="M 251.957031 311.210938 C 292.292969 337.539062 336.046875 345.523438 382.144531 331.613281 "/>
<path fill-rule="nonzero" fill="rgb(70.196078%, 70.196078%, 70.196078%)" fill-opacity="1" d="M 388.972656 329.554688 L 382.816406 333.832031 L 381.476562 329.394531 L 388.972656 329.554688 "/>
<path fill="none" stroke-width="1.5" stroke-linecap="butt" stroke-linejoin="miter" stroke="rgb(12.156863%, 47.058824%, 70.588235%)" stroke-opacity="1" stroke-miterlimit="10" d="M 251.957031 311.210938 C 233.382812 321.160156 220.542969 336.1875 216.78125 356.894531 "/>
<path fill-rule="nonzero" fill="rgb(12.156863%, 47.058824%, 70.588235%)" fill-opacity="1" d="M 215.507812 363.910156 L 214.5 356.480469 L 219.0625 357.304688 L 215.507812 363.910156 "/>
<path fill="none" stroke-width="1.5" stroke-linecap="butt" stroke-linejoin="miter" stroke="rgb(12.156863%, 47.058824%, 70.588235%)" stroke-opacity="1" stroke-miterlimit="10" d="M 251.957031 311.210938 C 259.542969 334.320312 274.097656 351.757812 296.820312 360.347656 "/>
<path fill-rule="nonzero" fill="rgb(12.156863%, 47.058824%, 70.588235%)" fill-opacity="1" d="M 303.492188 362.871094 L 296 362.515625 L 297.640625 358.179688 L 303.492188 362.871094 "/>
<path fill="none" stroke-width="1.5" stroke-linecap="butt" stroke-linejoin="miter" stroke="rgb(12.156863%, 47.058824%, 70.588235%)" stroke-opacity="1" stroke-miterlimit="10" d="M 215.039062 366.492188 C 232.980469 357.347656 245.644531 343.261719 249.53125 323.539062 "/>
<path fill-rule="nonzero" fill="rgb(12.156863%, 47.058824%, 70.588235%)" fill-opacity="1" d="M 250.910156 316.542969 L 251.804688 323.988281 L 247.253906 323.089844 L 250.910156 316.542969 "/>
<path fill="none" stroke-width="1.5" stroke-linecap="butt" stroke-linejoin="miter" stroke="rgb(12.156863%, 47.058824%, 70.588235%)" stroke-opacity="1" stroke-miterlimit="10" d="M 305.949219 363.796875 C 336.296875 367.035156 363.617188 359.246094 385.296875 337.800781 "/>
<path fill-rule="nonzero" fill="rgb(12.156863%, 47.058824%, 70.588235%)" fill-opacity="1" d="M 390.367188 332.785156 L 386.925781 339.449219 L 383.667969 336.152344 L 390.367188 332.785156 "/>
<path fill="none" stroke-width="5.5" stroke-linecap="butt" stroke-linejoin="miter" stroke="rgb(70.196078%, 70.196078%, 70.196078%)" stroke-opacity="1" stroke-miterlimit="10" d="M 122.0625 199.632812 C 145.261719 253.359375 184.308594 290.5 240.253906 307.628906 "/>
<path fill-rule="nonzero" fill="rgb(70.196078%, 70.196078%, 70.196078%)" fill-opacity="1" d="M 247.074219 309.714844 L 239.574219 309.84375 L 240.929688 305.410156 L 247.074219 309.714844 "/>
<path fill="none" stroke-width="1.5" stroke-linecap="butt" stroke-linejoin="miter" stroke="rgb(12.156863%, 47.058824%, 70.588235%)" stroke-opacity="1" stroke-miterlimit="10" d="M 170.359375 159.816406 C 159.859375 134.257812 141.894531 115.84375 115.472656 107.835938 "/>
<path fill-rule="nonzero" fill="rgb(12.156863%, 47.058824%, 70.588235%)" fill-opacity="1" d="M 108.644531 105.765625 L 116.144531 105.617188 L 114.800781 110.054688 L 108.644531 105.765625 "/>
<path fill="none" stroke-width="1.5" stroke-linecap="butt" stroke-linejoin="miter" stroke="rgb(12.156863%, 47.058824%, 70.588235%)" stroke-opacity="1" stroke-miterlimit="10" d="M 170.359375 159.816406 C 184.800781 144.636719 192.253906 126.449219 189.351562 105.726562 "/>
<path fill-rule="nonzero" fill="rgb(12.156863%, 47.058824%, 70.588235%)" fill-opacity="1" d="M 188.359375 98.664062 L 191.644531 105.40625 L 187.054688 106.046875 L 188.359375 98.664062 "/>
<path fill="none" stroke-width="4.5" stroke-linecap="butt" stroke-linejoin="miter" stroke="rgb(70.196078%, 70.196078%, 70.196078%)" stroke-opacity="1" stroke-miterlimit="10" d="M 170.359375 159.816406 C 151.917969 163.035156 136.734375 172.050781 127.964844 188.542969 "/>
<path fill-rule="nonzero" fill="rgb(70.196078%, 70.196078%, 70.196078%)" fill-opacity="1" d="M 124.613281 194.839844 L 125.917969 187.457031 L 130.007812 189.632812 L 124.613281 194.839844 "/>
<path fill="none" stroke-width="5.5" stroke-linecap="butt" stroke-linejoin="miter" stroke="rgb(70.196078%, 70.196078%, 70.196078%)" stroke-opacity="1" stroke-miterlimit="10" d="M 420.597656 639.082031 C 436.453125 632.234375 448.21875 620.902344 452.472656 604.203125 "/>
<path fill-rule="nonzero" fill="rgb(70.196078%, 70.196078%, 70.196078%)" fill-opacity="1" d="M 454.230469 597.292969 L 454.71875 604.777344 L 450.226562 603.632812 L 454.230469 597.292969 "/>
<path fill="none" stroke-width="1.5" stroke-linecap="butt" stroke-linejoin="miter" stroke="rgb(12.156863%, 47.058824%, 70.588235%)" stroke-opacity="1" stroke-miterlimit="10" d="M 442.289062 415.21875 C 442.285156 383.777344 431.300781 356.671875 406.980469 336.777344 "/>
<path fill-rule="nonzero" fill="rgb(12.156863%, 47.058824%, 70.588235%)" fill-opacity="1" d="M 401.457031 332.261719 L 408.445312 334.984375 L 405.511719 338.570312 L 401.457031 332.261719 "/>
<path fill="none" stroke-width="5.5" stroke-linecap="butt" stroke-linejoin="miter" stroke="rgb(70.196078%, 70.196078%, 70.196078%)" stroke-opacity="1" stroke-miterlimit="10" d="M 532.253906 616.78125 C 495.917969 606.683594 461.246094 610.914062 430.261719 632.382812 "/>
<path fill-rule="nonzero" fill="rgb(70.196078%, 70.196078%, 70.196078%)" fill-opacity="1" d="M 424.398438 636.445312 L 428.941406 630.480469 L 431.582031 634.289062 L 424.398438 636.445312 "/>
<path fill="none" stroke-width="5.5" stroke-linecap="butt" stroke-linejoin="miter" stroke="rgb(70.196078%, 70.196078%, 70.196078%)" stroke-opacity="1" stroke-miterlimit="10" d="M 594.316406 542.5 C 565.296875 554.699219 544.597656 575.371094 535.609375 605.519531 "/>
<path fill-rule="nonzero" fill="rgb(70.196078%, 70.196078%, 70.196078%)" fill-opacity="1" d="M 533.574219 612.355469 L 533.390625 604.855469 L 537.832031 606.179688 L 533.574219 612.355469 "/>
<path fill-rule="nonzero" fill="rgb(70.196078%, 70.196078%, 70.196078%)" fill-opacity="1" stroke-width="1" stroke-linecap="butt" stroke-linejoin="miter" stroke="rgb(70.196078%, 70.196078%, 70.196078%)" stroke-opacity="1" stroke-miterlimit="10" d="M 608.128906 347.246094 C 608.128906 353.710938 598.429688 353.710938 598.429688 347.246094 C 598.429688 340.777344 608.128906 340.777344 608.128906 347.246094 "/>
<path fill-rule="nonzero" fill="rgb(70.196078%, 70.196078%, 70.196078%)" fill-opacity="1" stroke-width="1" stroke-linecap="butt" stroke-linejoin="miter" stroke="rgb(70.196078%, 70.196078%, 70.196078%)" stroke-opacity="1" stroke-miterlimit="10" d="M 609.058594 271.695312 C 609.058594 278.164062 599.359375 278.164062 599.359375 271.695312 C 599.359375 265.230469 609.058594 265.230469 609.058594 271.695312 "/>
<path fill-rule="nonzero" fill="rgb(70.196078%, 70.196078%, 70.196078%)" fill-opacity="1" stroke-width="1" stroke-linecap="butt" stroke-linejoin="miter" stroke="rgb(70.196078%, 70.196078%, 70.196078%)" stroke-opacity="1" stroke-miterlimit="10" d="M 683.453125 238.878906 C 683.453125 246.011719 672.75 246.011719 672.75 238.878906 C 672.75 231.746094 683.453125 231.746094 683.453125 238.878906 "/>
<path fill-rule="nonzero" fill="rgb(100%, 84.313725%, 0%)" fill-opacity="1" stroke-width="1" stroke-linecap="butt" stroke-linejoin="miter" stroke="rgb(100%, 84.313725%, 0%)" stroke-opacity="1" stroke-miterlimit="10" d="M 744.648438 198.34375 L 755.347656 198.34375 L 755.347656 209.042969 L 744.648438 209.042969 Z M 744.648438 198.34375 "/>
<path fill-rule="nonzero" fill="rgb(100%, 84.313725%, 0%)" fill-opacity="1" stroke-width="1" stroke-linecap="butt" stroke-linejoin="miter" stroke="rgb(100%, 84.313725%, 0%)" stroke-opacity="1" stroke-miterlimit="10" d="M 667.214844 148.226562 L 673.714844 148.226562 L 673.714844 154.726562 L 667.214844 154.726562 Z M 667.214844 148.226562 "/>
<path fill-rule="nonzero" fill="rgb(70.196078%, 70.196078%, 70.196078%)" fill-opacity="1" stroke-width="1" stroke-linecap="butt" stroke-linejoin="miter" stroke="rgb(70.196078%, 70.196078%, 70.196078%)" stroke-opacity="1" stroke-miterlimit="10" d="M 637.734375 447.03125 C 637.734375 454.164062 627.035156 454.164062 627.035156 447.03125 C 627.035156 439.898438 637.734375 439.898438 637.734375 447.03125 "/>
<path fill-rule="nonzero" fill="rgb(12.156863%, 47.058824%, 70.588235%)" fill-opacity="1" stroke-width="1" stroke-linecap="butt" stroke-linejoin="miter" stroke="rgb(12.156863%, 47.058824%, 70.588235%)" stroke-opacity="1" stroke-miterlimit="10" d="M 407.570312 50 C 407.570312 53.667969 402.070312 53.667969 402.070312 50 C 402.070312 46.332031 407.570312 46.332031 407.570312 50 "/>
<path fill-rule="nonzero" fill="rgb(12.156863%, 47.058824%, 70.588235%)" fill-opacity="1" stroke-width="1" stroke-linecap="butt" stroke-linejoin="miter" stroke="rgb(12.156863%, 47.058824%, 70.588235%)" stroke-opacity="1" stroke-miterlimit="10" d="M 709.207031 324.488281 C 709.207031 328.15625 703.707031 328.15625 703.707031 324.488281 C 703.707031 320.824219 709.207031 320.824219 709.207031 324.488281 "/>
<path fill-rule="nonzero" fill="rgb(12.156863%, 47.058824%, 70.588235%)" fill-opacity="1" stroke-width="1" stroke-linecap="butt" stroke-linejoin="miter" stroke="rgb(12.156863%, 47.058824%, 70.588235%)" stroke-opacity="1" stroke-miterlimit="10" d="M 701.1875 408.628906 C 701.1875 412.296875 695.6875 412.296875 695.6875 408.628906 C 695.6875 404.964844 701.1875 404.964844 701.1875 408.628906 "/>
<path fill-rule="nonzero" fill="rgb(12.156863%, 47.058824%, 70.588235%)" fill-opacity="1" stroke-width="1" stroke-linecap="butt" stroke-linejoin="miter" stroke="rgb(12.156863%, 47.058824%, 70.588235%)" stroke-opacity="1" stroke-miterlimit="10" d="M 375.949219 413.152344 C 375.949219 416.820312 370.449219 416.820312 370.449219 413.152344 C 370.449219 409.488281 375.949219 409.488281 375.949219 413.152344 "/>
<path fill-rule="nonzero" fill="rgb(12.156863%, 47.058824%, 70.588235%)" fill-opacity="1" stroke-width="1" stroke-linecap="butt" stroke-linejoin="miter" stroke="rgb(12.156863%, 47.058824%, 70.588235%)" stroke-opacity="1" stroke-miterlimit="10" d="M 52.75 330.496094 C 52.75 334.164062 47.25 334.164062 47.25 330.496094 C 47.25 326.832031 52.75 326.832031 52.75 330.496094 "/>
<path fill-rule="nonzero" fill="rgb(70.196078%, 70.196078%, 70.196078%)" fill-opacity="1" stroke-width="1" stroke-linecap="butt" stroke-linejoin="miter" stroke="rgb(70.196078%, 70.196078%, 70.196078%)" stroke-opacity="1" stroke-miterlimit="10" d="M 371.699219 750 C 371.699219 756.464844 362 756.464844 362 750 C 362 743.535156 371.699219 743.535156 371.699219 750 "/>
<path fill-rule="nonzero" fill="rgb(70.196078%, 70.196078%, 70.196078%)" fill-opacity="1" stroke-width="1" stroke-linecap="butt" stroke-linejoin="miter" stroke="rgb(70.196078%, 70.196078%, 70.196078%)" stroke-opacity="1" stroke-miterlimit="10" d="M 116.324219 324.421875 C 116.324219 331.554688 105.625 331.554688 105.625 324.421875 C 105.625 317.289062 116.324219 317.289062 116.324219 324.421875 "/>
<path fill-rule="nonzero" fill="rgb(70.196078%, 70.196078%, 70.196078%)" fill-opacity="1" stroke-width="1" stroke-linecap="butt" stroke-linejoin="miter" stroke="rgb(70.196078%, 70.196078%, 70.196078%)" stroke-opacity="1" stroke-miterlimit="10" d="M 125.980469 465.59375 C 125.980469 472.0625 116.28125 472.0625 116.28125 465.59375 C 116.28125 459.128906 125.980469 459.128906 125.980469 465.59375 "/>
<path fill-rule="nonzero" fill="rgb(70.196078%, 70.196078%, 70.196078%)" fill-opacity="1" stroke-width="1" stroke-linecap="butt" stroke-linejoin="miter" stroke="rgb(70.196078%, 70.196078%, 70.196078%)" stroke-opacity="1" stroke-miterlimit="10" d="M 166.609375 581.265625 C 166.609375 587.730469 156.910156 587.730469 156.910156 581.265625 C 156.910156 574.796875 166.609375 574.796875 166.609375 581.265625 "/>
<path fill-rule="nonzero" fill="rgb(70.196078%, 70.196078%, 70.196078%)" fill-opacity="1" stroke-width="1" stroke-linecap="butt" stroke-linejoin="miter" stroke="rgb(70.196078%, 70.196078%, 70.196078%)" stroke-opacity="1" stroke-miterlimit="10" d="M 224.070312 661.421875 C 224.070312 667.890625 214.371094 667.890625 214.371094 661.421875 C 214.371094 654.957031 224.070312 654.957031 224.070312 661.421875 "/>
<path fill-rule="nonzero" fill="rgb(70.196078%, 70.196078%, 70.196078%)" fill-opacity="1" stroke-width="1" stroke-linecap="butt" stroke-linejoin="miter" stroke="rgb(70.196078%, 70.196078%, 70.196078%)" stroke-opacity="1" stroke-miterlimit="10" d="M 293.070312 718.007812 C 293.070312 724.476562 283.371094 724.476562 283.371094 718.007812 C 283.371094 711.542969 293.070312 711.542969 293.070312 718.007812 "/>
<path fill-rule="nonzero" fill="rgb(12.156863%, 47.058824%, 70.588235%)" fill-opacity="1" stroke-width="1" stroke-linecap="butt" stroke-linejoin="miter" stroke="rgb(12.156863%, 47.058824%, 70.588235%)" stroke-opacity="1" stroke-miterlimit="10" d="M 325.371094 200.40625 C 325.371094 204.074219 319.871094 204.074219 319.871094 200.40625 C 319.871094 196.742188 325.371094 196.742188 325.371094 200.40625 "/>
<path fill-rule="nonzero" fill="rgb(70.196078%, 70.196078%, 70.196078%)" fill-opacity="1" stroke-width="1" stroke-linecap="butt" stroke-linejoin="miter" stroke="rgb(70.196078%, 70.196078%, 70.196078%)" stroke-opacity="1" stroke-miterlimit="10" d="M 460.296875 592.519531 C 460.296875 598.988281 450.59375 598.988281 450.59375 592.519531 C 450.59375 586.054688 460.296875 586.054688 460.296875 592.519531 "/>
<path fill-rule="nonzero" fill="rgb(70.196078%, 70.196078%, 70.196078%)" fill-opacity="1" stroke-width="1" stroke-linecap="butt" stroke-linejoin="miter" stroke="rgb(70.196078%, 70.196078%, 70.196078%)" stroke-opacity="1" stroke-miterlimit="10" d="M 457.058594 712.996094 C 457.058594 719.464844 447.359375 719.464844 447.359375 712.996094 C 447.359375 706.53125 457.058594 706.53125 457.058594 712.996094 "/>
<path fill-rule="nonzero" fill="rgb(12.156863%, 47.058824%, 70.588235%)" fill-opacity="1" stroke-width="1" stroke-linecap="butt" stroke-linejoin="miter" stroke="rgb(12.156863%, 47.058824%, 70.588235%)" stroke-opacity="1" stroke-miterlimit="10" d="M 108.882812 105.003906 C 108.882812 108.671875 103.382812 108.671875 103.382812 105.003906 C 103.382812 101.335938 108.882812 101.335938 108.882812 105.003906 "/>
<path fill-rule="nonzero" fill="rgb(12.156863%, 47.058824%, 70.588235%)" fill-opacity="1" stroke-width="1" stroke-linecap="butt" stroke-linejoin="miter" stroke="rgb(12.156863%, 47.058824%, 70.588235%)" stroke-opacity="1" stroke-miterlimit="10" d="M 468.972656 113.390625 C 468.972656 117.058594 463.472656 117.058594 463.472656 113.390625 C 463.472656 109.726562 468.972656 109.726562 468.972656 113.390625 "/>
<path fill-rule="nonzero" fill="rgb(12.156863%, 47.058824%, 70.588235%)" fill-opacity="1" stroke-width="1" stroke-linecap="butt" stroke-linejoin="miter" stroke="rgb(12.156863%, 47.058824%, 70.588235%)" stroke-opacity="1" stroke-miterlimit="10" d="M 190.746094 96.066406 C 190.746094 99.730469 185.246094 99.730469 185.246094 96.066406 C 185.246094 92.398438 190.746094 92.398438 190.746094 96.066406 "/>
<path fill-rule="nonzero" fill="rgb(14.901961%, 14.901961%, 14.901961%)" fill-opacity="1" stroke-width="1" stroke-linecap="butt" stroke-linejoin="miter" stroke="rgb(14.901961%, 14.901961%, 14.901961%)" stroke-opacity="1" stroke-miterlimit="10" d="M 339.851562 145.730469 L 345.703125 134.03125 L 351.554688 145.730469 Z M 339.851562 145.730469 "/>
<path fill-rule="nonzero" fill="rgb(70.196078%, 70.196078%, 70.196078%)" fill-opacity="1" stroke-width="1" stroke-linecap="butt" stroke-linejoin="miter" stroke="rgb(70.196078%, 70.196078%, 70.196078%)" stroke-opacity="1" stroke-miterlimit="10" d="M 412.730469 139.867188 C 412.730469 143.375 409.886719 146.21875 406.378906 146.21875 C 402.871094 146.21875 400.027344 143.375 400.027344 139.867188 C 400.027344 136.359375 402.871094 133.515625 406.378906 133.515625 C 409.886719 133.515625 412.730469 136.359375 412.730469 139.867188 "/>
<path fill-rule="nonzero" fill="rgb(70.196078%, 70.196078%, 70.196078%)" fill-opacity="1" stroke-width="1" stroke-linecap="butt" stroke-linejoin="miter" stroke="rgb(70.196078%, 70.196078%, 70.196078%)" stroke-opacity="1" stroke-miterlimit="10" d="M 403.027344 327.53125 C 403.027344 331.589844 399.734375 334.882812 395.675781 334.882812 C 391.617188 334.882812 388.328125 331.589844 388.328125 327.53125 C 388.328125 323.472656 391.617188 320.179688 395.675781 320.179688 C 399.734375 320.179688 403.027344 323.472656 403.027344 327.53125 "/>
<path fill-rule="nonzero" fill="rgb(12.156863%, 47.058824%, 70.588235%)" fill-opacity="1" stroke-width="1" stroke-linecap="butt" stroke-linejoin="miter" stroke="rgb(12.156863%, 47.058824%, 70.588235%)" stroke-opacity="1" stroke-miterlimit="10" d="M 474.332031 342.65625 C 474.332031 346.324219 468.832031 346.324219 468.832031 342.65625 C 468.832031 338.988281 474.332031 338.988281 474.332031 342.65625 "/>
<path fill-rule="nonzero" fill="rgb(12.156863%, 47.058824%, 70.588235%)" fill-opacity="1" stroke-width="1" stroke-linecap="butt" stroke-linejoin="miter" stroke="rgb(12.156863%, 47.058824%, 70.588235%)" stroke-opacity="1" stroke-miterlimit="10" d="M 443.558594 274.722656 C 443.558594 278.386719 438.058594 278.386719 438.058594 274.722656 C 438.058594 271.054688 443.558594 271.054688 443.558594 274.722656 "/>
<path fill-rule="nonzero" fill="rgb(12.156863%, 47.058824%, 70.588235%)" fill-opacity="1" stroke-width="1" stroke-linecap="butt" stroke-linejoin="miter" stroke="rgb(12.156863%, 47.058824%, 70.588235%)" stroke-opacity="1" stroke-miterlimit="10" d="M 313.335938 87.136719 C 313.335938 90.800781 307.835938 90.800781 307.835938 87.136719 C 307.835938 83.46875 313.335938 83.46875 313.335938 87.136719 "/>
<path fill-rule="nonzero" fill="rgb(70.196078%, 70.196078%, 70.196078%)" fill-opacity="1" stroke-width="1" stroke-linecap="butt" stroke-linejoin="miter" stroke="rgb(70.196078%, 70.196078%, 70.196078%)" stroke-opacity="1" stroke-miterlimit="10" d="M 257.308594 311.210938 C 257.308594 318.34375 246.609375 318.34375 246.609375 311.210938 C 246.609375 304.078125 257.308594 304.078125 257.308594 311.210938 "/>
<path fill-rule="nonzero" fill="rgb(12.156863%, 47.058824%, 70.588235%)" fill-opacity="1" stroke-width="1" stroke-linecap="butt" stroke-linejoin="miter" stroke="rgb(12.156863%, 47.058824%, 70.588235%)" stroke-opacity="1" stroke-miterlimit="10" d="M 217.789062 366.492188 C 217.789062 370.15625 212.289062 370.15625 212.289062 366.492188 C 212.289062 362.824219 217.789062 362.824219 217.789062 366.492188 "/>
<path fill-rule="nonzero" fill="rgb(12.156863%, 47.058824%, 70.588235%)" fill-opacity="1" stroke-width="1" stroke-linecap="butt" stroke-linejoin="miter" stroke="rgb(12.156863%, 47.058824%, 70.588235%)" stroke-opacity="1" stroke-miterlimit="10" d="M 308.699219 363.796875 C 308.699219 367.464844 303.199219 367.464844 303.199219 363.796875 C 303.199219 360.132812 308.699219 360.132812 308.699219 363.796875 "/>
<path fill-rule="nonzero" fill="rgb(70.196078%, 70.196078%, 70.196078%)" fill-opacity="1" stroke-width="1" stroke-linecap="butt" stroke-linejoin="miter" stroke="rgb(70.196078%, 70.196078%, 70.196078%)" stroke-opacity="1" stroke-miterlimit="10" d="M 127.414062 199.632812 C 127.414062 206.765625 116.714844 206.765625 116.714844 199.632812 C 116.714844 192.5 127.414062 192.5 127.414062 199.632812 "/>
<path fill-rule="nonzero" fill="rgb(70.196078%, 70.196078%, 70.196078%)" fill-opacity="1" stroke-width="1" stroke-linecap="butt" stroke-linejoin="miter" stroke="rgb(70.196078%, 70.196078%, 70.196078%)" stroke-opacity="1" stroke-miterlimit="10" d="M 175.707031 159.816406 C 175.707031 166.949219 165.007812 166.949219 165.007812 159.816406 C 165.007812 152.683594 175.707031 152.683594 175.707031 159.816406 "/>
<path fill-rule="nonzero" fill="rgb(70.196078%, 70.196078%, 70.196078%)" fill-opacity="1" stroke-width="1" stroke-linecap="butt" stroke-linejoin="miter" stroke="rgb(70.196078%, 70.196078%, 70.196078%)" stroke-opacity="1" stroke-miterlimit="10" d="M 425.449219 639.082031 C 425.449219 645.546875 415.746094 645.546875 415.746094 639.082031 C 415.746094 632.613281 425.449219 632.613281 425.449219 639.082031 "/>
<path fill-rule="nonzero" fill="rgb(12.156863%, 47.058824%, 70.588235%)" fill-opacity="1" stroke-width="1" stroke-linecap="butt" stroke-linejoin="miter" stroke="rgb(12.156863%, 47.058824%, 70.588235%)" stroke-opacity="1" stroke-miterlimit="10" d="M 445.039062 415.21875 C 445.039062 418.886719 439.539062 418.886719 439.539062 415.21875 C 439.539062 411.554688 445.039062 411.554688 445.039062 415.21875 "/>
<path fill-rule="nonzero" fill="rgb(70.196078%, 70.196078%, 70.196078%)" fill-opacity="1" stroke-width="1" stroke-linecap="butt" stroke-linejoin="miter" stroke="rgb(70.196078%, 70.196078%, 70.196078%)" stroke-opacity="1" stroke-miterlimit="10" d="M 537.105469 616.78125 C 537.105469 623.25 527.402344 623.25 527.402344 616.78125 C 527.402344 610.316406 537.105469 610.316406 537.105469 616.78125 "/>
<path fill-rule="nonzero" fill="rgb(70.196078%, 70.196078%, 70.196078%)" fill-opacity="1" stroke-width="1" stroke-linecap="butt" stroke-linejoin="miter" stroke="rgb(70.196078%, 70.196078%, 70.196078%)" stroke-opacity="1" stroke-miterlimit="10" d="M 599.167969 542.5 C 599.167969 548.964844 589.464844 548.964844 589.464844 542.5 C 589.464844 536.035156 599.167969 536.035156 599.167969 542.5 "/>
</svg>
