<?xml version="1.0" encoding="UTF-8"?>
<svg xmlns="http://www.w3.org/2000/svg" xmlns:xlink="http://www.w3.org/1999/xlink" width="800" height="800" viewBox="0 0 800 800">
<rect x="-80" y="-80" width="960" height="960" fill="rgb(100%, 100%, 100%)" fill-opacity="1"/>
<path fill="none" stroke-width="4.5" stroke-linecap="butt" stroke-linejoin="miter" stroke="rgb(70.196078%, 70.196078%, 70.196078%)" stroke-opacity="1" stroke-miterlimit="10" d="M 50 461.105469 C 54.359375 533.082031 84.203125 592.25 141.679688 635.777344 "/>
<path fill-rule="nonzero" fill="rgb(70.196078%, 70.196078%, 70.196078%)" fill-opacity="1" d="M 147.363281 640.082031 L 140.277344 637.625 L 143.078125 633.929688 L 147.363281 640.082031 "/>
<path fill="none" stroke-width="4.5" stroke-linecap="butt" stroke-linejoin="miter" stroke="rgb(70.196078%, 70.196078%, 70.196078%)" stroke-opacity="1" stroke-miterlimit="10" d="M 122.09375 426.109375 C 142.539062 428.066406 161.136719 422.863281 175.300781 408.035156 "/>
<path fill-rule="nonzero" fill="rgb(70.196078%, 70.196078%, 70.196078%)" fill-opacity="1" d="M 180.226562 402.875 L 176.976562 409.636719 L 173.625 406.433594 L 180.226562 402.875 "/>
<path fill="none" stroke-width="4.5" stroke-linecap="butt" stroke-linejoin="miter" stroke="rgb(70.196078%, 70.196078%, 70.196078%)" stroke-opacity="1" stroke-miterlimit="10" d="M 125.941406 510.21875 C 137.390625 485.898438 138.867188 460.875 127.199219 436.6875 "/>
<path fill-rule="nonzero" fill="rgb(70.196078%, 70.196078%, 70.196078%)" fill-opacity="1" d="M 124.097656 430.265625 L 129.285156 435.683594 L 125.109375 437.695312 L 124.097656 430.265625 "/>
<path fill="none" stroke-width="1.5" stroke-linecap="butt" stroke-linejoin="miter" stroke="rgb(12.156863%, 47.058824%, 70.588235%)" stroke-opacity="1" stroke-miterlimit="10" d="M 125.941406 510.21875 C 145.140625 512.828125 162.871094 508.628906 176.769531 495.179688 "/>
<path fill-rule="nonzero" fill="rgb(12.156863%, 47.058824%, 70.588235%)" fill-opacity="1" d="M 181.894531 490.21875 L 178.378906 496.84375 L 175.15625 493.515625 L 181.894531 490.21875 "/>
<path fill="none" stroke-width="2.5" stroke-linecap="butt" stroke-linejoin="miter" stroke="rgb(70.196078%, 70.196078%, 70.196078%)" stroke-opacity="1" stroke-miterlimit="10" d="M 489.921875 684.3125 C 471.667969 697.394531 460.195312 715.046875 459.070312 737.445312 "/>
<path fill-rule="nonzero" fill="rgb(70.196078%, 70.196078%, 70.196078%)" fill-opacity="1" d="M 458.710938 744.570312 L 456.753906 737.328125 L 461.382812 737.5625 L 458.710938 744.570312 "/>
<path fill="none" stroke-width="1.5" stroke-linecap="butt" stroke-linejoin="miter" stroke="rgb(12.156863%, 47.058824%, 70.588235%)" stroke-opacity="1" stroke-miterlimit="10" d="M 183.777344 488.394531 C 197.164062 463.078125 199.914062 436.546875 188.75 410.199219 "/>
<path fill-rule="nonzero" fill="rgb(12.156863%, 47.058824%, 70.588235%)" fill-opacity="1" d="M 185.964844 403.632812 L 190.882812 409.296875 L 186.617188 411.105469 L 185.964844 403.632812 "/>
<path fill="none" stroke-width="1.5" stroke-linecap="butt" stroke-linejoin="miter" stroke="rgb(12.156863%, 47.058824%, 70.588235%)" stroke-opacity="1" stroke-miterlimit="10" d="M 285.121094 643.511719 C 307.984375 648.527344 329.625 645.066406 347.789062 630.351562 "/>
<path fill-rule="nonzero" fill="rgb(12.156863%, 47.058824%, 70.588235%)" fill-opacity="1" d="M 353.332031 625.859375 L 349.25 632.152344 L 346.332031 628.546875 L 353.332031 625.859375 "/>
<path fill="none" stroke-width="1.5" stroke-linecap="butt" stroke-linejoin="miter" stroke="rgb(12.156863%, 47.058824%, 70.588235%)" stroke-opacity="1" stroke-miterlimit="10" d="M 250.492188 579.769531 C 250.808594 603.058594 259.089844 623.195312 277.429688 637.507812 "/>
<path fill-rule="nonzero" fill="rgb(12.156863%, 47.058824%, 70.588235%)" fill-opacity="1" d="M 283.050781 641.898438 L 276.003906 639.335938 L 278.855469 635.683594 L 283.050781 641.898438 "/>
<path fill="none" stroke-width="1.5" stroke-linecap="butt" stroke-linejoin="miter" stroke="rgb(12.156863%, 47.058824%, 70.588235%)" stroke-opacity="1" stroke-miterlimit="10" d="M 746.464844 303.878906 C 733.9375 331.070312 732.675781 358.867188 745.738281 385.777344 "/>
<path fill-rule="nonzero" fill="rgb(12.156863%, 47.058824%, 70.588235%)" fill-opacity="1" d="M 748.851562 392.195312 L 743.652344 386.792969 L 747.824219 384.765625 L 748.851562 392.195312 "/>
<path fill="none" stroke-width="1.5" stroke-linecap="butt" stroke-linejoin="miter" stroke="rgb(12.156863%, 47.058824%, 70.588235%)" stroke-opacity="1" stroke-miterlimit="10" d="M 694.945312 195.308594 C 694.328125 235.992188 708.296875 270.914062 739.074219 297.5 "/>
<path fill-rule="nonzero" fill="rgb(12.156863%, 47.058824%, 70.588235%)" fill-opacity="1" d="M 744.472656 302.160156 L 737.5625 299.253906 L 740.589844 295.746094 L 744.472656 302.160156 "/>
<path fill="none" stroke-width="1.5" stroke-linecap="butt" stroke-linejoin="miter" stroke="rgb(12.156863%, 47.058824%, 70.588235%)" stroke-opacity="1" stroke-miterlimit="10" d="M 697.65625 472.003906 C 673.367188 457.824219 647.464844 454.0625 621.140625 463.898438 "/>
<path fill-rule="nonzero" fill="rgb(12.156863%, 47.058824%, 70.588235%)" fill-opacity="1" d="M 614.460938 466.394531 L 620.332031 461.726562 L 621.953125 466.070312 L 614.460938 466.394531 "/>
<path fill="none" stroke-width="1.5" stroke-linecap="butt" stroke-linejoin="miter" stroke="rgb(12.156863%, 47.058824%, 70.588235%)" stroke-opacity="1" stroke-miterlimit="10" d="M 750 394.558594 C 722.960938 409.585938 704.984375 431.996094 699.414062 462.402344 "/>
<path fill-rule="nonzero" fill="rgb(12.156863%, 47.058824%, 70.588235%)" fill-opacity="1" d="M 698.128906 469.417969 L 697.136719 461.984375 L 701.695312 462.820312 L 698.128906 469.417969 "/>
<path fill="none" stroke-width="4.5" stroke-linecap="butt" stroke-linejoin="miter" stroke="rgb(70.196078%, 70.196078%, 70.196078%)" stroke-opacity="1" stroke-miterlimit="10" d="M 468.765625 533.230469 C 473.597656 499.070312 465.703125 468.0625 442.472656 442.589844 "/>
<path fill-rule="nonzero" fill="rgb(70.196078%, 70.196078%, 70.196078%)" fill-opacity="1" d="M 437.664062 437.320312 L 444.183594 441.027344 L 440.757812 444.152344 L 437.664062 437.320312 "/>
<path fill="none" stroke-width="1.5" stroke-linecap="butt" stroke-linejoin="miter" stroke="rgb(12.156863%, 47.058824%, 70.588235%)" stroke-opacity="1" stroke-miterlimit="10" d="M 612 467.3125 C 558.773438 465.84375 513.058594 483.730469 477.5625 523.398438 "/>
<path fill-rule="nonzero" fill="rgb(12.156863%, 47.058824%, 70.588235%)" fill-opacity="1" d="M 472.804688 528.714844 L 475.835938 521.855469 L 479.289062 524.945312 L 472.804688 528.714844 "/>
<path fill="none" stroke-width="1.5" stroke-linecap="butt" stroke-linejoin="miter" stroke="rgb(12.156863%, 47.058824%, 70.588235%)" stroke-opacity="1" stroke-miterlimit="10" d="M 601.019531 102.980469 C 615.949219 145.324219 643.8125 176.011719 685.808594 191.859375 "/>
<path fill-rule="nonzero" fill="rgb(12.156863%, 47.058824%, 70.588235%)" fill-opacity="1" d="M 692.484375 194.378906 L 684.992188 194.027344 L 686.628906 189.691406 L 692.484375 194.378906 "/>
<path fill="none" stroke-width="4.5" stroke-linecap="butt" stroke-linejoin="miter" stroke="rgb(70.196078%, 70.196078%, 70.196078%)" stroke-opacity="1" stroke-miterlimit="10" d="M 601.019531 102.980469 C 585.128906 75.398438 561.789062 57.234375 530.414062 52.007812 "/>
<path fill-rule="nonzero" fill="rgb(70.196078%, 70.196078%, 70.196078%)" fill-opacity="1" d="M 523.375 50.835938 L 530.792969 49.722656 L 530.03125 54.296875 L 523.375 50.835938 "/>
<path fill="none" stroke-width="2.5" stroke-linecap="butt" stroke-linejoin="miter" stroke="rgb(70.196078%, 70.196078%, 70.196078%)" stroke-opacity="1" stroke-miterlimit="10" d="M 437.21875 640.769531 C 444.925781 660.296875 458.304688 674.78125 478.371094 680.832031 "/>
<path fill-rule="nonzero" fill="rgb(70.196078%, 70.196078%, 70.196078%)" fill-opacity="1" d="M 485.203125 682.890625 L 477.703125 683.050781 L 479.042969 678.613281 L 485.203125 682.890625 "/>
<path fill="none" stroke-width="1.5" stroke-linecap="butt" stroke-linejoin="miter" stroke="rgb(12.156863%, 47.058824%, 70.588235%)" stroke-opacity="1" stroke-miterlimit="10" d="M 528.5 211.324219 C 566.386719 189.769531 591 157.878906 598.820312 115.015625 "/>
<path fill-rule="nonzero" fill="rgb(12.156863%, 47.058824%, 70.588235%)" fill-opacity="1" d="M 600.101562 108 L 601.101562 115.433594 L 596.542969 114.601562 L 600.101562 108 "/>
<path fill="none" stroke-width="1.5" stroke-linecap="butt" stroke-linejoin="miter" stroke="rgb(12.156863%, 47.058824%, 70.588235%)" stroke-opacity="1" stroke-miterlimit="10" d="M 581.636719 292.523438 C 578.03125 260.492188 563.664062 234.25 536.679688 216.65625 "/>
<path fill-rule="nonzero" fill="rgb(12.156863%, 47.058824%, 70.588235%)" fill-opacity="1" d="M 530.703125 212.757812 L 537.945312 214.714844 L 535.414062 218.597656 L 530.703125 212.757812 "/>
<path fill="none" stroke-width="4.5" stroke-linecap="butt" stroke-linejoin="miter" stroke="rgb(70.196078%, 70.196078%, 70.196078%)" stroke-opacity="1" stroke-miterlimit="10" d="M 581.636719 292.523438 C 593.394531 231.59375 581.296875 175.789062 542.566406 127.320312 "/>
<path fill-rule="nonzero" fill="rgb(70.196078%, 70.196078%, 70.196078%)" fill-opacity="1" d="M 538.113281 121.746094 L 544.378906 125.875 L 540.757812 128.765625 L 538.113281 121.746094 "/>
<path fill="none" stroke-width="5.5" stroke-linecap="butt" stroke-linejoin="miter" stroke="rgb(70.196078%, 70.196078%, 70.196078%)" stroke-opacity="1" stroke-miterlimit="10" d="M 573.753906 543.933594 C 613.929688 465.613281 619.128906 385.003906 586.0625 303.433594 "/>
<path fill-rule="nonzero" fill="rgb(70.196078%, 70.196078%, 70.196078%)" fill-opacity="1" d="M 583.382812 296.824219 L 588.207031 302.5625 L 583.914062 304.304688 L 583.382812 296.824219 "/>
<path fill="none" stroke-width="4.5" stroke-linecap="butt" stroke-linejoin="miter" stroke="rgb(70.196078%, 70.196078%, 70.196078%)" stroke-opacity="1" stroke-miterlimit="10" d="M 434.550781 433.902344 C 443.332031 390.429688 435.308594 350.238281 407.65625 315.582031 "/>
<path fill-rule="nonzero" fill="rgb(70.196078%, 70.196078%, 70.196078%)" fill-opacity="1" d="M 403.207031 310.007812 L 409.46875 314.136719 L 405.84375 317.027344 L 403.207031 310.007812 "/>
<path fill="none" stroke-width="4.5" stroke-linecap="butt" stroke-linejoin="miter" stroke="rgb(70.196078%, 70.196078%, 70.196078%)" stroke-opacity="1" stroke-miterlimit="10" d="M 326.660156 713.800781 C 398.097656 678.691406 445.542969 623.066406 465.460938 546.011719 "/>
<path fill-rule="nonzero" fill="rgb(70.196078%, 70.196078%, 70.196078%)" fill-opacity="1" d="M 467.246094 539.105469 L 467.707031 546.589844 L 463.21875 545.429688 L 467.246094 539.105469 "/>
<path fill="none" stroke-width="4.5" stroke-linecap="butt" stroke-linejoin="miter" stroke="rgb(70.196078%, 70.196078%, 70.196078%)" stroke-opacity="1" stroke-miterlimit="10" d="M 411.289062 220.507812 C 392.660156 205.097656 371.164062 198.101562 347.515625 202.976562 "/>
<path fill-rule="nonzero" fill="rgb(70.196078%, 70.196078%, 70.196078%)" fill-opacity="1" d="M 340.53125 204.417969 L 347.046875 200.707031 L 347.984375 205.246094 L 340.53125 204.417969 "/>
<path fill="none" stroke-width="4.5" stroke-linecap="butt" stroke-linejoin="miter" stroke="rgb(70.196078%, 70.196078%, 70.196078%)" stroke-opacity="1" stroke-miterlimit="10" d="M 462.589844 326.757812 C 463.242188 287.539062 449.882812 253.789062 420.191406 228.183594 "/>
<path fill-rule="nonzero" fill="rgb(70.196078%, 70.196078%, 70.196078%)" fill-opacity="1" d="M 414.792969 223.527344 L 421.707031 226.429688 L 418.679688 229.941406 L 414.792969 223.527344 "/>
<path fill="none" stroke-width="4.5" stroke-linecap="butt" stroke-linejoin="miter" stroke="rgb(70.196078%, 70.196078%, 70.196078%)" stroke-opacity="1" stroke-miterlimit="10" d="M 348.480469 356.164062 C 386.75 364.496094 422.417969 358.03125 453.3125 333.980469 "/>
<path fill-rule="nonzero" fill="rgb(70.196078%, 70.196078%, 70.196078%)" fill-opacity="1" d="M 458.9375 329.597656 L 454.734375 335.808594 L 451.886719 332.152344 L 458.9375 329.597656 "/>
<path fill="none" stroke-width="4.5" stroke-linecap="butt" stroke-linejoin="miter" stroke="rgb(70.196078%, 70.196078%, 70.196078%)" stroke-opacity="1" stroke-miterlimit="10" d="M 280.746094 265.605469 C 287.214844 302.472656 305.804688 331.734375 338.273438 350.324219 "/>
<path fill-rule="nonzero" fill="rgb(70.196078%, 70.196078%, 70.196078%)" fill-opacity="1" d="M 344.464844 353.867188 L 337.125 352.335938 L 339.425781 348.3125 L 344.464844 353.867188 "/>
<path fill="none" stroke-width="4.5" stroke-linecap="butt" stroke-linejoin="miter" stroke="rgb(70.196078%, 70.196078%, 70.196078%)" stroke-opacity="1" stroke-miterlimit="10" d="M 354.738281 90.582031 C 305.527344 133.878906 279.625 188.3125 280.578125 253.835938 "/>
<path fill-rule="nonzero" fill="rgb(70.196078%, 70.196078%, 70.196078%)" fill-opacity="1" d="M 280.679688 260.96875 L 278.257812 253.871094 L 282.894531 253.804688 L 280.679688 260.96875 "/>
<path fill="none" stroke-width="4.5" stroke-linecap="butt" stroke-linejoin="miter" stroke="rgb(70.196078%, 70.196078%, 70.196078%)" stroke-opacity="1" stroke-miterlimit="10" d="M 518.351562 50 C 534.242188 77.582031 557.582031 95.742188 588.957031 100.96875 "/>
<path fill-rule="nonzero" fill="rgb(70.196078%, 70.196078%, 70.196078%)" fill-opacity="1" d="M 595.992188 102.140625 L 588.578125 103.257812 L 589.339844 98.683594 L 595.992188 102.140625 "/>
<path fill="none" stroke-width="4.5" stroke-linecap="butt" stroke-linejoin="miter" stroke="rgb(70.196078%, 70.196078%, 70.196078%)" stroke-opacity="1" stroke-miterlimit="10" d="M 518.351562 50 C 461.910156 37.988281 409.757812 48.1875 364.058594 83.402344 "/>
<path fill-rule="nonzero" fill="rgb(70.196078%, 70.196078%, 70.196078%)" fill-opacity="1" d="M 358.40625 87.753906 L 362.644531 81.566406 L 365.472656 85.238281 L 358.40625 87.753906 "/>
<path fill="none" stroke-width="4.5" stroke-linecap="butt" stroke-linejoin="miter" stroke="rgb(70.196078%, 70.196078%, 70.196078%)" stroke-opacity="1" stroke-miterlimit="10" d="M 535.222656 118.125 C 540.800781 97.375 538.632812 77.320312 525.84375 60.09375 "/>
<path fill-rule="nonzero" fill="rgb(70.196078%, 70.196078%, 70.196078%)" fill-opacity="1" d="M 521.59375 54.363281 L 527.703125 58.710938 L 523.984375 61.472656 L 521.59375 54.363281 "/>
<path fill="none" stroke-width="5.5" stroke-linecap="butt" stroke-linejoin="miter" stroke="rgb(70.196078%, 70.196078%, 70.196078%)" stroke-opacity="1" stroke-miterlimit="10" d="M 569.078125 689.90625 C 592.347656 646.246094 596.457031 600.792969 578.117188 554.859375 "/>
<path fill-rule="nonzero" fill="rgb(70.196078%, 70.196078%, 70.196078%)" fill-opacity="1" d="M 575.472656 548.234375 L 580.269531 554 L 575.964844 555.71875 L 575.472656 548.234375 "/>
<path fill="none" stroke-width="5.5" stroke-linecap="butt" stroke-linejoin="miter" stroke="rgb(70.196078%, 70.196078%, 70.196078%)" stroke-opacity="1" stroke-miterlimit="10" d="M 458.4375 750 C 500.53125 748.570312 535.925781 732.355469 561.839844 699.175781 "/>
<path fill-rule="nonzero" fill="rgb(70.196078%, 70.196078%, 70.196078%)" fill-opacity="1" d="M 566.230469 693.554688 L 563.667969 700.601562 L 560.015625 697.75 L 566.230469 693.554688 "/>
<path fill="none" stroke-width="2.5" stroke-linecap="butt" stroke-linejoin="miter" stroke="rgb(70.196078%, 70.196078%, 70.196078%)" stroke-opacity="1" stroke-miterlimit="10" d="M 357.558594 622.433594 C 377.195312 639.449219 400.101562 647.410156 425.652344 642.839844 "/>
<path fill-rule="nonzero" fill="rgb(70.196078%, 70.196078%, 70.196078%)" fill-opacity="1" d="M 432.675781 641.582031 L 426.0625 645.121094 L 425.246094 640.558594 L 432.675781 641.582031 "/>
<path fill="none" stroke-width="3.5" stroke-linecap="butt" stroke-linejoin="miter" stroke="rgb(70.196078%, 70.196078%, 70.196078%)" stroke-opacity="1" stroke-miterlimit="10" d="M 357.558594 622.433594 C 369.3125 676.550781 398.777344 718.203125 447.636719 744.242188 "/>
<path fill-rule="nonzero" fill="rgb(70.196078%, 70.196078%, 70.196078%)" fill-opacity="1" d="M 453.929688 747.597656 L 446.546875 746.289062 L 448.726562 742.195312 L 453.929688 747.597656 "/>
<path fill="none" stroke-width="4.5" stroke-linecap="butt" stroke-linejoin="miter" stroke="rgb(70.196078%, 70.196078%, 70.196078%)" stroke-opacity="1" stroke-miterlimit="10" d="M 151.0625 642.882812 C 194.980469 691.21875 249.628906 716.160156 314.898438 714.160156 "/>
<path fill-rule="nonzero" fill="rgb(70.196078%, 70.196078%, 70.196078%)" fill-opacity="1" d="M 322.027344 713.941406 L 314.96875 716.476562 L 314.824219 711.84375 L 322.027344 713.941406 "/>
<path fill="none" stroke-width="4.5" stroke-linecap="butt" stroke-linejoin="miter" stroke="rgb(70.196078%, 70.196078%, 70.196078%)" stroke-opacity="1" stroke-miterlimit="10" d="M 147.464844 275.445312 C 89.15625 318.917969 55.753906 376.8125 50.800781 449.363281 "/>
<path fill-rule="nonzero" fill="rgb(70.196078%, 70.196078%, 70.196078%)" fill-opacity="1" d="M 50.316406 456.480469 L 48.488281 449.203125 L 53.113281 449.519531 L 50.316406 456.480469 "/>
<path fill="none" stroke-width="4.5" stroke-linecap="butt" stroke-linejoin="miter" stroke="rgb(70.196078%, 70.196078%, 70.196078%)" stroke-opacity="1" stroke-miterlimit="10" d="M 336.015625 205.347656 C 266.695312 198.964844 205.832031 218.75 155.90625 267.246094 "/>
<path fill-rule="nonzero" fill="rgb(70.196078%, 70.196078%, 70.196078%)" fill-opacity="1" d="M 150.789062 272.214844 L 154.292969 265.582031 L 157.519531 268.90625 L 150.789062 272.214844 "/>
<path fill="none" stroke-width="1.5" stroke-linecap="butt" stroke-linejoin="miter" stroke="rgb(12.156863%, 47.058824%, 70.588235%)" stroke-opacity="1" stroke-miterlimit="10" d="M 307.960938 528.976562 C 283.886719 534.957031 265.078125 548.460938 254.613281 570.925781 "/>
<path fill-rule="nonzero" fill="rgb(12.156863%, 47.058824%, 70.588235%)" fill-opacity="1" d="M 251.601562 577.390625 L 252.511719 569.945312 L 256.710938 571.902344 L 251.601562 577.390625 "/>
<path fill="none" stroke-width="4.5" stroke-linecap="butt" stroke-linejoin="miter" stroke="rgb(70.196078%, 70.196078%, 70.196078%)" stroke-opacity="1" stroke-miterlimit="10" d="M 307.960938 528.976562 C 308.445312 563.585938 321.054688 593.113281 348.027344 614.777344 "/>
<path fill-rule="nonzero" fill="rgb(70.196078%, 70.196078%, 70.196078%)" fill-opacity="1" d="M 353.585938 619.246094 L 346.574219 616.585938 L 349.476562 612.96875 L 353.585938 619.246094 "/>
<path fill="none" stroke-width="5.5" stroke-linecap="butt" stroke-linejoin="miter" stroke="rgb(70.196078%, 70.196078%, 70.196078%)" stroke-opacity="1" stroke-miterlimit="10" d="M 259.675781 445.234375 C 261.125 476.632812 273.375 503.148438 298.546875 521.945312 "/>
<path fill-rule="nonzero" fill="rgb(70.196078%, 70.196078%, 70.196078%)" fill-opacity="1" d="M 304.261719 526.210938 L 297.160156 523.800781 L 299.933594 520.085938 L 304.261719 526.210938 "/>
<path fill="none" stroke-width="5.5" stroke-linecap="butt" stroke-linejoin="miter" stroke="rgb(70.196078%, 70.196078%, 70.196078%)" stroke-opacity="1" stroke-miterlimit="10" d="M 183.980469 398.949219 C 198.644531 423.425781 219.832031 439.457031 248.046875 443.546875 "/>
<path fill-rule="nonzero" fill="rgb(70.196078%, 70.196078%, 70.196078%)" fill-opacity="1" d="M 255.105469 444.570312 L 247.714844 445.839844 L 248.378906 441.253906 L 255.105469 444.570312 "/>
<path fill-rule="nonzero" fill="rgb(70.196078%, 70.196078%, 70.196078%)" fill-opacity="1" stroke-width="1" stroke-linecap="butt" stroke-linejoin="miter" stroke="rgb(70.196078%, 70.196078%, 70.196078%)" stroke-opacity="1" stroke-miterlimit="10" d="M 54.851562 461.105469 C 54.851562 467.574219 45.148438 467.574219 45.148438 461.105469 C 45.148438 454.640625 54.851562 454.640625 54.851562 461.105469 "/>
<path fill-rule="nonzero" fill="rgb(70.196078%, 70.196078%, 70.196078%)" fill-opacity="1" stroke-width="1" stroke-linecap="butt" stroke-linejoin="miter" stroke="rgb(70.196078%, 70.196078%, 70.196078%)" stroke-opacity="1" stroke-miterlimit="10" d="M 126.941406 426.109375 C 126.941406 432.574219 117.242188 432.574219 117.242188 426.109375 C 117.242188 419.640625 126.941406 419.640625 126.941406 426.109375 "/>
<path fill-rule="nonzero" fill="rgb(100%, 84.313725%, 0%)" fill-opacity="1" stroke-width="1" stroke-linecap="butt" stroke-linejoin="miter" stroke="rgb(100%, 84.313725%, 0%)" stroke-opacity="1" stroke-miterlimit="10" d="M 120.59375 504.867188 L 131.292969 504.867188 L 131.292969 515.566406 L 120.59375 515.566406 Z M 120.59375 504.867188 "/>
<path fill-rule="nonzero" fill="rgb(70.196078%, 70.196078%, 70.196078%)" fill-opacity="1" stroke-width="1" stroke-linecap="butt" stroke-linejoin="miter" stroke="rgb(70.196078%, 70.196078%, 70.196078%)" stroke-opacity="1" stroke-miterlimit="10" d="M 494.773438 684.3125 C 494.773438 690.78125 485.074219 690.78125 485.074219 684.3125 C 485.074219 677.847656 494.773438 677.847656 494.773438 684.3125 "/>
<path fill-rule="nonzero" fill="rgb(12.156863%, 47.058824%, 70.588235%)" fill-opacity="1" stroke-width="1" stroke-linecap="butt" stroke-linejoin="miter" stroke="rgb(12.156863%, 47.058824%, 70.588235%)" stroke-opacity="1" stroke-miterlimit="10" d="M 186.527344 488.394531 C 186.527344 492.0625 181.027344 492.0625 181.027344 488.394531 C 181.027344 484.730469 186.527344 484.730469 186.527344 488.394531 "/>
<path fill-rule="nonzero" fill="rgb(12.156863%, 47.058824%, 70.588235%)" fill-opacity="1" stroke-width="1" stroke-linecap="butt" stroke-linejoin="miter" stroke="rgb(12.156863%, 47.058824%, 70.588235%)" stroke-opacity="1" stroke-miterlimit="10" d="M 287.871094 643.511719 C 287.871094 647.179688 282.371094 647.179688 282.371094 643.511719 C 282.371094 639.847656 287.871094 639.847656 287.871094 643.511719 "/>
<path fill-rule="nonzero" fill="rgb(12.156863%, 47.058824%, 70.588235%)" fill-opacity="1" stroke-width="1" stroke-linecap="butt" stroke-linejoin="miter" stroke="rgb(12.156863%, 47.058824%, 70.588235%)" stroke-opacity="1" stroke-miterlimit="10" d="M 253.242188 579.769531 C 253.242188 583.4375 247.742188 583.4375 247.742188 579.769531 C 247.742188 576.101562 253.242188 576.101562 253.242188 579.769531 "/>
<path fill-rule="nonzero" fill="rgb(12.156863%, 47.058824%, 70.588235%)" fill-opacity="1" stroke-width="1" stroke-linecap="butt" stroke-linejoin="miter" stroke="rgb(12.156863%, 47.058824%, 70.588235%)" stroke-opacity="1" stroke-miterlimit="10" d="M 749.214844 303.878906 C 749.214844 307.546875 743.714844 307.546875 743.714844 303.878906 C 743.714844 300.214844 749.214844 300.214844 749.214844 303.878906 "/>
<path fill-rule="nonzero" fill="rgb(12.156863%, 47.058824%, 70.588235%)" fill-opacity="1" stroke-width="1" stroke-linecap="butt" stroke-linejoin="miter" stroke="rgb(12.156863%, 47.058824%, 70.588235%)" stroke-opacity="1" stroke-miterlimit="10" d="M 697.695312 195.308594 C 697.695312 198.972656 692.195312 198.972656 692.195312 195.308594 C 692.195312 191.640625 697.695312 191.640625 697.695312 195.308594 "/>
<path fill-rule="nonzero" fill="rgb(12.156863%, 47.058824%, 70.588235%)" fill-opacity="1" stroke-width="1" stroke-linecap="butt" stroke-linejoin="miter" stroke="rgb(12.156863%, 47.058824%, 70.588235%)" stroke-opacity="1" stroke-miterlimit="10" d="M 700.40625 472.003906 C 700.40625 475.671875 694.90625 475.671875 694.90625 472.003906 C 694.90625 468.335938 700.40625 468.335938 700.40625 472.003906 "/>
<path fill-rule="nonzero" fill="rgb(12.156863%, 47.058824%, 70.588235%)" fill-opacity="1" stroke-width="1" stroke-linecap="butt" stroke-linejoin="miter" stroke="rgb(12.156863%, 47.058824%, 70.588235%)" stroke-opacity="1" stroke-miterlimit="10" d="M 752.75 394.558594 C 752.75 398.226562 747.25 398.226562 747.25 394.558594 C 747.25 390.894531 752.75 390.894531 752.75 394.558594 "/>
<path fill-rule="nonzero" fill="rgb(14.901961%, 14.901961%, 14.901961%)" fill-opacity="1" stroke-width="1" stroke-linecap="butt" stroke-linejoin="miter" stroke="rgb(14.901961%, 14.901961%, 14.901961%)" stroke-opacity="1" stroke-miterlimit="10" d="M 462.417969 539.578125 L 468.765625 526.878906 L 475.117188 539.578125 Z M 462.417969 539.578125 "/>
<path fill-rule="nonzero" fill="rgb(12.156863%, 47.058824%, 70.588235%)" fill-opacity="1" stroke-width="1" stroke-linecap="butt" stroke-linejoin="miter" stroke="rgb(12.156863%, 47.058824%, 70.588235%)" stroke-opacity="1" stroke-miterlimit="10" d="M 614.75 467.3125 C 614.75 470.980469 609.25 470.980469 609.25 467.3125 C 609.25 463.648438 614.75 463.648438 614.75 467.3125 "/>
<path fill-rule="nonzero" fill="rgb(70.196078%, 70.196078%, 70.196078%)" fill-opacity="1" stroke-width="1" stroke-linecap="butt" stroke-linejoin="miter" stroke="rgb(70.196078%, 70.196078%, 70.196078%)" stroke-opacity="1" stroke-miterlimit="10" d="M 606.367188 102.980469 C 606.367188 110.113281 595.667969 110.113281 595.667969 102.980469 C 595.667969 95.847656 606.367188 95.847656 606.367188 102.980469 "/>
<path fill-rule="nonzero" fill="rgb(70.196078%, 70.196078%, 70.196078%)" fill-opacity="1" stroke-width="1" stroke-linecap="butt" stroke-linejoin="miter" stroke="rgb(70.196078%, 70.196078%, 70.196078%)" stroke-opacity="1" stroke-miterlimit="10" d="M 442.066406 640.769531 C 442.066406 647.238281 432.367188 647.238281 432.367188 640.769531 C 432.367188 634.304688 442.066406 634.304688 442.066406 640.769531 "/>
<path fill-rule="nonzero" fill="rgb(12.156863%, 47.058824%, 70.588235%)" fill-opacity="1" stroke-width="1" stroke-linecap="butt" stroke-linejoin="miter" stroke="rgb(12.156863%, 47.058824%, 70.588235%)" stroke-opacity="1" stroke-miterlimit="10" d="M 531.25 211.324219 C 531.25 214.992188 525.75 214.992188 525.75 211.324219 C 525.75 207.65625 531.25 207.65625 531.25 211.324219 "/>
<path fill-rule="nonzero" fill="rgb(70.196078%, 70.196078%, 70.196078%)" fill-opacity="1" stroke-width="1" stroke-linecap="butt" stroke-linejoin="miter" stroke="rgb(70.196078%, 70.196078%, 70.196078%)" stroke-opacity="1" stroke-miterlimit="10" d="M 586.488281 292.523438 C 586.488281 298.992188 576.789062 298.992188 576.789062 292.523438 C 576.789062 286.058594 586.488281 286.058594 586.488281 292.523438 "/>
<path fill-rule="nonzero" fill="rgb(70.196078%, 70.196078%, 70.196078%)" fill-opacity="1" stroke-width="1" stroke-linecap="butt" stroke-linejoin="miter" stroke="rgb(70.196078%, 70.196078%, 70.196078%)" stroke-opacity="1" stroke-miterlimit="10" d="M 578.605469 543.933594 C 578.605469 550.402344 568.902344 550.402344 568.902344 543.933594 C 568.902344 537.46875 578.605469 537.46875 578.605469 543.933594 "/>
<path fill-rule="nonzero" fill="rgb(14.901961%, 14.901961%, 14.901961%)" fill-opacity="1" stroke-width="1" stroke-linecap="butt" stroke-linejoin="miter" stroke="rgb(14.901961%, 14.901961%, 14.901961%)" stroke-opacity="1" stroke-miterlimit="10" d="M 393.878906 311.496094 L 399.730469 299.796875 L 405.578125 311.496094 Z M 393.878906 311.496094 "/>
<path fill-rule="nonzero" fill="rgb(70.196078%, 70.196078%, 70.196078%)" fill-opacity="1" stroke-width="1" stroke-linecap="butt" stroke-linejoin="miter" stroke="rgb(70.196078%, 70.196078%, 70.196078%)" stroke-opacity="1" stroke-miterlimit="10" d="M 439.398438 433.902344 C 439.398438 440.371094 429.699219 440.371094 429.699219 433.902344 C 429.699219 427.4375 439.398438 427.4375 439.398438 433.902344 "/>
<path fill-rule="nonzero" fill="rgb(70.196078%, 70.196078%, 70.196078%)" fill-opacity="1" stroke-width="1" stroke-linecap="butt" stroke-linejoin="miter" stroke="rgb(70.196078%, 70.196078%, 70.196078%)" stroke-opacity="1" stroke-miterlimit="10" d="M 331.511719 713.800781 C 331.511719 720.269531 321.808594 720.269531 321.808594 713.800781 C 321.808594 707.335938 331.511719 707.335938 331.511719 713.800781 "/>
<path fill-rule="nonzero" fill="rgb(70.196078%, 70.196078%, 70.196078%)" fill-opacity="1" stroke-width="1" stroke-linecap="butt" stroke-linejoin="miter" stroke="rgb(70.196078%, 70.196078%, 70.196078%)" stroke-opacity="1" stroke-miterlimit="10" d="M 416.136719 220.507812 C 416.136719 226.972656 406.4375 226.972656 406.4375 220.507812 C 406.4375 214.039062 416.136719 214.039062 416.136719 220.507812 "/>
<path fill-rule="nonzero" fill="rgb(70.196078%, 70.196078%, 70.196078%)" fill-opacity="1" stroke-width="1" stroke-linecap="butt" stroke-linejoin="miter" stroke="rgb(70.196078%, 70.196078%, 70.196078%)" stroke-opacity="1" stroke-miterlimit="10" d="M 467.4375 326.757812 C 467.4375 333.222656 457.738281 333.222656 457.738281 326.757812 C 457.738281 320.289062 467.4375 320.289062 467.4375 326.757812 "/>
<path fill-rule="nonzero" fill="rgb(70.196078%, 70.196078%, 70.196078%)" fill-opacity="1" stroke-width="1" stroke-linecap="butt" stroke-linejoin="miter" stroke="rgb(70.196078%, 70.196078%, 70.196078%)" stroke-opacity="1" stroke-miterlimit="10" d="M 353.328125 356.164062 C 353.328125 362.628906 343.628906 362.628906 343.628906 356.164062 C 343.628906 349.699219 353.328125 349.699219 353.328125 356.164062 "/>
<path fill-rule="nonzero" fill="rgb(70.196078%, 70.196078%, 70.196078%)" fill-opacity="1" stroke-width="1" stroke-linecap="butt" stroke-linejoin="miter" stroke="rgb(70.196078%, 70.196078%, 70.196078%)" stroke-opacity="1" stroke-miterlimit="10" d="M 285.597656 265.605469 C 285.597656 272.070312 275.898438 272.070312 275.898438 265.605469 C 275.898438 259.136719 285.597656 259.136719 285.597656 265.605469 "/>
<path fill-rule="nonzero" fill="rgb(70.196078%, 70.196078%, 70.196078%)" fill-opacity="1" stroke-width="1" stroke-linecap="butt" stroke-linejoin="miter" stroke="rgb(70.196078%, 70.196078%, 70.196078%)" stroke-opacity="1" stroke-miterlimit="10" d="M 359.585938 90.582031 C 359.585938 97.050781 349.886719 97.050781 349.886719 90.582031 C 349.886719 84.117188 359.585938 84.117188 359.585938 90.582031 "/>
<path fill-rule="nonzero" fill="rgb(70.196078%, 70.196078%, 70.196078%)" fill-opacity="1" stroke-width="1" stroke-linecap="butt" stroke-linejoin="miter" stroke="rgb(70.196078%, 70.196078%, 70.196078%)" stroke-opacity="1" stroke-miterlimit="10" d="M 523.703125 50 C 523.703125 57.132812 513.003906 57.132812 513.003906 50 C 513.003906 42.867188 523.703125 42.867188 523.703125 50 "/>
<path fill-rule="nonzero" fill="rgb(70.196078%, 70.196078%, 70.196078%)" fill-opacity="1" stroke-width="1" stroke-linecap="butt" stroke-linejoin="miter" stroke="rgb(70.196078%, 70.196078%, 70.196078%)" stroke-opacity="1" stroke-miterlimit="10" d="M 540.070312 118.125 C 540.070312 124.59375 530.371094 124.59375 530.371094 118.125 C 530.371094 111.660156 540.070312 111.660156 540.070312 118.125 "/>
<path fill-rule="nonzero" fill="rgb(70.196078%, 70.196078%, 70.196078%)" fill-opacity="1" stroke-width="1" stroke-linecap="butt" stroke-linejoin="miter" stroke="rgb(70.196078%, 70.196078%, 70.196078%)" stroke-opacity="1" stroke-miterlimit="10" d="M 573.929688 689.90625 C 573.929688 696.375 564.230469 696.375 564.230469 689.90625 C 564.230469 683.441406 573.929688 683.441406 573.929688 689.90625 "/>
<path fill-rule="nonzero" fill="rgb(70.196078%, 70.196078%, 70.196078%)" fill-opacity="1" stroke-width="1" stroke-linecap="butt" stroke-linejoin="miter" stroke="rgb(70.196078%, 70.196078%, 70.196078%)" stroke-opacity="1" stroke-miterlimit="10" d="M 463.789062 750 C 463.789062 757.132812 453.089844 757.132812 453.089844 750 C 453.089844 742.867188 463.789062 742.867188 463.789062 750 "/>
<path fill-rule="nonzero" fill="rgb(70.196078%, 70.196078%, 70.196078%)" fill-opacity="1" stroke-width="1" stroke-linecap="butt" stroke-linejoin="miter" stroke="rgb(70.196078%, 70.196078%, 70.196078%)" stroke-opacity="1" stroke-miterlimit="10" d="M 362.910156 622.433594 C 362.910156 629.570312 352.210938 629.570312 352.210938 622.433594 C 352.210938 615.300781 362.910156 615.300781 362.910156 622.433594 "/>
<path fill-rule="nonzero" fill="rgb(70.196078%, 70.196078%, 70.196078%)" fill-opacity="1" stroke-width="1" stroke-linecap="butt" stroke-linejoin="miter" stroke="rgb(70.196078%, 70.196078%, 70.196078%)" stroke-opacity="1" stroke-miterlimit="10" d="M 155.910156 642.882812 C 155.910156 649.351562 146.210938 649.351562 146.210938 642.882812 C 146.210938 636.417969 155.910156 636.417969 155.910156 642.882812 "/>
<path fill-rule="nonzero" fill="rgb(70.196078%, 70.196078%, 70.196078%)" fill-opacity="1" stroke-width="1" stroke-linecap="butt" stroke-linejoin="miter" stroke="rgb(70.196078%, 70.196078%, 70.196078%)" stroke-opacity="1" stroke-miterlimit="10" d="M 152.3125 275.445312 C 152.3125 281.914062 142.613281 281.914062 142.613281 275.445312 C 142.613281 268.980469 152.3125 268.980469 152.3125 275.445312 "/>
<path fill-rule="nonzero" fill="rgb(70.196078%, 70.196078%, 70.196078%)" fill-opacity="1" stroke-width="1" stroke-linecap="butt" stroke-linejoin="miter" stroke="rgb(70.196078%, 70.196078%, 70.196078%)" stroke-opacity="1" stroke-miterlimit="10" d="M 340.863281 205.347656 C 340.863281 211.816406 331.164062 211.816406 331.164062 205.347656 C 331.164062 198.882812 340.863281 198.882812 340.863281 205.347656 "/>
<path fill-rule="nonzero" fill="rgb(70.196078%, 70.196078%, 70.196078%)" fill-opacity="1" stroke-width="1" stroke-linecap="butt" stroke-linejoin="miter" stroke="rgb(70.196078%, 70.196078%, 70.196078%)" stroke-opacity="1" stroke-miterlimit="10" d="M 312.8125 528.976562 C 312.8125 535.441406 303.113281 535.441406 303.113281 528.976562 C 303.113281 522.511719 312.8125 522.511719 312.8125 528.976562 "/>
<path fill-rule="nonzero" fill="rgb(70.196078%, 70.196078%, 70.196078%)" fill-opacity="1" stroke-width="1" stroke-linecap="butt" stroke-linejoin="miter" stroke="rgb(70.196078%, 70.196078%, 70.196078%)" stroke-opacity="1" stroke-miterlimit="10" d="M 264.523438 445.234375 C 264.523438 451.699219 254.824219 451.699219 254.824219 445.234375 C 254.824219 438.765625 264.523438 438.765625 264.523438 445.234375 "/>
<path fill-rule="nonzero" fill="rgb(70.196078%, 70.196078%, 70.196078%)" fill-opacity="1" stroke-width="1" stroke-linecap="butt" stroke-linejoin="miter" stroke="rgb(70.196078%, 70.196078%, 70.196078%)" stroke-opacity="1" stroke-miterlimit="10" d="M 189.332031 398.949219 C 189.332031 406.082031 178.628906 406.082031 178.628906 398.949219 C 178.628906 391.8125 189.332031 391.8125 189.332031 398.949219 "/>
</svg>
