<?xml version="1.0" encoding="UTF-8"?>
<svg xmlns="http://www.w3.org/2000/svg" xmlns:xlink="http://www.w3.org/1999/xlink" width="800" height="800" viewBox="0 0 800 800">
<rect x="-80" y="-80" width="960" height="960" fill="rgb(100%, 100%, 100%)" fill-opacity="1"/>
<path fill="none" stroke-width="2.5" stroke-linecap="butt" stroke-linejoin="miter" stroke="rgb(70.196078%, 70.196078%, 70.196078%)" stroke-opacity="1" stroke-miterlimit="10" d="M 190.773438 400.722656 C 174.703125 318.40625 131.097656 254.984375 58.273438 213.398438 "/>
<path fill-rule="nonzero" fill="rgb(70.196078%, 70.196078%, 70.196078%)" fill-opacity="1" d="M 52.078125 209.863281 L 59.421875 211.386719 L 57.125 215.410156 L 52.078125 209.863281 "/>
<path fill="none" stroke-width="1.5" stroke-linecap="butt" stroke-linejoin="miter" stroke="rgb(12.156863%, 47.058824%, 70.588235%)" stroke-opacity="1" stroke-miterlimit="10" d="M 190.773438 400.722656 C 157.308594 523.046875 174.351562 637.894531 244.613281 743.464844 "/>
<path fill-rule="nonzero" fill="rgb(12.156863%, 47.058824%, 70.588235%)" fill-opacity="1" d="M 248.566406 749.402344 L 242.6875 744.746094 L 246.542969 742.179688 L 248.566406 749.402344 "/>
<path fill="none" stroke-width="1.5" stroke-linecap="butt" stroke-linejoin="miter" stroke="rgb(12.156863%, 47.058824%, 70.588235%)" stroke-opacity="1" stroke-miterlimit="10" d="M 190.773438 400.722656 C 110.492188 460.269531 64.925781 539.746094 57.335938 639.40625 "/>
<path fill-rule="nonzero" fill="rgb(12.156863%, 47.058824%, 70.588235%)" fill-opacity="1" d="M 56.792969 646.519531 L 55.023438 639.230469 L 59.644531 639.582031 L 56.792969 646.519531 "/>
<path fill="none" stroke-width="1.5" stroke-linecap="butt" stroke-linejoin="miter" stroke="rgb(12.156863%, 47.058824%, 70.588235%)" stroke-opacity="1" stroke-miterlimit="10" d="M 190.773438 400.722656 C 256.769531 292.839844 272.316406 178.101562 234.304688 57.488281 "/>
<path fill-rule="nonzero" fill="rgb(12.156863%, 47.058824%, 70.588235%)" fill-opacity="1" d="M 232.160156 50.6875 L 236.515625 56.792969 L 232.09375 58.1875 L 232.160156 50.6875 "/>
<path fill="none" stroke-width="2.5" stroke-linecap="butt" stroke-linejoin="miter" stroke="rgb(70.196078%, 70.196078%, 70.196078%)" stroke-opacity="1" stroke-miterlimit="10" d="M 50 208.675781 C 66.066406 290.988281 109.675781 354.410156 182.5 395.996094 "/>
<path fill-rule="nonzero" fill="rgb(70.196078%, 70.196078%, 70.196078%)" fill-opacity="1" d="M 188.691406 399.535156 L 181.347656 398.007812 L 183.648438 393.984375 L 188.691406 399.535156 "/>
<path fill="none" stroke-width="1.5" stroke-linecap="butt" stroke-linejoin="miter" stroke="rgb(12.156863%, 47.058824%, 70.588235%)" stroke-opacity="1" stroke-miterlimit="10" d="M 248.964844 750 C 282.523438 628.28125 265.824219 513.878906 196.039062 408.664062 "/>
<path fill-rule="nonzero" fill="rgb(12.156863%, 47.058824%, 70.588235%)" fill-opacity="1" d="M 192.097656 402.71875 L 197.972656 407.382812 L 194.109375 409.945312 L 192.097656 402.71875 "/>
<path fill="none" stroke-width="1.5" stroke-linecap="butt" stroke-linejoin="miter" stroke="rgb(12.156863%, 47.058824%, 70.588235%)" stroke-opacity="1" stroke-miterlimit="10" d="M 56.738281 647.238281 C 136.722656 588.226562 182.277344 509.308594 190.03125 410.222656 "/>
<path fill-rule="nonzero" fill="rgb(12.156863%, 47.058824%, 70.588235%)" fill-opacity="1" d="M 190.585938 403.109375 L 192.339844 410.402344 L 187.71875 410.039062 L 190.585938 403.109375 "/>
<path fill="none" stroke-width="1.5" stroke-linecap="butt" stroke-linejoin="miter" stroke="rgb(12.156863%, 47.058824%, 70.588235%)" stroke-opacity="1" stroke-miterlimit="10" d="M 231.945312 50 C 166.027344 157.273438 150.273438 271.488281 187.921875 391.628906 "/>
<path fill-rule="nonzero" fill="rgb(12.156863%, 47.058824%, 70.588235%)" fill-opacity="1" d="M 190.054688 398.433594 L 185.710938 392.320312 L 190.136719 390.9375 L 190.054688 398.433594 "/>
<path fill="none" stroke-width="5.5" stroke-linecap="butt" stroke-linejoin="miter" stroke="rgb(70.196078%, 70.196078%, 70.196078%)" stroke-opacity="1" stroke-miterlimit="10" d="M 417.679688 364.714844 C 340.085938 342.148438 266.496094 351.472656 198.761719 395.527344 "/>
<path fill-rule="nonzero" fill="rgb(70.196078%, 70.196078%, 70.196078%)" fill-opacity="1" d="M 192.78125 399.414062 L 197.496094 393.585938 L 200.023438 397.46875 L 192.78125 399.414062 "/>
<path fill="none" stroke-width="5.5" stroke-linecap="butt" stroke-linejoin="miter" stroke="rgb(70.196078%, 70.196078%, 70.196078%)" stroke-opacity="1" stroke-miterlimit="10" d="M 593.132812 387.074219 C 541.457031 353.757812 485.6875 344.3125 426.804688 361.976562 "/>
<path fill-rule="nonzero" fill="rgb(70.196078%, 70.196078%, 70.196078%)" fill-opacity="1" d="M 419.972656 364.027344 L 426.136719 359.757812 L 427.46875 364.195312 L 419.972656 364.027344 "/>
<path fill="none" stroke-width="5.5" stroke-linecap="butt" stroke-linejoin="miter" stroke="rgb(70.196078%, 70.196078%, 70.196078%)" stroke-opacity="1" stroke-miterlimit="10" d="M 750 415.683594 C 705.425781 383.257812 655.957031 371.878906 602.394531 384.835938 "/>
<path fill-rule="nonzero" fill="rgb(70.196078%, 70.196078%, 70.196078%)" fill-opacity="1" d="M 595.460938 386.511719 L 601.847656 382.582031 L 602.9375 387.085938 L 595.460938 386.511719 "/>
<path fill-rule="nonzero" fill="rgb(14.901961%, 14.901961%, 14.901961%)" fill-opacity="1" stroke-width="1" stroke-linecap="butt" stroke-linejoin="miter" stroke="rgb(14.901961%, 14.901961%, 14.901961%)" stroke-opacity="1" stroke-miterlimit="10" d="M 188.273438 403.222656 L 190.773438 398.222656 L 193.273438 403.222656 Z M 188.273438 403.222656 "/>
<path fill-rule="nonzero" fill="rgb(70.196078%, 70.196078%, 70.196078%)" fill-opacity="1" stroke-width="1" stroke-linecap="butt" stroke-linejoin="miter" stroke="rgb(70.196078%, 70.196078%, 70.196078%)" stroke-opacity="1" stroke-miterlimit="10" d="M 52.5 208.675781 C 52.5 212.007812 47.5 212.007812 47.5 208.675781 C 47.5 205.339844 52.5 205.339844 52.5 208.675781 "/>
<path fill-rule="nonzero" fill="rgb(12.156863%, 47.058824%, 70.588235%)" fill-opacity="1" stroke-width="1" stroke-linecap="butt" stroke-linejoin="miter" stroke="rgb(12.156863%, 47.058824%, 70.588235%)" stroke-opacity="1" stroke-miterlimit="10" d="M 249.714844 750 C 249.714844 751 248.214844 751 248.214844 750 C 248.214844 749 249.714844 749 249.714844 750 "/>
<path fill-rule="nonzero" fill="rgb(12.156863%, 47.058824%, 70.588235%)" fill-opacity="1" stroke-width="1" stroke-linecap="butt" stroke-linejoin="miter" stroke="rgb(12.156863%, 47.058824%, 70.588235%)" stroke-opacity="1" stroke-miterlimit="10" d="M 57.488281 647.238281 C 57.488281 648.238281 55.988281 648.238281 55.988281 647.238281 C 55.988281 646.238281 57.488281 646.238281 57.488281 647.238281 "/>
<path fill-rule="nonzero" fill="rgb(12.156863%, 47.058824%, 70.588235%)" fill-opacity="1" stroke-width="1" stroke-linecap="butt" stroke-linejoin="miter" stroke="rgb(12.156863%, 47.058824%, 70.588235%)" stroke-opacity="1" stroke-miterlimit="10" d="M 232.695312 50 C 232.695312 51 231.195312 51 231.195312 50 C 231.195312 49 232.695312 49 232.695312 50 "/>
<path fill-rule="nonzero" fill="rgb(70.196078%, 70.196078%, 70.196078%)" fill-opacity="1" stroke-width="1" stroke-linecap="butt" stroke-linejoin="miter" stroke="rgb(70.196078%, 70.196078%, 70.196078%)" stroke-opacity="1" stroke-miterlimit="10" d="M 420.179688 364.714844 C 420.179688 368.046875 415.179688 368.046875 415.179688 364.714844 C 415.179688 361.382812 420.179688 361.382812 420.179688 364.714844 "/>
<path fill-rule="nonzero" fill="rgb(70.196078%, 70.196078%, 70.196078%)" fill-opacity="1" stroke-width="1" stroke-linecap="butt" stroke-linejoin="miter" stroke="rgb(70.196078%, 70.196078%, 70.196078%)" stroke-opacity="1" stroke-miterlimit="10" d="M 595.632812 387.074219 C 595.632812 390.40625 590.632812 390.40625 590.632812 387.074219 C 590.632812 383.738281 595.632812 383.738281 595.632812 387.074219 "/>
<path fill-rule="nonzero" fill="rgb(100%, 84.313725%, 0%)" fill-opacity="1" stroke-width="1" stroke-linecap="butt" stroke-linejoin="miter" stroke="rgb(100%, 84.313725%, 0%)" stroke-opacity="1" stroke-miterlimit="10" d="M 747.5 413.183594 L 752.5 413.183594 L 752.5 418.183594 L 747.5 418.183594 Z M 747.5 413.183594 "/>
</svg>
