<?xml version="1.0" encoding="UTF-8"?>
<svg xmlns="http://www.w3.org/2000/svg" xmlns:xlink="http://www.w3.org/1999/xlink" width="800" height="800" viewBox="0 0 800 800">
<rect x="-80" y="-80" width="960" height="960" fill="rgb(100%, 100%, 100%)" fill-opacity="1"/>
<path fill="none" stroke-width="1.5" stroke-linecap="butt" stroke-linejoin="miter" stroke="rgb(99.215686%, 74.901961%, 43.529412%)" stroke-opacity="1" stroke-miterlimit="10" d="M 742.984375 466.898438 C 734.363281 486.613281 733.507812 506.804688 743.613281 525.761719 "/>
<path fill-rule="nonzero" fill="rgb(99.215686%, 74.901961%, 43.529412%)" fill-opacity="1" d="M 746.96875 532.054688 L 741.570312 526.851562 L 745.660156 524.671875 L 746.96875 532.054688 "/>
<path fill="none" stroke-width="1.5" stroke-linecap="butt" stroke-linejoin="miter" stroke="rgb(30.196078%, 68.627451%, 29.019608%)" stroke-opacity="1" stroke-miterlimit="10" d="M 682.441406 510.664062 C 696.355469 527.835938 714.363281 538.117188 736.425781 537.882812 "/>
<path fill-rule="nonzero" fill="rgb(30.196078%, 68.627451%, 29.019608%)" fill-opacity="1" d="M 743.558594 537.804688 L 736.453125 540.199219 L 736.402344 535.566406 L 743.558594 537.804688 "/>
<path fill="none" stroke-width="1.5" stroke-linecap="butt" stroke-linejoin="miter" stroke="rgb(99.215686%, 74.901961%, 43.529412%)" stroke-opacity="1" stroke-miterlimit="10" d="M 682.441406 510.664062 C 706.273438 507.210938 725.769531 496 738.015625 475.296875 "/>
<path fill-rule="nonzero" fill="rgb(99.215686%, 74.901961%, 43.529412%)" fill-opacity="1" d="M 741.648438 469.160156 L 740.011719 476.476562 L 736.019531 474.117188 L 741.648438 469.160156 "/>
<path fill="none" stroke-width="1.5" stroke-linecap="butt" stroke-linejoin="miter" stroke="rgb(41.568627%, 23.921569%, 60.392157%)" stroke-opacity="1" stroke-miterlimit="10" d="M 427.1875 524.675781 C 443.585938 519.628906 456.390625 509.695312 462.425781 493.679688 "/>
<path fill-rule="nonzero" fill="rgb(41.568627%, 23.921569%, 60.392157%)" fill-opacity="1" d="M 464.941406 487.003906 L 464.597656 494.496094 L 460.257812 492.859375 L 464.941406 487.003906 "/>
<path fill="none" stroke-width="1.5" stroke-linecap="butt" stroke-linejoin="miter" stroke="rgb(98.431373%, 60.392157%, 60%)" stroke-opacity="1" stroke-miterlimit="10" d="M 427.1875 524.675781 C 450.90625 485.703125 457.175781 444.039062 442.605469 400.820312 "/>
<path fill-rule="nonzero" fill="rgb(98.431373%, 60.392157%, 60%)" fill-opacity="1" d="M 440.328125 394.0625 L 444.804688 400.078125 L 440.410156 401.558594 L 440.328125 394.0625 "/>
<path fill="none" stroke-width="2.5" stroke-linecap="butt" stroke-linejoin="miter" stroke="rgb(70.196078%, 70.196078%, 70.196078%)" stroke-opacity="1" stroke-miterlimit="10" d="M 432.050781 675.554688 C 453.15625 628.832031 454.289062 581.570312 432.246094 535.296875 "/>
<path fill-rule="nonzero" fill="rgb(70.196078%, 70.196078%, 70.196078%)" fill-opacity="1" d="M 429.179688 528.855469 L 434.339844 534.300781 L 430.15625 536.292969 L 429.179688 528.855469 "/>
<path fill="none" stroke-width="1.5" stroke-linecap="butt" stroke-linejoin="miter" stroke="rgb(41.568627%, 23.921569%, 60.392157%)" stroke-opacity="1" stroke-miterlimit="10" d="M 465.867188 484.554688 C 472.257812 453.019531 466.695312 423.65625 446.410156 398.710938 "/>
<path fill-rule="nonzero" fill="rgb(41.568627%, 23.921569%, 60.392157%)" fill-opacity="1" d="M 441.910156 393.175781 L 448.210938 397.25 L 444.613281 400.171875 L 441.910156 393.175781 "/>
<path fill="none" stroke-width="1.5" stroke-linecap="butt" stroke-linejoin="miter" stroke="rgb(41.568627%, 23.921569%, 60.392157%)" stroke-opacity="1" stroke-miterlimit="10" d="M 438.699219 389.222656 C 421.703125 360.644531 397.050781 342.117188 364.21875 337.003906 "/>
<path fill-rule="nonzero" fill="rgb(41.568627%, 23.921569%, 60.392157%)" fill-opacity="1" d="M 357.167969 335.90625 L 364.574219 334.714844 L 363.859375 339.292969 L 357.167969 335.90625 "/>
<path fill="none" stroke-width="1.5" stroke-linecap="butt" stroke-linejoin="miter" stroke="rgb(98.431373%, 60.392157%, 60%)" stroke-opacity="1" stroke-miterlimit="10" d="M 438.699219 389.222656 C 444.652344 353.03125 436.917969 319.960938 412.917969 292.242188 "/>
<path fill-rule="nonzero" fill="rgb(98.431373%, 60.392157%, 60%)" fill-opacity="1" d="M 408.25 286.847656 L 414.671875 290.722656 L 411.167969 293.757812 L 408.25 286.847656 "/>
<path fill="none" stroke-width="1.5" stroke-linecap="butt" stroke-linejoin="miter" stroke="rgb(41.568627%, 23.921569%, 60.392157%)" stroke-opacity="1" stroke-miterlimit="10" d="M 354.574219 335.5 C 348.355469 312.675781 335.101562 294.964844 313.433594 285.539062 "/>
<path fill-rule="nonzero" fill="rgb(41.568627%, 23.921569%, 60.392157%)" fill-opacity="1" d="M 306.890625 282.695312 L 314.355469 283.414062 L 312.507812 287.667969 L 306.890625 282.695312 "/>
<path fill="none" stroke-width="1.5" stroke-linecap="butt" stroke-linejoin="miter" stroke="rgb(98.431373%, 60.392157%, 60%)" stroke-opacity="1" stroke-miterlimit="10" d="M 406.53125 284.859375 C 432.347656 302.332031 460.679688 308.304688 490.550781 299.464844 "/>
<path fill-rule="nonzero" fill="rgb(98.431373%, 60.392157%, 60%)" fill-opacity="1" d="M 497.390625 297.4375 L 491.207031 301.6875 L 489.890625 297.242188 L 497.390625 297.4375 "/>
<path fill="none" stroke-width="1.5" stroke-linecap="butt" stroke-linejoin="miter" stroke="rgb(98.431373%, 60.392157%, 60%)" stroke-opacity="1" stroke-miterlimit="10" d="M 554.382812 574.445312 C 561.847656 539.121094 555.765625 506.210938 533.347656 477.933594 "/>
<path fill-rule="nonzero" fill="rgb(98.431373%, 60.392157%, 60%)" fill-opacity="1" d="M 528.914062 472.347656 L 535.160156 476.496094 L 531.53125 479.375 L 528.914062 472.347656 "/>
<path fill="none" stroke-width="1.5" stroke-linecap="butt" stroke-linejoin="miter" stroke="rgb(41.568627%, 23.921569%, 60.392157%)" stroke-opacity="1" stroke-miterlimit="10" d="M 554.382812 574.445312 C 551.644531 608.398438 561.277344 638.472656 585.664062 662.226562 "/>
<path fill-rule="nonzero" fill="rgb(41.568627%, 23.921569%, 60.392157%)" fill-opacity="1" d="M 590.773438 667.207031 L 584.046875 663.886719 L 587.28125 660.566406 L 590.773438 667.207031 "/>
<path fill="none" stroke-width="1.5" stroke-linecap="butt" stroke-linejoin="miter" stroke="rgb(98.431373%, 60.392157%, 60%)" stroke-opacity="1" stroke-miterlimit="10" d="M 453.828125 750 C 458.890625 726.230469 455.125 703.820312 439.777344 685.015625 "/>
<path fill-rule="nonzero" fill="rgb(98.431373%, 60.392157%, 60%)" fill-opacity="1" d="M 435.265625 679.492188 L 441.570312 683.550781 L 437.980469 686.480469 L 435.265625 679.492188 "/>
<path fill="none" stroke-width="1.5" stroke-linecap="butt" stroke-linejoin="miter" stroke="rgb(98.431373%, 60.392157%, 60%)" stroke-opacity="1" stroke-miterlimit="10" d="M 493.742188 624.683594 C 462.746094 657.074219 447.964844 695.734375 452.777344 740.292969 "/>
<path fill-rule="nonzero" fill="rgb(98.431373%, 60.392157%, 60%)" fill-opacity="1" d="M 453.542969 747.382812 L 450.472656 740.542969 L 455.082031 740.042969 L 453.542969 747.382812 "/>
<path fill="none" stroke-width="2.5" stroke-linecap="butt" stroke-linejoin="miter" stroke="rgb(70.196078%, 70.196078%, 70.196078%)" stroke-opacity="1" stroke-miterlimit="10" d="M 525.746094 468.351562 C 518.320312 503.847656 524.503906 536.878906 547.066406 565.246094 "/>
<path fill-rule="nonzero" fill="rgb(70.196078%, 70.196078%, 70.196078%)" fill-opacity="1" d="M 551.507812 570.828125 L 545.25 566.6875 L 548.878906 563.800781 L 551.507812 570.828125 "/>
<path fill="none" stroke-width="1.5" stroke-linecap="butt" stroke-linejoin="miter" stroke="rgb(98.431373%, 60.392157%, 60%)" stroke-opacity="1" stroke-miterlimit="10" d="M 525.746094 468.351562 C 492.363281 512.167969 479.894531 561.34375 491.65625 615.144531 "/>
<path fill-rule="nonzero" fill="rgb(98.431373%, 60.392157%, 60%)" fill-opacity="1" d="M 493.179688 622.113281 L 489.394531 615.640625 L 493.921875 614.648438 L 493.179688 622.113281 "/>
<path fill="none" stroke-width="1.5" stroke-linecap="butt" stroke-linejoin="miter" stroke="rgb(12.156863%, 47.058824%, 70.588235%)" stroke-opacity="1" stroke-miterlimit="10" d="M 421.171875 74.335938 C 427.558594 99.796875 441.914062 119.605469 465.683594 130.683594 "/>
<path fill-rule="nonzero" fill="rgb(12.156863%, 47.058824%, 70.588235%)" fill-opacity="1" d="M 472.148438 133.695312 L 464.703125 132.785156 L 466.660156 128.582031 L 472.148438 133.695312 "/>
<path fill="none" stroke-width="2.5" stroke-linecap="butt" stroke-linejoin="miter" stroke="rgb(70.196078%, 70.196078%, 70.196078%)" stroke-opacity="1" stroke-miterlimit="10" d="M 192.039062 490.386719 C 169.214844 464.574219 140.539062 450.472656 106.125 451.613281 "/>
<path fill-rule="nonzero" fill="rgb(70.196078%, 70.196078%, 70.196078%)" fill-opacity="1" d="M 98.996094 451.851562 L 106.046875 449.296875 L 106.199219 453.929688 L 98.996094 451.851562 "/>
<path fill="none" stroke-width="2.5" stroke-linecap="butt" stroke-linejoin="miter" stroke="rgb(70.196078%, 70.196078%, 70.196078%)" stroke-opacity="1" stroke-miterlimit="10" d="M 192.039062 490.386719 C 243.570312 490.890625 287.503906 472.796875 321.160156 433.792969 "/>
<path fill-rule="nonzero" fill="rgb(70.196078%, 70.196078%, 70.196078%)" fill-opacity="1" d="M 325.820312 428.390625 L 322.914062 435.304688 L 319.40625 432.277344 L 325.820312 428.390625 "/>
<path fill="none" stroke-width="1.5" stroke-linecap="butt" stroke-linejoin="miter" stroke="rgb(12.156863%, 47.058824%, 70.588235%)" stroke-opacity="1" stroke-miterlimit="10" d="M 372.953125 470.71875 C 329.6875 488.753906 299.375 519.597656 285.261719 564.28125 "/>
<path fill-rule="nonzero" fill="rgb(12.156863%, 47.058824%, 70.588235%)" fill-opacity="1" d="M 283.109375 571.085938 L 283.050781 563.585938 L 287.46875 564.980469 L 283.109375 571.085938 "/>
<path fill="none" stroke-width="2.5" stroke-linecap="butt" stroke-linejoin="miter" stroke="rgb(70.196078%, 70.196078%, 70.196078%)" stroke-opacity="1" stroke-miterlimit="10" d="M 161.007812 350.402344 C 174.363281 381.605469 196.816406 403.6875 229.359375 413.257812 "/>
<path fill-rule="nonzero" fill="rgb(70.196078%, 70.196078%, 70.196078%)" fill-opacity="1" d="M 236.203125 415.269531 L 228.703125 415.480469 L 230.011719 411.03125 L 236.203125 415.269531 "/>
<path fill="none" stroke-width="1.5" stroke-linecap="butt" stroke-linejoin="miter" stroke="rgb(12.156863%, 47.058824%, 70.588235%)" stroke-opacity="1" stroke-miterlimit="10" d="M 474.527344 134.804688 C 453.59375 159.195312 444.199219 187.503906 449.6875 219.152344 "/>
<path fill-rule="nonzero" fill="rgb(12.156863%, 47.058824%, 70.588235%)" fill-opacity="1" d="M 450.90625 226.179688 L 447.40625 219.546875 L 451.972656 218.753906 L 450.90625 226.179688 "/>
<path fill="none" stroke-width="1.5" stroke-linecap="butt" stroke-linejoin="miter" stroke="rgb(12.156863%, 47.058824%, 70.588235%)" stroke-opacity="1" stroke-miterlimit="10" d="M 451.355469 228.769531 C 390.042969 294.265625 362.433594 371.800781 371.921875 461.007812 "/>
<path fill-rule="nonzero" fill="rgb(12.156863%, 47.058824%, 70.588235%)" fill-opacity="1" d="M 372.675781 468.101562 L 369.617188 461.253906 L 374.226562 460.761719 L 372.675781 468.101562 "/>
<path fill="none" stroke-width="1.5" stroke-linecap="butt" stroke-linejoin="miter" stroke="rgb(12.156863%, 47.058824%, 70.588235%)" stroke-opacity="1" stroke-miterlimit="10" d="M 339.410156 72.898438 C 362.882812 85.539062 387.566406 88.316406 412.164062 78.085938 "/>
<path fill-rule="nonzero" fill="rgb(12.156863%, 47.058824%, 70.588235%)" fill-opacity="1" d="M 418.75 75.347656 L 413.050781 80.226562 L 411.273438 75.945312 L 418.75 75.347656 "/>
<path fill="none" stroke-width="2.5" stroke-linecap="butt" stroke-linejoin="miter" stroke="rgb(70.196078%, 70.196078%, 70.196078%)" stroke-opacity="1" stroke-miterlimit="10" d="M 50 380.992188 C 71.765625 369.507812 86.722656 352.035156 91.40625 327.902344 "/>
<path fill-rule="nonzero" fill="rgb(70.196078%, 70.196078%, 70.196078%)" fill-opacity="1" d="M 92.765625 320.898438 L 93.683594 328.34375 L 89.132812 327.460938 L 92.765625 320.898438 "/>
<path fill="none" stroke-width="1.5" stroke-linecap="butt" stroke-linejoin="miter" stroke="rgb(12.156863%, 47.058824%, 70.588235%)" stroke-opacity="1" stroke-miterlimit="10" d="M 203.109375 73.605469 C 224.554688 76.5 244.253906 71.699219 259.855469 56.75 "/>
<path fill-rule="nonzero" fill="rgb(12.156863%, 47.058824%, 70.588235%)" fill-opacity="1" d="M 265.007812 51.816406 L 261.457031 58.421875 L 258.253906 55.074219 L 265.007812 51.816406 "/>
<path fill="none" stroke-width="2.5" stroke-linecap="butt" stroke-linejoin="miter" stroke="rgb(70.196078%, 70.196078%, 70.196078%)" stroke-opacity="1" stroke-miterlimit="10" d="M 376.972656 567.71875 C 453.136719 584.816406 523.582031 571.476562 586.183594 524.859375 "/>
<path fill-rule="nonzero" fill="rgb(70.196078%, 70.196078%, 70.196078%)" fill-opacity="1" d="M 591.90625 520.601562 L 587.566406 526.71875 L 584.800781 523 L 591.90625 520.601562 "/>
<path fill="none" stroke-width="1.5" stroke-linecap="butt" stroke-linejoin="miter" stroke="rgb(12.156863%, 47.058824%, 70.588235%)" stroke-opacity="1" stroke-miterlimit="10" d="M 266.898438 50 C 284.246094 67.394531 305.300781 76.492188 329.707031 73.921875 "/>
<path fill-rule="nonzero" fill="rgb(12.156863%, 47.058824%, 70.588235%)" fill-opacity="1" d="M 336.796875 73.171875 L 329.949219 76.226562 L 329.460938 71.617188 L 336.796875 73.171875 "/>
<path fill="none" stroke-width="2.5" stroke-linecap="butt" stroke-linejoin="miter" stroke="rgb(70.196078%, 70.196078%, 70.196078%)" stroke-opacity="1" stroke-miterlimit="10" d="M 240.636719 416.570312 C 260.550781 484.1875 301.933594 534.042969 366.230469 562.902344 "/>
<path fill-rule="nonzero" fill="rgb(70.196078%, 70.196078%, 70.196078%)" fill-opacity="1" d="M 372.738281 565.820312 L 365.285156 565.015625 L 367.179688 560.785156 L 372.738281 565.820312 "/>
<path fill="none" stroke-width="1.5" stroke-linecap="butt" stroke-linejoin="miter" stroke="rgb(12.156863%, 47.058824%, 70.588235%)" stroke-opacity="1" stroke-miterlimit="10" d="M 230.039062 652.699219 C 206.800781 666.753906 191.59375 686.980469 187.84375 713.855469 "/>
<path fill-rule="nonzero" fill="rgb(12.156863%, 47.058824%, 70.588235%)" fill-opacity="1" d="M 186.859375 720.917969 L 185.550781 713.535156 L 190.140625 714.175781 L 186.859375 720.917969 "/>
<path fill="none" stroke-width="2.5" stroke-linecap="butt" stroke-linejoin="miter" stroke="rgb(70.196078%, 70.196078%, 70.196078%)" stroke-opacity="1" stroke-miterlimit="10" d="M 94.375 452.003906 C 92.441406 425.363281 81.535156 402.964844 59.640625 387.710938 "/>
<path fill-rule="nonzero" fill="rgb(70.196078%, 70.196078%, 70.196078%)" fill-opacity="1" d="M 53.785156 383.632812 L 60.964844 385.808594 L 58.3125 389.609375 L 53.785156 383.632812 "/>
<path fill="none" stroke-width="2.5" stroke-linecap="butt" stroke-linejoin="miter" stroke="rgb(70.196078%, 70.196078%, 70.196078%)" stroke-opacity="1" stroke-miterlimit="10" d="M 93.644531 316.371094 C 107.207031 335.804688 125.675781 348.0625 149.292969 349.625 "/>
<path fill-rule="nonzero" fill="rgb(70.196078%, 70.196078%, 70.196078%)" fill-opacity="1" d="M 156.410156 350.097656 L 149.136719 351.9375 L 149.445312 347.3125 L 156.410156 350.097656 "/>
<path fill="none" stroke-width="2.5" stroke-linecap="butt" stroke-linejoin="miter" stroke="rgb(70.196078%, 70.196078%, 70.196078%)" stroke-opacity="1" stroke-miterlimit="10" d="M 595.625 517.828125 C 621.351562 528.738281 647.382812 529.222656 672.058594 516.160156 "/>
<path fill-rule="nonzero" fill="rgb(70.196078%, 70.196078%, 70.196078%)" fill-opacity="1" d="M 678.363281 512.824219 L 673.140625 518.210938 L 670.972656 514.113281 L 678.363281 512.824219 "/>
<path fill="none" stroke-width="1.5" stroke-linecap="butt" stroke-linejoin="miter" stroke="rgb(12.156863%, 47.058824%, 70.588235%)" stroke-opacity="1" stroke-miterlimit="10" d="M 282.320312 573.59375 C 255.019531 589.160156 237.03125 612.132812 231.695312 643.078125 "/>
<path fill-rule="nonzero" fill="rgb(12.156863%, 47.058824%, 70.588235%)" fill-opacity="1" d="M 230.484375 650.109375 L 229.410156 642.6875 L 233.980469 643.472656 L 230.484375 650.109375 "/>
<path fill="none" stroke-width="2.5" stroke-linecap="butt" stroke-linejoin="miter" stroke="rgb(70.196078%, 70.196078%, 70.196078%)" stroke-opacity="1" stroke-miterlimit="10" d="M 328.847656 424.886719 C 383.597656 467.90625 445.460938 484.363281 513.738281 470.746094 "/>
<path fill-rule="nonzero" fill="rgb(70.196078%, 70.196078%, 70.196078%)" fill-opacity="1" d="M 520.730469 469.351562 L 514.191406 473.019531 L 513.285156 468.476562 L 520.730469 469.351562 "/>
<path fill="none" stroke-width="1.5" stroke-linecap="butt" stroke-linejoin="miter" stroke="rgb(41.568627%, 23.921569%, 60.392157%)" stroke-opacity="1" stroke-miterlimit="10" d="M 530.484375 714.175781 C 507.601562 688.238281 478.824219 674.042969 444.273438 675.160156 "/>
<path fill-rule="nonzero" fill="rgb(41.568627%, 23.921569%, 60.392157%)" fill-opacity="1" d="M 437.144531 675.390625 L 444.199219 672.84375 L 444.347656 677.476562 L 437.144531 675.390625 "/>
<path fill="none" stroke-width="1.5" stroke-linecap="butt" stroke-linejoin="miter" stroke="rgb(41.568627%, 23.921569%, 60.392157%)" stroke-opacity="1" stroke-miterlimit="10" d="M 592.65625 669.039062 C 568.074219 672.699219 548.023438 684.367188 535.433594 705.765625 "/>
<path fill-rule="nonzero" fill="rgb(41.568627%, 23.921569%, 60.392157%)" fill-opacity="1" d="M 531.816406 711.914062 L 533.433594 704.589844 L 537.429688 706.941406 L 531.816406 711.914062 "/>
<path fill-rule="nonzero" fill="rgb(14.901961%, 14.901961%, 14.901961%)" fill-opacity="1" stroke-width="1" stroke-linecap="butt" stroke-linejoin="miter" stroke="rgb(14.901961%, 14.901961%, 14.901961%)" stroke-opacity="1" stroke-miterlimit="10" d="M 743.648438 544.085938 L 750 531.386719 L 756.351562 544.085938 Z M 743.648438 544.085938 "/>
<path fill-rule="nonzero" fill="rgb(99.215686%, 74.901961%, 43.529412%)" fill-opacity="1" stroke-width="1" stroke-linecap="butt" stroke-linejoin="miter" stroke="rgb(99.215686%, 74.901961%, 43.529412%)" stroke-opacity="1" stroke-miterlimit="10" d="M 745.734375 466.898438 C 745.734375 470.566406 740.234375 470.566406 740.234375 466.898438 C 740.234375 463.234375 745.734375 463.234375 745.734375 466.898438 "/>
<path fill-rule="nonzero" fill="rgb(70.196078%, 70.196078%, 70.196078%)" fill-opacity="1" stroke-width="1" stroke-linecap="butt" stroke-linejoin="miter" stroke="rgb(70.196078%, 70.196078%, 70.196078%)" stroke-opacity="1" stroke-miterlimit="10" d="M 687.292969 510.664062 C 687.292969 517.132812 677.59375 517.132812 677.59375 510.664062 C 677.59375 504.199219 687.292969 504.199219 687.292969 510.664062 "/>
<path fill-rule="nonzero" fill="rgb(70.196078%, 70.196078%, 70.196078%)" fill-opacity="1" stroke-width="1" stroke-linecap="butt" stroke-linejoin="miter" stroke="rgb(70.196078%, 70.196078%, 70.196078%)" stroke-opacity="1" stroke-miterlimit="10" d="M 432.039062 524.675781 C 432.039062 531.140625 422.339844 531.140625 422.339844 524.675781 C 422.339844 518.207031 432.039062 518.207031 432.039062 524.675781 "/>
<path fill-rule="nonzero" fill="rgb(14.901961%, 14.901961%, 14.901961%)" fill-opacity="1" stroke-width="1" stroke-linecap="butt" stroke-linejoin="miter" stroke="rgb(14.901961%, 14.901961%, 14.901961%)" stroke-opacity="1" stroke-miterlimit="10" d="M 497.070312 300.171875 L 500.820312 292.671875 L 504.570312 300.171875 Z M 497.070312 300.171875 "/>
<path fill-rule="nonzero" fill="rgb(70.196078%, 70.196078%, 70.196078%)" fill-opacity="1" stroke-width="1" stroke-linecap="butt" stroke-linejoin="miter" stroke="rgb(70.196078%, 70.196078%, 70.196078%)" stroke-opacity="1" stroke-miterlimit="10" d="M 437.402344 675.554688 C 437.402344 682.6875 426.703125 682.6875 426.703125 675.554688 C 426.703125 668.417969 437.402344 668.417969 437.402344 675.554688 "/>
<path fill-rule="nonzero" fill="rgb(14.901961%, 14.901961%, 14.901961%)" fill-opacity="1" stroke-width="1" stroke-linecap="butt" stroke-linejoin="miter" stroke="rgb(14.901961%, 14.901961%, 14.901961%)" stroke-opacity="1" stroke-miterlimit="10" d="M 299.867188 285.019531 L 303.617188 277.519531 L 307.367188 285.019531 Z M 299.867188 285.019531 "/>
<path fill-rule="nonzero" fill="rgb(41.568627%, 23.921569%, 60.392157%)" fill-opacity="1" stroke-width="1" stroke-linecap="butt" stroke-linejoin="miter" stroke="rgb(41.568627%, 23.921569%, 60.392157%)" stroke-opacity="1" stroke-miterlimit="10" d="M 468.617188 484.554688 C 468.617188 488.21875 463.117188 488.21875 463.117188 484.554688 C 463.117188 480.886719 468.617188 480.886719 468.617188 484.554688 "/>
<path fill-rule="nonzero" fill="rgb(70.196078%, 70.196078%, 70.196078%)" fill-opacity="1" stroke-width="1" stroke-linecap="butt" stroke-linejoin="miter" stroke="rgb(70.196078%, 70.196078%, 70.196078%)" stroke-opacity="1" stroke-miterlimit="10" d="M 444.046875 389.222656 C 444.046875 396.359375 433.347656 396.359375 433.347656 389.222656 C 433.347656 382.089844 444.046875 382.089844 444.046875 389.222656 "/>
<path fill-rule="nonzero" fill="rgb(41.568627%, 23.921569%, 60.392157%)" fill-opacity="1" stroke-width="1" stroke-linecap="butt" stroke-linejoin="miter" stroke="rgb(41.568627%, 23.921569%, 60.392157%)" stroke-opacity="1" stroke-miterlimit="10" d="M 357.324219 335.5 C 357.324219 339.167969 351.824219 339.167969 351.824219 335.5 C 351.824219 331.835938 357.324219 331.835938 357.324219 335.5 "/>
<path fill-rule="nonzero" fill="rgb(98.431373%, 60.392157%, 60%)" fill-opacity="1" stroke-width="1" stroke-linecap="butt" stroke-linejoin="miter" stroke="rgb(98.431373%, 60.392157%, 60%)" stroke-opacity="1" stroke-miterlimit="10" d="M 409.28125 284.859375 C 409.28125 288.527344 403.78125 288.527344 403.78125 284.859375 C 403.78125 281.195312 409.28125 281.195312 409.28125 284.859375 "/>
<path fill-rule="nonzero" fill="rgb(70.196078%, 70.196078%, 70.196078%)" fill-opacity="1" stroke-width="1" stroke-linecap="butt" stroke-linejoin="miter" stroke="rgb(70.196078%, 70.196078%, 70.196078%)" stroke-opacity="1" stroke-miterlimit="10" d="M 559.234375 574.445312 C 559.234375 580.910156 549.535156 580.910156 549.535156 574.445312 C 549.535156 567.980469 559.234375 567.980469 559.234375 574.445312 "/>
<path fill-rule="nonzero" fill="rgb(98.431373%, 60.392157%, 60%)" fill-opacity="1" stroke-width="1" stroke-linecap="butt" stroke-linejoin="miter" stroke="rgb(98.431373%, 60.392157%, 60%)" stroke-opacity="1" stroke-miterlimit="10" d="M 456.578125 750 C 456.578125 753.667969 451.078125 753.667969 451.078125 750 C 451.078125 746.332031 456.578125 746.332031 456.578125 750 "/>
<path fill-rule="nonzero" fill="rgb(98.431373%, 60.392157%, 60%)" fill-opacity="1" stroke-width="1" stroke-linecap="butt" stroke-linejoin="miter" stroke="rgb(98.431373%, 60.392157%, 60%)" stroke-opacity="1" stroke-miterlimit="10" d="M 496.492188 624.683594 C 496.492188 628.351562 490.992188 628.351562 490.992188 624.683594 C 490.992188 621.015625 496.492188 621.015625 496.492188 624.683594 "/>
<path fill-rule="nonzero" fill="rgb(70.196078%, 70.196078%, 70.196078%)" fill-opacity="1" stroke-width="1" stroke-linecap="butt" stroke-linejoin="miter" stroke="rgb(70.196078%, 70.196078%, 70.196078%)" stroke-opacity="1" stroke-miterlimit="10" d="M 531.097656 468.351562 C 531.097656 475.484375 520.398438 475.484375 520.398438 468.351562 C 520.398438 461.21875 531.097656 461.21875 531.097656 468.351562 "/>
<path fill-rule="nonzero" fill="rgb(12.156863%, 47.058824%, 70.588235%)" fill-opacity="1" stroke-width="1" stroke-linecap="butt" stroke-linejoin="miter" stroke="rgb(12.156863%, 47.058824%, 70.588235%)" stroke-opacity="1" stroke-miterlimit="10" d="M 423.921875 74.335938 C 423.921875 78.003906 418.421875 78.003906 418.421875 74.335938 C 418.421875 70.671875 423.921875 70.671875 423.921875 74.335938 "/>
<path fill-rule="nonzero" fill="rgb(100%, 84.313725%, 0%)" fill-opacity="1" stroke-width="1" stroke-linecap="butt" stroke-linejoin="miter" stroke="rgb(100%, 84.313725%, 0%)" stroke-opacity="1" stroke-miterlimit="10" d="M 186.6875 485.035156 L 197.386719 485.035156 L 197.386719 495.734375 L 186.6875 495.734375 Z M 186.6875 485.035156 "/>
<path fill-rule="nonzero" fill="rgb(12.156863%, 47.058824%, 70.588235%)" fill-opacity="1" stroke-width="1" stroke-linecap="butt" stroke-linejoin="miter" stroke="rgb(12.156863%, 47.058824%, 70.588235%)" stroke-opacity="1" stroke-miterlimit="10" d="M 375.703125 470.71875 C 375.703125 474.386719 370.203125 474.386719 370.203125 470.71875 C 370.203125 467.054688 375.703125 467.054688 375.703125 470.71875 "/>
<path fill-rule="nonzero" fill="rgb(70.196078%, 70.196078%, 70.196078%)" fill-opacity="1" stroke-width="1" stroke-linecap="butt" stroke-linejoin="miter" stroke="rgb(70.196078%, 70.196078%, 70.196078%)" stroke-opacity="1" stroke-miterlimit="10" d="M 165.859375 350.402344 C 165.859375 356.871094 156.160156 356.871094 156.160156 350.402344 C 156.160156 343.9375 165.859375 343.9375 165.859375 350.402344 "/>
<path fill-rule="nonzero" fill="rgb(12.156863%, 47.058824%, 70.588235%)" fill-opacity="1" stroke-width="1" stroke-linecap="butt" stroke-linejoin="miter" stroke="rgb(12.156863%, 47.058824%, 70.588235%)" stroke-opacity="1" stroke-miterlimit="10" d="M 477.277344 134.804688 C 477.277344 138.472656 471.777344 138.472656 471.777344 134.804688 C 471.777344 131.140625 477.277344 131.140625 477.277344 134.804688 "/>
<path fill-rule="nonzero" fill="rgb(12.156863%, 47.058824%, 70.588235%)" fill-opacity="1" stroke-width="1" stroke-linecap="butt" stroke-linejoin="miter" stroke="rgb(12.156863%, 47.058824%, 70.588235%)" stroke-opacity="1" stroke-miterlimit="10" d="M 454.105469 228.769531 C 454.105469 232.433594 448.605469 232.433594 448.605469 228.769531 C 448.605469 225.101562 454.105469 225.101562 454.105469 228.769531 "/>
<path fill-rule="nonzero" fill="rgb(12.156863%, 47.058824%, 70.588235%)" fill-opacity="1" stroke-width="1" stroke-linecap="butt" stroke-linejoin="miter" stroke="rgb(12.156863%, 47.058824%, 70.588235%)" stroke-opacity="1" stroke-miterlimit="10" d="M 342.160156 72.898438 C 342.160156 76.5625 336.660156 76.5625 336.660156 72.898438 C 336.660156 69.230469 342.160156 69.230469 342.160156 72.898438 "/>
<path fill-rule="nonzero" fill="rgb(70.196078%, 70.196078%, 70.196078%)" fill-opacity="1" stroke-width="1" stroke-linecap="butt" stroke-linejoin="miter" stroke="rgb(70.196078%, 70.196078%, 70.196078%)" stroke-opacity="1" stroke-miterlimit="10" d="M 54.851562 380.992188 C 54.851562 387.460938 45.148438 387.460938 45.148438 380.992188 C 45.148438 374.527344 54.851562 374.527344 54.851562 380.992188 "/>
<path fill-rule="nonzero" fill="rgb(100%, 84.313725%, 0%)" fill-opacity="1" stroke-width="1" stroke-linecap="butt" stroke-linejoin="miter" stroke="rgb(100%, 84.313725%, 0%)" stroke-opacity="1" stroke-miterlimit="10" d="M 199.859375 70.355469 L 206.359375 70.355469 L 206.359375 76.855469 L 199.859375 76.855469 Z M 199.859375 70.355469 "/>
<path fill-rule="nonzero" fill="rgb(70.196078%, 70.196078%, 70.196078%)" fill-opacity="1" stroke-width="1" stroke-linecap="butt" stroke-linejoin="miter" stroke="rgb(70.196078%, 70.196078%, 70.196078%)" stroke-opacity="1" stroke-miterlimit="10" d="M 381.820312 567.71875 C 381.820312 574.1875 372.121094 574.1875 372.121094 567.71875 C 372.121094 561.253906 381.820312 561.253906 381.820312 567.71875 "/>
<path fill-rule="nonzero" fill="rgb(12.156863%, 47.058824%, 70.588235%)" fill-opacity="1" stroke-width="1" stroke-linecap="butt" stroke-linejoin="miter" stroke="rgb(12.156863%, 47.058824%, 70.588235%)" stroke-opacity="1" stroke-miterlimit="10" d="M 269.648438 50 C 269.648438 53.667969 264.148438 53.667969 264.148438 50 C 264.148438 46.332031 269.648438 46.332031 269.648438 50 "/>
<path fill-rule="nonzero" fill="rgb(70.196078%, 70.196078%, 70.196078%)" fill-opacity="1" stroke-width="1" stroke-linecap="butt" stroke-linejoin="miter" stroke="rgb(70.196078%, 70.196078%, 70.196078%)" stroke-opacity="1" stroke-miterlimit="10" d="M 245.484375 416.570312 C 245.484375 423.039062 235.785156 423.039062 235.785156 416.570312 C 235.785156 410.105469 245.484375 410.105469 245.484375 416.570312 "/>
<path fill-rule="nonzero" fill="rgb(12.156863%, 47.058824%, 70.588235%)" fill-opacity="1" stroke-width="1" stroke-linecap="butt" stroke-linejoin="miter" stroke="rgb(12.156863%, 47.058824%, 70.588235%)" stroke-opacity="1" stroke-miterlimit="10" d="M 232.789062 652.699219 C 232.789062 656.363281 227.289062 656.363281 227.289062 652.699219 C 227.289062 649.03125 232.789062 649.03125 232.789062 652.699219 "/>
<path fill-rule="nonzero" fill="rgb(70.196078%, 70.196078%, 70.196078%)" fill-opacity="1" stroke-width="1" stroke-linecap="butt" stroke-linejoin="miter" stroke="rgb(70.196078%, 70.196078%, 70.196078%)" stroke-opacity="1" stroke-miterlimit="10" d="M 99.222656 452.003906 C 99.222656 458.472656 89.523438 458.472656 89.523438 452.003906 C 89.523438 445.539062 99.222656 445.539062 99.222656 452.003906 "/>
<path fill-rule="nonzero" fill="rgb(70.196078%, 70.196078%, 70.196078%)" fill-opacity="1" stroke-width="1" stroke-linecap="butt" stroke-linejoin="miter" stroke="rgb(70.196078%, 70.196078%, 70.196078%)" stroke-opacity="1" stroke-miterlimit="10" d="M 98.496094 316.371094 C 98.496094 322.839844 88.796875 322.839844 88.796875 316.371094 C 88.796875 309.90625 98.496094 309.90625 98.496094 316.371094 "/>
<path fill-rule="nonzero" fill="rgb(14.901961%, 14.901961%, 14.901961%)" fill-opacity="1" stroke-width="1" stroke-linecap="butt" stroke-linejoin="miter" stroke="rgb(14.901961%, 14.901961%, 14.901961%)" stroke-opacity="1" stroke-miterlimit="10" d="M 182.617188 728.210938 L 186.367188 720.710938 L 190.117188 728.210938 Z M 182.617188 728.210938 "/>
<path fill-rule="nonzero" fill="rgb(70.196078%, 70.196078%, 70.196078%)" fill-opacity="1" stroke-width="1" stroke-linecap="butt" stroke-linejoin="miter" stroke="rgb(70.196078%, 70.196078%, 70.196078%)" stroke-opacity="1" stroke-miterlimit="10" d="M 600.476562 517.828125 C 600.476562 524.296875 590.773438 524.296875 590.773438 517.828125 C 590.773438 511.363281 600.476562 511.363281 600.476562 517.828125 "/>
<path fill-rule="nonzero" fill="rgb(12.156863%, 47.058824%, 70.588235%)" fill-opacity="1" stroke-width="1" stroke-linecap="butt" stroke-linejoin="miter" stroke="rgb(12.156863%, 47.058824%, 70.588235%)" stroke-opacity="1" stroke-miterlimit="10" d="M 285.070312 573.59375 C 285.070312 577.257812 279.570312 577.257812 279.570312 573.59375 C 279.570312 569.925781 285.070312 569.925781 285.070312 573.59375 "/>
<path fill-rule="nonzero" fill="rgb(70.196078%, 70.196078%, 70.196078%)" fill-opacity="1" stroke-width="1" stroke-linecap="butt" stroke-linejoin="miter" stroke="rgb(70.196078%, 70.196078%, 70.196078%)" stroke-opacity="1" stroke-miterlimit="10" d="M 333.699219 424.886719 C 333.699219 431.351562 323.996094 431.351562 323.996094 424.886719 C 323.996094 418.417969 333.699219 418.417969 333.699219 424.886719 "/>
<path fill-rule="nonzero" fill="rgb(41.568627%, 23.921569%, 60.392157%)" fill-opacity="1" stroke-width="1" stroke-linecap="butt" stroke-linejoin="miter" stroke="rgb(41.568627%, 23.921569%, 60.392157%)" stroke-opacity="1" stroke-miterlimit="10" d="M 533.234375 714.175781 C 533.234375 717.839844 527.734375 717.839844 527.734375 714.175781 C 527.734375 710.507812 533.234375 710.507812 533.234375 714.175781 "/>
<path fill-rule="nonzero" fill="rgb(41.568627%, 23.921569%, 60.392157%)" fill-opacity="1" stroke-width="1" stroke-linecap="butt" stroke-linejoin="miter" stroke="rgb(41.568627%, 23.921569%, 60.392157%)" stroke-opacity="1" stroke-miterlimit="10" d="M 595.40625 669.039062 C 595.40625 672.707031 589.90625 672.707031 589.90625 669.039062 C 589.90625 665.375 595.40625 665.375 595.40625 669.039062 "/>
</svg>
