<?xml version="1.0" encoding="UTF-8"?>
<svg xmlns="http://www.w3.org/2000/svg" xmlns:xlink="http://www.w3.org/1999/xlink" width="800" height="800" viewBox="0 0 800 800">
<rect x="-80" y="-80" width="960" height="960" fill="rgb(100%, 100%, 100%)" fill-opacity="1"/>
<path fill="none" stroke-width="2.5" stroke-linecap="butt" stroke-linejoin="miter" stroke="rgb(70.196078%, 70.196078%, 70.196078%)" stroke-opacity="1" stroke-miterlimit="10" d="M 645.535156 50 C 672.585938 71.851562 703.5 81.074219 737.554688 74.144531 "/>
<path fill-rule="nonzero" fill="rgb(70.196078%, 70.196078%, 70.196078%)" fill-opacity="1" d="M 744.542969 72.722656 L 738.015625 76.414062 L 737.089844 71.871094 L 744.542969 72.722656 "/>
<path fill="none" stroke-width="2.5" stroke-linecap="butt" stroke-linejoin="miter" stroke="rgb(70.196078%, 70.196078%, 70.196078%)" stroke-opacity="1" stroke-miterlimit="10" d="M 380.40625 113.257812 C 434.316406 122.644531 483.417969 111.1875 525.4375 76.15625 "/>
<path fill-rule="nonzero" fill="rgb(70.196078%, 70.196078%, 70.196078%)" fill-opacity="1" d="M 530.917969 71.589844 L 526.921875 77.9375 L 523.957031 74.375 L 530.917969 71.589844 "/>
<path fill="none" stroke-width="1.5" stroke-linecap="butt" stroke-linejoin="miter" stroke="rgb(12.156863%, 47.058824%, 70.588235%)" stroke-opacity="1" stroke-miterlimit="10" d="M 380.40625 113.257812 C 331.9375 107.867188 288.832031 120.703125 253.433594 154.226562 "/>
<path fill-rule="nonzero" fill="rgb(12.156863%, 47.058824%, 70.588235%)" fill-opacity="1" d="M 248.257812 159.132812 L 251.839844 152.542969 L 255.027344 155.910156 L 248.257812 159.132812 "/>
<path fill="none" stroke-width="2.5" stroke-linecap="butt" stroke-linejoin="miter" stroke="rgb(70.196078%, 70.196078%, 70.196078%)" stroke-opacity="1" stroke-miterlimit="10" d="M 534.476562 68.621094 C 570.042969 79.722656 604.414062 76.636719 635.667969 56.390625 "/>
<path fill-rule="nonzero" fill="rgb(70.196078%, 70.196078%, 70.196078%)" fill-opacity="1" d="M 641.652344 52.515625 L 636.925781 58.335938 L 634.40625 54.445312 L 641.652344 52.515625 "/>
<path fill="none" stroke-width="1.5" stroke-linecap="butt" stroke-linejoin="miter" stroke="rgb(12.156863%, 47.058824%, 70.588235%)" stroke-opacity="1" stroke-miterlimit="10" d="M 144.523438 169.4375 C 112.128906 164.359375 82.527344 171.398438 58.015625 193.136719 "/>
<path fill-rule="nonzero" fill="rgb(12.156863%, 47.058824%, 70.588235%)" fill-opacity="1" d="M 52.675781 197.871094 L 56.476562 191.402344 L 59.550781 194.871094 L 52.675781 197.871094 "/>
<path fill="none" stroke-width="1.5" stroke-linecap="butt" stroke-linejoin="miter" stroke="rgb(99.215686%, 74.901961%, 43.529412%)" stroke-opacity="1" stroke-miterlimit="10" d="M 638.519531 485.929688 C 618.820312 518.335938 613.441406 553.046875 625.761719 588.894531 "/>
<path fill-rule="nonzero" fill="rgb(99.215686%, 74.901961%, 43.529412%)" fill-opacity="1" d="M 628.078125 595.640625 L 623.570312 589.648438 L 627.953125 588.140625 L 628.078125 595.640625 "/>
<path fill="none" stroke-width="2.5" stroke-linecap="butt" stroke-linejoin="miter" stroke="rgb(70.196078%, 70.196078%, 70.196078%)" stroke-opacity="1" stroke-miterlimit="10" d="M 243.40625 604.992188 C 263.597656 635.3125 291.609375 654.144531 327.816406 657.96875 "/>
<path fill-rule="nonzero" fill="rgb(70.196078%, 70.196078%, 70.196078%)" fill-opacity="1" d="M 334.910156 658.71875 L 327.574219 660.273438 L 328.0625 655.664062 L 334.910156 658.71875 "/>
<path fill="none" stroke-width="1.5" stroke-linecap="butt" stroke-linejoin="miter" stroke="rgb(30.196078%, 68.627451%, 29.019608%)" stroke-opacity="1" stroke-miterlimit="10" d="M 495.441406 526.351562 C 492.058594 553.824219 498.667969 578.757812 517.839844 598.6875 "/>
<path fill-rule="nonzero" fill="rgb(30.196078%, 68.627451%, 29.019608%)" fill-opacity="1" d="M 522.785156 603.828125 L 516.171875 600.292969 L 519.511719 597.082031 L 522.785156 603.828125 "/>
<path fill="none" stroke-width="1.5" stroke-linecap="butt" stroke-linejoin="miter" stroke="rgb(99.215686%, 74.901961%, 43.529412%)" stroke-opacity="1" stroke-miterlimit="10" d="M 495.441406 526.351562 C 523.789062 513.878906 543.789062 493.203125 552.164062 463.40625 "/>
<path fill-rule="nonzero" fill="rgb(99.215686%, 74.901961%, 43.529412%)" fill-opacity="1" d="M 554.09375 456.539062 L 554.394531 464.03125 L 549.933594 462.777344 L 554.09375 456.539062 "/>
<path fill="none" stroke-width="1.5" stroke-linecap="butt" stroke-linejoin="miter" stroke="rgb(30.196078%, 68.627451%, 29.019608%)" stroke-opacity="1" stroke-miterlimit="10" d="M 339.507812 659.203125 C 364.480469 675.136719 391.578125 680.171875 419.691406 670.921875 "/>
<path fill-rule="nonzero" fill="rgb(30.196078%, 68.627451%, 29.019608%)" fill-opacity="1" d="M 426.46875 668.695312 L 420.414062 673.125 L 418.96875 668.722656 L 426.46875 668.695312 "/>
<path fill="none" stroke-width="1.5" stroke-linecap="butt" stroke-linejoin="miter" stroke="rgb(99.215686%, 74.901961%, 43.529412%)" stroke-opacity="1" stroke-miterlimit="10" d="M 339.507812 659.203125 C 339.40625 693.046875 351.257812 722.101562 377.242188 743.75 "/>
<path fill-rule="nonzero" fill="rgb(99.215686%, 74.901961%, 43.529412%)" fill-opacity="1" d="M 382.722656 748.316406 L 375.761719 745.53125 L 378.726562 741.972656 L 382.722656 748.316406 "/>
<path fill="none" stroke-width="1.5" stroke-linecap="butt" stroke-linejoin="miter" stroke="rgb(12.156863%, 47.058824%, 70.588235%)" stroke-opacity="1" stroke-miterlimit="10" d="M 404.6875 235.082031 C 415.679688 195.230469 410.882812 157.296875 387.367188 123.316406 "/>
<path fill-rule="nonzero" fill="rgb(12.156863%, 47.058824%, 70.588235%)" fill-opacity="1" d="M 383.308594 117.453125 L 389.273438 122 L 385.460938 124.636719 L 383.308594 117.453125 "/>
<path fill="none" stroke-width="2.5" stroke-linecap="butt" stroke-linejoin="miter" stroke="rgb(70.196078%, 70.196078%, 70.196078%)" stroke-opacity="1" stroke-miterlimit="10" d="M 404.6875 235.082031 C 427.492188 221.328125 442.472656 201.519531 446.136719 175.167969 "/>
<path fill-rule="nonzero" fill="rgb(70.196078%, 70.196078%, 70.196078%)" fill-opacity="1" d="M 447.121094 168.105469 L 448.433594 175.488281 L 443.84375 174.847656 L 447.121094 168.105469 "/>
<path fill="none" stroke-width="2.5" stroke-linecap="butt" stroke-linejoin="miter" stroke="rgb(70.196078%, 70.196078%, 70.196078%)" stroke-opacity="1" stroke-miterlimit="10" d="M 431.300781 667.105469 C 468.089844 663.800781 498.425781 647.964844 519.375 617.566406 "/>
<path fill-rule="nonzero" fill="rgb(70.196078%, 70.196078%, 70.196078%)" fill-opacity="1" d="M 523.421875 611.691406 L 521.28125 618.882812 L 517.464844 616.25 L 523.421875 611.691406 "/>
<path fill="none" stroke-width="3.5" stroke-linecap="butt" stroke-linejoin="miter" stroke="rgb(70.196078%, 70.196078%, 70.196078%)" stroke-opacity="1" stroke-miterlimit="10" d="M 486.695312 285.101562 C 470.492188 258.421875 447.199219 241.136719 416.320312 236.738281 "/>
<path fill-rule="nonzero" fill="rgb(70.196078%, 70.196078%, 70.196078%)" fill-opacity="1" d="M 409.257812 235.734375 L 416.648438 234.445312 L 415.996094 239.035156 L 409.257812 235.734375 "/>
<path fill="none" stroke-width="1.5" stroke-linecap="butt" stroke-linejoin="miter" stroke="rgb(30.196078%, 68.627451%, 29.019608%)" stroke-opacity="1" stroke-miterlimit="10" d="M 263.289062 495.628906 C 241.125 524.714844 232.421875 557.464844 240.652344 593.074219 "/>
<path fill-rule="nonzero" fill="rgb(30.196078%, 68.627451%, 29.019608%)" fill-opacity="1" d="M 242.257812 600.023438 L 238.394531 593.597656 L 242.910156 592.554688 L 242.257812 600.023438 "/>
<path fill="none" stroke-width="1.5" stroke-linecap="butt" stroke-linejoin="miter" stroke="rgb(12.156863%, 47.058824%, 70.588235%)" stroke-opacity="1" stroke-miterlimit="10" d="M 246.347656 160.941406 C 214.6875 148.234375 183.066406 148.519531 153.101562 164.78125 "/>
<path fill-rule="nonzero" fill="rgb(12.156863%, 47.058824%, 70.588235%)" fill-opacity="1" d="M 146.832031 168.183594 L 151.996094 162.742188 L 154.207031 166.816406 L 146.832031 168.183594 "/>
<path fill="none" stroke-width="2.5" stroke-linecap="butt" stroke-linejoin="miter" stroke="rgb(70.196078%, 70.196078%, 70.196078%)" stroke-opacity="1" stroke-miterlimit="10" d="M 629.738281 600.460938 C 638.121094 631.222656 656.117188 654.757812 685.1875 667.785156 "/>
<path fill-rule="nonzero" fill="rgb(70.196078%, 70.196078%, 70.196078%)" fill-opacity="1" d="M 691.699219 670.703125 L 684.242188 669.902344 L 686.136719 665.671875 L 691.699219 670.703125 "/>
<path fill="none" stroke-width="2.5" stroke-linecap="butt" stroke-linejoin="miter" stroke="rgb(70.196078%, 70.196078%, 70.196078%)" stroke-opacity="1" stroke-miterlimit="10" d="M 526.3125 607.496094 C 529.648438 579.859375 522.921875 554.808594 503.601562 534.804688 "/>
<path fill-rule="nonzero" fill="rgb(70.196078%, 70.196078%, 70.196078%)" fill-opacity="1" d="M 498.648438 529.671875 L 505.269531 533.191406 L 501.9375 536.414062 L 498.648438 529.671875 "/>
<path fill="none" stroke-width="1.5" stroke-linecap="butt" stroke-linejoin="miter" stroke="rgb(30.196078%, 68.627451%, 29.019608%)" stroke-opacity="1" stroke-miterlimit="10" d="M 526.3125 607.496094 C 557.378906 620.890625 588.769531 621.464844 618.855469 606.039062 "/>
<path fill-rule="nonzero" fill="rgb(30.196078%, 68.627451%, 29.019608%)" fill-opacity="1" d="M 625.203125 602.785156 L 619.914062 608.101562 L 617.796875 603.976562 L 625.203125 602.785156 "/>
<path fill="none" stroke-width="1.5" stroke-linecap="butt" stroke-linejoin="miter" stroke="rgb(99.215686%, 74.901961%, 43.529412%)" stroke-opacity="1" stroke-miterlimit="10" d="M 384.742188 750 C 410.4375 733.207031 426.699219 709.753906 429.992188 679.257812 "/>
<path fill-rule="nonzero" fill="rgb(99.215686%, 74.901961%, 43.529412%)" fill-opacity="1" d="M 430.757812 672.167969 L 432.296875 679.507812 L 427.6875 679.007812 L 430.757812 672.167969 "/>
<path fill="none" stroke-width="1.5" stroke-linecap="butt" stroke-linejoin="miter" stroke="rgb(99.215686%, 74.901961%, 43.529412%)" stroke-opacity="1" stroke-miterlimit="10" d="M 554.804688 454.007812 C 574.601562 475.902344 599.3125 487.832031 628.769531 486.402344 "/>
<path fill-rule="nonzero" fill="rgb(99.215686%, 74.901961%, 43.529412%)" fill-opacity="1" d="M 635.894531 486.054688 L 628.882812 488.714844 L 628.65625 484.085938 L 635.894531 486.054688 "/>
<path fill="none" stroke-width="2.5" stroke-linecap="butt" stroke-linejoin="miter" stroke="rgb(70.196078%, 70.196078%, 70.196078%)" stroke-opacity="1" stroke-miterlimit="10" d="M 447.757812 163.53125 C 436.371094 139.417969 418.15625 122.472656 392.277344 116.15625 "/>
<path fill-rule="nonzero" fill="rgb(70.196078%, 70.196078%, 70.196078%)" fill-opacity="1" d="M 385.347656 114.464844 L 392.828125 113.902344 L 391.726562 118.40625 L 385.347656 114.464844 "/>
<path fill="none" stroke-width="3.5" stroke-linecap="butt" stroke-linejoin="miter" stroke="rgb(70.196078%, 70.196078%, 70.196078%)" stroke-opacity="1" stroke-miterlimit="10" d="M 569.128906 265.457031 C 542.902344 258.722656 517.867188 261.992188 496.132812 278.105469 "/>
<path fill-rule="nonzero" fill="rgb(70.196078%, 70.196078%, 70.196078%)" fill-opacity="1" d="M 490.402344 282.351562 L 494.753906 276.242188 L 497.515625 279.964844 L 490.402344 282.351562 "/>
<path fill="none" stroke-width="1.5" stroke-linecap="butt" stroke-linejoin="miter" stroke="rgb(30.196078%, 68.627451%, 29.019608%)" stroke-opacity="1" stroke-miterlimit="10" d="M 194.15625 447.996094 C 207.136719 472.1875 226.773438 488.558594 253.707031 493.773438 "/>
<path fill-rule="nonzero" fill="rgb(30.196078%, 68.627451%, 29.019608%)" fill-opacity="1" d="M 260.707031 495.128906 L 253.265625 496.050781 L 254.148438 491.5 L 260.707031 495.128906 "/>
<path fill="none" stroke-width="1.5" stroke-linecap="butt" stroke-linejoin="miter" stroke="rgb(99.215686%, 74.901961%, 43.529412%)" stroke-opacity="1" stroke-miterlimit="10" d="M 194.15625 447.996094 C 173.09375 469.605469 162.542969 495.582031 165.875 525.550781 "/>
<path fill-rule="nonzero" fill="rgb(99.215686%, 74.901961%, 43.529412%)" fill-opacity="1" d="M 166.664062 532.640625 L 163.570312 525.808594 L 168.179688 525.296875 L 166.664062 532.640625 "/>
<path fill="none" stroke-width="1.5" stroke-linecap="butt" stroke-linejoin="miter" stroke="rgb(99.215686%, 74.901961%, 43.529412%)" stroke-opacity="1" stroke-miterlimit="10" d="M 166.953125 535.253906 C 178.726562 566.898438 199.96875 589.933594 231.851562 600.988281 "/>
<path fill-rule="nonzero" fill="rgb(99.215686%, 74.901961%, 43.529412%)" fill-opacity="1" d="M 238.589844 603.324219 L 231.09375 603.175781 L 232.613281 598.796875 L 238.589844 603.324219 "/>
<path fill-rule="nonzero" fill="rgb(70.196078%, 70.196078%, 70.196078%)" fill-opacity="1" stroke-width="1" stroke-linecap="butt" stroke-linejoin="miter" stroke="rgb(70.196078%, 70.196078%, 70.196078%)" stroke-opacity="1" stroke-miterlimit="10" d="M 650.382812 50 C 650.382812 56.464844 640.683594 56.464844 640.683594 50 C 640.683594 43.535156 650.382812 43.535156 650.382812 50 "/>
<path fill-rule="nonzero" fill="rgb(70.196078%, 70.196078%, 70.196078%)" fill-opacity="1" stroke-width="1" stroke-linecap="butt" stroke-linejoin="miter" stroke="rgb(70.196078%, 70.196078%, 70.196078%)" stroke-opacity="1" stroke-miterlimit="10" d="M 385.757812 113.257812 C 385.757812 120.390625 375.054688 120.390625 375.054688 113.257812 C 375.054688 106.125 385.757812 106.125 385.757812 113.257812 "/>
<path fill-rule="nonzero" fill="rgb(70.196078%, 70.196078%, 70.196078%)" fill-opacity="1" stroke-width="1" stroke-linecap="butt" stroke-linejoin="miter" stroke="rgb(70.196078%, 70.196078%, 70.196078%)" stroke-opacity="1" stroke-miterlimit="10" d="M 539.328125 68.621094 C 539.328125 75.089844 529.625 75.089844 529.625 68.621094 C 529.625 62.15625 539.328125 62.15625 539.328125 68.621094 "/>
<path fill-rule="nonzero" fill="rgb(12.156863%, 47.058824%, 70.588235%)" fill-opacity="1" stroke-width="1" stroke-linecap="butt" stroke-linejoin="miter" stroke="rgb(12.156863%, 47.058824%, 70.588235%)" stroke-opacity="1" stroke-miterlimit="10" d="M 147.273438 169.4375 C 147.273438 173.105469 141.773438 173.105469 141.773438 169.4375 C 141.773438 165.769531 147.273438 165.769531 147.273438 169.4375 "/>
<path fill-rule="nonzero" fill="rgb(99.215686%, 74.901961%, 43.529412%)" fill-opacity="1" stroke-width="1" stroke-linecap="butt" stroke-linejoin="miter" stroke="rgb(99.215686%, 74.901961%, 43.529412%)" stroke-opacity="1" stroke-miterlimit="10" d="M 641.269531 485.929688 C 641.269531 489.59375 635.769531 489.59375 635.769531 485.929688 C 635.769531 482.261719 641.269531 482.261719 641.269531 485.929688 "/>
<path fill-rule="nonzero" fill="rgb(70.196078%, 70.196078%, 70.196078%)" fill-opacity="1" stroke-width="1" stroke-linecap="butt" stroke-linejoin="miter" stroke="rgb(70.196078%, 70.196078%, 70.196078%)" stroke-opacity="1" stroke-miterlimit="10" d="M 248.753906 604.992188 C 248.753906 612.125 238.054688 612.125 238.054688 604.992188 C 238.054688 597.859375 248.753906 597.859375 248.753906 604.992188 "/>
<path fill-rule="nonzero" fill="rgb(70.196078%, 70.196078%, 70.196078%)" fill-opacity="1" stroke-width="1" stroke-linecap="butt" stroke-linejoin="miter" stroke="rgb(70.196078%, 70.196078%, 70.196078%)" stroke-opacity="1" stroke-miterlimit="10" d="M 500.292969 526.351562 C 500.292969 532.820312 490.589844 532.820312 490.589844 526.351562 C 490.589844 519.886719 500.292969 519.886719 500.292969 526.351562 "/>
<path fill-rule="nonzero" fill="rgb(70.196078%, 70.196078%, 70.196078%)" fill-opacity="1" stroke-width="1" stroke-linecap="butt" stroke-linejoin="miter" stroke="rgb(70.196078%, 70.196078%, 70.196078%)" stroke-opacity="1" stroke-miterlimit="10" d="M 344.359375 659.203125 C 344.359375 665.671875 334.660156 665.671875 334.660156 659.203125 C 334.660156 652.738281 344.359375 652.738281 344.359375 659.203125 "/>
<path fill-rule="nonzero" fill="rgb(70.196078%, 70.196078%, 70.196078%)" fill-opacity="1" stroke-width="1" stroke-linecap="butt" stroke-linejoin="miter" stroke="rgb(70.196078%, 70.196078%, 70.196078%)" stroke-opacity="1" stroke-miterlimit="10" d="M 409.535156 235.082031 C 409.535156 241.546875 399.835938 241.546875 399.835938 235.082031 C 399.835938 228.613281 409.535156 228.613281 409.535156 235.082031 "/>
<path fill-rule="nonzero" fill="rgb(70.196078%, 70.196078%, 70.196078%)" fill-opacity="1" stroke-width="1" stroke-linecap="butt" stroke-linejoin="miter" stroke="rgb(70.196078%, 70.196078%, 70.196078%)" stroke-opacity="1" stroke-miterlimit="10" d="M 436.652344 667.105469 C 436.652344 674.238281 425.953125 674.238281 425.953125 667.105469 C 425.953125 659.96875 436.652344 659.96875 436.652344 667.105469 "/>
<path fill-rule="nonzero" fill="rgb(70.196078%, 70.196078%, 70.196078%)" fill-opacity="1" stroke-width="1" stroke-linecap="butt" stroke-linejoin="miter" stroke="rgb(70.196078%, 70.196078%, 70.196078%)" stroke-opacity="1" stroke-miterlimit="10" d="M 491.546875 285.101562 C 491.546875 291.566406 481.847656 291.566406 481.847656 285.101562 C 481.847656 278.632812 491.546875 278.632812 491.546875 285.101562 "/>
<path fill-rule="nonzero" fill="rgb(30.196078%, 68.627451%, 29.019608%)" fill-opacity="1" stroke-width="1" stroke-linecap="butt" stroke-linejoin="miter" stroke="rgb(30.196078%, 68.627451%, 29.019608%)" stroke-opacity="1" stroke-miterlimit="10" d="M 266.039062 495.628906 C 266.039062 499.296875 260.539062 499.296875 260.539062 495.628906 C 260.539062 491.964844 266.039062 491.964844 266.039062 495.628906 "/>
<path fill-rule="nonzero" fill="rgb(14.901961%, 14.901961%, 14.901961%)" fill-opacity="1" stroke-width="1" stroke-linecap="butt" stroke-linejoin="miter" stroke="rgb(14.901961%, 14.901961%, 14.901961%)" stroke-opacity="1" stroke-miterlimit="10" d="M 46.25 203.996094 L 50 196.496094 L 53.75 203.996094 Z M 46.25 203.996094 "/>
<path fill-rule="nonzero" fill="rgb(12.156863%, 47.058824%, 70.588235%)" fill-opacity="1" stroke-width="1" stroke-linecap="butt" stroke-linejoin="miter" stroke="rgb(12.156863%, 47.058824%, 70.588235%)" stroke-opacity="1" stroke-miterlimit="10" d="M 249.097656 160.941406 C 249.097656 164.609375 243.597656 164.609375 243.597656 160.941406 C 243.597656 157.273438 249.097656 157.273438 249.097656 160.941406 "/>
<path fill-rule="nonzero" fill="rgb(14.901961%, 14.901961%, 14.901961%)" fill-opacity="1" stroke-width="1" stroke-linecap="butt" stroke-linejoin="miter" stroke="rgb(14.901961%, 14.901961%, 14.901961%)" stroke-opacity="1" stroke-miterlimit="10" d="M 690.925781 678.828125 L 696.777344 667.128906 L 702.625 678.828125 Z M 690.925781 678.828125 "/>
<path fill-rule="nonzero" fill="rgb(70.196078%, 70.196078%, 70.196078%)" fill-opacity="1" stroke-width="1" stroke-linecap="butt" stroke-linejoin="miter" stroke="rgb(70.196078%, 70.196078%, 70.196078%)" stroke-opacity="1" stroke-miterlimit="10" d="M 635.085938 600.460938 C 635.085938 607.59375 624.386719 607.59375 624.386719 600.460938 C 624.386719 593.328125 635.085938 593.328125 635.085938 600.460938 "/>
<path fill-rule="nonzero" fill="rgb(14.901961%, 14.901961%, 14.901961%)" fill-opacity="1" stroke-width="1" stroke-linecap="butt" stroke-linejoin="miter" stroke="rgb(14.901961%, 14.901961%, 14.901961%)" stroke-opacity="1" stroke-miterlimit="10" d="M 744.148438 77.460938 L 750 65.761719 L 755.851562 77.460938 Z M 744.148438 77.460938 "/>
<path fill-rule="nonzero" fill="rgb(70.196078%, 70.196078%, 70.196078%)" fill-opacity="1" stroke-width="1" stroke-linecap="butt" stroke-linejoin="miter" stroke="rgb(70.196078%, 70.196078%, 70.196078%)" stroke-opacity="1" stroke-miterlimit="10" d="M 531.664062 607.496094 C 531.664062 614.628906 520.964844 614.628906 520.964844 607.496094 C 520.964844 600.363281 531.664062 600.363281 531.664062 607.496094 "/>
<path fill-rule="nonzero" fill="rgb(99.215686%, 74.901961%, 43.529412%)" fill-opacity="1" stroke-width="1" stroke-linecap="butt" stroke-linejoin="miter" stroke="rgb(99.215686%, 74.901961%, 43.529412%)" stroke-opacity="1" stroke-miterlimit="10" d="M 387.492188 750 C 387.492188 753.667969 381.992188 753.667969 381.992188 750 C 381.992188 746.332031 387.492188 746.332031 387.492188 750 "/>
<path fill-rule="nonzero" fill="rgb(99.215686%, 74.901961%, 43.529412%)" fill-opacity="1" stroke-width="1" stroke-linecap="butt" stroke-linejoin="miter" stroke="rgb(99.215686%, 74.901961%, 43.529412%)" stroke-opacity="1" stroke-miterlimit="10" d="M 557.554688 454.007812 C 557.554688 457.675781 552.054688 457.675781 552.054688 454.007812 C 552.054688 450.34375 557.554688 450.34375 557.554688 454.007812 "/>
<path fill-rule="nonzero" fill="rgb(70.196078%, 70.196078%, 70.196078%)" fill-opacity="1" stroke-width="1" stroke-linecap="butt" stroke-linejoin="miter" stroke="rgb(70.196078%, 70.196078%, 70.196078%)" stroke-opacity="1" stroke-miterlimit="10" d="M 452.605469 163.53125 C 452.605469 170 442.90625 170 442.90625 163.53125 C 442.90625 157.066406 452.605469 157.066406 452.605469 163.53125 "/>
<path fill-rule="nonzero" fill="rgb(100%, 84.313725%, 0%)" fill-opacity="1" stroke-width="1" stroke-linecap="butt" stroke-linejoin="miter" stroke="rgb(100%, 84.313725%, 0%)" stroke-opacity="1" stroke-miterlimit="10" d="M 563.78125 260.105469 L 574.480469 260.105469 L 574.480469 270.804688 L 563.78125 270.804688 Z M 563.78125 260.105469 "/>
<path fill-rule="nonzero" fill="rgb(100%, 84.313725%, 0%)" fill-opacity="1" stroke-width="1" stroke-linecap="butt" stroke-linejoin="miter" stroke="rgb(100%, 84.313725%, 0%)" stroke-opacity="1" stroke-miterlimit="10" d="M 188.804688 442.644531 L 199.503906 442.644531 L 199.503906 453.34375 L 188.804688 453.34375 Z M 188.804688 442.644531 "/>
<path fill-rule="nonzero" fill="rgb(99.215686%, 74.901961%, 43.529412%)" fill-opacity="1" stroke-width="1" stroke-linecap="butt" stroke-linejoin="miter" stroke="rgb(99.215686%, 74.901961%, 43.529412%)" stroke-opacity="1" stroke-miterlimit="10" d="M 169.703125 535.253906 C 169.703125 538.917969 164.203125 538.917969 164.203125 535.253906 C 164.203125 531.585938 169.703125 531.585938 169.703125 535.253906 "/>
</svg>
