<?xml version="1.0" encoding="UTF-8"?>
<svg xmlns="http://www.w3.org/2000/svg" xmlns:xlink="http://www.w3.org/1999/xlink" width="800" height="800" viewBox="0 0 800 800">
<rect x="-80" y="-80" width="960" height="960" fill="rgb(100%, 100%, 100%)" fill-opacity="1"/>
<path fill="none" stroke-width="2.5" stroke-linecap="butt" stroke-linejoin="miter" stroke="rgb(70.196078%, 70.196078%, 70.196078%)" stroke-opacity="1" stroke-miterlimit="10" d="M 379.707031 646.09375 C 404.734375 621.5625 417.542969 591.695312 414.609375 556.792969 "/>
<path fill-rule="nonzero" fill="rgb(70.196078%, 70.196078%, 70.196078%)" fill-opacity="1" d="M 414.011719 549.683594 L 416.917969 556.597656 L 412.300781 556.988281 L 414.011719 549.683594 "/>
<path fill="none" stroke-width="2.5" stroke-linecap="butt" stroke-linejoin="miter" stroke="rgb(70.196078%, 70.196078%, 70.196078%)" stroke-opacity="1" stroke-miterlimit="10" d="M 462.351562 621.257812 C 506.207031 577.359375 527.429688 524.34375 522.476562 462.5 "/>
<path fill-rule="nonzero" fill="rgb(70.196078%, 70.196078%, 70.196078%)" fill-opacity="1" d="M 521.910156 455.390625 L 524.789062 462.3125 L 520.167969 462.683594 L 521.910156 455.390625 "/>
<path fill="none" stroke-width="2.5" stroke-linecap="butt" stroke-linejoin="miter" stroke="rgb(70.196078%, 70.196078%, 70.196078%)" stroke-opacity="1" stroke-miterlimit="10" d="M 528.449219 215.25 C 567.777344 244.914062 611.84375 256.019531 659.867188 245.105469 "/>
<path fill-rule="nonzero" fill="rgb(70.196078%, 70.196078%, 70.196078%)" fill-opacity="1" d="M 666.824219 243.527344 L 660.382812 247.367188 L 659.355469 242.847656 L 666.824219 243.527344 "/>
<path fill="none" stroke-width="2.5" stroke-linecap="butt" stroke-linejoin="miter" stroke="rgb(70.196078%, 70.196078%, 70.196078%)" stroke-opacity="1" stroke-miterlimit="10" d="M 671.339844 242.5 C 663.15625 293.644531 674.59375 340.011719 708.34375 379.289062 "/>
<path fill-rule="nonzero" fill="rgb(70.196078%, 70.196078%, 70.196078%)" fill-opacity="1" d="M 712.992188 384.699219 L 706.585938 380.800781 L 710.101562 377.777344 L 712.992188 384.699219 "/>
<path fill="none" stroke-width="2.5" stroke-linecap="butt" stroke-linejoin="miter" stroke="rgb(70.196078%, 70.196078%, 70.196078%)" stroke-opacity="1" stroke-miterlimit="10" d="M 397.4375 464.820312 C 422.15625 411.648438 423.886719 357.6875 399.410156 304.417969 "/>
<path fill-rule="nonzero" fill="rgb(70.196078%, 70.196078%, 70.196078%)" fill-opacity="1" d="M 396.429688 297.933594 L 401.515625 303.449219 L 397.304688 305.382812 L 396.429688 297.933594 "/>
<path fill="none" stroke-width="1.5" stroke-linecap="butt" stroke-linejoin="miter" stroke="rgb(99.215686%, 74.901961%, 43.529412%)" stroke-opacity="1" stroke-miterlimit="10" d="M 203.5625 750 C 231.585938 741.570312 252.832031 724.53125 264.011719 697.515625 "/>
<path fill-rule="nonzero" fill="rgb(99.215686%, 74.901961%, 43.529412%)" fill-opacity="1" d="M 266.738281 690.921875 L 266.152344 698.402344 L 261.871094 696.628906 L 266.738281 690.921875 "/>
<path fill="none" stroke-width="1.5" stroke-linecap="butt" stroke-linejoin="miter" stroke="rgb(12.156863%, 47.058824%, 70.588235%)" stroke-opacity="1" stroke-miterlimit="10" d="M 101.085938 259.140625 C 107.769531 225.925781 101.804688 195.070312 80.472656 168.777344 "/>
<path fill-rule="nonzero" fill="rgb(12.156863%, 47.058824%, 70.588235%)" fill-opacity="1" d="M 75.980469 163.238281 L 82.273438 167.316406 L 78.671875 170.238281 L 75.980469 163.238281 "/>
<path fill="none" stroke-width="1.5" stroke-linecap="butt" stroke-linejoin="miter" stroke="rgb(99.215686%, 74.901961%, 43.529412%)" stroke-opacity="1" stroke-miterlimit="10" d="M 661.4375 449.257812 C 678.492188 478.671875 703.484375 497.941406 737.003906 503.492188 "/>
<path fill-rule="nonzero" fill="rgb(99.215686%, 74.901961%, 43.529412%)" fill-opacity="1" d="M 744.042969 504.65625 L 736.625 505.777344 L 737.382812 501.207031 L 744.042969 504.65625 "/>
<path fill="none" stroke-width="2.5" stroke-linecap="butt" stroke-linejoin="miter" stroke="rgb(70.196078%, 70.196078%, 70.196078%)" stroke-opacity="1" stroke-miterlimit="10" d="M 144.839844 455.480469 C 162.777344 471.617188 183.925781 479.5 207.707031 475.601562 "/>
<path fill-rule="nonzero" fill="rgb(70.196078%, 70.196078%, 70.196078%)" fill-opacity="1" d="M 214.746094 474.445312 L 208.082031 477.886719 L 207.332031 473.3125 L 214.746094 474.445312 "/>
<path fill="none" stroke-width="2.5" stroke-linecap="butt" stroke-linejoin="miter" stroke="rgb(70.196078%, 70.196078%, 70.196078%)" stroke-opacity="1" stroke-miterlimit="10" d="M 622.476562 132.773438 C 643.078125 113.945312 654.359375 90.507812 652.734375 62.671875 "/>
<path fill-rule="nonzero" fill="rgb(70.196078%, 70.196078%, 70.196078%)" fill-opacity="1" d="M 652.320312 55.550781 L 655.046875 62.535156 L 650.421875 62.804688 L 652.320312 55.550781 "/>
<path fill="none" stroke-width="1.5" stroke-linecap="butt" stroke-linejoin="miter" stroke="rgb(12.156863%, 47.058824%, 70.588235%)" stroke-opacity="1" stroke-miterlimit="10" d="M 295.855469 322.117188 C 272.699219 294.890625 243.238281 279.78125 207.515625 280.1875 "/>
<path fill-rule="nonzero" fill="rgb(12.156863%, 47.058824%, 70.588235%)" fill-opacity="1" d="M 200.382812 280.269531 L 207.488281 277.871094 L 207.542969 282.507812 L 200.382812 280.269531 "/>
<path fill="none" stroke-width="1.5" stroke-linecap="butt" stroke-linejoin="miter" stroke="rgb(12.156863%, 47.058824%, 70.588235%)" stroke-opacity="1" stroke-miterlimit="10" d="M 73.425781 160.089844 C 77.484375 135.96875 72.679688 113.640625 56.472656 95.359375 "/>
<path fill-rule="nonzero" fill="rgb(12.156863%, 47.058824%, 70.588235%)" fill-opacity="1" d="M 51.742188 90.019531 L 58.207031 93.820312 L 54.738281 96.894531 L 51.742188 90.019531 "/>
<path fill="none" stroke-width="1.5" stroke-linecap="butt" stroke-linejoin="miter" stroke="rgb(12.156863%, 47.058824%, 70.588235%)" stroke-opacity="1" stroke-miterlimit="10" d="M 155.035156 124.917969 C 156.964844 100.625 150.257812 78.875 132.578125 62.144531 "/>
<path fill-rule="nonzero" fill="rgb(12.156863%, 47.058824%, 70.588235%)" fill-opacity="1" d="M 127.394531 57.238281 L 134.167969 60.460938 L 130.984375 63.824219 L 127.394531 57.238281 "/>
<path fill="none" stroke-width="1.5" stroke-linecap="butt" stroke-linejoin="miter" stroke="rgb(99.215686%, 74.901961%, 43.529412%)" stroke-opacity="1" stroke-miterlimit="10" d="M 496.394531 326.707031 C 522.496094 298.640625 534.882812 265.382812 530.007812 227.382812 "/>
<path fill-rule="nonzero" fill="rgb(99.215686%, 74.901961%, 43.529412%)" fill-opacity="1" d="M 529.097656 220.308594 L 532.304688 227.089844 L 527.707031 227.679688 L 529.097656 220.308594 "/>
<path fill="none" stroke-width="2.5" stroke-linecap="butt" stroke-linejoin="miter" stroke="rgb(70.196078%, 70.196078%, 70.196078%)" stroke-opacity="1" stroke-miterlimit="10" d="M 394.496094 293.722656 C 458.800781 312.308594 519.878906 304.691406 575.785156 267.902344 "/>
<path fill-rule="nonzero" fill="rgb(70.196078%, 70.196078%, 70.196078%)" fill-opacity="1" d="M 581.742188 263.980469 L 577.058594 269.835938 L 574.511719 265.964844 L 581.742188 263.980469 "/>
<path fill="none" stroke-width="1.5" stroke-linecap="butt" stroke-linejoin="miter" stroke="rgb(30.196078%, 68.627451%, 29.019608%)" stroke-opacity="1" stroke-miterlimit="10" d="M 694.773438 530.523438 C 712.324219 532.378906 728.484375 528.1875 740.640625 515.449219 "/>
<path fill-rule="nonzero" fill="rgb(30.196078%, 68.627451%, 29.019608%)" fill-opacity="1" d="M 745.5625 510.292969 L 742.316406 517.050781 L 738.964844 513.851562 L 745.5625 510.292969 "/>
<path fill="none" stroke-width="2.5" stroke-linecap="butt" stroke-linejoin="miter" stroke="rgb(70.196078%, 70.196078%, 70.196078%)" stroke-opacity="1" stroke-miterlimit="10" d="M 585.617188 261.429688 C 615.96875 228.191406 629.941406 189.039062 624.023438 144.433594 "/>
<path fill-rule="nonzero" fill="rgb(70.196078%, 70.196078%, 70.196078%)" fill-opacity="1" d="M 623.085938 137.363281 L 626.320312 144.128906 L 621.726562 144.738281 L 623.085938 137.363281 "/>
<path fill="none" stroke-width="1.5" stroke-linecap="butt" stroke-linejoin="miter" stroke="rgb(12.156863%, 47.058824%, 70.588235%)" stroke-opacity="1" stroke-miterlimit="10" d="M 50 88.058594 C 76.125 114.890625 107.980469 128.558594 145.304688 125.671875 "/>
<path fill-rule="nonzero" fill="rgb(12.156863%, 47.058824%, 70.588235%)" fill-opacity="1" d="M 152.414062 125.121094 L 145.480469 127.984375 L 145.125 123.363281 L 152.414062 125.121094 "/>
<path fill="none" stroke-width="1.5" stroke-linecap="butt" stroke-linejoin="miter" stroke="rgb(99.215686%, 74.901961%, 43.529412%)" stroke-opacity="1" stroke-miterlimit="10" d="M 716.007812 388.214844 C 691.070312 397.742188 672.820312 414.648438 664.488281 439.988281 "/>
<path fill-rule="nonzero" fill="rgb(99.215686%, 74.901961%, 43.529412%)" fill-opacity="1" d="M 662.257812 446.761719 L 662.285156 439.261719 L 666.6875 440.710938 L 662.257812 446.761719 "/>
<path fill="none" stroke-width="1.5" stroke-linecap="butt" stroke-linejoin="miter" stroke="rgb(30.196078%, 68.627451%, 29.019608%)" stroke-opacity="1" stroke-miterlimit="10" d="M 716.007812 388.214844 C 688.132812 428.9375 679.097656 473.535156 692.183594 521.109375 "/>
<path fill-rule="nonzero" fill="rgb(30.196078%, 68.627451%, 29.019608%)" fill-opacity="1" d="M 694.074219 527.984375 L 689.949219 521.722656 L 694.417969 520.492188 L 694.074219 527.984375 "/>
<path fill="none" stroke-width="1.5" stroke-linecap="butt" stroke-linejoin="miter" stroke="rgb(30.196078%, 68.627451%, 29.019608%)" stroke-opacity="1" stroke-miterlimit="10" d="M 569.152344 355.410156 C 577.804688 306.894531 567.761719 262.550781 536.273438 224.664062 "/>
<path fill-rule="nonzero" fill="rgb(30.196078%, 68.627451%, 29.019608%)" fill-opacity="1" d="M 531.714844 219.175781 L 538.054688 223.183594 L 534.488281 226.144531 L 531.714844 219.175781 "/>
<path fill="none" stroke-width="1.5" stroke-linecap="butt" stroke-linejoin="miter" stroke="rgb(12.156863%, 47.058824%, 70.588235%)" stroke-opacity="1" stroke-miterlimit="10" d="M 125.488281 55.433594 C 94.300781 78.871094 75.972656 109.972656 73.992188 148.914062 "/>
<path fill-rule="nonzero" fill="rgb(12.156863%, 47.058824%, 70.588235%)" fill-opacity="1" d="M 73.628906 156.039062 L 71.679688 148.796875 L 76.308594 149.03125 L 73.628906 156.039062 "/>
<path fill="none" stroke-width="1.5" stroke-linecap="butt" stroke-linejoin="miter" stroke="rgb(12.156863%, 47.058824%, 70.588235%)" stroke-opacity="1" stroke-miterlimit="10" d="M 197.753906 280.300781 C 172.183594 259.539062 142.929688 250.734375 110.65625 257.214844 "/>
<path fill-rule="nonzero" fill="rgb(12.156863%, 47.058824%, 70.588235%)" fill-opacity="1" d="M 103.664062 258.621094 L 110.199219 254.945312 L 111.113281 259.488281 L 103.664062 258.621094 "/>
<path fill="none" stroke-width="1.5" stroke-linecap="butt" stroke-linejoin="miter" stroke="rgb(12.156863%, 47.058824%, 70.588235%)" stroke-opacity="1" stroke-miterlimit="10" d="M 426.5 382.480469 C 395.238281 344.28125 354.960938 323.078125 305.617188 322.277344 "/>
<path fill-rule="nonzero" fill="rgb(12.156863%, 47.058824%, 70.588235%)" fill-opacity="1" d="M 298.484375 322.160156 L 305.65625 319.960938 L 305.582031 324.59375 L 298.484375 322.160156 "/>
<path fill="none" stroke-width="1.5" stroke-linecap="butt" stroke-linejoin="miter" stroke="rgb(99.215686%, 74.901961%, 43.529412%)" stroke-opacity="1" stroke-miterlimit="10" d="M 521.539062 450.769531 C 532.449219 409.144531 526.875 369.792969 502.035156 334.679688 "/>
<path fill-rule="nonzero" fill="rgb(99.215686%, 74.901961%, 43.529412%)" fill-opacity="1" d="M 497.914062 328.855469 L 503.925781 333.339844 L 500.140625 336.015625 L 497.914062 328.855469 "/>
<path fill="none" stroke-width="1.5" stroke-linecap="butt" stroke-linejoin="miter" stroke="rgb(30.196078%, 68.627451%, 29.019608%)" stroke-opacity="1" stroke-miterlimit="10" d="M 521.539062 450.769531 C 550.09375 429.300781 566.9375 400.820312 568.675781 365.160156 "/>
<path fill-rule="nonzero" fill="rgb(30.196078%, 68.627451%, 29.019608%)" fill-opacity="1" d="M 569.023438 358.035156 L 570.992188 365.273438 L 566.363281 365.046875 L 569.023438 358.035156 "/>
<path fill="none" stroke-width="2.5" stroke-linecap="butt" stroke-linejoin="miter" stroke="rgb(70.196078%, 70.196078%, 70.196078%)" stroke-opacity="1" stroke-miterlimit="10" d="M 322.988281 477.015625 C 315.199219 537.792969 330.59375 592.042969 371.792969 637.382812 "/>
<path fill-rule="nonzero" fill="rgb(70.196078%, 70.196078%, 70.196078%)" fill-opacity="1" d="M 376.589844 642.664062 L 370.078125 638.941406 L 373.507812 635.824219 L 376.589844 642.664062 "/>
<path fill="none" stroke-width="1.5" stroke-linecap="butt" stroke-linejoin="miter" stroke="rgb(12.156863%, 47.058824%, 70.588235%)" stroke-opacity="1" stroke-miterlimit="10" d="M 322.988281 477.015625 C 369.019531 463.421875 403.253906 435.347656 422.570312 391.421875 "/>
<path fill-rule="nonzero" fill="rgb(12.156863%, 47.058824%, 70.588235%)" fill-opacity="1" d="M 425.441406 384.890625 L 424.691406 392.351562 L 420.449219 390.488281 L 425.441406 384.890625 "/>
<path fill="none" stroke-width="1.5" stroke-linecap="butt" stroke-linejoin="miter" stroke="rgb(99.215686%, 74.901961%, 43.529412%)" stroke-opacity="1" stroke-miterlimit="10" d="M 385.503906 732.269531 C 425.179688 710.4375 451.171875 677.667969 459.972656 633.261719 "/>
<path fill-rule="nonzero" fill="rgb(99.215686%, 74.901961%, 43.529412%)" fill-opacity="1" d="M 461.359375 626.265625 L 462.246094 633.710938 L 457.699219 632.8125 L 461.359375 626.265625 "/>
<path fill="none" stroke-width="1.5" stroke-linecap="butt" stroke-linejoin="miter" stroke="rgb(99.215686%, 74.901961%, 43.529412%)" stroke-opacity="1" stroke-miterlimit="10" d="M 268.6875 686.21875 C 297.40625 717.761719 333.140625 734.375 375.75 732.664062 "/>
<path fill-rule="nonzero" fill="rgb(99.215686%, 74.901961%, 43.529412%)" fill-opacity="1" d="M 382.878906 732.375 L 375.84375 734.976562 L 375.65625 730.347656 L 382.878906 732.375 "/>
<path fill="none" stroke-width="1.5" stroke-linecap="butt" stroke-linejoin="miter" stroke="rgb(30.196078%, 68.627451%, 29.019608%)" stroke-opacity="1" stroke-miterlimit="10" d="M 268.6875 686.21875 C 294.824219 668.542969 311.074219 644.171875 314.050781 612.777344 "/>
<path fill-rule="nonzero" fill="rgb(30.196078%, 68.627451%, 29.019608%)" fill-opacity="1" d="M 314.726562 605.675781 L 316.359375 612.996094 L 311.746094 612.558594 L 314.726562 605.675781 "/>
<path fill="none" stroke-width="2.5" stroke-linecap="butt" stroke-linejoin="miter" stroke="rgb(70.196078%, 70.196078%, 70.196078%)" stroke-opacity="1" stroke-miterlimit="10" d="M 413.625 545.078125 C 421.03125 520.121094 418.824219 495.929688 404.09375 474.5 "/>
<path fill-rule="nonzero" fill="rgb(70.196078%, 70.196078%, 70.196078%)" fill-opacity="1" d="M 400.050781 468.621094 L 406.003906 473.1875 L 402.183594 475.8125 L 400.050781 468.621094 "/>
<path fill="none" stroke-width="3.5" stroke-linecap="butt" stroke-linejoin="miter" stroke="rgb(70.196078%, 70.196078%, 70.196078%)" stroke-opacity="1" stroke-miterlimit="10" d="M 220.117188 473.566406 C 249.597656 489.933594 280.671875 493.613281 312.042969 481.308594 "/>
<path fill-rule="nonzero" fill="rgb(70.196078%, 70.196078%, 70.196078%)" fill-opacity="1" d="M 318.683594 478.703125 L 312.890625 483.464844 L 311.199219 479.148438 L 318.683594 478.703125 "/>
<path fill="none" stroke-width="1.5" stroke-linecap="butt" stroke-linejoin="miter" stroke="rgb(30.196078%, 68.627451%, 29.019608%)" stroke-opacity="1" stroke-miterlimit="10" d="M 198.113281 584.847656 C 203.929688 625.519531 223.359375 658.175781 258.28125 679.785156 "/>
<path fill-rule="nonzero" fill="rgb(30.196078%, 68.627451%, 29.019608%)" fill-opacity="1" d="M 264.347656 683.535156 L 257.0625 681.753906 L 259.5 677.8125 L 264.347656 683.535156 "/>
<path fill="none" stroke-width="1.5" stroke-linecap="butt" stroke-linejoin="miter" stroke="rgb(12.156863%, 47.058824%, 70.588235%)" stroke-opacity="1" stroke-miterlimit="10" d="M 198.113281 584.847656 C 221.203125 555.425781 230.558594 522.066406 222.691406 485.523438 "/>
<path fill-rule="nonzero" fill="rgb(12.156863%, 47.058824%, 70.588235%)" fill-opacity="1" d="M 221.1875 478.550781 L 224.957031 485.035156 L 220.425781 486.011719 L 221.1875 478.550781 "/>
<path fill="none" stroke-width="1.5" stroke-linecap="butt" stroke-linejoin="miter" stroke="rgb(30.196078%, 68.627451%, 29.019608%)" stroke-opacity="1" stroke-miterlimit="10" d="M 314.972656 603.0625 C 356.9375 630.632812 402.488281 639 450.617188 624.738281 "/>
<path fill-rule="nonzero" fill="rgb(30.196078%, 68.627451%, 29.019608%)" fill-opacity="1" d="M 457.457031 622.710938 L 451.277344 626.960938 L 449.957031 622.515625 L 457.457031 622.710938 "/>
<path fill-rule="nonzero" fill="rgb(70.196078%, 70.196078%, 70.196078%)" fill-opacity="1" stroke-width="1" stroke-linecap="butt" stroke-linejoin="miter" stroke="rgb(70.196078%, 70.196078%, 70.196078%)" stroke-opacity="1" stroke-miterlimit="10" d="M 384.554688 646.09375 C 384.554688 652.558594 374.855469 652.558594 374.855469 646.09375 C 374.855469 639.625 384.554688 639.625 384.554688 646.09375 "/>
<path fill-rule="nonzero" fill="rgb(70.196078%, 70.196078%, 70.196078%)" fill-opacity="1" stroke-width="1" stroke-linecap="butt" stroke-linejoin="miter" stroke="rgb(70.196078%, 70.196078%, 70.196078%)" stroke-opacity="1" stroke-miterlimit="10" d="M 467.703125 621.257812 C 467.703125 628.390625 457.003906 628.390625 457.003906 621.257812 C 457.003906 614.125 467.703125 614.125 467.703125 621.257812 "/>
<path fill-rule="nonzero" fill="rgb(70.196078%, 70.196078%, 70.196078%)" fill-opacity="1" stroke-width="1" stroke-linecap="butt" stroke-linejoin="miter" stroke="rgb(70.196078%, 70.196078%, 70.196078%)" stroke-opacity="1" stroke-miterlimit="10" d="M 533.800781 215.25 C 533.800781 222.382812 523.101562 222.382812 523.101562 215.25 C 523.101562 208.117188 533.800781 208.117188 533.800781 215.25 "/>
<path fill-rule="nonzero" fill="rgb(70.196078%, 70.196078%, 70.196078%)" fill-opacity="1" stroke-width="1" stroke-linecap="butt" stroke-linejoin="miter" stroke="rgb(70.196078%, 70.196078%, 70.196078%)" stroke-opacity="1" stroke-miterlimit="10" d="M 676.191406 242.5 C 676.191406 248.964844 666.488281 248.964844 666.488281 242.5 C 666.488281 236.03125 676.191406 236.03125 676.191406 242.5 "/>
<path fill-rule="nonzero" fill="rgb(14.901961%, 14.901961%, 14.901961%)" fill-opacity="1" stroke-width="1" stroke-linecap="butt" stroke-linejoin="miter" stroke="rgb(14.901961%, 14.901961%, 14.901961%)" stroke-opacity="1" stroke-miterlimit="10" d="M 743.648438 511.992188 L 750 499.292969 L 756.351562 511.992188 Z M 743.648438 511.992188 "/>
<path fill-rule="nonzero" fill="rgb(70.196078%, 70.196078%, 70.196078%)" fill-opacity="1" stroke-width="1" stroke-linecap="butt" stroke-linejoin="miter" stroke="rgb(70.196078%, 70.196078%, 70.196078%)" stroke-opacity="1" stroke-miterlimit="10" d="M 402.289062 464.820312 C 402.289062 471.285156 392.585938 471.285156 392.585938 464.820312 C 392.585938 458.351562 402.289062 458.351562 402.289062 464.820312 "/>
<path fill-rule="nonzero" fill="rgb(100%, 84.313725%, 0%)" fill-opacity="1" stroke-width="1" stroke-linecap="butt" stroke-linejoin="miter" stroke="rgb(100%, 84.313725%, 0%)" stroke-opacity="1" stroke-miterlimit="10" d="M 200.3125 746.75 L 206.8125 746.75 L 206.8125 753.25 L 200.3125 753.25 Z M 200.3125 746.75 "/>
<path fill-rule="nonzero" fill="rgb(12.156863%, 47.058824%, 70.588235%)" fill-opacity="1" stroke-width="1" stroke-linecap="butt" stroke-linejoin="miter" stroke="rgb(12.156863%, 47.058824%, 70.588235%)" stroke-opacity="1" stroke-miterlimit="10" d="M 103.835938 259.140625 C 103.835938 262.804688 98.335938 262.804688 98.335938 259.140625 C 98.335938 255.472656 103.835938 255.472656 103.835938 259.140625 "/>
<path fill-rule="nonzero" fill="rgb(99.215686%, 74.901961%, 43.529412%)" fill-opacity="1" stroke-width="1" stroke-linecap="butt" stroke-linejoin="miter" stroke="rgb(99.215686%, 74.901961%, 43.529412%)" stroke-opacity="1" stroke-miterlimit="10" d="M 664.1875 449.257812 C 664.1875 452.925781 658.6875 452.925781 658.6875 449.257812 C 658.6875 445.589844 664.1875 445.589844 664.1875 449.257812 "/>
<path fill-rule="nonzero" fill="rgb(100%, 84.313725%, 0%)" fill-opacity="1" stroke-width="1" stroke-linecap="butt" stroke-linejoin="miter" stroke="rgb(100%, 84.313725%, 0%)" stroke-opacity="1" stroke-miterlimit="10" d="M 139.488281 450.128906 L 150.1875 450.128906 L 150.1875 460.828125 L 139.488281 460.828125 Z M 139.488281 450.128906 "/>
<path fill-rule="nonzero" fill="rgb(70.196078%, 70.196078%, 70.196078%)" fill-opacity="1" stroke-width="1" stroke-linecap="butt" stroke-linejoin="miter" stroke="rgb(70.196078%, 70.196078%, 70.196078%)" stroke-opacity="1" stroke-miterlimit="10" d="M 627.324219 132.773438 C 627.324219 139.238281 617.625 139.238281 617.625 132.773438 C 617.625 126.304688 627.324219 126.304688 627.324219 132.773438 "/>
<path fill-rule="nonzero" fill="rgb(12.156863%, 47.058824%, 70.588235%)" fill-opacity="1" stroke-width="1" stroke-linecap="butt" stroke-linejoin="miter" stroke="rgb(12.156863%, 47.058824%, 70.588235%)" stroke-opacity="1" stroke-miterlimit="10" d="M 298.605469 322.117188 C 298.605469 325.785156 293.105469 325.785156 293.105469 322.117188 C 293.105469 318.453125 298.605469 318.453125 298.605469 322.117188 "/>
<path fill-rule="nonzero" fill="rgb(14.901961%, 14.901961%, 14.901961%)" fill-opacity="1" stroke-width="1" stroke-linecap="butt" stroke-linejoin="miter" stroke="rgb(14.901961%, 14.901961%, 14.901961%)" stroke-opacity="1" stroke-miterlimit="10" d="M 69.175781 164.339844 L 73.425781 155.839844 L 77.675781 164.339844 Z M 69.175781 164.339844 "/>
<path fill-rule="nonzero" fill="rgb(12.156863%, 47.058824%, 70.588235%)" fill-opacity="1" stroke-width="1" stroke-linecap="butt" stroke-linejoin="miter" stroke="rgb(12.156863%, 47.058824%, 70.588235%)" stroke-opacity="1" stroke-miterlimit="10" d="M 157.785156 124.917969 C 157.785156 128.585938 152.285156 128.585938 152.285156 124.917969 C 152.285156 121.253906 157.785156 121.253906 157.785156 124.917969 "/>
<path fill-rule="nonzero" fill="rgb(99.215686%, 74.901961%, 43.529412%)" fill-opacity="1" stroke-width="1" stroke-linecap="butt" stroke-linejoin="miter" stroke="rgb(99.215686%, 74.901961%, 43.529412%)" stroke-opacity="1" stroke-miterlimit="10" d="M 499.144531 326.707031 C 499.144531 330.375 493.644531 330.375 493.644531 326.707031 C 493.644531 323.042969 499.144531 323.042969 499.144531 326.707031 "/>
<path fill-rule="nonzero" fill="rgb(70.196078%, 70.196078%, 70.196078%)" fill-opacity="1" stroke-width="1" stroke-linecap="butt" stroke-linejoin="miter" stroke="rgb(70.196078%, 70.196078%, 70.196078%)" stroke-opacity="1" stroke-miterlimit="10" d="M 399.347656 293.722656 C 399.347656 300.191406 389.644531 300.191406 389.644531 293.722656 C 389.644531 287.257812 399.347656 287.257812 399.347656 293.722656 "/>
<path fill-rule="nonzero" fill="rgb(30.196078%, 68.627451%, 29.019608%)" fill-opacity="1" stroke-width="1" stroke-linecap="butt" stroke-linejoin="miter" stroke="rgb(30.196078%, 68.627451%, 29.019608%)" stroke-opacity="1" stroke-miterlimit="10" d="M 697.523438 530.523438 C 697.523438 534.1875 692.023438 534.1875 692.023438 530.523438 C 692.023438 526.855469 697.523438 526.855469 697.523438 530.523438 "/>
<path fill-rule="nonzero" fill="rgb(70.196078%, 70.196078%, 70.196078%)" fill-opacity="1" stroke-width="1" stroke-linecap="butt" stroke-linejoin="miter" stroke="rgb(70.196078%, 70.196078%, 70.196078%)" stroke-opacity="1" stroke-miterlimit="10" d="M 590.464844 261.429688 C 590.464844 267.898438 580.765625 267.898438 580.765625 261.429688 C 580.765625 254.964844 590.464844 254.964844 590.464844 261.429688 "/>
<path fill-rule="nonzero" fill="rgb(12.156863%, 47.058824%, 70.588235%)" fill-opacity="1" stroke-width="1" stroke-linecap="butt" stroke-linejoin="miter" stroke="rgb(12.156863%, 47.058824%, 70.588235%)" stroke-opacity="1" stroke-miterlimit="10" d="M 52.75 88.058594 C 52.75 91.722656 47.25 91.722656 47.25 88.058594 C 47.25 84.390625 52.75 84.390625 52.75 88.058594 "/>
<path fill-rule="nonzero" fill="rgb(70.196078%, 70.196078%, 70.196078%)" fill-opacity="1" stroke-width="1" stroke-linecap="butt" stroke-linejoin="miter" stroke="rgb(70.196078%, 70.196078%, 70.196078%)" stroke-opacity="1" stroke-miterlimit="10" d="M 720.859375 388.214844 C 720.859375 394.679688 711.160156 394.679688 711.160156 388.214844 C 711.160156 381.746094 720.859375 381.746094 720.859375 388.214844 "/>
<path fill-rule="nonzero" fill="rgb(14.901961%, 14.901961%, 14.901961%)" fill-opacity="1" stroke-width="1" stroke-linecap="butt" stroke-linejoin="miter" stroke="rgb(14.901961%, 14.901961%, 14.901961%)" stroke-opacity="1" stroke-miterlimit="10" d="M 646.144531 55.851562 L 651.996094 44.148438 L 657.84375 55.851562 Z M 646.144531 55.851562 "/>
<path fill-rule="nonzero" fill="rgb(30.196078%, 68.627451%, 29.019608%)" fill-opacity="1" stroke-width="1" stroke-linecap="butt" stroke-linejoin="miter" stroke="rgb(30.196078%, 68.627451%, 29.019608%)" stroke-opacity="1" stroke-miterlimit="10" d="M 571.902344 355.410156 C 571.902344 359.074219 566.402344 359.074219 566.402344 355.410156 C 566.402344 351.742188 571.902344 351.742188 571.902344 355.410156 "/>
<path fill-rule="nonzero" fill="rgb(12.156863%, 47.058824%, 70.588235%)" fill-opacity="1" stroke-width="1" stroke-linecap="butt" stroke-linejoin="miter" stroke="rgb(12.156863%, 47.058824%, 70.588235%)" stroke-opacity="1" stroke-miterlimit="10" d="M 128.238281 55.433594 C 128.238281 59.101562 122.738281 59.101562 122.738281 55.433594 C 122.738281 51.769531 128.238281 51.769531 128.238281 55.433594 "/>
<path fill-rule="nonzero" fill="rgb(12.156863%, 47.058824%, 70.588235%)" fill-opacity="1" stroke-width="1" stroke-linecap="butt" stroke-linejoin="miter" stroke="rgb(12.156863%, 47.058824%, 70.588235%)" stroke-opacity="1" stroke-miterlimit="10" d="M 200.503906 280.300781 C 200.503906 283.964844 195.003906 283.964844 195.003906 280.300781 C 195.003906 276.632812 200.503906 276.632812 200.503906 280.300781 "/>
<path fill-rule="nonzero" fill="rgb(12.156863%, 47.058824%, 70.588235%)" fill-opacity="1" stroke-width="1" stroke-linecap="butt" stroke-linejoin="miter" stroke="rgb(12.156863%, 47.058824%, 70.588235%)" stroke-opacity="1" stroke-miterlimit="10" d="M 429.25 382.480469 C 429.25 386.148438 423.75 386.148438 423.75 382.480469 C 423.75 378.816406 429.25 378.816406 429.25 382.480469 "/>
<path fill-rule="nonzero" fill="rgb(70.196078%, 70.196078%, 70.196078%)" fill-opacity="1" stroke-width="1" stroke-linecap="butt" stroke-linejoin="miter" stroke="rgb(70.196078%, 70.196078%, 70.196078%)" stroke-opacity="1" stroke-miterlimit="10" d="M 526.390625 450.769531 C 526.390625 457.234375 516.6875 457.234375 516.6875 450.769531 C 516.6875 444.300781 526.390625 444.300781 526.390625 450.769531 "/>
<path fill-rule="nonzero" fill="rgb(70.196078%, 70.196078%, 70.196078%)" fill-opacity="1" stroke-width="1" stroke-linecap="butt" stroke-linejoin="miter" stroke="rgb(70.196078%, 70.196078%, 70.196078%)" stroke-opacity="1" stroke-miterlimit="10" d="M 327.835938 477.015625 C 327.835938 483.480469 318.136719 483.480469 318.136719 477.015625 C 318.136719 470.546875 327.835938 470.546875 327.835938 477.015625 "/>
<path fill-rule="nonzero" fill="rgb(99.215686%, 74.901961%, 43.529412%)" fill-opacity="1" stroke-width="1" stroke-linecap="butt" stroke-linejoin="miter" stroke="rgb(99.215686%, 74.901961%, 43.529412%)" stroke-opacity="1" stroke-miterlimit="10" d="M 388.253906 732.269531 C 388.253906 735.9375 382.753906 735.9375 382.753906 732.269531 C 382.753906 728.605469 388.253906 728.605469 388.253906 732.269531 "/>
<path fill-rule="nonzero" fill="rgb(70.196078%, 70.196078%, 70.196078%)" fill-opacity="1" stroke-width="1" stroke-linecap="butt" stroke-linejoin="miter" stroke="rgb(70.196078%, 70.196078%, 70.196078%)" stroke-opacity="1" stroke-miterlimit="10" d="M 274.035156 686.21875 C 274.035156 693.355469 263.335938 693.355469 263.335938 686.21875 C 263.335938 679.085938 274.035156 679.085938 274.035156 686.21875 "/>
<path fill-rule="nonzero" fill="rgb(70.196078%, 70.196078%, 70.196078%)" fill-opacity="1" stroke-width="1" stroke-linecap="butt" stroke-linejoin="miter" stroke="rgb(70.196078%, 70.196078%, 70.196078%)" stroke-opacity="1" stroke-miterlimit="10" d="M 418.472656 545.078125 C 418.472656 551.542969 408.773438 551.542969 408.773438 545.078125 C 408.773438 538.613281 418.472656 538.613281 418.472656 545.078125 "/>
<path fill-rule="nonzero" fill="rgb(70.196078%, 70.196078%, 70.196078%)" fill-opacity="1" stroke-width="1" stroke-linecap="butt" stroke-linejoin="miter" stroke="rgb(70.196078%, 70.196078%, 70.196078%)" stroke-opacity="1" stroke-miterlimit="10" d="M 225.464844 473.566406 C 225.464844 480.699219 214.765625 480.699219 214.765625 473.566406 C 214.765625 466.433594 225.464844 466.433594 225.464844 473.566406 "/>
<path fill-rule="nonzero" fill="rgb(100%, 84.313725%, 0%)" fill-opacity="1" stroke-width="1" stroke-linecap="butt" stroke-linejoin="miter" stroke="rgb(100%, 84.313725%, 0%)" stroke-opacity="1" stroke-miterlimit="10" d="M 192.761719 579.496094 L 203.460938 579.496094 L 203.460938 590.195312 L 192.761719 590.195312 Z M 192.761719 579.496094 "/>
<path fill-rule="nonzero" fill="rgb(30.196078%, 68.627451%, 29.019608%)" fill-opacity="1" stroke-width="1" stroke-linecap="butt" stroke-linejoin="miter" stroke="rgb(30.196078%, 68.627451%, 29.019608%)" stroke-opacity="1" stroke-miterlimit="10" d="M 317.722656 603.0625 C 317.722656 606.726562 312.222656 606.726562 312.222656 603.0625 C 312.222656 599.394531 317.722656 599.394531 317.722656 603.0625 "/>
</svg>
