<?xml version="1.0" encoding="UTF-8"?>
<svg xmlns="http://www.w3.org/2000/svg" xmlns:xlink="http://www.w3.org/1999/xlink" width="800" height="800" viewBox="0 0 800 800">
<rect x="-80" y="-80" width="960" height="960" fill="rgb(100%, 100%, 100%)" fill-opacity="1"/>
<path fill="none" stroke-width="1.5" stroke-linecap="butt" stroke-linejoin="miter" stroke="rgb(41.568627%, 23.921569%, 60.392157%)" stroke-opacity="1" stroke-miterlimit="10" d="M 251.542969 142.890625 C 284.625 144.269531 313.558594 133.847656 335.621094 109.1875 "/>
<path fill-rule="nonzero" fill="rgb(41.568627%, 23.921569%, 60.392157%)" fill-opacity="1" d="M 340.378906 103.871094 L 337.347656 110.734375 L 333.894531 107.644531 L 340.378906 103.871094 "/>
<path fill="none" stroke-width="3.5" stroke-linecap="butt" stroke-linejoin="miter" stroke="rgb(70.196078%, 70.196078%, 70.196078%)" stroke-opacity="1" stroke-miterlimit="10" d="M 251.542969 142.890625 C 272.148438 120.886719 282.226562 94.71875 278.246094 64.859375 "/>
<path fill-rule="nonzero" fill="rgb(70.196078%, 70.196078%, 70.196078%)" fill-opacity="1" d="M 277.304688 57.789062 L 280.542969 64.550781 L 275.949219 65.164062 L 277.304688 57.789062 "/>
<path fill="none" stroke-width="1.5" stroke-linecap="butt" stroke-linejoin="miter" stroke="rgb(98.431373%, 60.392157%, 60%)" stroke-opacity="1" stroke-miterlimit="10" d="M 251.542969 142.890625 C 249.859375 196.46875 267.746094 242.5 307.492188 278.449219 "/>
<path fill-rule="nonzero" fill="rgb(98.431373%, 60.392157%, 60%)" fill-opacity="1" d="M 312.785156 283.234375 L 305.9375 280.167969 L 309.046875 276.730469 L 312.785156 283.234375 "/>
<path fill="none" stroke-width="1.5" stroke-linecap="butt" stroke-linejoin="miter" stroke="rgb(41.568627%, 23.921569%, 60.392157%)" stroke-opacity="1" stroke-miterlimit="10" d="M 344.71875 99.019531 C 311.636719 97.644531 282.703125 108.066406 260.636719 132.722656 "/>
<path fill-rule="nonzero" fill="rgb(41.568627%, 23.921569%, 60.392157%)" fill-opacity="1" d="M 255.882812 138.039062 L 258.910156 131.179688 L 262.367188 134.269531 L 255.882812 138.039062 "/>
<path fill="none" stroke-width="1.5" stroke-linecap="butt" stroke-linejoin="miter" stroke="rgb(98.431373%, 60.392157%, 60%)" stroke-opacity="1" stroke-miterlimit="10" d="M 344.71875 99.019531 C 347.453125 128.886719 360.269531 153.636719 385.074219 170.457031 "/>
<path fill-rule="nonzero" fill="rgb(98.431373%, 60.392157%, 60%)" fill-opacity="1" d="M 390.976562 174.460938 L 383.773438 172.375 L 386.375 168.539062 L 390.976562 174.460938 "/>
<path fill="none" stroke-width="1.5" stroke-linecap="butt" stroke-linejoin="miter" stroke="rgb(41.568627%, 23.921569%, 60.392157%)" stroke-opacity="1" stroke-miterlimit="10" d="M 344.71875 99.019531 C 332.601562 75.972656 314.132812 60.171875 288.617188 55.117188 "/>
<path fill-rule="nonzero" fill="rgb(41.568627%, 23.921569%, 60.392157%)" fill-opacity="1" d="M 281.621094 53.730469 L 289.066406 52.84375 L 288.167969 57.390625 L 281.621094 53.730469 "/>
<path fill="none" stroke-width="2.5" stroke-linecap="butt" stroke-linejoin="miter" stroke="rgb(70.196078%, 70.196078%, 70.196078%)" stroke-opacity="1" stroke-miterlimit="10" d="M 465.613281 301.273438 C 476.167969 323.082031 492.84375 338.414062 516.429688 343.835938 "/>
<path fill-rule="nonzero" fill="rgb(70.196078%, 70.196078%, 70.196078%)" fill-opacity="1" d="M 523.378906 345.433594 L 515.910156 346.09375 L 516.945312 341.578125 L 523.378906 345.433594 "/>
<path fill="none" stroke-width="1.5" stroke-linecap="butt" stroke-linejoin="miter" stroke="rgb(98.431373%, 60.392157%, 60%)" stroke-opacity="1" stroke-miterlimit="10" d="M 465.613281 301.273438 C 520.863281 286.558594 562.335938 254.144531 586.929688 202.542969 "/>
<path fill-rule="nonzero" fill="rgb(98.431373%, 60.392157%, 60%)" fill-opacity="1" d="M 590 196.101562 L 589.023438 203.539062 L 584.839844 201.546875 L 590 196.101562 "/>
<path fill="none" stroke-width="1.5" stroke-linecap="butt" stroke-linejoin="miter" stroke="rgb(12.156863%, 47.058824%, 70.588235%)" stroke-opacity="1" stroke-miterlimit="10" d="M 465.613281 301.273438 C 499.234375 286.132812 522.683594 261.28125 532.488281 225.757812 "/>
<path fill-rule="nonzero" fill="rgb(12.156863%, 47.058824%, 70.588235%)" fill-opacity="1" d="M 534.386719 218.882812 L 534.722656 226.375 L 530.253906 225.140625 L 534.386719 218.882812 "/>
<path fill="none" stroke-width="1.5" stroke-linecap="butt" stroke-linejoin="miter" stroke="rgb(98.431373%, 60.392157%, 60%)" stroke-opacity="1" stroke-miterlimit="10" d="M 465.613281 301.273438 C 515.050781 261.058594 542.246094 209.144531 543.800781 145.449219 "/>
<path fill-rule="nonzero" fill="rgb(98.431373%, 60.392157%, 60%)" fill-opacity="1" d="M 543.976562 138.316406 L 546.117188 145.503906 L 541.484375 145.390625 L 543.976562 138.316406 "/>
<path fill="none" stroke-width="2.5" stroke-linecap="butt" stroke-linejoin="miter" stroke="rgb(70.196078%, 70.196078%, 70.196078%)" stroke-opacity="1" stroke-miterlimit="10" d="M 527.875 346.464844 C 518.238281 325.460938 502.664062 310.394531 480.253906 304.878906 "/>
<path fill-rule="nonzero" fill="rgb(70.196078%, 70.196078%, 70.196078%)" fill-opacity="1" d="M 473.328125 303.171875 L 480.808594 302.625 L 479.699219 307.128906 L 473.328125 303.171875 "/>
<path fill="none" stroke-width="1.5" stroke-linecap="butt" stroke-linejoin="miter" stroke="rgb(12.156863%, 47.058824%, 70.588235%)" stroke-opacity="1" stroke-miterlimit="10" d="M 163.070312 267.429688 C 170.394531 295.734375 186.605469 317.5625 213.121094 329.820312 "/>
<path fill-rule="nonzero" fill="rgb(12.156863%, 47.058824%, 70.588235%)" fill-opacity="1" d="M 219.597656 332.816406 L 212.148438 331.925781 L 214.09375 327.71875 L 219.597656 332.816406 "/>
<path fill="none" stroke-width="1.5" stroke-linecap="butt" stroke-linejoin="miter" stroke="rgb(98.431373%, 60.392157%, 60%)" stroke-opacity="1" stroke-miterlimit="10" d="M 393.148438 175.9375 C 395.914062 223.914062 415.425781 263.777344 453.914062 292.53125 "/>
<path fill-rule="nonzero" fill="rgb(98.431373%, 60.392157%, 60%)" fill-opacity="1" d="M 459.625 296.800781 L 452.523438 294.386719 L 455.300781 290.675781 L 459.625 296.800781 "/>
<path fill="none" stroke-width="5.5" stroke-linecap="butt" stroke-linejoin="miter" stroke="rgb(70.196078%, 70.196078%, 70.196078%)" stroke-opacity="1" stroke-miterlimit="10" d="M 750 250.507812 C 679.183594 295.945312 636.128906 360.070312 624.34375 443.375 "/>
<path fill-rule="nonzero" fill="rgb(70.196078%, 70.196078%, 70.196078%)" fill-opacity="1" d="M 623.34375 450.4375 L 622.050781 443.050781 L 626.640625 443.699219 L 623.34375 450.4375 "/>
<path fill="none" stroke-width="5.5" stroke-linecap="butt" stroke-linejoin="miter" stroke="rgb(70.196078%, 70.196078%, 70.196078%)" stroke-opacity="1" stroke-miterlimit="10" d="M 379.492188 641.988281 C 409.5 631.609375 431.675781 612.160156 442.707031 582.410156 "/>
<path fill-rule="nonzero" fill="rgb(70.196078%, 70.196078%, 70.196078%)" fill-opacity="1" d="M 445.1875 575.722656 L 444.878906 583.21875 L 440.535156 581.605469 L 445.1875 575.722656 "/>
<path fill="none" stroke-width="2.5" stroke-linecap="butt" stroke-linejoin="miter" stroke="rgb(70.196078%, 70.196078%, 70.196078%)" stroke-opacity="1" stroke-miterlimit="10" d="M 276.632812 52.742188 C 256.253906 74.101562 246.089844 99.644531 249.777344 128.90625 "/>
<path fill-rule="nonzero" fill="rgb(70.196078%, 70.196078%, 70.196078%)" fill-opacity="1" d="M 250.671875 135.980469 L 247.476562 129.195312 L 252.078125 128.617188 L 250.671875 135.980469 "/>
<path fill="none" stroke-width="2.5" stroke-linecap="butt" stroke-linejoin="miter" stroke="rgb(41.568627%, 23.921569%, 60.392157%)" stroke-opacity="1" stroke-miterlimit="10" d="M 276.632812 52.742188 C 288.214844 75.363281 306.066406 91.035156 330.925781 96.171875 "/>
<path fill-rule="nonzero" fill="rgb(41.568627%, 23.921569%, 60.392157%)" fill-opacity="1" d="M 337.910156 97.613281 L 330.453125 98.441406 L 331.394531 93.902344 L 337.910156 97.613281 "/>
<path fill="none" stroke-width="1.5" stroke-linecap="butt" stroke-linejoin="miter" stroke="rgb(98.431373%, 60.392157%, 60%)" stroke-opacity="1" stroke-miterlimit="10" d="M 591.335938 193.296875 C 527.929688 126.703125 450.214844 93.828125 358.382812 98.347656 "/>
<path fill-rule="nonzero" fill="rgb(98.431373%, 60.392157%, 60%)" fill-opacity="1" d="M 351.257812 98.699219 L 358.269531 96.035156 L 358.496094 100.664062 L 351.257812 98.699219 "/>
<path fill="none" stroke-width="1.5" stroke-linecap="butt" stroke-linejoin="miter" stroke="rgb(98.431373%, 60.392157%, 60%)" stroke-opacity="1" stroke-miterlimit="10" d="M 591.335938 193.296875 C 574.355469 190.238281 558.285156 193.167969 545.539062 204.734375 "/>
<path fill-rule="nonzero" fill="rgb(98.431373%, 60.392157%, 60%)" fill-opacity="1" d="M 540.257812 209.53125 L 543.980469 203.019531 L 547.097656 206.453125 L 540.257812 209.53125 "/>
<path fill="none" stroke-width="1.5" stroke-linecap="butt" stroke-linejoin="miter" stroke="rgb(98.431373%, 60.392157%, 60%)" stroke-opacity="1" stroke-miterlimit="10" d="M 535.871094 213.511719 C 502.847656 228 479.601562 252.066406 469.746094 286.730469 "/>
<path fill-rule="nonzero" fill="rgb(98.431373%, 60.392157%, 60%)" fill-opacity="1" d="M 467.796875 293.59375 L 467.519531 286.097656 L 471.976562 287.367188 L 467.796875 293.59375 "/>
<path fill="none" stroke-width="1.5" stroke-linecap="butt" stroke-linejoin="miter" stroke="rgb(98.431373%, 60.392157%, 60%)" stroke-opacity="1" stroke-miterlimit="10" d="M 535.871094 213.511719 C 553.855469 216.308594 570.644531 212.738281 583.882812 200.296875 "/>
<path fill-rule="nonzero" fill="rgb(98.431373%, 60.392157%, 60%)" fill-opacity="1" d="M 589.082031 195.414062 L 585.472656 201.988281 L 582.296875 198.609375 L 589.082031 195.414062 "/>
<path fill="none" stroke-width="1.5" stroke-linecap="butt" stroke-linejoin="miter" stroke="rgb(12.156863%, 47.058824%, 70.588235%)" stroke-opacity="1" stroke-miterlimit="10" d="M 535.871094 213.511719 C 556.050781 246.832031 585.128906 268.121094 623.625 273.984375 "/>
<path fill-rule="nonzero" fill="rgb(12.156863%, 47.058824%, 70.588235%)" fill-opacity="1" d="M 630.675781 275.058594 L 623.277344 276.277344 L 623.972656 271.695312 L 630.675781 275.058594 "/>
<path fill="none" stroke-width="1.5" stroke-linecap="butt" stroke-linejoin="miter" stroke="rgb(12.156863%, 47.058824%, 70.588235%)" stroke-opacity="1" stroke-miterlimit="10" d="M 683.042969 220.617188 C 660.914062 228.78125 644.480469 243.484375 636.996094 265.824219 "/>
<path fill-rule="nonzero" fill="rgb(12.156863%, 47.058824%, 70.588235%)" fill-opacity="1" d="M 634.730469 272.589844 L 634.800781 265.089844 L 639.195312 266.5625 L 634.730469 272.589844 "/>
<path fill="none" stroke-width="1.5" stroke-linecap="butt" stroke-linejoin="miter" stroke="rgb(98.431373%, 60.392157%, 60%)" stroke-opacity="1" stroke-miterlimit="10" d="M 314.734375 285 C 357.289062 312.394531 403.292969 320.4375 451.648438 305.566406 "/>
<path fill-rule="nonzero" fill="rgb(98.431373%, 60.392157%, 60%)" fill-opacity="1" d="M 458.46875 303.46875 L 452.332031 307.78125 L 450.96875 303.351562 L 458.46875 303.46875 "/>
<path fill="none" stroke-width="1.5" stroke-linecap="butt" stroke-linejoin="miter" stroke="rgb(12.156863%, 47.058824%, 70.588235%)" stroke-opacity="1" stroke-miterlimit="10" d="M 644.050781 365.476562 C 621.144531 427.492188 624.3125 488.195312 656.53125 545.914062 "/>
<path fill-rule="nonzero" fill="rgb(12.156863%, 47.058824%, 70.588235%)" fill-opacity="1" d="M 660.007812 552.144531 L 654.507812 547.046875 L 658.554688 544.785156 L 660.007812 552.144531 "/>
<path fill="none" stroke-width="4.5" stroke-linecap="butt" stroke-linejoin="miter" stroke="rgb(70.196078%, 70.196078%, 70.196078%)" stroke-opacity="1" stroke-miterlimit="10" d="M 50 296.1875 C 136.167969 278.3125 202.210938 231.796875 244.902344 154.851562 "/>
<path fill-rule="nonzero" fill="rgb(70.196078%, 70.196078%, 70.196078%)" fill-opacity="1" d="M 248.363281 148.613281 L 246.929688 155.976562 L 242.878906 153.726562 L 248.363281 148.613281 "/>
<path fill="none" stroke-width="1.5" stroke-linecap="butt" stroke-linejoin="miter" stroke="rgb(12.156863%, 47.058824%, 70.588235%)" stroke-opacity="1" stroke-miterlimit="10" d="M 50 296.1875 C 67.144531 304.433594 84.992188 305.890625 102.035156 297.511719 "/>
<path fill-rule="nonzero" fill="rgb(12.156863%, 47.058824%, 70.588235%)" fill-opacity="1" d="M 108.4375 294.363281 L 103.058594 299.59375 L 101.011719 295.433594 L 108.4375 294.363281 "/>
<path fill="none" stroke-width="1.5" stroke-linecap="butt" stroke-linejoin="miter" stroke="rgb(12.156863%, 47.058824%, 70.588235%)" stroke-opacity="1" stroke-miterlimit="10" d="M 383.84375 264.695312 C 400.652344 286.742188 422.839844 300.035156 450.523438 300.835938 "/>
<path fill-rule="nonzero" fill="rgb(12.156863%, 47.058824%, 70.588235%)" fill-opacity="1" d="M 457.65625 301.042969 L 450.457031 303.152344 L 450.589844 298.519531 L 457.65625 301.042969 "/>
<path fill="none" stroke-width="1.5" stroke-linecap="butt" stroke-linejoin="miter" stroke="rgb(12.156863%, 47.058824%, 70.588235%)" stroke-opacity="1" stroke-miterlimit="10" d="M 110.789062 293.207031 C 128.863281 293.984375 145.042969 288.601562 156.746094 274.855469 "/>
<path fill-rule="nonzero" fill="rgb(12.156863%, 47.058824%, 70.588235%)" fill-opacity="1" d="M 161.371094 269.425781 L 158.511719 276.359375 L 154.984375 273.351562 L 161.371094 269.425781 "/>
<path fill="none" stroke-width="5.5" stroke-linecap="butt" stroke-linejoin="miter" stroke="rgb(70.196078%, 70.196078%, 70.196078%)" stroke-opacity="1" stroke-miterlimit="10" d="M 575.878906 50 C 601.039062 139.6875 655.023438 205.925781 739.339844 245.503906 "/>
<path fill-rule="nonzero" fill="rgb(70.196078%, 70.196078%, 70.196078%)" fill-opacity="1" d="M 745.796875 248.535156 L 738.355469 247.601562 L 740.328125 243.40625 L 745.796875 248.535156 "/>
<path fill="none" stroke-width="5.5" stroke-linecap="butt" stroke-linejoin="miter" stroke="rgb(70.196078%, 70.196078%, 70.196078%)" stroke-opacity="1" stroke-miterlimit="10" d="M 501.445312 487.113281 C 539.777344 387.332031 535.355469 289.453125 485.050781 195.144531 "/>
<path fill-rule="nonzero" fill="rgb(70.196078%, 70.196078%, 70.196078%)" fill-opacity="1" d="M 481.695312 188.851562 L 487.097656 194.054688 L 483.007812 196.238281 L 481.695312 188.851562 "/>
<path fill="none" stroke-width="5.5" stroke-linecap="butt" stroke-linejoin="miter" stroke="rgb(70.196078%, 70.196078%, 70.196078%)" stroke-opacity="1" stroke-miterlimit="10" d="M 72.867188 740.859375 C 94.980469 743.058594 115.039062 737.433594 130.511719 721.519531 "/>
<path fill-rule="nonzero" fill="rgb(70.196078%, 70.196078%, 70.196078%)" fill-opacity="1" d="M 135.484375 716.40625 L 132.175781 723.136719 L 128.851562 719.90625 L 135.484375 716.40625 "/>
<path fill="none" stroke-width="1.5" stroke-linecap="butt" stroke-linejoin="miter" stroke="rgb(98.431373%, 60.392157%, 60%)" stroke-opacity="1" stroke-miterlimit="10" d="M 544.039062 135.6875 C 530.269531 155.664062 525.140625 177.773438 532.109375 200.984375 "/>
<path fill-rule="nonzero" fill="rgb(98.431373%, 60.392157%, 60%)" fill-opacity="1" d="M 534.160156 207.816406 L 529.890625 201.652344 L 534.328125 200.320312 L 534.160156 207.816406 "/>
<path fill="none" stroke-width="1.5" stroke-linecap="butt" stroke-linejoin="miter" stroke="rgb(12.156863%, 47.058824%, 70.588235%)" stroke-opacity="1" stroke-miterlimit="10" d="M 221.980469 333.917969 C 238.554688 356.699219 260.796875 370.574219 288.902344 372.144531 "/>
<path fill-rule="nonzero" fill="rgb(12.156863%, 47.058824%, 70.588235%)" fill-opacity="1" d="M 296.023438 372.542969 L 288.773438 374.460938 L 289.03125 369.832031 L 296.023438 372.542969 "/>
<path fill="none" stroke-width="1.5" stroke-linecap="butt" stroke-linejoin="miter" stroke="rgb(12.156863%, 47.058824%, 70.588235%)" stroke-opacity="1" stroke-miterlimit="10" d="M 633.746094 275.527344 C 656 267.242188 672.480469 252.382812 679.964844 229.878906 "/>
<path fill-rule="nonzero" fill="rgb(12.156863%, 47.058824%, 70.588235%)" fill-opacity="1" d="M 682.214844 223.109375 L 682.164062 230.609375 L 677.765625 229.144531 L 682.214844 223.109375 "/>
<path fill="none" stroke-width="1.5" stroke-linecap="butt" stroke-linejoin="miter" stroke="rgb(12.156863%, 47.058824%, 70.588235%)" stroke-opacity="1" stroke-miterlimit="10" d="M 633.746094 275.527344 C 623.320312 303.507812 624.136719 331.246094 639.144531 357.039062 "/>
<path fill-rule="nonzero" fill="rgb(12.156863%, 47.058824%, 70.588235%)" fill-opacity="1" d="M 642.730469 363.203125 L 637.140625 358.203125 L 641.148438 355.875 L 642.730469 363.203125 "/>
<path fill="none" stroke-width="1.5" stroke-linecap="butt" stroke-linejoin="miter" stroke="rgb(12.156863%, 47.058824%, 70.588235%)" stroke-opacity="1" stroke-miterlimit="10" d="M 616.132812 675.429688 C 595.660156 691.816406 583.613281 713.097656 583.457031 739.292969 "/>
<path fill-rule="nonzero" fill="rgb(12.156863%, 47.058824%, 70.588235%)" fill-opacity="1" d="M 583.414062 746.425781 L 581.140625 739.277344 L 585.777344 739.308594 L 583.414062 746.425781 "/>
<path fill="none" stroke-width="1.5" stroke-linecap="butt" stroke-linejoin="miter" stroke="rgb(12.156863%, 47.058824%, 70.588235%)" stroke-opacity="1" stroke-miterlimit="10" d="M 661.289062 554.441406 C 629.359375 584.664062 612.984375 621.808594 615.558594 665.679688 "/>
<path fill-rule="nonzero" fill="rgb(12.156863%, 47.058824%, 70.588235%)" fill-opacity="1" d="M 615.976562 672.800781 L 613.246094 665.816406 L 617.875 665.546875 L 615.976562 672.800781 "/>
<path fill="none" stroke-width="1.5" stroke-linecap="butt" stroke-linejoin="miter" stroke="rgb(12.156863%, 47.058824%, 70.588235%)" stroke-opacity="1" stroke-miterlimit="10" d="M 298.648438 372.691406 C 341.015625 352.257812 369.703125 319.695312 381.414062 274.152344 "/>
<path fill-rule="nonzero" fill="rgb(12.156863%, 47.058824%, 70.588235%)" fill-opacity="1" d="M 383.191406 267.242188 L 383.660156 274.726562 L 379.167969 273.574219 L 383.191406 267.242188 "/>
<path fill="none" stroke-width="5.5" stroke-linecap="butt" stroke-linejoin="miter" stroke="rgb(70.196078%, 70.196078%, 70.196078%)" stroke-opacity="1" stroke-miterlimit="10" d="M 622.695312 455.03125 C 529.273438 409.613281 434.117188 405.714844 338.632812 446.605469 "/>
<path fill-rule="nonzero" fill="rgb(70.196078%, 70.196078%, 70.196078%)" fill-opacity="1" d="M 332.078125 449.410156 L 337.722656 444.472656 L 339.546875 448.734375 L 332.078125 449.410156 "/>
<path fill="none" stroke-width="5.5" stroke-linecap="butt" stroke-linejoin="miter" stroke="rgb(70.196078%, 70.196078%, 70.196078%)" stroke-opacity="1" stroke-miterlimit="10" d="M 327.808594 451.238281 C 262.210938 360 173.625 307.496094 61.726562 297.261719 "/>
<path fill-rule="nonzero" fill="rgb(70.196078%, 70.196078%, 70.196078%)" fill-opacity="1" d="M 54.625 296.609375 L 61.9375 294.953125 L 61.515625 299.566406 L 54.625 296.609375 "/>
<path fill="none" stroke-width="5.5" stroke-linecap="butt" stroke-linejoin="miter" stroke="rgb(70.196078%, 70.196078%, 70.196078%)" stroke-opacity="1" stroke-miterlimit="10" d="M 297.34375 684.496094 C 327.253906 684.554688 353.058594 674.160156 372.03125 651.066406 "/>
<path fill-rule="nonzero" fill="rgb(70.196078%, 70.196078%, 70.196078%)" fill-opacity="1" d="M 376.558594 645.554688 L 373.820312 652.539062 L 370.242188 649.597656 L 376.558594 645.554688 "/>
<path fill="none" stroke-width="5.5" stroke-linecap="butt" stroke-linejoin="miter" stroke="rgb(70.196078%, 70.196078%, 70.196078%)" stroke-opacity="1" stroke-miterlimit="10" d="M 479.507812 184.757812 C 529.308594 157.765625 561.78125 116.929688 573.453125 61.515625 "/>
<path fill-rule="nonzero" fill="rgb(70.196078%, 70.196078%, 70.196078%)" fill-opacity="1" d="M 574.921875 54.535156 L 575.722656 61.992188 L 571.183594 61.035156 L 574.921875 54.535156 "/>
<path fill="none" stroke-width="5.5" stroke-linecap="butt" stroke-linejoin="miter" stroke="rgb(70.196078%, 70.196078%, 70.196078%)" stroke-opacity="1" stroke-miterlimit="10" d="M 446.792969 571.390625 C 475.257812 555.0625 493.980469 531.03125 499.476562 498.703125 "/>
<path fill-rule="nonzero" fill="rgb(70.196078%, 70.196078%, 70.196078%)" fill-opacity="1" d="M 500.671875 491.671875 L 501.757812 499.089844 L 497.191406 498.3125 L 500.671875 491.671875 "/>
<path fill="none" stroke-width="5.5" stroke-linecap="butt" stroke-linejoin="miter" stroke="rgb(70.196078%, 70.196078%, 70.196078%)" stroke-opacity="1" stroke-miterlimit="10" d="M 138.699219 713.101562 C 162.136719 725.117188 186.597656 727.410156 210.65625 716.761719 "/>
<path fill-rule="nonzero" fill="rgb(70.196078%, 70.196078%, 70.196078%)" fill-opacity="1" d="M 217.179688 713.875 L 211.59375 718.882812 L 209.71875 714.640625 L 217.179688 713.875 "/>
<path fill="none" stroke-width="5.5" stroke-linecap="butt" stroke-linejoin="miter" stroke="rgb(70.196078%, 70.196078%, 70.196078%)" stroke-opacity="1" stroke-miterlimit="10" d="M 221.398438 712.007812 C 246.773438 715.609375 270.03125 709.972656 288.753906 692.507812 "/>
<path fill-rule="nonzero" fill="rgb(70.196078%, 70.196078%, 70.196078%)" fill-opacity="1" d="M 293.972656 687.644531 L 290.335938 694.203125 L 287.175781 690.8125 L 293.972656 687.644531 "/>
<path fill-rule="nonzero" fill="rgb(14.901961%, 14.901961%, 14.901961%)" fill-opacity="1" stroke-width="1" stroke-linecap="butt" stroke-linejoin="miter" stroke="rgb(14.901961%, 14.901961%, 14.901961%)" stroke-opacity="1" stroke-miterlimit="10" d="M 244.691406 149.742188 L 251.542969 136.039062 L 258.390625 149.742188 Z M 244.691406 149.742188 "/>
<path fill-rule="nonzero" fill="rgb(14.901961%, 14.901961%, 14.901961%)" fill-opacity="1" stroke-width="1" stroke-linecap="butt" stroke-linejoin="miter" stroke="rgb(14.901961%, 14.901961%, 14.901961%)" stroke-opacity="1" stroke-miterlimit="10" d="M 337.867188 105.871094 L 344.71875 92.171875 L 351.566406 105.871094 Z M 337.867188 105.871094 "/>
<path fill-rule="nonzero" fill="rgb(14.901961%, 14.901961%, 14.901961%)" fill-opacity="1" stroke-width="1" stroke-linecap="butt" stroke-linejoin="miter" stroke="rgb(14.901961%, 14.901961%, 14.901961%)" stroke-opacity="1" stroke-miterlimit="10" d="M 457.761719 309.121094 L 465.613281 293.421875 L 473.464844 309.121094 Z M 457.761719 309.121094 "/>
<path fill-rule="nonzero" fill="rgb(70.196078%, 70.196078%, 70.196078%)" fill-opacity="1" stroke-width="1" stroke-linecap="butt" stroke-linejoin="miter" stroke="rgb(70.196078%, 70.196078%, 70.196078%)" stroke-opacity="1" stroke-miterlimit="10" d="M 532.722656 346.464844 C 532.722656 352.933594 523.023438 352.933594 523.023438 346.464844 C 523.023438 340 532.722656 340 532.722656 346.464844 "/>
<path fill-rule="nonzero" fill="rgb(12.156863%, 47.058824%, 70.588235%)" fill-opacity="1" stroke-width="1" stroke-linecap="butt" stroke-linejoin="miter" stroke="rgb(12.156863%, 47.058824%, 70.588235%)" stroke-opacity="1" stroke-miterlimit="10" d="M 165.820312 267.429688 C 165.820312 271.097656 160.320312 271.097656 160.320312 267.429688 C 160.320312 263.761719 165.820312 263.761719 165.820312 267.429688 "/>
<path fill-rule="nonzero" fill="rgb(98.431373%, 60.392157%, 60%)" fill-opacity="1" stroke-width="1" stroke-linecap="butt" stroke-linejoin="miter" stroke="rgb(98.431373%, 60.392157%, 60%)" stroke-opacity="1" stroke-miterlimit="10" d="M 395.898438 175.9375 C 395.898438 179.601562 390.398438 179.601562 390.398438 175.9375 C 390.398438 172.269531 395.898438 172.269531 395.898438 175.9375 "/>
<path fill-rule="nonzero" fill="rgb(70.196078%, 70.196078%, 70.196078%)" fill-opacity="1" stroke-width="1" stroke-linecap="butt" stroke-linejoin="miter" stroke="rgb(70.196078%, 70.196078%, 70.196078%)" stroke-opacity="1" stroke-miterlimit="10" d="M 754.851562 250.507812 C 754.851562 256.972656 745.148438 256.972656 745.148438 250.507812 C 745.148438 244.039062 754.851562 244.039062 754.851562 250.507812 "/>
<path fill-rule="nonzero" fill="rgb(70.196078%, 70.196078%, 70.196078%)" fill-opacity="1" stroke-width="1" stroke-linecap="butt" stroke-linejoin="miter" stroke="rgb(70.196078%, 70.196078%, 70.196078%)" stroke-opacity="1" stroke-miterlimit="10" d="M 384.339844 641.988281 C 384.339844 648.453125 374.640625 648.453125 374.640625 641.988281 C 374.640625 635.519531 384.339844 635.519531 384.339844 641.988281 "/>
<path fill-rule="nonzero" fill="rgb(70.196078%, 70.196078%, 70.196078%)" fill-opacity="1" stroke-width="1" stroke-linecap="butt" stroke-linejoin="miter" stroke="rgb(70.196078%, 70.196078%, 70.196078%)" stroke-opacity="1" stroke-miterlimit="10" d="M 281.980469 52.742188 C 281.980469 59.875 271.28125 59.875 271.28125 52.742188 C 271.28125 45.609375 281.980469 45.609375 281.980469 52.742188 "/>
<path fill-rule="nonzero" fill="rgb(98.431373%, 60.392157%, 60%)" fill-opacity="1" stroke-width="1" stroke-linecap="butt" stroke-linejoin="miter" stroke="rgb(98.431373%, 60.392157%, 60%)" stroke-opacity="1" stroke-miterlimit="10" d="M 594.585938 193.296875 C 594.585938 197.628906 588.085938 197.628906 588.085938 193.296875 C 588.085938 188.964844 594.585938 188.964844 594.585938 193.296875 "/>
<path fill-rule="nonzero" fill="rgb(70.196078%, 70.196078%, 70.196078%)" fill-opacity="1" stroke-width="1" stroke-linecap="butt" stroke-linejoin="miter" stroke="rgb(70.196078%, 70.196078%, 70.196078%)" stroke-opacity="1" stroke-miterlimit="10" d="M 541.71875 213.511719 C 541.71875 216.742188 539.101562 219.359375 535.871094 219.359375 C 532.640625 219.359375 530.019531 216.742188 530.019531 213.511719 C 530.019531 210.28125 532.640625 207.660156 535.871094 207.660156 C 539.101562 207.660156 541.71875 210.28125 541.71875 213.511719 "/>
<path fill-rule="nonzero" fill="rgb(12.156863%, 47.058824%, 70.588235%)" fill-opacity="1" stroke-width="1" stroke-linecap="butt" stroke-linejoin="miter" stroke="rgb(12.156863%, 47.058824%, 70.588235%)" stroke-opacity="1" stroke-miterlimit="10" d="M 685.792969 220.617188 C 685.792969 224.285156 680.292969 224.285156 680.292969 220.617188 C 680.292969 216.953125 685.792969 216.953125 685.792969 220.617188 "/>
<path fill-rule="nonzero" fill="rgb(98.431373%, 60.392157%, 60%)" fill-opacity="1" stroke-width="1" stroke-linecap="butt" stroke-linejoin="miter" stroke="rgb(98.431373%, 60.392157%, 60%)" stroke-opacity="1" stroke-miterlimit="10" d="M 317.484375 285 C 317.484375 288.667969 311.984375 288.667969 311.984375 285 C 311.984375 281.335938 317.484375 281.335938 317.484375 285 "/>
<path fill-rule="nonzero" fill="rgb(12.156863%, 47.058824%, 70.588235%)" fill-opacity="1" stroke-width="1" stroke-linecap="butt" stroke-linejoin="miter" stroke="rgb(12.156863%, 47.058824%, 70.588235%)" stroke-opacity="1" stroke-miterlimit="10" d="M 646.800781 365.476562 C 646.800781 369.140625 641.300781 369.140625 641.300781 365.476562 C 641.300781 361.808594 646.800781 361.808594 646.800781 365.476562 "/>
<path fill-rule="nonzero" fill="rgb(70.196078%, 70.196078%, 70.196078%)" fill-opacity="1" stroke-width="1" stroke-linecap="butt" stroke-linejoin="miter" stroke="rgb(70.196078%, 70.196078%, 70.196078%)" stroke-opacity="1" stroke-miterlimit="10" d="M 54.851562 296.1875 C 54.851562 302.65625 45.148438 302.65625 45.148438 296.1875 C 45.148438 289.722656 54.851562 289.722656 54.851562 296.1875 "/>
<path fill-rule="nonzero" fill="rgb(12.156863%, 47.058824%, 70.588235%)" fill-opacity="1" stroke-width="1" stroke-linecap="butt" stroke-linejoin="miter" stroke="rgb(12.156863%, 47.058824%, 70.588235%)" stroke-opacity="1" stroke-miterlimit="10" d="M 386.59375 264.695312 C 386.59375 268.359375 381.09375 268.359375 381.09375 264.695312 C 381.09375 261.027344 386.59375 261.027344 386.59375 264.695312 "/>
<path fill-rule="nonzero" fill="rgb(12.156863%, 47.058824%, 70.588235%)" fill-opacity="1" stroke-width="1" stroke-linecap="butt" stroke-linejoin="miter" stroke="rgb(12.156863%, 47.058824%, 70.588235%)" stroke-opacity="1" stroke-miterlimit="10" d="M 113.539062 293.207031 C 113.539062 296.875 108.039062 296.875 108.039062 293.207031 C 108.039062 289.542969 113.539062 289.542969 113.539062 293.207031 "/>
<path fill-rule="nonzero" fill="rgb(70.196078%, 70.196078%, 70.196078%)" fill-opacity="1" stroke-width="1" stroke-linecap="butt" stroke-linejoin="miter" stroke="rgb(70.196078%, 70.196078%, 70.196078%)" stroke-opacity="1" stroke-miterlimit="10" d="M 580.726562 50 C 580.726562 56.464844 571.027344 56.464844 571.027344 50 C 571.027344 43.535156 580.726562 43.535156 580.726562 50 "/>
<path fill-rule="nonzero" fill="rgb(70.196078%, 70.196078%, 70.196078%)" fill-opacity="1" stroke-width="1" stroke-linecap="butt" stroke-linejoin="miter" stroke="rgb(70.196078%, 70.196078%, 70.196078%)" stroke-opacity="1" stroke-miterlimit="10" d="M 506.292969 487.113281 C 506.292969 493.582031 496.59375 493.582031 496.59375 487.113281 C 496.59375 480.648438 506.292969 480.648438 506.292969 487.113281 "/>
<path fill-rule="nonzero" fill="rgb(100%, 84.313725%, 0%)" fill-opacity="1" stroke-width="1" stroke-linecap="butt" stroke-linejoin="miter" stroke="rgb(100%, 84.313725%, 0%)" stroke-opacity="1" stroke-miterlimit="10" d="M 67.515625 735.507812 L 78.214844 735.507812 L 78.214844 746.207031 L 67.515625 746.207031 Z M 67.515625 735.507812 "/>
<path fill-rule="nonzero" fill="rgb(98.431373%, 60.392157%, 60%)" fill-opacity="1" stroke-width="1" stroke-linecap="butt" stroke-linejoin="miter" stroke="rgb(98.431373%, 60.392157%, 60%)" stroke-opacity="1" stroke-miterlimit="10" d="M 546.789062 135.6875 C 546.789062 139.351562 541.289062 139.351562 541.289062 135.6875 C 541.289062 132.019531 546.789062 132.019531 546.789062 135.6875 "/>
<path fill-rule="nonzero" fill="rgb(12.156863%, 47.058824%, 70.588235%)" fill-opacity="1" stroke-width="1" stroke-linecap="butt" stroke-linejoin="miter" stroke="rgb(12.156863%, 47.058824%, 70.588235%)" stroke-opacity="1" stroke-miterlimit="10" d="M 224.730469 333.917969 C 224.730469 337.585938 219.230469 337.585938 219.230469 333.917969 C 219.230469 330.25 224.730469 330.25 224.730469 333.917969 "/>
<path fill-rule="nonzero" fill="rgb(12.156863%, 47.058824%, 70.588235%)" fill-opacity="1" stroke-width="1" stroke-linecap="butt" stroke-linejoin="miter" stroke="rgb(12.156863%, 47.058824%, 70.588235%)" stroke-opacity="1" stroke-miterlimit="10" d="M 636.996094 275.527344 C 636.996094 279.859375 630.496094 279.859375 630.496094 275.527344 C 630.496094 271.195312 636.996094 271.195312 636.996094 275.527344 "/>
<path fill-rule="nonzero" fill="rgb(14.901961%, 14.901961%, 14.901961%)" fill-opacity="1" stroke-width="1" stroke-linecap="butt" stroke-linejoin="miter" stroke="rgb(14.901961%, 14.901961%, 14.901961%)" stroke-opacity="1" stroke-miterlimit="10" d="M 579.644531 753.75 L 583.394531 746.25 L 587.144531 753.75 Z M 579.644531 753.75 "/>
<path fill-rule="nonzero" fill="rgb(12.156863%, 47.058824%, 70.588235%)" fill-opacity="1" stroke-width="1" stroke-linecap="butt" stroke-linejoin="miter" stroke="rgb(12.156863%, 47.058824%, 70.588235%)" stroke-opacity="1" stroke-miterlimit="10" d="M 618.882812 675.429688 C 618.882812 679.09375 613.382812 679.09375 613.382812 675.429688 C 613.382812 671.761719 618.882812 671.761719 618.882812 675.429688 "/>
<path fill-rule="nonzero" fill="rgb(12.156863%, 47.058824%, 70.588235%)" fill-opacity="1" stroke-width="1" stroke-linecap="butt" stroke-linejoin="miter" stroke="rgb(12.156863%, 47.058824%, 70.588235%)" stroke-opacity="1" stroke-miterlimit="10" d="M 664.039062 554.441406 C 664.039062 558.109375 658.539062 558.109375 658.539062 554.441406 C 658.539062 550.777344 664.039062 550.777344 664.039062 554.441406 "/>
<path fill-rule="nonzero" fill="rgb(12.156863%, 47.058824%, 70.588235%)" fill-opacity="1" stroke-width="1" stroke-linecap="butt" stroke-linejoin="miter" stroke="rgb(12.156863%, 47.058824%, 70.588235%)" stroke-opacity="1" stroke-miterlimit="10" d="M 301.398438 372.691406 C 301.398438 376.359375 295.898438 376.359375 295.898438 372.691406 C 295.898438 369.023438 301.398438 369.023438 301.398438 372.691406 "/>
<path fill-rule="nonzero" fill="rgb(70.196078%, 70.196078%, 70.196078%)" fill-opacity="1" stroke-width="1" stroke-linecap="butt" stroke-linejoin="miter" stroke="rgb(70.196078%, 70.196078%, 70.196078%)" stroke-opacity="1" stroke-miterlimit="10" d="M 627.546875 455.03125 C 627.546875 461.496094 617.84375 461.496094 617.84375 455.03125 C 617.84375 448.5625 627.546875 448.5625 627.546875 455.03125 "/>
<path fill-rule="nonzero" fill="rgb(70.196078%, 70.196078%, 70.196078%)" fill-opacity="1" stroke-width="1" stroke-linecap="butt" stroke-linejoin="miter" stroke="rgb(70.196078%, 70.196078%, 70.196078%)" stroke-opacity="1" stroke-miterlimit="10" d="M 332.660156 451.238281 C 332.660156 457.707031 322.957031 457.707031 322.957031 451.238281 C 322.957031 444.773438 332.660156 444.773438 332.660156 451.238281 "/>
<path fill-rule="nonzero" fill="rgb(70.196078%, 70.196078%, 70.196078%)" fill-opacity="1" stroke-width="1" stroke-linecap="butt" stroke-linejoin="miter" stroke="rgb(70.196078%, 70.196078%, 70.196078%)" stroke-opacity="1" stroke-miterlimit="10" d="M 302.195312 684.496094 C 302.195312 690.960938 292.496094 690.960938 292.496094 684.496094 C 292.496094 678.03125 302.195312 678.03125 302.195312 684.496094 "/>
<path fill-rule="nonzero" fill="rgb(70.196078%, 70.196078%, 70.196078%)" fill-opacity="1" stroke-width="1" stroke-linecap="butt" stroke-linejoin="miter" stroke="rgb(70.196078%, 70.196078%, 70.196078%)" stroke-opacity="1" stroke-miterlimit="10" d="M 484.359375 184.757812 C 484.359375 191.222656 474.660156 191.222656 474.660156 184.757812 C 474.660156 178.289062 484.359375 178.289062 484.359375 184.757812 "/>
<path fill-rule="nonzero" fill="rgb(70.196078%, 70.196078%, 70.196078%)" fill-opacity="1" stroke-width="1" stroke-linecap="butt" stroke-linejoin="miter" stroke="rgb(70.196078%, 70.196078%, 70.196078%)" stroke-opacity="1" stroke-miterlimit="10" d="M 451.644531 571.390625 C 451.644531 577.859375 441.941406 577.859375 441.941406 571.390625 C 441.941406 564.925781 451.644531 564.925781 451.644531 571.390625 "/>
<path fill-rule="nonzero" fill="rgb(70.196078%, 70.196078%, 70.196078%)" fill-opacity="1" stroke-width="1" stroke-linecap="butt" stroke-linejoin="miter" stroke="rgb(70.196078%, 70.196078%, 70.196078%)" stroke-opacity="1" stroke-miterlimit="10" d="M 143.550781 713.101562 C 143.550781 719.570312 133.847656 719.570312 133.847656 713.101562 C 133.847656 706.636719 143.550781 706.636719 143.550781 713.101562 "/>
<path fill-rule="nonzero" fill="rgb(70.196078%, 70.196078%, 70.196078%)" fill-opacity="1" stroke-width="1" stroke-linecap="butt" stroke-linejoin="miter" stroke="rgb(70.196078%, 70.196078%, 70.196078%)" stroke-opacity="1" stroke-miterlimit="10" d="M 226.25 712.007812 C 226.25 718.472656 216.546875 718.472656 216.546875 712.007812 C 216.546875 705.539062 226.25 705.539062 226.25 712.007812 "/>
</svg>
