<?xml version="1.0" encoding="UTF-8"?>
<svg xmlns="http://www.w3.org/2000/svg" xmlns:xlink="http://www.w3.org/1999/xlink" width="800" height="800" viewBox="0 0 800 800">
<rect x="-80" y="-80" width="960" height="960" fill="rgb(100%, 100%, 100%)" fill-opacity="1"/>
<path fill="none" stroke-width="1.5" stroke-linecap="butt" stroke-linejoin="miter" stroke="rgb(30.196078%, 68.627451%, 29.019608%)" stroke-opacity="1" stroke-miterlimit="10" d="M 50 558.496094 C 64.914062 570.292969 81.996094 575.625 100.453125 571.183594 "/>
<path fill-rule="nonzero" fill="rgb(30.196078%, 68.627451%, 29.019608%)" fill-opacity="1" d="M 107.386719 569.515625 L 100.992188 573.4375 L 99.910156 568.929688 L 107.386719 569.515625 "/>
<path fill="none" stroke-width="1.5" stroke-linecap="butt" stroke-linejoin="miter" stroke="rgb(12.156863%, 47.058824%, 70.588235%)" stroke-opacity="1" stroke-miterlimit="10" d="M 411.53125 158.769531 C 446.878906 145.777344 472.480469 122.128906 485.132812 86.679688 "/>
<path fill-rule="nonzero" fill="rgb(12.156863%, 47.058824%, 70.588235%)" fill-opacity="1" d="M 487.53125 79.960938 L 487.316406 87.457031 L 482.949219 85.898438 L 487.53125 79.960938 "/>
<path fill="none" stroke-width="1.5" stroke-linecap="butt" stroke-linejoin="miter" stroke="rgb(12.156863%, 47.058824%, 70.588235%)" stroke-opacity="1" stroke-miterlimit="10" d="M 686.050781 436.046875 C 670.636719 465.277344 667.714844 495.789062 680.414062 526.273438 "/>
<path fill-rule="nonzero" fill="rgb(12.156863%, 47.058824%, 70.588235%)" fill-opacity="1" d="M 683.160156 532.859375 L 678.277344 527.164062 L 682.554688 525.382812 L 683.160156 532.859375 "/>
<path fill="none" stroke-width="1.5" stroke-linecap="butt" stroke-linejoin="miter" stroke="rgb(30.196078%, 68.627451%, 29.019608%)" stroke-opacity="1" stroke-miterlimit="10" d="M 442.5 722.035156 C 421.445312 718.933594 402.003906 723.402344 386.488281 737.925781 "/>
<path fill-rule="nonzero" fill="rgb(30.196078%, 68.627451%, 29.019608%)" fill-opacity="1" d="M 381.285156 742.804688 L 384.90625 736.234375 L 388.074219 739.621094 L 381.285156 742.804688 "/>
<path fill="none" stroke-width="1.5" stroke-linecap="butt" stroke-linejoin="miter" stroke="rgb(12.156863%, 47.058824%, 70.588235%)" stroke-opacity="1" stroke-miterlimit="10" d="M 684.167969 535.285156 C 657.742188 543.90625 637.933594 560.554688 627.914062 586.460938 "/>
<path fill-rule="nonzero" fill="rgb(12.156863%, 47.058824%, 70.588235%)" fill-opacity="1" d="M 625.34375 593.113281 L 625.753906 585.625 L 630.074219 587.296875 L 625.34375 593.113281 "/>
<path fill="none" stroke-width="1.5" stroke-linecap="butt" stroke-linejoin="miter" stroke="rgb(12.156863%, 47.058824%, 70.588235%)" stroke-opacity="1" stroke-miterlimit="10" d="M 670.652344 219.710938 C 643.09375 290.570312 645.695312 360.34375 681.457031 427.429688 "/>
<path fill-rule="nonzero" fill="rgb(12.156863%, 47.058824%, 70.588235%)" fill-opacity="1" d="M 684.8125 433.722656 L 679.410156 428.519531 L 683.5 426.339844 L 684.8125 433.722656 "/>
<path fill="none" stroke-width="1.5" stroke-linecap="butt" stroke-linejoin="miter" stroke="rgb(12.156863%, 47.058824%, 70.588235%)" stroke-opacity="1" stroke-miterlimit="10" d="M 624.394531 595.5625 C 600.023438 588.316406 576.40625 590.472656 555.460938 604.839844 "/>
<path fill-rule="nonzero" fill="rgb(12.156863%, 47.058824%, 70.588235%)" fill-opacity="1" d="M 549.578125 608.875 L 554.152344 602.929688 L 556.773438 606.753906 L 549.578125 608.875 "/>
<path fill="none" stroke-width="1.5" stroke-linecap="butt" stroke-linejoin="miter" stroke="rgb(30.196078%, 68.627451%, 29.019608%)" stroke-opacity="1" stroke-miterlimit="10" d="M 109.933594 568.902344 C 129.777344 576.742188 149.773438 576.816406 168.234375 566.179688 "/>
<path fill-rule="nonzero" fill="rgb(30.196078%, 68.627451%, 29.019608%)" fill-opacity="1" d="M 174.414062 562.621094 L 169.390625 568.191406 L 167.078125 564.171875 L 174.414062 562.621094 "/>
<path fill="none" stroke-width="1.5" stroke-linecap="butt" stroke-linejoin="miter" stroke="rgb(30.196078%, 68.627451%, 29.019608%)" stroke-opacity="1" stroke-miterlimit="10" d="M 490.414062 666.167969 C 468.417969 674.925781 452.320312 690.105469 445.367188 712.710938 "/>
<path fill-rule="nonzero" fill="rgb(30.196078%, 68.627451%, 29.019608%)" fill-opacity="1" d="M 443.269531 719.527344 L 443.152344 712.027344 L 447.582031 713.390625 L 443.269531 719.527344 "/>
<path fill="none" stroke-width="1.5" stroke-linecap="butt" stroke-linejoin="miter" stroke="rgb(30.196078%, 68.627451%, 29.019608%)" stroke-opacity="1" stroke-miterlimit="10" d="M 238.78125 546.734375 C 260.335938 547.523438 279.417969 540.851562 293.441406 524.503906 "/>
<path fill-rule="nonzero" fill="rgb(30.196078%, 68.627451%, 29.019608%)" fill-opacity="1" d="M 298.089844 519.089844 L 295.203125 526.011719 L 291.683594 522.992188 L 298.089844 519.089844 "/>
<path fill="none" stroke-width="1.5" stroke-linecap="butt" stroke-linejoin="miter" stroke="rgb(30.196078%, 68.627451%, 29.019608%)" stroke-opacity="1" stroke-miterlimit="10" d="M 344.992188 471.328125 C 353.859375 492.59375 368.875 508.042969 390.984375 514.421875 "/>
<path fill-rule="nonzero" fill="rgb(30.196078%, 68.627451%, 29.019608%)" fill-opacity="1" d="M 397.839844 516.398438 L 390.34375 516.648438 L 391.628906 512.195312 L 397.839844 516.398438 "/>
<path fill="none" stroke-width="1.5" stroke-linecap="butt" stroke-linejoin="miter" stroke="rgb(30.196078%, 68.627451%, 29.019608%)" stroke-opacity="1" stroke-miterlimit="10" d="M 185.007812 736.425781 C 176.035156 719.824219 162.550781 708.238281 143.976562 705.082031 "/>
<path fill-rule="nonzero" fill="rgb(30.196078%, 68.627451%, 29.019608%)" fill-opacity="1" d="M 136.945312 703.886719 L 144.367188 702.796875 L 143.589844 707.367188 L 136.945312 703.886719 "/>
<path fill="none" stroke-width="1.5" stroke-linecap="butt" stroke-linejoin="miter" stroke="rgb(30.196078%, 68.627451%, 29.019608%)" stroke-opacity="1" stroke-miterlimit="10" d="M 246.414062 750 C 231.453125 737.085938 213.960938 730.832031 194.585938 734.574219 "/>
<path fill-rule="nonzero" fill="rgb(30.196078%, 68.627451%, 29.019608%)" fill-opacity="1" d="M 187.582031 735.929688 L 194.148438 732.300781 L 195.027344 736.851562 L 187.582031 735.929688 "/>
<path fill="none" stroke-width="1.5" stroke-linecap="butt" stroke-linejoin="miter" stroke="rgb(30.196078%, 68.627451%, 29.019608%)" stroke-opacity="1" stroke-miterlimit="10" d="M 308.445312 748.386719 C 291.089844 739.578125 272.886719 737.722656 255.265625 745.894531 "/>
<path fill-rule="nonzero" fill="rgb(30.196078%, 68.627451%, 29.019608%)" fill-opacity="1" d="M 248.792969 748.898438 L 254.289062 743.792969 L 256.238281 748 L 248.792969 748.898438 "/>
<path fill="none" stroke-width="1.5" stroke-linecap="butt" stroke-linejoin="miter" stroke="rgb(30.196078%, 68.627451%, 29.019608%)" stroke-opacity="1" stroke-miterlimit="10" d="M 379.367188 744.597656 C 358.722656 735.074219 337.484375 733.871094 317.171875 744.023438 "/>
<path fill-rule="nonzero" fill="rgb(30.196078%, 68.627451%, 29.019608%)" fill-opacity="1" d="M 310.792969 747.214844 L 316.136719 741.953125 L 318.207031 746.097656 L 310.792969 747.214844 "/>
<path fill="none" stroke-width="1.5" stroke-linecap="butt" stroke-linejoin="miter" stroke="rgb(98.431373%, 60.392157%, 60%)" stroke-opacity="1" stroke-miterlimit="10" d="M 568.328125 391.773438 C 597.945312 342.320312 605.140625 289.746094 586.695312 235.144531 "/>
<path fill-rule="nonzero" fill="rgb(98.431373%, 60.392157%, 60%)" fill-opacity="1" d="M 584.410156 228.386719 L 588.890625 234.402344 L 584.5 235.886719 L 584.410156 228.386719 "/>
<path fill="none" stroke-width="1.5" stroke-linecap="butt" stroke-linejoin="miter" stroke="rgb(12.156863%, 47.058824%, 70.588235%)" stroke-opacity="1" stroke-miterlimit="10" d="M 594.394531 113.785156 C 601.859375 157.621094 623.898438 192.261719 662.230469 214.769531 "/>
<path fill-rule="nonzero" fill="rgb(12.156863%, 47.058824%, 70.588235%)" fill-opacity="1" d="M 668.382812 218.378906 L 661.058594 216.765625 L 663.40625 212.769531 L 668.382812 218.378906 "/>
<path fill="none" stroke-width="1.5" stroke-linecap="butt" stroke-linejoin="miter" stroke="rgb(30.196078%, 68.627451%, 29.019608%)" stroke-opacity="1" stroke-miterlimit="10" d="M 299.796875 517.097656 C 319.1875 511.125 334.128906 499.308594 341.460938 480.421875 "/>
<path fill-rule="nonzero" fill="rgb(30.196078%, 68.627451%, 29.019608%)" fill-opacity="1" d="M 344.042969 473.773438 L 343.625 481.261719 L 339.300781 479.585938 L 344.042969 473.773438 "/>
<path fill="none" stroke-width="1.5" stroke-linecap="butt" stroke-linejoin="miter" stroke="rgb(98.431373%, 60.392157%, 60%)" stroke-opacity="1" stroke-miterlimit="10" d="M 443.707031 376.191406 C 479.371094 399.613281 518.121094 406.828125 558.976562 394.578125 "/>
<path fill-rule="nonzero" fill="rgb(98.431373%, 60.392157%, 60%)" fill-opacity="1" d="M 565.808594 392.53125 L 559.640625 396.796875 L 558.3125 392.359375 L 565.808594 392.53125 "/>
<path fill="none" stroke-width="1.5" stroke-linecap="butt" stroke-linejoin="miter" stroke="rgb(30.196078%, 68.627451%, 29.019608%)" stroke-opacity="1" stroke-miterlimit="10" d="M 176.6875 561.3125 C 196.089844 566.53125 214.851562 564.519531 230.949219 552.554688 "/>
<path fill-rule="nonzero" fill="rgb(30.196078%, 68.627451%, 29.019608%)" fill-opacity="1" d="M 236.675781 548.296875 L 232.332031 554.414062 L 229.566406 550.695312 L 236.675781 548.296875 "/>
<path fill="none" stroke-width="1.5" stroke-linecap="butt" stroke-linejoin="miter" stroke="rgb(99.215686%, 74.901961%, 43.529412%)" stroke-opacity="1" stroke-miterlimit="10" d="M 707.332031 379.375 C 670.464844 388.6875 642.25 409.726562 625.8125 443.992188 "/>
<path fill-rule="nonzero" fill="rgb(99.215686%, 74.901961%, 43.529412%)" fill-opacity="1" d="M 622.726562 450.425781 L 623.722656 442.992188 L 627.902344 444.996094 L 622.726562 450.425781 "/>
<path fill="none" stroke-width="1.5" stroke-linecap="butt" stroke-linejoin="miter" stroke="rgb(99.215686%, 74.901961%, 43.529412%)" stroke-opacity="1" stroke-miterlimit="10" d="M 510.292969 421.105469 C 535.929688 403.605469 551.828125 379.558594 554.605469 348.660156 "/>
<path fill-rule="nonzero" fill="rgb(99.215686%, 74.901961%, 43.529412%)" fill-opacity="1" d="M 555.242188 341.554688 L 556.914062 348.867188 L 552.296875 348.453125 L 555.242188 341.554688 "/>
<path fill="none" stroke-width="1.5" stroke-linecap="butt" stroke-linejoin="miter" stroke="rgb(30.196078%, 68.627451%, 29.019608%)" stroke-opacity="1" stroke-miterlimit="10" d="M 400.359375 517.125 C 408.441406 537.691406 422.523438 552.851562 443.605469 559.359375 "/>
<path fill-rule="nonzero" fill="rgb(30.196078%, 68.627451%, 29.019608%)" fill-opacity="1" d="M 450.421875 561.464844 L 442.921875 561.574219 L 444.289062 557.144531 L 450.421875 561.464844 "/>
<path fill="none" stroke-width="1.5" stroke-linecap="butt" stroke-linejoin="miter" stroke="rgb(99.215686%, 74.901961%, 43.529412%)" stroke-opacity="1" stroke-miterlimit="10" d="M 748.613281 260.007812 C 732.839844 264.277344 720.265625 273.292969 714.054688 288.363281 "/>
<path fill-rule="nonzero" fill="rgb(99.215686%, 74.901961%, 43.529412%)" fill-opacity="1" d="M 711.339844 294.960938 L 711.914062 287.480469 L 716.199219 289.246094 L 711.339844 294.960938 "/>
<path fill="none" stroke-width="1.5" stroke-linecap="butt" stroke-linejoin="miter" stroke="rgb(99.215686%, 74.901961%, 43.529412%)" stroke-opacity="1" stroke-miterlimit="10" d="M 621.179688 453.652344 C 602.910156 457.242188 588.054688 466.550781 579.632812 483.117188 "/>
<path fill-rule="nonzero" fill="rgb(99.215686%, 74.901961%, 43.529412%)" fill-opacity="1" d="M 576.402344 489.476562 L 577.570312 482.066406 L 581.699219 484.167969 L 576.402344 489.476562 "/>
<path fill="none" stroke-width="1.5" stroke-linecap="butt" stroke-linejoin="miter" stroke="rgb(99.215686%, 74.901961%, 43.529412%)" stroke-opacity="1" stroke-miterlimit="10" d="M 621.179688 453.652344 C 631.203125 438.566406 634.984375 421.898438 629.246094 404.753906 "/>
<path fill-rule="nonzero" fill="rgb(99.215686%, 74.901961%, 43.529412%)" fill-opacity="1" d="M 626.984375 397.992188 L 631.445312 404.019531 L 627.050781 405.492188 L 626.984375 397.992188 "/>
<path fill="none" stroke-width="1.5" stroke-linecap="butt" stroke-linejoin="miter" stroke="rgb(99.215686%, 74.901961%, 43.529412%)" stroke-opacity="1" stroke-miterlimit="10" d="M 621.179688 453.652344 C 617.503906 467.214844 618.632812 480.558594 627.238281 491.609375 "/>
<path fill-rule="nonzero" fill="rgb(99.215686%, 74.901961%, 43.529412%)" fill-opacity="1" d="M 631.621094 497.234375 L 625.410156 493.03125 L 629.066406 490.183594 L 631.621094 497.234375 "/>
<path fill="none" stroke-width="1.5" stroke-linecap="butt" stroke-linejoin="miter" stroke="rgb(30.196078%, 68.627451%, 29.019608%)" stroke-opacity="1" stroke-miterlimit="10" d="M 452.929688 562.238281 C 448.652344 599.136719 458.082031 632.203125 483.683594 659.097656 "/>
<path fill-rule="nonzero" fill="rgb(30.196078%, 68.627451%, 29.019608%)" fill-opacity="1" d="M 488.601562 664.261719 L 482.003906 660.695312 L 485.359375 657.5 L 488.601562 664.261719 "/>
<path fill="none" stroke-width="1.5" stroke-linecap="butt" stroke-linejoin="miter" stroke="rgb(41.568627%, 23.921569%, 60.392157%)" stroke-opacity="1" stroke-miterlimit="10" d="M 228.738281 388.265625 C 212.582031 398.179688 201.734375 412.339844 199.566406 431.132812 "/>
<path fill-rule="nonzero" fill="rgb(41.568627%, 23.921569%, 60.392157%)" fill-opacity="1" d="M 198.75 438.21875 L 197.265625 430.867188 L 201.871094 431.398438 L 198.75 438.21875 "/>
<path fill="none" stroke-width="1.5" stroke-linecap="butt" stroke-linejoin="miter" stroke="rgb(99.215686%, 74.901961%, 43.529412%)" stroke-opacity="1" stroke-miterlimit="10" d="M 710.160156 297.816406 C 726.066406 293.4375 738.703125 284.273438 744.925781 269.035156 "/>
<path fill-rule="nonzero" fill="rgb(99.215686%, 74.901961%, 43.529412%)" fill-opacity="1" d="M 747.625 262.433594 L 747.070312 269.914062 L 742.78125 268.160156 L 747.625 262.433594 "/>
<path fill="none" stroke-width="1.5" stroke-linecap="butt" stroke-linejoin="miter" stroke="rgb(99.215686%, 74.901961%, 43.529412%)" stroke-opacity="1" stroke-miterlimit="10" d="M 710.160156 297.816406 C 713.820312 317.480469 723.695312 333.46875 741.367188 342.769531 "/>
<path fill-rule="nonzero" fill="rgb(99.215686%, 74.901961%, 43.529412%)" fill-opacity="1" d="M 747.679688 346.089844 L 740.289062 344.820312 L 742.445312 340.71875 L 747.679688 346.089844 "/>
<path fill="none" stroke-width="1.5" stroke-linecap="butt" stroke-linejoin="miter" stroke="rgb(99.215686%, 74.901961%, 43.529412%)" stroke-opacity="1" stroke-miterlimit="10" d="M 555.476562 338.9375 C 609.582031 349.371094 659.195312 338.695312 702.171875 304.226562 "/>
<path fill-rule="nonzero" fill="rgb(99.215686%, 74.901961%, 43.529412%)" fill-opacity="1" d="M 707.734375 299.761719 L 703.621094 306.035156 L 700.722656 302.417969 L 707.734375 299.761719 "/>
<path fill="none" stroke-width="1.5" stroke-linecap="butt" stroke-linejoin="miter" stroke="rgb(99.215686%, 74.901961%, 43.529412%)" stroke-opacity="1" stroke-miterlimit="10" d="M 575.214844 491.8125 C 593.199219 488.421875 607.910156 479.402344 616.277344 463.164062 "/>
<path fill-rule="nonzero" fill="rgb(99.215686%, 74.901961%, 43.529412%)" fill-opacity="1" d="M 619.546875 456.824219 L 618.339844 464.226562 L 614.21875 462.101562 L 619.546875 456.824219 "/>
<path fill="none" stroke-width="1.5" stroke-linecap="butt" stroke-linejoin="miter" stroke="rgb(41.568627%, 23.921569%, 60.392157%)" stroke-opacity="1" stroke-miterlimit="10" d="M 198.449219 440.824219 C 183.765625 430.113281 167.238281 425.617188 149.800781 430.589844 "/>
<path fill-rule="nonzero" fill="rgb(41.568627%, 23.921569%, 60.392157%)" fill-opacity="1" d="M 142.941406 432.546875 L 149.164062 428.363281 L 150.433594 432.820312 L 142.941406 432.546875 "/>
<path fill="none" stroke-width="1.5" stroke-linecap="butt" stroke-linejoin="miter" stroke="rgb(98.431373%, 60.392157%, 60%)" stroke-opacity="1" stroke-miterlimit="10" d="M 370.261719 92.417969 C 351.589844 78.335938 330.515625 72.515625 307.871094 78.246094 "/>
<path fill-rule="nonzero" fill="rgb(98.431373%, 60.392157%, 60%)" fill-opacity="1" d="M 300.953125 80 L 307.300781 76 L 308.4375 80.496094 L 300.953125 80 "/>
<path fill="none" stroke-width="1.5" stroke-linecap="butt" stroke-linejoin="miter" stroke="rgb(12.156863%, 47.058824%, 70.588235%)" stroke-opacity="1" stroke-miterlimit="10" d="M 547.414062 610.359375 C 517.242188 601.042969 488.027344 603.621094 461.675781 620.988281 "/>
<path fill-rule="nonzero" fill="rgb(12.156863%, 47.058824%, 70.588235%)" fill-opacity="1" d="M 455.722656 624.910156 L 460.402344 619.050781 L 462.953125 622.921875 L 455.722656 624.910156 "/>
<path fill="none" stroke-width="1.5" stroke-linecap="butt" stroke-linejoin="miter" stroke="rgb(99.215686%, 74.901961%, 43.529412%)" stroke-opacity="1" stroke-miterlimit="10" d="M 750 347.3125 C 733.851562 349.507812 720.265625 356.8125 712.179688 370.914062 "/>
<path fill-rule="nonzero" fill="rgb(99.215686%, 74.901961%, 43.529412%)" fill-opacity="1" d="M 708.632812 377.101562 L 710.171875 369.761719 L 714.191406 372.066406 L 708.632812 377.101562 "/>
<path fill="none" stroke-width="1.5" stroke-linecap="butt" stroke-linejoin="miter" stroke="rgb(99.215686%, 74.901961%, 43.529412%)" stroke-opacity="1" stroke-miterlimit="10" d="M 500.507812 360.945312 C 494.226562 378.9375 494.78125 396.863281 505.035156 412.890625 "/>
<path fill-rule="nonzero" fill="rgb(99.215686%, 74.901961%, 43.529412%)" fill-opacity="1" d="M 508.878906 418.898438 L 503.082031 414.140625 L 506.988281 411.640625 L 508.878906 418.898438 "/>
<path fill="none" stroke-width="1.5" stroke-linecap="butt" stroke-linejoin="miter" stroke="rgb(98.431373%, 60.392157%, 60%)" stroke-opacity="1" stroke-miterlimit="10" d="M 462.894531 142.574219 C 442.664062 113.6875 415.121094 96.105469 379.988281 93.21875 "/>
<path fill-rule="nonzero" fill="rgb(98.431373%, 60.392157%, 60%)" fill-opacity="1" d="M 372.878906 92.632812 L 380.179688 90.90625 L 379.800781 95.527344 L 372.878906 92.632812 "/>
<path fill="none" stroke-width="1.5" stroke-linecap="butt" stroke-linejoin="miter" stroke="rgb(98.431373%, 60.392157%, 60%)" stroke-opacity="1" stroke-miterlimit="10" d="M 583.566406 225.890625 C 577.175781 200.3125 562.769531 180.40625 538.90625 169.25 "/>
<path fill-rule="nonzero" fill="rgb(98.431373%, 60.392157%, 60%)" fill-opacity="1" d="M 532.445312 166.230469 L 539.890625 167.152344 L 537.925781 171.351562 L 532.445312 166.230469 "/>
<path fill="none" stroke-width="1.5" stroke-linecap="butt" stroke-linejoin="miter" stroke="rgb(99.215686%, 74.901961%, 43.529412%)" stroke-opacity="1" stroke-miterlimit="10" d="M 633.230469 499.300781 C 636.96875 486.171875 636.085938 473.152344 627.824219 462.347656 "/>
<path fill-rule="nonzero" fill="rgb(99.215686%, 74.901961%, 43.529412%)" fill-opacity="1" d="M 623.492188 456.679688 L 629.664062 460.9375 L 625.984375 463.753906 L 623.492188 456.679688 "/>
<path fill="none" stroke-width="1.5" stroke-linecap="butt" stroke-linejoin="miter" stroke="rgb(41.568627%, 23.921569%, 60.392157%)" stroke-opacity="1" stroke-miterlimit="10" d="M 126.089844 376.761719 C 131.972656 357.347656 130.53125 338.355469 118.972656 321.726562 "/>
<path fill-rule="nonzero" fill="rgb(41.568627%, 23.921569%, 60.392157%)" fill-opacity="1" d="M 114.902344 315.867188 L 120.875 320.402344 L 117.070312 323.046875 L 114.902344 315.867188 "/>
<path fill="none" stroke-width="1.5" stroke-linecap="butt" stroke-linejoin="miter" stroke="rgb(98.431373%, 60.392157%, 60%)" stroke-opacity="1" stroke-miterlimit="10" d="M 229.164062 74.34375 C 220.878906 61.238281 209.179688 52.285156 193.773438 50.949219 "/>
<path fill-rule="nonzero" fill="rgb(98.431373%, 60.392157%, 60%)" fill-opacity="1" d="M 186.667969 50.332031 L 193.976562 48.640625 L 193.574219 53.257812 L 186.667969 50.332031 "/>
<path fill="none" stroke-width="1.5" stroke-linecap="butt" stroke-linejoin="miter" stroke="rgb(12.156863%, 47.058824%, 70.588235%)" stroke-opacity="1" stroke-miterlimit="10" d="M 446.140625 250.140625 C 449.542969 217.839844 441.09375 188.910156 418.363281 165.738281 "/>
<path fill-rule="nonzero" fill="rgb(12.156863%, 47.058824%, 70.588235%)" fill-opacity="1" d="M 413.371094 160.644531 L 420.019531 164.113281 L 416.710938 167.359375 L 413.371094 160.644531 "/>
<path fill="none" stroke-width="1.5" stroke-linecap="butt" stroke-linejoin="miter" stroke="rgb(98.431373%, 60.392157%, 60%)" stroke-opacity="1" stroke-miterlimit="10" d="M 446.140625 250.140625 C 426.515625 288.226562 423.402344 327.679688 439.9375 367.1875 "/>
<path fill-rule="nonzero" fill="rgb(98.431373%, 60.392157%, 60%)" fill-opacity="1" d="M 442.691406 373.765625 L 437.796875 368.082031 L 442.074219 366.292969 L 442.691406 373.765625 "/>
<path fill="none" stroke-width="1.5" stroke-linecap="butt" stroke-linejoin="miter" stroke="rgb(41.568627%, 23.921569%, 60.392157%)" stroke-opacity="1" stroke-miterlimit="10" d="M 113.40625 313.714844 C 126.230469 303.191406 134.109375 289.605469 133.585938 273.0625 "/>
<path fill-rule="nonzero" fill="rgb(41.568627%, 23.921569%, 60.392157%)" fill-opacity="1" d="M 133.363281 265.933594 L 135.902344 272.992188 L 131.269531 273.136719 L 133.363281 265.933594 "/>
<path fill="none" stroke-width="1.5" stroke-linecap="butt" stroke-linejoin="miter" stroke="rgb(98.431373%, 60.392157%, 60%)" stroke-opacity="1" stroke-miterlimit="10" d="M 298.410156 80.644531 C 279.820312 68.527344 259.472656 64.332031 238.429688 71.28125 "/>
<path fill-rule="nonzero" fill="rgb(98.431373%, 60.392157%, 60%)" fill-opacity="1" d="M 231.65625 73.519531 L 237.703125 69.082031 L 239.15625 73.484375 L 231.65625 73.519531 "/>
<path fill="none" stroke-width="1.5" stroke-linecap="butt" stroke-linejoin="miter" stroke="rgb(98.431373%, 60.392157%, 60%)" stroke-opacity="1" stroke-miterlimit="10" d="M 530.066406 165.121094 C 514.425781 148.707031 495.175781 139.785156 472.613281 141.734375 "/>
<path fill-rule="nonzero" fill="rgb(98.431373%, 60.392157%, 60%)" fill-opacity="1" d="M 465.507812 142.347656 L 472.414062 139.425781 L 472.816406 144.042969 L 465.507812 142.347656 "/>
<path fill="none" stroke-width="1.5" stroke-linecap="butt" stroke-linejoin="miter" stroke="rgb(12.156863%, 47.058824%, 70.588235%)" stroke-opacity="1" stroke-miterlimit="10" d="M 488.414062 77.484375 C 514.929688 104.296875 547.109375 117.804688 584.667969 114.613281 "/>
<path fill-rule="nonzero" fill="rgb(12.156863%, 47.058824%, 70.588235%)" fill-opacity="1" d="M 591.777344 114.007812 L 584.867188 116.921875 L 584.472656 112.300781 L 591.777344 114.007812 "/>
<path fill="none" stroke-width="1.5" stroke-linecap="butt" stroke-linejoin="miter" stroke="rgb(99.215686%, 74.901961%, 43.529412%)" stroke-opacity="1" stroke-miterlimit="10" d="M 472.695312 321.3125 C 474.027344 335.742188 479.941406 348.199219 492.21875 355.808594 "/>
<path fill-rule="nonzero" fill="rgb(99.215686%, 74.901961%, 43.529412%)" fill-opacity="1" d="M 498.285156 359.566406 L 491 357.777344 L 493.441406 353.839844 L 498.285156 359.566406 "/>
<path fill="none" stroke-width="2.5" stroke-linecap="butt" stroke-linejoin="miter" stroke="rgb(70.196078%, 70.196078%, 70.196078%)" stroke-opacity="1" stroke-miterlimit="10" d="M 526.773438 240.09375 C 502.660156 230.902344 478.574219 231.265625 456.292969 244.234375 "/>
<path fill-rule="nonzero" fill="rgb(70.196078%, 70.196078%, 70.196078%)" fill-opacity="1" d="M 450.125 247.820312 L 455.125 242.230469 L 457.457031 246.234375 L 450.125 247.820312 "/>
<path fill="none" stroke-width="1.5" stroke-linecap="butt" stroke-linejoin="miter" stroke="rgb(41.568627%, 23.921569%, 60.392157%)" stroke-opacity="1" stroke-miterlimit="10" d="M 140.417969 433.265625 C 144.941406 415.75 143.042969 398.804688 132.039062 384.492188 "/>
<path fill-rule="nonzero" fill="rgb(41.568627%, 23.921569%, 60.392157%)" fill-opacity="1" d="M 127.6875 378.839844 L 133.875 383.078125 L 130.199219 385.90625 L 127.6875 378.839844 "/>
<path fill="none" stroke-width="1.5" stroke-linecap="butt" stroke-linejoin="miter" stroke="rgb(12.156863%, 47.058824%, 70.588235%)" stroke-opacity="1" stroke-miterlimit="10" d="M 608.195312 283.621094 C 591.480469 259.082031 568.503906 243.742188 538.949219 241.160156 "/>
<path fill-rule="nonzero" fill="rgb(12.156863%, 47.058824%, 70.588235%)" fill-opacity="1" d="M 531.84375 240.539062 L 539.152344 238.851562 L 538.746094 243.46875 L 531.84375 240.539062 "/>
<path fill="none" stroke-width="1.5" stroke-linecap="butt" stroke-linejoin="miter" stroke="rgb(98.431373%, 60.392157%, 60%)" stroke-opacity="1" stroke-miterlimit="10" d="M 516.289062 284.933594 C 525.28125 275.972656 530.578125 264.980469 528.667969 252.488281 "/>
<path fill-rule="nonzero" fill="rgb(98.431373%, 60.392157%, 60%)" fill-opacity="1" d="M 527.589844 245.4375 L 530.957031 252.136719 L 526.375 252.835938 L 527.589844 245.4375 "/>
<path fill="none" stroke-width="1.5" stroke-linecap="butt" stroke-linejoin="miter" stroke="rgb(12.156863%, 47.058824%, 70.588235%)" stroke-opacity="1" stroke-miterlimit="10" d="M 642.65625 261.980469 C 630.980469 262.199219 620.425781 266.101562 613.773438 275.628906 "/>
<path fill-rule="nonzero" fill="rgb(12.156863%, 47.058824%, 70.588235%)" fill-opacity="1" d="M 609.691406 281.480469 L 611.875 274.304688 L 615.671875 276.957031 L 609.691406 281.480469 "/>
<path fill-rule="nonzero" fill="rgb(100%, 84.313725%, 0%)" fill-opacity="1" stroke-width="1" stroke-linecap="butt" stroke-linejoin="miter" stroke="rgb(100%, 84.313725%, 0%)" stroke-opacity="1" stroke-miterlimit="10" d="M 46.75 555.246094 L 53.25 555.246094 L 53.25 561.746094 L 46.75 561.746094 Z M 46.75 555.246094 "/>
<path fill-rule="nonzero" fill="rgb(12.156863%, 47.058824%, 70.588235%)" fill-opacity="1" stroke-width="1" stroke-linecap="butt" stroke-linejoin="miter" stroke="rgb(12.156863%, 47.058824%, 70.588235%)" stroke-opacity="1" stroke-miterlimit="10" d="M 414.28125 158.769531 C 414.28125 162.433594 408.78125 162.433594 408.78125 158.769531 C 408.78125 155.101562 414.28125 155.101562 414.28125 158.769531 "/>
<path fill-rule="nonzero" fill="rgb(12.156863%, 47.058824%, 70.588235%)" fill-opacity="1" stroke-width="1" stroke-linecap="butt" stroke-linejoin="miter" stroke="rgb(12.156863%, 47.058824%, 70.588235%)" stroke-opacity="1" stroke-miterlimit="10" d="M 688.800781 436.046875 C 688.800781 439.714844 683.300781 439.714844 683.300781 436.046875 C 683.300781 432.378906 688.800781 432.378906 688.800781 436.046875 "/>
<path fill-rule="nonzero" fill="rgb(30.196078%, 68.627451%, 29.019608%)" fill-opacity="1" stroke-width="1" stroke-linecap="butt" stroke-linejoin="miter" stroke="rgb(30.196078%, 68.627451%, 29.019608%)" stroke-opacity="1" stroke-miterlimit="10" d="M 445.25 722.035156 C 445.25 725.703125 439.75 725.703125 439.75 722.035156 C 439.75 718.371094 445.25 718.371094 445.25 722.035156 "/>
<path fill-rule="nonzero" fill="rgb(12.156863%, 47.058824%, 70.588235%)" fill-opacity="1" stroke-width="1" stroke-linecap="butt" stroke-linejoin="miter" stroke="rgb(12.156863%, 47.058824%, 70.588235%)" stroke-opacity="1" stroke-miterlimit="10" d="M 686.917969 535.285156 C 686.917969 538.949219 681.417969 538.949219 681.417969 535.285156 C 681.417969 531.617188 686.917969 531.617188 686.917969 535.285156 "/>
<path fill-rule="nonzero" fill="rgb(12.156863%, 47.058824%, 70.588235%)" fill-opacity="1" stroke-width="1" stroke-linecap="butt" stroke-linejoin="miter" stroke="rgb(12.156863%, 47.058824%, 70.588235%)" stroke-opacity="1" stroke-miterlimit="10" d="M 673.402344 219.710938 C 673.402344 223.378906 667.902344 223.378906 667.902344 219.710938 C 667.902344 216.046875 673.402344 216.046875 673.402344 219.710938 "/>
<path fill-rule="nonzero" fill="rgb(12.156863%, 47.058824%, 70.588235%)" fill-opacity="1" stroke-width="1" stroke-linecap="butt" stroke-linejoin="miter" stroke="rgb(12.156863%, 47.058824%, 70.588235%)" stroke-opacity="1" stroke-miterlimit="10" d="M 627.144531 595.5625 C 627.144531 599.230469 621.644531 599.230469 621.644531 595.5625 C 621.644531 591.898438 627.144531 591.898438 627.144531 595.5625 "/>
<path fill-rule="nonzero" fill="rgb(30.196078%, 68.627451%, 29.019608%)" fill-opacity="1" stroke-width="1" stroke-linecap="butt" stroke-linejoin="miter" stroke="rgb(30.196078%, 68.627451%, 29.019608%)" stroke-opacity="1" stroke-miterlimit="10" d="M 112.683594 568.902344 C 112.683594 572.570312 107.183594 572.570312 107.183594 568.902344 C 107.183594 565.238281 112.683594 565.238281 112.683594 568.902344 "/>
<path fill-rule="nonzero" fill="rgb(30.196078%, 68.627451%, 29.019608%)" fill-opacity="1" stroke-width="1" stroke-linecap="butt" stroke-linejoin="miter" stroke="rgb(30.196078%, 68.627451%, 29.019608%)" stroke-opacity="1" stroke-miterlimit="10" d="M 493.164062 666.167969 C 493.164062 669.832031 487.664062 669.832031 487.664062 666.167969 C 487.664062 662.5 493.164062 662.5 493.164062 666.167969 "/>
<path fill-rule="nonzero" fill="rgb(30.196078%, 68.627451%, 29.019608%)" fill-opacity="1" stroke-width="1" stroke-linecap="butt" stroke-linejoin="miter" stroke="rgb(30.196078%, 68.627451%, 29.019608%)" stroke-opacity="1" stroke-miterlimit="10" d="M 241.53125 546.734375 C 241.53125 550.402344 236.03125 550.402344 236.03125 546.734375 C 236.03125 543.066406 241.53125 543.066406 241.53125 546.734375 "/>
<path fill-rule="nonzero" fill="rgb(30.196078%, 68.627451%, 29.019608%)" fill-opacity="1" stroke-width="1" stroke-linecap="butt" stroke-linejoin="miter" stroke="rgb(30.196078%, 68.627451%, 29.019608%)" stroke-opacity="1" stroke-miterlimit="10" d="M 347.742188 471.328125 C 347.742188 474.996094 342.242188 474.996094 342.242188 471.328125 C 342.242188 467.664062 347.742188 467.664062 347.742188 471.328125 "/>
<path fill-rule="nonzero" fill="rgb(30.196078%, 68.627451%, 29.019608%)" fill-opacity="1" stroke-width="1" stroke-linecap="butt" stroke-linejoin="miter" stroke="rgb(30.196078%, 68.627451%, 29.019608%)" stroke-opacity="1" stroke-miterlimit="10" d="M 187.757812 736.425781 C 187.757812 740.09375 182.257812 740.09375 182.257812 736.425781 C 182.257812 732.757812 187.757812 732.757812 187.757812 736.425781 "/>
<path fill-rule="nonzero" fill="rgb(30.196078%, 68.627451%, 29.019608%)" fill-opacity="1" stroke-width="1" stroke-linecap="butt" stroke-linejoin="miter" stroke="rgb(30.196078%, 68.627451%, 29.019608%)" stroke-opacity="1" stroke-miterlimit="10" d="M 249.164062 750 C 249.164062 753.667969 243.664062 753.667969 243.664062 750 C 243.664062 746.332031 249.164062 746.332031 249.164062 750 "/>
<path fill-rule="nonzero" fill="rgb(30.196078%, 68.627451%, 29.019608%)" fill-opacity="1" stroke-width="1" stroke-linecap="butt" stroke-linejoin="miter" stroke="rgb(30.196078%, 68.627451%, 29.019608%)" stroke-opacity="1" stroke-miterlimit="10" d="M 311.195312 748.386719 C 311.195312 752.054688 305.695312 752.054688 305.695312 748.386719 C 305.695312 744.71875 311.195312 744.71875 311.195312 748.386719 "/>
<path fill-rule="nonzero" fill="rgb(14.901961%, 14.901961%, 14.901961%)" fill-opacity="1" stroke-width="1" stroke-linecap="butt" stroke-linejoin="miter" stroke="rgb(14.901961%, 14.901961%, 14.901961%)" stroke-opacity="1" stroke-miterlimit="10" d="M 129.679688 707.039062 L 133.429688 699.539062 L 137.179688 707.039062 Z M 129.679688 707.039062 "/>
<path fill-rule="nonzero" fill="rgb(30.196078%, 68.627451%, 29.019608%)" fill-opacity="1" stroke-width="1" stroke-linecap="butt" stroke-linejoin="miter" stroke="rgb(30.196078%, 68.627451%, 29.019608%)" stroke-opacity="1" stroke-miterlimit="10" d="M 382.117188 744.597656 C 382.117188 748.261719 376.617188 748.261719 376.617188 744.597656 C 376.617188 740.929688 382.117188 740.929688 382.117188 744.597656 "/>
<path fill-rule="nonzero" fill="rgb(98.431373%, 60.392157%, 60%)" fill-opacity="1" stroke-width="1" stroke-linecap="butt" stroke-linejoin="miter" stroke="rgb(98.431373%, 60.392157%, 60%)" stroke-opacity="1" stroke-miterlimit="10" d="M 571.078125 391.773438 C 571.078125 395.441406 565.578125 395.441406 565.578125 391.773438 C 565.578125 388.109375 571.078125 388.109375 571.078125 391.773438 "/>
<path fill-rule="nonzero" fill="rgb(12.156863%, 47.058824%, 70.588235%)" fill-opacity="1" stroke-width="1" stroke-linecap="butt" stroke-linejoin="miter" stroke="rgb(12.156863%, 47.058824%, 70.588235%)" stroke-opacity="1" stroke-miterlimit="10" d="M 597.144531 113.785156 C 597.144531 117.453125 591.644531 117.453125 591.644531 113.785156 C 591.644531 110.117188 597.144531 110.117188 597.144531 113.785156 "/>
<path fill-rule="nonzero" fill="rgb(30.196078%, 68.627451%, 29.019608%)" fill-opacity="1" stroke-width="1" stroke-linecap="butt" stroke-linejoin="miter" stroke="rgb(30.196078%, 68.627451%, 29.019608%)" stroke-opacity="1" stroke-miterlimit="10" d="M 302.546875 517.097656 C 302.546875 520.765625 297.046875 520.765625 297.046875 517.097656 C 297.046875 513.433594 302.546875 513.433594 302.546875 517.097656 "/>
<path fill-rule="nonzero" fill="rgb(98.431373%, 60.392157%, 60%)" fill-opacity="1" stroke-width="1" stroke-linecap="butt" stroke-linejoin="miter" stroke="rgb(98.431373%, 60.392157%, 60%)" stroke-opacity="1" stroke-miterlimit="10" d="M 446.457031 376.191406 C 446.457031 379.859375 440.957031 379.859375 440.957031 376.191406 C 440.957031 372.527344 446.457031 372.527344 446.457031 376.191406 "/>
<path fill-rule="nonzero" fill="rgb(30.196078%, 68.627451%, 29.019608%)" fill-opacity="1" stroke-width="1" stroke-linecap="butt" stroke-linejoin="miter" stroke="rgb(30.196078%, 68.627451%, 29.019608%)" stroke-opacity="1" stroke-miterlimit="10" d="M 179.4375 561.3125 C 179.4375 564.976562 173.9375 564.976562 173.9375 561.3125 C 173.9375 557.644531 179.4375 557.644531 179.4375 561.3125 "/>
<path fill-rule="nonzero" fill="rgb(99.215686%, 74.901961%, 43.529412%)" fill-opacity="1" stroke-width="1" stroke-linecap="butt" stroke-linejoin="miter" stroke="rgb(99.215686%, 74.901961%, 43.529412%)" stroke-opacity="1" stroke-miterlimit="10" d="M 710.082031 379.375 C 710.082031 383.042969 704.582031 383.042969 704.582031 379.375 C 704.582031 375.707031 710.082031 375.707031 710.082031 379.375 "/>
<path fill-rule="nonzero" fill="rgb(99.215686%, 74.901961%, 43.529412%)" fill-opacity="1" stroke-width="1" stroke-linecap="butt" stroke-linejoin="miter" stroke="rgb(99.215686%, 74.901961%, 43.529412%)" stroke-opacity="1" stroke-miterlimit="10" d="M 513.042969 421.105469 C 513.042969 424.773438 507.542969 424.773438 507.542969 421.105469 C 507.542969 417.441406 513.042969 417.441406 513.042969 421.105469 "/>
<path fill-rule="nonzero" fill="rgb(30.196078%, 68.627451%, 29.019608%)" fill-opacity="1" stroke-width="1" stroke-linecap="butt" stroke-linejoin="miter" stroke="rgb(30.196078%, 68.627451%, 29.019608%)" stroke-opacity="1" stroke-miterlimit="10" d="M 403.109375 517.125 C 403.109375 520.792969 397.609375 520.792969 397.609375 517.125 C 397.609375 513.460938 403.109375 513.460938 403.109375 517.125 "/>
<path fill-rule="nonzero" fill="rgb(99.215686%, 74.901961%, 43.529412%)" fill-opacity="1" stroke-width="1" stroke-linecap="butt" stroke-linejoin="miter" stroke="rgb(99.215686%, 74.901961%, 43.529412%)" stroke-opacity="1" stroke-miterlimit="10" d="M 751.363281 260.007812 C 751.363281 263.675781 745.863281 263.675781 745.863281 260.007812 C 745.863281 256.339844 751.363281 256.339844 751.363281 260.007812 "/>
<path fill-rule="nonzero" fill="rgb(99.215686%, 74.901961%, 43.529412%)" fill-opacity="1" stroke-width="1" stroke-linecap="butt" stroke-linejoin="miter" stroke="rgb(99.215686%, 74.901961%, 43.529412%)" stroke-opacity="1" stroke-miterlimit="10" d="M 624.929688 453.652344 C 624.929688 458.652344 617.429688 458.652344 617.429688 453.652344 C 617.429688 448.652344 624.929688 448.652344 624.929688 453.652344 "/>
<path fill-rule="nonzero" fill="rgb(30.196078%, 68.627451%, 29.019608%)" fill-opacity="1" stroke-width="1" stroke-linecap="butt" stroke-linejoin="miter" stroke="rgb(30.196078%, 68.627451%, 29.019608%)" stroke-opacity="1" stroke-miterlimit="10" d="M 455.679688 562.238281 C 455.679688 565.902344 450.179688 565.902344 450.179688 562.238281 C 450.179688 558.570312 455.679688 558.570312 455.679688 562.238281 "/>
<path fill-rule="nonzero" fill="rgb(100%, 84.313725%, 0%)" fill-opacity="1" stroke-width="1" stroke-linecap="butt" stroke-linejoin="miter" stroke="rgb(100%, 84.313725%, 0%)" stroke-opacity="1" stroke-miterlimit="10" d="M 225.488281 385.015625 L 231.988281 385.015625 L 231.988281 391.515625 L 225.488281 391.515625 Z M 225.488281 385.015625 "/>
<path fill-rule="nonzero" fill="rgb(99.215686%, 74.901961%, 43.529412%)" fill-opacity="1" stroke-width="1" stroke-linecap="butt" stroke-linejoin="miter" stroke="rgb(99.215686%, 74.901961%, 43.529412%)" stroke-opacity="1" stroke-miterlimit="10" d="M 713.410156 297.816406 C 713.410156 302.152344 706.910156 302.152344 706.910156 297.816406 C 706.910156 293.484375 713.410156 293.484375 713.410156 297.816406 "/>
<path fill-rule="nonzero" fill="rgb(99.215686%, 74.901961%, 43.529412%)" fill-opacity="1" stroke-width="1" stroke-linecap="butt" stroke-linejoin="miter" stroke="rgb(99.215686%, 74.901961%, 43.529412%)" stroke-opacity="1" stroke-miterlimit="10" d="M 558.226562 338.9375 C 558.226562 342.605469 552.726562 342.605469 552.726562 338.9375 C 552.726562 335.273438 558.226562 335.273438 558.226562 338.9375 "/>
<path fill-rule="nonzero" fill="rgb(99.215686%, 74.901961%, 43.529412%)" fill-opacity="1" stroke-width="1" stroke-linecap="butt" stroke-linejoin="miter" stroke="rgb(99.215686%, 74.901961%, 43.529412%)" stroke-opacity="1" stroke-miterlimit="10" d="M 577.964844 491.8125 C 577.964844 495.480469 572.464844 495.480469 572.464844 491.8125 C 572.464844 488.144531 577.964844 488.144531 577.964844 491.8125 "/>
<path fill-rule="nonzero" fill="rgb(41.568627%, 23.921569%, 60.392157%)" fill-opacity="1" stroke-width="1" stroke-linecap="butt" stroke-linejoin="miter" stroke="rgb(41.568627%, 23.921569%, 60.392157%)" stroke-opacity="1" stroke-miterlimit="10" d="M 201.199219 440.824219 C 201.199219 444.488281 195.699219 444.488281 195.699219 440.824219 C 195.699219 437.15625 201.199219 437.15625 201.199219 440.824219 "/>
<path fill-rule="nonzero" fill="rgb(98.431373%, 60.392157%, 60%)" fill-opacity="1" stroke-width="1" stroke-linecap="butt" stroke-linejoin="miter" stroke="rgb(98.431373%, 60.392157%, 60%)" stroke-opacity="1" stroke-miterlimit="10" d="M 373.011719 92.417969 C 373.011719 96.085938 367.511719 96.085938 367.511719 92.417969 C 367.511719 88.75 373.011719 88.75 373.011719 92.417969 "/>
<path fill-rule="nonzero" fill="rgb(12.156863%, 47.058824%, 70.588235%)" fill-opacity="1" stroke-width="1" stroke-linecap="butt" stroke-linejoin="miter" stroke="rgb(12.156863%, 47.058824%, 70.588235%)" stroke-opacity="1" stroke-miterlimit="10" d="M 550.164062 610.359375 C 550.164062 614.027344 544.664062 614.027344 544.664062 610.359375 C 544.664062 606.695312 550.164062 606.695312 550.164062 610.359375 "/>
<path fill-rule="nonzero" fill="rgb(14.901961%, 14.901961%, 14.901961%)" fill-opacity="1" stroke-width="1" stroke-linecap="butt" stroke-linejoin="miter" stroke="rgb(14.901961%, 14.901961%, 14.901961%)" stroke-opacity="1" stroke-miterlimit="10" d="M 448.984375 630.632812 L 452.734375 623.132812 L 456.484375 630.632812 Z M 448.984375 630.632812 "/>
<path fill-rule="nonzero" fill="rgb(99.215686%, 74.901961%, 43.529412%)" fill-opacity="1" stroke-width="1" stroke-linecap="butt" stroke-linejoin="miter" stroke="rgb(99.215686%, 74.901961%, 43.529412%)" stroke-opacity="1" stroke-miterlimit="10" d="M 752.75 347.3125 C 752.75 350.980469 747.25 350.980469 747.25 347.3125 C 747.25 343.644531 752.75 343.644531 752.75 347.3125 "/>
<path fill-rule="nonzero" fill="rgb(99.215686%, 74.901961%, 43.529412%)" fill-opacity="1" stroke-width="1" stroke-linecap="butt" stroke-linejoin="miter" stroke="rgb(99.215686%, 74.901961%, 43.529412%)" stroke-opacity="1" stroke-miterlimit="10" d="M 503.257812 360.945312 C 503.257812 364.609375 497.757812 364.609375 497.757812 360.945312 C 497.757812 357.277344 503.257812 357.277344 503.257812 360.945312 "/>
<path fill-rule="nonzero" fill="rgb(98.431373%, 60.392157%, 60%)" fill-opacity="1" stroke-width="1" stroke-linecap="butt" stroke-linejoin="miter" stroke="rgb(98.431373%, 60.392157%, 60%)" stroke-opacity="1" stroke-miterlimit="10" d="M 465.644531 142.574219 C 465.644531 146.242188 460.144531 146.242188 460.144531 142.574219 C 460.144531 138.910156 465.644531 138.910156 465.644531 142.574219 "/>
<path fill-rule="nonzero" fill="rgb(98.431373%, 60.392157%, 60%)" fill-opacity="1" stroke-width="1" stroke-linecap="butt" stroke-linejoin="miter" stroke="rgb(98.431373%, 60.392157%, 60%)" stroke-opacity="1" stroke-miterlimit="10" d="M 586.316406 225.890625 C 586.316406 229.558594 580.816406 229.558594 580.816406 225.890625 C 580.816406 222.226562 586.316406 222.226562 586.316406 225.890625 "/>
<path fill-rule="nonzero" fill="rgb(14.901961%, 14.901961%, 14.901961%)" fill-opacity="1" stroke-width="1" stroke-linecap="butt" stroke-linejoin="miter" stroke="rgb(14.901961%, 14.901961%, 14.901961%)" stroke-opacity="1" stroke-miterlimit="10" d="M 622.101562 398.359375 L 625.851562 390.859375 L 629.601562 398.359375 Z M 622.101562 398.359375 "/>
<path fill-rule="nonzero" fill="rgb(99.215686%, 74.901961%, 43.529412%)" fill-opacity="1" stroke-width="1" stroke-linecap="butt" stroke-linejoin="miter" stroke="rgb(99.215686%, 74.901961%, 43.529412%)" stroke-opacity="1" stroke-miterlimit="10" d="M 635.980469 499.300781 C 635.980469 502.964844 630.480469 502.964844 630.480469 499.300781 C 630.480469 495.632812 635.980469 495.632812 635.980469 499.300781 "/>
<path fill-rule="nonzero" fill="rgb(41.568627%, 23.921569%, 60.392157%)" fill-opacity="1" stroke-width="1" stroke-linecap="butt" stroke-linejoin="miter" stroke="rgb(41.568627%, 23.921569%, 60.392157%)" stroke-opacity="1" stroke-miterlimit="10" d="M 128.839844 376.761719 C 128.839844 380.425781 123.339844 380.425781 123.339844 376.761719 C 123.339844 373.09375 128.839844 373.09375 128.839844 376.761719 "/>
<path fill-rule="nonzero" fill="rgb(98.431373%, 60.392157%, 60%)" fill-opacity="1" stroke-width="1" stroke-linecap="butt" stroke-linejoin="miter" stroke="rgb(98.431373%, 60.392157%, 60%)" stroke-opacity="1" stroke-miterlimit="10" d="M 231.914062 74.34375 C 231.914062 78.011719 226.414062 78.011719 226.414062 74.34375 C 226.414062 70.675781 231.914062 70.675781 231.914062 74.34375 "/>
<path fill-rule="nonzero" fill="rgb(70.196078%, 70.196078%, 70.196078%)" fill-opacity="1" stroke-width="1" stroke-linecap="butt" stroke-linejoin="miter" stroke="rgb(70.196078%, 70.196078%, 70.196078%)" stroke-opacity="1" stroke-miterlimit="10" d="M 450.988281 250.140625 C 450.988281 256.609375 441.289062 256.609375 441.289062 250.140625 C 441.289062 243.675781 450.988281 243.675781 450.988281 250.140625 "/>
<path fill-rule="nonzero" fill="rgb(41.568627%, 23.921569%, 60.392157%)" fill-opacity="1" stroke-width="1" stroke-linecap="butt" stroke-linejoin="miter" stroke="rgb(41.568627%, 23.921569%, 60.392157%)" stroke-opacity="1" stroke-miterlimit="10" d="M 116.15625 313.714844 C 116.15625 317.382812 110.65625 317.382812 110.65625 313.714844 C 110.65625 310.046875 116.15625 310.046875 116.15625 313.714844 "/>
<path fill-rule="nonzero" fill="rgb(14.901961%, 14.901961%, 14.901961%)" fill-opacity="1" stroke-width="1" stroke-linecap="butt" stroke-linejoin="miter" stroke="rgb(14.901961%, 14.901961%, 14.901961%)" stroke-opacity="1" stroke-miterlimit="10" d="M 129.5 266.125 L 133.25 258.625 L 137 266.125 Z M 129.5 266.125 "/>
<path fill-rule="nonzero" fill="rgb(98.431373%, 60.392157%, 60%)" fill-opacity="1" stroke-width="1" stroke-linecap="butt" stroke-linejoin="miter" stroke="rgb(98.431373%, 60.392157%, 60%)" stroke-opacity="1" stroke-miterlimit="10" d="M 301.160156 80.644531 C 301.160156 84.308594 295.660156 84.308594 295.660156 80.644531 C 295.660156 76.976562 301.160156 76.976562 301.160156 80.644531 "/>
<path fill-rule="nonzero" fill="rgb(98.431373%, 60.392157%, 60%)" fill-opacity="1" stroke-width="1" stroke-linecap="butt" stroke-linejoin="miter" stroke="rgb(98.431373%, 60.392157%, 60%)" stroke-opacity="1" stroke-miterlimit="10" d="M 532.816406 165.121094 C 532.816406 168.785156 527.316406 168.785156 527.316406 165.121094 C 527.316406 161.453125 532.816406 161.453125 532.816406 165.121094 "/>
<path fill-rule="nonzero" fill="rgb(12.156863%, 47.058824%, 70.588235%)" fill-opacity="1" stroke-width="1" stroke-linecap="butt" stroke-linejoin="miter" stroke="rgb(12.156863%, 47.058824%, 70.588235%)" stroke-opacity="1" stroke-miterlimit="10" d="M 491.164062 77.484375 C 491.164062 81.152344 485.664062 81.152344 485.664062 77.484375 C 485.664062 73.816406 491.164062 73.816406 491.164062 77.484375 "/>
<path fill-rule="nonzero" fill="rgb(100%, 84.313725%, 0%)" fill-opacity="1" stroke-width="1" stroke-linecap="butt" stroke-linejoin="miter" stroke="rgb(100%, 84.313725%, 0%)" stroke-opacity="1" stroke-miterlimit="10" d="M 469.445312 318.0625 L 475.945312 318.0625 L 475.945312 324.5625 L 469.445312 324.5625 Z M 469.445312 318.0625 "/>
<path fill-rule="nonzero" fill="rgb(70.196078%, 70.196078%, 70.196078%)" fill-opacity="1" stroke-width="1" stroke-linecap="butt" stroke-linejoin="miter" stroke="rgb(70.196078%, 70.196078%, 70.196078%)" stroke-opacity="1" stroke-miterlimit="10" d="M 532.121094 240.09375 C 532.121094 247.226562 521.421875 247.226562 521.421875 240.09375 C 521.421875 232.960938 532.121094 232.960938 532.121094 240.09375 "/>
<path fill-rule="nonzero" fill="rgb(41.568627%, 23.921569%, 60.392157%)" fill-opacity="1" stroke-width="1" stroke-linecap="butt" stroke-linejoin="miter" stroke="rgb(41.568627%, 23.921569%, 60.392157%)" stroke-opacity="1" stroke-miterlimit="10" d="M 143.167969 433.265625 C 143.167969 436.933594 137.667969 436.933594 137.667969 433.265625 C 137.667969 429.601562 143.167969 429.601562 143.167969 433.265625 "/>
<path fill-rule="nonzero" fill="rgb(14.901961%, 14.901961%, 14.901961%)" fill-opacity="1" stroke-width="1" stroke-linecap="butt" stroke-linejoin="miter" stroke="rgb(14.901961%, 14.901961%, 14.901961%)" stroke-opacity="1" stroke-miterlimit="10" d="M 179.121094 53.75 L 182.871094 46.25 L 186.621094 53.75 Z M 179.121094 53.75 "/>
<path fill-rule="nonzero" fill="rgb(12.156863%, 47.058824%, 70.588235%)" fill-opacity="1" stroke-width="1" stroke-linecap="butt" stroke-linejoin="miter" stroke="rgb(12.156863%, 47.058824%, 70.588235%)" stroke-opacity="1" stroke-miterlimit="10" d="M 610.945312 283.621094 C 610.945312 287.289062 605.445312 287.289062 605.445312 283.621094 C 605.445312 279.953125 610.945312 279.953125 610.945312 283.621094 "/>
<path fill-rule="nonzero" fill="rgb(100%, 84.313725%, 0%)" fill-opacity="1" stroke-width="1" stroke-linecap="butt" stroke-linejoin="miter" stroke="rgb(100%, 84.313725%, 0%)" stroke-opacity="1" stroke-miterlimit="10" d="M 513.039062 281.683594 L 519.539062 281.683594 L 519.539062 288.183594 L 513.039062 288.183594 Z M 513.039062 281.683594 "/>
<path fill-rule="nonzero" fill="rgb(100%, 84.313725%, 0%)" fill-opacity="1" stroke-width="1" stroke-linecap="butt" stroke-linejoin="miter" stroke="rgb(100%, 84.313725%, 0%)" stroke-opacity="1" stroke-miterlimit="10" d="M 639.40625 258.730469 L 645.90625 258.730469 L 645.90625 265.230469 L 639.40625 265.230469 Z M 639.40625 258.730469 "/>
</svg>
