<?xml version="1.0" encoding="UTF-8"?>
<svg xmlns="http://www.w3.org/2000/svg" xmlns:xlink="http://www.w3.org/1999/xlink" width="800" height="800" viewBox="0 0 800 800">
<rect x="-80" y="-80" width="960" height="960" fill="rgb(100%, 100%, 100%)" fill-opacity="1"/>
<path fill="none" stroke-width="5.5" stroke-linecap="butt" stroke-linejoin="miter" stroke="rgb(70.196078%, 70.196078%, 70.196078%)" stroke-opacity="1" stroke-miterlimit="10" d="M 134.355469 664.25 C 115.976562 685.339844 107.40625 709.957031 112.179688 737.492188 "/>
<path fill-rule="nonzero" fill="rgb(70.196078%, 70.196078%, 70.196078%)" fill-opacity="1" d="M 113.398438 744.523438 L 109.898438 737.890625 L 114.464844 737.097656 L 113.398438 744.523438 "/>
<path fill="none" stroke-width="5.5" stroke-linecap="butt" stroke-linejoin="miter" stroke="rgb(70.196078%, 70.196078%, 70.196078%)" stroke-opacity="1" stroke-miterlimit="10" d="M 111.878906 533.515625 C 99.085938 576.21875 103.4375 617.167969 127.898438 654.417969 "/>
<path fill-rule="nonzero" fill="rgb(70.196078%, 70.196078%, 70.196078%)" fill-opacity="1" d="M 131.8125 660.378906 L 125.960938 655.691406 L 129.835938 653.144531 L 131.8125 660.378906 "/>
<path fill="none" stroke-width="5.5" stroke-linecap="butt" stroke-linejoin="miter" stroke="rgb(70.196078%, 70.196078%, 70.196078%)" stroke-opacity="1" stroke-miterlimit="10" d="M 130.8125 395.1875 C 104.382812 434.203125 95.871094 476.859375 108.679688 522.195312 "/>
<path fill-rule="nonzero" fill="rgb(70.196078%, 70.196078%, 70.196078%)" fill-opacity="1" d="M 110.621094 529.0625 L 106.449219 522.828125 L 110.910156 521.566406 L 110.621094 529.0625 "/>
<path fill="none" stroke-width="5.5" stroke-linecap="butt" stroke-linejoin="miter" stroke="rgb(70.196078%, 70.196078%, 70.196078%)" stroke-opacity="1" stroke-miterlimit="10" d="M 170.777344 261.632812 C 138.703125 296.050781 123.738281 336.816406 129.398438 383.507812 "/>
<path fill-rule="nonzero" fill="rgb(70.196078%, 70.196078%, 70.196078%)" fill-opacity="1" d="M 130.257812 390.589844 L 127.097656 383.789062 L 131.699219 383.230469 L 130.257812 390.589844 "/>
<path fill="none" stroke-width="5.5" stroke-linecap="butt" stroke-linejoin="miter" stroke="rgb(70.196078%, 70.196078%, 70.196078%)" stroke-opacity="1" stroke-miterlimit="10" d="M 274.070312 181.820312 C 231.101562 190.34375 197.523438 212.941406 176.441406 251.324219 "/>
<path fill-rule="nonzero" fill="rgb(70.196078%, 70.196078%, 70.196078%)" fill-opacity="1" d="M 173.007812 257.574219 L 174.410156 250.207031 L 178.472656 252.441406 L 173.007812 257.574219 "/>
<path fill="none" stroke-width="5.5" stroke-linecap="butt" stroke-linejoin="miter" stroke="rgb(70.196078%, 70.196078%, 70.196078%)" stroke-opacity="1" stroke-miterlimit="10" d="M 360.070312 181.875 C 335.707031 169.039062 310.179688 166.402344 284.875 177.207031 "/>
<path fill-rule="nonzero" fill="rgb(70.196078%, 70.196078%, 70.196078%)" fill-opacity="1" d="M 278.316406 180.007812 L 283.964844 175.074219 L 285.785156 179.335938 L 278.316406 180.007812 "/>
<path fill="none" stroke-width="5.5" stroke-linecap="butt" stroke-linejoin="miter" stroke="rgb(70.196078%, 70.196078%, 70.196078%)" stroke-opacity="1" stroke-miterlimit="10" d="M 442.703125 231.703125 C 426.273438 204.976562 402.769531 187.734375 371.710938 183.472656 "/>
<path fill-rule="nonzero" fill="rgb(70.196078%, 70.196078%, 70.196078%)" fill-opacity="1" d="M 364.644531 182.503906 L 372.027344 181.175781 L 371.398438 185.769531 L 364.644531 182.503906 "/>
<path fill="none" stroke-width="5.5" stroke-linecap="butt" stroke-linejoin="miter" stroke="rgb(70.196078%, 70.196078%, 70.196078%)" stroke-opacity="1" stroke-miterlimit="10" d="M 477.09375 397.3125 C 491.308594 341.167969 483.082031 288.476562 449.523438 241.289062 "/>
<path fill-rule="nonzero" fill="rgb(70.196078%, 70.196078%, 70.196078%)" fill-opacity="1" d="M 445.390625 235.476562 L 451.414062 239.949219 L 447.636719 242.632812 L 445.390625 235.476562 "/>
<path fill="none" stroke-width="5.5" stroke-linecap="butt" stroke-linejoin="miter" stroke="rgb(70.196078%, 70.196078%, 70.196078%)" stroke-opacity="1" stroke-miterlimit="10" d="M 586.390625 478.378906 C 565.542969 437.5625 533.195312 410.273438 488.554688 399.960938 "/>
<path fill-rule="nonzero" fill="rgb(70.196078%, 70.196078%, 70.196078%)" fill-opacity="1" d="M 481.605469 398.351562 L 489.078125 397.699219 L 488.035156 402.21875 L 481.605469 398.351562 "/>
<path fill="none" stroke-width="5.5" stroke-linecap="butt" stroke-linejoin="miter" stroke="rgb(70.196078%, 70.196078%, 70.196078%)" stroke-opacity="1" stroke-miterlimit="10" d="M 617.433594 404.054688 C 597.671875 420.242188 586.117188 441.109375 586.304688 466.632812 "/>
<path fill-rule="nonzero" fill="rgb(70.196078%, 70.196078%, 70.196078%)" fill-opacity="1" d="M 586.359375 473.765625 L 583.988281 466.648438 L 588.625 466.613281 L 586.359375 473.765625 "/>
<path fill="none" stroke-width="5.5" stroke-linecap="butt" stroke-linejoin="miter" stroke="rgb(70.196078%, 70.196078%, 70.196078%)" stroke-opacity="1" stroke-miterlimit="10" d="M 528.476562 298.453125 C 539.554688 343.675781 565.171875 378.195312 606.890625 398.835938 "/>
<path fill-rule="nonzero" fill="rgb(70.196078%, 70.196078%, 70.196078%)" fill-opacity="1" d="M 613.285156 402 L 605.863281 400.914062 L 607.917969 396.761719 L 613.285156 402 "/>
<path fill="none" stroke-width="5.5" stroke-linecap="butt" stroke-linejoin="miter" stroke="rgb(70.196078%, 70.196078%, 70.196078%)" stroke-opacity="1" stroke-miterlimit="10" d="M 217.21875 406.726562 C 232.257812 387.316406 238.648438 365.273438 232.953125 341.417969 "/>
<path fill-rule="nonzero" fill="rgb(70.196078%, 70.196078%, 70.196078%)" fill-opacity="1" d="M 231.296875 334.480469 L 235.207031 340.882812 L 230.699219 341.957031 L 231.296875 334.480469 "/>
<path fill="none" stroke-width="5.5" stroke-linecap="butt" stroke-linejoin="miter" stroke="rgb(70.196078%, 70.196078%, 70.196078%)" stroke-opacity="1" stroke-miterlimit="10" d="M 229.1875 498.988281 C 239.515625 470.707031 238.535156 442.722656 223.207031 416.835938 "/>
<path fill-rule="nonzero" fill="rgb(70.196078%, 70.196078%, 70.196078%)" fill-opacity="1" d="M 219.570312 410.699219 L 225.199219 415.65625 L 221.210938 418.019531 L 219.570312 410.699219 "/>
<path fill="none" stroke-width="5.5" stroke-linecap="butt" stroke-linejoin="miter" stroke="rgb(70.196078%, 70.196078%, 70.196078%)" stroke-opacity="1" stroke-miterlimit="10" d="M 297.0625 512.332031 C 280.746094 498.660156 261.816406 492.242188 241.003906 496.542969 "/>
<path fill-rule="nonzero" fill="rgb(70.196078%, 70.196078%, 70.196078%)" fill-opacity="1" d="M 234.015625 497.988281 L 240.53125 494.273438 L 241.472656 498.8125 L 234.015625 497.988281 "/>
<path fill="none" stroke-width="5.5" stroke-linecap="butt" stroke-linejoin="miter" stroke="rgb(70.196078%, 70.196078%, 70.196078%)" stroke-opacity="1" stroke-miterlimit="10" d="M 306.402344 608.601562 C 318.074219 579.394531 317.882812 550.167969 302.730469 522.628906 "/>
<path fill-rule="nonzero" fill="rgb(70.196078%, 70.196078%, 70.196078%)" fill-opacity="1" d="M 299.289062 516.378906 L 304.757812 521.511719 L 300.699219 523.746094 L 299.289062 516.378906 "/>
<path fill="none" stroke-width="5.5" stroke-linecap="butt" stroke-linejoin="miter" stroke="rgb(70.196078%, 70.196078%, 70.196078%)" stroke-opacity="1" stroke-miterlimit="10" d="M 422.167969 330.921875 C 458.347656 337.242188 491.5625 329.855469 519.519531 306.070312 "/>
<path fill-rule="nonzero" fill="rgb(70.196078%, 70.196078%, 70.196078%)" fill-opacity="1" d="M 524.953125 301.449219 L 521.023438 307.835938 L 518.019531 304.304688 L 524.953125 301.449219 "/>
<path fill="none" stroke-width="5.5" stroke-linecap="butt" stroke-linejoin="miter" stroke="rgb(70.196078%, 70.196078%, 70.196078%)" stroke-opacity="1" stroke-miterlimit="10" d="M 349.5625 343.324219 C 371.378906 350.710938 392.921875 349.679688 412.285156 337.261719 "/>
<path fill-rule="nonzero" fill="rgb(70.196078%, 70.196078%, 70.196078%)" fill-opacity="1" d="M 418.289062 333.410156 L 413.535156 339.210938 L 411.035156 335.308594 L 418.289062 333.410156 "/>
<path fill="none" stroke-width="5.5" stroke-linecap="butt" stroke-linejoin="miter" stroke="rgb(70.196078%, 70.196078%, 70.196078%)" stroke-opacity="1" stroke-miterlimit="10" d="M 290.492188 312.503906 C 301.703125 329.5 317.285156 340.609375 337.539062 342.3125 "/>
<path fill-rule="nonzero" fill="rgb(70.196078%, 70.196078%, 70.196078%)" fill-opacity="1" d="M 344.648438 342.910156 L 337.34375 344.621094 L 337.734375 340.003906 L 344.648438 342.910156 "/>
<path fill="none" stroke-width="5.5" stroke-linecap="butt" stroke-linejoin="miter" stroke="rgb(70.196078%, 70.196078%, 70.196078%)" stroke-opacity="1" stroke-miterlimit="10" d="M 339.320312 686.925781 C 341.6875 659.871094 334.347656 635.640625 314.847656 616.769531 "/>
<path fill-rule="nonzero" fill="rgb(70.196078%, 70.196078%, 70.196078%)" fill-opacity="1" d="M 309.71875 611.8125 L 316.457031 615.105469 L 313.234375 618.4375 L 309.71875 611.8125 "/>
<path fill="none" stroke-width="5.5" stroke-linecap="butt" stroke-linejoin="miter" stroke="rgb(70.196078%, 70.196078%, 70.196078%)" stroke-opacity="1" stroke-miterlimit="10" d="M 414.300781 697.511719 C 395.132812 683.425781 373.617188 677.75 350.664062 683.890625 "/>
<path fill-rule="nonzero" fill="rgb(70.196078%, 70.196078%, 70.196078%)" fill-opacity="1" d="M 343.773438 685.734375 L 350.066406 681.652344 L 351.265625 686.128906 L 343.773438 685.734375 "/>
<path fill="none" stroke-width="5.5" stroke-linecap="butt" stroke-linejoin="miter" stroke="rgb(70.196078%, 70.196078%, 70.196078%)" stroke-opacity="1" stroke-miterlimit="10" d="M 230.226562 329.996094 C 248.671875 334.316406 266.367188 331.925781 281.097656 320.070312 "/>
<path fill-rule="nonzero" fill="rgb(70.196078%, 70.196078%, 70.196078%)" fill-opacity="1" d="M 286.652344 315.59375 L 282.550781 321.875 L 279.644531 318.261719 L 286.652344 315.59375 "/>
<path fill="none" stroke-width="5.5" stroke-linecap="butt" stroke-linejoin="miter" stroke="rgb(70.196078%, 70.196078%, 70.196078%)" stroke-opacity="1" stroke-miterlimit="10" d="M 479.46875 696.867188 C 462.058594 687.378906 443.5625 684.921875 425.378906 692.742188 "/>
<path fill-rule="nonzero" fill="rgb(70.196078%, 70.196078%, 70.196078%)" fill-opacity="1" d="M 418.828125 695.5625 L 424.464844 690.613281 L 426.296875 694.871094 L 418.828125 695.5625 "/>
<path fill="none" stroke-width="5.5" stroke-linecap="butt" stroke-linejoin="miter" stroke="rgb(70.196078%, 70.196078%, 70.196078%)" stroke-opacity="1" stroke-miterlimit="10" d="M 524.601562 629.574219 C 501.925781 641.71875 486.457031 660.082031 481.660156 685.328125 "/>
<path fill-rule="nonzero" fill="rgb(70.196078%, 70.196078%, 70.196078%)" fill-opacity="1" d="M 480.328125 692.335938 L 479.382812 684.894531 L 483.9375 685.761719 L 480.328125 692.335938 "/>
<path fill="none" stroke-width="5.5" stroke-linecap="butt" stroke-linejoin="miter" stroke="rgb(70.196078%, 70.196078%, 70.196078%)" stroke-opacity="1" stroke-miterlimit="10" d="M 517.488281 530.304688 C 504.730469 560.171875 504.253906 590.324219 519.191406 619.140625 "/>
<path fill-rule="nonzero" fill="rgb(70.196078%, 70.196078%, 70.196078%)" fill-opacity="1" d="M 522.476562 625.472656 L 517.132812 620.207031 L 521.25 618.074219 L 522.476562 625.472656 "/>
<path fill="none" stroke-width="5.5" stroke-linecap="butt" stroke-linejoin="miter" stroke="rgb(70.196078%, 70.196078%, 70.196078%)" stroke-opacity="1" stroke-miterlimit="10" d="M 550.234375 397.117188 C 520.417969 432.4375 507.675781 473.167969 515.496094 518.710938 "/>
<path fill-rule="nonzero" fill="rgb(70.196078%, 70.196078%, 70.196078%)" fill-opacity="1" d="M 516.703125 525.742188 L 513.210938 519.101562 L 517.78125 518.316406 L 516.703125 525.742188 "/>
<path fill="none" stroke-width="5.5" stroke-linecap="butt" stroke-linejoin="miter" stroke="rgb(70.196078%, 70.196078%, 70.196078%)" stroke-opacity="1" stroke-miterlimit="10" d="M 632.707031 305.824219 C 594.445312 320.734375 567.089844 347.074219 553.988281 385.972656 "/>
<path fill-rule="nonzero" fill="rgb(70.196078%, 70.196078%, 70.196078%)" fill-opacity="1" d="M 551.710938 392.734375 L 551.792969 385.234375 L 556.183594 386.714844 L 551.710938 392.734375 "/>
<path fill="none" stroke-width="5.5" stroke-linecap="butt" stroke-linejoin="miter" stroke="rgb(70.196078%, 70.196078%, 70.196078%)" stroke-opacity="1" stroke-miterlimit="10" d="M 419.402344 50 C 459.324219 90.390625 507.722656 110.214844 564.335938 105.945312 "/>
<path fill-rule="nonzero" fill="rgb(70.196078%, 70.196078%, 70.196078%)" fill-opacity="1" d="M 571.449219 105.410156 L 564.511719 108.257812 L 564.164062 103.636719 L 571.449219 105.410156 "/>
<path fill="none" stroke-width="5.5" stroke-linecap="butt" stroke-linejoin="miter" stroke="rgb(70.196078%, 70.196078%, 70.196078%)" stroke-opacity="1" stroke-miterlimit="10" d="M 709.660156 336.613281 C 692.582031 316.480469 670.820312 304.953125 644.453125 305.558594 "/>
<path fill-rule="nonzero" fill="rgb(70.196078%, 70.196078%, 70.196078%)" fill-opacity="1" d="M 637.320312 305.71875 L 644.398438 303.238281 L 644.503906 307.875 L 637.320312 305.71875 "/>
<path fill="none" stroke-width="5.5" stroke-linecap="butt" stroke-linejoin="miter" stroke="rgb(70.196078%, 70.196078%, 70.196078%)" stroke-opacity="1" stroke-miterlimit="10" d="M 677.015625 164.046875 C 683.921875 204.664062 704.269531 236.878906 739.84375 257.628906 "/>
<path fill-rule="nonzero" fill="rgb(70.196078%, 70.196078%, 70.196078%)" fill-opacity="1" d="M 746.003906 261.222656 L 738.675781 259.628906 L 741.007812 255.625 L 746.003906 261.222656 "/>
<path fill="none" stroke-width="5.5" stroke-linecap="butt" stroke-linejoin="miter" stroke="rgb(70.196078%, 70.196078%, 70.196078%)" stroke-opacity="1" stroke-miterlimit="10" d="M 576.070312 105.0625 C 597.191406 137.644531 626.808594 158.011719 665.34375 162.640625 "/>
<path fill-rule="nonzero" fill="rgb(70.196078%, 70.196078%, 70.196078%)" fill-opacity="1" d="M 672.425781 163.492188 L 665.066406 164.941406 L 665.617188 160.339844 L 672.425781 163.492188 "/>
<path fill="none" stroke-width="5.5" stroke-linecap="butt" stroke-linejoin="miter" stroke="rgb(70.196078%, 70.196078%, 70.196078%)" stroke-opacity="1" stroke-miterlimit="10" d="M 750 263.554688 C 727.742188 278.136719 713.519531 298.476562 710.839844 324.925781 "/>
<path fill-rule="nonzero" fill="rgb(70.196078%, 70.196078%, 70.196078%)" fill-opacity="1" d="M 710.125 332.023438 L 708.535156 324.695312 L 713.148438 325.160156 L 710.125 332.023438 "/>
<path fill="none" stroke-width="5.5" stroke-linecap="butt" stroke-linejoin="miter" stroke="rgb(70.196078%, 70.196078%, 70.196078%)" stroke-opacity="1" stroke-miterlimit="10" d="M 50 209.183594 C 75.207031 206.785156 96.25 196 110.1875 174.894531 "/>
<path fill-rule="nonzero" fill="rgb(70.196078%, 70.196078%, 70.196078%)" fill-opacity="1" d="M 114.121094 168.941406 L 112.121094 176.171875 L 108.253906 173.617188 L 114.121094 168.941406 "/>
<path fill="none" stroke-width="5.5" stroke-linecap="butt" stroke-linejoin="miter" stroke="rgb(70.196078%, 70.196078%, 70.196078%)" stroke-opacity="1" stroke-miterlimit="10" d="M 257.570312 65.707031 C 309.585938 85.117188 360.683594 82.828125 409.132812 55.742188 "/>
<path fill-rule="nonzero" fill="rgb(70.196078%, 70.196078%, 70.196078%)" fill-opacity="1" d="M 415.359375 52.261719 L 410.261719 57.765625 L 408 53.71875 L 415.359375 52.261719 "/>
<path fill="none" stroke-width="5.5" stroke-linecap="butt" stroke-linejoin="miter" stroke="rgb(70.196078%, 70.196078%, 70.196078%)" stroke-opacity="1" stroke-miterlimit="10" d="M 116.660156 165.09375 C 175 155.546875 220.957031 126.386719 251.492188 75.78125 "/>
<path fill-rule="nonzero" fill="rgb(70.196078%, 70.196078%, 70.196078%)" fill-opacity="1" d="M 255.175781 69.675781 L 253.476562 76.980469 L 249.507812 74.582031 L 255.175781 69.675781 "/>
<path fill-rule="nonzero" fill="rgb(14.901961%, 14.901961%, 14.901961%)" fill-opacity="1" stroke-width="1" stroke-linecap="butt" stroke-linejoin="miter" stroke="rgb(14.901961%, 14.901961%, 14.901961%)" stroke-opacity="1" stroke-miterlimit="10" d="M 108.5 755.851562 L 114.347656 744.148438 L 120.199219 755.851562 Z M 108.5 755.851562 "/>
<path fill-rule="nonzero" fill="rgb(70.196078%, 70.196078%, 70.196078%)" fill-opacity="1" stroke-width="1" stroke-linecap="butt" stroke-linejoin="miter" stroke="rgb(70.196078%, 70.196078%, 70.196078%)" stroke-opacity="1" stroke-miterlimit="10" d="M 139.207031 664.25 C 139.207031 670.714844 129.503906 670.714844 129.503906 664.25 C 129.503906 657.78125 139.207031 657.78125 139.207031 664.25 "/>
<path fill-rule="nonzero" fill="rgb(70.196078%, 70.196078%, 70.196078%)" fill-opacity="1" stroke-width="1" stroke-linecap="butt" stroke-linejoin="miter" stroke="rgb(70.196078%, 70.196078%, 70.196078%)" stroke-opacity="1" stroke-miterlimit="10" d="M 116.730469 533.515625 C 116.730469 539.984375 107.03125 539.984375 107.03125 533.515625 C 107.03125 527.050781 116.730469 527.050781 116.730469 533.515625 "/>
<path fill-rule="nonzero" fill="rgb(70.196078%, 70.196078%, 70.196078%)" fill-opacity="1" stroke-width="1" stroke-linecap="butt" stroke-linejoin="miter" stroke="rgb(70.196078%, 70.196078%, 70.196078%)" stroke-opacity="1" stroke-miterlimit="10" d="M 135.664062 395.1875 C 135.664062 401.652344 125.964844 401.652344 125.964844 395.1875 C 125.964844 388.71875 135.664062 388.71875 135.664062 395.1875 "/>
<path fill-rule="nonzero" fill="rgb(70.196078%, 70.196078%, 70.196078%)" fill-opacity="1" stroke-width="1" stroke-linecap="butt" stroke-linejoin="miter" stroke="rgb(70.196078%, 70.196078%, 70.196078%)" stroke-opacity="1" stroke-miterlimit="10" d="M 175.628906 261.632812 C 175.628906 268.097656 165.929688 268.097656 165.929688 261.632812 C 165.929688 255.164062 175.628906 255.164062 175.628906 261.632812 "/>
<path fill-rule="nonzero" fill="rgb(70.196078%, 70.196078%, 70.196078%)" fill-opacity="1" stroke-width="1" stroke-linecap="butt" stroke-linejoin="miter" stroke="rgb(70.196078%, 70.196078%, 70.196078%)" stroke-opacity="1" stroke-miterlimit="10" d="M 278.921875 181.820312 C 278.921875 188.285156 269.222656 188.285156 269.222656 181.820312 C 269.222656 175.351562 278.921875 175.351562 278.921875 181.820312 "/>
<path fill-rule="nonzero" fill="rgb(70.196078%, 70.196078%, 70.196078%)" fill-opacity="1" stroke-width="1" stroke-linecap="butt" stroke-linejoin="miter" stroke="rgb(70.196078%, 70.196078%, 70.196078%)" stroke-opacity="1" stroke-miterlimit="10" d="M 364.917969 181.875 C 364.917969 188.34375 355.21875 188.34375 355.21875 181.875 C 355.21875 175.410156 364.917969 175.410156 364.917969 181.875 "/>
<path fill-rule="nonzero" fill="rgb(70.196078%, 70.196078%, 70.196078%)" fill-opacity="1" stroke-width="1" stroke-linecap="butt" stroke-linejoin="miter" stroke="rgb(70.196078%, 70.196078%, 70.196078%)" stroke-opacity="1" stroke-miterlimit="10" d="M 447.554688 231.703125 C 447.554688 238.167969 437.855469 238.167969 437.855469 231.703125 C 437.855469 225.234375 447.554688 225.234375 447.554688 231.703125 "/>
<path fill-rule="nonzero" fill="rgb(70.196078%, 70.196078%, 70.196078%)" fill-opacity="1" stroke-width="1" stroke-linecap="butt" stroke-linejoin="miter" stroke="rgb(70.196078%, 70.196078%, 70.196078%)" stroke-opacity="1" stroke-miterlimit="10" d="M 481.945312 397.3125 C 481.945312 403.777344 472.246094 403.777344 472.246094 397.3125 C 472.246094 390.84375 481.945312 390.84375 481.945312 397.3125 "/>
<path fill-rule="nonzero" fill="rgb(70.196078%, 70.196078%, 70.196078%)" fill-opacity="1" stroke-width="1" stroke-linecap="butt" stroke-linejoin="miter" stroke="rgb(70.196078%, 70.196078%, 70.196078%)" stroke-opacity="1" stroke-miterlimit="10" d="M 591.242188 478.378906 C 591.242188 484.84375 581.542969 484.84375 581.542969 478.378906 C 581.542969 471.910156 591.242188 471.910156 591.242188 478.378906 "/>
<path fill-rule="nonzero" fill="rgb(70.196078%, 70.196078%, 70.196078%)" fill-opacity="1" stroke-width="1" stroke-linecap="butt" stroke-linejoin="miter" stroke="rgb(70.196078%, 70.196078%, 70.196078%)" stroke-opacity="1" stroke-miterlimit="10" d="M 622.285156 404.054688 C 622.285156 410.519531 612.585938 410.519531 612.585938 404.054688 C 612.585938 397.585938 622.285156 397.585938 622.285156 404.054688 "/>
<path fill-rule="nonzero" fill="rgb(70.196078%, 70.196078%, 70.196078%)" fill-opacity="1" stroke-width="1" stroke-linecap="butt" stroke-linejoin="miter" stroke="rgb(70.196078%, 70.196078%, 70.196078%)" stroke-opacity="1" stroke-miterlimit="10" d="M 533.324219 298.453125 C 533.324219 304.917969 523.625 304.917969 523.625 298.453125 C 523.625 291.984375 533.324219 291.984375 533.324219 298.453125 "/>
<path fill-rule="nonzero" fill="rgb(70.196078%, 70.196078%, 70.196078%)" fill-opacity="1" stroke-width="1" stroke-linecap="butt" stroke-linejoin="miter" stroke="rgb(70.196078%, 70.196078%, 70.196078%)" stroke-opacity="1" stroke-miterlimit="10" d="M 222.066406 406.726562 C 222.066406 413.191406 212.367188 413.191406 212.367188 406.726562 C 212.367188 400.257812 222.066406 400.257812 222.066406 406.726562 "/>
<path fill-rule="nonzero" fill="rgb(70.196078%, 70.196078%, 70.196078%)" fill-opacity="1" stroke-width="1" stroke-linecap="butt" stroke-linejoin="miter" stroke="rgb(70.196078%, 70.196078%, 70.196078%)" stroke-opacity="1" stroke-miterlimit="10" d="M 234.035156 498.988281 C 234.035156 505.453125 224.335938 505.453125 224.335938 498.988281 C 224.335938 492.519531 234.035156 492.519531 234.035156 498.988281 "/>
<path fill-rule="nonzero" fill="rgb(70.196078%, 70.196078%, 70.196078%)" fill-opacity="1" stroke-width="1" stroke-linecap="butt" stroke-linejoin="miter" stroke="rgb(70.196078%, 70.196078%, 70.196078%)" stroke-opacity="1" stroke-miterlimit="10" d="M 301.914062 512.332031 C 301.914062 518.800781 292.214844 518.800781 292.214844 512.332031 C 292.214844 505.867188 301.914062 505.867188 301.914062 512.332031 "/>
<path fill-rule="nonzero" fill="rgb(70.196078%, 70.196078%, 70.196078%)" fill-opacity="1" stroke-width="1" stroke-linecap="butt" stroke-linejoin="miter" stroke="rgb(70.196078%, 70.196078%, 70.196078%)" stroke-opacity="1" stroke-miterlimit="10" d="M 311.253906 608.601562 C 311.253906 615.066406 301.554688 615.066406 301.554688 608.601562 C 301.554688 602.136719 311.253906 602.136719 311.253906 608.601562 "/>
<path fill-rule="nonzero" fill="rgb(70.196078%, 70.196078%, 70.196078%)" fill-opacity="1" stroke-width="1" stroke-linecap="butt" stroke-linejoin="miter" stroke="rgb(70.196078%, 70.196078%, 70.196078%)" stroke-opacity="1" stroke-miterlimit="10" d="M 427.019531 330.921875 C 427.019531 337.390625 417.320312 337.390625 417.320312 330.921875 C 417.320312 324.457031 427.019531 324.457031 427.019531 330.921875 "/>
<path fill-rule="nonzero" fill="rgb(70.196078%, 70.196078%, 70.196078%)" fill-opacity="1" stroke-width="1" stroke-linecap="butt" stroke-linejoin="miter" stroke="rgb(70.196078%, 70.196078%, 70.196078%)" stroke-opacity="1" stroke-miterlimit="10" d="M 354.410156 343.324219 C 354.410156 349.789062 344.710938 349.789062 344.710938 343.324219 C 344.710938 336.855469 354.410156 336.855469 354.410156 343.324219 "/>
<path fill-rule="nonzero" fill="rgb(70.196078%, 70.196078%, 70.196078%)" fill-opacity="1" stroke-width="1" stroke-linecap="butt" stroke-linejoin="miter" stroke="rgb(70.196078%, 70.196078%, 70.196078%)" stroke-opacity="1" stroke-miterlimit="10" d="M 295.339844 312.503906 C 295.339844 318.972656 285.640625 318.972656 285.640625 312.503906 C 285.640625 306.039062 295.339844 306.039062 295.339844 312.503906 "/>
<path fill-rule="nonzero" fill="rgb(70.196078%, 70.196078%, 70.196078%)" fill-opacity="1" stroke-width="1" stroke-linecap="butt" stroke-linejoin="miter" stroke="rgb(70.196078%, 70.196078%, 70.196078%)" stroke-opacity="1" stroke-miterlimit="10" d="M 344.171875 686.925781 C 344.171875 693.390625 334.472656 693.390625 334.472656 686.925781 C 334.472656 680.460938 344.171875 680.460938 344.171875 686.925781 "/>
<path fill-rule="nonzero" fill="rgb(70.196078%, 70.196078%, 70.196078%)" fill-opacity="1" stroke-width="1" stroke-linecap="butt" stroke-linejoin="miter" stroke="rgb(70.196078%, 70.196078%, 70.196078%)" stroke-opacity="1" stroke-miterlimit="10" d="M 419.148438 697.511719 C 419.148438 703.976562 409.449219 703.976562 409.449219 697.511719 C 409.449219 691.042969 419.148438 691.042969 419.148438 697.511719 "/>
<path fill-rule="nonzero" fill="rgb(70.196078%, 70.196078%, 70.196078%)" fill-opacity="1" stroke-width="1" stroke-linecap="butt" stroke-linejoin="miter" stroke="rgb(70.196078%, 70.196078%, 70.196078%)" stroke-opacity="1" stroke-miterlimit="10" d="M 235.074219 329.996094 C 235.074219 336.460938 225.375 336.460938 225.375 329.996094 C 225.375 323.527344 235.074219 323.527344 235.074219 329.996094 "/>
<path fill-rule="nonzero" fill="rgb(70.196078%, 70.196078%, 70.196078%)" fill-opacity="1" stroke-width="1" stroke-linecap="butt" stroke-linejoin="miter" stroke="rgb(70.196078%, 70.196078%, 70.196078%)" stroke-opacity="1" stroke-miterlimit="10" d="M 484.320312 696.867188 C 484.320312 703.335938 474.621094 703.335938 474.621094 696.867188 C 474.621094 690.402344 484.320312 690.402344 484.320312 696.867188 "/>
<path fill-rule="nonzero" fill="rgb(70.196078%, 70.196078%, 70.196078%)" fill-opacity="1" stroke-width="1" stroke-linecap="butt" stroke-linejoin="miter" stroke="rgb(70.196078%, 70.196078%, 70.196078%)" stroke-opacity="1" stroke-miterlimit="10" d="M 529.453125 629.574219 C 529.453125 636.042969 519.75 636.042969 519.75 629.574219 C 519.75 623.109375 529.453125 623.109375 529.453125 629.574219 "/>
<path fill-rule="nonzero" fill="rgb(70.196078%, 70.196078%, 70.196078%)" fill-opacity="1" stroke-width="1" stroke-linecap="butt" stroke-linejoin="miter" stroke="rgb(70.196078%, 70.196078%, 70.196078%)" stroke-opacity="1" stroke-miterlimit="10" d="M 522.339844 530.304688 C 522.339844 536.769531 512.636719 536.769531 512.636719 530.304688 C 512.636719 523.835938 522.339844 523.835938 522.339844 530.304688 "/>
<path fill-rule="nonzero" fill="rgb(70.196078%, 70.196078%, 70.196078%)" fill-opacity="1" stroke-width="1" stroke-linecap="butt" stroke-linejoin="miter" stroke="rgb(70.196078%, 70.196078%, 70.196078%)" stroke-opacity="1" stroke-miterlimit="10" d="M 555.085938 397.117188 C 555.085938 403.585938 545.386719 403.585938 545.386719 397.117188 C 545.386719 390.652344 555.085938 390.652344 555.085938 397.117188 "/>
<path fill-rule="nonzero" fill="rgb(70.196078%, 70.196078%, 70.196078%)" fill-opacity="1" stroke-width="1" stroke-linecap="butt" stroke-linejoin="miter" stroke="rgb(70.196078%, 70.196078%, 70.196078%)" stroke-opacity="1" stroke-miterlimit="10" d="M 637.558594 305.824219 C 637.558594 312.292969 627.859375 312.292969 627.859375 305.824219 C 627.859375 299.359375 637.558594 299.359375 637.558594 305.824219 "/>
<path fill-rule="nonzero" fill="rgb(70.196078%, 70.196078%, 70.196078%)" fill-opacity="1" stroke-width="1" stroke-linecap="butt" stroke-linejoin="miter" stroke="rgb(70.196078%, 70.196078%, 70.196078%)" stroke-opacity="1" stroke-miterlimit="10" d="M 424.253906 50 C 424.253906 56.464844 414.554688 56.464844 414.554688 50 C 414.554688 43.535156 424.253906 43.535156 424.253906 50 "/>
<path fill-rule="nonzero" fill="rgb(70.196078%, 70.196078%, 70.196078%)" fill-opacity="1" stroke-width="1" stroke-linecap="butt" stroke-linejoin="miter" stroke="rgb(70.196078%, 70.196078%, 70.196078%)" stroke-opacity="1" stroke-miterlimit="10" d="M 714.507812 336.613281 C 714.507812 343.082031 704.808594 343.082031 704.808594 336.613281 C 704.808594 330.148438 714.507812 330.148438 714.507812 336.613281 "/>
<path fill-rule="nonzero" fill="rgb(70.196078%, 70.196078%, 70.196078%)" fill-opacity="1" stroke-width="1" stroke-linecap="butt" stroke-linejoin="miter" stroke="rgb(70.196078%, 70.196078%, 70.196078%)" stroke-opacity="1" stroke-miterlimit="10" d="M 681.867188 164.046875 C 681.867188 170.511719 672.167969 170.511719 672.167969 164.046875 C 672.167969 157.578125 681.867188 157.578125 681.867188 164.046875 "/>
<path fill-rule="nonzero" fill="rgb(70.196078%, 70.196078%, 70.196078%)" fill-opacity="1" stroke-width="1" stroke-linecap="butt" stroke-linejoin="miter" stroke="rgb(70.196078%, 70.196078%, 70.196078%)" stroke-opacity="1" stroke-miterlimit="10" d="M 580.921875 105.0625 C 580.921875 111.527344 571.222656 111.527344 571.222656 105.0625 C 571.222656 98.59375 580.921875 98.59375 580.921875 105.0625 "/>
<path fill-rule="nonzero" fill="rgb(70.196078%, 70.196078%, 70.196078%)" fill-opacity="1" stroke-width="1" stroke-linecap="butt" stroke-linejoin="miter" stroke="rgb(70.196078%, 70.196078%, 70.196078%)" stroke-opacity="1" stroke-miterlimit="10" d="M 754.851562 263.554688 C 754.851562 270.019531 745.148438 270.019531 745.148438 263.554688 C 745.148438 257.085938 754.851562 257.085938 754.851562 263.554688 "/>
<path fill-rule="nonzero" fill="rgb(100%, 84.313725%, 0%)" fill-opacity="1" stroke-width="1" stroke-linecap="butt" stroke-linejoin="miter" stroke="rgb(100%, 84.313725%, 0%)" stroke-opacity="1" stroke-miterlimit="10" d="M 44.648438 203.835938 L 55.347656 203.835938 L 55.347656 214.535156 L 44.648438 214.535156 Z M 44.648438 203.835938 "/>
<path fill-rule="nonzero" fill="rgb(70.196078%, 70.196078%, 70.196078%)" fill-opacity="1" stroke-width="1" stroke-linecap="butt" stroke-linejoin="miter" stroke="rgb(70.196078%, 70.196078%, 70.196078%)" stroke-opacity="1" stroke-miterlimit="10" d="M 262.421875 65.707031 C 262.421875 72.171875 252.722656 72.171875 252.722656 65.707031 C 252.722656 59.238281 262.421875 59.238281 262.421875 65.707031 "/>
<path fill-rule="nonzero" fill="rgb(70.196078%, 70.196078%, 70.196078%)" fill-opacity="1" stroke-width="1" stroke-linecap="butt" stroke-linejoin="miter" stroke="rgb(70.196078%, 70.196078%, 70.196078%)" stroke-opacity="1" stroke-miterlimit="10" d="M 121.511719 165.09375 C 121.511719 171.558594 111.8125 171.558594 111.8125 165.09375 C 111.8125 158.625 121.511719 158.625 121.511719 165.09375 "/>
</svg>
