<?xml version="1.0" encoding="UTF-8"?>
<svg xmlns="http://www.w3.org/2000/svg" xmlns:xlink="http://www.w3.org/1999/xlink" width="800" height="800" viewBox="0 0 800 800">
<rect x="-80" y="-80" width="960" height="960" fill="rgb(100%, 100%, 100%)" fill-opacity="1"/>
<path fill="none" stroke-width="1.5" stroke-linecap="butt" stroke-linejoin="miter" stroke="rgb(99.215686%, 74.901961%, 43.529412%)" stroke-opacity="1" stroke-miterlimit="10" d="M 609.601562 490.058594 C 606.222656 469.882812 596.402344 453.375 578.511719 443.515625 "/>
<path fill-rule="nonzero" fill="rgb(99.215686%, 74.901961%, 43.529412%)" fill-opacity="1" d="M 572.265625 440.074219 L 579.632812 441.488281 L 577.394531 445.546875 L 572.265625 440.074219 "/>
<path fill="none" stroke-width="1.5" stroke-linecap="butt" stroke-linejoin="miter" stroke="rgb(99.215686%, 74.901961%, 43.529412%)" stroke-opacity="1" stroke-miterlimit="10" d="M 490.480469 470.894531 C 480.179688 492.203125 478.5625 514.261719 488.699219 535.617188 "/>
<path fill-rule="nonzero" fill="rgb(99.215686%, 74.901961%, 43.529412%)" fill-opacity="1" d="M 491.757812 542.0625 L 486.605469 536.613281 L 490.792969 534.625 L 491.757812 542.0625 "/>
<path fill="none" stroke-width="1.5" stroke-linecap="butt" stroke-linejoin="miter" stroke="rgb(99.215686%, 74.901961%, 43.529412%)" stroke-opacity="1" stroke-miterlimit="10" d="M 514.84375 367.632812 C 524.476562 348.496094 526.371094 328.492188 517.390625 309.078125 "/>
<path fill-rule="nonzero" fill="rgb(99.215686%, 74.901961%, 43.529412%)" fill-opacity="1" d="M 514.394531 302.601562 L 519.492188 308.105469 L 515.285156 310.050781 L 514.394531 302.601562 "/>
<path fill="none" stroke-width="1.5" stroke-linecap="butt" stroke-linejoin="miter" stroke="rgb(99.215686%, 74.901961%, 43.529412%)" stroke-opacity="1" stroke-miterlimit="10" d="M 541.808594 499.414062 C 553.28125 454.941406 547.101562 413.011719 520.5 375.589844 "/>
<path fill-rule="nonzero" fill="rgb(99.215686%, 74.901961%, 43.529412%)" fill-opacity="1" d="M 516.367188 369.777344 L 522.390625 374.246094 L 518.609375 376.933594 L 516.367188 369.777344 "/>
<path fill="none" stroke-width="1.5" stroke-linecap="butt" stroke-linejoin="miter" stroke="rgb(99.215686%, 74.901961%, 43.529412%)" stroke-opacity="1" stroke-miterlimit="10" d="M 492.882812 544.433594 C 513.289062 539.144531 529.3125 527.570312 537.851562 508.332031 "/>
<path fill-rule="nonzero" fill="rgb(99.215686%, 74.901961%, 43.529412%)" fill-opacity="1" d="M 540.746094 501.8125 L 539.972656 509.269531 L 535.734375 507.390625 L 540.746094 501.8125 "/>
<path fill="none" stroke-width="1.5" stroke-linecap="butt" stroke-linejoin="miter" stroke="rgb(99.215686%, 74.901961%, 43.529412%)" stroke-opacity="1" stroke-miterlimit="10" d="M 569.96875 438.808594 C 541.980469 436.28125 516.953125 443.859375 497.308594 463.921875 "/>
<path fill-rule="nonzero" fill="rgb(99.215686%, 74.901961%, 43.529412%)" fill-opacity="1" d="M 492.320312 469.019531 L 495.652344 462.300781 L 498.964844 465.542969 L 492.320312 469.019531 "/>
<path fill="none" stroke-width="1.5" stroke-linecap="butt" stroke-linejoin="miter" stroke="rgb(12.156863%, 47.058824%, 70.588235%)" stroke-opacity="1" stroke-miterlimit="10" d="M 404.324219 524.058594 C 408.703125 500.179688 404.273438 477.9375 388.441406 459.566406 "/>
<path fill-rule="nonzero" fill="rgb(12.156863%, 47.058824%, 70.588235%)" fill-opacity="1" d="M 383.785156 454.164062 L 390.195312 458.054688 L 386.6875 461.082031 L 383.785156 454.164062 "/>
<path fill="none" stroke-width="1.5" stroke-linecap="butt" stroke-linejoin="miter" stroke="rgb(98.431373%, 60.392157%, 60%)" stroke-opacity="1" stroke-miterlimit="10" d="M 605.742188 233.0625 C 627.210938 235.089844 646.683594 229.570312 661.582031 214.023438 "/>
<path fill-rule="nonzero" fill="rgb(98.431373%, 60.392157%, 60%)" fill-opacity="1" d="M 666.515625 208.871094 L 663.253906 215.625 L 659.910156 212.417969 L 666.515625 208.871094 "/>
<path fill="none" stroke-width="1.5" stroke-linecap="butt" stroke-linejoin="miter" stroke="rgb(41.568627%, 23.921569%, 60.392157%)" stroke-opacity="1" stroke-miterlimit="10" d="M 670.277344 204.945312 C 655.546875 153.984375 624.6875 116.078125 576.308594 94.339844 "/>
<path fill-rule="nonzero" fill="rgb(41.568627%, 23.921569%, 60.392157%)" fill-opacity="1" d="M 569.800781 91.417969 L 577.257812 92.226562 L 575.359375 96.453125 L 569.800781 91.417969 "/>
<path fill="none" stroke-width="1.5" stroke-linecap="butt" stroke-linejoin="miter" stroke="rgb(98.431373%, 60.392157%, 60%)" stroke-opacity="1" stroke-miterlimit="10" d="M 670.277344 204.945312 C 652.070312 303.808594 673.035156 393.546875 735.839844 472.03125 "/>
<path fill-rule="nonzero" fill="rgb(98.431373%, 60.392157%, 60%)" fill-opacity="1" d="M 740.296875 477.601562 L 734.03125 473.480469 L 737.648438 470.585938 L 740.296875 477.601562 "/>
<path fill="none" stroke-width="1.5" stroke-linecap="butt" stroke-linejoin="miter" stroke="rgb(41.568627%, 23.921569%, 60.392157%)" stroke-opacity="1" stroke-miterlimit="10" d="M 486.046875 85.292969 C 414.859375 77.433594 351.949219 96.707031 299.628906 145.601562 "/>
<path fill-rule="nonzero" fill="rgb(41.568627%, 23.921569%, 60.392157%)" fill-opacity="1" d="M 294.417969 150.472656 L 298.046875 143.910156 L 301.210938 147.296875 L 294.417969 150.472656 "/>
<path fill="none" stroke-width="1.5" stroke-linecap="butt" stroke-linejoin="miter" stroke="rgb(41.568627%, 23.921569%, 60.392157%)" stroke-opacity="1" stroke-miterlimit="10" d="M 292.496094 152.273438 C 293.015625 114.058594 279.886719 81.226562 250.894531 56.355469 "/>
<path fill-rule="nonzero" fill="rgb(41.568627%, 23.921569%, 60.392157%)" fill-opacity="1" d="M 245.480469 51.710938 L 252.402344 54.597656 L 249.386719 58.113281 L 245.480469 51.710938 "/>
<path fill="none" stroke-width="1.5" stroke-linecap="butt" stroke-linejoin="miter" stroke="rgb(12.156863%, 47.058824%, 70.588235%)" stroke-opacity="1" stroke-miterlimit="10" d="M 413.984375 403.820312 C 398.183594 411.921875 386.953125 424.359375 383.660156 441.769531 "/>
<path fill-rule="nonzero" fill="rgb(12.156863%, 47.058824%, 70.588235%)" fill-opacity="1" d="M 382.335938 448.777344 L 381.382812 441.339844 L 385.9375 442.199219 L 382.335938 448.777344 "/>
<path fill="none" stroke-width="1.5" stroke-linecap="butt" stroke-linejoin="miter" stroke="rgb(41.568627%, 23.921569%, 60.392157%)" stroke-opacity="1" stroke-miterlimit="10" d="M 567.402344 90.339844 C 544.597656 76.714844 520.148438 72.851562 495.214844 81.949219 "/>
<path fill-rule="nonzero" fill="rgb(41.568627%, 23.921569%, 60.392157%)" fill-opacity="1" d="M 488.511719 84.390625 L 494.417969 79.769531 L 496.007812 84.125 L 488.511719 84.390625 "/>
<path fill="none" stroke-width="1.5" stroke-linecap="butt" stroke-linejoin="miter" stroke="rgb(98.431373%, 60.392157%, 60%)" stroke-opacity="1" stroke-miterlimit="10" d="M 321.488281 750 C 283.742188 728.710938 243.984375 724.066406 203.410156 739.261719 "/>
<path fill-rule="nonzero" fill="rgb(98.431373%, 60.392157%, 60%)" fill-opacity="1" d="M 196.730469 741.765625 L 202.597656 737.09375 L 204.226562 741.433594 L 196.730469 741.765625 "/>
<path fill="none" stroke-width="1.5" stroke-linecap="butt" stroke-linejoin="miter" stroke="rgb(41.568627%, 23.921569%, 60.392157%)" stroke-opacity="1" stroke-miterlimit="10" d="M 398.121094 93.96875 C 467.828125 142.703125 544.316406 158.25 626.742188 137.300781 "/>
<path fill-rule="nonzero" fill="rgb(41.568627%, 23.921569%, 60.392157%)" fill-opacity="1" d="M 633.65625 135.542969 L 627.316406 139.546875 L 626.171875 135.054688 L 633.65625 135.542969 "/>
<path fill="none" stroke-width="1.5" stroke-linecap="butt" stroke-linejoin="miter" stroke="rgb(12.156863%, 47.058824%, 70.588235%)" stroke-opacity="1" stroke-miterlimit="10" d="M 381.761719 451.816406 C 397.667969 443.578125 408.925781 430.984375 412.199219 413.410156 "/>
<path fill-rule="nonzero" fill="rgb(12.156863%, 47.058824%, 70.588235%)" fill-opacity="1" d="M 413.503906 406.394531 L 414.476562 413.832031 L 409.917969 412.984375 L 413.503906 406.394531 "/>
<path fill="none" stroke-width="1.5" stroke-linecap="butt" stroke-linejoin="miter" stroke="rgb(12.156863%, 47.058824%, 70.588235%)" stroke-opacity="1" stroke-miterlimit="10" d="M 381.761719 451.816406 C 352.65625 460.148438 330.53125 477.519531 318.503906 505.28125 "/>
<path fill-rule="nonzero" fill="rgb(12.156863%, 47.058824%, 70.588235%)" fill-opacity="1" d="M 315.667969 511.828125 L 316.378906 504.359375 L 320.632812 506.203125 L 315.667969 511.828125 "/>
<path fill="none" stroke-width="1.5" stroke-linecap="butt" stroke-linejoin="miter" stroke="rgb(98.431373%, 60.392157%, 60%)" stroke-opacity="1" stroke-miterlimit="10" d="M 584.0625 602.566406 C 524.457031 612.996094 477.8125 643.398438 447.0625 695.503906 "/>
<path fill-rule="nonzero" fill="rgb(98.431373%, 60.392157%, 60%)" fill-opacity="1" d="M 443.4375 701.644531 L 445.066406 694.324219 L 449.058594 696.679688 L 443.4375 701.644531 "/>
<path fill="none" stroke-width="1.5" stroke-linecap="butt" stroke-linejoin="miter" stroke="rgb(41.568627%, 23.921569%, 60.392157%)" stroke-opacity="1" stroke-miterlimit="10" d="M 636.210938 134.894531 C 617.601562 185.082031 619.917969 234.335938 646.128906 280.996094 "/>
<path fill-rule="nonzero" fill="rgb(41.568627%, 23.921569%, 60.392157%)" fill-opacity="1" d="M 649.621094 287.214844 L 644.105469 282.128906 L 648.148438 279.859375 L 649.621094 287.214844 "/>
<path fill="none" stroke-width="1.5" stroke-linecap="butt" stroke-linejoin="miter" stroke="rgb(30.196078%, 68.627451%, 29.019608%)" stroke-opacity="1" stroke-miterlimit="10" d="M 333.882812 238.394531 C 309.40625 245.644531 290.722656 260.402344 280.964844 283.960938 "/>
<path fill-rule="nonzero" fill="rgb(30.196078%, 68.627451%, 29.019608%)" fill-opacity="1" d="M 278.234375 290.554688 L 278.824219 283.074219 L 283.105469 284.847656 L 278.234375 290.554688 "/>
<path fill="none" stroke-width="1.5" stroke-linecap="butt" stroke-linejoin="miter" stroke="rgb(30.196078%, 68.627451%, 29.019608%)" stroke-opacity="1" stroke-miterlimit="10" d="M 277.230469 292.976562 C 270.050781 313.660156 270.839844 334.167969 282.542969 352.632812 "/>
<path fill-rule="nonzero" fill="rgb(30.196078%, 68.627451%, 29.019608%)" fill-opacity="1" d="M 286.359375 358.660156 L 280.585938 353.875 L 284.5 351.394531 L 286.359375 358.660156 "/>
<path fill="none" stroke-width="1.5" stroke-linecap="butt" stroke-linejoin="miter" stroke="rgb(98.431373%, 60.392157%, 60%)" stroke-opacity="1" stroke-miterlimit="10" d="M 109.6875 683.035156 C 95.609375 670.53125 79.015625 664.265625 60.523438 667.644531 "/>
<path fill-rule="nonzero" fill="rgb(98.431373%, 60.392157%, 60%)" fill-opacity="1" d="M 53.507812 668.929688 L 60.109375 665.367188 L 60.941406 669.925781 L 53.507812 668.929688 "/>
<path fill="none" stroke-width="1.5" stroke-linecap="butt" stroke-linejoin="miter" stroke="rgb(98.431373%, 60.392157%, 60%)" stroke-opacity="1" stroke-miterlimit="10" d="M 442.097656 703.914062 C 398.324219 699.933594 359.636719 712.199219 328.421875 743.128906 "/>
<path fill-rule="nonzero" fill="rgb(98.431373%, 60.392157%, 60%)" fill-opacity="1" d="M 323.355469 748.148438 L 326.792969 741.480469 L 330.054688 744.773438 L 323.355469 748.148438 "/>
<path fill="none" stroke-width="1.5" stroke-linecap="butt" stroke-linejoin="miter" stroke="rgb(41.568627%, 23.921569%, 60.392157%)" stroke-opacity="1" stroke-miterlimit="10" d="M 650.910156 289.507812 C 636.878906 337.324219 642.148438 382.96875 669.585938 424.546875 "/>
<path fill-rule="nonzero" fill="rgb(41.568627%, 23.921569%, 60.392157%)" fill-opacity="1" d="M 673.515625 430.5 L 667.652344 425.824219 L 671.519531 423.273438 L 673.515625 430.5 "/>
<path fill="none" stroke-width="1.5" stroke-linecap="butt" stroke-linejoin="miter" stroke="rgb(41.568627%, 23.921569%, 60.392157%)" stroke-opacity="1" stroke-miterlimit="10" d="M 704.894531 541.484375 C 741.5 501.410156 758.074219 454.242188 751.230469 400.410156 "/>
<path fill-rule="nonzero" fill="rgb(41.568627%, 23.921569%, 60.392157%)" fill-opacity="1" d="M 750.332031 393.335938 L 753.53125 400.121094 L 748.933594 400.703125 L 750.332031 393.335938 "/>
<path fill="none" stroke-width="1.5" stroke-linecap="butt" stroke-linejoin="miter" stroke="rgb(41.568627%, 23.921569%, 60.392157%)" stroke-opacity="1" stroke-miterlimit="10" d="M 750 390.726562 C 738.625 374.140625 723.039062 363.472656 703.003906 362.113281 "/>
<path fill-rule="nonzero" fill="rgb(41.568627%, 23.921569%, 60.392157%)" fill-opacity="1" d="M 695.890625 361.632812 L 703.160156 359.800781 L 702.847656 364.425781 L 695.890625 361.632812 "/>
<path fill="none" stroke-width="1.5" stroke-linecap="butt" stroke-linejoin="miter" stroke="rgb(41.568627%, 23.921569%, 60.392157%)" stroke-opacity="1" stroke-miterlimit="10" d="M 693.273438 361.453125 C 673.898438 359.605469 656.253906 364.515625 642.867188 378.589844 "/>
<path fill-rule="nonzero" fill="rgb(41.568627%, 23.921569%, 60.392157%)" fill-opacity="1" d="M 637.949219 383.757812 L 641.1875 376.992188 L 644.542969 380.1875 L 637.949219 383.757812 "/>
<path fill="none" stroke-width="1.5" stroke-linecap="butt" stroke-linejoin="miter" stroke="rgb(12.156863%, 47.058824%, 70.588235%)" stroke-opacity="1" stroke-miterlimit="10" d="M 313.539062 591.910156 C 296.46875 605.347656 286.167969 622.902344 286.039062 644.597656 "/>
<path fill-rule="nonzero" fill="rgb(12.156863%, 47.058824%, 70.588235%)" fill-opacity="1" d="M 285.996094 651.730469 L 283.71875 644.585938 L 288.355469 644.613281 L 285.996094 651.730469 "/>
<path fill="none" stroke-width="1.5" stroke-linecap="butt" stroke-linejoin="miter" stroke="rgb(30.196078%, 68.627451%, 29.019608%)" stroke-opacity="1" stroke-miterlimit="10" d="M 341.636719 351.726562 C 326.507812 346.523438 311.335938 346.886719 298.054688 355.730469 "/>
<path fill-rule="nonzero" fill="rgb(30.196078%, 68.627451%, 29.019608%)" fill-opacity="1" d="M 292.117188 359.679688 L 296.769531 353.800781 L 299.339844 357.65625 L 292.117188 359.679688 "/>
<path fill="none" stroke-width="1.5" stroke-linecap="butt" stroke-linejoin="miter" stroke="rgb(41.568627%, 23.921569%, 60.392157%)" stroke-opacity="1" stroke-miterlimit="10" d="M 635.164062 386.683594 C 639.164062 405.292969 648.953125 420.296875 666.03125 428.617188 "/>
<path fill-rule="nonzero" fill="rgb(41.568627%, 23.921569%, 60.392157%)" fill-opacity="1" d="M 672.445312 431.742188 L 665.019531 430.699219 L 667.046875 426.535156 L 672.445312 431.742188 "/>
<path fill="none" stroke-width="1.5" stroke-linecap="butt" stroke-linejoin="miter" stroke="rgb(41.568627%, 23.921569%, 60.392157%)" stroke-opacity="1" stroke-miterlimit="10" d="M 407.871094 160.535156 C 484.269531 213.921875 568.074219 230.890625 658.402344 207.960938 "/>
<path fill-rule="nonzero" fill="rgb(41.568627%, 23.921569%, 60.392157%)" fill-opacity="1" d="M 665.316406 206.207031 L 658.972656 210.207031 L 657.832031 205.714844 L 665.316406 206.207031 "/>
<path fill="none" stroke-width="1.5" stroke-linecap="butt" stroke-linejoin="miter" stroke="rgb(30.196078%, 68.627451%, 29.019608%)" stroke-opacity="1" stroke-miterlimit="10" d="M 407.871094 160.535156 C 374.007812 172.824219 349.382812 195.332031 337.1875 229.207031 "/>
<path fill-rule="nonzero" fill="rgb(30.196078%, 68.627451%, 29.019608%)" fill-opacity="1" d="M 334.773438 235.921875 L 335.007812 228.425781 L 339.367188 229.992188 L 334.773438 235.921875 "/>
<path fill="none" stroke-width="1.5" stroke-linecap="butt" stroke-linejoin="miter" stroke="rgb(30.196078%, 68.627451%, 29.019608%)" stroke-opacity="1" stroke-miterlimit="10" d="M 407.871094 160.535156 C 368.210938 126.742188 322.402344 112.359375 270.992188 120.75 "/>
<path fill-rule="nonzero" fill="rgb(30.196078%, 68.627451%, 29.019608%)" fill-opacity="1" d="M 263.953125 121.898438 L 270.617188 118.464844 L 271.363281 123.039062 L 263.953125 121.898438 "/>
<path fill="none" stroke-width="1.5" stroke-linecap="butt" stroke-linejoin="miter" stroke="rgb(30.196078%, 68.627451%, 29.019608%)" stroke-opacity="1" stroke-miterlimit="10" d="M 407.871094 160.535156 C 406.347656 178.777344 411.136719 195.351562 424.550781 207.761719 "/>
<path fill-rule="nonzero" fill="rgb(30.196078%, 68.627451%, 29.019608%)" fill-opacity="1" d="M 429.785156 212.605469 L 422.976562 209.460938 L 426.125 206.058594 L 429.785156 212.605469 "/>
<path fill="none" stroke-width="1.5" stroke-linecap="butt" stroke-linejoin="miter" stroke="rgb(30.196078%, 68.627451%, 29.019608%)" stroke-opacity="1" stroke-miterlimit="10" d="M 261.355469 122.324219 C 299.8125 155.757812 344.496094 170.367188 394.839844 162.558594 "/>
<path fill-rule="nonzero" fill="rgb(30.196078%, 68.627451%, 29.019608%)" fill-opacity="1" d="M 401.886719 161.464844 L 395.191406 164.847656 L 394.484375 160.265625 L 401.886719 161.464844 "/>
<path fill="none" stroke-width="1.5" stroke-linecap="butt" stroke-linejoin="miter" stroke="rgb(30.196078%, 68.627451%, 29.019608%)" stroke-opacity="1" stroke-miterlimit="10" d="M 431.710938 214.382812 C 433.671875 197.464844 429.808594 181.792969 417.605469 169.96875 "/>
<path fill-rule="nonzero" fill="rgb(30.196078%, 68.627451%, 29.019608%)" fill-opacity="1" d="M 412.484375 165.003906 L 419.21875 168.304688 L 415.992188 171.632812 L 412.484375 165.003906 "/>
<path fill="none" stroke-width="1.5" stroke-linecap="butt" stroke-linejoin="miter" stroke="rgb(30.196078%, 68.627451%, 29.019608%)" stroke-opacity="1" stroke-miterlimit="10" d="M 288.523438 362.074219 C 304.269531 367.214844 319.925781 366.53125 333.582031 357.21875 "/>
<path fill-rule="nonzero" fill="rgb(30.196078%, 68.627451%, 29.019608%)" fill-opacity="1" d="M 339.472656 353.203125 L 334.886719 359.136719 L 332.273438 355.304688 L 339.472656 353.203125 "/>
<path fill="none" stroke-width="1.5" stroke-linecap="butt" stroke-linejoin="miter" stroke="rgb(41.568627%, 23.921569%, 60.392157%)" stroke-opacity="1" stroke-miterlimit="10" d="M 246.929688 209.109375 C 311.75 195.558594 361.574219 160.574219 393.421875 102.527344 "/>
<path fill-rule="nonzero" fill="rgb(41.568627%, 23.921569%, 60.392157%)" fill-opacity="1" d="M 396.851562 96.277344 L 395.453125 103.644531 L 391.390625 101.414062 L 396.851562 96.277344 "/>
<path fill="none" stroke-width="1.5" stroke-linecap="butt" stroke-linejoin="miter" stroke="rgb(41.568627%, 23.921569%, 60.392157%)" stroke-opacity="1" stroke-miterlimit="10" d="M 675.226562 433.097656 C 667.945312 470.226562 674.902344 504.542969 698.742188 533.90625 "/>
<path fill-rule="nonzero" fill="rgb(41.568627%, 23.921569%, 60.392157%)" fill-opacity="1" d="M 703.238281 539.441406 L 696.941406 535.367188 L 700.542969 532.445312 L 703.238281 539.441406 "/>
<path fill="none" stroke-width="1.5" stroke-linecap="butt" stroke-linejoin="miter" stroke="rgb(41.568627%, 23.921569%, 60.392157%)" stroke-opacity="1" stroke-miterlimit="10" d="M 675.226562 433.097656 C 671.492188 414.851562 662.078125 400.03125 645.429688 391.773438 "/>
<path fill-rule="nonzero" fill="rgb(41.568627%, 23.921569%, 60.392157%)" fill-opacity="1" d="M 639.039062 388.605469 L 646.457031 389.699219 L 644.398438 393.851562 L 639.039062 388.605469 "/>
<path fill="none" stroke-width="1.5" stroke-linecap="butt" stroke-linejoin="miter" stroke="rgb(41.568627%, 23.921569%, 60.392157%)" stroke-opacity="1" stroke-miterlimit="10" d="M 243.484375 50 C 220.710938 99.984375 219.449219 150.558594 242.78125 200.269531 "/>
<path fill-rule="nonzero" fill="rgb(41.568627%, 23.921569%, 60.392157%)" fill-opacity="1" d="M 245.8125 206.726562 L 240.683594 201.253906 L 244.878906 199.285156 L 245.8125 206.726562 "/>
<path fill="none" stroke-width="1.5" stroke-linecap="butt" stroke-linejoin="miter" stroke="rgb(98.431373%, 60.392157%, 60%)" stroke-opacity="1" stroke-miterlimit="10" d="M 741.941406 479.660156 C 673.707031 494.765625 621.613281 532.328125 588.667969 593.953125 "/>
<path fill-rule="nonzero" fill="rgb(98.431373%, 60.392157%, 60%)" fill-opacity="1" d="M 585.304688 600.246094 L 586.625 592.863281 L 590.710938 595.046875 L 585.304688 600.246094 "/>
<path fill="none" stroke-width="1.5" stroke-linecap="butt" stroke-linejoin="miter" stroke="rgb(98.431373%, 60.392157%, 60%)" stroke-opacity="1" stroke-miterlimit="10" d="M 194.269531 742.6875 C 177.921875 712.199219 153.140625 691.847656 119.257812 684.976562 "/>
<path fill-rule="nonzero" fill="rgb(98.431373%, 60.392157%, 60%)" fill-opacity="1" d="M 112.265625 683.558594 L 119.714844 682.703125 L 118.796875 687.246094 L 112.265625 683.558594 "/>
<path fill="none" stroke-width="1.5" stroke-linecap="butt" stroke-linejoin="miter" stroke="rgb(12.156863%, 47.058824%, 70.588235%)" stroke-opacity="1" stroke-miterlimit="10" d="M 314.625 514.238281 C 302.703125 536.398438 300.039062 559.730469 309.765625 582.910156 "/>
<path fill-rule="nonzero" fill="rgb(12.156863%, 47.058824%, 70.588235%)" fill-opacity="1" d="M 312.523438 589.488281 L 307.628906 583.808594 L 311.902344 582.015625 L 312.523438 589.488281 "/>
<path fill="none" stroke-width="1.5" stroke-linecap="butt" stroke-linejoin="miter" stroke="rgb(12.156863%, 47.058824%, 70.588235%)" stroke-opacity="1" stroke-miterlimit="10" d="M 285.976562 654.355469 C 273.980469 638.46875 258.078125 628.59375 238.207031 628.191406 "/>
<path fill-rule="nonzero" fill="rgb(12.156863%, 47.058824%, 70.588235%)" fill-opacity="1" d="M 231.074219 628.046875 L 238.253906 625.875 L 238.160156 630.507812 L 231.074219 628.046875 "/>
<path fill-rule="nonzero" fill="rgb(100%, 84.313725%, 0%)" fill-opacity="1" stroke-width="1" stroke-linecap="butt" stroke-linejoin="miter" stroke="rgb(100%, 84.313725%, 0%)" stroke-opacity="1" stroke-miterlimit="10" d="M 606.351562 486.808594 L 612.851562 486.808594 L 612.851562 493.308594 L 606.351562 493.308594 Z M 606.351562 486.808594 "/>
<path fill-rule="nonzero" fill="rgb(99.215686%, 74.901961%, 43.529412%)" fill-opacity="1" stroke-width="1" stroke-linecap="butt" stroke-linejoin="miter" stroke="rgb(99.215686%, 74.901961%, 43.529412%)" stroke-opacity="1" stroke-miterlimit="10" d="M 493.230469 470.894531 C 493.230469 474.5625 487.730469 474.5625 487.730469 470.894531 C 487.730469 467.226562 493.230469 467.226562 493.230469 470.894531 "/>
<path fill-rule="nonzero" fill="rgb(14.901961%, 14.901961%, 14.901961%)" fill-opacity="1" stroke-width="1" stroke-linecap="butt" stroke-linejoin="miter" stroke="rgb(14.901961%, 14.901961%, 14.901961%)" stroke-opacity="1" stroke-miterlimit="10" d="M 509.148438 303.113281 L 512.898438 295.613281 L 516.648438 303.113281 Z M 509.148438 303.113281 "/>
<path fill-rule="nonzero" fill="rgb(99.215686%, 74.901961%, 43.529412%)" fill-opacity="1" stroke-width="1" stroke-linecap="butt" stroke-linejoin="miter" stroke="rgb(99.215686%, 74.901961%, 43.529412%)" stroke-opacity="1" stroke-miterlimit="10" d="M 517.59375 367.632812 C 517.59375 371.296875 512.09375 371.296875 512.09375 367.632812 C 512.09375 363.964844 517.59375 363.964844 517.59375 367.632812 "/>
<path fill-rule="nonzero" fill="rgb(99.215686%, 74.901961%, 43.529412%)" fill-opacity="1" stroke-width="1" stroke-linecap="butt" stroke-linejoin="miter" stroke="rgb(99.215686%, 74.901961%, 43.529412%)" stroke-opacity="1" stroke-miterlimit="10" d="M 544.558594 499.414062 C 544.558594 503.082031 539.058594 503.082031 539.058594 499.414062 C 539.058594 495.746094 544.558594 495.746094 544.558594 499.414062 "/>
<path fill-rule="nonzero" fill="rgb(99.215686%, 74.901961%, 43.529412%)" fill-opacity="1" stroke-width="1" stroke-linecap="butt" stroke-linejoin="miter" stroke="rgb(99.215686%, 74.901961%, 43.529412%)" stroke-opacity="1" stroke-miterlimit="10" d="M 495.632812 544.433594 C 495.632812 548.101562 490.132812 548.101562 490.132812 544.433594 C 490.132812 540.765625 495.632812 540.765625 495.632812 544.433594 "/>
<path fill-rule="nonzero" fill="rgb(99.215686%, 74.901961%, 43.529412%)" fill-opacity="1" stroke-width="1" stroke-linecap="butt" stroke-linejoin="miter" stroke="rgb(99.215686%, 74.901961%, 43.529412%)" stroke-opacity="1" stroke-miterlimit="10" d="M 572.71875 438.808594 C 572.71875 442.476562 567.21875 442.476562 567.21875 438.808594 C 567.21875 435.140625 572.71875 435.140625 572.71875 438.808594 "/>
<path fill-rule="nonzero" fill="rgb(100%, 84.313725%, 0%)" fill-opacity="1" stroke-width="1" stroke-linecap="butt" stroke-linejoin="miter" stroke="rgb(100%, 84.313725%, 0%)" stroke-opacity="1" stroke-miterlimit="10" d="M 401.074219 520.808594 L 407.574219 520.808594 L 407.574219 527.308594 L 401.074219 527.308594 Z M 401.074219 520.808594 "/>
<path fill-rule="nonzero" fill="rgb(100%, 84.313725%, 0%)" fill-opacity="1" stroke-width="1" stroke-linecap="butt" stroke-linejoin="miter" stroke="rgb(100%, 84.313725%, 0%)" stroke-opacity="1" stroke-miterlimit="10" d="M 602.492188 229.8125 L 608.992188 229.8125 L 608.992188 236.3125 L 602.492188 236.3125 Z M 602.492188 229.8125 "/>
<path fill-rule="nonzero" fill="rgb(70.196078%, 70.196078%, 70.196078%)" fill-opacity="1" stroke-width="1" stroke-linecap="butt" stroke-linejoin="miter" stroke="rgb(70.196078%, 70.196078%, 70.196078%)" stroke-opacity="1" stroke-miterlimit="10" d="M 675.628906 204.945312 C 675.628906 212.082031 664.929688 212.082031 664.929688 204.945312 C 664.929688 197.8125 675.628906 197.8125 675.628906 204.945312 "/>
<path fill-rule="nonzero" fill="rgb(41.568627%, 23.921569%, 60.392157%)" fill-opacity="1" stroke-width="1" stroke-linecap="butt" stroke-linejoin="miter" stroke="rgb(41.568627%, 23.921569%, 60.392157%)" stroke-opacity="1" stroke-miterlimit="10" d="M 488.796875 85.292969 C 488.796875 88.957031 483.296875 88.957031 483.296875 85.292969 C 483.296875 81.625 488.796875 81.625 488.796875 85.292969 "/>
<path fill-rule="nonzero" fill="rgb(41.568627%, 23.921569%, 60.392157%)" fill-opacity="1" stroke-width="1" stroke-linecap="butt" stroke-linejoin="miter" stroke="rgb(41.568627%, 23.921569%, 60.392157%)" stroke-opacity="1" stroke-miterlimit="10" d="M 295.246094 152.273438 C 295.246094 155.9375 289.746094 155.9375 289.746094 152.273438 C 289.746094 148.605469 295.246094 148.605469 295.246094 152.273438 "/>
<path fill-rule="nonzero" fill="rgb(12.156863%, 47.058824%, 70.588235%)" fill-opacity="1" stroke-width="1" stroke-linecap="butt" stroke-linejoin="miter" stroke="rgb(12.156863%, 47.058824%, 70.588235%)" stroke-opacity="1" stroke-miterlimit="10" d="M 416.734375 403.820312 C 416.734375 407.488281 411.234375 407.488281 411.234375 403.820312 C 411.234375 400.152344 416.734375 400.152344 416.734375 403.820312 "/>
<path fill-rule="nonzero" fill="rgb(41.568627%, 23.921569%, 60.392157%)" fill-opacity="1" stroke-width="1" stroke-linecap="butt" stroke-linejoin="miter" stroke="rgb(41.568627%, 23.921569%, 60.392157%)" stroke-opacity="1" stroke-miterlimit="10" d="M 570.152344 90.339844 C 570.152344 94.003906 564.652344 94.003906 564.652344 90.339844 C 564.652344 86.671875 570.152344 86.671875 570.152344 90.339844 "/>
<path fill-rule="nonzero" fill="rgb(98.431373%, 60.392157%, 60%)" fill-opacity="1" stroke-width="1" stroke-linecap="butt" stroke-linejoin="miter" stroke="rgb(98.431373%, 60.392157%, 60%)" stroke-opacity="1" stroke-miterlimit="10" d="M 324.238281 750 C 324.238281 753.667969 318.738281 753.667969 318.738281 750 C 318.738281 746.332031 324.238281 746.332031 324.238281 750 "/>
<path fill-rule="nonzero" fill="rgb(41.568627%, 23.921569%, 60.392157%)" fill-opacity="1" stroke-width="1" stroke-linecap="butt" stroke-linejoin="miter" stroke="rgb(41.568627%, 23.921569%, 60.392157%)" stroke-opacity="1" stroke-miterlimit="10" d="M 400.871094 93.96875 C 400.871094 97.632812 395.371094 97.632812 395.371094 93.96875 C 395.371094 90.300781 400.871094 90.300781 400.871094 93.96875 "/>
<path fill-rule="nonzero" fill="rgb(12.156863%, 47.058824%, 70.588235%)" fill-opacity="1" stroke-width="1" stroke-linecap="butt" stroke-linejoin="miter" stroke="rgb(12.156863%, 47.058824%, 70.588235%)" stroke-opacity="1" stroke-miterlimit="10" d="M 385.011719 451.816406 C 385.011719 456.148438 378.511719 456.148438 378.511719 451.816406 C 378.511719 447.484375 385.011719 447.484375 385.011719 451.816406 "/>
<path fill-rule="nonzero" fill="rgb(98.431373%, 60.392157%, 60%)" fill-opacity="1" stroke-width="1" stroke-linecap="butt" stroke-linejoin="miter" stroke="rgb(98.431373%, 60.392157%, 60%)" stroke-opacity="1" stroke-miterlimit="10" d="M 586.8125 602.566406 C 586.8125 606.234375 581.3125 606.234375 581.3125 602.566406 C 581.3125 598.902344 586.8125 598.902344 586.8125 602.566406 "/>
<path fill-rule="nonzero" fill="rgb(41.568627%, 23.921569%, 60.392157%)" fill-opacity="1" stroke-width="1" stroke-linecap="butt" stroke-linejoin="miter" stroke="rgb(41.568627%, 23.921569%, 60.392157%)" stroke-opacity="1" stroke-miterlimit="10" d="M 638.960938 134.894531 C 638.960938 138.5625 633.460938 138.5625 633.460938 134.894531 C 633.460938 131.226562 638.960938 131.226562 638.960938 134.894531 "/>
<path fill-rule="nonzero" fill="rgb(30.196078%, 68.627451%, 29.019608%)" fill-opacity="1" stroke-width="1" stroke-linecap="butt" stroke-linejoin="miter" stroke="rgb(30.196078%, 68.627451%, 29.019608%)" stroke-opacity="1" stroke-miterlimit="10" d="M 336.632812 238.394531 C 336.632812 242.058594 331.132812 242.058594 331.132812 238.394531 C 331.132812 234.726562 336.632812 234.726562 336.632812 238.394531 "/>
<path fill-rule="nonzero" fill="rgb(30.196078%, 68.627451%, 29.019608%)" fill-opacity="1" stroke-width="1" stroke-linecap="butt" stroke-linejoin="miter" stroke="rgb(30.196078%, 68.627451%, 29.019608%)" stroke-opacity="1" stroke-miterlimit="10" d="M 279.980469 292.976562 C 279.980469 296.644531 274.480469 296.644531 274.480469 292.976562 C 274.480469 289.3125 279.980469 289.3125 279.980469 292.976562 "/>
<path fill-rule="nonzero" fill="rgb(98.431373%, 60.392157%, 60%)" fill-opacity="1" stroke-width="1" stroke-linecap="butt" stroke-linejoin="miter" stroke="rgb(98.431373%, 60.392157%, 60%)" stroke-opacity="1" stroke-miterlimit="10" d="M 112.4375 683.035156 C 112.4375 686.703125 106.9375 686.703125 106.9375 683.035156 C 106.9375 679.367188 112.4375 679.367188 112.4375 683.035156 "/>
<path fill-rule="nonzero" fill="rgb(98.431373%, 60.392157%, 60%)" fill-opacity="1" stroke-width="1" stroke-linecap="butt" stroke-linejoin="miter" stroke="rgb(98.431373%, 60.392157%, 60%)" stroke-opacity="1" stroke-miterlimit="10" d="M 444.847656 703.914062 C 444.847656 707.578125 439.347656 707.578125 439.347656 703.914062 C 439.347656 700.246094 444.847656 700.246094 444.847656 703.914062 "/>
<path fill-rule="nonzero" fill="rgb(41.568627%, 23.921569%, 60.392157%)" fill-opacity="1" stroke-width="1" stroke-linecap="butt" stroke-linejoin="miter" stroke="rgb(41.568627%, 23.921569%, 60.392157%)" stroke-opacity="1" stroke-miterlimit="10" d="M 653.660156 289.507812 C 653.660156 293.175781 648.160156 293.175781 648.160156 289.507812 C 648.160156 285.839844 653.660156 285.839844 653.660156 289.507812 "/>
<path fill-rule="nonzero" fill="rgb(41.568627%, 23.921569%, 60.392157%)" fill-opacity="1" stroke-width="1" stroke-linecap="butt" stroke-linejoin="miter" stroke="rgb(41.568627%, 23.921569%, 60.392157%)" stroke-opacity="1" stroke-miterlimit="10" d="M 707.644531 541.484375 C 707.644531 545.152344 702.144531 545.152344 702.144531 541.484375 C 702.144531 537.816406 707.644531 537.816406 707.644531 541.484375 "/>
<path fill-rule="nonzero" fill="rgb(41.568627%, 23.921569%, 60.392157%)" fill-opacity="1" stroke-width="1" stroke-linecap="butt" stroke-linejoin="miter" stroke="rgb(41.568627%, 23.921569%, 60.392157%)" stroke-opacity="1" stroke-miterlimit="10" d="M 752.75 390.726562 C 752.75 394.390625 747.25 394.390625 747.25 390.726562 C 747.25 387.058594 752.75 387.058594 752.75 390.726562 "/>
<path fill-rule="nonzero" fill="rgb(41.568627%, 23.921569%, 60.392157%)" fill-opacity="1" stroke-width="1" stroke-linecap="butt" stroke-linejoin="miter" stroke="rgb(41.568627%, 23.921569%, 60.392157%)" stroke-opacity="1" stroke-miterlimit="10" d="M 696.023438 361.453125 C 696.023438 365.121094 690.523438 365.121094 690.523438 361.453125 C 690.523438 357.789062 696.023438 357.789062 696.023438 361.453125 "/>
<path fill-rule="nonzero" fill="rgb(12.156863%, 47.058824%, 70.588235%)" fill-opacity="1" stroke-width="1" stroke-linecap="butt" stroke-linejoin="miter" stroke="rgb(12.156863%, 47.058824%, 70.588235%)" stroke-opacity="1" stroke-miterlimit="10" d="M 316.289062 591.910156 C 316.289062 595.578125 310.789062 595.578125 310.789062 591.910156 C 310.789062 588.242188 316.289062 588.242188 316.289062 591.910156 "/>
<path fill-rule="nonzero" fill="rgb(30.196078%, 68.627451%, 29.019608%)" fill-opacity="1" stroke-width="1" stroke-linecap="butt" stroke-linejoin="miter" stroke="rgb(30.196078%, 68.627451%, 29.019608%)" stroke-opacity="1" stroke-miterlimit="10" d="M 344.386719 351.726562 C 344.386719 355.390625 338.886719 355.390625 338.886719 351.726562 C 338.886719 348.058594 344.386719 348.058594 344.386719 351.726562 "/>
<path fill-rule="nonzero" fill="rgb(14.901961%, 14.901961%, 14.901961%)" fill-opacity="1" stroke-width="1" stroke-linecap="butt" stroke-linejoin="miter" stroke="rgb(14.901961%, 14.901961%, 14.901961%)" stroke-opacity="1" stroke-miterlimit="10" d="M 630.914062 390.933594 L 635.164062 382.433594 L 639.414062 390.933594 Z M 630.914062 390.933594 "/>
<path fill-rule="nonzero" fill="rgb(100%, 84.313725%, 0%)" fill-opacity="1" stroke-width="1" stroke-linecap="butt" stroke-linejoin="miter" stroke="rgb(100%, 84.313725%, 0%)" stroke-opacity="1" stroke-miterlimit="10" d="M 401.519531 154.183594 L 414.21875 154.183594 L 414.21875 166.882812 L 401.519531 166.882812 Z M 401.519531 154.183594 "/>
<path fill-rule="nonzero" fill="rgb(30.196078%, 68.627451%, 29.019608%)" fill-opacity="1" stroke-width="1" stroke-linecap="butt" stroke-linejoin="miter" stroke="rgb(30.196078%, 68.627451%, 29.019608%)" stroke-opacity="1" stroke-miterlimit="10" d="M 264.105469 122.324219 C 264.105469 125.992188 258.605469 125.992188 258.605469 122.324219 C 258.605469 118.65625 264.105469 118.65625 264.105469 122.324219 "/>
<path fill-rule="nonzero" fill="rgb(30.196078%, 68.627451%, 29.019608%)" fill-opacity="1" stroke-width="1" stroke-linecap="butt" stroke-linejoin="miter" stroke="rgb(30.196078%, 68.627451%, 29.019608%)" stroke-opacity="1" stroke-miterlimit="10" d="M 434.460938 214.382812 C 434.460938 218.050781 428.960938 218.050781 428.960938 214.382812 C 428.960938 210.71875 434.460938 210.71875 434.460938 214.382812 "/>
<path fill-rule="nonzero" fill="rgb(14.901961%, 14.901961%, 14.901961%)" fill-opacity="1" stroke-width="1" stroke-linecap="butt" stroke-linejoin="miter" stroke="rgb(14.901961%, 14.901961%, 14.901961%)" stroke-opacity="1" stroke-miterlimit="10" d="M 284.273438 366.324219 L 288.523438 357.824219 L 292.773438 366.324219 Z M 284.273438 366.324219 "/>
<path fill-rule="nonzero" fill="rgb(41.568627%, 23.921569%, 60.392157%)" fill-opacity="1" stroke-width="1" stroke-linecap="butt" stroke-linejoin="miter" stroke="rgb(41.568627%, 23.921569%, 60.392157%)" stroke-opacity="1" stroke-miterlimit="10" d="M 249.679688 209.109375 C 249.679688 212.777344 244.179688 212.777344 244.179688 209.109375 C 244.179688 205.445312 249.679688 205.445312 249.679688 209.109375 "/>
<path fill-rule="nonzero" fill="rgb(41.568627%, 23.921569%, 60.392157%)" fill-opacity="1" stroke-width="1" stroke-linecap="butt" stroke-linejoin="miter" stroke="rgb(41.568627%, 23.921569%, 60.392157%)" stroke-opacity="1" stroke-miterlimit="10" d="M 678.476562 433.097656 C 678.476562 437.429688 671.976562 437.429688 671.976562 433.097656 C 671.976562 428.761719 678.476562 428.761719 678.476562 433.097656 "/>
<path fill-rule="nonzero" fill="rgb(41.568627%, 23.921569%, 60.392157%)" fill-opacity="1" stroke-width="1" stroke-linecap="butt" stroke-linejoin="miter" stroke="rgb(41.568627%, 23.921569%, 60.392157%)" stroke-opacity="1" stroke-miterlimit="10" d="M 246.234375 50 C 246.234375 53.667969 240.734375 53.667969 240.734375 50 C 240.734375 46.332031 246.234375 46.332031 246.234375 50 "/>
<path fill-rule="nonzero" fill="rgb(98.431373%, 60.392157%, 60%)" fill-opacity="1" stroke-width="1" stroke-linecap="butt" stroke-linejoin="miter" stroke="rgb(98.431373%, 60.392157%, 60%)" stroke-opacity="1" stroke-miterlimit="10" d="M 744.691406 479.660156 C 744.691406 483.324219 739.191406 483.324219 739.191406 479.660156 C 739.191406 475.992188 744.691406 475.992188 744.691406 479.660156 "/>
<path fill-rule="nonzero" fill="rgb(98.431373%, 60.392157%, 60%)" fill-opacity="1" stroke-width="1" stroke-linecap="butt" stroke-linejoin="miter" stroke="rgb(98.431373%, 60.392157%, 60%)" stroke-opacity="1" stroke-miterlimit="10" d="M 197.019531 742.6875 C 197.019531 746.355469 191.519531 746.355469 191.519531 742.6875 C 191.519531 739.019531 197.019531 739.019531 197.019531 742.6875 "/>
<path fill-rule="nonzero" fill="rgb(14.901961%, 14.901961%, 14.901961%)" fill-opacity="1" stroke-width="1" stroke-linecap="butt" stroke-linejoin="miter" stroke="rgb(14.901961%, 14.901961%, 14.901961%)" stroke-opacity="1" stroke-miterlimit="10" d="M 46.25 673.320312 L 50 665.820312 L 53.75 673.320312 Z M 46.25 673.320312 "/>
<path fill-rule="nonzero" fill="rgb(12.156863%, 47.058824%, 70.588235%)" fill-opacity="1" stroke-width="1" stroke-linecap="butt" stroke-linejoin="miter" stroke="rgb(12.156863%, 47.058824%, 70.588235%)" stroke-opacity="1" stroke-miterlimit="10" d="M 317.375 514.238281 C 317.375 517.90625 311.875 517.90625 311.875 514.238281 C 311.875 510.570312 317.375 510.570312 317.375 514.238281 "/>
<path fill-rule="nonzero" fill="rgb(12.156863%, 47.058824%, 70.588235%)" fill-opacity="1" stroke-width="1" stroke-linecap="butt" stroke-linejoin="miter" stroke="rgb(12.156863%, 47.058824%, 70.588235%)" stroke-opacity="1" stroke-miterlimit="10" d="M 288.726562 654.355469 C 288.726562 658.019531 283.226562 658.019531 283.226562 654.355469 C 283.226562 650.6875 288.726562 650.6875 288.726562 654.355469 "/>
<path fill-rule="nonzero" fill="rgb(14.901961%, 14.901961%, 14.901961%)" fill-opacity="1" stroke-width="1" stroke-linecap="butt" stroke-linejoin="miter" stroke="rgb(14.901961%, 14.901961%, 14.901961%)" stroke-opacity="1" stroke-miterlimit="10" d="M 223.757812 631.726562 L 227.507812 624.226562 L 231.257812 631.726562 Z M 223.757812 631.726562 "/>
</svg>
