<?xml version="1.0" encoding="UTF-8"?>
<svg xmlns="http://www.w3.org/2000/svg" xmlns:xlink="http://www.w3.org/1999/xlink" width="800" height="800" viewBox="0 0 800 800">
<rect x="-80" y="-80" width="960" height="960" fill="rgb(100%, 100%, 100%)" fill-opacity="1"/>
<path fill="none" stroke-width="1.5" stroke-linecap="butt" stroke-linejoin="miter" stroke="rgb(99.215686%, 74.901961%, 43.529412%)" stroke-opacity="1" stroke-miterlimit="10" d="M 355.9375 546.9375 C 372.683594 545.34375 386.929688 538.335938 395.921875 524.164062 "/>
<path fill-rule="nonzero" fill="rgb(99.215686%, 74.901961%, 43.529412%)" fill-opacity="1" d="M 399.746094 518.140625 L 397.878906 525.40625 L 393.964844 522.921875 L 399.746094 518.140625 "/>
<path fill="none" stroke-width="1.5" stroke-linecap="butt" stroke-linejoin="miter" stroke="rgb(99.215686%, 74.901961%, 43.529412%)" stroke-opacity="1" stroke-miterlimit="10" d="M 400.128906 517.535156 C 416.910156 513.253906 430.257812 503.851562 437.183594 488.019531 "/>
<path fill-rule="nonzero" fill="rgb(99.215686%, 74.901961%, 43.529412%)" fill-opacity="1" d="M 440.042969 481.484375 L 439.304688 488.945312 L 435.058594 487.089844 L 440.042969 481.484375 "/>
<path fill="none" stroke-width="1.5" stroke-linecap="butt" stroke-linejoin="miter" stroke="rgb(99.215686%, 74.901961%, 43.529412%)" stroke-opacity="1" stroke-miterlimit="10" d="M 534.515625 367.878906 C 551.519531 351.292969 560.539062 331.035156 558.320312 307.410156 "/>
<path fill-rule="nonzero" fill="rgb(99.215686%, 74.901961%, 43.529412%)" fill-opacity="1" d="M 557.652344 300.304688 L 560.625 307.191406 L 556.011719 307.625 L 557.652344 300.304688 "/>
<path fill="none" stroke-width="1.5" stroke-linecap="butt" stroke-linejoin="miter" stroke="rgb(99.215686%, 74.901961%, 43.529412%)" stroke-opacity="1" stroke-miterlimit="10" d="M 338.871094 371.765625 C 369.15625 426.355469 414.550781 461.484375 475.710938 473.953125 "/>
<path fill-rule="nonzero" fill="rgb(99.215686%, 74.901961%, 43.529412%)" fill-opacity="1" d="M 482.703125 475.378906 L 475.25 476.226562 L 476.175781 471.683594 L 482.703125 475.378906 "/>
<path fill="none" stroke-width="1.5" stroke-linecap="butt" stroke-linejoin="miter" stroke="rgb(99.215686%, 74.901961%, 43.529412%)" stroke-opacity="1" stroke-miterlimit="10" d="M 410.300781 376.460938 C 376.015625 373.265625 345.542969 382.664062 321.179688 406.972656 "/>
<path fill-rule="nonzero" fill="rgb(99.215686%, 74.901961%, 43.529412%)" fill-opacity="1" d="M 316.128906 412.011719 L 319.542969 405.332031 L 322.816406 408.613281 L 316.128906 412.011719 "/>
<path fill="none" stroke-width="1.5" stroke-linecap="butt" stroke-linejoin="miter" stroke="rgb(99.215686%, 74.901961%, 43.529412%)" stroke-opacity="1" stroke-miterlimit="10" d="M 508.136719 325.273438 C 470.394531 326.335938 438.546875 340.667969 415.164062 370.296875 "/>
<path fill-rule="nonzero" fill="rgb(99.215686%, 74.901961%, 43.529412%)" fill-opacity="1" d="M 410.746094 375.898438 L 413.347656 368.863281 L 416.984375 371.734375 L 410.746094 375.898438 "/>
<path fill="none" stroke-width="1.5" stroke-linecap="butt" stroke-linejoin="miter" stroke="rgb(99.215686%, 74.901961%, 43.529412%)" stroke-opacity="1" stroke-miterlimit="10" d="M 440.328125 480.824219 C 486.824219 459.503906 518.558594 424.671875 532.390625 375.4375 "/>
<path fill-rule="nonzero" fill="rgb(99.215686%, 74.901961%, 43.529412%)" fill-opacity="1" d="M 534.320312 368.570312 L 534.621094 376.066406 L 530.160156 374.8125 L 534.320312 368.570312 "/>
<path fill="none" stroke-width="1.5" stroke-linecap="butt" stroke-linejoin="miter" stroke="rgb(99.215686%, 74.901961%, 43.529412%)" stroke-opacity="1" stroke-miterlimit="10" d="M 557.585938 299.589844 C 539.804688 299.421875 524.101562 305.257812 513.035156 319.132812 "/>
<path fill-rule="nonzero" fill="rgb(99.215686%, 74.901961%, 43.529412%)" fill-opacity="1" d="M 508.585938 324.710938 L 511.222656 317.6875 L 514.84375 320.578125 L 508.585938 324.710938 "/>
<path fill="none" stroke-width="1.5" stroke-linecap="butt" stroke-linejoin="miter" stroke="rgb(99.215686%, 74.901961%, 43.529412%)" stroke-opacity="1" stroke-miterlimit="10" d="M 483.40625 475.523438 C 500.832031 509.484375 527.796875 532.265625 565.011719 540.683594 "/>
<path fill-rule="nonzero" fill="rgb(99.215686%, 74.901961%, 43.529412%)" fill-opacity="1" d="M 571.96875 542.257812 L 564.5 542.945312 L 565.523438 538.425781 L 571.96875 542.257812 "/>
<path fill="none" stroke-width="1.5" stroke-linecap="butt" stroke-linejoin="miter" stroke="rgb(99.215686%, 74.901961%, 43.529412%)" stroke-opacity="1" stroke-miterlimit="10" d="M 628.714844 565.625 C 643.546875 568.621094 657.738281 566.394531 669.082031 556.441406 "/>
<path fill-rule="nonzero" fill="rgb(99.215686%, 74.901961%, 43.529412%)" fill-opacity="1" d="M 674.445312 551.738281 L 670.613281 558.183594 L 667.554688 554.699219 L 674.445312 551.738281 "/>
<path fill="none" stroke-width="1.5" stroke-linecap="butt" stroke-linejoin="miter" stroke="rgb(99.215686%, 74.901961%, 43.529412%)" stroke-opacity="1" stroke-miterlimit="10" d="M 572.671875 542.417969 C 585.222656 557.453125 601.316406 566.34375 620.867188 565.832031 "/>
<path fill-rule="nonzero" fill="rgb(99.215686%, 74.901961%, 43.529412%)" fill-opacity="1" d="M 627.996094 565.644531 L 620.925781 568.148438 L 620.804688 563.515625 L 627.996094 565.644531 "/>
<path fill="none" stroke-width="1.5" stroke-linecap="butt" stroke-linejoin="miter" stroke="rgb(99.215686%, 74.901961%, 43.529412%)" stroke-opacity="1" stroke-miterlimit="10" d="M 315.621094 412.519531 C 328.050781 404.90625 336.617188 394.035156 338.078125 379.578125 "/>
<path fill-rule="nonzero" fill="rgb(99.215686%, 74.901961%, 43.529412%)" fill-opacity="1" d="M 338.796875 372.480469 L 340.386719 379.808594 L 335.773438 379.34375 L 338.796875 372.480469 "/>
<path fill="none" stroke-width="1.5" stroke-linecap="butt" stroke-linejoin="miter" stroke="rgb(99.215686%, 74.901961%, 43.529412%)" stroke-opacity="1" stroke-miterlimit="10" d="M 314.601562 572.636719 C 329.792969 571.773438 343 565.984375 351.527344 553.429688 "/>
<path fill-rule="nonzero" fill="rgb(99.215686%, 74.901961%, 43.529412%)" fill-opacity="1" d="M 355.535156 547.53125 L 353.445312 554.734375 L 349.609375 552.128906 L 355.535156 547.53125 "/>
<path fill="none" stroke-width="1.5" stroke-linecap="butt" stroke-linejoin="miter" stroke="rgb(98.431373%, 60.392157%, 60%)" stroke-opacity="1" stroke-miterlimit="10" d="M 388.34375 78.09375 C 358.460938 83.234375 334.589844 98.15625 319.566406 124.472656 "/>
<path fill-rule="nonzero" fill="rgb(98.431373%, 60.392157%, 60%)" fill-opacity="1" d="M 316.03125 130.667969 L 317.554688 123.324219 L 321.578125 125.621094 L 316.03125 130.667969 "/>
<path fill="none" stroke-width="1.5" stroke-linecap="butt" stroke-linejoin="miter" stroke="rgb(98.431373%, 60.392157%, 60%)" stroke-opacity="1" stroke-miterlimit="10" d="M 258.882812 293.148438 C 216.726562 337.332031 197.121094 389.960938 203.3125 450.703125 "/>
<path fill-rule="nonzero" fill="rgb(98.431373%, 60.392157%, 60%)" fill-opacity="1" d="M 204.035156 457.800781 L 201.003906 450.9375 L 205.617188 450.46875 L 204.035156 457.800781 "/>
<path fill="none" stroke-width="1.5" stroke-linecap="butt" stroke-linejoin="miter" stroke="rgb(41.568627%, 23.921569%, 60.392157%)" stroke-opacity="1" stroke-miterlimit="10" d="M 363.890625 429.757812 C 387.203125 381.964844 389.699219 333.0625 368.394531 284.355469 "/>
<path fill-rule="nonzero" fill="rgb(41.568627%, 23.921569%, 60.392157%)" fill-opacity="1" d="M 365.535156 277.820312 L 370.515625 283.425781 L 366.269531 285.285156 L 365.535156 277.820312 "/>
<path fill="none" stroke-width="1.5" stroke-linecap="butt" stroke-linejoin="miter" stroke="rgb(98.431373%, 60.392157%, 60%)" stroke-opacity="1" stroke-miterlimit="10" d="M 540.125 125.867188 C 548.304688 107.929688 549.363281 89.457031 540.398438 71.933594 "/>
<path fill-rule="nonzero" fill="rgb(98.431373%, 60.392157%, 60%)" fill-opacity="1" d="M 537.148438 65.585938 L 542.460938 70.878906 L 538.332031 72.992188 L 537.148438 65.585938 "/>
<path fill="none" stroke-width="1.5" stroke-linecap="butt" stroke-linejoin="miter" stroke="rgb(98.431373%, 60.392157%, 60%)" stroke-opacity="1" stroke-miterlimit="10" d="M 310.324219 684.824219 C 348.097656 727.984375 395.671875 750.832031 453.015625 750.101562 "/>
<path fill-rule="nonzero" fill="rgb(98.431373%, 60.392157%, 60%)" fill-opacity="1" d="M 460.148438 750.007812 L 453.042969 752.417969 L 452.984375 747.78125 L 460.148438 750.007812 "/>
<path fill="none" stroke-width="1.5" stroke-linecap="butt" stroke-linejoin="miter" stroke="rgb(98.431373%, 60.392157%, 60%)" stroke-opacity="1" stroke-miterlimit="10" d="M 204.105469 458.515625 C 204.351562 547.285156 237.0625 621.839844 304.371094 679.703125 "/>
<path fill-rule="nonzero" fill="rgb(98.431373%, 60.392157%, 60%)" fill-opacity="1" d="M 309.78125 684.355469 L 302.859375 681.460938 L 305.882812 677.945312 L 309.78125 684.355469 "/>
<path fill="none" stroke-width="1.5" stroke-linecap="butt" stroke-linejoin="miter" stroke="rgb(41.568627%, 23.921569%, 60.392157%)" stroke-opacity="1" stroke-miterlimit="10" d="M 319.355469 473.867188 C 338.769531 467.855469 353.679688 455.984375 361.042969 437.074219 "/>
<path fill-rule="nonzero" fill="rgb(41.568627%, 23.921569%, 60.392157%)" fill-opacity="1" d="M 363.628906 430.425781 L 363.203125 437.914062 L 358.882812 436.230469 L 363.628906 430.425781 "/>
<path fill="none" stroke-width="1.5" stroke-linecap="butt" stroke-linejoin="miter" stroke="rgb(98.431373%, 60.392157%, 60%)" stroke-opacity="1" stroke-miterlimit="10" d="M 586.292969 728.078125 C 628.199219 729.726562 664.46875 716.148438 692.6875 685.144531 "/>
<path fill-rule="nonzero" fill="rgb(98.431373%, 60.392157%, 60%)" fill-opacity="1" d="M 697.488281 679.871094 L 694.402344 686.707031 L 690.972656 683.585938 L 697.488281 679.871094 "/>
<path fill="none" stroke-width="1.5" stroke-linecap="butt" stroke-linejoin="miter" stroke="rgb(41.568627%, 23.921569%, 60.392157%)" stroke-opacity="1" stroke-miterlimit="10" d="M 539.0625 479.386719 C 550.585938 469.824219 557.679688 457.515625 557.082031 442.589844 "/>
<path fill-rule="nonzero" fill="rgb(41.568627%, 23.921569%, 60.392157%)" fill-opacity="1" d="M 556.796875 435.464844 L 559.398438 442.496094 L 554.765625 442.683594 L 556.796875 435.464844 "/>
<path fill="none" stroke-width="1.5" stroke-linecap="butt" stroke-linejoin="miter" stroke="rgb(98.431373%, 60.392157%, 60%)" stroke-opacity="1" stroke-miterlimit="10" d="M 460.867188 750 C 503.136719 761.996094 543.386719 757.054688 579.789062 732.472656 "/>
<path fill-rule="nonzero" fill="rgb(98.431373%, 60.392157%, 60%)" fill-opacity="1" d="M 585.699219 728.480469 L 581.085938 734.394531 L 578.492188 730.550781 L 585.699219 728.480469 "/>
<path fill="none" stroke-width="1.5" stroke-linecap="butt" stroke-linejoin="miter" stroke="rgb(98.431373%, 60.392157%, 60%)" stroke-opacity="1" stroke-miterlimit="10" d="M 536.820312 64.945312 C 518.589844 50.101562 497.652344 43.511719 474.675781 48.375 "/>
<path fill-rule="nonzero" fill="rgb(98.431373%, 60.392157%, 60%)" fill-opacity="1" d="M 467.695312 49.851562 L 474.195312 46.105469 L 475.15625 50.640625 L 467.695312 49.851562 "/>
<path fill="none" stroke-width="1.5" stroke-linecap="butt" stroke-linejoin="miter" stroke="rgb(41.568627%, 23.921569%, 60.392157%)" stroke-opacity="1" stroke-miterlimit="10" d="M 556.765625 434.746094 C 528.535156 483.804688 522.390625 535.53125 541.410156 588.828125 "/>
<path fill-rule="nonzero" fill="rgb(41.568627%, 23.921569%, 60.392157%)" fill-opacity="1" d="M 543.804688 595.546875 L 539.226562 589.605469 L 543.59375 588.050781 L 543.804688 595.546875 "/>
<path fill="none" stroke-width="1.5" stroke-linecap="butt" stroke-linejoin="miter" stroke="rgb(41.568627%, 23.921569%, 60.392157%)" stroke-opacity="1" stroke-miterlimit="10" d="M 544.046875 596.222656 C 511.824219 611.40625 489.65625 635.816406 480.703125 670.277344 "/>
<path fill-rule="nonzero" fill="rgb(41.568627%, 23.921569%, 60.392157%)" fill-opacity="1" d="M 478.910156 677.179688 L 478.460938 669.695312 L 482.945312 670.859375 L 478.910156 677.179688 "/>
<path fill="none" stroke-width="1.5" stroke-linecap="butt" stroke-linejoin="miter" stroke="rgb(98.431373%, 60.392157%, 60%)" stroke-opacity="1" stroke-miterlimit="10" d="M 315.675781 131.292969 C 273.417969 174.019531 253.1875 225.453125 258.226562 285.324219 "/>
<path fill-rule="nonzero" fill="rgb(98.431373%, 60.392157%, 60%)" fill-opacity="1" d="M 258.824219 292.433594 L 255.914062 285.519531 L 260.535156 285.128906 L 258.824219 292.433594 "/>
<path fill="none" stroke-width="1.5" stroke-linecap="butt" stroke-linejoin="miter" stroke="rgb(41.568627%, 23.921569%, 60.392157%)" stroke-opacity="1" stroke-miterlimit="10" d="M 440.980469 283.632812 C 433.917969 320.789062 441.105469 355.023438 465.074219 384.265625 "/>
<path fill-rule="nonzero" fill="rgb(41.568627%, 23.921569%, 60.392157%)" fill-opacity="1" d="M 469.59375 389.78125 L 463.28125 385.734375 L 466.867188 382.796875 L 469.59375 389.78125 "/>
<path fill="none" stroke-width="1.5" stroke-linecap="butt" stroke-linejoin="miter" stroke="rgb(41.568627%, 23.921569%, 60.392157%)" stroke-opacity="1" stroke-miterlimit="10" d="M 478.726562 677.875 C 461.734375 647.203125 436.328125 626.964844 401.894531 620.4375 "/>
<path fill-rule="nonzero" fill="rgb(41.568627%, 23.921569%, 60.392157%)" fill-opacity="1" d="M 394.886719 619.105469 L 402.328125 618.160156 L 401.460938 622.714844 L 394.886719 619.105469 "/>
<path fill="none" stroke-width="1.5" stroke-linecap="butt" stroke-linejoin="miter" stroke="rgb(30.196078%, 68.627451%, 29.019608%)" stroke-opacity="1" stroke-miterlimit="10" d="M 472.816406 598.3125 C 460.4375 599.648438 449.679688 604.832031 443.4375 615.542969 "/>
<path fill-rule="nonzero" fill="rgb(30.196078%, 68.627451%, 29.019608%)" fill-opacity="1" d="M 439.847656 621.707031 L 441.4375 614.378906 L 445.441406 616.710938 L 439.847656 621.707031 "/>
<path fill="none" stroke-width="1.5" stroke-linecap="butt" stroke-linejoin="miter" stroke="rgb(30.196078%, 68.627451%, 29.019608%)" stroke-opacity="1" stroke-miterlimit="10" d="M 89.320312 476.515625 C 81.171875 466.585938 70.628906 460.289062 57.84375 460.890625 "/>
<path fill-rule="nonzero" fill="rgb(30.196078%, 68.627451%, 29.019608%)" fill-opacity="1" d="M 50.71875 461.222656 L 57.734375 458.574219 L 57.949219 463.203125 L 50.71875 461.222656 "/>
<path fill="none" stroke-width="1.5" stroke-linecap="butt" stroke-linejoin="miter" stroke="rgb(30.196078%, 68.627451%, 29.019608%)" stroke-opacity="1" stroke-miterlimit="10" d="M 89.320312 476.515625 C 96.65625 509.367188 114.550781 534.910156 144.496094 550.242188 "/>
<path fill-rule="nonzero" fill="rgb(30.196078%, 68.627451%, 29.019608%)" fill-opacity="1" d="M 150.84375 553.492188 L 143.441406 552.304688 L 145.550781 548.175781 L 150.84375 553.492188 "/>
<path fill="none" stroke-width="1.5" stroke-linecap="butt" stroke-linejoin="miter" stroke="rgb(30.196078%, 68.627451%, 29.019608%)" stroke-opacity="1" stroke-miterlimit="10" d="M 50 461.257812 C 57.835938 471.035156 68.054688 477.34375 80.527344 476.859375 "/>
<path fill-rule="nonzero" fill="rgb(30.196078%, 68.627451%, 29.019608%)" fill-opacity="1" d="M 87.652344 476.578125 L 80.617188 479.175781 L 80.4375 474.542969 L 87.652344 476.578125 "/>
<path fill="none" stroke-width="1.5" stroke-linecap="butt" stroke-linejoin="miter" stroke="rgb(30.196078%, 68.627451%, 29.019608%)" stroke-opacity="1" stroke-miterlimit="10" d="M 359.234375 664.691406 C 388.890625 664.445312 414.332031 653.847656 432.941406 630.785156 "/>
<path fill-rule="nonzero" fill="rgb(30.196078%, 68.627451%, 29.019608%)" fill-opacity="1" d="M 437.421875 625.234375 L 434.746094 632.242188 L 431.136719 629.328125 L 437.421875 625.234375 "/>
<path fill="none" stroke-width="1.5" stroke-linecap="butt" stroke-linejoin="miter" stroke="rgb(30.196078%, 68.627451%, 29.019608%)" stroke-opacity="1" stroke-miterlimit="10" d="M 438.773438 623.558594 C 451.59375 621.945312 462.597656 616.34375 468.945312 605.140625 "/>
<path fill-rule="nonzero" fill="rgb(30.196078%, 68.627451%, 29.019608%)" fill-opacity="1" d="M 472.460938 598.9375 L 470.960938 606.285156 L 466.929688 604 L 472.460938 598.9375 "/>
<path fill="none" stroke-width="1.5" stroke-linecap="butt" stroke-linejoin="miter" stroke="rgb(30.196078%, 68.627451%, 29.019608%)" stroke-opacity="1" stroke-miterlimit="10" d="M 244.597656 625.675781 C 274.242188 654.945312 309.949219 669.277344 351.417969 665.417969 "/>
<path fill-rule="nonzero" fill="rgb(30.196078%, 68.627451%, 29.019608%)" fill-opacity="1" d="M 358.519531 664.757812 L 351.632812 667.726562 L 351.203125 663.109375 L 358.519531 664.757812 "/>
<path fill="none" stroke-width="1.5" stroke-linecap="butt" stroke-linejoin="miter" stroke="rgb(30.196078%, 68.627451%, 29.019608%)" stroke-opacity="1" stroke-miterlimit="10" d="M 151.484375 553.820312 C 169.476562 589.980469 197.714844 614.375 236.964844 623.835938 "/>
<path fill-rule="nonzero" fill="rgb(30.196078%, 68.627451%, 29.019608%)" fill-opacity="1" d="M 243.898438 625.507812 L 236.421875 626.089844 L 237.507812 621.582031 L 243.898438 625.507812 "/>
<path fill="none" stroke-width="1.5" stroke-linecap="butt" stroke-linejoin="miter" stroke="rgb(41.568627%, 23.921569%, 60.392157%)" stroke-opacity="1" stroke-miterlimit="10" d="M 465.558594 315.363281 C 463.871094 303.378906 458.496094 293.085938 447.890625 287.363281 "/>
<path fill-rule="nonzero" fill="rgb(41.568627%, 23.921569%, 60.392157%)" fill-opacity="1" d="M 441.613281 283.972656 L 448.988281 285.320312 L 446.789062 289.402344 L 441.613281 283.972656 "/>
<path fill="none" stroke-width="1.5" stroke-linecap="butt" stroke-linejoin="miter" stroke="rgb(41.568627%, 23.921569%, 60.392157%)" stroke-opacity="1" stroke-miterlimit="10" d="M 365.246094 277.160156 C 390.273438 303.914062 421.160156 317.882812 457.71875 315.808594 "/>
<path fill-rule="nonzero" fill="rgb(41.568627%, 23.921569%, 60.392157%)" fill-opacity="1" d="M 464.84375 315.402344 L 457.851562 318.121094 L 457.589844 313.492188 L 464.84375 315.402344 "/>
<path fill="none" stroke-width="1.5" stroke-linecap="butt" stroke-linejoin="miter" stroke="rgb(41.568627%, 23.921569%, 60.392157%)" stroke-opacity="1" stroke-miterlimit="10" d="M 470.050781 390.339844 C 508.222656 417.164062 550.289062 426.246094 595.402344 414.402344 "/>
<path fill-rule="nonzero" fill="rgb(41.568627%, 23.921569%, 60.392157%)" fill-opacity="1" d="M 602.300781 412.589844 L 595.992188 416.644531 L 594.8125 412.160156 L 602.300781 412.589844 "/>
<path fill="none" stroke-width="1.5" stroke-linecap="butt" stroke-linejoin="miter" stroke="rgb(41.568627%, 23.921569%, 60.392157%)" stroke-opacity="1" stroke-miterlimit="10" d="M 603.460938 412.285156 C 573.921875 422.929688 552.316406 442.464844 541.714844 471.996094 "/>
<path fill-rule="nonzero" fill="rgb(41.568627%, 23.921569%, 60.392157%)" fill-opacity="1" d="M 539.304688 478.710938 L 539.53125 471.214844 L 543.894531 472.78125 L 539.304688 478.710938 "/>
<path fill="none" stroke-width="1.5" stroke-linecap="butt" stroke-linejoin="miter" stroke="rgb(41.568627%, 23.921569%, 60.392157%)" stroke-opacity="1" stroke-miterlimit="10" d="M 603.460938 412.285156 C 617.976562 413.398438 631.277344 409.613281 640.925781 398.761719 "/>
<path fill-rule="nonzero" fill="rgb(41.568627%, 23.921569%, 60.392157%)" fill-opacity="1" d="M 645.667969 393.429688 L 642.660156 400.300781 L 639.195312 397.222656 L 645.667969 393.429688 "/>
<path fill="none" stroke-width="1.5" stroke-linecap="butt" stroke-linejoin="miter" stroke="rgb(41.568627%, 23.921569%, 60.392157%)" stroke-opacity="1" stroke-miterlimit="10" d="M 646.144531 392.894531 C 631.789062 391.722656 618.59375 395.382812 609.015625 406.082031 "/>
<path fill-rule="nonzero" fill="rgb(41.568627%, 23.921569%, 60.392157%)" fill-opacity="1" d="M 604.257812 411.394531 L 607.289062 404.535156 L 610.742188 407.628906 L 604.257812 411.394531 "/>
<path fill="none" stroke-width="1.5" stroke-linecap="butt" stroke-linejoin="miter" stroke="rgb(98.431373%, 60.392157%, 60%)" stroke-opacity="1" stroke-miterlimit="10" d="M 501.566406 158.414062 C 517.097656 155.1875 529.789062 147.171875 536.695312 132.929688 "/>
<path fill-rule="nonzero" fill="rgb(98.431373%, 60.392157%, 60%)" fill-opacity="1" d="M 539.8125 126.515625 L 538.78125 133.945312 L 534.613281 131.917969 L 539.8125 126.515625 "/>
<path fill="none" stroke-width="1.5" stroke-linecap="butt" stroke-linejoin="miter" stroke="rgb(98.431373%, 60.392157%, 60%)" stroke-opacity="1" stroke-miterlimit="10" d="M 466.992188 50 C 439.269531 46.609375 414.191406 53.378906 394.019531 72.667969 "/>
<path fill-rule="nonzero" fill="rgb(98.431373%, 60.392157%, 60%)" fill-opacity="1" d="M 388.863281 77.59375 L 392.417969 70.992188 L 395.621094 74.339844 L 388.863281 77.59375 "/>
<path fill="none" stroke-width="1.5" stroke-linecap="butt" stroke-linejoin="miter" stroke="rgb(98.431373%, 60.392157%, 60%)" stroke-opacity="1" stroke-miterlimit="10" d="M 697.972656 679.339844 C 710.203125 690.761719 724.828125 696.777344 741.308594 694.101562 "/>
<path fill-rule="nonzero" fill="rgb(98.431373%, 60.392157%, 60%)" fill-opacity="1" d="M 748.351562 692.957031 L 741.679688 696.390625 L 740.9375 691.8125 L 748.351562 692.957031 "/>
<path fill="none" stroke-width="1.5" stroke-linecap="butt" stroke-linejoin="miter" stroke="rgb(12.156863%, 47.058824%, 70.588235%)" stroke-opacity="1" stroke-miterlimit="10" d="M 406.054688 258.464844 C 391.273438 231.855469 369.222656 214.1875 339.308594 208.675781 "/>
<path fill-rule="nonzero" fill="rgb(12.156863%, 47.058824%, 70.588235%)" fill-opacity="1" d="M 332.292969 207.382812 L 339.730469 206.394531 L 338.890625 210.953125 L 332.292969 207.382812 "/>
<path fill="none" stroke-width="1.5" stroke-linecap="butt" stroke-linejoin="miter" stroke="rgb(12.156863%, 47.058824%, 70.588235%)" stroke-opacity="1" stroke-miterlimit="10" d="M 331.585938 207.25 C 307.171875 193.816406 281.4375 190.773438 255.59375 201.148438 "/>
<path fill-rule="nonzero" fill="rgb(12.156863%, 47.058824%, 70.588235%)" fill-opacity="1" d="M 248.976562 203.804688 L 254.730469 198.996094 L 256.457031 203.300781 L 248.976562 203.804688 "/>
<path fill="none" stroke-width="1.5" stroke-linecap="butt" stroke-linejoin="miter" stroke="rgb(12.156863%, 47.058824%, 70.588235%)" stroke-opacity="1" stroke-miterlimit="10" d="M 208.222656 545.816406 C 183.3125 568.351562 169.945312 596.460938 171.378906 630.003906 "/>
<path fill-rule="nonzero" fill="rgb(12.156863%, 47.058824%, 70.588235%)" fill-opacity="1" d="M 171.683594 637.132812 L 169.0625 630.105469 L 173.691406 629.90625 L 171.683594 637.132812 "/>
<path fill="none" stroke-width="1.5" stroke-linecap="butt" stroke-linejoin="miter" stroke="rgb(12.156863%, 47.058824%, 70.588235%)" stroke-opacity="1" stroke-miterlimit="10" d="M 171.710938 637.851562 C 153.632812 647.988281 141.292969 663.007812 137.988281 683.441406 "/>
<path fill-rule="nonzero" fill="rgb(12.156863%, 47.058824%, 70.588235%)" fill-opacity="1" d="M 136.847656 690.484375 L 135.699219 683.074219 L 140.277344 683.8125 L 136.847656 690.484375 "/>
<path fill="none" stroke-width="1.5" stroke-linecap="butt" stroke-linejoin="miter" stroke="rgb(12.156863%, 47.058824%, 70.588235%)" stroke-opacity="1" stroke-miterlimit="10" d="M 243.023438 421 C 213.476562 454.621094 200.410156 493.800781 207.054688 538.050781 "/>
<path fill-rule="nonzero" fill="rgb(12.156863%, 47.058824%, 70.588235%)" fill-opacity="1" d="M 208.117188 545.105469 L 204.765625 538.394531 L 209.347656 537.707031 L 208.117188 545.105469 "/>
<path fill="none" stroke-width="1.5" stroke-linecap="butt" stroke-linejoin="miter" stroke="rgb(12.156863%, 47.058824%, 70.588235%)" stroke-opacity="1" stroke-miterlimit="10" d="M 203.65625 294.648438 C 196.976562 339.925781 207.550781 380.800781 237.828125 415.109375 "/>
<path fill-rule="nonzero" fill="rgb(12.156863%, 47.058824%, 70.588235%)" fill-opacity="1" d="M 242.546875 420.460938 L 236.089844 416.644531 L 239.566406 413.578125 L 242.546875 420.460938 "/>
<path fill="none" stroke-width="1.5" stroke-linecap="butt" stroke-linejoin="miter" stroke="rgb(12.156863%, 47.058824%, 70.588235%)" stroke-opacity="1" stroke-miterlimit="10" d="M 248.308594 204.074219 C 221.113281 224.996094 205.242188 252.53125 203.953125 286.800781 "/>
<path fill-rule="nonzero" fill="rgb(12.156863%, 47.058824%, 70.588235%)" fill-opacity="1" d="M 203.683594 293.929688 L 201.636719 286.714844 L 206.269531 286.886719 L 203.683594 293.929688 "/>
<path fill="none" stroke-width="1.5" stroke-linecap="butt" stroke-linejoin="miter" stroke="rgb(12.156863%, 47.058824%, 70.588235%)" stroke-opacity="1" stroke-miterlimit="10" d="M 342.832031 319.089844 C 370.921875 310.34375 392.019531 292.96875 403.09375 265.738281 "/>
<path fill-rule="nonzero" fill="rgb(12.156863%, 47.058824%, 70.588235%)" fill-opacity="1" d="M 405.78125 259.128906 L 405.242188 266.609375 L 400.949219 264.863281 L 405.78125 259.128906 "/>
<path fill-rule="nonzero" fill="rgb(99.215686%, 74.901961%, 43.529412%)" fill-opacity="1" stroke-width="1" stroke-linecap="butt" stroke-linejoin="miter" stroke="rgb(99.215686%, 74.901961%, 43.529412%)" stroke-opacity="1" stroke-miterlimit="10" d="M 356.6875 546.9375 C 356.6875 547.9375 355.1875 547.9375 355.1875 546.9375 C 355.1875 545.9375 356.6875 545.9375 356.6875 546.9375 "/>
<path fill-rule="nonzero" fill="rgb(99.215686%, 74.901961%, 43.529412%)" fill-opacity="1" stroke-width="1" stroke-linecap="butt" stroke-linejoin="miter" stroke="rgb(99.215686%, 74.901961%, 43.529412%)" stroke-opacity="1" stroke-miterlimit="10" d="M 400.878906 517.535156 C 400.878906 518.535156 399.378906 518.535156 399.378906 517.535156 C 399.378906 516.535156 400.878906 516.535156 400.878906 517.535156 "/>
<path fill-rule="nonzero" fill="rgb(99.215686%, 74.901961%, 43.529412%)" fill-opacity="1" stroke-width="1" stroke-linecap="butt" stroke-linejoin="miter" stroke="rgb(99.215686%, 74.901961%, 43.529412%)" stroke-opacity="1" stroke-miterlimit="10" d="M 535.265625 367.878906 C 535.265625 368.878906 533.765625 368.878906 533.765625 367.878906 C 533.765625 366.878906 535.265625 366.878906 535.265625 367.878906 "/>
<path fill-rule="nonzero" fill="rgb(99.215686%, 74.901961%, 43.529412%)" fill-opacity="1" stroke-width="1" stroke-linecap="butt" stroke-linejoin="miter" stroke="rgb(99.215686%, 74.901961%, 43.529412%)" stroke-opacity="1" stroke-miterlimit="10" d="M 339.621094 371.765625 C 339.621094 372.765625 338.121094 372.765625 338.121094 371.765625 C 338.121094 370.765625 339.621094 370.765625 339.621094 371.765625 "/>
<path fill-rule="nonzero" fill="rgb(99.215686%, 74.901961%, 43.529412%)" fill-opacity="1" stroke-width="1" stroke-linecap="butt" stroke-linejoin="miter" stroke="rgb(99.215686%, 74.901961%, 43.529412%)" stroke-opacity="1" stroke-miterlimit="10" d="M 411.050781 376.460938 C 411.050781 377.460938 409.550781 377.460938 409.550781 376.460938 C 409.550781 375.460938 411.050781 375.460938 411.050781 376.460938 "/>
<path fill-rule="nonzero" fill="rgb(99.215686%, 74.901961%, 43.529412%)" fill-opacity="1" stroke-width="1" stroke-linecap="butt" stroke-linejoin="miter" stroke="rgb(99.215686%, 74.901961%, 43.529412%)" stroke-opacity="1" stroke-miterlimit="10" d="M 508.886719 325.273438 C 508.886719 326.273438 507.386719 326.273438 507.386719 325.273438 C 507.386719 324.273438 508.886719 324.273438 508.886719 325.273438 "/>
<path fill-rule="nonzero" fill="rgb(99.215686%, 74.901961%, 43.529412%)" fill-opacity="1" stroke-width="1" stroke-linecap="butt" stroke-linejoin="miter" stroke="rgb(99.215686%, 74.901961%, 43.529412%)" stroke-opacity="1" stroke-miterlimit="10" d="M 441.078125 480.824219 C 441.078125 481.824219 439.578125 481.824219 439.578125 480.824219 C 439.578125 479.824219 441.078125 479.824219 441.078125 480.824219 "/>
<path fill-rule="nonzero" fill="rgb(99.215686%, 74.901961%, 43.529412%)" fill-opacity="1" stroke-width="1" stroke-linecap="butt" stroke-linejoin="miter" stroke="rgb(99.215686%, 74.901961%, 43.529412%)" stroke-opacity="1" stroke-miterlimit="10" d="M 558.335938 299.589844 C 558.335938 300.589844 556.835938 300.589844 556.835938 299.589844 C 556.835938 298.589844 558.335938 298.589844 558.335938 299.589844 "/>
<path fill-rule="nonzero" fill="rgb(99.215686%, 74.901961%, 43.529412%)" fill-opacity="1" stroke-width="1" stroke-linecap="butt" stroke-linejoin="miter" stroke="rgb(99.215686%, 74.901961%, 43.529412%)" stroke-opacity="1" stroke-miterlimit="10" d="M 484.15625 475.523438 C 484.15625 476.523438 482.65625 476.523438 482.65625 475.523438 C 482.65625 474.523438 484.15625 474.523438 484.15625 475.523438 "/>
<path fill-rule="nonzero" fill="rgb(99.215686%, 74.901961%, 43.529412%)" fill-opacity="1" stroke-width="1" stroke-linecap="butt" stroke-linejoin="miter" stroke="rgb(99.215686%, 74.901961%, 43.529412%)" stroke-opacity="1" stroke-miterlimit="10" d="M 629.464844 565.625 C 629.464844 566.625 627.964844 566.625 627.964844 565.625 C 627.964844 564.625 629.464844 564.625 629.464844 565.625 "/>
<path fill-rule="nonzero" fill="rgb(14.901961%, 14.901961%, 14.901961%)" fill-opacity="1" stroke-width="1" stroke-linecap="butt" stroke-linejoin="miter" stroke="rgb(14.901961%, 14.901961%, 14.901961%)" stroke-opacity="1" stroke-miterlimit="10" d="M 673.953125 552.386719 L 675.703125 548.886719 L 677.453125 552.386719 Z M 673.953125 552.386719 "/>
<path fill-rule="nonzero" fill="rgb(99.215686%, 74.901961%, 43.529412%)" fill-opacity="1" stroke-width="1" stroke-linecap="butt" stroke-linejoin="miter" stroke="rgb(99.215686%, 74.901961%, 43.529412%)" stroke-opacity="1" stroke-miterlimit="10" d="M 573.421875 542.417969 C 573.421875 543.417969 571.921875 543.417969 571.921875 542.417969 C 571.921875 541.417969 573.421875 541.417969 573.421875 542.417969 "/>
<path fill-rule="nonzero" fill="rgb(99.215686%, 74.901961%, 43.529412%)" fill-opacity="1" stroke-width="1" stroke-linecap="butt" stroke-linejoin="miter" stroke="rgb(99.215686%, 74.901961%, 43.529412%)" stroke-opacity="1" stroke-miterlimit="10" d="M 316.371094 412.519531 C 316.371094 413.519531 314.871094 413.519531 314.871094 412.519531 C 314.871094 411.519531 316.371094 411.519531 316.371094 412.519531 "/>
<path fill-rule="nonzero" fill="rgb(100%, 84.313725%, 0%)" fill-opacity="1" stroke-width="1" stroke-linecap="butt" stroke-linejoin="miter" stroke="rgb(100%, 84.313725%, 0%)" stroke-opacity="1" stroke-miterlimit="10" d="M 313.351562 571.386719 L 315.851562 571.386719 L 315.851562 573.886719 L 313.351562 573.886719 Z M 313.351562 571.386719 "/>
<path fill-rule="nonzero" fill="rgb(98.431373%, 60.392157%, 60%)" fill-opacity="1" stroke-width="1" stroke-linecap="butt" stroke-linejoin="miter" stroke="rgb(98.431373%, 60.392157%, 60%)" stroke-opacity="1" stroke-miterlimit="10" d="M 389.09375 78.09375 C 389.09375 79.09375 387.59375 79.09375 387.59375 78.09375 C 387.59375 77.09375 389.09375 77.09375 389.09375 78.09375 "/>
<path fill-rule="nonzero" fill="rgb(98.431373%, 60.392157%, 60%)" fill-opacity="1" stroke-width="1" stroke-linecap="butt" stroke-linejoin="miter" stroke="rgb(98.431373%, 60.392157%, 60%)" stroke-opacity="1" stroke-miterlimit="10" d="M 259.632812 293.148438 C 259.632812 294.148438 258.132812 294.148438 258.132812 293.148438 C 258.132812 292.148438 259.632812 292.148438 259.632812 293.148438 "/>
<path fill-rule="nonzero" fill="rgb(41.568627%, 23.921569%, 60.392157%)" fill-opacity="1" stroke-width="1" stroke-linecap="butt" stroke-linejoin="miter" stroke="rgb(41.568627%, 23.921569%, 60.392157%)" stroke-opacity="1" stroke-miterlimit="10" d="M 364.640625 429.757812 C 364.640625 430.757812 363.140625 430.757812 363.140625 429.757812 C 363.140625 428.757812 364.640625 428.757812 364.640625 429.757812 "/>
<path fill-rule="nonzero" fill="rgb(98.431373%, 60.392157%, 60%)" fill-opacity="1" stroke-width="1" stroke-linecap="butt" stroke-linejoin="miter" stroke="rgb(98.431373%, 60.392157%, 60%)" stroke-opacity="1" stroke-miterlimit="10" d="M 540.875 125.867188 C 540.875 126.867188 539.375 126.867188 539.375 125.867188 C 539.375 124.867188 540.875 124.867188 540.875 125.867188 "/>
<path fill-rule="nonzero" fill="rgb(98.431373%, 60.392157%, 60%)" fill-opacity="1" stroke-width="1" stroke-linecap="butt" stroke-linejoin="miter" stroke="rgb(98.431373%, 60.392157%, 60%)" stroke-opacity="1" stroke-miterlimit="10" d="M 311.074219 684.824219 C 311.074219 685.824219 309.574219 685.824219 309.574219 684.824219 C 309.574219 683.824219 311.074219 683.824219 311.074219 684.824219 "/>
<path fill-rule="nonzero" fill="rgb(98.431373%, 60.392157%, 60%)" fill-opacity="1" stroke-width="1" stroke-linecap="butt" stroke-linejoin="miter" stroke="rgb(98.431373%, 60.392157%, 60%)" stroke-opacity="1" stroke-miterlimit="10" d="M 204.855469 458.515625 C 204.855469 459.515625 203.355469 459.515625 203.355469 458.515625 C 203.355469 457.515625 204.855469 457.515625 204.855469 458.515625 "/>
<path fill-rule="nonzero" fill="rgb(100%, 84.313725%, 0%)" fill-opacity="1" stroke-width="1" stroke-linecap="butt" stroke-linejoin="miter" stroke="rgb(100%, 84.313725%, 0%)" stroke-opacity="1" stroke-miterlimit="10" d="M 318.105469 472.617188 L 320.605469 472.617188 L 320.605469 475.117188 L 318.105469 475.117188 Z M 318.105469 472.617188 "/>
<path fill-rule="nonzero" fill="rgb(98.431373%, 60.392157%, 60%)" fill-opacity="1" stroke-width="1" stroke-linecap="butt" stroke-linejoin="miter" stroke="rgb(98.431373%, 60.392157%, 60%)" stroke-opacity="1" stroke-miterlimit="10" d="M 587.042969 728.078125 C 587.042969 729.078125 585.542969 729.078125 585.542969 728.078125 C 585.542969 727.078125 587.042969 727.078125 587.042969 728.078125 "/>
<path fill-rule="nonzero" fill="rgb(41.568627%, 23.921569%, 60.392157%)" fill-opacity="1" stroke-width="1" stroke-linecap="butt" stroke-linejoin="miter" stroke="rgb(41.568627%, 23.921569%, 60.392157%)" stroke-opacity="1" stroke-miterlimit="10" d="M 539.8125 479.386719 C 539.8125 480.386719 538.3125 480.386719 538.3125 479.386719 C 538.3125 478.386719 539.8125 478.386719 539.8125 479.386719 "/>
<path fill-rule="nonzero" fill="rgb(98.431373%, 60.392157%, 60%)" fill-opacity="1" stroke-width="1" stroke-linecap="butt" stroke-linejoin="miter" stroke="rgb(98.431373%, 60.392157%, 60%)" stroke-opacity="1" stroke-miterlimit="10" d="M 461.617188 750 C 461.617188 751 460.117188 751 460.117188 750 C 460.117188 749 461.617188 749 461.617188 750 "/>
<path fill-rule="nonzero" fill="rgb(98.431373%, 60.392157%, 60%)" fill-opacity="1" stroke-width="1" stroke-linecap="butt" stroke-linejoin="miter" stroke="rgb(98.431373%, 60.392157%, 60%)" stroke-opacity="1" stroke-miterlimit="10" d="M 537.570312 64.945312 C 537.570312 65.945312 536.070312 65.945312 536.070312 64.945312 C 536.070312 63.945312 537.570312 63.945312 537.570312 64.945312 "/>
<path fill-rule="nonzero" fill="rgb(41.568627%, 23.921569%, 60.392157%)" fill-opacity="1" stroke-width="1" stroke-linecap="butt" stroke-linejoin="miter" stroke="rgb(41.568627%, 23.921569%, 60.392157%)" stroke-opacity="1" stroke-miterlimit="10" d="M 557.515625 434.746094 C 557.515625 435.746094 556.015625 435.746094 556.015625 434.746094 C 556.015625 433.746094 557.515625 433.746094 557.515625 434.746094 "/>
<path fill-rule="nonzero" fill="rgb(41.568627%, 23.921569%, 60.392157%)" fill-opacity="1" stroke-width="1" stroke-linecap="butt" stroke-linejoin="miter" stroke="rgb(41.568627%, 23.921569%, 60.392157%)" stroke-opacity="1" stroke-miterlimit="10" d="M 544.796875 596.222656 C 544.796875 597.222656 543.296875 597.222656 543.296875 596.222656 C 543.296875 595.222656 544.796875 595.222656 544.796875 596.222656 "/>
<path fill-rule="nonzero" fill="rgb(98.431373%, 60.392157%, 60%)" fill-opacity="1" stroke-width="1" stroke-linecap="butt" stroke-linejoin="miter" stroke="rgb(98.431373%, 60.392157%, 60%)" stroke-opacity="1" stroke-miterlimit="10" d="M 316.425781 131.292969 C 316.425781 132.292969 314.925781 132.292969 314.925781 131.292969 C 314.925781 130.292969 316.425781 130.292969 316.425781 131.292969 "/>
<path fill-rule="nonzero" fill="rgb(41.568627%, 23.921569%, 60.392157%)" fill-opacity="1" stroke-width="1" stroke-linecap="butt" stroke-linejoin="miter" stroke="rgb(41.568627%, 23.921569%, 60.392157%)" stroke-opacity="1" stroke-miterlimit="10" d="M 441.730469 283.632812 C 441.730469 284.632812 440.230469 284.632812 440.230469 283.632812 C 440.230469 282.632812 441.730469 282.632812 441.730469 283.632812 "/>
<path fill-rule="nonzero" fill="rgb(41.568627%, 23.921569%, 60.392157%)" fill-opacity="1" stroke-width="1" stroke-linecap="butt" stroke-linejoin="miter" stroke="rgb(41.568627%, 23.921569%, 60.392157%)" stroke-opacity="1" stroke-miterlimit="10" d="M 479.476562 677.875 C 479.476562 678.875 477.976562 678.875 477.976562 677.875 C 477.976562 676.875 479.476562 676.875 479.476562 677.875 "/>
<path fill-rule="nonzero" fill="rgb(14.901961%, 14.901961%, 14.901961%)" fill-opacity="1" stroke-width="1" stroke-linecap="butt" stroke-linejoin="miter" stroke="rgb(14.901961%, 14.901961%, 14.901961%)" stroke-opacity="1" stroke-miterlimit="10" d="M 748.25 694.441406 L 750 690.941406 L 751.75 694.441406 Z M 748.25 694.441406 "/>
<path fill-rule="nonzero" fill="rgb(30.196078%, 68.627451%, 29.019608%)" fill-opacity="1" stroke-width="1" stroke-linecap="butt" stroke-linejoin="miter" stroke="rgb(30.196078%, 68.627451%, 29.019608%)" stroke-opacity="1" stroke-miterlimit="10" d="M 473.566406 598.3125 C 473.566406 599.3125 472.066406 599.3125 472.066406 598.3125 C 472.066406 597.3125 473.566406 597.3125 473.566406 598.3125 "/>
<path fill-rule="nonzero" fill="rgb(14.901961%, 14.901961%, 14.901961%)" fill-opacity="1" stroke-width="1" stroke-linecap="butt" stroke-linejoin="miter" stroke="rgb(14.901961%, 14.901961%, 14.901961%)" stroke-opacity="1" stroke-miterlimit="10" d="M 391.492188 620.546875 L 393.242188 617.046875 L 394.992188 620.546875 Z M 391.492188 620.546875 "/>
<path fill-rule="nonzero" fill="rgb(100%, 84.313725%, 0%)" fill-opacity="1" stroke-width="1" stroke-linecap="butt" stroke-linejoin="miter" stroke="rgb(100%, 84.313725%, 0%)" stroke-opacity="1" stroke-miterlimit="10" d="M 87.570312 474.765625 L 91.070312 474.765625 L 91.070312 478.265625 L 87.570312 478.265625 Z M 87.570312 474.765625 "/>
<path fill-rule="nonzero" fill="rgb(30.196078%, 68.627451%, 29.019608%)" fill-opacity="1" stroke-width="1" stroke-linecap="butt" stroke-linejoin="miter" stroke="rgb(30.196078%, 68.627451%, 29.019608%)" stroke-opacity="1" stroke-miterlimit="10" d="M 50.75 461.257812 C 50.75 462.257812 49.25 462.257812 49.25 461.257812 C 49.25 460.257812 50.75 460.257812 50.75 461.257812 "/>
<path fill-rule="nonzero" fill="rgb(30.196078%, 68.627451%, 29.019608%)" fill-opacity="1" stroke-width="1" stroke-linecap="butt" stroke-linejoin="miter" stroke="rgb(30.196078%, 68.627451%, 29.019608%)" stroke-opacity="1" stroke-miterlimit="10" d="M 359.984375 664.691406 C 359.984375 665.691406 358.484375 665.691406 358.484375 664.691406 C 358.484375 663.691406 359.984375 663.691406 359.984375 664.691406 "/>
<path fill-rule="nonzero" fill="rgb(14.901961%, 14.901961%, 14.901961%)" fill-opacity="1" stroke-width="1" stroke-linecap="butt" stroke-linejoin="miter" stroke="rgb(14.901961%, 14.901961%, 14.901961%)" stroke-opacity="1" stroke-miterlimit="10" d="M 436.523438 625.808594 L 438.773438 621.308594 L 441.023438 625.808594 Z M 436.523438 625.808594 "/>
<path fill-rule="nonzero" fill="rgb(30.196078%, 68.627451%, 29.019608%)" fill-opacity="1" stroke-width="1" stroke-linecap="butt" stroke-linejoin="miter" stroke="rgb(30.196078%, 68.627451%, 29.019608%)" stroke-opacity="1" stroke-miterlimit="10" d="M 245.347656 625.675781 C 245.347656 626.675781 243.847656 626.675781 243.847656 625.675781 C 243.847656 624.675781 245.347656 624.675781 245.347656 625.675781 "/>
<path fill-rule="nonzero" fill="rgb(30.196078%, 68.627451%, 29.019608%)" fill-opacity="1" stroke-width="1" stroke-linecap="butt" stroke-linejoin="miter" stroke="rgb(30.196078%, 68.627451%, 29.019608%)" stroke-opacity="1" stroke-miterlimit="10" d="M 152.234375 553.820312 C 152.234375 554.820312 150.734375 554.820312 150.734375 553.820312 C 150.734375 552.820312 152.234375 552.820312 152.234375 553.820312 "/>
<path fill-rule="nonzero" fill="rgb(41.568627%, 23.921569%, 60.392157%)" fill-opacity="1" stroke-width="1" stroke-linecap="butt" stroke-linejoin="miter" stroke="rgb(41.568627%, 23.921569%, 60.392157%)" stroke-opacity="1" stroke-miterlimit="10" d="M 466.308594 315.363281 C 466.308594 316.363281 464.808594 316.363281 464.808594 315.363281 C 464.808594 314.363281 466.308594 314.363281 466.308594 315.363281 "/>
<path fill-rule="nonzero" fill="rgb(41.568627%, 23.921569%, 60.392157%)" fill-opacity="1" stroke-width="1" stroke-linecap="butt" stroke-linejoin="miter" stroke="rgb(41.568627%, 23.921569%, 60.392157%)" stroke-opacity="1" stroke-miterlimit="10" d="M 365.996094 277.160156 C 365.996094 278.160156 364.496094 278.160156 364.496094 277.160156 C 364.496094 276.160156 365.996094 276.160156 365.996094 277.160156 "/>
<path fill-rule="nonzero" fill="rgb(41.568627%, 23.921569%, 60.392157%)" fill-opacity="1" stroke-width="1" stroke-linecap="butt" stroke-linejoin="miter" stroke="rgb(41.568627%, 23.921569%, 60.392157%)" stroke-opacity="1" stroke-miterlimit="10" d="M 470.800781 390.339844 C 470.800781 391.339844 469.300781 391.339844 469.300781 390.339844 C 469.300781 389.339844 470.800781 389.339844 470.800781 390.339844 "/>
<path fill-rule="nonzero" fill="rgb(41.568627%, 23.921569%, 60.392157%)" fill-opacity="1" stroke-width="1" stroke-linecap="butt" stroke-linejoin="miter" stroke="rgb(41.568627%, 23.921569%, 60.392157%)" stroke-opacity="1" stroke-miterlimit="10" d="M 604.710938 412.285156 C 604.710938 413.953125 602.210938 413.953125 602.210938 412.285156 C 602.210938 410.621094 604.710938 410.621094 604.710938 412.285156 "/>
<path fill-rule="nonzero" fill="rgb(41.568627%, 23.921569%, 60.392157%)" fill-opacity="1" stroke-width="1" stroke-linecap="butt" stroke-linejoin="miter" stroke="rgb(41.568627%, 23.921569%, 60.392157%)" stroke-opacity="1" stroke-miterlimit="10" d="M 646.894531 392.894531 C 646.894531 393.894531 645.394531 393.894531 645.394531 392.894531 C 645.394531 391.894531 646.894531 391.894531 646.894531 392.894531 "/>
<path fill-rule="nonzero" fill="rgb(100%, 84.313725%, 0%)" fill-opacity="1" stroke-width="1" stroke-linecap="butt" stroke-linejoin="miter" stroke="rgb(100%, 84.313725%, 0%)" stroke-opacity="1" stroke-miterlimit="10" d="M 500.316406 157.164062 L 502.816406 157.164062 L 502.816406 159.664062 L 500.316406 159.664062 Z M 500.316406 157.164062 "/>
<path fill-rule="nonzero" fill="rgb(98.431373%, 60.392157%, 60%)" fill-opacity="1" stroke-width="1" stroke-linecap="butt" stroke-linejoin="miter" stroke="rgb(98.431373%, 60.392157%, 60%)" stroke-opacity="1" stroke-miterlimit="10" d="M 467.742188 50 C 467.742188 51 466.242188 51 466.242188 50 C 466.242188 49 467.742188 49 467.742188 50 "/>
<path fill-rule="nonzero" fill="rgb(98.431373%, 60.392157%, 60%)" fill-opacity="1" stroke-width="1" stroke-linecap="butt" stroke-linejoin="miter" stroke="rgb(98.431373%, 60.392157%, 60%)" stroke-opacity="1" stroke-miterlimit="10" d="M 698.722656 679.339844 C 698.722656 680.339844 697.222656 680.339844 697.222656 679.339844 C 697.222656 678.339844 698.722656 678.339844 698.722656 679.339844 "/>
<path fill-rule="nonzero" fill="rgb(12.156863%, 47.058824%, 70.588235%)" fill-opacity="1" stroke-width="1" stroke-linecap="butt" stroke-linejoin="miter" stroke="rgb(12.156863%, 47.058824%, 70.588235%)" stroke-opacity="1" stroke-miterlimit="10" d="M 406.804688 258.464844 C 406.804688 259.464844 405.304688 259.464844 405.304688 258.464844 C 405.304688 257.464844 406.804688 257.464844 406.804688 258.464844 "/>
<path fill-rule="nonzero" fill="rgb(12.156863%, 47.058824%, 70.588235%)" fill-opacity="1" stroke-width="1" stroke-linecap="butt" stroke-linejoin="miter" stroke="rgb(12.156863%, 47.058824%, 70.588235%)" stroke-opacity="1" stroke-miterlimit="10" d="M 332.335938 207.25 C 332.335938 208.25 330.835938 208.25 330.835938 207.25 C 330.835938 206.25 332.335938 206.25 332.335938 207.25 "/>
<path fill-rule="nonzero" fill="rgb(12.156863%, 47.058824%, 70.588235%)" fill-opacity="1" stroke-width="1" stroke-linecap="butt" stroke-linejoin="miter" stroke="rgb(12.156863%, 47.058824%, 70.588235%)" stroke-opacity="1" stroke-miterlimit="10" d="M 208.972656 545.816406 C 208.972656 546.816406 207.472656 546.816406 207.472656 545.816406 C 207.472656 544.816406 208.972656 544.816406 208.972656 545.816406 "/>
<path fill-rule="nonzero" fill="rgb(14.901961%, 14.901961%, 14.901961%)" fill-opacity="1" stroke-width="1" stroke-linecap="butt" stroke-linejoin="miter" stroke="rgb(14.901961%, 14.901961%, 14.901961%)" stroke-opacity="1" stroke-miterlimit="10" d="M 134.832031 693.886719 L 136.582031 690.386719 L 138.332031 693.886719 Z M 134.832031 693.886719 "/>
<path fill-rule="nonzero" fill="rgb(12.156863%, 47.058824%, 70.588235%)" fill-opacity="1" stroke-width="1" stroke-linecap="butt" stroke-linejoin="miter" stroke="rgb(12.156863%, 47.058824%, 70.588235%)" stroke-opacity="1" stroke-miterlimit="10" d="M 172.460938 637.851562 C 172.460938 638.851562 170.960938 638.851562 170.960938 637.851562 C 170.960938 636.851562 172.460938 636.851562 172.460938 637.851562 "/>
<path fill-rule="nonzero" fill="rgb(12.156863%, 47.058824%, 70.588235%)" fill-opacity="1" stroke-width="1" stroke-linecap="butt" stroke-linejoin="miter" stroke="rgb(12.156863%, 47.058824%, 70.588235%)" stroke-opacity="1" stroke-miterlimit="10" d="M 243.773438 421 C 243.773438 422 242.273438 422 242.273438 421 C 242.273438 420 243.773438 420 243.773438 421 "/>
<path fill-rule="nonzero" fill="rgb(12.156863%, 47.058824%, 70.588235%)" fill-opacity="1" stroke-width="1" stroke-linecap="butt" stroke-linejoin="miter" stroke="rgb(12.156863%, 47.058824%, 70.588235%)" stroke-opacity="1" stroke-miterlimit="10" d="M 204.40625 294.648438 C 204.40625 295.648438 202.90625 295.648438 202.90625 294.648438 C 202.90625 293.648438 204.40625 293.648438 204.40625 294.648438 "/>
<path fill-rule="nonzero" fill="rgb(12.156863%, 47.058824%, 70.588235%)" fill-opacity="1" stroke-width="1" stroke-linecap="butt" stroke-linejoin="miter" stroke="rgb(12.156863%, 47.058824%, 70.588235%)" stroke-opacity="1" stroke-miterlimit="10" d="M 249.058594 204.074219 C 249.058594 205.074219 247.558594 205.074219 247.558594 204.074219 C 247.558594 203.074219 249.058594 203.074219 249.058594 204.074219 "/>
<path fill-rule="nonzero" fill="rgb(100%, 84.313725%, 0%)" fill-opacity="1" stroke-width="1" stroke-linecap="butt" stroke-linejoin="miter" stroke="rgb(100%, 84.313725%, 0%)" stroke-opacity="1" stroke-miterlimit="10" d="M 341.582031 317.839844 L 344.082031 317.839844 L 344.082031 320.339844 L 341.582031 320.339844 Z M 341.582031 317.839844 "/>
</svg>
