<?xml version="1.0" encoding="UTF-8"?>
<svg xmlns="http://www.w3.org/2000/svg" xmlns:xlink="http://www.w3.org/1999/xlink" width="800" height="800" viewBox="0 0 800 800">
<rect x="-80" y="-80" width="960" height="960" fill="rgb(100%, 100%, 100%)" fill-opacity="1"/>
<path fill="none" stroke-width="2.5" stroke-linecap="butt" stroke-linejoin="miter" stroke="rgb(70.196078%, 70.196078%, 70.196078%)" stroke-opacity="1" stroke-miterlimit="10" d="M 499.066406 561.179688 C 504.289062 485.9375 481.304688 420.574219 427.625 367.609375 "/>
<path fill-rule="nonzero" fill="rgb(70.196078%, 70.196078%, 70.196078%)" fill-opacity="1" d="M 422.546875 362.597656 L 429.253906 365.957031 L 426 369.257812 L 422.546875 362.597656 "/>
<path fill="none" stroke-width="2.5" stroke-linecap="butt" stroke-linejoin="miter" stroke="rgb(70.196078%, 70.196078%, 70.196078%)" stroke-opacity="1" stroke-miterlimit="10" d="M 419.246094 359.339844 C 419.964844 332.734375 411.390625 309.421875 391.167969 292.15625 "/>
<path fill-rule="nonzero" fill="rgb(70.196078%, 70.196078%, 70.196078%)" fill-opacity="1" d="M 385.746094 287.523438 L 392.675781 290.390625 L 389.664062 293.917969 L 385.746094 287.523438 "/>
<path fill="none" stroke-width="2.5" stroke-linecap="butt" stroke-linejoin="miter" stroke="rgb(70.196078%, 70.196078%, 70.196078%)" stroke-opacity="1" stroke-miterlimit="10" d="M 432.484375 750 C 470.671875 750.402344 503.476562 737.214844 528.203125 708.140625 "/>
<path fill-rule="nonzero" fill="rgb(70.196078%, 70.196078%, 70.196078%)" fill-opacity="1" d="M 532.824219 702.707031 L 529.96875 709.640625 L 526.4375 706.636719 L 532.824219 702.707031 "/>
<path fill="none" stroke-width="1.5" stroke-linecap="butt" stroke-linejoin="miter" stroke="rgb(30.196078%, 68.627451%, 29.019608%)" stroke-opacity="1" stroke-miterlimit="10" d="M 535.820312 699.183594 C 545.367188 652.003906 536.585938 608.457031 506.675781 570.765625 "/>
<path fill-rule="nonzero" fill="rgb(30.196078%, 68.627451%, 29.019608%)" fill-opacity="1" d="M 502.242188 565.175781 L 508.488281 569.324219 L 504.859375 572.207031 L 502.242188 565.175781 "/>
<path fill="none" stroke-width="1.5" stroke-linecap="butt" stroke-linejoin="miter" stroke="rgb(99.215686%, 74.901961%, 43.529412%)" stroke-opacity="1" stroke-miterlimit="10" d="M 535.820312 699.183594 C 532.179688 683.035156 523.585938 669.945312 508.613281 662.988281 "/>
<path fill-rule="nonzero" fill="rgb(99.215686%, 74.901961%, 43.529412%)" fill-opacity="1" d="M 502.144531 659.984375 L 509.589844 660.886719 L 507.636719 665.089844 L 502.144531 659.984375 "/>
<path fill="none" stroke-width="1.5" stroke-linecap="butt" stroke-linejoin="miter" stroke="rgb(99.215686%, 74.901961%, 43.529412%)" stroke-opacity="1" stroke-miterlimit="10" d="M 499.769531 658.878906 C 514.140625 630.675781 516.628906 601.367188 503.960938 572.382812 "/>
<path fill-rule="nonzero" fill="rgb(99.215686%, 74.901961%, 43.529412%)" fill-opacity="1" d="M 501.105469 565.84375 L 506.085938 571.453125 L 501.839844 573.308594 L 501.105469 565.84375 "/>
<path fill="none" stroke-width="2.5" stroke-linecap="butt" stroke-linejoin="miter" stroke="rgb(70.196078%, 70.196078%, 70.196078%)" stroke-opacity="1" stroke-miterlimit="10" d="M 322.320312 733.070312 C 352.265625 754.523438 385.492188 762.300781 421.109375 752.976562 "/>
<path fill-rule="nonzero" fill="rgb(70.196078%, 70.196078%, 70.196078%)" fill-opacity="1" d="M 428.011719 751.171875 L 421.699219 755.21875 L 420.523438 750.734375 L 428.011719 751.171875 "/>
<path fill="none" stroke-width="1.5" stroke-linecap="butt" stroke-linejoin="miter" stroke="rgb(98.431373%, 60.392157%, 60%)" stroke-opacity="1" stroke-miterlimit="10" d="M 314.15625 425.21875 C 308.644531 409.28125 298.453125 397.015625 282.507812 391.640625 "/>
<path fill-rule="nonzero" fill="rgb(98.431373%, 60.392157%, 60%)" fill-opacity="1" d="M 275.746094 389.363281 L 283.246094 389.445312 L 281.765625 393.835938 L 275.746094 389.363281 "/>
<path fill="none" stroke-width="2.5" stroke-linecap="butt" stroke-linejoin="miter" stroke="rgb(70.196078%, 70.196078%, 70.196078%)" stroke-opacity="1" stroke-miterlimit="10" d="M 388.648438 522.90625 C 334.8125 505.574219 282.925781 510.289062 234.878906 540.097656 "/>
<path fill-rule="nonzero" fill="rgb(70.196078%, 70.196078%, 70.196078%)" fill-opacity="1" d="M 228.816406 543.859375 L 233.65625 538.128906 L 236.097656 542.070312 L 228.816406 543.859375 "/>
<path fill="none" stroke-width="1.5" stroke-linecap="butt" stroke-linejoin="miter" stroke="rgb(41.568627%, 23.921569%, 60.392157%)" stroke-opacity="1" stroke-miterlimit="10" d="M 76.921875 525.132812 C 61.246094 536.375 51.285156 551.542969 50.433594 570.78125 "/>
<path fill-rule="nonzero" fill="rgb(41.568627%, 23.921569%, 60.392157%)" fill-opacity="1" d="M 50.117188 577.90625 L 48.117188 570.679688 L 52.746094 570.882812 L 50.117188 577.90625 "/>
<path fill="none" stroke-width="2.5" stroke-linecap="butt" stroke-linejoin="miter" stroke="rgb(70.196078%, 70.196078%, 70.196078%)" stroke-opacity="1" stroke-miterlimit="10" d="M 216.328125 673.734375 C 239.035156 707.261719 270.347656 727.820312 310.621094 731.890625 "/>
<path fill-rule="nonzero" fill="rgb(70.196078%, 70.196078%, 70.196078%)" fill-opacity="1" d="M 317.71875 732.605469 L 310.386719 734.195312 L 310.851562 729.582031 L 317.71875 732.605469 "/>
<path fill="none" stroke-width="1.5" stroke-linecap="butt" stroke-linejoin="miter" stroke="rgb(41.568627%, 23.921569%, 60.392157%)" stroke-opacity="1" stroke-miterlimit="10" d="M 216.328125 673.734375 C 184.175781 657.871094 151.039062 655.671875 118.300781 670.25 "/>
<path fill-rule="nonzero" fill="rgb(41.568627%, 23.921569%, 60.392157%)" fill-opacity="1" d="M 111.785156 673.152344 L 117.359375 668.132812 L 119.246094 672.367188 L 111.785156 673.152344 "/>
<path fill="none" stroke-width="3.5" stroke-linecap="butt" stroke-linejoin="miter" stroke="rgb(70.196078%, 70.196078%, 70.196078%)" stroke-opacity="1" stroke-miterlimit="10" d="M 224.472656 546.554688 C 203.011719 583.4375 197.855469 622.546875 212.335938 662.671875 "/>
<path fill-rule="nonzero" fill="rgb(70.196078%, 70.196078%, 70.196078%)" fill-opacity="1" d="M 214.757812 669.382812 L 210.15625 663.460938 L 214.515625 661.886719 L 214.757812 669.382812 "/>
<path fill="none" stroke-width="1.5" stroke-linecap="butt" stroke-linejoin="miter" stroke="rgb(98.431373%, 60.392157%, 60%)" stroke-opacity="1" stroke-miterlimit="10" d="M 224.472656 546.554688 C 242.640625 539.875 256.328125 527.875 262.304688 509.5 "/>
<path fill-rule="nonzero" fill="rgb(98.431373%, 60.392157%, 60%)" fill-opacity="1" d="M 264.507812 502.71875 L 264.507812 510.21875 L 260.097656 508.785156 L 264.507812 502.71875 "/>
<path fill="none" stroke-width="1.5" stroke-linecap="butt" stroke-linejoin="miter" stroke="rgb(98.431373%, 60.392157%, 60%)" stroke-opacity="1" stroke-miterlimit="10" d="M 273.265625 388.527344 C 250.472656 379.761719 227.664062 380.007812 206.566406 392.25 "/>
<path fill-rule="nonzero" fill="rgb(98.431373%, 60.392157%, 60%)" fill-opacity="1" d="M 200.398438 395.832031 L 205.40625 390.246094 L 207.730469 394.253906 L 200.398438 395.832031 "/>
<path fill="none" stroke-width="2.5" stroke-linecap="butt" stroke-linejoin="miter" stroke="rgb(70.196078%, 70.196078%, 70.196078%)" stroke-opacity="1" stroke-miterlimit="10" d="M 484.023438 299.769531 C 420.476562 355.898438 387.453125 426.367188 388.503906 511.136719 "/>
<path fill-rule="nonzero" fill="rgb(70.196078%, 70.196078%, 70.196078%)" fill-opacity="1" d="M 388.589844 518.265625 L 386.183594 511.164062 L 390.820312 511.105469 L 388.589844 518.265625 "/>
<path fill="none" stroke-width="1.5" stroke-linecap="butt" stroke-linejoin="miter" stroke="rgb(98.431373%, 60.392157%, 60%)" stroke-opacity="1" stroke-miterlimit="10" d="M 316.929688 493.90625 C 326.40625 474.160156 327.914062 453.699219 318.398438 434.003906 "/>
<path fill-rule="nonzero" fill="rgb(98.431373%, 60.392157%, 60%)" fill-opacity="1" d="M 315.296875 427.582031 L 320.488281 432.996094 L 316.3125 435.011719 L 315.296875 427.582031 "/>
<path fill="none" stroke-width="1.5" stroke-linecap="butt" stroke-linejoin="miter" stroke="rgb(98.431373%, 60.392157%, 60%)" stroke-opacity="1" stroke-miterlimit="10" d="M 265.320312 500.222656 C 279.925781 506.230469 294.890625 506.738281 308.503906 498.8125 "/>
<path fill-rule="nonzero" fill="rgb(98.431373%, 60.392157%, 60%)" fill-opacity="1" d="M 314.667969 495.222656 L 309.671875 500.8125 L 307.339844 496.808594 L 314.667969 495.222656 "/>
<path fill="none" stroke-width="1.5" stroke-linecap="butt" stroke-linejoin="miter" stroke="rgb(41.568627%, 23.921569%, 60.392157%)" stroke-opacity="1" stroke-miterlimit="10" d="M 50 580.527344 C 70.335938 590.671875 91.527344 592.542969 112.121094 583.007812 "/>
<path fill-rule="nonzero" fill="rgb(41.568627%, 23.921569%, 60.392157%)" fill-opacity="1" d="M 118.59375 580.007812 L 113.09375 585.109375 L 111.144531 580.902344 L 118.59375 580.007812 "/>
<path fill="none" stroke-width="1.5" stroke-linecap="butt" stroke-linejoin="miter" stroke="rgb(41.568627%, 23.921569%, 60.392157%)" stroke-opacity="1" stroke-miterlimit="10" d="M 109.386719 674.222656 C 121.664062 623.148438 113.683594 575.410156 82.6875 533.015625 "/>
<path fill-rule="nonzero" fill="rgb(41.568627%, 23.921569%, 60.392157%)" fill-opacity="1" d="M 78.476562 527.257812 L 84.554688 531.648438 L 80.816406 534.382812 L 78.476562 527.257812 "/>
<path fill="none" stroke-width="1.5" stroke-linecap="butt" stroke-linejoin="miter" stroke="rgb(98.431373%, 60.392157%, 60%)" stroke-opacity="1" stroke-miterlimit="10" d="M 447.332031 231.480469 C 447.296875 255.765625 455.609375 276.902344 474.507812 292.113281 "/>
<path fill-rule="nonzero" fill="rgb(98.431373%, 60.392157%, 60%)" fill-opacity="1" d="M 480.0625 296.585938 L 473.054688 293.917969 L 475.960938 290.304688 L 480.0625 296.585938 "/>
<path fill="none" stroke-width="1.5" stroke-linecap="butt" stroke-linejoin="miter" stroke="rgb(12.156863%, 47.058824%, 70.588235%)" stroke-opacity="1" stroke-miterlimit="10" d="M 563.804688 411.316406 C 586.300781 415.9375 607.460938 412.234375 625.121094 397.59375 "/>
<path fill-rule="nonzero" fill="rgb(12.156863%, 47.058824%, 70.588235%)" fill-opacity="1" d="M 630.609375 393.039062 L 626.597656 399.375 L 623.640625 395.808594 L 630.609375 393.039062 "/>
<path fill="none" stroke-width="2.5" stroke-linecap="butt" stroke-linejoin="miter" stroke="rgb(70.196078%, 70.196078%, 70.196078%)" stroke-opacity="1" stroke-miterlimit="10" d="M 350.363281 127.101562 C 309.414062 153.175781 283.945312 190.027344 277.472656 238.125 "/>
<path fill-rule="nonzero" fill="rgb(70.196078%, 70.196078%, 70.196078%)" fill-opacity="1" d="M 276.523438 245.195312 L 275.175781 237.816406 L 279.769531 238.433594 L 276.523438 245.195312 "/>
<path fill="none" stroke-width="2.5" stroke-linecap="butt" stroke-linejoin="miter" stroke="rgb(70.196078%, 70.196078%, 70.196078%)" stroke-opacity="1" stroke-miterlimit="10" d="M 275.90625 249.785156 C 215.035156 336.582031 195.742188 431.835938 221.496094 534.667969 "/>
<path fill-rule="nonzero" fill="rgb(70.196078%, 70.196078%, 70.196078%)" fill-opacity="1" d="M 223.230469 541.585938 L 219.25 535.230469 L 223.746094 534.105469 L 223.230469 541.585938 "/>
<path fill="none" stroke-width="1.5" stroke-linecap="butt" stroke-linejoin="miter" stroke="rgb(12.156863%, 47.058824%, 70.588235%)" stroke-opacity="1" stroke-miterlimit="10" d="M 229.644531 288.519531 C 257.601562 335.117188 298.101562 364.523438 351.703125 373.386719 "/>
<path fill-rule="nonzero" fill="rgb(12.156863%, 47.058824%, 70.588235%)" fill-opacity="1" d="M 358.738281 374.550781 L 351.324219 375.671875 L 352.082031 371.097656 L 358.738281 374.550781 "/>
<path fill="none" stroke-width="1.5" stroke-linecap="butt" stroke-linejoin="miter" stroke="rgb(12.156863%, 47.058824%, 70.588235%)" stroke-opacity="1" stroke-miterlimit="10" d="M 632.628906 391.363281 C 653.277344 391.296875 671.308594 384.214844 684.058594 368.019531 "/>
<path fill-rule="nonzero" fill="rgb(12.156863%, 47.058824%, 70.588235%)" fill-opacity="1" d="M 688.472656 362.414062 L 685.882812 369.453125 L 682.238281 366.585938 L 688.472656 362.414062 "/>
<path fill="none" stroke-width="3.5" stroke-linecap="butt" stroke-linejoin="miter" stroke="rgb(70.196078%, 70.196078%, 70.196078%)" stroke-opacity="1" stroke-miterlimit="10" d="M 511.9375 50 C 487.804688 65.019531 472.1875 86.390625 468.589844 114.566406 "/>
<path fill-rule="nonzero" fill="rgb(70.196078%, 70.196078%, 70.196078%)" fill-opacity="1" d="M 467.6875 121.640625 L 466.292969 114.269531 L 470.890625 114.859375 L 467.6875 121.640625 "/>
<path fill="none" stroke-width="1.5" stroke-linecap="butt" stroke-linejoin="miter" stroke="rgb(98.431373%, 60.392157%, 60%)" stroke-opacity="1" stroke-miterlimit="10" d="M 410.441406 182.011719 C 413.230469 201.144531 422.140625 216.996094 438.875 226.617188 "/>
<path fill-rule="nonzero" fill="rgb(98.431373%, 60.392157%, 60%)" fill-opacity="1" d="M 445.058594 230.171875 L 437.71875 228.625 L 440.03125 224.609375 L 445.058594 230.171875 "/>
<path fill="none" stroke-width="1.5" stroke-linecap="butt" stroke-linejoin="miter" stroke="rgb(12.156863%, 47.058824%, 70.588235%)" stroke-opacity="1" stroke-miterlimit="10" d="M 361.335938 374.976562 C 391.878906 410.65625 430.636719 430.027344 477.585938 429.695312 "/>
<path fill-rule="nonzero" fill="rgb(12.156863%, 47.058824%, 70.588235%)" fill-opacity="1" d="M 484.71875 429.644531 L 477.601562 432.015625 L 477.570312 427.378906 L 484.71875 429.644531 "/>
<path fill="none" stroke-width="1.5" stroke-linecap="butt" stroke-linejoin="miter" stroke="rgb(12.156863%, 47.058824%, 70.588235%)" stroke-opacity="1" stroke-miterlimit="10" d="M 690.09375 360.355469 C 707.792969 366.40625 725.402344 365.78125 741.039062 355.585938 "/>
<path fill-rule="nonzero" fill="rgb(12.156863%, 47.058824%, 70.588235%)" fill-opacity="1" d="M 747.011719 351.6875 L 742.304688 357.527344 L 739.773438 353.644531 L 747.011719 351.6875 "/>
<path fill="none" stroke-width="1.5" stroke-linecap="butt" stroke-linejoin="miter" stroke="rgb(12.156863%, 47.058824%, 70.588235%)" stroke-opacity="1" stroke-miterlimit="10" d="M 487.347656 429.628906 C 512.101562 435.78125 535.675781 432.542969 556.015625 417.191406 "/>
<path fill-rule="nonzero" fill="rgb(12.156863%, 47.058824%, 70.588235%)" fill-opacity="1" d="M 561.707031 412.894531 L 557.410156 419.042969 L 554.617188 415.34375 L 561.707031 412.894531 "/>
<path fill="none" stroke-width="1.5" stroke-linecap="butt" stroke-linejoin="miter" stroke="rgb(41.568627%, 23.921569%, 60.392157%)" stroke-opacity="1" stroke-miterlimit="10" d="M 467.101562 126.21875 C 446.320312 182.148438 448.925781 237.019531 478.046875 289.085938 "/>
<path fill-rule="nonzero" fill="rgb(41.568627%, 23.921569%, 60.392157%)" fill-opacity="1" d="M 481.527344 295.3125 L 476.023438 290.214844 L 480.070312 287.953125 L 481.527344 295.3125 "/>
<path fill="none" stroke-width="2.5" stroke-linecap="butt" stroke-linejoin="miter" stroke="rgb(70.196078%, 70.196078%, 70.196078%)" stroke-opacity="1" stroke-miterlimit="10" d="M 467.101562 126.21875 C 432.355469 109.027344 396.550781 106.65625 361.117188 122.339844 "/>
<path fill-rule="nonzero" fill="rgb(70.196078%, 70.196078%, 70.196078%)" fill-opacity="1" d="M 354.59375 125.226562 L 360.175781 120.222656 L 362.054688 124.460938 L 354.59375 125.226562 "/>
<path fill="none" stroke-width="1.5" stroke-linecap="butt" stroke-linejoin="miter" stroke="rgb(12.156863%, 47.058824%, 70.588235%)" stroke-opacity="1" stroke-miterlimit="10" d="M 176.585938 225.371094 C 182.535156 251.621094 196.804688 272.242188 220.898438 284.183594 "/>
<path fill-rule="nonzero" fill="rgb(12.156863%, 47.058824%, 70.588235%)" fill-opacity="1" d="M 227.289062 287.351562 L 219.871094 286.261719 L 221.929688 282.109375 L 227.289062 287.351562 "/>
<path fill-rule="nonzero" fill="rgb(70.196078%, 70.196078%, 70.196078%)" fill-opacity="1" stroke-width="1" stroke-linecap="butt" stroke-linejoin="miter" stroke="rgb(70.196078%, 70.196078%, 70.196078%)" stroke-opacity="1" stroke-miterlimit="10" d="M 504.417969 561.179688 C 504.417969 568.3125 493.71875 568.3125 493.71875 561.179688 C 493.71875 554.042969 504.417969 554.042969 504.417969 561.179688 "/>
<path fill-rule="nonzero" fill="rgb(70.196078%, 70.196078%, 70.196078%)" fill-opacity="1" stroke-width="1" stroke-linecap="butt" stroke-linejoin="miter" stroke="rgb(70.196078%, 70.196078%, 70.196078%)" stroke-opacity="1" stroke-miterlimit="10" d="M 424.097656 359.339844 C 424.097656 365.808594 414.398438 365.808594 414.398438 359.339844 C 414.398438 352.875 424.097656 352.875 424.097656 359.339844 "/>
<path fill-rule="nonzero" fill="rgb(70.196078%, 70.196078%, 70.196078%)" fill-opacity="1" stroke-width="1" stroke-linecap="butt" stroke-linejoin="miter" stroke="rgb(70.196078%, 70.196078%, 70.196078%)" stroke-opacity="1" stroke-miterlimit="10" d="M 437.335938 750 C 437.335938 756.464844 427.636719 756.464844 427.636719 750 C 427.636719 743.535156 437.335938 743.535156 437.335938 750 "/>
<path fill-rule="nonzero" fill="rgb(70.196078%, 70.196078%, 70.196078%)" fill-opacity="1" stroke-width="1" stroke-linecap="butt" stroke-linejoin="miter" stroke="rgb(70.196078%, 70.196078%, 70.196078%)" stroke-opacity="1" stroke-miterlimit="10" d="M 540.671875 699.183594 C 540.671875 705.648438 530.972656 705.648438 530.972656 699.183594 C 530.972656 692.714844 540.671875 692.714844 540.671875 699.183594 "/>
<path fill-rule="nonzero" fill="rgb(14.901961%, 14.901961%, 14.901961%)" fill-opacity="1" stroke-width="1" stroke-linecap="butt" stroke-linejoin="miter" stroke="rgb(14.901961%, 14.901961%, 14.901961%)" stroke-opacity="1" stroke-miterlimit="10" d="M 375.371094 289.507812 L 381.222656 277.808594 L 387.070312 289.507812 Z M 375.371094 289.507812 "/>
<path fill-rule="nonzero" fill="rgb(99.215686%, 74.901961%, 43.529412%)" fill-opacity="1" stroke-width="1" stroke-linecap="butt" stroke-linejoin="miter" stroke="rgb(99.215686%, 74.901961%, 43.529412%)" stroke-opacity="1" stroke-miterlimit="10" d="M 502.519531 658.878906 C 502.519531 662.546875 497.019531 662.546875 497.019531 658.878906 C 497.019531 655.214844 502.519531 655.214844 502.519531 658.878906 "/>
<path fill-rule="nonzero" fill="rgb(70.196078%, 70.196078%, 70.196078%)" fill-opacity="1" stroke-width="1" stroke-linecap="butt" stroke-linejoin="miter" stroke="rgb(70.196078%, 70.196078%, 70.196078%)" stroke-opacity="1" stroke-miterlimit="10" d="M 327.171875 733.070312 C 327.171875 739.539062 317.46875 739.539062 317.46875 733.070312 C 317.46875 726.605469 327.171875 726.605469 327.171875 733.070312 "/>
<path fill-rule="nonzero" fill="rgb(98.431373%, 60.392157%, 60%)" fill-opacity="1" stroke-width="1" stroke-linecap="butt" stroke-linejoin="miter" stroke="rgb(98.431373%, 60.392157%, 60%)" stroke-opacity="1" stroke-miterlimit="10" d="M 316.90625 425.21875 C 316.90625 428.886719 311.40625 428.886719 311.40625 425.21875 C 311.40625 421.554688 316.90625 421.554688 316.90625 425.21875 "/>
<path fill-rule="nonzero" fill="rgb(14.901961%, 14.901961%, 14.901961%)" fill-opacity="1" stroke-width="1" stroke-linecap="butt" stroke-linejoin="miter" stroke="rgb(14.901961%, 14.901961%, 14.901961%)" stroke-opacity="1" stroke-miterlimit="10" d="M 118.082031 582.257812 L 121.832031 574.757812 L 125.582031 582.257812 Z M 118.082031 582.257812 "/>
<path fill-rule="nonzero" fill="rgb(70.196078%, 70.196078%, 70.196078%)" fill-opacity="1" stroke-width="1" stroke-linecap="butt" stroke-linejoin="miter" stroke="rgb(70.196078%, 70.196078%, 70.196078%)" stroke-opacity="1" stroke-miterlimit="10" d="M 393.496094 522.90625 C 393.496094 529.375 383.796875 529.375 383.796875 522.90625 C 383.796875 516.441406 393.496094 516.441406 393.496094 522.90625 "/>
<path fill-rule="nonzero" fill="rgb(41.568627%, 23.921569%, 60.392157%)" fill-opacity="1" stroke-width="1" stroke-linecap="butt" stroke-linejoin="miter" stroke="rgb(41.568627%, 23.921569%, 60.392157%)" stroke-opacity="1" stroke-miterlimit="10" d="M 79.671875 525.132812 C 79.671875 528.800781 74.171875 528.800781 74.171875 525.132812 C 74.171875 521.464844 79.671875 521.464844 79.671875 525.132812 "/>
<path fill-rule="nonzero" fill="rgb(70.196078%, 70.196078%, 70.196078%)" fill-opacity="1" stroke-width="1" stroke-linecap="butt" stroke-linejoin="miter" stroke="rgb(70.196078%, 70.196078%, 70.196078%)" stroke-opacity="1" stroke-miterlimit="10" d="M 221.179688 673.734375 C 221.179688 680.203125 211.480469 680.203125 211.480469 673.734375 C 211.480469 667.269531 221.179688 667.269531 221.179688 673.734375 "/>
<path fill-rule="nonzero" fill="rgb(70.196078%, 70.196078%, 70.196078%)" fill-opacity="1" stroke-width="1" stroke-linecap="butt" stroke-linejoin="miter" stroke="rgb(70.196078%, 70.196078%, 70.196078%)" stroke-opacity="1" stroke-miterlimit="10" d="M 229.824219 546.554688 C 229.824219 553.6875 219.125 553.6875 219.125 546.554688 C 219.125 539.417969 229.824219 539.417969 229.824219 546.554688 "/>
<path fill-rule="nonzero" fill="rgb(98.431373%, 60.392157%, 60%)" fill-opacity="1" stroke-width="1" stroke-linecap="butt" stroke-linejoin="miter" stroke="rgb(98.431373%, 60.392157%, 60%)" stroke-opacity="1" stroke-miterlimit="10" d="M 276.015625 388.527344 C 276.015625 392.191406 270.515625 392.191406 270.515625 388.527344 C 270.515625 384.859375 276.015625 384.859375 276.015625 388.527344 "/>
<path fill-rule="nonzero" fill="rgb(70.196078%, 70.196078%, 70.196078%)" fill-opacity="1" stroke-width="1" stroke-linecap="butt" stroke-linejoin="miter" stroke="rgb(70.196078%, 70.196078%, 70.196078%)" stroke-opacity="1" stroke-miterlimit="10" d="M 489.375 299.769531 C 489.375 306.902344 478.671875 306.902344 478.671875 299.769531 C 478.671875 292.636719 489.375 292.636719 489.375 299.769531 "/>
<path fill-rule="nonzero" fill="rgb(98.431373%, 60.392157%, 60%)" fill-opacity="1" stroke-width="1" stroke-linecap="butt" stroke-linejoin="miter" stroke="rgb(98.431373%, 60.392157%, 60%)" stroke-opacity="1" stroke-miterlimit="10" d="M 319.679688 493.90625 C 319.679688 497.570312 314.179688 497.570312 314.179688 493.90625 C 314.179688 490.238281 319.679688 490.238281 319.679688 493.90625 "/>
<path fill-rule="nonzero" fill="rgb(98.431373%, 60.392157%, 60%)" fill-opacity="1" stroke-width="1" stroke-linecap="butt" stroke-linejoin="miter" stroke="rgb(98.431373%, 60.392157%, 60%)" stroke-opacity="1" stroke-miterlimit="10" d="M 268.070312 500.222656 C 268.070312 503.890625 262.570312 503.890625 262.570312 500.222656 C 262.570312 496.558594 268.070312 496.558594 268.070312 500.222656 "/>
<path fill-rule="nonzero" fill="rgb(41.568627%, 23.921569%, 60.392157%)" fill-opacity="1" stroke-width="1" stroke-linecap="butt" stroke-linejoin="miter" stroke="rgb(41.568627%, 23.921569%, 60.392157%)" stroke-opacity="1" stroke-miterlimit="10" d="M 52.75 580.527344 C 52.75 584.191406 47.25 584.191406 47.25 580.527344 C 47.25 576.859375 52.75 576.859375 52.75 580.527344 "/>
<path fill-rule="nonzero" fill="rgb(14.901961%, 14.901961%, 14.901961%)" fill-opacity="1" stroke-width="1" stroke-linecap="butt" stroke-linejoin="miter" stroke="rgb(14.901961%, 14.901961%, 14.901961%)" stroke-opacity="1" stroke-miterlimit="10" d="M 193.558594 401.375 L 197.308594 393.875 L 201.058594 401.375 Z M 193.558594 401.375 "/>
<path fill-rule="nonzero" fill="rgb(41.568627%, 23.921569%, 60.392157%)" fill-opacity="1" stroke-width="1" stroke-linecap="butt" stroke-linejoin="miter" stroke="rgb(41.568627%, 23.921569%, 60.392157%)" stroke-opacity="1" stroke-miterlimit="10" d="M 112.136719 674.222656 C 112.136719 677.886719 106.636719 677.886719 106.636719 674.222656 C 106.636719 670.554688 112.136719 670.554688 112.136719 674.222656 "/>
<path fill-rule="nonzero" fill="rgb(98.431373%, 60.392157%, 60%)" fill-opacity="1" stroke-width="1" stroke-linecap="butt" stroke-linejoin="miter" stroke="rgb(98.431373%, 60.392157%, 60%)" stroke-opacity="1" stroke-miterlimit="10" d="M 450.082031 231.480469 C 450.082031 235.148438 444.582031 235.148438 444.582031 231.480469 C 444.582031 227.8125 450.082031 227.8125 450.082031 231.480469 "/>
<path fill-rule="nonzero" fill="rgb(12.156863%, 47.058824%, 70.588235%)" fill-opacity="1" stroke-width="1" stroke-linecap="butt" stroke-linejoin="miter" stroke="rgb(12.156863%, 47.058824%, 70.588235%)" stroke-opacity="1" stroke-miterlimit="10" d="M 566.554688 411.316406 C 566.554688 414.980469 561.054688 414.980469 561.054688 411.316406 C 561.054688 407.648438 566.554688 407.648438 566.554688 411.316406 "/>
<path fill-rule="nonzero" fill="rgb(70.196078%, 70.196078%, 70.196078%)" fill-opacity="1" stroke-width="1" stroke-linecap="butt" stroke-linejoin="miter" stroke="rgb(70.196078%, 70.196078%, 70.196078%)" stroke-opacity="1" stroke-miterlimit="10" d="M 355.214844 127.101562 C 355.214844 133.566406 345.511719 133.566406 345.511719 127.101562 C 345.511719 120.632812 355.214844 120.632812 355.214844 127.101562 "/>
<path fill-rule="nonzero" fill="rgb(70.196078%, 70.196078%, 70.196078%)" fill-opacity="1" stroke-width="1" stroke-linecap="butt" stroke-linejoin="miter" stroke="rgb(70.196078%, 70.196078%, 70.196078%)" stroke-opacity="1" stroke-miterlimit="10" d="M 280.753906 249.785156 C 280.753906 256.25 271.054688 256.25 271.054688 249.785156 C 271.054688 243.316406 280.753906 243.316406 280.753906 249.785156 "/>
<path fill-rule="nonzero" fill="rgb(12.156863%, 47.058824%, 70.588235%)" fill-opacity="1" stroke-width="1" stroke-linecap="butt" stroke-linejoin="miter" stroke="rgb(12.156863%, 47.058824%, 70.588235%)" stroke-opacity="1" stroke-miterlimit="10" d="M 232.394531 288.519531 C 232.394531 292.183594 226.894531 292.183594 226.894531 288.519531 C 226.894531 284.851562 232.394531 284.851562 232.394531 288.519531 "/>
<path fill-rule="nonzero" fill="rgb(14.901961%, 14.901961%, 14.901961%)" fill-opacity="1" stroke-width="1" stroke-linecap="butt" stroke-linejoin="miter" stroke="rgb(14.901961%, 14.901961%, 14.901961%)" stroke-opacity="1" stroke-miterlimit="10" d="M 746.25 353.492188 L 750 345.992188 L 753.75 353.492188 Z M 746.25 353.492188 "/>
<path fill-rule="nonzero" fill="rgb(12.156863%, 47.058824%, 70.588235%)" fill-opacity="1" stroke-width="1" stroke-linecap="butt" stroke-linejoin="miter" stroke="rgb(12.156863%, 47.058824%, 70.588235%)" stroke-opacity="1" stroke-miterlimit="10" d="M 635.378906 391.363281 C 635.378906 395.03125 629.878906 395.03125 629.878906 391.363281 C 629.878906 387.699219 635.378906 387.699219 635.378906 391.363281 "/>
<path fill-rule="nonzero" fill="rgb(100%, 84.313725%, 0%)" fill-opacity="1" stroke-width="1" stroke-linecap="butt" stroke-linejoin="miter" stroke="rgb(100%, 84.313725%, 0%)" stroke-opacity="1" stroke-miterlimit="10" d="M 506.585938 44.648438 L 517.285156 44.648438 L 517.285156 55.347656 L 506.585938 55.347656 Z M 506.585938 44.648438 "/>
<path fill-rule="nonzero" fill="rgb(100%, 84.313725%, 0%)" fill-opacity="1" stroke-width="1" stroke-linecap="butt" stroke-linejoin="miter" stroke="rgb(100%, 84.313725%, 0%)" stroke-opacity="1" stroke-miterlimit="10" d="M 407.191406 178.761719 L 413.691406 178.761719 L 413.691406 185.261719 L 407.191406 185.261719 Z M 407.191406 178.761719 "/>
<path fill-rule="nonzero" fill="rgb(12.156863%, 47.058824%, 70.588235%)" fill-opacity="1" stroke-width="1" stroke-linecap="butt" stroke-linejoin="miter" stroke="rgb(12.156863%, 47.058824%, 70.588235%)" stroke-opacity="1" stroke-miterlimit="10" d="M 364.085938 374.976562 C 364.085938 378.644531 358.585938 378.644531 358.585938 374.976562 C 358.585938 371.3125 364.085938 371.3125 364.085938 374.976562 "/>
<path fill-rule="nonzero" fill="rgb(12.156863%, 47.058824%, 70.588235%)" fill-opacity="1" stroke-width="1" stroke-linecap="butt" stroke-linejoin="miter" stroke="rgb(12.156863%, 47.058824%, 70.588235%)" stroke-opacity="1" stroke-miterlimit="10" d="M 692.84375 360.355469 C 692.84375 364.019531 687.34375 364.019531 687.34375 360.355469 C 687.34375 356.6875 692.84375 356.6875 692.84375 360.355469 "/>
<path fill-rule="nonzero" fill="rgb(12.156863%, 47.058824%, 70.588235%)" fill-opacity="1" stroke-width="1" stroke-linecap="butt" stroke-linejoin="miter" stroke="rgb(12.156863%, 47.058824%, 70.588235%)" stroke-opacity="1" stroke-miterlimit="10" d="M 490.097656 429.628906 C 490.097656 433.292969 484.597656 433.292969 484.597656 429.628906 C 484.597656 425.960938 490.097656 425.960938 490.097656 429.628906 "/>
<path fill-rule="nonzero" fill="rgb(70.196078%, 70.196078%, 70.196078%)" fill-opacity="1" stroke-width="1" stroke-linecap="butt" stroke-linejoin="miter" stroke="rgb(70.196078%, 70.196078%, 70.196078%)" stroke-opacity="1" stroke-miterlimit="10" d="M 471.953125 126.21875 C 471.953125 132.6875 462.253906 132.6875 462.253906 126.21875 C 462.253906 119.753906 471.953125 119.753906 471.953125 126.21875 "/>
<path fill-rule="nonzero" fill="rgb(100%, 84.313725%, 0%)" fill-opacity="1" stroke-width="1" stroke-linecap="butt" stroke-linejoin="miter" stroke="rgb(100%, 84.313725%, 0%)" stroke-opacity="1" stroke-miterlimit="10" d="M 173.335938 222.121094 L 179.835938 222.121094 L 179.835938 228.621094 L 173.335938 228.621094 Z M 173.335938 222.121094 "/>
</svg>
