<?xml version="1.0" encoding="UTF-8"?>
<svg xmlns="http://www.w3.org/2000/svg" xmlns:xlink="http://www.w3.org/1999/xlink" width="800" height="800" viewBox="0 0 800 800">
<rect x="-80" y="-80" width="960" height="960" fill="rgb(100%, 100%, 100%)" fill-opacity="1"/>
<path fill="none" stroke-width="6.5" stroke-linecap="butt" stroke-linejoin="miter" stroke="rgb(41.568627%, 23.921569%, 60.392157%)" stroke-opacity="1" stroke-miterlimit="10" d="M 607.300781 477.339844 C 599.863281 523.054688 609.925781 564.589844 640.066406 599.742188 "/>
<path fill-rule="nonzero" fill="rgb(41.568627%, 23.921569%, 60.392157%)" fill-opacity="1" d="M 644.710938 605.15625 L 638.308594 601.25 L 641.828125 598.230469 L 644.710938 605.15625 "/>
<path fill="none" stroke-width="2.5" stroke-linecap="butt" stroke-linejoin="miter" stroke="rgb(70.196078%, 70.196078%, 70.196078%)" stroke-opacity="1" stroke-miterlimit="10" d="M 607.300781 477.339844 C 629.769531 469.796875 646.6875 455.503906 654.886719 433.292969 "/>
<path fill-rule="nonzero" fill="rgb(70.196078%, 70.196078%, 70.196078%)" fill-opacity="1" d="M 657.355469 426.601562 L 657.0625 434.097656 L 652.710938 432.492188 L 657.355469 426.601562 "/>
<path fill="none" stroke-width="5.5" stroke-linecap="butt" stroke-linejoin="miter" stroke="rgb(41.568627%, 23.921569%, 60.392157%)" stroke-opacity="1" stroke-miterlimit="10" d="M 646.265625 606.972656 C 653.703125 561.257812 643.640625 519.722656 613.5 484.570312 "/>
<path fill-rule="nonzero" fill="rgb(41.568627%, 23.921569%, 60.392157%)" fill-opacity="1" d="M 608.855469 479.15625 L 615.257812 483.0625 L 611.738281 486.078125 L 608.855469 479.15625 "/>
<path fill="none" stroke-width="2.5" stroke-linecap="butt" stroke-linejoin="miter" stroke="rgb(98.431373%, 60.392157%, 60%)" stroke-opacity="1" stroke-miterlimit="10" d="M 646.265625 606.972656 C 674.152344 629.300781 705.921875 638.53125 740.902344 631.371094 "/>
<path fill-rule="nonzero" fill="rgb(98.431373%, 60.392157%, 60%)" fill-opacity="1" d="M 747.890625 629.941406 L 741.367188 633.640625 L 740.4375 629.101562 L 747.890625 629.941406 "/>
<path fill="none" stroke-width="2.5" stroke-linecap="butt" stroke-linejoin="miter" stroke="rgb(41.568627%, 23.921569%, 60.392157%)" stroke-opacity="1" stroke-miterlimit="10" d="M 646.265625 606.972656 C 674.296875 586.332031 691.007812 558.746094 693.023438 524.015625 "/>
<path fill-rule="nonzero" fill="rgb(41.568627%, 23.921569%, 60.392157%)" fill-opacity="1" d="M 693.4375 516.894531 L 695.339844 524.152344 L 690.710938 523.882812 L 693.4375 516.894531 "/>
<path fill="none" stroke-width="1.5" stroke-linecap="butt" stroke-linejoin="miter" stroke="rgb(98.431373%, 60.392157%, 60%)" stroke-opacity="1" stroke-miterlimit="10" d="M 646.265625 606.972656 C 662.628906 607.746094 677.351562 602.972656 687.953125 590.535156 "/>
<path fill-rule="nonzero" fill="rgb(98.431373%, 60.392157%, 60%)" fill-opacity="1" d="M 692.582031 585.109375 L 689.71875 592.039062 L 686.191406 589.03125 L 692.582031 585.109375 "/>
<path fill="none" stroke-width="1.5" stroke-linecap="butt" stroke-linejoin="miter" stroke="rgb(98.431373%, 60.392157%, 60%)" stroke-opacity="1" stroke-miterlimit="10" d="M 646.265625 606.972656 C 632.765625 588.738281 614.753906 577.539062 592.109375 576.640625 "/>
<path fill-rule="nonzero" fill="rgb(98.431373%, 60.392157%, 60%)" fill-opacity="1" d="M 584.980469 576.359375 L 592.199219 574.324219 L 592.015625 578.957031 L 584.980469 576.359375 "/>
<path fill="none" stroke-width="2.5" stroke-linecap="butt" stroke-linejoin="miter" stroke="rgb(98.431373%, 60.392157%, 60%)" stroke-opacity="1" stroke-miterlimit="10" d="M 750 629.507812 C 722.199219 607.203125 690.507812 597.949219 655.597656 605.070312 "/>
<path fill-rule="nonzero" fill="rgb(98.431373%, 60.392157%, 60%)" fill-opacity="1" d="M 648.609375 606.492188 L 655.136719 602.796875 L 656.0625 607.339844 L 648.609375 606.492188 "/>
<path fill="none" stroke-width="1.5" stroke-linecap="butt" stroke-linejoin="miter" stroke="rgb(12.156863%, 47.058824%, 70.588235%)" stroke-opacity="1" stroke-miterlimit="10" d="M 234.621094 735.585938 C 277.214844 715.3125 306.136719 682.796875 318.117188 637.1875 "/>
<path fill-rule="nonzero" fill="rgb(12.156863%, 47.058824%, 70.588235%)" fill-opacity="1" d="M 319.929688 630.289062 L 320.359375 637.773438 L 315.875 636.597656 L 319.929688 630.289062 "/>
<path fill="none" stroke-width="1.5" stroke-linecap="butt" stroke-linejoin="miter" stroke="rgb(12.156863%, 47.058824%, 70.588235%)" stroke-opacity="1" stroke-miterlimit="10" d="M 150.382812 750 C 153.75 722.210938 146.953125 697.074219 127.589844 676.894531 "/>
<path fill-rule="nonzero" fill="rgb(12.156863%, 47.058824%, 70.588235%)" fill-opacity="1" d="M 122.648438 671.75 L 129.261719 675.289062 L 125.917969 678.5 L 122.648438 671.75 "/>
<path fill="none" stroke-width="1.5" stroke-linecap="butt" stroke-linejoin="miter" stroke="rgb(12.156863%, 47.058824%, 70.588235%)" stroke-opacity="1" stroke-miterlimit="10" d="M 320.539062 627.972656 C 319.359375 609.132812 311.949219 593 296.441406 582.289062 "/>
<path fill-rule="nonzero" fill="rgb(12.156863%, 47.058824%, 70.588235%)" fill-opacity="1" d="M 290.570312 578.238281 L 297.757812 580.382812 L 295.121094 584.199219 L 290.570312 578.238281 "/>
<path fill="none" stroke-width="2.5" stroke-linecap="butt" stroke-linejoin="miter" stroke="rgb(12.156863%, 47.058824%, 70.588235%)" stroke-opacity="1" stroke-miterlimit="10" d="M 320.539062 627.972656 C 283.980469 616.410156 248.664062 619.558594 216.351562 640.167969 "/>
<path fill-rule="nonzero" fill="rgb(12.156863%, 47.058824%, 70.588235%)" fill-opacity="1" d="M 210.335938 644.003906 L 215.105469 638.214844 L 217.597656 642.121094 L 210.335938 644.003906 "/>
<path fill="none" stroke-width="5.5" stroke-linecap="butt" stroke-linejoin="miter" stroke="rgb(70.196078%, 70.196078%, 70.196078%)" stroke-opacity="1" stroke-miterlimit="10" d="M 453.070312 475.644531 C 488.082031 444.671875 506.734375 405.789062 505.644531 359.070312 "/>
<path fill-rule="nonzero" fill="rgb(70.196078%, 70.196078%, 70.196078%)" fill-opacity="1" d="M 505.476562 351.941406 L 507.960938 359.019531 L 503.328125 359.125 L 505.476562 351.941406 "/>
<path fill="none" stroke-width="5.5" stroke-linecap="butt" stroke-linejoin="miter" stroke="rgb(70.196078%, 70.196078%, 70.196078%)" stroke-opacity="1" stroke-miterlimit="10" d="M 361.160156 395.359375 C 377.148438 433.601562 404.417969 460.496094 443.976562 472.8125 "/>
<path fill-rule="nonzero" fill="rgb(70.196078%, 70.196078%, 70.196078%)" fill-opacity="1" d="M 450.789062 474.933594 L 443.289062 475.027344 L 444.667969 470.601562 L 450.789062 474.933594 "/>
<path fill="none" stroke-width="5.5" stroke-linecap="butt" stroke-linejoin="miter" stroke="rgb(70.196078%, 70.196078%, 70.196078%)" stroke-opacity="1" stroke-miterlimit="10" d="M 301.84375 309.699219 C 306.808594 344.273438 323.285156 372.128906 353.042969 390.382812 "/>
<path fill-rule="nonzero" fill="rgb(70.196078%, 70.196078%, 70.196078%)" fill-opacity="1" d="M 359.125 394.113281 L 351.832031 392.359375 L 354.253906 388.40625 L 359.125 394.113281 "/>
<path fill="none" stroke-width="1.5" stroke-linecap="butt" stroke-linejoin="miter" stroke="rgb(12.156863%, 47.058824%, 70.588235%)" stroke-opacity="1" stroke-miterlimit="10" d="M 216.664062 523.226562 C 230.386719 550.445312 251.746094 569.015625 281.460938 575.722656 "/>
<path fill-rule="nonzero" fill="rgb(12.156863%, 47.058824%, 70.588235%)" fill-opacity="1" d="M 288.417969 577.292969 L 280.949219 577.984375 L 281.972656 573.464844 L 288.417969 577.292969 "/>
<path fill="none" stroke-width="2.5" stroke-linecap="butt" stroke-linejoin="miter" stroke="rgb(12.156863%, 47.058824%, 70.588235%)" stroke-opacity="1" stroke-miterlimit="10" d="M 289.585938 577.558594 C 290.5625 596.015625 297.636719 611.921875 312.742188 622.511719 "/>
<path fill-rule="nonzero" fill="rgb(12.156863%, 47.058824%, 70.588235%)" fill-opacity="1" d="M 318.585938 626.605469 L 311.414062 624.410156 L 314.074219 620.613281 L 318.585938 626.605469 "/>
<path fill="none" stroke-width="4.5" stroke-linecap="butt" stroke-linejoin="miter" stroke="rgb(70.196078%, 70.196078%, 70.196078%)" stroke-opacity="1" stroke-miterlimit="10" d="M 440.695312 390.96875 C 480.191406 443.132812 532.488281 472.863281 597.789062 476.769531 "/>
<path fill-rule="nonzero" fill="rgb(70.196078%, 70.196078%, 70.196078%)" fill-opacity="1" d="M 604.910156 477.195312 L 597.652344 479.082031 L 597.925781 474.457031 L 604.910156 477.195312 "/>
<path fill="none" stroke-width="1.5" stroke-linecap="butt" stroke-linejoin="miter" stroke="rgb(12.156863%, 47.058824%, 70.588235%)" stroke-opacity="1" stroke-miterlimit="10" d="M 440.695312 390.96875 C 366.675781 448.847656 325.652344 524.617188 321.007812 618.457031 "/>
<path fill-rule="nonzero" fill="rgb(12.156863%, 47.058824%, 70.588235%)" fill-opacity="1" d="M 320.65625 625.582031 L 318.695312 618.34375 L 323.324219 618.570312 L 320.65625 625.582031 "/>
<path fill="none" stroke-width="5.5" stroke-linecap="butt" stroke-linejoin="miter" stroke="rgb(70.196078%, 70.196078%, 70.196078%)" stroke-opacity="1" stroke-miterlimit="10" d="M 505.421875 349.550781 C 501.214844 320.707031 487.503906 297.332031 462.546875 282.320312 "/>
<path fill-rule="nonzero" fill="rgb(70.196078%, 70.196078%, 70.196078%)" fill-opacity="1" d="M 456.433594 278.644531 L 463.742188 280.335938 L 461.351562 284.308594 L 456.433594 278.644531 "/>
<path fill="none" stroke-width="5.5" stroke-linecap="butt" stroke-linejoin="miter" stroke="rgb(70.196078%, 70.196078%, 70.196078%)" stroke-opacity="1" stroke-miterlimit="10" d="M 454.386719 277.414062 C 433.230469 309.757812 426.664062 344.902344 437.921875 381.859375 "/>
<path fill-rule="nonzero" fill="rgb(70.196078%, 70.196078%, 70.196078%)" fill-opacity="1" d="M 440 388.683594 L 435.703125 382.535156 L 440.136719 381.183594 L 440 388.683594 "/>
<path fill="none" stroke-width="1.5" stroke-linecap="butt" stroke-linejoin="miter" stroke="rgb(41.568627%, 23.921569%, 60.392157%)" stroke-opacity="1" stroke-miterlimit="10" d="M 693.578125 514.511719 C 673.578125 490.582031 647.984375 477.042969 616.820312 477.269531 "/>
<path fill-rule="nonzero" fill="rgb(41.568627%, 23.921569%, 60.392157%)" fill-opacity="1" d="M 609.6875 477.320312 L 616.804688 474.953125 L 616.839844 479.585938 L 609.6875 477.320312 "/>
<path fill="none" stroke-width="1.5" stroke-linecap="butt" stroke-linejoin="miter" stroke="rgb(41.568627%, 23.921569%, 60.392157%)" stroke-opacity="1" stroke-miterlimit="10" d="M 693.578125 514.511719 C 665.546875 535.148438 648.835938 562.734375 646.820312 597.464844 "/>
<path fill-rule="nonzero" fill="rgb(41.568627%, 23.921569%, 60.392157%)" fill-opacity="1" d="M 646.40625 604.585938 L 644.503906 597.328125 L 649.132812 597.597656 L 646.40625 604.585938 "/>
<path fill="none" stroke-width="1.5" stroke-linecap="butt" stroke-linejoin="miter" stroke="rgb(98.431373%, 60.392157%, 60%)" stroke-opacity="1" stroke-miterlimit="10" d="M 693.578125 514.511719 C 682.070312 579.472656 695.96875 638.496094 737.800781 689.503906 "/>
<path fill-rule="nonzero" fill="rgb(98.431373%, 60.392157%, 60%)" fill-opacity="1" d="M 742.324219 695.019531 L 736.007812 690.972656 L 739.59375 688.035156 L 742.324219 695.019531 "/>
<path fill="none" stroke-width="1.5" stroke-linecap="butt" stroke-linejoin="miter" stroke="rgb(98.431373%, 60.392157%, 60%)" stroke-opacity="1" stroke-miterlimit="10" d="M 693.046875 584.5625 C 677.253906 583.5625 662.894531 587.902344 652.519531 599.800781 "/>
<path fill-rule="nonzero" fill="rgb(98.431373%, 60.392157%, 60%)" fill-opacity="1" d="M 647.832031 605.175781 L 650.773438 598.277344 L 654.265625 601.324219 L 647.832031 605.175781 "/>
<path fill="none" stroke-width="1.5" stroke-linecap="butt" stroke-linejoin="miter" stroke="rgb(98.431373%, 60.392157%, 60%)" stroke-opacity="1" stroke-miterlimit="10" d="M 742.78125 695.574219 C 754.691406 678.003906 759.089844 658.601562 752.769531 638.367188 "/>
<path fill-rule="nonzero" fill="rgb(98.431373%, 60.392157%, 60%)" fill-opacity="1" d="M 750.640625 631.558594 L 754.980469 637.675781 L 750.554688 639.058594 L 750.640625 631.558594 "/>
<path fill="none" stroke-width="1.5" stroke-linecap="butt" stroke-linejoin="miter" stroke="rgb(98.431373%, 60.392157%, 60%)" stroke-opacity="1" stroke-miterlimit="10" d="M 584.261719 576.328125 C 626.933594 573.8125 662.378906 556.429688 687.890625 522.152344 "/>
<path fill-rule="nonzero" fill="rgb(98.431373%, 60.392157%, 60%)" fill-opacity="1" d="M 692.148438 516.429688 L 689.75 523.535156 L 686.03125 520.765625 L 692.148438 516.429688 "/>
<path fill="none" stroke-width="5.5" stroke-linecap="butt" stroke-linejoin="miter" stroke="rgb(70.196078%, 70.196078%, 70.196078%)" stroke-opacity="1" stroke-miterlimit="10" d="M 259.214844 227.609375 C 259.535156 258.261719 270.5625 284.515625 294.425781 303.726562 "/>
<path fill-rule="nonzero" fill="rgb(70.196078%, 70.196078%, 70.196078%)" fill-opacity="1" d="M 299.980469 308.199219 L 292.972656 305.53125 L 295.878906 301.921875 L 299.980469 308.199219 "/>
<path fill="none" stroke-width="1.5" stroke-linecap="butt" stroke-linejoin="miter" stroke="rgb(41.568627%, 23.921569%, 60.392157%)" stroke-opacity="1" stroke-miterlimit="10" d="M 658.183594 424.363281 C 635.714844 431.90625 618.792969 446.199219 610.59375 468.410156 "/>
<path fill-rule="nonzero" fill="rgb(41.568627%, 23.921569%, 60.392157%)" fill-opacity="1" d="M 608.125 475.101562 L 608.421875 467.605469 L 612.769531 469.210938 L 608.125 475.101562 "/>
<path fill="none" stroke-width="1.5" stroke-linecap="butt" stroke-linejoin="miter" stroke="rgb(98.431373%, 60.392157%, 60%)" stroke-opacity="1" stroke-miterlimit="10" d="M 658.183594 424.363281 C 627.0625 479.972656 620.933594 538.25 642.972656 598.03125 "/>
<path fill-rule="nonzero" fill="rgb(98.431373%, 60.392157%, 60%)" fill-opacity="1" d="M 645.4375 604.726562 L 640.796875 598.835938 L 645.148438 597.230469 L 645.4375 604.726562 "/>
<path fill="none" stroke-width="1.5" stroke-linecap="butt" stroke-linejoin="miter" stroke="rgb(12.156863%, 47.058824%, 70.588235%)" stroke-opacity="1" stroke-miterlimit="10" d="M 148.421875 584.195312 C 178.167969 576.015625 200.835938 558.523438 213.449219 530.390625 "/>
<path fill-rule="nonzero" fill="rgb(12.156863%, 47.058824%, 70.588235%)" fill-opacity="1" d="M 216.367188 523.878906 L 215.566406 531.335938 L 211.335938 529.441406 L 216.367188 523.878906 "/>
<path fill="none" stroke-width="1.5" stroke-linecap="butt" stroke-linejoin="miter" stroke="rgb(12.156863%, 47.058824%, 70.588235%)" stroke-opacity="1" stroke-miterlimit="10" d="M 148.421875 584.195312 C 127.46875 605.871094 117.054688 631.863281 120.488281 661.789062 "/>
<path fill-rule="nonzero" fill="rgb(12.156863%, 47.058824%, 70.588235%)" fill-opacity="1" d="M 121.300781 668.878906 L 118.183594 662.054688 L 122.789062 661.527344 L 121.300781 668.878906 "/>
<path fill="none" stroke-width="1.5" stroke-linecap="butt" stroke-linejoin="miter" stroke="rgb(12.156863%, 47.058824%, 70.588235%)" stroke-opacity="1" stroke-miterlimit="10" d="M 209.730469 644.390625 C 175.519531 668.191406 154.890625 700.691406 151.097656 742.179688 "/>
<path fill-rule="nonzero" fill="rgb(12.156863%, 47.058824%, 70.588235%)" fill-opacity="1" d="M 150.449219 749.285156 L 148.789062 741.96875 L 153.40625 742.390625 L 150.449219 749.285156 "/>
<path fill="none" stroke-width="1.5" stroke-linecap="butt" stroke-linejoin="miter" stroke="rgb(12.156863%, 47.058824%, 70.588235%)" stroke-opacity="1" stroke-miterlimit="10" d="M 209.730469 644.390625 C 200.484375 617.273438 183.035156 597.148438 156.222656 587.113281 "/>
<path fill-rule="nonzero" fill="rgb(12.156863%, 47.058824%, 70.588235%)" fill-opacity="1" d="M 149.542969 584.613281 L 157.035156 584.945312 L 155.410156 589.285156 L 149.542969 584.613281 "/>
<path fill="none" stroke-width="1.5" stroke-linecap="butt" stroke-linejoin="miter" stroke="rgb(12.156863%, 47.058824%, 70.588235%)" stroke-opacity="1" stroke-miterlimit="10" d="M 50 666.773438 C 70.050781 678.558594 91.53125 681.890625 113.257812 673.660156 "/>
<path fill-rule="nonzero" fill="rgb(12.156863%, 47.058824%, 70.588235%)" fill-opacity="1" d="M 119.925781 671.132812 L 114.078125 675.828125 L 112.433594 671.492188 L 119.925781 671.132812 "/>
<path fill="none" stroke-width="1.5" stroke-linecap="butt" stroke-linejoin="miter" stroke="rgb(12.156863%, 47.058824%, 70.588235%)" stroke-opacity="1" stroke-miterlimit="10" d="M 121.492188 670.539062 C 146.957031 707.757812 181.957031 730.257812 226.808594 734.796875 "/>
<path fill-rule="nonzero" fill="rgb(12.156863%, 47.058824%, 70.588235%)" fill-opacity="1" d="M 233.90625 735.515625 L 226.578125 737.101562 L 227.042969 732.492188 L 233.90625 735.515625 "/>
<path fill="none" stroke-width="1.5" stroke-linecap="butt" stroke-linejoin="miter" stroke="rgb(12.156863%, 47.058824%, 70.588235%)" stroke-opacity="1" stroke-miterlimit="10" d="M 121.492188 670.539062 C 142.5 648.699219 152.890625 622.550781 149.382812 592.46875 "/>
<path fill-rule="nonzero" fill="rgb(12.156863%, 47.058824%, 70.588235%)" fill-opacity="1" d="M 148.558594 585.382812 L 151.6875 592.199219 L 147.082031 592.734375 L 148.558594 585.382812 "/>
<path fill="none" stroke-width="1.5" stroke-linecap="butt" stroke-linejoin="miter" stroke="rgb(12.156863%, 47.058824%, 70.588235%)" stroke-opacity="1" stroke-miterlimit="10" d="M 121.492188 670.539062 C 101.089844 658.722656 79.3125 655.511719 57.328125 663.957031 "/>
<path fill-rule="nonzero" fill="rgb(12.156863%, 47.058824%, 70.588235%)" fill-opacity="1" d="M 50.671875 666.515625 L 56.5 661.792969 L 58.160156 666.121094 L 50.671875 666.515625 "/>
<path fill="none" stroke-width="5.5" stroke-linecap="butt" stroke-linejoin="miter" stroke="rgb(70.196078%, 70.196078%, 70.196078%)" stroke-opacity="1" stroke-miterlimit="10" d="M 226.972656 139.121094 C 223.285156 170.171875 231.023438 198.15625 252.628906 220.730469 "/>
<path fill-rule="nonzero" fill="rgb(70.196078%, 70.196078%, 70.196078%)" fill-opacity="1" d="M 257.5625 225.882812 L 250.957031 222.332031 L 254.304688 219.128906 L 257.5625 225.882812 "/>
<path fill="none" stroke-width="5.5" stroke-linecap="butt" stroke-linejoin="miter" stroke="rgb(70.196078%, 70.196078%, 70.196078%)" stroke-opacity="1" stroke-miterlimit="10" d="M 207.007812 50 C 199.566406 79.296875 203.429688 107.117188 221.332031 131.449219 "/>
<path fill-rule="nonzero" fill="rgb(70.196078%, 70.196078%, 70.196078%)" fill-opacity="1" d="M 225.558594 137.195312 L 219.464844 132.824219 L 223.199219 130.078125 L 225.558594 137.195312 "/>
<path fill-rule="nonzero" fill="rgb(14.901961%, 14.901961%, 14.901961%)" fill-opacity="1" stroke-width="1" stroke-linecap="butt" stroke-linejoin="miter" stroke="rgb(14.901961%, 14.901961%, 14.901961%)" stroke-opacity="1" stroke-miterlimit="10" d="M 604.800781 479.839844 L 607.300781 474.839844 L 609.800781 479.839844 Z M 604.800781 479.839844 "/>
<path fill-rule="nonzero" fill="rgb(70.196078%, 70.196078%, 70.196078%)" fill-opacity="1" stroke-width="1" stroke-linecap="butt" stroke-linejoin="miter" stroke="rgb(70.196078%, 70.196078%, 70.196078%)" stroke-opacity="1" stroke-miterlimit="10" d="M 648.765625 606.972656 C 648.765625 610.304688 643.765625 610.304688 643.765625 606.972656 C 643.765625 603.636719 648.765625 603.636719 648.765625 606.972656 "/>
<path fill-rule="nonzero" fill="rgb(14.901961%, 14.901961%, 14.901961%)" fill-opacity="1" stroke-width="1" stroke-linecap="butt" stroke-linejoin="miter" stroke="rgb(14.901961%, 14.901961%, 14.901961%)" stroke-opacity="1" stroke-miterlimit="10" d="M 747.75 631.757812 L 750 627.257812 L 752.25 631.757812 Z M 747.75 631.757812 "/>
<path fill-rule="nonzero" fill="rgb(12.156863%, 47.058824%, 70.588235%)" fill-opacity="1" stroke-width="1" stroke-linecap="butt" stroke-linejoin="miter" stroke="rgb(12.156863%, 47.058824%, 70.588235%)" stroke-opacity="1" stroke-miterlimit="10" d="M 235.371094 735.585938 C 235.371094 736.585938 233.871094 736.585938 233.871094 735.585938 C 233.871094 734.585938 235.371094 734.585938 235.371094 735.585938 "/>
<path fill-rule="nonzero" fill="rgb(12.156863%, 47.058824%, 70.588235%)" fill-opacity="1" stroke-width="1" stroke-linecap="butt" stroke-linejoin="miter" stroke="rgb(12.156863%, 47.058824%, 70.588235%)" stroke-opacity="1" stroke-miterlimit="10" d="M 151.132812 750 C 151.132812 751 149.632812 751 149.632812 750 C 149.632812 749 151.132812 749 151.132812 750 "/>
<path fill-rule="nonzero" fill="rgb(14.901961%, 14.901961%, 14.901961%)" fill-opacity="1" stroke-width="1" stroke-linecap="butt" stroke-linejoin="miter" stroke="rgb(14.901961%, 14.901961%, 14.901961%)" stroke-opacity="1" stroke-miterlimit="10" d="M 318.039062 630.472656 L 320.539062 625.472656 L 323.039062 630.472656 Z M 318.039062 630.472656 "/>
<path fill-rule="nonzero" fill="rgb(70.196078%, 70.196078%, 70.196078%)" fill-opacity="1" stroke-width="1" stroke-linecap="butt" stroke-linejoin="miter" stroke="rgb(70.196078%, 70.196078%, 70.196078%)" stroke-opacity="1" stroke-miterlimit="10" d="M 455.570312 475.644531 C 455.570312 478.976562 450.570312 478.976562 450.570312 475.644531 C 450.570312 472.3125 455.570312 472.3125 455.570312 475.644531 "/>
<path fill-rule="nonzero" fill="rgb(70.196078%, 70.196078%, 70.196078%)" fill-opacity="1" stroke-width="1" stroke-linecap="butt" stroke-linejoin="miter" stroke="rgb(70.196078%, 70.196078%, 70.196078%)" stroke-opacity="1" stroke-miterlimit="10" d="M 363.660156 395.359375 C 363.660156 398.695312 358.660156 398.695312 358.660156 395.359375 C 358.660156 392.027344 363.660156 392.027344 363.660156 395.359375 "/>
<path fill-rule="nonzero" fill="rgb(70.196078%, 70.196078%, 70.196078%)" fill-opacity="1" stroke-width="1" stroke-linecap="butt" stroke-linejoin="miter" stroke="rgb(70.196078%, 70.196078%, 70.196078%)" stroke-opacity="1" stroke-miterlimit="10" d="M 304.34375 309.699219 C 304.34375 313.03125 299.34375 313.03125 299.34375 309.699219 C 299.34375 306.367188 304.34375 306.367188 304.34375 309.699219 "/>
<path fill-rule="nonzero" fill="rgb(12.156863%, 47.058824%, 70.588235%)" fill-opacity="1" stroke-width="1" stroke-linecap="butt" stroke-linejoin="miter" stroke="rgb(12.156863%, 47.058824%, 70.588235%)" stroke-opacity="1" stroke-miterlimit="10" d="M 217.414062 523.226562 C 217.414062 524.226562 215.914062 524.226562 215.914062 523.226562 C 215.914062 522.226562 217.414062 522.226562 217.414062 523.226562 "/>
<path fill-rule="nonzero" fill="rgb(12.156863%, 47.058824%, 70.588235%)" fill-opacity="1" stroke-width="1" stroke-linecap="butt" stroke-linejoin="miter" stroke="rgb(12.156863%, 47.058824%, 70.588235%)" stroke-opacity="1" stroke-miterlimit="10" d="M 290.835938 577.558594 C 290.835938 579.226562 288.335938 579.226562 288.335938 577.558594 C 288.335938 575.890625 290.835938 575.890625 290.835938 577.558594 "/>
<path fill-rule="nonzero" fill="rgb(70.196078%, 70.196078%, 70.196078%)" fill-opacity="1" stroke-width="1" stroke-linecap="butt" stroke-linejoin="miter" stroke="rgb(70.196078%, 70.196078%, 70.196078%)" stroke-opacity="1" stroke-miterlimit="10" d="M 443.195312 390.96875 C 443.195312 394.304688 438.195312 394.304688 438.195312 390.96875 C 438.195312 387.636719 443.195312 387.636719 443.195312 390.96875 "/>
<path fill-rule="nonzero" fill="rgb(70.196078%, 70.196078%, 70.196078%)" fill-opacity="1" stroke-width="1" stroke-linecap="butt" stroke-linejoin="miter" stroke="rgb(70.196078%, 70.196078%, 70.196078%)" stroke-opacity="1" stroke-miterlimit="10" d="M 507.921875 349.550781 C 507.921875 352.882812 502.921875 352.882812 502.921875 349.550781 C 502.921875 346.214844 507.921875 346.214844 507.921875 349.550781 "/>
<path fill-rule="nonzero" fill="rgb(70.196078%, 70.196078%, 70.196078%)" fill-opacity="1" stroke-width="1" stroke-linecap="butt" stroke-linejoin="miter" stroke="rgb(70.196078%, 70.196078%, 70.196078%)" stroke-opacity="1" stroke-miterlimit="10" d="M 456.886719 277.414062 C 456.886719 280.746094 451.886719 280.746094 451.886719 277.414062 C 451.886719 274.082031 456.886719 274.082031 456.886719 277.414062 "/>
<path fill-rule="nonzero" fill="rgb(70.196078%, 70.196078%, 70.196078%)" fill-opacity="1" stroke-width="1" stroke-linecap="butt" stroke-linejoin="miter" stroke="rgb(70.196078%, 70.196078%, 70.196078%)" stroke-opacity="1" stroke-miterlimit="10" d="M 696.078125 514.511719 C 696.078125 517.84375 691.078125 517.84375 691.078125 514.511719 C 691.078125 511.175781 696.078125 511.175781 696.078125 514.511719 "/>
<path fill-rule="nonzero" fill="rgb(98.431373%, 60.392157%, 60%)" fill-opacity="1" stroke-width="1" stroke-linecap="butt" stroke-linejoin="miter" stroke="rgb(98.431373%, 60.392157%, 60%)" stroke-opacity="1" stroke-miterlimit="10" d="M 693.796875 584.5625 C 693.796875 585.5625 692.296875 585.5625 692.296875 584.5625 C 692.296875 583.5625 693.796875 583.5625 693.796875 584.5625 "/>
<path fill-rule="nonzero" fill="rgb(98.431373%, 60.392157%, 60%)" fill-opacity="1" stroke-width="1" stroke-linecap="butt" stroke-linejoin="miter" stroke="rgb(98.431373%, 60.392157%, 60%)" stroke-opacity="1" stroke-miterlimit="10" d="M 743.53125 695.574219 C 743.53125 696.574219 742.03125 696.574219 742.03125 695.574219 C 742.03125 694.574219 743.53125 694.574219 743.53125 695.574219 "/>
<path fill-rule="nonzero" fill="rgb(98.431373%, 60.392157%, 60%)" fill-opacity="1" stroke-width="1" stroke-linecap="butt" stroke-linejoin="miter" stroke="rgb(98.431373%, 60.392157%, 60%)" stroke-opacity="1" stroke-miterlimit="10" d="M 585.011719 576.328125 C 585.011719 577.328125 583.511719 577.328125 583.511719 576.328125 C 583.511719 575.328125 585.011719 575.328125 585.011719 576.328125 "/>
<path fill-rule="nonzero" fill="rgb(70.196078%, 70.196078%, 70.196078%)" fill-opacity="1" stroke-width="1" stroke-linecap="butt" stroke-linejoin="miter" stroke="rgb(70.196078%, 70.196078%, 70.196078%)" stroke-opacity="1" stroke-miterlimit="10" d="M 261.714844 227.609375 C 261.714844 230.941406 256.714844 230.941406 256.714844 227.609375 C 256.714844 224.277344 261.714844 224.277344 261.714844 227.609375 "/>
<path fill-rule="nonzero" fill="rgb(70.196078%, 70.196078%, 70.196078%)" fill-opacity="1" stroke-width="1" stroke-linecap="butt" stroke-linejoin="miter" stroke="rgb(70.196078%, 70.196078%, 70.196078%)" stroke-opacity="1" stroke-miterlimit="10" d="M 660.683594 424.363281 C 660.683594 427.695312 655.683594 427.695312 655.683594 424.363281 C 655.683594 421.03125 660.683594 421.03125 660.683594 424.363281 "/>
<path fill-rule="nonzero" fill="rgb(12.156863%, 47.058824%, 70.588235%)" fill-opacity="1" stroke-width="1" stroke-linecap="butt" stroke-linejoin="miter" stroke="rgb(12.156863%, 47.058824%, 70.588235%)" stroke-opacity="1" stroke-miterlimit="10" d="M 149.671875 584.195312 C 149.671875 585.859375 147.171875 585.859375 147.171875 584.195312 C 147.171875 582.527344 149.671875 582.527344 149.671875 584.195312 "/>
<path fill-rule="nonzero" fill="rgb(12.156863%, 47.058824%, 70.588235%)" fill-opacity="1" stroke-width="1" stroke-linecap="butt" stroke-linejoin="miter" stroke="rgb(12.156863%, 47.058824%, 70.588235%)" stroke-opacity="1" stroke-miterlimit="10" d="M 210.480469 644.390625 C 210.480469 645.390625 208.980469 645.390625 208.980469 644.390625 C 208.980469 643.390625 210.480469 643.390625 210.480469 644.390625 "/>
<path fill-rule="nonzero" fill="rgb(12.156863%, 47.058824%, 70.588235%)" fill-opacity="1" stroke-width="1" stroke-linecap="butt" stroke-linejoin="miter" stroke="rgb(12.156863%, 47.058824%, 70.588235%)" stroke-opacity="1" stroke-miterlimit="10" d="M 50.75 666.773438 C 50.75 667.773438 49.25 667.773438 49.25 666.773438 C 49.25 665.773438 50.75 665.773438 50.75 666.773438 "/>
<path fill-rule="nonzero" fill="rgb(12.156863%, 47.058824%, 70.588235%)" fill-opacity="1" stroke-width="1" stroke-linecap="butt" stroke-linejoin="miter" stroke="rgb(12.156863%, 47.058824%, 70.588235%)" stroke-opacity="1" stroke-miterlimit="10" d="M 123.242188 670.539062 C 123.242188 672.875 119.742188 672.875 119.742188 670.539062 C 119.742188 668.207031 123.242188 668.207031 123.242188 670.539062 "/>
<path fill-rule="nonzero" fill="rgb(70.196078%, 70.196078%, 70.196078%)" fill-opacity="1" stroke-width="1" stroke-linecap="butt" stroke-linejoin="miter" stroke="rgb(70.196078%, 70.196078%, 70.196078%)" stroke-opacity="1" stroke-miterlimit="10" d="M 229.472656 139.121094 C 229.472656 142.453125 224.472656 142.453125 224.472656 139.121094 C 224.472656 135.785156 229.472656 135.785156 229.472656 139.121094 "/>
<path fill-rule="nonzero" fill="rgb(100%, 84.313725%, 0%)" fill-opacity="1" stroke-width="1" stroke-linecap="butt" stroke-linejoin="miter" stroke="rgb(100%, 84.313725%, 0%)" stroke-opacity="1" stroke-miterlimit="10" d="M 204.507812 47.5 L 209.507812 47.5 L 209.507812 52.5 L 204.507812 52.5 Z M 204.507812 47.5 "/>
</svg>
