<?xml version="1.0" encoding="UTF-8"?>
<svg xmlns="http://www.w3.org/2000/svg" xmlns:xlink="http://www.w3.org/1999/xlink" width="800" height="800" viewBox="0 0 800 800">
<rect x="-80" y="-80" width="960" height="960" fill="rgb(100%, 100%, 100%)" fill-opacity="1"/>
<path fill="none" stroke-width="1.5" stroke-linecap="butt" stroke-linejoin="miter" stroke="rgb(30.196078%, 68.627451%, 29.019608%)" stroke-opacity="1" stroke-miterlimit="10" d="M 571.890625 137.90625 C 561.191406 178.484375 566.554688 216.882812 590.75 251.148438 "/>
<path fill-rule="nonzero" fill="rgb(30.196078%, 68.627451%, 29.019608%)" fill-opacity="1" d="M 594.863281 256.976562 L 588.855469 252.488281 L 592.644531 249.8125 L 594.863281 256.976562 "/>
<path fill="none" stroke-width="2.5" stroke-linecap="butt" stroke-linejoin="miter" stroke="rgb(70.196078%, 70.196078%, 70.196078%)" stroke-opacity="1" stroke-miterlimit="10" d="M 596.242188 258.929688 C 606.941406 218.355469 601.578125 179.953125 577.382812 145.6875 "/>
<path fill-rule="nonzero" fill="rgb(70.196078%, 70.196078%, 70.196078%)" fill-opacity="1" d="M 573.269531 139.859375 L 579.277344 144.351562 L 575.488281 147.023438 L 573.269531 139.859375 "/>
<path fill="none" stroke-width="2.5" stroke-linecap="butt" stroke-linejoin="miter" stroke="rgb(41.568627%, 23.921569%, 60.392157%)" stroke-opacity="1" stroke-miterlimit="10" d="M 596.242188 258.929688 C 601.78125 274.539062 611.878906 286.503906 627.582031 291.65625 "/>
<path fill-rule="nonzero" fill="rgb(41.568627%, 23.921569%, 60.392157%)" fill-opacity="1" d="M 634.359375 293.878906 L 626.859375 293.859375 L 628.304688 289.453125 L 634.359375 293.878906 "/>
<path fill="none" stroke-width="1.5" stroke-linecap="butt" stroke-linejoin="miter" stroke="rgb(41.568627%, 23.921569%, 60.392157%)" stroke-opacity="1" stroke-miterlimit="10" d="M 635.945312 294.402344 C 630.589844 278.980469 620.71875 267.089844 605.269531 261.941406 "/>
<path fill-rule="nonzero" fill="rgb(41.568627%, 23.921569%, 60.392157%)" fill-opacity="1" d="M 598.503906 259.683594 L 606.003906 259.742188 L 604.535156 264.136719 L 598.503906 259.683594 "/>
<path fill="none" stroke-width="2.5" stroke-linecap="butt" stroke-linejoin="miter" stroke="rgb(98.431373%, 60.392157%, 60%)" stroke-opacity="1" stroke-miterlimit="10" d="M 655.195312 514.519531 C 666.828125 506.828125 674.707031 496.152344 675.582031 482.277344 "/>
<path fill-rule="nonzero" fill="rgb(98.431373%, 60.392157%, 60%)" fill-opacity="1" d="M 676.027344 475.160156 L 677.894531 482.425781 L 673.269531 482.132812 L 676.027344 475.160156 "/>
<path fill="none" stroke-width="2.5" stroke-linecap="butt" stroke-linejoin="miter" stroke="rgb(98.431373%, 60.392157%, 60%)" stroke-opacity="1" stroke-miterlimit="10" d="M 676.074219 474.441406 C 664.71875 481.6875 656.871094 491.882812 655.882812 505.269531 "/>
<path fill-rule="nonzero" fill="rgb(98.431373%, 60.392157%, 60%)" fill-opacity="1" d="M 655.355469 512.382812 L 653.570312 505.097656 L 658.191406 505.4375 L 655.355469 512.382812 "/>
<path fill="none" stroke-width="1.5" stroke-linecap="butt" stroke-linejoin="miter" stroke="rgb(12.156863%, 47.058824%, 70.588235%)" stroke-opacity="1" stroke-miterlimit="10" d="M 333.257812 71.351562 C 317.257812 55.222656 297.800781 46.695312 275.234375 49.074219 "/>
<path fill-rule="nonzero" fill="rgb(12.156863%, 47.058824%, 70.588235%)" fill-opacity="1" d="M 268.140625 49.824219 L 274.992188 46.769531 L 275.480469 51.378906 L 268.140625 49.824219 "/>
<path fill="none" stroke-width="4.5" stroke-linecap="butt" stroke-linejoin="miter" stroke="rgb(70.196078%, 70.196078%, 70.196078%)" stroke-opacity="1" stroke-miterlimit="10" d="M 536.535156 450.589844 C 551.75 461.820312 568.902344 466.554688 587.101562 461.53125 "/>
<path fill-rule="nonzero" fill="rgb(70.196078%, 70.196078%, 70.196078%)" fill-opacity="1" d="M 593.976562 459.632812 L 587.71875 463.765625 L 586.484375 459.296875 L 593.976562 459.632812 "/>
<path fill="none" stroke-width="1.5" stroke-linecap="butt" stroke-linejoin="miter" stroke="rgb(12.156863%, 47.058824%, 70.588235%)" stroke-opacity="1" stroke-miterlimit="10" d="M 536.535156 450.589844 C 555.632812 408.769531 556.847656 366.382812 537.230469 324.820312 "/>
<path fill-rule="nonzero" fill="rgb(12.156863%, 47.058824%, 70.588235%)" fill-opacity="1" d="M 534.183594 318.371094 L 539.324219 323.832031 L 535.132812 325.808594 L 534.183594 318.371094 "/>
<path fill="none" stroke-width="3.5" stroke-linecap="butt" stroke-linejoin="miter" stroke="rgb(70.196078%, 70.196078%, 70.196078%)" stroke-opacity="1" stroke-miterlimit="10" d="M 597.847656 364.769531 C 613.214844 332.730469 615.03125 299.863281 600.214844 267.585938 "/>
<path fill-rule="nonzero" fill="rgb(70.196078%, 70.196078%, 70.196078%)" fill-opacity="1" d="M 597.238281 261.101562 L 602.320312 266.617188 L 598.109375 268.550781 L 597.238281 261.101562 "/>
<path fill="none" stroke-width="3.5" stroke-linecap="butt" stroke-linejoin="miter" stroke="rgb(70.196078%, 70.196078%, 70.196078%)" stroke-opacity="1" stroke-miterlimit="10" d="M 596.273438 458.996094 C 610.84375 431.304688 613.636719 402.386719 601.535156 373.550781 "/>
<path fill-rule="nonzero" fill="rgb(70.196078%, 70.196078%, 70.196078%)" fill-opacity="1" d="M 598.773438 366.972656 L 603.671875 372.652344 L 599.398438 374.445312 L 598.773438 366.972656 "/>
<path fill="none" stroke-width="1.5" stroke-linecap="butt" stroke-linejoin="miter" stroke="rgb(98.431373%, 60.392157%, 60%)" stroke-opacity="1" stroke-miterlimit="10" d="M 596.273438 458.996094 C 596.09375 509.582031 614.164062 552.542969 652.609375 585.398438 "/>
<path fill-rule="nonzero" fill="rgb(98.431373%, 60.392157%, 60%)" fill-opacity="1" d="M 658.03125 590.03125 L 651.105469 587.160156 L 654.117188 583.636719 L 658.03125 590.03125 "/>
<path fill="none" stroke-width="1.5" stroke-linecap="butt" stroke-linejoin="miter" stroke="rgb(98.431373%, 60.392157%, 60%)" stroke-opacity="1" stroke-miterlimit="10" d="M 658.578125 590.5 C 644.496094 587.574219 630.972656 589.589844 620.15625 599.011719 "/>
<path fill-rule="nonzero" fill="rgb(98.431373%, 60.392157%, 60%)" fill-opacity="1" d="M 614.777344 603.695312 L 618.632812 597.261719 L 621.679688 600.757812 L 614.777344 603.695312 "/>
<path fill="none" stroke-width="1.5" stroke-linecap="butt" stroke-linejoin="miter" stroke="rgb(98.431373%, 60.392157%, 60%)" stroke-opacity="1" stroke-miterlimit="10" d="M 614.234375 604.164062 C 639.902344 583.503906 654.636719 556.730469 655.074219 523.804688 "/>
<path fill-rule="nonzero" fill="rgb(98.431373%, 60.392157%, 60%)" fill-opacity="1" d="M 655.167969 516.671875 L 657.390625 523.832031 L 652.757812 523.773438 L 655.167969 516.671875 "/>
<path fill="none" stroke-width="5.5" stroke-linecap="butt" stroke-linejoin="miter" stroke="rgb(70.196078%, 70.196078%, 70.196078%)" stroke-opacity="1" stroke-miterlimit="10" d="M 524.488281 593.640625 C 549.652344 551.230469 555.769531 506.179688 539.648438 459.589844 "/>
<path fill-rule="nonzero" fill="rgb(70.196078%, 70.196078%, 70.196078%)" fill-opacity="1" d="M 537.316406 452.851562 L 541.839844 458.832031 L 537.460938 460.347656 L 537.316406 452.851562 "/>
<path fill="none" stroke-width="1.5" stroke-linecap="butt" stroke-linejoin="miter" stroke="rgb(12.156863%, 47.058824%, 70.588235%)" stroke-opacity="1" stroke-miterlimit="10" d="M 653.878906 103.550781 C 652.125 120.164062 656.128906 135.417969 668.148438 146.96875 "/>
<path fill-rule="nonzero" fill="rgb(12.156863%, 47.058824%, 70.588235%)" fill-opacity="1" d="M 673.292969 151.90625 L 666.542969 148.636719 L 669.753906 145.296875 L 673.292969 151.90625 "/>
<path fill="none" stroke-width="1.5" stroke-linecap="butt" stroke-linejoin="miter" stroke="rgb(12.156863%, 47.058824%, 70.588235%)" stroke-opacity="1" stroke-miterlimit="10" d="M 486.617188 133.011719 C 462.8125 111.414062 434.777344 101.28125 402.980469 105.851562 "/>
<path fill-rule="nonzero" fill="rgb(12.156863%, 47.058824%, 70.588235%)" fill-opacity="1" d="M 395.921875 106.863281 L 402.652344 103.558594 L 403.308594 108.144531 L 395.921875 106.863281 "/>
<path fill="none" stroke-width="1.5" stroke-linecap="butt" stroke-linejoin="miter" stroke="rgb(12.156863%, 47.058824%, 70.588235%)" stroke-opacity="1" stroke-miterlimit="10" d="M 608.355469 173.933594 C 632.523438 159.707031 648.371094 139 652.675781 111.308594 "/>
<path fill-rule="nonzero" fill="rgb(12.156863%, 47.058824%, 70.588235%)" fill-opacity="1" d="M 653.769531 104.261719 L 654.964844 111.664062 L 650.382812 110.953125 L 653.769531 104.261719 "/>
<path fill="none" stroke-width="1.5" stroke-linecap="butt" stroke-linejoin="miter" stroke="rgb(12.156863%, 47.058824%, 70.588235%)" stroke-opacity="1" stroke-miterlimit="10" d="M 608.355469 173.933594 C 576.632812 142.953125 538.554688 127.976562 494.433594 132.253906 "/>
<path fill-rule="nonzero" fill="rgb(12.156863%, 47.058824%, 70.588235%)" fill-opacity="1" d="M 487.332031 132.941406 L 494.207031 129.949219 L 494.65625 134.5625 L 487.332031 132.941406 "/>
<path fill="none" stroke-width="1.5" stroke-linecap="butt" stroke-linejoin="miter" stroke="rgb(12.156863%, 47.058824%, 70.588235%)" stroke-opacity="1" stroke-miterlimit="10" d="M 533.878906 317.71875 C 578.863281 283.664062 604.628906 238.570312 607.875 182.25 "/>
<path fill-rule="nonzero" fill="rgb(12.156863%, 47.058824%, 70.588235%)" fill-opacity="1" d="M 608.285156 175.128906 L 610.191406 182.382812 L 605.5625 182.117188 L 608.285156 175.128906 "/>
<path fill="none" stroke-width="1.5" stroke-linecap="butt" stroke-linejoin="miter" stroke="rgb(12.156863%, 47.058824%, 70.588235%)" stroke-opacity="1" stroke-miterlimit="10" d="M 395.207031 106.96875 C 382.382812 87.242188 364.449219 74.554688 341.066406 72.152344 "/>
<path fill-rule="nonzero" fill="rgb(12.156863%, 47.058824%, 70.588235%)" fill-opacity="1" d="M 333.972656 71.425781 L 341.304688 69.847656 L 340.832031 74.460938 L 333.972656 71.425781 "/>
<path fill="none" stroke-width="5.5" stroke-linecap="butt" stroke-linejoin="miter" stroke="rgb(70.196078%, 70.196078%, 70.196078%)" stroke-opacity="1" stroke-miterlimit="10" d="M 381.5 750 C 378.636719 735.734375 371.40625 723.929688 358.34375 717.625 "/>
<path fill-rule="nonzero" fill="rgb(70.196078%, 70.196078%, 70.196078%)" fill-opacity="1" d="M 351.917969 714.527344 L 359.351562 715.539062 L 357.335938 719.714844 L 351.917969 714.527344 "/>
<path fill="none" stroke-width="5.5" stroke-linecap="butt" stroke-linejoin="miter" stroke="rgb(70.196078%, 70.196078%, 70.196078%)" stroke-opacity="1" stroke-miterlimit="10" d="M 497.933594 675.148438 C 517.902344 655.261719 528.1875 631.140625 525.425781 603.117188 "/>
<path fill-rule="nonzero" fill="rgb(70.196078%, 70.196078%, 70.196078%)" fill-opacity="1" d="M 524.722656 596.019531 L 527.730469 602.890625 L 523.117188 603.34375 L 524.722656 596.019531 "/>
<path fill="none" stroke-width="1.5" stroke-linecap="butt" stroke-linejoin="miter" stroke="rgb(12.156863%, 47.058824%, 70.588235%)" stroke-opacity="1" stroke-miterlimit="10" d="M 673.8125 152.40625 C 651.660156 148.828125 631.167969 153.328125 614.535156 168.347656 "/>
<path fill-rule="nonzero" fill="rgb(12.156863%, 47.058824%, 70.588235%)" fill-opacity="1" d="M 609.242188 173.128906 L 612.984375 166.628906 L 616.089844 170.070312 L 609.242188 173.128906 "/>
<path fill="none" stroke-width="5.5" stroke-linecap="butt" stroke-linejoin="miter" stroke="rgb(70.196078%, 70.196078%, 70.196078%)" stroke-opacity="1" stroke-miterlimit="10" d="M 337.15625 511.875 C 327.621094 481.542969 308.769531 458.84375 279.324219 446.910156 "/>
<path fill-rule="nonzero" fill="rgb(70.196078%, 70.196078%, 70.196078%)" fill-opacity="1" d="M 272.710938 444.230469 L 280.195312 444.761719 L 278.453125 449.058594 L 272.710938 444.230469 "/>
<path fill="none" stroke-width="5.5" stroke-linecap="butt" stroke-linejoin="miter" stroke="rgb(70.196078%, 70.196078%, 70.196078%)" stroke-opacity="1" stroke-miterlimit="10" d="M 438.003906 710.464844 C 460.257812 709.414062 479.285156 700.871094 492.347656 682.855469 "/>
<path fill-rule="nonzero" fill="rgb(70.196078%, 70.196078%, 70.196078%)" fill-opacity="1" d="M 496.535156 677.082031 L 494.222656 684.214844 L 490.472656 681.496094 L 496.535156 677.082031 "/>
<path fill="none" stroke-width="5.5" stroke-linecap="butt" stroke-linejoin="miter" stroke="rgb(70.196078%, 70.196078%, 70.196078%)" stroke-opacity="1" stroke-miterlimit="10" d="M 376.308594 643.011719 C 361.847656 675.976562 361.152344 709.304688 377.242188 741.480469 "/>
<path fill-rule="nonzero" fill="rgb(70.196078%, 70.196078%, 70.196078%)" fill-opacity="1" d="M 380.433594 747.863281 L 375.167969 742.519531 L 379.316406 740.445312 L 380.433594 747.863281 "/>
<path fill="none" stroke-width="5.5" stroke-linecap="butt" stroke-linejoin="miter" stroke="rgb(70.196078%, 70.196078%, 70.196078%)" stroke-opacity="1" stroke-miterlimit="10" d="M 395.378906 537.828125 C 373.890625 566.609375 365.695312 598.847656 374.082031 633.75 "/>
<path fill-rule="nonzero" fill="rgb(70.196078%, 70.196078%, 70.196078%)" fill-opacity="1" d="M 375.75 640.6875 L 371.828125 634.292969 L 376.335938 633.210938 L 375.75 640.6875 "/>
<path fill="none" stroke-width="5.5" stroke-linecap="butt" stroke-linejoin="miter" stroke="rgb(70.196078%, 70.196078%, 70.196078%)" stroke-opacity="1" stroke-miterlimit="10" d="M 316.898438 575.066406 C 345.488281 575.890625 370.417969 566.613281 389.140625 545.023438 "/>
<path fill-rule="nonzero" fill="rgb(70.196078%, 70.196078%, 70.196078%)" fill-opacity="1" d="M 393.8125 539.632812 L 390.890625 546.539062 L 387.390625 543.503906 L 393.8125 539.632812 "/>
<path fill="none" stroke-width="5.5" stroke-linecap="butt" stroke-linejoin="miter" stroke="rgb(70.196078%, 70.196078%, 70.196078%)" stroke-opacity="1" stroke-miterlimit="10" d="M 349.773438 713.492188 C 376.160156 725.804688 403.195312 727.1875 429.421875 714.585938 "/>
<path fill-rule="nonzero" fill="rgb(70.196078%, 70.196078%, 70.196078%)" fill-opacity="1" d="M 435.851562 711.496094 L 430.425781 716.675781 L 428.417969 712.496094 L 435.851562 711.496094 "/>
<path fill="none" stroke-width="5.5" stroke-linecap="butt" stroke-linejoin="miter" stroke="rgb(70.196078%, 70.196078%, 70.196078%)" stroke-opacity="1" stroke-miterlimit="10" d="M 422.589844 591.210938 C 408.546875 554.335938 383.4375 527.859375 346.15625 514.984375 "/>
<path fill-rule="nonzero" fill="rgb(70.196078%, 70.196078%, 70.196078%)" fill-opacity="1" d="M 339.414062 512.65625 L 346.914062 512.792969 L 345.398438 517.175781 L 339.414062 512.65625 "/>
<path fill="none" stroke-width="5.5" stroke-linecap="butt" stroke-linejoin="miter" stroke="rgb(70.196078%, 70.196078%, 70.196078%)" stroke-opacity="1" stroke-miterlimit="10" d="M 739.457031 355.167969 C 729.296875 382.839844 730.226562 410.226562 745.167969 435.609375 "/>
<path fill-rule="nonzero" fill="rgb(70.196078%, 70.196078%, 70.196078%)" fill-opacity="1" d="M 748.789062 441.757812 L 743.171875 436.785156 L 747.167969 434.433594 L 748.789062 441.757812 "/>
<path fill="none" stroke-width="5.5" stroke-linecap="butt" stroke-linejoin="miter" stroke="rgb(70.196078%, 70.196078%, 70.196078%)" stroke-opacity="1" stroke-miterlimit="10" d="M 271.796875 521.414062 C 276.574219 543.375 288.265625 560.859375 308.371094 570.835938 "/>
<path fill-rule="nonzero" fill="rgb(70.196078%, 70.196078%, 70.196078%)" fill-opacity="1" d="M 314.761719 574.007812 L 307.34375 572.914062 L 309.402344 568.761719 L 314.761719 574.007812 "/>
<path fill="none" stroke-width="5.5" stroke-linecap="butt" stroke-linejoin="miter" stroke="rgb(70.196078%, 70.196078%, 70.196078%)" stroke-opacity="1" stroke-miterlimit="10" d="M 325.773438 438.269531 C 297.230469 454.984375 278.632812 479.386719 273.324219 512.015625 "/>
<path fill-rule="nonzero" fill="rgb(70.196078%, 70.196078%, 70.196078%)" fill-opacity="1" d="M 272.179688 519.058594 L 271.039062 511.644531 L 275.613281 512.386719 L 272.179688 519.058594 "/>
<path fill="none" stroke-width="5.5" stroke-linecap="butt" stroke-linejoin="miter" stroke="rgb(70.196078%, 70.196078%, 70.196078%)" stroke-opacity="1" stroke-miterlimit="10" d="M 293.078125 391.726562 C 295.035156 409.269531 302.640625 424.085938 317.660156 433.296875 "/>
<path fill-rule="nonzero" fill="rgb(70.196078%, 70.196078%, 70.196078%)" fill-opacity="1" d="M 323.742188 437.023438 L 316.449219 435.269531 L 318.871094 431.320312 L 323.742188 437.023438 "/>
<path fill="none" stroke-width="5.5" stroke-linecap="butt" stroke-linejoin="miter" stroke="rgb(70.196078%, 70.196078%, 70.196078%)" stroke-opacity="1" stroke-miterlimit="10" d="M 683.402344 249.769531 C 684.664062 290.226562 700.15625 324.285156 731.96875 349.285156 "/>
<path fill-rule="nonzero" fill="rgb(70.196078%, 70.196078%, 70.196078%)" fill-opacity="1" d="M 737.578125 353.691406 L 730.535156 351.105469 L 733.398438 347.460938 L 737.578125 353.691406 "/>
<path fill="none" stroke-width="5.5" stroke-linecap="butt" stroke-linejoin="miter" stroke="rgb(70.196078%, 70.196078%, 70.196078%)" stroke-opacity="1" stroke-miterlimit="10" d="M 84.257812 410.226562 C 105.984375 399.066406 120.980469 381.882812 125.929688 357.988281 "/>
<path fill-rule="nonzero" fill="rgb(70.196078%, 70.196078%, 70.196078%)" fill-opacity="1" d="M 127.378906 351.003906 L 128.199219 358.460938 L 123.660156 357.519531 L 127.378906 351.003906 "/>
<path fill="none" stroke-width="5.5" stroke-linecap="butt" stroke-linejoin="miter" stroke="rgb(70.196078%, 70.196078%, 70.196078%)" stroke-opacity="1" stroke-miterlimit="10" d="M 750 443.816406 C 724.554688 467 710.945312 495.851562 712.546875 530.21875 "/>
<path fill-rule="nonzero" fill="rgb(70.196078%, 70.196078%, 70.196078%)" fill-opacity="1" d="M 712.878906 537.34375 L 710.234375 530.328125 L 714.863281 530.113281 L 712.878906 537.34375 "/>
<path fill="none" stroke-width="5.5" stroke-linecap="butt" stroke-linejoin="miter" stroke="rgb(70.196078%, 70.196078%, 70.196078%)" stroke-opacity="1" stroke-miterlimit="10" d="M 270.496094 443.332031 C 284.324219 432.683594 292.964844 418.660156 293.035156 401.242188 "/>
<path fill-rule="nonzero" fill="rgb(70.196078%, 70.196078%, 70.196078%)" fill-opacity="1" d="M 293.066406 394.109375 L 295.355469 401.253906 L 290.71875 401.234375 L 293.066406 394.109375 "/>
<path fill="none" stroke-width="5.5" stroke-linecap="butt" stroke-linejoin="miter" stroke="rgb(70.196078%, 70.196078%, 70.196078%)" stroke-opacity="1" stroke-miterlimit="10" d="M 486.089844 540 C 459.972656 545.386719 439.269531 559.121094 426.980469 582.761719 "/>
<path fill-rule="nonzero" fill="rgb(70.196078%, 70.196078%, 70.196078%)" fill-opacity="1" d="M 423.691406 589.089844 L 424.925781 581.691406 L 429.039062 583.832031 L 423.691406 589.089844 "/>
<path fill="none" stroke-width="5.5" stroke-linecap="butt" stroke-linejoin="miter" stroke="rgb(70.196078%, 70.196078%, 70.196078%)" stroke-opacity="1" stroke-miterlimit="10" d="M 584.132812 546.855469 C 555.949219 530.132812 525.875 525.714844 495.054688 536.78125 "/>
<path fill-rule="nonzero" fill="rgb(70.196078%, 70.196078%, 70.196078%)" fill-opacity="1" d="M 488.339844 539.191406 L 494.269531 534.597656 L 495.835938 538.960938 L 488.339844 539.191406 "/>
<path fill="none" stroke-width="5.5" stroke-linecap="butt" stroke-linejoin="miter" stroke="rgb(70.196078%, 70.196078%, 70.196078%)" stroke-opacity="1" stroke-miterlimit="10" d="M 536.28125 209.222656 C 575.886719 243.863281 621.957031 258.964844 673.984375 251.179688 "/>
<path fill-rule="nonzero" fill="rgb(70.196078%, 70.196078%, 70.196078%)" fill-opacity="1" d="M 681.035156 250.125 L 674.324219 253.472656 L 673.640625 248.886719 L 681.035156 250.125 "/>
<path fill="none" stroke-width="5.5" stroke-linecap="butt" stroke-linejoin="miter" stroke="rgb(70.196078%, 70.196078%, 70.196078%)" stroke-opacity="1" stroke-miterlimit="10" d="M 447.410156 227.8125 C 476.410156 235.628906 504.105469 232.195312 528.53125 214.753906 "/>
<path fill-rule="nonzero" fill="rgb(70.196078%, 70.196078%, 70.196078%)" fill-opacity="1" d="M 534.335938 210.609375 L 529.878906 216.640625 L 527.183594 212.867188 L 534.335938 210.609375 "/>
<path fill="none" stroke-width="5.5" stroke-linecap="butt" stroke-linejoin="miter" stroke="rgb(70.196078%, 70.196078%, 70.196078%)" stroke-opacity="1" stroke-miterlimit="10" d="M 360.628906 245.578125 C 388.804688 253.339844 415.789062 250.171875 439.636719 233.308594 "/>
<path fill-rule="nonzero" fill="rgb(70.196078%, 70.196078%, 70.196078%)" fill-opacity="1" d="M 445.457031 229.191406 L 440.972656 235.203125 L 438.296875 231.417969 L 445.457031 229.191406 "/>
<path fill="none" stroke-width="5.5" stroke-linecap="butt" stroke-linejoin="miter" stroke="rgb(70.196078%, 70.196078%, 70.196078%)" stroke-opacity="1" stroke-miterlimit="10" d="M 56.234375 475.949219 C 74.03125 461.429688 84.527344 442.6875 84.335938 419.746094 "/>
<path fill-rule="nonzero" fill="rgb(70.196078%, 70.196078%, 70.196078%)" fill-opacity="1" d="M 84.277344 412.613281 L 86.65625 419.726562 L 82.019531 419.765625 L 84.277344 412.613281 "/>
<path fill="none" stroke-width="5.5" stroke-linecap="butt" stroke-linejoin="miter" stroke="rgb(70.196078%, 70.196078%, 70.196078%)" stroke-opacity="1" stroke-miterlimit="10" d="M 268.480469 264.492188 C 298.617188 272.679688 327.394531 269.128906 352.859375 251.082031 "/>
<path fill-rule="nonzero" fill="rgb(70.196078%, 70.196078%, 70.196078%)" fill-opacity="1" d="M 358.679688 246.957031 L 354.199219 252.972656 L 351.519531 249.191406 L 358.679688 246.957031 "/>
<path fill="none" stroke-width="5.5" stroke-linecap="butt" stroke-linejoin="miter" stroke="rgb(70.196078%, 70.196078%, 70.196078%)" stroke-opacity="1" stroke-miterlimit="10" d="M 50 543.824219 C 61.898438 525.59375 66.042969 505.628906 59.222656 484.984375 "/>
<path fill-rule="nonzero" fill="rgb(70.196078%, 70.196078%, 70.196078%)" fill-opacity="1" d="M 56.984375 478.214844 L 61.421875 484.257812 L 57.023438 485.714844 L 56.984375 478.214844 "/>
<path fill="none" stroke-width="5.5" stroke-linecap="butt" stroke-linejoin="miter" stroke="rgb(70.196078%, 70.196078%, 70.196078%)" stroke-opacity="1" stroke-miterlimit="10" d="M 73.730469 601.007812 C 75.691406 581.617188 70.84375 563.949219 56.847656 550.4375 "/>
<path fill-rule="nonzero" fill="rgb(70.196078%, 70.196078%, 70.196078%)" fill-opacity="1" d="M 51.714844 545.480469 L 58.457031 548.769531 L 55.238281 552.105469 L 51.714844 545.480469 "/>
<path fill="none" stroke-width="5.5" stroke-linecap="butt" stroke-linejoin="miter" stroke="rgb(70.196078%, 70.196078%, 70.196078%)" stroke-opacity="1" stroke-miterlimit="10" d="M 712.992188 539.734375 C 672.449219 522.609375 631.808594 522.53125 592.617188 542.527344 "/>
<path fill-rule="nonzero" fill="rgb(70.196078%, 70.196078%, 70.196078%)" fill-opacity="1" d="M 586.261719 545.765625 L 591.5625 540.460938 L 593.667969 544.589844 L 586.261719 545.765625 "/>
<path fill="none" stroke-width="5.5" stroke-linecap="butt" stroke-linejoin="miter" stroke="rgb(70.196078%, 70.196078%, 70.196078%)" stroke-opacity="1" stroke-miterlimit="10" d="M 195.421875 295.578125 C 221.222656 297.503906 244.214844 290.222656 261.949219 271.417969 "/>
<path fill-rule="nonzero" fill="rgb(70.196078%, 70.196078%, 70.196078%)" fill-opacity="1" d="M 266.84375 266.230469 L 263.632812 273.007812 L 260.261719 269.828125 L 266.84375 266.230469 "/>
<path fill="none" stroke-width="5.5" stroke-linecap="butt" stroke-linejoin="miter" stroke="rgb(70.196078%, 70.196078%, 70.196078%)" stroke-opacity="1" stroke-miterlimit="10" d="M 127.863281 348.667969 C 155.589844 343.230469 177.605469 328.863281 190.929688 303.972656 "/>
<path fill-rule="nonzero" fill="rgb(70.196078%, 70.196078%, 70.196078%)" fill-opacity="1" d="M 194.292969 297.683594 L 192.972656 305.066406 L 188.882812 302.878906 L 194.292969 297.683594 "/>
<path fill-rule="nonzero" fill="rgb(14.901961%, 14.901961%, 14.901961%)" fill-opacity="1" stroke-width="1" stroke-linecap="butt" stroke-linejoin="miter" stroke="rgb(14.901961%, 14.901961%, 14.901961%)" stroke-opacity="1" stroke-miterlimit="10" d="M 569.390625 140.40625 L 571.890625 135.40625 L 574.390625 140.40625 Z M 569.390625 140.40625 "/>
<path fill-rule="nonzero" fill="rgb(14.901961%, 14.901961%, 14.901961%)" fill-opacity="1" stroke-width="1" stroke-linecap="butt" stroke-linejoin="miter" stroke="rgb(14.901961%, 14.901961%, 14.901961%)" stroke-opacity="1" stroke-miterlimit="10" d="M 593.742188 261.429688 L 596.242188 256.429688 L 598.742188 261.429688 Z M 593.742188 261.429688 "/>
<path fill-rule="nonzero" fill="rgb(14.901961%, 14.901961%, 14.901961%)" fill-opacity="1" stroke-width="1" stroke-linecap="butt" stroke-linejoin="miter" stroke="rgb(14.901961%, 14.901961%, 14.901961%)" stroke-opacity="1" stroke-miterlimit="10" d="M 634.195312 296.152344 L 635.945312 292.652344 L 637.695312 296.152344 Z M 634.195312 296.152344 "/>
<path fill-rule="nonzero" fill="rgb(14.901961%, 14.901961%, 14.901961%)" fill-opacity="1" stroke-width="1" stroke-linecap="butt" stroke-linejoin="miter" stroke="rgb(14.901961%, 14.901961%, 14.901961%)" stroke-opacity="1" stroke-miterlimit="10" d="M 652.945312 516.769531 L 655.195312 512.269531 L 657.445312 516.769531 Z M 652.945312 516.769531 "/>
<path fill-rule="nonzero" fill="rgb(98.431373%, 60.392157%, 60%)" fill-opacity="1" stroke-width="1" stroke-linecap="butt" stroke-linejoin="miter" stroke="rgb(98.431373%, 60.392157%, 60%)" stroke-opacity="1" stroke-miterlimit="10" d="M 676.824219 474.441406 C 676.824219 475.441406 675.324219 475.441406 675.324219 474.441406 C 675.324219 473.441406 676.824219 473.441406 676.824219 474.441406 "/>
<path fill-rule="nonzero" fill="rgb(12.156863%, 47.058824%, 70.588235%)" fill-opacity="1" stroke-width="1" stroke-linecap="butt" stroke-linejoin="miter" stroke="rgb(12.156863%, 47.058824%, 70.588235%)" stroke-opacity="1" stroke-miterlimit="10" d="M 334.007812 71.351562 C 334.007812 72.351562 332.507812 72.351562 332.507812 71.351562 C 332.507812 70.351562 334.007812 70.351562 334.007812 71.351562 "/>
<path fill-rule="nonzero" fill="rgb(14.901961%, 14.901961%, 14.901961%)" fill-opacity="1" stroke-width="1" stroke-linecap="butt" stroke-linejoin="miter" stroke="rgb(14.901961%, 14.901961%, 14.901961%)" stroke-opacity="1" stroke-miterlimit="10" d="M 264.726562 51.75 L 266.476562 48.25 L 268.226562 51.75 Z M 264.726562 51.75 "/>
<path fill-rule="nonzero" fill="rgb(70.196078%, 70.196078%, 70.196078%)" fill-opacity="1" stroke-width="1" stroke-linecap="butt" stroke-linejoin="miter" stroke="rgb(70.196078%, 70.196078%, 70.196078%)" stroke-opacity="1" stroke-miterlimit="10" d="M 539.035156 450.589844 C 539.035156 453.921875 534.035156 453.921875 534.035156 450.589844 C 534.035156 447.257812 539.035156 447.257812 539.035156 450.589844 "/>
<path fill-rule="nonzero" fill="rgb(70.196078%, 70.196078%, 70.196078%)" fill-opacity="1" stroke-width="1" stroke-linecap="butt" stroke-linejoin="miter" stroke="rgb(70.196078%, 70.196078%, 70.196078%)" stroke-opacity="1" stroke-miterlimit="10" d="M 600.347656 364.769531 C 600.347656 368.101562 595.347656 368.101562 595.347656 364.769531 C 595.347656 361.4375 600.347656 361.4375 600.347656 364.769531 "/>
<path fill-rule="nonzero" fill="rgb(70.196078%, 70.196078%, 70.196078%)" fill-opacity="1" stroke-width="1" stroke-linecap="butt" stroke-linejoin="miter" stroke="rgb(70.196078%, 70.196078%, 70.196078%)" stroke-opacity="1" stroke-miterlimit="10" d="M 598.773438 458.996094 C 598.773438 462.332031 593.773438 462.332031 593.773438 458.996094 C 593.773438 455.664062 598.773438 455.664062 598.773438 458.996094 "/>
<path fill-rule="nonzero" fill="rgb(98.431373%, 60.392157%, 60%)" fill-opacity="1" stroke-width="1" stroke-linecap="butt" stroke-linejoin="miter" stroke="rgb(98.431373%, 60.392157%, 60%)" stroke-opacity="1" stroke-miterlimit="10" d="M 659.328125 590.5 C 659.328125 591.5 657.828125 591.5 657.828125 590.5 C 657.828125 589.5 659.328125 589.5 659.328125 590.5 "/>
<path fill-rule="nonzero" fill="rgb(98.431373%, 60.392157%, 60%)" fill-opacity="1" stroke-width="1" stroke-linecap="butt" stroke-linejoin="miter" stroke="rgb(98.431373%, 60.392157%, 60%)" stroke-opacity="1" stroke-miterlimit="10" d="M 614.984375 604.164062 C 614.984375 605.164062 613.484375 605.164062 613.484375 604.164062 C 613.484375 603.164062 614.984375 603.164062 614.984375 604.164062 "/>
<path fill-rule="nonzero" fill="rgb(70.196078%, 70.196078%, 70.196078%)" fill-opacity="1" stroke-width="1" stroke-linecap="butt" stroke-linejoin="miter" stroke="rgb(70.196078%, 70.196078%, 70.196078%)" stroke-opacity="1" stroke-miterlimit="10" d="M 526.988281 593.640625 C 526.988281 596.972656 521.988281 596.972656 521.988281 593.640625 C 521.988281 590.308594 526.988281 590.308594 526.988281 593.640625 "/>
<path fill-rule="nonzero" fill="rgb(12.156863%, 47.058824%, 70.588235%)" fill-opacity="1" stroke-width="1" stroke-linecap="butt" stroke-linejoin="miter" stroke="rgb(12.156863%, 47.058824%, 70.588235%)" stroke-opacity="1" stroke-miterlimit="10" d="M 654.628906 103.550781 C 654.628906 104.550781 653.128906 104.550781 653.128906 103.550781 C 653.128906 102.550781 654.628906 102.550781 654.628906 103.550781 "/>
<path fill-rule="nonzero" fill="rgb(12.156863%, 47.058824%, 70.588235%)" fill-opacity="1" stroke-width="1" stroke-linecap="butt" stroke-linejoin="miter" stroke="rgb(12.156863%, 47.058824%, 70.588235%)" stroke-opacity="1" stroke-miterlimit="10" d="M 487.367188 133.011719 C 487.367188 134.011719 485.867188 134.011719 485.867188 133.011719 C 485.867188 132.011719 487.367188 132.011719 487.367188 133.011719 "/>
<path fill-rule="nonzero" fill="rgb(12.156863%, 47.058824%, 70.588235%)" fill-opacity="1" stroke-width="1" stroke-linecap="butt" stroke-linejoin="miter" stroke="rgb(12.156863%, 47.058824%, 70.588235%)" stroke-opacity="1" stroke-miterlimit="10" d="M 609.605469 173.933594 C 609.605469 175.597656 607.105469 175.597656 607.105469 173.933594 C 607.105469 172.265625 609.605469 172.265625 609.605469 173.933594 "/>
<path fill-rule="nonzero" fill="rgb(12.156863%, 47.058824%, 70.588235%)" fill-opacity="1" stroke-width="1" stroke-linecap="butt" stroke-linejoin="miter" stroke="rgb(12.156863%, 47.058824%, 70.588235%)" stroke-opacity="1" stroke-miterlimit="10" d="M 534.628906 317.71875 C 534.628906 318.71875 533.128906 318.71875 533.128906 317.71875 C 533.128906 316.71875 534.628906 316.71875 534.628906 317.71875 "/>
<path fill-rule="nonzero" fill="rgb(12.156863%, 47.058824%, 70.588235%)" fill-opacity="1" stroke-width="1" stroke-linecap="butt" stroke-linejoin="miter" stroke="rgb(12.156863%, 47.058824%, 70.588235%)" stroke-opacity="1" stroke-miterlimit="10" d="M 395.957031 106.96875 C 395.957031 107.96875 394.457031 107.96875 394.457031 106.96875 C 394.457031 105.96875 395.957031 105.96875 395.957031 106.96875 "/>
<path fill-rule="nonzero" fill="rgb(70.196078%, 70.196078%, 70.196078%)" fill-opacity="1" stroke-width="1" stroke-linecap="butt" stroke-linejoin="miter" stroke="rgb(70.196078%, 70.196078%, 70.196078%)" stroke-opacity="1" stroke-miterlimit="10" d="M 384 750 C 384 753.332031 379 753.332031 379 750 C 379 746.667969 384 746.667969 384 750 "/>
<path fill-rule="nonzero" fill="rgb(70.196078%, 70.196078%, 70.196078%)" fill-opacity="1" stroke-width="1" stroke-linecap="butt" stroke-linejoin="miter" stroke="rgb(70.196078%, 70.196078%, 70.196078%)" stroke-opacity="1" stroke-miterlimit="10" d="M 500.433594 675.148438 C 500.433594 678.480469 495.433594 678.480469 495.433594 675.148438 C 495.433594 671.816406 500.433594 671.816406 500.433594 675.148438 "/>
<path fill-rule="nonzero" fill="rgb(12.156863%, 47.058824%, 70.588235%)" fill-opacity="1" stroke-width="1" stroke-linecap="butt" stroke-linejoin="miter" stroke="rgb(12.156863%, 47.058824%, 70.588235%)" stroke-opacity="1" stroke-miterlimit="10" d="M 674.5625 152.40625 C 674.5625 153.40625 673.0625 153.40625 673.0625 152.40625 C 673.0625 151.40625 674.5625 151.40625 674.5625 152.40625 "/>
<path fill-rule="nonzero" fill="rgb(70.196078%, 70.196078%, 70.196078%)" fill-opacity="1" stroke-width="1" stroke-linecap="butt" stroke-linejoin="miter" stroke="rgb(70.196078%, 70.196078%, 70.196078%)" stroke-opacity="1" stroke-miterlimit="10" d="M 339.65625 511.875 C 339.65625 515.207031 334.65625 515.207031 334.65625 511.875 C 334.65625 508.539062 339.65625 508.539062 339.65625 511.875 "/>
<path fill-rule="nonzero" fill="rgb(70.196078%, 70.196078%, 70.196078%)" fill-opacity="1" stroke-width="1" stroke-linecap="butt" stroke-linejoin="miter" stroke="rgb(70.196078%, 70.196078%, 70.196078%)" stroke-opacity="1" stroke-miterlimit="10" d="M 440.503906 710.464844 C 440.503906 713.796875 435.503906 713.796875 435.503906 710.464844 C 435.503906 707.128906 440.503906 707.128906 440.503906 710.464844 "/>
<path fill-rule="nonzero" fill="rgb(70.196078%, 70.196078%, 70.196078%)" fill-opacity="1" stroke-width="1" stroke-linecap="butt" stroke-linejoin="miter" stroke="rgb(70.196078%, 70.196078%, 70.196078%)" stroke-opacity="1" stroke-miterlimit="10" d="M 378.808594 643.011719 C 378.808594 646.34375 373.808594 646.34375 373.808594 643.011719 C 373.808594 639.679688 378.808594 639.679688 378.808594 643.011719 "/>
<path fill-rule="nonzero" fill="rgb(70.196078%, 70.196078%, 70.196078%)" fill-opacity="1" stroke-width="1" stroke-linecap="butt" stroke-linejoin="miter" stroke="rgb(70.196078%, 70.196078%, 70.196078%)" stroke-opacity="1" stroke-miterlimit="10" d="M 397.878906 537.828125 C 397.878906 541.160156 392.878906 541.160156 392.878906 537.828125 C 392.878906 534.496094 397.878906 534.496094 397.878906 537.828125 "/>
<path fill-rule="nonzero" fill="rgb(70.196078%, 70.196078%, 70.196078%)" fill-opacity="1" stroke-width="1" stroke-linecap="butt" stroke-linejoin="miter" stroke="rgb(70.196078%, 70.196078%, 70.196078%)" stroke-opacity="1" stroke-miterlimit="10" d="M 319.398438 575.066406 C 319.398438 578.402344 314.398438 578.402344 314.398438 575.066406 C 314.398438 571.734375 319.398438 571.734375 319.398438 575.066406 "/>
<path fill-rule="nonzero" fill="rgb(70.196078%, 70.196078%, 70.196078%)" fill-opacity="1" stroke-width="1" stroke-linecap="butt" stroke-linejoin="miter" stroke="rgb(70.196078%, 70.196078%, 70.196078%)" stroke-opacity="1" stroke-miterlimit="10" d="M 352.273438 713.492188 C 352.273438 716.824219 347.273438 716.824219 347.273438 713.492188 C 347.273438 710.160156 352.273438 710.160156 352.273438 713.492188 "/>
<path fill-rule="nonzero" fill="rgb(70.196078%, 70.196078%, 70.196078%)" fill-opacity="1" stroke-width="1" stroke-linecap="butt" stroke-linejoin="miter" stroke="rgb(70.196078%, 70.196078%, 70.196078%)" stroke-opacity="1" stroke-miterlimit="10" d="M 425.089844 591.210938 C 425.089844 594.542969 420.089844 594.542969 420.089844 591.210938 C 420.089844 587.875 425.089844 587.875 425.089844 591.210938 "/>
<path fill-rule="nonzero" fill="rgb(70.196078%, 70.196078%, 70.196078%)" fill-opacity="1" stroke-width="1" stroke-linecap="butt" stroke-linejoin="miter" stroke="rgb(70.196078%, 70.196078%, 70.196078%)" stroke-opacity="1" stroke-miterlimit="10" d="M 741.957031 355.167969 C 741.957031 358.503906 736.957031 358.503906 736.957031 355.167969 C 736.957031 351.835938 741.957031 351.835938 741.957031 355.167969 "/>
<path fill-rule="nonzero" fill="rgb(70.196078%, 70.196078%, 70.196078%)" fill-opacity="1" stroke-width="1" stroke-linecap="butt" stroke-linejoin="miter" stroke="rgb(70.196078%, 70.196078%, 70.196078%)" stroke-opacity="1" stroke-miterlimit="10" d="M 274.296875 521.414062 C 274.296875 524.75 269.296875 524.75 269.296875 521.414062 C 269.296875 518.082031 274.296875 518.082031 274.296875 521.414062 "/>
<path fill-rule="nonzero" fill="rgb(70.196078%, 70.196078%, 70.196078%)" fill-opacity="1" stroke-width="1" stroke-linecap="butt" stroke-linejoin="miter" stroke="rgb(70.196078%, 70.196078%, 70.196078%)" stroke-opacity="1" stroke-miterlimit="10" d="M 328.273438 438.269531 C 328.273438 441.601562 323.273438 441.601562 323.273438 438.269531 C 323.273438 434.9375 328.273438 434.9375 328.273438 438.269531 "/>
<path fill-rule="nonzero" fill="rgb(70.196078%, 70.196078%, 70.196078%)" fill-opacity="1" stroke-width="1" stroke-linecap="butt" stroke-linejoin="miter" stroke="rgb(70.196078%, 70.196078%, 70.196078%)" stroke-opacity="1" stroke-miterlimit="10" d="M 295.578125 391.726562 C 295.578125 395.058594 290.578125 395.058594 290.578125 391.726562 C 290.578125 388.394531 295.578125 388.394531 295.578125 391.726562 "/>
<path fill-rule="nonzero" fill="rgb(70.196078%, 70.196078%, 70.196078%)" fill-opacity="1" stroke-width="1" stroke-linecap="butt" stroke-linejoin="miter" stroke="rgb(70.196078%, 70.196078%, 70.196078%)" stroke-opacity="1" stroke-miterlimit="10" d="M 685.902344 249.769531 C 685.902344 253.101562 680.902344 253.101562 680.902344 249.769531 C 680.902344 246.4375 685.902344 246.4375 685.902344 249.769531 "/>
<path fill-rule="nonzero" fill="rgb(70.196078%, 70.196078%, 70.196078%)" fill-opacity="1" stroke-width="1" stroke-linecap="butt" stroke-linejoin="miter" stroke="rgb(70.196078%, 70.196078%, 70.196078%)" stroke-opacity="1" stroke-miterlimit="10" d="M 86.757812 410.226562 C 86.757812 413.558594 81.757812 413.558594 81.757812 410.226562 C 81.757812 406.894531 86.757812 406.894531 86.757812 410.226562 "/>
<path fill-rule="nonzero" fill="rgb(70.196078%, 70.196078%, 70.196078%)" fill-opacity="1" stroke-width="1" stroke-linecap="butt" stroke-linejoin="miter" stroke="rgb(70.196078%, 70.196078%, 70.196078%)" stroke-opacity="1" stroke-miterlimit="10" d="M 752.5 443.816406 C 752.5 447.148438 747.5 447.148438 747.5 443.816406 C 747.5 440.480469 752.5 440.480469 752.5 443.816406 "/>
<path fill-rule="nonzero" fill="rgb(70.196078%, 70.196078%, 70.196078%)" fill-opacity="1" stroke-width="1" stroke-linecap="butt" stroke-linejoin="miter" stroke="rgb(70.196078%, 70.196078%, 70.196078%)" stroke-opacity="1" stroke-miterlimit="10" d="M 272.996094 443.332031 C 272.996094 446.667969 267.996094 446.667969 267.996094 443.332031 C 267.996094 440 272.996094 440 272.996094 443.332031 "/>
<path fill-rule="nonzero" fill="rgb(70.196078%, 70.196078%, 70.196078%)" fill-opacity="1" stroke-width="1" stroke-linecap="butt" stroke-linejoin="miter" stroke="rgb(70.196078%, 70.196078%, 70.196078%)" stroke-opacity="1" stroke-miterlimit="10" d="M 488.589844 540 C 488.589844 543.332031 483.589844 543.332031 483.589844 540 C 483.589844 536.664062 488.589844 536.664062 488.589844 540 "/>
<path fill-rule="nonzero" fill="rgb(70.196078%, 70.196078%, 70.196078%)" fill-opacity="1" stroke-width="1" stroke-linecap="butt" stroke-linejoin="miter" stroke="rgb(70.196078%, 70.196078%, 70.196078%)" stroke-opacity="1" stroke-miterlimit="10" d="M 586.632812 546.855469 C 586.632812 550.1875 581.632812 550.1875 581.632812 546.855469 C 581.632812 543.519531 586.632812 543.519531 586.632812 546.855469 "/>
<path fill-rule="nonzero" fill="rgb(70.196078%, 70.196078%, 70.196078%)" fill-opacity="1" stroke-width="1" stroke-linecap="butt" stroke-linejoin="miter" stroke="rgb(70.196078%, 70.196078%, 70.196078%)" stroke-opacity="1" stroke-miterlimit="10" d="M 538.78125 209.222656 C 538.78125 212.554688 533.78125 212.554688 533.78125 209.222656 C 533.78125 205.890625 538.78125 205.890625 538.78125 209.222656 "/>
<path fill-rule="nonzero" fill="rgb(70.196078%, 70.196078%, 70.196078%)" fill-opacity="1" stroke-width="1" stroke-linecap="butt" stroke-linejoin="miter" stroke="rgb(70.196078%, 70.196078%, 70.196078%)" stroke-opacity="1" stroke-miterlimit="10" d="M 449.910156 227.8125 C 449.910156 231.144531 444.910156 231.144531 444.910156 227.8125 C 444.910156 224.480469 449.910156 224.480469 449.910156 227.8125 "/>
<path fill-rule="nonzero" fill="rgb(70.196078%, 70.196078%, 70.196078%)" fill-opacity="1" stroke-width="1" stroke-linecap="butt" stroke-linejoin="miter" stroke="rgb(70.196078%, 70.196078%, 70.196078%)" stroke-opacity="1" stroke-miterlimit="10" d="M 363.128906 245.578125 C 363.128906 248.910156 358.128906 248.910156 358.128906 245.578125 C 358.128906 242.242188 363.128906 242.242188 363.128906 245.578125 "/>
<path fill-rule="nonzero" fill="rgb(70.196078%, 70.196078%, 70.196078%)" fill-opacity="1" stroke-width="1" stroke-linecap="butt" stroke-linejoin="miter" stroke="rgb(70.196078%, 70.196078%, 70.196078%)" stroke-opacity="1" stroke-miterlimit="10" d="M 58.734375 475.949219 C 58.734375 479.28125 53.734375 479.28125 53.734375 475.949219 C 53.734375 472.613281 58.734375 472.613281 58.734375 475.949219 "/>
<path fill-rule="nonzero" fill="rgb(70.196078%, 70.196078%, 70.196078%)" fill-opacity="1" stroke-width="1" stroke-linecap="butt" stroke-linejoin="miter" stroke="rgb(70.196078%, 70.196078%, 70.196078%)" stroke-opacity="1" stroke-miterlimit="10" d="M 270.980469 264.492188 C 270.980469 267.824219 265.980469 267.824219 265.980469 264.492188 C 265.980469 261.160156 270.980469 261.160156 270.980469 264.492188 "/>
<path fill-rule="nonzero" fill="rgb(70.196078%, 70.196078%, 70.196078%)" fill-opacity="1" stroke-width="1" stroke-linecap="butt" stroke-linejoin="miter" stroke="rgb(70.196078%, 70.196078%, 70.196078%)" stroke-opacity="1" stroke-miterlimit="10" d="M 52.5 543.824219 C 52.5 547.160156 47.5 547.160156 47.5 543.824219 C 47.5 540.492188 52.5 540.492188 52.5 543.824219 "/>
<path fill-rule="nonzero" fill="rgb(100%, 84.313725%, 0%)" fill-opacity="1" stroke-width="1" stroke-linecap="butt" stroke-linejoin="miter" stroke="rgb(100%, 84.313725%, 0%)" stroke-opacity="1" stroke-miterlimit="10" d="M 71.230469 598.507812 L 76.230469 598.507812 L 76.230469 603.507812 L 71.230469 603.507812 Z M 71.230469 598.507812 "/>
<path fill-rule="nonzero" fill="rgb(70.196078%, 70.196078%, 70.196078%)" fill-opacity="1" stroke-width="1" stroke-linecap="butt" stroke-linejoin="miter" stroke="rgb(70.196078%, 70.196078%, 70.196078%)" stroke-opacity="1" stroke-miterlimit="10" d="M 715.492188 539.734375 C 715.492188 543.066406 710.492188 543.066406 710.492188 539.734375 C 710.492188 536.398438 715.492188 536.398438 715.492188 539.734375 "/>
<path fill-rule="nonzero" fill="rgb(70.196078%, 70.196078%, 70.196078%)" fill-opacity="1" stroke-width="1" stroke-linecap="butt" stroke-linejoin="miter" stroke="rgb(70.196078%, 70.196078%, 70.196078%)" stroke-opacity="1" stroke-miterlimit="10" d="M 197.921875 295.578125 C 197.921875 298.910156 192.921875 298.910156 192.921875 295.578125 C 192.921875 292.242188 197.921875 292.242188 197.921875 295.578125 "/>
<path fill-rule="nonzero" fill="rgb(70.196078%, 70.196078%, 70.196078%)" fill-opacity="1" stroke-width="1" stroke-linecap="butt" stroke-linejoin="miter" stroke="rgb(70.196078%, 70.196078%, 70.196078%)" stroke-opacity="1" stroke-miterlimit="10" d="M 130.363281 348.667969 C 130.363281 352 125.363281 352 125.363281 348.667969 C 125.363281 345.335938 130.363281 345.335938 130.363281 348.667969 "/>
</svg>
