<?xml version="1.0" encoding="UTF-8"?>
<svg xmlns="http://www.w3.org/2000/svg" xmlns:xlink="http://www.w3.org/1999/xlink" width="800" height="800" viewBox="0 0 800 800">
<rect x="-80" y="-80" width="960" height="960" fill="rgb(100%, 100%, 100%)" fill-opacity="1"/>
<path fill="none" stroke-width="1.5" stroke-linecap="butt" stroke-linejoin="miter" stroke="rgb(99.215686%, 74.901961%, 43.529412%)" stroke-opacity="1" stroke-miterlimit="10" d="M 221.917969 262.679688 C 212.25 292.980469 214.59375 322.410156 231.8125 349.128906 "/>
<path fill-rule="nonzero" fill="rgb(99.215686%, 74.901961%, 43.529412%)" fill-opacity="1" d="M 235.675781 355.125 L 229.863281 350.382812 L 233.761719 347.871094 L 235.675781 355.125 "/>
<path fill="none" stroke-width="1.5" stroke-linecap="butt" stroke-linejoin="miter" stroke="rgb(99.215686%, 74.901961%, 43.529412%)" stroke-opacity="1" stroke-miterlimit="10" d="M 179.929688 151.53125 C 176.015625 191.53125 186.921875 227.054688 215.078125 255.714844 "/>
<path fill-rule="nonzero" fill="rgb(99.215686%, 74.901961%, 43.529412%)" fill-opacity="1" d="M 220.074219 260.804688 L 213.421875 257.339844 L 216.730469 254.089844 L 220.074219 260.804688 "/>
<path fill="none" stroke-width="1.5" stroke-linecap="butt" stroke-linejoin="miter" stroke="rgb(99.215686%, 74.901961%, 43.529412%)" stroke-opacity="1" stroke-miterlimit="10" d="M 237.101562 357.332031 C 236.703125 376.382812 242.78125 393.246094 257.492188 405.304688 "/>
<path fill-rule="nonzero" fill="rgb(99.215686%, 74.901961%, 43.529412%)" fill-opacity="1" d="M 263.007812 409.828125 L 256.023438 407.097656 L 258.960938 403.511719 L 263.007812 409.828125 "/>
<path fill="none" stroke-width="1.5" stroke-linecap="butt" stroke-linejoin="miter" stroke="rgb(99.215686%, 74.901961%, 43.529412%)" stroke-opacity="1" stroke-miterlimit="10" d="M 265.035156 411.488281 C 278.375 421.15625 293.40625 425.292969 309.167969 420.636719 "/>
<path fill-rule="nonzero" fill="rgb(99.215686%, 74.901961%, 43.529412%)" fill-opacity="1" d="M 316.007812 418.617188 L 309.824219 422.859375 L 308.511719 418.414062 L 316.007812 418.617188 "/>
<path fill="none" stroke-width="1.5" stroke-linecap="butt" stroke-linejoin="miter" stroke="rgb(99.215686%, 74.901961%, 43.529412%)" stroke-opacity="1" stroke-miterlimit="10" d="M 331.042969 351.695312 C 353.691406 330.292969 365.671875 303.941406 363.519531 272.875 "/>
<path fill-rule="nonzero" fill="rgb(99.215686%, 74.901961%, 43.529412%)" fill-opacity="1" d="M 363.027344 265.757812 L 365.832031 272.714844 L 361.207031 273.035156 L 363.027344 265.757812 "/>
<path fill="none" stroke-width="1.5" stroke-linecap="butt" stroke-linejoin="miter" stroke="rgb(99.215686%, 74.901961%, 43.529412%)" stroke-opacity="1" stroke-miterlimit="10" d="M 318.519531 417.875 C 331.910156 401.1875 337.90625 382.050781 333.195312 361.210938 "/>
<path fill-rule="nonzero" fill="rgb(99.215686%, 74.901961%, 43.529412%)" fill-opacity="1" d="M 331.621094 354.253906 L 335.457031 360.703125 L 330.933594 361.722656 L 331.621094 354.253906 "/>
<path fill="none" stroke-width="1.5" stroke-linecap="butt" stroke-linejoin="miter" stroke="rgb(12.156863%, 47.058824%, 70.588235%)" stroke-opacity="1" stroke-miterlimit="10" d="M 710.457031 400.425781 C 694.496094 397.109375 679.246094 399.464844 666.917969 410.066406 "/>
<path fill-rule="nonzero" fill="rgb(12.156863%, 47.058824%, 70.588235%)" fill-opacity="1" d="M 661.511719 414.71875 L 665.40625 408.308594 L 668.429688 411.824219 L 661.511719 414.71875 "/>
<path fill="none" stroke-width="1.5" stroke-linecap="butt" stroke-linejoin="miter" stroke="rgb(12.156863%, 47.058824%, 70.588235%)" stroke-opacity="1" stroke-miterlimit="10" d="M 555.941406 350.554688 C 542.640625 335.425781 525.855469 326.691406 505.769531 327.742188 "/>
<path fill-rule="nonzero" fill="rgb(12.156863%, 47.058824%, 70.588235%)" fill-opacity="1" d="M 498.644531 328.117188 L 505.644531 325.429688 L 505.890625 330.058594 L 498.644531 328.117188 "/>
<path fill="none" stroke-width="1.5" stroke-linecap="butt" stroke-linejoin="miter" stroke="rgb(12.156863%, 47.058824%, 70.588235%)" stroke-opacity="1" stroke-miterlimit="10" d="M 610.964844 392.386719 C 601.710938 372.382812 586.796875 358.113281 565.417969 352.878906 "/>
<path fill-rule="nonzero" fill="rgb(12.156863%, 47.058824%, 70.588235%)" fill-opacity="1" d="M 558.488281 351.179688 L 565.96875 350.625 L 564.867188 355.128906 L 558.488281 351.179688 "/>
<path fill="none" stroke-width="1.5" stroke-linecap="butt" stroke-linejoin="miter" stroke="rgb(98.431373%, 60.392157%, 60%)" stroke-opacity="1" stroke-miterlimit="10" d="M 415.21875 419.664062 C 416.585938 393.601562 408.726562 370.574219 389.363281 353.109375 "/>
<path fill-rule="nonzero" fill="rgb(98.431373%, 60.392157%, 60%)" fill-opacity="1" d="M 384.066406 348.332031 L 390.917969 351.386719 L 387.8125 354.828125 L 384.066406 348.332031 "/>
<path fill="none" stroke-width="1.5" stroke-linecap="butt" stroke-linejoin="miter" stroke="rgb(41.568627%, 23.921569%, 60.392157%)" stroke-opacity="1" stroke-miterlimit="10" d="M 457.875 631.457031 C 436.265625 644.039062 421.886719 662.417969 418.097656 687.109375 "/>
<path fill-rule="nonzero" fill="rgb(41.568627%, 23.921569%, 60.392157%)" fill-opacity="1" d="M 417.015625 694.160156 L 415.804688 686.757812 L 420.386719 687.460938 L 417.015625 694.160156 "/>
<path fill="none" stroke-width="1.5" stroke-linecap="butt" stroke-linejoin="miter" stroke="rgb(98.431373%, 60.392157%, 60%)" stroke-opacity="1" stroke-miterlimit="10" d="M 457.875 631.457031 C 470.90625 591.484375 467.75 552.761719 445.511719 517.097656 "/>
<path fill-rule="nonzero" fill="rgb(98.431373%, 60.392157%, 60%)" fill-opacity="1" d="M 441.738281 511.042969 L 447.476562 515.871094 L 443.542969 518.324219 L 441.738281 511.042969 "/>
<path fill="none" stroke-width="1.5" stroke-linecap="butt" stroke-linejoin="miter" stroke="rgb(41.568627%, 23.921569%, 60.392157%)" stroke-opacity="1" stroke-miterlimit="10" d="M 336.863281 675.007812 C 329.699219 660.566406 318.554688 650.128906 302.773438 647.023438 "/>
<path fill-rule="nonzero" fill="rgb(41.568627%, 23.921569%, 60.392157%)" fill-opacity="1" d="M 295.777344 645.644531 L 303.222656 644.75 L 302.328125 649.296875 L 295.777344 645.644531 "/>
<path fill="none" stroke-width="1.5" stroke-linecap="butt" stroke-linejoin="miter" stroke="rgb(12.156863%, 47.058824%, 70.588235%)" stroke-opacity="1" stroke-miterlimit="10" d="M 659.523438 416.425781 C 650.113281 402.761719 637.230469 393.792969 620.703125 392.90625 "/>
<path fill-rule="nonzero" fill="rgb(12.156863%, 47.058824%, 70.588235%)" fill-opacity="1" d="M 613.582031 392.527344 L 620.828125 390.59375 L 620.578125 395.222656 L 613.582031 392.527344 "/>
<path fill="none" stroke-width="1.5" stroke-linecap="butt" stroke-linejoin="miter" stroke="rgb(12.156863%, 47.058824%, 70.588235%)" stroke-opacity="1" stroke-miterlimit="10" d="M 421.367188 299.074219 C 381.21875 282.511719 341.105469 282.761719 302.609375 302.835938 "/>
<path fill-rule="nonzero" fill="rgb(12.156863%, 47.058824%, 70.588235%)" fill-opacity="1" d="M 296.285156 306.132812 L 301.539062 300.78125 L 303.683594 304.890625 L 296.285156 306.132812 "/>
<path fill="none" stroke-width="1.5" stroke-linecap="butt" stroke-linejoin="miter" stroke="rgb(12.156863%, 47.058824%, 70.588235%)" stroke-opacity="1" stroke-miterlimit="10" d="M 750 361.445312 C 733.550781 366.046875 720.546875 375.601562 714.128906 391.390625 "/>
<path fill-rule="nonzero" fill="rgb(12.156863%, 47.058824%, 70.588235%)" fill-opacity="1" d="M 711.441406 397.996094 L 711.980469 390.515625 L 716.273438 392.261719 L 711.441406 397.996094 "/>
<path fill="none" stroke-width="1.5" stroke-linecap="butt" stroke-linejoin="miter" stroke="rgb(98.431373%, 60.392157%, 60%)" stroke-opacity="1" stroke-miterlimit="10" d="M 128.976562 264.894531 C 105.367188 270.003906 86.632812 282.582031 75.8125 304.148438 "/>
<path fill-rule="nonzero" fill="rgb(98.431373%, 60.392157%, 60%)" fill-opacity="1" d="M 72.617188 310.523438 L 73.742188 303.109375 L 77.886719 305.1875 L 72.617188 310.523438 "/>
<path fill="none" stroke-width="1.5" stroke-linecap="butt" stroke-linejoin="miter" stroke="rgb(41.568627%, 23.921569%, 60.392157%)" stroke-opacity="1" stroke-miterlimit="10" d="M 195.265625 652.808594 C 187.390625 669.265625 185.988281 686.398438 194.09375 702.703125 "/>
<path fill-rule="nonzero" fill="rgb(41.568627%, 23.921569%, 60.392157%)" fill-opacity="1" d="M 197.269531 709.089844 L 192.019531 703.734375 L 196.167969 701.671875 L 197.269531 709.089844 "/>
<path fill="none" stroke-width="1.5" stroke-linecap="butt" stroke-linejoin="miter" stroke="rgb(12.156863%, 47.058824%, 70.588235%)" stroke-opacity="1" stroke-miterlimit="10" d="M 496.027344 328.253906 C 478.824219 308.664062 457.144531 297.679688 431.117188 298.691406 "/>
<path fill-rule="nonzero" fill="rgb(12.156863%, 47.058824%, 70.588235%)" fill-opacity="1" d="M 423.992188 298.96875 L 431.027344 296.375 L 431.210938 301.007812 L 423.992188 298.96875 "/>
<path fill="none" stroke-width="1.5" stroke-linecap="butt" stroke-linejoin="miter" stroke="rgb(41.568627%, 23.921569%, 60.392157%)" stroke-opacity="1" stroke-miterlimit="10" d="M 198.4375 711.4375 C 209.808594 731.394531 226.554688 744.855469 249.210938 748.464844 "/>
<path fill-rule="nonzero" fill="rgb(41.568627%, 23.921569%, 60.392157%)" fill-opacity="1" d="M 256.253906 749.585938 L 248.847656 750.753906 L 249.574219 746.175781 L 256.253906 749.585938 "/>
<path fill="none" stroke-width="1.5" stroke-linecap="butt" stroke-linejoin="miter" stroke="rgb(98.431373%, 60.392157%, 60%)" stroke-opacity="1" stroke-miterlimit="10" d="M 71.4375 312.871094 C 55.964844 327.4375 47.417969 345.433594 49.1875 366.582031 "/>
<path fill-rule="nonzero" fill="rgb(98.431373%, 60.392157%, 60%)" fill-opacity="1" d="M 49.78125 373.6875 L 46.878906 366.773438 L 51.496094 366.386719 L 49.78125 373.6875 "/>
<path fill="none" stroke-width="1.5" stroke-linecap="butt" stroke-linejoin="miter" stroke="rgb(98.431373%, 60.392157%, 60%)" stroke-opacity="1" stroke-miterlimit="10" d="M 382.117188 346.570312 C 374.675781 303.070312 352.785156 268.699219 314.71875 246.398438 "/>
<path fill-rule="nonzero" fill="rgb(98.431373%, 60.392157%, 60%)" fill-opacity="1" d="M 308.5625 242.792969 L 315.886719 244.398438 L 313.546875 248.398438 L 308.5625 242.792969 "/>
<path fill="none" stroke-width="1.5" stroke-linecap="butt" stroke-linejoin="miter" stroke="rgb(41.568627%, 23.921569%, 60.392157%)" stroke-opacity="1" stroke-miterlimit="10" d="M 333.1875 745.925781 C 363.167969 723.996094 381.023438 694.609375 383.363281 657.554688 "/>
<path fill-rule="nonzero" fill="rgb(41.568627%, 23.921569%, 60.392157%)" fill-opacity="1" d="M 383.8125 650.4375 L 385.675781 657.703125 L 381.046875 657.410156 L 383.8125 650.4375 "/>
<path fill="none" stroke-width="1.5" stroke-linecap="butt" stroke-linejoin="miter" stroke="rgb(41.568627%, 23.921569%, 60.392157%)" stroke-opacity="1" stroke-miterlimit="10" d="M 383.976562 647.8125 C 401.519531 634.429688 412.234375 616.757812 412.71875 594.726562 "/>
<path fill-rule="nonzero" fill="rgb(41.568627%, 23.921569%, 60.392157%)" fill-opacity="1" d="M 412.875 587.59375 L 415.035156 594.777344 L 410.402344 594.675781 L 412.875 587.59375 "/>
<path fill="none" stroke-width="1.5" stroke-linecap="butt" stroke-linejoin="miter" stroke="rgb(41.568627%, 23.921569%, 60.392157%)" stroke-opacity="1" stroke-miterlimit="10" d="M 293.207031 645.140625 C 280.800781 635.542969 266.605469 631.113281 251.488281 635.125 "/>
<path fill-rule="nonzero" fill="rgb(41.568627%, 23.921569%, 60.392157%)" fill-opacity="1" d="M 244.59375 636.957031 L 250.890625 632.886719 L 252.082031 637.367188 L 244.59375 636.957031 "/>
<path fill="none" stroke-width="1.5" stroke-linecap="butt" stroke-linejoin="miter" stroke="rgb(41.568627%, 23.921569%, 60.392157%)" stroke-opacity="1" stroke-miterlimit="10" d="M 412.933594 584.972656 C 436.597656 589.707031 458.773438 585.65625 477.28125 570.214844 "/>
<path fill-rule="nonzero" fill="rgb(41.568627%, 23.921569%, 60.392157%)" fill-opacity="1" d="M 482.761719 565.644531 L 478.769531 571.996094 L 475.796875 568.433594 L 482.761719 565.644531 "/>
<path fill="none" stroke-width="1.5" stroke-linecap="butt" stroke-linejoin="miter" stroke="rgb(41.568627%, 23.921569%, 60.392157%)" stroke-opacity="1" stroke-miterlimit="10" d="M 484.777344 563.964844 C 496.648438 575.351562 510.957031 581.515625 527.183594 579.042969 "/>
<path fill-rule="nonzero" fill="rgb(41.568627%, 23.921569%, 60.392157%)" fill-opacity="1" d="M 534.234375 577.96875 L 527.53125 581.335938 L 526.835938 576.753906 L 534.234375 577.96875 "/>
<path fill="none" stroke-width="1.5" stroke-linecap="butt" stroke-linejoin="miter" stroke="rgb(98.431373%, 60.392157%, 60%)" stroke-opacity="1" stroke-miterlimit="10" d="M 77.125 432.144531 C 88.75 436.636719 100.71875 436.992188 111.167969 430.300781 "/>
<path fill-rule="nonzero" fill="rgb(98.431373%, 60.392157%, 60%)" fill-opacity="1" d="M 117.175781 426.453125 L 112.417969 432.25 L 109.917969 428.347656 L 117.175781 426.453125 "/>
<path fill="none" stroke-width="1.5" stroke-linecap="butt" stroke-linejoin="miter" stroke="rgb(98.431373%, 60.392157%, 60%)" stroke-opacity="1" stroke-miterlimit="10" d="M 50 376.300781 C 49.15625 395.753906 54.992188 413.105469 69.730469 425.78125 "/>
<path fill-rule="nonzero" fill="rgb(98.431373%, 60.392157%, 60%)" fill-opacity="1" d="M 75.136719 430.433594 L 68.21875 427.539062 L 71.242188 424.023438 L 75.136719 430.433594 "/>
<path fill="none" stroke-width="1.5" stroke-linecap="butt" stroke-linejoin="miter" stroke="rgb(30.196078%, 68.627451%, 29.019608%)" stroke-opacity="1" stroke-miterlimit="10" d="M 113.742188 558.953125 C 128.972656 560.796875 143.136719 557.417969 153.808594 546.453125 "/>
<path fill-rule="nonzero" fill="rgb(30.196078%, 68.627451%, 29.019608%)" fill-opacity="1" d="M 158.78125 541.339844 L 155.46875 548.070312 L 152.144531 544.835938 L 158.78125 541.339844 "/>
<path fill="none" stroke-width="1.5" stroke-linecap="butt" stroke-linejoin="miter" stroke="rgb(30.196078%, 68.627451%, 29.019608%)" stroke-opacity="1" stroke-miterlimit="10" d="M 211.664062 515.457031 C 222.671875 523.945312 235.308594 527.996094 248.652344 524.277344 "/>
<path fill-rule="nonzero" fill="rgb(30.196078%, 68.627451%, 29.019608%)" fill-opacity="1" d="M 255.523438 522.359375 L 249.273438 526.507812 L 248.03125 522.042969 L 255.523438 522.359375 "/>
<path fill="none" stroke-width="1.5" stroke-linecap="butt" stroke-linejoin="miter" stroke="rgb(30.196078%, 68.627451%, 29.019608%)" stroke-opacity="1" stroke-miterlimit="10" d="M 160.609375 539.464844 C 177.976562 540.585938 193.691406 535.769531 205.199219 522.761719 "/>
<path fill-rule="nonzero" fill="rgb(30.196078%, 68.627451%, 29.019608%)" fill-opacity="1" d="M 209.929688 517.421875 L 206.9375 524.296875 L 203.464844 521.226562 L 209.929688 517.421875 "/>
<path fill="none" stroke-width="1.5" stroke-linecap="butt" stroke-linejoin="miter" stroke="rgb(41.568627%, 23.921569%, 60.392157%)" stroke-opacity="1" stroke-miterlimit="10" d="M 416.613281 696.753906 C 396.722656 678.515625 373.195312 669.675781 346.519531 673.589844 "/>
<path fill-rule="nonzero" fill="rgb(41.568627%, 23.921569%, 60.392157%)" fill-opacity="1" d="M 339.460938 674.625 L 346.179688 671.296875 L 346.855469 675.882812 L 339.460938 674.625 "/>
<path fill="none" stroke-width="1.5" stroke-linecap="butt" stroke-linejoin="miter" stroke="rgb(41.568627%, 23.921569%, 60.392157%)" stroke-opacity="1" stroke-miterlimit="10" d="M 242.0625 637.628906 C 227.59375 634.632812 213.699219 636.703125 202.605469 646.394531 "/>
<path fill-rule="nonzero" fill="rgb(41.568627%, 23.921569%, 60.392157%)" fill-opacity="1" d="M 197.234375 651.085938 L 201.082031 644.648438 L 204.132812 648.140625 L 197.234375 651.085938 "/>
<path fill="none" stroke-width="1.5" stroke-linecap="butt" stroke-linejoin="miter" stroke="rgb(41.568627%, 23.921569%, 60.392157%)" stroke-opacity="1" stroke-miterlimit="10" d="M 258.847656 750 C 280.675781 759.945312 303.054688 761.058594 324.46875 750.304688 "/>
<path fill-rule="nonzero" fill="rgb(41.568627%, 23.921569%, 60.392157%)" fill-opacity="1" d="M 330.839844 747.105469 L 325.507812 752.375 L 323.425781 748.234375 L 330.839844 747.105469 "/>
<path fill="none" stroke-width="1.5" stroke-linecap="butt" stroke-linejoin="miter" stroke="rgb(98.431373%, 60.392157%, 60%)" stroke-opacity="1" stroke-miterlimit="10" d="M 244.878906 212.992188 C 201.726562 211.472656 164.429688 225.597656 135.515625 257.644531 "/>
<path fill-rule="nonzero" fill="rgb(98.431373%, 60.392157%, 60%)" fill-opacity="1" d="M 130.738281 262.941406 L 133.792969 256.09375 L 137.234375 259.199219 L 130.738281 262.941406 "/>
<path fill="none" stroke-width="1.5" stroke-linecap="butt" stroke-linejoin="miter" stroke="rgb(98.431373%, 60.392157%, 60%)" stroke-opacity="1" stroke-miterlimit="10" d="M 306.292969 241.464844 C 293.308594 224.304688 276.113281 213.761719 254.628906 213.230469 "/>
<path fill-rule="nonzero" fill="rgb(98.431373%, 60.392157%, 60%)" fill-opacity="1" d="M 247.5 213.054688 L 254.6875 210.914062 L 254.574219 215.546875 L 247.5 213.054688 "/>
<path fill="none" stroke-width="1.5" stroke-linecap="butt" stroke-linejoin="miter" stroke="rgb(98.431373%, 60.392157%, 60%)" stroke-opacity="1" stroke-miterlimit="10" d="M 440.34375 508.8125 C 446.277344 478.769531 440.84375 450.847656 421.414062 427.207031 "/>
<path fill-rule="nonzero" fill="rgb(98.431373%, 60.392157%, 60%)" fill-opacity="1" d="M 416.886719 421.695312 L 423.207031 425.734375 L 419.625 428.675781 L 416.886719 421.695312 "/>
<path fill="none" stroke-width="1.5" stroke-linecap="butt" stroke-linejoin="miter" stroke="rgb(12.156863%, 47.058824%, 70.588235%)" stroke-opacity="1" stroke-miterlimit="10" d="M 293.953125 307.347656 C 262.019531 290.296875 228.652344 287.015625 195.136719 300.660156 "/>
<path fill-rule="nonzero" fill="rgb(12.156863%, 47.058824%, 70.588235%)" fill-opacity="1" d="M 188.53125 303.351562 L 194.261719 298.515625 L 196.011719 302.808594 L 188.53125 303.351562 "/>
<path fill="none" stroke-width="1.5" stroke-linecap="butt" stroke-linejoin="miter" stroke="rgb(12.156863%, 47.058824%, 70.588235%)" stroke-opacity="1" stroke-miterlimit="10" d="M 186.09375 304.339844 C 195.238281 273.742188 192.332031 244.242188 174.554688 217.738281 "/>
<path fill-rule="nonzero" fill="rgb(12.156863%, 47.058824%, 70.588235%)" fill-opacity="1" d="M 170.582031 211.8125 L 176.480469 216.445312 L 172.628906 219.027344 L 170.582031 211.8125 "/>
<path fill="none" stroke-width="1.5" stroke-linecap="butt" stroke-linejoin="miter" stroke="rgb(12.156863%, 47.058824%, 70.588235%)" stroke-opacity="1" stroke-miterlimit="10" d="M 371.1875 88.894531 C 387.855469 84.734375 401.214844 75.496094 408.097656 59.796875 "/>
<path fill-rule="nonzero" fill="rgb(12.156863%, 47.058824%, 70.588235%)" fill-opacity="1" d="M 410.960938 53.265625 L 410.21875 60.726562 L 405.976562 58.867188 L 410.960938 53.265625 "/>
<path fill="none" stroke-width="1.5" stroke-linecap="butt" stroke-linejoin="miter" stroke="rgb(12.156863%, 47.058824%, 70.588235%)" stroke-opacity="1" stroke-miterlimit="10" d="M 306.742188 88.355469 C 324.578125 98.125 343.507812 100.613281 362.207031 92.699219 "/>
<path fill-rule="nonzero" fill="rgb(12.156863%, 47.058824%, 70.588235%)" fill-opacity="1" d="M 368.773438 89.917969 L 363.109375 94.832031 L 361.300781 90.566406 L 368.773438 89.917969 "/>
<path fill="none" stroke-width="1.5" stroke-linecap="butt" stroke-linejoin="miter" stroke="rgb(12.156863%, 47.058824%, 70.588235%)" stroke-opacity="1" stroke-miterlimit="10" d="M 244.226562 131.101562 C 268.507812 128.207031 288.578125 117.316406 301.558594 96.621094 "/>
<path fill-rule="nonzero" fill="rgb(12.156863%, 47.058824%, 70.588235%)" fill-opacity="1" d="M 305.347656 90.578125 L 303.519531 97.855469 L 299.59375 95.390625 L 305.347656 90.578125 "/>
<path fill="none" stroke-width="1.5" stroke-linecap="butt" stroke-linejoin="miter" stroke="rgb(12.156863%, 47.058824%, 70.588235%)" stroke-opacity="1" stroke-miterlimit="10" d="M 169.117188 209.632812 C 203.445312 197.28125 228.4375 174.546875 240.890625 140.277344 "/>
<path fill-rule="nonzero" fill="rgb(12.156863%, 47.058824%, 70.588235%)" fill-opacity="1" d="M 243.328125 133.574219 L 243.070312 141.070312 L 238.714844 139.484375 L 243.328125 133.574219 "/>
<path fill-rule="nonzero" fill="rgb(99.215686%, 74.901961%, 43.529412%)" fill-opacity="1" stroke-width="1" stroke-linecap="butt" stroke-linejoin="miter" stroke="rgb(99.215686%, 74.901961%, 43.529412%)" stroke-opacity="1" stroke-miterlimit="10" d="M 224.667969 262.679688 C 224.667969 266.347656 219.167969 266.347656 219.167969 262.679688 C 219.167969 259.015625 224.667969 259.015625 224.667969 262.679688 "/>
<path fill-rule="nonzero" fill="rgb(100%, 84.313725%, 0%)" fill-opacity="1" stroke-width="1" stroke-linecap="butt" stroke-linejoin="miter" stroke="rgb(100%, 84.313725%, 0%)" stroke-opacity="1" stroke-miterlimit="10" d="M 176.679688 148.28125 L 183.179688 148.28125 L 183.179688 154.78125 L 176.679688 154.78125 Z M 176.679688 148.28125 "/>
<path fill-rule="nonzero" fill="rgb(99.215686%, 74.901961%, 43.529412%)" fill-opacity="1" stroke-width="1" stroke-linecap="butt" stroke-linejoin="miter" stroke="rgb(99.215686%, 74.901961%, 43.529412%)" stroke-opacity="1" stroke-miterlimit="10" d="M 239.851562 357.332031 C 239.851562 361 234.351562 361 234.351562 357.332031 C 234.351562 353.664062 239.851562 353.664062 239.851562 357.332031 "/>
<path fill-rule="nonzero" fill="rgb(99.215686%, 74.901961%, 43.529412%)" fill-opacity="1" stroke-width="1" stroke-linecap="butt" stroke-linejoin="miter" stroke="rgb(99.215686%, 74.901961%, 43.529412%)" stroke-opacity="1" stroke-miterlimit="10" d="M 267.785156 411.488281 C 267.785156 415.15625 262.285156 415.15625 262.285156 411.488281 C 262.285156 407.820312 267.785156 407.820312 267.785156 411.488281 "/>
<path fill-rule="nonzero" fill="rgb(14.901961%, 14.901961%, 14.901961%)" fill-opacity="1" stroke-width="1" stroke-linecap="butt" stroke-linejoin="miter" stroke="rgb(14.901961%, 14.901961%, 14.901961%)" stroke-opacity="1" stroke-miterlimit="10" d="M 359.03125 265.9375 L 362.78125 258.4375 L 366.53125 265.9375 Z M 359.03125 265.9375 "/>
<path fill-rule="nonzero" fill="rgb(99.215686%, 74.901961%, 43.529412%)" fill-opacity="1" stroke-width="1" stroke-linecap="butt" stroke-linejoin="miter" stroke="rgb(99.215686%, 74.901961%, 43.529412%)" stroke-opacity="1" stroke-miterlimit="10" d="M 333.792969 351.695312 C 333.792969 355.363281 328.292969 355.363281 328.292969 351.695312 C 328.292969 348.03125 333.792969 348.03125 333.792969 351.695312 "/>
<path fill-rule="nonzero" fill="rgb(99.215686%, 74.901961%, 43.529412%)" fill-opacity="1" stroke-width="1" stroke-linecap="butt" stroke-linejoin="miter" stroke="rgb(99.215686%, 74.901961%, 43.529412%)" stroke-opacity="1" stroke-miterlimit="10" d="M 321.269531 417.875 C 321.269531 421.539062 315.769531 421.539062 315.769531 417.875 C 315.769531 414.207031 321.269531 414.207031 321.269531 417.875 "/>
<path fill-rule="nonzero" fill="rgb(12.156863%, 47.058824%, 70.588235%)" fill-opacity="1" stroke-width="1" stroke-linecap="butt" stroke-linejoin="miter" stroke="rgb(12.156863%, 47.058824%, 70.588235%)" stroke-opacity="1" stroke-miterlimit="10" d="M 713.207031 400.425781 C 713.207031 404.089844 707.707031 404.089844 707.707031 400.425781 C 707.707031 396.757812 713.207031 396.757812 713.207031 400.425781 "/>
<path fill-rule="nonzero" fill="rgb(12.156863%, 47.058824%, 70.588235%)" fill-opacity="1" stroke-width="1" stroke-linecap="butt" stroke-linejoin="miter" stroke="rgb(12.156863%, 47.058824%, 70.588235%)" stroke-opacity="1" stroke-miterlimit="10" d="M 558.691406 350.554688 C 558.691406 354.222656 553.191406 354.222656 553.191406 350.554688 C 553.191406 346.890625 558.691406 346.890625 558.691406 350.554688 "/>
<path fill-rule="nonzero" fill="rgb(12.156863%, 47.058824%, 70.588235%)" fill-opacity="1" stroke-width="1" stroke-linecap="butt" stroke-linejoin="miter" stroke="rgb(12.156863%, 47.058824%, 70.588235%)" stroke-opacity="1" stroke-miterlimit="10" d="M 613.714844 392.386719 C 613.714844 396.050781 608.214844 396.050781 608.214844 392.386719 C 608.214844 388.71875 613.714844 388.71875 613.714844 392.386719 "/>
<path fill-rule="nonzero" fill="rgb(98.431373%, 60.392157%, 60%)" fill-opacity="1" stroke-width="1" stroke-linecap="butt" stroke-linejoin="miter" stroke="rgb(98.431373%, 60.392157%, 60%)" stroke-opacity="1" stroke-miterlimit="10" d="M 417.96875 419.664062 C 417.96875 423.332031 412.46875 423.332031 412.46875 419.664062 C 412.46875 416 417.96875 416 417.96875 419.664062 "/>
<path fill-rule="nonzero" fill="rgb(100%, 84.313725%, 0%)" fill-opacity="1" stroke-width="1" stroke-linecap="butt" stroke-linejoin="miter" stroke="rgb(100%, 84.313725%, 0%)" stroke-opacity="1" stroke-miterlimit="10" d="M 452.523438 626.105469 L 463.222656 626.105469 L 463.222656 636.804688 L 452.523438 636.804688 Z M 452.523438 626.105469 "/>
<path fill-rule="nonzero" fill="rgb(41.568627%, 23.921569%, 60.392157%)" fill-opacity="1" stroke-width="1" stroke-linecap="butt" stroke-linejoin="miter" stroke="rgb(41.568627%, 23.921569%, 60.392157%)" stroke-opacity="1" stroke-miterlimit="10" d="M 339.613281 675.007812 C 339.613281 678.671875 334.113281 678.671875 334.113281 675.007812 C 334.113281 671.339844 339.613281 671.339844 339.613281 675.007812 "/>
<path fill-rule="nonzero" fill="rgb(12.156863%, 47.058824%, 70.588235%)" fill-opacity="1" stroke-width="1" stroke-linecap="butt" stroke-linejoin="miter" stroke="rgb(12.156863%, 47.058824%, 70.588235%)" stroke-opacity="1" stroke-miterlimit="10" d="M 662.273438 416.425781 C 662.273438 420.09375 656.773438 420.09375 656.773438 416.425781 C 656.773438 412.757812 662.273438 412.757812 662.273438 416.425781 "/>
<path fill-rule="nonzero" fill="rgb(12.156863%, 47.058824%, 70.588235%)" fill-opacity="1" stroke-width="1" stroke-linecap="butt" stroke-linejoin="miter" stroke="rgb(12.156863%, 47.058824%, 70.588235%)" stroke-opacity="1" stroke-miterlimit="10" d="M 424.117188 299.074219 C 424.117188 302.738281 418.617188 302.738281 418.617188 299.074219 C 418.617188 295.40625 424.117188 295.40625 424.117188 299.074219 "/>
<path fill-rule="nonzero" fill="rgb(100%, 84.313725%, 0%)" fill-opacity="1" stroke-width="1" stroke-linecap="butt" stroke-linejoin="miter" stroke="rgb(100%, 84.313725%, 0%)" stroke-opacity="1" stroke-miterlimit="10" d="M 746.75 358.195312 L 753.25 358.195312 L 753.25 364.695312 L 746.75 364.695312 Z M 746.75 358.195312 "/>
<path fill-rule="nonzero" fill="rgb(98.431373%, 60.392157%, 60%)" fill-opacity="1" stroke-width="1" stroke-linecap="butt" stroke-linejoin="miter" stroke="rgb(98.431373%, 60.392157%, 60%)" stroke-opacity="1" stroke-miterlimit="10" d="M 131.726562 264.894531 C 131.726562 268.5625 126.226562 268.5625 126.226562 264.894531 C 126.226562 261.226562 131.726562 261.226562 131.726562 264.894531 "/>
<path fill-rule="nonzero" fill="rgb(41.568627%, 23.921569%, 60.392157%)" fill-opacity="1" stroke-width="1" stroke-linecap="butt" stroke-linejoin="miter" stroke="rgb(41.568627%, 23.921569%, 60.392157%)" stroke-opacity="1" stroke-miterlimit="10" d="M 198.015625 652.808594 C 198.015625 656.476562 192.515625 656.476562 192.515625 652.808594 C 192.515625 649.140625 198.015625 649.140625 198.015625 652.808594 "/>
<path fill-rule="nonzero" fill="rgb(12.156863%, 47.058824%, 70.588235%)" fill-opacity="1" stroke-width="1" stroke-linecap="butt" stroke-linejoin="miter" stroke="rgb(12.156863%, 47.058824%, 70.588235%)" stroke-opacity="1" stroke-miterlimit="10" d="M 498.777344 328.253906 C 498.777344 331.921875 493.277344 331.921875 493.277344 328.253906 C 493.277344 324.585938 498.777344 324.585938 498.777344 328.253906 "/>
<path fill-rule="nonzero" fill="rgb(41.568627%, 23.921569%, 60.392157%)" fill-opacity="1" stroke-width="1" stroke-linecap="butt" stroke-linejoin="miter" stroke="rgb(41.568627%, 23.921569%, 60.392157%)" stroke-opacity="1" stroke-miterlimit="10" d="M 201.1875 711.4375 C 201.1875 715.101562 195.6875 715.101562 195.6875 711.4375 C 195.6875 707.769531 201.1875 707.769531 201.1875 711.4375 "/>
<path fill-rule="nonzero" fill="rgb(98.431373%, 60.392157%, 60%)" fill-opacity="1" stroke-width="1" stroke-linecap="butt" stroke-linejoin="miter" stroke="rgb(98.431373%, 60.392157%, 60%)" stroke-opacity="1" stroke-miterlimit="10" d="M 74.1875 312.871094 C 74.1875 316.535156 68.6875 316.535156 68.6875 312.871094 C 68.6875 309.203125 74.1875 309.203125 74.1875 312.871094 "/>
<path fill-rule="nonzero" fill="rgb(98.431373%, 60.392157%, 60%)" fill-opacity="1" stroke-width="1" stroke-linecap="butt" stroke-linejoin="miter" stroke="rgb(98.431373%, 60.392157%, 60%)" stroke-opacity="1" stroke-miterlimit="10" d="M 384.867188 346.570312 C 384.867188 350.238281 379.367188 350.238281 379.367188 346.570312 C 379.367188 342.90625 384.867188 342.90625 384.867188 346.570312 "/>
<path fill-rule="nonzero" fill="rgb(41.568627%, 23.921569%, 60.392157%)" fill-opacity="1" stroke-width="1" stroke-linecap="butt" stroke-linejoin="miter" stroke="rgb(41.568627%, 23.921569%, 60.392157%)" stroke-opacity="1" stroke-miterlimit="10" d="M 335.9375 745.925781 C 335.9375 749.59375 330.4375 749.59375 330.4375 745.925781 C 330.4375 742.261719 335.9375 742.261719 335.9375 745.925781 "/>
<path fill-rule="nonzero" fill="rgb(41.568627%, 23.921569%, 60.392157%)" fill-opacity="1" stroke-width="1" stroke-linecap="butt" stroke-linejoin="miter" stroke="rgb(41.568627%, 23.921569%, 60.392157%)" stroke-opacity="1" stroke-miterlimit="10" d="M 386.726562 647.8125 C 386.726562 651.480469 381.226562 651.480469 381.226562 647.8125 C 381.226562 644.148438 386.726562 644.148438 386.726562 647.8125 "/>
<path fill-rule="nonzero" fill="rgb(41.568627%, 23.921569%, 60.392157%)" fill-opacity="1" stroke-width="1" stroke-linecap="butt" stroke-linejoin="miter" stroke="rgb(41.568627%, 23.921569%, 60.392157%)" stroke-opacity="1" stroke-miterlimit="10" d="M 295.957031 645.140625 C 295.957031 648.804688 290.457031 648.804688 290.457031 645.140625 C 290.457031 641.472656 295.957031 641.472656 295.957031 645.140625 "/>
<path fill-rule="nonzero" fill="rgb(41.568627%, 23.921569%, 60.392157%)" fill-opacity="1" stroke-width="1" stroke-linecap="butt" stroke-linejoin="miter" stroke="rgb(41.568627%, 23.921569%, 60.392157%)" stroke-opacity="1" stroke-miterlimit="10" d="M 415.683594 584.972656 C 415.683594 588.640625 410.183594 588.640625 410.183594 584.972656 C 410.183594 581.304688 415.683594 581.304688 415.683594 584.972656 "/>
<path fill-rule="nonzero" fill="rgb(41.568627%, 23.921569%, 60.392157%)" fill-opacity="1" stroke-width="1" stroke-linecap="butt" stroke-linejoin="miter" stroke="rgb(41.568627%, 23.921569%, 60.392157%)" stroke-opacity="1" stroke-miterlimit="10" d="M 487.527344 563.964844 C 487.527344 567.632812 482.027344 567.632812 482.027344 563.964844 C 482.027344 560.296875 487.527344 560.296875 487.527344 563.964844 "/>
<path fill-rule="nonzero" fill="rgb(98.431373%, 60.392157%, 60%)" fill-opacity="1" stroke-width="1" stroke-linecap="butt" stroke-linejoin="miter" stroke="rgb(98.431373%, 60.392157%, 60%)" stroke-opacity="1" stroke-miterlimit="10" d="M 79.875 432.144531 C 79.875 435.808594 74.375 435.808594 74.375 432.144531 C 74.375 428.476562 79.875 428.476562 79.875 432.144531 "/>
<path fill-rule="nonzero" fill="rgb(98.431373%, 60.392157%, 60%)" fill-opacity="1" stroke-width="1" stroke-linecap="butt" stroke-linejoin="miter" stroke="rgb(98.431373%, 60.392157%, 60%)" stroke-opacity="1" stroke-miterlimit="10" d="M 52.75 376.300781 C 52.75 379.96875 47.25 379.96875 47.25 376.300781 C 47.25 372.636719 52.75 372.636719 52.75 376.300781 "/>
<path fill-rule="nonzero" fill="rgb(100%, 84.313725%, 0%)" fill-opacity="1" stroke-width="1" stroke-linecap="butt" stroke-linejoin="miter" stroke="rgb(100%, 84.313725%, 0%)" stroke-opacity="1" stroke-miterlimit="10" d="M 110.492188 555.703125 L 116.992188 555.703125 L 116.992188 562.203125 L 110.492188 562.203125 Z M 110.492188 555.703125 "/>
<path fill-rule="nonzero" fill="rgb(14.901961%, 14.901961%, 14.901961%)" fill-opacity="1" stroke-width="1" stroke-linecap="butt" stroke-linejoin="miter" stroke="rgb(14.901961%, 14.901961%, 14.901961%)" stroke-opacity="1" stroke-miterlimit="10" d="M 255.441406 525.085938 L 259.191406 517.585938 L 262.941406 525.085938 Z M 255.441406 525.085938 "/>
<path fill-rule="nonzero" fill="rgb(30.196078%, 68.627451%, 29.019608%)" fill-opacity="1" stroke-width="1" stroke-linecap="butt" stroke-linejoin="miter" stroke="rgb(30.196078%, 68.627451%, 29.019608%)" stroke-opacity="1" stroke-miterlimit="10" d="M 214.414062 515.457031 C 214.414062 519.125 208.914062 519.125 208.914062 515.457031 C 208.914062 511.792969 214.414062 511.792969 214.414062 515.457031 "/>
<path fill-rule="nonzero" fill="rgb(30.196078%, 68.627451%, 29.019608%)" fill-opacity="1" stroke-width="1" stroke-linecap="butt" stroke-linejoin="miter" stroke="rgb(30.196078%, 68.627451%, 29.019608%)" stroke-opacity="1" stroke-miterlimit="10" d="M 163.359375 539.464844 C 163.359375 543.132812 157.859375 543.132812 157.859375 539.464844 C 157.859375 535.796875 163.359375 535.796875 163.359375 539.464844 "/>
<path fill-rule="nonzero" fill="rgb(41.568627%, 23.921569%, 60.392157%)" fill-opacity="1" stroke-width="1" stroke-linecap="butt" stroke-linejoin="miter" stroke="rgb(41.568627%, 23.921569%, 60.392157%)" stroke-opacity="1" stroke-miterlimit="10" d="M 419.363281 696.753906 C 419.363281 700.417969 413.863281 700.417969 413.863281 696.753906 C 413.863281 693.085938 419.363281 693.085938 419.363281 696.753906 "/>
<path fill-rule="nonzero" fill="rgb(41.568627%, 23.921569%, 60.392157%)" fill-opacity="1" stroke-width="1" stroke-linecap="butt" stroke-linejoin="miter" stroke="rgb(41.568627%, 23.921569%, 60.392157%)" stroke-opacity="1" stroke-miterlimit="10" d="M 244.8125 637.628906 C 244.8125 641.296875 239.3125 641.296875 239.3125 637.628906 C 239.3125 633.960938 244.8125 633.960938 244.8125 637.628906 "/>
<path fill-rule="nonzero" fill="rgb(41.568627%, 23.921569%, 60.392157%)" fill-opacity="1" stroke-width="1" stroke-linecap="butt" stroke-linejoin="miter" stroke="rgb(41.568627%, 23.921569%, 60.392157%)" stroke-opacity="1" stroke-miterlimit="10" d="M 261.597656 750 C 261.597656 753.667969 256.097656 753.667969 256.097656 750 C 256.097656 746.332031 261.597656 746.332031 261.597656 750 "/>
<path fill-rule="nonzero" fill="rgb(14.901961%, 14.901961%, 14.901961%)" fill-opacity="1" stroke-width="1" stroke-linecap="butt" stroke-linejoin="miter" stroke="rgb(14.901961%, 14.901961%, 14.901961%)" stroke-opacity="1" stroke-miterlimit="10" d="M 534.007812 581.183594 L 537.757812 573.683594 L 541.507812 581.183594 Z M 534.007812 581.183594 "/>
<path fill-rule="nonzero" fill="rgb(98.431373%, 60.392157%, 60%)" fill-opacity="1" stroke-width="1" stroke-linecap="butt" stroke-linejoin="miter" stroke="rgb(98.431373%, 60.392157%, 60%)" stroke-opacity="1" stroke-miterlimit="10" d="M 247.628906 212.992188 C 247.628906 216.65625 242.128906 216.65625 242.128906 212.992188 C 242.128906 209.324219 247.628906 209.324219 247.628906 212.992188 "/>
<path fill-rule="nonzero" fill="rgb(98.431373%, 60.392157%, 60%)" fill-opacity="1" stroke-width="1" stroke-linecap="butt" stroke-linejoin="miter" stroke="rgb(98.431373%, 60.392157%, 60%)" stroke-opacity="1" stroke-miterlimit="10" d="M 309.042969 241.464844 C 309.042969 245.128906 303.542969 245.128906 303.542969 241.464844 C 303.542969 237.796875 309.042969 237.796875 309.042969 241.464844 "/>
<path fill-rule="nonzero" fill="rgb(14.901961%, 14.901961%, 14.901961%)" fill-opacity="1" stroke-width="1" stroke-linecap="butt" stroke-linejoin="miter" stroke="rgb(14.901961%, 14.901961%, 14.901961%)" stroke-opacity="1" stroke-miterlimit="10" d="M 116.628906 428.152344 L 120.378906 420.652344 L 124.128906 428.152344 Z M 116.628906 428.152344 "/>
<path fill-rule="nonzero" fill="rgb(98.431373%, 60.392157%, 60%)" fill-opacity="1" stroke-width="1" stroke-linecap="butt" stroke-linejoin="miter" stroke="rgb(98.431373%, 60.392157%, 60%)" stroke-opacity="1" stroke-miterlimit="10" d="M 443.09375 508.8125 C 443.09375 512.480469 437.59375 512.480469 437.59375 508.8125 C 437.59375 505.144531 443.09375 505.144531 443.09375 508.8125 "/>
<path fill-rule="nonzero" fill="rgb(12.156863%, 47.058824%, 70.588235%)" fill-opacity="1" stroke-width="1" stroke-linecap="butt" stroke-linejoin="miter" stroke="rgb(12.156863%, 47.058824%, 70.588235%)" stroke-opacity="1" stroke-miterlimit="10" d="M 296.703125 307.347656 C 296.703125 311.015625 291.203125 311.015625 291.203125 307.347656 C 291.203125 303.683594 296.703125 303.683594 296.703125 307.347656 "/>
<path fill-rule="nonzero" fill="rgb(12.156863%, 47.058824%, 70.588235%)" fill-opacity="1" stroke-width="1" stroke-linecap="butt" stroke-linejoin="miter" stroke="rgb(12.156863%, 47.058824%, 70.588235%)" stroke-opacity="1" stroke-miterlimit="10" d="M 188.84375 304.339844 C 188.84375 308.007812 183.34375 308.007812 183.34375 304.339844 C 183.34375 300.675781 188.84375 300.675781 188.84375 304.339844 "/>
<path fill-rule="nonzero" fill="rgb(12.156863%, 47.058824%, 70.588235%)" fill-opacity="1" stroke-width="1" stroke-linecap="butt" stroke-linejoin="miter" stroke="rgb(12.156863%, 47.058824%, 70.588235%)" stroke-opacity="1" stroke-miterlimit="10" d="M 373.9375 88.894531 C 373.9375 92.5625 368.4375 92.5625 368.4375 88.894531 C 368.4375 85.230469 373.9375 85.230469 373.9375 88.894531 "/>
<path fill-rule="nonzero" fill="rgb(14.901961%, 14.901961%, 14.901961%)" fill-opacity="1" stroke-width="1" stroke-linecap="butt" stroke-linejoin="miter" stroke="rgb(14.901961%, 14.901961%, 14.901961%)" stroke-opacity="1" stroke-miterlimit="10" d="M 408.644531 53.75 L 412.394531 46.25 L 416.144531 53.75 Z M 408.644531 53.75 "/>
<path fill-rule="nonzero" fill="rgb(12.156863%, 47.058824%, 70.588235%)" fill-opacity="1" stroke-width="1" stroke-linecap="butt" stroke-linejoin="miter" stroke="rgb(12.156863%, 47.058824%, 70.588235%)" stroke-opacity="1" stroke-miterlimit="10" d="M 309.492188 88.355469 C 309.492188 92.023438 303.992188 92.023438 303.992188 88.355469 C 303.992188 84.691406 309.492188 84.691406 309.492188 88.355469 "/>
<path fill-rule="nonzero" fill="rgb(12.156863%, 47.058824%, 70.588235%)" fill-opacity="1" stroke-width="1" stroke-linecap="butt" stroke-linejoin="miter" stroke="rgb(12.156863%, 47.058824%, 70.588235%)" stroke-opacity="1" stroke-miterlimit="10" d="M 246.976562 131.101562 C 246.976562 134.769531 241.476562 134.769531 241.476562 131.101562 C 241.476562 127.4375 246.976562 127.4375 246.976562 131.101562 "/>
<path fill-rule="nonzero" fill="rgb(12.156863%, 47.058824%, 70.588235%)" fill-opacity="1" stroke-width="1" stroke-linecap="butt" stroke-linejoin="miter" stroke="rgb(12.156863%, 47.058824%, 70.588235%)" stroke-opacity="1" stroke-miterlimit="10" d="M 171.867188 209.632812 C 171.867188 213.296875 166.367188 213.296875 166.367188 209.632812 C 166.367188 205.964844 171.867188 205.964844 171.867188 209.632812 "/>
</svg>
