<?xml version="1.0" encoding="UTF-8"?>
<svg xmlns="http://www.w3.org/2000/svg" xmlns:xlink="http://www.w3.org/1999/xlink" width="800" height="800" viewBox="0 0 800 800">
<rect x="-80" y="-80" width="960" height="960" fill="rgb(100%, 100%, 100%)" fill-opacity="1"/>
<path fill="none" stroke-width="1.5" stroke-linecap="butt" stroke-linejoin="miter" stroke="rgb(98.431373%, 60.392157%, 60%)" stroke-opacity="1" stroke-miterlimit="10" d="M 50 539.960938 C 60.738281 559.554688 76.804688 572.941406 98.78125 576.789062 "/>
<path fill-rule="nonzero" fill="rgb(98.431373%, 60.392157%, 60%)" fill-opacity="1" d="M 105.808594 578.019531 L 98.382812 579.070312 L 99.179688 574.503906 L 105.808594 578.019531 "/>
<path fill="none" stroke-width="1.5" stroke-linecap="butt" stroke-linejoin="miter" stroke="rgb(98.431373%, 60.392157%, 60%)" stroke-opacity="1" stroke-miterlimit="10" d="M 197.132812 508.863281 C 146.234375 496.570312 98.664062 504.515625 56.347656 535.339844 "/>
<path fill-rule="nonzero" fill="rgb(98.431373%, 60.392157%, 60%)" fill-opacity="1" d="M 50.582031 539.539062 L 54.980469 533.464844 L 57.710938 537.210938 L 50.582031 539.539062 "/>
<path fill="none" stroke-width="1.5" stroke-linecap="butt" stroke-linejoin="miter" stroke="rgb(98.431373%, 60.392157%, 60%)" stroke-opacity="1" stroke-miterlimit="10" d="M 385.398438 434.496094 C 314.15625 429.992188 252.453125 452.148438 202.617188 503.242188 "/>
<path fill-rule="nonzero" fill="rgb(98.431373%, 60.392157%, 60%)" fill-opacity="1" d="M 197.636719 508.347656 L 200.957031 501.625 L 204.277344 504.859375 L 197.636719 508.347656 "/>
<path fill="none" stroke-width="1.5" stroke-linecap="butt" stroke-linejoin="miter" stroke="rgb(98.431373%, 60.392157%, 60%)" stroke-opacity="1" stroke-miterlimit="10" d="M 692.65625 598.921875 C 677.199219 618.042969 670.394531 639.964844 675.554688 663.976562 "/>
<path fill-rule="nonzero" fill="rgb(98.431373%, 60.392157%, 60%)" fill-opacity="1" d="M 677.050781 670.953125 L 673.289062 664.464844 L 677.820312 663.492188 L 677.050781 670.953125 "/>
<path fill="none" stroke-width="1.5" stroke-linecap="butt" stroke-linejoin="miter" stroke="rgb(98.431373%, 60.392157%, 60%)" stroke-opacity="1" stroke-miterlimit="10" d="M 611.53125 676.410156 C 648.117188 664.726562 675.175781 641.730469 689.691406 606.191406 "/>
<path fill-rule="nonzero" fill="rgb(98.431373%, 60.392157%, 60%)" fill-opacity="1" d="M 692.386719 599.585938 L 691.835938 607.066406 L 687.542969 605.316406 L 692.386719 599.585938 "/>
<path fill="none" stroke-width="5.5" stroke-linecap="butt" stroke-linejoin="miter" stroke="rgb(70.196078%, 70.196078%, 70.196078%)" stroke-opacity="1" stroke-miterlimit="10" d="M 356.460938 555.675781 C 343.871094 499.320312 312.839844 456.171875 261.789062 429.21875 "/>
<path fill-rule="nonzero" fill="rgb(70.196078%, 70.196078%, 70.196078%)" fill-opacity="1" d="M 255.480469 425.886719 L 262.871094 427.167969 L 260.707031 431.265625 L 255.480469 425.886719 "/>
<path fill="none" stroke-width="3.5" stroke-linecap="butt" stroke-linejoin="miter" stroke="rgb(70.196078%, 70.196078%, 70.196078%)" stroke-opacity="1" stroke-miterlimit="10" d="M 725.941406 407.929688 C 689.863281 423.804688 664.71875 450.195312 653.757812 488.042969 "/>
<path fill-rule="nonzero" fill="rgb(70.196078%, 70.196078%, 70.196078%)" fill-opacity="1" d="M 651.773438 494.894531 L 651.53125 487.398438 L 655.984375 488.6875 L 651.773438 494.894531 "/>
<path fill="none" stroke-width="4.5" stroke-linecap="butt" stroke-linejoin="miter" stroke="rgb(70.196078%, 70.196078%, 70.196078%)" stroke-opacity="1" stroke-miterlimit="10" d="M 525.851562 166.972656 C 573.226562 199.550781 625.105469 210.003906 680.613281 195.0625 "/>
<path fill-rule="nonzero" fill="rgb(70.196078%, 70.196078%, 70.196078%)" fill-opacity="1" d="M 687.503906 193.210938 L 681.21875 197.300781 L 680.011719 192.824219 L 687.503906 193.210938 "/>
<path fill="none" stroke-width="4.5" stroke-linecap="butt" stroke-linejoin="miter" stroke="rgb(70.196078%, 70.196078%, 70.196078%)" stroke-opacity="1" stroke-miterlimit="10" d="M 750 272.355469 C 714.746094 278.664062 686.808594 296.542969 669.125 327.667969 "/>
<path fill-rule="nonzero" fill="rgb(70.196078%, 70.196078%, 70.196078%)" fill-opacity="1" d="M 665.605469 333.871094 L 667.113281 326.523438 L 671.140625 328.8125 L 665.605469 333.871094 "/>
<path fill="none" stroke-width="4.5" stroke-linecap="butt" stroke-linejoin="miter" stroke="rgb(70.196078%, 70.196078%, 70.196078%)" stroke-opacity="1" stroke-miterlimit="10" d="M 689.8125 192.585938 C 695.835938 225.410156 712.578125 251.433594 741.6875 267.710938 "/>
<path fill-rule="nonzero" fill="rgb(70.196078%, 70.196078%, 70.196078%)" fill-opacity="1" d="M 747.914062 271.191406 L 740.558594 269.730469 L 742.820312 265.6875 L 747.914062 271.191406 "/>
<path fill="none" stroke-width="4.5" stroke-linecap="butt" stroke-linejoin="miter" stroke="rgb(70.196078%, 70.196078%, 70.196078%)" stroke-opacity="1" stroke-miterlimit="10" d="M 677.554688 673.285156 C 615.804688 598.644531 536.542969 558.550781 439.703125 556.394531 "/>
<path fill-rule="nonzero" fill="rgb(70.196078%, 70.196078%, 70.196078%)" fill-opacity="1" d="M 432.570312 556.234375 L 439.753906 554.078125 L 439.652344 558.710938 L 432.570312 556.234375 "/>
<path fill="none" stroke-width="1.5" stroke-linecap="butt" stroke-linejoin="miter" stroke="rgb(98.431373%, 60.392157%, 60%)" stroke-opacity="1" stroke-miterlimit="10" d="M 626.832031 750 C 633.34375 725.988281 630.660156 702.945312 616.125 682.777344 "/>
<path fill-rule="nonzero" fill="rgb(98.431373%, 60.392157%, 60%)" fill-opacity="1" d="M 611.953125 676.992188 L 618.003906 681.425781 L 614.242188 684.132812 L 611.953125 676.992188 "/>
<path fill="none" stroke-width="3.5" stroke-linecap="butt" stroke-linejoin="miter" stroke="rgb(70.196078%, 70.196078%, 70.196078%)" stroke-opacity="1" stroke-miterlimit="10" d="M 626.832031 750 C 653.300781 734.921875 670.78125 712.671875 675.9375 682.671875 "/>
<path fill-rule="nonzero" fill="rgb(70.196078%, 70.196078%, 70.196078%)" fill-opacity="1" d="M 677.148438 675.640625 L 678.222656 683.0625 L 673.65625 682.277344 L 677.148438 675.640625 "/>
<path fill="none" stroke-width="3.5" stroke-linecap="butt" stroke-linejoin="miter" stroke="rgb(70.196078%, 70.196078%, 70.196078%)" stroke-opacity="1" stroke-miterlimit="10" d="M 105.609375 454.207031 C 87.777344 492.515625 86.261719 531.523438 104.128906 569.800781 "/>
<path fill-rule="nonzero" fill="rgb(70.196078%, 70.196078%, 70.196078%)" fill-opacity="1" d="M 107.148438 576.261719 L 102.03125 570.78125 L 106.230469 568.820312 L 107.148438 576.261719 "/>
<path fill="none" stroke-width="3.5" stroke-linecap="butt" stroke-linejoin="miter" stroke="rgb(70.196078%, 70.196078%, 70.196078%)" stroke-opacity="1" stroke-miterlimit="10" d="M 167.667969 374.25 C 137.144531 388.859375 116.132812 412.160156 107.921875 444.96875 "/>
<path fill-rule="nonzero" fill="rgb(70.196078%, 70.196078%, 70.196078%)" fill-opacity="1" d="M 106.1875 451.886719 L 105.671875 444.40625 L 110.167969 445.53125 L 106.1875 451.886719 "/>
<path fill="none" stroke-width="3.5" stroke-linecap="butt" stroke-linejoin="miter" stroke="rgb(70.196078%, 70.196078%, 70.196078%)" stroke-opacity="1" stroke-miterlimit="10" d="M 313.203125 384.082031 C 269.636719 359.230469 223.722656 353.804688 176.617188 370.984375 "/>
<path fill-rule="nonzero" fill="rgb(70.196078%, 70.196078%, 70.196078%)" fill-opacity="1" d="M 169.917969 373.429688 L 175.824219 368.808594 L 177.410156 373.164062 L 169.917969 373.429688 "/>
<path fill="none" stroke-width="1.5" stroke-linecap="butt" stroke-linejoin="miter" stroke="rgb(98.431373%, 60.392157%, 60%)" stroke-opacity="1" stroke-miterlimit="10" d="M 313.203125 384.082031 C 347.398438 397.667969 381.464844 397.160156 413.773438 379.585938 "/>
<path fill-rule="nonzero" fill="rgb(98.431373%, 60.392157%, 60%)" fill-opacity="1" d="M 420.039062 376.175781 L 414.878906 381.621094 L 412.664062 377.550781 L 420.039062 376.175781 "/>
<path fill="none" stroke-width="4.5" stroke-linecap="butt" stroke-linejoin="miter" stroke="rgb(70.196078%, 70.196078%, 70.196078%)" stroke-opacity="1" stroke-miterlimit="10" d="M 430.175781 556.183594 C 418.945312 484.15625 383.25 427.503906 321.300781 389.101562 "/>
<path fill-rule="nonzero" fill="rgb(70.196078%, 70.196078%, 70.196078%)" fill-opacity="1" d="M 315.238281 385.34375 L 322.519531 387.132812 L 320.078125 391.070312 L 315.238281 385.34375 "/>
<path fill="none" stroke-width="4.5" stroke-linecap="butt" stroke-linejoin="miter" stroke="rgb(70.196078%, 70.196078%, 70.196078%)" stroke-opacity="1" stroke-miterlimit="10" d="M 537.691406 712.667969 C 558.605469 737.113281 585.164062 750.738281 617.308594 750.167969 "/>
<path fill-rule="nonzero" fill="rgb(70.196078%, 70.196078%, 70.196078%)" fill-opacity="1" d="M 624.441406 750.042969 L 617.351562 752.488281 L 617.269531 747.851562 L 624.441406 750.042969 "/>
<path fill="none" stroke-width="4.5" stroke-linecap="butt" stroke-linejoin="miter" stroke="rgb(70.196078%, 70.196078%, 70.196078%)" stroke-opacity="1" stroke-miterlimit="10" d="M 568.683594 573.992188 C 538.328125 612.175781 526.269531 655.511719 535.824219 703.328125 "/>
<path fill-rule="nonzero" fill="rgb(70.196078%, 70.196078%, 70.196078%)" fill-opacity="1" d="M 537.222656 710.324219 L 533.550781 703.78125 L 538.097656 702.875 L 537.222656 710.324219 "/>
<path fill="none" stroke-width="4.5" stroke-linecap="butt" stroke-linejoin="miter" stroke="rgb(70.196078%, 70.196078%, 70.196078%)" stroke-opacity="1" stroke-miterlimit="10" d="M 651.105469 497.1875 C 630.304688 486.703125 608.613281 484.742188 587.4375 494.386719 "/>
<path fill-rule="nonzero" fill="rgb(70.196078%, 70.196078%, 70.196078%)" fill-opacity="1" d="M 580.945312 497.339844 L 586.476562 492.277344 L 588.398438 496.496094 L 580.945312 497.339844 "/>
<path fill="none" stroke-width="1.5" stroke-linecap="butt" stroke-linejoin="miter" stroke="rgb(98.431373%, 60.392157%, 60%)" stroke-opacity="1" stroke-miterlimit="10" d="M 721.835938 488.214844 C 700.371094 480.199219 678.941406 480.597656 659.285156 492.316406 "/>
<path fill-rule="nonzero" fill="rgb(98.431373%, 60.392157%, 60%)" fill-opacity="1" d="M 653.15625 495.96875 L 658.097656 490.324219 L 660.472656 494.304688 L 653.15625 495.96875 "/>
<path fill="none" stroke-width="4.5" stroke-linecap="butt" stroke-linejoin="miter" stroke="rgb(70.196078%, 70.196078%, 70.196078%)" stroke-opacity="1" stroke-miterlimit="10" d="M 578.773438 498.328125 C 564.558594 518.59375 559.234375 541.074219 566.054688 564.84375 "/>
<path fill-rule="nonzero" fill="rgb(70.196078%, 70.196078%, 70.196078%)" fill-opacity="1" d="M 568.023438 571.699219 L 563.828125 565.480469 L 568.28125 564.203125 L 568.023438 571.699219 "/>
<path fill="none" stroke-width="3.5" stroke-linecap="butt" stroke-linejoin="miter" stroke="rgb(70.196078%, 70.196078%, 70.196078%)" stroke-opacity="1" stroke-miterlimit="10" d="M 421.765625 172.410156 C 453.800781 186.363281 486.167969 186.988281 517.347656 171.261719 "/>
<path fill-rule="nonzero" fill="rgb(70.196078%, 70.196078%, 70.196078%)" fill-opacity="1" d="M 523.714844 168.050781 L 518.390625 173.332031 L 516.304688 169.191406 L 523.714844 168.050781 "/>
<path fill="none" stroke-width="1.5" stroke-linecap="butt" stroke-linejoin="miter" stroke="rgb(98.431373%, 60.392157%, 60%)" stroke-opacity="1" stroke-miterlimit="10" d="M 553.59375 404.992188 C 594.621094 456.691406 648.046875 485.421875 713.988281 487.917969 "/>
<path fill-rule="nonzero" fill="rgb(98.431373%, 60.392157%, 60%)" fill-opacity="1" d="M 721.117188 488.1875 L 713.902344 490.234375 L 714.078125 485.601562 L 721.117188 488.1875 "/>
<path fill="none" stroke-width="1.5" stroke-linecap="butt" stroke-linejoin="miter" stroke="rgb(12.156863%, 47.058824%, 70.588235%)" stroke-opacity="1" stroke-miterlimit="10" d="M 553.59375 404.992188 C 447.738281 409.773438 360.640625 452.6875 294.867188 535.761719 "/>
<path fill-rule="nonzero" fill="rgb(12.156863%, 47.058824%, 70.588235%)" fill-opacity="1" d="M 290.441406 541.355469 L 293.050781 534.324219 L 296.683594 537.199219 L 290.441406 541.355469 "/>
<path fill="none" stroke-width="1.5" stroke-linecap="butt" stroke-linejoin="miter" stroke="rgb(12.156863%, 47.058824%, 70.588235%)" stroke-opacity="1" stroke-miterlimit="10" d="M 561.816406 50 C 572.789062 79.042969 592.433594 100.117188 621.796875 110.132812 "/>
<path fill-rule="nonzero" fill="rgb(12.156863%, 47.058824%, 70.588235%)" fill-opacity="1" d="M 628.546875 112.4375 L 621.046875 112.328125 L 622.542969 107.941406 L 628.546875 112.4375 "/>
<path fill="none" stroke-width="1.5" stroke-linecap="butt" stroke-linejoin="miter" stroke="rgb(98.431373%, 60.392157%, 60%)" stroke-opacity="1" stroke-miterlimit="10" d="M 469.710938 75.101562 C 472.851562 111.160156 488.3125 140.902344 518.027344 161.539062 "/>
<path fill-rule="nonzero" fill="rgb(98.431373%, 60.392157%, 60%)" fill-opacity="1" d="M 523.886719 165.609375 L 516.707031 163.445312 L 519.351562 159.636719 L 523.886719 165.609375 "/>
<path fill="none" stroke-width="1.5" stroke-linecap="butt" stroke-linejoin="miter" stroke="rgb(12.156863%, 47.058824%, 70.588235%)" stroke-opacity="1" stroke-miterlimit="10" d="M 469.710938 75.101562 C 501.410156 81.296875 530.773438 75.429688 555.742188 54.976562 "/>
<path fill-rule="nonzero" fill="rgb(12.156863%, 47.058824%, 70.588235%)" fill-opacity="1" d="M 561.261719 50.457031 L 557.210938 56.769531 L 554.277344 53.183594 L 561.261719 50.457031 "/>
<path fill="none" stroke-width="3.5" stroke-linecap="butt" stroke-linejoin="miter" stroke="rgb(70.196078%, 70.196078%, 70.196078%)" stroke-opacity="1" stroke-miterlimit="10" d="M 356.304688 110.753906 C 366.363281 138.71875 384.816406 159.265625 412.796875 169.21875 "/>
<path fill-rule="nonzero" fill="rgb(70.196078%, 70.196078%, 70.196078%)" fill-opacity="1" d="M 419.515625 171.609375 L 412.019531 171.402344 L 413.570312 167.035156 L 419.515625 171.609375 "/>
<path fill="none" stroke-width="2.5" stroke-linecap="butt" stroke-linejoin="miter" stroke="rgb(70.196078%, 70.196078%, 70.196078%)" stroke-opacity="1" stroke-miterlimit="10" d="M 356.304688 110.753906 C 396.125 116.902344 432.289062 107.960938 462.554688 81.382812 "/>
<path fill-rule="nonzero" fill="rgb(70.196078%, 70.196078%, 70.196078%)" fill-opacity="1" d="M 467.914062 76.679688 L 464.085938 83.125 L 461.027344 79.644531 L 467.914062 76.679688 "/>
<path fill="none" stroke-width="1.5" stroke-linecap="butt" stroke-linejoin="miter" stroke="rgb(12.156863%, 47.058824%, 70.588235%)" stroke-opacity="1" stroke-miterlimit="10" d="M 617.46875 240.535156 C 617.296875 276.246094 629.789062 306.875 657.128906 329.824219 "/>
<path fill-rule="nonzero" fill="rgb(12.156863%, 47.058824%, 70.588235%)" fill-opacity="1" d="M 662.59375 334.410156 L 655.640625 331.601562 L 658.617188 328.050781 L 662.59375 334.410156 "/>
<path fill="none" stroke-width="1.5" stroke-linecap="butt" stroke-linejoin="miter" stroke="rgb(12.156863%, 47.058824%, 70.588235%)" stroke-opacity="1" stroke-miterlimit="10" d="M 629.226562 112.667969 C 606.394531 150.667969 600.601562 191.167969 614.929688 233.105469 "/>
<path fill-rule="nonzero" fill="rgb(12.156863%, 47.058824%, 70.588235%)" fill-opacity="1" d="M 617.234375 239.855469 L 612.738281 233.855469 L 617.121094 232.355469 L 617.234375 239.855469 "/>
<path fill="none" stroke-width="3.5" stroke-linecap="butt" stroke-linejoin="miter" stroke="rgb(70.196078%, 70.196078%, 70.196078%)" stroke-opacity="1" stroke-miterlimit="10" d="M 664.421875 335.949219 C 671.894531 366.503906 689.050781 390.132812 717.367188 403.792969 "/>
<path fill-rule="nonzero" fill="rgb(70.196078%, 70.196078%, 70.196078%)" fill-opacity="1" d="M 723.789062 406.890625 L 716.359375 405.878906 L 718.371094 401.703125 L 723.789062 406.890625 "/>
<path fill="none" stroke-width="2.5" stroke-linecap="butt" stroke-linejoin="miter" stroke="rgb(70.196078%, 70.196078%, 70.196078%)" stroke-opacity="1" stroke-miterlimit="10" d="M 664.421875 335.949219 C 620.089844 340.515625 584 360.269531 558.949219 397.113281 "/>
<path fill-rule="nonzero" fill="rgb(70.196078%, 70.196078%, 70.196078%)" fill-opacity="1" d="M 554.941406 403.011719 L 557.035156 395.808594 L 560.867188 398.417969 L 554.941406 403.011719 "/>
<path fill="none" stroke-width="1.5" stroke-linecap="butt" stroke-linejoin="miter" stroke="rgb(12.156863%, 47.058824%, 70.588235%)" stroke-opacity="1" stroke-miterlimit="10" d="M 285.382812 669.578125 C 301.277344 695.722656 324.121094 712.59375 354.382812 716.960938 "/>
<path fill-rule="nonzero" fill="rgb(12.156863%, 47.058824%, 70.588235%)" fill-opacity="1" d="M 361.445312 717.976562 L 354.054688 719.253906 L 354.714844 714.664062 L 361.445312 717.976562 "/>
<path fill="none" stroke-width="1.5" stroke-linecap="butt" stroke-linejoin="miter" stroke="rgb(12.156863%, 47.058824%, 70.588235%)" stroke-opacity="1" stroke-miterlimit="10" d="M 289.992188 541.917969 C 269.417969 580.910156 265.890625 621.449219 282.4375 662.300781 "/>
<path fill-rule="nonzero" fill="rgb(12.156863%, 47.058824%, 70.588235%)" fill-opacity="1" d="M 285.113281 668.914062 L 280.289062 663.171875 L 284.582031 661.429688 L 285.113281 668.914062 "/>
<path fill="none" stroke-width="5.5" stroke-linecap="butt" stroke-linejoin="miter" stroke="rgb(70.196078%, 70.196078%, 70.196078%)" stroke-opacity="1" stroke-miterlimit="10" d="M 274.378906 181.867188 C 309.710938 172.714844 336.683594 152.363281 352.242188 119.367188 "/>
<path fill-rule="nonzero" fill="rgb(70.196078%, 70.196078%, 70.196078%)" fill-opacity="1" d="M 355.285156 112.917969 L 354.335938 120.359375 L 350.144531 118.378906 L 355.285156 112.917969 "/>
<path fill="none" stroke-width="5.5" stroke-linecap="butt" stroke-linejoin="miter" stroke="rgb(70.196078%, 70.196078%, 70.196078%)" stroke-opacity="1" stroke-miterlimit="10" d="M 247.921875 280.304688 C 270.578125 254.816406 280.992188 224.96875 275.824219 191.28125 "/>
<path fill-rule="nonzero" fill="rgb(70.196078%, 70.196078%, 70.196078%)" fill-opacity="1" d="M 274.742188 184.230469 L 278.117188 190.929688 L 273.535156 191.632812 L 274.742188 184.230469 "/>
<path fill="none" stroke-width="1.5" stroke-linecap="butt" stroke-linejoin="miter" stroke="rgb(12.156863%, 47.058824%, 70.588235%)" stroke-opacity="1" stroke-miterlimit="10" d="M 362.15625 718.082031 C 394.847656 709.640625 419.859375 690.847656 434.238281 660.316406 "/>
<path fill-rule="nonzero" fill="rgb(12.156863%, 47.058824%, 70.588235%)" fill-opacity="1" d="M 437.277344 653.867188 L 436.335938 661.304688 L 432.140625 659.332031 L 437.277344 653.867188 "/>
<path fill="none" stroke-width="1.5" stroke-linecap="butt" stroke-linejoin="miter" stroke="rgb(98.431373%, 60.392157%, 60%)" stroke-opacity="1" stroke-miterlimit="10" d="M 422.140625 375.035156 C 402.488281 386.90625 389.515625 403.988281 386.445312 426.714844 "/>
<path fill-rule="nonzero" fill="rgb(98.431373%, 60.392157%, 60%)" fill-opacity="1" d="M 385.492188 433.785156 L 384.148438 426.40625 L 388.742188 427.023438 L 385.492188 433.785156 "/>
<path fill="none" stroke-width="1.5" stroke-linecap="butt" stroke-linejoin="miter" stroke="rgb(12.156863%, 47.058824%, 70.588235%)" stroke-opacity="1" stroke-miterlimit="10" d="M 480.726562 504.011719 C 481.964844 455.410156 465.558594 413.6875 429.253906 381.367188 "/>
<path fill-rule="nonzero" fill="rgb(12.156863%, 47.058824%, 70.588235%)" fill-opacity="1" d="M 423.925781 376.625 L 430.792969 379.636719 L 427.710938 383.097656 L 423.925781 376.625 "/>
<path fill="none" stroke-width="1.5" stroke-linecap="butt" stroke-linejoin="miter" stroke="rgb(12.156863%, 47.058824%, 70.588235%)" stroke-opacity="1" stroke-miterlimit="10" d="M 437.585938 653.214844 C 473.542969 612.707031 489.367188 565.414062 481.820312 511.789062 "/>
<path fill-rule="nonzero" fill="rgb(12.156863%, 47.058824%, 70.588235%)" fill-opacity="1" d="M 480.828125 504.722656 L 484.117188 511.464844 L 479.523438 512.109375 L 480.828125 504.722656 "/>
<path fill="none" stroke-width="5.5" stroke-linecap="butt" stroke-linejoin="miter" stroke="rgb(70.196078%, 70.196078%, 70.196078%)" stroke-opacity="1" stroke-miterlimit="10" d="M 253.363281 424.769531 C 273.332031 379.277344 273.925781 333.480469 252.109375 288.859375 "/>
<path fill-rule="nonzero" fill="rgb(70.196078%, 70.196078%, 70.196078%)" fill-opacity="1" d="M 248.972656 282.453125 L 254.191406 287.84375 L 250.027344 289.878906 L 248.972656 282.453125 "/>
<path fill-rule="nonzero" fill="rgb(98.431373%, 60.392157%, 60%)" fill-opacity="1" stroke-width="1" stroke-linecap="butt" stroke-linejoin="miter" stroke="rgb(98.431373%, 60.392157%, 60%)" stroke-opacity="1" stroke-miterlimit="10" d="M 50.75 539.960938 C 50.75 540.960938 49.25 540.960938 49.25 539.960938 C 49.25 538.960938 50.75 538.960938 50.75 539.960938 "/>
<path fill-rule="nonzero" fill="rgb(98.431373%, 60.392157%, 60%)" fill-opacity="1" stroke-width="1" stroke-linecap="butt" stroke-linejoin="miter" stroke="rgb(98.431373%, 60.392157%, 60%)" stroke-opacity="1" stroke-miterlimit="10" d="M 197.882812 508.863281 C 197.882812 509.863281 196.382812 509.863281 196.382812 508.863281 C 196.382812 507.863281 197.882812 507.863281 197.882812 508.863281 "/>
<path fill-rule="nonzero" fill="rgb(98.431373%, 60.392157%, 60%)" fill-opacity="1" stroke-width="1" stroke-linecap="butt" stroke-linejoin="miter" stroke="rgb(98.431373%, 60.392157%, 60%)" stroke-opacity="1" stroke-miterlimit="10" d="M 386.148438 434.496094 C 386.148438 435.496094 384.648438 435.496094 384.648438 434.496094 C 384.648438 433.496094 386.148438 433.496094 386.148438 434.496094 "/>
<path fill-rule="nonzero" fill="rgb(98.431373%, 60.392157%, 60%)" fill-opacity="1" stroke-width="1" stroke-linecap="butt" stroke-linejoin="miter" stroke="rgb(98.431373%, 60.392157%, 60%)" stroke-opacity="1" stroke-miterlimit="10" d="M 693.40625 598.921875 C 693.40625 599.921875 691.90625 599.921875 691.90625 598.921875 C 691.90625 597.921875 693.40625 597.921875 693.40625 598.921875 "/>
<path fill-rule="nonzero" fill="rgb(98.431373%, 60.392157%, 60%)" fill-opacity="1" stroke-width="1" stroke-linecap="butt" stroke-linejoin="miter" stroke="rgb(98.431373%, 60.392157%, 60%)" stroke-opacity="1" stroke-miterlimit="10" d="M 612.28125 676.410156 C 612.28125 677.410156 610.78125 677.410156 610.78125 676.410156 C 610.78125 675.410156 612.28125 675.410156 612.28125 676.410156 "/>
<path fill-rule="nonzero" fill="rgb(100%, 84.313725%, 0%)" fill-opacity="1" stroke-width="1" stroke-linecap="butt" stroke-linejoin="miter" stroke="rgb(100%, 84.313725%, 0%)" stroke-opacity="1" stroke-miterlimit="10" d="M 353.960938 553.175781 L 358.960938 553.175781 L 358.960938 558.175781 L 353.960938 558.175781 Z M 353.960938 553.175781 "/>
<path fill-rule="nonzero" fill="rgb(70.196078%, 70.196078%, 70.196078%)" fill-opacity="1" stroke-width="1" stroke-linecap="butt" stroke-linejoin="miter" stroke="rgb(70.196078%, 70.196078%, 70.196078%)" stroke-opacity="1" stroke-miterlimit="10" d="M 728.441406 407.929688 C 728.441406 411.261719 723.441406 411.261719 723.441406 407.929688 C 723.441406 404.59375 728.441406 404.59375 728.441406 407.929688 "/>
<path fill-rule="nonzero" fill="rgb(70.196078%, 70.196078%, 70.196078%)" fill-opacity="1" stroke-width="1" stroke-linecap="butt" stroke-linejoin="miter" stroke="rgb(70.196078%, 70.196078%, 70.196078%)" stroke-opacity="1" stroke-miterlimit="10" d="M 528.351562 166.972656 C 528.351562 170.308594 523.351562 170.308594 523.351562 166.972656 C 523.351562 163.640625 528.351562 163.640625 528.351562 166.972656 "/>
<path fill-rule="nonzero" fill="rgb(70.196078%, 70.196078%, 70.196078%)" fill-opacity="1" stroke-width="1" stroke-linecap="butt" stroke-linejoin="miter" stroke="rgb(70.196078%, 70.196078%, 70.196078%)" stroke-opacity="1" stroke-miterlimit="10" d="M 752.5 272.355469 C 752.5 275.691406 747.5 275.691406 747.5 272.355469 C 747.5 269.023438 752.5 269.023438 752.5 272.355469 "/>
<path fill-rule="nonzero" fill="rgb(70.196078%, 70.196078%, 70.196078%)" fill-opacity="1" stroke-width="1" stroke-linecap="butt" stroke-linejoin="miter" stroke="rgb(70.196078%, 70.196078%, 70.196078%)" stroke-opacity="1" stroke-miterlimit="10" d="M 692.3125 192.585938 C 692.3125 195.921875 687.3125 195.921875 687.3125 192.585938 C 687.3125 189.253906 692.3125 189.253906 692.3125 192.585938 "/>
<path fill-rule="nonzero" fill="rgb(14.901961%, 14.901961%, 14.901961%)" fill-opacity="1" stroke-width="1" stroke-linecap="butt" stroke-linejoin="miter" stroke="rgb(14.901961%, 14.901961%, 14.901961%)" stroke-opacity="1" stroke-miterlimit="10" d="M 105.660156 580.929688 L 108.160156 575.929688 L 110.660156 580.929688 Z M 105.660156 580.929688 "/>
<path fill-rule="nonzero" fill="rgb(70.196078%, 70.196078%, 70.196078%)" fill-opacity="1" stroke-width="1" stroke-linecap="butt" stroke-linejoin="miter" stroke="rgb(70.196078%, 70.196078%, 70.196078%)" stroke-opacity="1" stroke-miterlimit="10" d="M 680.054688 673.285156 C 680.054688 676.617188 675.054688 676.617188 675.054688 673.285156 C 675.054688 669.953125 680.054688 669.953125 680.054688 673.285156 "/>
<path fill-rule="nonzero" fill="rgb(70.196078%, 70.196078%, 70.196078%)" fill-opacity="1" stroke-width="1" stroke-linecap="butt" stroke-linejoin="miter" stroke="rgb(70.196078%, 70.196078%, 70.196078%)" stroke-opacity="1" stroke-miterlimit="10" d="M 629.332031 750 C 629.332031 753.332031 624.332031 753.332031 624.332031 750 C 624.332031 746.667969 629.332031 746.667969 629.332031 750 "/>
<path fill-rule="nonzero" fill="rgb(70.196078%, 70.196078%, 70.196078%)" fill-opacity="1" stroke-width="1" stroke-linecap="butt" stroke-linejoin="miter" stroke="rgb(70.196078%, 70.196078%, 70.196078%)" stroke-opacity="1" stroke-miterlimit="10" d="M 108.109375 454.207031 C 108.109375 457.539062 103.109375 457.539062 103.109375 454.207031 C 103.109375 450.871094 108.109375 450.871094 108.109375 454.207031 "/>
<path fill-rule="nonzero" fill="rgb(70.196078%, 70.196078%, 70.196078%)" fill-opacity="1" stroke-width="1" stroke-linecap="butt" stroke-linejoin="miter" stroke="rgb(70.196078%, 70.196078%, 70.196078%)" stroke-opacity="1" stroke-miterlimit="10" d="M 170.167969 374.25 C 170.167969 377.582031 165.167969 377.582031 165.167969 374.25 C 165.167969 370.917969 170.167969 370.917969 170.167969 374.25 "/>
<path fill-rule="nonzero" fill="rgb(70.196078%, 70.196078%, 70.196078%)" fill-opacity="1" stroke-width="1" stroke-linecap="butt" stroke-linejoin="miter" stroke="rgb(70.196078%, 70.196078%, 70.196078%)" stroke-opacity="1" stroke-miterlimit="10" d="M 315.703125 384.082031 C 315.703125 387.414062 310.703125 387.414062 310.703125 384.082031 C 310.703125 380.75 315.703125 380.75 315.703125 384.082031 "/>
<path fill-rule="nonzero" fill="rgb(70.196078%, 70.196078%, 70.196078%)" fill-opacity="1" stroke-width="1" stroke-linecap="butt" stroke-linejoin="miter" stroke="rgb(70.196078%, 70.196078%, 70.196078%)" stroke-opacity="1" stroke-miterlimit="10" d="M 432.675781 556.183594 C 432.675781 559.515625 427.675781 559.515625 427.675781 556.183594 C 427.675781 552.847656 432.675781 552.847656 432.675781 556.183594 "/>
<path fill-rule="nonzero" fill="rgb(70.196078%, 70.196078%, 70.196078%)" fill-opacity="1" stroke-width="1" stroke-linecap="butt" stroke-linejoin="miter" stroke="rgb(70.196078%, 70.196078%, 70.196078%)" stroke-opacity="1" stroke-miterlimit="10" d="M 540.191406 712.667969 C 540.191406 716.003906 535.191406 716.003906 535.191406 712.667969 C 535.191406 709.335938 540.191406 709.335938 540.191406 712.667969 "/>
<path fill-rule="nonzero" fill="rgb(70.196078%, 70.196078%, 70.196078%)" fill-opacity="1" stroke-width="1" stroke-linecap="butt" stroke-linejoin="miter" stroke="rgb(70.196078%, 70.196078%, 70.196078%)" stroke-opacity="1" stroke-miterlimit="10" d="M 571.183594 573.992188 C 571.183594 577.328125 566.183594 577.328125 566.183594 573.992188 C 566.183594 570.660156 571.183594 570.660156 571.183594 573.992188 "/>
<path fill-rule="nonzero" fill="rgb(70.196078%, 70.196078%, 70.196078%)" fill-opacity="1" stroke-width="1" stroke-linecap="butt" stroke-linejoin="miter" stroke="rgb(70.196078%, 70.196078%, 70.196078%)" stroke-opacity="1" stroke-miterlimit="10" d="M 653.605469 497.1875 C 653.605469 500.523438 648.605469 500.523438 648.605469 497.1875 C 648.605469 493.855469 653.605469 493.855469 653.605469 497.1875 "/>
<path fill-rule="nonzero" fill="rgb(98.431373%, 60.392157%, 60%)" fill-opacity="1" stroke-width="1" stroke-linecap="butt" stroke-linejoin="miter" stroke="rgb(98.431373%, 60.392157%, 60%)" stroke-opacity="1" stroke-miterlimit="10" d="M 722.585938 488.214844 C 722.585938 489.214844 721.085938 489.214844 721.085938 488.214844 C 721.085938 487.214844 722.585938 487.214844 722.585938 488.214844 "/>
<path fill-rule="nonzero" fill="rgb(70.196078%, 70.196078%, 70.196078%)" fill-opacity="1" stroke-width="1" stroke-linecap="butt" stroke-linejoin="miter" stroke="rgb(70.196078%, 70.196078%, 70.196078%)" stroke-opacity="1" stroke-miterlimit="10" d="M 581.273438 498.328125 C 581.273438 501.664062 576.273438 501.664062 576.273438 498.328125 C 576.273438 494.996094 581.273438 494.996094 581.273438 498.328125 "/>
<path fill-rule="nonzero" fill="rgb(70.196078%, 70.196078%, 70.196078%)" fill-opacity="1" stroke-width="1" stroke-linecap="butt" stroke-linejoin="miter" stroke="rgb(70.196078%, 70.196078%, 70.196078%)" stroke-opacity="1" stroke-miterlimit="10" d="M 424.265625 172.410156 C 424.265625 175.742188 419.265625 175.742188 419.265625 172.410156 C 419.265625 169.078125 424.265625 169.078125 424.265625 172.410156 "/>
<path fill-rule="nonzero" fill="rgb(70.196078%, 70.196078%, 70.196078%)" fill-opacity="1" stroke-width="1" stroke-linecap="butt" stroke-linejoin="miter" stroke="rgb(70.196078%, 70.196078%, 70.196078%)" stroke-opacity="1" stroke-miterlimit="10" d="M 556.09375 404.992188 C 556.09375 408.324219 551.09375 408.324219 551.09375 404.992188 C 551.09375 401.65625 556.09375 401.65625 556.09375 404.992188 "/>
<path fill-rule="nonzero" fill="rgb(12.156863%, 47.058824%, 70.588235%)" fill-opacity="1" stroke-width="1" stroke-linecap="butt" stroke-linejoin="miter" stroke="rgb(12.156863%, 47.058824%, 70.588235%)" stroke-opacity="1" stroke-miterlimit="10" d="M 562.566406 50 C 562.566406 51 561.066406 51 561.066406 50 C 561.066406 49 562.566406 49 562.566406 50 "/>
<path fill-rule="nonzero" fill="rgb(70.196078%, 70.196078%, 70.196078%)" fill-opacity="1" stroke-width="1" stroke-linecap="butt" stroke-linejoin="miter" stroke="rgb(70.196078%, 70.196078%, 70.196078%)" stroke-opacity="1" stroke-miterlimit="10" d="M 472.210938 75.101562 C 472.210938 78.433594 467.210938 78.433594 467.210938 75.101562 C 467.210938 71.765625 472.210938 71.765625 472.210938 75.101562 "/>
<path fill-rule="nonzero" fill="rgb(70.196078%, 70.196078%, 70.196078%)" fill-opacity="1" stroke-width="1" stroke-linecap="butt" stroke-linejoin="miter" stroke="rgb(70.196078%, 70.196078%, 70.196078%)" stroke-opacity="1" stroke-miterlimit="10" d="M 358.804688 110.753906 C 358.804688 114.089844 353.804688 114.089844 353.804688 110.753906 C 353.804688 107.421875 358.804688 107.421875 358.804688 110.753906 "/>
<path fill-rule="nonzero" fill="rgb(12.156863%, 47.058824%, 70.588235%)" fill-opacity="1" stroke-width="1" stroke-linecap="butt" stroke-linejoin="miter" stroke="rgb(12.156863%, 47.058824%, 70.588235%)" stroke-opacity="1" stroke-miterlimit="10" d="M 618.21875 240.535156 C 618.21875 241.535156 616.71875 241.535156 616.71875 240.535156 C 616.71875 239.535156 618.21875 239.535156 618.21875 240.535156 "/>
<path fill-rule="nonzero" fill="rgb(12.156863%, 47.058824%, 70.588235%)" fill-opacity="1" stroke-width="1" stroke-linecap="butt" stroke-linejoin="miter" stroke="rgb(12.156863%, 47.058824%, 70.588235%)" stroke-opacity="1" stroke-miterlimit="10" d="M 629.976562 112.667969 C 629.976562 113.667969 628.476562 113.667969 628.476562 112.667969 C 628.476562 111.667969 629.976562 111.667969 629.976562 112.667969 "/>
<path fill-rule="nonzero" fill="rgb(70.196078%, 70.196078%, 70.196078%)" fill-opacity="1" stroke-width="1" stroke-linecap="butt" stroke-linejoin="miter" stroke="rgb(70.196078%, 70.196078%, 70.196078%)" stroke-opacity="1" stroke-miterlimit="10" d="M 666.921875 335.949219 C 666.921875 339.28125 661.921875 339.28125 661.921875 335.949219 C 661.921875 332.613281 666.921875 332.613281 666.921875 335.949219 "/>
<path fill-rule="nonzero" fill="rgb(12.156863%, 47.058824%, 70.588235%)" fill-opacity="1" stroke-width="1" stroke-linecap="butt" stroke-linejoin="miter" stroke="rgb(12.156863%, 47.058824%, 70.588235%)" stroke-opacity="1" stroke-miterlimit="10" d="M 286.132812 669.578125 C 286.132812 670.578125 284.632812 670.578125 284.632812 669.578125 C 284.632812 668.578125 286.132812 668.578125 286.132812 669.578125 "/>
<path fill-rule="nonzero" fill="rgb(12.156863%, 47.058824%, 70.588235%)" fill-opacity="1" stroke-width="1" stroke-linecap="butt" stroke-linejoin="miter" stroke="rgb(12.156863%, 47.058824%, 70.588235%)" stroke-opacity="1" stroke-miterlimit="10" d="M 290.742188 541.917969 C 290.742188 542.917969 289.242188 542.917969 289.242188 541.917969 C 289.242188 540.917969 290.742188 540.917969 290.742188 541.917969 "/>
<path fill-rule="nonzero" fill="rgb(70.196078%, 70.196078%, 70.196078%)" fill-opacity="1" stroke-width="1" stroke-linecap="butt" stroke-linejoin="miter" stroke="rgb(70.196078%, 70.196078%, 70.196078%)" stroke-opacity="1" stroke-miterlimit="10" d="M 276.878906 181.867188 C 276.878906 185.203125 271.878906 185.203125 271.878906 181.867188 C 271.878906 178.535156 276.878906 178.535156 276.878906 181.867188 "/>
<path fill-rule="nonzero" fill="rgb(70.196078%, 70.196078%, 70.196078%)" fill-opacity="1" stroke-width="1" stroke-linecap="butt" stroke-linejoin="miter" stroke="rgb(70.196078%, 70.196078%, 70.196078%)" stroke-opacity="1" stroke-miterlimit="10" d="M 250.421875 280.304688 C 250.421875 283.636719 245.421875 283.636719 245.421875 280.304688 C 245.421875 276.96875 250.421875 276.96875 250.421875 280.304688 "/>
<path fill-rule="nonzero" fill="rgb(12.156863%, 47.058824%, 70.588235%)" fill-opacity="1" stroke-width="1" stroke-linecap="butt" stroke-linejoin="miter" stroke="rgb(12.156863%, 47.058824%, 70.588235%)" stroke-opacity="1" stroke-miterlimit="10" d="M 362.90625 718.082031 C 362.90625 719.082031 361.40625 719.082031 361.40625 718.082031 C 361.40625 717.082031 362.90625 717.082031 362.90625 718.082031 "/>
<path fill-rule="nonzero" fill="rgb(14.901961%, 14.901961%, 14.901961%)" fill-opacity="1" stroke-width="1" stroke-linecap="butt" stroke-linejoin="miter" stroke="rgb(14.901961%, 14.901961%, 14.901961%)" stroke-opacity="1" stroke-miterlimit="10" d="M 419.640625 377.535156 L 422.140625 372.535156 L 424.640625 377.535156 Z M 419.640625 377.535156 "/>
<path fill-rule="nonzero" fill="rgb(12.156863%, 47.058824%, 70.588235%)" fill-opacity="1" stroke-width="1" stroke-linecap="butt" stroke-linejoin="miter" stroke="rgb(12.156863%, 47.058824%, 70.588235%)" stroke-opacity="1" stroke-miterlimit="10" d="M 481.476562 504.011719 C 481.476562 505.011719 479.976562 505.011719 479.976562 504.011719 C 479.976562 503.011719 481.476562 503.011719 481.476562 504.011719 "/>
<path fill-rule="nonzero" fill="rgb(12.156863%, 47.058824%, 70.588235%)" fill-opacity="1" stroke-width="1" stroke-linecap="butt" stroke-linejoin="miter" stroke="rgb(12.156863%, 47.058824%, 70.588235%)" stroke-opacity="1" stroke-miterlimit="10" d="M 438.335938 653.214844 C 438.335938 654.214844 436.835938 654.214844 436.835938 653.214844 C 436.835938 652.214844 438.335938 652.214844 438.335938 653.214844 "/>
<path fill-rule="nonzero" fill="rgb(70.196078%, 70.196078%, 70.196078%)" fill-opacity="1" stroke-width="1" stroke-linecap="butt" stroke-linejoin="miter" stroke="rgb(70.196078%, 70.196078%, 70.196078%)" stroke-opacity="1" stroke-miterlimit="10" d="M 255.863281 424.769531 C 255.863281 428.105469 250.863281 428.105469 250.863281 424.769531 C 250.863281 421.4375 255.863281 421.4375 255.863281 424.769531 "/>
</svg>
