<?xml version="1.0" encoding="UTF-8"?>
<svg xmlns="http://www.w3.org/2000/svg" xmlns:xlink="http://www.w3.org/1999/xlink" width="800" height="800" viewBox="0 0 800 800">
<rect x="-80" y="-80" width="960" height="960" fill="rgb(100%, 100%, 100%)" fill-opacity="1"/>
<path fill="none" stroke-width="5.5" stroke-linecap="butt" stroke-linejoin="miter" stroke="rgb(70.196078%, 70.196078%, 70.196078%)" stroke-opacity="1" stroke-miterlimit="10" d="M 533.472656 160.5625 C 508.1875 174.105469 491.121094 194.613281 485.597656 222.734375 "/>
<path fill-rule="nonzero" fill="rgb(70.196078%, 70.196078%, 70.196078%)" fill-opacity="1" d="M 484.222656 229.734375 L 483.324219 222.289062 L 487.871094 223.179688 L 484.222656 229.734375 "/>
<path fill="none" stroke-width="5.5" stroke-linecap="butt" stroke-linejoin="miter" stroke="rgb(70.196078%, 70.196078%, 70.196078%)" stroke-opacity="1" stroke-miterlimit="10" d="M 607.871094 102.175781 C 577.070312 108.351562 552.773438 124.484375 537.964844 152.167969 "/>
<path fill-rule="nonzero" fill="rgb(70.196078%, 70.196078%, 70.196078%)" fill-opacity="1" d="M 534.597656 158.457031 L 535.917969 151.074219 L 540.007812 153.261719 L 534.597656 158.457031 "/>
<path fill="none" stroke-width="5.5" stroke-linecap="butt" stroke-linejoin="miter" stroke="rgb(70.196078%, 70.196078%, 70.196078%)" stroke-opacity="1" stroke-miterlimit="10" d="M 584.179688 277.082031 C 617.832031 225.78125 627.699219 170.210938 610.539062 111.320312 "/>
<path fill-rule="nonzero" fill="rgb(70.196078%, 70.196078%, 70.196078%)" fill-opacity="1" d="M 608.542969 104.472656 L 612.761719 110.671875 L 608.3125 111.96875 L 608.542969 104.472656 "/>
<path fill="none" stroke-width="5.5" stroke-linecap="butt" stroke-linejoin="miter" stroke="rgb(70.196078%, 70.196078%, 70.196078%)" stroke-opacity="1" stroke-miterlimit="10" d="M 552.914062 393.910156 C 579.9375 363.015625 591.964844 327.035156 585.648438 286.492188 "/>
<path fill-rule="nonzero" fill="rgb(70.196078%, 70.196078%, 70.196078%)" fill-opacity="1" d="M 584.546875 279.445312 L 587.9375 286.136719 L 583.355469 286.851562 L 584.546875 279.445312 "/>
<path fill="none" stroke-width="5.5" stroke-linecap="butt" stroke-linejoin="miter" stroke="rgb(70.196078%, 70.196078%, 70.196078%)" stroke-opacity="1" stroke-miterlimit="10" d="M 516.109375 503.296875 C 543.652344 475.644531 557.335938 442.242188 553.78125 403.394531 "/>
<path fill-rule="nonzero" fill="rgb(70.196078%, 70.196078%, 70.196078%)" fill-opacity="1" d="M 553.132812 396.292969 L 556.089844 403.183594 L 551.476562 403.605469 L 553.132812 396.292969 "/>
<path fill="none" stroke-width="5.5" stroke-linecap="butt" stroke-linejoin="miter" stroke="rgb(70.196078%, 70.196078%, 70.196078%)" stroke-opacity="1" stroke-miterlimit="10" d="M 478.757812 618.785156 C 507.4375 589.195312 521.339844 553.742188 517.09375 512.769531 "/>
<path fill-rule="nonzero" fill="rgb(70.196078%, 70.196078%, 70.196078%)" fill-opacity="1" d="M 516.355469 505.675781 L 519.398438 512.53125 L 514.785156 513.007812 L 516.355469 505.675781 "/>
<path fill="none" stroke-width="5.5" stroke-linecap="butt" stroke-linejoin="miter" stroke="rgb(70.196078%, 70.196078%, 70.196078%)" stroke-opacity="1" stroke-miterlimit="10" d="M 426.546875 709.570312 C 455.808594 690.144531 473.996094 663.160156 477.742188 628.253906 "/>
<path fill-rule="nonzero" fill="rgb(70.196078%, 70.196078%, 70.196078%)" fill-opacity="1" d="M 478.5 621.160156 L 480.046875 628.5 L 475.4375 628.007812 L 478.5 621.160156 "/>
<path fill="none" stroke-width="5.5" stroke-linecap="butt" stroke-linejoin="miter" stroke="rgb(70.196078%, 70.196078%, 70.196078%)" stroke-opacity="1" stroke-miterlimit="10" d="M 354.222656 750 C 381.34375 749.039062 404.433594 738.773438 420.800781 717.160156 "/>
<path fill-rule="nonzero" fill="rgb(70.196078%, 70.196078%, 70.196078%)" fill-opacity="1" d="M 425.105469 711.476562 L 422.648438 718.5625 L 418.953125 715.761719 L 425.105469 711.476562 "/>
<path fill="none" stroke-width="5.5" stroke-linecap="butt" stroke-linejoin="miter" stroke="rgb(70.196078%, 70.196078%, 70.196078%)" stroke-opacity="1" stroke-miterlimit="10" d="M 281.566406 719.476562 C 298.015625 739.167969 319.078125 750.515625 344.703125 750.140625 "/>
<path fill-rule="nonzero" fill="rgb(70.196078%, 70.196078%, 70.196078%)" fill-opacity="1" d="M 351.835938 750.035156 L 344.738281 752.457031 L 344.671875 747.824219 L 351.835938 750.035156 "/>
<path fill="none" stroke-width="5.5" stroke-linecap="butt" stroke-linejoin="miter" stroke="rgb(70.196078%, 70.196078%, 70.196078%)" stroke-opacity="1" stroke-miterlimit="10" d="M 86.878906 282.15625 C 99.554688 240.503906 95.453125 200.503906 71.738281 164.007812 "/>
<path fill-rule="nonzero" fill="rgb(70.196078%, 70.196078%, 70.196078%)" fill-opacity="1" d="M 67.851562 158.027344 L 73.679688 162.746094 L 69.792969 165.269531 L 67.851562 158.027344 "/>
<path fill="none" stroke-width="5.5" stroke-linecap="butt" stroke-linejoin="miter" stroke="rgb(70.196078%, 70.196078%, 70.196078%)" stroke-opacity="1" stroke-miterlimit="10" d="M 188.40625 323.445312 C 163.972656 295.789062 133.269531 280.808594 96.398438 281.882812 "/>
<path fill-rule="nonzero" fill="rgb(70.196078%, 70.196078%, 70.196078%)" fill-opacity="1" d="M 89.269531 282.089844 L 96.332031 279.5625 L 96.464844 284.199219 L 89.269531 282.089844 "/>
<path fill="none" stroke-width="5.5" stroke-linecap="butt" stroke-linejoin="miter" stroke="rgb(70.196078%, 70.196078%, 70.196078%)" stroke-opacity="1" stroke-miterlimit="10" d="M 249.679688 272.917969 C 224.382812 278.382812 204.386719 291.886719 192.707031 314.953125 "/>
<path fill-rule="nonzero" fill="rgb(70.196078%, 70.196078%, 70.196078%)" fill-opacity="1" d="M 189.484375 321.316406 L 190.636719 313.90625 L 194.773438 316 L 189.484375 321.316406 "/>
<path fill="none" stroke-width="5.5" stroke-linecap="butt" stroke-linejoin="miter" stroke="rgb(70.196078%, 70.196078%, 70.196078%)" stroke-opacity="1" stroke-miterlimit="10" d="M 229.289062 626.792969 C 231.125 662.484375 245.332031 692.382812 273.941406 713.773438 "/>
<path fill-rule="nonzero" fill="rgb(70.196078%, 70.196078%, 70.196078%)" fill-opacity="1" d="M 279.652344 718.042969 L 272.554688 715.628906 L 275.328125 711.917969 L 279.652344 718.042969 "/>
<path fill="none" stroke-width="5.5" stroke-linecap="butt" stroke-linejoin="miter" stroke="rgb(70.196078%, 70.196078%, 70.196078%)" stroke-opacity="1" stroke-miterlimit="10" d="M 150.167969 230.058594 C 94.667969 324.097656 82.636719 423.425781 117.285156 526.972656 "/>
<path fill-rule="nonzero" fill="rgb(70.196078%, 70.196078%, 70.196078%)" fill-opacity="1" d="M 119.546875 533.734375 L 115.085938 527.707031 L 119.484375 526.234375 L 119.546875 533.734375 "/>
<path fill="none" stroke-width="5.5" stroke-linecap="butt" stroke-linejoin="miter" stroke="rgb(70.196078%, 70.196078%, 70.196078%)" stroke-opacity="1" stroke-miterlimit="10" d="M 186.101562 504.460938 C 181.007812 548.425781 192.40625 587.664062 222.753906 619.859375 "/>
<path fill-rule="nonzero" fill="rgb(70.196078%, 70.196078%, 70.196078%)" fill-opacity="1" d="M 227.648438 625.050781 L 221.066406 621.449219 L 224.441406 618.269531 L 227.648438 625.050781 "/>
<path fill="none" stroke-width="5.5" stroke-linecap="butt" stroke-linejoin="miter" stroke="rgb(70.196078%, 70.196078%, 70.196078%)" stroke-opacity="1" stroke-miterlimit="10" d="M 71.226562 459.824219 C 99.585938 490.652344 134.757812 506.800781 176.585938 504.894531 "/>
<path fill-rule="nonzero" fill="rgb(70.196078%, 70.196078%, 70.196078%)" fill-opacity="1" d="M 183.710938 504.570312 L 176.691406 507.207031 L 176.480469 502.578125 L 183.710938 504.570312 "/>
<path fill="none" stroke-width="5.5" stroke-linecap="butt" stroke-linejoin="miter" stroke="rgb(70.196078%, 70.196078%, 70.196078%)" stroke-opacity="1" stroke-miterlimit="10" d="M 50 579.074219 C 74.328125 545.929688 83.253906 508.996094 73.488281 469.078125 "/>
<path fill-rule="nonzero" fill="rgb(70.196078%, 70.196078%, 70.196078%)" fill-opacity="1" d="M 71.792969 462.148438 L 75.742188 468.527344 L 71.238281 469.628906 L 71.792969 462.148438 "/>
<path fill="none" stroke-width="5.5" stroke-linecap="butt" stroke-linejoin="miter" stroke="rgb(70.196078%, 70.196078%, 70.196078%)" stroke-opacity="1" stroke-miterlimit="10" d="M 120.308594 536.007812 C 93.398438 538.027344 70.851562 549.132812 55.441406 571.261719 "/>
<path fill-rule="nonzero" fill="rgb(70.196078%, 70.196078%, 70.196078%)" fill-opacity="1" d="M 51.363281 577.113281 L 53.539062 569.933594 L 57.34375 572.585938 L 51.363281 577.113281 "/>
<path fill="none" stroke-width="5.5" stroke-linecap="butt" stroke-linejoin="miter" stroke="rgb(70.196078%, 70.196078%, 70.196078%)" stroke-opacity="1" stroke-miterlimit="10" d="M 141.269531 111.628906 C 126.234375 148.964844 126.707031 186.175781 145.675781 221.65625 "/>
<path fill-rule="nonzero" fill="rgb(70.196078%, 70.196078%, 70.196078%)" fill-opacity="1" d="M 149.039062 227.949219 L 143.632812 222.75 L 147.71875 220.566406 L 149.039062 227.949219 "/>
<path fill="none" stroke-width="5.5" stroke-linecap="butt" stroke-linejoin="miter" stroke="rgb(70.196078%, 70.196078%, 70.196078%)" stroke-opacity="1" stroke-miterlimit="10" d="M 291.378906 353.539062 C 291.144531 323.515625 280.421875 297.757812 257.085938 278.902344 "/>
<path fill-rule="nonzero" fill="rgb(70.196078%, 70.196078%, 70.196078%)" fill-opacity="1" d="M 251.535156 274.417969 L 258.542969 277.097656 L 255.628906 280.703125 L 251.535156 274.417969 "/>
<path fill="none" stroke-width="5.5" stroke-linecap="butt" stroke-linejoin="miter" stroke="rgb(70.196078%, 70.196078%, 70.196078%)" stroke-opacity="1" stroke-miterlimit="10" d="M 354.15625 412.957031 C 344.648438 386.152344 327.089844 366.355469 300.34375 356.753906 "/>
<path fill-rule="nonzero" fill="rgb(70.196078%, 70.196078%, 70.196078%)" fill-opacity="1" d="M 293.628906 354.347656 L 301.125 354.574219 L 299.558594 358.9375 L 293.628906 354.347656 "/>
<path fill="none" stroke-width="5.5" stroke-linecap="butt" stroke-linejoin="miter" stroke="rgb(70.196078%, 70.196078%, 70.196078%)" stroke-opacity="1" stroke-miterlimit="10" d="M 383.429688 307.757812 C 358.851562 335.085938 347.519531 367.171875 352.789062 403.53125 "/>
<path fill-rule="nonzero" fill="rgb(70.196078%, 70.196078%, 70.196078%)" fill-opacity="1" d="M 353.8125 410.589844 L 350.496094 403.863281 L 355.085938 403.199219 L 353.8125 410.589844 "/>
<path fill="none" stroke-width="5.5" stroke-linecap="butt" stroke-linejoin="miter" stroke="rgb(70.196078%, 70.196078%, 70.196078%)" stroke-opacity="1" stroke-miterlimit="10" d="M 66.546875 156.019531 C 95.105469 154.179688 119.082031 142.621094 135.726562 119.371094 "/>
<path fill-rule="nonzero" fill="rgb(70.196078%, 70.196078%, 70.196078%)" fill-opacity="1" d="M 139.878906 113.570312 L 137.609375 120.71875 L 133.839844 118.019531 L 139.878906 113.570312 "/>
<path fill="none" stroke-width="5.5" stroke-linecap="butt" stroke-linejoin="miter" stroke="rgb(70.196078%, 70.196078%, 70.196078%)" stroke-opacity="1" stroke-miterlimit="10" d="M 435.40625 70.21875 C 404.597656 93.589844 386.59375 124.503906 384.777344 163.117188 "/>
<path fill-rule="nonzero" fill="rgb(70.196078%, 70.196078%, 70.196078%)" fill-opacity="1" d="M 384.441406 170.242188 L 382.460938 163.007812 L 387.09375 163.226562 L 384.441406 170.242188 "/>
<path fill="none" stroke-width="5.5" stroke-linecap="butt" stroke-linejoin="miter" stroke="rgb(70.196078%, 70.196078%, 70.196078%)" stroke-opacity="1" stroke-miterlimit="10" d="M 523.5625 50 C 494.542969 42.769531 467.03125 46.710938 443.050781 64.539062 "/>
<path fill-rule="nonzero" fill="rgb(70.196078%, 70.196078%, 70.196078%)" fill-opacity="1" d="M 437.324219 68.792969 L 441.667969 62.679688 L 444.433594 66.398438 L 437.324219 68.792969 "/>
<path fill="none" stroke-width="5.5" stroke-linecap="butt" stroke-linejoin="miter" stroke="rgb(70.196078%, 70.196078%, 70.196078%)" stroke-opacity="1" stroke-miterlimit="10" d="M 384.328125 172.628906 C 363.804688 214.054688 361.203125 256.636719 379.628906 299.023438 "/>
<path fill-rule="nonzero" fill="rgb(70.196078%, 70.196078%, 70.196078%)" fill-opacity="1" d="M 382.472656 305.566406 L 377.503906 299.945312 L 381.753906 298.097656 L 382.472656 305.566406 "/>
<path fill="none" stroke-width="5.5" stroke-linecap="butt" stroke-linejoin="miter" stroke="rgb(70.196078%, 70.196078%, 70.196078%)" stroke-opacity="1" stroke-miterlimit="10" d="M 648.644531 216.09375 C 633.949219 144.757812 595.578125 89.945312 531.894531 54.621094 "/>
<path fill-rule="nonzero" fill="rgb(70.196078%, 70.196078%, 70.196078%)" fill-opacity="1" d="M 525.65625 51.160156 L 533.019531 52.59375 L 530.769531 56.648438 L 525.65625 51.160156 "/>
<path fill="none" stroke-width="5.5" stroke-linecap="butt" stroke-linejoin="miter" stroke="rgb(70.196078%, 70.196078%, 70.196078%)" stroke-opacity="1" stroke-miterlimit="10" d="M 681.542969 732.679688 C 714.886719 713.085938 736.394531 684.496094 742.726562 646.359375 "/>
<path fill-rule="nonzero" fill="rgb(70.196078%, 70.196078%, 70.196078%)" fill-opacity="1" d="M 743.894531 639.324219 L 745.011719 646.738281 L 740.441406 645.980469 L 743.894531 639.324219 "/>
<path fill="none" stroke-width="5.5" stroke-linecap="butt" stroke-linejoin="miter" stroke="rgb(70.196078%, 70.196078%, 70.196078%)" stroke-opacity="1" stroke-miterlimit="10" d="M 620.367188 678.957031 C 630.109375 703.71875 647.136719 721.738281 672.46875 729.796875 "/>
<path fill-rule="nonzero" fill="rgb(70.196078%, 70.196078%, 70.196078%)" fill-opacity="1" d="M 679.265625 731.957031 L 671.765625 732.003906 L 673.171875 727.585938 L 679.265625 731.957031 "/>
<path fill="none" stroke-width="5.5" stroke-linecap="butt" stroke-linejoin="miter" stroke="rgb(70.196078%, 70.196078%, 70.196078%)" stroke-opacity="1" stroke-miterlimit="10" d="M 632.910156 569.207031 C 612.6875 600.453125 606.488281 634.339844 617.539062 669.863281 "/>
<path fill-rule="nonzero" fill="rgb(70.196078%, 70.196078%, 70.196078%)" fill-opacity="1" d="M 619.660156 676.671875 L 615.328125 670.550781 L 619.753906 669.171875 L 619.660156 676.671875 "/>
<path fill="none" stroke-width="5.5" stroke-linecap="butt" stroke-linejoin="miter" stroke="rgb(70.196078%, 70.196078%, 70.196078%)" stroke-opacity="1" stroke-miterlimit="10" d="M 750 508.703125 C 761.378906 456.417969 752.171875 407.992188 719.6875 365.484375 "/>
<path fill-rule="nonzero" fill="rgb(70.196078%, 70.196078%, 70.196078%)" fill-opacity="1" d="M 715.359375 359.816406 L 721.53125 364.078125 L 717.847656 366.890625 L 715.359375 359.816406 "/>
<path fill="none" stroke-width="5.5" stroke-linecap="butt" stroke-linejoin="miter" stroke="rgb(70.196078%, 70.196078%, 70.196078%)" stroke-opacity="1" stroke-miterlimit="10" d="M 713.90625 357.914062 C 714.863281 304.023438 696.238281 258 655.792969 222.386719 "/>
<path fill-rule="nonzero" fill="rgb(70.196078%, 70.196078%, 70.196078%)" fill-opacity="1" d="M 650.441406 217.675781 L 657.324219 220.648438 L 654.261719 224.128906 L 650.441406 217.675781 "/>
<path fill="none" stroke-width="5.5" stroke-linecap="butt" stroke-linejoin="miter" stroke="rgb(70.196078%, 70.196078%, 70.196078%)" stroke-opacity="1" stroke-miterlimit="10" d="M 744.285156 636.964844 C 765.253906 598.546875 769.363281 558.339844 753.460938 517.578125 "/>
<path fill-rule="nonzero" fill="rgb(70.196078%, 70.196078%, 70.196078%)" fill-opacity="1" d="M 750.871094 510.933594 L 755.621094 516.734375 L 751.300781 518.421875 L 750.871094 510.933594 "/>
<path fill-rule="nonzero" fill="rgb(14.901961%, 14.901961%, 14.901961%)" fill-opacity="1" stroke-width="1" stroke-linecap="butt" stroke-linejoin="miter" stroke="rgb(14.901961%, 14.901961%, 14.901961%)" stroke-opacity="1" stroke-miterlimit="10" d="M 481.261719 234.578125 L 483.761719 229.578125 L 486.261719 234.578125 Z M 481.261719 234.578125 "/>
<path fill-rule="nonzero" fill="rgb(70.196078%, 70.196078%, 70.196078%)" fill-opacity="1" stroke-width="1" stroke-linecap="butt" stroke-linejoin="miter" stroke="rgb(70.196078%, 70.196078%, 70.196078%)" stroke-opacity="1" stroke-miterlimit="10" d="M 535.972656 160.5625 C 535.972656 163.898438 530.972656 163.898438 530.972656 160.5625 C 530.972656 157.230469 535.972656 157.230469 535.972656 160.5625 "/>
<path fill-rule="nonzero" fill="rgb(70.196078%, 70.196078%, 70.196078%)" fill-opacity="1" stroke-width="1" stroke-linecap="butt" stroke-linejoin="miter" stroke="rgb(70.196078%, 70.196078%, 70.196078%)" stroke-opacity="1" stroke-miterlimit="10" d="M 610.371094 102.175781 C 610.371094 105.507812 605.371094 105.507812 605.371094 102.175781 C 605.371094 98.839844 610.371094 98.839844 610.371094 102.175781 "/>
<path fill-rule="nonzero" fill="rgb(70.196078%, 70.196078%, 70.196078%)" fill-opacity="1" stroke-width="1" stroke-linecap="butt" stroke-linejoin="miter" stroke="rgb(70.196078%, 70.196078%, 70.196078%)" stroke-opacity="1" stroke-miterlimit="10" d="M 586.679688 277.082031 C 586.679688 280.417969 581.679688 280.417969 581.679688 277.082031 C 581.679688 273.75 586.679688 273.75 586.679688 277.082031 "/>
<path fill-rule="nonzero" fill="rgb(70.196078%, 70.196078%, 70.196078%)" fill-opacity="1" stroke-width="1" stroke-linecap="butt" stroke-linejoin="miter" stroke="rgb(70.196078%, 70.196078%, 70.196078%)" stroke-opacity="1" stroke-miterlimit="10" d="M 555.414062 393.910156 C 555.414062 397.242188 550.414062 397.242188 550.414062 393.910156 C 550.414062 390.578125 555.414062 390.578125 555.414062 393.910156 "/>
<path fill-rule="nonzero" fill="rgb(70.196078%, 70.196078%, 70.196078%)" fill-opacity="1" stroke-width="1" stroke-linecap="butt" stroke-linejoin="miter" stroke="rgb(70.196078%, 70.196078%, 70.196078%)" stroke-opacity="1" stroke-miterlimit="10" d="M 518.609375 503.296875 C 518.609375 506.628906 513.609375 506.628906 513.609375 503.296875 C 513.609375 499.960938 518.609375 499.960938 518.609375 503.296875 "/>
<path fill-rule="nonzero" fill="rgb(70.196078%, 70.196078%, 70.196078%)" fill-opacity="1" stroke-width="1" stroke-linecap="butt" stroke-linejoin="miter" stroke="rgb(70.196078%, 70.196078%, 70.196078%)" stroke-opacity="1" stroke-miterlimit="10" d="M 481.257812 618.785156 C 481.257812 622.117188 476.257812 622.117188 476.257812 618.785156 C 476.257812 615.449219 481.257812 615.449219 481.257812 618.785156 "/>
<path fill-rule="nonzero" fill="rgb(70.196078%, 70.196078%, 70.196078%)" fill-opacity="1" stroke-width="1" stroke-linecap="butt" stroke-linejoin="miter" stroke="rgb(70.196078%, 70.196078%, 70.196078%)" stroke-opacity="1" stroke-miterlimit="10" d="M 429.046875 709.570312 C 429.046875 712.90625 424.046875 712.90625 424.046875 709.570312 C 424.046875 706.238281 429.046875 706.238281 429.046875 709.570312 "/>
<path fill-rule="nonzero" fill="rgb(70.196078%, 70.196078%, 70.196078%)" fill-opacity="1" stroke-width="1" stroke-linecap="butt" stroke-linejoin="miter" stroke="rgb(70.196078%, 70.196078%, 70.196078%)" stroke-opacity="1" stroke-miterlimit="10" d="M 356.722656 750 C 356.722656 753.332031 351.722656 753.332031 351.722656 750 C 351.722656 746.667969 356.722656 746.667969 356.722656 750 "/>
<path fill-rule="nonzero" fill="rgb(70.196078%, 70.196078%, 70.196078%)" fill-opacity="1" stroke-width="1" stroke-linecap="butt" stroke-linejoin="miter" stroke="rgb(70.196078%, 70.196078%, 70.196078%)" stroke-opacity="1" stroke-miterlimit="10" d="M 284.066406 719.476562 C 284.066406 722.808594 279.066406 722.808594 279.066406 719.476562 C 279.066406 716.144531 284.066406 716.144531 284.066406 719.476562 "/>
<path fill-rule="nonzero" fill="rgb(70.196078%, 70.196078%, 70.196078%)" fill-opacity="1" stroke-width="1" stroke-linecap="butt" stroke-linejoin="miter" stroke="rgb(70.196078%, 70.196078%, 70.196078%)" stroke-opacity="1" stroke-miterlimit="10" d="M 89.378906 282.15625 C 89.378906 285.492188 84.378906 285.492188 84.378906 282.15625 C 84.378906 278.824219 89.378906 278.824219 89.378906 282.15625 "/>
<path fill-rule="nonzero" fill="rgb(70.196078%, 70.196078%, 70.196078%)" fill-opacity="1" stroke-width="1" stroke-linecap="butt" stroke-linejoin="miter" stroke="rgb(70.196078%, 70.196078%, 70.196078%)" stroke-opacity="1" stroke-miterlimit="10" d="M 190.90625 323.445312 C 190.90625 326.777344 185.90625 326.777344 185.90625 323.445312 C 185.90625 320.113281 190.90625 320.113281 190.90625 323.445312 "/>
<path fill-rule="nonzero" fill="rgb(70.196078%, 70.196078%, 70.196078%)" fill-opacity="1" stroke-width="1" stroke-linecap="butt" stroke-linejoin="miter" stroke="rgb(70.196078%, 70.196078%, 70.196078%)" stroke-opacity="1" stroke-miterlimit="10" d="M 252.179688 272.917969 C 252.179688 276.25 247.179688 276.25 247.179688 272.917969 C 247.179688 269.582031 252.179688 269.582031 252.179688 272.917969 "/>
<path fill-rule="nonzero" fill="rgb(70.196078%, 70.196078%, 70.196078%)" fill-opacity="1" stroke-width="1" stroke-linecap="butt" stroke-linejoin="miter" stroke="rgb(70.196078%, 70.196078%, 70.196078%)" stroke-opacity="1" stroke-miterlimit="10" d="M 231.789062 626.792969 C 231.789062 630.125 226.789062 630.125 226.789062 626.792969 C 226.789062 623.457031 231.789062 623.457031 231.789062 626.792969 "/>
<path fill-rule="nonzero" fill="rgb(70.196078%, 70.196078%, 70.196078%)" fill-opacity="1" stroke-width="1" stroke-linecap="butt" stroke-linejoin="miter" stroke="rgb(70.196078%, 70.196078%, 70.196078%)" stroke-opacity="1" stroke-miterlimit="10" d="M 152.667969 230.058594 C 152.667969 233.390625 147.667969 233.390625 147.667969 230.058594 C 147.667969 226.722656 152.667969 226.722656 152.667969 230.058594 "/>
<path fill-rule="nonzero" fill="rgb(70.196078%, 70.196078%, 70.196078%)" fill-opacity="1" stroke-width="1" stroke-linecap="butt" stroke-linejoin="miter" stroke="rgb(70.196078%, 70.196078%, 70.196078%)" stroke-opacity="1" stroke-miterlimit="10" d="M 188.601562 504.460938 C 188.601562 507.792969 183.601562 507.792969 183.601562 504.460938 C 183.601562 501.125 188.601562 501.125 188.601562 504.460938 "/>
<path fill-rule="nonzero" fill="rgb(70.196078%, 70.196078%, 70.196078%)" fill-opacity="1" stroke-width="1" stroke-linecap="butt" stroke-linejoin="miter" stroke="rgb(70.196078%, 70.196078%, 70.196078%)" stroke-opacity="1" stroke-miterlimit="10" d="M 73.726562 459.824219 C 73.726562 463.160156 68.726562 463.160156 68.726562 459.824219 C 68.726562 456.492188 73.726562 456.492188 73.726562 459.824219 "/>
<path fill-rule="nonzero" fill="rgb(70.196078%, 70.196078%, 70.196078%)" fill-opacity="1" stroke-width="1" stroke-linecap="butt" stroke-linejoin="miter" stroke="rgb(70.196078%, 70.196078%, 70.196078%)" stroke-opacity="1" stroke-miterlimit="10" d="M 52.5 579.074219 C 52.5 582.40625 47.5 582.40625 47.5 579.074219 C 47.5 575.738281 52.5 575.738281 52.5 579.074219 "/>
<path fill-rule="nonzero" fill="rgb(70.196078%, 70.196078%, 70.196078%)" fill-opacity="1" stroke-width="1" stroke-linecap="butt" stroke-linejoin="miter" stroke="rgb(70.196078%, 70.196078%, 70.196078%)" stroke-opacity="1" stroke-miterlimit="10" d="M 122.808594 536.007812 C 122.808594 539.339844 117.808594 539.339844 117.808594 536.007812 C 117.808594 532.675781 122.808594 532.675781 122.808594 536.007812 "/>
<path fill-rule="nonzero" fill="rgb(70.196078%, 70.196078%, 70.196078%)" fill-opacity="1" stroke-width="1" stroke-linecap="butt" stroke-linejoin="miter" stroke="rgb(70.196078%, 70.196078%, 70.196078%)" stroke-opacity="1" stroke-miterlimit="10" d="M 143.769531 111.628906 C 143.769531 114.960938 138.769531 114.960938 138.769531 111.628906 C 138.769531 108.292969 143.769531 108.292969 143.769531 111.628906 "/>
<path fill-rule="nonzero" fill="rgb(70.196078%, 70.196078%, 70.196078%)" fill-opacity="1" stroke-width="1" stroke-linecap="butt" stroke-linejoin="miter" stroke="rgb(70.196078%, 70.196078%, 70.196078%)" stroke-opacity="1" stroke-miterlimit="10" d="M 293.878906 353.539062 C 293.878906 356.871094 288.878906 356.871094 288.878906 353.539062 C 288.878906 350.207031 293.878906 350.207031 293.878906 353.539062 "/>
<path fill-rule="nonzero" fill="rgb(70.196078%, 70.196078%, 70.196078%)" fill-opacity="1" stroke-width="1" stroke-linecap="butt" stroke-linejoin="miter" stroke="rgb(70.196078%, 70.196078%, 70.196078%)" stroke-opacity="1" stroke-miterlimit="10" d="M 356.65625 412.957031 C 356.65625 416.289062 351.65625 416.289062 351.65625 412.957031 C 351.65625 409.621094 356.65625 409.621094 356.65625 412.957031 "/>
<path fill-rule="nonzero" fill="rgb(70.196078%, 70.196078%, 70.196078%)" fill-opacity="1" stroke-width="1" stroke-linecap="butt" stroke-linejoin="miter" stroke="rgb(70.196078%, 70.196078%, 70.196078%)" stroke-opacity="1" stroke-miterlimit="10" d="M 385.929688 307.757812 C 385.929688 311.09375 380.929688 311.09375 380.929688 307.757812 C 380.929688 304.425781 385.929688 304.425781 385.929688 307.757812 "/>
<path fill-rule="nonzero" fill="rgb(70.196078%, 70.196078%, 70.196078%)" fill-opacity="1" stroke-width="1" stroke-linecap="butt" stroke-linejoin="miter" stroke="rgb(70.196078%, 70.196078%, 70.196078%)" stroke-opacity="1" stroke-miterlimit="10" d="M 69.046875 156.019531 C 69.046875 159.355469 64.046875 159.355469 64.046875 156.019531 C 64.046875 152.6875 69.046875 152.6875 69.046875 156.019531 "/>
<path fill-rule="nonzero" fill="rgb(70.196078%, 70.196078%, 70.196078%)" fill-opacity="1" stroke-width="1" stroke-linecap="butt" stroke-linejoin="miter" stroke="rgb(70.196078%, 70.196078%, 70.196078%)" stroke-opacity="1" stroke-miterlimit="10" d="M 437.90625 70.21875 C 437.90625 73.554688 432.90625 73.554688 432.90625 70.21875 C 432.90625 66.886719 437.90625 66.886719 437.90625 70.21875 "/>
<path fill-rule="nonzero" fill="rgb(70.196078%, 70.196078%, 70.196078%)" fill-opacity="1" stroke-width="1" stroke-linecap="butt" stroke-linejoin="miter" stroke="rgb(70.196078%, 70.196078%, 70.196078%)" stroke-opacity="1" stroke-miterlimit="10" d="M 526.0625 50 C 526.0625 53.332031 521.0625 53.332031 521.0625 50 C 521.0625 46.667969 526.0625 46.667969 526.0625 50 "/>
<path fill-rule="nonzero" fill="rgb(70.196078%, 70.196078%, 70.196078%)" fill-opacity="1" stroke-width="1" stroke-linecap="butt" stroke-linejoin="miter" stroke="rgb(70.196078%, 70.196078%, 70.196078%)" stroke-opacity="1" stroke-miterlimit="10" d="M 386.828125 172.628906 C 386.828125 175.964844 381.828125 175.964844 381.828125 172.628906 C 381.828125 169.296875 386.828125 169.296875 386.828125 172.628906 "/>
<path fill-rule="nonzero" fill="rgb(70.196078%, 70.196078%, 70.196078%)" fill-opacity="1" stroke-width="1" stroke-linecap="butt" stroke-linejoin="miter" stroke="rgb(70.196078%, 70.196078%, 70.196078%)" stroke-opacity="1" stroke-miterlimit="10" d="M 651.144531 216.09375 C 651.144531 219.425781 646.144531 219.425781 646.144531 216.09375 C 646.144531 212.761719 651.144531 212.761719 651.144531 216.09375 "/>
<path fill-rule="nonzero" fill="rgb(70.196078%, 70.196078%, 70.196078%)" fill-opacity="1" stroke-width="1" stroke-linecap="butt" stroke-linejoin="miter" stroke="rgb(70.196078%, 70.196078%, 70.196078%)" stroke-opacity="1" stroke-miterlimit="10" d="M 684.042969 732.679688 C 684.042969 736.015625 679.042969 736.015625 679.042969 732.679688 C 679.042969 729.347656 684.042969 729.347656 684.042969 732.679688 "/>
<path fill-rule="nonzero" fill="rgb(70.196078%, 70.196078%, 70.196078%)" fill-opacity="1" stroke-width="1" stroke-linecap="butt" stroke-linejoin="miter" stroke="rgb(70.196078%, 70.196078%, 70.196078%)" stroke-opacity="1" stroke-miterlimit="10" d="M 622.867188 678.957031 C 622.867188 682.289062 617.867188 682.289062 617.867188 678.957031 C 617.867188 675.621094 622.867188 675.621094 622.867188 678.957031 "/>
<path fill-rule="nonzero" fill="rgb(100%, 84.313725%, 0%)" fill-opacity="1" stroke-width="1" stroke-linecap="butt" stroke-linejoin="miter" stroke="rgb(100%, 84.313725%, 0%)" stroke-opacity="1" stroke-miterlimit="10" d="M 630.410156 566.707031 L 635.410156 566.707031 L 635.410156 571.707031 L 630.410156 571.707031 Z M 630.410156 566.707031 "/>
<path fill-rule="nonzero" fill="rgb(70.196078%, 70.196078%, 70.196078%)" fill-opacity="1" stroke-width="1" stroke-linecap="butt" stroke-linejoin="miter" stroke="rgb(70.196078%, 70.196078%, 70.196078%)" stroke-opacity="1" stroke-miterlimit="10" d="M 752.5 508.703125 C 752.5 512.039062 747.5 512.039062 747.5 508.703125 C 747.5 505.371094 752.5 505.371094 752.5 508.703125 "/>
<path fill-rule="nonzero" fill="rgb(70.196078%, 70.196078%, 70.196078%)" fill-opacity="1" stroke-width="1" stroke-linecap="butt" stroke-linejoin="miter" stroke="rgb(70.196078%, 70.196078%, 70.196078%)" stroke-opacity="1" stroke-miterlimit="10" d="M 716.40625 357.914062 C 716.40625 361.25 711.40625 361.25 711.40625 357.914062 C 711.40625 354.582031 716.40625 354.582031 716.40625 357.914062 "/>
<path fill-rule="nonzero" fill="rgb(70.196078%, 70.196078%, 70.196078%)" fill-opacity="1" stroke-width="1" stroke-linecap="butt" stroke-linejoin="miter" stroke="rgb(70.196078%, 70.196078%, 70.196078%)" stroke-opacity="1" stroke-miterlimit="10" d="M 746.785156 636.964844 C 746.785156 640.296875 741.785156 640.296875 741.785156 636.964844 C 741.785156 633.632812 746.785156 633.632812 746.785156 636.964844 "/>
</svg>
