<?xml version="1.0" encoding="UTF-8"?>
<svg xmlns="http://www.w3.org/2000/svg" xmlns:xlink="http://www.w3.org/1999/xlink" width="800" height="800" viewBox="0 0 800 800">
<rect x="-80" y="-80" width="960" height="960" fill="rgb(100%, 100%, 100%)" fill-opacity="1"/>
<path fill="none" stroke-width="5.5" stroke-linecap="butt" stroke-linejoin="miter" stroke="rgb(70.196078%, 70.196078%, 70.196078%)" stroke-opacity="1" stroke-miterlimit="10" d="M 691.015625 445.222656 C 691.808594 474.925781 702.851562 500.28125 726.34375 518.4375 "/>
<path fill-rule="nonzero" fill="rgb(70.196078%, 70.196078%, 70.196078%)" fill-opacity="1" d="M 731.984375 522.800781 L 724.925781 520.273438 L 727.761719 516.605469 L 731.984375 522.800781 "/>
<path fill="none" stroke-width="5.5" stroke-linecap="butt" stroke-linejoin="miter" stroke="rgb(70.196078%, 70.196078%, 70.196078%)" stroke-opacity="1" stroke-miterlimit="10" d="M 711.324219 318.007812 C 686.203125 353.128906 677.3125 392.03125 688.082031 433.832031 "/>
<path fill-rule="nonzero" fill="rgb(70.196078%, 70.196078%, 70.196078%)" fill-opacity="1" d="M 689.859375 440.738281 L 685.835938 434.410156 L 690.324219 433.253906 L 689.859375 440.738281 "/>
<path fill="none" stroke-width="5.5" stroke-linecap="butt" stroke-linejoin="miter" stroke="rgb(70.196078%, 70.196078%, 70.196078%)" stroke-opacity="1" stroke-miterlimit="10" d="M 750 371.070312 C 747.570312 351.210938 738.730469 334.597656 721.644531 324.253906 "/>
<path fill-rule="nonzero" fill="rgb(70.196078%, 70.196078%, 70.196078%)" fill-opacity="1" d="M 715.542969 320.5625 L 722.84375 322.273438 L 720.445312 326.238281 L 715.542969 320.5625 "/>
<path fill="none" stroke-width="5.5" stroke-linecap="butt" stroke-linejoin="miter" stroke="rgb(70.196078%, 70.196078%, 70.196078%)" stroke-opacity="1" stroke-miterlimit="10" d="M 616.710938 354.398438 C 654.382812 379.363281 695.382812 387.160156 738.71875 374.394531 "/>
<path fill-rule="nonzero" fill="rgb(70.196078%, 70.196078%, 70.196078%)" fill-opacity="1" d="M 745.558594 372.375 L 739.371094 376.617188 L 738.0625 372.167969 L 745.558594 372.375 "/>
<path fill="none" stroke-width="5.5" stroke-linecap="butt" stroke-linejoin="miter" stroke="rgb(70.196078%, 70.196078%, 70.196078%)" stroke-opacity="1" stroke-miterlimit="10" d="M 524.226562 321.210938 C 546.058594 344.628906 573.050781 357.109375 604.980469 355.125 "/>
<path fill-rule="nonzero" fill="rgb(70.196078%, 70.196078%, 70.196078%)" fill-opacity="1" d="M 612.101562 354.683594 L 605.125 357.441406 L 604.839844 352.8125 L 612.101562 354.683594 "/>
<path fill="none" stroke-width="5.5" stroke-linecap="butt" stroke-linejoin="miter" stroke="rgb(70.196078%, 70.196078%, 70.196078%)" stroke-opacity="1" stroke-miterlimit="10" d="M 421.578125 317.429688 C 450.9375 333.859375 481.925781 337.640625 513.269531 325.464844 "/>
<path fill-rule="nonzero" fill="rgb(70.196078%, 70.196078%, 70.196078%)" fill-opacity="1" d="M 519.917969 322.882812 L 514.109375 327.625 L 512.429688 323.304688 L 519.917969 322.882812 "/>
<path fill="none" stroke-width="5.5" stroke-linecap="butt" stroke-linejoin="miter" stroke="rgb(70.196078%, 70.196078%, 70.196078%)" stroke-opacity="1" stroke-miterlimit="10" d="M 333.71875 315.054688 C 358.359375 328.832031 384.4375 332.160156 410.65625 321.761719 "/>
<path fill-rule="nonzero" fill="rgb(70.196078%, 70.196078%, 70.196078%)" fill-opacity="1" d="M 417.285156 319.128906 L 411.511719 323.914062 L 409.800781 319.605469 L 417.285156 319.128906 "/>
<path fill="none" stroke-width="5.5" stroke-linecap="butt" stroke-linejoin="miter" stroke="rgb(70.196078%, 70.196078%, 70.196078%)" stroke-opacity="1" stroke-miterlimit="10" d="M 241.523438 325.792969 C 269.589844 336.46875 297.511719 335.859375 323.53125 320.910156 "/>
<path fill-rule="nonzero" fill="rgb(70.196078%, 70.196078%, 70.196078%)" fill-opacity="1" d="M 329.714844 317.355469 L 324.683594 322.921875 L 322.375 318.902344 L 329.714844 317.355469 "/>
<path fill="none" stroke-width="5.5" stroke-linecap="butt" stroke-linejoin="miter" stroke="rgb(70.196078%, 70.196078%, 70.196078%)" stroke-opacity="1" stroke-miterlimit="10" d="M 113.722656 311.703125 C 149.941406 335.046875 189.144531 342.03125 230.289062 329.277344 "/>
<path fill-rule="nonzero" fill="rgb(70.196078%, 70.196078%, 70.196078%)" fill-opacity="1" d="M 237.101562 327.164062 L 230.972656 331.492188 L 229.601562 327.0625 L 237.101562 327.164062 "/>
<path fill="none" stroke-width="5.5" stroke-linecap="butt" stroke-linejoin="miter" stroke="rgb(70.196078%, 70.196078%, 70.196078%)" stroke-opacity="1" stroke-miterlimit="10" d="M 202.351562 501.636719 C 170.773438 484.777344 137.757812 481.484375 104.644531 495.03125 "/>
<path fill-rule="nonzero" fill="rgb(70.196078%, 70.196078%, 70.196078%)" fill-opacity="1" d="M 98.042969 497.730469 L 103.769531 492.886719 L 105.523438 497.175781 L 98.042969 497.730469 "/>
<path fill="none" stroke-width="5.5" stroke-linecap="butt" stroke-linejoin="miter" stroke="rgb(70.196078%, 70.196078%, 70.196078%)" stroke-opacity="1" stroke-miterlimit="10" d="M 272.691406 515.582031 C 255.527344 501.308594 235.675781 494.714844 213.847656 499.246094 "/>
<path fill-rule="nonzero" fill="rgb(70.196078%, 70.196078%, 70.196078%)" fill-opacity="1" d="M 206.863281 500.699219 L 213.378906 496.976562 L 214.320312 501.515625 L 206.863281 500.699219 "/>
<path fill="none" stroke-width="5.5" stroke-linecap="butt" stroke-linejoin="miter" stroke="rgb(70.196078%, 70.196078%, 70.196078%)" stroke-opacity="1" stroke-miterlimit="10" d="M 50 401.621094 C 82.191406 384.675781 103.777344 358.78125 111.292969 323.207031 "/>
<path fill-rule="nonzero" fill="rgb(70.196078%, 70.196078%, 70.196078%)" fill-opacity="1" d="M 112.765625 316.226562 L 113.558594 323.6875 L 109.023438 322.726562 L 112.765625 316.226562 "/>
<path fill="none" stroke-width="5.5" stroke-linecap="butt" stroke-linejoin="miter" stroke="rgb(70.196078%, 70.196078%, 70.196078%)" stroke-opacity="1" stroke-miterlimit="10" d="M 93.765625 499.480469 C 95.550781 464.246094 84.648438 433.40625 58.664062 409.570312 "/>
<path fill-rule="nonzero" fill="rgb(70.196078%, 70.196078%, 70.196078%)" fill-opacity="1" d="M 53.40625 404.746094 L 60.230469 407.859375 L 57.097656 411.277344 L 53.40625 404.746094 "/>
<path fill="none" stroke-width="5.5" stroke-linecap="butt" stroke-linejoin="miter" stroke="rgb(70.196078%, 70.196078%, 70.196078%)" stroke-opacity="1" stroke-miterlimit="10" d="M 337.78125 543.113281 C 324.128906 525.933594 306.347656 515.582031 284.433594 515.582031 "/>
<path fill-rule="nonzero" fill="rgb(70.196078%, 70.196078%, 70.196078%)" fill-opacity="1" d="M 277.300781 515.582031 L 284.433594 513.265625 L 284.433594 517.898438 L 277.300781 515.582031 "/>
<path fill="none" stroke-width="5.5" stroke-linecap="butt" stroke-linejoin="miter" stroke="rgb(70.196078%, 70.196078%, 70.196078%)" stroke-opacity="1" stroke-miterlimit="10" d="M 394.65625 592.765625 C 386.316406 570.574219 371.445312 554.125 348.941406 546.765625 "/>
<path fill-rule="nonzero" fill="rgb(70.196078%, 70.196078%, 70.196078%)" fill-opacity="1" d="M 342.164062 544.546875 L 349.664062 544.5625 L 348.222656 548.96875 L 342.164062 544.546875 "/>
<path fill="none" stroke-width="5.5" stroke-linecap="butt" stroke-linejoin="miter" stroke="rgb(70.196078%, 70.196078%, 70.196078%)" stroke-opacity="1" stroke-miterlimit="10" d="M 390.535156 750 C 426.09375 760.117188 460.117188 756.199219 490.609375 735.324219 "/>
<path fill-rule="nonzero" fill="rgb(70.196078%, 70.196078%, 70.196078%)" fill-opacity="1" d="M 496.492188 731.292969 L 491.917969 737.234375 L 489.300781 733.410156 L 496.492188 731.292969 "/>
<path fill="none" stroke-width="5.5" stroke-linecap="butt" stroke-linejoin="miter" stroke="rgb(70.196078%, 70.196078%, 70.196078%)" stroke-opacity="1" stroke-miterlimit="10" d="M 500.308594 728.679688 C 526.664062 717.125 545.390625 697.964844 553.082031 670.261719 "/>
<path fill-rule="nonzero" fill="rgb(70.196078%, 70.196078%, 70.196078%)" fill-opacity="1" d="M 554.992188 663.390625 L 555.316406 670.882812 L 550.851562 669.640625 L 554.992188 663.390625 "/>
<path fill="none" stroke-width="5.5" stroke-linecap="butt" stroke-linejoin="miter" stroke="rgb(70.196078%, 70.196078%, 70.196078%)" stroke-opacity="1" stroke-miterlimit="10" d="M 277.613281 711.453125 C 305.421875 739.796875 339.25 754.136719 378.8125 750.945312 "/>
<path fill-rule="nonzero" fill="rgb(70.196078%, 70.196078%, 70.196078%)" fill-opacity="1" d="M 385.921875 750.371094 L 379 753.257812 L 378.628906 748.636719 L 385.921875 750.371094 "/>
<path fill="none" stroke-width="5.5" stroke-linecap="butt" stroke-linejoin="miter" stroke="rgb(70.196078%, 70.196078%, 70.196078%)" stroke-opacity="1" stroke-miterlimit="10" d="M 461.574219 555.339844 C 437.445312 555.761719 416.605469 564.421875 401.847656 583.476562 "/>
<path fill-rule="nonzero" fill="rgb(70.196078%, 70.196078%, 70.196078%)" fill-opacity="1" d="M 397.480469 589.117188 L 400.015625 582.058594 L 403.679688 584.898438 L 397.480469 589.117188 "/>
<path fill="none" stroke-width="5.5" stroke-linecap="butt" stroke-linejoin="miter" stroke="rgb(70.196078%, 70.196078%, 70.196078%)" stroke-opacity="1" stroke-miterlimit="10" d="M 536.5625 562.703125 C 516.933594 549.511719 495.320312 544.765625 472.78125 551.828125 "/>
<path fill-rule="nonzero" fill="rgb(70.196078%, 70.196078%, 70.196078%)" fill-opacity="1" d="M 465.972656 553.960938 L 472.085938 549.617188 L 473.472656 554.039062 L 465.972656 553.960938 "/>
<path fill="none" stroke-width="5.5" stroke-linecap="butt" stroke-linejoin="miter" stroke="rgb(70.196078%, 70.196078%, 70.196078%)" stroke-opacity="1" stroke-miterlimit="10" d="M 556.226562 658.941406 C 564.898438 628.132812 561.550781 598.597656 543.277344 572.347656 "/>
<path fill-rule="nonzero" fill="rgb(70.196078%, 70.196078%, 70.196078%)" fill-opacity="1" d="M 539.199219 566.496094 L 545.179688 571.023438 L 541.375 573.671875 L 539.199219 566.496094 "/>
<path fill="none" stroke-width="5.5" stroke-linecap="butt" stroke-linejoin="miter" stroke="rgb(70.196078%, 70.196078%, 70.196078%)" stroke-opacity="1" stroke-miterlimit="10" d="M 295.875 112.015625 C 260.910156 132.042969 238.164062 161.574219 231.128906 201.230469 "/>
<path fill-rule="nonzero" fill="rgb(70.196078%, 70.196078%, 70.196078%)" fill-opacity="1" d="M 229.882812 208.253906 L 228.847656 200.824219 L 233.410156 201.636719 L 229.882812 208.253906 "/>
<path fill="none" stroke-width="5.5" stroke-linecap="butt" stroke-linejoin="miter" stroke="rgb(70.196078%, 70.196078%, 70.196078%)" stroke-opacity="1" stroke-miterlimit="10" d="M 169.464844 609.625 C 187.140625 656.808594 219.101562 690.542969 266.535156 707.496094 "/>
<path fill-rule="nonzero" fill="rgb(70.196078%, 70.196078%, 70.196078%)" fill-opacity="1" d="M 273.25 709.894531 L 265.753906 709.675781 L 267.316406 705.3125 L 273.25 709.894531 "/>
<path fill="none" stroke-width="5.5" stroke-linecap="butt" stroke-linejoin="miter" stroke="rgb(70.196078%, 70.196078%, 70.196078%)" stroke-opacity="1" stroke-miterlimit="10" d="M 166.628906 406.578125 C 137.089844 470.382812 135.328125 534.988281 164.570312 598.921875 "/>
<path fill-rule="nonzero" fill="rgb(70.196078%, 70.196078%, 70.196078%)" fill-opacity="1" d="M 167.535156 605.40625 L 162.460938 599.886719 L 166.675781 597.957031 L 167.535156 605.40625 "/>
<path fill="none" stroke-width="5.5" stroke-linecap="butt" stroke-linejoin="miter" stroke="rgb(70.196078%, 70.196078%, 70.196078%)" stroke-opacity="1" stroke-miterlimit="10" d="M 229.074219 212.808594 C 180.542969 263.945312 158.148438 324.753906 165.414062 394.871094 "/>
<path fill-rule="nonzero" fill="rgb(70.196078%, 70.196078%, 70.196078%)" fill-opacity="1" d="M 166.148438 401.964844 L 163.109375 395.109375 L 167.71875 394.628906 L 166.148438 401.964844 "/>
<path fill="none" stroke-width="5.5" stroke-linecap="butt" stroke-linejoin="miter" stroke="rgb(70.196078%, 70.196078%, 70.196078%)" stroke-opacity="1" stroke-miterlimit="10" d="M 377.042969 50 C 344.140625 55.941406 317.972656 72.621094 301.625 101.765625 "/>
<path fill-rule="nonzero" fill="rgb(70.196078%, 70.196078%, 70.196078%)" fill-opacity="1" d="M 298.132812 107.984375 L 299.601562 100.628906 L 303.644531 102.898438 L 298.132812 107.984375 "/>
<path fill-rule="nonzero" fill="rgb(14.901961%, 14.901961%, 14.901961%)" fill-opacity="1" stroke-width="1" stroke-linecap="butt" stroke-linejoin="miter" stroke="rgb(14.901961%, 14.901961%, 14.901961%)" stroke-opacity="1" stroke-miterlimit="10" d="M 730.535156 532.050781 L 736.386719 520.351562 L 742.238281 532.050781 Z M 730.535156 532.050781 "/>
<path fill-rule="nonzero" fill="rgb(70.196078%, 70.196078%, 70.196078%)" fill-opacity="1" stroke-width="1" stroke-linecap="butt" stroke-linejoin="miter" stroke="rgb(70.196078%, 70.196078%, 70.196078%)" stroke-opacity="1" stroke-miterlimit="10" d="M 695.863281 445.222656 C 695.863281 451.6875 686.164062 451.6875 686.164062 445.222656 C 686.164062 438.753906 695.863281 438.753906 695.863281 445.222656 "/>
<path fill-rule="nonzero" fill="rgb(70.196078%, 70.196078%, 70.196078%)" fill-opacity="1" stroke-width="1" stroke-linecap="butt" stroke-linejoin="miter" stroke="rgb(70.196078%, 70.196078%, 70.196078%)" stroke-opacity="1" stroke-miterlimit="10" d="M 716.175781 318.007812 C 716.175781 324.476562 706.476562 324.476562 706.476562 318.007812 C 706.476562 311.542969 716.175781 311.542969 716.175781 318.007812 "/>
<path fill-rule="nonzero" fill="rgb(70.196078%, 70.196078%, 70.196078%)" fill-opacity="1" stroke-width="1" stroke-linecap="butt" stroke-linejoin="miter" stroke="rgb(70.196078%, 70.196078%, 70.196078%)" stroke-opacity="1" stroke-miterlimit="10" d="M 754.851562 371.070312 C 754.851562 377.535156 745.148438 377.535156 745.148438 371.070312 C 745.148438 364.601562 754.851562 364.601562 754.851562 371.070312 "/>
<path fill-rule="nonzero" fill="rgb(70.196078%, 70.196078%, 70.196078%)" fill-opacity="1" stroke-width="1" stroke-linecap="butt" stroke-linejoin="miter" stroke="rgb(70.196078%, 70.196078%, 70.196078%)" stroke-opacity="1" stroke-miterlimit="10" d="M 621.5625 354.398438 C 621.5625 360.863281 611.863281 360.863281 611.863281 354.398438 C 611.863281 347.929688 621.5625 347.929688 621.5625 354.398438 "/>
<path fill-rule="nonzero" fill="rgb(70.196078%, 70.196078%, 70.196078%)" fill-opacity="1" stroke-width="1" stroke-linecap="butt" stroke-linejoin="miter" stroke="rgb(70.196078%, 70.196078%, 70.196078%)" stroke-opacity="1" stroke-miterlimit="10" d="M 529.078125 321.210938 C 529.078125 327.675781 519.375 327.675781 519.375 321.210938 C 519.375 314.742188 529.078125 314.742188 529.078125 321.210938 "/>
<path fill-rule="nonzero" fill="rgb(70.196078%, 70.196078%, 70.196078%)" fill-opacity="1" stroke-width="1" stroke-linecap="butt" stroke-linejoin="miter" stroke="rgb(70.196078%, 70.196078%, 70.196078%)" stroke-opacity="1" stroke-miterlimit="10" d="M 426.425781 317.429688 C 426.425781 323.894531 416.726562 323.894531 416.726562 317.429688 C 416.726562 310.960938 426.425781 310.960938 426.425781 317.429688 "/>
<path fill-rule="nonzero" fill="rgb(70.196078%, 70.196078%, 70.196078%)" fill-opacity="1" stroke-width="1" stroke-linecap="butt" stroke-linejoin="miter" stroke="rgb(70.196078%, 70.196078%, 70.196078%)" stroke-opacity="1" stroke-miterlimit="10" d="M 338.570312 315.054688 C 338.570312 321.523438 328.867188 321.523438 328.867188 315.054688 C 328.867188 308.589844 338.570312 308.589844 338.570312 315.054688 "/>
<path fill-rule="nonzero" fill="rgb(70.196078%, 70.196078%, 70.196078%)" fill-opacity="1" stroke-width="1" stroke-linecap="butt" stroke-linejoin="miter" stroke="rgb(70.196078%, 70.196078%, 70.196078%)" stroke-opacity="1" stroke-miterlimit="10" d="M 246.371094 325.792969 C 246.371094 332.261719 236.671875 332.261719 236.671875 325.792969 C 236.671875 319.328125 246.371094 319.328125 246.371094 325.792969 "/>
<path fill-rule="nonzero" fill="rgb(70.196078%, 70.196078%, 70.196078%)" fill-opacity="1" stroke-width="1" stroke-linecap="butt" stroke-linejoin="miter" stroke="rgb(70.196078%, 70.196078%, 70.196078%)" stroke-opacity="1" stroke-miterlimit="10" d="M 118.570312 311.703125 C 118.570312 318.171875 108.871094 318.171875 108.871094 311.703125 C 108.871094 305.238281 118.570312 305.238281 118.570312 311.703125 "/>
<path fill-rule="nonzero" fill="rgb(70.196078%, 70.196078%, 70.196078%)" fill-opacity="1" stroke-width="1" stroke-linecap="butt" stroke-linejoin="miter" stroke="rgb(70.196078%, 70.196078%, 70.196078%)" stroke-opacity="1" stroke-miterlimit="10" d="M 207.203125 501.636719 C 207.203125 508.101562 197.503906 508.101562 197.503906 501.636719 C 197.503906 495.167969 207.203125 495.167969 207.203125 501.636719 "/>
<path fill-rule="nonzero" fill="rgb(70.196078%, 70.196078%, 70.196078%)" fill-opacity="1" stroke-width="1" stroke-linecap="butt" stroke-linejoin="miter" stroke="rgb(70.196078%, 70.196078%, 70.196078%)" stroke-opacity="1" stroke-miterlimit="10" d="M 277.542969 515.582031 C 277.542969 522.046875 267.84375 522.046875 267.84375 515.582031 C 267.84375 509.113281 277.542969 509.113281 277.542969 515.582031 "/>
<path fill-rule="nonzero" fill="rgb(70.196078%, 70.196078%, 70.196078%)" fill-opacity="1" stroke-width="1" stroke-linecap="butt" stroke-linejoin="miter" stroke="rgb(70.196078%, 70.196078%, 70.196078%)" stroke-opacity="1" stroke-miterlimit="10" d="M 54.851562 401.621094 C 54.851562 408.089844 45.148438 408.089844 45.148438 401.621094 C 45.148438 395.15625 54.851562 395.15625 54.851562 401.621094 "/>
<path fill-rule="nonzero" fill="rgb(70.196078%, 70.196078%, 70.196078%)" fill-opacity="1" stroke-width="1" stroke-linecap="butt" stroke-linejoin="miter" stroke="rgb(70.196078%, 70.196078%, 70.196078%)" stroke-opacity="1" stroke-miterlimit="10" d="M 98.613281 499.480469 C 98.613281 505.949219 88.914062 505.949219 88.914062 499.480469 C 88.914062 493.015625 98.613281 493.015625 98.613281 499.480469 "/>
<path fill-rule="nonzero" fill="rgb(70.196078%, 70.196078%, 70.196078%)" fill-opacity="1" stroke-width="1" stroke-linecap="butt" stroke-linejoin="miter" stroke="rgb(70.196078%, 70.196078%, 70.196078%)" stroke-opacity="1" stroke-miterlimit="10" d="M 342.628906 543.113281 C 342.628906 549.582031 332.929688 549.582031 332.929688 543.113281 C 332.929688 536.648438 342.628906 536.648438 342.628906 543.113281 "/>
<path fill-rule="nonzero" fill="rgb(70.196078%, 70.196078%, 70.196078%)" fill-opacity="1" stroke-width="1" stroke-linecap="butt" stroke-linejoin="miter" stroke="rgb(70.196078%, 70.196078%, 70.196078%)" stroke-opacity="1" stroke-miterlimit="10" d="M 399.503906 592.765625 C 399.503906 599.230469 389.804688 599.230469 389.804688 592.765625 C 389.804688 586.296875 399.503906 586.296875 399.503906 592.765625 "/>
<path fill-rule="nonzero" fill="rgb(70.196078%, 70.196078%, 70.196078%)" fill-opacity="1" stroke-width="1" stroke-linecap="butt" stroke-linejoin="miter" stroke="rgb(70.196078%, 70.196078%, 70.196078%)" stroke-opacity="1" stroke-miterlimit="10" d="M 395.386719 750 C 395.386719 756.464844 385.683594 756.464844 385.683594 750 C 385.683594 743.535156 395.386719 743.535156 395.386719 750 "/>
<path fill-rule="nonzero" fill="rgb(70.196078%, 70.196078%, 70.196078%)" fill-opacity="1" stroke-width="1" stroke-linecap="butt" stroke-linejoin="miter" stroke="rgb(70.196078%, 70.196078%, 70.196078%)" stroke-opacity="1" stroke-miterlimit="10" d="M 505.160156 728.679688 C 505.160156 735.148438 495.460938 735.148438 495.460938 728.679688 C 495.460938 722.214844 505.160156 722.214844 505.160156 728.679688 "/>
<path fill-rule="nonzero" fill="rgb(70.196078%, 70.196078%, 70.196078%)" fill-opacity="1" stroke-width="1" stroke-linecap="butt" stroke-linejoin="miter" stroke="rgb(70.196078%, 70.196078%, 70.196078%)" stroke-opacity="1" stroke-miterlimit="10" d="M 282.464844 711.453125 C 282.464844 717.921875 272.761719 717.921875 272.761719 711.453125 C 272.761719 704.988281 282.464844 704.988281 282.464844 711.453125 "/>
<path fill-rule="nonzero" fill="rgb(70.196078%, 70.196078%, 70.196078%)" fill-opacity="1" stroke-width="1" stroke-linecap="butt" stroke-linejoin="miter" stroke="rgb(70.196078%, 70.196078%, 70.196078%)" stroke-opacity="1" stroke-miterlimit="10" d="M 466.425781 555.339844 C 466.425781 561.808594 456.722656 561.808594 456.722656 555.339844 C 456.722656 548.875 466.425781 548.875 466.425781 555.339844 "/>
<path fill-rule="nonzero" fill="rgb(70.196078%, 70.196078%, 70.196078%)" fill-opacity="1" stroke-width="1" stroke-linecap="butt" stroke-linejoin="miter" stroke="rgb(70.196078%, 70.196078%, 70.196078%)" stroke-opacity="1" stroke-miterlimit="10" d="M 541.410156 562.703125 C 541.410156 569.167969 531.710938 569.167969 531.710938 562.703125 C 531.710938 556.234375 541.410156 556.234375 541.410156 562.703125 "/>
<path fill-rule="nonzero" fill="rgb(70.196078%, 70.196078%, 70.196078%)" fill-opacity="1" stroke-width="1" stroke-linecap="butt" stroke-linejoin="miter" stroke="rgb(70.196078%, 70.196078%, 70.196078%)" stroke-opacity="1" stroke-miterlimit="10" d="M 561.078125 658.941406 C 561.078125 665.40625 551.378906 665.40625 551.378906 658.941406 C 551.378906 652.472656 561.078125 652.472656 561.078125 658.941406 "/>
<path fill-rule="nonzero" fill="rgb(70.196078%, 70.196078%, 70.196078%)" fill-opacity="1" stroke-width="1" stroke-linecap="butt" stroke-linejoin="miter" stroke="rgb(70.196078%, 70.196078%, 70.196078%)" stroke-opacity="1" stroke-miterlimit="10" d="M 300.722656 112.015625 C 300.722656 118.484375 291.023438 118.484375 291.023438 112.015625 C 291.023438 105.550781 300.722656 105.550781 300.722656 112.015625 "/>
<path fill-rule="nonzero" fill="rgb(70.196078%, 70.196078%, 70.196078%)" fill-opacity="1" stroke-width="1" stroke-linecap="butt" stroke-linejoin="miter" stroke="rgb(70.196078%, 70.196078%, 70.196078%)" stroke-opacity="1" stroke-miterlimit="10" d="M 174.316406 609.625 C 174.316406 616.09375 164.617188 616.09375 164.617188 609.625 C 164.617188 603.160156 174.316406 603.160156 174.316406 609.625 "/>
<path fill-rule="nonzero" fill="rgb(70.196078%, 70.196078%, 70.196078%)" fill-opacity="1" stroke-width="1" stroke-linecap="butt" stroke-linejoin="miter" stroke="rgb(70.196078%, 70.196078%, 70.196078%)" stroke-opacity="1" stroke-miterlimit="10" d="M 171.476562 406.578125 C 171.476562 413.042969 161.777344 413.042969 161.777344 406.578125 C 161.777344 400.109375 171.476562 400.109375 171.476562 406.578125 "/>
<path fill-rule="nonzero" fill="rgb(70.196078%, 70.196078%, 70.196078%)" fill-opacity="1" stroke-width="1" stroke-linecap="butt" stroke-linejoin="miter" stroke="rgb(70.196078%, 70.196078%, 70.196078%)" stroke-opacity="1" stroke-miterlimit="10" d="M 233.921875 212.808594 C 233.921875 219.277344 224.222656 219.277344 224.222656 212.808594 C 224.222656 206.34375 233.921875 206.34375 233.921875 212.808594 "/>
<path fill-rule="nonzero" fill="rgb(100%, 84.313725%, 0%)" fill-opacity="1" stroke-width="1" stroke-linecap="butt" stroke-linejoin="miter" stroke="rgb(100%, 84.313725%, 0%)" stroke-opacity="1" stroke-miterlimit="10" d="M 371.695312 44.648438 L 382.394531 44.648438 L 382.394531 55.347656 L 371.695312 55.347656 Z M 371.695312 44.648438 "/>
</svg>
