<?xml version="1.0" encoding="UTF-8"?>
<svg xmlns="http://www.w3.org/2000/svg" xmlns:xlink="http://www.w3.org/1999/xlink" width="800" height="800" viewBox="0 0 800 800">
<rect x="-80" y="-80" width="960" height="960" fill="rgb(100%, 100%, 100%)" fill-opacity="1"/>
<path fill="none" stroke-width="4.5" stroke-linecap="butt" stroke-linejoin="miter" stroke="rgb(70.196078%, 70.196078%, 70.196078%)" stroke-opacity="1" stroke-miterlimit="10" d="M 217.5 323.691406 C 237.730469 347.730469 263.570312 361.339844 294.96875 360.953125 "/>
<path fill-rule="nonzero" fill="rgb(70.196078%, 70.196078%, 70.196078%)" fill-opacity="1" d="M 302.101562 360.867188 L 294.996094 363.269531 L 294.941406 358.636719 L 302.101562 360.867188 "/>
<path fill="none" stroke-width="4.5" stroke-linecap="butt" stroke-linejoin="miter" stroke="rgb(70.196078%, 70.196078%, 70.196078%)" stroke-opacity="1" stroke-miterlimit="10" d="M 186.191406 170.816406 C 172.875 222.25 180.085938 270.683594 210.714844 314.078125 "/>
<path fill-rule="nonzero" fill="rgb(70.196078%, 70.196078%, 70.196078%)" fill-opacity="1" d="M 214.828125 319.90625 L 208.820312 315.414062 L 212.605469 312.742188 L 214.828125 319.90625 "/>
<path fill="none" stroke-width="5.5" stroke-linecap="butt" stroke-linejoin="miter" stroke="rgb(70.196078%, 70.196078%, 70.196078%)" stroke-opacity="1" stroke-miterlimit="10" d="M 514.792969 708.511719 C 518.824219 725.003906 527.871094 738.285156 543.359375 745.128906 "/>
<path fill-rule="nonzero" fill="rgb(70.196078%, 70.196078%, 70.196078%)" fill-opacity="1" d="M 549.882812 748.011719 L 542.421875 747.25 L 544.296875 743.007812 L 549.882812 748.011719 "/>
<path fill="none" stroke-width="4.5" stroke-linecap="butt" stroke-linejoin="miter" stroke="rgb(70.196078%, 70.196078%, 70.196078%)" stroke-opacity="1" stroke-miterlimit="10" d="M 551.441406 568.550781 C 570.332031 519.957031 568.894531 471.910156 544.015625 426.105469 "/>
<path fill-rule="nonzero" fill="rgb(70.196078%, 70.196078%, 70.196078%)" fill-opacity="1" d="M 540.609375 419.839844 L 546.050781 425 L 541.980469 427.210938 L 540.609375 419.839844 "/>
<path fill="none" stroke-width="1.5" stroke-linecap="butt" stroke-linejoin="miter" stroke="rgb(12.156863%, 47.058824%, 70.588235%)" stroke-opacity="1" stroke-miterlimit="10" d="M 551.441406 568.550781 C 527.511719 560.054688 503.839844 560.976562 482.203125 574.21875 "/>
<path fill-rule="nonzero" fill="rgb(12.156863%, 47.058824%, 70.588235%)" fill-opacity="1" d="M 476.117188 577.941406 L 480.992188 572.242188 L 483.414062 576.195312 L 476.117188 577.941406 "/>
<path fill="none" stroke-width="5.5" stroke-linecap="butt" stroke-linejoin="miter" stroke="rgb(70.196078%, 70.196078%, 70.196078%)" stroke-opacity="1" stroke-miterlimit="10" d="M 554.386719 750 C 580.652344 693.375 582.382812 635.964844 556.347656 579.246094 "/>
<path fill-rule="nonzero" fill="rgb(70.196078%, 70.196078%, 70.196078%)" fill-opacity="1" d="M 553.375 572.761719 L 558.457031 578.277344 L 554.242188 580.210938 L 553.375 572.761719 "/>
<path fill="none" stroke-width="4.5" stroke-linecap="butt" stroke-linejoin="miter" stroke="rgb(70.196078%, 70.196078%, 70.196078%)" stroke-opacity="1" stroke-miterlimit="10" d="M 247.003906 92.4375 C 217.664062 106.089844 197.234375 128.128906 189.132812 159.4375 "/>
<path fill-rule="nonzero" fill="rgb(70.196078%, 70.196078%, 70.196078%)" fill-opacity="1" d="M 187.347656 166.34375 L 186.890625 158.859375 L 191.378906 160.019531 L 187.347656 166.34375 "/>
<path fill="none" stroke-width="4.5" stroke-linecap="butt" stroke-linejoin="miter" stroke="rgb(70.196078%, 70.196078%, 70.196078%)" stroke-opacity="1" stroke-miterlimit="10" d="M 340.199219 50 C 306.707031 48.445312 277.398438 58.898438 254.898438 83.726562 "/>
<path fill-rule="nonzero" fill="rgb(70.196078%, 70.196078%, 70.196078%)" fill-opacity="1" d="M 250.109375 89.011719 L 253.179688 82.167969 L 256.613281 85.28125 L 250.109375 89.011719 "/>
<path fill="none" stroke-width="4.5" stroke-linecap="butt" stroke-linejoin="miter" stroke="rgb(70.196078%, 70.196078%, 70.196078%)" stroke-opacity="1" stroke-miterlimit="10" d="M 482.851562 196.972656 C 485.851562 158.421875 474.742188 124.398438 447.058594 97.433594 "/>
<path fill-rule="nonzero" fill="rgb(70.196078%, 70.196078%, 70.196078%)" fill-opacity="1" d="M 441.949219 92.457031 L 448.675781 95.773438 L 445.441406 99.09375 L 441.949219 92.457031 "/>
<path fill="none" stroke-width="4.5" stroke-linecap="butt" stroke-linejoin="miter" stroke="rgb(70.196078%, 70.196078%, 70.196078%)" stroke-opacity="1" stroke-miterlimit="10" d="M 538.398438 415.769531 C 553.734375 338.683594 538.570312 268.109375 490.113281 206.238281 "/>
<path fill-rule="nonzero" fill="rgb(70.196078%, 70.196078%, 70.196078%)" fill-opacity="1" d="M 485.714844 200.625 L 491.9375 204.808594 L 488.289062 207.667969 L 485.714844 200.625 "/>
<path fill="none" stroke-width="4.5" stroke-linecap="butt" stroke-linejoin="miter" stroke="rgb(70.196078%, 70.196078%, 70.196078%)" stroke-opacity="1" stroke-miterlimit="10" d="M 438.632812 89.226562 C 415.675781 63.039062 386.746094 48.671875 351.953125 49.664062 "/>
<path fill-rule="nonzero" fill="rgb(70.196078%, 70.196078%, 70.196078%)" fill-opacity="1" d="M 344.820312 49.867188 L 351.886719 47.347656 L 352.015625 51.980469 L 344.820312 49.867188 "/>
<path fill="none" stroke-width="5.5" stroke-linecap="butt" stroke-linejoin="miter" stroke="rgb(70.196078%, 70.196078%, 70.196078%)" stroke-opacity="1" stroke-miterlimit="10" d="M 609.480469 687.96875 C 579.046875 679.773438 549.992188 683.386719 524.359375 701.683594 "/>
<path fill-rule="nonzero" fill="rgb(70.196078%, 70.196078%, 70.196078%)" fill-opacity="1" d="M 518.554688 705.828125 L 523.011719 699.796875 L 525.707031 703.570312 L 518.554688 705.828125 "/>
<path fill="none" stroke-width="5.5" stroke-linecap="butt" stroke-linejoin="miter" stroke="rgb(70.196078%, 70.196078%, 70.196078%)" stroke-opacity="1" stroke-miterlimit="10" d="M 681.738281 701.304688 C 663.855469 686.890625 643.335938 680.449219 620.941406 685.425781 "/>
<path fill-rule="nonzero" fill="rgb(70.196078%, 70.196078%, 70.196078%)" fill-opacity="1" d="M 613.980469 686.96875 L 620.4375 683.160156 L 621.445312 687.6875 L 613.980469 686.96875 "/>
<path fill="none" stroke-width="5.5" stroke-linecap="butt" stroke-linejoin="miter" stroke="rgb(70.196078%, 70.196078%, 70.196078%)" stroke-opacity="1" stroke-miterlimit="10" d="M 750 687.082031 C 729.453125 680.789062 709.339844 682.277344 691.671875 694.457031 "/>
<path fill-rule="nonzero" fill="rgb(70.196078%, 70.196078%, 70.196078%)" fill-opacity="1" d="M 685.800781 698.503906 L 690.359375 692.546875 L 692.988281 696.363281 L 685.800781 698.503906 "/>
<path fill="none" stroke-width="1.5" stroke-linecap="butt" stroke-linejoin="miter" stroke="rgb(12.156863%, 47.058824%, 70.588235%)" stroke-opacity="1" stroke-miterlimit="10" d="M 379.917969 234.996094 C 384.082031 210.761719 379.34375 188.285156 363.101562 169.859375 "/>
<path fill-rule="nonzero" fill="rgb(12.156863%, 47.058824%, 70.588235%)" fill-opacity="1" d="M 358.382812 164.507812 L 364.839844 168.328125 L 361.363281 171.390625 L 358.382812 164.507812 "/>
<path fill="none" stroke-width="4.5" stroke-linecap="butt" stroke-linejoin="miter" stroke="rgb(70.196078%, 70.196078%, 70.196078%)" stroke-opacity="1" stroke-miterlimit="10" d="M 379.917969 234.996094 C 333.394531 217.015625 287.410156 218.433594 243.664062 242.363281 "/>
<path fill-rule="nonzero" fill="rgb(70.196078%, 70.196078%, 70.196078%)" fill-opacity="1" d="M 237.40625 245.789062 L 242.554688 240.332031 L 244.777344 244.398438 L 237.40625 245.789062 "/>
<path fill="none" stroke-width="5.5" stroke-linecap="butt" stroke-linejoin="miter" stroke="rgb(70.196078%, 70.196078%, 70.196078%)" stroke-opacity="1" stroke-miterlimit="10" d="M 542.667969 250.4375 C 495.011719 221.324219 444.117188 213.828125 391.09375 231.3125 "/>
<path fill-rule="nonzero" fill="rgb(70.196078%, 70.196078%, 70.196078%)" fill-opacity="1" d="M 384.316406 233.542969 L 390.367188 229.109375 L 391.816406 233.511719 L 384.316406 233.542969 "/>
<path fill="none" stroke-width="5.5" stroke-linecap="butt" stroke-linejoin="miter" stroke="rgb(70.196078%, 70.196078%, 70.196078%)" stroke-opacity="1" stroke-miterlimit="10" d="M 570.363281 319.5 C 573.003906 296.34375 567.363281 275.265625 550.949219 258.761719 "/>
<path fill-rule="nonzero" fill="rgb(70.196078%, 70.196078%, 70.196078%)" fill-opacity="1" d="M 545.917969 253.703125 L 552.589844 257.128906 L 549.304688 260.394531 L 545.917969 253.703125 "/>
<path fill="none" stroke-width="5.5" stroke-linecap="butt" stroke-linejoin="miter" stroke="rgb(70.196078%, 70.196078%, 70.196078%)" stroke-opacity="1" stroke-miterlimit="10" d="M 471.4375 347.058594 C 504.390625 353.800781 535.054688 347.992188 561.214844 326.882812 "/>
<path fill-rule="nonzero" fill="rgb(70.196078%, 70.196078%, 70.196078%)" fill-opacity="1" d="M 566.769531 322.402344 L 562.671875 328.6875 L 559.761719 325.078125 L 566.769531 322.402344 "/>
<path fill="none" stroke-width="1.5" stroke-linecap="butt" stroke-linejoin="miter" stroke="rgb(12.156863%, 47.058824%, 70.588235%)" stroke-opacity="1" stroke-miterlimit="10" d="M 473.878906 579.3125 C 450.316406 588.675781 433.148438 604.945312 425.613281 629.128906 "/>
<path fill-rule="nonzero" fill="rgb(12.156863%, 47.058824%, 70.588235%)" fill-opacity="1" d="M 423.492188 635.9375 L 423.402344 628.4375 L 427.828125 629.816406 L 423.492188 635.9375 "/>
<path fill="none" stroke-width="5.5" stroke-linecap="butt" stroke-linejoin="miter" stroke="rgb(70.196078%, 70.196078%, 70.196078%)" stroke-opacity="1" stroke-miterlimit="10" d="M 402.621094 369.386719 C 424.796875 373.5 445.550781 369.507812 462.566406 354.75 "/>
<path fill-rule="nonzero" fill="rgb(70.196078%, 70.196078%, 70.196078%)" fill-opacity="1" d="M 467.957031 350.078125 L 464.085938 356.5 L 461.046875 353 L 467.957031 350.078125 "/>
<path fill="none" stroke-width="1.5" stroke-linecap="butt" stroke-linejoin="miter" stroke="rgb(12.156863%, 47.058824%, 70.588235%)" stroke-opacity="1" stroke-miterlimit="10" d="M 203.0625 580.898438 C 223.597656 562.199219 234.8125 538.902344 233.304688 511.191406 "/>
<path fill-rule="nonzero" fill="rgb(12.156863%, 47.058824%, 70.588235%)" fill-opacity="1" d="M 232.917969 504.070312 L 235.621094 511.066406 L 230.992188 511.316406 L 232.917969 504.070312 "/>
<path fill="none" stroke-width="1.5" stroke-linecap="butt" stroke-linejoin="miter" stroke="rgb(12.156863%, 47.058824%, 70.588235%)" stroke-opacity="1" stroke-miterlimit="10" d="M 232.777344 501.445312 C 257.679688 490.898438 275.535156 473.121094 283.070312 447.171875 "/>
<path fill-rule="nonzero" fill="rgb(12.156863%, 47.058824%, 70.588235%)" fill-opacity="1" d="M 285.058594 440.320312 L 285.292969 447.816406 L 280.84375 446.523438 L 285.058594 440.320312 "/>
<path fill="none" stroke-width="5.5" stroke-linecap="butt" stroke-linejoin="miter" stroke="rgb(70.196078%, 70.196078%, 70.196078%)" stroke-opacity="1" stroke-miterlimit="10" d="M 307.195312 360.804688 C 333.445312 377.523438 361.894531 382.722656 391.453125 373.042969 "/>
<path fill-rule="nonzero" fill="rgb(70.196078%, 70.196078%, 70.196078%)" fill-opacity="1" d="M 398.230469 370.824219 L 392.171875 375.246094 L 390.730469 370.839844 L 398.230469 370.824219 "/>
<path fill="none" stroke-width="1.5" stroke-linecap="butt" stroke-linejoin="miter" stroke="rgb(12.156863%, 47.058824%, 70.588235%)" stroke-opacity="1" stroke-miterlimit="10" d="M 285.789062 437.796875 C 303.183594 419.617188 312.019531 397.839844 308.773438 372.917969 "/>
<path fill-rule="nonzero" fill="rgb(12.156863%, 47.058824%, 70.588235%)" fill-opacity="1" d="M 307.851562 365.84375 L 311.070312 372.617188 L 306.472656 373.21875 L 307.851562 365.84375 "/>
<path fill="none" stroke-width="1.5" stroke-linecap="butt" stroke-linejoin="miter" stroke="rgb(12.156863%, 47.058824%, 70.588235%)" stroke-opacity="1" stroke-miterlimit="10" d="M 225.542969 665.777344 C 231.660156 637.570312 227.078125 611.117188 209.132812 588.539062 "/>
<path fill-rule="nonzero" fill="rgb(12.156863%, 47.058824%, 70.588235%)" fill-opacity="1" d="M 204.695312 582.953125 L 210.949219 587.097656 L 207.320312 589.980469 L 204.695312 582.953125 "/>
<path fill="none" stroke-width="1.5" stroke-linecap="butt" stroke-linejoin="miter" stroke="rgb(12.156863%, 47.058824%, 70.588235%)" stroke-opacity="1" stroke-miterlimit="10" d="M 304.671875 664.464844 C 281.664062 653.015625 257.777344 651.070312 234.421875 661.726562 "/>
<path fill-rule="nonzero" fill="rgb(12.156863%, 47.058824%, 70.588235%)" fill-opacity="1" d="M 227.933594 664.6875 L 233.460938 659.621094 L 235.382812 663.835938 L 227.933594 664.6875 "/>
<path fill="none" stroke-width="1.5" stroke-linecap="butt" stroke-linejoin="miter" stroke="rgb(12.156863%, 47.058824%, 70.588235%)" stroke-opacity="1" stroke-miterlimit="10" d="M 361.476562 629.265625 C 340.320312 630.640625 322.308594 639.054688 310.234375 656.449219 "/>
<path fill-rule="nonzero" fill="rgb(12.156863%, 47.058824%, 70.588235%)" fill-opacity="1" d="M 306.167969 662.308594 L 308.332031 655.128906 L 312.140625 657.769531 L 306.167969 662.308594 "/>
<path fill="none" stroke-width="1.5" stroke-linecap="butt" stroke-linejoin="miter" stroke="rgb(12.156863%, 47.058824%, 70.588235%)" stroke-opacity="1" stroke-miterlimit="10" d="M 422.710938 638.445312 C 407.195312 626.78125 389.636719 621.792969 370.90625 626.761719 "/>
<path fill-rule="nonzero" fill="rgb(12.156863%, 47.058824%, 70.588235%)" fill-opacity="1" d="M 364.011719 628.59375 L 370.3125 624.523438 L 371.5 629.003906 L 364.011719 628.59375 "/>
<path fill="none" stroke-width="3.5" stroke-linecap="butt" stroke-linejoin="miter" stroke="rgb(70.196078%, 70.196078%, 70.196078%)" stroke-opacity="1" stroke-miterlimit="10" d="M 117.953125 339.351562 C 95.265625 337.285156 74.757812 343.226562 59.035156 359.667969 "/>
<path fill-rule="nonzero" fill="rgb(70.196078%, 70.196078%, 70.196078%)" fill-opacity="1" d="M 54.105469 364.824219 L 57.363281 358.066406 L 60.710938 361.269531 L 54.105469 364.824219 "/>
<path fill="none" stroke-width="1.5" stroke-linecap="butt" stroke-linejoin="miter" stroke="rgb(99.215686%, 74.901961%, 43.529412%)" stroke-opacity="1" stroke-miterlimit="10" d="M 233.34375 248.011719 C 202.769531 231.75 170.820312 228.597656 138.8125 241.765625 "/>
<path fill-rule="nonzero" fill="rgb(99.215686%, 74.901961%, 43.529412%)" fill-opacity="1" d="M 132.214844 244.480469 L 137.929688 239.621094 L 139.695312 243.910156 L 132.214844 244.480469 "/>
<path fill="none" stroke-width="3.5" stroke-linecap="butt" stroke-linejoin="miter" stroke="rgb(70.196078%, 70.196078%, 70.196078%)" stroke-opacity="1" stroke-miterlimit="10" d="M 233.34375 248.011719 C 184.582031 258.515625 146.917969 284.945312 123.484375 328.964844 "/>
<path fill-rule="nonzero" fill="rgb(70.196078%, 70.196078%, 70.196078%)" fill-opacity="1" d="M 120.132812 335.261719 L 121.4375 327.875 L 125.527344 330.054688 L 120.132812 335.261719 "/>
<path fill-rule="nonzero" fill="rgb(70.196078%, 70.196078%, 70.196078%)" fill-opacity="1" stroke-width="1" stroke-linecap="butt" stroke-linejoin="miter" stroke="rgb(70.196078%, 70.196078%, 70.196078%)" stroke-opacity="1" stroke-miterlimit="10" d="M 222.347656 323.691406 C 222.347656 330.15625 212.648438 330.15625 212.648438 323.691406 C 212.648438 317.222656 222.347656 317.222656 222.347656 323.691406 "/>
<path fill-rule="nonzero" fill="rgb(70.196078%, 70.196078%, 70.196078%)" fill-opacity="1" stroke-width="1" stroke-linecap="butt" stroke-linejoin="miter" stroke="rgb(70.196078%, 70.196078%, 70.196078%)" stroke-opacity="1" stroke-miterlimit="10" d="M 191.039062 170.816406 C 191.039062 177.285156 181.339844 177.285156 181.339844 170.816406 C 181.339844 164.351562 191.039062 164.351562 191.039062 170.816406 "/>
<path fill-rule="nonzero" fill="rgb(70.196078%, 70.196078%, 70.196078%)" fill-opacity="1" stroke-width="1" stroke-linecap="butt" stroke-linejoin="miter" stroke="rgb(70.196078%, 70.196078%, 70.196078%)" stroke-opacity="1" stroke-miterlimit="10" d="M 519.644531 708.511719 C 519.644531 714.980469 509.945312 714.980469 509.945312 708.511719 C 509.945312 702.046875 519.644531 702.046875 519.644531 708.511719 "/>
<path fill-rule="nonzero" fill="rgb(70.196078%, 70.196078%, 70.196078%)" fill-opacity="1" stroke-width="1" stroke-linecap="butt" stroke-linejoin="miter" stroke="rgb(70.196078%, 70.196078%, 70.196078%)" stroke-opacity="1" stroke-miterlimit="10" d="M 556.289062 568.550781 C 556.289062 575.015625 546.589844 575.015625 546.589844 568.550781 C 546.589844 562.082031 556.289062 562.082031 556.289062 568.550781 "/>
<path fill-rule="nonzero" fill="rgb(70.196078%, 70.196078%, 70.196078%)" fill-opacity="1" stroke-width="1" stroke-linecap="butt" stroke-linejoin="miter" stroke="rgb(70.196078%, 70.196078%, 70.196078%)" stroke-opacity="1" stroke-miterlimit="10" d="M 559.238281 750 C 559.238281 756.464844 549.535156 756.464844 549.535156 750 C 549.535156 743.535156 559.238281 743.535156 559.238281 750 "/>
<path fill-rule="nonzero" fill="rgb(70.196078%, 70.196078%, 70.196078%)" fill-opacity="1" stroke-width="1" stroke-linecap="butt" stroke-linejoin="miter" stroke="rgb(70.196078%, 70.196078%, 70.196078%)" stroke-opacity="1" stroke-miterlimit="10" d="M 251.855469 92.4375 C 251.855469 98.902344 242.152344 98.902344 242.152344 92.4375 C 242.152344 85.96875 251.855469 85.96875 251.855469 92.4375 "/>
<path fill-rule="nonzero" fill="rgb(70.196078%, 70.196078%, 70.196078%)" fill-opacity="1" stroke-width="1" stroke-linecap="butt" stroke-linejoin="miter" stroke="rgb(70.196078%, 70.196078%, 70.196078%)" stroke-opacity="1" stroke-miterlimit="10" d="M 345.050781 50 C 345.050781 56.464844 335.351562 56.464844 335.351562 50 C 335.351562 43.535156 345.050781 43.535156 345.050781 50 "/>
<path fill-rule="nonzero" fill="rgb(70.196078%, 70.196078%, 70.196078%)" fill-opacity="1" stroke-width="1" stroke-linecap="butt" stroke-linejoin="miter" stroke="rgb(70.196078%, 70.196078%, 70.196078%)" stroke-opacity="1" stroke-miterlimit="10" d="M 487.703125 196.972656 C 487.703125 203.4375 478.003906 203.4375 478.003906 196.972656 C 478.003906 190.503906 487.703125 190.503906 487.703125 196.972656 "/>
<path fill-rule="nonzero" fill="rgb(70.196078%, 70.196078%, 70.196078%)" fill-opacity="1" stroke-width="1" stroke-linecap="butt" stroke-linejoin="miter" stroke="rgb(70.196078%, 70.196078%, 70.196078%)" stroke-opacity="1" stroke-miterlimit="10" d="M 543.25 415.769531 C 543.25 422.234375 533.550781 422.234375 533.550781 415.769531 C 533.550781 409.300781 543.25 409.300781 543.25 415.769531 "/>
<path fill-rule="nonzero" fill="rgb(70.196078%, 70.196078%, 70.196078%)" fill-opacity="1" stroke-width="1" stroke-linecap="butt" stroke-linejoin="miter" stroke="rgb(70.196078%, 70.196078%, 70.196078%)" stroke-opacity="1" stroke-miterlimit="10" d="M 443.484375 89.226562 C 443.484375 95.695312 433.785156 95.695312 433.785156 89.226562 C 433.785156 82.761719 443.484375 82.761719 443.484375 89.226562 "/>
<path fill-rule="nonzero" fill="rgb(70.196078%, 70.196078%, 70.196078%)" fill-opacity="1" stroke-width="1" stroke-linecap="butt" stroke-linejoin="miter" stroke="rgb(70.196078%, 70.196078%, 70.196078%)" stroke-opacity="1" stroke-miterlimit="10" d="M 614.328125 687.96875 C 614.328125 694.4375 604.628906 694.4375 604.628906 687.96875 C 604.628906 681.503906 614.328125 681.503906 614.328125 687.96875 "/>
<path fill-rule="nonzero" fill="rgb(70.196078%, 70.196078%, 70.196078%)" fill-opacity="1" stroke-width="1" stroke-linecap="butt" stroke-linejoin="miter" stroke="rgb(70.196078%, 70.196078%, 70.196078%)" stroke-opacity="1" stroke-miterlimit="10" d="M 686.589844 701.304688 C 686.589844 707.769531 676.890625 707.769531 676.890625 701.304688 C 676.890625 694.835938 686.589844 694.835938 686.589844 701.304688 "/>
<path fill-rule="nonzero" fill="rgb(100%, 84.313725%, 0%)" fill-opacity="1" stroke-width="1" stroke-linecap="butt" stroke-linejoin="miter" stroke="rgb(100%, 84.313725%, 0%)" stroke-opacity="1" stroke-miterlimit="10" d="M 744.648438 681.730469 L 755.347656 681.730469 L 755.347656 692.429688 L 744.648438 692.429688 Z M 744.648438 681.730469 "/>
<path fill-rule="nonzero" fill="rgb(14.901961%, 14.901961%, 14.901961%)" fill-opacity="1" stroke-width="1" stroke-linecap="butt" stroke-linejoin="miter" stroke="rgb(14.901961%, 14.901961%, 14.901961%)" stroke-opacity="1" stroke-miterlimit="10" d="M 352.273438 165.578125 L 356.023438 158.078125 L 359.773438 165.578125 Z M 352.273438 165.578125 "/>
<path fill-rule="nonzero" fill="rgb(70.196078%, 70.196078%, 70.196078%)" fill-opacity="1" stroke-width="1" stroke-linecap="butt" stroke-linejoin="miter" stroke="rgb(70.196078%, 70.196078%, 70.196078%)" stroke-opacity="1" stroke-miterlimit="10" d="M 384.769531 234.996094 C 384.769531 241.460938 375.066406 241.460938 375.066406 234.996094 C 375.066406 228.527344 384.769531 228.527344 384.769531 234.996094 "/>
<path fill-rule="nonzero" fill="rgb(70.196078%, 70.196078%, 70.196078%)" fill-opacity="1" stroke-width="1" stroke-linecap="butt" stroke-linejoin="miter" stroke="rgb(70.196078%, 70.196078%, 70.196078%)" stroke-opacity="1" stroke-miterlimit="10" d="M 547.515625 250.4375 C 547.515625 256.902344 537.816406 256.902344 537.816406 250.4375 C 537.816406 243.96875 547.515625 243.96875 547.515625 250.4375 "/>
<path fill-rule="nonzero" fill="rgb(70.196078%, 70.196078%, 70.196078%)" fill-opacity="1" stroke-width="1" stroke-linecap="butt" stroke-linejoin="miter" stroke="rgb(70.196078%, 70.196078%, 70.196078%)" stroke-opacity="1" stroke-miterlimit="10" d="M 575.214844 319.5 C 575.214844 325.96875 565.515625 325.96875 565.515625 319.5 C 565.515625 313.035156 575.214844 313.035156 575.214844 319.5 "/>
<path fill-rule="nonzero" fill="rgb(70.196078%, 70.196078%, 70.196078%)" fill-opacity="1" stroke-width="1" stroke-linecap="butt" stroke-linejoin="miter" stroke="rgb(70.196078%, 70.196078%, 70.196078%)" stroke-opacity="1" stroke-miterlimit="10" d="M 476.289062 347.058594 C 476.289062 353.523438 466.585938 353.523438 466.585938 347.058594 C 466.585938 340.589844 476.289062 340.589844 476.289062 347.058594 "/>
<path fill-rule="nonzero" fill="rgb(12.156863%, 47.058824%, 70.588235%)" fill-opacity="1" stroke-width="1" stroke-linecap="butt" stroke-linejoin="miter" stroke="rgb(12.156863%, 47.058824%, 70.588235%)" stroke-opacity="1" stroke-miterlimit="10" d="M 476.628906 579.3125 C 476.628906 582.976562 471.128906 582.976562 471.128906 579.3125 C 471.128906 575.644531 476.628906 575.644531 476.628906 579.3125 "/>
<path fill-rule="nonzero" fill="rgb(70.196078%, 70.196078%, 70.196078%)" fill-opacity="1" stroke-width="1" stroke-linecap="butt" stroke-linejoin="miter" stroke="rgb(70.196078%, 70.196078%, 70.196078%)" stroke-opacity="1" stroke-miterlimit="10" d="M 407.46875 369.386719 C 407.46875 375.851562 397.769531 375.851562 397.769531 369.386719 C 397.769531 362.917969 407.46875 362.917969 407.46875 369.386719 "/>
<path fill-rule="nonzero" fill="rgb(12.156863%, 47.058824%, 70.588235%)" fill-opacity="1" stroke-width="1" stroke-linecap="butt" stroke-linejoin="miter" stroke="rgb(12.156863%, 47.058824%, 70.588235%)" stroke-opacity="1" stroke-miterlimit="10" d="M 205.8125 580.898438 C 205.8125 584.5625 200.3125 584.5625 200.3125 580.898438 C 200.3125 577.230469 205.8125 577.230469 205.8125 580.898438 "/>
<path fill-rule="nonzero" fill="rgb(12.156863%, 47.058824%, 70.588235%)" fill-opacity="1" stroke-width="1" stroke-linecap="butt" stroke-linejoin="miter" stroke="rgb(12.156863%, 47.058824%, 70.588235%)" stroke-opacity="1" stroke-miterlimit="10" d="M 235.527344 501.445312 C 235.527344 505.113281 230.027344 505.113281 230.027344 501.445312 C 230.027344 497.78125 235.527344 497.78125 235.527344 501.445312 "/>
<path fill-rule="nonzero" fill="rgb(70.196078%, 70.196078%, 70.196078%)" fill-opacity="1" stroke-width="1" stroke-linecap="butt" stroke-linejoin="miter" stroke="rgb(70.196078%, 70.196078%, 70.196078%)" stroke-opacity="1" stroke-miterlimit="10" d="M 312.542969 360.804688 C 312.542969 367.9375 301.84375 367.9375 301.84375 360.804688 C 301.84375 353.667969 312.542969 353.667969 312.542969 360.804688 "/>
<path fill-rule="nonzero" fill="rgb(12.156863%, 47.058824%, 70.588235%)" fill-opacity="1" stroke-width="1" stroke-linecap="butt" stroke-linejoin="miter" stroke="rgb(12.156863%, 47.058824%, 70.588235%)" stroke-opacity="1" stroke-miterlimit="10" d="M 288.539062 437.796875 C 288.539062 441.464844 283.039062 441.464844 283.039062 437.796875 C 283.039062 434.132812 288.539062 434.132812 288.539062 437.796875 "/>
<path fill-rule="nonzero" fill="rgb(12.156863%, 47.058824%, 70.588235%)" fill-opacity="1" stroke-width="1" stroke-linecap="butt" stroke-linejoin="miter" stroke="rgb(12.156863%, 47.058824%, 70.588235%)" stroke-opacity="1" stroke-miterlimit="10" d="M 228.292969 665.777344 C 228.292969 669.445312 222.792969 669.445312 222.792969 665.777344 C 222.792969 662.113281 228.292969 662.113281 228.292969 665.777344 "/>
<path fill-rule="nonzero" fill="rgb(12.156863%, 47.058824%, 70.588235%)" fill-opacity="1" stroke-width="1" stroke-linecap="butt" stroke-linejoin="miter" stroke="rgb(12.156863%, 47.058824%, 70.588235%)" stroke-opacity="1" stroke-miterlimit="10" d="M 307.421875 664.464844 C 307.421875 668.128906 301.921875 668.128906 301.921875 664.464844 C 301.921875 660.796875 307.421875 660.796875 307.421875 664.464844 "/>
<path fill-rule="nonzero" fill="rgb(12.156863%, 47.058824%, 70.588235%)" fill-opacity="1" stroke-width="1" stroke-linecap="butt" stroke-linejoin="miter" stroke="rgb(12.156863%, 47.058824%, 70.588235%)" stroke-opacity="1" stroke-miterlimit="10" d="M 364.226562 629.265625 C 364.226562 632.933594 358.726562 632.933594 358.726562 629.265625 C 358.726562 625.597656 364.226562 625.597656 364.226562 629.265625 "/>
<path fill-rule="nonzero" fill="rgb(12.156863%, 47.058824%, 70.588235%)" fill-opacity="1" stroke-width="1" stroke-linecap="butt" stroke-linejoin="miter" stroke="rgb(12.156863%, 47.058824%, 70.588235%)" stroke-opacity="1" stroke-miterlimit="10" d="M 425.460938 638.445312 C 425.460938 642.109375 419.960938 642.109375 419.960938 638.445312 C 419.960938 634.777344 425.460938 634.777344 425.460938 638.445312 "/>
<path fill-rule="nonzero" fill="rgb(14.901961%, 14.901961%, 14.901961%)" fill-opacity="1" stroke-width="1" stroke-linecap="butt" stroke-linejoin="miter" stroke="rgb(14.901961%, 14.901961%, 14.901961%)" stroke-opacity="1" stroke-miterlimit="10" d="M 125.15625 249.589844 L 128.90625 242.089844 L 132.65625 249.589844 Z M 125.15625 249.589844 "/>
<path fill-rule="nonzero" fill="rgb(14.901961%, 14.901961%, 14.901961%)" fill-opacity="1" stroke-width="1" stroke-linecap="butt" stroke-linejoin="miter" stroke="rgb(14.901961%, 14.901961%, 14.901961%)" stroke-opacity="1" stroke-miterlimit="10" d="M 44.148438 374.96875 L 50 363.269531 L 55.851562 374.96875 Z M 44.148438 374.96875 "/>
<path fill-rule="nonzero" fill="rgb(70.196078%, 70.196078%, 70.196078%)" fill-opacity="1" stroke-width="1" stroke-linecap="butt" stroke-linejoin="miter" stroke="rgb(70.196078%, 70.196078%, 70.196078%)" stroke-opacity="1" stroke-miterlimit="10" d="M 122.804688 339.351562 C 122.804688 345.816406 113.105469 345.816406 113.105469 339.351562 C 113.105469 332.882812 122.804688 332.882812 122.804688 339.351562 "/>
<path fill-rule="nonzero" fill="rgb(70.196078%, 70.196078%, 70.196078%)" fill-opacity="1" stroke-width="1" stroke-linecap="butt" stroke-linejoin="miter" stroke="rgb(70.196078%, 70.196078%, 70.196078%)" stroke-opacity="1" stroke-miterlimit="10" d="M 238.195312 248.011719 C 238.195312 254.476562 228.496094 254.476562 228.496094 248.011719 C 228.496094 241.542969 238.195312 241.542969 238.195312 248.011719 "/>
</svg>
