<?xml version="1.0" encoding="UTF-8"?>
<svg xmlns="http://www.w3.org/2000/svg" xmlns:xlink="http://www.w3.org/1999/xlink" width="800" height="800" viewBox="0 0 800 800">
<rect x="-80" y="-80" width="960" height="960" fill="rgb(100%, 100%, 100%)" fill-opacity="1"/>
<path fill="none" stroke-width="2.5" stroke-linecap="butt" stroke-linejoin="miter" stroke="rgb(30.196078%, 68.627451%, 29.019608%)" stroke-opacity="1" stroke-miterlimit="10" d="M 295.738281 61.957031 C 281.78125 50.671875 265.675781 45.339844 248.257812 49.472656 "/>
<path fill-rule="nonzero" fill="rgb(30.196078%, 68.627451%, 29.019608%)" fill-opacity="1" d="M 241.316406 51.121094 L 247.722656 47.21875 L 248.792969 51.726562 L 241.316406 51.121094 "/>
<path fill="none" stroke-width="3.5" stroke-linecap="butt" stroke-linejoin="miter" stroke="rgb(70.196078%, 70.196078%, 70.196078%)" stroke-opacity="1" stroke-miterlimit="10" d="M 295.738281 61.957031 C 296.371094 81.457031 303.503906 98.386719 319.214844 109.890625 "/>
<path fill-rule="nonzero" fill="rgb(70.196078%, 70.196078%, 70.196078%)" fill-opacity="1" d="M 324.972656 114.105469 L 317.847656 111.761719 L 320.585938 108.019531 L 324.972656 114.105469 "/>
<path fill="none" stroke-width="2.5" stroke-linecap="butt" stroke-linejoin="miter" stroke="rgb(70.196078%, 70.196078%, 70.196078%)" stroke-opacity="1" stroke-miterlimit="10" d="M 295.738281 61.957031 C 266.242188 67.199219 242.648438 82.023438 228.039062 108.148438 "/>
<path fill-rule="nonzero" fill="rgb(70.196078%, 70.196078%, 70.196078%)" fill-opacity="1" d="M 224.558594 114.375 L 226.019531 107.015625 L 230.0625 109.277344 L 224.558594 114.375 "/>
<path fill="none" stroke-width="1.5" stroke-linecap="butt" stroke-linejoin="miter" stroke="rgb(30.196078%, 68.627451%, 29.019608%)" stroke-opacity="1" stroke-miterlimit="10" d="M 235.0625 52.601562 C 248.84375 63.835938 264.78125 69.207031 282.050781 65.164062 "/>
<path fill-rule="nonzero" fill="rgb(30.196078%, 68.627451%, 29.019608%)" fill-opacity="1" d="M 288.996094 63.535156 L 282.578125 67.417969 L 281.523438 62.90625 L 288.996094 63.535156 "/>
<path fill="none" stroke-width="1.5" stroke-linecap="butt" stroke-linejoin="miter" stroke="rgb(98.431373%, 60.392157%, 60%)" stroke-opacity="1" stroke-miterlimit="10" d="M 210.457031 182.246094 C 223.523438 201.425781 241.476562 213.617188 264.585938 215.429688 "/>
<path fill-rule="nonzero" fill="rgb(98.431373%, 60.392157%, 60%)" fill-opacity="1" d="M 271.695312 215.984375 L 264.402344 217.738281 L 264.765625 213.117188 L 271.695312 215.984375 "/>
<path fill="none" stroke-width="1.5" stroke-linecap="butt" stroke-linejoin="miter" stroke="rgb(12.156863%, 47.058824%, 70.588235%)" stroke-opacity="1" stroke-miterlimit="10" d="M 123.054688 552.757812 C 109.566406 565.179688 101.871094 580.648438 103.351562 598.886719 "/>
<path fill-rule="nonzero" fill="rgb(12.156863%, 47.058824%, 70.588235%)" fill-opacity="1" d="M 103.925781 605.996094 L 101.039062 599.074219 L 105.660156 598.699219 L 103.925781 605.996094 "/>
<path fill="none" stroke-width="2.5" stroke-linecap="butt" stroke-linejoin="miter" stroke="rgb(12.156863%, 47.058824%, 70.588235%)" stroke-opacity="1" stroke-miterlimit="10" d="M 123.054688 552.757812 C 103.429688 540.3125 82.082031 536.210938 60.125 543.734375 "/>
<path fill-rule="nonzero" fill="rgb(12.156863%, 47.058824%, 70.588235%)" fill-opacity="1" d="M 53.378906 546.046875 L 59.375 541.542969 L 60.878906 545.925781 L 53.378906 546.046875 "/>
<path fill="none" stroke-width="1.5" stroke-linecap="butt" stroke-linejoin="miter" stroke="rgb(12.156863%, 47.058824%, 70.588235%)" stroke-opacity="1" stroke-miterlimit="10" d="M 104.140625 608.609375 C 117.488281 596.503906 125.210938 581.359375 123.859375 563.425781 "/>
<path fill-rule="nonzero" fill="rgb(12.156863%, 47.058824%, 70.588235%)" fill-opacity="1" d="M 123.320312 556.3125 L 126.167969 563.25 L 121.546875 563.601562 L 123.320312 556.3125 "/>
<path fill="none" stroke-width="4.5" stroke-linecap="butt" stroke-linejoin="miter" stroke="rgb(70.196078%, 70.196078%, 70.196078%)" stroke-opacity="1" stroke-miterlimit="10" d="M 466.972656 92.257812 C 449.929688 67.996094 426.765625 53.019531 397.214844 50.859375 "/>
<path fill-rule="nonzero" fill="rgb(70.196078%, 70.196078%, 70.196078%)" fill-opacity="1" d="M 390.101562 50.335938 L 397.386719 48.546875 L 397.046875 53.167969 L 390.101562 50.335938 "/>
<path fill="none" stroke-width="3.5" stroke-linecap="butt" stroke-linejoin="miter" stroke="rgb(70.196078%, 70.196078%, 70.196078%)" stroke-opacity="1" stroke-miterlimit="10" d="M 328.949219 117.015625 C 328.621094 98.179688 322.03125 81.664062 306.988281 70.390625 "/>
<path fill-rule="nonzero" fill="rgb(70.196078%, 70.196078%, 70.196078%)" fill-opacity="1" d="M 301.28125 66.113281 L 308.378906 68.535156 L 305.597656 72.246094 L 301.28125 66.113281 "/>
<path fill="none" stroke-width="4.5" stroke-linecap="butt" stroke-linejoin="miter" stroke="rgb(70.196078%, 70.196078%, 70.196078%)" stroke-opacity="1" stroke-miterlimit="10" d="M 385.496094 50 C 358.90625 39.980469 332.425781 40.539062 307.90625 54.851562 "/>
<path fill-rule="nonzero" fill="rgb(70.196078%, 70.196078%, 70.196078%)" fill-opacity="1" d="M 301.746094 58.449219 L 306.738281 52.851562 L 309.074219 56.851562 L 301.746094 58.449219 "/>
<path fill="none" stroke-width="1.5" stroke-linecap="butt" stroke-linejoin="miter" stroke="rgb(98.431373%, 60.392157%, 60%)" stroke-opacity="1" stroke-miterlimit="10" d="M 274.3125 216.191406 C 289.996094 225.257812 306.863281 227.996094 323.617188 221.203125 "/>
<path fill-rule="nonzero" fill="rgb(98.431373%, 60.392157%, 60%)" fill-opacity="1" d="M 330.230469 218.523438 L 324.488281 223.351562 L 322.746094 219.054688 L 330.230469 218.523438 "/>
<path fill="none" stroke-width="1.5" stroke-linecap="butt" stroke-linejoin="miter" stroke="rgb(12.156863%, 47.058824%, 70.588235%)" stroke-opacity="1" stroke-miterlimit="10" d="M 50 547.203125 C 69.621094 559.652344 90.972656 563.75 112.925781 556.226562 "/>
<path fill-rule="nonzero" fill="rgb(12.156863%, 47.058824%, 70.588235%)" fill-opacity="1" d="M 119.675781 553.914062 L 113.679688 558.417969 L 112.175781 554.035156 L 119.675781 553.914062 "/>
<path fill="none" stroke-width="5.5" stroke-linecap="butt" stroke-linejoin="miter" stroke="rgb(70.196078%, 70.196078%, 70.196078%)" stroke-opacity="1" stroke-miterlimit="10" d="M 507.035156 507.75 C 551.035156 517.855469 592.121094 510.734375 628.152344 483.5625 "/>
<path fill-rule="nonzero" fill="rgb(70.196078%, 70.196078%, 70.196078%)" fill-opacity="1" d="M 633.847656 479.265625 L 629.550781 485.410156 L 626.757812 481.710938 L 633.847656 479.265625 "/>
<path fill="none" stroke-width="1.5" stroke-linecap="butt" stroke-linejoin="miter" stroke="rgb(12.156863%, 47.058824%, 70.588235%)" stroke-opacity="1" stroke-miterlimit="10" d="M 309.726562 502.273438 C 300.5625 488.523438 287.875 479.375 271.429688 478.25 "/>
<path fill-rule="nonzero" fill="rgb(12.156863%, 47.058824%, 70.588235%)" fill-opacity="1" d="M 264.3125 477.761719 L 271.585938 475.9375 L 271.269531 480.5625 L 264.3125 477.761719 "/>
<path fill="none" stroke-width="1.5" stroke-linecap="butt" stroke-linejoin="miter" stroke="rgb(12.156863%, 47.058824%, 70.588235%)" stroke-opacity="1" stroke-miterlimit="10" d="M 457.664062 328.867188 C 417.726562 336.378906 386.335938 357.011719 366.460938 392.441406 "/>
<path fill-rule="nonzero" fill="rgb(12.156863%, 47.058824%, 70.588235%)" fill-opacity="1" d="M 362.972656 398.660156 L 364.441406 391.304688 L 368.484375 393.574219 L 362.972656 398.660156 "/>
<path fill="none" stroke-width="1.5" stroke-linecap="butt" stroke-linejoin="miter" stroke="rgb(12.156863%, 47.058824%, 70.588235%)" stroke-opacity="1" stroke-miterlimit="10" d="M 659.941406 215.648438 C 635.390625 207.789062 611.382812 209.449219 589.871094 223.601562 "/>
<path fill-rule="nonzero" fill="rgb(12.156863%, 47.058824%, 70.588235%)" fill-opacity="1" d="M 583.910156 227.519531 L 588.597656 221.664062 L 591.144531 225.535156 L 583.910156 227.519531 "/>
<path fill="none" stroke-width="1.5" stroke-linecap="butt" stroke-linejoin="miter" stroke="rgb(41.568627%, 23.921569%, 60.392157%)" stroke-opacity="1" stroke-miterlimit="10" d="M 222.304688 118.40625 C 235.320312 103.21875 241.648438 85.480469 237.726562 65.90625 "/>
<path fill-rule="nonzero" fill="rgb(41.568627%, 23.921569%, 60.392157%)" fill-opacity="1" d="M 236.328125 58.914062 L 240 65.453125 L 235.453125 66.363281 L 236.328125 58.914062 "/>
<path fill="none" stroke-width="1.5" stroke-linecap="butt" stroke-linejoin="miter" stroke="rgb(98.431373%, 60.392157%, 60%)" stroke-opacity="1" stroke-miterlimit="10" d="M 222.304688 118.40625 C 209.480469 134.410156 203.699219 152.773438 208.277344 172.738281 "/>
<path fill-rule="nonzero" fill="rgb(98.431373%, 60.392157%, 60%)" fill-opacity="1" d="M 209.871094 179.691406 L 206.015625 173.257812 L 210.535156 172.21875 L 209.871094 179.691406 "/>
<path fill="none" stroke-width="1.5" stroke-linecap="butt" stroke-linejoin="miter" stroke="rgb(12.156863%, 47.058824%, 70.588235%)" stroke-opacity="1" stroke-miterlimit="10" d="M 579.664062 230.316406 C 527.003906 242.640625 486.8125 272.074219 462.121094 320.179688 "/>
<path fill-rule="nonzero" fill="rgb(12.156863%, 47.058824%, 70.588235%)" fill-opacity="1" d="M 458.867188 326.523438 L 460.0625 319.121094 L 464.183594 321.238281 L 458.867188 326.523438 "/>
<path fill="none" stroke-width="4.5" stroke-linecap="butt" stroke-linejoin="miter" stroke="rgb(70.196078%, 70.196078%, 70.196078%)" stroke-opacity="1" stroke-miterlimit="10" d="M 579.664062 230.316406 C 578.453125 200.441406 566.976562 175.105469 543.109375 157.136719 "/>
<path fill-rule="nonzero" fill="rgb(70.196078%, 70.196078%, 70.196078%)" fill-opacity="1" d="M 537.410156 152.847656 L 544.5 155.285156 L 541.714844 158.988281 L 537.410156 152.847656 "/>
<path fill="none" stroke-width="5.5" stroke-linecap="butt" stroke-linejoin="miter" stroke="rgb(70.196078%, 70.196078%, 70.196078%)" stroke-opacity="1" stroke-miterlimit="10" d="M 367.710938 595.679688 C 395.714844 596.355469 420.152344 587.203125 438.335938 565.925781 "/>
<path fill-rule="nonzero" fill="rgb(70.196078%, 70.196078%, 70.196078%)" fill-opacity="1" d="M 442.96875 560.503906 L 440.097656 567.429688 L 436.574219 564.417969 L 442.96875 560.503906 "/>
<path fill="none" stroke-width="1.5" stroke-linecap="butt" stroke-linejoin="miter" stroke="rgb(12.156863%, 47.058824%, 70.588235%)" stroke-opacity="1" stroke-miterlimit="10" d="M 261.226562 477.550781 C 207.34375 480.046875 162.554688 501.582031 129.601562 544.273438 "/>
<path fill-rule="nonzero" fill="rgb(12.156863%, 47.058824%, 70.588235%)" fill-opacity="1" d="M 125.246094 549.917969 L 127.769531 542.855469 L 131.4375 545.6875 L 125.246094 549.917969 "/>
<path fill="none" stroke-width="1.5" stroke-linecap="butt" stroke-linejoin="miter" stroke="rgb(12.156863%, 47.058824%, 70.588235%)" stroke-opacity="1" stroke-miterlimit="10" d="M 261.226562 477.550781 C 270.535156 491.394531 283.382812 500.554688 299.992188 501.640625 "/>
<path fill-rule="nonzero" fill="rgb(12.156863%, 47.058824%, 70.588235%)" fill-opacity="1" d="M 307.113281 502.105469 L 299.84375 503.953125 L 300.144531 499.324219 L 307.113281 502.105469 "/>
<path fill="none" stroke-width="1.5" stroke-linecap="butt" stroke-linejoin="miter" stroke="rgb(12.156863%, 47.058824%, 70.588235%)" stroke-opacity="1" stroke-miterlimit="10" d="M 361.6875 400.953125 C 319.707031 409.171875 286.867188 431.164062 266.179688 468.589844 "/>
<path fill-rule="nonzero" fill="rgb(12.156863%, 47.058824%, 70.588235%)" fill-opacity="1" d="M 262.730469 474.832031 L 264.152344 467.46875 L 268.210938 469.710938 L 262.730469 474.832031 "/>
<path fill="none" stroke-width="1.5" stroke-linecap="butt" stroke-linejoin="miter" stroke="rgb(12.156863%, 47.058824%, 70.588235%)" stroke-opacity="1" stroke-miterlimit="10" d="M 671.4375 287.164062 C 678.855469 265.128906 677.730469 243.417969 665.203125 223.863281 "/>
<path fill-rule="nonzero" fill="rgb(12.156863%, 47.058824%, 70.588235%)" fill-opacity="1" d="M 661.355469 217.859375 L 667.15625 222.613281 L 663.25 225.113281 L 661.355469 217.859375 "/>
<path fill="none" stroke-width="4.5" stroke-linecap="butt" stroke-linejoin="miter" stroke="rgb(70.196078%, 70.196078%, 70.196078%)" stroke-opacity="1" stroke-miterlimit="10" d="M 671.4375 287.164062 C 653.132812 256.863281 626.75 237.339844 591.757812 232.121094 "/>
<path fill-rule="nonzero" fill="rgb(70.196078%, 70.196078%, 70.196078%)" fill-opacity="1" d="M 584.703125 231.066406 L 592.101562 229.828125 L 591.417969 234.414062 L 584.703125 231.066406 "/>
<path fill="none" stroke-width="5.5" stroke-linecap="butt" stroke-linejoin="miter" stroke="rgb(70.196078%, 70.196078%, 70.196078%)" stroke-opacity="1" stroke-miterlimit="10" d="M 723.667969 393.289062 C 724.023438 353.960938 710.363281 320.226562 680.398438 294.777344 "/>
<path fill-rule="nonzero" fill="rgb(70.196078%, 70.196078%, 70.196078%)" fill-opacity="1" d="M 674.964844 290.160156 L 681.898438 293.011719 L 678.898438 296.542969 L 674.964844 290.160156 "/>
<path fill="none" stroke-width="5.5" stroke-linecap="butt" stroke-linejoin="miter" stroke="rgb(70.196078%, 70.196078%, 70.196078%)" stroke-opacity="1" stroke-miterlimit="10" d="M 637.542969 476.480469 C 675.597656 464.613281 703.894531 440.957031 719.160156 404.152344 "/>
<path fill-rule="nonzero" fill="rgb(70.196078%, 70.196078%, 70.196078%)" fill-opacity="1" d="M 721.894531 397.5625 L 721.300781 405.039062 L 717.019531 403.265625 L 721.894531 397.5625 "/>
<path fill="none" stroke-width="4.5" stroke-linecap="butt" stroke-linejoin="miter" stroke="rgb(70.196078%, 70.196078%, 70.196078%)" stroke-opacity="1" stroke-miterlimit="10" d="M 533.71875 150.070312 C 523.335938 123.65625 505.175781 104.457031 478.164062 95.832031 "/>
<path fill-rule="nonzero" fill="rgb(70.196078%, 70.196078%, 70.196078%)" fill-opacity="1" d="M 471.371094 93.664062 L 478.871094 93.625 L 477.460938 98.039062 L 471.371094 93.664062 "/>
<path fill="none" stroke-width="5.5" stroke-linecap="butt" stroke-linejoin="miter" stroke="rgb(70.196078%, 70.196078%, 70.196078%)" stroke-opacity="1" stroke-miterlimit="10" d="M 287.894531 662.40625 C 321.171875 654.839844 347.0625 636.628906 362.417969 606.175781 "/>
<path fill-rule="nonzero" fill="rgb(70.196078%, 70.196078%, 70.196078%)" fill-opacity="1" d="M 365.628906 599.808594 L 364.488281 607.21875 L 360.347656 605.132812 L 365.628906 599.808594 "/>
<path fill="none" stroke-width="5.5" stroke-linecap="butt" stroke-linejoin="miter" stroke="rgb(70.196078%, 70.196078%, 70.196078%)" stroke-opacity="1" stroke-miterlimit="10" d="M 445.96875 556.992188 C 470.3125 552.363281 489.863281 539.957031 501.507812 518.113281 "/>
<path fill-rule="nonzero" fill="rgb(70.196078%, 70.196078%, 70.196078%)" fill-opacity="1" d="M 504.863281 511.820312 L 503.554688 519.203125 L 499.464844 517.023438 L 504.863281 511.820312 "/>
<path fill="none" stroke-width="5.5" stroke-linecap="butt" stroke-linejoin="miter" stroke="rgb(70.196078%, 70.196078%, 70.196078%)" stroke-opacity="1" stroke-miterlimit="10" d="M 348.117188 749.597656 C 333.246094 735.753906 315.519531 728.640625 295.480469 731.753906 "/>
<path fill-rule="nonzero" fill="rgb(70.196078%, 70.196078%, 70.196078%)" fill-opacity="1" d="M 288.429688 732.851562 L 295.125 729.464844 L 295.835938 734.046875 L 288.429688 732.851562 "/>
<path fill="none" stroke-width="5.5" stroke-linecap="butt" stroke-linejoin="miter" stroke="rgb(70.196078%, 70.196078%, 70.196078%)" stroke-opacity="1" stroke-miterlimit="10" d="M 107.007812 420.382812 C 117.105469 446.734375 134.996094 465.984375 161.78125 474.785156 "/>
<path fill-rule="nonzero" fill="rgb(70.196078%, 70.196078%, 70.196078%)" fill-opacity="1" d="M 168.554688 477.011719 L 161.054688 476.984375 L 162.503906 472.582031 L 168.554688 477.011719 "/>
<path fill="none" stroke-width="5.5" stroke-linecap="butt" stroke-linejoin="miter" stroke="rgb(70.196078%, 70.196078%, 70.196078%)" stroke-opacity="1" stroke-miterlimit="10" d="M 283.558594 733.605469 C 295.328125 714.800781 299.183594 694.367188 291.808594 673.476562 "/>
<path fill-rule="nonzero" fill="rgb(70.196078%, 70.196078%, 70.196078%)" fill-opacity="1" d="M 289.429688 666.75 L 293.992188 672.703125 L 289.621094 674.246094 L 289.429688 666.75 "/>
<path fill="none" stroke-width="5.5" stroke-linecap="butt" stroke-linejoin="miter" stroke="rgb(70.196078%, 70.196078%, 70.196078%)" stroke-opacity="1" stroke-miterlimit="10" d="M 74.953125 358.476562 C 74.421875 379.957031 81.261719 398.921875 97.738281 412.660156 "/>
<path fill-rule="nonzero" fill="rgb(70.196078%, 70.196078%, 70.196078%)" fill-opacity="1" d="M 103.21875 417.226562 L 96.253906 414.4375 L 99.222656 410.878906 L 103.21875 417.226562 "/>
<path fill="none" stroke-width="5.5" stroke-linecap="butt" stroke-linejoin="miter" stroke="rgb(70.196078%, 70.196078%, 70.196078%)" stroke-opacity="1" stroke-miterlimit="10" d="M 172.941406 478.449219 C 181.746094 521.03125 204.441406 554.183594 242.707031 574.792969 "/>
<path fill-rule="nonzero" fill="rgb(70.196078%, 70.196078%, 70.196078%)" fill-opacity="1" d="M 248.984375 578.175781 L 241.605469 576.835938 L 243.804688 572.753906 L 248.984375 578.175781 "/>
<path fill="none" stroke-width="5.5" stroke-linecap="butt" stroke-linejoin="miter" stroke="rgb(70.196078%, 70.196078%, 70.196078%)" stroke-opacity="1" stroke-miterlimit="10" d="M 253.0625 580.371094 C 272.363281 624.523438 304.605469 655.148438 350.789062 668.847656 "/>
<path fill-rule="nonzero" fill="rgb(70.196078%, 70.196078%, 70.196078%)" fill-opacity="1" d="M 357.628906 670.878906 L 350.128906 671.070312 L 351.449219 666.628906 L 357.628906 670.878906 "/>
<path fill="none" stroke-width="5.5" stroke-linecap="butt" stroke-linejoin="miter" stroke="rgb(70.196078%, 70.196078%, 70.196078%)" stroke-opacity="1" stroke-miterlimit="10" d="M 362.066406 672.195312 C 346.652344 691.695312 339.984375 713.941406 345.503906 738.144531 "/>
<path fill-rule="nonzero" fill="rgb(70.196078%, 70.196078%, 70.196078%)" fill-opacity="1" d="M 347.089844 745.101562 L 343.246094 738.660156 L 347.765625 737.628906 L 347.089844 745.101562 "/>
<path fill="none" stroke-width="5.5" stroke-linecap="butt" stroke-linejoin="miter" stroke="rgb(70.196078%, 70.196078%, 70.196078%)" stroke-opacity="1" stroke-miterlimit="10" d="M 137.078125 319.492188 C 114.207031 320.96875 94.773438 330.082031 81.675781 348.847656 "/>
<path fill-rule="nonzero" fill="rgb(70.196078%, 70.196078%, 70.196078%)" fill-opacity="1" d="M 77.59375 354.699219 L 79.773438 347.523438 L 83.574219 350.175781 L 77.59375 354.699219 "/>
<path fill="none" stroke-width="5.5" stroke-linecap="butt" stroke-linejoin="miter" stroke="rgb(70.196078%, 70.196078%, 70.196078%)" stroke-opacity="1" stroke-miterlimit="10" d="M 210.863281 315.828125 C 190.007812 305.859375 168.421875 304.320312 147.644531 314.378906 "/>
<path fill-rule="nonzero" fill="rgb(70.196078%, 70.196078%, 70.196078%)" fill-opacity="1" d="M 141.226562 317.484375 L 146.636719 312.292969 L 148.65625 316.464844 L 141.226562 317.484375 "/>
<path fill="none" stroke-width="5.5" stroke-linecap="butt" stroke-linejoin="miter" stroke="rgb(70.196078%, 70.196078%, 70.196078%)" stroke-opacity="1" stroke-miterlimit="10" d="M 750 592.4375 C 737.503906 615.65625 734.71875 640.097656 744.894531 664.394531 "/>
<path fill-rule="nonzero" fill="rgb(70.196078%, 70.196078%, 70.196078%)" fill-opacity="1" d="M 747.652344 670.972656 L 742.757812 665.289062 L 747.03125 663.496094 L 747.652344 670.972656 "/>
<path fill="none" stroke-width="5.5" stroke-linecap="butt" stroke-linejoin="miter" stroke="rgb(70.196078%, 70.196078%, 70.196078%)" stroke-opacity="1" stroke-miterlimit="10" d="M 309.054688 306.332031 C 279.183594 294.425781 249.316406 294.667969 221.160156 310.160156 "/>
<path fill-rule="nonzero" fill="rgb(70.196078%, 70.196078%, 70.196078%)" fill-opacity="1" d="M 214.910156 313.597656 L 220.042969 308.128906 L 222.277344 312.191406 L 214.910156 313.597656 "/>
<path fill="none" stroke-width="5.5" stroke-linecap="butt" stroke-linejoin="miter" stroke="rgb(70.196078%, 70.196078%, 70.196078%)" stroke-opacity="1" stroke-miterlimit="10" d="M 608.042969 398.933594 C 603.054688 360.800781 585.269531 329.960938 552.792969 309.402344 "/>
<path fill-rule="nonzero" fill="rgb(70.196078%, 70.196078%, 70.196078%)" fill-opacity="1" d="M 546.765625 305.585938 L 554.03125 307.441406 L 551.554688 311.359375 L 546.765625 305.585938 "/>
<path fill="none" stroke-width="5.5" stroke-linecap="butt" stroke-linejoin="miter" stroke="rgb(70.196078%, 70.196078%, 70.196078%)" stroke-opacity="1" stroke-miterlimit="10" d="M 415.167969 275.398438 C 379.300781 268.648438 346.191406 275.550781 318.105469 298.832031 "/>
<path fill-rule="nonzero" fill="rgb(70.196078%, 70.196078%, 70.196078%)" fill-opacity="1" d="M 312.617188 303.382812 L 316.628906 297.046875 L 319.585938 300.617188 L 312.617188 303.382812 "/>
<path fill="none" stroke-width="5.5" stroke-linecap="butt" stroke-linejoin="miter" stroke="rgb(70.196078%, 70.196078%, 70.196078%)" stroke-opacity="1" stroke-miterlimit="10" d="M 542.859375 303.113281 C 508.640625 275.683594 469.691406 264.519531 426.703125 273.09375 "/>
<path fill-rule="nonzero" fill="rgb(70.196078%, 70.196078%, 70.196078%)" fill-opacity="1" d="M 419.707031 274.492188 L 426.25 270.824219 L 427.15625 275.367188 L 419.707031 274.492188 "/>
<path fill="none" stroke-width="5.5" stroke-linecap="butt" stroke-linejoin="miter" stroke="rgb(70.196078%, 70.196078%, 70.196078%)" stroke-opacity="1" stroke-miterlimit="10" d="M 565.628906 454.414062 C 585.324219 445.71875 599.59375 431.414062 605.007812 410.609375 "/>
<path fill-rule="nonzero" fill="rgb(70.196078%, 70.196078%, 70.196078%)" fill-opacity="1" d="M 606.800781 403.707031 L 607.25 411.191406 L 602.761719 410.027344 L 606.800781 403.707031 "/>
<path fill="none" stroke-width="5.5" stroke-linecap="butt" stroke-linejoin="miter" stroke="rgb(70.196078%, 70.196078%, 70.196078%)" stroke-opacity="1" stroke-miterlimit="10" d="M 577.15625 626.828125 C 586.605469 603.679688 586.832031 580.328125 574.75 558.472656 "/>
<path fill-rule="nonzero" fill="rgb(70.196078%, 70.196078%, 70.196078%)" fill-opacity="1" d="M 571.296875 552.230469 L 576.777344 557.351562 L 572.71875 559.59375 L 571.296875 552.230469 "/>
<path fill="none" stroke-width="5.5" stroke-linecap="butt" stroke-linejoin="miter" stroke="rgb(70.196078%, 70.196078%, 70.196078%)" stroke-opacity="1" stroke-miterlimit="10" d="M 569.0625 548.191406 C 582.070312 520.710938 583.667969 492.488281 570.660156 465.035156 "/>
<path fill-rule="nonzero" fill="rgb(70.196078%, 70.196078%, 70.196078%)" fill-opacity="1" d="M 567.609375 458.585938 L 572.753906 464.042969 L 568.566406 466.027344 L 567.609375 458.585938 "/>
<path fill="none" stroke-width="5.5" stroke-linecap="butt" stroke-linejoin="miter" stroke="rgb(70.196078%, 70.196078%, 70.196078%)" stroke-opacity="1" stroke-miterlimit="10" d="M 664.339844 380.5 C 665.621094 425.625 682.839844 463.597656 718.199219 491.640625 "/>
<path fill-rule="nonzero" fill="rgb(70.196078%, 70.196078%, 70.196078%)" fill-opacity="1" d="M 723.789062 496.070312 L 716.757812 493.457031 L 719.640625 489.824219 L 723.789062 496.070312 "/>
<path fill="none" stroke-width="5.5" stroke-linecap="butt" stroke-linejoin="miter" stroke="rgb(70.196078%, 70.196078%, 70.196078%)" stroke-opacity="1" stroke-miterlimit="10" d="M 713.300781 739.65625 C 693.144531 732.21875 672.984375 732.5625 654.664062 743.722656 "/>
<path fill-rule="nonzero" fill="rgb(70.196078%, 70.196078%, 70.196078%)" fill-opacity="1" d="M 648.570312 747.433594 L 653.457031 741.742188 L 655.867188 745.703125 L 648.570312 747.433594 "/>
<path fill="none" stroke-width="5.5" stroke-linecap="butt" stroke-linejoin="miter" stroke="rgb(70.196078%, 70.196078%, 70.196078%)" stroke-opacity="1" stroke-miterlimit="10" d="M 595.75 695.257812 C 600.847656 673.824219 597.992188 653.367188 584.40625 636.0625 "/>
<path fill-rule="nonzero" fill="rgb(70.196078%, 70.196078%, 70.196078%)" fill-opacity="1" d="M 580 630.453125 L 586.230469 634.632812 L 582.582031 637.492188 L 580 630.453125 "/>
<path fill="none" stroke-width="5.5" stroke-linecap="butt" stroke-linejoin="miter" stroke="rgb(70.196078%, 70.196078%, 70.196078%)" stroke-opacity="1" stroke-miterlimit="10" d="M 644.359375 750 C 639.144531 727.734375 626.984375 710.105469 606.355469 700.300781 "/>
<path fill-rule="nonzero" fill="rgb(70.196078%, 70.196078%, 70.196078%)" fill-opacity="1" d="M 599.914062 697.238281 L 607.351562 698.207031 L 605.363281 702.394531 L 599.914062 697.238281 "/>
<path fill="none" stroke-width="5.5" stroke-linecap="butt" stroke-linejoin="miter" stroke="rgb(70.196078%, 70.196078%, 70.196078%)" stroke-opacity="1" stroke-miterlimit="10" d="M 749.433594 675.226562 C 729.90625 687.585938 717.121094 705.042969 714.589844 727.984375 "/>
<path fill-rule="nonzero" fill="rgb(70.196078%, 70.196078%, 70.196078%)" fill-opacity="1" d="M 713.804688 735.074219 L 712.285156 727.730469 L 716.890625 728.242188 L 713.804688 735.074219 "/>
<path fill="none" stroke-width="5.5" stroke-linecap="butt" stroke-linejoin="miter" stroke="rgb(70.196078%, 70.196078%, 70.196078%)" stroke-opacity="1" stroke-miterlimit="10" d="M 555.839844 367.625 C 585.816406 387.621094 618.5625 394.164062 653.074219 383.859375 "/>
<path fill-rule="nonzero" fill="rgb(70.196078%, 70.196078%, 70.196078%)" fill-opacity="1" d="M 659.910156 381.820312 L 653.738281 386.082031 L 652.410156 381.640625 L 659.910156 381.820312 "/>
<path fill="none" stroke-width="5.5" stroke-linecap="butt" stroke-linejoin="miter" stroke="rgb(70.196078%, 70.196078%, 70.196078%)" stroke-opacity="1" stroke-miterlimit="10" d="M 727.414062 498.949219 C 719.980469 529.308594 724.214844 558.042969 742.949219 583.035156 "/>
<path fill-rule="nonzero" fill="rgb(70.196078%, 70.196078%, 70.196078%)" fill-opacity="1" d="M 747.230469 588.742188 L 741.097656 584.425781 L 744.804688 581.644531 L 747.230469 588.742188 "/>
<path fill-rule="nonzero" fill="rgb(14.901961%, 14.901961%, 14.901961%)" fill-opacity="1" stroke-width="1" stroke-linecap="butt" stroke-linejoin="miter" stroke="rgb(14.901961%, 14.901961%, 14.901961%)" stroke-opacity="1" stroke-miterlimit="10" d="M 288.886719 68.808594 L 295.738281 55.105469 L 302.585938 68.808594 Z M 288.886719 68.808594 "/>
<path fill-rule="nonzero" fill="rgb(14.901961%, 14.901961%, 14.901961%)" fill-opacity="1" stroke-width="1" stroke-linecap="butt" stroke-linejoin="miter" stroke="rgb(14.901961%, 14.901961%, 14.901961%)" stroke-opacity="1" stroke-miterlimit="10" d="M 228.714844 58.953125 L 235.0625 46.253906 L 241.414062 58.953125 Z M 228.714844 58.953125 "/>
<path fill-rule="nonzero" fill="rgb(98.431373%, 60.392157%, 60%)" fill-opacity="1" stroke-width="1" stroke-linecap="butt" stroke-linejoin="miter" stroke="rgb(98.431373%, 60.392157%, 60%)" stroke-opacity="1" stroke-miterlimit="10" d="M 213.207031 182.246094 C 213.207031 185.914062 207.707031 185.914062 207.707031 182.246094 C 207.707031 178.578125 213.207031 178.578125 213.207031 182.246094 "/>
<path fill-rule="nonzero" fill="rgb(14.901961%, 14.901961%, 14.901961%)" fill-opacity="1" stroke-width="1" stroke-linecap="butt" stroke-linejoin="miter" stroke="rgb(14.901961%, 14.901961%, 14.901961%)" stroke-opacity="1" stroke-miterlimit="10" d="M 329.78125 220.933594 L 333.53125 213.433594 L 337.28125 220.933594 Z M 329.78125 220.933594 "/>
<path fill-rule="nonzero" fill="rgb(12.156863%, 47.058824%, 70.588235%)" fill-opacity="1" stroke-width="1" stroke-linecap="butt" stroke-linejoin="miter" stroke="rgb(12.156863%, 47.058824%, 70.588235%)" stroke-opacity="1" stroke-miterlimit="10" d="M 126.804688 552.757812 C 126.804688 557.757812 119.304688 557.757812 119.304688 552.757812 C 119.304688 547.757812 126.804688 547.757812 126.804688 552.757812 "/>
<path fill-rule="nonzero" fill="rgb(12.156863%, 47.058824%, 70.588235%)" fill-opacity="1" stroke-width="1" stroke-linecap="butt" stroke-linejoin="miter" stroke="rgb(12.156863%, 47.058824%, 70.588235%)" stroke-opacity="1" stroke-miterlimit="10" d="M 106.890625 608.609375 C 106.890625 612.277344 101.390625 612.277344 101.390625 608.609375 C 101.390625 604.941406 106.890625 604.941406 106.890625 608.609375 "/>
<path fill-rule="nonzero" fill="rgb(70.196078%, 70.196078%, 70.196078%)" fill-opacity="1" stroke-width="1" stroke-linecap="butt" stroke-linejoin="miter" stroke="rgb(70.196078%, 70.196078%, 70.196078%)" stroke-opacity="1" stroke-miterlimit="10" d="M 471.824219 92.257812 C 471.824219 98.726562 462.121094 98.726562 462.121094 92.257812 C 462.121094 85.792969 471.824219 85.792969 471.824219 92.257812 "/>
<path fill-rule="nonzero" fill="rgb(70.196078%, 70.196078%, 70.196078%)" fill-opacity="1" stroke-width="1" stroke-linecap="butt" stroke-linejoin="miter" stroke="rgb(70.196078%, 70.196078%, 70.196078%)" stroke-opacity="1" stroke-miterlimit="10" d="M 333.796875 117.015625 C 333.796875 123.480469 324.097656 123.480469 324.097656 117.015625 C 324.097656 110.550781 333.796875 110.550781 333.796875 117.015625 "/>
<path fill-rule="nonzero" fill="rgb(70.196078%, 70.196078%, 70.196078%)" fill-opacity="1" stroke-width="1" stroke-linecap="butt" stroke-linejoin="miter" stroke="rgb(70.196078%, 70.196078%, 70.196078%)" stroke-opacity="1" stroke-miterlimit="10" d="M 390.347656 50 C 390.347656 56.464844 380.648438 56.464844 380.648438 50 C 380.648438 43.535156 390.347656 43.535156 390.347656 50 "/>
<path fill-rule="nonzero" fill="rgb(98.431373%, 60.392157%, 60%)" fill-opacity="1" stroke-width="1" stroke-linecap="butt" stroke-linejoin="miter" stroke="rgb(98.431373%, 60.392157%, 60%)" stroke-opacity="1" stroke-miterlimit="10" d="M 277.0625 216.191406 C 277.0625 219.859375 271.5625 219.859375 271.5625 216.191406 C 271.5625 212.523438 277.0625 212.523438 277.0625 216.191406 "/>
<path fill-rule="nonzero" fill="rgb(14.901961%, 14.901961%, 14.901961%)" fill-opacity="1" stroke-width="1" stroke-linecap="butt" stroke-linejoin="miter" stroke="rgb(14.901961%, 14.901961%, 14.901961%)" stroke-opacity="1" stroke-miterlimit="10" d="M 46.25 550.953125 L 50 543.453125 L 53.75 550.953125 Z M 46.25 550.953125 "/>
<path fill-rule="nonzero" fill="rgb(70.196078%, 70.196078%, 70.196078%)" fill-opacity="1" stroke-width="1" stroke-linecap="butt" stroke-linejoin="miter" stroke="rgb(70.196078%, 70.196078%, 70.196078%)" stroke-opacity="1" stroke-miterlimit="10" d="M 511.882812 507.75 C 511.882812 514.214844 502.183594 514.214844 502.183594 507.75 C 502.183594 501.28125 511.882812 501.28125 511.882812 507.75 "/>
<path fill-rule="nonzero" fill="rgb(12.156863%, 47.058824%, 70.588235%)" fill-opacity="1" stroke-width="1" stroke-linecap="butt" stroke-linejoin="miter" stroke="rgb(12.156863%, 47.058824%, 70.588235%)" stroke-opacity="1" stroke-miterlimit="10" d="M 312.476562 502.273438 C 312.476562 505.941406 306.976562 505.941406 306.976562 502.273438 C 306.976562 498.609375 312.476562 498.609375 312.476562 502.273438 "/>
<path fill-rule="nonzero" fill="rgb(12.156863%, 47.058824%, 70.588235%)" fill-opacity="1" stroke-width="1" stroke-linecap="butt" stroke-linejoin="miter" stroke="rgb(12.156863%, 47.058824%, 70.588235%)" stroke-opacity="1" stroke-miterlimit="10" d="M 460.414062 328.867188 C 460.414062 332.53125 454.914062 332.53125 454.914062 328.867188 C 454.914062 325.199219 460.414062 325.199219 460.414062 328.867188 "/>
<path fill-rule="nonzero" fill="rgb(12.156863%, 47.058824%, 70.588235%)" fill-opacity="1" stroke-width="1" stroke-linecap="butt" stroke-linejoin="miter" stroke="rgb(12.156863%, 47.058824%, 70.588235%)" stroke-opacity="1" stroke-miterlimit="10" d="M 662.691406 215.648438 C 662.691406 219.316406 657.191406 219.316406 657.191406 215.648438 C 657.191406 211.980469 662.691406 211.980469 662.691406 215.648438 "/>
<path fill-rule="nonzero" fill="rgb(70.196078%, 70.196078%, 70.196078%)" fill-opacity="1" stroke-width="1" stroke-linecap="butt" stroke-linejoin="miter" stroke="rgb(70.196078%, 70.196078%, 70.196078%)" stroke-opacity="1" stroke-miterlimit="10" d="M 227.15625 118.40625 C 227.15625 124.871094 217.457031 124.871094 217.457031 118.40625 C 217.457031 111.9375 227.15625 111.9375 227.15625 118.40625 "/>
<path fill-rule="nonzero" fill="rgb(70.196078%, 70.196078%, 70.196078%)" fill-opacity="1" stroke-width="1" stroke-linecap="butt" stroke-linejoin="miter" stroke="rgb(70.196078%, 70.196078%, 70.196078%)" stroke-opacity="1" stroke-miterlimit="10" d="M 585.011719 230.316406 C 585.011719 237.449219 574.3125 237.449219 574.3125 230.316406 C 574.3125 223.183594 585.011719 223.183594 585.011719 230.316406 "/>
<path fill-rule="nonzero" fill="rgb(70.196078%, 70.196078%, 70.196078%)" fill-opacity="1" stroke-width="1" stroke-linecap="butt" stroke-linejoin="miter" stroke="rgb(70.196078%, 70.196078%, 70.196078%)" stroke-opacity="1" stroke-miterlimit="10" d="M 372.5625 595.679688 C 372.5625 602.148438 362.859375 602.148438 362.859375 595.679688 C 362.859375 589.214844 372.5625 589.214844 372.5625 595.679688 "/>
<path fill-rule="nonzero" fill="rgb(12.156863%, 47.058824%, 70.588235%)" fill-opacity="1" stroke-width="1" stroke-linecap="butt" stroke-linejoin="miter" stroke="rgb(12.156863%, 47.058824%, 70.588235%)" stroke-opacity="1" stroke-miterlimit="10" d="M 264.476562 477.550781 C 264.476562 481.882812 257.976562 481.882812 257.976562 477.550781 C 257.976562 473.21875 264.476562 473.21875 264.476562 477.550781 "/>
<path fill-rule="nonzero" fill="rgb(12.156863%, 47.058824%, 70.588235%)" fill-opacity="1" stroke-width="1" stroke-linecap="butt" stroke-linejoin="miter" stroke="rgb(12.156863%, 47.058824%, 70.588235%)" stroke-opacity="1" stroke-miterlimit="10" d="M 364.4375 400.953125 C 364.4375 404.621094 358.9375 404.621094 358.9375 400.953125 C 358.9375 397.289062 364.4375 397.289062 364.4375 400.953125 "/>
<path fill-rule="nonzero" fill="rgb(70.196078%, 70.196078%, 70.196078%)" fill-opacity="1" stroke-width="1" stroke-linecap="butt" stroke-linejoin="miter" stroke="rgb(70.196078%, 70.196078%, 70.196078%)" stroke-opacity="1" stroke-miterlimit="10" d="M 676.289062 287.164062 C 676.289062 293.632812 666.585938 293.632812 666.585938 287.164062 C 666.585938 280.699219 676.289062 280.699219 676.289062 287.164062 "/>
<path fill-rule="nonzero" fill="rgb(70.196078%, 70.196078%, 70.196078%)" fill-opacity="1" stroke-width="1" stroke-linecap="butt" stroke-linejoin="miter" stroke="rgb(70.196078%, 70.196078%, 70.196078%)" stroke-opacity="1" stroke-miterlimit="10" d="M 728.515625 393.289062 C 728.515625 399.757812 718.816406 399.757812 718.816406 393.289062 C 718.816406 386.824219 728.515625 386.824219 728.515625 393.289062 "/>
<path fill-rule="nonzero" fill="rgb(70.196078%, 70.196078%, 70.196078%)" fill-opacity="1" stroke-width="1" stroke-linecap="butt" stroke-linejoin="miter" stroke="rgb(70.196078%, 70.196078%, 70.196078%)" stroke-opacity="1" stroke-miterlimit="10" d="M 642.394531 476.480469 C 642.394531 482.945312 632.695312 482.945312 632.695312 476.480469 C 632.695312 470.011719 642.394531 470.011719 642.394531 476.480469 "/>
<path fill-rule="nonzero" fill="rgb(70.196078%, 70.196078%, 70.196078%)" fill-opacity="1" stroke-width="1" stroke-linecap="butt" stroke-linejoin="miter" stroke="rgb(70.196078%, 70.196078%, 70.196078%)" stroke-opacity="1" stroke-miterlimit="10" d="M 538.570312 150.070312 C 538.570312 156.535156 528.871094 156.535156 528.871094 150.070312 C 528.871094 143.605469 538.570312 143.605469 538.570312 150.070312 "/>
<path fill-rule="nonzero" fill="rgb(70.196078%, 70.196078%, 70.196078%)" fill-opacity="1" stroke-width="1" stroke-linecap="butt" stroke-linejoin="miter" stroke="rgb(70.196078%, 70.196078%, 70.196078%)" stroke-opacity="1" stroke-miterlimit="10" d="M 292.746094 662.40625 C 292.746094 668.871094 283.046875 668.871094 283.046875 662.40625 C 283.046875 655.9375 292.746094 655.9375 292.746094 662.40625 "/>
<path fill-rule="nonzero" fill="rgb(70.196078%, 70.196078%, 70.196078%)" fill-opacity="1" stroke-width="1" stroke-linecap="butt" stroke-linejoin="miter" stroke="rgb(70.196078%, 70.196078%, 70.196078%)" stroke-opacity="1" stroke-miterlimit="10" d="M 450.816406 556.992188 C 450.816406 563.460938 441.117188 563.460938 441.117188 556.992188 C 441.117188 550.527344 450.816406 550.527344 450.816406 556.992188 "/>
<path fill-rule="nonzero" fill="rgb(70.196078%, 70.196078%, 70.196078%)" fill-opacity="1" stroke-width="1" stroke-linecap="butt" stroke-linejoin="miter" stroke="rgb(70.196078%, 70.196078%, 70.196078%)" stroke-opacity="1" stroke-miterlimit="10" d="M 352.964844 749.597656 C 352.964844 756.0625 343.265625 756.0625 343.265625 749.597656 C 343.265625 743.128906 352.964844 743.128906 352.964844 749.597656 "/>
<path fill-rule="nonzero" fill="rgb(70.196078%, 70.196078%, 70.196078%)" fill-opacity="1" stroke-width="1" stroke-linecap="butt" stroke-linejoin="miter" stroke="rgb(70.196078%, 70.196078%, 70.196078%)" stroke-opacity="1" stroke-miterlimit="10" d="M 111.855469 420.382812 C 111.855469 426.851562 102.15625 426.851562 102.15625 420.382812 C 102.15625 413.917969 111.855469 413.917969 111.855469 420.382812 "/>
<path fill-rule="nonzero" fill="rgb(70.196078%, 70.196078%, 70.196078%)" fill-opacity="1" stroke-width="1" stroke-linecap="butt" stroke-linejoin="miter" stroke="rgb(70.196078%, 70.196078%, 70.196078%)" stroke-opacity="1" stroke-miterlimit="10" d="M 288.410156 733.605469 C 288.410156 740.074219 278.710938 740.074219 278.710938 733.605469 C 278.710938 727.140625 288.410156 727.140625 288.410156 733.605469 "/>
<path fill-rule="nonzero" fill="rgb(70.196078%, 70.196078%, 70.196078%)" fill-opacity="1" stroke-width="1" stroke-linecap="butt" stroke-linejoin="miter" stroke="rgb(70.196078%, 70.196078%, 70.196078%)" stroke-opacity="1" stroke-miterlimit="10" d="M 79.804688 358.476562 C 79.804688 364.945312 70.105469 364.945312 70.105469 358.476562 C 70.105469 352.011719 79.804688 352.011719 79.804688 358.476562 "/>
<path fill-rule="nonzero" fill="rgb(70.196078%, 70.196078%, 70.196078%)" fill-opacity="1" stroke-width="1" stroke-linecap="butt" stroke-linejoin="miter" stroke="rgb(70.196078%, 70.196078%, 70.196078%)" stroke-opacity="1" stroke-miterlimit="10" d="M 177.792969 478.449219 C 177.792969 484.917969 168.09375 484.917969 168.09375 478.449219 C 168.09375 471.984375 177.792969 471.984375 177.792969 478.449219 "/>
<path fill-rule="nonzero" fill="rgb(70.196078%, 70.196078%, 70.196078%)" fill-opacity="1" stroke-width="1" stroke-linecap="butt" stroke-linejoin="miter" stroke="rgb(70.196078%, 70.196078%, 70.196078%)" stroke-opacity="1" stroke-miterlimit="10" d="M 257.910156 580.371094 C 257.910156 586.835938 248.210938 586.835938 248.210938 580.371094 C 248.210938 573.90625 257.910156 573.90625 257.910156 580.371094 "/>
<path fill-rule="nonzero" fill="rgb(70.196078%, 70.196078%, 70.196078%)" fill-opacity="1" stroke-width="1" stroke-linecap="butt" stroke-linejoin="miter" stroke="rgb(70.196078%, 70.196078%, 70.196078%)" stroke-opacity="1" stroke-miterlimit="10" d="M 366.917969 672.195312 C 366.917969 678.660156 357.214844 678.660156 357.214844 672.195312 C 357.214844 665.726562 366.917969 665.726562 366.917969 672.195312 "/>
<path fill-rule="nonzero" fill="rgb(70.196078%, 70.196078%, 70.196078%)" fill-opacity="1" stroke-width="1" stroke-linecap="butt" stroke-linejoin="miter" stroke="rgb(70.196078%, 70.196078%, 70.196078%)" stroke-opacity="1" stroke-miterlimit="10" d="M 141.925781 319.492188 C 141.925781 325.960938 132.226562 325.960938 132.226562 319.492188 C 132.226562 313.027344 141.925781 313.027344 141.925781 319.492188 "/>
<path fill-rule="nonzero" fill="rgb(70.196078%, 70.196078%, 70.196078%)" fill-opacity="1" stroke-width="1" stroke-linecap="butt" stroke-linejoin="miter" stroke="rgb(70.196078%, 70.196078%, 70.196078%)" stroke-opacity="1" stroke-miterlimit="10" d="M 215.714844 315.828125 C 215.714844 322.292969 206.015625 322.292969 206.015625 315.828125 C 206.015625 309.359375 215.714844 309.359375 215.714844 315.828125 "/>
<path fill-rule="nonzero" fill="rgb(70.196078%, 70.196078%, 70.196078%)" fill-opacity="1" stroke-width="1" stroke-linecap="butt" stroke-linejoin="miter" stroke="rgb(70.196078%, 70.196078%, 70.196078%)" stroke-opacity="1" stroke-miterlimit="10" d="M 754.851562 592.4375 C 754.851562 598.90625 745.148438 598.90625 745.148438 592.4375 C 745.148438 585.972656 754.851562 585.972656 754.851562 592.4375 "/>
<path fill-rule="nonzero" fill="rgb(70.196078%, 70.196078%, 70.196078%)" fill-opacity="1" stroke-width="1" stroke-linecap="butt" stroke-linejoin="miter" stroke="rgb(70.196078%, 70.196078%, 70.196078%)" stroke-opacity="1" stroke-miterlimit="10" d="M 313.90625 306.332031 C 313.90625 312.800781 304.207031 312.800781 304.207031 306.332031 C 304.207031 299.867188 313.90625 299.867188 313.90625 306.332031 "/>
<path fill-rule="nonzero" fill="rgb(70.196078%, 70.196078%, 70.196078%)" fill-opacity="1" stroke-width="1" stroke-linecap="butt" stroke-linejoin="miter" stroke="rgb(70.196078%, 70.196078%, 70.196078%)" stroke-opacity="1" stroke-miterlimit="10" d="M 612.894531 398.933594 C 612.894531 405.398438 603.195312 405.398438 603.195312 398.933594 C 603.195312 392.464844 612.894531 392.464844 612.894531 398.933594 "/>
<path fill-rule="nonzero" fill="rgb(70.196078%, 70.196078%, 70.196078%)" fill-opacity="1" stroke-width="1" stroke-linecap="butt" stroke-linejoin="miter" stroke="rgb(70.196078%, 70.196078%, 70.196078%)" stroke-opacity="1" stroke-miterlimit="10" d="M 420.019531 275.398438 C 420.019531 281.863281 410.316406 281.863281 410.316406 275.398438 C 410.316406 268.929688 420.019531 268.929688 420.019531 275.398438 "/>
<path fill-rule="nonzero" fill="rgb(70.196078%, 70.196078%, 70.196078%)" fill-opacity="1" stroke-width="1" stroke-linecap="butt" stroke-linejoin="miter" stroke="rgb(70.196078%, 70.196078%, 70.196078%)" stroke-opacity="1" stroke-miterlimit="10" d="M 547.707031 303.113281 C 547.707031 309.578125 538.007812 309.578125 538.007812 303.113281 C 538.007812 296.644531 547.707031 296.644531 547.707031 303.113281 "/>
<path fill-rule="nonzero" fill="rgb(70.196078%, 70.196078%, 70.196078%)" fill-opacity="1" stroke-width="1" stroke-linecap="butt" stroke-linejoin="miter" stroke="rgb(70.196078%, 70.196078%, 70.196078%)" stroke-opacity="1" stroke-miterlimit="10" d="M 570.480469 454.414062 C 570.480469 460.878906 560.78125 460.878906 560.78125 454.414062 C 560.78125 447.945312 570.480469 447.945312 570.480469 454.414062 "/>
<path fill-rule="nonzero" fill="rgb(70.196078%, 70.196078%, 70.196078%)" fill-opacity="1" stroke-width="1" stroke-linecap="butt" stroke-linejoin="miter" stroke="rgb(70.196078%, 70.196078%, 70.196078%)" stroke-opacity="1" stroke-miterlimit="10" d="M 582.007812 626.828125 C 582.007812 633.292969 572.304688 633.292969 572.304688 626.828125 C 572.304688 620.359375 582.007812 620.359375 582.007812 626.828125 "/>
<path fill-rule="nonzero" fill="rgb(70.196078%, 70.196078%, 70.196078%)" fill-opacity="1" stroke-width="1" stroke-linecap="butt" stroke-linejoin="miter" stroke="rgb(70.196078%, 70.196078%, 70.196078%)" stroke-opacity="1" stroke-miterlimit="10" d="M 573.914062 548.191406 C 573.914062 554.660156 564.214844 554.660156 564.214844 548.191406 C 564.214844 541.726562 573.914062 541.726562 573.914062 548.191406 "/>
<path fill-rule="nonzero" fill="rgb(70.196078%, 70.196078%, 70.196078%)" fill-opacity="1" stroke-width="1" stroke-linecap="butt" stroke-linejoin="miter" stroke="rgb(70.196078%, 70.196078%, 70.196078%)" stroke-opacity="1" stroke-miterlimit="10" d="M 669.1875 380.5 C 669.1875 386.964844 659.488281 386.964844 659.488281 380.5 C 659.488281 374.03125 669.1875 374.03125 669.1875 380.5 "/>
<path fill-rule="nonzero" fill="rgb(70.196078%, 70.196078%, 70.196078%)" fill-opacity="1" stroke-width="1" stroke-linecap="butt" stroke-linejoin="miter" stroke="rgb(70.196078%, 70.196078%, 70.196078%)" stroke-opacity="1" stroke-miterlimit="10" d="M 718.148438 739.65625 C 718.148438 746.125 708.449219 746.125 708.449219 739.65625 C 708.449219 733.191406 718.148438 733.191406 718.148438 739.65625 "/>
<path fill-rule="nonzero" fill="rgb(70.196078%, 70.196078%, 70.196078%)" fill-opacity="1" stroke-width="1" stroke-linecap="butt" stroke-linejoin="miter" stroke="rgb(70.196078%, 70.196078%, 70.196078%)" stroke-opacity="1" stroke-miterlimit="10" d="M 600.601562 695.257812 C 600.601562 701.726562 590.902344 701.726562 590.902344 695.257812 C 590.902344 688.792969 600.601562 688.792969 600.601562 695.257812 "/>
<path fill-rule="nonzero" fill="rgb(70.196078%, 70.196078%, 70.196078%)" fill-opacity="1" stroke-width="1" stroke-linecap="butt" stroke-linejoin="miter" stroke="rgb(70.196078%, 70.196078%, 70.196078%)" stroke-opacity="1" stroke-miterlimit="10" d="M 649.207031 750 C 649.207031 756.464844 639.507812 756.464844 639.507812 750 C 639.507812 743.535156 649.207031 743.535156 649.207031 750 "/>
<path fill-rule="nonzero" fill="rgb(70.196078%, 70.196078%, 70.196078%)" fill-opacity="1" stroke-width="1" stroke-linecap="butt" stroke-linejoin="miter" stroke="rgb(70.196078%, 70.196078%, 70.196078%)" stroke-opacity="1" stroke-miterlimit="10" d="M 754.285156 675.226562 C 754.285156 681.695312 744.582031 681.695312 744.582031 675.226562 C 744.582031 668.761719 754.285156 668.761719 754.285156 675.226562 "/>
<path fill-rule="nonzero" fill="rgb(100%, 84.313725%, 0%)" fill-opacity="1" stroke-width="1" stroke-linecap="butt" stroke-linejoin="miter" stroke="rgb(100%, 84.313725%, 0%)" stroke-opacity="1" stroke-miterlimit="10" d="M 550.488281 362.273438 L 561.1875 362.273438 L 561.1875 372.972656 L 550.488281 372.972656 Z M 550.488281 362.273438 "/>
<path fill-rule="nonzero" fill="rgb(70.196078%, 70.196078%, 70.196078%)" fill-opacity="1" stroke-width="1" stroke-linecap="butt" stroke-linejoin="miter" stroke="rgb(70.196078%, 70.196078%, 70.196078%)" stroke-opacity="1" stroke-miterlimit="10" d="M 732.265625 498.949219 C 732.265625 505.414062 722.566406 505.414062 722.566406 498.949219 C 722.566406 492.480469 732.265625 492.480469 732.265625 498.949219 "/>
</svg>
