<?xml version="1.0" encoding="UTF-8"?>
<svg xmlns="http://www.w3.org/2000/svg" xmlns:xlink="http://www.w3.org/1999/xlink" width="800" height="800" viewBox="0 0 800 800">
<rect x="-80" y="-80" width="960" height="960" fill="rgb(100%, 100%, 100%)" fill-opacity="1"/>
<path fill="none" stroke-width="1.5" stroke-linecap="butt" stroke-linejoin="miter" stroke="rgb(12.156863%, 47.058824%, 70.588235%)" stroke-opacity="1" stroke-miterlimit="10" d="M 588.382812 230.347656 C 578.035156 207.546875 561.183594 191.359375 536.972656 185.078125 "/>
<path fill-rule="nonzero" fill="rgb(12.156863%, 47.058824%, 70.588235%)" fill-opacity="1" d="M 530.066406 183.285156 L 537.554688 182.835938 L 536.390625 187.320312 L 530.066406 183.285156 "/>
<path fill="none" stroke-width="4.5" stroke-linecap="butt" stroke-linejoin="miter" stroke="rgb(70.196078%, 70.196078%, 70.196078%)" stroke-opacity="1" stroke-miterlimit="10" d="M 588.382812 230.347656 C 602.761719 208.496094 607.664062 184.582031 599.726562 159.683594 "/>
<path fill-rule="nonzero" fill="rgb(70.196078%, 70.196078%, 70.196078%)" fill-opacity="1" d="M 597.558594 152.890625 L 601.933594 158.980469 L 597.519531 160.390625 L 597.558594 152.890625 "/>
<path fill="none" stroke-width="1.5" stroke-linecap="butt" stroke-linejoin="miter" stroke="rgb(12.156863%, 47.058824%, 70.588235%)" stroke-opacity="1" stroke-miterlimit="10" d="M 588.382812 230.347656 C 621.242188 247.894531 655.5625 251.242188 690.0625 237.234375 "/>
<path fill-rule="nonzero" fill="rgb(12.156863%, 47.058824%, 70.588235%)" fill-opacity="1" d="M 696.667969 234.554688 L 690.933594 239.382812 L 689.1875 235.089844 L 696.667969 234.554688 "/>
<path fill="none" stroke-width="1.5" stroke-linecap="butt" stroke-linejoin="miter" stroke="rgb(12.156863%, 47.058824%, 70.588235%)" stroke-opacity="1" stroke-miterlimit="10" d="M 588.382812 230.347656 C 567.386719 226.921875 547.886719 231.089844 532.15625 245.367188 "/>
<path fill-rule="nonzero" fill="rgb(12.156863%, 47.058824%, 70.588235%)" fill-opacity="1" d="M 526.875 250.160156 L 530.601562 243.648438 L 533.714844 247.082031 L 526.875 250.160156 "/>
<path fill="none" stroke-width="1.5" stroke-linecap="butt" stroke-linejoin="miter" stroke="rgb(12.156863%, 47.058824%, 70.588235%)" stroke-opacity="1" stroke-miterlimit="10" d="M 588.382812 230.347656 C 595.730469 250.441406 609 265.476562 629.273438 272.230469 "/>
<path fill-rule="nonzero" fill="rgb(12.156863%, 47.058824%, 70.588235%)" fill-opacity="1" d="M 636.039062 274.484375 L 628.539062 274.429688 L 630.003906 270.03125 L 636.039062 274.484375 "/>
<path fill="none" stroke-width="1.5" stroke-linecap="butt" stroke-linejoin="miter" stroke="rgb(12.156863%, 47.058824%, 70.588235%)" stroke-opacity="1" stroke-miterlimit="10" d="M 588.382812 230.347656 C 571.617188 247.222656 562.867188 267.65625 565.503906 291.269531 "/>
<path fill-rule="nonzero" fill="rgb(12.156863%, 47.058824%, 70.588235%)" fill-opacity="1" d="M 566.296875 298.359375 L 563.203125 291.527344 L 567.808594 291.011719 L 566.296875 298.359375 "/>
<path fill="none" stroke-width="1.5" stroke-linecap="butt" stroke-linejoin="miter" stroke="rgb(12.156863%, 47.058824%, 70.588235%)" stroke-opacity="1" stroke-miterlimit="10" d="M 527.527344 182.628906 C 536.183594 203.851562 550.972656 219.46875 572.949219 225.859375 "/>
<path fill-rule="nonzero" fill="rgb(12.156863%, 47.058824%, 70.588235%)" fill-opacity="1" d="M 579.796875 227.851562 L 572.300781 228.085938 L 573.59375 223.632812 L 579.796875 227.851562 "/>
<path fill="none" stroke-width="4.5" stroke-linecap="butt" stroke-linejoin="miter" stroke="rgb(70.196078%, 70.196078%, 70.196078%)" stroke-opacity="1" stroke-miterlimit="10" d="M 596.15625 148.492188 C 582.066406 168.785156 576.738281 191.292969 583.789062 214.9375 "/>
<path fill-rule="nonzero" fill="rgb(70.196078%, 70.196078%, 70.196078%)" fill-opacity="1" d="M 585.824219 221.773438 L 581.566406 215.597656 L 586.007812 214.273438 L 585.824219 221.773438 "/>
<path fill="none" stroke-width="1.5" stroke-linecap="butt" stroke-linejoin="miter" stroke="rgb(12.156863%, 47.058824%, 70.588235%)" stroke-opacity="1" stroke-miterlimit="10" d="M 699.105469 233.5625 C 668.5625 216.222656 636.21875 212.042969 603.4375 224.589844 "/>
<path fill-rule="nonzero" fill="rgb(12.156863%, 47.058824%, 70.588235%)" fill-opacity="1" d="M 596.777344 227.136719 L 602.609375 222.421875 L 604.265625 226.753906 L 596.777344 227.136719 "/>
<path fill="none" stroke-width="1.5" stroke-linecap="butt" stroke-linejoin="miter" stroke="rgb(12.156863%, 47.058824%, 70.588235%)" stroke-opacity="1" stroke-miterlimit="10" d="M 524.933594 251.921875 C 543.683594 255.871094 561.558594 253.09375 576.140625 240.730469 "/>
<path fill-rule="nonzero" fill="rgb(12.156863%, 47.058824%, 70.588235%)" fill-opacity="1" d="M 581.582031 236.117188 L 577.640625 242.496094 L 574.640625 238.960938 L 581.582031 236.117188 "/>
<path fill="none" stroke-width="1.5" stroke-linecap="butt" stroke-linejoin="miter" stroke="rgb(12.156863%, 47.058824%, 70.588235%)" stroke-opacity="1" stroke-miterlimit="10" d="M 638.527344 275.3125 C 632.738281 256.921875 621.472656 242.621094 603.433594 235.929688 "/>
<path fill-rule="nonzero" fill="rgb(12.156863%, 47.058824%, 70.588235%)" fill-opacity="1" d="M 596.746094 233.449219 L 604.238281 233.757812 L 602.628906 238.105469 L 596.746094 233.449219 "/>
<path fill="none" stroke-width="5.5" stroke-linecap="butt" stroke-linejoin="miter" stroke="rgb(70.196078%, 70.196078%, 70.196078%)" stroke-opacity="1" stroke-miterlimit="10" d="M 614.828125 347.636719 C 624.75 310.355469 620.089844 274.902344 597.734375 243.488281 "/>
<path fill-rule="nonzero" fill="rgb(70.196078%, 70.196078%, 70.196078%)" fill-opacity="1" d="M 593.597656 237.679688 L 599.621094 242.144531 L 595.847656 244.832031 L 593.597656 237.679688 "/>
<path fill="none" stroke-width="1.5" stroke-linecap="butt" stroke-linejoin="miter" stroke="rgb(12.156863%, 47.058824%, 70.588235%)" stroke-opacity="1" stroke-miterlimit="10" d="M 566.589844 300.964844 C 582.476562 286.230469 591.421875 267.925781 589.679688 246.363281 "/>
<path fill-rule="nonzero" fill="rgb(12.156863%, 47.058824%, 70.588235%)" fill-opacity="1" d="M 589.101562 239.253906 L 591.988281 246.175781 L 587.367188 246.550781 L 589.101562 239.253906 "/>
<path fill="none" stroke-width="5.5" stroke-linecap="butt" stroke-linejoin="miter" stroke="rgb(70.196078%, 70.196078%, 70.196078%)" stroke-opacity="1" stroke-miterlimit="10" d="M 610.808594 447.558594 C 626.894531 419.144531 630.738281 389.070312 619.042969 358.609375 "/>
<path fill-rule="nonzero" fill="rgb(70.196078%, 70.196078%, 70.196078%)" fill-opacity="1" d="M 616.484375 351.949219 L 621.203125 357.777344 L 616.878906 359.441406 L 616.484375 351.949219 "/>
<path fill="none" stroke-width="5.5" stroke-linecap="butt" stroke-linejoin="miter" stroke="rgb(70.196078%, 70.196078%, 70.196078%)" stroke-opacity="1" stroke-miterlimit="10" d="M 621.386719 511.898438 C 628.113281 493.230469 627.71875 474.566406 617.210938 457.78125 "/>
<path fill-rule="nonzero" fill="rgb(70.196078%, 70.196078%, 70.196078%)" fill-opacity="1" d="M 613.421875 451.738281 L 619.171875 456.550781 L 615.246094 459.011719 L 613.421875 451.738281 "/>
<path fill="none" stroke-width="5.5" stroke-linecap="butt" stroke-linejoin="miter" stroke="rgb(70.196078%, 70.196078%, 70.196078%)" stroke-opacity="1" stroke-miterlimit="10" d="M 750 325.328125 C 702.953125 357.808594 674.804688 402.304688 669.085938 459.171875 "/>
<path fill-rule="nonzero" fill="rgb(70.196078%, 70.196078%, 70.196078%)" fill-opacity="1" d="M 668.375 466.269531 L 666.78125 458.941406 L 671.394531 459.40625 L 668.375 466.269531 "/>
<path fill="none" stroke-width="5.5" stroke-linecap="butt" stroke-linejoin="miter" stroke="rgb(70.196078%, 70.196078%, 70.196078%)" stroke-opacity="1" stroke-miterlimit="10" d="M 667.910156 470.882812 C 649.636719 474.753906 634.828125 484.292969 626.667969 501.054688 "/>
<path fill-rule="nonzero" fill="rgb(70.196078%, 70.196078%, 70.196078%)" fill-opacity="1" d="M 623.542969 507.46875 L 624.582031 500.039062 L 628.75 502.070312 L 623.542969 507.46875 "/>
<path fill="none" stroke-width="5.5" stroke-linecap="butt" stroke-linejoin="miter" stroke="rgb(70.196078%, 70.196078%, 70.196078%)" stroke-opacity="1" stroke-miterlimit="10" d="M 749.566406 199.808594 C 730.921875 237.414062 728.410156 276.140625 745.273438 314.5625 "/>
<path fill-rule="nonzero" fill="rgb(70.196078%, 70.196078%, 70.196078%)" fill-opacity="1" d="M 748.140625 321.09375 L 743.152344 315.492188 L 747.394531 313.628906 L 748.140625 321.09375 "/>
<path fill="none" stroke-width="5.5" stroke-linecap="butt" stroke-linejoin="miter" stroke="rgb(70.196078%, 70.196078%, 70.196078%)" stroke-opacity="1" stroke-miterlimit="10" d="M 664.710938 186.929688 C 686.828125 203.226562 711.617188 209.640625 738.191406 202.757812 "/>
<path fill-rule="nonzero" fill="rgb(70.196078%, 70.196078%, 70.196078%)" fill-opacity="1" d="M 745.097656 200.96875 L 738.773438 205 L 737.609375 200.511719 L 745.097656 200.96875 "/>
<path fill="none" stroke-width="5.5" stroke-linecap="butt" stroke-linejoin="miter" stroke="rgb(70.196078%, 70.196078%, 70.196078%)" stroke-opacity="1" stroke-miterlimit="10" d="M 744.589844 435.824219 C 756.585938 344.980469 733.453125 264.164062 672.539062 195.722656 "/>
<path fill-rule="nonzero" fill="rgb(70.196078%, 70.196078%, 70.196078%)" fill-opacity="1" d="M 667.796875 190.394531 L 674.269531 194.183594 L 670.808594 197.265625 L 667.796875 190.394531 "/>
<path fill="none" stroke-width="5.5" stroke-linecap="butt" stroke-linejoin="miter" stroke="rgb(70.196078%, 70.196078%, 70.196078%)" stroke-opacity="1" stroke-miterlimit="10" d="M 71.34375 532.070312 C 77.523438 505.730469 73.738281 480.792969 57.191406 459.421875 "/>
<path fill-rule="nonzero" fill="rgb(70.196078%, 70.196078%, 70.196078%)" fill-opacity="1" d="M 52.824219 453.78125 L 59.023438 458.003906 L 55.359375 460.839844 L 52.824219 453.78125 "/>
<path fill="none" stroke-width="5.5" stroke-linecap="butt" stroke-linejoin="miter" stroke="rgb(70.196078%, 70.196078%, 70.196078%)" stroke-opacity="1" stroke-miterlimit="10" d="M 107.636719 601.410156 C 107.851562 576.695312 99.527344 555.152344 80.429688 539.511719 "/>
<path fill-rule="nonzero" fill="rgb(70.196078%, 70.196078%, 70.196078%)" fill-opacity="1" d="M 74.914062 534.992188 L 81.898438 537.71875 L 78.960938 541.304688 L 74.914062 534.992188 "/>
<path fill="none" stroke-width="5.5" stroke-linecap="butt" stroke-linejoin="miter" stroke="rgb(70.196078%, 70.196078%, 70.196078%)" stroke-opacity="1" stroke-miterlimit="10" d="M 143.625 675.253906 C 144.507812 649.136719 136.242188 626.195312 116.511719 609.101562 "/>
<path fill-rule="nonzero" fill="rgb(70.196078%, 70.196078%, 70.196078%)" fill-opacity="1" d="M 111.121094 604.429688 L 118.03125 607.351562 L 114.996094 610.851562 L 111.121094 604.429688 "/>
<path fill="none" stroke-width="5.5" stroke-linecap="butt" stroke-linejoin="miter" stroke="rgb(70.196078%, 70.196078%, 70.196078%)" stroke-opacity="1" stroke-miterlimit="10" d="M 200.957031 721.042969 C 192.007812 699.933594 176.984375 684.59375 154.929688 678.421875 "/>
<path fill-rule="nonzero" fill="rgb(70.196078%, 70.196078%, 70.196078%)" fill-opacity="1" d="M 148.0625 676.496094 L 155.554688 676.1875 L 154.304688 680.652344 L 148.0625 676.496094 "/>
<path fill="none" stroke-width="5.5" stroke-linecap="butt" stroke-linejoin="miter" stroke="rgb(70.196078%, 70.196078%, 70.196078%)" stroke-opacity="1" stroke-miterlimit="10" d="M 688.464844 648.007812 C 737.867188 589.851562 758.359375 522.8125 746.429688 447.449219 "/>
<path fill-rule="nonzero" fill="rgb(70.196078%, 70.196078%, 70.196078%)" fill-opacity="1" d="M 745.3125 440.40625 L 748.71875 447.085938 L 744.140625 447.8125 L 745.3125 440.40625 "/>
<path fill="none" stroke-width="5.5" stroke-linecap="butt" stroke-linejoin="miter" stroke="rgb(70.196078%, 70.196078%, 70.196078%)" stroke-opacity="1" stroke-miterlimit="10" d="M 495.667969 745.472656 C 570.699219 743.816406 633.390625 715.113281 680.996094 657.105469 "/>
<path fill-rule="nonzero" fill="rgb(70.196078%, 70.196078%, 70.196078%)" fill-opacity="1" d="M 685.519531 651.59375 L 682.785156 658.578125 L 679.203125 655.636719 L 685.519531 651.59375 "/>
<path fill="none" stroke-width="5.5" stroke-linecap="butt" stroke-linejoin="miter" stroke="rgb(70.196078%, 70.196078%, 70.196078%)" stroke-opacity="1" stroke-miterlimit="10" d="M 329.730469 635.960938 C 365.042969 694.957031 416.292969 731.96875 484.066406 743.5 "/>
<path fill-rule="nonzero" fill="rgb(70.196078%, 70.196078%, 70.196078%)" fill-opacity="1" d="M 491.097656 744.695312 L 483.679688 745.785156 L 484.457031 741.214844 L 491.097656 744.695312 "/>
<path fill="none" stroke-width="5.5" stroke-linecap="butt" stroke-linejoin="miter" stroke="rgb(70.196078%, 70.196078%, 70.196078%)" stroke-opacity="1" stroke-miterlimit="10" d="M 297.433594 318.238281 C 260.128906 424.707031 267.917969 527.792969 323.886719 625.734375 "/>
<path fill-rule="nonzero" fill="rgb(70.196078%, 70.196078%, 70.196078%)" fill-opacity="1" d="M 327.425781 631.929688 L 321.875 626.886719 L 325.898438 624.585938 L 327.425781 631.929688 "/>
<path fill="none" stroke-width="5.5" stroke-linecap="butt" stroke-linejoin="miter" stroke="rgb(70.196078%, 70.196078%, 70.196078%)" stroke-opacity="1" stroke-miterlimit="10" d="M 339.152344 718.125 C 312.921875 715.722656 289.363281 722.71875 271.011719 741.582031 "/>
<path fill-rule="nonzero" fill="rgb(70.196078%, 70.196078%, 70.196078%)" fill-opacity="1" d="M 266.039062 746.691406 L 269.351562 739.964844 L 272.675781 743.195312 L 266.039062 746.691406 "/>
<path fill="none" stroke-width="5.5" stroke-linecap="butt" stroke-linejoin="miter" stroke="rgb(70.196078%, 70.196078%, 70.196078%)" stroke-opacity="1" stroke-miterlimit="10" d="M 262.820312 750 C 250.488281 733.039062 233.933594 722.367188 213.011719 721.527344 "/>
<path fill-rule="nonzero" fill="rgb(70.196078%, 70.196078%, 70.196078%)" fill-opacity="1" d="M 205.882812 721.242188 L 213.105469 719.210938 L 212.917969 723.84375 L 205.882812 721.242188 "/>
<path fill="none" stroke-width="5.5" stroke-linecap="butt" stroke-linejoin="miter" stroke="rgb(70.196078%, 70.196078%, 70.196078%)" stroke-opacity="1" stroke-miterlimit="10" d="M 354.136719 510.214844 C 374.039062 504.53125 389.554688 492.804688 397.410156 473.691406 "/>
<path fill-rule="nonzero" fill="rgb(70.196078%, 70.196078%, 70.196078%)" fill-opacity="1" d="M 400.121094 467.09375 L 399.554688 474.574219 L 395.265625 472.8125 L 400.121094 467.09375 "/>
<path fill="none" stroke-width="5.5" stroke-linecap="butt" stroke-linejoin="miter" stroke="rgb(70.196078%, 70.196078%, 70.196078%)" stroke-opacity="1" stroke-miterlimit="10" d="M 401.996094 462.535156 C 399.605469 483.390625 404.585938 502.464844 419.445312 517.25 "/>
<path fill-rule="nonzero" fill="rgb(70.196078%, 70.196078%, 70.196078%)" fill-opacity="1" d="M 424.5 522.28125 L 417.808594 518.894531 L 421.078125 515.605469 L 424.5 522.28125 "/>
<path fill="none" stroke-width="5.5" stroke-linecap="butt" stroke-linejoin="miter" stroke="rgb(70.196078%, 70.196078%, 70.196078%)" stroke-opacity="1" stroke-miterlimit="10" d="M 390.074219 574.945312 C 389.808594 551.773438 381.636719 531.679688 363.394531 517.441406 "/>
<path fill-rule="nonzero" fill="rgb(70.196078%, 70.196078%, 70.196078%)" fill-opacity="1" d="M 357.773438 513.050781 L 364.820312 515.613281 L 361.96875 519.269531 L 357.773438 513.050781 "/>
<path fill="none" stroke-width="5.5" stroke-linecap="butt" stroke-linejoin="miter" stroke="rgb(70.196078%, 70.196078%, 70.196078%)" stroke-opacity="1" stroke-miterlimit="10" d="M 443.8125 623.585938 C 397.96875 636.554688 363.621094 664.007812 344 707.40625 "/>
<path fill-rule="nonzero" fill="rgb(70.196078%, 70.196078%, 70.196078%)" fill-opacity="1" d="M 341.058594 713.902344 L 341.886719 706.449219 L 346.109375 708.359375 L 341.058594 713.902344 "/>
<path fill="none" stroke-width="5.5" stroke-linecap="butt" stroke-linejoin="miter" stroke="rgb(70.196078%, 70.196078%, 70.196078%)" stroke-opacity="1" stroke-miterlimit="10" d="M 358.84375 160.027344 C 316.234375 199.558594 294.417969 248.429688 296.925781 306.484375 "/>
<path fill-rule="nonzero" fill="rgb(70.196078%, 70.196078%, 70.196078%)" fill-opacity="1" d="M 297.234375 313.609375 L 294.613281 306.582031 L 299.242188 306.382812 L 297.234375 313.609375 "/>
<path fill="none" stroke-width="5.5" stroke-linecap="butt" stroke-linejoin="miter" stroke="rgb(70.196078%, 70.196078%, 70.196078%)" stroke-opacity="1" stroke-miterlimit="10" d="M 377.921875 69.890625 C 359.003906 92.890625 350.722656 119.324219 356.542969 148.503906 "/>
<path fill-rule="nonzero" fill="rgb(70.196078%, 70.196078%, 70.196078%)" fill-opacity="1" d="M 357.9375 155.5 L 354.269531 148.957031 L 358.816406 148.050781 L 357.9375 155.5 "/>
<path fill="none" stroke-width="5.5" stroke-linecap="butt" stroke-linejoin="miter" stroke="rgb(70.196078%, 70.196078%, 70.196078%)" stroke-opacity="1" stroke-miterlimit="10" d="M 318.917969 50 C 331.464844 63.957031 347.207031 72.046875 365.890625 70.734375 "/>
<path fill-rule="nonzero" fill="rgb(70.196078%, 70.196078%, 70.196078%)" fill-opacity="1" d="M 373.007812 70.234375 L 366.054688 73.046875 L 365.730469 68.421875 L 373.007812 70.234375 "/>
<path fill="none" stroke-width="5.5" stroke-linecap="butt" stroke-linejoin="miter" stroke="rgb(70.196078%, 70.196078%, 70.196078%)" stroke-opacity="1" stroke-miterlimit="10" d="M 642.34375 591.574219 C 621.789062 585.285156 601.675781 586.769531 584.007812 598.953125 "/>
<path fill-rule="nonzero" fill="rgb(70.196078%, 70.196078%, 70.196078%)" fill-opacity="1" d="M 578.132812 603 L 582.691406 597.042969 L 585.320312 600.859375 L 578.132812 603 "/>
<path fill="none" stroke-width="5.5" stroke-linecap="butt" stroke-linejoin="miter" stroke="rgb(70.196078%, 70.196078%, 70.196078%)" stroke-opacity="1" stroke-miterlimit="10" d="M 294.605469 145.878906 C 315.96875 121.710938 325.855469 93.433594 320.769531 61.605469 "/>
<path fill-rule="nonzero" fill="rgb(70.196078%, 70.196078%, 70.196078%)" fill-opacity="1" d="M 319.644531 54.5625 L 323.058594 61.242188 L 318.480469 61.972656 L 319.644531 54.5625 "/>
<path fill="none" stroke-width="5.5" stroke-linecap="butt" stroke-linejoin="miter" stroke="rgb(70.196078%, 70.196078%, 70.196078%)" stroke-opacity="1" stroke-miterlimit="10" d="M 360.84375 247.511719 C 356.308594 207.328125 338.152344 174.625 304.421875 152.355469 "/>
<path fill-rule="nonzero" fill="rgb(70.196078%, 70.196078%, 70.196078%)" fill-opacity="1" d="M 298.46875 148.425781 L 305.699219 150.421875 L 303.144531 154.289062 L 298.46875 148.425781 "/>
<path fill="none" stroke-width="5.5" stroke-linecap="butt" stroke-linejoin="miter" stroke="rgb(70.196078%, 70.196078%, 70.196078%)" stroke-opacity="1" stroke-miterlimit="10" d="M 348.402344 345.152344 C 366.582031 318.722656 372.945312 289.617188 364.089844 258.804688 "/>
<path fill-rule="nonzero" fill="rgb(70.196078%, 70.196078%, 70.196078%)" fill-opacity="1" d="M 362.121094 251.949219 L 366.316406 258.164062 L 361.863281 259.445312 L 362.121094 251.949219 "/>
<path fill="none" stroke-width="5.5" stroke-linecap="butt" stroke-linejoin="miter" stroke="rgb(70.196078%, 70.196078%, 70.196078%)" stroke-opacity="1" stroke-miterlimit="10" d="M 207.535156 382.695312 C 221.121094 395.910156 237.527344 402.980469 256.265625 400.40625 "/>
<path fill-rule="nonzero" fill="rgb(70.196078%, 70.196078%, 70.196078%)" fill-opacity="1" d="M 263.332031 399.433594 L 256.582031 402.699219 L 255.953125 398.109375 L 263.332031 399.433594 "/>
<path fill="none" stroke-width="5.5" stroke-linecap="butt" stroke-linejoin="miter" stroke="rgb(70.196078%, 70.196078%, 70.196078%)" stroke-opacity="1" stroke-miterlimit="10" d="M 268.214844 398.761719 C 299.375 395.25 324.960938 381.308594 342.007812 355.015625 "/>
<path fill-rule="nonzero" fill="rgb(70.196078%, 70.196078%, 70.196078%)" fill-opacity="1" d="M 345.886719 349.027344 L 343.953125 356.273438 L 340.0625 353.753906 L 345.886719 349.027344 "/>
<path fill="none" stroke-width="5.5" stroke-linecap="butt" stroke-linejoin="miter" stroke="rgb(70.196078%, 70.196078%, 70.196078%)" stroke-opacity="1" stroke-miterlimit="10" d="M 705.167969 507.457031 C 674.230469 522.667969 653.050781 546.625 645.066406 580.140625 "/>
<path fill-rule="nonzero" fill="rgb(70.196078%, 70.196078%, 70.196078%)" fill-opacity="1" d="M 643.414062 587.078125 L 642.8125 579.601562 L 647.320312 580.675781 L 643.414062 587.078125 "/>
<path fill="none" stroke-width="5.5" stroke-linecap="butt" stroke-linejoin="miter" stroke="rgb(70.196078%, 70.196078%, 70.196078%)" stroke-opacity="1" stroke-miterlimit="10" d="M 425.839844 670.992188 C 437.242188 661.945312 444.511719 650.128906 444.128906 635.628906 "/>
<path fill-rule="nonzero" fill="rgb(70.196078%, 70.196078%, 70.196078%)" fill-opacity="1" d="M 443.941406 628.496094 L 446.445312 635.566406 L 441.8125 635.6875 L 443.941406 628.496094 "/>
<path fill="none" stroke-width="5.5" stroke-linecap="butt" stroke-linejoin="miter" stroke="rgb(70.196078%, 70.196078%, 70.196078%)" stroke-opacity="1" stroke-miterlimit="10" d="M 50 450.132812 C 65.472656 426.59375 70.65625 400.878906 62.179688 374.042969 "/>
<path fill-rule="nonzero" fill="rgb(70.196078%, 70.196078%, 70.196078%)" fill-opacity="1" d="M 60.035156 367.242188 L 64.390625 373.34375 L 59.972656 374.742188 L 60.035156 367.242188 "/>
<path fill="none" stroke-width="5.5" stroke-linecap="butt" stroke-linejoin="miter" stroke="rgb(70.196078%, 70.196078%, 70.196078%)" stroke-opacity="1" stroke-miterlimit="10" d="M 161.644531 329.242188 C 166.203125 350.625 177.472656 367.753906 197.023438 377.46875 "/>
<path fill-rule="nonzero" fill="rgb(70.196078%, 70.196078%, 70.196078%)" fill-opacity="1" d="M 203.410156 380.644531 L 195.992188 379.546875 L 198.054688 375.394531 L 203.410156 380.644531 "/>
<path fill="none" stroke-width="5.5" stroke-linecap="butt" stroke-linejoin="miter" stroke="rgb(70.196078%, 70.196078%, 70.196078%)" stroke-opacity="1" stroke-miterlimit="10" d="M 102.359375 303.710938 C 114.292969 319.261719 130.019531 328.910156 149.585938 329.117188 "/>
<path fill-rule="nonzero" fill="rgb(70.196078%, 70.196078%, 70.196078%)" fill-opacity="1" d="M 156.71875 329.191406 L 149.5625 331.433594 L 149.609375 326.800781 L 156.71875 329.191406 "/>
<path fill="none" stroke-width="5.5" stroke-linecap="butt" stroke-linejoin="miter" stroke="rgb(70.196078%, 70.196078%, 70.196078%)" stroke-opacity="1" stroke-miterlimit="10" d="M 58.644531 362.839844 C 79.457031 353.082031 94.261719 337.453125 99.621094 315.128906 "/>
<path fill-rule="nonzero" fill="rgb(70.196078%, 70.196078%, 70.196078%)" fill-opacity="1" d="M 101.285156 308.191406 L 101.875 315.667969 L 97.367188 314.585938 L 101.285156 308.191406 "/>
<path fill="none" stroke-width="5.5" stroke-linecap="butt" stroke-linejoin="miter" stroke="rgb(70.196078%, 70.196078%, 70.196078%)" stroke-opacity="1" stroke-miterlimit="10" d="M 427.996094 525.761719 C 405.605469 569.546875 402.277344 614.800781 421.289062 660.140625 "/>
<path fill-rule="nonzero" fill="rgb(70.196078%, 70.196078%, 70.196078%)" fill-opacity="1" d="M 424.046875 666.71875 L 419.152344 661.039062 L 423.425781 659.246094 L 424.046875 666.71875 "/>
<path fill="none" stroke-width="5.5" stroke-linecap="butt" stroke-linejoin="miter" stroke="rgb(70.196078%, 70.196078%, 70.196078%)" stroke-opacity="1" stroke-miterlimit="10" d="M 574.074219 605.800781 C 557.542969 587.769531 536.96875 577.789062 512.589844 579.378906 "/>
<path fill-rule="nonzero" fill="rgb(70.196078%, 70.196078%, 70.196078%)" fill-opacity="1" d="M 505.46875 579.84375 L 512.4375 577.066406 L 512.738281 581.691406 L 505.46875 579.84375 "/>
<path fill="none" stroke-width="5.5" stroke-linecap="butt" stroke-linejoin="miter" stroke="rgb(70.196078%, 70.196078%, 70.196078%)" stroke-opacity="1" stroke-miterlimit="10" d="M 500.867188 580.140625 C 469.007812 562.054688 435.324219 557.832031 401.074219 570.785156 "/>
<path fill-rule="nonzero" fill="rgb(70.196078%, 70.196078%, 70.196078%)" fill-opacity="1" d="M 394.402344 573.308594 L 400.253906 568.617188 L 401.890625 572.953125 L 394.402344 573.308594 "/>
<path fill="none" stroke-width="5.5" stroke-linecap="butt" stroke-linejoin="miter" stroke="rgb(70.196078%, 70.196078%, 70.196078%)" stroke-opacity="1" stroke-miterlimit="10" d="M 511.601562 420.359375 C 525.804688 424.070312 539.738281 422.761719 551.207031 413.671875 "/>
<path fill-rule="nonzero" fill="rgb(70.196078%, 70.196078%, 70.196078%)" fill-opacity="1" d="M 556.796875 409.238281 L 552.648438 415.488281 L 549.769531 411.855469 L 556.796875 409.238281 "/>
<path fill="none" stroke-width="5.5" stroke-linecap="butt" stroke-linejoin="miter" stroke="rgb(70.196078%, 70.196078%, 70.196078%)" stroke-opacity="1" stroke-miterlimit="10" d="M 560.648438 406.1875 C 594.988281 418.597656 628.789062 417.085938 660.257812 398.601562 "/>
<path fill-rule="nonzero" fill="rgb(70.196078%, 70.196078%, 70.196078%)" fill-opacity="1" d="M 666.40625 394.988281 L 661.429688 400.597656 L 659.082031 396.601562 L 666.40625 394.988281 "/>
<path fill="none" stroke-width="5.5" stroke-linecap="butt" stroke-linejoin="miter" stroke="rgb(70.196078%, 70.196078%, 70.196078%)" stroke-opacity="1" stroke-miterlimit="10" d="M 670.394531 392.644531 C 663.574219 432 671.730469 468.046875 697.5625 498.492188 "/>
<path fill-rule="nonzero" fill="rgb(70.196078%, 70.196078%, 70.196078%)" fill-opacity="1" d="M 702.175781 503.929688 L 695.792969 499.988281 L 699.328125 496.992188 L 702.175781 503.929688 "/>
<path fill-rule="nonzero" fill="rgb(14.901961%, 14.901961%, 14.901961%)" fill-opacity="1" stroke-width="1" stroke-linecap="butt" stroke-linejoin="miter" stroke="rgb(14.901961%, 14.901961%, 14.901961%)" stroke-opacity="1" stroke-miterlimit="10" d="M 579.53125 239.199219 L 588.382812 221.5 L 597.234375 239.199219 Z M 579.53125 239.199219 "/>
<path fill-rule="nonzero" fill="rgb(12.156863%, 47.058824%, 70.588235%)" fill-opacity="1" stroke-width="1" stroke-linecap="butt" stroke-linejoin="miter" stroke="rgb(12.156863%, 47.058824%, 70.588235%)" stroke-opacity="1" stroke-miterlimit="10" d="M 530.277344 182.628906 C 530.277344 186.292969 524.777344 186.292969 524.777344 182.628906 C 524.777344 178.960938 530.277344 178.960938 530.277344 182.628906 "/>
<path fill-rule="nonzero" fill="rgb(70.196078%, 70.196078%, 70.196078%)" fill-opacity="1" stroke-width="1" stroke-linecap="butt" stroke-linejoin="miter" stroke="rgb(70.196078%, 70.196078%, 70.196078%)" stroke-opacity="1" stroke-miterlimit="10" d="M 601.007812 148.492188 C 601.007812 154.960938 591.308594 154.960938 591.308594 148.492188 C 591.308594 142.027344 601.007812 142.027344 601.007812 148.492188 "/>
<path fill-rule="nonzero" fill="rgb(12.156863%, 47.058824%, 70.588235%)" fill-opacity="1" stroke-width="1" stroke-linecap="butt" stroke-linejoin="miter" stroke="rgb(12.156863%, 47.058824%, 70.588235%)" stroke-opacity="1" stroke-miterlimit="10" d="M 701.855469 233.5625 C 701.855469 237.230469 696.355469 237.230469 696.355469 233.5625 C 696.355469 229.898438 701.855469 229.898438 701.855469 233.5625 "/>
<path fill-rule="nonzero" fill="rgb(12.156863%, 47.058824%, 70.588235%)" fill-opacity="1" stroke-width="1" stroke-linecap="butt" stroke-linejoin="miter" stroke="rgb(12.156863%, 47.058824%, 70.588235%)" stroke-opacity="1" stroke-miterlimit="10" d="M 527.683594 251.921875 C 527.683594 255.589844 522.183594 255.589844 522.183594 251.921875 C 522.183594 248.257812 527.683594 248.257812 527.683594 251.921875 "/>
<path fill-rule="nonzero" fill="rgb(12.156863%, 47.058824%, 70.588235%)" fill-opacity="1" stroke-width="1" stroke-linecap="butt" stroke-linejoin="miter" stroke="rgb(12.156863%, 47.058824%, 70.588235%)" stroke-opacity="1" stroke-miterlimit="10" d="M 641.277344 275.3125 C 641.277344 278.980469 635.777344 278.980469 635.777344 275.3125 C 635.777344 271.648438 641.277344 271.648438 641.277344 275.3125 "/>
<path fill-rule="nonzero" fill="rgb(70.196078%, 70.196078%, 70.196078%)" fill-opacity="1" stroke-width="1" stroke-linecap="butt" stroke-linejoin="miter" stroke="rgb(70.196078%, 70.196078%, 70.196078%)" stroke-opacity="1" stroke-miterlimit="10" d="M 619.679688 347.636719 C 619.679688 354.101562 609.976562 354.101562 609.976562 347.636719 C 609.976562 341.167969 619.679688 341.167969 619.679688 347.636719 "/>
<path fill-rule="nonzero" fill="rgb(12.156863%, 47.058824%, 70.588235%)" fill-opacity="1" stroke-width="1" stroke-linecap="butt" stroke-linejoin="miter" stroke="rgb(12.156863%, 47.058824%, 70.588235%)" stroke-opacity="1" stroke-miterlimit="10" d="M 569.339844 300.964844 C 569.339844 304.632812 563.839844 304.632812 563.839844 300.964844 C 563.839844 297.300781 569.339844 297.300781 569.339844 300.964844 "/>
<path fill-rule="nonzero" fill="rgb(70.196078%, 70.196078%, 70.196078%)" fill-opacity="1" stroke-width="1" stroke-linecap="butt" stroke-linejoin="miter" stroke="rgb(70.196078%, 70.196078%, 70.196078%)" stroke-opacity="1" stroke-miterlimit="10" d="M 615.65625 447.558594 C 615.65625 454.027344 605.957031 454.027344 605.957031 447.558594 C 605.957031 441.09375 615.65625 441.09375 615.65625 447.558594 "/>
<path fill-rule="nonzero" fill="rgb(70.196078%, 70.196078%, 70.196078%)" fill-opacity="1" stroke-width="1" stroke-linecap="butt" stroke-linejoin="miter" stroke="rgb(70.196078%, 70.196078%, 70.196078%)" stroke-opacity="1" stroke-miterlimit="10" d="M 626.238281 511.898438 C 626.238281 518.363281 616.539062 518.363281 616.539062 511.898438 C 616.539062 505.429688 626.238281 505.429688 626.238281 511.898438 "/>
<path fill-rule="nonzero" fill="rgb(70.196078%, 70.196078%, 70.196078%)" fill-opacity="1" stroke-width="1" stroke-linecap="butt" stroke-linejoin="miter" stroke="rgb(70.196078%, 70.196078%, 70.196078%)" stroke-opacity="1" stroke-miterlimit="10" d="M 754.851562 325.328125 C 754.851562 331.796875 745.148438 331.796875 745.148438 325.328125 C 745.148438 318.863281 754.851562 318.863281 754.851562 325.328125 "/>
<path fill-rule="nonzero" fill="rgb(70.196078%, 70.196078%, 70.196078%)" fill-opacity="1" stroke-width="1" stroke-linecap="butt" stroke-linejoin="miter" stroke="rgb(70.196078%, 70.196078%, 70.196078%)" stroke-opacity="1" stroke-miterlimit="10" d="M 672.761719 470.882812 C 672.761719 477.347656 663.058594 477.347656 663.058594 470.882812 C 663.058594 464.414062 672.761719 464.414062 672.761719 470.882812 "/>
<path fill-rule="nonzero" fill="rgb(70.196078%, 70.196078%, 70.196078%)" fill-opacity="1" stroke-width="1" stroke-linecap="butt" stroke-linejoin="miter" stroke="rgb(70.196078%, 70.196078%, 70.196078%)" stroke-opacity="1" stroke-miterlimit="10" d="M 754.414062 199.808594 C 754.414062 206.277344 744.714844 206.277344 744.714844 199.808594 C 744.714844 193.34375 754.414062 193.34375 754.414062 199.808594 "/>
<path fill-rule="nonzero" fill="rgb(70.196078%, 70.196078%, 70.196078%)" fill-opacity="1" stroke-width="1" stroke-linecap="butt" stroke-linejoin="miter" stroke="rgb(70.196078%, 70.196078%, 70.196078%)" stroke-opacity="1" stroke-miterlimit="10" d="M 669.558594 186.929688 C 669.558594 193.394531 659.859375 193.394531 659.859375 186.929688 C 659.859375 180.460938 669.558594 180.460938 669.558594 186.929688 "/>
<path fill-rule="nonzero" fill="rgb(70.196078%, 70.196078%, 70.196078%)" fill-opacity="1" stroke-width="1" stroke-linecap="butt" stroke-linejoin="miter" stroke="rgb(70.196078%, 70.196078%, 70.196078%)" stroke-opacity="1" stroke-miterlimit="10" d="M 749.4375 435.824219 C 749.4375 442.289062 739.738281 442.289062 739.738281 435.824219 C 739.738281 429.355469 749.4375 429.355469 749.4375 435.824219 "/>
<path fill-rule="nonzero" fill="rgb(70.196078%, 70.196078%, 70.196078%)" fill-opacity="1" stroke-width="1" stroke-linecap="butt" stroke-linejoin="miter" stroke="rgb(70.196078%, 70.196078%, 70.196078%)" stroke-opacity="1" stroke-miterlimit="10" d="M 76.195312 532.070312 C 76.195312 538.535156 66.496094 538.535156 66.496094 532.070312 C 66.496094 525.601562 76.195312 525.601562 76.195312 532.070312 "/>
<path fill-rule="nonzero" fill="rgb(70.196078%, 70.196078%, 70.196078%)" fill-opacity="1" stroke-width="1" stroke-linecap="butt" stroke-linejoin="miter" stroke="rgb(70.196078%, 70.196078%, 70.196078%)" stroke-opacity="1" stroke-miterlimit="10" d="M 112.484375 601.410156 C 112.484375 607.875 102.785156 607.875 102.785156 601.410156 C 102.785156 594.941406 112.484375 594.941406 112.484375 601.410156 "/>
<path fill-rule="nonzero" fill="rgb(70.196078%, 70.196078%, 70.196078%)" fill-opacity="1" stroke-width="1" stroke-linecap="butt" stroke-linejoin="miter" stroke="rgb(70.196078%, 70.196078%, 70.196078%)" stroke-opacity="1" stroke-miterlimit="10" d="M 148.472656 675.253906 C 148.472656 681.722656 138.773438 681.722656 138.773438 675.253906 C 138.773438 668.789062 148.472656 668.789062 148.472656 675.253906 "/>
<path fill-rule="nonzero" fill="rgb(70.196078%, 70.196078%, 70.196078%)" fill-opacity="1" stroke-width="1" stroke-linecap="butt" stroke-linejoin="miter" stroke="rgb(70.196078%, 70.196078%, 70.196078%)" stroke-opacity="1" stroke-miterlimit="10" d="M 205.808594 721.042969 C 205.808594 727.511719 196.105469 727.511719 196.105469 721.042969 C 196.105469 714.578125 205.808594 714.578125 205.808594 721.042969 "/>
<path fill-rule="nonzero" fill="rgb(70.196078%, 70.196078%, 70.196078%)" fill-opacity="1" stroke-width="1" stroke-linecap="butt" stroke-linejoin="miter" stroke="rgb(70.196078%, 70.196078%, 70.196078%)" stroke-opacity="1" stroke-miterlimit="10" d="M 693.3125 648.007812 C 693.3125 654.472656 683.613281 654.472656 683.613281 648.007812 C 683.613281 641.539062 693.3125 641.539062 693.3125 648.007812 "/>
<path fill-rule="nonzero" fill="rgb(70.196078%, 70.196078%, 70.196078%)" fill-opacity="1" stroke-width="1" stroke-linecap="butt" stroke-linejoin="miter" stroke="rgb(70.196078%, 70.196078%, 70.196078%)" stroke-opacity="1" stroke-miterlimit="10" d="M 500.519531 745.472656 C 500.519531 751.9375 490.820312 751.9375 490.820312 745.472656 C 490.820312 739.003906 500.519531 739.003906 500.519531 745.472656 "/>
<path fill-rule="nonzero" fill="rgb(70.196078%, 70.196078%, 70.196078%)" fill-opacity="1" stroke-width="1" stroke-linecap="butt" stroke-linejoin="miter" stroke="rgb(70.196078%, 70.196078%, 70.196078%)" stroke-opacity="1" stroke-miterlimit="10" d="M 334.582031 635.960938 C 334.582031 642.425781 324.878906 642.425781 324.878906 635.960938 C 324.878906 629.492188 334.582031 629.492188 334.582031 635.960938 "/>
<path fill-rule="nonzero" fill="rgb(70.196078%, 70.196078%, 70.196078%)" fill-opacity="1" stroke-width="1" stroke-linecap="butt" stroke-linejoin="miter" stroke="rgb(70.196078%, 70.196078%, 70.196078%)" stroke-opacity="1" stroke-miterlimit="10" d="M 302.285156 318.238281 C 302.285156 324.707031 292.585938 324.707031 292.585938 318.238281 C 292.585938 311.773438 302.285156 311.773438 302.285156 318.238281 "/>
<path fill-rule="nonzero" fill="rgb(70.196078%, 70.196078%, 70.196078%)" fill-opacity="1" stroke-width="1" stroke-linecap="butt" stroke-linejoin="miter" stroke="rgb(70.196078%, 70.196078%, 70.196078%)" stroke-opacity="1" stroke-miterlimit="10" d="M 344.003906 718.125 C 344.003906 724.589844 334.300781 724.589844 334.300781 718.125 C 334.300781 711.65625 344.003906 711.65625 344.003906 718.125 "/>
<path fill-rule="nonzero" fill="rgb(70.196078%, 70.196078%, 70.196078%)" fill-opacity="1" stroke-width="1" stroke-linecap="butt" stroke-linejoin="miter" stroke="rgb(70.196078%, 70.196078%, 70.196078%)" stroke-opacity="1" stroke-miterlimit="10" d="M 267.671875 750 C 267.671875 756.464844 257.972656 756.464844 257.972656 750 C 257.972656 743.535156 267.671875 743.535156 267.671875 750 "/>
<path fill-rule="nonzero" fill="rgb(70.196078%, 70.196078%, 70.196078%)" fill-opacity="1" stroke-width="1" stroke-linecap="butt" stroke-linejoin="miter" stroke="rgb(70.196078%, 70.196078%, 70.196078%)" stroke-opacity="1" stroke-miterlimit="10" d="M 358.988281 510.214844 C 358.988281 516.683594 349.289062 516.683594 349.289062 510.214844 C 349.289062 503.75 358.988281 503.75 358.988281 510.214844 "/>
<path fill-rule="nonzero" fill="rgb(70.196078%, 70.196078%, 70.196078%)" fill-opacity="1" stroke-width="1" stroke-linecap="butt" stroke-linejoin="miter" stroke="rgb(70.196078%, 70.196078%, 70.196078%)" stroke-opacity="1" stroke-miterlimit="10" d="M 406.84375 462.535156 C 406.84375 469 397.144531 469 397.144531 462.535156 C 397.144531 456.066406 406.84375 456.066406 406.84375 462.535156 "/>
<path fill-rule="nonzero" fill="rgb(70.196078%, 70.196078%, 70.196078%)" fill-opacity="1" stroke-width="1" stroke-linecap="butt" stroke-linejoin="miter" stroke="rgb(70.196078%, 70.196078%, 70.196078%)" stroke-opacity="1" stroke-miterlimit="10" d="M 394.925781 574.945312 C 394.925781 581.414062 385.226562 581.414062 385.226562 574.945312 C 385.226562 568.480469 394.925781 568.480469 394.925781 574.945312 "/>
<path fill-rule="nonzero" fill="rgb(70.196078%, 70.196078%, 70.196078%)" fill-opacity="1" stroke-width="1" stroke-linecap="butt" stroke-linejoin="miter" stroke="rgb(70.196078%, 70.196078%, 70.196078%)" stroke-opacity="1" stroke-miterlimit="10" d="M 448.660156 623.585938 C 448.660156 630.050781 438.960938 630.050781 438.960938 623.585938 C 438.960938 617.117188 448.660156 617.117188 448.660156 623.585938 "/>
<path fill-rule="nonzero" fill="rgb(70.196078%, 70.196078%, 70.196078%)" fill-opacity="1" stroke-width="1" stroke-linecap="butt" stroke-linejoin="miter" stroke="rgb(70.196078%, 70.196078%, 70.196078%)" stroke-opacity="1" stroke-miterlimit="10" d="M 363.691406 160.027344 C 363.691406 166.496094 353.992188 166.496094 353.992188 160.027344 C 353.992188 153.5625 363.691406 153.5625 363.691406 160.027344 "/>
<path fill-rule="nonzero" fill="rgb(70.196078%, 70.196078%, 70.196078%)" fill-opacity="1" stroke-width="1" stroke-linecap="butt" stroke-linejoin="miter" stroke="rgb(70.196078%, 70.196078%, 70.196078%)" stroke-opacity="1" stroke-miterlimit="10" d="M 382.773438 69.890625 C 382.773438 76.359375 373.070312 76.359375 373.070312 69.890625 C 373.070312 63.425781 382.773438 63.425781 382.773438 69.890625 "/>
<path fill-rule="nonzero" fill="rgb(70.196078%, 70.196078%, 70.196078%)" fill-opacity="1" stroke-width="1" stroke-linecap="butt" stroke-linejoin="miter" stroke="rgb(70.196078%, 70.196078%, 70.196078%)" stroke-opacity="1" stroke-miterlimit="10" d="M 323.765625 50 C 323.765625 56.464844 314.066406 56.464844 314.066406 50 C 314.066406 43.535156 323.765625 43.535156 323.765625 50 "/>
<path fill-rule="nonzero" fill="rgb(70.196078%, 70.196078%, 70.196078%)" fill-opacity="1" stroke-width="1" stroke-linecap="butt" stroke-linejoin="miter" stroke="rgb(70.196078%, 70.196078%, 70.196078%)" stroke-opacity="1" stroke-miterlimit="10" d="M 647.191406 591.574219 C 647.191406 598.042969 637.492188 598.042969 637.492188 591.574219 C 637.492188 585.109375 647.191406 585.109375 647.191406 591.574219 "/>
<path fill-rule="nonzero" fill="rgb(70.196078%, 70.196078%, 70.196078%)" fill-opacity="1" stroke-width="1" stroke-linecap="butt" stroke-linejoin="miter" stroke="rgb(70.196078%, 70.196078%, 70.196078%)" stroke-opacity="1" stroke-miterlimit="10" d="M 299.457031 145.878906 C 299.457031 152.34375 289.757812 152.34375 289.757812 145.878906 C 289.757812 139.410156 299.457031 139.410156 299.457031 145.878906 "/>
<path fill-rule="nonzero" fill="rgb(70.196078%, 70.196078%, 70.196078%)" fill-opacity="1" stroke-width="1" stroke-linecap="butt" stroke-linejoin="miter" stroke="rgb(70.196078%, 70.196078%, 70.196078%)" stroke-opacity="1" stroke-miterlimit="10" d="M 365.695312 247.511719 C 365.695312 253.976562 355.992188 253.976562 355.992188 247.511719 C 355.992188 241.042969 365.695312 241.042969 365.695312 247.511719 "/>
<path fill-rule="nonzero" fill="rgb(70.196078%, 70.196078%, 70.196078%)" fill-opacity="1" stroke-width="1" stroke-linecap="butt" stroke-linejoin="miter" stroke="rgb(70.196078%, 70.196078%, 70.196078%)" stroke-opacity="1" stroke-miterlimit="10" d="M 353.25 345.152344 C 353.25 351.617188 343.550781 351.617188 343.550781 345.152344 C 343.550781 338.6875 353.25 338.6875 353.25 345.152344 "/>
<path fill-rule="nonzero" fill="rgb(70.196078%, 70.196078%, 70.196078%)" fill-opacity="1" stroke-width="1" stroke-linecap="butt" stroke-linejoin="miter" stroke="rgb(70.196078%, 70.196078%, 70.196078%)" stroke-opacity="1" stroke-miterlimit="10" d="M 212.386719 382.695312 C 212.386719 389.160156 202.683594 389.160156 202.683594 382.695312 C 202.683594 376.230469 212.386719 376.230469 212.386719 382.695312 "/>
<path fill-rule="nonzero" fill="rgb(70.196078%, 70.196078%, 70.196078%)" fill-opacity="1" stroke-width="1" stroke-linecap="butt" stroke-linejoin="miter" stroke="rgb(70.196078%, 70.196078%, 70.196078%)" stroke-opacity="1" stroke-miterlimit="10" d="M 273.066406 398.761719 C 273.066406 405.230469 263.363281 405.230469 263.363281 398.761719 C 263.363281 392.296875 273.066406 392.296875 273.066406 398.761719 "/>
<path fill-rule="nonzero" fill="rgb(70.196078%, 70.196078%, 70.196078%)" fill-opacity="1" stroke-width="1" stroke-linecap="butt" stroke-linejoin="miter" stroke="rgb(70.196078%, 70.196078%, 70.196078%)" stroke-opacity="1" stroke-miterlimit="10" d="M 710.019531 507.457031 C 710.019531 513.921875 700.320312 513.921875 700.320312 507.457031 C 700.320312 500.992188 710.019531 500.992188 710.019531 507.457031 "/>
<path fill-rule="nonzero" fill="rgb(70.196078%, 70.196078%, 70.196078%)" fill-opacity="1" stroke-width="1" stroke-linecap="butt" stroke-linejoin="miter" stroke="rgb(70.196078%, 70.196078%, 70.196078%)" stroke-opacity="1" stroke-miterlimit="10" d="M 430.6875 670.992188 C 430.6875 677.457031 420.988281 677.457031 420.988281 670.992188 C 420.988281 664.523438 430.6875 664.523438 430.6875 670.992188 "/>
<path fill-rule="nonzero" fill="rgb(70.196078%, 70.196078%, 70.196078%)" fill-opacity="1" stroke-width="1" stroke-linecap="butt" stroke-linejoin="miter" stroke="rgb(70.196078%, 70.196078%, 70.196078%)" stroke-opacity="1" stroke-miterlimit="10" d="M 54.851562 450.132812 C 54.851562 456.597656 45.148438 456.597656 45.148438 450.132812 C 45.148438 443.664062 54.851562 443.664062 54.851562 450.132812 "/>
<path fill-rule="nonzero" fill="rgb(70.196078%, 70.196078%, 70.196078%)" fill-opacity="1" stroke-width="1" stroke-linecap="butt" stroke-linejoin="miter" stroke="rgb(70.196078%, 70.196078%, 70.196078%)" stroke-opacity="1" stroke-miterlimit="10" d="M 166.496094 329.242188 C 166.496094 335.710938 156.796875 335.710938 156.796875 329.242188 C 156.796875 322.777344 166.496094 322.777344 166.496094 329.242188 "/>
<path fill-rule="nonzero" fill="rgb(70.196078%, 70.196078%, 70.196078%)" fill-opacity="1" stroke-width="1" stroke-linecap="butt" stroke-linejoin="miter" stroke="rgb(70.196078%, 70.196078%, 70.196078%)" stroke-opacity="1" stroke-miterlimit="10" d="M 107.210938 303.710938 C 107.210938 310.175781 97.511719 310.175781 97.511719 303.710938 C 97.511719 297.242188 107.210938 297.242188 107.210938 303.710938 "/>
<path fill-rule="nonzero" fill="rgb(70.196078%, 70.196078%, 70.196078%)" fill-opacity="1" stroke-width="1" stroke-linecap="butt" stroke-linejoin="miter" stroke="rgb(70.196078%, 70.196078%, 70.196078%)" stroke-opacity="1" stroke-miterlimit="10" d="M 63.492188 362.839844 C 63.492188 369.304688 53.792969 369.304688 53.792969 362.839844 C 53.792969 356.371094 63.492188 356.371094 63.492188 362.839844 "/>
<path fill-rule="nonzero" fill="rgb(70.196078%, 70.196078%, 70.196078%)" fill-opacity="1" stroke-width="1" stroke-linecap="butt" stroke-linejoin="miter" stroke="rgb(70.196078%, 70.196078%, 70.196078%)" stroke-opacity="1" stroke-miterlimit="10" d="M 432.847656 525.761719 C 432.847656 532.226562 423.148438 532.226562 423.148438 525.761719 C 423.148438 519.292969 432.847656 519.292969 432.847656 525.761719 "/>
<path fill-rule="nonzero" fill="rgb(70.196078%, 70.196078%, 70.196078%)" fill-opacity="1" stroke-width="1" stroke-linecap="butt" stroke-linejoin="miter" stroke="rgb(70.196078%, 70.196078%, 70.196078%)" stroke-opacity="1" stroke-miterlimit="10" d="M 578.921875 605.800781 C 578.921875 612.265625 569.222656 612.265625 569.222656 605.800781 C 569.222656 599.332031 578.921875 599.332031 578.921875 605.800781 "/>
<path fill-rule="nonzero" fill="rgb(70.196078%, 70.196078%, 70.196078%)" fill-opacity="1" stroke-width="1" stroke-linecap="butt" stroke-linejoin="miter" stroke="rgb(70.196078%, 70.196078%, 70.196078%)" stroke-opacity="1" stroke-miterlimit="10" d="M 505.71875 580.140625 C 505.71875 586.609375 496.019531 586.609375 496.019531 580.140625 C 496.019531 573.675781 505.71875 573.675781 505.71875 580.140625 "/>
<path fill-rule="nonzero" fill="rgb(100%, 84.313725%, 0%)" fill-opacity="1" stroke-width="1" stroke-linecap="butt" stroke-linejoin="miter" stroke="rgb(100%, 84.313725%, 0%)" stroke-opacity="1" stroke-miterlimit="10" d="M 506.25 415.007812 L 516.949219 415.007812 L 516.949219 425.707031 L 506.25 425.707031 Z M 506.25 415.007812 "/>
<path fill-rule="nonzero" fill="rgb(70.196078%, 70.196078%, 70.196078%)" fill-opacity="1" stroke-width="1" stroke-linecap="butt" stroke-linejoin="miter" stroke="rgb(70.196078%, 70.196078%, 70.196078%)" stroke-opacity="1" stroke-miterlimit="10" d="M 565.5 406.1875 C 565.5 412.652344 555.800781 412.652344 555.800781 406.1875 C 555.800781 399.722656 565.5 399.722656 565.5 406.1875 "/>
<path fill-rule="nonzero" fill="rgb(70.196078%, 70.196078%, 70.196078%)" fill-opacity="1" stroke-width="1" stroke-linecap="butt" stroke-linejoin="miter" stroke="rgb(70.196078%, 70.196078%, 70.196078%)" stroke-opacity="1" stroke-miterlimit="10" d="M 675.246094 392.644531 C 675.246094 399.109375 665.542969 399.109375 665.542969 392.644531 C 665.542969 386.179688 675.246094 386.179688 675.246094 392.644531 "/>
</svg>
