<?xml version="1.0" encoding="UTF-8"?>
<svg xmlns="http://www.w3.org/2000/svg" xmlns:xlink="http://www.w3.org/1999/xlink" width="800" height="800" viewBox="0 0 800 800">
<rect x="-80" y="-80" width="960" height="960" fill="rgb(100%, 100%, 100%)" fill-opacity="1"/>
<path fill="none" stroke-width="2.5" stroke-linecap="butt" stroke-linejoin="miter" stroke="rgb(70.196078%, 70.196078%, 70.196078%)" stroke-opacity="1" stroke-miterlimit="10" d="M 596.804688 327.90625 C 641.707031 303.753906 671.117188 267.101562 681.71875 217.238281 "/>
<path fill-rule="nonzero" fill="rgb(70.196078%, 70.196078%, 70.196078%)" fill-opacity="1" d="M 683.203125 210.261719 L 683.988281 217.722656 L 679.453125 216.757812 L 683.203125 210.261719 "/>
<path fill="none" stroke-width="2.5" stroke-linecap="butt" stroke-linejoin="miter" stroke="rgb(70.196078%, 70.196078%, 70.196078%)" stroke-opacity="1" stroke-miterlimit="10" d="M 206.054688 175.535156 C 238.941406 225.980469 285.023438 256.742188 344.730469 264.464844 "/>
<path fill-rule="nonzero" fill="rgb(70.196078%, 70.196078%, 70.196078%)" fill-opacity="1" d="M 351.804688 265.378906 L 344.433594 266.761719 L 345.027344 262.164062 L 351.804688 265.378906 "/>
<path fill="none" stroke-width="1.5" stroke-linecap="butt" stroke-linejoin="miter" stroke="rgb(12.156863%, 47.058824%, 70.588235%)" stroke-opacity="1" stroke-miterlimit="10" d="M 206.054688 175.535156 C 178.761719 187.5625 159.519531 207.488281 151.46875 236.183594 "/>
<path fill-rule="nonzero" fill="rgb(12.156863%, 47.058824%, 70.588235%)" fill-opacity="1" d="M 149.542969 243.050781 L 149.238281 235.558594 L 153.699219 236.8125 L 149.542969 243.050781 "/>
<path fill="none" stroke-width="1.5" stroke-linecap="butt" stroke-linejoin="miter" stroke="rgb(12.156863%, 47.058824%, 70.588235%)" stroke-opacity="1" stroke-miterlimit="10" d="M 172.585938 445.792969 C 148.273438 476.164062 138.328125 510.738281 146.023438 548.859375 "/>
<path fill-rule="nonzero" fill="rgb(12.156863%, 47.058824%, 70.588235%)" fill-opacity="1" d="M 147.433594 555.851562 L 143.75 549.316406 L 148.292969 548.398438 L 147.433594 555.851562 "/>
<path fill="none" stroke-width="2.5" stroke-linecap="butt" stroke-linejoin="miter" stroke="rgb(70.196078%, 70.196078%, 70.196078%)" stroke-opacity="1" stroke-miterlimit="10" d="M 354.179688 265.683594 C 422.347656 321.941406 500.28125 344.328125 587.410156 329.503906 "/>
<path fill-rule="nonzero" fill="rgb(70.196078%, 70.196078%, 70.196078%)" fill-opacity="1" d="M 594.441406 328.304688 L 587.796875 331.789062 L 587.019531 327.21875 L 594.441406 328.304688 "/>
<path fill="none" stroke-width="1.5" stroke-linecap="butt" stroke-linejoin="miter" stroke="rgb(12.156863%, 47.058824%, 70.588235%)" stroke-opacity="1" stroke-miterlimit="10" d="M 149.347656 243.746094 C 126.460938 311.726562 131.9375 377.382812 168.574219 439.042969 "/>
<path fill-rule="nonzero" fill="rgb(12.156863%, 47.058824%, 70.588235%)" fill-opacity="1" d="M 172.21875 445.175781 L 166.582031 440.226562 L 170.566406 437.859375 L 172.21875 445.175781 "/>
<path fill="none" stroke-width="1.5" stroke-linecap="butt" stroke-linejoin="miter" stroke="rgb(30.196078%, 68.627451%, 29.019608%)" stroke-opacity="1" stroke-miterlimit="10" d="M 500.152344 144.621094 C 482.445312 174.394531 477.835938 206.144531 489.402344 238.78125 "/>
<path fill-rule="nonzero" fill="rgb(30.196078%, 68.627451%, 29.019608%)" fill-opacity="1" d="M 491.78125 245.503906 L 487.214844 239.554688 L 491.585938 238.007812 L 491.78125 245.503906 "/>
<path fill="none" stroke-width="1.5" stroke-linecap="butt" stroke-linejoin="miter" stroke="rgb(99.215686%, 74.901961%, 43.529412%)" stroke-opacity="1" stroke-miterlimit="10" d="M 500.152344 144.621094 C 504.585938 186.011719 523.15625 219.671875 557.683594 242.902344 "/>
<path fill-rule="nonzero" fill="rgb(99.215686%, 74.901961%, 43.529412%)" fill-opacity="1" d="M 563.601562 246.882812 L 556.386719 244.824219 L 558.976562 240.976562 L 563.601562 246.882812 "/>
<path fill="none" stroke-width="3.5" stroke-linecap="butt" stroke-linejoin="miter" stroke="rgb(70.196078%, 70.196078%, 70.196078%)" stroke-opacity="1" stroke-miterlimit="10" d="M 161.785156 50 C 156.574219 95.195312 168.332031 135.503906 199.523438 168.605469 "/>
<path fill-rule="nonzero" fill="rgb(70.196078%, 70.196078%, 70.196078%)" fill-opacity="1" d="M 204.414062 173.796875 L 197.835938 170.195312 L 201.210938 167.015625 L 204.414062 173.796875 "/>
<path fill="none" stroke-width="2.5" stroke-linecap="butt" stroke-linejoin="miter" stroke="rgb(70.196078%, 70.196078%, 70.196078%)" stroke-opacity="1" stroke-miterlimit="10" d="M 399.121094 160.671875 C 431.761719 170.996094 463.382812 168.3125 492.148438 149.777344 "/>
<path fill-rule="nonzero" fill="rgb(70.196078%, 70.196078%, 70.196078%)" fill-opacity="1" d="M 498.144531 145.914062 L 493.402344 151.726562 L 490.890625 147.832031 L 498.144531 145.914062 "/>
<path fill="none" stroke-width="2.5" stroke-linecap="butt" stroke-linejoin="miter" stroke="rgb(70.196078%, 70.196078%, 70.196078%)" stroke-opacity="1" stroke-miterlimit="10" d="M 683.699219 207.921875 C 709.261719 205.488281 730.542969 194.523438 744.734375 173.15625 "/>
<path fill-rule="nonzero" fill="rgb(70.196078%, 70.196078%, 70.196078%)" fill-opacity="1" d="M 748.679688 167.210938 L 746.664062 174.4375 L 742.800781 171.871094 L 748.679688 167.210938 "/>
<path fill="none" stroke-width="1.5" stroke-linecap="butt" stroke-linejoin="miter" stroke="rgb(30.196078%, 68.627451%, 29.019608%)" stroke-opacity="1" stroke-miterlimit="10" d="M 517.410156 640.117188 C 500.742188 673.425781 498.328125 707.808594 513.222656 741.925781 "/>
<path fill-rule="nonzero" fill="rgb(30.196078%, 68.627451%, 29.019608%)" fill-opacity="1" d="M 516.074219 748.464844 L 511.097656 742.855469 L 515.34375 741 L 516.074219 748.464844 "/>
<path fill="none" stroke-width="1.5" stroke-linecap="butt" stroke-linejoin="miter" stroke="rgb(99.215686%, 74.901961%, 43.529412%)" stroke-opacity="1" stroke-miterlimit="10" d="M 556.761719 484.277344 C 565.296875 515.019531 583.449219 538.402344 612.574219 551.386719 "/>
<path fill-rule="nonzero" fill="rgb(99.215686%, 74.901961%, 43.529412%)" fill-opacity="1" d="M 619.085938 554.289062 L 611.628906 553.503906 L 613.515625 549.269531 L 619.085938 554.289062 "/>
<path fill="none" stroke-width="1.5" stroke-linecap="butt" stroke-linejoin="miter" stroke="rgb(30.196078%, 68.627451%, 29.019608%)" stroke-opacity="1" stroke-miterlimit="10" d="M 556.761719 484.277344 C 520.976562 527.539062 506.332031 577.097656 516.050781 632.382812 "/>
<path fill-rule="nonzero" fill="rgb(30.196078%, 68.627451%, 29.019608%)" fill-opacity="1" d="M 517.285156 639.410156 L 513.769531 632.785156 L 518.332031 631.984375 L 517.285156 639.410156 "/>
<path fill="none" stroke-width="1.5" stroke-linecap="butt" stroke-linejoin="miter" stroke="rgb(30.196078%, 68.627451%, 29.019608%)" stroke-opacity="1" stroke-miterlimit="10" d="M 492.023438 246.183594 C 473.863281 294.839844 476.019531 342.628906 501.339844 387.960938 "/>
<path fill-rule="nonzero" fill="rgb(30.196078%, 68.627451%, 29.019608%)" fill-opacity="1" d="M 504.820312 394.1875 L 499.316406 389.089844 L 503.363281 386.832031 L 504.820312 394.1875 "/>
<path fill="none" stroke-width="1.5" stroke-linecap="butt" stroke-linejoin="miter" stroke="rgb(30.196078%, 68.627451%, 29.019608%)" stroke-opacity="1" stroke-miterlimit="10" d="M 505.171875 394.816406 C 507.234375 429.34375 521.203125 458.199219 549.082031 478.644531 "/>
<path fill-rule="nonzero" fill="rgb(30.196078%, 68.627451%, 29.019608%)" fill-opacity="1" d="M 554.835938 482.863281 L 547.710938 480.511719 L 550.453125 476.773438 L 554.835938 482.863281 "/>
<path fill="none" stroke-width="1.5" stroke-linecap="butt" stroke-linejoin="miter" stroke="rgb(99.215686%, 74.901961%, 43.529412%)" stroke-opacity="1" stroke-miterlimit="10" d="M 564.195312 247.285156 C 526.289062 321.683594 521.566406 398.171875 553.15625 475.457031 "/>
<path fill-rule="nonzero" fill="rgb(99.215686%, 74.901961%, 43.529412%)" fill-opacity="1" d="M 555.855469 482.058594 L 551.011719 476.332031 L 555.300781 474.578125 L 555.855469 482.058594 "/>
<path fill="none" stroke-width="1.5" stroke-linecap="butt" stroke-linejoin="miter" stroke="rgb(30.196078%, 68.627451%, 29.019608%)" stroke-opacity="1" stroke-miterlimit="10" d="M 228.171875 360.277344 C 232.824219 394.746094 249.015625 422.589844 278.472656 441.046875 "/>
<path fill-rule="nonzero" fill="rgb(30.196078%, 68.627451%, 29.019608%)" fill-opacity="1" d="M 284.519531 444.832031 L 277.242188 443.007812 L 279.703125 439.082031 L 284.519531 444.832031 "/>
<path fill="none" stroke-width="1.5" stroke-linecap="butt" stroke-linejoin="miter" stroke="rgb(30.196078%, 68.627451%, 29.019608%)" stroke-opacity="1" stroke-miterlimit="10" d="M 285.128906 445.214844 C 305.910156 456.882812 327.960938 459.824219 350.074219 451 "/>
<path fill-rule="nonzero" fill="rgb(30.196078%, 68.627451%, 29.019608%)" fill-opacity="1" d="M 356.699219 448.355469 L 350.933594 453.152344 L 349.214844 448.847656 L 356.699219 448.355469 "/>
<path fill="none" stroke-width="2.5" stroke-linecap="butt" stroke-linejoin="miter" stroke="rgb(70.196078%, 70.196078%, 70.196078%)" stroke-opacity="1" stroke-miterlimit="10" d="M 50 369.027344 C 78.46875 371.957031 104.039062 364.539062 124.316406 344.375 "/>
<path fill-rule="nonzero" fill="rgb(70.196078%, 70.196078%, 70.196078%)" fill-opacity="1" d="M 129.375 339.34375 L 125.949219 346.015625 L 122.683594 342.730469 L 129.375 339.34375 "/>
<path fill="none" stroke-width="1.5" stroke-linecap="butt" stroke-linejoin="miter" stroke="rgb(30.196078%, 68.627451%, 29.019608%)" stroke-opacity="1" stroke-miterlimit="10" d="M 399.453125 353.992188 C 428.332031 292.984375 430.546875 230.984375 403.007812 169.371094 "/>
<path fill-rule="nonzero" fill="rgb(30.196078%, 68.627451%, 29.019608%)" fill-opacity="1" d="M 400.097656 162.859375 L 405.125 168.425781 L 400.890625 170.316406 L 400.097656 162.859375 "/>
<path fill="none" stroke-width="1.5" stroke-linecap="butt" stroke-linejoin="miter" stroke="rgb(99.215686%, 74.901961%, 43.529412%)" stroke-opacity="1" stroke-miterlimit="10" d="M 283.890625 165.921875 C 319.609375 181.589844 355.679688 182.261719 390.589844 164.910156 "/>
<path fill-rule="nonzero" fill="rgb(99.215686%, 74.901961%, 43.529412%)" fill-opacity="1" d="M 396.980469 161.738281 L 391.621094 166.988281 L 389.558594 162.835938 L 396.980469 161.738281 "/>
<path fill="none" stroke-width="1.5" stroke-linecap="butt" stroke-linejoin="miter" stroke="rgb(30.196078%, 68.627451%, 29.019608%)" stroke-opacity="1" stroke-miterlimit="10" d="M 357.367188 448.089844 C 384.332031 425.652344 399.449219 396.90625 399.453125 361.84375 "/>
<path fill-rule="nonzero" fill="rgb(30.196078%, 68.627451%, 29.019608%)" fill-opacity="1" d="M 399.453125 354.710938 L 401.769531 361.84375 L 397.132812 361.84375 L 399.453125 354.710938 "/>
<path fill="none" stroke-width="1.5" stroke-linecap="butt" stroke-linejoin="miter" stroke="rgb(30.196078%, 68.627451%, 29.019608%)" stroke-opacity="1" stroke-miterlimit="10" d="M 131.070312 337.660156 C 157.25 359.105469 187.257812 368.210938 220.464844 361.773438 "/>
<path fill-rule="nonzero" fill="rgb(30.196078%, 68.627451%, 29.019608%)" fill-opacity="1" d="M 227.46875 360.414062 L 220.90625 364.046875 L 220.023438 359.496094 L 227.46875 360.414062 "/>
<path fill="none" stroke-width="1.5" stroke-linecap="butt" stroke-linejoin="miter" stroke="rgb(99.215686%, 74.901961%, 43.529412%)" stroke-opacity="1" stroke-miterlimit="10" d="M 131.070312 337.660156 C 205.859375 305.480469 257.050781 251.054688 281.53125 173.410156 "/>
<path fill-rule="nonzero" fill="rgb(99.215686%, 74.901961%, 43.529412%)" fill-opacity="1" d="M 283.675781 166.605469 L 283.742188 174.105469 L 279.320312 172.710938 L 283.675781 166.605469 "/>
<path fill-rule="nonzero" fill="rgb(70.196078%, 70.196078%, 70.196078%)" fill-opacity="1" stroke-width="1" stroke-linecap="butt" stroke-linejoin="miter" stroke="rgb(70.196078%, 70.196078%, 70.196078%)" stroke-opacity="1" stroke-miterlimit="10" d="M 599.304688 327.90625 C 599.304688 331.238281 594.304688 331.238281 594.304688 327.90625 C 594.304688 324.570312 599.304688 324.570312 599.304688 327.90625 "/>
<path fill-rule="nonzero" fill="rgb(70.196078%, 70.196078%, 70.196078%)" fill-opacity="1" stroke-width="1" stroke-linecap="butt" stroke-linejoin="miter" stroke="rgb(70.196078%, 70.196078%, 70.196078%)" stroke-opacity="1" stroke-miterlimit="10" d="M 208.554688 175.535156 C 208.554688 178.871094 203.554688 178.871094 203.554688 175.535156 C 203.554688 172.203125 208.554688 172.203125 208.554688 175.535156 "/>
<path fill-rule="nonzero" fill="rgb(12.156863%, 47.058824%, 70.588235%)" fill-opacity="1" stroke-width="1" stroke-linecap="butt" stroke-linejoin="miter" stroke="rgb(12.156863%, 47.058824%, 70.588235%)" stroke-opacity="1" stroke-miterlimit="10" d="M 173.335938 445.792969 C 173.335938 446.792969 171.835938 446.792969 171.835938 445.792969 C 171.835938 444.792969 173.335938 444.792969 173.335938 445.792969 "/>
<path fill-rule="nonzero" fill="rgb(70.196078%, 70.196078%, 70.196078%)" fill-opacity="1" stroke-width="1" stroke-linecap="butt" stroke-linejoin="miter" stroke="rgb(70.196078%, 70.196078%, 70.196078%)" stroke-opacity="1" stroke-miterlimit="10" d="M 356.679688 265.683594 C 356.679688 269.019531 351.679688 269.019531 351.679688 265.683594 C 351.679688 262.351562 356.679688 262.351562 356.679688 265.683594 "/>
<path fill-rule="nonzero" fill="rgb(12.156863%, 47.058824%, 70.588235%)" fill-opacity="1" stroke-width="1" stroke-linecap="butt" stroke-linejoin="miter" stroke="rgb(12.156863%, 47.058824%, 70.588235%)" stroke-opacity="1" stroke-miterlimit="10" d="M 150.097656 243.746094 C 150.097656 244.746094 148.597656 244.746094 148.597656 243.746094 C 148.597656 242.746094 150.097656 242.746094 150.097656 243.746094 "/>
<path fill-rule="nonzero" fill="rgb(70.196078%, 70.196078%, 70.196078%)" fill-opacity="1" stroke-width="1" stroke-linecap="butt" stroke-linejoin="miter" stroke="rgb(70.196078%, 70.196078%, 70.196078%)" stroke-opacity="1" stroke-miterlimit="10" d="M 502.652344 144.621094 C 502.652344 147.953125 497.652344 147.953125 497.652344 144.621094 C 497.652344 141.289062 502.652344 141.289062 502.652344 144.621094 "/>
<path fill-rule="nonzero" fill="rgb(100%, 84.313725%, 0%)" fill-opacity="1" stroke-width="1" stroke-linecap="butt" stroke-linejoin="miter" stroke="rgb(100%, 84.313725%, 0%)" stroke-opacity="1" stroke-miterlimit="10" d="M 159.285156 47.5 L 164.285156 47.5 L 164.285156 52.5 L 159.285156 52.5 Z M 159.285156 47.5 "/>
<path fill-rule="nonzero" fill="rgb(70.196078%, 70.196078%, 70.196078%)" fill-opacity="1" stroke-width="1" stroke-linecap="butt" stroke-linejoin="miter" stroke="rgb(70.196078%, 70.196078%, 70.196078%)" stroke-opacity="1" stroke-miterlimit="10" d="M 401.621094 160.671875 C 401.621094 164.007812 396.621094 164.007812 396.621094 160.671875 C 396.621094 157.339844 401.621094 157.339844 401.621094 160.671875 "/>
<path fill-rule="nonzero" fill="rgb(14.901961%, 14.901961%, 14.901961%)" fill-opacity="1" stroke-width="1" stroke-linecap="butt" stroke-linejoin="miter" stroke="rgb(14.901961%, 14.901961%, 14.901961%)" stroke-opacity="1" stroke-miterlimit="10" d="M 747.5 167.722656 L 750 162.722656 L 752.5 167.722656 Z M 747.5 167.722656 "/>
<path fill-rule="nonzero" fill="rgb(70.196078%, 70.196078%, 70.196078%)" fill-opacity="1" stroke-width="1" stroke-linecap="butt" stroke-linejoin="miter" stroke="rgb(70.196078%, 70.196078%, 70.196078%)" stroke-opacity="1" stroke-miterlimit="10" d="M 686.199219 207.921875 C 686.199219 211.253906 681.199219 211.253906 681.199219 207.921875 C 681.199219 204.589844 686.199219 204.589844 686.199219 207.921875 "/>
<path fill-rule="nonzero" fill="rgb(14.901961%, 14.901961%, 14.901961%)" fill-opacity="1" stroke-width="1" stroke-linecap="butt" stroke-linejoin="miter" stroke="rgb(14.901961%, 14.901961%, 14.901961%)" stroke-opacity="1" stroke-miterlimit="10" d="M 146.015625 559.242188 L 147.765625 555.742188 L 149.515625 559.242188 Z M 146.015625 559.242188 "/>
<path fill-rule="nonzero" fill="rgb(14.901961%, 14.901961%, 14.901961%)" fill-opacity="1" stroke-width="1" stroke-linecap="butt" stroke-linejoin="miter" stroke="rgb(14.901961%, 14.901961%, 14.901961%)" stroke-opacity="1" stroke-miterlimit="10" d="M 618.867188 556.722656 L 620.617188 553.222656 L 622.367188 556.722656 Z M 618.867188 556.722656 "/>
<path fill-rule="nonzero" fill="rgb(14.901961%, 14.901961%, 14.901961%)" fill-opacity="1" stroke-width="1" stroke-linecap="butt" stroke-linejoin="miter" stroke="rgb(14.901961%, 14.901961%, 14.901961%)" stroke-opacity="1" stroke-miterlimit="10" d="M 514.996094 751.75 L 516.746094 748.25 L 518.496094 751.75 Z M 514.996094 751.75 "/>
<path fill-rule="nonzero" fill="rgb(30.196078%, 68.627451%, 29.019608%)" fill-opacity="1" stroke-width="1" stroke-linecap="butt" stroke-linejoin="miter" stroke="rgb(30.196078%, 68.627451%, 29.019608%)" stroke-opacity="1" stroke-miterlimit="10" d="M 518.160156 640.117188 C 518.160156 641.117188 516.660156 641.117188 516.660156 640.117188 C 516.660156 639.117188 518.160156 639.117188 518.160156 640.117188 "/>
<path fill-rule="nonzero" fill="rgb(70.196078%, 70.196078%, 70.196078%)" fill-opacity="1" stroke-width="1" stroke-linecap="butt" stroke-linejoin="miter" stroke="rgb(70.196078%, 70.196078%, 70.196078%)" stroke-opacity="1" stroke-miterlimit="10" d="M 559.261719 484.277344 C 559.261719 487.609375 554.261719 487.609375 554.261719 484.277344 C 554.261719 480.941406 559.261719 480.941406 559.261719 484.277344 "/>
<path fill-rule="nonzero" fill="rgb(30.196078%, 68.627451%, 29.019608%)" fill-opacity="1" stroke-width="1" stroke-linecap="butt" stroke-linejoin="miter" stroke="rgb(30.196078%, 68.627451%, 29.019608%)" stroke-opacity="1" stroke-miterlimit="10" d="M 492.773438 246.183594 C 492.773438 247.183594 491.273438 247.183594 491.273438 246.183594 C 491.273438 245.183594 492.773438 245.183594 492.773438 246.183594 "/>
<path fill-rule="nonzero" fill="rgb(30.196078%, 68.627451%, 29.019608%)" fill-opacity="1" stroke-width="1" stroke-linecap="butt" stroke-linejoin="miter" stroke="rgb(30.196078%, 68.627451%, 29.019608%)" stroke-opacity="1" stroke-miterlimit="10" d="M 505.921875 394.816406 C 505.921875 395.816406 504.421875 395.816406 504.421875 394.816406 C 504.421875 393.816406 505.921875 393.816406 505.921875 394.816406 "/>
<path fill-rule="nonzero" fill="rgb(99.215686%, 74.901961%, 43.529412%)" fill-opacity="1" stroke-width="1" stroke-linecap="butt" stroke-linejoin="miter" stroke="rgb(99.215686%, 74.901961%, 43.529412%)" stroke-opacity="1" stroke-miterlimit="10" d="M 564.945312 247.285156 C 564.945312 248.285156 563.445312 248.285156 563.445312 247.285156 C 563.445312 246.285156 564.945312 246.285156 564.945312 247.285156 "/>
<path fill-rule="nonzero" fill="rgb(30.196078%, 68.627451%, 29.019608%)" fill-opacity="1" stroke-width="1" stroke-linecap="butt" stroke-linejoin="miter" stroke="rgb(30.196078%, 68.627451%, 29.019608%)" stroke-opacity="1" stroke-miterlimit="10" d="M 228.921875 360.277344 C 228.921875 361.277344 227.421875 361.277344 227.421875 360.277344 C 227.421875 359.277344 228.921875 359.277344 228.921875 360.277344 "/>
<path fill-rule="nonzero" fill="rgb(30.196078%, 68.627451%, 29.019608%)" fill-opacity="1" stroke-width="1" stroke-linecap="butt" stroke-linejoin="miter" stroke="rgb(30.196078%, 68.627451%, 29.019608%)" stroke-opacity="1" stroke-miterlimit="10" d="M 285.878906 445.214844 C 285.878906 446.214844 284.378906 446.214844 284.378906 445.214844 C 284.378906 444.214844 285.878906 444.214844 285.878906 445.214844 "/>
<path fill-rule="nonzero" fill="rgb(100%, 84.313725%, 0%)" fill-opacity="1" stroke-width="1" stroke-linecap="butt" stroke-linejoin="miter" stroke="rgb(100%, 84.313725%, 0%)" stroke-opacity="1" stroke-miterlimit="10" d="M 47.5 366.527344 L 52.5 366.527344 L 52.5 371.527344 L 47.5 371.527344 Z M 47.5 366.527344 "/>
<path fill-rule="nonzero" fill="rgb(30.196078%, 68.627451%, 29.019608%)" fill-opacity="1" stroke-width="1" stroke-linecap="butt" stroke-linejoin="miter" stroke="rgb(30.196078%, 68.627451%, 29.019608%)" stroke-opacity="1" stroke-miterlimit="10" d="M 400.203125 353.992188 C 400.203125 354.992188 398.703125 354.992188 398.703125 353.992188 C 398.703125 352.992188 400.203125 352.992188 400.203125 353.992188 "/>
<path fill-rule="nonzero" fill="rgb(99.215686%, 74.901961%, 43.529412%)" fill-opacity="1" stroke-width="1" stroke-linecap="butt" stroke-linejoin="miter" stroke="rgb(99.215686%, 74.901961%, 43.529412%)" stroke-opacity="1" stroke-miterlimit="10" d="M 284.640625 165.921875 C 284.640625 166.921875 283.140625 166.921875 283.140625 165.921875 C 283.140625 164.921875 284.640625 164.921875 284.640625 165.921875 "/>
<path fill-rule="nonzero" fill="rgb(30.196078%, 68.627451%, 29.019608%)" fill-opacity="1" stroke-width="1" stroke-linecap="butt" stroke-linejoin="miter" stroke="rgb(30.196078%, 68.627451%, 29.019608%)" stroke-opacity="1" stroke-miterlimit="10" d="M 358.117188 448.089844 C 358.117188 449.089844 356.617188 449.089844 356.617188 448.089844 C 356.617188 447.089844 358.117188 447.089844 358.117188 448.089844 "/>
<path fill-rule="nonzero" fill="rgb(70.196078%, 70.196078%, 70.196078%)" fill-opacity="1" stroke-width="1" stroke-linecap="butt" stroke-linejoin="miter" stroke="rgb(70.196078%, 70.196078%, 70.196078%)" stroke-opacity="1" stroke-miterlimit="10" d="M 133.570312 337.660156 C 133.570312 340.992188 128.570312 340.992188 128.570312 337.660156 C 128.570312 334.328125 133.570312 334.328125 133.570312 337.660156 "/>
</svg>
