<?xml version="1.0" encoding="UTF-8"?>
<svg xmlns="http://www.w3.org/2000/svg" xmlns:xlink="http://www.w3.org/1999/xlink" width="800" height="800" viewBox="0 0 800 800">
<rect x="-80" y="-80" width="960" height="960" fill="rgb(100%, 100%, 100%)" fill-opacity="1"/>
<path fill="none" stroke-width="3.5" stroke-linecap="butt" stroke-linejoin="miter" stroke="rgb(70.196078%, 70.196078%, 70.196078%)" stroke-opacity="1" stroke-miterlimit="10" d="M 541.195312 201.996094 C 565.28125 179.835938 578.148438 152.335938 576.410156 119.671875 "/>
<path fill-rule="nonzero" fill="rgb(70.196078%, 70.196078%, 70.196078%)" fill-opacity="1" d="M 576.03125 112.546875 L 578.722656 119.546875 L 574.097656 119.792969 L 576.03125 112.546875 "/>
<path fill="none" stroke-width="1.5" stroke-linecap="butt" stroke-linejoin="miter" stroke="rgb(12.156863%, 47.058824%, 70.588235%)" stroke-opacity="1" stroke-miterlimit="10" d="M 541.195312 201.996094 C 563.003906 199.664062 581.183594 190.144531 592.984375 171.691406 "/>
<path fill-rule="nonzero" fill="rgb(12.156863%, 47.058824%, 70.588235%)" fill-opacity="1" d="M 596.828125 165.679688 L 594.9375 172.9375 L 591.03125 170.441406 L 596.828125 165.679688 "/>
<path fill="none" stroke-width="3.5" stroke-linecap="butt" stroke-linejoin="miter" stroke="rgb(70.196078%, 70.196078%, 70.196078%)" stroke-opacity="1" stroke-miterlimit="10" d="M 541.195312 201.996094 C 524.335938 222.066406 516.71875 245.277344 521.667969 270.992188 "/>
<path fill-rule="nonzero" fill="rgb(70.196078%, 70.196078%, 70.196078%)" fill-opacity="1" d="M 523.015625 277.996094 L 519.394531 271.429688 L 523.945312 270.554688 L 523.015625 277.996094 "/>
<path fill="none" stroke-width="2.5" stroke-linecap="butt" stroke-linejoin="miter" stroke="rgb(70.196078%, 70.196078%, 70.196078%)" stroke-opacity="1" stroke-miterlimit="10" d="M 541.195312 201.996094 C 535.597656 180.152344 523.230469 163.054688 502.707031 153.785156 "/>
<path fill-rule="nonzero" fill="rgb(70.196078%, 70.196078%, 70.196078%)" fill-opacity="1" d="M 496.207031 150.847656 L 503.660156 151.671875 L 501.753906 155.894531 L 496.207031 150.847656 "/>
<path fill="none" stroke-width="1.5" stroke-linecap="butt" stroke-linejoin="miter" stroke="rgb(12.156863%, 47.058824%, 70.588235%)" stroke-opacity="1" stroke-miterlimit="10" d="M 541.195312 201.996094 C 560.21875 217.71875 582.136719 224.746094 606.308594 219.867188 "/>
<path fill-rule="nonzero" fill="rgb(12.156863%, 47.058824%, 70.588235%)" fill-opacity="1" d="M 613.300781 218.457031 L 606.769531 222.140625 L 605.851562 217.597656 L 613.300781 218.457031 "/>
<path fill="none" stroke-width="5.5" stroke-linecap="butt" stroke-linejoin="miter" stroke="rgb(70.196078%, 70.196078%, 70.196078%)" stroke-opacity="1" stroke-miterlimit="10" d="M 541.195312 201.996094 C 544.085938 227.738281 555.515625 249.011719 577.304688 262.96875 "/>
<path fill-rule="nonzero" fill="rgb(70.196078%, 70.196078%, 70.196078%)" fill-opacity="1" d="M 583.3125 266.816406 L 576.054688 264.921875 L 578.554688 261.015625 L 583.3125 266.816406 "/>
<path fill="none" stroke-width="1.5" stroke-linecap="butt" stroke-linejoin="miter" stroke="rgb(12.156863%, 47.058824%, 70.588235%)" stroke-opacity="1" stroke-miterlimit="10" d="M 541.195312 201.996094 C 517.105469 200.253906 495.628906 207.078125 479.144531 224.695312 "/>
<path fill-rule="nonzero" fill="rgb(12.156863%, 47.058824%, 70.588235%)" fill-opacity="1" d="M 474.269531 229.902344 L 477.453125 223.109375 L 480.835938 226.277344 L 474.269531 229.902344 "/>
<path fill="none" stroke-width="8.5" stroke-linecap="butt" stroke-linejoin="miter" stroke="rgb(70.196078%, 70.196078%, 70.196078%)" stroke-opacity="1" stroke-miterlimit="10" d="M 575.90625 110.160156 C 551.816406 132.320312 538.953125 159.820312 540.6875 192.484375 "/>
<path fill-rule="nonzero" fill="rgb(70.196078%, 70.196078%, 70.196078%)" fill-opacity="1" d="M 541.066406 199.609375 L 538.375 192.609375 L 543.003906 192.363281 L 541.066406 199.609375 "/>
<path fill="none" stroke-width="1.5" stroke-linecap="butt" stroke-linejoin="miter" stroke="rgb(12.156863%, 47.058824%, 70.588235%)" stroke-opacity="1" stroke-miterlimit="10" d="M 575.90625 110.160156 C 586.042969 93.5625 589.285156 75.585938 582.566406 57.367188 "/>
<path fill-rule="nonzero" fill="rgb(12.156863%, 47.058824%, 70.588235%)" fill-opacity="1" d="M 580.097656 50.675781 L 584.742188 56.566406 L 580.390625 58.167969 L 580.097656 50.675781 "/>
<path fill="none" stroke-width="1.5" stroke-linecap="butt" stroke-linejoin="miter" stroke="rgb(12.156863%, 47.058824%, 70.588235%)" stroke-opacity="1" stroke-miterlimit="10" d="M 579.847656 50 C 569.785156 65.992188 566.339844 83.441406 572.699219 101.199219 "/>
<path fill-rule="nonzero" fill="rgb(12.156863%, 47.058824%, 70.588235%)" fill-opacity="1" d="M 575.101562 107.917969 L 570.515625 101.980469 L 574.878906 100.417969 L 575.101562 107.917969 "/>
<path fill="none" stroke-width="1.5" stroke-linecap="butt" stroke-linejoin="miter" stroke="rgb(12.156863%, 47.058824%, 70.588235%)" stroke-opacity="1" stroke-miterlimit="10" d="M 597.214844 165.074219 C 575.929688 167.101562 558.046875 176.132812 546.390625 194.019531 "/>
<path fill-rule="nonzero" fill="rgb(12.156863%, 47.058824%, 70.588235%)" fill-opacity="1" d="M 542.496094 199.996094 L 544.449219 192.753906 L 548.332031 195.285156 L 542.496094 199.996094 "/>
<path fill="none" stroke-width="5.5" stroke-linecap="butt" stroke-linejoin="miter" stroke="rgb(70.196078%, 70.196078%, 70.196078%)" stroke-opacity="1" stroke-miterlimit="10" d="M 701.015625 202.3125 C 675.925781 154.910156 637.566406 123.773438 585.207031 112.214844 "/>
<path fill-rule="nonzero" fill="rgb(70.196078%, 70.196078%, 70.196078%)" fill-opacity="1" d="M 578.242188 110.675781 L 585.707031 109.953125 L 584.707031 114.476562 L 578.242188 110.675781 "/>
<path fill="none" stroke-width="3.5" stroke-linecap="butt" stroke-linejoin="miter" stroke="rgb(70.196078%, 70.196078%, 70.196078%)" stroke-opacity="1" stroke-miterlimit="10" d="M 523.46875 280.34375 C 540.324219 260.273438 547.941406 237.058594 542.992188 211.34375 "/>
<path fill-rule="nonzero" fill="rgb(70.196078%, 70.196078%, 70.196078%)" fill-opacity="1" d="M 541.644531 204.339844 L 545.269531 210.90625 L 540.71875 211.78125 L 541.644531 204.339844 "/>
<path fill="none" stroke-width="5.5" stroke-linecap="butt" stroke-linejoin="miter" stroke="rgb(70.196078%, 70.196078%, 70.196078%)" stroke-opacity="1" stroke-miterlimit="10" d="M 750 352.796875 C 757.304688 298.605469 743.9375 250.050781 707.382812 209.398438 "/>
<path fill-rule="nonzero" fill="rgb(70.196078%, 70.196078%, 70.196078%)" fill-opacity="1" d="M 702.613281 204.09375 L 709.105469 207.847656 L 705.660156 210.945312 L 702.613281 204.09375 "/>
<path fill="none" stroke-width="5.5" stroke-linecap="butt" stroke-linejoin="miter" stroke="rgb(70.196078%, 70.196078%, 70.196078%)" stroke-opacity="1" stroke-miterlimit="10" d="M 641.535156 448.238281 C 689.378906 434.980469 725.230469 406.523438 746.011719 361.449219 "/>
<path fill-rule="nonzero" fill="rgb(70.196078%, 70.196078%, 70.196078%)" fill-opacity="1" d="M 749 354.96875 L 748.117188 362.417969 L 743.90625 360.476562 L 749 354.96875 "/>
<path fill="none" stroke-width="2.5" stroke-linecap="butt" stroke-linejoin="miter" stroke="rgb(70.196078%, 70.196078%, 70.196078%)" stroke-opacity="1" stroke-miterlimit="10" d="M 494.03125 149.867188 C 499.628906 171.707031 511.992188 188.808594 532.519531 198.078125 "/>
<path fill-rule="nonzero" fill="rgb(70.196078%, 70.196078%, 70.196078%)" fill-opacity="1" d="M 539.019531 201.011719 L 531.566406 200.1875 L 533.472656 195.964844 L 539.019531 201.011719 "/>
<path fill="none" stroke-width="1.5" stroke-linecap="butt" stroke-linejoin="miter" stroke="rgb(12.156863%, 47.058824%, 70.588235%)" stroke-opacity="1" stroke-miterlimit="10" d="M 614.007812 218.316406 C 595.570312 202.753906 574.199219 195.601562 550.539062 200.183594 "/>
<path fill-rule="nonzero" fill="rgb(12.156863%, 47.058824%, 70.588235%)" fill-opacity="1" d="M 543.539062 201.542969 L 550.101562 197.910156 L 550.980469 202.460938 L 543.539062 201.542969 "/>
<path fill="none" stroke-width="5.5" stroke-linecap="butt" stroke-linejoin="miter" stroke="rgb(70.196078%, 70.196078%, 70.196078%)" stroke-opacity="1" stroke-miterlimit="10" d="M 585.324219 268.105469 C 582.429688 242.363281 571.003906 221.089844 549.210938 207.128906 "/>
<path fill-rule="nonzero" fill="rgb(70.196078%, 70.196078%, 70.196078%)" fill-opacity="1" d="M 543.203125 203.285156 L 550.460938 205.179688 L 547.960938 209.082031 L 543.203125 203.285156 "/>
<path fill="none" stroke-width="5.5" stroke-linecap="butt" stroke-linejoin="miter" stroke="rgb(70.196078%, 70.196078%, 70.196078%)" stroke-opacity="1" stroke-miterlimit="10" d="M 611.894531 403.421875 C 613.179688 419.878906 619.789062 434.023438 633.570312 443.03125 "/>
<path fill-rule="nonzero" fill="rgb(70.196078%, 70.196078%, 70.196078%)" fill-opacity="1" d="M 639.542969 446.933594 L 632.300781 444.972656 L 634.839844 441.089844 L 639.542969 446.933594 "/>
<path fill="none" stroke-width="5.5" stroke-linecap="butt" stroke-linejoin="miter" stroke="rgb(70.196078%, 70.196078%, 70.196078%)" stroke-opacity="1" stroke-miterlimit="10" d="M 671.710938 390.378906 C 653.222656 385.058594 635.199219 386.636719 619.617188 397.863281 "/>
<path fill-rule="nonzero" fill="rgb(70.196078%, 70.196078%, 70.196078%)" fill-opacity="1" d="M 613.828125 402.03125 L 618.261719 395.980469 L 620.972656 399.742188 L 613.828125 402.03125 "/>
<path fill="none" stroke-width="1.5" stroke-linecap="butt" stroke-linejoin="miter" stroke="rgb(12.156863%, 47.058824%, 70.588235%)" stroke-opacity="1" stroke-miterlimit="10" d="M 671.710938 390.378906 C 690.402344 371.863281 700.101562 349.367188 697.558594 323.203125 "/>
<path fill-rule="nonzero" fill="rgb(12.156863%, 47.058824%, 70.588235%)" fill-opacity="1" d="M 696.871094 316.105469 L 699.867188 322.980469 L 695.253906 323.429688 L 696.871094 316.105469 "/>
<path fill="none" stroke-width="5.5" stroke-linecap="butt" stroke-linejoin="miter" stroke="rgb(70.196078%, 70.196078%, 70.196078%)" stroke-opacity="1" stroke-miterlimit="10" d="M 652.398438 544.320312 C 681.476562 499.355469 689.910156 450.753906 674.460938 399.5 "/>
<path fill-rule="nonzero" fill="rgb(70.196078%, 70.196078%, 70.196078%)" fill-opacity="1" d="M 672.402344 392.667969 L 676.679688 398.828125 L 672.242188 400.167969 L 672.402344 392.667969 "/>
<path fill="none" stroke-width="1.5" stroke-linecap="butt" stroke-linejoin="miter" stroke="rgb(12.156863%, 47.058824%, 70.588235%)" stroke-opacity="1" stroke-miterlimit="10" d="M 645.359375 329.898438 C 643.722656 350.804688 649.414062 369.625 664.742188 383.894531 "/>
<path fill-rule="nonzero" fill="rgb(12.156863%, 47.058824%, 70.588235%)" fill-opacity="1" d="M 669.964844 388.753906 L 663.164062 385.589844 L 666.320312 382.195312 L 669.964844 388.753906 "/>
<path fill="none" stroke-width="1.5" stroke-linecap="butt" stroke-linejoin="miter" stroke="rgb(12.156863%, 47.058824%, 70.588235%)" stroke-opacity="1" stroke-miterlimit="10" d="M 696.800781 315.390625 C 680.242188 311.742188 664.414062 314.070312 651.398438 324.882812 "/>
<path fill-rule="nonzero" fill="rgb(12.156863%, 47.058824%, 70.588235%)" fill-opacity="1" d="M 645.914062 329.4375 L 649.917969 323.097656 L 652.878906 326.664062 L 645.914062 329.4375 "/>
<path fill="none" stroke-width="1.5" stroke-linecap="butt" stroke-linejoin="miter" stroke="rgb(12.156863%, 47.058824%, 70.588235%)" stroke-opacity="1" stroke-miterlimit="10" d="M 473.777344 230.425781 C 497.292969 232.378906 518.398438 225.976562 534.636719 208.894531 "/>
<path fill-rule="nonzero" fill="rgb(12.156863%, 47.058824%, 70.588235%)" fill-opacity="1" d="M 539.550781 203.726562 L 536.316406 210.492188 L 532.957031 207.296875 L 539.550781 203.726562 "/>
<path fill="none" stroke-width="5.5" stroke-linecap="butt" stroke-linejoin="miter" stroke="rgb(70.196078%, 70.196078%, 70.196078%)" stroke-opacity="1" stroke-miterlimit="10" d="M 530.722656 657.195312 C 585.648438 640.175781 625.992188 605.914062 648.644531 553.074219 "/>
<path fill-rule="nonzero" fill="rgb(70.196078%, 70.196078%, 70.196078%)" fill-opacity="1" d="M 651.453125 546.519531 L 650.773438 553.988281 L 646.511719 552.164062 L 651.453125 546.519531 "/>
<path fill="none" stroke-width="5.5" stroke-linecap="butt" stroke-linejoin="miter" stroke="rgb(70.196078%, 70.196078%, 70.196078%)" stroke-opacity="1" stroke-miterlimit="10" d="M 486.367188 717.105469 C 508.035156 706.5625 523.210938 689.9375 528.59375 666.472656 "/>
<path fill-rule="nonzero" fill="rgb(70.196078%, 70.196078%, 70.196078%)" fill-opacity="1" d="M 530.1875 659.519531 L 530.851562 666.992188 L 526.335938 665.953125 L 530.1875 659.519531 "/>
<path fill="none" stroke-width="5.5" stroke-linecap="butt" stroke-linejoin="miter" stroke="rgb(70.196078%, 70.196078%, 70.196078%)" stroke-opacity="1" stroke-miterlimit="10" d="M 303.023438 531.164062 C 314.636719 555.464844 333.125 572.421875 359.28125 578.746094 "/>
<path fill-rule="nonzero" fill="rgb(70.196078%, 70.196078%, 70.196078%)" fill-opacity="1" d="M 366.214844 580.425781 L 358.734375 581 L 359.824219 576.496094 L 366.214844 580.425781 "/>
<path fill="none" stroke-width="5.5" stroke-linecap="butt" stroke-linejoin="miter" stroke="rgb(70.196078%, 70.196078%, 70.196078%)" stroke-opacity="1" stroke-miterlimit="10" d="M 373.882812 377.550781 C 371.847656 400.917969 378.121094 421.925781 395.042969 438.128906 "/>
<path fill-rule="nonzero" fill="rgb(70.196078%, 70.196078%, 70.196078%)" fill-opacity="1" d="M 400.191406 443.0625 L 393.4375 439.804688 L 396.644531 436.457031 L 400.191406 443.0625 "/>
<path fill="none" stroke-width="5.5" stroke-linecap="butt" stroke-linejoin="miter" stroke="rgb(70.196078%, 70.196078%, 70.196078%)" stroke-opacity="1" stroke-miterlimit="10" d="M 419.707031 321.144531 C 398.195312 330.394531 382.683594 345.839844 376.429688 368.375 "/>
<path fill-rule="nonzero" fill="rgb(70.196078%, 70.196078%, 70.196078%)" fill-opacity="1" d="M 374.523438 375.25 L 374.195312 367.757812 L 378.664062 368.996094 L 374.523438 375.25 "/>
<path fill="none" stroke-width="5.5" stroke-linecap="butt" stroke-linejoin="miter" stroke="rgb(70.196078%, 70.196078%, 70.196078%)" stroke-opacity="1" stroke-miterlimit="10" d="M 401.914062 444.714844 C 405.128906 470.851562 416.984375 492.339844 439.273438 506.3125 "/>
<path fill-rule="nonzero" fill="rgb(70.196078%, 70.196078%, 70.196078%)" fill-opacity="1" d="M 445.320312 510.101562 L 438.042969 508.277344 L 440.507812 504.347656 L 445.320312 510.101562 "/>
<path fill="none" stroke-width="5.5" stroke-linecap="butt" stroke-linejoin="miter" stroke="rgb(70.196078%, 70.196078%, 70.196078%)" stroke-opacity="1" stroke-miterlimit="10" d="M 534.128906 750 C 525.976562 733.882812 513.386719 722.425781 495.703125 718.941406 "/>
<path fill-rule="nonzero" fill="rgb(70.196078%, 70.196078%, 70.196078%)" fill-opacity="1" d="M 488.707031 717.566406 L 496.152344 716.667969 L 495.257812 721.21875 L 488.707031 717.566406 "/>
<path fill="none" stroke-width="5.5" stroke-linecap="butt" stroke-linejoin="miter" stroke="rgb(70.196078%, 70.196078%, 70.196078%)" stroke-opacity="1" stroke-miterlimit="10" d="M 588.519531 680.613281 C 562.152344 692.863281 543.71875 712.636719 536.496094 740.777344 "/>
<path fill-rule="nonzero" fill="rgb(70.196078%, 70.196078%, 70.196078%)" fill-opacity="1" d="M 534.722656 747.6875 L 534.25 740.199219 L 538.742188 741.355469 L 534.722656 747.6875 "/>
<path fill="none" stroke-width="5.5" stroke-linecap="butt" stroke-linejoin="miter" stroke="rgb(70.196078%, 70.196078%, 70.196078%)" stroke-opacity="1" stroke-miterlimit="10" d="M 532.761719 587.8125 C 535.65625 624.109375 550.996094 654.136719 580.738281 675.121094 "/>
<path fill-rule="nonzero" fill="rgb(70.196078%, 70.196078%, 70.196078%)" fill-opacity="1" d="M 586.566406 679.234375 L 579.402344 677.015625 L 582.074219 673.226562 L 586.566406 679.234375 "/>
<path fill="none" stroke-width="5.5" stroke-linecap="butt" stroke-linejoin="miter" stroke="rgb(70.196078%, 70.196078%, 70.196078%)" stroke-opacity="1" stroke-miterlimit="10" d="M 447.34375 511.371094 C 461.769531 547.324219 486.875 572.894531 523.703125 584.867188 "/>
<path fill-rule="nonzero" fill="rgb(70.196078%, 70.196078%, 70.196078%)" fill-opacity="1" d="M 530.488281 587.070312 L 522.988281 587.070312 L 524.417969 582.664062 L 530.488281 587.070312 "/>
<path fill="none" stroke-width="5.5" stroke-linecap="butt" stroke-linejoin="miter" stroke="rgb(70.196078%, 70.196078%, 70.196078%)" stroke-opacity="1" stroke-miterlimit="10" d="M 50 418.234375 C 68.726562 413.546875 83.574219 403.101562 91.460938 385.515625 "/>
<path fill-rule="nonzero" fill="rgb(70.196078%, 70.196078%, 70.196078%)" fill-opacity="1" d="M 94.378906 379.007812 L 93.574219 386.464844 L 89.34375 384.566406 L 94.378906 379.007812 "/>
<path fill="none" stroke-width="5.5" stroke-linecap="butt" stroke-linejoin="miter" stroke="rgb(70.196078%, 70.196078%, 70.196078%)" stroke-opacity="1" stroke-miterlimit="10" d="M 95.355469 376.832031 C 114.605469 359.660156 125.316406 338.121094 124.101562 312.378906 "/>
<path fill-rule="nonzero" fill="rgb(70.196078%, 70.196078%, 70.196078%)" fill-opacity="1" d="M 123.769531 305.253906 L 126.417969 312.269531 L 121.789062 312.484375 L 123.769531 305.253906 "/>
<path fill="none" stroke-width="5.5" stroke-linecap="butt" stroke-linejoin="miter" stroke="rgb(70.196078%, 70.196078%, 70.196078%)" stroke-opacity="1" stroke-miterlimit="10" d="M 267.171875 460.835938 C 267.023438 486.539062 275.804688 508.839844 295.660156 525.125 "/>
<path fill-rule="nonzero" fill="rgb(70.196078%, 70.196078%, 70.196078%)" fill-opacity="1" d="M 301.175781 529.648438 L 294.191406 526.917969 L 297.132812 523.332031 L 301.175781 529.648438 "/>
<path fill="none" stroke-width="5.5" stroke-linecap="butt" stroke-linejoin="miter" stroke="rgb(70.196078%, 70.196078%, 70.196078%)" stroke-opacity="1" stroke-miterlimit="10" d="M 254.628906 379.503906 C 246.113281 405.050781 247.640625 430.085938 262.066406 452.800781 "/>
<path fill-rule="nonzero" fill="rgb(70.196078%, 70.196078%, 70.196078%)" fill-opacity="1" d="M 265.890625 458.820312 L 260.109375 454.042969 L 264.023438 451.558594 L 265.890625 458.820312 "/>
<path fill="none" stroke-width="5.5" stroke-linecap="butt" stroke-linejoin="miter" stroke="rgb(70.196078%, 70.196078%, 70.196078%)" stroke-opacity="1" stroke-miterlimit="10" d="M 511.261719 502.578125 C 519.441406 479.492188 518.566406 456.640625 505.75 435.800781 "/>
<path fill-rule="nonzero" fill="rgb(70.196078%, 70.196078%, 70.196078%)" fill-opacity="1" d="M 502.015625 429.722656 L 507.726562 434.585938 L 503.777344 437.011719 L 502.015625 429.722656 "/>
<path fill="none" stroke-width="5.5" stroke-linecap="butt" stroke-linejoin="miter" stroke="rgb(70.196078%, 70.196078%, 70.196078%)" stroke-opacity="1" stroke-miterlimit="10" d="M 443.207031 583.859375 C 475.828125 569.625 498.714844 545.894531 508.613281 511.726562 "/>
<path fill-rule="nonzero" fill="rgb(70.196078%, 70.196078%, 70.196078%)" fill-opacity="1" d="M 510.597656 504.875 L 510.839844 512.371094 L 506.386719 511.078125 L 510.597656 504.875 "/>
<path fill="none" stroke-width="5.5" stroke-linecap="butt" stroke-linejoin="miter" stroke="rgb(70.196078%, 70.196078%, 70.196078%)" stroke-opacity="1" stroke-miterlimit="10" d="M 500.765625 427.691406 C 499.117188 406.855469 490.574219 389.210938 473.257812 377.5625 "/>
<path fill-rule="nonzero" fill="rgb(70.196078%, 70.196078%, 70.196078%)" fill-opacity="1" d="M 467.339844 373.582031 L 474.554688 375.640625 L 471.964844 379.484375 L 467.339844 373.582031 "/>
<path fill="none" stroke-width="5.5" stroke-linecap="butt" stroke-linejoin="miter" stroke="rgb(70.196078%, 70.196078%, 70.196078%)" stroke-opacity="1" stroke-miterlimit="10" d="M 368.535156 580.988281 C 389.519531 592.972656 411.867188 596.136719 434.339844 587.332031 "/>
<path fill-rule="nonzero" fill="rgb(70.196078%, 70.196078%, 70.196078%)" fill-opacity="1" d="M 440.984375 584.730469 L 435.1875 589.492188 L 433.496094 585.175781 L 440.984375 584.730469 "/>
<path fill="none" stroke-width="5.5" stroke-linecap="butt" stroke-linejoin="miter" stroke="rgb(70.196078%, 70.196078%, 70.196078%)" stroke-opacity="1" stroke-miterlimit="10" d="M 465.363281 372.25 C 460.097656 350.988281 448.230469 334.253906 428.355469 325.117188 "/>
<path fill-rule="nonzero" fill="rgb(70.196078%, 70.196078%, 70.196078%)" fill-opacity="1" d="M 421.875 322.140625 L 429.324219 323.011719 L 427.386719 327.222656 L 421.875 322.140625 "/>
<path fill="none" stroke-width="5.5" stroke-linecap="butt" stroke-linejoin="miter" stroke="rgb(70.196078%, 70.196078%, 70.196078%)" stroke-opacity="1" stroke-miterlimit="10" d="M 234.167969 309.746094 C 229.585938 332.71875 233.503906 354.261719 248.519531 372.203125 "/>
<path fill-rule="nonzero" fill="rgb(70.196078%, 70.196078%, 70.196078%)" fill-opacity="1" d="M 253.097656 377.675781 L 246.742188 373.691406 L 250.296875 370.714844 L 253.097656 377.675781 "/>
<path fill="none" stroke-width="5.5" stroke-linecap="butt" stroke-linejoin="miter" stroke="rgb(70.196078%, 70.196078%, 70.196078%)" stroke-opacity="1" stroke-miterlimit="10" d="M 184.789062 266.929688 C 192.226562 286.296875 205.320312 300.695312 225.085938 306.898438 "/>
<path fill-rule="nonzero" fill="rgb(70.196078%, 70.196078%, 70.196078%)" fill-opacity="1" d="M 231.894531 309.03125 L 224.394531 309.109375 L 225.78125 304.683594 L 231.894531 309.03125 "/>
<path fill="none" stroke-width="5.5" stroke-linecap="butt" stroke-linejoin="miter" stroke="rgb(70.196078%, 70.196078%, 70.196078%)" stroke-opacity="1" stroke-miterlimit="10" d="M 123.65625 302.867188 C 146.402344 301.785156 165.828125 293.035156 179.195312 274.632812 "/>
<path fill-rule="nonzero" fill="rgb(70.196078%, 70.196078%, 70.196078%)" fill-opacity="1" d="M 183.386719 268.859375 L 181.070312 275.992188 L 177.320312 273.269531 L 183.386719 268.859375 "/>
<path fill-rule="nonzero" fill="rgb(14.901961%, 14.901961%, 14.901961%)" fill-opacity="1" stroke-width="1" stroke-linecap="butt" stroke-linejoin="miter" stroke="rgb(14.901961%, 14.901961%, 14.901961%)" stroke-opacity="1" stroke-miterlimit="10" d="M 538.695312 204.496094 L 541.195312 199.496094 L 543.695312 204.496094 Z M 538.695312 204.496094 "/>
<path fill-rule="nonzero" fill="rgb(70.196078%, 70.196078%, 70.196078%)" fill-opacity="1" stroke-width="1" stroke-linecap="butt" stroke-linejoin="miter" stroke="rgb(70.196078%, 70.196078%, 70.196078%)" stroke-opacity="1" stroke-miterlimit="10" d="M 578.40625 110.160156 C 578.40625 113.496094 573.40625 113.496094 573.40625 110.160156 C 573.40625 106.828125 578.40625 106.828125 578.40625 110.160156 "/>
<path fill-rule="nonzero" fill="rgb(12.156863%, 47.058824%, 70.588235%)" fill-opacity="1" stroke-width="1" stroke-linecap="butt" stroke-linejoin="miter" stroke="rgb(12.156863%, 47.058824%, 70.588235%)" stroke-opacity="1" stroke-miterlimit="10" d="M 580.597656 50 C 580.597656 51 579.097656 51 579.097656 50 C 579.097656 49 580.597656 49 580.597656 50 "/>
<path fill-rule="nonzero" fill="rgb(12.156863%, 47.058824%, 70.588235%)" fill-opacity="1" stroke-width="1" stroke-linecap="butt" stroke-linejoin="miter" stroke="rgb(12.156863%, 47.058824%, 70.588235%)" stroke-opacity="1" stroke-miterlimit="10" d="M 597.964844 165.074219 C 597.964844 166.074219 596.464844 166.074219 596.464844 165.074219 C 596.464844 164.074219 597.964844 164.074219 597.964844 165.074219 "/>
<path fill-rule="nonzero" fill="rgb(70.196078%, 70.196078%, 70.196078%)" fill-opacity="1" stroke-width="1" stroke-linecap="butt" stroke-linejoin="miter" stroke="rgb(70.196078%, 70.196078%, 70.196078%)" stroke-opacity="1" stroke-miterlimit="10" d="M 703.515625 202.3125 C 703.515625 205.648438 698.515625 205.648438 698.515625 202.3125 C 698.515625 198.980469 703.515625 198.980469 703.515625 202.3125 "/>
<path fill-rule="nonzero" fill="rgb(70.196078%, 70.196078%, 70.196078%)" fill-opacity="1" stroke-width="1" stroke-linecap="butt" stroke-linejoin="miter" stroke="rgb(70.196078%, 70.196078%, 70.196078%)" stroke-opacity="1" stroke-miterlimit="10" d="M 525.96875 280.34375 C 525.96875 283.675781 520.96875 283.675781 520.96875 280.34375 C 520.96875 277.007812 525.96875 277.007812 525.96875 280.34375 "/>
<path fill-rule="nonzero" fill="rgb(70.196078%, 70.196078%, 70.196078%)" fill-opacity="1" stroke-width="1" stroke-linecap="butt" stroke-linejoin="miter" stroke="rgb(70.196078%, 70.196078%, 70.196078%)" stroke-opacity="1" stroke-miterlimit="10" d="M 752.5 352.796875 C 752.5 356.128906 747.5 356.128906 747.5 352.796875 C 747.5 349.464844 752.5 349.464844 752.5 352.796875 "/>
<path fill-rule="nonzero" fill="rgb(70.196078%, 70.196078%, 70.196078%)" fill-opacity="1" stroke-width="1" stroke-linecap="butt" stroke-linejoin="miter" stroke="rgb(70.196078%, 70.196078%, 70.196078%)" stroke-opacity="1" stroke-miterlimit="10" d="M 644.035156 448.238281 C 644.035156 451.570312 639.035156 451.570312 639.035156 448.238281 C 639.035156 444.902344 644.035156 444.902344 644.035156 448.238281 "/>
<path fill-rule="nonzero" fill="rgb(70.196078%, 70.196078%, 70.196078%)" fill-opacity="1" stroke-width="1" stroke-linecap="butt" stroke-linejoin="miter" stroke="rgb(70.196078%, 70.196078%, 70.196078%)" stroke-opacity="1" stroke-miterlimit="10" d="M 496.53125 149.867188 C 496.53125 153.199219 491.53125 153.199219 491.53125 149.867188 C 491.53125 146.53125 496.53125 146.53125 496.53125 149.867188 "/>
<path fill-rule="nonzero" fill="rgb(12.156863%, 47.058824%, 70.588235%)" fill-opacity="1" stroke-width="1" stroke-linecap="butt" stroke-linejoin="miter" stroke="rgb(12.156863%, 47.058824%, 70.588235%)" stroke-opacity="1" stroke-miterlimit="10" d="M 614.757812 218.316406 C 614.757812 219.316406 613.257812 219.316406 613.257812 218.316406 C 613.257812 217.316406 614.757812 217.316406 614.757812 218.316406 "/>
<path fill-rule="nonzero" fill="rgb(70.196078%, 70.196078%, 70.196078%)" fill-opacity="1" stroke-width="1" stroke-linecap="butt" stroke-linejoin="miter" stroke="rgb(70.196078%, 70.196078%, 70.196078%)" stroke-opacity="1" stroke-miterlimit="10" d="M 587.824219 268.105469 C 587.824219 271.4375 582.824219 271.4375 582.824219 268.105469 C 582.824219 264.769531 587.824219 264.769531 587.824219 268.105469 "/>
<path fill-rule="nonzero" fill="rgb(70.196078%, 70.196078%, 70.196078%)" fill-opacity="1" stroke-width="1" stroke-linecap="butt" stroke-linejoin="miter" stroke="rgb(70.196078%, 70.196078%, 70.196078%)" stroke-opacity="1" stroke-miterlimit="10" d="M 614.394531 403.421875 C 614.394531 406.757812 609.394531 406.757812 609.394531 403.421875 C 609.394531 400.089844 614.394531 400.089844 614.394531 403.421875 "/>
<path fill-rule="nonzero" fill="rgb(70.196078%, 70.196078%, 70.196078%)" fill-opacity="1" stroke-width="1" stroke-linecap="butt" stroke-linejoin="miter" stroke="rgb(70.196078%, 70.196078%, 70.196078%)" stroke-opacity="1" stroke-miterlimit="10" d="M 674.210938 390.378906 C 674.210938 393.710938 669.210938 393.710938 669.210938 390.378906 C 669.210938 387.042969 674.210938 387.042969 674.210938 390.378906 "/>
<path fill-rule="nonzero" fill="rgb(70.196078%, 70.196078%, 70.196078%)" fill-opacity="1" stroke-width="1" stroke-linecap="butt" stroke-linejoin="miter" stroke="rgb(70.196078%, 70.196078%, 70.196078%)" stroke-opacity="1" stroke-miterlimit="10" d="M 654.898438 544.320312 C 654.898438 547.652344 649.898438 547.652344 649.898438 544.320312 C 649.898438 540.988281 654.898438 540.988281 654.898438 544.320312 "/>
<path fill-rule="nonzero" fill="rgb(12.156863%, 47.058824%, 70.588235%)" fill-opacity="1" stroke-width="1" stroke-linecap="butt" stroke-linejoin="miter" stroke="rgb(12.156863%, 47.058824%, 70.588235%)" stroke-opacity="1" stroke-miterlimit="10" d="M 646.109375 329.898438 C 646.109375 330.898438 644.609375 330.898438 644.609375 329.898438 C 644.609375 328.898438 646.109375 328.898438 646.109375 329.898438 "/>
<path fill-rule="nonzero" fill="rgb(12.156863%, 47.058824%, 70.588235%)" fill-opacity="1" stroke-width="1" stroke-linecap="butt" stroke-linejoin="miter" stroke="rgb(12.156863%, 47.058824%, 70.588235%)" stroke-opacity="1" stroke-miterlimit="10" d="M 697.550781 315.390625 C 697.550781 316.390625 696.050781 316.390625 696.050781 315.390625 C 696.050781 314.390625 697.550781 314.390625 697.550781 315.390625 "/>
<path fill-rule="nonzero" fill="rgb(12.156863%, 47.058824%, 70.588235%)" fill-opacity="1" stroke-width="1" stroke-linecap="butt" stroke-linejoin="miter" stroke="rgb(12.156863%, 47.058824%, 70.588235%)" stroke-opacity="1" stroke-miterlimit="10" d="M 474.527344 230.425781 C 474.527344 231.425781 473.027344 231.425781 473.027344 230.425781 C 473.027344 229.425781 474.527344 229.425781 474.527344 230.425781 "/>
<path fill-rule="nonzero" fill="rgb(70.196078%, 70.196078%, 70.196078%)" fill-opacity="1" stroke-width="1" stroke-linecap="butt" stroke-linejoin="miter" stroke="rgb(70.196078%, 70.196078%, 70.196078%)" stroke-opacity="1" stroke-miterlimit="10" d="M 533.222656 657.195312 C 533.222656 660.527344 528.222656 660.527344 528.222656 657.195312 C 528.222656 653.859375 533.222656 653.859375 533.222656 657.195312 "/>
<path fill-rule="nonzero" fill="rgb(70.196078%, 70.196078%, 70.196078%)" fill-opacity="1" stroke-width="1" stroke-linecap="butt" stroke-linejoin="miter" stroke="rgb(70.196078%, 70.196078%, 70.196078%)" stroke-opacity="1" stroke-miterlimit="10" d="M 488.867188 717.105469 C 488.867188 720.4375 483.867188 720.4375 483.867188 717.105469 C 483.867188 713.769531 488.867188 713.769531 488.867188 717.105469 "/>
<path fill-rule="nonzero" fill="rgb(70.196078%, 70.196078%, 70.196078%)" fill-opacity="1" stroke-width="1" stroke-linecap="butt" stroke-linejoin="miter" stroke="rgb(70.196078%, 70.196078%, 70.196078%)" stroke-opacity="1" stroke-miterlimit="10" d="M 305.523438 531.164062 C 305.523438 534.496094 300.523438 534.496094 300.523438 531.164062 C 300.523438 527.828125 305.523438 527.828125 305.523438 531.164062 "/>
<path fill-rule="nonzero" fill="rgb(70.196078%, 70.196078%, 70.196078%)" fill-opacity="1" stroke-width="1" stroke-linecap="butt" stroke-linejoin="miter" stroke="rgb(70.196078%, 70.196078%, 70.196078%)" stroke-opacity="1" stroke-miterlimit="10" d="M 376.382812 377.550781 C 376.382812 380.882812 371.382812 380.882812 371.382812 377.550781 C 371.382812 374.214844 376.382812 374.214844 376.382812 377.550781 "/>
<path fill-rule="nonzero" fill="rgb(70.196078%, 70.196078%, 70.196078%)" fill-opacity="1" stroke-width="1" stroke-linecap="butt" stroke-linejoin="miter" stroke="rgb(70.196078%, 70.196078%, 70.196078%)" stroke-opacity="1" stroke-miterlimit="10" d="M 422.207031 321.144531 C 422.207031 324.476562 417.207031 324.476562 417.207031 321.144531 C 417.207031 317.808594 422.207031 317.808594 422.207031 321.144531 "/>
<path fill-rule="nonzero" fill="rgb(70.196078%, 70.196078%, 70.196078%)" fill-opacity="1" stroke-width="1" stroke-linecap="butt" stroke-linejoin="miter" stroke="rgb(70.196078%, 70.196078%, 70.196078%)" stroke-opacity="1" stroke-miterlimit="10" d="M 404.414062 444.714844 C 404.414062 448.046875 399.414062 448.046875 399.414062 444.714844 C 399.414062 441.382812 404.414062 441.382812 404.414062 444.714844 "/>
<path fill-rule="nonzero" fill="rgb(70.196078%, 70.196078%, 70.196078%)" fill-opacity="1" stroke-width="1" stroke-linecap="butt" stroke-linejoin="miter" stroke="rgb(70.196078%, 70.196078%, 70.196078%)" stroke-opacity="1" stroke-miterlimit="10" d="M 536.628906 750 C 536.628906 753.332031 531.628906 753.332031 531.628906 750 C 531.628906 746.667969 536.628906 746.667969 536.628906 750 "/>
<path fill-rule="nonzero" fill="rgb(70.196078%, 70.196078%, 70.196078%)" fill-opacity="1" stroke-width="1" stroke-linecap="butt" stroke-linejoin="miter" stroke="rgb(70.196078%, 70.196078%, 70.196078%)" stroke-opacity="1" stroke-miterlimit="10" d="M 591.019531 680.613281 C 591.019531 683.945312 586.019531 683.945312 586.019531 680.613281 C 586.019531 677.277344 591.019531 677.277344 591.019531 680.613281 "/>
<path fill-rule="nonzero" fill="rgb(70.196078%, 70.196078%, 70.196078%)" fill-opacity="1" stroke-width="1" stroke-linecap="butt" stroke-linejoin="miter" stroke="rgb(70.196078%, 70.196078%, 70.196078%)" stroke-opacity="1" stroke-miterlimit="10" d="M 535.261719 587.8125 C 535.261719 591.144531 530.261719 591.144531 530.261719 587.8125 C 530.261719 584.476562 535.261719 584.476562 535.261719 587.8125 "/>
<path fill-rule="nonzero" fill="rgb(70.196078%, 70.196078%, 70.196078%)" fill-opacity="1" stroke-width="1" stroke-linecap="butt" stroke-linejoin="miter" stroke="rgb(70.196078%, 70.196078%, 70.196078%)" stroke-opacity="1" stroke-miterlimit="10" d="M 449.84375 511.371094 C 449.84375 514.703125 444.84375 514.703125 444.84375 511.371094 C 444.84375 508.035156 449.84375 508.035156 449.84375 511.371094 "/>
<path fill-rule="nonzero" fill="rgb(100%, 84.313725%, 0%)" fill-opacity="1" stroke-width="1" stroke-linecap="butt" stroke-linejoin="miter" stroke="rgb(100%, 84.313725%, 0%)" stroke-opacity="1" stroke-miterlimit="10" d="M 47.5 415.734375 L 52.5 415.734375 L 52.5 420.734375 L 47.5 420.734375 Z M 47.5 415.734375 "/>
<path fill-rule="nonzero" fill="rgb(70.196078%, 70.196078%, 70.196078%)" fill-opacity="1" stroke-width="1" stroke-linecap="butt" stroke-linejoin="miter" stroke="rgb(70.196078%, 70.196078%, 70.196078%)" stroke-opacity="1" stroke-miterlimit="10" d="M 97.855469 376.832031 C 97.855469 380.164062 92.855469 380.164062 92.855469 376.832031 C 92.855469 373.5 97.855469 373.5 97.855469 376.832031 "/>
<path fill-rule="nonzero" fill="rgb(70.196078%, 70.196078%, 70.196078%)" fill-opacity="1" stroke-width="1" stroke-linecap="butt" stroke-linejoin="miter" stroke="rgb(70.196078%, 70.196078%, 70.196078%)" stroke-opacity="1" stroke-miterlimit="10" d="M 269.671875 460.835938 C 269.671875 464.167969 264.671875 464.167969 264.671875 460.835938 C 264.671875 457.503906 269.671875 457.503906 269.671875 460.835938 "/>
<path fill-rule="nonzero" fill="rgb(70.196078%, 70.196078%, 70.196078%)" fill-opacity="1" stroke-width="1" stroke-linecap="butt" stroke-linejoin="miter" stroke="rgb(70.196078%, 70.196078%, 70.196078%)" stroke-opacity="1" stroke-miterlimit="10" d="M 257.128906 379.503906 C 257.128906 382.835938 252.128906 382.835938 252.128906 379.503906 C 252.128906 376.171875 257.128906 376.171875 257.128906 379.503906 "/>
<path fill-rule="nonzero" fill="rgb(70.196078%, 70.196078%, 70.196078%)" fill-opacity="1" stroke-width="1" stroke-linecap="butt" stroke-linejoin="miter" stroke="rgb(70.196078%, 70.196078%, 70.196078%)" stroke-opacity="1" stroke-miterlimit="10" d="M 513.761719 502.578125 C 513.761719 505.910156 508.761719 505.910156 508.761719 502.578125 C 508.761719 499.242188 513.761719 499.242188 513.761719 502.578125 "/>
<path fill-rule="nonzero" fill="rgb(70.196078%, 70.196078%, 70.196078%)" fill-opacity="1" stroke-width="1" stroke-linecap="butt" stroke-linejoin="miter" stroke="rgb(70.196078%, 70.196078%, 70.196078%)" stroke-opacity="1" stroke-miterlimit="10" d="M 445.707031 583.859375 C 445.707031 587.191406 440.707031 587.191406 440.707031 583.859375 C 440.707031 580.527344 445.707031 580.527344 445.707031 583.859375 "/>
<path fill-rule="nonzero" fill="rgb(70.196078%, 70.196078%, 70.196078%)" fill-opacity="1" stroke-width="1" stroke-linecap="butt" stroke-linejoin="miter" stroke="rgb(70.196078%, 70.196078%, 70.196078%)" stroke-opacity="1" stroke-miterlimit="10" d="M 503.265625 427.691406 C 503.265625 431.023438 498.265625 431.023438 498.265625 427.691406 C 498.265625 424.355469 503.265625 424.355469 503.265625 427.691406 "/>
<path fill-rule="nonzero" fill="rgb(70.196078%, 70.196078%, 70.196078%)" fill-opacity="1" stroke-width="1" stroke-linecap="butt" stroke-linejoin="miter" stroke="rgb(70.196078%, 70.196078%, 70.196078%)" stroke-opacity="1" stroke-miterlimit="10" d="M 371.035156 580.988281 C 371.035156 584.320312 366.035156 584.320312 366.035156 580.988281 C 366.035156 577.652344 371.035156 577.652344 371.035156 580.988281 "/>
<path fill-rule="nonzero" fill="rgb(70.196078%, 70.196078%, 70.196078%)" fill-opacity="1" stroke-width="1" stroke-linecap="butt" stroke-linejoin="miter" stroke="rgb(70.196078%, 70.196078%, 70.196078%)" stroke-opacity="1" stroke-miterlimit="10" d="M 467.863281 372.25 C 467.863281 375.582031 462.863281 375.582031 462.863281 372.25 C 462.863281 368.917969 467.863281 368.917969 467.863281 372.25 "/>
<path fill-rule="nonzero" fill="rgb(70.196078%, 70.196078%, 70.196078%)" fill-opacity="1" stroke-width="1" stroke-linecap="butt" stroke-linejoin="miter" stroke="rgb(70.196078%, 70.196078%, 70.196078%)" stroke-opacity="1" stroke-miterlimit="10" d="M 236.667969 309.746094 C 236.667969 313.078125 231.667969 313.078125 231.667969 309.746094 C 231.667969 306.414062 236.667969 306.414062 236.667969 309.746094 "/>
<path fill-rule="nonzero" fill="rgb(70.196078%, 70.196078%, 70.196078%)" fill-opacity="1" stroke-width="1" stroke-linecap="butt" stroke-linejoin="miter" stroke="rgb(70.196078%, 70.196078%, 70.196078%)" stroke-opacity="1" stroke-miterlimit="10" d="M 187.289062 266.929688 C 187.289062 270.261719 182.289062 270.261719 182.289062 266.929688 C 182.289062 263.59375 187.289062 263.59375 187.289062 266.929688 "/>
<path fill-rule="nonzero" fill="rgb(70.196078%, 70.196078%, 70.196078%)" fill-opacity="1" stroke-width="1" stroke-linecap="butt" stroke-linejoin="miter" stroke="rgb(70.196078%, 70.196078%, 70.196078%)" stroke-opacity="1" stroke-miterlimit="10" d="M 126.15625 302.867188 C 126.15625 306.199219 121.15625 306.199219 121.15625 302.867188 C 121.15625 299.535156 126.15625 299.535156 126.15625 302.867188 "/>
</svg>
