<?xml version="1.0" encoding="UTF-8"?>
<svg xmlns="http://www.w3.org/2000/svg" xmlns:xlink="http://www.w3.org/1999/xlink" width="800" height="800" viewBox="0 0 800 800">
<rect x="-80" y="-80" width="960" height="960" fill="rgb(100%, 100%, 100%)" fill-opacity="1"/>
<path fill="none" stroke-width="1.5" stroke-linecap="butt" stroke-linejoin="miter" stroke="rgb(99.215686%, 74.901961%, 43.529412%)" stroke-opacity="1" stroke-miterlimit="10" d="M 335.199219 744.769531 C 335.039062 745.851562 336.097656 747.554688 336.007812 747.652344 "/>
<path fill-rule="nonzero" fill="rgb(99.215686%, 74.901961%, 43.529412%)" fill-opacity="1" d="M 340.894531 742.453125 L 337.699219 749.238281 L 334.320312 746.0625 L 340.894531 742.453125 "/>
<path fill="none" stroke-width="1.5" stroke-linecap="butt" stroke-linejoin="miter" stroke="rgb(99.215686%, 74.901961%, 43.529412%)" stroke-opacity="1" stroke-miterlimit="10" d="M 341.414062 741.898438 C 342.210938 742.808594 344.1875 743.753906 344.425781 743.273438 "/>
<path fill-rule="nonzero" fill="rgb(99.215686%, 74.901961%, 43.529412%)" fill-opacity="1" d="M 347.613281 736.890625 L 346.5 744.308594 L 342.355469 742.238281 L 347.613281 736.890625 "/>
<path fill="none" stroke-width="1.5" stroke-linecap="butt" stroke-linejoin="miter" stroke="rgb(99.215686%, 74.901961%, 43.529412%)" stroke-opacity="1" stroke-miterlimit="10" d="M 355.695312 728.027344 C 357.492188 728.515625 360.183594 728.640625 360.730469 727.226562 "/>
<path fill-rule="nonzero" fill="rgb(99.215686%, 74.901961%, 43.529412%)" fill-opacity="1" d="M 363.292969 720.570312 L 362.890625 728.058594 L 358.566406 726.394531 L 363.292969 720.570312 "/>
<path fill="none" stroke-width="1.5" stroke-linecap="butt" stroke-linejoin="miter" stroke="rgb(99.215686%, 74.901961%, 43.529412%)" stroke-opacity="1" stroke-miterlimit="10" d="M 395.257812 690.449219 C 396.757812 691.019531 399.238281 691.296875 399.636719 690.1875 "/>
<path fill-rule="nonzero" fill="rgb(99.215686%, 74.901961%, 43.529412%)" fill-opacity="1" d="M 402.03125 683.472656 L 401.816406 690.96875 L 397.453125 689.410156 L 402.03125 683.472656 "/>
<path fill="none" stroke-width="1.5" stroke-linecap="butt" stroke-linejoin="miter" stroke="rgb(99.215686%, 74.901961%, 43.529412%)" stroke-opacity="1" stroke-miterlimit="10" d="M 380.753906 705.777344 C 382.476562 706.277344 385.117188 706.433594 385.621094 705.09375 "/>
<path fill-rule="nonzero" fill="rgb(99.215686%, 74.901961%, 43.529412%)" fill-opacity="1" d="M 388.128906 698.417969 L 387.789062 705.910156 L 383.453125 704.277344 L 388.128906 698.417969 "/>
<path fill="none" stroke-width="1.5" stroke-linecap="butt" stroke-linejoin="miter" stroke="rgb(99.215686%, 74.901961%, 43.529412%)" stroke-opacity="1" stroke-miterlimit="10" d="M 371.8125 712.664062 C 373.515625 713.410156 376.15625 713.925781 376.898438 712.609375 "/>
<path fill-rule="nonzero" fill="rgb(99.215686%, 74.901961%, 43.529412%)" fill-opacity="1" d="M 380.402344 706.398438 L 378.917969 713.75 L 374.878906 711.472656 L 380.402344 706.398438 "/>
<path fill="none" stroke-width="1.5" stroke-linecap="butt" stroke-linejoin="miter" stroke="rgb(99.215686%, 74.901961%, 43.529412%)" stroke-opacity="1" stroke-miterlimit="10" d="M 347.953125 736.210938 C 349.742188 736.683594 352.425781 736.785156 352.953125 735.378906 "/>
<path fill-rule="nonzero" fill="rgb(99.215686%, 74.901961%, 43.529412%)" fill-opacity="1" d="M 355.445312 728.695312 L 355.125 736.191406 L 350.78125 734.570312 L 355.445312 728.695312 "/>
<path fill="none" stroke-width="1.5" stroke-linecap="butt" stroke-linejoin="miter" stroke="rgb(99.215686%, 74.901961%, 43.529412%)" stroke-opacity="1" stroke-miterlimit="10" d="M 363.550781 719.90625 C 365.191406 720.570312 367.785156 720.984375 368.394531 719.722656 "/>
<path fill-rule="nonzero" fill="rgb(99.215686%, 74.901961%, 43.529412%)" fill-opacity="1" d="M 371.503906 713.304688 L 370.480469 720.734375 L 366.308594 718.714844 L 371.503906 713.304688 "/>
<path fill="none" stroke-width="1.5" stroke-linecap="butt" stroke-linejoin="miter" stroke="rgb(99.215686%, 74.901961%, 43.529412%)" stroke-opacity="1" stroke-miterlimit="10" d="M 402.289062 682.753906 C 403.328125 683.535156 405.492188 684.195312 405.757812 683.535156 "/>
<path fill-rule="nonzero" fill="rgb(99.215686%, 74.901961%, 43.529412%)" fill-opacity="1" d="M 408.398438 676.910156 L 407.910156 684.394531 L 403.601562 682.675781 L 408.398438 676.910156 "/>
<path fill="none" stroke-width="1.5" stroke-linecap="butt" stroke-linejoin="miter" stroke="rgb(99.215686%, 74.901961%, 43.529412%)" stroke-opacity="1" stroke-miterlimit="10" d="M 411.628906 672.320312 C 409.214844 673.066406 408.179688 675.40625 406.441406 676.894531 "/>
<path fill-rule="nonzero" fill="rgb(99.215686%, 74.901961%, 43.529412%)" fill-opacity="1" d="M 411.855469 672.253906 L 407.949219 678.65625 L 404.933594 675.136719 L 411.855469 672.253906 "/>
<path fill="none" stroke-width="1.5" stroke-linecap="butt" stroke-linejoin="miter" stroke="rgb(99.215686%, 74.901961%, 43.529412%)" stroke-opacity="1" stroke-miterlimit="10" d="M 408.679688 676.203125 C 408.378906 677.546875 409.671875 679.078125 409.433594 679.894531 "/>
<path fill-rule="nonzero" fill="rgb(99.215686%, 74.901961%, 43.529412%)" fill-opacity="1" d="M 411.417969 673.042969 L 411.660156 680.539062 L 407.207031 679.25 L 411.417969 673.042969 "/>
<path fill="none" stroke-width="1.5" stroke-linecap="butt" stroke-linejoin="miter" stroke="rgb(99.215686%, 74.901961%, 43.529412%)" stroke-opacity="1" stroke-miterlimit="10" d="M 388.378906 697.75 C 389.734375 698.394531 392.117188 698.808594 392.480469 697.839844 "/>
<path fill-rule="nonzero" fill="rgb(99.215686%, 74.901961%, 43.529412%)" fill-opacity="1" d="M 394.992188 691.164062 L 394.652344 698.65625 L 390.3125 697.023438 L 394.992188 691.164062 "/>
<path fill="none" stroke-width="1.5" stroke-linecap="butt" stroke-linejoin="miter" stroke="rgb(99.215686%, 74.901961%, 43.529412%)" stroke-opacity="1" stroke-miterlimit="10" d="M 332.453125 750 C 332.695312 751.160156 334.414062 752.144531 334.363281 752.613281 "/>
<path fill-rule="nonzero" fill="rgb(99.215686%, 74.901961%, 43.529412%)" fill-opacity="1" d="M 335.121094 745.523438 L 336.667969 752.859375 L 332.058594 752.367188 L 335.121094 745.523438 "/>
<path fill="none" stroke-width="1.5" stroke-linecap="butt" stroke-linejoin="miter" stroke="rgb(98.431373%, 60.392157%, 60%)" stroke-opacity="1" stroke-miterlimit="10" d="M 70.390625 472.25 C 71.484375 473.410156 73.59375 474.738281 74.421875 473.914062 "/>
<path fill-rule="nonzero" fill="rgb(98.431373%, 60.392157%, 60%)" fill-opacity="1" d="M 79.484375 468.890625 L 76.054688 475.558594 L 72.789062 472.269531 L 79.484375 468.890625 "/>
<path fill="none" stroke-width="1.5" stroke-linecap="butt" stroke-linejoin="miter" stroke="rgb(98.431373%, 60.392157%, 60%)" stroke-opacity="1" stroke-miterlimit="10" d="M 89.351562 464.957031 C 90.195312 466.191406 92.054688 467.742188 92.851562 467.085938 "/>
<path fill-rule="nonzero" fill="rgb(98.431373%, 60.392157%, 60%)" fill-opacity="1" d="M 98.359375 462.554688 L 94.320312 468.878906 L 91.378906 465.296875 L 98.359375 462.554688 "/>
<path fill="none" stroke-width="1.5" stroke-linecap="butt" stroke-linejoin="miter" stroke="rgb(41.568627%, 23.921569%, 60.392157%)" stroke-opacity="1" stroke-miterlimit="10" d="M 457.144531 173.496094 C 458.304688 174.253906 460.191406 173.574219 460.882812 174.082031 "/>
<path fill-rule="nonzero" fill="rgb(41.568627%, 23.921569%, 60.392157%)" fill-opacity="1" d="M 455.132812 169.859375 L 462.253906 172.214844 L 459.511719 175.949219 L 455.132812 169.859375 "/>
<path fill="none" stroke-width="1.5" stroke-linecap="butt" stroke-linejoin="miter" stroke="rgb(98.431373%, 60.392157%, 60%)" stroke-opacity="1" stroke-miterlimit="10" d="M 52.027344 481.082031 C 51.492188 482.253906 52.390625 484.027344 52.007812 484.601562 "/>
<path fill-rule="nonzero" fill="rgb(98.431373%, 60.392157%, 60%)" fill-opacity="1" d="M 55.949219 478.660156 L 53.9375 485.882812 L 50.078125 483.320312 L 55.949219 478.660156 "/>
<path fill="none" stroke-width="1.5" stroke-linecap="butt" stroke-linejoin="miter" stroke="rgb(98.431373%, 60.392157%, 60%)" stroke-opacity="1" stroke-miterlimit="10" d="M 107.832031 459.445312 C 107.726562 460.554688 108.601562 462.453125 108.808594 462.328125 "/>
<path fill-rule="nonzero" fill="rgb(98.431373%, 60.392157%, 60%)" fill-opacity="1" d="M 114.964844 458.726562 L 109.980469 464.328125 L 107.640625 460.328125 L 114.964844 458.726562 "/>
<path fill="none" stroke-width="1.5" stroke-linecap="butt" stroke-linejoin="miter" stroke="rgb(98.431373%, 60.392157%, 60%)" stroke-opacity="1" stroke-miterlimit="10" d="M 98.949219 462.074219 C 99.511719 463.269531 101.117188 464.894531 101.699219 464.417969 "/>
<path fill-rule="nonzero" fill="rgb(98.431373%, 60.392157%, 60%)" fill-opacity="1" d="M 107.238281 459.925781 L 103.160156 466.21875 L 100.242188 462.621094 L 107.238281 459.925781 "/>
<path fill="none" stroke-width="1.5" stroke-linecap="butt" stroke-linejoin="miter" stroke="rgb(41.568627%, 23.921569%, 60.392157%)" stroke-opacity="1" stroke-miterlimit="10" d="M 459.066406 175.625 C 460.460938 176.9375 462.640625 176.5625 464.023438 177.335938 "/>
<path fill-rule="nonzero" fill="rgb(41.568627%, 23.921569%, 60.392157%)" fill-opacity="1" d="M 457.792969 173.859375 L 465.152344 175.308594 L 462.894531 179.359375 L 457.792969 173.859375 "/>
<path fill="none" stroke-width="1.5" stroke-linecap="butt" stroke-linejoin="miter" stroke="rgb(98.431373%, 60.392157%, 60%)" stroke-opacity="1" stroke-miterlimit="10" d="M 122.519531 456.0625 C 121.25 456.703125 120.898438 458.6875 120.066406 459.085938 "/>
<path fill-rule="nonzero" fill="rgb(98.431373%, 60.392157%, 60%)" fill-opacity="1" d="M 126.503906 456.007812 L 121.066406 461.175781 L 119.066406 456.996094 L 126.503906 456.007812 "/>
<path fill="none" stroke-width="1.5" stroke-linecap="butt" stroke-linejoin="miter" stroke="rgb(41.568627%, 23.921569%, 60.392157%)" stroke-opacity="1" stroke-miterlimit="10" d="M 436.109375 126.511719 C 437.179688 125.898438 438.546875 124.15625 438.097656 123.777344 "/>
<path fill-rule="nonzero" fill="rgb(41.568627%, 23.921569%, 60.392157%)" fill-opacity="1" d="M 432.65625 119.164062 L 439.597656 122.007812 L 436.597656 125.542969 L 432.65625 119.164062 "/>
<path fill="none" stroke-width="1.5" stroke-linecap="butt" stroke-linejoin="miter" stroke="rgb(98.431373%, 60.392157%, 60%)" stroke-opacity="1" stroke-miterlimit="10" d="M 115.621094 458.34375 C 115.492188 459.421875 116.496094 461.195312 116.511719 461.179688 "/>
<path fill-rule="nonzero" fill="rgb(98.431373%, 60.392157%, 60%)" fill-opacity="1" d="M 121.941406 456.554688 L 118.015625 462.941406 L 115.007812 459.414062 L 121.941406 456.554688 "/>
<path fill="none" stroke-width="1.5" stroke-linecap="butt" stroke-linejoin="miter" stroke="rgb(98.431373%, 60.392157%, 60%)" stroke-opacity="1" stroke-miterlimit="10" d="M 56.367188 478.03125 C 56.546875 479.132812 57.867188 480.761719 58.054688 480.578125 "/>
<path fill-rule="nonzero" fill="rgb(98.431373%, 60.392157%, 60%)" fill-opacity="1" d="M 63.164062 475.601562 L 59.671875 482.238281 L 56.4375 478.917969 L 63.164062 475.601562 "/>
<path fill="none" stroke-width="1.5" stroke-linecap="butt" stroke-linejoin="miter" stroke="rgb(41.568627%, 23.921569%, 60.392157%)" stroke-opacity="1" stroke-miterlimit="10" d="M 432.074219 118.671875 C 433.167969 118.394531 434.710938 116.957031 434.488281 116.75 "/>
<path fill-rule="nonzero" fill="rgb(41.568627%, 23.921569%, 60.392157%)" fill-opacity="1" d="M 429.257812 111.902344 L 436.066406 115.050781 L 432.914062 118.449219 L 429.257812 111.902344 "/>
<path fill="none" stroke-width="1.5" stroke-linecap="butt" stroke-linejoin="miter" stroke="rgb(41.568627%, 23.921569%, 60.392157%)" stroke-opacity="1" stroke-miterlimit="10" d="M 428.703125 111.386719 C 429.835938 111.855469 431.59375 110.949219 432.058594 111.289062 "/>
<path fill-rule="nonzero" fill="rgb(41.568627%, 23.921569%, 60.392157%)" fill-opacity="1" d="M 426.308594 107.070312 L 433.429688 109.421875 L 430.6875 113.15625 L 426.308594 107.070312 "/>
<path fill="none" stroke-width="1.5" stroke-linecap="butt" stroke-linejoin="miter" stroke="rgb(98.431373%, 60.392157%, 60%)" stroke-opacity="1" stroke-miterlimit="10" d="M 80.027344 468.351562 C 80.90625 469.535156 82.816406 470.984375 83.546875 470.3125 "/>
<path fill-rule="nonzero" fill="rgb(98.431373%, 60.392157%, 60%)" fill-opacity="1" d="M 88.789062 465.472656 L 85.117188 472.015625 L 81.976562 468.609375 L 88.789062 465.472656 "/>
<path fill="none" stroke-width="1.5" stroke-linecap="butt" stroke-linejoin="miter" stroke="rgb(41.568627%, 23.921569%, 60.392157%)" stroke-opacity="1" stroke-miterlimit="10" d="M 448.664062 154.136719 C 449.84375 152.949219 451.160156 150.765625 450.277344 149.855469 "/>
<path fill-rule="nonzero" fill="rgb(41.568627%, 23.921569%, 60.392157%)" fill-opacity="1" d="M 445.304688 144.742188 L 451.9375 148.242188 L 448.613281 151.472656 L 445.304688 144.742188 "/>
<path fill="none" stroke-width="1.5" stroke-linecap="butt" stroke-linejoin="miter" stroke="rgb(41.568627%, 23.921569%, 60.392157%)" stroke-opacity="1" stroke-miterlimit="10" d="M 425.699219 106.621094 C 427.683594 107.546875 429.796875 106.5 431.691406 106.699219 "/>
<path fill-rule="nonzero" fill="rgb(41.568627%, 23.921569%, 60.392157%)" fill-opacity="1" d="M 424.597656 105.953125 L 431.933594 104.394531 L 431.449219 109.003906 L 424.597656 105.953125 "/>
<path fill="none" stroke-width="1.5" stroke-linecap="butt" stroke-linejoin="miter" stroke="rgb(30.196078%, 68.627451%, 29.019608%)" stroke-opacity="1" stroke-miterlimit="10" d="M 750 362.546875 C 751.328125 364.613281 753.816406 364.949219 755.632812 366.203125 "/>
<path fill-rule="nonzero" fill="rgb(30.196078%, 68.627451%, 29.019608%)" fill-opacity="1" d="M 749.761719 362.148438 L 756.949219 364.296875 L 754.316406 368.109375 L 749.761719 362.148438 "/>
<path fill="none" stroke-width="1.5" stroke-linecap="butt" stroke-linejoin="miter" stroke="rgb(30.196078%, 68.627451%, 29.019608%)" stroke-opacity="1" stroke-miterlimit="10" d="M 736.707031 359.65625 C 738.273438 358.558594 738.355469 356.351562 739.390625 355.164062 "/>
<path fill-rule="nonzero" fill="rgb(30.196078%, 68.627451%, 29.019608%)" fill-opacity="1" d="M 734.707031 360.542969 L 737.644531 353.640625 L 741.136719 356.683594 L 734.707031 360.542969 "/>
<path fill="none" stroke-width="1.5" stroke-linecap="butt" stroke-linejoin="miter" stroke="rgb(30.196078%, 68.627451%, 29.019608%)" stroke-opacity="1" stroke-miterlimit="10" d="M 736.707031 359.65625 C 734.792969 359.867188 733.660156 361.777344 732.167969 362.339844 "/>
<path fill-rule="nonzero" fill="rgb(30.196078%, 68.627451%, 29.019608%)" fill-opacity="1" d="M 738.839844 359.816406 L 732.988281 364.507812 L 731.347656 360.171875 L 738.839844 359.816406 "/>
<path fill="none" stroke-width="1.5" stroke-linecap="butt" stroke-linejoin="miter" stroke="rgb(30.196078%, 68.627451%, 29.019608%)" stroke-opacity="1" stroke-miterlimit="10" d="M 734.21875 361.101562 C 732.132812 361.886719 731.386719 364.144531 729.898438 365.402344 "/>
<path fill-rule="nonzero" fill="rgb(30.196078%, 68.627451%, 29.019608%)" fill-opacity="1" d="M 735.347656 360.800781 L 731.394531 367.171875 L 728.402344 363.632812 L 735.347656 360.800781 "/>
<path fill="none" stroke-width="1.5" stroke-linecap="butt" stroke-linejoin="miter" stroke="rgb(30.196078%, 68.627451%, 29.019608%)" stroke-opacity="1" stroke-miterlimit="10" d="M 744.8125 359.179688 C 743.097656 357.835938 740.8125 358.375 739.027344 357.75 "/>
<path fill-rule="nonzero" fill="rgb(30.196078%, 68.627451%, 29.019608%)" fill-opacity="1" d="M 745.757812 360.109375 L 738.257812 359.9375 L 739.792969 355.5625 L 745.757812 360.109375 "/>
<path fill="none" stroke-width="1.5" stroke-linecap="butt" stroke-linejoin="miter" stroke="rgb(30.196078%, 68.627451%, 29.019608%)" stroke-opacity="1" stroke-miterlimit="10" d="M 747.90625 360.867188 C 746.304688 359.71875 744.167969 360.375 742.621094 359.800781 "/>
<path fill-rule="nonzero" fill="rgb(30.196078%, 68.627451%, 29.019608%)" fill-opacity="1" d="M 749.304688 362.289062 L 741.8125 361.972656 L 743.429688 357.628906 L 749.304688 362.289062 "/>
<path fill="none" stroke-width="1.5" stroke-linecap="butt" stroke-linejoin="miter" stroke="rgb(30.196078%, 68.627451%, 29.019608%)" stroke-opacity="1" stroke-miterlimit="10" d="M 742.175781 358.792969 C 740.207031 358.605469 738.6875 360.253906 737.058594 360.539062 "/>
<path fill-rule="nonzero" fill="rgb(30.196078%, 68.627451%, 29.019608%)" fill-opacity="1" d="M 744.082031 359.308594 L 737.457031 362.820312 L 736.65625 358.257812 L 744.082031 359.308594 "/>
<path fill="none" stroke-width="1.5" stroke-linecap="butt" stroke-linejoin="miter" stroke="rgb(30.196078%, 68.627451%, 29.019608%)" stroke-opacity="1" stroke-miterlimit="10" d="M 739.535156 359.554688 C 737.699219 360.214844 737.035156 362.34375 735.699219 363.265625 "/>
<path fill-rule="nonzero" fill="rgb(30.196078%, 68.627451%, 29.019608%)" fill-opacity="1" d="M 741.566406 359.210938 L 737.015625 365.171875 L 734.378906 361.359375 L 741.566406 359.210938 "/>
<path fill="none" stroke-width="1.5" stroke-linecap="butt" stroke-linejoin="miter" stroke="rgb(41.568627%, 23.921569%, 60.392157%)" stroke-opacity="1" stroke-miterlimit="10" d="M 452.710938 163.652344 C 453.851562 162.554688 455.148438 160.441406 454.324219 159.640625 "/>
<path fill-rule="nonzero" fill="rgb(41.568627%, 23.921569%, 60.392157%)" fill-opacity="1" d="M 449.210938 154.667969 L 455.941406 157.980469 L 452.710938 161.300781 L 449.210938 154.667969 "/>
<path fill="none" stroke-width="1.5" stroke-linecap="butt" stroke-linejoin="miter" stroke="rgb(41.568627%, 23.921569%, 60.392157%)" stroke-opacity="1" stroke-miterlimit="10" d="M 454.527344 169.414062 C 455.53125 170.007812 457.429688 169.4375 457.695312 169.769531 "/>
<path fill-rule="nonzero" fill="rgb(41.568627%, 23.921569%, 60.392157%)" fill-opacity="1" d="M 453.191406 164.238281 L 459.492188 168.304688 L 455.898438 171.230469 L 453.191406 164.238281 "/>
<path fill="none" stroke-width="1.5" stroke-linecap="butt" stroke-linejoin="miter" stroke="rgb(41.568627%, 23.921569%, 60.392157%)" stroke-opacity="1" stroke-miterlimit="10" d="M 444.773438 144.195312 C 446.015625 143.09375 447.460938 140.992188 446.640625 140.058594 "/>
<path fill-rule="nonzero" fill="rgb(41.568627%, 23.921569%, 60.392157%)" fill-opacity="1" d="M 441.933594 134.699219 L 448.382812 138.527344 L 444.898438 141.585938 L 441.933594 134.699219 "/>
<path fill="none" stroke-width="1.5" stroke-linecap="butt" stroke-linejoin="miter" stroke="rgb(41.568627%, 23.921569%, 60.392157%)" stroke-opacity="1" stroke-miterlimit="10" d="M 441.101562 133.75 C 442.085938 133.011719 443.222656 131.117188 442.734375 130.800781 "/>
<path fill-rule="nonzero" fill="rgb(41.568627%, 23.921569%, 60.392157%)" fill-opacity="1" d="M 436.746094 126.925781 L 443.992188 128.855469 L 441.476562 132.746094 L 436.746094 126.925781 "/>
<path fill="none" stroke-width="1.5" stroke-linecap="butt" stroke-linejoin="miter" stroke="rgb(41.568627%, 23.921569%, 60.392157%)" stroke-opacity="1" stroke-miterlimit="10" d="M 441.101562 133.75 C 439.15625 133.890625 437.945312 135.761719 436.410156 136.289062 "/>
<path fill-rule="nonzero" fill="rgb(41.568627%, 23.921569%, 60.392157%)" fill-opacity="1" d="M 443.152344 133.96875 L 437.164062 138.480469 L 435.65625 134.097656 L 443.152344 133.96875 "/>
<path fill="none" stroke-width="1.5" stroke-linecap="butt" stroke-linejoin="miter" stroke="rgb(41.568627%, 23.921569%, 60.392157%)" stroke-opacity="1" stroke-miterlimit="10" d="M 443.855469 133.726562 C 445.964844 133.851562 447.5 132.121094 449.261719 131.671875 "/>
<path fill-rule="nonzero" fill="rgb(41.568627%, 23.921569%, 60.392157%)" fill-opacity="1" d="M 442.347656 133.429688 L 448.6875 129.425781 L 449.832031 133.917969 L 442.347656 133.429688 "/>
<path fill="none" stroke-width="1.5" stroke-linecap="butt" stroke-linejoin="miter" stroke="rgb(98.431373%, 60.392157%, 60%)" stroke-opacity="1" stroke-miterlimit="10" d="M 50 483.164062 C 48.792969 484.640625 49.320312 486.78125 48.648438 488.199219 "/>
<path fill-rule="nonzero" fill="rgb(98.431373%, 60.392157%, 60%)" fill-opacity="1" d="M 51.707031 481.753906 L 50.742188 489.191406 L 46.554688 487.203125 L 51.707031 481.753906 "/>
<path fill="none" stroke-width="1.5" stroke-linecap="butt" stroke-linejoin="miter" stroke="rgb(98.431373%, 60.392157%, 60%)" stroke-opacity="1" stroke-miterlimit="10" d="M 63.710938 475.074219 C 63.664062 476.160156 64.796875 477.847656 64.8125 477.832031 "/>
<path fill-rule="nonzero" fill="rgb(98.431373%, 60.392157%, 60%)" fill-opacity="1" d="M 69.855469 472.789062 L 66.449219 479.472656 L 63.171875 476.195312 L 69.855469 472.789062 "/>
<path fill="none" stroke-width="1.5" stroke-linecap="butt" stroke-linejoin="miter" stroke="rgb(98.431373%, 60.392157%, 60%)" stroke-opacity="1" stroke-miterlimit="10" d="M 127.179688 455.683594 C 125.476562 456.804688 125.304688 459.074219 124.1875 460.394531 "/>
<path fill-rule="nonzero" fill="rgb(98.431373%, 60.392157%, 60%)" fill-opacity="1" d="M 128.796875 454.949219 L 125.957031 461.890625 L 122.421875 458.894531 L 128.796875 454.949219 "/>
<path fill="none" stroke-width="1.5" stroke-linecap="butt" stroke-linejoin="miter" stroke="rgb(12.156863%, 47.058824%, 70.588235%)" stroke-opacity="1" stroke-miterlimit="10" d="M 71.550781 63.710938 C 71.0625 65.347656 72.34375 67.03125 72.171875 68.339844 "/>
<path fill-rule="nonzero" fill="rgb(12.156863%, 47.058824%, 70.588235%)" fill-opacity="1" d="M 73.097656 61.269531 L 74.472656 68.640625 L 69.875 68.042969 L 73.097656 61.269531 "/>
<path fill="none" stroke-width="1.5" stroke-linecap="butt" stroke-linejoin="miter" stroke="rgb(12.156863%, 47.058824%, 70.588235%)" stroke-opacity="1" stroke-miterlimit="10" d="M 73.195312 60.527344 C 75.320312 60.398438 76.644531 58.488281 78.355469 57.816406 "/>
<path fill-rule="nonzero" fill="rgb(12.156863%, 47.058824%, 70.588235%)" fill-opacity="1" d="M 71.71875 60.433594 L 77.503906 55.660156 L 79.207031 59.96875 L 71.71875 60.433594 "/>
<path fill="none" stroke-width="1.5" stroke-linecap="butt" stroke-linejoin="miter" stroke="rgb(12.156863%, 47.058824%, 70.588235%)" stroke-opacity="1" stroke-miterlimit="10" d="M 63.765625 53.398438 C 65.148438 54.480469 67.207031 53.902344 68.433594 54.542969 "/>
<path fill-rule="nonzero" fill="rgb(12.156863%, 47.058824%, 70.588235%)" fill-opacity="1" d="M 62.113281 51.242188 L 69.507812 52.488281 L 67.363281 56.597656 L 62.113281 51.242188 "/>
<path fill="none" stroke-width="1.5" stroke-linecap="butt" stroke-linejoin="miter" stroke="rgb(12.156863%, 47.058824%, 70.588235%)" stroke-opacity="1" stroke-miterlimit="10" d="M 61.449219 50.894531 C 63.414062 52.074219 65.683594 51.265625 67.671875 51.636719 "/>
<path fill-rule="nonzero" fill="rgb(12.156863%, 47.058824%, 70.588235%)" fill-opacity="1" d="M 60.660156 50.324219 L 68.097656 49.359375 L 67.246094 53.914062 L 60.660156 50.324219 "/>
<path fill="none" stroke-width="1.5" stroke-linecap="butt" stroke-linejoin="miter" stroke="rgb(12.156863%, 47.058824%, 70.588235%)" stroke-opacity="1" stroke-miterlimit="10" d="M 67.21875 56.160156 C 68.617188 56.652344 70.300781 55.511719 71.269531 55.824219 "/>
<path fill-rule="nonzero" fill="rgb(12.156863%, 47.058824%, 70.588235%)" fill-opacity="1" d="M 64.480469 53.628906 L 71.980469 53.617188 L 70.554688 58.027344 L 64.480469 53.628906 "/>
<path fill="none" stroke-width="1.5" stroke-linecap="butt" stroke-linejoin="miter" stroke="rgb(12.156863%, 47.058824%, 70.588235%)" stroke-opacity="1" stroke-miterlimit="10" d="M 68.648438 58.179688 C 69.855469 59.835938 72.132812 59.902344 73.519531 60.957031 "/>
<path fill-rule="nonzero" fill="rgb(12.156863%, 47.058824%, 70.588235%)" fill-opacity="1" d="M 67.84375 56.632812 L 74.921875 59.113281 L 72.113281 62.800781 L 67.84375 56.632812 "/>
<path fill="none" stroke-width="1.5" stroke-linecap="butt" stroke-linejoin="miter" stroke="rgb(12.156863%, 47.058824%, 70.588235%)" stroke-opacity="1" stroke-miterlimit="10" d="M 70.992188 60.71875 C 72.375 61.785156 74.421875 61.195312 75.632812 61.828125 "/>
<path fill-rule="nonzero" fill="rgb(12.156863%, 47.058824%, 70.588235%)" fill-opacity="1" d="M 69.308594 58.523438 L 76.707031 59.773438 L 74.558594 63.878906 L 69.308594 58.523438 "/>
<path fill="none" stroke-width="1.5" stroke-linecap="butt" stroke-linejoin="miter" stroke="rgb(12.156863%, 47.058824%, 70.588235%)" stroke-opacity="1" stroke-miterlimit="10" d="M 72.519531 63.726562 C 74.917969 64.535156 77.125 63.242188 79.410156 63.050781 "/>
<path fill-rule="nonzero" fill="rgb(12.156863%, 47.058824%, 70.588235%)" fill-opacity="1" d="M 72.300781 63.648438 L 79.214844 60.738281 L 79.601562 65.359375 L 72.300781 63.648438 "/>
<path fill-rule="nonzero" fill="rgb(99.215686%, 74.901961%, 43.529412%)" fill-opacity="1" stroke-width="1" stroke-linecap="butt" stroke-linejoin="miter" stroke="rgb(99.215686%, 74.901961%, 43.529412%)" stroke-opacity="1" stroke-miterlimit="10" d="M 335.949219 744.769531 C 335.949219 745.769531 334.449219 745.769531 334.449219 744.769531 C 334.449219 743.769531 335.949219 743.769531 335.949219 744.769531 "/>
<path fill-rule="nonzero" fill="rgb(99.215686%, 74.901961%, 43.529412%)" fill-opacity="1" stroke-width="1" stroke-linecap="butt" stroke-linejoin="miter" stroke="rgb(99.215686%, 74.901961%, 43.529412%)" stroke-opacity="1" stroke-miterlimit="10" d="M 342.164062 741.898438 C 342.164062 742.898438 340.664062 742.898438 340.664062 741.898438 C 340.664062 740.898438 342.164062 740.898438 342.164062 741.898438 "/>
<path fill-rule="nonzero" fill="rgb(99.215686%, 74.901961%, 43.529412%)" fill-opacity="1" stroke-width="1" stroke-linecap="butt" stroke-linejoin="miter" stroke="rgb(99.215686%, 74.901961%, 43.529412%)" stroke-opacity="1" stroke-miterlimit="10" d="M 356.445312 728.027344 C 356.445312 729.027344 354.945312 729.027344 354.945312 728.027344 C 354.945312 727.027344 356.445312 727.027344 356.445312 728.027344 "/>
<path fill-rule="nonzero" fill="rgb(99.215686%, 74.901961%, 43.529412%)" fill-opacity="1" stroke-width="1" stroke-linecap="butt" stroke-linejoin="miter" stroke="rgb(99.215686%, 74.901961%, 43.529412%)" stroke-opacity="1" stroke-miterlimit="10" d="M 396.007812 690.449219 C 396.007812 691.449219 394.507812 691.449219 394.507812 690.449219 C 394.507812 689.449219 396.007812 689.449219 396.007812 690.449219 "/>
<path fill-rule="nonzero" fill="rgb(99.215686%, 74.901961%, 43.529412%)" fill-opacity="1" stroke-width="1" stroke-linecap="butt" stroke-linejoin="miter" stroke="rgb(99.215686%, 74.901961%, 43.529412%)" stroke-opacity="1" stroke-miterlimit="10" d="M 381.503906 705.777344 C 381.503906 706.777344 380.003906 706.777344 380.003906 705.777344 C 380.003906 704.777344 381.503906 704.777344 381.503906 705.777344 "/>
<path fill-rule="nonzero" fill="rgb(99.215686%, 74.901961%, 43.529412%)" fill-opacity="1" stroke-width="1" stroke-linecap="butt" stroke-linejoin="miter" stroke="rgb(99.215686%, 74.901961%, 43.529412%)" stroke-opacity="1" stroke-miterlimit="10" d="M 372.5625 712.664062 C 372.5625 713.664062 371.0625 713.664062 371.0625 712.664062 C 371.0625 711.664062 372.5625 711.664062 372.5625 712.664062 "/>
<path fill-rule="nonzero" fill="rgb(99.215686%, 74.901961%, 43.529412%)" fill-opacity="1" stroke-width="1" stroke-linecap="butt" stroke-linejoin="miter" stroke="rgb(99.215686%, 74.901961%, 43.529412%)" stroke-opacity="1" stroke-miterlimit="10" d="M 348.703125 736.210938 C 348.703125 737.210938 347.203125 737.210938 347.203125 736.210938 C 347.203125 735.210938 348.703125 735.210938 348.703125 736.210938 "/>
<path fill-rule="nonzero" fill="rgb(99.215686%, 74.901961%, 43.529412%)" fill-opacity="1" stroke-width="1" stroke-linecap="butt" stroke-linejoin="miter" stroke="rgb(99.215686%, 74.901961%, 43.529412%)" stroke-opacity="1" stroke-miterlimit="10" d="M 364.300781 719.90625 C 364.300781 720.90625 362.800781 720.90625 362.800781 719.90625 C 362.800781 718.90625 364.300781 718.90625 364.300781 719.90625 "/>
<path fill-rule="nonzero" fill="rgb(99.215686%, 74.901961%, 43.529412%)" fill-opacity="1" stroke-width="1" stroke-linecap="butt" stroke-linejoin="miter" stroke="rgb(99.215686%, 74.901961%, 43.529412%)" stroke-opacity="1" stroke-miterlimit="10" d="M 403.039062 682.753906 C 403.039062 683.753906 401.539062 683.753906 401.539062 682.753906 C 401.539062 681.753906 403.039062 681.753906 403.039062 682.753906 "/>
<path fill-rule="nonzero" fill="rgb(99.215686%, 74.901961%, 43.529412%)" fill-opacity="1" stroke-width="1" stroke-linecap="butt" stroke-linejoin="miter" stroke="rgb(99.215686%, 74.901961%, 43.529412%)" stroke-opacity="1" stroke-miterlimit="10" d="M 412.378906 672.320312 C 412.378906 673.320312 410.878906 673.320312 410.878906 672.320312 C 410.878906 671.320312 412.378906 671.320312 412.378906 672.320312 "/>
<path fill-rule="nonzero" fill="rgb(14.901961%, 14.901961%, 14.901961%)" fill-opacity="1" stroke-width="1" stroke-linecap="butt" stroke-linejoin="miter" stroke="rgb(14.901961%, 14.901961%, 14.901961%)" stroke-opacity="1" stroke-miterlimit="10" d="M 411.4375 672.863281 L 413.1875 669.363281 L 414.9375 672.863281 Z M 411.4375 672.863281 "/>
<path fill-rule="nonzero" fill="rgb(99.215686%, 74.901961%, 43.529412%)" fill-opacity="1" stroke-width="1" stroke-linecap="butt" stroke-linejoin="miter" stroke="rgb(99.215686%, 74.901961%, 43.529412%)" stroke-opacity="1" stroke-miterlimit="10" d="M 409.429688 676.203125 C 409.429688 677.203125 407.929688 677.203125 407.929688 676.203125 C 407.929688 675.203125 409.429688 675.203125 409.429688 676.203125 "/>
<path fill-rule="nonzero" fill="rgb(99.215686%, 74.901961%, 43.529412%)" fill-opacity="1" stroke-width="1" stroke-linecap="butt" stroke-linejoin="miter" stroke="rgb(99.215686%, 74.901961%, 43.529412%)" stroke-opacity="1" stroke-miterlimit="10" d="M 389.128906 697.75 C 389.128906 698.75 387.628906 698.75 387.628906 697.75 C 387.628906 696.75 389.128906 696.75 389.128906 697.75 "/>
<path fill-rule="nonzero" fill="rgb(100%, 84.313725%, 0%)" fill-opacity="1" stroke-width="1" stroke-linecap="butt" stroke-linejoin="miter" stroke="rgb(100%, 84.313725%, 0%)" stroke-opacity="1" stroke-miterlimit="10" d="M 331.203125 748.75 L 333.703125 748.75 L 333.703125 751.25 L 331.203125 751.25 Z M 331.203125 748.75 "/>
<path fill-rule="nonzero" fill="rgb(98.431373%, 60.392157%, 60%)" fill-opacity="1" stroke-width="1" stroke-linecap="butt" stroke-linejoin="miter" stroke="rgb(98.431373%, 60.392157%, 60%)" stroke-opacity="1" stroke-miterlimit="10" d="M 71.140625 472.25 C 71.140625 473.25 69.640625 473.25 69.640625 472.25 C 69.640625 471.25 71.140625 471.25 71.140625 472.25 "/>
<path fill-rule="nonzero" fill="rgb(98.431373%, 60.392157%, 60%)" fill-opacity="1" stroke-width="1" stroke-linecap="butt" stroke-linejoin="miter" stroke="rgb(98.431373%, 60.392157%, 60%)" stroke-opacity="1" stroke-miterlimit="10" d="M 90.101562 464.957031 C 90.101562 465.957031 88.601562 465.957031 88.601562 464.957031 C 88.601562 463.957031 90.101562 463.957031 90.101562 464.957031 "/>
<path fill-rule="nonzero" fill="rgb(41.568627%, 23.921569%, 60.392157%)" fill-opacity="1" stroke-width="1" stroke-linecap="butt" stroke-linejoin="miter" stroke="rgb(41.568627%, 23.921569%, 60.392157%)" stroke-opacity="1" stroke-miterlimit="10" d="M 457.894531 173.496094 C 457.894531 174.496094 456.394531 174.496094 456.394531 173.496094 C 456.394531 172.496094 457.894531 172.496094 457.894531 173.496094 "/>
<path fill-rule="nonzero" fill="rgb(98.431373%, 60.392157%, 60%)" fill-opacity="1" stroke-width="1" stroke-linecap="butt" stroke-linejoin="miter" stroke="rgb(98.431373%, 60.392157%, 60%)" stroke-opacity="1" stroke-miterlimit="10" d="M 52.777344 481.082031 C 52.777344 482.082031 51.277344 482.082031 51.277344 481.082031 C 51.277344 480.082031 52.777344 480.082031 52.777344 481.082031 "/>
<path fill-rule="nonzero" fill="rgb(98.431373%, 60.392157%, 60%)" fill-opacity="1" stroke-width="1" stroke-linecap="butt" stroke-linejoin="miter" stroke="rgb(98.431373%, 60.392157%, 60%)" stroke-opacity="1" stroke-miterlimit="10" d="M 108.582031 459.445312 C 108.582031 460.445312 107.082031 460.445312 107.082031 459.445312 C 107.082031 458.445312 108.582031 458.445312 108.582031 459.445312 "/>
<path fill-rule="nonzero" fill="rgb(98.431373%, 60.392157%, 60%)" fill-opacity="1" stroke-width="1" stroke-linecap="butt" stroke-linejoin="miter" stroke="rgb(98.431373%, 60.392157%, 60%)" stroke-opacity="1" stroke-miterlimit="10" d="M 99.699219 462.074219 C 99.699219 463.074219 98.199219 463.074219 98.199219 462.074219 C 98.199219 461.074219 99.699219 461.074219 99.699219 462.074219 "/>
<path fill-rule="nonzero" fill="rgb(100%, 84.313725%, 0%)" fill-opacity="1" stroke-width="1" stroke-linecap="butt" stroke-linejoin="miter" stroke="rgb(100%, 84.313725%, 0%)" stroke-opacity="1" stroke-miterlimit="10" d="M 457.816406 174.375 L 460.316406 174.375 L 460.316406 176.875 L 457.816406 176.875 Z M 457.816406 174.375 "/>
<path fill-rule="nonzero" fill="rgb(98.431373%, 60.392157%, 60%)" fill-opacity="1" stroke-width="1" stroke-linecap="butt" stroke-linejoin="miter" stroke="rgb(98.431373%, 60.392157%, 60%)" stroke-opacity="1" stroke-miterlimit="10" d="M 123.269531 456.0625 C 123.269531 457.0625 121.769531 457.0625 121.769531 456.0625 C 121.769531 455.0625 123.269531 455.0625 123.269531 456.0625 "/>
<path fill-rule="nonzero" fill="rgb(41.568627%, 23.921569%, 60.392157%)" fill-opacity="1" stroke-width="1" stroke-linecap="butt" stroke-linejoin="miter" stroke="rgb(41.568627%, 23.921569%, 60.392157%)" stroke-opacity="1" stroke-miterlimit="10" d="M 436.859375 126.511719 C 436.859375 127.511719 435.359375 127.511719 435.359375 126.511719 C 435.359375 125.511719 436.859375 125.511719 436.859375 126.511719 "/>
<path fill-rule="nonzero" fill="rgb(98.431373%, 60.392157%, 60%)" fill-opacity="1" stroke-width="1" stroke-linecap="butt" stroke-linejoin="miter" stroke="rgb(98.431373%, 60.392157%, 60%)" stroke-opacity="1" stroke-miterlimit="10" d="M 116.371094 458.34375 C 116.371094 459.34375 114.871094 459.34375 114.871094 458.34375 C 114.871094 457.34375 116.371094 457.34375 116.371094 458.34375 "/>
<path fill-rule="nonzero" fill="rgb(98.431373%, 60.392157%, 60%)" fill-opacity="1" stroke-width="1" stroke-linecap="butt" stroke-linejoin="miter" stroke="rgb(98.431373%, 60.392157%, 60%)" stroke-opacity="1" stroke-miterlimit="10" d="M 57.117188 478.03125 C 57.117188 479.03125 55.617188 479.03125 55.617188 478.03125 C 55.617188 477.03125 57.117188 477.03125 57.117188 478.03125 "/>
<path fill-rule="nonzero" fill="rgb(41.568627%, 23.921569%, 60.392157%)" fill-opacity="1" stroke-width="1" stroke-linecap="butt" stroke-linejoin="miter" stroke="rgb(41.568627%, 23.921569%, 60.392157%)" stroke-opacity="1" stroke-miterlimit="10" d="M 432.824219 118.671875 C 432.824219 119.671875 431.324219 119.671875 431.324219 118.671875 C 431.324219 117.671875 432.824219 117.671875 432.824219 118.671875 "/>
<path fill-rule="nonzero" fill="rgb(41.568627%, 23.921569%, 60.392157%)" fill-opacity="1" stroke-width="1" stroke-linecap="butt" stroke-linejoin="miter" stroke="rgb(41.568627%, 23.921569%, 60.392157%)" stroke-opacity="1" stroke-miterlimit="10" d="M 429.453125 111.386719 C 429.453125 112.386719 427.953125 112.386719 427.953125 111.386719 C 427.953125 110.386719 429.453125 110.386719 429.453125 111.386719 "/>
<path fill-rule="nonzero" fill="rgb(98.431373%, 60.392157%, 60%)" fill-opacity="1" stroke-width="1" stroke-linecap="butt" stroke-linejoin="miter" stroke="rgb(98.431373%, 60.392157%, 60%)" stroke-opacity="1" stroke-miterlimit="10" d="M 80.777344 468.351562 C 80.777344 469.351562 79.277344 469.351562 79.277344 468.351562 C 79.277344 467.351562 80.777344 467.351562 80.777344 468.351562 "/>
<path fill-rule="nonzero" fill="rgb(41.568627%, 23.921569%, 60.392157%)" fill-opacity="1" stroke-width="1" stroke-linecap="butt" stroke-linejoin="miter" stroke="rgb(41.568627%, 23.921569%, 60.392157%)" stroke-opacity="1" stroke-miterlimit="10" d="M 449.414062 154.136719 C 449.414062 155.136719 447.914062 155.136719 447.914062 154.136719 C 447.914062 153.136719 449.414062 153.136719 449.414062 154.136719 "/>
<path fill-rule="nonzero" fill="rgb(41.568627%, 23.921569%, 60.392157%)" fill-opacity="1" stroke-width="1" stroke-linecap="butt" stroke-linejoin="miter" stroke="rgb(41.568627%, 23.921569%, 60.392157%)" stroke-opacity="1" stroke-miterlimit="10" d="M 426.449219 106.621094 C 426.449219 107.621094 424.949219 107.621094 424.949219 106.621094 C 424.949219 105.621094 426.449219 105.621094 426.449219 106.621094 "/>
<path fill-rule="nonzero" fill="rgb(14.901961%, 14.901961%, 14.901961%)" fill-opacity="1" stroke-width="1" stroke-linecap="butt" stroke-linejoin="miter" stroke="rgb(14.901961%, 14.901961%, 14.901961%)" stroke-opacity="1" stroke-miterlimit="10" d="M 128.207031 455.332031 L 129.957031 451.832031 L 131.707031 455.332031 Z M 128.207031 455.332031 "/>
<path fill-rule="nonzero" fill="rgb(30.196078%, 68.627451%, 29.019608%)" fill-opacity="1" stroke-width="1" stroke-linecap="butt" stroke-linejoin="miter" stroke="rgb(30.196078%, 68.627451%, 29.019608%)" stroke-opacity="1" stroke-miterlimit="10" d="M 750.75 362.546875 C 750.75 363.546875 749.25 363.546875 749.25 362.546875 C 749.25 361.546875 750.75 361.546875 750.75 362.546875 "/>
<path fill-rule="nonzero" fill="rgb(14.901961%, 14.901961%, 14.901961%)" fill-opacity="1" stroke-width="1" stroke-linecap="butt" stroke-linejoin="miter" stroke="rgb(14.901961%, 14.901961%, 14.901961%)" stroke-opacity="1" stroke-miterlimit="10" d="M 421.078125 107.515625 L 422.828125 104.015625 L 424.578125 107.515625 Z M 421.078125 107.515625 "/>
<path fill-rule="nonzero" fill="rgb(100%, 84.313725%, 0%)" fill-opacity="1" stroke-width="1" stroke-linecap="butt" stroke-linejoin="miter" stroke="rgb(100%, 84.313725%, 0%)" stroke-opacity="1" stroke-miterlimit="10" d="M 734.957031 357.90625 L 738.457031 357.90625 L 738.457031 361.40625 L 734.957031 361.40625 Z M 734.957031 357.90625 "/>
<path fill-rule="nonzero" fill="rgb(30.196078%, 68.627451%, 29.019608%)" fill-opacity="1" stroke-width="1" stroke-linecap="butt" stroke-linejoin="miter" stroke="rgb(30.196078%, 68.627451%, 29.019608%)" stroke-opacity="1" stroke-miterlimit="10" d="M 734.96875 361.101562 C 734.96875 362.101562 733.46875 362.101562 733.46875 361.101562 C 733.46875 360.101562 734.96875 360.101562 734.96875 361.101562 "/>
<path fill-rule="nonzero" fill="rgb(30.196078%, 68.627451%, 29.019608%)" fill-opacity="1" stroke-width="1" stroke-linecap="butt" stroke-linejoin="miter" stroke="rgb(30.196078%, 68.627451%, 29.019608%)" stroke-opacity="1" stroke-miterlimit="10" d="M 745.5625 359.179688 C 745.5625 360.179688 744.0625 360.179688 744.0625 359.179688 C 744.0625 358.179688 745.5625 358.179688 745.5625 359.179688 "/>
<path fill-rule="nonzero" fill="rgb(14.901961%, 14.901961%, 14.901961%)" fill-opacity="1" stroke-width="1" stroke-linecap="butt" stroke-linejoin="miter" stroke="rgb(14.901961%, 14.901961%, 14.901961%)" stroke-opacity="1" stroke-miterlimit="10" d="M 745.65625 363.117188 L 747.90625 358.617188 L 750.15625 363.117188 Z M 745.65625 363.117188 "/>
<path fill-rule="nonzero" fill="rgb(30.196078%, 68.627451%, 29.019608%)" fill-opacity="1" stroke-width="1" stroke-linecap="butt" stroke-linejoin="miter" stroke="rgb(30.196078%, 68.627451%, 29.019608%)" stroke-opacity="1" stroke-miterlimit="10" d="M 742.925781 358.792969 C 742.925781 359.792969 741.425781 359.792969 741.425781 358.792969 C 741.425781 357.792969 742.925781 357.792969 742.925781 358.792969 "/>
<path fill-rule="nonzero" fill="rgb(30.196078%, 68.627451%, 29.019608%)" fill-opacity="1" stroke-width="1" stroke-linecap="butt" stroke-linejoin="miter" stroke="rgb(30.196078%, 68.627451%, 29.019608%)" stroke-opacity="1" stroke-miterlimit="10" d="M 740.285156 359.554688 C 740.285156 360.554688 738.785156 360.554688 738.785156 359.554688 C 738.785156 358.554688 740.285156 358.554688 740.285156 359.554688 "/>
<path fill-rule="nonzero" fill="rgb(41.568627%, 23.921569%, 60.392157%)" fill-opacity="1" stroke-width="1" stroke-linecap="butt" stroke-linejoin="miter" stroke="rgb(41.568627%, 23.921569%, 60.392157%)" stroke-opacity="1" stroke-miterlimit="10" d="M 453.460938 163.652344 C 453.460938 164.652344 451.960938 164.652344 451.960938 163.652344 C 451.960938 162.652344 453.460938 162.652344 453.460938 163.652344 "/>
<path fill-rule="nonzero" fill="rgb(41.568627%, 23.921569%, 60.392157%)" fill-opacity="1" stroke-width="1" stroke-linecap="butt" stroke-linejoin="miter" stroke="rgb(41.568627%, 23.921569%, 60.392157%)" stroke-opacity="1" stroke-miterlimit="10" d="M 455.277344 169.414062 C 455.277344 170.414062 453.777344 170.414062 453.777344 169.414062 C 453.777344 168.414062 455.277344 168.414062 455.277344 169.414062 "/>
<path fill-rule="nonzero" fill="rgb(41.568627%, 23.921569%, 60.392157%)" fill-opacity="1" stroke-width="1" stroke-linecap="butt" stroke-linejoin="miter" stroke="rgb(41.568627%, 23.921569%, 60.392157%)" stroke-opacity="1" stroke-miterlimit="10" d="M 445.523438 144.195312 C 445.523438 145.195312 444.023438 145.195312 444.023438 144.195312 C 444.023438 143.195312 445.523438 143.195312 445.523438 144.195312 "/>
<path fill-rule="nonzero" fill="rgb(41.568627%, 23.921569%, 60.392157%)" fill-opacity="1" stroke-width="1" stroke-linecap="butt" stroke-linejoin="miter" stroke="rgb(41.568627%, 23.921569%, 60.392157%)" stroke-opacity="1" stroke-miterlimit="10" d="M 442.351562 133.75 C 442.351562 135.414062 439.851562 135.414062 439.851562 133.75 C 439.851562 132.082031 442.351562 132.082031 442.351562 133.75 "/>
<path fill-rule="nonzero" fill="rgb(41.568627%, 23.921569%, 60.392157%)" fill-opacity="1" stroke-width="1" stroke-linecap="butt" stroke-linejoin="miter" stroke="rgb(41.568627%, 23.921569%, 60.392157%)" stroke-opacity="1" stroke-miterlimit="10" d="M 444.605469 133.726562 C 444.605469 134.726562 443.105469 134.726562 443.105469 133.726562 C 443.105469 132.726562 444.605469 132.726562 444.605469 133.726562 "/>
<path fill-rule="nonzero" fill="rgb(100%, 84.313725%, 0%)" fill-opacity="1" stroke-width="1" stroke-linecap="butt" stroke-linejoin="miter" stroke="rgb(100%, 84.313725%, 0%)" stroke-opacity="1" stroke-miterlimit="10" d="M 48.75 481.914062 L 51.25 481.914062 L 51.25 484.414062 L 48.75 484.414062 Z M 48.75 481.914062 "/>
<path fill-rule="nonzero" fill="rgb(98.431373%, 60.392157%, 60%)" fill-opacity="1" stroke-width="1" stroke-linecap="butt" stroke-linejoin="miter" stroke="rgb(98.431373%, 60.392157%, 60%)" stroke-opacity="1" stroke-miterlimit="10" d="M 64.460938 475.074219 C 64.460938 476.074219 62.960938 476.074219 62.960938 475.074219 C 62.960938 474.074219 64.460938 474.074219 64.460938 475.074219 "/>
<path fill-rule="nonzero" fill="rgb(98.431373%, 60.392157%, 60%)" fill-opacity="1" stroke-width="1" stroke-linecap="butt" stroke-linejoin="miter" stroke="rgb(98.431373%, 60.392157%, 60%)" stroke-opacity="1" stroke-miterlimit="10" d="M 127.929688 455.683594 C 127.929688 456.683594 126.429688 456.683594 126.429688 455.683594 C 126.429688 454.683594 127.929688 454.683594 127.929688 455.683594 "/>
<path fill-rule="nonzero" fill="rgb(12.156863%, 47.058824%, 70.588235%)" fill-opacity="1" stroke-width="1" stroke-linecap="butt" stroke-linejoin="miter" stroke="rgb(12.156863%, 47.058824%, 70.588235%)" stroke-opacity="1" stroke-miterlimit="10" d="M 72.300781 63.710938 C 72.300781 64.710938 70.800781 64.710938 70.800781 63.710938 C 70.800781 62.710938 72.300781 62.710938 72.300781 63.710938 "/>
<path fill-rule="nonzero" fill="rgb(12.156863%, 47.058824%, 70.588235%)" fill-opacity="1" stroke-width="1" stroke-linecap="butt" stroke-linejoin="miter" stroke="rgb(12.156863%, 47.058824%, 70.588235%)" stroke-opacity="1" stroke-miterlimit="10" d="M 73.945312 60.527344 C 73.945312 61.527344 72.445312 61.527344 72.445312 60.527344 C 72.445312 59.527344 73.945312 59.527344 73.945312 60.527344 "/>
<path fill-rule="nonzero" fill="rgb(12.156863%, 47.058824%, 70.588235%)" fill-opacity="1" stroke-width="1" stroke-linecap="butt" stroke-linejoin="miter" stroke="rgb(12.156863%, 47.058824%, 70.588235%)" stroke-opacity="1" stroke-miterlimit="10" d="M 64.515625 53.398438 C 64.515625 54.398438 63.015625 54.398438 63.015625 53.398438 C 63.015625 52.398438 64.515625 52.398438 64.515625 53.398438 "/>
<path fill-rule="nonzero" fill="rgb(14.901961%, 14.901961%, 14.901961%)" fill-opacity="1" stroke-width="1" stroke-linecap="butt" stroke-linejoin="miter" stroke="rgb(14.901961%, 14.901961%, 14.901961%)" stroke-opacity="1" stroke-miterlimit="10" d="M 57.167969 51.75 L 58.917969 48.25 L 60.667969 51.75 Z M 57.167969 51.75 "/>
<path fill-rule="nonzero" fill="rgb(12.156863%, 47.058824%, 70.588235%)" fill-opacity="1" stroke-width="1" stroke-linecap="butt" stroke-linejoin="miter" stroke="rgb(12.156863%, 47.058824%, 70.588235%)" stroke-opacity="1" stroke-miterlimit="10" d="M 62.199219 50.894531 C 62.199219 51.894531 60.699219 51.894531 60.699219 50.894531 C 60.699219 49.894531 62.199219 49.894531 62.199219 50.894531 "/>
<path fill-rule="nonzero" fill="rgb(12.156863%, 47.058824%, 70.588235%)" fill-opacity="1" stroke-width="1" stroke-linecap="butt" stroke-linejoin="miter" stroke="rgb(12.156863%, 47.058824%, 70.588235%)" stroke-opacity="1" stroke-miterlimit="10" d="M 67.96875 56.160156 C 67.96875 57.160156 66.46875 57.160156 66.46875 56.160156 C 66.46875 55.160156 67.96875 55.160156 67.96875 56.160156 "/>
<path fill-rule="nonzero" fill="rgb(12.156863%, 47.058824%, 70.588235%)" fill-opacity="1" stroke-width="1" stroke-linecap="butt" stroke-linejoin="miter" stroke="rgb(12.156863%, 47.058824%, 70.588235%)" stroke-opacity="1" stroke-miterlimit="10" d="M 69.398438 58.179688 C 69.398438 59.179688 67.898438 59.179688 67.898438 58.179688 C 67.898438 57.179688 69.398438 57.179688 69.398438 58.179688 "/>
<path fill-rule="nonzero" fill="rgb(12.156863%, 47.058824%, 70.588235%)" fill-opacity="1" stroke-width="1" stroke-linecap="butt" stroke-linejoin="miter" stroke="rgb(12.156863%, 47.058824%, 70.588235%)" stroke-opacity="1" stroke-miterlimit="10" d="M 71.742188 60.71875 C 71.742188 61.71875 70.242188 61.71875 70.242188 60.71875 C 70.242188 59.71875 71.742188 59.71875 71.742188 60.71875 "/>
<path fill-rule="nonzero" fill="rgb(100%, 84.313725%, 0%)" fill-opacity="1" stroke-width="1" stroke-linecap="butt" stroke-linejoin="miter" stroke="rgb(100%, 84.313725%, 0%)" stroke-opacity="1" stroke-miterlimit="10" d="M 71.269531 62.476562 L 73.769531 62.476562 L 73.769531 64.976562 L 71.269531 64.976562 Z M 71.269531 62.476562 "/>
</svg>
