<?xml version="1.0" encoding="UTF-8"?>
<svg xmlns="http://www.w3.org/2000/svg" xmlns:xlink="http://www.w3.org/1999/xlink" width="800" height="800" viewBox="0 0 800 800">
<rect x="-80" y="-80" width="960" height="960" fill="rgb(100%, 100%, 100%)" fill-opacity="1"/>
<path fill="none" stroke-width="1.5" stroke-linecap="butt" stroke-linejoin="miter" stroke="rgb(99.215686%, 74.901961%, 43.529412%)" stroke-opacity="1" stroke-miterlimit="10" d="M 574.417969 150.789062 C 572.742188 150.847656 571.558594 152.601562 570.304688 152.816406 "/>
<path fill-rule="nonzero" fill="rgb(99.215686%, 74.901961%, 43.529412%)" fill-opacity="1" d="M 577.335938 151.601562 L 570.699219 155.101562 L 569.910156 150.53125 L 577.335938 151.601562 "/>
<path fill="none" stroke-width="1.5" stroke-linecap="butt" stroke-linejoin="miter" stroke="rgb(99.215686%, 74.901961%, 43.529412%)" stroke-opacity="1" stroke-miterlimit="10" d="M 587.234375 150.164062 C 589.601562 149.445312 590.621094 147.132812 592.335938 145.707031 "/>
<path fill-rule="nonzero" fill="rgb(99.215686%, 74.901961%, 43.529412%)" fill-opacity="1" d="M 586.851562 150.265625 L 590.855469 143.925781 L 593.816406 147.492188 L 586.851562 150.265625 "/>
<path fill="none" stroke-width="1.5" stroke-linecap="butt" stroke-linejoin="miter" stroke="rgb(99.215686%, 74.901961%, 43.529412%)" stroke-opacity="1" stroke-miterlimit="10" d="M 588.230469 144.9375 C 588.027344 147.558594 589.839844 149.445312 590.65625 151.703125 "/>
<path fill-rule="nonzero" fill="rgb(99.215686%, 74.901961%, 43.529412%)" fill-opacity="1" d="M 588.226562 144.996094 L 592.835938 150.914062 L 588.476562 152.492188 L 588.226562 144.996094 "/>
<path fill="none" stroke-width="1.5" stroke-linecap="butt" stroke-linejoin="miter" stroke="rgb(99.215686%, 74.901961%, 43.529412%)" stroke-opacity="1" stroke-miterlimit="10" d="M 585.019531 147.683594 C 583.222656 148.796875 582.964844 151.09375 581.785156 152.476562 "/>
<path fill-rule="nonzero" fill="rgb(99.215686%, 74.901961%, 43.529412%)" fill-opacity="1" d="M 586.421875 147.054688 L 583.546875 153.980469 L 580.023438 150.96875 L 586.421875 147.054688 "/>
<path fill="none" stroke-width="1.5" stroke-linecap="butt" stroke-linejoin="miter" stroke="rgb(99.215686%, 74.901961%, 43.529412%)" stroke-opacity="1" stroke-miterlimit="10" d="M 584.730469 152.027344 C 584.320312 154.058594 585.816406 155.796875 585.988281 157.558594 "/>
<path fill-rule="nonzero" fill="rgb(99.215686%, 74.901961%, 43.529412%)" fill-opacity="1" d="M 585.292969 150.460938 L 588.296875 157.332031 L 583.683594 157.785156 L 585.292969 150.460938 "/>
<path fill="none" stroke-width="1.5" stroke-linecap="butt" stroke-linejoin="miter" stroke="rgb(99.215686%, 74.901961%, 43.529412%)" stroke-opacity="1" stroke-miterlimit="10" d="M 580.117188 151.125 C 578.984375 151.804688 578.730469 153.808594 578.054688 154.097656 "/>
<path fill-rule="nonzero" fill="rgb(99.215686%, 74.901961%, 43.529412%)" fill-opacity="1" d="M 584.609375 151.289062 L 578.964844 156.226562 L 577.140625 151.96875 L 584.609375 151.289062 "/>
<path fill="none" stroke-width="1.5" stroke-linecap="butt" stroke-linejoin="miter" stroke="rgb(12.156863%, 47.058824%, 70.588235%)" stroke-opacity="1" stroke-miterlimit="10" d="M 738.664062 743.0625 C 737.695312 741.222656 735.4375 740.816406 734.183594 739.558594 "/>
<path fill-rule="nonzero" fill="rgb(12.156863%, 47.058824%, 70.588235%)" fill-opacity="1" d="M 739.21875 744.609375 L 732.542969 741.195312 L 735.824219 737.921875 L 739.21875 744.609375 "/>
<path fill="none" stroke-width="1.5" stroke-linecap="butt" stroke-linejoin="miter" stroke="rgb(98.431373%, 60.392157%, 60%)" stroke-opacity="1" stroke-miterlimit="10" d="M 127.214844 516.128906 C 123.734375 516.550781 121.671875 519.109375 119.003906 521.082031 "/>
<path fill-rule="nonzero" fill="rgb(98.431373%, 60.392157%, 60%)" fill-opacity="1" d="M 124.738281 516.84375 L 120.378906 522.945312 L 117.625 519.21875 L 124.738281 516.84375 "/>
<path fill="none" stroke-width="1.5" stroke-linecap="butt" stroke-linejoin="miter" stroke="rgb(41.568627%, 23.921569%, 60.392157%)" stroke-opacity="1" stroke-miterlimit="10" d="M 129.214844 513.539062 C 138.515625 498.773438 141.789062 482.628906 135.847656 466.265625 "/>
<path fill-rule="nonzero" fill="rgb(41.568627%, 23.921569%, 60.392157%)" fill-opacity="1" d="M 133.410156 459.558594 L 138.023438 465.472656 L 133.667969 467.054688 L 133.410156 459.558594 "/>
<path fill="none" stroke-width="1.5" stroke-linecap="butt" stroke-linejoin="miter" stroke="rgb(98.431373%, 60.392157%, 60%)" stroke-opacity="1" stroke-miterlimit="10" d="M 129.214844 513.539062 C 120.859375 519.089844 114.859375 526.804688 114.609375 536.765625 "/>
<path fill-rule="nonzero" fill="rgb(98.431373%, 60.392157%, 60%)" fill-opacity="1" d="M 114.429688 543.898438 L 112.292969 536.707031 L 116.925781 536.824219 L 114.429688 543.898438 "/>
<path fill="none" stroke-width="1.5" stroke-linecap="butt" stroke-linejoin="miter" stroke="rgb(41.568627%, 23.921569%, 60.392157%)" stroke-opacity="1" stroke-miterlimit="10" d="M 135.527344 400.304688 C 144.828125 385.65625 148.152344 369.613281 142.292969 353.316406 "/>
<path fill-rule="nonzero" fill="rgb(41.568627%, 23.921569%, 60.392157%)" fill-opacity="1" d="M 139.882812 346.605469 L 144.476562 352.535156 L 140.113281 354.101562 L 139.882812 346.605469 "/>
<path fill="none" stroke-width="1.5" stroke-linecap="butt" stroke-linejoin="miter" stroke="rgb(41.568627%, 23.921569%, 60.392157%)" stroke-opacity="1" stroke-miterlimit="10" d="M 138.996094 344.140625 C 147.921875 330.464844 151.292969 315.378906 145.910156 300.003906 "/>
<path fill-rule="nonzero" fill="rgb(41.568627%, 23.921569%, 60.392157%)" fill-opacity="1" d="M 143.550781 293.273438 L 148.097656 299.238281 L 143.722656 300.769531 L 143.550781 293.273438 "/>
<path fill="none" stroke-width="1.5" stroke-linecap="butt" stroke-linejoin="miter" stroke="rgb(12.156863%, 47.058824%, 70.588235%)" stroke-opacity="1" stroke-miterlimit="10" d="M 736.898438 750 C 735.316406 750.96875 735.117188 753.144531 734.035156 754.191406 "/>
<path fill-rule="nonzero" fill="rgb(12.156863%, 47.058824%, 70.588235%)" fill-opacity="1" d="M 739.164062 749.234375 L 735.644531 755.855469 L 732.425781 752.523438 L 739.164062 749.234375 "/>
<path fill="none" stroke-width="1.5" stroke-linecap="butt" stroke-linejoin="miter" stroke="rgb(41.568627%, 23.921569%, 60.392157%)" stroke-opacity="1" stroke-miterlimit="10" d="M 132.515625 457.097656 C 141.792969 442.171875 144.984375 425.898438 138.90625 409.453125 "/>
<path fill-rule="nonzero" fill="rgb(41.568627%, 23.921569%, 60.392157%)" fill-opacity="1" d="M 136.433594 402.761719 L 141.082031 408.648438 L 136.734375 410.253906 L 136.433594 402.761719 "/>
<path fill="none" stroke-width="1.5" stroke-linecap="butt" stroke-linejoin="miter" stroke="rgb(98.431373%, 60.392157%, 60%)" stroke-opacity="1" stroke-miterlimit="10" d="M 75.496094 627.195312 C 70.722656 628.828125 66.253906 631.785156 65.421875 636.632812 "/>
<path fill-rule="nonzero" fill="rgb(98.431373%, 60.392157%, 60%)" fill-opacity="1" d="M 64.214844 643.664062 L 63.140625 636.242188 L 67.707031 637.023438 L 64.214844 643.664062 "/>
<path fill="none" stroke-width="1.5" stroke-linecap="butt" stroke-linejoin="miter" stroke="rgb(41.568627%, 23.921569%, 60.392157%)" stroke-opacity="1" stroke-miterlimit="10" d="M 150.1875 189.214844 C 158.515625 177.558594 162.15625 164.414062 157.878906 150.789062 "/>
<path fill-rule="nonzero" fill="rgb(41.568627%, 23.921569%, 60.392157%)" fill-opacity="1" d="M 155.742188 143.984375 L 160.089844 150.09375 L 155.667969 151.484375 L 155.742188 143.984375 "/>
<path fill="none" stroke-width="1.5" stroke-linecap="butt" stroke-linejoin="miter" stroke="rgb(12.156863%, 47.058824%, 70.588235%)" stroke-opacity="1" stroke-miterlimit="10" d="M 741.539062 746.933594 C 742.90625 745.894531 742.863281 743.765625 743.78125 742.808594 "/>
<path fill-rule="nonzero" fill="rgb(12.156863%, 47.058824%, 70.588235%)" fill-opacity="1" d="M 738.847656 747.960938 L 742.105469 741.207031 L 745.453125 744.414062 L 738.847656 747.960938 "/>
<path fill="none" stroke-width="1.5" stroke-linecap="butt" stroke-linejoin="miter" stroke="rgb(12.156863%, 47.058824%, 70.588235%)" stroke-opacity="1" stroke-miterlimit="10" d="M 741.539062 746.933594 C 739.617188 745.957031 737.496094 746.929688 735.648438 746.652344 "/>
<path fill-rule="nonzero" fill="rgb(12.156863%, 47.058824%, 70.588235%)" fill-opacity="1" d="M 742.703125 747.710938 L 735.304688 748.945312 L 735.992188 744.359375 L 742.703125 747.710938 "/>
<path fill="none" stroke-width="1.5" stroke-linecap="butt" stroke-linejoin="miter" stroke="rgb(98.431373%, 60.392157%, 60%)" stroke-opacity="1" stroke-miterlimit="10" d="M 100.90625 577.65625 C 93.316406 582.476562 87.679688 589.28125 87.386719 598.191406 "/>
<path fill-rule="nonzero" fill="rgb(98.431373%, 60.392157%, 60%)" fill-opacity="1" d="M 87.148438 605.320312 L 85.070312 598.117188 L 89.703125 598.269531 L 87.148438 605.320312 "/>
<path fill="none" stroke-width="1.5" stroke-linecap="butt" stroke-linejoin="miter" stroke="rgb(41.568627%, 23.921569%, 60.392157%)" stroke-opacity="1" stroke-miterlimit="10" d="M 154.957031 141.488281 C 162.171875 132.085938 165.738281 121.25 162.40625 109.933594 "/>
<path fill-rule="nonzero" fill="rgb(41.568627%, 23.921569%, 60.392157%)" fill-opacity="1" d="M 160.390625 103.09375 L 164.628906 109.28125 L 160.183594 110.589844 L 160.390625 103.09375 "/>
<path fill="none" stroke-width="1.5" stroke-linecap="butt" stroke-linejoin="miter" stroke="rgb(30.196078%, 68.627451%, 29.019608%)" stroke-opacity="1" stroke-miterlimit="10" d="M 151.382812 545.292969 C 150.675781 547.46875 150.335938 550.511719 152.058594 551.515625 "/>
<path fill-rule="nonzero" fill="rgb(30.196078%, 68.627451%, 29.019608%)" fill-opacity="1" d="M 158.21875 555.113281 L 150.890625 553.515625 L 153.226562 549.515625 L 158.21875 555.113281 "/>
<path fill="none" stroke-width="1.5" stroke-linecap="butt" stroke-linejoin="miter" stroke="rgb(30.196078%, 68.627451%, 29.019608%)" stroke-opacity="1" stroke-miterlimit="10" d="M 160.589844 556.5 C 159.234375 555.949219 157.484375 557.015625 156.589844 556.648438 "/>
<path fill-rule="nonzero" fill="rgb(30.196078%, 68.627451%, 29.019608%)" fill-opacity="1" d="M 163.191406 559.347656 L 155.710938 558.792969 L 157.464844 554.503906 L 163.191406 559.347656 "/>
<path fill="none" stroke-width="1.5" stroke-linecap="butt" stroke-linejoin="miter" stroke="rgb(98.431373%, 60.392157%, 60%)" stroke-opacity="1" stroke-miterlimit="10" d="M 52.75 662.472656 C 53.964844 660.875 53.371094 658.695312 53.992188 657.121094 "/>
<path fill-rule="nonzero" fill="rgb(98.431373%, 60.392157%, 60%)" fill-opacity="1" d="M 51.382812 663.761719 L 51.832031 656.273438 L 56.148438 657.96875 L 51.382812 663.761719 "/>
<path fill="none" stroke-width="1.5" stroke-linecap="butt" stroke-linejoin="miter" stroke="rgb(98.431373%, 60.392157%, 60%)" stroke-opacity="1" stroke-miterlimit="10" d="M 87.058594 608.113281 C 82.351562 609.726562 77.933594 612.644531 77.132812 617.421875 "/>
<path fill-rule="nonzero" fill="rgb(98.431373%, 60.392157%, 60%)" fill-opacity="1" d="M 75.957031 624.457031 L 74.847656 617.039062 L 79.417969 617.804688 L 75.957031 624.457031 "/>
<path fill="none" stroke-width="1.5" stroke-linecap="butt" stroke-linejoin="miter" stroke="rgb(41.568627%, 23.921569%, 60.392157%)" stroke-opacity="1" stroke-miterlimit="10" d="M 159.652344 100.585938 C 163.542969 95.144531 165.792969 88.726562 163.253906 82.648438 "/>
<path fill-rule="nonzero" fill="rgb(41.568627%, 23.921569%, 60.392157%)" fill-opacity="1" d="M 160.503906 76.066406 L 165.394531 81.753906 L 161.117188 83.539062 L 160.503906 76.066406 "/>
<path fill="none" stroke-width="1.5" stroke-linecap="butt" stroke-linejoin="miter" stroke="rgb(41.568627%, 23.921569%, 60.392157%)" stroke-opacity="1" stroke-miterlimit="10" d="M 162.210938 58.339844 C 162.957031 59.472656 164.972656 59.628906 165.335938 60.328125 "/>
<path fill-rule="nonzero" fill="rgb(41.568627%, 23.921569%, 60.392157%)" fill-opacity="1" d="M 162.050781 53.996094 L 167.394531 59.257812 L 163.28125 61.394531 L 162.050781 53.996094 "/>
<path fill="none" stroke-width="1.5" stroke-linecap="butt" stroke-linejoin="miter" stroke="rgb(41.568627%, 23.921569%, 60.392157%)" stroke-opacity="1" stroke-miterlimit="10" d="M 160.738281 51.464844 C 162.5625 52.28125 164.546875 51.207031 166.210938 51.449219 "/>
<path fill-rule="nonzero" fill="rgb(41.568627%, 23.921569%, 60.392157%)" fill-opacity="1" d="M 159.152344 50.410156 L 166.546875 49.160156 L 165.871094 53.742188 L 159.152344 50.410156 "/>
<path fill="none" stroke-width="1.5" stroke-linecap="butt" stroke-linejoin="miter" stroke="rgb(41.568627%, 23.921569%, 60.392157%)" stroke-opacity="1" stroke-miterlimit="10" d="M 156.390625 50 C 155.402344 49.46875 153.386719 49.886719 153.335938 49.777344 "/>
<path fill-rule="nonzero" fill="rgb(41.568627%, 23.921569%, 60.392157%)" fill-opacity="1" d="M 156.488281 56.175781 L 151.253906 50.804688 L 155.414062 48.753906 L 156.488281 56.175781 "/>
<path fill="none" stroke-width="1.5" stroke-linecap="butt" stroke-linejoin="miter" stroke="rgb(12.156863%, 47.058824%, 70.588235%)" stroke-opacity="1" stroke-miterlimit="10" d="M 747.449219 742.859375 C 747.046875 744.460938 748.398438 746.074219 748.246094 747.300781 "/>
<path fill-rule="nonzero" fill="rgb(12.156863%, 47.058824%, 70.588235%)" fill-opacity="1" d="M 749.128906 740.222656 L 750.542969 747.589844 L 745.945312 747.015625 L 749.128906 740.222656 "/>
<path fill="none" stroke-width="1.5" stroke-linecap="butt" stroke-linejoin="miter" stroke="rgb(30.196078%, 68.627451%, 29.019608%)" stroke-opacity="1" stroke-miterlimit="10" d="M 169.027344 562.777344 C 169.019531 566.125 171.253906 568.375 172.769531 571.140625 "/>
<path fill-rule="nonzero" fill="rgb(30.196078%, 68.627451%, 29.019608%)" fill-opacity="1" d="M 169.34375 564.882812 L 174.800781 570.027344 L 170.738281 572.253906 L 169.34375 564.882812 "/>
<path fill="none" stroke-width="1.5" stroke-linecap="butt" stroke-linejoin="miter" stroke="rgb(41.568627%, 23.921569%, 60.392157%)" stroke-opacity="1" stroke-miterlimit="10" d="M 158.433594 60.117188 C 156.875 60.761719 154.785156 62.308594 155.269531 63.472656 "/>
<path fill-rule="nonzero" fill="rgb(41.568627%, 23.921569%, 60.392157%)" fill-opacity="1" d="M 158.003906 70.0625 L 153.128906 64.363281 L 157.410156 62.585938 L 158.003906 70.0625 "/>
<path fill="none" stroke-width="1.5" stroke-linecap="butt" stroke-linejoin="miter" stroke="rgb(41.568627%, 23.921569%, 60.392157%)" stroke-opacity="1" stroke-miterlimit="10" d="M 140.851562 533.449219 C 141.917969 529.175781 141.953125 524.335938 138.710938 521.589844 "/>
<path fill-rule="nonzero" fill="rgb(41.568627%, 23.921569%, 60.392157%)" fill-opacity="1" d="M 133.269531 516.976562 L 140.210938 519.820312 L 137.210938 523.355469 L 133.269531 516.976562 "/>
<path fill="none" stroke-width="1.5" stroke-linecap="butt" stroke-linejoin="miter" stroke="rgb(30.196078%, 68.627451%, 29.019608%)" stroke-opacity="1" stroke-miterlimit="10" d="M 140.851562 533.449219 C 140.359375 536.132812 140.429688 539.539062 142.632812 540.695312 "/>
<path fill-rule="nonzero" fill="rgb(30.196078%, 68.627451%, 29.019608%)" fill-opacity="1" d="M 148.945312 544.011719 L 141.554688 542.746094 L 143.707031 538.644531 L 148.945312 544.011719 "/>
<path fill="none" stroke-width="1.5" stroke-linecap="butt" stroke-linejoin="miter" stroke="rgb(30.196078%, 68.627451%, 29.019608%)" stroke-opacity="1" stroke-miterlimit="10" d="M 140.851562 533.449219 C 141.132812 531.554688 139.574219 529.976562 139.421875 528.40625 "/>
<path fill-rule="nonzero" fill="rgb(30.196078%, 68.627451%, 29.019608%)" fill-opacity="1" d="M 140.113281 535.503906 L 137.113281 528.632812 L 141.730469 528.183594 L 140.113281 535.503906 "/>
<path fill="none" stroke-width="1.5" stroke-linecap="butt" stroke-linejoin="miter" stroke="rgb(30.196078%, 68.627451%, 29.019608%)" stroke-opacity="1" stroke-miterlimit="10" d="M 140.851562 533.449219 C 138.765625 532.519531 136.613281 533.597656 134.601562 533.46875 "/>
<path fill-rule="nonzero" fill="rgb(30.196078%, 68.627451%, 29.019608%)" fill-opacity="1" d="M 141.71875 533.921875 L 134.453125 535.78125 L 134.746094 531.15625 L 141.71875 533.921875 "/>
<path fill="none" stroke-width="1.5" stroke-linecap="butt" stroke-linejoin="miter" stroke="rgb(30.196078%, 68.627451%, 29.019608%)" stroke-opacity="1" stroke-miterlimit="10" d="M 140.386719 538.292969 C 138.253906 540.675781 138.425781 543.703125 137.734375 546.628906 "/>
<path fill-rule="nonzero" fill="rgb(30.196078%, 68.627451%, 29.019608%)" fill-opacity="1" d="M 139.378906 539.6875 L 139.992188 547.160156 L 135.480469 546.09375 L 139.378906 539.6875 "/>
<path fill="none" stroke-width="1.5" stroke-linecap="butt" stroke-linejoin="miter" stroke="rgb(30.196078%, 68.627451%, 29.019608%)" stroke-opacity="1" stroke-miterlimit="10" d="M 144.480469 534.097656 C 146.632812 535.570312 149.160156 534.9375 151.5 535.355469 "/>
<path fill-rule="nonzero" fill="rgb(30.196078%, 68.627451%, 29.019608%)" fill-opacity="1" d="M 144.480469 534.097656 L 151.910156 533.074219 L 151.09375 537.636719 L 144.480469 534.097656 "/>
<path fill="none" stroke-width="1.5" stroke-linecap="butt" stroke-linejoin="miter" stroke="rgb(30.196078%, 68.627451%, 29.019608%)" stroke-opacity="1" stroke-miterlimit="10" d="M 167.210938 560.992188 C 166.363281 558.445312 163.925781 557.382812 162.234375 555.59375 "/>
<path fill-rule="nonzero" fill="rgb(30.196078%, 68.627451%, 29.019608%)" fill-opacity="1" d="M 167.136719 560.777344 L 160.550781 557.1875 L 163.921875 554 L 167.136719 560.777344 "/>
<path fill="none" stroke-width="1.5" stroke-linecap="butt" stroke-linejoin="miter" stroke="rgb(41.568627%, 23.921569%, 60.392157%)" stroke-opacity="1" stroke-miterlimit="10" d="M 146.148438 239.539062 C 154.695312 226.917969 158.152344 212.863281 153.300781 198.457031 "/>
<path fill-rule="nonzero" fill="rgb(41.568627%, 23.921569%, 60.392157%)" fill-opacity="1" d="M 151.023438 191.695312 L 155.496094 197.714844 L 151.105469 199.195312 L 151.023438 191.695312 "/>
<path fill="none" stroke-width="1.5" stroke-linecap="butt" stroke-linejoin="miter" stroke="rgb(41.568627%, 23.921569%, 60.392157%)" stroke-opacity="1" stroke-miterlimit="10" d="M 159.238281 73.035156 C 161.488281 72.070312 164.097656 70.25 163.757812 68.101562 "/>
<path fill-rule="nonzero" fill="rgb(41.568627%, 23.921569%, 60.392157%)" fill-opacity="1" d="M 162.644531 61.058594 L 166.046875 67.742188 L 161.46875 68.464844 L 162.644531 61.058594 "/>
<path fill="none" stroke-width="1.5" stroke-linecap="butt" stroke-linejoin="miter" stroke="rgb(41.568627%, 23.921569%, 60.392157%)" stroke-opacity="1" stroke-miterlimit="10" d="M 159.238281 73.035156 C 160.625 72.832031 162.757812 71.746094 162.464844 70.964844 "/>
<path fill-rule="nonzero" fill="rgb(41.568627%, 23.921569%, 60.392157%)" fill-opacity="1" d="M 159.980469 64.28125 L 164.636719 70.160156 L 160.292969 71.773438 L 159.980469 64.28125 "/>
<path fill="none" stroke-width="1.5" stroke-linecap="butt" stroke-linejoin="miter" stroke="rgb(41.568627%, 23.921569%, 60.392157%)" stroke-opacity="1" stroke-miterlimit="10" d="M 142.6875 290.800781 C 151.226562 277.785156 154.523438 263.390625 149.378906 248.742188 "/>
<path fill-rule="nonzero" fill="rgb(41.568627%, 23.921569%, 60.392157%)" fill-opacity="1" d="M 147.015625 242.011719 L 151.566406 247.972656 L 147.191406 249.507812 L 147.015625 242.011719 "/>
<path fill="none" stroke-width="1.5" stroke-linecap="butt" stroke-linejoin="miter" stroke="rgb(98.431373%, 60.392157%, 60%)" stroke-opacity="1" stroke-miterlimit="10" d="M 114.359375 546.691406 C 106.769531 551.710938 101.207031 558.707031 101.0625 567.734375 "/>
<path fill-rule="nonzero" fill="rgb(98.431373%, 60.392157%, 60%)" fill-opacity="1" d="M 100.949219 574.867188 L 98.746094 567.699219 L 103.378906 567.769531 L 100.949219 574.867188 "/>
<path fill="none" stroke-width="1.5" stroke-linecap="butt" stroke-linejoin="miter" stroke="rgb(98.431373%, 60.392157%, 60%)" stroke-opacity="1" stroke-miterlimit="10" d="M 63.746094 646.398438 C 59.863281 647.226562 55.847656 649.117188 54.984375 652.828125 "/>
<path fill-rule="nonzero" fill="rgb(98.431373%, 60.392157%, 60%)" fill-opacity="1" d="M 53.375 659.777344 L 52.726562 652.304688 L 57.242188 653.351562 L 53.375 659.777344 "/>
<path fill="none" stroke-width="1.5" stroke-linecap="butt" stroke-linejoin="miter" stroke="rgb(12.156863%, 47.058824%, 70.588235%)" stroke-opacity="1" stroke-miterlimit="10" d="M 745.453125 748.125 C 744.976562 749.753906 746.273438 751.433594 746.097656 752.722656 "/>
<path fill-rule="nonzero" fill="rgb(12.156863%, 47.058824%, 70.588235%)" fill-opacity="1" d="M 747.066406 745.65625 L 748.390625 753.039062 L 743.800781 752.40625 L 747.066406 745.65625 "/>
<path fill="none" stroke-width="1.5" stroke-linecap="butt" stroke-linejoin="miter" stroke="rgb(12.156863%, 47.058824%, 70.588235%)" stroke-opacity="1" stroke-miterlimit="10" d="M 749.476562 737.417969 C 748.761719 739.496094 750.019531 741.492188 750.023438 743.410156 "/>
<path fill-rule="nonzero" fill="rgb(12.156863%, 47.058824%, 70.588235%)" fill-opacity="1" d="M 750.007812 736.277344 L 752.34375 743.402344 L 747.707031 743.414062 L 750.007812 736.277344 "/>
<path fill-rule="nonzero" fill="rgb(100%, 84.313725%, 0%)" fill-opacity="1" stroke-width="1" stroke-linecap="butt" stroke-linejoin="miter" stroke="rgb(100%, 84.313725%, 0%)" stroke-opacity="1" stroke-miterlimit="10" d="M 571.167969 147.539062 L 577.667969 147.539062 L 577.667969 154.039062 L 571.167969 154.039062 Z M 571.167969 147.539062 "/>
<path fill-rule="nonzero" fill="rgb(99.215686%, 74.901961%, 43.529412%)" fill-opacity="1" stroke-width="1" stroke-linecap="butt" stroke-linejoin="miter" stroke="rgb(99.215686%, 74.901961%, 43.529412%)" stroke-opacity="1" stroke-miterlimit="10" d="M 589.984375 150.164062 C 589.984375 153.828125 584.484375 153.828125 584.484375 150.164062 C 584.484375 146.496094 589.984375 146.496094 589.984375 150.164062 "/>
<path fill-rule="nonzero" fill="rgb(14.901961%, 14.901961%, 14.901961%)" fill-opacity="1" stroke-width="1" stroke-linecap="butt" stroke-linejoin="miter" stroke="rgb(14.901961%, 14.901961%, 14.901961%)" stroke-opacity="1" stroke-miterlimit="10" d="M 583.203125 145.21875 L 586.953125 137.71875 L 590.703125 145.21875 Z M 583.203125 145.21875 "/>
<path fill-rule="nonzero" fill="rgb(99.215686%, 74.901961%, 43.529412%)" fill-opacity="1" stroke-width="1" stroke-linecap="butt" stroke-linejoin="miter" stroke="rgb(99.215686%, 74.901961%, 43.529412%)" stroke-opacity="1" stroke-miterlimit="10" d="M 590.980469 144.9375 C 590.980469 148.605469 585.480469 148.605469 585.480469 144.9375 C 585.480469 141.273438 590.980469 141.273438 590.980469 144.9375 "/>
<path fill-rule="nonzero" fill="rgb(99.215686%, 74.901961%, 43.529412%)" fill-opacity="1" stroke-width="1" stroke-linecap="butt" stroke-linejoin="miter" stroke="rgb(99.215686%, 74.901961%, 43.529412%)" stroke-opacity="1" stroke-miterlimit="10" d="M 587.769531 147.683594 C 587.769531 151.351562 582.269531 151.351562 582.269531 147.683594 C 582.269531 144.019531 587.769531 144.019531 587.769531 147.683594 "/>
<path fill-rule="nonzero" fill="rgb(99.215686%, 74.901961%, 43.529412%)" fill-opacity="1" stroke-width="1" stroke-linecap="butt" stroke-linejoin="miter" stroke="rgb(99.215686%, 74.901961%, 43.529412%)" stroke-opacity="1" stroke-miterlimit="10" d="M 587.480469 152.027344 C 587.480469 155.691406 581.980469 155.691406 581.980469 152.027344 C 581.980469 148.359375 587.480469 148.359375 587.480469 152.027344 "/>
<path fill-rule="nonzero" fill="rgb(99.215686%, 74.901961%, 43.529412%)" fill-opacity="1" stroke-width="1" stroke-linecap="butt" stroke-linejoin="miter" stroke="rgb(99.215686%, 74.901961%, 43.529412%)" stroke-opacity="1" stroke-miterlimit="10" d="M 582.867188 151.125 C 582.867188 154.789062 577.367188 154.789062 577.367188 151.125 C 577.367188 147.457031 582.867188 147.457031 582.867188 151.125 "/>
<path fill-rule="nonzero" fill="rgb(100%, 84.313725%, 0%)" fill-opacity="1" stroke-width="1" stroke-linecap="butt" stroke-linejoin="miter" stroke="rgb(100%, 84.313725%, 0%)" stroke-opacity="1" stroke-miterlimit="10" d="M 735.414062 739.8125 L 741.914062 739.8125 L 741.914062 746.3125 L 735.414062 746.3125 Z M 735.414062 739.8125 "/>
<path fill-rule="nonzero" fill="rgb(100%, 84.313725%, 0%)" fill-opacity="1" stroke-width="1" stroke-linecap="butt" stroke-linejoin="miter" stroke="rgb(100%, 84.313725%, 0%)" stroke-opacity="1" stroke-miterlimit="10" d="M 123.964844 512.878906 L 130.464844 512.878906 L 130.464844 519.378906 L 123.964844 519.378906 Z M 123.964844 512.878906 "/>
<path fill-rule="nonzero" fill="rgb(70.196078%, 70.196078%, 70.196078%)" fill-opacity="1" stroke-width="1" stroke-linecap="butt" stroke-linejoin="miter" stroke="rgb(70.196078%, 70.196078%, 70.196078%)" stroke-opacity="1" stroke-miterlimit="10" d="M 134.5625 513.539062 C 134.5625 520.671875 123.863281 520.671875 123.863281 513.539062 C 123.863281 506.402344 134.5625 506.402344 134.5625 513.539062 "/>
<path fill-rule="nonzero" fill="rgb(41.568627%, 23.921569%, 60.392157%)" fill-opacity="1" stroke-width="1" stroke-linecap="butt" stroke-linejoin="miter" stroke="rgb(41.568627%, 23.921569%, 60.392157%)" stroke-opacity="1" stroke-miterlimit="10" d="M 138.277344 400.304688 C 138.277344 403.96875 132.777344 403.96875 132.777344 400.304688 C 132.777344 396.636719 138.277344 396.636719 138.277344 400.304688 "/>
<path fill-rule="nonzero" fill="rgb(41.568627%, 23.921569%, 60.392157%)" fill-opacity="1" stroke-width="1" stroke-linecap="butt" stroke-linejoin="miter" stroke="rgb(41.568627%, 23.921569%, 60.392157%)" stroke-opacity="1" stroke-miterlimit="10" d="M 141.746094 344.140625 C 141.746094 347.804688 136.246094 347.804688 136.246094 344.140625 C 136.246094 340.472656 141.746094 340.472656 141.746094 344.140625 "/>
<path fill-rule="nonzero" fill="rgb(12.156863%, 47.058824%, 70.588235%)" fill-opacity="1" stroke-width="1" stroke-linecap="butt" stroke-linejoin="miter" stroke="rgb(12.156863%, 47.058824%, 70.588235%)" stroke-opacity="1" stroke-miterlimit="10" d="M 739.648438 750 C 739.648438 753.667969 734.148438 753.667969 734.148438 750 C 734.148438 746.332031 739.648438 746.332031 739.648438 750 "/>
<path fill-rule="nonzero" fill="rgb(41.568627%, 23.921569%, 60.392157%)" fill-opacity="1" stroke-width="1" stroke-linecap="butt" stroke-linejoin="miter" stroke="rgb(41.568627%, 23.921569%, 60.392157%)" stroke-opacity="1" stroke-miterlimit="10" d="M 135.265625 457.097656 C 135.265625 460.765625 129.765625 460.765625 129.765625 457.097656 C 129.765625 453.429688 135.265625 453.429688 135.265625 457.097656 "/>
<path fill-rule="nonzero" fill="rgb(98.431373%, 60.392157%, 60%)" fill-opacity="1" stroke-width="1" stroke-linecap="butt" stroke-linejoin="miter" stroke="rgb(98.431373%, 60.392157%, 60%)" stroke-opacity="1" stroke-miterlimit="10" d="M 78.246094 627.195312 C 78.246094 630.863281 72.746094 630.863281 72.746094 627.195312 C 72.746094 623.527344 78.246094 623.527344 78.246094 627.195312 "/>
<path fill-rule="nonzero" fill="rgb(41.568627%, 23.921569%, 60.392157%)" fill-opacity="1" stroke-width="1" stroke-linecap="butt" stroke-linejoin="miter" stroke="rgb(41.568627%, 23.921569%, 60.392157%)" stroke-opacity="1" stroke-miterlimit="10" d="M 152.9375 189.214844 C 152.9375 192.882812 147.4375 192.882812 147.4375 189.214844 C 147.4375 185.546875 152.9375 185.546875 152.9375 189.214844 "/>
<path fill-rule="nonzero" fill="rgb(12.156863%, 47.058824%, 70.588235%)" fill-opacity="1" stroke-width="1" stroke-linecap="butt" stroke-linejoin="miter" stroke="rgb(12.156863%, 47.058824%, 70.588235%)" stroke-opacity="1" stroke-miterlimit="10" d="M 744.789062 746.933594 C 744.789062 751.269531 738.289062 751.269531 738.289062 746.933594 C 738.289062 742.601562 744.789062 742.601562 744.789062 746.933594 "/>
<path fill-rule="nonzero" fill="rgb(98.431373%, 60.392157%, 60%)" fill-opacity="1" stroke-width="1" stroke-linecap="butt" stroke-linejoin="miter" stroke="rgb(98.431373%, 60.392157%, 60%)" stroke-opacity="1" stroke-miterlimit="10" d="M 103.65625 577.65625 C 103.65625 581.324219 98.15625 581.324219 98.15625 577.65625 C 98.15625 573.992188 103.65625 573.992188 103.65625 577.65625 "/>
<path fill-rule="nonzero" fill="rgb(41.568627%, 23.921569%, 60.392157%)" fill-opacity="1" stroke-width="1" stroke-linecap="butt" stroke-linejoin="miter" stroke="rgb(41.568627%, 23.921569%, 60.392157%)" stroke-opacity="1" stroke-miterlimit="10" d="M 157.707031 141.488281 C 157.707031 145.15625 152.207031 145.15625 152.207031 141.488281 C 152.207031 137.820312 157.707031 137.820312 157.707031 141.488281 "/>
<path fill-rule="nonzero" fill="rgb(30.196078%, 68.627451%, 29.019608%)" fill-opacity="1" stroke-width="1" stroke-linecap="butt" stroke-linejoin="miter" stroke="rgb(30.196078%, 68.627451%, 29.019608%)" stroke-opacity="1" stroke-miterlimit="10" d="M 154.132812 545.292969 C 154.132812 548.960938 148.632812 548.960938 148.632812 545.292969 C 148.632812 541.628906 154.132812 541.628906 154.132812 545.292969 "/>
<path fill-rule="nonzero" fill="rgb(30.196078%, 68.627451%, 29.019608%)" fill-opacity="1" stroke-width="1" stroke-linecap="butt" stroke-linejoin="miter" stroke="rgb(30.196078%, 68.627451%, 29.019608%)" stroke-opacity="1" stroke-miterlimit="10" d="M 163.339844 556.5 C 163.339844 560.167969 157.839844 560.167969 157.839844 556.5 C 157.839844 552.832031 163.339844 552.832031 163.339844 556.5 "/>
<path fill-rule="nonzero" fill="rgb(98.431373%, 60.392157%, 60%)" fill-opacity="1" stroke-width="1" stroke-linecap="butt" stroke-linejoin="miter" stroke="rgb(98.431373%, 60.392157%, 60%)" stroke-opacity="1" stroke-miterlimit="10" d="M 55.5 662.472656 C 55.5 666.140625 50 666.140625 50 662.472656 C 50 658.804688 55.5 658.804688 55.5 662.472656 "/>
<path fill-rule="nonzero" fill="rgb(98.431373%, 60.392157%, 60%)" fill-opacity="1" stroke-width="1" stroke-linecap="butt" stroke-linejoin="miter" stroke="rgb(98.431373%, 60.392157%, 60%)" stroke-opacity="1" stroke-miterlimit="10" d="M 89.808594 608.113281 C 89.808594 611.777344 84.308594 611.777344 84.308594 608.113281 C 84.308594 604.445312 89.808594 604.445312 89.808594 608.113281 "/>
<path fill-rule="nonzero" fill="rgb(41.568627%, 23.921569%, 60.392157%)" fill-opacity="1" stroke-width="1" stroke-linecap="butt" stroke-linejoin="miter" stroke="rgb(41.568627%, 23.921569%, 60.392157%)" stroke-opacity="1" stroke-miterlimit="10" d="M 162.402344 100.585938 C 162.402344 104.253906 156.902344 104.253906 156.902344 100.585938 C 156.902344 96.917969 162.402344 96.917969 162.402344 100.585938 "/>
<path fill-rule="nonzero" fill="rgb(41.568627%, 23.921569%, 60.392157%)" fill-opacity="1" stroke-width="1" stroke-linecap="butt" stroke-linejoin="miter" stroke="rgb(41.568627%, 23.921569%, 60.392157%)" stroke-opacity="1" stroke-miterlimit="10" d="M 164.960938 58.339844 C 164.960938 62.007812 159.460938 62.007812 159.460938 58.339844 C 159.460938 54.671875 164.960938 54.671875 164.960938 58.339844 "/>
<path fill-rule="nonzero" fill="rgb(41.568627%, 23.921569%, 60.392157%)" fill-opacity="1" stroke-width="1" stroke-linecap="butt" stroke-linejoin="miter" stroke="rgb(41.568627%, 23.921569%, 60.392157%)" stroke-opacity="1" stroke-miterlimit="10" d="M 163.488281 51.464844 C 163.488281 55.132812 157.988281 55.132812 157.988281 51.464844 C 157.988281 47.800781 163.488281 47.800781 163.488281 51.464844 "/>
<path fill-rule="nonzero" fill="rgb(41.568627%, 23.921569%, 60.392157%)" fill-opacity="1" stroke-width="1" stroke-linecap="butt" stroke-linejoin="miter" stroke="rgb(41.568627%, 23.921569%, 60.392157%)" stroke-opacity="1" stroke-miterlimit="10" d="M 159.140625 50 C 159.140625 53.667969 153.640625 53.667969 153.640625 50 C 153.640625 46.332031 159.140625 46.332031 159.140625 50 "/>
<path fill-rule="nonzero" fill="rgb(12.156863%, 47.058824%, 70.588235%)" fill-opacity="1" stroke-width="1" stroke-linecap="butt" stroke-linejoin="miter" stroke="rgb(12.156863%, 47.058824%, 70.588235%)" stroke-opacity="1" stroke-miterlimit="10" d="M 750.199219 742.859375 C 750.199219 746.527344 744.699219 746.527344 744.699219 742.859375 C 744.699219 739.191406 750.199219 739.191406 750.199219 742.859375 "/>
<path fill-rule="nonzero" fill="rgb(30.196078%, 68.627451%, 29.019608%)" fill-opacity="1" stroke-width="1" stroke-linecap="butt" stroke-linejoin="miter" stroke="rgb(30.196078%, 68.627451%, 29.019608%)" stroke-opacity="1" stroke-miterlimit="10" d="M 171.777344 562.777344 C 171.777344 566.441406 166.277344 566.441406 166.277344 562.777344 C 166.277344 559.109375 171.777344 559.109375 171.777344 562.777344 "/>
<path fill-rule="nonzero" fill="rgb(14.901961%, 14.901961%, 14.901961%)" fill-opacity="1" stroke-width="1" stroke-linecap="butt" stroke-linejoin="miter" stroke="rgb(14.901961%, 14.901961%, 14.901961%)" stroke-opacity="1" stroke-miterlimit="10" d="M 154.183594 64.367188 L 158.433594 55.867188 L 162.683594 64.367188 Z M 154.183594 64.367188 "/>
<path fill-rule="nonzero" fill="rgb(100%, 84.313725%, 0%)" fill-opacity="1" stroke-width="1" stroke-linecap="butt" stroke-linejoin="miter" stroke="rgb(100%, 84.313725%, 0%)" stroke-opacity="1" stroke-miterlimit="10" d="M 134.503906 527.097656 L 147.203125 527.097656 L 147.203125 539.796875 L 134.503906 539.796875 Z M 134.503906 527.097656 "/>
<path fill-rule="nonzero" fill="rgb(30.196078%, 68.627451%, 29.019608%)" fill-opacity="1" stroke-width="1" stroke-linecap="butt" stroke-linejoin="miter" stroke="rgb(30.196078%, 68.627451%, 29.019608%)" stroke-opacity="1" stroke-miterlimit="10" d="M 143.136719 538.292969 C 143.136719 541.960938 137.636719 541.960938 137.636719 538.292969 C 137.636719 534.628906 143.136719 534.628906 143.136719 538.292969 "/>
<path fill-rule="nonzero" fill="rgb(30.196078%, 68.627451%, 29.019608%)" fill-opacity="1" stroke-width="1" stroke-linecap="butt" stroke-linejoin="miter" stroke="rgb(30.196078%, 68.627451%, 29.019608%)" stroke-opacity="1" stroke-miterlimit="10" d="M 147.230469 534.097656 C 147.230469 537.765625 141.730469 537.765625 141.730469 534.097656 C 141.730469 530.433594 147.230469 530.433594 147.230469 534.097656 "/>
<path fill-rule="nonzero" fill="rgb(14.901961%, 14.901961%, 14.901961%)" fill-opacity="1" stroke-width="1" stroke-linecap="butt" stroke-linejoin="miter" stroke="rgb(14.901961%, 14.901961%, 14.901961%)" stroke-opacity="1" stroke-miterlimit="10" d="M 162.960938 565.242188 L 167.210938 556.742188 L 171.460938 565.242188 Z M 162.960938 565.242188 "/>
<path fill-rule="nonzero" fill="rgb(41.568627%, 23.921569%, 60.392157%)" fill-opacity="1" stroke-width="1" stroke-linecap="butt" stroke-linejoin="miter" stroke="rgb(41.568627%, 23.921569%, 60.392157%)" stroke-opacity="1" stroke-miterlimit="10" d="M 148.898438 239.539062 C 148.898438 243.207031 143.398438 243.207031 143.398438 239.539062 C 143.398438 235.875 148.898438 235.875 148.898438 239.539062 "/>
<path fill-rule="nonzero" fill="rgb(41.568627%, 23.921569%, 60.392157%)" fill-opacity="1" stroke-width="1" stroke-linecap="butt" stroke-linejoin="miter" stroke="rgb(41.568627%, 23.921569%, 60.392157%)" stroke-opacity="1" stroke-miterlimit="10" d="M 162.488281 73.035156 C 162.488281 77.371094 155.988281 77.371094 155.988281 73.035156 C 155.988281 68.703125 162.488281 68.703125 162.488281 73.035156 "/>
<path fill-rule="nonzero" fill="rgb(41.568627%, 23.921569%, 60.392157%)" fill-opacity="1" stroke-width="1" stroke-linecap="butt" stroke-linejoin="miter" stroke="rgb(41.568627%, 23.921569%, 60.392157%)" stroke-opacity="1" stroke-miterlimit="10" d="M 145.4375 290.800781 C 145.4375 294.46875 139.9375 294.46875 139.9375 290.800781 C 139.9375 287.132812 145.4375 287.132812 145.4375 290.800781 "/>
<path fill-rule="nonzero" fill="rgb(98.431373%, 60.392157%, 60%)" fill-opacity="1" stroke-width="1" stroke-linecap="butt" stroke-linejoin="miter" stroke="rgb(98.431373%, 60.392157%, 60%)" stroke-opacity="1" stroke-miterlimit="10" d="M 117.109375 546.691406 C 117.109375 550.355469 111.609375 550.355469 111.609375 546.691406 C 111.609375 543.023438 117.109375 543.023438 117.109375 546.691406 "/>
<path fill-rule="nonzero" fill="rgb(98.431373%, 60.392157%, 60%)" fill-opacity="1" stroke-width="1" stroke-linecap="butt" stroke-linejoin="miter" stroke="rgb(98.431373%, 60.392157%, 60%)" stroke-opacity="1" stroke-miterlimit="10" d="M 66.496094 646.398438 C 66.496094 650.066406 60.996094 650.066406 60.996094 646.398438 C 60.996094 642.730469 66.496094 642.730469 66.496094 646.398438 "/>
<path fill-rule="nonzero" fill="rgb(14.901961%, 14.901961%, 14.901961%)" fill-opacity="1" stroke-width="1" stroke-linecap="butt" stroke-linejoin="miter" stroke="rgb(14.901961%, 14.901961%, 14.901961%)" stroke-opacity="1" stroke-miterlimit="10" d="M 46.25 671.039062 L 50 663.539062 L 53.75 671.039062 Z M 46.25 671.039062 "/>
<path fill-rule="nonzero" fill="rgb(12.156863%, 47.058824%, 70.588235%)" fill-opacity="1" stroke-width="1" stroke-linecap="butt" stroke-linejoin="miter" stroke="rgb(12.156863%, 47.058824%, 70.588235%)" stroke-opacity="1" stroke-miterlimit="10" d="M 748.203125 748.125 C 748.203125 751.792969 742.703125 751.792969 742.703125 748.125 C 742.703125 744.457031 748.203125 744.457031 748.203125 748.125 "/>
<path fill-rule="nonzero" fill="rgb(12.156863%, 47.058824%, 70.588235%)" fill-opacity="1" stroke-width="1" stroke-linecap="butt" stroke-linejoin="miter" stroke="rgb(12.156863%, 47.058824%, 70.588235%)" stroke-opacity="1" stroke-miterlimit="10" d="M 752.226562 737.417969 C 752.226562 741.085938 746.726562 741.085938 746.726562 737.417969 C 746.726562 733.753906 752.226562 733.753906 752.226562 737.417969 "/>
<path fill-rule="nonzero" fill="rgb(14.901961%, 14.901961%, 14.901961%)" fill-opacity="1" stroke-width="1" stroke-linecap="butt" stroke-linejoin="miter" stroke="rgb(14.901961%, 14.901961%, 14.901961%)" stroke-opacity="1" stroke-miterlimit="10" d="M 746.25 736.253906 L 750 728.753906 L 753.75 736.253906 Z M 746.25 736.253906 "/>
</svg>
