<?xml version="1.0" encoding="UTF-8"?>
<svg xmlns="http://www.w3.org/2000/svg" xmlns:xlink="http://www.w3.org/1999/xlink" width="800" height="800" viewBox="0 0 800 800">
<rect x="-80" y="-80" width="960" height="960" fill="rgb(100%, 100%, 100%)" fill-opacity="1"/>
<path fill="none" stroke-width="2.5" stroke-linecap="butt" stroke-linejoin="miter" stroke="rgb(30.196078%, 68.627451%, 29.019608%)" stroke-opacity="1" stroke-miterlimit="10" d="M 367.199219 91.765625 C 366.851562 93.066406 368.078125 94.675781 367.800781 95.402344 "/>
<path fill-rule="nonzero" fill="rgb(30.196078%, 68.627451%, 29.019608%)" fill-opacity="1" d="M 370.363281 88.746094 L 369.960938 96.238281 L 365.636719 94.570312 L 370.363281 88.746094 "/>
<path fill="none" stroke-width="3.5" stroke-linecap="butt" stroke-linejoin="miter" stroke="rgb(70.196078%, 70.196078%, 70.196078%)" stroke-opacity="1" stroke-miterlimit="10" d="M 367.199219 91.765625 C 365.414062 92.164062 364.535156 94.152344 363.199219 94.769531 "/>
<path fill-rule="nonzero" fill="rgb(70.196078%, 70.196078%, 70.196078%)" fill-opacity="1" d="M 369.675781 91.785156 L 364.167969 96.875 L 362.226562 92.664062 L 369.675781 91.785156 "/>
<path fill="none" stroke-width="2.5" stroke-linecap="butt" stroke-linejoin="miter" stroke="rgb(70.196078%, 70.196078%, 70.196078%)" stroke-opacity="1" stroke-miterlimit="10" d="M 367.199219 91.765625 C 369.054688 92.363281 371.863281 92.628906 372.503906 91.175781 "/>
<path fill-rule="nonzero" fill="rgb(70.196078%, 70.196078%, 70.196078%)" fill-opacity="1" d="M 375.386719 84.652344 L 374.625 92.113281 L 370.382812 90.238281 L 375.386719 84.652344 "/>
<path fill="none" stroke-width="1.5" stroke-linecap="butt" stroke-linejoin="miter" stroke="rgb(30.196078%, 68.627451%, 29.019608%)" stroke-opacity="1" stroke-miterlimit="10" d="M 372.679688 82.726562 C 373.226562 81.375 372.160156 79.632812 372.523438 78.742188 "/>
<path fill-rule="nonzero" fill="rgb(30.196078%, 68.627451%, 29.019608%)" fill-opacity="1" d="M 369.824219 85.34375 L 370.378906 77.867188 L 374.667969 79.621094 L 369.824219 85.34375 "/>
<path fill="none" stroke-width="1.5" stroke-linecap="butt" stroke-linejoin="miter" stroke="rgb(98.431373%, 60.392157%, 60%)" stroke-opacity="1" stroke-miterlimit="10" d="M 389.582031 68.636719 C 390.632812 69.269531 392.84375 69.550781 392.914062 69.039062 "/>
<path fill-rule="nonzero" fill="rgb(98.431373%, 60.392157%, 60%)" fill-opacity="1" d="M 393.847656 61.96875 L 395.210938 69.34375 L 390.613281 68.734375 L 393.847656 61.96875 "/>
<path fill="none" stroke-width="1.5" stroke-linecap="butt" stroke-linejoin="miter" stroke="rgb(12.156863%, 47.058824%, 70.588235%)" stroke-opacity="1" stroke-miterlimit="10" d="M 64.082031 218.605469 C 65.074219 217.988281 65.496094 216.015625 65.859375 215.957031 "/>
<path fill-rule="nonzero" fill="rgb(12.156863%, 47.058824%, 70.588235%)" fill-opacity="1" d="M 58.808594 217.039062 L 65.507812 213.667969 L 66.210938 218.25 L 58.808594 217.039062 "/>
<path fill="none" stroke-width="2.5" stroke-linecap="butt" stroke-linejoin="miter" stroke="rgb(12.156863%, 47.058824%, 70.588235%)" stroke-opacity="1" stroke-miterlimit="10" d="M 64.082031 218.605469 C 63.226562 216.917969 61.464844 214.792969 60.054688 215.359375 "/>
<path fill-rule="nonzero" fill="rgb(12.156863%, 47.058824%, 70.588235%)" fill-opacity="1" d="M 53.441406 218.027344 L 59.1875 213.210938 L 60.921875 217.507812 L 53.441406 218.027344 "/>
<path fill="none" stroke-width="1.5" stroke-linecap="butt" stroke-linejoin="miter" stroke="rgb(12.156863%, 47.058824%, 70.588235%)" stroke-opacity="1" stroke-miterlimit="10" d="M 55.972656 217.472656 C 54.695312 217.796875 53.863281 219.640625 53.148438 219.710938 "/>
<path fill-rule="nonzero" fill="rgb(12.156863%, 47.058824%, 70.588235%)" fill-opacity="1" d="M 60.242188 218.992188 L 53.378906 222.015625 L 52.914062 217.40625 L 60.242188 218.992188 "/>
<path fill="none" stroke-width="4.5" stroke-linecap="butt" stroke-linejoin="miter" stroke="rgb(70.196078%, 70.196078%, 70.196078%)" stroke-opacity="1" stroke-miterlimit="10" d="M 311.910156 151.046875 C 322.816406 148.050781 331.863281 141.886719 335.757812 131.332031 "/>
<path fill-rule="nonzero" fill="rgb(70.196078%, 70.196078%, 70.196078%)" fill-opacity="1" d="M 338.222656 124.636719 L 337.929688 132.132812 L 333.582031 130.527344 L 338.222656 124.636719 "/>
<path fill="none" stroke-width="3.5" stroke-linecap="butt" stroke-linejoin="miter" stroke="rgb(70.196078%, 70.196078%, 70.196078%)" stroke-opacity="1" stroke-miterlimit="10" d="M 374.128906 89.734375 C 376.59375 89.957031 378.398438 88.199219 380.523438 87.527344 "/>
<path fill-rule="nonzero" fill="rgb(70.196078%, 70.196078%, 70.196078%)" fill-opacity="1" d="M 373.726562 89.6875 L 379.820312 85.316406 L 381.226562 89.734375 L 373.726562 89.6875 "/>
<path fill="none" stroke-width="4.5" stroke-linecap="butt" stroke-linejoin="miter" stroke="rgb(70.196078%, 70.196078%, 70.196078%)" stroke-opacity="1" stroke-miterlimit="10" d="M 339.917969 120.042969 C 349.476562 118.160156 357.824219 113.492188 361.652344 104.613281 "/>
<path fill-rule="nonzero" fill="rgb(70.196078%, 70.196078%, 70.196078%)" fill-opacity="1" d="M 364.480469 98.0625 L 363.78125 105.53125 L 359.523438 103.695312 L 364.480469 98.0625 "/>
<path fill="none" stroke-width="1.5" stroke-linecap="butt" stroke-linejoin="miter" stroke="rgb(98.431373%, 60.392157%, 60%)" stroke-opacity="1" stroke-miterlimit="10" d="M 394.207031 59.269531 C 394.792969 60.234375 396.753906 60.808594 396.757812 61.019531 "/>
<path fill-rule="nonzero" fill="rgb(98.431373%, 60.392157%, 60%)" fill-opacity="1" d="M 396.683594 53.886719 L 399.074219 60.996094 L 394.441406 61.042969 L 396.683594 53.886719 "/>
<path fill="none" stroke-width="1.5" stroke-linecap="butt" stroke-linejoin="miter" stroke="rgb(12.156863%, 47.058824%, 70.588235%)" stroke-opacity="1" stroke-miterlimit="10" d="M 50 219.417969 C 50.855469 221.101562 52.621094 223.226562 54.027344 222.660156 "/>
<path fill-rule="nonzero" fill="rgb(12.156863%, 47.058824%, 70.588235%)" fill-opacity="1" d="M 60.640625 219.992188 L 54.894531 224.808594 L 53.160156 220.511719 L 60.640625 219.992188 "/>
<path fill="none" stroke-width="5.5" stroke-linecap="butt" stroke-linejoin="miter" stroke="rgb(70.196078%, 70.196078%, 70.196078%)" stroke-opacity="1" stroke-miterlimit="10" d="M 449.742188 336.292969 C 440.542969 320.644531 427.191406 309.902344 409.226562 307.578125 "/>
<path fill-rule="nonzero" fill="rgb(70.196078%, 70.196078%, 70.196078%)" fill-opacity="1" d="M 402.152344 306.664062 L 409.523438 305.28125 L 408.929688 309.878906 L 402.152344 306.664062 "/>
<path fill="none" stroke-width="1.5" stroke-linecap="butt" stroke-linejoin="miter" stroke="rgb(12.156863%, 47.058824%, 70.588235%)" stroke-opacity="1" stroke-miterlimit="10" d="M 79.460938 216.339844 C 80.269531 218.226562 81.933594 220.582031 83.597656 220.140625 "/>
<path fill-rule="nonzero" fill="rgb(12.156863%, 47.058824%, 70.588235%)" fill-opacity="1" d="M 90.492188 218.316406 L 84.191406 222.382812 L 83.003906 217.902344 L 90.492188 218.316406 "/>
<path fill="none" stroke-width="1.5" stroke-linecap="butt" stroke-linejoin="miter" stroke="rgb(12.156863%, 47.058824%, 70.588235%)" stroke-opacity="1" stroke-miterlimit="10" d="M 204.113281 217.90625 C 187.488281 208.828125 169.824219 206.457031 152.449219 213.914062 "/>
<path fill-rule="nonzero" fill="rgb(12.156863%, 47.058824%, 70.588235%)" fill-opacity="1" d="M 145.894531 216.730469 L 151.535156 211.785156 L 153.363281 216.046875 L 145.894531 216.730469 "/>
<path fill="none" stroke-width="1.5" stroke-linecap="butt" stroke-linejoin="miter" stroke="rgb(12.156863%, 47.058824%, 70.588235%)" stroke-opacity="1" stroke-miterlimit="10" d="M 280.402344 227.335938 C 280.539062 224.652344 280.023438 221.285156 277.726562 220.488281 "/>
<path fill-rule="nonzero" fill="rgb(12.156863%, 47.058824%, 70.588235%)" fill-opacity="1" d="M 270.988281 218.148438 L 278.488281 218.300781 L 276.96875 222.679688 L 270.988281 218.148438 "/>
<path fill="none" stroke-width="1.5" stroke-linecap="butt" stroke-linejoin="miter" stroke="rgb(41.568627%, 23.921569%, 60.392157%)" stroke-opacity="1" stroke-miterlimit="10" d="M 377.4375 80.007812 C 380.378906 80.078125 382.382812 78.066406 384.847656 76.882812 "/>
<path fill-rule="nonzero" fill="rgb(41.568627%, 23.921569%, 60.392157%)" fill-opacity="1" d="M 378.417969 79.96875 L 383.84375 74.792969 L 385.851562 78.96875 L 378.417969 79.96875 "/>
<path fill="none" stroke-width="1.5" stroke-linecap="butt" stroke-linejoin="miter" stroke="rgb(98.431373%, 60.392157%, 60%)" stroke-opacity="1" stroke-miterlimit="10" d="M 377.4375 80.007812 C 380.410156 80.347656 384.019531 80.015625 385.238281 77.523438 "/>
<path fill-rule="nonzero" fill="rgb(98.431373%, 60.392157%, 60%)" fill-opacity="1" d="M 388.371094 71.117188 L 387.316406 78.542969 L 383.15625 76.503906 L 388.371094 71.117188 "/>
<path fill="none" stroke-width="1.5" stroke-linecap="butt" stroke-linejoin="miter" stroke="rgb(12.156863%, 47.058824%, 70.588235%)" stroke-opacity="1" stroke-miterlimit="10" d="M 265.683594 216.308594 C 248.484375 207.5625 230.4375 205.703125 212.960938 213.804688 "/>
<path fill-rule="nonzero" fill="rgb(12.156863%, 47.058824%, 70.588235%)" fill-opacity="1" d="M 206.492188 216.804688 L 211.988281 211.699219 L 213.9375 215.90625 L 206.492188 216.804688 "/>
<path fill="none" stroke-width="4.5" stroke-linecap="butt" stroke-linejoin="miter" stroke="rgb(70.196078%, 70.196078%, 70.196078%)" stroke-opacity="1" stroke-miterlimit="10" d="M 265.683594 216.308594 C 275.605469 212.136719 283.4375 205.210938 285.75 194.765625 "/>
<path fill-rule="nonzero" fill="rgb(70.196078%, 70.196078%, 70.196078%)" fill-opacity="1" d="M 287.292969 187.800781 L 288.015625 195.265625 L 283.488281 194.261719 L 287.292969 187.800781 "/>
<path fill="none" stroke-width="5.5" stroke-linecap="butt" stroke-linejoin="miter" stroke="rgb(70.196078%, 70.196078%, 70.196078%)" stroke-opacity="1" stroke-miterlimit="10" d="M 553.324219 397.46875 C 544.375 381.921875 531.273438 371.175781 513.542969 368.734375 "/>
<path fill-rule="nonzero" fill="rgb(70.196078%, 70.196078%, 70.196078%)" fill-opacity="1" d="M 506.476562 367.761719 L 513.859375 366.4375 L 513.226562 371.03125 L 506.476562 367.761719 "/>
<path fill="none" stroke-width="1.5" stroke-linecap="butt" stroke-linejoin="miter" stroke="rgb(12.156863%, 47.058824%, 70.588235%)" stroke-opacity="1" stroke-miterlimit="10" d="M 93.617188 217.492188 C 87.597656 213.464844 80.617188 211.316406 74.070312 214.203125 "/>
<path fill-rule="nonzero" fill="rgb(12.156863%, 47.058824%, 70.588235%)" fill-opacity="1" d="M 67.542969 217.078125 L 73.136719 212.082031 L 75.007812 216.324219 L 67.542969 217.078125 "/>
<path fill="none" stroke-width="1.5" stroke-linecap="butt" stroke-linejoin="miter" stroke="rgb(12.156863%, 47.058824%, 70.588235%)" stroke-opacity="1" stroke-miterlimit="10" d="M 93.617188 217.492188 C 92.640625 215.527344 90.796875 213.179688 88.976562 213.6875 "/>
<path fill-rule="nonzero" fill="rgb(12.156863%, 47.058824%, 70.588235%)" fill-opacity="1" d="M 82.105469 215.601562 L 88.355469 211.453125 L 89.601562 215.921875 L 82.105469 215.601562 "/>
<path fill="none" stroke-width="1.5" stroke-linecap="butt" stroke-linejoin="miter" stroke="rgb(12.156863%, 47.058824%, 70.588235%)" stroke-opacity="1" stroke-miterlimit="10" d="M 143.488281 217.765625 C 130.640625 210.292969 116.722656 207.835938 103.050781 213.550781 "/>
<path fill-rule="nonzero" fill="rgb(12.156863%, 47.058824%, 70.588235%)" fill-opacity="1" d="M 96.46875 216.300781 L 102.15625 211.410156 L 103.945312 215.6875 L 96.46875 216.300781 "/>
<path fill="none" stroke-width="1.5" stroke-linecap="butt" stroke-linejoin="miter" stroke="rgb(12.156863%, 47.058824%, 70.588235%)" stroke-opacity="1" stroke-miterlimit="10" d="M 297.355469 239.511719 C 296.367188 235.15625 294.195312 230.816406 290.003906 229.757812 "/>
<path fill-rule="nonzero" fill="rgb(12.156863%, 47.058824%, 70.588235%)" fill-opacity="1" d="M 283.089844 228.015625 L 290.574219 227.511719 L 289.4375 232.007812 L 283.089844 228.015625 "/>
<path fill="none" stroke-width="4.5" stroke-linecap="butt" stroke-linejoin="miter" stroke="rgb(70.196078%, 70.196078%, 70.196078%)" stroke-opacity="1" stroke-miterlimit="10" d="M 297.355469 239.511719 C 293.835938 229.90625 287.613281 222.101562 277.789062 219.503906 "/>
<path fill-rule="nonzero" fill="rgb(70.196078%, 70.196078%, 70.196078%)" fill-opacity="1" d="M 270.894531 217.683594 L 278.382812 217.265625 L 277.199219 221.746094 L 270.894531 217.683594 "/>
<path fill="none" stroke-width="5.5" stroke-linecap="butt" stroke-linejoin="miter" stroke="rgb(70.196078%, 70.196078%, 70.196078%)" stroke-opacity="1" stroke-miterlimit="10" d="M 345.445312 272.925781 C 337.972656 257.191406 326.117188 245.753906 309.136719 242.070312 "/>
<path fill-rule="nonzero" fill="rgb(70.196078%, 70.196078%, 70.196078%)" fill-opacity="1" d="M 302.167969 240.554688 L 309.628906 239.804688 L 308.644531 244.332031 L 302.167969 240.554688 "/>
<path fill="none" stroke-width="5.5" stroke-linecap="butt" stroke-linejoin="miter" stroke="rgb(70.196078%, 70.196078%, 70.196078%)" stroke-opacity="1" stroke-miterlimit="10" d="M 397.269531 306.03125 C 388.605469 289.699219 375.496094 278.195312 357.324219 275.007812 "/>
<path fill-rule="nonzero" fill="rgb(70.196078%, 70.196078%, 70.196078%)" fill-opacity="1" d="M 350.296875 273.773438 L 357.722656 272.726562 L 356.921875 277.289062 L 350.296875 273.773438 "/>
<path fill="none" stroke-width="4.5" stroke-linecap="butt" stroke-linejoin="miter" stroke="rgb(70.196078%, 70.196078%, 70.196078%)" stroke-opacity="1" stroke-miterlimit="10" d="M 288.355469 183.019531 C 298.242188 179.320312 306.210938 172.835938 308.867188 162.683594 "/>
<path fill-rule="nonzero" fill="rgb(70.196078%, 70.196078%, 70.196078%)" fill-opacity="1" d="M 310.671875 155.78125 L 311.109375 163.269531 L 306.625 162.097656 L 310.671875 155.78125 "/>
<path fill="none" stroke-width="5.5" stroke-linecap="butt" stroke-linejoin="miter" stroke="rgb(70.196078%, 70.196078%, 70.196078%)" stroke-opacity="1" stroke-miterlimit="10" d="M 602.554688 426.667969 C 594.246094 411.910156 581.980469 401.582031 565.257812 399.179688 "/>
<path fill-rule="nonzero" fill="rgb(70.196078%, 70.196078%, 70.196078%)" fill-opacity="1" d="M 558.199219 398.167969 L 565.585938 396.886719 L 564.929688 401.476562 L 558.199219 398.167969 "/>
<path fill="none" stroke-width="5.5" stroke-linecap="butt" stroke-linejoin="miter" stroke="rgb(70.196078%, 70.196078%, 70.196078%)" stroke-opacity="1" stroke-miterlimit="10" d="M 501.597656 367.089844 C 492.65625 351.402344 479.515625 340.539062 461.679688 337.996094 "/>
<path fill-rule="nonzero" fill="rgb(70.196078%, 70.196078%, 70.196078%)" fill-opacity="1" d="M 454.617188 336.988281 L 462.003906 335.699219 L 461.351562 340.289062 L 454.617188 336.988281 "/>
<path fill="none" stroke-width="5.5" stroke-linecap="butt" stroke-linejoin="miter" stroke="rgb(70.196078%, 70.196078%, 70.196078%)" stroke-opacity="1" stroke-miterlimit="10" d="M 678.511719 488.878906 C 673.78125 475.6875 665.257812 465.363281 651.902344 461.28125 "/>
<path fill-rule="nonzero" fill="rgb(70.196078%, 70.196078%, 70.196078%)" fill-opacity="1" d="M 645.082031 459.195312 L 652.582031 459.066406 L 651.226562 463.496094 L 645.082031 459.195312 "/>
<path fill="none" stroke-width="5.5" stroke-linecap="butt" stroke-linejoin="miter" stroke="rgb(70.196078%, 70.196078%, 70.196078%)" stroke-opacity="1" stroke-miterlimit="10" d="M 750 604.589844 C 753.015625 598.882812 754.386719 592.410156 751.121094 586.964844 "/>
<path fill-rule="nonzero" fill="rgb(70.196078%, 70.196078%, 70.196078%)" fill-opacity="1" d="M 747.449219 580.847656 L 753.109375 585.773438 L 749.132812 588.15625 L 747.449219 580.847656 "/>
<path fill="none" stroke-width="5.5" stroke-linecap="butt" stroke-linejoin="miter" stroke="rgb(70.196078%, 70.196078%, 70.196078%)" stroke-opacity="1" stroke-miterlimit="10" d="M 640.386719 457.757812 C 635.738281 444.632812 627.3125 434.332031 614.058594 430.230469 "/>
<path fill-rule="nonzero" fill="rgb(70.196078%, 70.196078%, 70.196078%)" fill-opacity="1" d="M 607.246094 428.117188 L 614.742188 428.015625 L 613.371094 432.441406 L 607.246094 428.117188 "/>
<path fill="none" stroke-width="5.5" stroke-linecap="butt" stroke-linejoin="miter" stroke="rgb(70.196078%, 70.196078%, 70.196078%)" stroke-opacity="1" stroke-miterlimit="10" d="M 749.425781 632.78125 C 753.488281 627.839844 756.105469 621.820312 754.007812 615.894531 "/>
<path fill-rule="nonzero" fill="rgb(70.196078%, 70.196078%, 70.196078%)" fill-opacity="1" d="M 751.625 609.167969 L 756.191406 615.117188 L 751.820312 616.667969 L 751.625 609.167969 "/>
<path fill="none" stroke-width="5.5" stroke-linecap="butt" stroke-linejoin="miter" stroke="rgb(70.196078%, 70.196078%, 70.196078%)" stroke-opacity="1" stroke-miterlimit="10" d="M 744.949219 576.679688 C 747.097656 569.835938 747.203125 562.585938 742.617188 557.195312 "/>
<path fill-rule="nonzero" fill="rgb(70.196078%, 70.196078%, 70.196078%)" fill-opacity="1" d="M 737.996094 551.761719 L 744.382812 555.691406 L 740.851562 558.695312 L 737.996094 551.761719 "/>
<path fill="none" stroke-width="5.5" stroke-linecap="butt" stroke-linejoin="miter" stroke="rgb(70.196078%, 70.196078%, 70.196078%)" stroke-opacity="1" stroke-miterlimit="10" d="M 734.84375 548.050781 C 732.953125 537.519531 727.9375 528.40625 718.304688 523.890625 "/>
<path fill-rule="nonzero" fill="rgb(70.196078%, 70.196078%, 70.196078%)" fill-opacity="1" d="M 711.84375 520.867188 L 719.285156 521.792969 L 717.320312 525.992188 L 711.84375 520.867188 "/>
<path fill="none" stroke-width="5.5" stroke-linecap="butt" stroke-linejoin="miter" stroke="rgb(70.196078%, 70.196078%, 70.196078%)" stroke-opacity="1" stroke-miterlimit="10" d="M 707.410156 518.789062 C 705.1875 507.773438 699.691406 498.375 689.492188 493.800781 "/>
<path fill-rule="nonzero" fill="rgb(70.196078%, 70.196078%, 70.196078%)" fill-opacity="1" d="M 682.984375 490.882812 L 690.441406 491.6875 L 688.542969 495.917969 L 682.984375 490.882812 "/>
<path fill="none" stroke-width="5.5" stroke-linecap="butt" stroke-linejoin="miter" stroke="rgb(70.196078%, 70.196078%, 70.196078%)" stroke-opacity="1" stroke-miterlimit="10" d="M 729.035156 662.636719 C 737.660156 659.25 744.707031 653.464844 746.753906 644.5 "/>
<path fill-rule="nonzero" fill="rgb(70.196078%, 70.196078%, 70.196078%)" fill-opacity="1" d="M 748.339844 637.546875 L 749.011719 645.015625 L 744.492188 643.984375 L 748.339844 637.546875 "/>
<path fill="none" stroke-width="5.5" stroke-linecap="butt" stroke-linejoin="miter" stroke="rgb(70.196078%, 70.196078%, 70.196078%)" stroke-opacity="1" stroke-miterlimit="10" d="M 709.574219 687.523438 C 716.90625 685.449219 723.339844 681.320312 725.535156 674.121094 "/>
<path fill-rule="nonzero" fill="rgb(70.196078%, 70.196078%, 70.196078%)" fill-opacity="1" d="M 727.613281 667.296875 L 727.75 674.796875 L 723.316406 673.445312 L 727.613281 667.296875 "/>
<path fill="none" stroke-width="5.5" stroke-linecap="butt" stroke-linejoin="miter" stroke="rgb(70.196078%, 70.196078%, 70.196078%)" stroke-opacity="1" stroke-miterlimit="10" d="M 176.085938 733.078125 C 182.78125 739.421875 190.96875 743.335938 199.910156 741.394531 "/>
<path fill-rule="nonzero" fill="rgb(70.196078%, 70.196078%, 70.196078%)" fill-opacity="1" d="M 206.878906 739.882812 L 200.398438 743.660156 L 199.417969 739.132812 L 206.878906 739.882812 "/>
<path fill="none" stroke-width="5.5" stroke-linecap="butt" stroke-linejoin="miter" stroke="rgb(70.196078%, 70.196078%, 70.196078%)" stroke-opacity="1" stroke-miterlimit="10" d="M 675.605469 707.519531 C 686.046875 708.011719 695.835938 705.230469 702.203125 697.023438 "/>
<path fill-rule="nonzero" fill="rgb(70.196078%, 70.196078%, 70.196078%)" fill-opacity="1" d="M 706.574219 691.386719 L 704.035156 698.445312 L 700.371094 695.601562 L 706.574219 691.386719 "/>
<path fill="none" stroke-width="5.5" stroke-linecap="butt" stroke-linejoin="miter" stroke="rgb(70.196078%, 70.196078%, 70.196078%)" stroke-opacity="1" stroke-miterlimit="10" d="M 545.886719 744.0625 C 558.527344 749.230469 571.574219 749.800781 583.214844 742.765625 "/>
<path fill-rule="nonzero" fill="rgb(70.196078%, 70.196078%, 70.196078%)" fill-opacity="1" d="M 589.320312 739.074219 L 584.414062 744.746094 L 582.015625 740.78125 L 589.320312 739.074219 "/>
<path fill="none" stroke-width="5.5" stroke-linecap="butt" stroke-linejoin="miter" stroke="rgb(70.196078%, 70.196078%, 70.196078%)" stroke-opacity="1" stroke-miterlimit="10" d="M 634.382812 725.5 C 646.722656 727.292969 658.492188 724.984375 667.179688 716.117188 "/>
<path fill-rule="nonzero" fill="rgb(70.196078%, 70.196078%, 70.196078%)" fill-opacity="1" d="M 672.171875 711.023438 L 668.835938 717.738281 L 665.527344 714.496094 L 672.171875 711.023438 "/>
<path fill="none" stroke-width="5.5" stroke-linecap="butt" stroke-linejoin="miter" stroke="rgb(70.196078%, 70.196078%, 70.196078%)" stroke-opacity="1" stroke-miterlimit="10" d="M 593.519531 736.53125 C 604.507812 739.957031 615.628906 739.628906 624.769531 732.738281 "/>
<path fill-rule="nonzero" fill="rgb(70.196078%, 70.196078%, 70.196078%)" fill-opacity="1" d="M 630.46875 728.445312 L 626.167969 734.589844 L 623.375 730.886719 L 630.46875 728.445312 "/>
<path fill="none" stroke-width="5.5" stroke-linecap="butt" stroke-linejoin="miter" stroke="rgb(70.196078%, 70.196078%, 70.196078%)" stroke-opacity="1" stroke-miterlimit="10" d="M 498.152344 750 C 510.570312 755.566406 523.554688 756.574219 535.382812 749.949219 "/>
<path fill-rule="nonzero" fill="rgb(70.196078%, 70.196078%, 70.196078%)" fill-opacity="1" d="M 541.605469 746.460938 L 536.515625 751.96875 L 534.25 747.925781 L 541.605469 746.460938 "/>
<path fill="none" stroke-width="5.5" stroke-linecap="butt" stroke-linejoin="miter" stroke="rgb(70.196078%, 70.196078%, 70.196078%)" stroke-opacity="1" stroke-miterlimit="10" d="M 390.933594 748.335938 C 403.660156 756.222656 417.617188 759.117188 431.535156 753.726562 "/>
<path fill-rule="nonzero" fill="rgb(70.196078%, 70.196078%, 70.196078%)" fill-opacity="1" d="M 438.1875 751.148438 L 432.371094 755.886719 L 430.699219 751.566406 L 438.1875 751.148438 "/>
<path fill="none" stroke-width="5.5" stroke-linecap="butt" stroke-linejoin="miter" stroke="rgb(70.196078%, 70.196078%, 70.196078%)" stroke-opacity="1" stroke-miterlimit="10" d="M 442.769531 749.375 C 456.734375 757.703125 471.902344 760.496094 486.960938 754.476562 "/>
<path fill-rule="nonzero" fill="rgb(70.196078%, 70.196078%, 70.196078%)" fill-opacity="1" d="M 493.585938 751.828125 L 487.820312 756.628906 L 486.101562 752.324219 L 493.585938 751.828125 "/>
<path fill="none" stroke-width="5.5" stroke-linecap="butt" stroke-linejoin="miter" stroke="rgb(70.196078%, 70.196078%, 70.196078%)" stroke-opacity="1" stroke-miterlimit="10" d="M 123.808594 726.25 C 125.488281 728.746094 128.113281 731.300781 130.804688 730.59375 "/>
<path fill-rule="nonzero" fill="rgb(70.196078%, 70.196078%, 70.196078%)" fill-opacity="1" d="M 137.703125 728.78125 L 131.394531 732.835938 L 130.21875 728.351562 L 137.703125 728.78125 "/>
<path fill="none" stroke-width="5.5" stroke-linecap="butt" stroke-linejoin="miter" stroke="rgb(70.196078%, 70.196078%, 70.196078%)" stroke-opacity="1" stroke-miterlimit="10" d="M 251.675781 742.394531 C 260.804688 749.347656 271.339844 752.832031 282.257812 749.492188 "/>
<path fill-rule="nonzero" fill="rgb(70.196078%, 70.196078%, 70.196078%)" fill-opacity="1" d="M 289.078125 747.40625 L 282.933594 751.707031 L 281.578125 747.277344 L 289.078125 747.40625 "/>
<path fill="none" stroke-width="5.5" stroke-linecap="butt" stroke-linejoin="miter" stroke="rgb(70.196078%, 70.196078%, 70.196078%)" stroke-opacity="1" stroke-miterlimit="10" d="M 340.726562 747.480469 C 352.9375 755.070312 366.359375 757.90625 379.710938 752.707031 "/>
<path fill-rule="nonzero" fill="rgb(70.196078%, 70.196078%, 70.196078%)" fill-opacity="1" d="M 386.355469 750.117188 L 380.550781 754.867188 L 378.867188 750.546875 L 386.355469 750.117188 "/>
<path fill="none" stroke-width="5.5" stroke-linecap="butt" stroke-linejoin="miter" stroke="rgb(70.196078%, 70.196078%, 70.196078%)" stroke-opacity="1" stroke-miterlimit="10" d="M 293.761719 745.96875 C 304.800781 753.214844 317.097656 756.210938 329.433594 751.652344 "/>
<path fill-rule="nonzero" fill="rgb(70.196078%, 70.196078%, 70.196078%)" fill-opacity="1" d="M 336.125 749.179688 L 330.234375 753.828125 L 328.628906 749.480469 L 336.125 749.179688 "/>
<path fill="none" stroke-width="5.5" stroke-linecap="butt" stroke-linejoin="miter" stroke="rgb(70.196078%, 70.196078%, 70.196078%)" stroke-opacity="1" stroke-miterlimit="10" d="M 211.652344 738.84375 C 220.101562 745.453125 229.941406 748.910156 240.15625 745.847656 "/>
<path fill-rule="nonzero" fill="rgb(70.196078%, 70.196078%, 70.196078%)" fill-opacity="1" d="M 246.988281 743.800781 L 240.820312 748.066406 L 239.488281 743.628906 L 246.988281 743.800781 "/>
<path fill="none" stroke-width="5.5" stroke-linecap="butt" stroke-linejoin="miter" stroke="rgb(70.196078%, 70.196078%, 70.196078%)" stroke-opacity="1" stroke-miterlimit="10" d="M 109.769531 723.859375 C 109.835938 725.433594 110.617188 727.839844 111.703125 727.707031 "/>
<path fill-rule="nonzero" fill="rgb(70.196078%, 70.196078%, 70.196078%)" fill-opacity="1" d="M 118.785156 726.855469 L 111.980469 730.007812 L 111.425781 725.40625 L 118.785156 726.855469 "/>
<path fill="none" stroke-width="5.5" stroke-linecap="butt" stroke-linejoin="miter" stroke="rgb(70.196078%, 70.196078%, 70.196078%)" stroke-opacity="1" stroke-miterlimit="10" d="M 142.347656 727.558594 C 148.476562 733.53125 156.046875 737.34375 164.335938 735.578125 "/>
<path fill-rule="nonzero" fill="rgb(70.196078%, 70.196078%, 70.196078%)" fill-opacity="1" d="M 171.3125 734.09375 L 164.820312 737.847656 L 163.855469 733.3125 L 171.3125 734.09375 "/>
<path fill-rule="nonzero" fill="rgb(14.901961%, 14.901961%, 14.901961%)" fill-opacity="1" stroke-width="1" stroke-linecap="butt" stroke-linejoin="miter" stroke="rgb(14.901961%, 14.901961%, 14.901961%)" stroke-opacity="1" stroke-miterlimit="10" d="M 360.347656 98.613281 L 367.199219 84.914062 L 374.046875 98.613281 Z M 360.347656 98.613281 "/>
<path fill-rule="nonzero" fill="rgb(14.901961%, 14.901961%, 14.901961%)" fill-opacity="1" stroke-width="1" stroke-linecap="butt" stroke-linejoin="miter" stroke="rgb(14.901961%, 14.901961%, 14.901961%)" stroke-opacity="1" stroke-miterlimit="10" d="M 366.332031 89.078125 L 372.679688 76.375 L 379.03125 89.078125 Z M 366.332031 89.078125 "/>
<path fill-rule="nonzero" fill="rgb(98.431373%, 60.392157%, 60%)" fill-opacity="1" stroke-width="1" stroke-linecap="butt" stroke-linejoin="miter" stroke="rgb(98.431373%, 60.392157%, 60%)" stroke-opacity="1" stroke-miterlimit="10" d="M 392.332031 68.636719 C 392.332031 72.304688 386.832031 72.304688 386.832031 68.636719 C 386.832031 64.972656 392.332031 64.972656 392.332031 68.636719 "/>
<path fill-rule="nonzero" fill="rgb(14.901961%, 14.901961%, 14.901961%)" fill-opacity="1" stroke-width="1" stroke-linecap="butt" stroke-linejoin="miter" stroke="rgb(14.901961%, 14.901961%, 14.901961%)" stroke-opacity="1" stroke-miterlimit="10" d="M 392.894531 53.75 L 396.644531 46.25 L 400.394531 53.75 Z M 392.894531 53.75 "/>
<path fill-rule="nonzero" fill="rgb(12.156863%, 47.058824%, 70.588235%)" fill-opacity="1" stroke-width="1" stroke-linecap="butt" stroke-linejoin="miter" stroke="rgb(12.156863%, 47.058824%, 70.588235%)" stroke-opacity="1" stroke-miterlimit="10" d="M 67.832031 218.605469 C 67.832031 223.605469 60.332031 223.605469 60.332031 218.605469 C 60.332031 213.605469 67.832031 213.605469 67.832031 218.605469 "/>
<path fill-rule="nonzero" fill="rgb(12.156863%, 47.058824%, 70.588235%)" fill-opacity="1" stroke-width="1" stroke-linecap="butt" stroke-linejoin="miter" stroke="rgb(12.156863%, 47.058824%, 70.588235%)" stroke-opacity="1" stroke-miterlimit="10" d="M 58.722656 217.472656 C 58.722656 221.140625 53.222656 221.140625 53.222656 217.472656 C 53.222656 213.808594 58.722656 213.808594 58.722656 217.472656 "/>
<path fill-rule="nonzero" fill="rgb(70.196078%, 70.196078%, 70.196078%)" fill-opacity="1" stroke-width="1" stroke-linecap="butt" stroke-linejoin="miter" stroke="rgb(70.196078%, 70.196078%, 70.196078%)" stroke-opacity="1" stroke-miterlimit="10" d="M 316.757812 151.046875 C 316.757812 157.511719 307.058594 157.511719 307.058594 151.046875 C 307.058594 144.578125 316.757812 144.578125 316.757812 151.046875 "/>
<path fill-rule="nonzero" fill="rgb(70.196078%, 70.196078%, 70.196078%)" fill-opacity="1" stroke-width="1" stroke-linecap="butt" stroke-linejoin="miter" stroke="rgb(70.196078%, 70.196078%, 70.196078%)" stroke-opacity="1" stroke-miterlimit="10" d="M 378.980469 89.734375 C 378.980469 96.203125 369.28125 96.203125 369.28125 89.734375 C 369.28125 83.269531 378.980469 83.269531 378.980469 89.734375 "/>
<path fill-rule="nonzero" fill="rgb(70.196078%, 70.196078%, 70.196078%)" fill-opacity="1" stroke-width="1" stroke-linecap="butt" stroke-linejoin="miter" stroke="rgb(70.196078%, 70.196078%, 70.196078%)" stroke-opacity="1" stroke-miterlimit="10" d="M 344.769531 120.042969 C 344.769531 126.507812 335.070312 126.507812 335.070312 120.042969 C 335.070312 113.574219 344.769531 113.574219 344.769531 120.042969 "/>
<path fill-rule="nonzero" fill="rgb(98.431373%, 60.392157%, 60%)" fill-opacity="1" stroke-width="1" stroke-linecap="butt" stroke-linejoin="miter" stroke="rgb(98.431373%, 60.392157%, 60%)" stroke-opacity="1" stroke-miterlimit="10" d="M 396.957031 59.269531 C 396.957031 62.9375 391.457031 62.9375 391.457031 59.269531 C 391.457031 55.601562 396.957031 55.601562 396.957031 59.269531 "/>
<path fill-rule="nonzero" fill="rgb(14.901961%, 14.901961%, 14.901961%)" fill-opacity="1" stroke-width="1" stroke-linecap="butt" stroke-linejoin="miter" stroke="rgb(14.901961%, 14.901961%, 14.901961%)" stroke-opacity="1" stroke-miterlimit="10" d="M 46.25 223.167969 L 50 215.667969 L 53.75 223.167969 Z M 46.25 223.167969 "/>
<path fill-rule="nonzero" fill="rgb(70.196078%, 70.196078%, 70.196078%)" fill-opacity="1" stroke-width="1" stroke-linecap="butt" stroke-linejoin="miter" stroke="rgb(70.196078%, 70.196078%, 70.196078%)" stroke-opacity="1" stroke-miterlimit="10" d="M 454.589844 336.292969 C 454.589844 342.757812 444.890625 342.757812 444.890625 336.292969 C 444.890625 329.824219 454.589844 329.824219 454.589844 336.292969 "/>
<path fill-rule="nonzero" fill="rgb(12.156863%, 47.058824%, 70.588235%)" fill-opacity="1" stroke-width="1" stroke-linecap="butt" stroke-linejoin="miter" stroke="rgb(12.156863%, 47.058824%, 70.588235%)" stroke-opacity="1" stroke-miterlimit="10" d="M 82.210938 216.339844 C 82.210938 220.003906 76.710938 220.003906 76.710938 216.339844 C 76.710938 212.671875 82.210938 212.671875 82.210938 216.339844 "/>
<path fill-rule="nonzero" fill="rgb(12.156863%, 47.058824%, 70.588235%)" fill-opacity="1" stroke-width="1" stroke-linecap="butt" stroke-linejoin="miter" stroke="rgb(12.156863%, 47.058824%, 70.588235%)" stroke-opacity="1" stroke-miterlimit="10" d="M 206.863281 217.90625 C 206.863281 221.574219 201.363281 221.574219 201.363281 217.90625 C 201.363281 214.238281 206.863281 214.238281 206.863281 217.90625 "/>
<path fill-rule="nonzero" fill="rgb(12.156863%, 47.058824%, 70.588235%)" fill-opacity="1" stroke-width="1" stroke-linecap="butt" stroke-linejoin="miter" stroke="rgb(12.156863%, 47.058824%, 70.588235%)" stroke-opacity="1" stroke-miterlimit="10" d="M 283.152344 227.335938 C 283.152344 231.003906 277.652344 231.003906 277.652344 227.335938 C 277.652344 223.667969 283.152344 223.667969 283.152344 227.335938 "/>
<path fill-rule="nonzero" fill="rgb(70.196078%, 70.196078%, 70.196078%)" fill-opacity="1" stroke-width="1" stroke-linecap="butt" stroke-linejoin="miter" stroke="rgb(70.196078%, 70.196078%, 70.196078%)" stroke-opacity="1" stroke-miterlimit="10" d="M 382.289062 80.007812 C 382.289062 86.472656 372.589844 86.472656 372.589844 80.007812 C 372.589844 73.539062 382.289062 73.539062 382.289062 80.007812 "/>
<path fill-rule="nonzero" fill="rgb(70.196078%, 70.196078%, 70.196078%)" fill-opacity="1" stroke-width="1" stroke-linecap="butt" stroke-linejoin="miter" stroke="rgb(70.196078%, 70.196078%, 70.196078%)" stroke-opacity="1" stroke-miterlimit="10" d="M 271.035156 216.308594 C 271.035156 223.441406 260.335938 223.441406 260.335938 216.308594 C 260.335938 209.175781 271.035156 209.175781 271.035156 216.308594 "/>
<path fill-rule="nonzero" fill="rgb(70.196078%, 70.196078%, 70.196078%)" fill-opacity="1" stroke-width="1" stroke-linecap="butt" stroke-linejoin="miter" stroke="rgb(70.196078%, 70.196078%, 70.196078%)" stroke-opacity="1" stroke-miterlimit="10" d="M 558.175781 397.46875 C 558.175781 403.933594 548.476562 403.933594 548.476562 397.46875 C 548.476562 391 558.175781 391 558.175781 397.46875 "/>
<path fill-rule="nonzero" fill="rgb(12.156863%, 47.058824%, 70.588235%)" fill-opacity="1" stroke-width="1" stroke-linecap="butt" stroke-linejoin="miter" stroke="rgb(12.156863%, 47.058824%, 70.588235%)" stroke-opacity="1" stroke-miterlimit="10" d="M 96.867188 217.492188 C 96.867188 221.824219 90.367188 221.824219 90.367188 217.492188 C 90.367188 213.160156 96.867188 213.160156 96.867188 217.492188 "/>
<path fill-rule="nonzero" fill="rgb(12.156863%, 47.058824%, 70.588235%)" fill-opacity="1" stroke-width="1" stroke-linecap="butt" stroke-linejoin="miter" stroke="rgb(12.156863%, 47.058824%, 70.588235%)" stroke-opacity="1" stroke-miterlimit="10" d="M 146.238281 217.765625 C 146.238281 221.429688 140.738281 221.429688 140.738281 217.765625 C 140.738281 214.097656 146.238281 214.097656 146.238281 217.765625 "/>
<path fill-rule="nonzero" fill="rgb(70.196078%, 70.196078%, 70.196078%)" fill-opacity="1" stroke-width="1" stroke-linecap="butt" stroke-linejoin="miter" stroke="rgb(70.196078%, 70.196078%, 70.196078%)" stroke-opacity="1" stroke-miterlimit="10" d="M 302.207031 239.511719 C 302.207031 245.976562 292.503906 245.976562 292.503906 239.511719 C 292.503906 233.042969 302.207031 233.042969 302.207031 239.511719 "/>
<path fill-rule="nonzero" fill="rgb(70.196078%, 70.196078%, 70.196078%)" fill-opacity="1" stroke-width="1" stroke-linecap="butt" stroke-linejoin="miter" stroke="rgb(70.196078%, 70.196078%, 70.196078%)" stroke-opacity="1" stroke-miterlimit="10" d="M 350.296875 272.925781 C 350.296875 279.390625 340.597656 279.390625 340.597656 272.925781 C 340.597656 266.457031 350.296875 266.457031 350.296875 272.925781 "/>
<path fill-rule="nonzero" fill="rgb(70.196078%, 70.196078%, 70.196078%)" fill-opacity="1" stroke-width="1" stroke-linecap="butt" stroke-linejoin="miter" stroke="rgb(70.196078%, 70.196078%, 70.196078%)" stroke-opacity="1" stroke-miterlimit="10" d="M 402.117188 306.03125 C 402.117188 312.496094 392.417969 312.496094 392.417969 306.03125 C 392.417969 299.5625 402.117188 299.5625 402.117188 306.03125 "/>
<path fill-rule="nonzero" fill="rgb(70.196078%, 70.196078%, 70.196078%)" fill-opacity="1" stroke-width="1" stroke-linecap="butt" stroke-linejoin="miter" stroke="rgb(70.196078%, 70.196078%, 70.196078%)" stroke-opacity="1" stroke-miterlimit="10" d="M 293.203125 183.019531 C 293.203125 189.488281 283.503906 189.488281 283.503906 183.019531 C 283.503906 176.554688 293.203125 176.554688 293.203125 183.019531 "/>
<path fill-rule="nonzero" fill="rgb(70.196078%, 70.196078%, 70.196078%)" fill-opacity="1" stroke-width="1" stroke-linecap="butt" stroke-linejoin="miter" stroke="rgb(70.196078%, 70.196078%, 70.196078%)" stroke-opacity="1" stroke-miterlimit="10" d="M 607.402344 426.667969 C 607.402344 433.132812 597.703125 433.132812 597.703125 426.667969 C 597.703125 420.199219 607.402344 420.199219 607.402344 426.667969 "/>
<path fill-rule="nonzero" fill="rgb(70.196078%, 70.196078%, 70.196078%)" fill-opacity="1" stroke-width="1" stroke-linecap="butt" stroke-linejoin="miter" stroke="rgb(70.196078%, 70.196078%, 70.196078%)" stroke-opacity="1" stroke-miterlimit="10" d="M 506.449219 367.089844 C 506.449219 373.558594 496.75 373.558594 496.75 367.089844 C 496.75 360.625 506.449219 360.625 506.449219 367.089844 "/>
<path fill-rule="nonzero" fill="rgb(70.196078%, 70.196078%, 70.196078%)" fill-opacity="1" stroke-width="1" stroke-linecap="butt" stroke-linejoin="miter" stroke="rgb(70.196078%, 70.196078%, 70.196078%)" stroke-opacity="1" stroke-miterlimit="10" d="M 683.363281 488.878906 C 683.363281 495.347656 673.664062 495.347656 673.664062 488.878906 C 673.664062 482.414062 683.363281 482.414062 683.363281 488.878906 "/>
<path fill-rule="nonzero" fill="rgb(70.196078%, 70.196078%, 70.196078%)" fill-opacity="1" stroke-width="1" stroke-linecap="butt" stroke-linejoin="miter" stroke="rgb(70.196078%, 70.196078%, 70.196078%)" stroke-opacity="1" stroke-miterlimit="10" d="M 754.851562 604.589844 C 754.851562 611.054688 745.148438 611.054688 745.148438 604.589844 C 745.148438 598.121094 754.851562 598.121094 754.851562 604.589844 "/>
<path fill-rule="nonzero" fill="rgb(70.196078%, 70.196078%, 70.196078%)" fill-opacity="1" stroke-width="1" stroke-linecap="butt" stroke-linejoin="miter" stroke="rgb(70.196078%, 70.196078%, 70.196078%)" stroke-opacity="1" stroke-miterlimit="10" d="M 645.234375 457.757812 C 645.234375 464.226562 635.535156 464.226562 635.535156 457.757812 C 635.535156 451.292969 645.234375 451.292969 645.234375 457.757812 "/>
<path fill-rule="nonzero" fill="rgb(70.196078%, 70.196078%, 70.196078%)" fill-opacity="1" stroke-width="1" stroke-linecap="butt" stroke-linejoin="miter" stroke="rgb(70.196078%, 70.196078%, 70.196078%)" stroke-opacity="1" stroke-miterlimit="10" d="M 754.277344 632.78125 C 754.277344 639.25 744.578125 639.25 744.578125 632.78125 C 744.578125 626.316406 754.277344 626.316406 754.277344 632.78125 "/>
<path fill-rule="nonzero" fill="rgb(70.196078%, 70.196078%, 70.196078%)" fill-opacity="1" stroke-width="1" stroke-linecap="butt" stroke-linejoin="miter" stroke="rgb(70.196078%, 70.196078%, 70.196078%)" stroke-opacity="1" stroke-miterlimit="10" d="M 749.800781 576.679688 C 749.800781 583.148438 740.101562 583.148438 740.101562 576.679688 C 740.101562 570.214844 749.800781 570.214844 749.800781 576.679688 "/>
<path fill-rule="nonzero" fill="rgb(70.196078%, 70.196078%, 70.196078%)" fill-opacity="1" stroke-width="1" stroke-linecap="butt" stroke-linejoin="miter" stroke="rgb(70.196078%, 70.196078%, 70.196078%)" stroke-opacity="1" stroke-miterlimit="10" d="M 739.691406 548.050781 C 739.691406 554.519531 729.992188 554.519531 729.992188 548.050781 C 729.992188 541.585938 739.691406 541.585938 739.691406 548.050781 "/>
<path fill-rule="nonzero" fill="rgb(70.196078%, 70.196078%, 70.196078%)" fill-opacity="1" stroke-width="1" stroke-linecap="butt" stroke-linejoin="miter" stroke="rgb(70.196078%, 70.196078%, 70.196078%)" stroke-opacity="1" stroke-miterlimit="10" d="M 712.261719 518.789062 C 712.261719 525.257812 702.558594 525.257812 702.558594 518.789062 C 702.558594 512.324219 712.261719 512.324219 712.261719 518.789062 "/>
<path fill-rule="nonzero" fill="rgb(70.196078%, 70.196078%, 70.196078%)" fill-opacity="1" stroke-width="1" stroke-linecap="butt" stroke-linejoin="miter" stroke="rgb(70.196078%, 70.196078%, 70.196078%)" stroke-opacity="1" stroke-miterlimit="10" d="M 733.886719 662.636719 C 733.886719 669.105469 724.1875 669.105469 724.1875 662.636719 C 724.1875 656.171875 733.886719 656.171875 733.886719 662.636719 "/>
<path fill-rule="nonzero" fill="rgb(70.196078%, 70.196078%, 70.196078%)" fill-opacity="1" stroke-width="1" stroke-linecap="butt" stroke-linejoin="miter" stroke="rgb(70.196078%, 70.196078%, 70.196078%)" stroke-opacity="1" stroke-miterlimit="10" d="M 714.425781 687.523438 C 714.425781 693.988281 704.726562 693.988281 704.726562 687.523438 C 704.726562 681.054688 714.425781 681.054688 714.425781 687.523438 "/>
<path fill-rule="nonzero" fill="rgb(70.196078%, 70.196078%, 70.196078%)" fill-opacity="1" stroke-width="1" stroke-linecap="butt" stroke-linejoin="miter" stroke="rgb(70.196078%, 70.196078%, 70.196078%)" stroke-opacity="1" stroke-miterlimit="10" d="M 180.9375 733.078125 C 180.9375 739.542969 171.238281 739.542969 171.238281 733.078125 C 171.238281 726.609375 180.9375 726.609375 180.9375 733.078125 "/>
<path fill-rule="nonzero" fill="rgb(70.196078%, 70.196078%, 70.196078%)" fill-opacity="1" stroke-width="1" stroke-linecap="butt" stroke-linejoin="miter" stroke="rgb(70.196078%, 70.196078%, 70.196078%)" stroke-opacity="1" stroke-miterlimit="10" d="M 680.457031 707.519531 C 680.457031 713.984375 670.753906 713.984375 670.753906 707.519531 C 670.753906 701.050781 680.457031 701.050781 680.457031 707.519531 "/>
<path fill-rule="nonzero" fill="rgb(70.196078%, 70.196078%, 70.196078%)" fill-opacity="1" stroke-width="1" stroke-linecap="butt" stroke-linejoin="miter" stroke="rgb(70.196078%, 70.196078%, 70.196078%)" stroke-opacity="1" stroke-miterlimit="10" d="M 550.738281 744.0625 C 550.738281 750.527344 541.039062 750.527344 541.039062 744.0625 C 541.039062 737.59375 550.738281 737.59375 550.738281 744.0625 "/>
<path fill-rule="nonzero" fill="rgb(70.196078%, 70.196078%, 70.196078%)" fill-opacity="1" stroke-width="1" stroke-linecap="butt" stroke-linejoin="miter" stroke="rgb(70.196078%, 70.196078%, 70.196078%)" stroke-opacity="1" stroke-miterlimit="10" d="M 639.230469 725.5 C 639.230469 731.964844 629.53125 731.964844 629.53125 725.5 C 629.53125 719.03125 639.230469 719.03125 639.230469 725.5 "/>
<path fill-rule="nonzero" fill="rgb(70.196078%, 70.196078%, 70.196078%)" fill-opacity="1" stroke-width="1" stroke-linecap="butt" stroke-linejoin="miter" stroke="rgb(70.196078%, 70.196078%, 70.196078%)" stroke-opacity="1" stroke-miterlimit="10" d="M 598.371094 736.53125 C 598.371094 743 588.671875 743 588.671875 736.53125 C 588.671875 730.066406 598.371094 730.066406 598.371094 736.53125 "/>
<path fill-rule="nonzero" fill="rgb(70.196078%, 70.196078%, 70.196078%)" fill-opacity="1" stroke-width="1" stroke-linecap="butt" stroke-linejoin="miter" stroke="rgb(70.196078%, 70.196078%, 70.196078%)" stroke-opacity="1" stroke-miterlimit="10" d="M 503.003906 750 C 503.003906 756.464844 493.300781 756.464844 493.300781 750 C 493.300781 743.535156 503.003906 743.535156 503.003906 750 "/>
<path fill-rule="nonzero" fill="rgb(70.196078%, 70.196078%, 70.196078%)" fill-opacity="1" stroke-width="1" stroke-linecap="butt" stroke-linejoin="miter" stroke="rgb(70.196078%, 70.196078%, 70.196078%)" stroke-opacity="1" stroke-miterlimit="10" d="M 395.785156 748.335938 C 395.785156 754.800781 386.082031 754.800781 386.082031 748.335938 C 386.082031 741.871094 395.785156 741.871094 395.785156 748.335938 "/>
<path fill-rule="nonzero" fill="rgb(70.196078%, 70.196078%, 70.196078%)" fill-opacity="1" stroke-width="1" stroke-linecap="butt" stroke-linejoin="miter" stroke="rgb(70.196078%, 70.196078%, 70.196078%)" stroke-opacity="1" stroke-miterlimit="10" d="M 447.621094 749.375 C 447.621094 755.839844 437.921875 755.839844 437.921875 749.375 C 437.921875 742.90625 447.621094 742.90625 447.621094 749.375 "/>
<path fill-rule="nonzero" fill="rgb(70.196078%, 70.196078%, 70.196078%)" fill-opacity="1" stroke-width="1" stroke-linecap="butt" stroke-linejoin="miter" stroke="rgb(70.196078%, 70.196078%, 70.196078%)" stroke-opacity="1" stroke-miterlimit="10" d="M 128.660156 726.25 C 128.660156 732.714844 118.957031 732.714844 118.957031 726.25 C 118.957031 719.78125 128.660156 719.78125 128.660156 726.25 "/>
<path fill-rule="nonzero" fill="rgb(70.196078%, 70.196078%, 70.196078%)" fill-opacity="1" stroke-width="1" stroke-linecap="butt" stroke-linejoin="miter" stroke="rgb(70.196078%, 70.196078%, 70.196078%)" stroke-opacity="1" stroke-miterlimit="10" d="M 256.527344 742.394531 C 256.527344 748.859375 246.828125 748.859375 246.828125 742.394531 C 246.828125 735.925781 256.527344 735.925781 256.527344 742.394531 "/>
<path fill-rule="nonzero" fill="rgb(70.196078%, 70.196078%, 70.196078%)" fill-opacity="1" stroke-width="1" stroke-linecap="butt" stroke-linejoin="miter" stroke="rgb(70.196078%, 70.196078%, 70.196078%)" stroke-opacity="1" stroke-miterlimit="10" d="M 345.578125 747.480469 C 345.578125 753.945312 335.878906 753.945312 335.878906 747.480469 C 335.878906 741.011719 345.578125 741.011719 345.578125 747.480469 "/>
<path fill-rule="nonzero" fill="rgb(70.196078%, 70.196078%, 70.196078%)" fill-opacity="1" stroke-width="1" stroke-linecap="butt" stroke-linejoin="miter" stroke="rgb(70.196078%, 70.196078%, 70.196078%)" stroke-opacity="1" stroke-miterlimit="10" d="M 298.613281 745.96875 C 298.613281 752.4375 288.914062 752.4375 288.914062 745.96875 C 288.914062 739.503906 298.613281 739.503906 298.613281 745.96875 "/>
<path fill-rule="nonzero" fill="rgb(70.196078%, 70.196078%, 70.196078%)" fill-opacity="1" stroke-width="1" stroke-linecap="butt" stroke-linejoin="miter" stroke="rgb(70.196078%, 70.196078%, 70.196078%)" stroke-opacity="1" stroke-miterlimit="10" d="M 216.503906 738.84375 C 216.503906 745.3125 206.804688 745.3125 206.804688 738.84375 C 206.804688 732.378906 216.503906 732.378906 216.503906 738.84375 "/>
<path fill-rule="nonzero" fill="rgb(100%, 84.313725%, 0%)" fill-opacity="1" stroke-width="1" stroke-linecap="butt" stroke-linejoin="miter" stroke="rgb(100%, 84.313725%, 0%)" stroke-opacity="1" stroke-miterlimit="10" d="M 104.417969 718.511719 L 115.117188 718.511719 L 115.117188 729.210938 L 104.417969 729.210938 Z M 104.417969 718.511719 "/>
<path fill-rule="nonzero" fill="rgb(70.196078%, 70.196078%, 70.196078%)" fill-opacity="1" stroke-width="1" stroke-linecap="butt" stroke-linejoin="miter" stroke="rgb(70.196078%, 70.196078%, 70.196078%)" stroke-opacity="1" stroke-miterlimit="10" d="M 147.199219 727.558594 C 147.199219 734.023438 137.5 734.023438 137.5 727.558594 C 137.5 721.089844 147.199219 721.089844 147.199219 727.558594 "/>
</svg>
