<?xml version="1.0" encoding="UTF-8"?>
<svg xmlns="http://www.w3.org/2000/svg" xmlns:xlink="http://www.w3.org/1999/xlink" width="800" height="800" viewBox="0 0 800 800">
<rect x="-80" y="-80" width="960" height="960" fill="rgb(100%, 100%, 100%)" fill-opacity="1"/>
<path fill="none" stroke-width="2.5" stroke-linecap="butt" stroke-linejoin="miter" stroke="rgb(70.196078%, 70.196078%, 70.196078%)" stroke-opacity="1" stroke-miterlimit="10" d="M 288.90625 723.898438 C 288.757812 729.347656 290.074219 734.929688 294.648438 737.660156 "/>
<path fill-rule="nonzero" fill="rgb(70.196078%, 70.196078%, 70.196078%)" fill-opacity="1" d="M 300.769531 741.320312 L 293.457031 739.652344 L 295.835938 735.671875 L 300.769531 741.320312 "/>
<path fill="none" stroke-width="2.5" stroke-linecap="butt" stroke-linejoin="miter" stroke="rgb(70.196078%, 70.196078%, 70.196078%)" stroke-opacity="1" stroke-miterlimit="10" d="M 304.933594 743.808594 C 303.855469 742.320312 301.679688 742.296875 300.578125 741.308594 "/>
<path fill-rule="nonzero" fill="rgb(70.196078%, 70.196078%, 70.196078%)" fill-opacity="1" d="M 305.890625 746.066406 L 299.03125 743.035156 L 302.121094 739.582031 L 305.890625 746.066406 "/>
<path fill="none" stroke-width="2.5" stroke-linecap="butt" stroke-linejoin="miter" stroke="rgb(70.196078%, 70.196078%, 70.196078%)" stroke-opacity="1" stroke-miterlimit="10" d="M 229.933594 645.425781 C 232.242188 663.203125 240.21875 678.136719 255.648438 687.179688 "/>
<path fill-rule="nonzero" fill="rgb(70.196078%, 70.196078%, 70.196078%)" fill-opacity="1" d="M 261.804688 690.785156 L 254.480469 689.179688 L 256.820312 685.179688 L 261.804688 690.785156 "/>
<path fill="none" stroke-width="1.5" stroke-linecap="butt" stroke-linejoin="miter" stroke="rgb(30.196078%, 68.627451%, 29.019608%)" stroke-opacity="1" stroke-miterlimit="10" d="M 266.054688 693.273438 C 266.527344 703.109375 269.980469 712.113281 278.28125 717.28125 "/>
<path fill-rule="nonzero" fill="rgb(30.196078%, 68.627451%, 29.019608%)" fill-opacity="1" d="M 284.335938 721.050781 L 277.054688 719.246094 L 279.507812 715.3125 L 284.335938 721.050781 "/>
<path fill="none" stroke-width="1.5" stroke-linecap="butt" stroke-linejoin="miter" stroke="rgb(99.215686%, 74.901961%, 43.529412%)" stroke-opacity="1" stroke-miterlimit="10" d="M 266.054688 693.273438 C 265.511719 697.71875 266.097656 702.550781 269.691406 704.96875 "/>
<path fill-rule="nonzero" fill="rgb(99.215686%, 74.901961%, 43.529412%)" fill-opacity="1" d="M 275.609375 708.949219 L 268.398438 706.890625 L 270.984375 703.042969 L 275.609375 708.949219 "/>
<path fill="none" stroke-width="1.5" stroke-linecap="butt" stroke-linejoin="miter" stroke="rgb(99.215686%, 74.901961%, 43.529412%)" stroke-opacity="1" stroke-miterlimit="10" d="M 277.910156 710.496094 C 277.070312 712.683594 276.558594 715.773438 278.269531 716.898438 "/>
<path fill-rule="nonzero" fill="rgb(99.215686%, 74.901961%, 43.529412%)" fill-opacity="1" d="M 284.226562 720.816406 L 276.992188 718.832031 L 279.542969 714.960938 L 284.226562 720.816406 "/>
<path fill="none" stroke-width="2.5" stroke-linecap="butt" stroke-linejoin="miter" stroke="rgb(70.196078%, 70.196078%, 70.196078%)" stroke-opacity="1" stroke-miterlimit="10" d="M 190.621094 585.632812 C 192.476562 607.824219 201.675781 626.558594 220.167969 638.90625 "/>
<path fill-rule="nonzero" fill="rgb(70.196078%, 70.196078%, 70.196078%)" fill-opacity="1" d="M 226.101562 642.867188 L 218.882812 640.835938 L 221.457031 636.980469 L 226.101562 642.867188 "/>
<path fill="none" stroke-width="1.5" stroke-linecap="butt" stroke-linejoin="miter" stroke="rgb(98.431373%, 60.392157%, 60%)" stroke-opacity="1" stroke-miterlimit="10" d="M 61.242188 420.324219 C 61.199219 419.210938 59.828125 417.679688 59.886719 417.59375 "/>
<path fill-rule="nonzero" fill="rgb(98.431373%, 60.392157%, 60%)" fill-opacity="1" d="M 55.894531 423.507812 L 57.96875 416.296875 L 61.808594 418.890625 L 55.894531 423.507812 "/>
<path fill="none" stroke-width="2.5" stroke-linecap="butt" stroke-linejoin="miter" stroke="rgb(70.196078%, 70.196078%, 70.196078%)" stroke-opacity="1" stroke-miterlimit="10" d="M 93.558594 390.554688 C 90.078125 404.710938 91.570312 418.539062 100.777344 429.78125 "/>
<path fill-rule="nonzero" fill="rgb(70.196078%, 70.196078%, 70.196078%)" fill-opacity="1" d="M 105.296875 435.300781 L 98.984375 431.25 L 102.570312 428.3125 L 105.296875 435.300781 "/>
<path fill="none" stroke-width="1.5" stroke-linecap="butt" stroke-linejoin="miter" stroke="rgb(41.568627%, 23.921569%, 60.392157%)" stroke-opacity="1" stroke-miterlimit="10" d="M 158.90625 577.570312 C 156.230469 580.773438 154.175781 584.902344 155.824219 588.570312 "/>
<path fill-rule="nonzero" fill="rgb(41.568627%, 23.921569%, 60.392157%)" fill-opacity="1" d="M 158.75 595.078125 L 153.710938 589.519531 L 157.9375 587.621094 L 158.75 595.078125 "/>
<path fill="none" stroke-width="2.5" stroke-linecap="butt" stroke-linejoin="miter" stroke="rgb(70.196078%, 70.196078%, 70.196078%)" stroke-opacity="1" stroke-miterlimit="10" d="M 151.199219 524.53125 C 152.925781 547.152344 162.167969 566.292969 180.910156 579.03125 "/>
<path fill-rule="nonzero" fill="rgb(70.196078%, 70.196078%, 70.196078%)" fill-opacity="1" d="M 186.808594 583.039062 L 179.605469 580.949219 L 182.210938 577.113281 L 186.808594 583.039062 "/>
<path fill="none" stroke-width="1.5" stroke-linecap="butt" stroke-linejoin="miter" stroke="rgb(41.568627%, 23.921569%, 60.392157%)" stroke-opacity="1" stroke-miterlimit="10" d="M 151.199219 524.53125 C 148.402344 529.71875 147.054688 535.667969 150.050781 540.617188 "/>
<path fill-rule="nonzero" fill="rgb(41.568627%, 23.921569%, 60.392157%)" fill-opacity="1" d="M 153.742188 546.71875 L 148.066406 541.816406 L 152.03125 539.417969 L 153.742188 546.71875 "/>
<path fill="none" stroke-width="3.5" stroke-linecap="butt" stroke-linejoin="miter" stroke="rgb(70.196078%, 70.196078%, 70.196078%)" stroke-opacity="1" stroke-miterlimit="10" d="M 108.730469 439.488281 C 108.273438 470.332031 118.679688 497.050781 142.222656 516.945312 "/>
<path fill-rule="nonzero" fill="rgb(70.196078%, 70.196078%, 70.196078%)" fill-opacity="1" d="M 147.671875 521.550781 L 140.726562 518.714844 L 143.71875 515.175781 L 147.671875 521.550781 "/>
<path fill="none" stroke-width="1.5" stroke-linecap="butt" stroke-linejoin="miter" stroke="rgb(98.431373%, 60.392157%, 60%)" stroke-opacity="1" stroke-miterlimit="10" d="M 108.730469 439.488281 C 106.859375 435.988281 103.9375 432.65625 100.136719 432.859375 "/>
<path fill-rule="nonzero" fill="rgb(98.431373%, 60.392157%, 60%)" fill-opacity="1" d="M 93.015625 433.238281 L 100.015625 430.542969 L 100.261719 435.171875 L 93.015625 433.238281 "/>
<path fill="none" stroke-width="1.5" stroke-linecap="butt" stroke-linejoin="miter" stroke="rgb(98.431373%, 60.392157%, 60%)" stroke-opacity="1" stroke-miterlimit="10" d="M 54.285156 425.894531 C 56.269531 425.09375 56.929688 422.863281 58.339844 421.671875 "/>
<path fill-rule="nonzero" fill="rgb(98.431373%, 60.392157%, 60%)" fill-opacity="1" d="M 52.886719 426.269531 L 56.847656 419.898438 L 59.835938 423.441406 L 52.886719 426.269531 "/>
<path fill="none" stroke-width="2.5" stroke-linecap="butt" stroke-linejoin="miter" stroke="rgb(70.196078%, 70.196078%, 70.196078%)" stroke-opacity="1" stroke-miterlimit="10" d="M 81.511719 351.578125 C 78.5625 362.125 79.144531 372.734375 85.992188 381.199219 "/>
<path fill-rule="nonzero" fill="rgb(70.196078%, 70.196078%, 70.196078%)" fill-opacity="1" d="M 90.476562 386.746094 L 84.1875 382.65625 L 87.792969 379.742188 L 90.476562 386.746094 "/>
<path fill="none" stroke-width="1.5" stroke-linecap="butt" stroke-linejoin="miter" stroke="rgb(98.431373%, 60.392157%, 60%)" stroke-opacity="1" stroke-miterlimit="10" d="M 73.328125 417.453125 C 72.433594 416.046875 70.558594 414.277344 69.519531 414.949219 "/>
<path fill-rule="nonzero" fill="rgb(98.431373%, 60.392157%, 60%)" fill-opacity="1" d="M 63.539062 418.832031 L 68.261719 413.003906 L 70.78125 416.894531 L 63.539062 418.832031 "/>
<path fill="none" stroke-width="1.5" stroke-linecap="butt" stroke-linejoin="miter" stroke="rgb(98.431373%, 60.392157%, 60%)" stroke-opacity="1" stroke-miterlimit="10" d="M 90.253906 433.382812 C 89.53125 428.128906 87.375 422.976562 82.550781 421.078125 "/>
<path fill-rule="nonzero" fill="rgb(98.431373%, 60.392157%, 60%)" fill-opacity="1" d="M 75.914062 418.46875 L 83.398438 418.921875 L 81.703125 423.238281 L 75.914062 418.46875 "/>
<path fill="none" stroke-width="1.5" stroke-linecap="butt" stroke-linejoin="miter" stroke="rgb(41.568627%, 23.921569%, 60.392157%)" stroke-opacity="1" stroke-miterlimit="10" d="M 159.882812 597.601562 C 157.945312 599.082031 155.851562 601.488281 156.714844 603.46875 "/>
<path fill-rule="nonzero" fill="rgb(41.568627%, 23.921569%, 60.392157%)" fill-opacity="1" d="M 159.554688 610.007812 L 154.585938 604.390625 L 158.839844 602.542969 L 159.554688 610.007812 "/>
<path fill="none" stroke-width="1.5" stroke-linecap="butt" stroke-linejoin="miter" stroke="rgb(41.568627%, 23.921569%, 60.392157%)" stroke-opacity="1" stroke-miterlimit="10" d="M 155.179688 549.097656 C 151.804688 555.539062 150.425781 562.71875 153.988281 568.957031 "/>
<path fill-rule="nonzero" fill="rgb(41.568627%, 23.921569%, 60.392157%)" fill-opacity="1" d="M 157.527344 575.152344 L 151.976562 570.105469 L 156 567.808594 L 157.527344 575.152344 "/>
<path fill="none" stroke-width="1.5" stroke-linecap="butt" stroke-linejoin="miter" stroke="rgb(98.431373%, 60.392157%, 60%)" stroke-opacity="1" stroke-miterlimit="10" d="M 74.289062 318.058594 C 70.957031 325.800781 70.101562 334.125 74.667969 341.113281 "/>
<path fill-rule="nonzero" fill="rgb(98.431373%, 60.392157%, 60%)" fill-opacity="1" d="M 78.570312 347.082031 L 72.726562 342.378906 L 76.609375 339.84375 L 78.570312 347.082031 "/>
<path fill="none" stroke-width="1.5" stroke-linecap="butt" stroke-linejoin="miter" stroke="rgb(12.156863%, 47.058824%, 70.588235%)" stroke-opacity="1" stroke-miterlimit="10" d="M 745.804688 56.59375 C 744.167969 58.789062 742.722656 61.886719 744.191406 63.910156 "/>
<path fill-rule="nonzero" fill="rgb(12.156863%, 47.058824%, 70.588235%)" fill-opacity="1" d="M 748.382812 69.683594 L 742.316406 65.269531 L 746.066406 62.546875 L 748.382812 69.683594 "/>
<path fill="none" stroke-width="2.5" stroke-linecap="butt" stroke-linejoin="miter" stroke="rgb(70.196078%, 70.196078%, 70.196078%)" stroke-opacity="1" stroke-miterlimit="10" d="M 92.738281 375.984375 C 89.753906 382.984375 88.929688 390.574219 93.152344 396.792969 "/>
<path fill-rule="nonzero" fill="rgb(70.196078%, 70.196078%, 70.196078%)" fill-opacity="1" d="M 97.160156 402.695312 L 91.234375 398.097656 L 95.070312 395.492188 L 97.160156 402.695312 "/>
<path fill="none" stroke-width="2.5" stroke-linecap="butt" stroke-linejoin="miter" stroke="rgb(70.196078%, 70.196078%, 70.196078%)" stroke-opacity="1" stroke-miterlimit="10" d="M 99.898438 406.726562 C 96.988281 414.496094 96.53125 422.738281 101.367188 429.378906 "/>
<path fill-rule="nonzero" fill="rgb(70.196078%, 70.196078%, 70.196078%)" fill-opacity="1" d="M 105.566406 435.144531 L 99.492188 430.746094 L 103.242188 428.015625 L 105.566406 435.144531 "/>
<path fill="none" stroke-width="1.5" stroke-linecap="butt" stroke-linejoin="miter" stroke="rgb(12.156863%, 47.058824%, 70.588235%)" stroke-opacity="1" stroke-miterlimit="10" d="M 739.445312 59.609375 C 738.136719 58.675781 736.15625 59.335938 735.136719 58.746094 "/>
<path fill-rule="nonzero" fill="rgb(12.156863%, 47.058824%, 70.588235%)" fill-opacity="1" d="M 741.3125 62.320312 L 733.976562 60.75 L 736.300781 56.738281 L 741.3125 62.320312 "/>
<path fill="none" stroke-width="1.5" stroke-linecap="butt" stroke-linejoin="miter" stroke="rgb(12.156863%, 47.058824%, 70.588235%)" stroke-opacity="1" stroke-miterlimit="10" d="M 750 71.910156 C 752.722656 72.179688 754.722656 70.375 757.09375 69.519531 "/>
<path fill-rule="nonzero" fill="rgb(12.156863%, 47.058824%, 70.588235%)" fill-opacity="1" d="M 750.382812 71.9375 L 756.308594 67.339844 L 757.878906 71.703125 L 750.382812 71.9375 "/>
<path fill="none" stroke-width="3.5" stroke-linecap="butt" stroke-linejoin="miter" stroke="rgb(70.196078%, 70.196078%, 70.196078%)" stroke-opacity="1" stroke-miterlimit="10" d="M 84.433594 331.894531 C 83.066406 332.15625 80.992188 333.332031 81.316406 334.074219 "/>
<path fill-rule="nonzero" fill="rgb(70.196078%, 70.196078%, 70.196078%)" fill-opacity="1" d="M 84.152344 340.621094 L 79.191406 335 L 83.441406 333.152344 L 84.152344 340.621094 "/>
<path fill="none" stroke-width="1.5" stroke-linecap="butt" stroke-linejoin="miter" stroke="rgb(98.431373%, 60.392157%, 60%)" stroke-opacity="1" stroke-miterlimit="10" d="M 70.132812 301.988281 C 68.414062 304.417969 66.976562 307.734375 68.570312 309.988281 "/>
<path fill-rule="nonzero" fill="rgb(98.431373%, 60.392157%, 60%)" fill-opacity="1" d="M 72.695312 315.808594 L 66.679688 311.328125 L 70.464844 308.648438 L 72.695312 315.808594 "/>
<path fill="none" stroke-width="1.5" stroke-linecap="butt" stroke-linejoin="miter" stroke="rgb(12.156863%, 47.058824%, 70.588235%)" stroke-opacity="1" stroke-miterlimit="10" d="M 743.757812 63.738281 C 745.308594 63.78125 747.730469 63.179688 747.675781 62.105469 "/>
<path fill-rule="nonzero" fill="rgb(12.156863%, 47.058824%, 70.588235%)" fill-opacity="1" d="M 747.320312 54.980469 L 749.988281 61.988281 L 745.359375 62.21875 L 747.320312 54.980469 "/>
<path fill="none" stroke-width="1.5" stroke-linecap="butt" stroke-linejoin="miter" stroke="rgb(12.156863%, 47.058824%, 70.588235%)" stroke-opacity="1" stroke-miterlimit="10" d="M 747.789062 72.871094 C 746.550781 72.867188 744.492188 73.769531 744.699219 74.253906 "/>
<path fill-rule="nonzero" fill="rgb(12.156863%, 47.058824%, 70.588235%)" fill-opacity="1" d="M 747.507812 80.808594 L 742.570312 75.167969 L 746.828125 73.339844 L 747.507812 80.808594 "/>
<path fill="none" stroke-width="1.5" stroke-linecap="butt" stroke-linejoin="miter" stroke="rgb(12.156863%, 47.058824%, 70.588235%)" stroke-opacity="1" stroke-miterlimit="10" d="M 747.183594 52.25 C 747.980469 50.40625 746.878906 48.429688 747.101562 46.753906 "/>
<path fill-rule="nonzero" fill="rgb(12.156863%, 47.058824%, 70.588235%)" fill-opacity="1" d="M 746.167969 53.824219 L 744.804688 46.449219 L 749.398438 47.054688 L 746.167969 53.824219 "/>
<path fill="none" stroke-width="1.5" stroke-linecap="butt" stroke-linejoin="miter" stroke="rgb(41.568627%, 23.921569%, 60.392157%)" stroke-opacity="1" stroke-miterlimit="10" d="M 86.160156 345.25 C 87.292969 343.863281 86.757812 341.777344 87.425781 340.523438 "/>
<path fill-rule="nonzero" fill="rgb(41.568627%, 23.921569%, 60.392157%)" fill-opacity="1" d="M 84.0625 346.8125 L 85.382812 339.429688 L 89.46875 341.617188 L 84.0625 346.8125 "/>
<path fill="none" stroke-width="2.5" stroke-linecap="butt" stroke-linejoin="miter" stroke="rgb(70.196078%, 70.196078%, 70.196078%)" stroke-opacity="1" stroke-miterlimit="10" d="M 86.160156 345.25 C 83.066406 352.144531 82.09375 359.675781 86.175781 365.929688 "/>
<path fill-rule="nonzero" fill="rgb(70.196078%, 70.196078%, 70.196078%)" fill-opacity="1" d="M 90.074219 371.902344 L 84.234375 367.195312 L 88.117188 364.664062 L 90.074219 371.902344 "/>
<path fill="none" stroke-width="1.5" stroke-linecap="butt" stroke-linejoin="miter" stroke="rgb(12.156863%, 47.058824%, 70.588235%)" stroke-opacity="1" stroke-miterlimit="10" d="M 736.226562 50 C 735.058594 50.175781 733.265625 51.425781 733.507812 51.75 "/>
<path fill-rule="nonzero" fill="rgb(12.156863%, 47.058824%, 70.588235%)" fill-opacity="1" d="M 737.804688 57.441406 L 731.65625 53.144531 L 735.355469 50.351562 L 737.804688 57.441406 "/>
<path fill-rule="nonzero" fill="rgb(70.196078%, 70.196078%, 70.196078%)" fill-opacity="1" stroke-width="1" stroke-linecap="butt" stroke-linejoin="miter" stroke="rgb(70.196078%, 70.196078%, 70.196078%)" stroke-opacity="1" stroke-miterlimit="10" d="M 294.257812 723.898438 C 294.257812 731.03125 283.558594 731.03125 283.558594 723.898438 C 283.558594 716.765625 294.257812 716.765625 294.257812 723.898438 "/>
<path fill-rule="nonzero" fill="rgb(70.196078%, 70.196078%, 70.196078%)" fill-opacity="1" stroke-width="1" stroke-linecap="butt" stroke-linejoin="miter" stroke="rgb(70.196078%, 70.196078%, 70.196078%)" stroke-opacity="1" stroke-miterlimit="10" d="M 309.78125 743.808594 C 309.78125 750.277344 300.082031 750.277344 300.082031 743.808594 C 300.082031 737.34375 309.78125 737.34375 309.78125 743.808594 "/>
<path fill-rule="nonzero" fill="rgb(70.196078%, 70.196078%, 70.196078%)" fill-opacity="1" stroke-width="1" stroke-linecap="butt" stroke-linejoin="miter" stroke="rgb(70.196078%, 70.196078%, 70.196078%)" stroke-opacity="1" stroke-miterlimit="10" d="M 234.785156 645.425781 C 234.785156 651.894531 225.085938 651.894531 225.085938 645.425781 C 225.085938 638.960938 234.785156 638.960938 234.785156 645.425781 "/>
<path fill-rule="nonzero" fill="rgb(70.196078%, 70.196078%, 70.196078%)" fill-opacity="1" stroke-width="1" stroke-linecap="butt" stroke-linejoin="miter" stroke="rgb(70.196078%, 70.196078%, 70.196078%)" stroke-opacity="1" stroke-miterlimit="10" d="M 270.902344 693.273438 C 270.902344 699.742188 261.203125 699.742188 261.203125 693.273438 C 261.203125 686.808594 270.902344 686.808594 270.902344 693.273438 "/>
<path fill-rule="nonzero" fill="rgb(14.901961%, 14.901961%, 14.901961%)" fill-opacity="1" stroke-width="1" stroke-linecap="butt" stroke-linejoin="miter" stroke="rgb(14.901961%, 14.901961%, 14.901961%)" stroke-opacity="1" stroke-miterlimit="10" d="M 304.433594 755.851562 L 310.285156 744.148438 L 316.136719 755.851562 Z M 304.433594 755.851562 "/>
<path fill-rule="nonzero" fill="rgb(99.215686%, 74.901961%, 43.529412%)" fill-opacity="1" stroke-width="1" stroke-linecap="butt" stroke-linejoin="miter" stroke="rgb(99.215686%, 74.901961%, 43.529412%)" stroke-opacity="1" stroke-miterlimit="10" d="M 280.660156 710.496094 C 280.660156 714.160156 275.160156 714.160156 275.160156 710.496094 C 275.160156 706.828125 280.660156 706.828125 280.660156 710.496094 "/>
<path fill-rule="nonzero" fill="rgb(70.196078%, 70.196078%, 70.196078%)" fill-opacity="1" stroke-width="1" stroke-linecap="butt" stroke-linejoin="miter" stroke="rgb(70.196078%, 70.196078%, 70.196078%)" stroke-opacity="1" stroke-miterlimit="10" d="M 195.46875 585.632812 C 195.46875 592.097656 185.769531 592.097656 185.769531 585.632812 C 185.769531 579.164062 195.46875 579.164062 195.46875 585.632812 "/>
<path fill-rule="nonzero" fill="rgb(98.431373%, 60.392157%, 60%)" fill-opacity="1" stroke-width="1" stroke-linecap="butt" stroke-linejoin="miter" stroke="rgb(98.431373%, 60.392157%, 60%)" stroke-opacity="1" stroke-miterlimit="10" d="M 63.992188 420.324219 C 63.992188 423.988281 58.492188 423.988281 58.492188 420.324219 C 58.492188 416.65625 63.992188 416.65625 63.992188 420.324219 "/>
<path fill-rule="nonzero" fill="rgb(14.901961%, 14.901961%, 14.901961%)" fill-opacity="1" stroke-width="1" stroke-linecap="butt" stroke-linejoin="miter" stroke="rgb(14.901961%, 14.901961%, 14.901961%)" stroke-opacity="1" stroke-miterlimit="10" d="M 157.289062 617.175781 L 161.039062 609.675781 L 164.789062 617.175781 Z M 157.289062 617.175781 "/>
<path fill-rule="nonzero" fill="rgb(70.196078%, 70.196078%, 70.196078%)" fill-opacity="1" stroke-width="1" stroke-linecap="butt" stroke-linejoin="miter" stroke="rgb(70.196078%, 70.196078%, 70.196078%)" stroke-opacity="1" stroke-miterlimit="10" d="M 98.40625 390.554688 C 98.40625 397.019531 88.707031 397.019531 88.707031 390.554688 C 88.707031 384.085938 98.40625 384.085938 98.40625 390.554688 "/>
<path fill-rule="nonzero" fill="rgb(41.568627%, 23.921569%, 60.392157%)" fill-opacity="1" stroke-width="1" stroke-linecap="butt" stroke-linejoin="miter" stroke="rgb(41.568627%, 23.921569%, 60.392157%)" stroke-opacity="1" stroke-miterlimit="10" d="M 161.65625 577.570312 C 161.65625 581.238281 156.15625 581.238281 156.15625 577.570312 C 156.15625 573.902344 161.65625 573.902344 161.65625 577.570312 "/>
<path fill-rule="nonzero" fill="rgb(70.196078%, 70.196078%, 70.196078%)" fill-opacity="1" stroke-width="1" stroke-linecap="butt" stroke-linejoin="miter" stroke="rgb(70.196078%, 70.196078%, 70.196078%)" stroke-opacity="1" stroke-miterlimit="10" d="M 156.050781 524.53125 C 156.050781 530.996094 146.347656 530.996094 146.347656 524.53125 C 146.347656 518.0625 156.050781 518.0625 156.050781 524.53125 "/>
<path fill-rule="nonzero" fill="rgb(70.196078%, 70.196078%, 70.196078%)" fill-opacity="1" stroke-width="1" stroke-linecap="butt" stroke-linejoin="miter" stroke="rgb(70.196078%, 70.196078%, 70.196078%)" stroke-opacity="1" stroke-miterlimit="10" d="M 114.078125 439.488281 C 114.078125 446.621094 103.378906 446.621094 103.378906 439.488281 C 103.378906 432.355469 114.078125 432.355469 114.078125 439.488281 "/>
<path fill-rule="nonzero" fill="rgb(98.431373%, 60.392157%, 60%)" fill-opacity="1" stroke-width="1" stroke-linecap="butt" stroke-linejoin="miter" stroke="rgb(98.431373%, 60.392157%, 60%)" stroke-opacity="1" stroke-miterlimit="10" d="M 57.035156 425.894531 C 57.035156 429.558594 51.535156 429.558594 51.535156 425.894531 C 51.535156 422.226562 57.035156 422.226562 57.035156 425.894531 "/>
<path fill-rule="nonzero" fill="rgb(70.196078%, 70.196078%, 70.196078%)" fill-opacity="1" stroke-width="1" stroke-linecap="butt" stroke-linejoin="miter" stroke="rgb(70.196078%, 70.196078%, 70.196078%)" stroke-opacity="1" stroke-miterlimit="10" d="M 86.863281 351.578125 C 86.863281 358.710938 76.160156 358.710938 76.160156 351.578125 C 76.160156 344.445312 86.863281 344.445312 86.863281 351.578125 "/>
<path fill-rule="nonzero" fill="rgb(98.431373%, 60.392157%, 60%)" fill-opacity="1" stroke-width="1" stroke-linecap="butt" stroke-linejoin="miter" stroke="rgb(98.431373%, 60.392157%, 60%)" stroke-opacity="1" stroke-miterlimit="10" d="M 76.078125 417.453125 C 76.078125 421.121094 70.578125 421.121094 70.578125 417.453125 C 70.578125 413.785156 76.078125 413.785156 76.078125 417.453125 "/>
<path fill-rule="nonzero" fill="rgb(98.431373%, 60.392157%, 60%)" fill-opacity="1" stroke-width="1" stroke-linecap="butt" stroke-linejoin="miter" stroke="rgb(98.431373%, 60.392157%, 60%)" stroke-opacity="1" stroke-miterlimit="10" d="M 93.003906 433.382812 C 93.003906 437.050781 87.503906 437.050781 87.503906 433.382812 C 87.503906 429.714844 93.003906 429.714844 93.003906 433.382812 "/>
<path fill-rule="nonzero" fill="rgb(41.568627%, 23.921569%, 60.392157%)" fill-opacity="1" stroke-width="1" stroke-linecap="butt" stroke-linejoin="miter" stroke="rgb(41.568627%, 23.921569%, 60.392157%)" stroke-opacity="1" stroke-miterlimit="10" d="M 162.632812 597.601562 C 162.632812 601.269531 157.132812 601.269531 157.132812 597.601562 C 157.132812 593.9375 162.632812 593.9375 162.632812 597.601562 "/>
<path fill-rule="nonzero" fill="rgb(14.901961%, 14.901961%, 14.901961%)" fill-opacity="1" stroke-width="1" stroke-linecap="butt" stroke-linejoin="miter" stroke="rgb(14.901961%, 14.901961%, 14.901961%)" stroke-opacity="1" stroke-miterlimit="10" d="M 46.25 432.453125 L 50 424.953125 L 53.75 432.453125 Z M 46.25 432.453125 "/>
<path fill-rule="nonzero" fill="rgb(41.568627%, 23.921569%, 60.392157%)" fill-opacity="1" stroke-width="1" stroke-linecap="butt" stroke-linejoin="miter" stroke="rgb(41.568627%, 23.921569%, 60.392157%)" stroke-opacity="1" stroke-miterlimit="10" d="M 157.929688 549.097656 C 157.929688 552.765625 152.429688 552.765625 152.429688 549.097656 C 152.429688 545.433594 157.929688 545.433594 157.929688 549.097656 "/>
<path fill-rule="nonzero" fill="rgb(98.431373%, 60.392157%, 60%)" fill-opacity="1" stroke-width="1" stroke-linecap="butt" stroke-linejoin="miter" stroke="rgb(98.431373%, 60.392157%, 60%)" stroke-opacity="1" stroke-miterlimit="10" d="M 77.039062 318.058594 C 77.039062 321.726562 71.539062 321.726562 71.539062 318.058594 C 71.539062 314.394531 77.039062 314.394531 77.039062 318.058594 "/>
<path fill-rule="nonzero" fill="rgb(12.156863%, 47.058824%, 70.588235%)" fill-opacity="1" stroke-width="1" stroke-linecap="butt" stroke-linejoin="miter" stroke="rgb(12.156863%, 47.058824%, 70.588235%)" stroke-opacity="1" stroke-miterlimit="10" d="M 748.554688 56.59375 C 748.554688 60.261719 743.054688 60.261719 743.054688 56.59375 C 743.054688 52.925781 748.554688 52.925781 748.554688 56.59375 "/>
<path fill-rule="nonzero" fill="rgb(70.196078%, 70.196078%, 70.196078%)" fill-opacity="1" stroke-width="1" stroke-linecap="butt" stroke-linejoin="miter" stroke="rgb(70.196078%, 70.196078%, 70.196078%)" stroke-opacity="1" stroke-miterlimit="10" d="M 97.585938 375.984375 C 97.585938 382.449219 87.886719 382.449219 87.886719 375.984375 C 87.886719 369.515625 97.585938 369.515625 97.585938 375.984375 "/>
<path fill-rule="nonzero" fill="rgb(70.196078%, 70.196078%, 70.196078%)" fill-opacity="1" stroke-width="1" stroke-linecap="butt" stroke-linejoin="miter" stroke="rgb(70.196078%, 70.196078%, 70.196078%)" stroke-opacity="1" stroke-miterlimit="10" d="M 104.746094 406.726562 C 104.746094 413.191406 95.046875 413.191406 95.046875 406.726562 C 95.046875 400.261719 104.746094 400.261719 104.746094 406.726562 "/>
<path fill-rule="nonzero" fill="rgb(12.156863%, 47.058824%, 70.588235%)" fill-opacity="1" stroke-width="1" stroke-linecap="butt" stroke-linejoin="miter" stroke="rgb(12.156863%, 47.058824%, 70.588235%)" stroke-opacity="1" stroke-miterlimit="10" d="M 742.195312 59.609375 C 742.195312 63.277344 736.695312 63.277344 736.695312 59.609375 C 736.695312 55.945312 742.195312 55.945312 742.195312 59.609375 "/>
<path fill-rule="nonzero" fill="rgb(14.901961%, 14.901961%, 14.901961%)" fill-opacity="1" stroke-width="1" stroke-linecap="butt" stroke-linejoin="miter" stroke="rgb(14.901961%, 14.901961%, 14.901961%)" stroke-opacity="1" stroke-miterlimit="10" d="M 745.304688 88.164062 L 749.054688 80.664062 L 752.804688 88.164062 Z M 745.304688 88.164062 "/>
<path fill-rule="nonzero" fill="rgb(12.156863%, 47.058824%, 70.588235%)" fill-opacity="1" stroke-width="1" stroke-linecap="butt" stroke-linejoin="miter" stroke="rgb(12.156863%, 47.058824%, 70.588235%)" stroke-opacity="1" stroke-miterlimit="10" d="M 752.75 71.910156 C 752.75 75.578125 747.25 75.578125 747.25 71.910156 C 747.25 68.246094 752.75 68.246094 752.75 71.910156 "/>
<path fill-rule="nonzero" fill="rgb(100%, 84.313725%, 0%)" fill-opacity="1" stroke-width="1" stroke-linecap="butt" stroke-linejoin="miter" stroke="rgb(100%, 84.313725%, 0%)" stroke-opacity="1" stroke-miterlimit="10" d="M 79.082031 326.542969 L 89.78125 326.542969 L 89.78125 337.242188 L 79.082031 337.242188 Z M 79.082031 326.542969 "/>
<path fill-rule="nonzero" fill="rgb(100%, 84.313725%, 0%)" fill-opacity="1" stroke-width="1" stroke-linecap="butt" stroke-linejoin="miter" stroke="rgb(100%, 84.313725%, 0%)" stroke-opacity="1" stroke-miterlimit="10" d="M 66.882812 298.738281 L 73.382812 298.738281 L 73.382812 305.238281 L 66.882812 305.238281 Z M 66.882812 298.738281 "/>
<path fill-rule="nonzero" fill="rgb(12.156863%, 47.058824%, 70.588235%)" fill-opacity="1" stroke-width="1" stroke-linecap="butt" stroke-linejoin="miter" stroke="rgb(12.156863%, 47.058824%, 70.588235%)" stroke-opacity="1" stroke-miterlimit="10" d="M 746.507812 63.738281 C 746.507812 67.402344 741.007812 67.402344 741.007812 63.738281 C 741.007812 60.070312 746.507812 60.070312 746.507812 63.738281 "/>
<path fill-rule="nonzero" fill="rgb(12.156863%, 47.058824%, 70.588235%)" fill-opacity="1" stroke-width="1" stroke-linecap="butt" stroke-linejoin="miter" stroke="rgb(12.156863%, 47.058824%, 70.588235%)" stroke-opacity="1" stroke-miterlimit="10" d="M 750.539062 72.871094 C 750.539062 76.535156 745.039062 76.535156 745.039062 72.871094 C 745.039062 69.203125 750.539062 69.203125 750.539062 72.871094 "/>
<path fill-rule="nonzero" fill="rgb(12.156863%, 47.058824%, 70.588235%)" fill-opacity="1" stroke-width="1" stroke-linecap="butt" stroke-linejoin="miter" stroke="rgb(12.156863%, 47.058824%, 70.588235%)" stroke-opacity="1" stroke-miterlimit="10" d="M 749.933594 52.25 C 749.933594 55.917969 744.433594 55.917969 744.433594 52.25 C 744.433594 48.582031 749.933594 48.582031 749.933594 52.25 "/>
<path fill-rule="nonzero" fill="rgb(70.196078%, 70.196078%, 70.196078%)" fill-opacity="1" stroke-width="1" stroke-linecap="butt" stroke-linejoin="miter" stroke="rgb(70.196078%, 70.196078%, 70.196078%)" stroke-opacity="1" stroke-miterlimit="10" d="M 91.011719 345.25 C 91.011719 351.71875 81.3125 351.71875 81.3125 345.25 C 81.3125 338.785156 91.011719 338.785156 91.011719 345.25 "/>
<path fill-rule="nonzero" fill="rgb(100%, 84.313725%, 0%)" fill-opacity="1" stroke-width="1" stroke-linecap="butt" stroke-linejoin="miter" stroke="rgb(100%, 84.313725%, 0%)" stroke-opacity="1" stroke-miterlimit="10" d="M 732.976562 46.75 L 739.476562 46.75 L 739.476562 53.25 L 732.976562 53.25 Z M 732.976562 46.75 "/>
</svg>
