<?xml version="1.0" encoding="UTF-8"?>
<svg xmlns="http://www.w3.org/2000/svg" xmlns:xlink="http://www.w3.org/1999/xlink" width="800" height="800" viewBox="0 0 800 800">
<rect x="-80" y="-80" width="960" height="960" fill="rgb(100%, 100%, 100%)" fill-opacity="1"/>
<path fill="none" stroke-width="2.5" stroke-linecap="butt" stroke-linejoin="miter" stroke="rgb(70.196078%, 70.196078%, 70.196078%)" stroke-opacity="1" stroke-miterlimit="10" d="M 50 734.957031 C 49.300781 735.988281 48.859375 738.191406 49.414062 738.316406 "/>
<path fill-rule="nonzero" fill="rgb(70.196078%, 70.196078%, 70.196078%)" fill-opacity="1" d="M 56.371094 739.894531 L 48.902344 740.578125 L 49.925781 736.058594 L 56.371094 739.894531 "/>
<path fill="none" stroke-width="2.5" stroke-linecap="butt" stroke-linejoin="miter" stroke="rgb(70.196078%, 70.196078%, 70.196078%)" stroke-opacity="1" stroke-miterlimit="10" d="M 84.320312 740.277344 C 82.910156 737.507812 80.574219 734.621094 77.691406 734.949219 "/>
<path fill-rule="nonzero" fill="rgb(70.196078%, 70.196078%, 70.196078%)" fill-opacity="1" d="M 70.605469 735.761719 L 77.425781 732.648438 L 77.953125 737.253906 L 70.605469 735.761719 "/>
<path fill="none" stroke-width="1.5" stroke-linecap="butt" stroke-linejoin="miter" stroke="rgb(12.156863%, 47.058824%, 70.588235%)" stroke-opacity="1" stroke-miterlimit="10" d="M 84.320312 740.277344 C 83.535156 738.910156 81.476562 738.6875 80.816406 737.746094 "/>
<path fill-rule="nonzero" fill="rgb(12.156863%, 47.058824%, 70.588235%)" fill-opacity="1" d="M 84.914062 743.582031 L 78.921875 739.078125 L 82.714844 736.414062 L 84.914062 743.582031 "/>
<path fill="none" stroke-width="1.5" stroke-linecap="butt" stroke-linejoin="miter" stroke="rgb(12.156863%, 47.058824%, 70.588235%)" stroke-opacity="1" stroke-miterlimit="10" d="M 92.496094 747.394531 C 91.597656 748.039062 91.089844 750.007812 90.976562 750.011719 "/>
<path fill-rule="nonzero" fill="rgb(12.156863%, 47.058824%, 70.588235%)" fill-opacity="1" d="M 98.109375 750 L 90.976562 752.328125 L 90.972656 747.691406 L 98.109375 750 "/>
<path fill="none" stroke-width="2.5" stroke-linecap="butt" stroke-linejoin="miter" stroke="rgb(70.196078%, 70.196078%, 70.196078%)" stroke-opacity="1" stroke-miterlimit="10" d="M 68.105469 736.050781 C 65.742188 733.355469 62.421875 730.933594 59.179688 731.984375 "/>
<path fill-rule="nonzero" fill="rgb(70.196078%, 70.196078%, 70.196078%)" fill-opacity="1" d="M 52.394531 734.179688 L 58.464844 729.777344 L 59.894531 734.1875 L 52.394531 734.179688 "/>
<path fill="none" stroke-width="1.5" stroke-linecap="butt" stroke-linejoin="miter" stroke="rgb(12.156863%, 47.058824%, 70.588235%)" stroke-opacity="1" stroke-miterlimit="10" d="M 85.347656 744.195312 C 84.65625 745.066406 84.375 747.136719 84.605469 747.144531 "/>
<path fill-rule="nonzero" fill="rgb(12.156863%, 47.058824%, 70.588235%)" fill-opacity="1" d="M 91.734375 747.371094 L 84.53125 749.460938 L 84.679688 744.828125 L 91.734375 747.371094 "/>
<path fill="none" stroke-width="1.5" stroke-linecap="butt" stroke-linejoin="miter" stroke="rgb(30.196078%, 68.627451%, 29.019608%)" stroke-opacity="1" stroke-miterlimit="10" d="M 651.121094 59.113281 C 647.988281 56.453125 643.957031 54.414062 640.324219 55.992188 "/>
<path fill-rule="nonzero" fill="rgb(30.196078%, 68.627451%, 29.019608%)" fill-opacity="1" d="M 633.777344 58.828125 L 639.402344 53.867188 L 641.246094 58.117188 L 633.777344 58.828125 "/>
<path fill="none" stroke-width="1.5" stroke-linecap="butt" stroke-linejoin="miter" stroke="rgb(99.215686%, 74.901961%, 43.529412%)" stroke-opacity="1" stroke-miterlimit="10" d="M 651.121094 59.113281 C 645.839844 53.367188 639.128906 49.492188 631.5 50.707031 "/>
<path fill-rule="nonzero" fill="rgb(99.215686%, 74.901961%, 43.529412%)" fill-opacity="1" d="M 624.453125 51.828125 L 631.132812 48.417969 L 631.863281 52.996094 L 624.453125 51.828125 "/>
<path fill="none" stroke-width="3.5" stroke-linecap="butt" stroke-linejoin="miter" stroke="rgb(70.196078%, 70.196078%, 70.196078%)" stroke-opacity="1" stroke-miterlimit="10" d="M 84.011719 734.027344 C 83.5625 732.625 81.625 731.964844 81.320312 731.03125 "/>
<path fill-rule="nonzero" fill="rgb(70.196078%, 70.196078%, 70.196078%)" fill-opacity="1" d="M 83.523438 737.816406 L 79.117188 731.746094 L 83.527344 730.316406 L 83.523438 737.816406 "/>
<path fill="none" stroke-width="2.5" stroke-linecap="butt" stroke-linejoin="miter" stroke="rgb(70.196078%, 70.196078%, 70.196078%)" stroke-opacity="1" stroke-miterlimit="10" d="M 693.011719 65.136719 C 683.382812 57.40625 672.191406 53.496094 660.308594 56.664062 "/>
<path fill-rule="nonzero" fill="rgb(70.196078%, 70.196078%, 70.196078%)" fill-opacity="1" d="M 653.417969 58.5 L 659.714844 54.421875 L 660.90625 58.902344 L 653.417969 58.5 "/>
<path fill="none" stroke-width="2.5" stroke-linecap="butt" stroke-linejoin="miter" stroke="rgb(70.196078%, 70.196078%, 70.196078%)" stroke-opacity="1" stroke-miterlimit="10" d="M 58.789062 740.441406 C 59.75 739.691406 59.855469 737.683594 60.339844 737.492188 "/>
<path fill-rule="nonzero" fill="rgb(70.196078%, 70.196078%, 70.196078%)" fill-opacity="1" d="M 53.710938 740.128906 L 59.480469 735.335938 L 61.195312 739.644531 L 53.710938 740.128906 "/>
<path fill="none" stroke-width="1.5" stroke-linecap="butt" stroke-linejoin="miter" stroke="rgb(30.196078%, 68.627451%, 29.019608%)" stroke-opacity="1" stroke-miterlimit="10" d="M 608.949219 58.828125 C 610.105469 58.488281 611.765625 57.050781 611.449219 56.6875 "/>
<path fill-rule="nonzero" fill="rgb(30.196078%, 68.627451%, 29.019608%)" fill-opacity="1" d="M 606.753906 51.316406 L 613.195312 55.160156 L 609.703125 58.210938 L 606.753906 51.316406 "/>
<path fill="none" stroke-width="1.5" stroke-linecap="butt" stroke-linejoin="miter" stroke="rgb(99.215686%, 74.901961%, 43.529412%)" stroke-opacity="1" stroke-miterlimit="10" d="M 613.59375 61.183594 C 610.777344 57.273438 606.828125 53.976562 602.179688 54.589844 "/>
<path fill-rule="nonzero" fill="rgb(99.215686%, 74.901961%, 43.529412%)" fill-opacity="1" d="M 595.105469 55.523438 L 601.875 52.292969 L 602.480469 56.886719 L 595.105469 55.523438 "/>
<path fill="none" stroke-width="1.5" stroke-linecap="butt" stroke-linejoin="miter" stroke="rgb(30.196078%, 68.627451%, 29.019608%)" stroke-opacity="1" stroke-miterlimit="10" d="M 613.59375 61.183594 C 614.898438 61.136719 616.074219 59.53125 616.800781 59.601562 "/>
<path fill-rule="nonzero" fill="rgb(30.196078%, 68.627451%, 29.019608%)" fill-opacity="1" d="M 609.703125 58.902344 L 617.027344 57.296875 L 616.570312 61.910156 L 609.703125 58.902344 "/>
<path fill="none" stroke-width="1.5" stroke-linecap="butt" stroke-linejoin="miter" stroke="rgb(30.196078%, 68.627451%, 29.019608%)" stroke-opacity="1" stroke-miterlimit="10" d="M 633.121094 59.113281 C 631.847656 58.179688 629.539062 57.269531 628.894531 58.214844 "/>
<path fill-rule="nonzero" fill="rgb(30.196078%, 68.627451%, 29.019608%)" fill-opacity="1" d="M 624.878906 64.109375 L 626.980469 56.910156 L 630.808594 59.519531 L 624.878906 64.109375 "/>
<path fill="none" stroke-width="1.5" stroke-linecap="butt" stroke-linejoin="miter" stroke="rgb(30.196078%, 68.627451%, 29.019608%)" stroke-opacity="1" stroke-miterlimit="10" d="M 624.449219 64.742188 C 624.609375 63.285156 624.167969 60.898438 623.214844 60.925781 "/>
<path fill-rule="nonzero" fill="rgb(30.196078%, 68.627451%, 29.019608%)" fill-opacity="1" d="M 616.082031 61.117188 L 623.152344 58.609375 L 623.277344 63.242188 L 616.082031 61.117188 "/>
<path fill="none" stroke-width="1.5" stroke-linecap="butt" stroke-linejoin="miter" stroke="rgb(99.215686%, 74.901961%, 43.529412%)" stroke-opacity="1" stroke-miterlimit="10" d="M 623.746094 51.941406 C 621.730469 51.304688 618.824219 51.019531 618 52.617188 "/>
<path fill-rule="nonzero" fill="rgb(99.215686%, 74.901961%, 43.529412%)" fill-opacity="1" d="M 614.738281 58.960938 L 615.941406 51.558594 L 620.0625 53.675781 L 614.738281 58.960938 "/>
<path fill="none" stroke-width="1.5" stroke-linecap="butt" stroke-linejoin="miter" stroke="rgb(30.196078%, 68.627451%, 29.019608%)" stroke-opacity="1" stroke-miterlimit="10" d="M 750 75.703125 C 748.316406 74.375 745.714844 73.074219 744.308594 74.273438 "/>
<path fill-rule="nonzero" fill="rgb(30.196078%, 68.627451%, 29.019608%)" fill-opacity="1" d="M 738.890625 78.914062 L 742.800781 72.515625 L 745.816406 76.035156 L 738.890625 78.914062 "/>
<path fill="none" stroke-width="1.5" stroke-linecap="butt" stroke-linejoin="miter" stroke="rgb(30.196078%, 68.627451%, 29.019608%)" stroke-opacity="1" stroke-miterlimit="10" d="M 738.347656 79.378906 C 736.945312 76.964844 734.65625 74.421875 732.136719 74.9375 "/>
<path fill-rule="nonzero" fill="rgb(30.196078%, 68.627451%, 29.019608%)" fill-opacity="1" d="M 725.148438 76.367188 L 731.671875 72.664062 L 732.601562 77.207031 L 725.148438 76.367188 "/>
<path fill="none" stroke-width="2.5" stroke-linecap="butt" stroke-linejoin="miter" stroke="rgb(70.196078%, 70.196078%, 70.196078%)" stroke-opacity="1" stroke-miterlimit="10" d="M 747.65625 68.886719 C 747.777344 67.640625 747.117188 65.488281 746.5625 65.644531 "/>
<path fill-rule="nonzero" fill="rgb(70.196078%, 70.196078%, 70.196078%)" fill-opacity="1" d="M 739.6875 67.542969 L 745.945312 63.410156 L 747.179688 67.878906 L 739.6875 67.542969 "/>
<path fill="none" stroke-width="1.5" stroke-linecap="butt" stroke-linejoin="miter" stroke="rgb(30.196078%, 68.627451%, 29.019608%)" stroke-opacity="1" stroke-miterlimit="10" d="M 709.445312 70.820312 C 708.089844 67.785156 705.785156 64.648438 702.65625 64.769531 "/>
<path fill-rule="nonzero" fill="rgb(30.196078%, 68.627451%, 29.019608%)" fill-opacity="1" d="M 695.527344 65.039062 L 702.566406 62.453125 L 702.742188 67.085938 L 695.527344 65.039062 "/>
<path fill="none" stroke-width="1.5" stroke-linecap="butt" stroke-linejoin="miter" stroke="rgb(99.215686%, 74.901961%, 43.529412%)" stroke-opacity="1" stroke-miterlimit="10" d="M 716.113281 66.058594 C 712.074219 62.5625 707.023438 60.109375 702.105469 61.875 "/>
<path fill-rule="nonzero" fill="rgb(99.215686%, 74.901961%, 43.529412%)" fill-opacity="1" d="M 695.394531 64.28125 L 701.324219 59.691406 L 702.890625 64.054688 L 695.394531 64.28125 "/>
<path fill="none" stroke-width="1.5" stroke-linecap="butt" stroke-linejoin="miter" stroke="rgb(30.196078%, 68.627451%, 29.019608%)" stroke-opacity="1" stroke-miterlimit="10" d="M 724.449219 76.511719 C 722.964844 73.421875 720.53125 70.320312 717.285156 70.46875 "/>
<path fill-rule="nonzero" fill="rgb(30.196078%, 68.627451%, 29.019608%)" fill-opacity="1" d="M 710.160156 70.789062 L 717.179688 68.152344 L 717.390625 72.785156 L 710.160156 70.789062 "/>
<path fill="none" stroke-width="1.5" stroke-linecap="butt" stroke-linejoin="miter" stroke="rgb(30.196078%, 68.627451%, 29.019608%)" stroke-opacity="1" stroke-miterlimit="10" d="M 737.296875 68.203125 C 737.960938 71.109375 739.460938 74.355469 742.214844 74.707031 "/>
<path fill-rule="nonzero" fill="rgb(30.196078%, 68.627451%, 29.019608%)" fill-opacity="1" d="M 749.292969 75.613281 L 741.921875 77.007812 L 742.511719 72.410156 L 749.292969 75.613281 "/>
<path fill="none" stroke-width="1.5" stroke-linecap="butt" stroke-linejoin="miter" stroke="rgb(99.215686%, 74.901961%, 43.529412%)" stroke-opacity="1" stroke-miterlimit="10" d="M 737.296875 68.203125 C 733.40625 64.632812 728.507812 62.082031 723.589844 63.660156 "/>
<path fill-rule="nonzero" fill="rgb(99.215686%, 74.901961%, 43.529412%)" fill-opacity="1" d="M 716.796875 65.839844 L 722.878906 61.453125 L 724.296875 65.867188 L 716.796875 65.839844 "/>
<path fill-rule="nonzero" fill="rgb(70.196078%, 70.196078%, 70.196078%)" fill-opacity="1" stroke-width="1" stroke-linecap="butt" stroke-linejoin="miter" stroke="rgb(70.196078%, 70.196078%, 70.196078%)" stroke-opacity="1" stroke-miterlimit="10" d="M 52.5 734.957031 C 52.5 738.289062 47.5 738.289062 47.5 734.957031 C 47.5 731.625 52.5 731.625 52.5 734.957031 "/>
<path fill-rule="nonzero" fill="rgb(70.196078%, 70.196078%, 70.196078%)" fill-opacity="1" stroke-width="1" stroke-linecap="butt" stroke-linejoin="miter" stroke="rgb(70.196078%, 70.196078%, 70.196078%)" stroke-opacity="1" stroke-miterlimit="10" d="M 86.820312 740.277344 C 86.820312 743.613281 81.820312 743.613281 81.820312 740.277344 C 81.820312 736.945312 86.820312 736.945312 86.820312 740.277344 "/>
<path fill-rule="nonzero" fill="rgb(12.156863%, 47.058824%, 70.588235%)" fill-opacity="1" stroke-width="1" stroke-linecap="butt" stroke-linejoin="miter" stroke="rgb(12.156863%, 47.058824%, 70.588235%)" stroke-opacity="1" stroke-miterlimit="10" d="M 93.246094 747.394531 C 93.246094 748.394531 91.746094 748.394531 91.746094 747.394531 C 91.746094 746.394531 93.246094 746.394531 93.246094 747.394531 "/>
<path fill-rule="nonzero" fill="rgb(70.196078%, 70.196078%, 70.196078%)" fill-opacity="1" stroke-width="1" stroke-linecap="butt" stroke-linejoin="miter" stroke="rgb(70.196078%, 70.196078%, 70.196078%)" stroke-opacity="1" stroke-miterlimit="10" d="M 70.605469 736.050781 C 70.605469 739.382812 65.605469 739.382812 65.605469 736.050781 C 65.605469 732.714844 70.605469 732.714844 70.605469 736.050781 "/>
<path fill-rule="nonzero" fill="rgb(12.156863%, 47.058824%, 70.588235%)" fill-opacity="1" stroke-width="1" stroke-linecap="butt" stroke-linejoin="miter" stroke="rgb(12.156863%, 47.058824%, 70.588235%)" stroke-opacity="1" stroke-miterlimit="10" d="M 86.097656 744.195312 C 86.097656 745.195312 84.597656 745.195312 84.597656 744.195312 C 84.597656 743.195312 86.097656 743.195312 86.097656 744.195312 "/>
<path fill-rule="nonzero" fill="rgb(70.196078%, 70.196078%, 70.196078%)" fill-opacity="1" stroke-width="1" stroke-linecap="butt" stroke-linejoin="miter" stroke="rgb(70.196078%, 70.196078%, 70.196078%)" stroke-opacity="1" stroke-miterlimit="10" d="M 653.621094 59.113281 C 653.621094 62.445312 648.621094 62.445312 648.621094 59.113281 C 648.621094 55.78125 653.621094 55.78125 653.621094 59.113281 "/>
<path fill-rule="nonzero" fill="rgb(100%, 84.313725%, 0%)" fill-opacity="1" stroke-width="1" stroke-linecap="butt" stroke-linejoin="miter" stroke="rgb(100%, 84.313725%, 0%)" stroke-opacity="1" stroke-miterlimit="10" d="M 81.511719 731.527344 L 86.511719 731.527344 L 86.511719 736.527344 L 81.511719 736.527344 Z M 81.511719 731.527344 "/>
<path fill-rule="nonzero" fill="rgb(70.196078%, 70.196078%, 70.196078%)" fill-opacity="1" stroke-width="1" stroke-linecap="butt" stroke-linejoin="miter" stroke="rgb(70.196078%, 70.196078%, 70.196078%)" stroke-opacity="1" stroke-miterlimit="10" d="M 695.511719 65.136719 C 695.511719 68.46875 690.511719 68.46875 690.511719 65.136719 C 690.511719 61.804688 695.511719 61.804688 695.511719 65.136719 "/>
<path fill-rule="nonzero" fill="rgb(14.901961%, 14.901961%, 14.901961%)" fill-opacity="1" stroke-width="1" stroke-linecap="butt" stroke-linejoin="miter" stroke="rgb(14.901961%, 14.901961%, 14.901961%)" stroke-opacity="1" stroke-miterlimit="10" d="M 48.785156 743.59375 L 51.285156 738.59375 L 53.785156 743.59375 Z M 48.785156 743.59375 "/>
<path fill-rule="nonzero" fill="rgb(70.196078%, 70.196078%, 70.196078%)" fill-opacity="1" stroke-width="1" stroke-linecap="butt" stroke-linejoin="miter" stroke="rgb(70.196078%, 70.196078%, 70.196078%)" stroke-opacity="1" stroke-miterlimit="10" d="M 61.289062 740.441406 C 61.289062 743.773438 56.289062 743.773438 56.289062 740.441406 C 56.289062 737.109375 61.289062 737.109375 61.289062 740.441406 "/>
<path fill-rule="nonzero" fill="rgb(14.901961%, 14.901961%, 14.901961%)" fill-opacity="1" stroke-width="1" stroke-linecap="butt" stroke-linejoin="miter" stroke="rgb(14.901961%, 14.901961%, 14.901961%)" stroke-opacity="1" stroke-miterlimit="10" d="M 98.101562 751.75 L 99.851562 748.25 L 101.601562 751.75 Z M 98.101562 751.75 "/>
<path fill-rule="nonzero" fill="rgb(14.901961%, 14.901961%, 14.901961%)" fill-opacity="1" stroke-width="1" stroke-linecap="butt" stroke-linejoin="miter" stroke="rgb(14.901961%, 14.901961%, 14.901961%)" stroke-opacity="1" stroke-miterlimit="10" d="M 591.597656 57.507812 L 593.347656 54.007812 L 595.097656 57.507812 Z M 591.597656 57.507812 "/>
<path fill-rule="nonzero" fill="rgb(14.901961%, 14.901961%, 14.901961%)" fill-opacity="1" stroke-width="1" stroke-linecap="butt" stroke-linejoin="miter" stroke="rgb(14.901961%, 14.901961%, 14.901961%)" stroke-opacity="1" stroke-miterlimit="10" d="M 603.851562 51.75 L 605.601562 48.25 L 607.351562 51.75 Z M 603.851562 51.75 "/>
<path fill-rule="nonzero" fill="rgb(30.196078%, 68.627451%, 29.019608%)" fill-opacity="1" stroke-width="1" stroke-linecap="butt" stroke-linejoin="miter" stroke="rgb(30.196078%, 68.627451%, 29.019608%)" stroke-opacity="1" stroke-miterlimit="10" d="M 609.699219 58.828125 C 609.699219 59.828125 608.199219 59.828125 608.199219 58.828125 C 608.199219 57.828125 609.699219 57.828125 609.699219 58.828125 "/>
<path fill-rule="nonzero" fill="rgb(70.196078%, 70.196078%, 70.196078%)" fill-opacity="1" stroke-width="1" stroke-linecap="butt" stroke-linejoin="miter" stroke="rgb(70.196078%, 70.196078%, 70.196078%)" stroke-opacity="1" stroke-miterlimit="10" d="M 616.09375 61.183594 C 616.09375 64.519531 611.09375 64.519531 611.09375 61.183594 C 611.09375 57.851562 616.09375 57.851562 616.09375 61.183594 "/>
<path fill-rule="nonzero" fill="rgb(30.196078%, 68.627451%, 29.019608%)" fill-opacity="1" stroke-width="1" stroke-linecap="butt" stroke-linejoin="miter" stroke="rgb(30.196078%, 68.627451%, 29.019608%)" stroke-opacity="1" stroke-miterlimit="10" d="M 633.871094 59.113281 C 633.871094 60.113281 632.371094 60.113281 632.371094 59.113281 C 632.371094 58.113281 633.871094 58.113281 633.871094 59.113281 "/>
<path fill-rule="nonzero" fill="rgb(30.196078%, 68.627451%, 29.019608%)" fill-opacity="1" stroke-width="1" stroke-linecap="butt" stroke-linejoin="miter" stroke="rgb(30.196078%, 68.627451%, 29.019608%)" stroke-opacity="1" stroke-miterlimit="10" d="M 625.199219 64.742188 C 625.199219 65.742188 623.699219 65.742188 623.699219 64.742188 C 623.699219 63.742188 625.199219 63.742188 625.199219 64.742188 "/>
<path fill-rule="nonzero" fill="rgb(99.215686%, 74.901961%, 43.529412%)" fill-opacity="1" stroke-width="1" stroke-linecap="butt" stroke-linejoin="miter" stroke="rgb(99.215686%, 74.901961%, 43.529412%)" stroke-opacity="1" stroke-miterlimit="10" d="M 624.496094 51.941406 C 624.496094 52.941406 622.996094 52.941406 622.996094 51.941406 C 622.996094 50.941406 624.496094 50.941406 624.496094 51.941406 "/>
<path fill-rule="nonzero" fill="rgb(30.196078%, 68.627451%, 29.019608%)" fill-opacity="1" stroke-width="1" stroke-linecap="butt" stroke-linejoin="miter" stroke="rgb(30.196078%, 68.627451%, 29.019608%)" stroke-opacity="1" stroke-miterlimit="10" d="M 750.75 75.703125 C 750.75 76.703125 749.25 76.703125 749.25 75.703125 C 749.25 74.703125 750.75 74.703125 750.75 75.703125 "/>
<path fill-rule="nonzero" fill="rgb(30.196078%, 68.627451%, 29.019608%)" fill-opacity="1" stroke-width="1" stroke-linecap="butt" stroke-linejoin="miter" stroke="rgb(30.196078%, 68.627451%, 29.019608%)" stroke-opacity="1" stroke-miterlimit="10" d="M 739.097656 79.378906 C 739.097656 80.378906 737.597656 80.378906 737.597656 79.378906 C 737.597656 78.378906 739.097656 78.378906 739.097656 79.378906 "/>
<path fill-rule="nonzero" fill="rgb(100%, 84.313725%, 0%)" fill-opacity="1" stroke-width="1" stroke-linecap="butt" stroke-linejoin="miter" stroke="rgb(100%, 84.313725%, 0%)" stroke-opacity="1" stroke-miterlimit="10" d="M 745.15625 66.386719 L 750.15625 66.386719 L 750.15625 71.386719 L 745.15625 71.386719 Z M 745.15625 66.386719 "/>
<path fill-rule="nonzero" fill="rgb(30.196078%, 68.627451%, 29.019608%)" fill-opacity="1" stroke-width="1" stroke-linecap="butt" stroke-linejoin="miter" stroke="rgb(30.196078%, 68.627451%, 29.019608%)" stroke-opacity="1" stroke-miterlimit="10" d="M 710.195312 70.820312 C 710.195312 71.820312 708.695312 71.820312 708.695312 70.820312 C 708.695312 69.820312 710.195312 69.820312 710.195312 70.820312 "/>
<path fill-rule="nonzero" fill="rgb(99.215686%, 74.901961%, 43.529412%)" fill-opacity="1" stroke-width="1" stroke-linecap="butt" stroke-linejoin="miter" stroke="rgb(99.215686%, 74.901961%, 43.529412%)" stroke-opacity="1" stroke-miterlimit="10" d="M 716.863281 66.058594 C 716.863281 67.058594 715.363281 67.058594 715.363281 66.058594 C 715.363281 65.058594 716.863281 65.058594 716.863281 66.058594 "/>
<path fill-rule="nonzero" fill="rgb(30.196078%, 68.627451%, 29.019608%)" fill-opacity="1" stroke-width="1" stroke-linecap="butt" stroke-linejoin="miter" stroke="rgb(30.196078%, 68.627451%, 29.019608%)" stroke-opacity="1" stroke-miterlimit="10" d="M 725.199219 76.511719 C 725.199219 77.511719 723.699219 77.511719 723.699219 76.511719 C 723.699219 75.511719 725.199219 75.511719 725.199219 76.511719 "/>
<path fill-rule="nonzero" fill="rgb(70.196078%, 70.196078%, 70.196078%)" fill-opacity="1" stroke-width="1" stroke-linecap="butt" stroke-linejoin="miter" stroke="rgb(70.196078%, 70.196078%, 70.196078%)" stroke-opacity="1" stroke-miterlimit="10" d="M 739.796875 68.203125 C 739.796875 71.535156 734.796875 71.535156 734.796875 68.203125 C 734.796875 64.867188 739.796875 64.867188 739.796875 68.203125 "/>
</svg>
