<?xml version="1.0" encoding="UTF-8"?>
<svg xmlns="http://www.w3.org/2000/svg" xmlns:xlink="http://www.w3.org/1999/xlink" width="800" height="800" viewBox="0 0 800 800">
<rect x="-80" y="-80" width="960" height="960" fill="rgb(100%, 100%, 100%)" fill-opacity="1"/>
<path fill="none" stroke-width="1.5" stroke-linecap="butt" stroke-linejoin="miter" stroke="rgb(98.431373%, 60.392157%, 60%)" stroke-opacity="1" stroke-miterlimit="10" d="M 746.847656 54.144531 C 745.371094 55.414062 743.699219 57.644531 744.59375 58.964844 "/>
<path fill-rule="nonzero" fill="rgb(98.431373%, 60.392157%, 60%)" fill-opacity="1" d="M 748.597656 64.867188 L 742.675781 60.265625 L 746.511719 57.664062 L 748.597656 64.867188 "/>
<path fill="none" stroke-width="1.5" stroke-linecap="butt" stroke-linejoin="miter" stroke="rgb(98.431373%, 60.392157%, 60%)" stroke-opacity="1" stroke-miterlimit="10" d="M 733.714844 50 C 734.753906 52.4375 736.632812 55.160156 739.039062 54.921875 "/>
<path fill-rule="nonzero" fill="rgb(98.431373%, 60.392157%, 60%)" fill-opacity="1" d="M 746.136719 54.214844 L 739.269531 57.226562 L 738.808594 52.613281 L 746.136719 54.214844 "/>
<path fill="none" stroke-width="1.5" stroke-linecap="butt" stroke-linejoin="miter" stroke="rgb(98.431373%, 60.392157%, 60%)" stroke-opacity="1" stroke-miterlimit="10" d="M 713.613281 77.675781 C 722.761719 73.777344 729.972656 67.339844 732.058594 57.671875 "/>
<path fill-rule="nonzero" fill="rgb(98.431373%, 60.392157%, 60%)" fill-opacity="1" d="M 733.566406 50.703125 L 734.324219 58.164062 L 729.792969 57.183594 L 733.566406 50.703125 "/>
<path fill="none" stroke-width="1.5" stroke-linecap="butt" stroke-linejoin="miter" stroke="rgb(98.431373%, 60.392157%, 60%)" stroke-opacity="1" stroke-miterlimit="10" d="M 629.4375 367.953125 C 634.390625 363.710938 638.035156 358.15625 637.035156 351.8125 "/>
<path fill-rule="nonzero" fill="rgb(98.431373%, 60.392157%, 60%)" fill-opacity="1" d="M 635.925781 344.765625 L 639.324219 351.449219 L 634.746094 352.171875 L 635.925781 344.765625 "/>
<path fill="none" stroke-width="1.5" stroke-linecap="butt" stroke-linejoin="miter" stroke="rgb(98.431373%, 60.392157%, 60%)" stroke-opacity="1" stroke-miterlimit="10" d="M 621.371094 387.90625 C 625.945312 385.113281 629.792969 381.046875 629.648438 375.796875 "/>
<path fill-rule="nonzero" fill="rgb(98.431373%, 60.392157%, 60%)" fill-opacity="1" d="M 629.457031 368.667969 L 631.964844 375.734375 L 627.332031 375.859375 L 629.457031 368.667969 "/>
<path fill="none" stroke-width="5.5" stroke-linecap="butt" stroke-linejoin="miter" stroke="rgb(70.196078%, 70.196078%, 70.196078%)" stroke-opacity="1" stroke-miterlimit="10" d="M 50 750 C 54.449219 746.644531 58.011719 742.046875 57.335938 736.628906 "/>
<path fill-rule="nonzero" fill="rgb(70.196078%, 70.196078%, 70.196078%)" fill-opacity="1" d="M 56.453125 729.550781 L 59.636719 736.339844 L 55.035156 736.914062 L 56.453125 729.550781 "/>
<path fill="none" stroke-width="3.5" stroke-linecap="butt" stroke-linejoin="miter" stroke="rgb(70.196078%, 70.196078%, 70.196078%)" stroke-opacity="1" stroke-miterlimit="10" d="M 361.691406 272.488281 C 370.082031 280.851562 380.367188 285.773438 392.015625 283.925781 "/>
<path fill-rule="nonzero" fill="rgb(70.196078%, 70.196078%, 70.196078%)" fill-opacity="1" d="M 399.058594 282.808594 L 392.378906 286.214844 L 391.652344 281.636719 L 399.058594 282.808594 "/>
<path fill="none" stroke-width="4.5" stroke-linecap="butt" stroke-linejoin="miter" stroke="rgb(70.196078%, 70.196078%, 70.196078%)" stroke-opacity="1" stroke-miterlimit="10" d="M 181.613281 422.082031 C 201.695312 413.25 216.183594 398.675781 221.804688 377.496094 "/>
<path fill-rule="nonzero" fill="rgb(70.196078%, 70.196078%, 70.196078%)" fill-opacity="1" d="M 223.632812 370.601562 L 224.042969 378.089844 L 219.5625 376.902344 L 223.632812 370.601562 "/>
<path fill="none" stroke-width="4.5" stroke-linecap="butt" stroke-linejoin="miter" stroke="rgb(70.196078%, 70.196078%, 70.196078%)" stroke-opacity="1" stroke-miterlimit="10" d="M 272.347656 319.019531 C 292.75 316.226562 309.644531 306.84375 320.113281 289.148438 "/>
<path fill-rule="nonzero" fill="rgb(70.196078%, 70.196078%, 70.196078%)" fill-opacity="1" d="M 323.746094 283.011719 L 322.109375 290.332031 L 318.121094 287.96875 L 323.746094 283.011719 "/>
<path fill="none" stroke-width="4.5" stroke-linecap="butt" stroke-linejoin="miter" stroke="rgb(70.196078%, 70.196078%, 70.196078%)" stroke-opacity="1" stroke-miterlimit="10" d="M 224.246094 368.292969 C 245.210938 361.546875 261.175781 348.488281 268.972656 327.917969 "/>
<path fill-rule="nonzero" fill="rgb(70.196078%, 70.196078%, 70.196078%)" fill-opacity="1" d="M 271.503906 321.25 L 271.140625 328.742188 L 266.804688 327.097656 L 271.503906 321.25 "/>
<path fill="none" stroke-width="4.5" stroke-linecap="butt" stroke-linejoin="miter" stroke="rgb(70.196078%, 70.196078%, 70.196078%)" stroke-opacity="1" stroke-miterlimit="10" d="M 635.53125 342.261719 C 651.867188 334.246094 663.554688 321.695312 667.289062 303.917969 "/>
<path fill-rule="nonzero" fill="rgb(70.196078%, 70.196078%, 70.196078%)" fill-opacity="1" d="M 668.753906 296.9375 L 669.554688 304.394531 L 665.019531 303.445312 L 668.753906 296.9375 "/>
<path fill="none" stroke-width="1.5" stroke-linecap="butt" stroke-linejoin="miter" stroke="rgb(98.431373%, 60.392157%, 60%)" stroke-opacity="1" stroke-miterlimit="10" d="M 604.917969 367.023438 C 605.511719 374.183594 608.175781 380.871094 614.445312 384.214844 "/>
<path fill-rule="nonzero" fill="rgb(98.431373%, 60.392157%, 60%)" fill-opacity="1" d="M 620.738281 387.570312 L 613.351562 386.257812 L 615.535156 382.167969 L 620.738281 387.570312 "/>
<path fill="none" stroke-width="3.5" stroke-linecap="butt" stroke-linejoin="miter" stroke="rgb(70.196078%, 70.196078%, 70.196078%)" stroke-opacity="1" stroke-miterlimit="10" d="M 604.917969 367.023438 C 616.085938 365.488281 625.796875 360.5625 631.0625 350.660156 "/>
<path fill-rule="nonzero" fill="rgb(70.196078%, 70.196078%, 70.196078%)" fill-opacity="1" d="M 634.414062 344.359375 L 633.109375 351.746094 L 629.019531 349.570312 L 634.414062 344.359375 "/>
<path fill="none" stroke-width="3.5" stroke-linecap="butt" stroke-linejoin="miter" stroke="rgb(70.196078%, 70.196078%, 70.196078%)" stroke-opacity="1" stroke-miterlimit="10" d="M 742.160156 103.085938 C 749.382812 95.589844 753.691406 86.445312 751.765625 76.277344 "/>
<path fill-rule="nonzero" fill="rgb(70.196078%, 70.196078%, 70.196078%)" fill-opacity="1" d="M 750.441406 69.269531 L 754.042969 75.847656 L 749.488281 76.710938 L 750.441406 69.269531 "/>
<path fill="none" stroke-width="3.5" stroke-linecap="butt" stroke-linejoin="miter" stroke="rgb(70.196078%, 70.196078%, 70.196078%)" stroke-opacity="1" stroke-miterlimit="10" d="M 724.292969 128.769531 C 732 125.730469 738.375 120.558594 740.113281 112.539062 "/>
<path fill-rule="nonzero" fill="rgb(70.196078%, 70.196078%, 70.196078%)" fill-opacity="1" d="M 741.621094 105.566406 L 742.378906 113.027344 L 737.847656 112.046875 L 741.621094 105.566406 "/>
<path fill="none" stroke-width="3.5" stroke-linecap="butt" stroke-linejoin="miter" stroke="rgb(70.196078%, 70.196078%, 70.196078%)" stroke-opacity="1" stroke-miterlimit="10" d="M 694.648438 176.996094 C 709.898438 168.304688 720.445312 155.527344 722.9375 138.191406 "/>
<path fill-rule="nonzero" fill="rgb(70.196078%, 70.196078%, 70.196078%)" fill-opacity="1" d="M 723.953125 131.128906 L 725.234375 138.519531 L 720.644531 137.859375 L 723.953125 131.128906 "/>
<path fill="none" stroke-width="1.5" stroke-linecap="butt" stroke-linejoin="miter" stroke="rgb(98.431373%, 60.392157%, 60%)" stroke-opacity="1" stroke-miterlimit="10" d="M 694.648438 176.996094 C 703.847656 153.957031 703.855469 130.804688 691.730469 109.195312 "/>
<path fill-rule="nonzero" fill="rgb(98.431373%, 60.392157%, 60%)" fill-opacity="1" d="M 688.242188 102.976562 L 693.753906 108.0625 L 689.710938 110.332031 L 688.242188 102.976562 "/>
<path fill="none" stroke-width="4.5" stroke-linecap="butt" stroke-linejoin="miter" stroke="rgb(70.196078%, 70.196078%, 70.196078%)" stroke-opacity="1" stroke-miterlimit="10" d="M 669.242188 294.605469 C 694.59375 262.609375 704.8125 226.289062 696.574219 186.324219 "/>
<path fill-rule="nonzero" fill="rgb(70.196078%, 70.196078%, 70.196078%)" fill-opacity="1" d="M 695.132812 179.335938 L 698.84375 185.855469 L 694.300781 186.789062 L 695.132812 179.335938 "/>
<path fill="none" stroke-width="4.5" stroke-linecap="butt" stroke-linejoin="miter" stroke="rgb(70.196078%, 70.196078%, 70.196078%)" stroke-opacity="1" stroke-miterlimit="10" d="M 554.707031 362.703125 C 567.335938 371.320312 581.417969 374.828125 595.886719 370.019531 "/>
<path fill-rule="nonzero" fill="rgb(70.196078%, 70.196078%, 70.196078%)" fill-opacity="1" d="M 602.65625 367.773438 L 596.617188 372.222656 L 595.15625 367.820312 L 602.65625 367.773438 "/>
<path fill="none" stroke-width="4.5" stroke-linecap="butt" stroke-linejoin="miter" stroke="rgb(70.196078%, 70.196078%, 70.196078%)" stroke-opacity="1" stroke-miterlimit="10" d="M 504.496094 337.765625 C 514.398438 352.015625 527.910156 361.289062 545.203125 362.203125 "/>
<path fill-rule="nonzero" fill="rgb(70.196078%, 70.196078%, 70.196078%)" fill-opacity="1" d="M 552.328125 362.578125 L 545.082031 364.515625 L 545.328125 359.886719 L 552.328125 362.578125 "/>
<path fill="none" stroke-width="4.5" stroke-linecap="butt" stroke-linejoin="miter" stroke="rgb(70.196078%, 70.196078%, 70.196078%)" stroke-opacity="1" stroke-miterlimit="10" d="M 401.410156 282.433594 C 412.246094 295.890625 426.316406 304.152344 443.554688 303.835938 "/>
<path fill-rule="nonzero" fill="rgb(70.196078%, 70.196078%, 70.196078%)" fill-opacity="1" d="M 450.683594 303.707031 L 443.59375 306.152344 L 443.511719 301.519531 L 450.683594 303.707031 "/>
<path fill="none" stroke-width="1.5" stroke-linecap="butt" stroke-linejoin="miter" stroke="rgb(98.431373%, 60.392157%, 60%)" stroke-opacity="1" stroke-miterlimit="10" d="M 392.921875 257.578125 C 390.996094 263.757812 390.855469 270.355469 395.050781 275.15625 "/>
<path fill-rule="nonzero" fill="rgb(98.431373%, 60.392157%, 60%)" fill-opacity="1" d="M 399.742188 280.527344 L 393.304688 276.679688 L 396.796875 273.628906 L 399.742188 280.527344 "/>
<path fill="none" stroke-width="4.5" stroke-linecap="butt" stroke-linejoin="miter" stroke="rgb(70.196078%, 70.196078%, 70.196078%)" stroke-opacity="1" stroke-miterlimit="10" d="M 453.066406 303.664062 C 462.222656 320.785156 476.042969 332.703125 495.125 336.097656 "/>
<path fill-rule="nonzero" fill="rgb(70.196078%, 70.196078%, 70.196078%)" fill-opacity="1" d="M 502.148438 337.347656 L 494.71875 338.378906 L 495.53125 333.816406 L 502.148438 337.347656 "/>
<path fill="none" stroke-width="3.5" stroke-linecap="butt" stroke-linejoin="miter" stroke="rgb(70.196078%, 70.196078%, 70.196078%)" stroke-opacity="1" stroke-miterlimit="10" d="M 155.703125 455.519531 C 167.171875 450.964844 176.09375 443.171875 179.203125 431.285156 "/>
<path fill-rule="nonzero" fill="rgb(70.196078%, 70.196078%, 70.196078%)" fill-opacity="1" d="M 181.007812 424.382812 L 181.445312 431.871094 L 176.960938 430.695312 L 181.007812 424.382812 "/>
<path fill="none" stroke-width="1.5" stroke-linecap="butt" stroke-linejoin="miter" stroke="rgb(98.431373%, 60.392157%, 60%)" stroke-opacity="1" stroke-miterlimit="10" d="M 385.167969 238.742188 C 383.867188 243.519531 383.816406 248.757812 387.285156 252.117188 "/>
<path fill-rule="nonzero" fill="rgb(98.431373%, 60.392157%, 60%)" fill-opacity="1" d="M 392.410156 257.082031 L 385.671875 253.78125 L 388.898438 250.453125 L 392.410156 257.082031 "/>
<path fill="none" stroke-width="1.5" stroke-linecap="butt" stroke-linejoin="miter" stroke="rgb(12.156863%, 47.058824%, 70.588235%)" stroke-opacity="1" stroke-miterlimit="10" d="M 385.167969 238.742188 C 406.664062 236.308594 424.546875 226.816406 436.0625 208.535156 "/>
<path fill-rule="nonzero" fill="rgb(12.156863%, 47.058824%, 70.588235%)" fill-opacity="1" d="M 439.863281 202.5 L 438.023438 209.769531 L 434.101562 207.300781 L 439.863281 202.5 "/>
<path fill="none" stroke-width="1.5" stroke-linecap="butt" stroke-linejoin="miter" stroke="rgb(12.156863%, 47.058824%, 70.588235%)" stroke-opacity="1" stroke-miterlimit="10" d="M 204.15625 371.730469 C 219.976562 364.613281 231.523438 353.03125 235.632812 336.214844 "/>
<path fill-rule="nonzero" fill="rgb(12.156863%, 47.058824%, 70.588235%)" fill-opacity="1" d="M 237.324219 329.285156 L 237.882812 336.761719 L 233.382812 335.664062 L 237.324219 329.285156 "/>
<path fill="none" stroke-width="1.5" stroke-linecap="butt" stroke-linejoin="miter" stroke="rgb(98.431373%, 60.392157%, 60%)" stroke-opacity="1" stroke-miterlimit="10" d="M 174.378906 425.203125 C 173.835938 426.242188 174.488281 428.148438 174.191406 428.402344 "/>
<path fill-rule="nonzero" fill="rgb(98.431373%, 60.392157%, 60%)" fill-opacity="1" d="M 179.621094 423.777344 L 175.691406 430.167969 L 172.6875 426.636719 L 179.621094 423.777344 "/>
<path fill="none" stroke-width="1.5" stroke-linecap="butt" stroke-linejoin="miter" stroke="rgb(12.156863%, 47.058824%, 70.588235%)" stroke-opacity="1" stroke-miterlimit="10" d="M 174.378906 425.203125 C 190.921875 414.347656 201.695312 399.226562 203.457031 379.550781 "/>
<path fill-rule="nonzero" fill="rgb(12.156863%, 47.058824%, 70.588235%)" fill-opacity="1" d="M 204.09375 372.445312 L 205.765625 379.757812 L 201.148438 379.34375 L 204.09375 372.445312 "/>
<path fill="none" stroke-width="3.5" stroke-linecap="butt" stroke-linejoin="miter" stroke="rgb(70.196078%, 70.196078%, 70.196078%)" stroke-opacity="1" stroke-miterlimit="10" d="M 140.597656 488.339844 C 149 482.84375 155.054688 475.160156 155.382812 465.1875 "/>
<path fill-rule="nonzero" fill="rgb(70.196078%, 70.196078%, 70.196078%)" fill-opacity="1" d="M 155.621094 458.058594 L 157.699219 465.265625 L 153.066406 465.113281 L 155.621094 458.058594 "/>
<path fill="none" stroke-width="2.5" stroke-linecap="butt" stroke-linejoin="miter" stroke="rgb(70.196078%, 70.196078%, 70.196078%)" stroke-opacity="1" stroke-miterlimit="10" d="M 140.597656 488.339844 C 159.652344 475.410156 171.785156 457.617188 173.621094 434.691406 "/>
<path fill-rule="nonzero" fill="rgb(70.196078%, 70.196078%, 70.196078%)" fill-opacity="1" d="M 174.191406 427.582031 L 175.929688 434.875 L 171.3125 434.507812 L 174.191406 427.582031 "/>
<path fill="none" stroke-width="1.5" stroke-linecap="butt" stroke-linejoin="miter" stroke="rgb(12.156863%, 47.058824%, 70.588235%)" stroke-opacity="1" stroke-miterlimit="10" d="M 278.132812 301.253906 C 293.574219 302.847656 307.832031 299.160156 318.441406 287.886719 "/>
<path fill-rule="nonzero" fill="rgb(12.156863%, 47.058824%, 70.588235%)" fill-opacity="1" d="M 323.332031 282.691406 L 320.128906 289.476562 L 316.753906 286.300781 L 323.332031 282.691406 "/>
<path fill="none" stroke-width="1.5" stroke-linecap="butt" stroke-linejoin="miter" stroke="rgb(12.156863%, 47.058824%, 70.588235%)" stroke-opacity="1" stroke-miterlimit="10" d="M 237.496094 328.585938 C 252.753906 327.160156 265.828125 320.847656 273.957031 307.902344 "/>
<path fill-rule="nonzero" fill="rgb(12.156863%, 47.058824%, 70.588235%)" fill-opacity="1" d="M 277.753906 301.863281 L 275.921875 309.136719 L 271.996094 306.671875 L 277.753906 301.863281 "/>
<path fill="none" stroke-width="3.5" stroke-linecap="butt" stroke-linejoin="miter" stroke="rgb(70.196078%, 70.196078%, 70.196078%)" stroke-opacity="1" stroke-miterlimit="10" d="M 324.960938 280.957031 C 335.074219 284.351562 345.410156 284.300781 353.992188 278.074219 "/>
<path fill-rule="nonzero" fill="rgb(70.196078%, 70.196078%, 70.196078%)" fill-opacity="1" d="M 359.765625 273.886719 L 355.355469 279.949219 L 352.632812 276.195312 L 359.765625 273.886719 "/>
<path fill="none" stroke-width="2.5" stroke-linecap="butt" stroke-linejoin="miter" stroke="rgb(70.196078%, 70.196078%, 70.196078%)" stroke-opacity="1" stroke-miterlimit="10" d="M 324.960938 280.957031 C 348.492188 277.882812 367.871094 267.105469 380.210938 246.871094 "/>
<path fill-rule="nonzero" fill="rgb(70.196078%, 70.196078%, 70.196078%)" fill-opacity="1" d="M 383.925781 240.78125 L 382.191406 248.078125 L 378.230469 245.664062 L 383.925781 240.78125 "/>
<path fill="none" stroke-width="1.5" stroke-linecap="butt" stroke-linejoin="miter" stroke="rgb(12.156863%, 47.058824%, 70.588235%)" stroke-opacity="1" stroke-miterlimit="10" d="M 495.667969 163.007812 C 515.71875 162.558594 533.09375 155.335938 545.1875 139.375 "/>
<path fill-rule="nonzero" fill="rgb(12.156863%, 47.058824%, 70.588235%)" fill-opacity="1" d="M 549.492188 133.691406 L 547.03125 140.773438 L 543.339844 137.976562 L 549.492188 133.691406 "/>
<path fill="none" stroke-width="1.5" stroke-linecap="butt" stroke-linejoin="miter" stroke="rgb(12.156863%, 47.058824%, 70.588235%)" stroke-opacity="1" stroke-miterlimit="10" d="M 440.246094 201.890625 C 462.195312 198.882812 480.257812 188.726562 491.632812 169.746094 "/>
<path fill-rule="nonzero" fill="rgb(12.156863%, 47.058824%, 70.588235%)" fill-opacity="1" d="M 495.296875 163.625 L 493.621094 170.933594 L 489.644531 168.554688 L 495.296875 163.625 "/>
<path fill="none" stroke-width="5.5" stroke-linecap="butt" stroke-linejoin="miter" stroke="rgb(70.196078%, 70.196078%, 70.196078%)" stroke-opacity="1" stroke-miterlimit="10" d="M 99.902344 592.460938 C 127.796875 567.09375 142.625 535.507812 141.007812 497.855469 "/>
<path fill-rule="nonzero" fill="rgb(70.196078%, 70.196078%, 70.196078%)" fill-opacity="1" d="M 140.703125 490.730469 L 143.324219 497.757812 L 138.691406 497.957031 L 140.703125 490.730469 "/>
<path fill="none" stroke-width="5.5" stroke-linecap="butt" stroke-linejoin="miter" stroke="rgb(70.196078%, 70.196078%, 70.196078%)" stroke-opacity="1" stroke-miterlimit="10" d="M 65.324219 700.765625 C 92.011719 673.160156 105 640.097656 100.917969 601.933594 "/>
<path fill-rule="nonzero" fill="rgb(70.196078%, 70.196078%, 70.196078%)" fill-opacity="1" d="M 100.160156 594.839844 L 103.222656 601.6875 L 98.613281 602.179688 L 100.160156 594.839844 "/>
<path fill="none" stroke-width="1.5" stroke-linecap="butt" stroke-linejoin="miter" stroke="rgb(12.156863%, 47.058824%, 70.588235%)" stroke-opacity="1" stroke-miterlimit="10" d="M 549.925781 133.117188 C 568.515625 133.464844 584.945312 127.488281 596.691406 113.117188 "/>
<path fill-rule="nonzero" fill="rgb(12.156863%, 47.058824%, 70.588235%)" fill-opacity="1" d="M 601.203125 107.59375 L 598.484375 114.585938 L 594.894531 111.652344 L 601.203125 107.59375 "/>
<path fill="none" stroke-width="1.5" stroke-linecap="butt" stroke-linejoin="miter" stroke="rgb(98.431373%, 60.392157%, 60%)" stroke-opacity="1" stroke-miterlimit="10" d="M 687.070312 100.894531 C 697.230469 99.011719 705.957031 94.101562 710.296875 84.792969 "/>
<path fill-rule="nonzero" fill="rgb(98.431373%, 60.392157%, 60%)" fill-opacity="1" d="M 713.308594 78.328125 L 712.394531 85.769531 L 708.195312 83.8125 L 713.308594 78.328125 "/>
<path fill="none" stroke-width="1.5" stroke-linecap="butt" stroke-linejoin="miter" stroke="rgb(12.156863%, 47.058824%, 70.588235%)" stroke-opacity="1" stroke-miterlimit="10" d="M 649.210938 93.742188 C 657.359375 101.085938 667.121094 105.246094 677.78125 102.921875 "/>
<path fill-rule="nonzero" fill="rgb(12.156863%, 47.058824%, 70.588235%)" fill-opacity="1" d="M 684.75 101.402344 L 678.273438 105.183594 L 677.289062 100.65625 L 684.75 101.402344 "/>
<path fill="none" stroke-width="1.5" stroke-linecap="butt" stroke-linejoin="miter" stroke="rgb(12.156863%, 47.058824%, 70.588235%)" stroke-opacity="1" stroke-miterlimit="10" d="M 601.660156 107.039062 C 616.738281 110.5 631.265625 108.570312 643.160156 98.742188 "/>
<path fill-rule="nonzero" fill="rgb(12.156863%, 47.058824%, 70.588235%)" fill-opacity="1" d="M 648.660156 94.199219 L 644.636719 100.527344 L 641.683594 96.957031 L 648.660156 94.199219 "/>
<path fill="none" stroke-width="5.5" stroke-linecap="butt" stroke-linejoin="miter" stroke="rgb(70.196078%, 70.196078%, 70.196078%)" stroke-opacity="1" stroke-miterlimit="10" d="M 56.140625 727.039062 C 61.871094 722.957031 66.230469 717.355469 65.851562 710.421875 "/>
<path fill-rule="nonzero" fill="rgb(70.196078%, 70.196078%, 70.196078%)" fill-opacity="1" d="M 65.460938 703.296875 L 68.164062 710.292969 L 63.539062 710.546875 L 65.460938 703.296875 "/>
<path fill-rule="nonzero" fill="rgb(98.431373%, 60.392157%, 60%)" fill-opacity="1" stroke-width="1" stroke-linecap="butt" stroke-linejoin="miter" stroke="rgb(98.431373%, 60.392157%, 60%)" stroke-opacity="1" stroke-miterlimit="10" d="M 747.597656 54.144531 C 747.597656 55.144531 746.097656 55.144531 746.097656 54.144531 C 746.097656 53.144531 747.597656 53.144531 747.597656 54.144531 "/>
<path fill-rule="nonzero" fill="rgb(98.431373%, 60.392157%, 60%)" fill-opacity="1" stroke-width="1" stroke-linecap="butt" stroke-linejoin="miter" stroke="rgb(98.431373%, 60.392157%, 60%)" stroke-opacity="1" stroke-miterlimit="10" d="M 734.464844 50 C 734.464844 51 732.964844 51 732.964844 50 C 732.964844 49 734.464844 49 734.464844 50 "/>
<path fill-rule="nonzero" fill="rgb(98.431373%, 60.392157%, 60%)" fill-opacity="1" stroke-width="1" stroke-linecap="butt" stroke-linejoin="miter" stroke="rgb(98.431373%, 60.392157%, 60%)" stroke-opacity="1" stroke-miterlimit="10" d="M 714.363281 77.675781 C 714.363281 78.675781 712.863281 78.675781 712.863281 77.675781 C 712.863281 76.675781 714.363281 76.675781 714.363281 77.675781 "/>
<path fill-rule="nonzero" fill="rgb(98.431373%, 60.392157%, 60%)" fill-opacity="1" stroke-width="1" stroke-linecap="butt" stroke-linejoin="miter" stroke="rgb(98.431373%, 60.392157%, 60%)" stroke-opacity="1" stroke-miterlimit="10" d="M 630.1875 367.953125 C 630.1875 368.953125 628.6875 368.953125 628.6875 367.953125 C 628.6875 366.953125 630.1875 366.953125 630.1875 367.953125 "/>
<path fill-rule="nonzero" fill="rgb(98.431373%, 60.392157%, 60%)" fill-opacity="1" stroke-width="1" stroke-linecap="butt" stroke-linejoin="miter" stroke="rgb(98.431373%, 60.392157%, 60%)" stroke-opacity="1" stroke-miterlimit="10" d="M 622.121094 387.90625 C 622.121094 388.90625 620.621094 388.90625 620.621094 387.90625 C 620.621094 386.90625 622.121094 386.90625 622.121094 387.90625 "/>
<path fill-rule="nonzero" fill="rgb(100%, 84.313725%, 0%)" fill-opacity="1" stroke-width="1" stroke-linecap="butt" stroke-linejoin="miter" stroke="rgb(100%, 84.313725%, 0%)" stroke-opacity="1" stroke-miterlimit="10" d="M 47.5 747.5 L 52.5 747.5 L 52.5 752.5 L 47.5 752.5 Z M 47.5 747.5 "/>
<path fill-rule="nonzero" fill="rgb(70.196078%, 70.196078%, 70.196078%)" fill-opacity="1" stroke-width="1" stroke-linecap="butt" stroke-linejoin="miter" stroke="rgb(70.196078%, 70.196078%, 70.196078%)" stroke-opacity="1" stroke-miterlimit="10" d="M 364.191406 272.488281 C 364.191406 275.824219 359.191406 275.824219 359.191406 272.488281 C 359.191406 269.15625 364.191406 269.15625 364.191406 272.488281 "/>
<path fill-rule="nonzero" fill="rgb(70.196078%, 70.196078%, 70.196078%)" fill-opacity="1" stroke-width="1" stroke-linecap="butt" stroke-linejoin="miter" stroke="rgb(70.196078%, 70.196078%, 70.196078%)" stroke-opacity="1" stroke-miterlimit="10" d="M 184.113281 422.082031 C 184.113281 425.414062 179.113281 425.414062 179.113281 422.082031 C 179.113281 418.75 184.113281 418.75 184.113281 422.082031 "/>
<path fill-rule="nonzero" fill="rgb(70.196078%, 70.196078%, 70.196078%)" fill-opacity="1" stroke-width="1" stroke-linecap="butt" stroke-linejoin="miter" stroke="rgb(70.196078%, 70.196078%, 70.196078%)" stroke-opacity="1" stroke-miterlimit="10" d="M 274.847656 319.019531 C 274.847656 322.351562 269.847656 322.351562 269.847656 319.019531 C 269.847656 315.6875 274.847656 315.6875 274.847656 319.019531 "/>
<path fill-rule="nonzero" fill="rgb(70.196078%, 70.196078%, 70.196078%)" fill-opacity="1" stroke-width="1" stroke-linecap="butt" stroke-linejoin="miter" stroke="rgb(70.196078%, 70.196078%, 70.196078%)" stroke-opacity="1" stroke-miterlimit="10" d="M 226.746094 368.292969 C 226.746094 371.628906 221.746094 371.628906 221.746094 368.292969 C 221.746094 364.960938 226.746094 364.960938 226.746094 368.292969 "/>
<path fill-rule="nonzero" fill="rgb(14.901961%, 14.901961%, 14.901961%)" fill-opacity="1" stroke-width="1" stroke-linecap="butt" stroke-linejoin="miter" stroke="rgb(14.901961%, 14.901961%, 14.901961%)" stroke-opacity="1" stroke-miterlimit="10" d="M 747.5 69.4375 L 750 64.4375 L 752.5 69.4375 Z M 747.5 69.4375 "/>
<path fill-rule="nonzero" fill="rgb(70.196078%, 70.196078%, 70.196078%)" fill-opacity="1" stroke-width="1" stroke-linecap="butt" stroke-linejoin="miter" stroke="rgb(70.196078%, 70.196078%, 70.196078%)" stroke-opacity="1" stroke-miterlimit="10" d="M 638.03125 342.261719 C 638.03125 345.597656 633.03125 345.597656 633.03125 342.261719 C 633.03125 338.929688 638.03125 338.929688 638.03125 342.261719 "/>
<path fill-rule="nonzero" fill="rgb(70.196078%, 70.196078%, 70.196078%)" fill-opacity="1" stroke-width="1" stroke-linecap="butt" stroke-linejoin="miter" stroke="rgb(70.196078%, 70.196078%, 70.196078%)" stroke-opacity="1" stroke-miterlimit="10" d="M 607.417969 367.023438 C 607.417969 370.355469 602.417969 370.355469 602.417969 367.023438 C 602.417969 363.6875 607.417969 363.6875 607.417969 367.023438 "/>
<path fill-rule="nonzero" fill="rgb(70.196078%, 70.196078%, 70.196078%)" fill-opacity="1" stroke-width="1" stroke-linecap="butt" stroke-linejoin="miter" stroke="rgb(70.196078%, 70.196078%, 70.196078%)" stroke-opacity="1" stroke-miterlimit="10" d="M 744.660156 103.085938 C 744.660156 106.417969 739.660156 106.417969 739.660156 103.085938 C 739.660156 99.753906 744.660156 99.753906 744.660156 103.085938 "/>
<path fill-rule="nonzero" fill="rgb(70.196078%, 70.196078%, 70.196078%)" fill-opacity="1" stroke-width="1" stroke-linecap="butt" stroke-linejoin="miter" stroke="rgb(70.196078%, 70.196078%, 70.196078%)" stroke-opacity="1" stroke-miterlimit="10" d="M 726.792969 128.769531 C 726.792969 132.105469 721.792969 132.105469 721.792969 128.769531 C 721.792969 125.4375 726.792969 125.4375 726.792969 128.769531 "/>
<path fill-rule="nonzero" fill="rgb(70.196078%, 70.196078%, 70.196078%)" fill-opacity="1" stroke-width="1" stroke-linecap="butt" stroke-linejoin="miter" stroke="rgb(70.196078%, 70.196078%, 70.196078%)" stroke-opacity="1" stroke-miterlimit="10" d="M 697.148438 176.996094 C 697.148438 180.328125 692.148438 180.328125 692.148438 176.996094 C 692.148438 173.660156 697.148438 173.660156 697.148438 176.996094 "/>
<path fill-rule="nonzero" fill="rgb(70.196078%, 70.196078%, 70.196078%)" fill-opacity="1" stroke-width="1" stroke-linecap="butt" stroke-linejoin="miter" stroke="rgb(70.196078%, 70.196078%, 70.196078%)" stroke-opacity="1" stroke-miterlimit="10" d="M 671.742188 294.605469 C 671.742188 297.941406 666.742188 297.941406 666.742188 294.605469 C 666.742188 291.273438 671.742188 291.273438 671.742188 294.605469 "/>
<path fill-rule="nonzero" fill="rgb(70.196078%, 70.196078%, 70.196078%)" fill-opacity="1" stroke-width="1" stroke-linecap="butt" stroke-linejoin="miter" stroke="rgb(70.196078%, 70.196078%, 70.196078%)" stroke-opacity="1" stroke-miterlimit="10" d="M 557.207031 362.703125 C 557.207031 366.039062 552.207031 366.039062 552.207031 362.703125 C 552.207031 359.371094 557.207031 359.371094 557.207031 362.703125 "/>
<path fill-rule="nonzero" fill="rgb(70.196078%, 70.196078%, 70.196078%)" fill-opacity="1" stroke-width="1" stroke-linecap="butt" stroke-linejoin="miter" stroke="rgb(70.196078%, 70.196078%, 70.196078%)" stroke-opacity="1" stroke-miterlimit="10" d="M 506.996094 337.765625 C 506.996094 341.097656 501.996094 341.097656 501.996094 337.765625 C 501.996094 334.433594 506.996094 334.433594 506.996094 337.765625 "/>
<path fill-rule="nonzero" fill="rgb(70.196078%, 70.196078%, 70.196078%)" fill-opacity="1" stroke-width="1" stroke-linecap="butt" stroke-linejoin="miter" stroke="rgb(70.196078%, 70.196078%, 70.196078%)" stroke-opacity="1" stroke-miterlimit="10" d="M 403.910156 282.433594 C 403.910156 285.769531 398.910156 285.769531 398.910156 282.433594 C 398.910156 279.101562 403.910156 279.101562 403.910156 282.433594 "/>
<path fill-rule="nonzero" fill="rgb(98.431373%, 60.392157%, 60%)" fill-opacity="1" stroke-width="1" stroke-linecap="butt" stroke-linejoin="miter" stroke="rgb(98.431373%, 60.392157%, 60%)" stroke-opacity="1" stroke-miterlimit="10" d="M 393.671875 257.578125 C 393.671875 258.578125 392.171875 258.578125 392.171875 257.578125 C 392.171875 256.578125 393.671875 256.578125 393.671875 257.578125 "/>
<path fill-rule="nonzero" fill="rgb(70.196078%, 70.196078%, 70.196078%)" fill-opacity="1" stroke-width="1" stroke-linecap="butt" stroke-linejoin="miter" stroke="rgb(70.196078%, 70.196078%, 70.196078%)" stroke-opacity="1" stroke-miterlimit="10" d="M 455.566406 303.664062 C 455.566406 306.996094 450.566406 306.996094 450.566406 303.664062 C 450.566406 300.332031 455.566406 300.332031 455.566406 303.664062 "/>
<path fill-rule="nonzero" fill="rgb(70.196078%, 70.196078%, 70.196078%)" fill-opacity="1" stroke-width="1" stroke-linecap="butt" stroke-linejoin="miter" stroke="rgb(70.196078%, 70.196078%, 70.196078%)" stroke-opacity="1" stroke-miterlimit="10" d="M 158.203125 455.519531 C 158.203125 458.851562 153.203125 458.851562 153.203125 455.519531 C 153.203125 452.183594 158.203125 452.183594 158.203125 455.519531 "/>
<path fill-rule="nonzero" fill="rgb(70.196078%, 70.196078%, 70.196078%)" fill-opacity="1" stroke-width="1" stroke-linecap="butt" stroke-linejoin="miter" stroke="rgb(70.196078%, 70.196078%, 70.196078%)" stroke-opacity="1" stroke-miterlimit="10" d="M 387.667969 238.742188 C 387.667969 242.074219 382.667969 242.074219 382.667969 238.742188 C 382.667969 235.410156 387.667969 235.410156 387.667969 238.742188 "/>
<path fill-rule="nonzero" fill="rgb(12.156863%, 47.058824%, 70.588235%)" fill-opacity="1" stroke-width="1" stroke-linecap="butt" stroke-linejoin="miter" stroke="rgb(12.156863%, 47.058824%, 70.588235%)" stroke-opacity="1" stroke-miterlimit="10" d="M 204.90625 371.730469 C 204.90625 372.730469 203.40625 372.730469 203.40625 371.730469 C 203.40625 370.730469 204.90625 370.730469 204.90625 371.730469 "/>
<path fill-rule="nonzero" fill="rgb(70.196078%, 70.196078%, 70.196078%)" fill-opacity="1" stroke-width="1" stroke-linecap="butt" stroke-linejoin="miter" stroke="rgb(70.196078%, 70.196078%, 70.196078%)" stroke-opacity="1" stroke-miterlimit="10" d="M 176.878906 425.203125 C 176.878906 428.535156 171.878906 428.535156 171.878906 425.203125 C 171.878906 421.871094 176.878906 421.871094 176.878906 425.203125 "/>
<path fill-rule="nonzero" fill="rgb(70.196078%, 70.196078%, 70.196078%)" fill-opacity="1" stroke-width="1" stroke-linecap="butt" stroke-linejoin="miter" stroke="rgb(70.196078%, 70.196078%, 70.196078%)" stroke-opacity="1" stroke-miterlimit="10" d="M 143.097656 488.339844 C 143.097656 491.675781 138.097656 491.675781 138.097656 488.339844 C 138.097656 485.007812 143.097656 485.007812 143.097656 488.339844 "/>
<path fill-rule="nonzero" fill="rgb(12.156863%, 47.058824%, 70.588235%)" fill-opacity="1" stroke-width="1" stroke-linecap="butt" stroke-linejoin="miter" stroke="rgb(12.156863%, 47.058824%, 70.588235%)" stroke-opacity="1" stroke-miterlimit="10" d="M 278.882812 301.253906 C 278.882812 302.253906 277.382812 302.253906 277.382812 301.253906 C 277.382812 300.253906 278.882812 300.253906 278.882812 301.253906 "/>
<path fill-rule="nonzero" fill="rgb(12.156863%, 47.058824%, 70.588235%)" fill-opacity="1" stroke-width="1" stroke-linecap="butt" stroke-linejoin="miter" stroke="rgb(12.156863%, 47.058824%, 70.588235%)" stroke-opacity="1" stroke-miterlimit="10" d="M 238.246094 328.585938 C 238.246094 329.585938 236.746094 329.585938 236.746094 328.585938 C 236.746094 327.585938 238.246094 327.585938 238.246094 328.585938 "/>
<path fill-rule="nonzero" fill="rgb(70.196078%, 70.196078%, 70.196078%)" fill-opacity="1" stroke-width="1" stroke-linecap="butt" stroke-linejoin="miter" stroke="rgb(70.196078%, 70.196078%, 70.196078%)" stroke-opacity="1" stroke-miterlimit="10" d="M 327.460938 280.957031 C 327.460938 284.292969 322.460938 284.292969 322.460938 280.957031 C 322.460938 277.625 327.460938 277.625 327.460938 280.957031 "/>
<path fill-rule="nonzero" fill="rgb(12.156863%, 47.058824%, 70.588235%)" fill-opacity="1" stroke-width="1" stroke-linecap="butt" stroke-linejoin="miter" stroke="rgb(12.156863%, 47.058824%, 70.588235%)" stroke-opacity="1" stroke-miterlimit="10" d="M 496.417969 163.007812 C 496.417969 164.007812 494.917969 164.007812 494.917969 163.007812 C 494.917969 162.007812 496.417969 162.007812 496.417969 163.007812 "/>
<path fill-rule="nonzero" fill="rgb(12.156863%, 47.058824%, 70.588235%)" fill-opacity="1" stroke-width="1" stroke-linecap="butt" stroke-linejoin="miter" stroke="rgb(12.156863%, 47.058824%, 70.588235%)" stroke-opacity="1" stroke-miterlimit="10" d="M 440.996094 201.890625 C 440.996094 202.890625 439.496094 202.890625 439.496094 201.890625 C 439.496094 200.890625 440.996094 200.890625 440.996094 201.890625 "/>
<path fill-rule="nonzero" fill="rgb(70.196078%, 70.196078%, 70.196078%)" fill-opacity="1" stroke-width="1" stroke-linecap="butt" stroke-linejoin="miter" stroke="rgb(70.196078%, 70.196078%, 70.196078%)" stroke-opacity="1" stroke-miterlimit="10" d="M 102.402344 592.460938 C 102.402344 595.796875 97.402344 595.796875 97.402344 592.460938 C 97.402344 589.128906 102.402344 589.128906 102.402344 592.460938 "/>
<path fill-rule="nonzero" fill="rgb(70.196078%, 70.196078%, 70.196078%)" fill-opacity="1" stroke-width="1" stroke-linecap="butt" stroke-linejoin="miter" stroke="rgb(70.196078%, 70.196078%, 70.196078%)" stroke-opacity="1" stroke-miterlimit="10" d="M 67.824219 700.765625 C 67.824219 704.101562 62.824219 704.101562 62.824219 700.765625 C 62.824219 697.433594 67.824219 697.433594 67.824219 700.765625 "/>
<path fill-rule="nonzero" fill="rgb(12.156863%, 47.058824%, 70.588235%)" fill-opacity="1" stroke-width="1" stroke-linecap="butt" stroke-linejoin="miter" stroke="rgb(12.156863%, 47.058824%, 70.588235%)" stroke-opacity="1" stroke-miterlimit="10" d="M 550.675781 133.117188 C 550.675781 134.117188 549.175781 134.117188 549.175781 133.117188 C 549.175781 132.117188 550.675781 132.117188 550.675781 133.117188 "/>
<path fill-rule="nonzero" fill="rgb(14.901961%, 14.901961%, 14.901961%)" fill-opacity="1" stroke-width="1" stroke-linecap="butt" stroke-linejoin="miter" stroke="rgb(14.901961%, 14.901961%, 14.901961%)" stroke-opacity="1" stroke-miterlimit="10" d="M 684.570312 103.394531 L 687.070312 98.394531 L 689.570312 103.394531 Z M 684.570312 103.394531 "/>
<path fill-rule="nonzero" fill="rgb(12.156863%, 47.058824%, 70.588235%)" fill-opacity="1" stroke-width="1" stroke-linecap="butt" stroke-linejoin="miter" stroke="rgb(12.156863%, 47.058824%, 70.588235%)" stroke-opacity="1" stroke-miterlimit="10" d="M 649.960938 93.742188 C 649.960938 94.742188 648.460938 94.742188 648.460938 93.742188 C 648.460938 92.742188 649.960938 92.742188 649.960938 93.742188 "/>
<path fill-rule="nonzero" fill="rgb(12.156863%, 47.058824%, 70.588235%)" fill-opacity="1" stroke-width="1" stroke-linecap="butt" stroke-linejoin="miter" stroke="rgb(12.156863%, 47.058824%, 70.588235%)" stroke-opacity="1" stroke-miterlimit="10" d="M 602.410156 107.039062 C 602.410156 108.039062 600.910156 108.039062 600.910156 107.039062 C 600.910156 106.039062 602.410156 106.039062 602.410156 107.039062 "/>
<path fill-rule="nonzero" fill="rgb(70.196078%, 70.196078%, 70.196078%)" fill-opacity="1" stroke-width="1" stroke-linecap="butt" stroke-linejoin="miter" stroke="rgb(70.196078%, 70.196078%, 70.196078%)" stroke-opacity="1" stroke-miterlimit="10" d="M 58.640625 727.039062 C 58.640625 730.375 53.640625 730.375 53.640625 727.039062 C 53.640625 723.707031 58.640625 723.707031 58.640625 727.039062 "/>
</svg>
