<?xml version="1.0" encoding="UTF-8"?>
<svg xmlns="http://www.w3.org/2000/svg" xmlns:xlink="http://www.w3.org/1999/xlink" width="800" height="800" viewBox="0 0 800 800">
<rect x="-80" y="-80" width="960" height="960" fill="rgb(100%, 100%, 100%)" fill-opacity="1"/>
<path fill="none" stroke-width="5.5" stroke-linecap="butt" stroke-linejoin="miter" stroke="rgb(70.196078%, 70.196078%, 70.196078%)" stroke-opacity="1" stroke-miterlimit="10" d="M 743.222656 733.746094 C 741.78125 735.507812 740.355469 738.238281 741.601562 739.761719 "/>
<path fill-rule="nonzero" fill="rgb(70.196078%, 70.196078%, 70.196078%)" fill-opacity="1" d="M 746.125 745.277344 L 739.8125 741.230469 L 743.394531 738.292969 L 746.125 745.277344 "/>
<path fill="none" stroke-width="5.5" stroke-linecap="butt" stroke-linejoin="miter" stroke="rgb(70.196078%, 70.196078%, 70.196078%)" stroke-opacity="1" stroke-miterlimit="10" d="M 731.753906 720.101562 C 731.070312 722.773438 730.902344 726.222656 733.042969 727.53125 "/>
<path fill-rule="nonzero" fill="rgb(70.196078%, 70.196078%, 70.196078%)" fill-opacity="1" d="M 739.132812 731.246094 L 731.835938 729.507812 L 734.25 725.550781 L 739.132812 731.246094 "/>
<path fill="none" stroke-width="5.5" stroke-linecap="butt" stroke-linejoin="miter" stroke="rgb(70.196078%, 70.196078%, 70.196078%)" stroke-opacity="1" stroke-miterlimit="10" d="M 716.988281 699.859375 C 716.546875 705.113281 717.503906 710.609375 721.785156 713.460938 "/>
<path fill-rule="nonzero" fill="rgb(70.196078%, 70.196078%, 70.196078%)" fill-opacity="1" d="M 727.71875 717.417969 L 720.5 715.390625 L 723.070312 711.535156 L 727.71875 717.417969 "/>
<path fill="none" stroke-width="5.5" stroke-linecap="butt" stroke-linejoin="miter" stroke="rgb(70.196078%, 70.196078%, 70.196078%)" stroke-opacity="1" stroke-miterlimit="10" d="M 690.433594 642.648438 C 688.957031 661.652344 694.046875 678.882812 708.085938 691.71875 "/>
<path fill-rule="nonzero" fill="rgb(70.196078%, 70.196078%, 70.196078%)" fill-opacity="1" d="M 713.351562 696.535156 L 706.523438 693.429688 L 709.648438 690.011719 L 713.351562 696.535156 "/>
<path fill="none" stroke-width="5.5" stroke-linecap="butt" stroke-linejoin="miter" stroke="rgb(70.196078%, 70.196078%, 70.196078%)" stroke-opacity="1" stroke-miterlimit="10" d="M 661.417969 583.882812 C 660.429688 603.820312 666.292969 621.660156 681.332031 634.734375 "/>
<path fill-rule="nonzero" fill="rgb(70.196078%, 70.196078%, 70.196078%)" fill-opacity="1" d="M 686.714844 639.414062 L 679.808594 636.484375 L 682.851562 632.984375 L 686.714844 639.414062 "/>
<path fill="none" stroke-width="5.5" stroke-linecap="butt" stroke-linejoin="miter" stroke="rgb(70.196078%, 70.196078%, 70.196078%)" stroke-opacity="1" stroke-miterlimit="10" d="M 628.378906 519.882812 C 627.910156 542.316406 635.160156 562.050781 652.390625 576.375 "/>
<path fill-rule="nonzero" fill="rgb(70.196078%, 70.196078%, 70.196078%)" fill-opacity="1" d="M 657.875 580.9375 L 650.910156 578.160156 L 653.871094 574.59375 L 657.875 580.9375 "/>
<path fill="none" stroke-width="5.5" stroke-linecap="butt" stroke-linejoin="miter" stroke="rgb(70.196078%, 70.196078%, 70.196078%)" stroke-opacity="1" stroke-miterlimit="10" d="M 596.070312 459.203125 C 595.761719 480.332031 602.667969 498.933594 619.027344 512.261719 "/>
<path fill-rule="nonzero" fill="rgb(70.196078%, 70.196078%, 70.196078%)" fill-opacity="1" d="M 624.554688 516.769531 L 617.5625 514.058594 L 620.492188 510.464844 L 624.554688 516.769531 "/>
<path fill="none" stroke-width="5.5" stroke-linecap="butt" stroke-linejoin="miter" stroke="rgb(70.196078%, 70.196078%, 70.196078%)" stroke-opacity="1" stroke-miterlimit="10" d="M 562.195312 395.210938 C 561.964844 417.785156 569.476562 437.558594 586.960938 451.789062 "/>
<path fill-rule="nonzero" fill="rgb(70.196078%, 70.196078%, 70.196078%)" fill-opacity="1" d="M 592.496094 456.292969 L 585.5 453.585938 L 588.425781 449.992188 L 592.496094 456.292969 "/>
<path fill="none" stroke-width="5.5" stroke-linecap="butt" stroke-linejoin="miter" stroke="rgb(70.196078%, 70.196078%, 70.196078%)" stroke-opacity="1" stroke-miterlimit="10" d="M 526.019531 332.832031 C 526.652344 355.292969 534.875 374.671875 552.8125 388.15625 "/>
<path fill-rule="nonzero" fill="rgb(70.196078%, 70.196078%, 70.196078%)" fill-opacity="1" d="M 558.511719 392.441406 L 551.417969 390.007812 L 554.203125 386.300781 L 558.511719 392.441406 "/>
<path fill="none" stroke-width="5.5" stroke-linecap="butt" stroke-linejoin="miter" stroke="rgb(70.196078%, 70.196078%, 70.196078%)" stroke-opacity="1" stroke-miterlimit="10" d="M 416.445312 153.335938 C 418.496094 173.203125 427.003906 189.953125 443.859375 200.597656 "/>
<path fill-rule="nonzero" fill="rgb(70.196078%, 70.196078%, 70.196078%)" fill-opacity="1" d="M 449.894531 204.402344 L 442.625 202.554688 L 445.097656 198.636719 L 449.894531 204.402344 "/>
<path fill="none" stroke-width="5.5" stroke-linecap="butt" stroke-linejoin="miter" stroke="rgb(70.196078%, 70.196078%, 70.196078%)" stroke-opacity="1" stroke-miterlimit="10" d="M 380.214844 103.46875 C 382.320312 121.890625 390.351562 137.425781 406.148438 147.058594 "/>
<path fill-rule="nonzero" fill="rgb(70.196078%, 70.196078%, 70.196078%)" fill-opacity="1" d="M 412.238281 150.769531 L 404.941406 149.035156 L 407.355469 145.078125 L 412.238281 150.769531 "/>
<path fill="none" stroke-width="5.5" stroke-linecap="butt" stroke-linejoin="miter" stroke="rgb(70.196078%, 70.196078%, 70.196078%)" stroke-opacity="1" stroke-miterlimit="10" d="M 490.039062 270.429688 C 490.613281 292.863281 498.777344 312.242188 516.652344 325.753906 "/>
<path fill-rule="nonzero" fill="rgb(70.196078%, 70.196078%, 70.196078%)" fill-opacity="1" d="M 522.34375 330.054688 L 515.257812 327.601562 L 518.050781 323.902344 L 522.34375 330.054688 "/>
<path fill="none" stroke-width="5.5" stroke-linecap="butt" stroke-linejoin="miter" stroke="rgb(70.196078%, 70.196078%, 70.196078%)" stroke-opacity="1" stroke-miterlimit="10" d="M 454.0625 207.035156 C 454.507812 229.785156 462.679688 249.46875 480.71875 263.289062 "/>
<path fill-rule="nonzero" fill="rgb(70.196078%, 70.196078%, 70.196078%)" fill-opacity="1" d="M 486.382812 267.625 L 479.308594 265.128906 L 482.128906 261.449219 L 486.382812 267.625 "/>
<path fill="none" stroke-width="5.5" stroke-linecap="butt" stroke-linejoin="miter" stroke="rgb(70.196078%, 70.196078%, 70.196078%)" stroke-opacity="1" stroke-miterlimit="10" d="M 344.289062 50 C 345.882812 69.488281 353.851562 86.082031 370.144531 96.828125 "/>
<path fill-rule="nonzero" fill="rgb(70.196078%, 70.196078%, 70.196078%)" fill-opacity="1" d="M 376.097656 100.757812 L 368.867188 98.765625 L 371.421875 94.894531 L 376.097656 100.757812 "/>
<path fill="none" stroke-width="5.5" stroke-linecap="butt" stroke-linejoin="miter" stroke="rgb(70.196078%, 70.196078%, 70.196078%)" stroke-opacity="1" stroke-miterlimit="10" d="M 303.191406 52.957031 C 312.9375 58.265625 323.542969 60.089844 333.46875 55.261719 "/>
<path fill-rule="nonzero" fill="rgb(70.196078%, 70.196078%, 70.196078%)" fill-opacity="1" d="M 339.882812 52.140625 L 334.484375 57.347656 L 332.457031 53.175781 L 339.882812 52.140625 "/>
<path fill="none" stroke-width="5.5" stroke-linecap="butt" stroke-linejoin="miter" stroke="rgb(70.196078%, 70.196078%, 70.196078%)" stroke-opacity="1" stroke-miterlimit="10" d="M 129.164062 115.738281 C 138.210938 115.199219 146.535156 111.964844 151.132812 104.242188 "/>
<path fill-rule="nonzero" fill="rgb(70.196078%, 70.196078%, 70.196078%)" fill-opacity="1" d="M 154.777344 98.113281 L 153.121094 105.425781 L 149.140625 103.058594 L 154.777344 98.113281 "/>
<path fill="none" stroke-width="5.5" stroke-linecap="butt" stroke-linejoin="miter" stroke="rgb(70.196078%, 70.196078%, 70.196078%)" stroke-opacity="1" stroke-miterlimit="10" d="M 157.273438 93.914062 C 166.242188 94.101562 174.722656 91.578125 179.855469 84.320312 "/>
<path fill-rule="nonzero" fill="rgb(70.196078%, 70.196078%, 70.196078%)" fill-opacity="1" d="M 183.972656 78.496094 L 181.746094 85.660156 L 177.964844 82.980469 L 183.972656 78.496094 "/>
<path fill="none" stroke-width="5.5" stroke-linecap="butt" stroke-linejoin="miter" stroke="rgb(70.196078%, 70.196078%, 70.196078%)" stroke-opacity="1" stroke-miterlimit="10" d="M 104.996094 139.941406 C 113.425781 138.445312 120.945312 134.511719 124.347656 126.742188 "/>
<path fill-rule="nonzero" fill="rgb(70.196078%, 70.196078%, 70.196078%)" fill-opacity="1" d="M 127.207031 120.207031 L 126.46875 127.671875 L 122.222656 125.8125 L 127.207031 120.207031 "/>
<path fill="none" stroke-width="5.5" stroke-linecap="butt" stroke-linejoin="miter" stroke="rgb(70.196078%, 70.196078%, 70.196078%)" stroke-opacity="1" stroke-miterlimit="10" d="M 264.25 58.207031 C 273.640625 62.695312 283.703125 63.929688 292.710938 58.859375 "/>
<path fill-rule="nonzero" fill="rgb(70.196078%, 70.196078%, 70.196078%)" fill-opacity="1" d="M 298.929688 55.359375 L 293.847656 60.878906 L 291.574219 56.839844 L 298.929688 55.359375 "/>
<path fill="none" stroke-width="5.5" stroke-linecap="butt" stroke-linejoin="miter" stroke="rgb(70.196078%, 70.196078%, 70.196078%)" stroke-opacity="1" stroke-miterlimit="10" d="M 225.042969 64.925781 C 234.757812 69.121094 245.019531 69.972656 253.988281 64.484375 "/>
<path fill-rule="nonzero" fill="rgb(70.196078%, 70.196078%, 70.196078%)" fill-opacity="1" d="M 260.074219 60.761719 L 255.199219 66.460938 L 252.78125 62.507812 L 260.074219 60.761719 "/>
<path fill="none" stroke-width="5.5" stroke-linecap="butt" stroke-linejoin="miter" stroke="rgb(70.196078%, 70.196078%, 70.196078%)" stroke-opacity="1" stroke-miterlimit="10" d="M 186.792969 74.511719 C 196.675781 77.933594 206.855469 78.03125 215.285156 71.957031 "/>
<path fill-rule="nonzero" fill="rgb(70.196078%, 70.196078%, 70.196078%)" fill-opacity="1" d="M 221.074219 67.789062 L 216.640625 73.839844 L 213.929688 70.078125 L 221.074219 67.789062 "/>
<path fill="none" stroke-width="5.5" stroke-linecap="butt" stroke-linejoin="miter" stroke="rgb(70.196078%, 70.196078%, 70.196078%)" stroke-opacity="1" stroke-miterlimit="10" d="M 53.269531 220.945312 C 55.265625 221.113281 58.105469 220.738281 58.441406 219.121094 "/>
<path fill-rule="nonzero" fill="rgb(70.196078%, 70.196078%, 70.196078%)" fill-opacity="1" d="M 59.898438 212.140625 L 60.710938 219.59375 L 56.171875 218.648438 L 59.898438 212.140625 "/>
<path fill="none" stroke-width="5.5" stroke-linecap="butt" stroke-linejoin="miter" stroke="rgb(70.196078%, 70.196078%, 70.196078%)" stroke-opacity="1" stroke-miterlimit="10" d="M 85.230469 170.257812 C 93.792969 166.675781 100.71875 160.730469 102.574219 151.714844 "/>
<path fill-rule="nonzero" fill="rgb(70.196078%, 70.196078%, 70.196078%)" fill-opacity="1" d="M 104.011719 144.726562 L 104.84375 152.183594 L 100.304688 151.246094 L 104.011719 144.726562 "/>
<path fill="none" stroke-width="5.5" stroke-linecap="butt" stroke-linejoin="miter" stroke="rgb(70.196078%, 70.196078%, 70.196078%)" stroke-opacity="1" stroke-miterlimit="10" d="M 70.3125 196.230469 C 76.777344 193.480469 82.277344 188.957031 83.359375 182.109375 "/>
<path fill-rule="nonzero" fill="rgb(70.196078%, 70.196078%, 70.196078%)" fill-opacity="1" d="M 84.472656 175.0625 L 85.648438 182.46875 L 81.070312 181.746094 L 84.472656 175.0625 "/>
<path fill="none" stroke-width="5.5" stroke-linecap="butt" stroke-linejoin="miter" stroke="rgb(70.196078%, 70.196078%, 70.196078%)" stroke-opacity="1" stroke-miterlimit="10" d="M 60.9375 207.164062 C 62.375 207.898438 64.882812 208.425781 65.351562 207.371094 "/>
<path fill-rule="nonzero" fill="rgb(70.196078%, 70.196078%, 70.196078%)" fill-opacity="1" d="M 68.253906 200.855469 L 67.46875 208.316406 L 63.234375 206.429688 L 68.253906 200.855469 "/>
<path fill="none" stroke-width="5.5" stroke-linecap="butt" stroke-linejoin="miter" stroke="rgb(70.196078%, 70.196078%, 70.196078%)" stroke-opacity="1" stroke-miterlimit="10" d="M 50 230.605469 C 50.347656 231.726562 52.160156 232.628906 52.125 233.007812 "/>
<path fill-rule="nonzero" fill="rgb(70.196078%, 70.196078%, 70.196078%)" fill-opacity="1" d="M 52.800781 225.90625 L 54.433594 233.226562 L 49.820312 232.789062 L 52.800781 225.90625 "/>
<path fill-rule="nonzero" fill="rgb(14.901961%, 14.901961%, 14.901961%)" fill-opacity="1" stroke-width="1" stroke-linecap="butt" stroke-linejoin="miter" stroke="rgb(14.901961%, 14.901961%, 14.901961%)" stroke-opacity="1" stroke-miterlimit="10" d="M 744.148438 755.851562 L 750 744.148438 L 755.851562 755.851562 Z M 744.148438 755.851562 "/>
<path fill-rule="nonzero" fill="rgb(70.196078%, 70.196078%, 70.196078%)" fill-opacity="1" stroke-width="1" stroke-linecap="butt" stroke-linejoin="miter" stroke="rgb(70.196078%, 70.196078%, 70.196078%)" stroke-opacity="1" stroke-miterlimit="10" d="M 748.074219 733.746094 C 748.074219 740.210938 738.375 740.210938 738.375 733.746094 C 738.375 727.277344 748.074219 727.277344 748.074219 733.746094 "/>
<path fill-rule="nonzero" fill="rgb(70.196078%, 70.196078%, 70.196078%)" fill-opacity="1" stroke-width="1" stroke-linecap="butt" stroke-linejoin="miter" stroke="rgb(70.196078%, 70.196078%, 70.196078%)" stroke-opacity="1" stroke-miterlimit="10" d="M 736.601562 720.101562 C 736.601562 726.570312 726.902344 726.570312 726.902344 720.101562 C 726.902344 713.636719 736.601562 713.636719 736.601562 720.101562 "/>
<path fill-rule="nonzero" fill="rgb(70.196078%, 70.196078%, 70.196078%)" fill-opacity="1" stroke-width="1" stroke-linecap="butt" stroke-linejoin="miter" stroke="rgb(70.196078%, 70.196078%, 70.196078%)" stroke-opacity="1" stroke-miterlimit="10" d="M 721.835938 699.859375 C 721.835938 706.324219 712.136719 706.324219 712.136719 699.859375 C 712.136719 693.390625 721.835938 693.390625 721.835938 699.859375 "/>
<path fill-rule="nonzero" fill="rgb(70.196078%, 70.196078%, 70.196078%)" fill-opacity="1" stroke-width="1" stroke-linecap="butt" stroke-linejoin="miter" stroke="rgb(70.196078%, 70.196078%, 70.196078%)" stroke-opacity="1" stroke-miterlimit="10" d="M 695.285156 642.648438 C 695.285156 649.113281 685.585938 649.113281 685.585938 642.648438 C 685.585938 636.179688 695.285156 636.179688 695.285156 642.648438 "/>
<path fill-rule="nonzero" fill="rgb(70.196078%, 70.196078%, 70.196078%)" fill-opacity="1" stroke-width="1" stroke-linecap="butt" stroke-linejoin="miter" stroke="rgb(70.196078%, 70.196078%, 70.196078%)" stroke-opacity="1" stroke-miterlimit="10" d="M 666.269531 583.882812 C 666.269531 590.351562 656.570312 590.351562 656.570312 583.882812 C 656.570312 577.417969 666.269531 577.417969 666.269531 583.882812 "/>
<path fill-rule="nonzero" fill="rgb(70.196078%, 70.196078%, 70.196078%)" fill-opacity="1" stroke-width="1" stroke-linecap="butt" stroke-linejoin="miter" stroke="rgb(70.196078%, 70.196078%, 70.196078%)" stroke-opacity="1" stroke-miterlimit="10" d="M 633.230469 519.882812 C 633.230469 526.351562 623.53125 526.351562 623.53125 519.882812 C 623.53125 513.417969 633.230469 513.417969 633.230469 519.882812 "/>
<path fill-rule="nonzero" fill="rgb(70.196078%, 70.196078%, 70.196078%)" fill-opacity="1" stroke-width="1" stroke-linecap="butt" stroke-linejoin="miter" stroke="rgb(70.196078%, 70.196078%, 70.196078%)" stroke-opacity="1" stroke-miterlimit="10" d="M 600.917969 459.203125 C 600.917969 465.671875 591.21875 465.671875 591.21875 459.203125 C 591.21875 452.738281 600.917969 452.738281 600.917969 459.203125 "/>
<path fill-rule="nonzero" fill="rgb(70.196078%, 70.196078%, 70.196078%)" fill-opacity="1" stroke-width="1" stroke-linecap="butt" stroke-linejoin="miter" stroke="rgb(70.196078%, 70.196078%, 70.196078%)" stroke-opacity="1" stroke-miterlimit="10" d="M 567.046875 395.210938 C 567.046875 401.675781 557.347656 401.675781 557.347656 395.210938 C 557.347656 388.742188 567.046875 388.742188 567.046875 395.210938 "/>
<path fill-rule="nonzero" fill="rgb(70.196078%, 70.196078%, 70.196078%)" fill-opacity="1" stroke-width="1" stroke-linecap="butt" stroke-linejoin="miter" stroke="rgb(70.196078%, 70.196078%, 70.196078%)" stroke-opacity="1" stroke-miterlimit="10" d="M 530.871094 332.832031 C 530.871094 339.296875 521.171875 339.296875 521.171875 332.832031 C 521.171875 326.367188 530.871094 326.367188 530.871094 332.832031 "/>
<path fill-rule="nonzero" fill="rgb(70.196078%, 70.196078%, 70.196078%)" fill-opacity="1" stroke-width="1" stroke-linecap="butt" stroke-linejoin="miter" stroke="rgb(70.196078%, 70.196078%, 70.196078%)" stroke-opacity="1" stroke-miterlimit="10" d="M 421.296875 153.335938 C 421.296875 159.800781 411.59375 159.800781 411.59375 153.335938 C 411.59375 146.867188 421.296875 146.867188 421.296875 153.335938 "/>
<path fill-rule="nonzero" fill="rgb(70.196078%, 70.196078%, 70.196078%)" fill-opacity="1" stroke-width="1" stroke-linecap="butt" stroke-linejoin="miter" stroke="rgb(70.196078%, 70.196078%, 70.196078%)" stroke-opacity="1" stroke-miterlimit="10" d="M 385.0625 103.46875 C 385.0625 109.9375 375.363281 109.9375 375.363281 103.46875 C 375.363281 97.003906 385.0625 97.003906 385.0625 103.46875 "/>
<path fill-rule="nonzero" fill="rgb(70.196078%, 70.196078%, 70.196078%)" fill-opacity="1" stroke-width="1" stroke-linecap="butt" stroke-linejoin="miter" stroke="rgb(70.196078%, 70.196078%, 70.196078%)" stroke-opacity="1" stroke-miterlimit="10" d="M 494.890625 270.429688 C 494.890625 276.894531 485.191406 276.894531 485.191406 270.429688 C 485.191406 263.960938 494.890625 263.960938 494.890625 270.429688 "/>
<path fill-rule="nonzero" fill="rgb(70.196078%, 70.196078%, 70.196078%)" fill-opacity="1" stroke-width="1" stroke-linecap="butt" stroke-linejoin="miter" stroke="rgb(70.196078%, 70.196078%, 70.196078%)" stroke-opacity="1" stroke-miterlimit="10" d="M 458.910156 207.035156 C 458.910156 213.503906 449.210938 213.503906 449.210938 207.035156 C 449.210938 200.570312 458.910156 200.570312 458.910156 207.035156 "/>
<path fill-rule="nonzero" fill="rgb(70.196078%, 70.196078%, 70.196078%)" fill-opacity="1" stroke-width="1" stroke-linecap="butt" stroke-linejoin="miter" stroke="rgb(70.196078%, 70.196078%, 70.196078%)" stroke-opacity="1" stroke-miterlimit="10" d="M 349.140625 50 C 349.140625 56.464844 339.4375 56.464844 339.4375 50 C 339.4375 43.535156 349.140625 43.535156 349.140625 50 "/>
<path fill-rule="nonzero" fill="rgb(70.196078%, 70.196078%, 70.196078%)" fill-opacity="1" stroke-width="1" stroke-linecap="butt" stroke-linejoin="miter" stroke="rgb(70.196078%, 70.196078%, 70.196078%)" stroke-opacity="1" stroke-miterlimit="10" d="M 308.042969 52.957031 C 308.042969 59.425781 298.34375 59.425781 298.34375 52.957031 C 298.34375 46.492188 308.042969 46.492188 308.042969 52.957031 "/>
<path fill-rule="nonzero" fill="rgb(70.196078%, 70.196078%, 70.196078%)" fill-opacity="1" stroke-width="1" stroke-linecap="butt" stroke-linejoin="miter" stroke="rgb(70.196078%, 70.196078%, 70.196078%)" stroke-opacity="1" stroke-miterlimit="10" d="M 134.015625 115.738281 C 134.015625 122.203125 124.3125 122.203125 124.3125 115.738281 C 124.3125 109.269531 134.015625 109.269531 134.015625 115.738281 "/>
<path fill-rule="nonzero" fill="rgb(70.196078%, 70.196078%, 70.196078%)" fill-opacity="1" stroke-width="1" stroke-linecap="butt" stroke-linejoin="miter" stroke="rgb(70.196078%, 70.196078%, 70.196078%)" stroke-opacity="1" stroke-miterlimit="10" d="M 162.125 93.914062 C 162.125 100.378906 152.425781 100.378906 152.425781 93.914062 C 152.425781 87.445312 162.125 87.445312 162.125 93.914062 "/>
<path fill-rule="nonzero" fill="rgb(70.196078%, 70.196078%, 70.196078%)" fill-opacity="1" stroke-width="1" stroke-linecap="butt" stroke-linejoin="miter" stroke="rgb(70.196078%, 70.196078%, 70.196078%)" stroke-opacity="1" stroke-miterlimit="10" d="M 109.847656 139.941406 C 109.847656 146.410156 100.148438 146.410156 100.148438 139.941406 C 100.148438 133.476562 109.847656 133.476562 109.847656 139.941406 "/>
<path fill-rule="nonzero" fill="rgb(70.196078%, 70.196078%, 70.196078%)" fill-opacity="1" stroke-width="1" stroke-linecap="butt" stroke-linejoin="miter" stroke="rgb(70.196078%, 70.196078%, 70.196078%)" stroke-opacity="1" stroke-miterlimit="10" d="M 269.101562 58.207031 C 269.101562 64.675781 259.402344 64.675781 259.402344 58.207031 C 259.402344 51.742188 269.101562 51.742188 269.101562 58.207031 "/>
<path fill-rule="nonzero" fill="rgb(70.196078%, 70.196078%, 70.196078%)" fill-opacity="1" stroke-width="1" stroke-linecap="butt" stroke-linejoin="miter" stroke="rgb(70.196078%, 70.196078%, 70.196078%)" stroke-opacity="1" stroke-miterlimit="10" d="M 229.894531 64.925781 C 229.894531 71.394531 220.195312 71.394531 220.195312 64.925781 C 220.195312 58.460938 229.894531 58.460938 229.894531 64.925781 "/>
<path fill-rule="nonzero" fill="rgb(70.196078%, 70.196078%, 70.196078%)" fill-opacity="1" stroke-width="1" stroke-linecap="butt" stroke-linejoin="miter" stroke="rgb(70.196078%, 70.196078%, 70.196078%)" stroke-opacity="1" stroke-miterlimit="10" d="M 191.644531 74.511719 C 191.644531 80.976562 181.945312 80.976562 181.945312 74.511719 C 181.945312 68.042969 191.644531 68.042969 191.644531 74.511719 "/>
<path fill-rule="nonzero" fill="rgb(70.196078%, 70.196078%, 70.196078%)" fill-opacity="1" stroke-width="1" stroke-linecap="butt" stroke-linejoin="miter" stroke="rgb(70.196078%, 70.196078%, 70.196078%)" stroke-opacity="1" stroke-miterlimit="10" d="M 58.121094 220.945312 C 58.121094 227.410156 48.417969 227.410156 48.417969 220.945312 C 48.417969 214.476562 58.121094 214.476562 58.121094 220.945312 "/>
<path fill-rule="nonzero" fill="rgb(70.196078%, 70.196078%, 70.196078%)" fill-opacity="1" stroke-width="1" stroke-linecap="butt" stroke-linejoin="miter" stroke="rgb(70.196078%, 70.196078%, 70.196078%)" stroke-opacity="1" stroke-miterlimit="10" d="M 90.082031 170.257812 C 90.082031 176.722656 80.382812 176.722656 80.382812 170.257812 C 80.382812 163.789062 90.082031 163.789062 90.082031 170.257812 "/>
<path fill-rule="nonzero" fill="rgb(70.196078%, 70.196078%, 70.196078%)" fill-opacity="1" stroke-width="1" stroke-linecap="butt" stroke-linejoin="miter" stroke="rgb(70.196078%, 70.196078%, 70.196078%)" stroke-opacity="1" stroke-miterlimit="10" d="M 75.160156 196.230469 C 75.160156 202.699219 65.460938 202.699219 65.460938 196.230469 C 65.460938 189.765625 75.160156 189.765625 75.160156 196.230469 "/>
<path fill-rule="nonzero" fill="rgb(70.196078%, 70.196078%, 70.196078%)" fill-opacity="1" stroke-width="1" stroke-linecap="butt" stroke-linejoin="miter" stroke="rgb(70.196078%, 70.196078%, 70.196078%)" stroke-opacity="1" stroke-miterlimit="10" d="M 65.785156 207.164062 C 65.785156 213.632812 56.085938 213.632812 56.085938 207.164062 C 56.085938 200.699219 65.785156 200.699219 65.785156 207.164062 "/>
<path fill-rule="nonzero" fill="rgb(100%, 84.313725%, 0%)" fill-opacity="1" stroke-width="1" stroke-linecap="butt" stroke-linejoin="miter" stroke="rgb(100%, 84.313725%, 0%)" stroke-opacity="1" stroke-miterlimit="10" d="M 44.648438 225.257812 L 55.347656 225.257812 L 55.347656 235.957031 L 44.648438 235.957031 Z M 44.648438 225.257812 "/>
</svg>
