<?xml version="1.0" encoding="UTF-8"?>
<svg xmlns="http://www.w3.org/2000/svg" xmlns:xlink="http://www.w3.org/1999/xlink" width="800" height="800" viewBox="0 0 800 800">
<rect x="-80" y="-80" width="960" height="960" fill="rgb(100%, 100%, 100%)" fill-opacity="1"/>
<path fill="none" stroke-width="4.5" stroke-linecap="butt" stroke-linejoin="miter" stroke="rgb(70.196078%, 70.196078%, 70.196078%)" stroke-opacity="1" stroke-miterlimit="10" d="M 251.042969 730.019531 C 249.503906 723.167969 246.050781 716.941406 239.515625 714.652344 "/>
<path fill-rule="nonzero" fill="rgb(70.196078%, 70.196078%, 70.196078%)" fill-opacity="1" d="M 232.785156 712.292969 L 240.28125 712.464844 L 238.75 716.839844 L 232.785156 712.292969 "/>
<path fill="none" stroke-width="4.5" stroke-linecap="butt" stroke-linejoin="miter" stroke="rgb(70.196078%, 70.196078%, 70.196078%)" stroke-opacity="1" stroke-miterlimit="10" d="M 269.074219 740.59375 C 268.21875 736.882812 266.339844 732.988281 262.777344 732.296875 "/>
<path fill-rule="nonzero" fill="rgb(70.196078%, 70.196078%, 70.196078%)" fill-opacity="1" d="M 255.773438 730.9375 L 263.21875 730.023438 L 262.332031 734.570312 L 255.773438 730.9375 "/>
<path fill="none" stroke-width="4.5" stroke-linecap="butt" stroke-linejoin="miter" stroke="rgb(70.196078%, 70.196078%, 70.196078%)" stroke-opacity="1" stroke-miterlimit="10" d="M 282.894531 743.308594 C 282.910156 741.773438 282.246094 739.367188 281.210938 739.460938 "/>
<path fill-rule="nonzero" fill="rgb(70.196078%, 70.196078%, 70.196078%)" fill-opacity="1" d="M 274.109375 740.125 L 280.996094 737.15625 L 281.429688 741.769531 L 274.109375 740.125 "/>
<path fill="none" stroke-width="1.5" stroke-linecap="butt" stroke-linejoin="miter" stroke="rgb(12.156863%, 47.058824%, 70.588235%)" stroke-opacity="1" stroke-miterlimit="10" d="M 282.894531 743.308594 C 282.347656 740.390625 280.972656 737.058594 278.257812 736.644531 "/>
<path fill-rule="nonzero" fill="rgb(12.156863%, 47.058824%, 70.588235%)" fill-opacity="1" d="M 271.207031 735.558594 L 278.609375 734.351562 L 277.90625 738.933594 L 271.207031 735.558594 "/>
<path fill="none" stroke-width="4.5" stroke-linecap="butt" stroke-linejoin="miter" stroke="rgb(70.196078%, 70.196078%, 70.196078%)" stroke-opacity="1" stroke-miterlimit="10" d="M 291.671875 750 C 292.808594 749.910156 294.175781 748.394531 294.402344 748.496094 "/>
<path fill-rule="nonzero" fill="rgb(70.196078%, 70.196078%, 70.196078%)" fill-opacity="1" d="M 287.902344 745.566406 L 295.355469 746.382812 L 293.449219 750.609375 L 287.902344 745.566406 "/>
<path fill="none" stroke-width="1.5" stroke-linecap="butt" stroke-linejoin="miter" stroke="rgb(12.156863%, 47.058824%, 70.588235%)" stroke-opacity="1" stroke-miterlimit="10" d="M 296.015625 746.523438 C 296.394531 745.28125 296.21875 742.976562 295.566406 742.992188 "/>
<path fill-rule="nonzero" fill="rgb(12.156863%, 47.058824%, 70.588235%)" fill-opacity="1" d="M 288.4375 743.167969 L 295.507812 740.675781 L 295.625 745.308594 L 288.4375 743.167969 "/>
<path fill="none" stroke-width="5.5" stroke-linecap="butt" stroke-linejoin="miter" stroke="rgb(70.196078%, 70.196078%, 70.196078%)" stroke-opacity="1" stroke-miterlimit="10" d="M 227.726562 710.523438 C 223.894531 694.863281 215.320312 682.195312 200.585938 675.757812 "/>
<path fill-rule="nonzero" fill="rgb(70.196078%, 70.196078%, 70.196078%)" fill-opacity="1" d="M 194.050781 672.902344 L 201.515625 673.632812 L 199.660156 677.882812 L 194.050781 672.902344 "/>
<path fill="none" stroke-width="1.5" stroke-linecap="butt" stroke-linejoin="miter" stroke="rgb(12.156863%, 47.058824%, 70.588235%)" stroke-opacity="1" stroke-miterlimit="10" d="M 740.097656 55.441406 C 741.351562 54.871094 741.804688 52.894531 742.582031 52.613281 "/>
<path fill-rule="nonzero" fill="rgb(12.156863%, 47.058824%, 70.588235%)" fill-opacity="1" d="M 735.875 55.042969 L 741.792969 50.433594 L 743.371094 54.789062 L 735.875 55.042969 "/>
<path fill="none" stroke-width="1.5" stroke-linecap="butt" stroke-linejoin="miter" stroke="rgb(12.156863%, 47.058824%, 70.588235%)" stroke-opacity="1" stroke-miterlimit="10" d="M 268.484375 735.140625 C 267.453125 731.097656 265.3125 727.023438 261.378906 726.214844 "/>
<path fill-rule="nonzero" fill="rgb(12.156863%, 47.058824%, 70.588235%)" fill-opacity="1" d="M 254.390625 724.78125 L 261.84375 723.945312 L 260.914062 728.484375 L 254.390625 724.78125 "/>
<path fill="none" stroke-width="1.5" stroke-linecap="butt" stroke-linejoin="miter" stroke="rgb(12.156863%, 47.058824%, 70.588235%)" stroke-opacity="1" stroke-miterlimit="10" d="M 251.679688 724.222656 C 249.542969 718.601562 245.851562 713.574219 240.03125 712.59375 "/>
<path fill-rule="nonzero" fill="rgb(12.156863%, 47.058824%, 70.588235%)" fill-opacity="1" d="M 233 711.410156 L 240.417969 710.308594 L 239.648438 714.878906 L 233 711.410156 "/>
<path fill="none" stroke-width="1.5" stroke-linecap="butt" stroke-linejoin="miter" stroke="rgb(12.156863%, 47.058824%, 70.588235%)" stroke-opacity="1" stroke-miterlimit="10" d="M 671.539062 71.058594 C 670.300781 68.917969 668.148438 66.492188 666.050781 67.105469 "/>
<path fill-rule="nonzero" fill="rgb(12.156863%, 47.058824%, 70.588235%)" fill-opacity="1" d="M 659.203125 69.109375 L 665.398438 64.882812 L 666.699219 69.332031 L 659.203125 69.109375 "/>
<path fill="none" stroke-width="1.5" stroke-linecap="butt" stroke-linejoin="miter" stroke="rgb(12.156863%, 47.058824%, 70.588235%)" stroke-opacity="1" stroke-miterlimit="10" d="M 244.503906 194.046875 C 244.59375 195.488281 245.472656 197.75 246.34375 197.539062 "/>
<path fill-rule="nonzero" fill="rgb(12.156863%, 47.058824%, 70.588235%)" fill-opacity="1" d="M 253.273438 195.863281 L 246.886719 199.792969 L 245.796875 195.289062 L 253.273438 195.863281 "/>
<path fill="none" stroke-width="5.5" stroke-linecap="butt" stroke-linejoin="miter" stroke="rgb(70.196078%, 70.196078%, 70.196078%)" stroke-opacity="1" stroke-miterlimit="10" d="M 50 450.421875 C 57.996094 437.300781 60.828125 422.96875 55.214844 408.714844 "/>
<path fill-rule="nonzero" fill="rgb(70.196078%, 70.196078%, 70.196078%)" fill-opacity="1" d="M 52.601562 402.078125 L 57.371094 407.863281 L 53.058594 409.5625 L 52.601562 402.078125 "/>
<path fill="none" stroke-width="1.5" stroke-linecap="butt" stroke-linejoin="miter" stroke="rgb(12.156863%, 47.058824%, 70.588235%)" stroke-opacity="1" stroke-miterlimit="10" d="M 258.675781 194.558594 C 257.617188 192.644531 255.675781 190.386719 253.890625 190.96875 "/>
<path fill-rule="nonzero" fill="rgb(12.156863%, 47.058824%, 70.588235%)" fill-opacity="1" d="M 247.113281 193.191406 L 253.167969 188.769531 L 254.613281 193.171875 L 247.113281 193.191406 "/>
<path fill="none" stroke-width="5.5" stroke-linecap="butt" stroke-linejoin="miter" stroke="rgb(70.196078%, 70.196078%, 70.196078%)" stroke-opacity="1" stroke-miterlimit="10" d="M 258.675781 194.558594 C 291.398438 195.644531 319.90625 185.089844 341.527344 160.53125 "/>
<path fill-rule="nonzero" fill="rgb(70.196078%, 70.196078%, 70.196078%)" fill-opacity="1" d="M 346.242188 155.179688 L 343.269531 162.0625 L 339.789062 159 L 346.242188 155.179688 "/>
<path fill="none" stroke-width="5.5" stroke-linecap="butt" stroke-linejoin="miter" stroke="rgb(70.196078%, 70.196078%, 70.196078%)" stroke-opacity="1" stroke-miterlimit="10" d="M 184.816406 244.265625 C 213.136719 241.195312 236.535156 228.691406 252.023438 204.8125 "/>
<path fill-rule="nonzero" fill="rgb(70.196078%, 70.196078%, 70.196078%)" fill-opacity="1" d="M 255.90625 198.828125 L 253.96875 206.074219 L 250.082031 203.550781 L 255.90625 198.828125 "/>
<path fill="none" stroke-width="5.5" stroke-linecap="butt" stroke-linejoin="miter" stroke="rgb(70.196078%, 70.196078%, 70.196078%)" stroke-opacity="1" stroke-miterlimit="10" d="M 130.664062 293.460938 C 152.855469 288 170.332031 275.648438 179.894531 254.929688 "/>
<path fill-rule="nonzero" fill="rgb(70.196078%, 70.196078%, 70.196078%)" fill-opacity="1" d="M 182.886719 248.453125 L 182 255.898438 L 177.792969 253.957031 L 182.886719 248.453125 "/>
<path fill="none" stroke-width="5.5" stroke-linecap="butt" stroke-linejoin="miter" stroke="rgb(70.196078%, 70.196078%, 70.196078%)" stroke-opacity="1" stroke-miterlimit="10" d="M 88.882812 346.6875 C 107.984375 338.609375 121.984375 325.058594 127.46875 305.09375 "/>
<path fill-rule="nonzero" fill="rgb(70.196078%, 70.196078%, 70.196078%)" fill-opacity="1" d="M 129.359375 298.214844 L 129.703125 305.707031 L 125.234375 304.476562 L 129.359375 298.214844 "/>
<path fill="none" stroke-width="5.5" stroke-linecap="butt" stroke-linejoin="miter" stroke="rgb(70.196078%, 70.196078%, 70.196078%)" stroke-opacity="1" stroke-miterlimit="10" d="M 50.800781 397.503906 C 68.378906 389.730469 81.234375 376.976562 85.929688 358.378906 "/>
<path fill-rule="nonzero" fill="rgb(70.196078%, 70.196078%, 70.196078%)" fill-opacity="1" d="M 87.675781 351.464844 L 88.175781 358.945312 L 83.683594 357.8125 L 87.675781 351.464844 "/>
<path fill="none" stroke-width="1.5" stroke-linecap="butt" stroke-linejoin="miter" stroke="rgb(12.156863%, 47.058824%, 70.588235%)" stroke-opacity="1" stroke-miterlimit="10" d="M 748.195312 50 C 745.859375 48.417969 742.609375 47.070312 740.597656 48.667969 "/>
<path fill-rule="nonzero" fill="rgb(12.156863%, 47.058824%, 70.588235%)" fill-opacity="1" d="M 735.011719 53.105469 L 739.15625 46.855469 L 742.039062 50.484375 L 735.011719 53.105469 "/>
<path fill="none" stroke-width="5.5" stroke-linecap="butt" stroke-linejoin="miter" stroke="rgb(70.196078%, 70.196078%, 70.196078%)" stroke-opacity="1" stroke-miterlimit="10" d="M 83.96875 546.625 C 84.195312 531.480469 79.441406 517.875 67.535156 508.585938 "/>
<path fill-rule="nonzero" fill="rgb(70.196078%, 70.196078%, 70.196078%)" fill-opacity="1" d="M 61.910156 504.203125 L 68.960938 506.761719 L 66.109375 510.414062 L 61.910156 504.203125 "/>
<path fill="none" stroke-width="5.5" stroke-linecap="butt" stroke-linejoin="miter" stroke="rgb(70.196078%, 70.196078%, 70.196078%)" stroke-opacity="1" stroke-miterlimit="10" d="M 58.03125 501.179688 C 63.511719 487.425781 63.925781 473.324219 56.257812 460.714844 "/>
<path fill-rule="nonzero" fill="rgb(70.196078%, 70.196078%, 70.196078%)" fill-opacity="1" d="M 52.554688 454.621094 L 58.238281 459.511719 L 54.277344 461.917969 L 52.554688 454.621094 "/>
<path fill="none" stroke-width="1.5" stroke-linecap="butt" stroke-linejoin="miter" stroke="rgb(12.156863%, 47.058824%, 70.588235%)" stroke-opacity="1" stroke-miterlimit="10" d="M 390.441406 138.273438 C 400.472656 141.308594 410.679688 141.007812 418.878906 134.585938 "/>
<path fill-rule="nonzero" fill="rgb(12.156863%, 47.058824%, 70.588235%)" fill-opacity="1" d="M 424.496094 130.1875 L 420.308594 136.410156 L 417.449219 132.761719 L 424.496094 130.1875 "/>
<path fill="none" stroke-width="1.5" stroke-linecap="butt" stroke-linejoin="miter" stroke="rgb(12.156863%, 47.058824%, 70.588235%)" stroke-opacity="1" stroke-miterlimit="10" d="M 733.296875 63.210938 C 733.730469 65.578125 735.878906 66.8125 737.03125 68.628906 "/>
<path fill-rule="nonzero" fill="rgb(12.156863%, 47.058824%, 70.588235%)" fill-opacity="1" d="M 733.214844 62.605469 L 738.992188 67.390625 L 735.074219 69.871094 L 733.214844 62.605469 "/>
<path fill="none" stroke-width="1.5" stroke-linecap="butt" stroke-linejoin="miter" stroke="rgb(12.156863%, 47.058824%, 70.588235%)" stroke-opacity="1" stroke-miterlimit="10" d="M 345.289062 147.261719 C 344.195312 145.132812 341.785156 144.585938 340.164062 143.183594 "/>
<path fill-rule="nonzero" fill="rgb(12.156863%, 47.058824%, 70.588235%)" fill-opacity="1" d="M 345.558594 147.851562 L 338.648438 144.9375 L 341.679688 141.433594 L 345.558594 147.851562 "/>
<path fill="none" stroke-width="1.5" stroke-linecap="butt" stroke-linejoin="miter" stroke="rgb(12.156863%, 47.058824%, 70.588235%)" stroke-opacity="1" stroke-miterlimit="10" d="M 729.816406 57.238281 C 729.921875 58.457031 731 60.410156 731.449219 60.164062 "/>
<path fill-rule="nonzero" fill="rgb(12.156863%, 47.058824%, 70.588235%)" fill-opacity="1" d="M 737.710938 56.746094 L 732.558594 62.195312 L 730.339844 58.128906 L 737.710938 56.746094 "/>
<path fill="none" stroke-width="1.5" stroke-linecap="butt" stroke-linejoin="miter" stroke="rgb(12.156863%, 47.058824%, 70.588235%)" stroke-opacity="1" stroke-miterlimit="10" d="M 729.816406 57.238281 C 728.761719 56.351562 726.78125 56.789062 726.1875 56.207031 "/>
<path fill-rule="nonzero" fill="rgb(12.156863%, 47.058824%, 70.588235%)" fill-opacity="1" d="M 731.269531 61.210938 L 724.5625 57.855469 L 727.816406 54.554688 L 731.269531 61.210938 "/>
<path fill="none" stroke-width="5.5" stroke-linecap="butt" stroke-linejoin="miter" stroke="rgb(70.196078%, 70.196078%, 70.196078%)" stroke-opacity="1" stroke-miterlimit="10" d="M 729.816406 57.238281 C 731.617188 59.800781 734.375 62.375 737.1875 61.613281 "/>
<path fill-rule="nonzero" fill="rgb(70.196078%, 70.196078%, 70.196078%)" fill-opacity="1" d="M 744.070312 59.75 L 737.792969 63.851562 L 736.582031 59.378906 L 744.070312 59.75 "/>
<path fill="none" stroke-width="1.5" stroke-linecap="butt" stroke-linejoin="miter" stroke="rgb(12.156863%, 47.058824%, 70.588235%)" stroke-opacity="1" stroke-miterlimit="10" d="M 729.816406 57.238281 C 730.734375 58.207031 732.808594 59.25 733.191406 58.625 "/>
<path fill-rule="nonzero" fill="rgb(12.156863%, 47.058824%, 70.588235%)" fill-opacity="1" d="M 736.921875 52.542969 L 735.167969 59.835938 L 731.214844 57.410156 L 736.921875 52.542969 "/>
<path fill="none" stroke-width="1.5" stroke-linecap="butt" stroke-linejoin="miter" stroke="rgb(12.156863%, 47.058824%, 70.588235%)" stroke-opacity="1" stroke-miterlimit="10" d="M 651.875 71.253906 C 654.84375 73.992188 658.753906 76.203125 662.351562 74.753906 "/>
<path fill-rule="nonzero" fill="rgb(12.156863%, 47.058824%, 70.588235%)" fill-opacity="1" d="M 668.96875 72.089844 L 663.21875 76.90625 L 661.488281 72.605469 L 668.96875 72.089844 "/>
<path fill="none" stroke-width="5.5" stroke-linecap="butt" stroke-linejoin="miter" stroke="rgb(70.196078%, 70.196078%, 70.196078%)" stroke-opacity="1" stroke-miterlimit="10" d="M 651.875 71.253906 C 675.046875 79.011719 697.878906 77.8125 718.398438 64.59375 "/>
<path fill-rule="nonzero" fill="rgb(70.196078%, 70.196078%, 70.196078%)" fill-opacity="1" d="M 724.394531 60.730469 L 719.652344 66.542969 L 717.140625 62.644531 L 724.394531 60.730469 "/>
<path fill="none" stroke-width="1.5" stroke-linecap="butt" stroke-linejoin="miter" stroke="rgb(12.156863%, 47.058824%, 70.588235%)" stroke-opacity="1" stroke-miterlimit="10" d="M 651.875 71.253906 C 653.132812 71.539062 654.714844 70.296875 655.332031 70.558594 "/>
<path fill-rule="nonzero" fill="rgb(12.156863%, 47.058824%, 70.588235%)" fill-opacity="1" d="M 648.769531 67.757812 L 656.242188 68.425781 L 654.421875 72.691406 L 648.769531 67.757812 "/>
<path fill="none" stroke-width="1.5" stroke-linecap="butt" stroke-linejoin="miter" stroke="rgb(12.156863%, 47.058824%, 70.588235%)" stroke-opacity="1" stroke-miterlimit="10" d="M 651.875 71.253906 C 652.429688 72.550781 653.996094 74.347656 654.710938 73.867188 "/>
<path fill-rule="nonzero" fill="rgb(12.156863%, 47.058824%, 70.588235%)" fill-opacity="1" d="M 660.640625 69.898438 L 656 75.792969 L 653.421875 71.941406 L 660.640625 69.898438 "/>
<path fill="none" stroke-width="1.5" stroke-linecap="butt" stroke-linejoin="miter" stroke="rgb(12.156863%, 47.058824%, 70.588235%)" stroke-opacity="1" stroke-miterlimit="10" d="M 651.875 71.253906 C 653.511719 69.96875 653.5 67.671875 654.511719 66.207031 "/>
<path fill-rule="nonzero" fill="rgb(12.156863%, 47.058824%, 70.588235%)" fill-opacity="1" d="M 650.457031 72.078125 L 652.601562 64.890625 L 656.417969 67.523438 L 650.457031 72.078125 "/>
<path fill="none" stroke-width="1.5" stroke-linecap="butt" stroke-linejoin="miter" stroke="rgb(12.156863%, 47.058824%, 70.588235%)" stroke-opacity="1" stroke-miterlimit="10" d="M 646.144531 66.636719 C 644.960938 64.316406 642.441406 63.660156 640.59375 62.175781 "/>
<path fill-rule="nonzero" fill="rgb(12.156863%, 47.058824%, 70.588235%)" fill-opacity="1" d="M 646.148438 66.644531 L 639.140625 63.980469 L 642.046875 60.367188 L 646.148438 66.644531 "/>
<path fill="none" stroke-width="1.5" stroke-linecap="butt" stroke-linejoin="miter" stroke="rgb(12.156863%, 47.058824%, 70.588235%)" stroke-opacity="1" stroke-miterlimit="10" d="M 662.910156 68.382812 C 664.128906 67.734375 664.460938 65.738281 665.222656 65.402344 "/>
<path fill-rule="nonzero" fill="rgb(12.156863%, 47.058824%, 70.588235%)" fill-opacity="1" d="M 658.691406 68.265625 L 664.292969 63.277344 L 666.15625 67.523438 L 658.691406 68.265625 "/>
<path fill="none" stroke-width="1.5" stroke-linecap="butt" stroke-linejoin="miter" stroke="rgb(12.156863%, 47.058824%, 70.588235%)" stroke-opacity="1" stroke-miterlimit="10" d="M 738.347656 50.21875 C 738.074219 51.335938 738.636719 53.414062 738.917969 53.3125 "/>
<path fill-rule="nonzero" fill="rgb(12.156863%, 47.058824%, 70.588235%)" fill-opacity="1" d="M 745.636719 50.914062 L 739.699219 55.496094 L 738.136719 51.128906 L 745.636719 50.914062 "/>
<path fill="none" stroke-width="4.5" stroke-linecap="butt" stroke-linejoin="miter" stroke="rgb(70.196078%, 70.196078%, 70.196078%)" stroke-opacity="1" stroke-miterlimit="10" d="M 561.980469 93.34375 C 590.042969 100.59375 616.828125 97.109375 640.128906 79.921875 "/>
<path fill-rule="nonzero" fill="rgb(70.196078%, 70.196078%, 70.196078%)" fill-opacity="1" d="M 645.867188 75.6875 L 641.503906 81.785156 L 638.753906 78.054688 L 645.867188 75.6875 "/>
<path fill="none" stroke-width="1.5" stroke-linecap="butt" stroke-linejoin="miter" stroke="rgb(12.156863%, 47.058824%, 70.588235%)" stroke-opacity="1" stroke-miterlimit="10" d="M 561.980469 93.34375 C 563.320312 93.769531 564.980469 92.597656 565.800781 92.90625 "/>
<path fill-rule="nonzero" fill="rgb(12.156863%, 47.058824%, 70.588235%)" fill-opacity="1" d="M 559.125 90.386719 L 566.617188 90.738281 L 564.980469 95.074219 L 559.125 90.386719 "/>
<path fill="none" stroke-width="1.5" stroke-linecap="butt" stroke-linejoin="miter" stroke="rgb(12.156863%, 47.058824%, 70.588235%)" stroke-opacity="1" stroke-miterlimit="10" d="M 561.980469 93.34375 C 574.835938 96.921875 587.5625 95.980469 598.074219 87.839844 "/>
<path fill-rule="nonzero" fill="rgb(12.156863%, 47.058824%, 70.588235%)" fill-opacity="1" d="M 603.710938 83.472656 L 599.492188 89.671875 L 596.65625 86.007812 L 603.710938 83.472656 "/>
<path fill="none" stroke-width="1.5" stroke-linecap="butt" stroke-linejoin="miter" stroke="rgb(12.156863%, 47.058824%, 70.588235%)" stroke-opacity="1" stroke-miterlimit="10" d="M 556.460938 89.382812 C 555.050781 87.8125 552.746094 87.964844 551.171875 87.050781 "/>
<path fill-rule="nonzero" fill="rgb(12.156863%, 47.058824%, 70.588235%)" fill-opacity="1" d="M 557.335938 90.640625 L 550.007812 89.050781 L 552.339844 85.046875 L 557.335938 90.640625 "/>
<path fill="none" stroke-width="1.5" stroke-linecap="butt" stroke-linejoin="miter" stroke="rgb(12.156863%, 47.058824%, 70.588235%)" stroke-opacity="1" stroke-miterlimit="10" d="M 605.78125 81.871094 C 617.507812 86.144531 629.539062 86.316406 639.839844 79.371094 "/>
<path fill-rule="nonzero" fill="rgb(12.156863%, 47.058824%, 70.588235%)" fill-opacity="1" d="M 645.753906 75.382812 L 641.136719 81.292969 L 638.546875 77.449219 L 645.753906 75.382812 "/>
<path fill="none" stroke-width="5.5" stroke-linecap="butt" stroke-linejoin="miter" stroke="rgb(70.196078%, 70.196078%, 70.196078%)" stroke-opacity="1" stroke-miterlimit="10" d="M 428.738281 126.863281 C 473.828125 136.710938 515.738281 128.972656 552.289062 100.8125 "/>
<path fill-rule="nonzero" fill="rgb(70.196078%, 70.196078%, 70.196078%)" fill-opacity="1" d="M 557.9375 96.460938 L 553.703125 102.648438 L 550.875 98.976562 L 557.9375 96.460938 "/>
<path fill="none" stroke-width="1.5" stroke-linecap="butt" stroke-linejoin="miter" stroke="rgb(12.156863%, 47.058824%, 70.588235%)" stroke-opacity="1" stroke-miterlimit="10" d="M 349.609375 151.355469 C 361.765625 154.136719 373.65625 152.75 383.0625 144.640625 "/>
<path fill-rule="nonzero" fill="rgb(12.156863%, 47.058824%, 70.588235%)" fill-opacity="1" d="M 388.460938 139.980469 L 384.574219 146.394531 L 381.546875 142.882812 L 388.460938 139.980469 "/>
<path fill="none" stroke-width="1.5" stroke-linecap="butt" stroke-linejoin="miter" stroke="rgb(12.156863%, 47.058824%, 70.588235%)" stroke-opacity="1" stroke-miterlimit="10" d="M 349.609375 151.355469 C 350.917969 152.292969 352.902344 151.632812 353.929688 152.222656 "/>
<path fill-rule="nonzero" fill="rgb(12.156863%, 47.058824%, 70.588235%)" fill-opacity="1" d="M 347.742188 148.671875 L 355.082031 150.214844 L 352.773438 154.234375 L 347.742188 148.671875 "/>
<path fill="none" stroke-width="4.5" stroke-linecap="butt" stroke-linejoin="miter" stroke="rgb(70.196078%, 70.196078%, 70.196078%)" stroke-opacity="1" stroke-miterlimit="10" d="M 349.609375 151.355469 C 375.363281 156.289062 399.398438 151.660156 419.40625 134.75 "/>
<path fill-rule="nonzero" fill="rgb(70.196078%, 70.196078%, 70.196078%)" fill-opacity="1" d="M 424.855469 130.144531 L 420.902344 136.519531 L 417.910156 132.980469 L 424.855469 130.144531 "/>
<path fill="none" stroke-width="5.5" stroke-linecap="butt" stroke-linejoin="miter" stroke="rgb(70.196078%, 70.196078%, 70.196078%)" stroke-opacity="1" stroke-miterlimit="10" d="M 114.628906 589.0625 C 113.234375 573.972656 107.046875 560.941406 94.207031 552.976562 "/>
<path fill-rule="nonzero" fill="rgb(70.196078%, 70.196078%, 70.196078%)" fill-opacity="1" d="M 88.144531 549.214844 L 95.429688 551.007812 L 92.984375 554.945312 L 88.144531 549.214844 "/>
<path fill="none" stroke-width="1.5" stroke-linecap="butt" stroke-linejoin="miter" stroke="rgb(12.156863%, 47.058824%, 70.588235%)" stroke-opacity="1" stroke-miterlimit="10" d="M 648.871094 74.367188 C 644.933594 74.195312 642.152344 76.554688 638.847656 78.355469 "/>
<path fill-rule="nonzero" fill="rgb(12.156863%, 47.058824%, 70.588235%)" fill-opacity="1" d="M 645.109375 74.941406 L 639.957031 80.390625 L 637.738281 76.320312 L 645.109375 74.941406 "/>
<path fill="none" stroke-width="5.5" stroke-linecap="butt" stroke-linejoin="miter" stroke="rgb(70.196078%, 70.196078%, 70.196078%)" stroke-opacity="1" stroke-miterlimit="10" d="M 148.164062 630.292969 C 145.835938 615.023438 138.75 602.164062 125.214844 594.8125 "/>
<path fill-rule="nonzero" fill="rgb(70.196078%, 70.196078%, 70.196078%)" fill-opacity="1" d="M 118.949219 591.410156 L 126.320312 592.777344 L 124.109375 596.851562 L 118.949219 591.410156 "/>
<path fill="none" stroke-width="5.5" stroke-linecap="butt" stroke-linejoin="miter" stroke="rgb(70.196078%, 70.196078%, 70.196078%)" stroke-opacity="1" stroke-miterlimit="10" d="M 189.542969 670.933594 C 184.898438 654.359375 175.269531 641.222656 159.34375 634.800781 "/>
<path fill-rule="nonzero" fill="rgb(70.196078%, 70.196078%, 70.196078%)" fill-opacity="1" d="M 152.726562 632.132812 L 160.210938 632.652344 L 158.476562 636.949219 L 152.726562 632.132812 "/>
<path fill-rule="nonzero" fill="rgb(70.196078%, 70.196078%, 70.196078%)" fill-opacity="1" stroke-width="1" stroke-linecap="butt" stroke-linejoin="miter" stroke="rgb(70.196078%, 70.196078%, 70.196078%)" stroke-opacity="1" stroke-miterlimit="10" d="M 255.890625 730.019531 C 255.890625 736.484375 246.191406 736.484375 246.191406 730.019531 C 246.191406 723.550781 255.890625 723.550781 255.890625 730.019531 "/>
<path fill-rule="nonzero" fill="rgb(70.196078%, 70.196078%, 70.196078%)" fill-opacity="1" stroke-width="1" stroke-linecap="butt" stroke-linejoin="miter" stroke="rgb(70.196078%, 70.196078%, 70.196078%)" stroke-opacity="1" stroke-miterlimit="10" d="M 273.925781 740.59375 C 273.925781 747.0625 264.226562 747.0625 264.226562 740.59375 C 264.226562 734.128906 273.925781 734.128906 273.925781 740.59375 "/>
<path fill-rule="nonzero" fill="rgb(70.196078%, 70.196078%, 70.196078%)" fill-opacity="1" stroke-width="1" stroke-linecap="butt" stroke-linejoin="miter" stroke="rgb(70.196078%, 70.196078%, 70.196078%)" stroke-opacity="1" stroke-miterlimit="10" d="M 288.246094 743.308594 C 288.246094 750.441406 277.542969 750.441406 277.542969 743.308594 C 277.542969 736.175781 288.246094 736.175781 288.246094 743.308594 "/>
<path fill-rule="nonzero" fill="rgb(100%, 84.313725%, 0%)" fill-opacity="1" stroke-width="1" stroke-linecap="butt" stroke-linejoin="miter" stroke="rgb(100%, 84.313725%, 0%)" stroke-opacity="1" stroke-miterlimit="10" d="M 286.320312 744.648438 L 297.019531 744.648438 L 297.019531 755.347656 L 286.320312 755.347656 Z M 286.320312 744.648438 "/>
<path fill-rule="nonzero" fill="rgb(100%, 84.313725%, 0%)" fill-opacity="1" stroke-width="1" stroke-linecap="butt" stroke-linejoin="miter" stroke="rgb(100%, 84.313725%, 0%)" stroke-opacity="1" stroke-miterlimit="10" d="M 292.765625 743.273438 L 299.265625 743.273438 L 299.265625 749.773438 L 292.765625 749.773438 Z M 292.765625 743.273438 "/>
<path fill-rule="nonzero" fill="rgb(70.196078%, 70.196078%, 70.196078%)" fill-opacity="1" stroke-width="1" stroke-linecap="butt" stroke-linejoin="miter" stroke="rgb(70.196078%, 70.196078%, 70.196078%)" stroke-opacity="1" stroke-miterlimit="10" d="M 233.078125 710.523438 C 233.078125 717.65625 222.378906 717.65625 222.378906 710.523438 C 222.378906 703.390625 233.078125 703.390625 233.078125 710.523438 "/>
<path fill-rule="nonzero" fill="rgb(12.156863%, 47.058824%, 70.588235%)" fill-opacity="1" stroke-width="1" stroke-linecap="butt" stroke-linejoin="miter" stroke="rgb(12.156863%, 47.058824%, 70.588235%)" stroke-opacity="1" stroke-miterlimit="10" d="M 742.847656 55.441406 C 742.847656 59.105469 737.347656 59.105469 737.347656 55.441406 C 737.347656 51.773438 742.847656 51.773438 742.847656 55.441406 "/>
<path fill-rule="nonzero" fill="rgb(12.156863%, 47.058824%, 70.588235%)" fill-opacity="1" stroke-width="1" stroke-linecap="butt" stroke-linejoin="miter" stroke="rgb(12.156863%, 47.058824%, 70.588235%)" stroke-opacity="1" stroke-miterlimit="10" d="M 271.234375 735.140625 C 271.234375 738.808594 265.734375 738.808594 265.734375 735.140625 C 265.734375 731.472656 271.234375 731.472656 271.234375 735.140625 "/>
<path fill-rule="nonzero" fill="rgb(12.156863%, 47.058824%, 70.588235%)" fill-opacity="1" stroke-width="1" stroke-linecap="butt" stroke-linejoin="miter" stroke="rgb(12.156863%, 47.058824%, 70.588235%)" stroke-opacity="1" stroke-miterlimit="10" d="M 254.429688 724.222656 C 254.429688 727.890625 248.929688 727.890625 248.929688 724.222656 C 248.929688 720.558594 254.429688 720.558594 254.429688 724.222656 "/>
<path fill-rule="nonzero" fill="rgb(12.156863%, 47.058824%, 70.588235%)" fill-opacity="1" stroke-width="1" stroke-linecap="butt" stroke-linejoin="miter" stroke="rgb(12.156863%, 47.058824%, 70.588235%)" stroke-opacity="1" stroke-miterlimit="10" d="M 674.289062 71.058594 C 674.289062 74.722656 668.789062 74.722656 668.789062 71.058594 C 668.789062 67.390625 674.289062 67.390625 674.289062 71.058594 "/>
<path fill-rule="nonzero" fill="rgb(12.156863%, 47.058824%, 70.588235%)" fill-opacity="1" stroke-width="1" stroke-linecap="butt" stroke-linejoin="miter" stroke="rgb(12.156863%, 47.058824%, 70.588235%)" stroke-opacity="1" stroke-miterlimit="10" d="M 247.253906 194.046875 C 247.253906 197.714844 241.753906 197.714844 241.753906 194.046875 C 241.753906 190.382812 247.253906 190.382812 247.253906 194.046875 "/>
<path fill-rule="nonzero" fill="rgb(70.196078%, 70.196078%, 70.196078%)" fill-opacity="1" stroke-width="1" stroke-linecap="butt" stroke-linejoin="miter" stroke="rgb(70.196078%, 70.196078%, 70.196078%)" stroke-opacity="1" stroke-miterlimit="10" d="M 54.851562 450.421875 C 54.851562 456.886719 45.148438 456.886719 45.148438 450.421875 C 45.148438 443.953125 54.851562 443.953125 54.851562 450.421875 "/>
<path fill-rule="nonzero" fill="rgb(70.196078%, 70.196078%, 70.196078%)" fill-opacity="1" stroke-width="1" stroke-linecap="butt" stroke-linejoin="miter" stroke="rgb(70.196078%, 70.196078%, 70.196078%)" stroke-opacity="1" stroke-miterlimit="10" d="M 264.027344 194.558594 C 264.027344 201.691406 253.324219 201.691406 253.324219 194.558594 C 253.324219 187.425781 264.027344 187.425781 264.027344 194.558594 "/>
<path fill-rule="nonzero" fill="rgb(70.196078%, 70.196078%, 70.196078%)" fill-opacity="1" stroke-width="1" stroke-linecap="butt" stroke-linejoin="miter" stroke="rgb(70.196078%, 70.196078%, 70.196078%)" stroke-opacity="1" stroke-miterlimit="10" d="M 189.667969 244.265625 C 189.667969 250.734375 179.96875 250.734375 179.96875 244.265625 C 179.96875 237.800781 189.667969 237.800781 189.667969 244.265625 "/>
<path fill-rule="nonzero" fill="rgb(70.196078%, 70.196078%, 70.196078%)" fill-opacity="1" stroke-width="1" stroke-linecap="butt" stroke-linejoin="miter" stroke="rgb(70.196078%, 70.196078%, 70.196078%)" stroke-opacity="1" stroke-miterlimit="10" d="M 135.515625 293.460938 C 135.515625 299.925781 125.8125 299.925781 125.8125 293.460938 C 125.8125 286.992188 135.515625 286.992188 135.515625 293.460938 "/>
<path fill-rule="nonzero" fill="rgb(70.196078%, 70.196078%, 70.196078%)" fill-opacity="1" stroke-width="1" stroke-linecap="butt" stroke-linejoin="miter" stroke="rgb(70.196078%, 70.196078%, 70.196078%)" stroke-opacity="1" stroke-miterlimit="10" d="M 93.730469 346.6875 C 93.730469 353.152344 84.03125 353.152344 84.03125 346.6875 C 84.03125 340.21875 93.730469 340.21875 93.730469 346.6875 "/>
<path fill-rule="nonzero" fill="rgb(70.196078%, 70.196078%, 70.196078%)" fill-opacity="1" stroke-width="1" stroke-linecap="butt" stroke-linejoin="miter" stroke="rgb(70.196078%, 70.196078%, 70.196078%)" stroke-opacity="1" stroke-miterlimit="10" d="M 55.652344 397.503906 C 55.652344 403.96875 45.953125 403.96875 45.953125 397.503906 C 45.953125 391.035156 55.652344 391.035156 55.652344 397.503906 "/>
<path fill-rule="nonzero" fill="rgb(12.156863%, 47.058824%, 70.588235%)" fill-opacity="1" stroke-width="1" stroke-linecap="butt" stroke-linejoin="miter" stroke="rgb(12.156863%, 47.058824%, 70.588235%)" stroke-opacity="1" stroke-miterlimit="10" d="M 750.945312 50 C 750.945312 53.667969 745.445312 53.667969 745.445312 50 C 745.445312 46.332031 750.945312 46.332031 750.945312 50 "/>
<path fill-rule="nonzero" fill="rgb(70.196078%, 70.196078%, 70.196078%)" fill-opacity="1" stroke-width="1" stroke-linecap="butt" stroke-linejoin="miter" stroke="rgb(70.196078%, 70.196078%, 70.196078%)" stroke-opacity="1" stroke-miterlimit="10" d="M 88.820312 546.625 C 88.820312 553.089844 79.117188 553.089844 79.117188 546.625 C 79.117188 540.15625 88.820312 540.15625 88.820312 546.625 "/>
<path fill-rule="nonzero" fill="rgb(70.196078%, 70.196078%, 70.196078%)" fill-opacity="1" stroke-width="1" stroke-linecap="butt" stroke-linejoin="miter" stroke="rgb(70.196078%, 70.196078%, 70.196078%)" stroke-opacity="1" stroke-miterlimit="10" d="M 62.882812 501.179688 C 62.882812 507.644531 53.183594 507.644531 53.183594 501.179688 C 53.183594 494.710938 62.882812 494.710938 62.882812 501.179688 "/>
<path fill-rule="nonzero" fill="rgb(12.156863%, 47.058824%, 70.588235%)" fill-opacity="1" stroke-width="1" stroke-linecap="butt" stroke-linejoin="miter" stroke="rgb(12.156863%, 47.058824%, 70.588235%)" stroke-opacity="1" stroke-miterlimit="10" d="M 393.191406 138.273438 C 393.191406 141.941406 387.691406 141.941406 387.691406 138.273438 C 387.691406 134.605469 393.191406 134.605469 393.191406 138.273438 "/>
<path fill-rule="nonzero" fill="rgb(12.156863%, 47.058824%, 70.588235%)" fill-opacity="1" stroke-width="1" stroke-linecap="butt" stroke-linejoin="miter" stroke="rgb(12.156863%, 47.058824%, 70.588235%)" stroke-opacity="1" stroke-miterlimit="10" d="M 736.046875 63.210938 C 736.046875 66.878906 730.546875 66.878906 730.546875 63.210938 C 730.546875 59.546875 736.046875 59.546875 736.046875 63.210938 "/>
<path fill-rule="nonzero" fill="rgb(12.156863%, 47.058824%, 70.588235%)" fill-opacity="1" stroke-width="1" stroke-linecap="butt" stroke-linejoin="miter" stroke="rgb(12.156863%, 47.058824%, 70.588235%)" stroke-opacity="1" stroke-miterlimit="10" d="M 348.039062 147.261719 C 348.039062 150.929688 342.539062 150.929688 342.539062 147.261719 C 342.539062 143.597656 348.039062 143.597656 348.039062 147.261719 "/>
<path fill-rule="nonzero" fill="rgb(14.901961%, 14.901961%, 14.901961%)" fill-opacity="1" stroke-width="1" stroke-linecap="butt" stroke-linejoin="miter" stroke="rgb(14.901961%, 14.901961%, 14.901961%)" stroke-opacity="1" stroke-miterlimit="10" d="M 744.148438 63.992188 L 750 52.292969 L 755.851562 63.992188 Z M 744.148438 63.992188 "/>
<path fill-rule="nonzero" fill="rgb(70.196078%, 70.196078%, 70.196078%)" fill-opacity="1" stroke-width="1" stroke-linecap="butt" stroke-linejoin="miter" stroke="rgb(70.196078%, 70.196078%, 70.196078%)" stroke-opacity="1" stroke-miterlimit="10" d="M 736.164062 57.238281 C 736.164062 60.746094 733.320312 63.585938 729.816406 63.585938 C 726.308594 63.585938 723.464844 60.746094 723.464844 57.238281 C 723.464844 53.730469 726.308594 50.886719 729.816406 50.886719 C 733.320312 50.886719 736.164062 53.730469 736.164062 57.238281 "/>
<path fill-rule="nonzero" fill="rgb(70.196078%, 70.196078%, 70.196078%)" fill-opacity="1" stroke-width="1" stroke-linecap="butt" stroke-linejoin="miter" stroke="rgb(70.196078%, 70.196078%, 70.196078%)" stroke-opacity="1" stroke-miterlimit="10" d="M 659.226562 71.253906 C 659.226562 75.3125 655.933594 78.605469 651.875 78.605469 C 647.816406 78.605469 644.523438 75.3125 644.523438 71.253906 C 644.523438 67.195312 647.816406 63.902344 651.875 63.902344 C 655.933594 63.902344 659.226562 67.195312 659.226562 71.253906 "/>
<path fill-rule="nonzero" fill="rgb(12.156863%, 47.058824%, 70.588235%)" fill-opacity="1" stroke-width="1" stroke-linecap="butt" stroke-linejoin="miter" stroke="rgb(12.156863%, 47.058824%, 70.588235%)" stroke-opacity="1" stroke-miterlimit="10" d="M 648.894531 66.636719 C 648.894531 70.300781 643.394531 70.300781 643.394531 66.636719 C 643.394531 62.96875 648.894531 62.96875 648.894531 66.636719 "/>
<path fill-rule="nonzero" fill="rgb(12.156863%, 47.058824%, 70.588235%)" fill-opacity="1" stroke-width="1" stroke-linecap="butt" stroke-linejoin="miter" stroke="rgb(12.156863%, 47.058824%, 70.588235%)" stroke-opacity="1" stroke-miterlimit="10" d="M 665.660156 68.382812 C 665.660156 72.046875 660.160156 72.046875 660.160156 68.382812 C 660.160156 64.714844 665.660156 64.714844 665.660156 68.382812 "/>
<path fill-rule="nonzero" fill="rgb(12.156863%, 47.058824%, 70.588235%)" fill-opacity="1" stroke-width="1" stroke-linecap="butt" stroke-linejoin="miter" stroke="rgb(12.156863%, 47.058824%, 70.588235%)" stroke-opacity="1" stroke-miterlimit="10" d="M 741.097656 50.21875 C 741.097656 53.886719 735.597656 53.886719 735.597656 50.21875 C 735.597656 46.550781 741.097656 46.550781 741.097656 50.21875 "/>
<path fill-rule="nonzero" fill="rgb(70.196078%, 70.196078%, 70.196078%)" fill-opacity="1" stroke-width="1" stroke-linecap="butt" stroke-linejoin="miter" stroke="rgb(70.196078%, 70.196078%, 70.196078%)" stroke-opacity="1" stroke-miterlimit="10" d="M 567.332031 93.34375 C 567.332031 100.476562 556.632812 100.476562 556.632812 93.34375 C 556.632812 86.210938 567.332031 86.210938 567.332031 93.34375 "/>
<path fill-rule="nonzero" fill="rgb(12.156863%, 47.058824%, 70.588235%)" fill-opacity="1" stroke-width="1" stroke-linecap="butt" stroke-linejoin="miter" stroke="rgb(12.156863%, 47.058824%, 70.588235%)" stroke-opacity="1" stroke-miterlimit="10" d="M 559.210938 89.382812 C 559.210938 93.046875 553.710938 93.046875 553.710938 89.382812 C 553.710938 85.714844 559.210938 85.714844 559.210938 89.382812 "/>
<path fill-rule="nonzero" fill="rgb(12.156863%, 47.058824%, 70.588235%)" fill-opacity="1" stroke-width="1" stroke-linecap="butt" stroke-linejoin="miter" stroke="rgb(12.156863%, 47.058824%, 70.588235%)" stroke-opacity="1" stroke-miterlimit="10" d="M 608.53125 81.871094 C 608.53125 85.539062 603.03125 85.539062 603.03125 81.871094 C 603.03125 78.203125 608.53125 78.203125 608.53125 81.871094 "/>
<path fill-rule="nonzero" fill="rgb(70.196078%, 70.196078%, 70.196078%)" fill-opacity="1" stroke-width="1" stroke-linecap="butt" stroke-linejoin="miter" stroke="rgb(70.196078%, 70.196078%, 70.196078%)" stroke-opacity="1" stroke-miterlimit="10" d="M 434.085938 126.863281 C 434.085938 133.996094 423.386719 133.996094 423.386719 126.863281 C 423.386719 119.730469 434.085938 119.730469 434.085938 126.863281 "/>
<path fill-rule="nonzero" fill="rgb(70.196078%, 70.196078%, 70.196078%)" fill-opacity="1" stroke-width="1" stroke-linecap="butt" stroke-linejoin="miter" stroke="rgb(70.196078%, 70.196078%, 70.196078%)" stroke-opacity="1" stroke-miterlimit="10" d="M 354.957031 151.355469 C 354.957031 158.488281 344.257812 158.488281 344.257812 151.355469 C 344.257812 144.222656 354.957031 144.222656 354.957031 151.355469 "/>
<path fill-rule="nonzero" fill="rgb(70.196078%, 70.196078%, 70.196078%)" fill-opacity="1" stroke-width="1" stroke-linecap="butt" stroke-linejoin="miter" stroke="rgb(70.196078%, 70.196078%, 70.196078%)" stroke-opacity="1" stroke-miterlimit="10" d="M 119.476562 589.0625 C 119.476562 595.53125 109.777344 595.53125 109.777344 589.0625 C 109.777344 582.597656 119.476562 582.597656 119.476562 589.0625 "/>
<path fill-rule="nonzero" fill="rgb(12.156863%, 47.058824%, 70.588235%)" fill-opacity="1" stroke-width="1" stroke-linecap="butt" stroke-linejoin="miter" stroke="rgb(12.156863%, 47.058824%, 70.588235%)" stroke-opacity="1" stroke-miterlimit="10" d="M 651.621094 74.367188 C 651.621094 78.035156 646.121094 78.035156 646.121094 74.367188 C 646.121094 70.703125 651.621094 70.703125 651.621094 74.367188 "/>
<path fill-rule="nonzero" fill="rgb(70.196078%, 70.196078%, 70.196078%)" fill-opacity="1" stroke-width="1" stroke-linecap="butt" stroke-linejoin="miter" stroke="rgb(70.196078%, 70.196078%, 70.196078%)" stroke-opacity="1" stroke-miterlimit="10" d="M 153.011719 630.292969 C 153.011719 636.761719 143.3125 636.761719 143.3125 630.292969 C 143.3125 623.828125 153.011719 623.828125 153.011719 630.292969 "/>
<path fill-rule="nonzero" fill="rgb(70.196078%, 70.196078%, 70.196078%)" fill-opacity="1" stroke-width="1" stroke-linecap="butt" stroke-linejoin="miter" stroke="rgb(70.196078%, 70.196078%, 70.196078%)" stroke-opacity="1" stroke-miterlimit="10" d="M 194.394531 670.933594 C 194.394531 677.398438 184.695312 677.398438 184.695312 670.933594 C 184.695312 664.464844 194.394531 664.464844 194.394531 670.933594 "/>
</svg>
