<?xml version="1.0" encoding="UTF-8"?>
<svg xmlns="http://www.w3.org/2000/svg" xmlns:xlink="http://www.w3.org/1999/xlink" width="800" height="800" viewBox="0 0 800 800">
<rect x="-80" y="-80" width="960" height="960" fill="rgb(100%, 100%, 100%)" fill-opacity="1"/>
<path fill="none" stroke-width="2.5" stroke-linecap="butt" stroke-linejoin="miter" stroke="rgb(70.196078%, 70.196078%, 70.196078%)" stroke-opacity="1" stroke-miterlimit="10" d="M 468.234375 576.3125 C 484.886719 591.761719 504.691406 599.539062 527.121094 596.160156 "/>
<path fill-rule="nonzero" fill="rgb(70.196078%, 70.196078%, 70.196078%)" fill-opacity="1" d="M 534.175781 595.09375 L 527.46875 598.449219 L 526.777344 593.867188 L 534.175781 595.09375 "/>
<path fill="none" stroke-width="2.5" stroke-linecap="butt" stroke-linejoin="miter" stroke="rgb(70.196078%, 70.196078%, 70.196078%)" stroke-opacity="1" stroke-miterlimit="10" d="M 427.632812 271.433594 C 442.917969 259.804688 452.460938 244.433594 452.71875 225.261719 "/>
<path fill-rule="nonzero" fill="rgb(70.196078%, 70.196078%, 70.196078%)" fill-opacity="1" d="M 452.8125 218.128906 L 455.035156 225.292969 L 450.402344 225.230469 L 452.8125 218.128906 "/>
<path fill="none" stroke-width="2.5" stroke-linecap="butt" stroke-linejoin="miter" stroke="rgb(70.196078%, 70.196078%, 70.196078%)" stroke-opacity="1" stroke-miterlimit="10" d="M 479.101562 159.285156 C 489.660156 151.59375 496.734375 141.257812 496.800781 128.25 "/>
<path fill-rule="nonzero" fill="rgb(70.196078%, 70.196078%, 70.196078%)" fill-opacity="1" d="M 496.839844 121.117188 L 499.121094 128.261719 L 494.484375 128.238281 L 496.839844 121.117188 "/>
<path fill="none" stroke-width="2.5" stroke-linecap="butt" stroke-linejoin="miter" stroke="rgb(70.196078%, 70.196078%, 70.196078%)" stroke-opacity="1" stroke-miterlimit="10" d="M 496.867188 116.207031 C 507.378906 109.246094 514.6875 99.574219 515.273438 87.035156 "/>
<path fill-rule="nonzero" fill="rgb(70.196078%, 70.196078%, 70.196078%)" fill-opacity="1" d="M 515.605469 79.910156 L 517.585938 87.140625 L 512.957031 86.925781 L 515.605469 79.910156 "/>
<path fill="none" stroke-width="2.5" stroke-linecap="butt" stroke-linejoin="miter" stroke="rgb(70.196078%, 70.196078%, 70.196078%)" stroke-opacity="1" stroke-miterlimit="10" d="M 604.953125 612.605469 C 617.925781 626.035156 633.863281 633.523438 652.390625 631.546875 "/>
<path fill-rule="nonzero" fill="rgb(70.196078%, 70.196078%, 70.196078%)" fill-opacity="1" d="M 659.484375 630.789062 L 652.636719 633.851562 L 652.144531 629.242188 L 659.484375 630.789062 "/>
<path fill="none" stroke-width="1.5" stroke-linecap="butt" stroke-linejoin="miter" stroke="rgb(99.215686%, 74.901961%, 43.529412%)" stroke-opacity="1" stroke-miterlimit="10" d="M 396.144531 330.796875 C 394.816406 330.367188 393.148438 331.53125 392.347656 331.214844 "/>
<path fill-rule="nonzero" fill="rgb(99.215686%, 74.901961%, 43.529412%)" fill-opacity="1" d="M 398.988281 333.816406 L 391.503906 333.375 L 393.191406 329.058594 L 398.988281 333.816406 "/>
<path fill="none" stroke-width="1.5" stroke-linecap="butt" stroke-linejoin="miter" stroke="rgb(12.156863%, 47.058824%, 70.588235%)" stroke-opacity="1" stroke-miterlimit="10" d="M 123.929688 712.691406 C 105.378906 712.382812 88.925781 718.339844 77.296875 732.753906 "/>
<path fill-rule="nonzero" fill="rgb(12.156863%, 47.058824%, 70.588235%)" fill-opacity="1" d="M 72.820312 738.304688 L 75.492188 731.300781 L 79.101562 734.210938 L 72.820312 738.304688 "/>
<path fill="none" stroke-width="1.5" stroke-linecap="butt" stroke-linejoin="miter" stroke="rgb(99.215686%, 74.901961%, 43.529412%)" stroke-opacity="1" stroke-miterlimit="10" d="M 524.277344 58.890625 C 525.402344 59.265625 527.175781 58.296875 527.507812 58.566406 "/>
<path fill-rule="nonzero" fill="rgb(99.215686%, 74.901961%, 43.529412%)" fill-opacity="1" d="M 521.964844 54.078125 L 528.96875 56.765625 L 526.050781 60.367188 L 521.964844 54.078125 "/>
<path fill="none" stroke-width="2.5" stroke-linecap="butt" stroke-linejoin="miter" stroke="rgb(70.196078%, 70.196078%, 70.196078%)" stroke-opacity="1" stroke-miterlimit="10" d="M 389.765625 487.773438 C 387.875 488.765625 387.445312 491.046875 386.160156 492.371094 "/>
<path fill-rule="nonzero" fill="rgb(70.196078%, 70.196078%, 70.196078%)" fill-opacity="1" d="M 391.128906 487.253906 L 387.824219 493.984375 L 384.496094 490.753906 L 391.128906 487.253906 "/>
<path fill="none" stroke-width="2.5" stroke-linecap="butt" stroke-linejoin="miter" stroke="rgb(70.196078%, 70.196078%, 70.196078%)" stroke-opacity="1" stroke-miterlimit="10" d="M 738.335938 643.023438 C 737.503906 643.789062 737.308594 645.828125 737.113281 645.867188 "/>
<path fill-rule="nonzero" fill="rgb(70.196078%, 70.196078%, 70.196078%)" fill-opacity="1" d="M 744.113281 644.503906 L 737.554688 648.140625 L 736.671875 643.589844 L 744.113281 644.503906 "/>
<path fill="none" stroke-width="1.5" stroke-linecap="butt" stroke-linejoin="miter" stroke="rgb(12.156863%, 47.058824%, 70.588235%)" stroke-opacity="1" stroke-miterlimit="10" d="M 254.660156 639.191406 C 228.808594 640.628906 206.933594 650.835938 191.78125 671.796875 "/>
<path fill-rule="nonzero" fill="rgb(12.156863%, 47.058824%, 70.588235%)" fill-opacity="1" d="M 187.605469 677.578125 L 189.90625 670.441406 L 193.660156 673.15625 L 187.605469 677.578125 "/>
<path fill="none" stroke-width="1.5" stroke-linecap="butt" stroke-linejoin="miter" stroke="rgb(12.156863%, 47.058824%, 70.588235%)" stroke-opacity="1" stroke-miterlimit="10" d="M 70.105469 741.671875 C 69.257812 740.402344 67.371094 738.796875 66.5625 739.457031 "/>
<path fill-rule="nonzero" fill="rgb(12.156863%, 47.058824%, 70.588235%)" fill-opacity="1" d="M 61.027344 743.960938 L 65.097656 737.660156 L 68.023438 741.253906 L 61.027344 743.960938 "/>
<path fill="none" stroke-width="1.5" stroke-linecap="butt" stroke-linejoin="miter" stroke="rgb(12.156863%, 47.058824%, 70.588235%)" stroke-opacity="1" stroke-miterlimit="10" d="M 50 745.445312 C 48.878906 744.1875 46.773438 744.390625 45.792969 743.5625 "/>
<path fill-rule="nonzero" fill="rgb(12.156863%, 47.058824%, 70.588235%)" fill-opacity="1" d="M 51.238281 748.175781 L 44.296875 745.332031 L 47.292969 741.796875 L 51.238281 748.175781 "/>
<path fill="none" stroke-width="1.5" stroke-linecap="butt" stroke-linejoin="miter" stroke="rgb(99.215686%, 74.901961%, 43.529412%)" stroke-opacity="1" stroke-miterlimit="10" d="M 464.003906 182.785156 C 469.835938 180.875 475.109375 177.355469 476.410156 171.472656 "/>
<path fill-rule="nonzero" fill="rgb(99.215686%, 74.901961%, 43.529412%)" fill-opacity="1" d="M 477.949219 164.507812 L 478.675781 171.972656 L 474.148438 170.972656 L 477.949219 164.507812 "/>
<path fill="none" stroke-width="2.5" stroke-linecap="butt" stroke-linejoin="miter" stroke="rgb(70.196078%, 70.196078%, 70.196078%)" stroke-opacity="1" stroke-miterlimit="10" d="M 664.382812 630.269531 C 675.902344 642.40625 690.152344 649.363281 706.753906 647.617188 "/>
<path fill-rule="nonzero" fill="rgb(70.196078%, 70.196078%, 70.196078%)" fill-opacity="1" d="M 713.847656 646.871094 L 706.996094 649.921875 L 706.511719 645.3125 L 713.847656 646.871094 "/>
<path fill="none" stroke-width="1.5" stroke-linecap="butt" stroke-linejoin="miter" stroke="rgb(30.196078%, 68.627451%, 29.019608%)" stroke-opacity="1" stroke-miterlimit="10" d="M 523.925781 50.703125 C 526.074219 51.695312 528.292969 50.644531 530.398438 50.761719 "/>
<path fill-rule="nonzero" fill="rgb(30.196078%, 68.627451%, 29.019608%)" fill-opacity="1" d="M 523.277344 50.359375 L 530.527344 48.449219 L 530.265625 53.078125 L 523.277344 50.359375 "/>
<path fill="none" stroke-width="2.5" stroke-linecap="butt" stroke-linejoin="miter" stroke="rgb(70.196078%, 70.196078%, 70.196078%)" stroke-opacity="1" stroke-miterlimit="10" d="M 718.742188 646.355469 C 721.421875 648.53125 725.015625 650.34375 727.867188 648.777344 "/>
<path fill-rule="nonzero" fill="rgb(70.196078%, 70.196078%, 70.196078%)" fill-opacity="1" d="M 734.117188 645.34375 L 728.984375 650.808594 L 726.75 646.746094 L 734.117188 645.34375 "/>
<path fill="none" stroke-width="1.5" stroke-linecap="butt" stroke-linejoin="miter" stroke="rgb(12.156863%, 47.058824%, 70.588235%)" stroke-opacity="1" stroke-miterlimit="10" d="M 58.910156 745.683594 C 59.59375 744.808594 59.539062 742.757812 59.636719 742.730469 "/>
<path fill-rule="nonzero" fill="rgb(12.156863%, 47.058824%, 70.588235%)" fill-opacity="1" d="M 52.773438 744.664062 L 59.007812 740.496094 L 60.265625 744.960938 L 52.773438 744.664062 "/>
<path fill="none" stroke-width="1.5" stroke-linecap="butt" stroke-linejoin="miter" stroke="rgb(99.215686%, 74.901961%, 43.529412%)" stroke-opacity="1" stroke-miterlimit="10" d="M 515.835938 75.007812 C 519.21875 74.011719 522.773438 72.042969 523.152344 68.722656 "/>
<path fill-rule="nonzero" fill="rgb(99.215686%, 74.901961%, 43.529412%)" fill-opacity="1" d="M 523.964844 61.636719 L 525.453125 68.988281 L 520.851562 68.460938 L 523.964844 61.636719 "/>
<path fill="none" stroke-width="1.5" stroke-linecap="butt" stroke-linejoin="miter" stroke="rgb(30.196078%, 68.627451%, 29.019608%)" stroke-opacity="1" stroke-miterlimit="10" d="M 515.835938 75.007812 C 520.902344 71.511719 524.933594 66.636719 524.550781 60.597656 "/>
<path fill-rule="nonzero" fill="rgb(30.196078%, 68.627451%, 29.019608%)" fill-opacity="1" d="M 524.101562 53.480469 L 526.863281 60.449219 L 522.238281 60.742188 L 524.101562 53.480469 "/>
<path fill="none" stroke-width="1.5" stroke-linecap="butt" stroke-linejoin="miter" stroke="rgb(30.196078%, 68.627451%, 29.019608%)" stroke-opacity="1" stroke-miterlimit="10" d="M 466.164062 187.355469 C 472.519531 183.957031 477.703125 178.839844 478.210938 171.746094 "/>
<path fill-rule="nonzero" fill="rgb(30.196078%, 68.627451%, 29.019608%)" fill-opacity="1" d="M 478.71875 164.632812 L 480.523438 171.914062 L 475.898438 171.582031 L 478.71875 164.632812 "/>
<path fill="none" stroke-width="1.5" stroke-linecap="butt" stroke-linejoin="miter" stroke="rgb(12.156863%, 47.058824%, 70.588235%)" stroke-opacity="1" stroke-miterlimit="10" d="M 53.390625 750 C 56.355469 751.269531 60.117188 752.007812 62.210938 749.839844 "/>
<path fill-rule="nonzero" fill="rgb(12.156863%, 47.058824%, 70.588235%)" fill-opacity="1" d="M 67.167969 744.710938 L 63.878906 751.449219 L 60.546875 748.230469 L 67.167969 744.710938 "/>
<path fill="none" stroke-width="1.5" stroke-linecap="butt" stroke-linejoin="miter" stroke="rgb(12.156863%, 47.058824%, 70.588235%)" stroke-opacity="1" stroke-miterlimit="10" d="M 186.066406 679.707031 C 163.578125 679.75 144.007812 687.496094 130.011719 705.058594 "/>
<path fill-rule="nonzero" fill="rgb(12.156863%, 47.058824%, 70.588235%)" fill-opacity="1" d="M 125.566406 710.636719 L 128.199219 703.617188 L 131.824219 706.503906 L 125.566406 710.636719 "/>
<path fill="none" stroke-width="1.5" stroke-linecap="butt" stroke-linejoin="miter" stroke="rgb(12.156863%, 47.058824%, 70.588235%)" stroke-opacity="1" stroke-miterlimit="10" d="M 323.957031 598.367188 C 297.828125 599.804688 275.71875 610.113281 260.382812 631.289062 "/>
<path fill-rule="nonzero" fill="rgb(12.156863%, 47.058824%, 70.588235%)" fill-opacity="1" d="M 256.199219 637.0625 L 258.507812 629.925781 L 262.261719 632.648438 L 256.199219 637.0625 "/>
<path fill="none" stroke-width="1.5" stroke-linecap="butt" stroke-linejoin="miter" stroke="rgb(99.215686%, 74.901961%, 43.529412%)" stroke-opacity="1" stroke-miterlimit="10" d="M 452.878906 213.203125 C 459.800781 208.101562 464.78125 201.21875 464.421875 192.699219 "/>
<path fill-rule="nonzero" fill="rgb(99.215686%, 74.901961%, 43.529412%)" fill-opacity="1" d="M 464.121094 185.574219 L 466.738281 192.605469 L 462.105469 192.796875 L 464.121094 185.574219 "/>
<path fill="none" stroke-width="1.5" stroke-linecap="butt" stroke-linejoin="miter" stroke="rgb(30.196078%, 68.627451%, 29.019608%)" stroke-opacity="1" stroke-miterlimit="10" d="M 452.878906 213.203125 C 459.421875 209.746094 464.691406 204.519531 465.316406 197.238281 "/>
<path fill-rule="nonzero" fill="rgb(30.196078%, 68.627451%, 29.019608%)" fill-opacity="1" d="M 465.925781 190.128906 L 467.625 197.433594 L 463.007812 197.039062 L 465.925781 190.128906 "/>
<path fill="none" stroke-width="2.5" stroke-linecap="butt" stroke-linejoin="miter" stroke="rgb(70.196078%, 70.196078%, 70.196078%)" stroke-opacity="1" stroke-miterlimit="10" d="M 393.082031 553.847656 C 410.675781 571.292969 431.96875 580.390625 456.5625 577.625 "/>
<path fill-rule="nonzero" fill="rgb(70.196078%, 70.196078%, 70.196078%)" fill-opacity="1" d="M 463.652344 576.828125 L 456.820312 579.925781 L 456.304688 575.320312 L 463.652344 576.828125 "/>
<path fill="none" stroke-width="1.5" stroke-linecap="butt" stroke-linejoin="miter" stroke="rgb(12.156863%, 47.058824%, 70.588235%)" stroke-opacity="1" stroke-miterlimit="10" d="M 393.082031 553.847656 C 366.382812 556.421875 344.199219 567.925781 329.359375 590.242188 "/>
<path fill-rule="nonzero" fill="rgb(12.156863%, 47.058824%, 70.588235%)" fill-opacity="1" d="M 325.410156 596.179688 L 327.429688 588.957031 L 331.292969 591.523438 L 325.410156 596.179688 "/>
<path fill="none" stroke-width="1.5" stroke-linecap="butt" stroke-linejoin="miter" stroke="rgb(99.215686%, 74.901961%, 43.529412%)" stroke-opacity="1" stroke-miterlimit="10" d="M 417.304688 301.03125 C 423.421875 296.925781 428.140625 291.195312 427.953125 283.925781 "/>
<path fill-rule="nonzero" fill="rgb(99.215686%, 74.901961%, 43.529412%)" fill-opacity="1" d="M 427.769531 276.792969 L 430.269531 283.863281 L 425.636719 283.984375 L 427.769531 276.792969 "/>
<path fill="none" stroke-width="1.5" stroke-linecap="butt" stroke-linejoin="miter" stroke="rgb(99.215686%, 74.901961%, 43.529412%)" stroke-opacity="1" stroke-miterlimit="10" d="M 404.0625 335.800781 C 412.3125 329.554688 417.96875 321.234375 417.632812 310.957031 "/>
<path fill-rule="nonzero" fill="rgb(99.215686%, 74.901961%, 43.529412%)" fill-opacity="1" d="M 417.398438 303.828125 L 419.949219 310.878906 L 415.316406 311.03125 L 417.398438 303.828125 "/>
<path fill="none" stroke-width="1.5" stroke-linecap="butt" stroke-linejoin="miter" stroke="rgb(30.196078%, 68.627451%, 29.019608%)" stroke-opacity="1" stroke-miterlimit="10" d="M 404.0625 335.800781 C 409.914062 329.800781 413.640625 322.386719 411.925781 314.265625 "/>
<path fill-rule="nonzero" fill="rgb(30.196078%, 68.627451%, 29.019608%)" fill-opacity="1" d="M 410.449219 307.285156 L 414.191406 313.785156 L 409.65625 314.742188 L 410.449219 307.285156 "/>
<path fill="none" stroke-width="2.5" stroke-linecap="butt" stroke-linejoin="miter" stroke="rgb(70.196078%, 70.196078%, 70.196078%)" stroke-opacity="1" stroke-miterlimit="10" d="M 538.734375 594.410156 C 553.855469 609.132812 572.09375 616.890625 592.988281 614.167969 "/>
<path fill-rule="nonzero" fill="rgb(70.196078%, 70.196078%, 70.196078%)" fill-opacity="1" d="M 600.0625 613.242188 L 593.289062 616.464844 L 592.6875 611.867188 L 600.0625 613.242188 "/>
<path fill="none" stroke-width="3.5" stroke-linecap="butt" stroke-linejoin="miter" stroke="rgb(70.196078%, 70.196078%, 70.196078%)" stroke-opacity="1" stroke-miterlimit="10" d="M 394.871094 483.398438 C 383.914062 502.328125 380.792969 522.597656 388.785156 542.921875 "/>
<path fill-rule="nonzero" fill="rgb(70.196078%, 70.196078%, 70.196078%)" fill-opacity="1" d="M 391.394531 549.558594 L 386.628906 543.769531 L 390.941406 542.070312 L 391.394531 549.558594 "/>
<path fill="none" stroke-width="1.5" stroke-linecap="butt" stroke-linejoin="miter" stroke="rgb(30.196078%, 68.627451%, 29.019608%)" stroke-opacity="1" stroke-miterlimit="10" d="M 397.039062 408.667969 C 409.75 389.996094 414.472656 369.355469 407.789062 347.808594 "/>
<path fill-rule="nonzero" fill="rgb(30.196078%, 68.627451%, 29.019608%)" fill-opacity="1" d="M 405.675781 340.996094 L 410.003906 347.121094 L 405.574219 348.496094 L 405.675781 340.996094 "/>
<path fill="none" stroke-width="1.5" stroke-linecap="butt" stroke-linejoin="miter" stroke="rgb(12.156863%, 47.058824%, 70.588235%)" stroke-opacity="1" stroke-miterlimit="10" d="M 397.039062 408.667969 C 385.355469 428.664062 382.011719 450.09375 390.34375 471.671875 "/>
<path fill-rule="nonzero" fill="rgb(12.156863%, 47.058824%, 70.588235%)" fill-opacity="1" d="M 392.914062 478.324219 L 388.183594 472.503906 L 392.507812 470.835938 L 392.914062 478.324219 "/>
<path fill="none" stroke-width="1.5" stroke-linecap="butt" stroke-linejoin="miter" stroke="rgb(30.196078%, 68.627451%, 29.019608%)" stroke-opacity="1" stroke-miterlimit="10" d="M 409.871094 304.554688 C 418.394531 300.09375 424.980469 293.335938 426.128906 283.859375 "/>
<path fill-rule="nonzero" fill="rgb(30.196078%, 68.627451%, 29.019608%)" fill-opacity="1" d="M 426.984375 276.777344 L 428.429688 284.136719 L 423.828125 283.582031 L 426.984375 276.777344 "/>
<path fill-rule="nonzero" fill="rgb(70.196078%, 70.196078%, 70.196078%)" fill-opacity="1" stroke-width="1" stroke-linecap="butt" stroke-linejoin="miter" stroke="rgb(70.196078%, 70.196078%, 70.196078%)" stroke-opacity="1" stroke-miterlimit="10" d="M 473.085938 576.3125 C 473.085938 582.777344 463.382812 582.777344 463.382812 576.3125 C 463.382812 569.84375 473.085938 569.84375 473.085938 576.3125 "/>
<path fill-rule="nonzero" fill="rgb(70.196078%, 70.196078%, 70.196078%)" fill-opacity="1" stroke-width="1" stroke-linecap="butt" stroke-linejoin="miter" stroke="rgb(70.196078%, 70.196078%, 70.196078%)" stroke-opacity="1" stroke-miterlimit="10" d="M 432.980469 271.433594 C 432.980469 278.566406 422.28125 278.566406 422.28125 271.433594 C 422.28125 264.300781 432.980469 264.300781 432.980469 271.433594 "/>
<path fill-rule="nonzero" fill="rgb(70.196078%, 70.196078%, 70.196078%)" fill-opacity="1" stroke-width="1" stroke-linecap="butt" stroke-linejoin="miter" stroke="rgb(70.196078%, 70.196078%, 70.196078%)" stroke-opacity="1" stroke-miterlimit="10" d="M 484.453125 159.285156 C 484.453125 166.417969 473.753906 166.417969 473.753906 159.285156 C 473.753906 152.152344 484.453125 152.152344 484.453125 159.285156 "/>
<path fill-rule="nonzero" fill="rgb(70.196078%, 70.196078%, 70.196078%)" fill-opacity="1" stroke-width="1" stroke-linecap="butt" stroke-linejoin="miter" stroke="rgb(70.196078%, 70.196078%, 70.196078%)" stroke-opacity="1" stroke-miterlimit="10" d="M 501.71875 116.207031 C 501.71875 122.675781 492.019531 122.675781 492.019531 116.207031 C 492.019531 109.742188 501.71875 109.742188 501.71875 116.207031 "/>
<path fill-rule="nonzero" fill="rgb(14.901961%, 14.901961%, 14.901961%)" fill-opacity="1" stroke-width="1" stroke-linecap="butt" stroke-linejoin="miter" stroke="rgb(14.901961%, 14.901961%, 14.901961%)" stroke-opacity="1" stroke-miterlimit="10" d="M 510.578125 56.351562 L 516.929688 43.648438 L 523.28125 56.351562 Z M 510.578125 56.351562 "/>
<path fill-rule="nonzero" fill="rgb(70.196078%, 70.196078%, 70.196078%)" fill-opacity="1" stroke-width="1" stroke-linecap="butt" stroke-linejoin="miter" stroke="rgb(70.196078%, 70.196078%, 70.196078%)" stroke-opacity="1" stroke-miterlimit="10" d="M 609.800781 612.605469 C 609.800781 619.074219 600.101562 619.074219 600.101562 612.605469 C 600.101562 606.140625 609.800781 606.140625 609.800781 612.605469 "/>
<path fill-rule="nonzero" fill="rgb(100%, 84.313725%, 0%)" fill-opacity="1" stroke-width="1" stroke-linecap="butt" stroke-linejoin="miter" stroke="rgb(100%, 84.313725%, 0%)" stroke-opacity="1" stroke-miterlimit="10" d="M 392.894531 327.546875 L 399.394531 327.546875 L 399.394531 334.046875 L 392.894531 334.046875 Z M 392.894531 327.546875 "/>
<path fill-rule="nonzero" fill="rgb(12.156863%, 47.058824%, 70.588235%)" fill-opacity="1" stroke-width="1" stroke-linecap="butt" stroke-linejoin="miter" stroke="rgb(12.156863%, 47.058824%, 70.588235%)" stroke-opacity="1" stroke-miterlimit="10" d="M 126.679688 712.691406 C 126.679688 716.355469 121.179688 716.355469 121.179688 712.691406 C 121.179688 709.023438 126.679688 709.023438 126.679688 712.691406 "/>
<path fill-rule="nonzero" fill="rgb(99.215686%, 74.901961%, 43.529412%)" fill-opacity="1" stroke-width="1" stroke-linecap="butt" stroke-linejoin="miter" stroke="rgb(99.215686%, 74.901961%, 43.529412%)" stroke-opacity="1" stroke-miterlimit="10" d="M 527.027344 58.890625 C 527.027344 62.558594 521.527344 62.558594 521.527344 58.890625 C 521.527344 55.222656 527.027344 55.222656 527.027344 58.890625 "/>
<path fill-rule="nonzero" fill="rgb(100%, 84.313725%, 0%)" fill-opacity="1" stroke-width="1" stroke-linecap="butt" stroke-linejoin="miter" stroke="rgb(100%, 84.313725%, 0%)" stroke-opacity="1" stroke-miterlimit="10" d="M 384.417969 482.421875 L 395.117188 482.421875 L 395.117188 493.121094 L 384.417969 493.121094 Z M 384.417969 482.421875 "/>
<path fill-rule="nonzero" fill="rgb(70.196078%, 70.196078%, 70.196078%)" fill-opacity="1" stroke-width="1" stroke-linecap="butt" stroke-linejoin="miter" stroke="rgb(70.196078%, 70.196078%, 70.196078%)" stroke-opacity="1" stroke-miterlimit="10" d="M 743.1875 643.023438 C 743.1875 649.492188 733.488281 649.492188 733.488281 643.023438 C 733.488281 636.558594 743.1875 636.558594 743.1875 643.023438 "/>
<path fill-rule="nonzero" fill="rgb(12.156863%, 47.058824%, 70.588235%)" fill-opacity="1" stroke-width="1" stroke-linecap="butt" stroke-linejoin="miter" stroke="rgb(12.156863%, 47.058824%, 70.588235%)" stroke-opacity="1" stroke-miterlimit="10" d="M 257.410156 639.191406 C 257.410156 642.855469 251.910156 642.855469 251.910156 639.191406 C 251.910156 635.523438 257.410156 635.523438 257.410156 639.191406 "/>
<path fill-rule="nonzero" fill="rgb(14.901961%, 14.901961%, 14.901961%)" fill-opacity="1" stroke-width="1" stroke-linecap="butt" stroke-linejoin="miter" stroke="rgb(14.901961%, 14.901961%, 14.901961%)" stroke-opacity="1" stroke-miterlimit="10" d="M 65.855469 745.921875 L 70.105469 737.421875 L 74.355469 745.921875 Z M 65.855469 745.921875 "/>
<path fill-rule="nonzero" fill="rgb(12.156863%, 47.058824%, 70.588235%)" fill-opacity="1" stroke-width="1" stroke-linecap="butt" stroke-linejoin="miter" stroke="rgb(12.156863%, 47.058824%, 70.588235%)" stroke-opacity="1" stroke-miterlimit="10" d="M 52.75 745.445312 C 52.75 749.109375 47.25 749.109375 47.25 745.445312 C 47.25 741.777344 52.75 741.777344 52.75 745.445312 "/>
<path fill-rule="nonzero" fill="rgb(99.215686%, 74.901961%, 43.529412%)" fill-opacity="1" stroke-width="1" stroke-linecap="butt" stroke-linejoin="miter" stroke="rgb(99.215686%, 74.901961%, 43.529412%)" stroke-opacity="1" stroke-miterlimit="10" d="M 466.753906 182.785156 C 466.753906 186.453125 461.253906 186.453125 461.253906 182.785156 C 461.253906 179.121094 466.753906 179.121094 466.753906 182.785156 "/>
<path fill-rule="nonzero" fill="rgb(70.196078%, 70.196078%, 70.196078%)" fill-opacity="1" stroke-width="1" stroke-linecap="butt" stroke-linejoin="miter" stroke="rgb(70.196078%, 70.196078%, 70.196078%)" stroke-opacity="1" stroke-miterlimit="10" d="M 669.230469 630.269531 C 669.230469 636.734375 659.53125 636.734375 659.53125 630.269531 C 659.53125 623.800781 669.230469 623.800781 669.230469 630.269531 "/>
<path fill-rule="nonzero" fill="rgb(30.196078%, 68.627451%, 29.019608%)" fill-opacity="1" stroke-width="1" stroke-linecap="butt" stroke-linejoin="miter" stroke="rgb(30.196078%, 68.627451%, 29.019608%)" stroke-opacity="1" stroke-miterlimit="10" d="M 526.675781 50.703125 C 526.675781 54.371094 521.175781 54.371094 521.175781 50.703125 C 521.175781 47.035156 526.675781 47.035156 526.675781 50.703125 "/>
<path fill-rule="nonzero" fill="rgb(70.196078%, 70.196078%, 70.196078%)" fill-opacity="1" stroke-width="1" stroke-linecap="butt" stroke-linejoin="miter" stroke="rgb(70.196078%, 70.196078%, 70.196078%)" stroke-opacity="1" stroke-miterlimit="10" d="M 723.59375 646.355469 C 723.59375 652.824219 713.890625 652.824219 713.890625 646.355469 C 713.890625 639.890625 723.59375 639.890625 723.59375 646.355469 "/>
<path fill-rule="nonzero" fill="rgb(12.156863%, 47.058824%, 70.588235%)" fill-opacity="1" stroke-width="1" stroke-linecap="butt" stroke-linejoin="miter" stroke="rgb(12.156863%, 47.058824%, 70.588235%)" stroke-opacity="1" stroke-miterlimit="10" d="M 61.660156 745.683594 C 61.660156 749.351562 56.160156 749.351562 56.160156 745.683594 C 56.160156 742.019531 61.660156 742.019531 61.660156 745.683594 "/>
<path fill-rule="nonzero" fill="rgb(70.196078%, 70.196078%, 70.196078%)" fill-opacity="1" stroke-width="1" stroke-linecap="butt" stroke-linejoin="miter" stroke="rgb(70.196078%, 70.196078%, 70.196078%)" stroke-opacity="1" stroke-miterlimit="10" d="M 520.683594 75.007812 C 520.683594 81.476562 510.984375 81.476562 510.984375 75.007812 C 510.984375 68.542969 520.683594 68.542969 520.683594 75.007812 "/>
<path fill-rule="nonzero" fill="rgb(14.901961%, 14.901961%, 14.901961%)" fill-opacity="1" stroke-width="1" stroke-linecap="butt" stroke-linejoin="miter" stroke="rgb(14.901961%, 14.901961%, 14.901961%)" stroke-opacity="1" stroke-miterlimit="10" d="M 744.148438 649.210938 L 750 637.511719 L 755.851562 649.210938 Z M 744.148438 649.210938 "/>
<path fill-rule="nonzero" fill="rgb(30.196078%, 68.627451%, 29.019608%)" fill-opacity="1" stroke-width="1" stroke-linecap="butt" stroke-linejoin="miter" stroke="rgb(30.196078%, 68.627451%, 29.019608%)" stroke-opacity="1" stroke-miterlimit="10" d="M 468.914062 187.355469 C 468.914062 191.019531 463.414062 191.019531 463.414062 187.355469 C 463.414062 183.6875 468.914062 183.6875 468.914062 187.355469 "/>
<path fill-rule="nonzero" fill="rgb(12.156863%, 47.058824%, 70.588235%)" fill-opacity="1" stroke-width="1" stroke-linecap="butt" stroke-linejoin="miter" stroke="rgb(12.156863%, 47.058824%, 70.588235%)" stroke-opacity="1" stroke-miterlimit="10" d="M 56.140625 750 C 56.140625 753.667969 50.640625 753.667969 50.640625 750 C 50.640625 746.332031 56.140625 746.332031 56.140625 750 "/>
<path fill-rule="nonzero" fill="rgb(12.156863%, 47.058824%, 70.588235%)" fill-opacity="1" stroke-width="1" stroke-linecap="butt" stroke-linejoin="miter" stroke="rgb(12.156863%, 47.058824%, 70.588235%)" stroke-opacity="1" stroke-miterlimit="10" d="M 188.816406 679.707031 C 188.816406 683.375 183.316406 683.375 183.316406 679.707031 C 183.316406 676.042969 188.816406 676.042969 188.816406 679.707031 "/>
<path fill-rule="nonzero" fill="rgb(12.156863%, 47.058824%, 70.588235%)" fill-opacity="1" stroke-width="1" stroke-linecap="butt" stroke-linejoin="miter" stroke="rgb(12.156863%, 47.058824%, 70.588235%)" stroke-opacity="1" stroke-miterlimit="10" d="M 326.707031 598.367188 C 326.707031 602.035156 321.207031 602.035156 321.207031 598.367188 C 321.207031 594.703125 326.707031 594.703125 326.707031 598.367188 "/>
<path fill-rule="nonzero" fill="rgb(70.196078%, 70.196078%, 70.196078%)" fill-opacity="1" stroke-width="1" stroke-linecap="butt" stroke-linejoin="miter" stroke="rgb(70.196078%, 70.196078%, 70.196078%)" stroke-opacity="1" stroke-miterlimit="10" d="M 457.730469 213.203125 C 457.730469 219.667969 448.03125 219.667969 448.03125 213.203125 C 448.03125 206.734375 457.730469 206.734375 457.730469 213.203125 "/>
<path fill-rule="nonzero" fill="rgb(70.196078%, 70.196078%, 70.196078%)" fill-opacity="1" stroke-width="1" stroke-linecap="butt" stroke-linejoin="miter" stroke="rgb(70.196078%, 70.196078%, 70.196078%)" stroke-opacity="1" stroke-miterlimit="10" d="M 397.929688 553.847656 C 397.929688 560.3125 388.230469 560.3125 388.230469 553.847656 C 388.230469 547.378906 397.929688 547.378906 397.929688 553.847656 "/>
<path fill-rule="nonzero" fill="rgb(99.215686%, 74.901961%, 43.529412%)" fill-opacity="1" stroke-width="1" stroke-linecap="butt" stroke-linejoin="miter" stroke="rgb(99.215686%, 74.901961%, 43.529412%)" stroke-opacity="1" stroke-miterlimit="10" d="M 420.054688 301.03125 C 420.054688 304.699219 414.554688 304.699219 414.554688 301.03125 C 414.554688 297.367188 420.054688 297.367188 420.054688 301.03125 "/>
<path fill-rule="nonzero" fill="rgb(70.196078%, 70.196078%, 70.196078%)" fill-opacity="1" stroke-width="1" stroke-linecap="butt" stroke-linejoin="miter" stroke="rgb(70.196078%, 70.196078%, 70.196078%)" stroke-opacity="1" stroke-miterlimit="10" d="M 409.414062 335.800781 C 409.414062 342.9375 398.714844 342.9375 398.714844 335.800781 C 398.714844 328.667969 409.414062 328.667969 409.414062 335.800781 "/>
<path fill-rule="nonzero" fill="rgb(70.196078%, 70.196078%, 70.196078%)" fill-opacity="1" stroke-width="1" stroke-linecap="butt" stroke-linejoin="miter" stroke="rgb(70.196078%, 70.196078%, 70.196078%)" stroke-opacity="1" stroke-miterlimit="10" d="M 543.582031 594.410156 C 543.582031 600.875 533.882812 600.875 533.882812 594.410156 C 533.882812 587.941406 543.582031 587.941406 543.582031 594.410156 "/>
<path fill-rule="nonzero" fill="rgb(70.196078%, 70.196078%, 70.196078%)" fill-opacity="1" stroke-width="1" stroke-linecap="butt" stroke-linejoin="miter" stroke="rgb(70.196078%, 70.196078%, 70.196078%)" stroke-opacity="1" stroke-miterlimit="10" d="M 400.222656 483.398438 C 400.222656 490.53125 389.523438 490.53125 389.523438 483.398438 C 389.523438 476.265625 400.222656 476.265625 400.222656 483.398438 "/>
<path fill-rule="nonzero" fill="rgb(100%, 84.313725%, 0%)" fill-opacity="1" stroke-width="1" stroke-linecap="butt" stroke-linejoin="miter" stroke="rgb(100%, 84.313725%, 0%)" stroke-opacity="1" stroke-miterlimit="10" d="M 391.6875 403.320312 L 402.386719 403.320312 L 402.386719 414.019531 L 391.6875 414.019531 Z M 391.6875 403.320312 "/>
<path fill-rule="nonzero" fill="rgb(30.196078%, 68.627451%, 29.019608%)" fill-opacity="1" stroke-width="1" stroke-linecap="butt" stroke-linejoin="miter" stroke="rgb(30.196078%, 68.627451%, 29.019608%)" stroke-opacity="1" stroke-miterlimit="10" d="M 412.621094 304.554688 C 412.621094 308.222656 407.121094 308.222656 407.121094 304.554688 C 407.121094 300.890625 412.621094 300.890625 412.621094 304.554688 "/>
</svg>
