<?xml version="1.0" encoding="UTF-8"?>
<svg xmlns="http://www.w3.org/2000/svg" xmlns:xlink="http://www.w3.org/1999/xlink" width="800" height="800" viewBox="0 0 800 800">
<rect x="-80" y="-80" width="960" height="960" fill="rgb(100%, 100%, 100%)" fill-opacity="1"/>
<path fill="none" stroke-width="5.5" stroke-linecap="butt" stroke-linejoin="miter" stroke="rgb(70.196078%, 70.196078%, 70.196078%)" stroke-opacity="1" stroke-miterlimit="10" d="M 59.4375 225.472656 C 58.0625 224.585938 55.640625 223.785156 55.015625 224.804688 "/>
<path fill-rule="nonzero" fill="rgb(70.196078%, 70.196078%, 70.196078%)" fill-opacity="1" d="M 51.300781 230.894531 L 53.039062 223.597656 L 56.996094 226.015625 L 51.300781 230.894531 "/>
<path fill="none" stroke-width="5.5" stroke-linecap="butt" stroke-linejoin="miter" stroke="rgb(70.196078%, 70.196078%, 70.196078%)" stroke-opacity="1" stroke-miterlimit="10" d="M 76.070312 216.84375 C 72.4375 215.753906 68.164062 215.46875 65.78125 218.199219 "/>
<path fill-rule="nonzero" fill="rgb(70.196078%, 70.196078%, 70.196078%)" fill-opacity="1" d="M 61.09375 223.574219 L 64.035156 216.675781 L 67.527344 219.722656 L 61.09375 223.574219 "/>
<path fill="none" stroke-width="5.5" stroke-linecap="butt" stroke-linejoin="miter" stroke="rgb(70.196078%, 70.196078%, 70.196078%)" stroke-opacity="1" stroke-miterlimit="10" d="M 95.550781 202.457031 C 89.816406 202.339844 84.042969 203.800781 81.109375 208.601562 "/>
<path fill-rule="nonzero" fill="rgb(70.196078%, 70.196078%, 70.196078%)" fill-opacity="1" d="M 77.390625 214.6875 L 79.132812 207.390625 L 83.085938 209.808594 L 77.390625 214.6875 "/>
<path fill="none" stroke-width="5.5" stroke-linecap="butt" stroke-linejoin="miter" stroke="rgb(70.196078%, 70.196078%, 70.196078%)" stroke-opacity="1" stroke-miterlimit="10" d="M 117.597656 181.5 C 109.738281 182.820312 102.664062 186.402344 99.46875 193.617188 "/>
<path fill-rule="nonzero" fill="rgb(70.196078%, 70.196078%, 70.196078%)" fill-opacity="1" d="M 96.578125 200.136719 L 97.351562 192.679688 L 101.585938 194.554688 L 96.578125 200.136719 "/>
<path fill="none" stroke-width="5.5" stroke-linecap="butt" stroke-linejoin="miter" stroke="rgb(70.196078%, 70.196078%, 70.196078%)" stroke-opacity="1" stroke-miterlimit="10" d="M 147.140625 158.464844 C 136.625 159.636719 127.335938 163.996094 122.222656 173.191406 "/>
<path fill-rule="nonzero" fill="rgb(70.196078%, 70.196078%, 70.196078%)" fill-opacity="1" d="M 118.753906 179.425781 L 120.195312 172.066406 L 124.246094 174.316406 L 118.753906 179.425781 "/>
<path fill="none" stroke-width="5.5" stroke-linecap="butt" stroke-linejoin="miter" stroke="rgb(70.196078%, 70.196078%, 70.196078%)" stroke-opacity="1" stroke-miterlimit="10" d="M 175.105469 138.140625 C 165.648438 138.714844 157.039062 142.148438 152.160156 150.191406 "/>
<path fill-rule="nonzero" fill="rgb(70.196078%, 70.196078%, 70.196078%)" fill-opacity="1" d="M 148.460938 156.292969 L 150.175781 148.992188 L 154.140625 151.394531 L 148.460938 156.292969 "/>
<path fill="none" stroke-width="5.5" stroke-linecap="butt" stroke-linejoin="miter" stroke="rgb(70.196078%, 70.196078%, 70.196078%)" stroke-opacity="1" stroke-miterlimit="10" d="M 212.421875 116.121094 C 199.707031 116.15625 188.242188 120.273438 180.742188 130.476562 "/>
<path fill-rule="nonzero" fill="rgb(70.196078%, 70.196078%, 70.196078%)" fill-opacity="1" d="M 176.515625 136.226562 L 178.875 129.105469 L 182.609375 131.851562 L 176.515625 136.226562 "/>
<path fill="none" stroke-width="5.5" stroke-linecap="butt" stroke-linejoin="miter" stroke="rgb(70.196078%, 70.196078%, 70.196078%)" stroke-opacity="1" stroke-miterlimit="10" d="M 252.253906 95.070312 C 238.921875 94.542969 226.761719 98.390625 218.402344 108.726562 "/>
<path fill-rule="nonzero" fill="rgb(70.196078%, 70.196078%, 70.196078%)" fill-opacity="1" d="M 213.917969 114.273438 L 216.601562 107.269531 L 220.203125 110.183594 L 213.917969 114.273438 "/>
<path fill="none" stroke-width="5.5" stroke-linecap="butt" stroke-linejoin="miter" stroke="rgb(70.196078%, 70.196078%, 70.196078%)" stroke-opacity="1" stroke-miterlimit="10" d="M 291.792969 76.328125 C 278.972656 75.214844 267.050781 78.34375 258.558594 87.945312 "/>
<path fill-rule="nonzero" fill="rgb(70.196078%, 70.196078%, 70.196078%)" fill-opacity="1" d="M 253.832031 93.289062 L 256.820312 86.410156 L 260.292969 89.480469 L 253.832031 93.289062 "/>
<path fill="none" stroke-width="5.5" stroke-linecap="butt" stroke-linejoin="miter" stroke="rgb(70.196078%, 70.196078%, 70.196078%)" stroke-opacity="1" stroke-miterlimit="10" d="M 691.613281 202.289062 C 688.890625 185.820312 680.996094 172.148438 666.328125 164.257812 "/>
<path fill-rule="nonzero" fill="rgb(70.196078%, 70.196078%, 70.196078%)" fill-opacity="1" d="M 660.046875 160.875 L 667.429688 162.214844 L 665.230469 166.296875 L 660.046875 160.875 "/>
<path fill="none" stroke-width="5.5" stroke-linecap="butt" stroke-linejoin="miter" stroke="rgb(70.196078%, 70.196078%, 70.196078%)" stroke-opacity="1" stroke-miterlimit="10" d="M 717.011719 251.839844 C 717.519531 234.632812 712.21875 219.261719 698.960938 208.339844 "/>
<path fill-rule="nonzero" fill="rgb(70.196078%, 70.196078%, 70.196078%)" fill-opacity="1" d="M 693.453125 203.804688 L 700.433594 206.550781 L 697.484375 210.128906 L 693.453125 203.804688 "/>
<path fill="none" stroke-width="5.5" stroke-linecap="butt" stroke-linejoin="miter" stroke="rgb(70.196078%, 70.196078%, 70.196078%)" stroke-opacity="1" stroke-miterlimit="10" d="M 737.269531 302.855469 C 739.402344 286.0625 735.691406 270.503906 723.746094 258.566406 "/>
<path fill-rule="nonzero" fill="rgb(70.196078%, 70.196078%, 70.196078%)" fill-opacity="1" d="M 718.699219 253.523438 L 725.382812 256.925781 L 722.105469 260.207031 L 718.699219 253.523438 "/>
<path fill="none" stroke-width="5.5" stroke-linecap="butt" stroke-linejoin="miter" stroke="rgb(70.196078%, 70.196078%, 70.196078%)" stroke-opacity="1" stroke-miterlimit="10" d="M 335.160156 59.160156 C 321.382812 57.15625 308.386719 59.84375 298.542969 69.625 "/>
<path fill-rule="nonzero" fill="rgb(70.196078%, 70.196078%, 70.196078%)" fill-opacity="1" d="M 293.484375 74.652344 L 296.910156 67.980469 L 300.175781 71.269531 L 293.484375 74.652344 "/>
<path fill="none" stroke-width="5.5" stroke-linecap="butt" stroke-linejoin="miter" stroke="rgb(70.196078%, 70.196078%, 70.196078%)" stroke-opacity="1" stroke-miterlimit="10" d="M 584.457031 95.453125 C 573.929688 83.367188 560.582031 76.132812 544.625 77.125 "/>
<path fill-rule="nonzero" fill="rgb(70.196078%, 70.196078%, 70.196078%)" fill-opacity="1" d="M 537.503906 77.566406 L 544.480469 74.808594 L 544.769531 79.4375 L 537.503906 77.566406 "/>
<path fill="none" stroke-width="5.5" stroke-linecap="butt" stroke-linejoin="miter" stroke="rgb(70.196078%, 70.196078%, 70.196078%)" stroke-opacity="1" stroke-miterlimit="10" d="M 385.796875 50 C 370.976562 44.894531 356.117188 45.253906 343.089844 53.898438 "/>
<path fill-rule="nonzero" fill="rgb(70.196078%, 70.196078%, 70.196078%)" fill-opacity="1" d="M 337.144531 57.839844 L 341.804688 51.96875 L 344.371094 55.828125 L 337.144531 57.839844 "/>
<path fill="none" stroke-width="5.5" stroke-linecap="butt" stroke-linejoin="miter" stroke="rgb(70.196078%, 70.196078%, 70.196078%)" stroke-opacity="1" stroke-miterlimit="10" d="M 436.605469 54.289062 C 423.773438 45.585938 409.488281 42.085938 394.820312 46.984375 "/>
<path fill-rule="nonzero" fill="rgb(70.196078%, 70.196078%, 70.196078%)" fill-opacity="1" d="M 388.054688 49.246094 L 394.085938 44.785156 L 395.554688 49.183594 L 388.054688 49.246094 "/>
<path fill="none" stroke-width="5.5" stroke-linecap="butt" stroke-linejoin="miter" stroke="rgb(70.196078%, 70.196078%, 70.196078%)" stroke-opacity="1" stroke-miterlimit="10" d="M 486.136719 64.460938 C 474.546875 54.398438 460.914062 49.261719 445.921875 52.363281 "/>
<path fill-rule="nonzero" fill="rgb(70.196078%, 70.196078%, 70.196078%)" fill-opacity="1" d="M 438.9375 53.804688 L 445.453125 50.09375 L 446.390625 54.632812 L 438.9375 53.804688 "/>
<path fill="none" stroke-width="5.5" stroke-linecap="butt" stroke-linejoin="miter" stroke="rgb(70.196078%, 70.196078%, 70.196078%)" stroke-opacity="1" stroke-miterlimit="10" d="M 535.128906 77.710938 C 524.128906 66.910156 510.777344 60.929688 495.558594 63.113281 "/>
<path fill-rule="nonzero" fill="rgb(70.196078%, 70.196078%, 70.196078%)" fill-opacity="1" d="M 488.496094 64.125 L 495.226562 60.816406 L 495.886719 65.40625 L 488.496094 64.125 "/>
<path fill="none" stroke-width="5.5" stroke-linecap="butt" stroke-linejoin="miter" stroke="rgb(70.196078%, 70.196078%, 70.196078%)" stroke-opacity="1" stroke-miterlimit="10" d="M 624.421875 125.019531 C 618.296875 111.28125 608.320312 101.054688 593.71875 97.628906 "/>
<path fill-rule="nonzero" fill="rgb(70.196078%, 70.196078%, 70.196078%)" fill-opacity="1" d="M 586.777344 95.996094 L 594.25 95.371094 L 593.191406 99.882812 L 586.777344 95.996094 "/>
<path fill="none" stroke-width="5.5" stroke-linecap="butt" stroke-linejoin="miter" stroke="rgb(70.196078%, 70.196078%, 70.196078%)" stroke-opacity="1" stroke-miterlimit="10" d="M 748.648438 358.597656 C 753.863281 341.726562 752.808594 325.101562 742.71875 310.65625 "/>
<path fill-rule="nonzero" fill="rgb(70.196078%, 70.196078%, 70.196078%)" fill-opacity="1" d="M 738.632812 304.808594 L 744.617188 309.328125 L 740.816406 311.984375 L 738.632812 304.808594 "/>
<path fill="none" stroke-width="5.5" stroke-linecap="butt" stroke-linejoin="miter" stroke="rgb(70.196078%, 70.196078%, 70.196078%)" stroke-opacity="1" stroke-miterlimit="10" d="M 750 412.539062 C 757.675781 397.835938 759.578125 382.261719 752.640625 367.234375 "/>
<path fill-rule="nonzero" fill="rgb(70.196078%, 70.196078%, 70.196078%)" fill-opacity="1" d="M 749.648438 360.761719 L 754.742188 366.265625 L 750.535156 368.207031 L 749.648438 360.761719 "/>
<path fill="none" stroke-width="5.5" stroke-linecap="butt" stroke-linejoin="miter" stroke="rgb(70.196078%, 70.196078%, 70.196078%)" stroke-opacity="1" stroke-miterlimit="10" d="M 747.378906 458.003906 C 754.808594 446.710938 757.820312 434.152344 753.238281 421.484375 "/>
<path fill-rule="nonzero" fill="rgb(70.196078%, 70.196078%, 70.196078%)" fill-opacity="1" d="M 750.808594 414.777344 L 755.414062 420.699219 L 751.058594 422.273438 L 750.808594 414.777344 "/>
<path fill="none" stroke-width="5.5" stroke-linecap="butt" stroke-linejoin="miter" stroke="rgb(70.196078%, 70.196078%, 70.196078%)" stroke-opacity="1" stroke-miterlimit="10" d="M 657.949219 159.746094 C 654.355469 145.683594 646.539062 134.296875 633.195312 128.699219 "/>
<path fill-rule="nonzero" fill="rgb(70.196078%, 70.196078%, 70.196078%)" fill-opacity="1" d="M 626.617188 125.941406 L 634.09375 126.5625 L 632.300781 130.835938 L 626.617188 125.941406 "/>
<path fill="none" stroke-width="5.5" stroke-linecap="butt" stroke-linejoin="miter" stroke="rgb(70.196078%, 70.196078%, 70.196078%)" stroke-opacity="1" stroke-miterlimit="10" d="M 722.164062 549.582031 C 732.164062 540.3125 738.128906 528.742188 736.703125 515.226562 "/>
<path fill-rule="nonzero" fill="rgb(70.196078%, 70.196078%, 70.196078%)" fill-opacity="1" d="M 735.957031 508.136719 L 739.007812 514.984375 L 734.398438 515.472656 L 735.957031 508.136719 "/>
<path fill="none" stroke-width="5.5" stroke-linecap="butt" stroke-linejoin="miter" stroke="rgb(70.196078%, 70.196078%, 70.196078%)" stroke-opacity="1" stroke-miterlimit="10" d="M 707.664062 591.933594 C 717.664062 583.257812 723.855469 572.21875 722.875 559.066406 "/>
<path fill-rule="nonzero" fill="rgb(70.196078%, 70.196078%, 70.196078%)" fill-opacity="1" d="M 722.34375 551.953125 L 725.183594 558.894531 L 720.5625 559.238281 L 722.34375 551.953125 "/>
<path fill="none" stroke-width="5.5" stroke-linecap="butt" stroke-linejoin="miter" stroke="rgb(70.196078%, 70.196078%, 70.196078%)" stroke-opacity="1" stroke-miterlimit="10" d="M 735.707031 505.769531 C 745.878906 494.960938 751.40625 481.980469 748.953125 467.386719 "/>
<path fill-rule="nonzero" fill="rgb(70.196078%, 70.196078%, 70.196078%)" fill-opacity="1" d="M 747.773438 460.351562 L 751.242188 467.003906 L 746.667969 467.769531 L 747.773438 460.351562 "/>
<path fill="none" stroke-width="5.5" stroke-linecap="butt" stroke-linejoin="miter" stroke="rgb(70.196078%, 70.196078%, 70.196078%)" stroke-opacity="1" stroke-miterlimit="10" d="M 686.707031 626.78125 C 697.066406 621.25 704.726562 612.929688 706.347656 601.351562 "/>
<path fill-rule="nonzero" fill="rgb(70.196078%, 70.196078%, 70.196078%)" fill-opacity="1" d="M 707.332031 594.289062 L 708.640625 601.671875 L 704.050781 601.03125 L 707.332031 594.289062 "/>
<path fill="none" stroke-width="5.5" stroke-linecap="butt" stroke-linejoin="miter" stroke="rgb(70.196078%, 70.196078%, 70.196078%)" stroke-opacity="1" stroke-miterlimit="10" d="M 619.976562 732.714844 C 623.363281 732.914062 627.261719 732.300781 628.648438 729.414062 "/>
<path fill-rule="nonzero" fill="rgb(70.196078%, 70.196078%, 70.196078%)" fill-opacity="1" d="M 631.734375 722.984375 L 630.734375 730.417969 L 626.558594 728.410156 L 631.734375 722.984375 "/>
<path fill="none" stroke-width="5.5" stroke-linecap="butt" stroke-linejoin="miter" stroke="rgb(70.196078%, 70.196078%, 70.196078%)" stroke-opacity="1" stroke-miterlimit="10" d="M 610.714844 744.816406 C 613.3125 744.839844 616.554688 744.203125 617.226562 741.953125 "/>
<path fill-rule="nonzero" fill="rgb(70.196078%, 70.196078%, 70.196078%)" fill-opacity="1" d="M 619.261719 735.117188 L 619.445312 742.617188 L 615.003906 741.292969 L 619.261719 735.117188 "/>
<path fill="none" stroke-width="5.5" stroke-linecap="butt" stroke-linejoin="miter" stroke="rgb(70.196078%, 70.196078%, 70.196078%)" stroke-opacity="1" stroke-miterlimit="10" d="M 605.257812 750 C 604.972656 751.183594 606.136719 752.824219 605.878906 753.277344 "/>
<path fill-rule="nonzero" fill="rgb(70.196078%, 70.196078%, 70.196078%)" fill-opacity="1" d="M 609.417969 747.082031 L 607.894531 754.425781 L 603.867188 752.125 L 609.417969 747.082031 "/>
<path fill="none" stroke-width="5.5" stroke-linecap="butt" stroke-linejoin="miter" stroke="rgb(70.196078%, 70.196078%, 70.196078%)" stroke-opacity="1" stroke-miterlimit="10" d="M 647.8125 690.113281 C 656.980469 685.296875 663.914062 678.007812 665.273438 667.804688 "/>
<path fill-rule="nonzero" fill="rgb(70.196078%, 70.196078%, 70.196078%)" fill-opacity="1" d="M 666.214844 660.734375 L 667.570312 668.113281 L 662.976562 667.5 L 666.214844 660.734375 "/>
<path fill="none" stroke-width="5.5" stroke-linecap="butt" stroke-linejoin="miter" stroke="rgb(70.196078%, 70.196078%, 70.196078%)" stroke-opacity="1" stroke-miterlimit="10" d="M 666.53125 658.382812 C 676.0625 653.761719 683.367188 646.542969 685.121094 636.15625 "/>
<path fill-rule="nonzero" fill="rgb(70.196078%, 70.196078%, 70.196078%)" fill-opacity="1" d="M 686.308594 629.125 L 687.40625 636.542969 L 682.835938 635.769531 L 686.308594 629.125 "/>
<path fill="none" stroke-width="5.5" stroke-linecap="butt" stroke-linejoin="miter" stroke="rgb(70.196078%, 70.196078%, 70.196078%)" stroke-opacity="1" stroke-miterlimit="10" d="M 632.824219 720.714844 C 640.773438 715.898438 646.707031 708.980469 647.246094 699.769531 "/>
<path fill-rule="nonzero" fill="rgb(70.196078%, 70.196078%, 70.196078%)" fill-opacity="1" d="M 647.664062 692.648438 L 649.558594 699.90625 L 644.933594 699.632812 L 647.664062 692.648438 "/>
<path fill-rule="nonzero" fill="rgb(14.901961%, 14.901961%, 14.901961%)" fill-opacity="1" stroke-width="1" stroke-linecap="butt" stroke-linejoin="miter" stroke="rgb(14.901961%, 14.901961%, 14.901961%)" stroke-opacity="1" stroke-miterlimit="10" d="M 47.5 235.523438 L 50 230.523438 L 52.5 235.523438 Z M 47.5 235.523438 "/>
<path fill-rule="nonzero" fill="rgb(70.196078%, 70.196078%, 70.196078%)" fill-opacity="1" stroke-width="1" stroke-linecap="butt" stroke-linejoin="miter" stroke="rgb(70.196078%, 70.196078%, 70.196078%)" stroke-opacity="1" stroke-miterlimit="10" d="M 61.9375 225.472656 C 61.9375 228.804688 56.9375 228.804688 56.9375 225.472656 C 56.9375 222.140625 61.9375 222.140625 61.9375 225.472656 "/>
<path fill-rule="nonzero" fill="rgb(70.196078%, 70.196078%, 70.196078%)" fill-opacity="1" stroke-width="1" stroke-linecap="butt" stroke-linejoin="miter" stroke="rgb(70.196078%, 70.196078%, 70.196078%)" stroke-opacity="1" stroke-miterlimit="10" d="M 78.570312 216.84375 C 78.570312 220.179688 73.570312 220.179688 73.570312 216.84375 C 73.570312 213.511719 78.570312 213.511719 78.570312 216.84375 "/>
<path fill-rule="nonzero" fill="rgb(70.196078%, 70.196078%, 70.196078%)" fill-opacity="1" stroke-width="1" stroke-linecap="butt" stroke-linejoin="miter" stroke="rgb(70.196078%, 70.196078%, 70.196078%)" stroke-opacity="1" stroke-miterlimit="10" d="M 98.050781 202.457031 C 98.050781 205.792969 93.050781 205.792969 93.050781 202.457031 C 93.050781 199.125 98.050781 199.125 98.050781 202.457031 "/>
<path fill-rule="nonzero" fill="rgb(70.196078%, 70.196078%, 70.196078%)" fill-opacity="1" stroke-width="1" stroke-linecap="butt" stroke-linejoin="miter" stroke="rgb(70.196078%, 70.196078%, 70.196078%)" stroke-opacity="1" stroke-miterlimit="10" d="M 120.097656 181.5 C 120.097656 184.832031 115.097656 184.832031 115.097656 181.5 C 115.097656 178.167969 120.097656 178.167969 120.097656 181.5 "/>
<path fill-rule="nonzero" fill="rgb(70.196078%, 70.196078%, 70.196078%)" fill-opacity="1" stroke-width="1" stroke-linecap="butt" stroke-linejoin="miter" stroke="rgb(70.196078%, 70.196078%, 70.196078%)" stroke-opacity="1" stroke-miterlimit="10" d="M 149.640625 158.464844 C 149.640625 161.796875 144.640625 161.796875 144.640625 158.464844 C 144.640625 155.132812 149.640625 155.132812 149.640625 158.464844 "/>
<path fill-rule="nonzero" fill="rgb(70.196078%, 70.196078%, 70.196078%)" fill-opacity="1" stroke-width="1" stroke-linecap="butt" stroke-linejoin="miter" stroke="rgb(70.196078%, 70.196078%, 70.196078%)" stroke-opacity="1" stroke-miterlimit="10" d="M 177.605469 138.140625 C 177.605469 141.476562 172.605469 141.476562 172.605469 138.140625 C 172.605469 134.808594 177.605469 134.808594 177.605469 138.140625 "/>
<path fill-rule="nonzero" fill="rgb(70.196078%, 70.196078%, 70.196078%)" fill-opacity="1" stroke-width="1" stroke-linecap="butt" stroke-linejoin="miter" stroke="rgb(70.196078%, 70.196078%, 70.196078%)" stroke-opacity="1" stroke-miterlimit="10" d="M 214.921875 116.121094 C 214.921875 119.457031 209.921875 119.457031 209.921875 116.121094 C 209.921875 112.789062 214.921875 112.789062 214.921875 116.121094 "/>
<path fill-rule="nonzero" fill="rgb(70.196078%, 70.196078%, 70.196078%)" fill-opacity="1" stroke-width="1" stroke-linecap="butt" stroke-linejoin="miter" stroke="rgb(70.196078%, 70.196078%, 70.196078%)" stroke-opacity="1" stroke-miterlimit="10" d="M 254.753906 95.070312 C 254.753906 98.402344 249.753906 98.402344 249.753906 95.070312 C 249.753906 91.738281 254.753906 91.738281 254.753906 95.070312 "/>
<path fill-rule="nonzero" fill="rgb(70.196078%, 70.196078%, 70.196078%)" fill-opacity="1" stroke-width="1" stroke-linecap="butt" stroke-linejoin="miter" stroke="rgb(70.196078%, 70.196078%, 70.196078%)" stroke-opacity="1" stroke-miterlimit="10" d="M 294.292969 76.328125 C 294.292969 79.664062 289.292969 79.664062 289.292969 76.328125 C 289.292969 72.996094 294.292969 72.996094 294.292969 76.328125 "/>
<path fill-rule="nonzero" fill="rgb(70.196078%, 70.196078%, 70.196078%)" fill-opacity="1" stroke-width="1" stroke-linecap="butt" stroke-linejoin="miter" stroke="rgb(70.196078%, 70.196078%, 70.196078%)" stroke-opacity="1" stroke-miterlimit="10" d="M 694.113281 202.289062 C 694.113281 205.625 689.113281 205.625 689.113281 202.289062 C 689.113281 198.957031 694.113281 198.957031 694.113281 202.289062 "/>
<path fill-rule="nonzero" fill="rgb(70.196078%, 70.196078%, 70.196078%)" fill-opacity="1" stroke-width="1" stroke-linecap="butt" stroke-linejoin="miter" stroke="rgb(70.196078%, 70.196078%, 70.196078%)" stroke-opacity="1" stroke-miterlimit="10" d="M 719.511719 251.839844 C 719.511719 255.171875 714.511719 255.171875 714.511719 251.839844 C 714.511719 248.507812 719.511719 248.507812 719.511719 251.839844 "/>
<path fill-rule="nonzero" fill="rgb(70.196078%, 70.196078%, 70.196078%)" fill-opacity="1" stroke-width="1" stroke-linecap="butt" stroke-linejoin="miter" stroke="rgb(70.196078%, 70.196078%, 70.196078%)" stroke-opacity="1" stroke-miterlimit="10" d="M 739.769531 302.855469 C 739.769531 306.1875 734.769531 306.1875 734.769531 302.855469 C 734.769531 299.519531 739.769531 299.519531 739.769531 302.855469 "/>
<path fill-rule="nonzero" fill="rgb(70.196078%, 70.196078%, 70.196078%)" fill-opacity="1" stroke-width="1" stroke-linecap="butt" stroke-linejoin="miter" stroke="rgb(70.196078%, 70.196078%, 70.196078%)" stroke-opacity="1" stroke-miterlimit="10" d="M 337.660156 59.160156 C 337.660156 62.492188 332.660156 62.492188 332.660156 59.160156 C 332.660156 55.824219 337.660156 55.824219 337.660156 59.160156 "/>
<path fill-rule="nonzero" fill="rgb(70.196078%, 70.196078%, 70.196078%)" fill-opacity="1" stroke-width="1" stroke-linecap="butt" stroke-linejoin="miter" stroke="rgb(70.196078%, 70.196078%, 70.196078%)" stroke-opacity="1" stroke-miterlimit="10" d="M 586.957031 95.453125 C 586.957031 98.785156 581.957031 98.785156 581.957031 95.453125 C 581.957031 92.117188 586.957031 92.117188 586.957031 95.453125 "/>
<path fill-rule="nonzero" fill="rgb(70.196078%, 70.196078%, 70.196078%)" fill-opacity="1" stroke-width="1" stroke-linecap="butt" stroke-linejoin="miter" stroke="rgb(70.196078%, 70.196078%, 70.196078%)" stroke-opacity="1" stroke-miterlimit="10" d="M 388.296875 50 C 388.296875 53.332031 383.296875 53.332031 383.296875 50 C 383.296875 46.667969 388.296875 46.667969 388.296875 50 "/>
<path fill-rule="nonzero" fill="rgb(70.196078%, 70.196078%, 70.196078%)" fill-opacity="1" stroke-width="1" stroke-linecap="butt" stroke-linejoin="miter" stroke="rgb(70.196078%, 70.196078%, 70.196078%)" stroke-opacity="1" stroke-miterlimit="10" d="M 439.105469 54.289062 C 439.105469 57.621094 434.105469 57.621094 434.105469 54.289062 C 434.105469 50.957031 439.105469 50.957031 439.105469 54.289062 "/>
<path fill-rule="nonzero" fill="rgb(70.196078%, 70.196078%, 70.196078%)" fill-opacity="1" stroke-width="1" stroke-linecap="butt" stroke-linejoin="miter" stroke="rgb(70.196078%, 70.196078%, 70.196078%)" stroke-opacity="1" stroke-miterlimit="10" d="M 488.636719 64.460938 C 488.636719 67.796875 483.636719 67.796875 483.636719 64.460938 C 483.636719 61.128906 488.636719 61.128906 488.636719 64.460938 "/>
<path fill-rule="nonzero" fill="rgb(70.196078%, 70.196078%, 70.196078%)" fill-opacity="1" stroke-width="1" stroke-linecap="butt" stroke-linejoin="miter" stroke="rgb(70.196078%, 70.196078%, 70.196078%)" stroke-opacity="1" stroke-miterlimit="10" d="M 537.628906 77.710938 C 537.628906 81.046875 532.628906 81.046875 532.628906 77.710938 C 532.628906 74.378906 537.628906 74.378906 537.628906 77.710938 "/>
<path fill-rule="nonzero" fill="rgb(70.196078%, 70.196078%, 70.196078%)" fill-opacity="1" stroke-width="1" stroke-linecap="butt" stroke-linejoin="miter" stroke="rgb(70.196078%, 70.196078%, 70.196078%)" stroke-opacity="1" stroke-miterlimit="10" d="M 626.921875 125.019531 C 626.921875 128.351562 621.921875 128.351562 621.921875 125.019531 C 621.921875 121.6875 626.921875 121.6875 626.921875 125.019531 "/>
<path fill-rule="nonzero" fill="rgb(70.196078%, 70.196078%, 70.196078%)" fill-opacity="1" stroke-width="1" stroke-linecap="butt" stroke-linejoin="miter" stroke="rgb(70.196078%, 70.196078%, 70.196078%)" stroke-opacity="1" stroke-miterlimit="10" d="M 751.148438 358.597656 C 751.148438 361.929688 746.148438 361.929688 746.148438 358.597656 C 746.148438 355.261719 751.148438 355.261719 751.148438 358.597656 "/>
<path fill-rule="nonzero" fill="rgb(70.196078%, 70.196078%, 70.196078%)" fill-opacity="1" stroke-width="1" stroke-linecap="butt" stroke-linejoin="miter" stroke="rgb(70.196078%, 70.196078%, 70.196078%)" stroke-opacity="1" stroke-miterlimit="10" d="M 752.5 412.539062 C 752.5 415.875 747.5 415.875 747.5 412.539062 C 747.5 409.207031 752.5 409.207031 752.5 412.539062 "/>
<path fill-rule="nonzero" fill="rgb(70.196078%, 70.196078%, 70.196078%)" fill-opacity="1" stroke-width="1" stroke-linecap="butt" stroke-linejoin="miter" stroke="rgb(70.196078%, 70.196078%, 70.196078%)" stroke-opacity="1" stroke-miterlimit="10" d="M 749.878906 458.003906 C 749.878906 461.335938 744.878906 461.335938 744.878906 458.003906 C 744.878906 454.671875 749.878906 454.671875 749.878906 458.003906 "/>
<path fill-rule="nonzero" fill="rgb(70.196078%, 70.196078%, 70.196078%)" fill-opacity="1" stroke-width="1" stroke-linecap="butt" stroke-linejoin="miter" stroke="rgb(70.196078%, 70.196078%, 70.196078%)" stroke-opacity="1" stroke-miterlimit="10" d="M 660.449219 159.746094 C 660.449219 163.082031 655.449219 163.082031 655.449219 159.746094 C 655.449219 156.414062 660.449219 156.414062 660.449219 159.746094 "/>
<path fill-rule="nonzero" fill="rgb(70.196078%, 70.196078%, 70.196078%)" fill-opacity="1" stroke-width="1" stroke-linecap="butt" stroke-linejoin="miter" stroke="rgb(70.196078%, 70.196078%, 70.196078%)" stroke-opacity="1" stroke-miterlimit="10" d="M 724.664062 549.582031 C 724.664062 552.914062 719.664062 552.914062 719.664062 549.582031 C 719.664062 546.246094 724.664062 546.246094 724.664062 549.582031 "/>
<path fill-rule="nonzero" fill="rgb(70.196078%, 70.196078%, 70.196078%)" fill-opacity="1" stroke-width="1" stroke-linecap="butt" stroke-linejoin="miter" stroke="rgb(70.196078%, 70.196078%, 70.196078%)" stroke-opacity="1" stroke-miterlimit="10" d="M 710.164062 591.933594 C 710.164062 595.265625 705.164062 595.265625 705.164062 591.933594 C 705.164062 588.601562 710.164062 588.601562 710.164062 591.933594 "/>
<path fill-rule="nonzero" fill="rgb(70.196078%, 70.196078%, 70.196078%)" fill-opacity="1" stroke-width="1" stroke-linecap="butt" stroke-linejoin="miter" stroke="rgb(70.196078%, 70.196078%, 70.196078%)" stroke-opacity="1" stroke-miterlimit="10" d="M 738.207031 505.769531 C 738.207031 509.101562 733.207031 509.101562 733.207031 505.769531 C 733.207031 502.433594 738.207031 502.433594 738.207031 505.769531 "/>
<path fill-rule="nonzero" fill="rgb(70.196078%, 70.196078%, 70.196078%)" fill-opacity="1" stroke-width="1" stroke-linecap="butt" stroke-linejoin="miter" stroke="rgb(70.196078%, 70.196078%, 70.196078%)" stroke-opacity="1" stroke-miterlimit="10" d="M 689.207031 626.78125 C 689.207031 630.113281 684.207031 630.113281 684.207031 626.78125 C 684.207031 623.449219 689.207031 623.449219 689.207031 626.78125 "/>
<path fill-rule="nonzero" fill="rgb(70.196078%, 70.196078%, 70.196078%)" fill-opacity="1" stroke-width="1" stroke-linecap="butt" stroke-linejoin="miter" stroke="rgb(70.196078%, 70.196078%, 70.196078%)" stroke-opacity="1" stroke-miterlimit="10" d="M 622.476562 732.714844 C 622.476562 736.046875 617.476562 736.046875 617.476562 732.714844 C 617.476562 729.382812 622.476562 729.382812 622.476562 732.714844 "/>
<path fill-rule="nonzero" fill="rgb(70.196078%, 70.196078%, 70.196078%)" fill-opacity="1" stroke-width="1" stroke-linecap="butt" stroke-linejoin="miter" stroke="rgb(70.196078%, 70.196078%, 70.196078%)" stroke-opacity="1" stroke-miterlimit="10" d="M 613.214844 744.816406 C 613.214844 748.148438 608.214844 748.148438 608.214844 744.816406 C 608.214844 741.484375 613.214844 741.484375 613.214844 744.816406 "/>
<path fill-rule="nonzero" fill="rgb(100%, 84.313725%, 0%)" fill-opacity="1" stroke-width="1" stroke-linecap="butt" stroke-linejoin="miter" stroke="rgb(100%, 84.313725%, 0%)" stroke-opacity="1" stroke-miterlimit="10" d="M 602.757812 747.5 L 607.757812 747.5 L 607.757812 752.5 L 602.757812 752.5 Z M 602.757812 747.5 "/>
<path fill-rule="nonzero" fill="rgb(70.196078%, 70.196078%, 70.196078%)" fill-opacity="1" stroke-width="1" stroke-linecap="butt" stroke-linejoin="miter" stroke="rgb(70.196078%, 70.196078%, 70.196078%)" stroke-opacity="1" stroke-miterlimit="10" d="M 650.3125 690.113281 C 650.3125 693.445312 645.3125 693.445312 645.3125 690.113281 C 645.3125 686.777344 650.3125 686.777344 650.3125 690.113281 "/>
<path fill-rule="nonzero" fill="rgb(70.196078%, 70.196078%, 70.196078%)" fill-opacity="1" stroke-width="1" stroke-linecap="butt" stroke-linejoin="miter" stroke="rgb(70.196078%, 70.196078%, 70.196078%)" stroke-opacity="1" stroke-miterlimit="10" d="M 669.03125 658.382812 C 669.03125 661.714844 664.03125 661.714844 664.03125 658.382812 C 664.03125 655.046875 669.03125 655.046875 669.03125 658.382812 "/>
<path fill-rule="nonzero" fill="rgb(70.196078%, 70.196078%, 70.196078%)" fill-opacity="1" stroke-width="1" stroke-linecap="butt" stroke-linejoin="miter" stroke="rgb(70.196078%, 70.196078%, 70.196078%)" stroke-opacity="1" stroke-miterlimit="10" d="M 635.324219 720.714844 C 635.324219 724.050781 630.324219 724.050781 630.324219 720.714844 C 630.324219 717.382812 635.324219 717.382812 635.324219 720.714844 "/>
</svg>
