<?xml version="1.0" encoding="UTF-8"?>
<svg xmlns="http://www.w3.org/2000/svg" xmlns:xlink="http://www.w3.org/1999/xlink" width="800" height="800" viewBox="0 0 800 800">
<rect x="-80" y="-80" width="960" height="960" fill="rgb(100%, 100%, 100%)" fill-opacity="1"/>
<path fill="none" stroke-width="2.5" stroke-linecap="butt" stroke-linejoin="miter" stroke="rgb(70.196078%, 70.196078%, 70.196078%)" stroke-opacity="1" stroke-miterlimit="10" d="M 55.6875 51.773438 C 53.234375 51.394531 51.3125 53.035156 49.136719 53.582031 "/>
<path fill-rule="nonzero" fill="rgb(70.196078%, 70.196078%, 70.196078%)" fill-opacity="1" d="M 56.054688 51.839844 L 49.703125 55.832031 L 48.570312 51.335938 L 56.054688 51.839844 "/>
<path fill="none" stroke-width="2.5" stroke-linecap="butt" stroke-linejoin="miter" stroke="rgb(70.196078%, 70.196078%, 70.196078%)" stroke-opacity="1" stroke-miterlimit="10" d="M 55.6875 62.085938 C 56.894531 62.027344 58.855469 60.976562 58.636719 60.589844 "/>
<path fill-rule="nonzero" fill="rgb(70.196078%, 70.196078%, 70.196078%)" fill-opacity="1" d="M 55.125 54.378906 L 60.652344 59.449219 L 56.617188 61.730469 L 55.125 54.378906 "/>
<path fill="none" stroke-width="1.5" stroke-linecap="butt" stroke-linejoin="miter" stroke="rgb(12.156863%, 47.058824%, 70.588235%)" stroke-opacity="1" stroke-miterlimit="10" d="M 55.6875 62.085938 C 55.257812 63.183594 55.457031 65.359375 55.851562 65.308594 "/>
<path fill-rule="nonzero" fill="rgb(12.156863%, 47.058824%, 70.588235%)" fill-opacity="1" d="M 62.921875 64.371094 L 56.15625 67.605469 L 55.546875 63.011719 L 62.921875 64.371094 "/>
<path fill="none" stroke-width="2.5" stroke-linecap="butt" stroke-linejoin="miter" stroke="rgb(70.196078%, 70.196078%, 70.196078%)" stroke-opacity="1" stroke-miterlimit="10" d="M 52.652344 50 C 51.480469 47.082031 48.710938 45.925781 46.449219 44.03125 "/>
<path fill-rule="nonzero" fill="rgb(70.196078%, 70.196078%, 70.196078%)" fill-opacity="1" d="M 51.917969 48.613281 L 44.960938 45.808594 L 47.9375 42.257812 L 51.917969 48.613281 "/>
<path fill="none" stroke-width="1.5" stroke-linecap="butt" stroke-linejoin="miter" stroke="rgb(12.156863%, 47.058824%, 70.588235%)" stroke-opacity="1" stroke-miterlimit="10" d="M 74.03125 66.816406 C 72.746094 66.84375 71.507812 68.433594 70.859375 68.324219 "/>
<path fill-rule="nonzero" fill="rgb(12.156863%, 47.058824%, 70.588235%)" fill-opacity="1" d="M 77.894531 69.511719 L 70.472656 70.609375 L 71.246094 66.039062 L 77.894531 69.511719 "/>
<path fill="none" stroke-width="1.5" stroke-linecap="butt" stroke-linejoin="miter" stroke="rgb(99.215686%, 74.901961%, 43.529412%)" stroke-opacity="1" stroke-miterlimit="10" d="M 744.375 749.453125 C 743.925781 751.300781 745.328125 753.007812 745.328125 754.574219 "/>
<path fill-rule="nonzero" fill="rgb(99.215686%, 74.901961%, 43.529412%)" fill-opacity="1" d="M 745.316406 747.441406 L 747.648438 754.570312 L 743.011719 754.578125 L 745.316406 747.441406 "/>
<path fill="none" stroke-width="2.5" stroke-linecap="butt" stroke-linejoin="miter" stroke="rgb(70.196078%, 70.196078%, 70.196078%)" stroke-opacity="1" stroke-miterlimit="10" d="M 723.503906 678.855469 C 721.820312 680.640625 720.125 683.375 721.300781 685.203125 "/>
<path fill-rule="nonzero" fill="rgb(70.196078%, 70.196078%, 70.196078%)" fill-opacity="1" d="M 725.15625 691.203125 L 719.351562 686.457031 L 723.25 683.949219 L 725.15625 691.203125 "/>
<path fill="none" stroke-width="1.5" stroke-linecap="butt" stroke-linejoin="miter" stroke="rgb(30.196078%, 68.627451%, 29.019608%)" stroke-opacity="1" stroke-miterlimit="10" d="M 736.390625 739.144531 C 734.71875 740.523438 734.757812 742.859375 733.761719 744.457031 "/>
<path fill-rule="nonzero" fill="rgb(30.196078%, 68.627451%, 29.019608%)" fill-opacity="1" d="M 737.53125 738.402344 L 735.730469 745.683594 L 731.796875 743.234375 L 737.53125 738.402344 "/>
<path fill="none" stroke-width="1.5" stroke-linecap="butt" stroke-linejoin="miter" stroke="rgb(99.215686%, 74.901961%, 43.529412%)" stroke-opacity="1" stroke-miterlimit="10" d="M 736.390625 739.144531 C 735.40625 738.628906 733.402344 739.066406 733.347656 738.957031 "/>
<path fill-rule="nonzero" fill="rgb(99.215686%, 74.901961%, 43.529412%)" fill-opacity="1" d="M 736.582031 745.316406 L 731.28125 740.007812 L 735.414062 737.90625 L 736.582031 745.316406 "/>
<path fill="none" stroke-width="1.5" stroke-linecap="butt" stroke-linejoin="miter" stroke="rgb(30.196078%, 68.627451%, 29.019608%)" stroke-opacity="1" stroke-miterlimit="10" d="M 727.746094 695.230469 C 726.257812 696.242188 724.429688 698.238281 725.164062 699.421875 "/>
<path fill-rule="nonzero" fill="rgb(30.196078%, 68.627451%, 29.019608%)" fill-opacity="1" d="M 728.921875 705.484375 L 723.195312 700.644531 L 727.132812 698.199219 L 728.921875 705.484375 "/>
<path fill="none" stroke-width="1.5" stroke-linecap="butt" stroke-linejoin="miter" stroke="rgb(99.215686%, 74.901961%, 43.529412%)" stroke-opacity="1" stroke-miterlimit="10" d="M 727.746094 695.230469 C 726.855469 694.335938 724.847656 694.523438 724.515625 694.003906 "/>
<path fill-rule="nonzero" fill="rgb(99.215686%, 74.901961%, 43.529412%)" fill-opacity="1" d="M 728.363281 700.011719 L 722.566406 695.253906 L 726.46875 692.753906 L 728.363281 700.011719 "/>
<path fill="none" stroke-width="1.5" stroke-linecap="butt" stroke-linejoin="miter" stroke="rgb(12.156863%, 47.058824%, 70.588235%)" stroke-opacity="1" stroke-miterlimit="10" d="M 58.929688 70.417969 C 59.683594 71.710938 61.726562 71.933594 62.257812 72.800781 "/>
<path fill-rule="nonzero" fill="rgb(12.156863%, 47.058824%, 70.588235%)" fill-opacity="1" d="M 58.527344 66.71875 L 64.234375 71.589844 L 60.28125 74.011719 L 58.527344 66.71875 "/>
<path fill="none" stroke-width="2.5" stroke-linecap="butt" stroke-linejoin="miter" stroke="rgb(70.196078%, 70.196078%, 70.196078%)" stroke-opacity="1" stroke-miterlimit="10" d="M 58.929688 70.417969 C 58.863281 72.101562 60.519531 73.417969 60.648438 74.699219 "/>
<path fill-rule="nonzero" fill="rgb(70.196078%, 70.196078%, 70.196078%)" fill-opacity="1" d="M 59.925781 67.601562 L 62.957031 74.460938 L 58.34375 74.933594 L 59.925781 67.601562 "/>
<path fill="none" stroke-width="2.5" stroke-linecap="butt" stroke-linejoin="miter" stroke="rgb(70.196078%, 70.196078%, 70.196078%)" stroke-opacity="1" stroke-miterlimit="10" d="M 731.859375 710.226562 C 729.945312 714.980469 729.238281 720.394531 732.421875 724.238281 "/>
<path fill-rule="nonzero" fill="rgb(70.196078%, 70.196078%, 70.196078%)" fill-opacity="1" d="M 736.96875 729.734375 L 730.636719 725.71875 L 734.207031 722.761719 L 736.96875 729.734375 "/>
<path fill="none" stroke-width="3.5" stroke-linecap="butt" stroke-linejoin="miter" stroke="rgb(70.196078%, 70.196078%, 70.196078%)" stroke-opacity="1" stroke-miterlimit="10" d="M 54.363281 74.847656 C 52.601562 75.980469 52.394531 78.269531 51.246094 79.648438 "/>
<path fill-rule="nonzero" fill="rgb(70.196078%, 70.196078%, 70.196078%)" fill-opacity="1" d="M 55.808594 74.167969 L 53.027344 81.128906 L 49.464844 78.164062 L 55.808594 74.167969 "/>
<path fill="none" stroke-width="1.5" stroke-linecap="butt" stroke-linejoin="miter" stroke="rgb(30.196078%, 68.627451%, 29.019608%)" stroke-opacity="1" stroke-miterlimit="10" d="M 720.691406 669.253906 C 719.871094 668.285156 717.855469 668.304688 717.558594 667.75 "/>
<path fill-rule="nonzero" fill="rgb(30.196078%, 68.627451%, 29.019608%)" fill-opacity="1" d="M 720.925781 674.039062 L 715.515625 668.84375 L 719.601562 666.65625 L 720.925781 674.039062 "/>
<path fill="none" stroke-width="1.5" stroke-linecap="butt" stroke-linejoin="miter" stroke="rgb(12.156863%, 47.058824%, 70.588235%)" stroke-opacity="1" stroke-miterlimit="10" d="M 65.617188 64.015625 C 64.695312 64.640625 64.140625 66.617188 64.019531 66.613281 "/>
<path fill-rule="nonzero" fill="rgb(12.156863%, 47.058824%, 70.588235%)" fill-opacity="1" d="M 71.152344 66.757812 L 63.972656 68.929688 L 64.066406 64.296875 L 71.152344 66.757812 "/>
<path fill="none" stroke-width="2.5" stroke-linecap="butt" stroke-linejoin="miter" stroke="rgb(70.196078%, 70.196078%, 70.196078%)" stroke-opacity="1" stroke-miterlimit="10" d="M 745.308594 742.046875 C 744.386719 740.804688 742.320312 740.816406 741.621094 739.980469 "/>
<path fill-rule="nonzero" fill="rgb(70.196078%, 70.196078%, 70.196078%)" fill-opacity="1" d="M 746.195312 745.453125 L 739.84375 741.46875 L 743.398438 738.492188 L 746.195312 745.453125 "/>
<path fill="none" stroke-width="2.5" stroke-linecap="butt" stroke-linejoin="miter" stroke="rgb(70.196078%, 70.196078%, 70.196078%)" stroke-opacity="1" stroke-miterlimit="10" d="M 740.367188 733.839844 C 741.808594 732.441406 741.546875 730.199219 742.394531 728.734375 "/>
<path fill-rule="nonzero" fill="rgb(70.196078%, 70.196078%, 70.196078%)" fill-opacity="1" d="M 738.832031 734.914062 L 740.386719 727.578125 L 744.402344 729.890625 L 738.832031 734.914062 "/>
<path fill="none" stroke-width="1.5" stroke-linecap="butt" stroke-linejoin="miter" stroke="rgb(30.196078%, 68.627451%, 29.019608%)" stroke-opacity="1" stroke-miterlimit="10" d="M 740.367188 733.839844 C 739.355469 732.941406 737.367188 733.3125 736.839844 732.734375 "/>
<path fill-rule="nonzero" fill="rgb(30.196078%, 68.627451%, 29.019608%)" fill-opacity="1" d="M 741.636719 738.011719 L 735.125 734.292969 L 738.554688 731.175781 L 741.636719 738.011719 "/>
<path fill="none" stroke-width="1.5" stroke-linecap="butt" stroke-linejoin="miter" stroke="rgb(99.215686%, 74.901961%, 43.529412%)" stroke-opacity="1" stroke-miterlimit="10" d="M 729.90625 702.417969 C 729.511719 700.730469 727.550781 699.894531 727.03125 698.648438 "/>
<path fill-rule="nonzero" fill="rgb(99.215686%, 74.901961%, 43.529412%)" fill-opacity="1" d="M 729.777344 705.234375 L 724.894531 699.542969 L 729.171875 697.757812 L 729.777344 705.234375 "/>
<path fill="none" stroke-width="1.5" stroke-linecap="butt" stroke-linejoin="miter" stroke="rgb(99.215686%, 74.901961%, 43.529412%)" stroke-opacity="1" stroke-miterlimit="10" d="M 737.886719 747.882812 C 736.457031 747.953125 735.320312 749.644531 734.402344 749.664062 "/>
<path fill-rule="nonzero" fill="rgb(99.215686%, 74.901961%, 43.529412%)" fill-opacity="1" d="M 741.53125 749.511719 L 734.449219 751.984375 L 734.351562 747.347656 L 741.53125 749.511719 "/>
<path fill="none" stroke-width="2.5" stroke-linecap="butt" stroke-linejoin="miter" stroke="rgb(70.196078%, 70.196078%, 70.196078%)" stroke-opacity="1" stroke-miterlimit="10" d="M 59.425781 62.710938 C 61.570312 65.144531 64.636719 65.335938 67.507812 66.378906 "/>
<path fill-rule="nonzero" fill="rgb(70.196078%, 70.196078%, 70.196078%)" fill-opacity="1" d="M 60.800781 63.941406 L 68.296875 64.199219 L 66.714844 68.554688 L 60.800781 63.941406 "/>
<path fill="none" stroke-width="3.5" stroke-linecap="butt" stroke-linejoin="miter" stroke="rgb(70.196078%, 70.196078%, 70.196078%)" stroke-opacity="1" stroke-miterlimit="10" d="M 50 79.105469 C 48.128906 80.21875 47.808594 82.542969 46.578125 83.984375 "/>
<path fill-rule="nonzero" fill="rgb(70.196078%, 70.196078%, 70.196078%)" fill-opacity="1" d="M 51.203125 78.554688 L 48.34375 85.488281 L 44.816406 82.480469 L 51.203125 78.554688 "/>
<path fill="none" stroke-width="1.5" stroke-linecap="butt" stroke-linejoin="miter" stroke="rgb(30.196078%, 68.627451%, 29.019608%)" stroke-opacity="1" stroke-miterlimit="10" d="M 716.992188 665.914062 C 715.636719 664.609375 713.464844 664.964844 712.144531 664.179688 "/>
<path fill-rule="nonzero" fill="rgb(30.196078%, 68.627451%, 29.019608%)" fill-opacity="1" d="M 718.277344 667.824219 L 710.960938 666.175781 L 713.328125 662.1875 L 718.277344 667.824219 "/>
<path fill="none" stroke-width="1.5" stroke-linecap="butt" stroke-linejoin="miter" stroke="rgb(99.215686%, 74.901961%, 43.529412%)" stroke-opacity="1" stroke-miterlimit="10" d="M 716.992188 665.914062 C 716.25 665.042969 714.230469 664.867188 714.15625 664.578125 "/>
<path fill-rule="nonzero" fill="rgb(99.215686%, 74.901961%, 43.529412%)" fill-opacity="1" d="M 715.894531 671.496094 L 711.910156 665.144531 L 716.40625 664.015625 L 715.894531 671.496094 "/>
<path fill="none" stroke-width="1.5" stroke-linecap="butt" stroke-linejoin="miter" stroke="rgb(99.215686%, 74.901961%, 43.529412%)" stroke-opacity="1" stroke-miterlimit="10" d="M 716.597656 674.28125 C 715.183594 673.398438 713.226562 674.183594 712.078125 673.664062 "/>
<path fill-rule="nonzero" fill="rgb(99.215686%, 74.901961%, 43.529412%)" fill-opacity="1" d="M 718.574219 676.613281 L 711.121094 675.773438 L 713.039062 671.554688 L 718.574219 676.613281 "/>
<path fill-rule="nonzero" fill="rgb(70.196078%, 70.196078%, 70.196078%)" fill-opacity="1" stroke-width="1" stroke-linecap="butt" stroke-linejoin="miter" stroke="rgb(70.196078%, 70.196078%, 70.196078%)" stroke-opacity="1" stroke-miterlimit="10" d="M 60.539062 51.773438 C 60.539062 58.238281 50.839844 58.238281 50.839844 51.773438 C 50.839844 45.304688 60.539062 45.304688 60.539062 51.773438 "/>
<path fill-rule="nonzero" fill="rgb(70.196078%, 70.196078%, 70.196078%)" fill-opacity="1" stroke-width="1" stroke-linecap="butt" stroke-linejoin="miter" stroke="rgb(70.196078%, 70.196078%, 70.196078%)" stroke-opacity="1" stroke-miterlimit="10" d="M 61.039062 62.085938 C 61.039062 69.21875 50.335938 69.21875 50.335938 62.085938 C 50.335938 54.953125 61.039062 54.953125 61.039062 62.085938 "/>
<path fill-rule="nonzero" fill="rgb(70.196078%, 70.196078%, 70.196078%)" fill-opacity="1" stroke-width="1" stroke-linecap="butt" stroke-linejoin="miter" stroke="rgb(70.196078%, 70.196078%, 70.196078%)" stroke-opacity="1" stroke-miterlimit="10" d="M 57.5 50 C 57.5 56.464844 47.800781 56.464844 47.800781 50 C 47.800781 43.535156 57.5 43.535156 57.5 50 "/>
<path fill-rule="nonzero" fill="rgb(12.156863%, 47.058824%, 70.588235%)" fill-opacity="1" stroke-width="1" stroke-linecap="butt" stroke-linejoin="miter" stroke="rgb(12.156863%, 47.058824%, 70.588235%)" stroke-opacity="1" stroke-miterlimit="10" d="M 76.78125 66.816406 C 76.78125 70.480469 71.28125 70.480469 71.28125 66.816406 C 71.28125 63.148438 76.78125 63.148438 76.78125 66.816406 "/>
<path fill-rule="nonzero" fill="rgb(99.215686%, 74.901961%, 43.529412%)" fill-opacity="1" stroke-width="1" stroke-linecap="butt" stroke-linejoin="miter" stroke="rgb(99.215686%, 74.901961%, 43.529412%)" stroke-opacity="1" stroke-miterlimit="10" d="M 747.125 749.453125 C 747.125 753.117188 741.625 753.117188 741.625 749.453125 C 741.625 745.785156 747.125 745.785156 747.125 749.453125 "/>
<path fill-rule="nonzero" fill="rgb(70.196078%, 70.196078%, 70.196078%)" fill-opacity="1" stroke-width="1" stroke-linecap="butt" stroke-linejoin="miter" stroke="rgb(70.196078%, 70.196078%, 70.196078%)" stroke-opacity="1" stroke-miterlimit="10" d="M 728.855469 678.855469 C 728.855469 685.988281 718.15625 685.988281 718.15625 678.855469 C 718.15625 671.722656 728.855469 671.722656 728.855469 678.855469 "/>
<path fill-rule="nonzero" fill="rgb(70.196078%, 70.196078%, 70.196078%)" fill-opacity="1" stroke-width="1" stroke-linecap="butt" stroke-linejoin="miter" stroke="rgb(70.196078%, 70.196078%, 70.196078%)" stroke-opacity="1" stroke-miterlimit="10" d="M 741.242188 739.144531 C 741.242188 745.613281 731.539062 745.613281 731.539062 739.144531 C 731.539062 732.679688 741.242188 732.679688 741.242188 739.144531 "/>
<path fill-rule="nonzero" fill="rgb(70.196078%, 70.196078%, 70.196078%)" fill-opacity="1" stroke-width="1" stroke-linecap="butt" stroke-linejoin="miter" stroke="rgb(70.196078%, 70.196078%, 70.196078%)" stroke-opacity="1" stroke-miterlimit="10" d="M 732.597656 695.230469 C 732.597656 701.699219 722.894531 701.699219 722.894531 695.230469 C 722.894531 688.765625 732.597656 688.765625 732.597656 695.230469 "/>
<path fill-rule="nonzero" fill="rgb(70.196078%, 70.196078%, 70.196078%)" fill-opacity="1" stroke-width="1" stroke-linecap="butt" stroke-linejoin="miter" stroke="rgb(70.196078%, 70.196078%, 70.196078%)" stroke-opacity="1" stroke-miterlimit="10" d="M 63.78125 70.417969 C 63.78125 76.882812 54.082031 76.882812 54.082031 70.417969 C 54.082031 63.953125 63.78125 63.953125 63.78125 70.417969 "/>
<path fill-rule="nonzero" fill="rgb(70.196078%, 70.196078%, 70.196078%)" fill-opacity="1" stroke-width="1" stroke-linecap="butt" stroke-linejoin="miter" stroke="rgb(70.196078%, 70.196078%, 70.196078%)" stroke-opacity="1" stroke-miterlimit="10" d="M 737.210938 710.226562 C 737.210938 717.359375 726.511719 717.359375 726.511719 710.226562 C 726.511719 703.09375 737.210938 703.09375 737.210938 710.226562 "/>
<path fill-rule="nonzero" fill="rgb(70.196078%, 70.196078%, 70.196078%)" fill-opacity="1" stroke-width="1" stroke-linecap="butt" stroke-linejoin="miter" stroke="rgb(70.196078%, 70.196078%, 70.196078%)" stroke-opacity="1" stroke-miterlimit="10" d="M 59.214844 74.847656 C 59.214844 81.3125 49.511719 81.3125 49.511719 74.847656 C 49.511719 68.378906 59.214844 68.378906 59.214844 74.847656 "/>
<path fill-rule="nonzero" fill="rgb(30.196078%, 68.627451%, 29.019608%)" fill-opacity="1" stroke-width="1" stroke-linecap="butt" stroke-linejoin="miter" stroke="rgb(30.196078%, 68.627451%, 29.019608%)" stroke-opacity="1" stroke-miterlimit="10" d="M 723.441406 669.253906 C 723.441406 672.921875 717.941406 672.921875 717.941406 669.253906 C 717.941406 665.589844 723.441406 665.589844 723.441406 669.253906 "/>
<path fill-rule="nonzero" fill="rgb(14.901961%, 14.901961%, 14.901961%)" fill-opacity="1" stroke-width="1" stroke-linecap="butt" stroke-linejoin="miter" stroke="rgb(14.901961%, 14.901961%, 14.901961%)" stroke-opacity="1" stroke-miterlimit="10" d="M 77.953125 73.902344 L 81.703125 66.402344 L 85.453125 73.902344 Z M 77.953125 73.902344 "/>
<path fill-rule="nonzero" fill="rgb(12.156863%, 47.058824%, 70.588235%)" fill-opacity="1" stroke-width="1" stroke-linecap="butt" stroke-linejoin="miter" stroke="rgb(12.156863%, 47.058824%, 70.588235%)" stroke-opacity="1" stroke-miterlimit="10" d="M 68.367188 64.015625 C 68.367188 67.683594 62.867188 67.683594 62.867188 64.015625 C 62.867188 60.351562 68.367188 60.351562 68.367188 64.015625 "/>
<path fill-rule="nonzero" fill="rgb(14.901961%, 14.901961%, 14.901961%)" fill-opacity="1" stroke-width="1" stroke-linecap="butt" stroke-linejoin="miter" stroke="rgb(14.901961%, 14.901961%, 14.901961%)" stroke-opacity="1" stroke-miterlimit="10" d="M 744.148438 755.851562 L 750 744.148438 L 755.851562 755.851562 Z M 744.148438 755.851562 "/>
<path fill-rule="nonzero" fill="rgb(70.196078%, 70.196078%, 70.196078%)" fill-opacity="1" stroke-width="1" stroke-linecap="butt" stroke-linejoin="miter" stroke="rgb(70.196078%, 70.196078%, 70.196078%)" stroke-opacity="1" stroke-miterlimit="10" d="M 750.65625 742.046875 C 750.65625 749.179688 739.957031 749.179688 739.957031 742.046875 C 739.957031 734.914062 750.65625 734.914062 750.65625 742.046875 "/>
<path fill-rule="nonzero" fill="rgb(14.901961%, 14.901961%, 14.901961%)" fill-opacity="1" stroke-width="1" stroke-linecap="butt" stroke-linejoin="miter" stroke="rgb(14.901961%, 14.901961%, 14.901961%)" stroke-opacity="1" stroke-miterlimit="10" d="M 55.878906 56.257812 L 61.726562 44.558594 L 67.578125 56.257812 Z M 55.878906 56.257812 "/>
<path fill-rule="nonzero" fill="rgb(70.196078%, 70.196078%, 70.196078%)" fill-opacity="1" stroke-width="1" stroke-linecap="butt" stroke-linejoin="miter" stroke="rgb(70.196078%, 70.196078%, 70.196078%)" stroke-opacity="1" stroke-miterlimit="10" d="M 745.71875 733.839844 C 745.71875 740.972656 735.015625 740.972656 735.015625 733.839844 C 735.015625 726.707031 745.71875 726.707031 745.71875 733.839844 "/>
<path fill-rule="nonzero" fill="rgb(99.215686%, 74.901961%, 43.529412%)" fill-opacity="1" stroke-width="1" stroke-linecap="butt" stroke-linejoin="miter" stroke="rgb(99.215686%, 74.901961%, 43.529412%)" stroke-opacity="1" stroke-miterlimit="10" d="M 732.65625 702.417969 C 732.65625 706.085938 727.15625 706.085938 727.15625 702.417969 C 727.15625 698.753906 732.65625 698.753906 732.65625 702.417969 "/>
<path fill-rule="nonzero" fill="rgb(99.215686%, 74.901961%, 43.529412%)" fill-opacity="1" stroke-width="1" stroke-linecap="butt" stroke-linejoin="miter" stroke="rgb(99.215686%, 74.901961%, 43.529412%)" stroke-opacity="1" stroke-miterlimit="10" d="M 740.636719 747.882812 C 740.636719 751.550781 735.136719 751.550781 735.136719 747.882812 C 735.136719 744.214844 740.636719 744.214844 740.636719 747.882812 "/>
<path fill-rule="nonzero" fill="rgb(70.196078%, 70.196078%, 70.196078%)" fill-opacity="1" stroke-width="1" stroke-linecap="butt" stroke-linejoin="miter" stroke="rgb(70.196078%, 70.196078%, 70.196078%)" stroke-opacity="1" stroke-miterlimit="10" d="M 64.277344 62.710938 C 64.277344 69.175781 54.578125 69.175781 54.578125 62.710938 C 54.578125 56.242188 64.277344 56.242188 64.277344 62.710938 "/>
<path fill-rule="nonzero" fill="rgb(100%, 84.313725%, 0%)" fill-opacity="1" stroke-width="1" stroke-linecap="butt" stroke-linejoin="miter" stroke="rgb(100%, 84.313725%, 0%)" stroke-opacity="1" stroke-miterlimit="10" d="M 44.648438 73.757812 L 55.347656 73.757812 L 55.347656 84.457031 L 44.648438 84.457031 Z M 44.648438 73.757812 "/>
<path fill-rule="nonzero" fill="rgb(100%, 84.313725%, 0%)" fill-opacity="1" stroke-width="1" stroke-linecap="butt" stroke-linejoin="miter" stroke="rgb(100%, 84.313725%, 0%)" stroke-opacity="1" stroke-miterlimit="10" d="M 711.644531 660.566406 L 722.34375 660.566406 L 722.34375 671.265625 L 711.644531 671.265625 Z M 711.644531 660.566406 "/>
<path fill-rule="nonzero" fill="rgb(99.215686%, 74.901961%, 43.529412%)" fill-opacity="1" stroke-width="1" stroke-linecap="butt" stroke-linejoin="miter" stroke="rgb(99.215686%, 74.901961%, 43.529412%)" stroke-opacity="1" stroke-miterlimit="10" d="M 719.347656 674.28125 C 719.347656 677.949219 713.847656 677.949219 713.847656 674.28125 C 713.847656 670.617188 719.347656 670.617188 719.347656 674.28125 "/>
</svg>
