<?xml version="1.0" encoding="UTF-8"?>
<svg xmlns="http://www.w3.org/2000/svg" xmlns:xlink="http://www.w3.org/1999/xlink" width="800" height="800" viewBox="0 0 800 800">
<rect x="-80" y="-80" width="960" height="960" fill="rgb(100%, 100%, 100%)" fill-opacity="1"/>
<path fill="none" stroke-width="6.5" stroke-linecap="butt" stroke-linejoin="miter" stroke="rgb(41.568627%, 23.921569%, 60.392157%)" stroke-opacity="1" stroke-miterlimit="10" d="M 632.878906 638.820312 C 624.136719 654.597656 621.734375 671.429688 628.78125 687.996094 "/>
<path fill-rule="nonzero" fill="rgb(41.568627%, 23.921569%, 60.392157%)" fill-opacity="1" d="M 631.574219 694.558594 L 626.648438 688.902344 L 630.914062 687.085938 L 631.574219 694.558594 "/>
<path fill="none" stroke-width="2.5" stroke-linecap="butt" stroke-linejoin="miter" stroke="rgb(70.196078%, 70.196078%, 70.196078%)" stroke-opacity="1" stroke-miterlimit="10" d="M 632.878906 638.820312 C 627.347656 650.042969 625.949219 661.960938 631.675781 673.023438 "/>
<path fill-rule="nonzero" fill="rgb(70.196078%, 70.196078%, 70.196078%)" fill-opacity="1" d="M 634.957031 679.359375 L 629.621094 674.089844 L 633.734375 671.957031 L 634.957031 679.359375 "/>
<path fill="none" stroke-width="5.5" stroke-linecap="butt" stroke-linejoin="miter" stroke="rgb(41.568627%, 23.921569%, 60.392157%)" stroke-opacity="1" stroke-miterlimit="10" d="M 632.507812 696.753906 C 641.25 680.976562 643.652344 664.144531 636.605469 647.578125 "/>
<path fill-rule="nonzero" fill="rgb(41.568627%, 23.921569%, 60.392157%)" fill-opacity="1" d="M 633.8125 641.015625 L 638.738281 646.671875 L 634.472656 648.488281 L 633.8125 641.015625 "/>
<path fill="none" stroke-width="2.5" stroke-linecap="butt" stroke-linejoin="miter" stroke="rgb(98.431373%, 60.392157%, 60%)" stroke-opacity="1" stroke-miterlimit="10" d="M 632.507812 696.753906 C 628.78125 705.652344 628.066406 715.046875 633.203125 723.140625 "/>
<path fill-rule="nonzero" fill="rgb(98.431373%, 60.392157%, 60%)" fill-opacity="1" d="M 637.023438 729.164062 L 631.246094 724.382812 L 635.160156 721.898438 L 637.023438 729.164062 "/>
<path fill="none" stroke-width="2.5" stroke-linecap="butt" stroke-linejoin="miter" stroke="rgb(41.568627%, 23.921569%, 60.392157%)" stroke-opacity="1" stroke-miterlimit="10" d="M 632.507812 696.753906 C 631.949219 701.976562 632.792969 707.449219 636.984375 710.414062 "/>
<path fill-rule="nonzero" fill="rgb(41.568627%, 23.921569%, 60.392157%)" fill-opacity="1" d="M 642.808594 714.53125 L 635.648438 712.304688 L 638.324219 708.519531 L 642.808594 714.53125 "/>
<path fill="none" stroke-width="1.5" stroke-linecap="butt" stroke-linejoin="miter" stroke="rgb(98.431373%, 60.392157%, 60%)" stroke-opacity="1" stroke-miterlimit="10" d="M 632.507812 696.753906 C 634.5625 709.160156 640.417969 719.675781 651.5625 725.398438 "/>
<path fill-rule="nonzero" fill="rgb(98.431373%, 60.392157%, 60%)" fill-opacity="1" d="M 657.910156 728.65625 L 650.503906 727.460938 L 652.621094 723.335938 L 657.910156 728.65625 "/>
<path fill="none" stroke-width="1.5" stroke-linecap="butt" stroke-linejoin="miter" stroke="rgb(98.431373%, 60.392157%, 60%)" stroke-opacity="1" stroke-miterlimit="10" d="M 632.507812 696.753906 C 630.894531 699.632812 629.78125 703.304688 631.71875 705.746094 "/>
<path fill-rule="nonzero" fill="rgb(98.431373%, 60.392157%, 60%)" fill-opacity="1" d="M 636.152344 711.332031 L 629.902344 707.1875 L 633.53125 704.304688 L 636.152344 711.332031 "/>
<path fill="none" stroke-width="2.5" stroke-linecap="butt" stroke-linejoin="miter" stroke="rgb(98.431373%, 60.392157%, 60%)" stroke-opacity="1" stroke-miterlimit="10" d="M 638.171875 730.96875 C 641.902344 722.214844 642.6875 712.941406 637.65625 704.941406 "/>
<path fill-rule="nonzero" fill="rgb(98.431373%, 60.392157%, 60%)" fill-opacity="1" d="M 633.859375 698.902344 L 639.617188 703.707031 L 635.695312 706.175781 L 633.859375 698.902344 "/>
<path fill="none" stroke-width="1.5" stroke-linecap="butt" stroke-linejoin="miter" stroke="rgb(12.156863%, 47.058824%, 70.588235%)" stroke-opacity="1" stroke-miterlimit="10" d="M 717.148438 287.585938 C 705.453125 297.863281 698.449219 310.863281 699.503906 326.355469 "/>
<path fill-rule="nonzero" fill="rgb(12.156863%, 47.058824%, 70.588235%)" fill-opacity="1" d="M 699.992188 333.472656 L 697.191406 326.511719 L 701.816406 326.199219 L 699.992188 333.472656 "/>
<path fill="none" stroke-width="1.5" stroke-linecap="butt" stroke-linejoin="miter" stroke="rgb(12.156863%, 47.058824%, 70.588235%)" stroke-opacity="1" stroke-miterlimit="10" d="M 724.199219 259.691406 C 725.734375 261.589844 728.175781 263.605469 730.164062 262.710938 "/>
<path fill-rule="nonzero" fill="rgb(12.156863%, 47.058824%, 70.588235%)" fill-opacity="1" d="M 736.664062 259.777344 L 731.117188 264.824219 L 729.207031 260.597656 L 736.664062 259.777344 "/>
<path fill="none" stroke-width="1.5" stroke-linecap="butt" stroke-linejoin="miter" stroke="rgb(12.156863%, 47.058824%, 70.588235%)" stroke-opacity="1" stroke-miterlimit="10" d="M 700.152344 335.847656 C 706.730469 335.550781 713.046875 333.378906 716.226562 327.71875 "/>
<path fill-rule="nonzero" fill="rgb(12.156863%, 47.058824%, 70.588235%)" fill-opacity="1" d="M 719.722656 321.503906 L 718.246094 328.855469 L 714.207031 326.582031 L 719.722656 321.503906 "/>
<path fill="none" stroke-width="2.5" stroke-linecap="butt" stroke-linejoin="miter" stroke="rgb(12.156863%, 47.058824%, 70.588235%)" stroke-opacity="1" stroke-miterlimit="10" d="M 700.152344 335.847656 C 715.527344 325.117188 725.386719 310.5 726.464844 291.8125 "/>
<path fill-rule="nonzero" fill="rgb(12.156863%, 47.058824%, 70.588235%)" fill-opacity="1" d="M 726.875 284.691406 L 728.777344 291.945312 L 724.152344 291.679688 L 726.875 284.691406 "/>
<path fill="none" stroke-width="5.5" stroke-linecap="butt" stroke-linejoin="miter" stroke="rgb(70.196078%, 70.196078%, 70.196078%)" stroke-opacity="1" stroke-miterlimit="10" d="M 342.171875 259.539062 C 358.816406 291.132812 384.246094 312.28125 419.164062 319.671875 "/>
<path fill-rule="nonzero" fill="rgb(70.196078%, 70.196078%, 70.196078%)" fill-opacity="1" d="M 426.140625 321.148438 L 418.683594 321.941406 L 419.644531 317.40625 L 426.140625 321.148438 "/>
<path fill="none" stroke-width="5.5" stroke-linecap="butt" stroke-linejoin="miter" stroke="rgb(70.196078%, 70.196078%, 70.196078%)" stroke-opacity="1" stroke-miterlimit="10" d="M 259.054688 199.960938 C 275.011719 230.234375 299.378906 250.546875 332.851562 257.582031 "/>
<path fill-rule="nonzero" fill="rgb(70.196078%, 70.196078%, 70.196078%)" fill-opacity="1" d="M 339.832031 259.046875 L 332.375 259.847656 L 333.328125 255.3125 L 339.832031 259.046875 "/>
<path fill="none" stroke-width="5.5" stroke-linecap="butt" stroke-linejoin="miter" stroke="rgb(70.196078%, 70.196078%, 70.196078%)" stroke-opacity="1" stroke-miterlimit="10" d="M 189.058594 145.441406 C 201.484375 171.949219 221.464844 190.4375 249.824219 197.621094 "/>
<path fill-rule="nonzero" fill="rgb(70.196078%, 70.196078%, 70.196078%)" fill-opacity="1" d="M 256.742188 199.371094 L 249.257812 199.867188 L 250.394531 195.375 L 256.742188 199.371094 "/>
<path fill="none" stroke-width="1.5" stroke-linecap="butt" stroke-linejoin="miter" stroke="rgb(12.156863%, 47.058824%, 70.588235%)" stroke-opacity="1" stroke-miterlimit="10" d="M 733.660156 300.441406 C 727.9375 302.609375 722.910156 306.359375 721.816406 312.277344 "/>
<path fill-rule="nonzero" fill="rgb(12.156863%, 47.058824%, 70.588235%)" fill-opacity="1" d="M 720.523438 319.292969 L 719.539062 311.859375 L 724.097656 312.699219 L 720.523438 319.292969 "/>
<path fill="none" stroke-width="2.5" stroke-linecap="butt" stroke-linejoin="miter" stroke="rgb(12.156863%, 47.058824%, 70.588235%)" stroke-opacity="1" stroke-miterlimit="10" d="M 720.308594 320.464844 C 714.164062 320.527344 708.105469 322.304688 705.046875 327.515625 "/>
<path fill-rule="nonzero" fill="rgb(12.156863%, 47.058824%, 70.588235%)" fill-opacity="1" d="M 701.433594 333.664062 L 703.050781 326.339844 L 707.046875 328.6875 L 701.433594 333.664062 "/>
<path fill="none" stroke-width="4.5" stroke-linecap="butt" stroke-linejoin="miter" stroke="rgb(70.196078%, 70.196078%, 70.196078%)" stroke-opacity="1" stroke-miterlimit="10" d="M 620.449219 463.664062 C 598.085938 520.441406 599.742188 576.554688 628.402344 630.410156 "/>
<path fill-rule="nonzero" fill="rgb(70.196078%, 70.196078%, 70.196078%)" fill-opacity="1" d="M 631.753906 636.707031 L 626.359375 631.5 L 630.449219 629.324219 L 631.753906 636.707031 "/>
<path fill="none" stroke-width="1.5" stroke-linecap="butt" stroke-linejoin="miter" stroke="rgb(12.156863%, 47.058824%, 70.588235%)" stroke-opacity="1" stroke-miterlimit="10" d="M 620.449219 463.664062 C 664.328125 435.957031 691.570312 396.65625 698.820312 345.28125 "/>
<path fill-rule="nonzero" fill="rgb(12.156863%, 47.058824%, 70.588235%)" fill-opacity="1" d="M 699.816406 338.21875 L 701.117188 345.605469 L 696.527344 344.957031 L 699.816406 338.21875 "/>
<path fill="none" stroke-width="5.5" stroke-linecap="butt" stroke-linejoin="miter" stroke="rgb(70.196078%, 70.196078%, 70.196078%)" stroke-opacity="1" stroke-miterlimit="10" d="M 428.480469 321.644531 C 447.476562 355.339844 475.679688 377.359375 513.699219 384.378906 "/>
<path fill-rule="nonzero" fill="rgb(70.196078%, 70.196078%, 70.196078%)" fill-opacity="1" d="M 520.714844 385.671875 L 513.28125 386.65625 L 514.121094 382.097656 L 520.714844 385.671875 "/>
<path fill="none" stroke-width="5.5" stroke-linecap="butt" stroke-linejoin="miter" stroke="rgb(70.196078%, 70.196078%, 70.196078%)" stroke-opacity="1" stroke-miterlimit="10" d="M 523.066406 386.105469 C 541.183594 424.378906 570.285156 450.519531 611.234375 461.25 "/>
<path fill-rule="nonzero" fill="rgb(70.196078%, 70.196078%, 70.196078%)" fill-opacity="1" d="M 618.132812 463.058594 L 610.644531 463.492188 L 611.820312 459.007812 L 618.132812 463.058594 "/>
<path fill="none" stroke-width="1.5" stroke-linecap="butt" stroke-linejoin="miter" stroke="rgb(41.568627%, 23.921569%, 60.392157%)" stroke-opacity="1" stroke-miterlimit="10" d="M 644.871094 715.992188 C 652.949219 691.914062 651.605469 668.261719 637.988281 646.855469 "/>
<path fill-rule="nonzero" fill="rgb(41.568627%, 23.921569%, 60.392157%)" fill-opacity="1" d="M 634.160156 640.835938 L 639.945312 645.613281 L 636.035156 648.097656 L 634.160156 640.835938 "/>
<path fill="none" stroke-width="1.5" stroke-linecap="butt" stroke-linejoin="miter" stroke="rgb(41.568627%, 23.921569%, 60.392157%)" stroke-opacity="1" stroke-miterlimit="10" d="M 644.871094 715.992188 C 645.429688 710.765625 644.582031 705.296875 640.390625 702.332031 "/>
<path fill-rule="nonzero" fill="rgb(41.568627%, 23.921569%, 60.392157%)" fill-opacity="1" d="M 634.570312 698.210938 L 641.730469 700.4375 L 639.054688 704.222656 L 634.570312 698.210938 "/>
<path fill="none" stroke-width="1.5" stroke-linecap="butt" stroke-linejoin="miter" stroke="rgb(98.431373%, 60.392157%, 60%)" stroke-opacity="1" stroke-miterlimit="10" d="M 644.871094 715.992188 C 637.523438 723.210938 633.042969 732.132812 634.644531 742.246094 "/>
<path fill-rule="nonzero" fill="rgb(98.431373%, 60.392157%, 60%)" fill-opacity="1" d="M 635.761719 749.292969 L 632.355469 742.609375 L 636.933594 741.882812 L 635.761719 749.292969 "/>
<path fill="none" stroke-width="1.5" stroke-linecap="butt" stroke-linejoin="miter" stroke="rgb(98.431373%, 60.392157%, 60%)" stroke-opacity="1" stroke-miterlimit="10" d="M 658.546875 728.984375 C 656.832031 717.082031 651.480469 706.832031 640.90625 701.214844 "/>
<path fill-rule="nonzero" fill="rgb(98.431373%, 60.392157%, 60%)" fill-opacity="1" d="M 634.605469 697.867188 L 641.992188 699.167969 L 639.816406 703.261719 L 634.605469 697.867188 "/>
<path fill="none" stroke-width="1.5" stroke-linecap="butt" stroke-linejoin="miter" stroke="rgb(98.431373%, 60.392157%, 60%)" stroke-opacity="1" stroke-miterlimit="10" d="M 635.875 750 C 638.9375 747.394531 641.59375 743.789062 640.597656 740.054688 "/>
<path fill-rule="nonzero" fill="rgb(98.431373%, 60.392157%, 60%)" fill-opacity="1" d="M 638.757812 733.164062 L 642.835938 739.457031 L 638.355469 740.652344 L 638.757812 733.164062 "/>
<path fill="none" stroke-width="1.5" stroke-linecap="butt" stroke-linejoin="miter" stroke="rgb(98.431373%, 60.392157%, 60%)" stroke-opacity="1" stroke-miterlimit="10" d="M 636.597656 711.890625 C 635.761719 712.636719 635.199219 714.667969 635.355469 714.6875 "/>
<path fill-rule="nonzero" fill="rgb(98.431373%, 60.392157%, 60%)" fill-opacity="1" d="M 642.421875 715.65625 L 635.042969 716.984375 L 635.671875 712.394531 L 642.421875 715.65625 "/>
<path fill="none" stroke-width="5.5" stroke-linecap="butt" stroke-linejoin="miter" stroke="rgb(70.196078%, 70.196078%, 70.196078%)" stroke-opacity="1" stroke-miterlimit="10" d="M 121.019531 91.808594 C 132.941406 117.710938 152.265625 135.882812 179.839844 143.046875 "/>
<path fill-rule="nonzero" fill="rgb(70.196078%, 70.196078%, 70.196078%)" fill-opacity="1" d="M 186.746094 144.839844 L 179.257812 145.289062 L 180.425781 140.800781 L 186.746094 144.839844 "/>
<path fill="none" stroke-width="1.5" stroke-linecap="butt" stroke-linejoin="miter" stroke="rgb(41.568627%, 23.921569%, 60.392157%)" stroke-opacity="1" stroke-miterlimit="10" d="M 636.050781 681.46875 C 641.582031 670.25 642.980469 658.332031 637.253906 647.269531 "/>
<path fill-rule="nonzero" fill="rgb(41.568627%, 23.921569%, 60.392157%)" fill-opacity="1" d="M 633.972656 640.933594 L 639.3125 646.203125 L 635.195312 648.335938 L 633.972656 640.933594 "/>
<path fill="none" stroke-width="1.5" stroke-linecap="butt" stroke-linejoin="miter" stroke="rgb(98.431373%, 60.392157%, 60%)" stroke-opacity="1" stroke-miterlimit="10" d="M 636.050781 681.46875 C 633.570312 682.648438 630.839844 684.714844 631.183594 687.199219 "/>
<path fill-rule="nonzero" fill="rgb(98.431373%, 60.392157%, 60%)" fill-opacity="1" d="M 632.160156 694.265625 L 628.886719 687.519531 L 633.480469 686.882812 L 632.160156 694.265625 "/>
<path fill="none" stroke-width="1.5" stroke-linecap="butt" stroke-linejoin="miter" stroke="rgb(12.156863%, 47.058824%, 70.588235%)" stroke-opacity="1" stroke-miterlimit="10" d="M 743.425781 282.863281 C 738.957031 284.765625 734.871094 287.917969 734.417969 292.628906 "/>
<path fill-rule="nonzero" fill="rgb(12.156863%, 47.058824%, 70.588235%)" fill-opacity="1" d="M 733.730469 299.726562 L 732.109375 292.40625 L 736.722656 292.851562 L 733.730469 299.726562 "/>
<path fill="none" stroke-width="1.5" stroke-linecap="butt" stroke-linejoin="miter" stroke="rgb(12.156863%, 47.058824%, 70.588235%)" stroke-opacity="1" stroke-miterlimit="10" d="M 743.425781 282.863281 C 745.886719 277.351562 746.78125 271.210938 743.382812 266.351562 "/>
<path fill-rule="nonzero" fill="rgb(12.156863%, 47.058824%, 70.588235%)" fill-opacity="1" d="M 739.292969 260.507812 L 745.28125 265.023438 L 741.484375 267.679688 L 739.292969 260.507812 "/>
<path fill="none" stroke-width="1.5" stroke-linecap="butt" stroke-linejoin="miter" stroke="rgb(12.156863%, 47.058824%, 70.588235%)" stroke-opacity="1" stroke-miterlimit="10" d="M 726.917969 283.972656 C 729.945312 278.324219 731.289062 271.953125 728.128906 266.484375 "/>
<path fill-rule="nonzero" fill="rgb(12.156863%, 47.058824%, 70.588235%)" fill-opacity="1" d="M 724.558594 260.3125 L 730.136719 265.324219 L 726.121094 267.644531 L 724.558594 260.3125 "/>
<path fill="none" stroke-width="1.5" stroke-linecap="butt" stroke-linejoin="miter" stroke="rgb(12.156863%, 47.058824%, 70.588235%)" stroke-opacity="1" stroke-miterlimit="10" d="M 726.917969 283.972656 C 729.519531 286.203125 733.003906 288.066406 735.910156 286.617188 "/>
<path fill-rule="nonzero" fill="rgb(12.156863%, 47.058824%, 70.588235%)" fill-opacity="1" d="M 742.289062 283.429688 L 736.945312 288.691406 L 734.871094 284.542969 L 742.289062 283.429688 "/>
<path fill="none" stroke-width="1.5" stroke-linecap="butt" stroke-linejoin="miter" stroke="rgb(12.156863%, 47.058824%, 70.588235%)" stroke-opacity="1" stroke-miterlimit="10" d="M 750 255.707031 C 748.757812 254.335938 746.542969 252.777344 745.359375 253.675781 "/>
<path fill-rule="nonzero" fill="rgb(12.156863%, 47.058824%, 70.588235%)" fill-opacity="1" d="M 739.675781 257.984375 L 743.957031 251.828125 L 746.757812 255.519531 L 739.675781 257.984375 "/>
<path fill="none" stroke-width="1.5" stroke-linecap="butt" stroke-linejoin="miter" stroke="rgb(12.156863%, 47.058824%, 70.588235%)" stroke-opacity="1" stroke-miterlimit="10" d="M 738.273438 259.050781 C 728.675781 263.097656 721.148438 269.820312 718.871094 279.929688 "/>
<path fill-rule="nonzero" fill="rgb(12.156863%, 47.058824%, 70.588235%)" fill-opacity="1" d="M 717.308594 286.886719 L 716.613281 279.421875 L 721.132812 280.4375 L 717.308594 286.886719 "/>
<path fill="none" stroke-width="1.5" stroke-linecap="butt" stroke-linejoin="miter" stroke="rgb(12.156863%, 47.058824%, 70.588235%)" stroke-opacity="1" stroke-miterlimit="10" d="M 738.273438 259.050781 C 735.824219 264.777344 735.039062 271.089844 738.597656 276.082031 "/>
<path fill-rule="nonzero" fill="rgb(12.156863%, 47.058824%, 70.588235%)" fill-opacity="1" d="M 742.734375 281.890625 L 736.707031 277.429688 L 740.484375 274.738281 L 742.734375 281.890625 "/>
<path fill="none" stroke-width="1.5" stroke-linecap="butt" stroke-linejoin="miter" stroke="rgb(12.156863%, 47.058824%, 70.588235%)" stroke-opacity="1" stroke-miterlimit="10" d="M 738.273438 259.050781 C 739.910156 260.425781 742.46875 261.800781 743.898438 260.640625 "/>
<path fill-rule="nonzero" fill="rgb(12.156863%, 47.058824%, 70.588235%)" fill-opacity="1" d="M 749.445312 256.15625 L 745.355469 262.445312 L 742.441406 258.839844 L 749.445312 256.15625 "/>
<path fill="none" stroke-width="5.5" stroke-linecap="butt" stroke-linejoin="miter" stroke="rgb(70.196078%, 70.196078%, 70.196078%)" stroke-opacity="1" stroke-miterlimit="10" d="M 76.445312 68.183594 C 84.714844 81.066406 96.320312 89.808594 111.539062 91.039062 "/>
<path fill-rule="nonzero" fill="rgb(70.196078%, 70.196078%, 70.196078%)" fill-opacity="1" d="M 118.648438 91.617188 L 111.351562 93.351562 L 111.726562 88.730469 L 118.648438 91.617188 "/>
<path fill="none" stroke-width="5.5" stroke-linecap="butt" stroke-linejoin="miter" stroke="rgb(70.196078%, 70.196078%, 70.196078%)" stroke-opacity="1" stroke-miterlimit="10" d="M 50 50 C 53.230469 57.945312 58.660156 64.445312 66.980469 66.191406 "/>
<path fill-rule="nonzero" fill="rgb(70.196078%, 70.196078%, 70.196078%)" fill-opacity="1" d="M 73.960938 67.660156 L 66.503906 68.460938 L 67.457031 63.925781 L 73.960938 67.660156 "/>
<path fill-rule="nonzero" fill="rgb(14.901961%, 14.901961%, 14.901961%)" fill-opacity="1" stroke-width="1" stroke-linecap="butt" stroke-linejoin="miter" stroke="rgb(14.901961%, 14.901961%, 14.901961%)" stroke-opacity="1" stroke-miterlimit="10" d="M 630.378906 641.320312 L 632.878906 636.320312 L 635.378906 641.320312 Z M 630.378906 641.320312 "/>
<path fill-rule="nonzero" fill="rgb(70.196078%, 70.196078%, 70.196078%)" fill-opacity="1" stroke-width="1" stroke-linecap="butt" stroke-linejoin="miter" stroke="rgb(70.196078%, 70.196078%, 70.196078%)" stroke-opacity="1" stroke-miterlimit="10" d="M 635.007812 696.753906 C 635.007812 700.085938 630.007812 700.085938 630.007812 696.753906 C 630.007812 693.417969 635.007812 693.417969 635.007812 696.753906 "/>
<path fill-rule="nonzero" fill="rgb(14.901961%, 14.901961%, 14.901961%)" fill-opacity="1" stroke-width="1" stroke-linecap="butt" stroke-linejoin="miter" stroke="rgb(14.901961%, 14.901961%, 14.901961%)" stroke-opacity="1" stroke-miterlimit="10" d="M 635.921875 733.21875 L 638.171875 728.71875 L 640.421875 733.21875 Z M 635.921875 733.21875 "/>
<path fill-rule="nonzero" fill="rgb(12.156863%, 47.058824%, 70.588235%)" fill-opacity="1" stroke-width="1" stroke-linecap="butt" stroke-linejoin="miter" stroke="rgb(12.156863%, 47.058824%, 70.588235%)" stroke-opacity="1" stroke-miterlimit="10" d="M 717.898438 287.585938 C 717.898438 288.585938 716.398438 288.585938 716.398438 287.585938 C 716.398438 286.585938 717.898438 286.585938 717.898438 287.585938 "/>
<path fill-rule="nonzero" fill="rgb(12.156863%, 47.058824%, 70.588235%)" fill-opacity="1" stroke-width="1" stroke-linecap="butt" stroke-linejoin="miter" stroke="rgb(12.156863%, 47.058824%, 70.588235%)" stroke-opacity="1" stroke-miterlimit="10" d="M 724.949219 259.691406 C 724.949219 260.691406 723.449219 260.691406 723.449219 259.691406 C 723.449219 258.691406 724.949219 258.691406 724.949219 259.691406 "/>
<path fill-rule="nonzero" fill="rgb(14.901961%, 14.901961%, 14.901961%)" fill-opacity="1" stroke-width="1" stroke-linecap="butt" stroke-linejoin="miter" stroke="rgb(14.901961%, 14.901961%, 14.901961%)" stroke-opacity="1" stroke-miterlimit="10" d="M 697.652344 338.347656 L 700.152344 333.347656 L 702.652344 338.347656 Z M 697.652344 338.347656 "/>
<path fill-rule="nonzero" fill="rgb(70.196078%, 70.196078%, 70.196078%)" fill-opacity="1" stroke-width="1" stroke-linecap="butt" stroke-linejoin="miter" stroke="rgb(70.196078%, 70.196078%, 70.196078%)" stroke-opacity="1" stroke-miterlimit="10" d="M 344.671875 259.539062 C 344.671875 262.871094 339.671875 262.871094 339.671875 259.539062 C 339.671875 256.207031 344.671875 256.207031 344.671875 259.539062 "/>
<path fill-rule="nonzero" fill="rgb(70.196078%, 70.196078%, 70.196078%)" fill-opacity="1" stroke-width="1" stroke-linecap="butt" stroke-linejoin="miter" stroke="rgb(70.196078%, 70.196078%, 70.196078%)" stroke-opacity="1" stroke-miterlimit="10" d="M 261.554688 199.960938 C 261.554688 203.292969 256.554688 203.292969 256.554688 199.960938 C 256.554688 196.625 261.554688 196.625 261.554688 199.960938 "/>
<path fill-rule="nonzero" fill="rgb(70.196078%, 70.196078%, 70.196078%)" fill-opacity="1" stroke-width="1" stroke-linecap="butt" stroke-linejoin="miter" stroke="rgb(70.196078%, 70.196078%, 70.196078%)" stroke-opacity="1" stroke-miterlimit="10" d="M 191.558594 145.441406 C 191.558594 148.773438 186.558594 148.773438 186.558594 145.441406 C 186.558594 142.105469 191.558594 142.105469 191.558594 145.441406 "/>
<path fill-rule="nonzero" fill="rgb(12.156863%, 47.058824%, 70.588235%)" fill-opacity="1" stroke-width="1" stroke-linecap="butt" stroke-linejoin="miter" stroke="rgb(12.156863%, 47.058824%, 70.588235%)" stroke-opacity="1" stroke-miterlimit="10" d="M 734.410156 300.441406 C 734.410156 301.441406 732.910156 301.441406 732.910156 300.441406 C 732.910156 299.441406 734.410156 299.441406 734.410156 300.441406 "/>
<path fill-rule="nonzero" fill="rgb(12.156863%, 47.058824%, 70.588235%)" fill-opacity="1" stroke-width="1" stroke-linecap="butt" stroke-linejoin="miter" stroke="rgb(12.156863%, 47.058824%, 70.588235%)" stroke-opacity="1" stroke-miterlimit="10" d="M 721.558594 320.464844 C 721.558594 322.132812 719.058594 322.132812 719.058594 320.464844 C 719.058594 318.796875 721.558594 318.796875 721.558594 320.464844 "/>
<path fill-rule="nonzero" fill="rgb(70.196078%, 70.196078%, 70.196078%)" fill-opacity="1" stroke-width="1" stroke-linecap="butt" stroke-linejoin="miter" stroke="rgb(70.196078%, 70.196078%, 70.196078%)" stroke-opacity="1" stroke-miterlimit="10" d="M 622.949219 463.664062 C 622.949219 466.996094 617.949219 466.996094 617.949219 463.664062 C 617.949219 460.332031 622.949219 460.332031 622.949219 463.664062 "/>
<path fill-rule="nonzero" fill="rgb(70.196078%, 70.196078%, 70.196078%)" fill-opacity="1" stroke-width="1" stroke-linecap="butt" stroke-linejoin="miter" stroke="rgb(70.196078%, 70.196078%, 70.196078%)" stroke-opacity="1" stroke-miterlimit="10" d="M 430.980469 321.644531 C 430.980469 324.980469 425.980469 324.980469 425.980469 321.644531 C 425.980469 318.3125 430.980469 318.3125 430.980469 321.644531 "/>
<path fill-rule="nonzero" fill="rgb(70.196078%, 70.196078%, 70.196078%)" fill-opacity="1" stroke-width="1" stroke-linecap="butt" stroke-linejoin="miter" stroke="rgb(70.196078%, 70.196078%, 70.196078%)" stroke-opacity="1" stroke-miterlimit="10" d="M 525.566406 386.105469 C 525.566406 389.4375 520.566406 389.4375 520.566406 386.105469 C 520.566406 382.773438 525.566406 382.773438 525.566406 386.105469 "/>
<path fill-rule="nonzero" fill="rgb(70.196078%, 70.196078%, 70.196078%)" fill-opacity="1" stroke-width="1" stroke-linecap="butt" stroke-linejoin="miter" stroke="rgb(70.196078%, 70.196078%, 70.196078%)" stroke-opacity="1" stroke-miterlimit="10" d="M 647.371094 715.992188 C 647.371094 719.324219 642.371094 719.324219 642.371094 715.992188 C 642.371094 712.660156 647.371094 712.660156 647.371094 715.992188 "/>
<path fill-rule="nonzero" fill="rgb(98.431373%, 60.392157%, 60%)" fill-opacity="1" stroke-width="1" stroke-linecap="butt" stroke-linejoin="miter" stroke="rgb(98.431373%, 60.392157%, 60%)" stroke-opacity="1" stroke-miterlimit="10" d="M 659.296875 728.984375 C 659.296875 729.984375 657.796875 729.984375 657.796875 728.984375 C 657.796875 727.984375 659.296875 727.984375 659.296875 728.984375 "/>
<path fill-rule="nonzero" fill="rgb(98.431373%, 60.392157%, 60%)" fill-opacity="1" stroke-width="1" stroke-linecap="butt" stroke-linejoin="miter" stroke="rgb(98.431373%, 60.392157%, 60%)" stroke-opacity="1" stroke-miterlimit="10" d="M 636.625 750 C 636.625 751 635.125 751 635.125 750 C 635.125 749 636.625 749 636.625 750 "/>
<path fill-rule="nonzero" fill="rgb(98.431373%, 60.392157%, 60%)" fill-opacity="1" stroke-width="1" stroke-linecap="butt" stroke-linejoin="miter" stroke="rgb(98.431373%, 60.392157%, 60%)" stroke-opacity="1" stroke-miterlimit="10" d="M 637.347656 711.890625 C 637.347656 712.890625 635.847656 712.890625 635.847656 711.890625 C 635.847656 710.890625 637.347656 710.890625 637.347656 711.890625 "/>
<path fill-rule="nonzero" fill="rgb(70.196078%, 70.196078%, 70.196078%)" fill-opacity="1" stroke-width="1" stroke-linecap="butt" stroke-linejoin="miter" stroke="rgb(70.196078%, 70.196078%, 70.196078%)" stroke-opacity="1" stroke-miterlimit="10" d="M 123.519531 91.808594 C 123.519531 95.144531 118.519531 95.144531 118.519531 91.808594 C 118.519531 88.476562 123.519531 88.476562 123.519531 91.808594 "/>
<path fill-rule="nonzero" fill="rgb(70.196078%, 70.196078%, 70.196078%)" fill-opacity="1" stroke-width="1" stroke-linecap="butt" stroke-linejoin="miter" stroke="rgb(70.196078%, 70.196078%, 70.196078%)" stroke-opacity="1" stroke-miterlimit="10" d="M 638.550781 681.46875 C 638.550781 684.804688 633.550781 684.804688 633.550781 681.46875 C 633.550781 678.136719 638.550781 678.136719 638.550781 681.46875 "/>
<path fill-rule="nonzero" fill="rgb(12.156863%, 47.058824%, 70.588235%)" fill-opacity="1" stroke-width="1" stroke-linecap="butt" stroke-linejoin="miter" stroke="rgb(12.156863%, 47.058824%, 70.588235%)" stroke-opacity="1" stroke-miterlimit="10" d="M 744.675781 282.863281 C 744.675781 284.527344 742.175781 284.527344 742.175781 282.863281 C 742.175781 281.195312 744.675781 281.195312 744.675781 282.863281 "/>
<path fill-rule="nonzero" fill="rgb(12.156863%, 47.058824%, 70.588235%)" fill-opacity="1" stroke-width="1" stroke-linecap="butt" stroke-linejoin="miter" stroke="rgb(12.156863%, 47.058824%, 70.588235%)" stroke-opacity="1" stroke-miterlimit="10" d="M 727.667969 283.972656 C 727.667969 284.972656 726.167969 284.972656 726.167969 283.972656 C 726.167969 282.972656 727.667969 282.972656 727.667969 283.972656 "/>
<path fill-rule="nonzero" fill="rgb(12.156863%, 47.058824%, 70.588235%)" fill-opacity="1" stroke-width="1" stroke-linecap="butt" stroke-linejoin="miter" stroke="rgb(12.156863%, 47.058824%, 70.588235%)" stroke-opacity="1" stroke-miterlimit="10" d="M 750.75 255.707031 C 750.75 256.707031 749.25 256.707031 749.25 255.707031 C 749.25 254.707031 750.75 254.707031 750.75 255.707031 "/>
<path fill-rule="nonzero" fill="rgb(12.156863%, 47.058824%, 70.588235%)" fill-opacity="1" stroke-width="1" stroke-linecap="butt" stroke-linejoin="miter" stroke="rgb(12.156863%, 47.058824%, 70.588235%)" stroke-opacity="1" stroke-miterlimit="10" d="M 740.023438 259.050781 C 740.023438 261.382812 736.523438 261.382812 736.523438 259.050781 C 736.523438 256.714844 740.023438 256.714844 740.023438 259.050781 "/>
<path fill-rule="nonzero" fill="rgb(70.196078%, 70.196078%, 70.196078%)" fill-opacity="1" stroke-width="1" stroke-linecap="butt" stroke-linejoin="miter" stroke="rgb(70.196078%, 70.196078%, 70.196078%)" stroke-opacity="1" stroke-miterlimit="10" d="M 78.945312 68.183594 C 78.945312 71.515625 73.945312 71.515625 73.945312 68.183594 C 73.945312 64.847656 78.945312 64.847656 78.945312 68.183594 "/>
<path fill-rule="nonzero" fill="rgb(100%, 84.313725%, 0%)" fill-opacity="1" stroke-width="1" stroke-linecap="butt" stroke-linejoin="miter" stroke="rgb(100%, 84.313725%, 0%)" stroke-opacity="1" stroke-miterlimit="10" d="M 47.5 47.5 L 52.5 47.5 L 52.5 52.5 L 47.5 52.5 Z M 47.5 47.5 "/>
</svg>
