<?xml version="1.0" encoding="UTF-8"?>
<svg xmlns="http://www.w3.org/2000/svg" xmlns:xlink="http://www.w3.org/1999/xlink" width="800" height="800" viewBox="0 0 800 800">
<rect x="-80" y="-80" width="960" height="960" fill="rgb(100%, 100%, 100%)" fill-opacity="1"/>
<path fill="none" stroke-width="1.5" stroke-linecap="butt" stroke-linejoin="miter" stroke="rgb(30.196078%, 68.627451%, 29.019608%)" stroke-opacity="1" stroke-miterlimit="10" d="M 683.039062 535.074219 C 682.601562 533.695312 680.671875 533.027344 680.398438 532.125 "/>
<path fill-rule="nonzero" fill="rgb(30.196078%, 68.627451%, 29.019608%)" fill-opacity="1" d="M 682.453125 538.957031 L 678.179688 532.792969 L 682.621094 531.457031 L 682.453125 538.957031 "/>
<path fill="none" stroke-width="2.5" stroke-linecap="butt" stroke-linejoin="miter" stroke="rgb(70.196078%, 70.196078%, 70.196078%)" stroke-opacity="1" stroke-miterlimit="10" d="M 683.203125 541.4375 C 683.640625 542.816406 685.570312 543.484375 685.839844 544.386719 "/>
<path fill-rule="nonzero" fill="rgb(70.196078%, 70.196078%, 70.196078%)" fill-opacity="1" d="M 683.785156 537.554688 L 688.058594 543.71875 L 683.621094 545.054688 L 683.785156 537.554688 "/>
<path fill="none" stroke-width="2.5" stroke-linecap="butt" stroke-linejoin="miter" stroke="rgb(41.568627%, 23.921569%, 60.392157%)" stroke-opacity="1" stroke-miterlimit="10" d="M 683.203125 541.4375 C 681.675781 541.988281 681.089844 543.996094 680.011719 544.519531 "/>
<path fill-rule="nonzero" fill="rgb(41.568627%, 23.921569%, 60.392157%)" fill-opacity="1" d="M 686.425781 541.398438 L 681.027344 546.605469 L 678.996094 542.4375 L 686.425781 541.398438 "/>
<path fill="none" stroke-width="1.5" stroke-linecap="butt" stroke-linejoin="miter" stroke="rgb(41.568627%, 23.921569%, 60.392157%)" stroke-opacity="1" stroke-miterlimit="10" d="M 688.0625 540.601562 C 689.859375 540.269531 690.816406 538.316406 692.171875 537.761719 "/>
<path fill-rule="nonzero" fill="rgb(41.568627%, 23.921569%, 60.392157%)" fill-opacity="1" d="M 685.570312 540.464844 L 691.292969 535.617188 L 693.050781 539.90625 L 685.570312 540.464844 "/>
<path fill="none" stroke-width="2.5" stroke-linecap="butt" stroke-linejoin="miter" stroke="rgb(98.431373%, 60.392157%, 60%)" stroke-opacity="1" stroke-miterlimit="10" d="M 686.03125 510.703125 C 688.304688 510.667969 691.246094 510.007812 691.664062 508.054688 "/>
<path fill-rule="nonzero" fill="rgb(98.431373%, 60.392157%, 60%)" fill-opacity="1" d="M 693.152344 501.078125 L 693.929688 508.539062 L 689.398438 507.570312 L 693.152344 501.078125 "/>
<path fill="none" stroke-width="2.5" stroke-linecap="butt" stroke-linejoin="miter" stroke="rgb(98.431373%, 60.392157%, 60%)" stroke-opacity="1" stroke-miterlimit="10" d="M 693.300781 500.382812 C 691.480469 500.058594 688.769531 500.191406 688.398438 501.621094 "/>
<path fill-rule="nonzero" fill="rgb(98.431373%, 60.392157%, 60%)" fill-opacity="1" d="M 686.597656 508.523438 L 686.15625 501.039062 L 690.640625 502.207031 L 686.597656 508.523438 "/>
<path fill="none" stroke-width="1.5" stroke-linecap="butt" stroke-linejoin="miter" stroke="rgb(12.156863%, 47.058824%, 70.588235%)" stroke-opacity="1" stroke-miterlimit="10" d="M 744.292969 736.859375 C 743.140625 736.96875 741.894531 738.535156 741.535156 738.425781 "/>
<path fill-rule="nonzero" fill="rgb(12.156863%, 47.058824%, 70.588235%)" fill-opacity="1" d="M 748.34375 740.558594 L 740.84375 740.636719 L 742.230469 736.214844 L 748.34375 740.558594 "/>
<path fill="none" stroke-width="4.5" stroke-linecap="butt" stroke-linejoin="miter" stroke="rgb(70.196078%, 70.196078%, 70.196078%)" stroke-opacity="1" stroke-miterlimit="10" d="M 656.5 634.398438 C 668.945312 621.195312 675.464844 605.390625 672.726562 587.492188 "/>
<path fill-rule="nonzero" fill="rgb(70.196078%, 70.196078%, 70.196078%)" fill-opacity="1" d="M 671.648438 580.441406 L 675.015625 587.140625 L 670.433594 587.839844 L 671.648438 580.441406 "/>
<path fill="none" stroke-width="1.5" stroke-linecap="butt" stroke-linejoin="miter" stroke="rgb(12.156863%, 47.058824%, 70.588235%)" stroke-opacity="1" stroke-miterlimit="10" d="M 656.5 634.398438 C 658.945312 646.347656 664.992188 656.355469 676.015625 661.464844 "/>
<path fill-rule="nonzero" fill="rgb(12.156863%, 47.058824%, 70.588235%)" fill-opacity="1" d="M 682.488281 664.464844 L 675.039062 663.566406 L 676.988281 659.363281 L 682.488281 664.464844 "/>
<path fill="none" stroke-width="3.5" stroke-linecap="butt" stroke-linejoin="miter" stroke="rgb(70.196078%, 70.196078%, 70.196078%)" stroke-opacity="1" stroke-miterlimit="10" d="M 676.851562 558.105469 C 680.050781 556.730469 683.3125 554.382812 683.285156 551.085938 "/>
<path fill-rule="nonzero" fill="rgb(70.196078%, 70.196078%, 70.196078%)" fill-opacity="1" d="M 683.222656 543.953125 L 685.601562 551.066406 L 680.96875 551.105469 L 683.222656 543.953125 "/>
<path fill="none" stroke-width="3.5" stroke-linecap="butt" stroke-linejoin="miter" stroke="rgb(70.196078%, 70.196078%, 70.196078%)" stroke-opacity="1" stroke-miterlimit="10" d="M 671.285156 578.082031 C 675.042969 575.617188 678.363281 572.035156 677.894531 567.707031 "/>
<path fill-rule="nonzero" fill="rgb(70.196078%, 70.196078%, 70.196078%)" fill-opacity="1" d="M 677.125 560.617188 L 680.199219 567.457031 L 675.589844 567.957031 L 677.125 560.617188 "/>
<path fill="none" stroke-width="1.5" stroke-linecap="butt" stroke-linejoin="miter" stroke="rgb(98.431373%, 60.392157%, 60%)" stroke-opacity="1" stroke-miterlimit="10" d="M 671.285156 578.082031 C 676.855469 573.324219 680.78125 567.136719 679.835938 559.957031 "/>
<path fill-rule="nonzero" fill="rgb(98.431373%, 60.392157%, 60%)" fill-opacity="1" d="M 678.902344 552.882812 L 682.132812 559.652344 L 677.535156 560.257812 L 678.902344 552.882812 "/>
<path fill="none" stroke-width="1.5" stroke-linecap="butt" stroke-linejoin="miter" stroke="rgb(98.431373%, 60.392157%, 60%)" stroke-opacity="1" stroke-miterlimit="10" d="M 678.808594 552.171875 C 682.769531 547.796875 685.46875 542.355469 683.78125 536.800781 "/>
<path fill-rule="nonzero" fill="rgb(98.431373%, 60.392157%, 60%)" fill-opacity="1" d="M 681.707031 529.976562 L 685.996094 536.128906 L 681.5625 537.476562 L 681.707031 529.976562 "/>
<path fill="none" stroke-width="1.5" stroke-linecap="butt" stroke-linejoin="miter" stroke="rgb(98.431373%, 60.392157%, 60%)" stroke-opacity="1" stroke-miterlimit="10" d="M 681.496094 529.292969 C 684.84375 527.078125 687.902344 523.828125 687.359375 520.015625 "/>
<path fill-rule="nonzero" fill="rgb(98.431373%, 60.392157%, 60%)" fill-opacity="1" d="M 686.351562 512.953125 L 689.652344 519.6875 L 685.0625 520.34375 L 686.351562 512.953125 "/>
<path fill="none" stroke-width="5.5" stroke-linecap="butt" stroke-linejoin="miter" stroke="rgb(70.196078%, 70.196078%, 70.196078%)" stroke-opacity="1" stroke-miterlimit="10" d="M 613.101562 658.984375 C 628.203125 658.960938 641.648438 653.972656 650.75 641.976562 "/>
<path fill-rule="nonzero" fill="rgb(70.196078%, 70.196078%, 70.196078%)" fill-opacity="1" d="M 655.058594 636.292969 L 652.59375 643.378906 L 648.902344 640.574219 L 655.058594 636.292969 "/>
<path fill="none" stroke-width="1.5" stroke-linecap="butt" stroke-linejoin="miter" stroke="rgb(12.156863%, 47.058824%, 70.588235%)" stroke-opacity="1" stroke-miterlimit="10" d="M 711.109375 701.09375 C 710.078125 702.828125 710.917969 704.925781 710.484375 706.570312 "/>
<path fill-rule="nonzero" fill="rgb(12.156863%, 47.058824%, 70.588235%)" fill-opacity="1" d="M 712.296875 699.671875 L 712.726562 707.160156 L 708.242188 705.984375 L 712.296875 699.671875 "/>
<path fill="none" stroke-width="1.5" stroke-linecap="butt" stroke-linejoin="miter" stroke="rgb(12.156863%, 47.058824%, 70.588235%)" stroke-opacity="1" stroke-miterlimit="10" d="M 723.261719 711.582031 C 723.230469 716.242188 724.4375 721.089844 728.425781 723.246094 "/>
<path fill-rule="nonzero" fill="rgb(12.156863%, 47.058824%, 70.588235%)" fill-opacity="1" d="M 734.699219 726.640625 L 727.320312 725.285156 L 729.527344 721.207031 L 734.699219 726.640625 "/>
<path fill="none" stroke-width="1.5" stroke-linecap="butt" stroke-linejoin="miter" stroke="rgb(12.156863%, 47.058824%, 70.588235%)" stroke-opacity="1" stroke-miterlimit="10" d="M 708.464844 695.773438 C 707.378906 695.308594 705.582031 696.132812 705.238281 695.824219 "/>
<path fill-rule="nonzero" fill="rgb(12.156863%, 47.058824%, 70.588235%)" fill-opacity="1" d="M 710.546875 700.589844 L 703.691406 697.550781 L 706.785156 694.101562 L 710.546875 700.589844 "/>
<path fill="none" stroke-width="1.5" stroke-linecap="butt" stroke-linejoin="miter" stroke="rgb(12.156863%, 47.058824%, 70.588235%)" stroke-opacity="1" stroke-miterlimit="10" d="M 708.464844 695.773438 C 709.085938 701.148438 711.1875 706.378906 716.050781 708.476562 "/>
<path fill-rule="nonzero" fill="rgb(12.156863%, 47.058824%, 70.588235%)" fill-opacity="1" d="M 722.601562 711.296875 L 715.136719 710.601562 L 716.96875 706.347656 L 722.601562 711.296875 "/>
<path fill="none" stroke-width="1.5" stroke-linecap="butt" stroke-linejoin="miter" stroke="rgb(12.156863%, 47.058824%, 70.588235%)" stroke-opacity="1" stroke-miterlimit="10" d="M 683.136719 664.765625 C 685.027344 676.523438 690.496094 686.574219 701.050781 691.980469 "/>
<path fill-rule="nonzero" fill="rgb(12.156863%, 47.058824%, 70.588235%)" fill-opacity="1" d="M 707.398438 695.230469 L 699.996094 694.042969 L 702.109375 689.917969 L 707.398438 695.230469 "/>
<path fill="none" stroke-width="1.5" stroke-linecap="butt" stroke-linejoin="miter" stroke="rgb(12.156863%, 47.058824%, 70.588235%)" stroke-opacity="1" stroke-miterlimit="10" d="M 735.328125 726.980469 C 734.945312 729.457031 735.105469 732.648438 737.160156 733.589844 "/>
<path fill-rule="nonzero" fill="rgb(12.156863%, 47.058824%, 70.588235%)" fill-opacity="1" d="M 743.644531 736.5625 L 736.195312 735.699219 L 738.125 731.484375 L 743.644531 736.5625 "/>
<path fill="none" stroke-width="5.5" stroke-linecap="butt" stroke-linejoin="miter" stroke="rgb(70.196078%, 70.196078%, 70.196078%)" stroke-opacity="1" stroke-miterlimit="10" d="M 423.167969 735.683594 C 438.363281 738.699219 452.875 736.367188 464.464844 726.152344 "/>
<path fill-rule="nonzero" fill="rgb(70.196078%, 70.196078%, 70.196078%)" fill-opacity="1" d="M 469.816406 721.433594 L 465.996094 727.890625 L 462.933594 724.414062 L 469.816406 721.433594 "/>
<path fill="none" stroke-width="5.5" stroke-linecap="butt" stroke-linejoin="miter" stroke="rgb(70.196078%, 70.196078%, 70.196078%)" stroke-opacity="1" stroke-miterlimit="10" d="M 567.339844 680.605469 C 582.667969 681.695312 596.667969 677.613281 606.808594 666.117188 "/>
<path fill-rule="nonzero" fill="rgb(70.196078%, 70.196078%, 70.196078%)" fill-opacity="1" d="M 611.527344 660.769531 L 608.546875 667.652344 L 605.070312 664.585938 L 611.527344 660.769531 "/>
<path fill="none" stroke-width="1.5" stroke-linecap="butt" stroke-linejoin="miter" stroke="rgb(12.156863%, 47.058824%, 70.588235%)" stroke-opacity="1" stroke-miterlimit="10" d="M 712.496094 698.910156 C 713.863281 699.347656 715.511719 698.164062 716.390625 698.464844 "/>
<path fill-rule="nonzero" fill="rgb(12.156863%, 47.058824%, 70.588235%)" fill-opacity="1" d="M 709.636719 696.171875 L 717.136719 696.269531 L 715.648438 700.660156 L 709.636719 696.171875 "/>
<path fill="none" stroke-width="5.5" stroke-linecap="butt" stroke-linejoin="miter" stroke="rgb(70.196078%, 70.196078%, 70.196078%)" stroke-opacity="1" stroke-miterlimit="10" d="M 112.398438 657.171875 C 114.859375 668.914062 120.835938 678.785156 131.722656 683.703125 "/>
<path fill-rule="nonzero" fill="rgb(70.196078%, 70.196078%, 70.196078%)" fill-opacity="1" d="M 138.222656 686.640625 L 130.769531 685.816406 L 132.675781 681.59375 L 138.222656 686.640625 "/>
<path fill="none" stroke-width="5.5" stroke-linecap="butt" stroke-linejoin="miter" stroke="rgb(70.196078%, 70.196078%, 70.196078%)" stroke-opacity="1" stroke-miterlimit="10" d="M 521.3125 701.375 C 536.578125 702.734375 550.613281 698.910156 560.921875 687.628906 "/>
<path fill-rule="nonzero" fill="rgb(70.196078%, 70.196078%, 70.196078%)" fill-opacity="1" d="M 565.734375 682.363281 L 562.632812 689.191406 L 559.210938 686.0625 L 565.734375 682.363281 "/>
<path fill="none" stroke-width="5.5" stroke-linecap="butt" stroke-linejoin="miter" stroke="rgb(70.196078%, 70.196078%, 70.196078%)" stroke-opacity="1" stroke-miterlimit="10" d="M 378.515625 744.507812 C 391.300781 748.875 404.203125 748.652344 415.316406 741.050781 "/>
<path fill-rule="nonzero" fill="rgb(70.196078%, 70.196078%, 70.196078%)" fill-opacity="1" d="M 421.203125 737.027344 L 416.625 742.964844 L 414.007812 739.140625 L 421.203125 737.027344 "/>
<path fill="none" stroke-width="5.5" stroke-linecap="butt" stroke-linejoin="miter" stroke="rgb(70.196078%, 70.196078%, 70.196078%)" stroke-opacity="1" stroke-miterlimit="10" d="M 334.496094 750 C 346.535156 755.136719 359.039062 755.878906 370.300781 749.304688 "/>
<path fill-rule="nonzero" fill="rgb(70.196078%, 70.196078%, 70.196078%)" fill-opacity="1" d="M 376.460938 745.707031 L 371.46875 751.304688 L 369.132812 747.300781 L 376.460938 745.707031 "/>
<path fill="none" stroke-width="5.5" stroke-linecap="butt" stroke-linejoin="miter" stroke="rgb(70.196078%, 70.196078%, 70.196078%)" stroke-opacity="1" stroke-miterlimit="10" d="M 290.5 748.882812 C 301.523438 755.699219 313.660156 758.289062 325.65625 753.515625 "/>
<path fill-rule="nonzero" fill="rgb(70.196078%, 70.196078%, 70.196078%)" fill-opacity="1" d="M 332.285156 750.878906 L 326.515625 755.671875 L 324.800781 751.363281 L 332.285156 750.878906 "/>
<path fill="none" stroke-width="5.5" stroke-linecap="butt" stroke-linejoin="miter" stroke="rgb(70.196078%, 70.196078%, 70.196078%)" stroke-opacity="1" stroke-miterlimit="10" d="M 471.605469 719.859375 C 487.667969 722.316406 502.722656 719.160156 514.4375 707.953125 "/>
<path fill-rule="nonzero" fill="rgb(70.196078%, 70.196078%, 70.196078%)" fill-opacity="1" d="M 519.589844 703.023438 L 516.039062 709.628906 L 512.832031 706.277344 L 519.589844 703.023438 "/>
<path fill="none" stroke-width="5.5" stroke-linecap="butt" stroke-linejoin="miter" stroke="rgb(70.196078%, 70.196078%, 70.196078%)" stroke-opacity="1" stroke-miterlimit="10" d="M 88.203125 620.546875 C 88.914062 633.449219 93.710938 644.851562 104.457031 651.9375 "/>
<path fill-rule="nonzero" fill="rgb(70.196078%, 70.196078%, 70.196078%)" fill-opacity="1" d="M 110.410156 655.863281 L 103.179688 653.871094 L 105.730469 650 L 110.410156 655.863281 "/>
<path fill="none" stroke-width="5.5" stroke-linecap="butt" stroke-linejoin="miter" stroke="rgb(70.196078%, 70.196078%, 70.196078%)" stroke-opacity="1" stroke-miterlimit="10" d="M 50 391.175781 C 43.449219 404.105469 41.828125 417.800781 48.171875 430.785156 "/>
<path fill-rule="nonzero" fill="rgb(70.196078%, 70.196078%, 70.196078%)" fill-opacity="1" d="M 51.300781 437.195312 L 46.089844 431.804688 L 50.253906 429.769531 L 51.300781 437.195312 "/>
<path fill="none" stroke-width="5.5" stroke-linecap="butt" stroke-linejoin="miter" stroke="rgb(70.196078%, 70.196078%, 70.196078%)" stroke-opacity="1" stroke-miterlimit="10" d="M 246.707031 745.359375 C 257.316406 752.757812 269.265625 756.007812 281.484375 751.90625 "/>
<path fill-rule="nonzero" fill="rgb(70.196078%, 70.196078%, 70.196078%)" fill-opacity="1" d="M 288.246094 749.640625 L 282.21875 754.105469 L 280.746094 749.710938 L 288.246094 749.640625 "/>
<path fill="none" stroke-width="5.5" stroke-linecap="butt" stroke-linejoin="miter" stroke="rgb(70.196078%, 70.196078%, 70.196078%)" stroke-opacity="1" stroke-miterlimit="10" d="M 203.339844 736.855469 C 213.121094 745.460938 224.710938 750.058594 237.40625 747.347656 "/>
<path fill-rule="nonzero" fill="rgb(70.196078%, 70.196078%, 70.196078%)" fill-opacity="1" d="M 244.382812 745.855469 L 237.890625 749.613281 L 236.921875 745.078125 L 244.382812 745.855469 "/>
<path fill="none" stroke-width="5.5" stroke-linecap="butt" stroke-linejoin="miter" stroke="rgb(70.196078%, 70.196078%, 70.196078%)" stroke-opacity="1" stroke-miterlimit="10" d="M 171.394531 715.023438 C 175.941406 725.070312 183.261719 732.824219 194.015625 734.984375 "/>
<path fill-rule="nonzero" fill="rgb(70.196078%, 70.196078%, 70.196078%)" fill-opacity="1" d="M 201.011719 736.386719 L 193.558594 737.257812 L 194.472656 732.710938 L 201.011719 736.386719 "/>
<path fill="none" stroke-width="5.5" stroke-linecap="butt" stroke-linejoin="miter" stroke="rgb(70.196078%, 70.196078%, 70.196078%)" stroke-opacity="1" stroke-miterlimit="10" d="M 56.207031 340.695312 C 47.046875 353.148438 43.007812 367.246094 47.332031 382.042969 "/>
<path fill-rule="nonzero" fill="rgb(70.196078%, 70.196078%, 70.196078%)" fill-opacity="1" d="M 49.332031 388.886719 L 45.105469 382.691406 L 49.554688 381.390625 L 49.332031 388.886719 "/>
<path fill="none" stroke-width="5.5" stroke-linecap="butt" stroke-linejoin="miter" stroke="rgb(70.196078%, 70.196078%, 70.196078%)" stroke-opacity="1" stroke-miterlimit="10" d="M 151.085938 79.992188 C 143.152344 84.03125 136.949219 90.214844 135.828125 98.96875 "/>
<path fill-rule="nonzero" fill="rgb(70.196078%, 70.196078%, 70.196078%)" fill-opacity="1" d="M 134.921875 106.046875 L 133.53125 98.675781 L 138.128906 99.265625 L 134.921875 106.046875 "/>
<path fill="none" stroke-width="5.5" stroke-linecap="butt" stroke-linejoin="miter" stroke="rgb(70.196078%, 70.196078%, 70.196078%)" stroke-opacity="1" stroke-miterlimit="10" d="M 52.347656 439.332031 C 46.046875 452.40625 44.699219 466.148438 51.308594 479.019531 "/>
<path fill-rule="nonzero" fill="rgb(70.196078%, 70.196078%, 70.196078%)" fill-opacity="1" d="M 54.566406 485.363281 L 49.246094 480.078125 L 53.371094 477.960938 L 54.566406 485.363281 "/>
<path fill="none" stroke-width="5.5" stroke-linecap="butt" stroke-linejoin="miter" stroke="rgb(70.196078%, 70.196078%, 70.196078%)" stroke-opacity="1" stroke-miterlimit="10" d="M 140.390625 687.621094 C 144.054688 699.054688 151.027344 708.253906 162.371094 712.023438 "/>
<path fill-rule="nonzero" fill="rgb(70.196078%, 70.196078%, 70.196078%)" fill-opacity="1" d="M 169.140625 714.273438 L 161.640625 714.222656 L 163.101562 709.824219 L 169.140625 714.273438 "/>
<path fill="none" stroke-width="5.5" stroke-linecap="butt" stroke-linejoin="miter" stroke="rgb(70.196078%, 70.196078%, 70.196078%)" stroke-opacity="1" stroke-miterlimit="10" d="M 74.066406 576.28125 C 71.140625 589.824219 72.925781 602.921875 81.972656 613.359375 "/>
<path fill-rule="nonzero" fill="rgb(70.196078%, 70.196078%, 70.196078%)" fill-opacity="1" d="M 86.644531 618.746094 L 80.222656 614.875 L 83.722656 611.839844 L 86.644531 618.746094 "/>
<path fill="none" stroke-width="5.5" stroke-linecap="butt" stroke-linejoin="miter" stroke="rgb(70.196078%, 70.196078%, 70.196078%)" stroke-opacity="1" stroke-miterlimit="10" d="M 63.941406 531.628906 C 59.910156 544.628906 60.511719 557.605469 68.480469 568.582031 "/>
<path fill-rule="nonzero" fill="rgb(70.196078%, 70.196078%, 70.196078%)" fill-opacity="1" d="M 72.667969 574.355469 L 66.605469 569.945312 L 70.355469 567.222656 L 72.667969 574.355469 "/>
<path fill="none" stroke-width="5.5" stroke-linecap="butt" stroke-linejoin="miter" stroke="rgb(70.196078%, 70.196078%, 70.196078%)" stroke-opacity="1" stroke-miterlimit="10" d="M 66.449219 291.589844 C 56.433594 303.03125 51.285156 316.515625 54.308594 331.375 "/>
<path fill-rule="nonzero" fill="rgb(70.196078%, 70.196078%, 70.196078%)" fill-opacity="1" d="M 55.730469 338.363281 L 52.039062 331.835938 L 56.582031 330.910156 L 55.730469 338.363281 "/>
<path fill="none" stroke-width="5.5" stroke-linecap="butt" stroke-linejoin="miter" stroke="rgb(70.196078%, 70.196078%, 70.196078%)" stroke-opacity="1" stroke-miterlimit="10" d="M 77.5 242.574219 C 67.285156 253.875 61.910156 267.304688 64.699219 282.238281 "/>
<path fill-rule="nonzero" fill="rgb(70.196078%, 70.196078%, 70.196078%)" fill-opacity="1" d="M 66.011719 289.25 L 62.421875 282.664062 L 66.980469 281.8125 L 66.011719 289.25 "/>
<path fill="none" stroke-width="5.5" stroke-linecap="butt" stroke-linejoin="miter" stroke="rgb(70.196078%, 70.196078%, 70.196078%)" stroke-opacity="1" stroke-miterlimit="10" d="M 90.957031 206.539062 C 82.351562 213.304688 76.605469 222.199219 77.082031 233.074219 "/>
<path fill-rule="nonzero" fill="rgb(70.196078%, 70.196078%, 70.196078%)" fill-opacity="1" d="M 77.394531 240.203125 L 74.765625 233.175781 L 79.398438 232.972656 L 77.394531 240.203125 "/>
<path fill="none" stroke-width="5.5" stroke-linecap="butt" stroke-linejoin="miter" stroke="rgb(70.196078%, 70.196078%, 70.196078%)" stroke-opacity="1" stroke-miterlimit="10" d="M 158.304688 65.609375 C 155.492188 66.261719 152.289062 67.75 152.027344 70.394531 "/>
<path fill-rule="nonzero" fill="rgb(70.196078%, 70.196078%, 70.196078%)" fill-opacity="1" d="M 151.332031 77.496094 L 149.722656 70.167969 L 154.335938 70.625 L 151.332031 77.496094 "/>
<path fill="none" stroke-width="5.5" stroke-linecap="butt" stroke-linejoin="miter" stroke="rgb(70.196078%, 70.196078%, 70.196078%)" stroke-opacity="1" stroke-miterlimit="10" d="M 104.765625 173.140625 C 96.582031 178.96875 90.835938 186.882812 90.898438 196.863281 "/>
<path fill-rule="nonzero" fill="rgb(70.196078%, 70.196078%, 70.196078%)" fill-opacity="1" d="M 90.941406 203.996094 L 88.578125 196.878906 L 93.214844 196.847656 L 90.941406 203.996094 "/>
<path fill="none" stroke-width="5.5" stroke-linecap="butt" stroke-linejoin="miter" stroke="rgb(70.196078%, 70.196078%, 70.196078%)" stroke-opacity="1" stroke-miterlimit="10" d="M 164.742188 54.914062 C 163.023438 54.636719 160.394531 54.839844 160.136719 56.15625 "/>
<path fill-rule="nonzero" fill="rgb(70.196078%, 70.196078%, 70.196078%)" fill-opacity="1" d="M 158.777344 63.160156 L 157.863281 55.714844 L 162.414062 56.597656 L 158.777344 63.160156 "/>
<path fill="none" stroke-width="5.5" stroke-linecap="butt" stroke-linejoin="miter" stroke="rgb(70.196078%, 70.196078%, 70.196078%)" stroke-opacity="1" stroke-miterlimit="10" d="M 167.550781 50 C 168.152344 48.492188 167.035156 46.71875 167.359375 45.5625 "/>
<path fill-rule="nonzero" fill="rgb(70.196078%, 70.196078%, 70.196078%)" fill-opacity="1" d="M 165.4375 52.433594 L 165.128906 44.9375 L 169.589844 46.1875 L 165.4375 52.433594 "/>
<path fill="none" stroke-width="5.5" stroke-linecap="butt" stroke-linejoin="miter" stroke="rgb(70.196078%, 70.196078%, 70.196078%)" stroke-opacity="1" stroke-miterlimit="10" d="M 55.652344 487.484375 C 51.214844 500.011719 51.277344 512.71875 58.648438 523.726562 "/>
<path fill-rule="nonzero" fill="rgb(70.196078%, 70.196078%, 70.196078%)" fill-opacity="1" d="M 62.617188 529.652344 L 56.722656 525.015625 L 60.574219 522.4375 L 62.617188 529.652344 "/>
<path fill="none" stroke-width="5.5" stroke-linecap="butt" stroke-linejoin="miter" stroke="rgb(70.196078%, 70.196078%, 70.196078%)" stroke-opacity="1" stroke-miterlimit="10" d="M 119.972656 139.363281 C 111.335938 145.203125 105.210938 153.269531 104.980469 163.632812 "/>
<path fill-rule="nonzero" fill="rgb(70.196078%, 70.196078%, 70.196078%)" fill-opacity="1" d="M 104.816406 170.765625 L 102.660156 163.582031 L 107.296875 163.6875 L 104.816406 170.765625 "/>
<path fill="none" stroke-width="5.5" stroke-linecap="butt" stroke-linejoin="miter" stroke="rgb(70.196078%, 70.196078%, 70.196078%)" stroke-opacity="1" stroke-miterlimit="10" d="M 134.601562 108.566406 C 126.703125 113.484375 120.855469 120.476562 120.425781 129.699219 "/>
<path fill-rule="nonzero" fill="rgb(70.196078%, 70.196078%, 70.196078%)" fill-opacity="1" d="M 120.09375 136.824219 L 118.109375 129.589844 L 122.738281 129.808594 L 120.09375 136.824219 "/>
<path fill-rule="nonzero" fill="rgb(14.901961%, 14.901961%, 14.901961%)" fill-opacity="1" stroke-width="1" stroke-linecap="butt" stroke-linejoin="miter" stroke="rgb(14.901961%, 14.901961%, 14.901961%)" stroke-opacity="1" stroke-miterlimit="10" d="M 680.539062 537.574219 L 683.039062 532.574219 L 685.539062 537.574219 Z M 680.539062 537.574219 "/>
<path fill-rule="nonzero" fill="rgb(14.901961%, 14.901961%, 14.901961%)" fill-opacity="1" stroke-width="1" stroke-linecap="butt" stroke-linejoin="miter" stroke="rgb(14.901961%, 14.901961%, 14.901961%)" stroke-opacity="1" stroke-miterlimit="10" d="M 680.703125 543.9375 L 683.203125 538.9375 L 685.703125 543.9375 Z M 680.703125 543.9375 "/>
<path fill-rule="nonzero" fill="rgb(14.901961%, 14.901961%, 14.901961%)" fill-opacity="1" stroke-width="1" stroke-linecap="butt" stroke-linejoin="miter" stroke="rgb(14.901961%, 14.901961%, 14.901961%)" stroke-opacity="1" stroke-miterlimit="10" d="M 686.3125 542.351562 L 688.0625 538.851562 L 689.8125 542.351562 Z M 686.3125 542.351562 "/>
<path fill-rule="nonzero" fill="rgb(14.901961%, 14.901961%, 14.901961%)" fill-opacity="1" stroke-width="1" stroke-linecap="butt" stroke-linejoin="miter" stroke="rgb(14.901961%, 14.901961%, 14.901961%)" stroke-opacity="1" stroke-miterlimit="10" d="M 683.78125 512.953125 L 686.03125 508.453125 L 688.28125 512.953125 Z M 683.78125 512.953125 "/>
<path fill-rule="nonzero" fill="rgb(98.431373%, 60.392157%, 60%)" fill-opacity="1" stroke-width="1" stroke-linecap="butt" stroke-linejoin="miter" stroke="rgb(98.431373%, 60.392157%, 60%)" stroke-opacity="1" stroke-miterlimit="10" d="M 694.050781 500.382812 C 694.050781 501.382812 692.550781 501.382812 692.550781 500.382812 C 692.550781 499.382812 694.050781 499.382812 694.050781 500.382812 "/>
<path fill-rule="nonzero" fill="rgb(12.156863%, 47.058824%, 70.588235%)" fill-opacity="1" stroke-width="1" stroke-linecap="butt" stroke-linejoin="miter" stroke="rgb(12.156863%, 47.058824%, 70.588235%)" stroke-opacity="1" stroke-miterlimit="10" d="M 745.042969 736.859375 C 745.042969 737.859375 743.542969 737.859375 743.542969 736.859375 C 743.542969 735.859375 745.042969 735.859375 745.042969 736.859375 "/>
<path fill-rule="nonzero" fill="rgb(14.901961%, 14.901961%, 14.901961%)" fill-opacity="1" stroke-width="1" stroke-linecap="butt" stroke-linejoin="miter" stroke="rgb(14.901961%, 14.901961%, 14.901961%)" stroke-opacity="1" stroke-miterlimit="10" d="M 748.25 742.828125 L 750 739.328125 L 751.75 742.828125 Z M 748.25 742.828125 "/>
<path fill-rule="nonzero" fill="rgb(70.196078%, 70.196078%, 70.196078%)" fill-opacity="1" stroke-width="1" stroke-linecap="butt" stroke-linejoin="miter" stroke="rgb(70.196078%, 70.196078%, 70.196078%)" stroke-opacity="1" stroke-miterlimit="10" d="M 659 634.398438 C 659 637.730469 654 637.730469 654 634.398438 C 654 631.0625 659 631.0625 659 634.398438 "/>
<path fill-rule="nonzero" fill="rgb(70.196078%, 70.196078%, 70.196078%)" fill-opacity="1" stroke-width="1" stroke-linecap="butt" stroke-linejoin="miter" stroke="rgb(70.196078%, 70.196078%, 70.196078%)" stroke-opacity="1" stroke-miterlimit="10" d="M 679.351562 558.105469 C 679.351562 561.441406 674.351562 561.441406 674.351562 558.105469 C 674.351562 554.773438 679.351562 554.773438 679.351562 558.105469 "/>
<path fill-rule="nonzero" fill="rgb(70.196078%, 70.196078%, 70.196078%)" fill-opacity="1" stroke-width="1" stroke-linecap="butt" stroke-linejoin="miter" stroke="rgb(70.196078%, 70.196078%, 70.196078%)" stroke-opacity="1" stroke-miterlimit="10" d="M 673.785156 578.082031 C 673.785156 581.417969 668.785156 581.417969 668.785156 578.082031 C 668.785156 574.75 673.785156 574.75 673.785156 578.082031 "/>
<path fill-rule="nonzero" fill="rgb(98.431373%, 60.392157%, 60%)" fill-opacity="1" stroke-width="1" stroke-linecap="butt" stroke-linejoin="miter" stroke="rgb(98.431373%, 60.392157%, 60%)" stroke-opacity="1" stroke-miterlimit="10" d="M 679.558594 552.171875 C 679.558594 553.171875 678.058594 553.171875 678.058594 552.171875 C 678.058594 551.171875 679.558594 551.171875 679.558594 552.171875 "/>
<path fill-rule="nonzero" fill="rgb(98.431373%, 60.392157%, 60%)" fill-opacity="1" stroke-width="1" stroke-linecap="butt" stroke-linejoin="miter" stroke="rgb(98.431373%, 60.392157%, 60%)" stroke-opacity="1" stroke-miterlimit="10" d="M 682.246094 529.292969 C 682.246094 530.292969 680.746094 530.292969 680.746094 529.292969 C 680.746094 528.292969 682.246094 528.292969 682.246094 529.292969 "/>
<path fill-rule="nonzero" fill="rgb(70.196078%, 70.196078%, 70.196078%)" fill-opacity="1" stroke-width="1" stroke-linecap="butt" stroke-linejoin="miter" stroke="rgb(70.196078%, 70.196078%, 70.196078%)" stroke-opacity="1" stroke-miterlimit="10" d="M 615.601562 658.984375 C 615.601562 662.316406 610.601562 662.316406 610.601562 658.984375 C 610.601562 655.648438 615.601562 655.648438 615.601562 658.984375 "/>
<path fill-rule="nonzero" fill="rgb(12.156863%, 47.058824%, 70.588235%)" fill-opacity="1" stroke-width="1" stroke-linecap="butt" stroke-linejoin="miter" stroke="rgb(12.156863%, 47.058824%, 70.588235%)" stroke-opacity="1" stroke-miterlimit="10" d="M 711.859375 701.09375 C 711.859375 702.09375 710.359375 702.09375 710.359375 701.09375 C 710.359375 700.09375 711.859375 700.09375 711.859375 701.09375 "/>
<path fill-rule="nonzero" fill="rgb(12.156863%, 47.058824%, 70.588235%)" fill-opacity="1" stroke-width="1" stroke-linecap="butt" stroke-linejoin="miter" stroke="rgb(12.156863%, 47.058824%, 70.588235%)" stroke-opacity="1" stroke-miterlimit="10" d="M 724.011719 711.582031 C 724.011719 712.582031 722.511719 712.582031 722.511719 711.582031 C 722.511719 710.582031 724.011719 710.582031 724.011719 711.582031 "/>
<path fill-rule="nonzero" fill="rgb(12.156863%, 47.058824%, 70.588235%)" fill-opacity="1" stroke-width="1" stroke-linecap="butt" stroke-linejoin="miter" stroke="rgb(12.156863%, 47.058824%, 70.588235%)" stroke-opacity="1" stroke-miterlimit="10" d="M 709.714844 695.773438 C 709.714844 697.441406 707.214844 697.441406 707.214844 695.773438 C 707.214844 694.109375 709.714844 694.109375 709.714844 695.773438 "/>
<path fill-rule="nonzero" fill="rgb(12.156863%, 47.058824%, 70.588235%)" fill-opacity="1" stroke-width="1" stroke-linecap="butt" stroke-linejoin="miter" stroke="rgb(12.156863%, 47.058824%, 70.588235%)" stroke-opacity="1" stroke-miterlimit="10" d="M 683.886719 664.765625 C 683.886719 665.765625 682.386719 665.765625 682.386719 664.765625 C 682.386719 663.765625 683.886719 663.765625 683.886719 664.765625 "/>
<path fill-rule="nonzero" fill="rgb(12.156863%, 47.058824%, 70.588235%)" fill-opacity="1" stroke-width="1" stroke-linecap="butt" stroke-linejoin="miter" stroke="rgb(12.156863%, 47.058824%, 70.588235%)" stroke-opacity="1" stroke-miterlimit="10" d="M 736.078125 726.980469 C 736.078125 727.980469 734.578125 727.980469 734.578125 726.980469 C 734.578125 725.980469 736.078125 725.980469 736.078125 726.980469 "/>
<path fill-rule="nonzero" fill="rgb(70.196078%, 70.196078%, 70.196078%)" fill-opacity="1" stroke-width="1" stroke-linecap="butt" stroke-linejoin="miter" stroke="rgb(70.196078%, 70.196078%, 70.196078%)" stroke-opacity="1" stroke-miterlimit="10" d="M 425.667969 735.683594 C 425.667969 739.015625 420.667969 739.015625 420.667969 735.683594 C 420.667969 732.347656 425.667969 732.347656 425.667969 735.683594 "/>
<path fill-rule="nonzero" fill="rgb(70.196078%, 70.196078%, 70.196078%)" fill-opacity="1" stroke-width="1" stroke-linecap="butt" stroke-linejoin="miter" stroke="rgb(70.196078%, 70.196078%, 70.196078%)" stroke-opacity="1" stroke-miterlimit="10" d="M 569.839844 680.605469 C 569.839844 683.9375 564.839844 683.9375 564.839844 680.605469 C 564.839844 677.269531 569.839844 677.269531 569.839844 680.605469 "/>
<path fill-rule="nonzero" fill="rgb(12.156863%, 47.058824%, 70.588235%)" fill-opacity="1" stroke-width="1" stroke-linecap="butt" stroke-linejoin="miter" stroke="rgb(12.156863%, 47.058824%, 70.588235%)" stroke-opacity="1" stroke-miterlimit="10" d="M 713.246094 698.910156 C 713.246094 699.910156 711.746094 699.910156 711.746094 698.910156 C 711.746094 697.910156 713.246094 697.910156 713.246094 698.910156 "/>
<path fill-rule="nonzero" fill="rgb(70.196078%, 70.196078%, 70.196078%)" fill-opacity="1" stroke-width="1" stroke-linecap="butt" stroke-linejoin="miter" stroke="rgb(70.196078%, 70.196078%, 70.196078%)" stroke-opacity="1" stroke-miterlimit="10" d="M 114.898438 657.171875 C 114.898438 660.507812 109.898438 660.507812 109.898438 657.171875 C 109.898438 653.839844 114.898438 653.839844 114.898438 657.171875 "/>
<path fill-rule="nonzero" fill="rgb(70.196078%, 70.196078%, 70.196078%)" fill-opacity="1" stroke-width="1" stroke-linecap="butt" stroke-linejoin="miter" stroke="rgb(70.196078%, 70.196078%, 70.196078%)" stroke-opacity="1" stroke-miterlimit="10" d="M 523.8125 701.375 C 523.8125 704.707031 518.8125 704.707031 518.8125 701.375 C 518.8125 698.042969 523.8125 698.042969 523.8125 701.375 "/>
<path fill-rule="nonzero" fill="rgb(70.196078%, 70.196078%, 70.196078%)" fill-opacity="1" stroke-width="1" stroke-linecap="butt" stroke-linejoin="miter" stroke="rgb(70.196078%, 70.196078%, 70.196078%)" stroke-opacity="1" stroke-miterlimit="10" d="M 381.015625 744.507812 C 381.015625 747.839844 376.015625 747.839844 376.015625 744.507812 C 376.015625 741.175781 381.015625 741.175781 381.015625 744.507812 "/>
<path fill-rule="nonzero" fill="rgb(70.196078%, 70.196078%, 70.196078%)" fill-opacity="1" stroke-width="1" stroke-linecap="butt" stroke-linejoin="miter" stroke="rgb(70.196078%, 70.196078%, 70.196078%)" stroke-opacity="1" stroke-miterlimit="10" d="M 336.996094 750 C 336.996094 753.332031 331.996094 753.332031 331.996094 750 C 331.996094 746.667969 336.996094 746.667969 336.996094 750 "/>
<path fill-rule="nonzero" fill="rgb(70.196078%, 70.196078%, 70.196078%)" fill-opacity="1" stroke-width="1" stroke-linecap="butt" stroke-linejoin="miter" stroke="rgb(70.196078%, 70.196078%, 70.196078%)" stroke-opacity="1" stroke-miterlimit="10" d="M 293 748.882812 C 293 752.214844 288 752.214844 288 748.882812 C 288 745.546875 293 745.546875 293 748.882812 "/>
<path fill-rule="nonzero" fill="rgb(70.196078%, 70.196078%, 70.196078%)" fill-opacity="1" stroke-width="1" stroke-linecap="butt" stroke-linejoin="miter" stroke="rgb(70.196078%, 70.196078%, 70.196078%)" stroke-opacity="1" stroke-miterlimit="10" d="M 474.105469 719.859375 C 474.105469 723.195312 469.105469 723.195312 469.105469 719.859375 C 469.105469 716.527344 474.105469 716.527344 474.105469 719.859375 "/>
<path fill-rule="nonzero" fill="rgb(70.196078%, 70.196078%, 70.196078%)" fill-opacity="1" stroke-width="1" stroke-linecap="butt" stroke-linejoin="miter" stroke="rgb(70.196078%, 70.196078%, 70.196078%)" stroke-opacity="1" stroke-miterlimit="10" d="M 90.703125 620.546875 C 90.703125 623.878906 85.703125 623.878906 85.703125 620.546875 C 85.703125 617.214844 90.703125 617.214844 90.703125 620.546875 "/>
<path fill-rule="nonzero" fill="rgb(70.196078%, 70.196078%, 70.196078%)" fill-opacity="1" stroke-width="1" stroke-linecap="butt" stroke-linejoin="miter" stroke="rgb(70.196078%, 70.196078%, 70.196078%)" stroke-opacity="1" stroke-miterlimit="10" d="M 52.5 391.175781 C 52.5 394.507812 47.5 394.507812 47.5 391.175781 C 47.5 387.839844 52.5 387.839844 52.5 391.175781 "/>
<path fill-rule="nonzero" fill="rgb(70.196078%, 70.196078%, 70.196078%)" fill-opacity="1" stroke-width="1" stroke-linecap="butt" stroke-linejoin="miter" stroke="rgb(70.196078%, 70.196078%, 70.196078%)" stroke-opacity="1" stroke-miterlimit="10" d="M 249.207031 745.359375 C 249.207031 748.691406 244.207031 748.691406 244.207031 745.359375 C 244.207031 742.023438 249.207031 742.023438 249.207031 745.359375 "/>
<path fill-rule="nonzero" fill="rgb(70.196078%, 70.196078%, 70.196078%)" fill-opacity="1" stroke-width="1" stroke-linecap="butt" stroke-linejoin="miter" stroke="rgb(70.196078%, 70.196078%, 70.196078%)" stroke-opacity="1" stroke-miterlimit="10" d="M 205.839844 736.855469 C 205.839844 740.1875 200.839844 740.1875 200.839844 736.855469 C 200.839844 733.523438 205.839844 733.523438 205.839844 736.855469 "/>
<path fill-rule="nonzero" fill="rgb(70.196078%, 70.196078%, 70.196078%)" fill-opacity="1" stroke-width="1" stroke-linecap="butt" stroke-linejoin="miter" stroke="rgb(70.196078%, 70.196078%, 70.196078%)" stroke-opacity="1" stroke-miterlimit="10" d="M 173.894531 715.023438 C 173.894531 718.355469 168.894531 718.355469 168.894531 715.023438 C 168.894531 711.6875 173.894531 711.6875 173.894531 715.023438 "/>
<path fill-rule="nonzero" fill="rgb(70.196078%, 70.196078%, 70.196078%)" fill-opacity="1" stroke-width="1" stroke-linecap="butt" stroke-linejoin="miter" stroke="rgb(70.196078%, 70.196078%, 70.196078%)" stroke-opacity="1" stroke-miterlimit="10" d="M 58.707031 340.695312 C 58.707031 344.03125 53.707031 344.03125 53.707031 340.695312 C 53.707031 337.363281 58.707031 337.363281 58.707031 340.695312 "/>
<path fill-rule="nonzero" fill="rgb(70.196078%, 70.196078%, 70.196078%)" fill-opacity="1" stroke-width="1" stroke-linecap="butt" stroke-linejoin="miter" stroke="rgb(70.196078%, 70.196078%, 70.196078%)" stroke-opacity="1" stroke-miterlimit="10" d="M 153.585938 79.992188 C 153.585938 83.328125 148.585938 83.328125 148.585938 79.992188 C 148.585938 76.660156 153.585938 76.660156 153.585938 79.992188 "/>
<path fill-rule="nonzero" fill="rgb(70.196078%, 70.196078%, 70.196078%)" fill-opacity="1" stroke-width="1" stroke-linecap="butt" stroke-linejoin="miter" stroke="rgb(70.196078%, 70.196078%, 70.196078%)" stroke-opacity="1" stroke-miterlimit="10" d="M 54.847656 439.332031 C 54.847656 442.667969 49.847656 442.667969 49.847656 439.332031 C 49.847656 436 54.847656 436 54.847656 439.332031 "/>
<path fill-rule="nonzero" fill="rgb(70.196078%, 70.196078%, 70.196078%)" fill-opacity="1" stroke-width="1" stroke-linecap="butt" stroke-linejoin="miter" stroke="rgb(70.196078%, 70.196078%, 70.196078%)" stroke-opacity="1" stroke-miterlimit="10" d="M 142.890625 687.621094 C 142.890625 690.957031 137.890625 690.957031 137.890625 687.621094 C 137.890625 684.289062 142.890625 684.289062 142.890625 687.621094 "/>
<path fill-rule="nonzero" fill="rgb(70.196078%, 70.196078%, 70.196078%)" fill-opacity="1" stroke-width="1" stroke-linecap="butt" stroke-linejoin="miter" stroke="rgb(70.196078%, 70.196078%, 70.196078%)" stroke-opacity="1" stroke-miterlimit="10" d="M 76.566406 576.28125 C 76.566406 579.613281 71.566406 579.613281 71.566406 576.28125 C 71.566406 572.949219 76.566406 572.949219 76.566406 576.28125 "/>
<path fill-rule="nonzero" fill="rgb(70.196078%, 70.196078%, 70.196078%)" fill-opacity="1" stroke-width="1" stroke-linecap="butt" stroke-linejoin="miter" stroke="rgb(70.196078%, 70.196078%, 70.196078%)" stroke-opacity="1" stroke-miterlimit="10" d="M 66.441406 531.628906 C 66.441406 534.964844 61.441406 534.964844 61.441406 531.628906 C 61.441406 528.296875 66.441406 528.296875 66.441406 531.628906 "/>
<path fill-rule="nonzero" fill="rgb(70.196078%, 70.196078%, 70.196078%)" fill-opacity="1" stroke-width="1" stroke-linecap="butt" stroke-linejoin="miter" stroke="rgb(70.196078%, 70.196078%, 70.196078%)" stroke-opacity="1" stroke-miterlimit="10" d="M 68.949219 291.589844 C 68.949219 294.925781 63.949219 294.925781 63.949219 291.589844 C 63.949219 288.257812 68.949219 288.257812 68.949219 291.589844 "/>
<path fill-rule="nonzero" fill="rgb(70.196078%, 70.196078%, 70.196078%)" fill-opacity="1" stroke-width="1" stroke-linecap="butt" stroke-linejoin="miter" stroke="rgb(70.196078%, 70.196078%, 70.196078%)" stroke-opacity="1" stroke-miterlimit="10" d="M 80 242.574219 C 80 245.910156 75 245.910156 75 242.574219 C 75 239.242188 80 239.242188 80 242.574219 "/>
<path fill-rule="nonzero" fill="rgb(70.196078%, 70.196078%, 70.196078%)" fill-opacity="1" stroke-width="1" stroke-linecap="butt" stroke-linejoin="miter" stroke="rgb(70.196078%, 70.196078%, 70.196078%)" stroke-opacity="1" stroke-miterlimit="10" d="M 93.457031 206.539062 C 93.457031 209.871094 88.457031 209.871094 88.457031 206.539062 C 88.457031 203.207031 93.457031 203.207031 93.457031 206.539062 "/>
<path fill-rule="nonzero" fill="rgb(70.196078%, 70.196078%, 70.196078%)" fill-opacity="1" stroke-width="1" stroke-linecap="butt" stroke-linejoin="miter" stroke="rgb(70.196078%, 70.196078%, 70.196078%)" stroke-opacity="1" stroke-miterlimit="10" d="M 160.804688 65.609375 C 160.804688 68.941406 155.804688 68.941406 155.804688 65.609375 C 155.804688 62.273438 160.804688 62.273438 160.804688 65.609375 "/>
<path fill-rule="nonzero" fill="rgb(70.196078%, 70.196078%, 70.196078%)" fill-opacity="1" stroke-width="1" stroke-linecap="butt" stroke-linejoin="miter" stroke="rgb(70.196078%, 70.196078%, 70.196078%)" stroke-opacity="1" stroke-miterlimit="10" d="M 107.265625 173.140625 C 107.265625 176.472656 102.265625 176.472656 102.265625 173.140625 C 102.265625 169.808594 107.265625 169.808594 107.265625 173.140625 "/>
<path fill-rule="nonzero" fill="rgb(70.196078%, 70.196078%, 70.196078%)" fill-opacity="1" stroke-width="1" stroke-linecap="butt" stroke-linejoin="miter" stroke="rgb(70.196078%, 70.196078%, 70.196078%)" stroke-opacity="1" stroke-miterlimit="10" d="M 167.242188 54.914062 C 167.242188 58.246094 162.242188 58.246094 162.242188 54.914062 C 162.242188 51.582031 167.242188 51.582031 167.242188 54.914062 "/>
<path fill-rule="nonzero" fill="rgb(100%, 84.313725%, 0%)" fill-opacity="1" stroke-width="1" stroke-linecap="butt" stroke-linejoin="miter" stroke="rgb(100%, 84.313725%, 0%)" stroke-opacity="1" stroke-miterlimit="10" d="M 165.050781 47.5 L 170.050781 47.5 L 170.050781 52.5 L 165.050781 52.5 Z M 165.050781 47.5 "/>
<path fill-rule="nonzero" fill="rgb(70.196078%, 70.196078%, 70.196078%)" fill-opacity="1" stroke-width="1" stroke-linecap="butt" stroke-linejoin="miter" stroke="rgb(70.196078%, 70.196078%, 70.196078%)" stroke-opacity="1" stroke-miterlimit="10" d="M 58.152344 487.484375 C 58.152344 490.816406 53.152344 490.816406 53.152344 487.484375 C 53.152344 484.148438 58.152344 484.148438 58.152344 487.484375 "/>
<path fill-rule="nonzero" fill="rgb(70.196078%, 70.196078%, 70.196078%)" fill-opacity="1" stroke-width="1" stroke-linecap="butt" stroke-linejoin="miter" stroke="rgb(70.196078%, 70.196078%, 70.196078%)" stroke-opacity="1" stroke-miterlimit="10" d="M 122.472656 139.363281 C 122.472656 142.695312 117.472656 142.695312 117.472656 139.363281 C 117.472656 136.03125 122.472656 136.03125 122.472656 139.363281 "/>
<path fill-rule="nonzero" fill="rgb(70.196078%, 70.196078%, 70.196078%)" fill-opacity="1" stroke-width="1" stroke-linecap="butt" stroke-linejoin="miter" stroke="rgb(70.196078%, 70.196078%, 70.196078%)" stroke-opacity="1" stroke-miterlimit="10" d="M 137.101562 108.566406 C 137.101562 111.898438 132.101562 111.898438 132.101562 108.566406 C 132.101562 105.230469 137.101562 105.230469 137.101562 108.566406 "/>
</svg>
