<?xml version="1.0" encoding="UTF-8"?>
<svg xmlns="http://www.w3.org/2000/svg" xmlns:xlink="http://www.w3.org/1999/xlink" width="800" height="800" viewBox="0 0 800 800">
<rect x="-80" y="-80" width="960" height="960" fill="rgb(100%, 100%, 100%)" fill-opacity="1"/>
<path fill="none" stroke-width="2.5" stroke-linecap="butt" stroke-linejoin="miter" stroke="rgb(70.196078%, 70.196078%, 70.196078%)" stroke-opacity="1" stroke-miterlimit="10" d="M 250.972656 443.792969 C 262.480469 293.851562 216.75 164.0625 111.355469 56.796875 "/>
<path fill-rule="nonzero" fill="rgb(70.196078%, 70.196078%, 70.196078%)" fill-opacity="1" d="M 106.355469 51.710938 L 113.007812 55.171875 L 109.703125 58.421875 L 106.355469 51.710938 "/>
<path fill="none" stroke-width="1.5" stroke-linecap="butt" stroke-linejoin="miter" stroke="rgb(12.156863%, 47.058824%, 70.588235%)" stroke-opacity="1" stroke-miterlimit="10" d="M 250.972656 443.792969 C 251.5 473.839844 262.503906 499.480469 286.019531 518.160156 "/>
<path fill-rule="nonzero" fill="rgb(12.156863%, 47.058824%, 70.588235%)" fill-opacity="1" d="M 291.605469 522.597656 L 284.578125 519.976562 L 287.460938 516.34375 L 291.605469 522.597656 "/>
<path fill="none" stroke-width="1.5" stroke-linecap="butt" stroke-linejoin="miter" stroke="rgb(12.156863%, 47.058824%, 70.588235%)" stroke-opacity="1" stroke-miterlimit="10" d="M 250.972656 443.792969 C 203.277344 377.738281 138.988281 339.570312 57.824219 332.539062 "/>
<path fill-rule="nonzero" fill="rgb(12.156863%, 47.058824%, 70.588235%)" fill-opacity="1" d="M 50.714844 331.925781 L 58.023438 330.230469 L 57.621094 334.847656 L 50.714844 331.925781 "/>
<path fill="none" stroke-width="1.5" stroke-linecap="butt" stroke-linejoin="miter" stroke="rgb(12.156863%, 47.058824%, 70.588235%)" stroke-opacity="1" stroke-miterlimit="10" d="M 250.972656 443.792969 C 283.132812 359.628906 279.34375 277.085938 236.722656 197.710938 "/>
<path fill-rule="nonzero" fill="rgb(12.156863%, 47.058824%, 70.588235%)" fill-opacity="1" d="M 233.347656 191.425781 L 238.765625 196.613281 L 234.679688 198.808594 L 233.347656 191.425781 "/>
<path fill="none" stroke-width="2.5" stroke-linecap="butt" stroke-linejoin="miter" stroke="rgb(70.196078%, 70.196078%, 70.196078%)" stroke-opacity="1" stroke-miterlimit="10" d="M 104.675781 50 C 93.164062 199.941406 138.898438 329.734375 244.292969 436.996094 "/>
<path fill-rule="nonzero" fill="rgb(70.196078%, 70.196078%, 70.196078%)" fill-opacity="1" d="M 249.292969 442.085938 L 242.640625 438.621094 L 245.945312 435.375 L 249.292969 442.085938 "/>
<path fill="none" stroke-width="1.5" stroke-linecap="butt" stroke-linejoin="miter" stroke="rgb(12.156863%, 47.058824%, 70.588235%)" stroke-opacity="1" stroke-miterlimit="10" d="M 292.167969 523.042969 C 291.898438 493.550781 281.347656 468.246094 258.390625 449.765625 "/>
<path fill-rule="nonzero" fill="rgb(12.156863%, 47.058824%, 70.588235%)" fill-opacity="1" d="M 252.832031 445.292969 L 259.84375 447.960938 L 256.933594 451.570312 L 252.832031 445.292969 "/>
<path fill="none" stroke-width="1.5" stroke-linecap="butt" stroke-linejoin="miter" stroke="rgb(12.156863%, 47.058824%, 70.588235%)" stroke-opacity="1" stroke-miterlimit="10" d="M 50 331.863281 C 97.164062 397.613281 160.890625 435.765625 241.480469 442.949219 "/>
<path fill-rule="nonzero" fill="rgb(12.156863%, 47.058824%, 70.588235%)" fill-opacity="1" d="M 248.585938 443.582031 L 241.273438 445.257812 L 241.6875 440.640625 L 248.585938 443.582031 "/>
<path fill="none" stroke-width="1.5" stroke-linecap="butt" stroke-linejoin="miter" stroke="rgb(12.156863%, 47.058824%, 70.588235%)" stroke-opacity="1" stroke-miterlimit="10" d="M 233.007812 190.792969 C 200.8125 274.347656 204.304688 356.410156 246.484375 435.390625 "/>
<path fill-rule="nonzero" fill="rgb(12.156863%, 47.058824%, 70.588235%)" fill-opacity="1" d="M 249.84375 441.683594 L 244.4375 436.480469 L 248.527344 434.296875 L 249.84375 441.683594 "/>
<path fill="none" stroke-width="5.5" stroke-linecap="butt" stroke-linejoin="miter" stroke="rgb(70.196078%, 70.196078%, 70.196078%)" stroke-opacity="1" stroke-miterlimit="10" d="M 428.644531 512.613281 C 382.984375 464.292969 326.875 440.070312 260.488281 443.328125 "/>
<path fill-rule="nonzero" fill="rgb(70.196078%, 70.196078%, 70.196078%)" fill-opacity="1" d="M 253.363281 443.675781 L 260.375 441.011719 L 260.601562 445.644531 L 253.363281 443.675781 "/>
<path fill="none" stroke-width="5.5" stroke-linecap="butt" stroke-linejoin="miter" stroke="rgb(70.196078%, 70.196078%, 70.196078%)" stroke-opacity="1" stroke-miterlimit="10" d="M 612.808594 678.109375 C 578.828125 597.65625 520.808594 542.390625 437.710938 515.542969 "/>
<path fill-rule="nonzero" fill="rgb(70.196078%, 70.196078%, 70.196078%)" fill-opacity="1" d="M 430.921875 513.347656 L 438.421875 513.335938 L 436.996094 517.746094 L 430.921875 513.347656 "/>
<path fill="none" stroke-width="5.5" stroke-linecap="butt" stroke-linejoin="miter" stroke="rgb(70.196078%, 70.196078%, 70.196078%)" stroke-opacity="1" stroke-miterlimit="10" d="M 750 750 C 718.128906 707.089844 675.640625 682.207031 622.3125 678.730469 "/>
<path fill-rule="nonzero" fill="rgb(70.196078%, 70.196078%, 70.196078%)" fill-opacity="1" d="M 615.195312 678.265625 L 622.464844 676.417969 L 622.164062 681.042969 L 615.195312 678.265625 "/>
<path fill-rule="nonzero" fill="rgb(14.901961%, 14.901961%, 14.901961%)" fill-opacity="1" stroke-width="1" stroke-linecap="butt" stroke-linejoin="miter" stroke="rgb(14.901961%, 14.901961%, 14.901961%)" stroke-opacity="1" stroke-miterlimit="10" d="M 248.472656 446.292969 L 250.972656 441.292969 L 253.472656 446.292969 Z M 248.472656 446.292969 "/>
<path fill-rule="nonzero" fill="rgb(70.196078%, 70.196078%, 70.196078%)" fill-opacity="1" stroke-width="1" stroke-linecap="butt" stroke-linejoin="miter" stroke="rgb(70.196078%, 70.196078%, 70.196078%)" stroke-opacity="1" stroke-miterlimit="10" d="M 107.175781 50 C 107.175781 53.332031 102.175781 53.332031 102.175781 50 C 102.175781 46.667969 107.175781 46.667969 107.175781 50 "/>
<path fill-rule="nonzero" fill="rgb(12.156863%, 47.058824%, 70.588235%)" fill-opacity="1" stroke-width="1" stroke-linecap="butt" stroke-linejoin="miter" stroke="rgb(12.156863%, 47.058824%, 70.588235%)" stroke-opacity="1" stroke-miterlimit="10" d="M 292.917969 523.042969 C 292.917969 524.042969 291.417969 524.042969 291.417969 523.042969 C 291.417969 522.042969 292.917969 522.042969 292.917969 523.042969 "/>
<path fill-rule="nonzero" fill="rgb(12.156863%, 47.058824%, 70.588235%)" fill-opacity="1" stroke-width="1" stroke-linecap="butt" stroke-linejoin="miter" stroke="rgb(12.156863%, 47.058824%, 70.588235%)" stroke-opacity="1" stroke-miterlimit="10" d="M 50.75 331.863281 C 50.75 332.863281 49.25 332.863281 49.25 331.863281 C 49.25 330.863281 50.75 330.863281 50.75 331.863281 "/>
<path fill-rule="nonzero" fill="rgb(12.156863%, 47.058824%, 70.588235%)" fill-opacity="1" stroke-width="1" stroke-linecap="butt" stroke-linejoin="miter" stroke="rgb(12.156863%, 47.058824%, 70.588235%)" stroke-opacity="1" stroke-miterlimit="10" d="M 233.757812 190.792969 C 233.757812 191.792969 232.257812 191.792969 232.257812 190.792969 C 232.257812 189.792969 233.757812 189.792969 233.757812 190.792969 "/>
<path fill-rule="nonzero" fill="rgb(70.196078%, 70.196078%, 70.196078%)" fill-opacity="1" stroke-width="1" stroke-linecap="butt" stroke-linejoin="miter" stroke="rgb(70.196078%, 70.196078%, 70.196078%)" stroke-opacity="1" stroke-miterlimit="10" d="M 431.144531 512.613281 C 431.144531 515.945312 426.144531 515.945312 426.144531 512.613281 C 426.144531 509.277344 431.144531 509.277344 431.144531 512.613281 "/>
<path fill-rule="nonzero" fill="rgb(70.196078%, 70.196078%, 70.196078%)" fill-opacity="1" stroke-width="1" stroke-linecap="butt" stroke-linejoin="miter" stroke="rgb(70.196078%, 70.196078%, 70.196078%)" stroke-opacity="1" stroke-miterlimit="10" d="M 615.308594 678.109375 C 615.308594 681.445312 610.308594 681.445312 610.308594 678.109375 C 610.308594 674.777344 615.308594 674.777344 615.308594 678.109375 "/>
<path fill-rule="nonzero" fill="rgb(100%, 84.313725%, 0%)" fill-opacity="1" stroke-width="1" stroke-linecap="butt" stroke-linejoin="miter" stroke="rgb(100%, 84.313725%, 0%)" stroke-opacity="1" stroke-miterlimit="10" d="M 747.5 747.5 L 752.5 747.5 L 752.5 752.5 L 747.5 752.5 Z M 747.5 747.5 "/>
</svg>
