<?xml version="1.0" encoding="UTF-8"?>
<svg xmlns="http://www.w3.org/2000/svg" xmlns:xlink="http://www.w3.org/1999/xlink" width="800" height="800" viewBox="0 0 800 800">
<rect x="-80" y="-80" width="960" height="960" fill="rgb(100%, 100%, 100%)" fill-opacity="1"/>
<path fill="none" stroke-width="1.5" stroke-linecap="butt" stroke-linejoin="miter" stroke="rgb(41.568627%, 23.921569%, 60.392157%)" stroke-opacity="1" stroke-miterlimit="10" d="M 720.832031 577.222656 C 719.40625 580.308594 718.53125 584.214844 720.738281 586.527344 "/>
<path fill-rule="nonzero" fill="rgb(41.568627%, 23.921569%, 60.392157%)" fill-opacity="1" d="M 725.664062 591.6875 L 719.0625 588.125 L 722.414062 584.925781 L 725.664062 591.6875 "/>
<path fill="none" stroke-width="3.5" stroke-linecap="butt" stroke-linejoin="miter" stroke="rgb(70.196078%, 70.196078%, 70.196078%)" stroke-opacity="1" stroke-miterlimit="10" d="M 720.832031 577.222656 C 719.804688 577.851562 718.601562 579.71875 718.972656 579.945312 "/>
<path fill-rule="nonzero" fill="rgb(70.196078%, 70.196078%, 70.196078%)" fill-opacity="1" d="M 725.074219 583.644531 L 717.773438 581.925781 L 720.175781 577.964844 L 725.074219 583.644531 "/>
<path fill="none" stroke-width="1.5" stroke-linecap="butt" stroke-linejoin="miter" stroke="rgb(98.431373%, 60.392157%, 60%)" stroke-opacity="1" stroke-miterlimit="10" d="M 720.832031 577.222656 C 720.5625 581.671875 721.429688 586.441406 725.148438 588.625 "/>
<path fill-rule="nonzero" fill="rgb(98.431373%, 60.392157%, 60%)" fill-opacity="1" d="M 731.300781 592.234375 L 723.976562 590.625 L 726.324219 586.625 L 731.300781 592.234375 "/>
<path fill="none" stroke-width="1.5" stroke-linecap="butt" stroke-linejoin="miter" stroke="rgb(41.568627%, 23.921569%, 60.392157%)" stroke-opacity="1" stroke-miterlimit="10" d="M 730.613281 596.875 C 732.042969 593.785156 732.914062 589.882812 730.707031 587.570312 "/>
<path fill-rule="nonzero" fill="rgb(41.568627%, 23.921569%, 60.392157%)" fill-opacity="1" d="M 725.785156 582.410156 L 732.382812 585.96875 L 729.03125 589.171875 L 725.785156 582.410156 "/>
<path fill="none" stroke-width="1.5" stroke-linecap="butt" stroke-linejoin="miter" stroke="rgb(98.431373%, 60.392157%, 60%)" stroke-opacity="1" stroke-miterlimit="10" d="M 730.613281 596.875 C 729.882812 597.851562 729.390625 600.019531 729.882812 600.132812 "/>
<path fill-rule="nonzero" fill="rgb(98.431373%, 60.392157%, 60%)" fill-opacity="1" d="M 736.839844 601.710938 L 729.371094 602.390625 L 730.394531 597.871094 L 736.839844 601.710938 "/>
<path fill="none" stroke-width="1.5" stroke-linecap="butt" stroke-linejoin="miter" stroke="rgb(41.568627%, 23.921569%, 60.392157%)" stroke-opacity="1" stroke-miterlimit="10" d="M 730.613281 596.875 C 731.300781 597.867188 733.304688 598.121094 733.445312 598.585938 "/>
<path fill-rule="nonzero" fill="rgb(41.568627%, 23.921569%, 60.392157%)" fill-opacity="1" d="M 731.386719 591.757812 L 735.664062 597.914062 L 731.226562 599.253906 L 731.386719 591.757812 "/>
<path fill="none" stroke-width="2.5" stroke-linecap="butt" stroke-linejoin="miter" stroke="rgb(70.196078%, 70.196078%, 70.196078%)" stroke-opacity="1" stroke-miterlimit="10" d="M 743.078125 609.3125 C 741.238281 608.855469 739.527344 610.242188 737.972656 610.230469 "/>
<path fill-rule="nonzero" fill="rgb(70.196078%, 70.196078%, 70.196078%)" fill-opacity="1" d="M 745.105469 610.285156 L 737.953125 612.546875 L 737.988281 607.914062 L 745.105469 610.285156 "/>
<path fill="none" stroke-width="1.5" stroke-linecap="butt" stroke-linejoin="miter" stroke="rgb(98.431373%, 60.392157%, 60%)" stroke-opacity="1" stroke-miterlimit="10" d="M 743.078125 609.3125 C 743.773438 608.207031 743.105469 606.300781 743.570312 605.773438 "/>
<path fill-rule="nonzero" fill="rgb(98.431373%, 60.392157%, 60%)" fill-opacity="1" d="M 738.871094 611.140625 L 741.824219 604.246094 L 745.3125 607.300781 L 738.871094 611.140625 "/>
<path fill="none" stroke-width="1.5" stroke-linecap="butt" stroke-linejoin="miter" stroke="rgb(12.156863%, 47.058824%, 70.588235%)" stroke-opacity="1" stroke-miterlimit="10" d="M 743.078125 609.3125 C 740.523438 610.382812 737.652344 612.34375 737.90625 614.847656 "/>
<path fill-rule="nonzero" fill="rgb(12.156863%, 47.058824%, 70.588235%)" fill-opacity="1" d="M 738.617188 621.945312 L 735.597656 615.078125 L 740.210938 614.617188 L 738.617188 621.945312 "/>
<path fill="none" stroke-width="1.5" stroke-linecap="butt" stroke-linejoin="miter" stroke="rgb(98.431373%, 60.392157%, 60%)" stroke-opacity="1" stroke-miterlimit="10" d="M 743.078125 609.3125 C 741.832031 609.125 739.636719 609.660156 739.757812 610.238281 "/>
<path fill-rule="nonzero" fill="rgb(98.431373%, 60.392157%, 60%)" fill-opacity="1" d="M 741.21875 617.21875 L 737.488281 610.710938 L 742.027344 609.761719 L 741.21875 617.21875 "/>
<path fill="none" stroke-width="2.5" stroke-linecap="butt" stroke-linejoin="miter" stroke="rgb(70.196078%, 70.196078%, 70.196078%)" stroke-opacity="1" stroke-miterlimit="10" d="M 750 610.324219 C 752.296875 612.148438 755.101562 611.75 757.773438 612.292969 "/>
<path fill-rule="nonzero" fill="rgb(70.196078%, 70.196078%, 70.196078%)" fill-opacity="1" d="M 750.785156 610.875 L 758.234375 610.019531 L 757.3125 614.5625 L 750.785156 610.875 "/>
<path fill="none" stroke-width="1.5" stroke-linecap="butt" stroke-linejoin="miter" stroke="rgb(12.156863%, 47.058824%, 70.588235%)" stroke-opacity="1" stroke-miterlimit="10" d="M 716.964844 548.703125 C 717.046875 553.109375 718.277344 557.757812 722.117188 559.601562 "/>
<path fill-rule="nonzero" fill="rgb(12.156863%, 47.058824%, 70.588235%)" fill-opacity="1" d="M 728.546875 562.691406 L 721.113281 561.691406 L 723.121094 557.511719 L 728.546875 562.691406 "/>
<path fill="none" stroke-width="1.5" stroke-linecap="butt" stroke-linejoin="miter" stroke="rgb(98.431373%, 60.392157%, 60%)" stroke-opacity="1" stroke-miterlimit="10" d="M 739.492188 602.3125 C 739.355469 599.714844 737.320312 598.09375 736.238281 595.984375 "/>
<path fill-rule="nonzero" fill="rgb(98.431373%, 60.392157%, 60%)" fill-opacity="1" d="M 739.496094 602.332031 L 734.175781 597.042969 L 738.300781 594.925781 L 739.496094 602.332031 "/>
<path fill="none" stroke-width="5.5" stroke-linecap="butt" stroke-linejoin="miter" stroke="rgb(70.196078%, 70.196078%, 70.196078%)" stroke-opacity="1" stroke-miterlimit="10" d="M 462.265625 345.300781 C 474.269531 373.167969 494.355469 392.980469 523.5 401.34375 "/>
<path fill-rule="nonzero" fill="rgb(70.196078%, 70.196078%, 70.196078%)" fill-opacity="1" d="M 530.355469 403.3125 L 522.859375 403.574219 L 524.140625 399.117188 L 530.355469 403.3125 "/>
<path fill="none" stroke-width="5.5" stroke-linecap="butt" stroke-linejoin="miter" stroke="rgb(70.196078%, 70.196078%, 70.196078%)" stroke-opacity="1" stroke-miterlimit="10" d="M 153.941406 123.859375 C 161.753906 139.066406 173.726562 149.945312 190.5 153.027344 "/>
<path fill-rule="nonzero" fill="rgb(70.196078%, 70.196078%, 70.196078%)" fill-opacity="1" d="M 197.515625 154.3125 L 190.082031 155.304688 L 190.921875 150.746094 L 197.515625 154.3125 "/>
<path fill="none" stroke-width="2.5" stroke-linecap="butt" stroke-linejoin="miter" stroke="rgb(70.196078%, 70.196078%, 70.196078%)" stroke-opacity="1" stroke-miterlimit="10" d="M 729.804688 586.511719 C 730.921875 586.464844 732.457031 585.085938 732.539062 585.140625 "/>
<path fill-rule="nonzero" fill="rgb(70.196078%, 70.196078%, 70.196078%)" fill-opacity="1" d="M 726.632812 581.144531 L 733.839844 583.222656 L 731.242188 587.0625 L 726.632812 581.144531 "/>
<path fill="none" stroke-width="2.5" stroke-linecap="butt" stroke-linejoin="miter" stroke="rgb(41.568627%, 23.921569%, 60.392157%)" stroke-opacity="1" stroke-miterlimit="10" d="M 729.804688 586.511719 C 729.503906 585.042969 727.640625 584.183594 727.402344 583.183594 "/>
<path fill-rule="nonzero" fill="rgb(41.568627%, 23.921569%, 60.392157%)" fill-opacity="1" d="M 729.03125 590.125 L 725.148438 583.710938 L 729.660156 582.652344 L 729.03125 590.125 "/>
<path fill="none" stroke-width="1.5" stroke-linecap="butt" stroke-linejoin="miter" stroke="rgb(98.431373%, 60.392157%, 60%)" stroke-opacity="1" stroke-miterlimit="10" d="M 736.65625 613.667969 C 738.160156 612.273438 739.824219 609.886719 738.839844 608.5 "/>
<path fill-rule="nonzero" fill="rgb(98.431373%, 60.392157%, 60%)" fill-opacity="1" d="M 734.71875 602.675781 L 740.734375 607.160156 L 736.949219 609.835938 L 734.71875 602.675781 "/>
<path fill="none" stroke-width="1.5" stroke-linecap="butt" stroke-linejoin="miter" stroke="rgb(98.431373%, 60.392157%, 60%)" stroke-opacity="1" stroke-miterlimit="10" d="M 736.65625 613.667969 C 735.273438 614.023438 733.230469 615.320312 733.605469 616.109375 "/>
<path fill-rule="nonzero" fill="rgb(98.431373%, 60.392157%, 60%)" fill-opacity="1" d="M 736.644531 622.5625 L 731.507812 617.097656 L 735.699219 615.121094 L 736.644531 622.5625 "/>
<path fill="none" stroke-width="1.5" stroke-linecap="butt" stroke-linejoin="miter" stroke="rgb(98.431373%, 60.392157%, 60%)" stroke-opacity="1" stroke-miterlimit="10" d="M 739.230469 628.042969 C 741.324219 627.582031 744.042969 626.351562 743.941406 624.542969 "/>
<path fill-rule="nonzero" fill="rgb(98.431373%, 60.392157%, 60%)" fill-opacity="1" d="M 743.539062 617.421875 L 746.253906 624.414062 L 741.625 624.675781 L 743.539062 617.421875 "/>
<path fill="none" stroke-width="1.5" stroke-linecap="butt" stroke-linejoin="miter" stroke="rgb(98.431373%, 60.392157%, 60%)" stroke-opacity="1" stroke-miterlimit="10" d="M 739.230469 628.042969 C 740.890625 626.636719 742.726562 624.289062 741.800781 622.667969 "/>
<path fill-rule="nonzero" fill="rgb(98.431373%, 60.392157%, 60%)" fill-opacity="1" d="M 738.261719 616.476562 L 743.8125 621.519531 L 739.789062 623.820312 L 738.261719 616.476562 "/>
<path fill="none" stroke-width="1.5" stroke-linecap="butt" stroke-linejoin="miter" stroke="rgb(12.156863%, 47.058824%, 70.588235%)" stroke-opacity="1" stroke-miterlimit="10" d="M 739.230469 628.042969 C 733.269531 636.894531 730.558594 646.890625 734.300781 656.820312 "/>
<path fill-rule="nonzero" fill="rgb(12.156863%, 47.058824%, 70.588235%)" fill-opacity="1" d="M 736.820312 663.492188 L 732.132812 657.636719 L 736.472656 656 L 736.820312 663.492188 "/>
<path fill="none" stroke-width="1.5" stroke-linecap="butt" stroke-linejoin="miter" stroke="rgb(12.156863%, 47.058824%, 70.588235%)" stroke-opacity="1" stroke-miterlimit="10" d="M 743.042969 671.246094 C 744.332031 672.011719 746.226562 671.207031 747.113281 671.707031 "/>
<path fill-rule="nonzero" fill="rgb(12.156863%, 47.058824%, 70.588235%)" fill-opacity="1" d="M 740.894531 668.214844 L 748.25 669.6875 L 745.980469 673.726562 L 740.894531 668.214844 "/>
<path fill="none" stroke-width="1.5" stroke-linecap="butt" stroke-linejoin="miter" stroke="rgb(98.431373%, 60.392157%, 60%)" stroke-opacity="1" stroke-miterlimit="10" d="M 733.691406 593.636719 C 732.464844 595.074219 731.179688 597.542969 732.246094 598.597656 "/>
<path fill-rule="nonzero" fill="rgb(98.431373%, 60.392157%, 60%)" fill-opacity="1" d="M 737.316406 603.613281 L 730.617188 600.246094 L 733.875 596.949219 L 737.316406 603.613281 "/>
<path fill="none" stroke-width="1.5" stroke-linecap="butt" stroke-linejoin="miter" stroke="rgb(12.156863%, 47.058824%, 70.588235%)" stroke-opacity="1" stroke-miterlimit="10" d="M 726.070312 696.472656 C 722.175781 699.070312 718.792969 702.808594 719.273438 707.328125 "/>
<path fill-rule="nonzero" fill="rgb(12.156863%, 47.058824%, 70.588235%)" fill-opacity="1" d="M 720.035156 714.421875 L 716.96875 707.574219 L 721.578125 707.082031 L 720.035156 714.421875 "/>
<path fill="none" stroke-width="4.5" stroke-linecap="butt" stroke-linejoin="miter" stroke="rgb(70.196078%, 70.196078%, 70.196078%)" stroke-opacity="1" stroke-miterlimit="10" d="M 676.417969 525.003906 C 680.199219 545.039062 690.28125 561.367188 708.34375 570.742188 "/>
<path fill-rule="nonzero" fill="rgb(70.196078%, 70.196078%, 70.196078%)" fill-opacity="1" d="M 714.675781 574.027344 L 707.277344 572.800781 L 709.414062 568.683594 L 714.675781 574.027344 "/>
<path fill="none" stroke-width="1.5" stroke-linecap="butt" stroke-linejoin="miter" stroke="rgb(12.156863%, 47.058824%, 70.588235%)" stroke-opacity="1" stroke-miterlimit="10" d="M 676.417969 525.003906 C 678.804688 530.257812 682.644531 534.855469 688.273438 535.433594 "/>
<path fill-rule="nonzero" fill="rgb(12.156863%, 47.058824%, 70.588235%)" fill-opacity="1" d="M 695.371094 536.15625 L 688.039062 537.738281 L 688.507812 533.128906 L 695.371094 536.15625 "/>
<path fill="none" stroke-width="1.5" stroke-linecap="butt" stroke-linejoin="miter" stroke="rgb(12.156863%, 47.058824%, 70.588235%)" stroke-opacity="1" stroke-miterlimit="10" d="M 744.605469 594.417969 C 743.574219 593.882812 741.398438 593.949219 741.429688 594.242188 "/>
<path fill-rule="nonzero" fill="rgb(12.156863%, 47.058824%, 70.588235%)" fill-opacity="1" d="M 742.207031 601.332031 L 739.128906 594.496094 L 743.734375 593.992188 L 742.207031 601.332031 "/>
<path fill="none" stroke-width="1.5" stroke-linecap="butt" stroke-linejoin="miter" stroke="rgb(12.156863%, 47.058824%, 70.588235%)" stroke-opacity="1" stroke-miterlimit="10" d="M 698.132812 536.441406 C 699.625 541.246094 702.445312 545.789062 707.25 546.753906 "/>
<path fill-rule="nonzero" fill="rgb(12.156863%, 47.058824%, 70.588235%)" fill-opacity="1" d="M 714.246094 548.15625 L 706.796875 549.023438 L 707.707031 544.480469 L 714.246094 548.15625 "/>
<path fill="none" stroke-width="5.5" stroke-linecap="butt" stroke-linejoin="miter" stroke="rgb(70.196078%, 70.196078%, 70.196078%)" stroke-opacity="1" stroke-miterlimit="10" d="M 393.960938 290.25 C 405.179688 316.089844 423.855469 334.515625 450.953125 342.125 "/>
<path fill-rule="nonzero" fill="rgb(70.196078%, 70.196078%, 70.196078%)" fill-opacity="1" d="M 457.820312 344.054688 L 450.328125 344.355469 L 451.582031 339.894531 L 457.820312 344.054688 "/>
<path fill="none" stroke-width="5.5" stroke-linecap="butt" stroke-linejoin="miter" stroke="rgb(70.196078%, 70.196078%, 70.196078%)" stroke-opacity="1" stroke-miterlimit="10" d="M 259.414062 195.609375 C 269.929688 217.535156 286.613281 232.976562 310.265625 238.5 "/>
<path fill-rule="nonzero" fill="rgb(70.196078%, 70.196078%, 70.196078%)" fill-opacity="1" d="M 317.210938 240.125 L 309.738281 240.757812 L 310.792969 236.242188 L 317.210938 240.125 "/>
<path fill="none" stroke-width="5.5" stroke-linecap="butt" stroke-linejoin="miter" stroke="rgb(70.196078%, 70.196078%, 70.196078%)" stroke-opacity="1" stroke-miterlimit="10" d="M 50 50 C 49.714844 51.878906 49.917969 54.652344 51.398438 55.007812 "/>
<path fill-rule="nonzero" fill="rgb(70.196078%, 70.196078%, 70.196078%)" fill-opacity="1" d="M 58.339844 56.660156 L 50.863281 57.261719 L 51.9375 52.75 L 58.339844 56.660156 "/>
<path fill="none" stroke-width="1.5" stroke-linecap="butt" stroke-linejoin="miter" stroke="rgb(98.431373%, 60.392157%, 60%)" stroke-opacity="1" stroke-miterlimit="10" d="M 741.773438 619.886719 C 742.332031 618.246094 741.109375 616.5 741.324219 615.171875 "/>
<path fill-rule="nonzero" fill="rgb(98.431373%, 60.392157%, 60%)" fill-opacity="1" d="M 740.179688 622.210938 L 739.039062 614.796875 L 743.613281 615.542969 L 740.179688 622.210938 "/>
<path fill="none" stroke-width="1.5" stroke-linecap="butt" stroke-linejoin="miter" stroke="rgb(12.156863%, 47.058824%, 70.588235%)" stroke-opacity="1" stroke-miterlimit="10" d="M 731.042969 563.894531 C 729.921875 567.65625 729.65625 572.046875 732.472656 574.535156 "/>
<path fill-rule="nonzero" fill="rgb(12.156863%, 47.058824%, 70.588235%)" fill-opacity="1" d="M 737.816406 579.257812 L 730.9375 576.273438 L 734.007812 572.796875 L 737.816406 579.257812 "/>
<path fill="none" stroke-width="1.5" stroke-linecap="butt" stroke-linejoin="miter" stroke="rgb(12.156863%, 47.058824%, 70.588235%)" stroke-opacity="1" stroke-miterlimit="10" d="M 737.984375 666.578125 C 736.714844 666.027344 734.941406 667.019531 734.195312 666.628906 "/>
<path fill-rule="nonzero" fill="rgb(12.156863%, 47.058824%, 70.588235%)" fill-opacity="1" d="M 740.519531 669.929688 L 733.125 668.683594 L 735.269531 664.574219 L 740.519531 669.929688 "/>
<path fill="none" stroke-width="1.5" stroke-linecap="butt" stroke-linejoin="miter" stroke="rgb(12.156863%, 47.058824%, 70.588235%)" stroke-opacity="1" stroke-miterlimit="10" d="M 737.984375 666.578125 C 730.972656 671.429688 725.824219 678.101562 725.9375 686.550781 "/>
<path fill-rule="nonzero" fill="rgb(12.156863%, 47.058824%, 70.588235%)" fill-opacity="1" d="M 726.03125 693.683594 L 723.621094 686.582031 L 728.253906 686.519531 L 726.03125 693.683594 "/>
<path fill="none" stroke-width="1.5" stroke-linecap="butt" stroke-linejoin="miter" stroke="rgb(12.156863%, 47.058824%, 70.588235%)" stroke-opacity="1" stroke-miterlimit="10" d="M 708 739.058594 C 706.804688 739.589844 705.171875 741.222656 705.617188 741.726562 "/>
<path fill-rule="nonzero" fill="rgb(12.156863%, 47.058824%, 70.588235%)" fill-opacity="1" d="M 710.351562 747.0625 L 703.882812 743.261719 L 707.351562 740.1875 L 710.351562 747.0625 "/>
<path fill="none" stroke-width="1.5" stroke-linecap="butt" stroke-linejoin="miter" stroke="rgb(12.156863%, 47.058824%, 70.588235%)" stroke-opacity="1" stroke-miterlimit="10" d="M 720.328125 717.175781 C 714.835938 719.539062 710.035156 723.410156 709.277344 729.230469 "/>
<path fill-rule="nonzero" fill="rgb(12.156863%, 47.058824%, 70.588235%)" fill-opacity="1" d="M 708.359375 736.304688 L 706.980469 728.929688 L 711.578125 729.527344 L 708.359375 736.304688 "/>
<path fill="none" stroke-width="1.5" stroke-linecap="butt" stroke-linejoin="miter" stroke="rgb(12.156863%, 47.058824%, 70.588235%)" stroke-opacity="1" stroke-miterlimit="10" d="M 739.890625 581.089844 C 738.5 582.757812 737.109375 585.382812 738.296875 586.8125 "/>
<path fill-rule="nonzero" fill="rgb(12.156863%, 47.058824%, 70.588235%)" fill-opacity="1" d="M 742.851562 592.304688 L 736.511719 588.292969 L 740.078125 585.332031 L 742.851562 592.304688 "/>
<path fill="none" stroke-width="5.5" stroke-linecap="butt" stroke-linejoin="miter" stroke="rgb(70.196078%, 70.196078%, 70.196078%)" stroke-opacity="1" stroke-miterlimit="10" d="M 534.796875 404.585938 C 546.074219 432.410156 565.515625 452.457031 594.171875 461.34375 "/>
<path fill-rule="nonzero" fill="rgb(70.196078%, 70.196078%, 70.196078%)" fill-opacity="1" d="M 600.984375 463.457031 L 593.484375 463.558594 L 594.855469 459.128906 L 600.984375 463.457031 "/>
<path fill="none" stroke-width="5.5" stroke-linecap="butt" stroke-linejoin="miter" stroke="rgb(70.196078%, 70.196078%, 70.196078%)" stroke-opacity="1" stroke-miterlimit="10" d="M 605.394531 464.824219 C 616.8125 492.707031 636.398438 512.746094 665.183594 521.5625 "/>
<path fill-rule="nonzero" fill="rgb(70.196078%, 70.196078%, 70.196078%)" fill-opacity="1" d="M 672 523.652344 L 664.503906 523.777344 L 665.859375 519.347656 L 672 523.652344 "/>
<path fill="none" stroke-width="5.5" stroke-linecap="butt" stroke-linejoin="miter" stroke="rgb(70.196078%, 70.196078%, 70.196078%)" stroke-opacity="1" stroke-miterlimit="10" d="M 116.269531 97.902344 C 121.410156 109.574219 129.792969 118.503906 142.191406 121.253906 "/>
<path fill-rule="nonzero" fill="rgb(70.196078%, 70.196078%, 70.196078%)" fill-opacity="1" d="M 149.152344 122.796875 L 141.6875 123.515625 L 142.691406 118.992188 L 149.152344 122.796875 "/>
<path fill="none" stroke-width="5.5" stroke-linecap="butt" stroke-linejoin="miter" stroke="rgb(70.196078%, 70.196078%, 70.196078%)" stroke-opacity="1" stroke-miterlimit="10" d="M 321.703125 241.171875 C 334.917969 265.894531 354.9375 282.660156 382.429688 288.007812 "/>
<path fill-rule="nonzero" fill="rgb(70.196078%, 70.196078%, 70.196078%)" fill-opacity="1" d="M 389.429688 289.371094 L 381.988281 290.28125 L 382.871094 285.734375 L 389.429688 289.371094 "/>
<path fill="none" stroke-width="5.5" stroke-linecap="butt" stroke-linejoin="miter" stroke="rgb(70.196078%, 70.196078%, 70.196078%)" stroke-opacity="1" stroke-miterlimit="10" d="M 202.359375 155.203125 C 211.78125 174.59375 226.617188 188.34375 247.632812 193 "/>
<path fill-rule="nonzero" fill="rgb(70.196078%, 70.196078%, 70.196078%)" fill-opacity="1" d="M 254.597656 194.542969 L 247.132812 195.261719 L 248.132812 190.738281 L 254.597656 194.542969 "/>
<path fill="none" stroke-width="5.5" stroke-linecap="butt" stroke-linejoin="miter" stroke="rgb(70.196078%, 70.196078%, 70.196078%)" stroke-opacity="1" stroke-miterlimit="10" d="M 63.273438 57.839844 C 63.875 62.402344 65.695312 67.0625 69.894531 68.554688 "/>
<path fill-rule="nonzero" fill="rgb(70.196078%, 70.196078%, 70.196078%)" fill-opacity="1" d="M 76.613281 70.941406 L 69.117188 70.738281 L 70.667969 66.367188 L 76.613281 70.941406 "/>
<path fill="none" stroke-width="5.5" stroke-linecap="butt" stroke-linejoin="miter" stroke="rgb(70.196078%, 70.196078%, 70.196078%)" stroke-opacity="1" stroke-miterlimit="10" d="M 81.171875 72.558594 C 85.609375 83.554688 93.132812 92.179688 104.589844 95.011719 "/>
<path fill-rule="nonzero" fill="rgb(70.196078%, 70.196078%, 70.196078%)" fill-opacity="1" d="M 111.511719 96.726562 L 104.03125 97.261719 L 105.144531 92.765625 L 111.511719 96.726562 "/>
<path fill-rule="nonzero" fill="rgb(14.901961%, 14.901961%, 14.901961%)" fill-opacity="1" stroke-width="1" stroke-linecap="butt" stroke-linejoin="miter" stroke="rgb(14.901961%, 14.901961%, 14.901961%)" stroke-opacity="1" stroke-miterlimit="10" d="M 713.984375 584.074219 L 720.832031 570.371094 L 727.683594 584.074219 Z M 713.984375 584.074219 "/>
<path fill-rule="nonzero" fill="rgb(14.901961%, 14.901961%, 14.901961%)" fill-opacity="1" stroke-width="1" stroke-linecap="butt" stroke-linejoin="miter" stroke="rgb(14.901961%, 14.901961%, 14.901961%)" stroke-opacity="1" stroke-miterlimit="10" d="M 723.765625 603.722656 L 730.613281 590.023438 L 737.464844 603.722656 Z M 723.765625 603.722656 "/>
<path fill-rule="nonzero" fill="rgb(14.901961%, 14.901961%, 14.901961%)" fill-opacity="1" stroke-width="1" stroke-linecap="butt" stroke-linejoin="miter" stroke="rgb(14.901961%, 14.901961%, 14.901961%)" stroke-opacity="1" stroke-miterlimit="10" d="M 735.226562 617.164062 L 743.078125 601.464844 L 750.929688 617.164062 Z M 735.226562 617.164062 "/>
<path fill-rule="nonzero" fill="rgb(70.196078%, 70.196078%, 70.196078%)" fill-opacity="1" stroke-width="1" stroke-linecap="butt" stroke-linejoin="miter" stroke="rgb(70.196078%, 70.196078%, 70.196078%)" stroke-opacity="1" stroke-miterlimit="10" d="M 754.851562 610.324219 C 754.851562 616.792969 745.148438 616.792969 745.148438 610.324219 C 745.148438 603.859375 754.851562 603.859375 754.851562 610.324219 "/>
<path fill-rule="nonzero" fill="rgb(12.156863%, 47.058824%, 70.588235%)" fill-opacity="1" stroke-width="1" stroke-linecap="butt" stroke-linejoin="miter" stroke="rgb(12.156863%, 47.058824%, 70.588235%)" stroke-opacity="1" stroke-miterlimit="10" d="M 719.714844 548.703125 C 719.714844 552.371094 714.214844 552.371094 714.214844 548.703125 C 714.214844 545.035156 719.714844 545.035156 719.714844 548.703125 "/>
<path fill-rule="nonzero" fill="rgb(98.431373%, 60.392157%, 60%)" fill-opacity="1" stroke-width="1" stroke-linecap="butt" stroke-linejoin="miter" stroke="rgb(98.431373%, 60.392157%, 60%)" stroke-opacity="1" stroke-miterlimit="10" d="M 742.242188 602.3125 C 742.242188 605.980469 736.742188 605.980469 736.742188 602.3125 C 736.742188 598.644531 742.242188 598.644531 742.242188 602.3125 "/>
<path fill-rule="nonzero" fill="rgb(70.196078%, 70.196078%, 70.196078%)" fill-opacity="1" stroke-width="1" stroke-linecap="butt" stroke-linejoin="miter" stroke="rgb(70.196078%, 70.196078%, 70.196078%)" stroke-opacity="1" stroke-miterlimit="10" d="M 467.117188 345.300781 C 467.117188 351.769531 457.414062 351.769531 457.414062 345.300781 C 457.414062 338.835938 467.117188 338.835938 467.117188 345.300781 "/>
<path fill-rule="nonzero" fill="rgb(70.196078%, 70.196078%, 70.196078%)" fill-opacity="1" stroke-width="1" stroke-linecap="butt" stroke-linejoin="miter" stroke="rgb(70.196078%, 70.196078%, 70.196078%)" stroke-opacity="1" stroke-miterlimit="10" d="M 158.792969 123.859375 C 158.792969 130.328125 149.09375 130.328125 149.09375 123.859375 C 149.09375 117.394531 158.792969 117.394531 158.792969 123.859375 "/>
<path fill-rule="nonzero" fill="rgb(70.196078%, 70.196078%, 70.196078%)" fill-opacity="1" stroke-width="1" stroke-linecap="butt" stroke-linejoin="miter" stroke="rgb(70.196078%, 70.196078%, 70.196078%)" stroke-opacity="1" stroke-miterlimit="10" d="M 735.152344 586.511719 C 735.152344 593.648438 724.453125 593.648438 724.453125 586.511719 C 724.453125 579.378906 735.152344 579.378906 735.152344 586.511719 "/>
<path fill-rule="nonzero" fill="rgb(98.431373%, 60.392157%, 60%)" fill-opacity="1" stroke-width="1" stroke-linecap="butt" stroke-linejoin="miter" stroke="rgb(98.431373%, 60.392157%, 60%)" stroke-opacity="1" stroke-miterlimit="10" d="M 739.90625 613.667969 C 739.90625 618 733.40625 618 733.40625 613.667969 C 733.40625 609.335938 739.90625 609.335938 739.90625 613.667969 "/>
<path fill-rule="nonzero" fill="rgb(70.196078%, 70.196078%, 70.196078%)" fill-opacity="1" stroke-width="1" stroke-linecap="butt" stroke-linejoin="miter" stroke="rgb(70.196078%, 70.196078%, 70.196078%)" stroke-opacity="1" stroke-miterlimit="10" d="M 745.078125 628.042969 C 745.078125 631.273438 742.460938 633.890625 739.230469 633.890625 C 736 633.890625 733.378906 631.273438 733.378906 628.042969 C 733.378906 624.8125 736 622.191406 739.230469 622.191406 C 742.460938 622.191406 745.078125 624.8125 745.078125 628.042969 "/>
<path fill-rule="nonzero" fill="rgb(12.156863%, 47.058824%, 70.588235%)" fill-opacity="1" stroke-width="1" stroke-linecap="butt" stroke-linejoin="miter" stroke="rgb(12.156863%, 47.058824%, 70.588235%)" stroke-opacity="1" stroke-miterlimit="10" d="M 745.792969 671.246094 C 745.792969 674.914062 740.292969 674.914062 740.292969 671.246094 C 740.292969 667.582031 745.792969 667.582031 745.792969 671.246094 "/>
<path fill-rule="nonzero" fill="rgb(98.431373%, 60.392157%, 60%)" fill-opacity="1" stroke-width="1" stroke-linecap="butt" stroke-linejoin="miter" stroke="rgb(98.431373%, 60.392157%, 60%)" stroke-opacity="1" stroke-miterlimit="10" d="M 736.441406 593.636719 C 736.441406 597.304688 730.941406 597.304688 730.941406 593.636719 C 730.941406 589.972656 736.441406 589.972656 736.441406 593.636719 "/>
<path fill-rule="nonzero" fill="rgb(12.156863%, 47.058824%, 70.588235%)" fill-opacity="1" stroke-width="1" stroke-linecap="butt" stroke-linejoin="miter" stroke="rgb(12.156863%, 47.058824%, 70.588235%)" stroke-opacity="1" stroke-miterlimit="10" d="M 728.820312 696.472656 C 728.820312 700.140625 723.320312 700.140625 723.320312 696.472656 C 723.320312 692.804688 728.820312 692.804688 728.820312 696.472656 "/>
<path fill-rule="nonzero" fill="rgb(70.196078%, 70.196078%, 70.196078%)" fill-opacity="1" stroke-width="1" stroke-linecap="butt" stroke-linejoin="miter" stroke="rgb(70.196078%, 70.196078%, 70.196078%)" stroke-opacity="1" stroke-miterlimit="10" d="M 681.269531 525.003906 C 681.269531 531.472656 671.566406 531.472656 671.566406 525.003906 C 671.566406 518.539062 681.269531 518.539062 681.269531 525.003906 "/>
<path fill-rule="nonzero" fill="rgb(12.156863%, 47.058824%, 70.588235%)" fill-opacity="1" stroke-width="1" stroke-linecap="butt" stroke-linejoin="miter" stroke="rgb(12.156863%, 47.058824%, 70.588235%)" stroke-opacity="1" stroke-miterlimit="10" d="M 747.355469 594.417969 C 747.355469 598.085938 741.855469 598.085938 741.855469 594.417969 C 741.855469 590.75 747.355469 590.75 747.355469 594.417969 "/>
<path fill-rule="nonzero" fill="rgb(12.156863%, 47.058824%, 70.588235%)" fill-opacity="1" stroke-width="1" stroke-linecap="butt" stroke-linejoin="miter" stroke="rgb(12.156863%, 47.058824%, 70.588235%)" stroke-opacity="1" stroke-miterlimit="10" d="M 700.882812 536.441406 C 700.882812 540.105469 695.382812 540.105469 695.382812 536.441406 C 695.382812 532.773438 700.882812 532.773438 700.882812 536.441406 "/>
<path fill-rule="nonzero" fill="rgb(70.196078%, 70.196078%, 70.196078%)" fill-opacity="1" stroke-width="1" stroke-linecap="butt" stroke-linejoin="miter" stroke="rgb(70.196078%, 70.196078%, 70.196078%)" stroke-opacity="1" stroke-miterlimit="10" d="M 398.8125 290.25 C 398.8125 296.71875 389.113281 296.71875 389.113281 290.25 C 389.113281 283.785156 398.8125 283.785156 398.8125 290.25 "/>
<path fill-rule="nonzero" fill="rgb(70.196078%, 70.196078%, 70.196078%)" fill-opacity="1" stroke-width="1" stroke-linecap="butt" stroke-linejoin="miter" stroke="rgb(70.196078%, 70.196078%, 70.196078%)" stroke-opacity="1" stroke-miterlimit="10" d="M 264.261719 195.609375 C 264.261719 202.074219 254.5625 202.074219 254.5625 195.609375 C 254.5625 189.140625 264.261719 189.140625 264.261719 195.609375 "/>
<path fill-rule="nonzero" fill="rgb(100%, 84.313725%, 0%)" fill-opacity="1" stroke-width="1" stroke-linecap="butt" stroke-linejoin="miter" stroke="rgb(100%, 84.313725%, 0%)" stroke-opacity="1" stroke-miterlimit="10" d="M 44.648438 44.648438 L 55.347656 44.648438 L 55.347656 55.347656 L 44.648438 55.347656 Z M 44.648438 44.648438 "/>
<path fill-rule="nonzero" fill="rgb(98.431373%, 60.392157%, 60%)" fill-opacity="1" stroke-width="1" stroke-linecap="butt" stroke-linejoin="miter" stroke="rgb(98.431373%, 60.392157%, 60%)" stroke-opacity="1" stroke-miterlimit="10" d="M 744.523438 619.886719 C 744.523438 623.554688 739.023438 623.554688 739.023438 619.886719 C 739.023438 616.21875 744.523438 616.21875 744.523438 619.886719 "/>
<path fill-rule="nonzero" fill="rgb(12.156863%, 47.058824%, 70.588235%)" fill-opacity="1" stroke-width="1" stroke-linecap="butt" stroke-linejoin="miter" stroke="rgb(12.156863%, 47.058824%, 70.588235%)" stroke-opacity="1" stroke-miterlimit="10" d="M 733.792969 563.894531 C 733.792969 567.558594 728.292969 567.558594 728.292969 563.894531 C 728.292969 560.226562 733.792969 560.226562 733.792969 563.894531 "/>
<path fill-rule="nonzero" fill="rgb(12.156863%, 47.058824%, 70.588235%)" fill-opacity="1" stroke-width="1" stroke-linecap="butt" stroke-linejoin="miter" stroke="rgb(12.156863%, 47.058824%, 70.588235%)" stroke-opacity="1" stroke-miterlimit="10" d="M 741.234375 666.578125 C 741.234375 670.914062 734.734375 670.914062 734.734375 666.578125 C 734.734375 662.246094 741.234375 662.246094 741.234375 666.578125 "/>
<path fill-rule="nonzero" fill="rgb(14.901961%, 14.901961%, 14.901961%)" fill-opacity="1" stroke-width="1" stroke-linecap="butt" stroke-linejoin="miter" stroke="rgb(14.901961%, 14.901961%, 14.901961%)" stroke-opacity="1" stroke-miterlimit="10" d="M 709.203125 753.75 L 712.953125 746.25 L 716.703125 753.75 Z M 709.203125 753.75 "/>
<path fill-rule="nonzero" fill="rgb(12.156863%, 47.058824%, 70.588235%)" fill-opacity="1" stroke-width="1" stroke-linecap="butt" stroke-linejoin="miter" stroke="rgb(12.156863%, 47.058824%, 70.588235%)" stroke-opacity="1" stroke-miterlimit="10" d="M 710.75 739.058594 C 710.75 742.726562 705.25 742.726562 705.25 739.058594 C 705.25 735.394531 710.75 735.394531 710.75 739.058594 "/>
<path fill-rule="nonzero" fill="rgb(12.156863%, 47.058824%, 70.588235%)" fill-opacity="1" stroke-width="1" stroke-linecap="butt" stroke-linejoin="miter" stroke="rgb(12.156863%, 47.058824%, 70.588235%)" stroke-opacity="1" stroke-miterlimit="10" d="M 723.078125 717.175781 C 723.078125 720.84375 717.578125 720.84375 717.578125 717.175781 C 717.578125 713.511719 723.078125 713.511719 723.078125 717.175781 "/>
<path fill-rule="nonzero" fill="rgb(12.156863%, 47.058824%, 70.588235%)" fill-opacity="1" stroke-width="1" stroke-linecap="butt" stroke-linejoin="miter" stroke="rgb(12.156863%, 47.058824%, 70.588235%)" stroke-opacity="1" stroke-miterlimit="10" d="M 742.640625 581.089844 C 742.640625 584.757812 737.140625 584.757812 737.140625 581.089844 C 737.140625 577.425781 742.640625 577.425781 742.640625 581.089844 "/>
<path fill-rule="nonzero" fill="rgb(70.196078%, 70.196078%, 70.196078%)" fill-opacity="1" stroke-width="1" stroke-linecap="butt" stroke-linejoin="miter" stroke="rgb(70.196078%, 70.196078%, 70.196078%)" stroke-opacity="1" stroke-miterlimit="10" d="M 539.644531 404.585938 C 539.644531 411.054688 529.945312 411.054688 529.945312 404.585938 C 529.945312 398.121094 539.644531 398.121094 539.644531 404.585938 "/>
<path fill-rule="nonzero" fill="rgb(70.196078%, 70.196078%, 70.196078%)" fill-opacity="1" stroke-width="1" stroke-linecap="butt" stroke-linejoin="miter" stroke="rgb(70.196078%, 70.196078%, 70.196078%)" stroke-opacity="1" stroke-miterlimit="10" d="M 610.246094 464.824219 C 610.246094 471.292969 600.542969 471.292969 600.542969 464.824219 C 600.542969 458.359375 610.246094 458.359375 610.246094 464.824219 "/>
<path fill-rule="nonzero" fill="rgb(70.196078%, 70.196078%, 70.196078%)" fill-opacity="1" stroke-width="1" stroke-linecap="butt" stroke-linejoin="miter" stroke="rgb(70.196078%, 70.196078%, 70.196078%)" stroke-opacity="1" stroke-miterlimit="10" d="M 121.121094 97.902344 C 121.121094 104.371094 111.421875 104.371094 111.421875 97.902344 C 111.421875 91.4375 121.121094 91.4375 121.121094 97.902344 "/>
<path fill-rule="nonzero" fill="rgb(70.196078%, 70.196078%, 70.196078%)" fill-opacity="1" stroke-width="1" stroke-linecap="butt" stroke-linejoin="miter" stroke="rgb(70.196078%, 70.196078%, 70.196078%)" stroke-opacity="1" stroke-miterlimit="10" d="M 326.550781 241.171875 C 326.550781 247.640625 316.851562 247.640625 316.851562 241.171875 C 316.851562 234.707031 326.550781 234.707031 326.550781 241.171875 "/>
<path fill-rule="nonzero" fill="rgb(70.196078%, 70.196078%, 70.196078%)" fill-opacity="1" stroke-width="1" stroke-linecap="butt" stroke-linejoin="miter" stroke="rgb(70.196078%, 70.196078%, 70.196078%)" stroke-opacity="1" stroke-miterlimit="10" d="M 207.207031 155.203125 C 207.207031 161.667969 197.507812 161.667969 197.507812 155.203125 C 197.507812 148.734375 207.207031 148.734375 207.207031 155.203125 "/>
<path fill-rule="nonzero" fill="rgb(70.196078%, 70.196078%, 70.196078%)" fill-opacity="1" stroke-width="1" stroke-linecap="butt" stroke-linejoin="miter" stroke="rgb(70.196078%, 70.196078%, 70.196078%)" stroke-opacity="1" stroke-miterlimit="10" d="M 68.125 57.839844 C 68.125 64.308594 58.425781 64.308594 58.425781 57.839844 C 58.425781 51.375 68.125 51.375 68.125 57.839844 "/>
<path fill-rule="nonzero" fill="rgb(70.196078%, 70.196078%, 70.196078%)" fill-opacity="1" stroke-width="1" stroke-linecap="butt" stroke-linejoin="miter" stroke="rgb(70.196078%, 70.196078%, 70.196078%)" stroke-opacity="1" stroke-miterlimit="10" d="M 86.019531 72.558594 C 86.019531 79.023438 76.320312 79.023438 76.320312 72.558594 C 76.320312 66.089844 86.019531 66.089844 86.019531 72.558594 "/>
</svg>
