<?xml version="1.0" encoding="UTF-8"?>
<svg xmlns="http://www.w3.org/2000/svg" xmlns:xlink="http://www.w3.org/1999/xlink" width="800" height="800" viewBox="0 0 800 800">
<rect x="-80" y="-80" width="960" height="960" fill="rgb(100%, 100%, 100%)" fill-opacity="1"/>
<path fill="none" stroke-width="5.5" stroke-linecap="butt" stroke-linejoin="miter" stroke="rgb(70.196078%, 70.196078%, 70.196078%)" stroke-opacity="1" stroke-miterlimit="10" d="M 693.847656 62.546875 C 695.035156 62.460938 696.929688 61.328125 696.714844 61.003906 "/>
<path fill-rule="nonzero" fill="rgb(70.196078%, 70.196078%, 70.196078%)" fill-opacity="1" d="M 692.800781 55.042969 L 698.652344 59.730469 L 694.78125 62.273438 L 692.800781 55.042969 "/>
<path fill="none" stroke-width="5.5" stroke-linecap="butt" stroke-linejoin="miter" stroke="rgb(70.196078%, 70.196078%, 70.196078%)" stroke-opacity="1" stroke-miterlimit="10" d="M 700.292969 81.988281 C 702.074219 78.789062 703.269531 74.761719 701.144531 72.011719 "/>
<path fill-rule="nonzero" fill="rgb(70.196078%, 70.196078%, 70.196078%)" fill-opacity="1" d="M 696.789062 66.363281 L 702.980469 70.59375 L 699.3125 73.425781 L 696.789062 66.363281 "/>
<path fill="none" stroke-width="5.5" stroke-linecap="butt" stroke-linejoin="miter" stroke="rgb(70.196078%, 70.196078%, 70.196078%)" stroke-opacity="1" stroke-miterlimit="10" d="M 706.46875 107.539062 C 708.984375 102.414062 710.121094 96.5625 706.996094 91.925781 "/>
<path fill-rule="nonzero" fill="rgb(70.196078%, 70.196078%, 70.196078%)" fill-opacity="1" d="M 703.003906 86.011719 L 708.914062 90.628906 L 705.074219 93.21875 L 703.003906 86.011719 "/>
<path fill="none" stroke-width="5.5" stroke-linecap="butt" stroke-linejoin="miter" stroke="rgb(70.196078%, 70.196078%, 70.196078%)" stroke-opacity="1" stroke-miterlimit="10" d="M 715.902344 141.488281 C 718.816406 133.042969 719.011719 124.226562 713.6875 117.144531 "/>
<path fill-rule="nonzero" fill="rgb(70.196078%, 70.196078%, 70.196078%)" fill-opacity="1" d="M 709.402344 111.445312 L 715.542969 115.753906 L 711.835938 118.539062 L 709.402344 111.445312 "/>
<path fill="none" stroke-width="5.5" stroke-linecap="butt" stroke-linejoin="miter" stroke="rgb(70.196078%, 70.196078%, 70.196078%)" stroke-opacity="1" stroke-miterlimit="10" d="M 724.636719 177.421875 C 727.949219 168.449219 728.304688 159.070312 722.832031 151.3125 "/>
<path fill-rule="nonzero" fill="rgb(70.196078%, 70.196078%, 70.196078%)" fill-opacity="1" d="M 718.71875 145.484375 L 724.726562 149.976562 L 720.9375 152.648438 L 718.71875 145.484375 "/>
<path fill="none" stroke-width="5.5" stroke-linecap="butt" stroke-linejoin="miter" stroke="rgb(70.196078%, 70.196078%, 70.196078%)" stroke-opacity="1" stroke-miterlimit="10" d="M 732.207031 224.582031 C 737.296875 212.09375 737.859375 199.195312 730.886719 187.714844 "/>
<path fill-rule="nonzero" fill="rgb(70.196078%, 70.196078%, 70.196078%)" fill-opacity="1" d="M 727.183594 181.617188 L 732.867188 186.511719 L 728.90625 188.917969 L 727.183594 181.617188 "/>
<path fill="none" stroke-width="5.5" stroke-linecap="butt" stroke-linejoin="miter" stroke="rgb(70.196078%, 70.196078%, 70.196078%)" stroke-opacity="1" stroke-miterlimit="10" d="M 738.503906 272.742188 C 744.042969 260.125 744.949219 246.980469 738.160156 235.046875 "/>
<path fill-rule="nonzero" fill="rgb(70.196078%, 70.196078%, 70.196078%)" fill-opacity="1" d="M 734.632812 228.847656 L 740.175781 233.902344 L 736.148438 236.195312 L 734.632812 228.847656 "/>
<path fill="none" stroke-width="5.5" stroke-linecap="butt" stroke-linejoin="miter" stroke="rgb(70.196078%, 70.196078%, 70.196078%)" stroke-opacity="1" stroke-miterlimit="10" d="M 744.390625 320.664062 C 749.996094 308.191406 751.015625 295.148438 744.375 283.253906 "/>
<path fill-rule="nonzero" fill="rgb(70.196078%, 70.196078%, 70.196078%)" fill-opacity="1" d="M 740.898438 277.027344 L 746.398438 282.125 L 742.351562 284.386719 L 740.898438 277.027344 "/>
<path fill="none" stroke-width="5.5" stroke-linecap="butt" stroke-linejoin="miter" stroke="rgb(70.196078%, 70.196078%, 70.196078%)" stroke-opacity="1" stroke-miterlimit="10" d="M 747.734375 370.113281 C 754.179688 357.53125 755.886719 344.132812 749.691406 331.480469 "/>
<path fill-rule="nonzero" fill="rgb(70.196078%, 70.196078%, 70.196078%)" fill-opacity="1" d="M 746.550781 325.074219 L 751.769531 330.460938 L 747.609375 332.5 L 746.550781 325.074219 "/>
<path fill="none" stroke-width="5.5" stroke-linecap="butt" stroke-linejoin="miter" stroke="rgb(70.196078%, 70.196078%, 70.196078%)" stroke-opacity="1" stroke-miterlimit="10" d="M 750 420.527344 C 756.851562 407.785156 758.851562 394.132812 752.792969 381.046875 "/>
<path fill-rule="nonzero" fill="rgb(70.196078%, 70.196078%, 70.196078%)" fill-opacity="1" d="M 749.796875 374.574219 L 754.898438 380.074219 L 750.691406 382.019531 L 749.796875 374.574219 "/>
<path fill="none" stroke-width="5.5" stroke-linecap="butt" stroke-linejoin="miter" stroke="rgb(70.196078%, 70.196078%, 70.196078%)" stroke-opacity="1" stroke-miterlimit="10" d="M 747.257812 474.566406 C 755.914062 461.355469 759.277344 446.734375 754.023438 431.886719 "/>
<path fill-rule="nonzero" fill="rgb(70.196078%, 70.196078%, 70.196078%)" fill-opacity="1" d="M 751.640625 425.160156 L 756.207031 431.113281 L 751.835938 432.660156 L 751.640625 425.160156 "/>
<path fill="none" stroke-width="5.5" stroke-linecap="butt" stroke-linejoin="miter" stroke="rgb(70.196078%, 70.196078%, 70.196078%)" stroke-opacity="1" stroke-miterlimit="10" d="M 661.273438 683.792969 C 672.285156 679.703125 681.046875 672.488281 684.15625 661.21875 "/>
<path fill-rule="nonzero" fill="rgb(70.196078%, 70.196078%, 70.196078%)" fill-opacity="1" d="M 686.058594 654.34375 L 686.390625 661.835938 L 681.921875 660.601562 L 686.058594 654.34375 "/>
<path fill="none" stroke-width="5.5" stroke-linecap="butt" stroke-linejoin="miter" stroke="rgb(70.196078%, 70.196078%, 70.196078%)" stroke-opacity="1" stroke-miterlimit="10" d="M 629.628906 709.109375 C 640.425781 708.015625 650.015625 703.640625 655.335938 694.257812 "/>
<path fill-rule="nonzero" fill="rgb(70.196078%, 70.196078%, 70.196078%)" fill-opacity="1" d="M 658.855469 688.050781 L 657.351562 695.398438 L 653.320312 693.113281 L 658.855469 688.050781 "/>
<path fill="none" stroke-width="5.5" stroke-linecap="butt" stroke-linejoin="miter" stroke="rgb(70.196078%, 70.196078%, 70.196078%)" stroke-opacity="1" stroke-miterlimit="10" d="M 594.882812 728.945312 C 605.53125 729.558594 615.53125 726.8125 622.136719 718.519531 "/>
<path fill-rule="nonzero" fill="rgb(70.196078%, 70.196078%, 70.196078%)" fill-opacity="1" d="M 626.582031 712.9375 L 623.949219 719.960938 L 620.324219 717.074219 L 626.582031 712.9375 "/>
<path fill="none" stroke-width="5.5" stroke-linecap="butt" stroke-linejoin="miter" stroke="rgb(70.196078%, 70.196078%, 70.196078%)" stroke-opacity="1" stroke-miterlimit="10" d="M 552.703125 738.984375 C 563.953125 742.8125 575.417969 742.742188 585.0625 735.90625 "/>
<path fill-rule="nonzero" fill="rgb(70.196078%, 70.196078%, 70.196078%)" fill-opacity="1" d="M 590.882812 731.78125 L 586.402344 737.796875 L 583.722656 734.015625 L 590.882812 731.78125 "/>
<path fill="none" stroke-width="5.5" stroke-linecap="butt" stroke-linejoin="miter" stroke="rgb(70.196078%, 70.196078%, 70.196078%)" stroke-opacity="1" stroke-miterlimit="10" d="M 740.054688 522.304688 C 748.800781 511.800781 753.289062 499.511719 750.085938 486.273438 "/>
<path fill-rule="nonzero" fill="rgb(70.196078%, 70.196078%, 70.196078%)" fill-opacity="1" d="M 748.410156 479.339844 L 752.339844 485.730469 L 747.835938 486.816406 L 748.410156 479.339844 "/>
<path fill="none" stroke-width="5.5" stroke-linecap="butt" stroke-linejoin="miter" stroke="rgb(70.196078%, 70.196078%, 70.196078%)" stroke-opacity="1" stroke-miterlimit="10" d="M 727.144531 566.71875 C 736.722656 558.027344 742.605469 547.09375 741.285156 534.28125 "/>
<path fill-rule="nonzero" fill="rgb(70.196078%, 70.196078%, 70.196078%)" fill-opacity="1" d="M 740.554688 527.1875 L 743.589844 534.042969 L 738.980469 534.519531 L 740.554688 527.1875 "/>
<path fill="none" stroke-width="5.5" stroke-linecap="butt" stroke-linejoin="miter" stroke="rgb(70.196078%, 70.196078%, 70.196078%)" stroke-opacity="1" stroke-miterlimit="10" d="M 712.664062 613.859375 C 723.121094 604.480469 729.480469 592.660156 728.222656 578.714844 "/>
<path fill-rule="nonzero" fill="rgb(70.196078%, 70.196078%, 70.196078%)" fill-opacity="1" d="M 727.582031 571.613281 L 730.53125 578.507812 L 725.914062 578.925781 L 727.582031 571.613281 "/>
<path fill="none" stroke-width="5.5" stroke-linecap="butt" stroke-linejoin="miter" stroke="rgb(70.196078%, 70.196078%, 70.196078%)" stroke-opacity="1" stroke-miterlimit="10" d="M 511.011719 744.925781 C 521.425781 749.640625 532.433594 750.679688 542.28125 744.996094 "/>
<path fill-rule="nonzero" fill="rgb(70.196078%, 70.196078%, 70.196078%)" fill-opacity="1" d="M 548.460938 741.433594 L 543.441406 747.003906 L 541.125 742.992188 L 548.460938 741.433594 "/>
<path fill="none" stroke-width="5.5" stroke-linecap="butt" stroke-linejoin="miter" stroke="rgb(70.196078%, 70.196078%, 70.196078%)" stroke-opacity="1" stroke-miterlimit="10" d="M 468.828125 749.726562 C 479.222656 754.773438 490.3125 756.109375 500.425781 750.644531 "/>
<path fill-rule="nonzero" fill="rgb(70.196078%, 70.196078%, 70.196078%)" fill-opacity="1" d="M 506.703125 747.253906 L 501.527344 752.683594 L 499.324219 748.605469 L 506.703125 747.253906 "/>
<path fill="none" stroke-width="5.5" stroke-linecap="butt" stroke-linejoin="miter" stroke="rgb(70.196078%, 70.196078%, 70.196078%)" stroke-opacity="1" stroke-miterlimit="10" d="M 687.363281 649.621094 C 698.480469 644.984375 707.128906 637.238281 709.890625 625.574219 "/>
<path fill-rule="nonzero" fill="rgb(70.196078%, 70.196078%, 70.196078%)" fill-opacity="1" d="M 711.535156 618.632812 L 712.148438 626.105469 L 707.636719 625.039062 L 711.535156 618.632812 "/>
<path fill="none" stroke-width="5.5" stroke-linecap="butt" stroke-linejoin="miter" stroke="rgb(70.196078%, 70.196078%, 70.196078%)" stroke-opacity="1" stroke-miterlimit="10" d="M 423.417969 750 C 434.199219 756.578125 446.070312 759.101562 457.699219 754.3125 "/>
<path fill-rule="nonzero" fill="rgb(70.196078%, 70.196078%, 70.196078%)" fill-opacity="1" d="M 464.292969 751.59375 L 458.582031 756.453125 L 456.816406 752.167969 L 464.292969 751.59375 "/>
<path fill="none" stroke-width="5.5" stroke-linecap="butt" stroke-linejoin="miter" stroke="rgb(70.196078%, 70.196078%, 70.196078%)" stroke-opacity="1" stroke-miterlimit="10" d="M 375.015625 737.132812 C 385.007812 747.40625 397.308594 753.375 411.472656 751.542969 "/>
<path fill-rule="nonzero" fill="rgb(70.196078%, 70.196078%, 70.196078%)" fill-opacity="1" d="M 418.546875 750.628906 L 411.769531 753.84375 L 411.175781 749.246094 L 418.546875 750.628906 "/>
<path fill="none" stroke-width="5.5" stroke-linecap="butt" stroke-linejoin="miter" stroke="rgb(70.196078%, 70.196078%, 70.196078%)" stroke-opacity="1" stroke-miterlimit="10" d="M 329.933594 724.449219 C 338.867188 734.09375 350.039062 739.9375 363.050781 738.476562 "/>
<path fill-rule="nonzero" fill="rgb(70.196078%, 70.196078%, 70.196078%)" fill-opacity="1" d="M 370.140625 737.679688 L 363.308594 740.78125 L 362.792969 736.171875 L 370.140625 737.679688 "/>
<path fill="none" stroke-width="5.5" stroke-linecap="butt" stroke-linejoin="miter" stroke="rgb(70.196078%, 70.196078%, 70.196078%)" stroke-opacity="1" stroke-miterlimit="10" d="M 291.035156 706.332031 C 297.375 716.1875 306.273438 723.183594 317.914062 723.808594 "/>
<path fill-rule="nonzero" fill="rgb(70.196078%, 70.196078%, 70.196078%)" fill-opacity="1" d="M 325.039062 724.1875 L 317.792969 726.121094 L 318.039062 721.492188 L 325.039062 724.1875 "/>
<path fill="none" stroke-width="5.5" stroke-linecap="butt" stroke-linejoin="miter" stroke="rgb(70.196078%, 70.196078%, 70.196078%)" stroke-opacity="1" stroke-miterlimit="10" d="M 251.355469 685.378906 C 257.628906 696.109375 266.746094 703.855469 279.0625 705.113281 "/>
<path fill-rule="nonzero" fill="rgb(70.196078%, 70.196078%, 70.196078%)" fill-opacity="1" d="M 286.15625 705.835938 L 278.828125 707.417969 L 279.296875 702.804688 L 286.15625 705.835938 "/>
<path fill="none" stroke-width="5.5" stroke-linecap="butt" stroke-linejoin="miter" stroke="rgb(70.196078%, 70.196078%, 70.196078%)" stroke-opacity="1" stroke-miterlimit="10" d="M 82.496094 573.5 C 85.4375 581.484375 90.605469 588.160156 98.804688 590.117188 "/>
<path fill-rule="nonzero" fill="rgb(70.196078%, 70.196078%, 70.196078%)" fill-opacity="1" d="M 105.746094 591.777344 L 98.269531 592.375 L 99.34375 587.863281 L 105.746094 591.777344 "/>
<path fill="none" stroke-width="5.5" stroke-linecap="butt" stroke-linejoin="miter" stroke="rgb(70.196078%, 70.196078%, 70.196078%)" stroke-opacity="1" stroke-miterlimit="10" d="M 212.894531 662.390625 C 218.582031 673.417969 227.253906 681.625 239.460938 683.523438 "/>
<path fill-rule="nonzero" fill="rgb(70.196078%, 70.196078%, 70.196078%)" fill-opacity="1" d="M 246.507812 684.621094 L 239.101562 685.816406 L 239.816406 681.234375 L 246.507812 684.621094 "/>
<path fill="none" stroke-width="5.5" stroke-linecap="butt" stroke-linejoin="miter" stroke="rgb(70.196078%, 70.196078%, 70.196078%)" stroke-opacity="1" stroke-miterlimit="10" d="M 141.25 615.0625 C 146.054688 625.652344 153.785156 633.804688 165.128906 636.078125 "/>
<path fill-rule="nonzero" fill="rgb(70.196078%, 70.196078%, 70.196078%)" fill-opacity="1" d="M 172.121094 637.480469 L 164.671875 638.351562 L 165.582031 633.804688 L 172.121094 637.480469 "/>
<path fill="none" stroke-width="5.5" stroke-linecap="butt" stroke-linejoin="miter" stroke="rgb(70.196078%, 70.196078%, 70.196078%)" stroke-opacity="1" stroke-miterlimit="10" d="M 110.492188 592.910156 C 113.976562 602.179688 120.054688 609.71875 129.589844 612.121094 "/>
<path fill-rule="nonzero" fill="rgb(70.196078%, 70.196078%, 70.196078%)" fill-opacity="1" d="M 136.507812 613.867188 L 129.023438 614.371094 L 130.15625 609.875 L 136.507812 613.867188 "/>
<path fill="none" stroke-width="5.5" stroke-linecap="butt" stroke-linejoin="miter" stroke="rgb(70.196078%, 70.196078%, 70.196078%)" stroke-opacity="1" stroke-miterlimit="10" d="M 176.925781 638.445312 C 181.761719 649.238281 189.585938 657.554688 201.113281 659.945312 "/>
<path fill-rule="nonzero" fill="rgb(70.196078%, 70.196078%, 70.196078%)" fill-opacity="1" d="M 208.097656 661.394531 L 200.640625 662.214844 L 201.582031 657.675781 L 208.097656 661.394531 "/>
<path fill="none" stroke-width="5.5" stroke-linecap="butt" stroke-linejoin="miter" stroke="rgb(70.196078%, 70.196078%, 70.196078%)" stroke-opacity="1" stroke-miterlimit="10" d="M 50 541.550781 C 48.957031 539.082031 46.449219 538.214844 44.632812 536.5625 "/>
<path fill-rule="nonzero" fill="rgb(70.196078%, 70.196078%, 70.196078%)" fill-opacity="1" d="M 49.914062 541.355469 L 43.074219 538.28125 L 46.191406 534.847656 L 49.914062 541.355469 "/>
<path fill="none" stroke-width="5.5" stroke-linecap="butt" stroke-linejoin="miter" stroke="rgb(70.196078%, 70.196078%, 70.196078%)" stroke-opacity="1" stroke-miterlimit="10" d="M 65.046875 556.660156 C 65.414062 561.632812 67.113281 566.683594 71.546875 568.648438 "/>
<path fill-rule="nonzero" fill="rgb(70.196078%, 70.196078%, 70.196078%)" fill-opacity="1" d="M 78.066406 571.539062 L 70.609375 570.765625 L 72.484375 566.53125 L 78.066406 571.539062 "/>
<path fill="none" stroke-width="5.5" stroke-linecap="butt" stroke-linejoin="miter" stroke="rgb(70.196078%, 70.196078%, 70.196078%)" stroke-opacity="1" stroke-miterlimit="10" d="M 53.507812 544.617188 C 52.84375 546.804688 52.566406 549.875 54.308594 550.824219 "/>
<path fill-rule="nonzero" fill="rgb(70.196078%, 70.196078%, 70.196078%)" fill-opacity="1" d="M 60.574219 554.230469 L 53.199219 552.859375 L 55.414062 548.785156 L 60.574219 554.230469 "/>
<path fill-rule="nonzero" fill="rgb(14.901961%, 14.901961%, 14.901961%)" fill-opacity="1" stroke-width="1" stroke-linecap="butt" stroke-linejoin="miter" stroke="rgb(14.901961%, 14.901961%, 14.901961%)" stroke-opacity="1" stroke-miterlimit="10" d="M 683.636719 55.851562 L 689.484375 44.148438 L 695.335938 55.851562 Z M 683.636719 55.851562 "/>
<path fill-rule="nonzero" fill="rgb(70.196078%, 70.196078%, 70.196078%)" fill-opacity="1" stroke-width="1" stroke-linecap="butt" stroke-linejoin="miter" stroke="rgb(70.196078%, 70.196078%, 70.196078%)" stroke-opacity="1" stroke-miterlimit="10" d="M 698.699219 62.546875 C 698.699219 69.011719 689 69.011719 689 62.546875 C 689 56.078125 698.699219 56.078125 698.699219 62.546875 "/>
<path fill-rule="nonzero" fill="rgb(70.196078%, 70.196078%, 70.196078%)" fill-opacity="1" stroke-width="1" stroke-linecap="butt" stroke-linejoin="miter" stroke="rgb(70.196078%, 70.196078%, 70.196078%)" stroke-opacity="1" stroke-miterlimit="10" d="M 705.144531 81.988281 C 705.144531 88.457031 695.441406 88.457031 695.441406 81.988281 C 695.441406 75.523438 705.144531 75.523438 705.144531 81.988281 "/>
<path fill-rule="nonzero" fill="rgb(70.196078%, 70.196078%, 70.196078%)" fill-opacity="1" stroke-width="1" stroke-linecap="butt" stroke-linejoin="miter" stroke="rgb(70.196078%, 70.196078%, 70.196078%)" stroke-opacity="1" stroke-miterlimit="10" d="M 711.316406 107.539062 C 711.316406 114.007812 701.617188 114.007812 701.617188 107.539062 C 701.617188 101.074219 711.316406 101.074219 711.316406 107.539062 "/>
<path fill-rule="nonzero" fill="rgb(70.196078%, 70.196078%, 70.196078%)" fill-opacity="1" stroke-width="1" stroke-linecap="butt" stroke-linejoin="miter" stroke="rgb(70.196078%, 70.196078%, 70.196078%)" stroke-opacity="1" stroke-miterlimit="10" d="M 720.753906 141.488281 C 720.753906 147.957031 711.054688 147.957031 711.054688 141.488281 C 711.054688 135.023438 720.753906 135.023438 720.753906 141.488281 "/>
<path fill-rule="nonzero" fill="rgb(70.196078%, 70.196078%, 70.196078%)" fill-opacity="1" stroke-width="1" stroke-linecap="butt" stroke-linejoin="miter" stroke="rgb(70.196078%, 70.196078%, 70.196078%)" stroke-opacity="1" stroke-miterlimit="10" d="M 729.484375 177.421875 C 729.484375 183.886719 719.785156 183.886719 719.785156 177.421875 C 719.785156 170.957031 729.484375 170.957031 729.484375 177.421875 "/>
<path fill-rule="nonzero" fill="rgb(70.196078%, 70.196078%, 70.196078%)" fill-opacity="1" stroke-width="1" stroke-linecap="butt" stroke-linejoin="miter" stroke="rgb(70.196078%, 70.196078%, 70.196078%)" stroke-opacity="1" stroke-miterlimit="10" d="M 737.054688 224.582031 C 737.054688 231.046875 727.355469 231.046875 727.355469 224.582031 C 727.355469 218.113281 737.054688 218.113281 737.054688 224.582031 "/>
<path fill-rule="nonzero" fill="rgb(70.196078%, 70.196078%, 70.196078%)" fill-opacity="1" stroke-width="1" stroke-linecap="butt" stroke-linejoin="miter" stroke="rgb(70.196078%, 70.196078%, 70.196078%)" stroke-opacity="1" stroke-miterlimit="10" d="M 743.351562 272.742188 C 743.351562 279.207031 733.652344 279.207031 733.652344 272.742188 C 733.652344 266.273438 743.351562 266.273438 743.351562 272.742188 "/>
<path fill-rule="nonzero" fill="rgb(70.196078%, 70.196078%, 70.196078%)" fill-opacity="1" stroke-width="1" stroke-linecap="butt" stroke-linejoin="miter" stroke="rgb(70.196078%, 70.196078%, 70.196078%)" stroke-opacity="1" stroke-miterlimit="10" d="M 749.242188 320.664062 C 749.242188 327.128906 739.542969 327.128906 739.542969 320.664062 C 739.542969 314.195312 749.242188 314.195312 749.242188 320.664062 "/>
<path fill-rule="nonzero" fill="rgb(70.196078%, 70.196078%, 70.196078%)" fill-opacity="1" stroke-width="1" stroke-linecap="butt" stroke-linejoin="miter" stroke="rgb(70.196078%, 70.196078%, 70.196078%)" stroke-opacity="1" stroke-miterlimit="10" d="M 752.582031 370.113281 C 752.582031 376.582031 742.882812 376.582031 742.882812 370.113281 C 742.882812 363.648438 752.582031 363.648438 752.582031 370.113281 "/>
<path fill-rule="nonzero" fill="rgb(70.196078%, 70.196078%, 70.196078%)" fill-opacity="1" stroke-width="1" stroke-linecap="butt" stroke-linejoin="miter" stroke="rgb(70.196078%, 70.196078%, 70.196078%)" stroke-opacity="1" stroke-miterlimit="10" d="M 754.851562 420.527344 C 754.851562 426.992188 745.148438 426.992188 745.148438 420.527344 C 745.148438 414.058594 754.851562 414.058594 754.851562 420.527344 "/>
<path fill-rule="nonzero" fill="rgb(70.196078%, 70.196078%, 70.196078%)" fill-opacity="1" stroke-width="1" stroke-linecap="butt" stroke-linejoin="miter" stroke="rgb(70.196078%, 70.196078%, 70.196078%)" stroke-opacity="1" stroke-miterlimit="10" d="M 752.105469 474.566406 C 752.105469 481.035156 742.40625 481.035156 742.40625 474.566406 C 742.40625 468.101562 752.105469 468.101562 752.105469 474.566406 "/>
<path fill-rule="nonzero" fill="rgb(70.196078%, 70.196078%, 70.196078%)" fill-opacity="1" stroke-width="1" stroke-linecap="butt" stroke-linejoin="miter" stroke="rgb(70.196078%, 70.196078%, 70.196078%)" stroke-opacity="1" stroke-miterlimit="10" d="M 666.121094 683.792969 C 666.121094 690.257812 656.421875 690.257812 656.421875 683.792969 C 656.421875 677.328125 666.121094 677.328125 666.121094 683.792969 "/>
<path fill-rule="nonzero" fill="rgb(70.196078%, 70.196078%, 70.196078%)" fill-opacity="1" stroke-width="1" stroke-linecap="butt" stroke-linejoin="miter" stroke="rgb(70.196078%, 70.196078%, 70.196078%)" stroke-opacity="1" stroke-miterlimit="10" d="M 634.480469 709.109375 C 634.480469 715.574219 624.78125 715.574219 624.78125 709.109375 C 624.78125 702.640625 634.480469 702.640625 634.480469 709.109375 "/>
<path fill-rule="nonzero" fill="rgb(70.196078%, 70.196078%, 70.196078%)" fill-opacity="1" stroke-width="1" stroke-linecap="butt" stroke-linejoin="miter" stroke="rgb(70.196078%, 70.196078%, 70.196078%)" stroke-opacity="1" stroke-miterlimit="10" d="M 599.730469 728.945312 C 599.730469 735.414062 590.03125 735.414062 590.03125 728.945312 C 590.03125 722.480469 599.730469 722.480469 599.730469 728.945312 "/>
<path fill-rule="nonzero" fill="rgb(70.196078%, 70.196078%, 70.196078%)" fill-opacity="1" stroke-width="1" stroke-linecap="butt" stroke-linejoin="miter" stroke="rgb(70.196078%, 70.196078%, 70.196078%)" stroke-opacity="1" stroke-miterlimit="10" d="M 557.554688 738.984375 C 557.554688 745.453125 547.855469 745.453125 547.855469 738.984375 C 547.855469 732.519531 557.554688 732.519531 557.554688 738.984375 "/>
<path fill-rule="nonzero" fill="rgb(70.196078%, 70.196078%, 70.196078%)" fill-opacity="1" stroke-width="1" stroke-linecap="butt" stroke-linejoin="miter" stroke="rgb(70.196078%, 70.196078%, 70.196078%)" stroke-opacity="1" stroke-miterlimit="10" d="M 744.902344 522.304688 C 744.902344 528.769531 735.203125 528.769531 735.203125 522.304688 C 735.203125 515.835938 744.902344 515.835938 744.902344 522.304688 "/>
<path fill-rule="nonzero" fill="rgb(70.196078%, 70.196078%, 70.196078%)" fill-opacity="1" stroke-width="1" stroke-linecap="butt" stroke-linejoin="miter" stroke="rgb(70.196078%, 70.196078%, 70.196078%)" stroke-opacity="1" stroke-miterlimit="10" d="M 731.992188 566.71875 C 731.992188 573.1875 722.292969 573.1875 722.292969 566.71875 C 722.292969 560.253906 731.992188 560.253906 731.992188 566.71875 "/>
<path fill-rule="nonzero" fill="rgb(70.196078%, 70.196078%, 70.196078%)" fill-opacity="1" stroke-width="1" stroke-linecap="butt" stroke-linejoin="miter" stroke="rgb(70.196078%, 70.196078%, 70.196078%)" stroke-opacity="1" stroke-miterlimit="10" d="M 717.515625 613.859375 C 717.515625 620.328125 707.816406 620.328125 707.816406 613.859375 C 707.816406 607.394531 717.515625 607.394531 717.515625 613.859375 "/>
<path fill-rule="nonzero" fill="rgb(70.196078%, 70.196078%, 70.196078%)" fill-opacity="1" stroke-width="1" stroke-linecap="butt" stroke-linejoin="miter" stroke="rgb(70.196078%, 70.196078%, 70.196078%)" stroke-opacity="1" stroke-miterlimit="10" d="M 515.863281 744.925781 C 515.863281 751.390625 506.164062 751.390625 506.164062 744.925781 C 506.164062 738.457031 515.863281 738.457031 515.863281 744.925781 "/>
<path fill-rule="nonzero" fill="rgb(70.196078%, 70.196078%, 70.196078%)" fill-opacity="1" stroke-width="1" stroke-linecap="butt" stroke-linejoin="miter" stroke="rgb(70.196078%, 70.196078%, 70.196078%)" stroke-opacity="1" stroke-miterlimit="10" d="M 473.679688 749.726562 C 473.679688 756.191406 463.980469 756.191406 463.980469 749.726562 C 463.980469 743.257812 473.679688 743.257812 473.679688 749.726562 "/>
<path fill-rule="nonzero" fill="rgb(70.196078%, 70.196078%, 70.196078%)" fill-opacity="1" stroke-width="1" stroke-linecap="butt" stroke-linejoin="miter" stroke="rgb(70.196078%, 70.196078%, 70.196078%)" stroke-opacity="1" stroke-miterlimit="10" d="M 692.210938 649.621094 C 692.210938 656.085938 682.511719 656.085938 682.511719 649.621094 C 682.511719 643.152344 692.210938 643.152344 692.210938 649.621094 "/>
<path fill-rule="nonzero" fill="rgb(70.196078%, 70.196078%, 70.196078%)" fill-opacity="1" stroke-width="1" stroke-linecap="butt" stroke-linejoin="miter" stroke="rgb(70.196078%, 70.196078%, 70.196078%)" stroke-opacity="1" stroke-miterlimit="10" d="M 428.269531 750 C 428.269531 756.464844 418.570312 756.464844 418.570312 750 C 418.570312 743.535156 428.269531 743.535156 428.269531 750 "/>
<path fill-rule="nonzero" fill="rgb(70.196078%, 70.196078%, 70.196078%)" fill-opacity="1" stroke-width="1" stroke-linecap="butt" stroke-linejoin="miter" stroke="rgb(70.196078%, 70.196078%, 70.196078%)" stroke-opacity="1" stroke-miterlimit="10" d="M 379.867188 737.132812 C 379.867188 743.601562 370.167969 743.601562 370.167969 737.132812 C 370.167969 730.667969 379.867188 730.667969 379.867188 737.132812 "/>
<path fill-rule="nonzero" fill="rgb(70.196078%, 70.196078%, 70.196078%)" fill-opacity="1" stroke-width="1" stroke-linecap="butt" stroke-linejoin="miter" stroke="rgb(70.196078%, 70.196078%, 70.196078%)" stroke-opacity="1" stroke-miterlimit="10" d="M 334.78125 724.449219 C 334.78125 730.917969 325.082031 730.917969 325.082031 724.449219 C 325.082031 717.984375 334.78125 717.984375 334.78125 724.449219 "/>
<path fill-rule="nonzero" fill="rgb(70.196078%, 70.196078%, 70.196078%)" fill-opacity="1" stroke-width="1" stroke-linecap="butt" stroke-linejoin="miter" stroke="rgb(70.196078%, 70.196078%, 70.196078%)" stroke-opacity="1" stroke-miterlimit="10" d="M 295.886719 706.332031 C 295.886719 712.796875 286.1875 712.796875 286.1875 706.332031 C 286.1875 699.863281 295.886719 699.863281 295.886719 706.332031 "/>
<path fill-rule="nonzero" fill="rgb(70.196078%, 70.196078%, 70.196078%)" fill-opacity="1" stroke-width="1" stroke-linecap="butt" stroke-linejoin="miter" stroke="rgb(70.196078%, 70.196078%, 70.196078%)" stroke-opacity="1" stroke-miterlimit="10" d="M 256.203125 685.378906 C 256.203125 691.84375 246.503906 691.84375 246.503906 685.378906 C 246.503906 678.910156 256.203125 678.910156 256.203125 685.378906 "/>
<path fill-rule="nonzero" fill="rgb(70.196078%, 70.196078%, 70.196078%)" fill-opacity="1" stroke-width="1" stroke-linecap="butt" stroke-linejoin="miter" stroke="rgb(70.196078%, 70.196078%, 70.196078%)" stroke-opacity="1" stroke-miterlimit="10" d="M 87.34375 573.5 C 87.34375 579.964844 77.644531 579.964844 77.644531 573.5 C 77.644531 567.03125 87.34375 567.03125 87.34375 573.5 "/>
<path fill-rule="nonzero" fill="rgb(70.196078%, 70.196078%, 70.196078%)" fill-opacity="1" stroke-width="1" stroke-linecap="butt" stroke-linejoin="miter" stroke="rgb(70.196078%, 70.196078%, 70.196078%)" stroke-opacity="1" stroke-miterlimit="10" d="M 217.746094 662.390625 C 217.746094 668.855469 208.046875 668.855469 208.046875 662.390625 C 208.046875 655.921875 217.746094 655.921875 217.746094 662.390625 "/>
<path fill-rule="nonzero" fill="rgb(70.196078%, 70.196078%, 70.196078%)" fill-opacity="1" stroke-width="1" stroke-linecap="butt" stroke-linejoin="miter" stroke="rgb(70.196078%, 70.196078%, 70.196078%)" stroke-opacity="1" stroke-miterlimit="10" d="M 146.097656 615.0625 C 146.097656 621.53125 136.398438 621.53125 136.398438 615.0625 C 136.398438 608.597656 146.097656 608.597656 146.097656 615.0625 "/>
<path fill-rule="nonzero" fill="rgb(70.196078%, 70.196078%, 70.196078%)" fill-opacity="1" stroke-width="1" stroke-linecap="butt" stroke-linejoin="miter" stroke="rgb(70.196078%, 70.196078%, 70.196078%)" stroke-opacity="1" stroke-miterlimit="10" d="M 115.339844 592.910156 C 115.339844 599.375 105.640625 599.375 105.640625 592.910156 C 105.640625 586.441406 115.339844 586.441406 115.339844 592.910156 "/>
<path fill-rule="nonzero" fill="rgb(70.196078%, 70.196078%, 70.196078%)" fill-opacity="1" stroke-width="1" stroke-linecap="butt" stroke-linejoin="miter" stroke="rgb(70.196078%, 70.196078%, 70.196078%)" stroke-opacity="1" stroke-miterlimit="10" d="M 181.777344 638.445312 C 181.777344 644.910156 172.078125 644.910156 172.078125 638.445312 C 172.078125 631.976562 181.777344 631.976562 181.777344 638.445312 "/>
<path fill-rule="nonzero" fill="rgb(100%, 84.313725%, 0%)" fill-opacity="1" stroke-width="1" stroke-linecap="butt" stroke-linejoin="miter" stroke="rgb(100%, 84.313725%, 0%)" stroke-opacity="1" stroke-miterlimit="10" d="M 44.648438 536.199219 L 55.347656 536.199219 L 55.347656 546.898438 L 44.648438 546.898438 Z M 44.648438 536.199219 "/>
<path fill-rule="nonzero" fill="rgb(70.196078%, 70.196078%, 70.196078%)" fill-opacity="1" stroke-width="1" stroke-linecap="butt" stroke-linejoin="miter" stroke="rgb(70.196078%, 70.196078%, 70.196078%)" stroke-opacity="1" stroke-miterlimit="10" d="M 69.898438 556.660156 C 69.898438 563.128906 60.195312 563.128906 60.195312 556.660156 C 60.195312 550.195312 69.898438 550.195312 69.898438 556.660156 "/>
<path fill-rule="nonzero" fill="rgb(70.196078%, 70.196078%, 70.196078%)" fill-opacity="1" stroke-width="1" stroke-linecap="butt" stroke-linejoin="miter" stroke="rgb(70.196078%, 70.196078%, 70.196078%)" stroke-opacity="1" stroke-miterlimit="10" d="M 58.359375 544.617188 C 58.359375 551.082031 48.65625 551.082031 48.65625 544.617188 C 48.65625 538.148438 58.359375 538.148438 58.359375 544.617188 "/>
</svg>
