<?xml version="1.0" encoding="UTF-8"?>
<svg xmlns="http://www.w3.org/2000/svg" xmlns:xlink="http://www.w3.org/1999/xlink" width="800" height="800" viewBox="0 0 800 800">
<rect x="-80" y="-80" width="960" height="960" fill="rgb(100%, 100%, 100%)" fill-opacity="1"/>
<path fill="none" stroke-width="1.5" stroke-linecap="butt" stroke-linejoin="miter" stroke="rgb(41.568627%, 23.921569%, 60.392157%)" stroke-opacity="1" stroke-miterlimit="10" d="M 648.648438 533.398438 C 688.605469 529.503906 721.328125 511.960938 743.957031 478.820312 "/>
<path fill-rule="nonzero" fill="rgb(41.568627%, 23.921569%, 60.392157%)" fill-opacity="1" d="M 747.980469 472.929688 L 745.871094 480.128906 L 742.042969 477.515625 L 747.980469 472.929688 "/>
<path fill="none" stroke-width="2.5" stroke-linecap="butt" stroke-linejoin="miter" stroke="rgb(70.196078%, 70.196078%, 70.196078%)" stroke-opacity="1" stroke-miterlimit="10" d="M 648.648438 533.398438 C 629.011719 461.558594 586.316406 408.078125 519.011719 376.21875 "/>
<path fill-rule="nonzero" fill="rgb(70.196078%, 70.196078%, 70.196078%)" fill-opacity="1" d="M 512.5625 373.167969 L 520.003906 374.125 L 518.019531 378.3125 L 512.5625 373.167969 "/>
<path fill="none" stroke-width="5.5" stroke-linecap="butt" stroke-linejoin="miter" stroke="rgb(70.196078%, 70.196078%, 70.196078%)" stroke-opacity="1" stroke-miterlimit="10" d="M 672.824219 750 C 697.730469 678.800781 692.839844 609.664062 655.027344 544.40625 "/>
<path fill-rule="nonzero" fill="rgb(70.196078%, 70.196078%, 70.196078%)" fill-opacity="1" d="M 651.449219 538.234375 L 657.03125 543.246094 L 653.019531 545.570312 L 651.449219 538.234375 "/>
<path fill="none" stroke-width="1.5" stroke-linecap="butt" stroke-linejoin="miter" stroke="rgb(12.156863%, 47.058824%, 70.588235%)" stroke-opacity="1" stroke-miterlimit="10" d="M 507.511719 370.777344 C 498.429688 325.910156 474.632812 291.003906 434.484375 269.039062 "/>
<path fill-rule="nonzero" fill="rgb(12.156863%, 47.058824%, 70.588235%)" fill-opacity="1" d="M 428.226562 265.617188 L 435.597656 267.003906 L 433.371094 271.074219 L 428.226562 265.617188 "/>
<path fill="none" stroke-width="1.5" stroke-linecap="butt" stroke-linejoin="miter" stroke="rgb(12.156863%, 47.058824%, 70.588235%)" stroke-opacity="1" stroke-miterlimit="10" d="M 425.917969 264.351562 C 393.921875 247.511719 360.574219 244.429688 327.179688 258.257812 "/>
<path fill-rule="nonzero" fill="rgb(12.156863%, 47.058824%, 70.588235%)" fill-opacity="1" d="M 320.589844 260.988281 L 326.292969 256.117188 L 328.066406 260.398438 L 320.589844 260.988281 "/>
<path fill="none" stroke-width="1.5" stroke-linecap="butt" stroke-linejoin="miter" stroke="rgb(12.156863%, 47.058824%, 70.588235%)" stroke-opacity="1" stroke-miterlimit="10" d="M 253.242188 138.886719 C 233.347656 95.359375 200.824219 65.515625 154.75 52.628906 "/>
<path fill-rule="nonzero" fill="rgb(12.156863%, 47.058824%, 70.588235%)" fill-opacity="1" d="M 147.878906 50.707031 L 155.371094 50.398438 L 154.125 54.863281 L 147.878906 50.707031 "/>
<path fill="none" stroke-width="1.5" stroke-linecap="butt" stroke-linejoin="miter" stroke="rgb(12.156863%, 47.058824%, 70.588235%)" stroke-opacity="1" stroke-miterlimit="10" d="M 145.34375 50 C 116.140625 38.332031 86.933594 38.542969 59.386719 53.675781 "/>
<path fill-rule="nonzero" fill="rgb(12.156863%, 47.058824%, 70.588235%)" fill-opacity="1" d="M 53.136719 57.109375 L 58.273438 51.644531 L 60.503906 55.707031 L 53.136719 57.109375 "/>
<path fill="none" stroke-width="1.5" stroke-linecap="butt" stroke-linejoin="miter" stroke="rgb(12.156863%, 47.058824%, 70.588235%)" stroke-opacity="1" stroke-miterlimit="10" d="M 318.160156 261.992188 C 316.632812 214.386719 298.246094 174.480469 260.898438 144.941406 "/>
<path fill-rule="nonzero" fill="rgb(12.156863%, 47.058824%, 70.588235%)" fill-opacity="1" d="M 255.304688 140.515625 L 262.335938 143.125 L 259.460938 146.761719 L 255.304688 140.515625 "/>
<path fill-rule="nonzero" fill="rgb(14.901961%, 14.901961%, 14.901961%)" fill-opacity="1" stroke-width="1" stroke-linecap="butt" stroke-linejoin="miter" stroke="rgb(14.901961%, 14.901961%, 14.901961%)" stroke-opacity="1" stroke-miterlimit="10" d="M 642.796875 539.246094 L 648.648438 527.546875 L 654.496094 539.246094 Z M 642.796875 539.246094 "/>
<path fill-rule="nonzero" fill="rgb(100%, 84.313725%, 0%)" fill-opacity="1" stroke-width="1" stroke-linecap="butt" stroke-linejoin="miter" stroke="rgb(100%, 84.313725%, 0%)" stroke-opacity="1" stroke-miterlimit="10" d="M 667.472656 744.648438 L 678.171875 744.648438 L 678.171875 755.347656 L 667.472656 755.347656 Z M 667.472656 744.648438 "/>
<path fill-rule="nonzero" fill="rgb(14.901961%, 14.901961%, 14.901961%)" fill-opacity="1" stroke-width="1" stroke-linecap="butt" stroke-linejoin="miter" stroke="rgb(14.901961%, 14.901961%, 14.901961%)" stroke-opacity="1" stroke-miterlimit="10" d="M 746.25 473.722656 L 750 466.222656 L 753.75 473.722656 Z M 746.25 473.722656 "/>
<path fill-rule="nonzero" fill="rgb(14.901961%, 14.901961%, 14.901961%)" fill-opacity="1" stroke-width="1" stroke-linecap="butt" stroke-linejoin="miter" stroke="rgb(14.901961%, 14.901961%, 14.901961%)" stroke-opacity="1" stroke-miterlimit="10" d="M 501.660156 376.625 L 507.511719 364.925781 L 513.359375 376.625 Z M 501.660156 376.625 "/>
<path fill-rule="nonzero" fill="rgb(12.156863%, 47.058824%, 70.588235%)" fill-opacity="1" stroke-width="1" stroke-linecap="butt" stroke-linejoin="miter" stroke="rgb(12.156863%, 47.058824%, 70.588235%)" stroke-opacity="1" stroke-miterlimit="10" d="M 428.667969 264.351562 C 428.667969 268.019531 423.167969 268.019531 423.167969 264.351562 C 423.167969 260.6875 428.667969 260.6875 428.667969 264.351562 "/>
<path fill-rule="nonzero" fill="rgb(12.156863%, 47.058824%, 70.588235%)" fill-opacity="1" stroke-width="1" stroke-linecap="butt" stroke-linejoin="miter" stroke="rgb(12.156863%, 47.058824%, 70.588235%)" stroke-opacity="1" stroke-miterlimit="10" d="M 255.992188 138.886719 C 255.992188 142.550781 250.492188 142.550781 250.492188 138.886719 C 250.492188 135.21875 255.992188 135.21875 255.992188 138.886719 "/>
<path fill-rule="nonzero" fill="rgb(12.156863%, 47.058824%, 70.588235%)" fill-opacity="1" stroke-width="1" stroke-linecap="butt" stroke-linejoin="miter" stroke="rgb(12.156863%, 47.058824%, 70.588235%)" stroke-opacity="1" stroke-miterlimit="10" d="M 148.09375 50 C 148.09375 53.667969 142.59375 53.667969 142.59375 50 C 142.59375 46.332031 148.09375 46.332031 148.09375 50 "/>
<path fill-rule="nonzero" fill="rgb(14.901961%, 14.901961%, 14.901961%)" fill-opacity="1" stroke-width="1" stroke-linecap="butt" stroke-linejoin="miter" stroke="rgb(14.901961%, 14.901961%, 14.901961%)" stroke-opacity="1" stroke-miterlimit="10" d="M 46.25 62.582031 L 50 55.082031 L 53.75 62.582031 Z M 46.25 62.582031 "/>
<path fill-rule="nonzero" fill="rgb(12.156863%, 47.058824%, 70.588235%)" fill-opacity="1" stroke-width="1" stroke-linecap="butt" stroke-linejoin="miter" stroke="rgb(12.156863%, 47.058824%, 70.588235%)" stroke-opacity="1" stroke-miterlimit="10" d="M 320.910156 261.992188 C 320.910156 265.660156 315.410156 265.660156 315.410156 261.992188 C 315.410156 258.324219 320.910156 258.324219 320.910156 261.992188 "/>
</svg>
