<?xml version="1.0" encoding="UTF-8"?>
<svg xmlns="http://www.w3.org/2000/svg" xmlns:xlink="http://www.w3.org/1999/xlink" width="800" height="800" viewBox="0 0 800 800">
<rect x="-80" y="-80" width="960" height="960" fill="rgb(100%, 100%, 100%)" fill-opacity="1"/>
<path fill="none" stroke-width="4.5" stroke-linecap="butt" stroke-linejoin="miter" stroke="rgb(70.196078%, 70.196078%, 70.196078%)" stroke-opacity="1" stroke-miterlimit="10" d="M 723.289062 736.882812 C 724.65625 737.246094 727.050781 737.097656 727.101562 736.25 "/>
<path fill-rule="nonzero" fill="rgb(70.196078%, 70.196078%, 70.196078%)" fill-opacity="1" d="M 727.515625 729.128906 L 729.414062 736.386719 L 724.789062 736.117188 L 727.515625 729.128906 "/>
<path fill="none" stroke-width="4.5" stroke-linecap="butt" stroke-linejoin="miter" stroke="rgb(70.196078%, 70.196078%, 70.196078%)" stroke-opacity="1" stroke-miterlimit="10" d="M 57.957031 61.101562 C 56.964844 64.859375 56.820312 69.25 59.703125 71.582031 "/>
<path fill-rule="nonzero" fill="rgb(70.196078%, 70.196078%, 70.196078%)" fill-opacity="1" d="M 65.246094 76.070312 L 58.242188 73.382812 L 61.160156 69.78125 L 65.246094 76.070312 "/>
<path fill="none" stroke-width="4.5" stroke-linecap="butt" stroke-linejoin="miter" stroke="rgb(70.196078%, 70.196078%, 70.196078%)" stroke-opacity="1" stroke-miterlimit="10" d="M 50 50 C 48.925781 50.945312 47.6875 53.023438 48.378906 53.570312 "/>
<path fill-rule="nonzero" fill="rgb(70.196078%, 70.196078%, 70.196078%)" fill-opacity="1" d="M 53.984375 57.980469 L 46.949219 55.390625 L 49.8125 51.75 L 53.984375 57.980469 "/>
<path fill="none" stroke-width="1.5" stroke-linecap="butt" stroke-linejoin="miter" stroke="rgb(12.156863%, 47.058824%, 70.588235%)" stroke-opacity="1" stroke-miterlimit="10" d="M 50 50 C 48.332031 51.308594 46.453125 53.554688 47.3125 55.136719 "/>
<path fill-rule="nonzero" fill="rgb(12.156863%, 47.058824%, 70.588235%)" fill-opacity="1" d="M 50.710938 61.410156 L 45.273438 56.242188 L 49.347656 54.035156 L 50.710938 61.410156 "/>
<path fill="none" stroke-width="2.5" stroke-linecap="butt" stroke-linejoin="miter" stroke="rgb(70.196078%, 70.196078%, 70.196078%)" stroke-opacity="1" stroke-miterlimit="10" d="M 192.953125 270.171875 C 192.914062 276.195312 194.539062 282.222656 199.621094 285.246094 "/>
<path fill-rule="nonzero" fill="rgb(70.196078%, 70.196078%, 70.196078%)" fill-opacity="1" d="M 205.75 288.890625 L 198.4375 287.234375 L 200.804688 283.253906 L 205.75 288.890625 "/>
<path fill="none" stroke-width="1.5" stroke-linecap="butt" stroke-linejoin="miter" stroke="rgb(12.156863%, 47.058824%, 70.588235%)" stroke-opacity="1" stroke-miterlimit="10" d="M 52.019531 63.824219 C 52.34375 68.308594 53.847656 72.988281 57.863281 74.648438 "/>
<path fill-rule="nonzero" fill="rgb(12.156863%, 47.058824%, 70.588235%)" fill-opacity="1" d="M 64.453125 77.378906 L 56.976562 76.789062 L 58.75 72.507812 L 64.453125 77.378906 "/>
<path fill="none" stroke-width="1.5" stroke-linecap="butt" stroke-linejoin="miter" stroke="rgb(12.156863%, 47.058824%, 70.588235%)" stroke-opacity="1" stroke-miterlimit="10" d="M 152.859375 214.367188 C 152.355469 217.527344 152.554688 221.347656 155.152344 222.816406 "/>
<path fill-rule="nonzero" fill="rgb(12.156863%, 47.058824%, 70.588235%)" fill-opacity="1" d="M 161.359375 226.332031 L 154.011719 224.832031 L 156.292969 220.800781 L 161.359375 226.332031 "/>
<path fill="none" stroke-width="1.5" stroke-linecap="butt" stroke-linejoin="miter" stroke="rgb(12.156863%, 47.058824%, 70.588235%)" stroke-opacity="1" stroke-miterlimit="10" d="M 141.355469 198.789062 C 140.851562 202.691406 141.296875 207.074219 144.484375 209.085938 "/>
<path fill-rule="nonzero" fill="rgb(12.156863%, 47.058824%, 70.588235%)" fill-opacity="1" d="M 150.515625 212.890625 L 143.25 211.046875 L 145.722656 207.125 L 150.515625 212.890625 "/>
<path fill="none" stroke-width="1.5" stroke-linecap="butt" stroke-linejoin="miter" stroke="rgb(12.156863%, 47.058824%, 70.588235%)" stroke-opacity="1" stroke-miterlimit="10" d="M 583.4375 636.625 C 591.441406 645.828125 601.636719 651.609375 613.738281 650.597656 "/>
<path fill-rule="nonzero" fill="rgb(12.156863%, 47.058824%, 70.588235%)" fill-opacity="1" d="M 620.84375 650.003906 L 613.929688 652.90625 L 613.542969 648.289062 L 620.84375 650.003906 "/>
<path fill="none" stroke-width="1.5" stroke-linecap="butt" stroke-linejoin="miter" stroke="rgb(12.156863%, 47.058824%, 70.588235%)" stroke-opacity="1" stroke-miterlimit="10" d="M 540.4375 616.890625 C 548.601562 628.371094 559.65625 635.992188 573.691406 636.363281 "/>
<path fill-rule="nonzero" fill="rgb(12.156863%, 47.058824%, 70.588235%)" fill-opacity="1" d="M 580.820312 636.554688 L 573.628906 638.679688 L 573.75 634.046875 L 580.820312 636.554688 "/>
<path fill="none" stroke-width="1.5" stroke-linecap="butt" stroke-linejoin="miter" stroke="rgb(12.156863%, 47.058824%, 70.588235%)" stroke-opacity="1" stroke-miterlimit="10" d="M 662.011719 661.472656 C 668.71875 669.996094 677.539062 675.707031 688.3125 675.210938 "/>
<path fill-rule="nonzero" fill="rgb(12.156863%, 47.058824%, 70.588235%)" fill-opacity="1" d="M 695.4375 674.878906 L 688.421875 677.523438 L 688.207031 672.894531 L 695.4375 674.878906 "/>
<path fill="none" stroke-width="1.5" stroke-linecap="butt" stroke-linejoin="miter" stroke="rgb(12.156863%, 47.058824%, 70.588235%)" stroke-opacity="1" stroke-miterlimit="10" d="M 623.449219 649.785156 C 631.164062 658.355469 640.910156 663.71875 652.320312 662.503906 "/>
<path fill-rule="nonzero" fill="rgb(12.156863%, 47.058824%, 70.588235%)" fill-opacity="1" d="M 659.414062 661.75 L 652.566406 664.808594 L 652.074219 660.199219 L 659.414062 661.75 "/>
<path fill="none" stroke-width="4.5" stroke-linecap="butt" stroke-linejoin="miter" stroke="rgb(70.196078%, 70.196078%, 70.196078%)" stroke-opacity="1" stroke-miterlimit="10" d="M 723.976562 690.359375 C 725.546875 691.980469 728.085938 693.699219 729.722656 692.636719 "/>
<path fill-rule="nonzero" fill="rgb(70.196078%, 70.196078%, 70.196078%)" fill-opacity="1" d="M 735.710938 688.761719 L 730.980469 694.582031 L 728.460938 690.691406 L 735.710938 688.761719 "/>
<path fill="none" stroke-width="1.5" stroke-linecap="butt" stroke-linejoin="miter" stroke="rgb(12.156863%, 47.058824%, 70.588235%)" stroke-opacity="1" stroke-miterlimit="10" d="M 698.230469 674.75 C 700.46875 680.949219 704.417969 686.425781 710.777344 687.703125 "/>
<path fill-rule="nonzero" fill="rgb(12.156863%, 47.058824%, 70.588235%)" fill-opacity="1" d="M 717.769531 689.113281 L 710.320312 689.976562 L 711.234375 685.433594 L 717.769531 689.113281 "/>
<path fill="none" stroke-width="1.5" stroke-linecap="butt" stroke-linejoin="miter" stroke="rgb(12.156863%, 47.058824%, 70.588235%)" stroke-opacity="1" stroke-miterlimit="10" d="M 497.714844 596.839844 C 505.75 608.355469 516.703125 616.054688 530.691406 616.546875 "/>
<path fill-rule="nonzero" fill="rgb(12.156863%, 47.058824%, 70.588235%)" fill-opacity="1" d="M 537.820312 616.796875 L 530.613281 618.863281 L 530.773438 614.230469 L 537.820312 616.796875 "/>
<path fill="none" stroke-width="4.5" stroke-linecap="butt" stroke-linejoin="miter" stroke="rgb(70.196078%, 70.196078%, 70.196078%)" stroke-opacity="1" stroke-miterlimit="10" d="M 497.714844 596.839844 C 496.28125 596.359375 493.800781 596.261719 493.597656 597.242188 "/>
<path fill-rule="nonzero" fill="rgb(70.196078%, 70.196078%, 70.196078%)" fill-opacity="1" d="M 492.152344 604.226562 L 491.328125 596.773438 L 495.867188 597.714844 L 492.152344 604.226562 "/>
<path fill="none" stroke-width="2.5" stroke-linecap="butt" stroke-linejoin="miter" stroke="rgb(70.196078%, 70.196078%, 70.196078%)" stroke-opacity="1" stroke-miterlimit="10" d="M 177.265625 249.90625 C 177.015625 255.375 178.246094 261 182.785156 263.832031 "/>
<path fill-rule="nonzero" fill="rgb(70.196078%, 70.196078%, 70.196078%)" fill-opacity="1" d="M 188.835938 267.605469 L 181.558594 265.796875 L 184.011719 261.863281 L 188.835938 267.605469 "/>
<path fill="none" stroke-width="1.5" stroke-linecap="butt" stroke-linejoin="miter" stroke="rgb(12.156863%, 47.058824%, 70.588235%)" stroke-opacity="1" stroke-miterlimit="10" d="M 458.40625 563.628906 C 463.136719 577.507812 471.894531 588.40625 485.789062 592.945312 "/>
<path fill-rule="nonzero" fill="rgb(12.156863%, 47.058824%, 70.588235%)" fill-opacity="1" d="M 492.570312 595.160156 L 485.070312 595.148438 L 486.507812 590.742188 L 492.570312 595.160156 "/>
<path fill="none" stroke-width="1.5" stroke-linecap="butt" stroke-linejoin="miter" stroke="rgb(12.156863%, 47.058824%, 70.588235%)" stroke-opacity="1" stroke-miterlimit="10" d="M 419.1875 530.316406 C 424.585938 544.949219 434.21875 556.175781 449.085938 560.757812 "/>
<path fill-rule="nonzero" fill="rgb(12.156863%, 47.058824%, 70.588235%)" fill-opacity="1" d="M 455.902344 562.855469 L 448.402344 562.972656 L 449.769531 558.542969 L 455.902344 562.855469 "/>
<path fill="none" stroke-width="4.5" stroke-linecap="butt" stroke-linejoin="miter" stroke="rgb(70.196078%, 70.196078%, 70.196078%)" stroke-opacity="1" stroke-miterlimit="10" d="M 419.1875 530.316406 C 421.832031 546.460938 429.515625 559.9375 443.90625 567.625 "/>
<path fill-rule="nonzero" fill="rgb(70.196078%, 70.196078%, 70.196078%)" fill-opacity="1" d="M 450.199219 570.984375 L 442.816406 569.667969 L 445 565.582031 L 450.199219 570.984375 "/>
<path fill="none" stroke-width="5.5" stroke-linecap="butt" stroke-linejoin="miter" stroke="rgb(70.196078%, 70.196078%, 70.196078%)" stroke-opacity="1" stroke-miterlimit="10" d="M 347.574219 451.679688 C 356.804688 485.414062 376.617188 511.085938 408.472656 525.476562 "/>
<path fill-rule="nonzero" fill="rgb(70.196078%, 70.196078%, 70.196078%)" fill-opacity="1" d="M 414.972656 528.414062 L 407.519531 527.589844 L 409.425781 523.367188 L 414.972656 528.414062 "/>
<path fill="none" stroke-width="4.5" stroke-linecap="butt" stroke-linejoin="miter" stroke="rgb(70.196078%, 70.196078%, 70.196078%)" stroke-opacity="1" stroke-miterlimit="10" d="M 739.980469 685.996094 C 739.757812 687.097656 740.761719 688.890625 740.65625 688.996094 "/>
<path fill-rule="nonzero" fill="rgb(70.196078%, 70.196078%, 70.196078%)" fill-opacity="1" d="M 745.730469 683.984375 L 742.285156 690.644531 L 739.027344 687.347656 L 745.730469 683.984375 "/>
<path fill="none" stroke-width="4.5" stroke-linecap="butt" stroke-linejoin="miter" stroke="rgb(70.196078%, 70.196078%, 70.196078%)" stroke-opacity="1" stroke-miterlimit="10" d="M 728.648438 705.183594 C 730.023438 704.5 731.875 702.808594 731.316406 701.929688 "/>
<path fill-rule="nonzero" fill="rgb(70.196078%, 70.196078%, 70.196078%)" fill-opacity="1" d="M 727.496094 695.910156 L 733.273438 700.6875 L 729.359375 703.171875 L 727.496094 695.910156 "/>
<path fill="none" stroke-width="4.5" stroke-linecap="butt" stroke-linejoin="miter" stroke="rgb(70.196078%, 70.196078%, 70.196078%)" stroke-opacity="1" stroke-miterlimit="10" d="M 670.230469 742.394531 C 671.699219 745.957031 674.222656 749.519531 677.898438 749.632812 "/>
<path fill-rule="nonzero" fill="rgb(70.196078%, 70.196078%, 70.196078%)" fill-opacity="1" d="M 685.027344 749.851562 L 677.828125 751.949219 L 677.972656 747.316406 L 685.027344 749.851562 "/>
<path fill="none" stroke-width="4.5" stroke-linecap="butt" stroke-linejoin="miter" stroke="rgb(70.196078%, 70.196078%, 70.196078%)" stroke-opacity="1" stroke-miterlimit="10" d="M 639.054688 730.882812 C 643.6875 737.660156 650.09375 742.730469 658.21875 742.59375 "/>
<path fill-rule="nonzero" fill="rgb(70.196078%, 70.196078%, 70.196078%)" fill-opacity="1" d="M 665.351562 742.476562 L 658.257812 744.910156 L 658.179688 740.277344 L 665.351562 742.476562 "/>
<path fill="none" stroke-width="4.5" stroke-linecap="butt" stroke-linejoin="miter" stroke="rgb(70.196078%, 70.196078%, 70.196078%)" stroke-opacity="1" stroke-miterlimit="10" d="M 603.464844 712.101562 C 608.714844 721.484375 616.464844 728.484375 627.09375 729.613281 "/>
<path fill-rule="nonzero" fill="rgb(70.196078%, 70.196078%, 70.196078%)" fill-opacity="1" d="M 634.183594 730.367188 L 626.847656 731.917969 L 627.335938 727.308594 L 634.183594 730.367188 "/>
<path fill="none" stroke-width="4.5" stroke-linecap="butt" stroke-linejoin="miter" stroke="rgb(70.196078%, 70.196078%, 70.196078%)" stroke-opacity="1" stroke-miterlimit="10" d="M 562.492188 685.683594 C 568.574219 698.121094 578.070312 707.339844 591.625 709.882812 "/>
<path fill-rule="nonzero" fill="rgb(70.196078%, 70.196078%, 70.196078%)" fill-opacity="1" d="M 598.636719 711.199219 L 591.199219 712.160156 L 592.054688 707.605469 L 598.636719 711.199219 "/>
<path fill="none" stroke-width="4.5" stroke-linecap="butt" stroke-linejoin="miter" stroke="rgb(70.196078%, 70.196078%, 70.196078%)" stroke-opacity="1" stroke-miterlimit="10" d="M 528.59375 647.996094 C 531.40625 662.273438 538.582031 674.148438 551.644531 680.449219 "/>
<path fill-rule="nonzero" fill="rgb(70.196078%, 70.196078%, 70.196078%)" fill-opacity="1" d="M 558.066406 683.546875 L 550.636719 682.535156 L 552.648438 678.359375 L 558.066406 683.546875 "/>
<path fill="none" stroke-width="4.5" stroke-linecap="butt" stroke-linejoin="miter" stroke="rgb(70.196078%, 70.196078%, 70.196078%)" stroke-opacity="1" stroke-miterlimit="10" d="M 491.023438 609.671875 C 492.457031 610.15625 494.9375 610.253906 495.140625 609.269531 "/>
<path fill-rule="nonzero" fill="rgb(70.196078%, 70.196078%, 70.196078%)" fill-opacity="1" d="M 496.585938 602.285156 L 497.410156 609.742188 L 492.871094 608.800781 L 496.585938 602.285156 "/>
<path fill="none" stroke-width="4.5" stroke-linecap="butt" stroke-linejoin="miter" stroke="rgb(70.196078%, 70.196078%, 70.196078%)" stroke-opacity="1" stroke-miterlimit="10" d="M 491.023438 609.671875 C 494.816406 624.839844 503.183594 637.117188 517.515625 643.253906 "/>
<path fill-rule="nonzero" fill="rgb(70.196078%, 70.196078%, 70.196078%)" fill-opacity="1" d="M 524.070312 646.0625 L 516.601562 645.382812 L 518.425781 641.121094 L 524.070312 646.0625 "/>
<path fill="none" stroke-width="4.5" stroke-linecap="butt" stroke-linejoin="miter" stroke="rgb(70.196078%, 70.196078%, 70.196078%)" stroke-opacity="1" stroke-miterlimit="10" d="M 454.539062 573.304688 C 458.117188 587.542969 465.964844 599.140625 479.457031 604.8125 "/>
<path fill-rule="nonzero" fill="rgb(70.196078%, 70.196078%, 70.196078%)" fill-opacity="1" d="M 486.03125 607.574219 L 478.558594 606.949219 L 480.355469 602.675781 L 486.03125 607.574219 "/>
<path fill="none" stroke-width="5.5" stroke-linecap="butt" stroke-linejoin="miter" stroke="rgb(70.196078%, 70.196078%, 70.196078%)" stroke-opacity="1" stroke-miterlimit="10" d="M 278.132812 371.972656 C 286.550781 405.675781 305.65625 431.617188 336.972656 446.601562 "/>
<path fill-rule="nonzero" fill="rgb(70.196078%, 70.196078%, 70.196078%)" fill-opacity="1" d="M 343.40625 449.683594 L 335.972656 448.695312 L 337.972656 444.511719 L 343.40625 449.683594 "/>
<path fill="none" stroke-width="5.5" stroke-linecap="butt" stroke-linejoin="miter" stroke="rgb(70.196078%, 70.196078%, 70.196078%)" stroke-opacity="1" stroke-miterlimit="10" d="M 210.34375 291.625 C 218.167969 325.25 236.730469 351.339844 267.613281 366.730469 "/>
<path fill-rule="nonzero" fill="rgb(70.196078%, 70.196078%, 70.196078%)" fill-opacity="1" d="M 273.996094 369.914062 L 266.578125 368.804688 L 268.644531 364.65625 L 273.996094 369.914062 "/>
<path fill="none" stroke-width="2.5" stroke-linecap="butt" stroke-linejoin="miter" stroke="rgb(70.196078%, 70.196078%, 70.196078%)" stroke-opacity="1" stroke-miterlimit="10" d="M 165.960938 228.9375 C 164.796875 233.628906 164.816406 238.828125 168.324219 241.949219 "/>
<path fill-rule="nonzero" fill="rgb(70.196078%, 70.196078%, 70.196078%)" fill-opacity="1" d="M 173.652344 246.691406 L 166.78125 243.679688 L 169.863281 240.21875 L 173.652344 246.691406 "/>
<path fill="none" stroke-width="3.5" stroke-linecap="butt" stroke-linejoin="miter" stroke="rgb(70.196078%, 70.196078%, 70.196078%)" stroke-opacity="1" stroke-miterlimit="10" d="M 165.960938 228.9375 C 168.789062 252.675781 179.394531 272.367188 199.667969 284.980469 "/>
<path fill-rule="nonzero" fill="rgb(70.196078%, 70.196078%, 70.196078%)" fill-opacity="1" d="M 205.726562 288.75 L 198.445312 286.949219 L 200.894531 283.011719 L 205.726562 288.75 "/>
<path fill="none" stroke-width="4.5" stroke-linecap="butt" stroke-linejoin="miter" stroke="rgb(70.196078%, 70.196078%, 70.196078%)" stroke-opacity="1" stroke-miterlimit="10" d="M 727.8125 724.089844 C 730.328125 722.234375 732.824219 719.429688 732.007812 716.636719 "/>
<path fill-rule="nonzero" fill="rgb(70.196078%, 70.196078%, 70.196078%)" fill-opacity="1" d="M 730 709.792969 L 734.230469 715.984375 L 729.78125 717.289062 L 730 709.792969 "/>
<path fill="none" stroke-width="4.5" stroke-linecap="butt" stroke-linejoin="miter" stroke="rgb(70.196078%, 70.196078%, 70.196078%)" stroke-opacity="1" stroke-miterlimit="10" d="M 711.273438 749.296875 C 713.804688 749.765625 717.113281 749.703125 718.113281 747.625 "/>
<path fill-rule="nonzero" fill="rgb(70.196078%, 70.196078%, 70.196078%)" fill-opacity="1" d="M 721.210938 741.199219 L 720.203125 748.628906 L 716.027344 746.617188 L 721.210938 741.199219 "/>
<path fill="none" stroke-width="4.5" stroke-linecap="butt" stroke-linejoin="miter" stroke="rgb(70.196078%, 70.196078%, 70.196078%)" stroke-opacity="1" stroke-miterlimit="10" d="M 689.847656 750 C 692.730469 752.765625 696.582031 755.054688 700.140625 753.660156 "/>
<path fill-rule="nonzero" fill="rgb(70.196078%, 70.196078%, 70.196078%)" fill-opacity="1" d="M 706.78125 751.058594 L 700.988281 755.816406 L 699.296875 751.503906 L 706.78125 751.058594 "/>
<path fill="none" stroke-width="1.5" stroke-linecap="butt" stroke-linejoin="miter" stroke="rgb(12.156863%, 47.058824%, 70.588235%)" stroke-opacity="1" stroke-miterlimit="10" d="M 133.097656 184.875 C 132.113281 187.535156 131.589844 190.992188 133.625 192.617188 "/>
<path fill-rule="nonzero" fill="rgb(12.156863%, 47.058824%, 70.588235%)" fill-opacity="1" d="M 139.199219 197.066406 L 132.179688 194.429688 L 135.070312 190.808594 L 139.199219 197.066406 "/>
<path fill="none" stroke-width="4.5" stroke-linecap="butt" stroke-linejoin="miter" stroke="rgb(70.196078%, 70.196078%, 70.196078%)" stroke-opacity="1" stroke-miterlimit="10" d="M 133.097656 184.875 C 134.828125 200.71875 141.585938 214.265625 155.207031 222.464844 "/>
<path fill-rule="nonzero" fill="rgb(70.196078%, 70.196078%, 70.196078%)" fill-opacity="1" d="M 161.320312 226.144531 L 154.011719 224.449219 L 156.402344 220.480469 L 161.320312 226.144531 "/>
<path fill="none" stroke-width="5.5" stroke-linecap="butt" stroke-linejoin="miter" stroke="rgb(70.196078%, 70.196078%, 70.196078%)" stroke-opacity="1" stroke-miterlimit="10" d="M 98.792969 131.445312 C 99.933594 150.628906 107.390625 167.125 123.175781 178.019531 "/>
<path fill-rule="nonzero" fill="rgb(70.196078%, 70.196078%, 70.196078%)" fill-opacity="1" d="M 129.042969 182.074219 L 121.855469 179.929688 L 124.492188 176.113281 L 129.042969 182.074219 "/>
<path fill="none" stroke-width="5.5" stroke-linecap="butt" stroke-linejoin="miter" stroke="rgb(70.196078%, 70.196078%, 70.196078%)" stroke-opacity="1" stroke-miterlimit="10" d="M 69.367188 79.410156 C 69.3125 97.273438 75.226562 113.078125 89.285156 124.03125 "/>
<path fill-rule="nonzero" fill="rgb(70.196078%, 70.196078%, 70.196078%)" fill-opacity="1" d="M 94.910156 128.417969 L 87.859375 125.859375 L 90.707031 122.207031 L 94.910156 128.417969 "/>
<path fill-rule="nonzero" fill="rgb(70.196078%, 70.196078%, 70.196078%)" fill-opacity="1" stroke-width="1" stroke-linecap="butt" stroke-linejoin="miter" stroke="rgb(70.196078%, 70.196078%, 70.196078%)" stroke-opacity="1" stroke-miterlimit="10" d="M 728.140625 736.882812 C 728.140625 743.351562 718.4375 743.351562 718.4375 736.882812 C 718.4375 730.417969 728.140625 730.417969 728.140625 736.882812 "/>
<path fill-rule="nonzero" fill="rgb(70.196078%, 70.196078%, 70.196078%)" fill-opacity="1" stroke-width="1" stroke-linecap="butt" stroke-linejoin="miter" stroke="rgb(70.196078%, 70.196078%, 70.196078%)" stroke-opacity="1" stroke-miterlimit="10" d="M 62.804688 61.101562 C 62.804688 67.570312 53.105469 67.570312 53.105469 61.101562 C 53.105469 54.636719 62.804688 54.636719 62.804688 61.101562 "/>
<path fill-rule="nonzero" fill="rgb(100%, 84.313725%, 0%)" fill-opacity="1" stroke-width="1" stroke-linecap="butt" stroke-linejoin="miter" stroke="rgb(100%, 84.313725%, 0%)" stroke-opacity="1" stroke-miterlimit="10" d="M 44.648438 44.648438 L 55.347656 44.648438 L 55.347656 55.347656 L 44.648438 55.347656 Z M 44.648438 44.648438 "/>
<path fill-rule="nonzero" fill="rgb(70.196078%, 70.196078%, 70.196078%)" fill-opacity="1" stroke-width="1" stroke-linecap="butt" stroke-linejoin="miter" stroke="rgb(70.196078%, 70.196078%, 70.196078%)" stroke-opacity="1" stroke-miterlimit="10" d="M 197.800781 270.171875 C 197.800781 276.636719 188.101562 276.636719 188.101562 270.171875 C 188.101562 263.703125 197.800781 263.703125 197.800781 270.171875 "/>
<path fill-rule="nonzero" fill="rgb(12.156863%, 47.058824%, 70.588235%)" fill-opacity="1" stroke-width="1" stroke-linecap="butt" stroke-linejoin="miter" stroke="rgb(12.156863%, 47.058824%, 70.588235%)" stroke-opacity="1" stroke-miterlimit="10" d="M 54.769531 63.824219 C 54.769531 67.488281 49.269531 67.488281 49.269531 63.824219 C 49.269531 60.15625 54.769531 60.15625 54.769531 63.824219 "/>
<path fill-rule="nonzero" fill="rgb(12.156863%, 47.058824%, 70.588235%)" fill-opacity="1" stroke-width="1" stroke-linecap="butt" stroke-linejoin="miter" stroke="rgb(12.156863%, 47.058824%, 70.588235%)" stroke-opacity="1" stroke-miterlimit="10" d="M 155.609375 214.367188 C 155.609375 218.035156 150.109375 218.035156 150.109375 214.367188 C 150.109375 210.703125 155.609375 210.703125 155.609375 214.367188 "/>
<path fill-rule="nonzero" fill="rgb(12.156863%, 47.058824%, 70.588235%)" fill-opacity="1" stroke-width="1" stroke-linecap="butt" stroke-linejoin="miter" stroke="rgb(12.156863%, 47.058824%, 70.588235%)" stroke-opacity="1" stroke-miterlimit="10" d="M 144.105469 198.789062 C 144.105469 202.453125 138.605469 202.453125 138.605469 198.789062 C 138.605469 195.121094 144.105469 195.121094 144.105469 198.789062 "/>
<path fill-rule="nonzero" fill="rgb(12.156863%, 47.058824%, 70.588235%)" fill-opacity="1" stroke-width="1" stroke-linecap="butt" stroke-linejoin="miter" stroke="rgb(12.156863%, 47.058824%, 70.588235%)" stroke-opacity="1" stroke-miterlimit="10" d="M 586.1875 636.625 C 586.1875 640.289062 580.6875 640.289062 580.6875 636.625 C 580.6875 632.957031 586.1875 632.957031 586.1875 636.625 "/>
<path fill-rule="nonzero" fill="rgb(12.156863%, 47.058824%, 70.588235%)" fill-opacity="1" stroke-width="1" stroke-linecap="butt" stroke-linejoin="miter" stroke="rgb(12.156863%, 47.058824%, 70.588235%)" stroke-opacity="1" stroke-miterlimit="10" d="M 543.1875 616.890625 C 543.1875 620.558594 537.6875 620.558594 537.6875 616.890625 C 537.6875 613.222656 543.1875 613.222656 543.1875 616.890625 "/>
<path fill-rule="nonzero" fill="rgb(12.156863%, 47.058824%, 70.588235%)" fill-opacity="1" stroke-width="1" stroke-linecap="butt" stroke-linejoin="miter" stroke="rgb(12.156863%, 47.058824%, 70.588235%)" stroke-opacity="1" stroke-miterlimit="10" d="M 664.761719 661.472656 C 664.761719 665.140625 659.261719 665.140625 659.261719 661.472656 C 659.261719 657.808594 664.761719 657.808594 664.761719 661.472656 "/>
<path fill-rule="nonzero" fill="rgb(12.156863%, 47.058824%, 70.588235%)" fill-opacity="1" stroke-width="1" stroke-linecap="butt" stroke-linejoin="miter" stroke="rgb(12.156863%, 47.058824%, 70.588235%)" stroke-opacity="1" stroke-miterlimit="10" d="M 626.199219 649.785156 C 626.199219 653.453125 620.699219 653.453125 620.699219 649.785156 C 620.699219 646.117188 626.199219 646.117188 626.199219 649.785156 "/>
<path fill-rule="nonzero" fill="rgb(14.901961%, 14.901961%, 14.901961%)" fill-opacity="1" stroke-width="1" stroke-linecap="butt" stroke-linejoin="miter" stroke="rgb(14.901961%, 14.901961%, 14.901961%)" stroke-opacity="1" stroke-miterlimit="10" d="M 717.625 696.710938 L 723.976562 684.011719 L 730.324219 696.710938 Z M 717.625 696.710938 "/>
<path fill-rule="nonzero" fill="rgb(12.156863%, 47.058824%, 70.588235%)" fill-opacity="1" stroke-width="1" stroke-linecap="butt" stroke-linejoin="miter" stroke="rgb(12.156863%, 47.058824%, 70.588235%)" stroke-opacity="1" stroke-miterlimit="10" d="M 700.980469 674.75 C 700.980469 678.417969 695.480469 678.417969 695.480469 674.75 C 695.480469 671.085938 700.980469 671.085938 700.980469 674.75 "/>
<path fill-rule="nonzero" fill="rgb(70.196078%, 70.196078%, 70.196078%)" fill-opacity="1" stroke-width="1" stroke-linecap="butt" stroke-linejoin="miter" stroke="rgb(70.196078%, 70.196078%, 70.196078%)" stroke-opacity="1" stroke-miterlimit="10" d="M 503.0625 596.839844 C 503.0625 603.976562 492.363281 603.976562 492.363281 596.839844 C 492.363281 589.707031 503.0625 589.707031 503.0625 596.839844 "/>
<path fill-rule="nonzero" fill="rgb(70.196078%, 70.196078%, 70.196078%)" fill-opacity="1" stroke-width="1" stroke-linecap="butt" stroke-linejoin="miter" stroke="rgb(70.196078%, 70.196078%, 70.196078%)" stroke-opacity="1" stroke-miterlimit="10" d="M 182.117188 249.90625 C 182.117188 256.375 172.417969 256.375 172.417969 249.90625 C 172.417969 243.441406 182.117188 243.441406 182.117188 249.90625 "/>
<path fill-rule="nonzero" fill="rgb(12.156863%, 47.058824%, 70.588235%)" fill-opacity="1" stroke-width="1" stroke-linecap="butt" stroke-linejoin="miter" stroke="rgb(12.156863%, 47.058824%, 70.588235%)" stroke-opacity="1" stroke-miterlimit="10" d="M 461.15625 563.628906 C 461.15625 567.296875 455.65625 567.296875 455.65625 563.628906 C 455.65625 559.960938 461.15625 559.960938 461.15625 563.628906 "/>
<path fill-rule="nonzero" fill="rgb(70.196078%, 70.196078%, 70.196078%)" fill-opacity="1" stroke-width="1" stroke-linecap="butt" stroke-linejoin="miter" stroke="rgb(70.196078%, 70.196078%, 70.196078%)" stroke-opacity="1" stroke-miterlimit="10" d="M 424.035156 530.316406 C 424.035156 536.785156 414.335938 536.785156 414.335938 530.316406 C 414.335938 523.851562 424.035156 523.851562 424.035156 530.316406 "/>
<path fill-rule="nonzero" fill="rgb(70.196078%, 70.196078%, 70.196078%)" fill-opacity="1" stroke-width="1" stroke-linecap="butt" stroke-linejoin="miter" stroke="rgb(70.196078%, 70.196078%, 70.196078%)" stroke-opacity="1" stroke-miterlimit="10" d="M 352.425781 451.679688 C 352.425781 458.144531 342.726562 458.144531 342.726562 451.679688 C 342.726562 445.210938 352.425781 445.210938 352.425781 451.679688 "/>
<path fill-rule="nonzero" fill="rgb(14.901961%, 14.901961%, 14.901961%)" fill-opacity="1" stroke-width="1" stroke-linecap="butt" stroke-linejoin="miter" stroke="rgb(14.901961%, 14.901961%, 14.901961%)" stroke-opacity="1" stroke-miterlimit="10" d="M 744.148438 685.621094 L 750 673.921875 L 755.851562 685.621094 Z M 744.148438 685.621094 "/>
<path fill-rule="nonzero" fill="rgb(70.196078%, 70.196078%, 70.196078%)" fill-opacity="1" stroke-width="1" stroke-linecap="butt" stroke-linejoin="miter" stroke="rgb(70.196078%, 70.196078%, 70.196078%)" stroke-opacity="1" stroke-miterlimit="10" d="M 744.832031 685.996094 C 744.832031 692.460938 735.132812 692.460938 735.132812 685.996094 C 735.132812 679.527344 744.832031 679.527344 744.832031 685.996094 "/>
<path fill-rule="nonzero" fill="rgb(70.196078%, 70.196078%, 70.196078%)" fill-opacity="1" stroke-width="1" stroke-linecap="butt" stroke-linejoin="miter" stroke="rgb(70.196078%, 70.196078%, 70.196078%)" stroke-opacity="1" stroke-miterlimit="10" d="M 733.496094 705.183594 C 733.496094 711.648438 723.796875 711.648438 723.796875 705.183594 C 723.796875 698.714844 733.496094 698.714844 733.496094 705.183594 "/>
<path fill-rule="nonzero" fill="rgb(70.196078%, 70.196078%, 70.196078%)" fill-opacity="1" stroke-width="1" stroke-linecap="butt" stroke-linejoin="miter" stroke="rgb(70.196078%, 70.196078%, 70.196078%)" stroke-opacity="1" stroke-miterlimit="10" d="M 675.078125 742.394531 C 675.078125 748.859375 665.378906 748.859375 665.378906 742.394531 C 665.378906 735.925781 675.078125 735.925781 675.078125 742.394531 "/>
<path fill-rule="nonzero" fill="rgb(70.196078%, 70.196078%, 70.196078%)" fill-opacity="1" stroke-width="1" stroke-linecap="butt" stroke-linejoin="miter" stroke="rgb(70.196078%, 70.196078%, 70.196078%)" stroke-opacity="1" stroke-miterlimit="10" d="M 643.902344 730.882812 C 643.902344 737.347656 634.203125 737.347656 634.203125 730.882812 C 634.203125 724.414062 643.902344 724.414062 643.902344 730.882812 "/>
<path fill-rule="nonzero" fill="rgb(70.196078%, 70.196078%, 70.196078%)" fill-opacity="1" stroke-width="1" stroke-linecap="butt" stroke-linejoin="miter" stroke="rgb(70.196078%, 70.196078%, 70.196078%)" stroke-opacity="1" stroke-miterlimit="10" d="M 608.3125 712.101562 C 608.3125 718.570312 598.613281 718.570312 598.613281 712.101562 C 598.613281 705.636719 608.3125 705.636719 608.3125 712.101562 "/>
<path fill-rule="nonzero" fill="rgb(70.196078%, 70.196078%, 70.196078%)" fill-opacity="1" stroke-width="1" stroke-linecap="butt" stroke-linejoin="miter" stroke="rgb(70.196078%, 70.196078%, 70.196078%)" stroke-opacity="1" stroke-miterlimit="10" d="M 567.34375 685.683594 C 567.34375 692.148438 557.644531 692.148438 557.644531 685.683594 C 557.644531 679.214844 567.34375 679.214844 567.34375 685.683594 "/>
<path fill-rule="nonzero" fill="rgb(70.196078%, 70.196078%, 70.196078%)" fill-opacity="1" stroke-width="1" stroke-linecap="butt" stroke-linejoin="miter" stroke="rgb(70.196078%, 70.196078%, 70.196078%)" stroke-opacity="1" stroke-miterlimit="10" d="M 533.441406 647.996094 C 533.441406 654.464844 523.742188 654.464844 523.742188 647.996094 C 523.742188 641.53125 533.441406 641.53125 533.441406 647.996094 "/>
<path fill-rule="nonzero" fill="rgb(70.196078%, 70.196078%, 70.196078%)" fill-opacity="1" stroke-width="1" stroke-linecap="butt" stroke-linejoin="miter" stroke="rgb(70.196078%, 70.196078%, 70.196078%)" stroke-opacity="1" stroke-miterlimit="10" d="M 496.375 609.671875 C 496.375 616.808594 485.671875 616.808594 485.671875 609.671875 C 485.671875 602.539062 496.375 602.539062 496.375 609.671875 "/>
<path fill-rule="nonzero" fill="rgb(70.196078%, 70.196078%, 70.196078%)" fill-opacity="1" stroke-width="1" stroke-linecap="butt" stroke-linejoin="miter" stroke="rgb(70.196078%, 70.196078%, 70.196078%)" stroke-opacity="1" stroke-miterlimit="10" d="M 459.386719 573.304688 C 459.386719 579.769531 449.6875 579.769531 449.6875 573.304688 C 449.6875 566.835938 459.386719 566.835938 459.386719 573.304688 "/>
<path fill-rule="nonzero" fill="rgb(70.196078%, 70.196078%, 70.196078%)" fill-opacity="1" stroke-width="1" stroke-linecap="butt" stroke-linejoin="miter" stroke="rgb(70.196078%, 70.196078%, 70.196078%)" stroke-opacity="1" stroke-miterlimit="10" d="M 282.984375 371.972656 C 282.984375 378.441406 273.285156 378.441406 273.285156 371.972656 C 273.285156 365.507812 282.984375 365.507812 282.984375 371.972656 "/>
<path fill-rule="nonzero" fill="rgb(70.196078%, 70.196078%, 70.196078%)" fill-opacity="1" stroke-width="1" stroke-linecap="butt" stroke-linejoin="miter" stroke="rgb(70.196078%, 70.196078%, 70.196078%)" stroke-opacity="1" stroke-miterlimit="10" d="M 215.695312 291.625 C 215.695312 298.757812 204.996094 298.757812 204.996094 291.625 C 204.996094 284.492188 215.695312 284.492188 215.695312 291.625 "/>
<path fill-rule="nonzero" fill="rgb(70.196078%, 70.196078%, 70.196078%)" fill-opacity="1" stroke-width="1" stroke-linecap="butt" stroke-linejoin="miter" stroke="rgb(70.196078%, 70.196078%, 70.196078%)" stroke-opacity="1" stroke-miterlimit="10" d="M 171.3125 228.9375 C 171.3125 236.070312 160.613281 236.070312 160.613281 228.9375 C 160.613281 221.804688 171.3125 221.804688 171.3125 228.9375 "/>
<path fill-rule="nonzero" fill="rgb(70.196078%, 70.196078%, 70.196078%)" fill-opacity="1" stroke-width="1" stroke-linecap="butt" stroke-linejoin="miter" stroke="rgb(70.196078%, 70.196078%, 70.196078%)" stroke-opacity="1" stroke-miterlimit="10" d="M 732.660156 724.089844 C 732.660156 730.554688 722.960938 730.554688 722.960938 724.089844 C 722.960938 717.621094 732.660156 717.621094 732.660156 724.089844 "/>
<path fill-rule="nonzero" fill="rgb(70.196078%, 70.196078%, 70.196078%)" fill-opacity="1" stroke-width="1" stroke-linecap="butt" stroke-linejoin="miter" stroke="rgb(70.196078%, 70.196078%, 70.196078%)" stroke-opacity="1" stroke-miterlimit="10" d="M 716.125 749.296875 C 716.125 755.761719 706.425781 755.761719 706.425781 749.296875 C 706.425781 742.828125 716.125 742.828125 716.125 749.296875 "/>
<path fill-rule="nonzero" fill="rgb(70.196078%, 70.196078%, 70.196078%)" fill-opacity="1" stroke-width="1" stroke-linecap="butt" stroke-linejoin="miter" stroke="rgb(70.196078%, 70.196078%, 70.196078%)" stroke-opacity="1" stroke-miterlimit="10" d="M 694.699219 750 C 694.699219 756.464844 685 756.464844 685 750 C 685 743.535156 694.699219 743.535156 694.699219 750 "/>
<path fill-rule="nonzero" fill="rgb(70.196078%, 70.196078%, 70.196078%)" fill-opacity="1" stroke-width="1" stroke-linecap="butt" stroke-linejoin="miter" stroke="rgb(70.196078%, 70.196078%, 70.196078%)" stroke-opacity="1" stroke-miterlimit="10" d="M 137.949219 184.875 C 137.949219 191.339844 128.25 191.339844 128.25 184.875 C 128.25 178.40625 137.949219 178.40625 137.949219 184.875 "/>
<path fill-rule="nonzero" fill="rgb(70.196078%, 70.196078%, 70.196078%)" fill-opacity="1" stroke-width="1" stroke-linecap="butt" stroke-linejoin="miter" stroke="rgb(70.196078%, 70.196078%, 70.196078%)" stroke-opacity="1" stroke-miterlimit="10" d="M 103.644531 131.445312 C 103.644531 137.914062 93.941406 137.914062 93.941406 131.445312 C 93.941406 124.980469 103.644531 124.980469 103.644531 131.445312 "/>
<path fill-rule="nonzero" fill="rgb(70.196078%, 70.196078%, 70.196078%)" fill-opacity="1" stroke-width="1" stroke-linecap="butt" stroke-linejoin="miter" stroke="rgb(70.196078%, 70.196078%, 70.196078%)" stroke-opacity="1" stroke-miterlimit="10" d="M 74.71875 79.410156 C 74.71875 86.546875 64.019531 86.546875 64.019531 79.410156 C 64.019531 72.277344 74.71875 72.277344 74.71875 79.410156 "/>
</svg>
