<?xml version="1.0" encoding="UTF-8"?>
<svg xmlns="http://www.w3.org/2000/svg" xmlns:xlink="http://www.w3.org/1999/xlink" width="800" height="800" viewBox="0 0 800 800">
<rect x="-80" y="-80" width="960" height="960" fill="rgb(100%, 100%, 100%)" fill-opacity="1"/>
<path fill="none" stroke-width="3.5" stroke-linecap="butt" stroke-linejoin="miter" stroke="rgb(70.196078%, 70.196078%, 70.196078%)" stroke-opacity="1" stroke-miterlimit="10" d="M 54.300781 547.203125 C 70.652344 529.773438 78.84375 509 75.523438 485.355469 "/>
<path fill-rule="nonzero" fill="rgb(70.196078%, 70.196078%, 70.196078%)" fill-opacity="1" d="M 74.53125 478.292969 L 77.820312 485.035156 L 73.226562 485.679688 L 74.53125 478.292969 "/>
<path fill="none" stroke-width="1.5" stroke-linecap="butt" stroke-linejoin="miter" stroke="rgb(12.156863%, 47.058824%, 70.588235%)" stroke-opacity="1" stroke-miterlimit="10" d="M 54.300781 547.203125 C 56.273438 547 58.925781 546.136719 58.996094 544.476562 "/>
<path fill-rule="nonzero" fill="rgb(12.156863%, 47.058824%, 70.588235%)" fill-opacity="1" d="M 59.296875 537.351562 L 61.308594 544.574219 L 56.679688 544.378906 L 59.296875 537.351562 "/>
<path fill="none" stroke-width="3.5" stroke-linecap="butt" stroke-linejoin="miter" stroke="rgb(70.196078%, 70.196078%, 70.196078%)" stroke-opacity="1" stroke-miterlimit="10" d="M 54.300781 547.203125 C 52.691406 547.429688 50.335938 548.402344 50.535156 549.570312 "/>
<path fill-rule="nonzero" fill="rgb(70.196078%, 70.196078%, 70.196078%)" fill-opacity="1" d="M 51.71875 556.605469 L 48.25 549.957031 L 52.820312 549.183594 L 51.71875 556.605469 "/>
<path fill="none" stroke-width="2.5" stroke-linecap="butt" stroke-linejoin="miter" stroke="rgb(70.196078%, 70.196078%, 70.196078%)" stroke-opacity="1" stroke-miterlimit="10" d="M 54.300781 547.203125 C 56.304688 547.152344 57.628906 545.320312 59.242188 544.820312 "/>
<path fill-rule="nonzero" fill="rgb(70.196078%, 70.196078%, 70.196078%)" fill-opacity="1" d="M 52.429688 546.941406 L 58.550781 542.609375 L 59.929688 547.035156 L 52.429688 546.941406 "/>
<path fill="none" stroke-width="1.5" stroke-linecap="butt" stroke-linejoin="miter" stroke="rgb(12.156863%, 47.058824%, 70.588235%)" stroke-opacity="1" stroke-miterlimit="10" d="M 54.300781 547.203125 C 52.644531 548.980469 51.007812 551.65625 52.160156 553.5 "/>
<path fill-rule="nonzero" fill="rgb(12.156863%, 47.058824%, 70.588235%)" fill-opacity="1" d="M 55.9375 559.546875 L 50.191406 554.726562 L 54.125 552.269531 L 55.9375 559.546875 "/>
<path fill="none" stroke-width="5.5" stroke-linecap="butt" stroke-linejoin="miter" stroke="rgb(70.196078%, 70.196078%, 70.196078%)" stroke-opacity="1" stroke-miterlimit="10" d="M 54.300781 547.203125 C 53.101562 545.996094 51.003906 546.316406 49.957031 545.539062 "/>
<path fill-rule="nonzero" fill="rgb(70.196078%, 70.196078%, 70.196078%)" fill-opacity="1" d="M 55.679688 549.796875 L 48.574219 547.398438 L 51.339844 543.679688 L 55.679688 549.796875 "/>
<path fill="none" stroke-width="1.5" stroke-linecap="butt" stroke-linejoin="miter" stroke="rgb(12.156863%, 47.058824%, 70.588235%)" stroke-opacity="1" stroke-miterlimit="10" d="M 54.300781 547.203125 C 52.945312 551.199219 52.539062 555.792969 55.402344 558.691406 "/>
<path fill-rule="nonzero" fill="rgb(12.156863%, 47.058824%, 70.588235%)" fill-opacity="1" d="M 60.414062 563.765625 L 53.753906 560.320312 L 57.050781 557.0625 L 60.414062 563.765625 "/>
<path fill="none" stroke-width="8.5" stroke-linecap="butt" stroke-linejoin="miter" stroke="rgb(70.196078%, 70.196078%, 70.196078%)" stroke-opacity="1" stroke-miterlimit="10" d="M 74.199219 475.929688 C 57.847656 493.359375 49.65625 514.132812 52.976562 537.777344 "/>
<path fill-rule="nonzero" fill="rgb(70.196078%, 70.196078%, 70.196078%)" fill-opacity="1" d="M 53.96875 544.839844 L 50.683594 538.097656 L 55.273438 537.453125 L 53.96875 544.839844 "/>
<path fill="none" stroke-width="1.5" stroke-linecap="butt" stroke-linejoin="miter" stroke="rgb(12.156863%, 47.058824%, 70.588235%)" stroke-opacity="1" stroke-miterlimit="10" d="M 74.199219 475.929688 C 75.332031 474.710938 74.9375 472.652344 75.664062 471.621094 "/>
<path fill-rule="nonzero" fill="rgb(12.156863%, 47.058824%, 70.588235%)" fill-opacity="1" d="M 71.554688 477.449219 L 73.769531 470.285156 L 77.558594 472.953125 L 71.554688 477.449219 "/>
<path fill="none" stroke-width="1.5" stroke-linecap="butt" stroke-linejoin="miter" stroke="rgb(12.156863%, 47.058824%, 70.588235%)" stroke-opacity="1" stroke-miterlimit="10" d="M 71.125 478.0625 C 69.132812 478.964844 68.550781 481.246094 67.164062 482.550781 "/>
<path fill-rule="nonzero" fill="rgb(12.156863%, 47.058824%, 70.588235%)" fill-opacity="1" d="M 72.359375 477.660156 L 68.753906 484.238281 L 65.578125 480.863281 L 72.359375 477.660156 "/>
<path fill="none" stroke-width="1.5" stroke-linecap="butt" stroke-linejoin="miter" stroke="rgb(12.156863%, 47.058824%, 70.588235%)" stroke-opacity="1" stroke-miterlimit="10" d="M 59.328125 536.636719 C 57.820312 536.355469 55.351562 536.578125 55.246094 537.628906 "/>
<path fill-rule="nonzero" fill="rgb(12.156863%, 47.058824%, 70.588235%)" fill-opacity="1" d="M 54.546875 544.726562 L 52.941406 537.398438 L 57.554688 537.855469 L 54.546875 544.726562 "/>
<path fill="none" stroke-width="5.5" stroke-linecap="butt" stroke-linejoin="miter" stroke="rgb(70.196078%, 70.196078%, 70.196078%)" stroke-opacity="1" stroke-miterlimit="10" d="M 98.441406 390.164062 C 78.472656 411.777344 68.839844 437.375 72.886719 466.496094 "/>
<path fill-rule="nonzero" fill="rgb(70.196078%, 70.196078%, 70.196078%)" fill-opacity="1" d="M 73.871094 473.5625 L 70.59375 466.816406 L 75.183594 466.179688 L 73.871094 473.5625 "/>
<path fill="none" stroke-width="3.5" stroke-linecap="butt" stroke-linejoin="miter" stroke="rgb(70.196078%, 70.196078%, 70.196078%)" stroke-opacity="1" stroke-miterlimit="10" d="M 52.132812 559.0625 C 53.746094 558.839844 56.097656 557.863281 55.902344 556.695312 "/>
<path fill-rule="nonzero" fill="rgb(70.196078%, 70.196078%, 70.196078%)" fill-opacity="1" d="M 54.714844 549.664062 L 58.1875 556.3125 L 53.617188 557.082031 L 54.714844 549.664062 "/>
<path fill="none" stroke-width="5.5" stroke-linecap="butt" stroke-linejoin="miter" stroke="rgb(70.196078%, 70.196078%, 70.196078%)" stroke-opacity="1" stroke-miterlimit="10" d="M 123.355469 302.621094 C 102.902344 324.726562 93.046875 350.917969 97.144531 380.730469 "/>
<path fill-rule="nonzero" fill="rgb(70.196078%, 70.196078%, 70.196078%)" fill-opacity="1" d="M 98.117188 387.796875 L 94.847656 381.046875 L 99.441406 380.414062 L 98.117188 387.796875 "/>
<path fill="none" stroke-width="5.5" stroke-linecap="butt" stroke-linejoin="miter" stroke="rgb(70.196078%, 70.196078%, 70.196078%)" stroke-opacity="1" stroke-miterlimit="10" d="M 147.414062 221.617188 C 128.265625 241.683594 118.734375 265.675781 122.175781 293.175781 "/>
<path fill-rule="nonzero" fill="rgb(70.196078%, 70.196078%, 70.196078%)" fill-opacity="1" d="M 123.058594 300.253906 L 119.875 293.460938 L 124.472656 292.886719 L 123.058594 300.253906 "/>
<path fill="none" stroke-width="2.5" stroke-linecap="butt" stroke-linejoin="miter" stroke="rgb(70.196078%, 70.196078%, 70.196078%)" stroke-opacity="1" stroke-miterlimit="10" d="M 50 547.695312 C 47.996094 547.75 46.671875 549.578125 45.058594 550.078125 "/>
<path fill-rule="nonzero" fill="rgb(70.196078%, 70.196078%, 70.196078%)" fill-opacity="1" d="M 51.871094 547.960938 L 45.75 552.292969 L 44.371094 547.867188 L 51.871094 547.960938 "/>
<path fill="none" stroke-width="1.5" stroke-linecap="butt" stroke-linejoin="miter" stroke="rgb(12.156863%, 47.058824%, 70.588235%)" stroke-opacity="1" stroke-miterlimit="10" d="M 56.316406 560.152344 C 57.886719 559.042969 59.753906 556.988281 58.988281 555.617188 "/>
<path fill-rule="nonzero" fill="rgb(12.156863%, 47.058824%, 70.588235%)" fill-opacity="1" d="M 55.515625 549.386719 L 61.011719 554.492188 L 56.964844 556.746094 L 55.515625 549.386719 "/>
<path fill="none" stroke-width="5.5" stroke-linecap="butt" stroke-linejoin="miter" stroke="rgb(70.196078%, 70.196078%, 70.196078%)" stroke-opacity="1" stroke-miterlimit="10" d="M 57.742188 551.328125 C 58.941406 552.535156 61.042969 552.214844 62.089844 552.996094 "/>
<path fill-rule="nonzero" fill="rgb(70.196078%, 70.196078%, 70.196078%)" fill-opacity="1" d="M 56.363281 548.738281 L 63.472656 551.136719 L 60.707031 554.855469 L 56.363281 548.738281 "/>
<path fill="none" stroke-width="5.5" stroke-linecap="butt" stroke-linejoin="miter" stroke="rgb(70.196078%, 70.196078%, 70.196078%)" stroke-opacity="1" stroke-miterlimit="10" d="M 174.289062 144.207031 C 154.894531 162.703125 144.5625 185.429688 146.664062 212.125 "/>
<path fill-rule="nonzero" fill="rgb(70.196078%, 70.196078%, 70.196078%)" fill-opacity="1" d="M 147.222656 219.234375 L 144.355469 212.304688 L 148.976562 211.941406 L 147.222656 219.234375 "/>
<path fill="none" stroke-width="5.5" stroke-linecap="butt" stroke-linejoin="miter" stroke="rgb(70.196078%, 70.196078%, 70.196078%)" stroke-opacity="1" stroke-miterlimit="10" d="M 198.820312 83.785156 C 182.929688 97.039062 173.546875 114.035156 174.054688 134.691406 "/>
<path fill-rule="nonzero" fill="rgb(70.196078%, 70.196078%, 70.196078%)" fill-opacity="1" d="M 174.230469 141.820312 L 171.738281 134.746094 L 176.371094 134.632812 L 174.230469 141.820312 "/>
<path fill="none" stroke-width="1.5" stroke-linecap="butt" stroke-linejoin="miter" stroke="rgb(12.156863%, 47.058824%, 70.588235%)" stroke-opacity="1" stroke-miterlimit="10" d="M 198.820312 83.785156 C 202.886719 74.785156 203.839844 65.230469 198.867188 56.769531 "/>
<path fill-rule="nonzero" fill="rgb(12.156863%, 47.058824%, 70.588235%)" fill-opacity="1" d="M 195.253906 50.617188 L 200.863281 55.59375 L 196.867188 57.941406 L 195.253906 50.617188 "/>
<path fill="none" stroke-width="5.5" stroke-linecap="butt" stroke-linejoin="miter" stroke="rgb(70.196078%, 70.196078%, 70.196078%)" stroke-opacity="1" stroke-miterlimit="10" d="M 228.082031 98.402344 C 223.636719 90.804688 217.175781 85.027344 208.46875 84.4375 "/>
<path fill-rule="nonzero" fill="rgb(70.196078%, 70.196078%, 70.196078%)" fill-opacity="1" d="M 201.351562 83.957031 L 208.625 82.125 L 208.3125 86.75 L 201.351562 83.957031 "/>
<path fill="none" stroke-width="1.5" stroke-linecap="butt" stroke-linejoin="miter" stroke="rgb(12.156863%, 47.058824%, 70.588235%)" stroke-opacity="1" stroke-miterlimit="10" d="M 199.074219 57.832031 C 195.25 62.914062 192.929688 68.988281 195.246094 74.804688 "/>
<path fill-rule="nonzero" fill="rgb(12.156863%, 47.058824%, 70.588235%)" fill-opacity="1" d="M 197.882812 81.429688 L 193.089844 75.660156 L 197.398438 73.945312 L 197.882812 81.429688 "/>
<path fill="none" stroke-width="1.5" stroke-linecap="butt" stroke-linejoin="miter" stroke="rgb(12.156863%, 47.058824%, 70.588235%)" stroke-opacity="1" stroke-miterlimit="10" d="M 194.890625 50 C 193.824219 50.652344 192.496094 52.433594 192.972656 52.824219 "/>
<path fill-rule="nonzero" fill="rgb(12.156863%, 47.058824%, 70.588235%)" fill-opacity="1" d="M 198.484375 57.347656 L 191.5 54.617188 L 194.441406 51.03125 L 198.484375 57.347656 "/>
<path fill="none" stroke-width="1.5" stroke-linecap="butt" stroke-linejoin="miter" stroke="rgb(12.156863%, 47.058824%, 70.588235%)" stroke-opacity="1" stroke-miterlimit="10" d="M 60.917969 564.277344 C 62.386719 560.941406 63.183594 556.859375 60.835938 554.308594 "/>
<path fill-rule="nonzero" fill="rgb(12.156863%, 47.058824%, 70.588235%)" fill-opacity="1" d="M 56.003906 549.058594 L 62.539062 552.738281 L 59.128906 555.875 L 56.003906 549.058594 "/>
<path fill="none" stroke-width="5.5" stroke-linecap="butt" stroke-linejoin="miter" stroke="rgb(70.196078%, 70.196078%, 70.196078%)" stroke-opacity="1" stroke-miterlimit="10" d="M 260.171875 137.792969 C 257.535156 122.578125 250.171875 109.917969 236.515625 102.800781 "/>
<path fill-rule="nonzero" fill="rgb(70.196078%, 70.196078%, 70.196078%)" fill-opacity="1" d="M 230.191406 99.503906 L 237.589844 100.746094 L 235.445312 104.855469 L 230.191406 99.503906 "/>
<path fill="none" stroke-width="5.5" stroke-linecap="butt" stroke-linejoin="miter" stroke="rgb(70.196078%, 70.196078%, 70.196078%)" stroke-opacity="1" stroke-miterlimit="10" d="M 292.019531 177.742188 C 289.519531 162.402344 282.230469 149.585938 268.5625 142.277344 "/>
<path fill-rule="nonzero" fill="rgb(70.196078%, 70.196078%, 70.196078%)" fill-opacity="1" d="M 262.273438 138.914062 L 269.65625 140.234375 L 267.46875 144.320312 L 262.273438 138.914062 "/>
<path fill="none" stroke-width="5.5" stroke-linecap="butt" stroke-linejoin="miter" stroke="rgb(70.196078%, 70.196078%, 70.196078%)" stroke-opacity="1" stroke-miterlimit="10" d="M 662.648438 742.203125 C 657.167969 740.328125 651.171875 739.972656 646.871094 743.6875 "/>
<path fill-rule="nonzero" fill="rgb(70.196078%, 70.196078%, 70.196078%)" fill-opacity="1" d="M 641.472656 748.347656 L 645.359375 741.933594 L 648.386719 745.441406 L 641.472656 748.347656 "/>
<path fill="none" stroke-width="5.5" stroke-linecap="butt" stroke-linejoin="miter" stroke="rgb(70.196078%, 70.196078%, 70.196078%)" stroke-opacity="1" stroke-miterlimit="10" d="M 475.605469 584.289062 C 477.183594 559.304688 469.914062 537.109375 451.5 520.191406 "/>
<path fill-rule="nonzero" fill="rgb(70.196078%, 70.196078%, 70.196078%)" fill-opacity="1" d="M 446.246094 515.363281 L 453.066406 518.484375 L 449.929688 521.898438 L 446.246094 515.363281 "/>
<path fill="none" stroke-width="5.5" stroke-linecap="butt" stroke-linejoin="miter" stroke="rgb(70.196078%, 70.196078%, 70.196078%)" stroke-opacity="1" stroke-miterlimit="10" d="M 503.332031 627.957031 C 502.457031 612.207031 496.472656 598.503906 483.46875 589.644531 "/>
<path fill-rule="nonzero" fill="rgb(70.196078%, 70.196078%, 70.196078%)" fill-opacity="1" d="M 477.574219 585.628906 L 484.773438 587.730469 L 482.164062 591.5625 L 477.574219 585.628906 "/>
<path fill="none" stroke-width="5.5" stroke-linecap="butt" stroke-linejoin="miter" stroke="rgb(70.196078%, 70.196078%, 70.196078%)" stroke-opacity="1" stroke-miterlimit="10" d="M 444.488281 513.75 C 446 489.4375 438.921875 467.824219 420.96875 451.402344 "/>
<path fill-rule="nonzero" fill="rgb(70.196078%, 70.196078%, 70.196078%)" fill-opacity="1" d="M 415.703125 446.585938 L 422.53125 449.691406 L 419.402344 453.113281 L 415.703125 446.585938 "/>
<path fill="none" stroke-width="5.5" stroke-linecap="butt" stroke-linejoin="miter" stroke="rgb(70.196078%, 70.196078%, 70.196078%)" stroke-opacity="1" stroke-miterlimit="10" d="M 322.648438 239.65625 C 323.234375 217.5625 316.175781 198.105469 299.296875 183.878906 "/>
<path fill-rule="nonzero" fill="rgb(70.196078%, 70.196078%, 70.196078%)" fill-opacity="1" d="M 293.84375 179.28125 L 300.792969 182.105469 L 297.804688 185.648438 L 293.84375 179.28125 "/>
<path fill="none" stroke-width="5.5" stroke-linecap="butt" stroke-linejoin="miter" stroke="rgb(70.196078%, 70.196078%, 70.196078%)" stroke-opacity="1" stroke-miterlimit="10" d="M 353.679688 307.367188 C 354.90625 283.320312 347.679688 262.027344 329.75 246 "/>
<path fill-rule="nonzero" fill="rgb(70.196078%, 70.196078%, 70.196078%)" fill-opacity="1" d="M 324.429688 241.25 L 331.292969 244.273438 L 328.203125 247.730469 L 324.429688 241.25 "/>
<path fill="none" stroke-width="5.5" stroke-linecap="butt" stroke-linejoin="miter" stroke="rgb(70.196078%, 70.196078%, 70.196078%)" stroke-opacity="1" stroke-miterlimit="10" d="M 383.125 377.589844 C 385.152344 352.988281 378.414062 330.957031 360.570312 313.9375 "/>
<path fill-rule="nonzero" fill="rgb(70.196078%, 70.196078%, 70.196078%)" fill-opacity="1" d="M 355.40625 309.015625 L 362.167969 312.261719 L 358.96875 315.613281 L 355.40625 309.015625 "/>
<path fill="none" stroke-width="5.5" stroke-linecap="butt" stroke-linejoin="miter" stroke="rgb(70.196078%, 70.196078%, 70.196078%)" stroke-opacity="1" stroke-miterlimit="10" d="M 413.945312 444.976562 C 415.191406 421.070312 408.03125 399.886719 390.21875 383.941406 "/>
<path fill-rule="nonzero" fill="rgb(70.196078%, 70.196078%, 70.196078%)" fill-opacity="1" d="M 384.902344 379.183594 L 391.761719 382.214844 L 388.671875 385.667969 L 384.902344 379.183594 "/>
<path fill="none" stroke-width="5.5" stroke-linecap="butt" stroke-linejoin="miter" stroke="rgb(70.196078%, 70.196078%, 70.196078%)" stroke-opacity="1" stroke-miterlimit="10" d="M 749.882812 533.453125 C 747.359375 535.976562 745.167969 539.433594 746.421875 542.578125 "/>
<path fill-rule="nonzero" fill="rgb(70.196078%, 70.196078%, 70.196078%)" fill-opacity="1" d="M 749.066406 549.203125 L 744.269531 543.4375 L 748.574219 541.71875 L 749.066406 549.203125 "/>
<path fill="none" stroke-width="5.5" stroke-linecap="butt" stroke-linejoin="miter" stroke="rgb(70.196078%, 70.196078%, 70.196078%)" stroke-opacity="1" stroke-miterlimit="10" d="M 750 551.542969 C 743.074219 558.042969 738.632812 566.207031 740.019531 575.539062 "/>
<path fill-rule="nonzero" fill="rgb(70.196078%, 70.196078%, 70.196078%)" fill-opacity="1" d="M 741.066406 582.59375 L 737.726562 575.878906 L 742.3125 575.199219 L 741.066406 582.59375 "/>
<path fill="none" stroke-width="5.5" stroke-linecap="butt" stroke-linejoin="miter" stroke="rgb(70.196078%, 70.196078%, 70.196078%)" stroke-opacity="1" stroke-miterlimit="10" d="M 682.738281 715.707031 C 674.277344 718.765625 667.296875 724.191406 665.066406 732.835938 "/>
<path fill-rule="nonzero" fill="rgb(70.196078%, 70.196078%, 70.196078%)" fill-opacity="1" d="M 663.285156 739.742188 L 662.824219 732.253906 L 667.3125 733.414062 L 663.285156 739.742188 "/>
<path fill="none" stroke-width="5.5" stroke-linecap="butt" stroke-linejoin="miter" stroke="rgb(70.196078%, 70.196078%, 70.196078%)" stroke-opacity="1" stroke-miterlimit="10" d="M 700.652344 683.515625 C 691.609375 688.5625 684.859375 696.019531 683.757812 706.253906 "/>
<path fill-rule="nonzero" fill="rgb(70.196078%, 70.196078%, 70.196078%)" fill-opacity="1" d="M 682.992188 713.34375 L 681.453125 706.003906 L 686.0625 706.5 L 682.992188 713.34375 "/>
<path fill="none" stroke-width="5.5" stroke-linecap="butt" stroke-linejoin="miter" stroke="rgb(70.196078%, 70.196078%, 70.196078%)" stroke-opacity="1" stroke-miterlimit="10" d="M 588.730469 740.917969 C 586.890625 727.105469 580.746094 715.324219 568.636719 708.519531 "/>
<path fill-rule="nonzero" fill="rgb(70.196078%, 70.196078%, 70.196078%)" fill-opacity="1" d="M 562.417969 705.027344 L 569.769531 706.5 L 567.5 710.539062 L 562.417969 705.027344 "/>
<path fill="none" stroke-width="5.5" stroke-linecap="butt" stroke-linejoin="miter" stroke="rgb(70.196078%, 70.196078%, 70.196078%)" stroke-opacity="1" stroke-miterlimit="10" d="M 614.847656 745.601562 C 610.300781 740.863281 604.507812 737.523438 598.179688 738.886719 "/>
<path fill-rule="nonzero" fill="rgb(70.196078%, 70.196078%, 70.196078%)" fill-opacity="1" d="M 591.207031 740.386719 L 597.691406 736.621094 L 598.667969 741.152344 L 591.207031 740.386719 "/>
<path fill="none" stroke-width="5.5" stroke-linecap="butt" stroke-linejoin="miter" stroke="rgb(70.196078%, 70.196078%, 70.196078%)" stroke-opacity="1" stroke-miterlimit="10" d="M 560.34375 703.859375 C 558.527344 691.292969 552.851562 680.53125 541.707031 674.542969 "/>
<path fill-rule="nonzero" fill="rgb(70.196078%, 70.196078%, 70.196078%)" fill-opacity="1" d="M 535.425781 671.167969 L 542.804688 672.5 L 540.613281 676.585938 L 535.425781 671.167969 "/>
<path fill="none" stroke-width="5.5" stroke-linecap="butt" stroke-linejoin="miter" stroke="rgb(70.196078%, 70.196078%, 70.196078%)" stroke-opacity="1" stroke-miterlimit="10" d="M 639.554688 750 C 635.433594 745.570312 630.113281 742.328125 624.296875 743.574219 "/>
<path fill-rule="nonzero" fill="rgb(70.196078%, 70.196078%, 70.196078%)" fill-opacity="1" d="M 617.324219 745.070312 L 623.8125 741.308594 L 624.785156 745.84375 L 617.324219 745.070312 "/>
<path fill="none" stroke-width="5.5" stroke-linecap="butt" stroke-linejoin="miter" stroke="rgb(70.196078%, 70.196078%, 70.196078%)" stroke-opacity="1" stroke-miterlimit="10" d="M 533.328125 670.042969 C 531.617188 654.378906 524.914062 641.027344 511.472656 632.886719 "/>
<path fill-rule="nonzero" fill="rgb(70.196078%, 70.196078%, 70.196078%)" fill-opacity="1" d="M 505.371094 629.1875 L 512.671875 630.902344 L 510.269531 634.867188 L 505.371094 629.1875 "/>
<path fill="none" stroke-width="5.5" stroke-linecap="butt" stroke-linejoin="miter" stroke="rgb(70.196078%, 70.196078%, 70.196078%)" stroke-opacity="1" stroke-miterlimit="10" d="M 718.507812 651.105469 C 709.4375 656.222656 702.695312 663.757812 701.628906 674.058594 "/>
<path fill-rule="nonzero" fill="rgb(70.196078%, 70.196078%, 70.196078%)" fill-opacity="1" d="M 700.894531 681.152344 L 699.324219 673.820312 L 703.933594 674.296875 L 700.894531 681.152344 "/>
<path fill="none" stroke-width="5.5" stroke-linecap="butt" stroke-linejoin="miter" stroke="rgb(70.196078%, 70.196078%, 70.196078%)" stroke-opacity="1" stroke-miterlimit="10" d="M 730.15625 619.757812 C 722.890625 625.179688 717.75 632.453125 718.117188 641.4375 "/>
<path fill-rule="nonzero" fill="rgb(70.196078%, 70.196078%, 70.196078%)" fill-opacity="1" d="M 718.40625 648.566406 L 715.800781 641.535156 L 720.429688 641.34375 L 718.40625 648.566406 "/>
<path fill="none" stroke-width="5.5" stroke-linecap="butt" stroke-linejoin="miter" stroke="rgb(70.196078%, 70.196078%, 70.196078%)" stroke-opacity="1" stroke-miterlimit="10" d="M 741.441406 585.109375 C 733.632812 591.683594 728.480469 600.171875 729.347656 610.28125 "/>
<path fill-rule="nonzero" fill="rgb(70.196078%, 70.196078%, 70.196078%)" fill-opacity="1" d="M 729.953125 617.390625 L 727.035156 610.480469 L 731.65625 610.085938 L 729.953125 617.390625 "/>
<path fill-rule="nonzero" fill="rgb(14.901961%, 14.901961%, 14.901961%)" fill-opacity="1" stroke-width="1" stroke-linecap="butt" stroke-linejoin="miter" stroke="rgb(14.901961%, 14.901961%, 14.901961%)" stroke-opacity="1" stroke-miterlimit="10" d="M 51.800781 549.703125 L 54.300781 544.703125 L 56.800781 549.703125 Z M 51.800781 549.703125 "/>
<path fill-rule="nonzero" fill="rgb(70.196078%, 70.196078%, 70.196078%)" fill-opacity="1" stroke-width="1" stroke-linecap="butt" stroke-linejoin="miter" stroke="rgb(70.196078%, 70.196078%, 70.196078%)" stroke-opacity="1" stroke-miterlimit="10" d="M 76.699219 475.929688 C 76.699219 479.261719 71.699219 479.261719 71.699219 475.929688 C 71.699219 472.59375 76.699219 472.59375 76.699219 475.929688 "/>
<path fill-rule="nonzero" fill="rgb(12.156863%, 47.058824%, 70.588235%)" fill-opacity="1" stroke-width="1" stroke-linecap="butt" stroke-linejoin="miter" stroke="rgb(12.156863%, 47.058824%, 70.588235%)" stroke-opacity="1" stroke-miterlimit="10" d="M 71.875 478.0625 C 71.875 479.0625 70.375 479.0625 70.375 478.0625 C 70.375 477.0625 71.875 477.0625 71.875 478.0625 "/>
<path fill-rule="nonzero" fill="rgb(12.156863%, 47.058824%, 70.588235%)" fill-opacity="1" stroke-width="1" stroke-linecap="butt" stroke-linejoin="miter" stroke="rgb(12.156863%, 47.058824%, 70.588235%)" stroke-opacity="1" stroke-miterlimit="10" d="M 60.078125 536.636719 C 60.078125 537.636719 58.578125 537.636719 58.578125 536.636719 C 58.578125 535.636719 60.078125 535.636719 60.078125 536.636719 "/>
<path fill-rule="nonzero" fill="rgb(70.196078%, 70.196078%, 70.196078%)" fill-opacity="1" stroke-width="1" stroke-linecap="butt" stroke-linejoin="miter" stroke="rgb(70.196078%, 70.196078%, 70.196078%)" stroke-opacity="1" stroke-miterlimit="10" d="M 100.941406 390.164062 C 100.941406 393.496094 95.941406 393.496094 95.941406 390.164062 C 95.941406 386.832031 100.941406 386.832031 100.941406 390.164062 "/>
<path fill-rule="nonzero" fill="rgb(70.196078%, 70.196078%, 70.196078%)" fill-opacity="1" stroke-width="1" stroke-linecap="butt" stroke-linejoin="miter" stroke="rgb(70.196078%, 70.196078%, 70.196078%)" stroke-opacity="1" stroke-miterlimit="10" d="M 54.632812 559.0625 C 54.632812 562.394531 49.632812 562.394531 49.632812 559.0625 C 49.632812 555.730469 54.632812 555.730469 54.632812 559.0625 "/>
<path fill-rule="nonzero" fill="rgb(70.196078%, 70.196078%, 70.196078%)" fill-opacity="1" stroke-width="1" stroke-linecap="butt" stroke-linejoin="miter" stroke="rgb(70.196078%, 70.196078%, 70.196078%)" stroke-opacity="1" stroke-miterlimit="10" d="M 125.855469 302.621094 C 125.855469 305.957031 120.855469 305.957031 120.855469 302.621094 C 120.855469 299.289062 125.855469 299.289062 125.855469 302.621094 "/>
<path fill-rule="nonzero" fill="rgb(70.196078%, 70.196078%, 70.196078%)" fill-opacity="1" stroke-width="1" stroke-linecap="butt" stroke-linejoin="miter" stroke="rgb(70.196078%, 70.196078%, 70.196078%)" stroke-opacity="1" stroke-miterlimit="10" d="M 149.914062 221.617188 C 149.914062 224.949219 144.914062 224.949219 144.914062 221.617188 C 144.914062 218.28125 149.914062 218.28125 149.914062 221.617188 "/>
<path fill-rule="nonzero" fill="rgb(70.196078%, 70.196078%, 70.196078%)" fill-opacity="1" stroke-width="1" stroke-linecap="butt" stroke-linejoin="miter" stroke="rgb(70.196078%, 70.196078%, 70.196078%)" stroke-opacity="1" stroke-miterlimit="10" d="M 52.5 547.695312 C 52.5 551.03125 47.5 551.03125 47.5 547.695312 C 47.5 544.363281 52.5 544.363281 52.5 547.695312 "/>
<path fill-rule="nonzero" fill="rgb(12.156863%, 47.058824%, 70.588235%)" fill-opacity="1" stroke-width="1" stroke-linecap="butt" stroke-linejoin="miter" stroke="rgb(12.156863%, 47.058824%, 70.588235%)" stroke-opacity="1" stroke-miterlimit="10" d="M 57.066406 560.152344 C 57.066406 561.152344 55.566406 561.152344 55.566406 560.152344 C 55.566406 559.152344 57.066406 559.152344 57.066406 560.152344 "/>
<path fill-rule="nonzero" fill="rgb(70.196078%, 70.196078%, 70.196078%)" fill-opacity="1" stroke-width="1" stroke-linecap="butt" stroke-linejoin="miter" stroke="rgb(70.196078%, 70.196078%, 70.196078%)" stroke-opacity="1" stroke-miterlimit="10" d="M 60.242188 551.328125 C 60.242188 554.664062 55.242188 554.664062 55.242188 551.328125 C 55.242188 547.996094 60.242188 547.996094 60.242188 551.328125 "/>
<path fill-rule="nonzero" fill="rgb(70.196078%, 70.196078%, 70.196078%)" fill-opacity="1" stroke-width="1" stroke-linecap="butt" stroke-linejoin="miter" stroke="rgb(70.196078%, 70.196078%, 70.196078%)" stroke-opacity="1" stroke-miterlimit="10" d="M 176.789062 144.207031 C 176.789062 147.539062 171.789062 147.539062 171.789062 144.207031 C 171.789062 140.871094 176.789062 140.871094 176.789062 144.207031 "/>
<path fill-rule="nonzero" fill="rgb(70.196078%, 70.196078%, 70.196078%)" fill-opacity="1" stroke-width="1" stroke-linecap="butt" stroke-linejoin="miter" stroke="rgb(70.196078%, 70.196078%, 70.196078%)" stroke-opacity="1" stroke-miterlimit="10" d="M 201.320312 83.785156 C 201.320312 87.117188 196.320312 87.117188 196.320312 83.785156 C 196.320312 80.449219 201.320312 80.449219 201.320312 83.785156 "/>
<path fill-rule="nonzero" fill="rgb(70.196078%, 70.196078%, 70.196078%)" fill-opacity="1" stroke-width="1" stroke-linecap="butt" stroke-linejoin="miter" stroke="rgb(70.196078%, 70.196078%, 70.196078%)" stroke-opacity="1" stroke-miterlimit="10" d="M 230.582031 98.402344 C 230.582031 101.734375 225.582031 101.734375 225.582031 98.402344 C 225.582031 95.070312 230.582031 95.070312 230.582031 98.402344 "/>
<path fill-rule="nonzero" fill="rgb(12.156863%, 47.058824%, 70.588235%)" fill-opacity="1" stroke-width="1" stroke-linecap="butt" stroke-linejoin="miter" stroke="rgb(12.156863%, 47.058824%, 70.588235%)" stroke-opacity="1" stroke-miterlimit="10" d="M 199.824219 57.832031 C 199.824219 58.832031 198.324219 58.832031 198.324219 57.832031 C 198.324219 56.832031 199.824219 56.832031 199.824219 57.832031 "/>
<path fill-rule="nonzero" fill="rgb(12.156863%, 47.058824%, 70.588235%)" fill-opacity="1" stroke-width="1" stroke-linecap="butt" stroke-linejoin="miter" stroke="rgb(12.156863%, 47.058824%, 70.588235%)" stroke-opacity="1" stroke-miterlimit="10" d="M 195.640625 50 C 195.640625 51 194.140625 51 194.140625 50 C 194.140625 49 195.640625 49 195.640625 50 "/>
<path fill-rule="nonzero" fill="rgb(12.156863%, 47.058824%, 70.588235%)" fill-opacity="1" stroke-width="1" stroke-linecap="butt" stroke-linejoin="miter" stroke="rgb(12.156863%, 47.058824%, 70.588235%)" stroke-opacity="1" stroke-miterlimit="10" d="M 61.667969 564.277344 C 61.667969 565.277344 60.167969 565.277344 60.167969 564.277344 C 60.167969 563.277344 61.667969 563.277344 61.667969 564.277344 "/>
<path fill-rule="nonzero" fill="rgb(70.196078%, 70.196078%, 70.196078%)" fill-opacity="1" stroke-width="1" stroke-linecap="butt" stroke-linejoin="miter" stroke="rgb(70.196078%, 70.196078%, 70.196078%)" stroke-opacity="1" stroke-miterlimit="10" d="M 262.671875 137.792969 C 262.671875 141.125 257.671875 141.125 257.671875 137.792969 C 257.671875 134.457031 262.671875 134.457031 262.671875 137.792969 "/>
<path fill-rule="nonzero" fill="rgb(70.196078%, 70.196078%, 70.196078%)" fill-opacity="1" stroke-width="1" stroke-linecap="butt" stroke-linejoin="miter" stroke="rgb(70.196078%, 70.196078%, 70.196078%)" stroke-opacity="1" stroke-miterlimit="10" d="M 294.519531 177.742188 C 294.519531 181.074219 289.519531 181.074219 289.519531 177.742188 C 289.519531 174.410156 294.519531 174.410156 294.519531 177.742188 "/>
<path fill-rule="nonzero" fill="rgb(70.196078%, 70.196078%, 70.196078%)" fill-opacity="1" stroke-width="1" stroke-linecap="butt" stroke-linejoin="miter" stroke="rgb(70.196078%, 70.196078%, 70.196078%)" stroke-opacity="1" stroke-miterlimit="10" d="M 665.148438 742.203125 C 665.148438 745.535156 660.148438 745.535156 660.148438 742.203125 C 660.148438 738.867188 665.148438 738.867188 665.148438 742.203125 "/>
<path fill-rule="nonzero" fill="rgb(70.196078%, 70.196078%, 70.196078%)" fill-opacity="1" stroke-width="1" stroke-linecap="butt" stroke-linejoin="miter" stroke="rgb(70.196078%, 70.196078%, 70.196078%)" stroke-opacity="1" stroke-miterlimit="10" d="M 478.105469 584.289062 C 478.105469 587.621094 473.105469 587.621094 473.105469 584.289062 C 473.105469 580.953125 478.105469 580.953125 478.105469 584.289062 "/>
<path fill-rule="nonzero" fill="rgb(70.196078%, 70.196078%, 70.196078%)" fill-opacity="1" stroke-width="1" stroke-linecap="butt" stroke-linejoin="miter" stroke="rgb(70.196078%, 70.196078%, 70.196078%)" stroke-opacity="1" stroke-miterlimit="10" d="M 505.832031 627.957031 C 505.832031 631.289062 500.832031 631.289062 500.832031 627.957031 C 500.832031 624.621094 505.832031 624.621094 505.832031 627.957031 "/>
<path fill-rule="nonzero" fill="rgb(70.196078%, 70.196078%, 70.196078%)" fill-opacity="1" stroke-width="1" stroke-linecap="butt" stroke-linejoin="miter" stroke="rgb(70.196078%, 70.196078%, 70.196078%)" stroke-opacity="1" stroke-miterlimit="10" d="M 446.988281 513.75 C 446.988281 517.082031 441.988281 517.082031 441.988281 513.75 C 441.988281 510.417969 446.988281 510.417969 446.988281 513.75 "/>
<path fill-rule="nonzero" fill="rgb(70.196078%, 70.196078%, 70.196078%)" fill-opacity="1" stroke-width="1" stroke-linecap="butt" stroke-linejoin="miter" stroke="rgb(70.196078%, 70.196078%, 70.196078%)" stroke-opacity="1" stroke-miterlimit="10" d="M 325.148438 239.65625 C 325.148438 242.992188 320.148438 242.992188 320.148438 239.65625 C 320.148438 236.324219 325.148438 236.324219 325.148438 239.65625 "/>
<path fill-rule="nonzero" fill="rgb(70.196078%, 70.196078%, 70.196078%)" fill-opacity="1" stroke-width="1" stroke-linecap="butt" stroke-linejoin="miter" stroke="rgb(70.196078%, 70.196078%, 70.196078%)" stroke-opacity="1" stroke-miterlimit="10" d="M 356.179688 307.367188 C 356.179688 310.699219 351.179688 310.699219 351.179688 307.367188 C 351.179688 304.035156 356.179688 304.035156 356.179688 307.367188 "/>
<path fill-rule="nonzero" fill="rgb(70.196078%, 70.196078%, 70.196078%)" fill-opacity="1" stroke-width="1" stroke-linecap="butt" stroke-linejoin="miter" stroke="rgb(70.196078%, 70.196078%, 70.196078%)" stroke-opacity="1" stroke-miterlimit="10" d="M 385.625 377.589844 C 385.625 380.925781 380.625 380.925781 380.625 377.589844 C 380.625 374.257812 385.625 374.257812 385.625 377.589844 "/>
<path fill-rule="nonzero" fill="rgb(70.196078%, 70.196078%, 70.196078%)" fill-opacity="1" stroke-width="1" stroke-linecap="butt" stroke-linejoin="miter" stroke="rgb(70.196078%, 70.196078%, 70.196078%)" stroke-opacity="1" stroke-miterlimit="10" d="M 416.445312 444.976562 C 416.445312 448.308594 411.445312 448.308594 411.445312 444.976562 C 411.445312 441.640625 416.445312 441.640625 416.445312 444.976562 "/>
<path fill-rule="nonzero" fill="rgb(100%, 84.313725%, 0%)" fill-opacity="1" stroke-width="1" stroke-linecap="butt" stroke-linejoin="miter" stroke="rgb(100%, 84.313725%, 0%)" stroke-opacity="1" stroke-miterlimit="10" d="M 747.382812 530.953125 L 752.382812 530.953125 L 752.382812 535.953125 L 747.382812 535.953125 Z M 747.382812 530.953125 "/>
<path fill-rule="nonzero" fill="rgb(70.196078%, 70.196078%, 70.196078%)" fill-opacity="1" stroke-width="1" stroke-linecap="butt" stroke-linejoin="miter" stroke="rgb(70.196078%, 70.196078%, 70.196078%)" stroke-opacity="1" stroke-miterlimit="10" d="M 752.5 551.542969 C 752.5 554.875 747.5 554.875 747.5 551.542969 C 747.5 548.207031 752.5 548.207031 752.5 551.542969 "/>
<path fill-rule="nonzero" fill="rgb(70.196078%, 70.196078%, 70.196078%)" fill-opacity="1" stroke-width="1" stroke-linecap="butt" stroke-linejoin="miter" stroke="rgb(70.196078%, 70.196078%, 70.196078%)" stroke-opacity="1" stroke-miterlimit="10" d="M 685.238281 715.707031 C 685.238281 719.039062 680.238281 719.039062 680.238281 715.707031 C 680.238281 712.371094 685.238281 712.371094 685.238281 715.707031 "/>
<path fill-rule="nonzero" fill="rgb(70.196078%, 70.196078%, 70.196078%)" fill-opacity="1" stroke-width="1" stroke-linecap="butt" stroke-linejoin="miter" stroke="rgb(70.196078%, 70.196078%, 70.196078%)" stroke-opacity="1" stroke-miterlimit="10" d="M 703.152344 683.515625 C 703.152344 686.847656 698.152344 686.847656 698.152344 683.515625 C 698.152344 680.183594 703.152344 680.183594 703.152344 683.515625 "/>
<path fill-rule="nonzero" fill="rgb(70.196078%, 70.196078%, 70.196078%)" fill-opacity="1" stroke-width="1" stroke-linecap="butt" stroke-linejoin="miter" stroke="rgb(70.196078%, 70.196078%, 70.196078%)" stroke-opacity="1" stroke-miterlimit="10" d="M 591.230469 740.917969 C 591.230469 744.25 586.230469 744.25 586.230469 740.917969 C 586.230469 737.585938 591.230469 737.585938 591.230469 740.917969 "/>
<path fill-rule="nonzero" fill="rgb(70.196078%, 70.196078%, 70.196078%)" fill-opacity="1" stroke-width="1" stroke-linecap="butt" stroke-linejoin="miter" stroke="rgb(70.196078%, 70.196078%, 70.196078%)" stroke-opacity="1" stroke-miterlimit="10" d="M 617.347656 745.601562 C 617.347656 748.933594 612.347656 748.933594 612.347656 745.601562 C 612.347656 742.269531 617.347656 742.269531 617.347656 745.601562 "/>
<path fill-rule="nonzero" fill="rgb(70.196078%, 70.196078%, 70.196078%)" fill-opacity="1" stroke-width="1" stroke-linecap="butt" stroke-linejoin="miter" stroke="rgb(70.196078%, 70.196078%, 70.196078%)" stroke-opacity="1" stroke-miterlimit="10" d="M 562.84375 703.859375 C 562.84375 707.191406 557.84375 707.191406 557.84375 703.859375 C 557.84375 700.527344 562.84375 700.527344 562.84375 703.859375 "/>
<path fill-rule="nonzero" fill="rgb(70.196078%, 70.196078%, 70.196078%)" fill-opacity="1" stroke-width="1" stroke-linecap="butt" stroke-linejoin="miter" stroke="rgb(70.196078%, 70.196078%, 70.196078%)" stroke-opacity="1" stroke-miterlimit="10" d="M 642.054688 750 C 642.054688 753.332031 637.054688 753.332031 637.054688 750 C 637.054688 746.667969 642.054688 746.667969 642.054688 750 "/>
<path fill-rule="nonzero" fill="rgb(70.196078%, 70.196078%, 70.196078%)" fill-opacity="1" stroke-width="1" stroke-linecap="butt" stroke-linejoin="miter" stroke="rgb(70.196078%, 70.196078%, 70.196078%)" stroke-opacity="1" stroke-miterlimit="10" d="M 535.828125 670.042969 C 535.828125 673.375 530.828125 673.375 530.828125 670.042969 C 530.828125 666.707031 535.828125 666.707031 535.828125 670.042969 "/>
<path fill-rule="nonzero" fill="rgb(70.196078%, 70.196078%, 70.196078%)" fill-opacity="1" stroke-width="1" stroke-linecap="butt" stroke-linejoin="miter" stroke="rgb(70.196078%, 70.196078%, 70.196078%)" stroke-opacity="1" stroke-miterlimit="10" d="M 721.007812 651.105469 C 721.007812 654.4375 716.007812 654.4375 716.007812 651.105469 C 716.007812 647.773438 721.007812 647.773438 721.007812 651.105469 "/>
<path fill-rule="nonzero" fill="rgb(70.196078%, 70.196078%, 70.196078%)" fill-opacity="1" stroke-width="1" stroke-linecap="butt" stroke-linejoin="miter" stroke="rgb(70.196078%, 70.196078%, 70.196078%)" stroke-opacity="1" stroke-miterlimit="10" d="M 732.65625 619.757812 C 732.65625 623.089844 727.65625 623.089844 727.65625 619.757812 C 727.65625 616.421875 732.65625 616.421875 732.65625 619.757812 "/>
<path fill-rule="nonzero" fill="rgb(70.196078%, 70.196078%, 70.196078%)" fill-opacity="1" stroke-width="1" stroke-linecap="butt" stroke-linejoin="miter" stroke="rgb(70.196078%, 70.196078%, 70.196078%)" stroke-opacity="1" stroke-miterlimit="10" d="M 743.941406 585.109375 C 743.941406 588.441406 738.941406 588.441406 738.941406 585.109375 C 738.941406 581.773438 743.941406 581.773438 743.941406 585.109375 "/>
</svg>
