<?xml version="1.0" encoding="UTF-8"?>
<svg xmlns="http://www.w3.org/2000/svg" xmlns:xlink="http://www.w3.org/1999/xlink" width="800" height="800" viewBox="0 0 800 800">
<rect x="-80" y="-80" width="960" height="960" fill="rgb(100%, 100%, 100%)" fill-opacity="1"/>
<path fill="none" stroke-width="1.5" stroke-linecap="butt" stroke-linejoin="miter" stroke="rgb(12.156863%, 47.058824%, 70.588235%)" stroke-opacity="1" stroke-miterlimit="10" d="M 56.167969 735.910156 C 55.464844 735.03125 53.46875 734.324219 53.429688 734.503906 "/>
<path fill-rule="nonzero" fill="rgb(12.156863%, 47.058824%, 70.588235%)" fill-opacity="1" d="M 51.898438 741.472656 L 51.164062 734.007812 L 55.691406 735.003906 L 51.898438 741.472656 "/>
<path fill="none" stroke-width="4.5" stroke-linecap="butt" stroke-linejoin="miter" stroke="rgb(70.196078%, 70.196078%, 70.196078%)" stroke-opacity="1" stroke-miterlimit="10" d="M 56.167969 735.910156 C 57.839844 736.953125 59.933594 736.15625 61.515625 736.632812 "/>
<path fill-rule="nonzero" fill="rgb(70.196078%, 70.196078%, 70.196078%)" fill-opacity="1" d="M 54.683594 734.582031 L 62.179688 734.410156 L 60.847656 738.851562 L 54.683594 734.582031 "/>
<path fill="none" stroke-width="1.5" stroke-linecap="butt" stroke-linejoin="miter" stroke="rgb(12.156863%, 47.058824%, 70.588235%)" stroke-opacity="1" stroke-miterlimit="10" d="M 56.167969 735.910156 C 56.714844 738.054688 58.867188 739.03125 59.9375 740.640625 "/>
<path fill-rule="nonzero" fill="rgb(12.156863%, 47.058824%, 70.588235%)" fill-opacity="1" d="M 55.988281 734.703125 L 61.867188 739.355469 L 58.011719 741.925781 L 55.988281 734.703125 "/>
<path fill="none" stroke-width="1.5" stroke-linecap="butt" stroke-linejoin="miter" stroke="rgb(12.156863%, 47.058824%, 70.588235%)" stroke-opacity="1" stroke-miterlimit="10" d="M 56.167969 735.910156 C 57.105469 736.601562 59.09375 736.265625 59.285156 736.585938 "/>
<path fill-rule="nonzero" fill="rgb(12.156863%, 47.058824%, 70.588235%)" fill-opacity="1" d="M 55.652344 730.445312 L 61.277344 735.40625 L 57.289062 737.765625 L 55.652344 730.445312 "/>
<path fill="none" stroke-width="1.5" stroke-linecap="butt" stroke-linejoin="miter" stroke="rgb(12.156863%, 47.058824%, 70.588235%)" stroke-opacity="1" stroke-miterlimit="10" d="M 56.167969 735.910156 C 56.632812 733.945312 55.203125 732.1875 55.121094 730.484375 "/>
<path fill-rule="nonzero" fill="rgb(12.156863%, 47.058824%, 70.588235%)" fill-opacity="1" d="M 55.460938 737.609375 L 52.808594 730.59375 L 57.4375 730.375 L 55.460938 737.609375 "/>
<path fill="none" stroke-width="1.5" stroke-linecap="butt" stroke-linejoin="miter" stroke="rgb(12.156863%, 47.058824%, 70.588235%)" stroke-opacity="1" stroke-miterlimit="10" d="M 56.167969 735.910156 C 58.128906 735.535156 59.140625 733.523438 60.644531 732.773438 "/>
<path fill-rule="nonzero" fill="rgb(12.156863%, 47.058824%, 70.588235%)" fill-opacity="1" d="M 54.257812 735.945312 L 59.613281 730.699219 L 61.675781 734.851562 L 54.257812 735.945312 "/>
<path fill="none" stroke-width="1.5" stroke-linecap="butt" stroke-linejoin="miter" stroke="rgb(12.156863%, 47.058824%, 70.588235%)" stroke-opacity="1" stroke-miterlimit="10" d="M 51.316406 744.121094 C 49.5 745.632812 49.496094 748.085938 48.484375 749.933594 "/>
<path fill-rule="nonzero" fill="rgb(12.156863%, 47.058824%, 70.588235%)" fill-opacity="1" d="M 51.914062 743.675781 L 50.519531 751.046875 L 46.453125 748.820312 L 51.914062 743.675781 "/>
<path fill="none" stroke-width="4.5" stroke-linecap="butt" stroke-linejoin="miter" stroke="rgb(70.196078%, 70.196078%, 70.196078%)" stroke-opacity="1" stroke-miterlimit="10" d="M 50 733.179688 C 48.371094 730.136719 45.300781 729.148438 42.523438 727.421875 "/>
<path fill-rule="nonzero" fill="rgb(70.196078%, 70.196078%, 70.196078%)" fill-opacity="1" d="M 48.578125 731.1875 L 41.296875 729.386719 L 43.746094 725.453125 L 48.578125 731.1875 "/>
<path fill="none" stroke-width="1.5" stroke-linecap="butt" stroke-linejoin="miter" stroke="rgb(12.156863%, 47.058824%, 70.588235%)" stroke-opacity="1" stroke-miterlimit="10" d="M 54.449219 732.394531 C 54.367188 729.785156 52.363281 728.121094 51.320312 725.984375 "/>
<path fill-rule="nonzero" fill="rgb(12.156863%, 47.058824%, 70.588235%)" fill-opacity="1" d="M 54.449219 732.394531 L 49.238281 727 L 53.402344 724.964844 L 54.449219 732.394531 "/>
<path fill="none" stroke-width="1.5" stroke-linecap="butt" stroke-linejoin="miter" stroke="rgb(12.156863%, 47.058824%, 70.588235%)" stroke-opacity="1" stroke-miterlimit="10" d="M 54.191406 727.976562 C 54.914062 725.207031 53.429688 722.855469 52.882812 720.261719 "/>
<path fill-rule="nonzero" fill="rgb(12.156863%, 47.058824%, 70.588235%)" fill-opacity="1" d="M 54.347656 727.242188 L 50.617188 720.738281 L 55.152344 719.785156 L 54.347656 727.242188 "/>
<path fill="none" stroke-width="1.5" stroke-linecap="butt" stroke-linejoin="miter" stroke="rgb(12.156863%, 47.058824%, 70.588235%)" stroke-opacity="1" stroke-miterlimit="10" d="M 55.59375 740.398438 C 54.230469 742.621094 54.988281 745.117188 54.6875 747.472656 "/>
<path fill-rule="nonzero" fill="rgb(12.156863%, 47.058824%, 70.588235%)" fill-opacity="1" d="M 55.59375 740.398438 L 56.984375 747.769531 L 52.386719 747.179688 L 55.59375 740.398438 "/>
<path fill="none" stroke-width="5.5" stroke-linecap="butt" stroke-linejoin="miter" stroke="rgb(70.196078%, 70.196078%, 70.196078%)" stroke-opacity="1" stroke-miterlimit="10" d="M 86.136719 745.21875 C 82.875 739.902344 78.15625 735.503906 72.035156 735.617188 "/>
<path fill-rule="nonzero" fill="rgb(70.196078%, 70.196078%, 70.196078%)" fill-opacity="1" d="M 64.90625 735.75 L 71.992188 733.300781 L 72.078125 737.933594 L 64.90625 735.75 "/>
<path fill="none" stroke-width="1.5" stroke-linecap="butt" stroke-linejoin="miter" stroke="rgb(12.156863%, 47.058824%, 70.588235%)" stroke-opacity="1" stroke-miterlimit="10" d="M 51.753906 737.191406 C 49.171875 736.824219 47.1875 738.511719 44.902344 739.175781 "/>
<path fill-rule="nonzero" fill="rgb(12.156863%, 47.058824%, 70.588235%)" fill-opacity="1" d="M 51.753906 737.191406 L 45.546875 741.402344 L 44.257812 736.949219 L 51.753906 737.191406 "/>
<path fill="none" stroke-width="5.5" stroke-linecap="butt" stroke-linejoin="miter" stroke="rgb(70.196078%, 70.196078%, 70.196078%)" stroke-opacity="1" stroke-miterlimit="10" d="M 122.796875 747.46875 C 115.28125 741.695312 106.511719 738.597656 97.566406 741.503906 "/>
<path fill-rule="nonzero" fill="rgb(70.196078%, 70.196078%, 70.196078%)" fill-opacity="1" d="M 90.785156 743.707031 L 96.851562 739.300781 L 98.285156 743.707031 L 90.785156 743.707031 "/>
<path fill="none" stroke-width="5.5" stroke-linecap="butt" stroke-linejoin="miter" stroke="rgb(70.196078%, 70.196078%, 70.196078%)" stroke-opacity="1" stroke-miterlimit="10" d="M 160.363281 749.324219 C 152.496094 743.492188 143.390625 740.476562 134.179688 743.601562 "/>
<path fill-rule="nonzero" fill="rgb(70.196078%, 70.196078%, 70.196078%)" fill-opacity="1" d="M 127.425781 745.894531 L 133.4375 741.410156 L 134.925781 745.796875 L 127.425781 745.894531 "/>
<path fill="none" stroke-width="5.5" stroke-linecap="butt" stroke-linejoin="miter" stroke="rgb(70.196078%, 70.196078%, 70.196078%)" stroke-opacity="1" stroke-miterlimit="10" d="M 237.199219 749.089844 C 228.488281 743.652344 218.753906 741.308594 209.363281 745.296875 "/>
<path fill-rule="nonzero" fill="rgb(70.196078%, 70.196078%, 70.196078%)" fill-opacity="1" d="M 202.796875 748.085938 L 208.457031 743.164062 L 210.269531 747.433594 L 202.796875 748.085938 "/>
<path fill="none" stroke-width="5.5" stroke-linecap="butt" stroke-linejoin="miter" stroke="rgb(70.196078%, 70.196078%, 70.196078%)" stroke-opacity="1" stroke-miterlimit="10" d="M 198.292969 750 C 190.136719 744.363281 180.835938 741.636719 171.621094 745.097656 "/>
<path fill-rule="nonzero" fill="rgb(70.196078%, 70.196078%, 70.196078%)" fill-opacity="1" d="M 164.941406 747.605469 L 170.804688 742.925781 L 172.433594 747.265625 L 164.941406 747.605469 "/>
<path fill="none" stroke-width="5.5" stroke-linecap="butt" stroke-linejoin="miter" stroke="rgb(70.196078%, 70.196078%, 70.196078%)" stroke-opacity="1" stroke-miterlimit="10" d="M 276.652344 747.027344 C 267.589844 741.761719 257.589844 739.710938 248.125 744.0625 "/>
<path fill-rule="nonzero" fill="rgb(70.196078%, 70.196078%, 70.196078%)" fill-opacity="1" d="M 241.644531 747.046875 L 247.15625 741.957031 L 249.09375 746.167969 L 241.644531 747.046875 "/>
<path fill="none" stroke-width="5.5" stroke-linecap="butt" stroke-linejoin="miter" stroke="rgb(70.196078%, 70.196078%, 70.196078%)" stroke-opacity="1" stroke-miterlimit="10" d="M 316.578125 742.460938 C 306.96875 737.683594 296.640625 736.277344 287.246094 741.328125 "/>
<path fill-rule="nonzero" fill="rgb(70.196078%, 70.196078%, 70.196078%)" fill-opacity="1" d="M 280.964844 744.707031 L 286.148438 739.289062 L 288.34375 743.371094 L 280.964844 744.707031 "/>
<path fill="none" stroke-width="5.5" stroke-linecap="butt" stroke-linejoin="miter" stroke="rgb(70.196078%, 70.196078%, 70.196078%)" stroke-opacity="1" stroke-miterlimit="10" d="M 358.511719 736.972656 C 348.089844 732.121094 337.035156 730.960938 327.066406 736.566406 "/>
<path fill-rule="nonzero" fill="rgb(70.196078%, 70.196078%, 70.196078%)" fill-opacity="1" d="M 320.847656 740.0625 L 325.929688 734.546875 L 328.203125 738.585938 L 320.847656 740.0625 "/>
<path fill="none" stroke-width="5.5" stroke-linecap="butt" stroke-linejoin="miter" stroke="rgb(70.196078%, 70.196078%, 70.196078%)" stroke-opacity="1" stroke-miterlimit="10" d="M 747.417969 155.8125 C 741.339844 166.972656 739.402344 179.023438 744.785156 190.472656 "/>
<path fill-rule="nonzero" fill="rgb(70.196078%, 70.196078%, 70.196078%)" fill-opacity="1" d="M 747.820312 196.929688 L 742.6875 191.460938 L 746.882812 189.488281 L 747.820312 196.929688 "/>
<path fill="none" stroke-width="5.5" stroke-linecap="butt" stroke-linejoin="miter" stroke="rgb(70.196078%, 70.196078%, 70.196078%)" stroke-opacity="1" stroke-miterlimit="10" d="M 729.167969 125.246094 C 728.601562 134.296875 730.800781 142.957031 737.914062 148.460938 "/>
<path fill-rule="nonzero" fill="rgb(70.196078%, 70.196078%, 70.196078%)" fill-opacity="1" d="M 743.554688 152.824219 L 736.496094 150.292969 L 739.332031 146.625 L 743.554688 152.824219 "/>
<path fill="none" stroke-width="5.5" stroke-linecap="butt" stroke-linejoin="miter" stroke="rgb(70.196078%, 70.196078%, 70.196078%)" stroke-opacity="1" stroke-miterlimit="10" d="M 708.6875 97.484375 C 708.925781 106.152344 711.742188 114.253906 719.007812 118.835938 "/>
<path fill-rule="nonzero" fill="rgb(70.196078%, 70.196078%, 70.196078%)" fill-opacity="1" d="M 725.039062 122.644531 L 717.769531 120.796875 L 720.242188 116.878906 L 725.039062 122.644531 "/>
<path fill="none" stroke-width="5.5" stroke-linecap="butt" stroke-linejoin="miter" stroke="rgb(70.196078%, 70.196078%, 70.196078%)" stroke-opacity="1" stroke-miterlimit="10" d="M 685.503906 76.527344 C 687.003906 83.875 690.578125 90.507812 697.488281 93.167969 "/>
<path fill-rule="nonzero" fill="rgb(70.196078%, 70.196078%, 70.196078%)" fill-opacity="1" d="M 704.144531 95.734375 L 696.652344 95.332031 L 698.320312 91.007812 L 704.144531 95.734375 "/>
<path fill="none" stroke-width="5.5" stroke-linecap="butt" stroke-linejoin="miter" stroke="rgb(70.196078%, 70.196078%, 70.196078%)" stroke-opacity="1" stroke-miterlimit="10" d="M 399.558594 727.246094 C 388.734375 723.492188 377.652344 723.464844 368.34375 730.035156 "/>
<path fill-rule="nonzero" fill="rgb(70.196078%, 70.196078%, 70.196078%)" fill-opacity="1" d="M 362.515625 734.144531 L 367.007812 728.140625 L 369.679688 731.929688 L 362.515625 734.144531 "/>
<path fill="none" stroke-width="5.5" stroke-linecap="butt" stroke-linejoin="miter" stroke="rgb(70.196078%, 70.196078%, 70.196078%)" stroke-opacity="1" stroke-miterlimit="10" d="M 440.933594 717.257812 C 429.957031 713.523438 418.753906 713.570312 409.359375 720.261719 "/>
<path fill-rule="nonzero" fill="rgb(70.196078%, 70.196078%, 70.196078%)" fill-opacity="1" d="M 403.550781 724.402344 L 408.015625 718.375 L 410.703125 722.152344 L 403.550781 724.402344 "/>
<path fill="none" stroke-width="5.5" stroke-linecap="butt" stroke-linejoin="miter" stroke="rgb(70.196078%, 70.196078%, 70.196078%)" stroke-opacity="1" stroke-miterlimit="10" d="M 479.835938 701.484375 C 468.644531 699.425781 457.753906 701.054688 449.601562 708.910156 "/>
<path fill-rule="nonzero" fill="rgb(70.196078%, 70.196078%, 70.196078%)" fill-opacity="1" d="M 444.460938 713.859375 L 447.992188 707.242188 L 451.207031 710.578125 L 444.460938 713.859375 "/>
<path fill="none" stroke-width="5.5" stroke-linecap="butt" stroke-linejoin="miter" stroke="rgb(70.196078%, 70.196078%, 70.196078%)" stroke-opacity="1" stroke-miterlimit="10" d="M 519.9375 681.515625 C 507.585938 680.351562 496 683.222656 487.816406 692.472656 "/>
<path fill-rule="nonzero" fill="rgb(70.196078%, 70.196078%, 70.196078%)" fill-opacity="1" d="M 483.089844 697.8125 L 486.082031 690.9375 L 489.550781 694.007812 L 483.089844 697.8125 "/>
<path fill="none" stroke-width="5.5" stroke-linecap="butt" stroke-linejoin="miter" stroke="rgb(70.196078%, 70.196078%, 70.196078%)" stroke-opacity="1" stroke-miterlimit="10" d="M 626.066406 54.667969 C 630.589844 60.75 636.707031 65.277344 644.175781 64.761719 "/>
<path fill-rule="nonzero" fill="rgb(70.196078%, 70.196078%, 70.196078%)" fill-opacity="1" d="M 651.292969 64.273438 L 644.335938 67.074219 L 644.019531 62.449219 L 651.292969 64.273438 "/>
<path fill="none" stroke-width="5.5" stroke-linecap="butt" stroke-linejoin="miter" stroke="rgb(70.196078%, 70.196078%, 70.196078%)" stroke-opacity="1" stroke-miterlimit="10" d="M 656.152344 63.941406 C 660.117188 70.59375 665.855469 75.804688 673.503906 76.085938 "/>
<path fill-rule="nonzero" fill="rgb(70.196078%, 70.196078%, 70.196078%)" fill-opacity="1" d="M 680.632812 76.347656 L 673.417969 78.402344 L 673.589844 73.769531 L 680.632812 76.347656 "/>
<path fill="none" stroke-width="5.5" stroke-linecap="butt" stroke-linejoin="miter" stroke="rgb(70.196078%, 70.196078%, 70.196078%)" stroke-opacity="1" stroke-miterlimit="10" d="M 472.25 72.769531 C 480.222656 75.128906 488.488281 75.003906 494.792969 69.707031 "/>
<path fill-rule="nonzero" fill="rgb(70.196078%, 70.196078%, 70.196078%)" fill-opacity="1" d="M 500.253906 65.117188 L 496.285156 71.480469 L 493.304688 67.933594 L 500.253906 65.117188 "/>
<path fill="none" stroke-width="5.5" stroke-linecap="butt" stroke-linejoin="miter" stroke="rgb(70.196078%, 70.196078%, 70.196078%)" stroke-opacity="1" stroke-miterlimit="10" d="M 503.992188 61.980469 C 511.257812 64.429688 518.941406 64.660156 524.871094 59.933594 "/>
<path fill-rule="nonzero" fill="rgb(70.196078%, 70.196078%, 70.196078%)" fill-opacity="1" d="M 530.445312 55.488281 L 526.3125 61.746094 L 523.425781 58.121094 L 530.445312 55.488281 "/>
<path fill="none" stroke-width="5.5" stroke-linecap="butt" stroke-linejoin="miter" stroke="rgb(70.196078%, 70.196078%, 70.196078%)" stroke-opacity="1" stroke-miterlimit="10" d="M 446.039062 86.640625 C 452.867188 87.769531 459.839844 86.917969 464.335938 81.789062 "/>
<path fill-rule="nonzero" fill="rgb(70.196078%, 70.196078%, 70.196078%)" fill-opacity="1" d="M 469.042969 76.429688 L 466.078125 83.320312 L 462.59375 80.261719 L 469.042969 76.429688 "/>
<path fill="none" stroke-width="5.5" stroke-linecap="butt" stroke-linejoin="miter" stroke="rgb(70.196078%, 70.196078%, 70.196078%)" stroke-opacity="1" stroke-miterlimit="10" d="M 594.628906 51.921875 C 600.351562 56.929688 607.308594 60.070312 614.53125 57.992188 "/>
<path fill-rule="nonzero" fill="rgb(70.196078%, 70.196078%, 70.196078%)" fill-opacity="1" d="M 621.382812 56.015625 L 615.171875 60.21875 L 613.886719 55.765625 L 621.382812 56.015625 "/>
<path fill="none" stroke-width="5.5" stroke-linecap="butt" stroke-linejoin="miter" stroke="rgb(70.196078%, 70.196078%, 70.196078%)" stroke-opacity="1" stroke-miterlimit="10" d="M 559.394531 659.332031 C 546.828125 658.800781 535.265625 662.328125 527.449219 672.109375 "/>
<path fill-rule="nonzero" fill="rgb(70.196078%, 70.196078%, 70.196078%)" fill-opacity="1" d="M 523 677.683594 L 525.640625 670.664062 L 529.261719 673.558594 L 523 677.683594 "/>
<path fill="none" stroke-width="5.5" stroke-linecap="butt" stroke-linejoin="miter" stroke="rgb(70.196078%, 70.196078%, 70.196078%)" stroke-opacity="1" stroke-miterlimit="10" d="M 595.828125 632.019531 C 583.203125 633.15625 572.125 638.21875 565.609375 649.023438 "/>
<path fill-rule="nonzero" fill="rgb(70.196078%, 70.196078%, 70.196078%)" fill-opacity="1" d="M 561.925781 655.132812 L 563.625 647.828125 L 567.59375 650.222656 L 561.925781 655.132812 "/>
<path fill="none" stroke-width="5.5" stroke-linecap="butt" stroke-linejoin="miter" stroke="rgb(70.196078%, 70.196078%, 70.196078%)" stroke-opacity="1" stroke-miterlimit="10" d="M 628.496094 598.515625 C 615.765625 601.746094 605.304688 608.757812 600.367188 620.871094 "/>
<path fill-rule="nonzero" fill="rgb(70.196078%, 70.196078%, 70.196078%)" fill-opacity="1" d="M 597.679688 627.476562 L 598.222656 619.996094 L 602.515625 621.746094 L 597.679688 627.476562 "/>
<path fill="none" stroke-width="5.5" stroke-linecap="butt" stroke-linejoin="miter" stroke="rgb(70.196078%, 70.196078%, 70.196078%)" stroke-opacity="1" stroke-miterlimit="10" d="M 375.300781 131.707031 C 380.835938 133.113281 386.800781 133.011719 390.6875 128.992188 "/>
<path fill-rule="nonzero" fill="rgb(70.196078%, 70.196078%, 70.196078%)" fill-opacity="1" d="M 395.648438 123.867188 L 392.355469 130.605469 L 389.023438 127.378906 L 395.648438 123.867188 "/>
<path fill="none" stroke-width="5.5" stroke-linecap="butt" stroke-linejoin="miter" stroke="rgb(70.196078%, 70.196078%, 70.196078%)" stroke-opacity="1" stroke-miterlimit="10" d="M 655.898438 562.890625 C 644.234375 567.273438 635.046875 574.96875 631.722656 586.917969 "/>
<path fill-rule="nonzero" fill="rgb(70.196078%, 70.196078%, 70.196078%)" fill-opacity="1" d="M 629.808594 593.789062 L 629.488281 586.296875 L 633.953125 587.539062 L 629.808594 593.789062 "/>
<path fill="none" stroke-width="5.5" stroke-linecap="butt" stroke-linejoin="miter" stroke="rgb(70.196078%, 70.196078%, 70.196078%)" stroke-opacity="1" stroke-miterlimit="10" d="M 683.503906 527.820312 C 671.894531 532.023438 662.6875 539.53125 659.257812 551.332031 "/>
<path fill-rule="nonzero" fill="rgb(70.196078%, 70.196078%, 70.196078%)" fill-opacity="1" d="M 657.265625 558.183594 L 657.03125 550.6875 L 661.480469 551.980469 L 657.265625 558.183594 "/>
<path fill="none" stroke-width="5.5" stroke-linecap="butt" stroke-linejoin="miter" stroke="rgb(70.196078%, 70.196078%, 70.196078%)" stroke-opacity="1" stroke-miterlimit="10" d="M 704.796875 483.121094 C 693.023438 490.921875 684.980469 501.746094 684.183594 515.796875 "/>
<path fill-rule="nonzero" fill="rgb(70.196078%, 70.196078%, 70.196078%)" fill-opacity="1" d="M 683.78125 522.917969 L 681.871094 515.664062 L 686.5 515.925781 L 683.78125 522.917969 "/>
<path fill="none" stroke-width="5.5" stroke-linecap="butt" stroke-linejoin="miter" stroke="rgb(70.196078%, 70.196078%, 70.196078%)" stroke-opacity="1" stroke-miterlimit="10" d="M 736.859375 389.65625 C 727 400.117188 721.558594 412.707031 724.007812 426.824219 "/>
<path fill-rule="nonzero" fill="rgb(70.196078%, 70.196078%, 70.196078%)" fill-opacity="1" d="M 725.230469 433.851562 L 721.726562 427.21875 L 726.292969 426.425781 L 725.230469 433.851562 "/>
<path fill="none" stroke-width="5.5" stroke-linecap="butt" stroke-linejoin="miter" stroke="rgb(70.196078%, 70.196078%, 70.196078%)" stroke-opacity="1" stroke-miterlimit="10" d="M 726.070312 438.691406 C 714.351562 446.410156 706.324219 457.140625 705.503906 471.097656 "/>
<path fill-rule="nonzero" fill="rgb(70.196078%, 70.196078%, 70.196078%)" fill-opacity="1" d="M 705.085938 478.21875 L 703.191406 470.960938 L 707.816406 471.234375 L 705.085938 478.21875 "/>
<path fill="none" stroke-width="5.5" stroke-linecap="butt" stroke-linejoin="miter" stroke="rgb(70.196078%, 70.196078%, 70.196078%)" stroke-opacity="1" stroke-miterlimit="10" d="M 361.355469 140.089844 C 363.191406 141.226562 365.992188 142.238281 367.207031 140.863281 "/>
<path fill-rule="nonzero" fill="rgb(70.196078%, 70.196078%, 70.196078%)" fill-opacity="1" d="M 371.933594 135.519531 L 368.945312 142.398438 L 365.472656 139.328125 L 371.933594 135.519531 "/>
<path fill="none" stroke-width="5.5" stroke-linecap="butt" stroke-linejoin="miter" stroke="rgb(70.196078%, 70.196078%, 70.196078%)" stroke-opacity="1" stroke-miterlimit="10" d="M 563.566406 50 C 569.273438 54.785156 576.160156 57.738281 583.179688 55.527344 "/>
<path fill-rule="nonzero" fill="rgb(70.196078%, 70.196078%, 70.196078%)" fill-opacity="1" d="M 589.980469 53.382812 L 583.875 57.738281 L 582.480469 53.316406 L 589.980469 53.382812 "/>
<path fill="none" stroke-width="5.5" stroke-linecap="butt" stroke-linejoin="miter" stroke="rgb(70.196078%, 70.196078%, 70.196078%)" stroke-opacity="1" stroke-miterlimit="10" d="M 749.90625 201.367188 C 743.007812 212.726562 740.429688 225.195312 745.441406 237.449219 "/>
<path fill-rule="nonzero" fill="rgb(70.196078%, 70.196078%, 70.196078%)" fill-opacity="1" d="M 748.140625 244.050781 L 743.296875 238.328125 L 747.585938 236.574219 L 748.140625 244.050781 "/>
<path fill="none" stroke-width="5.5" stroke-linecap="butt" stroke-linejoin="miter" stroke="rgb(70.196078%, 70.196078%, 70.196078%)" stroke-opacity="1" stroke-miterlimit="10" d="M 745.953125 344.660156 C 737.207031 354.019531 732.277344 365.289062 734.636719 377.824219 "/>
<path fill-rule="nonzero" fill="rgb(70.196078%, 70.196078%, 70.196078%)" fill-opacity="1" d="M 735.953125 384.835938 L 732.355469 378.253906 L 736.914062 377.398438 L 735.953125 384.835938 "/>
<path fill="none" stroke-width="5.5" stroke-linecap="butt" stroke-linejoin="miter" stroke="rgb(70.196078%, 70.196078%, 70.196078%)" stroke-opacity="1" stroke-miterlimit="10" d="M 748.300781 295.613281 C 740.527344 307.222656 737.296875 320.179688 741.9375 333.304688 "/>
<path fill-rule="nonzero" fill="rgb(70.196078%, 70.196078%, 70.196078%)" fill-opacity="1" d="M 744.316406 340.03125 L 739.753906 334.078125 L 744.121094 332.535156 L 744.316406 340.03125 "/>
<path fill="none" stroke-width="5.5" stroke-linecap="butt" stroke-linejoin="miter" stroke="rgb(70.196078%, 70.196078%, 70.196078%)" stroke-opacity="1" stroke-miterlimit="10" d="M 750 248.59375 C 742.699219 259.625 739.65625 271.929688 744.171875 284.304688 "/>
<path fill-rule="nonzero" fill="rgb(70.196078%, 70.196078%, 70.196078%)" fill-opacity="1" d="M 746.617188 291.003906 L 741.996094 285.097656 L 746.347656 283.507812 L 746.617188 291.003906 "/>
<path fill="none" stroke-width="5.5" stroke-linecap="butt" stroke-linejoin="miter" stroke="rgb(70.196078%, 70.196078%, 70.196078%)" stroke-opacity="1" stroke-miterlimit="10" d="M 534.257812 52.449219 C 540.011719 56.136719 546.675781 58.09375 552.746094 55.183594 "/>
<path fill-rule="nonzero" fill="rgb(70.196078%, 70.196078%, 70.196078%)" fill-opacity="1" d="M 559.179688 52.101562 L 553.75 57.277344 L 551.746094 53.09375 L 559.179688 52.101562 "/>
<path fill="none" stroke-width="5.5" stroke-linecap="butt" stroke-linejoin="miter" stroke="rgb(70.196078%, 70.196078%, 70.196078%)" stroke-opacity="1" stroke-miterlimit="10" d="M 399.023438 120.378906 C 405.015625 120.507812 411.035156 118.980469 414.117188 113.972656 "/>
<path fill-rule="nonzero" fill="rgb(70.196078%, 70.196078%, 70.196078%)" fill-opacity="1" d="M 417.855469 107.898438 L 416.089844 115.1875 L 412.144531 112.757812 L 417.855469 107.898438 "/>
<path fill="none" stroke-width="5.5" stroke-linecap="butt" stroke-linejoin="miter" stroke="rgb(70.196078%, 70.196078%, 70.196078%)" stroke-opacity="1" stroke-miterlimit="10" d="M 420.402344 103.761719 C 427.734375 104.128906 434.921875 102.359375 439.109375 96.4375 "/>
<path fill-rule="nonzero" fill="rgb(70.196078%, 70.196078%, 70.196078%)" fill-opacity="1" d="M 443.226562 90.617188 L 441 97.777344 L 437.214844 95.101562 L 443.226562 90.617188 "/>
<path fill="none" stroke-width="5.5" stroke-linecap="butt" stroke-linejoin="miter" stroke="rgb(70.196078%, 70.196078%, 70.196078%)" stroke-opacity="1" stroke-miterlimit="10" d="M 333.488281 160.039062 C 331.585938 160.628906 330.808594 162.738281 329.402344 163.644531 "/>
<path fill-rule="nonzero" fill="rgb(70.196078%, 70.196078%, 70.196078%)" fill-opacity="1" d="M 335.402344 159.785156 L 330.65625 165.59375 L 328.148438 161.695312 L 335.402344 159.785156 "/>
<path fill="none" stroke-width="5.5" stroke-linecap="butt" stroke-linejoin="miter" stroke="rgb(70.196078%, 70.196078%, 70.196078%)" stroke-opacity="1" stroke-miterlimit="10" d="M 339.507812 157.136719 C 339.980469 158.171875 341.757812 159.363281 341.84375 159.191406 "/>
<path fill-rule="nonzero" fill="rgb(70.196078%, 70.196078%, 70.196078%)" fill-opacity="1" d="M 345.089844 152.835938 L 343.910156 160.242188 L 339.78125 158.136719 L 345.089844 152.835938 "/>
<path fill="none" stroke-width="5.5" stroke-linecap="butt" stroke-linejoin="miter" stroke="rgb(70.196078%, 70.196078%, 70.196078%)" stroke-opacity="1" stroke-miterlimit="10" d="M 347.367188 148.367188 C 349.191406 149.515625 351.984375 150.550781 353.203125 149.1875 "/>
<path fill-rule="nonzero" fill="rgb(70.196078%, 70.196078%, 70.196078%)" fill-opacity="1" d="M 357.960938 143.875 L 354.929688 150.734375 L 351.476562 147.644531 L 357.960938 143.875 "/>
<path fill-rule="nonzero" fill="rgb(14.901961%, 14.901961%, 14.901961%)" fill-opacity="1" stroke-width="1" stroke-linecap="butt" stroke-linejoin="miter" stroke="rgb(14.901961%, 14.901961%, 14.901961%)" stroke-opacity="1" stroke-miterlimit="10" d="M 47.316406 744.761719 L 56.167969 727.0625 L 65.015625 744.761719 Z M 47.316406 744.761719 "/>
<path fill-rule="nonzero" fill="rgb(12.156863%, 47.058824%, 70.588235%)" fill-opacity="1" stroke-width="1" stroke-linecap="butt" stroke-linejoin="miter" stroke="rgb(12.156863%, 47.058824%, 70.588235%)" stroke-opacity="1" stroke-miterlimit="10" d="M 54.066406 744.121094 C 54.066406 747.789062 48.566406 747.789062 48.566406 744.121094 C 48.566406 740.457031 54.066406 740.457031 54.066406 744.121094 "/>
<path fill-rule="nonzero" fill="rgb(70.196078%, 70.196078%, 70.196078%)" fill-opacity="1" stroke-width="1" stroke-linecap="butt" stroke-linejoin="miter" stroke="rgb(70.196078%, 70.196078%, 70.196078%)" stroke-opacity="1" stroke-miterlimit="10" d="M 54.851562 733.179688 C 54.851562 739.644531 45.148438 739.644531 45.148438 733.179688 C 45.148438 726.710938 54.851562 726.710938 54.851562 733.179688 "/>
<path fill-rule="nonzero" fill="rgb(12.156863%, 47.058824%, 70.588235%)" fill-opacity="1" stroke-width="1" stroke-linecap="butt" stroke-linejoin="miter" stroke="rgb(12.156863%, 47.058824%, 70.588235%)" stroke-opacity="1" stroke-miterlimit="10" d="M 57.199219 732.394531 C 57.199219 736.058594 51.699219 736.058594 51.699219 732.394531 C 51.699219 728.726562 57.199219 728.726562 57.199219 732.394531 "/>
<path fill-rule="nonzero" fill="rgb(12.156863%, 47.058824%, 70.588235%)" fill-opacity="1" stroke-width="1" stroke-linecap="butt" stroke-linejoin="miter" stroke="rgb(12.156863%, 47.058824%, 70.588235%)" stroke-opacity="1" stroke-miterlimit="10" d="M 56.941406 727.976562 C 56.941406 731.640625 51.441406 731.640625 51.441406 727.976562 C 51.441406 724.308594 56.941406 724.308594 56.941406 727.976562 "/>
<path fill-rule="nonzero" fill="rgb(12.156863%, 47.058824%, 70.588235%)" fill-opacity="1" stroke-width="1" stroke-linecap="butt" stroke-linejoin="miter" stroke="rgb(12.156863%, 47.058824%, 70.588235%)" stroke-opacity="1" stroke-miterlimit="10" d="M 58.34375 740.398438 C 58.34375 744.066406 52.84375 744.066406 52.84375 740.398438 C 52.84375 736.730469 58.34375 736.730469 58.34375 740.398438 "/>
<path fill-rule="nonzero" fill="rgb(70.196078%, 70.196078%, 70.196078%)" fill-opacity="1" stroke-width="1" stroke-linecap="butt" stroke-linejoin="miter" stroke="rgb(70.196078%, 70.196078%, 70.196078%)" stroke-opacity="1" stroke-miterlimit="10" d="M 90.984375 745.21875 C 90.984375 751.6875 81.285156 751.6875 81.285156 745.21875 C 81.285156 738.753906 90.984375 738.753906 90.984375 745.21875 "/>
<path fill-rule="nonzero" fill="rgb(12.156863%, 47.058824%, 70.588235%)" fill-opacity="1" stroke-width="1" stroke-linecap="butt" stroke-linejoin="miter" stroke="rgb(12.156863%, 47.058824%, 70.588235%)" stroke-opacity="1" stroke-miterlimit="10" d="M 54.503906 737.191406 C 54.503906 740.855469 49.003906 740.855469 49.003906 737.191406 C 49.003906 733.523438 54.503906 733.523438 54.503906 737.191406 "/>
<path fill-rule="nonzero" fill="rgb(70.196078%, 70.196078%, 70.196078%)" fill-opacity="1" stroke-width="1" stroke-linecap="butt" stroke-linejoin="miter" stroke="rgb(70.196078%, 70.196078%, 70.196078%)" stroke-opacity="1" stroke-miterlimit="10" d="M 127.648438 747.46875 C 127.648438 753.933594 117.945312 753.933594 117.945312 747.46875 C 117.945312 741 127.648438 741 127.648438 747.46875 "/>
<path fill-rule="nonzero" fill="rgb(70.196078%, 70.196078%, 70.196078%)" fill-opacity="1" stroke-width="1" stroke-linecap="butt" stroke-linejoin="miter" stroke="rgb(70.196078%, 70.196078%, 70.196078%)" stroke-opacity="1" stroke-miterlimit="10" d="M 165.214844 749.324219 C 165.214844 755.792969 155.515625 755.792969 155.515625 749.324219 C 155.515625 742.859375 165.214844 742.859375 165.214844 749.324219 "/>
<path fill-rule="nonzero" fill="rgb(70.196078%, 70.196078%, 70.196078%)" fill-opacity="1" stroke-width="1" stroke-linecap="butt" stroke-linejoin="miter" stroke="rgb(70.196078%, 70.196078%, 70.196078%)" stroke-opacity="1" stroke-miterlimit="10" d="M 242.046875 749.089844 C 242.046875 755.558594 232.347656 755.558594 232.347656 749.089844 C 232.347656 742.625 242.046875 742.625 242.046875 749.089844 "/>
<path fill-rule="nonzero" fill="rgb(70.196078%, 70.196078%, 70.196078%)" fill-opacity="1" stroke-width="1" stroke-linecap="butt" stroke-linejoin="miter" stroke="rgb(70.196078%, 70.196078%, 70.196078%)" stroke-opacity="1" stroke-miterlimit="10" d="M 203.144531 750 C 203.144531 756.464844 193.445312 756.464844 193.445312 750 C 193.445312 743.535156 203.144531 743.535156 203.144531 750 "/>
<path fill-rule="nonzero" fill="rgb(70.196078%, 70.196078%, 70.196078%)" fill-opacity="1" stroke-width="1" stroke-linecap="butt" stroke-linejoin="miter" stroke="rgb(70.196078%, 70.196078%, 70.196078%)" stroke-opacity="1" stroke-miterlimit="10" d="M 281.503906 747.027344 C 281.503906 753.496094 271.804688 753.496094 271.804688 747.027344 C 271.804688 740.5625 281.503906 740.5625 281.503906 747.027344 "/>
<path fill-rule="nonzero" fill="rgb(70.196078%, 70.196078%, 70.196078%)" fill-opacity="1" stroke-width="1" stroke-linecap="butt" stroke-linejoin="miter" stroke="rgb(70.196078%, 70.196078%, 70.196078%)" stroke-opacity="1" stroke-miterlimit="10" d="M 321.425781 742.460938 C 321.425781 748.929688 311.726562 748.929688 311.726562 742.460938 C 311.726562 735.996094 321.425781 735.996094 321.425781 742.460938 "/>
<path fill-rule="nonzero" fill="rgb(70.196078%, 70.196078%, 70.196078%)" fill-opacity="1" stroke-width="1" stroke-linecap="butt" stroke-linejoin="miter" stroke="rgb(70.196078%, 70.196078%, 70.196078%)" stroke-opacity="1" stroke-miterlimit="10" d="M 363.359375 736.972656 C 363.359375 743.4375 353.660156 743.4375 353.660156 736.972656 C 353.660156 730.503906 363.359375 730.503906 363.359375 736.972656 "/>
<path fill-rule="nonzero" fill="rgb(70.196078%, 70.196078%, 70.196078%)" fill-opacity="1" stroke-width="1" stroke-linecap="butt" stroke-linejoin="miter" stroke="rgb(70.196078%, 70.196078%, 70.196078%)" stroke-opacity="1" stroke-miterlimit="10" d="M 752.269531 155.8125 C 752.269531 162.28125 742.570312 162.28125 742.570312 155.8125 C 742.570312 149.347656 752.269531 149.347656 752.269531 155.8125 "/>
<path fill-rule="nonzero" fill="rgb(70.196078%, 70.196078%, 70.196078%)" fill-opacity="1" stroke-width="1" stroke-linecap="butt" stroke-linejoin="miter" stroke="rgb(70.196078%, 70.196078%, 70.196078%)" stroke-opacity="1" stroke-miterlimit="10" d="M 734.019531 125.246094 C 734.019531 131.714844 724.316406 131.714844 724.316406 125.246094 C 724.316406 118.78125 734.019531 118.78125 734.019531 125.246094 "/>
<path fill-rule="nonzero" fill="rgb(70.196078%, 70.196078%, 70.196078%)" fill-opacity="1" stroke-width="1" stroke-linecap="butt" stroke-linejoin="miter" stroke="rgb(70.196078%, 70.196078%, 70.196078%)" stroke-opacity="1" stroke-miterlimit="10" d="M 713.539062 97.484375 C 713.539062 103.953125 703.839844 103.953125 703.839844 97.484375 C 703.839844 91.019531 713.539062 91.019531 713.539062 97.484375 "/>
<path fill-rule="nonzero" fill="rgb(70.196078%, 70.196078%, 70.196078%)" fill-opacity="1" stroke-width="1" stroke-linecap="butt" stroke-linejoin="miter" stroke="rgb(70.196078%, 70.196078%, 70.196078%)" stroke-opacity="1" stroke-miterlimit="10" d="M 690.355469 76.527344 C 690.355469 82.996094 680.652344 82.996094 680.652344 76.527344 C 680.652344 70.0625 690.355469 70.0625 690.355469 76.527344 "/>
<path fill-rule="nonzero" fill="rgb(70.196078%, 70.196078%, 70.196078%)" fill-opacity="1" stroke-width="1" stroke-linecap="butt" stroke-linejoin="miter" stroke="rgb(70.196078%, 70.196078%, 70.196078%)" stroke-opacity="1" stroke-miterlimit="10" d="M 404.410156 727.246094 C 404.410156 733.710938 394.707031 733.710938 394.707031 727.246094 C 394.707031 720.777344 404.410156 720.777344 404.410156 727.246094 "/>
<path fill-rule="nonzero" fill="rgb(70.196078%, 70.196078%, 70.196078%)" fill-opacity="1" stroke-width="1" stroke-linecap="butt" stroke-linejoin="miter" stroke="rgb(70.196078%, 70.196078%, 70.196078%)" stroke-opacity="1" stroke-miterlimit="10" d="M 445.785156 717.257812 C 445.785156 723.726562 436.085938 723.726562 436.085938 717.257812 C 436.085938 710.792969 445.785156 710.792969 445.785156 717.257812 "/>
<path fill-rule="nonzero" fill="rgb(70.196078%, 70.196078%, 70.196078%)" fill-opacity="1" stroke-width="1" stroke-linecap="butt" stroke-linejoin="miter" stroke="rgb(70.196078%, 70.196078%, 70.196078%)" stroke-opacity="1" stroke-miterlimit="10" d="M 484.6875 701.484375 C 484.6875 707.953125 474.988281 707.953125 474.988281 701.484375 C 474.988281 695.019531 484.6875 695.019531 484.6875 701.484375 "/>
<path fill-rule="nonzero" fill="rgb(70.196078%, 70.196078%, 70.196078%)" fill-opacity="1" stroke-width="1" stroke-linecap="butt" stroke-linejoin="miter" stroke="rgb(70.196078%, 70.196078%, 70.196078%)" stroke-opacity="1" stroke-miterlimit="10" d="M 524.789062 681.515625 C 524.789062 687.984375 515.089844 687.984375 515.089844 681.515625 C 515.089844 675.050781 524.789062 675.050781 524.789062 681.515625 "/>
<path fill-rule="nonzero" fill="rgb(70.196078%, 70.196078%, 70.196078%)" fill-opacity="1" stroke-width="1" stroke-linecap="butt" stroke-linejoin="miter" stroke="rgb(70.196078%, 70.196078%, 70.196078%)" stroke-opacity="1" stroke-miterlimit="10" d="M 630.914062 54.667969 C 630.914062 61.132812 621.214844 61.132812 621.214844 54.667969 C 621.214844 48.199219 630.914062 48.199219 630.914062 54.667969 "/>
<path fill-rule="nonzero" fill="rgb(70.196078%, 70.196078%, 70.196078%)" fill-opacity="1" stroke-width="1" stroke-linecap="butt" stroke-linejoin="miter" stroke="rgb(70.196078%, 70.196078%, 70.196078%)" stroke-opacity="1" stroke-miterlimit="10" d="M 661.003906 63.941406 C 661.003906 70.40625 651.304688 70.40625 651.304688 63.941406 C 651.304688 57.472656 661.003906 57.472656 661.003906 63.941406 "/>
<path fill-rule="nonzero" fill="rgb(70.196078%, 70.196078%, 70.196078%)" fill-opacity="1" stroke-width="1" stroke-linecap="butt" stroke-linejoin="miter" stroke="rgb(70.196078%, 70.196078%, 70.196078%)" stroke-opacity="1" stroke-miterlimit="10" d="M 477.101562 72.769531 C 477.101562 79.238281 467.398438 79.238281 467.398438 72.769531 C 467.398438 66.304688 477.101562 66.304688 477.101562 72.769531 "/>
<path fill-rule="nonzero" fill="rgb(70.196078%, 70.196078%, 70.196078%)" fill-opacity="1" stroke-width="1" stroke-linecap="butt" stroke-linejoin="miter" stroke="rgb(70.196078%, 70.196078%, 70.196078%)" stroke-opacity="1" stroke-miterlimit="10" d="M 508.839844 61.980469 C 508.839844 68.449219 499.140625 68.449219 499.140625 61.980469 C 499.140625 55.515625 508.839844 55.515625 508.839844 61.980469 "/>
<path fill-rule="nonzero" fill="rgb(70.196078%, 70.196078%, 70.196078%)" fill-opacity="1" stroke-width="1" stroke-linecap="butt" stroke-linejoin="miter" stroke="rgb(70.196078%, 70.196078%, 70.196078%)" stroke-opacity="1" stroke-miterlimit="10" d="M 450.890625 86.640625 C 450.890625 93.105469 441.1875 93.105469 441.1875 86.640625 C 441.1875 80.171875 450.890625 80.171875 450.890625 86.640625 "/>
<path fill-rule="nonzero" fill="rgb(70.196078%, 70.196078%, 70.196078%)" fill-opacity="1" stroke-width="1" stroke-linecap="butt" stroke-linejoin="miter" stroke="rgb(70.196078%, 70.196078%, 70.196078%)" stroke-opacity="1" stroke-miterlimit="10" d="M 599.476562 51.921875 C 599.476562 58.386719 589.777344 58.386719 589.777344 51.921875 C 589.777344 45.453125 599.476562 45.453125 599.476562 51.921875 "/>
<path fill-rule="nonzero" fill="rgb(70.196078%, 70.196078%, 70.196078%)" fill-opacity="1" stroke-width="1" stroke-linecap="butt" stroke-linejoin="miter" stroke="rgb(70.196078%, 70.196078%, 70.196078%)" stroke-opacity="1" stroke-miterlimit="10" d="M 564.242188 659.332031 C 564.242188 665.800781 554.542969 665.800781 554.542969 659.332031 C 554.542969 652.867188 564.242188 652.867188 564.242188 659.332031 "/>
<path fill-rule="nonzero" fill="rgb(70.196078%, 70.196078%, 70.196078%)" fill-opacity="1" stroke-width="1" stroke-linecap="butt" stroke-linejoin="miter" stroke="rgb(70.196078%, 70.196078%, 70.196078%)" stroke-opacity="1" stroke-miterlimit="10" d="M 600.675781 632.019531 C 600.675781 638.488281 590.976562 638.488281 590.976562 632.019531 C 590.976562 625.554688 600.675781 625.554688 600.675781 632.019531 "/>
<path fill-rule="nonzero" fill="rgb(70.196078%, 70.196078%, 70.196078%)" fill-opacity="1" stroke-width="1" stroke-linecap="butt" stroke-linejoin="miter" stroke="rgb(70.196078%, 70.196078%, 70.196078%)" stroke-opacity="1" stroke-miterlimit="10" d="M 633.34375 598.515625 C 633.34375 604.980469 623.644531 604.980469 623.644531 598.515625 C 623.644531 592.046875 633.34375 592.046875 633.34375 598.515625 "/>
<path fill-rule="nonzero" fill="rgb(70.196078%, 70.196078%, 70.196078%)" fill-opacity="1" stroke-width="1" stroke-linecap="butt" stroke-linejoin="miter" stroke="rgb(70.196078%, 70.196078%, 70.196078%)" stroke-opacity="1" stroke-miterlimit="10" d="M 380.148438 131.707031 C 380.148438 138.175781 370.449219 138.175781 370.449219 131.707031 C 370.449219 125.242188 380.148438 125.242188 380.148438 131.707031 "/>
<path fill-rule="nonzero" fill="rgb(70.196078%, 70.196078%, 70.196078%)" fill-opacity="1" stroke-width="1" stroke-linecap="butt" stroke-linejoin="miter" stroke="rgb(70.196078%, 70.196078%, 70.196078%)" stroke-opacity="1" stroke-miterlimit="10" d="M 660.75 562.890625 C 660.75 569.359375 651.046875 569.359375 651.046875 562.890625 C 651.046875 556.425781 660.75 556.425781 660.75 562.890625 "/>
<path fill-rule="nonzero" fill="rgb(70.196078%, 70.196078%, 70.196078%)" fill-opacity="1" stroke-width="1" stroke-linecap="butt" stroke-linejoin="miter" stroke="rgb(70.196078%, 70.196078%, 70.196078%)" stroke-opacity="1" stroke-miterlimit="10" d="M 688.355469 527.820312 C 688.355469 534.289062 678.652344 534.289062 678.652344 527.820312 C 678.652344 521.355469 688.355469 521.355469 688.355469 527.820312 "/>
<path fill-rule="nonzero" fill="rgb(70.196078%, 70.196078%, 70.196078%)" fill-opacity="1" stroke-width="1" stroke-linecap="butt" stroke-linejoin="miter" stroke="rgb(70.196078%, 70.196078%, 70.196078%)" stroke-opacity="1" stroke-miterlimit="10" d="M 709.644531 483.121094 C 709.644531 489.585938 699.945312 489.585938 699.945312 483.121094 C 699.945312 476.65625 709.644531 476.65625 709.644531 483.121094 "/>
<path fill-rule="nonzero" fill="rgb(70.196078%, 70.196078%, 70.196078%)" fill-opacity="1" stroke-width="1" stroke-linecap="butt" stroke-linejoin="miter" stroke="rgb(70.196078%, 70.196078%, 70.196078%)" stroke-opacity="1" stroke-miterlimit="10" d="M 741.707031 389.65625 C 741.707031 396.125 732.007812 396.125 732.007812 389.65625 C 732.007812 383.191406 741.707031 383.191406 741.707031 389.65625 "/>
<path fill-rule="nonzero" fill="rgb(70.196078%, 70.196078%, 70.196078%)" fill-opacity="1" stroke-width="1" stroke-linecap="butt" stroke-linejoin="miter" stroke="rgb(70.196078%, 70.196078%, 70.196078%)" stroke-opacity="1" stroke-miterlimit="10" d="M 730.917969 438.691406 C 730.917969 445.160156 721.21875 445.160156 721.21875 438.691406 C 721.21875 432.226562 730.917969 432.226562 730.917969 438.691406 "/>
<path fill-rule="nonzero" fill="rgb(70.196078%, 70.196078%, 70.196078%)" fill-opacity="1" stroke-width="1" stroke-linecap="butt" stroke-linejoin="miter" stroke="rgb(70.196078%, 70.196078%, 70.196078%)" stroke-opacity="1" stroke-miterlimit="10" d="M 366.203125 140.089844 C 366.203125 146.554688 356.503906 146.554688 356.503906 140.089844 C 356.503906 133.621094 366.203125 133.621094 366.203125 140.089844 "/>
<path fill-rule="nonzero" fill="rgb(70.196078%, 70.196078%, 70.196078%)" fill-opacity="1" stroke-width="1" stroke-linecap="butt" stroke-linejoin="miter" stroke="rgb(70.196078%, 70.196078%, 70.196078%)" stroke-opacity="1" stroke-miterlimit="10" d="M 568.414062 50 C 568.414062 56.464844 558.714844 56.464844 558.714844 50 C 558.714844 43.535156 568.414062 43.535156 568.414062 50 "/>
<path fill-rule="nonzero" fill="rgb(70.196078%, 70.196078%, 70.196078%)" fill-opacity="1" stroke-width="1" stroke-linecap="butt" stroke-linejoin="miter" stroke="rgb(70.196078%, 70.196078%, 70.196078%)" stroke-opacity="1" stroke-miterlimit="10" d="M 754.757812 201.367188 C 754.757812 207.835938 745.058594 207.835938 745.058594 201.367188 C 745.058594 194.902344 754.757812 194.902344 754.757812 201.367188 "/>
<path fill-rule="nonzero" fill="rgb(70.196078%, 70.196078%, 70.196078%)" fill-opacity="1" stroke-width="1" stroke-linecap="butt" stroke-linejoin="miter" stroke="rgb(70.196078%, 70.196078%, 70.196078%)" stroke-opacity="1" stroke-miterlimit="10" d="M 750.800781 344.660156 C 750.800781 351.128906 741.101562 351.128906 741.101562 344.660156 C 741.101562 338.195312 750.800781 338.195312 750.800781 344.660156 "/>
<path fill-rule="nonzero" fill="rgb(70.196078%, 70.196078%, 70.196078%)" fill-opacity="1" stroke-width="1" stroke-linecap="butt" stroke-linejoin="miter" stroke="rgb(70.196078%, 70.196078%, 70.196078%)" stroke-opacity="1" stroke-miterlimit="10" d="M 753.148438 295.613281 C 753.148438 302.082031 743.449219 302.082031 743.449219 295.613281 C 743.449219 289.148438 753.148438 289.148438 753.148438 295.613281 "/>
<path fill-rule="nonzero" fill="rgb(70.196078%, 70.196078%, 70.196078%)" fill-opacity="1" stroke-width="1" stroke-linecap="butt" stroke-linejoin="miter" stroke="rgb(70.196078%, 70.196078%, 70.196078%)" stroke-opacity="1" stroke-miterlimit="10" d="M 754.851562 248.59375 C 754.851562 255.0625 745.148438 255.0625 745.148438 248.59375 C 745.148438 242.128906 754.851562 242.128906 754.851562 248.59375 "/>
<path fill-rule="nonzero" fill="rgb(70.196078%, 70.196078%, 70.196078%)" fill-opacity="1" stroke-width="1" stroke-linecap="butt" stroke-linejoin="miter" stroke="rgb(70.196078%, 70.196078%, 70.196078%)" stroke-opacity="1" stroke-miterlimit="10" d="M 539.105469 52.449219 C 539.105469 58.917969 529.40625 58.917969 529.40625 52.449219 C 529.40625 45.984375 539.105469 45.984375 539.105469 52.449219 "/>
<path fill-rule="nonzero" fill="rgb(70.196078%, 70.196078%, 70.196078%)" fill-opacity="1" stroke-width="1" stroke-linecap="butt" stroke-linejoin="miter" stroke="rgb(70.196078%, 70.196078%, 70.196078%)" stroke-opacity="1" stroke-miterlimit="10" d="M 403.871094 120.378906 C 403.871094 126.847656 394.171875 126.847656 394.171875 120.378906 C 394.171875 113.914062 403.871094 113.914062 403.871094 120.378906 "/>
<path fill-rule="nonzero" fill="rgb(70.196078%, 70.196078%, 70.196078%)" fill-opacity="1" stroke-width="1" stroke-linecap="butt" stroke-linejoin="miter" stroke="rgb(70.196078%, 70.196078%, 70.196078%)" stroke-opacity="1" stroke-miterlimit="10" d="M 425.253906 103.761719 C 425.253906 110.230469 415.550781 110.230469 415.550781 103.761719 C 415.550781 97.296875 425.253906 97.296875 425.253906 103.761719 "/>
<path fill-rule="nonzero" fill="rgb(100%, 84.313725%, 0%)" fill-opacity="1" stroke-width="1" stroke-linecap="butt" stroke-linejoin="miter" stroke="rgb(100%, 84.313725%, 0%)" stroke-opacity="1" stroke-miterlimit="10" d="M 328.136719 154.691406 L 338.835938 154.691406 L 338.835938 165.390625 L 328.136719 165.390625 Z M 328.136719 154.691406 "/>
<path fill-rule="nonzero" fill="rgb(70.196078%, 70.196078%, 70.196078%)" fill-opacity="1" stroke-width="1" stroke-linecap="butt" stroke-linejoin="miter" stroke="rgb(70.196078%, 70.196078%, 70.196078%)" stroke-opacity="1" stroke-miterlimit="10" d="M 344.359375 157.136719 C 344.359375 163.605469 334.660156 163.605469 334.660156 157.136719 C 334.660156 150.671875 344.359375 150.671875 344.359375 157.136719 "/>
<path fill-rule="nonzero" fill="rgb(70.196078%, 70.196078%, 70.196078%)" fill-opacity="1" stroke-width="1" stroke-linecap="butt" stroke-linejoin="miter" stroke="rgb(70.196078%, 70.196078%, 70.196078%)" stroke-opacity="1" stroke-miterlimit="10" d="M 352.21875 148.367188 C 352.21875 154.835938 342.519531 154.835938 342.519531 148.367188 C 342.519531 141.902344 352.21875 141.902344 352.21875 148.367188 "/>
</svg>
