<?xml version="1.0" encoding="UTF-8"?>
<svg xmlns="http://www.w3.org/2000/svg" xmlns:xlink="http://www.w3.org/1999/xlink" width="800" height="800" viewBox="0 0 800 800">
<rect x="-80" y="-80" width="960" height="960" fill="rgb(100%, 100%, 100%)" fill-opacity="1"/>
<path fill="none" stroke-width="3.5" stroke-linecap="butt" stroke-linejoin="miter" stroke="rgb(70.196078%, 70.196078%, 70.196078%)" stroke-opacity="1" stroke-miterlimit="10" d="M 63.796875 658.140625 C 64.664062 657.414062 64.953125 655.390625 65.152344 655.359375 "/>
<path fill-rule="nonzero" fill="rgb(70.196078%, 70.196078%, 70.196078%)" fill-opacity="1" d="M 58.101562 656.425781 L 64.808594 653.066406 L 65.5 657.648438 L 58.101562 656.425781 "/>
<path fill="none" stroke-width="2.5" stroke-linecap="butt" stroke-linejoin="miter" stroke="rgb(70.196078%, 70.196078%, 70.196078%)" stroke-opacity="1" stroke-miterlimit="10" d="M 63.796875 658.140625 C 62.628906 659.824219 63.3125 662 62.773438 663.660156 "/>
<path fill-rule="nonzero" fill="rgb(70.196078%, 70.196078%, 70.196078%)" fill-opacity="1" d="M 64.976562 656.875 L 64.980469 664.375 L 60.570312 662.941406 L 64.976562 656.875 "/>
<path fill="none" stroke-width="1.5" stroke-linecap="butt" stroke-linejoin="miter" stroke="rgb(12.156863%, 47.058824%, 70.588235%)" stroke-opacity="1" stroke-miterlimit="10" d="M 63.796875 658.140625 C 64.421875 656.421875 64.753906 653.738281 63.429688 653.152344 "/>
<path fill-rule="nonzero" fill="rgb(12.156863%, 47.058824%, 70.588235%)" fill-opacity="1" d="M 56.910156 650.265625 L 64.371094 651.035156 L 62.492188 655.273438 L 56.910156 650.265625 "/>
<path fill="none" stroke-width="2.5" stroke-linecap="butt" stroke-linejoin="miter" stroke="rgb(70.196078%, 70.196078%, 70.196078%)" stroke-opacity="1" stroke-miterlimit="10" d="M 63.796875 658.140625 C 66.890625 657.816406 68.738281 655.488281 71.15625 653.859375 "/>
<path fill-rule="nonzero" fill="rgb(70.196078%, 70.196078%, 70.196078%)" fill-opacity="1" d="M 65.242188 657.839844 L 69.863281 651.933594 L 72.453125 655.78125 L 65.242188 657.839844 "/>
<path fill="none" stroke-width="2.5" stroke-linecap="butt" stroke-linejoin="miter" stroke="rgb(70.196078%, 70.196078%, 70.196078%)" stroke-opacity="1" stroke-miterlimit="10" d="M 63.796875 658.140625 C 62.839844 656.765625 60.863281 655.066406 59.871094 655.789062 "/>
<path fill-rule="nonzero" fill="rgb(70.196078%, 70.196078%, 70.196078%)" fill-opacity="1" d="M 54.097656 659.980469 L 58.507812 653.914062 L 61.230469 657.664062 L 54.097656 659.980469 "/>
<path fill="none" stroke-width="1.5" stroke-linecap="butt" stroke-linejoin="miter" stroke="rgb(12.156863%, 47.058824%, 70.588235%)" stroke-opacity="1" stroke-miterlimit="10" d="M 63.796875 658.140625 C 63.679688 655.902344 62.914062 652.980469 60.996094 652.691406 "/>
<path fill-rule="nonzero" fill="rgb(12.156863%, 47.058824%, 70.588235%)" fill-opacity="1" d="M 53.941406 651.628906 L 61.339844 650.398438 L 60.648438 654.984375 L 53.941406 651.628906 "/>
<path fill="none" stroke-width="3.5" stroke-linecap="butt" stroke-linejoin="miter" stroke="rgb(70.196078%, 70.196078%, 70.196078%)" stroke-opacity="1" stroke-miterlimit="10" d="M 53.164062 657.171875 C 51.257812 656.613281 49.453125 657.941406 47.789062 657.917969 "/>
<path fill-rule="nonzero" fill="rgb(70.196078%, 70.196078%, 70.196078%)" fill-opacity="1" d="M 54.921875 658.015625 L 47.757812 660.234375 L 47.820312 655.597656 L 54.921875 658.015625 "/>
<path fill="none" stroke-width="5.5" stroke-linecap="butt" stroke-linejoin="miter" stroke="rgb(70.196078%, 70.196078%, 70.196078%)" stroke-opacity="1" stroke-miterlimit="10" d="M 111.398438 677.226562 C 103.675781 666.234375 93.167969 658.746094 79.792969 658.46875 "/>
<path fill-rule="nonzero" fill="rgb(70.196078%, 70.196078%, 70.196078%)" fill-opacity="1" d="M 72.660156 658.320312 L 79.839844 656.152344 L 79.746094 660.785156 L 72.660156 658.320312 "/>
<path fill="none" stroke-width="5.5" stroke-linecap="butt" stroke-linejoin="miter" stroke="rgb(70.196078%, 70.196078%, 70.196078%)" stroke-opacity="1" stroke-miterlimit="10" d="M 158.753906 697.125 C 149.953125 685.230469 138.195312 677.457031 123.445312 677.328125 "/>
<path fill-rule="nonzero" fill="rgb(70.196078%, 70.196078%, 70.196078%)" fill-opacity="1" d="M 116.3125 677.269531 L 123.464844 675.011719 L 123.425781 679.648438 L 116.3125 677.269531 "/>
<path fill="none" stroke-width="2.5" stroke-linecap="butt" stroke-linejoin="miter" stroke="rgb(70.196078%, 70.196078%, 70.196078%)" stroke-opacity="1" stroke-miterlimit="10" d="M 66.484375 652.230469 C 69.695312 650.679688 70.863281 647.574219 72.746094 644.753906 "/>
<path fill-rule="nonzero" fill="rgb(70.196078%, 70.196078%, 70.196078%)" fill-opacity="1" d="M 68.78125 650.683594 L 70.820312 643.46875 L 74.671875 646.042969 L 68.78125 650.683594 "/>
<path fill="none" stroke-width="5.5" stroke-linecap="butt" stroke-linejoin="miter" stroke="rgb(70.196078%, 70.196078%, 70.196078%)" stroke-opacity="1" stroke-miterlimit="10" d="M 211.035156 711.882812 C 200.019531 700.453125 186.445312 693.898438 170.722656 695.730469 "/>
<path fill-rule="nonzero" fill="rgb(70.196078%, 70.196078%, 70.196078%)" fill-opacity="1" d="M 163.636719 696.554688 L 170.453125 693.429688 L 170.992188 698.03125 L 163.636719 696.554688 "/>
<path fill="none" stroke-width="5.5" stroke-linecap="butt" stroke-linejoin="miter" stroke="rgb(70.196078%, 70.196078%, 70.196078%)" stroke-opacity="1" stroke-miterlimit="10" d="M 263.742188 728.4375 C 252.8125 716.464844 239.144531 709.421875 223.039062 710.832031 "/>
<path fill-rule="nonzero" fill="rgb(70.196078%, 70.196078%, 70.196078%)" fill-opacity="1" d="M 215.933594 711.453125 L 222.835938 708.523438 L 223.242188 713.140625 L 215.933594 711.453125 "/>
<path fill="none" stroke-width="1.5" stroke-linecap="butt" stroke-linejoin="miter" stroke="rgb(12.156863%, 47.058824%, 70.588235%)" stroke-opacity="1" stroke-miterlimit="10" d="M 54.402344 649.15625 C 53.230469 648.484375 51.363281 649.253906 50.71875 648.792969 "/>
<path fill-rule="nonzero" fill="rgb(12.156863%, 47.058824%, 70.588235%)" fill-opacity="1" d="M 56.519531 652.941406 L 49.371094 650.679688 L 52.066406 646.90625 L 56.519531 652.941406 "/>
<path fill="none" stroke-width="5.5" stroke-linecap="butt" stroke-linejoin="miter" stroke="rgb(70.196078%, 70.196078%, 70.196078%)" stroke-opacity="1" stroke-miterlimit="10" d="M 316.414062 743.417969 C 305.300781 731.863281 291.601562 725.242188 275.714844 727.0625 "/>
<path fill-rule="nonzero" fill="rgb(70.196078%, 70.196078%, 70.196078%)" fill-opacity="1" d="M 268.628906 727.875 L 275.449219 724.761719 L 275.976562 729.363281 L 268.628906 727.875 "/>
<path fill="none" stroke-width="5.5" stroke-linecap="butt" stroke-linejoin="miter" stroke="rgb(70.196078%, 70.196078%, 70.196078%)" stroke-opacity="1" stroke-miterlimit="10" d="M 372.097656 748.574219 C 358.683594 739.046875 343.613281 735.015625 327.929688 739.863281 "/>
<path fill-rule="nonzero" fill="rgb(70.196078%, 70.196078%, 70.196078%)" fill-opacity="1" d="M 321.113281 741.96875 L 327.246094 737.648438 L 328.613281 742.074219 L 321.113281 741.96875 "/>
<path fill="none" stroke-width="2.5" stroke-linecap="butt" stroke-linejoin="miter" stroke="rgb(70.196078%, 70.196078%, 70.196078%)" stroke-opacity="1" stroke-miterlimit="10" d="M 61.167969 660.582031 C 58.699219 661.417969 57.6875 663.824219 55.945312 665.441406 "/>
<path fill-rule="nonzero" fill="rgb(70.196078%, 70.196078%, 70.196078%)" fill-opacity="1" d="M 61.167969 660.582031 L 57.523438 667.140625 L 54.367188 663.746094 L 61.167969 660.582031 "/>
<path fill="none" stroke-width="5.5" stroke-linecap="butt" stroke-linejoin="miter" stroke="rgb(70.196078%, 70.196078%, 70.196078%)" stroke-opacity="1" stroke-miterlimit="10" d="M 423.347656 750 C 410.875 742.109375 397.132812 739.113281 383.367188 744.316406 "/>
<path fill-rule="nonzero" fill="rgb(70.196078%, 70.196078%, 70.196078%)" fill-opacity="1" d="M 376.695312 746.835938 L 382.550781 742.148438 L 384.1875 746.484375 L 376.695312 746.835938 "/>
<path fill="none" stroke-width="5.5" stroke-linecap="butt" stroke-linejoin="miter" stroke="rgb(70.196078%, 70.196078%, 70.196078%)" stroke-opacity="1" stroke-miterlimit="10" d="M 476.792969 749.691406 C 463.332031 741.894531 448.769531 739.359375 434.460938 745.347656 "/>
<path fill-rule="nonzero" fill="rgb(70.196078%, 70.196078%, 70.196078%)" fill-opacity="1" d="M 427.882812 748.101562 L 433.566406 743.210938 L 435.359375 747.484375 L 427.882812 748.101562 "/>
<path fill="none" stroke-width="5.5" stroke-linecap="butt" stroke-linejoin="miter" stroke="rgb(70.196078%, 70.196078%, 70.196078%)" stroke-opacity="1" stroke-miterlimit="10" d="M 526.191406 733.363281 C 511.5 730.15625 497.316406 732.089844 485.9375 741.847656 "/>
<path fill-rule="nonzero" fill="rgb(70.196078%, 70.196078%, 70.196078%)" fill-opacity="1" d="M 480.523438 746.492188 L 484.429688 740.089844 L 487.445312 743.605469 L 480.523438 746.492188 "/>
<path fill="none" stroke-width="5.5" stroke-linecap="butt" stroke-linejoin="miter" stroke="rgb(70.196078%, 70.196078%, 70.196078%)" stroke-opacity="1" stroke-miterlimit="10" d="M 574.382812 716.179688 C 559.9375 713.34375 546.074219 715.511719 535.15625 725.316406 "/>
<path fill-rule="nonzero" fill="rgb(70.196078%, 70.196078%, 70.196078%)" fill-opacity="1" d="M 529.847656 730.082031 L 533.605469 723.59375 L 536.703125 727.042969 L 529.847656 730.082031 "/>
<path fill="none" stroke-width="5.5" stroke-linecap="butt" stroke-linejoin="miter" stroke="rgb(70.196078%, 70.196078%, 70.196078%)" stroke-opacity="1" stroke-miterlimit="10" d="M 614.875 685.464844 C 600.367188 687.089844 587.898438 693.273438 580.503906 705.804688 "/>
<path fill-rule="nonzero" fill="rgb(70.196078%, 70.196078%, 70.196078%)" fill-opacity="1" d="M 576.882812 711.949219 L 578.507812 704.628906 L 582.5 706.984375 L 576.882812 711.949219 "/>
<path fill="none" stroke-width="5.5" stroke-linecap="butt" stroke-linejoin="miter" stroke="rgb(70.196078%, 70.196078%, 70.196078%)" stroke-opacity="1" stroke-miterlimit="10" d="M 650.007812 648.0625 C 635.808594 652.152344 624.433594 660.449219 619.175781 674.210938 "/>
<path fill-rule="nonzero" fill="rgb(70.196078%, 70.196078%, 70.196078%)" fill-opacity="1" d="M 616.628906 680.875 L 617.011719 673.382812 L 621.339844 675.039062 L 616.628906 680.875 "/>
<path fill="none" stroke-width="2.5" stroke-linecap="butt" stroke-linejoin="miter" stroke="rgb(70.196078%, 70.196078%, 70.196078%)" stroke-opacity="1" stroke-miterlimit="10" d="M 50 662.957031 C 49.453125 663.945312 49.910156 665.9375 49.738281 666.03125 "/>
<path fill-rule="nonzero" fill="rgb(70.196078%, 70.196078%, 70.196078%)" fill-opacity="1" d="M 55.957031 662.539062 L 50.875 668.054688 L 48.605469 664.011719 L 55.957031 662.539062 "/>
<path fill="none" stroke-width="1.5" stroke-linecap="butt" stroke-linejoin="miter" stroke="rgb(12.156863%, 47.058824%, 70.588235%)" stroke-opacity="1" stroke-miterlimit="10" d="M 51.222656 651.21875 C 50.089844 651.375 48.839844 652.976562 48.5625 652.882812 "/>
<path fill-rule="nonzero" fill="rgb(12.156863%, 47.058824%, 70.588235%)" fill-opacity="1" d="M 55.304688 655.207031 L 47.808594 655.070312 L 49.320312 650.691406 L 55.304688 655.207031 "/>
<path fill="none" stroke-width="5.5" stroke-linecap="butt" stroke-linejoin="miter" stroke="rgb(70.196078%, 70.196078%, 70.196078%)" stroke-opacity="1" stroke-miterlimit="10" d="M 684.992188 607.484375 C 670.226562 612.523438 658.714844 621.863281 653.808594 636.625 "/>
<path fill-rule="nonzero" fill="rgb(70.196078%, 70.196078%, 70.196078%)" fill-opacity="1" d="M 651.558594 643.394531 L 651.609375 635.894531 L 656.007812 637.355469 L 651.558594 643.394531 "/>
<path fill="none" stroke-width="5.5" stroke-linecap="butt" stroke-linejoin="miter" stroke="rgb(70.196078%, 70.196078%, 70.196078%)" stroke-opacity="1" stroke-miterlimit="10" d="M 713.242188 560.445312 C 699.152344 568.183594 689.171875 579.714844 686.785156 595.566406 "/>
<path fill-rule="nonzero" fill="rgb(70.196078%, 70.196078%, 70.196078%)" fill-opacity="1" d="M 685.722656 602.621094 L 684.492188 595.222656 L 689.078125 595.914062 L 685.722656 602.621094 "/>
<path fill="none" stroke-width="5.5" stroke-linecap="butt" stroke-linejoin="miter" stroke="rgb(70.196078%, 70.196078%, 70.196078%)" stroke-opacity="1" stroke-miterlimit="10" d="M 750 463.980469 C 739.582031 475.773438 734.175781 489.707031 737.246094 505.09375 "/>
<path fill-rule="nonzero" fill="rgb(70.196078%, 70.196078%, 70.196078%)" fill-opacity="1" d="M 738.644531 512.085938 L 734.972656 505.546875 L 739.519531 504.636719 L 738.644531 512.085938 "/>
<path fill="none" stroke-width="5.5" stroke-linecap="butt" stroke-linejoin="miter" stroke="rgb(70.196078%, 70.196078%, 70.196078%)" stroke-opacity="1" stroke-miterlimit="10" d="M 741.898438 412.140625 C 736.289062 426.265625 735.898438 440.71875 743.753906 453.675781 "/>
<path fill-rule="nonzero" fill="rgb(70.196078%, 70.196078%, 70.196078%)" fill-opacity="1" d="M 747.453125 459.777344 L 741.773438 454.878906 L 745.734375 452.476562 L 747.453125 459.777344 "/>
<path fill="none" stroke-width="5.5" stroke-linecap="butt" stroke-linejoin="miter" stroke="rgb(70.196078%, 70.196078%, 70.196078%)" stroke-opacity="1" stroke-miterlimit="10" d="M 739.605469 516.910156 C 726.695312 523.78125 717.367188 534.144531 715.105469 548.542969 "/>
<path fill-rule="nonzero" fill="rgb(70.196078%, 70.196078%, 70.196078%)" fill-opacity="1" d="M 714.003906 555.589844 L 712.816406 548.183594 L 717.398438 548.902344 L 714.003906 555.589844 "/>
<path fill="none" stroke-width="5.5" stroke-linecap="butt" stroke-linejoin="miter" stroke="rgb(70.196078%, 70.196078%, 70.196078%)" stroke-opacity="1" stroke-miterlimit="10" d="M 729.925781 359.484375 C 725.179688 374.507812 725.894531 389.457031 734.953125 402.296875 "/>
<path fill-rule="nonzero" fill="rgb(70.196078%, 70.196078%, 70.196078%)" fill-opacity="1" d="M 739.066406 408.125 L 733.058594 403.632812 L 736.847656 400.960938 L 739.066406 408.125 "/>
<path fill="none" stroke-width="5.5" stroke-linecap="butt" stroke-linejoin="miter" stroke="rgb(70.196078%, 70.196078%, 70.196078%)" stroke-opacity="1" stroke-miterlimit="10" d="M 719.480469 311.558594 C 714.988281 324.769531 715.226562 338.101562 723.101562 349.558594 "/>
<path fill-rule="nonzero" fill="rgb(70.196078%, 70.196078%, 70.196078%)" fill-opacity="1" d="M 727.144531 355.433594 L 721.191406 350.871094 L 725.011719 348.246094 L 727.144531 355.433594 "/>
<path fill="none" stroke-width="5.5" stroke-linecap="butt" stroke-linejoin="miter" stroke="rgb(70.196078%, 70.196078%, 70.196078%)" stroke-opacity="1" stroke-miterlimit="10" d="M 701.460938 265.300781 C 699.074219 279.265625 701.464844 292.585938 711.1875 302.824219 "/>
<path fill-rule="nonzero" fill="rgb(70.196078%, 70.196078%, 70.196078%)" fill-opacity="1" d="M 716.097656 307.996094 L 709.507812 304.421875 L 712.867188 301.226562 L 716.097656 307.996094 "/>
<path fill="none" stroke-width="5.5" stroke-linecap="butt" stroke-linejoin="miter" stroke="rgb(70.196078%, 70.196078%, 70.196078%)" stroke-opacity="1" stroke-miterlimit="10" d="M 679.566406 225.777344 C 678.953125 238.308594 682.394531 249.871094 692.105469 257.726562 "/>
<path fill-rule="nonzero" fill="rgb(70.196078%, 70.196078%, 70.196078%)" fill-opacity="1" d="M 697.648438 262.214844 L 690.648438 259.527344 L 693.5625 255.925781 L 697.648438 262.214844 "/>
<path fill="none" stroke-width="5.5" stroke-linecap="butt" stroke-linejoin="miter" stroke="rgb(70.196078%, 70.196078%, 70.196078%)" stroke-opacity="1" stroke-miterlimit="10" d="M 633.332031 159.773438 C 634.011719 169.96875 637.789062 179.195312 646.472656 184.445312 "/>
<path fill-rule="nonzero" fill="rgb(70.196078%, 70.196078%, 70.196078%)" fill-opacity="1" d="M 652.578125 188.136719 L 645.273438 186.429688 L 647.671875 182.464844 L 652.578125 188.136719 "/>
<path fill="none" stroke-width="5.5" stroke-linecap="butt" stroke-linejoin="miter" stroke="rgb(70.196078%, 70.196078%, 70.196078%)" stroke-opacity="1" stroke-miterlimit="10" d="M 656.765625 190.667969 C 656.859375 202.007812 660.503906 212.359375 669.730469 218.851562 "/>
<path fill-rule="nonzero" fill="rgb(70.196078%, 70.196078%, 70.196078%)" fill-opacity="1" d="M 675.5625 222.957031 L 668.394531 220.746094 L 671.0625 216.957031 L 675.5625 222.957031 "/>
<path fill="none" stroke-width="5.5" stroke-linecap="butt" stroke-linejoin="miter" stroke="rgb(70.196078%, 70.196078%, 70.196078%)" stroke-opacity="1" stroke-miterlimit="10" d="M 572.230469 84.582031 C 573.117188 91.605469 575.996094 98.167969 582.328125 101.101562 "/>
<path fill-rule="nonzero" fill="rgb(70.196078%, 70.196078%, 70.196078%)" fill-opacity="1" d="M 588.796875 104.105469 L 581.351562 103.207031 L 583.300781 99 L 588.796875 104.105469 "/>
<path fill="none" stroke-width="5.5" stroke-linecap="butt" stroke-linejoin="miter" stroke="rgb(70.196078%, 70.196078%, 70.196078%)" stroke-opacity="1" stroke-miterlimit="10" d="M 558.628906 69.820312 C 558.285156 73.320312 558.761719 77.375 561.695312 78.945312 "/>
<path fill-rule="nonzero" fill="rgb(70.196078%, 70.196078%, 70.196078%)" fill-opacity="1" d="M 567.984375 82.3125 L 560.601562 80.988281 L 562.789062 76.902344 L 567.984375 82.3125 "/>
<path fill="none" stroke-width="5.5" stroke-linecap="butt" stroke-linejoin="miter" stroke="rgb(70.196078%, 70.196078%, 70.196078%)" stroke-opacity="1" stroke-miterlimit="10" d="M 611.980469 132.375 C 612.464844 141.117188 615.542969 149.207031 623 153.636719 "/>
<path fill-rule="nonzero" fill="rgb(70.196078%, 70.196078%, 70.196078%)" fill-opacity="1" d="M 629.132812 157.28125 L 621.816406 155.632812 L 624.183594 151.644531 L 629.132812 157.28125 "/>
<path fill="none" stroke-width="5.5" stroke-linecap="butt" stroke-linejoin="miter" stroke="rgb(70.196078%, 70.196078%, 70.196078%)" stroke-opacity="1" stroke-miterlimit="10" d="M 593.214844 106.152344 C 593.179688 114.003906 595.449219 121.523438 601.941406 125.785156 "/>
<path fill-rule="nonzero" fill="rgb(70.196078%, 70.196078%, 70.196078%)" fill-opacity="1" d="M 607.90625 129.699219 L 600.667969 127.726562 L 603.214844 123.847656 L 607.90625 129.699219 "/>
<path fill="none" stroke-width="5.5" stroke-linecap="butt" stroke-linejoin="miter" stroke="rgb(70.196078%, 70.196078%, 70.196078%)" stroke-opacity="1" stroke-miterlimit="10" d="M 548.609375 58.429688 C 547.738281 60.035156 547.019531 62.664062 548.238281 63.417969 "/>
<path fill-rule="nonzero" fill="rgb(70.196078%, 70.196078%, 70.196078%)" fill-opacity="1" d="M 554.3125 67.160156 L 547.023438 65.390625 L 549.453125 61.445312 L 554.3125 67.160156 "/>
<path fill="none" stroke-width="5.5" stroke-linecap="butt" stroke-linejoin="miter" stroke="rgb(70.196078%, 70.196078%, 70.196078%)" stroke-opacity="1" stroke-miterlimit="10" d="M 544.363281 50 C 543.378906 49.171875 541.398438 49.546875 540.984375 49.039062 "/>
<path fill-rule="nonzero" fill="rgb(70.196078%, 70.196078%, 70.196078%)" fill-opacity="1" d="M 545.480469 54.574219 L 539.183594 50.5 L 542.78125 47.578125 L 545.480469 54.574219 "/>
<path fill-rule="nonzero" fill="rgb(14.901961%, 14.901961%, 14.901961%)" fill-opacity="1" stroke-width="1" stroke-linecap="butt" stroke-linejoin="miter" stroke="rgb(14.901961%, 14.901961%, 14.901961%)" stroke-opacity="1" stroke-miterlimit="10" d="M 54.945312 666.988281 L 63.796875 649.289062 L 72.644531 666.988281 Z M 54.945312 666.988281 "/>
<path fill-rule="nonzero" fill="rgb(70.196078%, 70.196078%, 70.196078%)" fill-opacity="1" stroke-width="1" stroke-linecap="butt" stroke-linejoin="miter" stroke="rgb(70.196078%, 70.196078%, 70.196078%)" stroke-opacity="1" stroke-miterlimit="10" d="M 58.011719 657.171875 C 58.011719 663.636719 48.3125 663.636719 48.3125 657.171875 C 48.3125 650.703125 58.011719 650.703125 58.011719 657.171875 "/>
<path fill-rule="nonzero" fill="rgb(70.196078%, 70.196078%, 70.196078%)" fill-opacity="1" stroke-width="1" stroke-linecap="butt" stroke-linejoin="miter" stroke="rgb(70.196078%, 70.196078%, 70.196078%)" stroke-opacity="1" stroke-miterlimit="10" d="M 116.25 677.226562 C 116.25 683.691406 106.550781 683.691406 106.550781 677.226562 C 106.550781 670.757812 116.25 670.757812 116.25 677.226562 "/>
<path fill-rule="nonzero" fill="rgb(70.196078%, 70.196078%, 70.196078%)" fill-opacity="1" stroke-width="1" stroke-linecap="butt" stroke-linejoin="miter" stroke="rgb(70.196078%, 70.196078%, 70.196078%)" stroke-opacity="1" stroke-miterlimit="10" d="M 163.601562 697.125 C 163.601562 703.589844 153.902344 703.589844 153.902344 697.125 C 153.902344 690.65625 163.601562 690.65625 163.601562 697.125 "/>
<path fill-rule="nonzero" fill="rgb(70.196078%, 70.196078%, 70.196078%)" fill-opacity="1" stroke-width="1" stroke-linecap="butt" stroke-linejoin="miter" stroke="rgb(70.196078%, 70.196078%, 70.196078%)" stroke-opacity="1" stroke-miterlimit="10" d="M 71.335938 652.230469 C 71.335938 658.699219 61.636719 658.699219 61.636719 652.230469 C 61.636719 645.765625 71.335938 645.765625 71.335938 652.230469 "/>
<path fill-rule="nonzero" fill="rgb(70.196078%, 70.196078%, 70.196078%)" fill-opacity="1" stroke-width="1" stroke-linecap="butt" stroke-linejoin="miter" stroke="rgb(70.196078%, 70.196078%, 70.196078%)" stroke-opacity="1" stroke-miterlimit="10" d="M 215.882812 711.882812 C 215.882812 718.351562 206.183594 718.351562 206.183594 711.882812 C 206.183594 705.417969 215.882812 705.417969 215.882812 711.882812 "/>
<path fill-rule="nonzero" fill="rgb(70.196078%, 70.196078%, 70.196078%)" fill-opacity="1" stroke-width="1" stroke-linecap="butt" stroke-linejoin="miter" stroke="rgb(70.196078%, 70.196078%, 70.196078%)" stroke-opacity="1" stroke-miterlimit="10" d="M 268.589844 728.4375 C 268.589844 734.902344 258.890625 734.902344 258.890625 728.4375 C 258.890625 721.96875 268.589844 721.96875 268.589844 728.4375 "/>
<path fill-rule="nonzero" fill="rgb(12.156863%, 47.058824%, 70.588235%)" fill-opacity="1" stroke-width="1" stroke-linecap="butt" stroke-linejoin="miter" stroke="rgb(12.156863%, 47.058824%, 70.588235%)" stroke-opacity="1" stroke-miterlimit="10" d="M 57.152344 649.15625 C 57.152344 652.824219 51.652344 652.824219 51.652344 649.15625 C 51.652344 645.488281 57.152344 645.488281 57.152344 649.15625 "/>
<path fill-rule="nonzero" fill="rgb(70.196078%, 70.196078%, 70.196078%)" fill-opacity="1" stroke-width="1" stroke-linecap="butt" stroke-linejoin="miter" stroke="rgb(70.196078%, 70.196078%, 70.196078%)" stroke-opacity="1" stroke-miterlimit="10" d="M 321.265625 743.417969 C 321.265625 749.886719 311.5625 749.886719 311.5625 743.417969 C 311.5625 736.953125 321.265625 736.953125 321.265625 743.417969 "/>
<path fill-rule="nonzero" fill="rgb(70.196078%, 70.196078%, 70.196078%)" fill-opacity="1" stroke-width="1" stroke-linecap="butt" stroke-linejoin="miter" stroke="rgb(70.196078%, 70.196078%, 70.196078%)" stroke-opacity="1" stroke-miterlimit="10" d="M 376.949219 748.574219 C 376.949219 755.042969 367.25 755.042969 367.25 748.574219 C 367.25 742.109375 376.949219 742.109375 376.949219 748.574219 "/>
<path fill-rule="nonzero" fill="rgb(70.196078%, 70.196078%, 70.196078%)" fill-opacity="1" stroke-width="1" stroke-linecap="butt" stroke-linejoin="miter" stroke="rgb(70.196078%, 70.196078%, 70.196078%)" stroke-opacity="1" stroke-miterlimit="10" d="M 66.019531 660.582031 C 66.019531 667.050781 56.316406 667.050781 56.316406 660.582031 C 56.316406 654.117188 66.019531 654.117188 66.019531 660.582031 "/>
<path fill-rule="nonzero" fill="rgb(70.196078%, 70.196078%, 70.196078%)" fill-opacity="1" stroke-width="1" stroke-linecap="butt" stroke-linejoin="miter" stroke="rgb(70.196078%, 70.196078%, 70.196078%)" stroke-opacity="1" stroke-miterlimit="10" d="M 428.195312 750 C 428.195312 756.464844 418.496094 756.464844 418.496094 750 C 418.496094 743.535156 428.195312 743.535156 428.195312 750 "/>
<path fill-rule="nonzero" fill="rgb(70.196078%, 70.196078%, 70.196078%)" fill-opacity="1" stroke-width="1" stroke-linecap="butt" stroke-linejoin="miter" stroke="rgb(70.196078%, 70.196078%, 70.196078%)" stroke-opacity="1" stroke-miterlimit="10" d="M 481.640625 749.691406 C 481.640625 756.15625 471.941406 756.15625 471.941406 749.691406 C 471.941406 743.222656 481.640625 743.222656 481.640625 749.691406 "/>
<path fill-rule="nonzero" fill="rgb(70.196078%, 70.196078%, 70.196078%)" fill-opacity="1" stroke-width="1" stroke-linecap="butt" stroke-linejoin="miter" stroke="rgb(70.196078%, 70.196078%, 70.196078%)" stroke-opacity="1" stroke-miterlimit="10" d="M 531.039062 733.363281 C 531.039062 739.832031 521.339844 739.832031 521.339844 733.363281 C 521.339844 726.898438 531.039062 726.898438 531.039062 733.363281 "/>
<path fill-rule="nonzero" fill="rgb(70.196078%, 70.196078%, 70.196078%)" fill-opacity="1" stroke-width="1" stroke-linecap="butt" stroke-linejoin="miter" stroke="rgb(70.196078%, 70.196078%, 70.196078%)" stroke-opacity="1" stroke-miterlimit="10" d="M 579.234375 716.179688 C 579.234375 722.648438 569.535156 722.648438 569.535156 716.179688 C 569.535156 709.714844 579.234375 709.714844 579.234375 716.179688 "/>
<path fill-rule="nonzero" fill="rgb(70.196078%, 70.196078%, 70.196078%)" fill-opacity="1" stroke-width="1" stroke-linecap="butt" stroke-linejoin="miter" stroke="rgb(70.196078%, 70.196078%, 70.196078%)" stroke-opacity="1" stroke-miterlimit="10" d="M 619.726562 685.464844 C 619.726562 691.933594 610.027344 691.933594 610.027344 685.464844 C 610.027344 679 619.726562 679 619.726562 685.464844 "/>
<path fill-rule="nonzero" fill="rgb(70.196078%, 70.196078%, 70.196078%)" fill-opacity="1" stroke-width="1" stroke-linecap="butt" stroke-linejoin="miter" stroke="rgb(70.196078%, 70.196078%, 70.196078%)" stroke-opacity="1" stroke-miterlimit="10" d="M 654.859375 648.0625 C 654.859375 654.527344 645.160156 654.527344 645.160156 648.0625 C 645.160156 641.59375 654.859375 641.59375 654.859375 648.0625 "/>
<path fill-rule="nonzero" fill="rgb(70.196078%, 70.196078%, 70.196078%)" fill-opacity="1" stroke-width="1" stroke-linecap="butt" stroke-linejoin="miter" stroke="rgb(70.196078%, 70.196078%, 70.196078%)" stroke-opacity="1" stroke-miterlimit="10" d="M 54.851562 662.957031 C 54.851562 669.425781 45.148438 669.425781 45.148438 662.957031 C 45.148438 656.492188 54.851562 656.492188 54.851562 662.957031 "/>
<path fill-rule="nonzero" fill="rgb(12.156863%, 47.058824%, 70.588235%)" fill-opacity="1" stroke-width="1" stroke-linecap="butt" stroke-linejoin="miter" stroke="rgb(12.156863%, 47.058824%, 70.588235%)" stroke-opacity="1" stroke-miterlimit="10" d="M 53.972656 651.21875 C 53.972656 654.886719 48.472656 654.886719 48.472656 651.21875 C 48.472656 647.550781 53.972656 647.550781 53.972656 651.21875 "/>
<path fill-rule="nonzero" fill="rgb(70.196078%, 70.196078%, 70.196078%)" fill-opacity="1" stroke-width="1" stroke-linecap="butt" stroke-linejoin="miter" stroke="rgb(70.196078%, 70.196078%, 70.196078%)" stroke-opacity="1" stroke-miterlimit="10" d="M 689.839844 607.484375 C 689.839844 613.953125 680.140625 613.953125 680.140625 607.484375 C 680.140625 601.019531 689.839844 601.019531 689.839844 607.484375 "/>
<path fill-rule="nonzero" fill="rgb(70.196078%, 70.196078%, 70.196078%)" fill-opacity="1" stroke-width="1" stroke-linecap="butt" stroke-linejoin="miter" stroke="rgb(70.196078%, 70.196078%, 70.196078%)" stroke-opacity="1" stroke-miterlimit="10" d="M 718.089844 560.445312 C 718.089844 566.914062 708.390625 566.914062 708.390625 560.445312 C 708.390625 553.980469 718.089844 553.980469 718.089844 560.445312 "/>
<path fill-rule="nonzero" fill="rgb(70.196078%, 70.196078%, 70.196078%)" fill-opacity="1" stroke-width="1" stroke-linecap="butt" stroke-linejoin="miter" stroke="rgb(70.196078%, 70.196078%, 70.196078%)" stroke-opacity="1" stroke-miterlimit="10" d="M 754.851562 463.980469 C 754.851562 470.449219 745.148438 470.449219 745.148438 463.980469 C 745.148438 457.515625 754.851562 457.515625 754.851562 463.980469 "/>
<path fill-rule="nonzero" fill="rgb(70.196078%, 70.196078%, 70.196078%)" fill-opacity="1" stroke-width="1" stroke-linecap="butt" stroke-linejoin="miter" stroke="rgb(70.196078%, 70.196078%, 70.196078%)" stroke-opacity="1" stroke-miterlimit="10" d="M 746.75 412.140625 C 746.75 418.609375 737.050781 418.609375 737.050781 412.140625 C 737.050781 405.675781 746.75 405.675781 746.75 412.140625 "/>
<path fill-rule="nonzero" fill="rgb(70.196078%, 70.196078%, 70.196078%)" fill-opacity="1" stroke-width="1" stroke-linecap="butt" stroke-linejoin="miter" stroke="rgb(70.196078%, 70.196078%, 70.196078%)" stroke-opacity="1" stroke-miterlimit="10" d="M 744.453125 516.910156 C 744.453125 523.375 734.753906 523.375 734.753906 516.910156 C 734.753906 510.441406 744.453125 510.441406 744.453125 516.910156 "/>
<path fill-rule="nonzero" fill="rgb(70.196078%, 70.196078%, 70.196078%)" fill-opacity="1" stroke-width="1" stroke-linecap="butt" stroke-linejoin="miter" stroke="rgb(70.196078%, 70.196078%, 70.196078%)" stroke-opacity="1" stroke-miterlimit="10" d="M 734.773438 359.484375 C 734.773438 365.949219 725.074219 365.949219 725.074219 359.484375 C 725.074219 353.015625 734.773438 353.015625 734.773438 359.484375 "/>
<path fill-rule="nonzero" fill="rgb(70.196078%, 70.196078%, 70.196078%)" fill-opacity="1" stroke-width="1" stroke-linecap="butt" stroke-linejoin="miter" stroke="rgb(70.196078%, 70.196078%, 70.196078%)" stroke-opacity="1" stroke-miterlimit="10" d="M 724.332031 311.558594 C 724.332031 318.027344 714.632812 318.027344 714.632812 311.558594 C 714.632812 305.09375 724.332031 305.09375 724.332031 311.558594 "/>
<path fill-rule="nonzero" fill="rgb(70.196078%, 70.196078%, 70.196078%)" fill-opacity="1" stroke-width="1" stroke-linecap="butt" stroke-linejoin="miter" stroke="rgb(70.196078%, 70.196078%, 70.196078%)" stroke-opacity="1" stroke-miterlimit="10" d="M 706.3125 265.300781 C 706.3125 271.765625 696.613281 271.765625 696.613281 265.300781 C 696.613281 258.832031 706.3125 258.832031 706.3125 265.300781 "/>
<path fill-rule="nonzero" fill="rgb(70.196078%, 70.196078%, 70.196078%)" fill-opacity="1" stroke-width="1" stroke-linecap="butt" stroke-linejoin="miter" stroke="rgb(70.196078%, 70.196078%, 70.196078%)" stroke-opacity="1" stroke-miterlimit="10" d="M 684.417969 225.777344 C 684.417969 232.246094 674.71875 232.246094 674.71875 225.777344 C 674.71875 219.3125 684.417969 219.3125 684.417969 225.777344 "/>
<path fill-rule="nonzero" fill="rgb(70.196078%, 70.196078%, 70.196078%)" fill-opacity="1" stroke-width="1" stroke-linecap="butt" stroke-linejoin="miter" stroke="rgb(70.196078%, 70.196078%, 70.196078%)" stroke-opacity="1" stroke-miterlimit="10" d="M 638.183594 159.773438 C 638.183594 166.242188 628.480469 166.242188 628.480469 159.773438 C 628.480469 153.308594 638.183594 153.308594 638.183594 159.773438 "/>
<path fill-rule="nonzero" fill="rgb(70.196078%, 70.196078%, 70.196078%)" fill-opacity="1" stroke-width="1" stroke-linecap="butt" stroke-linejoin="miter" stroke="rgb(70.196078%, 70.196078%, 70.196078%)" stroke-opacity="1" stroke-miterlimit="10" d="M 661.617188 190.667969 C 661.617188 197.132812 651.914062 197.132812 651.914062 190.667969 C 651.914062 184.199219 661.617188 184.199219 661.617188 190.667969 "/>
<path fill-rule="nonzero" fill="rgb(70.196078%, 70.196078%, 70.196078%)" fill-opacity="1" stroke-width="1" stroke-linecap="butt" stroke-linejoin="miter" stroke="rgb(70.196078%, 70.196078%, 70.196078%)" stroke-opacity="1" stroke-miterlimit="10" d="M 577.078125 84.582031 C 577.078125 91.050781 567.378906 91.050781 567.378906 84.582031 C 567.378906 78.117188 577.078125 78.117188 577.078125 84.582031 "/>
<path fill-rule="nonzero" fill="rgb(70.196078%, 70.196078%, 70.196078%)" fill-opacity="1" stroke-width="1" stroke-linecap="butt" stroke-linejoin="miter" stroke="rgb(70.196078%, 70.196078%, 70.196078%)" stroke-opacity="1" stroke-miterlimit="10" d="M 563.480469 69.820312 C 563.480469 76.285156 553.78125 76.285156 553.78125 69.820312 C 553.78125 63.351562 563.480469 63.351562 563.480469 69.820312 "/>
<path fill-rule="nonzero" fill="rgb(70.196078%, 70.196078%, 70.196078%)" fill-opacity="1" stroke-width="1" stroke-linecap="butt" stroke-linejoin="miter" stroke="rgb(70.196078%, 70.196078%, 70.196078%)" stroke-opacity="1" stroke-miterlimit="10" d="M 616.832031 132.375 C 616.832031 138.84375 607.128906 138.84375 607.128906 132.375 C 607.128906 125.910156 616.832031 125.910156 616.832031 132.375 "/>
<path fill-rule="nonzero" fill="rgb(70.196078%, 70.196078%, 70.196078%)" fill-opacity="1" stroke-width="1" stroke-linecap="butt" stroke-linejoin="miter" stroke="rgb(70.196078%, 70.196078%, 70.196078%)" stroke-opacity="1" stroke-miterlimit="10" d="M 598.066406 106.152344 C 598.066406 112.617188 588.363281 112.617188 588.363281 106.152344 C 588.363281 99.683594 598.066406 99.683594 598.066406 106.152344 "/>
<path fill-rule="nonzero" fill="rgb(70.196078%, 70.196078%, 70.196078%)" fill-opacity="1" stroke-width="1" stroke-linecap="butt" stroke-linejoin="miter" stroke="rgb(70.196078%, 70.196078%, 70.196078%)" stroke-opacity="1" stroke-miterlimit="10" d="M 553.460938 58.429688 C 553.460938 64.894531 543.757812 64.894531 543.757812 58.429688 C 543.757812 51.960938 553.460938 51.960938 553.460938 58.429688 "/>
<path fill-rule="nonzero" fill="rgb(100%, 84.313725%, 0%)" fill-opacity="1" stroke-width="1" stroke-linecap="butt" stroke-linejoin="miter" stroke="rgb(100%, 84.313725%, 0%)" stroke-opacity="1" stroke-miterlimit="10" d="M 539.011719 44.648438 L 549.710938 44.648438 L 549.710938 55.347656 L 539.011719 55.347656 Z M 539.011719 44.648438 "/>
</svg>
