<?xml version="1.0" encoding="UTF-8"?>
<svg xmlns="http://www.w3.org/2000/svg" xmlns:xlink="http://www.w3.org/1999/xlink" width="800" height="800" viewBox="0 0 800 800">
<rect x="-80" y="-80" width="960" height="960" fill="rgb(100%, 100%, 100%)" fill-opacity="1"/>
<path fill="none" stroke-width="4.5" stroke-linecap="butt" stroke-linejoin="miter" stroke="rgb(70.196078%, 70.196078%, 70.196078%)" stroke-opacity="1" stroke-miterlimit="10" d="M 614.714844 419.457031 C 609.304688 424.261719 605.449219 430.472656 606.609375 437.519531 "/>
<path fill-rule="nonzero" fill="rgb(70.196078%, 70.196078%, 70.196078%)" fill-opacity="1" d="M 607.769531 444.558594 L 604.324219 437.898438 L 608.898438 437.144531 L 607.769531 444.558594 "/>
<path fill="none" stroke-width="4.5" stroke-linecap="butt" stroke-linejoin="miter" stroke="rgb(70.196078%, 70.196078%, 70.196078%)" stroke-opacity="1" stroke-miterlimit="10" d="M 614.328125 386 C 609.617188 392.824219 607.167969 400.699219 610.234375 408.316406 "/>
<path fill-rule="nonzero" fill="rgb(70.196078%, 70.196078%, 70.196078%)" fill-opacity="1" d="M 612.894531 414.933594 L 608.082031 409.179688 L 612.382812 407.449219 L 612.894531 414.933594 "/>
<path fill="none" stroke-width="5.5" stroke-linecap="butt" stroke-linejoin="miter" stroke="rgb(70.196078%, 70.196078%, 70.196078%)" stroke-opacity="1" stroke-miterlimit="10" d="M 333.273438 113.425781 C 356.847656 138.261719 385.824219 151.269531 419.964844 148.921875 "/>
<path fill-rule="nonzero" fill="rgb(70.196078%, 70.196078%, 70.196078%)" fill-opacity="1" d="M 427.082031 148.433594 L 420.125 151.234375 L 419.808594 146.609375 L 427.082031 148.433594 "/>
<path fill="none" stroke-width="4.5" stroke-linecap="butt" stroke-linejoin="miter" stroke="rgb(70.196078%, 70.196078%, 70.196078%)" stroke-opacity="1" stroke-miterlimit="10" d="M 520.335938 184.582031 C 520.65625 194.367188 523.949219 203.367188 532.117188 208.632812 "/>
<path fill-rule="nonzero" fill="rgb(70.196078%, 70.196078%, 70.196078%)" fill-opacity="1" d="M 538.113281 212.5 L 530.863281 210.582031 L 533.375 206.6875 L 538.113281 212.5 "/>
<path fill="none" stroke-width="1.5" stroke-linecap="butt" stroke-linejoin="miter" stroke="rgb(12.156863%, 47.058824%, 70.588235%)" stroke-opacity="1" stroke-miterlimit="10" d="M 520.335938 184.582031 C 539.335938 200.6875 561.378906 208.078125 585.820312 203.421875 "/>
<path fill-rule="nonzero" fill="rgb(12.156863%, 47.058824%, 70.588235%)" fill-opacity="1" d="M 592.828125 202.085938 L 586.253906 205.699219 L 585.386719 201.144531 L 592.828125 202.085938 "/>
<path fill="none" stroke-width="5.5" stroke-linecap="butt" stroke-linejoin="miter" stroke="rgb(70.196078%, 70.196078%, 70.196078%)" stroke-opacity="1" stroke-miterlimit="10" d="M 431.695312 148.117188 C 451.824219 171.867188 477.472656 185.261719 508.582031 184.769531 "/>
<path fill-rule="nonzero" fill="rgb(70.196078%, 70.196078%, 70.196078%)" fill-opacity="1" d="M 515.714844 184.65625 L 508.621094 187.085938 L 508.546875 182.453125 L 515.714844 184.65625 "/>
<path fill="none" stroke-width="4.5" stroke-linecap="butt" stroke-linejoin="miter" stroke="rgb(70.196078%, 70.196078%, 70.196078%)" stroke-opacity="1" stroke-miterlimit="10" d="M 608.609375 351.773438 C 604.875 359.675781 603.726562 368.246094 608.167969 375.683594 "/>
<path fill-rule="nonzero" fill="rgb(70.196078%, 70.196078%, 70.196078%)" fill-opacity="1" d="M 611.824219 381.808594 L 606.179688 376.871094 L 610.15625 374.496094 L 611.824219 381.808594 "/>
<path fill="none" stroke-width="4.5" stroke-linecap="butt" stroke-linejoin="miter" stroke="rgb(70.196078%, 70.196078%, 70.196078%)" stroke-opacity="1" stroke-miterlimit="10" d="M 595.769531 313.617188 C 593.105469 324.035156 593.894531 334.457031 600.820312 342.605469 "/>
<path fill-rule="nonzero" fill="rgb(70.196078%, 70.196078%, 70.196078%)" fill-opacity="1" d="M 605.4375 348.042969 L 599.054688 344.105469 L 602.585938 341.105469 L 605.4375 348.042969 "/>
<path fill="none" stroke-width="4.5" stroke-linecap="butt" stroke-linejoin="miter" stroke="rgb(70.196078%, 70.196078%, 70.196078%)" stroke-opacity="1" stroke-miterlimit="10" d="M 565.46875 246.074219 C 564.277344 255.53125 566.046875 264.710938 573.109375 271.003906 "/>
<path fill-rule="nonzero" fill="rgb(70.196078%, 70.196078%, 70.196078%)" fill-opacity="1" d="M 578.4375 275.746094 L 571.570312 272.734375 L 574.652344 269.273438 L 578.4375 275.746094 "/>
<path fill="none" stroke-width="4.5" stroke-linecap="butt" stroke-linejoin="miter" stroke="rgb(70.196078%, 70.196078%, 70.196078%)" stroke-opacity="1" stroke-miterlimit="10" d="M 542.222656 215.148438 C 542.851562 225.316406 546.570312 234.535156 555.207031 239.808594 "/>
<path fill-rule="nonzero" fill="rgb(70.196078%, 70.196078%, 70.196078%)" fill-opacity="1" d="M 561.296875 243.523438 L 554 241.785156 L 556.414062 237.828125 L 561.296875 243.523438 "/>
<path fill="none" stroke-width="4.5" stroke-linecap="butt" stroke-linejoin="miter" stroke="rgb(70.196078%, 70.196078%, 70.196078%)" stroke-opacity="1" stroke-miterlimit="10" d="M 582.085938 278.996094 C 580.03125 288.433594 581 297.84375 587.550781 304.839844 "/>
<path fill-rule="nonzero" fill="rgb(70.196078%, 70.196078%, 70.196078%)" fill-opacity="1" d="M 592.429688 310.046875 L 585.859375 306.425781 L 589.242188 303.257812 L 592.429688 310.046875 "/>
<path fill="none" stroke-width="5.5" stroke-linecap="butt" stroke-linejoin="miter" stroke="rgb(70.196078%, 70.196078%, 70.196078%)" stroke-opacity="1" stroke-miterlimit="10" d="M 252.554688 89.582031 C 271.789062 108.34375 294.945312 117.917969 321.605469 114.792969 "/>
<path fill-rule="nonzero" fill="rgb(70.196078%, 70.196078%, 70.196078%)" fill-opacity="1" d="M 328.691406 113.964844 L 321.875 117.09375 L 321.335938 112.492188 L 328.691406 113.964844 "/>
<path fill="none" stroke-width="5.5" stroke-linecap="butt" stroke-linejoin="miter" stroke="rgb(70.196078%, 70.196078%, 70.196078%)" stroke-opacity="1" stroke-miterlimit="10" d="M 186.875 68.878906 C 201.488281 84.203125 219.488281 92.652344 240.539062 90.695312 "/>
<path fill-rule="nonzero" fill="rgb(70.196078%, 70.196078%, 70.196078%)" fill-opacity="1" d="M 247.640625 90.039062 L 240.753906 93.003906 L 240.324219 88.390625 L 247.640625 90.039062 "/>
<path fill="none" stroke-width="5.5" stroke-linecap="butt" stroke-linejoin="miter" stroke="rgb(70.196078%, 70.196078%, 70.196078%)" stroke-opacity="1" stroke-miterlimit="10" d="M 132.542969 50 C 143.703125 62.871094 157.871094 70.578125 174.839844 69.582031 "/>
<path fill-rule="nonzero" fill="rgb(70.196078%, 70.196078%, 70.196078%)" fill-opacity="1" d="M 181.960938 69.167969 L 174.972656 71.898438 L 174.703125 67.269531 L 181.960938 69.167969 "/>
<path fill="none" stroke-width="1.5" stroke-linecap="butt" stroke-linejoin="miter" stroke="rgb(12.156863%, 47.058824%, 70.588235%)" stroke-opacity="1" stroke-miterlimit="10" d="M 184.308594 694.421875 C 183.636719 693.519531 181.648438 692.808594 181.625 692.929688 "/>
<path fill-rule="nonzero" fill="rgb(12.156863%, 47.058824%, 70.588235%)" fill-opacity="1" d="M 180.238281 699.925781 L 179.351562 692.480469 L 183.898438 693.378906 L 180.238281 699.925781 "/>
<path fill="none" stroke-width="4.5" stroke-linecap="butt" stroke-linejoin="miter" stroke="rgb(70.196078%, 70.196078%, 70.196078%)" stroke-opacity="1" stroke-miterlimit="10" d="M 184.308594 694.421875 C 165.269531 693.773438 148.289062 699.601562 136.082031 714.183594 "/>
<path fill-rule="nonzero" fill="rgb(70.196078%, 70.196078%, 70.196078%)" fill-opacity="1" d="M 131.5 719.652344 L 134.304688 712.695312 L 137.859375 715.671875 L 131.5 719.652344 "/>
<path fill="none" stroke-width="5.5" stroke-linecap="butt" stroke-linejoin="miter" stroke="rgb(70.196078%, 70.196078%, 70.196078%)" stroke-opacity="1" stroke-miterlimit="10" d="M 277.71875 661.050781 C 245.644531 656.78125 216.574219 664.371094 192.910156 686.410156 "/>
<path fill-rule="nonzero" fill="rgb(70.196078%, 70.196078%, 70.196078%)" fill-opacity="1" d="M 187.691406 691.269531 L 191.332031 684.714844 L 194.488281 688.105469 L 187.691406 691.269531 "/>
<path fill="none" stroke-width="5.5" stroke-linecap="butt" stroke-linejoin="miter" stroke="rgb(70.196078%, 70.196078%, 70.196078%)" stroke-opacity="1" stroke-miterlimit="10" d="M 387.785156 620.75 C 349.109375 616.25 314.445312 626.128906 286.242188 652.945312 "/>
<path fill-rule="nonzero" fill="rgb(70.196078%, 70.196078%, 70.196078%)" fill-opacity="1" d="M 281.070312 657.863281 L 284.644531 651.265625 L 287.835938 654.625 L 281.070312 657.863281 "/>
<path fill="none" stroke-width="5.5" stroke-linecap="butt" stroke-linejoin="miter" stroke="rgb(70.196078%, 70.196078%, 70.196078%)" stroke-opacity="1" stroke-miterlimit="10" d="M 464.765625 570.871094 C 435.269531 573.675781 410.8125 586.394531 394.328125 610.988281 "/>
<path fill-rule="nonzero" fill="rgb(70.196078%, 70.196078%, 70.196078%)" fill-opacity="1" d="M 390.359375 616.914062 L 392.402344 609.695312 L 396.253906 612.277344 L 390.359375 616.914062 "/>
<path fill="none" stroke-width="1.5" stroke-linecap="butt" stroke-linejoin="miter" stroke="rgb(12.156863%, 47.058824%, 70.588235%)" stroke-opacity="1" stroke-miterlimit="10" d="M 595.40625 201.59375 C 606.386719 216.003906 620.898438 225.011719 638.980469 225.21875 "/>
<path fill-rule="nonzero" fill="rgb(12.156863%, 47.058824%, 70.588235%)" fill-opacity="1" d="M 646.113281 225.300781 L 638.953125 227.535156 L 639.007812 222.898438 L 646.113281 225.300781 "/>
<path fill="none" stroke-width="5.5" stroke-linecap="butt" stroke-linejoin="miter" stroke="rgb(70.196078%, 70.196078%, 70.196078%)" stroke-opacity="1" stroke-miterlimit="10" d="M 546.152344 513.335938 C 513.941406 517.882812 487.847656 533.101562 470.894531 560.839844 "/>
<path fill-rule="nonzero" fill="rgb(70.196078%, 70.196078%, 70.196078%)" fill-opacity="1" d="M 467.175781 566.925781 L 468.917969 559.632812 L 472.871094 562.050781 L 467.175781 566.925781 "/>
<path fill="none" stroke-width="1.5" stroke-linecap="butt" stroke-linejoin="miter" stroke="rgb(12.156863%, 47.058824%, 70.588235%)" stroke-opacity="1" stroke-miterlimit="10" d="M 750 343.894531 C 737.308594 348.847656 727.515625 357.414062 723.894531 370.5 "/>
<path fill-rule="nonzero" fill="rgb(12.156863%, 47.058824%, 70.588235%)" fill-opacity="1" d="M 721.988281 377.371094 L 721.660156 369.878906 L 726.125 371.117188 L 721.988281 377.371094 "/>
<path fill="none" stroke-width="1.5" stroke-linecap="butt" stroke-linejoin="miter" stroke="rgb(12.156863%, 47.058824%, 70.588235%)" stroke-opacity="1" stroke-miterlimit="10" d="M 721.292969 379.894531 C 700.214844 381.167969 682.234375 389.464844 670.132812 406.734375 "/>
<path fill-rule="nonzero" fill="rgb(12.156863%, 47.058824%, 70.588235%)" fill-opacity="1" d="M 666.039062 412.574219 L 668.234375 405.40625 L 672.03125 408.0625 L 666.039062 412.574219 "/>
<path fill="none" stroke-width="5.5" stroke-linecap="butt" stroke-linejoin="miter" stroke="rgb(70.196078%, 70.196078%, 70.196078%)" stroke-opacity="1" stroke-miterlimit="10" d="M 608.644531 449.847656 C 581.355469 458.628906 560.855469 475.714844 550.429688 502.390625 "/>
<path fill-rule="nonzero" fill="rgb(70.196078%, 70.196078%, 70.196078%)" fill-opacity="1" d="M 547.832031 509.035156 L 548.269531 501.546875 L 552.589844 503.234375 L 547.832031 509.035156 "/>
<path fill="none" stroke-width="1.5" stroke-linecap="butt" stroke-linejoin="miter" stroke="rgb(12.156863%, 47.058824%, 70.588235%)" stroke-opacity="1" stroke-miterlimit="10" d="M 664.535156 414.722656 C 644.59375 415.71875 627.410156 423.320312 615.898438 439.589844 "/>
<path fill-rule="nonzero" fill="rgb(12.156863%, 47.058824%, 70.588235%)" fill-opacity="1" d="M 611.78125 445.414062 L 614.007812 438.25 L 617.792969 440.929688 L 611.78125 445.414062 "/>
<path fill="none" stroke-width="1.5" stroke-linecap="butt" stroke-linejoin="miter" stroke="rgb(12.156863%, 47.058824%, 70.588235%)" stroke-opacity="1" stroke-miterlimit="10" d="M 747.625 310.273438 C 743.222656 318.210938 741.519531 326.96875 745.554688 335.019531 "/>
<path fill-rule="nonzero" fill="rgb(12.156863%, 47.058824%, 70.588235%)" fill-opacity="1" d="M 748.75 341.398438 L 743.484375 336.058594 L 747.625 333.980469 L 748.75 341.398438 "/>
<path fill="none" stroke-width="1.5" stroke-linecap="butt" stroke-linejoin="miter" stroke="rgb(12.156863%, 47.058824%, 70.588235%)" stroke-opacity="1" stroke-miterlimit="10" d="M 732.410156 279.0625 C 731.300781 288.441406 733.140625 297.507812 740.179688 303.710938 "/>
<path fill-rule="nonzero" fill="rgb(12.156863%, 47.058824%, 70.588235%)" fill-opacity="1" d="M 745.527344 308.425781 L 738.644531 305.449219 L 741.710938 301.972656 L 745.527344 308.425781 "/>
<path fill="none" stroke-width="1.5" stroke-linecap="butt" stroke-linejoin="miter" stroke="rgb(12.156863%, 47.058824%, 70.588235%)" stroke-opacity="1" stroke-miterlimit="10" d="M 698.53125 248.1875 C 702.605469 261.109375 710.457031 271.394531 723.203125 275.847656 "/>
<path fill-rule="nonzero" fill="rgb(12.156863%, 47.058824%, 70.588235%)" fill-opacity="1" d="M 729.9375 278.199219 L 722.441406 278.035156 L 723.96875 273.660156 L 729.9375 278.199219 "/>
<path fill="none" stroke-width="1.5" stroke-linecap="butt" stroke-linejoin="miter" stroke="rgb(12.156863%, 47.058824%, 70.588235%)" stroke-opacity="1" stroke-miterlimit="10" d="M 648.734375 225.328125 C 658.6875 238.878906 672.011719 247.550781 688.78125 247.953125 "/>
<path fill-rule="nonzero" fill="rgb(12.156863%, 47.058824%, 70.588235%)" fill-opacity="1" d="M 695.910156 248.125 L 688.726562 250.273438 L 688.835938 245.636719 L 695.910156 248.125 "/>
<path fill="none" stroke-width="3.5" stroke-linecap="butt" stroke-linejoin="miter" stroke="rgb(70.196078%, 70.196078%, 70.196078%)" stroke-opacity="1" stroke-miterlimit="10" d="M 66.5 747.117188 C 65.402344 745.433594 63.351562 743.421875 61.867188 744.152344 "/>
<path fill-rule="nonzero" fill="rgb(70.196078%, 70.196078%, 70.196078%)" fill-opacity="1" d="M 55.46875 747.304688 L 60.839844 742.074219 L 62.890625 746.230469 L 55.46875 747.304688 "/>
<path fill="none" stroke-width="1.5" stroke-linecap="butt" stroke-linejoin="miter" stroke="rgb(99.215686%, 74.901961%, 43.529412%)" stroke-opacity="1" stroke-miterlimit="10" d="M 128.339844 723.429688 C 127.085938 722.351562 124.769531 721.214844 124 722.152344 "/>
<path fill-rule="nonzero" fill="rgb(99.215686%, 74.901961%, 43.529412%)" fill-opacity="1" d="M 119.484375 727.671875 L 122.207031 720.683594 L 125.796875 723.617188 L 119.484375 727.671875 "/>
<path fill="none" stroke-width="3.5" stroke-linecap="butt" stroke-linejoin="miter" stroke="rgb(70.196078%, 70.196078%, 70.196078%)" stroke-opacity="1" stroke-miterlimit="10" d="M 128.339844 723.429688 C 108.328125 720.578125 89.808594 724.84375 75.222656 738.78125 "/>
<path fill-rule="nonzero" fill="rgb(70.196078%, 70.196078%, 70.196078%)" fill-opacity="1" d="M 70.066406 743.710938 L 73.621094 737.105469 L 76.824219 740.457031 L 70.066406 743.710938 "/>
<path fill-rule="nonzero" fill="rgb(70.196078%, 70.196078%, 70.196078%)" fill-opacity="1" stroke-width="1" stroke-linecap="butt" stroke-linejoin="miter" stroke="rgb(70.196078%, 70.196078%, 70.196078%)" stroke-opacity="1" stroke-miterlimit="10" d="M 619.566406 419.457031 C 619.566406 425.925781 609.867188 425.925781 609.867188 419.457031 C 609.867188 412.992188 619.566406 412.992188 619.566406 419.457031 "/>
<path fill-rule="nonzero" fill="rgb(70.196078%, 70.196078%, 70.196078%)" fill-opacity="1" stroke-width="1" stroke-linecap="butt" stroke-linejoin="miter" stroke="rgb(70.196078%, 70.196078%, 70.196078%)" stroke-opacity="1" stroke-miterlimit="10" d="M 619.179688 386 C 619.179688 392.464844 609.476562 392.464844 609.476562 386 C 609.476562 379.535156 619.179688 379.535156 619.179688 386 "/>
<path fill-rule="nonzero" fill="rgb(70.196078%, 70.196078%, 70.196078%)" fill-opacity="1" stroke-width="1" stroke-linecap="butt" stroke-linejoin="miter" stroke="rgb(70.196078%, 70.196078%, 70.196078%)" stroke-opacity="1" stroke-miterlimit="10" d="M 338.125 113.425781 C 338.125 119.894531 328.425781 119.894531 328.425781 113.425781 C 328.425781 106.960938 338.125 106.960938 338.125 113.425781 "/>
<path fill-rule="nonzero" fill="rgb(70.196078%, 70.196078%, 70.196078%)" fill-opacity="1" stroke-width="1" stroke-linecap="butt" stroke-linejoin="miter" stroke="rgb(70.196078%, 70.196078%, 70.196078%)" stroke-opacity="1" stroke-miterlimit="10" d="M 525.183594 184.582031 C 525.183594 191.050781 515.484375 191.050781 515.484375 184.582031 C 515.484375 178.117188 525.183594 178.117188 525.183594 184.582031 "/>
<path fill-rule="nonzero" fill="rgb(70.196078%, 70.196078%, 70.196078%)" fill-opacity="1" stroke-width="1" stroke-linecap="butt" stroke-linejoin="miter" stroke="rgb(70.196078%, 70.196078%, 70.196078%)" stroke-opacity="1" stroke-miterlimit="10" d="M 436.542969 148.117188 C 436.542969 154.582031 426.84375 154.582031 426.84375 148.117188 C 426.84375 141.648438 436.542969 141.648438 436.542969 148.117188 "/>
<path fill-rule="nonzero" fill="rgb(70.196078%, 70.196078%, 70.196078%)" fill-opacity="1" stroke-width="1" stroke-linecap="butt" stroke-linejoin="miter" stroke="rgb(70.196078%, 70.196078%, 70.196078%)" stroke-opacity="1" stroke-miterlimit="10" d="M 613.457031 351.773438 C 613.457031 358.238281 603.757812 358.238281 603.757812 351.773438 C 603.757812 345.304688 613.457031 345.304688 613.457031 351.773438 "/>
<path fill-rule="nonzero" fill="rgb(70.196078%, 70.196078%, 70.196078%)" fill-opacity="1" stroke-width="1" stroke-linecap="butt" stroke-linejoin="miter" stroke="rgb(70.196078%, 70.196078%, 70.196078%)" stroke-opacity="1" stroke-miterlimit="10" d="M 600.621094 313.617188 C 600.621094 320.082031 590.921875 320.082031 590.921875 313.617188 C 590.921875 307.148438 600.621094 307.148438 600.621094 313.617188 "/>
<path fill-rule="nonzero" fill="rgb(70.196078%, 70.196078%, 70.196078%)" fill-opacity="1" stroke-width="1" stroke-linecap="butt" stroke-linejoin="miter" stroke="rgb(70.196078%, 70.196078%, 70.196078%)" stroke-opacity="1" stroke-miterlimit="10" d="M 570.320312 246.074219 C 570.320312 252.542969 560.621094 252.542969 560.621094 246.074219 C 560.621094 239.609375 570.320312 239.609375 570.320312 246.074219 "/>
<path fill-rule="nonzero" fill="rgb(70.196078%, 70.196078%, 70.196078%)" fill-opacity="1" stroke-width="1" stroke-linecap="butt" stroke-linejoin="miter" stroke="rgb(70.196078%, 70.196078%, 70.196078%)" stroke-opacity="1" stroke-miterlimit="10" d="M 547.074219 215.148438 C 547.074219 221.613281 537.375 221.613281 537.375 215.148438 C 537.375 208.679688 547.074219 208.679688 547.074219 215.148438 "/>
<path fill-rule="nonzero" fill="rgb(70.196078%, 70.196078%, 70.196078%)" fill-opacity="1" stroke-width="1" stroke-linecap="butt" stroke-linejoin="miter" stroke="rgb(70.196078%, 70.196078%, 70.196078%)" stroke-opacity="1" stroke-miterlimit="10" d="M 586.9375 278.996094 C 586.9375 285.464844 577.238281 285.464844 577.238281 278.996094 C 577.238281 272.53125 586.9375 272.53125 586.9375 278.996094 "/>
<path fill-rule="nonzero" fill="rgb(70.196078%, 70.196078%, 70.196078%)" fill-opacity="1" stroke-width="1" stroke-linecap="butt" stroke-linejoin="miter" stroke="rgb(70.196078%, 70.196078%, 70.196078%)" stroke-opacity="1" stroke-miterlimit="10" d="M 257.402344 89.582031 C 257.402344 96.050781 247.703125 96.050781 247.703125 89.582031 C 247.703125 83.117188 257.402344 83.117188 257.402344 89.582031 "/>
<path fill-rule="nonzero" fill="rgb(70.196078%, 70.196078%, 70.196078%)" fill-opacity="1" stroke-width="1" stroke-linecap="butt" stroke-linejoin="miter" stroke="rgb(70.196078%, 70.196078%, 70.196078%)" stroke-opacity="1" stroke-miterlimit="10" d="M 191.722656 68.878906 C 191.722656 75.347656 182.023438 75.347656 182.023438 68.878906 C 182.023438 62.414062 191.722656 62.414062 191.722656 68.878906 "/>
<path fill-rule="nonzero" fill="rgb(100%, 84.313725%, 0%)" fill-opacity="1" stroke-width="1" stroke-linecap="butt" stroke-linejoin="miter" stroke="rgb(100%, 84.313725%, 0%)" stroke-opacity="1" stroke-miterlimit="10" d="M 127.195312 44.648438 L 137.894531 44.648438 L 137.894531 55.347656 L 127.195312 55.347656 Z M 127.195312 44.648438 "/>
<path fill-rule="nonzero" fill="rgb(14.901961%, 14.901961%, 14.901961%)" fill-opacity="1" stroke-width="1" stroke-linecap="butt" stroke-linejoin="miter" stroke="rgb(14.901961%, 14.901961%, 14.901961%)" stroke-opacity="1" stroke-miterlimit="10" d="M 175.730469 707.507812 L 179.480469 700.007812 L 183.230469 707.507812 Z M 175.730469 707.507812 "/>
<path fill-rule="nonzero" fill="rgb(70.196078%, 70.196078%, 70.196078%)" fill-opacity="1" stroke-width="1" stroke-linecap="butt" stroke-linejoin="miter" stroke="rgb(70.196078%, 70.196078%, 70.196078%)" stroke-opacity="1" stroke-miterlimit="10" d="M 189.160156 694.421875 C 189.160156 700.886719 179.457031 700.886719 179.457031 694.421875 C 179.457031 687.953125 189.160156 687.953125 189.160156 694.421875 "/>
<path fill-rule="nonzero" fill="rgb(70.196078%, 70.196078%, 70.196078%)" fill-opacity="1" stroke-width="1" stroke-linecap="butt" stroke-linejoin="miter" stroke="rgb(70.196078%, 70.196078%, 70.196078%)" stroke-opacity="1" stroke-miterlimit="10" d="M 282.570312 661.050781 C 282.570312 667.515625 272.871094 667.515625 272.871094 661.050781 C 272.871094 654.582031 282.570312 654.582031 282.570312 661.050781 "/>
<path fill-rule="nonzero" fill="rgb(70.196078%, 70.196078%, 70.196078%)" fill-opacity="1" stroke-width="1" stroke-linecap="butt" stroke-linejoin="miter" stroke="rgb(70.196078%, 70.196078%, 70.196078%)" stroke-opacity="1" stroke-miterlimit="10" d="M 392.636719 620.75 C 392.636719 627.214844 382.9375 627.214844 382.9375 620.75 C 382.9375 614.28125 392.636719 614.28125 392.636719 620.75 "/>
<path fill-rule="nonzero" fill="rgb(70.196078%, 70.196078%, 70.196078%)" fill-opacity="1" stroke-width="1" stroke-linecap="butt" stroke-linejoin="miter" stroke="rgb(70.196078%, 70.196078%, 70.196078%)" stroke-opacity="1" stroke-miterlimit="10" d="M 469.613281 570.871094 C 469.613281 577.335938 459.914062 577.335938 459.914062 570.871094 C 459.914062 564.402344 469.613281 564.402344 469.613281 570.871094 "/>
<path fill-rule="nonzero" fill="rgb(12.156863%, 47.058824%, 70.588235%)" fill-opacity="1" stroke-width="1" stroke-linecap="butt" stroke-linejoin="miter" stroke="rgb(12.156863%, 47.058824%, 70.588235%)" stroke-opacity="1" stroke-miterlimit="10" d="M 598.15625 201.59375 C 598.15625 205.261719 592.65625 205.261719 592.65625 201.59375 C 592.65625 197.929688 598.15625 197.929688 598.15625 201.59375 "/>
<path fill-rule="nonzero" fill="rgb(70.196078%, 70.196078%, 70.196078%)" fill-opacity="1" stroke-width="1" stroke-linecap="butt" stroke-linejoin="miter" stroke="rgb(70.196078%, 70.196078%, 70.196078%)" stroke-opacity="1" stroke-miterlimit="10" d="M 551.003906 513.335938 C 551.003906 519.800781 541.300781 519.800781 541.300781 513.335938 C 541.300781 506.871094 551.003906 506.871094 551.003906 513.335938 "/>
<path fill-rule="nonzero" fill="rgb(12.156863%, 47.058824%, 70.588235%)" fill-opacity="1" stroke-width="1" stroke-linecap="butt" stroke-linejoin="miter" stroke="rgb(12.156863%, 47.058824%, 70.588235%)" stroke-opacity="1" stroke-miterlimit="10" d="M 752.75 343.894531 C 752.75 347.558594 747.25 347.558594 747.25 343.894531 C 747.25 340.226562 752.75 340.226562 752.75 343.894531 "/>
<path fill-rule="nonzero" fill="rgb(12.156863%, 47.058824%, 70.588235%)" fill-opacity="1" stroke-width="1" stroke-linecap="butt" stroke-linejoin="miter" stroke="rgb(12.156863%, 47.058824%, 70.588235%)" stroke-opacity="1" stroke-miterlimit="10" d="M 724.042969 379.894531 C 724.042969 383.5625 718.542969 383.5625 718.542969 379.894531 C 718.542969 376.226562 724.042969 376.226562 724.042969 379.894531 "/>
<path fill-rule="nonzero" fill="rgb(70.196078%, 70.196078%, 70.196078%)" fill-opacity="1" stroke-width="1" stroke-linecap="butt" stroke-linejoin="miter" stroke="rgb(70.196078%, 70.196078%, 70.196078%)" stroke-opacity="1" stroke-miterlimit="10" d="M 613.992188 449.847656 C 613.992188 456.980469 603.292969 456.980469 603.292969 449.847656 C 603.292969 442.714844 613.992188 442.714844 613.992188 449.847656 "/>
<path fill-rule="nonzero" fill="rgb(12.156863%, 47.058824%, 70.588235%)" fill-opacity="1" stroke-width="1" stroke-linecap="butt" stroke-linejoin="miter" stroke="rgb(12.156863%, 47.058824%, 70.588235%)" stroke-opacity="1" stroke-miterlimit="10" d="M 667.285156 414.722656 C 667.285156 418.390625 661.785156 418.390625 661.785156 414.722656 C 661.785156 411.058594 667.285156 411.058594 667.285156 414.722656 "/>
<path fill-rule="nonzero" fill="rgb(12.156863%, 47.058824%, 70.588235%)" fill-opacity="1" stroke-width="1" stroke-linecap="butt" stroke-linejoin="miter" stroke="rgb(12.156863%, 47.058824%, 70.588235%)" stroke-opacity="1" stroke-miterlimit="10" d="M 750.375 310.273438 C 750.375 313.941406 744.875 313.941406 744.875 310.273438 C 744.875 306.605469 750.375 306.605469 750.375 310.273438 "/>
<path fill-rule="nonzero" fill="rgb(12.156863%, 47.058824%, 70.588235%)" fill-opacity="1" stroke-width="1" stroke-linecap="butt" stroke-linejoin="miter" stroke="rgb(12.156863%, 47.058824%, 70.588235%)" stroke-opacity="1" stroke-miterlimit="10" d="M 735.160156 279.0625 C 735.160156 282.726562 729.660156 282.726562 729.660156 279.0625 C 729.660156 275.394531 735.160156 275.394531 735.160156 279.0625 "/>
<path fill-rule="nonzero" fill="rgb(12.156863%, 47.058824%, 70.588235%)" fill-opacity="1" stroke-width="1" stroke-linecap="butt" stroke-linejoin="miter" stroke="rgb(12.156863%, 47.058824%, 70.588235%)" stroke-opacity="1" stroke-miterlimit="10" d="M 701.28125 248.1875 C 701.28125 251.855469 695.78125 251.855469 695.78125 248.1875 C 695.78125 244.523438 701.28125 244.523438 701.28125 248.1875 "/>
<path fill-rule="nonzero" fill="rgb(12.156863%, 47.058824%, 70.588235%)" fill-opacity="1" stroke-width="1" stroke-linecap="butt" stroke-linejoin="miter" stroke="rgb(12.156863%, 47.058824%, 70.588235%)" stroke-opacity="1" stroke-miterlimit="10" d="M 651.484375 225.328125 C 651.484375 228.996094 645.984375 228.996094 645.984375 225.328125 C 645.984375 221.664062 651.484375 221.664062 651.484375 225.328125 "/>
<path fill-rule="nonzero" fill="rgb(14.901961%, 14.901961%, 14.901961%)" fill-opacity="1" stroke-width="1" stroke-linecap="butt" stroke-linejoin="miter" stroke="rgb(14.901961%, 14.901961%, 14.901961%)" stroke-opacity="1" stroke-miterlimit="10" d="M 113.386719 734.285156 L 117.136719 726.785156 L 120.886719 734.285156 Z M 113.386719 734.285156 "/>
<path fill-rule="nonzero" fill="rgb(14.901961%, 14.901961%, 14.901961%)" fill-opacity="1" stroke-width="1" stroke-linecap="butt" stroke-linejoin="miter" stroke="rgb(14.901961%, 14.901961%, 14.901961%)" stroke-opacity="1" stroke-miterlimit="10" d="M 44.148438 755.851562 L 50 744.148438 L 55.851562 755.851562 Z M 44.148438 755.851562 "/>
<path fill-rule="nonzero" fill="rgb(70.196078%, 70.196078%, 70.196078%)" fill-opacity="1" stroke-width="1" stroke-linecap="butt" stroke-linejoin="miter" stroke="rgb(70.196078%, 70.196078%, 70.196078%)" stroke-opacity="1" stroke-miterlimit="10" d="M 71.351562 747.117188 C 71.351562 753.582031 61.652344 753.582031 61.652344 747.117188 C 61.652344 740.648438 71.351562 740.648438 71.351562 747.117188 "/>
<path fill-rule="nonzero" fill="rgb(70.196078%, 70.196078%, 70.196078%)" fill-opacity="1" stroke-width="1" stroke-linecap="butt" stroke-linejoin="miter" stroke="rgb(70.196078%, 70.196078%, 70.196078%)" stroke-opacity="1" stroke-miterlimit="10" d="M 133.1875 723.429688 C 133.1875 729.894531 123.488281 729.894531 123.488281 723.429688 C 123.488281 716.960938 133.1875 716.960938 133.1875 723.429688 "/>
</svg>
