<?xml version="1.0" encoding="UTF-8"?>
<svg xmlns="http://www.w3.org/2000/svg" xmlns:xlink="http://www.w3.org/1999/xlink" width="800" height="800" viewBox="0 0 800 800">
<rect x="-80" y="-80" width="960" height="960" fill="rgb(100%, 100%, 100%)" fill-opacity="1"/>
<path fill="none" stroke-width="1.5" stroke-linecap="butt" stroke-linejoin="miter" stroke="rgb(99.215686%, 74.901961%, 43.529412%)" stroke-opacity="1" stroke-miterlimit="10" d="M 627.210938 411.5 C 626.003906 409.527344 623.605469 409.1875 621.984375 407.933594 "/>
<path fill-rule="nonzero" fill="rgb(99.215686%, 74.901961%, 43.529412%)" fill-opacity="1" d="M 627.628906 412.296875 L 620.566406 409.765625 L 623.402344 406.097656 L 627.628906 412.296875 "/>
<path fill="none" stroke-width="1.5" stroke-linecap="butt" stroke-linejoin="miter" stroke="rgb(30.196078%, 68.627451%, 29.019608%)" stroke-opacity="1" stroke-miterlimit="10" d="M 623.257812 406.085938 C 622.203125 406.644531 620.914062 408.441406 621.246094 408.660156 "/>
<path fill-rule="nonzero" fill="rgb(30.196078%, 68.627451%, 29.019608%)" fill-opacity="1" d="M 627.203125 412.585938 L 619.972656 410.597656 L 622.523438 406.726562 L 627.203125 412.585938 "/>
<path fill="none" stroke-width="1.5" stroke-linecap="butt" stroke-linejoin="miter" stroke="rgb(99.215686%, 74.901961%, 43.529412%)" stroke-opacity="1" stroke-miterlimit="10" d="M 623.257812 406.085938 C 622.121094 405.230469 620.164062 405.792969 619.457031 405.222656 "/>
<path fill-rule="nonzero" fill="rgb(99.215686%, 74.901961%, 43.529412%)" fill-opacity="1" d="M 625 409.710938 L 618 407.023438 L 620.917969 403.421875 L 625 409.710938 "/>
<path fill="none" stroke-width="1.5" stroke-linecap="butt" stroke-linejoin="miter" stroke="rgb(41.568627%, 23.921569%, 60.392157%)" stroke-opacity="1" stroke-miterlimit="10" d="M 705.203125 77.050781 C 707.71875 78.003906 711.054688 78.539062 712.550781 76.605469 "/>
<path fill-rule="nonzero" fill="rgb(41.568627%, 23.921569%, 60.392157%)" fill-opacity="1" d="M 716.910156 70.957031 L 714.382812 78.019531 L 710.714844 75.1875 L 716.910156 70.957031 "/>
<path fill="none" stroke-width="1.5" stroke-linecap="butt" stroke-linejoin="miter" stroke="rgb(98.431373%, 60.392157%, 60%)" stroke-opacity="1" stroke-miterlimit="10" d="M 705.203125 77.050781 C 711.640625 77.476562 718.109375 76.085938 721.738281 70.882812 "/>
<path fill-rule="nonzero" fill="rgb(98.431373%, 60.392157%, 60%)" fill-opacity="1" d="M 725.820312 65.035156 L 723.640625 72.210938 L 719.839844 69.558594 L 725.820312 65.035156 "/>
<path fill="none" stroke-width="2.5" stroke-linecap="butt" stroke-linejoin="miter" stroke="rgb(70.196078%, 70.196078%, 70.196078%)" stroke-opacity="1" stroke-miterlimit="10" d="M 668.417969 104.023438 C 681.082031 103.015625 692.234375 98.054688 698.878906 87.292969 "/>
<path fill-rule="nonzero" fill="rgb(70.196078%, 70.196078%, 70.196078%)" fill-opacity="1" d="M 702.625 81.222656 L 700.851562 88.511719 L 696.90625 86.074219 L 702.625 81.222656 "/>
<path fill="none" stroke-width="1.5" stroke-linecap="butt" stroke-linejoin="miter" stroke="rgb(41.568627%, 23.921569%, 60.392157%)" stroke-opacity="1" stroke-miterlimit="10" d="M 718.59375 68.777344 C 719.191406 69.855469 720.996094 71.203125 721.300781 70.796875 "/>
<path fill-rule="nonzero" fill="rgb(41.568627%, 23.921569%, 60.392157%)" fill-opacity="1" d="M 725.570312 65.082031 L 723.15625 72.183594 L 719.445312 69.410156 L 725.570312 65.082031 "/>
<path fill="none" stroke-width="1.5" stroke-linecap="butt" stroke-linejoin="miter" stroke="rgb(41.568627%, 23.921569%, 60.392157%)" stroke-opacity="1" stroke-miterlimit="10" d="M 728.882812 60.644531 C 730.324219 61.867188 732.761719 63.144531 733.847656 62.078125 "/>
<path fill-rule="nonzero" fill="rgb(41.568627%, 23.921569%, 60.392157%)" fill-opacity="1" d="M 738.945312 57.085938 L 735.46875 63.734375 L 732.226562 60.421875 L 738.945312 57.085938 "/>
<path fill="none" stroke-width="1.5" stroke-linecap="butt" stroke-linejoin="miter" stroke="rgb(98.431373%, 60.392157%, 60%)" stroke-opacity="1" stroke-miterlimit="10" d="M 728.882812 60.644531 C 729.136719 62.640625 731.09375 63.777344 731.761719 65.335938 "/>
<path fill-rule="nonzero" fill="rgb(98.431373%, 60.392157%, 60%)" fill-opacity="1" d="M 728.953125 58.777344 L 733.890625 64.421875 L 729.628906 66.246094 L 728.953125 58.777344 "/>
<path fill="none" stroke-width="1.5" stroke-linecap="butt" stroke-linejoin="miter" stroke="rgb(41.568627%, 23.921569%, 60.392157%)" stroke-opacity="1" stroke-miterlimit="10" d="M 740.902344 55.167969 C 740.957031 56.285156 742.21875 57.976562 742.292969 57.898438 "/>
<path fill-rule="nonzero" fill="rgb(41.568627%, 23.921569%, 60.392157%)" fill-opacity="1" d="M 747.273438 52.792969 L 743.953125 59.515625 L 740.632812 56.28125 L 747.273438 52.792969 "/>
<path fill="none" stroke-width="1.5" stroke-linecap="butt" stroke-linejoin="miter" stroke="rgb(98.431373%, 60.392157%, 60%)" stroke-opacity="1" stroke-miterlimit="10" d="M 727.851562 56.210938 C 727.011719 58.238281 728.148438 60.300781 728.035156 62.210938 "/>
<path fill-rule="nonzero" fill="rgb(98.431373%, 60.392157%, 60%)" fill-opacity="1" d="M 728.460938 55.089844 L 730.347656 62.347656 L 725.71875 62.074219 L 728.460938 55.089844 "/>
<path fill="none" stroke-width="1.5" stroke-linecap="butt" stroke-linejoin="miter" stroke="rgb(98.431373%, 60.392157%, 60%)" stroke-opacity="1" stroke-miterlimit="10" d="M 622.105469 141 C 619.984375 140.5 616.984375 140.429688 616.253906 142.132812 "/>
<path fill-rule="nonzero" fill="rgb(98.431373%, 60.392157%, 60%)" fill-opacity="1" d="M 613.441406 148.691406 L 614.121094 141.222656 L 618.382812 143.046875 L 613.441406 148.691406 "/>
<path fill="none" stroke-width="1.5" stroke-linecap="butt" stroke-linejoin="miter" stroke="rgb(41.568627%, 23.921569%, 60.392157%)" stroke-opacity="1" stroke-miterlimit="10" d="M 622.105469 141 C 625.886719 140.921875 630.039062 139.882812 631.453125 136.5625 "/>
<path fill-rule="nonzero" fill="rgb(41.568627%, 23.921569%, 60.392157%)" fill-opacity="1" d="M 634.25 130 L 633.585938 137.46875 L 629.324219 135.652344 L 634.25 130 "/>
<path fill="none" stroke-width="1.5" stroke-linecap="butt" stroke-linejoin="miter" stroke="rgb(98.431373%, 60.392157%, 60%)" stroke-opacity="1" stroke-miterlimit="10" d="M 647.3125 119.421875 C 652.785156 119.863281 658.46875 118.828125 661.460938 114.375 "/>
<path fill-rule="nonzero" fill="rgb(98.431373%, 60.392157%, 60%)" fill-opacity="1" d="M 665.441406 108.453125 L 663.386719 115.667969 L 659.539062 113.082031 L 665.441406 108.453125 "/>
<path fill="none" stroke-width="1.5" stroke-linecap="butt" stroke-linejoin="miter" stroke="rgb(98.431373%, 60.392157%, 60%)" stroke-opacity="1" stroke-miterlimit="10" d="M 626.921875 135.117188 C 633.117188 135.042969 639.21875 133.234375 642.300781 127.976562 "/>
<path fill-rule="nonzero" fill="rgb(98.431373%, 60.392157%, 60%)" fill-opacity="1" d="M 645.90625 121.820312 L 644.300781 129.148438 L 640.300781 126.804688 L 645.90625 121.820312 "/>
<path fill="none" stroke-width="2.5" stroke-linecap="butt" stroke-linejoin="miter" stroke="rgb(70.196078%, 70.196078%, 70.196078%)" stroke-opacity="1" stroke-miterlimit="10" d="M 611.238281 153.832031 C 613.632812 154.195312 616.820312 154.027344 617.625 152.042969 "/>
<path fill-rule="nonzero" fill="rgb(70.196078%, 70.196078%, 70.196078%)" fill-opacity="1" d="M 620.304688 145.433594 L 619.773438 152.914062 L 615.476562 151.171875 L 620.304688 145.433594 "/>
<path fill="none" stroke-width="1.5" stroke-linecap="butt" stroke-linejoin="miter" stroke="rgb(98.431373%, 60.392157%, 60%)" stroke-opacity="1" stroke-miterlimit="10" d="M 611.238281 153.832031 C 616.835938 152.628906 622.113281 149.878906 623.851562 144.542969 "/>
<path fill-rule="nonzero" fill="rgb(98.431373%, 60.392157%, 60%)" fill-opacity="1" d="M 626.058594 137.761719 L 626.054688 145.261719 L 621.648438 143.824219 L 626.058594 137.761719 "/>
<path fill="none" stroke-width="1.5" stroke-linecap="butt" stroke-linejoin="miter" stroke="rgb(12.156863%, 47.058824%, 70.588235%)" stroke-opacity="1" stroke-miterlimit="10" d="M 74.554688 734.039062 C 74.9375 735.808594 76.085938 738.246094 77.496094 738.03125 "/>
<path fill-rule="nonzero" fill="rgb(12.156863%, 47.058824%, 70.588235%)" fill-opacity="1" d="M 84.546875 736.957031 L 77.84375 740.320312 L 77.144531 735.738281 L 84.546875 736.957031 "/>
<path fill="none" stroke-width="2.5" stroke-linecap="butt" stroke-linejoin="miter" stroke="rgb(70.196078%, 70.196078%, 70.196078%)" stroke-opacity="1" stroke-miterlimit="10" d="M 579.441406 219.292969 C 572.835938 223.5625 567.777344 229.578125 567.757812 237.355469 "/>
<path fill-rule="nonzero" fill="rgb(70.196078%, 70.196078%, 70.196078%)" fill-opacity="1" d="M 567.742188 244.488281 L 565.441406 237.347656 L 570.078125 237.359375 L 567.742188 244.488281 "/>
<path fill="none" stroke-width="2.5" stroke-linecap="butt" stroke-linejoin="miter" stroke="rgb(70.196078%, 70.196078%, 70.196078%)" stroke-opacity="1" stroke-miterlimit="10" d="M 579.441406 219.292969 C 587.257812 214.070312 592.972656 206.8125 593.078125 197.480469 "/>
<path fill-rule="nonzero" fill="rgb(70.196078%, 70.196078%, 70.196078%)" fill-opacity="1" d="M 593.160156 190.347656 L 595.394531 197.507812 L 590.761719 197.453125 L 593.160156 190.347656 "/>
<path fill="none" stroke-width="1.5" stroke-linecap="butt" stroke-linejoin="miter" stroke="rgb(12.156863%, 47.058824%, 70.588235%)" stroke-opacity="1" stroke-miterlimit="10" d="M 105.855469 741.269531 C 105.1875 742.171875 105.023438 744.285156 105.207031 744.273438 "/>
<path fill-rule="nonzero" fill="rgb(12.156863%, 47.058824%, 70.588235%)" fill-opacity="1" d="M 112.332031 743.9375 L 105.3125 746.589844 L 105.097656 741.960938 L 112.332031 743.9375 "/>
<path fill="none" stroke-width="2.5" stroke-linecap="butt" stroke-linejoin="miter" stroke="rgb(70.196078%, 70.196078%, 70.196078%)" stroke-opacity="1" stroke-miterlimit="10" d="M 571.226562 331.859375 C 569.988281 336.621094 569.957031 341.902344 573.484375 345.136719 "/>
<path fill-rule="nonzero" fill="rgb(70.196078%, 70.196078%, 70.196078%)" fill-opacity="1" d="M 578.738281 349.960938 L 571.917969 346.84375 L 575.050781 343.429688 L 578.738281 349.960938 "/>
<path fill="none" stroke-width="1.5" stroke-linecap="butt" stroke-linejoin="miter" stroke="rgb(12.156863%, 47.058824%, 70.588235%)" stroke-opacity="1" stroke-miterlimit="10" d="M 87.253906 736.542969 C 86.738281 737.582031 86.792969 739.742188 87.125 739.714844 "/>
<path fill-rule="nonzero" fill="rgb(12.156863%, 47.058824%, 70.588235%)" fill-opacity="1" d="M 94.230469 739.082031 L 87.332031 742.023438 L 86.917969 737.40625 L 94.230469 739.082031 "/>
<path fill="none" stroke-width="1.5" stroke-linecap="butt" stroke-linejoin="miter" stroke="rgb(12.156863%, 47.058824%, 70.588235%)" stroke-opacity="1" stroke-miterlimit="10" d="M 96.9375 738.839844 C 96.148438 739.621094 95.828125 741.671875 95.847656 741.671875 "/>
<path fill-rule="nonzero" fill="rgb(12.156863%, 47.058824%, 70.588235%)" fill-opacity="1" d="M 102.972656 741.382812 L 95.941406 743.988281 L 95.753906 739.355469 L 102.972656 741.382812 "/>
<path fill="none" stroke-width="1.5" stroke-linecap="butt" stroke-linejoin="miter" stroke="rgb(12.156863%, 47.058824%, 70.588235%)" stroke-opacity="1" stroke-miterlimit="10" d="M 64.65625 731.917969 C 64.207031 733.007812 64.371094 735.1875 64.765625 735.144531 "/>
<path fill-rule="nonzero" fill="rgb(12.156863%, 47.058824%, 70.588235%)" fill-opacity="1" d="M 71.855469 734.34375 L 65.027344 737.449219 L 64.503906 732.839844 L 71.855469 734.34375 "/>
<path fill="none" stroke-width="2.5" stroke-linecap="butt" stroke-linejoin="miter" stroke="rgb(70.196078%, 70.196078%, 70.196078%)" stroke-opacity="1" stroke-miterlimit="10" d="M 563.175781 278.554688 C 558.976562 283.636719 556.285156 289.816406 558.402344 295.953125 "/>
<path fill-rule="nonzero" fill="rgb(70.196078%, 70.196078%, 70.196078%)" fill-opacity="1" d="M 560.726562 302.699219 L 556.210938 296.710938 L 560.59375 295.199219 L 560.726562 302.699219 "/>
<path fill="none" stroke-width="1.5" stroke-linecap="butt" stroke-linejoin="miter" stroke="rgb(12.156863%, 47.058824%, 70.588235%)" stroke-opacity="1" stroke-miterlimit="10" d="M 50 733.226562 C 49.230469 734.144531 49.515625 736.140625 49.117188 736.382812 "/>
<path fill-rule="nonzero" fill="rgb(12.156863%, 47.058824%, 70.588235%)" fill-opacity="1" d="M 55.195312 732.652344 L 50.328125 738.359375 L 47.902344 734.410156 L 55.195312 732.652344 "/>
<path fill="none" stroke-width="2.5" stroke-linecap="butt" stroke-linejoin="miter" stroke="rgb(70.196078%, 70.196078%, 70.196078%)" stroke-opacity="1" stroke-miterlimit="10" d="M 591.683594 372.957031 C 591.871094 378.042969 593.417969 383.234375 597.859375 385.429688 "/>
<path fill-rule="nonzero" fill="rgb(70.196078%, 70.196078%, 70.196078%)" fill-opacity="1" d="M 604.253906 388.589844 L 596.832031 387.507812 L 598.882812 383.351562 L 604.253906 388.589844 "/>
<path fill="none" stroke-width="1.5" stroke-linecap="butt" stroke-linejoin="miter" stroke="rgb(12.156863%, 47.058824%, 70.588235%)" stroke-opacity="1" stroke-miterlimit="10" d="M 57.636719 731.152344 C 56.335938 731.507812 55.566406 733.378906 54.796875 733.5 "/>
<path fill-rule="nonzero" fill="rgb(12.156863%, 47.058824%, 70.588235%)" fill-opacity="1" d="M 61.839844 732.367188 L 55.164062 735.789062 L 54.429688 731.214844 L 61.839844 732.367188 "/>
<path fill="none" stroke-width="2.5" stroke-linecap="butt" stroke-linejoin="miter" stroke="rgb(70.196078%, 70.196078%, 70.196078%)" stroke-opacity="1" stroke-miterlimit="10" d="M 582.304688 353.234375 C 580.917969 357.128906 580.410156 361.703125 583.222656 364.507812 "/>
<path fill-rule="nonzero" fill="rgb(70.196078%, 70.196078%, 70.196078%)" fill-opacity="1" d="M 588.269531 369.546875 L 581.582031 366.148438 L 584.859375 362.867188 L 588.269531 369.546875 "/>
<path fill="none" stroke-width="1.5" stroke-linecap="butt" stroke-linejoin="miter" stroke="rgb(12.156863%, 47.058824%, 70.588235%)" stroke-opacity="1" stroke-miterlimit="10" d="M 123.84375 747.425781 C 122.25 746.808594 120.460938 747.960938 119.171875 747.683594 "/>
<path fill-rule="nonzero" fill="rgb(12.156863%, 47.058824%, 70.588235%)" fill-opacity="1" d="M 126.140625 749.191406 L 118.679688 749.945312 L 119.660156 745.417969 L 126.140625 749.191406 "/>
<path fill="none" stroke-width="2.5" stroke-linecap="butt" stroke-linejoin="miter" stroke="rgb(70.196078%, 70.196078%, 70.196078%)" stroke-opacity="1" stroke-miterlimit="10" d="M 567.730469 249.363281 C 562.761719 254.125 559.277344 260.183594 560.6875 266.816406 "/>
<path fill-rule="nonzero" fill="rgb(70.196078%, 70.196078%, 70.196078%)" fill-opacity="1" d="M 562.167969 273.792969 L 558.417969 267.296875 L 562.953125 266.335938 L 562.167969 273.792969 "/>
<path fill="none" stroke-width="2.5" stroke-linecap="butt" stroke-linejoin="miter" stroke="rgb(70.196078%, 70.196078%, 70.196078%)" stroke-opacity="1" stroke-miterlimit="10" d="M 562.3125 307.296875 C 560.382812 312.613281 559.886719 318.503906 563.46875 322.722656 "/>
<path fill-rule="nonzero" fill="rgb(70.196078%, 70.196078%, 70.196078%)" fill-opacity="1" d="M 568.085938 328.160156 L 561.703125 324.222656 L 565.234375 321.222656 L 568.085938 328.160156 "/>
<path fill="none" stroke-width="2.5" stroke-linecap="butt" stroke-linejoin="miter" stroke="rgb(70.196078%, 70.196078%, 70.196078%)" stroke-opacity="1" stroke-miterlimit="10" d="M 608.59375 390.734375 C 608.433594 394.652344 609.246094 398.996094 612.589844 400.691406 "/>
<path fill-rule="nonzero" fill="rgb(70.196078%, 70.196078%, 70.196078%)" fill-opacity="1" d="M 618.957031 403.910156 L 611.542969 402.757812 L 613.636719 398.621094 L 618.957031 403.910156 "/>
<path fill="none" stroke-width="1.5" stroke-linecap="butt" stroke-linejoin="miter" stroke="rgb(12.156863%, 47.058824%, 70.588235%)" stroke-opacity="1" stroke-miterlimit="10" d="M 115.039062 743.8125 C 114.222656 744.570312 113.742188 746.617188 113.855469 746.625 "/>
<path fill-rule="nonzero" fill="rgb(12.156863%, 47.058824%, 70.588235%)" fill-opacity="1" d="M 120.964844 747.195312 L 113.671875 748.9375 L 114.042969 744.316406 L 120.964844 747.195312 "/>
<path fill="none" stroke-width="2.5" stroke-linecap="butt" stroke-linejoin="miter" stroke="rgb(70.196078%, 70.196078%, 70.196078%)" stroke-opacity="1" stroke-miterlimit="10" d="M 593.214844 185.460938 C 601.496094 181.472656 608.050781 175.226562 609.394531 166.210938 "/>
<path fill-rule="nonzero" fill="rgb(70.196078%, 70.196078%, 70.196078%)" fill-opacity="1" d="M 610.445312 159.15625 L 611.6875 166.550781 L 607.101562 165.867188 L 610.445312 159.15625 "/>
<path fill="none" stroke-width="1.5" stroke-linecap="butt" stroke-linejoin="miter" stroke="rgb(41.568627%, 23.921569%, 60.392157%)" stroke-opacity="1" stroke-miterlimit="10" d="M 651.847656 115.050781 C 655.015625 115.996094 658.914062 116.300781 660.8125 113.847656 "/>
<path fill-rule="nonzero" fill="rgb(41.568627%, 23.921569%, 60.392157%)" fill-opacity="1" d="M 665.179688 108.207031 L 662.644531 115.269531 L 658.980469 112.429688 L 665.179688 108.207031 "/>
<path fill="none" stroke-width="1.5" stroke-linecap="butt" stroke-linejoin="miter" stroke="rgb(41.568627%, 23.921569%, 60.392157%)" stroke-opacity="1" stroke-miterlimit="10" d="M 635.335938 127.457031 C 639.707031 127.832031 644.441406 127.097656 646.660156 123.488281 "/>
<path fill-rule="nonzero" fill="rgb(41.568627%, 23.921569%, 60.392157%)" fill-opacity="1" d="M 650.398438 117.414062 L 648.632812 124.703125 L 644.6875 122.273438 L 650.398438 117.414062 "/>
<path fill-rule="nonzero" fill="rgb(14.901961%, 14.901961%, 14.901961%)" fill-opacity="1" stroke-width="1" stroke-linecap="butt" stroke-linejoin="miter" stroke="rgb(14.901961%, 14.901961%, 14.901961%)" stroke-opacity="1" stroke-miterlimit="10" d="M 626.308594 422.535156 L 632.65625 409.835938 L 639.007812 422.535156 Z M 626.308594 422.535156 "/>
<path fill-rule="nonzero" fill="rgb(99.215686%, 74.901961%, 43.529412%)" fill-opacity="1" stroke-width="1" stroke-linecap="butt" stroke-linejoin="miter" stroke="rgb(99.215686%, 74.901961%, 43.529412%)" stroke-opacity="1" stroke-miterlimit="10" d="M 629.960938 411.5 C 629.960938 415.167969 624.460938 415.167969 624.460938 411.5 C 624.460938 407.835938 629.960938 407.835938 629.960938 411.5 "/>
<path fill-rule="nonzero" fill="rgb(70.196078%, 70.196078%, 70.196078%)" fill-opacity="1" stroke-width="1" stroke-linecap="butt" stroke-linejoin="miter" stroke="rgb(70.196078%, 70.196078%, 70.196078%)" stroke-opacity="1" stroke-miterlimit="10" d="M 628.109375 406.085938 C 628.109375 412.554688 618.410156 412.554688 618.410156 406.085938 C 618.410156 399.621094 628.109375 399.621094 628.109375 406.085938 "/>
<path fill-rule="nonzero" fill="rgb(70.196078%, 70.196078%, 70.196078%)" fill-opacity="1" stroke-width="1" stroke-linecap="butt" stroke-linejoin="miter" stroke="rgb(70.196078%, 70.196078%, 70.196078%)" stroke-opacity="1" stroke-miterlimit="10" d="M 710.054688 77.050781 C 710.054688 83.515625 700.351562 83.515625 700.351562 77.050781 C 700.351562 70.582031 710.054688 70.582031 710.054688 77.050781 "/>
<path fill-rule="nonzero" fill="rgb(14.901961%, 14.901961%, 14.901961%)" fill-opacity="1" stroke-width="1" stroke-linecap="butt" stroke-linejoin="miter" stroke="rgb(14.901961%, 14.901961%, 14.901961%)" stroke-opacity="1" stroke-miterlimit="10" d="M 724.933594 55.074219 L 728.683594 47.574219 L 732.433594 55.074219 Z M 724.933594 55.074219 "/>
<path fill-rule="nonzero" fill="rgb(70.196078%, 70.196078%, 70.196078%)" fill-opacity="1" stroke-width="1" stroke-linecap="butt" stroke-linejoin="miter" stroke="rgb(70.196078%, 70.196078%, 70.196078%)" stroke-opacity="1" stroke-miterlimit="10" d="M 673.769531 104.023438 C 673.769531 111.15625 663.070312 111.15625 663.070312 104.023438 C 663.070312 96.890625 673.769531 96.890625 673.769531 104.023438 "/>
<path fill-rule="nonzero" fill="rgb(14.901961%, 14.901961%, 14.901961%)" fill-opacity="1" stroke-width="1" stroke-linecap="butt" stroke-linejoin="miter" stroke="rgb(14.901961%, 14.901961%, 14.901961%)" stroke-opacity="1" stroke-miterlimit="10" d="M 746.25 53.75 L 750 46.25 L 753.75 53.75 Z M 746.25 53.75 "/>
<path fill-rule="nonzero" fill="rgb(41.568627%, 23.921569%, 60.392157%)" fill-opacity="1" stroke-width="1" stroke-linecap="butt" stroke-linejoin="miter" stroke="rgb(41.568627%, 23.921569%, 60.392157%)" stroke-opacity="1" stroke-miterlimit="10" d="M 721.34375 68.777344 C 721.34375 72.445312 715.84375 72.445312 715.84375 68.777344 C 715.84375 65.109375 721.34375 65.109375 721.34375 68.777344 "/>
<path fill-rule="nonzero" fill="rgb(70.196078%, 70.196078%, 70.196078%)" fill-opacity="1" stroke-width="1" stroke-linecap="butt" stroke-linejoin="miter" stroke="rgb(70.196078%, 70.196078%, 70.196078%)" stroke-opacity="1" stroke-miterlimit="10" d="M 734.234375 60.644531 C 734.234375 67.777344 723.53125 67.777344 723.53125 60.644531 C 723.53125 53.511719 734.234375 53.511719 734.234375 60.644531 "/>
<path fill-rule="nonzero" fill="rgb(41.568627%, 23.921569%, 60.392157%)" fill-opacity="1" stroke-width="1" stroke-linecap="butt" stroke-linejoin="miter" stroke="rgb(41.568627%, 23.921569%, 60.392157%)" stroke-opacity="1" stroke-miterlimit="10" d="M 743.652344 55.167969 C 743.652344 58.835938 738.152344 58.835938 738.152344 55.167969 C 738.152344 51.5 743.652344 51.5 743.652344 55.167969 "/>
<path fill-rule="nonzero" fill="rgb(98.431373%, 60.392157%, 60%)" fill-opacity="1" stroke-width="1" stroke-linecap="butt" stroke-linejoin="miter" stroke="rgb(98.431373%, 60.392157%, 60%)" stroke-opacity="1" stroke-miterlimit="10" d="M 730.601562 56.210938 C 730.601562 59.878906 725.101562 59.878906 725.101562 56.210938 C 725.101562 52.542969 730.601562 52.542969 730.601562 56.210938 "/>
<path fill-rule="nonzero" fill="rgb(70.196078%, 70.196078%, 70.196078%)" fill-opacity="1" stroke-width="1" stroke-linecap="butt" stroke-linejoin="miter" stroke="rgb(70.196078%, 70.196078%, 70.196078%)" stroke-opacity="1" stroke-miterlimit="10" d="M 626.957031 141 C 626.957031 147.46875 617.253906 147.46875 617.253906 141 C 617.253906 134.535156 626.957031 134.535156 626.957031 141 "/>
<path fill-rule="nonzero" fill="rgb(98.431373%, 60.392157%, 60%)" fill-opacity="1" stroke-width="1" stroke-linecap="butt" stroke-linejoin="miter" stroke="rgb(98.431373%, 60.392157%, 60%)" stroke-opacity="1" stroke-miterlimit="10" d="M 650.0625 119.421875 C 650.0625 123.089844 644.5625 123.089844 644.5625 119.421875 C 644.5625 115.753906 650.0625 115.753906 650.0625 119.421875 "/>
<path fill-rule="nonzero" fill="rgb(98.431373%, 60.392157%, 60%)" fill-opacity="1" stroke-width="1" stroke-linecap="butt" stroke-linejoin="miter" stroke="rgb(98.431373%, 60.392157%, 60%)" stroke-opacity="1" stroke-miterlimit="10" d="M 629.671875 135.117188 C 629.671875 138.785156 624.171875 138.785156 624.171875 135.117188 C 624.171875 131.449219 629.671875 131.449219 629.671875 135.117188 "/>
<path fill-rule="nonzero" fill="rgb(70.196078%, 70.196078%, 70.196078%)" fill-opacity="1" stroke-width="1" stroke-linecap="butt" stroke-linejoin="miter" stroke="rgb(70.196078%, 70.196078%, 70.196078%)" stroke-opacity="1" stroke-miterlimit="10" d="M 616.585938 153.832031 C 616.585938 160.964844 605.886719 160.964844 605.886719 153.832031 C 605.886719 146.699219 616.585938 146.699219 616.585938 153.832031 "/>
<path fill-rule="nonzero" fill="rgb(12.156863%, 47.058824%, 70.588235%)" fill-opacity="1" stroke-width="1" stroke-linecap="butt" stroke-linejoin="miter" stroke="rgb(12.156863%, 47.058824%, 70.588235%)" stroke-opacity="1" stroke-miterlimit="10" d="M 77.304688 734.039062 C 77.304688 737.707031 71.804688 737.707031 71.804688 734.039062 C 71.804688 730.371094 77.304688 730.371094 77.304688 734.039062 "/>
<path fill-rule="nonzero" fill="rgb(100%, 84.313725%, 0%)" fill-opacity="1" stroke-width="1" stroke-linecap="butt" stroke-linejoin="miter" stroke="rgb(100%, 84.313725%, 0%)" stroke-opacity="1" stroke-miterlimit="10" d="M 574.089844 213.945312 L 584.789062 213.945312 L 584.789062 224.644531 L 574.089844 224.644531 Z M 574.089844 213.945312 "/>
<path fill-rule="nonzero" fill="rgb(12.156863%, 47.058824%, 70.588235%)" fill-opacity="1" stroke-width="1" stroke-linecap="butt" stroke-linejoin="miter" stroke="rgb(12.156863%, 47.058824%, 70.588235%)" stroke-opacity="1" stroke-miterlimit="10" d="M 108.605469 741.269531 C 108.605469 744.933594 103.105469 744.933594 103.105469 741.269531 C 103.105469 737.601562 108.605469 737.601562 108.605469 741.269531 "/>
<path fill-rule="nonzero" fill="rgb(70.196078%, 70.196078%, 70.196078%)" fill-opacity="1" stroke-width="1" stroke-linecap="butt" stroke-linejoin="miter" stroke="rgb(70.196078%, 70.196078%, 70.196078%)" stroke-opacity="1" stroke-miterlimit="10" d="M 576.078125 331.859375 C 576.078125 338.324219 566.378906 338.324219 566.378906 331.859375 C 566.378906 325.390625 576.078125 325.390625 576.078125 331.859375 "/>
<path fill-rule="nonzero" fill="rgb(12.156863%, 47.058824%, 70.588235%)" fill-opacity="1" stroke-width="1" stroke-linecap="butt" stroke-linejoin="miter" stroke="rgb(12.156863%, 47.058824%, 70.588235%)" stroke-opacity="1" stroke-miterlimit="10" d="M 90.003906 736.542969 C 90.003906 740.210938 84.503906 740.210938 84.503906 736.542969 C 84.503906 732.875 90.003906 732.875 90.003906 736.542969 "/>
<path fill-rule="nonzero" fill="rgb(12.156863%, 47.058824%, 70.588235%)" fill-opacity="1" stroke-width="1" stroke-linecap="butt" stroke-linejoin="miter" stroke="rgb(12.156863%, 47.058824%, 70.588235%)" stroke-opacity="1" stroke-miterlimit="10" d="M 99.6875 738.839844 C 99.6875 742.507812 94.1875 742.507812 94.1875 738.839844 C 94.1875 735.171875 99.6875 735.171875 99.6875 738.839844 "/>
<path fill-rule="nonzero" fill="rgb(12.156863%, 47.058824%, 70.588235%)" fill-opacity="1" stroke-width="1" stroke-linecap="butt" stroke-linejoin="miter" stroke="rgb(12.156863%, 47.058824%, 70.588235%)" stroke-opacity="1" stroke-miterlimit="10" d="M 67.40625 731.917969 C 67.40625 735.582031 61.90625 735.582031 61.90625 731.917969 C 61.90625 728.25 67.40625 728.25 67.40625 731.917969 "/>
<path fill-rule="nonzero" fill="rgb(70.196078%, 70.196078%, 70.196078%)" fill-opacity="1" stroke-width="1" stroke-linecap="butt" stroke-linejoin="miter" stroke="rgb(70.196078%, 70.196078%, 70.196078%)" stroke-opacity="1" stroke-miterlimit="10" d="M 568.027344 278.554688 C 568.027344 285.019531 558.328125 285.019531 558.328125 278.554688 C 558.328125 272.085938 568.027344 272.085938 568.027344 278.554688 "/>
<path fill-rule="nonzero" fill="rgb(100%, 84.313725%, 0%)" fill-opacity="1" stroke-width="1" stroke-linecap="butt" stroke-linejoin="miter" stroke="rgb(100%, 84.313725%, 0%)" stroke-opacity="1" stroke-miterlimit="10" d="M 46.75 729.976562 L 53.25 729.976562 L 53.25 736.476562 L 46.75 736.476562 Z M 46.75 729.976562 "/>
<path fill-rule="nonzero" fill="rgb(70.196078%, 70.196078%, 70.196078%)" fill-opacity="1" stroke-width="1" stroke-linecap="butt" stroke-linejoin="miter" stroke="rgb(70.196078%, 70.196078%, 70.196078%)" stroke-opacity="1" stroke-miterlimit="10" d="M 596.535156 372.957031 C 596.535156 379.425781 586.835938 379.425781 586.835938 372.957031 C 586.835938 366.492188 596.535156 366.492188 596.535156 372.957031 "/>
<path fill-rule="nonzero" fill="rgb(12.156863%, 47.058824%, 70.588235%)" fill-opacity="1" stroke-width="1" stroke-linecap="butt" stroke-linejoin="miter" stroke="rgb(12.156863%, 47.058824%, 70.588235%)" stroke-opacity="1" stroke-miterlimit="10" d="M 60.386719 731.152344 C 60.386719 734.816406 54.886719 734.816406 54.886719 731.152344 C 54.886719 727.484375 60.386719 727.484375 60.386719 731.152344 "/>
<path fill-rule="nonzero" fill="rgb(70.196078%, 70.196078%, 70.196078%)" fill-opacity="1" stroke-width="1" stroke-linecap="butt" stroke-linejoin="miter" stroke="rgb(70.196078%, 70.196078%, 70.196078%)" stroke-opacity="1" stroke-miterlimit="10" d="M 587.15625 353.234375 C 587.15625 359.699219 577.453125 359.699219 577.453125 353.234375 C 577.453125 346.769531 587.15625 346.769531 587.15625 353.234375 "/>
<path fill-rule="nonzero" fill="rgb(12.156863%, 47.058824%, 70.588235%)" fill-opacity="1" stroke-width="1" stroke-linecap="butt" stroke-linejoin="miter" stroke="rgb(12.156863%, 47.058824%, 70.588235%)" stroke-opacity="1" stroke-miterlimit="10" d="M 126.59375 747.425781 C 126.59375 751.089844 121.09375 751.089844 121.09375 747.425781 C 121.09375 743.757812 126.59375 743.757812 126.59375 747.425781 "/>
<path fill-rule="nonzero" fill="rgb(70.196078%, 70.196078%, 70.196078%)" fill-opacity="1" stroke-width="1" stroke-linecap="butt" stroke-linejoin="miter" stroke="rgb(70.196078%, 70.196078%, 70.196078%)" stroke-opacity="1" stroke-miterlimit="10" d="M 572.578125 249.363281 C 572.578125 255.828125 562.878906 255.828125 562.878906 249.363281 C 562.878906 242.894531 572.578125 242.894531 572.578125 249.363281 "/>
<path fill-rule="nonzero" fill="rgb(70.196078%, 70.196078%, 70.196078%)" fill-opacity="1" stroke-width="1" stroke-linecap="butt" stroke-linejoin="miter" stroke="rgb(70.196078%, 70.196078%, 70.196078%)" stroke-opacity="1" stroke-miterlimit="10" d="M 567.160156 307.296875 C 567.160156 313.761719 557.460938 313.761719 557.460938 307.296875 C 557.460938 300.828125 567.160156 300.828125 567.160156 307.296875 "/>
<path fill-rule="nonzero" fill="rgb(14.901961%, 14.901961%, 14.901961%)" fill-opacity="1" stroke-width="1" stroke-linecap="butt" stroke-linejoin="miter" stroke="rgb(14.901961%, 14.901961%, 14.901961%)" stroke-opacity="1" stroke-miterlimit="10" d="M 126.125 753.75 L 129.875 746.25 L 133.625 753.75 Z M 126.125 753.75 "/>
<path fill-rule="nonzero" fill="rgb(70.196078%, 70.196078%, 70.196078%)" fill-opacity="1" stroke-width="1" stroke-linecap="butt" stroke-linejoin="miter" stroke="rgb(70.196078%, 70.196078%, 70.196078%)" stroke-opacity="1" stroke-miterlimit="10" d="M 613.445312 390.734375 C 613.445312 397.203125 603.742188 397.203125 603.742188 390.734375 C 603.742188 384.269531 613.445312 384.269531 613.445312 390.734375 "/>
<path fill-rule="nonzero" fill="rgb(12.156863%, 47.058824%, 70.588235%)" fill-opacity="1" stroke-width="1" stroke-linecap="butt" stroke-linejoin="miter" stroke="rgb(12.156863%, 47.058824%, 70.588235%)" stroke-opacity="1" stroke-miterlimit="10" d="M 117.789062 743.8125 C 117.789062 747.476562 112.289062 747.476562 112.289062 743.8125 C 112.289062 740.144531 117.789062 740.144531 117.789062 743.8125 "/>
<path fill-rule="nonzero" fill="rgb(70.196078%, 70.196078%, 70.196078%)" fill-opacity="1" stroke-width="1" stroke-linecap="butt" stroke-linejoin="miter" stroke="rgb(70.196078%, 70.196078%, 70.196078%)" stroke-opacity="1" stroke-miterlimit="10" d="M 598.066406 185.460938 C 598.066406 191.929688 588.363281 191.929688 588.363281 185.460938 C 588.363281 178.996094 598.066406 178.996094 598.066406 185.460938 "/>
<path fill-rule="nonzero" fill="rgb(41.568627%, 23.921569%, 60.392157%)" fill-opacity="1" stroke-width="1" stroke-linecap="butt" stroke-linejoin="miter" stroke="rgb(41.568627%, 23.921569%, 60.392157%)" stroke-opacity="1" stroke-miterlimit="10" d="M 654.597656 115.050781 C 654.597656 118.71875 649.097656 118.71875 649.097656 115.050781 C 649.097656 111.386719 654.597656 111.386719 654.597656 115.050781 "/>
<path fill-rule="nonzero" fill="rgb(41.568627%, 23.921569%, 60.392157%)" fill-opacity="1" stroke-width="1" stroke-linecap="butt" stroke-linejoin="miter" stroke="rgb(41.568627%, 23.921569%, 60.392157%)" stroke-opacity="1" stroke-miterlimit="10" d="M 638.085938 127.457031 C 638.085938 131.121094 632.585938 131.121094 632.585938 127.457031 C 632.585938 123.789062 638.085938 123.789062 638.085938 127.457031 "/>
</svg>
