<?xml version="1.0" encoding="UTF-8"?>
<svg xmlns="http://www.w3.org/2000/svg" xmlns:xlink="http://www.w3.org/1999/xlink" width="800" height="800" viewBox="0 0 800 800">
<rect x="-80" y="-80" width="960" height="960" fill="rgb(100%, 100%, 100%)" fill-opacity="1"/>
<path fill="none" stroke-width="1.5" stroke-linecap="butt" stroke-linejoin="miter" stroke="rgb(99.215686%, 74.901961%, 43.529412%)" stroke-opacity="1" stroke-miterlimit="10" d="M 748.953125 349.683594 C 749.574219 351.695312 751.734375 352.519531 752.765625 354.007812 "/>
<path fill-rule="nonzero" fill="rgb(99.215686%, 74.901961%, 43.529412%)" fill-opacity="1" d="M 748.695312 348.148438 L 754.667969 352.683594 L 750.863281 355.332031 L 748.695312 348.148438 "/>
<path fill="none" stroke-width="1.5" stroke-linecap="butt" stroke-linejoin="miter" stroke="rgb(99.215686%, 74.901961%, 43.529412%)" stroke-opacity="1" stroke-miterlimit="10" d="M 750 353.683594 C 750.1875 355.816406 752.132812 357.09375 752.863281 358.792969 "/>
<path fill-rule="nonzero" fill="rgb(99.215686%, 74.901961%, 43.529412%)" fill-opacity="1" d="M 750.050781 352.238281 L 754.992188 357.878906 L 750.734375 359.707031 L 750.050781 352.238281 "/>
<path fill="none" stroke-width="1.5" stroke-linecap="butt" stroke-linejoin="miter" stroke="rgb(99.215686%, 74.901961%, 43.529412%)" stroke-opacity="1" stroke-miterlimit="10" d="M 747.109375 345.863281 C 749.265625 346.648438 751.34375 345.417969 753.375 345.398438 "/>
<path fill-rule="nonzero" fill="rgb(99.215686%, 74.901961%, 43.529412%)" fill-opacity="1" d="M 746.242188 345.46875 L 753.351562 343.078125 L 753.398438 347.714844 L 746.242188 345.46875 "/>
<path fill="none" stroke-width="1.5" stroke-linecap="butt" stroke-linejoin="miter" stroke="rgb(99.215686%, 74.901961%, 43.529412%)" stroke-opacity="1" stroke-miterlimit="10" d="M 743.472656 345.496094 C 743.671875 343.109375 741.917969 341.363281 741.289062 339.316406 "/>
<path fill-rule="nonzero" fill="rgb(99.215686%, 74.901961%, 43.529412%)" fill-opacity="1" d="M 743.386719 346.132812 L 739.074219 340 L 743.503906 338.632812 L 743.386719 346.132812 "/>
<path fill="none" stroke-width="1.5" stroke-linecap="butt" stroke-linejoin="miter" stroke="rgb(99.215686%, 74.901961%, 43.529412%)" stroke-opacity="1" stroke-miterlimit="10" d="M 740.6875 346.464844 C 742.945312 345.160156 743.464844 342.605469 744.855469 340.675781 "/>
<path fill-rule="nonzero" fill="rgb(99.215686%, 74.901961%, 43.529412%)" fill-opacity="1" d="M 740.6875 346.464844 L 742.972656 339.320312 L 746.734375 342.027344 L 740.6875 346.464844 "/>
<path fill="none" stroke-width="1.5" stroke-linecap="butt" stroke-linejoin="miter" stroke="rgb(99.215686%, 74.901961%, 43.529412%)" stroke-opacity="1" stroke-miterlimit="10" d="M 744.199219 348.769531 C 745.765625 350.199219 748.054688 349.816406 749.714844 350.570312 "/>
<path fill-rule="nonzero" fill="rgb(99.215686%, 74.901961%, 43.529412%)" fill-opacity="1" d="M 743.222656 347.617188 L 750.675781 348.460938 L 748.753906 352.679688 L 743.222656 347.617188 "/>
<path fill="none" stroke-width="1.5" stroke-linecap="butt" stroke-linejoin="miter" stroke="rgb(12.156863%, 47.058824%, 70.588235%)" stroke-opacity="1" stroke-miterlimit="10" d="M 209.390625 542.726562 C 210.421875 542.316406 211.527344 540.554688 211.5 540.542969 "/>
<path fill-rule="nonzero" fill="rgb(12.156863%, 47.058824%, 70.588235%)" fill-opacity="1" d="M 204.851562 537.96875 L 212.339844 538.382812 L 210.664062 542.707031 L 204.851562 537.96875 "/>
<path fill="none" stroke-width="1.5" stroke-linecap="butt" stroke-linejoin="miter" stroke="rgb(12.156863%, 47.058824%, 70.588235%)" stroke-opacity="1" stroke-miterlimit="10" d="M 177.292969 524.476562 C 176.71875 521.945312 175.355469 518.9375 173.019531 518.808594 "/>
<path fill-rule="nonzero" fill="rgb(12.156863%, 47.058824%, 70.588235%)" fill-opacity="1" d="M 165.894531 518.417969 L 173.144531 516.496094 L 172.890625 521.125 L 165.894531 518.417969 "/>
<path fill="none" stroke-width="1.5" stroke-linecap="butt" stroke-linejoin="miter" stroke="rgb(12.156863%, 47.058824%, 70.588235%)" stroke-opacity="1" stroke-miterlimit="10" d="M 190.703125 531.425781 C 190.367188 528.96875 189.304688 525.9375 187.105469 525.667969 "/>
<path fill-rule="nonzero" fill="rgb(12.156863%, 47.058824%, 70.588235%)" fill-opacity="1" d="M 180.027344 524.808594 L 187.386719 523.371094 L 186.828125 527.96875 L 180.027344 524.808594 "/>
<path fill="none" stroke-width="1.5" stroke-linecap="butt" stroke-linejoin="miter" stroke="rgb(98.431373%, 60.392157%, 60%)" stroke-opacity="1" stroke-miterlimit="10" d="M 367.453125 118.683594 C 373.726562 120.136719 380.292969 119.785156 384.738281 115.261719 "/>
<path fill-rule="nonzero" fill="rgb(98.431373%, 60.392157%, 60%)" fill-opacity="1" d="M 389.734375 110.171875 L 386.390625 116.886719 L 383.082031 113.636719 L 389.734375 110.171875 "/>
<path fill="none" stroke-width="1.5" stroke-linecap="butt" stroke-linejoin="miter" stroke="rgb(41.568627%, 23.921569%, 60.392157%)" stroke-opacity="1" stroke-miterlimit="10" d="M 312.652344 137.160156 C 305.191406 133.972656 297.171875 133.167969 290.457031 137.585938 "/>
<path fill-rule="nonzero" fill="rgb(41.568627%, 23.921569%, 60.392157%)" fill-opacity="1" d="M 284.5 141.503906 L 289.183594 135.648438 L 291.734375 139.519531 L 284.5 141.503906 "/>
<path fill="none" stroke-width="1.5" stroke-linecap="butt" stroke-linejoin="miter" stroke="rgb(98.431373%, 60.392157%, 60%)" stroke-opacity="1" stroke-miterlimit="10" d="M 312.652344 137.160156 C 320.113281 139.726562 327.96875 139.964844 334.148438 135.191406 "/>
<path fill-rule="nonzero" fill="rgb(98.431373%, 60.392157%, 60%)" fill-opacity="1" d="M 339.792969 130.828125 L 335.566406 137.023438 L 332.730469 133.355469 L 339.792969 130.828125 "/>
<path fill="none" stroke-width="1.5" stroke-linecap="butt" stroke-linejoin="miter" stroke="rgb(41.568627%, 23.921569%, 60.392157%)" stroke-opacity="1" stroke-miterlimit="10" d="M 253.199219 146.640625 C 246.640625 142.746094 239.226562 140.949219 232.464844 144.292969 "/>
<path fill-rule="nonzero" fill="rgb(41.568627%, 23.921569%, 60.392157%)" fill-opacity="1" d="M 226.070312 147.453125 L 231.4375 142.214844 L 233.492188 146.371094 L 226.070312 147.453125 "/>
<path fill="none" stroke-width="1.5" stroke-linecap="butt" stroke-linejoin="miter" stroke="rgb(12.156863%, 47.058824%, 70.588235%)" stroke-opacity="1" stroke-miterlimit="10" d="M 202.160156 536.925781 C 202.285156 535.183594 201.855469 532.578125 200.523438 532.441406 "/>
<path fill-rule="nonzero" fill="rgb(12.156863%, 47.058824%, 70.588235%)" fill-opacity="1" d="M 193.425781 531.707031 L 200.761719 530.136719 L 200.285156 534.746094 L 193.425781 531.707031 "/>
<path fill="none" stroke-width="1.5" stroke-linecap="butt" stroke-linejoin="miter" stroke="rgb(12.156863%, 47.058824%, 70.588235%)" stroke-opacity="1" stroke-miterlimit="10" d="M 146.25 511.714844 C 144.652344 508.488281 142.058594 505.28125 138.644531 505.460938 "/>
<path fill-rule="nonzero" fill="rgb(12.156863%, 47.058824%, 70.588235%)" fill-opacity="1" d="M 131.519531 505.835938 L 138.519531 503.148438 L 138.765625 507.777344 L 131.519531 505.835938 "/>
<path fill="none" stroke-width="1.5" stroke-linecap="butt" stroke-linejoin="miter" stroke="rgb(12.156863%, 47.058824%, 70.588235%)" stroke-opacity="1" stroke-miterlimit="10" d="M 214.242188 544.148438 C 216.015625 544.703125 217.792969 543.417969 219.296875 543.542969 "/>
<path fill-rule="nonzero" fill="rgb(12.156863%, 47.058824%, 70.588235%)" fill-opacity="1" d="M 212.1875 542.957031 L 219.488281 541.234375 L 219.105469 545.855469 L 212.1875 542.957031 "/>
<path fill="none" stroke-width="1.5" stroke-linecap="butt" stroke-linejoin="miter" stroke="rgb(98.431373%, 60.392157%, 60%)" stroke-opacity="1" stroke-miterlimit="10" d="M 450.339844 79.429688 C 453.136719 80.429688 456.703125 80.921875 458.433594 78.785156 "/>
<path fill-rule="nonzero" fill="rgb(98.431373%, 60.392157%, 60%)" fill-opacity="1" d="M 462.921875 73.242188 L 460.234375 80.246094 L 456.632812 77.328125 L 462.921875 73.242188 "/>
<path fill="none" stroke-width="1.5" stroke-linecap="butt" stroke-linejoin="miter" stroke="rgb(41.568627%, 23.921569%, 60.392157%)" stroke-opacity="1" stroke-miterlimit="10" d="M 167.445312 146.886719 C 162.621094 142.625 156.679688 139.804688 150.621094 141.667969 "/>
<path fill-rule="nonzero" fill="rgb(41.568627%, 23.921569%, 60.392157%)" fill-opacity="1" d="M 143.804688 143.761719 L 149.941406 139.453125 L 151.304688 143.882812 L 143.804688 143.761719 "/>
<path fill="none" stroke-width="1.5" stroke-linecap="butt" stroke-linejoin="miter" stroke="rgb(12.156863%, 47.058824%, 70.588235%)" stroke-opacity="1" stroke-miterlimit="10" d="M 163.148438 518.269531 C 161.792969 515.039062 159.464844 511.738281 156.148438 511.730469 "/>
<path fill-rule="nonzero" fill="rgb(12.156863%, 47.058824%, 70.588235%)" fill-opacity="1" d="M 149.015625 511.71875 L 156.152344 509.414062 L 156.144531 514.050781 L 149.015625 511.71875 "/>
<path fill="none" stroke-width="1.5" stroke-linecap="butt" stroke-linejoin="miter" stroke="rgb(41.568627%, 23.921569%, 60.392157%)" stroke-opacity="1" stroke-miterlimit="10" d="M 141.144531 144.582031 C 136.875 140.554688 131.503906 137.71875 125.976562 139.328125 "/>
<path fill-rule="nonzero" fill="rgb(41.568627%, 23.921569%, 60.392157%)" fill-opacity="1" d="M 119.125 141.316406 L 125.328125 137.101562 L 126.621094 141.550781 L 119.125 141.316406 "/>
<path fill="none" stroke-width="1.5" stroke-linecap="butt" stroke-linejoin="miter" stroke="rgb(98.431373%, 60.392157%, 60%)" stroke-opacity="1" stroke-miterlimit="10" d="M 464.65625 71.097656 C 466.265625 72.183594 468.863281 73.203125 469.886719 71.996094 "/>
<path fill-rule="nonzero" fill="rgb(98.431373%, 60.392157%, 60%)" fill-opacity="1" d="M 474.5 66.554688 L 471.65625 73.496094 L 468.121094 70.496094 L 474.5 66.554688 "/>
<path fill="none" stroke-width="1.5" stroke-linecap="butt" stroke-linejoin="miter" stroke="rgb(98.431373%, 60.392157%, 60%)" stroke-opacity="1" stroke-miterlimit="10" d="M 391.683594 108.1875 C 396.933594 109.910156 402.699219 110.210938 406.710938 106.585938 "/>
<path fill-rule="nonzero" fill="rgb(98.431373%, 60.392157%, 60%)" fill-opacity="1" d="M 412.003906 101.808594 L 408.265625 108.308594 L 405.160156 104.867188 L 412.003906 101.808594 "/>
<path fill="none" stroke-width="1.5" stroke-linecap="butt" stroke-linejoin="miter" stroke="rgb(41.568627%, 23.921569%, 60.392157%)" stroke-opacity="1" stroke-miterlimit="10" d="M 98.050781 137.296875 C 96.65625 134.398438 94.324219 131.390625 91.316406 131.628906 "/>
<path fill-rule="nonzero" fill="rgb(41.568627%, 23.921569%, 60.392157%)" fill-opacity="1" d="M 84.207031 132.195312 L 91.132812 129.320312 L 91.5 133.941406 L 84.207031 132.195312 "/>
<path fill="none" stroke-width="1.5" stroke-linecap="butt" stroke-linejoin="miter" stroke="rgb(41.568627%, 23.921569%, 60.392157%)" stroke-opacity="1" stroke-miterlimit="10" d="M 81.453125 132.417969 C 79.921875 129.582031 77.441406 126.683594 74.445312 127.0625 "/>
<path fill-rule="nonzero" fill="rgb(41.568627%, 23.921569%, 60.392157%)" fill-opacity="1" d="M 67.371094 127.960938 L 74.152344 124.765625 L 74.738281 129.363281 L 67.371094 127.960938 "/>
<path fill="none" stroke-width="1.5" stroke-linecap="butt" stroke-linejoin="miter" stroke="rgb(41.568627%, 23.921569%, 60.392157%)" stroke-opacity="1" stroke-miterlimit="10" d="M 223.570312 148.6875 C 218.039062 144.535156 211.480469 142.097656 205.109375 144.539062 "/>
<path fill-rule="nonzero" fill="rgb(41.568627%, 23.921569%, 60.392157%)" fill-opacity="1" d="M 198.449219 147.089844 L 204.28125 142.375 L 205.9375 146.703125 L 198.449219 147.089844 "/>
<path fill="none" stroke-width="1.5" stroke-linecap="butt" stroke-linejoin="miter" stroke="rgb(41.568627%, 23.921569%, 60.392157%)" stroke-opacity="1" stroke-miterlimit="10" d="M 64.628906 128.308594 C 64.792969 127.117188 64.136719 125.011719 63.703125 125.15625 "/>
<path fill-rule="nonzero" fill="rgb(41.568627%, 23.921569%, 60.392157%)" fill-opacity="1" d="M 56.925781 127.386719 L 62.976562 122.953125 L 64.425781 127.355469 L 56.925781 127.386719 "/>
<path fill="none" stroke-width="1.5" stroke-linecap="butt" stroke-linejoin="miter" stroke="rgb(41.568627%, 23.921569%, 60.392157%)" stroke-opacity="1" stroke-miterlimit="10" d="M 54.34375 128.238281 C 56.6875 128.6875 58.601562 127.128906 60.695312 126.726562 "/>
<path fill-rule="nonzero" fill="rgb(41.568627%, 23.921569%, 60.392157%)" fill-opacity="1" d="M 53.691406 128.078125 L 60.253906 124.453125 L 61.132812 129.003906 L 53.691406 128.078125 "/>
<path fill="none" stroke-width="1.5" stroke-linecap="butt" stroke-linejoin="miter" stroke="rgb(98.431373%, 60.392157%, 60%)" stroke-opacity="1" stroke-miterlimit="10" d="M 483.164062 57.871094 C 483.609375 58.902344 485.371094 60.078125 485.4375 59.945312 "/>
<path fill-rule="nonzero" fill="rgb(98.431373%, 60.392157%, 60%)" fill-opacity="1" d="M 488.53125 53.519531 L 487.527344 60.949219 L 483.347656 58.941406 L 488.53125 53.519531 "/>
<path fill="none" stroke-width="1.5" stroke-linecap="butt" stroke-linejoin="miter" stroke="rgb(98.431373%, 60.392157%, 60%)" stroke-opacity="1" stroke-miterlimit="10" d="M 476.277344 64.464844 C 476.710938 65.5 478.441406 66.71875 478.53125 66.558594 "/>
<path fill-rule="nonzero" fill="rgb(98.431373%, 60.392157%, 60%)" fill-opacity="1" d="M 481.886719 60.265625 L 480.574219 67.648438 L 476.484375 65.46875 L 481.886719 60.265625 "/>
<path fill="none" stroke-width="1.5" stroke-linecap="butt" stroke-linejoin="miter" stroke="rgb(30.196078%, 68.627451%, 29.019608%)" stroke-opacity="1" stroke-miterlimit="10" d="M 681.746094 747.179688 C 679.039062 747.777344 677.675781 750.132812 675.667969 751.714844 "/>
<path fill-rule="nonzero" fill="rgb(30.196078%, 68.627451%, 29.019608%)" fill-opacity="1" d="M 681.273438 747.304688 L 677.101562 753.535156 L 674.234375 749.894531 L 681.273438 747.304688 "/>
<path fill="none" stroke-width="1.5" stroke-linecap="butt" stroke-linejoin="miter" stroke="rgb(30.196078%, 68.627451%, 29.019608%)" stroke-opacity="1" stroke-miterlimit="10" d="M 685.539062 746.386719 C 685.777344 743.808594 684 741.925781 683.242188 739.695312 "/>
<path fill-rule="nonzero" fill="rgb(30.196078%, 68.627451%, 29.019608%)" fill-opacity="1" d="M 685.535156 746.449219 L 681.046875 740.441406 L 685.4375 738.949219 L 685.535156 746.449219 "/>
<path fill="none" stroke-width="1.5" stroke-linecap="butt" stroke-linejoin="miter" stroke="rgb(30.196078%, 68.627451%, 29.019608%)" stroke-opacity="1" stroke-miterlimit="10" d="M 683.441406 745.597656 C 681.730469 743.378906 678.996094 743.132812 676.675781 741.984375 "/>
<path fill-rule="nonzero" fill="rgb(30.196078%, 68.627451%, 29.019608%)" fill-opacity="1" d="M 683.066406 745.15625 L 675.644531 744.058594 L 677.707031 739.90625 L 683.066406 745.15625 "/>
<path fill="none" stroke-width="1.5" stroke-linecap="butt" stroke-linejoin="miter" stroke="rgb(41.568627%, 23.921569%, 60.392157%)" stroke-opacity="1" stroke-miterlimit="10" d="M 282.167969 143.039062 C 275.585938 139.566406 268.253906 138.160156 261.84375 141.769531 "/>
<path fill-rule="nonzero" fill="rgb(41.568627%, 23.921569%, 60.392157%)" fill-opacity="1" d="M 255.628906 145.269531 L 260.707031 139.75 L 262.980469 143.789062 L 255.628906 145.269531 "/>
<path fill="none" stroke-width="1.5" stroke-linecap="butt" stroke-linejoin="miter" stroke="rgb(41.568627%, 23.921569%, 60.392157%)" stroke-opacity="1" stroke-miterlimit="10" d="M 195.847656 148.085938 C 190.175781 143.703125 183.433594 141.121094 176.773438 143.519531 "/>
<path fill-rule="nonzero" fill="rgb(41.568627%, 23.921569%, 60.392157%)" fill-opacity="1" d="M 170.066406 145.941406 L 175.988281 141.339844 L 177.5625 145.703125 L 170.066406 145.941406 "/>
<path fill="none" stroke-width="1.5" stroke-linecap="butt" stroke-linejoin="miter" stroke="rgb(41.568627%, 23.921569%, 60.392157%)" stroke-opacity="1" stroke-miterlimit="10" d="M 116.457031 142.09375 C 114.492188 138.828125 111.503906 135.730469 107.882812 136.152344 "/>
<path fill-rule="nonzero" fill="rgb(41.568627%, 23.921569%, 60.392157%)" fill-opacity="1" d="M 100.800781 136.976562 L 107.617188 133.847656 L 108.152344 138.453125 L 100.800781 136.976562 "/>
<path fill="none" stroke-width="1.5" stroke-linecap="butt" stroke-linejoin="miter" stroke="rgb(98.431373%, 60.392157%, 60%)" stroke-opacity="1" stroke-miterlimit="10" d="M 434.488281 89.992188 C 438.246094 90.699219 442.554688 90.523438 444.652344 87.535156 "/>
<path fill-rule="nonzero" fill="rgb(98.431373%, 60.392157%, 60%)" fill-opacity="1" d="M 448.75 81.695312 L 446.550781 88.863281 L 442.757812 86.203125 L 448.75 81.695312 "/>
<path fill="none" stroke-width="1.5" stroke-linecap="butt" stroke-linejoin="miter" stroke="rgb(98.431373%, 60.392157%, 60%)" stroke-opacity="1" stroke-miterlimit="10" d="M 414.066406 99.945312 C 419.046875 101.136719 424.464844 101.019531 427.824219 97.324219 "/>
<path fill-rule="nonzero" fill="rgb(98.431373%, 60.392157%, 60%)" fill-opacity="1" d="M 432.621094 92.046875 L 429.539062 98.882812 L 426.109375 95.765625 L 432.621094 92.046875 "/>
<path fill="none" stroke-width="1.5" stroke-linecap="butt" stroke-linejoin="miter" stroke="rgb(98.431373%, 60.392157%, 60%)" stroke-opacity="1" stroke-miterlimit="10" d="M 342 129.125 C 348.648438 130.714844 355.566406 130.359375 360.378906 125.632812 "/>
<path fill-rule="nonzero" fill="rgb(98.431373%, 60.392157%, 60%)" fill-opacity="1" d="M 365.46875 120.632812 L 362.003906 127.285156 L 358.753906 123.980469 L 365.46875 120.632812 "/>
<path fill="none" stroke-width="1.5" stroke-linecap="butt" stroke-linejoin="miter" stroke="rgb(12.156863%, 47.058824%, 70.588235%)" stroke-opacity="1" stroke-miterlimit="10" d="M 128.757812 505.980469 C 127.644531 503 125.605469 499.816406 122.628906 499.796875 "/>
<path fill-rule="nonzero" fill="rgb(12.156863%, 47.058824%, 70.588235%)" fill-opacity="1" d="M 115.496094 499.753906 L 122.644531 497.480469 L 122.617188 502.117188 L 115.496094 499.753906 "/>
<path fill="none" stroke-width="1.5" stroke-linecap="butt" stroke-linejoin="miter" stroke="rgb(12.156863%, 47.058824%, 70.588235%)" stroke-opacity="1" stroke-miterlimit="10" d="M 112.738281 499.738281 C 111.773438 497.230469 109.949219 494.390625 107.519531 494.570312 "/>
<path fill-rule="nonzero" fill="rgb(12.156863%, 47.058824%, 70.588235%)" fill-opacity="1" d="M 100.40625 495.09375 L 107.347656 492.257812 L 107.6875 496.882812 L 100.40625 495.09375 "/>
<path fill="none" stroke-width="1.5" stroke-linecap="butt" stroke-linejoin="miter" stroke="rgb(12.156863%, 47.058824%, 70.588235%)" stroke-opacity="1" stroke-miterlimit="10" d="M 63.972656 479.332031 C 65.335938 480.125 67.242188 479.289062 68.265625 479.78125 "/>
<path fill-rule="nonzero" fill="rgb(12.156863%, 47.058824%, 70.588235%)" fill-opacity="1" d="M 61.835938 476.695312 L 69.269531 477.695312 L 67.265625 481.871094 L 61.835938 476.695312 "/>
<path fill="none" stroke-width="1.5" stroke-linecap="butt" stroke-linejoin="miter" stroke="rgb(12.156863%, 47.058824%, 70.588235%)" stroke-opacity="1" stroke-miterlimit="10" d="M 72.105469 484.351562 C 72.992188 483.660156 73.734375 481.675781 73.546875 481.628906 "/>
<path fill-rule="nonzero" fill="rgb(12.156863%, 47.058824%, 70.588235%)" fill-opacity="1" d="M 66.609375 479.964844 L 74.085938 479.375 L 73.003906 483.882812 L 66.609375 479.964844 "/>
<path fill="none" stroke-width="1.5" stroke-linecap="butt" stroke-linejoin="miter" stroke="rgb(12.156863%, 47.058824%, 70.588235%)" stroke-opacity="1" stroke-miterlimit="10" d="M 83.476562 488.15625 C 83.570312 486.609375 83.046875 484.167969 81.96875 484.1875 "/>
<path fill-rule="nonzero" fill="rgb(12.156863%, 47.058824%, 70.588235%)" fill-opacity="1" d="M 74.835938 484.304688 L 81.929688 481.871094 L 82.007812 486.503906 L 74.835938 484.304688 "/>
<path fill="none" stroke-width="1.5" stroke-linecap="butt" stroke-linejoin="miter" stroke="rgb(12.156863%, 47.058824%, 70.588235%)" stroke-opacity="1" stroke-miterlimit="10" d="M 97.65625 495.296875 C 97.121094 492.613281 95.789062 489.464844 93.308594 489.203125 "/>
<path fill-rule="nonzero" fill="rgb(12.156863%, 47.058824%, 70.588235%)" fill-opacity="1" d="M 86.214844 488.449219 L 93.554688 486.898438 L 93.0625 491.507812 L 86.214844 488.449219 "/>
<path fill-rule="nonzero" fill="rgb(99.215686%, 74.901961%, 43.529412%)" fill-opacity="1" stroke-width="1" stroke-linecap="butt" stroke-linejoin="miter" stroke="rgb(99.215686%, 74.901961%, 43.529412%)" stroke-opacity="1" stroke-miterlimit="10" d="M 751.703125 349.683594 C 751.703125 353.347656 746.203125 353.347656 746.203125 349.683594 C 746.203125 346.015625 751.703125 346.015625 751.703125 349.683594 "/>
<path fill-rule="nonzero" fill="rgb(100%, 84.313725%, 0%)" fill-opacity="1" stroke-width="1" stroke-linecap="butt" stroke-linejoin="miter" stroke="rgb(100%, 84.313725%, 0%)" stroke-opacity="1" stroke-miterlimit="10" d="M 746.75 350.433594 L 753.25 350.433594 L 753.25 356.933594 L 746.75 356.933594 Z M 746.75 350.433594 "/>
<path fill-rule="nonzero" fill="rgb(99.215686%, 74.901961%, 43.529412%)" fill-opacity="1" stroke-width="1" stroke-linecap="butt" stroke-linejoin="miter" stroke="rgb(99.215686%, 74.901961%, 43.529412%)" stroke-opacity="1" stroke-miterlimit="10" d="M 749.859375 345.863281 C 749.859375 349.53125 744.359375 349.53125 744.359375 345.863281 C 744.359375 342.195312 749.859375 342.195312 749.859375 345.863281 "/>
<path fill-rule="nonzero" fill="rgb(99.215686%, 74.901961%, 43.529412%)" fill-opacity="1" stroke-width="1" stroke-linecap="butt" stroke-linejoin="miter" stroke="rgb(99.215686%, 74.901961%, 43.529412%)" stroke-opacity="1" stroke-miterlimit="10" d="M 746.222656 345.496094 C 746.222656 349.164062 740.722656 349.164062 740.722656 345.496094 C 740.722656 341.832031 746.222656 341.832031 746.222656 345.496094 "/>
<path fill-rule="nonzero" fill="rgb(14.901961%, 14.901961%, 14.901961%)" fill-opacity="1" stroke-width="1" stroke-linecap="butt" stroke-linejoin="miter" stroke="rgb(14.901961%, 14.901961%, 14.901961%)" stroke-opacity="1" stroke-miterlimit="10" d="M 735.832031 351.75 L 739.582031 344.25 L 743.332031 351.75 Z M 735.832031 351.75 "/>
<path fill-rule="nonzero" fill="rgb(99.215686%, 74.901961%, 43.529412%)" fill-opacity="1" stroke-width="1" stroke-linecap="butt" stroke-linejoin="miter" stroke="rgb(99.215686%, 74.901961%, 43.529412%)" stroke-opacity="1" stroke-miterlimit="10" d="M 743.4375 346.464844 C 743.4375 350.132812 737.9375 350.132812 737.9375 346.464844 C 737.9375 342.796875 743.4375 342.796875 743.4375 346.464844 "/>
<path fill-rule="nonzero" fill="rgb(99.215686%, 74.901961%, 43.529412%)" fill-opacity="1" stroke-width="1" stroke-linecap="butt" stroke-linejoin="miter" stroke="rgb(99.215686%, 74.901961%, 43.529412%)" stroke-opacity="1" stroke-miterlimit="10" d="M 746.949219 348.769531 C 746.949219 352.4375 741.449219 352.4375 741.449219 348.769531 C 741.449219 345.105469 746.949219 345.105469 746.949219 348.769531 "/>
<path fill-rule="nonzero" fill="rgb(12.156863%, 47.058824%, 70.588235%)" fill-opacity="1" stroke-width="1" stroke-linecap="butt" stroke-linejoin="miter" stroke="rgb(12.156863%, 47.058824%, 70.588235%)" stroke-opacity="1" stroke-miterlimit="10" d="M 212.140625 542.726562 C 212.140625 546.390625 206.640625 546.390625 206.640625 542.726562 C 206.640625 539.058594 212.140625 539.058594 212.140625 542.726562 "/>
<path fill-rule="nonzero" fill="rgb(12.156863%, 47.058824%, 70.588235%)" fill-opacity="1" stroke-width="1" stroke-linecap="butt" stroke-linejoin="miter" stroke="rgb(12.156863%, 47.058824%, 70.588235%)" stroke-opacity="1" stroke-miterlimit="10" d="M 180.042969 524.476562 C 180.042969 528.140625 174.542969 528.140625 174.542969 524.476562 C 174.542969 520.808594 180.042969 520.808594 180.042969 524.476562 "/>
<path fill-rule="nonzero" fill="rgb(12.156863%, 47.058824%, 70.588235%)" fill-opacity="1" stroke-width="1" stroke-linecap="butt" stroke-linejoin="miter" stroke="rgb(12.156863%, 47.058824%, 70.588235%)" stroke-opacity="1" stroke-miterlimit="10" d="M 193.453125 531.425781 C 193.453125 535.09375 187.953125 535.09375 187.953125 531.425781 C 187.953125 527.761719 193.453125 527.761719 193.453125 531.425781 "/>
<path fill-rule="nonzero" fill="rgb(98.431373%, 60.392157%, 60%)" fill-opacity="1" stroke-width="1" stroke-linecap="butt" stroke-linejoin="miter" stroke="rgb(98.431373%, 60.392157%, 60%)" stroke-opacity="1" stroke-miterlimit="10" d="M 370.203125 118.683594 C 370.203125 122.347656 364.703125 122.347656 364.703125 118.683594 C 364.703125 115.015625 370.203125 115.015625 370.203125 118.683594 "/>
<path fill-rule="nonzero" fill="rgb(100%, 84.313725%, 0%)" fill-opacity="1" stroke-width="1" stroke-linecap="butt" stroke-linejoin="miter" stroke="rgb(100%, 84.313725%, 0%)" stroke-opacity="1" stroke-miterlimit="10" d="M 307.300781 131.808594 L 318 131.808594 L 318 142.507812 L 307.300781 142.507812 Z M 307.300781 131.808594 "/>
<path fill-rule="nonzero" fill="rgb(41.568627%, 23.921569%, 60.392157%)" fill-opacity="1" stroke-width="1" stroke-linecap="butt" stroke-linejoin="miter" stroke="rgb(41.568627%, 23.921569%, 60.392157%)" stroke-opacity="1" stroke-miterlimit="10" d="M 255.949219 146.640625 C 255.949219 150.304688 250.449219 150.304688 250.449219 146.640625 C 250.449219 142.972656 255.949219 142.972656 255.949219 146.640625 "/>
<path fill-rule="nonzero" fill="rgb(12.156863%, 47.058824%, 70.588235%)" fill-opacity="1" stroke-width="1" stroke-linecap="butt" stroke-linejoin="miter" stroke="rgb(12.156863%, 47.058824%, 70.588235%)" stroke-opacity="1" stroke-miterlimit="10" d="M 204.910156 536.925781 C 204.910156 540.59375 199.410156 540.59375 199.410156 536.925781 C 199.410156 533.257812 204.910156 533.257812 204.910156 536.925781 "/>
<path fill-rule="nonzero" fill="rgb(12.156863%, 47.058824%, 70.588235%)" fill-opacity="1" stroke-width="1" stroke-linecap="butt" stroke-linejoin="miter" stroke="rgb(12.156863%, 47.058824%, 70.588235%)" stroke-opacity="1" stroke-miterlimit="10" d="M 149 511.714844 C 149 515.382812 143.5 515.382812 143.5 511.714844 C 143.5 508.046875 149 508.046875 149 511.714844 "/>
<path fill-rule="nonzero" fill="rgb(100%, 84.313725%, 0%)" fill-opacity="1" stroke-width="1" stroke-linecap="butt" stroke-linejoin="miter" stroke="rgb(100%, 84.313725%, 0%)" stroke-opacity="1" stroke-miterlimit="10" d="M 210.992188 540.898438 L 217.492188 540.898438 L 217.492188 547.398438 L 210.992188 547.398438 Z M 210.992188 540.898438 "/>
<path fill-rule="nonzero" fill="rgb(98.431373%, 60.392157%, 60%)" fill-opacity="1" stroke-width="1" stroke-linecap="butt" stroke-linejoin="miter" stroke="rgb(98.431373%, 60.392157%, 60%)" stroke-opacity="1" stroke-miterlimit="10" d="M 453.089844 79.429688 C 453.089844 83.097656 447.589844 83.097656 447.589844 79.429688 C 447.589844 75.765625 453.089844 75.765625 453.089844 79.429688 "/>
<path fill-rule="nonzero" fill="rgb(41.568627%, 23.921569%, 60.392157%)" fill-opacity="1" stroke-width="1" stroke-linecap="butt" stroke-linejoin="miter" stroke="rgb(41.568627%, 23.921569%, 60.392157%)" stroke-opacity="1" stroke-miterlimit="10" d="M 170.195312 146.886719 C 170.195312 150.554688 164.695312 150.554688 164.695312 146.886719 C 164.695312 143.21875 170.195312 143.21875 170.195312 146.886719 "/>
<path fill-rule="nonzero" fill="rgb(12.156863%, 47.058824%, 70.588235%)" fill-opacity="1" stroke-width="1" stroke-linecap="butt" stroke-linejoin="miter" stroke="rgb(12.156863%, 47.058824%, 70.588235%)" stroke-opacity="1" stroke-miterlimit="10" d="M 165.898438 518.269531 C 165.898438 521.9375 160.398438 521.9375 160.398438 518.269531 C 160.398438 514.601562 165.898438 514.601562 165.898438 518.269531 "/>
<path fill-rule="nonzero" fill="rgb(41.568627%, 23.921569%, 60.392157%)" fill-opacity="1" stroke-width="1" stroke-linecap="butt" stroke-linejoin="miter" stroke="rgb(41.568627%, 23.921569%, 60.392157%)" stroke-opacity="1" stroke-miterlimit="10" d="M 143.894531 144.582031 C 143.894531 148.246094 138.394531 148.246094 138.394531 144.582031 C 138.394531 140.914062 143.894531 140.914062 143.894531 144.582031 "/>
<path fill-rule="nonzero" fill="rgb(98.431373%, 60.392157%, 60%)" fill-opacity="1" stroke-width="1" stroke-linecap="butt" stroke-linejoin="miter" stroke="rgb(98.431373%, 60.392157%, 60%)" stroke-opacity="1" stroke-miterlimit="10" d="M 467.40625 71.097656 C 467.40625 74.765625 461.90625 74.765625 461.90625 71.097656 C 461.90625 67.433594 467.40625 67.433594 467.40625 71.097656 "/>
<path fill-rule="nonzero" fill="rgb(98.431373%, 60.392157%, 60%)" fill-opacity="1" stroke-width="1" stroke-linecap="butt" stroke-linejoin="miter" stroke="rgb(98.431373%, 60.392157%, 60%)" stroke-opacity="1" stroke-miterlimit="10" d="M 394.433594 108.1875 C 394.433594 111.855469 388.933594 111.855469 388.933594 108.1875 C 388.933594 104.523438 394.433594 104.523438 394.433594 108.1875 "/>
<path fill-rule="nonzero" fill="rgb(41.568627%, 23.921569%, 60.392157%)" fill-opacity="1" stroke-width="1" stroke-linecap="butt" stroke-linejoin="miter" stroke="rgb(41.568627%, 23.921569%, 60.392157%)" stroke-opacity="1" stroke-miterlimit="10" d="M 100.800781 137.296875 C 100.800781 140.964844 95.300781 140.964844 95.300781 137.296875 C 95.300781 133.632812 100.800781 133.632812 100.800781 137.296875 "/>
<path fill-rule="nonzero" fill="rgb(41.568627%, 23.921569%, 60.392157%)" fill-opacity="1" stroke-width="1" stroke-linecap="butt" stroke-linejoin="miter" stroke="rgb(41.568627%, 23.921569%, 60.392157%)" stroke-opacity="1" stroke-miterlimit="10" d="M 84.203125 132.417969 C 84.203125 136.082031 78.703125 136.082031 78.703125 132.417969 C 78.703125 128.75 84.203125 128.75 84.203125 132.417969 "/>
<path fill-rule="nonzero" fill="rgb(41.568627%, 23.921569%, 60.392157%)" fill-opacity="1" stroke-width="1" stroke-linecap="butt" stroke-linejoin="miter" stroke="rgb(41.568627%, 23.921569%, 60.392157%)" stroke-opacity="1" stroke-miterlimit="10" d="M 226.320312 148.6875 C 226.320312 152.355469 220.820312 152.355469 220.820312 148.6875 C 220.820312 145.019531 226.320312 145.019531 226.320312 148.6875 "/>
<path fill-rule="nonzero" fill="rgb(41.568627%, 23.921569%, 60.392157%)" fill-opacity="1" stroke-width="1" stroke-linecap="butt" stroke-linejoin="miter" stroke="rgb(41.568627%, 23.921569%, 60.392157%)" stroke-opacity="1" stroke-miterlimit="10" d="M 67.378906 128.308594 C 67.378906 131.976562 61.878906 131.976562 61.878906 128.308594 C 61.878906 124.644531 67.378906 124.644531 67.378906 128.308594 "/>
<path fill-rule="nonzero" fill="rgb(41.568627%, 23.921569%, 60.392157%)" fill-opacity="1" stroke-width="1" stroke-linecap="butt" stroke-linejoin="miter" stroke="rgb(41.568627%, 23.921569%, 60.392157%)" stroke-opacity="1" stroke-miterlimit="10" d="M 57.09375 128.238281 C 57.09375 131.90625 51.59375 131.90625 51.59375 128.238281 C 51.59375 124.570312 57.09375 124.570312 57.09375 128.238281 "/>
<path fill-rule="nonzero" fill="rgb(98.431373%, 60.392157%, 60%)" fill-opacity="1" stroke-width="1" stroke-linecap="butt" stroke-linejoin="miter" stroke="rgb(98.431373%, 60.392157%, 60%)" stroke-opacity="1" stroke-miterlimit="10" d="M 485.914062 57.871094 C 485.914062 61.535156 480.414062 61.535156 480.414062 57.871094 C 480.414062 54.203125 485.914062 54.203125 485.914062 57.871094 "/>
<path fill-rule="nonzero" fill="rgb(98.431373%, 60.392157%, 60%)" fill-opacity="1" stroke-width="1" stroke-linecap="butt" stroke-linejoin="miter" stroke="rgb(98.431373%, 60.392157%, 60%)" stroke-opacity="1" stroke-miterlimit="10" d="M 479.027344 64.464844 C 479.027344 68.128906 473.527344 68.128906 473.527344 64.464844 C 473.527344 60.796875 479.027344 60.796875 479.027344 64.464844 "/>
<path fill-rule="nonzero" fill="rgb(100%, 84.313725%, 0%)" fill-opacity="1" stroke-width="1" stroke-linecap="butt" stroke-linejoin="miter" stroke="rgb(100%, 84.313725%, 0%)" stroke-opacity="1" stroke-miterlimit="10" d="M 678.496094 743.929688 L 684.996094 743.929688 L 684.996094 750.429688 L 678.496094 750.429688 Z M 678.496094 743.929688 "/>
<path fill-rule="nonzero" fill="rgb(14.901961%, 14.901961%, 14.901961%)" fill-opacity="1" stroke-width="1" stroke-linecap="butt" stroke-linejoin="miter" stroke="rgb(14.901961%, 14.901961%, 14.901961%)" stroke-opacity="1" stroke-miterlimit="10" d="M 682.992188 753.75 L 686.742188 746.25 L 690.492188 753.75 Z M 682.992188 753.75 "/>
<path fill-rule="nonzero" fill="rgb(30.196078%, 68.627451%, 29.019608%)" fill-opacity="1" stroke-width="1" stroke-linecap="butt" stroke-linejoin="miter" stroke="rgb(30.196078%, 68.627451%, 29.019608%)" stroke-opacity="1" stroke-miterlimit="10" d="M 688.289062 746.386719 C 688.289062 750.050781 682.789062 750.050781 682.789062 746.386719 C 682.789062 742.71875 688.289062 742.71875 688.289062 746.386719 "/>
<path fill-rule="nonzero" fill="rgb(30.196078%, 68.627451%, 29.019608%)" fill-opacity="1" stroke-width="1" stroke-linecap="butt" stroke-linejoin="miter" stroke="rgb(30.196078%, 68.627451%, 29.019608%)" stroke-opacity="1" stroke-miterlimit="10" d="M 686.191406 745.597656 C 686.191406 749.261719 680.691406 749.261719 680.691406 745.597656 C 680.691406 741.929688 686.191406 741.929688 686.191406 745.597656 "/>
<path fill-rule="nonzero" fill="rgb(41.568627%, 23.921569%, 60.392157%)" fill-opacity="1" stroke-width="1" stroke-linecap="butt" stroke-linejoin="miter" stroke="rgb(41.568627%, 23.921569%, 60.392157%)" stroke-opacity="1" stroke-miterlimit="10" d="M 284.917969 143.039062 C 284.917969 146.703125 279.417969 146.703125 279.417969 143.039062 C 279.417969 139.371094 284.917969 139.371094 284.917969 143.039062 "/>
<path fill-rule="nonzero" fill="rgb(41.568627%, 23.921569%, 60.392157%)" fill-opacity="1" stroke-width="1" stroke-linecap="butt" stroke-linejoin="miter" stroke="rgb(41.568627%, 23.921569%, 60.392157%)" stroke-opacity="1" stroke-miterlimit="10" d="M 198.597656 148.085938 C 198.597656 151.753906 193.097656 151.753906 193.097656 148.085938 C 193.097656 144.421875 198.597656 144.421875 198.597656 148.085938 "/>
<path fill-rule="nonzero" fill="rgb(41.568627%, 23.921569%, 60.392157%)" fill-opacity="1" stroke-width="1" stroke-linecap="butt" stroke-linejoin="miter" stroke="rgb(41.568627%, 23.921569%, 60.392157%)" stroke-opacity="1" stroke-miterlimit="10" d="M 119.207031 142.09375 C 119.207031 145.761719 113.707031 145.761719 113.707031 142.09375 C 113.707031 138.425781 119.207031 138.425781 119.207031 142.09375 "/>
<path fill-rule="nonzero" fill="rgb(14.901961%, 14.901961%, 14.901961%)" fill-opacity="1" stroke-width="1" stroke-linecap="butt" stroke-linejoin="miter" stroke="rgb(14.901961%, 14.901961%, 14.901961%)" stroke-opacity="1" stroke-miterlimit="10" d="M 46.25 132.539062 L 50 125.039062 L 53.75 132.539062 Z M 46.25 132.539062 "/>
<path fill-rule="nonzero" fill="rgb(98.431373%, 60.392157%, 60%)" fill-opacity="1" stroke-width="1" stroke-linecap="butt" stroke-linejoin="miter" stroke="rgb(98.431373%, 60.392157%, 60%)" stroke-opacity="1" stroke-miterlimit="10" d="M 437.238281 89.992188 C 437.238281 93.660156 431.738281 93.660156 431.738281 89.992188 C 431.738281 86.324219 437.238281 86.324219 437.238281 89.992188 "/>
<path fill-rule="nonzero" fill="rgb(98.431373%, 60.392157%, 60%)" fill-opacity="1" stroke-width="1" stroke-linecap="butt" stroke-linejoin="miter" stroke="rgb(98.431373%, 60.392157%, 60%)" stroke-opacity="1" stroke-miterlimit="10" d="M 416.816406 99.945312 C 416.816406 103.613281 411.316406 103.613281 411.316406 99.945312 C 411.316406 96.277344 416.816406 96.277344 416.816406 99.945312 "/>
<path fill-rule="nonzero" fill="rgb(14.901961%, 14.901961%, 14.901961%)" fill-opacity="1" stroke-width="1" stroke-linecap="butt" stroke-linejoin="miter" stroke="rgb(14.901961%, 14.901961%, 14.901961%)" stroke-opacity="1" stroke-miterlimit="10" d="M 486.476562 53.75 L 490.226562 46.25 L 493.976562 53.75 Z M 486.476562 53.75 "/>
<path fill-rule="nonzero" fill="rgb(98.431373%, 60.392157%, 60%)" fill-opacity="1" stroke-width="1" stroke-linecap="butt" stroke-linejoin="miter" stroke="rgb(98.431373%, 60.392157%, 60%)" stroke-opacity="1" stroke-miterlimit="10" d="M 344.75 129.125 C 344.75 132.789062 339.25 132.789062 339.25 129.125 C 339.25 125.457031 344.75 125.457031 344.75 129.125 "/>
<path fill-rule="nonzero" fill="rgb(12.156863%, 47.058824%, 70.588235%)" fill-opacity="1" stroke-width="1" stroke-linecap="butt" stroke-linejoin="miter" stroke="rgb(12.156863%, 47.058824%, 70.588235%)" stroke-opacity="1" stroke-miterlimit="10" d="M 131.507812 505.980469 C 131.507812 509.648438 126.007812 509.648438 126.007812 505.980469 C 126.007812 502.3125 131.507812 502.3125 131.507812 505.980469 "/>
<path fill-rule="nonzero" fill="rgb(12.156863%, 47.058824%, 70.588235%)" fill-opacity="1" stroke-width="1" stroke-linecap="butt" stroke-linejoin="miter" stroke="rgb(12.156863%, 47.058824%, 70.588235%)" stroke-opacity="1" stroke-miterlimit="10" d="M 115.488281 499.738281 C 115.488281 503.402344 109.988281 503.402344 109.988281 499.738281 C 109.988281 496.070312 115.488281 496.070312 115.488281 499.738281 "/>
<path fill-rule="nonzero" fill="rgb(12.156863%, 47.058824%, 70.588235%)" fill-opacity="1" stroke-width="1" stroke-linecap="butt" stroke-linejoin="miter" stroke="rgb(12.156863%, 47.058824%, 70.588235%)" stroke-opacity="1" stroke-miterlimit="10" d="M 66.722656 479.332031 C 66.722656 483 61.222656 483 61.222656 479.332031 C 61.222656 475.664062 66.722656 475.664062 66.722656 479.332031 "/>
<path fill-rule="nonzero" fill="rgb(14.901961%, 14.901961%, 14.901961%)" fill-opacity="1" stroke-width="1" stroke-linecap="butt" stroke-linejoin="miter" stroke="rgb(14.901961%, 14.901961%, 14.901961%)" stroke-opacity="1" stroke-miterlimit="10" d="M 54.632812 478.789062 L 58.382812 471.289062 L 62.132812 478.789062 Z M 54.632812 478.789062 "/>
<path fill-rule="nonzero" fill="rgb(12.156863%, 47.058824%, 70.588235%)" fill-opacity="1" stroke-width="1" stroke-linecap="butt" stroke-linejoin="miter" stroke="rgb(12.156863%, 47.058824%, 70.588235%)" stroke-opacity="1" stroke-miterlimit="10" d="M 74.855469 484.351562 C 74.855469 488.019531 69.355469 488.019531 69.355469 484.351562 C 69.355469 480.683594 74.855469 480.683594 74.855469 484.351562 "/>
<path fill-rule="nonzero" fill="rgb(12.156863%, 47.058824%, 70.588235%)" fill-opacity="1" stroke-width="1" stroke-linecap="butt" stroke-linejoin="miter" stroke="rgb(12.156863%, 47.058824%, 70.588235%)" stroke-opacity="1" stroke-miterlimit="10" d="M 86.226562 488.15625 C 86.226562 491.824219 80.726562 491.824219 80.726562 488.15625 C 80.726562 484.492188 86.226562 484.492188 86.226562 488.15625 "/>
<path fill-rule="nonzero" fill="rgb(12.156863%, 47.058824%, 70.588235%)" fill-opacity="1" stroke-width="1" stroke-linecap="butt" stroke-linejoin="miter" stroke="rgb(12.156863%, 47.058824%, 70.588235%)" stroke-opacity="1" stroke-miterlimit="10" d="M 100.40625 495.296875 C 100.40625 498.960938 94.90625 498.960938 94.90625 495.296875 C 94.90625 491.628906 100.40625 491.628906 100.40625 495.296875 "/>
</svg>
