<?xml version="1.0" encoding="UTF-8"?>
<svg xmlns="http://www.w3.org/2000/svg" xmlns:xlink="http://www.w3.org/1999/xlink" width="800" height="800" viewBox="0 0 800 800">
<rect x="-80" y="-80" width="960" height="960" fill="rgb(100%, 100%, 100%)" fill-opacity="1"/>
<path fill="none" stroke-width="1.5" stroke-linecap="butt" stroke-linejoin="miter" stroke="rgb(30.196078%, 68.627451%, 29.019608%)" stroke-opacity="1" stroke-miterlimit="10" d="M 578.917969 70.167969 C 580.082031 67.5 578.976562 64.902344 578.832031 62.199219 "/>
<path fill-rule="nonzero" fill="rgb(30.196078%, 68.627451%, 29.019608%)" fill-opacity="1" d="M 579.210938 69.324219 L 576.515625 62.324219 L 581.144531 62.078125 L 579.210938 69.324219 "/>
<path fill="none" stroke-width="1.5" stroke-linecap="butt" stroke-linejoin="miter" stroke="rgb(12.156863%, 47.058824%, 70.588235%)" stroke-opacity="1" stroke-miterlimit="10" d="M 335.40625 429.84375 C 342.574219 435.78125 351.066406 439.128906 359.957031 436.613281 "/>
<path fill-rule="nonzero" fill="rgb(12.156863%, 47.058824%, 70.588235%)" fill-opacity="1" d="M 366.820312 434.667969 L 360.585938 438.839844 L 359.324219 434.382812 L 366.820312 434.667969 "/>
<path fill="none" stroke-width="1.5" stroke-linecap="butt" stroke-linejoin="miter" stroke="rgb(12.156863%, 47.058824%, 70.588235%)" stroke-opacity="1" stroke-miterlimit="10" d="M 457.414062 441.597656 C 460.578125 444.492188 464.699219 446.765625 468.558594 445.265625 "/>
<path fill-rule="nonzero" fill="rgb(12.156863%, 47.058824%, 70.588235%)" fill-opacity="1" d="M 475.207031 442.6875 L 469.398438 447.425781 L 467.71875 443.105469 L 475.207031 442.6875 "/>
<path fill="none" stroke-width="1.5" stroke-linecap="butt" stroke-linejoin="miter" stroke="rgb(30.196078%, 68.627451%, 29.019608%)" stroke-opacity="1" stroke-miterlimit="10" d="M 695.125 145.621094 C 695.605469 149.011719 696.996094 152.742188 700.132812 153.546875 "/>
<path fill-rule="nonzero" fill="rgb(30.196078%, 68.627451%, 29.019608%)" fill-opacity="1" d="M 707.042969 155.316406 L 699.558594 155.792969 L 700.707031 151.300781 L 707.042969 155.316406 "/>
<path fill="none" stroke-width="1.5" stroke-linecap="butt" stroke-linejoin="miter" stroke="rgb(12.156863%, 47.058824%, 70.588235%)" stroke-opacity="1" stroke-miterlimit="10" d="M 477.789062 441.683594 C 479.964844 444.09375 483.074219 446.332031 485.921875 445.253906 "/>
<path fill-rule="nonzero" fill="rgb(12.156863%, 47.058824%, 70.588235%)" fill-opacity="1" d="M 492.59375 442.722656 L 486.746094 447.421875 L 485.101562 443.085938 L 492.59375 442.722656 "/>
<path fill="none" stroke-width="1.5" stroke-linecap="butt" stroke-linejoin="miter" stroke="rgb(12.156863%, 47.058824%, 70.588235%)" stroke-opacity="1" stroke-miterlimit="10" d="M 432.925781 439.917969 C 437.234375 443.757812 442.605469 446.410156 447.988281 444.660156 "/>
<path fill-rule="nonzero" fill="rgb(12.156863%, 47.058824%, 70.588235%)" fill-opacity="1" d="M 454.769531 442.457031 L 448.703125 446.867188 L 447.269531 442.457031 L 454.769531 442.457031 "/>
<path fill="none" stroke-width="1.5" stroke-linecap="butt" stroke-linejoin="miter" stroke="rgb(12.156863%, 47.058824%, 70.588235%)" stroke-opacity="1" stroke-miterlimit="10" d="M 495.175781 441.746094 C 495.117188 443.058594 495.824219 445.257812 496.507812 445.09375 "/>
<path fill-rule="nonzero" fill="rgb(12.156863%, 47.058824%, 70.588235%)" fill-opacity="1" d="M 503.441406 443.414062 L 497.050781 447.34375 L 495.960938 442.839844 L 503.441406 443.414062 "/>
<path fill="none" stroke-width="1.5" stroke-linecap="butt" stroke-linejoin="miter" stroke="rgb(30.196078%, 68.627451%, 29.019608%)" stroke-opacity="1" stroke-miterlimit="10" d="M 579.359375 72.109375 C 578.46875 72.78125 578.003906 74.78125 577.894531 74.78125 "/>
<path fill-rule="nonzero" fill="rgb(30.196078%, 68.627451%, 29.019608%)" fill-opacity="1" d="M 585.027344 74.632812 L 577.941406 77.097656 L 577.847656 72.464844 L 585.027344 74.632812 "/>
<path fill="none" stroke-width="1.5" stroke-linecap="butt" stroke-linejoin="miter" stroke="rgb(30.196078%, 68.627451%, 29.019608%)" stroke-opacity="1" stroke-miterlimit="10" d="M 678.449219 134.871094 C 679.457031 138.847656 681.554688 142.878906 685.417969 143.660156 "/>
<path fill-rule="nonzero" fill="rgb(30.196078%, 68.627451%, 29.019608%)" fill-opacity="1" d="M 692.410156 145.070312 L 684.960938 145.929688 L 685.878906 141.386719 L 692.410156 145.070312 "/>
<path fill="none" stroke-width="1.5" stroke-linecap="butt" stroke-linejoin="miter" stroke="rgb(30.196078%, 68.627451%, 29.019608%)" stroke-opacity="1" stroke-miterlimit="10" d="M 599.230469 83 C 599.8125 86.261719 601.292969 89.859375 604.34375 90.484375 "/>
<path fill-rule="nonzero" fill="rgb(30.196078%, 68.627451%, 29.019608%)" fill-opacity="1" d="M 611.332031 91.921875 L 603.878906 92.753906 L 604.8125 88.214844 L 611.332031 91.921875 "/>
<path fill="none" stroke-width="1.5" stroke-linecap="butt" stroke-linejoin="miter" stroke="rgb(30.196078%, 68.627451%, 29.019608%)" stroke-opacity="1" stroke-miterlimit="10" d="M 629.667969 102.019531 C 630.148438 105.421875 631.542969 109.15625 634.6875 109.964844 "/>
<path fill-rule="nonzero" fill="rgb(30.196078%, 68.627451%, 29.019608%)" fill-opacity="1" d="M 641.59375 111.742188 L 634.109375 112.210938 L 635.265625 107.722656 L 641.59375 111.742188 "/>
<path fill="none" stroke-width="1.5" stroke-linecap="butt" stroke-linejoin="miter" stroke="rgb(30.196078%, 68.627451%, 29.019608%)" stroke-opacity="1" stroke-miterlimit="10" d="M 744.679688 178.476562 C 742.988281 177.546875 740.964844 178.457031 739.417969 178.058594 "/>
<path fill-rule="nonzero" fill="rgb(30.196078%, 68.627451%, 29.019608%)" fill-opacity="1" d="M 746.324219 179.847656 L 738.835938 180.300781 L 740 175.8125 L 746.324219 179.847656 "/>
<path fill="none" stroke-width="1.5" stroke-linecap="butt" stroke-linejoin="miter" stroke="rgb(30.196078%, 68.627451%, 29.019608%)" stroke-opacity="1" stroke-miterlimit="10" d="M 736.148438 172.875 C 735.351562 173.757812 734.734375 175.867188 735.148438 175.976562 "/>
<path fill-rule="nonzero" fill="rgb(30.196078%, 68.627451%, 29.019608%)" fill-opacity="1" d="M 742.046875 177.785156 L 734.558594 178.21875 L 735.738281 173.734375 L 742.046875 177.785156 "/>
<path fill="none" stroke-width="1.5" stroke-linecap="butt" stroke-linejoin="miter" stroke="rgb(30.196078%, 68.627451%, 29.019608%)" stroke-opacity="1" stroke-miterlimit="10" d="M 724.015625 165.046875 C 723.992188 167.3125 724.578125 170.300781 726.503906 170.730469 "/>
<path fill-rule="nonzero" fill="rgb(30.196078%, 68.627451%, 29.019608%)" fill-opacity="1" d="M 733.46875 172.277344 L 726 172.992188 L 727.007812 168.464844 L 733.46875 172.277344 "/>
<path fill="none" stroke-width="1.5" stroke-linecap="butt" stroke-linejoin="miter" stroke="rgb(30.196078%, 68.627451%, 29.019608%)" stroke-opacity="1" stroke-miterlimit="10" d="M 709.71875 156 C 710.191406 159.050781 711.5 162.511719 714.320312 163.082031 "/>
<path fill-rule="nonzero" fill="rgb(30.196078%, 68.627451%, 29.019608%)" fill-opacity="1" d="M 721.3125 164.496094 L 713.859375 165.355469 L 714.78125 160.8125 L 721.3125 164.496094 "/>
<path fill="none" stroke-width="1.5" stroke-linecap="butt" stroke-linejoin="miter" stroke="rgb(98.431373%, 60.392157%, 60%)" stroke-opacity="1" stroke-miterlimit="10" d="M 226.394531 406.996094 C 219.457031 399.714844 210.792969 395.136719 200.914062 396.621094 "/>
<path fill-rule="nonzero" fill="rgb(98.431373%, 60.392157%, 60%)" fill-opacity="1" d="M 193.859375 397.683594 L 200.570312 394.332031 L 201.257812 398.914062 L 193.859375 397.683594 "/>
<path fill="none" stroke-width="1.5" stroke-linecap="butt" stroke-linejoin="miter" stroke="rgb(12.156863%, 47.058824%, 70.588235%)" stroke-opacity="1" stroke-miterlimit="10" d="M 402.21875 436.582031 C 408.363281 441.792969 415.738281 444.914062 423.398438 442.6875 "/>
<path fill-rule="nonzero" fill="rgb(12.156863%, 47.058824%, 70.588235%)" fill-opacity="1" d="M 430.25 440.695312 L 424.046875 444.914062 L 422.753906 440.460938 L 430.25 440.695312 "/>
<path fill="none" stroke-width="1.5" stroke-linecap="butt" stroke-linejoin="miter" stroke="rgb(30.196078%, 68.627451%, 29.019608%)" stroke-opacity="1" stroke-miterlimit="10" d="M 614.039062 92.476562 C 614.835938 95.953125 616.597656 99.652344 619.929688 100.253906 "/>
<path fill-rule="nonzero" fill="rgb(30.196078%, 68.627451%, 29.019608%)" fill-opacity="1" d="M 626.949219 101.527344 L 619.515625 102.535156 L 620.34375 97.972656 L 626.949219 101.527344 "/>
<path fill="none" stroke-width="1.5" stroke-linecap="butt" stroke-linejoin="miter" stroke="rgb(98.431373%, 60.392157%, 60%)" stroke-opacity="1" stroke-miterlimit="10" d="M 262.996094 415.6875 C 255.609375 408.230469 246.488281 403.675781 236.1875 405.375 "/>
<path fill-rule="nonzero" fill="rgb(98.431373%, 60.392157%, 60%)" fill-opacity="1" d="M 229.152344 406.539062 L 235.8125 403.089844 L 236.566406 407.664062 L 229.152344 406.539062 "/>
<path fill="none" stroke-width="1.5" stroke-linecap="butt" stroke-linejoin="miter" stroke="rgb(30.196078%, 68.627451%, 29.019608%)" stroke-opacity="1" stroke-miterlimit="10" d="M 587.90625 74.574219 C 587.675781 76.726562 587.976562 79.675781 589.753906 80.199219 "/>
<path fill-rule="nonzero" fill="rgb(30.196078%, 68.627451%, 29.019608%)" fill-opacity="1" d="M 596.59375 82.222656 L 589.097656 82.421875 L 590.410156 77.976562 L 596.59375 82.222656 "/>
<path fill="none" stroke-width="1.5" stroke-linecap="butt" stroke-linejoin="miter" stroke="rgb(99.215686%, 74.901961%, 43.529412%)" stroke-opacity="1" stroke-miterlimit="10" d="M 60.34375 63.261719 C 61.324219 62.152344 60.894531 60.144531 61.542969 59.390625 "/>
<path fill-rule="nonzero" fill="rgb(99.215686%, 74.901961%, 43.529412%)" fill-opacity="1" d="M 56.882812 64.792969 L 59.789062 57.878906 L 63.296875 60.90625 L 56.882812 64.792969 "/>
<path fill="none" stroke-width="1.5" stroke-linecap="butt" stroke-linejoin="miter" stroke="rgb(99.215686%, 74.901961%, 43.529412%)" stroke-opacity="1" stroke-miterlimit="10" d="M 84.898438 54.585938 C 86.636719 54.03125 87.339844 51.972656 88.617188 51.25 "/>
<path fill-rule="nonzero" fill="rgb(99.215686%, 74.901961%, 43.529412%)" fill-opacity="1" d="M 82.410156 54.765625 L 87.476562 49.234375 L 89.761719 53.265625 L 82.410156 54.765625 "/>
<path fill="none" stroke-width="1.5" stroke-linecap="butt" stroke-linejoin="miter" stroke="rgb(30.196078%, 68.627451%, 29.019608%)" stroke-opacity="1" stroke-miterlimit="10" d="M 644.269531 112.429688 C 645.289062 116.703125 647.472656 120.96875 651.605469 121.945312 "/>
<path fill-rule="nonzero" fill="rgb(30.196078%, 68.627451%, 29.019608%)" fill-opacity="1" d="M 658.546875 123.589844 L 651.074219 124.203125 L 652.140625 119.691406 L 658.546875 123.589844 "/>
<path fill="none" stroke-width="1.5" stroke-linecap="butt" stroke-linejoin="miter" stroke="rgb(99.215686%, 74.901961%, 43.529412%)" stroke-opacity="1" stroke-miterlimit="10" d="M 72.03125 58.382812 C 72.585938 55.835938 71.046875 53.730469 70.558594 51.40625 "/>
<path fill-rule="nonzero" fill="rgb(99.215686%, 74.901961%, 43.529412%)" fill-opacity="1" d="M 72.03125 58.382812 L 68.289062 51.882812 L 72.824219 50.925781 L 72.03125 58.382812 "/>
<path fill="none" stroke-width="1.5" stroke-linecap="butt" stroke-linejoin="miter" stroke="rgb(99.215686%, 74.901961%, 43.529412%)" stroke-opacity="1" stroke-miterlimit="10" d="M 54.371094 67.699219 C 56.351562 68.238281 58.175781 66.867188 59.917969 66.824219 "/>
<path fill-rule="nonzero" fill="rgb(99.215686%, 74.901961%, 43.529412%)" fill-opacity="1" d="M 52.789062 67 L 59.863281 64.507812 L 59.976562 69.140625 L 52.789062 67 "/>
<path fill="none" stroke-width="1.5" stroke-linecap="butt" stroke-linejoin="miter" stroke="rgb(99.215686%, 74.901961%, 43.529412%)" stroke-opacity="1" stroke-miterlimit="10" d="M 54.371094 67.699219 C 51.605469 66.761719 49.101562 68.082031 46.414062 68.460938 "/>
<path fill-rule="nonzero" fill="rgb(99.215686%, 74.901961%, 43.529412%)" fill-opacity="1" d="M 53.476562 67.464844 L 46.738281 70.757812 L 46.089844 66.167969 L 53.476562 67.464844 "/>
<path fill="none" stroke-width="1.5" stroke-linecap="butt" stroke-linejoin="miter" stroke="rgb(99.215686%, 74.901961%, 43.529412%)" stroke-opacity="1" stroke-miterlimit="10" d="M 54.371094 67.699219 C 53.054688 65.867188 50.667969 65.722656 49.03125 64.605469 "/>
<path fill-rule="nonzero" fill="rgb(99.215686%, 74.901961%, 43.529412%)" fill-opacity="1" d="M 54.917969 68.628906 L 47.722656 66.519531 L 50.335938 62.691406 L 54.917969 68.628906 "/>
<path fill="none" stroke-width="1.5" stroke-linecap="butt" stroke-linejoin="miter" stroke="rgb(30.196078%, 68.627451%, 29.019608%)" stroke-opacity="1" stroke-miterlimit="10" d="M 661.246094 124.226562 C 662.402344 128.304688 664.6875 132.367188 668.707031 133.101562 "/>
<path fill-rule="nonzero" fill="rgb(30.196078%, 68.627451%, 29.019608%)" fill-opacity="1" d="M 675.726562 134.375 L 668.292969 135.378906 L 669.121094 130.820312 L 675.726562 134.375 "/>
<path fill="none" stroke-width="1.5" stroke-linecap="butt" stroke-linejoin="miter" stroke="rgb(41.568627%, 23.921569%, 60.392157%)" stroke-opacity="1" stroke-miterlimit="10" d="M 76.152344 739.558594 C 78.5625 739.378906 80.023438 737.363281 81.964844 736.398438 "/>
<path fill-rule="nonzero" fill="rgb(41.568627%, 23.921569%, 60.392157%)" fill-opacity="1" d="M 75.578125 739.574219 L 80.929688 734.324219 L 82.996094 738.472656 L 75.578125 739.574219 "/>
<path fill="none" stroke-width="1.5" stroke-linecap="butt" stroke-linejoin="miter" stroke="rgb(99.215686%, 74.901961%, 43.529412%)" stroke-opacity="1" stroke-miterlimit="10" d="M 72.359375 59.953125 C 71.804688 62.5 73.34375 64.605469 73.835938 66.933594 "/>
<path fill-rule="nonzero" fill="rgb(99.215686%, 74.901961%, 43.529412%)" fill-opacity="1" d="M 72.359375 59.953125 L 76.101562 66.453125 L 71.566406 67.410156 L 72.359375 59.953125 "/>
<path fill="none" stroke-width="1.5" stroke-linecap="butt" stroke-linejoin="miter" stroke="rgb(99.215686%, 74.901961%, 43.529412%)" stroke-opacity="1" stroke-miterlimit="10" d="M 72.359375 59.953125 C 73.832031 59.46875 74.46875 57.496094 75.484375 57.089844 "/>
<path fill-rule="nonzero" fill="rgb(99.215686%, 74.901961%, 43.529412%)" fill-opacity="1" d="M 68.859375 59.734375 L 74.625 54.9375 L 76.34375 59.242188 L 68.859375 59.734375 "/>
<path fill="none" stroke-width="1.5" stroke-linecap="butt" stroke-linejoin="miter" stroke="rgb(99.215686%, 74.901961%, 43.529412%)" stroke-opacity="1" stroke-miterlimit="10" d="M 79.964844 56.152344 C 80.515625 55.101562 79.839844 53.199219 80.15625 52.910156 "/>
<path fill-rule="nonzero" fill="rgb(99.215686%, 74.901961%, 43.529412%)" fill-opacity="1" d="M 74.863281 57.691406 L 78.601562 51.191406 L 81.710938 54.628906 L 74.863281 57.691406 "/>
<path fill="none" stroke-width="1.5" stroke-linecap="butt" stroke-linejoin="miter" stroke="rgb(99.215686%, 74.901961%, 43.529412%)" stroke-opacity="1" stroke-miterlimit="10" d="M 50 67.066406 C 47.867188 66.03125 45.621094 67.035156 43.511719 66.875 "/>
<path fill-rule="nonzero" fill="rgb(99.215686%, 74.901961%, 43.529412%)" fill-opacity="1" d="M 50.625 67.414062 L 43.335938 69.1875 L 43.6875 64.566406 L 50.625 67.414062 "/>
<path fill="none" stroke-width="1.5" stroke-linecap="butt" stroke-linejoin="miter" stroke="rgb(41.568627%, 23.921569%, 60.392157%)" stroke-opacity="1" stroke-miterlimit="10" d="M 73.109375 740.804688 C 75.332031 740.257812 76.371094 738.082031 78.042969 736.941406 "/>
<path fill-rule="nonzero" fill="rgb(41.568627%, 23.921569%, 60.392157%)" fill-opacity="1" d="M 72.148438 740.957031 L 76.738281 735.027344 L 79.351562 738.859375 L 72.148438 740.957031 "/>
<path fill="none" stroke-width="1.5" stroke-linecap="butt" stroke-linejoin="miter" stroke="rgb(98.431373%, 60.392157%, 60%)" stroke-opacity="1" stroke-miterlimit="10" d="M 104.894531 375.691406 C 102.410156 371.953125 98.816406 368.65625 94.503906 369.15625 "/>
<path fill-rule="nonzero" fill="rgb(98.431373%, 60.392157%, 60%)" fill-opacity="1" d="M 87.417969 369.972656 L 94.238281 366.855469 L 94.769531 371.457031 L 87.417969 369.972656 "/>
<path fill="none" stroke-width="1.5" stroke-linecap="butt" stroke-linejoin="miter" stroke="rgb(12.156863%, 47.058824%, 70.588235%)" stroke-opacity="1" stroke-miterlimit="10" d="M 506.089844 442.773438 C 504.1875 441.558594 501.917969 442.3125 499.980469 441.882812 "/>
<path fill-rule="nonzero" fill="rgb(12.156863%, 47.058824%, 70.588235%)" fill-opacity="1" d="M 506.945312 443.429688 L 499.480469 444.144531 L 500.484375 439.621094 L 506.945312 443.429688 "/>
<path fill="none" stroke-width="1.5" stroke-linecap="butt" stroke-linejoin="miter" stroke="rgb(99.215686%, 74.901961%, 43.529412%)" stroke-opacity="1" stroke-miterlimit="10" d="M 66.226562 60.785156 C 67.449219 59.910156 67.472656 57.855469 68.289062 57.234375 "/>
<path fill-rule="nonzero" fill="rgb(99.215686%, 74.901961%, 43.529412%)" fill-opacity="1" d="M 62.605469 61.546875 L 66.886719 55.386719 L 69.691406 59.082031 L 62.605469 61.546875 "/>
<path fill="none" stroke-width="1.5" stroke-linecap="butt" stroke-linejoin="miter" stroke="rgb(99.215686%, 74.901961%, 43.529412%)" stroke-opacity="1" stroke-miterlimit="10" d="M 88.960938 52.527344 C 90.839844 51.804688 91.476562 49.636719 92.832031 48.621094 "/>
<path fill-rule="nonzero" fill="rgb(99.215686%, 74.901961%, 43.529412%)" fill-opacity="1" d="M 87.132812 52.90625 L 91.441406 46.765625 L 94.226562 50.472656 L 87.132812 52.90625 "/>
<path fill="none" stroke-width="1.5" stroke-linecap="butt" stroke-linejoin="miter" stroke="rgb(98.431373%, 60.392157%, 60%)" stroke-opacity="1" stroke-miterlimit="10" d="M 130.859375 382.644531 C 126.710938 377.496094 121.195312 373.648438 114.734375 374.457031 "/>
<path fill-rule="nonzero" fill="rgb(98.431373%, 60.392157%, 60%)" fill-opacity="1" d="M 107.65625 375.347656 L 114.445312 372.160156 L 115.023438 376.757812 L 107.65625 375.347656 "/>
<path fill="none" stroke-width="1.5" stroke-linecap="butt" stroke-linejoin="miter" stroke="rgb(98.431373%, 60.392157%, 60%)" stroke-opacity="1" stroke-miterlimit="10" d="M 191.09375 398.097656 C 185.304688 391.785156 177.953125 387.585938 169.558594 388.851562 "/>
<path fill-rule="nonzero" fill="rgb(98.431373%, 60.392157%, 60%)" fill-opacity="1" d="M 162.503906 389.917969 L 169.210938 386.5625 L 169.902344 391.144531 L 162.503906 389.917969 "/>
<path fill="none" stroke-width="1.5" stroke-linecap="butt" stroke-linejoin="miter" stroke="rgb(99.215686%, 74.901961%, 43.529412%)" stroke-opacity="1" stroke-miterlimit="10" d="M 57.207031 70.191406 C 58.292969 72.550781 60.785156 73.300781 62.566406 74.859375 "/>
<path fill-rule="nonzero" fill="rgb(99.215686%, 74.901961%, 43.529412%)" fill-opacity="1" d="M 57.195312 70.167969 L 64.09375 73.113281 L 61.042969 76.605469 L 57.195312 70.167969 "/>
<path fill="none" stroke-width="1.5" stroke-linecap="butt" stroke-linejoin="miter" stroke="rgb(41.568627%, 23.921569%, 60.392157%)" stroke-opacity="1" stroke-miterlimit="10" d="M 66.957031 745.042969 C 68.871094 743.457031 68.917969 740.929688 69.949219 738.9375 "/>
<path fill-rule="nonzero" fill="rgb(41.568627%, 23.921569%, 60.392157%)" fill-opacity="1" d="M 66.667969 745.269531 L 67.890625 737.871094 L 72.003906 740.003906 L 66.667969 745.269531 "/>
<path fill="none" stroke-width="1.5" stroke-linecap="butt" stroke-linejoin="miter" stroke="rgb(98.431373%, 60.392157%, 60%)" stroke-opacity="1" stroke-miterlimit="10" d="M 69.351562 368.5625 C 70.59375 368.363281 71.621094 366.628906 72.222656 366.667969 "/>
<path fill-rule="nonzero" fill="rgb(98.431373%, 60.392157%, 60%)" fill-opacity="1" d="M 65.105469 366.199219 L 72.375 364.355469 L 72.070312 368.980469 L 65.105469 366.199219 "/>
<path fill="none" stroke-width="1.5" stroke-linecap="butt" stroke-linejoin="miter" stroke="rgb(12.156863%, 47.058824%, 70.588235%)" stroke-opacity="1" stroke-miterlimit="10" d="M 300.15625 425.101562 C 307.613281 431.386719 316.460938 434.917969 325.816406 432.410156 "/>
<path fill-rule="nonzero" fill="rgb(12.156863%, 47.058824%, 70.588235%)" fill-opacity="1" d="M 332.707031 430.566406 L 326.417969 434.652344 L 325.21875 430.171875 L 332.707031 430.566406 "/>
<path fill="none" stroke-width="1.5" stroke-linecap="butt" stroke-linejoin="miter" stroke="rgb(98.431373%, 60.392157%, 60%)" stroke-opacity="1" stroke-miterlimit="10" d="M 300.15625 425.101562 C 292.675781 417.371094 283.394531 412.621094 272.816406 414.210938 "/>
<path fill-rule="nonzero" fill="rgb(98.431373%, 60.392157%, 60%)" fill-opacity="1" d="M 265.761719 415.273438 L 272.46875 411.917969 L 273.160156 416.503906 L 265.761719 415.273438 "/>
<path fill="none" stroke-width="1.5" stroke-linecap="butt" stroke-linejoin="miter" stroke="rgb(41.568627%, 23.921569%, 60.392157%)" stroke-opacity="1" stroke-miterlimit="10" d="M 65.398438 747.714844 C 68.242188 746.648438 69.398438 743.972656 71.292969 741.863281 "/>
<path fill-rule="nonzero" fill="rgb(41.568627%, 23.921569%, 60.392157%)" fill-opacity="1" d="M 66.523438 747.167969 L 69.570312 740.316406 L 73.019531 743.414062 L 66.523438 747.167969 "/>
<path fill="none" stroke-width="1.5" stroke-linecap="butt" stroke-linejoin="miter" stroke="rgb(98.431373%, 60.392157%, 60%)" stroke-opacity="1" stroke-miterlimit="10" d="M 84.664062 370.292969 C 83.375 368.054688 81.195312 365.589844 78.941406 366.15625 "/>
<path fill-rule="nonzero" fill="rgb(98.431373%, 60.392157%, 60%)" fill-opacity="1" d="M 72.019531 367.890625 L 78.375 363.90625 L 79.503906 368.402344 L 72.019531 367.890625 "/>
<path fill="none" stroke-width="1.5" stroke-linecap="butt" stroke-linejoin="miter" stroke="rgb(98.431373%, 60.392157%, 60%)" stroke-opacity="1" stroke-miterlimit="10" d="M 159.746094 390.335938 C 154.742188 384.484375 148.246094 380.371094 140.695312 381.359375 "/>
<path fill-rule="nonzero" fill="rgb(98.431373%, 60.392157%, 60%)" fill-opacity="1" d="M 133.625 382.28125 L 140.394531 379.058594 L 140.996094 383.65625 L 133.625 382.28125 "/>
<path fill="none" stroke-width="1.5" stroke-linecap="butt" stroke-linejoin="miter" stroke="rgb(12.156863%, 47.058824%, 70.588235%)" stroke-opacity="1" stroke-miterlimit="10" d="M 369.507812 433.910156 C 376.402344 439.304688 384.503906 442.285156 392.769531 439.625 "/>
<path fill-rule="nonzero" fill="rgb(12.156863%, 47.058824%, 70.588235%)" fill-opacity="1" d="M 399.5625 437.4375 L 393.480469 441.832031 L 392.0625 437.417969 L 399.5625 437.4375 "/>
<path fill="none" stroke-width="1.5" stroke-linecap="butt" stroke-linejoin="miter" stroke="rgb(99.215686%, 74.901961%, 43.529412%)" stroke-opacity="1" stroke-miterlimit="10" d="M 93.246094 50 C 94.898438 49.09375 95.210938 46.917969 96.355469 45.886719 "/>
<path fill-rule="nonzero" fill="rgb(99.215686%, 74.901961%, 43.529412%)" fill-opacity="1" d="M 91.050781 50.65625 L 94.808594 44.164062 L 97.902344 47.613281 L 91.050781 50.65625 "/>
<path fill="none" stroke-width="2.5" stroke-linecap="butt" stroke-linejoin="miter" stroke="rgb(70.196078%, 70.196078%, 70.196078%)" stroke-opacity="1" stroke-miterlimit="10" d="M 301.398438 430.390625 C 301.148438 432.777344 302.863281 434.5625 303.457031 436.625 "/>
<path fill-rule="nonzero" fill="rgb(70.196078%, 70.196078%, 70.196078%)" fill-opacity="1" d="M 301.492188 429.769531 L 305.683594 435.988281 L 301.226562 437.265625 L 301.492188 429.769531 "/>
<path fill="none" stroke-width="1.5" stroke-linecap="butt" stroke-linejoin="miter" stroke="rgb(41.568627%, 23.921569%, 60.392157%)" stroke-opacity="1" stroke-miterlimit="10" d="M 69.863281 742.515625 C 71.820312 741.445312 72.242188 739.105469 73.539062 737.644531 "/>
<path fill-rule="nonzero" fill="rgb(41.568627%, 23.921569%, 60.392157%)" fill-opacity="1" d="M 68.800781 742.972656 L 71.808594 736.101562 L 75.273438 739.183594 L 68.800781 742.972656 "/>
<path fill="none" stroke-width="1.5" stroke-linecap="butt" stroke-linejoin="miter" stroke="rgb(12.156863%, 47.058824%, 70.588235%)" stroke-opacity="1" stroke-miterlimit="10" d="M 301.648438 434.167969 C 299.765625 436.8125 300.277344 439.847656 299.917969 442.878906 "/>
<path fill-rule="nonzero" fill="rgb(12.156863%, 47.058824%, 70.588235%)" fill-opacity="1" d="M 300.757812 435.796875 L 302.222656 443.152344 L 297.617188 442.605469 L 300.757812 435.796875 "/>
<path fill="none" stroke-width="1.5" stroke-linecap="butt" stroke-linejoin="miter" stroke="rgb(98.431373%, 60.392157%, 60%)" stroke-opacity="1" stroke-miterlimit="10" d="M 302.410156 427.832031 C 304.277344 426.015625 304.15625 423.410156 305.03125 421.199219 "/>
<path fill-rule="nonzero" fill="rgb(98.431373%, 60.392157%, 60%)" fill-opacity="1" d="M 302.410156 427.832031 L 302.875 420.347656 L 307.1875 422.050781 L 302.410156 427.832031 "/>
<path fill="none" stroke-width="1.5" stroke-linecap="butt" stroke-linejoin="miter" stroke="rgb(12.156863%, 47.058824%, 70.588235%)" stroke-opacity="1" stroke-miterlimit="10" d="M 301.03125 437.203125 C 299.734375 439.320312 300.503906 441.726562 300.171875 443.945312 "/>
<path fill-rule="nonzero" fill="rgb(12.156863%, 47.058824%, 70.588235%)" fill-opacity="1" d="M 301.234375 436.890625 L 302.460938 444.289062 L 297.878906 443.597656 L 301.234375 436.890625 "/>
<path fill-rule="nonzero" fill="rgb(100%, 84.313725%, 0%)" fill-opacity="1" stroke-width="1" stroke-linecap="butt" stroke-linejoin="miter" stroke="rgb(100%, 84.313725%, 0%)" stroke-opacity="1" stroke-miterlimit="10" d="M 575.667969 66.917969 L 582.167969 66.917969 L 582.167969 73.417969 L 575.667969 73.417969 Z M 575.667969 66.917969 "/>
<path fill-rule="nonzero" fill="rgb(12.156863%, 47.058824%, 70.588235%)" fill-opacity="1" stroke-width="1" stroke-linecap="butt" stroke-linejoin="miter" stroke="rgb(12.156863%, 47.058824%, 70.588235%)" stroke-opacity="1" stroke-miterlimit="10" d="M 338.15625 429.84375 C 338.15625 433.511719 332.65625 433.511719 332.65625 429.84375 C 332.65625 426.179688 338.15625 426.179688 338.15625 429.84375 "/>
<path fill-rule="nonzero" fill="rgb(12.156863%, 47.058824%, 70.588235%)" fill-opacity="1" stroke-width="1" stroke-linecap="butt" stroke-linejoin="miter" stroke="rgb(12.156863%, 47.058824%, 70.588235%)" stroke-opacity="1" stroke-miterlimit="10" d="M 460.164062 441.597656 C 460.164062 445.261719 454.664062 445.261719 454.664062 441.597656 C 454.664062 437.929688 460.164062 437.929688 460.164062 441.597656 "/>
<path fill-rule="nonzero" fill="rgb(30.196078%, 68.627451%, 29.019608%)" fill-opacity="1" stroke-width="1" stroke-linecap="butt" stroke-linejoin="miter" stroke="rgb(30.196078%, 68.627451%, 29.019608%)" stroke-opacity="1" stroke-miterlimit="10" d="M 697.875 145.621094 C 697.875 149.285156 692.375 149.285156 692.375 145.621094 C 692.375 141.953125 697.875 141.953125 697.875 145.621094 "/>
<path fill-rule="nonzero" fill="rgb(12.156863%, 47.058824%, 70.588235%)" fill-opacity="1" stroke-width="1" stroke-linecap="butt" stroke-linejoin="miter" stroke="rgb(12.156863%, 47.058824%, 70.588235%)" stroke-opacity="1" stroke-miterlimit="10" d="M 480.539062 441.683594 C 480.539062 445.351562 475.039062 445.351562 475.039062 441.683594 C 475.039062 438.015625 480.539062 438.015625 480.539062 441.683594 "/>
<path fill-rule="nonzero" fill="rgb(12.156863%, 47.058824%, 70.588235%)" fill-opacity="1" stroke-width="1" stroke-linecap="butt" stroke-linejoin="miter" stroke="rgb(12.156863%, 47.058824%, 70.588235%)" stroke-opacity="1" stroke-miterlimit="10" d="M 435.675781 439.917969 C 435.675781 443.582031 430.175781 443.582031 430.175781 439.917969 C 430.175781 436.25 435.675781 436.25 435.675781 439.917969 "/>
<path fill-rule="nonzero" fill="rgb(12.156863%, 47.058824%, 70.588235%)" fill-opacity="1" stroke-width="1" stroke-linecap="butt" stroke-linejoin="miter" stroke="rgb(12.156863%, 47.058824%, 70.588235%)" stroke-opacity="1" stroke-miterlimit="10" d="M 497.925781 441.746094 C 497.925781 445.410156 492.425781 445.410156 492.425781 441.746094 C 492.425781 438.078125 497.925781 438.078125 497.925781 441.746094 "/>
<path fill-rule="nonzero" fill="rgb(30.196078%, 68.627451%, 29.019608%)" fill-opacity="1" stroke-width="1" stroke-linecap="butt" stroke-linejoin="miter" stroke="rgb(30.196078%, 68.627451%, 29.019608%)" stroke-opacity="1" stroke-miterlimit="10" d="M 582.109375 72.109375 C 582.109375 75.777344 576.609375 75.777344 576.609375 72.109375 C 576.609375 68.441406 582.109375 68.441406 582.109375 72.109375 "/>
<path fill-rule="nonzero" fill="rgb(30.196078%, 68.627451%, 29.019608%)" fill-opacity="1" stroke-width="1" stroke-linecap="butt" stroke-linejoin="miter" stroke="rgb(30.196078%, 68.627451%, 29.019608%)" stroke-opacity="1" stroke-miterlimit="10" d="M 681.199219 134.871094 C 681.199219 138.539062 675.699219 138.539062 675.699219 134.871094 C 675.699219 131.207031 681.199219 131.207031 681.199219 134.871094 "/>
<path fill-rule="nonzero" fill="rgb(30.196078%, 68.627451%, 29.019608%)" fill-opacity="1" stroke-width="1" stroke-linecap="butt" stroke-linejoin="miter" stroke="rgb(30.196078%, 68.627451%, 29.019608%)" stroke-opacity="1" stroke-miterlimit="10" d="M 601.980469 83 C 601.980469 86.667969 596.480469 86.667969 596.480469 83 C 596.480469 79.335938 601.980469 79.335938 601.980469 83 "/>
<path fill-rule="nonzero" fill="rgb(30.196078%, 68.627451%, 29.019608%)" fill-opacity="1" stroke-width="1" stroke-linecap="butt" stroke-linejoin="miter" stroke="rgb(30.196078%, 68.627451%, 29.019608%)" stroke-opacity="1" stroke-miterlimit="10" d="M 632.417969 102.019531 C 632.417969 105.683594 626.917969 105.683594 626.917969 102.019531 C 626.917969 98.351562 632.417969 98.351562 632.417969 102.019531 "/>
<path fill-rule="nonzero" fill="rgb(30.196078%, 68.627451%, 29.019608%)" fill-opacity="1" stroke-width="1" stroke-linecap="butt" stroke-linejoin="miter" stroke="rgb(30.196078%, 68.627451%, 29.019608%)" stroke-opacity="1" stroke-miterlimit="10" d="M 747.429688 178.476562 C 747.429688 182.144531 741.929688 182.144531 741.929688 178.476562 C 741.929688 174.808594 747.429688 174.808594 747.429688 178.476562 "/>
<path fill-rule="nonzero" fill="rgb(30.196078%, 68.627451%, 29.019608%)" fill-opacity="1" stroke-width="1" stroke-linecap="butt" stroke-linejoin="miter" stroke="rgb(30.196078%, 68.627451%, 29.019608%)" stroke-opacity="1" stroke-miterlimit="10" d="M 738.898438 172.875 C 738.898438 176.542969 733.398438 176.542969 733.398438 172.875 C 733.398438 169.210938 738.898438 169.210938 738.898438 172.875 "/>
<path fill-rule="nonzero" fill="rgb(30.196078%, 68.627451%, 29.019608%)" fill-opacity="1" stroke-width="1" stroke-linecap="butt" stroke-linejoin="miter" stroke="rgb(30.196078%, 68.627451%, 29.019608%)" stroke-opacity="1" stroke-miterlimit="10" d="M 726.765625 165.046875 C 726.765625 168.710938 721.265625 168.710938 721.265625 165.046875 C 721.265625 161.378906 726.765625 161.378906 726.765625 165.046875 "/>
<path fill-rule="nonzero" fill="rgb(14.901961%, 14.901961%, 14.901961%)" fill-opacity="1" stroke-width="1" stroke-linecap="butt" stroke-linejoin="miter" stroke="rgb(14.901961%, 14.901961%, 14.901961%)" stroke-opacity="1" stroke-miterlimit="10" d="M 746.25 184.550781 L 750 177.050781 L 753.75 184.550781 Z M 746.25 184.550781 "/>
<path fill-rule="nonzero" fill="rgb(30.196078%, 68.627451%, 29.019608%)" fill-opacity="1" stroke-width="1" stroke-linecap="butt" stroke-linejoin="miter" stroke="rgb(30.196078%, 68.627451%, 29.019608%)" stroke-opacity="1" stroke-miterlimit="10" d="M 712.46875 156 C 712.46875 159.667969 706.96875 159.667969 706.96875 156 C 706.96875 152.332031 712.46875 152.332031 712.46875 156 "/>
<path fill-rule="nonzero" fill="rgb(98.431373%, 60.392157%, 60%)" fill-opacity="1" stroke-width="1" stroke-linecap="butt" stroke-linejoin="miter" stroke="rgb(98.431373%, 60.392157%, 60%)" stroke-opacity="1" stroke-miterlimit="10" d="M 229.144531 406.996094 C 229.144531 410.660156 223.644531 410.660156 223.644531 406.996094 C 223.644531 403.328125 229.144531 403.328125 229.144531 406.996094 "/>
<path fill-rule="nonzero" fill="rgb(12.156863%, 47.058824%, 70.588235%)" fill-opacity="1" stroke-width="1" stroke-linecap="butt" stroke-linejoin="miter" stroke="rgb(12.156863%, 47.058824%, 70.588235%)" stroke-opacity="1" stroke-miterlimit="10" d="M 404.96875 436.582031 C 404.96875 440.25 399.46875 440.25 399.46875 436.582031 C 399.46875 432.914062 404.96875 432.914062 404.96875 436.582031 "/>
<path fill-rule="nonzero" fill="rgb(30.196078%, 68.627451%, 29.019608%)" fill-opacity="1" stroke-width="1" stroke-linecap="butt" stroke-linejoin="miter" stroke="rgb(30.196078%, 68.627451%, 29.019608%)" stroke-opacity="1" stroke-miterlimit="10" d="M 616.789062 92.476562 C 616.789062 96.140625 611.289062 96.140625 611.289062 92.476562 C 611.289062 88.808594 616.789062 88.808594 616.789062 92.476562 "/>
<path fill-rule="nonzero" fill="rgb(98.431373%, 60.392157%, 60%)" fill-opacity="1" stroke-width="1" stroke-linecap="butt" stroke-linejoin="miter" stroke="rgb(98.431373%, 60.392157%, 60%)" stroke-opacity="1" stroke-miterlimit="10" d="M 265.746094 415.6875 C 265.746094 419.355469 260.246094 419.355469 260.246094 415.6875 C 260.246094 412.019531 265.746094 412.019531 265.746094 415.6875 "/>
<path fill-rule="nonzero" fill="rgb(30.196078%, 68.627451%, 29.019608%)" fill-opacity="1" stroke-width="1" stroke-linecap="butt" stroke-linejoin="miter" stroke="rgb(30.196078%, 68.627451%, 29.019608%)" stroke-opacity="1" stroke-miterlimit="10" d="M 590.65625 74.574219 C 590.65625 78.238281 585.15625 78.238281 585.15625 74.574219 C 585.15625 70.90625 590.65625 70.90625 590.65625 74.574219 "/>
<path fill-rule="nonzero" fill="rgb(99.215686%, 74.901961%, 43.529412%)" fill-opacity="1" stroke-width="1" stroke-linecap="butt" stroke-linejoin="miter" stroke="rgb(99.215686%, 74.901961%, 43.529412%)" stroke-opacity="1" stroke-miterlimit="10" d="M 63.09375 63.261719 C 63.09375 66.929688 57.59375 66.929688 57.59375 63.261719 C 57.59375 59.59375 63.09375 59.59375 63.09375 63.261719 "/>
<path fill-rule="nonzero" fill="rgb(99.215686%, 74.901961%, 43.529412%)" fill-opacity="1" stroke-width="1" stroke-linecap="butt" stroke-linejoin="miter" stroke="rgb(99.215686%, 74.901961%, 43.529412%)" stroke-opacity="1" stroke-miterlimit="10" d="M 87.648438 54.585938 C 87.648438 58.25 82.148438 58.25 82.148438 54.585938 C 82.148438 50.917969 87.648438 50.917969 87.648438 54.585938 "/>
<path fill-rule="nonzero" fill="rgb(30.196078%, 68.627451%, 29.019608%)" fill-opacity="1" stroke-width="1" stroke-linecap="butt" stroke-linejoin="miter" stroke="rgb(30.196078%, 68.627451%, 29.019608%)" stroke-opacity="1" stroke-miterlimit="10" d="M 647.019531 112.429688 C 647.019531 116.097656 641.519531 116.097656 641.519531 112.429688 C 641.519531 108.761719 647.019531 108.761719 647.019531 112.429688 "/>
<path fill-rule="nonzero" fill="rgb(99.215686%, 74.901961%, 43.529412%)" fill-opacity="1" stroke-width="1" stroke-linecap="butt" stroke-linejoin="miter" stroke="rgb(99.215686%, 74.901961%, 43.529412%)" stroke-opacity="1" stroke-miterlimit="10" d="M 74.78125 58.382812 C 74.78125 62.050781 69.28125 62.050781 69.28125 58.382812 C 69.28125 54.71875 74.78125 54.71875 74.78125 58.382812 "/>
<path fill-rule="nonzero" fill="rgb(99.215686%, 74.901961%, 43.529412%)" fill-opacity="1" stroke-width="1" stroke-linecap="butt" stroke-linejoin="miter" stroke="rgb(99.215686%, 74.901961%, 43.529412%)" stroke-opacity="1" stroke-miterlimit="10" d="M 58.121094 67.699219 C 58.121094 72.699219 50.621094 72.699219 50.621094 67.699219 C 50.621094 62.699219 58.121094 62.699219 58.121094 67.699219 "/>
<path fill-rule="nonzero" fill="rgb(30.196078%, 68.627451%, 29.019608%)" fill-opacity="1" stroke-width="1" stroke-linecap="butt" stroke-linejoin="miter" stroke="rgb(30.196078%, 68.627451%, 29.019608%)" stroke-opacity="1" stroke-miterlimit="10" d="M 663.996094 124.226562 C 663.996094 127.890625 658.496094 127.890625 658.496094 124.226562 C 658.496094 120.558594 663.996094 120.558594 663.996094 124.226562 "/>
<path fill-rule="nonzero" fill="rgb(100%, 84.313725%, 0%)" fill-opacity="1" stroke-width="1" stroke-linecap="butt" stroke-linejoin="miter" stroke="rgb(100%, 84.313725%, 0%)" stroke-opacity="1" stroke-miterlimit="10" d="M 72.902344 736.308594 L 79.402344 736.308594 L 79.402344 742.808594 L 72.902344 742.808594 Z M 72.902344 736.308594 "/>
<path fill-rule="nonzero" fill="rgb(99.215686%, 74.901961%, 43.529412%)" fill-opacity="1" stroke-width="1" stroke-linecap="butt" stroke-linejoin="miter" stroke="rgb(99.215686%, 74.901961%, 43.529412%)" stroke-opacity="1" stroke-miterlimit="10" d="M 75.609375 59.953125 C 75.609375 64.285156 69.109375 64.285156 69.109375 59.953125 C 69.109375 55.621094 75.609375 55.621094 75.609375 59.953125 "/>
<path fill-rule="nonzero" fill="rgb(99.215686%, 74.901961%, 43.529412%)" fill-opacity="1" stroke-width="1" stroke-linecap="butt" stroke-linejoin="miter" stroke="rgb(99.215686%, 74.901961%, 43.529412%)" stroke-opacity="1" stroke-miterlimit="10" d="M 82.714844 56.152344 C 82.714844 59.816406 77.214844 59.816406 77.214844 56.152344 C 77.214844 52.484375 82.714844 52.484375 82.714844 56.152344 "/>
<path fill-rule="nonzero" fill="rgb(99.215686%, 74.901961%, 43.529412%)" fill-opacity="1" stroke-width="1" stroke-linecap="butt" stroke-linejoin="miter" stroke="rgb(99.215686%, 74.901961%, 43.529412%)" stroke-opacity="1" stroke-miterlimit="10" d="M 52.75 67.066406 C 52.75 70.734375 47.25 70.734375 47.25 67.066406 C 47.25 63.402344 52.75 63.402344 52.75 67.066406 "/>
<path fill-rule="nonzero" fill="rgb(41.568627%, 23.921569%, 60.392157%)" fill-opacity="1" stroke-width="1" stroke-linecap="butt" stroke-linejoin="miter" stroke="rgb(41.568627%, 23.921569%, 60.392157%)" stroke-opacity="1" stroke-miterlimit="10" d="M 75.859375 740.804688 C 75.859375 744.46875 70.359375 744.46875 70.359375 740.804688 C 70.359375 737.136719 75.859375 737.136719 75.859375 740.804688 "/>
<path fill-rule="nonzero" fill="rgb(98.431373%, 60.392157%, 60%)" fill-opacity="1" stroke-width="1" stroke-linecap="butt" stroke-linejoin="miter" stroke="rgb(98.431373%, 60.392157%, 60%)" stroke-opacity="1" stroke-miterlimit="10" d="M 107.644531 375.691406 C 107.644531 379.359375 102.144531 379.359375 102.144531 375.691406 C 102.144531 372.027344 107.644531 372.027344 107.644531 375.691406 "/>
<path fill-rule="nonzero" fill="rgb(12.156863%, 47.058824%, 70.588235%)" fill-opacity="1" stroke-width="1" stroke-linecap="butt" stroke-linejoin="miter" stroke="rgb(12.156863%, 47.058824%, 70.588235%)" stroke-opacity="1" stroke-miterlimit="10" d="M 508.839844 442.773438 C 508.839844 446.441406 503.339844 446.441406 503.339844 442.773438 C 503.339844 439.105469 508.839844 439.105469 508.839844 442.773438 "/>
<path fill-rule="nonzero" fill="rgb(14.901961%, 14.901961%, 14.901961%)" fill-opacity="1" stroke-width="1" stroke-linecap="butt" stroke-linejoin="miter" stroke="rgb(14.901961%, 14.901961%, 14.901961%)" stroke-opacity="1" stroke-miterlimit="10" d="M 506.875 447.996094 L 510.625 440.496094 L 514.375 447.996094 Z M 506.875 447.996094 "/>
<path fill-rule="nonzero" fill="rgb(99.215686%, 74.901961%, 43.529412%)" fill-opacity="1" stroke-width="1" stroke-linecap="butt" stroke-linejoin="miter" stroke="rgb(99.215686%, 74.901961%, 43.529412%)" stroke-opacity="1" stroke-miterlimit="10" d="M 68.976562 60.785156 C 68.976562 64.453125 63.476562 64.453125 63.476562 60.785156 C 63.476562 57.117188 68.976562 57.117188 68.976562 60.785156 "/>
<path fill-rule="nonzero" fill="rgb(99.215686%, 74.901961%, 43.529412%)" fill-opacity="1" stroke-width="1" stroke-linecap="butt" stroke-linejoin="miter" stroke="rgb(99.215686%, 74.901961%, 43.529412%)" stroke-opacity="1" stroke-miterlimit="10" d="M 91.710938 52.527344 C 91.710938 56.195312 86.210938 56.195312 86.210938 52.527344 C 86.210938 48.863281 91.710938 48.863281 91.710938 52.527344 "/>
<path fill-rule="nonzero" fill="rgb(98.431373%, 60.392157%, 60%)" fill-opacity="1" stroke-width="1" stroke-linecap="butt" stroke-linejoin="miter" stroke="rgb(98.431373%, 60.392157%, 60%)" stroke-opacity="1" stroke-miterlimit="10" d="M 133.609375 382.644531 C 133.609375 386.308594 128.109375 386.308594 128.109375 382.644531 C 128.109375 378.976562 133.609375 378.976562 133.609375 382.644531 "/>
<path fill-rule="nonzero" fill="rgb(98.431373%, 60.392157%, 60%)" fill-opacity="1" stroke-width="1" stroke-linecap="butt" stroke-linejoin="miter" stroke="rgb(98.431373%, 60.392157%, 60%)" stroke-opacity="1" stroke-miterlimit="10" d="M 193.84375 398.097656 C 193.84375 401.765625 188.34375 401.765625 188.34375 398.097656 C 188.34375 394.429688 193.84375 394.429688 193.84375 398.097656 "/>
<path fill-rule="nonzero" fill="rgb(14.901961%, 14.901961%, 14.901961%)" fill-opacity="1" stroke-width="1" stroke-linecap="butt" stroke-linejoin="miter" stroke="rgb(14.901961%, 14.901961%, 14.901961%)" stroke-opacity="1" stroke-miterlimit="10" d="M 53.46875 70.683594 L 57.21875 63.183594 L 60.96875 70.683594 Z M 53.46875 70.683594 "/>
<path fill-rule="nonzero" fill="rgb(99.215686%, 74.901961%, 43.529412%)" fill-opacity="1" stroke-width="1" stroke-linecap="butt" stroke-linejoin="miter" stroke="rgb(99.215686%, 74.901961%, 43.529412%)" stroke-opacity="1" stroke-miterlimit="10" d="M 59.957031 70.191406 C 59.957031 73.859375 54.457031 73.859375 54.457031 70.191406 C 54.457031 66.523438 59.957031 66.523438 59.957031 70.191406 "/>
<path fill-rule="nonzero" fill="rgb(41.568627%, 23.921569%, 60.392157%)" fill-opacity="1" stroke-width="1" stroke-linecap="butt" stroke-linejoin="miter" stroke="rgb(41.568627%, 23.921569%, 60.392157%)" stroke-opacity="1" stroke-miterlimit="10" d="M 69.707031 745.042969 C 69.707031 748.710938 64.207031 748.710938 64.207031 745.042969 C 64.207031 741.378906 69.707031 741.378906 69.707031 745.042969 "/>
<path fill-rule="nonzero" fill="rgb(98.431373%, 60.392157%, 60%)" fill-opacity="1" stroke-width="1" stroke-linecap="butt" stroke-linejoin="miter" stroke="rgb(98.431373%, 60.392157%, 60%)" stroke-opacity="1" stroke-miterlimit="10" d="M 72.101562 368.5625 C 72.101562 372.230469 66.601562 372.230469 66.601562 368.5625 C 66.601562 364.894531 72.101562 364.894531 72.101562 368.5625 "/>
<path fill-rule="nonzero" fill="rgb(70.196078%, 70.196078%, 70.196078%)" fill-opacity="1" stroke-width="1" stroke-linecap="butt" stroke-linejoin="miter" stroke="rgb(70.196078%, 70.196078%, 70.196078%)" stroke-opacity="1" stroke-miterlimit="10" d="M 305.007812 425.101562 C 305.007812 431.566406 295.304688 431.566406 295.304688 425.101562 C 295.304688 418.632812 305.007812 418.632812 305.007812 425.101562 "/>
<path fill-rule="nonzero" fill="rgb(41.568627%, 23.921569%, 60.392157%)" fill-opacity="1" stroke-width="1" stroke-linecap="butt" stroke-linejoin="miter" stroke="rgb(41.568627%, 23.921569%, 60.392157%)" stroke-opacity="1" stroke-miterlimit="10" d="M 68.148438 747.714844 C 68.148438 751.382812 62.648438 751.382812 62.648438 747.714844 C 62.648438 744.050781 68.148438 744.050781 68.148438 747.714844 "/>
<path fill-rule="nonzero" fill="rgb(14.901961%, 14.901961%, 14.901961%)" fill-opacity="1" stroke-width="1" stroke-linecap="butt" stroke-linejoin="miter" stroke="rgb(14.901961%, 14.901961%, 14.901961%)" stroke-opacity="1" stroke-miterlimit="10" d="M 60.226562 753.75 L 63.976562 746.25 L 67.726562 753.75 Z M 60.226562 753.75 "/>
<path fill-rule="nonzero" fill="rgb(98.431373%, 60.392157%, 60%)" fill-opacity="1" stroke-width="1" stroke-linecap="butt" stroke-linejoin="miter" stroke="rgb(98.431373%, 60.392157%, 60%)" stroke-opacity="1" stroke-miterlimit="10" d="M 87.414062 370.292969 C 87.414062 373.960938 81.914062 373.960938 81.914062 370.292969 C 81.914062 366.625 87.414062 366.625 87.414062 370.292969 "/>
<path fill-rule="nonzero" fill="rgb(98.431373%, 60.392157%, 60%)" fill-opacity="1" stroke-width="1" stroke-linecap="butt" stroke-linejoin="miter" stroke="rgb(98.431373%, 60.392157%, 60%)" stroke-opacity="1" stroke-miterlimit="10" d="M 162.496094 390.335938 C 162.496094 394 156.996094 394 156.996094 390.335938 C 156.996094 386.667969 162.496094 386.667969 162.496094 390.335938 "/>
<path fill-rule="nonzero" fill="rgb(12.156863%, 47.058824%, 70.588235%)" fill-opacity="1" stroke-width="1" stroke-linecap="butt" stroke-linejoin="miter" stroke="rgb(12.156863%, 47.058824%, 70.588235%)" stroke-opacity="1" stroke-miterlimit="10" d="M 372.257812 433.910156 C 372.257812 437.574219 366.757812 437.574219 366.757812 433.910156 C 366.757812 430.242188 372.257812 430.242188 372.257812 433.910156 "/>
<path fill-rule="nonzero" fill="rgb(100%, 84.313725%, 0%)" fill-opacity="1" stroke-width="1" stroke-linecap="butt" stroke-linejoin="miter" stroke="rgb(100%, 84.313725%, 0%)" stroke-opacity="1" stroke-miterlimit="10" d="M 89.996094 46.75 L 96.496094 46.75 L 96.496094 53.25 L 89.996094 53.25 Z M 89.996094 46.75 "/>
<path fill-rule="nonzero" fill="rgb(70.196078%, 70.196078%, 70.196078%)" fill-opacity="1" stroke-width="1" stroke-linecap="butt" stroke-linejoin="miter" stroke="rgb(70.196078%, 70.196078%, 70.196078%)" stroke-opacity="1" stroke-miterlimit="10" d="M 306.746094 430.390625 C 306.746094 437.523438 296.046875 437.523438 296.046875 430.390625 C 296.046875 423.257812 306.746094 423.257812 306.746094 430.390625 "/>
<path fill-rule="nonzero" fill="rgb(41.568627%, 23.921569%, 60.392157%)" fill-opacity="1" stroke-width="1" stroke-linecap="butt" stroke-linejoin="miter" stroke="rgb(41.568627%, 23.921569%, 60.392157%)" stroke-opacity="1" stroke-miterlimit="10" d="M 72.613281 742.515625 C 72.613281 746.183594 67.113281 746.183594 67.113281 742.515625 C 67.113281 738.851562 72.613281 738.851562 72.613281 742.515625 "/>
<path fill-rule="nonzero" fill="rgb(14.901961%, 14.901961%, 14.901961%)" fill-opacity="1" stroke-width="1" stroke-linecap="butt" stroke-linejoin="miter" stroke="rgb(14.901961%, 14.901961%, 14.901961%)" stroke-opacity="1" stroke-miterlimit="10" d="M 57.496094 369.695312 L 61.246094 362.195312 L 64.996094 369.695312 Z M 57.496094 369.695312 "/>
<path fill-rule="nonzero" fill="rgb(12.156863%, 47.058824%, 70.588235%)" fill-opacity="1" stroke-width="1" stroke-linecap="butt" stroke-linejoin="miter" stroke="rgb(12.156863%, 47.058824%, 70.588235%)" stroke-opacity="1" stroke-miterlimit="10" d="M 304.398438 434.167969 C 304.398438 437.835938 298.898438 437.835938 298.898438 434.167969 C 298.898438 430.503906 304.398438 430.503906 304.398438 434.167969 "/>
<path fill-rule="nonzero" fill="rgb(100%, 84.313725%, 0%)" fill-opacity="1" stroke-width="1" stroke-linecap="butt" stroke-linejoin="miter" stroke="rgb(100%, 84.313725%, 0%)" stroke-opacity="1" stroke-miterlimit="10" d="M 299.160156 424.582031 L 305.660156 424.582031 L 305.660156 431.082031 L 299.160156 431.082031 Z M 299.160156 424.582031 "/>
<path fill-rule="nonzero" fill="rgb(100%, 84.313725%, 0%)" fill-opacity="1" stroke-width="1" stroke-linecap="butt" stroke-linejoin="miter" stroke="rgb(100%, 84.313725%, 0%)" stroke-opacity="1" stroke-miterlimit="10" d="M 297.78125 433.953125 L 304.28125 433.953125 L 304.28125 440.453125 L 297.78125 440.453125 Z M 297.78125 433.953125 "/>
</svg>
