<?xml version="1.0" encoding="UTF-8"?>
<svg xmlns="http://www.w3.org/2000/svg" xmlns:xlink="http://www.w3.org/1999/xlink" width="800" height="800" viewBox="0 0 800 800">
<rect x="-80" y="-80" width="960" height="960" fill="rgb(100%, 100%, 100%)" fill-opacity="1"/>
<path fill="none" stroke-width="2.5" stroke-linecap="butt" stroke-linejoin="miter" stroke="rgb(70.196078%, 70.196078%, 70.196078%)" stroke-opacity="1" stroke-miterlimit="10" d="M 377.253906 50.972656 C 352.328125 37.5625 326.132812 34.648438 300.019531 45.492188 "/>
<path fill-rule="nonzero" fill="rgb(70.196078%, 70.196078%, 70.196078%)" fill-opacity="1" d="M 293.429688 48.230469 L 299.128906 43.351562 L 300.90625 47.632812 L 293.429688 48.230469 "/>
<path fill="none" stroke-width="2.5" stroke-linecap="butt" stroke-linejoin="miter" stroke="rgb(70.196078%, 70.196078%, 70.196078%)" stroke-opacity="1" stroke-miterlimit="10" d="M 289.167969 50 C 264.964844 51.035156 244.257812 60.242188 229.957031 79.753906 "/>
<path fill-rule="nonzero" fill="rgb(70.196078%, 70.196078%, 70.196078%)" fill-opacity="1" d="M 225.738281 85.507812 L 228.085938 78.382812 L 231.824219 81.125 L 225.738281 85.507812 "/>
<path fill="none" stroke-width="2.5" stroke-linecap="butt" stroke-linejoin="miter" stroke="rgb(70.196078%, 70.196078%, 70.196078%)" stroke-opacity="1" stroke-miterlimit="10" d="M 382.53125 220.367188 C 405.996094 197.738281 418.214844 170.046875 415.664062 137.566406 "/>
<path fill-rule="nonzero" fill="rgb(70.196078%, 70.196078%, 70.196078%)" fill-opacity="1" d="M 415.105469 130.457031 L 417.972656 137.386719 L 413.351562 137.75 L 415.105469 130.457031 "/>
<path fill="none" stroke-width="1.5" stroke-linecap="butt" stroke-linejoin="miter" stroke="rgb(30.196078%, 68.627451%, 29.019608%)" stroke-opacity="1" stroke-miterlimit="10" d="M 414.742188 125.851562 C 415.390625 99.300781 406.765625 76.078125 386.558594 58.890625 "/>
<path fill-rule="nonzero" fill="rgb(30.196078%, 68.627451%, 29.019608%)" fill-opacity="1" d="M 381.125 54.269531 L 388.0625 57.125 L 385.058594 60.65625 L 381.125 54.269531 "/>
<path fill="none" stroke-width="1.5" stroke-linecap="butt" stroke-linejoin="miter" stroke="rgb(99.215686%, 74.901961%, 43.529412%)" stroke-opacity="1" stroke-miterlimit="10" d="M 414.742188 125.851562 C 437.855469 111.144531 452.699219 90.394531 455.894531 63.210938 "/>
<path fill-rule="nonzero" fill="rgb(99.215686%, 74.901961%, 43.529412%)" fill-opacity="1" d="M 456.730469 56.125 L 458.199219 63.480469 L 453.59375 62.941406 L 456.730469 56.125 "/>
<path fill="none" stroke-width="1.5" stroke-linecap="butt" stroke-linejoin="miter" stroke="rgb(99.215686%, 74.901961%, 43.529412%)" stroke-opacity="1" stroke-miterlimit="10" d="M 457.035156 53.519531 C 435.28125 40.945312 412.058594 37.519531 388.648438 46.570312 "/>
<path fill-rule="nonzero" fill="rgb(99.215686%, 74.901961%, 43.529412%)" fill-opacity="1" d="M 381.996094 49.140625 L 387.8125 44.40625 L 389.484375 48.730469 L 381.996094 49.140625 "/>
<path fill="none" stroke-width="2.5" stroke-linecap="butt" stroke-linejoin="miter" stroke="rgb(70.196078%, 70.196078%, 70.196078%)" stroke-opacity="1" stroke-miterlimit="10" d="M 387.816406 322.429688 C 401.519531 291.910156 402.550781 260.878906 387.738281 230.90625 "/>
<path fill-rule="nonzero" fill="rgb(70.196078%, 70.196078%, 70.196078%)" fill-opacity="1" d="M 384.578125 224.511719 L 389.816406 229.878906 L 385.660156 231.933594 L 384.578125 224.511719 "/>
<path fill="none" stroke-width="1.5" stroke-linecap="butt" stroke-linejoin="miter" stroke="rgb(98.431373%, 60.392157%, 60%)" stroke-opacity="1" stroke-miterlimit="10" d="M 240.1875 593.628906 C 203.132812 586.394531 168.894531 593.363281 139.621094 617.175781 "/>
<path fill-rule="nonzero" fill="rgb(98.431373%, 60.392157%, 60%)" fill-opacity="1" d="M 134.085938 621.679688 L 138.15625 615.378906 L 141.082031 618.976562 L 134.085938 621.679688 "/>
<path fill="none" stroke-width="2.5" stroke-linecap="butt" stroke-linejoin="miter" stroke="rgb(70.196078%, 70.196078%, 70.196078%)" stroke-opacity="1" stroke-miterlimit="10" d="M 595.84375 351.332031 C 561.925781 364.351562 537.46875 387.492188 525.847656 421.890625 "/>
<path fill-rule="nonzero" fill="rgb(70.196078%, 70.196078%, 70.196078%)" fill-opacity="1" d="M 523.5625 428.648438 L 523.648438 421.148438 L 528.042969 422.632812 L 523.5625 428.648438 "/>
<path fill="none" stroke-width="1.5" stroke-linecap="butt" stroke-linejoin="miter" stroke="rgb(41.568627%, 23.921569%, 60.392157%)" stroke-opacity="1" stroke-miterlimit="10" d="M 498.824219 665.722656 C 491.734375 691.8125 494.679688 716.820312 510.421875 738.765625 "/>
<path fill-rule="nonzero" fill="rgb(41.568627%, 23.921569%, 60.392157%)" fill-opacity="1" d="M 514.578125 744.5625 L 508.539062 740.117188 L 512.304688 737.417969 L 514.578125 744.5625 "/>
<path fill="none" stroke-width="2.5" stroke-linecap="butt" stroke-linejoin="miter" stroke="rgb(70.196078%, 70.196078%, 70.196078%)" stroke-opacity="1" stroke-miterlimit="10" d="M 443.441406 431.597656 C 443.175781 390.71875 428.410156 355.914062 396.886719 329.914062 "/>
<path fill-rule="nonzero" fill="rgb(70.196078%, 70.196078%, 70.196078%)" fill-opacity="1" d="M 391.386719 325.375 L 398.363281 328.125 L 395.414062 331.699219 L 391.386719 325.375 "/>
<path fill="none" stroke-width="1.5" stroke-linecap="butt" stroke-linejoin="miter" stroke="rgb(41.568627%, 23.921569%, 60.392157%)" stroke-opacity="1" stroke-miterlimit="10" d="M 443.441406 431.597656 C 437.957031 479.117188 450.351562 521.464844 483.105469 556.308594 "/>
<path fill-rule="nonzero" fill="rgb(41.568627%, 23.921569%, 60.392157%)" fill-opacity="1" d="M 487.988281 561.507812 L 481.417969 557.898438 L 484.792969 554.722656 L 487.988281 561.507812 "/>
<path fill="none" stroke-width="3.5" stroke-linecap="butt" stroke-linejoin="miter" stroke="rgb(70.196078%, 70.196078%, 70.196078%)" stroke-opacity="1" stroke-miterlimit="10" d="M 521.933594 433.476562 C 500.339844 421.269531 477.378906 418.101562 454.355469 427.257812 "/>
<path fill-rule="nonzero" fill="rgb(70.196078%, 70.196078%, 70.196078%)" fill-opacity="1" d="M 447.726562 429.894531 L 453.5 425.105469 L 455.210938 429.410156 L 447.726562 429.894531 "/>
<path fill="none" stroke-width="1.5" stroke-linecap="butt" stroke-linejoin="miter" stroke="rgb(98.431373%, 60.392157%, 60%)" stroke-opacity="1" stroke-miterlimit="10" d="M 521.933594 433.476562 C 478.113281 439.859375 443.097656 460.964844 419.777344 498.589844 "/>
<path fill-rule="nonzero" fill="rgb(98.431373%, 60.392157%, 60%)" fill-opacity="1" d="M 416.019531 504.652344 L 417.804688 497.367188 L 421.746094 499.808594 L 416.019531 504.652344 "/>
<path fill="none" stroke-width="1.5" stroke-linecap="butt" stroke-linejoin="miter" stroke="rgb(98.431373%, 60.392157%, 60%)" stroke-opacity="1" stroke-miterlimit="10" d="M 132.046875 623.335938 C 112.308594 603.609375 88.390625 593.445312 60.652344 596.285156 "/>
<path fill-rule="nonzero" fill="rgb(98.431373%, 60.392157%, 60%)" fill-opacity="1" d="M 53.558594 597.011719 L 60.417969 593.976562 L 60.890625 598.589844 L 53.558594 597.011719 "/>
<path fill="none" stroke-width="2.5" stroke-linecap="butt" stroke-linejoin="miter" stroke="rgb(70.196078%, 70.196078%, 70.196078%)" stroke-opacity="1" stroke-miterlimit="10" d="M 710.519531 338.707031 C 674.679688 325.300781 639.273438 326.542969 606.054688 345.5 "/>
<path fill-rule="nonzero" fill="rgb(70.196078%, 70.196078%, 70.196078%)" fill-opacity="1" d="M 599.859375 349.039062 L 604.90625 343.488281 L 607.203125 347.515625 L 599.859375 349.039062 "/>
<path fill="none" stroke-width="1.5" stroke-linecap="butt" stroke-linejoin="miter" stroke="rgb(98.431373%, 60.392157%, 60%)" stroke-opacity="1" stroke-miterlimit="10" d="M 329.011719 561.480469 C 297.949219 557.691406 269.917969 565.34375 247.261719 586.902344 "/>
<path fill-rule="nonzero" fill="rgb(98.431373%, 60.392157%, 60%)" fill-opacity="1" d="M 242.09375 591.820312 L 245.664062 585.222656 L 248.859375 588.582031 L 242.09375 591.820312 "/>
<path fill="none" stroke-width="1.5" stroke-linecap="butt" stroke-linejoin="miter" stroke="rgb(98.431373%, 60.392157%, 60%)" stroke-opacity="1" stroke-miterlimit="10" d="M 414.632812 506.886719 C 380.929688 510.351562 353.253906 525.214844 334.4375 553.367188 "/>
<path fill-rule="nonzero" fill="rgb(98.431373%, 60.392157%, 60%)" fill-opacity="1" d="M 330.472656 559.296875 L 332.507812 552.078125 L 336.363281 554.65625 L 330.472656 559.296875 "/>
<path fill="none" stroke-width="1.5" stroke-linecap="butt" stroke-linejoin="miter" stroke="rgb(41.568627%, 23.921569%, 60.392157%)" stroke-opacity="1" stroke-miterlimit="10" d="M 516.109375 746.695312 C 539.453125 756.023438 562.921875 756.046875 584.816406 743.757812 "/>
<path fill-rule="nonzero" fill="rgb(41.568627%, 23.921569%, 60.392157%)" fill-opacity="1" d="M 591.035156 740.265625 L 585.949219 745.777344 L 583.683594 741.734375 L 591.035156 740.265625 "/>
<path fill="none" stroke-width="1.5" stroke-linecap="butt" stroke-linejoin="miter" stroke="rgb(41.568627%, 23.921569%, 60.392157%)" stroke-opacity="1" stroke-miterlimit="10" d="M 489.792969 563.425781 C 477.175781 595.320312 477.625 627.113281 494.125 657.167969 "/>
<path fill-rule="nonzero" fill="rgb(41.568627%, 23.921569%, 60.392157%)" fill-opacity="1" d="M 497.558594 663.417969 L 492.09375 658.28125 L 496.15625 656.050781 L 497.558594 663.417969 "/>
<path fill="none" stroke-width="1.5" stroke-linecap="butt" stroke-linejoin="miter" stroke="rgb(98.431373%, 60.392157%, 60%)" stroke-opacity="1" stroke-miterlimit="10" d="M 750 442.230469 C 753.894531 406 744.429688 373.585938 719.046875 347.476562 "/>
<path fill-rule="nonzero" fill="rgb(98.431373%, 60.392157%, 60%)" fill-opacity="1" d="M 714.074219 342.359375 L 720.707031 345.859375 L 717.382812 349.089844 L 714.074219 342.359375 "/>
<path fill="none" stroke-width="1.5" stroke-linecap="butt" stroke-linejoin="miter" stroke="rgb(12.156863%, 47.058824%, 70.588235%)" stroke-opacity="1" stroke-miterlimit="10" d="M 68.539062 378.011719 C 79.695312 354.519531 81.203125 330.316406 69.996094 306.875 "/>
<path fill-rule="nonzero" fill="rgb(12.156863%, 47.058824%, 70.588235%)" fill-opacity="1" d="M 66.921875 300.4375 L 72.085938 305.875 L 67.90625 307.871094 L 66.921875 300.4375 "/>
<path fill="none" stroke-width="2.5" stroke-linecap="butt" stroke-linejoin="miter" stroke="rgb(70.196078%, 70.196078%, 70.196078%)" stroke-opacity="1" stroke-miterlimit="10" d="M 642.101562 286.554688 C 616.570312 318.054688 605.96875 354.03125 613.769531 393.800781 "/>
<path fill-rule="nonzero" fill="rgb(70.196078%, 70.196078%, 70.196078%)" fill-opacity="1" d="M 615.144531 400.800781 L 611.496094 394.25 L 616.046875 393.355469 L 615.144531 400.800781 "/>
<path fill="none" stroke-width="2.5" stroke-linecap="butt" stroke-linejoin="miter" stroke="rgb(70.196078%, 70.196078%, 70.196078%)" stroke-opacity="1" stroke-miterlimit="10" d="M 616.035156 405.34375 C 584.75 399.402344 555.75 405.257812 531.320312 425.644531 "/>
<path fill-rule="nonzero" fill="rgb(70.196078%, 70.196078%, 70.196078%)" fill-opacity="1" d="M 525.84375 430.214844 L 529.832031 423.863281 L 532.804688 427.425781 L 525.84375 430.214844 "/>
<path fill="none" stroke-width="1.5" stroke-linecap="butt" stroke-linejoin="miter" stroke="rgb(12.156863%, 47.058824%, 70.588235%)" stroke-opacity="1" stroke-miterlimit="10" d="M 208.558594 673.019531 C 212.972656 626.421875 200.015625 585.230469 167.257812 551.820312 "/>
<path fill-rule="nonzero" fill="rgb(12.156863%, 47.058824%, 70.588235%)" fill-opacity="1" d="M 162.261719 546.726562 L 168.910156 550.195312 L 165.601562 553.441406 L 162.261719 546.726562 "/>
<path fill="none" stroke-width="1.5" stroke-linecap="butt" stroke-linejoin="miter" stroke="rgb(12.156863%, 47.058824%, 70.588235%)" stroke-opacity="1" stroke-miterlimit="10" d="M 65.789062 298.070312 C 86.945312 284.191406 100.472656 264.847656 102.988281 239.699219 "/>
<path fill-rule="nonzero" fill="rgb(12.156863%, 47.058824%, 70.588235%)" fill-opacity="1" d="M 103.699219 232.601562 L 105.296875 239.929688 L 100.683594 239.46875 L 103.699219 232.601562 "/>
<path fill="none" stroke-width="3.5" stroke-linecap="butt" stroke-linejoin="miter" stroke="rgb(70.196078%, 70.196078%, 70.196078%)" stroke-opacity="1" stroke-miterlimit="10" d="M 655.03125 138.078125 C 652.671875 169.121094 661.515625 196.671875 684 218.175781 "/>
<path fill-rule="nonzero" fill="rgb(70.196078%, 70.196078%, 70.196078%)" fill-opacity="1" d="M 689.15625 223.105469 L 682.398438 219.851562 L 685.601562 216.5 L 689.15625 223.105469 "/>
<path fill="none" stroke-width="1.5" stroke-linecap="butt" stroke-linejoin="miter" stroke="rgb(98.431373%, 60.392157%, 60%)" stroke-opacity="1" stroke-miterlimit="10" d="M 741.476562 534.820312 C 757.84375 508.78125 762.789062 480.648438 753.082031 451.488281 "/>
<path fill-rule="nonzero" fill="rgb(98.431373%, 60.392157%, 60%)" fill-opacity="1" d="M 750.828125 444.722656 L 755.28125 450.757812 L 750.882812 452.222656 L 750.828125 444.722656 "/>
<path fill="none" stroke-width="1.5" stroke-linecap="butt" stroke-linejoin="miter" stroke="rgb(12.156863%, 47.058824%, 70.588235%)" stroke-opacity="1" stroke-miterlimit="10" d="M 160.421875 544.847656 C 160.222656 509.894531 147.695312 480.027344 120.6875 457.871094 "/>
<path fill-rule="nonzero" fill="rgb(12.156863%, 47.058824%, 70.588235%)" fill-opacity="1" d="M 115.171875 453.347656 L 122.15625 456.082031 L 119.21875 459.664062 L 115.171875 453.347656 "/>
<path fill="none" stroke-width="1.5" stroke-linecap="butt" stroke-linejoin="miter" stroke="rgb(12.156863%, 47.058824%, 70.588235%)" stroke-opacity="1" stroke-miterlimit="10" d="M 103.960938 229.988281 C 117.378906 211.023438 122.550781 189.914062 116.148438 167.613281 "/>
<path fill-rule="nonzero" fill="rgb(12.156863%, 47.058824%, 70.588235%)" fill-opacity="1" d="M 114.179688 160.757812 L 118.375 166.972656 L 113.921875 168.253906 L 114.179688 160.757812 "/>
<path fill="none" stroke-width="1.5" stroke-linecap="butt" stroke-linejoin="miter" stroke="rgb(12.156863%, 47.058824%, 70.588235%)" stroke-opacity="1" stroke-miterlimit="10" d="M 113.140625 451.679688 C 111.140625 423.503906 99.582031 399.898438 76.515625 383.636719 "/>
<path fill-rule="nonzero" fill="rgb(12.156863%, 47.058824%, 70.588235%)" fill-opacity="1" d="M 70.683594 379.527344 L 77.851562 381.742188 L 75.179688 385.53125 L 70.683594 379.527344 "/>
<path fill="none" stroke-width="1.5" stroke-linecap="butt" stroke-linejoin="miter" stroke="rgb(41.568627%, 23.921569%, 60.392157%)" stroke-opacity="1" stroke-miterlimit="10" d="M 692.492188 226.296875 C 681.003906 262.046875 683.820312 296.714844 703.957031 328.382812 "/>
<path fill-rule="nonzero" fill="rgb(41.568627%, 23.921569%, 60.392157%)" fill-opacity="1" d="M 707.785156 334.402344 L 702.003906 329.628906 L 705.914062 327.140625 L 707.785156 334.402344 "/>
<path fill="none" stroke-width="2.5" stroke-linecap="butt" stroke-linejoin="miter" stroke="rgb(70.196078%, 70.196078%, 70.196078%)" stroke-opacity="1" stroke-miterlimit="10" d="M 692.492188 226.296875 C 669.480469 235.585938 652.691406 251.585938 645.503906 275.3125 "/>
<path fill-rule="nonzero" fill="rgb(70.196078%, 70.196078%, 70.196078%)" fill-opacity="1" d="M 643.4375 282.140625 L 643.289062 274.640625 L 647.722656 275.984375 L 643.4375 282.140625 "/>
<path fill="none" stroke-width="1.5" stroke-linecap="butt" stroke-linejoin="miter" stroke="rgb(12.156863%, 47.058824%, 70.588235%)" stroke-opacity="1" stroke-miterlimit="10" d="M 267.011719 750 C 261.207031 718.433594 245.117188 693.363281 217.089844 677.765625 "/>
<path fill-rule="nonzero" fill="rgb(12.156863%, 47.058824%, 70.588235%)" fill-opacity="1" d="M 210.855469 674.296875 L 218.214844 675.742188 L 215.960938 679.789062 L 210.855469 674.296875 "/>
<path fill-rule="nonzero" fill="rgb(70.196078%, 70.196078%, 70.196078%)" fill-opacity="1" stroke-width="1" stroke-linecap="butt" stroke-linejoin="miter" stroke="rgb(70.196078%, 70.196078%, 70.196078%)" stroke-opacity="1" stroke-miterlimit="10" d="M 382.601562 50.972656 C 382.601562 58.105469 371.902344 58.105469 371.902344 50.972656 C 371.902344 43.839844 382.601562 43.839844 382.601562 50.972656 "/>
<path fill-rule="nonzero" fill="rgb(70.196078%, 70.196078%, 70.196078%)" fill-opacity="1" stroke-width="1" stroke-linecap="butt" stroke-linejoin="miter" stroke="rgb(70.196078%, 70.196078%, 70.196078%)" stroke-opacity="1" stroke-miterlimit="10" d="M 294.015625 50 C 294.015625 56.464844 284.316406 56.464844 284.316406 50 C 284.316406 43.535156 294.015625 43.535156 294.015625 50 "/>
<path fill-rule="nonzero" fill="rgb(70.196078%, 70.196078%, 70.196078%)" fill-opacity="1" stroke-width="1" stroke-linecap="butt" stroke-linejoin="miter" stroke="rgb(70.196078%, 70.196078%, 70.196078%)" stroke-opacity="1" stroke-miterlimit="10" d="M 387.382812 220.367188 C 387.382812 226.835938 377.683594 226.835938 377.683594 220.367188 C 377.683594 213.902344 387.382812 213.902344 387.382812 220.367188 "/>
<path fill-rule="nonzero" fill="rgb(70.196078%, 70.196078%, 70.196078%)" fill-opacity="1" stroke-width="1" stroke-linecap="butt" stroke-linejoin="miter" stroke="rgb(70.196078%, 70.196078%, 70.196078%)" stroke-opacity="1" stroke-miterlimit="10" d="M 419.59375 125.851562 C 419.59375 132.316406 409.890625 132.316406 409.890625 125.851562 C 409.890625 119.382812 419.59375 119.382812 419.59375 125.851562 "/>
<path fill-rule="nonzero" fill="rgb(14.901961%, 14.901961%, 14.901961%)" fill-opacity="1" stroke-width="1" stroke-linecap="butt" stroke-linejoin="miter" stroke="rgb(14.901961%, 14.901961%, 14.901961%)" stroke-opacity="1" stroke-miterlimit="10" d="M 216.375 96.152344 L 222.222656 84.453125 L 228.074219 96.152344 Z M 216.375 96.152344 "/>
<path fill-rule="nonzero" fill="rgb(99.215686%, 74.901961%, 43.529412%)" fill-opacity="1" stroke-width="1" stroke-linecap="butt" stroke-linejoin="miter" stroke="rgb(99.215686%, 74.901961%, 43.529412%)" stroke-opacity="1" stroke-miterlimit="10" d="M 459.785156 53.519531 C 459.785156 57.183594 454.285156 57.183594 454.285156 53.519531 C 454.285156 49.851562 459.785156 49.851562 459.785156 53.519531 "/>
<path fill-rule="nonzero" fill="rgb(70.196078%, 70.196078%, 70.196078%)" fill-opacity="1" stroke-width="1" stroke-linecap="butt" stroke-linejoin="miter" stroke="rgb(70.196078%, 70.196078%, 70.196078%)" stroke-opacity="1" stroke-miterlimit="10" d="M 392.667969 322.429688 C 392.667969 328.894531 382.964844 328.894531 382.964844 322.429688 C 382.964844 315.964844 392.667969 315.964844 392.667969 322.429688 "/>
<path fill-rule="nonzero" fill="rgb(98.431373%, 60.392157%, 60%)" fill-opacity="1" stroke-width="1" stroke-linecap="butt" stroke-linejoin="miter" stroke="rgb(98.431373%, 60.392157%, 60%)" stroke-opacity="1" stroke-miterlimit="10" d="M 242.9375 593.628906 C 242.9375 597.296875 237.4375 597.296875 237.4375 593.628906 C 237.4375 589.964844 242.9375 589.964844 242.9375 593.628906 "/>
<path fill-rule="nonzero" fill="rgb(14.901961%, 14.901961%, 14.901961%)" fill-opacity="1" stroke-width="1" stroke-linecap="butt" stroke-linejoin="miter" stroke="rgb(14.901961%, 14.901961%, 14.901961%)" stroke-opacity="1" stroke-miterlimit="10" d="M 590.402344 742.265625 L 594.152344 734.765625 L 597.902344 742.265625 Z M 590.402344 742.265625 "/>
<path fill-rule="nonzero" fill="rgb(70.196078%, 70.196078%, 70.196078%)" fill-opacity="1" stroke-width="1" stroke-linecap="butt" stroke-linejoin="miter" stroke="rgb(70.196078%, 70.196078%, 70.196078%)" stroke-opacity="1" stroke-miterlimit="10" d="M 600.691406 351.332031 C 600.691406 357.796875 590.992188 357.796875 590.992188 351.332031 C 590.992188 344.863281 600.691406 344.863281 600.691406 351.332031 "/>
<path fill-rule="nonzero" fill="rgb(41.568627%, 23.921569%, 60.392157%)" fill-opacity="1" stroke-width="1" stroke-linecap="butt" stroke-linejoin="miter" stroke="rgb(41.568627%, 23.921569%, 60.392157%)" stroke-opacity="1" stroke-miterlimit="10" d="M 501.574219 665.722656 C 501.574219 669.390625 496.074219 669.390625 496.074219 665.722656 C 496.074219 662.054688 501.574219 662.054688 501.574219 665.722656 "/>
<path fill-rule="nonzero" fill="rgb(70.196078%, 70.196078%, 70.196078%)" fill-opacity="1" stroke-width="1" stroke-linecap="butt" stroke-linejoin="miter" stroke="rgb(70.196078%, 70.196078%, 70.196078%)" stroke-opacity="1" stroke-miterlimit="10" d="M 448.292969 431.597656 C 448.292969 438.0625 438.589844 438.0625 438.589844 431.597656 C 438.589844 425.132812 448.292969 425.132812 448.292969 431.597656 "/>
<path fill-rule="nonzero" fill="rgb(70.196078%, 70.196078%, 70.196078%)" fill-opacity="1" stroke-width="1" stroke-linecap="butt" stroke-linejoin="miter" stroke="rgb(70.196078%, 70.196078%, 70.196078%)" stroke-opacity="1" stroke-miterlimit="10" d="M 527.28125 433.476562 C 527.28125 440.609375 516.582031 440.609375 516.582031 433.476562 C 516.582031 426.34375 527.28125 426.34375 527.28125 433.476562 "/>
<path fill-rule="nonzero" fill="rgb(98.431373%, 60.392157%, 60%)" fill-opacity="1" stroke-width="1" stroke-linecap="butt" stroke-linejoin="miter" stroke="rgb(98.431373%, 60.392157%, 60%)" stroke-opacity="1" stroke-miterlimit="10" d="M 134.796875 623.335938 C 134.796875 627.003906 129.296875 627.003906 129.296875 623.335938 C 129.296875 619.671875 134.796875 619.671875 134.796875 623.335938 "/>
<path fill-rule="nonzero" fill="rgb(70.196078%, 70.196078%, 70.196078%)" fill-opacity="1" stroke-width="1" stroke-linecap="butt" stroke-linejoin="miter" stroke="rgb(70.196078%, 70.196078%, 70.196078%)" stroke-opacity="1" stroke-miterlimit="10" d="M 715.871094 338.707031 C 715.871094 345.839844 705.171875 345.839844 705.171875 338.707031 C 705.171875 331.570312 715.871094 331.570312 715.871094 338.707031 "/>
<path fill-rule="nonzero" fill="rgb(98.431373%, 60.392157%, 60%)" fill-opacity="1" stroke-width="1" stroke-linecap="butt" stroke-linejoin="miter" stroke="rgb(98.431373%, 60.392157%, 60%)" stroke-opacity="1" stroke-miterlimit="10" d="M 331.761719 561.480469 C 331.761719 565.148438 326.261719 565.148438 326.261719 561.480469 C 326.261719 557.816406 331.761719 557.816406 331.761719 561.480469 "/>
<path fill-rule="nonzero" fill="rgb(98.431373%, 60.392157%, 60%)" fill-opacity="1" stroke-width="1" stroke-linecap="butt" stroke-linejoin="miter" stroke="rgb(98.431373%, 60.392157%, 60%)" stroke-opacity="1" stroke-miterlimit="10" d="M 417.382812 506.886719 C 417.382812 510.554688 411.882812 510.554688 411.882812 506.886719 C 411.882812 503.222656 417.382812 503.222656 417.382812 506.886719 "/>
<path fill-rule="nonzero" fill="rgb(41.568627%, 23.921569%, 60.392157%)" fill-opacity="1" stroke-width="1" stroke-linecap="butt" stroke-linejoin="miter" stroke="rgb(41.568627%, 23.921569%, 60.392157%)" stroke-opacity="1" stroke-miterlimit="10" d="M 518.859375 746.695312 C 518.859375 750.363281 513.359375 750.363281 513.359375 746.695312 C 513.359375 743.03125 518.859375 743.03125 518.859375 746.695312 "/>
<path fill-rule="nonzero" fill="rgb(14.901961%, 14.901961%, 14.901961%)" fill-opacity="1" stroke-width="1" stroke-linecap="butt" stroke-linejoin="miter" stroke="rgb(14.901961%, 14.901961%, 14.901961%)" stroke-opacity="1" stroke-miterlimit="10" d="M 46.25 601.125 L 50 593.625 L 53.75 601.125 Z M 46.25 601.125 "/>
<path fill-rule="nonzero" fill="rgb(41.568627%, 23.921569%, 60.392157%)" fill-opacity="1" stroke-width="1" stroke-linecap="butt" stroke-linejoin="miter" stroke="rgb(41.568627%, 23.921569%, 60.392157%)" stroke-opacity="1" stroke-miterlimit="10" d="M 492.542969 563.425781 C 492.542969 567.089844 487.042969 567.089844 487.042969 563.425781 C 487.042969 559.757812 492.542969 559.757812 492.542969 563.425781 "/>
<path fill-rule="nonzero" fill="rgb(98.431373%, 60.392157%, 60%)" fill-opacity="1" stroke-width="1" stroke-linecap="butt" stroke-linejoin="miter" stroke="rgb(98.431373%, 60.392157%, 60%)" stroke-opacity="1" stroke-miterlimit="10" d="M 752.75 442.230469 C 752.75 445.894531 747.25 445.894531 747.25 442.230469 C 747.25 438.5625 752.75 438.5625 752.75 442.230469 "/>
<path fill-rule="nonzero" fill="rgb(12.156863%, 47.058824%, 70.588235%)" fill-opacity="1" stroke-width="1" stroke-linecap="butt" stroke-linejoin="miter" stroke="rgb(12.156863%, 47.058824%, 70.588235%)" stroke-opacity="1" stroke-miterlimit="10" d="M 71.289062 378.011719 C 71.289062 381.679688 65.789062 381.679688 65.789062 378.011719 C 65.789062 374.347656 71.289062 374.347656 71.289062 378.011719 "/>
<path fill-rule="nonzero" fill="rgb(70.196078%, 70.196078%, 70.196078%)" fill-opacity="1" stroke-width="1" stroke-linecap="butt" stroke-linejoin="miter" stroke="rgb(70.196078%, 70.196078%, 70.196078%)" stroke-opacity="1" stroke-miterlimit="10" d="M 646.953125 286.554688 C 646.953125 293.019531 637.25 293.019531 637.25 286.554688 C 637.25 280.085938 646.953125 280.085938 646.953125 286.554688 "/>
<path fill-rule="nonzero" fill="rgb(70.196078%, 70.196078%, 70.196078%)" fill-opacity="1" stroke-width="1" stroke-linecap="butt" stroke-linejoin="miter" stroke="rgb(70.196078%, 70.196078%, 70.196078%)" stroke-opacity="1" stroke-miterlimit="10" d="M 620.882812 405.34375 C 620.882812 411.808594 611.183594 411.808594 611.183594 405.34375 C 611.183594 398.875 620.882812 398.875 620.882812 405.34375 "/>
<path fill-rule="nonzero" fill="rgb(12.156863%, 47.058824%, 70.588235%)" fill-opacity="1" stroke-width="1" stroke-linecap="butt" stroke-linejoin="miter" stroke="rgb(12.156863%, 47.058824%, 70.588235%)" stroke-opacity="1" stroke-miterlimit="10" d="M 211.308594 673.019531 C 211.308594 676.6875 205.808594 676.6875 205.808594 673.019531 C 205.808594 669.351562 211.308594 669.351562 211.308594 673.019531 "/>
<path fill-rule="nonzero" fill="rgb(14.901961%, 14.901961%, 14.901961%)" fill-opacity="1" stroke-width="1" stroke-linecap="butt" stroke-linejoin="miter" stroke="rgb(14.901961%, 14.901961%, 14.901961%)" stroke-opacity="1" stroke-miterlimit="10" d="M 109.445312 161.074219 L 113.195312 153.574219 L 116.945312 161.074219 Z M 109.445312 161.074219 "/>
<path fill-rule="nonzero" fill="rgb(12.156863%, 47.058824%, 70.588235%)" fill-opacity="1" stroke-width="1" stroke-linecap="butt" stroke-linejoin="miter" stroke="rgb(12.156863%, 47.058824%, 70.588235%)" stroke-opacity="1" stroke-miterlimit="10" d="M 68.539062 298.070312 C 68.539062 301.734375 63.039062 301.734375 63.039062 298.070312 C 63.039062 294.402344 68.539062 294.402344 68.539062 298.070312 "/>
<path fill-rule="nonzero" fill="rgb(100%, 84.313725%, 0%)" fill-opacity="1" stroke-width="1" stroke-linecap="butt" stroke-linejoin="miter" stroke="rgb(100%, 84.313725%, 0%)" stroke-opacity="1" stroke-miterlimit="10" d="M 649.679688 132.726562 L 660.378906 132.726562 L 660.378906 143.425781 L 649.679688 143.425781 Z M 649.679688 132.726562 "/>
<path fill-rule="nonzero" fill="rgb(100%, 84.313725%, 0%)" fill-opacity="1" stroke-width="1" stroke-linecap="butt" stroke-linejoin="miter" stroke="rgb(100%, 84.313725%, 0%)" stroke-opacity="1" stroke-miterlimit="10" d="M 738.226562 531.570312 L 744.726562 531.570312 L 744.726562 538.070312 L 738.226562 538.070312 Z M 738.226562 531.570312 "/>
<path fill-rule="nonzero" fill="rgb(12.156863%, 47.058824%, 70.588235%)" fill-opacity="1" stroke-width="1" stroke-linecap="butt" stroke-linejoin="miter" stroke="rgb(12.156863%, 47.058824%, 70.588235%)" stroke-opacity="1" stroke-miterlimit="10" d="M 163.171875 544.847656 C 163.171875 548.515625 157.671875 548.515625 157.671875 544.847656 C 157.671875 541.179688 163.171875 541.179688 163.171875 544.847656 "/>
<path fill-rule="nonzero" fill="rgb(12.156863%, 47.058824%, 70.588235%)" fill-opacity="1" stroke-width="1" stroke-linecap="butt" stroke-linejoin="miter" stroke="rgb(12.156863%, 47.058824%, 70.588235%)" stroke-opacity="1" stroke-miterlimit="10" d="M 106.710938 229.988281 C 106.710938 233.65625 101.210938 233.65625 101.210938 229.988281 C 101.210938 226.324219 106.710938 226.324219 106.710938 229.988281 "/>
<path fill-rule="nonzero" fill="rgb(12.156863%, 47.058824%, 70.588235%)" fill-opacity="1" stroke-width="1" stroke-linecap="butt" stroke-linejoin="miter" stroke="rgb(12.156863%, 47.058824%, 70.588235%)" stroke-opacity="1" stroke-miterlimit="10" d="M 115.890625 451.679688 C 115.890625 455.347656 110.390625 455.347656 110.390625 451.679688 C 110.390625 448.015625 115.890625 448.015625 115.890625 451.679688 "/>
<path fill-rule="nonzero" fill="rgb(70.196078%, 70.196078%, 70.196078%)" fill-opacity="1" stroke-width="1" stroke-linecap="butt" stroke-linejoin="miter" stroke="rgb(70.196078%, 70.196078%, 70.196078%)" stroke-opacity="1" stroke-miterlimit="10" d="M 697.34375 226.296875 C 697.34375 232.765625 687.644531 232.765625 687.644531 226.296875 C 687.644531 219.832031 697.34375 219.832031 697.34375 226.296875 "/>
<path fill-rule="nonzero" fill="rgb(100%, 84.313725%, 0%)" fill-opacity="1" stroke-width="1" stroke-linecap="butt" stroke-linejoin="miter" stroke="rgb(100%, 84.313725%, 0%)" stroke-opacity="1" stroke-miterlimit="10" d="M 263.761719 746.75 L 270.261719 746.75 L 270.261719 753.25 L 263.761719 753.25 Z M 263.761719 746.75 "/>
</svg>
