<?xml version="1.0" encoding="UTF-8"?>
<svg xmlns="http://www.w3.org/2000/svg" xmlns:xlink="http://www.w3.org/1999/xlink" width="800" height="800" viewBox="0 0 800 800">
<rect x="-80" y="-80" width="960" height="960" fill="rgb(100%, 100%, 100%)" fill-opacity="1"/>
<path fill="none" stroke-width="1.5" stroke-linecap="butt" stroke-linejoin="miter" stroke="rgb(30.196078%, 68.627451%, 29.019608%)" stroke-opacity="1" stroke-miterlimit="10" d="M 126.78125 210.816406 C 114.035156 221.695312 106.378906 235.570312 107.199219 252.269531 "/>
<path fill-rule="nonzero" fill="rgb(30.196078%, 68.627451%, 29.019608%)" fill-opacity="1" d="M 107.550781 259.394531 L 104.886719 252.382812 L 109.515625 252.15625 L 107.550781 259.394531 "/>
<path fill="none" stroke-width="1.5" stroke-linecap="butt" stroke-linejoin="miter" stroke="rgb(12.156863%, 47.058824%, 70.588235%)" stroke-opacity="1" stroke-miterlimit="10" d="M 691.078125 476.277344 C 711.25 477.984375 729.492188 472.628906 743.324219 457.886719 "/>
<path fill-rule="nonzero" fill="rgb(12.156863%, 47.058824%, 70.588235%)" fill-opacity="1" d="M 748.207031 452.6875 L 745.015625 459.472656 L 741.636719 456.300781 L 748.207031 452.6875 "/>
<path fill="none" stroke-width="1.5" stroke-linecap="butt" stroke-linejoin="miter" stroke="rgb(12.156863%, 47.058824%, 70.588235%)" stroke-opacity="1" stroke-miterlimit="10" d="M 595.304688 373.894531 C 564.453125 384.8125 541.820312 405.050781 530.597656 435.769531 "/>
<path fill-rule="nonzero" fill="rgb(12.156863%, 47.058824%, 70.588235%)" fill-opacity="1" d="M 528.152344 442.46875 L 528.421875 434.976562 L 532.773438 436.566406 L 528.152344 442.46875 "/>
<path fill="none" stroke-width="1.5" stroke-linecap="butt" stroke-linejoin="miter" stroke="rgb(30.196078%, 68.627451%, 29.019608%)" stroke-opacity="1" stroke-miterlimit="10" d="M 376.96875 750 C 393.851562 759 411.714844 761.207031 429.191406 753.503906 "/>
<path fill-rule="nonzero" fill="rgb(30.196078%, 68.627451%, 29.019608%)" fill-opacity="1" d="M 435.71875 750.628906 L 430.128906 755.625 L 428.257812 751.382812 L 435.71875 750.628906 "/>
<path fill="none" stroke-width="1.5" stroke-linecap="butt" stroke-linejoin="miter" stroke="rgb(12.156863%, 47.058824%, 70.588235%)" stroke-opacity="1" stroke-miterlimit="10" d="M 527.25 444.9375 C 506.101562 458.226562 492.363281 477.0625 489.40625 501.835938 "/>
<path fill-rule="nonzero" fill="rgb(12.156863%, 47.058824%, 70.588235%)" fill-opacity="1" d="M 488.5625 508.921875 L 487.105469 501.5625 L 491.707031 502.113281 L 488.5625 508.921875 "/>
<path fill="none" stroke-width="1.5" stroke-linecap="butt" stroke-linejoin="miter" stroke="rgb(12.156863%, 47.058824%, 70.588235%)" stroke-opacity="1" stroke-miterlimit="10" d="M 681.882812 348.460938 C 652.640625 342.980469 625.542969 348.5 602.777344 367.617188 "/>
<path fill-rule="nonzero" fill="rgb(12.156863%, 47.058824%, 70.588235%)" fill-opacity="1" d="M 597.316406 372.207031 L 601.285156 365.84375 L 604.265625 369.394531 L 597.316406 372.207031 "/>
<path fill="none" stroke-width="1.5" stroke-linecap="butt" stroke-linejoin="miter" stroke="rgb(12.156863%, 47.058824%, 70.588235%)" stroke-opacity="1" stroke-miterlimit="10" d="M 488.253906 511.527344 C 473.203125 526.410156 465.128906 544.542969 467.414062 565.558594 "/>
<path fill-rule="nonzero" fill="rgb(12.156863%, 47.058824%, 70.588235%)" fill-opacity="1" d="M 468.183594 572.648438 L 465.109375 565.808594 L 469.71875 565.308594 L 468.183594 572.648438 "/>
<path fill="none" stroke-width="1.5" stroke-linecap="butt" stroke-linejoin="miter" stroke="rgb(30.196078%, 68.627451%, 29.019608%)" stroke-opacity="1" stroke-miterlimit="10" d="M 107.679688 262.011719 C 98.570312 279.417969 96.480469 297.765625 104.503906 315.664062 "/>
<path fill-rule="nonzero" fill="rgb(30.196078%, 68.627451%, 29.019608%)" fill-opacity="1" d="M 107.421875 322.175781 L 102.390625 316.613281 L 106.617188 314.71875 L 107.421875 322.175781 "/>
<path fill="none" stroke-width="1.5" stroke-linecap="butt" stroke-linejoin="miter" stroke="rgb(30.196078%, 68.627451%, 29.019608%)" stroke-opacity="1" stroke-miterlimit="10" d="M 316.949219 741.632812 C 332.175781 752.878906 349.351562 757.625 367.566406 752.597656 "/>
<path fill-rule="nonzero" fill="rgb(30.196078%, 68.627451%, 29.019608%)" fill-opacity="1" d="M 374.441406 750.699219 L 368.183594 754.828125 L 366.949219 750.363281 L 374.441406 750.699219 "/>
<path fill="none" stroke-width="1.5" stroke-linecap="butt" stroke-linejoin="miter" stroke="rgb(30.196078%, 68.627451%, 29.019608%)" stroke-opacity="1" stroke-miterlimit="10" d="M 136.871094 395.933594 C 136.242188 431.875 148.429688 462.859375 175.65625 486.304688 "/>
<path fill-rule="nonzero" fill="rgb(30.196078%, 68.627451%, 29.019608%)" fill-opacity="1" d="M 181.058594 490.960938 L 174.140625 488.0625 L 177.167969 484.550781 L 181.058594 490.960938 "/>
<path fill="none" stroke-width="1.5" stroke-linecap="butt" stroke-linejoin="miter" stroke="rgb(30.196078%, 68.627451%, 29.019608%)" stroke-opacity="1" stroke-miterlimit="10" d="M 201.78125 584.558594 C 196.953125 610.121094 201.636719 633.917969 218.433594 653.75 "/>
<path fill-rule="nonzero" fill="rgb(30.196078%, 68.627451%, 29.019608%)" fill-opacity="1" d="M 223.042969 659.195312 L 216.664062 655.25 L 220.199219 652.253906 L 223.042969 659.195312 "/>
<path fill="none" stroke-width="1.5" stroke-linecap="butt" stroke-linejoin="miter" stroke="rgb(30.196078%, 68.627451%, 29.019608%)" stroke-opacity="1" stroke-miterlimit="10" d="M 603.890625 684.242188 C 620.746094 685.132812 635.972656 680.3125 646.945312 667.535156 "/>
<path fill-rule="nonzero" fill="rgb(30.196078%, 68.627451%, 29.019608%)" fill-opacity="1" d="M 651.589844 662.125 L 648.703125 669.046875 L 645.1875 666.027344 L 651.589844 662.125 "/>
<path fill="none" stroke-width="1.5" stroke-linecap="butt" stroke-linejoin="miter" stroke="rgb(30.196078%, 68.627451%, 29.019608%)" stroke-opacity="1" stroke-miterlimit="10" d="M 552.164062 712.164062 C 570.429688 712.261719 586.546875 706.207031 597.847656 691.898438 "/>
<path fill-rule="nonzero" fill="rgb(30.196078%, 68.627451%, 29.019608%)" fill-opacity="1" d="M 602.265625 686.300781 L 599.664062 693.332031 L 596.027344 690.460938 L 602.265625 686.300781 "/>
<path fill="none" stroke-width="1.5" stroke-linecap="butt" stroke-linejoin="miter" stroke="rgb(30.196078%, 68.627451%, 29.019608%)" stroke-opacity="1" stroke-miterlimit="10" d="M 497.421875 736.890625 C 516.105469 738.277344 533 733.203125 545.59375 719.375 "/>
<path fill-rule="nonzero" fill="rgb(30.196078%, 68.627451%, 29.019608%)" fill-opacity="1" d="M 550.398438 714.101562 L 547.308594 720.9375 L 543.882812 717.816406 L 550.398438 714.101562 "/>
<path fill="none" stroke-width="1.5" stroke-linecap="butt" stroke-linejoin="miter" stroke="rgb(30.196078%, 68.627451%, 29.019608%)" stroke-opacity="1" stroke-miterlimit="10" d="M 438.117188 749.570312 C 456.292969 754.933594 474.066406 753.511719 489.472656 742.546875 "/>
<path fill-rule="nonzero" fill="rgb(30.196078%, 68.627451%, 29.019608%)" fill-opacity="1" d="M 495.285156 738.410156 L 490.816406 744.433594 L 488.128906 740.65625 L 495.285156 738.410156 "/>
<path fill="none" stroke-width="1.5" stroke-linecap="butt" stroke-linejoin="miter" stroke="rgb(98.431373%, 60.392157%, 60%)" stroke-opacity="1" stroke-miterlimit="10" d="M 473.695312 317.554688 C 476.039062 296.308594 470.835938 276.957031 455.6875 261.914062 "/>
<path fill-rule="nonzero" fill="rgb(98.431373%, 60.392157%, 60%)" fill-opacity="1" d="M 450.628906 256.890625 L 457.320312 260.269531 L 454.054688 263.558594 L 450.628906 256.890625 "/>
<path fill="none" stroke-width="1.5" stroke-linecap="butt" stroke-linejoin="miter" stroke="rgb(12.156863%, 47.058824%, 70.588235%)" stroke-opacity="1" stroke-miterlimit="10" d="M 746.777344 381.171875 C 733.214844 362.179688 714.894531 350.328125 691.625 349.011719 "/>
<path fill-rule="nonzero" fill="rgb(12.156863%, 47.058824%, 70.588235%)" fill-opacity="1" d="M 684.503906 348.609375 L 691.753906 346.699219 L 691.492188 351.324219 L 684.503906 348.609375 "/>
<path fill="none" stroke-width="1.5" stroke-linecap="butt" stroke-linejoin="miter" stroke="rgb(30.196078%, 68.627451%, 29.019608%)" stroke-opacity="1" stroke-miterlimit="10" d="M 183.050781 492.675781 C 174.832031 522.609375 178.273438 551.234375 196.15625 576.582031 "/>
<path fill-rule="nonzero" fill="rgb(30.196078%, 68.627451%, 29.019608%)" fill-opacity="1" d="M 200.265625 582.414062 L 194.261719 577.917969 L 198.050781 575.246094 L 200.265625 582.414062 "/>
<path fill="none" stroke-width="1.5" stroke-linecap="butt" stroke-linejoin="miter" stroke="rgb(98.431373%, 60.392157%, 60%)" stroke-opacity="1" stroke-miterlimit="10" d="M 527.480469 374.886719 C 520.5625 350.339844 506.070312 331.472656 482.660156 321.410156 "/>
<path fill-rule="nonzero" fill="rgb(98.431373%, 60.392157%, 60%)" fill-opacity="1" d="M 476.105469 318.589844 L 483.574219 319.277344 L 481.746094 323.539062 L 476.105469 318.589844 "/>
<path fill="none" stroke-width="1.5" stroke-linecap="butt" stroke-linejoin="miter" stroke="rgb(30.196078%, 68.627451%, 29.019608%)" stroke-opacity="1" stroke-miterlimit="10" d="M 108.492188 324.566406 C 105.96875 349.28125 112.320312 371.585938 129.941406 389.0625 "/>
<path fill-rule="nonzero" fill="rgb(30.196078%, 68.627451%, 29.019608%)" fill-opacity="1" d="M 135.007812 394.082031 L 128.308594 390.707031 L 131.574219 387.414062 L 135.007812 394.082031 "/>
<path fill="none" stroke-width="1.5" stroke-linecap="butt" stroke-linejoin="miter" stroke="rgb(99.215686%, 74.901961%, 43.529412%)" stroke-opacity="1" stroke-miterlimit="10" d="M 145.316406 446.5 C 120.789062 458.082031 103.605469 476.617188 97.125 502.933594 "/>
<path fill-rule="nonzero" fill="rgb(99.215686%, 74.901961%, 43.529412%)" fill-opacity="1" d="M 95.421875 509.859375 L 94.875 502.378906 L 99.375 503.488281 L 95.421875 509.859375 "/>
<path fill="none" stroke-width="1.5" stroke-linecap="butt" stroke-linejoin="miter" stroke="rgb(99.215686%, 74.901961%, 43.529412%)" stroke-opacity="1" stroke-miterlimit="10" d="M 333.644531 476.101562 C 340.191406 453.566406 338.128906 431.726562 324.671875 412.535156 "/>
<path fill-rule="nonzero" fill="rgb(99.215686%, 74.901961%, 43.529412%)" fill-opacity="1" d="M 320.578125 406.691406 L 326.570312 411.203125 L 322.777344 413.863281 L 320.578125 406.691406 "/>
<path fill="none" stroke-width="1.5" stroke-linecap="butt" stroke-linejoin="miter" stroke="rgb(30.196078%, 68.627451%, 29.019608%)" stroke-opacity="1" stroke-miterlimit="10" d="M 224.738281 661.199219 C 226.621094 681.90625 235.316406 699.371094 252.683594 710.746094 "/>
<path fill-rule="nonzero" fill="rgb(30.196078%, 68.627451%, 29.019608%)" fill-opacity="1" d="M 258.652344 714.65625 L 251.414062 712.683594 L 253.953125 708.808594 L 258.652344 714.65625 "/>
<path fill="none" stroke-width="1.5" stroke-linecap="butt" stroke-linejoin="miter" stroke="rgb(99.215686%, 74.901961%, 43.529412%)" stroke-opacity="1" stroke-miterlimit="10" d="M 279.855469 295.753906 C 270.007812 308.367188 265.4375 322.828125 269.453125 338.277344 "/>
<path fill-rule="nonzero" fill="rgb(99.215686%, 74.901961%, 43.529412%)" fill-opacity="1" d="M 271.246094 345.179688 L 267.210938 338.859375 L 271.695312 337.695312 L 271.246094 345.179688 "/>
<path fill="none" stroke-width="1.5" stroke-linecap="butt" stroke-linejoin="miter" stroke="rgb(99.215686%, 74.901961%, 43.529412%)" stroke-opacity="1" stroke-miterlimit="10" d="M 94.566406 513.332031 C 92.070312 531.160156 95.855469 547.710938 108.355469 560.621094 "/>
<path fill-rule="nonzero" fill="rgb(99.215686%, 74.901961%, 43.529412%)" fill-opacity="1" d="M 113.320312 565.742188 L 106.691406 562.234375 L 110.019531 559.007812 L 113.320312 565.742188 "/>
<path fill="none" stroke-width="1.5" stroke-linecap="butt" stroke-linejoin="miter" stroke="rgb(99.215686%, 74.901961%, 43.529412%)" stroke-opacity="1" stroke-miterlimit="10" d="M 94.566406 513.332031 C 90.011719 492.304688 78.867188 475.492188 59.597656 465.992188 "/>
<path fill-rule="nonzero" fill="rgb(99.215686%, 74.901961%, 43.529412%)" fill-opacity="1" d="M 53.203125 462.835938 L 60.625 463.914062 L 58.574219 468.070312 L 53.203125 462.835938 "/>
<path fill="none" stroke-width="1.5" stroke-linecap="butt" stroke-linejoin="miter" stroke="rgb(99.215686%, 74.901961%, 43.529412%)" stroke-opacity="1" stroke-miterlimit="10" d="M 94.566406 513.332031 C 80.113281 519.480469 69.300781 529.726562 65.414062 544.902344 "/>
<path fill-rule="nonzero" fill="rgb(99.215686%, 74.901961%, 43.529412%)" fill-opacity="1" d="M 63.644531 551.8125 L 63.167969 544.328125 L 67.660156 545.480469 L 63.644531 551.8125 "/>
<path fill="none" stroke-width="1.5" stroke-linecap="butt" stroke-linejoin="miter" stroke="rgb(30.196078%, 68.627451%, 29.019608%)" stroke-opacity="1" stroke-miterlimit="10" d="M 260.847656 716.089844 C 272.492188 731.496094 287.921875 741.078125 307.199219 741.449219 "/>
<path fill-rule="nonzero" fill="rgb(30.196078%, 68.627451%, 29.019608%)" fill-opacity="1" d="M 314.328125 741.582031 L 307.152344 743.765625 L 307.242188 739.128906 L 314.328125 741.582031 "/>
<path fill="none" stroke-width="1.5" stroke-linecap="butt" stroke-linejoin="miter" stroke="rgb(41.568627%, 23.921569%, 60.392157%)" stroke-opacity="1" stroke-miterlimit="10" d="M 191.800781 124.847656 C 199.59375 137.996094 210.863281 147.136719 226.003906 148.898438 "/>
<path fill-rule="nonzero" fill="rgb(41.568627%, 23.921569%, 60.392157%)" fill-opacity="1" d="M 233.089844 149.722656 L 225.738281 151.199219 L 226.273438 146.597656 L 233.089844 149.722656 "/>
<path fill="none" stroke-width="1.5" stroke-linecap="butt" stroke-linejoin="miter" stroke="rgb(99.215686%, 74.901961%, 43.529412%)" stroke-opacity="1" stroke-miterlimit="10" d="M 272.023438 348.171875 C 281.910156 335.390625 286.441406 320.773438 282.339844 305.183594 "/>
<path fill-rule="nonzero" fill="rgb(99.215686%, 74.901961%, 43.529412%)" fill-opacity="1" d="M 280.523438 298.285156 L 284.578125 304.59375 L 280.097656 305.773438 L 280.523438 298.285156 "/>
<path fill="none" stroke-width="1.5" stroke-linecap="butt" stroke-linejoin="miter" stroke="rgb(99.215686%, 74.901961%, 43.529412%)" stroke-opacity="1" stroke-miterlimit="10" d="M 272.023438 348.171875 C 248.054688 349.675781 227.761719 359.242188 213.917969 378.835938 "/>
<path fill-rule="nonzero" fill="rgb(99.215686%, 74.901961%, 43.529412%)" fill-opacity="1" d="M 209.800781 384.660156 L 212.023438 377.496094 L 215.808594 380.171875 L 209.800781 384.660156 "/>
<path fill="none" stroke-width="1.5" stroke-linecap="butt" stroke-linejoin="miter" stroke="rgb(99.215686%, 74.901961%, 43.529412%)" stroke-opacity="1" stroke-miterlimit="10" d="M 319.074219 404.542969 C 314.199219 381.601562 302.078125 363.328125 281.160156 352.777344 "/>
<path fill-rule="nonzero" fill="rgb(99.215686%, 74.901961%, 43.529412%)" fill-opacity="1" d="M 274.792969 349.566406 L 282.203125 350.710938 L 280.117188 354.847656 L 274.792969 349.566406 "/>
<path fill="none" stroke-width="1.5" stroke-linecap="butt" stroke-linejoin="miter" stroke="rgb(99.215686%, 74.901961%, 43.529412%)" stroke-opacity="1" stroke-miterlimit="10" d="M 115.140625 567.625 C 117.734375 550.125 114.175781 533.808594 101.964844 521.054688 "/>
<path fill-rule="nonzero" fill="rgb(99.215686%, 74.901961%, 43.529412%)" fill-opacity="1" d="M 97.03125 515.90625 L 103.640625 519.453125 L 100.292969 522.660156 L 97.03125 515.90625 "/>
<path fill="none" stroke-width="1.5" stroke-linecap="butt" stroke-linejoin="miter" stroke="rgb(41.568627%, 23.921569%, 60.392157%)" stroke-opacity="1" stroke-miterlimit="10" d="M 235.691406 150.027344 C 248.574219 160.761719 263.550781 165.972656 279.886719 162.34375 "/>
<path fill-rule="nonzero" fill="rgb(41.568627%, 23.921569%, 60.392157%)" fill-opacity="1" d="M 286.847656 160.796875 L 280.386719 164.605469 L 279.382812 160.082031 L 286.847656 160.796875 "/>
<path fill="none" stroke-width="1.5" stroke-linecap="butt" stroke-linejoin="miter" stroke="rgb(98.431373%, 60.392157%, 60%)" stroke-opacity="1" stroke-miterlimit="10" d="M 610.582031 179.273438 C 616.796875 162.917969 616.808594 146.402344 607.722656 131.492188 "/>
<path fill-rule="nonzero" fill="rgb(98.431373%, 60.392157%, 60%)" fill-opacity="1" d="M 604.011719 125.402344 L 609.703125 130.285156 L 605.746094 132.699219 L 604.011719 125.402344 "/>
<path fill="none" stroke-width="1.5" stroke-linecap="butt" stroke-linejoin="miter" stroke="rgb(12.156863%, 47.058824%, 70.588235%)" stroke-opacity="1" stroke-miterlimit="10" d="M 468.46875 575.257812 C 454.609375 586.070312 445.980469 600.253906 446.035156 617.792969 "/>
<path fill-rule="nonzero" fill="rgb(12.156863%, 47.058824%, 70.588235%)" fill-opacity="1" d="M 446.054688 624.925781 L 443.714844 617.800781 L 448.351562 617.785156 L 446.054688 624.925781 "/>
<path fill="none" stroke-width="1.5" stroke-linecap="butt" stroke-linejoin="miter" stroke="rgb(99.215686%, 74.901961%, 43.529412%)" stroke-opacity="1" stroke-miterlimit="10" d="M 208.285156 386.804688 C 180.953125 394.828125 160.1875 411.292969 149.113281 437.511719 "/>
<path fill-rule="nonzero" fill="rgb(99.215686%, 74.901961%, 43.529412%)" fill-opacity="1" d="M 146.335938 444.082031 L 146.976562 436.609375 L 151.246094 438.414062 L 146.335938 444.082031 "/>
<path fill="none" stroke-width="1.5" stroke-linecap="butt" stroke-linejoin="miter" stroke="rgb(99.215686%, 74.901961%, 43.529412%)" stroke-opacity="1" stroke-miterlimit="10" d="M 323.804688 547.136719 C 337.207031 528.460938 342.453125 507.609375 336.273438 485.5 "/>
<path fill-rule="nonzero" fill="rgb(99.215686%, 74.901961%, 43.529412%)" fill-opacity="1" d="M 334.351562 478.628906 L 338.503906 484.875 L 334.039062 486.125 L 334.351562 478.628906 "/>
<path fill="none" stroke-width="1.5" stroke-linecap="butt" stroke-linejoin="miter" stroke="rgb(98.431373%, 60.392157%, 60%)" stroke-opacity="1" stroke-miterlimit="10" d="M 549.628906 196.148438 C 569.027344 200.570312 587.527344 197.867188 602.988281 185.398438 "/>
<path fill-rule="nonzero" fill="rgb(98.431373%, 60.392157%, 60%)" fill-opacity="1" d="M 608.542969 180.917969 L 604.445312 187.199219 L 601.535156 183.59375 L 608.542969 180.917969 "/>
<path fill="none" stroke-width="1.5" stroke-linecap="butt" stroke-linejoin="miter" stroke="rgb(98.431373%, 60.392157%, 60%)" stroke-opacity="1" stroke-miterlimit="10" d="M 448.765625 255.039062 C 466.316406 246.660156 478.882812 233.375 483.144531 214.429688 "/>
<path fill-rule="nonzero" fill="rgb(98.431373%, 60.392157%, 60%)" fill-opacity="1" d="M 484.710938 207.472656 L 485.40625 214.941406 L 480.882812 213.921875 L 484.710938 207.472656 "/>
<path fill="none" stroke-width="1.5" stroke-linecap="butt" stroke-linejoin="miter" stroke="rgb(99.215686%, 74.901961%, 43.529412%)" stroke-opacity="1" stroke-miterlimit="10" d="M 62.996094 554.351562 C 77.152344 548.519531 87.859375 538.667969 91.765625 523.910156 "/>
<path fill-rule="nonzero" fill="rgb(99.215686%, 74.901961%, 43.529412%)" fill-opacity="1" d="M 93.589844 517.015625 L 94.007812 524.503906 L 89.523438 523.316406 L 93.589844 517.015625 "/>
<path fill="none" stroke-width="1.5" stroke-linecap="butt" stroke-linejoin="miter" stroke="rgb(41.568627%, 23.921569%, 60.392157%)" stroke-opacity="1" stroke-miterlimit="10" d="M 343.375 143.683594 C 358.609375 135.675781 369.394531 123.511719 372.390625 106.601562 "/>
<path fill-rule="nonzero" fill="rgb(41.568627%, 23.921569%, 60.392157%)" fill-opacity="1" d="M 373.636719 99.578125 L 374.671875 107.007812 L 370.109375 106.199219 L 373.636719 99.578125 "/>
<path fill="none" stroke-width="1.5" stroke-linecap="butt" stroke-linejoin="miter" stroke="rgb(98.431373%, 60.392157%, 60%)" stroke-opacity="1" stroke-miterlimit="10" d="M 548.175781 91.570312 C 535.78125 78.988281 520.628906 72.023438 503.128906 74.097656 "/>
<path fill-rule="nonzero" fill="rgb(98.431373%, 60.392157%, 60%)" fill-opacity="1" d="M 496.046875 74.941406 L 502.859375 71.796875 L 503.402344 76.402344 L 496.046875 74.941406 "/>
<path fill="none" stroke-width="1.5" stroke-linecap="butt" stroke-linejoin="miter" stroke="rgb(12.156863%, 47.058824%, 70.588235%)" stroke-opacity="1" stroke-miterlimit="10" d="M 603.699219 444.425781 C 624.707031 466.894531 650.660156 478.851562 681.335938 476.898438 "/>
<path fill-rule="nonzero" fill="rgb(12.156863%, 47.058824%, 70.588235%)" fill-opacity="1" d="M 688.457031 476.445312 L 681.484375 479.210938 L 681.191406 474.585938 L 688.457031 476.445312 "/>
<path fill="none" stroke-width="1.5" stroke-linecap="butt" stroke-linejoin="miter" stroke="rgb(98.431373%, 60.392157%, 60%)" stroke-opacity="1" stroke-miterlimit="10" d="M 603.699219 444.425781 C 591.335938 412.242188 569.375 389.027344 536.726562 378.007812 "/>
<path fill-rule="nonzero" fill="rgb(98.431373%, 60.392157%, 60%)" fill-opacity="1" d="M 529.96875 375.730469 L 537.46875 375.8125 L 535.988281 380.207031 L 529.96875 375.730469 "/>
<path fill="none" stroke-width="1.5" stroke-linecap="butt" stroke-linejoin="miter" stroke="rgb(41.568627%, 23.921569%, 60.392157%)" stroke-opacity="1" stroke-miterlimit="10" d="M 374.09375 97 C 375.613281 81.832031 371.988281 67.804688 360.859375 57.453125 "/>
<path fill-rule="nonzero" fill="rgb(41.568627%, 23.921569%, 60.392157%)" fill-opacity="1" d="M 355.632812 52.597656 L 362.4375 55.757812 L 359.277344 59.152344 L 355.632812 52.597656 "/>
<path fill="none" stroke-width="1.5" stroke-linecap="butt" stroke-linejoin="miter" stroke="rgb(98.431373%, 60.392157%, 60%)" stroke-opacity="1" stroke-miterlimit="10" d="M 602.648438 123.164062 C 592.289062 106.296875 577.492188 95.019531 557.863281 92.710938 "/>
<path fill-rule="nonzero" fill="rgb(98.431373%, 60.392157%, 60%)" fill-opacity="1" d="M 550.777344 91.875 L 558.132812 90.410156 L 557.59375 95.011719 L 550.777344 91.875 "/>
<path fill="none" stroke-width="1.5" stroke-linecap="butt" stroke-linejoin="miter" stroke="rgb(98.431373%, 60.392157%, 60%)" stroke-opacity="1" stroke-miterlimit="10" d="M 485.289062 204.914062 C 504.507812 212.078125 523.761719 211.808594 541.28125 201.199219 "/>
<path fill-rule="nonzero" fill="rgb(98.431373%, 60.392157%, 60%)" fill-opacity="1" d="M 547.382812 197.507812 L 542.484375 203.183594 L 540.082031 199.21875 L 547.382812 197.507812 "/>
<path fill="none" stroke-width="1.5" stroke-linecap="butt" stroke-linejoin="miter" stroke="rgb(12.156863%, 47.058824%, 70.588235%)" stroke-opacity="1" stroke-miterlimit="10" d="M 750 450.773438 C 759.484375 430.65625 760.859375 409.875 751.074219 389.929688 "/>
<path fill-rule="nonzero" fill="rgb(12.156863%, 47.058824%, 70.588235%)" fill-opacity="1" d="M 747.933594 383.527344 L 753.15625 388.910156 L 748.992188 390.953125 L 747.933594 383.527344 "/>
<path fill="none" stroke-width="1.5" stroke-linecap="butt" stroke-linejoin="miter" stroke="rgb(99.215686%, 74.901961%, 43.529412%)" stroke-opacity="1" stroke-miterlimit="10" d="M 284.585938 601.257812 C 303.644531 591.960938 317.121094 577.339844 321.695312 556.660156 "/>
<path fill-rule="nonzero" fill="rgb(99.215686%, 74.901961%, 43.529412%)" fill-opacity="1" d="M 323.238281 549.699219 L 323.960938 557.164062 L 319.433594 556.160156 L 323.238281 549.699219 "/>
<path fill="none" stroke-width="2.5" stroke-linecap="butt" stroke-linejoin="miter" stroke="rgb(70.196078%, 70.196078%, 70.196078%)" stroke-opacity="1" stroke-miterlimit="10" d="M 640.074219 485.90625 C 636.972656 470.023438 628.96875 456.921875 614.503906 449.765625 "/>
<path fill-rule="nonzero" fill="rgb(70.196078%, 70.196078%, 70.196078%)" fill-opacity="1" d="M 608.109375 446.605469 L 615.53125 447.6875 L 613.476562 451.84375 L 608.109375 446.605469 "/>
<path fill="none" stroke-width="1.5" stroke-linecap="butt" stroke-linejoin="miter" stroke="rgb(41.568627%, 23.921569%, 60.392157%)" stroke-opacity="1" stroke-miterlimit="10" d="M 289.40625 160.230469 C 306.453125 163.800781 322.695312 161.25 335.941406 150 "/>
<path fill-rule="nonzero" fill="rgb(41.568627%, 23.921569%, 60.392157%)" fill-opacity="1" d="M 341.375 145.378906 L 337.441406 151.765625 L 334.441406 148.230469 L 341.375 145.378906 "/>
<path fill="none" stroke-width="1.5" stroke-linecap="butt" stroke-linejoin="miter" stroke="rgb(12.156863%, 47.058824%, 70.588235%)" stroke-opacity="1" stroke-miterlimit="10" d="M 666.042969 394.398438 C 644.960938 416.730469 634.605469 443.339844 638.515625 473.78125 "/>
<path fill-rule="nonzero" fill="rgb(12.156863%, 47.058824%, 70.588235%)" fill-opacity="1" d="M 639.425781 480.855469 L 636.21875 474.074219 L 640.816406 473.484375 L 639.425781 480.855469 "/>
<path fill="none" stroke-width="1.5" stroke-linecap="butt" stroke-linejoin="miter" stroke="rgb(98.431373%, 60.392157%, 60%)" stroke-opacity="1" stroke-miterlimit="10" d="M 642.023438 558.296875 C 652.234375 538.46875 654.394531 517.667969 645.242188 497.363281 "/>
<path fill-rule="nonzero" fill="rgb(98.431373%, 60.392157%, 60%)" fill-opacity="1" d="M 642.308594 490.863281 L 647.355469 496.410156 L 643.128906 498.316406 L 642.308594 490.863281 "/>
<path fill="none" stroke-width="1.5" stroke-linecap="butt" stroke-linejoin="miter" stroke="rgb(12.156863%, 47.058824%, 70.588235%)" stroke-opacity="1" stroke-miterlimit="10" d="M 679.683594 300.832031 C 661.652344 326.449219 655.148438 354.800781 663.453125 384.988281 "/>
<path fill-rule="nonzero" fill="rgb(12.156863%, 47.058824%, 70.588235%)" fill-opacity="1" d="M 665.34375 391.863281 L 661.21875 385.601562 L 665.6875 384.371094 L 665.34375 391.863281 "/>
<path fill-rule="nonzero" fill="rgb(100%, 84.313725%, 0%)" fill-opacity="1" stroke-width="1" stroke-linecap="butt" stroke-linejoin="miter" stroke="rgb(100%, 84.313725%, 0%)" stroke-opacity="1" stroke-miterlimit="10" d="M 123.53125 207.566406 L 130.03125 207.566406 L 130.03125 214.066406 L 123.53125 214.066406 Z M 123.53125 207.566406 "/>
<path fill-rule="nonzero" fill="rgb(12.156863%, 47.058824%, 70.588235%)" fill-opacity="1" stroke-width="1" stroke-linecap="butt" stroke-linejoin="miter" stroke="rgb(12.156863%, 47.058824%, 70.588235%)" stroke-opacity="1" stroke-miterlimit="10" d="M 693.828125 476.277344 C 693.828125 479.945312 688.328125 479.945312 688.328125 476.277344 C 688.328125 472.609375 693.828125 472.609375 693.828125 476.277344 "/>
<path fill-rule="nonzero" fill="rgb(12.156863%, 47.058824%, 70.588235%)" fill-opacity="1" stroke-width="1" stroke-linecap="butt" stroke-linejoin="miter" stroke="rgb(12.156863%, 47.058824%, 70.588235%)" stroke-opacity="1" stroke-miterlimit="10" d="M 598.054688 373.894531 C 598.054688 377.5625 592.554688 377.5625 592.554688 373.894531 C 592.554688 370.226562 598.054688 370.226562 598.054688 373.894531 "/>
<path fill-rule="nonzero" fill="rgb(30.196078%, 68.627451%, 29.019608%)" fill-opacity="1" stroke-width="1" stroke-linecap="butt" stroke-linejoin="miter" stroke="rgb(30.196078%, 68.627451%, 29.019608%)" stroke-opacity="1" stroke-miterlimit="10" d="M 379.71875 750 C 379.71875 753.667969 374.21875 753.667969 374.21875 750 C 374.21875 746.332031 379.71875 746.332031 379.71875 750 "/>
<path fill-rule="nonzero" fill="rgb(12.156863%, 47.058824%, 70.588235%)" fill-opacity="1" stroke-width="1" stroke-linecap="butt" stroke-linejoin="miter" stroke="rgb(12.156863%, 47.058824%, 70.588235%)" stroke-opacity="1" stroke-miterlimit="10" d="M 530 444.9375 C 530 448.605469 524.5 448.605469 524.5 444.9375 C 524.5 441.269531 530 441.269531 530 444.9375 "/>
<path fill-rule="nonzero" fill="rgb(12.156863%, 47.058824%, 70.588235%)" fill-opacity="1" stroke-width="1" stroke-linecap="butt" stroke-linejoin="miter" stroke="rgb(12.156863%, 47.058824%, 70.588235%)" stroke-opacity="1" stroke-miterlimit="10" d="M 684.632812 348.460938 C 684.632812 352.128906 679.132812 352.128906 679.132812 348.460938 C 679.132812 344.792969 684.632812 344.792969 684.632812 348.460938 "/>
<path fill-rule="nonzero" fill="rgb(12.156863%, 47.058824%, 70.588235%)" fill-opacity="1" stroke-width="1" stroke-linecap="butt" stroke-linejoin="miter" stroke="rgb(12.156863%, 47.058824%, 70.588235%)" stroke-opacity="1" stroke-miterlimit="10" d="M 491.003906 511.527344 C 491.003906 515.191406 485.503906 515.191406 485.503906 511.527344 C 485.503906 507.859375 491.003906 507.859375 491.003906 511.527344 "/>
<path fill-rule="nonzero" fill="rgb(30.196078%, 68.627451%, 29.019608%)" fill-opacity="1" stroke-width="1" stroke-linecap="butt" stroke-linejoin="miter" stroke="rgb(30.196078%, 68.627451%, 29.019608%)" stroke-opacity="1" stroke-miterlimit="10" d="M 110.429688 262.011719 C 110.429688 265.675781 104.929688 265.675781 104.929688 262.011719 C 104.929688 258.34375 110.429688 258.34375 110.429688 262.011719 "/>
<path fill-rule="nonzero" fill="rgb(30.196078%, 68.627451%, 29.019608%)" fill-opacity="1" stroke-width="1" stroke-linecap="butt" stroke-linejoin="miter" stroke="rgb(30.196078%, 68.627451%, 29.019608%)" stroke-opacity="1" stroke-miterlimit="10" d="M 319.699219 741.632812 C 319.699219 745.300781 314.199219 745.300781 314.199219 741.632812 C 314.199219 737.96875 319.699219 737.96875 319.699219 741.632812 "/>
<path fill-rule="nonzero" fill="rgb(30.196078%, 68.627451%, 29.019608%)" fill-opacity="1" stroke-width="1" stroke-linecap="butt" stroke-linejoin="miter" stroke="rgb(30.196078%, 68.627451%, 29.019608%)" stroke-opacity="1" stroke-miterlimit="10" d="M 139.621094 395.933594 C 139.621094 399.597656 134.121094 399.597656 134.121094 395.933594 C 134.121094 392.265625 139.621094 392.265625 139.621094 395.933594 "/>
<path fill-rule="nonzero" fill="rgb(30.196078%, 68.627451%, 29.019608%)" fill-opacity="1" stroke-width="1" stroke-linecap="butt" stroke-linejoin="miter" stroke="rgb(30.196078%, 68.627451%, 29.019608%)" stroke-opacity="1" stroke-miterlimit="10" d="M 204.53125 584.558594 C 204.53125 588.226562 199.03125 588.226562 199.03125 584.558594 C 199.03125 580.894531 204.53125 580.894531 204.53125 584.558594 "/>
<path fill-rule="nonzero" fill="rgb(30.196078%, 68.627451%, 29.019608%)" fill-opacity="1" stroke-width="1" stroke-linecap="butt" stroke-linejoin="miter" stroke="rgb(30.196078%, 68.627451%, 29.019608%)" stroke-opacity="1" stroke-miterlimit="10" d="M 606.640625 684.242188 C 606.640625 687.910156 601.140625 687.910156 601.140625 684.242188 C 601.140625 680.574219 606.640625 680.574219 606.640625 684.242188 "/>
<path fill-rule="nonzero" fill="rgb(30.196078%, 68.627451%, 29.019608%)" fill-opacity="1" stroke-width="1" stroke-linecap="butt" stroke-linejoin="miter" stroke="rgb(30.196078%, 68.627451%, 29.019608%)" stroke-opacity="1" stroke-miterlimit="10" d="M 554.914062 712.164062 C 554.914062 715.832031 549.414062 715.832031 549.414062 712.164062 C 549.414062 708.496094 554.914062 708.496094 554.914062 712.164062 "/>
<path fill-rule="nonzero" fill="rgb(30.196078%, 68.627451%, 29.019608%)" fill-opacity="1" stroke-width="1" stroke-linecap="butt" stroke-linejoin="miter" stroke="rgb(30.196078%, 68.627451%, 29.019608%)" stroke-opacity="1" stroke-miterlimit="10" d="M 500.171875 736.890625 C 500.171875 740.554688 494.671875 740.554688 494.671875 736.890625 C 494.671875 733.222656 500.171875 733.222656 500.171875 736.890625 "/>
<path fill-rule="nonzero" fill="rgb(14.901961%, 14.901961%, 14.901961%)" fill-opacity="1" stroke-width="1" stroke-linecap="butt" stroke-linejoin="miter" stroke="rgb(14.901961%, 14.901961%, 14.901961%)" stroke-opacity="1" stroke-miterlimit="10" d="M 650.164062 663.171875 L 653.914062 655.671875 L 657.664062 663.171875 Z M 650.164062 663.171875 "/>
<path fill-rule="nonzero" fill="rgb(30.196078%, 68.627451%, 29.019608%)" fill-opacity="1" stroke-width="1" stroke-linecap="butt" stroke-linejoin="miter" stroke="rgb(30.196078%, 68.627451%, 29.019608%)" stroke-opacity="1" stroke-miterlimit="10" d="M 440.867188 749.570312 C 440.867188 753.238281 435.367188 753.238281 435.367188 749.570312 C 435.367188 745.90625 440.867188 745.90625 440.867188 749.570312 "/>
<path fill-rule="nonzero" fill="rgb(98.431373%, 60.392157%, 60%)" fill-opacity="1" stroke-width="1" stroke-linecap="butt" stroke-linejoin="miter" stroke="rgb(98.431373%, 60.392157%, 60%)" stroke-opacity="1" stroke-miterlimit="10" d="M 476.445312 317.554688 C 476.445312 321.222656 470.945312 321.222656 470.945312 317.554688 C 470.945312 313.886719 476.445312 313.886719 476.445312 317.554688 "/>
<path fill-rule="nonzero" fill="rgb(12.156863%, 47.058824%, 70.588235%)" fill-opacity="1" stroke-width="1" stroke-linecap="butt" stroke-linejoin="miter" stroke="rgb(12.156863%, 47.058824%, 70.588235%)" stroke-opacity="1" stroke-miterlimit="10" d="M 749.527344 381.171875 C 749.527344 384.839844 744.027344 384.839844 744.027344 381.171875 C 744.027344 377.503906 749.527344 377.503906 749.527344 381.171875 "/>
<path fill-rule="nonzero" fill="rgb(30.196078%, 68.627451%, 29.019608%)" fill-opacity="1" stroke-width="1" stroke-linecap="butt" stroke-linejoin="miter" stroke="rgb(30.196078%, 68.627451%, 29.019608%)" stroke-opacity="1" stroke-miterlimit="10" d="M 185.800781 492.675781 C 185.800781 496.34375 180.300781 496.34375 180.300781 492.675781 C 180.300781 489.007812 185.800781 489.007812 185.800781 492.675781 "/>
<path fill-rule="nonzero" fill="rgb(98.431373%, 60.392157%, 60%)" fill-opacity="1" stroke-width="1" stroke-linecap="butt" stroke-linejoin="miter" stroke="rgb(98.431373%, 60.392157%, 60%)" stroke-opacity="1" stroke-miterlimit="10" d="M 530.230469 374.886719 C 530.230469 378.554688 524.730469 378.554688 524.730469 374.886719 C 524.730469 371.222656 530.230469 371.222656 530.230469 374.886719 "/>
<path fill-rule="nonzero" fill="rgb(30.196078%, 68.627451%, 29.019608%)" fill-opacity="1" stroke-width="1" stroke-linecap="butt" stroke-linejoin="miter" stroke="rgb(30.196078%, 68.627451%, 29.019608%)" stroke-opacity="1" stroke-miterlimit="10" d="M 111.242188 324.566406 C 111.242188 328.234375 105.742188 328.234375 105.742188 324.566406 C 105.742188 320.898438 111.242188 320.898438 111.242188 324.566406 "/>
<path fill-rule="nonzero" fill="rgb(99.215686%, 74.901961%, 43.529412%)" fill-opacity="1" stroke-width="1" stroke-linecap="butt" stroke-linejoin="miter" stroke="rgb(99.215686%, 74.901961%, 43.529412%)" stroke-opacity="1" stroke-miterlimit="10" d="M 148.066406 446.5 C 148.066406 450.167969 142.566406 450.167969 142.566406 446.5 C 142.566406 442.835938 148.066406 442.835938 148.066406 446.5 "/>
<path fill-rule="nonzero" fill="rgb(99.215686%, 74.901961%, 43.529412%)" fill-opacity="1" stroke-width="1" stroke-linecap="butt" stroke-linejoin="miter" stroke="rgb(99.215686%, 74.901961%, 43.529412%)" stroke-opacity="1" stroke-miterlimit="10" d="M 336.394531 476.101562 C 336.394531 479.769531 330.894531 479.769531 330.894531 476.101562 C 330.894531 472.4375 336.394531 472.4375 336.394531 476.101562 "/>
<path fill-rule="nonzero" fill="rgb(30.196078%, 68.627451%, 29.019608%)" fill-opacity="1" stroke-width="1" stroke-linecap="butt" stroke-linejoin="miter" stroke="rgb(30.196078%, 68.627451%, 29.019608%)" stroke-opacity="1" stroke-miterlimit="10" d="M 227.488281 661.199219 C 227.488281 664.867188 221.988281 664.867188 221.988281 661.199219 C 221.988281 657.53125 227.488281 657.53125 227.488281 661.199219 "/>
<path fill-rule="nonzero" fill="rgb(99.215686%, 74.901961%, 43.529412%)" fill-opacity="1" stroke-width="1" stroke-linecap="butt" stroke-linejoin="miter" stroke="rgb(99.215686%, 74.901961%, 43.529412%)" stroke-opacity="1" stroke-miterlimit="10" d="M 282.605469 295.753906 C 282.605469 299.421875 277.105469 299.421875 277.105469 295.753906 C 277.105469 292.085938 282.605469 292.085938 282.605469 295.753906 "/>
<path fill-rule="nonzero" fill="rgb(99.215686%, 74.901961%, 43.529412%)" fill-opacity="1" stroke-width="1" stroke-linecap="butt" stroke-linejoin="miter" stroke="rgb(99.215686%, 74.901961%, 43.529412%)" stroke-opacity="1" stroke-miterlimit="10" d="M 98.316406 513.332031 C 98.316406 518.332031 90.816406 518.332031 90.816406 513.332031 C 90.816406 508.332031 98.316406 508.332031 98.316406 513.332031 "/>
<path fill-rule="nonzero" fill="rgb(30.196078%, 68.627451%, 29.019608%)" fill-opacity="1" stroke-width="1" stroke-linecap="butt" stroke-linejoin="miter" stroke="rgb(30.196078%, 68.627451%, 29.019608%)" stroke-opacity="1" stroke-miterlimit="10" d="M 263.597656 716.089844 C 263.597656 719.757812 258.097656 719.757812 258.097656 716.089844 C 258.097656 712.425781 263.597656 712.425781 263.597656 716.089844 "/>
<path fill-rule="nonzero" fill="rgb(100%, 84.313725%, 0%)" fill-opacity="1" stroke-width="1" stroke-linecap="butt" stroke-linejoin="miter" stroke="rgb(100%, 84.313725%, 0%)" stroke-opacity="1" stroke-miterlimit="10" d="M 188.550781 121.597656 L 195.050781 121.597656 L 195.050781 128.097656 L 188.550781 128.097656 Z M 188.550781 121.597656 "/>
<path fill-rule="nonzero" fill="rgb(99.215686%, 74.901961%, 43.529412%)" fill-opacity="1" stroke-width="1" stroke-linecap="butt" stroke-linejoin="miter" stroke="rgb(99.215686%, 74.901961%, 43.529412%)" stroke-opacity="1" stroke-miterlimit="10" d="M 275.273438 348.171875 C 275.273438 352.503906 268.773438 352.503906 268.773438 348.171875 C 268.773438 343.839844 275.273438 343.839844 275.273438 348.171875 "/>
<path fill-rule="nonzero" fill="rgb(99.215686%, 74.901961%, 43.529412%)" fill-opacity="1" stroke-width="1" stroke-linecap="butt" stroke-linejoin="miter" stroke="rgb(99.215686%, 74.901961%, 43.529412%)" stroke-opacity="1" stroke-miterlimit="10" d="M 321.824219 404.542969 C 321.824219 408.210938 316.324219 408.210938 316.324219 404.542969 C 316.324219 400.878906 321.824219 400.878906 321.824219 404.542969 "/>
<path fill-rule="nonzero" fill="rgb(99.215686%, 74.901961%, 43.529412%)" fill-opacity="1" stroke-width="1" stroke-linecap="butt" stroke-linejoin="miter" stroke="rgb(99.215686%, 74.901961%, 43.529412%)" stroke-opacity="1" stroke-miterlimit="10" d="M 117.890625 567.625 C 117.890625 571.292969 112.390625 571.292969 112.390625 567.625 C 112.390625 563.960938 117.890625 563.960938 117.890625 567.625 "/>
<path fill-rule="nonzero" fill="rgb(41.568627%, 23.921569%, 60.392157%)" fill-opacity="1" stroke-width="1" stroke-linecap="butt" stroke-linejoin="miter" stroke="rgb(41.568627%, 23.921569%, 60.392157%)" stroke-opacity="1" stroke-miterlimit="10" d="M 238.441406 150.027344 C 238.441406 153.691406 232.941406 153.691406 232.941406 150.027344 C 232.941406 146.359375 238.441406 146.359375 238.441406 150.027344 "/>
<path fill-rule="nonzero" fill="rgb(98.431373%, 60.392157%, 60%)" fill-opacity="1" stroke-width="1" stroke-linecap="butt" stroke-linejoin="miter" stroke="rgb(98.431373%, 60.392157%, 60%)" stroke-opacity="1" stroke-miterlimit="10" d="M 613.332031 179.273438 C 613.332031 182.941406 607.832031 182.941406 607.832031 179.273438 C 607.832031 175.605469 613.332031 175.605469 613.332031 179.273438 "/>
<path fill-rule="nonzero" fill="rgb(12.156863%, 47.058824%, 70.588235%)" fill-opacity="1" stroke-width="1" stroke-linecap="butt" stroke-linejoin="miter" stroke="rgb(12.156863%, 47.058824%, 70.588235%)" stroke-opacity="1" stroke-miterlimit="10" d="M 471.21875 575.257812 C 471.21875 578.921875 465.71875 578.921875 465.71875 575.257812 C 465.71875 571.589844 471.21875 571.589844 471.21875 575.257812 "/>
<path fill-rule="nonzero" fill="rgb(14.901961%, 14.901961%, 14.901961%)" fill-opacity="1" stroke-width="1" stroke-linecap="butt" stroke-linejoin="miter" stroke="rgb(14.901961%, 14.901961%, 14.901961%)" stroke-opacity="1" stroke-miterlimit="10" d="M 442.316406 632.238281 L 446.066406 624.738281 L 449.816406 632.238281 Z M 442.316406 632.238281 "/>
<path fill-rule="nonzero" fill="rgb(99.215686%, 74.901961%, 43.529412%)" fill-opacity="1" stroke-width="1" stroke-linecap="butt" stroke-linejoin="miter" stroke="rgb(99.215686%, 74.901961%, 43.529412%)" stroke-opacity="1" stroke-miterlimit="10" d="M 211.035156 386.804688 C 211.035156 390.46875 205.535156 390.46875 205.535156 386.804688 C 205.535156 383.136719 211.035156 383.136719 211.035156 386.804688 "/>
<path fill-rule="nonzero" fill="rgb(99.215686%, 74.901961%, 43.529412%)" fill-opacity="1" stroke-width="1" stroke-linecap="butt" stroke-linejoin="miter" stroke="rgb(99.215686%, 74.901961%, 43.529412%)" stroke-opacity="1" stroke-miterlimit="10" d="M 326.554688 547.136719 C 326.554688 550.804688 321.054688 550.804688 321.054688 547.136719 C 321.054688 543.46875 326.554688 543.46875 326.554688 547.136719 "/>
<path fill-rule="nonzero" fill="rgb(98.431373%, 60.392157%, 60%)" fill-opacity="1" stroke-width="1" stroke-linecap="butt" stroke-linejoin="miter" stroke="rgb(98.431373%, 60.392157%, 60%)" stroke-opacity="1" stroke-miterlimit="10" d="M 552.378906 196.148438 C 552.378906 199.816406 546.878906 199.816406 546.878906 196.148438 C 546.878906 192.484375 552.378906 192.484375 552.378906 196.148438 "/>
<path fill-rule="nonzero" fill="rgb(98.431373%, 60.392157%, 60%)" fill-opacity="1" stroke-width="1" stroke-linecap="butt" stroke-linejoin="miter" stroke="rgb(98.431373%, 60.392157%, 60%)" stroke-opacity="1" stroke-miterlimit="10" d="M 451.515625 255.039062 C 451.515625 258.707031 446.015625 258.707031 446.015625 255.039062 C 446.015625 251.375 451.515625 251.375 451.515625 255.039062 "/>
<path fill-rule="nonzero" fill="rgb(14.901961%, 14.901961%, 14.901961%)" fill-opacity="1" stroke-width="1" stroke-linecap="butt" stroke-linejoin="miter" stroke="rgb(14.901961%, 14.901961%, 14.901961%)" stroke-opacity="1" stroke-miterlimit="10" d="M 46.25 465.007812 L 50 457.507812 L 53.75 465.007812 Z M 46.25 465.007812 "/>
<path fill-rule="nonzero" fill="rgb(99.215686%, 74.901961%, 43.529412%)" fill-opacity="1" stroke-width="1" stroke-linecap="butt" stroke-linejoin="miter" stroke="rgb(99.215686%, 74.901961%, 43.529412%)" stroke-opacity="1" stroke-miterlimit="10" d="M 65.746094 554.351562 C 65.746094 558.015625 60.246094 558.015625 60.246094 554.351562 C 60.246094 550.683594 65.746094 550.683594 65.746094 554.351562 "/>
<path fill-rule="nonzero" fill="rgb(41.568627%, 23.921569%, 60.392157%)" fill-opacity="1" stroke-width="1" stroke-linecap="butt" stroke-linejoin="miter" stroke="rgb(41.568627%, 23.921569%, 60.392157%)" stroke-opacity="1" stroke-miterlimit="10" d="M 346.125 143.683594 C 346.125 147.351562 340.625 147.351562 340.625 143.683594 C 340.625 140.015625 346.125 140.015625 346.125 143.683594 "/>
<path fill-rule="nonzero" fill="rgb(98.431373%, 60.392157%, 60%)" fill-opacity="1" stroke-width="1" stroke-linecap="butt" stroke-linejoin="miter" stroke="rgb(98.431373%, 60.392157%, 60%)" stroke-opacity="1" stroke-miterlimit="10" d="M 550.925781 91.570312 C 550.925781 95.238281 545.425781 95.238281 545.425781 91.570312 C 545.425781 87.902344 550.925781 87.902344 550.925781 91.570312 "/>
<path fill-rule="nonzero" fill="rgb(70.196078%, 70.196078%, 70.196078%)" fill-opacity="1" stroke-width="1" stroke-linecap="butt" stroke-linejoin="miter" stroke="rgb(70.196078%, 70.196078%, 70.196078%)" stroke-opacity="1" stroke-miterlimit="10" d="M 608.546875 444.425781 C 608.546875 450.890625 598.847656 450.890625 598.847656 444.425781 C 598.847656 437.957031 608.546875 437.957031 608.546875 444.425781 "/>
<path fill-rule="nonzero" fill="rgb(41.568627%, 23.921569%, 60.392157%)" fill-opacity="1" stroke-width="1" stroke-linecap="butt" stroke-linejoin="miter" stroke="rgb(41.568627%, 23.921569%, 60.392157%)" stroke-opacity="1" stroke-miterlimit="10" d="M 376.84375 97 C 376.84375 100.664062 371.34375 100.664062 371.34375 97 C 371.34375 93.332031 376.84375 93.332031 376.84375 97 "/>
<path fill-rule="nonzero" fill="rgb(14.901961%, 14.901961%, 14.901961%)" fill-opacity="1" stroke-width="1" stroke-linecap="butt" stroke-linejoin="miter" stroke="rgb(14.901961%, 14.901961%, 14.901961%)" stroke-opacity="1" stroke-miterlimit="10" d="M 349.09375 53.75 L 352.84375 46.25 L 356.59375 53.75 Z M 349.09375 53.75 "/>
<path fill-rule="nonzero" fill="rgb(98.431373%, 60.392157%, 60%)" fill-opacity="1" stroke-width="1" stroke-linecap="butt" stroke-linejoin="miter" stroke="rgb(98.431373%, 60.392157%, 60%)" stroke-opacity="1" stroke-miterlimit="10" d="M 605.398438 123.164062 C 605.398438 126.832031 599.898438 126.832031 599.898438 123.164062 C 599.898438 119.5 605.398438 119.5 605.398438 123.164062 "/>
<path fill-rule="nonzero" fill="rgb(98.431373%, 60.392157%, 60%)" fill-opacity="1" stroke-width="1" stroke-linecap="butt" stroke-linejoin="miter" stroke="rgb(98.431373%, 60.392157%, 60%)" stroke-opacity="1" stroke-miterlimit="10" d="M 488.039062 204.914062 C 488.039062 208.582031 482.539062 208.582031 482.539062 204.914062 C 482.539062 201.25 488.039062 201.25 488.039062 204.914062 "/>
<path fill-rule="nonzero" fill="rgb(12.156863%, 47.058824%, 70.588235%)" fill-opacity="1" stroke-width="1" stroke-linecap="butt" stroke-linejoin="miter" stroke="rgb(12.156863%, 47.058824%, 70.588235%)" stroke-opacity="1" stroke-miterlimit="10" d="M 752.75 450.773438 C 752.75 454.441406 747.25 454.441406 747.25 450.773438 C 747.25 447.109375 752.75 447.109375 752.75 450.773438 "/>
<path fill-rule="nonzero" fill="rgb(100%, 84.313725%, 0%)" fill-opacity="1" stroke-width="1" stroke-linecap="butt" stroke-linejoin="miter" stroke="rgb(100%, 84.313725%, 0%)" stroke-opacity="1" stroke-miterlimit="10" d="M 281.335938 598.007812 L 287.835938 598.007812 L 287.835938 604.507812 L 281.335938 604.507812 Z M 281.335938 598.007812 "/>
<path fill-rule="nonzero" fill="rgb(70.196078%, 70.196078%, 70.196078%)" fill-opacity="1" stroke-width="1" stroke-linecap="butt" stroke-linejoin="miter" stroke="rgb(70.196078%, 70.196078%, 70.196078%)" stroke-opacity="1" stroke-miterlimit="10" d="M 645.425781 485.90625 C 645.425781 493.039062 634.726562 493.039062 634.726562 485.90625 C 634.726562 478.769531 645.425781 478.769531 645.425781 485.90625 "/>
<path fill-rule="nonzero" fill="rgb(41.568627%, 23.921569%, 60.392157%)" fill-opacity="1" stroke-width="1" stroke-linecap="butt" stroke-linejoin="miter" stroke="rgb(41.568627%, 23.921569%, 60.392157%)" stroke-opacity="1" stroke-miterlimit="10" d="M 292.15625 160.230469 C 292.15625 163.898438 286.65625 163.898438 286.65625 160.230469 C 286.65625 156.5625 292.15625 156.5625 292.15625 160.230469 "/>
<path fill-rule="nonzero" fill="rgb(14.901961%, 14.901961%, 14.901961%)" fill-opacity="1" stroke-width="1" stroke-linecap="butt" stroke-linejoin="miter" stroke="rgb(14.901961%, 14.901961%, 14.901961%)" stroke-opacity="1" stroke-miterlimit="10" d="M 488.757812 79.109375 L 492.507812 71.609375 L 496.257812 79.109375 Z M 488.757812 79.109375 "/>
<path fill-rule="nonzero" fill="rgb(12.156863%, 47.058824%, 70.588235%)" fill-opacity="1" stroke-width="1" stroke-linecap="butt" stroke-linejoin="miter" stroke="rgb(12.156863%, 47.058824%, 70.588235%)" stroke-opacity="1" stroke-miterlimit="10" d="M 668.792969 394.398438 C 668.792969 398.0625 663.292969 398.0625 663.292969 394.398438 C 663.292969 390.730469 668.792969 390.730469 668.792969 394.398438 "/>
<path fill-rule="nonzero" fill="rgb(100%, 84.313725%, 0%)" fill-opacity="1" stroke-width="1" stroke-linecap="butt" stroke-linejoin="miter" stroke="rgb(100%, 84.313725%, 0%)" stroke-opacity="1" stroke-miterlimit="10" d="M 638.773438 555.046875 L 645.273438 555.046875 L 645.273438 561.546875 L 638.773438 561.546875 Z M 638.773438 555.046875 "/>
<path fill-rule="nonzero" fill="rgb(100%, 84.313725%, 0%)" fill-opacity="1" stroke-width="1" stroke-linecap="butt" stroke-linejoin="miter" stroke="rgb(100%, 84.313725%, 0%)" stroke-opacity="1" stroke-miterlimit="10" d="M 676.433594 297.582031 L 682.933594 297.582031 L 682.933594 304.082031 L 676.433594 304.082031 Z M 676.433594 297.582031 "/>
</svg>
