<?xml version="1.0" encoding="UTF-8"?>
<svg xmlns="http://www.w3.org/2000/svg" xmlns:xlink="http://www.w3.org/1999/xlink" width="800" height="800" viewBox="0 0 800 800">
<rect x="-80" y="-80" width="960" height="960" fill="rgb(100%, 100%, 100%)" fill-opacity="1"/>
<path fill="none" stroke-width="5.5" stroke-linecap="butt" stroke-linejoin="miter" stroke="rgb(70.196078%, 70.196078%, 70.196078%)" stroke-opacity="1" stroke-miterlimit="10" d="M 732.707031 102.605469 C 743.769531 93.800781 750.863281 82.296875 750.414062 68.214844 "/>
<path fill-rule="nonzero" fill="rgb(70.196078%, 70.196078%, 70.196078%)" fill-opacity="1" d="M 750.1875 61.085938 L 752.730469 68.140625 L 748.097656 68.289062 L 750.1875 61.085938 "/>
<path fill="none" stroke-width="5.5" stroke-linecap="butt" stroke-linejoin="miter" stroke="rgb(70.196078%, 70.196078%, 70.196078%)" stroke-opacity="1" stroke-miterlimit="10" d="M 711.617188 164.304688 C 726.367188 151.035156 734.84375 134.402344 733.515625 114.640625 "/>
<path fill-rule="nonzero" fill="rgb(70.196078%, 70.196078%, 70.196078%)" fill-opacity="1" d="M 733.035156 107.523438 L 735.828125 114.484375 L 731.203125 114.796875 L 733.035156 107.523438 "/>
<path fill="none" stroke-width="5.5" stroke-linecap="butt" stroke-linejoin="miter" stroke="rgb(70.196078%, 70.196078%, 70.196078%)" stroke-opacity="1" stroke-miterlimit="10" d="M 688.296875 234.308594 C 705.125 218.515625 714.382812 198.988281 712.550781 176.007812 "/>
<path fill-rule="nonzero" fill="rgb(70.196078%, 70.196078%, 70.196078%)" fill-opacity="1" d="M 711.984375 168.898438 L 714.863281 175.824219 L 710.242188 176.191406 L 711.984375 168.898438 "/>
<path fill="none" stroke-width="5.5" stroke-linecap="butt" stroke-linejoin="miter" stroke="rgb(70.196078%, 70.196078%, 70.196078%)" stroke-opacity="1" stroke-miterlimit="10" d="M 663.386719 308.695312 C 681.402344 291.675781 691.1875 270.691406 689.226562 246.019531 "/>
<path fill-rule="nonzero" fill="rgb(70.196078%, 70.196078%, 70.196078%)" fill-opacity="1" d="M 688.660156 238.90625 L 691.535156 245.835938 L 686.917969 246.203125 L 688.660156 238.90625 "/>
<path fill="none" stroke-width="5.5" stroke-linecap="butt" stroke-linejoin="miter" stroke="rgb(70.196078%, 70.196078%, 70.196078%)" stroke-opacity="1" stroke-miterlimit="10" d="M 637.199219 384.007812 C 655.734375 366.859375 665.902344 345.578125 664.1875 320.414062 "/>
<path fill-rule="nonzero" fill="rgb(70.196078%, 70.196078%, 70.196078%)" fill-opacity="1" d="M 663.703125 313.296875 L 666.5 320.253906 L 661.875 320.570312 L 663.703125 313.296875 "/>
<path fill="none" stroke-width="5.5" stroke-linecap="butt" stroke-linejoin="miter" stroke="rgb(70.196078%, 70.196078%, 70.196078%)" stroke-opacity="1" stroke-miterlimit="10" d="M 609.945312 457.542969 C 628.488281 441.113281 638.929688 420.457031 637.753906 395.738281 "/>
<path fill-rule="nonzero" fill="rgb(70.196078%, 70.196078%, 70.196078%)" fill-opacity="1" d="M 637.417969 388.613281 L 640.070312 395.628906 L 635.441406 395.847656 L 637.417969 388.613281 "/>
<path fill="none" stroke-width="5.5" stroke-linecap="butt" stroke-linejoin="miter" stroke="rgb(70.196078%, 70.196078%, 70.196078%)" stroke-opacity="1" stroke-miterlimit="10" d="M 581.753906 526.714844 C 599.824219 511.824219 610.453125 492.664062 610.117188 469.285156 "/>
<path fill-rule="nonzero" fill="rgb(70.196078%, 70.196078%, 70.196078%)" fill-opacity="1" d="M 610.011719 462.152344 L 612.433594 469.25 L 607.796875 469.316406 L 610.011719 462.152344 "/>
<path fill="none" stroke-width="5.5" stroke-linecap="butt" stroke-linejoin="miter" stroke="rgb(70.196078%, 70.196078%, 70.196078%)" stroke-opacity="1" stroke-miterlimit="10" d="M 552.742188 589.335938 C 569.855469 576.769531 580.5625 559.957031 581.320312 538.769531 "/>
<path fill-rule="nonzero" fill="rgb(70.196078%, 70.196078%, 70.196078%)" fill-opacity="1" d="M 581.578125 531.644531 L 583.636719 538.855469 L 579.003906 538.6875 L 581.578125 531.644531 "/>
<path fill="none" stroke-width="5.5" stroke-linecap="butt" stroke-linejoin="miter" stroke="rgb(70.196078%, 70.196078%, 70.196078%)" stroke-opacity="1" stroke-miterlimit="10" d="M 523 643.589844 C 538.828125 633.769531 549.484375 619.808594 551.460938 601.328125 "/>
<path fill-rule="nonzero" fill="rgb(70.196078%, 70.196078%, 70.196078%)" fill-opacity="1" d="M 552.21875 594.234375 L 553.765625 601.574219 L 549.15625 601.082031 L 552.21875 594.234375 "/>
<path fill="none" stroke-width="5.5" stroke-linecap="butt" stroke-linejoin="miter" stroke="rgb(70.196078%, 70.196078%, 70.196078%)" stroke-opacity="1" stroke-miterlimit="10" d="M 430.832031 742.15625 C 440.65625 742.03125 449.75 738.90625 455.203125 730.816406 "/>
<path fill-rule="nonzero" fill="rgb(70.196078%, 70.196078%, 70.196078%)" fill-opacity="1" d="M 459.191406 724.902344 L 457.125 732.113281 L 453.285156 729.519531 L 459.191406 724.902344 "/>
<path fill="none" stroke-width="5.5" stroke-linecap="butt" stroke-linejoin="miter" stroke="rgb(70.196078%, 70.196078%, 70.196078%)" stroke-opacity="1" stroke-miterlimit="10" d="M 399.578125 750 C 406.867188 752.910156 414.683594 753.554688 421.023438 749.082031 "/>
<path fill-rule="nonzero" fill="rgb(70.196078%, 70.196078%, 70.196078%)" fill-opacity="1" d="M 426.851562 744.964844 L 422.359375 750.972656 L 419.6875 747.1875 L 426.851562 744.964844 "/>
<path fill="none" stroke-width="5.5" stroke-linecap="butt" stroke-linejoin="miter" stroke="rgb(70.196078%, 70.196078%, 70.196078%)" stroke-opacity="1" stroke-miterlimit="10" d="M 492.703125 687.558594 C 506.78125 680.992188 517.183594 670.507812 520.457031 655.367188 "/>
<path fill-rule="nonzero" fill="rgb(70.196078%, 70.196078%, 70.196078%)" fill-opacity="1" d="M 521.960938 648.394531 L 522.722656 655.855469 L 518.191406 654.878906 L 521.960938 648.394531 "/>
<path fill="none" stroke-width="5.5" stroke-linecap="butt" stroke-linejoin="miter" stroke="rgb(70.196078%, 70.196078%, 70.196078%)" stroke-opacity="1" stroke-miterlimit="10" d="M 461.925781 720.847656 C 474.070312 717.484375 484.007812 710.554688 488.445312 698.820312 "/>
<path fill-rule="nonzero" fill="rgb(70.196078%, 70.196078%, 70.196078%)" fill-opacity="1" d="M 490.96875 692.148438 L 490.613281 699.640625 L 486.277344 698 L 490.96875 692.148438 "/>
<path fill="none" stroke-width="5.5" stroke-linecap="butt" stroke-linejoin="miter" stroke="rgb(70.196078%, 70.196078%, 70.196078%)" stroke-opacity="1" stroke-miterlimit="10" d="M 368.316406 743.699219 C 373.542969 749.386719 380.214844 753.3125 387.746094 752.023438 "/>
<path fill-rule="nonzero" fill="rgb(70.196078%, 70.196078%, 70.196078%)" fill-opacity="1" d="M 394.777344 750.820312 L 388.136719 754.308594 L 387.355469 749.738281 L 394.777344 750.820312 "/>
<path fill="none" stroke-width="5.5" stroke-linecap="butt" stroke-linejoin="miter" stroke="rgb(70.196078%, 70.196078%, 70.196078%)" stroke-opacity="1" stroke-miterlimit="10" d="M 337.195312 724.085938 C 341.023438 732.777344 347.242188 739.71875 356.503906 741.46875 "/>
<path fill-rule="nonzero" fill="rgb(70.196078%, 70.196078%, 70.196078%)" fill-opacity="1" d="M 363.511719 742.792969 L 356.074219 743.746094 L 356.933594 739.191406 L 363.511719 742.792969 "/>
<path fill="none" stroke-width="5.5" stroke-linecap="butt" stroke-linejoin="miter" stroke="rgb(70.196078%, 70.196078%, 70.196078%)" stroke-opacity="1" stroke-miterlimit="10" d="M 189.25 465.179688 C 186.652344 488.554688 192.40625 509.796875 209.007812 526.414062 "/>
<path fill-rule="nonzero" fill="rgb(70.196078%, 70.196078%, 70.196078%)" fill-opacity="1" d="M 214.046875 531.457031 L 207.367188 528.050781 L 210.648438 524.773438 L 214.046875 531.457031 "/>
<path fill="none" stroke-width="5.5" stroke-linecap="butt" stroke-linejoin="miter" stroke="rgb(70.196078%, 70.196078%, 70.196078%)" stroke-opacity="1" stroke-miterlimit="10" d="M 217.308594 534.71875 C 215.910156 555.679688 221.796875 574.507812 237.347656 588.578125 "/>
<path fill-rule="nonzero" fill="rgb(70.196078%, 70.196078%, 70.196078%)" fill-opacity="1" d="M 242.636719 593.363281 L 235.792969 590.296875 L 238.902344 586.859375 L 242.636719 593.363281 "/>
<path fill="none" stroke-width="5.5" stroke-linecap="butt" stroke-linejoin="miter" stroke="rgb(70.196078%, 70.196078%, 70.196078%)" stroke-opacity="1" stroke-miterlimit="10" d="M 162.265625 389.902344 C 158.601562 414.972656 164.074219 437.992188 181.269531 456.5625 "/>
<path fill-rule="nonzero" fill="rgb(70.196078%, 70.196078%, 70.196078%)" fill-opacity="1" d="M 186.117188 461.796875 L 179.570312 458.136719 L 182.96875 454.988281 L 186.117188 461.796875 "/>
<path fill="none" stroke-width="5.5" stroke-linecap="butt" stroke-linejoin="miter" stroke="rgb(70.196078%, 70.196078%, 70.196078%)" stroke-opacity="1" stroke-miterlimit="10" d="M 306.371094 692.296875 C 308.941406 704.242188 315.070312 714.285156 326.1875 719.210938 "/>
<path fill-rule="nonzero" fill="rgb(70.196078%, 70.196078%, 70.196078%)" fill-opacity="1" d="M 332.710938 722.101562 L 325.25 721.328125 L 327.128906 717.089844 L 332.710938 722.101562 "/>
<path fill="none" stroke-width="5.5" stroke-linecap="butt" stroke-linejoin="miter" stroke="rgb(70.196078%, 70.196078%, 70.196078%)" stroke-opacity="1" stroke-miterlimit="10" d="M 276.011719 649.414062 C 277.273438 664.585938 283.371094 677.726562 296.195312 685.847656 "/>
<path fill-rule="nonzero" fill="rgb(70.196078%, 70.196078%, 70.196078%)" fill-opacity="1" d="M 302.21875 689.664062 L 294.953125 687.804688 L 297.433594 683.890625 L 302.21875 689.664062 "/>
<path fill="none" stroke-width="5.5" stroke-linecap="butt" stroke-linejoin="miter" stroke="rgb(70.196078%, 70.196078%, 70.196078%)" stroke-opacity="1" stroke-miterlimit="10" d="M 246.292969 596.675781 C 246.234375 614.8125 252.25 630.847656 266.511719 641.992188 "/>
<path fill-rule="nonzero" fill="rgb(70.196078%, 70.196078%, 70.196078%)" fill-opacity="1" d="M 272.132812 646.382812 L 265.085938 643.816406 L 267.9375 640.164062 L 272.132812 646.382812 "/>
<path fill="none" stroke-width="5.5" stroke-linecap="butt" stroke-linejoin="miter" stroke="rgb(70.196078%, 70.196078%, 70.196078%)" stroke-opacity="1" stroke-miterlimit="10" d="M 67.222656 99.226562 C 63.335938 119.523438 66.808594 138.632812 80.316406 154.230469 "/>
<path fill-rule="nonzero" fill="rgb(70.196078%, 70.196078%, 70.196078%)" fill-opacity="1" d="M 84.984375 159.621094 L 78.5625 155.746094 L 82.066406 152.714844 L 84.984375 159.621094 "/>
<path fill="none" stroke-width="5.5" stroke-linecap="butt" stroke-linejoin="miter" stroke="rgb(70.196078%, 70.196078%, 70.196078%)" stroke-opacity="1" stroke-miterlimit="10" d="M 136.246094 312.421875 C 132.007812 338.054688 137.199219 361.738281 154.453125 381.128906 "/>
<path fill-rule="nonzero" fill="rgb(70.196078%, 70.196078%, 70.196078%)" fill-opacity="1" d="M 159.195312 386.457031 L 152.722656 382.667969 L 156.1875 379.585938 L 159.195312 386.457031 "/>
<path fill="none" stroke-width="5.5" stroke-linecap="butt" stroke-linejoin="miter" stroke="rgb(70.196078%, 70.196078%, 70.196078%)" stroke-opacity="1" stroke-miterlimit="10" d="M 111.4375 235.816406 C 106.972656 260.964844 111.785156 284.316406 128.535156 303.558594 "/>
<path fill-rule="nonzero" fill="rgb(70.196078%, 70.196078%, 70.196078%)" fill-opacity="1" d="M 133.21875 308.941406 L 126.785156 305.082031 L 130.285156 302.039062 L 133.21875 308.941406 "/>
<path fill="none" stroke-width="5.5" stroke-linecap="butt" stroke-linejoin="miter" stroke="rgb(70.196078%, 70.196078%, 70.196078%)" stroke-opacity="1" stroke-miterlimit="10" d="M 88.210938 163.351562 C 83.859375 186.875 88.152344 208.835938 103.765625 226.925781 "/>
<path fill-rule="nonzero" fill="rgb(70.196078%, 70.196078%, 70.196078%)" fill-opacity="1" d="M 108.421875 232.328125 L 102.007812 228.441406 L 105.519531 225.410156 L 108.421875 232.328125 "/>
<path fill="none" stroke-width="5.5" stroke-linecap="butt" stroke-linejoin="miter" stroke="rgb(70.196078%, 70.196078%, 70.196078%)" stroke-opacity="1" stroke-miterlimit="10" d="M 50 50 C 47.042969 64.789062 49.234375 78.976562 59.222656 90.21875 "/>
<path fill-rule="nonzero" fill="rgb(70.196078%, 70.196078%, 70.196078%)" fill-opacity="1" d="M 63.960938 95.550781 L 57.488281 91.757812 L 60.953125 88.679688 L 63.960938 95.550781 "/>
<path fill-rule="nonzero" fill="rgb(14.901961%, 14.901961%, 14.901961%)" fill-opacity="1" stroke-width="1" stroke-linecap="butt" stroke-linejoin="miter" stroke="rgb(14.901961%, 14.901961%, 14.901961%)" stroke-opacity="1" stroke-miterlimit="10" d="M 744.148438 61.03125 L 750 49.332031 L 755.851562 61.03125 Z M 744.148438 61.03125 "/>
<path fill-rule="nonzero" fill="rgb(70.196078%, 70.196078%, 70.196078%)" fill-opacity="1" stroke-width="1" stroke-linecap="butt" stroke-linejoin="miter" stroke="rgb(70.196078%, 70.196078%, 70.196078%)" stroke-opacity="1" stroke-miterlimit="10" d="M 737.554688 102.605469 C 737.554688 109.074219 727.855469 109.074219 727.855469 102.605469 C 727.855469 96.140625 737.554688 96.140625 737.554688 102.605469 "/>
<path fill-rule="nonzero" fill="rgb(70.196078%, 70.196078%, 70.196078%)" fill-opacity="1" stroke-width="1" stroke-linecap="butt" stroke-linejoin="miter" stroke="rgb(70.196078%, 70.196078%, 70.196078%)" stroke-opacity="1" stroke-miterlimit="10" d="M 716.46875 164.304688 C 716.46875 170.769531 706.769531 170.769531 706.769531 164.304688 C 706.769531 157.835938 716.46875 157.835938 716.46875 164.304688 "/>
<path fill-rule="nonzero" fill="rgb(70.196078%, 70.196078%, 70.196078%)" fill-opacity="1" stroke-width="1" stroke-linecap="butt" stroke-linejoin="miter" stroke="rgb(70.196078%, 70.196078%, 70.196078%)" stroke-opacity="1" stroke-miterlimit="10" d="M 693.144531 234.308594 C 693.144531 240.777344 683.445312 240.777344 683.445312 234.308594 C 683.445312 227.84375 693.144531 227.84375 693.144531 234.308594 "/>
<path fill-rule="nonzero" fill="rgb(70.196078%, 70.196078%, 70.196078%)" fill-opacity="1" stroke-width="1" stroke-linecap="butt" stroke-linejoin="miter" stroke="rgb(70.196078%, 70.196078%, 70.196078%)" stroke-opacity="1" stroke-miterlimit="10" d="M 668.238281 308.695312 C 668.238281 315.160156 658.539062 315.160156 658.539062 308.695312 C 658.539062 302.226562 668.238281 302.226562 668.238281 308.695312 "/>
<path fill-rule="nonzero" fill="rgb(70.196078%, 70.196078%, 70.196078%)" fill-opacity="1" stroke-width="1" stroke-linecap="butt" stroke-linejoin="miter" stroke="rgb(70.196078%, 70.196078%, 70.196078%)" stroke-opacity="1" stroke-miterlimit="10" d="M 642.046875 384.007812 C 642.046875 390.472656 632.347656 390.472656 632.347656 384.007812 C 632.347656 377.539062 642.046875 377.539062 642.046875 384.007812 "/>
<path fill-rule="nonzero" fill="rgb(70.196078%, 70.196078%, 70.196078%)" fill-opacity="1" stroke-width="1" stroke-linecap="butt" stroke-linejoin="miter" stroke="rgb(70.196078%, 70.196078%, 70.196078%)" stroke-opacity="1" stroke-miterlimit="10" d="M 614.796875 457.542969 C 614.796875 464.007812 605.097656 464.007812 605.097656 457.542969 C 605.097656 451.074219 614.796875 451.074219 614.796875 457.542969 "/>
<path fill-rule="nonzero" fill="rgb(70.196078%, 70.196078%, 70.196078%)" fill-opacity="1" stroke-width="1" stroke-linecap="butt" stroke-linejoin="miter" stroke="rgb(70.196078%, 70.196078%, 70.196078%)" stroke-opacity="1" stroke-miterlimit="10" d="M 586.605469 526.714844 C 586.605469 533.179688 576.90625 533.179688 576.90625 526.714844 C 576.90625 520.246094 586.605469 520.246094 586.605469 526.714844 "/>
<path fill-rule="nonzero" fill="rgb(70.196078%, 70.196078%, 70.196078%)" fill-opacity="1" stroke-width="1" stroke-linecap="butt" stroke-linejoin="miter" stroke="rgb(70.196078%, 70.196078%, 70.196078%)" stroke-opacity="1" stroke-miterlimit="10" d="M 557.59375 589.335938 C 557.59375 595.804688 547.890625 595.804688 547.890625 589.335938 C 547.890625 582.871094 557.59375 582.871094 557.59375 589.335938 "/>
<path fill-rule="nonzero" fill="rgb(70.196078%, 70.196078%, 70.196078%)" fill-opacity="1" stroke-width="1" stroke-linecap="butt" stroke-linejoin="miter" stroke="rgb(70.196078%, 70.196078%, 70.196078%)" stroke-opacity="1" stroke-miterlimit="10" d="M 527.851562 643.589844 C 527.851562 650.054688 518.152344 650.054688 518.152344 643.589844 C 518.152344 637.121094 527.851562 637.121094 527.851562 643.589844 "/>
<path fill-rule="nonzero" fill="rgb(70.196078%, 70.196078%, 70.196078%)" fill-opacity="1" stroke-width="1" stroke-linecap="butt" stroke-linejoin="miter" stroke="rgb(70.196078%, 70.196078%, 70.196078%)" stroke-opacity="1" stroke-miterlimit="10" d="M 435.683594 742.15625 C 435.683594 748.621094 425.980469 748.621094 425.980469 742.15625 C 425.980469 735.6875 435.683594 735.6875 435.683594 742.15625 "/>
<path fill-rule="nonzero" fill="rgb(70.196078%, 70.196078%, 70.196078%)" fill-opacity="1" stroke-width="1" stroke-linecap="butt" stroke-linejoin="miter" stroke="rgb(70.196078%, 70.196078%, 70.196078%)" stroke-opacity="1" stroke-miterlimit="10" d="M 404.429688 750 C 404.429688 756.464844 394.730469 756.464844 394.730469 750 C 394.730469 743.535156 404.429688 743.535156 404.429688 750 "/>
<path fill-rule="nonzero" fill="rgb(70.196078%, 70.196078%, 70.196078%)" fill-opacity="1" stroke-width="1" stroke-linecap="butt" stroke-linejoin="miter" stroke="rgb(70.196078%, 70.196078%, 70.196078%)" stroke-opacity="1" stroke-miterlimit="10" d="M 497.554688 687.558594 C 497.554688 694.027344 487.851562 694.027344 487.851562 687.558594 C 487.851562 681.09375 497.554688 681.09375 497.554688 687.558594 "/>
<path fill-rule="nonzero" fill="rgb(70.196078%, 70.196078%, 70.196078%)" fill-opacity="1" stroke-width="1" stroke-linecap="butt" stroke-linejoin="miter" stroke="rgb(70.196078%, 70.196078%, 70.196078%)" stroke-opacity="1" stroke-miterlimit="10" d="M 466.777344 720.847656 C 466.777344 727.316406 457.078125 727.316406 457.078125 720.847656 C 457.078125 714.382812 466.777344 714.382812 466.777344 720.847656 "/>
<path fill-rule="nonzero" fill="rgb(70.196078%, 70.196078%, 70.196078%)" fill-opacity="1" stroke-width="1" stroke-linecap="butt" stroke-linejoin="miter" stroke="rgb(70.196078%, 70.196078%, 70.196078%)" stroke-opacity="1" stroke-miterlimit="10" d="M 373.167969 743.699219 C 373.167969 750.164062 363.464844 750.164062 363.464844 743.699219 C 363.464844 737.230469 373.167969 737.230469 373.167969 743.699219 "/>
<path fill-rule="nonzero" fill="rgb(70.196078%, 70.196078%, 70.196078%)" fill-opacity="1" stroke-width="1" stroke-linecap="butt" stroke-linejoin="miter" stroke="rgb(70.196078%, 70.196078%, 70.196078%)" stroke-opacity="1" stroke-miterlimit="10" d="M 342.042969 724.085938 C 342.042969 730.554688 332.34375 730.554688 332.34375 724.085938 C 332.34375 717.621094 342.042969 717.621094 342.042969 724.085938 "/>
<path fill-rule="nonzero" fill="rgb(70.196078%, 70.196078%, 70.196078%)" fill-opacity="1" stroke-width="1" stroke-linecap="butt" stroke-linejoin="miter" stroke="rgb(70.196078%, 70.196078%, 70.196078%)" stroke-opacity="1" stroke-miterlimit="10" d="M 194.101562 465.179688 C 194.101562 471.648438 184.402344 471.648438 184.402344 465.179688 C 184.402344 458.714844 194.101562 458.714844 194.101562 465.179688 "/>
<path fill-rule="nonzero" fill="rgb(70.196078%, 70.196078%, 70.196078%)" fill-opacity="1" stroke-width="1" stroke-linecap="butt" stroke-linejoin="miter" stroke="rgb(70.196078%, 70.196078%, 70.196078%)" stroke-opacity="1" stroke-miterlimit="10" d="M 222.15625 534.71875 C 222.15625 541.1875 212.457031 541.1875 212.457031 534.71875 C 212.457031 528.253906 222.15625 528.253906 222.15625 534.71875 "/>
<path fill-rule="nonzero" fill="rgb(70.196078%, 70.196078%, 70.196078%)" fill-opacity="1" stroke-width="1" stroke-linecap="butt" stroke-linejoin="miter" stroke="rgb(70.196078%, 70.196078%, 70.196078%)" stroke-opacity="1" stroke-miterlimit="10" d="M 167.113281 389.902344 C 167.113281 396.371094 157.414062 396.371094 157.414062 389.902344 C 157.414062 383.4375 167.113281 383.4375 167.113281 389.902344 "/>
<path fill-rule="nonzero" fill="rgb(70.196078%, 70.196078%, 70.196078%)" fill-opacity="1" stroke-width="1" stroke-linecap="butt" stroke-linejoin="miter" stroke="rgb(70.196078%, 70.196078%, 70.196078%)" stroke-opacity="1" stroke-miterlimit="10" d="M 311.222656 692.296875 C 311.222656 698.761719 301.523438 698.761719 301.523438 692.296875 C 301.523438 685.828125 311.222656 685.828125 311.222656 692.296875 "/>
<path fill-rule="nonzero" fill="rgb(70.196078%, 70.196078%, 70.196078%)" fill-opacity="1" stroke-width="1" stroke-linecap="butt" stroke-linejoin="miter" stroke="rgb(70.196078%, 70.196078%, 70.196078%)" stroke-opacity="1" stroke-miterlimit="10" d="M 280.863281 649.414062 C 280.863281 655.882812 271.164062 655.882812 271.164062 649.414062 C 271.164062 642.949219 280.863281 642.949219 280.863281 649.414062 "/>
<path fill-rule="nonzero" fill="rgb(70.196078%, 70.196078%, 70.196078%)" fill-opacity="1" stroke-width="1" stroke-linecap="butt" stroke-linejoin="miter" stroke="rgb(70.196078%, 70.196078%, 70.196078%)" stroke-opacity="1" stroke-miterlimit="10" d="M 251.144531 596.675781 C 251.144531 603.140625 241.445312 603.140625 241.445312 596.675781 C 241.445312 590.207031 251.144531 590.207031 251.144531 596.675781 "/>
<path fill-rule="nonzero" fill="rgb(70.196078%, 70.196078%, 70.196078%)" fill-opacity="1" stroke-width="1" stroke-linecap="butt" stroke-linejoin="miter" stroke="rgb(70.196078%, 70.196078%, 70.196078%)" stroke-opacity="1" stroke-miterlimit="10" d="M 72.074219 99.226562 C 72.074219 105.691406 62.375 105.691406 62.375 99.226562 C 62.375 92.757812 72.074219 92.757812 72.074219 99.226562 "/>
<path fill-rule="nonzero" fill="rgb(70.196078%, 70.196078%, 70.196078%)" fill-opacity="1" stroke-width="1" stroke-linecap="butt" stroke-linejoin="miter" stroke="rgb(70.196078%, 70.196078%, 70.196078%)" stroke-opacity="1" stroke-miterlimit="10" d="M 141.097656 312.421875 C 141.097656 318.886719 131.394531 318.886719 131.394531 312.421875 C 131.394531 305.953125 141.097656 305.953125 141.097656 312.421875 "/>
<path fill-rule="nonzero" fill="rgb(70.196078%, 70.196078%, 70.196078%)" fill-opacity="1" stroke-width="1" stroke-linecap="butt" stroke-linejoin="miter" stroke="rgb(70.196078%, 70.196078%, 70.196078%)" stroke-opacity="1" stroke-miterlimit="10" d="M 116.285156 235.816406 C 116.285156 242.285156 106.585938 242.285156 106.585938 235.816406 C 106.585938 229.351562 116.285156 229.351562 116.285156 235.816406 "/>
<path fill-rule="nonzero" fill="rgb(70.196078%, 70.196078%, 70.196078%)" fill-opacity="1" stroke-width="1" stroke-linecap="butt" stroke-linejoin="miter" stroke="rgb(70.196078%, 70.196078%, 70.196078%)" stroke-opacity="1" stroke-miterlimit="10" d="M 93.0625 163.351562 C 93.0625 169.816406 83.363281 169.816406 83.363281 163.351562 C 83.363281 156.882812 93.0625 156.882812 93.0625 163.351562 "/>
<path fill-rule="nonzero" fill="rgb(100%, 84.313725%, 0%)" fill-opacity="1" stroke-width="1" stroke-linecap="butt" stroke-linejoin="miter" stroke="rgb(100%, 84.313725%, 0%)" stroke-opacity="1" stroke-miterlimit="10" d="M 44.648438 44.648438 L 55.347656 44.648438 L 55.347656 55.347656 L 44.648438 55.347656 Z M 44.648438 44.648438 "/>
</svg>
