<?xml version="1.0" encoding="UTF-8"?>
<svg xmlns="http://www.w3.org/2000/svg" xmlns:xlink="http://www.w3.org/1999/xlink" width="800" height="800" viewBox="0 0 800 800">
<rect x="-80" y="-80" width="960" height="960" fill="rgb(100%, 100%, 100%)" fill-opacity="1"/>
<path fill="none" stroke-width="1.5" stroke-linecap="butt" stroke-linejoin="miter" stroke="rgb(99.215686%, 74.901961%, 43.529412%)" stroke-opacity="1" stroke-miterlimit="10" d="M 128.089844 610.367188 C 128.511719 590.230469 122.019531 572.488281 106.535156 559.65625 "/>
<path fill-rule="nonzero" fill="rgb(99.215686%, 74.901961%, 43.529412%)" fill-opacity="1" d="M 101.042969 555.105469 L 108.015625 557.871094 L 105.054688 561.441406 L 101.042969 555.105469 "/>
<path fill="none" stroke-width="1.5" stroke-linecap="butt" stroke-linejoin="miter" stroke="rgb(99.215686%, 74.901961%, 43.529412%)" stroke-opacity="1" stroke-miterlimit="10" d="M 100.488281 554.648438 C 102.128906 534.261719 96.601562 515.902344 81.6875 501.949219 "/>
<path fill-rule="nonzero" fill="rgb(99.215686%, 74.901961%, 43.529412%)" fill-opacity="1" d="M 76.480469 497.078125 L 83.269531 500.257812 L 80.105469 503.644531 L 76.480469 497.078125 "/>
<path fill="none" stroke-width="1.5" stroke-linecap="butt" stroke-linejoin="miter" stroke="rgb(99.215686%, 74.901961%, 43.529412%)" stroke-opacity="1" stroke-miterlimit="10" d="M 56.441406 435.535156 C 64.3125 415.761719 64.40625 395.835938 53.886719 377.367188 "/>
<path fill-rule="nonzero" fill="rgb(99.215686%, 74.901961%, 43.529412%)" fill-opacity="1" d="M 50.355469 371.167969 L 55.898438 376.21875 L 51.871094 378.515625 L 50.355469 371.167969 "/>
<path fill="none" stroke-width="1.5" stroke-linecap="butt" stroke-linejoin="miter" stroke="rgb(99.215686%, 74.901961%, 43.529412%)" stroke-opacity="1" stroke-miterlimit="10" d="M 305.890625 406.296875 C 324.144531 427.214844 347.183594 438.863281 374.910156 437.988281 "/>
<path fill-rule="nonzero" fill="rgb(99.215686%, 74.901961%, 43.529412%)" fill-opacity="1" d="M 382.039062 437.761719 L 374.984375 440.304688 L 374.835938 435.671875 L 382.039062 437.761719 "/>
<path fill="none" stroke-width="1.5" stroke-linecap="butt" stroke-linejoin="miter" stroke="rgb(99.215686%, 74.901961%, 43.529412%)" stroke-opacity="1" stroke-miterlimit="10" d="M 143.863281 337.542969 C 159.007812 358.46875 179.371094 371.292969 205.140625 372.75 "/>
<path fill-rule="nonzero" fill="rgb(99.215686%, 74.901961%, 43.529412%)" fill-opacity="1" d="M 212.261719 373.152344 L 205.007812 375.0625 L 205.269531 370.433594 L 212.261719 373.152344 "/>
<path fill="none" stroke-width="1.5" stroke-linecap="butt" stroke-linejoin="miter" stroke="rgb(99.215686%, 74.901961%, 43.529412%)" stroke-opacity="1" stroke-miterlimit="10" d="M 81.5 317.441406 C 96.542969 332.605469 114.847656 340.667969 136.058594 338.386719 "/>
<path fill-rule="nonzero" fill="rgb(99.215686%, 74.901961%, 43.529412%)" fill-opacity="1" d="M 143.148438 337.621094 L 136.304688 340.6875 L 135.808594 336.082031 L 143.148438 337.621094 "/>
<path fill="none" stroke-width="1.5" stroke-linecap="butt" stroke-linejoin="miter" stroke="rgb(99.215686%, 74.901961%, 43.529412%)" stroke-opacity="1" stroke-miterlimit="10" d="M 75.953125 496.585938 C 79.46875 476.046875 75.519531 456.925781 61.667969 441.394531 "/>
<path fill-rule="nonzero" fill="rgb(99.215686%, 74.901961%, 43.529412%)" fill-opacity="1" d="M 56.917969 436.070312 L 63.394531 439.851562 L 59.9375 442.9375 L 56.917969 436.070312 "/>
<path fill="none" stroke-width="1.5" stroke-linecap="butt" stroke-linejoin="miter" stroke="rgb(99.215686%, 74.901961%, 43.529412%)" stroke-opacity="1" stroke-miterlimit="10" d="M 50 370.542969 C 66.992188 360.03125 78.269531 345.054688 80.585938 325.238281 "/>
<path fill-rule="nonzero" fill="rgb(99.215686%, 74.901961%, 43.529412%)" fill-opacity="1" d="M 81.417969 318.152344 L 82.890625 325.507812 L 78.285156 324.96875 L 81.417969 318.152344 "/>
<path fill="none" stroke-width="1.5" stroke-linecap="butt" stroke-linejoin="miter" stroke="rgb(99.215686%, 74.901961%, 43.529412%)" stroke-opacity="1" stroke-miterlimit="10" d="M 382.757812 437.738281 C 402.613281 455.457031 425.929688 463.835938 452.1875 459.648438 "/>
<path fill-rule="nonzero" fill="rgb(99.215686%, 74.901961%, 43.529412%)" fill-opacity="1" d="M 459.234375 458.527344 L 452.554688 461.9375 L 451.824219 457.359375 L 459.234375 458.527344 "/>
<path fill="none" stroke-width="1.5" stroke-linecap="butt" stroke-linejoin="miter" stroke="rgb(99.215686%, 74.901961%, 43.529412%)" stroke-opacity="1" stroke-miterlimit="10" d="M 543.808594 483.417969 C 559.8125 502.464844 580.269531 513.425781 605.117188 512.972656 "/>
<path fill-rule="nonzero" fill="rgb(99.215686%, 74.901961%, 43.529412%)" fill-opacity="1" d="M 612.25 512.839844 L 605.160156 515.289062 L 605.074219 510.652344 L 612.25 512.839844 "/>
<path fill="none" stroke-width="1.5" stroke-linecap="butt" stroke-linejoin="miter" stroke="rgb(99.215686%, 74.901961%, 43.529412%)" stroke-opacity="1" stroke-miterlimit="10" d="M 459.941406 458.414062 C 481.398438 478.5 506.902344 488.253906 536.023438 484.4375 "/>
<path fill-rule="nonzero" fill="rgb(99.215686%, 74.901961%, 43.529412%)" fill-opacity="1" d="M 543.097656 483.511719 L 536.324219 486.734375 L 535.722656 482.140625 L 543.097656 483.511719 "/>
<path fill="none" stroke-width="1.5" stroke-linecap="butt" stroke-linejoin="miter" stroke="rgb(99.215686%, 74.901961%, 43.529412%)" stroke-opacity="1" stroke-miterlimit="10" d="M 212.976562 373.191406 C 236.28125 397.195312 264.730469 409.519531 298.0625 406.910156 "/>
<path fill-rule="nonzero" fill="rgb(99.215686%, 74.901961%, 43.529412%)" fill-opacity="1" d="M 305.175781 406.351562 L 298.246094 409.21875 L 297.882812 404.597656 L 305.175781 406.351562 "/>
<path fill="none" stroke-width="1.5" stroke-linecap="butt" stroke-linejoin="miter" stroke="rgb(99.215686%, 74.901961%, 43.529412%)" stroke-opacity="1" stroke-miterlimit="10" d="M 156.792969 661.5 C 156.289062 642.660156 149.46875 626.308594 134.382812 615.058594 "/>
<path fill-rule="nonzero" fill="rgb(99.215686%, 74.901961%, 43.529412%)" fill-opacity="1" d="M 128.664062 610.796875 L 135.769531 613.203125 L 133 616.917969 L 128.664062 610.796875 "/>
<path fill="none" stroke-width="1.5" stroke-linecap="butt" stroke-linejoin="miter" stroke="rgb(98.431373%, 60.392157%, 60%)" stroke-opacity="1" stroke-miterlimit="10" d="M 338.886719 132.609375 C 311.914062 155.828125 297.082031 185.25 297.660156 220.820312 "/>
<path fill-rule="nonzero" fill="rgb(98.431373%, 60.392157%, 60%)" fill-opacity="1" d="M 297.777344 227.949219 L 295.34375 220.855469 L 299.976562 220.78125 L 297.777344 227.949219 "/>
<path fill="none" stroke-width="1.5" stroke-linecap="butt" stroke-linejoin="miter" stroke="rgb(98.431373%, 60.392157%, 60%)" stroke-opacity="1" stroke-miterlimit="10" d="M 272.578125 321.832031 C 249.78125 349.453125 240.09375 381.160156 246.722656 416.339844 "/>
<path fill-rule="nonzero" fill="rgb(98.431373%, 60.392157%, 60%)" fill-opacity="1" d="M 248.042969 423.347656 L 244.445312 416.769531 L 249 415.910156 L 248.042969 423.347656 "/>
<path fill="none" stroke-width="1.5" stroke-linecap="butt" stroke-linejoin="miter" stroke="rgb(41.568627%, 23.921569%, 60.392157%)" stroke-opacity="1" stroke-miterlimit="10" d="M 640.84375 658.078125 C 620.195312 662.035156 603.546875 672.550781 593.78125 691.132812 "/>
<path fill-rule="nonzero" fill="rgb(41.568627%, 23.921569%, 60.392157%)" fill-opacity="1" d="M 590.460938 697.449219 L 591.730469 690.054688 L 595.832031 692.210938 L 590.460938 697.449219 "/>
<path fill="none" stroke-width="1.5" stroke-linecap="butt" stroke-linejoin="miter" stroke="rgb(98.431373%, 60.392157%, 60%)" stroke-opacity="1" stroke-miterlimit="10" d="M 514.210938 59.535156 C 497.675781 47.4375 479.109375 42.519531 459.378906 47.925781 "/>
<path fill-rule="nonzero" fill="rgb(98.431373%, 60.392157%, 60%)" fill-opacity="1" d="M 452.5 49.808594 L 458.765625 45.691406 L 459.988281 50.160156 L 452.5 49.808594 "/>
<path fill="none" stroke-width="1.5" stroke-linecap="butt" stroke-linejoin="miter" stroke="rgb(98.431373%, 60.392157%, 60%)" stroke-opacity="1" stroke-miterlimit="10" d="M 245.1875 508.925781 C 237.921875 532.34375 239.734375 555.140625 253.347656 575.507812 "/>
<path fill-rule="nonzero" fill="rgb(98.431373%, 60.392157%, 60%)" fill-opacity="1" d="M 257.308594 581.4375 L 251.421875 576.796875 L 255.273438 574.21875 L 257.308594 581.4375 "/>
<path fill="none" stroke-width="1.5" stroke-linecap="butt" stroke-linejoin="miter" stroke="rgb(98.431373%, 60.392157%, 60%)" stroke-opacity="1" stroke-miterlimit="10" d="M 248.175781 424.054688 C 234.558594 449.027344 231.574219 475.300781 242.242188 501.648438 "/>
<path fill-rule="nonzero" fill="rgb(98.431373%, 60.392157%, 60%)" fill-opacity="1" d="M 244.917969 508.257812 L 240.09375 502.515625 L 244.390625 500.777344 L 244.917969 508.257812 "/>
<path fill="none" stroke-width="1.5" stroke-linecap="butt" stroke-linejoin="miter" stroke="rgb(41.568627%, 23.921569%, 60.392157%)" stroke-opacity="1" stroke-miterlimit="10" d="M 685.316406 619.101562 C 666.8125 623.539062 652.097656 633.699219 644.132812 650.949219 "/>
<path fill-rule="nonzero" fill="rgb(41.568627%, 23.921569%, 60.392157%)" fill-opacity="1" d="M 641.144531 657.425781 L 642.03125 649.976562 L 646.238281 651.917969 L 641.144531 657.425781 "/>
<path fill="none" stroke-width="1.5" stroke-linecap="butt" stroke-linejoin="miter" stroke="rgb(98.431373%, 60.392157%, 60%)" stroke-opacity="1" stroke-miterlimit="10" d="M 270.511719 649.09375 C 266.035156 668.675781 268.792969 687.3125 281.328125 702.96875 "/>
<path fill-rule="nonzero" fill="rgb(98.431373%, 60.392157%, 60%)" fill-opacity="1" d="M 285.789062 708.539062 L 279.519531 704.417969 L 283.136719 701.519531 L 285.789062 708.539062 "/>
<path fill="none" stroke-width="1.5" stroke-linecap="butt" stroke-linejoin="miter" stroke="rgb(41.568627%, 23.921569%, 60.392157%)" stroke-opacity="1" stroke-miterlimit="10" d="M 527.027344 535.394531 C 555.800781 512.621094 572.296875 482.949219 573.25 446.28125 "/>
<path fill-rule="nonzero" fill="rgb(41.568627%, 23.921569%, 60.392157%)" fill-opacity="1" d="M 573.4375 439.152344 L 575.566406 446.34375 L 570.933594 446.222656 L 573.4375 439.152344 "/>
<path fill="none" stroke-width="1.5" stroke-linecap="butt" stroke-linejoin="miter" stroke="rgb(98.431373%, 60.392157%, 60%)" stroke-opacity="1" stroke-miterlimit="10" d="M 257.710938 582.035156 C 251.390625 603.488281 253.269531 624.316406 266.027344 642.652344 "/>
<path fill-rule="nonzero" fill="rgb(98.431373%, 60.392157%, 60%)" fill-opacity="1" d="M 270.101562 648.503906 L 264.125 643.972656 L 267.929688 641.328125 L 270.101562 648.503906 "/>
<path fill="none" stroke-width="1.5" stroke-linecap="butt" stroke-linejoin="miter" stroke="rgb(98.431373%, 60.392157%, 60%)" stroke-opacity="1" stroke-miterlimit="10" d="M 451.804688 50 C 430.300781 46.988281 410.546875 51.738281 394.777344 66.625 "/>
<path fill-rule="nonzero" fill="rgb(98.431373%, 60.392157%, 60%)" fill-opacity="1" d="M 389.589844 71.519531 L 393.183594 64.9375 L 396.367188 68.308594 L 389.589844 71.519531 "/>
<path fill="none" stroke-width="1.5" stroke-linecap="butt" stroke-linejoin="miter" stroke="rgb(41.568627%, 23.921569%, 60.392157%)" stroke-opacity="1" stroke-miterlimit="10" d="M 573.457031 438.433594 C 592.648438 418.699219 602.300781 394.984375 599.179688 367.65625 "/>
<path fill-rule="nonzero" fill="rgb(41.568627%, 23.921569%, 60.392157%)" fill-opacity="1" d="M 598.371094 360.570312 L 601.480469 367.394531 L 596.878906 367.917969 L 598.371094 360.570312 "/>
<path fill="none" stroke-width="1.5" stroke-linecap="butt" stroke-linejoin="miter" stroke="rgb(41.568627%, 23.921569%, 60.392157%)" stroke-opacity="1" stroke-miterlimit="10" d="M 598.289062 359.855469 C 610.742188 337.890625 613.894531 314.566406 604.699219 291.074219 "/>
<path fill-rule="nonzero" fill="rgb(41.568627%, 23.921569%, 60.392157%)" fill-opacity="1" d="M 602.101562 284.429688 L 606.859375 290.226562 L 602.542969 291.917969 L 602.101562 284.429688 "/>
<path fill="none" stroke-width="1.5" stroke-linecap="butt" stroke-linejoin="miter" stroke="rgb(98.431373%, 60.392157%, 60%)" stroke-opacity="1" stroke-miterlimit="10" d="M 297.789062 228.667969 C 276.167969 253.171875 266.28125 281.808594 271.355469 314.074219 "/>
<path fill-rule="nonzero" fill="rgb(98.431373%, 60.392157%, 60%)" fill-opacity="1" d="M 272.464844 321.121094 L 269.066406 314.433594 L 273.644531 313.714844 L 272.464844 321.121094 "/>
<path fill="none" stroke-width="1.5" stroke-linecap="butt" stroke-linejoin="miter" stroke="rgb(41.568627%, 23.921569%, 60.392157%)" stroke-opacity="1" stroke-miterlimit="10" d="M 469.691406 736.570312 C 473.921875 717.167969 471.019531 698.761719 458.460938 683.414062 "/>
<path fill-rule="nonzero" fill="rgb(41.568627%, 23.921569%, 60.392157%)" fill-opacity="1" d="M 453.945312 677.894531 L 460.253906 681.949219 L 456.667969 684.882812 L 453.945312 677.894531 "/>
<path fill="none" stroke-width="1.5" stroke-linecap="butt" stroke-linejoin="miter" stroke="rgb(41.568627%, 23.921569%, 60.392157%)" stroke-opacity="1" stroke-miterlimit="10" d="M 601.839844 283.761719 C 609.410156 263.320312 609.011719 242.914062 597.78125 224.265625 "/>
<path fill-rule="nonzero" fill="rgb(41.568627%, 23.921569%, 60.392157%)" fill-opacity="1" d="M 594.101562 218.152344 L 599.765625 223.070312 L 595.796875 225.460938 L 594.101562 218.152344 "/>
<path fill="none" stroke-width="1.5" stroke-linecap="butt" stroke-linejoin="miter" stroke="rgb(30.196078%, 68.627451%, 29.019608%)" stroke-opacity="1" stroke-miterlimit="10" d="M 680.707031 157.070312 C 680.671875 172.046875 685.566406 185.402344 697.429688 194.472656 "/>
<path fill-rule="nonzero" fill="rgb(30.196078%, 68.627451%, 29.019608%)" fill-opacity="1" d="M 703.097656 198.800781 L 696.023438 196.3125 L 698.839844 192.628906 L 703.097656 198.800781 "/>
<path fill="none" stroke-width="1.5" stroke-linecap="butt" stroke-linejoin="miter" stroke="rgb(30.196078%, 68.627451%, 29.019608%)" stroke-opacity="1" stroke-miterlimit="10" d="M 748.921875 452.757812 C 740.902344 465.28125 737.898438 479.070312 742.976562 493.007812 "/>
<path fill-rule="nonzero" fill="rgb(30.196078%, 68.627451%, 29.019608%)" fill-opacity="1" d="M 745.417969 499.710938 L 740.800781 493.800781 L 745.152344 492.214844 L 745.417969 499.710938 "/>
<path fill="none" stroke-width="1.5" stroke-linecap="butt" stroke-linejoin="miter" stroke="rgb(30.196078%, 68.627451%, 29.019608%)" stroke-opacity="1" stroke-miterlimit="10" d="M 748.921875 452.757812 C 758.742188 434.625 761.128906 415.441406 753.070312 396.488281 "/>
<path fill-rule="nonzero" fill="rgb(30.196078%, 68.627451%, 29.019608%)" fill-opacity="1" d="M 750.28125 389.925781 L 755.203125 395.582031 L 750.9375 397.398438 L 750.28125 389.925781 "/>
<path fill="none" stroke-width="1.5" stroke-linecap="butt" stroke-linejoin="miter" stroke="rgb(30.196078%, 68.627451%, 29.019608%)" stroke-opacity="1" stroke-miterlimit="10" d="M 745.664062 500.382812 C 753.636719 488.203125 756.75 474.71875 751.875 461.046875 "/>
<path fill-rule="nonzero" fill="rgb(30.196078%, 68.627451%, 29.019608%)" fill-opacity="1" d="M 749.480469 454.328125 L 754.058594 460.269531 L 749.695312 461.828125 L 749.480469 454.328125 "/>
<path fill="none" stroke-width="1.5" stroke-linecap="butt" stroke-linejoin="miter" stroke="rgb(30.196078%, 68.627451%, 29.019608%)" stroke-opacity="1" stroke-miterlimit="10" d="M 729.910156 261.769531 C 732.035156 240.605469 726.664062 221.40625 711.449219 206.582031 "/>
<path fill-rule="nonzero" fill="rgb(30.196078%, 68.627451%, 29.019608%)" fill-opacity="1" d="M 706.339844 201.605469 L 713.066406 204.921875 L 709.832031 208.242188 L 706.339844 201.605469 "/>
<path fill="none" stroke-width="1.5" stroke-linecap="butt" stroke-linejoin="miter" stroke="rgb(30.196078%, 68.627451%, 29.019608%)" stroke-opacity="1" stroke-miterlimit="10" d="M 704.800781 200.105469 C 704.613281 184.65625 699.328125 171.007812 686.992188 161.773438 "/>
<path fill-rule="nonzero" fill="rgb(30.196078%, 68.627451%, 29.019608%)" fill-opacity="1" d="M 681.28125 157.5 L 688.378906 159.917969 L 685.601562 163.628906 L 681.28125 157.5 "/>
<path fill="none" stroke-width="1.5" stroke-linecap="butt" stroke-linejoin="miter" stroke="rgb(30.196078%, 68.627451%, 29.019608%)" stroke-opacity="1" stroke-miterlimit="10" d="M 744.65625 325.441406 C 749.929688 304.804688 747.457031 285.015625 734.640625 268.035156 "/>
<path fill-rule="nonzero" fill="rgb(30.196078%, 68.627451%, 29.019608%)" fill-opacity="1" d="M 730.34375 262.34375 L 736.492188 266.640625 L 732.792969 269.433594 L 730.34375 262.34375 "/>
<path fill="none" stroke-width="1.5" stroke-linecap="butt" stroke-linejoin="miter" stroke="rgb(30.196078%, 68.627451%, 29.019608%)" stroke-opacity="1" stroke-miterlimit="10" d="M 750 389.265625 C 758.019531 370.050781 758.453125 350.546875 748.4375 332.324219 "/>
<path fill-rule="nonzero" fill="rgb(30.196078%, 68.627451%, 29.019608%)" fill-opacity="1" d="M 745.003906 326.070312 L 750.46875 331.207031 L 746.40625 333.441406 L 745.003906 326.070312 "/>
<path fill="none" stroke-width="1.5" stroke-linecap="butt" stroke-linejoin="miter" stroke="rgb(41.568627%, 23.921569%, 60.392157%)" stroke-opacity="1" stroke-miterlimit="10" d="M 533.367188 731.585938 C 514.253906 723.484375 494.8125 722.941406 476.589844 732.828125 "/>
<path fill-rule="nonzero" fill="rgb(41.568627%, 23.921569%, 60.392157%)" fill-opacity="1" d="M 470.320312 736.226562 L 475.488281 730.789062 L 477.695312 734.863281 L 470.320312 736.226562 "/>
<path fill="none" stroke-width="1.5" stroke-linecap="butt" stroke-linejoin="miter" stroke="rgb(41.568627%, 23.921569%, 60.392157%)" stroke-opacity="1" stroke-miterlimit="10" d="M 590.128906 698.085938 C 568.660156 699.289062 550.371094 707.691406 537.917969 725.191406 "/>
<path fill-rule="nonzero" fill="rgb(41.568627%, 23.921569%, 60.392157%)" fill-opacity="1" d="M 533.78125 731 L 536.03125 723.847656 L 539.804688 726.535156 L 533.78125 731 "/>
<path fill="none" stroke-width="1.5" stroke-linecap="butt" stroke-linejoin="miter" stroke="rgb(41.568627%, 23.921569%, 60.392157%)" stroke-opacity="1" stroke-miterlimit="10" d="M 453.488281 677.339844 C 469.648438 658.710938 477.195312 636.980469 472.886719 612.726562 "/>
<path fill-rule="nonzero" fill="rgb(41.568627%, 23.921569%, 60.392157%)" fill-opacity="1" d="M 471.640625 605.703125 L 475.171875 612.320312 L 470.605469 613.132812 L 471.640625 605.703125 "/>
<path fill="none" stroke-width="1.5" stroke-linecap="butt" stroke-linejoin="miter" stroke="rgb(41.568627%, 23.921569%, 60.392157%)" stroke-opacity="1" stroke-miterlimit="10" d="M 471.433594 604.527344 C 498.527344 592.050781 517.445312 571.816406 525.027344 542.984375 "/>
<path fill-rule="nonzero" fill="rgb(41.568627%, 23.921569%, 60.392157%)" fill-opacity="1" d="M 526.84375 536.085938 L 527.269531 543.574219 L 522.785156 542.398438 L 526.84375 536.085938 "/>
<path fill="none" stroke-width="1.5" stroke-linecap="butt" stroke-linejoin="miter" stroke="rgb(41.568627%, 23.921569%, 60.392157%)" stroke-opacity="1" stroke-miterlimit="10" d="M 471.433594 604.527344 C 456.4375 597.355469 440.800781 596.03125 425.976562 603.46875 "/>
<path fill-rule="nonzero" fill="rgb(41.568627%, 23.921569%, 60.392157%)" fill-opacity="1" d="M 419.601562 606.667969 L 424.9375 601.398438 L 427.019531 605.539062 L 419.601562 606.667969 "/>
<path fill="none" stroke-width="1.5" stroke-linecap="butt" stroke-linejoin="miter" stroke="rgb(41.568627%, 23.921569%, 60.392157%)" stroke-opacity="1" stroke-miterlimit="10" d="M 418.960938 606.992188 C 433.777344 614.160156 449.273438 615.558594 463.976562 608.238281 "/>
<path fill-rule="nonzero" fill="rgb(41.568627%, 23.921569%, 60.392157%)" fill-opacity="1" d="M 470.363281 605.058594 L 465.007812 610.3125 L 462.945312 606.164062 L 470.363281 605.058594 "/>
<path fill="none" stroke-width="1.5" stroke-linecap="butt" stroke-linejoin="miter" stroke="rgb(98.431373%, 60.392157%, 60%)" stroke-opacity="1" stroke-miterlimit="10" d="M 568.375 78.75 C 555.902344 65.191406 540.371094 57.496094 522.039062 58.925781 "/>
<path fill-rule="nonzero" fill="rgb(98.431373%, 60.392157%, 60%)" fill-opacity="1" d="M 514.925781 59.476562 L 521.859375 56.613281 L 522.21875 61.234375 L 514.925781 59.476562 "/>
<path fill="none" stroke-width="1.5" stroke-linecap="butt" stroke-linejoin="miter" stroke="rgb(98.431373%, 60.392157%, 60%)" stroke-opacity="1" stroke-miterlimit="10" d="M 389.066406 72.015625 C 365.085938 82.480469 348.015625 99.867188 340.996094 125.046875 "/>
<path fill-rule="nonzero" fill="rgb(98.431373%, 60.392157%, 60%)" fill-opacity="1" d="M 339.078125 131.917969 L 338.761719 124.425781 L 343.226562 125.671875 L 339.078125 131.917969 "/>
<path fill="none" stroke-width="1.5" stroke-linecap="butt" stroke-linejoin="miter" stroke="rgb(98.431373%, 60.392157%, 60%)" stroke-opacity="1" stroke-miterlimit="10" d="M 286.238281 709.097656 C 290.648438 726.078125 300.234375 739.570312 316.308594 746.511719 "/>
<path fill-rule="nonzero" fill="rgb(98.431373%, 60.392157%, 60%)" fill-opacity="1" d="M 322.855469 749.335938 L 315.390625 748.636719 L 317.226562 744.382812 L 322.855469 749.335938 "/>
<path fill="none" stroke-width="1.5" stroke-linecap="butt" stroke-linejoin="miter" stroke="rgb(12.156863%, 47.058824%, 70.588235%)" stroke-opacity="1" stroke-miterlimit="10" d="M 468.300781 237.519531 C 459.417969 218.488281 445.164062 204.929688 424.773438 200.015625 "/>
<path fill-rule="nonzero" fill="rgb(12.156863%, 47.058824%, 70.588235%)" fill-opacity="1" d="M 417.839844 198.34375 L 425.316406 197.761719 L 424.230469 202.269531 L 417.839844 198.34375 "/>
<path fill="none" stroke-width="1.5" stroke-linecap="butt" stroke-linejoin="miter" stroke="rgb(12.156863%, 47.058824%, 70.588235%)" stroke-opacity="1" stroke-miterlimit="10" d="M 417.140625 198.175781 C 394.953125 185.851562 371.480469 182.894531 347.945312 192.339844 "/>
<path fill-rule="nonzero" fill="rgb(12.156863%, 47.058824%, 70.588235%)" fill-opacity="1" d="M 341.328125 194.996094 L 347.082031 190.1875 L 348.808594 194.492188 L 341.328125 194.996094 "/>
<path fill="none" stroke-width="1.5" stroke-linecap="butt" stroke-linejoin="miter" stroke="rgb(12.156863%, 47.058824%, 70.588235%)" stroke-opacity="1" stroke-miterlimit="10" d="M 148.179688 137.394531 C 168.414062 129.679688 183.394531 116.023438 190.003906 95.425781 "/>
<path fill-rule="nonzero" fill="rgb(12.156863%, 47.058824%, 70.588235%)" fill-opacity="1" d="M 192.183594 88.632812 L 192.210938 96.132812 L 187.796875 94.714844 L 192.183594 88.632812 "/>
<path fill="none" stroke-width="1.5" stroke-linecap="butt" stroke-linejoin="miter" stroke="rgb(12.156863%, 47.058824%, 70.588235%)" stroke-opacity="1" stroke-miterlimit="10" d="M 192.402344 87.949219 C 212.519531 86.058594 229.472656 77.566406 240.46875 60.652344 "/>
<path fill-rule="nonzero" fill="rgb(12.156863%, 47.058824%, 70.588235%)" fill-opacity="1" d="M 244.359375 54.671875 L 242.414062 61.914062 L 238.527344 59.386719 L 244.359375 54.671875 "/>
<path fill="none" stroke-width="1.5" stroke-linecap="butt" stroke-linejoin="miter" stroke="rgb(12.156863%, 47.058824%, 70.588235%)" stroke-opacity="1" stroke-miterlimit="10" d="M 176.464844 188.226562 C 176.046875 169.554688 169.363281 153.3125 154.457031 142.113281 "/>
<path fill-rule="nonzero" fill="rgb(12.156863%, 47.058824%, 70.588235%)" fill-opacity="1" d="M 148.753906 137.828125 L 155.847656 140.261719 L 153.0625 143.964844 L 148.753906 137.828125 "/>
<path fill="none" stroke-width="1.5" stroke-linecap="butt" stroke-linejoin="miter" stroke="rgb(12.156863%, 47.058824%, 70.588235%)" stroke-opacity="1" stroke-miterlimit="10" d="M 250.003906 185.449219 C 227.941406 175.246094 205.296875 174.039062 183.507812 184.761719 "/>
<path fill-rule="nonzero" fill="rgb(12.156863%, 47.058824%, 70.588235%)" fill-opacity="1" d="M 177.109375 187.910156 L 182.484375 182.683594 L 184.53125 186.839844 L 177.109375 187.910156 "/>
<path fill="none" stroke-width="1.5" stroke-linecap="butt" stroke-linejoin="miter" stroke="rgb(12.156863%, 47.058824%, 70.588235%)" stroke-opacity="1" stroke-miterlimit="10" d="M 340.660156 195.261719 C 314.765625 178.710938 286.703125 173.597656 257.476562 183.035156 "/>
<path fill-rule="nonzero" fill="rgb(12.156863%, 47.058824%, 70.588235%)" fill-opacity="1" d="M 250.6875 185.226562 L 256.765625 180.828125 L 258.1875 185.242188 L 250.6875 185.226562 "/>
<path fill="none" stroke-width="1.5" stroke-linecap="butt" stroke-linejoin="miter" stroke="rgb(12.156863%, 47.058824%, 70.588235%)" stroke-opacity="1" stroke-miterlimit="10" d="M 467.320312 302.449219 C 477.332031 283.824219 479.691406 264.160156 471.386719 244.738281 "/>
<path fill-rule="nonzero" fill="rgb(12.156863%, 47.058824%, 70.588235%)" fill-opacity="1" d="M 468.585938 238.179688 L 473.519531 243.828125 L 469.257812 245.652344 L 468.585938 238.179688 "/>
<path fill-rule="nonzero" fill="rgb(99.215686%, 74.901961%, 43.529412%)" fill-opacity="1" stroke-width="1" stroke-linecap="butt" stroke-linejoin="miter" stroke="rgb(99.215686%, 74.901961%, 43.529412%)" stroke-opacity="1" stroke-miterlimit="10" d="M 128.839844 610.367188 C 128.839844 611.367188 127.339844 611.367188 127.339844 610.367188 C 127.339844 609.367188 128.839844 609.367188 128.839844 610.367188 "/>
<path fill-rule="nonzero" fill="rgb(99.215686%, 74.901961%, 43.529412%)" fill-opacity="1" stroke-width="1" stroke-linecap="butt" stroke-linejoin="miter" stroke="rgb(99.215686%, 74.901961%, 43.529412%)" stroke-opacity="1" stroke-miterlimit="10" d="M 101.238281 554.648438 C 101.238281 555.648438 99.738281 555.648438 99.738281 554.648438 C 99.738281 553.648438 101.238281 553.648438 101.238281 554.648438 "/>
<path fill-rule="nonzero" fill="rgb(99.215686%, 74.901961%, 43.529412%)" fill-opacity="1" stroke-width="1" stroke-linecap="butt" stroke-linejoin="miter" stroke="rgb(99.215686%, 74.901961%, 43.529412%)" stroke-opacity="1" stroke-miterlimit="10" d="M 57.191406 435.535156 C 57.191406 436.535156 55.691406 436.535156 55.691406 435.535156 C 55.691406 434.535156 57.191406 434.535156 57.191406 435.535156 "/>
<path fill-rule="nonzero" fill="rgb(99.215686%, 74.901961%, 43.529412%)" fill-opacity="1" stroke-width="1" stroke-linecap="butt" stroke-linejoin="miter" stroke="rgb(99.215686%, 74.901961%, 43.529412%)" stroke-opacity="1" stroke-miterlimit="10" d="M 306.640625 406.296875 C 306.640625 407.296875 305.140625 407.296875 305.140625 406.296875 C 305.140625 405.296875 306.640625 405.296875 306.640625 406.296875 "/>
<path fill-rule="nonzero" fill="rgb(99.215686%, 74.901961%, 43.529412%)" fill-opacity="1" stroke-width="1" stroke-linecap="butt" stroke-linejoin="miter" stroke="rgb(99.215686%, 74.901961%, 43.529412%)" stroke-opacity="1" stroke-miterlimit="10" d="M 144.613281 337.542969 C 144.613281 338.542969 143.113281 338.542969 143.113281 337.542969 C 143.113281 336.542969 144.613281 336.542969 144.613281 337.542969 "/>
<path fill-rule="nonzero" fill="rgb(99.215686%, 74.901961%, 43.529412%)" fill-opacity="1" stroke-width="1" stroke-linecap="butt" stroke-linejoin="miter" stroke="rgb(99.215686%, 74.901961%, 43.529412%)" stroke-opacity="1" stroke-miterlimit="10" d="M 82.25 317.441406 C 82.25 318.441406 80.75 318.441406 80.75 317.441406 C 80.75 316.441406 82.25 316.441406 82.25 317.441406 "/>
<path fill-rule="nonzero" fill="rgb(99.215686%, 74.901961%, 43.529412%)" fill-opacity="1" stroke-width="1" stroke-linecap="butt" stroke-linejoin="miter" stroke="rgb(99.215686%, 74.901961%, 43.529412%)" stroke-opacity="1" stroke-miterlimit="10" d="M 76.703125 496.585938 C 76.703125 497.585938 75.203125 497.585938 75.203125 496.585938 C 75.203125 495.585938 76.703125 495.585938 76.703125 496.585938 "/>
<path fill-rule="nonzero" fill="rgb(99.215686%, 74.901961%, 43.529412%)" fill-opacity="1" stroke-width="1" stroke-linecap="butt" stroke-linejoin="miter" stroke="rgb(99.215686%, 74.901961%, 43.529412%)" stroke-opacity="1" stroke-miterlimit="10" d="M 50.75 370.542969 C 50.75 371.542969 49.25 371.542969 49.25 370.542969 C 49.25 369.542969 50.75 369.542969 50.75 370.542969 "/>
<path fill-rule="nonzero" fill="rgb(99.215686%, 74.901961%, 43.529412%)" fill-opacity="1" stroke-width="1" stroke-linecap="butt" stroke-linejoin="miter" stroke="rgb(99.215686%, 74.901961%, 43.529412%)" stroke-opacity="1" stroke-miterlimit="10" d="M 383.507812 437.738281 C 383.507812 438.738281 382.007812 438.738281 382.007812 437.738281 C 382.007812 436.738281 383.507812 436.738281 383.507812 437.738281 "/>
<path fill-rule="nonzero" fill="rgb(99.215686%, 74.901961%, 43.529412%)" fill-opacity="1" stroke-width="1" stroke-linecap="butt" stroke-linejoin="miter" stroke="rgb(99.215686%, 74.901961%, 43.529412%)" stroke-opacity="1" stroke-miterlimit="10" d="M 544.558594 483.417969 C 544.558594 484.417969 543.058594 484.417969 543.058594 483.417969 C 543.058594 482.417969 544.558594 482.417969 544.558594 483.417969 "/>
<path fill-rule="nonzero" fill="rgb(14.901961%, 14.901961%, 14.901961%)" fill-opacity="1" stroke-width="1" stroke-linecap="butt" stroke-linejoin="miter" stroke="rgb(14.901961%, 14.901961%, 14.901961%)" stroke-opacity="1" stroke-miterlimit="10" d="M 612.171875 514.558594 L 613.921875 511.058594 L 615.671875 514.558594 Z M 612.171875 514.558594 "/>
<path fill-rule="nonzero" fill="rgb(99.215686%, 74.901961%, 43.529412%)" fill-opacity="1" stroke-width="1" stroke-linecap="butt" stroke-linejoin="miter" stroke="rgb(99.215686%, 74.901961%, 43.529412%)" stroke-opacity="1" stroke-miterlimit="10" d="M 460.691406 458.414062 C 460.691406 459.414062 459.191406 459.414062 459.191406 458.414062 C 459.191406 457.414062 460.691406 457.414062 460.691406 458.414062 "/>
<path fill-rule="nonzero" fill="rgb(99.215686%, 74.901961%, 43.529412%)" fill-opacity="1" stroke-width="1" stroke-linecap="butt" stroke-linejoin="miter" stroke="rgb(99.215686%, 74.901961%, 43.529412%)" stroke-opacity="1" stroke-miterlimit="10" d="M 213.726562 373.191406 C 213.726562 374.191406 212.226562 374.191406 212.226562 373.191406 C 212.226562 372.191406 213.726562 372.191406 213.726562 373.191406 "/>
<path fill-rule="nonzero" fill="rgb(100%, 84.313725%, 0%)" fill-opacity="1" stroke-width="1" stroke-linecap="butt" stroke-linejoin="miter" stroke="rgb(100%, 84.313725%, 0%)" stroke-opacity="1" stroke-miterlimit="10" d="M 155.542969 660.25 L 158.042969 660.25 L 158.042969 662.75 L 155.542969 662.75 Z M 155.542969 660.25 "/>
<path fill-rule="nonzero" fill="rgb(98.431373%, 60.392157%, 60%)" fill-opacity="1" stroke-width="1" stroke-linecap="butt" stroke-linejoin="miter" stroke="rgb(98.431373%, 60.392157%, 60%)" stroke-opacity="1" stroke-miterlimit="10" d="M 339.636719 132.609375 C 339.636719 133.609375 338.136719 133.609375 338.136719 132.609375 C 338.136719 131.609375 339.636719 131.609375 339.636719 132.609375 "/>
<path fill-rule="nonzero" fill="rgb(98.431373%, 60.392157%, 60%)" fill-opacity="1" stroke-width="1" stroke-linecap="butt" stroke-linejoin="miter" stroke="rgb(98.431373%, 60.392157%, 60%)" stroke-opacity="1" stroke-miterlimit="10" d="M 273.328125 321.832031 C 273.328125 322.832031 271.828125 322.832031 271.828125 321.832031 C 271.828125 320.832031 273.328125 320.832031 273.328125 321.832031 "/>
<path fill-rule="nonzero" fill="rgb(41.568627%, 23.921569%, 60.392157%)" fill-opacity="1" stroke-width="1" stroke-linecap="butt" stroke-linejoin="miter" stroke="rgb(41.568627%, 23.921569%, 60.392157%)" stroke-opacity="1" stroke-miterlimit="10" d="M 641.59375 658.078125 C 641.59375 659.078125 640.09375 659.078125 640.09375 658.078125 C 640.09375 657.078125 641.59375 657.078125 641.59375 658.078125 "/>
<path fill-rule="nonzero" fill="rgb(98.431373%, 60.392157%, 60%)" fill-opacity="1" stroke-width="1" stroke-linecap="butt" stroke-linejoin="miter" stroke="rgb(98.431373%, 60.392157%, 60%)" stroke-opacity="1" stroke-miterlimit="10" d="M 514.960938 59.535156 C 514.960938 60.535156 513.460938 60.535156 513.460938 59.535156 C 513.460938 58.535156 514.960938 58.535156 514.960938 59.535156 "/>
<path fill-rule="nonzero" fill="rgb(98.431373%, 60.392157%, 60%)" fill-opacity="1" stroke-width="1" stroke-linecap="butt" stroke-linejoin="miter" stroke="rgb(98.431373%, 60.392157%, 60%)" stroke-opacity="1" stroke-miterlimit="10" d="M 245.9375 508.925781 C 245.9375 509.925781 244.4375 509.925781 244.4375 508.925781 C 244.4375 507.925781 245.9375 507.925781 245.9375 508.925781 "/>
<path fill-rule="nonzero" fill="rgb(98.431373%, 60.392157%, 60%)" fill-opacity="1" stroke-width="1" stroke-linecap="butt" stroke-linejoin="miter" stroke="rgb(98.431373%, 60.392157%, 60%)" stroke-opacity="1" stroke-miterlimit="10" d="M 248.925781 424.054688 C 248.925781 425.054688 247.425781 425.054688 247.425781 424.054688 C 247.425781 423.054688 248.925781 423.054688 248.925781 424.054688 "/>
<path fill-rule="nonzero" fill="rgb(100%, 84.313725%, 0%)" fill-opacity="1" stroke-width="1" stroke-linecap="butt" stroke-linejoin="miter" stroke="rgb(100%, 84.313725%, 0%)" stroke-opacity="1" stroke-miterlimit="10" d="M 684.066406 617.851562 L 686.566406 617.851562 L 686.566406 620.351562 L 684.066406 620.351562 Z M 684.066406 617.851562 "/>
<path fill-rule="nonzero" fill="rgb(98.431373%, 60.392157%, 60%)" fill-opacity="1" stroke-width="1" stroke-linecap="butt" stroke-linejoin="miter" stroke="rgb(98.431373%, 60.392157%, 60%)" stroke-opacity="1" stroke-miterlimit="10" d="M 271.261719 649.09375 C 271.261719 650.09375 269.761719 650.09375 269.761719 649.09375 C 269.761719 648.09375 271.261719 648.09375 271.261719 649.09375 "/>
<path fill-rule="nonzero" fill="rgb(41.568627%, 23.921569%, 60.392157%)" fill-opacity="1" stroke-width="1" stroke-linecap="butt" stroke-linejoin="miter" stroke="rgb(41.568627%, 23.921569%, 60.392157%)" stroke-opacity="1" stroke-miterlimit="10" d="M 527.777344 535.394531 C 527.777344 536.394531 526.277344 536.394531 526.277344 535.394531 C 526.277344 534.394531 527.777344 534.394531 527.777344 535.394531 "/>
<path fill-rule="nonzero" fill="rgb(98.431373%, 60.392157%, 60%)" fill-opacity="1" stroke-width="1" stroke-linecap="butt" stroke-linejoin="miter" stroke="rgb(98.431373%, 60.392157%, 60%)" stroke-opacity="1" stroke-miterlimit="10" d="M 258.460938 582.035156 C 258.460938 583.035156 256.960938 583.035156 256.960938 582.035156 C 256.960938 581.035156 258.460938 581.035156 258.460938 582.035156 "/>
<path fill-rule="nonzero" fill="rgb(98.431373%, 60.392157%, 60%)" fill-opacity="1" stroke-width="1" stroke-linecap="butt" stroke-linejoin="miter" stroke="rgb(98.431373%, 60.392157%, 60%)" stroke-opacity="1" stroke-miterlimit="10" d="M 452.554688 50 C 452.554688 51 451.054688 51 451.054688 50 C 451.054688 49 452.554688 49 452.554688 50 "/>
<path fill-rule="nonzero" fill="rgb(41.568627%, 23.921569%, 60.392157%)" fill-opacity="1" stroke-width="1" stroke-linecap="butt" stroke-linejoin="miter" stroke="rgb(41.568627%, 23.921569%, 60.392157%)" stroke-opacity="1" stroke-miterlimit="10" d="M 574.207031 438.433594 C 574.207031 439.433594 572.707031 439.433594 572.707031 438.433594 C 572.707031 437.433594 574.207031 437.433594 574.207031 438.433594 "/>
<path fill-rule="nonzero" fill="rgb(41.568627%, 23.921569%, 60.392157%)" fill-opacity="1" stroke-width="1" stroke-linecap="butt" stroke-linejoin="miter" stroke="rgb(41.568627%, 23.921569%, 60.392157%)" stroke-opacity="1" stroke-miterlimit="10" d="M 599.039062 359.855469 C 599.039062 360.855469 597.539062 360.855469 597.539062 359.855469 C 597.539062 358.855469 599.039062 358.855469 599.039062 359.855469 "/>
<path fill-rule="nonzero" fill="rgb(98.431373%, 60.392157%, 60%)" fill-opacity="1" stroke-width="1" stroke-linecap="butt" stroke-linejoin="miter" stroke="rgb(98.431373%, 60.392157%, 60%)" stroke-opacity="1" stroke-miterlimit="10" d="M 298.539062 228.667969 C 298.539062 229.667969 297.039062 229.667969 297.039062 228.667969 C 297.039062 227.667969 298.539062 227.667969 298.539062 228.667969 "/>
<path fill-rule="nonzero" fill="rgb(41.568627%, 23.921569%, 60.392157%)" fill-opacity="1" stroke-width="1" stroke-linecap="butt" stroke-linejoin="miter" stroke="rgb(41.568627%, 23.921569%, 60.392157%)" stroke-opacity="1" stroke-miterlimit="10" d="M 470.441406 736.570312 C 470.441406 737.570312 468.941406 737.570312 468.941406 736.570312 C 468.941406 735.570312 470.441406 735.570312 470.441406 736.570312 "/>
<path fill-rule="nonzero" fill="rgb(41.568627%, 23.921569%, 60.392157%)" fill-opacity="1" stroke-width="1" stroke-linecap="butt" stroke-linejoin="miter" stroke="rgb(41.568627%, 23.921569%, 60.392157%)" stroke-opacity="1" stroke-miterlimit="10" d="M 602.589844 283.761719 C 602.589844 284.761719 601.089844 284.761719 601.089844 283.761719 C 601.089844 282.761719 602.589844 282.761719 602.589844 283.761719 "/>
<path fill-rule="nonzero" fill="rgb(14.901961%, 14.901961%, 14.901961%)" fill-opacity="1" stroke-width="1" stroke-linecap="butt" stroke-linejoin="miter" stroke="rgb(14.901961%, 14.901961%, 14.901961%)" stroke-opacity="1" stroke-miterlimit="10" d="M 322.640625 751.75 L 324.390625 748.25 L 326.140625 751.75 Z M 322.640625 751.75 "/>
<path fill-rule="nonzero" fill="rgb(30.196078%, 68.627451%, 29.019608%)" fill-opacity="1" stroke-width="1" stroke-linecap="butt" stroke-linejoin="miter" stroke="rgb(30.196078%, 68.627451%, 29.019608%)" stroke-opacity="1" stroke-miterlimit="10" d="M 681.457031 157.070312 C 681.457031 158.070312 679.957031 158.070312 679.957031 157.070312 C 679.957031 156.070312 681.457031 156.070312 681.457031 157.070312 "/>
<path fill-rule="nonzero" fill="rgb(14.901961%, 14.901961%, 14.901961%)" fill-opacity="1" stroke-width="1" stroke-linecap="butt" stroke-linejoin="miter" stroke="rgb(14.901961%, 14.901961%, 14.901961%)" stroke-opacity="1" stroke-miterlimit="10" d="M 591.488281 218.46875 L 593.238281 214.96875 L 594.988281 218.46875 Z M 591.488281 218.46875 "/>
<path fill-rule="nonzero" fill="rgb(100%, 84.313725%, 0%)" fill-opacity="1" stroke-width="1" stroke-linecap="butt" stroke-linejoin="miter" stroke="rgb(100%, 84.313725%, 0%)" stroke-opacity="1" stroke-miterlimit="10" d="M 747.171875 451.007812 L 750.671875 451.007812 L 750.671875 454.507812 L 747.171875 454.507812 Z M 747.171875 451.007812 "/>
<path fill-rule="nonzero" fill="rgb(30.196078%, 68.627451%, 29.019608%)" fill-opacity="1" stroke-width="1" stroke-linecap="butt" stroke-linejoin="miter" stroke="rgb(30.196078%, 68.627451%, 29.019608%)" stroke-opacity="1" stroke-miterlimit="10" d="M 746.414062 500.382812 C 746.414062 501.382812 744.914062 501.382812 744.914062 500.382812 C 744.914062 499.382812 746.414062 499.382812 746.414062 500.382812 "/>
<path fill-rule="nonzero" fill="rgb(30.196078%, 68.627451%, 29.019608%)" fill-opacity="1" stroke-width="1" stroke-linecap="butt" stroke-linejoin="miter" stroke="rgb(30.196078%, 68.627451%, 29.019608%)" stroke-opacity="1" stroke-miterlimit="10" d="M 730.660156 261.769531 C 730.660156 262.769531 729.160156 262.769531 729.160156 261.769531 C 729.160156 260.769531 730.660156 260.769531 730.660156 261.769531 "/>
<path fill-rule="nonzero" fill="rgb(14.901961%, 14.901961%, 14.901961%)" fill-opacity="1" stroke-width="1" stroke-linecap="butt" stroke-linejoin="miter" stroke="rgb(14.901961%, 14.901961%, 14.901961%)" stroke-opacity="1" stroke-miterlimit="10" d="M 702.550781 202.355469 L 704.800781 197.855469 L 707.050781 202.355469 Z M 702.550781 202.355469 "/>
<path fill-rule="nonzero" fill="rgb(30.196078%, 68.627451%, 29.019608%)" fill-opacity="1" stroke-width="1" stroke-linecap="butt" stroke-linejoin="miter" stroke="rgb(30.196078%, 68.627451%, 29.019608%)" stroke-opacity="1" stroke-miterlimit="10" d="M 745.40625 325.441406 C 745.40625 326.441406 743.90625 326.441406 743.90625 325.441406 C 743.90625 324.441406 745.40625 324.441406 745.40625 325.441406 "/>
<path fill-rule="nonzero" fill="rgb(30.196078%, 68.627451%, 29.019608%)" fill-opacity="1" stroke-width="1" stroke-linecap="butt" stroke-linejoin="miter" stroke="rgb(30.196078%, 68.627451%, 29.019608%)" stroke-opacity="1" stroke-miterlimit="10" d="M 750.75 389.265625 C 750.75 390.265625 749.25 390.265625 749.25 389.265625 C 749.25 388.265625 750.75 388.265625 750.75 389.265625 "/>
<path fill-rule="nonzero" fill="rgb(41.568627%, 23.921569%, 60.392157%)" fill-opacity="1" stroke-width="1" stroke-linecap="butt" stroke-linejoin="miter" stroke="rgb(41.568627%, 23.921569%, 60.392157%)" stroke-opacity="1" stroke-miterlimit="10" d="M 534.117188 731.585938 C 534.117188 732.585938 532.617188 732.585938 532.617188 731.585938 C 532.617188 730.585938 534.117188 730.585938 534.117188 731.585938 "/>
<path fill-rule="nonzero" fill="rgb(41.568627%, 23.921569%, 60.392157%)" fill-opacity="1" stroke-width="1" stroke-linecap="butt" stroke-linejoin="miter" stroke="rgb(41.568627%, 23.921569%, 60.392157%)" stroke-opacity="1" stroke-miterlimit="10" d="M 590.878906 698.085938 C 590.878906 699.085938 589.378906 699.085938 589.378906 698.085938 C 589.378906 697.085938 590.878906 697.085938 590.878906 698.085938 "/>
<path fill-rule="nonzero" fill="rgb(41.568627%, 23.921569%, 60.392157%)" fill-opacity="1" stroke-width="1" stroke-linecap="butt" stroke-linejoin="miter" stroke="rgb(41.568627%, 23.921569%, 60.392157%)" stroke-opacity="1" stroke-miterlimit="10" d="M 454.238281 677.339844 C 454.238281 678.339844 452.738281 678.339844 452.738281 677.339844 C 452.738281 676.339844 454.238281 676.339844 454.238281 677.339844 "/>
<path fill-rule="nonzero" fill="rgb(41.568627%, 23.921569%, 60.392157%)" fill-opacity="1" stroke-width="1" stroke-linecap="butt" stroke-linejoin="miter" stroke="rgb(41.568627%, 23.921569%, 60.392157%)" stroke-opacity="1" stroke-miterlimit="10" d="M 472.683594 604.527344 C 472.683594 606.191406 470.183594 606.191406 470.183594 604.527344 C 470.183594 602.859375 472.683594 602.859375 472.683594 604.527344 "/>
<path fill-rule="nonzero" fill="rgb(41.568627%, 23.921569%, 60.392157%)" fill-opacity="1" stroke-width="1" stroke-linecap="butt" stroke-linejoin="miter" stroke="rgb(41.568627%, 23.921569%, 60.392157%)" stroke-opacity="1" stroke-miterlimit="10" d="M 419.710938 606.992188 C 419.710938 607.992188 418.210938 607.992188 418.210938 606.992188 C 418.210938 605.992188 419.710938 605.992188 419.710938 606.992188 "/>
<path fill-rule="nonzero" fill="rgb(100%, 84.313725%, 0%)" fill-opacity="1" stroke-width="1" stroke-linecap="butt" stroke-linejoin="miter" stroke="rgb(100%, 84.313725%, 0%)" stroke-opacity="1" stroke-miterlimit="10" d="M 567.125 77.5 L 569.625 77.5 L 569.625 80 L 567.125 80 Z M 567.125 77.5 "/>
<path fill-rule="nonzero" fill="rgb(98.431373%, 60.392157%, 60%)" fill-opacity="1" stroke-width="1" stroke-linecap="butt" stroke-linejoin="miter" stroke="rgb(98.431373%, 60.392157%, 60%)" stroke-opacity="1" stroke-miterlimit="10" d="M 389.816406 72.015625 C 389.816406 73.015625 388.316406 73.015625 388.316406 72.015625 C 388.316406 71.015625 389.816406 71.015625 389.816406 72.015625 "/>
<path fill-rule="nonzero" fill="rgb(98.431373%, 60.392157%, 60%)" fill-opacity="1" stroke-width="1" stroke-linecap="butt" stroke-linejoin="miter" stroke="rgb(98.431373%, 60.392157%, 60%)" stroke-opacity="1" stroke-miterlimit="10" d="M 286.988281 709.097656 C 286.988281 710.097656 285.488281 710.097656 285.488281 709.097656 C 285.488281 708.097656 286.988281 708.097656 286.988281 709.097656 "/>
<path fill-rule="nonzero" fill="rgb(12.156863%, 47.058824%, 70.588235%)" fill-opacity="1" stroke-width="1" stroke-linecap="butt" stroke-linejoin="miter" stroke="rgb(12.156863%, 47.058824%, 70.588235%)" stroke-opacity="1" stroke-miterlimit="10" d="M 469.050781 237.519531 C 469.050781 238.519531 467.550781 238.519531 467.550781 237.519531 C 467.550781 236.519531 469.050781 236.519531 469.050781 237.519531 "/>
<path fill-rule="nonzero" fill="rgb(12.156863%, 47.058824%, 70.588235%)" fill-opacity="1" stroke-width="1" stroke-linecap="butt" stroke-linejoin="miter" stroke="rgb(12.156863%, 47.058824%, 70.588235%)" stroke-opacity="1" stroke-miterlimit="10" d="M 417.890625 198.175781 C 417.890625 199.175781 416.390625 199.175781 416.390625 198.175781 C 416.390625 197.175781 417.890625 197.175781 417.890625 198.175781 "/>
<path fill-rule="nonzero" fill="rgb(12.156863%, 47.058824%, 70.588235%)" fill-opacity="1" stroke-width="1" stroke-linecap="butt" stroke-linejoin="miter" stroke="rgb(12.156863%, 47.058824%, 70.588235%)" stroke-opacity="1" stroke-miterlimit="10" d="M 148.929688 137.394531 C 148.929688 138.394531 147.429688 138.394531 147.429688 137.394531 C 147.429688 136.394531 148.929688 136.394531 148.929688 137.394531 "/>
<path fill-rule="nonzero" fill="rgb(14.901961%, 14.901961%, 14.901961%)" fill-opacity="1" stroke-width="1" stroke-linecap="butt" stroke-linejoin="miter" stroke="rgb(14.901961%, 14.901961%, 14.901961%)" stroke-opacity="1" stroke-miterlimit="10" d="M 243.519531 55.019531 L 245.269531 51.519531 L 247.019531 55.019531 Z M 243.519531 55.019531 "/>
<path fill-rule="nonzero" fill="rgb(12.156863%, 47.058824%, 70.588235%)" fill-opacity="1" stroke-width="1" stroke-linecap="butt" stroke-linejoin="miter" stroke="rgb(12.156863%, 47.058824%, 70.588235%)" stroke-opacity="1" stroke-miterlimit="10" d="M 193.152344 87.949219 C 193.152344 88.949219 191.652344 88.949219 191.652344 87.949219 C 191.652344 86.949219 193.152344 86.949219 193.152344 87.949219 "/>
<path fill-rule="nonzero" fill="rgb(12.156863%, 47.058824%, 70.588235%)" fill-opacity="1" stroke-width="1" stroke-linecap="butt" stroke-linejoin="miter" stroke="rgb(12.156863%, 47.058824%, 70.588235%)" stroke-opacity="1" stroke-miterlimit="10" d="M 177.214844 188.226562 C 177.214844 189.226562 175.714844 189.226562 175.714844 188.226562 C 175.714844 187.226562 177.214844 187.226562 177.214844 188.226562 "/>
<path fill-rule="nonzero" fill="rgb(12.156863%, 47.058824%, 70.588235%)" fill-opacity="1" stroke-width="1" stroke-linecap="butt" stroke-linejoin="miter" stroke="rgb(12.156863%, 47.058824%, 70.588235%)" stroke-opacity="1" stroke-miterlimit="10" d="M 250.753906 185.449219 C 250.753906 186.449219 249.253906 186.449219 249.253906 185.449219 C 249.253906 184.449219 250.753906 184.449219 250.753906 185.449219 "/>
<path fill-rule="nonzero" fill="rgb(12.156863%, 47.058824%, 70.588235%)" fill-opacity="1" stroke-width="1" stroke-linecap="butt" stroke-linejoin="miter" stroke="rgb(12.156863%, 47.058824%, 70.588235%)" stroke-opacity="1" stroke-miterlimit="10" d="M 341.410156 195.261719 C 341.410156 196.261719 339.910156 196.261719 339.910156 195.261719 C 339.910156 194.261719 341.410156 194.261719 341.410156 195.261719 "/>
<path fill-rule="nonzero" fill="rgb(100%, 84.313725%, 0%)" fill-opacity="1" stroke-width="1" stroke-linecap="butt" stroke-linejoin="miter" stroke="rgb(100%, 84.313725%, 0%)" stroke-opacity="1" stroke-miterlimit="10" d="M 466.070312 301.199219 L 468.570312 301.199219 L 468.570312 303.699219 L 466.070312 303.699219 Z M 466.070312 301.199219 "/>
</svg>
