<?xml version="1.0" encoding="UTF-8"?>
<svg xmlns="http://www.w3.org/2000/svg" xmlns:xlink="http://www.w3.org/1999/xlink" width="800" height="800" viewBox="0 0 800 800">
<rect x="-80" y="-80" width="960" height="960" fill="rgb(100%, 100%, 100%)" fill-opacity="1"/>
<path fill="none" stroke-width="3.5" stroke-linecap="butt" stroke-linejoin="miter" stroke="rgb(70.196078%, 70.196078%, 70.196078%)" stroke-opacity="1" stroke-miterlimit="10" d="M 728.242188 724.96875 C 724.234375 727.332031 720.632812 730.867188 720.894531 735.367188 "/>
<path fill-rule="nonzero" fill="rgb(70.196078%, 70.196078%, 70.196078%)" fill-opacity="1" d="M 721.3125 742.488281 L 718.582031 735.503906 L 723.207031 735.234375 L 721.3125 742.488281 "/>
<path fill="none" stroke-width="2.5" stroke-linecap="butt" stroke-linejoin="miter" stroke="rgb(70.196078%, 70.196078%, 70.196078%)" stroke-opacity="1" stroke-miterlimit="10" d="M 728.242188 724.96875 C 732.730469 726.5625 737.847656 727.054688 741.234375 723.90625 "/>
<path fill-rule="nonzero" fill="rgb(70.196078%, 70.196078%, 70.196078%)" fill-opacity="1" d="M 746.457031 719.050781 L 742.8125 725.605469 L 739.65625 722.210938 L 746.457031 719.050781 "/>
<path fill="none" stroke-width="1.5" stroke-linecap="butt" stroke-linejoin="miter" stroke="rgb(12.156863%, 47.058824%, 70.588235%)" stroke-opacity="1" stroke-miterlimit="10" d="M 728.242188 724.96875 C 730.171875 720.378906 730.9375 715.140625 727.90625 711.359375 "/>
<path fill-rule="nonzero" fill="rgb(12.156863%, 47.058824%, 70.588235%)" fill-opacity="1" d="M 723.441406 705.792969 L 729.710938 709.910156 L 726.097656 712.808594 L 723.441406 705.792969 "/>
<path fill="none" stroke-width="2.5" stroke-linecap="butt" stroke-linejoin="miter" stroke="rgb(70.196078%, 70.196078%, 70.196078%)" stroke-opacity="1" stroke-miterlimit="10" d="M 728.242188 724.96875 C 733.496094 722.476562 738.089844 718.53125 738.554688 712.851562 "/>
<path fill-rule="nonzero" fill="rgb(70.196078%, 70.196078%, 70.196078%)" fill-opacity="1" d="M 739.140625 705.742188 L 740.867188 713.042969 L 736.246094 712.664062 L 739.140625 705.742188 "/>
<path fill="none" stroke-width="2.5" stroke-linecap="butt" stroke-linejoin="miter" stroke="rgb(70.196078%, 70.196078%, 70.196078%)" stroke-opacity="1" stroke-miterlimit="10" d="M 728.242188 724.96875 C 726.636719 730.828125 726.664062 737.113281 730.820312 741.394531 "/>
<path fill-rule="nonzero" fill="rgb(70.196078%, 70.196078%, 70.196078%)" fill-opacity="1" d="M 735.785156 746.515625 L 729.15625 743.011719 L 732.480469 739.78125 L 735.785156 746.515625 "/>
<path fill="none" stroke-width="1.5" stroke-linecap="butt" stroke-linejoin="miter" stroke="rgb(12.156863%, 47.058824%, 70.588235%)" stroke-opacity="1" stroke-miterlimit="10" d="M 728.242188 724.96875 C 730.671875 729.945312 734.484375 734.300781 739.894531 734.65625 "/>
<path fill-rule="nonzero" fill="rgb(12.156863%, 47.058824%, 70.588235%)" fill-opacity="1" d="M 747.015625 735.125 L 739.742188 736.96875 L 740.046875 732.34375 L 747.015625 735.125 "/>
<path fill="none" stroke-width="3.5" stroke-linecap="butt" stroke-linejoin="miter" stroke="rgb(70.196078%, 70.196078%, 70.196078%)" stroke-opacity="1" stroke-miterlimit="10" d="M 721.59375 747.316406 C 724.621094 746.261719 727.917969 744.273438 727.96875 741.285156 "/>
<path fill-rule="nonzero" fill="rgb(70.196078%, 70.196078%, 70.196078%)" fill-opacity="1" d="M 728.085938 734.152344 L 730.285156 741.324219 L 725.648438 741.246094 L 728.085938 734.152344 "/>
<path fill="none" stroke-width="5.5" stroke-linecap="butt" stroke-linejoin="miter" stroke="rgb(70.196078%, 70.196078%, 70.196078%)" stroke-opacity="1" stroke-miterlimit="10" d="M 679.941406 726.042969 C 690.363281 732.671875 701.96875 735.429688 713.390625 730.882812 "/>
<path fill-rule="nonzero" fill="rgb(70.196078%, 70.196078%, 70.196078%)" fill-opacity="1" d="M 720.015625 728.242188 L 714.246094 733.035156 L 712.53125 728.730469 L 720.015625 728.242188 "/>
<path fill="none" stroke-width="5.5" stroke-linecap="butt" stroke-linejoin="miter" stroke="rgb(70.196078%, 70.196078%, 70.196078%)" stroke-opacity="1" stroke-miterlimit="10" d="M 633.664062 727.339844 C 644.882812 733.804688 657.105469 736.0625 668.914062 730.878906 "/>
<path fill-rule="nonzero" fill="rgb(70.196078%, 70.196078%, 70.196078%)" fill-opacity="1" d="M 675.445312 728.011719 L 669.84375 733.003906 L 667.984375 728.757812 L 675.445312 728.011719 "/>
<path fill="none" stroke-width="2.5" stroke-linecap="butt" stroke-linejoin="miter" stroke="rgb(70.196078%, 70.196078%, 70.196078%)" stroke-opacity="1" stroke-miterlimit="10" d="M 750 715.757812 C 747.144531 714.074219 743.410156 712.832031 740.992188 714.765625 "/>
<path fill-rule="nonzero" fill="rgb(70.196078%, 70.196078%, 70.196078%)" fill-opacity="1" d="M 735.421875 719.222656 L 739.542969 712.957031 L 742.4375 716.578125 L 735.421875 719.222656 "/>
<path fill="none" stroke-width="5.5" stroke-linecap="butt" stroke-linejoin="miter" stroke="rgb(70.196078%, 70.196078%, 70.196078%)" stroke-opacity="1" stroke-miterlimit="10" d="M 587.925781 728.148438 C 598.894531 734.648438 610.90625 737.035156 622.589844 732.058594 "/>
<path fill-rule="nonzero" fill="rgb(70.196078%, 70.196078%, 70.196078%)" fill-opacity="1" d="M 629.152344 729.261719 L 623.496094 734.1875 L 621.679688 729.925781 L 629.152344 729.261719 "/>
<path fill="none" stroke-width="5.5" stroke-linecap="butt" stroke-linejoin="miter" stroke="rgb(70.196078%, 70.196078%, 70.196078%)" stroke-opacity="1" stroke-miterlimit="10" d="M 542.277344 727.917969 C 553.0625 734.652344 564.988281 737.308594 576.746094 732.613281 "/>
<path fill-rule="nonzero" fill="rgb(70.196078%, 70.196078%, 70.196078%)" fill-opacity="1" d="M 583.367188 729.964844 L 577.605469 734.765625 L 575.882812 730.460938 L 583.367188 729.964844 "/>
<path fill="none" stroke-width="1.5" stroke-linecap="butt" stroke-linejoin="miter" stroke="rgb(12.156863%, 47.058824%, 70.588235%)" stroke-opacity="1" stroke-miterlimit="10" d="M 721.707031 703.628906 C 719.855469 705.820312 718.152344 708.957031 719.546875 711.175781 "/>
<path fill-rule="nonzero" fill="rgb(12.156863%, 47.058824%, 70.588235%)" fill-opacity="1" d="M 723.351562 717.210938 L 717.589844 712.410156 L 721.507812 709.9375 L 723.351562 717.210938 "/>
<path fill="none" stroke-width="5.5" stroke-linecap="butt" stroke-linejoin="miter" stroke="rgb(70.196078%, 70.196078%, 70.196078%)" stroke-opacity="1" stroke-miterlimit="10" d="M 496.621094 726.21875 C 507.195312 733.304688 519.042969 736.339844 530.960938 732.019531 "/>
<path fill-rule="nonzero" fill="rgb(70.196078%, 70.196078%, 70.196078%)" fill-opacity="1" d="M 537.664062 729.589844 L 531.75 734.199219 L 530.171875 729.84375 L 537.664062 729.589844 "/>
<path fill="none" stroke-width="5.5" stroke-linecap="butt" stroke-linejoin="miter" stroke="rgb(70.196078%, 70.196078%, 70.196078%)" stroke-opacity="1" stroke-miterlimit="10" d="M 450.992188 722.710938 C 461.304688 730.21875 473.042969 733.726562 485.148438 729.871094 "/>
<path fill-rule="nonzero" fill="rgb(70.196078%, 70.196078%, 70.196078%)" fill-opacity="1" d="M 491.945312 727.707031 L 485.851562 732.082031 L 484.445312 727.664062 L 491.945312 727.707031 "/>
<path fill="none" stroke-width="2.5" stroke-linecap="butt" stroke-linejoin="miter" stroke="rgb(70.196078%, 70.196078%, 70.196078%)" stroke-opacity="1" stroke-miterlimit="10" d="M 739.535156 700.90625 C 735.390625 702.195312 731.257812 704.640625 730.644531 708.769531 "/>
<path fill-rule="nonzero" fill="rgb(70.196078%, 70.196078%, 70.196078%)" fill-opacity="1" d="M 729.597656 715.828125 L 728.351562 708.429688 L 732.9375 709.109375 L 729.597656 715.828125 "/>
<path fill="none" stroke-width="5.5" stroke-linecap="butt" stroke-linejoin="miter" stroke="rgb(70.196078%, 70.196078%, 70.196078%)" stroke-opacity="1" stroke-miterlimit="10" d="M 405.53125 717.125 C 415.503906 725.105469 427.085938 729.140625 439.367188 725.835938 "/>
<path fill-rule="nonzero" fill="rgb(70.196078%, 70.196078%, 70.196078%)" fill-opacity="1" d="M 446.253906 723.984375 L 439.96875 728.074219 L 438.765625 723.601562 L 446.253906 723.984375 "/>
<path fill="none" stroke-width="5.5" stroke-linecap="butt" stroke-linejoin="miter" stroke="rgb(70.196078%, 70.196078%, 70.196078%)" stroke-opacity="1" stroke-miterlimit="10" d="M 360.433594 709.273438 C 369.984375 717.734375 381.339844 722.347656 393.761719 719.667969 "/>
<path fill-rule="nonzero" fill="rgb(70.196078%, 70.196078%, 70.196078%)" fill-opacity="1" d="M 400.734375 718.160156 L 394.25 721.929688 L 393.273438 717.402344 L 400.734375 718.160156 "/>
<path fill="none" stroke-width="5.5" stroke-linecap="butt" stroke-linejoin="miter" stroke="rgb(70.196078%, 70.196078%, 70.196078%)" stroke-opacity="1" stroke-miterlimit="10" d="M 315.960938 699.007812 C 324.996094 707.949219 336.042969 713.160156 348.542969 711.167969 "/>
<path fill-rule="nonzero" fill="rgb(70.196078%, 70.196078%, 70.196078%)" fill-opacity="1" d="M 355.589844 710.042969 L 348.910156 713.457031 L 348.179688 708.878906 L 355.589844 710.042969 "/>
<path fill="none" stroke-width="5.5" stroke-linecap="butt" stroke-linejoin="miter" stroke="rgb(70.196078%, 70.196078%, 70.196078%)" stroke-opacity="1" stroke-miterlimit="10" d="M 272.4375 686.179688 C 280.851562 695.578125 291.480469 701.414062 303.980469 700.183594 "/>
<path fill-rule="nonzero" fill="rgb(70.196078%, 70.196078%, 70.196078%)" fill-opacity="1" d="M 311.078125 699.488281 L 304.207031 702.492188 L 303.753906 697.878906 L 311.078125 699.488281 "/>
<path fill="none" stroke-width="5.5" stroke-linecap="butt" stroke-linejoin="miter" stroke="rgb(70.196078%, 70.196078%, 70.196078%)" stroke-opacity="1" stroke-miterlimit="10" d="M 230.273438 670.503906 C 237.914062 680.363281 247.992188 686.875 260.402344 686.519531 "/>
<path fill-rule="nonzero" fill="rgb(70.196078%, 70.196078%, 70.196078%)" fill-opacity="1" d="M 267.535156 686.316406 L 260.46875 688.835938 L 260.335938 684.203125 L 267.535156 686.316406 "/>
<path fill="none" stroke-width="5.5" stroke-linecap="butt" stroke-linejoin="miter" stroke="rgb(70.196078%, 70.196078%, 70.196078%)" stroke-opacity="1" stroke-miterlimit="10" d="M 190.023438 651.386719 C 196.675781 661.757812 206.019531 669.0625 218.257812 669.789062 "/>
<path fill-rule="nonzero" fill="rgb(70.196078%, 70.196078%, 70.196078%)" fill-opacity="1" d="M 225.378906 670.214844 L 218.121094 672.105469 L 218.398438 667.476562 L 225.378906 670.214844 "/>
<path fill="none" stroke-width="2.5" stroke-linecap="butt" stroke-linejoin="miter" stroke="rgb(70.196078%, 70.196078%, 70.196078%)" stroke-opacity="1" stroke-miterlimit="10" d="M 739.167969 750 C 740.960938 745.765625 741.765625 740.800781 738.882812 737.425781 "/>
<path fill-rule="nonzero" fill="rgb(70.196078%, 70.196078%, 70.196078%)" fill-opacity="1" d="M 734.25 732 L 740.644531 735.921875 L 737.121094 738.929688 L 734.25 732 "/>
<path fill="none" stroke-width="1.5" stroke-linecap="butt" stroke-linejoin="miter" stroke="rgb(12.156863%, 47.058824%, 70.588235%)" stroke-opacity="1" stroke-miterlimit="10" d="M 749.785156 735.308594 C 749.101562 731.972656 747.484375 728.296875 744.335938 727.753906 "/>
<path fill-rule="nonzero" fill="rgb(12.156863%, 47.058824%, 70.588235%)" fill-opacity="1" d="M 737.304688 726.535156 L 744.730469 725.46875 L 743.9375 730.035156 L 737.304688 726.535156 "/>
<path fill="none" stroke-width="5.5" stroke-linecap="butt" stroke-linejoin="miter" stroke="rgb(70.196078%, 70.196078%, 70.196078%)" stroke-opacity="1" stroke-miterlimit="10" d="M 152.449219 627.765625 C 157.800781 638.789062 166.167969 647.113281 178.175781 649.261719 "/>
<path fill-rule="nonzero" fill="rgb(70.196078%, 70.196078%, 70.196078%)" fill-opacity="1" d="M 185.199219 650.523438 L 177.769531 651.546875 L 178.585938 646.980469 L 185.199219 650.523438 "/>
<path fill="none" stroke-width="5.5" stroke-linecap="butt" stroke-linejoin="miter" stroke="rgb(70.196078%, 70.196078%, 70.196078%)" stroke-opacity="1" stroke-miterlimit="10" d="M 118.601562 598.523438 C 122.28125 610.34375 129.386719 619.90625 141.054688 623.882812 "/>
<path fill-rule="nonzero" fill="rgb(70.196078%, 70.196078%, 70.196078%)" fill-opacity="1" d="M 147.804688 626.183594 L 140.304688 626.078125 L 141.800781 621.6875 L 147.804688 626.183594 "/>
<path fill="none" stroke-width="5.5" stroke-linecap="butt" stroke-linejoin="miter" stroke="rgb(70.196078%, 70.196078%, 70.196078%)" stroke-opacity="1" stroke-miterlimit="10" d="M 67.503906 521.523438 C 66.761719 534.722656 70.335938 546.882812 80.472656 555.289062 "/>
<path fill-rule="nonzero" fill="rgb(70.196078%, 70.196078%, 70.196078%)" fill-opacity="1" d="M 85.964844 559.84375 L 78.992188 557.074219 L 81.953125 553.503906 L 85.964844 559.84375 "/>
<path fill="none" stroke-width="5.5" stroke-linecap="butt" stroke-linejoin="miter" stroke="rgb(70.196078%, 70.196078%, 70.196078%)" stroke-opacity="1" stroke-miterlimit="10" d="M 53.761719 475.410156 C 50.320312 488.582031 51.472656 501.558594 59.964844 512.132812 "/>
<path fill-rule="nonzero" fill="rgb(70.196078%, 70.196078%, 70.196078%)" fill-opacity="1" d="M 64.429688 517.695312 L 58.15625 513.582031 L 61.769531 510.679688 L 64.429688 517.695312 "/>
<path fill="none" stroke-width="5.5" stroke-linecap="butt" stroke-linejoin="miter" stroke="rgb(70.196078%, 70.196078%, 70.196078%)" stroke-opacity="1" stroke-miterlimit="10" d="M 89.742188 562.976562 C 91.386719 575.632812 96.925781 586.574219 108.054688 592.710938 "/>
<path fill-rule="nonzero" fill="rgb(70.196078%, 70.196078%, 70.196078%)" fill-opacity="1" d="M 114.304688 596.152344 L 106.9375 594.742188 L 109.175781 590.679688 L 114.304688 596.152344 "/>
<path fill="none" stroke-width="5.5" stroke-linecap="butt" stroke-linejoin="miter" stroke="rgb(70.196078%, 70.196078%, 70.196078%)" stroke-opacity="1" stroke-miterlimit="10" d="M 50 426.90625 C 43.792969 439.238281 42.199219 452.347656 48.363281 464.644531 "/>
<path fill-rule="nonzero" fill="rgb(70.196078%, 70.196078%, 70.196078%)" fill-opacity="1" d="M 51.5625 471.023438 L 46.292969 465.683594 L 50.4375 463.605469 L 51.5625 471.023438 "/>
<path fill="none" stroke-width="5.5" stroke-linecap="butt" stroke-linejoin="miter" stroke="rgb(70.196078%, 70.196078%, 70.196078%)" stroke-opacity="1" stroke-miterlimit="10" d="M 56.3125 378.984375 C 47.75 389.667969 43.492188 402.058594 46.949219 415.253906 "/>
<path fill-rule="nonzero" fill="rgb(70.196078%, 70.196078%, 70.196078%)" fill-opacity="1" d="M 48.757812 422.15625 L 44.707031 415.839844 L 49.191406 414.667969 L 48.757812 422.15625 "/>
<path fill="none" stroke-width="5.5" stroke-linecap="butt" stroke-linejoin="miter" stroke="rgb(70.196078%, 70.196078%, 70.196078%)" stroke-opacity="1" stroke-miterlimit="10" d="M 71.703125 334.535156 C 61.5 342.9375 54.984375 353.808594 55.675781 366.957031 "/>
<path fill-rule="nonzero" fill="rgb(70.196078%, 70.196078%, 70.196078%)" fill-opacity="1" d="M 56.050781 374.082031 L 53.363281 367.082031 L 57.992188 366.835938 L 56.050781 374.082031 "/>
<path fill="none" stroke-width="5.5" stroke-linecap="butt" stroke-linejoin="miter" stroke="rgb(70.196078%, 70.196078%, 70.196078%)" stroke-opacity="1" stroke-miterlimit="10" d="M 94.875 295.753906 C 83.734375 301.515625 75.464844 310.296875 73.550781 322.636719 "/>
<path fill-rule="nonzero" fill="rgb(70.196078%, 70.196078%, 70.196078%)" fill-opacity="1" d="M 72.457031 329.6875 L 71.261719 322.28125 L 75.839844 322.992188 L 72.457031 329.6875 "/>
<path fill="none" stroke-width="5.5" stroke-linecap="butt" stroke-linejoin="miter" stroke="rgb(70.196078%, 70.196078%, 70.196078%)" stroke-opacity="1" stroke-miterlimit="10" d="M 155.867188 235.820312 C 144.503906 237.5 134.636719 242.613281 129.398438 252.769531 "/>
<path fill-rule="nonzero" fill="rgb(70.196078%, 70.196078%, 70.196078%)" fill-opacity="1" d="M 126.128906 259.109375 L 127.339844 251.707031 L 131.460938 253.832031 L 126.128906 259.109375 "/>
<path fill="none" stroke-width="5.5" stroke-linecap="butt" stroke-linejoin="miter" stroke="rgb(70.196078%, 70.196078%, 70.196078%)" stroke-opacity="1" stroke-miterlimit="10" d="M 123.886719 263.464844 C 112.441406 266.722656 103.039062 273.316406 98.988281 284.445312 "/>
<path fill-rule="nonzero" fill="rgb(70.196078%, 70.196078%, 70.196078%)" fill-opacity="1" d="M 96.550781 291.148438 L 96.8125 283.652344 L 101.167969 285.234375 L 96.550781 291.148438 "/>
<path fill="none" stroke-width="5.5" stroke-linecap="butt" stroke-linejoin="miter" stroke="rgb(70.196078%, 70.196078%, 70.196078%)" stroke-opacity="1" stroke-miterlimit="10" d="M 239.433594 143.273438 C 229.074219 146.992188 220.726562 153.644531 217.765625 164.179688 "/>
<path fill-rule="nonzero" fill="rgb(70.196078%, 70.196078%, 70.196078%)" fill-opacity="1" d="M 215.839844 171.046875 L 215.535156 163.554688 L 220 164.808594 L 215.839844 171.046875 "/>
<path fill="none" stroke-width="5.5" stroke-linecap="butt" stroke-linejoin="miter" stroke="rgb(70.196078%, 70.196078%, 70.196078%)" stroke-opacity="1" stroke-miterlimit="10" d="M 260.570312 110.171875 C 251.085938 114.4375 243.644531 121.3125 241.699219 131.464844 "/>
<path fill-rule="nonzero" fill="rgb(70.196078%, 70.196078%, 70.196078%)" fill-opacity="1" d="M 240.355469 138.46875 L 239.421875 131.027344 L 243.976562 131.898438 L 240.355469 138.46875 "/>
<path fill="none" stroke-width="5.5" stroke-linecap="butt" stroke-linejoin="miter" stroke="rgb(70.196078%, 70.196078%, 70.196078%)" stroke-opacity="1" stroke-miterlimit="10" d="M 186.4375 206.746094 C 175.195312 208.957031 165.605469 214.511719 160.867188 224.878906 "/>
<path fill-rule="nonzero" fill="rgb(70.196078%, 70.196078%, 70.196078%)" fill-opacity="1" d="M 157.902344 231.367188 L 158.761719 223.914062 L 162.976562 225.839844 L 157.902344 231.367188 "/>
<path fill="none" stroke-width="5.5" stroke-linecap="butt" stroke-linejoin="miter" stroke="rgb(70.196078%, 70.196078%, 70.196078%)" stroke-opacity="1" stroke-miterlimit="10" d="M 214.515625 175.761719 C 203.59375 178.746094 194.527344 184.90625 190.617188 195.464844 "/>
<path fill-rule="nonzero" fill="rgb(70.196078%, 70.196078%, 70.196078%)" fill-opacity="1" d="M 188.136719 202.152344 L 188.441406 194.660156 L 192.789062 196.269531 L 188.136719 202.152344 "/>
<path fill="none" stroke-width="5.5" stroke-linecap="butt" stroke-linejoin="miter" stroke="rgb(70.196078%, 70.196078%, 70.196078%)" stroke-opacity="1" stroke-miterlimit="10" d="M 277.269531 78.027344 C 269.089844 82.441406 262.78125 89.046875 261.820312 98.214844 "/>
<path fill-rule="nonzero" fill="rgb(70.196078%, 70.196078%, 70.196078%)" fill-opacity="1" d="M 261.078125 105.3125 L 259.515625 97.976562 L 264.125 98.457031 L 261.078125 105.3125 "/>
<path fill="none" stroke-width="5.5" stroke-linecap="butt" stroke-linejoin="miter" stroke="rgb(70.196078%, 70.196078%, 70.196078%)" stroke-opacity="1" stroke-miterlimit="10" d="M 288.4375 50 C 282.367188 53.691406 277.535156 59.019531 277.4375 66.027344 "/>
<path fill-rule="nonzero" fill="rgb(70.196078%, 70.196078%, 70.196078%)" fill-opacity="1" d="M 277.335938 73.160156 L 275.121094 65.996094 L 279.753906 66.0625 L 277.335938 73.160156 "/>
<path fill-rule="nonzero" fill="rgb(14.901961%, 14.901961%, 14.901961%)" fill-opacity="1" stroke-width="1" stroke-linecap="butt" stroke-linejoin="miter" stroke="rgb(14.901961%, 14.901961%, 14.901961%)" stroke-opacity="1" stroke-miterlimit="10" d="M 719.390625 733.816406 L 728.242188 716.117188 L 737.09375 733.816406 Z M 719.390625 733.816406 "/>
<path fill-rule="nonzero" fill="rgb(70.196078%, 70.196078%, 70.196078%)" fill-opacity="1" stroke-width="1" stroke-linecap="butt" stroke-linejoin="miter" stroke="rgb(70.196078%, 70.196078%, 70.196078%)" stroke-opacity="1" stroke-miterlimit="10" d="M 726.441406 747.316406 C 726.441406 753.785156 716.742188 753.785156 716.742188 747.316406 C 716.742188 740.851562 726.441406 740.851562 726.441406 747.316406 "/>
<path fill-rule="nonzero" fill="rgb(70.196078%, 70.196078%, 70.196078%)" fill-opacity="1" stroke-width="1" stroke-linecap="butt" stroke-linejoin="miter" stroke="rgb(70.196078%, 70.196078%, 70.196078%)" stroke-opacity="1" stroke-miterlimit="10" d="M 684.789062 726.042969 C 684.789062 732.507812 675.089844 732.507812 675.089844 726.042969 C 675.089844 719.574219 684.789062 719.574219 684.789062 726.042969 "/>
<path fill-rule="nonzero" fill="rgb(70.196078%, 70.196078%, 70.196078%)" fill-opacity="1" stroke-width="1" stroke-linecap="butt" stroke-linejoin="miter" stroke="rgb(70.196078%, 70.196078%, 70.196078%)" stroke-opacity="1" stroke-miterlimit="10" d="M 638.515625 727.339844 C 638.515625 733.804688 628.8125 733.804688 628.8125 727.339844 C 628.8125 720.871094 638.515625 720.871094 638.515625 727.339844 "/>
<path fill-rule="nonzero" fill="rgb(70.196078%, 70.196078%, 70.196078%)" fill-opacity="1" stroke-width="1" stroke-linecap="butt" stroke-linejoin="miter" stroke="rgb(70.196078%, 70.196078%, 70.196078%)" stroke-opacity="1" stroke-miterlimit="10" d="M 754.851562 715.757812 C 754.851562 722.222656 745.148438 722.222656 745.148438 715.757812 C 745.148438 709.289062 754.851562 709.289062 754.851562 715.757812 "/>
<path fill-rule="nonzero" fill="rgb(70.196078%, 70.196078%, 70.196078%)" fill-opacity="1" stroke-width="1" stroke-linecap="butt" stroke-linejoin="miter" stroke="rgb(70.196078%, 70.196078%, 70.196078%)" stroke-opacity="1" stroke-miterlimit="10" d="M 592.773438 728.148438 C 592.773438 734.613281 583.074219 734.613281 583.074219 728.148438 C 583.074219 721.679688 592.773438 721.679688 592.773438 728.148438 "/>
<path fill-rule="nonzero" fill="rgb(70.196078%, 70.196078%, 70.196078%)" fill-opacity="1" stroke-width="1" stroke-linecap="butt" stroke-linejoin="miter" stroke="rgb(70.196078%, 70.196078%, 70.196078%)" stroke-opacity="1" stroke-miterlimit="10" d="M 547.128906 727.917969 C 547.128906 734.382812 537.429688 734.382812 537.429688 727.917969 C 537.429688 721.449219 547.128906 721.449219 547.128906 727.917969 "/>
<path fill-rule="nonzero" fill="rgb(12.156863%, 47.058824%, 70.588235%)" fill-opacity="1" stroke-width="1" stroke-linecap="butt" stroke-linejoin="miter" stroke="rgb(12.156863%, 47.058824%, 70.588235%)" stroke-opacity="1" stroke-miterlimit="10" d="M 724.457031 703.628906 C 724.457031 707.296875 718.957031 707.296875 718.957031 703.628906 C 718.957031 699.964844 724.457031 699.964844 724.457031 703.628906 "/>
<path fill-rule="nonzero" fill="rgb(70.196078%, 70.196078%, 70.196078%)" fill-opacity="1" stroke-width="1" stroke-linecap="butt" stroke-linejoin="miter" stroke="rgb(70.196078%, 70.196078%, 70.196078%)" stroke-opacity="1" stroke-miterlimit="10" d="M 501.46875 726.21875 C 501.46875 732.6875 491.769531 732.6875 491.769531 726.21875 C 491.769531 719.753906 501.46875 719.753906 501.46875 726.21875 "/>
<path fill-rule="nonzero" fill="rgb(70.196078%, 70.196078%, 70.196078%)" fill-opacity="1" stroke-width="1" stroke-linecap="butt" stroke-linejoin="miter" stroke="rgb(70.196078%, 70.196078%, 70.196078%)" stroke-opacity="1" stroke-miterlimit="10" d="M 455.84375 722.710938 C 455.84375 729.175781 446.140625 729.175781 446.140625 722.710938 C 446.140625 716.242188 455.84375 716.242188 455.84375 722.710938 "/>
<path fill-rule="nonzero" fill="rgb(70.196078%, 70.196078%, 70.196078%)" fill-opacity="1" stroke-width="1" stroke-linecap="butt" stroke-linejoin="miter" stroke="rgb(70.196078%, 70.196078%, 70.196078%)" stroke-opacity="1" stroke-miterlimit="10" d="M 744.386719 700.90625 C 744.386719 707.375 734.6875 707.375 734.6875 700.90625 C 734.6875 694.441406 744.386719 694.441406 744.386719 700.90625 "/>
<path fill-rule="nonzero" fill="rgb(70.196078%, 70.196078%, 70.196078%)" fill-opacity="1" stroke-width="1" stroke-linecap="butt" stroke-linejoin="miter" stroke="rgb(70.196078%, 70.196078%, 70.196078%)" stroke-opacity="1" stroke-miterlimit="10" d="M 410.378906 717.125 C 410.378906 723.59375 400.679688 723.59375 400.679688 717.125 C 400.679688 710.660156 410.378906 710.660156 410.378906 717.125 "/>
<path fill-rule="nonzero" fill="rgb(70.196078%, 70.196078%, 70.196078%)" fill-opacity="1" stroke-width="1" stroke-linecap="butt" stroke-linejoin="miter" stroke="rgb(70.196078%, 70.196078%, 70.196078%)" stroke-opacity="1" stroke-miterlimit="10" d="M 365.285156 709.273438 C 365.285156 715.738281 355.582031 715.738281 355.582031 709.273438 C 355.582031 702.804688 365.285156 702.804688 365.285156 709.273438 "/>
<path fill-rule="nonzero" fill="rgb(70.196078%, 70.196078%, 70.196078%)" fill-opacity="1" stroke-width="1" stroke-linecap="butt" stroke-linejoin="miter" stroke="rgb(70.196078%, 70.196078%, 70.196078%)" stroke-opacity="1" stroke-miterlimit="10" d="M 320.808594 699.007812 C 320.808594 705.472656 311.109375 705.472656 311.109375 699.007812 C 311.109375 692.539062 320.808594 692.539062 320.808594 699.007812 "/>
<path fill-rule="nonzero" fill="rgb(70.196078%, 70.196078%, 70.196078%)" fill-opacity="1" stroke-width="1" stroke-linecap="butt" stroke-linejoin="miter" stroke="rgb(70.196078%, 70.196078%, 70.196078%)" stroke-opacity="1" stroke-miterlimit="10" d="M 277.285156 686.179688 C 277.285156 692.644531 267.585938 692.644531 267.585938 686.179688 C 267.585938 679.710938 277.285156 679.710938 277.285156 686.179688 "/>
<path fill-rule="nonzero" fill="rgb(70.196078%, 70.196078%, 70.196078%)" fill-opacity="1" stroke-width="1" stroke-linecap="butt" stroke-linejoin="miter" stroke="rgb(70.196078%, 70.196078%, 70.196078%)" stroke-opacity="1" stroke-miterlimit="10" d="M 235.125 670.503906 C 235.125 676.972656 225.425781 676.972656 225.425781 670.503906 C 225.425781 664.039062 235.125 664.039062 235.125 670.503906 "/>
<path fill-rule="nonzero" fill="rgb(70.196078%, 70.196078%, 70.196078%)" fill-opacity="1" stroke-width="1" stroke-linecap="butt" stroke-linejoin="miter" stroke="rgb(70.196078%, 70.196078%, 70.196078%)" stroke-opacity="1" stroke-miterlimit="10" d="M 194.875 651.386719 C 194.875 657.855469 185.175781 657.855469 185.175781 651.386719 C 185.175781 644.921875 194.875 644.921875 194.875 651.386719 "/>
<path fill-rule="nonzero" fill="rgb(70.196078%, 70.196078%, 70.196078%)" fill-opacity="1" stroke-width="1" stroke-linecap="butt" stroke-linejoin="miter" stroke="rgb(70.196078%, 70.196078%, 70.196078%)" stroke-opacity="1" stroke-miterlimit="10" d="M 744.019531 750 C 744.019531 756.464844 734.320312 756.464844 734.320312 750 C 734.320312 743.535156 744.019531 743.535156 744.019531 750 "/>
<path fill-rule="nonzero" fill="rgb(12.156863%, 47.058824%, 70.588235%)" fill-opacity="1" stroke-width="1" stroke-linecap="butt" stroke-linejoin="miter" stroke="rgb(12.156863%, 47.058824%, 70.588235%)" stroke-opacity="1" stroke-miterlimit="10" d="M 752.535156 735.308594 C 752.535156 738.976562 747.035156 738.976562 747.035156 735.308594 C 747.035156 731.640625 752.535156 731.640625 752.535156 735.308594 "/>
<path fill-rule="nonzero" fill="rgb(70.196078%, 70.196078%, 70.196078%)" fill-opacity="1" stroke-width="1" stroke-linecap="butt" stroke-linejoin="miter" stroke="rgb(70.196078%, 70.196078%, 70.196078%)" stroke-opacity="1" stroke-miterlimit="10" d="M 157.296875 627.765625 C 157.296875 634.230469 147.597656 634.230469 147.597656 627.765625 C 147.597656 621.296875 157.296875 621.296875 157.296875 627.765625 "/>
<path fill-rule="nonzero" fill="rgb(70.196078%, 70.196078%, 70.196078%)" fill-opacity="1" stroke-width="1" stroke-linecap="butt" stroke-linejoin="miter" stroke="rgb(70.196078%, 70.196078%, 70.196078%)" stroke-opacity="1" stroke-miterlimit="10" d="M 123.449219 598.523438 C 123.449219 604.988281 113.75 604.988281 113.75 598.523438 C 113.75 592.054688 123.449219 592.054688 123.449219 598.523438 "/>
<path fill-rule="nonzero" fill="rgb(70.196078%, 70.196078%, 70.196078%)" fill-opacity="1" stroke-width="1" stroke-linecap="butt" stroke-linejoin="miter" stroke="rgb(70.196078%, 70.196078%, 70.196078%)" stroke-opacity="1" stroke-miterlimit="10" d="M 72.355469 521.523438 C 72.355469 527.988281 62.652344 527.988281 62.652344 521.523438 C 62.652344 515.054688 72.355469 515.054688 72.355469 521.523438 "/>
<path fill-rule="nonzero" fill="rgb(70.196078%, 70.196078%, 70.196078%)" fill-opacity="1" stroke-width="1" stroke-linecap="butt" stroke-linejoin="miter" stroke="rgb(70.196078%, 70.196078%, 70.196078%)" stroke-opacity="1" stroke-miterlimit="10" d="M 58.613281 475.410156 C 58.613281 481.878906 48.914062 481.878906 48.914062 475.410156 C 48.914062 468.945312 58.613281 468.945312 58.613281 475.410156 "/>
<path fill-rule="nonzero" fill="rgb(70.196078%, 70.196078%, 70.196078%)" fill-opacity="1" stroke-width="1" stroke-linecap="butt" stroke-linejoin="miter" stroke="rgb(70.196078%, 70.196078%, 70.196078%)" stroke-opacity="1" stroke-miterlimit="10" d="M 94.589844 562.976562 C 94.589844 569.441406 84.890625 569.441406 84.890625 562.976562 C 84.890625 556.507812 94.589844 556.507812 94.589844 562.976562 "/>
<path fill-rule="nonzero" fill="rgb(70.196078%, 70.196078%, 70.196078%)" fill-opacity="1" stroke-width="1" stroke-linecap="butt" stroke-linejoin="miter" stroke="rgb(70.196078%, 70.196078%, 70.196078%)" stroke-opacity="1" stroke-miterlimit="10" d="M 54.851562 426.90625 C 54.851562 433.371094 45.148438 433.371094 45.148438 426.90625 C 45.148438 420.4375 54.851562 420.4375 54.851562 426.90625 "/>
<path fill-rule="nonzero" fill="rgb(70.196078%, 70.196078%, 70.196078%)" fill-opacity="1" stroke-width="1" stroke-linecap="butt" stroke-linejoin="miter" stroke="rgb(70.196078%, 70.196078%, 70.196078%)" stroke-opacity="1" stroke-miterlimit="10" d="M 61.160156 378.984375 C 61.160156 385.449219 51.460938 385.449219 51.460938 378.984375 C 51.460938 372.515625 61.160156 372.515625 61.160156 378.984375 "/>
<path fill-rule="nonzero" fill="rgb(70.196078%, 70.196078%, 70.196078%)" fill-opacity="1" stroke-width="1" stroke-linecap="butt" stroke-linejoin="miter" stroke="rgb(70.196078%, 70.196078%, 70.196078%)" stroke-opacity="1" stroke-miterlimit="10" d="M 76.554688 334.535156 C 76.554688 341 66.855469 341 66.855469 334.535156 C 66.855469 328.066406 76.554688 328.066406 76.554688 334.535156 "/>
<path fill-rule="nonzero" fill="rgb(70.196078%, 70.196078%, 70.196078%)" fill-opacity="1" stroke-width="1" stroke-linecap="butt" stroke-linejoin="miter" stroke="rgb(70.196078%, 70.196078%, 70.196078%)" stroke-opacity="1" stroke-miterlimit="10" d="M 99.722656 295.753906 C 99.722656 302.21875 90.023438 302.21875 90.023438 295.753906 C 90.023438 289.285156 99.722656 289.285156 99.722656 295.753906 "/>
<path fill-rule="nonzero" fill="rgb(70.196078%, 70.196078%, 70.196078%)" fill-opacity="1" stroke-width="1" stroke-linecap="butt" stroke-linejoin="miter" stroke="rgb(70.196078%, 70.196078%, 70.196078%)" stroke-opacity="1" stroke-miterlimit="10" d="M 160.714844 235.820312 C 160.714844 242.289062 151.015625 242.289062 151.015625 235.820312 C 151.015625 229.355469 160.714844 229.355469 160.714844 235.820312 "/>
<path fill-rule="nonzero" fill="rgb(70.196078%, 70.196078%, 70.196078%)" fill-opacity="1" stroke-width="1" stroke-linecap="butt" stroke-linejoin="miter" stroke="rgb(70.196078%, 70.196078%, 70.196078%)" stroke-opacity="1" stroke-miterlimit="10" d="M 128.734375 263.464844 C 128.734375 269.933594 119.035156 269.933594 119.035156 263.464844 C 119.035156 257 128.734375 257 128.734375 263.464844 "/>
<path fill-rule="nonzero" fill="rgb(70.196078%, 70.196078%, 70.196078%)" fill-opacity="1" stroke-width="1" stroke-linecap="butt" stroke-linejoin="miter" stroke="rgb(70.196078%, 70.196078%, 70.196078%)" stroke-opacity="1" stroke-miterlimit="10" d="M 244.28125 143.273438 C 244.28125 149.742188 234.582031 149.742188 234.582031 143.273438 C 234.582031 136.808594 244.28125 136.808594 244.28125 143.273438 "/>
<path fill-rule="nonzero" fill="rgb(70.196078%, 70.196078%, 70.196078%)" fill-opacity="1" stroke-width="1" stroke-linecap="butt" stroke-linejoin="miter" stroke="rgb(70.196078%, 70.196078%, 70.196078%)" stroke-opacity="1" stroke-miterlimit="10" d="M 265.421875 110.171875 C 265.421875 116.636719 255.722656 116.636719 255.722656 110.171875 C 255.722656 103.703125 265.421875 103.703125 265.421875 110.171875 "/>
<path fill-rule="nonzero" fill="rgb(70.196078%, 70.196078%, 70.196078%)" fill-opacity="1" stroke-width="1" stroke-linecap="butt" stroke-linejoin="miter" stroke="rgb(70.196078%, 70.196078%, 70.196078%)" stroke-opacity="1" stroke-miterlimit="10" d="M 191.285156 206.746094 C 191.285156 213.214844 181.585938 213.214844 181.585938 206.746094 C 181.585938 200.28125 191.285156 200.28125 191.285156 206.746094 "/>
<path fill-rule="nonzero" fill="rgb(70.196078%, 70.196078%, 70.196078%)" fill-opacity="1" stroke-width="1" stroke-linecap="butt" stroke-linejoin="miter" stroke="rgb(70.196078%, 70.196078%, 70.196078%)" stroke-opacity="1" stroke-miterlimit="10" d="M 219.367188 175.761719 C 219.367188 182.230469 209.664062 182.230469 209.664062 175.761719 C 209.664062 169.296875 219.367188 169.296875 219.367188 175.761719 "/>
<path fill-rule="nonzero" fill="rgb(70.196078%, 70.196078%, 70.196078%)" fill-opacity="1" stroke-width="1" stroke-linecap="butt" stroke-linejoin="miter" stroke="rgb(70.196078%, 70.196078%, 70.196078%)" stroke-opacity="1" stroke-miterlimit="10" d="M 282.117188 78.027344 C 282.117188 84.492188 272.417969 84.492188 272.417969 78.027344 C 272.417969 71.558594 282.117188 71.558594 282.117188 78.027344 "/>
<path fill-rule="nonzero" fill="rgb(100%, 84.313725%, 0%)" fill-opacity="1" stroke-width="1" stroke-linecap="butt" stroke-linejoin="miter" stroke="rgb(100%, 84.313725%, 0%)" stroke-opacity="1" stroke-miterlimit="10" d="M 283.085938 44.648438 L 293.785156 44.648438 L 293.785156 55.347656 L 283.085938 55.347656 Z M 283.085938 44.648438 "/>
</svg>
