<?xml version="1.0" encoding="UTF-8"?>
<svg xmlns="http://www.w3.org/2000/svg" xmlns:xlink="http://www.w3.org/1999/xlink" width="800" height="800" viewBox="0 0 800 800">
<rect x="-80" y="-80" width="960" height="960" fill="rgb(100%, 100%, 100%)" fill-opacity="1"/>
<path fill="none" stroke-width="4.5" stroke-linecap="butt" stroke-linejoin="miter" stroke="rgb(70.196078%, 70.196078%, 70.196078%)" stroke-opacity="1" stroke-miterlimit="10" d="M 682.699219 597.539062 C 690.867188 569.882812 688.292969 543.15625 672.027344 519.371094 "/>
<path fill-rule="nonzero" fill="rgb(70.196078%, 70.196078%, 70.196078%)" fill-opacity="1" d="M 668.003906 513.480469 L 673.941406 518.0625 L 670.117188 520.679688 L 668.003906 513.480469 "/>
<path fill="none" stroke-width="4.5" stroke-linecap="butt" stroke-linejoin="miter" stroke="rgb(70.196078%, 70.196078%, 70.196078%)" stroke-opacity="1" stroke-miterlimit="10" d="M 704.75 658.253906 C 707.902344 638.890625 704.144531 620.808594 690.871094 606.410156 "/>
<path fill-rule="nonzero" fill="rgb(70.196078%, 70.196078%, 70.196078%)" fill-opacity="1" d="M 686.039062 601.164062 L 692.578125 604.839844 L 689.167969 607.980469 L 686.039062 601.164062 "/>
<path fill="none" stroke-width="4.5" stroke-linecap="butt" stroke-linejoin="miter" stroke="rgb(70.196078%, 70.196078%, 70.196078%)" stroke-opacity="1" stroke-miterlimit="10" d="M 728.28125 674.179688 C 726.300781 668.015625 722.613281 662.503906 716.417969 661.03125 "/>
<path fill-rule="nonzero" fill="rgb(70.196078%, 70.196078%, 70.196078%)" fill-opacity="1" d="M 709.480469 659.378906 L 716.957031 658.773438 L 715.882812 663.285156 L 709.480469 659.378906 "/>
<path fill="none" stroke-width="1.5" stroke-linecap="butt" stroke-linejoin="miter" stroke="rgb(12.156863%, 47.058824%, 70.588235%)" stroke-opacity="1" stroke-miterlimit="10" d="M 728.28125 674.179688 C 736.65625 647.613281 734.628906 621.765625 719.351562 598.5 "/>
<path fill-rule="nonzero" fill="rgb(12.156863%, 47.058824%, 70.588235%)" fill-opacity="1" d="M 715.4375 592.539062 L 721.289062 597.230469 L 717.414062 599.773438 L 715.4375 592.539062 "/>
<path fill="none" stroke-width="4.5" stroke-linecap="butt" stroke-linejoin="miter" stroke="rgb(70.196078%, 70.196078%, 70.196078%)" stroke-opacity="1" stroke-miterlimit="10" d="M 740.84375 750 C 748.667969 727.394531 747.722656 705.03125 734.984375 684.816406 "/>
<path fill-rule="nonzero" fill="rgb(70.196078%, 70.196078%, 70.196078%)" fill-opacity="1" d="M 731.183594 678.78125 L 736.945312 683.582031 L 733.023438 686.050781 L 731.183594 678.78125 "/>
<path fill="none" stroke-width="1.5" stroke-linecap="butt" stroke-linejoin="miter" stroke="rgb(12.156863%, 47.058824%, 70.588235%)" stroke-opacity="1" stroke-miterlimit="10" d="M 750 678.972656 C 747.820312 675.480469 744.5625 672.246094 740.636719 672.710938 "/>
<path fill-rule="nonzero" fill="rgb(12.156863%, 47.058824%, 70.588235%)" fill-opacity="1" d="M 733.554688 673.550781 L 740.367188 670.410156 L 740.910156 675.011719 L 733.554688 673.550781 "/>
<path fill="none" stroke-width="5.5" stroke-linecap="butt" stroke-linejoin="miter" stroke="rgb(70.196078%, 70.196078%, 70.196078%)" stroke-opacity="1" stroke-miterlimit="10" d="M 665.132812 509.28125 C 667.929688 482.988281 661.25 459.246094 642.59375 440.546875 "/>
<path fill-rule="nonzero" fill="rgb(70.196078%, 70.196078%, 70.196078%)" fill-opacity="1" d="M 637.554688 435.496094 L 644.234375 438.910156 L 640.953125 442.183594 L 637.554688 435.496094 "/>
<path fill="none" stroke-width="1.5" stroke-linecap="butt" stroke-linejoin="miter" stroke="rgb(12.156863%, 47.058824%, 70.588235%)" stroke-opacity="1" stroke-miterlimit="10" d="M 77.316406 602.933594 C 86.214844 586.5 88.570312 569.023438 81.066406 551.953125 "/>
<path fill-rule="nonzero" fill="rgb(12.156863%, 47.058824%, 70.588235%)" fill-opacity="1" d="M 78.195312 545.421875 L 83.1875 551.019531 L 78.945312 552.882812 L 78.195312 545.421875 "/>
<path fill="none" stroke-width="1.5" stroke-linecap="butt" stroke-linejoin="miter" stroke="rgb(12.156863%, 47.058824%, 70.588235%)" stroke-opacity="1" stroke-miterlimit="10" d="M 713.996094 590.34375 C 716.375 571.148438 711.976562 553.5 698.386719 539.789062 "/>
<path fill-rule="nonzero" fill="rgb(12.156863%, 47.058824%, 70.588235%)" fill-opacity="1" d="M 693.363281 534.722656 L 700.03125 538.15625 L 696.738281 541.417969 L 693.363281 534.722656 "/>
<path fill="none" stroke-width="1.5" stroke-linecap="butt" stroke-linejoin="miter" stroke="rgb(12.156863%, 47.058824%, 70.588235%)" stroke-opacity="1" stroke-miterlimit="10" d="M 691.519531 532.859375 C 689.5 524.269531 685.019531 516.78125 676.835938 513.695312 "/>
<path fill-rule="nonzero" fill="rgb(12.156863%, 47.058824%, 70.588235%)" fill-opacity="1" d="M 670.160156 511.179688 L 677.652344 511.527344 L 676.019531 515.863281 L 670.160156 511.179688 "/>
<path fill="none" stroke-width="1.5" stroke-linecap="butt" stroke-linejoin="miter" stroke="rgb(12.156863%, 47.058824%, 70.588235%)" stroke-opacity="1" stroke-miterlimit="10" d="M 123.535156 464.863281 C 128.089844 452.769531 128.363281 440.347656 121.316406 429.585938 "/>
<path fill-rule="nonzero" fill="rgb(12.156863%, 47.058824%, 70.588235%)" fill-opacity="1" d="M 117.410156 423.617188 L 123.257812 428.316406 L 119.378906 430.855469 L 117.410156 423.617188 "/>
<path fill="none" stroke-width="1.5" stroke-linecap="butt" stroke-linejoin="miter" stroke="rgb(12.156863%, 47.058824%, 70.588235%)" stroke-opacity="1" stroke-miterlimit="10" d="M 279.816406 50 C 270.714844 62.699219 266.761719 77.015625 271.363281 91.902344 "/>
<path fill-rule="nonzero" fill="rgb(12.156863%, 47.058824%, 70.588235%)" fill-opacity="1" d="M 273.46875 98.71875 L 269.148438 92.585938 L 273.578125 91.21875 L 273.46875 98.71875 "/>
<path fill="none" stroke-width="5.5" stroke-linecap="butt" stroke-linejoin="miter" stroke="rgb(70.196078%, 70.196078%, 70.196078%)" stroke-opacity="1" stroke-miterlimit="10" d="M 467.953125 138.980469 C 463.859375 125.714844 455.878906 115.109375 442.839844 110.488281 "/>
<path fill-rule="nonzero" fill="rgb(70.196078%, 70.196078%, 70.196078%)" fill-opacity="1" d="M 436.117188 108.105469 L 443.617188 108.304688 L 442.066406 112.671875 L 436.117188 108.105469 "/>
<path fill="none" stroke-width="1.5" stroke-linecap="butt" stroke-linejoin="miter" stroke="rgb(12.156863%, 47.058824%, 70.588235%)" stroke-opacity="1" stroke-miterlimit="10" d="M 275.070312 103.894531 C 284.363281 90.1875 288.039062 74.957031 282.867188 59.261719 "/>
<path fill-rule="nonzero" fill="rgb(12.156863%, 47.058824%, 70.588235%)" fill-opacity="1" d="M 280.636719 52.488281 L 285.070312 58.539062 L 280.667969 59.988281 L 280.636719 52.488281 "/>
<path fill="none" stroke-width="5.5" stroke-linecap="butt" stroke-linejoin="miter" stroke="rgb(70.196078%, 70.196078%, 70.196078%)" stroke-opacity="1" stroke-miterlimit="10" d="M 275.070312 103.894531 C 256.476562 110.699219 242.429688 122.949219 236.324219 141.746094 "/>
<path fill-rule="nonzero" fill="rgb(70.196078%, 70.196078%, 70.196078%)" fill-opacity="1" d="M 234.121094 148.53125 L 234.121094 141.03125 L 238.527344 142.460938 L 234.121094 148.53125 "/>
<path fill="none" stroke-width="5.5" stroke-linecap="butt" stroke-linejoin="miter" stroke="rgb(70.196078%, 70.196078%, 70.196078%)" stroke-opacity="1" stroke-miterlimit="10" d="M 316.085938 84.648438 C 303.753906 83.140625 292.070312 85.695312 283.625 94.734375 "/>
<path fill-rule="nonzero" fill="rgb(70.196078%, 70.196078%, 70.196078%)" fill-opacity="1" d="M 278.757812 99.945312 L 281.933594 93.152344 L 285.320312 96.316406 L 278.757812 99.945312 "/>
<path fill="none" stroke-width="5.5" stroke-linecap="butt" stroke-linejoin="miter" stroke="rgb(70.196078%, 70.196078%, 70.196078%)" stroke-opacity="1" stroke-miterlimit="10" d="M 355.582031 78.152344 C 345.804688 73.867188 335.46875 72.960938 326.386719 78.4375 "/>
<path fill-rule="nonzero" fill="rgb(70.196078%, 70.196078%, 70.196078%)" fill-opacity="1" d="M 320.277344 82.121094 L 325.1875 76.453125 L 327.582031 80.421875 L 320.277344 82.121094 "/>
<path fill="none" stroke-width="5.5" stroke-linecap="butt" stroke-linejoin="miter" stroke="rgb(70.196078%, 70.196078%, 70.196078%)" stroke-opacity="1" stroke-miterlimit="10" d="M 394.023438 85.722656 C 386.613281 78.46875 377.527344 74.0625 367.402344 75.949219 "/>
<path fill-rule="nonzero" fill="rgb(70.196078%, 70.196078%, 70.196078%)" fill-opacity="1" d="M 360.390625 77.253906 L 366.980469 73.671875 L 367.828125 78.226562 L 360.390625 77.253906 "/>
<path fill="none" stroke-width="5.5" stroke-linecap="butt" stroke-linejoin="miter" stroke="rgb(70.196078%, 70.196078%, 70.196078%)" stroke-opacity="1" stroke-miterlimit="10" d="M 431.488281 106.464844 C 425.871094 96.214844 417.507812 88.628906 405.964844 87.199219 "/>
<path fill-rule="nonzero" fill="rgb(70.196078%, 70.196078%, 70.196078%)" fill-opacity="1" d="M 398.886719 86.324219 L 406.25 84.898438 L 405.679688 89.5 L 398.886719 86.324219 "/>
<path fill="none" stroke-width="1.5" stroke-linecap="butt" stroke-linejoin="miter" stroke="rgb(12.156863%, 47.058824%, 70.588235%)" stroke-opacity="1" stroke-miterlimit="10" d="M 50 551.925781 C 55.808594 553.414062 62.035156 553.304688 66.164062 549.117188 "/>
<path fill-rule="nonzero" fill="rgb(12.156863%, 47.058824%, 70.588235%)" fill-opacity="1" d="M 71.171875 544.035156 L 67.816406 550.742188 L 64.515625 547.488281 L 71.171875 544.035156 "/>
<path fill="none" stroke-width="5.5" stroke-linecap="butt" stroke-linejoin="miter" stroke="rgb(70.196078%, 70.196078%, 70.196078%)" stroke-opacity="1" stroke-miterlimit="10" d="M 537.601562 233.347656 C 536.253906 214.761719 528.835938 198.832031 513.378906 188.492188 "/>
<path fill-rule="nonzero" fill="rgb(70.196078%, 70.196078%, 70.196078%)" fill-opacity="1" d="M 507.449219 184.527344 L 514.667969 186.566406 L 512.089844 190.417969 L 507.449219 184.527344 "/>
<path fill="none" stroke-width="5.5" stroke-linecap="butt" stroke-linejoin="miter" stroke="rgb(70.196078%, 70.196078%, 70.196078%)" stroke-opacity="1" stroke-miterlimit="10" d="M 503.355469 181.789062 C 500.675781 165.691406 492.976562 152.265625 478.601562 144.632812 "/>
<path fill-rule="nonzero" fill="rgb(70.196078%, 70.196078%, 70.196078%)" fill-opacity="1" d="M 472.300781 141.285156 L 479.6875 142.585938 L 477.511719 146.679688 L 472.300781 141.285156 "/>
<path fill="none" stroke-width="1.5" stroke-linecap="butt" stroke-linejoin="miter" stroke="rgb(12.156863%, 47.058824%, 70.588235%)" stroke-opacity="1" stroke-miterlimit="10" d="M 212.695312 183.546875 C 202.09375 190.789062 194.804688 200.734375 194.375 213.511719 "/>
<path fill-rule="nonzero" fill="rgb(12.156863%, 47.058824%, 70.588235%)" fill-opacity="1" d="M 194.136719 220.640625 L 192.058594 213.433594 L 196.691406 213.589844 L 194.136719 220.640625 "/>
<path fill="none" stroke-width="1.5" stroke-linecap="butt" stroke-linejoin="miter" stroke="rgb(12.156863%, 47.058824%, 70.588235%)" stroke-opacity="1" stroke-miterlimit="10" d="M 61.988281 507.410156 C 60.085938 515.507812 60.675781 523.769531 66.335938 529.746094 "/>
<path fill-rule="nonzero" fill="rgb(12.156863%, 47.058824%, 70.588235%)" fill-opacity="1" d="M 71.238281 534.921875 L 64.652344 531.335938 L 68.015625 528.152344 L 71.238281 534.921875 "/>
<path fill="none" stroke-width="1.5" stroke-linecap="butt" stroke-linejoin="miter" stroke="rgb(12.156863%, 47.058824%, 70.588235%)" stroke-opacity="1" stroke-miterlimit="10" d="M 233.984375 95.449219 C 225.007812 110.054688 221.894531 125.980469 227.976562 141.960938 "/>
<path fill-rule="nonzero" fill="rgb(12.156863%, 47.058824%, 70.588235%)" fill-opacity="1" d="M 230.515625 148.628906 L 225.808594 142.785156 L 230.140625 141.136719 L 230.515625 148.628906 "/>
<path fill="none" stroke-width="1.5" stroke-linecap="butt" stroke-linejoin="miter" stroke="rgb(12.156863%, 47.058824%, 70.588235%)" stroke-opacity="1" stroke-miterlimit="10" d="M 75.609375 539.535156 C 66.625 557.359375 64.796875 576.019531 73.203125 594.085938 "/>
<path fill-rule="nonzero" fill="rgb(12.156863%, 47.058824%, 70.588235%)" fill-opacity="1" d="M 76.210938 600.554688 L 71.101562 595.066406 L 75.304688 593.109375 L 76.210938 600.554688 "/>
<path fill="none" stroke-width="1.5" stroke-linecap="butt" stroke-linejoin="miter" stroke="rgb(12.156863%, 47.058824%, 70.588235%)" stroke-opacity="1" stroke-miterlimit="10" d="M 75.609375 539.535156 C 77.210938 530.164062 75.824219 520.960938 69.078125 514.355469 "/>
<path fill-rule="nonzero" fill="rgb(12.156863%, 47.058824%, 70.588235%)" fill-opacity="1" d="M 63.984375 509.363281 L 70.703125 512.699219 L 67.457031 516.011719 L 63.984375 509.363281 "/>
<path fill="none" stroke-width="5.5" stroke-linecap="butt" stroke-linejoin="miter" stroke="rgb(70.196078%, 70.196078%, 70.196078%)" stroke-opacity="1" stroke-miterlimit="10" d="M 75.609375 539.535156 C 57.121094 569.011719 51.636719 600.820312 62.570312 633.828125 "/>
<path fill-rule="nonzero" fill="rgb(70.196078%, 70.196078%, 70.196078%)" fill-opacity="1" d="M 64.816406 640.597656 L 60.371094 634.554688 L 64.773438 633.097656 L 64.816406 640.597656 "/>
<path fill="none" stroke-width="1.5" stroke-linecap="butt" stroke-linejoin="miter" stroke="rgb(12.156863%, 47.058824%, 70.588235%)" stroke-opacity="1" stroke-miterlimit="10" d="M 75.609375 539.535156 C 61.375 551.46875 52.875 566.757812 53.5 585.285156 "/>
<path fill-rule="nonzero" fill="rgb(12.156863%, 47.058824%, 70.588235%)" fill-opacity="1" d="M 53.738281 592.414062 L 51.183594 585.363281 L 55.816406 585.207031 L 53.738281 592.414062 "/>
<path fill="none" stroke-width="1.5" stroke-linecap="butt" stroke-linejoin="miter" stroke="rgb(12.156863%, 47.058824%, 70.588235%)" stroke-opacity="1" stroke-miterlimit="10" d="M 113.363281 417.4375 C 108.960938 431.273438 109.550781 445.082031 117.90625 456.902344 "/>
<path fill-rule="nonzero" fill="rgb(12.156863%, 47.058824%, 70.588235%)" fill-opacity="1" d="M 122.023438 462.726562 L 116.015625 458.242188 L 119.800781 455.566406 L 122.023438 462.726562 "/>
<path fill="none" stroke-width="5.5" stroke-linecap="butt" stroke-linejoin="miter" stroke="rgb(70.196078%, 70.196078%, 70.196078%)" stroke-opacity="1" stroke-miterlimit="10" d="M 113.363281 417.4375 C 83.964844 447.894531 69.707031 484.355469 74.207031 526.429688 "/>
<path fill-rule="nonzero" fill="rgb(70.196078%, 70.196078%, 70.196078%)" fill-opacity="1" d="M 74.964844 533.523438 L 71.902344 526.675781 L 76.511719 526.183594 L 74.964844 533.523438 "/>
<path fill="none" stroke-width="1.5" stroke-linecap="butt" stroke-linejoin="miter" stroke="rgb(12.156863%, 47.058824%, 70.588235%)" stroke-opacity="1" stroke-miterlimit="10" d="M 113.363281 417.4375 C 113.199219 412.007812 111.554688 406.558594 106.855469 404.078125 "/>
<path fill-rule="nonzero" fill="rgb(12.156863%, 47.058824%, 70.588235%)" fill-opacity="1" d="M 100.546875 400.753906 L 107.9375 402.03125 L 105.773438 406.128906 L 100.546875 400.753906 "/>
<path fill="none" stroke-width="1.5" stroke-linecap="butt" stroke-linejoin="miter" stroke="rgb(12.156863%, 47.058824%, 70.588235%)" stroke-opacity="1" stroke-miterlimit="10" d="M 113.363281 417.4375 C 103.269531 433.335938 99.753906 450.710938 106.027344 468.433594 "/>
<path fill-rule="nonzero" fill="rgb(12.156863%, 47.058824%, 70.588235%)" fill-opacity="1" d="M 108.40625 475.15625 L 103.839844 469.203125 L 108.210938 467.660156 L 108.40625 475.15625 "/>
<path fill="none" stroke-width="1.5" stroke-linecap="butt" stroke-linejoin="miter" stroke="rgb(12.156863%, 47.058824%, 70.588235%)" stroke-opacity="1" stroke-miterlimit="10" d="M 113.363281 417.4375 C 120.996094 398.742188 121.332031 379.785156 111.417969 362.234375 "/>
<path fill-rule="nonzero" fill="rgb(12.156863%, 47.058824%, 70.588235%)" fill-opacity="1" d="M 107.910156 356.023438 L 113.433594 361.09375 L 109.398438 363.375 L 107.910156 356.023438 "/>
<path fill="none" stroke-width="1.5" stroke-linecap="butt" stroke-linejoin="miter" stroke="rgb(12.156863%, 47.058824%, 70.588235%)" stroke-opacity="1" stroke-miterlimit="10" d="M 98.089844 399.457031 C 97.503906 403.214844 97.796875 407.542969 100.851562 409.484375 "/>
<path fill-rule="nonzero" fill="rgb(12.156863%, 47.058824%, 70.588235%)" fill-opacity="1" d="M 106.871094 413.308594 L 99.605469 411.441406 L 102.09375 407.527344 L 106.871094 413.308594 "/>
<path fill="none" stroke-width="1.5" stroke-linecap="butt" stroke-linejoin="miter" stroke="rgb(12.156863%, 47.058824%, 70.588235%)" stroke-opacity="1" stroke-miterlimit="10" d="M 109.277344 477.628906 C 119.078125 463.460938 123.089844 447.640625 117.824219 431.289062 "/>
<path fill-rule="nonzero" fill="rgb(12.156863%, 47.058824%, 70.588235%)" fill-opacity="1" d="M 115.636719 424.496094 L 120.03125 430.578125 L 115.617188 431.996094 L 115.636719 424.496094 "/>
<path fill="none" stroke-width="1.5" stroke-linecap="butt" stroke-linejoin="miter" stroke="rgb(12.156863%, 47.058824%, 70.588235%)" stroke-opacity="1" stroke-miterlimit="10" d="M 53.828125 595.035156 C 59.257812 583.644531 60.507812 571.609375 54.589844 560.523438 "/>
<path fill-rule="nonzero" fill="rgb(12.156863%, 47.058824%, 70.588235%)" fill-opacity="1" d="M 51.230469 554.234375 L 56.636719 559.433594 L 52.546875 561.617188 L 51.230469 554.234375 "/>
<path fill="none" stroke-width="4.5" stroke-linecap="butt" stroke-linejoin="miter" stroke="rgb(70.196078%, 70.196078%, 70.196078%)" stroke-opacity="1" stroke-miterlimit="10" d="M 151.734375 313.160156 C 125.191406 337.363281 110.945312 367.480469 112.683594 403.335938 "/>
<path fill-rule="nonzero" fill="rgb(70.196078%, 70.196078%, 70.196078%)" fill-opacity="1" d="M 113.027344 410.460938 L 110.367188 403.449219 L 114.996094 403.222656 L 113.027344 410.460938 "/>
<path fill="none" stroke-width="1.5" stroke-linecap="butt" stroke-linejoin="miter" stroke="rgb(12.156863%, 47.058824%, 70.588235%)" stroke-opacity="1" stroke-miterlimit="10" d="M 151.734375 313.160156 C 160.714844 297.050781 163.195312 279.855469 156.050781 262.890625 "/>
<path fill-rule="nonzero" fill="rgb(12.156863%, 47.058824%, 70.588235%)" fill-opacity="1" d="M 153.28125 256.316406 L 158.183594 261.992188 L 153.914062 263.789062 L 153.28125 256.316406 "/>
<path fill="none" stroke-width="1.5" stroke-linecap="butt" stroke-linejoin="miter" stroke="rgb(12.156863%, 47.058824%, 70.588235%)" stroke-opacity="1" stroke-miterlimit="10" d="M 151.734375 313.160156 C 140.171875 322.253906 132.824219 334.164062 133.09375 348.832031 "/>
<path fill-rule="nonzero" fill="rgb(12.156863%, 47.058824%, 70.588235%)" fill-opacity="1" d="M 133.222656 355.960938 L 130.777344 348.875 L 135.410156 348.789062 L 133.222656 355.960938 "/>
<path fill="none" stroke-width="1.5" stroke-linecap="butt" stroke-linejoin="miter" stroke="rgb(12.156863%, 47.058824%, 70.588235%)" stroke-opacity="1" stroke-miterlimit="10" d="M 152.261719 253.902344 C 143.386719 268.988281 140.546875 285.300781 147.054688 301.507812 "/>
<path fill-rule="nonzero" fill="rgb(12.156863%, 47.058824%, 70.588235%)" fill-opacity="1" d="M 149.714844 308.128906 L 144.90625 302.371094 L 149.207031 300.644531 L 149.714844 308.128906 "/>
<path fill="none" stroke-width="1.5" stroke-linecap="butt" stroke-linejoin="miter" stroke="rgb(12.156863%, 47.058824%, 70.588235%)" stroke-opacity="1" stroke-miterlimit="10" d="M 133.269531 358.578125 C 119.722656 370.25 111.601562 385.089844 112.574219 402.902344 "/>
<path fill-rule="nonzero" fill="rgb(12.156863%, 47.058824%, 70.588235%)" fill-opacity="1" d="M 112.960938 410.027344 L 110.257812 403.03125 L 114.886719 402.777344 L 112.960938 410.027344 "/>
<path fill="none" stroke-width="5.5" stroke-linecap="butt" stroke-linejoin="miter" stroke="rgb(70.196078%, 70.196078%, 70.196078%)" stroke-opacity="1" stroke-miterlimit="10" d="M 193.953125 226.042969 C 168.835938 244.761719 153.765625 269.679688 152.304688 300.949219 "/>
<path fill-rule="nonzero" fill="rgb(70.196078%, 70.196078%, 70.196078%)" fill-opacity="1" d="M 151.972656 308.074219 L 149.988281 300.84375 L 154.621094 301.058594 L 151.972656 308.074219 "/>
<path fill="none" stroke-width="1.5" stroke-linecap="butt" stroke-linejoin="miter" stroke="rgb(12.156863%, 47.058824%, 70.588235%)" stroke-opacity="1" stroke-miterlimit="10" d="M 232.441406 153.695312 C 223.464844 157.714844 216.394531 164.203125 214.558594 173.796875 "/>
<path fill-rule="nonzero" fill="rgb(12.156863%, 47.058824%, 70.588235%)" fill-opacity="1" d="M 213.21875 180.804688 L 212.28125 173.363281 L 216.835938 174.234375 L 213.21875 180.804688 "/>
<path fill="none" stroke-width="1.5" stroke-linecap="butt" stroke-linejoin="miter" stroke="rgb(12.156863%, 47.058824%, 70.588235%)" stroke-opacity="1" stroke-miterlimit="10" d="M 232.441406 153.695312 C 241.542969 138.074219 244.316406 121.257812 237.609375 104.503906 "/>
<path fill-rule="nonzero" fill="rgb(12.156863%, 47.058824%, 70.588235%)" fill-opacity="1" d="M 234.960938 97.882812 L 239.761719 103.644531 L 235.460938 105.367188 L 234.960938 97.882812 "/>
<path fill="none" stroke-width="4.5" stroke-linecap="butt" stroke-linejoin="miter" stroke="rgb(70.196078%, 70.196078%, 70.196078%)" stroke-opacity="1" stroke-miterlimit="10" d="M 232.441406 153.695312 C 210.945312 168.140625 197.289062 188.09375 195.023438 213.871094 "/>
<path fill-rule="nonzero" fill="rgb(70.196078%, 70.196078%, 70.196078%)" fill-opacity="1" d="M 194.398438 220.976562 L 192.714844 213.667969 L 197.332031 214.074219 L 194.398438 220.976562 "/>
<path fill="none" stroke-width="5.5" stroke-linecap="butt" stroke-linejoin="miter" stroke="rgb(70.196078%, 70.196078%, 70.196078%)" stroke-opacity="1" stroke-miterlimit="10" d="M 570.792969 293.195312 C 570.746094 272.175781 563.574219 253.789062 547.082031 240.808594 "/>
<path fill-rule="nonzero" fill="rgb(70.196078%, 70.196078%, 70.196078%)" fill-opacity="1" d="M 541.476562 236.398438 L 548.515625 238.988281 L 545.648438 242.632812 L 541.476562 236.398438 "/>
<path fill="none" stroke-width="1.5" stroke-linecap="butt" stroke-linejoin="miter" stroke="rgb(12.156863%, 47.058824%, 70.588235%)" stroke-opacity="1" stroke-miterlimit="10" d="M 106.621094 353.742188 C 98.96875 370.675781 97.863281 388.191406 106.546875 404.574219 "/>
<path fill-rule="nonzero" fill="rgb(12.156863%, 47.058824%, 70.588235%)" fill-opacity="1" d="M 109.886719 410.875 L 104.5 405.660156 L 108.59375 403.488281 L 109.886719 410.875 "/>
<path fill="none" stroke-width="5.5" stroke-linecap="butt" stroke-linejoin="miter" stroke="rgb(70.196078%, 70.196078%, 70.196078%)" stroke-opacity="1" stroke-miterlimit="10" d="M 602.964844 359.910156 C 604.027344 336.75 597.019531 316.210938 579.617188 300.941406 "/>
<path fill-rule="nonzero" fill="rgb(70.196078%, 70.196078%, 70.196078%)" fill-opacity="1" d="M 574.257812 296.234375 L 581.148438 299.199219 L 578.089844 302.683594 L 574.257812 296.234375 "/>
<path fill="none" stroke-width="5.5" stroke-linecap="butt" stroke-linejoin="miter" stroke="rgb(70.196078%, 70.196078%, 70.196078%)" stroke-opacity="1" stroke-miterlimit="10" d="M 634.296875 432.230469 C 636.328125 407.398438 629.53125 385.132812 611.484375 367.996094 "/>
<path fill-rule="nonzero" fill="rgb(70.196078%, 70.196078%, 70.196078%)" fill-opacity="1" d="M 606.3125 363.085938 L 613.078125 366.316406 L 609.886719 369.675781 L 606.3125 363.085938 "/>
<path fill-rule="nonzero" fill="rgb(70.196078%, 70.196078%, 70.196078%)" fill-opacity="1" stroke-width="1" stroke-linecap="butt" stroke-linejoin="miter" stroke="rgb(70.196078%, 70.196078%, 70.196078%)" stroke-opacity="1" stroke-miterlimit="10" d="M 687.550781 597.539062 C 687.550781 604.007812 677.847656 604.007812 677.847656 597.539062 C 677.847656 591.074219 687.550781 591.074219 687.550781 597.539062 "/>
<path fill-rule="nonzero" fill="rgb(70.196078%, 70.196078%, 70.196078%)" fill-opacity="1" stroke-width="1" stroke-linecap="butt" stroke-linejoin="miter" stroke="rgb(70.196078%, 70.196078%, 70.196078%)" stroke-opacity="1" stroke-miterlimit="10" d="M 709.601562 658.253906 C 709.601562 664.71875 699.902344 664.71875 699.902344 658.253906 C 699.902344 651.785156 709.601562 651.785156 709.601562 658.253906 "/>
<path fill-rule="nonzero" fill="rgb(70.196078%, 70.196078%, 70.196078%)" fill-opacity="1" stroke-width="1" stroke-linecap="butt" stroke-linejoin="miter" stroke="rgb(70.196078%, 70.196078%, 70.196078%)" stroke-opacity="1" stroke-miterlimit="10" d="M 733.628906 674.179688 C 733.628906 681.3125 722.929688 681.3125 722.929688 674.179688 C 722.929688 667.046875 733.628906 667.046875 733.628906 674.179688 "/>
<path fill-rule="nonzero" fill="rgb(100%, 84.313725%, 0%)" fill-opacity="1" stroke-width="1" stroke-linecap="butt" stroke-linejoin="miter" stroke="rgb(100%, 84.313725%, 0%)" stroke-opacity="1" stroke-miterlimit="10" d="M 735.492188 744.648438 L 746.191406 744.648438 L 746.191406 755.347656 L 735.492188 755.347656 Z M 735.492188 744.648438 "/>
<path fill-rule="nonzero" fill="rgb(100%, 84.313725%, 0%)" fill-opacity="1" stroke-width="1" stroke-linecap="butt" stroke-linejoin="miter" stroke="rgb(100%, 84.313725%, 0%)" stroke-opacity="1" stroke-miterlimit="10" d="M 746.75 675.722656 L 753.25 675.722656 L 753.25 682.222656 L 746.75 682.222656 Z M 746.75 675.722656 "/>
<path fill-rule="nonzero" fill="rgb(70.196078%, 70.196078%, 70.196078%)" fill-opacity="1" stroke-width="1" stroke-linecap="butt" stroke-linejoin="miter" stroke="rgb(70.196078%, 70.196078%, 70.196078%)" stroke-opacity="1" stroke-miterlimit="10" d="M 670.480469 509.28125 C 670.480469 516.414062 659.78125 516.414062 659.78125 509.28125 C 659.78125 502.148438 670.480469 502.148438 670.480469 509.28125 "/>
<path fill-rule="nonzero" fill="rgb(12.156863%, 47.058824%, 70.588235%)" fill-opacity="1" stroke-width="1" stroke-linecap="butt" stroke-linejoin="miter" stroke="rgb(12.156863%, 47.058824%, 70.588235%)" stroke-opacity="1" stroke-miterlimit="10" d="M 80.066406 602.933594 C 80.066406 606.597656 74.566406 606.597656 74.566406 602.933594 C 74.566406 599.265625 80.066406 599.265625 80.066406 602.933594 "/>
<path fill-rule="nonzero" fill="rgb(12.156863%, 47.058824%, 70.588235%)" fill-opacity="1" stroke-width="1" stroke-linecap="butt" stroke-linejoin="miter" stroke="rgb(12.156863%, 47.058824%, 70.588235%)" stroke-opacity="1" stroke-miterlimit="10" d="M 716.746094 590.34375 C 716.746094 594.007812 711.246094 594.007812 711.246094 590.34375 C 711.246094 586.675781 716.746094 586.675781 716.746094 590.34375 "/>
<path fill-rule="nonzero" fill="rgb(12.156863%, 47.058824%, 70.588235%)" fill-opacity="1" stroke-width="1" stroke-linecap="butt" stroke-linejoin="miter" stroke="rgb(12.156863%, 47.058824%, 70.588235%)" stroke-opacity="1" stroke-miterlimit="10" d="M 694.269531 532.859375 C 694.269531 536.527344 688.769531 536.527344 688.769531 532.859375 C 688.769531 529.191406 694.269531 529.191406 694.269531 532.859375 "/>
<path fill-rule="nonzero" fill="rgb(12.156863%, 47.058824%, 70.588235%)" fill-opacity="1" stroke-width="1" stroke-linecap="butt" stroke-linejoin="miter" stroke="rgb(12.156863%, 47.058824%, 70.588235%)" stroke-opacity="1" stroke-miterlimit="10" d="M 126.285156 464.863281 C 126.285156 468.53125 120.785156 468.53125 120.785156 464.863281 C 120.785156 461.195312 126.285156 461.195312 126.285156 464.863281 "/>
<path fill-rule="nonzero" fill="rgb(12.156863%, 47.058824%, 70.588235%)" fill-opacity="1" stroke-width="1" stroke-linecap="butt" stroke-linejoin="miter" stroke="rgb(12.156863%, 47.058824%, 70.588235%)" stroke-opacity="1" stroke-miterlimit="10" d="M 282.566406 50 C 282.566406 53.667969 277.066406 53.667969 277.066406 50 C 277.066406 46.332031 282.566406 46.332031 282.566406 50 "/>
<path fill-rule="nonzero" fill="rgb(70.196078%, 70.196078%, 70.196078%)" fill-opacity="1" stroke-width="1" stroke-linecap="butt" stroke-linejoin="miter" stroke="rgb(70.196078%, 70.196078%, 70.196078%)" stroke-opacity="1" stroke-miterlimit="10" d="M 472.804688 138.980469 C 472.804688 145.445312 463.105469 145.445312 463.105469 138.980469 C 463.105469 132.511719 472.804688 132.511719 472.804688 138.980469 "/>
<path fill-rule="nonzero" fill="rgb(70.196078%, 70.196078%, 70.196078%)" fill-opacity="1" stroke-width="1" stroke-linecap="butt" stroke-linejoin="miter" stroke="rgb(70.196078%, 70.196078%, 70.196078%)" stroke-opacity="1" stroke-miterlimit="10" d="M 280.417969 103.894531 C 280.417969 111.027344 269.71875 111.027344 269.71875 103.894531 C 269.71875 96.761719 280.417969 96.761719 280.417969 103.894531 "/>
<path fill-rule="nonzero" fill="rgb(70.196078%, 70.196078%, 70.196078%)" fill-opacity="1" stroke-width="1" stroke-linecap="butt" stroke-linejoin="miter" stroke="rgb(70.196078%, 70.196078%, 70.196078%)" stroke-opacity="1" stroke-miterlimit="10" d="M 320.933594 84.648438 C 320.933594 91.113281 311.234375 91.113281 311.234375 84.648438 C 311.234375 78.179688 320.933594 78.179688 320.933594 84.648438 "/>
<path fill-rule="nonzero" fill="rgb(70.196078%, 70.196078%, 70.196078%)" fill-opacity="1" stroke-width="1" stroke-linecap="butt" stroke-linejoin="miter" stroke="rgb(70.196078%, 70.196078%, 70.196078%)" stroke-opacity="1" stroke-miterlimit="10" d="M 360.429688 78.152344 C 360.429688 84.617188 350.730469 84.617188 350.730469 78.152344 C 350.730469 71.683594 360.429688 71.683594 360.429688 78.152344 "/>
<path fill-rule="nonzero" fill="rgb(70.196078%, 70.196078%, 70.196078%)" fill-opacity="1" stroke-width="1" stroke-linecap="butt" stroke-linejoin="miter" stroke="rgb(70.196078%, 70.196078%, 70.196078%)" stroke-opacity="1" stroke-miterlimit="10" d="M 398.871094 85.722656 C 398.871094 92.1875 389.171875 92.1875 389.171875 85.722656 C 389.171875 79.253906 398.871094 79.253906 398.871094 85.722656 "/>
<path fill-rule="nonzero" fill="rgb(70.196078%, 70.196078%, 70.196078%)" fill-opacity="1" stroke-width="1" stroke-linecap="butt" stroke-linejoin="miter" stroke="rgb(70.196078%, 70.196078%, 70.196078%)" stroke-opacity="1" stroke-miterlimit="10" d="M 436.339844 106.464844 C 436.339844 112.929688 426.640625 112.929688 426.640625 106.464844 C 426.640625 99.996094 436.339844 99.996094 436.339844 106.464844 "/>
<path fill-rule="nonzero" fill="rgb(12.156863%, 47.058824%, 70.588235%)" fill-opacity="1" stroke-width="1" stroke-linecap="butt" stroke-linejoin="miter" stroke="rgb(12.156863%, 47.058824%, 70.588235%)" stroke-opacity="1" stroke-miterlimit="10" d="M 52.75 551.925781 C 52.75 555.59375 47.25 555.59375 47.25 551.925781 C 47.25 548.257812 52.75 548.257812 52.75 551.925781 "/>
<path fill-rule="nonzero" fill="rgb(70.196078%, 70.196078%, 70.196078%)" fill-opacity="1" stroke-width="1" stroke-linecap="butt" stroke-linejoin="miter" stroke="rgb(70.196078%, 70.196078%, 70.196078%)" stroke-opacity="1" stroke-miterlimit="10" d="M 542.449219 233.347656 C 542.449219 239.816406 532.75 239.816406 532.75 233.347656 C 532.75 226.882812 542.449219 226.882812 542.449219 233.347656 "/>
<path fill-rule="nonzero" fill="rgb(70.196078%, 70.196078%, 70.196078%)" fill-opacity="1" stroke-width="1" stroke-linecap="butt" stroke-linejoin="miter" stroke="rgb(70.196078%, 70.196078%, 70.196078%)" stroke-opacity="1" stroke-miterlimit="10" d="M 508.203125 181.789062 C 508.203125 188.253906 498.503906 188.253906 498.503906 181.789062 C 498.503906 175.320312 508.203125 175.320312 508.203125 181.789062 "/>
<path fill-rule="nonzero" fill="rgb(12.156863%, 47.058824%, 70.588235%)" fill-opacity="1" stroke-width="1" stroke-linecap="butt" stroke-linejoin="miter" stroke="rgb(12.156863%, 47.058824%, 70.588235%)" stroke-opacity="1" stroke-miterlimit="10" d="M 215.445312 183.546875 C 215.445312 187.214844 209.945312 187.214844 209.945312 183.546875 C 209.945312 179.882812 215.445312 179.882812 215.445312 183.546875 "/>
<path fill-rule="nonzero" fill="rgb(12.156863%, 47.058824%, 70.588235%)" fill-opacity="1" stroke-width="1" stroke-linecap="butt" stroke-linejoin="miter" stroke="rgb(12.156863%, 47.058824%, 70.588235%)" stroke-opacity="1" stroke-miterlimit="10" d="M 64.738281 507.410156 C 64.738281 511.078125 59.238281 511.078125 59.238281 507.410156 C 59.238281 503.742188 64.738281 503.742188 64.738281 507.410156 "/>
<path fill-rule="nonzero" fill="rgb(12.156863%, 47.058824%, 70.588235%)" fill-opacity="1" stroke-width="1" stroke-linecap="butt" stroke-linejoin="miter" stroke="rgb(12.156863%, 47.058824%, 70.588235%)" stroke-opacity="1" stroke-miterlimit="10" d="M 236.734375 95.449219 C 236.734375 99.117188 231.234375 99.117188 231.234375 95.449219 C 231.234375 91.785156 236.734375 91.785156 236.734375 95.449219 "/>
<path fill-rule="nonzero" fill="rgb(14.901961%, 14.901961%, 14.901961%)" fill-opacity="1" stroke-width="1" stroke-linecap="butt" stroke-linejoin="miter" stroke="rgb(14.901961%, 14.901961%, 14.901961%)" stroke-opacity="1" stroke-miterlimit="10" d="M 60.71875 651.734375 L 66.566406 640.035156 L 72.417969 651.734375 Z M 60.71875 651.734375 "/>
<path fill-rule="nonzero" fill="rgb(70.196078%, 70.196078%, 70.196078%)" fill-opacity="1" stroke-width="1" stroke-linecap="butt" stroke-linejoin="miter" stroke="rgb(70.196078%, 70.196078%, 70.196078%)" stroke-opacity="1" stroke-miterlimit="10" d="M 81.960938 539.535156 C 81.960938 543.042969 79.117188 545.886719 75.609375 545.886719 C 72.101562 545.886719 69.257812 543.042969 69.257812 539.535156 C 69.257812 536.03125 72.101562 533.1875 75.609375 533.1875 C 79.117188 533.1875 81.960938 536.03125 81.960938 539.535156 "/>
<path fill-rule="nonzero" fill="rgb(70.196078%, 70.196078%, 70.196078%)" fill-opacity="1" stroke-width="1" stroke-linecap="butt" stroke-linejoin="miter" stroke="rgb(70.196078%, 70.196078%, 70.196078%)" stroke-opacity="1" stroke-miterlimit="10" d="M 120.714844 417.4375 C 120.714844 421.496094 117.425781 424.785156 113.363281 424.785156 C 109.304688 424.785156 106.015625 421.496094 106.015625 417.4375 C 106.015625 413.378906 109.304688 410.085938 113.363281 410.085938 C 117.425781 410.085938 120.714844 413.378906 120.714844 417.4375 "/>
<path fill-rule="nonzero" fill="rgb(12.156863%, 47.058824%, 70.588235%)" fill-opacity="1" stroke-width="1" stroke-linecap="butt" stroke-linejoin="miter" stroke="rgb(12.156863%, 47.058824%, 70.588235%)" stroke-opacity="1" stroke-miterlimit="10" d="M 100.839844 399.457031 C 100.839844 403.125 95.339844 403.125 95.339844 399.457031 C 95.339844 395.789062 100.839844 395.789062 100.839844 399.457031 "/>
<path fill-rule="nonzero" fill="rgb(12.156863%, 47.058824%, 70.588235%)" fill-opacity="1" stroke-width="1" stroke-linecap="butt" stroke-linejoin="miter" stroke="rgb(12.156863%, 47.058824%, 70.588235%)" stroke-opacity="1" stroke-miterlimit="10" d="M 112.027344 477.628906 C 112.027344 481.292969 106.527344 481.292969 106.527344 477.628906 C 106.527344 473.960938 112.027344 473.960938 112.027344 477.628906 "/>
<path fill-rule="nonzero" fill="rgb(12.156863%, 47.058824%, 70.588235%)" fill-opacity="1" stroke-width="1" stroke-linecap="butt" stroke-linejoin="miter" stroke="rgb(12.156863%, 47.058824%, 70.588235%)" stroke-opacity="1" stroke-miterlimit="10" d="M 56.578125 595.035156 C 56.578125 598.699219 51.078125 598.699219 51.078125 595.035156 C 51.078125 591.367188 56.578125 591.367188 56.578125 595.035156 "/>
<path fill-rule="nonzero" fill="rgb(70.196078%, 70.196078%, 70.196078%)" fill-opacity="1" stroke-width="1" stroke-linecap="butt" stroke-linejoin="miter" stroke="rgb(70.196078%, 70.196078%, 70.196078%)" stroke-opacity="1" stroke-miterlimit="10" d="M 157.085938 313.160156 C 157.085938 320.296875 146.386719 320.296875 146.386719 313.160156 C 146.386719 306.027344 157.085938 306.027344 157.085938 313.160156 "/>
<path fill-rule="nonzero" fill="rgb(12.156863%, 47.058824%, 70.588235%)" fill-opacity="1" stroke-width="1" stroke-linecap="butt" stroke-linejoin="miter" stroke="rgb(12.156863%, 47.058824%, 70.588235%)" stroke-opacity="1" stroke-miterlimit="10" d="M 155.011719 253.902344 C 155.011719 257.570312 149.511719 257.570312 149.511719 253.902344 C 149.511719 250.234375 155.011719 250.234375 155.011719 253.902344 "/>
<path fill-rule="nonzero" fill="rgb(12.156863%, 47.058824%, 70.588235%)" fill-opacity="1" stroke-width="1" stroke-linecap="butt" stroke-linejoin="miter" stroke="rgb(12.156863%, 47.058824%, 70.588235%)" stroke-opacity="1" stroke-miterlimit="10" d="M 136.019531 358.578125 C 136.019531 362.246094 130.519531 362.246094 130.519531 358.578125 C 130.519531 354.914062 136.019531 354.914062 136.019531 358.578125 "/>
<path fill-rule="nonzero" fill="rgb(70.196078%, 70.196078%, 70.196078%)" fill-opacity="1" stroke-width="1" stroke-linecap="butt" stroke-linejoin="miter" stroke="rgb(70.196078%, 70.196078%, 70.196078%)" stroke-opacity="1" stroke-miterlimit="10" d="M 199.304688 226.042969 C 199.304688 233.175781 188.601562 233.175781 188.601562 226.042969 C 188.601562 218.90625 199.304688 218.90625 199.304688 226.042969 "/>
<path fill-rule="nonzero" fill="rgb(70.196078%, 70.196078%, 70.196078%)" fill-opacity="1" stroke-width="1" stroke-linecap="butt" stroke-linejoin="miter" stroke="rgb(70.196078%, 70.196078%, 70.196078%)" stroke-opacity="1" stroke-miterlimit="10" d="M 237.792969 153.695312 C 237.792969 160.828125 227.09375 160.828125 227.09375 153.695312 C 227.09375 146.5625 237.792969 146.5625 237.792969 153.695312 "/>
<path fill-rule="nonzero" fill="rgb(70.196078%, 70.196078%, 70.196078%)" fill-opacity="1" stroke-width="1" stroke-linecap="butt" stroke-linejoin="miter" stroke="rgb(70.196078%, 70.196078%, 70.196078%)" stroke-opacity="1" stroke-miterlimit="10" d="M 575.640625 293.195312 C 575.640625 299.664062 565.941406 299.664062 565.941406 293.195312 C 565.941406 286.730469 575.640625 286.730469 575.640625 293.195312 "/>
<path fill-rule="nonzero" fill="rgb(12.156863%, 47.058824%, 70.588235%)" fill-opacity="1" stroke-width="1" stroke-linecap="butt" stroke-linejoin="miter" stroke="rgb(12.156863%, 47.058824%, 70.588235%)" stroke-opacity="1" stroke-miterlimit="10" d="M 109.371094 353.742188 C 109.371094 357.40625 103.871094 357.40625 103.871094 353.742188 C 103.871094 350.074219 109.371094 350.074219 109.371094 353.742188 "/>
<path fill-rule="nonzero" fill="rgb(70.196078%, 70.196078%, 70.196078%)" fill-opacity="1" stroke-width="1" stroke-linecap="butt" stroke-linejoin="miter" stroke="rgb(70.196078%, 70.196078%, 70.196078%)" stroke-opacity="1" stroke-miterlimit="10" d="M 607.816406 359.910156 C 607.816406 366.375 598.117188 366.375 598.117188 359.910156 C 598.117188 353.441406 607.816406 353.441406 607.816406 359.910156 "/>
<path fill-rule="nonzero" fill="rgb(70.196078%, 70.196078%, 70.196078%)" fill-opacity="1" stroke-width="1" stroke-linecap="butt" stroke-linejoin="miter" stroke="rgb(70.196078%, 70.196078%, 70.196078%)" stroke-opacity="1" stroke-miterlimit="10" d="M 639.144531 432.230469 C 639.144531 438.695312 629.445312 438.695312 629.445312 432.230469 C 629.445312 425.765625 639.144531 425.765625 639.144531 432.230469 "/>
</svg>
