<?xml version="1.0" encoding="UTF-8"?>
<svg xmlns="http://www.w3.org/2000/svg" xmlns:xlink="http://www.w3.org/1999/xlink" width="800" height="800" viewBox="0 0 800 800">
<rect x="-80" y="-80" width="960" height="960" fill="rgb(100%, 100%, 100%)" fill-opacity="1"/>
<path fill="none" stroke-width="2.5" stroke-linecap="butt" stroke-linejoin="miter" stroke="rgb(70.196078%, 70.196078%, 70.196078%)" stroke-opacity="1" stroke-miterlimit="10" d="M 230.171875 70.792969 C 196.128906 71.796875 167.246094 84.636719 146.367188 111.519531 "/>
<path fill-rule="nonzero" fill="rgb(70.196078%, 70.196078%, 70.196078%)" fill-opacity="1" d="M 141.992188 117.15625 L 144.535156 110.101562 L 148.195312 112.941406 L 141.992188 117.15625 "/>
<path fill="none" stroke-width="2.5" stroke-linecap="butt" stroke-linejoin="miter" stroke="rgb(70.196078%, 70.196078%, 70.196078%)" stroke-opacity="1" stroke-miterlimit="10" d="M 463.6875 108.066406 C 435.738281 74.636719 399.984375 56.117188 356.425781 56.046875 "/>
<path fill-rule="nonzero" fill="rgb(70.196078%, 70.196078%, 70.196078%)" fill-opacity="1" d="M 349.292969 56.035156 L 356.429688 53.730469 L 356.421875 58.363281 L 349.292969 56.035156 "/>
<path fill="none" stroke-width="1.5" stroke-linecap="butt" stroke-linejoin="miter" stroke="rgb(12.156863%, 47.058824%, 70.588235%)" stroke-opacity="1" stroke-miterlimit="10" d="M 463.6875 108.066406 C 432.390625 134.183594 415 167.613281 414.921875 208.359375 "/>
<path fill-rule="nonzero" fill="rgb(12.156863%, 47.058824%, 70.588235%)" fill-opacity="1" d="M 414.910156 215.492188 L 412.605469 208.355469 L 417.242188 208.367188 L 414.910156 215.492188 "/>
<path fill="none" stroke-width="2.5" stroke-linecap="butt" stroke-linejoin="miter" stroke="rgb(70.196078%, 70.196078%, 70.196078%)" stroke-opacity="1" stroke-miterlimit="10" d="M 344.664062 56.027344 C 308.558594 43.285156 273.15625 45.1875 240.273438 64.773438 "/>
<path fill-rule="nonzero" fill="rgb(70.196078%, 70.196078%, 70.196078%)" fill-opacity="1" d="M 234.148438 68.425781 L 239.089844 62.78125 L 241.460938 66.765625 L 234.148438 68.425781 "/>
<path fill="none" stroke-width="1.5" stroke-linecap="butt" stroke-linejoin="miter" stroke="rgb(12.156863%, 47.058824%, 70.588235%)" stroke-opacity="1" stroke-miterlimit="10" d="M 334.265625 291.175781 C 303.699219 281.671875 274.09375 284.242188 247.34375 301.78125 "/>
<path fill-rule="nonzero" fill="rgb(12.156863%, 47.058824%, 70.588235%)" fill-opacity="1" d="M 241.378906 305.691406 L 246.074219 299.839844 L 248.617188 303.71875 L 241.378906 305.691406 "/>
<path fill="none" stroke-width="1.5" stroke-linecap="butt" stroke-linejoin="miter" stroke="rgb(99.215686%, 74.901961%, 43.529412%)" stroke-opacity="1" stroke-miterlimit="10" d="M 704.105469 566.222656 C 665.835938 576.664062 636.835938 599.171875 620.355469 635.234375 "/>
<path fill-rule="nonzero" fill="rgb(99.215686%, 74.901961%, 43.529412%)" fill-opacity="1" d="M 617.390625 641.722656 L 618.246094 634.269531 L 622.460938 636.195312 L 617.390625 641.722656 "/>
<path fill="none" stroke-width="2.5" stroke-linecap="butt" stroke-linejoin="miter" stroke="rgb(70.196078%, 70.196078%, 70.196078%)" stroke-opacity="1" stroke-miterlimit="10" d="M 163.042969 579.589844 C 181.191406 617.429688 210.152344 643.25 250.800781 653.617188 "/>
<path fill-rule="nonzero" fill="rgb(70.196078%, 70.196078%, 70.196078%)" fill-opacity="1" d="M 257.710938 655.382812 L 250.226562 655.863281 L 251.371094 651.371094 L 257.710938 655.382812 "/>
<path fill="none" stroke-width="1.5" stroke-linecap="butt" stroke-linejoin="miter" stroke="rgb(30.196078%, 68.627451%, 29.019608%)" stroke-opacity="1" stroke-miterlimit="10" d="M 548.34375 515.160156 C 521.25 533.230469 504.296875 558.277344 501.035156 590.65625 "/>
<path fill-rule="nonzero" fill="rgb(30.196078%, 68.627451%, 29.019608%)" fill-opacity="1" d="M 500.320312 597.753906 L 498.726562 590.425781 L 503.339844 590.890625 L 500.320312 597.753906 "/>
<path fill="none" stroke-width="1.5" stroke-linecap="butt" stroke-linejoin="miter" stroke="rgb(99.215686%, 74.901961%, 43.529412%)" stroke-opacity="1" stroke-miterlimit="10" d="M 548.34375 515.160156 C 587.136719 519.085938 621.660156 508.640625 649.53125 481.394531 "/>
<path fill-rule="nonzero" fill="rgb(99.215686%, 74.901961%, 43.529412%)" fill-opacity="1" d="M 654.632812 476.410156 L 651.152344 483.050781 L 647.910156 479.738281 L 654.632812 476.410156 "/>
<path fill="none" stroke-width="1.5" stroke-linecap="butt" stroke-linejoin="miter" stroke="rgb(30.196078%, 68.627451%, 29.019608%)" stroke-opacity="1" stroke-miterlimit="10" d="M 262.195312 656.527344 C 295.609375 675.730469 330.996094 680.3125 367.117188 666.925781 "/>
<path fill-rule="nonzero" fill="rgb(30.196078%, 68.627451%, 29.019608%)" fill-opacity="1" d="M 373.804688 664.449219 L 367.921875 669.101562 L 366.308594 664.753906 L 373.804688 664.449219 "/>
<path fill="none" stroke-width="1.5" stroke-linecap="butt" stroke-linejoin="miter" stroke="rgb(99.215686%, 74.901961%, 43.529412%)" stroke-opacity="1" stroke-miterlimit="10" d="M 262.195312 656.527344 C 264.785156 689.703125 278.699219 717.253906 305.902344 736.390625 "/>
<path fill-rule="nonzero" fill="rgb(99.215686%, 74.901961%, 43.529412%)" fill-opacity="1" d="M 311.734375 740.496094 L 304.570312 738.285156 L 307.234375 734.496094 L 311.734375 740.496094 "/>
<path fill="none" stroke-width="1.5" stroke-linecap="butt" stroke-linejoin="miter" stroke="rgb(12.156863%, 47.058824%, 70.588235%)" stroke-opacity="1" stroke-miterlimit="10" d="M 585.234375 138.636719 C 553.625 111.363281 516.941406 99.339844 475.761719 106.085938 "/>
<path fill-rule="nonzero" fill="rgb(12.156863%, 47.058824%, 70.588235%)" fill-opacity="1" d="M 468.722656 107.242188 L 475.386719 103.800781 L 476.136719 108.375 L 468.722656 107.242188 "/>
<path fill="none" stroke-width="2.5" stroke-linecap="butt" stroke-linejoin="miter" stroke="rgb(70.196078%, 70.196078%, 70.196078%)" stroke-opacity="1" stroke-miterlimit="10" d="M 585.234375 138.636719 C 587.335938 107.277344 578.15625 79.558594 555.273438 58.050781 "/>
<path fill-rule="nonzero" fill="rgb(70.196078%, 70.196078%, 70.196078%)" fill-opacity="1" d="M 550.074219 53.164062 L 556.859375 56.359375 L 553.683594 59.738281 L 550.074219 53.164062 "/>
<path fill="none" stroke-width="2.5" stroke-linecap="butt" stroke-linejoin="miter" stroke="rgb(70.196078%, 70.196078%, 70.196078%)" stroke-opacity="1" stroke-miterlimit="10" d="M 378.585938 662.675781 C 423.933594 662.835938 462.617188 646.769531 491.902344 612.164062 "/>
<path fill-rule="nonzero" fill="rgb(70.196078%, 70.196078%, 70.196078%)" fill-opacity="1" d="M 496.511719 606.71875 L 493.671875 613.660156 L 490.132812 610.664062 L 496.511719 606.71875 "/>
<path fill="none" stroke-width="3.5" stroke-linecap="butt" stroke-linejoin="miter" stroke="rgb(70.196078%, 70.196078%, 70.196078%)" stroke-opacity="1" stroke-miterlimit="10" d="M 680.105469 205.625 C 662.007812 171.59375 634.460938 148.90625 596.746094 141.039062 "/>
<path fill-rule="nonzero" fill="rgb(70.196078%, 70.196078%, 70.196078%)" fill-opacity="1" d="M 589.765625 139.578125 L 597.21875 138.769531 L 596.273438 143.304688 L 589.765625 139.578125 "/>
<path fill="none" stroke-width="1.5" stroke-linecap="butt" stroke-linejoin="miter" stroke="rgb(30.196078%, 68.627451%, 29.019608%)" stroke-opacity="1" stroke-miterlimit="10" d="M 139.78125 465.46875 C 129.589844 502.605469 134.039062 537.980469 156.050781 569.554688 "/>
<path fill-rule="nonzero" fill="rgb(30.196078%, 68.627451%, 29.019608%)" fill-opacity="1" d="M 160.128906 575.40625 L 154.148438 570.878906 L 157.949219 568.230469 L 160.128906 575.40625 "/>
<path fill="none" stroke-width="1.5" stroke-linecap="butt" stroke-linejoin="miter" stroke="rgb(12.156863%, 47.058824%, 70.588235%)" stroke-opacity="1" stroke-miterlimit="10" d="M 414.90625 218.125 C 379.730469 228.003906 353.144531 248.921875 338.246094 282.261719 "/>
<path fill-rule="nonzero" fill="rgb(12.156863%, 47.058824%, 70.588235%)" fill-opacity="1" d="M 335.335938 288.773438 L 336.128906 281.316406 L 340.363281 283.207031 L 335.335938 288.773438 "/>
<path fill="none" stroke-width="2.5" stroke-linecap="butt" stroke-linejoin="miter" stroke="rgb(70.196078%, 70.196078%, 70.196078%)" stroke-opacity="1" stroke-miterlimit="10" d="M 615.269531 646.359375 C 594.597656 673.644531 586.453125 704.347656 594.332031 737.640625 "/>
<path fill-rule="nonzero" fill="rgb(70.196078%, 70.196078%, 70.196078%)" fill-opacity="1" d="M 595.976562 744.582031 L 592.078125 738.175781 L 596.585938 737.105469 L 595.976562 744.582031 "/>
<path fill="none" stroke-width="2.5" stroke-linecap="butt" stroke-linejoin="miter" stroke="rgb(70.196078%, 70.196078%, 70.196078%)" stroke-opacity="1" stroke-miterlimit="10" d="M 499.808594 602.820312 C 526.996094 584.605469 543.957031 559.402344 547.183594 526.859375 "/>
<path fill-rule="nonzero" fill="rgb(70.196078%, 70.196078%, 70.196078%)" fill-opacity="1" d="M 547.886719 519.761719 L 549.488281 527.085938 L 544.878906 526.628906 L 547.886719 519.761719 "/>
<path fill="none" stroke-width="1.5" stroke-linecap="butt" stroke-linejoin="miter" stroke="rgb(30.196078%, 68.627451%, 29.019608%)" stroke-opacity="1" stroke-miterlimit="10" d="M 499.808594 602.820312 C 527.605469 633.015625 562.074219 648.914062 603.050781 646.945312 "/>
<path fill-rule="nonzero" fill="rgb(30.196078%, 68.627451%, 29.019608%)" fill-opacity="1" d="M 610.175781 646.605469 L 603.160156 649.261719 L 602.9375 644.632812 L 610.175781 646.605469 "/>
<path fill="none" stroke-width="1.5" stroke-linecap="butt" stroke-linejoin="miter" stroke="rgb(99.215686%, 74.901961%, 43.529412%)" stroke-opacity="1" stroke-miterlimit="10" d="M 313.886719 742.007812 C 344.46875 728.683594 366.054688 706.484375 375.222656 674.433594 "/>
<path fill-rule="nonzero" fill="rgb(99.215686%, 74.901961%, 43.529412%)" fill-opacity="1" d="M 377.183594 667.574219 L 377.453125 675.070312 L 372.996094 673.796875 L 377.183594 667.574219 "/>
<path fill="none" stroke-width="1.5" stroke-linecap="butt" stroke-linejoin="miter" stroke="rgb(99.215686%, 74.901961%, 43.529412%)" stroke-opacity="1" stroke-miterlimit="10" d="M 656.511719 474.570312 C 657.011719 509.078125 669.632812 538.472656 696.5 560.101562 "/>
<path fill-rule="nonzero" fill="rgb(99.215686%, 74.901961%, 43.529412%)" fill-opacity="1" d="M 702.058594 564.574219 L 695.046875 561.90625 L 697.953125 558.296875 L 702.058594 564.574219 "/>
<path fill="none" stroke-width="2.5" stroke-linecap="butt" stroke-linejoin="miter" stroke="rgb(70.196078%, 70.196078%, 70.196078%)" stroke-opacity="1" stroke-miterlimit="10" d="M 546.707031 50 C 514.03125 54.40625 487.496094 69.667969 470.132812 97.675781 "/>
<path fill-rule="nonzero" fill="rgb(70.196078%, 70.196078%, 70.196078%)" fill-opacity="1" d="M 466.375 103.734375 L 468.164062 96.453125 L 472.101562 98.894531 L 466.375 103.734375 "/>
<path fill="none" stroke-width="3.5" stroke-linecap="butt" stroke-linejoin="miter" stroke="rgb(70.196078%, 70.196078%, 70.196078%)" stroke-opacity="1" stroke-miterlimit="10" d="M 750 278.238281 C 740.523438 246.691406 721.292969 222.917969 690.941406 210.175781 "/>
<path fill-rule="nonzero" fill="rgb(70.196078%, 70.196078%, 70.196078%)" fill-opacity="1" d="M 684.363281 207.414062 L 691.839844 208.039062 L 690.042969 212.3125 L 684.363281 207.414062 "/>
<path fill="none" stroke-width="1.5" stroke-linecap="butt" stroke-linejoin="miter" stroke="rgb(30.196078%, 68.627451%, 29.019608%)" stroke-opacity="1" stroke-miterlimit="10" d="M 50 428.855469 C 71.144531 453.148438 97.847656 466.574219 130.023438 465.726562 "/>
<path fill-rule="nonzero" fill="rgb(30.196078%, 68.627451%, 29.019608%)" fill-opacity="1" d="M 137.152344 465.539062 L 130.085938 468.042969 L 129.960938 463.410156 L 137.152344 465.539062 "/>
<path fill="none" stroke-width="1.5" stroke-linecap="butt" stroke-linejoin="miter" stroke="rgb(99.215686%, 74.901961%, 43.529412%)" stroke-opacity="1" stroke-miterlimit="10" d="M 50 428.855469 C 37.121094 463.804688 38.507812 498.253906 57.109375 530.503906 "/>
<path fill-rule="nonzero" fill="rgb(99.215686%, 74.901961%, 43.529412%)" fill-opacity="1" d="M 60.671875 536.679688 L 55.101562 531.660156 L 59.117188 529.34375 L 60.671875 536.679688 "/>
<path fill="none" stroke-width="1.5" stroke-linecap="butt" stroke-linejoin="miter" stroke="rgb(99.215686%, 74.901961%, 43.529412%)" stroke-opacity="1" stroke-miterlimit="10" d="M 61.984375 538.960938 C 85.457031 565.925781 115.097656 580.757812 150.820312 579.886719 "/>
<path fill-rule="nonzero" fill="rgb(99.215686%, 74.901961%, 43.529412%)" fill-opacity="1" d="M 157.949219 579.714844 L 150.875 582.203125 L 150.761719 577.570312 L 157.949219 579.714844 "/>
<path fill-rule="nonzero" fill="rgb(70.196078%, 70.196078%, 70.196078%)" fill-opacity="1" stroke-width="1" stroke-linecap="butt" stroke-linejoin="miter" stroke="rgb(70.196078%, 70.196078%, 70.196078%)" stroke-opacity="1" stroke-miterlimit="10" d="M 235.023438 70.792969 C 235.023438 77.257812 225.324219 77.257812 225.324219 70.792969 C 225.324219 64.324219 235.023438 64.324219 235.023438 70.792969 "/>
<path fill-rule="nonzero" fill="rgb(70.196078%, 70.196078%, 70.196078%)" fill-opacity="1" stroke-width="1" stroke-linecap="butt" stroke-linejoin="miter" stroke="rgb(70.196078%, 70.196078%, 70.196078%)" stroke-opacity="1" stroke-miterlimit="10" d="M 469.039062 108.066406 C 469.039062 115.199219 458.339844 115.199219 458.339844 108.066406 C 458.339844 100.933594 469.039062 100.933594 469.039062 108.066406 "/>
<path fill-rule="nonzero" fill="rgb(70.196078%, 70.196078%, 70.196078%)" fill-opacity="1" stroke-width="1" stroke-linecap="butt" stroke-linejoin="miter" stroke="rgb(70.196078%, 70.196078%, 70.196078%)" stroke-opacity="1" stroke-miterlimit="10" d="M 349.515625 56.027344 C 349.515625 62.496094 339.816406 62.496094 339.816406 56.027344 C 339.816406 49.5625 349.515625 49.5625 349.515625 56.027344 "/>
<path fill-rule="nonzero" fill="rgb(12.156863%, 47.058824%, 70.588235%)" fill-opacity="1" stroke-width="1" stroke-linecap="butt" stroke-linejoin="miter" stroke="rgb(12.156863%, 47.058824%, 70.588235%)" stroke-opacity="1" stroke-miterlimit="10" d="M 337.015625 291.175781 C 337.015625 294.84375 331.515625 294.84375 331.515625 291.175781 C 331.515625 287.507812 337.015625 287.507812 337.015625 291.175781 "/>
<path fill-rule="nonzero" fill="rgb(99.215686%, 74.901961%, 43.529412%)" fill-opacity="1" stroke-width="1" stroke-linecap="butt" stroke-linejoin="miter" stroke="rgb(99.215686%, 74.901961%, 43.529412%)" stroke-opacity="1" stroke-miterlimit="10" d="M 706.855469 566.222656 C 706.855469 569.886719 701.355469 569.886719 701.355469 566.222656 C 701.355469 562.554688 706.855469 562.554688 706.855469 566.222656 "/>
<path fill-rule="nonzero" fill="rgb(70.196078%, 70.196078%, 70.196078%)" fill-opacity="1" stroke-width="1" stroke-linecap="butt" stroke-linejoin="miter" stroke="rgb(70.196078%, 70.196078%, 70.196078%)" stroke-opacity="1" stroke-miterlimit="10" d="M 168.394531 579.589844 C 168.394531 586.722656 157.695312 586.722656 157.695312 579.589844 C 157.695312 572.457031 168.394531 572.457031 168.394531 579.589844 "/>
<path fill-rule="nonzero" fill="rgb(70.196078%, 70.196078%, 70.196078%)" fill-opacity="1" stroke-width="1" stroke-linecap="butt" stroke-linejoin="miter" stroke="rgb(70.196078%, 70.196078%, 70.196078%)" stroke-opacity="1" stroke-miterlimit="10" d="M 553.191406 515.160156 C 553.191406 521.628906 543.492188 521.628906 543.492188 515.160156 C 543.492188 508.695312 553.191406 508.695312 553.191406 515.160156 "/>
<path fill-rule="nonzero" fill="rgb(70.196078%, 70.196078%, 70.196078%)" fill-opacity="1" stroke-width="1" stroke-linecap="butt" stroke-linejoin="miter" stroke="rgb(70.196078%, 70.196078%, 70.196078%)" stroke-opacity="1" stroke-miterlimit="10" d="M 267.042969 656.527344 C 267.042969 662.992188 257.34375 662.992188 257.34375 656.527344 C 257.34375 650.058594 267.042969 650.058594 267.042969 656.527344 "/>
<path fill-rule="nonzero" fill="rgb(70.196078%, 70.196078%, 70.196078%)" fill-opacity="1" stroke-width="1" stroke-linecap="butt" stroke-linejoin="miter" stroke="rgb(70.196078%, 70.196078%, 70.196078%)" stroke-opacity="1" stroke-miterlimit="10" d="M 590.085938 138.636719 C 590.085938 145.101562 580.386719 145.101562 580.386719 138.636719 C 580.386719 132.167969 590.085938 132.167969 590.085938 138.636719 "/>
<path fill-rule="nonzero" fill="rgb(70.196078%, 70.196078%, 70.196078%)" fill-opacity="1" stroke-width="1" stroke-linecap="butt" stroke-linejoin="miter" stroke="rgb(70.196078%, 70.196078%, 70.196078%)" stroke-opacity="1" stroke-miterlimit="10" d="M 383.933594 662.675781 C 383.933594 669.808594 373.234375 669.808594 373.234375 662.675781 C 373.234375 655.542969 383.933594 655.542969 383.933594 662.675781 "/>
<path fill-rule="nonzero" fill="rgb(70.196078%, 70.196078%, 70.196078%)" fill-opacity="1" stroke-width="1" stroke-linecap="butt" stroke-linejoin="miter" stroke="rgb(70.196078%, 70.196078%, 70.196078%)" stroke-opacity="1" stroke-miterlimit="10" d="M 684.953125 205.625 C 684.953125 212.09375 675.253906 212.09375 675.253906 205.625 C 675.253906 199.160156 684.953125 199.160156 684.953125 205.625 "/>
<path fill-rule="nonzero" fill="rgb(30.196078%, 68.627451%, 29.019608%)" fill-opacity="1" stroke-width="1" stroke-linecap="butt" stroke-linejoin="miter" stroke="rgb(30.196078%, 68.627451%, 29.019608%)" stroke-opacity="1" stroke-miterlimit="10" d="M 142.53125 465.46875 C 142.53125 469.136719 137.03125 469.136719 137.03125 465.46875 C 137.03125 461.804688 142.53125 461.804688 142.53125 465.46875 "/>
<path fill-rule="nonzero" fill="rgb(14.901961%, 14.901961%, 14.901961%)" fill-opacity="1" stroke-width="1" stroke-linecap="butt" stroke-linejoin="miter" stroke="rgb(14.901961%, 14.901961%, 14.901961%)" stroke-opacity="1" stroke-miterlimit="10" d="M 234.636719 311.402344 L 238.386719 303.902344 L 242.136719 311.402344 Z M 234.636719 311.402344 "/>
<path fill-rule="nonzero" fill="rgb(12.156863%, 47.058824%, 70.588235%)" fill-opacity="1" stroke-width="1" stroke-linecap="butt" stroke-linejoin="miter" stroke="rgb(12.156863%, 47.058824%, 70.588235%)" stroke-opacity="1" stroke-miterlimit="10" d="M 417.65625 218.125 C 417.65625 221.789062 412.15625 221.789062 412.15625 218.125 C 412.15625 214.457031 417.65625 214.457031 417.65625 218.125 "/>
<path fill-rule="nonzero" fill="rgb(14.901961%, 14.901961%, 14.901961%)" fill-opacity="1" stroke-width="1" stroke-linecap="butt" stroke-linejoin="miter" stroke="rgb(14.901961%, 14.901961%, 14.901961%)" stroke-opacity="1" stroke-miterlimit="10" d="M 591.40625 755.851562 L 597.257812 744.148438 L 603.105469 755.851562 Z M 591.40625 755.851562 "/>
<path fill-rule="nonzero" fill="rgb(70.196078%, 70.196078%, 70.196078%)" fill-opacity="1" stroke-width="1" stroke-linecap="butt" stroke-linejoin="miter" stroke="rgb(70.196078%, 70.196078%, 70.196078%)" stroke-opacity="1" stroke-miterlimit="10" d="M 620.621094 646.359375 C 620.621094 653.492188 609.917969 653.492188 609.917969 646.359375 C 609.917969 639.226562 620.621094 639.226562 620.621094 646.359375 "/>
<path fill-rule="nonzero" fill="rgb(14.901961%, 14.901961%, 14.901961%)" fill-opacity="1" stroke-width="1" stroke-linecap="butt" stroke-linejoin="miter" stroke="rgb(14.901961%, 14.901961%, 14.901961%)" stroke-opacity="1" stroke-miterlimit="10" d="M 132.726562 127.402344 L 138.574219 115.703125 L 144.425781 127.402344 Z M 132.726562 127.402344 "/>
<path fill-rule="nonzero" fill="rgb(70.196078%, 70.196078%, 70.196078%)" fill-opacity="1" stroke-width="1" stroke-linecap="butt" stroke-linejoin="miter" stroke="rgb(70.196078%, 70.196078%, 70.196078%)" stroke-opacity="1" stroke-miterlimit="10" d="M 505.160156 602.820312 C 505.160156 609.953125 494.457031 609.953125 494.457031 602.820312 C 494.457031 595.6875 505.160156 595.6875 505.160156 602.820312 "/>
<path fill-rule="nonzero" fill="rgb(99.215686%, 74.901961%, 43.529412%)" fill-opacity="1" stroke-width="1" stroke-linecap="butt" stroke-linejoin="miter" stroke="rgb(99.215686%, 74.901961%, 43.529412%)" stroke-opacity="1" stroke-miterlimit="10" d="M 316.636719 742.007812 C 316.636719 745.675781 311.136719 745.675781 311.136719 742.007812 C 311.136719 738.339844 316.636719 738.339844 316.636719 742.007812 "/>
<path fill-rule="nonzero" fill="rgb(99.215686%, 74.901961%, 43.529412%)" fill-opacity="1" stroke-width="1" stroke-linecap="butt" stroke-linejoin="miter" stroke="rgb(99.215686%, 74.901961%, 43.529412%)" stroke-opacity="1" stroke-miterlimit="10" d="M 659.261719 474.570312 C 659.261719 478.238281 653.761719 478.238281 653.761719 474.570312 C 653.761719 470.90625 659.261719 470.90625 659.261719 474.570312 "/>
<path fill-rule="nonzero" fill="rgb(70.196078%, 70.196078%, 70.196078%)" fill-opacity="1" stroke-width="1" stroke-linecap="butt" stroke-linejoin="miter" stroke="rgb(70.196078%, 70.196078%, 70.196078%)" stroke-opacity="1" stroke-miterlimit="10" d="M 551.558594 50 C 551.558594 56.464844 541.859375 56.464844 541.859375 50 C 541.859375 43.535156 551.558594 43.535156 551.558594 50 "/>
<path fill-rule="nonzero" fill="rgb(100%, 84.313725%, 0%)" fill-opacity="1" stroke-width="1" stroke-linecap="butt" stroke-linejoin="miter" stroke="rgb(100%, 84.313725%, 0%)" stroke-opacity="1" stroke-miterlimit="10" d="M 744.648438 272.890625 L 755.347656 272.890625 L 755.347656 283.589844 L 744.648438 283.589844 Z M 744.648438 272.890625 "/>
<path fill-rule="nonzero" fill="rgb(100%, 84.313725%, 0%)" fill-opacity="1" stroke-width="1" stroke-linecap="butt" stroke-linejoin="miter" stroke="rgb(100%, 84.313725%, 0%)" stroke-opacity="1" stroke-miterlimit="10" d="M 44.648438 423.503906 L 55.347656 423.503906 L 55.347656 434.203125 L 44.648438 434.203125 Z M 44.648438 423.503906 "/>
<path fill-rule="nonzero" fill="rgb(99.215686%, 74.901961%, 43.529412%)" fill-opacity="1" stroke-width="1" stroke-linecap="butt" stroke-linejoin="miter" stroke="rgb(99.215686%, 74.901961%, 43.529412%)" stroke-opacity="1" stroke-miterlimit="10" d="M 64.734375 538.960938 C 64.734375 542.625 59.234375 542.625 59.234375 538.960938 C 59.234375 535.292969 64.734375 535.292969 64.734375 538.960938 "/>
</svg>
