<?xml version="1.0" encoding="UTF-8"?>
<svg xmlns="http://www.w3.org/2000/svg" xmlns:xlink="http://www.w3.org/1999/xlink" width="800" height="800" viewBox="0 0 800 800">
<rect x="-80" y="-80" width="960" height="960" fill="rgb(100%, 100%, 100%)" fill-opacity="1"/>
<path fill="none" stroke-width="2.5" stroke-linecap="butt" stroke-linejoin="miter" stroke="rgb(70.196078%, 70.196078%, 70.196078%)" stroke-opacity="1" stroke-miterlimit="10" d="M 577.679688 296.089844 C 594.5 287.601562 606.46875 274.476562 610.113281 256.027344 "/>
<path fill-rule="nonzero" fill="rgb(70.196078%, 70.196078%, 70.196078%)" fill-opacity="1" d="M 611.496094 249.03125 L 612.386719 256.476562 L 607.839844 255.578125 L 611.496094 249.03125 "/>
<path fill="none" stroke-width="2.5" stroke-linecap="butt" stroke-linejoin="miter" stroke="rgb(70.196078%, 70.196078%, 70.196078%)" stroke-opacity="1" stroke-miterlimit="10" d="M 299.3125 321.371094 C 286.3125 314.671875 272.480469 312.910156 259.359375 319.257812 "/>
<path fill-rule="nonzero" fill="rgb(70.196078%, 70.196078%, 70.196078%)" fill-opacity="1" d="M 252.9375 322.363281 L 258.351562 317.171875 L 260.371094 321.34375 L 252.9375 322.363281 "/>
<path fill="none" stroke-width="2.5" stroke-linecap="butt" stroke-linejoin="miter" stroke="rgb(70.196078%, 70.196078%, 70.196078%)" stroke-opacity="1" stroke-miterlimit="10" d="M 180 332.367188 C 168.933594 327.847656 157.421875 327.238281 147.320312 333.519531 "/>
<path fill-rule="nonzero" fill="rgb(70.196078%, 70.196078%, 70.196078%)" fill-opacity="1" d="M 141.261719 337.285156 L 146.09375 331.550781 L 148.542969 335.488281 L 141.261719 337.285156 "/>
<path fill="none" stroke-width="2.5" stroke-linecap="butt" stroke-linejoin="miter" stroke="rgb(70.196078%, 70.196078%, 70.196078%)" stroke-opacity="1" stroke-miterlimit="10" d="M 137.101562 339.875 C 126.828125 335.753906 116.113281 335.1875 106.847656 341.128906 "/>
<path fill-rule="nonzero" fill="rgb(70.196078%, 70.196078%, 70.196078%)" fill-opacity="1" d="M 100.84375 344.980469 L 105.597656 339.179688 L 108.097656 343.078125 L 100.84375 344.980469 "/>
<path fill="none" stroke-width="2.5" stroke-linecap="butt" stroke-linejoin="miter" stroke="rgb(70.196078%, 70.196078%, 70.196078%)" stroke-opacity="1" stroke-miterlimit="10" d="M 645.449219 195.917969 C 659.789062 189.332031 670.398438 178.746094 673.828125 163.386719 "/>
<path fill-rule="nonzero" fill="rgb(70.196078%, 70.196078%, 70.196078%)" fill-opacity="1" d="M 675.382812 156.425781 L 676.089844 163.894531 L 671.566406 162.882812 L 675.382812 156.425781 "/>
<path fill="none" stroke-width="1.5" stroke-linecap="butt" stroke-linejoin="miter" stroke="rgb(99.215686%, 74.901961%, 43.529412%)" stroke-opacity="1" stroke-miterlimit="10" d="M 378.871094 281.121094 C 372.9375 288.71875 369.726562 297.613281 372.605469 306.738281 "/>
<path fill-rule="nonzero" fill="rgb(99.215686%, 74.901961%, 43.529412%)" fill-opacity="1" d="M 374.75 313.542969 L 370.394531 307.4375 L 374.816406 306.042969 L 374.75 313.542969 "/>
<path fill="none" stroke-width="1.5" stroke-linecap="butt" stroke-linejoin="miter" stroke="rgb(12.156863%, 47.058824%, 70.588235%)" stroke-opacity="1" stroke-miterlimit="10" d="M 640.082031 620.234375 C 637.023438 639.601562 640.878906 657.640625 654.195312 671.980469 "/>
<path fill-rule="nonzero" fill="rgb(12.156863%, 47.058824%, 70.588235%)" fill-opacity="1" d="M 659.050781 677.210938 L 652.5 673.558594 L 655.894531 670.40625 L 659.050781 677.210938 "/>
<path fill="none" stroke-width="1.5" stroke-linecap="butt" stroke-linejoin="miter" stroke="rgb(99.215686%, 74.901961%, 43.529412%)" stroke-opacity="1" stroke-miterlimit="10" d="M 70.589844 368.035156 C 69.429688 364.078125 67.160156 360.070312 63.253906 359.464844 "/>
<path fill-rule="nonzero" fill="rgb(99.215686%, 74.901961%, 43.529412%)" fill-opacity="1" d="M 56.203125 358.378906 L 63.605469 357.175781 L 62.898438 361.757812 L 56.203125 358.378906 "/>
<path fill="none" stroke-width="2.5" stroke-linecap="butt" stroke-linejoin="miter" stroke="rgb(70.196078%, 70.196078%, 70.196078%)" stroke-opacity="1" stroke-miterlimit="10" d="M 487.105469 301.359375 C 482.027344 308.253906 479.277344 316.285156 482.171875 324.253906 "/>
<path fill-rule="nonzero" fill="rgb(70.196078%, 70.196078%, 70.196078%)" fill-opacity="1" d="M 484.601562 330.960938 L 479.992188 325.046875 L 484.347656 323.464844 L 484.601562 330.960938 "/>
<path fill="none" stroke-width="2.5" stroke-linecap="butt" stroke-linejoin="miter" stroke="rgb(70.196078%, 70.196078%, 70.196078%)" stroke-opacity="1" stroke-miterlimit="10" d="M 730.015625 77.28125 C 737.730469 74.832031 744.363281 70.230469 746.511719 62.515625 "/>
<path fill-rule="nonzero" fill="rgb(70.196078%, 70.196078%, 70.196078%)" fill-opacity="1" d="M 748.425781 55.644531 L 748.746094 63.140625 L 744.28125 61.894531 L 748.425781 55.644531 "/>
<path fill="none" stroke-width="1.5" stroke-linecap="butt" stroke-linejoin="miter" stroke="rgb(12.156863%, 47.058824%, 70.588235%)" stroke-opacity="1" stroke-miterlimit="10" d="M 593.253906 491.269531 C 590.199219 513.515625 595.164062 533.9375 610.609375 550.199219 "/>
<path fill-rule="nonzero" fill="rgb(12.156863%, 47.058824%, 70.588235%)" fill-opacity="1" d="M 615.519531 555.371094 L 608.929688 551.796875 L 612.289062 548.605469 L 615.519531 555.371094 "/>
<path fill="none" stroke-width="1.5" stroke-linecap="butt" stroke-linejoin="miter" stroke="rgb(12.156863%, 47.058824%, 70.588235%)" stroke-opacity="1" stroke-miterlimit="10" d="M 661.800781 680.167969 C 662.3125 691.179688 666.238281 701.09375 675.4375 707.0625 "/>
<path fill-rule="nonzero" fill="rgb(12.156863%, 47.058824%, 70.588235%)" fill-opacity="1" d="M 681.417969 710.945312 L 674.175781 709.007812 L 676.699219 705.121094 L 681.417969 710.945312 "/>
<path fill="none" stroke-width="1.5" stroke-linecap="butt" stroke-linejoin="miter" stroke="rgb(12.156863%, 47.058824%, 70.588235%)" stroke-opacity="1" stroke-miterlimit="10" d="M 687.371094 750 C 686.855469 743.117188 684.375 736.589844 678.355469 733.414062 "/>
<path fill-rule="nonzero" fill="rgb(12.156863%, 47.058824%, 70.588235%)" fill-opacity="1" d="M 672.046875 730.082031 L 679.4375 731.363281 L 677.273438 735.460938 L 672.046875 730.082031 "/>
<path fill="none" stroke-width="1.5" stroke-linecap="butt" stroke-linejoin="miter" stroke="rgb(99.215686%, 74.901961%, 43.529412%)" stroke-opacity="1" stroke-miterlimit="10" d="M 213.269531 338.730469 C 207.566406 332.730469 200.375 328.71875 192.308594 330.164062 "/>
<path fill-rule="nonzero" fill="rgb(99.215686%, 74.901961%, 43.529412%)" fill-opacity="1" d="M 185.289062 331.421875 L 191.902344 327.882812 L 192.71875 332.445312 L 185.289062 331.421875 "/>
<path fill="none" stroke-width="2.5" stroke-linecap="butt" stroke-linejoin="miter" stroke="rgb(70.196078%, 70.196078%, 70.196078%)" stroke-opacity="1" stroke-miterlimit="10" d="M 676.457031 151.628906 C 689.207031 146.128906 698.890625 137.054688 702.089844 123.597656 "/>
<path fill-rule="nonzero" fill="rgb(70.196078%, 70.196078%, 70.196078%)" fill-opacity="1" d="M 703.734375 116.65625 L 704.34375 124.132812 L 699.832031 123.0625 L 703.734375 116.65625 "/>
<path fill="none" stroke-width="1.5" stroke-linecap="butt" stroke-linejoin="miter" stroke="rgb(30.196078%, 68.627451%, 29.019608%)" stroke-opacity="1" stroke-miterlimit="10" d="M 68.546875 338.144531 C 63.171875 338.554688 57.789062 340.417969 55.597656 345.199219 "/>
<path fill-rule="nonzero" fill="rgb(30.196078%, 68.627451%, 29.019608%)" fill-opacity="1" d="M 52.628906 351.683594 L 53.492188 344.234375 L 57.707031 346.167969 L 52.628906 351.683594 "/>
<path fill="none" stroke-width="2.5" stroke-linecap="butt" stroke-linejoin="miter" stroke="rgb(70.196078%, 70.196078%, 70.196078%)" stroke-opacity="1" stroke-miterlimit="10" d="M 704.871094 111.878906 C 715.714844 107.566406 724.257812 100.210938 727.085938 88.953125 "/>
<path fill-rule="nonzero" fill="rgb(70.196078%, 70.196078%, 70.196078%)" fill-opacity="1" d="M 728.820312 82.035156 L 729.332031 89.515625 L 724.835938 88.386719 L 728.820312 82.035156 "/>
<path fill="none" stroke-width="1.5" stroke-linecap="butt" stroke-linejoin="miter" stroke="rgb(12.156863%, 47.058824%, 70.588235%)" stroke-opacity="1" stroke-miterlimit="10" d="M 683.765625 712.46875 C 679.085938 721.902344 677.722656 732.03125 682.675781 741.253906 "/>
<path fill-rule="nonzero" fill="rgb(12.156863%, 47.058824%, 70.588235%)" fill-opacity="1" d="M 686.050781 747.539062 L 680.632812 742.347656 L 684.71875 740.15625 L 686.050781 747.539062 "/>
<path fill="none" stroke-width="1.5" stroke-linecap="butt" stroke-linejoin="miter" stroke="rgb(99.215686%, 74.901961%, 43.529412%)" stroke-opacity="1" stroke-miterlimit="10" d="M 96.722656 347.625 C 87.871094 348.359375 79.804688 351.726562 75.472656 359.394531 "/>
<path fill-rule="nonzero" fill="rgb(99.215686%, 74.901961%, 43.529412%)" fill-opacity="1" d="M 71.964844 365.605469 L 73.457031 358.253906 L 77.492188 360.535156 L 71.964844 365.605469 "/>
<path fill="none" stroke-width="1.5" stroke-linecap="butt" stroke-linejoin="miter" stroke="rgb(30.196078%, 68.627451%, 29.019608%)" stroke-opacity="1" stroke-miterlimit="10" d="M 96.722656 347.625 C 92.148438 341.507812 85.984375 337.003906 78.445312 337.496094 "/>
<path fill-rule="nonzero" fill="rgb(30.196078%, 68.627451%, 29.019608%)" fill-opacity="1" d="M 71.328125 337.960938 L 78.296875 335.183594 L 78.597656 339.808594 L 71.328125 337.960938 "/>
<path fill="none" stroke-width="1.5" stroke-linecap="butt" stroke-linejoin="miter" stroke="rgb(30.196078%, 68.627451%, 29.019608%)" stroke-opacity="1" stroke-miterlimit="10" d="M 212.539062 316.535156 C 203.53125 315.152344 194.660156 316.574219 188.511719 323.195312 "/>
<path fill-rule="nonzero" fill="rgb(30.196078%, 68.627451%, 29.019608%)" fill-opacity="1" d="M 183.660156 328.425781 L 186.816406 321.621094 L 190.210938 324.773438 L 183.660156 328.425781 "/>
<path fill="none" stroke-width="1.5" stroke-linecap="butt" stroke-linejoin="miter" stroke="rgb(12.156863%, 47.058824%, 70.588235%)" stroke-opacity="1" stroke-miterlimit="10" d="M 669.582031 728.785156 C 674.816406 715.558594 675.210938 701.996094 667.789062 689.917969 "/>
<path fill-rule="nonzero" fill="rgb(12.156863%, 47.058824%, 70.588235%)" fill-opacity="1" d="M 664.054688 683.84375 L 669.765625 688.707031 L 665.816406 691.132812 L 664.054688 683.84375 "/>
<path fill="none" stroke-width="1.5" stroke-linecap="butt" stroke-linejoin="miter" stroke="rgb(12.156863%, 47.058824%, 70.588235%)" stroke-opacity="1" stroke-miterlimit="10" d="M 617.328125 557.273438 C 614.304688 578.304688 618.832031 597.699219 633.390625 613.136719 "/>
<path fill-rule="nonzero" fill="rgb(12.156863%, 47.058824%, 70.588235%)" fill-opacity="1" d="M 638.285156 618.324219 L 631.703125 614.726562 L 635.074219 611.546875 L 638.285156 618.324219 "/>
<path fill="none" stroke-width="1.5" stroke-linecap="butt" stroke-linejoin="miter" stroke="rgb(12.156863%, 47.058824%, 70.588235%)" stroke-opacity="1" stroke-miterlimit="10" d="M 567.871094 422.375 C 564.808594 445.785156 570.199219 467.183594 586.507812 484.21875 "/>
<path fill-rule="nonzero" fill="rgb(12.156863%, 47.058824%, 70.588235%)" fill-opacity="1" d="M 591.4375 489.371094 L 584.832031 485.820312 L 588.179688 482.617188 L 591.4375 489.371094 "/>
<path fill="none" stroke-width="1.5" stroke-linecap="butt" stroke-linejoin="miter" stroke="rgb(99.215686%, 74.901961%, 43.529412%)" stroke-opacity="1" stroke-miterlimit="10" d="M 248.515625 324.503906 C 238.03125 322.6875 227.839844 324.296875 220.324219 331.742188 "/>
<path fill-rule="nonzero" fill="rgb(99.215686%, 74.901961%, 43.529412%)" fill-opacity="1" d="M 215.257812 336.761719 L 218.691406 330.09375 L 221.953125 333.386719 L 215.257812 336.761719 "/>
<path fill="none" stroke-width="1.5" stroke-linecap="butt" stroke-linejoin="miter" stroke="rgb(30.196078%, 68.627451%, 29.019608%)" stroke-opacity="1" stroke-miterlimit="10" d="M 248.515625 324.503906 C 241.238281 317.332031 232.300781 312.972656 222.308594 314.773438 "/>
<path fill-rule="nonzero" fill="rgb(30.196078%, 68.627451%, 29.019608%)" fill-opacity="1" d="M 215.289062 316.039062 L 221.894531 312.492188 L 222.71875 317.054688 L 215.289062 316.039062 "/>
<path fill="none" stroke-width="2.5" stroke-linecap="butt" stroke-linejoin="miter" stroke="rgb(70.196078%, 70.196078%, 70.196078%)" stroke-opacity="1" stroke-miterlimit="10" d="M 541.421875 350.964844 C 559.210938 341.726562 571.710938 327.605469 575.433594 307.941406 "/>
<path fill-rule="nonzero" fill="rgb(70.196078%, 70.196078%, 70.196078%)" fill-opacity="1" d="M 576.761719 300.933594 L 577.710938 308.375 L 573.15625 307.511719 L 576.761719 300.933594 "/>
<path fill="none" stroke-width="1.5" stroke-linecap="butt" stroke-linejoin="miter" stroke="rgb(12.156863%, 47.058824%, 70.588235%)" stroke-opacity="1" stroke-miterlimit="10" d="M 541.421875 350.964844 C 538.328125 375.375 544.074219 397.621094 561.109375 415.339844 "/>
<path fill-rule="nonzero" fill="rgb(12.156863%, 47.058824%, 70.588235%)" fill-opacity="1" d="M 566.054688 420.480469 L 559.441406 416.945312 L 562.78125 413.734375 L 566.054688 420.480469 "/>
<path fill="none" stroke-width="1.5" stroke-linecap="butt" stroke-linejoin="miter" stroke="rgb(99.215686%, 74.901961%, 43.529412%)" stroke-opacity="1" stroke-miterlimit="10" d="M 336.660156 309.5 C 326.855469 306.683594 316.90625 307.09375 309.035156 313.480469 "/>
<path fill-rule="nonzero" fill="rgb(99.215686%, 74.901961%, 43.529412%)" fill-opacity="1" d="M 303.496094 317.972656 L 307.574219 311.679688 L 310.496094 315.28125 L 303.496094 317.972656 "/>
<path fill="none" stroke-width="1.5" stroke-linecap="butt" stroke-linejoin="miter" stroke="rgb(99.215686%, 74.901961%, 43.529412%)" stroke-opacity="1" stroke-miterlimit="10" d="M 376.367188 318.675781 C 367.960938 310.542969 357.730469 305.808594 346.261719 307.816406 "/>
<path fill-rule="nonzero" fill="rgb(99.215686%, 74.901961%, 43.529412%)" fill-opacity="1" d="M 339.234375 309.050781 L 345.863281 305.535156 L 346.660156 310.101562 L 339.234375 309.050781 "/>
<path fill="none" stroke-width="1.5" stroke-linecap="butt" stroke-linejoin="miter" stroke="rgb(30.196078%, 68.627451%, 29.019608%)" stroke-opacity="1" stroke-miterlimit="10" d="M 376.367188 318.675781 C 364.988281 315.695312 353.695312 316.601562 344.632812 324.015625 "/>
<path fill-rule="nonzero" fill="rgb(30.196078%, 68.627451%, 29.019608%)" fill-opacity="1" d="M 339.109375 328.53125 L 343.164062 322.222656 L 346.097656 325.808594 L 339.109375 328.53125 "/>
<path fill="none" stroke-width="2.5" stroke-linecap="butt" stroke-linejoin="miter" stroke="rgb(70.196078%, 70.196078%, 70.196078%)" stroke-opacity="1" stroke-miterlimit="10" d="M 612.453125 244.195312 C 628.101562 236.617188 639.429688 224.699219 642.980469 207.71875 "/>
<path fill-rule="nonzero" fill="rgb(70.196078%, 70.196078%, 70.196078%)" fill-opacity="1" d="M 644.441406 200.738281 L 645.25 208.191406 L 640.710938 207.242188 L 644.441406 200.738281 "/>
<path fill="none" stroke-width="3.5" stroke-linecap="butt" stroke-linejoin="miter" stroke="rgb(70.196078%, 70.196078%, 70.196078%)" stroke-opacity="1" stroke-miterlimit="10" d="M 486.4375 336.011719 C 498.308594 347.960938 512.800781 354.621094 529.464844 352.492188 "/>
<path fill-rule="nonzero" fill="rgb(70.196078%, 70.196078%, 70.196078%)" fill-opacity="1" d="M 536.539062 351.589844 L 529.757812 354.792969 L 529.171875 350.195312 L 536.539062 351.589844 "/>
<path fill="none" stroke-width="1.5" stroke-linecap="butt" stroke-linejoin="miter" stroke="rgb(30.196078%, 68.627451%, 29.019608%)" stroke-opacity="1" stroke-miterlimit="10" d="M 431.339844 327.304688 C 418.816406 317.050781 404.289062 312.050781 388.582031 315.78125 "/>
<path fill-rule="nonzero" fill="rgb(30.196078%, 68.627451%, 29.019608%)" fill-opacity="1" d="M 381.640625 317.425781 L 388.046875 313.523438 L 389.117188 318.035156 L 381.640625 317.425781 "/>
<path fill="none" stroke-width="1.5" stroke-linecap="butt" stroke-linejoin="miter" stroke="rgb(12.156863%, 47.058824%, 70.588235%)" stroke-opacity="1" stroke-miterlimit="10" d="M 431.339844 327.304688 C 443.894531 337.601562 458.460938 342.621094 474.21875 338.898438 "/>
<path fill-rule="nonzero" fill="rgb(12.156863%, 47.058824%, 70.588235%)" fill-opacity="1" d="M 481.160156 337.257812 L 474.753906 341.152344 L 473.6875 336.640625 L 481.160156 337.257812 "/>
<path fill="none" stroke-width="1.5" stroke-linecap="butt" stroke-linejoin="miter" stroke="rgb(30.196078%, 68.627451%, 29.019608%)" stroke-opacity="1" stroke-miterlimit="10" d="M 337.085938 330.1875 C 330.21875 322.839844 321.585938 318.136719 311.703125 319.570312 "/>
<path fill-rule="nonzero" fill="rgb(30.196078%, 68.627451%, 29.019608%)" fill-opacity="1" d="M 304.644531 320.59375 L 311.371094 317.277344 L 312.035156 321.863281 L 304.644531 320.59375 "/>
<path fill-rule="nonzero" fill="rgb(70.196078%, 70.196078%, 70.196078%)" fill-opacity="1" stroke-width="1" stroke-linecap="butt" stroke-linejoin="miter" stroke="rgb(70.196078%, 70.196078%, 70.196078%)" stroke-opacity="1" stroke-miterlimit="10" d="M 582.527344 296.089844 C 582.527344 302.558594 572.828125 302.558594 572.828125 296.089844 C 572.828125 289.625 582.527344 289.625 582.527344 296.089844 "/>
<path fill-rule="nonzero" fill="rgb(70.196078%, 70.196078%, 70.196078%)" fill-opacity="1" stroke-width="1" stroke-linecap="butt" stroke-linejoin="miter" stroke="rgb(70.196078%, 70.196078%, 70.196078%)" stroke-opacity="1" stroke-miterlimit="10" d="M 304.664062 321.371094 C 304.664062 328.503906 293.960938 328.503906 293.960938 321.371094 C 293.960938 314.234375 304.664062 314.234375 304.664062 321.371094 "/>
<path fill-rule="nonzero" fill="rgb(70.196078%, 70.196078%, 70.196078%)" fill-opacity="1" stroke-width="1" stroke-linecap="butt" stroke-linejoin="miter" stroke="rgb(70.196078%, 70.196078%, 70.196078%)" stroke-opacity="1" stroke-miterlimit="10" d="M 185.351562 332.367188 C 185.351562 339.5 174.652344 339.5 174.652344 332.367188 C 174.652344 325.234375 185.351562 325.234375 185.351562 332.367188 "/>
<path fill-rule="nonzero" fill="rgb(70.196078%, 70.196078%, 70.196078%)" fill-opacity="1" stroke-width="1" stroke-linecap="butt" stroke-linejoin="miter" stroke="rgb(70.196078%, 70.196078%, 70.196078%)" stroke-opacity="1" stroke-miterlimit="10" d="M 141.949219 339.875 C 141.949219 346.34375 132.25 346.34375 132.25 339.875 C 132.25 333.410156 141.949219 333.410156 141.949219 339.875 "/>
<path fill-rule="nonzero" fill="rgb(14.901961%, 14.901961%, 14.901961%)" fill-opacity="1" stroke-width="1" stroke-linecap="butt" stroke-linejoin="miter" stroke="rgb(14.901961%, 14.901961%, 14.901961%)" stroke-opacity="1" stroke-miterlimit="10" d="M 43.648438 363.769531 L 50 351.070312 L 56.351562 363.769531 Z M 43.648438 363.769531 "/>
<path fill-rule="nonzero" fill="rgb(70.196078%, 70.196078%, 70.196078%)" fill-opacity="1" stroke-width="1" stroke-linecap="butt" stroke-linejoin="miter" stroke="rgb(70.196078%, 70.196078%, 70.196078%)" stroke-opacity="1" stroke-miterlimit="10" d="M 650.296875 195.917969 C 650.296875 202.382812 640.597656 202.382812 640.597656 195.917969 C 640.597656 189.449219 650.296875 189.449219 650.296875 195.917969 "/>
<path fill-rule="nonzero" fill="rgb(100%, 84.313725%, 0%)" fill-opacity="1" stroke-width="1" stroke-linecap="butt" stroke-linejoin="miter" stroke="rgb(100%, 84.313725%, 0%)" stroke-opacity="1" stroke-miterlimit="10" d="M 375.621094 277.871094 L 382.121094 277.871094 L 382.121094 284.371094 L 375.621094 284.371094 Z M 375.621094 277.871094 "/>
<path fill-rule="nonzero" fill="rgb(12.156863%, 47.058824%, 70.588235%)" fill-opacity="1" stroke-width="1" stroke-linecap="butt" stroke-linejoin="miter" stroke="rgb(12.156863%, 47.058824%, 70.588235%)" stroke-opacity="1" stroke-miterlimit="10" d="M 642.832031 620.234375 C 642.832031 623.898438 637.332031 623.898438 637.332031 620.234375 C 637.332031 616.566406 642.832031 616.566406 642.832031 620.234375 "/>
<path fill-rule="nonzero" fill="rgb(99.215686%, 74.901961%, 43.529412%)" fill-opacity="1" stroke-width="1" stroke-linecap="butt" stroke-linejoin="miter" stroke="rgb(99.215686%, 74.901961%, 43.529412%)" stroke-opacity="1" stroke-miterlimit="10" d="M 73.339844 368.035156 C 73.339844 371.699219 67.839844 371.699219 67.839844 368.035156 C 67.839844 364.367188 73.339844 364.367188 73.339844 368.035156 "/>
<path fill-rule="nonzero" fill="rgb(100%, 84.313725%, 0%)" fill-opacity="1" stroke-width="1" stroke-linecap="butt" stroke-linejoin="miter" stroke="rgb(100%, 84.313725%, 0%)" stroke-opacity="1" stroke-miterlimit="10" d="M 481.753906 296.011719 L 492.453125 296.011719 L 492.453125 306.710938 L 481.753906 306.710938 Z M 481.753906 296.011719 "/>
<path fill-rule="nonzero" fill="rgb(70.196078%, 70.196078%, 70.196078%)" fill-opacity="1" stroke-width="1" stroke-linecap="butt" stroke-linejoin="miter" stroke="rgb(70.196078%, 70.196078%, 70.196078%)" stroke-opacity="1" stroke-miterlimit="10" d="M 734.867188 77.28125 C 734.867188 83.746094 725.164062 83.746094 725.164062 77.28125 C 725.164062 70.8125 734.867188 70.8125 734.867188 77.28125 "/>
<path fill-rule="nonzero" fill="rgb(12.156863%, 47.058824%, 70.588235%)" fill-opacity="1" stroke-width="1" stroke-linecap="butt" stroke-linejoin="miter" stroke="rgb(12.156863%, 47.058824%, 70.588235%)" stroke-opacity="1" stroke-miterlimit="10" d="M 596.003906 491.269531 C 596.003906 494.933594 590.503906 494.933594 590.503906 491.269531 C 590.503906 487.601562 596.003906 487.601562 596.003906 491.269531 "/>
<path fill-rule="nonzero" fill="rgb(14.901961%, 14.901961%, 14.901961%)" fill-opacity="1" stroke-width="1" stroke-linecap="butt" stroke-linejoin="miter" stroke="rgb(14.901961%, 14.901961%, 14.901961%)" stroke-opacity="1" stroke-miterlimit="10" d="M 657.550781 684.417969 L 661.800781 675.917969 L 666.050781 684.417969 Z M 657.550781 684.417969 "/>
<path fill-rule="nonzero" fill="rgb(12.156863%, 47.058824%, 70.588235%)" fill-opacity="1" stroke-width="1" stroke-linecap="butt" stroke-linejoin="miter" stroke="rgb(12.156863%, 47.058824%, 70.588235%)" stroke-opacity="1" stroke-miterlimit="10" d="M 690.121094 750 C 690.121094 753.667969 684.621094 753.667969 684.621094 750 C 684.621094 746.332031 690.121094 746.332031 690.121094 750 "/>
<path fill-rule="nonzero" fill="rgb(99.215686%, 74.901961%, 43.529412%)" fill-opacity="1" stroke-width="1" stroke-linecap="butt" stroke-linejoin="miter" stroke="rgb(99.215686%, 74.901961%, 43.529412%)" stroke-opacity="1" stroke-miterlimit="10" d="M 216.019531 338.730469 C 216.019531 342.394531 210.519531 342.394531 210.519531 338.730469 C 210.519531 335.0625 216.019531 335.0625 216.019531 338.730469 "/>
<path fill-rule="nonzero" fill="rgb(70.196078%, 70.196078%, 70.196078%)" fill-opacity="1" stroke-width="1" stroke-linecap="butt" stroke-linejoin="miter" stroke="rgb(70.196078%, 70.196078%, 70.196078%)" stroke-opacity="1" stroke-miterlimit="10" d="M 681.308594 151.628906 C 681.308594 158.09375 671.605469 158.09375 671.605469 151.628906 C 671.605469 145.160156 681.308594 145.160156 681.308594 151.628906 "/>
<path fill-rule="nonzero" fill="rgb(30.196078%, 68.627451%, 29.019608%)" fill-opacity="1" stroke-width="1" stroke-linecap="butt" stroke-linejoin="miter" stroke="rgb(30.196078%, 68.627451%, 29.019608%)" stroke-opacity="1" stroke-miterlimit="10" d="M 71.296875 338.144531 C 71.296875 341.8125 65.796875 341.8125 65.796875 338.144531 C 65.796875 334.476562 71.296875 334.476562 71.296875 338.144531 "/>
<path fill-rule="nonzero" fill="rgb(70.196078%, 70.196078%, 70.196078%)" fill-opacity="1" stroke-width="1" stroke-linecap="butt" stroke-linejoin="miter" stroke="rgb(70.196078%, 70.196078%, 70.196078%)" stroke-opacity="1" stroke-miterlimit="10" d="M 709.722656 111.878906 C 709.722656 118.34375 700.019531 118.34375 700.019531 111.878906 C 700.019531 105.414062 709.722656 105.414062 709.722656 111.878906 "/>
<path fill-rule="nonzero" fill="rgb(12.156863%, 47.058824%, 70.588235%)" fill-opacity="1" stroke-width="1" stroke-linecap="butt" stroke-linejoin="miter" stroke="rgb(12.156863%, 47.058824%, 70.588235%)" stroke-opacity="1" stroke-miterlimit="10" d="M 686.515625 712.46875 C 686.515625 716.136719 681.015625 716.136719 681.015625 712.46875 C 681.015625 708.804688 686.515625 708.804688 686.515625 712.46875 "/>
<path fill-rule="nonzero" fill="rgb(70.196078%, 70.196078%, 70.196078%)" fill-opacity="1" stroke-width="1" stroke-linecap="butt" stroke-linejoin="miter" stroke="rgb(70.196078%, 70.196078%, 70.196078%)" stroke-opacity="1" stroke-miterlimit="10" d="M 101.570312 347.625 C 101.570312 354.089844 91.871094 354.089844 91.871094 347.625 C 91.871094 341.15625 101.570312 341.15625 101.570312 347.625 "/>
<path fill-rule="nonzero" fill="rgb(14.901961%, 14.901961%, 14.901961%)" fill-opacity="1" stroke-width="1" stroke-linecap="butt" stroke-linejoin="miter" stroke="rgb(14.901961%, 14.901961%, 14.901961%)" stroke-opacity="1" stroke-miterlimit="10" d="M 744.148438 55.851562 L 750 44.148438 L 755.851562 55.851562 Z M 744.148438 55.851562 "/>
<path fill-rule="nonzero" fill="rgb(30.196078%, 68.627451%, 29.019608%)" fill-opacity="1" stroke-width="1" stroke-linecap="butt" stroke-linejoin="miter" stroke="rgb(30.196078%, 68.627451%, 29.019608%)" stroke-opacity="1" stroke-miterlimit="10" d="M 215.289062 316.535156 C 215.289062 320.203125 209.789062 320.203125 209.789062 316.535156 C 209.789062 312.871094 215.289062 312.871094 215.289062 316.535156 "/>
<path fill-rule="nonzero" fill="rgb(12.156863%, 47.058824%, 70.588235%)" fill-opacity="1" stroke-width="1" stroke-linecap="butt" stroke-linejoin="miter" stroke="rgb(12.156863%, 47.058824%, 70.588235%)" stroke-opacity="1" stroke-miterlimit="10" d="M 672.332031 728.785156 C 672.332031 732.449219 666.832031 732.449219 666.832031 728.785156 C 666.832031 725.117188 672.332031 725.117188 672.332031 728.785156 "/>
<path fill-rule="nonzero" fill="rgb(12.156863%, 47.058824%, 70.588235%)" fill-opacity="1" stroke-width="1" stroke-linecap="butt" stroke-linejoin="miter" stroke="rgb(12.156863%, 47.058824%, 70.588235%)" stroke-opacity="1" stroke-miterlimit="10" d="M 620.078125 557.273438 C 620.078125 560.941406 614.578125 560.941406 614.578125 557.273438 C 614.578125 553.605469 620.078125 553.605469 620.078125 557.273438 "/>
<path fill-rule="nonzero" fill="rgb(12.156863%, 47.058824%, 70.588235%)" fill-opacity="1" stroke-width="1" stroke-linecap="butt" stroke-linejoin="miter" stroke="rgb(12.156863%, 47.058824%, 70.588235%)" stroke-opacity="1" stroke-miterlimit="10" d="M 570.621094 422.375 C 570.621094 426.039062 565.121094 426.039062 565.121094 422.375 C 565.121094 418.707031 570.621094 418.707031 570.621094 422.375 "/>
<path fill-rule="nonzero" fill="rgb(70.196078%, 70.196078%, 70.196078%)" fill-opacity="1" stroke-width="1" stroke-linecap="butt" stroke-linejoin="miter" stroke="rgb(70.196078%, 70.196078%, 70.196078%)" stroke-opacity="1" stroke-miterlimit="10" d="M 253.367188 324.503906 C 253.367188 330.972656 243.664062 330.972656 243.664062 324.503906 C 243.664062 318.039062 253.367188 318.039062 253.367188 324.503906 "/>
<path fill-rule="nonzero" fill="rgb(70.196078%, 70.196078%, 70.196078%)" fill-opacity="1" stroke-width="1" stroke-linecap="butt" stroke-linejoin="miter" stroke="rgb(70.196078%, 70.196078%, 70.196078%)" stroke-opacity="1" stroke-miterlimit="10" d="M 546.273438 350.964844 C 546.273438 357.429688 536.570312 357.429688 536.570312 350.964844 C 536.570312 344.5 546.273438 344.5 546.273438 350.964844 "/>
<path fill-rule="nonzero" fill="rgb(99.215686%, 74.901961%, 43.529412%)" fill-opacity="1" stroke-width="1" stroke-linecap="butt" stroke-linejoin="miter" stroke="rgb(99.215686%, 74.901961%, 43.529412%)" stroke-opacity="1" stroke-miterlimit="10" d="M 339.410156 309.5 C 339.410156 313.167969 333.910156 313.167969 333.910156 309.5 C 333.910156 305.832031 339.410156 305.832031 339.410156 309.5 "/>
<path fill-rule="nonzero" fill="rgb(70.196078%, 70.196078%, 70.196078%)" fill-opacity="1" stroke-width="1" stroke-linecap="butt" stroke-linejoin="miter" stroke="rgb(70.196078%, 70.196078%, 70.196078%)" stroke-opacity="1" stroke-miterlimit="10" d="M 381.71875 318.675781 C 381.71875 325.8125 371.019531 325.8125 371.019531 318.675781 C 371.019531 311.542969 381.71875 311.542969 381.71875 318.675781 "/>
<path fill-rule="nonzero" fill="rgb(70.196078%, 70.196078%, 70.196078%)" fill-opacity="1" stroke-width="1" stroke-linecap="butt" stroke-linejoin="miter" stroke="rgb(70.196078%, 70.196078%, 70.196078%)" stroke-opacity="1" stroke-miterlimit="10" d="M 617.300781 244.195312 C 617.300781 250.664062 607.601562 250.664062 607.601562 244.195312 C 607.601562 237.730469 617.300781 237.730469 617.300781 244.195312 "/>
<path fill-rule="nonzero" fill="rgb(70.196078%, 70.196078%, 70.196078%)" fill-opacity="1" stroke-width="1" stroke-linecap="butt" stroke-linejoin="miter" stroke="rgb(70.196078%, 70.196078%, 70.196078%)" stroke-opacity="1" stroke-miterlimit="10" d="M 491.785156 336.011719 C 491.785156 343.144531 481.085938 343.144531 481.085938 336.011719 C 481.085938 328.878906 491.785156 328.878906 491.785156 336.011719 "/>
<path fill-rule="nonzero" fill="rgb(100%, 84.313725%, 0%)" fill-opacity="1" stroke-width="1" stroke-linecap="butt" stroke-linejoin="miter" stroke="rgb(100%, 84.313725%, 0%)" stroke-opacity="1" stroke-miterlimit="10" d="M 425.992188 321.953125 L 436.691406 321.953125 L 436.691406 332.652344 L 425.992188 332.652344 Z M 425.992188 321.953125 "/>
<path fill-rule="nonzero" fill="rgb(30.196078%, 68.627451%, 29.019608%)" fill-opacity="1" stroke-width="1" stroke-linecap="butt" stroke-linejoin="miter" stroke="rgb(30.196078%, 68.627451%, 29.019608%)" stroke-opacity="1" stroke-miterlimit="10" d="M 339.835938 330.1875 C 339.835938 333.855469 334.335938 333.855469 334.335938 330.1875 C 334.335938 326.519531 339.835938 326.519531 339.835938 330.1875 "/>
</svg>
