<?xml version="1.0" encoding="UTF-8"?>
<svg xmlns="http://www.w3.org/2000/svg" xmlns:xlink="http://www.w3.org/1999/xlink" width="800" height="800" viewBox="0 0 800 800">
<rect x="-80" y="-80" width="960" height="960" fill="rgb(100%, 100%, 100%)" fill-opacity="1"/>
<path fill="none" stroke-width="5.5" stroke-linecap="butt" stroke-linejoin="miter" stroke="rgb(70.196078%, 70.196078%, 70.196078%)" stroke-opacity="1" stroke-miterlimit="10" d="M 736.582031 101.703125 C 747.882812 89.832031 753.953125 75.5625 751.453125 59.402344 "/>
<path fill-rule="nonzero" fill="rgb(70.196078%, 70.196078%, 70.196078%)" fill-opacity="1" d="M 750.363281 52.355469 L 753.746094 59.050781 L 749.164062 59.757812 L 750.363281 52.355469 "/>
<path fill="none" stroke-width="5.5" stroke-linecap="butt" stroke-linejoin="miter" stroke="rgb(70.196078%, 70.196078%, 70.196078%)" stroke-opacity="1" stroke-miterlimit="10" d="M 720.183594 168.816406 C 734.851562 152.273438 741.96875 132.835938 738.203125 111.082031 "/>
<path fill-rule="nonzero" fill="rgb(70.196078%, 70.196078%, 70.196078%)" fill-opacity="1" d="M 736.988281 104.054688 L 740.488281 110.6875 L 735.921875 111.476562 L 736.988281 104.054688 "/>
<path fill="none" stroke-width="5.5" stroke-linecap="butt" stroke-linejoin="miter" stroke="rgb(70.196078%, 70.196078%, 70.196078%)" stroke-opacity="1" stroke-miterlimit="10" d="M 702 244.070312 C 718.496094 225.085938 726.21875 202.933594 721.84375 178.191406 "/>
<path fill-rule="nonzero" fill="rgb(70.196078%, 70.196078%, 70.196078%)" fill-opacity="1" d="M 720.597656 171.167969 L 724.125 177.789062 L 719.558594 178.597656 L 720.597656 171.167969 "/>
<path fill="none" stroke-width="5.5" stroke-linecap="butt" stroke-linejoin="miter" stroke="rgb(70.196078%, 70.196078%, 70.196078%)" stroke-opacity="1" stroke-miterlimit="10" d="M 682.550781 322.953125 C 700 302.945312 708.132812 279.585938 703.621094 253.453125 "/>
<path fill-rule="nonzero" fill="rgb(70.196078%, 70.196078%, 70.196078%)" fill-opacity="1" d="M 702.40625 246.421875 L 705.902344 253.058594 L 701.335938 253.847656 L 702.40625 246.421875 "/>
<path fill="none" stroke-width="5.5" stroke-linecap="butt" stroke-linejoin="miter" stroke="rgb(70.196078%, 70.196078%, 70.196078%)" stroke-opacity="1" stroke-miterlimit="10" d="M 662.144531 402.023438 C 679.902344 382.089844 688.324219 358.683594 684.070312 332.351562 "/>
<path fill-rule="nonzero" fill="rgb(70.196078%, 70.196078%, 70.196078%)" fill-opacity="1" d="M 682.933594 325.308594 L 686.359375 331.980469 L 681.78125 332.722656 L 682.933594 325.308594 "/>
<path fill="none" stroke-width="5.5" stroke-linecap="butt" stroke-linejoin="miter" stroke="rgb(70.196078%, 70.196078%, 70.196078%)" stroke-opacity="1" stroke-miterlimit="10" d="M 640.972656 478.324219 C 658.507812 459.410156 667.132812 436.960938 663.488281 411.449219 "/>
<path fill-rule="nonzero" fill="rgb(70.196078%, 70.196078%, 70.196078%)" fill-opacity="1" d="M 662.480469 404.386719 L 665.785156 411.121094 L 661.195312 411.777344 L 662.480469 404.386719 "/>
<path fill="none" stroke-width="5.5" stroke-linecap="butt" stroke-linejoin="miter" stroke="rgb(70.196078%, 70.196078%, 70.196078%)" stroke-opacity="1" stroke-miterlimit="10" d="M 619.199219 549.296875 C 636.046875 532.21875 644.785156 511.585938 642.054688 487.78125 "/>
<path fill-rule="nonzero" fill="rgb(70.196078%, 70.196078%, 70.196078%)" fill-opacity="1" d="M 641.246094 480.695312 L 644.359375 487.519531 L 639.753906 488.046875 L 641.246094 480.695312 "/>
<path fill="none" stroke-width="5.5" stroke-linecap="butt" stroke-linejoin="miter" stroke="rgb(70.196078%, 70.196078%, 70.196078%)" stroke-opacity="1" stroke-miterlimit="10" d="M 596.875 612.367188 C 612.574219 597.957031 621.363281 580.019531 619.867188 558.789062 "/>
<path fill-rule="nonzero" fill="rgb(70.196078%, 70.196078%, 70.196078%)" fill-opacity="1" d="M 619.367188 551.675781 L 622.179688 558.628906 L 617.554688 558.953125 L 619.367188 551.675781 "/>
<path fill="none" stroke-width="5.5" stroke-linecap="butt" stroke-linejoin="miter" stroke="rgb(70.196078%, 70.196078%, 70.196078%)" stroke-opacity="1" stroke-miterlimit="10" d="M 574.058594 665.59375 C 588.234375 654.449219 596.976562 639.875 596.910156 621.882812 "/>
<path fill-rule="nonzero" fill="rgb(70.196078%, 70.196078%, 70.196078%)" fill-opacity="1" d="M 596.882812 614.75 L 599.226562 621.875 L 594.589844 621.890625 L 596.882812 614.75 "/>
<path fill="none" stroke-width="5.5" stroke-linecap="butt" stroke-linejoin="miter" stroke="rgb(70.196078%, 70.196078%, 70.196078%)" stroke-opacity="1" stroke-miterlimit="10" d="M 362.566406 571.734375 C 360.894531 590.257812 365.664062 607.109375 379.191406 619.820312 "/>
<path fill-rule="nonzero" fill="rgb(70.196078%, 70.196078%, 70.196078%)" fill-opacity="1" d="M 384.386719 624.707031 L 377.601562 621.511719 L 380.777344 618.132812 L 384.386719 624.707031 "/>
<path fill="none" stroke-width="5.5" stroke-linecap="butt" stroke-linejoin="miter" stroke="rgb(70.196078%, 70.196078%, 70.196078%)" stroke-opacity="1" stroke-miterlimit="10" d="M 339.144531 510.96875 C 336.628906 531.476562 341.402344 550.261719 355.882812 564.957031 "/>
<path fill-rule="nonzero" fill="rgb(70.196078%, 70.196078%, 70.196078%)" fill-opacity="1" d="M 360.890625 570.035156 L 354.234375 566.582031 L 357.535156 563.328125 L 360.890625 570.035156 "/>
<path fill="none" stroke-width="5.5" stroke-linecap="butt" stroke-linejoin="miter" stroke="rgb(70.196078%, 70.196078%, 70.196078%)" stroke-opacity="1" stroke-miterlimit="10" d="M 315.867188 445.523438 C 312.679688 467.539062 317.449219 487.808594 332.636719 504.023438 "/>
<path fill-rule="nonzero" fill="rgb(70.196078%, 70.196078%, 70.196078%)" fill-opacity="1" d="M 337.515625 509.230469 L 330.945312 505.609375 L 334.328125 502.4375 L 337.515625 509.230469 "/>
<path fill="none" stroke-width="5.5" stroke-linecap="butt" stroke-linejoin="miter" stroke="rgb(70.196078%, 70.196078%, 70.196078%)" stroke-opacity="1" stroke-miterlimit="10" d="M 550.921875 707.292969 C 563.152344 699.875 571.664062 689.242188 573.101562 675.058594 "/>
<path fill-rule="nonzero" fill="rgb(70.196078%, 70.196078%, 70.196078%)" fill-opacity="1" d="M 573.820312 667.960938 L 575.40625 675.289062 L 570.796875 674.824219 L 573.820312 667.960938 "/>
<path fill="none" stroke-width="5.5" stroke-linecap="butt" stroke-linejoin="miter" stroke="rgb(70.196078%, 70.196078%, 70.196078%)" stroke-opacity="1" stroke-miterlimit="10" d="M 433.429688 710.171875 C 435.121094 719.667969 439.609375 727.957031 448.3125 731.964844 "/>
<path fill-rule="nonzero" fill="rgb(70.196078%, 70.196078%, 70.196078%)" fill-opacity="1" d="M 454.789062 734.949219 L 447.339844 734.070312 L 449.28125 729.859375 L 454.789062 734.949219 "/>
<path fill="none" stroke-width="5.5" stroke-linecap="butt" stroke-linejoin="miter" stroke="rgb(70.196078%, 70.196078%, 70.196078%)" stroke-opacity="1" stroke-miterlimit="10" d="M 527.699219 735.285156 C 537.359375 732.0625 545.265625 726.089844 548.183594 716.398438 "/>
<path fill-rule="nonzero" fill="rgb(70.196078%, 70.196078%, 70.196078%)" fill-opacity="1" d="M 550.238281 709.566406 L 550.402344 717.066406 L 545.964844 715.730469 L 550.238281 709.566406 "/>
<path fill="none" stroke-width="5.5" stroke-linecap="butt" stroke-linejoin="miter" stroke="rgb(70.196078%, 70.196078%, 70.196078%)" stroke-opacity="1" stroke-miterlimit="10" d="M 504.21875 750 C 511.199219 750.394531 518.070312 748.765625 522.082031 743.152344 "/>
<path fill-rule="nonzero" fill="rgb(70.196078%, 70.196078%, 70.196078%)" fill-opacity="1" d="M 526.226562 737.347656 L 523.964844 744.5 L 520.195312 741.804688 L 526.226562 737.347656 "/>
<path fill="none" stroke-width="5.5" stroke-linecap="butt" stroke-linejoin="miter" stroke="rgb(70.196078%, 70.196078%, 70.196078%)" stroke-opacity="1" stroke-miterlimit="10" d="M 480.710938 749.636719 C 484.964844 753.09375 490.203125 755.425781 495.207031 753.488281 "/>
<path fill-rule="nonzero" fill="rgb(70.196078%, 70.196078%, 70.196078%)" fill-opacity="1" d="M 501.859375 750.914062 L 496.046875 755.648438 L 494.371094 751.328125 L 501.859375 750.914062 "/>
<path fill="none" stroke-width="5.5" stroke-linecap="butt" stroke-linejoin="miter" stroke="rgb(70.196078%, 70.196078%, 70.196078%)" stroke-opacity="1" stroke-miterlimit="10" d="M 457.097656 736.011719 C 459.925781 742.230469 464.453125 747.457031 471.128906 748.351562 "/>
<path fill-rule="nonzero" fill="rgb(70.196078%, 70.196078%, 70.196078%)" fill-opacity="1" d="M 478.199219 749.300781 L 470.824219 750.648438 L 471.4375 746.054688 L 478.199219 749.300781 "/>
<path fill="none" stroke-width="5.5" stroke-linecap="butt" stroke-linejoin="miter" stroke="rgb(70.196078%, 70.196078%, 70.196078%)" stroke-opacity="1" stroke-miterlimit="10" d="M 409.761719 672.976562 C 410.261719 685.957031 414.898438 697.496094 425.578125 704.800781 "/>
<path fill-rule="nonzero" fill="rgb(70.196078%, 70.196078%, 70.196078%)" fill-opacity="1" d="M 431.464844 708.828125 L 424.269531 706.714844 L 426.886719 702.890625 L 431.464844 708.828125 "/>
<path fill="none" stroke-width="5.5" stroke-linecap="butt" stroke-linejoin="miter" stroke="rgb(70.196078%, 70.196078%, 70.196078%)" stroke-opacity="1" stroke-miterlimit="10" d="M 292.824219 377.484375 C 289.222656 400.3125 293.933594 421.402344 309.460938 438.480469 "/>
<path fill-rule="nonzero" fill="rgb(70.196078%, 70.196078%, 70.196078%)" fill-opacity="1" d="M 314.257812 443.757812 L 307.746094 440.039062 L 311.175781 436.921875 L 314.257812 443.757812 "/>
<path fill="none" stroke-width="5.5" stroke-linecap="butt" stroke-linejoin="miter" stroke="rgb(70.196078%, 70.196078%, 70.196078%)" stroke-opacity="1" stroke-miterlimit="10" d="M 269.953125 310.175781 C 266.398438 332.734375 271.054688 353.585938 286.414062 370.449219 "/>
<path fill-rule="nonzero" fill="rgb(70.196078%, 70.196078%, 70.196078%)" fill-opacity="1" d="M 291.21875 375.722656 L 284.699219 372.007812 L 288.128906 368.886719 L 291.21875 375.722656 "/>
<path fill="none" stroke-width="5.5" stroke-linecap="butt" stroke-linejoin="miter" stroke="rgb(70.196078%, 70.196078%, 70.196078%)" stroke-opacity="1" stroke-miterlimit="10" d="M 247.269531 246.546875 C 244.15625 267.867188 248.726562 287.53125 263.441406 303.230469 "/>
<path fill-rule="nonzero" fill="rgb(70.196078%, 70.196078%, 70.196078%)" fill-opacity="1" d="M 268.320312 308.433594 L 261.75 304.816406 L 265.132812 301.644531 L 268.320312 308.433594 "/>
<path fill="none" stroke-width="5.5" stroke-linecap="butt" stroke-linejoin="miter" stroke="rgb(70.196078%, 70.196078%, 70.196078%)" stroke-opacity="1" stroke-miterlimit="10" d="M 386.125 626.339844 C 385.484375 642.304688 390.207031 656.683594 402.453125 666.886719 "/>
<path fill-rule="nonzero" fill="rgb(70.196078%, 70.196078%, 70.196078%)" fill-opacity="1" d="M 407.933594 671.453125 L 400.96875 668.667969 L 403.933594 665.105469 L 407.933594 671.453125 "/>
<path fill="none" stroke-width="5.5" stroke-linecap="butt" stroke-linejoin="miter" stroke="rgb(70.196078%, 70.196078%, 70.196078%)" stroke-opacity="1" stroke-miterlimit="10" d="M 202.289062 145.296875 C 201.417969 160.746094 205.738281 174.777344 217.457031 184.820312 "/>
<path fill-rule="nonzero" fill="rgb(70.196078%, 70.196078%, 70.196078%)" fill-opacity="1" d="M 222.875 189.464844 L 215.949219 186.582031 L 218.964844 183.0625 L 222.875 189.464844 "/>
<path fill="none" stroke-width="5.5" stroke-linecap="butt" stroke-linejoin="miter" stroke="rgb(70.196078%, 70.196078%, 70.196078%)" stroke-opacity="1" stroke-miterlimit="10" d="M 180.117188 111.382812 C 180.578125 123.0625 184.707031 133.542969 194.382812 140.011719 "/>
<path fill-rule="nonzero" fill="rgb(70.196078%, 70.196078%, 70.196078%)" fill-opacity="1" d="M 200.3125 143.972656 L 193.09375 141.9375 L 195.671875 138.082031 L 200.3125 143.972656 "/>
<path fill="none" stroke-width="5.5" stroke-linecap="butt" stroke-linejoin="miter" stroke="rgb(70.196078%, 70.196078%, 70.196078%)" stroke-opacity="1" stroke-miterlimit="10" d="M 224.683594 191.011719 C 222.613281 209.671875 227.089844 226.765625 240.472656 239.882812 "/>
<path fill-rule="nonzero" fill="rgb(70.196078%, 70.196078%, 70.196078%)" fill-opacity="1" d="M 245.566406 244.878906 L 238.847656 241.539062 L 242.09375 238.230469 L 245.566406 244.878906 "/>
<path fill="none" stroke-width="5.5" stroke-linecap="butt" stroke-linejoin="miter" stroke="rgb(70.196078%, 70.196078%, 70.196078%)" stroke-opacity="1" stroke-miterlimit="10" d="M 158.246094 90.085938 C 159.882812 97.925781 163.761719 104.878906 171.128906 107.808594 "/>
<path fill-rule="nonzero" fill="rgb(70.196078%, 70.196078%, 70.196078%)" fill-opacity="1" d="M 177.757812 110.445312 L 170.273438 109.964844 L 171.984375 105.65625 L 177.757812 110.445312 "/>
<path fill="none" stroke-width="5.5" stroke-linecap="butt" stroke-linejoin="miter" stroke="rgb(70.196078%, 70.196078%, 70.196078%)" stroke-opacity="1" stroke-miterlimit="10" d="M 79.289062 114.320312 C 85.953125 112.71875 91.964844 109.25 94.125 102.839844 "/>
<path fill-rule="nonzero" fill="rgb(70.196078%, 70.196078%, 70.196078%)" fill-opacity="1" d="M 96.398438 96.078125 L 96.320312 103.578125 L 91.925781 102.097656 L 96.398438 96.078125 "/>
<path fill="none" stroke-width="5.5" stroke-linecap="butt" stroke-linejoin="miter" stroke="rgb(70.196078%, 70.196078%, 70.196078%)" stroke-opacity="1" stroke-miterlimit="10" d="M 63.210938 140.285156 C 70.515625 136.992188 76.46875 131.699219 77.738281 123.867188 "/>
<path fill-rule="nonzero" fill="rgb(70.196078%, 70.196078%, 70.196078%)" fill-opacity="1" d="M 78.882812 116.828125 L 80.027344 124.238281 L 75.453125 123.496094 L 78.882812 116.828125 "/>
<path fill="none" stroke-width="5.5" stroke-linecap="butt" stroke-linejoin="miter" stroke="rgb(70.196078%, 70.196078%, 70.196078%)" stroke-opacity="1" stroke-miterlimit="10" d="M 50 163.914062 C 56.121094 161.042969 61.257812 156.5 62.054688 149.882812 "/>
<path fill-rule="nonzero" fill="rgb(70.196078%, 70.196078%, 70.196078%)" fill-opacity="1" d="M 62.90625 142.800781 L 64.355469 150.15625 L 59.753906 149.605469 L 62.90625 142.800781 "/>
<path fill="none" stroke-width="5.5" stroke-linecap="butt" stroke-linejoin="miter" stroke="rgb(70.196078%, 70.196078%, 70.196078%)" stroke-opacity="1" stroke-miterlimit="10" d="M 116.40625 81.640625 C 119.972656 84.324219 124.4375 86.234375 128.320312 84.335938 "/>
<path fill-rule="nonzero" fill="rgb(70.196078%, 70.196078%, 70.196078%)" fill-opacity="1" d="M 134.730469 81.207031 L 129.335938 86.421875 L 127.300781 82.253906 L 134.730469 81.207031 "/>
<path fill="none" stroke-width="5.5" stroke-linecap="butt" stroke-linejoin="miter" stroke="rgb(70.196078%, 70.196078%, 70.196078%)" stroke-opacity="1" stroke-miterlimit="10" d="M 136.996094 80.101562 C 139.445312 84.996094 143.253906 89.269531 148.601562 89.5625 "/>
<path fill-rule="nonzero" fill="rgb(70.196078%, 70.196078%, 70.196078%)" fill-opacity="1" d="M 155.722656 89.949219 L 148.472656 91.875 L 148.726562 87.246094 L 155.722656 89.949219 "/>
<path fill="none" stroke-width="5.5" stroke-linecap="butt" stroke-linejoin="miter" stroke="rgb(70.196078%, 70.196078%, 70.196078%)" stroke-opacity="1" stroke-miterlimit="10" d="M 97.203125 93.675781 C 102.347656 94.300781 107.765625 93.554688 110.734375 89.460938 "/>
<path fill-rule="nonzero" fill="rgb(70.196078%, 70.196078%, 70.196078%)" fill-opacity="1" d="M 114.921875 83.6875 L 112.613281 90.820312 L 108.859375 88.097656 L 114.921875 83.6875 "/>
<path fill-rule="nonzero" fill="rgb(14.901961%, 14.901961%, 14.901961%)" fill-opacity="1" stroke-width="1" stroke-linecap="butt" stroke-linejoin="miter" stroke="rgb(14.901961%, 14.901961%, 14.901961%)" stroke-opacity="1" stroke-miterlimit="10" d="M 747.5 52.5 L 750 47.5 L 752.5 52.5 Z M 747.5 52.5 "/>
<path fill-rule="nonzero" fill="rgb(70.196078%, 70.196078%, 70.196078%)" fill-opacity="1" stroke-width="1" stroke-linecap="butt" stroke-linejoin="miter" stroke="rgb(70.196078%, 70.196078%, 70.196078%)" stroke-opacity="1" stroke-miterlimit="10" d="M 739.082031 101.703125 C 739.082031 105.035156 734.082031 105.035156 734.082031 101.703125 C 734.082031 98.367188 739.082031 98.367188 739.082031 101.703125 "/>
<path fill-rule="nonzero" fill="rgb(70.196078%, 70.196078%, 70.196078%)" fill-opacity="1" stroke-width="1" stroke-linecap="butt" stroke-linejoin="miter" stroke="rgb(70.196078%, 70.196078%, 70.196078%)" stroke-opacity="1" stroke-miterlimit="10" d="M 722.683594 168.816406 C 722.683594 172.152344 717.683594 172.152344 717.683594 168.816406 C 717.683594 165.484375 722.683594 165.484375 722.683594 168.816406 "/>
<path fill-rule="nonzero" fill="rgb(70.196078%, 70.196078%, 70.196078%)" fill-opacity="1" stroke-width="1" stroke-linecap="butt" stroke-linejoin="miter" stroke="rgb(70.196078%, 70.196078%, 70.196078%)" stroke-opacity="1" stroke-miterlimit="10" d="M 704.5 244.070312 C 704.5 247.402344 699.5 247.402344 699.5 244.070312 C 699.5 240.738281 704.5 240.738281 704.5 244.070312 "/>
<path fill-rule="nonzero" fill="rgb(70.196078%, 70.196078%, 70.196078%)" fill-opacity="1" stroke-width="1" stroke-linecap="butt" stroke-linejoin="miter" stroke="rgb(70.196078%, 70.196078%, 70.196078%)" stroke-opacity="1" stroke-miterlimit="10" d="M 685.050781 322.953125 C 685.050781 326.285156 680.050781 326.285156 680.050781 322.953125 C 680.050781 319.621094 685.050781 319.621094 685.050781 322.953125 "/>
<path fill-rule="nonzero" fill="rgb(70.196078%, 70.196078%, 70.196078%)" fill-opacity="1" stroke-width="1" stroke-linecap="butt" stroke-linejoin="miter" stroke="rgb(70.196078%, 70.196078%, 70.196078%)" stroke-opacity="1" stroke-miterlimit="10" d="M 664.644531 402.023438 C 664.644531 405.359375 659.644531 405.359375 659.644531 402.023438 C 659.644531 398.691406 664.644531 398.691406 664.644531 402.023438 "/>
<path fill-rule="nonzero" fill="rgb(70.196078%, 70.196078%, 70.196078%)" fill-opacity="1" stroke-width="1" stroke-linecap="butt" stroke-linejoin="miter" stroke="rgb(70.196078%, 70.196078%, 70.196078%)" stroke-opacity="1" stroke-miterlimit="10" d="M 643.472656 478.324219 C 643.472656 481.660156 638.472656 481.660156 638.472656 478.324219 C 638.472656 474.992188 643.472656 474.992188 643.472656 478.324219 "/>
<path fill-rule="nonzero" fill="rgb(70.196078%, 70.196078%, 70.196078%)" fill-opacity="1" stroke-width="1" stroke-linecap="butt" stroke-linejoin="miter" stroke="rgb(70.196078%, 70.196078%, 70.196078%)" stroke-opacity="1" stroke-miterlimit="10" d="M 621.699219 549.296875 C 621.699219 552.628906 616.699219 552.628906 616.699219 549.296875 C 616.699219 545.960938 621.699219 545.960938 621.699219 549.296875 "/>
<path fill-rule="nonzero" fill="rgb(70.196078%, 70.196078%, 70.196078%)" fill-opacity="1" stroke-width="1" stroke-linecap="butt" stroke-linejoin="miter" stroke="rgb(70.196078%, 70.196078%, 70.196078%)" stroke-opacity="1" stroke-miterlimit="10" d="M 599.375 612.367188 C 599.375 615.699219 594.375 615.699219 594.375 612.367188 C 594.375 609.03125 599.375 609.03125 599.375 612.367188 "/>
<path fill-rule="nonzero" fill="rgb(70.196078%, 70.196078%, 70.196078%)" fill-opacity="1" stroke-width="1" stroke-linecap="butt" stroke-linejoin="miter" stroke="rgb(70.196078%, 70.196078%, 70.196078%)" stroke-opacity="1" stroke-miterlimit="10" d="M 576.558594 665.59375 C 576.558594 668.925781 571.558594 668.925781 571.558594 665.59375 C 571.558594 662.257812 576.558594 662.257812 576.558594 665.59375 "/>
<path fill-rule="nonzero" fill="rgb(70.196078%, 70.196078%, 70.196078%)" fill-opacity="1" stroke-width="1" stroke-linecap="butt" stroke-linejoin="miter" stroke="rgb(70.196078%, 70.196078%, 70.196078%)" stroke-opacity="1" stroke-miterlimit="10" d="M 365.066406 571.734375 C 365.066406 575.070312 360.066406 575.070312 360.066406 571.734375 C 360.066406 568.402344 365.066406 568.402344 365.066406 571.734375 "/>
<path fill-rule="nonzero" fill="rgb(70.196078%, 70.196078%, 70.196078%)" fill-opacity="1" stroke-width="1" stroke-linecap="butt" stroke-linejoin="miter" stroke="rgb(70.196078%, 70.196078%, 70.196078%)" stroke-opacity="1" stroke-miterlimit="10" d="M 341.644531 510.96875 C 341.644531 514.304688 336.644531 514.304688 336.644531 510.96875 C 336.644531 507.636719 341.644531 507.636719 341.644531 510.96875 "/>
<path fill-rule="nonzero" fill="rgb(70.196078%, 70.196078%, 70.196078%)" fill-opacity="1" stroke-width="1" stroke-linecap="butt" stroke-linejoin="miter" stroke="rgb(70.196078%, 70.196078%, 70.196078%)" stroke-opacity="1" stroke-miterlimit="10" d="M 318.367188 445.523438 C 318.367188 448.855469 313.367188 448.855469 313.367188 445.523438 C 313.367188 442.191406 318.367188 442.191406 318.367188 445.523438 "/>
<path fill-rule="nonzero" fill="rgb(70.196078%, 70.196078%, 70.196078%)" fill-opacity="1" stroke-width="1" stroke-linecap="butt" stroke-linejoin="miter" stroke="rgb(70.196078%, 70.196078%, 70.196078%)" stroke-opacity="1" stroke-miterlimit="10" d="M 553.421875 707.292969 C 553.421875 710.625 548.421875 710.625 548.421875 707.292969 C 548.421875 703.960938 553.421875 703.960938 553.421875 707.292969 "/>
<path fill-rule="nonzero" fill="rgb(70.196078%, 70.196078%, 70.196078%)" fill-opacity="1" stroke-width="1" stroke-linecap="butt" stroke-linejoin="miter" stroke="rgb(70.196078%, 70.196078%, 70.196078%)" stroke-opacity="1" stroke-miterlimit="10" d="M 435.929688 710.171875 C 435.929688 713.507812 430.929688 713.507812 430.929688 710.171875 C 430.929688 706.839844 435.929688 706.839844 435.929688 710.171875 "/>
<path fill-rule="nonzero" fill="rgb(70.196078%, 70.196078%, 70.196078%)" fill-opacity="1" stroke-width="1" stroke-linecap="butt" stroke-linejoin="miter" stroke="rgb(70.196078%, 70.196078%, 70.196078%)" stroke-opacity="1" stroke-miterlimit="10" d="M 530.199219 735.285156 C 530.199219 738.617188 525.199219 738.617188 525.199219 735.285156 C 525.199219 731.949219 530.199219 731.949219 530.199219 735.285156 "/>
<path fill-rule="nonzero" fill="rgb(70.196078%, 70.196078%, 70.196078%)" fill-opacity="1" stroke-width="1" stroke-linecap="butt" stroke-linejoin="miter" stroke="rgb(70.196078%, 70.196078%, 70.196078%)" stroke-opacity="1" stroke-miterlimit="10" d="M 506.71875 750 C 506.71875 753.332031 501.71875 753.332031 501.71875 750 C 501.71875 746.667969 506.71875 746.667969 506.71875 750 "/>
<path fill-rule="nonzero" fill="rgb(70.196078%, 70.196078%, 70.196078%)" fill-opacity="1" stroke-width="1" stroke-linecap="butt" stroke-linejoin="miter" stroke="rgb(70.196078%, 70.196078%, 70.196078%)" stroke-opacity="1" stroke-miterlimit="10" d="M 483.210938 749.636719 C 483.210938 752.96875 478.210938 752.96875 478.210938 749.636719 C 478.210938 746.300781 483.210938 746.300781 483.210938 749.636719 "/>
<path fill-rule="nonzero" fill="rgb(70.196078%, 70.196078%, 70.196078%)" fill-opacity="1" stroke-width="1" stroke-linecap="butt" stroke-linejoin="miter" stroke="rgb(70.196078%, 70.196078%, 70.196078%)" stroke-opacity="1" stroke-miterlimit="10" d="M 459.597656 736.011719 C 459.597656 739.34375 454.597656 739.34375 454.597656 736.011719 C 454.597656 732.679688 459.597656 732.679688 459.597656 736.011719 "/>
<path fill-rule="nonzero" fill="rgb(70.196078%, 70.196078%, 70.196078%)" fill-opacity="1" stroke-width="1" stroke-linecap="butt" stroke-linejoin="miter" stroke="rgb(70.196078%, 70.196078%, 70.196078%)" stroke-opacity="1" stroke-miterlimit="10" d="M 412.261719 672.976562 C 412.261719 676.308594 407.261719 676.308594 407.261719 672.976562 C 407.261719 669.644531 412.261719 669.644531 412.261719 672.976562 "/>
<path fill-rule="nonzero" fill="rgb(70.196078%, 70.196078%, 70.196078%)" fill-opacity="1" stroke-width="1" stroke-linecap="butt" stroke-linejoin="miter" stroke="rgb(70.196078%, 70.196078%, 70.196078%)" stroke-opacity="1" stroke-miterlimit="10" d="M 295.324219 377.484375 C 295.324219 380.820312 290.324219 380.820312 290.324219 377.484375 C 290.324219 374.152344 295.324219 374.152344 295.324219 377.484375 "/>
<path fill-rule="nonzero" fill="rgb(70.196078%, 70.196078%, 70.196078%)" fill-opacity="1" stroke-width="1" stroke-linecap="butt" stroke-linejoin="miter" stroke="rgb(70.196078%, 70.196078%, 70.196078%)" stroke-opacity="1" stroke-miterlimit="10" d="M 272.453125 310.175781 C 272.453125 313.507812 267.453125 313.507812 267.453125 310.175781 C 267.453125 306.84375 272.453125 306.84375 272.453125 310.175781 "/>
<path fill-rule="nonzero" fill="rgb(70.196078%, 70.196078%, 70.196078%)" fill-opacity="1" stroke-width="1" stroke-linecap="butt" stroke-linejoin="miter" stroke="rgb(70.196078%, 70.196078%, 70.196078%)" stroke-opacity="1" stroke-miterlimit="10" d="M 249.769531 246.546875 C 249.769531 249.878906 244.769531 249.878906 244.769531 246.546875 C 244.769531 243.214844 249.769531 243.214844 249.769531 246.546875 "/>
<path fill-rule="nonzero" fill="rgb(70.196078%, 70.196078%, 70.196078%)" fill-opacity="1" stroke-width="1" stroke-linecap="butt" stroke-linejoin="miter" stroke="rgb(70.196078%, 70.196078%, 70.196078%)" stroke-opacity="1" stroke-miterlimit="10" d="M 388.625 626.339844 C 388.625 629.671875 383.625 629.671875 383.625 626.339844 C 383.625 623.007812 388.625 623.007812 388.625 626.339844 "/>
<path fill-rule="nonzero" fill="rgb(70.196078%, 70.196078%, 70.196078%)" fill-opacity="1" stroke-width="1" stroke-linecap="butt" stroke-linejoin="miter" stroke="rgb(70.196078%, 70.196078%, 70.196078%)" stroke-opacity="1" stroke-miterlimit="10" d="M 204.789062 145.296875 C 204.789062 148.628906 199.789062 148.628906 199.789062 145.296875 C 199.789062 141.960938 204.789062 141.960938 204.789062 145.296875 "/>
<path fill-rule="nonzero" fill="rgb(70.196078%, 70.196078%, 70.196078%)" fill-opacity="1" stroke-width="1" stroke-linecap="butt" stroke-linejoin="miter" stroke="rgb(70.196078%, 70.196078%, 70.196078%)" stroke-opacity="1" stroke-miterlimit="10" d="M 182.617188 111.382812 C 182.617188 114.714844 177.617188 114.714844 177.617188 111.382812 C 177.617188 108.046875 182.617188 108.046875 182.617188 111.382812 "/>
<path fill-rule="nonzero" fill="rgb(70.196078%, 70.196078%, 70.196078%)" fill-opacity="1" stroke-width="1" stroke-linecap="butt" stroke-linejoin="miter" stroke="rgb(70.196078%, 70.196078%, 70.196078%)" stroke-opacity="1" stroke-miterlimit="10" d="M 227.183594 191.011719 C 227.183594 194.347656 222.183594 194.347656 222.183594 191.011719 C 222.183594 187.679688 227.183594 187.679688 227.183594 191.011719 "/>
<path fill-rule="nonzero" fill="rgb(70.196078%, 70.196078%, 70.196078%)" fill-opacity="1" stroke-width="1" stroke-linecap="butt" stroke-linejoin="miter" stroke="rgb(70.196078%, 70.196078%, 70.196078%)" stroke-opacity="1" stroke-miterlimit="10" d="M 160.746094 90.085938 C 160.746094 93.417969 155.746094 93.417969 155.746094 90.085938 C 155.746094 86.753906 160.746094 86.753906 160.746094 90.085938 "/>
<path fill-rule="nonzero" fill="rgb(70.196078%, 70.196078%, 70.196078%)" fill-opacity="1" stroke-width="1" stroke-linecap="butt" stroke-linejoin="miter" stroke="rgb(70.196078%, 70.196078%, 70.196078%)" stroke-opacity="1" stroke-miterlimit="10" d="M 81.789062 114.320312 C 81.789062 117.65625 76.789062 117.65625 76.789062 114.320312 C 76.789062 110.988281 81.789062 110.988281 81.789062 114.320312 "/>
<path fill-rule="nonzero" fill="rgb(70.196078%, 70.196078%, 70.196078%)" fill-opacity="1" stroke-width="1" stroke-linecap="butt" stroke-linejoin="miter" stroke="rgb(70.196078%, 70.196078%, 70.196078%)" stroke-opacity="1" stroke-miterlimit="10" d="M 65.710938 140.285156 C 65.710938 143.617188 60.710938 143.617188 60.710938 140.285156 C 60.710938 136.949219 65.710938 136.949219 65.710938 140.285156 "/>
<path fill-rule="nonzero" fill="rgb(100%, 84.313725%, 0%)" fill-opacity="1" stroke-width="1" stroke-linecap="butt" stroke-linejoin="miter" stroke="rgb(100%, 84.313725%, 0%)" stroke-opacity="1" stroke-miterlimit="10" d="M 47.5 161.414062 L 52.5 161.414062 L 52.5 166.414062 L 47.5 166.414062 Z M 47.5 161.414062 "/>
<path fill-rule="nonzero" fill="rgb(70.196078%, 70.196078%, 70.196078%)" fill-opacity="1" stroke-width="1" stroke-linecap="butt" stroke-linejoin="miter" stroke="rgb(70.196078%, 70.196078%, 70.196078%)" stroke-opacity="1" stroke-miterlimit="10" d="M 118.90625 81.640625 C 118.90625 84.972656 113.90625 84.972656 113.90625 81.640625 C 113.90625 78.308594 118.90625 78.308594 118.90625 81.640625 "/>
<path fill-rule="nonzero" fill="rgb(70.196078%, 70.196078%, 70.196078%)" fill-opacity="1" stroke-width="1" stroke-linecap="butt" stroke-linejoin="miter" stroke="rgb(70.196078%, 70.196078%, 70.196078%)" stroke-opacity="1" stroke-miterlimit="10" d="M 139.496094 80.101562 C 139.496094 83.433594 134.496094 83.433594 134.496094 80.101562 C 134.496094 76.765625 139.496094 76.765625 139.496094 80.101562 "/>
<path fill-rule="nonzero" fill="rgb(70.196078%, 70.196078%, 70.196078%)" fill-opacity="1" stroke-width="1" stroke-linecap="butt" stroke-linejoin="miter" stroke="rgb(70.196078%, 70.196078%, 70.196078%)" stroke-opacity="1" stroke-miterlimit="10" d="M 99.703125 93.675781 C 99.703125 97.007812 94.703125 97.007812 94.703125 93.675781 C 94.703125 90.339844 99.703125 90.339844 99.703125 93.675781 "/>
</svg>
