<?xml version="1.0" encoding="UTF-8"?>
<svg xmlns="http://www.w3.org/2000/svg" xmlns:xlink="http://www.w3.org/1999/xlink" width="800" height="800" viewBox="0 0 800 800">
<rect x="-80" y="-80" width="960" height="960" fill="rgb(100%, 100%, 100%)" fill-opacity="1"/>
<path fill="none" stroke-width="1.5" stroke-linecap="butt" stroke-linejoin="miter" stroke="rgb(99.215686%, 74.901961%, 43.529412%)" stroke-opacity="1" stroke-miterlimit="10" d="M 528.023438 100.730469 C 545.570312 98.835938 560.484375 91.320312 569.679688 76.300781 "/>
<path fill-rule="nonzero" fill="rgb(99.215686%, 74.901961%, 43.529412%)" fill-opacity="1" d="M 573.402344 70.214844 L 571.65625 77.511719 L 567.699219 75.089844 L 573.402344 70.214844 "/>
<path fill="none" stroke-width="1.5" stroke-linecap="butt" stroke-linejoin="miter" stroke="rgb(30.196078%, 68.627451%, 29.019608%)" stroke-opacity="1" stroke-miterlimit="10" d="M 612.257812 134.554688 C 613.019531 110.441406 605.414062 89.1875 587.085938 73.550781 "/>
<path fill-rule="nonzero" fill="rgb(30.196078%, 68.627451%, 29.019608%)" fill-opacity="1" d="M 581.660156 68.921875 L 588.589844 71.785156 L 585.582031 75.3125 L 581.660156 68.921875 "/>
<path fill="none" stroke-width="1.5" stroke-linecap="butt" stroke-linejoin="miter" stroke="rgb(99.215686%, 74.901961%, 43.529412%)" stroke-opacity="1" stroke-miterlimit="10" d="M 612.257812 134.554688 C 592.550781 112.007812 567.6875 99.5 537.777344 100.429688 "/>
<path fill-rule="nonzero" fill="rgb(99.215686%, 74.901961%, 43.529412%)" fill-opacity="1" d="M 530.648438 100.648438 L 537.707031 98.113281 L 537.847656 102.746094 L 530.648438 100.648438 "/>
<path fill="none" stroke-width="1.5" stroke-linecap="butt" stroke-linejoin="miter" stroke="rgb(41.568627%, 23.921569%, 60.392157%)" stroke-opacity="1" stroke-miterlimit="10" d="M 316.648438 308.988281 C 297.265625 296.78125 276.207031 292.8125 254.585938 300.292969 "/>
<path fill-rule="nonzero" fill="rgb(41.568627%, 23.921569%, 60.392157%)" fill-opacity="1" d="M 247.847656 302.625 L 253.828125 298.101562 L 255.34375 302.480469 L 247.847656 302.625 "/>
<path fill="none" stroke-width="1.5" stroke-linecap="butt" stroke-linejoin="miter" stroke="rgb(98.431373%, 60.392157%, 60%)" stroke-opacity="1" stroke-miterlimit="10" d="M 316.648438 308.988281 C 284.386719 323.660156 261.898438 347.625 252.636719 381.816406 "/>
<path fill-rule="nonzero" fill="rgb(98.431373%, 60.392157%, 60%)" fill-opacity="1" d="M 250.769531 388.699219 L 250.398438 381.210938 L 254.871094 382.421875 L 250.769531 388.699219 "/>
<path fill="none" stroke-width="2.5" stroke-linecap="butt" stroke-linejoin="miter" stroke="rgb(70.196078%, 70.196078%, 70.196078%)" stroke-opacity="1" stroke-miterlimit="10" d="M 414.539062 289.4375 C 383.203125 280.496094 353.128906 283.820312 326.320312 302.3125 "/>
<path fill-rule="nonzero" fill="rgb(70.196078%, 70.196078%, 70.196078%)" fill-opacity="1" d="M 320.449219 306.363281 L 325.003906 300.40625 L 327.636719 304.21875 L 320.449219 306.363281 "/>
<path fill="none" stroke-width="1.5" stroke-linecap="butt" stroke-linejoin="miter" stroke="rgb(41.568627%, 23.921569%, 60.392157%)" stroke-opacity="1" stroke-miterlimit="10" d="M 245.367188 303.480469 C 233.089844 329.671875 231.609375 356.5625 244.136719 382.605469 "/>
<path fill-rule="nonzero" fill="rgb(41.568627%, 23.921569%, 60.392157%)" fill-opacity="1" d="M 247.230469 389.03125 L 242.050781 383.609375 L 246.226562 381.601562 L 247.230469 389.03125 "/>
<path fill="none" stroke-width="1.5" stroke-linecap="butt" stroke-linejoin="miter" stroke="rgb(41.568627%, 23.921569%, 60.392157%)" stroke-opacity="1" stroke-miterlimit="10" d="M 249.4375 393.621094 C 237.390625 429.578125 239.867188 464.582031 259.753906 496.851562 "/>
<path fill-rule="nonzero" fill="rgb(41.568627%, 23.921569%, 60.392157%)" fill-opacity="1" d="M 263.496094 502.921875 L 257.78125 498.066406 L 261.726562 495.636719 L 263.496094 502.921875 "/>
<path fill="none" stroke-width="1.5" stroke-linecap="butt" stroke-linejoin="miter" stroke="rgb(98.431373%, 60.392157%, 60%)" stroke-opacity="1" stroke-miterlimit="10" d="M 249.4375 393.621094 C 221.570312 380.902344 193.140625 379.738281 165.640625 393.175781 "/>
<path fill-rule="nonzero" fill="rgb(98.431373%, 60.392157%, 60%)" fill-opacity="1" d="M 159.234375 396.308594 L 164.625 391.09375 L 166.660156 395.257812 L 159.234375 396.308594 "/>
<path fill="none" stroke-width="1.5" stroke-linecap="butt" stroke-linejoin="miter" stroke="rgb(41.568627%, 23.921569%, 60.392157%)" stroke-opacity="1" stroke-miterlimit="10" d="M 264.878906 505.160156 C 259.328125 534.125 264.664062 561.03125 283.546875 583.65625 "/>
<path fill-rule="nonzero" fill="rgb(41.568627%, 23.921569%, 60.392157%)" fill-opacity="1" d="M 288.117188 589.128906 L 281.769531 585.140625 L 285.328125 582.167969 L 288.117188 589.128906 "/>
<path fill="none" stroke-width="1.5" stroke-linecap="butt" stroke-linejoin="miter" stroke="rgb(98.431373%, 60.392157%, 60%)" stroke-opacity="1" stroke-miterlimit="10" d="M 156.875 397.460938 C 135.796875 379.175781 111.226562 370.71875 83.761719 375.507812 "/>
<path fill-rule="nonzero" fill="rgb(98.431373%, 60.392157%, 60%)" fill-opacity="1" d="M 76.734375 376.730469 L 83.363281 373.222656 L 84.160156 377.789062 L 76.734375 376.730469 "/>
<path fill="none" stroke-width="1.5" stroke-linecap="butt" stroke-linejoin="miter" stroke="rgb(98.431373%, 60.392157%, 60%)" stroke-opacity="1" stroke-miterlimit="10" d="M 574.660156 453.835938 C 551.828125 468.28125 537.0625 488.695312 533.910156 515.503906 "/>
<path fill-rule="nonzero" fill="rgb(98.431373%, 60.392157%, 60%)" fill-opacity="1" d="M 533.074219 522.585938 L 531.609375 515.230469 L 536.210938 515.773438 L 533.074219 522.585938 "/>
<path fill="none" stroke-width="1.5" stroke-linecap="butt" stroke-linejoin="miter" stroke="rgb(41.568627%, 23.921569%, 60.392157%)" stroke-opacity="1" stroke-miterlimit="10" d="M 574.660156 453.835938 C 589.742188 421.167969 591.082031 387.867188 575.609375 355.402344 "/>
<path fill-rule="nonzero" fill="rgb(41.568627%, 23.921569%, 60.392157%)" fill-opacity="1" d="M 572.542969 348.960938 L 577.703125 354.402344 L 573.519531 356.398438 L 572.542969 348.960938 "/>
<path fill="none" stroke-width="1.5" stroke-linecap="butt" stroke-linejoin="miter" stroke="rgb(98.431373%, 60.392157%, 60%)" stroke-opacity="1" stroke-miterlimit="10" d="M 433.433594 385.34375 C 442.304688 354.941406 439.289062 325.667969 421.4375 299.535156 "/>
<path fill-rule="nonzero" fill="rgb(98.431373%, 60.392157%, 60%)" fill-opacity="1" d="M 417.414062 293.644531 L 423.351562 298.226562 L 419.523438 300.839844 L 417.414062 293.644531 "/>
<path fill="none" stroke-width="1.5" stroke-linecap="butt" stroke-linejoin="miter" stroke="rgb(98.431373%, 60.392157%, 60%)" stroke-opacity="1" stroke-miterlimit="10" d="M 460.011719 477.976562 C 466 446.550781 460.089844 417.453125 439.667969 392.851562 "/>
<path fill-rule="nonzero" fill="rgb(98.431373%, 60.392157%, 60%)" fill-opacity="1" d="M 435.113281 387.363281 L 441.453125 391.371094 L 437.886719 394.332031 L 435.113281 387.363281 "/>
<path fill="none" stroke-width="2.5" stroke-linecap="butt" stroke-linejoin="miter" stroke="rgb(70.196078%, 70.196078%, 70.196078%)" stroke-opacity="1" stroke-miterlimit="10" d="M 532.480469 527.640625 C 555.410156 513.054688 570.1875 492.476562 573.308594 465.507812 "/>
<path fill-rule="nonzero" fill="rgb(70.196078%, 70.196078%, 70.196078%)" fill-opacity="1" d="M 574.128906 458.421875 L 575.613281 465.773438 L 571.007812 465.242188 L 574.128906 458.421875 "/>
<path fill="none" stroke-width="1.5" stroke-linecap="butt" stroke-linejoin="miter" stroke="rgb(98.431373%, 60.392157%, 60%)" stroke-opacity="1" stroke-miterlimit="10" d="M 532.480469 527.640625 C 518.695312 502.261719 497.949219 485.203125 469.601562 479.800781 "/>
<path fill-rule="nonzero" fill="rgb(98.431373%, 60.392157%, 60%)" fill-opacity="1" d="M 462.59375 478.46875 L 470.035156 477.527344 L 469.167969 482.078125 L 462.59375 478.46875 "/>
<path fill="none" stroke-width="1.5" stroke-linecap="butt" stroke-linejoin="miter" stroke="rgb(12.156863%, 47.058824%, 70.588235%)" stroke-opacity="1" stroke-miterlimit="10" d="M 83.453125 552.835938 C 89.777344 514.65625 81.609375 479.800781 56.371094 450.488281 "/>
<path fill-rule="nonzero" fill="rgb(12.156863%, 47.058824%, 70.588235%)" fill-opacity="1" d="M 51.714844 445.082031 L 58.125 448.976562 L 54.613281 452 L 51.714844 445.082031 "/>
<path fill="none" stroke-width="2.5" stroke-linecap="butt" stroke-linejoin="miter" stroke="rgb(70.196078%, 70.196078%, 70.196078%)" stroke-opacity="1" stroke-miterlimit="10" d="M 493.824219 718.460938 C 517.339844 731.234375 542.125 734.144531 566.828125 723.929688 "/>
<path fill-rule="nonzero" fill="rgb(70.196078%, 70.196078%, 70.196078%)" fill-opacity="1" d="M 573.421875 721.207031 L 567.714844 726.074219 L 565.945312 721.789062 L 573.421875 721.207031 "/>
<path fill="none" stroke-width="2.5" stroke-linecap="butt" stroke-linejoin="miter" stroke="rgb(70.196078%, 70.196078%, 70.196078%)" stroke-opacity="1" stroke-miterlimit="10" d="M 493.824219 718.460938 C 507.785156 693.703125 511.226562 667.460938 500.863281 641.023438 "/>
<path fill-rule="nonzero" fill="rgb(70.196078%, 70.196078%, 70.196078%)" fill-opacity="1" d="M 498.257812 634.382812 L 503.019531 640.179688 L 498.707031 641.871094 L 498.257812 634.382812 "/>
<path fill="none" stroke-width="1.5" stroke-linecap="butt" stroke-linejoin="miter" stroke="rgb(12.156863%, 47.058824%, 70.588235%)" stroke-opacity="1" stroke-miterlimit="10" d="M 113.953125 201.734375 C 145.839844 190.210938 169.105469 169.082031 180.5625 137.195312 "/>
<path fill-rule="nonzero" fill="rgb(12.156863%, 47.058824%, 70.588235%)" fill-opacity="1" d="M 182.972656 130.480469 L 182.742188 137.976562 L 178.378906 136.410156 L 182.972656 130.480469 "/>
<path fill="none" stroke-width="2.5" stroke-linecap="butt" stroke-linejoin="miter" stroke="rgb(70.196078%, 70.196078%, 70.196078%)" stroke-opacity="1" stroke-miterlimit="10" d="M 741.558594 489.714844 C 758.648438 462.5625 763.8125 433.214844 753.707031 402.789062 "/>
<path fill-rule="nonzero" fill="rgb(70.196078%, 70.196078%, 70.196078%)" fill-opacity="1" d="M 751.457031 396.023438 L 755.90625 402.058594 L 751.507812 403.519531 L 751.457031 396.023438 "/>
<path fill="none" stroke-width="1.5" stroke-linecap="butt" stroke-linejoin="miter" stroke="rgb(12.156863%, 47.058824%, 70.588235%)" stroke-opacity="1" stroke-miterlimit="10" d="M 50 443.089844 C 75.109375 402.457031 81.867188 358.921875 67.03125 313.535156 "/>
<path fill-rule="nonzero" fill="rgb(12.156863%, 47.058824%, 70.588235%)" fill-opacity="1" d="M 64.816406 306.753906 L 69.234375 312.8125 L 64.832031 314.253906 L 64.816406 306.753906 "/>
<path fill="none" stroke-width="1.5" stroke-linecap="butt" stroke-linejoin="miter" stroke="rgb(12.156863%, 47.058824%, 70.588235%)" stroke-opacity="1" stroke-miterlimit="10" d="M 64 304.253906 C 94.441406 280.769531 112.101562 249.890625 113.578125 211.492188 "/>
<path fill-rule="nonzero" fill="rgb(12.156863%, 47.058824%, 70.588235%)" fill-opacity="1" d="M 113.855469 204.363281 L 115.894531 211.582031 L 111.261719 211.402344 L 113.855469 204.363281 "/>
<path fill="none" stroke-width="1.5" stroke-linecap="butt" stroke-linejoin="miter" stroke="rgb(12.156863%, 47.058824%, 70.588235%)" stroke-opacity="1" stroke-miterlimit="10" d="M 138.824219 640.808594 C 135.4375 606.214844 120.308594 577.773438 91.535156 558.304688 "/>
<path fill-rule="nonzero" fill="rgb(12.156863%, 47.058824%, 70.588235%)" fill-opacity="1" d="M 85.628906 554.308594 L 92.835938 556.386719 L 90.238281 560.222656 L 85.628906 554.308594 "/>
<path fill="none" stroke-width="2.5" stroke-linecap="butt" stroke-linejoin="miter" stroke="rgb(70.196078%, 70.196078%, 70.196078%)" stroke-opacity="1" stroke-miterlimit="10" d="M 651.859375 661.128906 C 679.851562 646.410156 698.773438 623.933594 705.167969 592.980469 "/>
<path fill-rule="nonzero" fill="rgb(70.196078%, 70.196078%, 70.196078%)" fill-opacity="1" d="M 706.609375 585.996094 L 707.4375 593.449219 L 702.898438 592.511719 L 706.609375 585.996094 "/>
<path fill="none" stroke-width="1.5" stroke-linecap="butt" stroke-linejoin="miter" stroke="rgb(12.156863%, 47.058824%, 70.588235%)" stroke-opacity="1" stroke-miterlimit="10" d="M 282.847656 750 C 267.808594 726.648438 246.691406 711.734375 219.117188 708.628906 "/>
<path fill-rule="nonzero" fill="rgb(12.156863%, 47.058824%, 70.588235%)" fill-opacity="1" d="M 212.027344 707.832031 L 219.375 706.328125 L 218.855469 710.933594 L 212.027344 707.832031 "/>
<path fill="none" stroke-width="2.5" stroke-linecap="butt" stroke-linejoin="miter" stroke="rgb(70.196078%, 70.196078%, 70.196078%)" stroke-opacity="1" stroke-miterlimit="10" d="M 731.011719 294.386719 C 730.453125 261.824219 718.53125 234.03125 693.054688 213.777344 "/>
<path fill-rule="nonzero" fill="rgb(70.196078%, 70.196078%, 70.196078%)" fill-opacity="1" d="M 687.472656 209.339844 L 694.496094 211.960938 L 691.613281 215.589844 L 687.472656 209.339844 "/>
<path fill="none" stroke-width="1.5" stroke-linecap="butt" stroke-linejoin="miter" stroke="rgb(12.156863%, 47.058824%, 70.588235%)" stroke-opacity="1" stroke-miterlimit="10" d="M 209.417969 707.539062 C 198.464844 677.179688 178.378906 654.964844 148.011719 644.097656 "/>
<path fill-rule="nonzero" fill="rgb(12.156863%, 47.058824%, 70.588235%)" fill-opacity="1" d="M 141.296875 641.695312 L 148.792969 641.917969 L 147.230469 646.28125 L 141.296875 641.695312 "/>
<path fill="none" stroke-width="2.5" stroke-linecap="butt" stroke-linejoin="miter" stroke="rgb(70.196078%, 70.196078%, 70.196078%)" stroke-opacity="1" stroke-miterlimit="10" d="M 750 391.636719 C 759.015625 360.601562 755.867188 330.753906 737.644531 304.089844 "/>
<path fill-rule="nonzero" fill="rgb(70.196078%, 70.196078%, 70.196078%)" fill-opacity="1" d="M 733.621094 298.203125 L 739.558594 302.78125 L 735.730469 305.398438 L 733.621094 298.203125 "/>
<path fill="none" stroke-width="1.5" stroke-linecap="butt" stroke-linejoin="miter" stroke="rgb(12.156863%, 47.058824%, 70.588235%)" stroke-opacity="1" stroke-miterlimit="10" d="M 261.28125 79.824219 C 286.632812 82.332031 309.472656 75.742188 327.34375 57.625 "/>
<path fill-rule="nonzero" fill="rgb(12.156863%, 47.058824%, 70.588235%)" fill-opacity="1" d="M 332.351562 52.542969 L 328.992188 59.25 L 325.691406 55.996094 L 332.351562 52.542969 "/>
<path fill="none" stroke-width="2.5" stroke-linecap="butt" stroke-linejoin="miter" stroke="rgb(70.196078%, 70.196078%, 70.196078%)" stroke-opacity="1" stroke-miterlimit="10" d="M 577.683594 719.441406 C 607.734375 713.726562 631.621094 698.292969 646.238281 671.449219 "/>
<path fill-rule="nonzero" fill="rgb(70.196078%, 70.196078%, 70.196078%)" fill-opacity="1" d="M 649.648438 665.1875 L 648.273438 672.558594 L 644.203125 670.34375 L 649.648438 665.1875 "/>
<path fill="none" stroke-width="2.5" stroke-linecap="butt" stroke-linejoin="miter" stroke="rgb(70.196078%, 70.196078%, 70.196078%)" stroke-opacity="1" stroke-miterlimit="10" d="M 707.542969 581.472656 C 731.085938 559.992188 743.804688 533.257812 742.164062 501.449219 "/>
<path fill-rule="nonzero" fill="rgb(70.196078%, 70.196078%, 70.196078%)" fill-opacity="1" d="M 741.796875 494.328125 L 744.480469 501.332031 L 739.851562 501.570312 L 741.796875 494.328125 "/>
<path fill="none" stroke-width="2.5" stroke-linecap="butt" stroke-linejoin="miter" stroke="rgb(70.196078%, 70.196078%, 70.196078%)" stroke-opacity="1" stroke-miterlimit="10" d="M 683.855469 206.460938 C 673.757812 174.847656 653.96875 151.238281 623.171875 138.917969 "/>
<path fill-rule="nonzero" fill="rgb(70.196078%, 70.196078%, 70.196078%)" fill-opacity="1" d="M 616.550781 136.269531 L 624.035156 136.765625 L 622.3125 141.070312 L 616.550781 136.269531 "/>
<path fill="none" stroke-width="1.5" stroke-linecap="butt" stroke-linejoin="miter" stroke="rgb(12.156863%, 47.058824%, 70.588235%)" stroke-opacity="1" stroke-miterlimit="10" d="M 183.859375 128.007812 C 213.847656 125.414062 238.75 112.675781 255.761719 87.875 "/>
<path fill-rule="nonzero" fill="rgb(12.156863%, 47.058824%, 70.588235%)" fill-opacity="1" d="M 259.796875 81.992188 L 257.671875 89.183594 L 253.851562 86.5625 L 259.796875 81.992188 "/>
<path fill="none" stroke-width="2.5" stroke-linecap="butt" stroke-linejoin="miter" stroke="rgb(70.196078%, 70.196078%, 70.196078%)" stroke-opacity="1" stroke-miterlimit="10" d="M 496.574219 630.085938 C 522.363281 605.515625 535.800781 575.351562 533.328125 539.839844 "/>
<path fill-rule="nonzero" fill="rgb(70.196078%, 70.196078%, 70.196078%)" fill-opacity="1" d="M 532.835938 532.722656 L 535.640625 539.679688 L 531.019531 540 L 532.835938 532.722656 "/>
<path fill="none" stroke-width="1.5" stroke-linecap="butt" stroke-linejoin="miter" stroke="rgb(41.568627%, 23.921569%, 60.392157%)" stroke-opacity="1" stroke-miterlimit="10" d="M 506.714844 270.972656 C 477.617188 262.507812 449.578125 265.375 424.617188 282.519531 "/>
<path fill-rule="nonzero" fill="rgb(41.568627%, 23.921569%, 60.392157%)" fill-opacity="1" d="M 418.738281 286.554688 L 423.304688 280.609375 L 425.929688 284.429688 L 418.738281 286.554688 "/>
<path fill="none" stroke-width="1.5" stroke-linecap="butt" stroke-linejoin="miter" stroke="rgb(41.568627%, 23.921569%, 60.392157%)" stroke-opacity="1" stroke-miterlimit="10" d="M 571.410156 346.589844 C 563.484375 314.410156 545.339844 289.597656 515.503906 275.210938 "/>
<path fill-rule="nonzero" fill="rgb(41.568627%, 23.921569%, 60.392157%)" fill-opacity="1" d="M 509.082031 272.113281 L 516.511719 273.125 L 514.5 277.296875 L 509.082031 272.113281 "/>
<path fill-rule="nonzero" fill="rgb(14.901961%, 14.901961%, 14.901961%)" fill-opacity="1" stroke-width="1" stroke-linecap="butt" stroke-linejoin="miter" stroke="rgb(14.901961%, 14.901961%, 14.901961%)" stroke-opacity="1" stroke-miterlimit="10" d="M 570.402344 71.085938 L 576.753906 58.386719 L 583.105469 71.085938 Z M 570.402344 71.085938 "/>
<path fill-rule="nonzero" fill="rgb(99.215686%, 74.901961%, 43.529412%)" fill-opacity="1" stroke-width="1" stroke-linecap="butt" stroke-linejoin="miter" stroke="rgb(99.215686%, 74.901961%, 43.529412%)" stroke-opacity="1" stroke-miterlimit="10" d="M 530.773438 100.730469 C 530.773438 104.398438 525.273438 104.398438 525.273438 100.730469 C 525.273438 97.066406 530.773438 97.066406 530.773438 100.730469 "/>
<path fill-rule="nonzero" fill="rgb(70.196078%, 70.196078%, 70.196078%)" fill-opacity="1" stroke-width="1" stroke-linecap="butt" stroke-linejoin="miter" stroke="rgb(70.196078%, 70.196078%, 70.196078%)" stroke-opacity="1" stroke-miterlimit="10" d="M 617.109375 134.554688 C 617.109375 141.019531 607.410156 141.019531 607.410156 134.554688 C 607.410156 128.085938 617.109375 128.085938 617.109375 134.554688 "/>
<path fill-rule="nonzero" fill="rgb(70.196078%, 70.196078%, 70.196078%)" fill-opacity="1" stroke-width="1" stroke-linecap="butt" stroke-linejoin="miter" stroke="rgb(70.196078%, 70.196078%, 70.196078%)" stroke-opacity="1" stroke-miterlimit="10" d="M 321.496094 308.988281 C 321.496094 315.453125 311.796875 315.453125 311.796875 308.988281 C 311.796875 302.519531 321.496094 302.519531 321.496094 308.988281 "/>
<path fill-rule="nonzero" fill="rgb(14.901961%, 14.901961%, 14.901961%)" fill-opacity="1" stroke-width="1" stroke-linecap="butt" stroke-linejoin="miter" stroke="rgb(14.901961%, 14.901961%, 14.901961%)" stroke-opacity="1" stroke-miterlimit="10" d="M 69.460938 381.09375 L 73.210938 373.59375 L 76.960938 381.09375 Z M 69.460938 381.09375 "/>
<path fill-rule="nonzero" fill="rgb(70.196078%, 70.196078%, 70.196078%)" fill-opacity="1" stroke-width="1" stroke-linecap="butt" stroke-linejoin="miter" stroke="rgb(70.196078%, 70.196078%, 70.196078%)" stroke-opacity="1" stroke-miterlimit="10" d="M 419.890625 289.4375 C 419.890625 296.570312 409.191406 296.570312 409.191406 289.4375 C 409.191406 282.304688 419.890625 282.304688 419.890625 289.4375 "/>
<path fill-rule="nonzero" fill="rgb(14.901961%, 14.901961%, 14.901961%)" fill-opacity="1" stroke-width="1" stroke-linecap="butt" stroke-linejoin="miter" stroke="rgb(14.901961%, 14.901961%, 14.901961%)" stroke-opacity="1" stroke-miterlimit="10" d="M 286.660156 595.625 L 290.410156 588.125 L 294.160156 595.625 Z M 286.660156 595.625 "/>
<path fill-rule="nonzero" fill="rgb(41.568627%, 23.921569%, 60.392157%)" fill-opacity="1" stroke-width="1" stroke-linecap="butt" stroke-linejoin="miter" stroke="rgb(41.568627%, 23.921569%, 60.392157%)" stroke-opacity="1" stroke-miterlimit="10" d="M 248.117188 303.480469 C 248.117188 307.148438 242.617188 307.148438 242.617188 303.480469 C 242.617188 299.816406 248.117188 299.816406 248.117188 303.480469 "/>
<path fill-rule="nonzero" fill="rgb(70.196078%, 70.196078%, 70.196078%)" fill-opacity="1" stroke-width="1" stroke-linecap="butt" stroke-linejoin="miter" stroke="rgb(70.196078%, 70.196078%, 70.196078%)" stroke-opacity="1" stroke-miterlimit="10" d="M 254.785156 393.621094 C 254.785156 400.753906 244.085938 400.753906 244.085938 393.621094 C 244.085938 386.484375 254.785156 386.484375 254.785156 393.621094 "/>
<path fill-rule="nonzero" fill="rgb(41.568627%, 23.921569%, 60.392157%)" fill-opacity="1" stroke-width="1" stroke-linecap="butt" stroke-linejoin="miter" stroke="rgb(41.568627%, 23.921569%, 60.392157%)" stroke-opacity="1" stroke-miterlimit="10" d="M 267.628906 505.160156 C 267.628906 508.828125 262.128906 508.828125 262.128906 505.160156 C 262.128906 501.496094 267.628906 501.496094 267.628906 505.160156 "/>
<path fill-rule="nonzero" fill="rgb(98.431373%, 60.392157%, 60%)" fill-opacity="1" stroke-width="1" stroke-linecap="butt" stroke-linejoin="miter" stroke="rgb(98.431373%, 60.392157%, 60%)" stroke-opacity="1" stroke-miterlimit="10" d="M 159.625 397.460938 C 159.625 401.128906 154.125 401.128906 154.125 397.460938 C 154.125 393.792969 159.625 393.792969 159.625 397.460938 "/>
<path fill-rule="nonzero" fill="rgb(70.196078%, 70.196078%, 70.196078%)" fill-opacity="1" stroke-width="1" stroke-linecap="butt" stroke-linejoin="miter" stroke="rgb(70.196078%, 70.196078%, 70.196078%)" stroke-opacity="1" stroke-miterlimit="10" d="M 579.511719 453.835938 C 579.511719 460.304688 569.808594 460.304688 569.808594 453.835938 C 569.808594 447.371094 579.511719 447.371094 579.511719 453.835938 "/>
<path fill-rule="nonzero" fill="rgb(98.431373%, 60.392157%, 60%)" fill-opacity="1" stroke-width="1" stroke-linecap="butt" stroke-linejoin="miter" stroke="rgb(98.431373%, 60.392157%, 60%)" stroke-opacity="1" stroke-miterlimit="10" d="M 436.183594 385.34375 C 436.183594 389.011719 430.683594 389.011719 430.683594 385.34375 C 430.683594 381.675781 436.183594 381.675781 436.183594 385.34375 "/>
<path fill-rule="nonzero" fill="rgb(98.431373%, 60.392157%, 60%)" fill-opacity="1" stroke-width="1" stroke-linecap="butt" stroke-linejoin="miter" stroke="rgb(98.431373%, 60.392157%, 60%)" stroke-opacity="1" stroke-miterlimit="10" d="M 462.761719 477.976562 C 462.761719 481.644531 457.261719 481.644531 457.261719 477.976562 C 457.261719 474.308594 462.761719 474.308594 462.761719 477.976562 "/>
<path fill-rule="nonzero" fill="rgb(70.196078%, 70.196078%, 70.196078%)" fill-opacity="1" stroke-width="1" stroke-linecap="butt" stroke-linejoin="miter" stroke="rgb(70.196078%, 70.196078%, 70.196078%)" stroke-opacity="1" stroke-miterlimit="10" d="M 537.832031 527.640625 C 537.832031 534.773438 527.128906 534.773438 527.128906 527.640625 C 527.128906 520.503906 537.832031 520.503906 537.832031 527.640625 "/>
<path fill-rule="nonzero" fill="rgb(12.156863%, 47.058824%, 70.588235%)" fill-opacity="1" stroke-width="1" stroke-linecap="butt" stroke-linejoin="miter" stroke="rgb(12.156863%, 47.058824%, 70.588235%)" stroke-opacity="1" stroke-miterlimit="10" d="M 86.203125 552.835938 C 86.203125 556.5 80.703125 556.5 80.703125 552.835938 C 80.703125 549.167969 86.203125 549.167969 86.203125 552.835938 "/>
<path fill-rule="nonzero" fill="rgb(100%, 84.313725%, 0%)" fill-opacity="1" stroke-width="1" stroke-linecap="butt" stroke-linejoin="miter" stroke="rgb(100%, 84.313725%, 0%)" stroke-opacity="1" stroke-miterlimit="10" d="M 488.472656 713.109375 L 499.171875 713.109375 L 499.171875 723.808594 L 488.472656 723.808594 Z M 488.472656 713.109375 "/>
<path fill-rule="nonzero" fill="rgb(12.156863%, 47.058824%, 70.588235%)" fill-opacity="1" stroke-width="1" stroke-linecap="butt" stroke-linejoin="miter" stroke="rgb(12.156863%, 47.058824%, 70.588235%)" stroke-opacity="1" stroke-miterlimit="10" d="M 116.703125 201.734375 C 116.703125 205.402344 111.203125 205.402344 111.203125 201.734375 C 111.203125 198.070312 116.703125 198.070312 116.703125 201.734375 "/>
<path fill-rule="nonzero" fill="rgb(70.196078%, 70.196078%, 70.196078%)" fill-opacity="1" stroke-width="1" stroke-linecap="butt" stroke-linejoin="miter" stroke="rgb(70.196078%, 70.196078%, 70.196078%)" stroke-opacity="1" stroke-miterlimit="10" d="M 746.410156 489.714844 C 746.410156 496.179688 736.710938 496.179688 736.710938 489.714844 C 736.710938 483.246094 746.410156 483.246094 746.410156 489.714844 "/>
<path fill-rule="nonzero" fill="rgb(12.156863%, 47.058824%, 70.588235%)" fill-opacity="1" stroke-width="1" stroke-linecap="butt" stroke-linejoin="miter" stroke="rgb(12.156863%, 47.058824%, 70.588235%)" stroke-opacity="1" stroke-miterlimit="10" d="M 52.75 443.089844 C 52.75 446.757812 47.25 446.757812 47.25 443.089844 C 47.25 439.421875 52.75 439.421875 52.75 443.089844 "/>
<path fill-rule="nonzero" fill="rgb(12.156863%, 47.058824%, 70.588235%)" fill-opacity="1" stroke-width="1" stroke-linecap="butt" stroke-linejoin="miter" stroke="rgb(12.156863%, 47.058824%, 70.588235%)" stroke-opacity="1" stroke-miterlimit="10" d="M 66.75 304.253906 C 66.75 307.917969 61.25 307.917969 61.25 304.253906 C 61.25 300.585938 66.75 300.585938 66.75 304.253906 "/>
<path fill-rule="nonzero" fill="rgb(12.156863%, 47.058824%, 70.588235%)" fill-opacity="1" stroke-width="1" stroke-linecap="butt" stroke-linejoin="miter" stroke="rgb(12.156863%, 47.058824%, 70.588235%)" stroke-opacity="1" stroke-miterlimit="10" d="M 141.574219 640.808594 C 141.574219 644.476562 136.074219 644.476562 136.074219 640.808594 C 136.074219 637.144531 141.574219 637.144531 141.574219 640.808594 "/>
<path fill-rule="nonzero" fill="rgb(70.196078%, 70.196078%, 70.196078%)" fill-opacity="1" stroke-width="1" stroke-linecap="butt" stroke-linejoin="miter" stroke="rgb(70.196078%, 70.196078%, 70.196078%)" stroke-opacity="1" stroke-miterlimit="10" d="M 656.710938 661.128906 C 656.710938 667.597656 647.007812 667.597656 647.007812 661.128906 C 647.007812 654.664062 656.710938 654.664062 656.710938 661.128906 "/>
<path fill-rule="nonzero" fill="rgb(100%, 84.313725%, 0%)" fill-opacity="1" stroke-width="1" stroke-linecap="butt" stroke-linejoin="miter" stroke="rgb(100%, 84.313725%, 0%)" stroke-opacity="1" stroke-miterlimit="10" d="M 279.597656 746.75 L 286.097656 746.75 L 286.097656 753.25 L 279.597656 753.25 Z M 279.597656 746.75 "/>
<path fill-rule="nonzero" fill="rgb(70.196078%, 70.196078%, 70.196078%)" fill-opacity="1" stroke-width="1" stroke-linecap="butt" stroke-linejoin="miter" stroke="rgb(70.196078%, 70.196078%, 70.196078%)" stroke-opacity="1" stroke-miterlimit="10" d="M 735.863281 294.386719 C 735.863281 300.851562 726.164062 300.851562 726.164062 294.386719 C 726.164062 287.917969 735.863281 287.917969 735.863281 294.386719 "/>
<path fill-rule="nonzero" fill="rgb(12.156863%, 47.058824%, 70.588235%)" fill-opacity="1" stroke-width="1" stroke-linecap="butt" stroke-linejoin="miter" stroke="rgb(12.156863%, 47.058824%, 70.588235%)" stroke-opacity="1" stroke-miterlimit="10" d="M 212.167969 707.539062 C 212.167969 711.203125 206.667969 711.203125 206.667969 707.539062 C 206.667969 703.871094 212.167969 703.871094 212.167969 707.539062 "/>
<path fill-rule="nonzero" fill="rgb(70.196078%, 70.196078%, 70.196078%)" fill-opacity="1" stroke-width="1" stroke-linecap="butt" stroke-linejoin="miter" stroke="rgb(70.196078%, 70.196078%, 70.196078%)" stroke-opacity="1" stroke-miterlimit="10" d="M 754.851562 391.636719 C 754.851562 398.101562 745.148438 398.101562 745.148438 391.636719 C 745.148438 385.171875 754.851562 385.171875 754.851562 391.636719 "/>
<path fill-rule="nonzero" fill="rgb(12.156863%, 47.058824%, 70.588235%)" fill-opacity="1" stroke-width="1" stroke-linecap="butt" stroke-linejoin="miter" stroke="rgb(12.156863%, 47.058824%, 70.588235%)" stroke-opacity="1" stroke-miterlimit="10" d="M 264.03125 79.824219 C 264.03125 83.492188 258.53125 83.492188 258.53125 79.824219 C 258.53125 76.15625 264.03125 76.15625 264.03125 79.824219 "/>
<path fill-rule="nonzero" fill="rgb(70.196078%, 70.196078%, 70.196078%)" fill-opacity="1" stroke-width="1" stroke-linecap="butt" stroke-linejoin="miter" stroke="rgb(70.196078%, 70.196078%, 70.196078%)" stroke-opacity="1" stroke-miterlimit="10" d="M 582.535156 719.441406 C 582.535156 725.910156 572.835938 725.910156 572.835938 719.441406 C 572.835938 712.976562 582.535156 712.976562 582.535156 719.441406 "/>
<path fill-rule="nonzero" fill="rgb(70.196078%, 70.196078%, 70.196078%)" fill-opacity="1" stroke-width="1" stroke-linecap="butt" stroke-linejoin="miter" stroke="rgb(70.196078%, 70.196078%, 70.196078%)" stroke-opacity="1" stroke-miterlimit="10" d="M 712.394531 581.472656 C 712.394531 587.9375 702.695312 587.9375 702.695312 581.472656 C 702.695312 575.003906 712.394531 575.003906 712.394531 581.472656 "/>
<path fill-rule="nonzero" fill="rgb(14.901961%, 14.901961%, 14.901961%)" fill-opacity="1" stroke-width="1" stroke-linecap="butt" stroke-linejoin="miter" stroke="rgb(14.901961%, 14.901961%, 14.901961%)" stroke-opacity="1" stroke-miterlimit="10" d="M 331.109375 53.75 L 334.859375 46.25 L 338.609375 53.75 Z M 331.109375 53.75 "/>
<path fill-rule="nonzero" fill="rgb(70.196078%, 70.196078%, 70.196078%)" fill-opacity="1" stroke-width="1" stroke-linecap="butt" stroke-linejoin="miter" stroke="rgb(70.196078%, 70.196078%, 70.196078%)" stroke-opacity="1" stroke-miterlimit="10" d="M 688.703125 206.460938 C 688.703125 212.929688 679.003906 212.929688 679.003906 206.460938 C 679.003906 199.996094 688.703125 199.996094 688.703125 206.460938 "/>
<path fill-rule="nonzero" fill="rgb(12.156863%, 47.058824%, 70.588235%)" fill-opacity="1" stroke-width="1" stroke-linecap="butt" stroke-linejoin="miter" stroke="rgb(12.156863%, 47.058824%, 70.588235%)" stroke-opacity="1" stroke-miterlimit="10" d="M 186.609375 128.007812 C 186.609375 131.671875 181.109375 131.671875 181.109375 128.007812 C 181.109375 124.339844 186.609375 124.339844 186.609375 128.007812 "/>
<path fill-rule="nonzero" fill="rgb(70.196078%, 70.196078%, 70.196078%)" fill-opacity="1" stroke-width="1" stroke-linecap="butt" stroke-linejoin="miter" stroke="rgb(70.196078%, 70.196078%, 70.196078%)" stroke-opacity="1" stroke-miterlimit="10" d="M 501.425781 630.085938 C 501.425781 636.550781 491.722656 636.550781 491.722656 630.085938 C 491.722656 623.617188 501.425781 623.617188 501.425781 630.085938 "/>
<path fill-rule="nonzero" fill="rgb(41.568627%, 23.921569%, 60.392157%)" fill-opacity="1" stroke-width="1" stroke-linecap="butt" stroke-linejoin="miter" stroke="rgb(41.568627%, 23.921569%, 60.392157%)" stroke-opacity="1" stroke-miterlimit="10" d="M 509.464844 270.972656 C 509.464844 274.636719 503.964844 274.636719 503.964844 270.972656 C 503.964844 267.304688 509.464844 267.304688 509.464844 270.972656 "/>
<path fill-rule="nonzero" fill="rgb(41.568627%, 23.921569%, 60.392157%)" fill-opacity="1" stroke-width="1" stroke-linecap="butt" stroke-linejoin="miter" stroke="rgb(41.568627%, 23.921569%, 60.392157%)" stroke-opacity="1" stroke-miterlimit="10" d="M 574.160156 346.589844 C 574.160156 350.253906 568.660156 350.253906 568.660156 346.589844 C 568.660156 342.921875 574.160156 342.921875 574.160156 346.589844 "/>
</svg>
