<?xml version="1.0" encoding="UTF-8"?>
<svg xmlns="http://www.w3.org/2000/svg" xmlns:xlink="http://www.w3.org/1999/xlink" width="800" height="800" viewBox="0 0 800 800">
<rect x="-80" y="-80" width="960" height="960" fill="rgb(100%, 100%, 100%)" fill-opacity="1"/>
<path fill="none" stroke-width="1.5" stroke-linecap="butt" stroke-linejoin="miter" stroke="rgb(41.568627%, 23.921569%, 60.392157%)" stroke-opacity="1" stroke-miterlimit="10" d="M 681.769531 400.324219 C 651.324219 523.265625 671.066406 637.566406 743.835938 741.222656 "/>
<path fill-rule="nonzero" fill="rgb(41.568627%, 23.921569%, 60.392157%)" fill-opacity="1" d="M 747.9375 747.058594 L 741.941406 742.554688 L 745.734375 739.890625 L 747.9375 747.058594 "/>
<path fill="none" stroke-width="2.5" stroke-linecap="butt" stroke-linejoin="miter" stroke="rgb(70.196078%, 70.196078%, 70.196078%)" stroke-opacity="1" stroke-miterlimit="10" d="M 681.769531 400.324219 C 648.964844 383.5625 614.9375 380.800781 581.109375 395.339844 "/>
<path fill-rule="nonzero" fill="rgb(70.196078%, 70.196078%, 70.196078%)" fill-opacity="1" d="M 574.554688 398.15625 L 580.195312 393.210938 L 582.023438 397.46875 L 574.554688 398.15625 "/>
<path fill="none" stroke-width="5.5" stroke-linecap="butt" stroke-linejoin="miter" stroke="rgb(70.196078%, 70.196078%, 70.196078%)" stroke-opacity="1" stroke-miterlimit="10" d="M 749.851562 50 C 675.519531 152 650.699219 264.90625 678.921875 387.914062 "/>
<path fill-rule="nonzero" fill="rgb(70.196078%, 70.196078%, 70.196078%)" fill-opacity="1" d="M 680.519531 394.867188 L 676.664062 388.433594 L 681.183594 387.398438 L 680.519531 394.867188 "/>
<path fill="none" stroke-width="1.5" stroke-linecap="butt" stroke-linejoin="miter" stroke="rgb(12.156863%, 47.058824%, 70.588235%)" stroke-opacity="1" stroke-miterlimit="10" d="M 569.4375 400.355469 C 535.128906 383.339844 499.769531 380.996094 464.742188 396.429688 "/>
<path fill-rule="nonzero" fill="rgb(12.156863%, 47.058824%, 70.588235%)" fill-opacity="1" d="M 458.214844 399.304688 L 463.804688 394.308594 L 465.675781 398.550781 L 458.214844 399.304688 "/>
<path fill="none" stroke-width="1.5" stroke-linecap="butt" stroke-linejoin="miter" stroke="rgb(12.156863%, 47.058824%, 70.588235%)" stroke-opacity="1" stroke-miterlimit="10" d="M 455.808594 400.363281 C 421.839844 383.414062 386.792969 380.988281 352.035156 396.207031 "/>
<path fill-rule="nonzero" fill="rgb(12.156863%, 47.058824%, 70.588235%)" fill-opacity="1" d="M 345.5 399.066406 L 351.105469 394.085938 L 352.964844 398.332031 L 345.5 399.066406 "/>
<path fill="none" stroke-width="1.5" stroke-linecap="butt" stroke-linejoin="miter" stroke="rgb(12.156863%, 47.058824%, 70.588235%)" stroke-opacity="1" stroke-miterlimit="10" d="M 234.375 399.9375 C 204.367188 384.980469 173.355469 382.734375 142.71875 396.304688 "/>
<path fill-rule="nonzero" fill="rgb(12.156863%, 47.058824%, 70.588235%)" fill-opacity="1" d="M 136.199219 399.195312 L 141.78125 394.1875 L 143.660156 398.425781 L 136.199219 399.195312 "/>
<path fill="none" stroke-width="1.5" stroke-linecap="butt" stroke-linejoin="miter" stroke="rgb(12.156863%, 47.058824%, 70.588235%)" stroke-opacity="1" stroke-miterlimit="10" d="M 133.796875 400.261719 C 109.746094 387.8125 84.625 385.402344 59.816406 396.207031 "/>
<path fill-rule="nonzero" fill="rgb(12.156863%, 47.058824%, 70.588235%)" fill-opacity="1" d="M 53.277344 399.054688 L 58.890625 394.082031 L 60.742188 398.332031 L 53.277344 399.054688 "/>
<path fill="none" stroke-width="1.5" stroke-linecap="butt" stroke-linejoin="miter" stroke="rgb(12.156863%, 47.058824%, 70.588235%)" stroke-opacity="1" stroke-miterlimit="10" d="M 343.09375 400.121094 C 310.449219 383.789062 276.734375 381.382812 243.316406 396.023438 "/>
<path fill-rule="nonzero" fill="rgb(12.156863%, 47.058824%, 70.588235%)" fill-opacity="1" d="M 236.78125 398.882812 L 242.386719 393.898438 L 244.246094 398.144531 L 236.78125 398.882812 "/>
<path fill-rule="nonzero" fill="rgb(14.901961%, 14.901961%, 14.901961%)" fill-opacity="1" stroke-width="1" stroke-linecap="butt" stroke-linejoin="miter" stroke="rgb(14.901961%, 14.901961%, 14.901961%)" stroke-opacity="1" stroke-miterlimit="10" d="M 675.921875 406.175781 L 681.769531 394.476562 L 687.621094 406.175781 Z M 675.921875 406.175781 "/>
<path fill-rule="nonzero" fill="rgb(100%, 84.313725%, 0%)" fill-opacity="1" stroke-width="1" stroke-linecap="butt" stroke-linejoin="miter" stroke="rgb(100%, 84.313725%, 0%)" stroke-opacity="1" stroke-miterlimit="10" d="M 744.5 44.648438 L 755.199219 44.648438 L 755.199219 55.347656 L 744.5 55.347656 Z M 744.5 44.648438 "/>
<path fill-rule="nonzero" fill="rgb(14.901961%, 14.901961%, 14.901961%)" fill-opacity="1" stroke-width="1" stroke-linecap="butt" stroke-linejoin="miter" stroke="rgb(14.901961%, 14.901961%, 14.901961%)" stroke-opacity="1" stroke-miterlimit="10" d="M 746.25 753.75 L 750 746.25 L 753.75 753.75 Z M 746.25 753.75 "/>
<path fill-rule="nonzero" fill="rgb(14.901961%, 14.901961%, 14.901961%)" fill-opacity="1" stroke-width="1" stroke-linecap="butt" stroke-linejoin="miter" stroke="rgb(14.901961%, 14.901961%, 14.901961%)" stroke-opacity="1" stroke-miterlimit="10" d="M 563.589844 406.203125 L 569.4375 394.503906 L 575.289062 406.203125 Z M 563.589844 406.203125 "/>
<path fill-rule="nonzero" fill="rgb(12.156863%, 47.058824%, 70.588235%)" fill-opacity="1" stroke-width="1" stroke-linecap="butt" stroke-linejoin="miter" stroke="rgb(12.156863%, 47.058824%, 70.588235%)" stroke-opacity="1" stroke-miterlimit="10" d="M 458.558594 400.363281 C 458.558594 404.03125 453.058594 404.03125 453.058594 400.363281 C 453.058594 396.699219 458.558594 396.699219 458.558594 400.363281 "/>
<path fill-rule="nonzero" fill="rgb(12.156863%, 47.058824%, 70.588235%)" fill-opacity="1" stroke-width="1" stroke-linecap="butt" stroke-linejoin="miter" stroke="rgb(12.156863%, 47.058824%, 70.588235%)" stroke-opacity="1" stroke-miterlimit="10" d="M 237.125 399.9375 C 237.125 403.605469 231.625 403.605469 231.625 399.9375 C 231.625 396.273438 237.125 396.273438 237.125 399.9375 "/>
<path fill-rule="nonzero" fill="rgb(12.156863%, 47.058824%, 70.588235%)" fill-opacity="1" stroke-width="1" stroke-linecap="butt" stroke-linejoin="miter" stroke="rgb(12.156863%, 47.058824%, 70.588235%)" stroke-opacity="1" stroke-miterlimit="10" d="M 136.546875 400.261719 C 136.546875 403.925781 131.046875 403.925781 131.046875 400.261719 C 131.046875 396.59375 136.546875 396.59375 136.546875 400.261719 "/>
<path fill-rule="nonzero" fill="rgb(14.901961%, 14.901961%, 14.901961%)" fill-opacity="1" stroke-width="1" stroke-linecap="butt" stroke-linejoin="miter" stroke="rgb(14.901961%, 14.901961%, 14.901961%)" stroke-opacity="1" stroke-miterlimit="10" d="M 46.25 404.230469 L 50 396.730469 L 53.75 404.230469 Z M 46.25 404.230469 "/>
<path fill-rule="nonzero" fill="rgb(12.156863%, 47.058824%, 70.588235%)" fill-opacity="1" stroke-width="1" stroke-linecap="butt" stroke-linejoin="miter" stroke="rgb(12.156863%, 47.058824%, 70.588235%)" stroke-opacity="1" stroke-miterlimit="10" d="M 345.84375 400.121094 C 345.84375 403.789062 340.34375 403.789062 340.34375 400.121094 C 340.34375 396.457031 345.84375 396.457031 345.84375 400.121094 "/>
</svg>
