<?xml version="1.0" encoding="UTF-8"?>
<svg xmlns="http://www.w3.org/2000/svg" xmlns:xlink="http://www.w3.org/1999/xlink" width="800" height="800" viewBox="0 0 800 800">
<rect x="-80" y="-80" width="960" height="960" fill="rgb(100%, 100%, 100%)" fill-opacity="1"/>
<path fill="none" stroke-width="6.5" stroke-linecap="butt" stroke-linejoin="miter" stroke="rgb(41.568627%, 23.921569%, 60.392157%)" stroke-opacity="1" stroke-miterlimit="10" d="M 261.59375 235.015625 C 273.453125 208.117188 274.257812 180.800781 260.984375 154.597656 "/>
<path fill-rule="nonzero" fill="rgb(41.568627%, 23.921569%, 60.392157%)" fill-opacity="1" d="M 257.761719 148.234375 L 263.050781 153.550781 L 258.914062 155.644531 L 257.761719 148.234375 "/>
<path fill="none" stroke-width="2.5" stroke-linecap="butt" stroke-linejoin="miter" stroke="rgb(70.196078%, 70.196078%, 70.196078%)" stroke-opacity="1" stroke-miterlimit="10" d="M 261.59375 235.015625 C 262.441406 224.476562 259.925781 214.535156 251.875 207.777344 "/>
<path fill-rule="nonzero" fill="rgb(70.196078%, 70.196078%, 70.196078%)" fill-opacity="1" d="M 246.414062 203.1875 L 253.367188 206 L 250.386719 209.550781 L 246.414062 203.1875 "/>
<path fill="none" stroke-width="5.5" stroke-linecap="butt" stroke-linejoin="miter" stroke="rgb(41.568627%, 23.921569%, 60.392157%)" stroke-opacity="1" stroke-miterlimit="10" d="M 256.679688 146.101562 C 244.820312 173 244.019531 200.316406 257.292969 226.519531 "/>
<path fill-rule="nonzero" fill="rgb(41.568627%, 23.921569%, 60.392157%)" fill-opacity="1" d="M 260.515625 232.882812 L 255.226562 227.566406 L 259.359375 225.472656 L 260.515625 232.882812 "/>
<path fill="none" stroke-width="2.5" stroke-linecap="butt" stroke-linejoin="miter" stroke="rgb(98.431373%, 60.392157%, 60%)" stroke-opacity="1" stroke-miterlimit="10" d="M 256.679688 146.101562 C 266.910156 126.910156 269.261719 106.675781 260.648438 86.734375 "/>
<path fill-rule="nonzero" fill="rgb(98.431373%, 60.392157%, 60%)" fill-opacity="1" d="M 257.820312 80.1875 L 262.777344 85.816406 L 258.519531 87.652344 L 257.820312 80.1875 "/>
<path fill="none" stroke-width="2.5" stroke-linecap="butt" stroke-linejoin="miter" stroke="rgb(41.568627%, 23.921569%, 60.392157%)" stroke-opacity="1" stroke-miterlimit="10" d="M 256.679688 146.101562 C 261.964844 148.007812 267.792969 148.472656 272 144.925781 "/>
<path fill-rule="nonzero" fill="rgb(41.568627%, 23.921569%, 60.392157%)" fill-opacity="1" d="M 277.449219 140.324219 L 273.492188 146.695312 L 270.503906 143.15625 L 277.449219 140.324219 "/>
<path fill="none" stroke-width="1.5" stroke-linecap="butt" stroke-linejoin="miter" stroke="rgb(98.431373%, 60.392157%, 60%)" stroke-opacity="1" stroke-miterlimit="10" d="M 256.679688 146.101562 C 253.933594 131.3125 246.605469 119.070312 233.222656 112.289062 "/>
<path fill-rule="nonzero" fill="rgb(98.431373%, 60.392157%, 60%)" fill-opacity="1" d="M 226.863281 109.0625 L 234.273438 110.222656 L 232.175781 114.355469 L 226.863281 109.0625 "/>
<path fill="none" stroke-width="1.5" stroke-linecap="butt" stroke-linejoin="miter" stroke="rgb(98.431373%, 60.392157%, 60%)" stroke-opacity="1" stroke-miterlimit="10" d="M 256.679688 146.101562 C 274.148438 141.167969 287.835938 130.945312 294.722656 114.183594 "/>
<path fill-rule="nonzero" fill="rgb(98.431373%, 60.392157%, 60%)" fill-opacity="1" d="M 297.433594 107.585938 L 296.867188 115.066406 L 292.578125 113.304688 L 297.433594 107.585938 "/>
<path fill="none" stroke-width="2.5" stroke-linecap="butt" stroke-linejoin="miter" stroke="rgb(98.431373%, 60.392157%, 60%)" stroke-opacity="1" stroke-miterlimit="10" d="M 256.96875 78.214844 C 246.746094 97.320312 244.359375 117.480469 252.917969 137.359375 "/>
<path fill-rule="nonzero" fill="rgb(98.431373%, 60.392157%, 60%)" fill-opacity="1" d="M 255.738281 143.910156 L 250.789062 138.277344 L 255.046875 136.441406 L 255.738281 143.910156 "/>
<path fill="none" stroke-width="1.5" stroke-linecap="butt" stroke-linejoin="miter" stroke="rgb(12.156863%, 47.058824%, 70.588235%)" stroke-opacity="1" stroke-miterlimit="10" d="M 134.414062 558.378906 C 158.265625 547.804688 175.230469 530.375 182.046875 505.214844 "/>
<path fill-rule="nonzero" fill="rgb(12.156863%, 47.058824%, 70.588235%)" fill-opacity="1" d="M 183.910156 498.328125 L 184.28125 505.820312 L 179.808594 504.609375 L 183.910156 498.328125 "/>
<path fill="none" stroke-width="1.5" stroke-linecap="butt" stroke-linejoin="miter" stroke="rgb(12.156863%, 47.058824%, 70.588235%)" stroke-opacity="1" stroke-miterlimit="10" d="M 74.636719 547.699219 C 67.613281 565.707031 67.558594 583.875 77.339844 600.511719 "/>
<path fill-rule="nonzero" fill="rgb(12.156863%, 47.058824%, 70.588235%)" fill-opacity="1" d="M 80.957031 606.660156 L 75.34375 601.683594 L 79.335938 599.335938 L 80.957031 606.660156 "/>
<path fill="none" stroke-width="1.5" stroke-linecap="butt" stroke-linejoin="miter" stroke="rgb(12.156863%, 47.058824%, 70.588235%)" stroke-opacity="1" stroke-miterlimit="10" d="M 184.535156 496.023438 C 173.816406 513.578125 170.441406 532.5625 177.503906 551.847656 "/>
<path fill-rule="nonzero" fill="rgb(12.156863%, 47.058824%, 70.588235%)" fill-opacity="1" d="M 179.957031 558.546875 L 175.328125 552.644531 L 179.679688 551.050781 L 179.957031 558.546875 "/>
<path fill="none" stroke-width="2.5" stroke-linecap="butt" stroke-linejoin="miter" stroke="rgb(12.156863%, 47.058824%, 70.588235%)" stroke-opacity="1" stroke-miterlimit="10" d="M 184.535156 496.023438 C 161.066406 496.3125 140.804688 504.660156 126.3125 523.085938 "/>
<path fill-rule="nonzero" fill="rgb(12.156863%, 47.058824%, 70.588235%)" fill-opacity="1" d="M 121.902344 528.691406 L 124.492188 521.652344 L 128.136719 524.515625 L 121.902344 528.691406 "/>
<path fill="none" stroke-width="5.5" stroke-linecap="butt" stroke-linejoin="miter" stroke="rgb(70.196078%, 70.196078%, 70.196078%)" stroke-opacity="1" stroke-miterlimit="10" d="M 482.25 556.609375 C 469.378906 531.40625 449.484375 514.164062 421.847656 508.183594 "/>
<path fill-rule="nonzero" fill="rgb(70.196078%, 70.196078%, 70.196078%)" fill-opacity="1" d="M 414.875 506.675781 L 422.335938 505.917969 L 421.355469 510.449219 L 414.875 506.675781 "/>
<path fill="none" stroke-width="5.5" stroke-linecap="butt" stroke-linejoin="miter" stroke="rgb(70.196078%, 70.196078%, 70.196078%)" stroke-opacity="1" stroke-miterlimit="10" d="M 547.417969 603.617188 C 535.546875 580.238281 517.164062 564.132812 491.558594 558.613281 "/>
<path fill-rule="nonzero" fill="rgb(70.196078%, 70.196078%, 70.196078%)" fill-opacity="1" d="M 484.585938 557.113281 L 492.046875 556.347656 L 491.070312 560.878906 L 484.585938 557.113281 "/>
<path fill="none" stroke-width="5.5" stroke-linecap="butt" stroke-linejoin="miter" stroke="rgb(70.196078%, 70.196078%, 70.196078%)" stroke-opacity="1" stroke-miterlimit="10" d="M 607.816406 647.191406 C 597.019531 625.675781 580.226562 610.71875 556.722656 605.632812 "/>
<path fill-rule="nonzero" fill="rgb(70.196078%, 70.196078%, 70.196078%)" fill-opacity="1" d="M 549.75 604.121094 L 557.214844 603.367188 L 556.234375 607.898438 L 549.75 604.121094 "/>
<path fill="none" stroke-width="1.5" stroke-linecap="butt" stroke-linejoin="miter" stroke="rgb(12.156863%, 47.058824%, 70.588235%)" stroke-opacity="1" stroke-miterlimit="10" d="M 152.570312 626.644531 C 170.699219 611.296875 181.132812 591.71875 180.566406 567.996094 "/>
<path fill-rule="nonzero" fill="rgb(12.156863%, 47.058824%, 70.588235%)" fill-opacity="1" d="M 180.398438 560.863281 L 182.882812 567.941406 L 178.25 568.050781 L 180.398438 560.863281 "/>
<path fill="none" stroke-width="2.5" stroke-linecap="butt" stroke-linejoin="miter" stroke="rgb(12.156863%, 47.058824%, 70.588235%)" stroke-opacity="1" stroke-miterlimit="10" d="M 180.367188 559.667969 C 191.03125 542.546875 194.550781 523.9375 187.75 504.984375 "/>
<path fill-rule="nonzero" fill="rgb(12.156863%, 47.058824%, 70.588235%)" fill-opacity="1" d="M 185.339844 498.269531 L 189.929688 504.199219 L 185.566406 505.765625 L 185.339844 498.269531 "/>
<path fill="none" stroke-width="4.5" stroke-linecap="butt" stroke-linejoin="miter" stroke="rgb(70.196078%, 70.196078%, 70.196078%)" stroke-opacity="1" stroke-miterlimit="10" d="M 259.539062 394.605469 C 284.101562 345.199219 287.074219 294.476562 265.347656 243.769531 "/>
<path fill-rule="nonzero" fill="rgb(70.196078%, 70.196078%, 70.196078%)" fill-opacity="1" d="M 262.539062 237.214844 L 267.476562 242.859375 L 263.214844 244.683594 L 262.539062 237.214844 "/>
<path fill="none" stroke-width="1.5" stroke-linecap="butt" stroke-linejoin="miter" stroke="rgb(12.156863%, 47.058824%, 70.588235%)" stroke-opacity="1" stroke-miterlimit="10" d="M 259.539062 394.605469 C 221.414062 414.375 196.003906 444.835938 186.617188 486.730469 "/>
<path fill-rule="nonzero" fill="rgb(12.156863%, 47.058824%, 70.588235%)" fill-opacity="1" d="M 185.058594 493.691406 L 184.355469 486.222656 L 188.878906 487.238281 L 185.058594 493.691406 "/>
<path fill="none" stroke-width="5.5" stroke-linecap="butt" stroke-linejoin="miter" stroke="rgb(70.196078%, 70.196078%, 70.196078%)" stroke-opacity="1" stroke-miterlimit="10" d="M 412.539062 506.171875 C 398.660156 479.117188 377.230469 460.710938 347.539062 454.261719 "/>
<path fill-rule="nonzero" fill="rgb(70.196078%, 70.196078%, 70.196078%)" fill-opacity="1" d="M 340.566406 452.746094 L 348.027344 451.996094 L 347.046875 456.527344 L 340.566406 452.746094 "/>
<path fill="none" stroke-width="5.5" stroke-linecap="butt" stroke-linejoin="miter" stroke="rgb(70.196078%, 70.196078%, 70.196078%)" stroke-opacity="1" stroke-miterlimit="10" d="M 338.230469 452.242188 C 323.4375 423.304688 300.550781 403.675781 268.835938 396.660156 "/>
<path fill-rule="nonzero" fill="rgb(70.196078%, 70.196078%, 70.196078%)" fill-opacity="1" d="M 261.871094 395.121094 L 269.335938 394.398438 L 268.335938 398.925781 L 261.871094 395.121094 "/>
<path fill="none" stroke-width="1.5" stroke-linecap="butt" stroke-linejoin="miter" stroke="rgb(41.568627%, 23.921569%, 60.392157%)" stroke-opacity="1" stroke-miterlimit="10" d="M 279.382812 138.695312 C 259.667969 164.714844 251.910156 193.992188 259.40625 225.746094 "/>
<path fill-rule="nonzero" fill="rgb(41.568627%, 23.921569%, 60.392157%)" fill-opacity="1" d="M 261.046875 232.6875 L 257.152344 226.277344 L 261.664062 225.214844 L 261.046875 232.6875 "/>
<path fill="none" stroke-width="1.5" stroke-linecap="butt" stroke-linejoin="miter" stroke="rgb(41.568627%, 23.921569%, 60.392157%)" stroke-opacity="1" stroke-miterlimit="10" d="M 279.382812 138.695312 C 274.101562 136.789062 268.269531 136.320312 264.066406 139.871094 "/>
<path fill-rule="nonzero" fill="rgb(41.568627%, 23.921569%, 60.392157%)" fill-opacity="1" d="M 258.613281 144.472656 L 262.570312 138.101562 L 265.558594 141.640625 L 258.613281 144.472656 "/>
<path fill="none" stroke-width="1.5" stroke-linecap="butt" stroke-linejoin="miter" stroke="rgb(98.431373%, 60.392157%, 60%)" stroke-opacity="1" stroke-miterlimit="10" d="M 279.382812 138.695312 C 293.738281 112.523438 296.894531 84.988281 285.820312 57.289062 "/>
<path fill-rule="nonzero" fill="rgb(98.431373%, 60.392157%, 60%)" fill-opacity="1" d="M 283.171875 50.667969 L 287.972656 56.429688 L 283.667969 58.152344 L 283.171875 50.667969 "/>
<path fill="none" stroke-width="1.5" stroke-linecap="butt" stroke-linejoin="miter" stroke="rgb(98.431373%, 60.392157%, 60%)" stroke-opacity="1" stroke-miterlimit="10" d="M 226.222656 108.738281 C 228.617188 123.03125 235.441406 135.015625 248.246094 141.699219 "/>
<path fill-rule="nonzero" fill="rgb(98.431373%, 60.392157%, 60%)" fill-opacity="1" d="M 254.570312 145 L 247.175781 143.753906 L 249.320312 139.644531 L 254.570312 145 "/>
<path fill="none" stroke-width="1.5" stroke-linecap="butt" stroke-linejoin="miter" stroke="rgb(98.431373%, 60.392157%, 60%)" stroke-opacity="1" stroke-miterlimit="10" d="M 282.90625 50 C 272.371094 53.0625 263.699219 59.179688 260.0625 69.472656 "/>
<path fill-rule="nonzero" fill="rgb(98.431373%, 60.392157%, 60%)" fill-opacity="1" d="M 257.683594 76.195312 L 257.875 68.699219 L 262.246094 70.246094 L 257.683594 76.195312 "/>
<path fill="none" stroke-width="1.5" stroke-linecap="butt" stroke-linejoin="miter" stroke="rgb(98.431373%, 60.392157%, 60%)" stroke-opacity="1" stroke-miterlimit="10" d="M 297.707031 106.921875 C 288.636719 111.792969 281.800781 119.101562 280.546875 129.257812 "/>
<path fill-rule="nonzero" fill="rgb(98.431373%, 60.392157%, 60%)" fill-opacity="1" d="M 279.675781 136.335938 L 278.246094 128.972656 L 282.847656 129.542969 L 279.675781 136.335938 "/>
<path fill="none" stroke-width="5.5" stroke-linecap="butt" stroke-linejoin="miter" stroke="rgb(70.196078%, 70.196078%, 70.196078%)" stroke-opacity="1" stroke-miterlimit="10" d="M 662.757812 686.917969 C 653.195312 667.507812 638.222656 653.84375 617.113281 649.226562 "/>
<path fill-rule="nonzero" fill="rgb(70.196078%, 70.196078%, 70.196078%)" fill-opacity="1" d="M 610.148438 647.703125 L 617.609375 646.960938 L 616.621094 651.492188 L 610.148438 647.703125 "/>
<path fill="none" stroke-width="1.5" stroke-linecap="butt" stroke-linejoin="miter" stroke="rgb(41.568627%, 23.921569%, 60.392157%)" stroke-opacity="1" stroke-miterlimit="10" d="M 244.59375 201.660156 C 243.75 212.199219 246.265625 222.136719 254.3125 228.898438 "/>
<path fill-rule="nonzero" fill="rgb(41.568627%, 23.921569%, 60.392157%)" fill-opacity="1" d="M 259.777344 233.488281 L 252.824219 230.671875 L 255.804688 227.125 L 259.777344 233.488281 "/>
<path fill="none" stroke-width="1.5" stroke-linecap="butt" stroke-linejoin="miter" stroke="rgb(98.431373%, 60.392157%, 60%)" stroke-opacity="1" stroke-miterlimit="10" d="M 244.59375 201.660156 C 256.167969 188.34375 261.914062 172.71875 258.515625 155.441406 "/>
<path fill-rule="nonzero" fill="rgb(98.431373%, 60.392157%, 60%)" fill-opacity="1" d="M 257.140625 148.441406 L 260.792969 154.992188 L 256.242188 155.886719 L 257.140625 148.441406 "/>
<path fill="none" stroke-width="1.5" stroke-linecap="butt" stroke-linejoin="miter" stroke="rgb(12.156863%, 47.058824%, 70.588235%)" stroke-opacity="1" stroke-miterlimit="10" d="M 110.371094 609.109375 C 119.164062 620.167969 130.640625 627.164062 144.722656 626.832031 "/>
<path fill-rule="nonzero" fill="rgb(12.156863%, 47.058824%, 70.588235%)" fill-opacity="1" d="M 151.855469 626.664062 L 144.777344 629.148438 L 144.667969 624.515625 L 151.855469 626.664062 "/>
<path fill="none" stroke-width="1.5" stroke-linecap="butt" stroke-linejoin="miter" stroke="rgb(12.156863%, 47.058824%, 70.588235%)" stroke-opacity="1" stroke-miterlimit="10" d="M 110.371094 609.109375 C 104.210938 604.664062 97.027344 602.242188 90.011719 604.941406 "/>
<path fill-rule="nonzero" fill="rgb(12.156863%, 47.058824%, 70.588235%)" fill-opacity="1" d="M 83.355469 607.503906 L 89.179688 602.777344 L 90.84375 607.105469 L 83.355469 607.503906 "/>
<path fill="none" stroke-width="1.5" stroke-linecap="butt" stroke-linejoin="miter" stroke="rgb(12.156863%, 47.058824%, 70.588235%)" stroke-opacity="1" stroke-miterlimit="10" d="M 121.460938 529.257812 C 105.761719 527.339844 91.210938 530.863281 80.144531 542.105469 "/>
<path fill-rule="nonzero" fill="rgb(12.156863%, 47.058824%, 70.588235%)" fill-opacity="1" d="M 75.140625 547.1875 L 78.492188 540.480469 L 81.792969 543.730469 L 75.140625 547.1875 "/>
<path fill="none" stroke-width="1.5" stroke-linecap="butt" stroke-linejoin="miter" stroke="rgb(12.156863%, 47.058824%, 70.588235%)" stroke-opacity="1" stroke-miterlimit="10" d="M 121.460938 529.257812 C 106.21875 551.195312 100.699219 575.449219 108.070312 601.101562 "/>
<path fill-rule="nonzero" fill="rgb(12.156863%, 47.058824%, 70.588235%)" fill-opacity="1" d="M 110.039062 607.957031 L 105.84375 601.742188 L 110.296875 600.460938 L 110.039062 607.957031 "/>
<path fill="none" stroke-width="1.5" stroke-linecap="butt" stroke-linejoin="miter" stroke="rgb(12.156863%, 47.058824%, 70.588235%)" stroke-opacity="1" stroke-miterlimit="10" d="M 50 644.765625 C 63.964844 639.71875 74.746094 630.628906 79.171875 616.5 "/>
<path fill-rule="nonzero" fill="rgb(12.156863%, 47.058824%, 70.588235%)" fill-opacity="1" d="M 81.304688 609.695312 L 81.382812 617.195312 L 76.960938 615.808594 L 81.304688 609.695312 "/>
<path fill="none" stroke-width="1.5" stroke-linecap="butt" stroke-linejoin="miter" stroke="rgb(12.156863%, 47.058824%, 70.588235%)" stroke-opacity="1" stroke-miterlimit="10" d="M 81.800781 608.101562 C 104.703125 601.382812 122.242188 587.644531 131.398438 565.628906 "/>
<path fill-rule="nonzero" fill="rgb(12.156863%, 47.058824%, 70.588235%)" fill-opacity="1" d="M 134.136719 559.042969 L 133.535156 566.519531 L 129.257812 564.738281 L 134.136719 559.042969 "/>
<path fill="none" stroke-width="1.5" stroke-linecap="butt" stroke-linejoin="miter" stroke="rgb(12.156863%, 47.058824%, 70.588235%)" stroke-opacity="1" stroke-miterlimit="10" d="M 81.800781 608.101562 C 88.136719 612.570312 95.472656 614.941406 102.621094 612.144531 "/>
<path fill-rule="nonzero" fill="rgb(12.156863%, 47.058824%, 70.588235%)" fill-opacity="1" d="M 109.261719 609.542969 L 103.464844 614.300781 L 101.773438 609.984375 L 109.261719 609.542969 "/>
<path fill="none" stroke-width="1.5" stroke-linecap="butt" stroke-linejoin="miter" stroke="rgb(12.156863%, 47.058824%, 70.588235%)" stroke-opacity="1" stroke-miterlimit="10" d="M 81.800781 608.101562 C 67.59375 613.394531 56.71875 622.792969 52.296875 637.257812 "/>
<path fill-rule="nonzero" fill="rgb(12.156863%, 47.058824%, 70.588235%)" fill-opacity="1" d="M 50.210938 644.078125 L 50.078125 636.578125 L 54.511719 637.933594 L 50.210938 644.078125 "/>
<path fill="none" stroke-width="5.5" stroke-linecap="butt" stroke-linejoin="miter" stroke="rgb(70.196078%, 70.196078%, 70.196078%)" stroke-opacity="1" stroke-miterlimit="10" d="M 711.386719 722.074219 C 703.242188 705.140625 690.371094 693.003906 672.050781 688.964844 "/>
<path fill-rule="nonzero" fill="rgb(70.196078%, 70.196078%, 70.196078%)" fill-opacity="1" d="M 665.085938 687.433594 L 672.550781 686.703125 L 671.550781 691.230469 L 665.085938 687.433594 "/>
<path fill="none" stroke-width="5.5" stroke-linecap="butt" stroke-linejoin="miter" stroke="rgb(70.196078%, 70.196078%, 70.196078%)" stroke-opacity="1" stroke-miterlimit="10" d="M 750 750 C 744.101562 736.988281 734.570312 727.273438 720.671875 724.15625 "/>
<path fill-rule="nonzero" fill="rgb(70.196078%, 70.196078%, 70.196078%)" fill-opacity="1" d="M 713.710938 722.597656 L 721.179688 721.894531 L 720.164062 726.417969 L 713.710938 722.597656 "/>
<path fill-rule="nonzero" fill="rgb(14.901961%, 14.901961%, 14.901961%)" fill-opacity="1" stroke-width="1" stroke-linecap="butt" stroke-linejoin="miter" stroke="rgb(14.901961%, 14.901961%, 14.901961%)" stroke-opacity="1" stroke-miterlimit="10" d="M 259.09375 237.515625 L 261.59375 232.515625 L 264.09375 237.515625 Z M 259.09375 237.515625 "/>
<path fill-rule="nonzero" fill="rgb(70.196078%, 70.196078%, 70.196078%)" fill-opacity="1" stroke-width="1" stroke-linecap="butt" stroke-linejoin="miter" stroke="rgb(70.196078%, 70.196078%, 70.196078%)" stroke-opacity="1" stroke-miterlimit="10" d="M 259.179688 146.101562 C 259.179688 149.4375 254.179688 149.4375 254.179688 146.101562 C 254.179688 142.769531 259.179688 142.769531 259.179688 146.101562 "/>
<path fill-rule="nonzero" fill="rgb(14.901961%, 14.901961%, 14.901961%)" fill-opacity="1" stroke-width="1" stroke-linecap="butt" stroke-linejoin="miter" stroke="rgb(14.901961%, 14.901961%, 14.901961%)" stroke-opacity="1" stroke-miterlimit="10" d="M 254.71875 80.464844 L 256.96875 75.964844 L 259.21875 80.464844 Z M 254.71875 80.464844 "/>
<path fill-rule="nonzero" fill="rgb(12.156863%, 47.058824%, 70.588235%)" fill-opacity="1" stroke-width="1" stroke-linecap="butt" stroke-linejoin="miter" stroke="rgb(12.156863%, 47.058824%, 70.588235%)" stroke-opacity="1" stroke-miterlimit="10" d="M 135.164062 558.378906 C 135.164062 559.378906 133.664062 559.378906 133.664062 558.378906 C 133.664062 557.378906 135.164062 557.378906 135.164062 558.378906 "/>
<path fill-rule="nonzero" fill="rgb(12.156863%, 47.058824%, 70.588235%)" fill-opacity="1" stroke-width="1" stroke-linecap="butt" stroke-linejoin="miter" stroke="rgb(12.156863%, 47.058824%, 70.588235%)" stroke-opacity="1" stroke-miterlimit="10" d="M 75.386719 547.699219 C 75.386719 548.699219 73.886719 548.699219 73.886719 547.699219 C 73.886719 546.699219 75.386719 546.699219 75.386719 547.699219 "/>
<path fill-rule="nonzero" fill="rgb(14.901961%, 14.901961%, 14.901961%)" fill-opacity="1" stroke-width="1" stroke-linecap="butt" stroke-linejoin="miter" stroke="rgb(14.901961%, 14.901961%, 14.901961%)" stroke-opacity="1" stroke-miterlimit="10" d="M 182.035156 498.523438 L 184.535156 493.523438 L 187.035156 498.523438 Z M 182.035156 498.523438 "/>
<path fill-rule="nonzero" fill="rgb(70.196078%, 70.196078%, 70.196078%)" fill-opacity="1" stroke-width="1" stroke-linecap="butt" stroke-linejoin="miter" stroke="rgb(70.196078%, 70.196078%, 70.196078%)" stroke-opacity="1" stroke-miterlimit="10" d="M 484.75 556.609375 C 484.75 559.941406 479.75 559.941406 479.75 556.609375 C 479.75 553.273438 484.75 553.273438 484.75 556.609375 "/>
<path fill-rule="nonzero" fill="rgb(70.196078%, 70.196078%, 70.196078%)" fill-opacity="1" stroke-width="1" stroke-linecap="butt" stroke-linejoin="miter" stroke="rgb(70.196078%, 70.196078%, 70.196078%)" stroke-opacity="1" stroke-miterlimit="10" d="M 549.917969 603.617188 C 549.917969 606.949219 544.917969 606.949219 544.917969 603.617188 C 544.917969 600.285156 549.917969 600.285156 549.917969 603.617188 "/>
<path fill-rule="nonzero" fill="rgb(70.196078%, 70.196078%, 70.196078%)" fill-opacity="1" stroke-width="1" stroke-linecap="butt" stroke-linejoin="miter" stroke="rgb(70.196078%, 70.196078%, 70.196078%)" stroke-opacity="1" stroke-miterlimit="10" d="M 610.316406 647.191406 C 610.316406 650.527344 605.316406 650.527344 605.316406 647.191406 C 605.316406 643.859375 610.316406 643.859375 610.316406 647.191406 "/>
<path fill-rule="nonzero" fill="rgb(12.156863%, 47.058824%, 70.588235%)" fill-opacity="1" stroke-width="1" stroke-linecap="butt" stroke-linejoin="miter" stroke="rgb(12.156863%, 47.058824%, 70.588235%)" stroke-opacity="1" stroke-miterlimit="10" d="M 153.320312 626.644531 C 153.320312 627.644531 151.820312 627.644531 151.820312 626.644531 C 151.820312 625.644531 153.320312 625.644531 153.320312 626.644531 "/>
<path fill-rule="nonzero" fill="rgb(12.156863%, 47.058824%, 70.588235%)" fill-opacity="1" stroke-width="1" stroke-linecap="butt" stroke-linejoin="miter" stroke="rgb(12.156863%, 47.058824%, 70.588235%)" stroke-opacity="1" stroke-miterlimit="10" d="M 181.617188 559.667969 C 181.617188 561.335938 179.117188 561.335938 179.117188 559.667969 C 179.117188 558.003906 181.617188 558.003906 181.617188 559.667969 "/>
<path fill-rule="nonzero" fill="rgb(70.196078%, 70.196078%, 70.196078%)" fill-opacity="1" stroke-width="1" stroke-linecap="butt" stroke-linejoin="miter" stroke="rgb(70.196078%, 70.196078%, 70.196078%)" stroke-opacity="1" stroke-miterlimit="10" d="M 262.039062 394.605469 C 262.039062 397.9375 257.039062 397.9375 257.039062 394.605469 C 257.039062 391.269531 262.039062 391.269531 262.039062 394.605469 "/>
<path fill-rule="nonzero" fill="rgb(70.196078%, 70.196078%, 70.196078%)" fill-opacity="1" stroke-width="1" stroke-linecap="butt" stroke-linejoin="miter" stroke="rgb(70.196078%, 70.196078%, 70.196078%)" stroke-opacity="1" stroke-miterlimit="10" d="M 415.039062 506.171875 C 415.039062 509.503906 410.039062 509.503906 410.039062 506.171875 C 410.039062 502.839844 415.039062 502.839844 415.039062 506.171875 "/>
<path fill-rule="nonzero" fill="rgb(70.196078%, 70.196078%, 70.196078%)" fill-opacity="1" stroke-width="1" stroke-linecap="butt" stroke-linejoin="miter" stroke="rgb(70.196078%, 70.196078%, 70.196078%)" stroke-opacity="1" stroke-miterlimit="10" d="M 340.730469 452.242188 C 340.730469 455.574219 335.730469 455.574219 335.730469 452.242188 C 335.730469 448.90625 340.730469 448.90625 340.730469 452.242188 "/>
<path fill-rule="nonzero" fill="rgb(70.196078%, 70.196078%, 70.196078%)" fill-opacity="1" stroke-width="1" stroke-linecap="butt" stroke-linejoin="miter" stroke="rgb(70.196078%, 70.196078%, 70.196078%)" stroke-opacity="1" stroke-miterlimit="10" d="M 281.882812 138.695312 C 281.882812 142.027344 276.882812 142.027344 276.882812 138.695312 C 276.882812 135.359375 281.882812 135.359375 281.882812 138.695312 "/>
<path fill-rule="nonzero" fill="rgb(98.431373%, 60.392157%, 60%)" fill-opacity="1" stroke-width="1" stroke-linecap="butt" stroke-linejoin="miter" stroke="rgb(98.431373%, 60.392157%, 60%)" stroke-opacity="1" stroke-miterlimit="10" d="M 226.972656 108.738281 C 226.972656 109.738281 225.472656 109.738281 225.472656 108.738281 C 225.472656 107.738281 226.972656 107.738281 226.972656 108.738281 "/>
<path fill-rule="nonzero" fill="rgb(98.431373%, 60.392157%, 60%)" fill-opacity="1" stroke-width="1" stroke-linecap="butt" stroke-linejoin="miter" stroke="rgb(98.431373%, 60.392157%, 60%)" stroke-opacity="1" stroke-miterlimit="10" d="M 283.65625 50 C 283.65625 51 282.15625 51 282.15625 50 C 282.15625 49 283.65625 49 283.65625 50 "/>
<path fill-rule="nonzero" fill="rgb(98.431373%, 60.392157%, 60%)" fill-opacity="1" stroke-width="1" stroke-linecap="butt" stroke-linejoin="miter" stroke="rgb(98.431373%, 60.392157%, 60%)" stroke-opacity="1" stroke-miterlimit="10" d="M 298.457031 106.921875 C 298.457031 107.921875 296.957031 107.921875 296.957031 106.921875 C 296.957031 105.921875 298.457031 105.921875 298.457031 106.921875 "/>
<path fill-rule="nonzero" fill="rgb(70.196078%, 70.196078%, 70.196078%)" fill-opacity="1" stroke-width="1" stroke-linecap="butt" stroke-linejoin="miter" stroke="rgb(70.196078%, 70.196078%, 70.196078%)" stroke-opacity="1" stroke-miterlimit="10" d="M 665.257812 686.917969 C 665.257812 690.253906 660.257812 690.253906 660.257812 686.917969 C 660.257812 683.585938 665.257812 683.585938 665.257812 686.917969 "/>
<path fill-rule="nonzero" fill="rgb(70.196078%, 70.196078%, 70.196078%)" fill-opacity="1" stroke-width="1" stroke-linecap="butt" stroke-linejoin="miter" stroke="rgb(70.196078%, 70.196078%, 70.196078%)" stroke-opacity="1" stroke-miterlimit="10" d="M 247.09375 201.660156 C 247.09375 204.992188 242.09375 204.992188 242.09375 201.660156 C 242.09375 198.328125 247.09375 198.328125 247.09375 201.660156 "/>
<path fill-rule="nonzero" fill="rgb(12.156863%, 47.058824%, 70.588235%)" fill-opacity="1" stroke-width="1" stroke-linecap="butt" stroke-linejoin="miter" stroke="rgb(12.156863%, 47.058824%, 70.588235%)" stroke-opacity="1" stroke-miterlimit="10" d="M 111.621094 609.109375 C 111.621094 610.773438 109.121094 610.773438 109.121094 609.109375 C 109.121094 607.441406 111.621094 607.441406 111.621094 609.109375 "/>
<path fill-rule="nonzero" fill="rgb(12.156863%, 47.058824%, 70.588235%)" fill-opacity="1" stroke-width="1" stroke-linecap="butt" stroke-linejoin="miter" stroke="rgb(12.156863%, 47.058824%, 70.588235%)" stroke-opacity="1" stroke-miterlimit="10" d="M 122.210938 529.257812 C 122.210938 530.257812 120.710938 530.257812 120.710938 529.257812 C 120.710938 528.257812 122.210938 528.257812 122.210938 529.257812 "/>
<path fill-rule="nonzero" fill="rgb(12.156863%, 47.058824%, 70.588235%)" fill-opacity="1" stroke-width="1" stroke-linecap="butt" stroke-linejoin="miter" stroke="rgb(12.156863%, 47.058824%, 70.588235%)" stroke-opacity="1" stroke-miterlimit="10" d="M 50.75 644.765625 C 50.75 645.765625 49.25 645.765625 49.25 644.765625 C 49.25 643.765625 50.75 643.765625 50.75 644.765625 "/>
<path fill-rule="nonzero" fill="rgb(12.156863%, 47.058824%, 70.588235%)" fill-opacity="1" stroke-width="1" stroke-linecap="butt" stroke-linejoin="miter" stroke="rgb(12.156863%, 47.058824%, 70.588235%)" stroke-opacity="1" stroke-miterlimit="10" d="M 83.550781 608.101562 C 83.550781 610.433594 80.050781 610.433594 80.050781 608.101562 C 80.050781 605.765625 83.550781 605.765625 83.550781 608.101562 "/>
<path fill-rule="nonzero" fill="rgb(70.196078%, 70.196078%, 70.196078%)" fill-opacity="1" stroke-width="1" stroke-linecap="butt" stroke-linejoin="miter" stroke="rgb(70.196078%, 70.196078%, 70.196078%)" stroke-opacity="1" stroke-miterlimit="10" d="M 713.886719 722.074219 C 713.886719 725.410156 708.886719 725.410156 708.886719 722.074219 C 708.886719 718.742188 713.886719 718.742188 713.886719 722.074219 "/>
<path fill-rule="nonzero" fill="rgb(100%, 84.313725%, 0%)" fill-opacity="1" stroke-width="1" stroke-linecap="butt" stroke-linejoin="miter" stroke="rgb(100%, 84.313725%, 0%)" stroke-opacity="1" stroke-miterlimit="10" d="M 747.5 747.5 L 752.5 747.5 L 752.5 752.5 L 747.5 752.5 Z M 747.5 747.5 "/>
</svg>
