<?xml version="1.0" encoding="UTF-8"?>
<svg xmlns="http://www.w3.org/2000/svg" xmlns:xlink="http://www.w3.org/1999/xlink" width="800" height="800" viewBox="0 0 800 800">
<rect x="-80" y="-80" width="960" height="960" fill="rgb(100%, 100%, 100%)" fill-opacity="1"/>
<path fill="none" stroke-width="1.5" stroke-linecap="butt" stroke-linejoin="miter" stroke="rgb(12.156863%, 47.058824%, 70.588235%)" stroke-opacity="1" stroke-miterlimit="10" d="M 62.738281 730.308594 C 61.832031 732.109375 61.117188 734.867188 62.5 735.820312 "/>
<path fill-rule="nonzero" fill="rgb(12.156863%, 47.058824%, 70.588235%)" fill-opacity="1" d="M 68.371094 739.867188 L 61.183594 737.726562 L 63.8125 733.910156 L 68.371094 739.867188 "/>
<path fill="none" stroke-width="4.5" stroke-linecap="butt" stroke-linejoin="miter" stroke="rgb(70.196078%, 70.196078%, 70.196078%)" stroke-opacity="1" stroke-miterlimit="10" d="M 62.738281 730.308594 C 63.589844 728.773438 64.296875 726.199219 63.140625 725.519531 "/>
<path fill-rule="nonzero" fill="rgb(70.196078%, 70.196078%, 70.196078%)" fill-opacity="1" d="M 56.984375 721.914062 L 64.3125 723.519531 L 61.96875 727.519531 L 56.984375 721.914062 "/>
<path fill="none" stroke-width="1.5" stroke-linecap="butt" stroke-linejoin="miter" stroke="rgb(12.156863%, 47.058824%, 70.588235%)" stroke-opacity="1" stroke-miterlimit="10" d="M 62.738281 730.308594 C 61.695312 728.8125 59.691406 727 58.457031 727.742188 "/>
<path fill-rule="nonzero" fill="rgb(12.156863%, 47.058824%, 70.588235%)" fill-opacity="1" d="M 52.347656 731.425781 L 57.261719 725.757812 L 59.652344 729.730469 L 52.347656 731.425781 "/>
<path fill="none" stroke-width="1.5" stroke-linecap="butt" stroke-linejoin="miter" stroke="rgb(12.156863%, 47.058824%, 70.588235%)" stroke-opacity="1" stroke-miterlimit="10" d="M 62.738281 730.308594 C 59.492188 730.941406 55.925781 732.472656 55.347656 735.53125 "/>
<path fill-rule="nonzero" fill="rgb(12.156863%, 47.058824%, 70.588235%)" fill-opacity="1" d="M 54.027344 742.539062 L 53.070312 735.101562 L 57.625 735.960938 L 54.027344 742.539062 "/>
<path fill="none" stroke-width="1.5" stroke-linecap="butt" stroke-linejoin="miter" stroke="rgb(12.156863%, 47.058824%, 70.588235%)" stroke-opacity="1" stroke-miterlimit="10" d="M 62.738281 730.308594 C 59.832031 733.136719 57.40625 736.933594 58.65625 740.625 "/>
<path fill-rule="nonzero" fill="rgb(12.156863%, 47.058824%, 70.588235%)" fill-opacity="1" d="M 60.949219 747.378906 L 56.460938 741.371094 L 60.851562 739.878906 L 60.949219 747.378906 "/>
<path fill="none" stroke-width="1.5" stroke-linecap="butt" stroke-linejoin="miter" stroke="rgb(12.156863%, 47.058824%, 70.588235%)" stroke-opacity="1" stroke-miterlimit="10" d="M 62.738281 730.308594 C 64.746094 728.628906 66.8125 726.03125 65.863281 723.867188 "/>
<path fill-rule="nonzero" fill="rgb(12.156863%, 47.058824%, 70.588235%)" fill-opacity="1" d="M 62.992188 717.335938 L 67.984375 722.933594 L 63.742188 724.796875 L 62.992188 717.335938 "/>
<path fill="none" stroke-width="1.5" stroke-linecap="butt" stroke-linejoin="miter" stroke="rgb(12.156863%, 47.058824%, 70.588235%)" stroke-opacity="1" stroke-miterlimit="10" d="M 70.628906 741.425781 C 71.691406 742.058594 73.597656 741.417969 73.988281 741.816406 "/>
<path fill-rule="nonzero" fill="rgb(12.156863%, 47.058824%, 70.588235%)" fill-opacity="1" d="M 69 736.714844 L 75.644531 740.199219 L 72.328125 743.4375 L 69 736.714844 "/>
<path fill="none" stroke-width="4.5" stroke-linecap="butt" stroke-linejoin="miter" stroke="rgb(70.196078%, 70.196078%, 70.196078%)" stroke-opacity="1" stroke-miterlimit="10" d="M 52.613281 719.355469 C 51.496094 719.363281 49.902344 720.679688 49.835938 720.628906 "/>
<path fill-rule="nonzero" fill="rgb(70.196078%, 70.196078%, 70.196078%)" fill-opacity="1" d="M 55.542969 724.910156 L 48.445312 722.484375 L 51.226562 718.773438 L 55.542969 724.910156 "/>
<path fill="none" stroke-width="1.5" stroke-linecap="butt" stroke-linejoin="miter" stroke="rgb(12.156863%, 47.058824%, 70.588235%)" stroke-opacity="1" stroke-miterlimit="10" d="M 50 732.839844 C 48.769531 733.410156 48.328125 735.378906 47.578125 735.644531 "/>
<path fill-rule="nonzero" fill="rgb(12.156863%, 47.058824%, 70.588235%)" fill-opacity="1" d="M 54.304688 733.277344 L 48.34375 737.832031 L 46.808594 733.457031 L 54.304688 733.277344 "/>
<path fill="none" stroke-width="1.5" stroke-linecap="butt" stroke-linejoin="miter" stroke="rgb(12.156863%, 47.058824%, 70.588235%)" stroke-opacity="1" stroke-miterlimit="10" d="M 53.515625 745.253906 C 54.769531 745.964844 57.148438 746.457031 57.4375 745.617188 "/>
<path fill-rule="nonzero" fill="rgb(12.156863%, 47.058824%, 70.588235%)" fill-opacity="1" d="M 59.773438 738.878906 L 59.628906 746.375 L 55.246094 744.859375 L 59.773438 738.878906 "/>
<path fill="none" stroke-width="1.5" stroke-linecap="butt" stroke-linejoin="miter" stroke="rgb(12.156863%, 47.058824%, 70.588235%)" stroke-opacity="1" stroke-miterlimit="10" d="M 61.839844 750 C 63.765625 749.359375 66.253906 747.882812 65.925781 746.246094 "/>
<path fill-rule="nonzero" fill="rgb(12.156863%, 47.058824%, 70.588235%)" fill-opacity="1" d="M 64.527344 739.25 L 68.199219 745.789062 L 63.652344 746.699219 L 64.527344 739.25 "/>
<path fill="none" stroke-width="5.5" stroke-linecap="butt" stroke-linejoin="miter" stroke="rgb(70.196078%, 70.196078%, 70.196078%)" stroke-opacity="1" stroke-miterlimit="10" d="M 85.078125 715.492188 C 80.785156 714.445312 75.910156 714.425781 73.191406 717.703125 "/>
<path fill-rule="nonzero" fill="rgb(70.196078%, 70.196078%, 70.196078%)" fill-opacity="1" d="M 68.640625 723.195312 L 71.40625 716.222656 L 74.976562 719.183594 L 68.640625 723.195312 "/>
<path fill="none" stroke-width="1.5" stroke-linecap="butt" stroke-linejoin="miter" stroke="rgb(12.156863%, 47.058824%, 70.588235%)" stroke-opacity="1" stroke-miterlimit="10" d="M 61.886719 714.816406 C 60.886719 714.296875 58.773438 714.515625 58.808594 714.648438 "/>
<path fill-rule="nonzero" fill="rgb(12.156863%, 47.058824%, 70.588235%)" fill-opacity="1" d="M 60.542969 721.566406 L 56.558594 715.210938 L 61.054688 714.085938 L 60.542969 721.566406 "/>
<path fill="none" stroke-width="5.5" stroke-linecap="butt" stroke-linejoin="miter" stroke="rgb(70.196078%, 70.196078%, 70.196078%)" stroke-opacity="1" stroke-miterlimit="10" d="M 105.648438 699.898438 C 100.113281 699.605469 94.425781 700.8125 91.515625 705.382812 "/>
<path fill-rule="nonzero" fill="rgb(70.196078%, 70.196078%, 70.196078%)" fill-opacity="1" d="M 87.683594 711.398438 L 89.5625 704.140625 L 93.472656 706.628906 L 87.683594 711.398438 "/>
<path fill="none" stroke-width="5.5" stroke-linecap="butt" stroke-linejoin="miter" stroke="rgb(70.196078%, 70.196078%, 70.196078%)" stroke-opacity="1" stroke-miterlimit="10" d="M 125.136719 681.992188 C 119.371094 682.292969 113.652344 684.175781 111.085938 689.21875 "/>
<path fill-rule="nonzero" fill="rgb(70.196078%, 70.196078%, 70.196078%)" fill-opacity="1" d="M 107.851562 695.574219 L 109.019531 688.164062 L 113.152344 690.269531 L 107.851562 695.574219 "/>
<path fill="none" stroke-width="5.5" stroke-linecap="butt" stroke-linejoin="miter" stroke="rgb(70.196078%, 70.196078%, 70.196078%)" stroke-opacity="1" stroke-miterlimit="10" d="M 161.15625 637.910156 C 154.644531 639.742188 148.800781 643.378906 146.96875 649.785156 "/>
<path fill-rule="nonzero" fill="rgb(70.196078%, 70.196078%, 70.196078%)" fill-opacity="1" d="M 145.011719 656.644531 L 144.742188 649.148438 L 149.199219 650.421875 L 145.011719 656.644531 "/>
<path fill="none" stroke-width="5.5" stroke-linecap="butt" stroke-linejoin="miter" stroke="rgb(70.196078%, 70.196078%, 70.196078%)" stroke-opacity="1" stroke-miterlimit="10" d="M 143.675781 661.324219 C 137.523438 662.359375 131.710938 665.101562 129.488281 670.816406 "/>
<path fill-rule="nonzero" fill="rgb(70.196078%, 70.196078%, 70.196078%)" fill-opacity="1" d="M 126.898438 677.464844 L 127.328125 669.976562 L 131.644531 671.65625 L 126.898438 677.464844 "/>
<path fill="none" stroke-width="5.5" stroke-linecap="butt" stroke-linejoin="miter" stroke="rgb(70.196078%, 70.196078%, 70.196078%)" stroke-opacity="1" stroke-miterlimit="10" d="M 177.289062 611.871094 C 170.523438 614.539062 164.753906 619.070312 163.40625 626.121094 "/>
<path fill-rule="nonzero" fill="rgb(70.196078%, 70.196078%, 70.196078%)" fill-opacity="1" d="M 162.066406 633.125 L 161.128906 625.683594 L 165.683594 626.554688 L 162.066406 633.125 "/>
<path fill="none" stroke-width="5.5" stroke-linecap="butt" stroke-linejoin="miter" stroke="rgb(70.196078%, 70.196078%, 70.196078%)" stroke-opacity="1" stroke-miterlimit="10" d="M 191.695312 583.332031 C 184.800781 586.878906 179.234375 592.296875 178.476562 599.921875 "/>
<path fill-rule="nonzero" fill="rgb(70.196078%, 70.196078%, 70.196078%)" fill-opacity="1" d="M 177.769531 607.019531 L 176.171875 599.695312 L 180.78125 600.152344 L 177.769531 607.019531 "/>
<path fill="none" stroke-width="5.5" stroke-linecap="butt" stroke-linejoin="miter" stroke="rgb(70.196078%, 70.196078%, 70.196078%)" stroke-opacity="1" stroke-miterlimit="10" d="M 203.980469 552.464844 C 197.089844 556.921875 191.863281 563.199219 191.792969 571.324219 "/>
<path fill-rule="nonzero" fill="rgb(70.196078%, 70.196078%, 70.196078%)" fill-opacity="1" d="M 191.734375 578.457031 L 189.476562 571.304688 L 194.113281 571.34375 L 191.734375 578.457031 "/>
<path fill="none" stroke-width="5.5" stroke-linecap="butt" stroke-linejoin="miter" stroke="rgb(70.196078%, 70.196078%, 70.196078%)" stroke-opacity="1" stroke-miterlimit="10" d="M 369.492188 50 C 364.902344 47.25 359.480469 45.679688 354.957031 48.292969 "/>
<path fill-rule="nonzero" fill="rgb(70.196078%, 70.196078%, 70.196078%)" fill-opacity="1" d="M 348.785156 51.863281 L 353.800781 46.289062 L 356.117188 50.300781 L 348.785156 51.863281 "/>
<path fill="none" stroke-width="5.5" stroke-linecap="butt" stroke-linejoin="miter" stroke="rgb(70.196078%, 70.196078%, 70.196078%)" stroke-opacity="1" stroke-miterlimit="10" d="M 395.148438 50.84375 C 391.082031 47.15625 385.953125 44.511719 380.859375 46.210938 "/>
<path fill-rule="nonzero" fill="rgb(70.196078%, 70.196078%, 70.196078%)" fill-opacity="1" d="M 374.09375 48.464844 L 380.125 44.011719 L 381.59375 48.410156 L 374.09375 48.464844 "/>
<path fill="none" stroke-width="5.5" stroke-linecap="butt" stroke-linejoin="miter" stroke="rgb(70.196078%, 70.196078%, 70.196078%)" stroke-opacity="1" stroke-miterlimit="10" d="M 421.546875 55.996094 C 417.757812 51.433594 412.707031 47.917969 406.972656 48.875 "/>
<path fill-rule="nonzero" fill="rgb(70.196078%, 70.196078%, 70.196078%)" fill-opacity="1" d="M 399.9375 50.046875 L 406.59375 46.585938 L 407.355469 51.160156 L 399.9375 50.046875 "/>
<path fill="none" stroke-width="5.5" stroke-linecap="butt" stroke-linejoin="miter" stroke="rgb(70.196078%, 70.196078%, 70.196078%)" stroke-opacity="1" stroke-miterlimit="10" d="M 447.636719 65.316406 C 444.363281 60.027344 439.644531 55.695312 433.535156 55.796875 "/>
<path fill-rule="nonzero" fill="rgb(70.196078%, 70.196078%, 70.196078%)" fill-opacity="1" d="M 426.402344 55.914062 L 433.496094 53.480469 L 433.574219 58.113281 L 426.402344 55.914062 "/>
<path fill="none" stroke-width="5.5" stroke-linecap="butt" stroke-linejoin="miter" stroke="rgb(70.196078%, 70.196078%, 70.196078%)" stroke-opacity="1" stroke-miterlimit="10" d="M 213.78125 519.519531 C 207.035156 524.890625 202.273438 531.976562 202.980469 540.492188 "/>
<path fill-rule="nonzero" fill="rgb(70.196078%, 70.196078%, 70.196078%)" fill-opacity="1" d="M 203.574219 547.601562 L 200.671875 540.683594 L 205.292969 540.300781 L 203.574219 547.601562 "/>
<path fill="none" stroke-width="5.5" stroke-linecap="butt" stroke-linejoin="miter" stroke="rgb(70.196078%, 70.196078%, 70.196078%)" stroke-opacity="1" stroke-miterlimit="10" d="M 220.875 484.863281 C 214.402344 491.097656 210.203125 498.902344 211.726562 507.679688 "/>
<path fill-rule="nonzero" fill="rgb(70.196078%, 70.196078%, 70.196078%)" fill-opacity="1" d="M 212.945312 514.707031 L 209.441406 508.078125 L 214.011719 507.285156 L 212.945312 514.707031 "/>
<path fill="none" stroke-width="5.5" stroke-linecap="butt" stroke-linejoin="miter" stroke="rgb(70.196078%, 70.196078%, 70.196078%)" stroke-opacity="1" stroke-miterlimit="10" d="M 225.285156 448.925781 C 219.167969 455.914062 215.566406 464.308594 217.871094 473.226562 "/>
<path fill-rule="nonzero" fill="rgb(70.196078%, 70.196078%, 70.196078%)" fill-opacity="1" d="M 219.652344 480.132812 L 215.625 473.808594 L 220.113281 472.648438 L 219.652344 480.132812 "/>
<path fill="none" stroke-width="5.5" stroke-linecap="butt" stroke-linejoin="miter" stroke="rgb(70.196078%, 70.196078%, 70.196078%)" stroke-opacity="1" stroke-miterlimit="10" d="M 227.351562 412.09375 C 221.589844 419.691406 218.53125 428.53125 221.507812 437.515625 "/>
<path fill-rule="nonzero" fill="rgb(70.196078%, 70.196078%, 70.196078%)" fill-opacity="1" d="M 223.75 444.285156 L 219.308594 438.242188 L 223.707031 436.785156 L 223.75 444.285156 "/>
<path fill="none" stroke-width="5.5" stroke-linecap="butt" stroke-linejoin="miter" stroke="rgb(70.196078%, 70.196078%, 70.196078%)" stroke-opacity="1" stroke-miterlimit="10" d="M 498.175781 94.394531 C 495.816406 87.875 491.652344 82.199219 484.964844 80.78125 "/>
<path fill-rule="nonzero" fill="rgb(70.196078%, 70.196078%, 70.196078%)" fill-opacity="1" d="M 477.988281 79.300781 L 485.445312 78.511719 L 484.484375 83.046875 L 477.988281 79.300781 "/>
<path fill="none" stroke-width="5.5" stroke-linecap="butt" stroke-linejoin="miter" stroke="rgb(70.196078%, 70.196078%, 70.196078%)" stroke-opacity="1" stroke-miterlimit="10" d="M 473.226562 78.289062 C 470.425781 72.34375 465.996094 67.292969 459.5625 66.601562 "/>
<path fill-rule="nonzero" fill="rgb(70.196078%, 70.196078%, 70.196078%)" fill-opacity="1" d="M 452.46875 65.835938 L 459.808594 64.296875 L 459.3125 68.902344 L 452.46875 65.835938 "/>
<path fill="none" stroke-width="5.5" stroke-linecap="butt" stroke-linejoin="miter" stroke="rgb(70.196078%, 70.196078%, 70.196078%)" stroke-opacity="1" stroke-miterlimit="10" d="M 612.816406 202.53125 C 611.9375 194.804688 608.835938 187.660156 601.953125 184.238281 "/>
<path fill-rule="nonzero" fill="rgb(70.196078%, 70.196078%, 70.196078%)" fill-opacity="1" d="M 595.566406 181.058594 L 602.984375 182.160156 L 600.917969 186.3125 L 595.566406 181.058594 "/>
<path fill="none" stroke-width="5.5" stroke-linecap="butt" stroke-linejoin="miter" stroke="rgb(70.196078%, 70.196078%, 70.196078%)" stroke-opacity="1" stroke-miterlimit="10" d="M 591.203125 178.886719 C 590.09375 171.183594 586.777344 164.128906 579.789062 160.90625 "/>
<path fill-rule="nonzero" fill="rgb(70.196078%, 70.196078%, 70.196078%)" fill-opacity="1" d="M 573.308594 157.921875 L 580.757812 158.800781 L 578.816406 163.011719 L 573.308594 157.921875 "/>
<path fill="none" stroke-width="5.5" stroke-linecap="butt" stroke-linejoin="miter" stroke="rgb(70.196078%, 70.196078%, 70.196078%)" stroke-opacity="1" stroke-miterlimit="10" d="M 633.492188 226.75 C 632.894531 219.066406 630.078125 211.871094 623.375 208.246094 "/>
<path fill-rule="nonzero" fill="rgb(70.196078%, 70.196078%, 70.196078%)" fill-opacity="1" d="M 617.101562 204.851562 L 624.476562 206.207031 L 622.273438 210.28125 L 617.101562 204.851562 "/>
<path fill="none" stroke-width="5.5" stroke-linecap="butt" stroke-linejoin="miter" stroke="rgb(70.196078%, 70.196078%, 70.196078%)" stroke-opacity="1" stroke-miterlimit="10" d="M 522.421875 113.078125 C 520.460938 106.085938 516.546875 99.890625 509.675781 97.835938 "/>
<path fill-rule="nonzero" fill="rgb(70.196078%, 70.196078%, 70.196078%)" fill-opacity="1" d="M 502.84375 95.789062 L 510.339844 95.613281 L 509.011719 100.054688 L 502.84375 95.789062 "/>
<path fill="none" stroke-width="5.5" stroke-linecap="butt" stroke-linejoin="miter" stroke="rgb(70.196078%, 70.196078%, 70.196078%)" stroke-opacity="1" stroke-miterlimit="10" d="M 227.832031 374.652344 C 222.316406 382.675781 219.636719 391.824219 223.074219 400.859375 "/>
<path fill-rule="nonzero" fill="rgb(70.196078%, 70.196078%, 70.196078%)" fill-opacity="1" d="M 225.613281 407.527344 L 220.910156 401.683594 L 225.242188 400.035156 L 225.613281 407.527344 "/>
<path fill="none" stroke-width="5.5" stroke-linecap="butt" stroke-linejoin="miter" stroke="rgb(70.196078%, 70.196078%, 70.196078%)" stroke-opacity="1" stroke-miterlimit="10" d="M 227.875 336.828125 C 222.394531 345.039062 219.820312 354.347656 223.417969 363.46875 "/>
<path fill-rule="nonzero" fill="rgb(70.196078%, 70.196078%, 70.196078%)" fill-opacity="1" d="M 226.035156 370.105469 L 221.261719 364.320312 L 225.574219 362.617188 L 226.035156 370.105469 "/>
<path fill="none" stroke-width="5.5" stroke-linecap="butt" stroke-linejoin="miter" stroke="rgb(70.196078%, 70.196078%, 70.196078%)" stroke-opacity="1" stroke-miterlimit="10" d="M 228.648438 298.945312 C 223 307.070312 220.246094 316.351562 223.675781 325.5625 "/>
<path fill-rule="nonzero" fill="rgb(70.196078%, 70.196078%, 70.196078%)" fill-opacity="1" d="M 226.167969 332.246094 L 221.503906 326.371094 L 225.847656 324.753906 L 226.167969 332.246094 "/>
<path fill="none" stroke-width="5.5" stroke-linecap="butt" stroke-linejoin="miter" stroke="rgb(70.196078%, 70.196078%, 70.196078%)" stroke-opacity="1" stroke-miterlimit="10" d="M 690.144531 297.917969 C 690.054688 291.195312 688.058594 284.640625 682.375 281.25 "/>
<path fill-rule="nonzero" fill="rgb(70.196078%, 70.196078%, 70.196078%)" fill-opacity="1" d="M 676.25 277.59375 L 683.5625 279.257812 L 681.1875 283.238281 L 676.25 277.59375 "/>
<path fill="none" stroke-width="5.5" stroke-linecap="butt" stroke-linejoin="miter" stroke="rgb(70.196078%, 70.196078%, 70.196078%)" stroke-opacity="1" stroke-miterlimit="10" d="M 231 261.457031 C 225.070312 269.230469 221.9375 278.277344 224.933594 287.511719 "/>
<path fill-rule="nonzero" fill="rgb(70.196078%, 70.196078%, 70.196078%)" fill-opacity="1" d="M 227.136719 294.292969 L 222.730469 288.226562 L 227.136719 286.792969 L 227.136719 294.292969 "/>
<path fill="none" stroke-width="5.5" stroke-linecap="butt" stroke-linejoin="miter" stroke="rgb(70.196078%, 70.196078%, 70.196078%)" stroke-opacity="1" stroke-miterlimit="10" d="M 235.457031 224.859375 C 229.214844 232.058594 225.589844 240.671875 227.972656 249.824219 "/>
<path fill-rule="nonzero" fill="rgb(70.196078%, 70.196078%, 70.196078%)" fill-opacity="1" d="M 229.769531 256.726562 L 225.730469 250.40625 L 230.214844 249.238281 L 229.769531 256.726562 "/>
<path fill="none" stroke-width="5.5" stroke-linecap="butt" stroke-linejoin="miter" stroke="rgb(70.196078%, 70.196078%, 70.196078%)" stroke-opacity="1" stroke-miterlimit="10" d="M 242.402344 189.75 C 235.882812 196.148438 231.703125 204.117188 233.316406 213.035156 "/>
<path fill-rule="nonzero" fill="rgb(70.196078%, 70.196078%, 70.196078%)" fill-opacity="1" d="M 234.585938 220.050781 L 231.035156 213.445312 L 235.597656 212.621094 L 234.585938 220.050781 "/>
<path fill="none" stroke-width="5.5" stroke-linecap="butt" stroke-linejoin="miter" stroke="rgb(70.196078%, 70.196078%, 70.196078%)" stroke-opacity="1" stroke-miterlimit="10" d="M 264.902344 126.976562 C 258.097656 131.089844 252.808594 137.019531 252.539062 144.882812 "/>
<path fill-rule="nonzero" fill="rgb(70.196078%, 70.196078%, 70.196078%)" fill-opacity="1" d="M 252.292969 152.011719 L 250.222656 144.804688 L 254.855469 144.964844 L 252.292969 152.011719 "/>
<path fill="none" stroke-width="5.5" stroke-linecap="butt" stroke-linejoin="miter" stroke="rgb(70.196078%, 70.196078%, 70.196078%)" stroke-opacity="1" stroke-miterlimit="10" d="M 252.125 156.886719 C 245.414062 162.238281 240.671875 169.300781 241.390625 177.777344 "/>
<path fill-rule="nonzero" fill="rgb(70.196078%, 70.196078%, 70.196078%)" fill-opacity="1" d="M 241.992188 184.886719 L 239.078125 177.972656 L 243.699219 177.582031 L 241.992188 184.886719 "/>
<path fill="none" stroke-width="5.5" stroke-linecap="butt" stroke-linejoin="miter" stroke="rgb(70.196078%, 70.196078%, 70.196078%)" stroke-opacity="1" stroke-miterlimit="10" d="M 707.3125 319.117188 C 707.304688 313.050781 705.613281 307.007812 700.480469 303.992188 "/>
<path fill-rule="nonzero" fill="rgb(70.196078%, 70.196078%, 70.196078%)" fill-opacity="1" d="M 694.332031 300.378906 L 701.65625 301.992188 L 699.304688 305.988281 L 694.332031 300.378906 "/>
<path fill="none" stroke-width="5.5" stroke-linecap="butt" stroke-linejoin="miter" stroke="rgb(70.196078%, 70.196078%, 70.196078%)" stroke-opacity="1" stroke-miterlimit="10" d="M 545.972656 133.769531 C 544.355469 126.414062 540.664062 119.8125 533.683594 117.234375 "/>
<path fill-rule="nonzero" fill="rgb(70.196078%, 70.196078%, 70.196078%)" fill-opacity="1" d="M 526.992188 114.765625 L 534.488281 115.0625 L 532.882812 119.410156 L 526.992188 114.765625 "/>
<path fill="none" stroke-width="5.5" stroke-linecap="butt" stroke-linejoin="miter" stroke="rgb(70.196078%, 70.196078%, 70.196078%)" stroke-opacity="1" stroke-miterlimit="10" d="M 344.585938 54.289062 C 339.425781 52.640625 333.722656 52.355469 329.855469 55.96875 "/>
<path fill-rule="nonzero" fill="rgb(70.196078%, 70.196078%, 70.196078%)" fill-opacity="1" d="M 324.644531 60.839844 L 328.273438 54.277344 L 331.4375 57.660156 L 324.644531 60.839844 "/>
<path fill="none" stroke-width="5.5" stroke-linecap="butt" stroke-linejoin="miter" stroke="rgb(70.196078%, 70.196078%, 70.196078%)" stroke-opacity="1" stroke-miterlimit="10" d="M 280.84375 100.960938 C 274.128906 103.636719 268.40625 108.164062 267.101562 115.175781 "/>
<path fill-rule="nonzero" fill="rgb(70.196078%, 70.196078%, 70.196078%)" fill-opacity="1" d="M 265.792969 122.1875 L 264.820312 114.753906 L 269.378906 115.601562 L 265.792969 122.1875 "/>
<path fill="none" stroke-width="5.5" stroke-linecap="butt" stroke-linejoin="miter" stroke="rgb(70.196078%, 70.196078%, 70.196078%)" stroke-opacity="1" stroke-miterlimit="10" d="M 299.753906 79.777344 C 293.390625 80.914062 287.4375 83.828125 285.152344 89.765625 "/>
<path fill-rule="nonzero" fill="rgb(70.196078%, 70.196078%, 70.196078%)" fill-opacity="1" d="M 282.589844 96.421875 L 282.988281 88.933594 L 287.316406 90.597656 L 282.589844 96.421875 "/>
<path fill="none" stroke-width="5.5" stroke-linecap="butt" stroke-linejoin="miter" stroke="rgb(70.196078%, 70.196078%, 70.196078%)" stroke-opacity="1" stroke-miterlimit="10" d="M 321.101562 64.148438 C 315.339844 63.808594 309.453125 65.042969 306.34375 69.765625 "/>
<path fill-rule="nonzero" fill="rgb(70.196078%, 70.196078%, 70.196078%)" fill-opacity="1" d="M 302.421875 75.722656 L 304.410156 68.492188 L 308.28125 71.039062 L 302.421875 75.722656 "/>
<path fill="none" stroke-width="5.5" stroke-linecap="butt" stroke-linejoin="miter" stroke="rgb(70.196078%, 70.196078%, 70.196078%)" stroke-opacity="1" stroke-miterlimit="10" d="M 568.882812 155.878906 C 567.550781 148.289062 564.054688 141.402344 557.035156 138.4375 "/>
<path fill-rule="nonzero" fill="rgb(70.196078%, 70.196078%, 70.196078%)" fill-opacity="1" d="M 550.460938 135.664062 L 557.933594 136.300781 L 556.132812 140.574219 L 550.460938 135.664062 "/>
<path fill="none" stroke-width="5.5" stroke-linecap="butt" stroke-linejoin="miter" stroke="rgb(70.196078%, 70.196078%, 70.196078%)" stroke-opacity="1" stroke-miterlimit="10" d="M 672.070312 275.101562 C 671.886719 267.890625 669.625 260.960938 663.507812 257.316406 "/>
<path fill-rule="nonzero" fill="rgb(70.196078%, 70.196078%, 70.196078%)" fill-opacity="1" d="M 657.382812 253.664062 L 664.695312 255.324219 L 662.324219 259.308594 L 657.382812 253.664062 "/>
<path fill="none" stroke-width="5.5" stroke-linecap="butt" stroke-linejoin="miter" stroke="rgb(70.196078%, 70.196078%, 70.196078%)" stroke-opacity="1" stroke-miterlimit="10" d="M 653.199219 251.175781 C 652.855469 243.640625 650.332031 236.496094 643.882812 232.761719 "/>
<path fill-rule="nonzero" fill="rgb(70.196078%, 70.196078%, 70.196078%)" fill-opacity="1" d="M 637.710938 229.191406 L 645.042969 230.757812 L 642.722656 234.769531 L 637.710938 229.191406 "/>
<path fill="none" stroke-width="5.5" stroke-linecap="butt" stroke-linejoin="miter" stroke="rgb(70.196078%, 70.196078%, 70.196078%)" stroke-opacity="1" stroke-miterlimit="10" d="M 750 365.546875 C 750.5625 363.339844 750.695312 360.265625 748.917969 359.410156 "/>
<path fill-rule="nonzero" fill="rgb(70.196078%, 70.196078%, 70.196078%)" fill-opacity="1" d="M 742.496094 356.308594 L 749.925781 357.320312 L 747.914062 361.496094 L 742.496094 356.308594 "/>
<path fill="none" stroke-width="5.5" stroke-linecap="butt" stroke-linejoin="miter" stroke="rgb(70.196078%, 70.196078%, 70.196078%)" stroke-opacity="1" stroke-miterlimit="10" d="M 737.910156 354.097656 C 738.128906 350.050781 737.335938 345.585938 733.910156 343.753906 "/>
<path fill-rule="nonzero" fill="rgb(70.196078%, 70.196078%, 70.196078%)" fill-opacity="1" d="M 727.617188 340.390625 L 735.003906 341.710938 L 732.816406 345.796875 L 727.617188 340.390625 "/>
<path fill="none" stroke-width="5.5" stroke-linecap="butt" stroke-linejoin="miter" stroke="rgb(70.196078%, 70.196078%, 70.196078%)" stroke-opacity="1" stroke-miterlimit="10" d="M 723.363281 338.117188 C 723.445312 332.910156 722.136719 327.542969 717.722656 325.035156 "/>
<path fill-rule="nonzero" fill="rgb(70.196078%, 70.196078%, 70.196078%)" fill-opacity="1" d="M 711.523438 321.511719 L 718.867188 323.019531 L 716.578125 327.050781 L 711.523438 321.511719 "/>
<path fill-rule="nonzero" fill="rgb(14.901961%, 14.901961%, 14.901961%)" fill-opacity="1" stroke-width="1" stroke-linecap="butt" stroke-linejoin="miter" stroke="rgb(14.901961%, 14.901961%, 14.901961%)" stroke-opacity="1" stroke-miterlimit="10" d="M 53.886719 739.160156 L 62.738281 721.460938 L 71.589844 739.160156 Z M 53.886719 739.160156 "/>
<path fill-rule="nonzero" fill="rgb(12.156863%, 47.058824%, 70.588235%)" fill-opacity="1" stroke-width="1" stroke-linecap="butt" stroke-linejoin="miter" stroke="rgb(12.156863%, 47.058824%, 70.588235%)" stroke-opacity="1" stroke-miterlimit="10" d="M 73.378906 741.425781 C 73.378906 745.09375 67.878906 745.09375 67.878906 741.425781 C 67.878906 737.757812 73.378906 737.757812 73.378906 741.425781 "/>
<path fill-rule="nonzero" fill="rgb(70.196078%, 70.196078%, 70.196078%)" fill-opacity="1" stroke-width="1" stroke-linecap="butt" stroke-linejoin="miter" stroke="rgb(70.196078%, 70.196078%, 70.196078%)" stroke-opacity="1" stroke-miterlimit="10" d="M 57.460938 719.355469 C 57.460938 725.820312 47.761719 725.820312 47.761719 719.355469 C 47.761719 712.886719 57.460938 712.886719 57.460938 719.355469 "/>
<path fill-rule="nonzero" fill="rgb(12.156863%, 47.058824%, 70.588235%)" fill-opacity="1" stroke-width="1" stroke-linecap="butt" stroke-linejoin="miter" stroke="rgb(12.156863%, 47.058824%, 70.588235%)" stroke-opacity="1" stroke-miterlimit="10" d="M 52.75 732.839844 C 52.75 736.503906 47.25 736.503906 47.25 732.839844 C 47.25 729.171875 52.75 729.171875 52.75 732.839844 "/>
<path fill-rule="nonzero" fill="rgb(12.156863%, 47.058824%, 70.588235%)" fill-opacity="1" stroke-width="1" stroke-linecap="butt" stroke-linejoin="miter" stroke="rgb(12.156863%, 47.058824%, 70.588235%)" stroke-opacity="1" stroke-miterlimit="10" d="M 56.265625 745.253906 C 56.265625 748.921875 50.765625 748.921875 50.765625 745.253906 C 50.765625 741.589844 56.265625 741.589844 56.265625 745.253906 "/>
<path fill-rule="nonzero" fill="rgb(12.156863%, 47.058824%, 70.588235%)" fill-opacity="1" stroke-width="1" stroke-linecap="butt" stroke-linejoin="miter" stroke="rgb(12.156863%, 47.058824%, 70.588235%)" stroke-opacity="1" stroke-miterlimit="10" d="M 64.589844 750 C 64.589844 753.667969 59.089844 753.667969 59.089844 750 C 59.089844 746.332031 64.589844 746.332031 64.589844 750 "/>
<path fill-rule="nonzero" fill="rgb(70.196078%, 70.196078%, 70.196078%)" fill-opacity="1" stroke-width="1" stroke-linecap="butt" stroke-linejoin="miter" stroke="rgb(70.196078%, 70.196078%, 70.196078%)" stroke-opacity="1" stroke-miterlimit="10" d="M 89.929688 715.492188 C 89.929688 721.957031 80.230469 721.957031 80.230469 715.492188 C 80.230469 709.023438 89.929688 709.023438 89.929688 715.492188 "/>
<path fill-rule="nonzero" fill="rgb(12.156863%, 47.058824%, 70.588235%)" fill-opacity="1" stroke-width="1" stroke-linecap="butt" stroke-linejoin="miter" stroke="rgb(12.156863%, 47.058824%, 70.588235%)" stroke-opacity="1" stroke-miterlimit="10" d="M 64.636719 714.816406 C 64.636719 718.480469 59.136719 718.480469 59.136719 714.816406 C 59.136719 711.148438 64.636719 711.148438 64.636719 714.816406 "/>
<path fill-rule="nonzero" fill="rgb(70.196078%, 70.196078%, 70.196078%)" fill-opacity="1" stroke-width="1" stroke-linecap="butt" stroke-linejoin="miter" stroke="rgb(70.196078%, 70.196078%, 70.196078%)" stroke-opacity="1" stroke-miterlimit="10" d="M 110.5 699.898438 C 110.5 706.363281 100.796875 706.363281 100.796875 699.898438 C 100.796875 693.433594 110.5 693.433594 110.5 699.898438 "/>
<path fill-rule="nonzero" fill="rgb(70.196078%, 70.196078%, 70.196078%)" fill-opacity="1" stroke-width="1" stroke-linecap="butt" stroke-linejoin="miter" stroke="rgb(70.196078%, 70.196078%, 70.196078%)" stroke-opacity="1" stroke-miterlimit="10" d="M 129.988281 681.992188 C 129.988281 688.457031 120.285156 688.457031 120.285156 681.992188 C 120.285156 675.523438 129.988281 675.523438 129.988281 681.992188 "/>
<path fill-rule="nonzero" fill="rgb(70.196078%, 70.196078%, 70.196078%)" fill-opacity="1" stroke-width="1" stroke-linecap="butt" stroke-linejoin="miter" stroke="rgb(70.196078%, 70.196078%, 70.196078%)" stroke-opacity="1" stroke-miterlimit="10" d="M 166.003906 637.910156 C 166.003906 644.375 156.304688 644.375 156.304688 637.910156 C 156.304688 631.441406 166.003906 631.441406 166.003906 637.910156 "/>
<path fill-rule="nonzero" fill="rgb(70.196078%, 70.196078%, 70.196078%)" fill-opacity="1" stroke-width="1" stroke-linecap="butt" stroke-linejoin="miter" stroke="rgb(70.196078%, 70.196078%, 70.196078%)" stroke-opacity="1" stroke-miterlimit="10" d="M 148.523438 661.324219 C 148.523438 667.789062 138.824219 667.789062 138.824219 661.324219 C 138.824219 654.855469 148.523438 654.855469 148.523438 661.324219 "/>
<path fill-rule="nonzero" fill="rgb(70.196078%, 70.196078%, 70.196078%)" fill-opacity="1" stroke-width="1" stroke-linecap="butt" stroke-linejoin="miter" stroke="rgb(70.196078%, 70.196078%, 70.196078%)" stroke-opacity="1" stroke-miterlimit="10" d="M 182.136719 611.871094 C 182.136719 618.335938 172.4375 618.335938 172.4375 611.871094 C 172.4375 605.402344 182.136719 605.402344 182.136719 611.871094 "/>
<path fill-rule="nonzero" fill="rgb(70.196078%, 70.196078%, 70.196078%)" fill-opacity="1" stroke-width="1" stroke-linecap="butt" stroke-linejoin="miter" stroke="rgb(70.196078%, 70.196078%, 70.196078%)" stroke-opacity="1" stroke-miterlimit="10" d="M 196.546875 583.332031 C 196.546875 589.800781 186.847656 589.800781 186.847656 583.332031 C 186.847656 576.867188 196.546875 576.867188 196.546875 583.332031 "/>
<path fill-rule="nonzero" fill="rgb(70.196078%, 70.196078%, 70.196078%)" fill-opacity="1" stroke-width="1" stroke-linecap="butt" stroke-linejoin="miter" stroke="rgb(70.196078%, 70.196078%, 70.196078%)" stroke-opacity="1" stroke-miterlimit="10" d="M 208.828125 552.464844 C 208.828125 558.929688 199.128906 558.929688 199.128906 552.464844 C 199.128906 545.996094 208.828125 545.996094 208.828125 552.464844 "/>
<path fill-rule="nonzero" fill="rgb(70.196078%, 70.196078%, 70.196078%)" fill-opacity="1" stroke-width="1" stroke-linecap="butt" stroke-linejoin="miter" stroke="rgb(70.196078%, 70.196078%, 70.196078%)" stroke-opacity="1" stroke-miterlimit="10" d="M 374.34375 50 C 374.34375 56.464844 364.644531 56.464844 364.644531 50 C 364.644531 43.535156 374.34375 43.535156 374.34375 50 "/>
<path fill-rule="nonzero" fill="rgb(70.196078%, 70.196078%, 70.196078%)" fill-opacity="1" stroke-width="1" stroke-linecap="butt" stroke-linejoin="miter" stroke="rgb(70.196078%, 70.196078%, 70.196078%)" stroke-opacity="1" stroke-miterlimit="10" d="M 400 50.84375 C 400 57.308594 390.300781 57.308594 390.300781 50.84375 C 390.300781 44.375 400 44.375 400 50.84375 "/>
<path fill-rule="nonzero" fill="rgb(70.196078%, 70.196078%, 70.196078%)" fill-opacity="1" stroke-width="1" stroke-linecap="butt" stroke-linejoin="miter" stroke="rgb(70.196078%, 70.196078%, 70.196078%)" stroke-opacity="1" stroke-miterlimit="10" d="M 426.394531 55.996094 C 426.394531 62.460938 416.695312 62.460938 416.695312 55.996094 C 416.695312 49.527344 426.394531 49.527344 426.394531 55.996094 "/>
<path fill-rule="nonzero" fill="rgb(70.196078%, 70.196078%, 70.196078%)" fill-opacity="1" stroke-width="1" stroke-linecap="butt" stroke-linejoin="miter" stroke="rgb(70.196078%, 70.196078%, 70.196078%)" stroke-opacity="1" stroke-miterlimit="10" d="M 452.484375 65.316406 C 452.484375 71.785156 442.785156 71.785156 442.785156 65.316406 C 442.785156 58.851562 452.484375 58.851562 452.484375 65.316406 "/>
<path fill-rule="nonzero" fill="rgb(70.196078%, 70.196078%, 70.196078%)" fill-opacity="1" stroke-width="1" stroke-linecap="butt" stroke-linejoin="miter" stroke="rgb(70.196078%, 70.196078%, 70.196078%)" stroke-opacity="1" stroke-miterlimit="10" d="M 218.628906 519.519531 C 218.628906 525.988281 208.929688 525.988281 208.929688 519.519531 C 208.929688 513.054688 218.628906 513.054688 218.628906 519.519531 "/>
<path fill-rule="nonzero" fill="rgb(70.196078%, 70.196078%, 70.196078%)" fill-opacity="1" stroke-width="1" stroke-linecap="butt" stroke-linejoin="miter" stroke="rgb(70.196078%, 70.196078%, 70.196078%)" stroke-opacity="1" stroke-miterlimit="10" d="M 225.726562 484.863281 C 225.726562 491.332031 216.023438 491.332031 216.023438 484.863281 C 216.023438 478.398438 225.726562 478.398438 225.726562 484.863281 "/>
<path fill-rule="nonzero" fill="rgb(70.196078%, 70.196078%, 70.196078%)" fill-opacity="1" stroke-width="1" stroke-linecap="butt" stroke-linejoin="miter" stroke="rgb(70.196078%, 70.196078%, 70.196078%)" stroke-opacity="1" stroke-miterlimit="10" d="M 230.136719 448.925781 C 230.136719 455.394531 220.4375 455.394531 220.4375 448.925781 C 220.4375 442.460938 230.136719 442.460938 230.136719 448.925781 "/>
<path fill-rule="nonzero" fill="rgb(70.196078%, 70.196078%, 70.196078%)" fill-opacity="1" stroke-width="1" stroke-linecap="butt" stroke-linejoin="miter" stroke="rgb(70.196078%, 70.196078%, 70.196078%)" stroke-opacity="1" stroke-miterlimit="10" d="M 232.199219 412.09375 C 232.199219 418.5625 222.5 418.5625 222.5 412.09375 C 222.5 405.628906 232.199219 405.628906 232.199219 412.09375 "/>
<path fill-rule="nonzero" fill="rgb(70.196078%, 70.196078%, 70.196078%)" fill-opacity="1" stroke-width="1" stroke-linecap="butt" stroke-linejoin="miter" stroke="rgb(70.196078%, 70.196078%, 70.196078%)" stroke-opacity="1" stroke-miterlimit="10" d="M 503.027344 94.394531 C 503.027344 100.859375 493.328125 100.859375 493.328125 94.394531 C 493.328125 87.925781 503.027344 87.925781 503.027344 94.394531 "/>
<path fill-rule="nonzero" fill="rgb(70.196078%, 70.196078%, 70.196078%)" fill-opacity="1" stroke-width="1" stroke-linecap="butt" stroke-linejoin="miter" stroke="rgb(70.196078%, 70.196078%, 70.196078%)" stroke-opacity="1" stroke-miterlimit="10" d="M 478.078125 78.289062 C 478.078125 84.757812 468.378906 84.757812 468.378906 78.289062 C 468.378906 71.824219 478.078125 71.824219 478.078125 78.289062 "/>
<path fill-rule="nonzero" fill="rgb(70.196078%, 70.196078%, 70.196078%)" fill-opacity="1" stroke-width="1" stroke-linecap="butt" stroke-linejoin="miter" stroke="rgb(70.196078%, 70.196078%, 70.196078%)" stroke-opacity="1" stroke-miterlimit="10" d="M 617.664062 202.53125 C 617.664062 208.996094 607.964844 208.996094 607.964844 202.53125 C 607.964844 196.0625 617.664062 196.0625 617.664062 202.53125 "/>
<path fill-rule="nonzero" fill="rgb(70.196078%, 70.196078%, 70.196078%)" fill-opacity="1" stroke-width="1" stroke-linecap="butt" stroke-linejoin="miter" stroke="rgb(70.196078%, 70.196078%, 70.196078%)" stroke-opacity="1" stroke-miterlimit="10" d="M 596.050781 178.886719 C 596.050781 185.355469 586.351562 185.355469 586.351562 178.886719 C 586.351562 172.421875 596.050781 172.421875 596.050781 178.886719 "/>
<path fill-rule="nonzero" fill="rgb(70.196078%, 70.196078%, 70.196078%)" fill-opacity="1" stroke-width="1" stroke-linecap="butt" stroke-linejoin="miter" stroke="rgb(70.196078%, 70.196078%, 70.196078%)" stroke-opacity="1" stroke-miterlimit="10" d="M 638.34375 226.75 C 638.34375 233.21875 628.640625 233.21875 628.640625 226.75 C 628.640625 220.285156 638.34375 220.285156 638.34375 226.75 "/>
<path fill-rule="nonzero" fill="rgb(70.196078%, 70.196078%, 70.196078%)" fill-opacity="1" stroke-width="1" stroke-linecap="butt" stroke-linejoin="miter" stroke="rgb(70.196078%, 70.196078%, 70.196078%)" stroke-opacity="1" stroke-miterlimit="10" d="M 527.273438 113.078125 C 527.273438 119.546875 517.574219 119.546875 517.574219 113.078125 C 517.574219 106.613281 527.273438 106.613281 527.273438 113.078125 "/>
<path fill-rule="nonzero" fill="rgb(70.196078%, 70.196078%, 70.196078%)" fill-opacity="1" stroke-width="1" stroke-linecap="butt" stroke-linejoin="miter" stroke="rgb(70.196078%, 70.196078%, 70.196078%)" stroke-opacity="1" stroke-miterlimit="10" d="M 232.679688 374.652344 C 232.679688 381.121094 222.980469 381.121094 222.980469 374.652344 C 222.980469 368.1875 232.679688 368.1875 232.679688 374.652344 "/>
<path fill-rule="nonzero" fill="rgb(70.196078%, 70.196078%, 70.196078%)" fill-opacity="1" stroke-width="1" stroke-linecap="butt" stroke-linejoin="miter" stroke="rgb(70.196078%, 70.196078%, 70.196078%)" stroke-opacity="1" stroke-miterlimit="10" d="M 232.726562 336.828125 C 232.726562 343.292969 223.023438 343.292969 223.023438 336.828125 C 223.023438 330.363281 232.726562 330.363281 232.726562 336.828125 "/>
<path fill-rule="nonzero" fill="rgb(70.196078%, 70.196078%, 70.196078%)" fill-opacity="1" stroke-width="1" stroke-linecap="butt" stroke-linejoin="miter" stroke="rgb(70.196078%, 70.196078%, 70.196078%)" stroke-opacity="1" stroke-miterlimit="10" d="M 233.496094 298.945312 C 233.496094 305.410156 223.796875 305.410156 223.796875 298.945312 C 223.796875 292.476562 233.496094 292.476562 233.496094 298.945312 "/>
<path fill-rule="nonzero" fill="rgb(70.196078%, 70.196078%, 70.196078%)" fill-opacity="1" stroke-width="1" stroke-linecap="butt" stroke-linejoin="miter" stroke="rgb(70.196078%, 70.196078%, 70.196078%)" stroke-opacity="1" stroke-miterlimit="10" d="M 694.996094 297.917969 C 694.996094 304.382812 685.292969 304.382812 685.292969 297.917969 C 685.292969 291.449219 694.996094 291.449219 694.996094 297.917969 "/>
<path fill-rule="nonzero" fill="rgb(70.196078%, 70.196078%, 70.196078%)" fill-opacity="1" stroke-width="1" stroke-linecap="butt" stroke-linejoin="miter" stroke="rgb(70.196078%, 70.196078%, 70.196078%)" stroke-opacity="1" stroke-miterlimit="10" d="M 235.847656 261.457031 C 235.847656 267.921875 226.148438 267.921875 226.148438 261.457031 C 226.148438 254.988281 235.847656 254.988281 235.847656 261.457031 "/>
<path fill-rule="nonzero" fill="rgb(70.196078%, 70.196078%, 70.196078%)" fill-opacity="1" stroke-width="1" stroke-linecap="butt" stroke-linejoin="miter" stroke="rgb(70.196078%, 70.196078%, 70.196078%)" stroke-opacity="1" stroke-miterlimit="10" d="M 240.304688 224.859375 C 240.304688 231.328125 230.605469 231.328125 230.605469 224.859375 C 230.605469 218.394531 240.304688 218.394531 240.304688 224.859375 "/>
<path fill-rule="nonzero" fill="rgb(70.196078%, 70.196078%, 70.196078%)" fill-opacity="1" stroke-width="1" stroke-linecap="butt" stroke-linejoin="miter" stroke="rgb(70.196078%, 70.196078%, 70.196078%)" stroke-opacity="1" stroke-miterlimit="10" d="M 247.253906 189.75 C 247.253906 196.214844 237.554688 196.214844 237.554688 189.75 C 237.554688 183.285156 247.253906 183.285156 247.253906 189.75 "/>
<path fill-rule="nonzero" fill="rgb(70.196078%, 70.196078%, 70.196078%)" fill-opacity="1" stroke-width="1" stroke-linecap="butt" stroke-linejoin="miter" stroke="rgb(70.196078%, 70.196078%, 70.196078%)" stroke-opacity="1" stroke-miterlimit="10" d="M 269.753906 126.976562 C 269.753906 133.441406 260.054688 133.441406 260.054688 126.976562 C 260.054688 120.507812 269.753906 120.507812 269.753906 126.976562 "/>
<path fill-rule="nonzero" fill="rgb(70.196078%, 70.196078%, 70.196078%)" fill-opacity="1" stroke-width="1" stroke-linecap="butt" stroke-linejoin="miter" stroke="rgb(70.196078%, 70.196078%, 70.196078%)" stroke-opacity="1" stroke-miterlimit="10" d="M 256.976562 156.886719 C 256.976562 163.351562 247.277344 163.351562 247.277344 156.886719 C 247.277344 150.417969 256.976562 150.417969 256.976562 156.886719 "/>
<path fill-rule="nonzero" fill="rgb(70.196078%, 70.196078%, 70.196078%)" fill-opacity="1" stroke-width="1" stroke-linecap="butt" stroke-linejoin="miter" stroke="rgb(70.196078%, 70.196078%, 70.196078%)" stroke-opacity="1" stroke-miterlimit="10" d="M 712.160156 319.117188 C 712.160156 325.582031 702.460938 325.582031 702.460938 319.117188 C 702.460938 312.648438 712.160156 312.648438 712.160156 319.117188 "/>
<path fill-rule="nonzero" fill="rgb(70.196078%, 70.196078%, 70.196078%)" fill-opacity="1" stroke-width="1" stroke-linecap="butt" stroke-linejoin="miter" stroke="rgb(70.196078%, 70.196078%, 70.196078%)" stroke-opacity="1" stroke-miterlimit="10" d="M 550.824219 133.769531 C 550.824219 140.234375 541.121094 140.234375 541.121094 133.769531 C 541.121094 127.300781 550.824219 127.300781 550.824219 133.769531 "/>
<path fill-rule="nonzero" fill="rgb(70.196078%, 70.196078%, 70.196078%)" fill-opacity="1" stroke-width="1" stroke-linecap="butt" stroke-linejoin="miter" stroke="rgb(70.196078%, 70.196078%, 70.196078%)" stroke-opacity="1" stroke-miterlimit="10" d="M 349.4375 54.289062 C 349.4375 60.757812 339.738281 60.757812 339.738281 54.289062 C 339.738281 47.824219 349.4375 47.824219 349.4375 54.289062 "/>
<path fill-rule="nonzero" fill="rgb(70.196078%, 70.196078%, 70.196078%)" fill-opacity="1" stroke-width="1" stroke-linecap="butt" stroke-linejoin="miter" stroke="rgb(70.196078%, 70.196078%, 70.196078%)" stroke-opacity="1" stroke-miterlimit="10" d="M 285.695312 100.960938 C 285.695312 107.425781 275.996094 107.425781 275.996094 100.960938 C 275.996094 94.492188 285.695312 94.492188 285.695312 100.960938 "/>
<path fill-rule="nonzero" fill="rgb(70.196078%, 70.196078%, 70.196078%)" fill-opacity="1" stroke-width="1" stroke-linecap="butt" stroke-linejoin="miter" stroke="rgb(70.196078%, 70.196078%, 70.196078%)" stroke-opacity="1" stroke-miterlimit="10" d="M 304.605469 79.777344 C 304.605469 86.242188 294.90625 86.242188 294.90625 79.777344 C 294.90625 73.308594 304.605469 73.308594 304.605469 79.777344 "/>
<path fill-rule="nonzero" fill="rgb(70.196078%, 70.196078%, 70.196078%)" fill-opacity="1" stroke-width="1" stroke-linecap="butt" stroke-linejoin="miter" stroke="rgb(70.196078%, 70.196078%, 70.196078%)" stroke-opacity="1" stroke-miterlimit="10" d="M 325.953125 64.148438 C 325.953125 70.617188 316.253906 70.617188 316.253906 64.148438 C 316.253906 57.683594 325.953125 57.683594 325.953125 64.148438 "/>
<path fill-rule="nonzero" fill="rgb(70.196078%, 70.196078%, 70.196078%)" fill-opacity="1" stroke-width="1" stroke-linecap="butt" stroke-linejoin="miter" stroke="rgb(70.196078%, 70.196078%, 70.196078%)" stroke-opacity="1" stroke-miterlimit="10" d="M 573.734375 155.878906 C 573.734375 162.34375 564.035156 162.34375 564.035156 155.878906 C 564.035156 149.414062 573.734375 149.414062 573.734375 155.878906 "/>
<path fill-rule="nonzero" fill="rgb(70.196078%, 70.196078%, 70.196078%)" fill-opacity="1" stroke-width="1" stroke-linecap="butt" stroke-linejoin="miter" stroke="rgb(70.196078%, 70.196078%, 70.196078%)" stroke-opacity="1" stroke-miterlimit="10" d="M 676.921875 275.101562 C 676.921875 281.570312 667.222656 281.570312 667.222656 275.101562 C 667.222656 268.636719 676.921875 268.636719 676.921875 275.101562 "/>
<path fill-rule="nonzero" fill="rgb(70.196078%, 70.196078%, 70.196078%)" fill-opacity="1" stroke-width="1" stroke-linecap="butt" stroke-linejoin="miter" stroke="rgb(70.196078%, 70.196078%, 70.196078%)" stroke-opacity="1" stroke-miterlimit="10" d="M 658.050781 251.175781 C 658.050781 257.640625 648.347656 257.640625 648.347656 251.175781 C 648.347656 244.707031 658.050781 244.707031 658.050781 251.175781 "/>
<path fill-rule="nonzero" fill="rgb(100%, 84.313725%, 0%)" fill-opacity="1" stroke-width="1" stroke-linecap="butt" stroke-linejoin="miter" stroke="rgb(100%, 84.313725%, 0%)" stroke-opacity="1" stroke-miterlimit="10" d="M 744.648438 360.199219 L 755.347656 360.199219 L 755.347656 370.898438 L 744.648438 370.898438 Z M 744.648438 360.199219 "/>
<path fill-rule="nonzero" fill="rgb(70.196078%, 70.196078%, 70.196078%)" fill-opacity="1" stroke-width="1" stroke-linecap="butt" stroke-linejoin="miter" stroke="rgb(70.196078%, 70.196078%, 70.196078%)" stroke-opacity="1" stroke-miterlimit="10" d="M 742.757812 354.097656 C 742.757812 360.566406 733.058594 360.566406 733.058594 354.097656 C 733.058594 347.632812 742.757812 347.632812 742.757812 354.097656 "/>
<path fill-rule="nonzero" fill="rgb(70.196078%, 70.196078%, 70.196078%)" fill-opacity="1" stroke-width="1" stroke-linecap="butt" stroke-linejoin="miter" stroke="rgb(70.196078%, 70.196078%, 70.196078%)" stroke-opacity="1" stroke-miterlimit="10" d="M 728.214844 338.117188 C 728.214844 344.582031 718.511719 344.582031 718.511719 338.117188 C 718.511719 331.648438 728.214844 331.648438 728.214844 338.117188 "/>
</svg>
