<?xml version="1.0" encoding="UTF-8"?>
<svg xmlns="http://www.w3.org/2000/svg" xmlns:xlink="http://www.w3.org/1999/xlink" width="800" height="800" viewBox="0 0 800 800">
<rect x="-80" y="-80" width="960" height="960" fill="rgb(100%, 100%, 100%)" fill-opacity="1"/>
<path fill="none" stroke-width="4.5" stroke-linecap="butt" stroke-linejoin="miter" stroke="rgb(70.196078%, 70.196078%, 70.196078%)" stroke-opacity="1" stroke-miterlimit="10" d="M 623.160156 654.65625 C 627.738281 622.363281 620.328125 593 598.328125 568.953125 "/>
<path fill-rule="nonzero" fill="rgb(70.196078%, 70.196078%, 70.196078%)" fill-opacity="1" d="M 593.511719 563.6875 L 600.039062 567.386719 L 596.617188 570.515625 L 593.511719 563.6875 "/>
<path fill="none" stroke-width="4.5" stroke-linecap="butt" stroke-linejoin="miter" stroke="rgb(70.196078%, 70.196078%, 70.196078%)" stroke-opacity="1" stroke-miterlimit="10" d="M 74.644531 641.902344 C 88.40625 634.136719 98.121094 622.691406 100.261719 607.078125 "/>
<path fill-rule="nonzero" fill="rgb(70.196078%, 70.196078%, 70.196078%)" fill-opacity="1" d="M 101.230469 600.011719 L 102.558594 607.394531 L 97.964844 606.765625 L 101.230469 600.011719 "/>
<path fill="none" stroke-width="4.5" stroke-linecap="butt" stroke-linejoin="miter" stroke="rgb(70.196078%, 70.196078%, 70.196078%)" stroke-opacity="1" stroke-miterlimit="10" d="M 50 638.644531 C 53.4375 642.546875 58.011719 645.636719 62.957031 644.527344 "/>
<path fill-rule="nonzero" fill="rgb(70.196078%, 70.196078%, 70.196078%)" fill-opacity="1" d="M 69.917969 642.964844 L 63.464844 646.789062 L 62.449219 642.265625 L 69.917969 642.964844 "/>
<path fill="none" stroke-width="1.5" stroke-linecap="butt" stroke-linejoin="miter" stroke="rgb(12.156863%, 47.058824%, 70.588235%)" stroke-opacity="1" stroke-miterlimit="10" d="M 50 638.644531 C 60.675781 630.894531 67.785156 620.46875 67.9375 607.324219 "/>
<path fill-rule="nonzero" fill="rgb(12.156863%, 47.058824%, 70.588235%)" fill-opacity="1" d="M 68.019531 600.195312 L 70.253906 607.351562 L 65.617188 607.300781 L 68.019531 600.195312 "/>
<path fill="none" stroke-width="2.5" stroke-linecap="butt" stroke-linejoin="miter" stroke="rgb(70.196078%, 70.196078%, 70.196078%)" stroke-opacity="1" stroke-miterlimit="10" d="M 292.105469 429.46875 C 293.878906 436.214844 297.539062 442.277344 304.109375 444.304688 "/>
<path fill-rule="nonzero" fill="rgb(70.196078%, 70.196078%, 70.196078%)" fill-opacity="1" d="M 310.925781 446.40625 L 303.425781 446.519531 L 304.792969 442.089844 L 310.925781 446.40625 "/>
<path fill="none" stroke-width="1.5" stroke-linecap="butt" stroke-linejoin="miter" stroke="rgb(12.156863%, 47.058824%, 70.588235%)" stroke-opacity="1" stroke-miterlimit="10" d="M 68.046875 597.578125 C 75.226562 601.824219 83.296875 603.722656 90.722656 600.113281 "/>
<path fill-rule="nonzero" fill="rgb(12.156863%, 47.058824%, 70.588235%)" fill-opacity="1" d="M 97.136719 596.992188 L 91.734375 602.199219 L 89.707031 598.03125 L 97.136719 596.992188 "/>
<path fill="none" stroke-width="1.5" stroke-linecap="butt" stroke-linejoin="miter" stroke="rgb(12.156863%, 47.058824%, 70.588235%)" stroke-opacity="1" stroke-miterlimit="10" d="M 221.882812 462.785156 C 226.335938 469.75 232.628906 475.046875 240.8125 475.160156 "/>
<path fill-rule="nonzero" fill="rgb(12.156863%, 47.058824%, 70.588235%)" fill-opacity="1" d="M 247.945312 475.257812 L 240.78125 477.476562 L 240.84375 472.84375 L 247.945312 475.257812 "/>
<path fill="none" stroke-width="1.5" stroke-linecap="butt" stroke-linejoin="miter" stroke="rgb(12.156863%, 47.058824%, 70.588235%)" stroke-opacity="1" stroke-miterlimit="10" d="M 195.597656 464.757812 C 201.035156 468.179688 207.335938 470.003906 213 467.191406 "/>
<path fill-rule="nonzero" fill="rgb(12.156863%, 47.058824%, 70.588235%)" fill-opacity="1" d="M 219.390625 464.019531 L 214.03125 469.269531 L 211.972656 465.117188 L 219.390625 464.019531 "/>
<path fill="none" stroke-width="1.5" stroke-linecap="butt" stroke-linejoin="miter" stroke="rgb(12.156863%, 47.058824%, 70.588235%)" stroke-opacity="1" stroke-miterlimit="10" d="M 627.027344 93.539062 C 627.066406 78.476562 622.148438 65.039062 610.210938 55.921875 "/>
<path fill-rule="nonzero" fill="rgb(12.156863%, 47.058824%, 70.588235%)" fill-opacity="1" d="M 604.542969 51.589844 L 611.621094 54.078125 L 608.804688 57.761719 L 604.542969 51.589844 "/>
<path fill="none" stroke-width="1.5" stroke-linecap="butt" stroke-linejoin="miter" stroke="rgb(12.156863%, 47.058824%, 70.588235%)" stroke-opacity="1" stroke-miterlimit="10" d="M 626.488281 185.9375 C 640.472656 158.785156 642.980469 130.527344 630.894531 102.503906 "/>
<path fill-rule="nonzero" fill="rgb(12.156863%, 47.058824%, 70.588235%)" fill-opacity="1" d="M 628.066406 95.953125 L 633.023438 101.585938 L 628.765625 103.421875 L 628.066406 95.953125 "/>
<path fill="none" stroke-width="1.5" stroke-linecap="butt" stroke-linejoin="miter" stroke="rgb(12.156863%, 47.058824%, 70.588235%)" stroke-opacity="1" stroke-miterlimit="10" d="M 573.917969 96.585938 C 554.070312 120.753906 545.496094 148.5 551.535156 179.164062 "/>
<path fill-rule="nonzero" fill="rgb(12.156863%, 47.058824%, 70.588235%)" fill-opacity="1" d="M 552.914062 186.164062 L 549.261719 179.613281 L 553.808594 178.71875 L 552.914062 186.164062 "/>
<path fill="none" stroke-width="1.5" stroke-linecap="butt" stroke-linejoin="miter" stroke="rgb(12.156863%, 47.058824%, 70.588235%)" stroke-opacity="1" stroke-miterlimit="10" d="M 602.464844 50 C 587.875 58.238281 577.703125 70.386719 575.3125 86.933594 "/>
<path fill-rule="nonzero" fill="rgb(12.156863%, 47.058824%, 70.588235%)" fill-opacity="1" d="M 574.292969 93.992188 L 573.019531 86.601562 L 577.605469 87.265625 L 574.292969 93.992188 "/>
<path fill="none" stroke-width="4.5" stroke-linecap="butt" stroke-linejoin="miter" stroke="rgb(70.196078%, 70.196078%, 70.196078%)" stroke-opacity="1" stroke-miterlimit="10" d="M 539.492188 304.472656 C 540.023438 282.632812 533.042969 263.367188 516.292969 249.386719 "/>
<path fill-rule="nonzero" fill="rgb(70.196078%, 70.196078%, 70.196078%)" fill-opacity="1" d="M 510.816406 244.816406 L 517.777344 247.609375 L 514.808594 251.167969 L 510.816406 244.816406 "/>
<path fill="none" stroke-width="1.5" stroke-linecap="butt" stroke-linejoin="miter" stroke="rgb(12.156863%, 47.058824%, 70.588235%)" stroke-opacity="1" stroke-miterlimit="10" d="M 553.421875 188.742188 C 532.078125 220.457031 525.039062 255.160156 535.785156 291.828125 "/>
<path fill-rule="nonzero" fill="rgb(12.156863%, 47.058824%, 70.588235%)" fill-opacity="1" d="M 537.792969 298.671875 L 533.5625 292.476562 L 538.011719 291.175781 L 537.792969 298.671875 "/>
<path fill="none" stroke-width="1.5" stroke-linecap="butt" stroke-linejoin="miter" stroke="rgb(12.156863%, 47.058824%, 70.588235%)" stroke-opacity="1" stroke-miterlimit="10" d="M 609.859375 290.277344 C 630.464844 261.511719 637.929688 229.589844 628.964844 195.378906 "/>
<path fill-rule="nonzero" fill="rgb(12.156863%, 47.058824%, 70.588235%)" fill-opacity="1" d="M 627.15625 188.480469 L 631.207031 194.792969 L 626.722656 195.96875 L 627.15625 188.480469 "/>
<path fill="none" stroke-width="4.5" stroke-linecap="butt" stroke-linejoin="miter" stroke="rgb(70.196078%, 70.196078%, 70.196078%)" stroke-opacity="1" stroke-miterlimit="10" d="M 609.859375 290.277344 C 603.609375 310.191406 604.878906 329.757812 616.621094 346.96875 "/>
<path fill-rule="nonzero" fill="rgb(70.196078%, 70.196078%, 70.196078%)" fill-opacity="1" d="M 620.640625 352.863281 L 614.707031 348.277344 L 618.535156 345.664062 L 620.640625 352.863281 "/>
<path fill="none" stroke-width="2.5" stroke-linecap="butt" stroke-linejoin="miter" stroke="rgb(70.196078%, 70.196078%, 70.196078%)" stroke-opacity="1" stroke-miterlimit="10" d="M 267.917969 433.792969 C 272.277344 436.4375 277.472656 438.007812 281.761719 435.507812 "/>
<path fill-rule="nonzero" fill="rgb(70.196078%, 70.196078%, 70.196078%)" fill-opacity="1" d="M 287.921875 431.910156 L 282.929688 437.507812 L 280.59375 433.503906 L 287.921875 431.910156 "/>
<path fill="none" stroke-width="1.5" stroke-linecap="butt" stroke-linejoin="miter" stroke="rgb(12.156863%, 47.058824%, 70.588235%)" stroke-opacity="1" stroke-miterlimit="10" d="M 564.269531 326.207031 C 581.160156 323.792969 595.335938 316.042969 603.695312 301.21875 "/>
<path fill-rule="nonzero" fill="rgb(12.156863%, 47.058824%, 70.588235%)" fill-opacity="1" d="M 607.199219 295.003906 L 605.714844 302.355469 L 601.675781 300.078125 L 607.199219 295.003906 "/>
<path fill="none" stroke-width="1.5" stroke-linecap="butt" stroke-linejoin="miter" stroke="rgb(12.156863%, 47.058824%, 70.588235%)" stroke-opacity="1" stroke-miterlimit="10" d="M 517.75 376.308594 C 538.3125 369.167969 553.804688 355.910156 561.027344 335.410156 "/>
<path fill-rule="nonzero" fill="rgb(12.156863%, 47.058824%, 70.588235%)" fill-opacity="1" d="M 563.398438 328.683594 L 563.214844 336.179688 L 558.84375 334.640625 L 563.398438 328.683594 "/>
<path fill="none" stroke-width="4.5" stroke-linecap="butt" stroke-linejoin="miter" stroke="rgb(70.196078%, 70.196078%, 70.196078%)" stroke-opacity="1" stroke-miterlimit="10" d="M 517.75 376.308594 C 531.886719 383.921875 546.972656 386.035156 561.558594 379.433594 "/>
<path fill-rule="nonzero" fill="rgb(70.196078%, 70.196078%, 70.196078%)" fill-opacity="1" d="M 568.058594 376.492188 L 562.515625 381.546875 L 560.601562 377.324219 L 568.058594 376.492188 "/>
<path fill="none" stroke-width="5.5" stroke-linecap="butt" stroke-linejoin="miter" stroke="rgb(70.196078%, 70.196078%, 70.196078%)" stroke-opacity="1" stroke-miterlimit="10" d="M 448.429688 402.902344 C 471.488281 405.886719 492.59375 400.585938 509.300781 384.464844 "/>
<path fill-rule="nonzero" fill="rgb(70.196078%, 70.196078%, 70.196078%)" fill-opacity="1" d="M 514.433594 379.511719 L 510.910156 386.132812 L 507.691406 382.796875 L 514.433594 379.511719 "/>
<path fill="none" stroke-width="4.5" stroke-linecap="butt" stroke-linejoin="miter" stroke="rgb(70.196078%, 70.196078%, 70.196078%)" stroke-opacity="1" stroke-miterlimit="10" d="M 507.28125 241.863281 C 509.726562 224.636719 506.171875 208.558594 494.042969 196.140625 "/>
<path fill-rule="nonzero" fill="rgb(70.196078%, 70.196078%, 70.196078%)" fill-opacity="1" d="M 489.058594 191.039062 L 495.703125 194.523438 L 492.386719 197.761719 L 489.058594 191.039062 "/>
<path fill="none" stroke-width="4.5" stroke-linecap="butt" stroke-linejoin="miter" stroke="rgb(70.196078%, 70.196078%, 70.196078%)" stroke-opacity="1" stroke-miterlimit="10" d="M 562.292969 442.992188 C 576.183594 398.164062 571.980469 355.035156 546.621094 315.566406 "/>
<path fill-rule="nonzero" fill="rgb(70.196078%, 70.196078%, 70.196078%)" fill-opacity="1" d="M 542.765625 309.566406 L 548.570312 314.3125 L 544.671875 316.820312 L 542.765625 309.566406 "/>
<path fill="none" stroke-width="4.5" stroke-linecap="butt" stroke-linejoin="miter" stroke="rgb(70.196078%, 70.196078%, 70.196078%)" stroke-opacity="1" stroke-miterlimit="10" d="M 733.460938 728.328125 C 722.476562 728.179688 712.339844 731.476562 705.886719 740.292969 "/>
<path fill-rule="nonzero" fill="rgb(70.196078%, 70.196078%, 70.196078%)" fill-opacity="1" d="M 701.675781 746.046875 L 704.015625 738.921875 L 707.757812 741.660156 L 701.675781 746.046875 "/>
<path fill="none" stroke-width="4.5" stroke-linecap="butt" stroke-linejoin="miter" stroke="rgb(70.196078%, 70.196078%, 70.196078%)" stroke-opacity="1" stroke-miterlimit="10" d="M 750 654.007812 C 734.359375 672.128906 726.976562 693.269531 731.324219 716.78125 "/>
<path fill-rule="nonzero" fill="rgb(70.196078%, 70.196078%, 70.196078%)" fill-opacity="1" d="M 732.621094 723.792969 L 729.046875 717.203125 L 733.605469 716.359375 L 732.621094 723.792969 "/>
<path fill="none" stroke-width="4.5" stroke-linecap="butt" stroke-linejoin="miter" stroke="rgb(70.196078%, 70.196078%, 70.196078%)" stroke-opacity="1" stroke-miterlimit="10" d="M 740.574219 563.886719 C 729.828125 591.0625 730.03125 618.257812 744.269531 643.75 "/>
<path fill-rule="nonzero" fill="rgb(70.196078%, 70.196078%, 70.196078%)" fill-opacity="1" d="M 747.75 649.976562 L 742.246094 644.878906 L 746.292969 642.621094 L 747.75 649.976562 "/>
<path fill="none" stroke-width="4.5" stroke-linecap="butt" stroke-linejoin="miter" stroke="rgb(70.196078%, 70.196078%, 70.196078%)" stroke-opacity="1" stroke-miterlimit="10" d="M 712.597656 483.308594 C 708.503906 510.28125 714.324219 535.035156 732.667969 555.199219 "/>
<path fill-rule="nonzero" fill="rgb(70.196078%, 70.196078%, 70.196078%)" fill-opacity="1" d="M 737.46875 560.472656 L 730.953125 556.757812 L 734.382812 553.640625 L 737.46875 560.472656 "/>
<path fill="none" stroke-width="4.5" stroke-linecap="butt" stroke-linejoin="miter" stroke="rgb(70.196078%, 70.196078%, 70.196078%)" stroke-opacity="1" stroke-miterlimit="10" d="M 672.652344 415.308594 C 673.667969 440.222656 683.136719 461.503906 703.15625 476.320312 "/>
<path fill-rule="nonzero" fill="rgb(70.196078%, 70.196078%, 70.196078%)" fill-opacity="1" d="M 708.890625 480.5625 L 701.78125 478.183594 L 704.535156 474.457031 L 708.890625 480.5625 "/>
<path fill="none" stroke-width="4.5" stroke-linecap="butt" stroke-linejoin="miter" stroke="rgb(70.196078%, 70.196078%, 70.196078%)" stroke-opacity="1" stroke-miterlimit="10" d="M 623.703125 357.351562 C 629.953125 337.441406 628.683594 317.875 616.941406 300.660156 "/>
<path fill-rule="nonzero" fill="rgb(70.196078%, 70.196078%, 70.196078%)" fill-opacity="1" d="M 612.921875 294.769531 L 618.855469 299.355469 L 615.027344 301.96875 L 612.921875 294.769531 "/>
<path fill="none" stroke-width="4.5" stroke-linecap="butt" stroke-linejoin="miter" stroke="rgb(70.196078%, 70.196078%, 70.196078%)" stroke-opacity="1" stroke-miterlimit="10" d="M 623.703125 357.351562 C 628.625 380.675781 640.917969 399.277344 662.167969 410.011719 "/>
<path fill-rule="nonzero" fill="rgb(70.196078%, 70.196078%, 70.196078%)" fill-opacity="1" d="M 668.535156 413.230469 L 661.125 412.082031 L 663.214844 407.945312 L 668.535156 413.230469 "/>
<path fill="none" stroke-width="4.5" stroke-linecap="butt" stroke-linejoin="miter" stroke="rgb(70.196078%, 70.196078%, 70.196078%)" stroke-opacity="1" stroke-miterlimit="10" d="M 572.539062 374.464844 C 587.761719 377.734375 602.417969 375.660156 614.1875 365.535156 "/>
<path fill-rule="nonzero" fill="rgb(70.196078%, 70.196078%, 70.196078%)" fill-opacity="1" d="M 619.59375 360.886719 L 615.699219 367.292969 L 612.675781 363.777344 L 619.59375 360.886719 "/>
<path fill="none" stroke-width="5.5" stroke-linecap="butt" stroke-linejoin="miter" stroke="rgb(70.196078%, 70.196078%, 70.196078%)" stroke-opacity="1" stroke-miterlimit="10" d="M 381.671875 425.8125 C 403.269531 429.488281 423.394531 425.339844 439.6875 410.738281 "/>
<path fill-rule="nonzero" fill="rgb(70.196078%, 70.196078%, 70.196078%)" fill-opacity="1" d="M 445 405.976562 L 441.234375 412.464844 L 438.140625 409.011719 L 445 405.976562 "/>
<path fill="none" stroke-width="5.5" stroke-linecap="butt" stroke-linejoin="miter" stroke="rgb(70.196078%, 70.196078%, 70.196078%)" stroke-opacity="1" stroke-miterlimit="10" d="M 316.042969 447.984375 C 337.035156 451.742188 356.679688 447.902344 372.628906 433.800781 "/>
<path fill-rule="nonzero" fill="rgb(70.196078%, 70.196078%, 70.196078%)" fill-opacity="1" d="M 377.976562 429.078125 L 374.164062 435.539062 L 371.09375 432.066406 L 377.976562 429.078125 "/>
<path fill="none" stroke-width="2.5" stroke-linecap="butt" stroke-linejoin="miter" stroke="rgb(70.196078%, 70.196078%, 70.196078%)" stroke-opacity="1" stroke-miterlimit="10" d="M 253.316406 475.332031 C 262.792969 467.765625 269.015625 457.875 268.46875 445.816406 "/>
<path fill-rule="nonzero" fill="rgb(70.196078%, 70.196078%, 70.196078%)" fill-opacity="1" d="M 268.144531 438.6875 L 270.78125 445.710938 L 266.152344 445.921875 L 268.144531 438.6875 "/>
<path fill="none" stroke-width="3.5" stroke-linecap="butt" stroke-linejoin="miter" stroke="rgb(70.196078%, 70.196078%, 70.196078%)" stroke-opacity="1" stroke-miterlimit="10" d="M 253.316406 475.332031 C 274.066406 477.34375 292.9375 472.074219 307.34375 457.054688 "/>
<path fill-rule="nonzero" fill="rgb(70.196078%, 70.196078%, 70.196078%)" fill-opacity="1" d="M 312.28125 451.90625 L 309.019531 458.65625 L 305.671875 455.449219 L 312.28125 451.90625 "/>
<path fill="none" stroke-width="4.5" stroke-linecap="butt" stroke-linejoin="miter" stroke="rgb(70.196078%, 70.196078%, 70.196078%)" stroke-opacity="1" stroke-miterlimit="10" d="M 590.394531 560.28125 C 599.566406 521.160156 593.5 484.488281 569.363281 452.390625 "/>
<path fill-rule="nonzero" fill="rgb(70.196078%, 70.196078%, 70.196078%)" fill-opacity="1" d="M 565.074219 446.6875 L 571.214844 450.996094 L 567.507812 453.78125 L 565.074219 446.6875 "/>
<path fill="none" stroke-width="4.5" stroke-linecap="butt" stroke-linejoin="miter" stroke="rgb(70.196078%, 70.196078%, 70.196078%)" stroke-opacity="1" stroke-miterlimit="10" d="M 659.972656 720.914062 C 659.644531 697.101562 651.183594 676.496094 632.421875 661.875 "/>
<path fill-rule="nonzero" fill="rgb(70.196078%, 70.196078%, 70.196078%)" fill-opacity="1" d="M 626.796875 657.488281 L 633.847656 660.046875 L 631 663.703125 L 626.796875 657.488281 "/>
<path fill="none" stroke-width="4.5" stroke-linecap="butt" stroke-linejoin="miter" stroke="rgb(70.196078%, 70.196078%, 70.196078%)" stroke-opacity="1" stroke-miterlimit="10" d="M 698.78125 750 C 693.632812 737.246094 684.878906 727.429688 671.625 723.964844 "/>
<path fill-rule="nonzero" fill="rgb(70.196078%, 70.196078%, 70.196078%)" fill-opacity="1" d="M 664.722656 722.15625 L 672.210938 721.722656 L 671.035156 726.207031 L 664.722656 722.15625 "/>
<path fill="none" stroke-width="1.5" stroke-linecap="butt" stroke-linejoin="miter" stroke="rgb(12.156863%, 47.058824%, 70.588235%)" stroke-opacity="1" stroke-miterlimit="10" d="M 198.546875 516.457031 C 205.457031 502.34375 206.9375 487.515625 199.945312 473.488281 "/>
<path fill-rule="nonzero" fill="rgb(12.156863%, 47.058824%, 70.588235%)" fill-opacity="1" d="M 196.765625 467.101562 L 202.019531 472.453125 L 197.871094 474.519531 L 196.765625 467.101562 "/>
<path fill="none" stroke-width="4.5" stroke-linecap="butt" stroke-linejoin="miter" stroke="rgb(70.196078%, 70.196078%, 70.196078%)" stroke-opacity="1" stroke-miterlimit="10" d="M 198.546875 516.457031 C 219.222656 513.621094 236.382812 504.128906 246.945312 486.167969 "/>
<path fill-rule="nonzero" fill="rgb(70.196078%, 70.196078%, 70.196078%)" fill-opacity="1" d="M 250.558594 480.019531 L 248.941406 487.339844 L 244.945312 484.992188 L 250.558594 480.019531 "/>
<path fill="none" stroke-width="5.5" stroke-linecap="butt" stroke-linejoin="miter" stroke="rgb(70.196078%, 70.196078%, 70.196078%)" stroke-opacity="1" stroke-miterlimit="10" d="M 148.210938 557.527344 C 167.660156 554.085938 183.585938 544.496094 192.867188 527.101562 "/>
<path fill-rule="nonzero" fill="rgb(70.196078%, 70.196078%, 70.196078%)" fill-opacity="1" d="M 196.226562 520.808594 L 194.914062 528.191406 L 190.824219 526.011719 L 196.226562 520.808594 "/>
<path fill="none" stroke-width="5.5" stroke-linecap="butt" stroke-linejoin="miter" stroke="rgb(70.196078%, 70.196078%, 70.196078%)" stroke-opacity="1" stroke-miterlimit="10" d="M 101.964844 594.644531 C 119.433594 591.867188 133.953125 583.585938 142.421875 568.105469 "/>
<path fill-rule="nonzero" fill="rgb(70.196078%, 70.196078%, 70.196078%)" fill-opacity="1" d="M 145.847656 561.847656 L 144.457031 569.21875 L 140.390625 566.992188 L 145.847656 561.847656 "/>
<path fill-rule="nonzero" fill="rgb(70.196078%, 70.196078%, 70.196078%)" fill-opacity="1" stroke-width="1" stroke-linecap="butt" stroke-linejoin="miter" stroke="rgb(70.196078%, 70.196078%, 70.196078%)" stroke-opacity="1" stroke-miterlimit="10" d="M 628.007812 654.65625 C 628.007812 661.121094 618.308594 661.121094 618.308594 654.65625 C 618.308594 648.1875 628.007812 648.1875 628.007812 654.65625 "/>
<path fill-rule="nonzero" fill="rgb(70.196078%, 70.196078%, 70.196078%)" fill-opacity="1" stroke-width="1" stroke-linecap="butt" stroke-linejoin="miter" stroke="rgb(70.196078%, 70.196078%, 70.196078%)" stroke-opacity="1" stroke-miterlimit="10" d="M 79.496094 641.902344 C 79.496094 648.367188 69.796875 648.367188 69.796875 641.902344 C 69.796875 635.4375 79.496094 635.4375 79.496094 641.902344 "/>
<path fill-rule="nonzero" fill="rgb(100%, 84.313725%, 0%)" fill-opacity="1" stroke-width="1" stroke-linecap="butt" stroke-linejoin="miter" stroke="rgb(100%, 84.313725%, 0%)" stroke-opacity="1" stroke-miterlimit="10" d="M 44.648438 633.292969 L 55.347656 633.292969 L 55.347656 643.992188 L 44.648438 643.992188 Z M 44.648438 633.292969 "/>
<path fill-rule="nonzero" fill="rgb(70.196078%, 70.196078%, 70.196078%)" fill-opacity="1" stroke-width="1" stroke-linecap="butt" stroke-linejoin="miter" stroke="rgb(70.196078%, 70.196078%, 70.196078%)" stroke-opacity="1" stroke-miterlimit="10" d="M 296.953125 429.46875 C 296.953125 435.9375 287.253906 435.9375 287.253906 429.46875 C 287.253906 423.003906 296.953125 423.003906 296.953125 429.46875 "/>
<path fill-rule="nonzero" fill="rgb(12.156863%, 47.058824%, 70.588235%)" fill-opacity="1" stroke-width="1" stroke-linecap="butt" stroke-linejoin="miter" stroke="rgb(12.156863%, 47.058824%, 70.588235%)" stroke-opacity="1" stroke-miterlimit="10" d="M 70.796875 597.578125 C 70.796875 601.246094 65.296875 601.246094 65.296875 597.578125 C 65.296875 593.910156 70.796875 593.910156 70.796875 597.578125 "/>
<path fill-rule="nonzero" fill="rgb(12.156863%, 47.058824%, 70.588235%)" fill-opacity="1" stroke-width="1" stroke-linecap="butt" stroke-linejoin="miter" stroke="rgb(12.156863%, 47.058824%, 70.588235%)" stroke-opacity="1" stroke-miterlimit="10" d="M 224.632812 462.785156 C 224.632812 466.449219 219.132812 466.449219 219.132812 462.785156 C 219.132812 459.117188 224.632812 459.117188 224.632812 462.785156 "/>
<path fill-rule="nonzero" fill="rgb(12.156863%, 47.058824%, 70.588235%)" fill-opacity="1" stroke-width="1" stroke-linecap="butt" stroke-linejoin="miter" stroke="rgb(12.156863%, 47.058824%, 70.588235%)" stroke-opacity="1" stroke-miterlimit="10" d="M 198.347656 464.757812 C 198.347656 468.425781 192.847656 468.425781 192.847656 464.757812 C 192.847656 461.09375 198.347656 461.09375 198.347656 464.757812 "/>
<path fill-rule="nonzero" fill="rgb(12.156863%, 47.058824%, 70.588235%)" fill-opacity="1" stroke-width="1" stroke-linecap="butt" stroke-linejoin="miter" stroke="rgb(12.156863%, 47.058824%, 70.588235%)" stroke-opacity="1" stroke-miterlimit="10" d="M 629.777344 93.539062 C 629.777344 97.207031 624.277344 97.207031 624.277344 93.539062 C 624.277344 89.875 629.777344 89.875 629.777344 93.539062 "/>
<path fill-rule="nonzero" fill="rgb(12.156863%, 47.058824%, 70.588235%)" fill-opacity="1" stroke-width="1" stroke-linecap="butt" stroke-linejoin="miter" stroke="rgb(12.156863%, 47.058824%, 70.588235%)" stroke-opacity="1" stroke-miterlimit="10" d="M 629.238281 185.9375 C 629.238281 189.605469 623.738281 189.605469 623.738281 185.9375 C 623.738281 182.269531 629.238281 182.269531 629.238281 185.9375 "/>
<path fill-rule="nonzero" fill="rgb(12.156863%, 47.058824%, 70.588235%)" fill-opacity="1" stroke-width="1" stroke-linecap="butt" stroke-linejoin="miter" stroke="rgb(12.156863%, 47.058824%, 70.588235%)" stroke-opacity="1" stroke-miterlimit="10" d="M 576.667969 96.585938 C 576.667969 100.25 571.167969 100.25 571.167969 96.585938 C 571.167969 92.917969 576.667969 92.917969 576.667969 96.585938 "/>
<path fill-rule="nonzero" fill="rgb(12.156863%, 47.058824%, 70.588235%)" fill-opacity="1" stroke-width="1" stroke-linecap="butt" stroke-linejoin="miter" stroke="rgb(12.156863%, 47.058824%, 70.588235%)" stroke-opacity="1" stroke-miterlimit="10" d="M 605.214844 50 C 605.214844 53.667969 599.714844 53.667969 599.714844 50 C 599.714844 46.332031 605.214844 46.332031 605.214844 50 "/>
<path fill-rule="nonzero" fill="rgb(14.901961%, 14.901961%, 14.901961%)" fill-opacity="1" stroke-width="1" stroke-linecap="butt" stroke-linejoin="miter" stroke="rgb(14.901961%, 14.901961%, 14.901961%)" stroke-opacity="1" stroke-miterlimit="10" d="M 533.140625 310.824219 L 539.492188 298.121094 L 545.84375 310.824219 Z M 533.140625 310.824219 "/>
<path fill-rule="nonzero" fill="rgb(12.156863%, 47.058824%, 70.588235%)" fill-opacity="1" stroke-width="1" stroke-linecap="butt" stroke-linejoin="miter" stroke="rgb(12.156863%, 47.058824%, 70.588235%)" stroke-opacity="1" stroke-miterlimit="10" d="M 556.171875 188.742188 C 556.171875 192.40625 550.671875 192.40625 550.671875 188.742188 C 550.671875 185.074219 556.171875 185.074219 556.171875 188.742188 "/>
<path fill-rule="nonzero" fill="rgb(70.196078%, 70.196078%, 70.196078%)" fill-opacity="1" stroke-width="1" stroke-linecap="butt" stroke-linejoin="miter" stroke="rgb(70.196078%, 70.196078%, 70.196078%)" stroke-opacity="1" stroke-miterlimit="10" d="M 615.210938 290.277344 C 615.210938 297.414062 604.511719 297.414062 604.511719 290.277344 C 604.511719 283.144531 615.210938 283.144531 615.210938 290.277344 "/>
<path fill-rule="nonzero" fill="rgb(70.196078%, 70.196078%, 70.196078%)" fill-opacity="1" stroke-width="1" stroke-linecap="butt" stroke-linejoin="miter" stroke="rgb(70.196078%, 70.196078%, 70.196078%)" stroke-opacity="1" stroke-miterlimit="10" d="M 272.769531 433.792969 C 272.769531 440.257812 263.070312 440.257812 263.070312 433.792969 C 263.070312 427.324219 272.769531 427.324219 272.769531 433.792969 "/>
<path fill-rule="nonzero" fill="rgb(12.156863%, 47.058824%, 70.588235%)" fill-opacity="1" stroke-width="1" stroke-linecap="butt" stroke-linejoin="miter" stroke="rgb(12.156863%, 47.058824%, 70.588235%)" stroke-opacity="1" stroke-miterlimit="10" d="M 567.019531 326.207031 C 567.019531 329.875 561.519531 329.875 561.519531 326.207031 C 561.519531 322.542969 567.019531 322.542969 567.019531 326.207031 "/>
<path fill-rule="nonzero" fill="rgb(70.196078%, 70.196078%, 70.196078%)" fill-opacity="1" stroke-width="1" stroke-linecap="butt" stroke-linejoin="miter" stroke="rgb(70.196078%, 70.196078%, 70.196078%)" stroke-opacity="1" stroke-miterlimit="10" d="M 522.601562 376.308594 C 522.601562 382.777344 512.902344 382.777344 512.902344 376.308594 C 512.902344 369.84375 522.601562 369.84375 522.601562 376.308594 "/>
<path fill-rule="nonzero" fill="rgb(70.196078%, 70.196078%, 70.196078%)" fill-opacity="1" stroke-width="1" stroke-linecap="butt" stroke-linejoin="miter" stroke="rgb(70.196078%, 70.196078%, 70.196078%)" stroke-opacity="1" stroke-miterlimit="10" d="M 453.28125 402.902344 C 453.28125 409.367188 443.582031 409.367188 443.582031 402.902344 C 443.582031 396.4375 453.28125 396.4375 453.28125 402.902344 "/>
<path fill-rule="nonzero" fill="rgb(14.901961%, 14.901961%, 14.901961%)" fill-opacity="1" stroke-width="1" stroke-linecap="butt" stroke-linejoin="miter" stroke="rgb(14.901961%, 14.901961%, 14.901961%)" stroke-opacity="1" stroke-miterlimit="10" d="M 479.070312 192.648438 L 484.921875 180.949219 L 490.773438 192.648438 Z M 479.070312 192.648438 "/>
<path fill-rule="nonzero" fill="rgb(70.196078%, 70.196078%, 70.196078%)" fill-opacity="1" stroke-width="1" stroke-linecap="butt" stroke-linejoin="miter" stroke="rgb(70.196078%, 70.196078%, 70.196078%)" stroke-opacity="1" stroke-miterlimit="10" d="M 512.128906 241.863281 C 512.128906 248.332031 502.429688 248.332031 502.429688 241.863281 C 502.429688 235.398438 512.128906 235.398438 512.128906 241.863281 "/>
<path fill-rule="nonzero" fill="rgb(70.196078%, 70.196078%, 70.196078%)" fill-opacity="1" stroke-width="1" stroke-linecap="butt" stroke-linejoin="miter" stroke="rgb(70.196078%, 70.196078%, 70.196078%)" stroke-opacity="1" stroke-miterlimit="10" d="M 567.144531 442.992188 C 567.144531 449.457031 557.445312 449.457031 557.445312 442.992188 C 557.445312 436.523438 567.144531 436.523438 567.144531 442.992188 "/>
<path fill-rule="nonzero" fill="rgb(70.196078%, 70.196078%, 70.196078%)" fill-opacity="1" stroke-width="1" stroke-linecap="butt" stroke-linejoin="miter" stroke="rgb(70.196078%, 70.196078%, 70.196078%)" stroke-opacity="1" stroke-miterlimit="10" d="M 738.3125 728.328125 C 738.3125 734.792969 728.609375 734.792969 728.609375 728.328125 C 728.609375 721.863281 738.3125 721.863281 738.3125 728.328125 "/>
<path fill-rule="nonzero" fill="rgb(70.196078%, 70.196078%, 70.196078%)" fill-opacity="1" stroke-width="1" stroke-linecap="butt" stroke-linejoin="miter" stroke="rgb(70.196078%, 70.196078%, 70.196078%)" stroke-opacity="1" stroke-miterlimit="10" d="M 754.851562 654.007812 C 754.851562 660.476562 745.148438 660.476562 745.148438 654.007812 C 745.148438 647.542969 754.851562 647.542969 754.851562 654.007812 "/>
<path fill-rule="nonzero" fill="rgb(70.196078%, 70.196078%, 70.196078%)" fill-opacity="1" stroke-width="1" stroke-linecap="butt" stroke-linejoin="miter" stroke="rgb(70.196078%, 70.196078%, 70.196078%)" stroke-opacity="1" stroke-miterlimit="10" d="M 745.421875 563.886719 C 745.421875 570.355469 735.722656 570.355469 735.722656 563.886719 C 735.722656 557.421875 745.421875 557.421875 745.421875 563.886719 "/>
<path fill-rule="nonzero" fill="rgb(70.196078%, 70.196078%, 70.196078%)" fill-opacity="1" stroke-width="1" stroke-linecap="butt" stroke-linejoin="miter" stroke="rgb(70.196078%, 70.196078%, 70.196078%)" stroke-opacity="1" stroke-miterlimit="10" d="M 717.449219 483.308594 C 717.449219 489.773438 707.75 489.773438 707.75 483.308594 C 707.75 476.839844 717.449219 476.839844 717.449219 483.308594 "/>
<path fill-rule="nonzero" fill="rgb(70.196078%, 70.196078%, 70.196078%)" fill-opacity="1" stroke-width="1" stroke-linecap="butt" stroke-linejoin="miter" stroke="rgb(70.196078%, 70.196078%, 70.196078%)" stroke-opacity="1" stroke-miterlimit="10" d="M 677.5 415.308594 C 677.5 421.773438 667.800781 421.773438 667.800781 415.308594 C 667.800781 408.839844 677.5 408.839844 677.5 415.308594 "/>
<path fill-rule="nonzero" fill="rgb(70.196078%, 70.196078%, 70.196078%)" fill-opacity="1" stroke-width="1" stroke-linecap="butt" stroke-linejoin="miter" stroke="rgb(70.196078%, 70.196078%, 70.196078%)" stroke-opacity="1" stroke-miterlimit="10" d="M 629.050781 357.351562 C 629.050781 364.484375 618.351562 364.484375 618.351562 357.351562 C 618.351562 350.21875 629.050781 350.21875 629.050781 357.351562 "/>
<path fill-rule="nonzero" fill="rgb(70.196078%, 70.196078%, 70.196078%)" fill-opacity="1" stroke-width="1" stroke-linecap="butt" stroke-linejoin="miter" stroke="rgb(70.196078%, 70.196078%, 70.196078%)" stroke-opacity="1" stroke-miterlimit="10" d="M 577.386719 374.464844 C 577.386719 380.933594 567.6875 380.933594 567.6875 374.464844 C 567.6875 368 577.386719 368 577.386719 374.464844 "/>
<path fill-rule="nonzero" fill="rgb(70.196078%, 70.196078%, 70.196078%)" fill-opacity="1" stroke-width="1" stroke-linecap="butt" stroke-linejoin="miter" stroke="rgb(70.196078%, 70.196078%, 70.196078%)" stroke-opacity="1" stroke-miterlimit="10" d="M 386.519531 425.8125 C 386.519531 432.277344 376.820312 432.277344 376.820312 425.8125 C 376.820312 419.34375 386.519531 419.34375 386.519531 425.8125 "/>
<path fill-rule="nonzero" fill="rgb(70.196078%, 70.196078%, 70.196078%)" fill-opacity="1" stroke-width="1" stroke-linecap="butt" stroke-linejoin="miter" stroke="rgb(70.196078%, 70.196078%, 70.196078%)" stroke-opacity="1" stroke-miterlimit="10" d="M 321.394531 447.984375 C 321.394531 455.117188 310.695312 455.117188 310.695312 447.984375 C 310.695312 440.851562 321.394531 440.851562 321.394531 447.984375 "/>
<path fill-rule="nonzero" fill="rgb(70.196078%, 70.196078%, 70.196078%)" fill-opacity="1" stroke-width="1" stroke-linecap="butt" stroke-linejoin="miter" stroke="rgb(70.196078%, 70.196078%, 70.196078%)" stroke-opacity="1" stroke-miterlimit="10" d="M 258.664062 475.332031 C 258.664062 482.464844 247.964844 482.464844 247.964844 475.332031 C 247.964844 468.199219 258.664062 468.199219 258.664062 475.332031 "/>
<path fill-rule="nonzero" fill="rgb(70.196078%, 70.196078%, 70.196078%)" fill-opacity="1" stroke-width="1" stroke-linecap="butt" stroke-linejoin="miter" stroke="rgb(70.196078%, 70.196078%, 70.196078%)" stroke-opacity="1" stroke-miterlimit="10" d="M 595.242188 560.28125 C 595.242188 566.746094 585.542969 566.746094 585.542969 560.28125 C 585.542969 553.8125 595.242188 553.8125 595.242188 560.28125 "/>
<path fill-rule="nonzero" fill="rgb(70.196078%, 70.196078%, 70.196078%)" fill-opacity="1" stroke-width="1" stroke-linecap="butt" stroke-linejoin="miter" stroke="rgb(70.196078%, 70.196078%, 70.196078%)" stroke-opacity="1" stroke-miterlimit="10" d="M 664.820312 720.914062 C 664.820312 727.382812 655.121094 727.382812 655.121094 720.914062 C 655.121094 714.449219 664.820312 714.449219 664.820312 720.914062 "/>
<path fill-rule="nonzero" fill="rgb(70.196078%, 70.196078%, 70.196078%)" fill-opacity="1" stroke-width="1" stroke-linecap="butt" stroke-linejoin="miter" stroke="rgb(70.196078%, 70.196078%, 70.196078%)" stroke-opacity="1" stroke-miterlimit="10" d="M 703.632812 750 C 703.632812 756.464844 693.933594 756.464844 693.933594 750 C 693.933594 743.535156 703.632812 743.535156 703.632812 750 "/>
<path fill-rule="nonzero" fill="rgb(70.196078%, 70.196078%, 70.196078%)" fill-opacity="1" stroke-width="1" stroke-linecap="butt" stroke-linejoin="miter" stroke="rgb(70.196078%, 70.196078%, 70.196078%)" stroke-opacity="1" stroke-miterlimit="10" d="M 203.394531 516.457031 C 203.394531 522.925781 193.695312 522.925781 193.695312 516.457031 C 193.695312 509.992188 203.394531 509.992188 203.394531 516.457031 "/>
<path fill-rule="nonzero" fill="rgb(70.196078%, 70.196078%, 70.196078%)" fill-opacity="1" stroke-width="1" stroke-linecap="butt" stroke-linejoin="miter" stroke="rgb(70.196078%, 70.196078%, 70.196078%)" stroke-opacity="1" stroke-miterlimit="10" d="M 153.058594 557.527344 C 153.058594 563.996094 143.359375 563.996094 143.359375 557.527344 C 143.359375 551.0625 153.058594 551.0625 153.058594 557.527344 "/>
<path fill-rule="nonzero" fill="rgb(70.196078%, 70.196078%, 70.196078%)" fill-opacity="1" stroke-width="1" stroke-linecap="butt" stroke-linejoin="miter" stroke="rgb(70.196078%, 70.196078%, 70.196078%)" stroke-opacity="1" stroke-miterlimit="10" d="M 107.316406 594.644531 C 107.316406 601.777344 96.617188 601.777344 96.617188 594.644531 C 96.617188 587.511719 107.316406 587.511719 107.316406 594.644531 "/>
</svg>
