<?xml version="1.0" encoding="UTF-8"?>
<svg xmlns="http://www.w3.org/2000/svg" xmlns:xlink="http://www.w3.org/1999/xlink" width="800" height="800" viewBox="0 0 800 800">
<rect x="-80" y="-80" width="960" height="960" fill="rgb(100%, 100%, 100%)" fill-opacity="1"/>
<path fill="none" stroke-width="3.5" stroke-linecap="butt" stroke-linejoin="miter" stroke="rgb(70.196078%, 70.196078%, 70.196078%)" stroke-opacity="1" stroke-miterlimit="10" d="M 64.457031 418.289062 C 60.683594 438.992188 64.441406 458.363281 78.28125 474.175781 "/>
<path fill-rule="nonzero" fill="rgb(70.196078%, 70.196078%, 70.196078%)" fill-opacity="1" d="M 82.980469 479.542969 L 76.539062 475.699219 L 80.027344 472.648438 L 82.980469 479.542969 "/>
<path fill="none" stroke-width="1.5" stroke-linecap="butt" stroke-linejoin="miter" stroke="rgb(12.156863%, 47.058824%, 70.588235%)" stroke-opacity="1" stroke-miterlimit="10" d="M 64.457031 418.289062 C 74.738281 403.835938 78.925781 387.65625 73.882812 370.683594 "/>
<path fill-rule="nonzero" fill="rgb(12.156863%, 47.058824%, 70.588235%)" fill-opacity="1" d="M 71.851562 363.84375 L 76.105469 370.023438 L 71.660156 371.34375 L 71.851562 363.84375 "/>
<path fill="none" stroke-width="3.5" stroke-linecap="butt" stroke-linejoin="miter" stroke="rgb(70.196078%, 70.196078%, 70.196078%)" stroke-opacity="1" stroke-miterlimit="10" d="M 64.457031 418.289062 C 54.894531 427.191406 49.15625 438.296875 50.59375 451.230469 "/>
<path fill-rule="nonzero" fill="rgb(70.196078%, 70.196078%, 70.196078%)" fill-opacity="1" d="M 51.382812 458.320312 L 48.289062 451.488281 L 52.894531 450.976562 L 51.382812 458.320312 "/>
<path fill="none" stroke-width="2.5" stroke-linecap="butt" stroke-linejoin="miter" stroke="rgb(70.196078%, 70.196078%, 70.196078%)" stroke-opacity="1" stroke-miterlimit="10" d="M 64.457031 418.289062 C 64.152344 414.058594 62.738281 409.613281 58.945312 408.074219 "/>
<path fill-rule="nonzero" fill="rgb(70.196078%, 70.196078%, 70.196078%)" fill-opacity="1" d="M 52.335938 405.390625 L 59.816406 405.925781 L 58.074219 410.222656 L 52.335938 405.390625 "/>
<path fill="none" stroke-width="1.5" stroke-linecap="butt" stroke-linejoin="miter" stroke="rgb(12.156863%, 47.058824%, 70.588235%)" stroke-opacity="1" stroke-miterlimit="10" d="M 64.457031 418.289062 C 52.175781 439.246094 48.785156 461.648438 57.34375 484.355469 "/>
<path fill-rule="nonzero" fill="rgb(12.156863%, 47.058824%, 70.588235%)" fill-opacity="1" d="M 59.859375 491.027344 L 55.171875 485.171875 L 59.511719 483.539062 L 59.859375 491.027344 "/>
<path fill="none" stroke-width="5.5" stroke-linecap="butt" stroke-linejoin="miter" stroke="rgb(70.196078%, 70.196078%, 70.196078%)" stroke-opacity="1" stroke-miterlimit="10" d="M 64.457031 418.289062 C 77 392.632812 78.855469 366.132812 66.949219 340.199219 "/>
<path fill-rule="nonzero" fill="rgb(70.196078%, 70.196078%, 70.196078%)" fill-opacity="1" d="M 63.972656 333.71875 L 69.054688 339.230469 L 64.84375 341.167969 L 63.972656 333.71875 "/>
<path fill="none" stroke-width="1.5" stroke-linecap="butt" stroke-linejoin="miter" stroke="rgb(12.156863%, 47.058824%, 70.588235%)" stroke-opacity="1" stroke-miterlimit="10" d="M 64.457031 418.289062 C 71.105469 398.40625 70.109375 378.789062 58.722656 361.21875 "/>
<path fill-rule="nonzero" fill="rgb(12.156863%, 47.058824%, 70.588235%)" fill-opacity="1" d="M 54.84375 355.230469 L 60.667969 359.957031 L 56.777344 362.476562 L 54.84375 355.230469 "/>
<path fill="none" stroke-width="8.5" stroke-linecap="butt" stroke-linejoin="miter" stroke="rgb(70.196078%, 70.196078%, 70.196078%)" stroke-opacity="1" stroke-miterlimit="10" d="M 84.550781 481.335938 C 88.324219 460.632812 84.5625 441.265625 70.726562 425.453125 "/>
<path fill-rule="nonzero" fill="rgb(70.196078%, 70.196078%, 70.196078%)" fill-opacity="1" d="M 66.027344 420.085938 L 72.46875 423.925781 L 68.980469 426.980469 L 66.027344 420.085938 "/>
<path fill="none" stroke-width="1.5" stroke-linecap="butt" stroke-linejoin="miter" stroke="rgb(12.156863%, 47.058824%, 70.588235%)" stroke-opacity="1" stroke-miterlimit="10" d="M 84.550781 481.335938 C 74.472656 501.179688 72.527344 521.898438 81.6875 542.152344 "/>
<path fill-rule="nonzero" fill="rgb(12.156863%, 47.058824%, 70.588235%)" fill-opacity="1" d="M 84.625 548.652344 L 79.574219 543.109375 L 83.800781 541.199219 L 84.625 548.652344 "/>
<path fill="none" stroke-width="1.5" stroke-linecap="butt" stroke-linejoin="miter" stroke="rgb(12.156863%, 47.058824%, 70.588235%)" stroke-opacity="1" stroke-miterlimit="10" d="M 84.921875 549.308594 C 94.972656 530.074219 97.160156 509.863281 88.398438 490.042969 "/>
<path fill-rule="nonzero" fill="rgb(12.156863%, 47.058824%, 70.588235%)" fill-opacity="1" d="M 85.515625 483.519531 L 90.519531 489.105469 L 86.28125 490.980469 L 85.515625 483.519531 "/>
<path fill="none" stroke-width="1.5" stroke-linecap="butt" stroke-linejoin="miter" stroke="rgb(12.156863%, 47.058824%, 70.588235%)" stroke-opacity="1" stroke-miterlimit="10" d="M 71.648438 363.15625 C 61.480469 377.015625 57.128906 392.652344 61.839844 409.140625 "/>
<path fill-rule="nonzero" fill="rgb(12.156863%, 47.058824%, 70.588235%)" fill-opacity="1" d="M 63.800781 416 L 59.613281 409.777344 L 64.070312 408.503906 L 63.800781 416 "/>
<path fill="none" stroke-width="5.5" stroke-linecap="butt" stroke-linejoin="miter" stroke="rgb(70.196078%, 70.196078%, 70.196078%)" stroke-opacity="1" stroke-miterlimit="10" d="M 112.191406 532.320312 C 112.242188 514.261719 106.21875 498.339844 92.039062 487.210938 "/>
<path fill-rule="nonzero" fill="rgb(70.196078%, 70.196078%, 70.196078%)" fill-opacity="1" d="M 86.425781 482.808594 L 93.46875 485.386719 L 90.609375 489.035156 L 86.425781 482.808594 "/>
<path fill="none" stroke-width="3.5" stroke-linecap="butt" stroke-linejoin="miter" stroke="rgb(70.196078%, 70.196078%, 70.196078%)" stroke-opacity="1" stroke-miterlimit="10" d="M 51.644531 460.683594 C 61.207031 451.785156 66.945312 440.679688 65.507812 427.746094 "/>
<path fill-rule="nonzero" fill="rgb(70.196078%, 70.196078%, 70.196078%)" fill-opacity="1" d="M 64.71875 420.65625 L 67.808594 427.488281 L 63.203125 428 L 64.71875 420.65625 "/>
<path fill="none" stroke-width="5.5" stroke-linecap="butt" stroke-linejoin="miter" stroke="rgb(70.196078%, 70.196078%, 70.196078%)" stroke-opacity="1" stroke-miterlimit="10" d="M 139.34375 576.511719 C 138.695312 560.699219 132.886719 546.871094 119.976562 537.792969 "/>
<path fill-rule="nonzero" fill="rgb(70.196078%, 70.196078%, 70.196078%)" fill-opacity="1" d="M 114.140625 533.691406 L 121.308594 535.898438 L 118.644531 539.691406 L 114.140625 533.691406 "/>
<path fill="none" stroke-width="5.5" stroke-linecap="butt" stroke-linejoin="miter" stroke="rgb(70.196078%, 70.196078%, 70.196078%)" stroke-opacity="1" stroke-miterlimit="10" d="M 166.769531 613.023438 C 165.140625 599.558594 159.3125 587.992188 147.589844 581.253906 "/>
<path fill-rule="nonzero" fill="rgb(70.196078%, 70.196078%, 70.196078%)" fill-opacity="1" d="M 141.410156 577.695312 L 148.746094 579.242188 L 146.4375 583.261719 L 141.410156 577.695312 "/>
<path fill="none" stroke-width="2.5" stroke-linecap="butt" stroke-linejoin="miter" stroke="rgb(70.196078%, 70.196078%, 70.196078%)" stroke-opacity="1" stroke-miterlimit="10" d="M 50 404.441406 C 50.304688 408.671875 51.71875 413.117188 55.511719 414.65625 "/>
<path fill-rule="nonzero" fill="rgb(70.196078%, 70.196078%, 70.196078%)" fill-opacity="1" d="M 62.117188 417.339844 L 54.636719 416.804688 L 56.382812 412.511719 L 62.117188 417.339844 "/>
<path fill="none" stroke-width="1.5" stroke-linecap="butt" stroke-linejoin="miter" stroke="rgb(12.156863%, 47.058824%, 70.588235%)" stroke-opacity="1" stroke-miterlimit="10" d="M 60.109375 491.703125 C 72.328125 471.355469 75.929688 449.472656 67.742188 427.226562 "/>
<path fill-rule="nonzero" fill="rgb(12.156863%, 47.058824%, 70.588235%)" fill-opacity="1" d="M 65.28125 420.53125 L 69.917969 426.425781 L 65.566406 428.023438 L 65.28125 420.53125 "/>
<path fill="none" stroke-width="5.5" stroke-linecap="butt" stroke-linejoin="miter" stroke="rgb(70.196078%, 70.196078%, 70.196078%)" stroke-opacity="1" stroke-miterlimit="10" d="M 62.976562 331.546875 C 50.429688 357.203125 48.574219 383.703125 60.484375 409.636719 "/>
<path fill-rule="nonzero" fill="rgb(70.196078%, 70.196078%, 70.196078%)" fill-opacity="1" d="M 63.457031 416.121094 L 58.375 410.605469 L 62.589844 408.671875 L 63.457031 416.121094 "/>
<path fill="none" stroke-width="5.5" stroke-linecap="butt" stroke-linejoin="miter" stroke="rgb(70.196078%, 70.196078%, 70.196078%)" stroke-opacity="1" stroke-miterlimit="10" d="M 194.757812 641.792969 C 192.117188 630.546875 186.144531 621.144531 175.539062 616.699219 "/>
<path fill-rule="nonzero" fill="rgb(70.196078%, 70.196078%, 70.196078%)" fill-opacity="1" d="M 168.960938 613.945312 L 176.433594 614.5625 L 174.644531 618.839844 L 168.960938 613.945312 "/>
<path fill="none" stroke-width="5.5" stroke-linecap="butt" stroke-linejoin="miter" stroke="rgb(70.196078%, 70.196078%, 70.196078%)" stroke-opacity="1" stroke-miterlimit="10" d="M 223.605469 664.917969 C 220.121094 655.117188 213.859375 647.1875 203.90625 644.378906 "/>
<path fill-rule="nonzero" fill="rgb(70.196078%, 70.196078%, 70.196078%)" fill-opacity="1" d="M 197.042969 642.441406 L 204.539062 642.148438 L 203.277344 646.609375 L 197.042969 642.441406 "/>
<path fill="none" stroke-width="1.5" stroke-linecap="butt" stroke-linejoin="miter" stroke="rgb(12.156863%, 47.058824%, 70.588235%)" stroke-opacity="1" stroke-miterlimit="10" d="M 223.605469 664.917969 C 212.917969 689.820312 212.382812 715.03125 224.898438 739.042969 "/>
<path fill-rule="nonzero" fill="rgb(12.156863%, 47.058824%, 70.588235%)" fill-opacity="1" d="M 228.195312 745.371094 L 222.84375 740.117188 L 226.953125 737.972656 L 228.195312 745.371094 "/>
<path fill="none" stroke-width="5.5" stroke-linecap="butt" stroke-linejoin="miter" stroke="rgb(70.196078%, 70.196078%, 70.196078%)" stroke-opacity="1" stroke-miterlimit="10" d="M 251.382812 618.976562 C 237.078125 627.175781 227.132812 639.195312 224.898438 655.492188 "/>
<path fill-rule="nonzero" fill="rgb(70.196078%, 70.196078%, 70.196078%)" fill-opacity="1" d="M 223.929688 662.558594 L 222.605469 655.175781 L 227.195312 655.804688 L 223.929688 662.558594 "/>
<path fill="none" stroke-width="1.5" stroke-linecap="butt" stroke-linejoin="miter" stroke="rgb(12.156863%, 47.058824%, 70.588235%)" stroke-opacity="1" stroke-miterlimit="10" d="M 219.863281 750 C 233.6875 725.675781 237.132812 699.867188 227.042969 673.796875 "/>
<path fill-rule="nonzero" fill="rgb(12.156863%, 47.058824%, 70.588235%)" fill-opacity="1" d="M 224.46875 667.144531 L 229.203125 672.960938 L 224.882812 674.632812 L 224.46875 667.144531 "/>
<path fill="none" stroke-width="1.5" stroke-linecap="butt" stroke-linejoin="miter" stroke="rgb(12.156863%, 47.058824%, 70.588235%)" stroke-opacity="1" stroke-miterlimit="10" d="M 228.527344 746.007812 C 227.695312 744.90625 225.789062 743.5625 225.210938 744.191406 "/>
<path fill-rule="nonzero" fill="rgb(12.156863%, 47.058824%, 70.588235%)" fill-opacity="1" d="M 220.378906 749.441406 L 223.503906 742.621094 L 226.917969 745.761719 L 220.378906 749.441406 "/>
<path fill="none" stroke-width="1.5" stroke-linecap="butt" stroke-linejoin="miter" stroke="rgb(12.156863%, 47.058824%, 70.588235%)" stroke-opacity="1" stroke-miterlimit="10" d="M 54.453125 354.628906 C 47.742188 373.90625 48.425781 393.050781 59.351562 410.257812 "/>
<path fill-rule="nonzero" fill="rgb(12.156863%, 47.058824%, 70.588235%)" fill-opacity="1" d="M 63.175781 416.277344 L 57.394531 411.5 L 61.308594 409.015625 L 63.175781 416.277344 "/>
<path fill="none" stroke-width="5.5" stroke-linecap="butt" stroke-linejoin="miter" stroke="rgb(70.196078%, 70.196078%, 70.196078%)" stroke-opacity="1" stroke-miterlimit="10" d="M 278 568.285156 C 263.183594 578.132812 253.425781 591.78125 252.09375 609.488281 "/>
<path fill-rule="nonzero" fill="rgb(70.196078%, 70.196078%, 70.196078%)" fill-opacity="1" d="M 251.5625 616.597656 L 249.785156 609.3125 L 254.40625 609.660156 L 251.5625 616.597656 "/>
<path fill="none" stroke-width="5.5" stroke-linecap="butt" stroke-linejoin="miter" stroke="rgb(70.196078%, 70.196078%, 70.196078%)" stroke-opacity="1" stroke-miterlimit="10" d="M 303.828125 511.847656 C 288.242188 523.640625 278.570312 539.257812 278.1875 558.769531 "/>
<path fill-rule="nonzero" fill="rgb(70.196078%, 70.196078%, 70.196078%)" fill-opacity="1" d="M 278.046875 565.898438 L 275.867188 558.722656 L 280.503906 558.8125 L 278.046875 565.898438 "/>
<path fill="none" stroke-width="5.5" stroke-linecap="butt" stroke-linejoin="miter" stroke="rgb(70.196078%, 70.196078%, 70.196078%)" stroke-opacity="1" stroke-miterlimit="10" d="M 622.164062 116.574219 C 621.566406 104.546875 617.1875 93.828125 607.171875 87.238281 "/>
<path fill-rule="nonzero" fill="rgb(70.196078%, 70.196078%, 70.196078%)" fill-opacity="1" d="M 601.210938 83.320312 L 608.445312 85.304688 L 605.894531 89.175781 L 601.210938 83.320312 "/>
<path fill="none" stroke-width="5.5" stroke-linecap="butt" stroke-linejoin="miter" stroke="rgb(70.196078%, 70.196078%, 70.196078%)" stroke-opacity="1" stroke-miterlimit="10" d="M 451.378906 147.367188 C 436.695312 158.484375 427.515625 173.207031 427.226562 191.589844 "/>
<path fill-rule="nonzero" fill="rgb(70.196078%, 70.196078%, 70.196078%)" fill-opacity="1" d="M 427.113281 198.722656 L 424.910156 191.554688 L 429.542969 191.628906 L 427.113281 198.722656 "/>
<path fill="none" stroke-width="5.5" stroke-linecap="butt" stroke-linejoin="miter" stroke="rgb(70.196078%, 70.196078%, 70.196078%)" stroke-opacity="1" stroke-miterlimit="10" d="M 475.917969 103.242188 C 462.859375 111.257812 453.878906 122.699219 452.339844 137.902344 "/>
<path fill-rule="nonzero" fill="rgb(70.196078%, 70.196078%, 70.196078%)" fill-opacity="1" d="M 451.621094 144.996094 L 450.03125 137.667969 L 454.644531 138.132812 L 451.621094 144.996094 "/>
<path fill="none" stroke-width="5.5" stroke-linecap="butt" stroke-linejoin="miter" stroke="rgb(70.196078%, 70.196078%, 70.196078%)" stroke-opacity="1" stroke-miterlimit="10" d="M 427.074219 201.105469 C 411.375 214.195312 402.089844 230.980469 402.601562 251.382812 "/>
<path fill-rule="nonzero" fill="rgb(70.196078%, 70.196078%, 70.196078%)" fill-opacity="1" d="M 402.777344 258.511719 L 400.28125 251.4375 L 404.917969 251.324219 L 402.777344 258.511719 "/>
<path fill="none" stroke-width="5.5" stroke-linecap="butt" stroke-linejoin="miter" stroke="rgb(70.196078%, 70.196078%, 70.196078%)" stroke-opacity="1" stroke-miterlimit="10" d="M 329.109375 451.15625 C 312.957031 464.398438 303.351562 481.476562 303.679688 502.328125 "/>
<path fill-rule="nonzero" fill="rgb(70.196078%, 70.196078%, 70.196078%)" fill-opacity="1" d="M 303.792969 509.460938 L 301.363281 502.367188 L 305.996094 502.292969 L 303.792969 509.460938 "/>
<path fill="none" stroke-width="5.5" stroke-linecap="butt" stroke-linejoin="miter" stroke="rgb(70.196078%, 70.196078%, 70.196078%)" stroke-opacity="1" stroke-miterlimit="10" d="M 353.96875 387.945312 C 337.511719 402.0625 327.984375 420.003906 328.765625 441.644531 "/>
<path fill-rule="nonzero" fill="rgb(70.196078%, 70.196078%, 70.196078%)" fill-opacity="1" d="M 329.023438 448.769531 L 326.449219 441.726562 L 331.082031 441.558594 L 329.023438 448.769531 "/>
<path fill="none" stroke-width="5.5" stroke-linecap="butt" stroke-linejoin="miter" stroke="rgb(70.196078%, 70.196078%, 70.196078%)" stroke-opacity="1" stroke-miterlimit="10" d="M 378.53125 324.023438 C 362.042969 338.410156 352.589844 356.597656 353.550781 378.433594 "/>
<path fill-rule="nonzero" fill="rgb(70.196078%, 70.196078%, 70.196078%)" fill-opacity="1" d="M 353.863281 385.558594 L 351.234375 378.535156 L 355.867188 378.332031 L 353.863281 385.558594 "/>
<path fill="none" stroke-width="5.5" stroke-linecap="butt" stroke-linejoin="miter" stroke="rgb(70.196078%, 70.196078%, 70.196078%)" stroke-opacity="1" stroke-miterlimit="10" d="M 402.835938 260.898438 C 386.558594 275.0625 377.191406 292.980469 378.121094 314.511719 "/>
<path fill-rule="nonzero" fill="rgb(70.196078%, 70.196078%, 70.196078%)" fill-opacity="1" d="M 378.429688 321.636719 L 375.808594 314.613281 L 380.4375 314.410156 L 378.429688 321.636719 "/>
<path fill="none" stroke-width="5.5" stroke-linecap="butt" stroke-linejoin="miter" stroke="rgb(70.196078%, 70.196078%, 70.196078%)" stroke-opacity="1" stroke-miterlimit="10" d="M 750 483.972656 C 752.363281 472.429688 750.84375 461.1875 742.941406 452.519531 "/>
<path fill-rule="nonzero" fill="rgb(70.196078%, 70.196078%, 70.196078%)" fill-opacity="1" d="M 738.136719 447.246094 L 744.652344 450.957031 L 741.226562 454.078125 L 738.136719 447.246094 "/>
<path fill="none" stroke-width="5.5" stroke-linecap="butt" stroke-linejoin="miter" stroke="rgb(70.196078%, 70.196078%, 70.196078%)" stroke-opacity="1" stroke-miterlimit="10" d="M 736.53125 445.488281 C 739.949219 429.1875 737.550781 413.625 726.757812 400.984375 "/>
<path fill-rule="nonzero" fill="rgb(70.196078%, 70.196078%, 70.196078%)" fill-opacity="1" d="M 722.128906 395.5625 L 728.523438 399.480469 L 724.996094 402.492188 L 722.128906 395.5625 "/>
<path fill="none" stroke-width="5.5" stroke-linecap="butt" stroke-linejoin="miter" stroke="rgb(70.196078%, 70.196078%, 70.196078%)" stroke-opacity="1" stroke-miterlimit="10" d="M 643.988281 162.050781 C 644.988281 146.78125 640.84375 132.855469 629.335938 122.828125 "/>
<path fill-rule="nonzero" fill="rgb(70.196078%, 70.196078%, 70.196078%)" fill-opacity="1" d="M 623.957031 118.140625 L 630.859375 121.078125 L 627.8125 124.574219 L 623.957031 118.140625 "/>
<path fill="none" stroke-width="5.5" stroke-linecap="butt" stroke-linejoin="miter" stroke="rgb(70.196078%, 70.196078%, 70.196078%)" stroke-opacity="1" stroke-miterlimit="10" d="M 664.746094 215.914062 C 667.109375 198.109375 663.21875 181.628906 650.65625 168.84375 "/>
<path fill-rule="nonzero" fill="rgb(70.196078%, 70.196078%, 70.196078%)" fill-opacity="1" d="M 645.65625 163.753906 L 652.308594 167.21875 L 649.003906 170.464844 L 645.65625 163.753906 "/>
<path fill="none" stroke-width="5.5" stroke-linecap="butt" stroke-linejoin="miter" stroke="rgb(70.196078%, 70.196078%, 70.196078%)" stroke-opacity="1" stroke-miterlimit="10" d="M 550.710938 50 C 545.335938 47.117188 539.210938 45.765625 534.0625 48.839844 "/>
<path fill-rule="nonzero" fill="rgb(70.196078%, 70.196078%, 70.196078%)" fill-opacity="1" d="M 527.941406 52.496094 L 532.875 46.851562 L 535.25 50.828125 L 527.941406 52.496094 "/>
<path fill="none" stroke-width="5.5" stroke-linecap="butt" stroke-linejoin="miter" stroke="rgb(70.196078%, 70.196078%, 70.196078%)" stroke-opacity="1" stroke-miterlimit="10" d="M 575.234375 59.378906 C 571.722656 53.949219 566.742188 49.621094 560.371094 49.773438 "/>
<path fill-rule="nonzero" fill="rgb(70.196078%, 70.196078%, 70.196078%)" fill-opacity="1" d="M 553.242188 49.941406 L 560.316406 47.453125 L 560.425781 52.089844 L 553.242188 49.941406 "/>
<path fill="none" stroke-width="5.5" stroke-linecap="butt" stroke-linejoin="miter" stroke="rgb(70.196078%, 70.196078%, 70.196078%)" stroke-opacity="1" stroke-miterlimit="10" d="M 525.765625 53.796875 C 517.703125 54.003906 510.121094 56.59375 505.882812 63.363281 "/>
<path fill-rule="nonzero" fill="rgb(70.196078%, 70.196078%, 70.196078%)" fill-opacity="1" d="M 502.097656 69.410156 L 503.917969 62.132812 L 507.847656 64.59375 L 502.097656 69.410156 "/>
<path fill="none" stroke-width="5.5" stroke-linecap="butt" stroke-linejoin="miter" stroke="rgb(70.196078%, 70.196078%, 70.196078%)" stroke-opacity="1" stroke-miterlimit="10" d="M 599.222656 82.011719 C 597.128906 73.363281 592.546875 65.902344 584.285156 62.792969 "/>
<path fill-rule="nonzero" fill="rgb(70.196078%, 70.196078%, 70.196078%)" fill-opacity="1" d="M 577.609375 60.277344 L 585.101562 60.621094 L 583.46875 64.960938 L 577.609375 60.277344 "/>
<path fill="none" stroke-width="5.5" stroke-linecap="butt" stroke-linejoin="miter" stroke="rgb(70.196078%, 70.196078%, 70.196078%)" stroke-opacity="1" stroke-miterlimit="10" d="M 500.75 71.5625 C 489.921875 75.707031 481.378906 82.914062 478.386719 94.058594 "/>
<path fill-rule="nonzero" fill="rgb(70.196078%, 70.196078%, 70.196078%)" fill-opacity="1" d="M 476.535156 100.949219 L 476.148438 93.457031 L 480.625 94.660156 L 476.535156 100.949219 "/>
<path fill="none" stroke-width="5.5" stroke-linecap="butt" stroke-linejoin="miter" stroke="rgb(70.196078%, 70.196078%, 70.196078%)" stroke-opacity="1" stroke-miterlimit="10" d="M 684.472656 274.824219 C 687.792969 255.542969 684.179688 237.511719 671.113281 222.988281 "/>
<path fill-rule="nonzero" fill="rgb(70.196078%, 70.196078%, 70.196078%)" fill-opacity="1" d="M 666.339844 217.6875 L 672.835938 221.441406 L 669.390625 224.539062 L 666.339844 217.6875 "/>
<path fill="none" stroke-width="5.5" stroke-linecap="butt" stroke-linejoin="miter" stroke="rgb(70.196078%, 70.196078%, 70.196078%)" stroke-opacity="1" stroke-miterlimit="10" d="M 703.121094 335.359375 C 706.964844 315.722656 703.671875 297.21875 690.667969 282.050781 "/>
<path fill-rule="nonzero" fill="rgb(70.196078%, 70.196078%, 70.196078%)" fill-opacity="1" d="M 686.023438 276.636719 L 692.425781 280.542969 L 688.90625 283.558594 L 686.023438 276.636719 "/>
<path fill="none" stroke-width="5.5" stroke-linecap="butt" stroke-linejoin="miter" stroke="rgb(70.196078%, 70.196078%, 70.196078%)" stroke-opacity="1" stroke-miterlimit="10" d="M 720.582031 393.75 C 724.472656 375.011719 721.558594 357.25 709.253906 342.640625 "/>
<path fill-rule="nonzero" fill="rgb(70.196078%, 70.196078%, 70.196078%)" fill-opacity="1" d="M 704.65625 337.183594 L 711.023438 341.144531 L 707.480469 344.132812 L 704.65625 337.183594 "/>
<path fill-rule="nonzero" fill="rgb(14.901961%, 14.901961%, 14.901961%)" fill-opacity="1" stroke-width="1" stroke-linecap="butt" stroke-linejoin="miter" stroke="rgb(14.901961%, 14.901961%, 14.901961%)" stroke-opacity="1" stroke-miterlimit="10" d="M 61.957031 420.789062 L 64.457031 415.789062 L 66.957031 420.789062 Z M 61.957031 420.789062 "/>
<path fill-rule="nonzero" fill="rgb(70.196078%, 70.196078%, 70.196078%)" fill-opacity="1" stroke-width="1" stroke-linecap="butt" stroke-linejoin="miter" stroke="rgb(70.196078%, 70.196078%, 70.196078%)" stroke-opacity="1" stroke-miterlimit="10" d="M 87.050781 481.335938 C 87.050781 484.667969 82.050781 484.667969 82.050781 481.335938 C 82.050781 478.003906 87.050781 478.003906 87.050781 481.335938 "/>
<path fill-rule="nonzero" fill="rgb(12.156863%, 47.058824%, 70.588235%)" fill-opacity="1" stroke-width="1" stroke-linecap="butt" stroke-linejoin="miter" stroke="rgb(12.156863%, 47.058824%, 70.588235%)" stroke-opacity="1" stroke-miterlimit="10" d="M 85.671875 549.308594 C 85.671875 550.308594 84.171875 550.308594 84.171875 549.308594 C 84.171875 548.308594 85.671875 548.308594 85.671875 549.308594 "/>
<path fill-rule="nonzero" fill="rgb(12.156863%, 47.058824%, 70.588235%)" fill-opacity="1" stroke-width="1" stroke-linecap="butt" stroke-linejoin="miter" stroke="rgb(12.156863%, 47.058824%, 70.588235%)" stroke-opacity="1" stroke-miterlimit="10" d="M 72.398438 363.15625 C 72.398438 364.15625 70.898438 364.15625 70.898438 363.15625 C 70.898438 362.15625 72.398438 362.15625 72.398438 363.15625 "/>
<path fill-rule="nonzero" fill="rgb(70.196078%, 70.196078%, 70.196078%)" fill-opacity="1" stroke-width="1" stroke-linecap="butt" stroke-linejoin="miter" stroke="rgb(70.196078%, 70.196078%, 70.196078%)" stroke-opacity="1" stroke-miterlimit="10" d="M 114.691406 532.320312 C 114.691406 535.652344 109.691406 535.652344 109.691406 532.320312 C 109.691406 528.988281 114.691406 528.988281 114.691406 532.320312 "/>
<path fill-rule="nonzero" fill="rgb(70.196078%, 70.196078%, 70.196078%)" fill-opacity="1" stroke-width="1" stroke-linecap="butt" stroke-linejoin="miter" stroke="rgb(70.196078%, 70.196078%, 70.196078%)" stroke-opacity="1" stroke-miterlimit="10" d="M 54.144531 460.683594 C 54.144531 464.019531 49.144531 464.019531 49.144531 460.683594 C 49.144531 457.351562 54.144531 457.351562 54.144531 460.683594 "/>
<path fill-rule="nonzero" fill="rgb(70.196078%, 70.196078%, 70.196078%)" fill-opacity="1" stroke-width="1" stroke-linecap="butt" stroke-linejoin="miter" stroke="rgb(70.196078%, 70.196078%, 70.196078%)" stroke-opacity="1" stroke-miterlimit="10" d="M 141.84375 576.511719 C 141.84375 579.84375 136.84375 579.84375 136.84375 576.511719 C 136.84375 573.175781 141.84375 573.175781 141.84375 576.511719 "/>
<path fill-rule="nonzero" fill="rgb(70.196078%, 70.196078%, 70.196078%)" fill-opacity="1" stroke-width="1" stroke-linecap="butt" stroke-linejoin="miter" stroke="rgb(70.196078%, 70.196078%, 70.196078%)" stroke-opacity="1" stroke-miterlimit="10" d="M 169.269531 613.023438 C 169.269531 616.359375 164.269531 616.359375 164.269531 613.023438 C 164.269531 609.691406 169.269531 609.691406 169.269531 613.023438 "/>
<path fill-rule="nonzero" fill="rgb(70.196078%, 70.196078%, 70.196078%)" fill-opacity="1" stroke-width="1" stroke-linecap="butt" stroke-linejoin="miter" stroke="rgb(70.196078%, 70.196078%, 70.196078%)" stroke-opacity="1" stroke-miterlimit="10" d="M 52.5 404.441406 C 52.5 407.773438 47.5 407.773438 47.5 404.441406 C 47.5 401.109375 52.5 401.109375 52.5 404.441406 "/>
<path fill-rule="nonzero" fill="rgb(12.156863%, 47.058824%, 70.588235%)" fill-opacity="1" stroke-width="1" stroke-linecap="butt" stroke-linejoin="miter" stroke="rgb(12.156863%, 47.058824%, 70.588235%)" stroke-opacity="1" stroke-miterlimit="10" d="M 60.859375 491.703125 C 60.859375 492.703125 59.359375 492.703125 59.359375 491.703125 C 59.359375 490.703125 60.859375 490.703125 60.859375 491.703125 "/>
<path fill-rule="nonzero" fill="rgb(70.196078%, 70.196078%, 70.196078%)" fill-opacity="1" stroke-width="1" stroke-linecap="butt" stroke-linejoin="miter" stroke="rgb(70.196078%, 70.196078%, 70.196078%)" stroke-opacity="1" stroke-miterlimit="10" d="M 65.476562 331.546875 C 65.476562 334.878906 60.476562 334.878906 60.476562 331.546875 C 60.476562 328.210938 65.476562 328.210938 65.476562 331.546875 "/>
<path fill-rule="nonzero" fill="rgb(70.196078%, 70.196078%, 70.196078%)" fill-opacity="1" stroke-width="1" stroke-linecap="butt" stroke-linejoin="miter" stroke="rgb(70.196078%, 70.196078%, 70.196078%)" stroke-opacity="1" stroke-miterlimit="10" d="M 197.257812 641.792969 C 197.257812 645.128906 192.257812 645.128906 192.257812 641.792969 C 192.257812 638.460938 197.257812 638.460938 197.257812 641.792969 "/>
<path fill-rule="nonzero" fill="rgb(70.196078%, 70.196078%, 70.196078%)" fill-opacity="1" stroke-width="1" stroke-linecap="butt" stroke-linejoin="miter" stroke="rgb(70.196078%, 70.196078%, 70.196078%)" stroke-opacity="1" stroke-miterlimit="10" d="M 226.105469 664.917969 C 226.105469 668.25 221.105469 668.25 221.105469 664.917969 C 221.105469 661.585938 226.105469 661.585938 226.105469 664.917969 "/>
<path fill-rule="nonzero" fill="rgb(70.196078%, 70.196078%, 70.196078%)" fill-opacity="1" stroke-width="1" stroke-linecap="butt" stroke-linejoin="miter" stroke="rgb(70.196078%, 70.196078%, 70.196078%)" stroke-opacity="1" stroke-miterlimit="10" d="M 253.882812 618.976562 C 253.882812 622.308594 248.882812 622.308594 248.882812 618.976562 C 248.882812 615.644531 253.882812 615.644531 253.882812 618.976562 "/>
<path fill-rule="nonzero" fill="rgb(12.156863%, 47.058824%, 70.588235%)" fill-opacity="1" stroke-width="1" stroke-linecap="butt" stroke-linejoin="miter" stroke="rgb(12.156863%, 47.058824%, 70.588235%)" stroke-opacity="1" stroke-miterlimit="10" d="M 220.613281 750 C 220.613281 751 219.113281 751 219.113281 750 C 219.113281 749 220.613281 749 220.613281 750 "/>
<path fill-rule="nonzero" fill="rgb(12.156863%, 47.058824%, 70.588235%)" fill-opacity="1" stroke-width="1" stroke-linecap="butt" stroke-linejoin="miter" stroke="rgb(12.156863%, 47.058824%, 70.588235%)" stroke-opacity="1" stroke-miterlimit="10" d="M 229.277344 746.007812 C 229.277344 747.007812 227.777344 747.007812 227.777344 746.007812 C 227.777344 745.007812 229.277344 745.007812 229.277344 746.007812 "/>
<path fill-rule="nonzero" fill="rgb(12.156863%, 47.058824%, 70.588235%)" fill-opacity="1" stroke-width="1" stroke-linecap="butt" stroke-linejoin="miter" stroke="rgb(12.156863%, 47.058824%, 70.588235%)" stroke-opacity="1" stroke-miterlimit="10" d="M 55.203125 354.628906 C 55.203125 355.628906 53.703125 355.628906 53.703125 354.628906 C 53.703125 353.628906 55.203125 353.628906 55.203125 354.628906 "/>
<path fill-rule="nonzero" fill="rgb(70.196078%, 70.196078%, 70.196078%)" fill-opacity="1" stroke-width="1" stroke-linecap="butt" stroke-linejoin="miter" stroke="rgb(70.196078%, 70.196078%, 70.196078%)" stroke-opacity="1" stroke-miterlimit="10" d="M 280.5 568.285156 C 280.5 571.617188 275.5 571.617188 275.5 568.285156 C 275.5 564.949219 280.5 564.949219 280.5 568.285156 "/>
<path fill-rule="nonzero" fill="rgb(70.196078%, 70.196078%, 70.196078%)" fill-opacity="1" stroke-width="1" stroke-linecap="butt" stroke-linejoin="miter" stroke="rgb(70.196078%, 70.196078%, 70.196078%)" stroke-opacity="1" stroke-miterlimit="10" d="M 306.328125 511.847656 C 306.328125 515.179688 301.328125 515.179688 301.328125 511.847656 C 301.328125 508.511719 306.328125 508.511719 306.328125 511.847656 "/>
<path fill-rule="nonzero" fill="rgb(70.196078%, 70.196078%, 70.196078%)" fill-opacity="1" stroke-width="1" stroke-linecap="butt" stroke-linejoin="miter" stroke="rgb(70.196078%, 70.196078%, 70.196078%)" stroke-opacity="1" stroke-miterlimit="10" d="M 624.664062 116.574219 C 624.664062 119.910156 619.664062 119.910156 619.664062 116.574219 C 619.664062 113.242188 624.664062 113.242188 624.664062 116.574219 "/>
<path fill-rule="nonzero" fill="rgb(70.196078%, 70.196078%, 70.196078%)" fill-opacity="1" stroke-width="1" stroke-linecap="butt" stroke-linejoin="miter" stroke="rgb(70.196078%, 70.196078%, 70.196078%)" stroke-opacity="1" stroke-miterlimit="10" d="M 453.878906 147.367188 C 453.878906 150.699219 448.878906 150.699219 448.878906 147.367188 C 448.878906 144.035156 453.878906 144.035156 453.878906 147.367188 "/>
<path fill-rule="nonzero" fill="rgb(70.196078%, 70.196078%, 70.196078%)" fill-opacity="1" stroke-width="1" stroke-linecap="butt" stroke-linejoin="miter" stroke="rgb(70.196078%, 70.196078%, 70.196078%)" stroke-opacity="1" stroke-miterlimit="10" d="M 478.417969 103.242188 C 478.417969 106.578125 473.417969 106.578125 473.417969 103.242188 C 473.417969 99.910156 478.417969 99.910156 478.417969 103.242188 "/>
<path fill-rule="nonzero" fill="rgb(70.196078%, 70.196078%, 70.196078%)" fill-opacity="1" stroke-width="1" stroke-linecap="butt" stroke-linejoin="miter" stroke="rgb(70.196078%, 70.196078%, 70.196078%)" stroke-opacity="1" stroke-miterlimit="10" d="M 429.574219 201.105469 C 429.574219 204.441406 424.574219 204.441406 424.574219 201.105469 C 424.574219 197.773438 429.574219 197.773438 429.574219 201.105469 "/>
<path fill-rule="nonzero" fill="rgb(70.196078%, 70.196078%, 70.196078%)" fill-opacity="1" stroke-width="1" stroke-linecap="butt" stroke-linejoin="miter" stroke="rgb(70.196078%, 70.196078%, 70.196078%)" stroke-opacity="1" stroke-miterlimit="10" d="M 331.609375 451.15625 C 331.609375 454.488281 326.609375 454.488281 326.609375 451.15625 C 326.609375 447.820312 331.609375 447.820312 331.609375 451.15625 "/>
<path fill-rule="nonzero" fill="rgb(70.196078%, 70.196078%, 70.196078%)" fill-opacity="1" stroke-width="1" stroke-linecap="butt" stroke-linejoin="miter" stroke="rgb(70.196078%, 70.196078%, 70.196078%)" stroke-opacity="1" stroke-miterlimit="10" d="M 356.46875 387.945312 C 356.46875 391.277344 351.46875 391.277344 351.46875 387.945312 C 351.46875 384.609375 356.46875 384.609375 356.46875 387.945312 "/>
<path fill-rule="nonzero" fill="rgb(70.196078%, 70.196078%, 70.196078%)" fill-opacity="1" stroke-width="1" stroke-linecap="butt" stroke-linejoin="miter" stroke="rgb(70.196078%, 70.196078%, 70.196078%)" stroke-opacity="1" stroke-miterlimit="10" d="M 381.03125 324.023438 C 381.03125 327.355469 376.03125 327.355469 376.03125 324.023438 C 376.03125 320.6875 381.03125 320.6875 381.03125 324.023438 "/>
<path fill-rule="nonzero" fill="rgb(70.196078%, 70.196078%, 70.196078%)" fill-opacity="1" stroke-width="1" stroke-linecap="butt" stroke-linejoin="miter" stroke="rgb(70.196078%, 70.196078%, 70.196078%)" stroke-opacity="1" stroke-miterlimit="10" d="M 405.335938 260.898438 C 405.335938 264.230469 400.335938 264.230469 400.335938 260.898438 C 400.335938 257.5625 405.335938 257.5625 405.335938 260.898438 "/>
<path fill-rule="nonzero" fill="rgb(100%, 84.313725%, 0%)" fill-opacity="1" stroke-width="1" stroke-linecap="butt" stroke-linejoin="miter" stroke="rgb(100%, 84.313725%, 0%)" stroke-opacity="1" stroke-miterlimit="10" d="M 747.5 481.472656 L 752.5 481.472656 L 752.5 486.472656 L 747.5 486.472656 Z M 747.5 481.472656 "/>
<path fill-rule="nonzero" fill="rgb(70.196078%, 70.196078%, 70.196078%)" fill-opacity="1" stroke-width="1" stroke-linecap="butt" stroke-linejoin="miter" stroke="rgb(70.196078%, 70.196078%, 70.196078%)" stroke-opacity="1" stroke-miterlimit="10" d="M 739.03125 445.488281 C 739.03125 448.824219 734.03125 448.824219 734.03125 445.488281 C 734.03125 442.15625 739.03125 442.15625 739.03125 445.488281 "/>
<path fill-rule="nonzero" fill="rgb(70.196078%, 70.196078%, 70.196078%)" fill-opacity="1" stroke-width="1" stroke-linecap="butt" stroke-linejoin="miter" stroke="rgb(70.196078%, 70.196078%, 70.196078%)" stroke-opacity="1" stroke-miterlimit="10" d="M 646.488281 162.050781 C 646.488281 165.386719 641.488281 165.386719 641.488281 162.050781 C 641.488281 158.71875 646.488281 158.71875 646.488281 162.050781 "/>
<path fill-rule="nonzero" fill="rgb(70.196078%, 70.196078%, 70.196078%)" fill-opacity="1" stroke-width="1" stroke-linecap="butt" stroke-linejoin="miter" stroke="rgb(70.196078%, 70.196078%, 70.196078%)" stroke-opacity="1" stroke-miterlimit="10" d="M 667.246094 215.914062 C 667.246094 219.25 662.246094 219.25 662.246094 215.914062 C 662.246094 212.582031 667.246094 212.582031 667.246094 215.914062 "/>
<path fill-rule="nonzero" fill="rgb(70.196078%, 70.196078%, 70.196078%)" fill-opacity="1" stroke-width="1" stroke-linecap="butt" stroke-linejoin="miter" stroke="rgb(70.196078%, 70.196078%, 70.196078%)" stroke-opacity="1" stroke-miterlimit="10" d="M 553.210938 50 C 553.210938 53.332031 548.210938 53.332031 548.210938 50 C 548.210938 46.667969 553.210938 46.667969 553.210938 50 "/>
<path fill-rule="nonzero" fill="rgb(70.196078%, 70.196078%, 70.196078%)" fill-opacity="1" stroke-width="1" stroke-linecap="butt" stroke-linejoin="miter" stroke="rgb(70.196078%, 70.196078%, 70.196078%)" stroke-opacity="1" stroke-miterlimit="10" d="M 577.734375 59.378906 C 577.734375 62.714844 572.734375 62.714844 572.734375 59.378906 C 572.734375 56.046875 577.734375 56.046875 577.734375 59.378906 "/>
<path fill-rule="nonzero" fill="rgb(70.196078%, 70.196078%, 70.196078%)" fill-opacity="1" stroke-width="1" stroke-linecap="butt" stroke-linejoin="miter" stroke="rgb(70.196078%, 70.196078%, 70.196078%)" stroke-opacity="1" stroke-miterlimit="10" d="M 528.265625 53.796875 C 528.265625 57.128906 523.265625 57.128906 523.265625 53.796875 C 523.265625 50.464844 528.265625 50.464844 528.265625 53.796875 "/>
<path fill-rule="nonzero" fill="rgb(70.196078%, 70.196078%, 70.196078%)" fill-opacity="1" stroke-width="1" stroke-linecap="butt" stroke-linejoin="miter" stroke="rgb(70.196078%, 70.196078%, 70.196078%)" stroke-opacity="1" stroke-miterlimit="10" d="M 601.722656 82.011719 C 601.722656 85.34375 596.722656 85.34375 596.722656 82.011719 C 596.722656 78.679688 601.722656 78.679688 601.722656 82.011719 "/>
<path fill-rule="nonzero" fill="rgb(70.196078%, 70.196078%, 70.196078%)" fill-opacity="1" stroke-width="1" stroke-linecap="butt" stroke-linejoin="miter" stroke="rgb(70.196078%, 70.196078%, 70.196078%)" stroke-opacity="1" stroke-miterlimit="10" d="M 503.25 71.5625 C 503.25 74.894531 498.25 74.894531 498.25 71.5625 C 498.25 68.226562 503.25 68.226562 503.25 71.5625 "/>
<path fill-rule="nonzero" fill="rgb(70.196078%, 70.196078%, 70.196078%)" fill-opacity="1" stroke-width="1" stroke-linecap="butt" stroke-linejoin="miter" stroke="rgb(70.196078%, 70.196078%, 70.196078%)" stroke-opacity="1" stroke-miterlimit="10" d="M 686.972656 274.824219 C 686.972656 278.160156 681.972656 278.160156 681.972656 274.824219 C 681.972656 271.492188 686.972656 271.492188 686.972656 274.824219 "/>
<path fill-rule="nonzero" fill="rgb(70.196078%, 70.196078%, 70.196078%)" fill-opacity="1" stroke-width="1" stroke-linecap="butt" stroke-linejoin="miter" stroke="rgb(70.196078%, 70.196078%, 70.196078%)" stroke-opacity="1" stroke-miterlimit="10" d="M 705.621094 335.359375 C 705.621094 338.691406 700.621094 338.691406 700.621094 335.359375 C 700.621094 332.027344 705.621094 332.027344 705.621094 335.359375 "/>
<path fill-rule="nonzero" fill="rgb(70.196078%, 70.196078%, 70.196078%)" fill-opacity="1" stroke-width="1" stroke-linecap="butt" stroke-linejoin="miter" stroke="rgb(70.196078%, 70.196078%, 70.196078%)" stroke-opacity="1" stroke-miterlimit="10" d="M 723.082031 393.75 C 723.082031 397.082031 718.082031 397.082031 718.082031 393.75 C 718.082031 390.414062 723.082031 390.414062 723.082031 393.75 "/>
</svg>
