<?xml version="1.0" encoding="UTF-8"?>
<svg xmlns="http://www.w3.org/2000/svg" xmlns:xlink="http://www.w3.org/1999/xlink" width="800" height="800" viewBox="0 0 800 800">
<rect x="-80" y="-80" width="960" height="960" fill="rgb(100%, 100%, 100%)" fill-opacity="1"/>
<path fill="none" stroke-width="4.5" stroke-linecap="butt" stroke-linejoin="miter" stroke="rgb(70.196078%, 70.196078%, 70.196078%)" stroke-opacity="1" stroke-miterlimit="10" d="M 356.476562 651.707031 C 361.476562 617.476562 353.710938 586.347656 330.527344 560.703125 "/>
<path fill-rule="nonzero" fill="rgb(70.196078%, 70.196078%, 70.196078%)" fill-opacity="1" d="M 325.742188 555.410156 L 332.246094 559.148438 L 328.808594 562.257812 L 325.742188 555.410156 "/>
<path fill="none" stroke-width="4.5" stroke-linecap="butt" stroke-linejoin="miter" stroke="rgb(70.196078%, 70.196078%, 70.196078%)" stroke-opacity="1" stroke-miterlimit="10" d="M 393.71875 718.625 C 393.351562 694.527344 384.75 673.695312 365.746094 658.914062 "/>
<path fill-rule="nonzero" fill="rgb(70.196078%, 70.196078%, 70.196078%)" fill-opacity="1" d="M 360.117188 654.535156 L 367.171875 657.085938 L 364.324219 660.746094 L 360.117188 654.535156 "/>
<path fill="none" stroke-width="5.5" stroke-linecap="butt" stroke-linejoin="miter" stroke="rgb(70.196078%, 70.196078%, 70.196078%)" stroke-opacity="1" stroke-miterlimit="10" d="M 669.964844 297.867188 C 653.996094 304.996094 642.238281 316.625 638.125 333.585938 "/>
<path fill-rule="nonzero" fill="rgb(70.196078%, 70.196078%, 70.196078%)" fill-opacity="1" d="M 636.445312 340.515625 L 635.875 333.039062 L 640.378906 334.128906 L 636.445312 340.515625 "/>
<path fill="none" stroke-width="4.5" stroke-linecap="butt" stroke-linejoin="miter" stroke="rgb(70.196078%, 70.196078%, 70.196078%)" stroke-opacity="1" stroke-miterlimit="10" d="M 597.082031 391.582031 C 570.273438 427.3125 560.203125 467.324219 570.3125 510.816406 "/>
<path fill-rule="nonzero" fill="rgb(70.196078%, 70.196078%, 70.196078%)" fill-opacity="1" d="M 571.929688 517.765625 L 568.058594 511.34375 L 572.570312 510.292969 L 571.929688 517.765625 "/>
<path fill="none" stroke-width="1.5" stroke-linecap="butt" stroke-linejoin="miter" stroke="rgb(12.156863%, 47.058824%, 70.588235%)" stroke-opacity="1" stroke-miterlimit="10" d="M 597.082031 391.582031 C 603.476562 359.460938 597.65625 329.644531 576.980469 304.273438 "/>
<path fill-rule="nonzero" fill="rgb(12.156863%, 47.058824%, 70.588235%)" fill-opacity="1" d="M 572.476562 298.742188 L 578.777344 302.808594 L 575.183594 305.738281 L 572.476562 298.742188 "/>
<path fill="none" stroke-width="5.5" stroke-linecap="butt" stroke-linejoin="miter" stroke="rgb(70.196078%, 70.196078%, 70.196078%)" stroke-opacity="1" stroke-miterlimit="10" d="M 635.285156 345.300781 C 618.511719 351.679688 605.820312 362.917969 600.597656 380.046875 "/>
<path fill-rule="nonzero" fill="rgb(70.196078%, 70.196078%, 70.196078%)" fill-opacity="1" d="M 598.519531 386.871094 L 598.382812 379.371094 L 602.816406 380.722656 L 598.519531 386.871094 "/>
<path fill="none" stroke-width="4.5" stroke-linecap="butt" stroke-linejoin="miter" stroke="rgb(70.196078%, 70.196078%, 70.196078%)" stroke-opacity="1" stroke-miterlimit="10" d="M 432.496094 750 C 427.601562 736.609375 418.859375 726.183594 405.253906 722.09375 "/>
<path fill-rule="nonzero" fill="rgb(70.196078%, 70.196078%, 70.196078%)" fill-opacity="1" d="M 398.421875 720.039062 L 405.917969 719.875 L 404.585938 724.3125 L 398.421875 720.039062 "/>
<path fill="none" stroke-width="4.5" stroke-linecap="butt" stroke-linejoin="miter" stroke="rgb(70.196078%, 70.196078%, 70.196078%)" stroke-opacity="1" stroke-miterlimit="10" d="M 471.324219 744.761719 C 461.976562 740.289062 451.949219 739.046875 442.976562 744.101562 "/>
<path fill-rule="nonzero" fill="rgb(70.196078%, 70.196078%, 70.196078%)" fill-opacity="1" d="M 436.757812 747.597656 L 441.839844 742.082031 L 444.113281 746.121094 L 436.757812 747.597656 "/>
<path fill="none" stroke-width="4.5" stroke-linecap="butt" stroke-linejoin="miter" stroke="rgb(70.196078%, 70.196078%, 70.196078%)" stroke-opacity="1" stroke-miterlimit="10" d="M 543.066406 627.964844 C 522.144531 644.085938 509.605469 665.289062 508.972656 691.664062 "/>
<path fill-rule="nonzero" fill="rgb(70.196078%, 70.196078%, 70.196078%)" fill-opacity="1" d="M 508.800781 698.792969 L 506.65625 691.609375 L 511.289062 691.71875 L 508.800781 698.792969 "/>
<path fill="none" stroke-width="4.5" stroke-linecap="butt" stroke-linejoin="miter" stroke="rgb(70.196078%, 70.196078%, 70.196078%)" stroke-opacity="1" stroke-miterlimit="10" d="M 572.976562 522.273438 C 548.382812 548.898438 536.726562 580.402344 541.511719 616.3125 "/>
<path fill-rule="nonzero" fill="rgb(70.196078%, 70.196078%, 70.196078%)" fill-opacity="1" d="M 542.453125 623.382812 L 539.214844 616.617188 L 543.808594 616.007812 L 542.453125 623.382812 "/>
<path fill="none" stroke-width="4.5" stroke-linecap="butt" stroke-linejoin="miter" stroke="rgb(70.196078%, 70.196078%, 70.196078%)" stroke-opacity="1" stroke-miterlimit="10" d="M 508.691406 703.40625 C 493.085938 708.410156 480.871094 718.015625 475.378906 733.410156 "/>
<path fill-rule="nonzero" fill="rgb(70.196078%, 70.196078%, 70.196078%)" fill-opacity="1" d="M 472.980469 740.128906 L 473.195312 732.628906 L 477.558594 734.1875 L 472.980469 740.128906 "/>
<path fill="none" stroke-width="5.5" stroke-linecap="butt" stroke-linejoin="miter" stroke="rgb(70.196078%, 70.196078%, 70.196078%)" stroke-opacity="1" stroke-miterlimit="10" d="M 701.199219 252.535156 C 686.601562 259.414062 675.882812 270.351562 672.5 286.085938 "/>
<path fill-rule="nonzero" fill="rgb(70.196078%, 70.196078%, 70.196078%)" fill-opacity="1" d="M 671 293.058594 L 670.234375 285.597656 L 674.765625 286.570312 L 671 293.058594 "/>
<path fill="none" stroke-width="5.5" stroke-linecap="butt" stroke-linejoin="miter" stroke="rgb(70.196078%, 70.196078%, 70.196078%)" stroke-opacity="1" stroke-miterlimit="10" d="M 728.421875 211.925781 C 715.832031 217.8125 706.417969 227.179688 703.628906 240.738281 "/>
<path fill-rule="nonzero" fill="rgb(70.196078%, 70.196078%, 70.196078%)" fill-opacity="1" d="M 702.1875 247.726562 L 701.355469 240.273438 L 705.898438 241.207031 L 702.1875 247.726562 "/>
<path fill="none" stroke-width="5.5" stroke-linecap="butt" stroke-linejoin="miter" stroke="rgb(70.196078%, 70.196078%, 70.196078%)" stroke-opacity="1" stroke-miterlimit="10" d="M 750 180.589844 C 740.761719 184.296875 733.324219 190.574219 731.113281 200.207031 "/>
<path fill-rule="nonzero" fill="rgb(70.196078%, 70.196078%, 70.196078%)" fill-opacity="1" d="M 729.515625 207.160156 L 728.855469 199.6875 L 733.371094 200.726562 L 729.515625 207.160156 "/>
<path fill="none" stroke-width="1.5" stroke-linecap="butt" stroke-linejoin="miter" stroke="rgb(12.156863%, 47.058824%, 70.588235%)" stroke-opacity="1" stroke-miterlimit="10" d="M 119.777344 308.273438 C 106.660156 322.535156 99.949219 339.488281 103.0625 358.578125 "/>
<path fill-rule="nonzero" fill="rgb(12.156863%, 47.058824%, 70.588235%)" fill-opacity="1" d="M 104.210938 365.617188 L 100.777344 358.953125 L 105.351562 358.207031 L 104.210938 365.617188 "/>
<path fill="none" stroke-width="4.5" stroke-linecap="butt" stroke-linejoin="miter" stroke="rgb(70.196078%, 70.196078%, 70.196078%)" stroke-opacity="1" stroke-miterlimit="10" d="M 119.777344 308.273438 C 124.15625 277.828125 117.273438 250.078125 96.523438 227.402344 "/>
<path fill-rule="nonzero" fill="rgb(70.196078%, 70.196078%, 70.196078%)" fill-opacity="1" d="M 91.707031 222.140625 L 98.234375 225.835938 L 94.8125 228.96875 L 91.707031 222.140625 "/>
<path fill="none" stroke-width="5.5" stroke-linecap="butt" stroke-linejoin="miter" stroke="rgb(70.196078%, 70.196078%, 70.196078%)" stroke-opacity="1" stroke-miterlimit="10" d="M 156.769531 370.386719 C 155.867188 347.867188 147.386719 328.53125 129.242188 315.21875 "/>
<path fill-rule="nonzero" fill="rgb(70.196078%, 70.196078%, 70.196078%)" fill-opacity="1" d="M 123.492188 311 L 130.613281 313.351562 L 127.871094 317.089844 L 123.492188 311 "/>
<path fill="none" stroke-width="5.5" stroke-linecap="butt" stroke-linejoin="miter" stroke="rgb(70.196078%, 70.196078%, 70.196078%)" stroke-opacity="1" stroke-miterlimit="10" d="M 195.128906 427.898438 C 193.324219 406.703125 184.542969 388.765625 166.832031 377.042969 "/>
<path fill-rule="nonzero" fill="rgb(70.196078%, 70.196078%, 70.196078%)" fill-opacity="1" d="M 160.882812 373.109375 L 168.109375 375.113281 L 165.550781 378.976562 L 160.882812 373.109375 "/>
<path fill="none" stroke-width="5.5" stroke-linecap="butt" stroke-linejoin="miter" stroke="rgb(70.196078%, 70.196078%, 70.196078%)" stroke-opacity="1" stroke-miterlimit="10" d="M 235.390625 478.703125 C 232.238281 459.253906 222.90625 443.230469 205.6875 433.726562 "/>
<path fill-rule="nonzero" fill="rgb(70.196078%, 70.196078%, 70.196078%)" fill-opacity="1" d="M 199.441406 430.28125 L 206.808594 431.699219 L 204.566406 435.753906 L 199.441406 430.28125 "/>
<path fill="none" stroke-width="1.5" stroke-linecap="butt" stroke-linejoin="miter" stroke="rgb(12.156863%, 47.058824%, 70.588235%)" stroke-opacity="1" stroke-miterlimit="10" d="M 570.816406 296.707031 C 572.402344 272.214844 565.324219 250.421875 547.277344 233.828125 "/>
<path fill-rule="nonzero" fill="rgb(12.156863%, 47.058824%, 70.588235%)" fill-opacity="1" d="M 542.027344 228.996094 L 548.847656 232.121094 L 545.710938 235.53125 L 542.027344 228.996094 "/>
<path fill="none" stroke-width="5.5" stroke-linecap="butt" stroke-linejoin="miter" stroke="rgb(70.196078%, 70.196078%, 70.196078%)" stroke-opacity="1" stroke-miterlimit="10" d="M 277.714844 521.113281 C 272.992188 503.835938 263.046875 490.144531 246.53125 483.3125 "/>
<path fill-rule="nonzero" fill="rgb(70.196078%, 70.196078%, 70.196078%)" fill-opacity="1" d="M 239.941406 480.585938 L 247.417969 481.171875 L 245.648438 485.453125 L 239.941406 480.585938 "/>
<path fill="none" stroke-width="1.5" stroke-linecap="butt" stroke-linejoin="miter" stroke="rgb(12.156863%, 47.058824%, 70.588235%)" stroke-opacity="1" stroke-miterlimit="10" d="M 404.601562 263.738281 C 383.804688 282.316406 372.328125 305.601562 373.574219 333.441406 "/>
<path fill-rule="nonzero" fill="rgb(12.156863%, 47.058824%, 70.588235%)" fill-opacity="1" d="M 373.894531 340.566406 L 371.257812 333.542969 L 375.890625 333.335938 L 373.894531 340.566406 "/>
<path fill="none" stroke-width="1.5" stroke-linecap="butt" stroke-linejoin="miter" stroke="rgb(12.156863%, 47.058824%, 70.588235%)" stroke-opacity="1" stroke-miterlimit="10" d="M 374.011719 343.191406 C 351.007812 368.472656 340.214844 398.265625 345.003906 432.089844 "/>
<path fill-rule="nonzero" fill="rgb(12.156863%, 47.058824%, 70.588235%)" fill-opacity="1" d="M 346.003906 439.152344 L 342.710938 432.414062 L 347.300781 431.765625 L 346.003906 439.152344 "/>
<path fill="none" stroke-width="5.5" stroke-linecap="butt" stroke-linejoin="miter" stroke="rgb(70.196078%, 70.196078%, 70.196078%)" stroke-opacity="1" stroke-miterlimit="10" d="M 322.324219 551.632812 C 315.585938 537.367188 304.890625 526.878906 289.503906 523.613281 "/>
<path fill-rule="nonzero" fill="rgb(70.196078%, 70.196078%, 70.196078%)" fill-opacity="1" d="M 282.527344 522.132812 L 289.984375 521.34375 L 289.023438 525.878906 L 282.527344 522.132812 "/>
<path fill="none" stroke-width="1.5" stroke-linecap="butt" stroke-linejoin="miter" stroke="rgb(12.156863%, 47.058824%, 70.588235%)" stroke-opacity="1" stroke-miterlimit="10" d="M 346.371094 441.753906 C 322.898438 470.421875 312.9375 503.269531 319.996094 539.625 "/>
<path fill-rule="nonzero" fill="rgb(12.156863%, 47.058824%, 70.588235%)" fill-opacity="1" d="M 321.355469 546.625 L 317.71875 540.066406 L 322.269531 539.183594 L 321.355469 546.625 "/>
<path fill="none" stroke-width="1.5" stroke-linecap="butt" stroke-linejoin="miter" stroke="rgb(12.156863%, 47.058824%, 70.588235%)" stroke-opacity="1" stroke-miterlimit="10" d="M 437.464844 209.226562 C 420.21875 219.441406 408.574219 234.238281 405.902344 254.070312 "/>
<path fill-rule="nonzero" fill="rgb(12.156863%, 47.058824%, 70.588235%)" fill-opacity="1" d="M 404.953125 261.136719 L 403.605469 253.761719 L 408.199219 254.378906 L 404.953125 261.136719 "/>
<path fill="none" stroke-width="1.5" stroke-linecap="butt" stroke-linejoin="miter" stroke="rgb(12.156863%, 47.058824%, 70.588235%)" stroke-opacity="1" stroke-miterlimit="10" d="M 471.820312 183.1875 C 459.347656 184.625 448.53125 189.921875 442.3125 200.769531 "/>
<path fill-rule="nonzero" fill="rgb(12.156863%, 47.058824%, 70.588235%)" fill-opacity="1" d="M 438.765625 206.960938 L 440.300781 199.617188 L 444.324219 201.921875 L 438.765625 206.960938 "/>
<path fill="none" stroke-width="1.5" stroke-linecap="butt" stroke-linejoin="miter" stroke="rgb(12.156863%, 47.058824%, 70.588235%)" stroke-opacity="1" stroke-miterlimit="10" d="M 506.488281 188.867188 C 499.347656 182.460938 490.75 178.703125 481.480469 180.898438 "/>
<path fill-rule="nonzero" fill="rgb(12.156863%, 47.058824%, 70.588235%)" fill-opacity="1" d="M 474.539062 182.542969 L 480.945312 178.644531 L 482.015625 183.15625 L 474.539062 182.542969 "/>
<path fill="none" stroke-width="1.5" stroke-linecap="butt" stroke-linejoin="miter" stroke="rgb(12.156863%, 47.058824%, 70.588235%)" stroke-opacity="1" stroke-miterlimit="10" d="M 540.097656 227.222656 C 536.949219 212.117188 529.164062 199.714844 515.285156 193.074219 "/>
<path fill-rule="nonzero" fill="rgb(12.156863%, 47.058824%, 70.588235%)" fill-opacity="1" d="M 508.847656 189.996094 L 516.285156 190.984375 L 514.28125 195.164062 L 508.847656 189.996094 "/>
<path fill="none" stroke-width="3.5" stroke-linecap="butt" stroke-linejoin="miter" stroke="rgb(70.196078%, 70.196078%, 70.196078%)" stroke-opacity="1" stroke-miterlimit="10" d="M 67.75 119.230469 C 73.269531 98.152344 70.933594 77.835938 57.855469 60.449219 "/>
<path fill-rule="nonzero" fill="rgb(70.196078%, 70.196078%, 70.196078%)" fill-opacity="1" d="M 53.570312 54.746094 L 59.707031 59.054688 L 56.003906 61.839844 L 53.570312 54.746094 "/>
<path fill="none" stroke-width="1.5" stroke-linecap="butt" stroke-linejoin="miter" stroke="rgb(99.215686%, 74.901961%, 43.529412%)" stroke-opacity="1" stroke-miterlimit="10" d="M 88.589844 218.734375 C 81.984375 219.0625 75.613281 221.253906 72.484375 226.964844 "/>
<path fill-rule="nonzero" fill="rgb(99.215686%, 74.901961%, 43.529412%)" fill-opacity="1" d="M 69.054688 233.21875 L 70.449219 225.851562 L 74.515625 228.078125 L 69.054688 233.21875 "/>
<path fill="none" stroke-width="3.5" stroke-linecap="butt" stroke-linejoin="miter" stroke="rgb(70.196078%, 70.196078%, 70.196078%)" stroke-opacity="1" stroke-miterlimit="10" d="M 88.589844 218.734375 C 97.382812 186.660156 93.65625 156.015625 74.519531 128.84375 "/>
<path fill-rule="nonzero" fill="rgb(70.196078%, 70.196078%, 70.196078%)" fill-opacity="1" d="M 70.414062 123.011719 L 76.414062 127.507812 L 72.625 130.175781 L 70.414062 123.011719 "/>
<path fill-rule="nonzero" fill="rgb(70.196078%, 70.196078%, 70.196078%)" fill-opacity="1" stroke-width="1" stroke-linecap="butt" stroke-linejoin="miter" stroke="rgb(70.196078%, 70.196078%, 70.196078%)" stroke-opacity="1" stroke-miterlimit="10" d="M 361.328125 651.707031 C 361.328125 658.171875 351.628906 658.171875 351.628906 651.707031 C 351.628906 645.238281 361.328125 645.238281 361.328125 651.707031 "/>
<path fill-rule="nonzero" fill="rgb(70.196078%, 70.196078%, 70.196078%)" fill-opacity="1" stroke-width="1" stroke-linecap="butt" stroke-linejoin="miter" stroke="rgb(70.196078%, 70.196078%, 70.196078%)" stroke-opacity="1" stroke-miterlimit="10" d="M 398.566406 718.625 C 398.566406 725.09375 388.867188 725.09375 388.867188 718.625 C 388.867188 712.160156 398.566406 712.160156 398.566406 718.625 "/>
<path fill-rule="nonzero" fill="rgb(70.196078%, 70.196078%, 70.196078%)" fill-opacity="1" stroke-width="1" stroke-linecap="butt" stroke-linejoin="miter" stroke="rgb(70.196078%, 70.196078%, 70.196078%)" stroke-opacity="1" stroke-miterlimit="10" d="M 674.816406 297.867188 C 674.816406 304.335938 665.117188 304.335938 665.117188 297.867188 C 665.117188 291.402344 674.816406 291.402344 674.816406 297.867188 "/>
<path fill-rule="nonzero" fill="rgb(70.196078%, 70.196078%, 70.196078%)" fill-opacity="1" stroke-width="1" stroke-linecap="butt" stroke-linejoin="miter" stroke="rgb(70.196078%, 70.196078%, 70.196078%)" stroke-opacity="1" stroke-miterlimit="10" d="M 601.933594 391.582031 C 601.933594 398.046875 592.230469 398.046875 592.230469 391.582031 C 592.230469 385.113281 601.933594 385.113281 601.933594 391.582031 "/>
<path fill-rule="nonzero" fill="rgb(70.196078%, 70.196078%, 70.196078%)" fill-opacity="1" stroke-width="1" stroke-linecap="butt" stroke-linejoin="miter" stroke="rgb(70.196078%, 70.196078%, 70.196078%)" stroke-opacity="1" stroke-miterlimit="10" d="M 640.136719 345.300781 C 640.136719 351.769531 630.4375 351.769531 630.4375 345.300781 C 630.4375 338.835938 640.136719 338.835938 640.136719 345.300781 "/>
<path fill-rule="nonzero" fill="rgb(70.196078%, 70.196078%, 70.196078%)" fill-opacity="1" stroke-width="1" stroke-linecap="butt" stroke-linejoin="miter" stroke="rgb(70.196078%, 70.196078%, 70.196078%)" stroke-opacity="1" stroke-miterlimit="10" d="M 437.34375 750 C 437.34375 756.464844 427.644531 756.464844 427.644531 750 C 427.644531 743.535156 437.34375 743.535156 437.34375 750 "/>
<path fill-rule="nonzero" fill="rgb(70.196078%, 70.196078%, 70.196078%)" fill-opacity="1" stroke-width="1" stroke-linecap="butt" stroke-linejoin="miter" stroke="rgb(70.196078%, 70.196078%, 70.196078%)" stroke-opacity="1" stroke-miterlimit="10" d="M 476.175781 744.761719 C 476.175781 751.226562 466.476562 751.226562 466.476562 744.761719 C 466.476562 738.292969 476.175781 738.292969 476.175781 744.761719 "/>
<path fill-rule="nonzero" fill="rgb(70.196078%, 70.196078%, 70.196078%)" fill-opacity="1" stroke-width="1" stroke-linecap="butt" stroke-linejoin="miter" stroke="rgb(70.196078%, 70.196078%, 70.196078%)" stroke-opacity="1" stroke-miterlimit="10" d="M 547.914062 627.964844 C 547.914062 634.433594 538.214844 634.433594 538.214844 627.964844 C 538.214844 621.5 547.914062 621.5 547.914062 627.964844 "/>
<path fill-rule="nonzero" fill="rgb(70.196078%, 70.196078%, 70.196078%)" fill-opacity="1" stroke-width="1" stroke-linecap="butt" stroke-linejoin="miter" stroke="rgb(70.196078%, 70.196078%, 70.196078%)" stroke-opacity="1" stroke-miterlimit="10" d="M 577.828125 522.273438 C 577.828125 528.738281 568.128906 528.738281 568.128906 522.273438 C 568.128906 515.804688 577.828125 515.804688 577.828125 522.273438 "/>
<path fill-rule="nonzero" fill="rgb(70.196078%, 70.196078%, 70.196078%)" fill-opacity="1" stroke-width="1" stroke-linecap="butt" stroke-linejoin="miter" stroke="rgb(70.196078%, 70.196078%, 70.196078%)" stroke-opacity="1" stroke-miterlimit="10" d="M 513.539062 703.40625 C 513.539062 709.875 503.839844 709.875 503.839844 703.40625 C 503.839844 696.941406 513.539062 696.941406 513.539062 703.40625 "/>
<path fill-rule="nonzero" fill="rgb(70.196078%, 70.196078%, 70.196078%)" fill-opacity="1" stroke-width="1" stroke-linecap="butt" stroke-linejoin="miter" stroke="rgb(70.196078%, 70.196078%, 70.196078%)" stroke-opacity="1" stroke-miterlimit="10" d="M 706.050781 252.535156 C 706.050781 259.003906 696.347656 259.003906 696.347656 252.535156 C 696.347656 246.070312 706.050781 246.070312 706.050781 252.535156 "/>
<path fill-rule="nonzero" fill="rgb(70.196078%, 70.196078%, 70.196078%)" fill-opacity="1" stroke-width="1" stroke-linecap="butt" stroke-linejoin="miter" stroke="rgb(70.196078%, 70.196078%, 70.196078%)" stroke-opacity="1" stroke-miterlimit="10" d="M 733.269531 211.925781 C 733.269531 218.394531 723.570312 218.394531 723.570312 211.925781 C 723.570312 205.460938 733.269531 205.460938 733.269531 211.925781 "/>
<path fill-rule="nonzero" fill="rgb(100%, 84.313725%, 0%)" fill-opacity="1" stroke-width="1" stroke-linecap="butt" stroke-linejoin="miter" stroke="rgb(100%, 84.313725%, 0%)" stroke-opacity="1" stroke-miterlimit="10" d="M 744.648438 175.242188 L 755.347656 175.242188 L 755.347656 185.941406 L 744.648438 185.941406 Z M 744.648438 175.242188 "/>
<path fill-rule="nonzero" fill="rgb(14.901961%, 14.901961%, 14.901961%)" fill-opacity="1" stroke-width="1" stroke-linecap="butt" stroke-linejoin="miter" stroke="rgb(14.901961%, 14.901961%, 14.901961%)" stroke-opacity="1" stroke-miterlimit="10" d="M 101.035156 372.890625 L 104.785156 365.390625 L 108.535156 372.890625 Z M 101.035156 372.890625 "/>
<path fill-rule="nonzero" fill="rgb(70.196078%, 70.196078%, 70.196078%)" fill-opacity="1" stroke-width="1" stroke-linecap="butt" stroke-linejoin="miter" stroke="rgb(70.196078%, 70.196078%, 70.196078%)" stroke-opacity="1" stroke-miterlimit="10" d="M 124.625 308.273438 C 124.625 314.742188 114.925781 314.742188 114.925781 308.273438 C 114.925781 301.808594 124.625 301.808594 124.625 308.273438 "/>
<path fill-rule="nonzero" fill="rgb(70.196078%, 70.196078%, 70.196078%)" fill-opacity="1" stroke-width="1" stroke-linecap="butt" stroke-linejoin="miter" stroke="rgb(70.196078%, 70.196078%, 70.196078%)" stroke-opacity="1" stroke-miterlimit="10" d="M 161.621094 370.386719 C 161.621094 376.851562 151.917969 376.851562 151.917969 370.386719 C 151.917969 363.917969 161.621094 363.917969 161.621094 370.386719 "/>
<path fill-rule="nonzero" fill="rgb(70.196078%, 70.196078%, 70.196078%)" fill-opacity="1" stroke-width="1" stroke-linecap="butt" stroke-linejoin="miter" stroke="rgb(70.196078%, 70.196078%, 70.196078%)" stroke-opacity="1" stroke-miterlimit="10" d="M 199.976562 427.898438 C 199.976562 434.363281 190.277344 434.363281 190.277344 427.898438 C 190.277344 421.429688 199.976562 421.429688 199.976562 427.898438 "/>
<path fill-rule="nonzero" fill="rgb(70.196078%, 70.196078%, 70.196078%)" fill-opacity="1" stroke-width="1" stroke-linecap="butt" stroke-linejoin="miter" stroke="rgb(70.196078%, 70.196078%, 70.196078%)" stroke-opacity="1" stroke-miterlimit="10" d="M 240.242188 478.703125 C 240.242188 485.167969 230.542969 485.167969 230.542969 478.703125 C 230.542969 472.234375 240.242188 472.234375 240.242188 478.703125 "/>
<path fill-rule="nonzero" fill="rgb(12.156863%, 47.058824%, 70.588235%)" fill-opacity="1" stroke-width="1" stroke-linecap="butt" stroke-linejoin="miter" stroke="rgb(12.156863%, 47.058824%, 70.588235%)" stroke-opacity="1" stroke-miterlimit="10" d="M 573.566406 296.707031 C 573.566406 300.371094 568.066406 300.371094 568.066406 296.707031 C 568.066406 293.039062 573.566406 293.039062 573.566406 296.707031 "/>
<path fill-rule="nonzero" fill="rgb(70.196078%, 70.196078%, 70.196078%)" fill-opacity="1" stroke-width="1" stroke-linecap="butt" stroke-linejoin="miter" stroke="rgb(70.196078%, 70.196078%, 70.196078%)" stroke-opacity="1" stroke-miterlimit="10" d="M 282.566406 521.113281 C 282.566406 527.578125 272.867188 527.578125 272.867188 521.113281 C 272.867188 514.644531 282.566406 514.644531 282.566406 521.113281 "/>
<path fill-rule="nonzero" fill="rgb(12.156863%, 47.058824%, 70.588235%)" fill-opacity="1" stroke-width="1" stroke-linecap="butt" stroke-linejoin="miter" stroke="rgb(12.156863%, 47.058824%, 70.588235%)" stroke-opacity="1" stroke-miterlimit="10" d="M 407.351562 263.738281 C 407.351562 267.402344 401.851562 267.402344 401.851562 263.738281 C 401.851562 260.070312 407.351562 260.070312 407.351562 263.738281 "/>
<path fill-rule="nonzero" fill="rgb(12.156863%, 47.058824%, 70.588235%)" fill-opacity="1" stroke-width="1" stroke-linecap="butt" stroke-linejoin="miter" stroke="rgb(12.156863%, 47.058824%, 70.588235%)" stroke-opacity="1" stroke-miterlimit="10" d="M 376.761719 343.191406 C 376.761719 346.855469 371.261719 346.855469 371.261719 343.191406 C 371.261719 339.523438 376.761719 339.523438 376.761719 343.191406 "/>
<path fill-rule="nonzero" fill="rgb(70.196078%, 70.196078%, 70.196078%)" fill-opacity="1" stroke-width="1" stroke-linecap="butt" stroke-linejoin="miter" stroke="rgb(70.196078%, 70.196078%, 70.196078%)" stroke-opacity="1" stroke-miterlimit="10" d="M 327.675781 551.632812 C 327.675781 558.765625 316.976562 558.765625 316.976562 551.632812 C 316.976562 544.496094 327.675781 544.496094 327.675781 551.632812 "/>
<path fill-rule="nonzero" fill="rgb(12.156863%, 47.058824%, 70.588235%)" fill-opacity="1" stroke-width="1" stroke-linecap="butt" stroke-linejoin="miter" stroke="rgb(12.156863%, 47.058824%, 70.588235%)" stroke-opacity="1" stroke-miterlimit="10" d="M 349.121094 441.753906 C 349.121094 445.421875 343.621094 445.421875 343.621094 441.753906 C 343.621094 438.085938 349.121094 438.085938 349.121094 441.753906 "/>
<path fill-rule="nonzero" fill="rgb(12.156863%, 47.058824%, 70.588235%)" fill-opacity="1" stroke-width="1" stroke-linecap="butt" stroke-linejoin="miter" stroke="rgb(12.156863%, 47.058824%, 70.588235%)" stroke-opacity="1" stroke-miterlimit="10" d="M 440.214844 209.226562 C 440.214844 212.894531 434.714844 212.894531 434.714844 209.226562 C 434.714844 205.5625 440.214844 205.5625 440.214844 209.226562 "/>
<path fill-rule="nonzero" fill="rgb(12.156863%, 47.058824%, 70.588235%)" fill-opacity="1" stroke-width="1" stroke-linecap="butt" stroke-linejoin="miter" stroke="rgb(12.156863%, 47.058824%, 70.588235%)" stroke-opacity="1" stroke-miterlimit="10" d="M 474.570312 183.1875 C 474.570312 186.855469 469.070312 186.855469 469.070312 183.1875 C 469.070312 179.523438 474.570312 179.523438 474.570312 183.1875 "/>
<path fill-rule="nonzero" fill="rgb(12.156863%, 47.058824%, 70.588235%)" fill-opacity="1" stroke-width="1" stroke-linecap="butt" stroke-linejoin="miter" stroke="rgb(12.156863%, 47.058824%, 70.588235%)" stroke-opacity="1" stroke-miterlimit="10" d="M 509.238281 188.867188 C 509.238281 192.535156 503.738281 192.535156 503.738281 188.867188 C 503.738281 185.199219 509.238281 185.199219 509.238281 188.867188 "/>
<path fill-rule="nonzero" fill="rgb(12.156863%, 47.058824%, 70.588235%)" fill-opacity="1" stroke-width="1" stroke-linecap="butt" stroke-linejoin="miter" stroke="rgb(12.156863%, 47.058824%, 70.588235%)" stroke-opacity="1" stroke-miterlimit="10" d="M 542.847656 227.222656 C 542.847656 230.886719 537.347656 230.886719 537.347656 227.222656 C 537.347656 223.554688 542.847656 223.554688 542.847656 227.222656 "/>
<path fill-rule="nonzero" fill="rgb(14.901961%, 14.901961%, 14.901961%)" fill-opacity="1" stroke-width="1" stroke-linecap="butt" stroke-linejoin="miter" stroke="rgb(14.901961%, 14.901961%, 14.901961%)" stroke-opacity="1" stroke-miterlimit="10" d="M 63.488281 240.28125 L 67.238281 232.78125 L 70.988281 240.28125 Z M 63.488281 240.28125 "/>
<path fill-rule="nonzero" fill="rgb(14.901961%, 14.901961%, 14.901961%)" fill-opacity="1" stroke-width="1" stroke-linecap="butt" stroke-linejoin="miter" stroke="rgb(14.901961%, 14.901961%, 14.901961%)" stroke-opacity="1" stroke-miterlimit="10" d="M 44.148438 55.851562 L 50 44.148438 L 55.851562 55.851562 Z M 44.148438 55.851562 "/>
<path fill-rule="nonzero" fill="rgb(70.196078%, 70.196078%, 70.196078%)" fill-opacity="1" stroke-width="1" stroke-linecap="butt" stroke-linejoin="miter" stroke="rgb(70.196078%, 70.196078%, 70.196078%)" stroke-opacity="1" stroke-miterlimit="10" d="M 72.601562 119.230469 C 72.601562 125.699219 62.902344 125.699219 62.902344 119.230469 C 62.902344 112.765625 72.601562 112.765625 72.601562 119.230469 "/>
<path fill-rule="nonzero" fill="rgb(70.196078%, 70.196078%, 70.196078%)" fill-opacity="1" stroke-width="1" stroke-linecap="butt" stroke-linejoin="miter" stroke="rgb(70.196078%, 70.196078%, 70.196078%)" stroke-opacity="1" stroke-miterlimit="10" d="M 93.4375 218.734375 C 93.4375 225.199219 83.738281 225.199219 83.738281 218.734375 C 83.738281 212.265625 93.4375 212.265625 93.4375 218.734375 "/>
</svg>
