<?xml version="1.0" encoding="UTF-8"?>
<svg xmlns="http://www.w3.org/2000/svg" xmlns:xlink="http://www.w3.org/1999/xlink" width="800" height="800" viewBox="0 0 800 800">
<rect x="-80" y="-80" width="960" height="960" fill="rgb(100%, 100%, 100%)" fill-opacity="1"/>
<path fill="none" stroke-width="1.5" stroke-linecap="butt" stroke-linejoin="miter" stroke="rgb(98.431373%, 60.392157%, 60%)" stroke-opacity="1" stroke-miterlimit="10" d="M 62.304688 750 C 69.914062 726.746094 68.484375 703.945312 55.183594 683.441406 "/>
<path fill-rule="nonzero" fill="rgb(98.431373%, 60.392157%, 60%)" fill-opacity="1" d="M 51.300781 677.457031 L 57.125 682.179688 L 53.238281 684.703125 L 51.300781 677.457031 "/>
<path fill="none" stroke-width="1.5" stroke-linecap="butt" stroke-linejoin="miter" stroke="rgb(98.431373%, 60.392157%, 60%)" stroke-opacity="1" stroke-miterlimit="10" d="M 89.519531 744.324219 C 82.410156 741.570312 74.835938 741.058594 68.695312 745.441406 "/>
<path fill-rule="nonzero" fill="rgb(98.431373%, 60.392157%, 60%)" fill-opacity="1" d="M 62.890625 749.582031 L 67.351562 743.554688 L 70.042969 747.328125 L 62.890625 749.582031 "/>
<path fill="none" stroke-width="1.5" stroke-linecap="butt" stroke-linejoin="miter" stroke="rgb(98.431373%, 60.392157%, 60%)" stroke-opacity="1" stroke-miterlimit="10" d="M 118.257812 685.578125 C 101.136719 698.273438 90.5625 715.203125 89.800781 736.476562 "/>
<path fill-rule="nonzero" fill="rgb(98.431373%, 60.392157%, 60%)" fill-opacity="1" d="M 89.542969 743.605469 L 87.484375 736.394531 L 92.117188 736.558594 L 89.542969 743.605469 "/>
<path fill="none" stroke-width="1.5" stroke-linecap="butt" stroke-linejoin="miter" stroke="rgb(98.431373%, 60.392157%, 60%)" stroke-opacity="1" stroke-miterlimit="10" d="M 158.242188 91.976562 C 145.984375 120.214844 145.355469 148.796875 159.363281 176.183594 "/>
<path fill-rule="nonzero" fill="rgb(98.431373%, 60.392157%, 60%)" fill-opacity="1" d="M 162.613281 182.53125 L 157.300781 177.238281 L 161.425781 175.125 L 162.613281 182.53125 "/>
<path fill="none" stroke-width="1.5" stroke-linecap="butt" stroke-linejoin="miter" stroke="rgb(98.431373%, 60.392157%, 60%)" stroke-opacity="1" stroke-miterlimit="10" d="M 175.75 50 C 164.734375 58.722656 157.753906 70.125 158.066406 84.128906 "/>
<path fill-rule="nonzero" fill="rgb(98.431373%, 60.392157%, 60%)" fill-opacity="1" d="M 158.226562 91.257812 L 155.75 84.179688 L 160.382812 84.074219 L 158.226562 91.257812 "/>
<path fill="none" stroke-width="5.5" stroke-linecap="butt" stroke-linejoin="miter" stroke="rgb(70.196078%, 70.196078%, 70.196078%)" stroke-opacity="1" stroke-miterlimit="10" d="M 750 590.75 C 748.75 580.875 744.539062 572.132812 735.789062 567.515625 "/>
<path fill-rule="nonzero" fill="rgb(70.196078%, 70.196078%, 70.196078%)" fill-opacity="1" d="M 729.480469 564.1875 L 736.871094 565.464844 L 734.707031 569.566406 L 729.480469 564.1875 "/>
<path fill="none" stroke-width="3.5" stroke-linecap="butt" stroke-linejoin="miter" stroke="rgb(70.196078%, 70.196078%, 70.196078%)" stroke-opacity="1" stroke-miterlimit="10" d="M 410.261719 229.335938 C 406.742188 209.308594 396.855469 192.980469 378.996094 183.328125 "/>
<path fill-rule="nonzero" fill="rgb(70.196078%, 70.196078%, 70.196078%)" fill-opacity="1" d="M 372.722656 179.933594 L 380.097656 181.289062 L 377.894531 185.367188 L 372.722656 179.933594 "/>
<path fill="none" stroke-width="4.5" stroke-linecap="butt" stroke-linejoin="miter" stroke="rgb(70.196078%, 70.196078%, 70.196078%)" stroke-opacity="1" stroke-miterlimit="10" d="M 574.609375 344.757812 C 569.339844 328.375 559.214844 315.667969 543.074219 309.804688 "/>
<path fill-rule="nonzero" fill="rgb(70.196078%, 70.196078%, 70.196078%)" fill-opacity="1" d="M 536.371094 307.367188 L 543.867188 307.625 L 542.285156 311.984375 L 536.371094 307.367188 "/>
<path fill="none" stroke-width="4.5" stroke-linecap="butt" stroke-linejoin="miter" stroke="rgb(70.196078%, 70.196078%, 70.196078%)" stroke-opacity="1" stroke-miterlimit="10" d="M 490.574219 295.542969 C 476.390625 292.996094 462.878906 295.355469 452.332031 305.105469 "/>
<path fill-rule="nonzero" fill="rgb(70.196078%, 70.196078%, 70.196078%)" fill-opacity="1" d="M 447.09375 309.949219 L 450.757812 303.40625 L 453.90625 306.808594 L 447.09375 309.949219 "/>
<path fill="none" stroke-width="4.5" stroke-linecap="butt" stroke-linejoin="miter" stroke="rgb(70.196078%, 70.196078%, 70.196078%)" stroke-opacity="1" stroke-miterlimit="10" d="M 534.128906 306.554688 C 524.617188 297.265625 513.054688 291.988281 499.96875 294.054688 "/>
<path fill-rule="nonzero" fill="rgb(70.196078%, 70.196078%, 70.196078%)" fill-opacity="1" d="M 492.921875 295.167969 L 499.605469 291.765625 L 500.332031 296.34375 L 492.921875 295.167969 "/>
<path fill="none" stroke-width="4.5" stroke-linecap="butt" stroke-linejoin="miter" stroke="rgb(70.196078%, 70.196078%, 70.196078%)" stroke-opacity="1" stroke-miterlimit="10" d="M 163.699219 184.660156 C 136.1875 223.820312 126.871094 266.96875 139.023438 313.246094 "/>
<path fill-rule="nonzero" fill="rgb(70.196078%, 70.196078%, 70.196078%)" fill-opacity="1" d="M 140.835938 320.144531 L 136.78125 313.835938 L 141.265625 312.65625 L 140.835938 320.144531 "/>
<path fill="none" stroke-width="1.5" stroke-linecap="butt" stroke-linejoin="miter" stroke="rgb(98.431373%, 60.392157%, 60%)" stroke-opacity="1" stroke-miterlimit="10" d="M 197.269531 101.910156 C 198.972656 84.035156 194.445312 67.742188 181.445312 55.40625 "/>
<path fill-rule="nonzero" fill="rgb(98.431373%, 60.392157%, 60%)" fill-opacity="1" d="M 176.269531 50.496094 L 183.039062 53.722656 L 179.847656 57.085938 L 176.269531 50.496094 "/>
<path fill="none" stroke-width="3.5" stroke-linecap="butt" stroke-linejoin="miter" stroke="rgb(70.196078%, 70.196078%, 70.196078%)" stroke-opacity="1" stroke-miterlimit="10" d="M 197.269531 101.910156 C 175.007812 121.246094 162.601562 145.6875 163.433594 175.140625 "/>
<path fill-rule="nonzero" fill="rgb(70.196078%, 70.196078%, 70.196078%)" fill-opacity="1" d="M 163.632812 182.269531 L 161.117188 175.207031 L 165.75 175.074219 L 163.632812 182.269531 "/>
<path fill="none" stroke-width="3.5" stroke-linecap="butt" stroke-linejoin="miter" stroke="rgb(70.196078%, 70.196078%, 70.196078%)" stroke-opacity="1" stroke-miterlimit="10" d="M 63.949219 587.890625 C 46.742188 611.554688 40.199219 637.957031 47.59375 666.242188 "/>
<path fill-rule="nonzero" fill="rgb(70.196078%, 70.196078%, 70.196078%)" fill-opacity="1" d="M 49.394531 673.144531 L 45.351562 666.828125 L 49.835938 665.65625 L 49.394531 673.144531 "/>
<path fill="none" stroke-width="3.5" stroke-linecap="butt" stroke-linejoin="miter" stroke="rgb(70.196078%, 70.196078%, 70.196078%)" stroke-opacity="1" stroke-miterlimit="10" d="M 91.171875 521.15625 C 73.4375 536.113281 63.160156 555.210938 63.71875 578.375 "/>
<path fill-rule="nonzero" fill="rgb(70.196078%, 70.196078%, 70.196078%)" fill-opacity="1" d="M 63.890625 585.503906 L 61.402344 578.429688 L 66.035156 578.320312 L 63.890625 585.503906 "/>
<path fill="none" stroke-width="3.5" stroke-linecap="butt" stroke-linejoin="miter" stroke="rgb(70.196078%, 70.196078%, 70.196078%)" stroke-opacity="1" stroke-miterlimit="10" d="M 125.546875 471.765625 C 108.707031 480.246094 96.769531 493.378906 93.050781 511.828125 "/>
<path fill-rule="nonzero" fill="rgb(70.196078%, 70.196078%, 70.196078%)" fill-opacity="1" d="M 91.640625 518.820312 L 90.78125 511.371094 L 95.324219 512.285156 L 91.640625 518.820312 "/>
<path fill="none" stroke-width="1.5" stroke-linecap="butt" stroke-linejoin="miter" stroke="rgb(98.431373%, 60.392157%, 60%)" stroke-opacity="1" stroke-miterlimit="10" d="M 125.546875 471.765625 C 113.375 512.617188 117.601562 551.765625 141.046875 587.347656 "/>
<path fill-rule="nonzero" fill="rgb(98.431373%, 60.392157%, 60%)" fill-opacity="1" d="M 144.972656 593.300781 L 139.113281 588.621094 L 142.984375 586.070312 L 144.972656 593.300781 "/>
<path fill="none" stroke-width="4.5" stroke-linecap="butt" stroke-linejoin="miter" stroke="rgb(70.196078%, 70.196078%, 70.196078%)" stroke-opacity="1" stroke-miterlimit="10" d="M 141.441406 322.460938 C 114.136719 366.382812 106.789062 413.476562 122.628906 462.699219 "/>
<path fill-rule="nonzero" fill="rgb(70.196078%, 70.196078%, 70.196078%)" fill-opacity="1" d="M 124.8125 469.488281 L 120.421875 463.410156 L 124.832031 461.988281 L 124.8125 469.488281 "/>
<path fill="none" stroke-width="4.5" stroke-linecap="butt" stroke-linejoin="miter" stroke="rgb(70.196078%, 70.196078%, 70.196078%)" stroke-opacity="1" stroke-miterlimit="10" d="M 240.378906 78.859375 C 225.648438 78.488281 212.375 82.992188 203.207031 94.476562 "/>
<path fill-rule="nonzero" fill="rgb(70.196078%, 70.196078%, 70.196078%)" fill-opacity="1" d="M 198.757812 100.050781 L 201.394531 93.03125 L 205.019531 95.921875 L 198.757812 100.050781 "/>
<path fill="none" stroke-width="4.5" stroke-linecap="butt" stroke-linejoin="miter" stroke="rgb(70.196078%, 70.196078%, 70.196078%)" stroke-opacity="1" stroke-miterlimit="10" d="M 284.074219 83.808594 C 273.699219 76.0625 261.847656 72.421875 249.492188 76.128906 "/>
<path fill-rule="nonzero" fill="rgb(70.196078%, 70.196078%, 70.196078%)" fill-opacity="1" d="M 242.660156 78.175781 L 248.828125 73.910156 L 250.15625 78.347656 L 242.660156 78.175781 "/>
<path fill="none" stroke-width="4.5" stroke-linecap="butt" stroke-linejoin="miter" stroke="rgb(70.196078%, 70.196078%, 70.196078%)" stroke-opacity="1" stroke-miterlimit="10" d="M 370.621094 178.800781 C 367.46875 154.796875 356.449219 135.054688 335.804688 122.460938 "/>
<path fill-rule="nonzero" fill="rgb(70.196078%, 70.196078%, 70.196078%)" fill-opacity="1" d="M 329.714844 118.746094 L 337.011719 120.480469 L 334.597656 124.4375 L 329.714844 118.746094 "/>
<path fill="none" stroke-width="1.5" stroke-linecap="butt" stroke-linejoin="miter" stroke="rgb(98.431373%, 60.392157%, 60%)" stroke-opacity="1" stroke-miterlimit="10" d="M 384.675781 264.46875 C 393.375 237.246094 391.363281 210.734375 375.808594 186.785156 "/>
<path fill-rule="nonzero" fill="rgb(98.431373%, 60.392157%, 60%)" fill-opacity="1" d="M 371.921875 180.804688 L 377.753906 185.523438 L 373.863281 188.046875 L 371.921875 180.804688 "/>
<path fill="none" stroke-width="4.5" stroke-linecap="butt" stroke-linejoin="miter" stroke="rgb(70.196078%, 70.196078%, 70.196078%)" stroke-opacity="1" stroke-miterlimit="10" d="M 327.679688 117.503906 C 320.917969 101.898438 309.734375 90.359375 293.296875 86.164062 "/>
<path fill-rule="nonzero" fill="rgb(70.196078%, 70.196078%, 70.196078%)" fill-opacity="1" d="M 286.382812 84.398438 L 293.867188 83.917969 L 292.722656 88.410156 L 286.382812 84.398438 "/>
<path fill="none" stroke-width="3.5" stroke-linecap="butt" stroke-linejoin="miter" stroke="rgb(70.196078%, 70.196078%, 70.196078%)" stroke-opacity="1" stroke-miterlimit="10" d="M 606.523438 370.574219 C 602.414062 359.421875 595.136719 350.605469 583.757812 347.363281 "/>
<path fill-rule="nonzero" fill="rgb(70.196078%, 70.196078%, 70.196078%)" fill-opacity="1" d="M 576.898438 345.410156 L 584.390625 345.132812 L 583.121094 349.59375 L 576.898438 345.410156 "/>
<path fill="none" stroke-width="1.5" stroke-linecap="butt" stroke-linejoin="miter" stroke="rgb(98.431373%, 60.392157%, 60%)" stroke-opacity="1" stroke-miterlimit="10" d="M 399.308594 357.441406 C 408.816406 327.09375 406.277344 297.703125 388.957031 271.054688 "/>
<path fill-rule="nonzero" fill="rgb(98.431373%, 60.392157%, 60%)" fill-opacity="1" d="M 385.070312 265.070312 L 390.898438 269.789062 L 387.011719 272.316406 L 385.070312 265.070312 "/>
<path fill="none" stroke-width="1.5" stroke-linecap="butt" stroke-linejoin="miter" stroke="rgb(12.156863%, 47.058824%, 70.588235%)" stroke-opacity="1" stroke-miterlimit="10" d="M 399.308594 357.441406 C 373.886719 378.128906 359.398438 404.835938 359.109375 437.589844 "/>
<path fill-rule="nonzero" fill="rgb(12.156863%, 47.058824%, 70.588235%)" fill-opacity="1" d="M 359.046875 444.722656 L 356.789062 437.570312 L 361.425781 437.609375 L 359.046875 444.722656 "/>
<path fill="none" stroke-width="1.5" stroke-linecap="butt" stroke-linejoin="miter" stroke="rgb(12.156863%, 47.058824%, 70.588235%)" stroke-opacity="1" stroke-miterlimit="10" d="M 556.359375 425.230469 C 549.460938 415.019531 539.953125 408.023438 527.691406 407.5 "/>
<path fill-rule="nonzero" fill="rgb(12.156863%, 47.058824%, 70.588235%)" fill-opacity="1" d="M 520.566406 407.195312 L 527.792969 405.183594 L 527.59375 409.8125 L 520.566406 407.195312 "/>
<path fill="none" stroke-width="1.5" stroke-linecap="butt" stroke-linejoin="miter" stroke="rgb(98.431373%, 60.392157%, 60%)" stroke-opacity="1" stroke-miterlimit="10" d="M 590.917969 416.5625 C 596.984375 393.585938 594.339844 371.535156 580.257812 352.421875 "/>
<path fill-rule="nonzero" fill="rgb(98.431373%, 60.392157%, 60%)" fill-opacity="1" d="M 576.027344 346.679688 L 582.121094 351.046875 L 578.390625 353.796875 L 576.027344 346.679688 "/>
<path fill="none" stroke-width="1.5" stroke-linecap="butt" stroke-linejoin="miter" stroke="rgb(12.156863%, 47.058824%, 70.588235%)" stroke-opacity="1" stroke-miterlimit="10" d="M 590.917969 416.5625 C 580.886719 413.589844 570.761719 414.011719 562.550781 420.40625 "/>
<path fill-rule="nonzero" fill="rgb(12.156863%, 47.058824%, 70.588235%)" fill-opacity="1" d="M 556.921875 424.789062 L 561.128906 418.578125 L 563.976562 422.234375 L 556.921875 424.789062 "/>
<path fill="none" stroke-width="3.5" stroke-linecap="butt" stroke-linejoin="miter" stroke="rgb(70.196078%, 70.196078%, 70.196078%)" stroke-opacity="1" stroke-miterlimit="10" d="M 627.625 433.1875 C 631.054688 412.460938 626.984375 393.1875 612.910156 377.632812 "/>
<path fill-rule="nonzero" fill="rgb(70.196078%, 70.196078%, 70.196078%)" fill-opacity="1" d="M 608.121094 372.34375 L 614.625 376.078125 L 611.191406 379.1875 L 608.121094 372.34375 "/>
<path fill="none" stroke-width="2.5" stroke-linecap="butt" stroke-linejoin="miter" stroke="rgb(70.196078%, 70.196078%, 70.196078%)" stroke-opacity="1" stroke-miterlimit="10" d="M 627.625 433.1875 C 621.019531 423.636719 611.976562 417.042969 600.425781 416.78125 "/>
<path fill-rule="nonzero" fill="rgb(70.196078%, 70.196078%, 70.196078%)" fill-opacity="1" d="M 593.292969 416.617188 L 600.476562 414.464844 L 600.371094 419.097656 L 593.292969 416.617188 "/>
<path fill="none" stroke-width="1.5" stroke-linecap="butt" stroke-linejoin="miter" stroke="rgb(12.156863%, 47.058824%, 70.588235%)" stroke-opacity="1" stroke-miterlimit="10" d="M 482.457031 367.890625 C 480.414062 346.476562 471.316406 328.492188 453.320312 316.761719 "/>
<path fill-rule="nonzero" fill="rgb(12.156863%, 47.058824%, 70.588235%)" fill-opacity="1" d="M 447.347656 312.867188 L 454.585938 314.820312 L 452.054688 318.703125 L 447.347656 312.867188 "/>
<path fill="none" stroke-width="1.5" stroke-linecap="butt" stroke-linejoin="miter" stroke="rgb(12.156863%, 47.058824%, 70.588235%)" stroke-opacity="1" stroke-miterlimit="10" d="M 519.847656 407.164062 C 515.246094 390.550781 505.613281 377.453125 489.710938 370.886719 "/>
<path fill-rule="nonzero" fill="rgb(12.156863%, 47.058824%, 70.588235%)" fill-opacity="1" d="M 483.121094 368.164062 L 490.597656 368.746094 L 488.828125 373.03125 L 483.121094 368.164062 "/>
<path fill="none" stroke-width="3.5" stroke-linecap="butt" stroke-linejoin="miter" stroke="rgb(70.196078%, 70.196078%, 70.196078%)" stroke-opacity="1" stroke-miterlimit="10" d="M 445.347656 311.566406 C 447.324219 282.105469 438.714844 256.046875 417.203125 235.851562 "/>
<path fill-rule="nonzero" fill="rgb(70.196078%, 70.196078%, 70.196078%)" fill-opacity="1" d="M 412.003906 230.96875 L 418.789062 234.164062 L 415.617188 237.542969 L 412.003906 230.96875 "/>
<path fill="none" stroke-width="2.5" stroke-linecap="butt" stroke-linejoin="miter" stroke="rgb(70.196078%, 70.196078%, 70.196078%)" stroke-opacity="1" stroke-miterlimit="10" d="M 445.347656 311.566406 C 425.613281 317.527344 410.390625 329.457031 402.8125 348.59375 "/>
<path fill-rule="nonzero" fill="rgb(70.196078%, 70.196078%, 70.196078%)" fill-opacity="1" d="M 400.1875 355.226562 L 400.660156 347.738281 L 404.96875 349.445312 L 400.1875 355.226562 "/>
<path fill="none" stroke-width="1.5" stroke-linecap="butt" stroke-linejoin="miter" stroke="rgb(12.156863%, 47.058824%, 70.588235%)" stroke-opacity="1" stroke-miterlimit="10" d="M 317.691406 516.261719 C 297.570312 525.125 283.105469 539.738281 277.445312 560.953125 "/>
<path fill-rule="nonzero" fill="rgb(12.156863%, 47.058824%, 70.588235%)" fill-opacity="1" d="M 275.605469 567.847656 L 275.207031 560.355469 L 279.683594 561.550781 L 275.605469 567.847656 "/>
<path fill="none" stroke-width="1.5" stroke-linecap="butt" stroke-linejoin="miter" stroke="rgb(12.156863%, 47.058824%, 70.588235%)" stroke-opacity="1" stroke-miterlimit="10" d="M 359.039062 445.441406 C 336.085938 460.371094 321.507812 481.261719 318.542969 508.457031 "/>
<path fill-rule="nonzero" fill="rgb(12.156863%, 47.058824%, 70.588235%)" fill-opacity="1" d="M 317.769531 515.546875 L 316.238281 508.207031 L 320.84375 508.707031 L 317.769531 515.546875 "/>
<path fill="none" stroke-width="5.5" stroke-linecap="butt" stroke-linejoin="miter" stroke="rgb(70.196078%, 70.196078%, 70.196078%)" stroke-opacity="1" stroke-miterlimit="10" d="M 665.214844 480.492188 C 661.90625 461.835938 652.707031 446.570312 636.023438 437.667969 "/>
<path fill-rule="nonzero" fill="rgb(70.196078%, 70.196078%, 70.196078%)" fill-opacity="1" d="M 629.730469 434.308594 L 637.113281 435.621094 L 634.929688 439.710938 L 629.730469 434.308594 "/>
<path fill="none" stroke-width="5.5" stroke-linecap="butt" stroke-linejoin="miter" stroke="rgb(70.196078%, 70.196078%, 70.196078%)" stroke-opacity="1" stroke-miterlimit="10" d="M 698.433594 524.886719 C 696.0625 507.921875 688.300781 493.722656 673.46875 485.222656 "/>
<path fill-rule="nonzero" fill="rgb(70.196078%, 70.196078%, 70.196078%)" fill-opacity="1" d="M 667.28125 481.675781 L 674.621094 483.210938 L 672.316406 487.234375 L 667.28125 481.675781 "/>
<path fill="none" stroke-width="1.5" stroke-linecap="butt" stroke-linejoin="miter" stroke="rgb(12.156863%, 47.058824%, 70.588235%)" stroke-opacity="1" stroke-miterlimit="10" d="M 275.421875 568.539062 C 258.667969 570.953125 244.695312 578.691406 236.339844 593.367188 "/>
<path fill-rule="nonzero" fill="rgb(12.156863%, 47.058824%, 70.588235%)" fill-opacity="1" d="M 232.808594 599.566406 L 234.324219 592.21875 L 238.351562 594.515625 L 232.808594 599.566406 "/>
<path fill="none" stroke-width="1.5" stroke-linecap="butt" stroke-linejoin="miter" stroke="rgb(98.431373%, 60.392157%, 60%)" stroke-opacity="1" stroke-miterlimit="10" d="M 146.289062 595.300781 C 124.261719 618.449219 113.527344 646.070312 117.324219 677.78125 "/>
<path fill-rule="nonzero" fill="rgb(98.431373%, 60.392157%, 60%)" fill-opacity="1" d="M 118.171875 684.863281 L 115.023438 678.054688 L 119.625 677.503906 L 118.171875 684.863281 "/>
<path fill="none" stroke-width="1.5" stroke-linecap="butt" stroke-linejoin="miter" stroke="rgb(12.156863%, 47.058824%, 70.588235%)" stroke-opacity="1" stroke-miterlimit="10" d="M 189.242188 609.300781 C 180.3125 599.328125 169.050781 593.257812 155.761719 594.449219 "/>
<path fill-rule="nonzero" fill="rgb(12.156863%, 47.058824%, 70.588235%)" fill-opacity="1" d="M 148.660156 595.085938 L 155.554688 592.140625 L 155.96875 596.757812 L 148.660156 595.085938 "/>
<path fill="none" stroke-width="1.5" stroke-linecap="butt" stroke-linejoin="miter" stroke="rgb(12.156863%, 47.058824%, 70.588235%)" stroke-opacity="1" stroke-miterlimit="10" d="M 232.453125 600.1875 C 219.492188 596.167969 206.578125 596.792969 195.609375 604.707031 "/>
<path fill-rule="nonzero" fill="rgb(12.156863%, 47.058824%, 70.588235%)" fill-opacity="1" d="M 189.824219 608.878906 L 194.253906 602.828125 L 196.964844 606.585938 L 189.824219 608.878906 "/>
<path fill="none" stroke-width="5.5" stroke-linecap="butt" stroke-linejoin="miter" stroke="rgb(70.196078%, 70.196078%, 70.196078%)" stroke-opacity="1" stroke-miterlimit="10" d="M 727.234375 563 C 725.398438 548.785156 719.113281 536.675781 706.699219 529.597656 "/>
<path fill-rule="nonzero" fill="rgb(70.196078%, 70.196078%, 70.196078%)" fill-opacity="1" d="M 700.503906 526.066406 L 707.847656 527.585938 L 705.550781 531.613281 L 700.503906 526.066406 "/>
<path fill-rule="nonzero" fill="rgb(98.431373%, 60.392157%, 60%)" fill-opacity="1" stroke-width="1" stroke-linecap="butt" stroke-linejoin="miter" stroke="rgb(98.431373%, 60.392157%, 60%)" stroke-opacity="1" stroke-miterlimit="10" d="M 63.054688 750 C 63.054688 751 61.554688 751 61.554688 750 C 61.554688 749 63.054688 749 63.054688 750 "/>
<path fill-rule="nonzero" fill="rgb(98.431373%, 60.392157%, 60%)" fill-opacity="1" stroke-width="1" stroke-linecap="butt" stroke-linejoin="miter" stroke="rgb(98.431373%, 60.392157%, 60%)" stroke-opacity="1" stroke-miterlimit="10" d="M 90.269531 744.324219 C 90.269531 745.324219 88.769531 745.324219 88.769531 744.324219 C 88.769531 743.324219 90.269531 743.324219 90.269531 744.324219 "/>
<path fill-rule="nonzero" fill="rgb(98.431373%, 60.392157%, 60%)" fill-opacity="1" stroke-width="1" stroke-linecap="butt" stroke-linejoin="miter" stroke="rgb(98.431373%, 60.392157%, 60%)" stroke-opacity="1" stroke-miterlimit="10" d="M 119.007812 685.578125 C 119.007812 686.578125 117.507812 686.578125 117.507812 685.578125 C 117.507812 684.578125 119.007812 684.578125 119.007812 685.578125 "/>
<path fill-rule="nonzero" fill="rgb(98.431373%, 60.392157%, 60%)" fill-opacity="1" stroke-width="1" stroke-linecap="butt" stroke-linejoin="miter" stroke="rgb(98.431373%, 60.392157%, 60%)" stroke-opacity="1" stroke-miterlimit="10" d="M 158.992188 91.976562 C 158.992188 92.976562 157.492188 92.976562 157.492188 91.976562 C 157.492188 90.976562 158.992188 90.976562 158.992188 91.976562 "/>
<path fill-rule="nonzero" fill="rgb(98.431373%, 60.392157%, 60%)" fill-opacity="1" stroke-width="1" stroke-linecap="butt" stroke-linejoin="miter" stroke="rgb(98.431373%, 60.392157%, 60%)" stroke-opacity="1" stroke-miterlimit="10" d="M 176.5 50 C 176.5 51 175 51 175 50 C 175 49 176.5 49 176.5 50 "/>
<path fill-rule="nonzero" fill="rgb(100%, 84.313725%, 0%)" fill-opacity="1" stroke-width="1" stroke-linecap="butt" stroke-linejoin="miter" stroke="rgb(100%, 84.313725%, 0%)" stroke-opacity="1" stroke-miterlimit="10" d="M 747.5 588.25 L 752.5 588.25 L 752.5 593.25 L 747.5 593.25 Z M 747.5 588.25 "/>
<path fill-rule="nonzero" fill="rgb(70.196078%, 70.196078%, 70.196078%)" fill-opacity="1" stroke-width="1" stroke-linecap="butt" stroke-linejoin="miter" stroke="rgb(70.196078%, 70.196078%, 70.196078%)" stroke-opacity="1" stroke-miterlimit="10" d="M 412.761719 229.335938 C 412.761719 232.667969 407.761719 232.667969 407.761719 229.335938 C 407.761719 226 412.761719 226 412.761719 229.335938 "/>
<path fill-rule="nonzero" fill="rgb(70.196078%, 70.196078%, 70.196078%)" fill-opacity="1" stroke-width="1" stroke-linecap="butt" stroke-linejoin="miter" stroke="rgb(70.196078%, 70.196078%, 70.196078%)" stroke-opacity="1" stroke-miterlimit="10" d="M 577.109375 344.757812 C 577.109375 348.09375 572.109375 348.09375 572.109375 344.757812 C 572.109375 341.425781 577.109375 341.425781 577.109375 344.757812 "/>
<path fill-rule="nonzero" fill="rgb(70.196078%, 70.196078%, 70.196078%)" fill-opacity="1" stroke-width="1" stroke-linecap="butt" stroke-linejoin="miter" stroke="rgb(70.196078%, 70.196078%, 70.196078%)" stroke-opacity="1" stroke-miterlimit="10" d="M 493.074219 295.542969 C 493.074219 298.875 488.074219 298.875 488.074219 295.542969 C 488.074219 292.207031 493.074219 292.207031 493.074219 295.542969 "/>
<path fill-rule="nonzero" fill="rgb(70.196078%, 70.196078%, 70.196078%)" fill-opacity="1" stroke-width="1" stroke-linecap="butt" stroke-linejoin="miter" stroke="rgb(70.196078%, 70.196078%, 70.196078%)" stroke-opacity="1" stroke-miterlimit="10" d="M 536.628906 306.554688 C 536.628906 309.886719 531.628906 309.886719 531.628906 306.554688 C 531.628906 303.222656 536.628906 303.222656 536.628906 306.554688 "/>
<path fill-rule="nonzero" fill="rgb(14.901961%, 14.901961%, 14.901961%)" fill-opacity="1" stroke-width="1" stroke-linecap="butt" stroke-linejoin="miter" stroke="rgb(14.901961%, 14.901961%, 14.901961%)" stroke-opacity="1" stroke-miterlimit="10" d="M 47.5 677.957031 L 50 672.957031 L 52.5 677.957031 Z M 47.5 677.957031 "/>
<path fill-rule="nonzero" fill="rgb(70.196078%, 70.196078%, 70.196078%)" fill-opacity="1" stroke-width="1" stroke-linecap="butt" stroke-linejoin="miter" stroke="rgb(70.196078%, 70.196078%, 70.196078%)" stroke-opacity="1" stroke-miterlimit="10" d="M 166.199219 184.660156 C 166.199219 187.992188 161.199219 187.992188 161.199219 184.660156 C 161.199219 181.324219 166.199219 181.324219 166.199219 184.660156 "/>
<path fill-rule="nonzero" fill="rgb(70.196078%, 70.196078%, 70.196078%)" fill-opacity="1" stroke-width="1" stroke-linecap="butt" stroke-linejoin="miter" stroke="rgb(70.196078%, 70.196078%, 70.196078%)" stroke-opacity="1" stroke-miterlimit="10" d="M 199.769531 101.910156 C 199.769531 105.246094 194.769531 105.246094 194.769531 101.910156 C 194.769531 98.578125 199.769531 98.578125 199.769531 101.910156 "/>
<path fill-rule="nonzero" fill="rgb(70.196078%, 70.196078%, 70.196078%)" fill-opacity="1" stroke-width="1" stroke-linecap="butt" stroke-linejoin="miter" stroke="rgb(70.196078%, 70.196078%, 70.196078%)" stroke-opacity="1" stroke-miterlimit="10" d="M 66.449219 587.890625 C 66.449219 591.222656 61.449219 591.222656 61.449219 587.890625 C 61.449219 584.558594 66.449219 584.558594 66.449219 587.890625 "/>
<path fill-rule="nonzero" fill="rgb(70.196078%, 70.196078%, 70.196078%)" fill-opacity="1" stroke-width="1" stroke-linecap="butt" stroke-linejoin="miter" stroke="rgb(70.196078%, 70.196078%, 70.196078%)" stroke-opacity="1" stroke-miterlimit="10" d="M 93.671875 521.15625 C 93.671875 524.492188 88.671875 524.492188 88.671875 521.15625 C 88.671875 517.824219 93.671875 517.824219 93.671875 521.15625 "/>
<path fill-rule="nonzero" fill="rgb(70.196078%, 70.196078%, 70.196078%)" fill-opacity="1" stroke-width="1" stroke-linecap="butt" stroke-linejoin="miter" stroke="rgb(70.196078%, 70.196078%, 70.196078%)" stroke-opacity="1" stroke-miterlimit="10" d="M 128.046875 471.765625 C 128.046875 475.101562 123.046875 475.101562 123.046875 471.765625 C 123.046875 468.433594 128.046875 468.433594 128.046875 471.765625 "/>
<path fill-rule="nonzero" fill="rgb(70.196078%, 70.196078%, 70.196078%)" fill-opacity="1" stroke-width="1" stroke-linecap="butt" stroke-linejoin="miter" stroke="rgb(70.196078%, 70.196078%, 70.196078%)" stroke-opacity="1" stroke-miterlimit="10" d="M 143.941406 322.460938 C 143.941406 325.792969 138.941406 325.792969 138.941406 322.460938 C 138.941406 319.125 143.941406 319.125 143.941406 322.460938 "/>
<path fill-rule="nonzero" fill="rgb(70.196078%, 70.196078%, 70.196078%)" fill-opacity="1" stroke-width="1" stroke-linecap="butt" stroke-linejoin="miter" stroke="rgb(70.196078%, 70.196078%, 70.196078%)" stroke-opacity="1" stroke-miterlimit="10" d="M 242.878906 78.859375 C 242.878906 82.195312 237.878906 82.195312 237.878906 78.859375 C 237.878906 75.527344 242.878906 75.527344 242.878906 78.859375 "/>
<path fill-rule="nonzero" fill="rgb(70.196078%, 70.196078%, 70.196078%)" fill-opacity="1" stroke-width="1" stroke-linecap="butt" stroke-linejoin="miter" stroke="rgb(70.196078%, 70.196078%, 70.196078%)" stroke-opacity="1" stroke-miterlimit="10" d="M 286.574219 83.808594 C 286.574219 87.144531 281.574219 87.144531 281.574219 83.808594 C 281.574219 80.476562 286.574219 80.476562 286.574219 83.808594 "/>
<path fill-rule="nonzero" fill="rgb(70.196078%, 70.196078%, 70.196078%)" fill-opacity="1" stroke-width="1" stroke-linecap="butt" stroke-linejoin="miter" stroke="rgb(70.196078%, 70.196078%, 70.196078%)" stroke-opacity="1" stroke-miterlimit="10" d="M 373.121094 178.800781 C 373.121094 182.132812 368.121094 182.132812 368.121094 178.800781 C 368.121094 175.46875 373.121094 175.46875 373.121094 178.800781 "/>
<path fill-rule="nonzero" fill="rgb(98.431373%, 60.392157%, 60%)" fill-opacity="1" stroke-width="1" stroke-linecap="butt" stroke-linejoin="miter" stroke="rgb(98.431373%, 60.392157%, 60%)" stroke-opacity="1" stroke-miterlimit="10" d="M 385.425781 264.46875 C 385.425781 265.46875 383.925781 265.46875 383.925781 264.46875 C 383.925781 263.46875 385.425781 263.46875 385.425781 264.46875 "/>
<path fill-rule="nonzero" fill="rgb(70.196078%, 70.196078%, 70.196078%)" fill-opacity="1" stroke-width="1" stroke-linecap="butt" stroke-linejoin="miter" stroke="rgb(70.196078%, 70.196078%, 70.196078%)" stroke-opacity="1" stroke-miterlimit="10" d="M 330.179688 117.503906 C 330.179688 120.835938 325.179688 120.835938 325.179688 117.503906 C 325.179688 114.167969 330.179688 114.167969 330.179688 117.503906 "/>
<path fill-rule="nonzero" fill="rgb(70.196078%, 70.196078%, 70.196078%)" fill-opacity="1" stroke-width="1" stroke-linecap="butt" stroke-linejoin="miter" stroke="rgb(70.196078%, 70.196078%, 70.196078%)" stroke-opacity="1" stroke-miterlimit="10" d="M 609.023438 370.574219 C 609.023438 373.90625 604.023438 373.90625 604.023438 370.574219 C 604.023438 367.242188 609.023438 367.242188 609.023438 370.574219 "/>
<path fill-rule="nonzero" fill="rgb(70.196078%, 70.196078%, 70.196078%)" fill-opacity="1" stroke-width="1" stroke-linecap="butt" stroke-linejoin="miter" stroke="rgb(70.196078%, 70.196078%, 70.196078%)" stroke-opacity="1" stroke-miterlimit="10" d="M 401.808594 357.441406 C 401.808594 360.777344 396.808594 360.777344 396.808594 357.441406 C 396.808594 354.109375 401.808594 354.109375 401.808594 357.441406 "/>
<path fill-rule="nonzero" fill="rgb(12.156863%, 47.058824%, 70.588235%)" fill-opacity="1" stroke-width="1" stroke-linecap="butt" stroke-linejoin="miter" stroke="rgb(12.156863%, 47.058824%, 70.588235%)" stroke-opacity="1" stroke-miterlimit="10" d="M 557.109375 425.230469 C 557.109375 426.230469 555.609375 426.230469 555.609375 425.230469 C 555.609375 424.230469 557.109375 424.230469 557.109375 425.230469 "/>
<path fill-rule="nonzero" fill="rgb(70.196078%, 70.196078%, 70.196078%)" fill-opacity="1" stroke-width="1" stroke-linecap="butt" stroke-linejoin="miter" stroke="rgb(70.196078%, 70.196078%, 70.196078%)" stroke-opacity="1" stroke-miterlimit="10" d="M 593.417969 416.5625 C 593.417969 419.898438 588.417969 419.898438 588.417969 416.5625 C 588.417969 413.230469 593.417969 413.230469 593.417969 416.5625 "/>
<path fill-rule="nonzero" fill="rgb(70.196078%, 70.196078%, 70.196078%)" fill-opacity="1" stroke-width="1" stroke-linecap="butt" stroke-linejoin="miter" stroke="rgb(70.196078%, 70.196078%, 70.196078%)" stroke-opacity="1" stroke-miterlimit="10" d="M 630.125 433.1875 C 630.125 436.519531 625.125 436.519531 625.125 433.1875 C 625.125 429.851562 630.125 429.851562 630.125 433.1875 "/>
<path fill-rule="nonzero" fill="rgb(12.156863%, 47.058824%, 70.588235%)" fill-opacity="1" stroke-width="1" stroke-linecap="butt" stroke-linejoin="miter" stroke="rgb(12.156863%, 47.058824%, 70.588235%)" stroke-opacity="1" stroke-miterlimit="10" d="M 483.207031 367.890625 C 483.207031 368.890625 481.707031 368.890625 481.707031 367.890625 C 481.707031 366.890625 483.207031 366.890625 483.207031 367.890625 "/>
<path fill-rule="nonzero" fill="rgb(12.156863%, 47.058824%, 70.588235%)" fill-opacity="1" stroke-width="1" stroke-linecap="butt" stroke-linejoin="miter" stroke="rgb(12.156863%, 47.058824%, 70.588235%)" stroke-opacity="1" stroke-miterlimit="10" d="M 520.597656 407.164062 C 520.597656 408.164062 519.097656 408.164062 519.097656 407.164062 C 519.097656 406.164062 520.597656 406.164062 520.597656 407.164062 "/>
<path fill-rule="nonzero" fill="rgb(70.196078%, 70.196078%, 70.196078%)" fill-opacity="1" stroke-width="1" stroke-linecap="butt" stroke-linejoin="miter" stroke="rgb(70.196078%, 70.196078%, 70.196078%)" stroke-opacity="1" stroke-miterlimit="10" d="M 447.847656 311.566406 C 447.847656 314.898438 442.847656 314.898438 442.847656 311.566406 C 442.847656 308.230469 447.847656 308.230469 447.847656 311.566406 "/>
<path fill-rule="nonzero" fill="rgb(12.156863%, 47.058824%, 70.588235%)" fill-opacity="1" stroke-width="1" stroke-linecap="butt" stroke-linejoin="miter" stroke="rgb(12.156863%, 47.058824%, 70.588235%)" stroke-opacity="1" stroke-miterlimit="10" d="M 318.441406 516.261719 C 318.441406 517.261719 316.941406 517.261719 316.941406 516.261719 C 316.941406 515.261719 318.441406 515.261719 318.441406 516.261719 "/>
<path fill-rule="nonzero" fill="rgb(12.156863%, 47.058824%, 70.588235%)" fill-opacity="1" stroke-width="1" stroke-linecap="butt" stroke-linejoin="miter" stroke="rgb(12.156863%, 47.058824%, 70.588235%)" stroke-opacity="1" stroke-miterlimit="10" d="M 359.789062 445.441406 C 359.789062 446.441406 358.289062 446.441406 358.289062 445.441406 C 358.289062 444.441406 359.789062 444.441406 359.789062 445.441406 "/>
<path fill-rule="nonzero" fill="rgb(70.196078%, 70.196078%, 70.196078%)" fill-opacity="1" stroke-width="1" stroke-linecap="butt" stroke-linejoin="miter" stroke="rgb(70.196078%, 70.196078%, 70.196078%)" stroke-opacity="1" stroke-miterlimit="10" d="M 667.714844 480.492188 C 667.714844 483.824219 662.714844 483.824219 662.714844 480.492188 C 662.714844 477.15625 667.714844 477.15625 667.714844 480.492188 "/>
<path fill-rule="nonzero" fill="rgb(70.196078%, 70.196078%, 70.196078%)" fill-opacity="1" stroke-width="1" stroke-linecap="butt" stroke-linejoin="miter" stroke="rgb(70.196078%, 70.196078%, 70.196078%)" stroke-opacity="1" stroke-miterlimit="10" d="M 700.933594 524.886719 C 700.933594 528.21875 695.933594 528.21875 695.933594 524.886719 C 695.933594 521.554688 700.933594 521.554688 700.933594 524.886719 "/>
<path fill-rule="nonzero" fill="rgb(12.156863%, 47.058824%, 70.588235%)" fill-opacity="1" stroke-width="1" stroke-linecap="butt" stroke-linejoin="miter" stroke="rgb(12.156863%, 47.058824%, 70.588235%)" stroke-opacity="1" stroke-miterlimit="10" d="M 276.171875 568.539062 C 276.171875 569.539062 274.671875 569.539062 274.671875 568.539062 C 274.671875 567.539062 276.171875 567.539062 276.171875 568.539062 "/>
<path fill-rule="nonzero" fill="rgb(14.901961%, 14.901961%, 14.901961%)" fill-opacity="1" stroke-width="1" stroke-linecap="butt" stroke-linejoin="miter" stroke="rgb(14.901961%, 14.901961%, 14.901961%)" stroke-opacity="1" stroke-miterlimit="10" d="M 143.789062 597.800781 L 146.289062 592.800781 L 148.789062 597.800781 Z M 143.789062 597.800781 "/>
<path fill-rule="nonzero" fill="rgb(12.156863%, 47.058824%, 70.588235%)" fill-opacity="1" stroke-width="1" stroke-linecap="butt" stroke-linejoin="miter" stroke="rgb(12.156863%, 47.058824%, 70.588235%)" stroke-opacity="1" stroke-miterlimit="10" d="M 189.992188 609.300781 C 189.992188 610.300781 188.492188 610.300781 188.492188 609.300781 C 188.492188 608.300781 189.992188 608.300781 189.992188 609.300781 "/>
<path fill-rule="nonzero" fill="rgb(12.156863%, 47.058824%, 70.588235%)" fill-opacity="1" stroke-width="1" stroke-linecap="butt" stroke-linejoin="miter" stroke="rgb(12.156863%, 47.058824%, 70.588235%)" stroke-opacity="1" stroke-miterlimit="10" d="M 233.203125 600.1875 C 233.203125 601.1875 231.703125 601.1875 231.703125 600.1875 C 231.703125 599.1875 233.203125 599.1875 233.203125 600.1875 "/>
<path fill-rule="nonzero" fill="rgb(70.196078%, 70.196078%, 70.196078%)" fill-opacity="1" stroke-width="1" stroke-linecap="butt" stroke-linejoin="miter" stroke="rgb(70.196078%, 70.196078%, 70.196078%)" stroke-opacity="1" stroke-miterlimit="10" d="M 729.734375 563 C 729.734375 566.332031 724.734375 566.332031 724.734375 563 C 724.734375 559.667969 729.734375 559.667969 729.734375 563 "/>
</svg>
