<?xml version="1.0" encoding="UTF-8"?>
<svg xmlns="http://www.w3.org/2000/svg" xmlns:xlink="http://www.w3.org/1999/xlink" width="800" height="800" viewBox="0 0 800 800">
<rect x="-80" y="-80" width="960" height="960" fill="rgb(100%, 100%, 100%)" fill-opacity="1"/>
<path fill="none" stroke-width="1.5" stroke-linecap="butt" stroke-linejoin="miter" stroke="rgb(30.196078%, 68.627451%, 29.019608%)" stroke-opacity="1" stroke-miterlimit="10" d="M 201.296875 112.953125 C 195.542969 117.730469 191.429688 123.992188 192.308594 131.332031 "/>
<path fill-rule="nonzero" fill="rgb(30.196078%, 68.627451%, 29.019608%)" fill-opacity="1" d="M 193.160156 138.414062 L 190.007812 131.609375 L 194.613281 131.058594 L 193.160156 138.414062 "/>
<path fill="none" stroke-width="2.5" stroke-linecap="butt" stroke-linejoin="miter" stroke="rgb(70.196078%, 70.196078%, 70.196078%)" stroke-opacity="1" stroke-miterlimit="10" d="M 193.460938 140.933594 C 199.210938 136.15625 203.324219 129.894531 202.445312 122.554688 "/>
<path fill-rule="nonzero" fill="rgb(70.196078%, 70.196078%, 70.196078%)" fill-opacity="1" d="M 201.597656 115.472656 L 204.746094 122.277344 L 200.144531 122.828125 L 201.597656 115.472656 "/>
<path fill="none" stroke-width="2.5" stroke-linecap="butt" stroke-linejoin="miter" stroke="rgb(41.568627%, 23.921569%, 60.392157%)" stroke-opacity="1" stroke-miterlimit="10" d="M 193.460938 140.933594 C 200.324219 128.382812 202.34375 114.921875 196.492188 101.921875 "/>
<path fill-rule="nonzero" fill="rgb(41.568627%, 23.921569%, 60.392157%)" fill-opacity="1" d="M 193.5625 95.414062 L 198.605469 100.96875 L 194.378906 102.871094 L 193.5625 95.414062 "/>
<path fill="none" stroke-width="1.5" stroke-linecap="butt" stroke-linejoin="miter" stroke="rgb(41.568627%, 23.921569%, 60.392157%)" stroke-opacity="1" stroke-miterlimit="10" d="M 192.878906 93.894531 C 186.03125 106.183594 183.914062 119.421875 189.601562 132.238281 "/>
<path fill-rule="nonzero" fill="rgb(41.568627%, 23.921569%, 60.392157%)" fill-opacity="1" d="M 192.496094 138.757812 L 187.484375 133.179688 L 191.71875 131.296875 L 192.496094 138.757812 "/>
<path fill="none" stroke-width="2.5" stroke-linecap="butt" stroke-linejoin="miter" stroke="rgb(98.431373%, 60.392157%, 60%)" stroke-opacity="1" stroke-miterlimit="10" d="M 137.097656 87.417969 C 141.070312 76.832031 141.316406 65.945312 135.117188 56.550781 "/>
<path fill-rule="nonzero" fill="rgb(98.431373%, 60.392157%, 60%)" fill-opacity="1" d="M 131.191406 50.597656 L 137.054688 55.277344 L 133.183594 57.828125 L 131.191406 50.597656 "/>
<path fill="none" stroke-width="2.5" stroke-linecap="butt" stroke-linejoin="miter" stroke="rgb(98.431373%, 60.392157%, 60%)" stroke-opacity="1" stroke-miterlimit="10" d="M 130.792969 50 C 126.785156 60.066406 126.277344 70.539062 132.09375 79.609375 "/>
<path fill-rule="nonzero" fill="rgb(98.431373%, 60.392157%, 60%)" fill-opacity="1" d="M 135.945312 85.613281 L 130.140625 80.863281 L 134.042969 78.359375 L 135.945312 85.613281 "/>
<path fill="none" stroke-width="1.5" stroke-linecap="butt" stroke-linejoin="miter" stroke="rgb(12.156863%, 47.058824%, 70.588235%)" stroke-opacity="1" stroke-miterlimit="10" d="M 63.179688 615.316406 C 58.167969 616.660156 53.429688 619.378906 52.1875 624.292969 "/>
<path fill-rule="nonzero" fill="rgb(12.156863%, 47.058824%, 70.588235%)" fill-opacity="1" d="M 50.4375 631.207031 L 49.9375 623.722656 L 54.433594 624.859375 L 50.4375 631.207031 "/>
<path fill="none" stroke-width="4.5" stroke-linecap="butt" stroke-linejoin="miter" stroke="rgb(70.196078%, 70.196078%, 70.196078%)" stroke-opacity="1" stroke-miterlimit="10" d="M 171.890625 432.542969 C 191.019531 394.199219 193.613281 354.703125 176.566406 315.40625 "/>
<path fill-rule="nonzero" fill="rgb(70.196078%, 70.196078%, 70.196078%)" fill-opacity="1" d="M 173.726562 308.863281 L 178.691406 314.484375 L 174.441406 316.328125 L 173.726562 308.863281 "/>
<path fill="none" stroke-width="1.5" stroke-linecap="butt" stroke-linejoin="miter" stroke="rgb(12.156863%, 47.058824%, 70.588235%)" stroke-opacity="1" stroke-miterlimit="10" d="M 171.890625 432.542969 C 156.683594 444.390625 147.386719 459.929688 147.257812 479.175781 "/>
<path fill-rule="nonzero" fill="rgb(12.156863%, 47.058824%, 70.588235%)" fill-opacity="1" d="M 147.210938 486.308594 L 144.941406 479.160156 L 149.574219 479.191406 L 147.210938 486.308594 "/>
<path fill="none" stroke-width="3.5" stroke-linecap="butt" stroke-linejoin="miter" stroke="rgb(70.196078%, 70.196078%, 70.196078%)" stroke-opacity="1" stroke-miterlimit="10" d="M 184.078125 222.78125 C 199.050781 200.359375 204.191406 175.777344 196.261719 150.03125 "/>
<path fill-rule="nonzero" fill="rgb(70.196078%, 70.196078%, 70.196078%)" fill-opacity="1" d="M 194.164062 143.214844 L 198.476562 149.351562 L 194.046875 150.714844 L 194.164062 143.214844 "/>
<path fill="none" stroke-width="3.5" stroke-linecap="butt" stroke-linejoin="miter" stroke="rgb(70.196078%, 70.196078%, 70.196078%)" stroke-opacity="1" stroke-miterlimit="10" d="M 172.773438 306.667969 C 188.628906 283.847656 194.355469 258.625 186.703125 231.933594 "/>
<path fill-rule="nonzero" fill="rgb(70.196078%, 70.196078%, 70.196078%)" fill-opacity="1" d="M 184.738281 225.078125 L 188.929688 231.296875 L 184.476562 232.574219 L 184.738281 225.078125 "/>
<path fill="none" stroke-width="1.5" stroke-linecap="butt" stroke-linejoin="miter" stroke="rgb(98.431373%, 60.392157%, 60%)" stroke-opacity="1" stroke-miterlimit="10" d="M 172.773438 306.667969 C 180.621094 281.335938 178.574219 256.734375 163.914062 234.664062 "/>
<path fill-rule="nonzero" fill="rgb(98.431373%, 60.392157%, 60%)" fill-opacity="1" d="M 159.96875 228.722656 L 165.84375 233.378906 L 161.984375 235.945312 L 159.96875 228.722656 "/>
<path fill="none" stroke-width="1.5" stroke-linecap="butt" stroke-linejoin="miter" stroke="rgb(98.431373%, 60.392157%, 60%)" stroke-opacity="1" stroke-miterlimit="10" d="M 159.570312 228.121094 C 167.207031 204.265625 165.539062 180.972656 151.839844 160.03125 "/>
<path fill-rule="nonzero" fill="rgb(98.431373%, 60.392157%, 60%)" fill-opacity="1" d="M 147.9375 154.0625 L 153.78125 158.765625 L 149.902344 161.300781 L 147.9375 154.0625 "/>
<path fill="none" stroke-width="1.5" stroke-linecap="butt" stroke-linejoin="miter" stroke="rgb(98.431373%, 60.392157%, 60%)" stroke-opacity="1" stroke-miterlimit="10" d="M 147.542969 153.460938 C 154.460938 133.238281 153.589844 113.226562 142.097656 95.238281 "/>
<path fill-rule="nonzero" fill="rgb(98.431373%, 60.392157%, 60%)" fill-opacity="1" d="M 138.257812 89.226562 L 144.050781 93.988281 L 140.144531 96.484375 L 138.257812 89.226562 "/>
<path fill="none" stroke-width="5.5" stroke-linecap="butt" stroke-linejoin="miter" stroke="rgb(70.196078%, 70.196078%, 70.196078%)" stroke-opacity="1" stroke-miterlimit="10" d="M 194.210938 501.578125 C 198.160156 478.539062 193.667969 457.160156 178.199219 439.671875 "/>
<path fill-rule="nonzero" fill="rgb(70.196078%, 70.196078%, 70.196078%)" fill-opacity="1" d="M 173.472656 434.332031 L 179.933594 438.136719 L 176.460938 441.207031 L 173.472656 434.332031 "/>
<path fill="none" stroke-width="1.5" stroke-linecap="butt" stroke-linejoin="miter" stroke="rgb(12.156863%, 47.058824%, 70.588235%)" stroke-opacity="1" stroke-miterlimit="10" d="M 120.152344 590.355469 C 122.210938 584.816406 122.695312 578.757812 119.066406 574.222656 "/>
<path fill-rule="nonzero" fill="rgb(12.156863%, 47.058824%, 70.588235%)" fill-opacity="1" d="M 114.609375 568.65625 L 120.875 572.777344 L 117.257812 575.671875 L 114.609375 568.65625 "/>
<path fill="none" stroke-width="1.5" stroke-linecap="butt" stroke-linejoin="miter" stroke="rgb(12.156863%, 47.058824%, 70.588235%)" stroke-opacity="1" stroke-miterlimit="10" d="M 99.863281 565.855469 C 90.984375 569.5 83.902344 575.613281 81.804688 584.914062 "/>
<path fill-rule="nonzero" fill="rgb(12.156863%, 47.058824%, 70.588235%)" fill-opacity="1" d="M 80.230469 591.871094 L 79.542969 584.402344 L 84.0625 585.421875 L 80.230469 591.871094 "/>
<path fill="none" stroke-width="1.5" stroke-linecap="butt" stroke-linejoin="miter" stroke="rgb(12.156863%, 47.058824%, 70.588235%)" stroke-opacity="1" stroke-miterlimit="10" d="M 122.8125 538.375 C 114.289062 552.4375 111.449219 567.710938 117.335938 583.027344 "/>
<path fill-rule="nonzero" fill="rgb(12.156863%, 47.058824%, 70.588235%)" fill-opacity="1" d="M 119.894531 589.683594 L 115.171875 583.859375 L 119.5 582.195312 L 119.894531 589.683594 "/>
<path fill="none" stroke-width="1.5" stroke-linecap="butt" stroke-linejoin="miter" stroke="rgb(12.156863%, 47.058824%, 70.588235%)" stroke-opacity="1" stroke-miterlimit="10" d="M 122.8125 538.375 C 112.894531 541.902344 104.921875 548.246094 102.03125 558.3125 "/>
<path fill-rule="nonzero" fill="rgb(12.156863%, 47.058824%, 70.588235%)" fill-opacity="1" d="M 100.0625 565.167969 L 99.804688 557.671875 L 104.257812 558.953125 L 100.0625 565.167969 "/>
<path fill="none" stroke-width="1.5" stroke-linecap="butt" stroke-linejoin="miter" stroke="rgb(12.156863%, 47.058824%, 70.588235%)" stroke-opacity="1" stroke-miterlimit="10" d="M 147.207031 487.027344 C 132.699219 497.742188 123.546875 512.054688 123.046875 530.046875 "/>
<path fill-rule="nonzero" fill="rgb(12.156863%, 47.058824%, 70.588235%)" fill-opacity="1" d="M 122.847656 537.179688 L 120.730469 529.984375 L 125.363281 530.113281 L 122.847656 537.179688 "/>
<path fill="none" stroke-width="1.5" stroke-linecap="butt" stroke-linejoin="miter" stroke="rgb(12.156863%, 47.058824%, 70.588235%)" stroke-opacity="1" stroke-miterlimit="10" d="M 80.074219 592.570312 C 72.761719 595.328125 66.652344 600.121094 64.929688 607.664062 "/>
<path fill-rule="nonzero" fill="rgb(12.156863%, 47.058824%, 70.588235%)" fill-opacity="1" d="M 63.339844 614.617188 L 62.667969 607.148438 L 67.1875 608.179688 L 63.339844 614.617188 "/>
<path fill="none" stroke-width="5.5" stroke-linecap="butt" stroke-linejoin="miter" stroke="rgb(70.196078%, 70.196078%, 70.196078%)" stroke-opacity="1" stroke-miterlimit="10" d="M 284.425781 709.183594 C 284.390625 695.707031 279.988281 683.613281 269.210938 675.609375 "/>
<path fill-rule="nonzero" fill="rgb(70.196078%, 70.196078%, 70.196078%)" fill-opacity="1" d="M 263.484375 671.355469 L 270.589844 673.746094 L 267.828125 677.46875 L 263.484375 671.355469 "/>
<path fill="none" stroke-width="5.5" stroke-linecap="butt" stroke-linejoin="miter" stroke="rgb(70.196078%, 70.196078%, 70.196078%)" stroke-opacity="1" stroke-miterlimit="10" d="M 216.539062 564.804688 C 219.699219 543.675781 215.242188 524.152344 200.699219 508.542969 "/>
<path fill-rule="nonzero" fill="rgb(70.196078%, 70.196078%, 70.196078%)" fill-opacity="1" d="M 195.839844 503.324219 L 202.398438 506.964844 L 199.003906 510.121094 L 195.839844 503.324219 "/>
<path fill="none" stroke-width="1.5" stroke-linecap="butt" stroke-linejoin="miter" stroke="rgb(12.156863%, 47.058824%, 70.588235%)" stroke-opacity="1" stroke-miterlimit="10" d="M 114.160156 568.097656 C 120.613281 562.398438 124.9375 555.105469 123.863281 546.632812 "/>
<path fill-rule="nonzero" fill="rgb(12.156863%, 47.058824%, 70.588235%)" fill-opacity="1" d="M 122.964844 539.554688 L 126.160156 546.339844 L 121.5625 546.925781 L 122.964844 539.554688 "/>
<path fill="none" stroke-width="5.5" stroke-linecap="butt" stroke-linejoin="miter" stroke="rgb(70.196078%, 70.196078%, 70.196078%)" stroke-opacity="1" stroke-miterlimit="10" d="M 459.089844 577.304688 C 446.625 587.332031 438.886719 600.367188 439.253906 616.320312 "/>
<path fill-rule="nonzero" fill="rgb(70.196078%, 70.196078%, 70.196078%)" fill-opacity="1" d="M 439.417969 623.453125 L 436.9375 616.375 L 441.570312 616.265625 L 439.417969 623.453125 "/>
<path fill="none" stroke-width="5.5" stroke-linecap="butt" stroke-linejoin="miter" stroke="rgb(70.196078%, 70.196078%, 70.196078%)" stroke-opacity="1" stroke-miterlimit="10" d="M 238.941406 621.203125 C 241.171875 602.292969 236.746094 584.933594 223.28125 571.519531 "/>
<path fill-rule="nonzero" fill="rgb(70.196078%, 70.196078%, 70.196078%)" fill-opacity="1" d="M 218.226562 566.488281 L 224.917969 569.878906 L 221.644531 573.164062 L 218.226562 566.488281 "/>
<path fill="none" stroke-width="5.5" stroke-linecap="butt" stroke-linejoin="miter" stroke="rgb(70.196078%, 70.196078%, 70.196078%)" stroke-opacity="1" stroke-miterlimit="10" d="M 307.453125 736.585938 C 306.097656 726.761719 301.804688 718.09375 293.035156 713.597656 "/>
<path fill-rule="nonzero" fill="rgb(70.196078%, 70.196078%, 70.196078%)" fill-opacity="1" d="M 286.6875 710.34375 L 294.09375 711.535156 L 291.976562 715.660156 L 286.6875 710.34375 "/>
<path fill="none" stroke-width="5.5" stroke-linecap="butt" stroke-linejoin="miter" stroke="rgb(70.196078%, 70.196078%, 70.196078%)" stroke-opacity="1" stroke-miterlimit="10" d="M 330.539062 750 C 327.847656 743.941406 323.5 738.796875 317.03125 737.90625 "/>
<path fill-rule="nonzero" fill="rgb(70.196078%, 70.196078%, 70.196078%)" fill-opacity="1" d="M 309.964844 736.933594 L 317.347656 735.609375 L 316.714844 740.199219 L 309.964844 736.933594 "/>
<path fill="none" stroke-width="5.5" stroke-linecap="butt" stroke-linejoin="miter" stroke="rgb(70.196078%, 70.196078%, 70.196078%)" stroke-opacity="1" stroke-miterlimit="10" d="M 353.457031 748.550781 C 349.128906 745.507812 343.910156 743.585938 339.25 745.820312 "/>
<path fill-rule="nonzero" fill="rgb(70.196078%, 70.196078%, 70.196078%)" fill-opacity="1" d="M 332.816406 748.90625 L 338.246094 743.730469 L 340.25 747.910156 L 332.816406 748.90625 "/>
<path fill="none" stroke-width="5.5" stroke-linecap="butt" stroke-linejoin="miter" stroke="rgb(70.196078%, 70.196078%, 70.196078%)" stroke-opacity="1" stroke-miterlimit="10" d="M 261.574219 669.9375 C 262.753906 653.472656 258.328125 638.5 246.039062 627.539062 "/>
<path fill-rule="nonzero" fill="rgb(70.196078%, 70.196078%, 70.196078%)" fill-opacity="1" d="M 240.71875 622.789062 L 247.582031 625.808594 L 244.496094 629.265625 L 240.71875 622.789062 "/>
<path fill="none" stroke-width="5.5" stroke-linecap="butt" stroke-linejoin="miter" stroke="rgb(70.196078%, 70.196078%, 70.196078%)" stroke-opacity="1" stroke-miterlimit="10" d="M 478.148438 525.710938 C 465.3125 536.804688 457.664062 550.894531 458.574219 567.800781 "/>
<path fill-rule="nonzero" fill="rgb(70.196078%, 70.196078%, 70.196078%)" fill-opacity="1" d="M 458.960938 574.921875 L 456.261719 567.925781 L 460.890625 567.675781 L 458.960938 574.921875 "/>
<path fill="none" stroke-width="5.5" stroke-linecap="butt" stroke-linejoin="miter" stroke="rgb(70.196078%, 70.196078%, 70.196078%)" stroke-opacity="1" stroke-miterlimit="10" d="M 578.03125 340.472656 C 571.082031 341.089844 564.53125 343.691406 561.382812 349.816406 "/>
<path fill-rule="nonzero" fill="rgb(70.196078%, 70.196078%, 70.196078%)" fill-opacity="1" d="M 558.121094 356.160156 L 559.320312 348.757812 L 563.441406 350.875 L 558.121094 356.160156 "/>
<path fill="none" stroke-width="5.5" stroke-linecap="butt" stroke-linejoin="miter" stroke="rgb(70.196078%, 70.196078%, 70.196078%)" stroke-opacity="1" stroke-miterlimit="10" d="M 375.964844 733.027344 C 369.105469 732.914062 362.417969 734.773438 358.730469 740.445312 "/>
<path fill-rule="nonzero" fill="rgb(70.196078%, 70.196078%, 70.196078%)" fill-opacity="1" d="M 354.839844 746.425781 L 356.785156 739.183594 L 360.671875 741.710938 L 354.839844 746.425781 "/>
<path fill="none" stroke-width="5.5" stroke-linecap="butt" stroke-linejoin="miter" stroke="rgb(70.196078%, 70.196078%, 70.196078%)" stroke-opacity="1" stroke-miterlimit="10" d="M 397.871094 705.570312 C 388.726562 708.730469 381.21875 714.472656 378.601562 723.71875 "/>
<path fill-rule="nonzero" fill="rgb(70.196078%, 70.196078%, 70.196078%)" fill-opacity="1" d="M 376.65625 730.582031 L 376.371094 723.085938 L 380.832031 724.351562 L 376.65625 730.582031 "/>
<path fill="none" stroke-width="5.5" stroke-linecap="butt" stroke-linejoin="miter" stroke="rgb(70.196078%, 70.196078%, 70.196078%)" stroke-opacity="1" stroke-miterlimit="10" d="M 419.066406 669.125 C 408.339844 675.121094 400.550781 683.988281 399.042969 696.132812 "/>
<path fill-rule="nonzero" fill="rgb(70.196078%, 70.196078%, 70.196078%)" fill-opacity="1" d="M 398.164062 703.210938 L 396.742188 695.847656 L 401.34375 696.417969 L 398.164062 703.210938 "/>
<path fill="none" stroke-width="5.5" stroke-linecap="butt" stroke-linejoin="miter" stroke="rgb(70.196078%, 70.196078%, 70.196078%)" stroke-opacity="1" stroke-miterlimit="10" d="M 599.183594 334.039062 C 594.585938 332.121094 589.335938 331.371094 585.554688 334.417969 "/>
<path fill-rule="nonzero" fill="rgb(70.196078%, 70.196078%, 70.196078%)" fill-opacity="1" d="M 580 338.890625 L 584.101562 332.613281 L 587.007812 336.222656 L 580 338.890625 "/>
<path fill="none" stroke-width="5.5" stroke-linecap="butt" stroke-linejoin="miter" stroke="rgb(70.196078%, 70.196078%, 70.196078%)" stroke-opacity="1" stroke-miterlimit="10" d="M 715.164062 569.011719 C 719.710938 552.839844 718.34375 537.019531 708.347656 523.566406 "/>
<path fill-rule="nonzero" fill="rgb(70.196078%, 70.196078%, 70.196078%)" fill-opacity="1" d="M 704.09375 517.839844 L 710.210938 522.183594 L 706.488281 524.945312 L 704.09375 517.839844 "/>
<path fill="none" stroke-width="5.5" stroke-linecap="butt" stroke-linejoin="miter" stroke="rgb(70.196078%, 70.196078%, 70.196078%)" stroke-opacity="1" stroke-miterlimit="10" d="M 556.964844 358.414062 C 547.804688 362.242188 540.519531 368.613281 538.410156 378.246094 "/>
<path fill-rule="nonzero" fill="rgb(70.196078%, 70.196078%, 70.196078%)" fill-opacity="1" d="M 536.882812 385.214844 L 536.144531 377.75 L 540.671875 378.742188 L 536.882812 385.214844 "/>
<path fill="none" stroke-width="5.5" stroke-linecap="butt" stroke-linejoin="miter" stroke="rgb(70.196078%, 70.196078%, 70.196078%)" stroke-opacity="1" stroke-miterlimit="10" d="M 439.472656 625.832031 C 427.714844 634.082031 419.898438 645.304688 419.398438 659.617188 "/>
<path fill-rule="nonzero" fill="rgb(70.196078%, 70.196078%, 70.196078%)" fill-opacity="1" d="M 419.152344 666.742188 L 417.082031 659.535156 L 421.714844 659.695312 L 419.152344 666.742188 "/>
<path fill="none" stroke-width="5.5" stroke-linecap="butt" stroke-linejoin="miter" stroke="rgb(70.196078%, 70.196078%, 70.196078%)" stroke-opacity="1" stroke-miterlimit="10" d="M 497.078125 474.304688 C 484.308594 485.355469 476.699219 499.386719 477.625 516.210938 "/>
<path fill-rule="nonzero" fill="rgb(70.196078%, 70.196078%, 70.196078%)" fill-opacity="1" d="M 478.019531 523.332031 L 475.3125 516.339844 L 479.941406 516.082031 L 478.019531 523.332031 "/>
<path fill="none" stroke-width="5.5" stroke-linecap="butt" stroke-linejoin="miter" stroke="rgb(70.196078%, 70.196078%, 70.196078%)" stroke-opacity="1" stroke-miterlimit="10" d="M 516.375 427.105469 C 504.230469 436.75 496.613281 449.332031 496.898438 464.792969 "/>
<path fill-rule="nonzero" fill="rgb(70.196078%, 70.196078%, 70.196078%)" fill-opacity="1" d="M 497.03125 471.925781 L 494.582031 464.835938 L 499.21875 464.75 L 497.03125 471.925781 "/>
<path fill="none" stroke-width="5.5" stroke-linecap="butt" stroke-linejoin="miter" stroke="rgb(70.196078%, 70.196078%, 70.196078%)" stroke-opacity="1" stroke-miterlimit="10" d="M 619.988281 338.652344 C 617.15625 334.902344 613.214844 331.734375 608.714844 332.472656 "/>
<path fill-rule="nonzero" fill="rgb(70.196078%, 70.196078%, 70.196078%)" fill-opacity="1" d="M 601.675781 333.628906 L 608.339844 330.1875 L 609.089844 334.761719 L 601.675781 333.628906 "/>
<path fill="none" stroke-width="5.5" stroke-linecap="butt" stroke-linejoin="miter" stroke="rgb(70.196078%, 70.196078%, 70.196078%)" stroke-opacity="1" stroke-miterlimit="10" d="M 639.96875 353.839844 C 638.320312 348.015625 635.0625 342.703125 629.320312 341.160156 "/>
<path fill-rule="nonzero" fill="rgb(70.196078%, 70.196078%, 70.196078%)" fill-opacity="1" d="M 622.429688 339.308594 L 629.921875 338.921875 L 628.71875 343.398438 L 622.429688 339.308594 "/>
<path fill="none" stroke-width="5.5" stroke-linecap="butt" stroke-linejoin="miter" stroke="rgb(70.196078%, 70.196078%, 70.196078%)" stroke-opacity="1" stroke-miterlimit="10" d="M 658.601562 379.570312 C 658.242188 371.117188 655.371094 363.261719 648.21875 358.886719 "/>
<path fill-rule="nonzero" fill="rgb(70.196078%, 70.196078%, 70.196078%)" fill-opacity="1" d="M 642.132812 355.164062 L 649.429688 356.910156 L 647.007812 360.863281 L 642.132812 355.164062 "/>
<path fill="none" stroke-width="5.5" stroke-linecap="butt" stroke-linejoin="miter" stroke="rgb(70.196078%, 70.196078%, 70.196078%)" stroke-opacity="1" stroke-miterlimit="10" d="M 727.488281 618.449219 C 731.582031 603.511719 730.292969 588.871094 720.929688 576.582031 "/>
<path fill-rule="nonzero" fill="rgb(70.196078%, 70.196078%, 70.196078%)" fill-opacity="1" d="M 716.609375 570.90625 L 722.773438 575.175781 L 719.085938 577.984375 L 716.609375 570.90625 "/>
<path fill="none" stroke-width="5.5" stroke-linecap="butt" stroke-linejoin="miter" stroke="rgb(70.196078%, 70.196078%, 70.196078%)" stroke-opacity="1" stroke-miterlimit="10" d="M 675.339844 416.1875 C 676.636719 404.660156 674.15625 393.761719 665.628906 385.980469 "/>
<path fill-rule="nonzero" fill="rgb(70.196078%, 70.196078%, 70.196078%)" fill-opacity="1" d="M 660.359375 381.171875 L 667.191406 384.269531 L 664.066406 387.691406 L 660.359375 381.171875 "/>
<path fill="none" stroke-width="5.5" stroke-linecap="butt" stroke-linejoin="miter" stroke="rgb(70.196078%, 70.196078%, 70.196078%)" stroke-opacity="1" stroke-miterlimit="10" d="M 739.410156 660.863281 C 742.675781 648.300781 741.566406 635.925781 733.457031 625.859375 "/>
<path fill-rule="nonzero" fill="rgb(70.196078%, 70.196078%, 70.196078%)" fill-opacity="1" d="M 728.980469 620.304688 L 735.261719 624.402344 L 731.652344 627.3125 L 728.980469 620.304688 "/>
<path fill="none" stroke-width="5.5" stroke-linecap="butt" stroke-linejoin="miter" stroke="rgb(70.196078%, 70.196078%, 70.196078%)" stroke-opacity="1" stroke-miterlimit="10" d="M 750 691.929688 C 752.179688 683.363281 751.632812 674.675781 745.820312 668.109375 "/>
<path fill-rule="nonzero" fill="rgb(70.196078%, 70.196078%, 70.196078%)" fill-opacity="1" d="M 741.09375 662.765625 L 747.558594 666.570312 L 744.085938 669.644531 L 741.09375 662.765625 "/>
<path fill="none" stroke-width="5.5" stroke-linecap="butt" stroke-linejoin="miter" stroke="rgb(70.196078%, 70.196078%, 70.196078%)" stroke-opacity="1" stroke-miterlimit="10" d="M 536.339844 387.699219 C 525.402344 394.769531 517.828125 404.667969 516.992188 417.613281 "/>
<path fill-rule="nonzero" fill="rgb(70.196078%, 70.196078%, 70.196078%)" fill-opacity="1" d="M 516.527344 424.734375 L 514.675781 417.464844 L 519.304688 417.765625 L 516.527344 424.734375 "/>
<path fill="none" stroke-width="5.5" stroke-linecap="butt" stroke-linejoin="miter" stroke="rgb(70.196078%, 70.196078%, 70.196078%)" stroke-opacity="1" stroke-miterlimit="10" d="M 689.785156 463.050781 C 692.96875 448.605469 691.066406 434.667969 681.507812 423.433594 "/>
<path fill-rule="nonzero" fill="rgb(70.196078%, 70.196078%, 70.196078%)" fill-opacity="1" d="M 676.882812 418 L 683.273438 421.933594 L 679.742188 424.9375 L 676.882812 418 "/>
<path fill="none" stroke-width="5.5" stroke-linecap="butt" stroke-linejoin="miter" stroke="rgb(70.196078%, 70.196078%, 70.196078%)" stroke-opacity="1" stroke-miterlimit="10" d="M 702.675781 515.925781 C 707.082031 499.757812 705.597656 483.988281 695.519531 470.644531 "/>
<path fill-rule="nonzero" fill="rgb(70.196078%, 70.196078%, 70.196078%)" fill-opacity="1" d="M 691.222656 464.953125 L 697.371094 469.25 L 693.671875 472.042969 L 691.222656 464.953125 "/>
<path fill-rule="nonzero" fill="rgb(14.901961%, 14.901961%, 14.901961%)" fill-opacity="1" stroke-width="1" stroke-linecap="butt" stroke-linejoin="miter" stroke="rgb(14.901961%, 14.901961%, 14.901961%)" stroke-opacity="1" stroke-miterlimit="10" d="M 198.796875 115.453125 L 201.296875 110.453125 L 203.796875 115.453125 Z M 198.796875 115.453125 "/>
<path fill-rule="nonzero" fill="rgb(14.901961%, 14.901961%, 14.901961%)" fill-opacity="1" stroke-width="1" stroke-linecap="butt" stroke-linejoin="miter" stroke="rgb(14.901961%, 14.901961%, 14.901961%)" stroke-opacity="1" stroke-miterlimit="10" d="M 190.960938 143.433594 L 193.460938 138.433594 L 195.960938 143.433594 Z M 190.960938 143.433594 "/>
<path fill-rule="nonzero" fill="rgb(14.901961%, 14.901961%, 14.901961%)" fill-opacity="1" stroke-width="1" stroke-linecap="butt" stroke-linejoin="miter" stroke="rgb(14.901961%, 14.901961%, 14.901961%)" stroke-opacity="1" stroke-miterlimit="10" d="M 191.128906 95.644531 L 192.878906 92.144531 L 194.628906 95.644531 Z M 191.128906 95.644531 "/>
<path fill-rule="nonzero" fill="rgb(14.901961%, 14.901961%, 14.901961%)" fill-opacity="1" stroke-width="1" stroke-linecap="butt" stroke-linejoin="miter" stroke="rgb(14.901961%, 14.901961%, 14.901961%)" stroke-opacity="1" stroke-miterlimit="10" d="M 134.847656 89.667969 L 137.097656 85.167969 L 139.347656 89.667969 Z M 134.847656 89.667969 "/>
<path fill-rule="nonzero" fill="rgb(98.431373%, 60.392157%, 60%)" fill-opacity="1" stroke-width="1" stroke-linecap="butt" stroke-linejoin="miter" stroke="rgb(98.431373%, 60.392157%, 60%)" stroke-opacity="1" stroke-miterlimit="10" d="M 131.542969 50 C 131.542969 51 130.042969 51 130.042969 50 C 130.042969 49 131.542969 49 131.542969 50 "/>
<path fill-rule="nonzero" fill="rgb(12.156863%, 47.058824%, 70.588235%)" fill-opacity="1" stroke-width="1" stroke-linecap="butt" stroke-linejoin="miter" stroke="rgb(12.156863%, 47.058824%, 70.588235%)" stroke-opacity="1" stroke-miterlimit="10" d="M 63.929688 615.316406 C 63.929688 616.316406 62.429688 616.316406 62.429688 615.316406 C 62.429688 614.316406 63.929688 614.316406 63.929688 615.316406 "/>
<path fill-rule="nonzero" fill="rgb(14.901961%, 14.901961%, 14.901961%)" fill-opacity="1" stroke-width="1" stroke-linecap="butt" stroke-linejoin="miter" stroke="rgb(14.901961%, 14.901961%, 14.901961%)" stroke-opacity="1" stroke-miterlimit="10" d="M 48.25 634.679688 L 50 631.179688 L 51.75 634.679688 Z M 48.25 634.679688 "/>
<path fill-rule="nonzero" fill="rgb(70.196078%, 70.196078%, 70.196078%)" fill-opacity="1" stroke-width="1" stroke-linecap="butt" stroke-linejoin="miter" stroke="rgb(70.196078%, 70.196078%, 70.196078%)" stroke-opacity="1" stroke-miterlimit="10" d="M 174.390625 432.542969 C 174.390625 435.875 169.390625 435.875 169.390625 432.542969 C 169.390625 429.210938 174.390625 429.210938 174.390625 432.542969 "/>
<path fill-rule="nonzero" fill="rgb(70.196078%, 70.196078%, 70.196078%)" fill-opacity="1" stroke-width="1" stroke-linecap="butt" stroke-linejoin="miter" stroke="rgb(70.196078%, 70.196078%, 70.196078%)" stroke-opacity="1" stroke-miterlimit="10" d="M 186.578125 222.78125 C 186.578125 226.117188 181.578125 226.117188 181.578125 222.78125 C 181.578125 219.449219 186.578125 219.449219 186.578125 222.78125 "/>
<path fill-rule="nonzero" fill="rgb(70.196078%, 70.196078%, 70.196078%)" fill-opacity="1" stroke-width="1" stroke-linecap="butt" stroke-linejoin="miter" stroke="rgb(70.196078%, 70.196078%, 70.196078%)" stroke-opacity="1" stroke-miterlimit="10" d="M 175.273438 306.667969 C 175.273438 310.003906 170.273438 310.003906 170.273438 306.667969 C 170.273438 303.335938 175.273438 303.335938 175.273438 306.667969 "/>
<path fill-rule="nonzero" fill="rgb(98.431373%, 60.392157%, 60%)" fill-opacity="1" stroke-width="1" stroke-linecap="butt" stroke-linejoin="miter" stroke="rgb(98.431373%, 60.392157%, 60%)" stroke-opacity="1" stroke-miterlimit="10" d="M 160.320312 228.121094 C 160.320312 229.121094 158.820312 229.121094 158.820312 228.121094 C 158.820312 227.121094 160.320312 227.121094 160.320312 228.121094 "/>
<path fill-rule="nonzero" fill="rgb(98.431373%, 60.392157%, 60%)" fill-opacity="1" stroke-width="1" stroke-linecap="butt" stroke-linejoin="miter" stroke="rgb(98.431373%, 60.392157%, 60%)" stroke-opacity="1" stroke-miterlimit="10" d="M 148.292969 153.460938 C 148.292969 154.460938 146.792969 154.460938 146.792969 153.460938 C 146.792969 152.460938 148.292969 152.460938 148.292969 153.460938 "/>
<path fill-rule="nonzero" fill="rgb(70.196078%, 70.196078%, 70.196078%)" fill-opacity="1" stroke-width="1" stroke-linecap="butt" stroke-linejoin="miter" stroke="rgb(70.196078%, 70.196078%, 70.196078%)" stroke-opacity="1" stroke-miterlimit="10" d="M 196.710938 501.578125 C 196.710938 504.910156 191.710938 504.910156 191.710938 501.578125 C 191.710938 498.246094 196.710938 498.246094 196.710938 501.578125 "/>
<path fill-rule="nonzero" fill="rgb(12.156863%, 47.058824%, 70.588235%)" fill-opacity="1" stroke-width="1" stroke-linecap="butt" stroke-linejoin="miter" stroke="rgb(12.156863%, 47.058824%, 70.588235%)" stroke-opacity="1" stroke-miterlimit="10" d="M 120.902344 590.355469 C 120.902344 591.355469 119.402344 591.355469 119.402344 590.355469 C 119.402344 589.355469 120.902344 589.355469 120.902344 590.355469 "/>
<path fill-rule="nonzero" fill="rgb(12.156863%, 47.058824%, 70.588235%)" fill-opacity="1" stroke-width="1" stroke-linecap="butt" stroke-linejoin="miter" stroke="rgb(12.156863%, 47.058824%, 70.588235%)" stroke-opacity="1" stroke-miterlimit="10" d="M 100.613281 565.855469 C 100.613281 566.855469 99.113281 566.855469 99.113281 565.855469 C 99.113281 564.855469 100.613281 564.855469 100.613281 565.855469 "/>
<path fill-rule="nonzero" fill="rgb(12.156863%, 47.058824%, 70.588235%)" fill-opacity="1" stroke-width="1" stroke-linecap="butt" stroke-linejoin="miter" stroke="rgb(12.156863%, 47.058824%, 70.588235%)" stroke-opacity="1" stroke-miterlimit="10" d="M 124.0625 538.375 C 124.0625 540.039062 121.5625 540.039062 121.5625 538.375 C 121.5625 536.707031 124.0625 536.707031 124.0625 538.375 "/>
<path fill-rule="nonzero" fill="rgb(12.156863%, 47.058824%, 70.588235%)" fill-opacity="1" stroke-width="1" stroke-linecap="butt" stroke-linejoin="miter" stroke="rgb(12.156863%, 47.058824%, 70.588235%)" stroke-opacity="1" stroke-miterlimit="10" d="M 147.957031 487.027344 C 147.957031 488.027344 146.457031 488.027344 146.457031 487.027344 C 146.457031 486.027344 147.957031 486.027344 147.957031 487.027344 "/>
<path fill-rule="nonzero" fill="rgb(12.156863%, 47.058824%, 70.588235%)" fill-opacity="1" stroke-width="1" stroke-linecap="butt" stroke-linejoin="miter" stroke="rgb(12.156863%, 47.058824%, 70.588235%)" stroke-opacity="1" stroke-miterlimit="10" d="M 80.824219 592.570312 C 80.824219 593.570312 79.324219 593.570312 79.324219 592.570312 C 79.324219 591.570312 80.824219 591.570312 80.824219 592.570312 "/>
<path fill-rule="nonzero" fill="rgb(70.196078%, 70.196078%, 70.196078%)" fill-opacity="1" stroke-width="1" stroke-linecap="butt" stroke-linejoin="miter" stroke="rgb(70.196078%, 70.196078%, 70.196078%)" stroke-opacity="1" stroke-miterlimit="10" d="M 286.925781 709.183594 C 286.925781 712.515625 281.925781 712.515625 281.925781 709.183594 C 281.925781 705.847656 286.925781 705.847656 286.925781 709.183594 "/>
<path fill-rule="nonzero" fill="rgb(70.196078%, 70.196078%, 70.196078%)" fill-opacity="1" stroke-width="1" stroke-linecap="butt" stroke-linejoin="miter" stroke="rgb(70.196078%, 70.196078%, 70.196078%)" stroke-opacity="1" stroke-miterlimit="10" d="M 219.039062 564.804688 C 219.039062 568.136719 214.039062 568.136719 214.039062 564.804688 C 214.039062 561.472656 219.039062 561.472656 219.039062 564.804688 "/>
<path fill-rule="nonzero" fill="rgb(12.156863%, 47.058824%, 70.588235%)" fill-opacity="1" stroke-width="1" stroke-linecap="butt" stroke-linejoin="miter" stroke="rgb(12.156863%, 47.058824%, 70.588235%)" stroke-opacity="1" stroke-miterlimit="10" d="M 114.910156 568.097656 C 114.910156 569.097656 113.410156 569.097656 113.410156 568.097656 C 113.410156 567.097656 114.910156 567.097656 114.910156 568.097656 "/>
<path fill-rule="nonzero" fill="rgb(70.196078%, 70.196078%, 70.196078%)" fill-opacity="1" stroke-width="1" stroke-linecap="butt" stroke-linejoin="miter" stroke="rgb(70.196078%, 70.196078%, 70.196078%)" stroke-opacity="1" stroke-miterlimit="10" d="M 461.589844 577.304688 C 461.589844 580.636719 456.589844 580.636719 456.589844 577.304688 C 456.589844 573.96875 461.589844 573.96875 461.589844 577.304688 "/>
<path fill-rule="nonzero" fill="rgb(70.196078%, 70.196078%, 70.196078%)" fill-opacity="1" stroke-width="1" stroke-linecap="butt" stroke-linejoin="miter" stroke="rgb(70.196078%, 70.196078%, 70.196078%)" stroke-opacity="1" stroke-miterlimit="10" d="M 241.441406 621.203125 C 241.441406 624.535156 236.441406 624.535156 236.441406 621.203125 C 236.441406 617.871094 241.441406 617.871094 241.441406 621.203125 "/>
<path fill-rule="nonzero" fill="rgb(70.196078%, 70.196078%, 70.196078%)" fill-opacity="1" stroke-width="1" stroke-linecap="butt" stroke-linejoin="miter" stroke="rgb(70.196078%, 70.196078%, 70.196078%)" stroke-opacity="1" stroke-miterlimit="10" d="M 309.953125 736.585938 C 309.953125 739.917969 304.953125 739.917969 304.953125 736.585938 C 304.953125 733.253906 309.953125 733.253906 309.953125 736.585938 "/>
<path fill-rule="nonzero" fill="rgb(70.196078%, 70.196078%, 70.196078%)" fill-opacity="1" stroke-width="1" stroke-linecap="butt" stroke-linejoin="miter" stroke="rgb(70.196078%, 70.196078%, 70.196078%)" stroke-opacity="1" stroke-miterlimit="10" d="M 333.039062 750 C 333.039062 753.332031 328.039062 753.332031 328.039062 750 C 328.039062 746.667969 333.039062 746.667969 333.039062 750 "/>
<path fill-rule="nonzero" fill="rgb(70.196078%, 70.196078%, 70.196078%)" fill-opacity="1" stroke-width="1" stroke-linecap="butt" stroke-linejoin="miter" stroke="rgb(70.196078%, 70.196078%, 70.196078%)" stroke-opacity="1" stroke-miterlimit="10" d="M 355.957031 748.550781 C 355.957031 751.882812 350.957031 751.882812 350.957031 748.550781 C 350.957031 745.214844 355.957031 745.214844 355.957031 748.550781 "/>
<path fill-rule="nonzero" fill="rgb(70.196078%, 70.196078%, 70.196078%)" fill-opacity="1" stroke-width="1" stroke-linecap="butt" stroke-linejoin="miter" stroke="rgb(70.196078%, 70.196078%, 70.196078%)" stroke-opacity="1" stroke-miterlimit="10" d="M 264.074219 669.9375 C 264.074219 673.269531 259.074219 673.269531 259.074219 669.9375 C 259.074219 666.601562 264.074219 666.601562 264.074219 669.9375 "/>
<path fill-rule="nonzero" fill="rgb(70.196078%, 70.196078%, 70.196078%)" fill-opacity="1" stroke-width="1" stroke-linecap="butt" stroke-linejoin="miter" stroke="rgb(70.196078%, 70.196078%, 70.196078%)" stroke-opacity="1" stroke-miterlimit="10" d="M 480.648438 525.710938 C 480.648438 529.046875 475.648438 529.046875 475.648438 525.710938 C 475.648438 522.378906 480.648438 522.378906 480.648438 525.710938 "/>
<path fill-rule="nonzero" fill="rgb(70.196078%, 70.196078%, 70.196078%)" fill-opacity="1" stroke-width="1" stroke-linecap="butt" stroke-linejoin="miter" stroke="rgb(70.196078%, 70.196078%, 70.196078%)" stroke-opacity="1" stroke-miterlimit="10" d="M 580.53125 340.472656 C 580.53125 343.808594 575.53125 343.808594 575.53125 340.472656 C 575.53125 337.140625 580.53125 337.140625 580.53125 340.472656 "/>
<path fill-rule="nonzero" fill="rgb(70.196078%, 70.196078%, 70.196078%)" fill-opacity="1" stroke-width="1" stroke-linecap="butt" stroke-linejoin="miter" stroke="rgb(70.196078%, 70.196078%, 70.196078%)" stroke-opacity="1" stroke-miterlimit="10" d="M 378.464844 733.027344 C 378.464844 736.359375 373.464844 736.359375 373.464844 733.027344 C 373.464844 729.695312 378.464844 729.695312 378.464844 733.027344 "/>
<path fill-rule="nonzero" fill="rgb(70.196078%, 70.196078%, 70.196078%)" fill-opacity="1" stroke-width="1" stroke-linecap="butt" stroke-linejoin="miter" stroke="rgb(70.196078%, 70.196078%, 70.196078%)" stroke-opacity="1" stroke-miterlimit="10" d="M 400.371094 705.570312 C 400.371094 708.90625 395.371094 708.90625 395.371094 705.570312 C 395.371094 702.238281 400.371094 702.238281 400.371094 705.570312 "/>
<path fill-rule="nonzero" fill="rgb(70.196078%, 70.196078%, 70.196078%)" fill-opacity="1" stroke-width="1" stroke-linecap="butt" stroke-linejoin="miter" stroke="rgb(70.196078%, 70.196078%, 70.196078%)" stroke-opacity="1" stroke-miterlimit="10" d="M 421.566406 669.125 C 421.566406 672.457031 416.566406 672.457031 416.566406 669.125 C 416.566406 665.789062 421.566406 665.789062 421.566406 669.125 "/>
<path fill-rule="nonzero" fill="rgb(70.196078%, 70.196078%, 70.196078%)" fill-opacity="1" stroke-width="1" stroke-linecap="butt" stroke-linejoin="miter" stroke="rgb(70.196078%, 70.196078%, 70.196078%)" stroke-opacity="1" stroke-miterlimit="10" d="M 601.683594 334.039062 C 601.683594 337.375 596.683594 337.375 596.683594 334.039062 C 596.683594 330.707031 601.683594 330.707031 601.683594 334.039062 "/>
<path fill-rule="nonzero" fill="rgb(70.196078%, 70.196078%, 70.196078%)" fill-opacity="1" stroke-width="1" stroke-linecap="butt" stroke-linejoin="miter" stroke="rgb(70.196078%, 70.196078%, 70.196078%)" stroke-opacity="1" stroke-miterlimit="10" d="M 717.664062 569.011719 C 717.664062 572.347656 712.664062 572.347656 712.664062 569.011719 C 712.664062 565.679688 717.664062 565.679688 717.664062 569.011719 "/>
<path fill-rule="nonzero" fill="rgb(70.196078%, 70.196078%, 70.196078%)" fill-opacity="1" stroke-width="1" stroke-linecap="butt" stroke-linejoin="miter" stroke="rgb(70.196078%, 70.196078%, 70.196078%)" stroke-opacity="1" stroke-miterlimit="10" d="M 559.464844 358.414062 C 559.464844 361.75 554.464844 361.75 554.464844 358.414062 C 554.464844 355.082031 559.464844 355.082031 559.464844 358.414062 "/>
<path fill-rule="nonzero" fill="rgb(70.196078%, 70.196078%, 70.196078%)" fill-opacity="1" stroke-width="1" stroke-linecap="butt" stroke-linejoin="miter" stroke="rgb(70.196078%, 70.196078%, 70.196078%)" stroke-opacity="1" stroke-miterlimit="10" d="M 441.972656 625.832031 C 441.972656 629.167969 436.972656 629.167969 436.972656 625.832031 C 436.972656 622.5 441.972656 622.5 441.972656 625.832031 "/>
<path fill-rule="nonzero" fill="rgb(70.196078%, 70.196078%, 70.196078%)" fill-opacity="1" stroke-width="1" stroke-linecap="butt" stroke-linejoin="miter" stroke="rgb(70.196078%, 70.196078%, 70.196078%)" stroke-opacity="1" stroke-miterlimit="10" d="M 499.578125 474.304688 C 499.578125 477.640625 494.578125 477.640625 494.578125 474.304688 C 494.578125 470.972656 499.578125 470.972656 499.578125 474.304688 "/>
<path fill-rule="nonzero" fill="rgb(70.196078%, 70.196078%, 70.196078%)" fill-opacity="1" stroke-width="1" stroke-linecap="butt" stroke-linejoin="miter" stroke="rgb(70.196078%, 70.196078%, 70.196078%)" stroke-opacity="1" stroke-miterlimit="10" d="M 518.875 427.105469 C 518.875 430.441406 513.875 430.441406 513.875 427.105469 C 513.875 423.773438 518.875 423.773438 518.875 427.105469 "/>
<path fill-rule="nonzero" fill="rgb(70.196078%, 70.196078%, 70.196078%)" fill-opacity="1" stroke-width="1" stroke-linecap="butt" stroke-linejoin="miter" stroke="rgb(70.196078%, 70.196078%, 70.196078%)" stroke-opacity="1" stroke-miterlimit="10" d="M 622.488281 338.652344 C 622.488281 341.984375 617.488281 341.984375 617.488281 338.652344 C 617.488281 335.316406 622.488281 335.316406 622.488281 338.652344 "/>
<path fill-rule="nonzero" fill="rgb(70.196078%, 70.196078%, 70.196078%)" fill-opacity="1" stroke-width="1" stroke-linecap="butt" stroke-linejoin="miter" stroke="rgb(70.196078%, 70.196078%, 70.196078%)" stroke-opacity="1" stroke-miterlimit="10" d="M 642.46875 353.839844 C 642.46875 357.171875 637.46875 357.171875 637.46875 353.839844 C 637.46875 350.507812 642.46875 350.507812 642.46875 353.839844 "/>
<path fill-rule="nonzero" fill="rgb(70.196078%, 70.196078%, 70.196078%)" fill-opacity="1" stroke-width="1" stroke-linecap="butt" stroke-linejoin="miter" stroke="rgb(70.196078%, 70.196078%, 70.196078%)" stroke-opacity="1" stroke-miterlimit="10" d="M 661.101562 379.570312 C 661.101562 382.902344 656.101562 382.902344 656.101562 379.570312 C 656.101562 376.234375 661.101562 376.234375 661.101562 379.570312 "/>
<path fill-rule="nonzero" fill="rgb(70.196078%, 70.196078%, 70.196078%)" fill-opacity="1" stroke-width="1" stroke-linecap="butt" stroke-linejoin="miter" stroke="rgb(70.196078%, 70.196078%, 70.196078%)" stroke-opacity="1" stroke-miterlimit="10" d="M 729.988281 618.449219 C 729.988281 621.785156 724.988281 621.785156 724.988281 618.449219 C 724.988281 615.117188 729.988281 615.117188 729.988281 618.449219 "/>
<path fill-rule="nonzero" fill="rgb(70.196078%, 70.196078%, 70.196078%)" fill-opacity="1" stroke-width="1" stroke-linecap="butt" stroke-linejoin="miter" stroke="rgb(70.196078%, 70.196078%, 70.196078%)" stroke-opacity="1" stroke-miterlimit="10" d="M 677.839844 416.1875 C 677.839844 419.523438 672.839844 419.523438 672.839844 416.1875 C 672.839844 412.855469 677.839844 412.855469 677.839844 416.1875 "/>
<path fill-rule="nonzero" fill="rgb(70.196078%, 70.196078%, 70.196078%)" fill-opacity="1" stroke-width="1" stroke-linecap="butt" stroke-linejoin="miter" stroke="rgb(70.196078%, 70.196078%, 70.196078%)" stroke-opacity="1" stroke-miterlimit="10" d="M 741.910156 660.863281 C 741.910156 664.195312 736.910156 664.195312 736.910156 660.863281 C 736.910156 657.53125 741.910156 657.53125 741.910156 660.863281 "/>
<path fill-rule="nonzero" fill="rgb(100%, 84.313725%, 0%)" fill-opacity="1" stroke-width="1" stroke-linecap="butt" stroke-linejoin="miter" stroke="rgb(100%, 84.313725%, 0%)" stroke-opacity="1" stroke-miterlimit="10" d="M 747.5 689.429688 L 752.5 689.429688 L 752.5 694.429688 L 747.5 694.429688 Z M 747.5 689.429688 "/>
<path fill-rule="nonzero" fill="rgb(70.196078%, 70.196078%, 70.196078%)" fill-opacity="1" stroke-width="1" stroke-linecap="butt" stroke-linejoin="miter" stroke="rgb(70.196078%, 70.196078%, 70.196078%)" stroke-opacity="1" stroke-miterlimit="10" d="M 538.839844 387.699219 C 538.839844 391.03125 533.839844 391.03125 533.839844 387.699219 C 533.839844 384.363281 538.839844 384.363281 538.839844 387.699219 "/>
<path fill-rule="nonzero" fill="rgb(70.196078%, 70.196078%, 70.196078%)" fill-opacity="1" stroke-width="1" stroke-linecap="butt" stroke-linejoin="miter" stroke="rgb(70.196078%, 70.196078%, 70.196078%)" stroke-opacity="1" stroke-miterlimit="10" d="M 692.285156 463.050781 C 692.285156 466.386719 687.285156 466.386719 687.285156 463.050781 C 687.285156 459.71875 692.285156 459.71875 692.285156 463.050781 "/>
<path fill-rule="nonzero" fill="rgb(70.196078%, 70.196078%, 70.196078%)" fill-opacity="1" stroke-width="1" stroke-linecap="butt" stroke-linejoin="miter" stroke="rgb(70.196078%, 70.196078%, 70.196078%)" stroke-opacity="1" stroke-miterlimit="10" d="M 705.175781 515.925781 C 705.175781 519.257812 700.175781 519.257812 700.175781 515.925781 C 700.175781 512.59375 705.175781 512.59375 705.175781 515.925781 "/>
</svg>
