<?xml version="1.0" encoding="UTF-8"?>
<svg xmlns="http://www.w3.org/2000/svg" xmlns:xlink="http://www.w3.org/1999/xlink" width="800" height="800" viewBox="0 0 800 800">
<rect x="-80" y="-80" width="960" height="960" fill="rgb(100%, 100%, 100%)" fill-opacity="1"/>
<path fill="none" stroke-width="2.5" stroke-linecap="butt" stroke-linejoin="miter" stroke="rgb(70.196078%, 70.196078%, 70.196078%)" stroke-opacity="1" stroke-miterlimit="10" d="M 577.492188 626.429688 C 607.640625 627.957031 634.121094 618.703125 654.421875 596.390625 "/>
<path fill-rule="nonzero" fill="rgb(70.196078%, 70.196078%, 70.196078%)" fill-opacity="1" d="M 659.222656 591.113281 L 656.136719 597.949219 L 652.707031 594.828125 L 659.222656 591.113281 "/>
<path fill="none" stroke-width="2.5" stroke-linecap="butt" stroke-linejoin="miter" stroke="rgb(70.196078%, 70.196078%, 70.196078%)" stroke-opacity="1" stroke-miterlimit="10" d="M 381.832031 660.734375 C 416.523438 666.601562 448.300781 659.355469 474.960938 636.429688 "/>
<path fill-rule="nonzero" fill="rgb(70.196078%, 70.196078%, 70.196078%)" fill-opacity="1" d="M 480.367188 631.777344 L 476.46875 638.183594 L 473.449219 634.671875 L 480.367188 631.777344 "/>
<path fill="none" stroke-width="1.5" stroke-linecap="butt" stroke-linejoin="miter" stroke="rgb(12.156863%, 47.058824%, 70.588235%)" stroke-opacity="1" stroke-miterlimit="10" d="M 381.832031 660.734375 C 351.632812 640.859375 318.765625 634.59375 284.179688 645.058594 "/>
<path fill-rule="nonzero" fill="rgb(12.156863%, 47.058824%, 70.588235%)" fill-opacity="1" d="M 277.351562 647.121094 L 283.507812 642.839844 L 284.847656 647.273438 L 277.351562 647.121094 "/>
<path fill="none" stroke-width="1.5" stroke-linecap="butt" stroke-linejoin="miter" stroke="rgb(12.156863%, 47.058824%, 70.588235%)" stroke-opacity="1" stroke-miterlimit="10" d="M 181.527344 621.277344 C 165.839844 594.914062 143.09375 577.761719 112.789062 573.117188 "/>
<path fill-rule="nonzero" fill="rgb(12.156863%, 47.058824%, 70.588235%)" fill-opacity="1" d="M 105.738281 572.039062 L 113.140625 570.828125 L 112.4375 575.410156 L 105.738281 572.039062 "/>
<path fill="none" stroke-width="2.5" stroke-linecap="butt" stroke-linejoin="miter" stroke="rgb(70.196078%, 70.196078%, 70.196078%)" stroke-opacity="1" stroke-miterlimit="10" d="M 482.179688 630.21875 C 511.039062 643.359375 540.453125 644.503906 568.933594 630.605469 "/>
<path fill-rule="nonzero" fill="rgb(70.196078%, 70.196078%, 70.196078%)" fill-opacity="1" d="M 575.347656 627.476562 L 569.953125 632.6875 L 567.917969 628.523438 L 575.347656 627.476562 "/>
<path fill="none" stroke-width="1.5" stroke-linecap="butt" stroke-linejoin="miter" stroke="rgb(12.156863%, 47.058824%, 70.588235%)" stroke-opacity="1" stroke-miterlimit="10" d="M 276.664062 647.332031 C 251.625 625.140625 222.335938 614.980469 189.285156 620.078125 "/>
<path fill-rule="nonzero" fill="rgb(12.156863%, 47.058824%, 70.588235%)" fill-opacity="1" d="M 182.238281 621.167969 L 188.933594 617.789062 L 189.640625 622.371094 L 182.238281 621.167969 "/>
<path fill="none" stroke-width="1.5" stroke-linecap="butt" stroke-linejoin="miter" stroke="rgb(30.196078%, 68.627451%, 29.019608%)" stroke-opacity="1" stroke-miterlimit="10" d="M 354.261719 306.398438 C 318.265625 322.117188 293.167969 348.355469 282.101562 386.027344 "/>
<path fill-rule="nonzero" fill="rgb(30.196078%, 68.627451%, 29.019608%)" fill-opacity="1" d="M 280.09375 392.871094 L 279.878906 385.375 L 284.328125 386.679688 L 280.09375 392.871094 "/>
<path fill="none" stroke-width="1.5" stroke-linecap="butt" stroke-linejoin="miter" stroke="rgb(99.215686%, 74.901961%, 43.529412%)" stroke-opacity="1" stroke-miterlimit="10" d="M 354.261719 306.398438 C 333.398438 274.269531 304.15625 254.277344 266.136719 249.664062 "/>
<path fill-rule="nonzero" fill="rgb(99.215686%, 74.901961%, 43.529412%)" fill-opacity="1" d="M 259.058594 248.804688 L 266.417969 247.363281 L 265.859375 251.964844 L 259.058594 248.804688 "/>
<path fill="none" stroke-width="3.5" stroke-linecap="butt" stroke-linejoin="miter" stroke="rgb(70.196078%, 70.196078%, 70.196078%)" stroke-opacity="1" stroke-miterlimit="10" d="M 402.179688 750 C 409.53125 720.59375 405.542969 692.71875 387.503906 668.386719 "/>
<path fill-rule="nonzero" fill="rgb(70.196078%, 70.196078%, 70.196078%)" fill-opacity="1" d="M 383.257812 662.65625 L 389.367188 667.003906 L 385.644531 669.765625 L 383.257812 662.65625 "/>
<path fill="none" stroke-width="2.5" stroke-linecap="butt" stroke-linejoin="miter" stroke="rgb(70.196078%, 70.196078%, 70.196078%)" stroke-opacity="1" stroke-miterlimit="10" d="M 463.226562 250.746094 C 421.667969 251.390625 386.472656 266.765625 360.269531 299.007812 "/>
<path fill-rule="nonzero" fill="rgb(70.196078%, 70.196078%, 70.196078%)" fill-opacity="1" d="M 355.769531 304.542969 L 358.472656 297.546875 L 362.070312 300.46875 L 355.769531 304.542969 "/>
<path fill="none" stroke-width="2.5" stroke-linecap="butt" stroke-linejoin="miter" stroke="rgb(70.196078%, 70.196078%, 70.196078%)" stroke-opacity="1" stroke-miterlimit="10" d="M 660.832031 589.347656 C 688.347656 581.847656 709.457031 565.777344 721.066406 539.75 "/>
<path fill-rule="nonzero" fill="rgb(70.196078%, 70.196078%, 70.196078%)" fill-opacity="1" d="M 723.96875 533.234375 L 723.179688 540.695312 L 718.949219 538.804688 L 723.96875 533.234375 "/>
<path fill="none" stroke-width="1.5" stroke-linecap="butt" stroke-linejoin="miter" stroke="rgb(30.196078%, 68.627451%, 29.019608%)" stroke-opacity="1" stroke-miterlimit="10" d="M 160.472656 135.804688 C 190.707031 120 211.019531 95.777344 218.15625 62.433594 "/>
<path fill-rule="nonzero" fill="rgb(30.196078%, 68.627451%, 29.019608%)" fill-opacity="1" d="M 219.652344 55.460938 L 220.425781 62.917969 L 215.890625 61.949219 L 219.652344 55.460938 "/>
<path fill="none" stroke-width="1.5" stroke-linecap="butt" stroke-linejoin="miter" stroke="rgb(99.215686%, 74.901961%, 43.529412%)" stroke-opacity="1" stroke-miterlimit="10" d="M 146.648438 255.101562 C 111.257812 253.023438 80.238281 263.777344 56.019531 289.644531 "/>
<path fill-rule="nonzero" fill="rgb(99.215686%, 74.901961%, 43.529412%)" fill-opacity="1" d="M 51.144531 294.851562 L 54.328125 288.058594 L 57.710938 291.226562 L 51.144531 294.851562 "/>
<path fill="none" stroke-width="1.5" stroke-linecap="butt" stroke-linejoin="miter" stroke="rgb(30.196078%, 68.627451%, 29.019608%)" stroke-opacity="1" stroke-miterlimit="10" d="M 146.648438 255.101562 C 168.8125 220.261719 175.246094 182.664062 162.832031 143.292969 "/>
<path fill-rule="nonzero" fill="rgb(30.196078%, 68.627451%, 29.019608%)" fill-opacity="1" d="M 160.6875 136.488281 L 165.042969 142.597656 L 160.621094 143.988281 L 160.6875 136.488281 "/>
<path fill="none" stroke-width="1.5" stroke-linecap="butt" stroke-linejoin="miter" stroke="rgb(30.196078%, 68.627451%, 29.019608%)" stroke-opacity="1" stroke-miterlimit="10" d="M 279.890625 393.5625 C 250.882812 370.222656 217.808594 360.601562 181.316406 367.898438 "/>
<path fill-rule="nonzero" fill="rgb(30.196078%, 68.627451%, 29.019608%)" fill-opacity="1" d="M 174.320312 369.296875 L 180.859375 365.625 L 181.769531 370.171875 L 174.320312 369.296875 "/>
<path fill="none" stroke-width="1.5" stroke-linecap="butt" stroke-linejoin="miter" stroke="rgb(30.196078%, 68.627451%, 29.019608%)" stroke-opacity="1" stroke-miterlimit="10" d="M 173.617188 369.4375 C 182.550781 330.675781 176.378906 294.414062 152.390625 262.699219 "/>
<path fill-rule="nonzero" fill="rgb(30.196078%, 68.627451%, 29.019608%)" fill-opacity="1" d="M 148.089844 257.011719 L 154.242188 261.300781 L 150.542969 264.097656 L 148.089844 257.011719 "/>
<path fill="none" stroke-width="1.5" stroke-linecap="butt" stroke-linejoin="miter" stroke="rgb(99.215686%, 74.901961%, 43.529412%)" stroke-opacity="1" stroke-miterlimit="10" d="M 258.34375 248.71875 C 223.628906 233.917969 188.710938 233.597656 155.128906 250.765625 "/>
<path fill-rule="nonzero" fill="rgb(99.215686%, 74.901961%, 43.529412%)" fill-opacity="1" d="M 148.777344 254.015625 L 154.070312 248.703125 L 156.183594 252.832031 L 148.777344 254.015625 "/>
<path fill="none" stroke-width="1.5" stroke-linecap="butt" stroke-linejoin="miter" stroke="rgb(30.196078%, 68.627451%, 29.019608%)" stroke-opacity="1" stroke-miterlimit="10" d="M 681.019531 172.910156 C 674.089844 136.308594 655.164062 107.511719 622.644531 89.375 "/>
<path fill-rule="nonzero" fill="rgb(30.196078%, 68.627451%, 29.019608%)" fill-opacity="1" d="M 616.417969 85.898438 L 623.773438 87.347656 L 621.515625 91.398438 L 616.417969 85.898438 "/>
<path fill="none" stroke-width="1.5" stroke-linecap="butt" stroke-linejoin="miter" stroke="rgb(30.196078%, 68.627451%, 29.019608%)" stroke-opacity="1" stroke-miterlimit="10" d="M 615.789062 85.546875 C 590.824219 59.828125 560.355469 46.695312 524.632812 49.40625 "/>
<path fill-rule="nonzero" fill="rgb(30.196078%, 68.627451%, 29.019608%)" fill-opacity="1" d="M 517.519531 49.945312 L 524.457031 47.09375 L 524.808594 51.71875 L 517.519531 49.945312 "/>
<path fill="none" stroke-width="2.5" stroke-linecap="butt" stroke-linejoin="miter" stroke="rgb(70.196078%, 70.196078%, 70.196078%)" stroke-opacity="1" stroke-miterlimit="10" d="M 750 351.691406 C 739.359375 320.683594 719.304688 297.828125 688.648438 286.285156 "/>
<path fill-rule="nonzero" fill="rgb(70.196078%, 70.196078%, 70.196078%)" fill-opacity="1" d="M 681.972656 283.773438 L 689.464844 284.117188 L 687.832031 288.453125 L 681.972656 283.773438 "/>
<path fill="none" stroke-width="1.5" stroke-linecap="butt" stroke-linejoin="miter" stroke="rgb(30.196078%, 68.627451%, 29.019608%)" stroke-opacity="1" stroke-miterlimit="10" d="M 457.5 129.988281 C 441.15625 167.621094 440.632812 205.539062 458.96875 242.226562 "/>
<path fill-rule="nonzero" fill="rgb(30.196078%, 68.627451%, 29.019608%)" fill-opacity="1" d="M 462.15625 248.605469 L 456.894531 243.261719 L 461.042969 241.191406 L 462.15625 248.605469 "/>
<path fill="none" stroke-width="1.5" stroke-linecap="butt" stroke-linejoin="miter" stroke="rgb(99.215686%, 74.901961%, 43.529412%)" stroke-opacity="1" stroke-miterlimit="10" d="M 570.691406 302.902344 C 545.816406 270.9375 513.207031 252.539062 472.746094 251.085938 "/>
<path fill-rule="nonzero" fill="rgb(99.215686%, 74.901961%, 43.529412%)" fill-opacity="1" d="M 465.617188 250.832031 L 472.828125 248.769531 L 472.660156 253.402344 L 465.617188 250.832031 "/>
<path fill="none" stroke-width="1.5" stroke-linecap="butt" stroke-linejoin="miter" stroke="rgb(30.196078%, 68.627451%, 29.019608%)" stroke-opacity="1" stroke-miterlimit="10" d="M 516.800781 50 C 486.753906 65.464844 466.488281 89.339844 459.195312 122.320312 "/>
<path fill-rule="nonzero" fill="rgb(30.196078%, 68.627451%, 29.019608%)" fill-opacity="1" d="M 457.65625 129.285156 L 456.933594 121.820312 L 461.457031 122.820312 L 457.65625 129.285156 "/>
<path fill="none" stroke-width="1.5" stroke-linecap="butt" stroke-linejoin="miter" stroke="rgb(30.196078%, 68.627451%, 29.019608%)" stroke-opacity="1" stroke-miterlimit="10" d="M 679.734375 282.929688 C 696.625 249.320312 699.09375 214.613281 684.140625 180.113281 "/>
<path fill-rule="nonzero" fill="rgb(30.196078%, 68.627451%, 29.019608%)" fill-opacity="1" d="M 681.304688 173.570312 L 686.265625 179.195312 L 682.015625 181.035156 L 681.304688 173.570312 "/>
<path fill="none" stroke-width="1.5" stroke-linecap="butt" stroke-linejoin="miter" stroke="rgb(99.215686%, 74.901961%, 43.529412%)" stroke-opacity="1" stroke-miterlimit="10" d="M 679.734375 282.929688 C 643.214844 272.71875 608.410156 277 577.164062 298.457031 "/>
<path fill-rule="nonzero" fill="rgb(99.215686%, 74.901961%, 43.529412%)" fill-opacity="1" d="M 571.285156 302.496094 L 575.851562 296.546875 L 578.476562 300.367188 L 571.285156 302.496094 "/>
<path fill-rule="nonzero" fill="rgb(70.196078%, 70.196078%, 70.196078%)" fill-opacity="1" stroke-width="1" stroke-linecap="butt" stroke-linejoin="miter" stroke="rgb(70.196078%, 70.196078%, 70.196078%)" stroke-opacity="1" stroke-miterlimit="10" d="M 579.992188 626.429688 C 579.992188 629.761719 574.992188 629.761719 574.992188 626.429688 C 574.992188 623.097656 579.992188 623.097656 579.992188 626.429688 "/>
<path fill-rule="nonzero" fill="rgb(70.196078%, 70.196078%, 70.196078%)" fill-opacity="1" stroke-width="1" stroke-linecap="butt" stroke-linejoin="miter" stroke="rgb(70.196078%, 70.196078%, 70.196078%)" stroke-opacity="1" stroke-miterlimit="10" d="M 384.332031 660.734375 C 384.332031 664.070312 379.332031 664.070312 379.332031 660.734375 C 379.332031 657.402344 384.332031 657.402344 384.332031 660.734375 "/>
<path fill-rule="nonzero" fill="rgb(12.156863%, 47.058824%, 70.588235%)" fill-opacity="1" stroke-width="1" stroke-linecap="butt" stroke-linejoin="miter" stroke="rgb(12.156863%, 47.058824%, 70.588235%)" stroke-opacity="1" stroke-miterlimit="10" d="M 182.277344 621.277344 C 182.277344 622.277344 180.777344 622.277344 180.777344 621.277344 C 180.777344 620.277344 182.277344 620.277344 182.277344 621.277344 "/>
<path fill-rule="nonzero" fill="rgb(70.196078%, 70.196078%, 70.196078%)" fill-opacity="1" stroke-width="1" stroke-linecap="butt" stroke-linejoin="miter" stroke="rgb(70.196078%, 70.196078%, 70.196078%)" stroke-opacity="1" stroke-miterlimit="10" d="M 484.679688 630.21875 C 484.679688 633.550781 479.679688 633.550781 479.679688 630.21875 C 479.679688 626.886719 484.679688 626.886719 484.679688 630.21875 "/>
<path fill-rule="nonzero" fill="rgb(12.156863%, 47.058824%, 70.588235%)" fill-opacity="1" stroke-width="1" stroke-linecap="butt" stroke-linejoin="miter" stroke="rgb(12.156863%, 47.058824%, 70.588235%)" stroke-opacity="1" stroke-miterlimit="10" d="M 277.414062 647.332031 C 277.414062 648.332031 275.914062 648.332031 275.914062 647.332031 C 275.914062 646.332031 277.414062 646.332031 277.414062 647.332031 "/>
<path fill-rule="nonzero" fill="rgb(70.196078%, 70.196078%, 70.196078%)" fill-opacity="1" stroke-width="1" stroke-linecap="butt" stroke-linejoin="miter" stroke="rgb(70.196078%, 70.196078%, 70.196078%)" stroke-opacity="1" stroke-miterlimit="10" d="M 356.761719 306.398438 C 356.761719 309.730469 351.761719 309.730469 351.761719 306.398438 C 351.761719 303.066406 356.761719 303.066406 356.761719 306.398438 "/>
<path fill-rule="nonzero" fill="rgb(100%, 84.313725%, 0%)" fill-opacity="1" stroke-width="1" stroke-linecap="butt" stroke-linejoin="miter" stroke="rgb(100%, 84.313725%, 0%)" stroke-opacity="1" stroke-miterlimit="10" d="M 399.679688 747.5 L 404.679688 747.5 L 404.679688 752.5 L 399.679688 752.5 Z M 399.679688 747.5 "/>
<path fill-rule="nonzero" fill="rgb(70.196078%, 70.196078%, 70.196078%)" fill-opacity="1" stroke-width="1" stroke-linecap="butt" stroke-linejoin="miter" stroke="rgb(70.196078%, 70.196078%, 70.196078%)" stroke-opacity="1" stroke-miterlimit="10" d="M 465.726562 250.746094 C 465.726562 254.078125 460.726562 254.078125 460.726562 250.746094 C 460.726562 247.410156 465.726562 247.410156 465.726562 250.746094 "/>
<path fill-rule="nonzero" fill="rgb(14.901961%, 14.901961%, 14.901961%)" fill-opacity="1" stroke-width="1" stroke-linecap="butt" stroke-linejoin="miter" stroke="rgb(14.901961%, 14.901961%, 14.901961%)" stroke-opacity="1" stroke-miterlimit="10" d="M 722.445312 533.554688 L 724.945312 528.554688 L 727.445312 533.554688 Z M 722.445312 533.554688 "/>
<path fill-rule="nonzero" fill="rgb(70.196078%, 70.196078%, 70.196078%)" fill-opacity="1" stroke-width="1" stroke-linecap="butt" stroke-linejoin="miter" stroke="rgb(70.196078%, 70.196078%, 70.196078%)" stroke-opacity="1" stroke-miterlimit="10" d="M 663.332031 589.347656 C 663.332031 592.679688 658.332031 592.679688 658.332031 589.347656 C 658.332031 586.011719 663.332031 586.011719 663.332031 589.347656 "/>
<path fill-rule="nonzero" fill="rgb(14.901961%, 14.901961%, 14.901961%)" fill-opacity="1" stroke-width="1" stroke-linecap="butt" stroke-linejoin="miter" stroke="rgb(14.901961%, 14.901961%, 14.901961%)" stroke-opacity="1" stroke-miterlimit="10" d="M 102.332031 573.535156 L 104.082031 570.035156 L 105.832031 573.535156 Z M 102.332031 573.535156 "/>
<path fill-rule="nonzero" fill="rgb(14.901961%, 14.901961%, 14.901961%)" fill-opacity="1" stroke-width="1" stroke-linecap="butt" stroke-linejoin="miter" stroke="rgb(14.901961%, 14.901961%, 14.901961%)" stroke-opacity="1" stroke-miterlimit="10" d="M 48.25 297.824219 L 50 294.324219 L 51.75 297.824219 Z M 48.25 297.824219 "/>
<path fill-rule="nonzero" fill="rgb(14.901961%, 14.901961%, 14.901961%)" fill-opacity="1" stroke-width="1" stroke-linecap="butt" stroke-linejoin="miter" stroke="rgb(14.901961%, 14.901961%, 14.901961%)" stroke-opacity="1" stroke-miterlimit="10" d="M 218.25 55.570312 L 220 52.070312 L 221.75 55.570312 Z M 218.25 55.570312 "/>
<path fill-rule="nonzero" fill="rgb(30.196078%, 68.627451%, 29.019608%)" fill-opacity="1" stroke-width="1" stroke-linecap="butt" stroke-linejoin="miter" stroke="rgb(30.196078%, 68.627451%, 29.019608%)" stroke-opacity="1" stroke-miterlimit="10" d="M 161.222656 135.804688 C 161.222656 136.804688 159.722656 136.804688 159.722656 135.804688 C 159.722656 134.804688 161.222656 134.804688 161.222656 135.804688 "/>
<path fill-rule="nonzero" fill="rgb(70.196078%, 70.196078%, 70.196078%)" fill-opacity="1" stroke-width="1" stroke-linecap="butt" stroke-linejoin="miter" stroke="rgb(70.196078%, 70.196078%, 70.196078%)" stroke-opacity="1" stroke-miterlimit="10" d="M 149.148438 255.101562 C 149.148438 258.4375 144.148438 258.4375 144.148438 255.101562 C 144.148438 251.769531 149.148438 251.769531 149.148438 255.101562 "/>
<path fill-rule="nonzero" fill="rgb(30.196078%, 68.627451%, 29.019608%)" fill-opacity="1" stroke-width="1" stroke-linecap="butt" stroke-linejoin="miter" stroke="rgb(30.196078%, 68.627451%, 29.019608%)" stroke-opacity="1" stroke-miterlimit="10" d="M 280.640625 393.5625 C 280.640625 394.5625 279.140625 394.5625 279.140625 393.5625 C 279.140625 392.5625 280.640625 392.5625 280.640625 393.5625 "/>
<path fill-rule="nonzero" fill="rgb(30.196078%, 68.627451%, 29.019608%)" fill-opacity="1" stroke-width="1" stroke-linecap="butt" stroke-linejoin="miter" stroke="rgb(30.196078%, 68.627451%, 29.019608%)" stroke-opacity="1" stroke-miterlimit="10" d="M 174.367188 369.4375 C 174.367188 370.4375 172.867188 370.4375 172.867188 369.4375 C 172.867188 368.4375 174.367188 368.4375 174.367188 369.4375 "/>
<path fill-rule="nonzero" fill="rgb(99.215686%, 74.901961%, 43.529412%)" fill-opacity="1" stroke-width="1" stroke-linecap="butt" stroke-linejoin="miter" stroke="rgb(99.215686%, 74.901961%, 43.529412%)" stroke-opacity="1" stroke-miterlimit="10" d="M 259.09375 248.71875 C 259.09375 249.71875 257.59375 249.71875 257.59375 248.71875 C 257.59375 247.71875 259.09375 247.71875 259.09375 248.71875 "/>
<path fill-rule="nonzero" fill="rgb(30.196078%, 68.627451%, 29.019608%)" fill-opacity="1" stroke-width="1" stroke-linecap="butt" stroke-linejoin="miter" stroke="rgb(30.196078%, 68.627451%, 29.019608%)" stroke-opacity="1" stroke-miterlimit="10" d="M 681.769531 172.910156 C 681.769531 173.910156 680.269531 173.910156 680.269531 172.910156 C 680.269531 171.910156 681.769531 171.910156 681.769531 172.910156 "/>
<path fill-rule="nonzero" fill="rgb(30.196078%, 68.627451%, 29.019608%)" fill-opacity="1" stroke-width="1" stroke-linecap="butt" stroke-linejoin="miter" stroke="rgb(30.196078%, 68.627451%, 29.019608%)" stroke-opacity="1" stroke-miterlimit="10" d="M 616.539062 85.546875 C 616.539062 86.546875 615.039062 86.546875 615.039062 85.546875 C 615.039062 84.546875 616.539062 84.546875 616.539062 85.546875 "/>
<path fill-rule="nonzero" fill="rgb(100%, 84.313725%, 0%)" fill-opacity="1" stroke-width="1" stroke-linecap="butt" stroke-linejoin="miter" stroke="rgb(100%, 84.313725%, 0%)" stroke-opacity="1" stroke-miterlimit="10" d="M 747.5 349.191406 L 752.5 349.191406 L 752.5 354.191406 L 747.5 354.191406 Z M 747.5 349.191406 "/>
<path fill-rule="nonzero" fill="rgb(30.196078%, 68.627451%, 29.019608%)" fill-opacity="1" stroke-width="1" stroke-linecap="butt" stroke-linejoin="miter" stroke="rgb(30.196078%, 68.627451%, 29.019608%)" stroke-opacity="1" stroke-miterlimit="10" d="M 458.25 129.988281 C 458.25 130.988281 456.75 130.988281 456.75 129.988281 C 456.75 128.988281 458.25 128.988281 458.25 129.988281 "/>
<path fill-rule="nonzero" fill="rgb(99.215686%, 74.901961%, 43.529412%)" fill-opacity="1" stroke-width="1" stroke-linecap="butt" stroke-linejoin="miter" stroke="rgb(99.215686%, 74.901961%, 43.529412%)" stroke-opacity="1" stroke-miterlimit="10" d="M 571.441406 302.902344 C 571.441406 303.902344 569.941406 303.902344 569.941406 302.902344 C 569.941406 301.902344 571.441406 301.902344 571.441406 302.902344 "/>
<path fill-rule="nonzero" fill="rgb(30.196078%, 68.627451%, 29.019608%)" fill-opacity="1" stroke-width="1" stroke-linecap="butt" stroke-linejoin="miter" stroke="rgb(30.196078%, 68.627451%, 29.019608%)" stroke-opacity="1" stroke-miterlimit="10" d="M 517.550781 50 C 517.550781 51 516.050781 51 516.050781 50 C 516.050781 49 517.550781 49 517.550781 50 "/>
<path fill-rule="nonzero" fill="rgb(70.196078%, 70.196078%, 70.196078%)" fill-opacity="1" stroke-width="1" stroke-linecap="butt" stroke-linejoin="miter" stroke="rgb(70.196078%, 70.196078%, 70.196078%)" stroke-opacity="1" stroke-miterlimit="10" d="M 682.234375 282.929688 C 682.234375 286.261719 677.234375 286.261719 677.234375 282.929688 C 677.234375 279.597656 682.234375 279.597656 682.234375 282.929688 "/>
</svg>
