<?xml version="1.0" encoding="UTF-8"?>
<svg xmlns="http://www.w3.org/2000/svg" xmlns:xlink="http://www.w3.org/1999/xlink" width="800" height="800" viewBox="0 0 800 800">
<rect x="-80" y="-80" width="960" height="960" fill="rgb(100%, 100%, 100%)" fill-opacity="1"/>
<path fill="none" stroke-width="1.5" stroke-linecap="butt" stroke-linejoin="miter" stroke="rgb(99.215686%, 74.901961%, 43.529412%)" stroke-opacity="1" stroke-miterlimit="10" d="M 721.78125 528.269531 C 704.457031 540.796875 693.609375 557.648438 692.628906 578.976562 "/>
<path fill-rule="nonzero" fill="rgb(99.215686%, 74.901961%, 43.529412%)" fill-opacity="1" d="M 692.304688 586.101562 L 690.316406 578.871094 L 694.945312 579.082031 L 692.304688 586.101562 "/>
<path fill="none" stroke-width="1.5" stroke-linecap="butt" stroke-linejoin="miter" stroke="rgb(99.215686%, 74.901961%, 43.529412%)" stroke-opacity="1" stroke-miterlimit="10" d="M 655.238281 652.355469 C 632.136719 657.023438 613.667969 669.027344 602.847656 689.933594 "/>
<path fill-rule="nonzero" fill="rgb(99.215686%, 74.901961%, 43.529412%)" fill-opacity="1" d="M 599.566406 696.269531 L 600.789062 688.867188 L 604.90625 691 L 599.566406 696.269531 "/>
<path fill="none" stroke-width="1.5" stroke-linecap="butt" stroke-linejoin="miter" stroke="rgb(99.215686%, 74.901961%, 43.529412%)" stroke-opacity="1" stroke-miterlimit="10" d="M 453.375 601.957031 C 434.523438 589.199219 413.726562 584.542969 392.019531 591.296875 "/>
<path fill-rule="nonzero" fill="rgb(99.215686%, 74.901961%, 43.529412%)" fill-opacity="1" d="M 385.207031 593.414062 L 391.332031 589.082031 L 392.707031 593.507812 L 385.207031 593.414062 "/>
<path fill="none" stroke-width="1.5" stroke-linecap="butt" stroke-linejoin="miter" stroke="rgb(99.215686%, 74.901961%, 43.529412%)" stroke-opacity="1" stroke-miterlimit="10" d="M 531.757812 669.292969 C 518.417969 637.441406 495.730469 614.855469 462.710938 604.800781 "/>
<path fill-rule="nonzero" fill="rgb(99.215686%, 74.901961%, 43.529412%)" fill-opacity="1" d="M 455.890625 602.722656 L 463.386719 602.582031 L 462.035156 607.019531 L 455.890625 602.722656 "/>
<path fill="none" stroke-width="1.5" stroke-linecap="butt" stroke-linejoin="miter" stroke="rgb(99.215686%, 74.901961%, 43.529412%)" stroke-opacity="1" stroke-miterlimit="10" d="M 598.363281 698.597656 C 583.800781 680.316406 564.859375 669.429688 541.515625 669.335938 "/>
<path fill-rule="nonzero" fill="rgb(99.215686%, 74.901961%, 43.529412%)" fill-opacity="1" d="M 534.382812 669.304688 L 541.523438 667.015625 L 541.507812 671.652344 L 534.382812 669.304688 "/>
<path fill="none" stroke-width="1.5" stroke-linecap="butt" stroke-linejoin="miter" stroke="rgb(99.215686%, 74.901961%, 43.529412%)" stroke-opacity="1" stroke-miterlimit="10" d="M 692.183594 588.722656 C 672.152344 601.328125 659.085938 619.179688 656.359375 642.664062 "/>
<path fill-rule="nonzero" fill="rgb(99.215686%, 74.901961%, 43.529412%)" fill-opacity="1" d="M 655.539062 649.746094 L 654.058594 642.394531 L 658.664062 642.929688 L 655.539062 649.746094 "/>
<path fill="none" stroke-width="1.5" stroke-linecap="butt" stroke-linejoin="miter" stroke="rgb(12.156863%, 47.058824%, 70.588235%)" stroke-opacity="1" stroke-miterlimit="10" d="M 199.054688 150.710938 C 222.890625 146.835938 242.257812 135.257812 254.171875 114.28125 "/>
<path fill-rule="nonzero" fill="rgb(12.156863%, 47.058824%, 70.588235%)" fill-opacity="1" d="M 257.695312 108.078125 L 256.1875 115.425781 L 252.15625 113.136719 L 257.695312 108.078125 "/>
<path fill="none" stroke-width="1.5" stroke-linecap="butt" stroke-linejoin="miter" stroke="rgb(98.431373%, 60.392157%, 60%)" stroke-opacity="1" stroke-miterlimit="10" d="M 600.492188 417.679688 C 587.796875 398.390625 570.128906 385.910156 547.160156 383.804688 "/>
<path fill-rule="nonzero" fill="rgb(98.431373%, 60.392157%, 60%)" fill-opacity="1" d="M 540.058594 383.152344 L 547.375 381.496094 L 546.949219 386.113281 L 540.058594 383.152344 "/>
<path fill="none" stroke-width="1.5" stroke-linecap="butt" stroke-linejoin="miter" stroke="rgb(41.568627%, 23.921569%, 60.392157%)" stroke-opacity="1" stroke-miterlimit="10" d="M 534.640625 382.65625 C 510.230469 416.6875 501.570312 454.40625 511.953125 494.964844 "/>
<path fill-rule="nonzero" fill="rgb(41.568627%, 23.921569%, 60.392157%)" fill-opacity="1" d="M 513.71875 501.875 L 509.707031 495.539062 L 514.195312 494.390625 L 513.71875 501.875 "/>
<path fill="none" stroke-width="1.5" stroke-linecap="butt" stroke-linejoin="miter" stroke="rgb(98.431373%, 60.392157%, 60%)" stroke-opacity="1" stroke-miterlimit="10" d="M 534.640625 382.65625 C 517.511719 359.53125 494.667969 345.582031 465.949219 344.195312 "/>
<path fill-rule="nonzero" fill="rgb(98.431373%, 60.392157%, 60%)" fill-opacity="1" d="M 458.824219 343.851562 L 466.058594 341.882812 L 465.835938 346.511719 L 458.824219 343.851562 "/>
<path fill="none" stroke-width="1.5" stroke-linecap="butt" stroke-linejoin="miter" stroke="rgb(41.568627%, 23.921569%, 60.392157%)" stroke-opacity="1" stroke-miterlimit="10" d="M 485.523438 627.152344 C 454.070312 644.886719 433.433594 671.199219 426.957031 706.703125 "/>
<path fill-rule="nonzero" fill="rgb(41.568627%, 23.921569%, 60.392157%)" fill-opacity="1" d="M 425.679688 713.722656 L 424.679688 706.289062 L 429.238281 707.121094 L 425.679688 713.722656 "/>
<path fill="none" stroke-width="1.5" stroke-linecap="butt" stroke-linejoin="miter" stroke="rgb(41.568627%, 23.921569%, 60.392157%)" stroke-opacity="1" stroke-miterlimit="10" d="M 425.207031 716.308594 C 398.03125 714.699219 373.992188 722.769531 355.601562 742.808594 "/>
<path fill-rule="nonzero" fill="rgb(41.568627%, 23.921569%, 60.392157%)" fill-opacity="1" d="M 350.777344 748.066406 L 353.890625 741.242188 L 357.308594 744.378906 L 350.777344 748.066406 "/>
<path fill="none" stroke-width="1.5" stroke-linecap="butt" stroke-linejoin="miter" stroke="rgb(12.156863%, 47.058824%, 70.588235%)" stroke-opacity="1" stroke-miterlimit="10" d="M 223.703125 64.878906 C 227.0625 80.851562 235.335938 93.902344 250.011719 100.953125 "/>
<path fill-rule="nonzero" fill="rgb(12.156863%, 47.058824%, 70.588235%)" fill-opacity="1" d="M 256.441406 104.042969 L 249.007812 103.042969 L 251.015625 98.867188 L 256.441406 104.042969 "/>
<path fill="none" stroke-width="1.5" stroke-linecap="butt" stroke-linejoin="miter" stroke="rgb(41.568627%, 23.921569%, 60.392157%)" stroke-opacity="1" stroke-miterlimit="10" d="M 514.371094 504.421875 C 487.1875 537.535156 475.859375 575.457031 483.730469 617.554688 "/>
<path fill-rule="nonzero" fill="rgb(41.568627%, 23.921569%, 60.392157%)" fill-opacity="1" d="M 485.042969 624.566406 L 481.453125 617.980469 L 486.007812 617.128906 L 485.042969 624.566406 "/>
<path fill="none" stroke-width="1.5" stroke-linecap="butt" stroke-linejoin="miter" stroke="rgb(98.431373%, 60.392157%, 60%)" stroke-opacity="1" stroke-miterlimit="10" d="M 270.335938 337.640625 C 255.664062 359.40625 250.527344 383.328125 258.171875 408.410156 "/>
<path fill-rule="nonzero" fill="rgb(98.431373%, 60.392157%, 60%)" fill-opacity="1" d="M 260.25 415.234375 L 255.953125 409.085938 L 260.386719 407.734375 L 260.25 415.234375 "/>
<path fill="none" stroke-width="1.5" stroke-linecap="butt" stroke-linejoin="miter" stroke="rgb(41.568627%, 23.921569%, 60.392157%)" stroke-opacity="1" stroke-miterlimit="10" d="M 198.371094 692.175781 C 190.65625 664.71875 174.417969 643.734375 148.300781 632.339844 "/>
<path fill-rule="nonzero" fill="rgb(41.568627%, 23.921569%, 60.392157%)" fill-opacity="1" d="M 141.761719 629.484375 L 149.226562 630.214844 L 147.371094 634.464844 L 141.761719 629.484375 "/>
<path fill="none" stroke-width="1.5" stroke-linecap="butt" stroke-linejoin="miter" stroke="rgb(12.156863%, 47.058824%, 70.588235%)" stroke-opacity="1" stroke-miterlimit="10" d="M 259.226562 105.382812 C 255.765625 89.273438 247.347656 76.148438 232.507812 69.074219 "/>
<path fill-rule="nonzero" fill="rgb(12.156863%, 47.058824%, 70.588235%)" fill-opacity="1" d="M 226.070312 66.003906 L 233.503906 66.984375 L 231.511719 71.167969 L 226.070312 66.003906 "/>
<path fill="none" stroke-width="1.5" stroke-linecap="butt" stroke-linejoin="miter" stroke="rgb(12.156863%, 47.058824%, 70.588235%)" stroke-opacity="1" stroke-miterlimit="10" d="M 259.226562 105.382812 C 283.933594 108.960938 306.585938 103.519531 324.878906 86.570312 "/>
<path fill-rule="nonzero" fill="rgb(12.156863%, 47.058824%, 70.588235%)" fill-opacity="1" d="M 330.109375 81.722656 L 326.453125 88.273438 L 323.300781 84.871094 L 330.109375 81.722656 "/>
<path fill="none" stroke-width="1.5" stroke-linecap="butt" stroke-linejoin="miter" stroke="rgb(98.431373%, 60.392157%, 60%)" stroke-opacity="1" stroke-miterlimit="10" d="M 390.574219 292.085938 C 371.710938 277.113281 350.171875 270.613281 326.703125 275.90625 "/>
<path fill-rule="nonzero" fill="rgb(98.431373%, 60.392157%, 60%)" fill-opacity="1" d="M 319.746094 277.476562 L 326.191406 273.644531 L 327.210938 278.167969 L 319.746094 277.476562 "/>
<path fill="none" stroke-width="1.5" stroke-linecap="butt" stroke-linejoin="miter" stroke="rgb(41.568627%, 23.921569%, 60.392157%)" stroke-opacity="1" stroke-miterlimit="10" d="M 139.355469 628.4375 C 140.804688 598.769531 131.664062 572.714844 109.660156 552.792969 "/>
<path fill-rule="nonzero" fill="rgb(41.568627%, 23.921569%, 60.392157%)" fill-opacity="1" d="M 104.371094 548.007812 L 111.214844 551.074219 L 108.105469 554.511719 L 104.371094 548.007812 "/>
<path fill="none" stroke-width="1.5" stroke-linecap="butt" stroke-linejoin="miter" stroke="rgb(30.196078%, 68.627451%, 29.019608%)" stroke-opacity="1" stroke-miterlimit="10" d="M 654.21875 237.597656 C 669.742188 252.988281 688.539062 261.101562 710.222656 258.566406 "/>
<path fill-rule="nonzero" fill="rgb(30.196078%, 68.627451%, 29.019608%)" fill-opacity="1" d="M 717.308594 257.738281 L 710.492188 260.871094 L 709.953125 256.265625 L 717.308594 257.738281 "/>
<path fill="none" stroke-width="1.5" stroke-linecap="butt" stroke-linejoin="miter" stroke="rgb(30.196078%, 68.627451%, 29.019608%)" stroke-opacity="1" stroke-miterlimit="10" d="M 719.914062 257.433594 C 715.632812 281.179688 720.082031 303.289062 735.890625 321.476562 "/>
<path fill-rule="nonzero" fill="rgb(30.196078%, 68.627451%, 29.019608%)" fill-opacity="1" d="M 740.570312 326.859375 L 734.140625 322.996094 L 737.640625 319.957031 L 740.570312 326.859375 "/>
<path fill="none" stroke-width="1.5" stroke-linecap="butt" stroke-linejoin="miter" stroke="rgb(98.431373%, 60.392157%, 60%)" stroke-opacity="1" stroke-miterlimit="10" d="M 253.355469 495.871094 C 241.367188 514.753906 237.367188 535.316406 244.636719 556.441406 "/>
<path fill-rule="nonzero" fill="rgb(98.431373%, 60.392157%, 60%)" fill-opacity="1" d="M 246.957031 563.183594 L 242.445312 557.195312 L 246.828125 555.6875 L 246.957031 563.183594 "/>
<path fill="none" stroke-width="1.5" stroke-linecap="butt" stroke-linejoin="miter" stroke="rgb(98.431373%, 60.392157%, 60%)" stroke-opacity="1" stroke-miterlimit="10" d="M 317.183594 278.050781 C 294.867188 288.109375 278.976562 304.539062 272.800781 328.199219 "/>
<path fill-rule="nonzero" fill="rgb(98.431373%, 60.392157%, 60%)" fill-opacity="1" d="M 271 335.101562 L 270.558594 327.613281 L 275.042969 328.785156 L 271 335.101562 "/>
<path fill="none" stroke-width="1.5" stroke-linecap="butt" stroke-linejoin="miter" stroke="rgb(41.568627%, 23.921569%, 60.392157%)" stroke-opacity="1" stroke-miterlimit="10" d="M 102.425781 546.242188 C 112.519531 515.925781 110.539062 486.332031 93.574219 459.277344 "/>
<path fill-rule="nonzero" fill="rgb(41.568627%, 23.921569%, 60.392157%)" fill-opacity="1" d="M 89.785156 453.234375 L 95.539062 458.046875 L 91.613281 460.507812 L 89.785156 453.234375 "/>
<path fill="none" stroke-width="1.5" stroke-linecap="butt" stroke-linejoin="miter" stroke="rgb(41.568627%, 23.921569%, 60.392157%)" stroke-opacity="1" stroke-miterlimit="10" d="M 122.375 365.222656 C 131.164062 339.535156 129.820312 314.285156 115.464844 291.269531 "/>
<path fill-rule="nonzero" fill="rgb(41.568627%, 23.921569%, 60.392157%)" fill-opacity="1" d="M 111.6875 285.21875 L 117.429688 290.042969 L 113.496094 292.496094 L 111.6875 285.21875 "/>
<path fill="none" stroke-width="1.5" stroke-linecap="butt" stroke-linejoin="miter" stroke="rgb(41.568627%, 23.921569%, 60.392157%)" stroke-opacity="1" stroke-miterlimit="10" d="M 110.296875 282.992188 C 89.375 283.152344 71.144531 290.417969 58.28125 306.882812 "/>
<path fill-rule="nonzero" fill="rgb(41.568627%, 23.921569%, 60.392157%)" fill-opacity="1" d="M 53.886719 312.503906 L 56.453125 305.453125 L 60.105469 308.308594 L 53.886719 312.503906 "/>
<path fill="none" stroke-width="1.5" stroke-linecap="butt" stroke-linejoin="miter" stroke="rgb(41.568627%, 23.921569%, 60.392157%)" stroke-opacity="1" stroke-miterlimit="10" d="M 52.273438 314.570312 C 38.917969 338.53125 35.695312 363.890625 45.855469 389.347656 "/>
<path fill-rule="nonzero" fill="rgb(41.568627%, 23.921569%, 60.392157%)" fill-opacity="1" d="M 48.5 395.972656 L 43.703125 390.207031 L 48.007812 388.488281 L 48.5 395.972656 "/>
<path fill="none" stroke-width="1.5" stroke-linecap="butt" stroke-linejoin="miter" stroke="rgb(12.156863%, 47.058824%, 70.588235%)" stroke-opacity="1" stroke-miterlimit="10" d="M 399.070312 57.851562 C 419.535156 65.867188 440.117188 65.859375 459.117188 54.878906 "/>
<path fill-rule="nonzero" fill="rgb(12.156863%, 47.058824%, 70.588235%)" fill-opacity="1" d="M 465.296875 51.3125 L 460.277344 56.886719 L 457.960938 52.875 L 465.296875 51.3125 "/>
<path fill="none" stroke-width="1.5" stroke-linecap="butt" stroke-linejoin="miter" stroke="rgb(30.196078%, 68.627451%, 29.019608%)" stroke-opacity="1" stroke-miterlimit="10" d="M 750 387.082031 C 756.699219 371.179688 757.335938 354.871094 748.863281 339.882812 "/>
<path fill-rule="nonzero" fill="rgb(30.196078%, 68.627451%, 29.019608%)" fill-opacity="1" d="M 745.351562 333.671875 L 750.878906 338.742188 L 746.84375 341.023438 L 745.351562 333.671875 "/>
<path fill="none" stroke-width="1.5" stroke-linecap="butt" stroke-linejoin="miter" stroke="rgb(41.568627%, 23.921569%, 60.392157%)" stroke-opacity="1" stroke-miterlimit="10" d="M 50 399.734375 C 52.890625 419.382812 62.078125 435.632812 79.269531 445.511719 "/>
<path fill-rule="nonzero" fill="rgb(41.568627%, 23.921569%, 60.392157%)" fill-opacity="1" d="M 85.453125 449.0625 L 78.113281 447.519531 L 80.421875 443.5 L 85.453125 449.0625 "/>
<path fill="none" stroke-width="1.5" stroke-linecap="butt" stroke-linejoin="miter" stroke="rgb(41.568627%, 23.921569%, 60.392157%)" stroke-opacity="1" stroke-miterlimit="10" d="M 571.273438 262.28125 C 542.367188 292.652344 528.511719 328.859375 533.257812 370.5 "/>
<path fill-rule="nonzero" fill="rgb(41.568627%, 23.921569%, 60.392157%)" fill-opacity="1" d="M 534.0625 377.589844 L 530.953125 370.761719 L 535.558594 370.238281 L 534.0625 377.589844 "/>
<path fill="none" stroke-width="1.5" stroke-linecap="butt" stroke-linejoin="miter" stroke="rgb(30.196078%, 68.627451%, 29.019608%)" stroke-opacity="1" stroke-miterlimit="10" d="M 571.273438 262.28125 C 599.195312 267.476562 625.089844 262.214844 646.765625 243.894531 "/>
<path fill-rule="nonzero" fill="rgb(30.196078%, 68.627451%, 29.019608%)" fill-opacity="1" d="M 652.210938 239.292969 L 648.261719 245.667969 L 645.269531 242.125 L 652.210938 239.292969 "/>
<path fill="none" stroke-width="1.5" stroke-linecap="butt" stroke-linejoin="miter" stroke="rgb(30.196078%, 68.627451%, 29.019608%)" stroke-opacity="1" stroke-miterlimit="10" d="M 571.273438 262.28125 C 564.40625 243.09375 551.878906 228.632812 532.601562 222.121094 "/>
<path fill-rule="nonzero" fill="rgb(30.196078%, 68.627451%, 29.019608%)" fill-opacity="1" d="M 525.84375 219.835938 L 533.34375 219.925781 L 531.859375 224.316406 L 525.84375 219.835938 "/>
<path fill="none" stroke-width="1.5" stroke-linecap="butt" stroke-linejoin="miter" stroke="rgb(30.196078%, 68.627451%, 29.019608%)" stroke-opacity="1" stroke-miterlimit="10" d="M 571.273438 262.28125 C 586.84375 244.992188 594.441406 224.605469 590.714844 201.667969 "/>
<path fill-rule="nonzero" fill="rgb(30.196078%, 68.627451%, 29.019608%)" fill-opacity="1" d="M 589.570312 194.628906 L 593 201.296875 L 588.425781 202.039062 L 589.570312 194.628906 "/>
<path fill="none" stroke-width="1.5" stroke-linecap="butt" stroke-linejoin="miter" stroke="rgb(30.196078%, 68.627451%, 29.019608%)" stroke-opacity="1" stroke-miterlimit="10" d="M 523.359375 219 C 529.277344 237.164062 540.585938 251.1875 558.515625 257.671875 "/>
<path fill-rule="nonzero" fill="rgb(30.196078%, 68.627451%, 29.019608%)" fill-opacity="1" d="M 565.226562 260.09375 L 557.730469 259.851562 L 559.304688 255.492188 L 565.226562 260.09375 "/>
<path fill="none" stroke-width="1.5" stroke-linecap="butt" stroke-linejoin="miter" stroke="rgb(30.196078%, 68.627451%, 29.019608%)" stroke-opacity="1" stroke-miterlimit="10" d="M 589.148438 192.039062 C 574.023438 208.003906 566.226562 227.109375 569.34375 248.84375 "/>
<path fill-rule="nonzero" fill="rgb(30.196078%, 68.627451%, 29.019608%)" fill-opacity="1" d="M 570.359375 255.90625 L 567.050781 249.175781 L 571.640625 248.515625 L 570.359375 255.90625 "/>
<path fill="none" stroke-width="1.5" stroke-linecap="butt" stroke-linejoin="miter" stroke="rgb(30.196078%, 68.627451%, 29.019608%)" stroke-opacity="1" stroke-miterlimit="10" d="M 743.226562 329.914062 C 736.542969 346.4375 736.195312 363.25 745.109375 378.644531 "/>
<path fill-rule="nonzero" fill="rgb(30.196078%, 68.627451%, 29.019608%)" fill-opacity="1" d="M 748.6875 384.816406 L 743.105469 379.804688 L 747.117188 377.484375 L 748.6875 384.816406 "/>
<path fill="none" stroke-width="1.5" stroke-linecap="butt" stroke-linejoin="miter" stroke="rgb(41.568627%, 23.921569%, 60.392157%)" stroke-opacity="1" stroke-miterlimit="10" d="M 270.015625 734.375 C 255.519531 711.40625 235 696.605469 208.058594 693.347656 "/>
<path fill-rule="nonzero" fill="rgb(41.568627%, 23.921569%, 60.392157%)" fill-opacity="1" d="M 200.976562 692.492188 L 208.335938 691.046875 L 207.78125 695.648438 L 200.976562 692.492188 "/>
<path fill="none" stroke-width="1.5" stroke-linecap="butt" stroke-linejoin="miter" stroke="rgb(41.568627%, 23.921569%, 60.392157%)" stroke-opacity="1" stroke-miterlimit="10" d="M 88.136719 450.605469 C 110.996094 430.578125 123.644531 405.332031 122.683594 374.976562 "/>
<path fill-rule="nonzero" fill="rgb(41.568627%, 23.921569%, 60.392157%)" fill-opacity="1" d="M 122.457031 367.847656 L 125 374.902344 L 120.367188 375.050781 L 122.457031 367.847656 "/>
<path fill="none" stroke-width="1.5" stroke-linecap="butt" stroke-linejoin="miter" stroke="rgb(41.568627%, 23.921569%, 60.392157%)" stroke-opacity="1" stroke-miterlimit="10" d="M 88.136719 450.605469 C 85.433594 431.25 76.523438 415.160156 59.65625 405.347656 "/>
<path fill-rule="nonzero" fill="rgb(41.568627%, 23.921569%, 60.392157%)" fill-opacity="1" d="M 53.492188 401.761719 L 60.824219 403.347656 L 58.492188 407.351562 L 53.492188 401.761719 "/>
<path fill="none" stroke-width="1.5" stroke-linecap="butt" stroke-linejoin="miter" stroke="rgb(41.568627%, 23.921569%, 60.392157%)" stroke-opacity="1" stroke-miterlimit="10" d="M 349 750 C 328.507812 733.675781 305.113281 726.660156 279.546875 732.28125 "/>
<path fill-rule="nonzero" fill="rgb(41.568627%, 23.921569%, 60.392157%)" fill-opacity="1" d="M 272.578125 733.8125 L 279.050781 730.015625 L 280.042969 734.542969 L 272.578125 733.8125 "/>
<path fill="none" stroke-width="1.5" stroke-linecap="butt" stroke-linejoin="miter" stroke="rgb(98.431373%, 60.392157%, 60%)" stroke-opacity="1" stroke-miterlimit="10" d="M 456.199219 343.726562 C 444.847656 318.90625 426.40625 301.414062 400.015625 294.546875 "/>
<path fill-rule="nonzero" fill="rgb(98.431373%, 60.392157%, 60%)" fill-opacity="1" d="M 393.113281 292.75 L 400.601562 292.304688 L 399.433594 296.789062 L 393.113281 292.75 "/>
<path fill="none" stroke-width="1.5" stroke-linecap="butt" stroke-linejoin="miter" stroke="rgb(98.431373%, 60.392157%, 60%)" stroke-opacity="1" stroke-miterlimit="10" d="M 261.015625 417.746094 C 247.132812 439.09375 242.5 462.390625 250.347656 486.589844 "/>
<path fill-rule="nonzero" fill="rgb(98.431373%, 60.392157%, 60%)" fill-opacity="1" d="M 252.546875 493.375 L 248.140625 487.304688 L 252.550781 485.875 L 252.546875 493.375 "/>
<path fill="none" stroke-width="1.5" stroke-linecap="butt" stroke-linejoin="miter" stroke="rgb(12.156863%, 47.058824%, 70.588235%)" stroke-opacity="1" stroke-miterlimit="10" d="M 332.035156 79.9375 C 354.292969 83.703125 374.964844 79.351562 391.789062 64.347656 "/>
<path fill-rule="nonzero" fill="rgb(12.156863%, 47.058824%, 70.588235%)" fill-opacity="1" d="M 397.113281 59.597656 L 393.332031 66.074219 L 390.246094 62.617188 L 397.113281 59.597656 "/>
<path fill="none" stroke-width="1.5" stroke-linecap="butt" stroke-linejoin="miter" stroke="rgb(12.156863%, 47.058824%, 70.588235%)" stroke-opacity="1" stroke-miterlimit="10" d="M 467.566406 50 C 485.246094 60.238281 504.199219 63.210938 523.164062 55.695312 "/>
<path fill-rule="nonzero" fill="rgb(12.156863%, 47.058824%, 70.588235%)" fill-opacity="1" d="M 529.792969 53.070312 L 524.015625 57.851562 L 522.308594 53.542969 L 529.792969 53.070312 "/>
<path fill-rule="nonzero" fill="rgb(100%, 84.313725%, 0%)" fill-opacity="1" stroke-width="1" stroke-linecap="butt" stroke-linejoin="miter" stroke="rgb(100%, 84.313725%, 0%)" stroke-opacity="1" stroke-miterlimit="10" d="M 718.53125 525.019531 L 725.03125 525.019531 L 725.03125 531.519531 L 718.53125 531.519531 Z M 718.53125 525.019531 "/>
<path fill-rule="nonzero" fill="rgb(99.215686%, 74.901961%, 43.529412%)" fill-opacity="1" stroke-width="1" stroke-linecap="butt" stroke-linejoin="miter" stroke="rgb(99.215686%, 74.901961%, 43.529412%)" stroke-opacity="1" stroke-miterlimit="10" d="M 657.988281 652.355469 C 657.988281 656.019531 652.488281 656.019531 652.488281 652.355469 C 652.488281 648.6875 657.988281 648.6875 657.988281 652.355469 "/>
<path fill-rule="nonzero" fill="rgb(14.901961%, 14.901961%, 14.901961%)" fill-opacity="1" stroke-width="1" stroke-linecap="butt" stroke-linejoin="miter" stroke="rgb(14.901961%, 14.901961%, 14.901961%)" stroke-opacity="1" stroke-miterlimit="10" d="M 378.046875 598.222656 L 381.796875 590.722656 L 385.546875 598.222656 Z M 378.046875 598.222656 "/>
<path fill-rule="nonzero" fill="rgb(99.215686%, 74.901961%, 43.529412%)" fill-opacity="1" stroke-width="1" stroke-linecap="butt" stroke-linejoin="miter" stroke="rgb(99.215686%, 74.901961%, 43.529412%)" stroke-opacity="1" stroke-miterlimit="10" d="M 456.125 601.957031 C 456.125 605.625 450.625 605.625 450.625 601.957031 C 450.625 598.289062 456.125 598.289062 456.125 601.957031 "/>
<path fill-rule="nonzero" fill="rgb(99.215686%, 74.901961%, 43.529412%)" fill-opacity="1" stroke-width="1" stroke-linecap="butt" stroke-linejoin="miter" stroke="rgb(99.215686%, 74.901961%, 43.529412%)" stroke-opacity="1" stroke-miterlimit="10" d="M 534.507812 669.292969 C 534.507812 672.960938 529.007812 672.960938 529.007812 669.292969 C 529.007812 665.628906 534.507812 665.628906 534.507812 669.292969 "/>
<path fill-rule="nonzero" fill="rgb(99.215686%, 74.901961%, 43.529412%)" fill-opacity="1" stroke-width="1" stroke-linecap="butt" stroke-linejoin="miter" stroke="rgb(99.215686%, 74.901961%, 43.529412%)" stroke-opacity="1" stroke-miterlimit="10" d="M 601.113281 698.597656 C 601.113281 702.265625 595.613281 702.265625 595.613281 698.597656 C 595.613281 694.933594 601.113281 694.933594 601.113281 698.597656 "/>
<path fill-rule="nonzero" fill="rgb(99.215686%, 74.901961%, 43.529412%)" fill-opacity="1" stroke-width="1" stroke-linecap="butt" stroke-linejoin="miter" stroke="rgb(99.215686%, 74.901961%, 43.529412%)" stroke-opacity="1" stroke-miterlimit="10" d="M 694.933594 588.722656 C 694.933594 592.386719 689.433594 592.386719 689.433594 588.722656 C 689.433594 585.054688 694.933594 585.054688 694.933594 588.722656 "/>
<path fill-rule="nonzero" fill="rgb(100%, 84.313725%, 0%)" fill-opacity="1" stroke-width="1" stroke-linecap="butt" stroke-linejoin="miter" stroke="rgb(100%, 84.313725%, 0%)" stroke-opacity="1" stroke-miterlimit="10" d="M 195.804688 147.460938 L 202.304688 147.460938 L 202.304688 153.960938 L 195.804688 153.960938 Z M 195.804688 147.460938 "/>
<path fill-rule="nonzero" fill="rgb(100%, 84.313725%, 0%)" fill-opacity="1" stroke-width="1" stroke-linecap="butt" stroke-linejoin="miter" stroke="rgb(100%, 84.313725%, 0%)" stroke-opacity="1" stroke-miterlimit="10" d="M 597.242188 414.429688 L 603.742188 414.429688 L 603.742188 420.929688 L 597.242188 420.929688 Z M 597.242188 414.429688 "/>
<path fill-rule="nonzero" fill="rgb(70.196078%, 70.196078%, 70.196078%)" fill-opacity="1" stroke-width="1" stroke-linecap="butt" stroke-linejoin="miter" stroke="rgb(70.196078%, 70.196078%, 70.196078%)" stroke-opacity="1" stroke-miterlimit="10" d="M 539.992188 382.65625 C 539.992188 389.789062 529.292969 389.789062 529.292969 382.65625 C 529.292969 375.523438 539.992188 375.523438 539.992188 382.65625 "/>
<path fill-rule="nonzero" fill="rgb(41.568627%, 23.921569%, 60.392157%)" fill-opacity="1" stroke-width="1" stroke-linecap="butt" stroke-linejoin="miter" stroke="rgb(41.568627%, 23.921569%, 60.392157%)" stroke-opacity="1" stroke-miterlimit="10" d="M 488.273438 627.152344 C 488.273438 630.820312 482.773438 630.820312 482.773438 627.152344 C 482.773438 623.484375 488.273438 623.484375 488.273438 627.152344 "/>
<path fill-rule="nonzero" fill="rgb(41.568627%, 23.921569%, 60.392157%)" fill-opacity="1" stroke-width="1" stroke-linecap="butt" stroke-linejoin="miter" stroke="rgb(41.568627%, 23.921569%, 60.392157%)" stroke-opacity="1" stroke-miterlimit="10" d="M 427.957031 716.308594 C 427.957031 719.976562 422.457031 719.976562 422.457031 716.308594 C 422.457031 712.640625 427.957031 712.640625 427.957031 716.308594 "/>
<path fill-rule="nonzero" fill="rgb(12.156863%, 47.058824%, 70.588235%)" fill-opacity="1" stroke-width="1" stroke-linecap="butt" stroke-linejoin="miter" stroke="rgb(12.156863%, 47.058824%, 70.588235%)" stroke-opacity="1" stroke-miterlimit="10" d="M 226.453125 64.878906 C 226.453125 68.546875 220.953125 68.546875 220.953125 64.878906 C 220.953125 61.210938 226.453125 61.210938 226.453125 64.878906 "/>
<path fill-rule="nonzero" fill="rgb(41.568627%, 23.921569%, 60.392157%)" fill-opacity="1" stroke-width="1" stroke-linecap="butt" stroke-linejoin="miter" stroke="rgb(41.568627%, 23.921569%, 60.392157%)" stroke-opacity="1" stroke-miterlimit="10" d="M 517.121094 504.421875 C 517.121094 508.089844 511.621094 508.089844 511.621094 504.421875 C 511.621094 500.753906 517.121094 500.753906 517.121094 504.421875 "/>
<path fill-rule="nonzero" fill="rgb(98.431373%, 60.392157%, 60%)" fill-opacity="1" stroke-width="1" stroke-linecap="butt" stroke-linejoin="miter" stroke="rgb(98.431373%, 60.392157%, 60%)" stroke-opacity="1" stroke-miterlimit="10" d="M 273.085938 337.640625 C 273.085938 341.308594 267.585938 341.308594 267.585938 337.640625 C 267.585938 333.972656 273.085938 333.972656 273.085938 337.640625 "/>
<path fill-rule="nonzero" fill="rgb(41.568627%, 23.921569%, 60.392157%)" fill-opacity="1" stroke-width="1" stroke-linecap="butt" stroke-linejoin="miter" stroke="rgb(41.568627%, 23.921569%, 60.392157%)" stroke-opacity="1" stroke-miterlimit="10" d="M 201.121094 692.175781 C 201.121094 695.84375 195.621094 695.84375 195.621094 692.175781 C 195.621094 688.507812 201.121094 688.507812 201.121094 692.175781 "/>
<path fill-rule="nonzero" fill="rgb(12.156863%, 47.058824%, 70.588235%)" fill-opacity="1" stroke-width="1" stroke-linecap="butt" stroke-linejoin="miter" stroke="rgb(12.156863%, 47.058824%, 70.588235%)" stroke-opacity="1" stroke-miterlimit="10" d="M 262.476562 105.382812 C 262.476562 109.714844 255.976562 109.714844 255.976562 105.382812 C 255.976562 101.050781 262.476562 101.050781 262.476562 105.382812 "/>
<path fill-rule="nonzero" fill="rgb(98.431373%, 60.392157%, 60%)" fill-opacity="1" stroke-width="1" stroke-linecap="butt" stroke-linejoin="miter" stroke="rgb(98.431373%, 60.392157%, 60%)" stroke-opacity="1" stroke-miterlimit="10" d="M 393.324219 292.085938 C 393.324219 295.753906 387.824219 295.753906 387.824219 292.085938 C 387.824219 288.421875 393.324219 288.421875 393.324219 292.085938 "/>
<path fill-rule="nonzero" fill="rgb(41.568627%, 23.921569%, 60.392157%)" fill-opacity="1" stroke-width="1" stroke-linecap="butt" stroke-linejoin="miter" stroke="rgb(41.568627%, 23.921569%, 60.392157%)" stroke-opacity="1" stroke-miterlimit="10" d="M 142.105469 628.4375 C 142.105469 632.101562 136.605469 632.101562 136.605469 628.4375 C 136.605469 624.769531 142.105469 624.769531 142.105469 628.4375 "/>
<path fill-rule="nonzero" fill="rgb(30.196078%, 68.627451%, 29.019608%)" fill-opacity="1" stroke-width="1" stroke-linecap="butt" stroke-linejoin="miter" stroke="rgb(30.196078%, 68.627451%, 29.019608%)" stroke-opacity="1" stroke-miterlimit="10" d="M 656.96875 237.597656 C 656.96875 241.261719 651.46875 241.261719 651.46875 237.597656 C 651.46875 233.929688 656.96875 233.929688 656.96875 237.597656 "/>
<path fill-rule="nonzero" fill="rgb(30.196078%, 68.627451%, 29.019608%)" fill-opacity="1" stroke-width="1" stroke-linecap="butt" stroke-linejoin="miter" stroke="rgb(30.196078%, 68.627451%, 29.019608%)" stroke-opacity="1" stroke-miterlimit="10" d="M 722.664062 257.433594 C 722.664062 261.101562 717.164062 261.101562 717.164062 257.433594 C 717.164062 253.769531 722.664062 253.769531 722.664062 257.433594 "/>
<path fill-rule="nonzero" fill="rgb(98.431373%, 60.392157%, 60%)" fill-opacity="1" stroke-width="1" stroke-linecap="butt" stroke-linejoin="miter" stroke="rgb(98.431373%, 60.392157%, 60%)" stroke-opacity="1" stroke-miterlimit="10" d="M 256.105469 495.871094 C 256.105469 499.539062 250.605469 499.539062 250.605469 495.871094 C 250.605469 492.207031 256.105469 492.207031 256.105469 495.871094 "/>
<path fill-rule="nonzero" fill="rgb(98.431373%, 60.392157%, 60%)" fill-opacity="1" stroke-width="1" stroke-linecap="butt" stroke-linejoin="miter" stroke="rgb(98.431373%, 60.392157%, 60%)" stroke-opacity="1" stroke-miterlimit="10" d="M 319.933594 278.050781 C 319.933594 281.71875 314.433594 281.71875 314.433594 278.050781 C 314.433594 274.386719 319.933594 274.386719 319.933594 278.050781 "/>
<path fill-rule="nonzero" fill="rgb(41.568627%, 23.921569%, 60.392157%)" fill-opacity="1" stroke-width="1" stroke-linecap="butt" stroke-linejoin="miter" stroke="rgb(41.568627%, 23.921569%, 60.392157%)" stroke-opacity="1" stroke-miterlimit="10" d="M 105.175781 546.242188 C 105.175781 549.910156 99.675781 549.910156 99.675781 546.242188 C 99.675781 542.578125 105.175781 542.578125 105.175781 546.242188 "/>
<path fill-rule="nonzero" fill="rgb(41.568627%, 23.921569%, 60.392157%)" fill-opacity="1" stroke-width="1" stroke-linecap="butt" stroke-linejoin="miter" stroke="rgb(41.568627%, 23.921569%, 60.392157%)" stroke-opacity="1" stroke-miterlimit="10" d="M 125.125 365.222656 C 125.125 368.886719 119.625 368.886719 119.625 365.222656 C 119.625 361.554688 125.125 361.554688 125.125 365.222656 "/>
<path fill-rule="nonzero" fill="rgb(41.568627%, 23.921569%, 60.392157%)" fill-opacity="1" stroke-width="1" stroke-linecap="butt" stroke-linejoin="miter" stroke="rgb(41.568627%, 23.921569%, 60.392157%)" stroke-opacity="1" stroke-miterlimit="10" d="M 113.046875 282.992188 C 113.046875 286.660156 107.546875 286.660156 107.546875 282.992188 C 107.546875 279.324219 113.046875 279.324219 113.046875 282.992188 "/>
<path fill-rule="nonzero" fill="rgb(41.568627%, 23.921569%, 60.392157%)" fill-opacity="1" stroke-width="1" stroke-linecap="butt" stroke-linejoin="miter" stroke="rgb(41.568627%, 23.921569%, 60.392157%)" stroke-opacity="1" stroke-miterlimit="10" d="M 55.023438 314.570312 C 55.023438 318.234375 49.523438 318.234375 49.523438 314.570312 C 49.523438 310.902344 55.023438 310.902344 55.023438 314.570312 "/>
<path fill-rule="nonzero" fill="rgb(12.156863%, 47.058824%, 70.588235%)" fill-opacity="1" stroke-width="1" stroke-linecap="butt" stroke-linejoin="miter" stroke="rgb(12.156863%, 47.058824%, 70.588235%)" stroke-opacity="1" stroke-miterlimit="10" d="M 401.820312 57.851562 C 401.820312 61.519531 396.320312 61.519531 396.320312 57.851562 C 396.320312 54.183594 401.820312 54.183594 401.820312 57.851562 "/>
<path fill-rule="nonzero" fill="rgb(30.196078%, 68.627451%, 29.019608%)" fill-opacity="1" stroke-width="1" stroke-linecap="butt" stroke-linejoin="miter" stroke="rgb(30.196078%, 68.627451%, 29.019608%)" stroke-opacity="1" stroke-miterlimit="10" d="M 752.75 387.082031 C 752.75 390.75 747.25 390.75 747.25 387.082031 C 747.25 383.417969 752.75 383.417969 752.75 387.082031 "/>
<path fill-rule="nonzero" fill="rgb(14.901961%, 14.901961%, 14.901961%)" fill-opacity="1" stroke-width="1" stroke-linecap="butt" stroke-linejoin="miter" stroke="rgb(14.901961%, 14.901961%, 14.901961%)" stroke-opacity="1" stroke-miterlimit="10" d="M 45.75 403.984375 L 50 395.484375 L 54.25 403.984375 Z M 45.75 403.984375 "/>
<path fill-rule="nonzero" fill="rgb(100%, 84.313725%, 0%)" fill-opacity="1" stroke-width="1" stroke-linecap="butt" stroke-linejoin="miter" stroke="rgb(100%, 84.313725%, 0%)" stroke-opacity="1" stroke-miterlimit="10" d="M 564.921875 255.929688 L 577.621094 255.929688 L 577.621094 268.628906 L 564.921875 268.628906 Z M 564.921875 255.929688 "/>
<path fill-rule="nonzero" fill="rgb(30.196078%, 68.627451%, 29.019608%)" fill-opacity="1" stroke-width="1" stroke-linecap="butt" stroke-linejoin="miter" stroke="rgb(30.196078%, 68.627451%, 29.019608%)" stroke-opacity="1" stroke-miterlimit="10" d="M 526.109375 219 C 526.109375 222.664062 520.609375 222.664062 520.609375 219 C 520.609375 215.332031 526.109375 215.332031 526.109375 219 "/>
<path fill-rule="nonzero" fill="rgb(30.196078%, 68.627451%, 29.019608%)" fill-opacity="1" stroke-width="1" stroke-linecap="butt" stroke-linejoin="miter" stroke="rgb(30.196078%, 68.627451%, 29.019608%)" stroke-opacity="1" stroke-miterlimit="10" d="M 591.898438 192.039062 C 591.898438 195.703125 586.398438 195.703125 586.398438 192.039062 C 586.398438 188.371094 591.898438 188.371094 591.898438 192.039062 "/>
<path fill-rule="nonzero" fill="rgb(14.901961%, 14.901961%, 14.901961%)" fill-opacity="1" stroke-width="1" stroke-linecap="butt" stroke-linejoin="miter" stroke="rgb(14.901961%, 14.901961%, 14.901961%)" stroke-opacity="1" stroke-miterlimit="10" d="M 738.976562 334.164062 L 743.226562 325.664062 L 747.476562 334.164062 Z M 738.976562 334.164062 "/>
<path fill-rule="nonzero" fill="rgb(41.568627%, 23.921569%, 60.392157%)" fill-opacity="1" stroke-width="1" stroke-linecap="butt" stroke-linejoin="miter" stroke="rgb(41.568627%, 23.921569%, 60.392157%)" stroke-opacity="1" stroke-miterlimit="10" d="M 272.765625 734.375 C 272.765625 738.042969 267.265625 738.042969 267.265625 734.375 C 267.265625 730.707031 272.765625 730.707031 272.765625 734.375 "/>
<path fill-rule="nonzero" fill="rgb(41.568627%, 23.921569%, 60.392157%)" fill-opacity="1" stroke-width="1" stroke-linecap="butt" stroke-linejoin="miter" stroke="rgb(41.568627%, 23.921569%, 60.392157%)" stroke-opacity="1" stroke-miterlimit="10" d="M 91.386719 450.605469 C 91.386719 454.9375 84.886719 454.9375 84.886719 450.605469 C 84.886719 446.273438 91.386719 446.273438 91.386719 450.605469 "/>
<path fill-rule="nonzero" fill="rgb(41.568627%, 23.921569%, 60.392157%)" fill-opacity="1" stroke-width="1" stroke-linecap="butt" stroke-linejoin="miter" stroke="rgb(41.568627%, 23.921569%, 60.392157%)" stroke-opacity="1" stroke-miterlimit="10" d="M 351.75 750 C 351.75 753.667969 346.25 753.667969 346.25 750 C 346.25 746.332031 351.75 746.332031 351.75 750 "/>
<path fill-rule="nonzero" fill="rgb(98.431373%, 60.392157%, 60%)" fill-opacity="1" stroke-width="1" stroke-linecap="butt" stroke-linejoin="miter" stroke="rgb(98.431373%, 60.392157%, 60%)" stroke-opacity="1" stroke-miterlimit="10" d="M 458.949219 343.726562 C 458.949219 347.394531 453.449219 347.394531 453.449219 343.726562 C 453.449219 340.058594 458.949219 340.058594 458.949219 343.726562 "/>
<path fill-rule="nonzero" fill="rgb(98.431373%, 60.392157%, 60%)" fill-opacity="1" stroke-width="1" stroke-linecap="butt" stroke-linejoin="miter" stroke="rgb(98.431373%, 60.392157%, 60%)" stroke-opacity="1" stroke-miterlimit="10" d="M 263.765625 417.746094 C 263.765625 421.414062 258.265625 421.414062 258.265625 417.746094 C 258.265625 414.078125 263.765625 414.078125 263.765625 417.746094 "/>
<path fill-rule="nonzero" fill="rgb(14.901961%, 14.901961%, 14.901961%)" fill-opacity="1" stroke-width="1" stroke-linecap="butt" stroke-linejoin="miter" stroke="rgb(14.901961%, 14.901961%, 14.901961%)" stroke-opacity="1" stroke-miterlimit="10" d="M 244.371094 570.3125 L 248.121094 562.8125 L 251.871094 570.3125 Z M 244.371094 570.3125 "/>
<path fill-rule="nonzero" fill="rgb(12.156863%, 47.058824%, 70.588235%)" fill-opacity="1" stroke-width="1" stroke-linecap="butt" stroke-linejoin="miter" stroke="rgb(12.156863%, 47.058824%, 70.588235%)" stroke-opacity="1" stroke-miterlimit="10" d="M 334.785156 79.9375 C 334.785156 83.605469 329.285156 83.605469 329.285156 79.9375 C 329.285156 76.273438 334.785156 76.273438 334.785156 79.9375 "/>
<path fill-rule="nonzero" fill="rgb(12.156863%, 47.058824%, 70.588235%)" fill-opacity="1" stroke-width="1" stroke-linecap="butt" stroke-linejoin="miter" stroke="rgb(12.156863%, 47.058824%, 70.588235%)" stroke-opacity="1" stroke-miterlimit="10" d="M 470.316406 50 C 470.316406 53.667969 464.816406 53.667969 464.816406 50 C 464.816406 46.332031 470.316406 46.332031 470.316406 50 "/>
<path fill-rule="nonzero" fill="rgb(14.901961%, 14.901961%, 14.901961%)" fill-opacity="1" stroke-width="1" stroke-linecap="butt" stroke-linejoin="miter" stroke="rgb(14.901961%, 14.901961%, 14.901961%)" stroke-opacity="1" stroke-miterlimit="10" d="M 529.363281 55.503906 L 533.113281 48.003906 L 536.863281 55.503906 Z M 529.363281 55.503906 "/>
</svg>
