<?xml version="1.0" encoding="UTF-8"?>
<svg xmlns="http://www.w3.org/2000/svg" xmlns:xlink="http://www.w3.org/1999/xlink" width="800" height="800" viewBox="0 0 800 800">
<rect x="-80" y="-80" width="960" height="960" fill="rgb(100%, 100%, 100%)" fill-opacity="1"/>
<path fill="none" stroke-width="2.5" stroke-linecap="butt" stroke-linejoin="miter" stroke="rgb(30.196078%, 68.627451%, 29.019608%)" stroke-opacity="1" stroke-miterlimit="10" d="M 176.953125 602.371094 C 174.960938 604.503906 173.085938 607.578125 174.371094 609.929688 "/>
<path fill-rule="nonzero" fill="rgb(30.196078%, 68.627451%, 29.019608%)" fill-opacity="1" d="M 177.792969 616.1875 L 172.335938 611.039062 L 176.402344 608.816406 L 177.792969 616.1875 "/>
<path fill="none" stroke-width="3.5" stroke-linecap="butt" stroke-linejoin="miter" stroke="rgb(70.196078%, 70.196078%, 70.196078%)" stroke-opacity="1" stroke-miterlimit="10" d="M 176.953125 602.371094 C 176.621094 601.304688 174.953125 600.027344 174.925781 600.078125 "/>
<path fill-rule="nonzero" fill="rgb(70.196078%, 70.196078%, 70.196078%)" fill-opacity="1" d="M 171.660156 606.417969 L 172.867188 599.015625 L 176.988281 601.140625 L 171.660156 606.417969 "/>
<path fill="none" stroke-width="2.5" stroke-linecap="butt" stroke-linejoin="miter" stroke="rgb(70.196078%, 70.196078%, 70.196078%)" stroke-opacity="1" stroke-miterlimit="10" d="M 176.953125 602.371094 C 171.878906 612.773438 170.515625 623.878906 175.96875 634.023438 "/>
<path fill-rule="nonzero" fill="rgb(70.196078%, 70.196078%, 70.196078%)" fill-opacity="1" d="M 179.34375 640.304688 L 173.925781 635.121094 L 178.011719 632.925781 L 179.34375 640.304688 "/>
<path fill="none" stroke-width="1.5" stroke-linecap="butt" stroke-linejoin="miter" stroke="rgb(30.196078%, 68.627451%, 29.019608%)" stroke-opacity="1" stroke-miterlimit="10" d="M 180.984375 622.015625 C 182.9375 620.070312 184.855469 617.175781 183.675781 614.964844 "/>
<path fill-rule="nonzero" fill="rgb(30.196078%, 68.627451%, 29.019608%)" fill-opacity="1" d="M 180.320312 608.671875 L 185.722656 613.875 L 181.632812 616.058594 L 180.320312 608.671875 "/>
<path fill="none" stroke-width="1.5" stroke-linecap="butt" stroke-linejoin="miter" stroke="rgb(98.431373%, 60.392157%, 60%)" stroke-opacity="1" stroke-miterlimit="10" d="M 184.515625 686.152344 C 179.628906 694.71875 177.746094 704.15625 181.941406 713.011719 "/>
<path fill-rule="nonzero" fill="rgb(98.431373%, 60.392157%, 60%)" fill-opacity="1" d="M 184.992188 719.457031 L 179.84375 714.003906 L 184.035156 712.019531 L 184.992188 719.457031 "/>
<path fill="none" stroke-width="1.5" stroke-linecap="butt" stroke-linejoin="miter" stroke="rgb(12.156863%, 47.058824%, 70.588235%)" stroke-opacity="1" stroke-miterlimit="10" d="M 59.789062 395.652344 C 57.359375 395.777344 54.289062 396.578125 53.871094 398.695312 "/>
<path fill-rule="nonzero" fill="rgb(12.156863%, 47.058824%, 70.588235%)" fill-opacity="1" d="M 52.492188 405.695312 L 51.597656 398.246094 L 56.144531 399.144531 L 52.492188 405.695312 "/>
<path fill="none" stroke-width="2.5" stroke-linecap="butt" stroke-linejoin="miter" stroke="rgb(12.156863%, 47.058824%, 70.588235%)" stroke-opacity="1" stroke-miterlimit="10" d="M 59.789062 395.652344 C 60.546875 394.511719 61.132812 392.230469 60.398438 391.960938 "/>
<path fill-rule="nonzero" fill="rgb(12.156863%, 47.058824%, 70.588235%)" fill-opacity="1" d="M 53.695312 389.53125 L 61.1875 389.785156 L 59.609375 394.140625 L 53.695312 389.53125 "/>
<path fill="none" stroke-width="1.5" stroke-linecap="butt" stroke-linejoin="miter" stroke="rgb(12.156863%, 47.058824%, 70.588235%)" stroke-opacity="1" stroke-miterlimit="10" d="M 51.960938 408.394531 C 54.105469 408.496094 57.027344 408.023438 57.425781 406.242188 "/>
<path fill-rule="nonzero" fill="rgb(12.156863%, 47.058824%, 70.588235%)" fill-opacity="1" d="M 58.980469 399.28125 L 59.6875 406.746094 L 55.164062 405.738281 L 58.980469 399.28125 "/>
<path fill="none" stroke-width="4.5" stroke-linecap="butt" stroke-linejoin="miter" stroke="rgb(70.196078%, 70.196078%, 70.196078%)" stroke-opacity="1" stroke-miterlimit="10" d="M 165.800781 497.902344 C 159.628906 511.859375 158.695312 526.347656 166.078125 539.652344 "/>
<path fill-rule="nonzero" fill="rgb(70.196078%, 70.196078%, 70.196078%)" fill-opacity="1" d="M 169.539062 545.886719 L 164.050781 540.777344 L 168.105469 538.527344 L 169.539062 545.886719 "/>
<path fill="none" stroke-width="3.5" stroke-linecap="butt" stroke-linejoin="miter" stroke="rgb(70.196078%, 70.196078%, 70.196078%)" stroke-opacity="1" stroke-miterlimit="10" d="M 169.363281 610.871094 C 168.90625 612.070312 169.917969 613.816406 169.574219 614.375 "/>
<path fill-rule="nonzero" fill="rgb(70.196078%, 70.196078%, 70.196078%)" fill-opacity="1" d="M 173.308594 608.300781 L 171.546875 615.589844 L 167.597656 613.160156 L 173.308594 608.300781 "/>
<path fill="none" stroke-width="4.5" stroke-linecap="butt" stroke-linejoin="miter" stroke="rgb(70.196078%, 70.196078%, 70.196078%)" stroke-opacity="1" stroke-miterlimit="10" d="M 171.925781 550.1875 C 165.519531 563.210938 163.992188 576.988281 170.570312 589.871094 "/>
<path fill-rule="nonzero" fill="rgb(70.196078%, 70.196078%, 70.196078%)" fill-opacity="1" d="M 173.8125 596.222656 L 168.503906 590.925781 L 172.632812 588.816406 L 173.8125 596.222656 "/>
<path fill="none" stroke-width="1.5" stroke-linecap="butt" stroke-linejoin="miter" stroke="rgb(98.431373%, 60.392157%, 60%)" stroke-opacity="1" stroke-miterlimit="10" d="M 186.1875 721.980469 C 182.304688 727.433594 180.054688 733.863281 182.617188 739.945312 "/>
<path fill-rule="nonzero" fill="rgb(98.431373%, 60.392157%, 60%)" fill-opacity="1" d="M 185.382812 746.519531 L 180.480469 740.84375 L 184.75 739.042969 L 185.382812 746.519531 "/>
<path fill="none" stroke-width="1.5" stroke-linecap="butt" stroke-linejoin="miter" stroke="rgb(12.156863%, 47.058824%, 70.588235%)" stroke-opacity="1" stroke-miterlimit="10" d="M 50 388.191406 C 49.242188 389.328125 48.65625 391.613281 49.390625 391.878906 "/>
<path fill-rule="nonzero" fill="rgb(12.156863%, 47.058824%, 70.588235%)" fill-opacity="1" d="M 56.097656 394.3125 L 48.601562 394.058594 L 50.179688 389.699219 L 56.097656 394.3125 "/>
<path fill="none" stroke-width="5.5" stroke-linecap="butt" stroke-linejoin="miter" stroke="rgb(70.196078%, 70.196078%, 70.196078%)" stroke-opacity="1" stroke-miterlimit="10" d="M 207.976562 213.828125 C 198.3125 221.179688 191.855469 230.929688 192.121094 243.011719 "/>
<path fill-rule="nonzero" fill="rgb(70.196078%, 70.196078%, 70.196078%)" fill-opacity="1" d="M 192.273438 250.140625 L 189.800781 243.0625 L 194.4375 242.960938 L 192.273438 250.140625 "/>
<path fill="none" stroke-width="1.5" stroke-linecap="butt" stroke-linejoin="miter" stroke="rgb(12.156863%, 47.058824%, 70.588235%)" stroke-opacity="1" stroke-miterlimit="10" d="M 73.457031 378.769531 C 72.332031 380.007812 71.117188 382.296875 72.046875 383.125 "/>
<path fill-rule="nonzero" fill="rgb(12.156863%, 47.058824%, 70.588235%)" fill-opacity="1" d="M 77.375 387.863281 L 70.507812 384.855469 L 73.585938 381.390625 L 77.375 387.863281 "/>
<path fill="none" stroke-width="1.5" stroke-linecap="butt" stroke-linejoin="miter" stroke="rgb(12.156863%, 47.058824%, 70.588235%)" stroke-opacity="1" stroke-miterlimit="10" d="M 125.890625 390.429688 C 121.707031 386.976562 116.53125 384.617188 111.574219 386.507812 "/>
<path fill-rule="nonzero" fill="rgb(12.156863%, 47.058824%, 70.588235%)" fill-opacity="1" d="M 104.910156 389.054688 L 110.75 384.34375 L 112.402344 388.675781 L 104.910156 389.054688 "/>
<path fill="none" stroke-width="1.5" stroke-linecap="butt" stroke-linejoin="miter" stroke="rgb(12.156863%, 47.058824%, 70.588235%)" stroke-opacity="1" stroke-miterlimit="10" d="M 156.460938 366.863281 C 152.265625 369.75 148.707031 373.84375 149.242188 378.769531 "/>
<path fill-rule="nonzero" fill="rgb(12.156863%, 47.058824%, 70.588235%)" fill-opacity="1" d="M 150.007812 385.863281 L 146.9375 379.019531 L 151.542969 378.519531 L 150.007812 385.863281 "/>
<path fill="none" stroke-width="1.5" stroke-linecap="butt" stroke-linejoin="miter" stroke="rgb(41.568627%, 23.921569%, 60.392157%)" stroke-opacity="1" stroke-miterlimit="10" d="M 181.664062 644.621094 C 184.472656 641.871094 186.871094 638.132812 185.582031 634.605469 "/>
<path fill-rule="nonzero" fill="rgb(41.568627%, 23.921569%, 60.392157%)" fill-opacity="1" d="M 183.136719 627.90625 L 187.761719 633.808594 L 183.40625 635.402344 L 183.136719 627.90625 "/>
<path fill="none" stroke-width="1.5" stroke-linecap="butt" stroke-linejoin="miter" stroke="rgb(98.431373%, 60.392157%, 60%)" stroke-opacity="1" stroke-miterlimit="10" d="M 181.664062 644.621094 C 176.21875 655.335938 174.691406 666.792969 180.105469 677.460938 "/>
<path fill-rule="nonzero" fill="rgb(98.431373%, 60.392157%, 60%)" fill-opacity="1" d="M 183.332031 683.824219 L 178.039062 678.511719 L 182.171875 676.414062 L 183.332031 683.824219 "/>
<path fill="none" stroke-width="1.5" stroke-linecap="butt" stroke-linejoin="miter" stroke="rgb(12.156863%, 47.058824%, 70.588235%)" stroke-opacity="1" stroke-miterlimit="10" d="M 150.585938 391.160156 C 146.078125 387.464844 140.554688 385.019531 135.1875 387 "/>
<path fill-rule="nonzero" fill="rgb(12.156863%, 47.058824%, 70.588235%)" fill-opacity="1" d="M 128.496094 389.46875 L 134.386719 384.824219 L 135.992188 389.171875 L 128.496094 389.46875 "/>
<path fill="none" stroke-width="4.5" stroke-linecap="butt" stroke-linejoin="miter" stroke="rgb(70.196078%, 70.196078%, 70.196078%)" stroke-opacity="1" stroke-miterlimit="10" d="M 150.585938 391.160156 C 144.691406 405.925781 144.304688 421.015625 152.457031 434.613281 "/>
<path fill-rule="nonzero" fill="rgb(70.196078%, 70.196078%, 70.196078%)" fill-opacity="1" d="M 156.125 440.730469 L 150.46875 435.804688 L 154.445312 433.421875 L 156.125 440.730469 "/>
<path fill="none" stroke-width="5.5" stroke-linecap="butt" stroke-linejoin="miter" stroke="rgb(70.196078%, 70.196078%, 70.196078%)" stroke-opacity="1" stroke-miterlimit="10" d="M 242.277344 141.667969 C 233.453125 146.582031 226.785156 153.855469 225.777344 163.84375 "/>
<path fill-rule="nonzero" fill="rgb(70.196078%, 70.196078%, 70.196078%)" fill-opacity="1" d="M 225.058594 170.9375 L 223.46875 163.609375 L 228.082031 164.074219 L 225.058594 170.9375 "/>
<path fill="none" stroke-width="1.5" stroke-linecap="butt" stroke-linejoin="miter" stroke="rgb(12.156863%, 47.058824%, 70.588235%)" stroke-opacity="1" stroke-miterlimit="10" d="M 79.785156 390.003906 C 76.164062 388.058594 71.75 386.875 68.566406 389.210938 "/>
<path fill-rule="nonzero" fill="rgb(12.156863%, 47.058824%, 70.588235%)" fill-opacity="1" d="M 62.816406 393.433594 L 67.195312 387.34375 L 69.9375 391.082031 L 62.816406 393.433594 "/>
<path fill="none" stroke-width="1.5" stroke-linecap="butt" stroke-linejoin="miter" stroke="rgb(12.156863%, 47.058824%, 70.588235%)" stroke-opacity="1" stroke-miterlimit="10" d="M 79.785156 390.003906 C 80.882812 388.582031 81.996094 386.140625 80.929688 385.222656 "/>
<path fill-rule="nonzero" fill="rgb(12.156863%, 47.058824%, 70.588235%)" fill-opacity="1" d="M 75.53125 380.558594 L 82.441406 383.46875 L 79.414062 386.976562 L 75.53125 380.558594 "/>
<path fill="none" stroke-width="1.5" stroke-linecap="butt" stroke-linejoin="miter" stroke="rgb(12.156863%, 47.058824%, 70.588235%)" stroke-opacity="1" stroke-miterlimit="10" d="M 102.316406 390.046875 C 98.609375 386.855469 93.921875 384.53125 89.484375 386.25 "/>
<path fill-rule="nonzero" fill="rgb(12.156863%, 47.058824%, 70.588235%)" fill-opacity="1" d="M 82.832031 388.824219 L 88.648438 384.089844 L 90.320312 388.410156 L 82.832031 388.824219 "/>
<path fill="none" stroke-width="1.5" stroke-linecap="butt" stroke-linejoin="miter" stroke="rgb(12.156863%, 47.058824%, 70.588235%)" stroke-opacity="1" stroke-miterlimit="10" d="M 163.359375 345.796875 C 159.179688 348.394531 155.550781 352.191406 155.847656 356.972656 "/>
<path fill-rule="nonzero" fill="rgb(12.156863%, 47.058824%, 70.588235%)" fill-opacity="1" d="M 156.289062 364.09375 L 153.535156 357.117188 L 158.160156 356.828125 L 156.289062 364.09375 "/>
<path fill="none" stroke-width="4.5" stroke-linecap="butt" stroke-linejoin="miter" stroke="rgb(70.196078%, 70.196078%, 70.196078%)" stroke-opacity="1" stroke-miterlimit="10" d="M 163.359375 345.796875 C 153.714844 354.644531 147.832031 365.738281 149.234375 378.695312 "/>
<path fill-rule="nonzero" fill="rgb(70.196078%, 70.196078%, 70.196078%)" fill-opacity="1" d="M 150.003906 385.785156 L 146.929688 378.945312 L 151.539062 378.445312 L 150.003906 385.785156 "/>
<path fill="none" stroke-width="5.5" stroke-linecap="butt" stroke-linejoin="miter" stroke="rgb(70.196078%, 70.196078%, 70.196078%)" stroke-opacity="1" stroke-miterlimit="10" d="M 177.621094 299.058594 C 167.289062 308.335938 161 320.023438 162.261719 333.804688 "/>
<path fill-rule="nonzero" fill="rgb(70.196078%, 70.196078%, 70.196078%)" fill-opacity="1" d="M 162.910156 340.90625 L 159.953125 334.015625 L 164.570312 333.589844 L 162.910156 340.90625 "/>
<path fill="none" stroke-width="5.5" stroke-linecap="butt" stroke-linejoin="miter" stroke="rgb(70.196078%, 70.196078%, 70.196078%)" stroke-opacity="1" stroke-miterlimit="10" d="M 192.382812 255.042969 C 182.414062 263.382812 176.074219 274.125 176.875 287.042969 "/>
<path fill-rule="nonzero" fill="rgb(70.196078%, 70.196078%, 70.196078%)" fill-opacity="1" d="M 177.316406 294.164062 L 174.5625 287.1875 L 179.1875 286.898438 L 177.316406 294.164062 "/>
<path fill="none" stroke-width="4.5" stroke-linecap="butt" stroke-linejoin="miter" stroke="rgb(70.196078%, 70.196078%, 70.196078%)" stroke-opacity="1" stroke-miterlimit="10" d="M 158.65625 444.949219 C 152.644531 459.289062 151.996094 474.054688 159.761719 487.472656 "/>
<path fill-rule="nonzero" fill="rgb(70.196078%, 70.196078%, 70.196078%)" fill-opacity="1" d="M 163.335938 493.644531 L 157.757812 488.632812 L 161.769531 486.308594 L 163.335938 493.644531 "/>
<path fill="none" stroke-width="5.5" stroke-linecap="butt" stroke-linejoin="miter" stroke="rgb(70.196078%, 70.196078%, 70.196078%)" stroke-opacity="1" stroke-miterlimit="10" d="M 261.238281 112.320312 C 253.082031 115.691406 246.414062 121.316406 244.671875 129.890625 "/>
<path fill-rule="nonzero" fill="rgb(70.196078%, 70.196078%, 70.196078%)" fill-opacity="1" d="M 243.25 136.882812 L 242.402344 129.429688 L 246.941406 130.355469 L 243.25 136.882812 "/>
<path fill="none" stroke-width="5.5" stroke-linecap="butt" stroke-linejoin="miter" stroke="rgb(70.196078%, 70.196078%, 70.196078%)" stroke-opacity="1" stroke-miterlimit="10" d="M 224.5625 175.804688 C 215.257812 182.039062 208.679688 190.667969 208.339844 201.804688 "/>
<path fill-rule="nonzero" fill="rgb(70.196078%, 70.196078%, 70.196078%)" fill-opacity="1" d="M 208.125 208.933594 L 206.023438 201.734375 L 210.65625 201.875 L 208.125 208.933594 "/>
<path fill="none" stroke-width="5.5" stroke-linecap="butt" stroke-linejoin="miter" stroke="rgb(70.196078%, 70.196078%, 70.196078%)" stroke-opacity="1" stroke-miterlimit="10" d="M 302.757812 70.816406 C 296.519531 70.960938 290.378906 72.847656 287.363281 78.179688 "/>
<path fill-rule="nonzero" fill="rgb(70.196078%, 70.196078%, 70.196078%)" fill-opacity="1" d="M 283.855469 84.390625 L 285.347656 77.039062 L 289.382812 79.320312 L 283.855469 84.390625 "/>
<path fill="none" stroke-width="5.5" stroke-linecap="butt" stroke-linejoin="miter" stroke="rgb(70.196078%, 70.196078%, 70.196078%)" stroke-opacity="1" stroke-miterlimit="10" d="M 392.097656 52.863281 C 389.347656 49.445312 385.53125 46.503906 381.398438 47.417969 "/>
<path fill-rule="nonzero" fill="rgb(70.196078%, 70.196078%, 70.196078%)" fill-opacity="1" d="M 374.433594 48.957031 L 380.898438 45.152344 L 381.898438 49.679688 L 374.433594 48.957031 "/>
<path fill="none" stroke-width="5.5" stroke-linecap="butt" stroke-linejoin="miter" stroke="rgb(70.196078%, 70.196078%, 70.196078%)" stroke-opacity="1" stroke-miterlimit="10" d="M 281.464844 88.621094 C 274.195312 90.3125 267.691406 94.050781 265.234375 101 "/>
<path fill-rule="nonzero" fill="rgb(70.196078%, 70.196078%, 70.196078%)" fill-opacity="1" d="M 262.859375 107.726562 L 263.050781 100.230469 L 267.421875 101.773438 L 262.859375 107.726562 "/>
<path fill="none" stroke-width="5.5" stroke-linecap="butt" stroke-linejoin="miter" stroke="rgb(70.196078%, 70.196078%, 70.196078%)" stroke-opacity="1" stroke-miterlimit="10" d="M 414.242188 59.945312 C 411.976562 55.90625 408.539062 52.242188 404.054688 52.410156 "/>
<path fill-rule="nonzero" fill="rgb(70.196078%, 70.196078%, 70.196078%)" fill-opacity="1" d="M 396.929688 52.679688 L 403.96875 50.09375 L 404.144531 54.726562 L 396.929688 52.679688 "/>
<path fill="none" stroke-width="5.5" stroke-linecap="butt" stroke-linejoin="miter" stroke="rgb(70.196078%, 70.196078%, 70.196078%)" stroke-opacity="1" stroke-miterlimit="10" d="M 369.714844 50 C 366.308594 47.21875 361.957031 45.132812 358.09375 46.886719 "/>
<path fill-rule="nonzero" fill="rgb(70.196078%, 70.196078%, 70.196078%)" fill-opacity="1" d="M 351.597656 49.839844 L 357.132812 44.777344 L 359.050781 48.996094 L 351.597656 49.839844 "/>
<path fill="none" stroke-width="5.5" stroke-linecap="butt" stroke-linejoin="miter" stroke="rgb(70.196078%, 70.196078%, 70.196078%)" stroke-opacity="1" stroke-miterlimit="10" d="M 347.199219 51.835938 C 342.972656 49.792969 337.996094 48.75 334.355469 51.484375 "/>
<path fill-rule="nonzero" fill="rgb(70.196078%, 70.196078%, 70.196078%)" fill-opacity="1" d="M 328.648438 55.765625 L 332.964844 49.628906 L 335.746094 53.335938 L 328.648438 55.765625 "/>
<path fill="none" stroke-width="5.5" stroke-linecap="butt" stroke-linejoin="miter" stroke="rgb(70.196078%, 70.196078%, 70.196078%)" stroke-opacity="1" stroke-miterlimit="10" d="M 324.78125 58.667969 C 319.589844 57.570312 313.984375 57.84375 310.597656 61.757812 "/>
<path fill-rule="nonzero" fill="rgb(70.196078%, 70.196078%, 70.196078%)" fill-opacity="1" d="M 305.929688 67.152344 L 308.84375 60.242188 L 312.347656 63.277344 L 305.929688 67.152344 "/>
<path fill="none" stroke-width="5.5" stroke-linecap="butt" stroke-linejoin="miter" stroke="rgb(70.196078%, 70.196078%, 70.196078%)" stroke-opacity="1" stroke-miterlimit="10" d="M 436.273438 70.203125 C 434.292969 65.609375 431.023438 61.375 426.171875 60.960938 "/>
<path fill-rule="nonzero" fill="rgb(70.196078%, 70.196078%, 70.196078%)" fill-opacity="1" d="M 419.066406 60.355469 L 426.371094 58.652344 L 425.976562 63.273438 L 419.066406 60.355469 "/>
<path fill="none" stroke-width="5.5" stroke-linecap="butt" stroke-linejoin="miter" stroke="rgb(70.196078%, 70.196078%, 70.196078%)" stroke-opacity="1" stroke-miterlimit="10" d="M 458.164062 82.808594 C 456.390625 77.765625 453.226562 73.097656 448.082031 72.21875 "/>
<path fill-rule="nonzero" fill="rgb(70.196078%, 70.196078%, 70.196078%)" fill-opacity="1" d="M 441.050781 71.019531 L 448.472656 69.933594 L 447.691406 74.503906 L 441.050781 71.019531 "/>
<path fill="none" stroke-width="5.5" stroke-linecap="butt" stroke-linejoin="miter" stroke="rgb(70.196078%, 70.196078%, 70.196078%)" stroke-opacity="1" stroke-miterlimit="10" d="M 705.898438 233.355469 C 704.785156 230.175781 702.71875 226.800781 699.554688 226.671875 "/>
<path fill-rule="nonzero" fill="rgb(70.196078%, 70.196078%, 70.196078%)" fill-opacity="1" d="M 692.425781 226.378906 L 699.648438 224.355469 L 699.457031 228.988281 L 692.425781 226.378906 "/>
<path fill="none" stroke-width="5.5" stroke-linecap="butt" stroke-linejoin="miter" stroke="rgb(70.196078%, 70.196078%, 70.196078%)" stroke-opacity="1" stroke-miterlimit="10" d="M 479.886719 97.078125 C 478.277344 91.710938 475.1875 86.71875 469.84375 85.492188 "/>
<path fill-rule="nonzero" fill="rgb(70.196078%, 70.196078%, 70.196078%)" fill-opacity="1" d="M 462.890625 83.894531 L 470.363281 83.230469 L 469.324219 87.75 L 462.890625 83.894531 "/>
<path fill="none" stroke-width="5.5" stroke-linecap="butt" stroke-linejoin="miter" stroke="rgb(70.196078%, 70.196078%, 70.196078%)" stroke-opacity="1" stroke-miterlimit="10" d="M 544.113281 143.929688 C 542.722656 138.324219 539.792969 133.070312 534.359375 131.503906 "/>
<path fill-rule="nonzero" fill="rgb(70.196078%, 70.196078%, 70.196078%)" fill-opacity="1" d="M 527.503906 129.53125 L 535 129.277344 L 533.714844 133.734375 L 527.503906 129.53125 "/>
<path fill="none" stroke-width="5.5" stroke-linecap="butt" stroke-linejoin="miter" stroke="rgb(70.196078%, 70.196078%, 70.196078%)" stroke-opacity="1" stroke-miterlimit="10" d="M 501.441406 112.394531 C 499.949219 106.824219 496.921875 101.632812 491.464844 100.171875 "/>
<path fill-rule="nonzero" fill="rgb(70.196078%, 70.196078%, 70.196078%)" fill-opacity="1" d="M 484.574219 98.332031 L 492.0625 97.933594 L 490.867188 102.414062 L 484.574219 98.332031 "/>
<path fill="none" stroke-width="5.5" stroke-linecap="butt" stroke-linejoin="miter" stroke="rgb(70.196078%, 70.196078%, 70.196078%)" stroke-opacity="1" stroke-miterlimit="10" d="M 522.839844 128.191406 C 521.421875 122.542969 518.449219 117.261719 512.964844 115.695312 "/>
<path fill-rule="nonzero" fill="rgb(70.196078%, 70.196078%, 70.196078%)" fill-opacity="1" d="M 506.105469 113.730469 L 513.601562 113.464844 L 512.324219 117.921875 L 506.105469 113.730469 "/>
<path fill="none" stroke-width="5.5" stroke-linecap="butt" stroke-linejoin="miter" stroke="rgb(70.196078%, 70.196078%, 70.196078%)" stroke-opacity="1" stroke-miterlimit="10" d="M 565.285156 159.125 C 563.882812 153.671875 560.984375 148.542969 555.671875 147.089844 "/>
<path fill-rule="nonzero" fill="rgb(70.196078%, 70.196078%, 70.196078%)" fill-opacity="1" d="M 548.789062 145.210938 L 556.28125 144.855469 L 555.058594 149.324219 L 548.789062 145.210938 "/>
<path fill="none" stroke-width="5.5" stroke-linecap="butt" stroke-linejoin="miter" stroke="rgb(70.196078%, 70.196078%, 70.196078%)" stroke-opacity="1" stroke-miterlimit="10" d="M 607.320312 186.425781 C 605.835938 181.503906 602.992188 176.835938 598.089844 175.816406 "/>
<path fill-rule="nonzero" fill="rgb(70.196078%, 70.196078%, 70.196078%)" fill-opacity="1" d="M 591.105469 174.359375 L 598.5625 173.546875 L 597.617188 178.082031 L 591.105469 174.359375 "/>
<path fill="none" stroke-width="5.5" stroke-linecap="butt" stroke-linejoin="miter" stroke="rgb(70.196078%, 70.196078%, 70.196078%)" stroke-opacity="1" stroke-miterlimit="10" d="M 586.363281 173.375 C 584.925781 168.15625 582.050781 163.234375 576.917969 161.976562 "/>
<path fill-rule="nonzero" fill="rgb(70.196078%, 70.196078%, 70.196078%)" fill-opacity="1" d="M 569.992188 160.277344 L 577.472656 159.726562 L 576.367188 164.226562 L 569.992188 160.277344 "/>
<path fill="none" stroke-width="5.5" stroke-linecap="butt" stroke-linejoin="miter" stroke="rgb(70.196078%, 70.196078%, 70.196078%)" stroke-opacity="1" stroke-miterlimit="10" d="M 738 244.800781 C 737.765625 242.738281 736.828125 239.976562 735.09375 239.925781 "/>
<path fill-rule="nonzero" fill="rgb(70.196078%, 70.196078%, 70.196078%)" fill-opacity="1" d="M 727.964844 239.710938 L 735.164062 237.609375 L 735.023438 242.242188 L 727.964844 239.710938 "/>
<path fill="none" stroke-width="5.5" stroke-linecap="butt" stroke-linejoin="miter" stroke="rgb(70.196078%, 70.196078%, 70.196078%)" stroke-opacity="1" stroke-miterlimit="10" d="M 668.394531 217.984375 C 666.949219 214.058594 664.390625 210.183594 660.386719 209.808594 "/>
<path fill-rule="nonzero" fill="rgb(70.196078%, 70.196078%, 70.196078%)" fill-opacity="1" d="M 653.285156 209.136719 L 660.601562 207.5 L 660.167969 212.113281 L 653.285156 209.136719 "/>
<path fill="none" stroke-width="5.5" stroke-linecap="butt" stroke-linejoin="miter" stroke="rgb(70.196078%, 70.196078%, 70.196078%)" stroke-opacity="1" stroke-miterlimit="10" d="M 628.066406 198.191406 C 626.550781 193.589844 623.761719 189.191406 619.125 188.410156 "/>
<path fill-rule="nonzero" fill="rgb(70.196078%, 70.196078%, 70.196078%)" fill-opacity="1" d="M 612.089844 187.230469 L 619.507812 186.125 L 618.742188 190.695312 L 612.089844 187.230469 "/>
<path fill="none" stroke-width="5.5" stroke-linecap="butt" stroke-linejoin="miter" stroke="rgb(70.196078%, 70.196078%, 70.196078%)" stroke-opacity="1" stroke-miterlimit="10" d="M 648.476562 208.683594 C 646.972656 204.417969 644.273438 200.285156 639.933594 199.726562 "/>
<path fill-rule="nonzero" fill="rgb(70.196078%, 70.196078%, 70.196078%)" fill-opacity="1" d="M 632.859375 198.8125 L 640.230469 197.425781 L 639.636719 202.023438 L 632.859375 198.8125 "/>
<path fill="none" stroke-width="5.5" stroke-linecap="butt" stroke-linejoin="miter" stroke="rgb(70.196078%, 70.196078%, 70.196078%)" stroke-opacity="1" stroke-miterlimit="10" d="M 687.621094 226.179688 C 686.300781 222.609375 683.941406 218.988281 680.324219 218.753906 "/>
<path fill-rule="nonzero" fill="rgb(70.196078%, 70.196078%, 70.196078%)" fill-opacity="1" d="M 673.203125 218.292969 L 680.472656 216.441406 L 680.171875 221.066406 L 673.203125 218.292969 "/>
<path fill="none" stroke-width="5.5" stroke-linecap="butt" stroke-linejoin="miter" stroke="rgb(70.196078%, 70.196078%, 70.196078%)" stroke-opacity="1" stroke-miterlimit="10" d="M 750 249.070312 C 750.558594 247.953125 750.683594 245.691406 750.140625 245.652344 "/>
<path fill-rule="nonzero" fill="rgb(70.196078%, 70.196078%, 70.196078%)" fill-opacity="1" d="M 743.023438 245.152344 L 750.300781 243.339844 L 749.976562 247.964844 L 743.023438 245.152344 "/>
<path fill="none" stroke-width="5.5" stroke-linecap="butt" stroke-linejoin="miter" stroke="rgb(70.196078%, 70.196078%, 70.196078%)" stroke-opacity="1" stroke-miterlimit="10" d="M 722.882812 239.5625 C 722.082031 236.835938 720.425781 233.726562 717.828125 233.660156 "/>
<path fill-rule="nonzero" fill="rgb(70.196078%, 70.196078%, 70.196078%)" fill-opacity="1" d="M 710.695312 233.476562 L 717.886719 231.34375 L 717.769531 235.976562 L 710.695312 233.476562 "/>
<path fill-rule="nonzero" fill="rgb(14.901961%, 14.901961%, 14.901961%)" fill-opacity="1" stroke-width="1" stroke-linecap="butt" stroke-linejoin="miter" stroke="rgb(14.901961%, 14.901961%, 14.901961%)" stroke-opacity="1" stroke-miterlimit="10" d="M 170.105469 609.222656 L 176.953125 595.519531 L 183.804688 609.222656 Z M 170.105469 609.222656 "/>
<path fill-rule="nonzero" fill="rgb(14.901961%, 14.901961%, 14.901961%)" fill-opacity="1" stroke-width="1" stroke-linecap="butt" stroke-linejoin="miter" stroke="rgb(14.901961%, 14.901961%, 14.901961%)" stroke-opacity="1" stroke-miterlimit="10" d="M 174.632812 628.363281 L 180.984375 615.664062 L 187.332031 628.363281 Z M 174.632812 628.363281 "/>
<path fill-rule="nonzero" fill="rgb(98.431373%, 60.392157%, 60%)" fill-opacity="1" stroke-width="1" stroke-linecap="butt" stroke-linejoin="miter" stroke="rgb(98.431373%, 60.392157%, 60%)" stroke-opacity="1" stroke-miterlimit="10" d="M 187.265625 686.152344 C 187.265625 689.820312 181.765625 689.820312 181.765625 686.152344 C 181.765625 682.488281 187.265625 682.488281 187.265625 686.152344 "/>
<path fill-rule="nonzero" fill="rgb(14.901961%, 14.901961%, 14.901961%)" fill-opacity="1" stroke-width="1" stroke-linecap="butt" stroke-linejoin="miter" stroke="rgb(14.901961%, 14.901961%, 14.901961%)" stroke-opacity="1" stroke-miterlimit="10" d="M 183.097656 753.75 L 186.847656 746.25 L 190.597656 753.75 Z M 183.097656 753.75 "/>
<path fill-rule="nonzero" fill="rgb(12.156863%, 47.058824%, 70.588235%)" fill-opacity="1" stroke-width="1" stroke-linecap="butt" stroke-linejoin="miter" stroke="rgb(12.156863%, 47.058824%, 70.588235%)" stroke-opacity="1" stroke-miterlimit="10" d="M 63.539062 395.652344 C 63.539062 400.652344 56.039062 400.652344 56.039062 395.652344 C 56.039062 390.652344 63.539062 390.652344 63.539062 395.652344 "/>
<path fill-rule="nonzero" fill="rgb(12.156863%, 47.058824%, 70.588235%)" fill-opacity="1" stroke-width="1" stroke-linecap="butt" stroke-linejoin="miter" stroke="rgb(12.156863%, 47.058824%, 70.588235%)" stroke-opacity="1" stroke-miterlimit="10" d="M 54.710938 408.394531 C 54.710938 412.058594 49.210938 412.058594 49.210938 408.394531 C 49.210938 404.726562 54.710938 404.726562 54.710938 408.394531 "/>
<path fill-rule="nonzero" fill="rgb(70.196078%, 70.196078%, 70.196078%)" fill-opacity="1" stroke-width="1" stroke-linecap="butt" stroke-linejoin="miter" stroke="rgb(70.196078%, 70.196078%, 70.196078%)" stroke-opacity="1" stroke-miterlimit="10" d="M 170.648438 497.902344 C 170.648438 504.367188 160.949219 504.367188 160.949219 497.902344 C 160.949219 491.433594 170.648438 491.433594 170.648438 497.902344 "/>
<path fill-rule="nonzero" fill="rgb(70.196078%, 70.196078%, 70.196078%)" fill-opacity="1" stroke-width="1" stroke-linecap="butt" stroke-linejoin="miter" stroke="rgb(70.196078%, 70.196078%, 70.196078%)" stroke-opacity="1" stroke-miterlimit="10" d="M 174.210938 610.871094 C 174.210938 617.339844 164.511719 617.339844 164.511719 610.871094 C 164.511719 604.40625 174.210938 604.40625 174.210938 610.871094 "/>
<path fill-rule="nonzero" fill="rgb(70.196078%, 70.196078%, 70.196078%)" fill-opacity="1" stroke-width="1" stroke-linecap="butt" stroke-linejoin="miter" stroke="rgb(70.196078%, 70.196078%, 70.196078%)" stroke-opacity="1" stroke-miterlimit="10" d="M 176.773438 550.1875 C 176.773438 556.652344 167.074219 556.652344 167.074219 550.1875 C 167.074219 543.71875 176.773438 543.71875 176.773438 550.1875 "/>
<path fill-rule="nonzero" fill="rgb(98.431373%, 60.392157%, 60%)" fill-opacity="1" stroke-width="1" stroke-linecap="butt" stroke-linejoin="miter" stroke="rgb(98.431373%, 60.392157%, 60%)" stroke-opacity="1" stroke-miterlimit="10" d="M 188.9375 721.980469 C 188.9375 725.648438 183.4375 725.648438 183.4375 721.980469 C 183.4375 718.316406 188.9375 718.316406 188.9375 721.980469 "/>
<path fill-rule="nonzero" fill="rgb(14.901961%, 14.901961%, 14.901961%)" fill-opacity="1" stroke-width="1" stroke-linecap="butt" stroke-linejoin="miter" stroke="rgb(14.901961%, 14.901961%, 14.901961%)" stroke-opacity="1" stroke-miterlimit="10" d="M 46.25 391.941406 L 50 384.441406 L 53.75 391.941406 Z M 46.25 391.941406 "/>
<path fill-rule="nonzero" fill="rgb(70.196078%, 70.196078%, 70.196078%)" fill-opacity="1" stroke-width="1" stroke-linecap="butt" stroke-linejoin="miter" stroke="rgb(70.196078%, 70.196078%, 70.196078%)" stroke-opacity="1" stroke-miterlimit="10" d="M 212.828125 213.828125 C 212.828125 220.296875 203.125 220.296875 203.125 213.828125 C 203.125 207.363281 212.828125 207.363281 212.828125 213.828125 "/>
<path fill-rule="nonzero" fill="rgb(12.156863%, 47.058824%, 70.588235%)" fill-opacity="1" stroke-width="1" stroke-linecap="butt" stroke-linejoin="miter" stroke="rgb(12.156863%, 47.058824%, 70.588235%)" stroke-opacity="1" stroke-miterlimit="10" d="M 76.207031 378.769531 C 76.207031 382.433594 70.707031 382.433594 70.707031 378.769531 C 70.707031 375.101562 76.207031 375.101562 76.207031 378.769531 "/>
<path fill-rule="nonzero" fill="rgb(12.156863%, 47.058824%, 70.588235%)" fill-opacity="1" stroke-width="1" stroke-linecap="butt" stroke-linejoin="miter" stroke="rgb(12.156863%, 47.058824%, 70.588235%)" stroke-opacity="1" stroke-miterlimit="10" d="M 128.640625 390.429688 C 128.640625 394.097656 123.140625 394.097656 123.140625 390.429688 C 123.140625 386.765625 128.640625 386.765625 128.640625 390.429688 "/>
<path fill-rule="nonzero" fill="rgb(12.156863%, 47.058824%, 70.588235%)" fill-opacity="1" stroke-width="1" stroke-linecap="butt" stroke-linejoin="miter" stroke="rgb(12.156863%, 47.058824%, 70.588235%)" stroke-opacity="1" stroke-miterlimit="10" d="M 159.210938 366.863281 C 159.210938 370.527344 153.710938 370.527344 153.710938 366.863281 C 153.710938 363.195312 159.210938 363.195312 159.210938 366.863281 "/>
<path fill-rule="nonzero" fill="rgb(70.196078%, 70.196078%, 70.196078%)" fill-opacity="1" stroke-width="1" stroke-linecap="butt" stroke-linejoin="miter" stroke="rgb(70.196078%, 70.196078%, 70.196078%)" stroke-opacity="1" stroke-miterlimit="10" d="M 186.515625 644.621094 C 186.515625 651.089844 176.816406 651.089844 176.816406 644.621094 C 176.816406 638.15625 186.515625 638.15625 186.515625 644.621094 "/>
<path fill-rule="nonzero" fill="rgb(70.196078%, 70.196078%, 70.196078%)" fill-opacity="1" stroke-width="1" stroke-linecap="butt" stroke-linejoin="miter" stroke="rgb(70.196078%, 70.196078%, 70.196078%)" stroke-opacity="1" stroke-miterlimit="10" d="M 155.933594 391.160156 C 155.933594 398.292969 145.234375 398.292969 145.234375 391.160156 C 145.234375 384.027344 155.933594 384.027344 155.933594 391.160156 "/>
<path fill-rule="nonzero" fill="rgb(70.196078%, 70.196078%, 70.196078%)" fill-opacity="1" stroke-width="1" stroke-linecap="butt" stroke-linejoin="miter" stroke="rgb(70.196078%, 70.196078%, 70.196078%)" stroke-opacity="1" stroke-miterlimit="10" d="M 247.128906 141.667969 C 247.128906 148.132812 237.429688 148.132812 237.429688 141.667969 C 237.429688 135.199219 247.128906 135.199219 247.128906 141.667969 "/>
<path fill-rule="nonzero" fill="rgb(12.156863%, 47.058824%, 70.588235%)" fill-opacity="1" stroke-width="1" stroke-linecap="butt" stroke-linejoin="miter" stroke="rgb(12.156863%, 47.058824%, 70.588235%)" stroke-opacity="1" stroke-miterlimit="10" d="M 83.035156 390.003906 C 83.035156 394.339844 76.535156 394.339844 76.535156 390.003906 C 76.535156 385.671875 83.035156 385.671875 83.035156 390.003906 "/>
<path fill-rule="nonzero" fill="rgb(12.156863%, 47.058824%, 70.588235%)" fill-opacity="1" stroke-width="1" stroke-linecap="butt" stroke-linejoin="miter" stroke="rgb(12.156863%, 47.058824%, 70.588235%)" stroke-opacity="1" stroke-miterlimit="10" d="M 105.066406 390.046875 C 105.066406 393.710938 99.566406 393.710938 99.566406 390.046875 C 99.566406 386.378906 105.066406 386.378906 105.066406 390.046875 "/>
<path fill-rule="nonzero" fill="rgb(70.196078%, 70.196078%, 70.196078%)" fill-opacity="1" stroke-width="1" stroke-linecap="butt" stroke-linejoin="miter" stroke="rgb(70.196078%, 70.196078%, 70.196078%)" stroke-opacity="1" stroke-miterlimit="10" d="M 168.210938 345.796875 C 168.210938 352.261719 158.507812 352.261719 158.507812 345.796875 C 158.507812 339.332031 168.210938 339.332031 168.210938 345.796875 "/>
<path fill-rule="nonzero" fill="rgb(70.196078%, 70.196078%, 70.196078%)" fill-opacity="1" stroke-width="1" stroke-linecap="butt" stroke-linejoin="miter" stroke="rgb(70.196078%, 70.196078%, 70.196078%)" stroke-opacity="1" stroke-miterlimit="10" d="M 182.472656 299.058594 C 182.472656 305.527344 172.773438 305.527344 172.773438 299.058594 C 172.773438 292.59375 182.472656 292.59375 182.472656 299.058594 "/>
<path fill-rule="nonzero" fill="rgb(70.196078%, 70.196078%, 70.196078%)" fill-opacity="1" stroke-width="1" stroke-linecap="butt" stroke-linejoin="miter" stroke="rgb(70.196078%, 70.196078%, 70.196078%)" stroke-opacity="1" stroke-miterlimit="10" d="M 197.230469 255.042969 C 197.230469 261.511719 187.53125 261.511719 187.53125 255.042969 C 187.53125 248.578125 197.230469 248.578125 197.230469 255.042969 "/>
<path fill-rule="nonzero" fill="rgb(70.196078%, 70.196078%, 70.196078%)" fill-opacity="1" stroke-width="1" stroke-linecap="butt" stroke-linejoin="miter" stroke="rgb(70.196078%, 70.196078%, 70.196078%)" stroke-opacity="1" stroke-miterlimit="10" d="M 163.503906 444.949219 C 163.503906 451.417969 153.804688 451.417969 153.804688 444.949219 C 153.804688 438.484375 163.503906 438.484375 163.503906 444.949219 "/>
<path fill-rule="nonzero" fill="rgb(70.196078%, 70.196078%, 70.196078%)" fill-opacity="1" stroke-width="1" stroke-linecap="butt" stroke-linejoin="miter" stroke="rgb(70.196078%, 70.196078%, 70.196078%)" stroke-opacity="1" stroke-miterlimit="10" d="M 266.089844 112.320312 C 266.089844 118.785156 256.386719 118.785156 256.386719 112.320312 C 256.386719 105.855469 266.089844 105.855469 266.089844 112.320312 "/>
<path fill-rule="nonzero" fill="rgb(70.196078%, 70.196078%, 70.196078%)" fill-opacity="1" stroke-width="1" stroke-linecap="butt" stroke-linejoin="miter" stroke="rgb(70.196078%, 70.196078%, 70.196078%)" stroke-opacity="1" stroke-miterlimit="10" d="M 229.414062 175.804688 C 229.414062 182.273438 219.714844 182.273438 219.714844 175.804688 C 219.714844 169.339844 229.414062 169.339844 229.414062 175.804688 "/>
<path fill-rule="nonzero" fill="rgb(70.196078%, 70.196078%, 70.196078%)" fill-opacity="1" stroke-width="1" stroke-linecap="butt" stroke-linejoin="miter" stroke="rgb(70.196078%, 70.196078%, 70.196078%)" stroke-opacity="1" stroke-miterlimit="10" d="M 307.605469 70.816406 C 307.605469 77.28125 297.90625 77.28125 297.90625 70.816406 C 297.90625 64.347656 307.605469 64.347656 307.605469 70.816406 "/>
<path fill-rule="nonzero" fill="rgb(70.196078%, 70.196078%, 70.196078%)" fill-opacity="1" stroke-width="1" stroke-linecap="butt" stroke-linejoin="miter" stroke="rgb(70.196078%, 70.196078%, 70.196078%)" stroke-opacity="1" stroke-miterlimit="10" d="M 396.945312 52.863281 C 396.945312 59.332031 387.246094 59.332031 387.246094 52.863281 C 387.246094 46.398438 396.945312 46.398438 396.945312 52.863281 "/>
<path fill-rule="nonzero" fill="rgb(70.196078%, 70.196078%, 70.196078%)" fill-opacity="1" stroke-width="1" stroke-linecap="butt" stroke-linejoin="miter" stroke="rgb(70.196078%, 70.196078%, 70.196078%)" stroke-opacity="1" stroke-miterlimit="10" d="M 286.3125 88.621094 C 286.3125 95.085938 276.613281 95.085938 276.613281 88.621094 C 276.613281 82.152344 286.3125 82.152344 286.3125 88.621094 "/>
<path fill-rule="nonzero" fill="rgb(70.196078%, 70.196078%, 70.196078%)" fill-opacity="1" stroke-width="1" stroke-linecap="butt" stroke-linejoin="miter" stroke="rgb(70.196078%, 70.196078%, 70.196078%)" stroke-opacity="1" stroke-miterlimit="10" d="M 419.089844 59.945312 C 419.089844 66.410156 409.390625 66.410156 409.390625 59.945312 C 409.390625 53.476562 419.089844 53.476562 419.089844 59.945312 "/>
<path fill-rule="nonzero" fill="rgb(70.196078%, 70.196078%, 70.196078%)" fill-opacity="1" stroke-width="1" stroke-linecap="butt" stroke-linejoin="miter" stroke="rgb(70.196078%, 70.196078%, 70.196078%)" stroke-opacity="1" stroke-miterlimit="10" d="M 374.566406 50 C 374.566406 56.464844 364.867188 56.464844 364.867188 50 C 364.867188 43.535156 374.566406 43.535156 374.566406 50 "/>
<path fill-rule="nonzero" fill="rgb(70.196078%, 70.196078%, 70.196078%)" fill-opacity="1" stroke-width="1" stroke-linecap="butt" stroke-linejoin="miter" stroke="rgb(70.196078%, 70.196078%, 70.196078%)" stroke-opacity="1" stroke-miterlimit="10" d="M 352.050781 51.835938 C 352.050781 58.304688 342.351562 58.304688 342.351562 51.835938 C 342.351562 45.371094 352.050781 45.371094 352.050781 51.835938 "/>
<path fill-rule="nonzero" fill="rgb(70.196078%, 70.196078%, 70.196078%)" fill-opacity="1" stroke-width="1" stroke-linecap="butt" stroke-linejoin="miter" stroke="rgb(70.196078%, 70.196078%, 70.196078%)" stroke-opacity="1" stroke-miterlimit="10" d="M 329.628906 58.667969 C 329.628906 65.132812 319.929688 65.132812 319.929688 58.667969 C 319.929688 52.199219 329.628906 52.199219 329.628906 58.667969 "/>
<path fill-rule="nonzero" fill="rgb(70.196078%, 70.196078%, 70.196078%)" fill-opacity="1" stroke-width="1" stroke-linecap="butt" stroke-linejoin="miter" stroke="rgb(70.196078%, 70.196078%, 70.196078%)" stroke-opacity="1" stroke-miterlimit="10" d="M 441.125 70.203125 C 441.125 76.671875 431.421875 76.671875 431.421875 70.203125 C 431.421875 63.738281 441.125 63.738281 441.125 70.203125 "/>
<path fill-rule="nonzero" fill="rgb(70.196078%, 70.196078%, 70.196078%)" fill-opacity="1" stroke-width="1" stroke-linecap="butt" stroke-linejoin="miter" stroke="rgb(70.196078%, 70.196078%, 70.196078%)" stroke-opacity="1" stroke-miterlimit="10" d="M 463.011719 82.808594 C 463.011719 89.277344 453.3125 89.277344 453.3125 82.808594 C 453.3125 76.34375 463.011719 76.34375 463.011719 82.808594 "/>
<path fill-rule="nonzero" fill="rgb(70.196078%, 70.196078%, 70.196078%)" fill-opacity="1" stroke-width="1" stroke-linecap="butt" stroke-linejoin="miter" stroke="rgb(70.196078%, 70.196078%, 70.196078%)" stroke-opacity="1" stroke-miterlimit="10" d="M 710.75 233.355469 C 710.75 239.824219 701.050781 239.824219 701.050781 233.355469 C 701.050781 226.890625 710.75 226.890625 710.75 233.355469 "/>
<path fill-rule="nonzero" fill="rgb(70.196078%, 70.196078%, 70.196078%)" fill-opacity="1" stroke-width="1" stroke-linecap="butt" stroke-linejoin="miter" stroke="rgb(70.196078%, 70.196078%, 70.196078%)" stroke-opacity="1" stroke-miterlimit="10" d="M 484.734375 97.078125 C 484.734375 103.546875 475.035156 103.546875 475.035156 97.078125 C 475.035156 90.613281 484.734375 90.613281 484.734375 97.078125 "/>
<path fill-rule="nonzero" fill="rgb(70.196078%, 70.196078%, 70.196078%)" fill-opacity="1" stroke-width="1" stroke-linecap="butt" stroke-linejoin="miter" stroke="rgb(70.196078%, 70.196078%, 70.196078%)" stroke-opacity="1" stroke-miterlimit="10" d="M 548.960938 143.929688 C 548.960938 150.398438 539.261719 150.398438 539.261719 143.929688 C 539.261719 137.464844 548.960938 137.464844 548.960938 143.929688 "/>
<path fill-rule="nonzero" fill="rgb(70.196078%, 70.196078%, 70.196078%)" fill-opacity="1" stroke-width="1" stroke-linecap="butt" stroke-linejoin="miter" stroke="rgb(70.196078%, 70.196078%, 70.196078%)" stroke-opacity="1" stroke-miterlimit="10" d="M 506.289062 112.394531 C 506.289062 118.863281 496.589844 118.863281 496.589844 112.394531 C 496.589844 105.929688 506.289062 105.929688 506.289062 112.394531 "/>
<path fill-rule="nonzero" fill="rgb(70.196078%, 70.196078%, 70.196078%)" fill-opacity="1" stroke-width="1" stroke-linecap="butt" stroke-linejoin="miter" stroke="rgb(70.196078%, 70.196078%, 70.196078%)" stroke-opacity="1" stroke-miterlimit="10" d="M 527.691406 128.191406 C 527.691406 134.65625 517.988281 134.65625 517.988281 128.191406 C 517.988281 121.722656 527.691406 121.722656 527.691406 128.191406 "/>
<path fill-rule="nonzero" fill="rgb(70.196078%, 70.196078%, 70.196078%)" fill-opacity="1" stroke-width="1" stroke-linecap="butt" stroke-linejoin="miter" stroke="rgb(70.196078%, 70.196078%, 70.196078%)" stroke-opacity="1" stroke-miterlimit="10" d="M 570.132812 159.125 C 570.132812 165.59375 560.433594 165.59375 560.433594 159.125 C 560.433594 152.660156 570.132812 152.660156 570.132812 159.125 "/>
<path fill-rule="nonzero" fill="rgb(70.196078%, 70.196078%, 70.196078%)" fill-opacity="1" stroke-width="1" stroke-linecap="butt" stroke-linejoin="miter" stroke="rgb(70.196078%, 70.196078%, 70.196078%)" stroke-opacity="1" stroke-miterlimit="10" d="M 612.167969 186.425781 C 612.167969 192.894531 602.46875 192.894531 602.46875 186.425781 C 602.46875 179.960938 612.167969 179.960938 612.167969 186.425781 "/>
<path fill-rule="nonzero" fill="rgb(70.196078%, 70.196078%, 70.196078%)" fill-opacity="1" stroke-width="1" stroke-linecap="butt" stroke-linejoin="miter" stroke="rgb(70.196078%, 70.196078%, 70.196078%)" stroke-opacity="1" stroke-miterlimit="10" d="M 591.214844 173.375 C 591.214844 179.839844 581.515625 179.839844 581.515625 173.375 C 581.515625 166.90625 591.214844 166.90625 591.214844 173.375 "/>
<path fill-rule="nonzero" fill="rgb(70.196078%, 70.196078%, 70.196078%)" fill-opacity="1" stroke-width="1" stroke-linecap="butt" stroke-linejoin="miter" stroke="rgb(70.196078%, 70.196078%, 70.196078%)" stroke-opacity="1" stroke-miterlimit="10" d="M 742.851562 244.800781 C 742.851562 251.269531 733.152344 251.269531 733.152344 244.800781 C 733.152344 238.335938 742.851562 238.335938 742.851562 244.800781 "/>
<path fill-rule="nonzero" fill="rgb(70.196078%, 70.196078%, 70.196078%)" fill-opacity="1" stroke-width="1" stroke-linecap="butt" stroke-linejoin="miter" stroke="rgb(70.196078%, 70.196078%, 70.196078%)" stroke-opacity="1" stroke-miterlimit="10" d="M 673.246094 217.984375 C 673.246094 224.449219 663.542969 224.449219 663.542969 217.984375 C 663.542969 211.515625 673.246094 211.515625 673.246094 217.984375 "/>
<path fill-rule="nonzero" fill="rgb(70.196078%, 70.196078%, 70.196078%)" fill-opacity="1" stroke-width="1" stroke-linecap="butt" stroke-linejoin="miter" stroke="rgb(70.196078%, 70.196078%, 70.196078%)" stroke-opacity="1" stroke-miterlimit="10" d="M 632.914062 198.191406 C 632.914062 204.65625 623.214844 204.65625 623.214844 198.191406 C 623.214844 191.722656 632.914062 191.722656 632.914062 198.191406 "/>
<path fill-rule="nonzero" fill="rgb(70.196078%, 70.196078%, 70.196078%)" fill-opacity="1" stroke-width="1" stroke-linecap="butt" stroke-linejoin="miter" stroke="rgb(70.196078%, 70.196078%, 70.196078%)" stroke-opacity="1" stroke-miterlimit="10" d="M 653.328125 208.683594 C 653.328125 215.152344 643.625 215.152344 643.625 208.683594 C 643.625 202.21875 653.328125 202.21875 653.328125 208.683594 "/>
<path fill-rule="nonzero" fill="rgb(70.196078%, 70.196078%, 70.196078%)" fill-opacity="1" stroke-width="1" stroke-linecap="butt" stroke-linejoin="miter" stroke="rgb(70.196078%, 70.196078%, 70.196078%)" stroke-opacity="1" stroke-miterlimit="10" d="M 692.46875 226.179688 C 692.46875 232.648438 682.769531 232.648438 682.769531 226.179688 C 682.769531 219.714844 692.46875 219.714844 692.46875 226.179688 "/>
<path fill-rule="nonzero" fill="rgb(100%, 84.313725%, 0%)" fill-opacity="1" stroke-width="1" stroke-linecap="butt" stroke-linejoin="miter" stroke="rgb(100%, 84.313725%, 0%)" stroke-opacity="1" stroke-miterlimit="10" d="M 744.648438 243.71875 L 755.347656 243.71875 L 755.347656 254.417969 L 744.648438 254.417969 Z M 744.648438 243.71875 "/>
<path fill-rule="nonzero" fill="rgb(70.196078%, 70.196078%, 70.196078%)" fill-opacity="1" stroke-width="1" stroke-linecap="butt" stroke-linejoin="miter" stroke="rgb(70.196078%, 70.196078%, 70.196078%)" stroke-opacity="1" stroke-miterlimit="10" d="M 727.734375 239.5625 C 727.734375 246.027344 718.035156 246.027344 718.035156 239.5625 C 718.035156 233.09375 727.734375 233.09375 727.734375 239.5625 "/>
</svg>
