<?xml version="1.0" encoding="UTF-8"?>
<svg xmlns="http://www.w3.org/2000/svg" xmlns:xlink="http://www.w3.org/1999/xlink" width="800" height="800" viewBox="0 0 800 800">
<rect x="-80" y="-80" width="960" height="960" fill="rgb(100%, 100%, 100%)" fill-opacity="1"/>
<path fill="none" stroke-width="5.5" stroke-linecap="butt" stroke-linejoin="miter" stroke="rgb(70.196078%, 70.196078%, 70.196078%)" stroke-opacity="1" stroke-miterlimit="10" d="M 737.402344 704.007812 C 735.730469 710.867188 736.0625 718.015625 740.929688 722.996094 "/>
<path fill-rule="nonzero" fill="rgb(70.196078%, 70.196078%, 70.196078%)" fill-opacity="1" d="M 745.914062 728.097656 L 739.269531 724.613281 L 742.585938 721.375 L 745.914062 728.097656 "/>
<path fill="none" stroke-width="5.5" stroke-linecap="butt" stroke-linejoin="miter" stroke="rgb(70.196078%, 70.196078%, 70.196078%)" stroke-opacity="1" stroke-miterlimit="10" d="M 722.453125 667.582031 C 720.484375 677.828125 721.839844 687.902344 729.046875 695.359375 "/>
<path fill-rule="nonzero" fill="rgb(70.196078%, 70.196078%, 70.196078%)" fill-opacity="1" d="M 734.003906 700.488281 L 727.378906 696.96875 L 730.710938 693.75 L 734.003906 700.488281 "/>
<path fill="none" stroke-width="5.5" stroke-linecap="butt" stroke-linejoin="miter" stroke="rgb(70.196078%, 70.196078%, 70.196078%)" stroke-opacity="1" stroke-miterlimit="10" d="M 706.316406 625.777344 C 704 637.96875 705.78125 649.777344 714.226562 658.792969 "/>
<path fill-rule="nonzero" fill="rgb(70.196078%, 70.196078%, 70.196078%)" fill-opacity="1" d="M 719.101562 664 L 712.535156 660.378906 L 715.917969 657.210938 L 719.101562 664 "/>
<path fill="none" stroke-width="5.5" stroke-linecap="butt" stroke-linejoin="miter" stroke="rgb(70.196078%, 70.196078%, 70.196078%)" stroke-opacity="1" stroke-miterlimit="10" d="M 689.507812 579.984375 C 686.871094 593.585938 688.902344 606.675781 698.203125 616.878906 "/>
<path fill-rule="nonzero" fill="rgb(70.196078%, 70.196078%, 70.196078%)" fill-opacity="1" d="M 703.007812 622.148438 L 696.492188 618.441406 L 699.917969 615.316406 L 703.007812 622.148438 "/>
<path fill="none" stroke-width="5.5" stroke-linecap="butt" stroke-linejoin="miter" stroke="rgb(70.196078%, 70.196078%, 70.196078%)" stroke-opacity="1" stroke-miterlimit="10" d="M 672.304688 531.105469 C 669.386719 545.78125 671.570312 559.855469 681.492188 570.988281 "/>
<path fill-rule="nonzero" fill="rgb(70.196078%, 70.196078%, 70.196078%)" fill-opacity="1" d="M 686.238281 576.316406 L 679.761719 572.53125 L 683.222656 569.449219 L 686.238281 576.316406 "/>
<path fill="none" stroke-width="5.5" stroke-linecap="butt" stroke-linejoin="miter" stroke="rgb(70.196078%, 70.196078%, 70.196078%)" stroke-opacity="1" stroke-miterlimit="10" d="M 654.863281 479.867188 C 651.703125 495.347656 653.988281 510.183594 664.367188 522.039062 "/>
<path fill-rule="nonzero" fill="rgb(70.196078%, 70.196078%, 70.196078%)" fill-opacity="1" d="M 669.066406 527.40625 L 662.625 523.566406 L 666.109375 520.511719 L 669.066406 527.40625 "/>
<path fill="none" stroke-width="5.5" stroke-linecap="butt" stroke-linejoin="miter" stroke="rgb(70.196078%, 70.196078%, 70.196078%)" stroke-opacity="1" stroke-miterlimit="10" d="M 637.222656 426.941406 C 633.898438 443.007812 636.261719 458.382812 646.972656 470.753906 "/>
<path fill-rule="nonzero" fill="rgb(70.196078%, 70.196078%, 70.196078%)" fill-opacity="1" d="M 651.640625 476.148438 L 645.21875 472.273438 L 648.722656 469.238281 L 651.640625 476.148438 "/>
<path fill="none" stroke-width="5.5" stroke-linecap="butt" stroke-linejoin="miter" stroke="rgb(70.196078%, 70.196078%, 70.196078%)" stroke-opacity="1" stroke-miterlimit="10" d="M 619.292969 373.089844 C 615.925781 389.507812 618.382812 405.195312 629.328125 417.832031 "/>
<path fill-rule="nonzero" fill="rgb(70.196078%, 70.196078%, 70.196078%)" fill-opacity="1" d="M 634 423.222656 L 627.578125 419.347656 L 631.082031 416.3125 L 634 423.222656 "/>
<path fill="none" stroke-width="5.5" stroke-linecap="butt" stroke-linejoin="miter" stroke="rgb(70.196078%, 70.196078%, 70.196078%)" stroke-opacity="1" stroke-miterlimit="10" d="M 600.867188 319.234375 C 597.628906 335.738281 600.230469 351.457031 611.324219 364.046875 "/>
<path fill-rule="nonzero" fill="rgb(70.196078%, 70.196078%, 70.196078%)" fill-opacity="1" d="M 616.039062 369.398438 L 609.585938 365.578125 L 613.0625 362.511719 L 616.039062 369.398438 "/>
<path fill="none" stroke-width="5.5" stroke-linecap="butt" stroke-linejoin="miter" stroke="rgb(70.196078%, 70.196078%, 70.196078%)" stroke-opacity="1" stroke-miterlimit="10" d="M 581.566406 266.605469 C 578.714844 282.863281 581.5625 298.246094 592.707031 310.359375 "/>
<path fill-rule="nonzero" fill="rgb(70.196078%, 70.196078%, 70.196078%)" fill-opacity="1" d="M 597.535156 315.609375 L 591 311.929688 L 594.410156 308.792969 L 597.535156 315.609375 "/>
<path fill="none" stroke-width="5.5" stroke-linecap="butt" stroke-linejoin="miter" stroke="rgb(70.196078%, 70.196078%, 70.196078%)" stroke-opacity="1" stroke-miterlimit="10" d="M 560.71875 216.941406 C 558.644531 232.507812 561.914062 247.066406 573.019531 258.109375 "/>
<path fill-rule="nonzero" fill="rgb(70.196078%, 70.196078%, 70.196078%)" fill-opacity="1" d="M 578.078125 263.140625 L 571.386719 259.753906 L 574.65625 256.46875 L 578.078125 263.140625 "/>
<path fill="none" stroke-width="5.5" stroke-linecap="butt" stroke-linejoin="miter" stroke="rgb(70.196078%, 70.196078%, 70.196078%)" stroke-opacity="1" stroke-miterlimit="10" d="M 429.863281 56.445312 C 433.390625 63.925781 438.960938 69.980469 447.0625 71.144531 "/>
<path fill-rule="nonzero" fill="rgb(70.196078%, 70.196078%, 70.196078%)" fill-opacity="1" d="M 454.125 72.160156 L 446.734375 73.4375 L 447.394531 68.851562 L 454.125 72.160156 "/>
<path fill="none" stroke-width="5.5" stroke-linecap="butt" stroke-linejoin="miter" stroke="rgb(70.196078%, 70.196078%, 70.196078%)" stroke-opacity="1" stroke-miterlimit="10" d="M 400.046875 50 C 404.789062 55.449219 410.953125 59.359375 418 58.273438 "/>
<path fill-rule="nonzero" fill="rgb(70.196078%, 70.196078%, 70.196078%)" fill-opacity="1" d="M 425.050781 57.1875 L 418.355469 60.5625 L 417.648438 55.984375 L 425.050781 57.1875 "/>
<path fill="none" stroke-width="5.5" stroke-linecap="butt" stroke-linejoin="miter" stroke="rgb(70.196078%, 70.196078%, 70.196078%)" stroke-opacity="1" stroke-miterlimit="10" d="M 370.027344 53.59375 C 376.195312 57.167969 383.203125 58.863281 389.425781 55.585938 "/>
<path fill-rule="nonzero" fill="rgb(70.196078%, 70.196078%, 70.196078%)" fill-opacity="1" d="M 395.738281 52.265625 L 390.503906 57.640625 L 388.347656 53.535156 L 395.738281 52.265625 "/>
<path fill="none" stroke-width="5.5" stroke-linecap="butt" stroke-linejoin="miter" stroke="rgb(70.196078%, 70.196078%, 70.196078%)" stroke-opacity="1" stroke-miterlimit="10" d="M 340.3125 66.875 C 348.113281 68.480469 356.027344 67.714844 361.570312 62.121094 "/>
<path fill-rule="nonzero" fill="rgb(70.196078%, 70.196078%, 70.196078%)" fill-opacity="1" d="M 366.59375 57.054688 L 363.21875 63.753906 L 359.925781 60.488281 L 366.59375 57.054688 "/>
<path fill="none" stroke-width="5.5" stroke-linecap="butt" stroke-linejoin="miter" stroke="rgb(70.196078%, 70.196078%, 70.196078%)" stroke-opacity="1" stroke-miterlimit="10" d="M 537.957031 171.667969 C 536.910156 186.171875 540.695312 199.515625 551.632812 209.03125 "/>
<path fill-rule="nonzero" fill="rgb(70.196078%, 70.196078%, 70.196078%)" fill-opacity="1" d="M 557.011719 213.714844 L 550.109375 210.78125 L 553.152344 207.28125 L 557.011719 213.714844 "/>
<path fill="none" stroke-width="5.5" stroke-linecap="butt" stroke-linejoin="miter" stroke="rgb(70.196078%, 70.196078%, 70.196078%)" stroke-opacity="1" stroke-miterlimit="10" d="M 513.28125 131.902344 C 513.359375 145.035156 517.648438 156.875 528.222656 164.578125 "/>
<path fill-rule="nonzero" fill="rgb(70.196078%, 70.196078%, 70.196078%)" fill-opacity="1" d="M 533.988281 168.777344 L 526.859375 166.453125 L 529.589844 162.703125 L 533.988281 168.777344 "/>
<path fill="none" stroke-width="5.5" stroke-linecap="butt" stroke-linejoin="miter" stroke="rgb(70.196078%, 70.196078%, 70.196078%)" stroke-opacity="1" stroke-miterlimit="10" d="M 486.859375 98.527344 C 488.070312 110.058594 492.816406 120.210938 502.832031 125.933594 "/>
<path fill-rule="nonzero" fill="rgb(70.196078%, 70.196078%, 70.196078%)" fill-opacity="1" d="M 509.027344 129.472656 L 501.683594 127.945312 L 503.980469 123.921875 L 509.027344 129.472656 "/>
<path fill="none" stroke-width="5.5" stroke-linecap="butt" stroke-linejoin="miter" stroke="rgb(70.196078%, 70.196078%, 70.196078%)" stroke-opacity="1" stroke-miterlimit="10" d="M 311.34375 89.121094 C 320.730469 88.558594 329.324219 85.179688 334.125 77.179688 "/>
<path fill-rule="nonzero" fill="rgb(70.196078%, 70.196078%, 70.196078%)" fill-opacity="1" d="M 337.796875 71.066406 L 336.113281 78.375 L 332.140625 75.988281 L 337.796875 71.066406 "/>
<path fill="none" stroke-width="5.5" stroke-linecap="butt" stroke-linejoin="miter" stroke="rgb(70.196078%, 70.196078%, 70.196078%)" stroke-opacity="1" stroke-miterlimit="10" d="M 283.476562 119.3125 C 294.179688 116.53125 303.132812 110.632812 307.054688 100.363281 "/>
<path fill-rule="nonzero" fill="rgb(70.196078%, 70.196078%, 70.196078%)" fill-opacity="1" d="M 309.597656 93.699219 L 309.21875 101.1875 L 304.890625 99.535156 L 309.597656 93.699219 "/>
<path fill="none" stroke-width="5.5" stroke-linecap="butt" stroke-linejoin="miter" stroke="rgb(70.196078%, 70.196078%, 70.196078%)" stroke-opacity="1" stroke-miterlimit="10" d="M 458.953125 72.851562 C 461.308594 82.476562 466.449219 90.691406 475.632812 94.21875 "/>
<path fill-rule="nonzero" fill="rgb(70.196078%, 70.196078%, 70.196078%)" fill-opacity="1" d="M 482.292969 96.773438 L 474.804688 96.378906 L 476.464844 92.054688 L 482.292969 96.773438 "/>
<path fill="none" stroke-width="5.5" stroke-linecap="butt" stroke-linejoin="miter" stroke="rgb(70.196078%, 70.196078%, 70.196078%)" stroke-opacity="1" stroke-miterlimit="10" d="M 256.980469 156.3125 C 268.664062 151.433594 277.699219 143.277344 280.65625 131.015625 "/>
<path fill-rule="nonzero" fill="rgb(70.196078%, 70.196078%, 70.196078%)" fill-opacity="1" d="M 282.328125 124.082031 L 282.910156 131.558594 L 278.402344 130.472656 L 282.328125 124.082031 "/>
<path fill="none" stroke-width="5.5" stroke-linecap="butt" stroke-linejoin="miter" stroke="rgb(70.196078%, 70.196078%, 70.196078%)" stroke-opacity="1" stroke-miterlimit="10" d="M 231.980469 199.09375 C 244.378906 192.304688 253.3125 182.1875 255.289062 168.238281 "/>
<path fill-rule="nonzero" fill="rgb(70.196078%, 70.196078%, 70.196078%)" fill-opacity="1" d="M 256.289062 161.175781 L 257.582031 168.566406 L 252.992188 167.914062 L 256.289062 161.175781 "/>
<path fill="none" stroke-width="5.5" stroke-linecap="butt" stroke-linejoin="miter" stroke="rgb(70.196078%, 70.196078%, 70.196078%)" stroke-opacity="1" stroke-miterlimit="10" d="M 208.695312 246.558594 C 221.507812 238.121094 230.179688 226.382812 231.1875 211.117188 "/>
<path fill-rule="nonzero" fill="rgb(70.196078%, 70.196078%, 70.196078%)" fill-opacity="1" d="M 231.65625 204 L 233.5 211.269531 L 228.875 210.964844 L 231.65625 204 "/>
<path fill="none" stroke-width="5.5" stroke-linecap="butt" stroke-linejoin="miter" stroke="rgb(70.196078%, 70.196078%, 70.196078%)" stroke-opacity="1" stroke-miterlimit="10" d="M 187.136719 297.765625 C 200.171875 287.9375 208.507812 274.894531 208.613281 258.613281 "/>
<path fill-rule="nonzero" fill="rgb(70.196078%, 70.196078%, 70.196078%)" fill-opacity="1" d="M 208.664062 251.480469 L 210.933594 258.628906 L 206.296875 258.597656 L 208.664062 251.480469 "/>
<path fill="none" stroke-width="5.5" stroke-linecap="butt" stroke-linejoin="miter" stroke="rgb(70.196078%, 70.196078%, 70.196078%)" stroke-opacity="1" stroke-miterlimit="10" d="M 167.222656 351.738281 C 180.308594 340.820312 188.28125 326.800781 187.613281 309.8125 "/>
<path fill-rule="nonzero" fill="rgb(70.196078%, 70.196078%, 70.196078%)" fill-opacity="1" d="M 187.332031 302.683594 L 189.929688 309.722656 L 185.296875 309.902344 L 187.332031 302.683594 "/>
<path fill="none" stroke-width="5.5" stroke-linecap="butt" stroke-linejoin="miter" stroke="rgb(70.196078%, 70.196078%, 70.196078%)" stroke-opacity="1" stroke-miterlimit="10" d="M 85.785156 626.191406 C 97.058594 615.238281 103.503906 601.773438 101.617188 586.214844 "/>
<path fill-rule="nonzero" fill="rgb(70.196078%, 70.196078%, 70.196078%)" fill-opacity="1" d="M 100.757812 579.132812 L 103.917969 585.933594 L 99.316406 586.492188 L 100.757812 579.132812 "/>
<path fill="none" stroke-width="5.5" stroke-linecap="butt" stroke-linejoin="miter" stroke="rgb(70.196078%, 70.196078%, 70.196078%)" stroke-opacity="1" stroke-miterlimit="10" d="M 148.785156 407.445312 C 161.78125 395.78125 169.398438 381.132812 168.113281 363.761719 "/>
<path fill-rule="nonzero" fill="rgb(70.196078%, 70.196078%, 70.196078%)" fill-opacity="1" d="M 167.585938 356.648438 L 170.425781 363.589844 L 165.800781 363.929688 L 167.585938 356.648438 "/>
<path fill="none" stroke-width="5.5" stroke-linecap="butt" stroke-linejoin="miter" stroke="rgb(70.196078%, 70.196078%, 70.196078%)" stroke-opacity="1" stroke-miterlimit="10" d="M 115.433594 519.773438 C 127.867188 507.742188 134.875 492.953125 132.945312 475.796875 "/>
<path fill-rule="nonzero" fill="rgb(70.196078%, 70.196078%, 70.196078%)" fill-opacity="1" d="M 132.148438 468.710938 L 135.25 475.539062 L 130.644531 476.058594 L 132.148438 468.710938 "/>
<path fill="none" stroke-width="5.5" stroke-linecap="butt" stroke-linejoin="miter" stroke="rgb(70.196078%, 70.196078%, 70.196078%)" stroke-opacity="1" stroke-miterlimit="10" d="M 100.164062 574.25 C 112.109375 562.585938 118.84375 548.277344 116.867188 531.742188 "/>
<path fill-rule="nonzero" fill="rgb(70.196078%, 70.196078%, 70.196078%)" fill-opacity="1" d="M 116.019531 524.660156 L 119.167969 531.464844 L 114.566406 532.015625 L 116.019531 524.660156 "/>
<path fill="none" stroke-width="5.5" stroke-linecap="butt" stroke-linejoin="miter" stroke="rgb(70.196078%, 70.196078%, 70.196078%)" stroke-opacity="1" stroke-miterlimit="10" d="M 131.597656 463.820312 C 144.375 451.78125 151.671875 436.875 149.960938 419.441406 "/>
<path fill-rule="nonzero" fill="rgb(70.196078%, 70.196078%, 70.196078%)" fill-opacity="1" d="M 149.265625 412.34375 L 152.269531 419.214844 L 147.65625 419.667969 L 149.265625 412.34375 "/>
<path fill="none" stroke-width="5.5" stroke-linecap="butt" stroke-linejoin="miter" stroke="rgb(70.196078%, 70.196078%, 70.196078%)" stroke-opacity="1" stroke-miterlimit="10" d="M 50 750 C 56.886719 744.621094 61.769531 737.484375 61.144531 728.847656 "/>
<path fill-rule="nonzero" fill="rgb(70.196078%, 70.196078%, 70.196078%)" fill-opacity="1" d="M 60.632812 721.730469 L 63.457031 728.679688 L 58.835938 729.011719 L 60.632812 721.730469 "/>
<path fill="none" stroke-width="5.5" stroke-linecap="butt" stroke-linejoin="miter" stroke="rgb(70.196078%, 70.196078%, 70.196078%)" stroke-opacity="1" stroke-miterlimit="10" d="M 72.410156 674.34375 C 82.765625 664.496094 88.863281 652.296875 87.195312 638.152344 "/>
<path fill-rule="nonzero" fill="rgb(70.196078%, 70.196078%, 70.196078%)" fill-opacity="1" d="M 86.359375 631.070312 L 89.496094 637.882812 L 84.894531 638.425781 L 86.359375 631.070312 "/>
<path fill="none" stroke-width="5.5" stroke-linecap="butt" stroke-linejoin="miter" stroke="rgb(70.196078%, 70.196078%, 70.196078%)" stroke-opacity="1" stroke-miterlimit="10" d="M 60.285156 716.863281 C 69.332031 708.6875 74.964844 698.378906 73.683594 686.3125 "/>
<path fill-rule="nonzero" fill="rgb(70.196078%, 70.196078%, 70.196078%)" fill-opacity="1" d="M 72.929688 679.21875 L 75.988281 686.066406 L 71.378906 686.554688 L 72.929688 679.21875 "/>
<path fill-rule="nonzero" fill="rgb(14.901961%, 14.901961%, 14.901961%)" fill-opacity="1" stroke-width="1" stroke-linecap="butt" stroke-linejoin="miter" stroke="rgb(14.901961%, 14.901961%, 14.901961%)" stroke-opacity="1" stroke-miterlimit="10" d="M 744.148438 738.128906 L 750 726.429688 L 755.851562 738.128906 Z M 744.148438 738.128906 "/>
<path fill-rule="nonzero" fill="rgb(70.196078%, 70.196078%, 70.196078%)" fill-opacity="1" stroke-width="1" stroke-linecap="butt" stroke-linejoin="miter" stroke="rgb(70.196078%, 70.196078%, 70.196078%)" stroke-opacity="1" stroke-miterlimit="10" d="M 742.253906 704.007812 C 742.253906 710.472656 732.554688 710.472656 732.554688 704.007812 C 732.554688 697.539062 742.253906 697.539062 742.253906 704.007812 "/>
<path fill-rule="nonzero" fill="rgb(70.196078%, 70.196078%, 70.196078%)" fill-opacity="1" stroke-width="1" stroke-linecap="butt" stroke-linejoin="miter" stroke="rgb(70.196078%, 70.196078%, 70.196078%)" stroke-opacity="1" stroke-miterlimit="10" d="M 727.304688 667.582031 C 727.304688 674.046875 717.601562 674.046875 717.601562 667.582031 C 717.601562 661.113281 727.304688 661.113281 727.304688 667.582031 "/>
<path fill-rule="nonzero" fill="rgb(70.196078%, 70.196078%, 70.196078%)" fill-opacity="1" stroke-width="1" stroke-linecap="butt" stroke-linejoin="miter" stroke="rgb(70.196078%, 70.196078%, 70.196078%)" stroke-opacity="1" stroke-miterlimit="10" d="M 711.167969 625.777344 C 711.167969 632.246094 701.46875 632.246094 701.46875 625.777344 C 701.46875 619.3125 711.167969 619.3125 711.167969 625.777344 "/>
<path fill-rule="nonzero" fill="rgb(70.196078%, 70.196078%, 70.196078%)" fill-opacity="1" stroke-width="1" stroke-linecap="butt" stroke-linejoin="miter" stroke="rgb(70.196078%, 70.196078%, 70.196078%)" stroke-opacity="1" stroke-miterlimit="10" d="M 694.359375 579.984375 C 694.359375 586.449219 684.65625 586.449219 684.65625 579.984375 C 684.65625 573.519531 694.359375 573.519531 694.359375 579.984375 "/>
<path fill-rule="nonzero" fill="rgb(70.196078%, 70.196078%, 70.196078%)" fill-opacity="1" stroke-width="1" stroke-linecap="butt" stroke-linejoin="miter" stroke="rgb(70.196078%, 70.196078%, 70.196078%)" stroke-opacity="1" stroke-miterlimit="10" d="M 677.15625 531.105469 C 677.15625 537.574219 667.457031 537.574219 667.457031 531.105469 C 667.457031 524.640625 677.15625 524.640625 677.15625 531.105469 "/>
<path fill-rule="nonzero" fill="rgb(70.196078%, 70.196078%, 70.196078%)" fill-opacity="1" stroke-width="1" stroke-linecap="butt" stroke-linejoin="miter" stroke="rgb(70.196078%, 70.196078%, 70.196078%)" stroke-opacity="1" stroke-miterlimit="10" d="M 659.710938 479.867188 C 659.710938 486.332031 650.011719 486.332031 650.011719 479.867188 C 650.011719 473.398438 659.710938 473.398438 659.710938 479.867188 "/>
<path fill-rule="nonzero" fill="rgb(70.196078%, 70.196078%, 70.196078%)" fill-opacity="1" stroke-width="1" stroke-linecap="butt" stroke-linejoin="miter" stroke="rgb(70.196078%, 70.196078%, 70.196078%)" stroke-opacity="1" stroke-miterlimit="10" d="M 642.070312 426.941406 C 642.070312 433.410156 632.371094 433.410156 632.371094 426.941406 C 632.371094 420.476562 642.070312 420.476562 642.070312 426.941406 "/>
<path fill-rule="nonzero" fill="rgb(70.196078%, 70.196078%, 70.196078%)" fill-opacity="1" stroke-width="1" stroke-linecap="butt" stroke-linejoin="miter" stroke="rgb(70.196078%, 70.196078%, 70.196078%)" stroke-opacity="1" stroke-miterlimit="10" d="M 624.144531 373.089844 C 624.144531 379.558594 614.441406 379.558594 614.441406 373.089844 C 614.441406 366.625 624.144531 366.625 624.144531 373.089844 "/>
<path fill-rule="nonzero" fill="rgb(70.196078%, 70.196078%, 70.196078%)" fill-opacity="1" stroke-width="1" stroke-linecap="butt" stroke-linejoin="miter" stroke="rgb(70.196078%, 70.196078%, 70.196078%)" stroke-opacity="1" stroke-miterlimit="10" d="M 605.714844 319.234375 C 605.714844 325.699219 596.015625 325.699219 596.015625 319.234375 C 596.015625 312.765625 605.714844 312.765625 605.714844 319.234375 "/>
<path fill-rule="nonzero" fill="rgb(70.196078%, 70.196078%, 70.196078%)" fill-opacity="1" stroke-width="1" stroke-linecap="butt" stroke-linejoin="miter" stroke="rgb(70.196078%, 70.196078%, 70.196078%)" stroke-opacity="1" stroke-miterlimit="10" d="M 586.414062 266.605469 C 586.414062 273.074219 576.714844 273.074219 576.714844 266.605469 C 576.714844 260.140625 586.414062 260.140625 586.414062 266.605469 "/>
<path fill-rule="nonzero" fill="rgb(70.196078%, 70.196078%, 70.196078%)" fill-opacity="1" stroke-width="1" stroke-linecap="butt" stroke-linejoin="miter" stroke="rgb(70.196078%, 70.196078%, 70.196078%)" stroke-opacity="1" stroke-miterlimit="10" d="M 565.566406 216.941406 C 565.566406 223.40625 555.867188 223.40625 555.867188 216.941406 C 555.867188 210.472656 565.566406 210.472656 565.566406 216.941406 "/>
<path fill-rule="nonzero" fill="rgb(70.196078%, 70.196078%, 70.196078%)" fill-opacity="1" stroke-width="1" stroke-linecap="butt" stroke-linejoin="miter" stroke="rgb(70.196078%, 70.196078%, 70.196078%)" stroke-opacity="1" stroke-miterlimit="10" d="M 434.714844 56.445312 C 434.714844 62.914062 425.015625 62.914062 425.015625 56.445312 C 425.015625 49.980469 434.714844 49.980469 434.714844 56.445312 "/>
<path fill-rule="nonzero" fill="rgb(70.196078%, 70.196078%, 70.196078%)" fill-opacity="1" stroke-width="1" stroke-linecap="butt" stroke-linejoin="miter" stroke="rgb(70.196078%, 70.196078%, 70.196078%)" stroke-opacity="1" stroke-miterlimit="10" d="M 404.894531 50 C 404.894531 56.464844 395.195312 56.464844 395.195312 50 C 395.195312 43.535156 404.894531 43.535156 404.894531 50 "/>
<path fill-rule="nonzero" fill="rgb(70.196078%, 70.196078%, 70.196078%)" fill-opacity="1" stroke-width="1" stroke-linecap="butt" stroke-linejoin="miter" stroke="rgb(70.196078%, 70.196078%, 70.196078%)" stroke-opacity="1" stroke-miterlimit="10" d="M 374.875 53.59375 C 374.875 60.0625 365.175781 60.0625 365.175781 53.59375 C 365.175781 47.128906 374.875 47.128906 374.875 53.59375 "/>
<path fill-rule="nonzero" fill="rgb(70.196078%, 70.196078%, 70.196078%)" fill-opacity="1" stroke-width="1" stroke-linecap="butt" stroke-linejoin="miter" stroke="rgb(70.196078%, 70.196078%, 70.196078%)" stroke-opacity="1" stroke-miterlimit="10" d="M 345.164062 66.875 C 345.164062 73.34375 335.460938 73.34375 335.460938 66.875 C 335.460938 60.410156 345.164062 60.410156 345.164062 66.875 "/>
<path fill-rule="nonzero" fill="rgb(70.196078%, 70.196078%, 70.196078%)" fill-opacity="1" stroke-width="1" stroke-linecap="butt" stroke-linejoin="miter" stroke="rgb(70.196078%, 70.196078%, 70.196078%)" stroke-opacity="1" stroke-miterlimit="10" d="M 542.808594 171.667969 C 542.808594 178.132812 533.105469 178.132812 533.105469 171.667969 C 533.105469 165.199219 542.808594 165.199219 542.808594 171.667969 "/>
<path fill-rule="nonzero" fill="rgb(70.196078%, 70.196078%, 70.196078%)" fill-opacity="1" stroke-width="1" stroke-linecap="butt" stroke-linejoin="miter" stroke="rgb(70.196078%, 70.196078%, 70.196078%)" stroke-opacity="1" stroke-miterlimit="10" d="M 518.128906 131.902344 C 518.128906 138.367188 508.429688 138.367188 508.429688 131.902344 C 508.429688 125.433594 518.128906 125.433594 518.128906 131.902344 "/>
<path fill-rule="nonzero" fill="rgb(70.196078%, 70.196078%, 70.196078%)" fill-opacity="1" stroke-width="1" stroke-linecap="butt" stroke-linejoin="miter" stroke="rgb(70.196078%, 70.196078%, 70.196078%)" stroke-opacity="1" stroke-miterlimit="10" d="M 491.707031 98.527344 C 491.707031 104.996094 482.007812 104.996094 482.007812 98.527344 C 482.007812 92.0625 491.707031 92.0625 491.707031 98.527344 "/>
<path fill-rule="nonzero" fill="rgb(70.196078%, 70.196078%, 70.196078%)" fill-opacity="1" stroke-width="1" stroke-linecap="butt" stroke-linejoin="miter" stroke="rgb(70.196078%, 70.196078%, 70.196078%)" stroke-opacity="1" stroke-miterlimit="10" d="M 316.195312 89.121094 C 316.195312 95.589844 306.496094 95.589844 306.496094 89.121094 C 306.496094 82.65625 316.195312 82.65625 316.195312 89.121094 "/>
<path fill-rule="nonzero" fill="rgb(70.196078%, 70.196078%, 70.196078%)" fill-opacity="1" stroke-width="1" stroke-linecap="butt" stroke-linejoin="miter" stroke="rgb(70.196078%, 70.196078%, 70.196078%)" stroke-opacity="1" stroke-miterlimit="10" d="M 288.328125 119.3125 C 288.328125 125.78125 278.628906 125.78125 278.628906 119.3125 C 278.628906 112.847656 288.328125 112.847656 288.328125 119.3125 "/>
<path fill-rule="nonzero" fill="rgb(70.196078%, 70.196078%, 70.196078%)" fill-opacity="1" stroke-width="1" stroke-linecap="butt" stroke-linejoin="miter" stroke="rgb(70.196078%, 70.196078%, 70.196078%)" stroke-opacity="1" stroke-miterlimit="10" d="M 463.800781 72.851562 C 463.800781 79.320312 454.101562 79.320312 454.101562 72.851562 C 454.101562 66.386719 463.800781 66.386719 463.800781 72.851562 "/>
<path fill-rule="nonzero" fill="rgb(70.196078%, 70.196078%, 70.196078%)" fill-opacity="1" stroke-width="1" stroke-linecap="butt" stroke-linejoin="miter" stroke="rgb(70.196078%, 70.196078%, 70.196078%)" stroke-opacity="1" stroke-miterlimit="10" d="M 261.828125 156.3125 C 261.828125 162.78125 252.128906 162.78125 252.128906 156.3125 C 252.128906 149.847656 261.828125 149.847656 261.828125 156.3125 "/>
<path fill-rule="nonzero" fill="rgb(70.196078%, 70.196078%, 70.196078%)" fill-opacity="1" stroke-width="1" stroke-linecap="butt" stroke-linejoin="miter" stroke="rgb(70.196078%, 70.196078%, 70.196078%)" stroke-opacity="1" stroke-miterlimit="10" d="M 236.828125 199.09375 C 236.828125 205.5625 227.128906 205.5625 227.128906 199.09375 C 227.128906 192.628906 236.828125 192.628906 236.828125 199.09375 "/>
<path fill-rule="nonzero" fill="rgb(70.196078%, 70.196078%, 70.196078%)" fill-opacity="1" stroke-width="1" stroke-linecap="butt" stroke-linejoin="miter" stroke="rgb(70.196078%, 70.196078%, 70.196078%)" stroke-opacity="1" stroke-miterlimit="10" d="M 213.546875 246.558594 C 213.546875 253.027344 203.84375 253.027344 203.84375 246.558594 C 203.84375 240.09375 213.546875 240.09375 213.546875 246.558594 "/>
<path fill-rule="nonzero" fill="rgb(70.196078%, 70.196078%, 70.196078%)" fill-opacity="1" stroke-width="1" stroke-linecap="butt" stroke-linejoin="miter" stroke="rgb(70.196078%, 70.196078%, 70.196078%)" stroke-opacity="1" stroke-miterlimit="10" d="M 191.988281 297.765625 C 191.988281 304.234375 182.289062 304.234375 182.289062 297.765625 C 182.289062 291.300781 191.988281 291.300781 191.988281 297.765625 "/>
<path fill-rule="nonzero" fill="rgb(70.196078%, 70.196078%, 70.196078%)" fill-opacity="1" stroke-width="1" stroke-linecap="butt" stroke-linejoin="miter" stroke="rgb(70.196078%, 70.196078%, 70.196078%)" stroke-opacity="1" stroke-miterlimit="10" d="M 172.074219 351.738281 C 172.074219 358.203125 162.375 358.203125 162.375 351.738281 C 162.375 345.269531 172.074219 345.269531 172.074219 351.738281 "/>
<path fill-rule="nonzero" fill="rgb(70.196078%, 70.196078%, 70.196078%)" fill-opacity="1" stroke-width="1" stroke-linecap="butt" stroke-linejoin="miter" stroke="rgb(70.196078%, 70.196078%, 70.196078%)" stroke-opacity="1" stroke-miterlimit="10" d="M 90.636719 626.191406 C 90.636719 632.65625 80.933594 632.65625 80.933594 626.191406 C 80.933594 619.722656 90.636719 619.722656 90.636719 626.191406 "/>
<path fill-rule="nonzero" fill="rgb(70.196078%, 70.196078%, 70.196078%)" fill-opacity="1" stroke-width="1" stroke-linecap="butt" stroke-linejoin="miter" stroke="rgb(70.196078%, 70.196078%, 70.196078%)" stroke-opacity="1" stroke-miterlimit="10" d="M 153.636719 407.445312 C 153.636719 413.910156 143.9375 413.910156 143.9375 407.445312 C 143.9375 400.976562 153.636719 400.976562 153.636719 407.445312 "/>
<path fill-rule="nonzero" fill="rgb(70.196078%, 70.196078%, 70.196078%)" fill-opacity="1" stroke-width="1" stroke-linecap="butt" stroke-linejoin="miter" stroke="rgb(70.196078%, 70.196078%, 70.196078%)" stroke-opacity="1" stroke-miterlimit="10" d="M 120.285156 519.773438 C 120.285156 526.238281 110.585938 526.238281 110.585938 519.773438 C 110.585938 513.308594 120.285156 513.308594 120.285156 519.773438 "/>
<path fill-rule="nonzero" fill="rgb(70.196078%, 70.196078%, 70.196078%)" fill-opacity="1" stroke-width="1" stroke-linecap="butt" stroke-linejoin="miter" stroke="rgb(70.196078%, 70.196078%, 70.196078%)" stroke-opacity="1" stroke-miterlimit="10" d="M 105.015625 574.25 C 105.015625 580.71875 95.3125 580.71875 95.3125 574.25 C 95.3125 567.785156 105.015625 567.785156 105.015625 574.25 "/>
<path fill-rule="nonzero" fill="rgb(70.196078%, 70.196078%, 70.196078%)" fill-opacity="1" stroke-width="1" stroke-linecap="butt" stroke-linejoin="miter" stroke="rgb(70.196078%, 70.196078%, 70.196078%)" stroke-opacity="1" stroke-miterlimit="10" d="M 136.449219 463.820312 C 136.449219 470.285156 126.75 470.285156 126.75 463.820312 C 126.75 457.351562 136.449219 457.351562 136.449219 463.820312 "/>
<path fill-rule="nonzero" fill="rgb(100%, 84.313725%, 0%)" fill-opacity="1" stroke-width="1" stroke-linecap="butt" stroke-linejoin="miter" stroke="rgb(100%, 84.313725%, 0%)" stroke-opacity="1" stroke-miterlimit="10" d="M 44.648438 744.648438 L 55.347656 744.648438 L 55.347656 755.347656 L 44.648438 755.347656 Z M 44.648438 744.648438 "/>
<path fill-rule="nonzero" fill="rgb(70.196078%, 70.196078%, 70.196078%)" fill-opacity="1" stroke-width="1" stroke-linecap="butt" stroke-linejoin="miter" stroke="rgb(70.196078%, 70.196078%, 70.196078%)" stroke-opacity="1" stroke-miterlimit="10" d="M 77.261719 674.34375 C 77.261719 680.808594 67.558594 680.808594 67.558594 674.34375 C 67.558594 667.875 77.261719 667.875 77.261719 674.34375 "/>
<path fill-rule="nonzero" fill="rgb(70.196078%, 70.196078%, 70.196078%)" fill-opacity="1" stroke-width="1" stroke-linecap="butt" stroke-linejoin="miter" stroke="rgb(70.196078%, 70.196078%, 70.196078%)" stroke-opacity="1" stroke-miterlimit="10" d="M 65.132812 716.863281 C 65.132812 723.328125 55.433594 723.328125 55.433594 716.863281 C 55.433594 710.394531 65.132812 710.394531 65.132812 716.863281 "/>
</svg>
