<?xml version="1.0" encoding="UTF-8"?>
<svg xmlns="http://www.w3.org/2000/svg" xmlns:xlink="http://www.w3.org/1999/xlink" width="800" height="800" viewBox="0 0 800 800">
<rect x="-80" y="-80" width="960" height="960" fill="rgb(100%, 100%, 100%)" fill-opacity="1"/>
<path fill="none" stroke-width="1.5" stroke-linecap="butt" stroke-linejoin="miter" stroke="rgb(41.568627%, 23.921569%, 60.392157%)" stroke-opacity="1" stroke-miterlimit="10" d="M 303.964844 346.257812 C 305.453125 330.925781 301.769531 316.726562 290.460938 306.335938 "/>
<path fill-rule="nonzero" fill="rgb(41.568627%, 23.921569%, 60.392157%)" fill-opacity="1" d="M 285.207031 301.511719 L 292.03125 304.628906 L 288.894531 308.042969 L 285.207031 301.511719 "/>
<path fill="none" stroke-width="3.5" stroke-linecap="butt" stroke-linejoin="miter" stroke="rgb(70.196078%, 70.196078%, 70.196078%)" stroke-opacity="1" stroke-miterlimit="10" d="M 303.964844 346.257812 C 312.039062 327.007812 312.589844 307.40625 302.496094 289.175781 "/>
<path fill-rule="nonzero" fill="rgb(70.196078%, 70.196078%, 70.196078%)" fill-opacity="1" d="M 299.039062 282.933594 L 304.523438 288.050781 L 300.46875 290.296875 L 299.039062 282.933594 "/>
<path fill="none" stroke-width="1.5" stroke-linecap="butt" stroke-linejoin="miter" stroke="rgb(98.431373%, 60.392157%, 60%)" stroke-opacity="1" stroke-miterlimit="10" d="M 303.964844 346.257812 C 292.234375 347.75 282.050781 352.832031 276.375 363.144531 "/>
<path fill-rule="nonzero" fill="rgb(98.431373%, 60.392157%, 60%)" fill-opacity="1" d="M 272.9375 369.394531 L 274.34375 362.027344 L 278.40625 364.261719 L 272.9375 369.394531 "/>
<path fill="none" stroke-width="1.5" stroke-linecap="butt" stroke-linejoin="miter" stroke="rgb(41.568627%, 23.921569%, 60.392157%)" stroke-opacity="1" stroke-miterlimit="10" d="M 280.121094 296.835938 C 278.632812 312.167969 282.316406 326.367188 293.625 336.757812 "/>
<path fill-rule="nonzero" fill="rgb(41.568627%, 23.921569%, 60.392157%)" fill-opacity="1" d="M 298.878906 341.582031 L 292.058594 338.464844 L 295.191406 335.050781 L 298.878906 341.582031 "/>
<path fill="none" stroke-width="1.5" stroke-linecap="butt" stroke-linejoin="miter" stroke="rgb(98.431373%, 60.392157%, 60%)" stroke-opacity="1" stroke-miterlimit="10" d="M 280.121094 296.835938 C 278.152344 291.027344 274.582031 285.832031 268.691406 284.554688 "/>
<path fill-rule="nonzero" fill="rgb(98.431373%, 60.392157%, 60%)" fill-opacity="1" d="M 261.722656 283.042969 L 269.183594 282.289062 L 268.203125 286.820312 L 261.722656 283.042969 "/>
<path fill="none" stroke-width="1.5" stroke-linecap="butt" stroke-linejoin="miter" stroke="rgb(41.568627%, 23.921569%, 60.392157%)" stroke-opacity="1" stroke-miterlimit="10" d="M 280.121094 296.835938 C 285.09375 296.246094 290.085938 294.320312 291.863281 289.785156 "/>
<path fill-rule="nonzero" fill="rgb(41.568627%, 23.921569%, 60.392157%)" fill-opacity="1" d="M 294.464844 283.144531 L 294.019531 290.628906 L 289.703125 288.941406 L 294.464844 283.144531 "/>
<path fill="none" stroke-width="2.5" stroke-linecap="butt" stroke-linejoin="miter" stroke="rgb(70.196078%, 70.196078%, 70.196078%)" stroke-opacity="1" stroke-miterlimit="10" d="M 238.300781 360.519531 C 249.761719 333.683594 250.296875 306.535156 236.769531 280.707031 "/>
<path fill-rule="nonzero" fill="rgb(70.196078%, 70.196078%, 70.196078%)" fill-opacity="1" d="M 233.460938 274.386719 L 238.824219 279.628906 L 234.71875 281.78125 L 233.460938 274.386719 "/>
<path fill="none" stroke-width="1.5" stroke-linecap="butt" stroke-linejoin="miter" stroke="rgb(98.431373%, 60.392157%, 60%)" stroke-opacity="1" stroke-miterlimit="10" d="M 238.300781 360.519531 C 247.691406 345.929688 251.117188 329.90625 245.351562 313.582031 "/>
<path fill-rule="nonzero" fill="rgb(98.431373%, 60.392157%, 60%)" fill-opacity="1" d="M 242.976562 306.855469 L 247.539062 312.808594 L 243.167969 314.355469 L 242.976562 306.855469 "/>
<path fill="none" stroke-width="1.5" stroke-linecap="butt" stroke-linejoin="miter" stroke="rgb(12.156863%, 47.058824%, 70.588235%)" stroke-opacity="1" stroke-miterlimit="10" d="M 238.300781 360.519531 C 238.019531 350.097656 234.542969 340.542969 225.902344 334.832031 "/>
<path fill-rule="nonzero" fill="rgb(12.156863%, 47.058824%, 70.588235%)" fill-opacity="1" d="M 219.953125 330.898438 L 227.179688 332.898438 L 224.625 336.765625 L 219.953125 330.898438 "/>
<path fill="none" stroke-width="1.5" stroke-linecap="butt" stroke-linejoin="miter" stroke="rgb(98.431373%, 60.392157%, 60%)" stroke-opacity="1" stroke-miterlimit="10" d="M 238.300781 360.519531 C 245.195312 331.730469 241.058594 304.527344 223.183594 280.960938 "/>
<path fill-rule="nonzero" fill="rgb(98.431373%, 60.392157%, 60%)" fill-opacity="1" d="M 218.871094 275.277344 L 225.03125 279.558594 L 221.335938 282.359375 L 218.871094 275.277344 "/>
<path fill="none" stroke-width="2.5" stroke-linecap="butt" stroke-linejoin="miter" stroke="rgb(70.196078%, 70.196078%, 70.196078%)" stroke-opacity="1" stroke-miterlimit="10" d="M 231.320312 270.296875 C 219.855469 295.90625 218.796875 322.054688 231.472656 347.054688 "/>
<path fill-rule="nonzero" fill="rgb(70.196078%, 70.196078%, 70.196078%)" fill-opacity="1" d="M 234.699219 353.414062 L 229.40625 348.101562 L 233.539062 346.003906 L 234.699219 353.414062 "/>
<path fill="none" stroke-width="1.5" stroke-linecap="butt" stroke-linejoin="miter" stroke="rgb(12.156863%, 47.058824%, 70.588235%)" stroke-opacity="1" stroke-miterlimit="10" d="M 322.683594 707.203125 C 309.554688 714.578125 300.277344 725.46875 298.210938 740.34375 "/>
<path fill-rule="nonzero" fill="rgb(12.156863%, 47.058824%, 70.588235%)" fill-opacity="1" d="M 297.230469 747.40625 L 295.914062 740.023438 L 300.507812 740.660156 L 297.230469 747.40625 "/>
<path fill="none" stroke-width="1.5" stroke-linecap="butt" stroke-linejoin="miter" stroke="rgb(98.431373%, 60.392157%, 60%)" stroke-opacity="1" stroke-miterlimit="10" d="M 259.003906 282.453125 C 241.988281 300.09375 233.210938 321.289062 236.359375 345.558594 "/>
<path fill-rule="nonzero" fill="rgb(98.431373%, 60.392157%, 60%)" fill-opacity="1" d="M 237.277344 352.632812 L 234.0625 345.855469 L 238.65625 345.261719 L 237.277344 352.632812 "/>
<path fill="none" stroke-width="5.5" stroke-linecap="butt" stroke-linejoin="miter" stroke="rgb(70.196078%, 70.196078%, 70.196078%)" stroke-opacity="1" stroke-miterlimit="10" d="M 474.800781 349.152344 C 461.613281 349.257812 449.730469 353.59375 442.011719 364.222656 "/>
<path fill-rule="nonzero" fill="rgb(70.196078%, 70.196078%, 70.196078%)" fill-opacity="1" d="M 437.820312 369.996094 L 440.136719 362.863281 L 443.886719 365.585938 L 437.820312 369.996094 "/>
<path fill="none" stroke-width="5.5" stroke-linecap="butt" stroke-linejoin="miter" stroke="rgb(70.196078%, 70.196078%, 70.196078%)" stroke-opacity="1" stroke-miterlimit="10" d="M 648.925781 185.386719 C 635.753906 189.835938 625.351562 198.101562 621.066406 211.269531 "/>
<path fill-rule="nonzero" fill="rgb(70.196078%, 70.196078%, 70.196078%)" fill-opacity="1" d="M 618.859375 218.054688 L 618.859375 210.554688 L 623.269531 211.988281 L 618.859375 218.054688 "/>
<path fill="none" stroke-width="2.5" stroke-linecap="butt" stroke-linejoin="miter" stroke="rgb(70.196078%, 70.196078%, 70.196078%)" stroke-opacity="1" stroke-miterlimit="10" d="M 296.40625 278.179688 C 288.328125 296.878906 287.539062 316.03125 297.25 333.894531 "/>
<path fill-rule="nonzero" fill="rgb(70.196078%, 70.196078%, 70.196078%)" fill-opacity="1" d="M 300.65625 340.164062 L 295.210938 335.003906 L 299.285156 332.789062 L 300.65625 340.164062 "/>
<path fill="none" stroke-width="2.5" stroke-linecap="butt" stroke-linejoin="miter" stroke="rgb(41.568627%, 23.921569%, 60.392157%)" stroke-opacity="1" stroke-miterlimit="10" d="M 296.40625 278.179688 C 291.890625 278.484375 287.167969 279.976562 285.480469 284.007812 "/>
<path fill-rule="nonzero" fill="rgb(41.568627%, 23.921569%, 60.392157%)" fill-opacity="1" d="M 282.730469 290.589844 L 283.34375 283.117188 L 287.621094 284.902344 L 282.730469 290.589844 "/>
<path fill="none" stroke-width="1.5" stroke-linecap="butt" stroke-linejoin="miter" stroke="rgb(98.431373%, 60.392157%, 60%)" stroke-opacity="1" stroke-miterlimit="10" d="M 241.945312 303.941406 C 250.660156 307.914062 260.007812 308.980469 268.140625 304.070312 "/>
<path fill-rule="nonzero" fill="rgb(98.431373%, 60.392157%, 60%)" fill-opacity="1" d="M 274.246094 300.382812 L 269.339844 306.054688 L 266.945312 302.085938 L 274.246094 300.382812 "/>
<path fill="none" stroke-width="1.5" stroke-linecap="butt" stroke-linejoin="miter" stroke="rgb(98.431373%, 60.392157%, 60%)" stroke-opacity="1" stroke-miterlimit="10" d="M 241.945312 303.941406 C 233.167969 304.878906 225.171875 308.398438 221.097656 316.144531 "/>
<path fill-rule="nonzero" fill="rgb(98.431373%, 60.392157%, 60%)" fill-opacity="1" d="M 217.777344 322.457031 L 219.046875 315.066406 L 223.148438 317.222656 L 217.777344 322.457031 "/>
<path fill="none" stroke-width="1.5" stroke-linecap="butt" stroke-linejoin="miter" stroke="rgb(98.431373%, 60.392157%, 60%)" stroke-opacity="1" stroke-miterlimit="10" d="M 215.042969 327.652344 C 215.027344 337.414062 217.980469 346.539062 225.964844 352.03125 "/>
<path fill-rule="nonzero" fill="rgb(98.431373%, 60.392157%, 60%)" fill-opacity="1" d="M 231.839844 356.074219 L 224.648438 353.941406 L 227.277344 350.121094 L 231.839844 356.074219 "/>
<path fill="none" stroke-width="1.5" stroke-linecap="butt" stroke-linejoin="miter" stroke="rgb(98.431373%, 60.392157%, 60%)" stroke-opacity="1" stroke-miterlimit="10" d="M 215.042969 327.652344 C 224.628906 326.210938 233.085938 321.929688 237.339844 313.292969 "/>
<path fill-rule="nonzero" fill="rgb(98.431373%, 60.392157%, 60%)" fill-opacity="1" d="M 240.492188 306.894531 L 239.417969 314.320312 L 235.257812 312.269531 L 240.492188 306.894531 "/>
<path fill="none" stroke-width="1.5" stroke-linecap="butt" stroke-linejoin="miter" stroke="rgb(12.156863%, 47.058824%, 70.588235%)" stroke-opacity="1" stroke-miterlimit="10" d="M 215.042969 327.652344 C 207.234375 314.082031 195.808594 304.589844 180.324219 302.570312 "/>
<path fill-rule="nonzero" fill="rgb(12.156863%, 47.058824%, 70.588235%)" fill-opacity="1" d="M 173.25 301.648438 L 180.625 300.273438 L 180.023438 304.867188 L 173.25 301.648438 "/>
<path fill="none" stroke-width="1.5" stroke-linecap="butt" stroke-linejoin="miter" stroke="rgb(12.156863%, 47.058824%, 70.588235%)" stroke-opacity="1" stroke-miterlimit="10" d="M 156.613281 272.28125 C 155.300781 280.46875 156.5 288.601562 162.53125 294.171875 "/>
<path fill-rule="nonzero" fill="rgb(12.156863%, 47.058824%, 70.588235%)" fill-opacity="1" d="M 167.769531 299.015625 L 160.960938 295.875 L 164.105469 292.472656 L 167.769531 299.015625 "/>
<path fill="none" stroke-width="1.5" stroke-linecap="butt" stroke-linejoin="miter" stroke="rgb(98.431373%, 60.392157%, 60%)" stroke-opacity="1" stroke-miterlimit="10" d="M 271.675781 371.683594 C 267.25 365.101562 261.082031 360.082031 253.242188 360.234375 "/>
<path fill-rule="nonzero" fill="rgb(98.431373%, 60.392157%, 60%)" fill-opacity="1" d="M 246.109375 360.367188 L 253.199219 357.914062 L 253.285156 362.550781 L 246.109375 360.367188 "/>
<path fill="none" stroke-width="1.5" stroke-linecap="butt" stroke-linejoin="miter" stroke="rgb(12.156863%, 47.058824%, 70.588235%)" stroke-opacity="1" stroke-miterlimit="10" d="M 132.234375 289.828125 C 126.234375 282.820312 118.507812 278.113281 109.40625 279.078125 "/>
<path fill-rule="nonzero" fill="rgb(12.156863%, 47.058824%, 70.588235%)" fill-opacity="1" d="M 102.3125 279.832031 L 109.160156 276.773438 L 109.652344 281.382812 L 102.3125 279.832031 "/>
<path fill="none" stroke-width="4.5" stroke-linecap="butt" stroke-linejoin="miter" stroke="rgb(70.196078%, 70.196078%, 70.196078%)" stroke-opacity="1" stroke-miterlimit="10" d="M 348.492188 418.65625 C 347.082031 392.308594 336.765625 369.929688 315.390625 354.503906 "/>
<path fill-rule="nonzero" fill="rgb(70.196078%, 70.196078%, 70.196078%)" fill-opacity="1" d="M 309.605469 350.328125 L 316.746094 352.625 L 314.035156 356.382812 L 309.605469 350.328125 "/>
<path fill="none" stroke-width="1.5" stroke-linecap="butt" stroke-linejoin="miter" stroke="rgb(12.156863%, 47.058824%, 70.588235%)" stroke-opacity="1" stroke-miterlimit="10" d="M 348.492188 418.65625 C 321.53125 468.535156 316.714844 520.515625 337.222656 573.367188 "/>
<path fill-rule="nonzero" fill="rgb(12.156863%, 47.058824%, 70.588235%)" fill-opacity="1" d="M 339.800781 580.015625 L 335.0625 574.203125 L 339.382812 572.527344 L 339.800781 580.015625 "/>
<path fill="none" stroke-width="1.5" stroke-linecap="butt" stroke-linejoin="miter" stroke="rgb(12.156863%, 47.058824%, 70.588235%)" stroke-opacity="1" stroke-miterlimit="10" d="M 250.667969 552.878906 C 275.671875 492.242188 274.882812 431.886719 244.96875 373.527344 "/>
<path fill-rule="nonzero" fill="rgb(12.156863%, 47.058824%, 70.588235%)" fill-opacity="1" d="M 241.714844 367.179688 L 247.03125 372.472656 L 242.90625 374.585938 L 241.714844 367.179688 "/>
<path fill="none" stroke-width="1.5" stroke-linecap="butt" stroke-linejoin="miter" stroke="rgb(12.156863%, 47.058824%, 70.588235%)" stroke-opacity="1" stroke-miterlimit="10" d="M 340.753906 582.46875 C 316.558594 617.808594 308.566406 656.554688 320.0625 697.796875 "/>
<path fill-rule="nonzero" fill="rgb(12.156863%, 47.058824%, 70.588235%)" fill-opacity="1" d="M 321.976562 704.667969 L 317.828125 698.417969 L 322.292969 697.175781 L 321.976562 704.667969 "/>
<path fill="none" stroke-width="5.5" stroke-linecap="butt" stroke-linejoin="miter" stroke="rgb(70.196078%, 70.196078%, 70.196078%)" stroke-opacity="1" stroke-miterlimit="10" d="M 512.886719 321.542969 C 499.707031 322.585938 488.136719 327.761719 481.171875 338.933594 "/>
<path fill-rule="nonzero" fill="rgb(70.196078%, 70.196078%, 70.196078%)" fill-opacity="1" d="M 477.398438 344.988281 L 479.207031 337.710938 L 483.140625 340.160156 L 477.398438 344.988281 "/>
<path fill="none" stroke-width="5.5" stroke-linecap="butt" stroke-linejoin="miter" stroke="rgb(70.196078%, 70.196078%, 70.196078%)" stroke-opacity="1" stroke-miterlimit="10" d="M 584.035156 258.386719 C 570.84375 261.207031 559.859375 268 554.292969 280.230469 "/>
<path fill-rule="nonzero" fill="rgb(70.196078%, 70.196078%, 70.196078%)" fill-opacity="1" d="M 551.335938 286.722656 L 552.183594 279.269531 L 556.402344 281.191406 L 551.335938 286.722656 "/>
<path fill="none" stroke-width="5.5" stroke-linecap="butt" stroke-linejoin="miter" stroke="rgb(70.196078%, 70.196078%, 70.196078%)" stroke-opacity="1" stroke-miterlimit="10" d="M 750 50 C 742.183594 52.652344 735.550781 57.488281 733.480469 65.390625 "/>
<path fill-rule="nonzero" fill="rgb(70.196078%, 70.196078%, 70.196078%)" fill-opacity="1" d="M 731.671875 72.292969 L 731.238281 64.804688 L 735.722656 65.980469 L 731.671875 72.292969 "/>
<path fill="none" stroke-width="1.5" stroke-linecap="butt" stroke-linejoin="miter" stroke="rgb(98.431373%, 60.392157%, 60%)" stroke-opacity="1" stroke-miterlimit="10" d="M 217.285156 273.183594 C 208.746094 286.246094 205.410156 300.710938 210.648438 315.363281 "/>
<path fill-rule="nonzero" fill="rgb(98.431373%, 60.392157%, 60%)" fill-opacity="1" d="M 213.050781 322.078125 L 208.46875 316.144531 L 212.832031 314.582031 L 213.050781 322.078125 "/>
<path fill="none" stroke-width="1.5" stroke-linecap="butt" stroke-linejoin="miter" stroke="rgb(12.156863%, 47.058824%, 70.588235%)" stroke-opacity="1" stroke-miterlimit="10" d="M 296.867188 750 C 298.359375 729.875 292.828125 711.746094 277.988281 698.117188 "/>
<path fill-rule="nonzero" fill="rgb(12.156863%, 47.058824%, 70.588235%)" fill-opacity="1" d="M 272.734375 693.292969 L 279.554688 696.410156 L 276.421875 699.824219 L 272.734375 693.292969 "/>
<path fill="none" stroke-width="1.5" stroke-linecap="butt" stroke-linejoin="miter" stroke="rgb(12.156863%, 47.058824%, 70.588235%)" stroke-opacity="1" stroke-miterlimit="10" d="M 170.1875 301.246094 C 171.445312 292.886719 170.125 284.625 163.9375 278.976562 "/>
<path fill-rule="nonzero" fill="rgb(12.156863%, 47.058824%, 70.588235%)" fill-opacity="1" d="M 158.671875 274.164062 L 165.503906 277.265625 L 162.375 280.6875 L 158.671875 274.164062 "/>
<path fill="none" stroke-width="1.5" stroke-linecap="butt" stroke-linejoin="miter" stroke="rgb(12.156863%, 47.058824%, 70.588235%)" stroke-opacity="1" stroke-miterlimit="10" d="M 170.1875 301.246094 C 162.699219 292.878906 153.21875 287.59375 142.105469 288.777344 "/>
<path fill-rule="nonzero" fill="rgb(12.156863%, 47.058824%, 70.588235%)" fill-opacity="1" d="M 135.015625 289.53125 L 141.863281 286.472656 L 142.351562 291.082031 L 135.015625 289.53125 "/>
<path fill="none" stroke-width="1.5" stroke-linecap="butt" stroke-linejoin="miter" stroke="rgb(12.156863%, 47.058824%, 70.588235%)" stroke-opacity="1" stroke-miterlimit="10" d="M 71.519531 272.832031 C 68.789062 269.261719 64.976562 266.195312 60.707031 266.996094 "/>
<path fill-rule="nonzero" fill="rgb(12.156863%, 47.058824%, 70.588235%)" fill-opacity="1" d="M 53.695312 268.304688 L 60.28125 264.714844 L 61.132812 269.273438 L 53.695312 268.304688 "/>
<path fill="none" stroke-width="1.5" stroke-linecap="butt" stroke-linejoin="miter" stroke="rgb(12.156863%, 47.058824%, 70.588235%)" stroke-opacity="1" stroke-miterlimit="10" d="M 99.535156 280.128906 C 94.765625 274.523438 88.554688 270.53125 81.347656 271.503906 "/>
<path fill-rule="nonzero" fill="rgb(12.156863%, 47.058824%, 70.588235%)" fill-opacity="1" d="M 74.28125 272.457031 L 81.039062 269.207031 L 81.660156 273.800781 L 74.28125 272.457031 "/>
<path fill="none" stroke-width="1.5" stroke-linecap="butt" stroke-linejoin="miter" stroke="rgb(12.156863%, 47.058824%, 70.588235%)" stroke-opacity="1" stroke-miterlimit="10" d="M 270.800781 691.519531 C 285.378906 645.820312 281.359375 601.761719 255.859375 561.148438 "/>
<path fill-rule="nonzero" fill="rgb(12.156863%, 47.058824%, 70.588235%)" fill-opacity="1" d="M 252.066406 555.105469 L 257.824219 559.914062 L 253.898438 562.378906 L 252.066406 555.105469 "/>
<path fill="none" stroke-width="5.5" stroke-linecap="butt" stroke-linejoin="miter" stroke="rgb(70.196078%, 70.196078%, 70.196078%)" stroke-opacity="1" stroke-miterlimit="10" d="M 434.9375 373.96875 C 421.503906 373.285156 409.171875 377 400.660156 387.347656 "/>
<path fill-rule="nonzero" fill="rgb(70.196078%, 70.196078%, 70.196078%)" fill-opacity="1" d="M 396.128906 392.855469 L 398.867188 385.875 L 402.449219 388.820312 L 396.128906 392.855469 "/>
<path fill="none" stroke-width="5.5" stroke-linecap="butt" stroke-linejoin="miter" stroke="rgb(70.196078%, 70.196078%, 70.196078%)" stroke-opacity="1" stroke-miterlimit="10" d="M 393.007812 396.648438 C 378.882812 395.496094 365.820312 399.042969 356.46875 409.628906 "/>
<path fill-rule="nonzero" fill="rgb(70.196078%, 70.196078%, 70.196078%)" fill-opacity="1" d="M 351.746094 414.976562 L 354.730469 408.097656 L 358.203125 411.164062 L 351.746094 414.976562 "/>
<path fill="none" stroke-width="5.5" stroke-linecap="butt" stroke-linejoin="miter" stroke="rgb(70.196078%, 70.196078%, 70.196078%)" stroke-opacity="1" stroke-miterlimit="10" d="M 678.714844 147.699219 C 665.984375 152.441406 656.042969 160.820312 652.277344 173.820312 "/>
<path fill-rule="nonzero" fill="rgb(70.196078%, 70.196078%, 70.196078%)" fill-opacity="1" d="M 650.292969 180.667969 L 650.050781 173.171875 L 654.503906 174.464844 L 650.292969 180.667969 "/>
<path fill="none" stroke-width="5.5" stroke-linecap="butt" stroke-linejoin="miter" stroke="rgb(70.196078%, 70.196078%, 70.196078%)" stroke-opacity="1" stroke-miterlimit="10" d="M 549.300781 291.191406 C 536.089844 293.152344 524.804688 299.175781 518.546875 310.917969 "/>
<path fill-rule="nonzero" fill="rgb(70.196078%, 70.196078%, 70.196078%)" fill-opacity="1" d="M 515.195312 317.210938 L 516.503906 309.828125 L 520.59375 312.007812 L 515.195312 317.210938 "/>
<path fill="none" stroke-width="5.5" stroke-linecap="butt" stroke-linejoin="miter" stroke="rgb(70.196078%, 70.196078%, 70.196078%)" stroke-opacity="1" stroke-miterlimit="10" d="M 617.335938 222.722656 C 604.003906 226.507812 593.234375 234.222656 588.320312 247.132812 "/>
<path fill-rule="nonzero" fill="rgb(70.196078%, 70.196078%, 70.196078%)" fill-opacity="1" d="M 585.78125 253.796875 L 586.152344 246.304688 L 590.484375 247.957031 L 585.78125 253.796875 "/>
<path fill="none" stroke-width="5.5" stroke-linecap="butt" stroke-linejoin="miter" stroke="rgb(70.196078%, 70.196078%, 70.196078%)" stroke-opacity="1" stroke-miterlimit="10" d="M 730.4375 77.011719 C 719.964844 81.191406 711.679688 88.304688 709 99.195312 "/>
<path fill-rule="nonzero" fill="rgb(70.196078%, 70.196078%, 70.196078%)" fill-opacity="1" d="M 707.296875 106.125 L 706.75 98.644531 L 711.25 99.75 L 707.296875 106.125 "/>
<path fill="none" stroke-width="5.5" stroke-linecap="butt" stroke-linejoin="miter" stroke="rgb(70.196078%, 70.196078%, 70.196078%)" stroke-opacity="1" stroke-miterlimit="10" d="M 706.125 110.878906 C 694.226562 115.613281 684.964844 123.707031 681.75 136.050781 "/>
<path fill-rule="nonzero" fill="rgb(70.196078%, 70.196078%, 70.196078%)" fill-opacity="1" d="M 679.953125 142.953125 L 679.507812 135.464844 L 683.992188 136.632812 L 679.953125 142.953125 "/>
<path fill-rule="nonzero" fill="rgb(14.901961%, 14.901961%, 14.901961%)" fill-opacity="1" stroke-width="1" stroke-linecap="butt" stroke-linejoin="miter" stroke="rgb(14.901961%, 14.901961%, 14.901961%)" stroke-opacity="1" stroke-miterlimit="10" d="M 297.117188 353.105469 L 303.964844 339.40625 L 310.816406 353.105469 Z M 297.117188 353.105469 "/>
<path fill-rule="nonzero" fill="rgb(14.901961%, 14.901961%, 14.901961%)" fill-opacity="1" stroke-width="1" stroke-linecap="butt" stroke-linejoin="miter" stroke="rgb(14.901961%, 14.901961%, 14.901961%)" stroke-opacity="1" stroke-miterlimit="10" d="M 273.269531 303.683594 L 280.121094 289.984375 L 286.96875 303.683594 Z M 273.269531 303.683594 "/>
<path fill-rule="nonzero" fill="rgb(14.901961%, 14.901961%, 14.901961%)" fill-opacity="1" stroke-width="1" stroke-linecap="butt" stroke-linejoin="miter" stroke="rgb(14.901961%, 14.901961%, 14.901961%)" stroke-opacity="1" stroke-miterlimit="10" d="M 230.449219 368.367188 L 238.300781 352.667969 L 246.148438 368.367188 Z M 230.449219 368.367188 "/>
<path fill-rule="nonzero" fill="rgb(70.196078%, 70.196078%, 70.196078%)" fill-opacity="1" stroke-width="1" stroke-linecap="butt" stroke-linejoin="miter" stroke="rgb(70.196078%, 70.196078%, 70.196078%)" stroke-opacity="1" stroke-miterlimit="10" d="M 236.167969 270.296875 C 236.167969 276.761719 226.46875 276.761719 226.46875 270.296875 C 226.46875 263.828125 236.167969 263.828125 236.167969 270.296875 "/>
<path fill-rule="nonzero" fill="rgb(12.156863%, 47.058824%, 70.588235%)" fill-opacity="1" stroke-width="1" stroke-linecap="butt" stroke-linejoin="miter" stroke="rgb(12.156863%, 47.058824%, 70.588235%)" stroke-opacity="1" stroke-miterlimit="10" d="M 325.433594 707.203125 C 325.433594 710.867188 319.933594 710.867188 319.933594 707.203125 C 319.933594 703.535156 325.433594 703.535156 325.433594 707.203125 "/>
<path fill-rule="nonzero" fill="rgb(98.431373%, 60.392157%, 60%)" fill-opacity="1" stroke-width="1" stroke-linecap="butt" stroke-linejoin="miter" stroke="rgb(98.431373%, 60.392157%, 60%)" stroke-opacity="1" stroke-miterlimit="10" d="M 261.753906 282.453125 C 261.753906 286.121094 256.253906 286.121094 256.253906 282.453125 C 256.253906 278.789062 261.753906 278.789062 261.753906 282.453125 "/>
<path fill-rule="nonzero" fill="rgb(70.196078%, 70.196078%, 70.196078%)" fill-opacity="1" stroke-width="1" stroke-linecap="butt" stroke-linejoin="miter" stroke="rgb(70.196078%, 70.196078%, 70.196078%)" stroke-opacity="1" stroke-miterlimit="10" d="M 479.652344 349.152344 C 479.652344 355.621094 469.953125 355.621094 469.953125 349.152344 C 469.953125 342.6875 479.652344 342.6875 479.652344 349.152344 "/>
<path fill-rule="nonzero" fill="rgb(70.196078%, 70.196078%, 70.196078%)" fill-opacity="1" stroke-width="1" stroke-linecap="butt" stroke-linejoin="miter" stroke="rgb(70.196078%, 70.196078%, 70.196078%)" stroke-opacity="1" stroke-miterlimit="10" d="M 653.773438 185.386719 C 653.773438 191.851562 644.074219 191.851562 644.074219 185.386719 C 644.074219 178.917969 653.773438 178.917969 653.773438 185.386719 "/>
<path fill-rule="nonzero" fill="rgb(70.196078%, 70.196078%, 70.196078%)" fill-opacity="1" stroke-width="1" stroke-linecap="butt" stroke-linejoin="miter" stroke="rgb(70.196078%, 70.196078%, 70.196078%)" stroke-opacity="1" stroke-miterlimit="10" d="M 301.757812 278.179688 C 301.757812 285.3125 291.054688 285.3125 291.054688 278.179688 C 291.054688 271.046875 301.757812 271.046875 301.757812 278.179688 "/>
<path fill-rule="nonzero" fill="rgb(98.431373%, 60.392157%, 60%)" fill-opacity="1" stroke-width="1" stroke-linecap="butt" stroke-linejoin="miter" stroke="rgb(98.431373%, 60.392157%, 60%)" stroke-opacity="1" stroke-miterlimit="10" d="M 245.195312 303.941406 C 245.195312 308.273438 238.695312 308.273438 238.695312 303.941406 C 238.695312 299.605469 245.195312 299.605469 245.195312 303.941406 "/>
<path fill-rule="nonzero" fill="rgb(70.196078%, 70.196078%, 70.196078%)" fill-opacity="1" stroke-width="1" stroke-linecap="butt" stroke-linejoin="miter" stroke="rgb(70.196078%, 70.196078%, 70.196078%)" stroke-opacity="1" stroke-miterlimit="10" d="M 220.894531 327.652344 C 220.894531 330.882812 218.273438 333.5 215.042969 333.5 C 211.8125 333.5 209.195312 330.882812 209.195312 327.652344 C 209.195312 324.421875 211.8125 321.800781 215.042969 321.800781 C 218.273438 321.800781 220.894531 324.421875 220.894531 327.652344 "/>
<path fill-rule="nonzero" fill="rgb(12.156863%, 47.058824%, 70.588235%)" fill-opacity="1" stroke-width="1" stroke-linecap="butt" stroke-linejoin="miter" stroke="rgb(12.156863%, 47.058824%, 70.588235%)" stroke-opacity="1" stroke-miterlimit="10" d="M 159.363281 272.28125 C 159.363281 275.949219 153.863281 275.949219 153.863281 272.28125 C 153.863281 268.617188 159.363281 268.617188 159.363281 272.28125 "/>
<path fill-rule="nonzero" fill="rgb(98.431373%, 60.392157%, 60%)" fill-opacity="1" stroke-width="1" stroke-linecap="butt" stroke-linejoin="miter" stroke="rgb(98.431373%, 60.392157%, 60%)" stroke-opacity="1" stroke-miterlimit="10" d="M 274.425781 371.683594 C 274.425781 375.351562 268.925781 375.351562 268.925781 371.683594 C 268.925781 368.019531 274.425781 368.019531 274.425781 371.683594 "/>
<path fill-rule="nonzero" fill="rgb(12.156863%, 47.058824%, 70.588235%)" fill-opacity="1" stroke-width="1" stroke-linecap="butt" stroke-linejoin="miter" stroke="rgb(12.156863%, 47.058824%, 70.588235%)" stroke-opacity="1" stroke-miterlimit="10" d="M 134.984375 289.828125 C 134.984375 293.496094 129.484375 293.496094 129.484375 289.828125 C 129.484375 286.160156 134.984375 286.160156 134.984375 289.828125 "/>
<path fill-rule="nonzero" fill="rgb(70.196078%, 70.196078%, 70.196078%)" fill-opacity="1" stroke-width="1" stroke-linecap="butt" stroke-linejoin="miter" stroke="rgb(70.196078%, 70.196078%, 70.196078%)" stroke-opacity="1" stroke-miterlimit="10" d="M 353.34375 418.65625 C 353.34375 425.125 343.640625 425.125 343.640625 418.65625 C 343.640625 412.191406 353.34375 412.191406 353.34375 418.65625 "/>
<path fill-rule="nonzero" fill="rgb(12.156863%, 47.058824%, 70.588235%)" fill-opacity="1" stroke-width="1" stroke-linecap="butt" stroke-linejoin="miter" stroke="rgb(12.156863%, 47.058824%, 70.588235%)" stroke-opacity="1" stroke-miterlimit="10" d="M 253.417969 552.878906 C 253.417969 556.546875 247.917969 556.546875 247.917969 552.878906 C 247.917969 549.210938 253.417969 549.210938 253.417969 552.878906 "/>
<path fill-rule="nonzero" fill="rgb(12.156863%, 47.058824%, 70.588235%)" fill-opacity="1" stroke-width="1" stroke-linecap="butt" stroke-linejoin="miter" stroke="rgb(12.156863%, 47.058824%, 70.588235%)" stroke-opacity="1" stroke-miterlimit="10" d="M 343.503906 582.46875 C 343.503906 586.136719 338.003906 586.136719 338.003906 582.46875 C 338.003906 578.800781 343.503906 578.800781 343.503906 582.46875 "/>
<path fill-rule="nonzero" fill="rgb(70.196078%, 70.196078%, 70.196078%)" fill-opacity="1" stroke-width="1" stroke-linecap="butt" stroke-linejoin="miter" stroke="rgb(70.196078%, 70.196078%, 70.196078%)" stroke-opacity="1" stroke-miterlimit="10" d="M 517.734375 321.542969 C 517.734375 328.011719 508.035156 328.011719 508.035156 321.542969 C 508.035156 315.078125 517.734375 315.078125 517.734375 321.542969 "/>
<path fill-rule="nonzero" fill="rgb(70.196078%, 70.196078%, 70.196078%)" fill-opacity="1" stroke-width="1" stroke-linecap="butt" stroke-linejoin="miter" stroke="rgb(70.196078%, 70.196078%, 70.196078%)" stroke-opacity="1" stroke-miterlimit="10" d="M 588.886719 258.386719 C 588.886719 264.851562 579.183594 264.851562 579.183594 258.386719 C 579.183594 251.921875 588.886719 251.921875 588.886719 258.386719 "/>
<path fill-rule="nonzero" fill="rgb(100%, 84.313725%, 0%)" fill-opacity="1" stroke-width="1" stroke-linecap="butt" stroke-linejoin="miter" stroke="rgb(100%, 84.313725%, 0%)" stroke-opacity="1" stroke-miterlimit="10" d="M 744.648438 44.648438 L 755.347656 44.648438 L 755.347656 55.347656 L 744.648438 55.347656 Z M 744.648438 44.648438 "/>
<path fill-rule="nonzero" fill="rgb(98.431373%, 60.392157%, 60%)" fill-opacity="1" stroke-width="1" stroke-linecap="butt" stroke-linejoin="miter" stroke="rgb(98.431373%, 60.392157%, 60%)" stroke-opacity="1" stroke-miterlimit="10" d="M 220.035156 273.183594 C 220.035156 276.851562 214.535156 276.851562 214.535156 273.183594 C 214.535156 269.515625 220.035156 269.515625 220.035156 273.183594 "/>
<path fill-rule="nonzero" fill="rgb(12.156863%, 47.058824%, 70.588235%)" fill-opacity="1" stroke-width="1" stroke-linecap="butt" stroke-linejoin="miter" stroke="rgb(12.156863%, 47.058824%, 70.588235%)" stroke-opacity="1" stroke-miterlimit="10" d="M 299.617188 750 C 299.617188 753.667969 294.117188 753.667969 294.117188 750 C 294.117188 746.332031 299.617188 746.332031 299.617188 750 "/>
<path fill-rule="nonzero" fill="rgb(12.156863%, 47.058824%, 70.588235%)" fill-opacity="1" stroke-width="1" stroke-linecap="butt" stroke-linejoin="miter" stroke="rgb(12.156863%, 47.058824%, 70.588235%)" stroke-opacity="1" stroke-miterlimit="10" d="M 173.4375 301.246094 C 173.4375 305.578125 166.9375 305.578125 166.9375 301.246094 C 166.9375 296.914062 173.4375 296.914062 173.4375 301.246094 "/>
<path fill-rule="nonzero" fill="rgb(14.901961%, 14.901961%, 14.901961%)" fill-opacity="1" stroke-width="1" stroke-linecap="butt" stroke-linejoin="miter" stroke="rgb(14.901961%, 14.901961%, 14.901961%)" stroke-opacity="1" stroke-miterlimit="10" d="M 46.25 272.742188 L 50 265.242188 L 53.75 272.742188 Z M 46.25 272.742188 "/>
<path fill-rule="nonzero" fill="rgb(12.156863%, 47.058824%, 70.588235%)" fill-opacity="1" stroke-width="1" stroke-linecap="butt" stroke-linejoin="miter" stroke="rgb(12.156863%, 47.058824%, 70.588235%)" stroke-opacity="1" stroke-miterlimit="10" d="M 74.269531 272.832031 C 74.269531 276.496094 68.769531 276.496094 68.769531 272.832031 C 68.769531 269.164062 74.269531 269.164062 74.269531 272.832031 "/>
<path fill-rule="nonzero" fill="rgb(12.156863%, 47.058824%, 70.588235%)" fill-opacity="1" stroke-width="1" stroke-linecap="butt" stroke-linejoin="miter" stroke="rgb(12.156863%, 47.058824%, 70.588235%)" stroke-opacity="1" stroke-miterlimit="10" d="M 102.285156 280.128906 C 102.285156 283.792969 96.785156 283.792969 96.785156 280.128906 C 96.785156 276.460938 102.285156 276.460938 102.285156 280.128906 "/>
<path fill-rule="nonzero" fill="rgb(12.156863%, 47.058824%, 70.588235%)" fill-opacity="1" stroke-width="1" stroke-linecap="butt" stroke-linejoin="miter" stroke="rgb(12.156863%, 47.058824%, 70.588235%)" stroke-opacity="1" stroke-miterlimit="10" d="M 273.550781 691.519531 C 273.550781 695.1875 268.050781 695.1875 268.050781 691.519531 C 268.050781 687.855469 273.550781 687.855469 273.550781 691.519531 "/>
<path fill-rule="nonzero" fill="rgb(70.196078%, 70.196078%, 70.196078%)" fill-opacity="1" stroke-width="1" stroke-linecap="butt" stroke-linejoin="miter" stroke="rgb(70.196078%, 70.196078%, 70.196078%)" stroke-opacity="1" stroke-miterlimit="10" d="M 439.789062 373.96875 C 439.789062 380.433594 430.089844 380.433594 430.089844 373.96875 C 430.089844 367.5 439.789062 367.5 439.789062 373.96875 "/>
<path fill-rule="nonzero" fill="rgb(70.196078%, 70.196078%, 70.196078%)" fill-opacity="1" stroke-width="1" stroke-linecap="butt" stroke-linejoin="miter" stroke="rgb(70.196078%, 70.196078%, 70.196078%)" stroke-opacity="1" stroke-miterlimit="10" d="M 397.859375 396.648438 C 397.859375 403.117188 388.160156 403.117188 388.160156 396.648438 C 388.160156 390.183594 397.859375 390.183594 397.859375 396.648438 "/>
<path fill-rule="nonzero" fill="rgb(70.196078%, 70.196078%, 70.196078%)" fill-opacity="1" stroke-width="1" stroke-linecap="butt" stroke-linejoin="miter" stroke="rgb(70.196078%, 70.196078%, 70.196078%)" stroke-opacity="1" stroke-miterlimit="10" d="M 683.566406 147.699219 C 683.566406 154.167969 673.863281 154.167969 673.863281 147.699219 C 673.863281 141.234375 683.566406 141.234375 683.566406 147.699219 "/>
<path fill-rule="nonzero" fill="rgb(70.196078%, 70.196078%, 70.196078%)" fill-opacity="1" stroke-width="1" stroke-linecap="butt" stroke-linejoin="miter" stroke="rgb(70.196078%, 70.196078%, 70.196078%)" stroke-opacity="1" stroke-miterlimit="10" d="M 554.152344 291.191406 C 554.152344 297.65625 544.453125 297.65625 544.453125 291.191406 C 544.453125 284.722656 554.152344 284.722656 554.152344 291.191406 "/>
<path fill-rule="nonzero" fill="rgb(70.196078%, 70.196078%, 70.196078%)" fill-opacity="1" stroke-width="1" stroke-linecap="butt" stroke-linejoin="miter" stroke="rgb(70.196078%, 70.196078%, 70.196078%)" stroke-opacity="1" stroke-miterlimit="10" d="M 622.1875 222.722656 C 622.1875 229.191406 612.488281 229.191406 612.488281 222.722656 C 612.488281 216.257812 622.1875 216.257812 622.1875 222.722656 "/>
<path fill-rule="nonzero" fill="rgb(70.196078%, 70.196078%, 70.196078%)" fill-opacity="1" stroke-width="1" stroke-linecap="butt" stroke-linejoin="miter" stroke="rgb(70.196078%, 70.196078%, 70.196078%)" stroke-opacity="1" stroke-miterlimit="10" d="M 735.285156 77.011719 C 735.285156 83.476562 725.585938 83.476562 725.585938 77.011719 C 725.585938 70.542969 735.285156 70.542969 735.285156 77.011719 "/>
<path fill-rule="nonzero" fill="rgb(70.196078%, 70.196078%, 70.196078%)" fill-opacity="1" stroke-width="1" stroke-linecap="butt" stroke-linejoin="miter" stroke="rgb(70.196078%, 70.196078%, 70.196078%)" stroke-opacity="1" stroke-miterlimit="10" d="M 710.976562 110.878906 C 710.976562 117.347656 701.277344 117.347656 701.277344 110.878906 C 701.277344 104.414062 710.976562 104.414062 710.976562 110.878906 "/>
</svg>
