<?xml version="1.0" encoding="UTF-8"?>
<svg xmlns="http://www.w3.org/2000/svg" xmlns:xlink="http://www.w3.org/1999/xlink" width="800" height="800" viewBox="0 0 800 800">
<rect x="-80" y="-80" width="960" height="960" fill="rgb(100%, 100%, 100%)" fill-opacity="1"/>
<path fill="none" stroke-width="1.5" stroke-linecap="butt" stroke-linejoin="miter" stroke="rgb(99.215686%, 74.901961%, 43.529412%)" stroke-opacity="1" stroke-miterlimit="10" d="M 512.238281 737.316406 C 493.65625 730.476562 475.050781 730.773438 458.195312 741.109375 "/>
<path fill-rule="nonzero" fill="rgb(99.215686%, 74.901961%, 43.529412%)" fill-opacity="1" d="M 452.113281 744.839844 L 456.984375 739.136719 L 459.40625 743.085938 L 452.113281 744.839844 "/>
<path fill="none" stroke-width="1.5" stroke-linecap="butt" stroke-linejoin="miter" stroke="rgb(99.215686%, 74.901961%, 43.529412%)" stroke-opacity="1" stroke-miterlimit="10" d="M 571.082031 727.929688 C 553.589844 721.722656 536.113281 722.15625 520.472656 732.089844 "/>
<path fill-rule="nonzero" fill="rgb(99.215686%, 74.901961%, 43.529412%)" fill-opacity="1" d="M 514.449219 735.914062 L 519.230469 730.132812 L 521.714844 734.042969 L 514.449219 735.914062 "/>
<path fill="none" stroke-width="1.5" stroke-linecap="butt" stroke-linejoin="miter" stroke="rgb(99.215686%, 74.901961%, 43.529412%)" stroke-opacity="1" stroke-miterlimit="10" d="M 449.878906 746.210938 C 431.648438 737.761719 412.816406 736.546875 394.914062 745.597656 "/>
<path fill-rule="nonzero" fill="rgb(99.215686%, 74.901961%, 43.529412%)" fill-opacity="1" d="M 388.546875 748.816406 L 393.867188 743.53125 L 395.957031 747.667969 L 388.546875 748.816406 "/>
<path fill="none" stroke-width="1.5" stroke-linecap="butt" stroke-linejoin="miter" stroke="rgb(99.215686%, 74.901961%, 43.529412%)" stroke-opacity="1" stroke-miterlimit="10" d="M 386.207031 750 C 369.097656 738.910156 350.355469 735.015625 331.070312 741.535156 "/>
<path fill-rule="nonzero" fill="rgb(99.215686%, 74.901961%, 43.529412%)" fill-opacity="1" d="M 324.3125 743.820312 L 330.328125 739.339844 L 331.8125 743.734375 L 324.3125 743.820312 "/>
<path fill="none" stroke-width="1.5" stroke-linecap="butt" stroke-linejoin="miter" stroke="rgb(99.215686%, 74.901961%, 43.529412%)" stroke-opacity="1" stroke-miterlimit="10" d="M 257.964844 730.617188 C 244.84375 716.675781 228.609375 708.847656 209.578125 710.570312 "/>
<path fill-rule="nonzero" fill="rgb(99.215686%, 74.901961%, 43.529412%)" fill-opacity="1" d="M 202.472656 711.214844 L 209.367188 708.261719 L 209.785156 712.878906 L 202.472656 711.214844 "/>
<path fill="none" stroke-width="1.5" stroke-linecap="butt" stroke-linejoin="miter" stroke="rgb(99.215686%, 74.901961%, 43.529412%)" stroke-opacity="1" stroke-miterlimit="10" d="M 321.828125 744.664062 C 306.121094 731.214844 287.808594 724.800781 267.539062 728.75 "/>
<path fill-rule="nonzero" fill="rgb(99.215686%, 74.901961%, 43.529412%)" fill-opacity="1" d="M 260.539062 730.117188 L 267.097656 726.476562 L 267.984375 731.027344 L 260.539062 730.117188 "/>
<path fill="none" stroke-width="1.5" stroke-linecap="butt" stroke-linejoin="miter" stroke="rgb(12.156863%, 47.058824%, 70.588235%)" stroke-opacity="1" stroke-miterlimit="10" d="M 662.792969 208.03125 C 648.378906 224.046875 641.269531 242.945312 644.816406 264.167969 "/>
<path fill-rule="nonzero" fill="rgb(12.156863%, 47.058824%, 70.588235%)" fill-opacity="1" d="M 645.992188 271.203125 L 642.53125 264.550781 L 647.101562 263.785156 L 645.992188 271.203125 "/>
<path fill="none" stroke-width="1.5" stroke-linecap="butt" stroke-linejoin="miter" stroke="rgb(12.156863%, 47.058824%, 70.588235%)" stroke-opacity="1" stroke-miterlimit="10" d="M 570.328125 405.882812 C 543.277344 414.304688 522.882812 431.011719 512.296875 457.265625 "/>
<path fill-rule="nonzero" fill="rgb(12.156863%, 47.058824%, 70.588235%)" fill-opacity="1" d="M 509.632812 463.878906 L 510.148438 456.398438 L 514.449219 458.132812 L 509.632812 463.878906 "/>
<path fill="none" stroke-width="1.5" stroke-linecap="butt" stroke-linejoin="miter" stroke="rgb(12.156863%, 47.058824%, 70.588235%)" stroke-opacity="1" stroke-miterlimit="10" d="M 613.9375 340.992188 C 591.691406 353.144531 576.621094 371.371094 572.078125 396.285156 "/>
<path fill-rule="nonzero" fill="rgb(12.156863%, 47.058824%, 70.588235%)" fill-opacity="1" d="M 570.796875 403.300781 L 569.796875 395.867188 L 574.359375 396.699219 L 570.796875 403.300781 "/>
<path fill="none" stroke-width="1.5" stroke-linecap="butt" stroke-linejoin="miter" stroke="rgb(98.431373%, 60.392157%, 60%)" stroke-opacity="1" stroke-miterlimit="10" d="M 142.742188 337.722656 C 151.621094 358.058594 166.320312 372.738281 187.722656 378.484375 "/>
<path fill-rule="nonzero" fill="rgb(98.431373%, 60.392157%, 60%)" fill-opacity="1" d="M 194.609375 380.335938 L 187.121094 380.722656 L 188.324219 376.246094 L 194.609375 380.335938 "/>
<path fill="none" stroke-width="1.5" stroke-linecap="butt" stroke-linejoin="miter" stroke="rgb(41.568627%, 23.921569%, 60.392157%)" stroke-opacity="1" stroke-miterlimit="10" d="M 127.785156 217.898438 C 148.007812 209.828125 162.890625 195.871094 169.175781 175.054688 "/>
<path fill-rule="nonzero" fill="rgb(41.568627%, 23.921569%, 60.392157%)" fill-opacity="1" d="M 171.238281 168.226562 L 171.394531 175.722656 L 166.957031 174.382812 L 171.238281 168.226562 "/>
<path fill="none" stroke-width="1.5" stroke-linecap="butt" stroke-linejoin="miter" stroke="rgb(98.431373%, 60.392157%, 60%)" stroke-opacity="1" stroke-miterlimit="10" d="M 127.785156 217.898438 C 112.894531 232.636719 104.902344 250.585938 107.183594 271.378906 "/>
<path fill-rule="nonzero" fill="rgb(98.431373%, 60.392157%, 60%)" fill-opacity="1" d="M 107.960938 278.46875 L 104.878906 271.628906 L 109.488281 271.125 L 107.960938 278.46875 "/>
<path fill="none" stroke-width="1.5" stroke-linecap="butt" stroke-linejoin="miter" stroke="rgb(41.568627%, 23.921569%, 60.392157%)" stroke-opacity="1" stroke-miterlimit="10" d="M 229.289062 122.007812 C 254.4375 127.207031 278.015625 122.992188 297.867188 106.742188 "/>
<path fill-rule="nonzero" fill="rgb(41.568627%, 23.921569%, 60.392157%)" fill-opacity="1" d="M 303.382812 102.222656 L 299.332031 108.535156 L 296.398438 104.945312 L 303.382812 102.222656 "/>
<path fill="none" stroke-width="1.5" stroke-linecap="butt" stroke-linejoin="miter" stroke="rgb(12.156863%, 47.058824%, 70.588235%)" stroke-opacity="1" stroke-miterlimit="10" d="M 646.421875 273.789062 C 627.105469 288.125 615.273438 307.230469 614.320312 331.242188 "/>
<path fill-rule="nonzero" fill="rgb(12.156863%, 47.058824%, 70.588235%)" fill-opacity="1" d="M 614.039062 338.371094 L 612.007812 331.152344 L 616.636719 331.335938 L 614.039062 338.371094 "/>
<path fill="none" stroke-width="1.5" stroke-linecap="butt" stroke-linejoin="miter" stroke="rgb(12.156863%, 47.058824%, 70.588235%)" stroke-opacity="1" stroke-miterlimit="10" d="M 432.667969 542.222656 C 403.617188 541.960938 378.488281 551.890625 359.894531 574.183594 "/>
<path fill-rule="nonzero" fill="rgb(12.156863%, 47.058824%, 70.588235%)" fill-opacity="1" d="M 355.328125 579.664062 L 358.117188 572.699219 L 361.675781 575.667969 L 355.328125 579.664062 "/>
<path fill="none" stroke-width="1.5" stroke-linecap="butt" stroke-linejoin="miter" stroke="rgb(12.156863%, 47.058824%, 70.588235%)" stroke-opacity="1" stroke-miterlimit="10" d="M 643.578125 149.859375 C 640.1875 168.730469 643.585938 186.445312 656.308594 200.746094 "/>
<path fill-rule="nonzero" fill="rgb(12.156863%, 47.058824%, 70.588235%)" fill-opacity="1" d="M 661.050781 206.074219 L 654.578125 202.285156 L 658.039062 199.203125 L 661.050781 206.074219 "/>
<path fill="none" stroke-width="1.5" stroke-linecap="butt" stroke-linejoin="miter" stroke="rgb(98.431373%, 60.392157%, 60%)" stroke-opacity="1" stroke-miterlimit="10" d="M 418.234375 477.269531 C 433.332031 508.691406 457.371094 530.273438 491.175781 538.714844 "/>
<path fill-rule="nonzero" fill="rgb(98.431373%, 60.392157%, 60%)" fill-opacity="1" d="M 498.097656 540.441406 L 490.613281 540.960938 L 491.738281 536.464844 L 498.097656 540.441406 "/>
<path fill="none" stroke-width="1.5" stroke-linecap="butt" stroke-linejoin="miter" stroke="rgb(41.568627%, 23.921569%, 60.392157%)" stroke-opacity="1" stroke-miterlimit="10" d="M 481.328125 161.519531 C 474.675781 183.398438 476.398438 204.722656 489.296875 223.570312 "/>
<path fill-rule="nonzero" fill="rgb(41.568627%, 23.921569%, 60.392157%)" fill-opacity="1" d="M 493.324219 229.457031 L 487.382812 224.878906 L 491.210938 222.261719 L 493.324219 229.457031 "/>
<path fill="none" stroke-width="1.5" stroke-linecap="butt" stroke-linejoin="miter" stroke="rgb(12.156863%, 47.058824%, 70.588235%)" stroke-opacity="1" stroke-miterlimit="10" d="M 508.648438 466.316406 C 474.480469 477.71875 449.277344 499.578125 436.210938 533.125 "/>
<path fill-rule="nonzero" fill="rgb(12.156863%, 47.058824%, 70.588235%)" fill-opacity="1" d="M 433.621094 539.773438 L 434.050781 532.285156 L 438.371094 533.96875 L 433.621094 539.773438 "/>
<path fill="none" stroke-width="1.5" stroke-linecap="butt" stroke-linejoin="miter" stroke="rgb(41.568627%, 23.921569%, 60.392157%)" stroke-opacity="1" stroke-miterlimit="10" d="M 494.808594 231.625 C 471.609375 236.671875 453.195312 249.042969 442.601562 270.261719 "/>
<path fill-rule="nonzero" fill="rgb(41.568627%, 23.921569%, 60.392157%)" fill-opacity="1" d="M 439.417969 276.640625 L 440.53125 269.222656 L 444.675781 271.296875 L 439.417969 276.640625 "/>
<path fill="none" stroke-width="1.5" stroke-linecap="butt" stroke-linejoin="miter" stroke="rgb(98.431373%, 60.392157%, 60%)" stroke-opacity="1" stroke-miterlimit="10" d="M 500.644531 541.078125 C 514.492188 563.109375 534.113281 577.371094 559.917969 580.496094 "/>
<path fill-rule="nonzero" fill="rgb(98.431373%, 60.392157%, 60%)" fill-opacity="1" d="M 567 581.351562 L 559.640625 582.796875 L 560.195312 578.195312 L 567 581.351562 "/>
<path fill="none" stroke-width="1.5" stroke-linecap="butt" stroke-linejoin="miter" stroke="rgb(98.431373%, 60.392157%, 60%)" stroke-opacity="1" stroke-miterlimit="10" d="M 197.144531 381.015625 C 210.769531 400.105469 229.183594 412.015625 252.570312 413.347656 "/>
<path fill-rule="nonzero" fill="rgb(98.431373%, 60.392157%, 60%)" fill-opacity="1" d="M 259.691406 413.753906 L 252.441406 415.660156 L 252.703125 411.035156 L 259.691406 413.753906 "/>
<path fill="none" stroke-width="1.5" stroke-linecap="butt" stroke-linejoin="miter" stroke="rgb(41.568627%, 23.921569%, 60.392157%)" stroke-opacity="1" stroke-miterlimit="10" d="M 364.910156 275.511719 C 363.460938 252.785156 354.398438 233.5 335.777344 220.441406 "/>
<path fill-rule="nonzero" fill="rgb(41.568627%, 23.921569%, 60.392157%)" fill-opacity="1" d="M 329.9375 216.34375 L 337.109375 218.542969 L 334.445312 222.339844 L 329.9375 216.34375 "/>
<path fill="none" stroke-width="1.5" stroke-linecap="butt" stroke-linejoin="miter" stroke="rgb(41.568627%, 23.921569%, 60.392157%)" stroke-opacity="1" stroke-miterlimit="10" d="M 327.789062 214.839844 C 347.222656 196.464844 357.640625 173.828125 355.648438 147.183594 "/>
<path fill-rule="nonzero" fill="rgb(41.568627%, 23.921569%, 60.392157%)" fill-opacity="1" d="M 355.117188 140.070312 L 357.957031 147.007812 L 353.335938 147.355469 L 355.117188 140.070312 "/>
<path fill="none" stroke-width="1.5" stroke-linecap="butt" stroke-linejoin="miter" stroke="rgb(41.568627%, 23.921569%, 60.392157%)" stroke-opacity="1" stroke-miterlimit="10" d="M 305.414062 100.558594 C 331.085938 123.191406 361.078125 133.527344 394.867188 128.203125 "/>
<path fill-rule="nonzero" fill="rgb(41.568627%, 23.921569%, 60.392157%)" fill-opacity="1" d="M 401.910156 127.09375 L 395.226562 130.492188 L 394.503906 125.914062 L 401.910156 127.09375 "/>
<path fill="none" stroke-width="1.5" stroke-linecap="butt" stroke-linejoin="miter" stroke="rgb(41.568627%, 23.921569%, 60.392157%)" stroke-opacity="1" stroke-miterlimit="10" d="M 354.917969 137.449219 C 383.058594 124.6875 402.777344 103.839844 410.792969 74.023438 "/>
<path fill-rule="nonzero" fill="rgb(41.568627%, 23.921569%, 60.392157%)" fill-opacity="1" d="M 412.644531 67.136719 L 413.03125 74.625 L 408.554688 73.421875 L 412.644531 67.136719 "/>
<path fill="none" stroke-width="1.5" stroke-linecap="butt" stroke-linejoin="miter" stroke="rgb(41.568627%, 23.921569%, 60.392157%)" stroke-opacity="1" stroke-miterlimit="10" d="M 413.324219 64.597656 C 435.179688 71.039062 456.421875 69.160156 475.078125 56.128906 "/>
<path fill-rule="nonzero" fill="rgb(41.568627%, 23.921569%, 60.392157%)" fill-opacity="1" d="M 480.921875 52.046875 L 476.402344 58.03125 L 473.75 54.230469 L 480.921875 52.046875 "/>
<path fill="none" stroke-width="1.5" stroke-linecap="butt" stroke-linejoin="miter" stroke="rgb(98.431373%, 60.392157%, 60%)" stroke-opacity="1" stroke-miterlimit="10" d="M 631.171875 609.78125 C 641.695312 624.199219 655.808594 633.402344 673.617188 633.9375 "/>
<path fill-rule="nonzero" fill="rgb(98.431373%, 60.392157%, 60%)" fill-opacity="1" d="M 680.746094 634.152344 L 673.546875 636.253906 L 673.683594 631.621094 L 680.746094 634.152344 "/>
<path fill="none" stroke-width="1.5" stroke-linecap="butt" stroke-linejoin="miter" stroke="rgb(98.431373%, 60.392157%, 60%)" stroke-opacity="1" stroke-miterlimit="10" d="M 569.605469 581.667969 C 582.6875 598.746094 599.933594 609.191406 621.414062 609.597656 "/>
<path fill-rule="nonzero" fill="rgb(98.431373%, 60.392157%, 60%)" fill-opacity="1" d="M 628.546875 609.730469 L 621.371094 611.914062 L 621.460938 607.277344 L 628.546875 609.730469 "/>
<path fill="none" stroke-width="1.5" stroke-linecap="butt" stroke-linejoin="miter" stroke="rgb(30.196078%, 68.627451%, 29.019608%)" stroke-opacity="1" stroke-miterlimit="10" d="M 729.761719 517.109375 C 739.539062 501.351562 742.835938 484.195312 736.460938 466.816406 "/>
<path fill-rule="nonzero" fill="rgb(30.196078%, 68.627451%, 29.019608%)" fill-opacity="1" d="M 734.007812 460.121094 L 738.636719 466.019531 L 734.285156 467.617188 L 734.007812 460.121094 "/>
<path fill="none" stroke-width="1.5" stroke-linecap="butt" stroke-linejoin="miter" stroke="rgb(30.196078%, 68.627451%, 29.019608%)" stroke-opacity="1" stroke-miterlimit="10" d="M 742.746094 394.433594 C 753.867188 378.867188 758.394531 361.4375 753.015625 343.113281 "/>
<path fill-rule="nonzero" fill="rgb(30.196078%, 68.627451%, 29.019608%)" fill-opacity="1" d="M 751.003906 336.269531 L 755.238281 342.460938 L 750.789062 343.769531 L 751.003906 336.269531 "/>
<path fill="none" stroke-width="1.5" stroke-linecap="butt" stroke-linejoin="miter" stroke="rgb(30.196078%, 68.627451%, 29.019608%)" stroke-opacity="1" stroke-miterlimit="10" d="M 733.105469 457.660156 C 745.214844 441.546875 750.351562 423.328125 745.230469 403.867188 "/>
<path fill-rule="nonzero" fill="rgb(30.196078%, 68.627451%, 29.019608%)" fill-opacity="1" d="M 743.414062 396.96875 L 747.46875 403.277344 L 742.988281 404.457031 L 743.414062 396.96875 "/>
<path fill="none" stroke-width="1.5" stroke-linecap="butt" stroke-linejoin="miter" stroke="rgb(41.568627%, 23.921569%, 60.392157%)" stroke-opacity="1" stroke-miterlimit="10" d="M 171.996094 165.714844 C 194.785156 161.867188 213.289062 150.691406 224.535156 130.53125 "/>
<path fill-rule="nonzero" fill="rgb(41.568627%, 23.921569%, 60.392157%)" fill-opacity="1" d="M 228.007812 124.300781 L 226.558594 131.660156 L 222.511719 129.398438 L 228.007812 124.300781 "/>
<path fill="none" stroke-width="1.5" stroke-linecap="butt" stroke-linejoin="miter" stroke="rgb(41.568627%, 23.921569%, 60.392157%)" stroke-opacity="1" stroke-miterlimit="10" d="M 404.507812 126.683594 C 421.65625 148.308594 443.996094 161.011719 471.570312 161.386719 "/>
<path fill-rule="nonzero" fill="rgb(41.568627%, 23.921569%, 60.392157%)" fill-opacity="1" d="M 478.703125 161.484375 L 471.539062 163.703125 L 471.601562 159.066406 L 478.703125 161.484375 "/>
<path fill="none" stroke-width="1.5" stroke-linecap="butt" stroke-linejoin="miter" stroke="rgb(41.568627%, 23.921569%, 60.392157%)" stroke-opacity="1" stroke-miterlimit="10" d="M 438.246094 278.988281 C 417.882812 267.042969 396.074219 263.667969 374.03125 272.042969 "/>
<path fill-rule="nonzero" fill="rgb(41.568627%, 23.921569%, 60.392157%)" fill-opacity="1" d="M 367.363281 274.578125 L 373.207031 269.878906 L 374.855469 274.210938 L 367.363281 274.578125 "/>
<path fill="none" stroke-width="1.5" stroke-linecap="butt" stroke-linejoin="miter" stroke="rgb(98.431373%, 60.392157%, 60%)" stroke-opacity="1" stroke-miterlimit="10" d="M 337.199219 441.164062 C 355.550781 463.867188 379.300781 477.015625 408.472656 477.207031 "/>
<path fill-rule="nonzero" fill="rgb(98.431373%, 60.392157%, 60%)" fill-opacity="1" d="M 415.605469 477.25 L 408.457031 479.523438 L 408.488281 474.886719 L 415.605469 477.25 "/>
<path fill="none" stroke-width="1.5" stroke-linecap="butt" stroke-linejoin="miter" stroke="rgb(98.431373%, 60.392157%, 60%)" stroke-opacity="1" stroke-miterlimit="10" d="M 262.3125 413.902344 C 279.847656 432.964844 301.636719 443.382812 327.460938 441.769531 "/>
<path fill-rule="nonzero" fill="rgb(98.431373%, 60.392157%, 60%)" fill-opacity="1" d="M 334.578125 441.328125 L 327.605469 444.085938 L 327.316406 439.457031 L 334.578125 441.328125 "/>
<path fill="none" stroke-width="1.5" stroke-linecap="butt" stroke-linejoin="miter" stroke="rgb(98.431373%, 60.392157%, 60%)" stroke-opacity="1" stroke-miterlimit="10" d="M 108.246094 281.074219 C 109.433594 302.0625 117.625 319.996094 134.773438 332.097656 "/>
<path fill-rule="nonzero" fill="rgb(98.431373%, 60.392157%, 60%)" fill-opacity="1" d="M 140.601562 336.210938 L 133.4375 333.992188 L 136.109375 330.207031 L 140.601562 336.210938 "/>
<path fill="none" stroke-width="1.5" stroke-linecap="butt" stroke-linejoin="miter" stroke="rgb(12.156863%, 47.058824%, 70.588235%)" stroke-opacity="1" stroke-miterlimit="10" d="M 353.644531 581.679688 C 329.691406 572.0625 305.617188 572.039062 283.085938 584.582031 "/>
<path fill-rule="nonzero" fill="rgb(12.156863%, 47.058824%, 70.588235%)" fill-opacity="1" d="M 276.851562 588.050781 L 281.957031 582.558594 L 284.210938 586.609375 L 276.851562 588.050781 "/>
<path fill="none" stroke-width="1.5" stroke-linecap="butt" stroke-linejoin="miter" stroke="rgb(12.156863%, 47.058824%, 70.588235%)" stroke-opacity="1" stroke-miterlimit="10" d="M 274.558594 589.328125 C 253.84375 577.96875 231.9375 575.226562 210.132812 584.242188 "/>
<path fill-rule="nonzero" fill="rgb(12.156863%, 47.058824%, 70.588235%)" fill-opacity="1" d="M 203.539062 586.96875 L 209.246094 582.101562 L 211.019531 586.386719 L 203.539062 586.96875 "/>
<path fill="none" stroke-width="1.5" stroke-linecap="butt" stroke-linejoin="miter" stroke="rgb(12.156863%, 47.058824%, 70.588235%)" stroke-opacity="1" stroke-miterlimit="10" d="M 68.132812 475.335938 C 71.996094 456.746094 69.132812 439.097656 56.90625 424.621094 "/>
<path fill-rule="nonzero" fill="rgb(12.156863%, 47.058824%, 70.588235%)" fill-opacity="1" d="M 52.300781 419.171875 L 58.675781 423.125 L 55.132812 426.117188 L 52.300781 419.171875 "/>
<path fill="none" stroke-width="1.5" stroke-linecap="butt" stroke-linejoin="miter" stroke="rgb(12.156863%, 47.058824%, 70.588235%)" stroke-opacity="1" stroke-miterlimit="10" d="M 89.90625 536.378906 C 92.957031 516.140625 88.746094 497.394531 74.792969 482.460938 "/>
<path fill-rule="nonzero" fill="rgb(12.156863%, 47.058824%, 70.588235%)" fill-opacity="1" d="M 69.921875 477.25 L 76.488281 480.878906 L 73.101562 484.042969 L 69.921875 477.25 "/>
<path fill="none" stroke-width="1.5" stroke-linecap="butt" stroke-linejoin="miter" stroke="rgb(12.156863%, 47.058824%, 70.588235%)" stroke-opacity="1" stroke-miterlimit="10" d="M 134.675781 581.746094 C 129.023438 562.480469 117.542969 547.527344 98.953125 540.027344 "/>
<path fill-rule="nonzero" fill="rgb(12.156863%, 47.058824%, 70.588235%)" fill-opacity="1" d="M 92.339844 537.359375 L 99.820312 537.878906 L 98.085938 542.179688 L 92.339844 537.359375 "/>
<path fill="none" stroke-width="1.5" stroke-linecap="butt" stroke-linejoin="miter" stroke="rgb(12.156863%, 47.058824%, 70.588235%)" stroke-opacity="1" stroke-miterlimit="10" d="M 201.117188 587.972656 C 183.449219 576.3125 164.039062 572.148438 143.949219 578.714844 "/>
<path fill-rule="nonzero" fill="rgb(12.156863%, 47.058824%, 70.588235%)" fill-opacity="1" d="M 137.167969 580.929688 L 143.226562 576.511719 L 144.667969 580.917969 L 137.167969 580.929688 "/>
<path fill-rule="nonzero" fill="rgb(99.215686%, 74.901961%, 43.529412%)" fill-opacity="1" stroke-width="1" stroke-linecap="butt" stroke-linejoin="miter" stroke="rgb(99.215686%, 74.901961%, 43.529412%)" stroke-opacity="1" stroke-miterlimit="10" d="M 514.988281 737.316406 C 514.988281 740.984375 509.488281 740.984375 509.488281 737.316406 C 509.488281 733.652344 514.988281 733.652344 514.988281 737.316406 "/>
<path fill-rule="nonzero" fill="rgb(100%, 84.313725%, 0%)" fill-opacity="1" stroke-width="1" stroke-linecap="butt" stroke-linejoin="miter" stroke="rgb(100%, 84.313725%, 0%)" stroke-opacity="1" stroke-miterlimit="10" d="M 567.832031 724.679688 L 574.332031 724.679688 L 574.332031 731.179688 L 567.832031 731.179688 Z M 567.832031 724.679688 "/>
<path fill-rule="nonzero" fill="rgb(99.215686%, 74.901961%, 43.529412%)" fill-opacity="1" stroke-width="1" stroke-linecap="butt" stroke-linejoin="miter" stroke="rgb(99.215686%, 74.901961%, 43.529412%)" stroke-opacity="1" stroke-miterlimit="10" d="M 452.628906 746.210938 C 452.628906 749.878906 447.128906 749.878906 447.128906 746.210938 C 447.128906 742.542969 452.628906 742.542969 452.628906 746.210938 "/>
<path fill-rule="nonzero" fill="rgb(99.215686%, 74.901961%, 43.529412%)" fill-opacity="1" stroke-width="1" stroke-linecap="butt" stroke-linejoin="miter" stroke="rgb(99.215686%, 74.901961%, 43.529412%)" stroke-opacity="1" stroke-miterlimit="10" d="M 388.957031 750 C 388.957031 753.667969 383.457031 753.667969 383.457031 750 C 383.457031 746.332031 388.957031 746.332031 388.957031 750 "/>
<path fill-rule="nonzero" fill="rgb(14.901961%, 14.901961%, 14.901961%)" fill-opacity="1" stroke-width="1" stroke-linecap="butt" stroke-linejoin="miter" stroke="rgb(14.901961%, 14.901961%, 14.901961%)" stroke-opacity="1" stroke-miterlimit="10" d="M 195.171875 715.285156 L 198.921875 707.785156 L 202.671875 715.285156 Z M 195.171875 715.285156 "/>
<path fill-rule="nonzero" fill="rgb(99.215686%, 74.901961%, 43.529412%)" fill-opacity="1" stroke-width="1" stroke-linecap="butt" stroke-linejoin="miter" stroke="rgb(99.215686%, 74.901961%, 43.529412%)" stroke-opacity="1" stroke-miterlimit="10" d="M 260.714844 730.617188 C 260.714844 734.285156 255.214844 734.285156 255.214844 730.617188 C 255.214844 726.953125 260.714844 726.953125 260.714844 730.617188 "/>
<path fill-rule="nonzero" fill="rgb(99.215686%, 74.901961%, 43.529412%)" fill-opacity="1" stroke-width="1" stroke-linecap="butt" stroke-linejoin="miter" stroke="rgb(99.215686%, 74.901961%, 43.529412%)" stroke-opacity="1" stroke-miterlimit="10" d="M 324.578125 744.664062 C 324.578125 748.328125 319.078125 748.328125 319.078125 744.664062 C 319.078125 740.996094 324.578125 740.996094 324.578125 744.664062 "/>
<path fill-rule="nonzero" fill="rgb(12.156863%, 47.058824%, 70.588235%)" fill-opacity="1" stroke-width="1" stroke-linecap="butt" stroke-linejoin="miter" stroke="rgb(12.156863%, 47.058824%, 70.588235%)" stroke-opacity="1" stroke-miterlimit="10" d="M 665.542969 208.03125 C 665.542969 211.699219 660.042969 211.699219 660.042969 208.03125 C 660.042969 204.367188 665.542969 204.367188 665.542969 208.03125 "/>
<path fill-rule="nonzero" fill="rgb(12.156863%, 47.058824%, 70.588235%)" fill-opacity="1" stroke-width="1" stroke-linecap="butt" stroke-linejoin="miter" stroke="rgb(12.156863%, 47.058824%, 70.588235%)" stroke-opacity="1" stroke-miterlimit="10" d="M 573.078125 405.882812 C 573.078125 409.550781 567.578125 409.550781 567.578125 405.882812 C 567.578125 402.21875 573.078125 402.21875 573.078125 405.882812 "/>
<path fill-rule="nonzero" fill="rgb(12.156863%, 47.058824%, 70.588235%)" fill-opacity="1" stroke-width="1" stroke-linecap="butt" stroke-linejoin="miter" stroke="rgb(12.156863%, 47.058824%, 70.588235%)" stroke-opacity="1" stroke-miterlimit="10" d="M 616.6875 340.992188 C 616.6875 344.660156 611.1875 344.660156 611.1875 340.992188 C 611.1875 337.324219 616.6875 337.324219 616.6875 340.992188 "/>
<path fill-rule="nonzero" fill="rgb(98.431373%, 60.392157%, 60%)" fill-opacity="1" stroke-width="1" stroke-linecap="butt" stroke-linejoin="miter" stroke="rgb(98.431373%, 60.392157%, 60%)" stroke-opacity="1" stroke-miterlimit="10" d="M 145.492188 337.722656 C 145.492188 341.390625 139.992188 341.390625 139.992188 337.722656 C 139.992188 334.058594 145.492188 334.058594 145.492188 337.722656 "/>
<path fill-rule="nonzero" fill="rgb(100%, 84.313725%, 0%)" fill-opacity="1" stroke-width="1" stroke-linecap="butt" stroke-linejoin="miter" stroke="rgb(100%, 84.313725%, 0%)" stroke-opacity="1" stroke-miterlimit="10" d="M 122.433594 212.550781 L 133.132812 212.550781 L 133.132812 223.25 L 122.433594 223.25 Z M 122.433594 212.550781 "/>
<path fill-rule="nonzero" fill="rgb(41.568627%, 23.921569%, 60.392157%)" fill-opacity="1" stroke-width="1" stroke-linecap="butt" stroke-linejoin="miter" stroke="rgb(41.568627%, 23.921569%, 60.392157%)" stroke-opacity="1" stroke-miterlimit="10" d="M 232.039062 122.007812 C 232.039062 125.675781 226.539062 125.675781 226.539062 122.007812 C 226.539062 118.339844 232.039062 118.339844 232.039062 122.007812 "/>
<path fill-rule="nonzero" fill="rgb(12.156863%, 47.058824%, 70.588235%)" fill-opacity="1" stroke-width="1" stroke-linecap="butt" stroke-linejoin="miter" stroke="rgb(12.156863%, 47.058824%, 70.588235%)" stroke-opacity="1" stroke-miterlimit="10" d="M 649.171875 273.789062 C 649.171875 277.457031 643.671875 277.457031 643.671875 273.789062 C 643.671875 270.125 649.171875 270.125 649.171875 273.789062 "/>
<path fill-rule="nonzero" fill="rgb(12.156863%, 47.058824%, 70.588235%)" fill-opacity="1" stroke-width="1" stroke-linecap="butt" stroke-linejoin="miter" stroke="rgb(12.156863%, 47.058824%, 70.588235%)" stroke-opacity="1" stroke-miterlimit="10" d="M 435.417969 542.222656 C 435.417969 545.890625 429.917969 545.890625 429.917969 542.222656 C 429.917969 538.554688 435.417969 538.554688 435.417969 542.222656 "/>
<path fill-rule="nonzero" fill="rgb(100%, 84.313725%, 0%)" fill-opacity="1" stroke-width="1" stroke-linecap="butt" stroke-linejoin="miter" stroke="rgb(100%, 84.313725%, 0%)" stroke-opacity="1" stroke-miterlimit="10" d="M 640.328125 146.609375 L 646.828125 146.609375 L 646.828125 153.109375 L 640.328125 153.109375 Z M 640.328125 146.609375 "/>
<path fill-rule="nonzero" fill="rgb(98.431373%, 60.392157%, 60%)" fill-opacity="1" stroke-width="1" stroke-linecap="butt" stroke-linejoin="miter" stroke="rgb(98.431373%, 60.392157%, 60%)" stroke-opacity="1" stroke-miterlimit="10" d="M 420.984375 477.269531 C 420.984375 480.933594 415.484375 480.933594 415.484375 477.269531 C 415.484375 473.601562 420.984375 473.601562 420.984375 477.269531 "/>
<path fill-rule="nonzero" fill="rgb(41.568627%, 23.921569%, 60.392157%)" fill-opacity="1" stroke-width="1" stroke-linecap="butt" stroke-linejoin="miter" stroke="rgb(41.568627%, 23.921569%, 60.392157%)" stroke-opacity="1" stroke-miterlimit="10" d="M 484.078125 161.519531 C 484.078125 165.183594 478.578125 165.183594 478.578125 161.519531 C 478.578125 157.851562 484.078125 157.851562 484.078125 161.519531 "/>
<path fill-rule="nonzero" fill="rgb(12.156863%, 47.058824%, 70.588235%)" fill-opacity="1" stroke-width="1" stroke-linecap="butt" stroke-linejoin="miter" stroke="rgb(12.156863%, 47.058824%, 70.588235%)" stroke-opacity="1" stroke-miterlimit="10" d="M 511.398438 466.316406 C 511.398438 469.984375 505.898438 469.984375 505.898438 466.316406 C 505.898438 462.648438 511.398438 462.648438 511.398438 466.316406 "/>
<path fill-rule="nonzero" fill="rgb(41.568627%, 23.921569%, 60.392157%)" fill-opacity="1" stroke-width="1" stroke-linecap="butt" stroke-linejoin="miter" stroke="rgb(41.568627%, 23.921569%, 60.392157%)" stroke-opacity="1" stroke-miterlimit="10" d="M 497.558594 231.625 C 497.558594 235.289062 492.058594 235.289062 492.058594 231.625 C 492.058594 227.957031 497.558594 227.957031 497.558594 231.625 "/>
<path fill-rule="nonzero" fill="rgb(98.431373%, 60.392157%, 60%)" fill-opacity="1" stroke-width="1" stroke-linecap="butt" stroke-linejoin="miter" stroke="rgb(98.431373%, 60.392157%, 60%)" stroke-opacity="1" stroke-miterlimit="10" d="M 503.394531 541.078125 C 503.394531 544.746094 497.894531 544.746094 497.894531 541.078125 C 497.894531 537.410156 503.394531 537.410156 503.394531 541.078125 "/>
<path fill-rule="nonzero" fill="rgb(98.431373%, 60.392157%, 60%)" fill-opacity="1" stroke-width="1" stroke-linecap="butt" stroke-linejoin="miter" stroke="rgb(98.431373%, 60.392157%, 60%)" stroke-opacity="1" stroke-miterlimit="10" d="M 199.894531 381.015625 C 199.894531 384.683594 194.394531 384.683594 194.394531 381.015625 C 194.394531 377.347656 199.894531 377.347656 199.894531 381.015625 "/>
<path fill-rule="nonzero" fill="rgb(41.568627%, 23.921569%, 60.392157%)" fill-opacity="1" stroke-width="1" stroke-linecap="butt" stroke-linejoin="miter" stroke="rgb(41.568627%, 23.921569%, 60.392157%)" stroke-opacity="1" stroke-miterlimit="10" d="M 367.660156 275.511719 C 367.660156 279.175781 362.160156 279.175781 362.160156 275.511719 C 362.160156 271.84375 367.660156 271.84375 367.660156 275.511719 "/>
<path fill-rule="nonzero" fill="rgb(41.568627%, 23.921569%, 60.392157%)" fill-opacity="1" stroke-width="1" stroke-linecap="butt" stroke-linejoin="miter" stroke="rgb(41.568627%, 23.921569%, 60.392157%)" stroke-opacity="1" stroke-miterlimit="10" d="M 330.539062 214.839844 C 330.539062 218.503906 325.039062 218.503906 325.039062 214.839844 C 325.039062 211.171875 330.539062 211.171875 330.539062 214.839844 "/>
<path fill-rule="nonzero" fill="rgb(41.568627%, 23.921569%, 60.392157%)" fill-opacity="1" stroke-width="1" stroke-linecap="butt" stroke-linejoin="miter" stroke="rgb(41.568627%, 23.921569%, 60.392157%)" stroke-opacity="1" stroke-miterlimit="10" d="M 308.164062 100.558594 C 308.164062 104.226562 302.664062 104.226562 302.664062 100.558594 C 302.664062 96.890625 308.164062 96.890625 308.164062 100.558594 "/>
<path fill-rule="nonzero" fill="rgb(41.568627%, 23.921569%, 60.392157%)" fill-opacity="1" stroke-width="1" stroke-linecap="butt" stroke-linejoin="miter" stroke="rgb(41.568627%, 23.921569%, 60.392157%)" stroke-opacity="1" stroke-miterlimit="10" d="M 357.667969 137.449219 C 357.667969 141.117188 352.167969 141.117188 352.167969 137.449219 C 352.167969 133.785156 357.667969 133.785156 357.667969 137.449219 "/>
<path fill-rule="nonzero" fill="rgb(41.568627%, 23.921569%, 60.392157%)" fill-opacity="1" stroke-width="1" stroke-linecap="butt" stroke-linejoin="miter" stroke="rgb(41.568627%, 23.921569%, 60.392157%)" stroke-opacity="1" stroke-miterlimit="10" d="M 416.074219 64.597656 C 416.074219 68.265625 410.574219 68.265625 410.574219 64.597656 C 410.574219 60.929688 416.074219 60.929688 416.074219 64.597656 "/>
<path fill-rule="nonzero" fill="rgb(98.431373%, 60.392157%, 60%)" fill-opacity="1" stroke-width="1" stroke-linecap="butt" stroke-linejoin="miter" stroke="rgb(98.431373%, 60.392157%, 60%)" stroke-opacity="1" stroke-miterlimit="10" d="M 633.921875 609.78125 C 633.921875 613.445312 628.421875 613.445312 628.421875 609.78125 C 628.421875 606.113281 633.921875 606.113281 633.921875 609.78125 "/>
<path fill-rule="nonzero" fill="rgb(98.431373%, 60.392157%, 60%)" fill-opacity="1" stroke-width="1" stroke-linecap="butt" stroke-linejoin="miter" stroke="rgb(98.431373%, 60.392157%, 60%)" stroke-opacity="1" stroke-miterlimit="10" d="M 572.355469 581.667969 C 572.355469 585.332031 566.855469 585.332031 566.855469 581.667969 C 566.855469 578 572.355469 578 572.355469 581.667969 "/>
<path fill-rule="nonzero" fill="rgb(100%, 84.313725%, 0%)" fill-opacity="1" stroke-width="1" stroke-linecap="butt" stroke-linejoin="miter" stroke="rgb(100%, 84.313725%, 0%)" stroke-opacity="1" stroke-miterlimit="10" d="M 726.511719 513.859375 L 733.011719 513.859375 L 733.011719 520.359375 L 726.511719 520.359375 Z M 726.511719 513.859375 "/>
<path fill-rule="nonzero" fill="rgb(14.901961%, 14.901961%, 14.901961%)" fill-opacity="1" stroke-width="1" stroke-linecap="butt" stroke-linejoin="miter" stroke="rgb(14.901961%, 14.901961%, 14.901961%)" stroke-opacity="1" stroke-miterlimit="10" d="M 746.25 336.597656 L 750 329.097656 L 753.75 336.597656 Z M 746.25 336.597656 "/>
<path fill-rule="nonzero" fill="rgb(30.196078%, 68.627451%, 29.019608%)" fill-opacity="1" stroke-width="1" stroke-linecap="butt" stroke-linejoin="miter" stroke="rgb(30.196078%, 68.627451%, 29.019608%)" stroke-opacity="1" stroke-miterlimit="10" d="M 745.496094 394.433594 C 745.496094 398.101562 739.996094 398.101562 739.996094 394.433594 C 739.996094 390.769531 745.496094 390.769531 745.496094 394.433594 "/>
<path fill-rule="nonzero" fill="rgb(30.196078%, 68.627451%, 29.019608%)" fill-opacity="1" stroke-width="1" stroke-linecap="butt" stroke-linejoin="miter" stroke="rgb(30.196078%, 68.627451%, 29.019608%)" stroke-opacity="1" stroke-miterlimit="10" d="M 735.855469 457.660156 C 735.855469 461.328125 730.355469 461.328125 730.355469 457.660156 C 730.355469 453.992188 735.855469 453.992188 735.855469 457.660156 "/>
<path fill-rule="nonzero" fill="rgb(41.568627%, 23.921569%, 60.392157%)" fill-opacity="1" stroke-width="1" stroke-linecap="butt" stroke-linejoin="miter" stroke="rgb(41.568627%, 23.921569%, 60.392157%)" stroke-opacity="1" stroke-miterlimit="10" d="M 174.746094 165.714844 C 174.746094 169.382812 169.246094 169.382812 169.246094 165.714844 C 169.246094 162.046875 174.746094 162.046875 174.746094 165.714844 "/>
<path fill-rule="nonzero" fill="rgb(41.568627%, 23.921569%, 60.392157%)" fill-opacity="1" stroke-width="1" stroke-linecap="butt" stroke-linejoin="miter" stroke="rgb(41.568627%, 23.921569%, 60.392157%)" stroke-opacity="1" stroke-miterlimit="10" d="M 407.257812 126.683594 C 407.257812 130.351562 401.757812 130.351562 401.757812 126.683594 C 401.757812 123.015625 407.257812 123.015625 407.257812 126.683594 "/>
<path fill-rule="nonzero" fill="rgb(41.568627%, 23.921569%, 60.392157%)" fill-opacity="1" stroke-width="1" stroke-linecap="butt" stroke-linejoin="miter" stroke="rgb(41.568627%, 23.921569%, 60.392157%)" stroke-opacity="1" stroke-miterlimit="10" d="M 440.996094 278.988281 C 440.996094 282.65625 435.496094 282.65625 435.496094 278.988281 C 435.496094 275.324219 440.996094 275.324219 440.996094 278.988281 "/>
<path fill-rule="nonzero" fill="rgb(14.901961%, 14.901961%, 14.901961%)" fill-opacity="1" stroke-width="1" stroke-linecap="butt" stroke-linejoin="miter" stroke="rgb(14.901961%, 14.901961%, 14.901961%)" stroke-opacity="1" stroke-miterlimit="10" d="M 480.101562 53.75 L 483.851562 46.25 L 487.601562 53.75 Z M 480.101562 53.75 "/>
<path fill-rule="nonzero" fill="rgb(98.431373%, 60.392157%, 60%)" fill-opacity="1" stroke-width="1" stroke-linecap="butt" stroke-linejoin="miter" stroke="rgb(98.431373%, 60.392157%, 60%)" stroke-opacity="1" stroke-miterlimit="10" d="M 339.949219 441.164062 C 339.949219 444.828125 334.449219 444.828125 334.449219 441.164062 C 334.449219 437.496094 339.949219 437.496094 339.949219 441.164062 "/>
<path fill-rule="nonzero" fill="rgb(98.431373%, 60.392157%, 60%)" fill-opacity="1" stroke-width="1" stroke-linecap="butt" stroke-linejoin="miter" stroke="rgb(98.431373%, 60.392157%, 60%)" stroke-opacity="1" stroke-miterlimit="10" d="M 265.0625 413.902344 C 265.0625 417.570312 259.5625 417.570312 259.5625 413.902344 C 259.5625 410.234375 265.0625 410.234375 265.0625 413.902344 "/>
<path fill-rule="nonzero" fill="rgb(14.901961%, 14.901961%, 14.901961%)" fill-opacity="1" stroke-width="1" stroke-linecap="butt" stroke-linejoin="miter" stroke="rgb(14.901961%, 14.901961%, 14.901961%)" stroke-opacity="1" stroke-miterlimit="10" d="M 680.558594 638.011719 L 684.308594 630.511719 L 688.058594 638.011719 Z M 680.558594 638.011719 "/>
<path fill-rule="nonzero" fill="rgb(98.431373%, 60.392157%, 60%)" fill-opacity="1" stroke-width="1" stroke-linecap="butt" stroke-linejoin="miter" stroke="rgb(98.431373%, 60.392157%, 60%)" stroke-opacity="1" stroke-miterlimit="10" d="M 110.996094 281.074219 C 110.996094 284.742188 105.496094 284.742188 105.496094 281.074219 C 105.496094 277.410156 110.996094 277.410156 110.996094 281.074219 "/>
<path fill-rule="nonzero" fill="rgb(12.156863%, 47.058824%, 70.588235%)" fill-opacity="1" stroke-width="1" stroke-linecap="butt" stroke-linejoin="miter" stroke="rgb(12.156863%, 47.058824%, 70.588235%)" stroke-opacity="1" stroke-miterlimit="10" d="M 356.394531 581.679688 C 356.394531 585.347656 350.894531 585.347656 350.894531 581.679688 C 350.894531 578.011719 356.394531 578.011719 356.394531 581.679688 "/>
<path fill-rule="nonzero" fill="rgb(12.156863%, 47.058824%, 70.588235%)" fill-opacity="1" stroke-width="1" stroke-linecap="butt" stroke-linejoin="miter" stroke="rgb(12.156863%, 47.058824%, 70.588235%)" stroke-opacity="1" stroke-miterlimit="10" d="M 277.308594 589.328125 C 277.308594 592.996094 271.808594 592.996094 271.808594 589.328125 C 271.808594 585.660156 277.308594 585.660156 277.308594 589.328125 "/>
<path fill-rule="nonzero" fill="rgb(12.156863%, 47.058824%, 70.588235%)" fill-opacity="1" stroke-width="1" stroke-linecap="butt" stroke-linejoin="miter" stroke="rgb(12.156863%, 47.058824%, 70.588235%)" stroke-opacity="1" stroke-miterlimit="10" d="M 70.882812 475.335938 C 70.882812 479 65.382812 479 65.382812 475.335938 C 65.382812 471.667969 70.882812 471.667969 70.882812 475.335938 "/>
<path fill-rule="nonzero" fill="rgb(14.901961%, 14.901961%, 14.901961%)" fill-opacity="1" stroke-width="1" stroke-linecap="butt" stroke-linejoin="miter" stroke="rgb(14.901961%, 14.901961%, 14.901961%)" stroke-opacity="1" stroke-miterlimit="10" d="M 46.25 420.199219 L 50 412.699219 L 53.75 420.199219 Z M 46.25 420.199219 "/>
<path fill-rule="nonzero" fill="rgb(12.156863%, 47.058824%, 70.588235%)" fill-opacity="1" stroke-width="1" stroke-linecap="butt" stroke-linejoin="miter" stroke="rgb(12.156863%, 47.058824%, 70.588235%)" stroke-opacity="1" stroke-miterlimit="10" d="M 92.65625 536.378906 C 92.65625 540.046875 87.15625 540.046875 87.15625 536.378906 C 87.15625 532.714844 92.65625 532.714844 92.65625 536.378906 "/>
<path fill-rule="nonzero" fill="rgb(12.156863%, 47.058824%, 70.588235%)" fill-opacity="1" stroke-width="1" stroke-linecap="butt" stroke-linejoin="miter" stroke="rgb(12.156863%, 47.058824%, 70.588235%)" stroke-opacity="1" stroke-miterlimit="10" d="M 137.425781 581.746094 C 137.425781 585.410156 131.925781 585.410156 131.925781 581.746094 C 131.925781 578.078125 137.425781 578.078125 137.425781 581.746094 "/>
<path fill-rule="nonzero" fill="rgb(12.156863%, 47.058824%, 70.588235%)" fill-opacity="1" stroke-width="1" stroke-linecap="butt" stroke-linejoin="miter" stroke="rgb(12.156863%, 47.058824%, 70.588235%)" stroke-opacity="1" stroke-miterlimit="10" d="M 203.867188 587.972656 C 203.867188 591.636719 198.367188 591.636719 198.367188 587.972656 C 198.367188 584.304688 203.867188 584.304688 203.867188 587.972656 "/>
</svg>
