<?xml version="1.0" encoding="UTF-8"?>
<svg xmlns="http://www.w3.org/2000/svg" xmlns:xlink="http://www.w3.org/1999/xlink" width="800" height="800" viewBox="0 0 800 800">
<rect x="-80" y="-80" width="960" height="960" fill="rgb(100%, 100%, 100%)" fill-opacity="1"/>
<path fill="none" stroke-width="4.5" stroke-linecap="butt" stroke-linejoin="miter" stroke="rgb(70.196078%, 70.196078%, 70.196078%)" stroke-opacity="1" stroke-miterlimit="10" d="M 701.703125 232.347656 C 687.496094 267.890625 687.941406 303.332031 706.160156 336.976562 "/>
<path fill-rule="nonzero" fill="rgb(70.196078%, 70.196078%, 70.196078%)" fill-opacity="1" d="M 709.554688 343.25 L 704.121094 338.082031 L 708.195312 335.875 L 709.554688 343.25 "/>
<path fill="none" stroke-width="4.5" stroke-linecap="butt" stroke-linejoin="miter" stroke="rgb(70.196078%, 70.196078%, 70.196078%)" stroke-opacity="1" stroke-miterlimit="10" d="M 83.296875 514.003906 C 80.863281 539.355469 87.5 562.195312 105.691406 579.980469 "/>
<path fill-rule="nonzero" fill="rgb(70.196078%, 70.196078%, 70.196078%)" fill-opacity="1" d="M 110.792969 584.964844 L 104.070312 581.636719 L 107.3125 578.320312 L 110.792969 584.964844 "/>
<path fill="none" stroke-width="4.5" stroke-linecap="butt" stroke-linejoin="miter" stroke="rgb(70.196078%, 70.196078%, 70.196078%)" stroke-opacity="1" stroke-miterlimit="10" d="M 50 579.289062 C 68.859375 566.300781 80.851562 548.527344 82.46875 525.71875 "/>
<path fill-rule="nonzero" fill="rgb(70.196078%, 70.196078%, 70.196078%)" fill-opacity="1" d="M 82.972656 518.601562 L 84.777344 525.882812 L 80.15625 525.554688 L 82.972656 518.601562 "/>
<path fill="none" stroke-width="1.5" stroke-linecap="butt" stroke-linejoin="miter" stroke="rgb(12.156863%, 47.058824%, 70.588235%)" stroke-opacity="1" stroke-miterlimit="10" d="M 50 579.289062 C 47.703125 605.585938 54.847656 629.128906 73.796875 647.472656 "/>
<path fill-rule="nonzero" fill="rgb(12.156863%, 47.058824%, 70.588235%)" fill-opacity="1" d="M 78.921875 652.433594 L 72.183594 649.136719 L 75.410156 645.808594 L 78.921875 652.433594 "/>
<path fill="none" stroke-width="2.5" stroke-linecap="butt" stroke-linejoin="miter" stroke="rgb(70.196078%, 70.196078%, 70.196078%)" stroke-opacity="1" stroke-miterlimit="10" d="M 255.925781 424.847656 C 243.617188 460.339844 245.648438 495.082031 265.070312 527.214844 "/>
<path fill-rule="nonzero" fill="rgb(70.196078%, 70.196078%, 70.196078%)" fill-opacity="1" d="M 268.761719 533.320312 L 263.085938 528.414062 L 267.054688 526.015625 L 268.761719 533.320312 "/>
<path fill="none" stroke-width="1.5" stroke-linecap="butt" stroke-linejoin="miter" stroke="rgb(12.156863%, 47.058824%, 70.588235%)" stroke-opacity="1" stroke-miterlimit="10" d="M 80.808594 654.261719 C 99.679688 641.425781 111.757812 623.78125 113.476562 601.054688 "/>
<path fill-rule="nonzero" fill="rgb(12.156863%, 47.058824%, 70.588235%)" fill-opacity="1" d="M 114.015625 593.941406 L 115.789062 601.230469 L 111.167969 600.878906 L 114.015625 593.941406 "/>
<path fill="none" stroke-width="1.5" stroke-linecap="butt" stroke-linejoin="miter" stroke="rgb(12.156863%, 47.058824%, 70.588235%)" stroke-opacity="1" stroke-miterlimit="10" d="M 234.125 711.511719 C 251.992188 675.410156 254.433594 638.222656 238.175781 601.386719 "/>
<path fill-rule="nonzero" fill="rgb(12.156863%, 47.058824%, 70.588235%)" fill-opacity="1" d="M 235.296875 594.863281 L 240.296875 600.453125 L 236.054688 602.324219 L 235.296875 594.863281 "/>
<path fill="none" stroke-width="1.5" stroke-linecap="butt" stroke-linejoin="miter" stroke="rgb(12.156863%, 47.058824%, 70.588235%)" stroke-opacity="1" stroke-miterlimit="10" d="M 197.164062 750 C 212.746094 745.242188 224.980469 735.855469 230.695312 720.640625 "/>
<path fill-rule="nonzero" fill="rgb(12.156863%, 47.058824%, 70.588235%)" fill-opacity="1" d="M 233.203125 713.960938 L 232.867188 721.453125 L 228.527344 719.824219 L 233.203125 713.960938 "/>
<path fill="none" stroke-width="1.5" stroke-linecap="butt" stroke-linejoin="miter" stroke="rgb(12.156863%, 47.058824%, 70.588235%)" stroke-opacity="1" stroke-miterlimit="10" d="M 529.367188 660.835938 C 535.433594 674.378906 545.289062 684.46875 559.703125 687.808594 "/>
<path fill-rule="nonzero" fill="rgb(12.156863%, 47.058824%, 70.588235%)" fill-opacity="1" d="M 566.652344 689.417969 L 559.179688 690.066406 L 560.226562 685.550781 L 566.652344 689.417969 "/>
<path fill="none" stroke-width="1.5" stroke-linecap="butt" stroke-linejoin="miter" stroke="rgb(12.156863%, 47.058824%, 70.588235%)" stroke-opacity="1" stroke-miterlimit="10" d="M 494.78125 596.972656 C 495.070312 620.292969 503.339844 640.46875 521.683594 654.824219 "/>
<path fill-rule="nonzero" fill="rgb(12.156863%, 47.058824%, 70.588235%)" fill-opacity="1" d="M 527.300781 659.21875 L 520.253906 656.648438 L 523.109375 653 L 527.300781 659.21875 "/>
<path fill="none" stroke-width="1.5" stroke-linecap="butt" stroke-linejoin="miter" stroke="rgb(12.156863%, 47.058824%, 70.588235%)" stroke-opacity="1" stroke-miterlimit="10" d="M 610.441406 681.175781 C 627.519531 675.109375 640.523438 664.027344 646.230469 646.867188 "/>
<path fill-rule="nonzero" fill="rgb(12.156863%, 47.058824%, 70.588235%)" fill-opacity="1" d="M 648.480469 640.097656 L 648.429688 647.597656 L 644.03125 646.132812 L 648.480469 640.097656 "/>
<path fill="none" stroke-width="1.5" stroke-linecap="butt" stroke-linejoin="miter" stroke="rgb(12.156863%, 47.058824%, 70.588235%)" stroke-opacity="1" stroke-miterlimit="10" d="M 569.203125 690.007812 C 580.773438 693.921875 592.511719 693.769531 602.464844 686.777344 "/>
<path fill-rule="nonzero" fill="rgb(12.156863%, 47.058824%, 70.588235%)" fill-opacity="1" d="M 608.300781 682.679688 L 603.796875 688.675781 L 601.132812 684.882812 L 608.300781 682.679688 "/>
<path fill="none" stroke-width="4.5" stroke-linecap="butt" stroke-linejoin="miter" stroke="rgb(70.196078%, 70.196078%, 70.196078%)" stroke-opacity="1" stroke-miterlimit="10" d="M 687.230469 577.714844 C 685.089844 603.582031 692.175781 626.75 710.929688 644.660156 "/>
<path fill-rule="nonzero" fill="rgb(70.196078%, 70.196078%, 70.196078%)" fill-opacity="1" d="M 716.089844 649.585938 L 709.332031 646.335938 L 712.53125 642.984375 L 716.089844 649.585938 "/>
<path fill="none" stroke-width="1.5" stroke-linecap="butt" stroke-linejoin="miter" stroke="rgb(12.156863%, 47.058824%, 70.588235%)" stroke-opacity="1" stroke-miterlimit="10" d="M 649.308594 637.609375 C 668.148438 627.4375 681.199219 612.136719 684.890625 591.082031 "/>
<path fill-rule="nonzero" fill="rgb(12.156863%, 47.058824%, 70.588235%)" fill-opacity="1" d="M 686.121094 584.054688 L 687.171875 591.480469 L 682.605469 590.683594 L 686.121094 584.054688 "/>
<path fill="none" stroke-width="1.5" stroke-linecap="butt" stroke-linejoin="miter" stroke="rgb(12.156863%, 47.058824%, 70.588235%)" stroke-opacity="1" stroke-miterlimit="10" d="M 463.296875 515.269531 C 460.289062 543.882812 467.6875 569.605469 487.914062 590.039062 "/>
<path fill-rule="nonzero" fill="rgb(12.156863%, 47.058824%, 70.588235%)" fill-opacity="1" d="M 492.933594 595.105469 L 486.265625 591.667969 L 489.5625 588.40625 L 492.933594 595.105469 "/>
<path fill="none" stroke-width="4.5" stroke-linecap="butt" stroke-linejoin="miter" stroke="rgb(70.196078%, 70.196078%, 70.196078%)" stroke-opacity="1" stroke-miterlimit="10" d="M 463.296875 515.269531 C 478.355469 478.046875 478 440.894531 459.078125 405.5 "/>
<path fill-rule="nonzero" fill="rgb(70.196078%, 70.196078%, 70.196078%)" fill-opacity="1" d="M 455.714844 399.210938 L 461.121094 404.410156 L 457.035156 406.59375 L 455.714844 399.210938 "/>
<path fill="none" stroke-width="2.5" stroke-linecap="butt" stroke-linejoin="miter" stroke="rgb(70.196078%, 70.196078%, 70.196078%)" stroke-opacity="1" stroke-miterlimit="10" d="M 221.933594 474.320312 C 238.085938 466.488281 249.742188 454.171875 253.4375 436.644531 "/>
<path fill-rule="nonzero" fill="rgb(70.196078%, 70.196078%, 70.196078%)" fill-opacity="1" d="M 254.910156 429.664062 L 255.703125 437.121094 L 251.167969 436.167969 L 254.910156 429.664062 "/>
<path fill="none" stroke-width="1.5" stroke-linecap="butt" stroke-linejoin="miter" stroke="rgb(12.156863%, 47.058824%, 70.588235%)" stroke-opacity="1" stroke-miterlimit="10" d="M 424.382812 564.300781 C 441.746094 557.304688 454.710938 545.3125 459.84375 527.347656 "/>
<path fill-rule="nonzero" fill="rgb(12.156863%, 47.058824%, 70.588235%)" fill-opacity="1" d="M 461.804688 520.488281 L 462.074219 527.984375 L 457.617188 526.710938 L 461.804688 520.488281 "/>
<path fill="none" stroke-width="1.5" stroke-linecap="butt" stroke-linejoin="miter" stroke="rgb(12.156863%, 47.058824%, 70.588235%)" stroke-opacity="1" stroke-miterlimit="10" d="M 389.839844 500.921875 C 390.179688 524.078125 398.429688 544.101562 416.683594 558.308594 "/>
<path fill-rule="nonzero" fill="rgb(12.156863%, 47.058824%, 70.588235%)" fill-opacity="1" d="M 422.3125 562.691406 L 415.257812 560.136719 L 418.105469 556.480469 L 422.3125 562.691406 "/>
<path fill="none" stroke-width="4.5" stroke-linecap="butt" stroke-linejoin="miter" stroke="rgb(70.196078%, 70.196078%, 70.196078%)" stroke-opacity="1" stroke-miterlimit="10" d="M 389.839844 500.921875 C 410.921875 475.039062 419.925781 445.394531 413.382812 412.679688 "/>
<path fill-rule="nonzero" fill="rgb(70.196078%, 70.196078%, 70.196078%)" fill-opacity="1" d="M 411.984375 405.683594 L 415.65625 412.226562 L 411.109375 413.132812 L 411.984375 405.683594 "/>
<path fill="none" stroke-width="5.5" stroke-linecap="butt" stroke-linejoin="miter" stroke="rgb(70.196078%, 70.196078%, 70.196078%)" stroke-opacity="1" stroke-miterlimit="10" d="M 350.714844 526.085938 C 363.746094 525.808594 375.433594 521.375 382.90625 510.765625 "/>
<path fill-rule="nonzero" fill="rgb(70.196078%, 70.196078%, 70.196078%)" fill-opacity="1" d="M 387.011719 504.933594 L 384.800781 512.097656 L 381.011719 509.429688 L 387.011719 504.933594 "/>
<path fill="none" stroke-width="4.5" stroke-linecap="butt" stroke-linejoin="miter" stroke="rgb(70.196078%, 70.196078%, 70.196078%)" stroke-opacity="1" stroke-miterlimit="10" d="M 719.425781 652.773438 C 717.613281 675.527344 723.800781 696.011719 740.449219 711.582031 "/>
<path fill-rule="nonzero" fill="rgb(70.196078%, 70.196078%, 70.196078%)" fill-opacity="1" d="M 745.660156 716.453125 L 738.867188 713.273438 L 742.035156 709.890625 L 745.660156 716.453125 "/>
<path fill="none" stroke-width="4.5" stroke-linecap="butt" stroke-linejoin="miter" stroke="rgb(70.196078%, 70.196078%, 70.196078%)" stroke-opacity="1" stroke-miterlimit="10" d="M 703.09375 463.304688 C 681.390625 494.304688 673.777344 528.523438 683.753906 565.003906 "/>
<path fill-rule="nonzero" fill="rgb(70.196078%, 70.196078%, 70.196078%)" fill-opacity="1" d="M 685.636719 571.882812 L 681.519531 565.613281 L 685.988281 564.390625 L 685.636719 571.882812 "/>
<path fill="none" stroke-width="4.5" stroke-linecap="butt" stroke-linejoin="miter" stroke="rgb(70.196078%, 70.196078%, 70.196078%)" stroke-opacity="1" stroke-miterlimit="10" d="M 598.105469 50 C 603.953125 62.949219 613.40625 72.675781 627.230469 75.738281 "/>
<path fill-rule="nonzero" fill="rgb(70.196078%, 70.196078%, 70.196078%)" fill-opacity="1" d="M 634.195312 77.285156 L 626.730469 78.003906 L 627.730469 73.476562 L 634.195312 77.285156 "/>
<path fill="none" stroke-width="4.5" stroke-linecap="butt" stroke-linejoin="miter" stroke="rgb(70.196078%, 70.196078%, 70.196078%)" stroke-opacity="1" stroke-miterlimit="10" d="M 556.320312 57.09375 C 566.949219 61.554688 578.070312 62.285156 587.847656 56.292969 "/>
<path fill-rule="nonzero" fill="rgb(70.196078%, 70.196078%, 70.196078%)" fill-opacity="1" d="M 593.929688 52.5625 L 589.058594 58.265625 L 586.636719 54.316406 L 593.929688 52.5625 "/>
<path fill="none" stroke-width="4.5" stroke-linecap="butt" stroke-linejoin="miter" stroke="rgb(70.196078%, 70.196078%, 70.196078%)" stroke-opacity="1" stroke-miterlimit="10" d="M 517.722656 100.382812 C 534.050781 94.941406 546.710938 84.695312 552.355469 68.476562 "/>
<path fill-rule="nonzero" fill="rgb(70.196078%, 70.196078%, 70.196078%)" fill-opacity="1" d="M 554.703125 61.742188 L 554.546875 69.242188 L 550.167969 67.714844 L 554.703125 61.742188 "/>
<path fill="none" stroke-width="4.5" stroke-linecap="butt" stroke-linejoin="miter" stroke="rgb(70.196078%, 70.196078%, 70.196078%)" stroke-opacity="1" stroke-miterlimit="10" d="M 486.835938 177.492188 C 507.023438 160.375 518.585938 138.5625 517.988281 112.125 "/>
<path fill-rule="nonzero" fill="rgb(70.196078%, 70.196078%, 70.196078%)" fill-opacity="1" d="M 517.824219 104.996094 L 520.304688 112.074219 L 515.671875 112.179688 L 517.824219 104.996094 "/>
<path fill="none" stroke-width="4.5" stroke-linecap="butt" stroke-linejoin="miter" stroke="rgb(70.196078%, 70.196078%, 70.196078%)" stroke-opacity="1" stroke-miterlimit="10" d="M 467.414062 280.671875 C 488.503906 253.402344 496.988281 222.570312 489.417969 188.960938 "/>
<path fill-rule="nonzero" fill="rgb(70.196078%, 70.196078%, 70.196078%)" fill-opacity="1" d="M 487.851562 182 L 491.679688 188.449219 L 487.15625 189.46875 L 487.851562 182 "/>
<path fill="none" stroke-width="4.5" stroke-linecap="butt" stroke-linejoin="miter" stroke="rgb(70.196078%, 70.196078%, 70.196078%)" stroke-opacity="1" stroke-miterlimit="10" d="M 453.308594 394.710938 C 438.25 431.933594 438.609375 469.085938 457.53125 504.480469 "/>
<path fill-rule="nonzero" fill="rgb(70.196078%, 70.196078%, 70.196078%)" fill-opacity="1" d="M 460.894531 510.769531 L 455.484375 505.574219 L 459.574219 503.386719 L 460.894531 510.769531 "/>
<path fill="none" stroke-width="4.5" stroke-linecap="butt" stroke-linejoin="miter" stroke="rgb(70.196078%, 70.196078%, 70.196078%)" stroke-opacity="1" stroke-miterlimit="10" d="M 453.308594 394.710938 C 474.53125 363.070312 481.46875 328.484375 470.730469 291.949219 "/>
<path fill-rule="nonzero" fill="rgb(70.196078%, 70.196078%, 70.196078%)" fill-opacity="1" d="M 468.71875 285.105469 L 472.953125 291.296875 L 468.507812 292.605469 L 468.71875 285.105469 "/>
<path fill="none" stroke-width="4.5" stroke-linecap="butt" stroke-linejoin="miter" stroke="rgb(70.196078%, 70.196078%, 70.196078%)" stroke-opacity="1" stroke-miterlimit="10" d="M 411.078125 401.152344 C 421.566406 405.828125 432.636719 406.808594 442.496094 401.039062 "/>
<path fill-rule="nonzero" fill="rgb(70.196078%, 70.196078%, 70.196078%)" fill-opacity="1" d="M 448.652344 397.4375 L 443.667969 403.039062 L 441.324219 399.039062 L 448.652344 397.4375 "/>
<path fill="none" stroke-width="5.5" stroke-linecap="butt" stroke-linejoin="miter" stroke="rgb(70.196078%, 70.196078%, 70.196078%)" stroke-opacity="1" stroke-miterlimit="10" d="M 312.007812 543.980469 C 323.53125 545.503906 334.535156 543.261719 342.464844 534.84375 "/>
<path fill-rule="nonzero" fill="rgb(70.196078%, 70.196078%, 70.196078%)" fill-opacity="1" d="M 347.355469 529.652344 L 344.152344 536.433594 L 340.777344 533.253906 L 347.355469 529.652344 "/>
<path fill="none" stroke-width="5.5" stroke-linecap="butt" stroke-linejoin="miter" stroke="rgb(70.196078%, 70.196078%, 70.196078%)" stroke-opacity="1" stroke-miterlimit="10" d="M 271.398438 537.683594 C 279.675781 545.019531 289.570312 549.160156 300.285156 546.6875 "/>
<path fill-rule="nonzero" fill="rgb(70.196078%, 70.196078%, 70.196078%)" fill-opacity="1" d="M 307.234375 545.082031 L 300.804688 548.945312 L 299.761719 544.429688 L 307.234375 545.082031 "/>
<path fill="none" stroke-width="2.5" stroke-linecap="butt" stroke-linejoin="miter" stroke="rgb(70.196078%, 70.196078%, 70.196078%)" stroke-opacity="1" stroke-miterlimit="10" d="M 233.238281 590.195312 C 247.210938 554.160156 246.375 518.386719 227.636719 484.601562 "/>
<path fill-rule="nonzero" fill="rgb(70.196078%, 70.196078%, 70.196078%)" fill-opacity="1" d="M 224.179688 478.363281 L 229.664062 483.480469 L 225.609375 485.726562 L 224.179688 478.363281 "/>
<path fill="none" stroke-width="3.5" stroke-linecap="butt" stroke-linejoin="miter" stroke="rgb(70.196078%, 70.196078%, 70.196078%)" stroke-opacity="1" stroke-miterlimit="10" d="M 233.238281 590.195312 C 251.027344 582.050781 263.929688 568.898438 268.472656 549.902344 "/>
<path fill-rule="nonzero" fill="rgb(70.196078%, 70.196078%, 70.196078%)" fill-opacity="1" d="M 270.132812 542.964844 L 270.726562 550.441406 L 266.21875 549.363281 L 270.132812 542.964844 "/>
<path fill="none" stroke-width="4.5" stroke-linecap="butt" stroke-linejoin="miter" stroke="rgb(70.196078%, 70.196078%, 70.196078%)" stroke-opacity="1" stroke-miterlimit="10" d="M 711.757812 347.316406 C 691.847656 380.398438 686.558594 415.746094 699.230469 452.199219 "/>
<path fill-rule="nonzero" fill="rgb(70.196078%, 70.196078%, 70.196078%)" fill-opacity="1" d="M 701.574219 458.933594 L 697.042969 452.957031 L 701.421875 451.4375 L 701.574219 458.933594 "/>
<path fill="none" stroke-width="4.5" stroke-linecap="butt" stroke-linejoin="miter" stroke="rgb(70.196078%, 70.196078%, 70.196078%)" stroke-opacity="1" stroke-miterlimit="10" d="M 675.054688 140.261719 C 669 170.808594 674.484375 199.226562 694.242188 223.269531 "/>
<path fill-rule="nonzero" fill="rgb(70.196078%, 70.196078%, 70.196078%)" fill-opacity="1" d="M 698.773438 228.777344 L 692.453125 224.738281 L 696.035156 221.796875 L 698.773438 228.777344 "/>
<path fill="none" stroke-width="4.5" stroke-linecap="butt" stroke-linejoin="miter" stroke="rgb(70.196078%, 70.196078%, 70.196078%)" stroke-opacity="1" stroke-miterlimit="10" d="M 638.992188 78.347656 C 639.648438 100.636719 647.832031 119.871094 665.65625 133.222656 "/>
<path fill-rule="nonzero" fill="rgb(70.196078%, 70.196078%, 70.196078%)" fill-opacity="1" d="M 671.363281 137.5 L 664.265625 135.078125 L 667.046875 131.371094 L 671.363281 137.5 "/>
<path fill="none" stroke-width="1.5" stroke-linecap="butt" stroke-linejoin="miter" stroke="rgb(12.156863%, 47.058824%, 70.588235%)" stroke-opacity="1" stroke-miterlimit="10" d="M 193.453125 630.992188 C 176.757812 667.652344 175.5625 704.875 192.949219 741.195312 "/>
<path fill-rule="nonzero" fill="rgb(12.156863%, 47.058824%, 70.588235%)" fill-opacity="1" d="M 196.027344 747.628906 L 190.859375 742.195312 L 195.039062 740.195312 L 196.027344 747.628906 "/>
<path fill="none" stroke-width="4.5" stroke-linecap="butt" stroke-linejoin="miter" stroke="rgb(70.196078%, 70.196078%, 70.196078%)" stroke-opacity="1" stroke-miterlimit="10" d="M 193.453125 630.992188 C 209.523438 626.539062 222.320312 617.265625 228.542969 601.839844 "/>
<path fill-rule="nonzero" fill="rgb(70.196078%, 70.196078%, 70.196078%)" fill-opacity="1" d="M 231.210938 595.222656 L 230.691406 602.707031 L 226.390625 600.972656 L 231.210938 595.222656 "/>
<path fill="none" stroke-width="5.5" stroke-linecap="butt" stroke-linejoin="miter" stroke="rgb(70.196078%, 70.196078%, 70.196078%)" stroke-opacity="1" stroke-miterlimit="10" d="M 153.695312 603.464844 C 159.292969 615.96875 168.371094 625.421875 181.699219 628.382812 "/>
<path fill-rule="nonzero" fill="rgb(70.196078%, 70.196078%, 70.196078%)" fill-opacity="1" d="M 188.660156 629.929688 L 181.195312 630.644531 L 182.199219 626.121094 L 188.660156 629.929688 "/>
<path fill="none" stroke-width="5.5" stroke-linecap="butt" stroke-linejoin="miter" stroke="rgb(70.196078%, 70.196078%, 70.196078%)" stroke-opacity="1" stroke-miterlimit="10" d="M 114.425781 588.519531 C 121.230469 597.660156 130.332031 603.882812 141.664062 603.679688 "/>
<path fill-rule="nonzero" fill="rgb(70.196078%, 70.196078%, 70.196078%)" fill-opacity="1" d="M 148.796875 603.550781 L 141.707031 605.996094 L 141.625 601.363281 L 148.796875 603.550781 "/>
<path fill-rule="nonzero" fill="rgb(70.196078%, 70.196078%, 70.196078%)" fill-opacity="1" stroke-width="1" stroke-linecap="butt" stroke-linejoin="miter" stroke="rgb(70.196078%, 70.196078%, 70.196078%)" stroke-opacity="1" stroke-miterlimit="10" d="M 706.554688 232.347656 C 706.554688 238.8125 696.855469 238.8125 696.855469 232.347656 C 696.855469 225.878906 706.554688 225.878906 706.554688 232.347656 "/>
<path fill-rule="nonzero" fill="rgb(70.196078%, 70.196078%, 70.196078%)" fill-opacity="1" stroke-width="1" stroke-linecap="butt" stroke-linejoin="miter" stroke="rgb(70.196078%, 70.196078%, 70.196078%)" stroke-opacity="1" stroke-miterlimit="10" d="M 88.144531 514.003906 C 88.144531 520.472656 78.445312 520.472656 78.445312 514.003906 C 78.445312 507.539062 88.144531 507.539062 88.144531 514.003906 "/>
<path fill-rule="nonzero" fill="rgb(100%, 84.313725%, 0%)" fill-opacity="1" stroke-width="1" stroke-linecap="butt" stroke-linejoin="miter" stroke="rgb(100%, 84.313725%, 0%)" stroke-opacity="1" stroke-miterlimit="10" d="M 44.648438 573.9375 L 55.347656 573.9375 L 55.347656 584.636719 L 44.648438 584.636719 Z M 44.648438 573.9375 "/>
<path fill-rule="nonzero" fill="rgb(70.196078%, 70.196078%, 70.196078%)" fill-opacity="1" stroke-width="1" stroke-linecap="butt" stroke-linejoin="miter" stroke="rgb(70.196078%, 70.196078%, 70.196078%)" stroke-opacity="1" stroke-miterlimit="10" d="M 260.773438 424.847656 C 260.773438 431.3125 251.074219 431.3125 251.074219 424.847656 C 251.074219 418.378906 260.773438 418.378906 260.773438 424.847656 "/>
<path fill-rule="nonzero" fill="rgb(12.156863%, 47.058824%, 70.588235%)" fill-opacity="1" stroke-width="1" stroke-linecap="butt" stroke-linejoin="miter" stroke="rgb(12.156863%, 47.058824%, 70.588235%)" stroke-opacity="1" stroke-miterlimit="10" d="M 83.558594 654.261719 C 83.558594 657.925781 78.058594 657.925781 78.058594 654.261719 C 78.058594 650.59375 83.558594 650.59375 83.558594 654.261719 "/>
<path fill-rule="nonzero" fill="rgb(12.156863%, 47.058824%, 70.588235%)" fill-opacity="1" stroke-width="1" stroke-linecap="butt" stroke-linejoin="miter" stroke="rgb(12.156863%, 47.058824%, 70.588235%)" stroke-opacity="1" stroke-miterlimit="10" d="M 236.875 711.511719 C 236.875 715.175781 231.375 715.175781 231.375 711.511719 C 231.375 707.84375 236.875 707.84375 236.875 711.511719 "/>
<path fill-rule="nonzero" fill="rgb(12.156863%, 47.058824%, 70.588235%)" fill-opacity="1" stroke-width="1" stroke-linecap="butt" stroke-linejoin="miter" stroke="rgb(12.156863%, 47.058824%, 70.588235%)" stroke-opacity="1" stroke-miterlimit="10" d="M 199.914062 750 C 199.914062 753.667969 194.414062 753.667969 194.414062 750 C 194.414062 746.332031 199.914062 746.332031 199.914062 750 "/>
<path fill-rule="nonzero" fill="rgb(12.156863%, 47.058824%, 70.588235%)" fill-opacity="1" stroke-width="1" stroke-linecap="butt" stroke-linejoin="miter" stroke="rgb(12.156863%, 47.058824%, 70.588235%)" stroke-opacity="1" stroke-miterlimit="10" d="M 532.117188 660.835938 C 532.117188 664.503906 526.617188 664.503906 526.617188 660.835938 C 526.617188 657.171875 532.117188 657.171875 532.117188 660.835938 "/>
<path fill-rule="nonzero" fill="rgb(12.156863%, 47.058824%, 70.588235%)" fill-opacity="1" stroke-width="1" stroke-linecap="butt" stroke-linejoin="miter" stroke="rgb(12.156863%, 47.058824%, 70.588235%)" stroke-opacity="1" stroke-miterlimit="10" d="M 497.53125 596.972656 C 497.53125 600.640625 492.03125 600.640625 492.03125 596.972656 C 492.03125 593.304688 497.53125 593.304688 497.53125 596.972656 "/>
<path fill-rule="nonzero" fill="rgb(12.156863%, 47.058824%, 70.588235%)" fill-opacity="1" stroke-width="1" stroke-linecap="butt" stroke-linejoin="miter" stroke="rgb(12.156863%, 47.058824%, 70.588235%)" stroke-opacity="1" stroke-miterlimit="10" d="M 613.191406 681.175781 C 613.191406 684.84375 607.691406 684.84375 607.691406 681.175781 C 607.691406 677.511719 613.191406 677.511719 613.191406 681.175781 "/>
<path fill-rule="nonzero" fill="rgb(12.156863%, 47.058824%, 70.588235%)" fill-opacity="1" stroke-width="1" stroke-linecap="butt" stroke-linejoin="miter" stroke="rgb(12.156863%, 47.058824%, 70.588235%)" stroke-opacity="1" stroke-miterlimit="10" d="M 571.953125 690.007812 C 571.953125 693.675781 566.453125 693.675781 566.453125 690.007812 C 566.453125 686.339844 571.953125 686.339844 571.953125 690.007812 "/>
<path fill-rule="nonzero" fill="rgb(14.901961%, 14.901961%, 14.901961%)" fill-opacity="1" stroke-width="1" stroke-linecap="butt" stroke-linejoin="miter" stroke="rgb(14.901961%, 14.901961%, 14.901961%)" stroke-opacity="1" stroke-miterlimit="10" d="M 680.878906 584.0625 L 687.230469 571.363281 L 693.582031 584.0625 Z M 680.878906 584.0625 "/>
<path fill-rule="nonzero" fill="rgb(12.156863%, 47.058824%, 70.588235%)" fill-opacity="1" stroke-width="1" stroke-linecap="butt" stroke-linejoin="miter" stroke="rgb(12.156863%, 47.058824%, 70.588235%)" stroke-opacity="1" stroke-miterlimit="10" d="M 652.058594 637.609375 C 652.058594 641.277344 646.558594 641.277344 646.558594 637.609375 C 646.558594 633.945312 652.058594 633.945312 652.058594 637.609375 "/>
<path fill-rule="nonzero" fill="rgb(70.196078%, 70.196078%, 70.196078%)" fill-opacity="1" stroke-width="1" stroke-linecap="butt" stroke-linejoin="miter" stroke="rgb(70.196078%, 70.196078%, 70.196078%)" stroke-opacity="1" stroke-miterlimit="10" d="M 468.648438 515.269531 C 468.648438 522.402344 457.945312 522.402344 457.945312 515.269531 C 457.945312 508.136719 468.648438 508.136719 468.648438 515.269531 "/>
<path fill-rule="nonzero" fill="rgb(70.196078%, 70.196078%, 70.196078%)" fill-opacity="1" stroke-width="1" stroke-linecap="butt" stroke-linejoin="miter" stroke="rgb(70.196078%, 70.196078%, 70.196078%)" stroke-opacity="1" stroke-miterlimit="10" d="M 226.785156 474.320312 C 226.785156 480.785156 217.085938 480.785156 217.085938 474.320312 C 217.085938 467.851562 226.785156 467.851562 226.785156 474.320312 "/>
<path fill-rule="nonzero" fill="rgb(12.156863%, 47.058824%, 70.588235%)" fill-opacity="1" stroke-width="1" stroke-linecap="butt" stroke-linejoin="miter" stroke="rgb(12.156863%, 47.058824%, 70.588235%)" stroke-opacity="1" stroke-miterlimit="10" d="M 427.132812 564.300781 C 427.132812 567.96875 421.632812 567.96875 421.632812 564.300781 C 421.632812 560.636719 427.132812 560.636719 427.132812 564.300781 "/>
<path fill-rule="nonzero" fill="rgb(70.196078%, 70.196078%, 70.196078%)" fill-opacity="1" stroke-width="1" stroke-linecap="butt" stroke-linejoin="miter" stroke="rgb(70.196078%, 70.196078%, 70.196078%)" stroke-opacity="1" stroke-miterlimit="10" d="M 394.6875 500.921875 C 394.6875 507.386719 384.988281 507.386719 384.988281 500.921875 C 384.988281 494.453125 394.6875 494.453125 394.6875 500.921875 "/>
<path fill-rule="nonzero" fill="rgb(70.196078%, 70.196078%, 70.196078%)" fill-opacity="1" stroke-width="1" stroke-linecap="butt" stroke-linejoin="miter" stroke="rgb(70.196078%, 70.196078%, 70.196078%)" stroke-opacity="1" stroke-miterlimit="10" d="M 355.566406 526.085938 C 355.566406 532.550781 345.867188 532.550781 345.867188 526.085938 C 345.867188 519.617188 355.566406 519.617188 355.566406 526.085938 "/>
<path fill-rule="nonzero" fill="rgb(14.901961%, 14.901961%, 14.901961%)" fill-opacity="1" stroke-width="1" stroke-linecap="butt" stroke-linejoin="miter" stroke="rgb(14.901961%, 14.901961%, 14.901961%)" stroke-opacity="1" stroke-miterlimit="10" d="M 744.148438 726.363281 L 750 714.664062 L 755.851562 726.363281 Z M 744.148438 726.363281 "/>
<path fill-rule="nonzero" fill="rgb(70.196078%, 70.196078%, 70.196078%)" fill-opacity="1" stroke-width="1" stroke-linecap="butt" stroke-linejoin="miter" stroke="rgb(70.196078%, 70.196078%, 70.196078%)" stroke-opacity="1" stroke-miterlimit="10" d="M 724.277344 652.773438 C 724.277344 659.238281 714.578125 659.238281 714.578125 652.773438 C 714.578125 646.304688 724.277344 646.304688 724.277344 652.773438 "/>
<path fill-rule="nonzero" fill="rgb(70.196078%, 70.196078%, 70.196078%)" fill-opacity="1" stroke-width="1" stroke-linecap="butt" stroke-linejoin="miter" stroke="rgb(70.196078%, 70.196078%, 70.196078%)" stroke-opacity="1" stroke-miterlimit="10" d="M 707.941406 463.304688 C 707.941406 469.769531 698.242188 469.769531 698.242188 463.304688 C 698.242188 456.835938 707.941406 456.835938 707.941406 463.304688 "/>
<path fill-rule="nonzero" fill="rgb(70.196078%, 70.196078%, 70.196078%)" fill-opacity="1" stroke-width="1" stroke-linecap="butt" stroke-linejoin="miter" stroke="rgb(70.196078%, 70.196078%, 70.196078%)" stroke-opacity="1" stroke-miterlimit="10" d="M 602.957031 50 C 602.957031 56.464844 593.253906 56.464844 593.253906 50 C 593.253906 43.535156 602.957031 43.535156 602.957031 50 "/>
<path fill-rule="nonzero" fill="rgb(70.196078%, 70.196078%, 70.196078%)" fill-opacity="1" stroke-width="1" stroke-linecap="butt" stroke-linejoin="miter" stroke="rgb(70.196078%, 70.196078%, 70.196078%)" stroke-opacity="1" stroke-miterlimit="10" d="M 561.171875 57.09375 C 561.171875 63.558594 551.46875 63.558594 551.46875 57.09375 C 551.46875 50.625 561.171875 50.625 561.171875 57.09375 "/>
<path fill-rule="nonzero" fill="rgb(70.196078%, 70.196078%, 70.196078%)" fill-opacity="1" stroke-width="1" stroke-linecap="butt" stroke-linejoin="miter" stroke="rgb(70.196078%, 70.196078%, 70.196078%)" stroke-opacity="1" stroke-miterlimit="10" d="M 522.570312 100.382812 C 522.570312 106.847656 512.871094 106.847656 512.871094 100.382812 C 512.871094 93.914062 522.570312 93.914062 522.570312 100.382812 "/>
<path fill-rule="nonzero" fill="rgb(70.196078%, 70.196078%, 70.196078%)" fill-opacity="1" stroke-width="1" stroke-linecap="butt" stroke-linejoin="miter" stroke="rgb(70.196078%, 70.196078%, 70.196078%)" stroke-opacity="1" stroke-miterlimit="10" d="M 491.683594 177.492188 C 491.683594 183.957031 481.984375 183.957031 481.984375 177.492188 C 481.984375 171.023438 491.683594 171.023438 491.683594 177.492188 "/>
<path fill-rule="nonzero" fill="rgb(70.196078%, 70.196078%, 70.196078%)" fill-opacity="1" stroke-width="1" stroke-linecap="butt" stroke-linejoin="miter" stroke="rgb(70.196078%, 70.196078%, 70.196078%)" stroke-opacity="1" stroke-miterlimit="10" d="M 472.261719 280.671875 C 472.261719 287.136719 462.5625 287.136719 462.5625 280.671875 C 462.5625 274.203125 472.261719 274.203125 472.261719 280.671875 "/>
<path fill-rule="nonzero" fill="rgb(70.196078%, 70.196078%, 70.196078%)" fill-opacity="1" stroke-width="1" stroke-linecap="butt" stroke-linejoin="miter" stroke="rgb(70.196078%, 70.196078%, 70.196078%)" stroke-opacity="1" stroke-miterlimit="10" d="M 458.660156 394.710938 C 458.660156 401.847656 447.960938 401.847656 447.960938 394.710938 C 447.960938 387.578125 458.660156 387.578125 458.660156 394.710938 "/>
<path fill-rule="nonzero" fill="rgb(70.196078%, 70.196078%, 70.196078%)" fill-opacity="1" stroke-width="1" stroke-linecap="butt" stroke-linejoin="miter" stroke="rgb(70.196078%, 70.196078%, 70.196078%)" stroke-opacity="1" stroke-miterlimit="10" d="M 415.925781 401.152344 C 415.925781 407.621094 406.226562 407.621094 406.226562 401.152344 C 406.226562 394.6875 415.925781 394.6875 415.925781 401.152344 "/>
<path fill-rule="nonzero" fill="rgb(70.196078%, 70.196078%, 70.196078%)" fill-opacity="1" stroke-width="1" stroke-linecap="butt" stroke-linejoin="miter" stroke="rgb(70.196078%, 70.196078%, 70.196078%)" stroke-opacity="1" stroke-miterlimit="10" d="M 316.855469 543.980469 C 316.855469 550.449219 307.15625 550.449219 307.15625 543.980469 C 307.15625 537.515625 316.855469 537.515625 316.855469 543.980469 "/>
<path fill-rule="nonzero" fill="rgb(70.196078%, 70.196078%, 70.196078%)" fill-opacity="1" stroke-width="1" stroke-linecap="butt" stroke-linejoin="miter" stroke="rgb(70.196078%, 70.196078%, 70.196078%)" stroke-opacity="1" stroke-miterlimit="10" d="M 276.746094 537.683594 C 276.746094 544.816406 266.046875 544.816406 266.046875 537.683594 C 266.046875 530.550781 276.746094 530.550781 276.746094 537.683594 "/>
<path fill-rule="nonzero" fill="rgb(70.196078%, 70.196078%, 70.196078%)" fill-opacity="1" stroke-width="1" stroke-linecap="butt" stroke-linejoin="miter" stroke="rgb(70.196078%, 70.196078%, 70.196078%)" stroke-opacity="1" stroke-miterlimit="10" d="M 238.585938 590.195312 C 238.585938 597.328125 227.886719 597.328125 227.886719 590.195312 C 227.886719 583.0625 238.585938 583.0625 238.585938 590.195312 "/>
<path fill-rule="nonzero" fill="rgb(70.196078%, 70.196078%, 70.196078%)" fill-opacity="1" stroke-width="1" stroke-linecap="butt" stroke-linejoin="miter" stroke="rgb(70.196078%, 70.196078%, 70.196078%)" stroke-opacity="1" stroke-miterlimit="10" d="M 716.605469 347.316406 C 716.605469 353.785156 706.90625 353.785156 706.90625 347.316406 C 706.90625 340.851562 716.605469 340.851562 716.605469 347.316406 "/>
<path fill-rule="nonzero" fill="rgb(70.196078%, 70.196078%, 70.196078%)" fill-opacity="1" stroke-width="1" stroke-linecap="butt" stroke-linejoin="miter" stroke="rgb(70.196078%, 70.196078%, 70.196078%)" stroke-opacity="1" stroke-miterlimit="10" d="M 679.902344 140.261719 C 679.902344 146.730469 670.203125 146.730469 670.203125 140.261719 C 670.203125 133.796875 679.902344 133.796875 679.902344 140.261719 "/>
<path fill-rule="nonzero" fill="rgb(70.196078%, 70.196078%, 70.196078%)" fill-opacity="1" stroke-width="1" stroke-linecap="butt" stroke-linejoin="miter" stroke="rgb(70.196078%, 70.196078%, 70.196078%)" stroke-opacity="1" stroke-miterlimit="10" d="M 643.839844 78.347656 C 643.839844 84.8125 634.140625 84.8125 634.140625 78.347656 C 634.140625 71.878906 643.839844 71.878906 643.839844 78.347656 "/>
<path fill-rule="nonzero" fill="rgb(70.196078%, 70.196078%, 70.196078%)" fill-opacity="1" stroke-width="1" stroke-linecap="butt" stroke-linejoin="miter" stroke="rgb(70.196078%, 70.196078%, 70.196078%)" stroke-opacity="1" stroke-miterlimit="10" d="M 198.304688 630.992188 C 198.304688 637.460938 188.605469 637.460938 188.605469 630.992188 C 188.605469 624.527344 198.304688 624.527344 198.304688 630.992188 "/>
<path fill-rule="nonzero" fill="rgb(70.196078%, 70.196078%, 70.196078%)" fill-opacity="1" stroke-width="1" stroke-linecap="butt" stroke-linejoin="miter" stroke="rgb(70.196078%, 70.196078%, 70.196078%)" stroke-opacity="1" stroke-miterlimit="10" d="M 158.546875 603.464844 C 158.546875 609.929688 148.84375 609.929688 148.84375 603.464844 C 148.84375 596.996094 158.546875 596.996094 158.546875 603.464844 "/>
<path fill-rule="nonzero" fill="rgb(70.196078%, 70.196078%, 70.196078%)" fill-opacity="1" stroke-width="1" stroke-linecap="butt" stroke-linejoin="miter" stroke="rgb(70.196078%, 70.196078%, 70.196078%)" stroke-opacity="1" stroke-miterlimit="10" d="M 119.777344 588.519531 C 119.777344 595.652344 109.078125 595.652344 109.078125 588.519531 C 109.078125 581.386719 119.777344 581.386719 119.777344 588.519531 "/>
</svg>
