<?xml version="1.0" encoding="UTF-8"?>
<svg xmlns="http://www.w3.org/2000/svg" xmlns:xlink="http://www.w3.org/1999/xlink" width="800" height="800" viewBox="0 0 800 800">
<rect x="-80" y="-80" width="960" height="960" fill="rgb(100%, 100%, 100%)" fill-opacity="1"/>
<path fill="none" stroke-width="1.5" stroke-linecap="butt" stroke-linejoin="miter" stroke="rgb(99.215686%, 74.901961%, 43.529412%)" stroke-opacity="1" stroke-miterlimit="10" d="M 668.226562 50 C 659.9375 46.953125 651.203125 46.5625 644.125 51.710938 "/>
<path fill-rule="nonzero" fill="rgb(99.215686%, 74.901961%, 43.529412%)" fill-opacity="1" d="M 638.355469 55.902344 L 642.765625 49.835938 L 645.488281 53.585938 L 638.355469 55.902344 "/>
<path fill="none" stroke-width="1.5" stroke-linecap="butt" stroke-linejoin="miter" stroke="rgb(30.196078%, 68.627451%, 29.019608%)" stroke-opacity="1" stroke-miterlimit="10" d="M 659.179688 88.585938 C 657.941406 78.90625 653.832031 70.257812 645.21875 65.824219 "/>
<path fill-rule="nonzero" fill="rgb(30.196078%, 68.627451%, 29.019608%)" fill-opacity="1" d="M 638.875 62.558594 L 646.28125 63.765625 L 644.15625 67.886719 L 638.875 62.558594 "/>
<path fill="none" stroke-width="1.5" stroke-linecap="butt" stroke-linejoin="miter" stroke="rgb(99.215686%, 74.901961%, 43.529412%)" stroke-opacity="1" stroke-miterlimit="10" d="M 659.179688 88.585938 C 667.066406 80.59375 671.753906 70.804688 669.886719 59.789062 "/>
<path fill-rule="nonzero" fill="rgb(99.215686%, 74.901961%, 43.529412%)" fill-opacity="1" d="M 668.691406 52.757812 L 672.171875 59.402344 L 667.601562 60.175781 L 668.691406 52.757812 "/>
<path fill="none" stroke-width="1.5" stroke-linecap="butt" stroke-linejoin="miter" stroke="rgb(41.568627%, 23.921569%, 60.392157%)" stroke-opacity="1" stroke-miterlimit="10" d="M 671.296875 629.429688 C 671.460938 639.699219 674.800781 649.117188 683.234375 654.875 "/>
<path fill-rule="nonzero" fill="rgb(41.568627%, 23.921569%, 60.392157%)" fill-opacity="1" d="M 689.125 658.894531 L 681.929688 656.789062 L 684.539062 652.960938 L 689.125 658.894531 "/>
<path fill="none" stroke-width="1.5" stroke-linecap="butt" stroke-linejoin="miter" stroke="rgb(98.431373%, 60.392157%, 60%)" stroke-opacity="1" stroke-miterlimit="10" d="M 671.296875 629.429688 C 661.996094 636.785156 655.832031 646.4375 656.351562 658.226562 "/>
<path fill-rule="nonzero" fill="rgb(98.431373%, 60.392157%, 60%)" fill-opacity="1" d="M 656.664062 665.351562 L 654.035156 658.328125 L 658.664062 658.125 L 656.664062 665.351562 "/>
<path fill="none" stroke-width="2.5" stroke-linecap="butt" stroke-linejoin="miter" stroke="rgb(70.196078%, 70.196078%, 70.196078%)" stroke-opacity="1" stroke-miterlimit="10" d="M 686.664062 588.96875 C 677.199219 596.105469 670.824219 605.601562 671.058594 617.394531 "/>
<path fill-rule="nonzero" fill="rgb(70.196078%, 70.196078%, 70.196078%)" fill-opacity="1" d="M 671.199219 624.527344 L 668.742188 617.441406 L 673.375 617.351562 L 671.199219 624.527344 "/>
<path fill="none" stroke-width="1.5" stroke-linecap="butt" stroke-linejoin="miter" stroke="rgb(41.568627%, 23.921569%, 60.392157%)" stroke-opacity="1" stroke-miterlimit="10" d="M 691.433594 660.472656 C 682.828125 657.648438 673.894531 657.589844 666.792969 663.085938 "/>
<path fill-rule="nonzero" fill="rgb(41.568627%, 23.921569%, 60.392157%)" fill-opacity="1" d="M 661.152344 667.453125 L 665.375 661.253906 L 668.210938 664.917969 L 661.152344 667.453125 "/>
<path fill="none" stroke-width="1.5" stroke-linecap="butt" stroke-linejoin="miter" stroke="rgb(41.568627%, 23.921569%, 60.392157%)" stroke-opacity="1" stroke-miterlimit="10" d="M 656.898438 670.746094 C 645.324219 667.863281 633.898438 668.925781 624.789062 676.542969 "/>
<path fill-rule="nonzero" fill="rgb(41.568627%, 23.921569%, 60.392157%)" fill-opacity="1" d="M 619.316406 681.117188 L 623.300781 674.765625 L 626.277344 678.320312 L 619.316406 681.117188 "/>
<path fill="none" stroke-width="1.5" stroke-linecap="butt" stroke-linejoin="miter" stroke="rgb(98.431373%, 60.392157%, 60%)" stroke-opacity="1" stroke-miterlimit="10" d="M 656.898438 670.746094 C 655.15625 683.707031 657.765625 695.953125 667.101562 705.042969 "/>
<path fill-rule="nonzero" fill="rgb(98.431373%, 60.392157%, 60%)" fill-opacity="1" d="M 672.210938 710.023438 L 665.484375 706.703125 L 668.71875 703.382812 L 672.210938 710.023438 "/>
<path fill="none" stroke-width="1.5" stroke-linecap="butt" stroke-linejoin="miter" stroke="rgb(41.568627%, 23.921569%, 60.392157%)" stroke-opacity="1" stroke-miterlimit="10" d="M 617.3125 682.792969 C 606.414062 683.128906 596.515625 686.84375 590.496094 695.859375 "/>
<path fill-rule="nonzero" fill="rgb(41.568627%, 23.921569%, 60.392157%)" fill-opacity="1" d="M 586.535156 701.792969 L 588.566406 694.574219 L 592.421875 697.148438 L 586.535156 701.792969 "/>
<path fill="none" stroke-width="1.5" stroke-linecap="butt" stroke-linejoin="miter" stroke="rgb(98.431373%, 60.392157%, 60%)" stroke-opacity="1" stroke-miterlimit="10" d="M 674.082031 711.847656 C 671.492188 722.664062 672.511719 733.382812 679.757812 741.738281 "/>
<path fill-rule="nonzero" fill="rgb(98.431373%, 60.392157%, 60%)" fill-opacity="1" d="M 684.429688 747.128906 L 678.007812 743.257812 L 681.507812 740.222656 L 684.429688 747.128906 "/>
<path fill="none" stroke-width="1.5" stroke-linecap="butt" stroke-linejoin="miter" stroke="rgb(98.431373%, 60.392157%, 60%)" stroke-opacity="1" stroke-miterlimit="10" d="M 740.847656 499.382812 C 735.335938 489.175781 727.082031 481.582031 715.632812 480.109375 "/>
<path fill-rule="nonzero" fill="rgb(98.431373%, 60.392157%, 60%)" fill-opacity="1" d="M 708.558594 479.203125 L 715.929688 477.8125 L 715.339844 482.410156 L 708.558594 479.203125 "/>
<path fill="none" stroke-width="1.5" stroke-linecap="butt" stroke-linejoin="miter" stroke="rgb(41.568627%, 23.921569%, 60.392157%)" stroke-opacity="1" stroke-miterlimit="10" d="M 740.847656 499.382812 C 736.9375 511.199219 737.1875 523.144531 744.359375 533.253906 "/>
<path fill-rule="nonzero" fill="rgb(41.568627%, 23.921569%, 60.392157%)" fill-opacity="1" d="M 748.488281 539.074219 L 742.46875 534.597656 L 746.25 531.914062 L 748.488281 539.074219 "/>
<path fill="none" stroke-width="1.5" stroke-linecap="butt" stroke-linejoin="miter" stroke="rgb(98.431373%, 60.392157%, 60%)" stroke-opacity="1" stroke-miterlimit="10" d="M 664.914062 550.675781 C 664.332031 562.625 667.582031 573.703125 676.878906 581.140625 "/>
<path fill-rule="nonzero" fill="rgb(98.431373%, 60.392157%, 60%)" fill-opacity="1" d="M 682.449219 585.59375 L 675.429688 582.949219 L 678.324219 579.328125 L 682.449219 585.59375 "/>
<path fill="none" stroke-width="1.5" stroke-linecap="butt" stroke-linejoin="miter" stroke="rgb(98.431373%, 60.392157%, 60%)" stroke-opacity="1" stroke-miterlimit="10" d="M 671.113281 508.125 C 663.25 517.863281 659.265625 529.191406 662.433594 541.246094 "/>
<path fill-rule="nonzero" fill="rgb(98.431373%, 60.392157%, 60%)" fill-opacity="1" d="M 664.246094 548.144531 L 660.191406 541.835938 L 664.675781 540.660156 L 664.246094 548.144531 "/>
<path fill="none" stroke-width="2.5" stroke-linecap="butt" stroke-linejoin="miter" stroke="rgb(70.196078%, 70.196078%, 70.196078%)" stroke-opacity="1" stroke-miterlimit="10" d="M 703.207031 478.515625 C 708.867188 488.832031 717.289062 496.457031 728.90625 497.898438 "/>
<path fill-rule="nonzero" fill="rgb(70.196078%, 70.196078%, 70.196078%)" fill-opacity="1" d="M 735.984375 498.777344 L 728.621094 500.199219 L 729.191406 495.597656 L 735.984375 498.777344 "/>
<path fill="none" stroke-width="1.5" stroke-linecap="butt" stroke-linejoin="miter" stroke="rgb(98.431373%, 60.392157%, 60%)" stroke-opacity="1" stroke-miterlimit="10" d="M 703.207031 478.515625 C 690.734375 481.207031 680.34375 487.652344 675.117188 499.238281 "/>
<path fill-rule="nonzero" fill="rgb(98.431373%, 60.392157%, 60%)" fill-opacity="1" d="M 672.1875 505.742188 L 673.003906 498.285156 L 677.230469 500.191406 L 672.1875 505.742188 "/>
<path fill="none" stroke-width="1.5" stroke-linecap="butt" stroke-linejoin="miter" stroke="rgb(12.156863%, 47.058824%, 70.588235%)" stroke-opacity="1" stroke-miterlimit="10" d="M 50 424.34375 C 56.074219 415.480469 58.871094 405.445312 55.203125 395.410156 "/>
<path fill-rule="nonzero" fill="rgb(12.156863%, 47.058824%, 70.588235%)" fill-opacity="1" d="M 52.753906 388.710938 L 57.378906 394.613281 L 53.023438 396.207031 L 52.753906 388.710938 "/>
<path fill="none" stroke-width="2.5" stroke-linecap="butt" stroke-linejoin="miter" stroke="rgb(70.196078%, 70.196078%, 70.196078%)" stroke-opacity="1" stroke-miterlimit="10" d="M 703.398438 396.777344 C 709.714844 388.46875 712.972656 378.839844 709.828125 368.953125 "/>
<path fill-rule="nonzero" fill="rgb(70.196078%, 70.196078%, 70.196078%)" fill-opacity="1" d="M 707.664062 362.15625 L 712.035156 368.25 L 707.617188 369.65625 L 707.664062 362.15625 "/>
<path fill="none" stroke-width="2.5" stroke-linecap="butt" stroke-linejoin="miter" stroke="rgb(70.196078%, 70.196078%, 70.196078%)" stroke-opacity="1" stroke-miterlimit="10" d="M 703.398438 396.777344 C 697.234375 405.421875 694.238281 415.304688 697.722656 425.261719 "/>
<path fill-rule="nonzero" fill="rgb(70.196078%, 70.196078%, 70.196078%)" fill-opacity="1" d="M 700.082031 431.996094 L 695.535156 426.027344 L 699.910156 424.496094 L 700.082031 431.996094 "/>
<path fill="none" stroke-width="1.5" stroke-linecap="butt" stroke-linejoin="miter" stroke="rgb(12.156863%, 47.058824%, 70.588235%)" stroke-opacity="1" stroke-miterlimit="10" d="M 63.484375 310.640625 C 70.003906 302.171875 73.339844 292.359375 70.246094 282.195312 "/>
<path fill-rule="nonzero" fill="rgb(12.156863%, 47.058824%, 70.588235%)" fill-opacity="1" d="M 68.167969 275.371094 L 72.460938 281.519531 L 68.027344 282.871094 L 68.167969 275.371094 "/>
<path fill="none" stroke-width="2.5" stroke-linecap="butt" stroke-linejoin="miter" stroke="rgb(70.196078%, 70.196078%, 70.196078%)" stroke-opacity="1" stroke-miterlimit="10" d="M 696.519531 240.429688 C 701.539062 231.296875 703.34375 221.308594 698.785156 212.007812 "/>
<path fill-rule="nonzero" fill="rgb(70.196078%, 70.196078%, 70.196078%)" fill-opacity="1" d="M 695.644531 205.605469 L 700.863281 210.988281 L 696.703125 213.03125 L 695.644531 205.605469 "/>
<path fill="none" stroke-width="1.5" stroke-linecap="butt" stroke-linejoin="miter" stroke="rgb(12.156863%, 47.058824%, 70.588235%)" stroke-opacity="1" stroke-miterlimit="10" d="M 51.792969 386.085938 C 58.605469 377.8125 62.269531 368.085938 59.503906 357.792969 "/>
<path fill-rule="nonzero" fill="rgb(12.156863%, 47.058824%, 70.588235%)" fill-opacity="1" d="M 57.652344 350.90625 L 61.742188 357.191406 L 57.265625 358.394531 L 57.652344 350.90625 "/>
<path fill="none" stroke-width="1.5" stroke-linecap="butt" stroke-linejoin="miter" stroke="rgb(12.156863%, 47.058824%, 70.588235%)" stroke-opacity="1" stroke-miterlimit="10" d="M 56.925781 348.203125 C 64.03125 340.226562 68.058594 330.679688 65.691406 320.320312 "/>
<path fill-rule="nonzero" fill="rgb(12.156863%, 47.058824%, 70.588235%)" fill-opacity="1" d="M 64.105469 313.367188 L 67.953125 319.804688 L 63.433594 320.835938 L 64.105469 313.367188 "/>
<path fill="none" stroke-width="1.5" stroke-linecap="butt" stroke-linejoin="miter" stroke="rgb(12.156863%, 47.058824%, 70.588235%)" stroke-opacity="1" stroke-miterlimit="10" d="M 50.839844 462.507812 C 56.269531 453.289062 58.371094 443.132812 54.042969 433.414062 "/>
<path fill-rule="nonzero" fill="rgb(12.156863%, 47.058824%, 70.588235%)" fill-opacity="1" d="M 51.136719 426.898438 L 56.160156 432.472656 L 51.925781 434.359375 L 51.136719 426.898438 "/>
<path fill="none" stroke-width="2.5" stroke-linecap="butt" stroke-linejoin="miter" stroke="rgb(70.196078%, 70.196078%, 70.196078%)" stroke-opacity="1" stroke-miterlimit="10" d="M 706.984375 318.203125 C 712.121094 309.140625 714.058594 299.179688 709.621094 289.824219 "/>
<path fill-rule="nonzero" fill="rgb(70.196078%, 70.196078%, 70.196078%)" fill-opacity="1" d="M 706.566406 283.378906 L 711.71875 288.832031 L 707.527344 290.816406 L 706.566406 283.378906 "/>
<path fill="none" stroke-width="1.5" stroke-linecap="butt" stroke-linejoin="miter" stroke="rgb(12.156863%, 47.058824%, 70.588235%)" stroke-opacity="1" stroke-miterlimit="10" d="M 56.578125 538.996094 C 61.210938 529.289062 62.421875 518.933594 57.238281 509.578125 "/>
<path fill-rule="nonzero" fill="rgb(12.156863%, 47.058824%, 70.588235%)" fill-opacity="1" d="M 53.785156 503.339844 L 59.265625 508.457031 L 55.210938 510.703125 L 53.785156 503.339844 "/>
<path fill="none" stroke-width="2.5" stroke-linecap="butt" stroke-linejoin="miter" stroke="rgb(70.196078%, 70.196078%, 70.196078%)" stroke-opacity="1" stroke-miterlimit="10" d="M 684.519531 163.058594 C 687.199219 153.054688 686.578125 142.976562 679.96875 135.089844 "/>
<path fill-rule="nonzero" fill="rgb(70.196078%, 70.196078%, 70.196078%)" fill-opacity="1" d="M 675.390625 129.621094 L 681.746094 133.601562 L 678.191406 136.578125 L 675.390625 129.621094 "/>
<path fill="none" stroke-width="1.5" stroke-linecap="butt" stroke-linejoin="miter" stroke="rgb(12.156863%, 47.058824%, 70.588235%)" stroke-opacity="1" stroke-miterlimit="10" d="M 52.429688 500.894531 C 57.714844 491.488281 59.617188 481.207031 55.058594 471.496094 "/>
<path fill-rule="nonzero" fill="rgb(12.156863%, 47.058824%, 70.588235%)" fill-opacity="1" d="M 52.027344 465.039062 L 57.15625 470.511719 L 52.960938 472.480469 L 52.027344 465.039062 "/>
<path fill="none" stroke-width="2.5" stroke-linecap="butt" stroke-linejoin="miter" stroke="rgb(70.196078%, 70.196078%, 70.196078%)" stroke-opacity="1" stroke-miterlimit="10" d="M 693.488281 201.210938 C 697.039062 191.46875 697.300781 181.367188 691.402344 172.921875 "/>
<path fill-rule="nonzero" fill="rgb(70.196078%, 70.196078%, 70.196078%)" fill-opacity="1" d="M 687.320312 167.070312 L 693.304688 171.59375 L 689.503906 174.246094 L 687.320312 167.070312 "/>
<path fill="none" stroke-width="1.5" stroke-linecap="butt" stroke-linejoin="miter" stroke="rgb(12.156863%, 47.058824%, 70.588235%)" stroke-opacity="1" stroke-miterlimit="10" d="M 76.78125 235.578125 C 84.304688 228.347656 88.992188 219.347656 87.429688 209.09375 "/>
<path fill-rule="nonzero" fill="rgb(12.156863%, 47.058824%, 70.588235%)" fill-opacity="1" d="M 86.359375 202.042969 L 89.722656 208.746094 L 85.140625 209.445312 L 86.359375 202.042969 "/>
<path fill="none" stroke-width="2.5" stroke-linecap="butt" stroke-linejoin="miter" stroke="rgb(70.196078%, 70.196078%, 70.196078%)" stroke-opacity="1" stroke-miterlimit="10" d="M 706.179688 357.492188 C 712.058594 348.90625 714.828125 339.152344 711.199219 329.464844 "/>
<path fill-rule="nonzero" fill="rgb(70.196078%, 70.196078%, 70.196078%)" fill-opacity="1" d="M 708.699219 322.785156 L 713.371094 328.652344 L 709.03125 330.277344 L 708.699219 322.785156 "/>
<path fill="none" stroke-width="2.5" stroke-linecap="butt" stroke-linejoin="miter" stroke="rgb(70.196078%, 70.196078%, 70.196078%)" stroke-opacity="1" stroke-miterlimit="10" d="M 704.472656 278.957031 C 708.296875 269.261719 708.828125 259.125 703.132812 250.476562 "/>
<path fill-rule="nonzero" fill="rgb(70.196078%, 70.196078%, 70.196078%)" fill-opacity="1" d="M 699.210938 244.519531 L 705.070312 249.203125 L 701.199219 251.75 L 699.210938 244.519531 "/>
<path fill="none" stroke-width="2.5" stroke-linecap="butt" stroke-linejoin="miter" stroke="rgb(70.196078%, 70.196078%, 70.196078%)" stroke-opacity="1" stroke-miterlimit="10" d="M 672.246094 125.871094 C 674.753906 115.691406 673.914062 105.519531 667.074219 97.660156 "/>
<path fill-rule="nonzero" fill="rgb(70.196078%, 70.196078%, 70.196078%)" fill-opacity="1" d="M 662.390625 92.277344 L 668.824219 96.136719 L 665.324219 99.179688 L 662.390625 92.277344 "/>
<path fill="none" stroke-width="1.5" stroke-linecap="butt" stroke-linejoin="miter" stroke="rgb(12.156863%, 47.058824%, 70.588235%)" stroke-opacity="1" stroke-miterlimit="10" d="M 67.351562 272.695312 C 75.078125 265.230469 79.832031 255.964844 78.253906 245.398438 "/>
<path fill-rule="nonzero" fill="rgb(12.156863%, 47.058824%, 70.588235%)" fill-opacity="1" d="M 77.195312 238.34375 L 80.542969 245.054688 L 75.960938 245.742188 L 77.195312 238.34375 "/>
<path fill="none" stroke-width="2.5" stroke-linecap="butt" stroke-linejoin="miter" stroke="rgb(70.196078%, 70.196078%, 70.196078%)" stroke-opacity="1" stroke-miterlimit="10" d="M 701.699219 436.613281 C 695.960938 446.226562 693.707031 456.84375 698.175781 467.039062 "/>
<path fill-rule="nonzero" fill="rgb(70.196078%, 70.196078%, 70.196078%)" fill-opacity="1" d="M 701.039062 473.574219 L 696.054688 467.972656 L 700.296875 466.109375 L 701.039062 473.574219 "/>
<path fill="none" stroke-width="1.5" stroke-linecap="butt" stroke-linejoin="miter" stroke="rgb(41.568627%, 23.921569%, 60.392157%)" stroke-opacity="1" stroke-miterlimit="10" d="M 728.359375 577.941406 C 717.28125 574.390625 706.039062 574.632812 696.738281 581.515625 "/>
<path fill-rule="nonzero" fill="rgb(41.568627%, 23.921569%, 60.392157%)" fill-opacity="1" d="M 691.003906 585.757812 L 695.359375 579.652344 L 698.117188 583.378906 L 691.003906 585.757812 "/>
<path fill="none" stroke-width="1.5" stroke-linecap="butt" stroke-linejoin="miter" stroke="rgb(41.568627%, 23.921569%, 60.392157%)" stroke-opacity="1" stroke-miterlimit="10" d="M 750 541.203125 C 739.148438 547.171875 731.238281 556.050781 729.628906 568.277344 "/>
<path fill-rule="nonzero" fill="rgb(41.568627%, 23.921569%, 60.392157%)" fill-opacity="1" d="M 728.699219 575.351562 L 727.332031 567.976562 L 731.929688 568.582031 L 728.699219 575.351562 "/>
<path fill-rule="nonzero" fill="rgb(14.901961%, 14.901961%, 14.901961%)" fill-opacity="1" stroke-width="1" stroke-linecap="butt" stroke-linejoin="miter" stroke="rgb(14.901961%, 14.901961%, 14.901961%)" stroke-opacity="1" stroke-miterlimit="10" d="M 626.863281 65.996094 L 633.210938 53.292969 L 639.5625 65.996094 Z M 626.863281 65.996094 "/>
<path fill-rule="nonzero" fill="rgb(99.215686%, 74.901961%, 43.529412%)" fill-opacity="1" stroke-width="1" stroke-linecap="butt" stroke-linejoin="miter" stroke="rgb(99.215686%, 74.901961%, 43.529412%)" stroke-opacity="1" stroke-miterlimit="10" d="M 670.976562 50 C 670.976562 53.667969 665.476562 53.667969 665.476562 50 C 665.476562 46.332031 670.976562 46.332031 670.976562 50 "/>
<path fill-rule="nonzero" fill="rgb(70.196078%, 70.196078%, 70.196078%)" fill-opacity="1" stroke-width="1" stroke-linecap="butt" stroke-linejoin="miter" stroke="rgb(70.196078%, 70.196078%, 70.196078%)" stroke-opacity="1" stroke-miterlimit="10" d="M 664.03125 88.585938 C 664.03125 95.054688 654.328125 95.054688 654.328125 88.585938 C 654.328125 82.121094 664.03125 82.121094 664.03125 88.585938 "/>
<path fill-rule="nonzero" fill="rgb(70.196078%, 70.196078%, 70.196078%)" fill-opacity="1" stroke-width="1" stroke-linecap="butt" stroke-linejoin="miter" stroke="rgb(70.196078%, 70.196078%, 70.196078%)" stroke-opacity="1" stroke-miterlimit="10" d="M 676.148438 629.429688 C 676.148438 635.894531 666.449219 635.894531 666.449219 629.429688 C 666.449219 622.960938 676.148438 622.960938 676.148438 629.429688 "/>
<path fill-rule="nonzero" fill="rgb(14.901961%, 14.901961%, 14.901961%)" fill-opacity="1" stroke-width="1" stroke-linecap="butt" stroke-linejoin="miter" stroke="rgb(14.901961%, 14.901961%, 14.901961%)" stroke-opacity="1" stroke-miterlimit="10" d="M 683.171875 753.75 L 686.921875 746.25 L 690.671875 753.75 Z M 683.171875 753.75 "/>
<path fill-rule="nonzero" fill="rgb(70.196078%, 70.196078%, 70.196078%)" fill-opacity="1" stroke-width="1" stroke-linecap="butt" stroke-linejoin="miter" stroke="rgb(70.196078%, 70.196078%, 70.196078%)" stroke-opacity="1" stroke-miterlimit="10" d="M 692.015625 588.96875 C 692.015625 596.101562 681.3125 596.101562 681.3125 588.96875 C 681.3125 581.835938 692.015625 581.835938 692.015625 588.96875 "/>
<path fill-rule="nonzero" fill="rgb(14.901961%, 14.901961%, 14.901961%)" fill-opacity="1" stroke-width="1" stroke-linecap="butt" stroke-linejoin="miter" stroke="rgb(14.901961%, 14.901961%, 14.901961%)" stroke-opacity="1" stroke-miterlimit="10" d="M 580.675781 708.703125 L 584.425781 701.203125 L 588.175781 708.703125 Z M 580.675781 708.703125 "/>
<path fill-rule="nonzero" fill="rgb(41.568627%, 23.921569%, 60.392157%)" fill-opacity="1" stroke-width="1" stroke-linecap="butt" stroke-linejoin="miter" stroke="rgb(41.568627%, 23.921569%, 60.392157%)" stroke-opacity="1" stroke-miterlimit="10" d="M 694.183594 660.472656 C 694.183594 664.136719 688.683594 664.136719 688.683594 660.472656 C 688.683594 656.804688 694.183594 656.804688 694.183594 660.472656 "/>
<path fill-rule="nonzero" fill="rgb(70.196078%, 70.196078%, 70.196078%)" fill-opacity="1" stroke-width="1" stroke-linecap="butt" stroke-linejoin="miter" stroke="rgb(70.196078%, 70.196078%, 70.196078%)" stroke-opacity="1" stroke-miterlimit="10" d="M 662.25 670.746094 C 662.25 677.878906 651.550781 677.878906 651.550781 670.746094 C 651.550781 663.613281 662.25 663.613281 662.25 670.746094 "/>
<path fill-rule="nonzero" fill="rgb(41.568627%, 23.921569%, 60.392157%)" fill-opacity="1" stroke-width="1" stroke-linecap="butt" stroke-linejoin="miter" stroke="rgb(41.568627%, 23.921569%, 60.392157%)" stroke-opacity="1" stroke-miterlimit="10" d="M 620.0625 682.792969 C 620.0625 686.460938 614.5625 686.460938 614.5625 682.792969 C 614.5625 679.128906 620.0625 679.128906 620.0625 682.792969 "/>
<path fill-rule="nonzero" fill="rgb(98.431373%, 60.392157%, 60%)" fill-opacity="1" stroke-width="1" stroke-linecap="butt" stroke-linejoin="miter" stroke="rgb(98.431373%, 60.392157%, 60%)" stroke-opacity="1" stroke-miterlimit="10" d="M 676.832031 711.847656 C 676.832031 715.511719 671.332031 715.511719 671.332031 711.847656 C 671.332031 708.179688 676.832031 708.179688 676.832031 711.847656 "/>
<path fill-rule="nonzero" fill="rgb(70.196078%, 70.196078%, 70.196078%)" fill-opacity="1" stroke-width="1" stroke-linecap="butt" stroke-linejoin="miter" stroke="rgb(70.196078%, 70.196078%, 70.196078%)" stroke-opacity="1" stroke-miterlimit="10" d="M 745.699219 499.382812 C 745.699219 505.847656 736 505.847656 736 499.382812 C 736 492.914062 745.699219 492.914062 745.699219 499.382812 "/>
<path fill-rule="nonzero" fill="rgb(98.431373%, 60.392157%, 60%)" fill-opacity="1" stroke-width="1" stroke-linecap="butt" stroke-linejoin="miter" stroke="rgb(98.431373%, 60.392157%, 60%)" stroke-opacity="1" stroke-miterlimit="10" d="M 667.664062 550.675781 C 667.664062 554.339844 662.164062 554.339844 662.164062 550.675781 C 662.164062 547.007812 667.664062 547.007812 667.664062 550.675781 "/>
<path fill-rule="nonzero" fill="rgb(98.431373%, 60.392157%, 60%)" fill-opacity="1" stroke-width="1" stroke-linecap="butt" stroke-linejoin="miter" stroke="rgb(98.431373%, 60.392157%, 60%)" stroke-opacity="1" stroke-miterlimit="10" d="M 673.863281 508.125 C 673.863281 511.789062 668.363281 511.789062 668.363281 508.125 C 668.363281 504.457031 673.863281 504.457031 673.863281 508.125 "/>
<path fill-rule="nonzero" fill="rgb(70.196078%, 70.196078%, 70.196078%)" fill-opacity="1" stroke-width="1" stroke-linecap="butt" stroke-linejoin="miter" stroke="rgb(70.196078%, 70.196078%, 70.196078%)" stroke-opacity="1" stroke-miterlimit="10" d="M 708.554688 478.515625 C 708.554688 485.648438 697.855469 485.648438 697.855469 478.515625 C 697.855469 471.378906 708.554688 471.378906 708.554688 478.515625 "/>
<path fill-rule="nonzero" fill="rgb(12.156863%, 47.058824%, 70.588235%)" fill-opacity="1" stroke-width="1" stroke-linecap="butt" stroke-linejoin="miter" stroke="rgb(12.156863%, 47.058824%, 70.588235%)" stroke-opacity="1" stroke-miterlimit="10" d="M 52.75 424.34375 C 52.75 428.011719 47.25 428.011719 47.25 424.34375 C 47.25 420.679688 52.75 420.679688 52.75 424.34375 "/>
<path fill-rule="nonzero" fill="rgb(100%, 84.313725%, 0%)" fill-opacity="1" stroke-width="1" stroke-linecap="butt" stroke-linejoin="miter" stroke="rgb(100%, 84.313725%, 0%)" stroke-opacity="1" stroke-miterlimit="10" d="M 698.046875 391.429688 L 708.746094 391.429688 L 708.746094 402.128906 L 698.046875 402.128906 Z M 698.046875 391.429688 "/>
<path fill-rule="nonzero" fill="rgb(12.156863%, 47.058824%, 70.588235%)" fill-opacity="1" stroke-width="1" stroke-linecap="butt" stroke-linejoin="miter" stroke="rgb(12.156863%, 47.058824%, 70.588235%)" stroke-opacity="1" stroke-miterlimit="10" d="M 66.234375 310.640625 C 66.234375 314.308594 60.734375 314.308594 60.734375 310.640625 C 60.734375 306.976562 66.234375 306.976562 66.234375 310.640625 "/>
<path fill-rule="nonzero" fill="rgb(70.196078%, 70.196078%, 70.196078%)" fill-opacity="1" stroke-width="1" stroke-linecap="butt" stroke-linejoin="miter" stroke="rgb(70.196078%, 70.196078%, 70.196078%)" stroke-opacity="1" stroke-miterlimit="10" d="M 701.371094 240.429688 C 701.371094 246.898438 691.667969 246.898438 691.667969 240.429688 C 691.667969 233.964844 701.371094 233.964844 701.371094 240.429688 "/>
<path fill-rule="nonzero" fill="rgb(12.156863%, 47.058824%, 70.588235%)" fill-opacity="1" stroke-width="1" stroke-linecap="butt" stroke-linejoin="miter" stroke="rgb(12.156863%, 47.058824%, 70.588235%)" stroke-opacity="1" stroke-miterlimit="10" d="M 54.542969 386.085938 C 54.542969 389.75 49.042969 389.75 49.042969 386.085938 C 49.042969 382.417969 54.542969 382.417969 54.542969 386.085938 "/>
<path fill-rule="nonzero" fill="rgb(12.156863%, 47.058824%, 70.588235%)" fill-opacity="1" stroke-width="1" stroke-linecap="butt" stroke-linejoin="miter" stroke="rgb(12.156863%, 47.058824%, 70.588235%)" stroke-opacity="1" stroke-miterlimit="10" d="M 59.675781 348.203125 C 59.675781 351.871094 54.175781 351.871094 54.175781 348.203125 C 54.175781 344.539062 59.675781 344.539062 59.675781 348.203125 "/>
<path fill-rule="nonzero" fill="rgb(12.156863%, 47.058824%, 70.588235%)" fill-opacity="1" stroke-width="1" stroke-linecap="butt" stroke-linejoin="miter" stroke="rgb(12.156863%, 47.058824%, 70.588235%)" stroke-opacity="1" stroke-miterlimit="10" d="M 53.589844 462.507812 C 53.589844 466.175781 48.089844 466.175781 48.089844 462.507812 C 48.089844 458.839844 53.589844 458.839844 53.589844 462.507812 "/>
<path fill-rule="nonzero" fill="rgb(70.196078%, 70.196078%, 70.196078%)" fill-opacity="1" stroke-width="1" stroke-linecap="butt" stroke-linejoin="miter" stroke="rgb(70.196078%, 70.196078%, 70.196078%)" stroke-opacity="1" stroke-miterlimit="10" d="M 711.832031 318.203125 C 711.832031 324.671875 702.132812 324.671875 702.132812 318.203125 C 702.132812 311.738281 711.832031 311.738281 711.832031 318.203125 "/>
<path fill-rule="nonzero" fill="rgb(100%, 84.313725%, 0%)" fill-opacity="1" stroke-width="1" stroke-linecap="butt" stroke-linejoin="miter" stroke="rgb(100%, 84.313725%, 0%)" stroke-opacity="1" stroke-miterlimit="10" d="M 53.328125 535.746094 L 59.828125 535.746094 L 59.828125 542.246094 L 53.328125 542.246094 Z M 53.328125 535.746094 "/>
<path fill-rule="nonzero" fill="rgb(70.196078%, 70.196078%, 70.196078%)" fill-opacity="1" stroke-width="1" stroke-linecap="butt" stroke-linejoin="miter" stroke="rgb(70.196078%, 70.196078%, 70.196078%)" stroke-opacity="1" stroke-miterlimit="10" d="M 689.367188 163.058594 C 689.367188 169.527344 679.667969 169.527344 679.667969 163.058594 C 679.667969 156.59375 689.367188 156.59375 689.367188 163.058594 "/>
<path fill-rule="nonzero" fill="rgb(12.156863%, 47.058824%, 70.588235%)" fill-opacity="1" stroke-width="1" stroke-linecap="butt" stroke-linejoin="miter" stroke="rgb(12.156863%, 47.058824%, 70.588235%)" stroke-opacity="1" stroke-miterlimit="10" d="M 55.179688 500.894531 C 55.179688 504.558594 49.679688 504.558594 49.679688 500.894531 C 49.679688 497.226562 55.179688 497.226562 55.179688 500.894531 "/>
<path fill-rule="nonzero" fill="rgb(70.196078%, 70.196078%, 70.196078%)" fill-opacity="1" stroke-width="1" stroke-linecap="butt" stroke-linejoin="miter" stroke="rgb(70.196078%, 70.196078%, 70.196078%)" stroke-opacity="1" stroke-miterlimit="10" d="M 698.339844 201.210938 C 698.339844 207.675781 688.640625 207.675781 688.640625 201.210938 C 688.640625 194.746094 698.339844 194.746094 698.339844 201.210938 "/>
<path fill-rule="nonzero" fill="rgb(12.156863%, 47.058824%, 70.588235%)" fill-opacity="1" stroke-width="1" stroke-linecap="butt" stroke-linejoin="miter" stroke="rgb(12.156863%, 47.058824%, 70.588235%)" stroke-opacity="1" stroke-miterlimit="10" d="M 79.53125 235.578125 C 79.53125 239.246094 74.03125 239.246094 74.03125 235.578125 C 74.03125 231.910156 79.53125 231.910156 79.53125 235.578125 "/>
<path fill-rule="nonzero" fill="rgb(70.196078%, 70.196078%, 70.196078%)" fill-opacity="1" stroke-width="1" stroke-linecap="butt" stroke-linejoin="miter" stroke="rgb(70.196078%, 70.196078%, 70.196078%)" stroke-opacity="1" stroke-miterlimit="10" d="M 711.03125 357.492188 C 711.03125 363.960938 701.328125 363.960938 701.328125 357.492188 C 701.328125 351.027344 711.03125 351.027344 711.03125 357.492188 "/>
<path fill-rule="nonzero" fill="rgb(70.196078%, 70.196078%, 70.196078%)" fill-opacity="1" stroke-width="1" stroke-linecap="butt" stroke-linejoin="miter" stroke="rgb(70.196078%, 70.196078%, 70.196078%)" stroke-opacity="1" stroke-miterlimit="10" d="M 709.320312 278.957031 C 709.320312 285.421875 699.621094 285.421875 699.621094 278.957031 C 699.621094 272.488281 709.320312 272.488281 709.320312 278.957031 "/>
<path fill-rule="nonzero" fill="rgb(14.901961%, 14.901961%, 14.901961%)" fill-opacity="1" stroke-width="1" stroke-linecap="butt" stroke-linejoin="miter" stroke="rgb(14.901961%, 14.901961%, 14.901961%)" stroke-opacity="1" stroke-miterlimit="10" d="M 82.035156 202.039062 L 85.785156 194.539062 L 89.535156 202.039062 Z M 82.035156 202.039062 "/>
<path fill-rule="nonzero" fill="rgb(70.196078%, 70.196078%, 70.196078%)" fill-opacity="1" stroke-width="1" stroke-linecap="butt" stroke-linejoin="miter" stroke="rgb(70.196078%, 70.196078%, 70.196078%)" stroke-opacity="1" stroke-miterlimit="10" d="M 677.097656 125.871094 C 677.097656 132.335938 667.398438 132.335938 667.398438 125.871094 C 667.398438 119.402344 677.097656 119.402344 677.097656 125.871094 "/>
<path fill-rule="nonzero" fill="rgb(12.156863%, 47.058824%, 70.588235%)" fill-opacity="1" stroke-width="1" stroke-linecap="butt" stroke-linejoin="miter" stroke="rgb(12.156863%, 47.058824%, 70.588235%)" stroke-opacity="1" stroke-miterlimit="10" d="M 70.101562 272.695312 C 70.101562 276.363281 64.601562 276.363281 64.601562 272.695312 C 64.601562 269.03125 70.101562 269.03125 70.101562 272.695312 "/>
<path fill-rule="nonzero" fill="rgb(70.196078%, 70.196078%, 70.196078%)" fill-opacity="1" stroke-width="1" stroke-linecap="butt" stroke-linejoin="miter" stroke="rgb(70.196078%, 70.196078%, 70.196078%)" stroke-opacity="1" stroke-miterlimit="10" d="M 706.546875 436.613281 C 706.546875 443.082031 696.847656 443.082031 696.847656 436.613281 C 696.847656 430.148438 706.546875 430.148438 706.546875 436.613281 "/>
<path fill-rule="nonzero" fill="rgb(41.568627%, 23.921569%, 60.392157%)" fill-opacity="1" stroke-width="1" stroke-linecap="butt" stroke-linejoin="miter" stroke="rgb(41.568627%, 23.921569%, 60.392157%)" stroke-opacity="1" stroke-miterlimit="10" d="M 731.109375 577.941406 C 731.109375 581.609375 725.609375 581.609375 725.609375 577.941406 C 725.609375 574.273438 731.109375 574.273438 731.109375 577.941406 "/>
<path fill-rule="nonzero" fill="rgb(41.568627%, 23.921569%, 60.392157%)" fill-opacity="1" stroke-width="1" stroke-linecap="butt" stroke-linejoin="miter" stroke="rgb(41.568627%, 23.921569%, 60.392157%)" stroke-opacity="1" stroke-miterlimit="10" d="M 752.75 541.203125 C 752.75 544.871094 747.25 544.871094 747.25 541.203125 C 747.25 537.539062 752.75 537.539062 752.75 541.203125 "/>
</svg>
