<?xml version="1.0" encoding="UTF-8"?>
<svg xmlns="http://www.w3.org/2000/svg" xmlns:xlink="http://www.w3.org/1999/xlink" width="800" height="800" viewBox="0 0 800 800">
<rect x="-80" y="-80" width="960" height="960" fill="rgb(100%, 100%, 100%)" fill-opacity="1"/>
<path fill="none" stroke-width="1.5" stroke-linecap="butt" stroke-linejoin="miter" stroke="rgb(99.215686%, 74.901961%, 43.529412%)" stroke-opacity="1" stroke-miterlimit="10" d="M 87.4375 210.296875 C 82.570312 212.03125 78.058594 215.105469 77.242188 220.082031 "/>
<path fill-rule="nonzero" fill="rgb(99.215686%, 74.901961%, 43.529412%)" fill-opacity="1" d="M 76.082031 227.117188 L 74.953125 219.703125 L 79.527344 220.457031 L 76.082031 227.117188 "/>
<path fill="none" stroke-width="1.5" stroke-linecap="butt" stroke-linejoin="miter" stroke="rgb(99.215686%, 74.901961%, 43.529412%)" stroke-opacity="1" stroke-miterlimit="10" d="M 96.914062 189.835938 C 92.347656 192.015625 88.246094 195.480469 87.976562 200.402344 "/>
<path fill-rule="nonzero" fill="rgb(99.215686%, 74.901961%, 43.529412%)" fill-opacity="1" d="M 87.585938 207.527344 L 85.660156 200.277344 L 90.289062 200.53125 L 87.585938 207.527344 "/>
<path fill="none" stroke-width="1.5" stroke-linecap="butt" stroke-linejoin="miter" stroke="rgb(99.215686%, 74.901961%, 43.529412%)" stroke-opacity="1" stroke-miterlimit="10" d="M 75.632812 229.859375 C 71.769531 233.722656 68.917969 238.683594 70.339844 243.839844 "/>
<path fill-rule="nonzero" fill="rgb(99.215686%, 74.901961%, 43.529412%)" fill-opacity="1" d="M 72.234375 250.714844 L 68.105469 244.453125 L 72.574219 243.222656 L 72.234375 250.714844 "/>
<path fill="none" stroke-width="1.5" stroke-linecap="butt" stroke-linejoin="miter" stroke="rgb(99.215686%, 74.901961%, 43.529412%)" stroke-opacity="1" stroke-miterlimit="10" d="M 72.972656 253.394531 C 68.472656 255.859375 64.527344 259.585938 64.519531 264.589844 "/>
<path fill-rule="nonzero" fill="rgb(99.215686%, 74.901961%, 43.529412%)" fill-opacity="1" d="M 64.503906 271.722656 L 62.199219 264.585938 L 66.835938 264.59375 L 64.503906 271.722656 "/>
<path fill="none" stroke-width="1.5" stroke-linecap="butt" stroke-linejoin="miter" stroke="rgb(99.215686%, 74.901961%, 43.529412%)" stroke-opacity="1" stroke-miterlimit="10" d="M 55.582031 295.351562 C 51.507812 298.242188 48.070312 302.308594 48.664062 307.136719 "/>
<path fill-rule="nonzero" fill="rgb(99.215686%, 74.901961%, 43.529412%)" fill-opacity="1" d="M 49.539062 314.214844 L 46.363281 307.417969 L 50.964844 306.851562 L 49.539062 314.214844 "/>
<path fill="none" stroke-width="1.5" stroke-linecap="butt" stroke-linejoin="miter" stroke="rgb(99.215686%, 74.901961%, 43.529412%)" stroke-opacity="1" stroke-miterlimit="10" d="M 64.496094 274.5 C 59.964844 276.847656 55.945312 280.46875 55.824219 285.445312 "/>
<path fill-rule="nonzero" fill="rgb(99.215686%, 74.901961%, 43.529412%)" fill-opacity="1" d="M 55.648438 292.574219 L 53.507812 285.386719 L 58.140625 285.503906 L 55.648438 292.574219 "/>
<path fill="none" stroke-width="1.5" stroke-linecap="butt" stroke-linejoin="miter" stroke="rgb(12.156863%, 47.058824%, 70.588235%)" stroke-opacity="1" stroke-miterlimit="10" d="M 348.03125 61.863281 C 351.976562 63.914062 356.683594 65.058594 360.179688 62.550781 "/>
<path fill-rule="nonzero" fill="rgb(12.156863%, 47.058824%, 70.588235%)" fill-opacity="1" d="M 365.972656 58.390625 L 361.527344 64.433594 L 358.828125 60.667969 L 365.972656 58.390625 "/>
<path fill="none" stroke-width="1.5" stroke-linecap="butt" stroke-linejoin="miter" stroke="rgb(12.156863%, 47.058824%, 70.588235%)" stroke-opacity="1" stroke-miterlimit="10" d="M 408.5 53.40625 C 411.808594 56.21875 416.054688 58.355469 419.910156 56.707031 "/>
<path fill-rule="nonzero" fill="rgb(12.156863%, 47.058824%, 70.588235%)" fill-opacity="1" d="M 426.472656 53.90625 L 420.820312 58.839844 L 419 54.578125 L 426.472656 53.90625 "/>
<path fill="none" stroke-width="1.5" stroke-linecap="butt" stroke-linejoin="miter" stroke="rgb(12.156863%, 47.058824%, 70.588235%)" stroke-opacity="1" stroke-miterlimit="10" d="M 388.183594 50 C 390.90625 53.414062 394.683594 56.335938 398.808594 55.460938 "/>
<path fill-rule="nonzero" fill="rgb(12.156863%, 47.058824%, 70.588235%)" fill-opacity="1" d="M 405.789062 53.980469 L 399.289062 57.726562 L 398.328125 53.191406 L 405.789062 53.980469 "/>
<path fill="none" stroke-width="1.5" stroke-linecap="butt" stroke-linejoin="miter" stroke="rgb(98.431373%, 60.392157%, 60%)" stroke-opacity="1" stroke-miterlimit="10" d="M 348.050781 514.246094 C 352.917969 514.890625 358.121094 514.265625 360.917969 510.390625 "/>
<path fill-rule="nonzero" fill="rgb(98.431373%, 60.392157%, 60%)" fill-opacity="1" d="M 365.09375 504.609375 L 362.796875 511.746094 L 359.039062 509.035156 L 365.09375 504.609375 "/>
<path fill="none" stroke-width="1.5" stroke-linecap="butt" stroke-linejoin="miter" stroke="rgb(41.568627%, 23.921569%, 60.392157%)" stroke-opacity="1" stroke-miterlimit="10" d="M 316.699219 547.183594 C 311.796875 549.808594 307.574219 553.792969 307.414062 559.238281 "/>
<path fill-rule="nonzero" fill="rgb(41.568627%, 23.921569%, 60.392157%)" fill-opacity="1" d="M 307.207031 566.367188 L 305.097656 559.171875 L 309.730469 559.304688 L 307.207031 566.367188 "/>
<path fill="none" stroke-width="1.5" stroke-linecap="butt" stroke-linejoin="miter" stroke="rgb(98.431373%, 60.392157%, 60%)" stroke-opacity="1" stroke-miterlimit="10" d="M 316.699219 547.183594 C 321.839844 545.976562 326.746094 543.359375 328.171875 538.402344 "/>
<path fill-rule="nonzero" fill="rgb(98.431373%, 60.392157%, 60%)" fill-opacity="1" d="M 330.140625 531.546875 L 330.398438 539.042969 L 325.941406 537.761719 L 330.140625 531.546875 "/>
<path fill="none" stroke-width="1.5" stroke-linecap="butt" stroke-linejoin="miter" stroke="rgb(41.568627%, 23.921569%, 60.392157%)" stroke-opacity="1" stroke-miterlimit="10" d="M 301.121094 592.753906 C 297.445312 597.144531 294.972656 602.558594 296.886719 607.835938 "/>
<path fill-rule="nonzero" fill="rgb(41.568627%, 23.921569%, 60.392157%)" fill-opacity="1" d="M 299.316406 614.542969 L 294.707031 608.625 L 299.066406 607.046875 L 299.316406 614.542969 "/>
<path fill="none" stroke-width="1.5" stroke-linecap="butt" stroke-linejoin="miter" stroke="rgb(12.156863%, 47.058824%, 70.588235%)" stroke-opacity="1" stroke-miterlimit="10" d="M 368.226562 56.777344 C 372.414062 58.515625 377.28125 59.25 380.632812 56.40625 "/>
<path fill-rule="nonzero" fill="rgb(12.156863%, 47.058824%, 70.588235%)" fill-opacity="1" d="M 386.070312 51.792969 L 382.128906 58.175781 L 379.132812 54.640625 L 386.070312 51.792969 "/>
<path fill="none" stroke-width="1.5" stroke-linecap="butt" stroke-linejoin="miter" stroke="rgb(12.156863%, 47.058824%, 70.588235%)" stroke-opacity="1" stroke-miterlimit="10" d="M 449.371094 55.945312 C 451.765625 59.683594 455.265625 63.015625 459.539062 62.582031 "/>
<path fill-rule="nonzero" fill="rgb(12.156863%, 47.058824%, 70.588235%)" fill-opacity="1" d="M 466.636719 61.863281 L 459.773438 64.890625 L 459.304688 60.277344 L 466.636719 61.863281 "/>
<path fill="none" stroke-width="1.5" stroke-linecap="butt" stroke-linejoin="miter" stroke="rgb(12.156863%, 47.058824%, 70.588235%)" stroke-opacity="1" stroke-miterlimit="10" d="M 327.914062 55.070312 C 330.226562 59.039062 333.691406 62.59375 338.136719 62.367188 "/>
<path fill-rule="nonzero" fill="rgb(12.156863%, 47.058824%, 70.588235%)" fill-opacity="1" d="M 345.261719 62.003906 L 338.257812 64.683594 L 338.019531 60.054688 L 345.261719 62.003906 "/>
<path fill="none" stroke-width="1.5" stroke-linecap="butt" stroke-linejoin="miter" stroke="rgb(98.431373%, 60.392157%, 60%)" stroke-opacity="1" stroke-miterlimit="10" d="M 428.308594 484.054688 C 431.976562 486.773438 436.539062 488.671875 440.511719 486.722656 "/>
<path fill-rule="nonzero" fill="rgb(98.431373%, 60.392157%, 60%)" fill-opacity="1" d="M 446.914062 483.578125 L 441.53125 488.800781 L 439.488281 484.640625 L 446.914062 483.578125 "/>
<path fill="none" stroke-width="1.5" stroke-linecap="butt" stroke-linejoin="miter" stroke="rgb(41.568627%, 23.921569%, 60.392157%)" stroke-opacity="1" stroke-miterlimit="10" d="M 308.816406 664.789062 C 307.769531 670.148438 308.167969 675.855469 312.21875 679.339844 "/>
<path fill-rule="nonzero" fill="rgb(41.568627%, 23.921569%, 60.392157%)" fill-opacity="1" d="M 317.625 683.988281 L 310.707031 681.09375 L 313.730469 677.582031 L 317.625 683.988281 "/>
<path fill="none" stroke-width="1.5" stroke-linecap="butt" stroke-linejoin="miter" stroke="rgb(12.156863%, 47.058824%, 70.588235%)" stroke-opacity="1" stroke-miterlimit="10" d="M 429.019531 52.820312 C 431.785156 56.195312 435.597656 59.0625 439.710938 58.132812 "/>
<path fill-rule="nonzero" fill="rgb(12.156863%, 47.058824%, 70.588235%)" fill-opacity="1" d="M 446.667969 56.558594 L 440.222656 60.390625 L 439.199219 55.871094 L 446.667969 56.558594 "/>
<path fill="none" stroke-width="1.5" stroke-linecap="butt" stroke-linejoin="miter" stroke="rgb(41.568627%, 23.921569%, 60.392157%)" stroke-opacity="1" stroke-miterlimit="10" d="M 319.730469 685.800781 C 319.617188 691.050781 320.917969 696.429688 325.339844 699.023438 "/>
<path fill-rule="nonzero" fill="rgb(41.568627%, 23.921569%, 60.392157%)" fill-opacity="1" d="M 331.492188 702.632812 L 324.167969 701.023438 L 326.511719 697.023438 L 331.492188 702.632812 "/>
<path fill="none" stroke-width="1.5" stroke-linecap="butt" stroke-linejoin="miter" stroke="rgb(98.431373%, 60.392157%, 60%)" stroke-opacity="1" stroke-miterlimit="10" d="M 449.402344 482.355469 C 452.882812 485.164062 457.289062 487.226562 461.242188 485.457031 "/>
<path fill-rule="nonzero" fill="rgb(98.431373%, 60.392157%, 60%)" fill-opacity="1" d="M 467.75 482.539062 L 462.1875 487.570312 L 460.292969 483.339844 L 467.75 482.539062 "/>
<path fill="none" stroke-width="1.5" stroke-linecap="butt" stroke-linejoin="miter" stroke="rgb(98.431373%, 60.392157%, 60%)" stroke-opacity="1" stroke-miterlimit="10" d="M 366.71875 502.359375 C 371.3125 503.71875 376.449219 503.921875 379.714844 500.597656 "/>
<path fill-rule="nonzero" fill="rgb(98.431373%, 60.392157%, 60%)" fill-opacity="1" d="M 384.710938 495.503906 L 381.367188 502.21875 L 378.058594 498.972656 L 384.710938 495.503906 "/>
<path fill="none" stroke-width="1.5" stroke-linecap="butt" stroke-linejoin="miter" stroke="rgb(41.568627%, 23.921569%, 60.392157%)" stroke-opacity="1" stroke-miterlimit="10" d="M 350.496094 719.226562 C 351.8125 723.886719 354.410156 728.371094 359.011719 729.375 "/>
<path fill-rule="nonzero" fill="rgb(41.568627%, 23.921569%, 60.392157%)" fill-opacity="1" d="M 365.980469 730.894531 L 358.519531 731.636719 L 359.507812 727.109375 L 365.980469 730.894531 "/>
<path fill="none" stroke-width="1.5" stroke-linecap="butt" stroke-linejoin="miter" stroke="rgb(41.568627%, 23.921569%, 60.392157%)" stroke-opacity="1" stroke-miterlimit="10" d="M 368.691406 731.484375 C 370.730469 735.820312 373.992188 739.785156 378.640625 740.007812 "/>
<path fill-rule="nonzero" fill="rgb(41.568627%, 23.921569%, 60.392157%)" fill-opacity="1" d="M 385.765625 740.351562 L 378.527344 742.324219 L 378.75 737.695312 L 385.765625 740.351562 "/>
<path fill="none" stroke-width="1.5" stroke-linecap="butt" stroke-linejoin="miter" stroke="rgb(41.568627%, 23.921569%, 60.392157%)" stroke-opacity="1" stroke-miterlimit="10" d="M 300.261719 617.15625 C 297.03125 621.929688 295.117188 627.597656 297.5625 632.695312 "/>
<path fill-rule="nonzero" fill="rgb(41.568627%, 23.921569%, 60.392157%)" fill-opacity="1" d="M 300.652344 639.125 L 295.476562 633.699219 L 299.652344 631.691406 L 300.652344 639.125 "/>
<path fill="none" stroke-width="1.5" stroke-linecap="butt" stroke-linejoin="miter" stroke="rgb(41.568627%, 23.921569%, 60.392157%)" stroke-opacity="1" stroke-miterlimit="10" d="M 388.535156 740.484375 C 391.0625 744.417969 394.738281 747.867188 399.257812 747.464844 "/>
<path fill-rule="nonzero" fill="rgb(41.568627%, 23.921569%, 60.392157%)" fill-opacity="1" d="M 406.363281 746.828125 L 399.464844 749.773438 L 399.054688 745.15625 L 406.363281 746.828125 "/>
<path fill="none" stroke-width="1.5" stroke-linecap="butt" stroke-linejoin="miter" stroke="rgb(41.568627%, 23.921569%, 60.392157%)" stroke-opacity="1" stroke-miterlimit="10" d="M 409.125 746.582031 C 411.726562 749.980469 415.382812 752.949219 419.421875 752.140625 "/>
<path fill-rule="nonzero" fill="rgb(41.568627%, 23.921569%, 60.392157%)" fill-opacity="1" d="M 426.417969 750.738281 L 419.878906 754.410156 L 418.96875 749.867188 L 426.417969 750.738281 "/>
<path fill="none" stroke-width="1.5" stroke-linecap="butt" stroke-linejoin="miter" stroke="rgb(98.431373%, 60.392157%, 60%)" stroke-opacity="1" stroke-miterlimit="10" d="M 491.160156 482.625 C 493.632812 485.980469 497.160156 488.964844 501.101562 488.222656 "/>
<path fill-rule="nonzero" fill="rgb(98.431373%, 60.392157%, 60%)" fill-opacity="1" d="M 508.109375 486.898438 L 501.53125 490.5 L 500.667969 485.945312 L 508.109375 486.898438 "/>
<path fill="none" stroke-width="1.5" stroke-linecap="butt" stroke-linejoin="miter" stroke="rgb(98.431373%, 60.392157%, 60%)" stroke-opacity="1" stroke-miterlimit="10" d="M 470.28125 481.410156 C 473.457031 484.566406 477.632812 487.070312 481.75 485.71875 "/>
<path fill-rule="nonzero" fill="rgb(98.431373%, 60.392157%, 60%)" fill-opacity="1" d="M 488.527344 483.492188 L 482.472656 487.917969 L 481.027344 483.515625 L 488.527344 483.492188 "/>
<path fill="none" stroke-width="1.5" stroke-linecap="butt" stroke-linejoin="miter" stroke="rgb(30.196078%, 68.627451%, 29.019608%)" stroke-opacity="1" stroke-miterlimit="10" d="M 750 387.078125 C 746.480469 391.300781 744.082031 396.519531 745.960938 401.558594 "/>
<path fill-rule="nonzero" fill="rgb(30.196078%, 68.627451%, 29.019608%)" fill-opacity="1" d="M 748.460938 408.238281 L 743.792969 402.371094 L 748.132812 400.746094 L 748.460938 408.238281 "/>
<path fill="none" stroke-width="1.5" stroke-linecap="butt" stroke-linejoin="miter" stroke="rgb(30.196078%, 68.627451%, 29.019608%)" stroke-opacity="1" stroke-miterlimit="10" d="M 747.59375 434.3125 C 743.492188 437.25 740.046875 441.367188 740.65625 446.242188 "/>
<path fill-rule="nonzero" fill="rgb(30.196078%, 68.627451%, 29.019608%)" fill-opacity="1" d="M 741.542969 453.320312 L 738.359375 446.53125 L 742.957031 445.953125 L 741.542969 453.320312 "/>
<path fill="none" stroke-width="1.5" stroke-linecap="butt" stroke-linejoin="miter" stroke="rgb(30.196078%, 68.627451%, 29.019608%)" stroke-opacity="1" stroke-miterlimit="10" d="M 749.433594 410.84375 C 745.734375 414.792969 743.058594 419.800781 744.636719 424.851562 "/>
<path fill-rule="nonzero" fill="rgb(30.196078%, 68.627451%, 29.019608%)" fill-opacity="1" d="M 746.765625 431.660156 L 742.425781 425.542969 L 746.851562 424.160156 L 746.765625 431.660156 "/>
<path fill="none" stroke-width="1.5" stroke-linecap="butt" stroke-linejoin="miter" stroke="rgb(41.568627%, 23.921569%, 60.392157%)" stroke-opacity="1" stroke-miterlimit="10" d="M 307.125 569.144531 C 302.617188 572.640625 299.058594 577.386719 299.800781 582.929688 "/>
<path fill-rule="nonzero" fill="rgb(41.568627%, 23.921569%, 60.392157%)" fill-opacity="1" d="M 300.75 590 L 297.503906 583.238281 L 302.097656 582.621094 L 300.75 590 "/>
<path fill="none" stroke-width="1.5" stroke-linecap="butt" stroke-linejoin="miter" stroke="rgb(41.568627%, 23.921569%, 60.392157%)" stroke-opacity="1" stroke-miterlimit="10" d="M 301.855469 641.628906 C 299.800781 646.886719 299.179688 652.726562 302.628906 657.046875 "/>
<path fill-rule="nonzero" fill="rgb(41.568627%, 23.921569%, 60.392157%)" fill-opacity="1" d="M 307.082031 662.621094 L 300.820312 658.492188 L 304.441406 655.601562 L 307.082031 662.621094 "/>
<path fill="none" stroke-width="1.5" stroke-linecap="butt" stroke-linejoin="miter" stroke="rgb(41.568627%, 23.921569%, 60.392157%)" stroke-opacity="1" stroke-miterlimit="10" d="M 333.890625 704.035156 C 334.582031 709.03125 336.628906 713.980469 341.226562 715.722656 "/>
<path fill-rule="nonzero" fill="rgb(41.568627%, 23.921569%, 60.392157%)" fill-opacity="1" d="M 347.898438 718.246094 L 340.40625 717.886719 L 342.046875 713.554688 L 347.898438 718.246094 "/>
<path fill="none" stroke-width="1.5" stroke-linecap="butt" stroke-linejoin="miter" stroke="rgb(98.431373%, 60.392157%, 60%)" stroke-opacity="1" stroke-miterlimit="10" d="M 407.347656 487.792969 C 411.304688 490.160156 416.074219 491.605469 419.882812 489.257812 "/>
<path fill-rule="nonzero" fill="rgb(98.431373%, 60.392157%, 60%)" fill-opacity="1" d="M 425.949219 485.511719 L 421.097656 491.230469 L 418.664062 487.285156 L 425.949219 485.511719 "/>
<path fill="none" stroke-width="1.5" stroke-linecap="butt" stroke-linejoin="miter" stroke="rgb(98.431373%, 60.392157%, 60%)" stroke-opacity="1" stroke-miterlimit="10" d="M 386.652344 493.523438 C 390.882812 495.523438 395.824219 496.503906 399.445312 493.765625 "/>
<path fill-rule="nonzero" fill="rgb(98.431373%, 60.392157%, 60%)" fill-opacity="1" d="M 405.136719 489.464844 L 400.84375 495.613281 L 398.050781 491.914062 L 405.136719 489.464844 "/>
<path fill="none" stroke-width="1.5" stroke-linecap="butt" stroke-linejoin="miter" stroke="rgb(98.431373%, 60.392157%, 60%)" stroke-opacity="1" stroke-miterlimit="10" d="M 330.90625 528.878906 C 335.960938 528.800781 341.132812 527.371094 343.429688 523.011719 "/>
<path fill-rule="nonzero" fill="rgb(98.431373%, 60.392157%, 60%)" fill-opacity="1" d="M 346.753906 516.703125 L 345.480469 524.09375 L 341.378906 521.929688 L 346.753906 516.703125 "/>
<path fill="none" stroke-width="1.5" stroke-linecap="butt" stroke-linejoin="miter" stroke="rgb(12.156863%, 47.058824%, 70.588235%)" stroke-opacity="1" stroke-miterlimit="10" d="M 469.390625 61.585938 C 470.996094 65.855469 473.796875 69.925781 478.1875 70.4375 "/>
<path fill-rule="nonzero" fill="rgb(12.156863%, 47.058824%, 70.588235%)" fill-opacity="1" d="M 485.273438 71.265625 L 477.921875 72.742188 L 478.457031 68.136719 L 485.273438 71.265625 "/>
<path fill="none" stroke-width="1.5" stroke-linecap="butt" stroke-linejoin="miter" stroke="rgb(12.156863%, 47.058824%, 70.588235%)" stroke-opacity="1" stroke-miterlimit="10" d="M 488.027344 71.585938 C 489.019531 76.140625 491.25 80.640625 495.613281 81.832031 "/>
<path fill-rule="nonzero" fill="rgb(12.156863%, 47.058824%, 70.588235%)" fill-opacity="1" d="M 502.492188 83.710938 L 495 84.066406 L 496.222656 79.59375 L 502.492188 83.710938 "/>
<path fill="none" stroke-width="1.5" stroke-linecap="butt" stroke-linejoin="miter" stroke="rgb(12.156863%, 47.058824%, 70.588235%)" stroke-opacity="1" stroke-miterlimit="10" d="M 559.335938 117.554688 C 562.855469 119.9375 567.246094 121.589844 570.796875 119.546875 "/>
<path fill-rule="nonzero" fill="rgb(12.156863%, 47.058824%, 70.588235%)" fill-opacity="1" d="M 576.980469 115.992188 L 571.953125 121.558594 L 569.640625 117.539062 L 576.980469 115.992188 "/>
<path fill="none" stroke-width="1.5" stroke-linecap="butt" stroke-linejoin="miter" stroke="rgb(12.156863%, 47.058824%, 70.588235%)" stroke-opacity="1" stroke-miterlimit="10" d="M 539.890625 108.605469 C 541.816406 112.839844 544.9375 116.769531 549.441406 117.015625 "/>
<path fill-rule="nonzero" fill="rgb(12.156863%, 47.058824%, 70.588235%)" fill-opacity="1" d="M 556.566406 117.402344 L 549.316406 119.328125 L 549.570312 114.699219 L 556.566406 117.402344 "/>
<path fill="none" stroke-width="1.5" stroke-linecap="butt" stroke-linejoin="miter" stroke="rgb(12.156863%, 47.058824%, 70.588235%)" stroke-opacity="1" stroke-miterlimit="10" d="M 521.644531 97.851562 C 523.082031 102.191406 525.730469 106.375 530.109375 107.0625 "/>
<path fill-rule="nonzero" fill="rgb(12.156863%, 47.058824%, 70.588235%)" fill-opacity="1" d="M 537.152344 108.171875 L 529.746094 109.351562 L 530.46875 104.773438 L 537.152344 108.171875 "/>
<path fill="none" stroke-width="1.5" stroke-linecap="butt" stroke-linejoin="miter" stroke="rgb(12.156863%, 47.058824%, 70.588235%)" stroke-opacity="1" stroke-miterlimit="10" d="M 505.167969 84.441406 C 505.949219 88.96875 507.953125 93.515625 512.199219 94.859375 "/>
<path fill-rule="nonzero" fill="rgb(12.156863%, 47.058824%, 70.588235%)" fill-opacity="1" d="M 519 97.011719 L 511.5 97.070312 L 512.902344 92.652344 L 519 97.011719 "/>
<path fill-rule="nonzero" fill="rgb(99.215686%, 74.901961%, 43.529412%)" fill-opacity="1" stroke-width="1" stroke-linecap="butt" stroke-linejoin="miter" stroke="rgb(99.215686%, 74.901961%, 43.529412%)" stroke-opacity="1" stroke-miterlimit="10" d="M 90.1875 210.296875 C 90.1875 213.964844 84.6875 213.964844 84.6875 210.296875 C 84.6875 206.632812 90.1875 206.632812 90.1875 210.296875 "/>
<path fill-rule="nonzero" fill="rgb(100%, 84.313725%, 0%)" fill-opacity="1" stroke-width="1" stroke-linecap="butt" stroke-linejoin="miter" stroke="rgb(100%, 84.313725%, 0%)" stroke-opacity="1" stroke-miterlimit="10" d="M 93.664062 186.585938 L 100.164062 186.585938 L 100.164062 193.085938 L 93.664062 193.085938 Z M 93.664062 186.585938 "/>
<path fill-rule="nonzero" fill="rgb(99.215686%, 74.901961%, 43.529412%)" fill-opacity="1" stroke-width="1" stroke-linecap="butt" stroke-linejoin="miter" stroke="rgb(99.215686%, 74.901961%, 43.529412%)" stroke-opacity="1" stroke-miterlimit="10" d="M 78.382812 229.859375 C 78.382812 233.523438 72.882812 233.523438 72.882812 229.859375 C 72.882812 226.191406 78.382812 226.191406 78.382812 229.859375 "/>
<path fill-rule="nonzero" fill="rgb(99.215686%, 74.901961%, 43.529412%)" fill-opacity="1" stroke-width="1" stroke-linecap="butt" stroke-linejoin="miter" stroke="rgb(99.215686%, 74.901961%, 43.529412%)" stroke-opacity="1" stroke-miterlimit="10" d="M 75.722656 253.394531 C 75.722656 257.058594 70.222656 257.058594 70.222656 253.394531 C 70.222656 249.726562 75.722656 249.726562 75.722656 253.394531 "/>
<path fill-rule="nonzero" fill="rgb(14.901961%, 14.901961%, 14.901961%)" fill-opacity="1" stroke-width="1" stroke-linecap="butt" stroke-linejoin="miter" stroke="rgb(14.901961%, 14.901961%, 14.901961%)" stroke-opacity="1" stroke-miterlimit="10" d="M 46.25 321.699219 L 50 314.199219 L 53.75 321.699219 Z M 46.25 321.699219 "/>
<path fill-rule="nonzero" fill="rgb(99.215686%, 74.901961%, 43.529412%)" fill-opacity="1" stroke-width="1" stroke-linecap="butt" stroke-linejoin="miter" stroke="rgb(99.215686%, 74.901961%, 43.529412%)" stroke-opacity="1" stroke-miterlimit="10" d="M 58.332031 295.351562 C 58.332031 299.015625 52.832031 299.015625 52.832031 295.351562 C 52.832031 291.683594 58.332031 291.683594 58.332031 295.351562 "/>
<path fill-rule="nonzero" fill="rgb(99.215686%, 74.901961%, 43.529412%)" fill-opacity="1" stroke-width="1" stroke-linecap="butt" stroke-linejoin="miter" stroke="rgb(99.215686%, 74.901961%, 43.529412%)" stroke-opacity="1" stroke-miterlimit="10" d="M 67.246094 274.5 C 67.246094 278.164062 61.746094 278.164062 61.746094 274.5 C 61.746094 270.832031 67.246094 270.832031 67.246094 274.5 "/>
<path fill-rule="nonzero" fill="rgb(12.156863%, 47.058824%, 70.588235%)" fill-opacity="1" stroke-width="1" stroke-linecap="butt" stroke-linejoin="miter" stroke="rgb(12.156863%, 47.058824%, 70.588235%)" stroke-opacity="1" stroke-miterlimit="10" d="M 350.78125 61.863281 C 350.78125 65.53125 345.28125 65.53125 345.28125 61.863281 C 345.28125 58.195312 350.78125 58.195312 350.78125 61.863281 "/>
<path fill-rule="nonzero" fill="rgb(12.156863%, 47.058824%, 70.588235%)" fill-opacity="1" stroke-width="1" stroke-linecap="butt" stroke-linejoin="miter" stroke="rgb(12.156863%, 47.058824%, 70.588235%)" stroke-opacity="1" stroke-miterlimit="10" d="M 411.25 53.40625 C 411.25 57.074219 405.75 57.074219 405.75 53.40625 C 405.75 49.742188 411.25 49.742188 411.25 53.40625 "/>
<path fill-rule="nonzero" fill="rgb(12.156863%, 47.058824%, 70.588235%)" fill-opacity="1" stroke-width="1" stroke-linecap="butt" stroke-linejoin="miter" stroke="rgb(12.156863%, 47.058824%, 70.588235%)" stroke-opacity="1" stroke-miterlimit="10" d="M 390.933594 50 C 390.933594 53.667969 385.433594 53.667969 385.433594 50 C 385.433594 46.332031 390.933594 46.332031 390.933594 50 "/>
<path fill-rule="nonzero" fill="rgb(98.431373%, 60.392157%, 60%)" fill-opacity="1" stroke-width="1" stroke-linecap="butt" stroke-linejoin="miter" stroke="rgb(98.431373%, 60.392157%, 60%)" stroke-opacity="1" stroke-miterlimit="10" d="M 350.800781 514.246094 C 350.800781 517.914062 345.300781 517.914062 345.300781 514.246094 C 345.300781 510.582031 350.800781 510.582031 350.800781 514.246094 "/>
<path fill-rule="nonzero" fill="rgb(100%, 84.313725%, 0%)" fill-opacity="1" stroke-width="1" stroke-linecap="butt" stroke-linejoin="miter" stroke="rgb(100%, 84.313725%, 0%)" stroke-opacity="1" stroke-miterlimit="10" d="M 311.347656 541.832031 L 322.046875 541.832031 L 322.046875 552.53125 L 311.347656 552.53125 Z M 311.347656 541.832031 "/>
<path fill-rule="nonzero" fill="rgb(41.568627%, 23.921569%, 60.392157%)" fill-opacity="1" stroke-width="1" stroke-linecap="butt" stroke-linejoin="miter" stroke="rgb(41.568627%, 23.921569%, 60.392157%)" stroke-opacity="1" stroke-miterlimit="10" d="M 303.871094 592.753906 C 303.871094 596.421875 298.371094 596.421875 298.371094 592.753906 C 298.371094 589.085938 303.871094 589.085938 303.871094 592.753906 "/>
<path fill-rule="nonzero" fill="rgb(12.156863%, 47.058824%, 70.588235%)" fill-opacity="1" stroke-width="1" stroke-linecap="butt" stroke-linejoin="miter" stroke="rgb(12.156863%, 47.058824%, 70.588235%)" stroke-opacity="1" stroke-miterlimit="10" d="M 370.976562 56.777344 C 370.976562 60.441406 365.476562 60.441406 365.476562 56.777344 C 365.476562 53.109375 370.976562 53.109375 370.976562 56.777344 "/>
<path fill-rule="nonzero" fill="rgb(12.156863%, 47.058824%, 70.588235%)" fill-opacity="1" stroke-width="1" stroke-linecap="butt" stroke-linejoin="miter" stroke="rgb(12.156863%, 47.058824%, 70.588235%)" stroke-opacity="1" stroke-miterlimit="10" d="M 452.121094 55.945312 C 452.121094 59.613281 446.621094 59.613281 446.621094 55.945312 C 446.621094 52.277344 452.121094 52.277344 452.121094 55.945312 "/>
<path fill-rule="nonzero" fill="rgb(100%, 84.313725%, 0%)" fill-opacity="1" stroke-width="1" stroke-linecap="butt" stroke-linejoin="miter" stroke="rgb(100%, 84.313725%, 0%)" stroke-opacity="1" stroke-miterlimit="10" d="M 324.664062 51.820312 L 331.164062 51.820312 L 331.164062 58.320312 L 324.664062 58.320312 Z M 324.664062 51.820312 "/>
<path fill-rule="nonzero" fill="rgb(98.431373%, 60.392157%, 60%)" fill-opacity="1" stroke-width="1" stroke-linecap="butt" stroke-linejoin="miter" stroke="rgb(98.431373%, 60.392157%, 60%)" stroke-opacity="1" stroke-miterlimit="10" d="M 431.058594 484.054688 C 431.058594 487.71875 425.558594 487.71875 425.558594 484.054688 C 425.558594 480.386719 431.058594 480.386719 431.058594 484.054688 "/>
<path fill-rule="nonzero" fill="rgb(41.568627%, 23.921569%, 60.392157%)" fill-opacity="1" stroke-width="1" stroke-linecap="butt" stroke-linejoin="miter" stroke="rgb(41.568627%, 23.921569%, 60.392157%)" stroke-opacity="1" stroke-miterlimit="10" d="M 311.566406 664.789062 C 311.566406 668.457031 306.066406 668.457031 306.066406 664.789062 C 306.066406 661.125 311.566406 661.125 311.566406 664.789062 "/>
<path fill-rule="nonzero" fill="rgb(12.156863%, 47.058824%, 70.588235%)" fill-opacity="1" stroke-width="1" stroke-linecap="butt" stroke-linejoin="miter" stroke="rgb(12.156863%, 47.058824%, 70.588235%)" stroke-opacity="1" stroke-miterlimit="10" d="M 431.769531 52.820312 C 431.769531 56.484375 426.269531 56.484375 426.269531 52.820312 C 426.269531 49.152344 431.769531 49.152344 431.769531 52.820312 "/>
<path fill-rule="nonzero" fill="rgb(41.568627%, 23.921569%, 60.392157%)" fill-opacity="1" stroke-width="1" stroke-linecap="butt" stroke-linejoin="miter" stroke="rgb(41.568627%, 23.921569%, 60.392157%)" stroke-opacity="1" stroke-miterlimit="10" d="M 322.480469 685.800781 C 322.480469 689.46875 316.980469 689.46875 316.980469 685.800781 C 316.980469 682.132812 322.480469 682.132812 322.480469 685.800781 "/>
<path fill-rule="nonzero" fill="rgb(98.431373%, 60.392157%, 60%)" fill-opacity="1" stroke-width="1" stroke-linecap="butt" stroke-linejoin="miter" stroke="rgb(98.431373%, 60.392157%, 60%)" stroke-opacity="1" stroke-miterlimit="10" d="M 452.152344 482.355469 C 452.152344 486.019531 446.652344 486.019531 446.652344 482.355469 C 446.652344 478.6875 452.152344 478.6875 452.152344 482.355469 "/>
<path fill-rule="nonzero" fill="rgb(98.431373%, 60.392157%, 60%)" fill-opacity="1" stroke-width="1" stroke-linecap="butt" stroke-linejoin="miter" stroke="rgb(98.431373%, 60.392157%, 60%)" stroke-opacity="1" stroke-miterlimit="10" d="M 369.46875 502.359375 C 369.46875 506.023438 363.96875 506.023438 363.96875 502.359375 C 363.96875 498.691406 369.46875 498.691406 369.46875 502.359375 "/>
<path fill-rule="nonzero" fill="rgb(41.568627%, 23.921569%, 60.392157%)" fill-opacity="1" stroke-width="1" stroke-linecap="butt" stroke-linejoin="miter" stroke="rgb(41.568627%, 23.921569%, 60.392157%)" stroke-opacity="1" stroke-miterlimit="10" d="M 353.246094 719.226562 C 353.246094 722.894531 347.746094 722.894531 347.746094 719.226562 C 347.746094 715.5625 353.246094 715.5625 353.246094 719.226562 "/>
<path fill-rule="nonzero" fill="rgb(41.568627%, 23.921569%, 60.392157%)" fill-opacity="1" stroke-width="1" stroke-linecap="butt" stroke-linejoin="miter" stroke="rgb(41.568627%, 23.921569%, 60.392157%)" stroke-opacity="1" stroke-miterlimit="10" d="M 371.441406 731.484375 C 371.441406 735.152344 365.941406 735.152344 365.941406 731.484375 C 365.941406 727.816406 371.441406 727.816406 371.441406 731.484375 "/>
<path fill-rule="nonzero" fill="rgb(41.568627%, 23.921569%, 60.392157%)" fill-opacity="1" stroke-width="1" stroke-linecap="butt" stroke-linejoin="miter" stroke="rgb(41.568627%, 23.921569%, 60.392157%)" stroke-opacity="1" stroke-miterlimit="10" d="M 303.011719 617.15625 C 303.011719 620.820312 297.511719 620.820312 297.511719 617.15625 C 297.511719 613.488281 303.011719 613.488281 303.011719 617.15625 "/>
<path fill-rule="nonzero" fill="rgb(41.568627%, 23.921569%, 60.392157%)" fill-opacity="1" stroke-width="1" stroke-linecap="butt" stroke-linejoin="miter" stroke="rgb(41.568627%, 23.921569%, 60.392157%)" stroke-opacity="1" stroke-miterlimit="10" d="M 391.285156 740.484375 C 391.285156 744.152344 385.785156 744.152344 385.785156 740.484375 C 385.785156 736.816406 391.285156 736.816406 391.285156 740.484375 "/>
<path fill-rule="nonzero" fill="rgb(41.568627%, 23.921569%, 60.392157%)" fill-opacity="1" stroke-width="1" stroke-linecap="butt" stroke-linejoin="miter" stroke="rgb(41.568627%, 23.921569%, 60.392157%)" stroke-opacity="1" stroke-miterlimit="10" d="M 411.875 746.582031 C 411.875 750.25 406.375 750.25 406.375 746.582031 C 406.375 742.914062 411.875 742.914062 411.875 746.582031 "/>
<path fill-rule="nonzero" fill="rgb(98.431373%, 60.392157%, 60%)" fill-opacity="1" stroke-width="1" stroke-linecap="butt" stroke-linejoin="miter" stroke="rgb(98.431373%, 60.392157%, 60%)" stroke-opacity="1" stroke-miterlimit="10" d="M 493.910156 482.625 C 493.910156 486.292969 488.410156 486.292969 488.410156 482.625 C 488.410156 478.957031 493.910156 478.957031 493.910156 482.625 "/>
<path fill-rule="nonzero" fill="rgb(98.431373%, 60.392157%, 60%)" fill-opacity="1" stroke-width="1" stroke-linecap="butt" stroke-linejoin="miter" stroke="rgb(98.431373%, 60.392157%, 60%)" stroke-opacity="1" stroke-miterlimit="10" d="M 473.03125 481.410156 C 473.03125 485.074219 467.53125 485.074219 467.53125 481.410156 C 467.53125 477.742188 473.03125 477.742188 473.03125 481.410156 "/>
<path fill-rule="nonzero" fill="rgb(100%, 84.313725%, 0%)" fill-opacity="1" stroke-width="1" stroke-linecap="butt" stroke-linejoin="miter" stroke="rgb(100%, 84.313725%, 0%)" stroke-opacity="1" stroke-miterlimit="10" d="M 746.75 383.828125 L 753.25 383.828125 L 753.25 390.328125 L 746.75 390.328125 Z M 746.75 383.828125 "/>
<path fill-rule="nonzero" fill="rgb(14.901961%, 14.901961%, 14.901961%)" fill-opacity="1" stroke-width="1" stroke-linecap="butt" stroke-linejoin="miter" stroke="rgb(14.901961%, 14.901961%, 14.901961%)" stroke-opacity="1" stroke-miterlimit="10" d="M 738.261719 460.804688 L 742.011719 453.304688 L 745.761719 460.804688 Z M 738.261719 460.804688 "/>
<path fill-rule="nonzero" fill="rgb(30.196078%, 68.627451%, 29.019608%)" fill-opacity="1" stroke-width="1" stroke-linecap="butt" stroke-linejoin="miter" stroke="rgb(30.196078%, 68.627451%, 29.019608%)" stroke-opacity="1" stroke-miterlimit="10" d="M 750.34375 434.3125 C 750.34375 437.980469 744.84375 437.980469 744.84375 434.3125 C 744.84375 430.644531 750.34375 430.644531 750.34375 434.3125 "/>
<path fill-rule="nonzero" fill="rgb(30.196078%, 68.627451%, 29.019608%)" fill-opacity="1" stroke-width="1" stroke-linecap="butt" stroke-linejoin="miter" stroke="rgb(30.196078%, 68.627451%, 29.019608%)" stroke-opacity="1" stroke-miterlimit="10" d="M 752.183594 410.84375 C 752.183594 414.507812 746.683594 414.507812 746.683594 410.84375 C 746.683594 407.175781 752.183594 407.175781 752.183594 410.84375 "/>
<path fill-rule="nonzero" fill="rgb(41.568627%, 23.921569%, 60.392157%)" fill-opacity="1" stroke-width="1" stroke-linecap="butt" stroke-linejoin="miter" stroke="rgb(41.568627%, 23.921569%, 60.392157%)" stroke-opacity="1" stroke-miterlimit="10" d="M 309.875 569.144531 C 309.875 572.8125 304.375 572.8125 304.375 569.144531 C 304.375 565.476562 309.875 565.476562 309.875 569.144531 "/>
<path fill-rule="nonzero" fill="rgb(41.568627%, 23.921569%, 60.392157%)" fill-opacity="1" stroke-width="1" stroke-linecap="butt" stroke-linejoin="miter" stroke="rgb(41.568627%, 23.921569%, 60.392157%)" stroke-opacity="1" stroke-miterlimit="10" d="M 304.605469 641.628906 C 304.605469 645.296875 299.105469 645.296875 299.105469 641.628906 C 299.105469 637.964844 304.605469 637.964844 304.605469 641.628906 "/>
<path fill-rule="nonzero" fill="rgb(41.568627%, 23.921569%, 60.392157%)" fill-opacity="1" stroke-width="1" stroke-linecap="butt" stroke-linejoin="miter" stroke="rgb(41.568627%, 23.921569%, 60.392157%)" stroke-opacity="1" stroke-miterlimit="10" d="M 336.640625 704.035156 C 336.640625 707.703125 331.140625 707.703125 331.140625 704.035156 C 331.140625 700.367188 336.640625 700.367188 336.640625 704.035156 "/>
<path fill-rule="nonzero" fill="rgb(14.901961%, 14.901961%, 14.901961%)" fill-opacity="1" stroke-width="1" stroke-linecap="butt" stroke-linejoin="miter" stroke="rgb(14.901961%, 14.901961%, 14.901961%)" stroke-opacity="1" stroke-miterlimit="10" d="M 426.347656 753.75 L 430.097656 746.25 L 433.847656 753.75 Z M 426.347656 753.75 "/>
<path fill-rule="nonzero" fill="rgb(98.431373%, 60.392157%, 60%)" fill-opacity="1" stroke-width="1" stroke-linecap="butt" stroke-linejoin="miter" stroke="rgb(98.431373%, 60.392157%, 60%)" stroke-opacity="1" stroke-miterlimit="10" d="M 410.097656 487.792969 C 410.097656 491.457031 404.597656 491.457031 404.597656 487.792969 C 404.597656 484.125 410.097656 484.125 410.097656 487.792969 "/>
<path fill-rule="nonzero" fill="rgb(98.431373%, 60.392157%, 60%)" fill-opacity="1" stroke-width="1" stroke-linecap="butt" stroke-linejoin="miter" stroke="rgb(98.431373%, 60.392157%, 60%)" stroke-opacity="1" stroke-miterlimit="10" d="M 389.402344 493.523438 C 389.402344 497.191406 383.902344 497.191406 383.902344 493.523438 C 383.902344 489.859375 389.402344 489.859375 389.402344 493.523438 "/>
<path fill-rule="nonzero" fill="rgb(14.901961%, 14.901961%, 14.901961%)" fill-opacity="1" stroke-width="1" stroke-linecap="butt" stroke-linejoin="miter" stroke="rgb(14.901961%, 14.901961%, 14.901961%)" stroke-opacity="1" stroke-miterlimit="10" d="M 508.046875 489.949219 L 511.796875 482.449219 L 515.546875 489.949219 Z M 508.046875 489.949219 "/>
<path fill-rule="nonzero" fill="rgb(98.431373%, 60.392157%, 60%)" fill-opacity="1" stroke-width="1" stroke-linecap="butt" stroke-linejoin="miter" stroke="rgb(98.431373%, 60.392157%, 60%)" stroke-opacity="1" stroke-miterlimit="10" d="M 333.65625 528.878906 C 333.65625 532.542969 328.15625 532.542969 328.15625 528.878906 C 328.15625 525.210938 333.65625 525.210938 333.65625 528.878906 "/>
<path fill-rule="nonzero" fill="rgb(12.156863%, 47.058824%, 70.588235%)" fill-opacity="1" stroke-width="1" stroke-linecap="butt" stroke-linejoin="miter" stroke="rgb(12.156863%, 47.058824%, 70.588235%)" stroke-opacity="1" stroke-miterlimit="10" d="M 472.140625 61.585938 C 472.140625 65.253906 466.640625 65.253906 466.640625 61.585938 C 466.640625 57.917969 472.140625 57.917969 472.140625 61.585938 "/>
<path fill-rule="nonzero" fill="rgb(12.156863%, 47.058824%, 70.588235%)" fill-opacity="1" stroke-width="1" stroke-linecap="butt" stroke-linejoin="miter" stroke="rgb(12.156863%, 47.058824%, 70.588235%)" stroke-opacity="1" stroke-miterlimit="10" d="M 490.777344 71.585938 C 490.777344 75.253906 485.277344 75.253906 485.277344 71.585938 C 485.277344 67.921875 490.777344 67.921875 490.777344 71.585938 "/>
<path fill-rule="nonzero" fill="rgb(12.156863%, 47.058824%, 70.588235%)" fill-opacity="1" stroke-width="1" stroke-linecap="butt" stroke-linejoin="miter" stroke="rgb(12.156863%, 47.058824%, 70.588235%)" stroke-opacity="1" stroke-miterlimit="10" d="M 562.085938 117.554688 C 562.085938 121.222656 556.585938 121.222656 556.585938 117.554688 C 556.585938 113.886719 562.085938 113.886719 562.085938 117.554688 "/>
<path fill-rule="nonzero" fill="rgb(14.901961%, 14.901961%, 14.901961%)" fill-opacity="1" stroke-width="1" stroke-linecap="butt" stroke-linejoin="miter" stroke="rgb(14.901961%, 14.901961%, 14.901961%)" stroke-opacity="1" stroke-miterlimit="10" d="M 576.484375 117.871094 L 580.234375 110.371094 L 583.984375 117.871094 Z M 576.484375 117.871094 "/>
<path fill-rule="nonzero" fill="rgb(12.156863%, 47.058824%, 70.588235%)" fill-opacity="1" stroke-width="1" stroke-linecap="butt" stroke-linejoin="miter" stroke="rgb(12.156863%, 47.058824%, 70.588235%)" stroke-opacity="1" stroke-miterlimit="10" d="M 542.640625 108.605469 C 542.640625 112.269531 537.140625 112.269531 537.140625 108.605469 C 537.140625 104.9375 542.640625 104.9375 542.640625 108.605469 "/>
<path fill-rule="nonzero" fill="rgb(12.156863%, 47.058824%, 70.588235%)" fill-opacity="1" stroke-width="1" stroke-linecap="butt" stroke-linejoin="miter" stroke="rgb(12.156863%, 47.058824%, 70.588235%)" stroke-opacity="1" stroke-miterlimit="10" d="M 524.394531 97.851562 C 524.394531 101.515625 518.894531 101.515625 518.894531 97.851562 C 518.894531 94.183594 524.394531 94.183594 524.394531 97.851562 "/>
<path fill-rule="nonzero" fill="rgb(12.156863%, 47.058824%, 70.588235%)" fill-opacity="1" stroke-width="1" stroke-linecap="butt" stroke-linejoin="miter" stroke="rgb(12.156863%, 47.058824%, 70.588235%)" stroke-opacity="1" stroke-miterlimit="10" d="M 507.917969 84.441406 C 507.917969 88.105469 502.417969 88.105469 502.417969 84.441406 C 502.417969 80.773438 507.917969 80.773438 507.917969 84.441406 "/>
</svg>
