<?xml version="1.0" encoding="UTF-8"?>
<svg xmlns="http://www.w3.org/2000/svg" xmlns:xlink="http://www.w3.org/1999/xlink" width="800" height="800" viewBox="0 0 800 800">
<rect x="-80" y="-80" width="960" height="960" fill="rgb(100%, 100%, 100%)" fill-opacity="1"/>
<path fill="none" stroke-width="1.5" stroke-linecap="butt" stroke-linejoin="miter" stroke="rgb(30.196078%, 68.627451%, 29.019608%)" stroke-opacity="1" stroke-miterlimit="10" d="M 654.992188 50 C 647.75 71.574219 648.851562 92.835938 661.144531 111.953125 "/>
<path fill-rule="nonzero" fill="rgb(30.196078%, 68.627451%, 29.019608%)" fill-opacity="1" d="M 665 117.953125 L 659.195312 113.207031 L 663.09375 110.699219 L 665 117.953125 "/>
<path fill="none" stroke-width="2.5" stroke-linecap="butt" stroke-linejoin="miter" stroke="rgb(70.196078%, 70.196078%, 70.196078%)" stroke-opacity="1" stroke-miterlimit="10" d="M 666.289062 119.960938 C 673.535156 98.386719 672.433594 77.125 660.140625 58.007812 "/>
<path fill-rule="nonzero" fill="rgb(70.196078%, 70.196078%, 70.196078%)" fill-opacity="1" d="M 656.28125 52.007812 L 662.089844 56.753906 L 658.191406 59.261719 L 656.28125 52.007812 "/>
<path fill="none" stroke-width="2.5" stroke-linecap="butt" stroke-linejoin="miter" stroke="rgb(41.568627%, 23.921569%, 60.392157%)" stroke-opacity="1" stroke-miterlimit="10" d="M 666.289062 119.960938 C 680.273438 102.960938 686.628906 83.363281 682.09375 61.851562 "/>
<path fill-rule="nonzero" fill="rgb(41.568627%, 23.921569%, 60.392157%)" fill-opacity="1" d="M 680.621094 54.875 L 684.359375 61.375 L 679.824219 62.332031 L 680.621094 54.875 "/>
<path fill="none" stroke-width="1.5" stroke-linecap="butt" stroke-linejoin="miter" stroke="rgb(41.568627%, 23.921569%, 60.392157%)" stroke-opacity="1" stroke-miterlimit="10" d="M 680.273438 53.238281 C 666.359375 69.984375 659.953125 89.347656 664.359375 110.640625 "/>
<path fill-rule="nonzero" fill="rgb(41.568627%, 23.921569%, 60.392157%)" fill-opacity="1" d="M 665.808594 117.625 L 662.089844 111.109375 L 666.628906 110.171875 L 665.808594 117.625 "/>
<path fill="none" stroke-width="2.5" stroke-linecap="butt" stroke-linejoin="miter" stroke="rgb(98.431373%, 60.392157%, 60%)" stroke-opacity="1" stroke-miterlimit="10" d="M 732.5 196.992188 C 743.820312 187.683594 750.839844 175.664062 750.292969 161.0625 "/>
<path fill-rule="nonzero" fill="rgb(98.431373%, 60.392157%, 60%)" fill-opacity="1" d="M 750.027344 153.933594 L 752.609375 160.972656 L 747.976562 161.148438 L 750.027344 153.933594 "/>
<path fill="none" stroke-width="2.5" stroke-linecap="butt" stroke-linejoin="miter" stroke="rgb(98.431373%, 60.392157%, 60%)" stroke-opacity="1" stroke-miterlimit="10" d="M 750 153.214844 C 738.910156 162.054688 731.871094 173.585938 732.253906 187.71875 "/>
<path fill-rule="nonzero" fill="rgb(98.431373%, 60.392157%, 60%)" fill-opacity="1" d="M 732.445312 194.847656 L 729.9375 187.78125 L 734.570312 187.65625 L 732.445312 194.847656 "/>
<path fill="none" stroke-width="1.5" stroke-linecap="butt" stroke-linejoin="miter" stroke="rgb(12.156863%, 47.058824%, 70.588235%)" stroke-opacity="1" stroke-miterlimit="10" d="M 733 690.410156 C 727.765625 709.085938 729.5 727.230469 740.902344 742.882812 "/>
<path fill-rule="nonzero" fill="rgb(12.156863%, 47.058824%, 70.588235%)" fill-opacity="1" d="M 745.101562 748.648438 L 739.027344 744.246094 L 742.773438 741.519531 L 745.101562 748.648438 "/>
<path fill="none" stroke-width="4.5" stroke-linecap="butt" stroke-linejoin="miter" stroke="rgb(70.196078%, 70.196078%, 70.196078%)" stroke-opacity="1" stroke-miterlimit="10" d="M 659.476562 375.171875 C 675.238281 352.53125 680.957031 327.496094 673.378906 300.992188 "/>
<path fill-rule="nonzero" fill="rgb(70.196078%, 70.196078%, 70.196078%)" fill-opacity="1" d="M 671.417969 294.132812 L 675.609375 300.355469 L 671.152344 301.628906 L 671.417969 294.132812 "/>
<path fill="none" stroke-width="1.5" stroke-linecap="butt" stroke-linejoin="miter" stroke="rgb(12.156863%, 47.058824%, 70.588235%)" stroke-opacity="1" stroke-miterlimit="10" d="M 659.476562 375.171875 C 651.066406 400.699219 652.710938 425.660156 667.15625 448.296875 "/>
<path fill-rule="nonzero" fill="rgb(12.156863%, 47.058824%, 70.588235%)" fill-opacity="1" d="M 670.992188 454.3125 L 665.203125 449.542969 L 669.109375 447.050781 L 670.992188 454.3125 "/>
<path fill="none" stroke-width="3.5" stroke-linecap="butt" stroke-linejoin="miter" stroke="rgb(70.196078%, 70.196078%, 70.196078%)" stroke-opacity="1" stroke-miterlimit="10" d="M 665.304688 206.355469 C 678.519531 181.183594 681.128906 154.867188 670.015625 128.726562 "/>
<path fill-rule="nonzero" fill="rgb(70.196078%, 70.196078%, 70.196078%)" fill-opacity="1" d="M 667.226562 122.160156 L 672.148438 127.816406 L 667.882812 129.632812 L 667.226562 122.160156 "/>
<path fill="none" stroke-width="3.5" stroke-linecap="butt" stroke-linejoin="miter" stroke="rgb(70.196078%, 70.196078%, 70.196078%)" stroke-opacity="1" stroke-miterlimit="10" d="M 670.761719 291.835938 C 681.953125 266 682.59375 239.808594 669.675781 214.8125 "/>
<path fill-rule="nonzero" fill="rgb(70.196078%, 70.196078%, 70.196078%)" fill-opacity="1" d="M 666.402344 208.476562 L 671.734375 213.75 L 667.617188 215.878906 L 666.402344 208.476562 "/>
<path fill="none" stroke-width="1.5" stroke-linecap="butt" stroke-linejoin="miter" stroke="rgb(98.431373%, 60.392157%, 60%)" stroke-opacity="1" stroke-miterlimit="10" d="M 670.761719 291.835938 C 678.992188 290.585938 686.351562 286.933594 689.890625 279.476562 "/>
<path fill-rule="nonzero" fill="rgb(98.431373%, 60.392157%, 60%)" fill-opacity="1" d="M 692.949219 273.035156 L 691.984375 280.472656 L 687.796875 278.484375 L 692.949219 273.035156 "/>
<path fill="none" stroke-width="1.5" stroke-linecap="butt" stroke-linejoin="miter" stroke="rgb(98.431373%, 60.392157%, 60%)" stroke-opacity="1" stroke-miterlimit="10" d="M 693.257812 272.386719 C 703.753906 266.480469 711.355469 257.773438 712.816406 245.863281 "/>
<path fill-rule="nonzero" fill="rgb(98.431373%, 60.392157%, 60%)" fill-opacity="1" d="M 713.683594 238.785156 L 715.117188 246.148438 L 710.515625 245.582031 L 713.683594 238.785156 "/>
<path fill="none" stroke-width="1.5" stroke-linecap="butt" stroke-linejoin="miter" stroke="rgb(98.431373%, 60.392157%, 60%)" stroke-opacity="1" stroke-miterlimit="10" d="M 713.773438 238.074219 C 724.722656 230.25 732.019531 219.671875 732.304688 206.265625 "/>
<path fill-rule="nonzero" fill="rgb(98.431373%, 60.392157%, 60%)" fill-opacity="1" d="M 732.457031 199.132812 L 734.621094 206.316406 L 729.988281 206.214844 L 732.457031 199.132812 "/>
<path fill="none" stroke-width="5.5" stroke-linecap="butt" stroke-linejoin="miter" stroke="rgb(70.196078%, 70.196078%, 70.196078%)" stroke-opacity="1" stroke-miterlimit="10" d="M 635.554688 382.769531 C 641.265625 384.773438 647.484375 385.167969 652.054688 381.359375 "/>
<path fill-rule="nonzero" fill="rgb(70.196078%, 70.196078%, 70.196078%)" fill-opacity="1" d="M 657.535156 376.792969 L 653.539062 383.140625 L 650.570312 379.582031 L 657.535156 376.792969 "/>
<path fill="none" stroke-width="1.5" stroke-linecap="butt" stroke-linejoin="miter" stroke="rgb(12.156863%, 47.058824%, 70.588235%)" stroke-opacity="1" stroke-miterlimit="10" d="M 680.605469 612.945312 C 680.589844 606.875 678.871094 600.898438 673.757812 597.816406 "/>
<path fill-rule="nonzero" fill="rgb(12.156863%, 47.058824%, 70.588235%)" fill-opacity="1" d="M 667.652344 594.128906 L 674.957031 595.832031 L 672.5625 599.800781 L 667.652344 594.128906 "/>
<path fill="none" stroke-width="1.5" stroke-linecap="butt" stroke-linejoin="miter" stroke="rgb(12.156863%, 47.058824%, 70.588235%)" stroke-opacity="1" stroke-miterlimit="10" d="M 704.246094 569.15625 C 699.722656 588.613281 702.386719 607.164062 714.796875 622.777344 "/>
<path fill-rule="nonzero" fill="rgb(12.156863%, 47.058824%, 70.588235%)" fill-opacity="1" d="M 719.234375 628.363281 L 712.984375 624.21875 L 716.613281 621.335938 L 719.234375 628.363281 "/>
<path fill="none" stroke-width="1.5" stroke-linecap="butt" stroke-linejoin="miter" stroke="rgb(12.156863%, 47.058824%, 70.588235%)" stroke-opacity="1" stroke-miterlimit="10" d="M 682.5625 533.828125 C 670.121094 557.035156 667.457031 581.410156 677.582031 605.695312 "/>
<path fill-rule="nonzero" fill="rgb(12.156863%, 47.058824%, 70.588235%)" fill-opacity="1" d="M 680.328125 612.28125 L 675.445312 606.589844 L 679.722656 604.804688 L 680.328125 612.28125 "/>
<path fill="none" stroke-width="1.5" stroke-linecap="butt" stroke-linejoin="miter" stroke="rgb(12.156863%, 47.058824%, 70.588235%)" stroke-opacity="1" stroke-miterlimit="10" d="M 682.5625 533.828125 C 683.003906 546.402344 687.460938 557.585938 697.78125 564.699219 "/>
<path fill-rule="nonzero" fill="rgb(12.156863%, 47.058824%, 70.588235%)" fill-opacity="1" d="M 703.65625 568.746094 L 696.46875 566.609375 L 699.097656 562.792969 L 703.65625 568.746094 "/>
<path fill="none" stroke-width="1.5" stroke-linecap="butt" stroke-linejoin="miter" stroke="rgb(12.156863%, 47.058824%, 70.588235%)" stroke-opacity="1" stroke-miterlimit="10" d="M 671.378906 454.917969 C 662.859375 479.882812 664.183594 504.414062 678.148438 526.761719 "/>
<path fill-rule="nonzero" fill="rgb(12.156863%, 47.058824%, 70.588235%)" fill-opacity="1" d="M 681.929688 532.8125 L 676.183594 527.992188 L 680.113281 525.535156 L 681.929688 532.8125 "/>
<path fill="none" stroke-width="1.5" stroke-linecap="butt" stroke-linejoin="miter" stroke="rgb(12.156863%, 47.058824%, 70.588235%)" stroke-opacity="1" stroke-miterlimit="10" d="M 719.683594 628.925781 C 714.304688 648.609375 716.320312 667.636719 728.363281 684.078125 "/>
<path fill-rule="nonzero" fill="rgb(12.156863%, 47.058824%, 70.588235%)" fill-opacity="1" d="M 732.578125 689.832031 L 726.492188 685.445312 L 730.230469 682.707031 L 732.578125 689.832031 "/>
<path fill="none" stroke-width="5.5" stroke-linecap="butt" stroke-linejoin="miter" stroke="rgb(70.196078%, 70.196078%, 70.196078%)" stroke-opacity="1" stroke-miterlimit="10" d="M 549.839844 421.488281 C 555.078125 422.589844 560.691406 422.289062 564.148438 418.355469 "/>
<path fill-rule="nonzero" fill="rgb(70.196078%, 70.196078%, 70.196078%)" fill-opacity="1" d="M 568.855469 413 L 565.886719 419.886719 L 562.40625 416.828125 L 568.855469 413 "/>
<path fill="none" stroke-width="5.5" stroke-linecap="butt" stroke-linejoin="miter" stroke="rgb(70.196078%, 70.196078%, 70.196078%)" stroke-opacity="1" stroke-miterlimit="10" d="M 613.128906 391.632812 C 618.601562 393.21875 624.523438 393.300781 628.566406 389.441406 "/>
<path fill-rule="nonzero" fill="rgb(70.196078%, 70.196078%, 70.196078%)" fill-opacity="1" d="M 633.722656 384.515625 L 630.167969 391.117188 L 626.964844 387.765625 L 633.722656 384.515625 "/>
<path fill="none" stroke-width="1.5" stroke-linecap="butt" stroke-linejoin="miter" stroke="rgb(12.156863%, 47.058824%, 70.588235%)" stroke-opacity="1" stroke-miterlimit="10" d="M 667.039062 593.757812 C 680.417969 579.050781 687.128906 561.636719 683.910156 542.046875 "/>
<path fill-rule="nonzero" fill="rgb(12.156863%, 47.058824%, 70.588235%)" fill-opacity="1" d="M 682.757812 535.007812 L 686.199219 541.667969 L 681.625 542.421875 L 682.757812 535.007812 "/>
<path fill="none" stroke-width="5.5" stroke-linecap="butt" stroke-linejoin="miter" stroke="rgb(70.196078%, 70.196078%, 70.196078%)" stroke-opacity="1" stroke-miterlimit="10" d="M 388.34375 478.171875 C 391.640625 480.898438 395.859375 482.953125 399.625 481.269531 "/>
<path fill-rule="nonzero" fill="rgb(70.196078%, 70.196078%, 70.196078%)" fill-opacity="1" d="M 406.140625 478.359375 L 400.574219 483.386719 L 398.679688 479.152344 L 406.140625 478.359375 "/>
<path fill="none" stroke-width="5.5" stroke-linecap="butt" stroke-linejoin="miter" stroke="rgb(70.196078%, 70.196078%, 70.196078%)" stroke-opacity="1" stroke-miterlimit="10" d="M 591.566406 401.757812 C 597.019531 402.996094 602.84375 402.75 606.566406 398.726562 "/>
<path fill-rule="nonzero" fill="rgb(70.196078%, 70.196078%, 70.196078%)" fill-opacity="1" d="M 611.410156 393.492188 L 608.269531 400.300781 L 604.863281 397.152344 L 611.410156 393.492188 "/>
<path fill="none" stroke-width="5.5" stroke-linecap="butt" stroke-linejoin="miter" stroke="rgb(70.196078%, 70.196078%, 70.196078%)" stroke-opacity="1" stroke-miterlimit="10" d="M 529.378906 431.644531 C 534.5 432.773438 540.023438 432.539062 543.421875 428.710938 "/>
<path fill-rule="nonzero" fill="rgb(70.196078%, 70.196078%, 70.196078%)" fill-opacity="1" d="M 548.160156 423.378906 L 545.15625 430.25 L 541.691406 427.171875 L 548.160156 423.378906 "/>
<path fill="none" stroke-width="5.5" stroke-linecap="butt" stroke-linejoin="miter" stroke="rgb(70.196078%, 70.196078%, 70.196078%)" stroke-opacity="1" stroke-miterlimit="10" d="M 509.066406 441.359375 C 514.050781 442.5625 519.476562 442.457031 522.855469 438.769531 "/>
<path fill-rule="nonzero" fill="rgb(70.196078%, 70.196078%, 70.196078%)" fill-opacity="1" d="M 527.671875 433.507812 L 524.566406 440.332031 L 521.144531 437.203125 L 527.671875 433.507812 "/>
<path fill="none" stroke-width="5.5" stroke-linecap="butt" stroke-linejoin="miter" stroke="rgb(70.196078%, 70.196078%, 70.196078%)" stroke-opacity="1" stroke-miterlimit="10" d="M 488.859375 450.78125 C 493.75 452.035156 499.109375 452.011719 502.46875 448.417969 "/>
<path fill-rule="nonzero" fill="rgb(70.196078%, 70.196078%, 70.196078%)" fill-opacity="1" d="M 507.339844 443.203125 L 504.164062 450 L 500.777344 446.832031 L 507.339844 443.203125 "/>
<path fill="none" stroke-width="5.5" stroke-linecap="butt" stroke-linejoin="miter" stroke="rgb(70.196078%, 70.196078%, 70.196078%)" stroke-opacity="1" stroke-miterlimit="10" d="M 570.527344 411.101562 C 575.660156 412.449219 581.242188 412.429688 584.851562 408.699219 "/>
<path fill-rule="nonzero" fill="rgb(70.196078%, 70.196078%, 70.196078%)" fill-opacity="1" d="M 589.808594 403.574219 L 586.515625 410.3125 L 583.183594 407.089844 L 589.808594 403.574219 "/>
<path fill="none" stroke-width="5.5" stroke-linecap="butt" stroke-linejoin="miter" stroke="rgb(70.196078%, 70.196078%, 70.196078%)" stroke-opacity="1" stroke-miterlimit="10" d="M 368.261719 478.113281 C 371.421875 480.976562 375.53125 483.21875 379.359375 481.710938 "/>
<path fill-rule="nonzero" fill="rgb(70.196078%, 70.196078%, 70.196078%)" fill-opacity="1" d="M 385.996094 479.097656 L 380.210938 483.867188 L 378.511719 479.554688 L 385.996094 479.097656 "/>
<path fill="none" stroke-width="5.5" stroke-linecap="butt" stroke-linejoin="miter" stroke="rgb(70.196078%, 70.196078%, 70.196078%)" stroke-opacity="1" stroke-miterlimit="10" d="M 268.148438 459.6875 C 270.453125 463.738281 273.921875 467.363281 278.4375 467.203125 "/>
<path fill-rule="nonzero" fill="rgb(70.196078%, 70.196078%, 70.196078%)" fill-opacity="1" d="M 285.566406 466.953125 L 278.519531 469.519531 L 278.359375 464.886719 L 285.566406 466.953125 "/>
<path fill="none" stroke-width="5.5" stroke-linecap="butt" stroke-linejoin="miter" stroke="rgb(70.196078%, 70.196078%, 70.196078%)" stroke-opacity="1" stroke-miterlimit="10" d="M 468.71875 459.769531 C 473.5 461.101562 478.78125 461.199219 482.144531 457.726562 "/>
<path fill-rule="nonzero" fill="rgb(70.196078%, 70.196078%, 70.196078%)" fill-opacity="1" d="M 487.101562 452.597656 L 483.808594 459.335938 L 480.476562 456.113281 L 487.101562 452.597656 "/>
<path fill="none" stroke-width="5.5" stroke-linecap="butt" stroke-linejoin="miter" stroke="rgb(70.196078%, 70.196078%, 70.196078%)" stroke-opacity="1" stroke-miterlimit="10" d="M 448.625 468.121094 C 453.265625 469.574219 458.449219 469.84375 461.824219 466.53125 "/>
<path fill-rule="nonzero" fill="rgb(70.196078%, 70.196078%, 70.196078%)" fill-opacity="1" d="M 466.917969 461.535156 L 463.449219 468.1875 L 460.203125 464.878906 L 466.917969 461.535156 "/>
<path fill="none" stroke-width="5.5" stroke-linecap="butt" stroke-linejoin="miter" stroke="rgb(70.196078%, 70.196078%, 70.196078%)" stroke-opacity="1" stroke-miterlimit="10" d="M 428.566406 476.152344 C 433.128906 477.660156 438.261719 478.019531 441.640625 474.792969 "/>
<path fill-rule="nonzero" fill="rgb(70.196078%, 70.196078%, 70.196078%)" fill-opacity="1" d="M 446.800781 469.867188 L 443.242188 476.46875 L 440.039062 473.117188 L 446.800781 469.867188 "/>
<path fill="none" stroke-width="5.5" stroke-linecap="butt" stroke-linejoin="miter" stroke="rgb(70.196078%, 70.196078%, 70.196078%)" stroke-opacity="1" stroke-miterlimit="10" d="M 248.203125 453.015625 C 250.554688 456.96875 254.054688 460.5 258.507812 460.242188 "/>
<path fill-rule="nonzero" fill="rgb(70.196078%, 70.196078%, 70.196078%)" fill-opacity="1" d="M 265.628906 459.832031 L 258.640625 462.558594 L 258.375 457.929688 L 265.628906 459.832031 "/>
<path fill="none" stroke-width="5.5" stroke-linecap="butt" stroke-linejoin="miter" stroke="rgb(70.196078%, 70.196078%, 70.196078%)" stroke-opacity="1" stroke-miterlimit="10" d="M 109.523438 385.632812 C 111.902344 389.523438 115.417969 392.984375 119.824219 392.664062 "/>
<path fill-rule="nonzero" fill="rgb(70.196078%, 70.196078%, 70.196078%)" fill-opacity="1" d="M 126.9375 392.148438 L 119.992188 394.976562 L 119.65625 390.355469 L 126.9375 392.148438 "/>
<path fill="none" stroke-width="5.5" stroke-linecap="butt" stroke-linejoin="miter" stroke="rgb(70.196078%, 70.196078%, 70.196078%)" stroke-opacity="1" stroke-miterlimit="10" d="M 288.089844 466.863281 C 290.648438 470.484375 294.289062 473.644531 298.53125 473.023438 "/>
<path fill-rule="nonzero" fill="rgb(70.196078%, 70.196078%, 70.196078%)" fill-opacity="1" d="M 305.585938 471.984375 L 298.867188 475.316406 L 298.191406 470.730469 L 305.585938 471.984375 "/>
<path fill="none" stroke-width="5.5" stroke-linecap="butt" stroke-linejoin="miter" stroke="rgb(70.196078%, 70.196078%, 70.196078%)" stroke-opacity="1" stroke-miterlimit="10" d="M 408.441406 477.328125 C 411.796875 480.003906 416.0625 481.992188 419.816406 480.238281 "/>
<path fill-rule="nonzero" fill="rgb(70.196078%, 70.196078%, 70.196078%)" fill-opacity="1" d="M 426.28125 477.222656 L 420.796875 482.339844 L 418.835938 478.140625 L 426.28125 477.222656 "/>
<path fill="none" stroke-width="5.5" stroke-linecap="butt" stroke-linejoin="miter" stroke="rgb(70.196078%, 70.196078%, 70.196078%)" stroke-opacity="1" stroke-miterlimit="10" d="M 348.191406 476.882812 C 351.1875 479.933594 355.171875 482.410156 359.089844 481.125 "/>
<path fill-rule="nonzero" fill="rgb(70.196078%, 70.196078%, 70.196078%)" fill-opacity="1" d="M 365.863281 478.898438 L 359.8125 483.328125 L 358.363281 478.921875 L 365.863281 478.898438 "/>
<path fill="none" stroke-width="5.5" stroke-linecap="butt" stroke-linejoin="miter" stroke="rgb(70.196078%, 70.196078%, 70.196078%)" stroke-opacity="1" stroke-miterlimit="10" d="M 328.136719 474.492188 C 330.980469 477.726562 334.84375 480.433594 338.863281 479.367188 "/>
<path fill-rule="nonzero" fill="rgb(70.196078%, 70.196078%, 70.196078%)" fill-opacity="1" d="M 345.753906 477.53125 L 339.457031 481.605469 L 338.265625 477.125 L 345.753906 477.53125 "/>
<path fill="none" stroke-width="5.5" stroke-linecap="butt" stroke-linejoin="miter" stroke="rgb(70.196078%, 70.196078%, 70.196078%)" stroke-opacity="1" stroke-miterlimit="10" d="M 228.34375 444.214844 C 230.476562 448.566406 233.839844 452.503906 238.550781 452.671875 "/>
<path fill-rule="nonzero" fill="rgb(70.196078%, 70.196078%, 70.196078%)" fill-opacity="1" d="M 245.679688 452.925781 L 238.46875 454.988281 L 238.632812 450.355469 L 245.679688 452.925781 "/>
<path fill="none" stroke-width="5.5" stroke-linecap="butt" stroke-linejoin="miter" stroke="rgb(70.196078%, 70.196078%, 70.196078%)" stroke-opacity="1" stroke-miterlimit="10" d="M 208.539062 433.210938 C 210.472656 438.011719 213.742188 442.398438 218.757812 443.023438 "/>
<path fill-rule="nonzero" fill="rgb(70.196078%, 70.196078%, 70.196078%)" fill-opacity="1" d="M 225.835938 443.902344 L 218.472656 445.324219 L 219.046875 440.722656 L 225.835938 443.902344 "/>
<path fill="none" stroke-width="5.5" stroke-linecap="butt" stroke-linejoin="miter" stroke="rgb(70.196078%, 70.196078%, 70.196078%)" stroke-opacity="1" stroke-miterlimit="10" d="M 188.734375 421.929688 C 190.644531 426.792969 193.90625 431.238281 198.964844 431.917969 "/>
<path fill-rule="nonzero" fill="rgb(70.196078%, 70.196078%, 70.196078%)" fill-opacity="1" d="M 206.035156 432.871094 L 198.65625 434.214844 L 199.273438 429.621094 L 206.035156 432.871094 "/>
<path fill="none" stroke-width="5.5" stroke-linecap="butt" stroke-linejoin="miter" stroke="rgb(70.196078%, 70.196078%, 70.196078%)" stroke-opacity="1" stroke-miterlimit="10" d="M 89.492188 386.109375 C 92.710938 388.882812 96.867188 391.015625 100.636719 389.410156 "/>
<path fill-rule="nonzero" fill="rgb(70.196078%, 70.196078%, 70.196078%)" fill-opacity="1" d="M 107.203125 386.617188 L 101.542969 391.542969 L 99.730469 387.277344 L 107.203125 386.617188 "/>
<path fill="none" stroke-width="5.5" stroke-linecap="butt" stroke-linejoin="miter" stroke="rgb(70.196078%, 70.196078%, 70.196078%)" stroke-opacity="1" stroke-miterlimit="10" d="M 169.269531 403.96875 C 170.550781 410.394531 173.625 416.3125 179.671875 418.5625 "/>
<path fill-rule="nonzero" fill="rgb(70.196078%, 70.196078%, 70.196078%)" fill-opacity="1" d="M 186.359375 421.046875 L 178.867188 420.734375 L 180.480469 416.390625 L 186.359375 421.046875 "/>
<path fill="none" stroke-width="5.5" stroke-linecap="butt" stroke-linejoin="miter" stroke="rgb(70.196078%, 70.196078%, 70.196078%)" stroke-opacity="1" stroke-miterlimit="10" d="M 69.914062 368.851562 C 71.28125 375.117188 74.394531 380.875 80.359375 382.941406 "/>
<path fill-rule="nonzero" fill="rgb(70.196078%, 70.196078%, 70.196078%)" fill-opacity="1" d="M 87.097656 385.28125 L 79.597656 385.132812 L 81.117188 380.753906 L 87.097656 385.28125 "/>
<path fill="none" stroke-width="5.5" stroke-linecap="butt" stroke-linejoin="miter" stroke="rgb(70.196078%, 70.196078%, 70.196078%)" stroke-opacity="1" stroke-miterlimit="10" d="M 50 369.449219 C 53.199219 372.1875 57.328125 374.292969 61.050781 372.683594 "/>
<path fill-rule="nonzero" fill="rgb(70.196078%, 70.196078%, 70.196078%)" fill-opacity="1" d="M 67.601562 369.851562 L 61.972656 374.8125 L 60.132812 370.554688 L 67.601562 369.851562 "/>
<path fill="none" stroke-width="5.5" stroke-linecap="butt" stroke-linejoin="miter" stroke="rgb(70.196078%, 70.196078%, 70.196078%)" stroke-opacity="1" stroke-miterlimit="10" d="M 308.082031 471.617188 C 310.867188 474.929688 314.683594 477.730469 318.746094 476.753906 "/>
<path fill-rule="nonzero" fill="rgb(70.196078%, 70.196078%, 70.196078%)" fill-opacity="1" d="M 325.683594 475.082031 L 319.289062 479.007812 L 318.207031 474.5 L 325.683594 475.082031 "/>
<path fill="none" stroke-width="5.5" stroke-linecap="butt" stroke-linejoin="miter" stroke="rgb(70.196078%, 70.196078%, 70.196078%)" stroke-opacity="1" stroke-miterlimit="10" d="M 149.363281 396.921875 C 151.667969 400.9375 155.132812 404.539062 159.621094 404.359375 "/>
<path fill-rule="nonzero" fill="rgb(70.196078%, 70.196078%, 70.196078%)" fill-opacity="1" d="M 166.75 404.070312 L 159.714844 406.675781 L 159.527344 402.042969 L 166.75 404.070312 "/>
<path fill="none" stroke-width="5.5" stroke-linecap="butt" stroke-linejoin="miter" stroke="rgb(70.196078%, 70.196078%, 70.196078%)" stroke-opacity="1" stroke-miterlimit="10" d="M 129.457031 391.964844 C 131.964844 395.601562 135.5625 398.800781 139.796875 398.222656 "/>
<path fill-rule="nonzero" fill="rgb(70.196078%, 70.196078%, 70.196078%)" fill-opacity="1" d="M 146.863281 397.261719 L 140.109375 400.519531 L 139.484375 395.925781 L 146.863281 397.261719 "/>
<path fill-rule="nonzero" fill="rgb(14.901961%, 14.901961%, 14.901961%)" fill-opacity="1" stroke-width="1" stroke-linecap="butt" stroke-linejoin="miter" stroke="rgb(14.901961%, 14.901961%, 14.901961%)" stroke-opacity="1" stroke-miterlimit="10" d="M 652.492188 52.5 L 654.992188 47.5 L 657.492188 52.5 Z M 652.492188 52.5 "/>
<path fill-rule="nonzero" fill="rgb(14.901961%, 14.901961%, 14.901961%)" fill-opacity="1" stroke-width="1" stroke-linecap="butt" stroke-linejoin="miter" stroke="rgb(14.901961%, 14.901961%, 14.901961%)" stroke-opacity="1" stroke-miterlimit="10" d="M 663.789062 122.460938 L 666.289062 117.460938 L 668.789062 122.460938 Z M 663.789062 122.460938 "/>
<path fill-rule="nonzero" fill="rgb(14.901961%, 14.901961%, 14.901961%)" fill-opacity="1" stroke-width="1" stroke-linecap="butt" stroke-linejoin="miter" stroke="rgb(14.901961%, 14.901961%, 14.901961%)" stroke-opacity="1" stroke-miterlimit="10" d="M 678.523438 54.988281 L 680.273438 51.488281 L 682.023438 54.988281 Z M 678.523438 54.988281 "/>
<path fill-rule="nonzero" fill="rgb(14.901961%, 14.901961%, 14.901961%)" fill-opacity="1" stroke-width="1" stroke-linecap="butt" stroke-linejoin="miter" stroke="rgb(14.901961%, 14.901961%, 14.901961%)" stroke-opacity="1" stroke-miterlimit="10" d="M 730.25 199.242188 L 732.5 194.742188 L 734.75 199.242188 Z M 730.25 199.242188 "/>
<path fill-rule="nonzero" fill="rgb(98.431373%, 60.392157%, 60%)" fill-opacity="1" stroke-width="1" stroke-linecap="butt" stroke-linejoin="miter" stroke="rgb(98.431373%, 60.392157%, 60%)" stroke-opacity="1" stroke-miterlimit="10" d="M 750.75 153.214844 C 750.75 154.214844 749.25 154.214844 749.25 153.214844 C 749.25 152.214844 750.75 152.214844 750.75 153.214844 "/>
<path fill-rule="nonzero" fill="rgb(12.156863%, 47.058824%, 70.588235%)" fill-opacity="1" stroke-width="1" stroke-linecap="butt" stroke-linejoin="miter" stroke="rgb(12.156863%, 47.058824%, 70.588235%)" stroke-opacity="1" stroke-miterlimit="10" d="M 733.75 690.410156 C 733.75 691.410156 732.25 691.410156 732.25 690.410156 C 732.25 689.410156 733.75 689.410156 733.75 690.410156 "/>
<path fill-rule="nonzero" fill="rgb(14.901961%, 14.901961%, 14.901961%)" fill-opacity="1" stroke-width="1" stroke-linecap="butt" stroke-linejoin="miter" stroke="rgb(14.901961%, 14.901961%, 14.901961%)" stroke-opacity="1" stroke-miterlimit="10" d="M 744.335938 751.75 L 746.085938 748.25 L 747.835938 751.75 Z M 744.335938 751.75 "/>
<path fill-rule="nonzero" fill="rgb(70.196078%, 70.196078%, 70.196078%)" fill-opacity="1" stroke-width="1" stroke-linecap="butt" stroke-linejoin="miter" stroke="rgb(70.196078%, 70.196078%, 70.196078%)" stroke-opacity="1" stroke-miterlimit="10" d="M 661.976562 375.171875 C 661.976562 378.507812 656.976562 378.507812 656.976562 375.171875 C 656.976562 371.839844 661.976562 371.839844 661.976562 375.171875 "/>
<path fill-rule="nonzero" fill="rgb(70.196078%, 70.196078%, 70.196078%)" fill-opacity="1" stroke-width="1" stroke-linecap="butt" stroke-linejoin="miter" stroke="rgb(70.196078%, 70.196078%, 70.196078%)" stroke-opacity="1" stroke-miterlimit="10" d="M 667.804688 206.355469 C 667.804688 209.6875 662.804688 209.6875 662.804688 206.355469 C 662.804688 203.023438 667.804688 203.023438 667.804688 206.355469 "/>
<path fill-rule="nonzero" fill="rgb(70.196078%, 70.196078%, 70.196078%)" fill-opacity="1" stroke-width="1" stroke-linecap="butt" stroke-linejoin="miter" stroke="rgb(70.196078%, 70.196078%, 70.196078%)" stroke-opacity="1" stroke-miterlimit="10" d="M 673.261719 291.835938 C 673.261719 295.171875 668.261719 295.171875 668.261719 291.835938 C 668.261719 288.503906 673.261719 288.503906 673.261719 291.835938 "/>
<path fill-rule="nonzero" fill="rgb(98.431373%, 60.392157%, 60%)" fill-opacity="1" stroke-width="1" stroke-linecap="butt" stroke-linejoin="miter" stroke="rgb(98.431373%, 60.392157%, 60%)" stroke-opacity="1" stroke-miterlimit="10" d="M 694.007812 272.386719 C 694.007812 273.386719 692.507812 273.386719 692.507812 272.386719 C 692.507812 271.386719 694.007812 271.386719 694.007812 272.386719 "/>
<path fill-rule="nonzero" fill="rgb(98.431373%, 60.392157%, 60%)" fill-opacity="1" stroke-width="1" stroke-linecap="butt" stroke-linejoin="miter" stroke="rgb(98.431373%, 60.392157%, 60%)" stroke-opacity="1" stroke-miterlimit="10" d="M 714.523438 238.074219 C 714.523438 239.074219 713.023438 239.074219 713.023438 238.074219 C 713.023438 237.074219 714.523438 237.074219 714.523438 238.074219 "/>
<path fill-rule="nonzero" fill="rgb(70.196078%, 70.196078%, 70.196078%)" fill-opacity="1" stroke-width="1" stroke-linecap="butt" stroke-linejoin="miter" stroke="rgb(70.196078%, 70.196078%, 70.196078%)" stroke-opacity="1" stroke-miterlimit="10" d="M 638.054688 382.769531 C 638.054688 386.101562 633.054688 386.101562 633.054688 382.769531 C 633.054688 379.433594 638.054688 379.433594 638.054688 382.769531 "/>
<path fill-rule="nonzero" fill="rgb(12.156863%, 47.058824%, 70.588235%)" fill-opacity="1" stroke-width="1" stroke-linecap="butt" stroke-linejoin="miter" stroke="rgb(12.156863%, 47.058824%, 70.588235%)" stroke-opacity="1" stroke-miterlimit="10" d="M 681.355469 612.945312 C 681.355469 613.945312 679.855469 613.945312 679.855469 612.945312 C 679.855469 611.945312 681.355469 611.945312 681.355469 612.945312 "/>
<path fill-rule="nonzero" fill="rgb(12.156863%, 47.058824%, 70.588235%)" fill-opacity="1" stroke-width="1" stroke-linecap="butt" stroke-linejoin="miter" stroke="rgb(12.156863%, 47.058824%, 70.588235%)" stroke-opacity="1" stroke-miterlimit="10" d="M 704.996094 569.15625 C 704.996094 570.15625 703.496094 570.15625 703.496094 569.15625 C 703.496094 568.15625 704.996094 568.15625 704.996094 569.15625 "/>
<path fill-rule="nonzero" fill="rgb(12.156863%, 47.058824%, 70.588235%)" fill-opacity="1" stroke-width="1" stroke-linecap="butt" stroke-linejoin="miter" stroke="rgb(12.156863%, 47.058824%, 70.588235%)" stroke-opacity="1" stroke-miterlimit="10" d="M 683.8125 533.828125 C 683.8125 535.492188 681.3125 535.492188 681.3125 533.828125 C 681.3125 532.160156 683.8125 532.160156 683.8125 533.828125 "/>
<path fill-rule="nonzero" fill="rgb(12.156863%, 47.058824%, 70.588235%)" fill-opacity="1" stroke-width="1" stroke-linecap="butt" stroke-linejoin="miter" stroke="rgb(12.156863%, 47.058824%, 70.588235%)" stroke-opacity="1" stroke-miterlimit="10" d="M 672.128906 454.917969 C 672.128906 455.917969 670.628906 455.917969 670.628906 454.917969 C 670.628906 453.917969 672.128906 453.917969 672.128906 454.917969 "/>
<path fill-rule="nonzero" fill="rgb(12.156863%, 47.058824%, 70.588235%)" fill-opacity="1" stroke-width="1" stroke-linecap="butt" stroke-linejoin="miter" stroke="rgb(12.156863%, 47.058824%, 70.588235%)" stroke-opacity="1" stroke-miterlimit="10" d="M 720.433594 628.925781 C 720.433594 629.925781 718.933594 629.925781 718.933594 628.925781 C 718.933594 627.925781 720.433594 627.925781 720.433594 628.925781 "/>
<path fill-rule="nonzero" fill="rgb(70.196078%, 70.196078%, 70.196078%)" fill-opacity="1" stroke-width="1" stroke-linecap="butt" stroke-linejoin="miter" stroke="rgb(70.196078%, 70.196078%, 70.196078%)" stroke-opacity="1" stroke-miterlimit="10" d="M 552.339844 421.488281 C 552.339844 424.820312 547.339844 424.820312 547.339844 421.488281 C 547.339844 418.15625 552.339844 418.15625 552.339844 421.488281 "/>
<path fill-rule="nonzero" fill="rgb(70.196078%, 70.196078%, 70.196078%)" fill-opacity="1" stroke-width="1" stroke-linecap="butt" stroke-linejoin="miter" stroke="rgb(70.196078%, 70.196078%, 70.196078%)" stroke-opacity="1" stroke-miterlimit="10" d="M 615.628906 391.632812 C 615.628906 394.96875 610.628906 394.96875 610.628906 391.632812 C 610.628906 388.300781 615.628906 388.300781 615.628906 391.632812 "/>
<path fill-rule="nonzero" fill="rgb(12.156863%, 47.058824%, 70.588235%)" fill-opacity="1" stroke-width="1" stroke-linecap="butt" stroke-linejoin="miter" stroke="rgb(12.156863%, 47.058824%, 70.588235%)" stroke-opacity="1" stroke-miterlimit="10" d="M 667.789062 593.757812 C 667.789062 594.757812 666.289062 594.757812 666.289062 593.757812 C 666.289062 592.757812 667.789062 592.757812 667.789062 593.757812 "/>
<path fill-rule="nonzero" fill="rgb(70.196078%, 70.196078%, 70.196078%)" fill-opacity="1" stroke-width="1" stroke-linecap="butt" stroke-linejoin="miter" stroke="rgb(70.196078%, 70.196078%, 70.196078%)" stroke-opacity="1" stroke-miterlimit="10" d="M 390.84375 478.171875 C 390.84375 481.507812 385.84375 481.507812 385.84375 478.171875 C 385.84375 474.839844 390.84375 474.839844 390.84375 478.171875 "/>
<path fill-rule="nonzero" fill="rgb(70.196078%, 70.196078%, 70.196078%)" fill-opacity="1" stroke-width="1" stroke-linecap="butt" stroke-linejoin="miter" stroke="rgb(70.196078%, 70.196078%, 70.196078%)" stroke-opacity="1" stroke-miterlimit="10" d="M 594.066406 401.757812 C 594.066406 405.089844 589.066406 405.089844 589.066406 401.757812 C 589.066406 398.421875 594.066406 398.421875 594.066406 401.757812 "/>
<path fill-rule="nonzero" fill="rgb(70.196078%, 70.196078%, 70.196078%)" fill-opacity="1" stroke-width="1" stroke-linecap="butt" stroke-linejoin="miter" stroke="rgb(70.196078%, 70.196078%, 70.196078%)" stroke-opacity="1" stroke-miterlimit="10" d="M 531.878906 431.644531 C 531.878906 434.976562 526.878906 434.976562 526.878906 431.644531 C 526.878906 428.308594 531.878906 428.308594 531.878906 431.644531 "/>
<path fill-rule="nonzero" fill="rgb(70.196078%, 70.196078%, 70.196078%)" fill-opacity="1" stroke-width="1" stroke-linecap="butt" stroke-linejoin="miter" stroke="rgb(70.196078%, 70.196078%, 70.196078%)" stroke-opacity="1" stroke-miterlimit="10" d="M 511.566406 441.359375 C 511.566406 444.691406 506.566406 444.691406 506.566406 441.359375 C 506.566406 438.027344 511.566406 438.027344 511.566406 441.359375 "/>
<path fill-rule="nonzero" fill="rgb(70.196078%, 70.196078%, 70.196078%)" fill-opacity="1" stroke-width="1" stroke-linecap="butt" stroke-linejoin="miter" stroke="rgb(70.196078%, 70.196078%, 70.196078%)" stroke-opacity="1" stroke-miterlimit="10" d="M 491.359375 450.78125 C 491.359375 454.117188 486.359375 454.117188 486.359375 450.78125 C 486.359375 447.449219 491.359375 447.449219 491.359375 450.78125 "/>
<path fill-rule="nonzero" fill="rgb(70.196078%, 70.196078%, 70.196078%)" fill-opacity="1" stroke-width="1" stroke-linecap="butt" stroke-linejoin="miter" stroke="rgb(70.196078%, 70.196078%, 70.196078%)" stroke-opacity="1" stroke-miterlimit="10" d="M 573.027344 411.101562 C 573.027344 414.433594 568.027344 414.433594 568.027344 411.101562 C 568.027344 407.769531 573.027344 407.769531 573.027344 411.101562 "/>
<path fill-rule="nonzero" fill="rgb(70.196078%, 70.196078%, 70.196078%)" fill-opacity="1" stroke-width="1" stroke-linecap="butt" stroke-linejoin="miter" stroke="rgb(70.196078%, 70.196078%, 70.196078%)" stroke-opacity="1" stroke-miterlimit="10" d="M 370.761719 478.113281 C 370.761719 481.445312 365.761719 481.445312 365.761719 478.113281 C 365.761719 474.78125 370.761719 474.78125 370.761719 478.113281 "/>
<path fill-rule="nonzero" fill="rgb(70.196078%, 70.196078%, 70.196078%)" fill-opacity="1" stroke-width="1" stroke-linecap="butt" stroke-linejoin="miter" stroke="rgb(70.196078%, 70.196078%, 70.196078%)" stroke-opacity="1" stroke-miterlimit="10" d="M 270.648438 459.6875 C 270.648438 463.019531 265.648438 463.019531 265.648438 459.6875 C 265.648438 456.355469 270.648438 456.355469 270.648438 459.6875 "/>
<path fill-rule="nonzero" fill="rgb(70.196078%, 70.196078%, 70.196078%)" fill-opacity="1" stroke-width="1" stroke-linecap="butt" stroke-linejoin="miter" stroke="rgb(70.196078%, 70.196078%, 70.196078%)" stroke-opacity="1" stroke-miterlimit="10" d="M 471.21875 459.769531 C 471.21875 463.101562 466.21875 463.101562 466.21875 459.769531 C 466.21875 456.433594 471.21875 456.433594 471.21875 459.769531 "/>
<path fill-rule="nonzero" fill="rgb(70.196078%, 70.196078%, 70.196078%)" fill-opacity="1" stroke-width="1" stroke-linecap="butt" stroke-linejoin="miter" stroke="rgb(70.196078%, 70.196078%, 70.196078%)" stroke-opacity="1" stroke-miterlimit="10" d="M 451.125 468.121094 C 451.125 471.457031 446.125 471.457031 446.125 468.121094 C 446.125 464.789062 451.125 464.789062 451.125 468.121094 "/>
<path fill-rule="nonzero" fill="rgb(70.196078%, 70.196078%, 70.196078%)" fill-opacity="1" stroke-width="1" stroke-linecap="butt" stroke-linejoin="miter" stroke="rgb(70.196078%, 70.196078%, 70.196078%)" stroke-opacity="1" stroke-miterlimit="10" d="M 431.066406 476.152344 C 431.066406 479.488281 426.066406 479.488281 426.066406 476.152344 C 426.066406 472.820312 431.066406 472.820312 431.066406 476.152344 "/>
<path fill-rule="nonzero" fill="rgb(70.196078%, 70.196078%, 70.196078%)" fill-opacity="1" stroke-width="1" stroke-linecap="butt" stroke-linejoin="miter" stroke="rgb(70.196078%, 70.196078%, 70.196078%)" stroke-opacity="1" stroke-miterlimit="10" d="M 250.703125 453.015625 C 250.703125 456.347656 245.703125 456.347656 245.703125 453.015625 C 245.703125 449.683594 250.703125 449.683594 250.703125 453.015625 "/>
<path fill-rule="nonzero" fill="rgb(70.196078%, 70.196078%, 70.196078%)" fill-opacity="1" stroke-width="1" stroke-linecap="butt" stroke-linejoin="miter" stroke="rgb(70.196078%, 70.196078%, 70.196078%)" stroke-opacity="1" stroke-miterlimit="10" d="M 112.023438 385.632812 C 112.023438 388.964844 107.023438 388.964844 107.023438 385.632812 C 107.023438 382.300781 112.023438 382.300781 112.023438 385.632812 "/>
<path fill-rule="nonzero" fill="rgb(70.196078%, 70.196078%, 70.196078%)" fill-opacity="1" stroke-width="1" stroke-linecap="butt" stroke-linejoin="miter" stroke="rgb(70.196078%, 70.196078%, 70.196078%)" stroke-opacity="1" stroke-miterlimit="10" d="M 290.589844 466.863281 C 290.589844 470.199219 285.589844 470.199219 285.589844 466.863281 C 285.589844 463.53125 290.589844 463.53125 290.589844 466.863281 "/>
<path fill-rule="nonzero" fill="rgb(70.196078%, 70.196078%, 70.196078%)" fill-opacity="1" stroke-width="1" stroke-linecap="butt" stroke-linejoin="miter" stroke="rgb(70.196078%, 70.196078%, 70.196078%)" stroke-opacity="1" stroke-miterlimit="10" d="M 410.941406 477.328125 C 410.941406 480.664062 405.941406 480.664062 405.941406 477.328125 C 405.941406 473.996094 410.941406 473.996094 410.941406 477.328125 "/>
<path fill-rule="nonzero" fill="rgb(70.196078%, 70.196078%, 70.196078%)" fill-opacity="1" stroke-width="1" stroke-linecap="butt" stroke-linejoin="miter" stroke="rgb(70.196078%, 70.196078%, 70.196078%)" stroke-opacity="1" stroke-miterlimit="10" d="M 350.691406 476.882812 C 350.691406 480.21875 345.691406 480.21875 345.691406 476.882812 C 345.691406 473.550781 350.691406 473.550781 350.691406 476.882812 "/>
<path fill-rule="nonzero" fill="rgb(70.196078%, 70.196078%, 70.196078%)" fill-opacity="1" stroke-width="1" stroke-linecap="butt" stroke-linejoin="miter" stroke="rgb(70.196078%, 70.196078%, 70.196078%)" stroke-opacity="1" stroke-miterlimit="10" d="M 330.636719 474.492188 C 330.636719 477.828125 325.636719 477.828125 325.636719 474.492188 C 325.636719 471.160156 330.636719 471.160156 330.636719 474.492188 "/>
<path fill-rule="nonzero" fill="rgb(70.196078%, 70.196078%, 70.196078%)" fill-opacity="1" stroke-width="1" stroke-linecap="butt" stroke-linejoin="miter" stroke="rgb(70.196078%, 70.196078%, 70.196078%)" stroke-opacity="1" stroke-miterlimit="10" d="M 230.84375 444.214844 C 230.84375 447.546875 225.84375 447.546875 225.84375 444.214844 C 225.84375 440.882812 230.84375 440.882812 230.84375 444.214844 "/>
<path fill-rule="nonzero" fill="rgb(70.196078%, 70.196078%, 70.196078%)" fill-opacity="1" stroke-width="1" stroke-linecap="butt" stroke-linejoin="miter" stroke="rgb(70.196078%, 70.196078%, 70.196078%)" stroke-opacity="1" stroke-miterlimit="10" d="M 211.039062 433.210938 C 211.039062 436.542969 206.039062 436.542969 206.039062 433.210938 C 206.039062 429.875 211.039062 429.875 211.039062 433.210938 "/>
<path fill-rule="nonzero" fill="rgb(70.196078%, 70.196078%, 70.196078%)" fill-opacity="1" stroke-width="1" stroke-linecap="butt" stroke-linejoin="miter" stroke="rgb(70.196078%, 70.196078%, 70.196078%)" stroke-opacity="1" stroke-miterlimit="10" d="M 191.234375 421.929688 C 191.234375 425.265625 186.234375 425.265625 186.234375 421.929688 C 186.234375 418.597656 191.234375 418.597656 191.234375 421.929688 "/>
<path fill-rule="nonzero" fill="rgb(70.196078%, 70.196078%, 70.196078%)" fill-opacity="1" stroke-width="1" stroke-linecap="butt" stroke-linejoin="miter" stroke="rgb(70.196078%, 70.196078%, 70.196078%)" stroke-opacity="1" stroke-miterlimit="10" d="M 91.992188 386.109375 C 91.992188 389.441406 86.992188 389.441406 86.992188 386.109375 C 86.992188 382.777344 91.992188 382.777344 91.992188 386.109375 "/>
<path fill-rule="nonzero" fill="rgb(70.196078%, 70.196078%, 70.196078%)" fill-opacity="1" stroke-width="1" stroke-linecap="butt" stroke-linejoin="miter" stroke="rgb(70.196078%, 70.196078%, 70.196078%)" stroke-opacity="1" stroke-miterlimit="10" d="M 171.769531 403.96875 C 171.769531 407.304688 166.769531 407.304688 166.769531 403.96875 C 166.769531 400.636719 171.769531 400.636719 171.769531 403.96875 "/>
<path fill-rule="nonzero" fill="rgb(70.196078%, 70.196078%, 70.196078%)" fill-opacity="1" stroke-width="1" stroke-linecap="butt" stroke-linejoin="miter" stroke="rgb(70.196078%, 70.196078%, 70.196078%)" stroke-opacity="1" stroke-miterlimit="10" d="M 72.414062 368.851562 C 72.414062 372.1875 67.414062 372.1875 67.414062 368.851562 C 67.414062 365.519531 72.414062 365.519531 72.414062 368.851562 "/>
<path fill-rule="nonzero" fill="rgb(100%, 84.313725%, 0%)" fill-opacity="1" stroke-width="1" stroke-linecap="butt" stroke-linejoin="miter" stroke="rgb(100%, 84.313725%, 0%)" stroke-opacity="1" stroke-miterlimit="10" d="M 47.5 366.949219 L 52.5 366.949219 L 52.5 371.949219 L 47.5 371.949219 Z M 47.5 366.949219 "/>
<path fill-rule="nonzero" fill="rgb(70.196078%, 70.196078%, 70.196078%)" fill-opacity="1" stroke-width="1" stroke-linecap="butt" stroke-linejoin="miter" stroke="rgb(70.196078%, 70.196078%, 70.196078%)" stroke-opacity="1" stroke-miterlimit="10" d="M 310.582031 471.617188 C 310.582031 474.949219 305.582031 474.949219 305.582031 471.617188 C 305.582031 468.285156 310.582031 468.285156 310.582031 471.617188 "/>
<path fill-rule="nonzero" fill="rgb(70.196078%, 70.196078%, 70.196078%)" fill-opacity="1" stroke-width="1" stroke-linecap="butt" stroke-linejoin="miter" stroke="rgb(70.196078%, 70.196078%, 70.196078%)" stroke-opacity="1" stroke-miterlimit="10" d="M 151.863281 396.921875 C 151.863281 400.253906 146.863281 400.253906 146.863281 396.921875 C 146.863281 393.585938 151.863281 393.585938 151.863281 396.921875 "/>
<path fill-rule="nonzero" fill="rgb(70.196078%, 70.196078%, 70.196078%)" fill-opacity="1" stroke-width="1" stroke-linecap="butt" stroke-linejoin="miter" stroke="rgb(70.196078%, 70.196078%, 70.196078%)" stroke-opacity="1" stroke-miterlimit="10" d="M 131.957031 391.964844 C 131.957031 395.300781 126.957031 395.300781 126.957031 391.964844 C 126.957031 388.632812 131.957031 388.632812 131.957031 391.964844 "/>
</svg>
