<?xml version="1.0" encoding="UTF-8"?>
<svg xmlns="http://www.w3.org/2000/svg" xmlns:xlink="http://www.w3.org/1999/xlink" width="800" height="800" viewBox="0 0 800 800">
<rect x="-80" y="-80" width="960" height="960" fill="rgb(100%, 100%, 100%)" fill-opacity="1"/>
<path fill="none" stroke-width="2.5" stroke-linecap="butt" stroke-linejoin="miter" stroke="rgb(70.196078%, 70.196078%, 70.196078%)" stroke-opacity="1" stroke-miterlimit="10" d="M 583.007812 331.015625 C 598.085938 322.773438 608.699219 310.457031 611.363281 293.523438 "/>
<path fill-rule="nonzero" fill="rgb(70.196078%, 70.196078%, 70.196078%)" fill-opacity="1" d="M 612.472656 286.476562 L 613.652344 293.882812 L 609.074219 293.164062 L 612.472656 286.476562 "/>
<path fill="none" stroke-width="2.5" stroke-linecap="butt" stroke-linejoin="miter" stroke="rgb(70.196078%, 70.196078%, 70.196078%)" stroke-opacity="1" stroke-miterlimit="10" d="M 326.609375 361.214844 C 317.175781 352.957031 305.984375 348.476562 293.804688 351.203125 "/>
<path fill-rule="nonzero" fill="rgb(70.196078%, 70.196078%, 70.196078%)" fill-opacity="1" d="M 286.847656 352.765625 L 293.300781 348.945312 L 294.3125 353.464844 L 286.847656 352.765625 "/>
<path fill="none" stroke-width="2.5" stroke-linecap="butt" stroke-linejoin="miter" stroke="rgb(70.196078%, 70.196078%, 70.196078%)" stroke-opacity="1" stroke-miterlimit="10" d="M 206.265625 341.871094 C 197.566406 333.445312 186.976562 328.539062 175.101562 330.617188 "/>
<path fill-rule="nonzero" fill="rgb(70.196078%, 70.196078%, 70.196078%)" fill-opacity="1" d="M 168.074219 331.847656 L 174.703125 328.335938 L 175.5 332.898438 L 168.074219 331.847656 "/>
<path fill="none" stroke-width="2.5" stroke-linecap="butt" stroke-linejoin="miter" stroke="rgb(70.196078%, 70.196078%, 70.196078%)" stroke-opacity="1" stroke-miterlimit="10" d="M 163.246094 332.691406 C 154.609375 324.203125 144.054688 319.214844 132.167969 321.207031 "/>
<path fill-rule="nonzero" fill="rgb(70.196078%, 70.196078%, 70.196078%)" fill-opacity="1" d="M 125.132812 322.382812 L 131.785156 318.921875 L 132.550781 323.492188 L 125.132812 322.382812 "/>
<path fill="none" stroke-width="2.5" stroke-linecap="butt" stroke-linejoin="miter" stroke="rgb(70.196078%, 70.196078%, 70.196078%)" stroke-opacity="1" stroke-miterlimit="10" d="M 641.605469 233.488281 C 655.511719 225.722656 665.335938 214.226562 667.582031 198.503906 "/>
<path fill-rule="nonzero" fill="rgb(70.196078%, 70.196078%, 70.196078%)" fill-opacity="1" d="M 668.589844 191.441406 L 669.878906 198.832031 L 665.289062 198.175781 L 668.589844 191.441406 "/>
<path fill="none" stroke-width="1.5" stroke-linecap="butt" stroke-linejoin="miter" stroke="rgb(99.215686%, 74.901961%, 43.529412%)" stroke-opacity="1" stroke-miterlimit="10" d="M 410.140625 278.582031 C 399.484375 296.488281 396.210938 315.792969 403.65625 335.21875 "/>
<path fill-rule="nonzero" fill="rgb(99.215686%, 74.901961%, 43.529412%)" fill-opacity="1" d="M 406.210938 341.878906 L 401.492188 336.046875 L 405.820312 334.390625 L 406.210938 341.878906 "/>
<path fill="none" stroke-width="1.5" stroke-linecap="butt" stroke-linejoin="miter" stroke="rgb(12.156863%, 47.058824%, 70.588235%)" stroke-opacity="1" stroke-miterlimit="10" d="M 629.324219 610.179688 C 627.527344 627.410156 631.679688 643.253906 644.191406 655.179688 "/>
<path fill-rule="nonzero" fill="rgb(12.156863%, 47.058824%, 70.588235%)" fill-opacity="1" d="M 649.355469 660.101562 L 642.59375 656.855469 L 645.789062 653.5 L 649.355469 660.101562 "/>
<path fill="none" stroke-width="1.5" stroke-linecap="butt" stroke-linejoin="miter" stroke="rgb(99.215686%, 74.901961%, 43.529412%)" stroke-opacity="1" stroke-miterlimit="10" d="M 81.304688 356.214844 C 80.394531 340.367188 74.378906 326.53125 61.242188 317.699219 "/>
<path fill-rule="nonzero" fill="rgb(99.215686%, 74.901961%, 43.529412%)" fill-opacity="1" d="M 55.324219 313.71875 L 62.539062 315.777344 L 59.949219 319.625 L 55.324219 313.71875 "/>
<path fill="none" stroke-width="2.5" stroke-linecap="butt" stroke-linejoin="miter" stroke="rgb(70.196078%, 70.196078%, 70.196078%)" stroke-opacity="1" stroke-miterlimit="10" d="M 503.40625 307.296875 C 493.570312 322.613281 490 339.425781 496.0625 356.550781 "/>
<path fill-rule="nonzero" fill="rgb(70.196078%, 70.196078%, 70.196078%)" fill-opacity="1" d="M 498.441406 363.273438 L 493.878906 357.324219 L 498.246094 355.777344 L 498.441406 363.273438 "/>
<path fill="none" stroke-width="2.5" stroke-linecap="butt" stroke-linejoin="miter" stroke="rgb(70.196078%, 70.196078%, 70.196078%)" stroke-opacity="1" stroke-miterlimit="10" d="M 723.515625 95.101562 C 736.53125 88.050781 745.898438 77.496094 748.074219 62.902344 "/>
<path fill-rule="nonzero" fill="rgb(70.196078%, 70.196078%, 70.196078%)" fill-opacity="1" d="M 749.128906 55.847656 L 750.367188 63.246094 L 745.785156 62.5625 L 749.128906 55.847656 "/>
<path fill="none" stroke-width="1.5" stroke-linecap="butt" stroke-linejoin="miter" stroke="rgb(12.156863%, 47.058824%, 70.588235%)" stroke-opacity="1" stroke-miterlimit="10" d="M 587.027344 501.921875 C 584.5 519.984375 588.34375 536.738281 600.996094 549.820312 "/>
<path fill-rule="nonzero" fill="rgb(12.156863%, 47.058824%, 70.588235%)" fill-opacity="1" d="M 605.957031 554.949219 L 599.332031 551.429688 L 602.664062 548.210938 L 605.957031 554.949219 "/>
<path fill="none" stroke-width="1.5" stroke-linecap="butt" stroke-linejoin="miter" stroke="rgb(12.156863%, 47.058824%, 70.588235%)" stroke-opacity="1" stroke-miterlimit="10" d="M 652.480469 663.082031 C 641.828125 680.265625 638.339844 698.929688 645.203125 717.917969 "/>
<path fill-rule="nonzero" fill="rgb(12.156863%, 47.058824%, 70.588235%)" fill-opacity="1" d="M 647.628906 724.625 L 643.023438 718.703125 L 647.382812 717.128906 L 647.628906 724.625 "/>
<path fill="none" stroke-width="1.5" stroke-linecap="butt" stroke-linejoin="miter" stroke="rgb(12.156863%, 47.058824%, 70.588235%)" stroke-opacity="1" stroke-miterlimit="10" d="M 690.382812 750 C 701.039062 733.109375 704.648438 714.699219 698.007812 695.898438 "/>
<path fill-rule="nonzero" fill="rgb(12.156863%, 47.058824%, 70.588235%)" fill-opacity="1" d="M 695.628906 689.171875 L 700.191406 695.125 L 695.820312 696.667969 L 695.628906 689.171875 "/>
<path fill="none" stroke-width="1.5" stroke-linecap="butt" stroke-linejoin="miter" stroke="rgb(99.215686%, 74.901961%, 43.529412%)" stroke-opacity="1" stroke-miterlimit="10" d="M 241.496094 383.507812 C 238.839844 367.949219 231.351562 354.953125 217.394531 347.671875 "/>
<path fill-rule="nonzero" fill="rgb(99.215686%, 74.901961%, 43.529412%)" fill-opacity="1" d="M 211.070312 344.375 L 218.464844 345.617188 L 216.324219 349.726562 L 211.070312 344.375 "/>
<path fill="none" stroke-width="2.5" stroke-linecap="butt" stroke-linejoin="miter" stroke="rgb(70.196078%, 70.196078%, 70.196078%)" stroke-opacity="1" stroke-miterlimit="10" d="M 669.289062 186.574219 C 682.921875 179.066406 692.613281 167.890625 694.875 152.535156 "/>
<path fill-rule="nonzero" fill="rgb(70.196078%, 70.196078%, 70.196078%)" fill-opacity="1" d="M 695.914062 145.476562 L 697.167969 152.871094 L 692.582031 152.199219 L 695.914062 145.476562 "/>
<path fill="none" stroke-width="1.5" stroke-linecap="butt" stroke-linejoin="miter" stroke="rgb(30.196078%, 68.627451%, 29.019608%)" stroke-opacity="1" stroke-miterlimit="10" d="M 88.652344 277.144531 C 74.722656 279.304688 62.882812 285.75 56.324219 298.167969 "/>
<path fill-rule="nonzero" fill="rgb(30.196078%, 68.627451%, 29.019608%)" fill-opacity="1" d="M 52.992188 304.476562 L 54.273438 297.085938 L 58.375 299.253906 L 52.992188 304.476562 "/>
<path fill="none" stroke-width="2.5" stroke-linecap="butt" stroke-linejoin="miter" stroke="rgb(70.196078%, 70.196078%, 70.196078%)" stroke-opacity="1" stroke-miterlimit="10" d="M 696.628906 140.613281 C 710.054688 133.191406 719.609375 122.164062 721.792969 107.027344 "/>
<path fill-rule="nonzero" fill="rgb(70.196078%, 70.196078%, 70.196078%)" fill-opacity="1" d="M 722.8125 99.964844 L 724.085938 107.355469 L 719.5 106.695312 L 722.8125 99.964844 "/>
<path fill="none" stroke-width="1.5" stroke-linecap="butt" stroke-linejoin="miter" stroke="rgb(12.156863%, 47.058824%, 70.588235%)" stroke-opacity="1" stroke-miterlimit="10" d="M 648.519531 727.089844 C 655.945312 739.238281 666.554688 747.683594 680.679688 749.058594 "/>
<path fill-rule="nonzero" fill="rgb(12.156863%, 47.058824%, 70.588235%)" fill-opacity="1" d="M 687.777344 749.746094 L 680.457031 751.363281 L 680.902344 746.75 L 687.777344 749.746094 "/>
<path fill="none" stroke-width="1.5" stroke-linecap="butt" stroke-linejoin="miter" stroke="rgb(99.215686%, 74.901961%, 43.529412%)" stroke-opacity="1" stroke-miterlimit="10" d="M 120.296875 323.191406 C 105.105469 326.097656 92.546875 333.691406 85.660156 347.492188 "/>
<path fill-rule="nonzero" fill="rgb(99.215686%, 74.901961%, 43.529412%)" fill-opacity="1" d="M 82.472656 353.875 L 83.585938 346.457031 L 87.730469 348.527344 L 82.472656 353.875 "/>
<path fill="none" stroke-width="1.5" stroke-linecap="butt" stroke-linejoin="miter" stroke="rgb(30.196078%, 68.627451%, 29.019608%)" stroke-opacity="1" stroke-miterlimit="10" d="M 120.296875 323.191406 C 118.625 306.066406 111.429688 291.492188 96.902344 282.34375 "/>
<path fill-rule="nonzero" fill="rgb(30.196078%, 68.627451%, 29.019608%)" fill-opacity="1" d="M 90.867188 278.542969 L 98.136719 280.382812 L 95.667969 284.304688 L 90.867188 278.542969 "/>
<path fill="none" stroke-width="1.5" stroke-linecap="butt" stroke-linejoin="miter" stroke="rgb(30.196078%, 68.627451%, 29.019608%)" stroke-opacity="1" stroke-miterlimit="10" d="M 246.53125 311.863281 C 232.386719 313.226562 220.121094 319.039062 212.773438 331.144531 "/>
<path fill-rule="nonzero" fill="rgb(30.196078%, 68.627451%, 29.019608%)" fill-opacity="1" d="M 209.074219 337.242188 L 210.792969 329.945312 L 214.753906 332.347656 L 209.074219 337.242188 "/>
<path fill="none" stroke-width="1.5" stroke-linecap="butt" stroke-linejoin="miter" stroke="rgb(12.156863%, 47.058824%, 70.588235%)" stroke-opacity="1" stroke-miterlimit="10" d="M 694.757812 686.699219 C 687.792969 674.636719 677.628906 666.058594 663.84375 664.425781 "/>
<path fill-rule="nonzero" fill="rgb(12.156863%, 47.058824%, 70.588235%)" fill-opacity="1" d="M 656.761719 663.585938 L 664.117188 662.125 L 663.574219 666.726562 L 656.761719 663.585938 "/>
<path fill="none" stroke-width="1.5" stroke-linecap="butt" stroke-linejoin="miter" stroke="rgb(12.156863%, 47.058824%, 70.588235%)" stroke-opacity="1" stroke-miterlimit="10" d="M 607.777344 556.832031 C 605.675781 574.519531 609.75 590.820312 622.386719 603.320312 "/>
<path fill-rule="nonzero" fill="rgb(12.156863%, 47.058824%, 70.588235%)" fill-opacity="1" d="M 627.460938 608.335938 L 620.757812 604.96875 L 624.019531 601.671875 L 627.460938 608.335938 "/>
<path fill="none" stroke-width="1.5" stroke-linecap="butt" stroke-linejoin="miter" stroke="rgb(12.156863%, 47.058824%, 70.588235%)" stroke-opacity="1" stroke-miterlimit="10" d="M 567.070312 444.503906 C 563.988281 463.253906 567.609375 480.761719 580.433594 494.734375 "/>
<path fill-rule="nonzero" fill="rgb(12.156863%, 47.058824%, 70.588235%)" fill-opacity="1" d="M 585.257812 499.992188 L 578.726562 496.304688 L 582.140625 493.167969 L 585.257812 499.992188 "/>
<path fill="none" stroke-width="1.5" stroke-linecap="butt" stroke-linejoin="miter" stroke="rgb(99.215686%, 74.901961%, 43.529412%)" stroke-opacity="1" stroke-miterlimit="10" d="M 282.058594 353.835938 C 267.003906 355.589844 254.164062 362.109375 246.464844 375.117188 "/>
<path fill-rule="nonzero" fill="rgb(99.215686%, 74.901961%, 43.529412%)" fill-opacity="1" d="M 242.832031 381.257812 L 244.46875 373.9375 L 248.457031 376.300781 L 242.832031 381.257812 "/>
<path fill="none" stroke-width="1.5" stroke-linecap="butt" stroke-linejoin="miter" stroke="rgb(30.196078%, 68.627451%, 29.019608%)" stroke-opacity="1" stroke-miterlimit="10" d="M 282.058594 353.835938 C 278.769531 337.273438 270.34375 323.71875 255.261719 316.210938 "/>
<path fill-rule="nonzero" fill="rgb(30.196078%, 68.627451%, 29.019608%)" fill-opacity="1" d="M 248.875 313.03125 L 256.292969 314.132812 L 254.226562 318.285156 L 248.875 313.03125 "/>
<path fill="none" stroke-width="2.5" stroke-linecap="butt" stroke-linejoin="miter" stroke="rgb(70.196078%, 70.196078%, 70.196078%)" stroke-opacity="1" stroke-miterlimit="10" d="M 548.769531 381.914062 C 565.253906 373.671875 577.035156 360.878906 580.644531 342.839844 "/>
<path fill-rule="nonzero" fill="rgb(70.196078%, 70.196078%, 70.196078%)" fill-opacity="1" d="M 582.042969 335.847656 L 582.917969 343.296875 L 578.371094 342.386719 L 582.042969 335.847656 "/>
<path fill="none" stroke-width="1.5" stroke-linecap="butt" stroke-linejoin="miter" stroke="rgb(12.156863%, 47.058824%, 70.588235%)" stroke-opacity="1" stroke-miterlimit="10" d="M 548.769531 381.914062 C 544.527344 402.085938 547.679688 421.171875 560.835938 437.003906 "/>
<path fill-rule="nonzero" fill="rgb(12.156863%, 47.058824%, 70.588235%)" fill-opacity="1" d="M 565.394531 442.488281 L 559.050781 438.484375 L 562.617188 435.519531 L 565.394531 442.488281 "/>
<path fill="none" stroke-width="1.5" stroke-linecap="butt" stroke-linejoin="miter" stroke="rgb(99.215686%, 74.901961%, 43.529412%)" stroke-opacity="1" stroke-miterlimit="10" d="M 365.042969 328.628906 C 350.949219 330.894531 339.03125 337.503906 332.429688 350.101562 "/>
<path fill-rule="nonzero" fill="rgb(99.215686%, 74.901961%, 43.529412%)" fill-opacity="1" d="M 329.121094 356.421875 L 330.378906 349.027344 L 334.484375 351.175781 L 329.121094 356.421875 "/>
<path fill="none" stroke-width="1.5" stroke-linecap="butt" stroke-linejoin="miter" stroke="rgb(99.215686%, 74.901961%, 43.529412%)" stroke-opacity="1" stroke-miterlimit="10" d="M 408.15625 346.953125 C 399.785156 335.835938 388.660156 328.59375 374.792969 328.613281 "/>
<path fill-rule="nonzero" fill="rgb(99.215686%, 74.901961%, 43.529412%)" fill-opacity="1" d="M 367.660156 328.625 L 374.789062 326.296875 L 374.792969 330.933594 L 367.660156 328.625 "/>
<path fill="none" stroke-width="1.5" stroke-linecap="butt" stroke-linejoin="miter" stroke="rgb(30.196078%, 68.627451%, 29.019608%)" stroke-opacity="1" stroke-miterlimit="10" d="M 408.15625 346.953125 C 391.652344 351.738281 378.671875 361.472656 372.359375 377.410156 "/>
<path fill-rule="nonzero" fill="rgb(30.196078%, 68.627451%, 29.019608%)" fill-opacity="1" d="M 369.734375 384.042969 L 370.203125 376.558594 L 374.515625 378.265625 L 369.734375 384.042969 "/>
<path fill="none" stroke-width="2.5" stroke-linecap="butt" stroke-linejoin="miter" stroke="rgb(70.196078%, 70.196078%, 70.196078%)" stroke-opacity="1" stroke-miterlimit="10" d="M 613.238281 281.613281 C 627.558594 273.550781 637.617188 261.652344 639.917969 245.421875 "/>
<path fill-rule="nonzero" fill="rgb(70.196078%, 70.196078%, 70.196078%)" fill-opacity="1" d="M 640.914062 238.359375 L 642.210938 245.746094 L 637.621094 245.09375 L 640.914062 238.359375 "/>
<path fill="none" stroke-width="3.5" stroke-linecap="butt" stroke-linejoin="miter" stroke="rgb(70.196078%, 70.196078%, 70.196078%)" stroke-opacity="1" stroke-miterlimit="10" d="M 500.253906 368.390625 C 510.199219 378.847656 522.519531 384.992188 536.804688 383.316406 "/>
<path fill-rule="nonzero" fill="rgb(70.196078%, 70.196078%, 70.196078%)" fill-opacity="1" d="M 543.890625 382.488281 L 537.074219 385.621094 L 536.535156 381.015625 L 543.890625 382.488281 "/>
<path fill="none" stroke-width="1.5" stroke-linecap="butt" stroke-linejoin="miter" stroke="rgb(30.196078%, 68.627451%, 29.019608%)" stroke-opacity="1" stroke-miterlimit="10" d="M 452.726562 368.925781 C 445.199219 357.097656 434.597656 348.902344 420.664062 347.875 "/>
<path fill-rule="nonzero" fill="rgb(30.196078%, 68.627451%, 29.019608%)" fill-opacity="1" d="M 413.550781 347.351562 L 420.835938 345.5625 L 420.492188 350.1875 L 413.550781 347.351562 "/>
<path fill="none" stroke-width="1.5" stroke-linecap="butt" stroke-linejoin="miter" stroke="rgb(12.156863%, 47.058824%, 70.588235%)" stroke-opacity="1" stroke-miterlimit="10" d="M 452.726562 368.925781 C 464.066406 375.742188 476.503906 378.261719 488.675781 373.203125 "/>
<path fill-rule="nonzero" fill="rgb(12.156863%, 47.058824%, 70.588235%)" fill-opacity="1" d="M 495.261719 370.464844 L 489.5625 375.34375 L 487.785156 371.0625 L 495.261719 370.464844 "/>
<path fill="none" stroke-width="1.5" stroke-linecap="butt" stroke-linejoin="miter" stroke="rgb(30.196078%, 68.627451%, 29.019608%)" stroke-opacity="1" stroke-miterlimit="10" d="M 368.769531 386.480469 C 362.34375 374.242188 352.605469 365.300781 339 363.160156 "/>
<path fill-rule="nonzero" fill="rgb(30.196078%, 68.627451%, 29.019608%)" fill-opacity="1" d="M 331.953125 362.054688 L 339.359375 360.871094 L 338.640625 365.449219 L 331.953125 362.054688 "/>
<path fill-rule="nonzero" fill="rgb(70.196078%, 70.196078%, 70.196078%)" fill-opacity="1" stroke-width="1" stroke-linecap="butt" stroke-linejoin="miter" stroke="rgb(70.196078%, 70.196078%, 70.196078%)" stroke-opacity="1" stroke-miterlimit="10" d="M 587.859375 331.015625 C 587.859375 337.484375 578.160156 337.484375 578.160156 331.015625 C 578.160156 324.550781 587.859375 324.550781 587.859375 331.015625 "/>
<path fill-rule="nonzero" fill="rgb(70.196078%, 70.196078%, 70.196078%)" fill-opacity="1" stroke-width="1" stroke-linecap="butt" stroke-linejoin="miter" stroke="rgb(70.196078%, 70.196078%, 70.196078%)" stroke-opacity="1" stroke-miterlimit="10" d="M 331.960938 361.214844 C 331.960938 368.347656 321.261719 368.347656 321.261719 361.214844 C 321.261719 354.082031 331.960938 354.082031 331.960938 361.214844 "/>
<path fill-rule="nonzero" fill="rgb(70.196078%, 70.196078%, 70.196078%)" fill-opacity="1" stroke-width="1" stroke-linecap="butt" stroke-linejoin="miter" stroke="rgb(70.196078%, 70.196078%, 70.196078%)" stroke-opacity="1" stroke-miterlimit="10" d="M 211.617188 341.871094 C 211.617188 349.003906 200.914062 349.003906 200.914062 341.871094 C 200.914062 334.738281 211.617188 334.738281 211.617188 341.871094 "/>
<path fill-rule="nonzero" fill="rgb(70.196078%, 70.196078%, 70.196078%)" fill-opacity="1" stroke-width="1" stroke-linecap="butt" stroke-linejoin="miter" stroke="rgb(70.196078%, 70.196078%, 70.196078%)" stroke-opacity="1" stroke-miterlimit="10" d="M 168.097656 332.691406 C 168.097656 339.160156 158.394531 339.160156 158.394531 332.691406 C 158.394531 326.226562 168.097656 326.226562 168.097656 332.691406 "/>
<path fill-rule="nonzero" fill="rgb(14.901961%, 14.901961%, 14.901961%)" fill-opacity="1" stroke-width="1" stroke-linecap="butt" stroke-linejoin="miter" stroke="rgb(14.901961%, 14.901961%, 14.901961%)" stroke-opacity="1" stroke-miterlimit="10" d="M 43.648438 316.492188 L 50 303.789062 L 56.351562 316.492188 Z M 43.648438 316.492188 "/>
<path fill-rule="nonzero" fill="rgb(70.196078%, 70.196078%, 70.196078%)" fill-opacity="1" stroke-width="1" stroke-linecap="butt" stroke-linejoin="miter" stroke="rgb(70.196078%, 70.196078%, 70.196078%)" stroke-opacity="1" stroke-miterlimit="10" d="M 646.457031 233.488281 C 646.457031 239.953125 636.753906 239.953125 636.753906 233.488281 C 636.753906 227.019531 646.457031 227.019531 646.457031 233.488281 "/>
<path fill-rule="nonzero" fill="rgb(100%, 84.313725%, 0%)" fill-opacity="1" stroke-width="1" stroke-linecap="butt" stroke-linejoin="miter" stroke="rgb(100%, 84.313725%, 0%)" stroke-opacity="1" stroke-miterlimit="10" d="M 406.890625 275.332031 L 413.390625 275.332031 L 413.390625 281.832031 L 406.890625 281.832031 Z M 406.890625 275.332031 "/>
<path fill-rule="nonzero" fill="rgb(12.156863%, 47.058824%, 70.588235%)" fill-opacity="1" stroke-width="1" stroke-linecap="butt" stroke-linejoin="miter" stroke="rgb(12.156863%, 47.058824%, 70.588235%)" stroke-opacity="1" stroke-miterlimit="10" d="M 632.074219 610.179688 C 632.074219 613.847656 626.574219 613.847656 626.574219 610.179688 C 626.574219 606.511719 632.074219 606.511719 632.074219 610.179688 "/>
<path fill-rule="nonzero" fill="rgb(99.215686%, 74.901961%, 43.529412%)" fill-opacity="1" stroke-width="1" stroke-linecap="butt" stroke-linejoin="miter" stroke="rgb(99.215686%, 74.901961%, 43.529412%)" stroke-opacity="1" stroke-miterlimit="10" d="M 84.054688 356.214844 C 84.054688 359.882812 78.554688 359.882812 78.554688 356.214844 C 78.554688 352.550781 84.054688 352.550781 84.054688 356.214844 "/>
<path fill-rule="nonzero" fill="rgb(100%, 84.313725%, 0%)" fill-opacity="1" stroke-width="1" stroke-linecap="butt" stroke-linejoin="miter" stroke="rgb(100%, 84.313725%, 0%)" stroke-opacity="1" stroke-miterlimit="10" d="M 498.054688 301.945312 L 508.753906 301.945312 L 508.753906 312.644531 L 498.054688 312.644531 Z M 498.054688 301.945312 "/>
<path fill-rule="nonzero" fill="rgb(70.196078%, 70.196078%, 70.196078%)" fill-opacity="1" stroke-width="1" stroke-linecap="butt" stroke-linejoin="miter" stroke="rgb(70.196078%, 70.196078%, 70.196078%)" stroke-opacity="1" stroke-miterlimit="10" d="M 728.367188 95.101562 C 728.367188 101.566406 718.664062 101.566406 718.664062 95.101562 C 718.664062 88.632812 728.367188 88.632812 728.367188 95.101562 "/>
<path fill-rule="nonzero" fill="rgb(12.156863%, 47.058824%, 70.588235%)" fill-opacity="1" stroke-width="1" stroke-linecap="butt" stroke-linejoin="miter" stroke="rgb(12.156863%, 47.058824%, 70.588235%)" stroke-opacity="1" stroke-miterlimit="10" d="M 589.777344 501.921875 C 589.777344 505.589844 584.277344 505.589844 584.277344 501.921875 C 584.277344 498.257812 589.777344 498.257812 589.777344 501.921875 "/>
<path fill-rule="nonzero" fill="rgb(14.901961%, 14.901961%, 14.901961%)" fill-opacity="1" stroke-width="1" stroke-linecap="butt" stroke-linejoin="miter" stroke="rgb(14.901961%, 14.901961%, 14.901961%)" stroke-opacity="1" stroke-miterlimit="10" d="M 648.230469 667.332031 L 652.480469 658.832031 L 656.730469 667.332031 Z M 648.230469 667.332031 "/>
<path fill-rule="nonzero" fill="rgb(12.156863%, 47.058824%, 70.588235%)" fill-opacity="1" stroke-width="1" stroke-linecap="butt" stroke-linejoin="miter" stroke="rgb(12.156863%, 47.058824%, 70.588235%)" stroke-opacity="1" stroke-miterlimit="10" d="M 693.132812 750 C 693.132812 753.667969 687.632812 753.667969 687.632812 750 C 687.632812 746.332031 693.132812 746.332031 693.132812 750 "/>
<path fill-rule="nonzero" fill="rgb(99.215686%, 74.901961%, 43.529412%)" fill-opacity="1" stroke-width="1" stroke-linecap="butt" stroke-linejoin="miter" stroke="rgb(99.215686%, 74.901961%, 43.529412%)" stroke-opacity="1" stroke-miterlimit="10" d="M 244.246094 383.507812 C 244.246094 387.175781 238.746094 387.175781 238.746094 383.507812 C 238.746094 379.84375 244.246094 379.84375 244.246094 383.507812 "/>
<path fill-rule="nonzero" fill="rgb(70.196078%, 70.196078%, 70.196078%)" fill-opacity="1" stroke-width="1" stroke-linecap="butt" stroke-linejoin="miter" stroke="rgb(70.196078%, 70.196078%, 70.196078%)" stroke-opacity="1" stroke-miterlimit="10" d="M 674.136719 186.574219 C 674.136719 193.039062 664.4375 193.039062 664.4375 186.574219 C 664.4375 180.105469 674.136719 180.105469 674.136719 186.574219 "/>
<path fill-rule="nonzero" fill="rgb(30.196078%, 68.627451%, 29.019608%)" fill-opacity="1" stroke-width="1" stroke-linecap="butt" stroke-linejoin="miter" stroke="rgb(30.196078%, 68.627451%, 29.019608%)" stroke-opacity="1" stroke-miterlimit="10" d="M 91.402344 277.144531 C 91.402344 280.8125 85.902344 280.8125 85.902344 277.144531 C 85.902344 273.476562 91.402344 273.476562 91.402344 277.144531 "/>
<path fill-rule="nonzero" fill="rgb(70.196078%, 70.196078%, 70.196078%)" fill-opacity="1" stroke-width="1" stroke-linecap="butt" stroke-linejoin="miter" stroke="rgb(70.196078%, 70.196078%, 70.196078%)" stroke-opacity="1" stroke-miterlimit="10" d="M 701.476562 140.613281 C 701.476562 147.078125 691.777344 147.078125 691.777344 140.613281 C 691.777344 134.144531 701.476562 134.144531 701.476562 140.613281 "/>
<path fill-rule="nonzero" fill="rgb(12.156863%, 47.058824%, 70.588235%)" fill-opacity="1" stroke-width="1" stroke-linecap="butt" stroke-linejoin="miter" stroke="rgb(12.156863%, 47.058824%, 70.588235%)" stroke-opacity="1" stroke-miterlimit="10" d="M 651.269531 727.089844 C 651.269531 730.757812 645.769531 730.757812 645.769531 727.089844 C 645.769531 723.421875 651.269531 723.421875 651.269531 727.089844 "/>
<path fill-rule="nonzero" fill="rgb(70.196078%, 70.196078%, 70.196078%)" fill-opacity="1" stroke-width="1" stroke-linecap="butt" stroke-linejoin="miter" stroke="rgb(70.196078%, 70.196078%, 70.196078%)" stroke-opacity="1" stroke-miterlimit="10" d="M 125.144531 323.191406 C 125.144531 329.660156 115.445312 329.660156 115.445312 323.191406 C 115.445312 316.726562 125.144531 316.726562 125.144531 323.191406 "/>
<path fill-rule="nonzero" fill="rgb(14.901961%, 14.901961%, 14.901961%)" fill-opacity="1" stroke-width="1" stroke-linecap="butt" stroke-linejoin="miter" stroke="rgb(14.901961%, 14.901961%, 14.901961%)" stroke-opacity="1" stroke-miterlimit="10" d="M 744.148438 55.851562 L 750 44.148438 L 755.851562 55.851562 Z M 744.148438 55.851562 "/>
<path fill-rule="nonzero" fill="rgb(30.196078%, 68.627451%, 29.019608%)" fill-opacity="1" stroke-width="1" stroke-linecap="butt" stroke-linejoin="miter" stroke="rgb(30.196078%, 68.627451%, 29.019608%)" stroke-opacity="1" stroke-miterlimit="10" d="M 249.28125 311.863281 C 249.28125 315.527344 243.78125 315.527344 243.78125 311.863281 C 243.78125 308.195312 249.28125 308.195312 249.28125 311.863281 "/>
<path fill-rule="nonzero" fill="rgb(12.156863%, 47.058824%, 70.588235%)" fill-opacity="1" stroke-width="1" stroke-linecap="butt" stroke-linejoin="miter" stroke="rgb(12.156863%, 47.058824%, 70.588235%)" stroke-opacity="1" stroke-miterlimit="10" d="M 697.507812 686.699219 C 697.507812 690.367188 692.007812 690.367188 692.007812 686.699219 C 692.007812 683.03125 697.507812 683.03125 697.507812 686.699219 "/>
<path fill-rule="nonzero" fill="rgb(12.156863%, 47.058824%, 70.588235%)" fill-opacity="1" stroke-width="1" stroke-linecap="butt" stroke-linejoin="miter" stroke="rgb(12.156863%, 47.058824%, 70.588235%)" stroke-opacity="1" stroke-miterlimit="10" d="M 610.527344 556.832031 C 610.527344 560.5 605.027344 560.5 605.027344 556.832031 C 605.027344 553.164062 610.527344 553.164062 610.527344 556.832031 "/>
<path fill-rule="nonzero" fill="rgb(12.156863%, 47.058824%, 70.588235%)" fill-opacity="1" stroke-width="1" stroke-linecap="butt" stroke-linejoin="miter" stroke="rgb(12.156863%, 47.058824%, 70.588235%)" stroke-opacity="1" stroke-miterlimit="10" d="M 569.820312 444.503906 C 569.820312 448.171875 564.320312 448.171875 564.320312 444.503906 C 564.320312 440.835938 569.820312 440.835938 569.820312 444.503906 "/>
<path fill-rule="nonzero" fill="rgb(70.196078%, 70.196078%, 70.196078%)" fill-opacity="1" stroke-width="1" stroke-linecap="butt" stroke-linejoin="miter" stroke="rgb(70.196078%, 70.196078%, 70.196078%)" stroke-opacity="1" stroke-miterlimit="10" d="M 286.910156 353.835938 C 286.910156 360.304688 277.210938 360.304688 277.210938 353.835938 C 277.210938 347.371094 286.910156 347.371094 286.910156 353.835938 "/>
<path fill-rule="nonzero" fill="rgb(70.196078%, 70.196078%, 70.196078%)" fill-opacity="1" stroke-width="1" stroke-linecap="butt" stroke-linejoin="miter" stroke="rgb(70.196078%, 70.196078%, 70.196078%)" stroke-opacity="1" stroke-miterlimit="10" d="M 553.617188 381.914062 C 553.617188 388.382812 543.917969 388.382812 543.917969 381.914062 C 543.917969 375.449219 553.617188 375.449219 553.617188 381.914062 "/>
<path fill-rule="nonzero" fill="rgb(99.215686%, 74.901961%, 43.529412%)" fill-opacity="1" stroke-width="1" stroke-linecap="butt" stroke-linejoin="miter" stroke="rgb(99.215686%, 74.901961%, 43.529412%)" stroke-opacity="1" stroke-miterlimit="10" d="M 367.792969 328.628906 C 367.792969 332.296875 362.292969 332.296875 362.292969 328.628906 C 362.292969 324.964844 367.792969 324.964844 367.792969 328.628906 "/>
<path fill-rule="nonzero" fill="rgb(70.196078%, 70.196078%, 70.196078%)" fill-opacity="1" stroke-width="1" stroke-linecap="butt" stroke-linejoin="miter" stroke="rgb(70.196078%, 70.196078%, 70.196078%)" stroke-opacity="1" stroke-miterlimit="10" d="M 413.503906 346.953125 C 413.503906 354.085938 402.804688 354.085938 402.804688 346.953125 C 402.804688 339.820312 413.503906 339.820312 413.503906 346.953125 "/>
<path fill-rule="nonzero" fill="rgb(70.196078%, 70.196078%, 70.196078%)" fill-opacity="1" stroke-width="1" stroke-linecap="butt" stroke-linejoin="miter" stroke="rgb(70.196078%, 70.196078%, 70.196078%)" stroke-opacity="1" stroke-miterlimit="10" d="M 618.085938 281.613281 C 618.085938 288.082031 608.386719 288.082031 608.386719 281.613281 C 608.386719 275.148438 618.085938 275.148438 618.085938 281.613281 "/>
<path fill-rule="nonzero" fill="rgb(70.196078%, 70.196078%, 70.196078%)" fill-opacity="1" stroke-width="1" stroke-linecap="butt" stroke-linejoin="miter" stroke="rgb(70.196078%, 70.196078%, 70.196078%)" stroke-opacity="1" stroke-miterlimit="10" d="M 505.605469 368.390625 C 505.605469 375.523438 494.902344 375.523438 494.902344 368.390625 C 494.902344 361.257812 505.605469 361.257812 505.605469 368.390625 "/>
<path fill-rule="nonzero" fill="rgb(100%, 84.313725%, 0%)" fill-opacity="1" stroke-width="1" stroke-linecap="butt" stroke-linejoin="miter" stroke="rgb(100%, 84.313725%, 0%)" stroke-opacity="1" stroke-miterlimit="10" d="M 447.378906 363.574219 L 458.078125 363.574219 L 458.078125 374.273438 L 447.378906 374.273438 Z M 447.378906 363.574219 "/>
<path fill-rule="nonzero" fill="rgb(30.196078%, 68.627451%, 29.019608%)" fill-opacity="1" stroke-width="1" stroke-linecap="butt" stroke-linejoin="miter" stroke="rgb(30.196078%, 68.627451%, 29.019608%)" stroke-opacity="1" stroke-miterlimit="10" d="M 371.519531 386.480469 C 371.519531 390.144531 366.019531 390.144531 366.019531 386.480469 C 366.019531 382.8125 371.519531 382.8125 371.519531 386.480469 "/>
</svg>
