<?xml version="1.0" encoding="UTF-8"?>
<svg xmlns="http://www.w3.org/2000/svg" xmlns:xlink="http://www.w3.org/1999/xlink" width="800" height="800" viewBox="0 0 800 800">
<rect x="-80" y="-80" width="960" height="960" fill="rgb(100%, 100%, 100%)" fill-opacity="1"/>
<path fill="none" stroke-width="3.5" stroke-linecap="butt" stroke-linejoin="miter" stroke="rgb(70.196078%, 70.196078%, 70.196078%)" stroke-opacity="1" stroke-miterlimit="10" d="M 76.898438 206.058594 C 55.476562 232.429688 46.371094 262.605469 53.054688 295.894531 "/>
<path fill-rule="nonzero" fill="rgb(70.196078%, 70.196078%, 70.196078%)" fill-opacity="1" d="M 54.457031 302.890625 L 50.78125 296.351562 L 55.324219 295.441406 L 54.457031 302.890625 "/>
<path fill="none" stroke-width="2.5" stroke-linecap="butt" stroke-linejoin="miter" stroke="rgb(70.196078%, 70.196078%, 70.196078%)" stroke-opacity="1" stroke-miterlimit="10" d="M 76.898438 206.058594 C 54.011719 248.632812 49.8125 293.035156 67.597656 337.964844 "/>
<path fill-rule="nonzero" fill="rgb(70.196078%, 70.196078%, 70.196078%)" fill-opacity="1" d="M 70.222656 344.59375 L 65.441406 338.816406 L 69.75 337.109375 L 70.222656 344.59375 "/>
<path fill="none" stroke-width="1.5" stroke-linecap="butt" stroke-linejoin="miter" stroke="rgb(12.156863%, 47.058824%, 70.588235%)" stroke-opacity="1" stroke-miterlimit="10" d="M 76.898438 206.058594 C 98.753906 174.34375 106.15625 139.488281 95.820312 102.402344 "/>
<path fill-rule="nonzero" fill="rgb(12.156863%, 47.058824%, 70.588235%)" fill-opacity="1" d="M 93.90625 95.53125 L 98.054688 101.777344 L 93.589844 103.023438 L 93.90625 95.53125 "/>
<path fill="none" stroke-width="2.5" stroke-linecap="butt" stroke-linejoin="miter" stroke="rgb(70.196078%, 70.196078%, 70.196078%)" stroke-opacity="1" stroke-miterlimit="10" d="M 76.898438 206.058594 C 100.152344 158.285156 102.695312 109.378906 81.285156 60.765625 "/>
<path fill-rule="nonzero" fill="rgb(70.196078%, 70.196078%, 70.196078%)" fill-opacity="1" d="M 78.40625 54.238281 L 83.40625 59.832031 L 79.164062 61.703125 L 78.40625 54.238281 "/>
<path fill="none" stroke-width="2.5" stroke-linecap="butt" stroke-linejoin="miter" stroke="rgb(70.196078%, 70.196078%, 70.196078%)" stroke-opacity="1" stroke-miterlimit="10" d="M 76.898438 206.058594 C 87.8125 171.160156 84.820312 137.414062 64.949219 106.738281 "/>
<path fill-rule="nonzero" fill="rgb(70.196078%, 70.196078%, 70.196078%)" fill-opacity="1" d="M 61.070312 100.753906 L 66.894531 105.480469 L 63.003906 108 L 61.070312 100.753906 "/>
<path fill="none" stroke-width="1.5" stroke-linecap="butt" stroke-linejoin="miter" stroke="rgb(12.156863%, 47.058824%, 70.588235%)" stroke-opacity="1" stroke-miterlimit="10" d="M 76.898438 206.058594 C 72.207031 201.167969 66.246094 197.75 59.707031 199.121094 "/>
<path fill-rule="nonzero" fill="rgb(12.156863%, 47.058824%, 70.588235%)" fill-opacity="1" d="M 52.726562 200.582031 L 59.230469 196.851562 L 60.179688 201.386719 L 52.726562 200.582031 "/>
<path fill="none" stroke-width="3.5" stroke-linecap="butt" stroke-linejoin="miter" stroke="rgb(70.196078%, 70.196078%, 70.196078%)" stroke-opacity="1" stroke-miterlimit="10" d="M 55.367188 307.421875 C 76.351562 282.585938 85.75 253.847656 79.832031 221.902344 "/>
<path fill-rule="nonzero" fill="rgb(70.196078%, 70.196078%, 70.196078%)" fill-opacity="1" d="M 78.535156 214.890625 L 82.113281 221.480469 L 77.554688 222.324219 L 78.535156 214.890625 "/>
<path fill="none" stroke-width="5.5" stroke-linecap="butt" stroke-linejoin="miter" stroke="rgb(70.196078%, 70.196078%, 70.196078%)" stroke-opacity="1" stroke-miterlimit="10" d="M 102.480469 270.542969 C 105.539062 250.761719 101.589844 232.308594 87.902344 217.753906 "/>
<path fill-rule="nonzero" fill="rgb(70.196078%, 70.196078%, 70.196078%)" fill-opacity="1" d="M 83.011719 212.558594 L 89.589844 216.167969 L 86.210938 219.34375 L 83.011719 212.558594 "/>
<path fill="none" stroke-width="5.5" stroke-linecap="butt" stroke-linejoin="miter" stroke="rgb(70.196078%, 70.196078%, 70.196078%)" stroke-opacity="1" stroke-miterlimit="10" d="M 125.519531 330.71875 C 128.332031 311.363281 124.28125 293.398438 110.804688 279.273438 "/>
<path fill-rule="nonzero" fill="rgb(70.196078%, 70.196078%, 70.196078%)" fill-opacity="1" d="M 105.882812 274.109375 L 112.484375 277.671875 L 109.128906 280.871094 L 105.882812 274.109375 "/>
<path fill="none" stroke-width="2.5" stroke-linecap="butt" stroke-linejoin="miter" stroke="rgb(70.196078%, 70.196078%, 70.196078%)" stroke-opacity="1" stroke-miterlimit="10" d="M 71.925781 348.902344 C 94.695312 307.707031 99.394531 264.476562 82.484375 220.570312 "/>
<path fill-rule="nonzero" fill="rgb(70.196078%, 70.196078%, 70.196078%)" fill-opacity="1" d="M 79.921875 213.914062 L 84.648438 219.738281 L 80.324219 221.402344 L 79.921875 213.914062 "/>
<path fill="none" stroke-width="5.5" stroke-linecap="butt" stroke-linejoin="miter" stroke="rgb(70.196078%, 70.196078%, 70.196078%)" stroke-opacity="1" stroke-miterlimit="10" d="M 147.542969 390.03125 C 150.519531 371.128906 146.785156 353.492188 133.75 339.535156 "/>
<path fill-rule="nonzero" fill="rgb(70.196078%, 70.196078%, 70.196078%)" fill-opacity="1" d="M 128.882812 334.320312 L 135.445312 337.953125 L 132.058594 341.117188 L 128.882812 334.320312 "/>
<path fill="none" stroke-width="5.5" stroke-linecap="butt" stroke-linejoin="miter" stroke="rgb(70.196078%, 70.196078%, 70.196078%)" stroke-opacity="1" stroke-miterlimit="10" d="M 169.386719 446.992188 C 172.113281 428.886719 168.457031 411.996094 155.859375 398.761719 "/>
<path fill-rule="nonzero" fill="rgb(70.196078%, 70.196078%, 70.196078%)" fill-opacity="1" d="M 150.941406 393.597656 L 157.535156 397.164062 L 154.179688 400.363281 L 150.941406 393.597656 "/>
<path fill="none" stroke-width="1.5" stroke-linecap="butt" stroke-linejoin="miter" stroke="rgb(12.156863%, 47.058824%, 70.588235%)" stroke-opacity="1" stroke-miterlimit="10" d="M 93.199219 92.996094 C 71.808594 122.429688 63.804688 155.230469 72.875 190.445312 "/>
<path fill-rule="nonzero" fill="rgb(12.156863%, 47.058824%, 70.588235%)" fill-opacity="1" d="M 74.65625 197.355469 L 70.632812 191.023438 L 75.121094 189.867188 L 74.65625 197.355469 "/>
<path fill="none" stroke-width="5.5" stroke-linecap="butt" stroke-linejoin="miter" stroke="rgb(70.196078%, 70.196078%, 70.196078%)" stroke-opacity="1" stroke-miterlimit="10" d="M 191.402344 500.097656 C 193.59375 483.210938 189.933594 467.515625 177.914062 455.511719 "/>
<path fill-rule="nonzero" fill="rgb(70.196078%, 70.196078%, 70.196078%)" fill-opacity="1" d="M 172.867188 450.46875 L 179.554688 453.871094 L 176.277344 457.152344 L 172.867188 450.46875 "/>
<path fill="none" stroke-width="5.5" stroke-linecap="butt" stroke-linejoin="miter" stroke="rgb(70.196078%, 70.196078%, 70.196078%)" stroke-opacity="1" stroke-miterlimit="10" d="M 213.710938 548.558594 C 215.253906 533.117188 211.5625 518.835938 200.230469 508.300781 "/>
<path fill-rule="nonzero" fill="rgb(70.196078%, 70.196078%, 70.196078%)" fill-opacity="1" d="M 195.003906 503.445312 L 201.808594 506.601562 L 198.652344 510 L 195.003906 503.445312 "/>
<path fill="none" stroke-width="2.5" stroke-linecap="butt" stroke-linejoin="miter" stroke="rgb(70.196078%, 70.196078%, 70.196078%)" stroke-opacity="1" stroke-miterlimit="10" d="M 76.539062 50 C 53.34375 96.386719 50.25 144.144531 70.75 191.773438 "/>
<path fill-rule="nonzero" fill="rgb(70.196078%, 70.196078%, 70.196078%)" fill-opacity="1" d="M 73.570312 198.324219 L 68.621094 192.6875 L 72.878906 190.855469 L 73.570312 198.324219 "/>
<path fill="none" stroke-width="5.5" stroke-linecap="butt" stroke-linejoin="miter" stroke="rgb(70.196078%, 70.196078%, 70.196078%)" stroke-opacity="1" stroke-miterlimit="10" d="M 236.285156 592.710938 C 237.25 578.59375 233.535156 565.605469 222.84375 556.410156 "/>
<path fill-rule="nonzero" fill="rgb(70.196078%, 70.196078%, 70.196078%)" fill-opacity="1" d="M 217.433594 551.761719 L 224.355469 554.652344 L 221.332031 558.167969 L 217.433594 551.761719 "/>
<path fill="none" stroke-width="5.5" stroke-linecap="butt" stroke-linejoin="miter" stroke="rgb(70.196078%, 70.196078%, 70.196078%)" stroke-opacity="1" stroke-miterlimit="10" d="M 259.175781 629.648438 C 259.253906 617.730469 255.550781 606.84375 245.988281 599.828125 "/>
<path fill-rule="nonzero" fill="rgb(70.196078%, 70.196078%, 70.196078%)" fill-opacity="1" d="M 240.234375 595.609375 L 247.359375 597.960938 L 244.617188 601.695312 L 240.234375 595.609375 "/>
<path fill="none" stroke-width="5.5" stroke-linecap="butt" stroke-linejoin="miter" stroke="rgb(70.196078%, 70.196078%, 70.196078%)" stroke-opacity="1" stroke-miterlimit="10" d="M 282.164062 666.574219 C 282.214844 654.640625 278.484375 643.753906 268.894531 636.746094 "/>
<path fill-rule="nonzero" fill="rgb(70.196078%, 70.196078%, 70.196078%)" fill-opacity="1" d="M 263.136719 632.539062 L 270.261719 634.875 L 267.527344 638.617188 L 263.136719 632.539062 "/>
<path fill="none" stroke-width="5.5" stroke-linecap="butt" stroke-linejoin="miter" stroke="rgb(70.196078%, 70.196078%, 70.196078%)" stroke-opacity="1" stroke-miterlimit="10" d="M 305.300781 700.125 C 304.960938 689.195312 301.238281 679.257812 292.183594 673.234375 "/>
<path fill-rule="nonzero" fill="rgb(70.196078%, 70.196078%, 70.196078%)" fill-opacity="1" d="M 286.242188 669.285156 L 293.464844 671.304688 L 290.898438 675.167969 L 286.242188 669.285156 "/>
<path fill="none" stroke-width="5.5" stroke-linecap="butt" stroke-linejoin="miter" stroke="rgb(70.196078%, 70.196078%, 70.196078%)" stroke-opacity="1" stroke-miterlimit="10" d="M 328.3125 736.988281 C 328.351562 725.070312 324.613281 714.199219 315.027344 707.214844 "/>
<path fill-rule="nonzero" fill="rgb(70.196078%, 70.196078%, 70.196078%)" fill-opacity="1" d="M 309.261719 703.011719 L 316.390625 705.339844 L 313.660156 709.085938 L 309.261719 703.011719 "/>
<path fill="none" stroke-width="5.5" stroke-linecap="butt" stroke-linejoin="miter" stroke="rgb(70.196078%, 70.196078%, 70.196078%)" stroke-opacity="1" stroke-miterlimit="10" d="M 352.25 740.335938 C 349.050781 736.550781 344.734375 733.464844 340.019531 734.476562 "/>
<path fill-rule="nonzero" fill="rgb(70.196078%, 70.196078%, 70.196078%)" fill-opacity="1" d="M 333.042969 735.972656 L 339.53125 732.210938 L 340.503906 736.742188 L 333.042969 735.972656 "/>
<path fill="none" stroke-width="2.5" stroke-linecap="butt" stroke-linejoin="miter" stroke="rgb(70.196078%, 70.196078%, 70.196078%)" stroke-opacity="1" stroke-miterlimit="10" d="M 58.554688 96.871094 C 47.480469 130.183594 49.660156 162.703125 68.324219 192.410156 "/>
<path fill-rule="nonzero" fill="rgb(70.196078%, 70.196078%, 70.196078%)" fill-opacity="1" d="M 72.117188 198.449219 L 66.359375 193.644531 L 70.285156 191.175781 L 72.117188 198.449219 "/>
<path fill="none" stroke-width="1.5" stroke-linecap="butt" stroke-linejoin="miter" stroke="rgb(12.156863%, 47.058824%, 70.588235%)" stroke-opacity="1" stroke-miterlimit="10" d="M 50 201.152344 C 52.523438 205.007812 56.199219 208.449219 60.621094 207.941406 "/>
<path fill-rule="nonzero" fill="rgb(12.156863%, 47.058824%, 70.588235%)" fill-opacity="1" d="M 67.707031 207.121094 L 60.890625 210.242188 L 60.355469 205.636719 L 67.707031 207.121094 "/>
<path fill="none" stroke-width="5.5" stroke-linecap="butt" stroke-linejoin="miter" stroke="rgb(70.196078%, 70.196078%, 70.196078%)" stroke-opacity="1" stroke-miterlimit="10" d="M 376.121094 746.027344 C 373.191406 741.867188 369.0625 738.355469 364.144531 738.933594 "/>
<path fill-rule="nonzero" fill="rgb(70.196078%, 70.196078%, 70.196078%)" fill-opacity="1" d="M 357.0625 739.769531 L 363.871094 736.632812 L 364.414062 741.234375 L 357.0625 739.769531 "/>
<path fill="none" stroke-width="5.5" stroke-linecap="butt" stroke-linejoin="miter" stroke="rgb(70.196078%, 70.196078%, 70.196078%)" stroke-opacity="1" stroke-miterlimit="10" d="M 399.988281 749.695312 C 396.851562 745.871094 392.578125 742.730469 387.859375 743.675781 "/>
<path fill-rule="nonzero" fill="rgb(70.196078%, 70.196078%, 70.196078%)" fill-opacity="1" d="M 380.867188 745.074219 L 387.40625 741.402344 L 388.316406 745.949219 L 380.867188 745.074219 "/>
<path fill="none" stroke-width="5.5" stroke-linecap="butt" stroke-linejoin="miter" stroke="rgb(70.196078%, 70.196078%, 70.196078%)" stroke-opacity="1" stroke-miterlimit="10" d="M 447.75 746.746094 C 443.667969 743.972656 438.699219 742.175781 434.460938 744.414062 "/>
<path fill-rule="nonzero" fill="rgb(70.196078%, 70.196078%, 70.196078%)" fill-opacity="1" d="M 428.152344 747.742188 L 433.378906 742.363281 L 435.542969 746.460938 L 428.152344 747.742188 "/>
<path fill="none" stroke-width="5.5" stroke-linecap="butt" stroke-linejoin="miter" stroke="rgb(70.196078%, 70.196078%, 70.196078%)" stroke-opacity="1" stroke-miterlimit="10" d="M 471.613281 739.699219 C 466.878906 737.527344 461.4375 736.5625 457.359375 739.597656 "/>
<path fill-rule="nonzero" fill="rgb(70.196078%, 70.196078%, 70.196078%)" fill-opacity="1" d="M 451.636719 743.855469 L 455.976562 737.738281 L 458.742188 741.457031 L 451.636719 743.855469 "/>
<path fill="none" stroke-width="5.5" stroke-linecap="butt" stroke-linejoin="miter" stroke="rgb(70.196078%, 70.196078%, 70.196078%)" stroke-opacity="1" stroke-miterlimit="10" d="M 423.871094 750 C 420.316406 746.695312 415.742188 744.183594 411.289062 745.742188 "/>
<path fill-rule="nonzero" fill="rgb(70.196078%, 70.196078%, 70.196078%)" fill-opacity="1" d="M 404.558594 748.097656 L 410.523438 743.554688 L 412.054688 747.929688 L 404.558594 748.097656 "/>
<path fill="none" stroke-width="5.5" stroke-linecap="butt" stroke-linejoin="miter" stroke="rgb(70.196078%, 70.196078%, 70.196078%)" stroke-opacity="1" stroke-miterlimit="10" d="M 495.4375 728.820312 C 489.960938 727.324219 484.03125 727.308594 480.097656 731.234375 "/>
<path fill-rule="nonzero" fill="rgb(70.196078%, 70.196078%, 70.196078%)" fill-opacity="1" d="M 475.046875 736.269531 L 478.460938 729.59375 L 481.734375 732.875 L 475.046875 736.269531 "/>
<path fill="none" stroke-width="5.5" stroke-linecap="butt" stroke-linejoin="miter" stroke="rgb(70.196078%, 70.196078%, 70.196078%)" stroke-opacity="1" stroke-miterlimit="10" d="M 519.191406 713.847656 C 512.875 713.171875 506.441406 714.277344 502.671875 719.257812 "/>
<path fill-rule="nonzero" fill="rgb(70.196078%, 70.196078%, 70.196078%)" fill-opacity="1" d="M 498.367188 724.945312 L 500.824219 717.859375 L 504.519531 720.65625 L 498.367188 724.945312 "/>
<path fill="none" stroke-width="5.5" stroke-linecap="butt" stroke-linejoin="miter" stroke="rgb(70.196078%, 70.196078%, 70.196078%)" stroke-opacity="1" stroke-miterlimit="10" d="M 542.851562 694.511719 C 535.613281 694.832031 528.707031 697.226562 525.152344 703.429688 "/>
<path fill-rule="nonzero" fill="rgb(70.196078%, 70.196078%, 70.196078%)" fill-opacity="1" d="M 521.609375 709.621094 L 523.140625 702.28125 L 527.164062 704.582031 L 521.609375 709.621094 "/>
<path fill="none" stroke-width="5.5" stroke-linecap="butt" stroke-linejoin="miter" stroke="rgb(70.196078%, 70.196078%, 70.196078%)" stroke-opacity="1" stroke-miterlimit="10" d="M 566.207031 668.148438 C 557.539062 670.292969 550.035156 674.917969 546.988281 683.230469 "/>
<path fill-rule="nonzero" fill="rgb(70.196078%, 70.196078%, 70.196078%)" fill-opacity="1" d="M 544.53125 689.925781 L 544.8125 682.433594 L 549.164062 684.027344 L 544.53125 689.925781 "/>
<path fill="none" stroke-width="5.5" stroke-linecap="butt" stroke-linejoin="miter" stroke="rgb(70.196078%, 70.196078%, 70.196078%)" stroke-opacity="1" stroke-miterlimit="10" d="M 611.910156 591.191406 C 599.746094 598.96875 591.367188 609.898438 590.289062 624.25 "/>
<path fill-rule="nonzero" fill="rgb(70.196078%, 70.196078%, 70.196078%)" fill-opacity="1" d="M 589.753906 631.363281 L 587.976562 624.074219 L 592.601562 624.421875 L 589.753906 631.363281 "/>
<path fill="none" stroke-width="5.5" stroke-linecap="butt" stroke-linejoin="miter" stroke="rgb(70.196078%, 70.196078%, 70.196078%)" stroke-opacity="1" stroke-miterlimit="10" d="M 589.386719 636.261719 C 579.617188 639.972656 571.746094 646.429688 569.179688 656.496094 "/>
<path fill-rule="nonzero" fill="rgb(70.196078%, 70.196078%, 70.196078%)" fill-opacity="1" d="M 567.414062 663.40625 L 566.933594 655.921875 L 571.425781 657.070312 L 567.414062 663.40625 "/>
<path fill="none" stroke-width="5.5" stroke-linecap="butt" stroke-linejoin="miter" stroke="rgb(70.196078%, 70.196078%, 70.196078%)" stroke-opacity="1" stroke-miterlimit="10" d="M 679.554688 466.882812 C 670.535156 469.507812 662.902344 474.699219 659.996094 483.558594 "/>
<path fill-rule="nonzero" fill="rgb(70.196078%, 70.196078%, 70.196078%)" fill-opacity="1" d="M 657.769531 490.335938 L 657.792969 482.835938 L 662.199219 484.28125 L 657.769531 490.335938 "/>
<path fill="none" stroke-width="5.5" stroke-linecap="butt" stroke-linejoin="miter" stroke="rgb(70.196078%, 70.196078%, 70.196078%)" stroke-opacity="1" stroke-miterlimit="10" d="M 702.738281 437.46875 C 693.476562 440.476562 685.777344 446.105469 683.003906 455.363281 "/>
<path fill-rule="nonzero" fill="rgb(70.196078%, 70.196078%, 70.196078%)" fill-opacity="1" d="M 680.957031 462.199219 L 680.785156 454.699219 L 685.226562 456.03125 L 680.957031 462.199219 "/>
<path fill="none" stroke-width="5.5" stroke-linecap="butt" stroke-linejoin="miter" stroke="rgb(70.196078%, 70.196078%, 70.196078%)" stroke-opacity="1" stroke-miterlimit="10" d="M 634.210938 545.144531 C 621.921875 553.253906 613.566406 564.523438 612.65625 579.167969 "/>
<path fill-rule="nonzero" fill="rgb(70.196078%, 70.196078%, 70.196078%)" fill-opacity="1" d="M 612.214844 586.289062 L 610.34375 579.027344 L 614.96875 579.3125 L 612.214844 586.289062 "/>
<path fill="none" stroke-width="5.5" stroke-linecap="butt" stroke-linejoin="miter" stroke="rgb(70.196078%, 70.196078%, 70.196078%)" stroke-opacity="1" stroke-miterlimit="10" d="M 656.246094 494.976562 C 643.273438 504.417969 634.84375 517.101562 634.484375 533.097656 "/>
<path fill-rule="nonzero" fill="rgb(70.196078%, 70.196078%, 70.196078%)" fill-opacity="1" d="M 634.324219 540.226562 L 632.164062 533.046875 L 636.800781 533.148438 L 634.324219 540.226562 "/>
<path fill="none" stroke-width="5.5" stroke-linecap="butt" stroke-linejoin="miter" stroke="rgb(70.196078%, 70.196078%, 70.196078%)" stroke-opacity="1" stroke-miterlimit="10" d="M 726.296875 418.945312 C 719.265625 419.082031 712.472656 421.226562 708.90625 427.175781 "/>
<path fill-rule="nonzero" fill="rgb(70.196078%, 70.196078%, 70.196078%)" fill-opacity="1" d="M 705.242188 433.296875 L 706.917969 425.984375 L 710.894531 428.367188 L 705.242188 433.296875 "/>
<path fill="none" stroke-width="5.5" stroke-linecap="butt" stroke-linejoin="miter" stroke="rgb(70.196078%, 70.196078%, 70.196078%)" stroke-opacity="1" stroke-miterlimit="10" d="M 750 428.273438 C 747.453125 423.488281 743.570312 419.304688 738.273438 419.195312 "/>
<path fill-rule="nonzero" fill="rgb(70.196078%, 70.196078%, 70.196078%)" fill-opacity="1" d="M 731.144531 419.046875 L 738.324219 416.878906 L 738.226562 421.511719 L 731.144531 419.046875 "/>
<path fill-rule="nonzero" fill="rgb(14.901961%, 14.901961%, 14.901961%)" fill-opacity="1" stroke-width="1" stroke-linecap="butt" stroke-linejoin="miter" stroke="rgb(14.901961%, 14.901961%, 14.901961%)" stroke-opacity="1" stroke-miterlimit="10" d="M 68.046875 214.910156 L 76.898438 197.210938 L 85.75 214.910156 Z M 68.046875 214.910156 "/>
<path fill-rule="nonzero" fill="rgb(70.196078%, 70.196078%, 70.196078%)" fill-opacity="1" stroke-width="1" stroke-linecap="butt" stroke-linejoin="miter" stroke="rgb(70.196078%, 70.196078%, 70.196078%)" stroke-opacity="1" stroke-miterlimit="10" d="M 60.21875 307.421875 C 60.21875 313.886719 50.515625 313.886719 50.515625 307.421875 C 50.515625 300.953125 60.21875 300.953125 60.21875 307.421875 "/>
<path fill-rule="nonzero" fill="rgb(70.196078%, 70.196078%, 70.196078%)" fill-opacity="1" stroke-width="1" stroke-linecap="butt" stroke-linejoin="miter" stroke="rgb(70.196078%, 70.196078%, 70.196078%)" stroke-opacity="1" stroke-miterlimit="10" d="M 107.332031 270.542969 C 107.332031 277.011719 97.632812 277.011719 97.632812 270.542969 C 97.632812 264.078125 107.332031 264.078125 107.332031 270.542969 "/>
<path fill-rule="nonzero" fill="rgb(70.196078%, 70.196078%, 70.196078%)" fill-opacity="1" stroke-width="1" stroke-linecap="butt" stroke-linejoin="miter" stroke="rgb(70.196078%, 70.196078%, 70.196078%)" stroke-opacity="1" stroke-miterlimit="10" d="M 130.371094 330.71875 C 130.371094 337.1875 120.671875 337.1875 120.671875 330.71875 C 120.671875 324.253906 130.371094 324.253906 130.371094 330.71875 "/>
<path fill-rule="nonzero" fill="rgb(70.196078%, 70.196078%, 70.196078%)" fill-opacity="1" stroke-width="1" stroke-linecap="butt" stroke-linejoin="miter" stroke="rgb(70.196078%, 70.196078%, 70.196078%)" stroke-opacity="1" stroke-miterlimit="10" d="M 76.777344 348.902344 C 76.777344 355.367188 67.074219 355.367188 67.074219 348.902344 C 67.074219 342.433594 76.777344 342.433594 76.777344 348.902344 "/>
<path fill-rule="nonzero" fill="rgb(70.196078%, 70.196078%, 70.196078%)" fill-opacity="1" stroke-width="1" stroke-linecap="butt" stroke-linejoin="miter" stroke="rgb(70.196078%, 70.196078%, 70.196078%)" stroke-opacity="1" stroke-miterlimit="10" d="M 152.394531 390.03125 C 152.394531 396.496094 142.695312 396.496094 142.695312 390.03125 C 142.695312 383.5625 152.394531 383.5625 152.394531 390.03125 "/>
<path fill-rule="nonzero" fill="rgb(70.196078%, 70.196078%, 70.196078%)" fill-opacity="1" stroke-width="1" stroke-linecap="butt" stroke-linejoin="miter" stroke="rgb(70.196078%, 70.196078%, 70.196078%)" stroke-opacity="1" stroke-miterlimit="10" d="M 174.238281 446.992188 C 174.238281 453.457031 164.535156 453.457031 164.535156 446.992188 C 164.535156 440.523438 174.238281 440.523438 174.238281 446.992188 "/>
<path fill-rule="nonzero" fill="rgb(12.156863%, 47.058824%, 70.588235%)" fill-opacity="1" stroke-width="1" stroke-linecap="butt" stroke-linejoin="miter" stroke="rgb(12.156863%, 47.058824%, 70.588235%)" stroke-opacity="1" stroke-miterlimit="10" d="M 95.949219 92.996094 C 95.949219 96.664062 90.449219 96.664062 90.449219 92.996094 C 90.449219 89.332031 95.949219 89.332031 95.949219 92.996094 "/>
<path fill-rule="nonzero" fill="rgb(70.196078%, 70.196078%, 70.196078%)" fill-opacity="1" stroke-width="1" stroke-linecap="butt" stroke-linejoin="miter" stroke="rgb(70.196078%, 70.196078%, 70.196078%)" stroke-opacity="1" stroke-miterlimit="10" d="M 196.253906 500.097656 C 196.253906 506.5625 186.554688 506.5625 186.554688 500.097656 C 186.554688 493.628906 196.253906 493.628906 196.253906 500.097656 "/>
<path fill-rule="nonzero" fill="rgb(70.196078%, 70.196078%, 70.196078%)" fill-opacity="1" stroke-width="1" stroke-linecap="butt" stroke-linejoin="miter" stroke="rgb(70.196078%, 70.196078%, 70.196078%)" stroke-opacity="1" stroke-miterlimit="10" d="M 218.5625 548.558594 C 218.5625 555.027344 208.859375 555.027344 208.859375 548.558594 C 208.859375 542.09375 218.5625 542.09375 218.5625 548.558594 "/>
<path fill-rule="nonzero" fill="rgb(70.196078%, 70.196078%, 70.196078%)" fill-opacity="1" stroke-width="1" stroke-linecap="butt" stroke-linejoin="miter" stroke="rgb(70.196078%, 70.196078%, 70.196078%)" stroke-opacity="1" stroke-miterlimit="10" d="M 81.390625 50 C 81.390625 56.464844 71.691406 56.464844 71.691406 50 C 71.691406 43.535156 81.390625 43.535156 81.390625 50 "/>
<path fill-rule="nonzero" fill="rgb(70.196078%, 70.196078%, 70.196078%)" fill-opacity="1" stroke-width="1" stroke-linecap="butt" stroke-linejoin="miter" stroke="rgb(70.196078%, 70.196078%, 70.196078%)" stroke-opacity="1" stroke-miterlimit="10" d="M 241.132812 592.710938 C 241.132812 599.175781 231.433594 599.175781 231.433594 592.710938 C 231.433594 586.242188 241.132812 586.242188 241.132812 592.710938 "/>
<path fill-rule="nonzero" fill="rgb(70.196078%, 70.196078%, 70.196078%)" fill-opacity="1" stroke-width="1" stroke-linecap="butt" stroke-linejoin="miter" stroke="rgb(70.196078%, 70.196078%, 70.196078%)" stroke-opacity="1" stroke-miterlimit="10" d="M 264.027344 629.648438 C 264.027344 636.113281 254.328125 636.113281 254.328125 629.648438 C 254.328125 623.179688 264.027344 623.179688 264.027344 629.648438 "/>
<path fill-rule="nonzero" fill="rgb(70.196078%, 70.196078%, 70.196078%)" fill-opacity="1" stroke-width="1" stroke-linecap="butt" stroke-linejoin="miter" stroke="rgb(70.196078%, 70.196078%, 70.196078%)" stroke-opacity="1" stroke-miterlimit="10" d="M 287.015625 666.574219 C 287.015625 673.042969 277.316406 673.042969 277.316406 666.574219 C 277.316406 660.109375 287.015625 660.109375 287.015625 666.574219 "/>
<path fill-rule="nonzero" fill="rgb(70.196078%, 70.196078%, 70.196078%)" fill-opacity="1" stroke-width="1" stroke-linecap="butt" stroke-linejoin="miter" stroke="rgb(70.196078%, 70.196078%, 70.196078%)" stroke-opacity="1" stroke-miterlimit="10" d="M 310.152344 700.125 C 310.152344 706.59375 300.449219 706.59375 300.449219 700.125 C 300.449219 693.660156 310.152344 693.660156 310.152344 700.125 "/>
<path fill-rule="nonzero" fill="rgb(70.196078%, 70.196078%, 70.196078%)" fill-opacity="1" stroke-width="1" stroke-linecap="butt" stroke-linejoin="miter" stroke="rgb(70.196078%, 70.196078%, 70.196078%)" stroke-opacity="1" stroke-miterlimit="10" d="M 333.160156 736.988281 C 333.160156 743.457031 323.460938 743.457031 323.460938 736.988281 C 323.460938 730.523438 333.160156 730.523438 333.160156 736.988281 "/>
<path fill-rule="nonzero" fill="rgb(70.196078%, 70.196078%, 70.196078%)" fill-opacity="1" stroke-width="1" stroke-linecap="butt" stroke-linejoin="miter" stroke="rgb(70.196078%, 70.196078%, 70.196078%)" stroke-opacity="1" stroke-miterlimit="10" d="M 357.101562 740.335938 C 357.101562 746.804688 347.402344 746.804688 347.402344 740.335938 C 347.402344 733.871094 357.101562 733.871094 357.101562 740.335938 "/>
<path fill-rule="nonzero" fill="rgb(70.196078%, 70.196078%, 70.196078%)" fill-opacity="1" stroke-width="1" stroke-linecap="butt" stroke-linejoin="miter" stroke="rgb(70.196078%, 70.196078%, 70.196078%)" stroke-opacity="1" stroke-miterlimit="10" d="M 63.40625 96.871094 C 63.40625 103.339844 53.707031 103.339844 53.707031 96.871094 C 53.707031 90.40625 63.40625 90.40625 63.40625 96.871094 "/>
<path fill-rule="nonzero" fill="rgb(12.156863%, 47.058824%, 70.588235%)" fill-opacity="1" stroke-width="1" stroke-linecap="butt" stroke-linejoin="miter" stroke="rgb(12.156863%, 47.058824%, 70.588235%)" stroke-opacity="1" stroke-miterlimit="10" d="M 52.75 201.152344 C 52.75 204.820312 47.25 204.820312 47.25 201.152344 C 47.25 197.488281 52.75 197.488281 52.75 201.152344 "/>
<path fill-rule="nonzero" fill="rgb(70.196078%, 70.196078%, 70.196078%)" fill-opacity="1" stroke-width="1" stroke-linecap="butt" stroke-linejoin="miter" stroke="rgb(70.196078%, 70.196078%, 70.196078%)" stroke-opacity="1" stroke-miterlimit="10" d="M 380.96875 746.027344 C 380.96875 752.492188 371.269531 752.492188 371.269531 746.027344 C 371.269531 739.558594 380.96875 739.558594 380.96875 746.027344 "/>
<path fill-rule="nonzero" fill="rgb(70.196078%, 70.196078%, 70.196078%)" fill-opacity="1" stroke-width="1" stroke-linecap="butt" stroke-linejoin="miter" stroke="rgb(70.196078%, 70.196078%, 70.196078%)" stroke-opacity="1" stroke-miterlimit="10" d="M 404.839844 749.695312 C 404.839844 756.164062 395.140625 756.164062 395.140625 749.695312 C 395.140625 743.230469 404.839844 743.230469 404.839844 749.695312 "/>
<path fill-rule="nonzero" fill="rgb(70.196078%, 70.196078%, 70.196078%)" fill-opacity="1" stroke-width="1" stroke-linecap="butt" stroke-linejoin="miter" stroke="rgb(70.196078%, 70.196078%, 70.196078%)" stroke-opacity="1" stroke-miterlimit="10" d="M 452.597656 746.746094 C 452.597656 753.210938 442.898438 753.210938 442.898438 746.746094 C 442.898438 740.277344 452.597656 740.277344 452.597656 746.746094 "/>
<path fill-rule="nonzero" fill="rgb(70.196078%, 70.196078%, 70.196078%)" fill-opacity="1" stroke-width="1" stroke-linecap="butt" stroke-linejoin="miter" stroke="rgb(70.196078%, 70.196078%, 70.196078%)" stroke-opacity="1" stroke-miterlimit="10" d="M 476.464844 739.699219 C 476.464844 746.164062 466.765625 746.164062 466.765625 739.699219 C 466.765625 733.230469 476.464844 733.230469 476.464844 739.699219 "/>
<path fill-rule="nonzero" fill="rgb(70.196078%, 70.196078%, 70.196078%)" fill-opacity="1" stroke-width="1" stroke-linecap="butt" stroke-linejoin="miter" stroke="rgb(70.196078%, 70.196078%, 70.196078%)" stroke-opacity="1" stroke-miterlimit="10" d="M 428.722656 750 C 428.722656 756.464844 419.019531 756.464844 419.019531 750 C 419.019531 743.535156 428.722656 743.535156 428.722656 750 "/>
<path fill-rule="nonzero" fill="rgb(70.196078%, 70.196078%, 70.196078%)" fill-opacity="1" stroke-width="1" stroke-linecap="butt" stroke-linejoin="miter" stroke="rgb(70.196078%, 70.196078%, 70.196078%)" stroke-opacity="1" stroke-miterlimit="10" d="M 500.285156 728.820312 C 500.285156 735.289062 490.585938 735.289062 490.585938 728.820312 C 490.585938 722.355469 500.285156 722.355469 500.285156 728.820312 "/>
<path fill-rule="nonzero" fill="rgb(70.196078%, 70.196078%, 70.196078%)" fill-opacity="1" stroke-width="1" stroke-linecap="butt" stroke-linejoin="miter" stroke="rgb(70.196078%, 70.196078%, 70.196078%)" stroke-opacity="1" stroke-miterlimit="10" d="M 524.042969 713.847656 C 524.042969 720.3125 514.339844 720.3125 514.339844 713.847656 C 514.339844 707.378906 524.042969 707.378906 524.042969 713.847656 "/>
<path fill-rule="nonzero" fill="rgb(70.196078%, 70.196078%, 70.196078%)" fill-opacity="1" stroke-width="1" stroke-linecap="butt" stroke-linejoin="miter" stroke="rgb(70.196078%, 70.196078%, 70.196078%)" stroke-opacity="1" stroke-miterlimit="10" d="M 547.703125 694.511719 C 547.703125 700.976562 538 700.976562 538 694.511719 C 538 688.046875 547.703125 688.046875 547.703125 694.511719 "/>
<path fill-rule="nonzero" fill="rgb(70.196078%, 70.196078%, 70.196078%)" fill-opacity="1" stroke-width="1" stroke-linecap="butt" stroke-linejoin="miter" stroke="rgb(70.196078%, 70.196078%, 70.196078%)" stroke-opacity="1" stroke-miterlimit="10" d="M 571.058594 668.148438 C 571.058594 674.617188 561.355469 674.617188 561.355469 668.148438 C 561.355469 661.683594 571.058594 661.683594 571.058594 668.148438 "/>
<path fill-rule="nonzero" fill="rgb(70.196078%, 70.196078%, 70.196078%)" fill-opacity="1" stroke-width="1" stroke-linecap="butt" stroke-linejoin="miter" stroke="rgb(70.196078%, 70.196078%, 70.196078%)" stroke-opacity="1" stroke-miterlimit="10" d="M 616.761719 591.191406 C 616.761719 597.660156 607.0625 597.660156 607.0625 591.191406 C 607.0625 584.726562 616.761719 584.726562 616.761719 591.191406 "/>
<path fill-rule="nonzero" fill="rgb(70.196078%, 70.196078%, 70.196078%)" fill-opacity="1" stroke-width="1" stroke-linecap="butt" stroke-linejoin="miter" stroke="rgb(70.196078%, 70.196078%, 70.196078%)" stroke-opacity="1" stroke-miterlimit="10" d="M 594.238281 636.261719 C 594.238281 642.726562 584.535156 642.726562 584.535156 636.261719 C 584.535156 629.792969 594.238281 629.792969 594.238281 636.261719 "/>
<path fill-rule="nonzero" fill="rgb(70.196078%, 70.196078%, 70.196078%)" fill-opacity="1" stroke-width="1" stroke-linecap="butt" stroke-linejoin="miter" stroke="rgb(70.196078%, 70.196078%, 70.196078%)" stroke-opacity="1" stroke-miterlimit="10" d="M 684.40625 466.882812 C 684.40625 473.347656 674.703125 473.347656 674.703125 466.882812 C 674.703125 460.414062 684.40625 460.414062 684.40625 466.882812 "/>
<path fill-rule="nonzero" fill="rgb(70.196078%, 70.196078%, 70.196078%)" fill-opacity="1" stroke-width="1" stroke-linecap="butt" stroke-linejoin="miter" stroke="rgb(70.196078%, 70.196078%, 70.196078%)" stroke-opacity="1" stroke-miterlimit="10" d="M 707.589844 437.46875 C 707.589844 443.9375 697.890625 443.9375 697.890625 437.46875 C 697.890625 431.003906 707.589844 431.003906 707.589844 437.46875 "/>
<path fill-rule="nonzero" fill="rgb(70.196078%, 70.196078%, 70.196078%)" fill-opacity="1" stroke-width="1" stroke-linecap="butt" stroke-linejoin="miter" stroke="rgb(70.196078%, 70.196078%, 70.196078%)" stroke-opacity="1" stroke-miterlimit="10" d="M 639.0625 545.144531 C 639.0625 551.613281 629.363281 551.613281 629.363281 545.144531 C 629.363281 538.679688 639.0625 538.679688 639.0625 545.144531 "/>
<path fill-rule="nonzero" fill="rgb(70.196078%, 70.196078%, 70.196078%)" fill-opacity="1" stroke-width="1" stroke-linecap="butt" stroke-linejoin="miter" stroke="rgb(70.196078%, 70.196078%, 70.196078%)" stroke-opacity="1" stroke-miterlimit="10" d="M 661.097656 494.976562 C 661.097656 501.445312 651.398438 501.445312 651.398438 494.976562 C 651.398438 488.511719 661.097656 488.511719 661.097656 494.976562 "/>
<path fill-rule="nonzero" fill="rgb(70.196078%, 70.196078%, 70.196078%)" fill-opacity="1" stroke-width="1" stroke-linecap="butt" stroke-linejoin="miter" stroke="rgb(70.196078%, 70.196078%, 70.196078%)" stroke-opacity="1" stroke-miterlimit="10" d="M 731.148438 418.945312 C 731.148438 425.414062 721.449219 425.414062 721.449219 418.945312 C 721.449219 412.480469 731.148438 412.480469 731.148438 418.945312 "/>
<path fill-rule="nonzero" fill="rgb(100%, 84.313725%, 0%)" fill-opacity="1" stroke-width="1" stroke-linecap="butt" stroke-linejoin="miter" stroke="rgb(100%, 84.313725%, 0%)" stroke-opacity="1" stroke-miterlimit="10" d="M 744.648438 422.921875 L 755.347656 422.921875 L 755.347656 433.621094 L 744.648438 433.621094 Z M 744.648438 422.921875 "/>
</svg>
