<?xml version="1.0" encoding="UTF-8"?>
<svg xmlns="http://www.w3.org/2000/svg" xmlns:xlink="http://www.w3.org/1999/xlink" width="800" height="800" viewBox="0 0 800 800">
<rect x="-80" y="-80" width="960" height="960" fill="rgb(100%, 100%, 100%)" fill-opacity="1"/>
<path fill="none" stroke-width="1.5" stroke-linecap="butt" stroke-linejoin="miter" stroke="rgb(98.431373%, 60.392157%, 60%)" stroke-opacity="1" stroke-miterlimit="10" d="M 731.277344 71.660156 C 720.183594 108.332031 723.738281 143.601562 744.769531 175.609375 "/>
<path fill-rule="nonzero" fill="rgb(98.431373%, 60.392157%, 60%)" fill-opacity="1" d="M 748.6875 181.570312 L 742.832031 176.878906 L 746.707031 174.335938 L 748.6875 181.570312 "/>
<path fill="none" stroke-width="1.5" stroke-linecap="butt" stroke-linejoin="miter" stroke="rgb(98.431373%, 60.392157%, 60%)" stroke-opacity="1" stroke-miterlimit="10" d="M 690.40625 50 C 698.253906 61.992188 709.1875 70.117188 723.445312 71.113281 "/>
<path fill-rule="nonzero" fill="rgb(98.431373%, 60.392157%, 60%)" fill-opacity="1" d="M 730.5625 71.609375 L 723.285156 73.425781 L 723.605469 68.800781 L 730.5625 71.609375 "/>
<path fill="none" stroke-width="1.5" stroke-linecap="butt" stroke-linejoin="miter" stroke="rgb(98.431373%, 60.392157%, 60%)" stroke-opacity="1" stroke-miterlimit="10" d="M 654.898438 112.34375 C 674.65625 99.378906 687.320312 81.308594 689.636719 57.8125 "/>
<path fill-rule="nonzero" fill="rgb(98.431373%, 60.392157%, 60%)" fill-opacity="1" d="M 690.335938 50.714844 L 691.941406 58.039062 L 687.328125 57.585938 L 690.335938 50.714844 "/>
<path fill="none" stroke-width="1.5" stroke-linecap="butt" stroke-linejoin="miter" stroke="rgb(98.431373%, 60.392157%, 60%)" stroke-opacity="1" stroke-miterlimit="10" d="M 639.015625 681.117188 C 649.007812 644.992188 644.726562 610.570312 623.390625 579.777344 "/>
<path fill-rule="nonzero" fill="rgb(98.431373%, 60.392157%, 60%)" fill-opacity="1" d="M 619.328125 573.914062 L 625.296875 578.457031 L 621.488281 581.097656 L 619.328125 573.914062 "/>
<path fill="none" stroke-width="1.5" stroke-linecap="butt" stroke-linejoin="miter" stroke="rgb(98.431373%, 60.392157%, 60%)" stroke-opacity="1" stroke-miterlimit="10" d="M 604.976562 750 C 625.375 734.714844 637.707031 714.410156 638.707031 688.964844 "/>
<path fill-rule="nonzero" fill="rgb(98.431373%, 60.392157%, 60%)" fill-opacity="1" d="M 638.984375 681.835938 L 641.023438 689.054688 L 636.390625 688.871094 L 638.984375 681.835938 "/>
<path fill="none" stroke-width="5.5" stroke-linecap="butt" stroke-linejoin="miter" stroke="rgb(70.196078%, 70.196078%, 70.196078%)" stroke-opacity="1" stroke-miterlimit="10" d="M 50 284.632812 C 57.941406 291.476562 67.378906 295.285156 77.496094 292.789062 "/>
<path fill-rule="nonzero" fill="rgb(70.196078%, 70.196078%, 70.196078%)" fill-opacity="1" d="M 84.421875 291.082031 L 78.050781 295.039062 L 76.941406 290.539062 L 84.421875 291.082031 "/>
<path fill="none" stroke-width="3.5" stroke-linecap="butt" stroke-linejoin="miter" stroke="rgb(70.196078%, 70.196078%, 70.196078%)" stroke-opacity="1" stroke-miterlimit="10" d="M 391.460938 500.007812 C 395.238281 517.144531 404.308594 531 420.125 538.523438 "/>
<path fill-rule="nonzero" fill="rgb(70.196078%, 70.196078%, 70.196078%)" fill-opacity="1" d="M 426.566406 541.585938 L 419.128906 540.617188 L 421.121094 536.429688 L 426.566406 541.585938 "/>
<path fill="none" stroke-width="4.5" stroke-linecap="butt" stroke-linejoin="miter" stroke="rgb(70.196078%, 70.196078%, 70.196078%)" stroke-opacity="1" stroke-miterlimit="10" d="M 264.273438 249.136719 C 277.082031 251.363281 289.339844 249.234375 298.722656 240.308594 "/>
<path fill-rule="nonzero" fill="rgb(70.196078%, 70.196078%, 70.196078%)" fill-opacity="1" d="M 303.890625 235.394531 L 300.320312 241.988281 L 297.125 238.628906 L 303.890625 235.394531 "/>
<path fill="none" stroke-width="4.5" stroke-linecap="butt" stroke-linejoin="miter" stroke="rgb(70.196078%, 70.196078%, 70.196078%)" stroke-opacity="1" stroke-miterlimit="10" d="M 343.617188 285.429688 C 338.253906 317.765625 345.046875 347.398438 366.542969 372.113281 "/>
<path fill-rule="nonzero" fill="rgb(70.196078%, 70.196078%, 70.196078%)" fill-opacity="1" d="M 371.222656 377.496094 L 364.792969 373.636719 L 368.292969 370.59375 L 371.222656 377.496094 "/>
<path fill="none" stroke-width="4.5" stroke-linecap="butt" stroke-linejoin="miter" stroke="rgb(70.196078%, 70.196078%, 70.196078%)" stroke-opacity="1" stroke-miterlimit="10" d="M 305.613281 233.753906 C 308.503906 253.851562 317.863281 270.457031 335.386719 280.644531 "/>
<path fill-rule="nonzero" fill="rgb(70.196078%, 70.196078%, 70.196078%)" fill-opacity="1" d="M 341.554688 284.230469 L 334.222656 282.648438 L 336.554688 278.640625 L 341.554688 284.230469 "/>
<path fill="none" stroke-width="4.5" stroke-linecap="butt" stroke-linejoin="miter" stroke="rgb(70.196078%, 70.196078%, 70.196078%)" stroke-opacity="1" stroke-miterlimit="10" d="M 617.96875 571.949219 C 640.746094 540.761719 649.109375 506.03125 639.78125 468.574219 "/>
<path fill-rule="nonzero" fill="rgb(70.196078%, 70.196078%, 70.196078%)" fill-opacity="1" d="M 638.058594 461.652344 L 642.03125 468.015625 L 637.53125 469.136719 L 638.058594 461.652344 "/>
<path fill="none" stroke-width="1.5" stroke-linecap="butt" stroke-linejoin="miter" stroke="rgb(98.431373%, 60.392157%, 60%)" stroke-opacity="1" stroke-miterlimit="10" d="M 581.867188 645.515625 C 573.285156 681.007812 578.554688 714.378906 600.300781 743.695312 "/>
<path fill-rule="nonzero" fill="rgb(98.431373%, 60.392157%, 60%)" fill-opacity="1" d="M 604.550781 749.421875 L 598.4375 745.074219 L 602.160156 742.3125 L 604.550781 749.421875 "/>
<path fill="none" stroke-width="3.5" stroke-linecap="butt" stroke-linejoin="miter" stroke="rgb(70.196078%, 70.196078%, 70.196078%)" stroke-opacity="1" stroke-miterlimit="10" d="M 581.867188 645.515625 C 603.371094 629.515625 616.394531 608.214844 617.554688 581.460938 "/>
<path fill-rule="nonzero" fill="rgb(70.196078%, 70.196078%, 70.196078%)" fill-opacity="1" d="M 617.863281 574.335938 L 619.871094 581.5625 L 615.238281 581.359375 L 617.863281 574.335938 "/>
<path fill="none" stroke-width="3.5" stroke-linecap="butt" stroke-linejoin="miter" stroke="rgb(70.196078%, 70.196078%, 70.196078%)" stroke-opacity="1" stroke-miterlimit="10" d="M 729.875 291.332031 C 752.082031 261.847656 760.617188 228.757812 752.179688 192.839844 "/>
<path fill-rule="nonzero" fill="rgb(70.196078%, 70.196078%, 70.196078%)" fill-opacity="1" d="M 750.546875 185.894531 L 754.433594 192.308594 L 749.921875 193.367188 L 750.546875 185.894531 "/>
<path fill="none" stroke-width="3.5" stroke-linecap="butt" stroke-linejoin="miter" stroke="rgb(70.196078%, 70.196078%, 70.196078%)" stroke-opacity="1" stroke-miterlimit="10" d="M 691.316406 335.847656 C 708.53125 329.390625 721.507812 317.914062 727.015625 300.410156 "/>
<path fill-rule="nonzero" fill="rgb(70.196078%, 70.196078%, 70.196078%)" fill-opacity="1" d="M 729.160156 293.605469 L 729.226562 301.105469 L 724.808594 299.714844 L 729.160156 293.605469 "/>
<path fill="none" stroke-width="3.5" stroke-linecap="butt" stroke-linejoin="miter" stroke="rgb(70.196078%, 70.196078%, 70.196078%)" stroke-opacity="1" stroke-miterlimit="10" d="M 648.128906 334.96875 C 658.917969 341.601562 670.792969 344.125 682.492188 339.40625 "/>
<path fill-rule="nonzero" fill="rgb(70.196078%, 70.196078%, 70.196078%)" fill-opacity="1" d="M 689.109375 336.738281 L 683.359375 341.554688 L 681.625 337.253906 L 689.109375 336.738281 "/>
<path fill="none" stroke-width="1.5" stroke-linecap="butt" stroke-linejoin="miter" stroke="rgb(98.431373%, 60.392157%, 60%)" stroke-opacity="1" stroke-miterlimit="10" d="M 648.128906 334.96875 C 660.378906 294.648438 656.421875 255.921875 633.425781 220.632812 "/>
<path fill-rule="nonzero" fill="rgb(98.431373%, 60.392157%, 60%)" fill-opacity="1" d="M 629.53125 214.65625 L 635.367188 219.367188 L 631.484375 221.898438 L 629.53125 214.65625 "/>
<path fill="none" stroke-width="4.5" stroke-linecap="butt" stroke-linejoin="miter" stroke="rgb(70.196078%, 70.196078%, 70.196078%)" stroke-opacity="1" stroke-miterlimit="10" d="M 637.480469 459.332031 C 659.363281 422.941406 665.011719 384.121094 651.222656 343.976562 "/>
<path fill-rule="nonzero" fill="rgb(70.196078%, 70.196078%, 70.196078%)" fill-opacity="1" d="M 648.90625 337.230469 L 653.414062 343.222656 L 649.03125 344.726562 L 648.90625 337.230469 "/>
<path fill="none" stroke-width="4.5" stroke-linecap="butt" stroke-linejoin="miter" stroke="rgb(70.196078%, 70.196078%, 70.196078%)" stroke-opacity="1" stroke-miterlimit="10" d="M 540.023438 668.953125 C 554.425781 669.0625 567.335938 664.453125 576.074219 653.0625 "/>
<path fill-rule="nonzero" fill="rgb(70.196078%, 70.196078%, 70.196078%)" fill-opacity="1" d="M 580.417969 647.402344 L 577.914062 654.472656 L 574.238281 651.652344 L 580.417969 647.402344 "/>
<path fill="none" stroke-width="4.5" stroke-linecap="butt" stroke-linejoin="miter" stroke="rgb(70.196078%, 70.196078%, 70.196078%)" stroke-opacity="1" stroke-miterlimit="10" d="M 498.410156 667.648438 C 508.613281 674.148438 519.9375 676.78125 531.160156 672.40625 "/>
<path fill-rule="nonzero" fill="rgb(70.196078%, 70.196078%, 70.196078%)" fill-opacity="1" d="M 537.808594 669.816406 L 532.003906 674.566406 L 530.320312 670.246094 L 537.808594 669.816406 "/>
<path fill="none" stroke-width="4.5" stroke-linecap="butt" stroke-linejoin="miter" stroke="rgb(70.196078%, 70.196078%, 70.196078%)" stroke-opacity="1" stroke-miterlimit="10" d="M 428.71875 542.609375 C 425.300781 571.6875 432.527344 597.929688 452.832031 618.988281 "/>
<path fill-rule="nonzero" fill="rgb(70.196078%, 70.196078%, 70.196078%)" fill-opacity="1" d="M 457.78125 624.121094 L 451.164062 620.597656 L 454.5 617.378906 L 457.78125 624.121094 "/>
<path fill="none" stroke-width="1.5" stroke-linecap="butt" stroke-linejoin="miter" stroke="rgb(98.431373%, 60.392157%, 60%)" stroke-opacity="1" stroke-miterlimit="10" d="M 431.632812 423.839844 C 412.957031 459.511719 409.730469 496.597656 425.085938 533.804688 "/>
<path fill-rule="nonzero" fill="rgb(98.431373%, 60.392157%, 60%)" fill-opacity="1" d="M 427.808594 540.398438 L 422.945312 534.691406 L 427.230469 532.921875 L 427.808594 540.398438 "/>
<path fill="none" stroke-width="4.5" stroke-linecap="butt" stroke-linejoin="miter" stroke="rgb(70.196078%, 70.196078%, 70.196078%)" stroke-opacity="1" stroke-miterlimit="10" d="M 459.441406 625.84375 C 463.824219 643.042969 473.457031 656.742188 489.6875 663.835938 "/>
<path fill-rule="nonzero" fill="rgb(70.196078%, 70.196078%, 70.196078%)" fill-opacity="1" d="M 496.226562 666.691406 L 488.761719 665.960938 L 490.617188 661.710938 L 496.226562 666.691406 "/>
<path fill="none" stroke-width="3.5" stroke-linecap="butt" stroke-linejoin="miter" stroke="rgb(70.196078%, 70.196078%, 70.196078%)" stroke-opacity="1" stroke-miterlimit="10" d="M 228.085938 195.175781 C 230.152344 215.679688 238.9375 232.902344 256.261719 244.003906 "/>
<path fill-rule="nonzero" fill="rgb(70.196078%, 70.196078%, 70.196078%)" fill-opacity="1" d="M 262.265625 247.851562 L 255.007812 245.953125 L 257.511719 242.050781 L 262.265625 247.851562 "/>
<path fill="none" stroke-width="1.5" stroke-linecap="butt" stroke-linejoin="miter" stroke="rgb(98.431373%, 60.392157%, 60%)" stroke-opacity="1" stroke-miterlimit="10" d="M 410.519531 317.863281 C 401.105469 353.539062 405.742188 387.359375 427.089844 417.4375 "/>
<path fill-rule="nonzero" fill="rgb(98.431373%, 60.392157%, 60%)" fill-opacity="1" d="M 431.214844 423.253906 L 425.199219 418.777344 L 428.976562 416.09375 L 431.214844 423.253906 "/>
<path fill="none" stroke-width="1.5" stroke-linecap="butt" stroke-linejoin="miter" stroke="rgb(12.156863%, 47.058824%, 70.588235%)" stroke-opacity="1" stroke-miterlimit="10" d="M 410.519531 317.863281 C 434.09375 289.382812 444.109375 256.675781 437.359375 220.339844 "/>
<path fill-rule="nonzero" fill="rgb(12.156863%, 47.058824%, 70.588235%)" fill-opacity="1" d="M 436.054688 213.328125 L 439.636719 219.917969 L 435.078125 220.761719 L 436.054688 213.328125 "/>
<path fill="none" stroke-width="1.5" stroke-linecap="butt" stroke-linejoin="miter" stroke="rgb(12.156863%, 47.058824%, 70.588235%)" stroke-opacity="1" stroke-miterlimit="10" d="M 259.390625 453.460938 C 264.996094 469.507812 275.316406 481.785156 291.394531 487.199219 "/>
<path fill-rule="nonzero" fill="rgb(12.156863%, 47.058824%, 70.588235%)" fill-opacity="1" d="M 298.152344 489.476562 L 290.652344 489.398438 L 292.132812 485.003906 L 298.152344 489.476562 "/>
<path fill="none" stroke-width="1.5" stroke-linecap="butt" stroke-linejoin="miter" stroke="rgb(98.431373%, 60.392157%, 60%)" stroke-opacity="1" stroke-miterlimit="10" d="M 236.355469 350.347656 C 259.890625 324.148438 270.773438 293.386719 265.660156 258.5625 "/>
<path fill-rule="nonzero" fill="rgb(98.431373%, 60.392157%, 60%)" fill-opacity="1" d="M 264.621094 251.503906 L 267.953125 258.222656 L 263.367188 258.898438 L 264.621094 251.503906 "/>
<path fill="none" stroke-width="1.5" stroke-linecap="butt" stroke-linejoin="miter" stroke="rgb(12.156863%, 47.058824%, 70.588235%)" stroke-opacity="1" stroke-miterlimit="10" d="M 236.355469 350.347656 C 227.945312 385.371094 233.1875 418.292969 254.699219 447.164062 "/>
<path fill-rule="nonzero" fill="rgb(12.156863%, 47.058824%, 70.588235%)" fill-opacity="1" d="M 258.960938 452.882812 L 252.839844 448.546875 L 256.558594 445.78125 L 258.960938 452.882812 "/>
<path fill="none" stroke-width="3.5" stroke-linecap="butt" stroke-linejoin="miter" stroke="rgb(70.196078%, 70.196078%, 70.196078%)" stroke-opacity="1" stroke-miterlimit="10" d="M 200.558594 290.628906 C 223.058594 266.277344 233.777344 237.453125 229.355469 204.613281 "/>
<path fill-rule="nonzero" fill="rgb(70.196078%, 70.196078%, 70.196078%)" fill-opacity="1" d="M 228.40625 197.546875 L 231.652344 204.304688 L 227.058594 204.921875 L 228.40625 197.546875 "/>
<path fill="none" stroke-width="2.5" stroke-linecap="butt" stroke-linejoin="miter" stroke="rgb(70.196078%, 70.196078%, 70.196078%)" stroke-opacity="1" stroke-miterlimit="10" d="M 200.558594 290.628906 C 201.777344 312.898438 210.472656 331.878906 228.605469 344.816406 "/>
<path fill-rule="nonzero" fill="rgb(70.196078%, 70.196078%, 70.196078%)" fill-opacity="1" d="M 234.410156 348.960938 L 227.257812 346.703125 L 229.949219 342.929688 L 234.410156 348.960938 "/>
<path fill="none" stroke-width="1.5" stroke-linecap="butt" stroke-linejoin="miter" stroke="rgb(12.156863%, 47.058824%, 70.588235%)" stroke-opacity="1" stroke-miterlimit="10" d="M 338.613281 454.144531 C 359.757812 437.476562 372.226562 415.71875 372.644531 388.820312 "/>
<path fill-rule="nonzero" fill="rgb(12.156863%, 47.058824%, 70.588235%)" fill-opacity="1" d="M 372.753906 381.6875 L 374.960938 388.855469 L 370.328125 388.78125 L 372.753906 381.6875 "/>
<path fill="none" stroke-width="1.5" stroke-linecap="butt" stroke-linejoin="miter" stroke="rgb(12.156863%, 47.058824%, 70.588235%)" stroke-opacity="1" stroke-miterlimit="10" d="M 298.832031 489.707031 C 315.28125 485.722656 328.457031 476.703125 335.390625 461.304688 "/>
<path fill-rule="nonzero" fill="rgb(12.156863%, 47.058824%, 70.588235%)" fill-opacity="1" d="M 338.320312 454.800781 L 337.503906 462.257812 L 333.277344 460.355469 L 338.320312 454.800781 "/>
<path fill="none" stroke-width="3.5" stroke-linecap="butt" stroke-linejoin="miter" stroke="rgb(70.196078%, 70.196078%, 70.196078%)" stroke-opacity="1" stroke-miterlimit="10" d="M 372.792969 379.300781 C 360.398438 418.890625 363.960938 457.0625 386.324219 491.984375 "/>
<path fill-rule="nonzero" fill="rgb(70.196078%, 70.196078%, 70.196078%)" fill-opacity="1" d="M 390.171875 497.992188 L 384.371094 493.234375 L 388.277344 490.734375 L 390.171875 497.992188 "/>
<path fill="none" stroke-width="2.5" stroke-linecap="butt" stroke-linejoin="miter" stroke="rgb(70.196078%, 70.196078%, 70.196078%)" stroke-opacity="1" stroke-miterlimit="10" d="M 372.792969 379.300781 C 392.730469 367.425781 405.980469 350.246094 409.199219 327.289062 "/>
<path fill-rule="nonzero" fill="rgb(70.196078%, 70.196078%, 70.196078%)" fill-opacity="1" d="M 410.1875 320.226562 L 411.492188 327.613281 L 406.902344 326.96875 L 410.1875 320.226562 "/>
<path fill="none" stroke-width="1.5" stroke-linecap="butt" stroke-linejoin="miter" stroke="rgb(12.156863%, 47.058824%, 70.588235%)" stroke-opacity="1" stroke-miterlimit="10" d="M 469.191406 136.085938 C 485.898438 131.707031 499.15625 122.246094 505.960938 106.410156 "/>
<path fill-rule="nonzero" fill="rgb(12.156863%, 47.058824%, 70.588235%)" fill-opacity="1" d="M 508.78125 99.855469 L 508.09375 107.324219 L 503.832031 105.496094 L 508.78125 99.855469 "/>
<path fill="none" stroke-width="1.5" stroke-linecap="butt" stroke-linejoin="miter" stroke="rgb(12.156863%, 47.058824%, 70.588235%)" stroke-opacity="1" stroke-miterlimit="10" d="M 435.925781 212.621094 C 457.339844 194.726562 469.542969 171.820312 469.269531 143.9375 "/>
<path fill-rule="nonzero" fill="rgb(12.156863%, 47.058824%, 70.588235%)" fill-opacity="1" d="M 469.199219 136.804688 L 471.585938 143.914062 L 466.953125 143.957031 L 469.199219 136.804688 "/>
<path fill="none" stroke-width="5.5" stroke-linecap="butt" stroke-linejoin="miter" stroke="rgb(70.196078%, 70.196078%, 70.196078%)" stroke-opacity="1" stroke-miterlimit="10" d="M 161.398438 296.953125 C 171.960938 301.203125 182.929688 301.734375 192.511719 295.699219 "/>
<path fill-rule="nonzero" fill="rgb(70.196078%, 70.196078%, 70.196078%)" fill-opacity="1" d="M 198.546875 291.894531 L 193.746094 297.660156 L 191.277344 293.738281 L 198.546875 291.894531 "/>
<path fill="none" stroke-width="5.5" stroke-linecap="butt" stroke-linejoin="miter" stroke="rgb(70.196078%, 70.196078%, 70.196078%)" stroke-opacity="1" stroke-miterlimit="10" d="M 123.769531 295.113281 C 132.570312 301.125 142.527344 303.886719 152.472656 300.230469 "/>
<path fill-rule="nonzero" fill="rgb(70.196078%, 70.196078%, 70.196078%)" fill-opacity="1" d="M 159.171875 297.773438 L 153.273438 302.40625 L 151.675781 298.054688 L 159.171875 297.773438 "/>
<path fill="none" stroke-width="1.5" stroke-linecap="butt" stroke-linejoin="miter" stroke="rgb(12.156863%, 47.058824%, 70.588235%)" stroke-opacity="1" stroke-miterlimit="10" d="M 509.0625 99.195312 C 519.28125 106.929688 530.976562 110.585938 543.234375 107.023438 "/>
<path fill-rule="nonzero" fill="rgb(12.156863%, 47.058824%, 70.588235%)" fill-opacity="1" d="M 550.085938 105.03125 L 543.882812 109.246094 L 542.589844 104.796875 L 550.085938 105.03125 "/>
<path fill="none" stroke-width="1.5" stroke-linecap="butt" stroke-linejoin="miter" stroke="rgb(98.431373%, 60.392157%, 60%)" stroke-opacity="1" stroke-miterlimit="10" d="M 628.226562 212.652344 C 651.417969 185.988281 661.800781 154.964844 656.15625 120.09375 "/>
<path fill-rule="nonzero" fill="rgb(98.431373%, 60.392157%, 60%)" fill-opacity="1" d="M 655.015625 113.054688 L 658.441406 119.722656 L 653.867188 120.464844 L 655.015625 113.054688 "/>
<path fill="none" stroke-width="1.5" stroke-linecap="butt" stroke-linejoin="miter" stroke="rgb(12.156863%, 47.058824%, 70.588235%)" stroke-opacity="1" stroke-miterlimit="10" d="M 589.910156 150.847656 C 591.609375 174.21875 601.132812 193.945312 620.390625 207.246094 "/>
<path fill-rule="nonzero" fill="rgb(12.156863%, 47.058824%, 70.588235%)" fill-opacity="1" d="M 626.261719 211.296875 L 619.074219 209.152344 L 621.707031 205.335938 L 626.261719 211.296875 "/>
<path fill="none" stroke-width="1.5" stroke-linecap="butt" stroke-linejoin="miter" stroke="rgb(12.156863%, 47.058824%, 70.588235%)" stroke-opacity="1" stroke-miterlimit="10" d="M 550.773438 104.832031 C 555.066406 123.847656 565.28125 139.035156 582.832031 147.453125 "/>
<path fill-rule="nonzero" fill="rgb(12.156863%, 47.058824%, 70.588235%)" fill-opacity="1" d="M 589.261719 150.539062 L 581.828125 149.542969 L 583.832031 145.363281 L 589.261719 150.539062 "/>
<path fill="none" stroke-width="5.5" stroke-linecap="butt" stroke-linejoin="miter" stroke="rgb(70.196078%, 70.196078%, 70.196078%)" stroke-opacity="1" stroke-miterlimit="10" d="M 86.730469 290.511719 C 94.949219 297.097656 104.554688 300.578125 114.625 297.714844 "/>
<path fill-rule="nonzero" fill="rgb(70.196078%, 70.196078%, 70.196078%)" fill-opacity="1" d="M 121.484375 295.761719 L 115.257812 299.941406 L 113.992188 295.484375 L 121.484375 295.761719 "/>
<path fill-rule="nonzero" fill="rgb(98.431373%, 60.392157%, 60%)" fill-opacity="1" stroke-width="1" stroke-linecap="butt" stroke-linejoin="miter" stroke="rgb(98.431373%, 60.392157%, 60%)" stroke-opacity="1" stroke-miterlimit="10" d="M 732.027344 71.660156 C 732.027344 72.660156 730.527344 72.660156 730.527344 71.660156 C 730.527344 70.660156 732.027344 70.660156 732.027344 71.660156 "/>
<path fill-rule="nonzero" fill="rgb(98.431373%, 60.392157%, 60%)" fill-opacity="1" stroke-width="1" stroke-linecap="butt" stroke-linejoin="miter" stroke="rgb(98.431373%, 60.392157%, 60%)" stroke-opacity="1" stroke-miterlimit="10" d="M 691.15625 50 C 691.15625 51 689.65625 51 689.65625 50 C 689.65625 49 691.15625 49 691.15625 50 "/>
<path fill-rule="nonzero" fill="rgb(98.431373%, 60.392157%, 60%)" fill-opacity="1" stroke-width="1" stroke-linecap="butt" stroke-linejoin="miter" stroke="rgb(98.431373%, 60.392157%, 60%)" stroke-opacity="1" stroke-miterlimit="10" d="M 655.648438 112.34375 C 655.648438 113.34375 654.148438 113.34375 654.148438 112.34375 C 654.148438 111.34375 655.648438 111.34375 655.648438 112.34375 "/>
<path fill-rule="nonzero" fill="rgb(98.431373%, 60.392157%, 60%)" fill-opacity="1" stroke-width="1" stroke-linecap="butt" stroke-linejoin="miter" stroke="rgb(98.431373%, 60.392157%, 60%)" stroke-opacity="1" stroke-miterlimit="10" d="M 639.765625 681.117188 C 639.765625 682.117188 638.265625 682.117188 638.265625 681.117188 C 638.265625 680.117188 639.765625 680.117188 639.765625 681.117188 "/>
<path fill-rule="nonzero" fill="rgb(98.431373%, 60.392157%, 60%)" fill-opacity="1" stroke-width="1" stroke-linecap="butt" stroke-linejoin="miter" stroke="rgb(98.431373%, 60.392157%, 60%)" stroke-opacity="1" stroke-miterlimit="10" d="M 605.726562 750 C 605.726562 751 604.226562 751 604.226562 750 C 604.226562 749 605.726562 749 605.726562 750 "/>
<path fill-rule="nonzero" fill="rgb(100%, 84.313725%, 0%)" fill-opacity="1" stroke-width="1" stroke-linecap="butt" stroke-linejoin="miter" stroke="rgb(100%, 84.313725%, 0%)" stroke-opacity="1" stroke-miterlimit="10" d="M 47.5 282.132812 L 52.5 282.132812 L 52.5 287.132812 L 47.5 287.132812 Z M 47.5 282.132812 "/>
<path fill-rule="nonzero" fill="rgb(70.196078%, 70.196078%, 70.196078%)" fill-opacity="1" stroke-width="1" stroke-linecap="butt" stroke-linejoin="miter" stroke="rgb(70.196078%, 70.196078%, 70.196078%)" stroke-opacity="1" stroke-miterlimit="10" d="M 393.960938 500.007812 C 393.960938 503.339844 388.960938 503.339844 388.960938 500.007812 C 388.960938 496.671875 393.960938 496.671875 393.960938 500.007812 "/>
<path fill-rule="nonzero" fill="rgb(70.196078%, 70.196078%, 70.196078%)" fill-opacity="1" stroke-width="1" stroke-linecap="butt" stroke-linejoin="miter" stroke="rgb(70.196078%, 70.196078%, 70.196078%)" stroke-opacity="1" stroke-miterlimit="10" d="M 266.773438 249.136719 C 266.773438 252.472656 261.773438 252.472656 261.773438 249.136719 C 261.773438 245.804688 266.773438 245.804688 266.773438 249.136719 "/>
<path fill-rule="nonzero" fill="rgb(70.196078%, 70.196078%, 70.196078%)" fill-opacity="1" stroke-width="1" stroke-linecap="butt" stroke-linejoin="miter" stroke="rgb(70.196078%, 70.196078%, 70.196078%)" stroke-opacity="1" stroke-miterlimit="10" d="M 346.117188 285.429688 C 346.117188 288.765625 341.117188 288.765625 341.117188 285.429688 C 341.117188 282.097656 346.117188 282.097656 346.117188 285.429688 "/>
<path fill-rule="nonzero" fill="rgb(70.196078%, 70.196078%, 70.196078%)" fill-opacity="1" stroke-width="1" stroke-linecap="butt" stroke-linejoin="miter" stroke="rgb(70.196078%, 70.196078%, 70.196078%)" stroke-opacity="1" stroke-miterlimit="10" d="M 308.113281 233.753906 C 308.113281 237.085938 303.113281 237.085938 303.113281 233.753906 C 303.113281 230.417969 308.113281 230.417969 308.113281 233.753906 "/>
<path fill-rule="nonzero" fill="rgb(14.901961%, 14.901961%, 14.901961%)" fill-opacity="1" stroke-width="1" stroke-linecap="butt" stroke-linejoin="miter" stroke="rgb(14.901961%, 14.901961%, 14.901961%)" stroke-opacity="1" stroke-miterlimit="10" d="M 747.5 186.066406 L 750 181.066406 L 752.5 186.066406 Z M 747.5 186.066406 "/>
<path fill-rule="nonzero" fill="rgb(70.196078%, 70.196078%, 70.196078%)" fill-opacity="1" stroke-width="1" stroke-linecap="butt" stroke-linejoin="miter" stroke="rgb(70.196078%, 70.196078%, 70.196078%)" stroke-opacity="1" stroke-miterlimit="10" d="M 620.46875 571.949219 C 620.46875 575.28125 615.46875 575.28125 615.46875 571.949219 C 615.46875 568.617188 620.46875 568.617188 620.46875 571.949219 "/>
<path fill-rule="nonzero" fill="rgb(70.196078%, 70.196078%, 70.196078%)" fill-opacity="1" stroke-width="1" stroke-linecap="butt" stroke-linejoin="miter" stroke="rgb(70.196078%, 70.196078%, 70.196078%)" stroke-opacity="1" stroke-miterlimit="10" d="M 584.367188 645.515625 C 584.367188 648.847656 579.367188 648.847656 579.367188 645.515625 C 579.367188 642.179688 584.367188 642.179688 584.367188 645.515625 "/>
<path fill-rule="nonzero" fill="rgb(70.196078%, 70.196078%, 70.196078%)" fill-opacity="1" stroke-width="1" stroke-linecap="butt" stroke-linejoin="miter" stroke="rgb(70.196078%, 70.196078%, 70.196078%)" stroke-opacity="1" stroke-miterlimit="10" d="M 732.375 291.332031 C 732.375 294.664062 727.375 294.664062 727.375 291.332031 C 727.375 288 732.375 288 732.375 291.332031 "/>
<path fill-rule="nonzero" fill="rgb(70.196078%, 70.196078%, 70.196078%)" fill-opacity="1" stroke-width="1" stroke-linecap="butt" stroke-linejoin="miter" stroke="rgb(70.196078%, 70.196078%, 70.196078%)" stroke-opacity="1" stroke-miterlimit="10" d="M 693.816406 335.847656 C 693.816406 339.179688 688.816406 339.179688 688.816406 335.847656 C 688.816406 332.511719 693.816406 332.511719 693.816406 335.847656 "/>
<path fill-rule="nonzero" fill="rgb(70.196078%, 70.196078%, 70.196078%)" fill-opacity="1" stroke-width="1" stroke-linecap="butt" stroke-linejoin="miter" stroke="rgb(70.196078%, 70.196078%, 70.196078%)" stroke-opacity="1" stroke-miterlimit="10" d="M 650.628906 334.96875 C 650.628906 338.300781 645.628906 338.300781 645.628906 334.96875 C 645.628906 331.632812 650.628906 331.632812 650.628906 334.96875 "/>
<path fill-rule="nonzero" fill="rgb(70.196078%, 70.196078%, 70.196078%)" fill-opacity="1" stroke-width="1" stroke-linecap="butt" stroke-linejoin="miter" stroke="rgb(70.196078%, 70.196078%, 70.196078%)" stroke-opacity="1" stroke-miterlimit="10" d="M 639.980469 459.332031 C 639.980469 462.667969 634.980469 462.667969 634.980469 459.332031 C 634.980469 456 639.980469 456 639.980469 459.332031 "/>
<path fill-rule="nonzero" fill="rgb(70.196078%, 70.196078%, 70.196078%)" fill-opacity="1" stroke-width="1" stroke-linecap="butt" stroke-linejoin="miter" stroke="rgb(70.196078%, 70.196078%, 70.196078%)" stroke-opacity="1" stroke-miterlimit="10" d="M 542.523438 668.953125 C 542.523438 672.285156 537.523438 672.285156 537.523438 668.953125 C 537.523438 665.621094 542.523438 665.621094 542.523438 668.953125 "/>
<path fill-rule="nonzero" fill="rgb(70.196078%, 70.196078%, 70.196078%)" fill-opacity="1" stroke-width="1" stroke-linecap="butt" stroke-linejoin="miter" stroke="rgb(70.196078%, 70.196078%, 70.196078%)" stroke-opacity="1" stroke-miterlimit="10" d="M 500.910156 667.648438 C 500.910156 670.980469 495.910156 670.980469 495.910156 667.648438 C 495.910156 664.316406 500.910156 664.316406 500.910156 667.648438 "/>
<path fill-rule="nonzero" fill="rgb(70.196078%, 70.196078%, 70.196078%)" fill-opacity="1" stroke-width="1" stroke-linecap="butt" stroke-linejoin="miter" stroke="rgb(70.196078%, 70.196078%, 70.196078%)" stroke-opacity="1" stroke-miterlimit="10" d="M 431.21875 542.609375 C 431.21875 545.941406 426.21875 545.941406 426.21875 542.609375 C 426.21875 539.277344 431.21875 539.277344 431.21875 542.609375 "/>
<path fill-rule="nonzero" fill="rgb(98.431373%, 60.392157%, 60%)" fill-opacity="1" stroke-width="1" stroke-linecap="butt" stroke-linejoin="miter" stroke="rgb(98.431373%, 60.392157%, 60%)" stroke-opacity="1" stroke-miterlimit="10" d="M 432.382812 423.839844 C 432.382812 424.839844 430.882812 424.839844 430.882812 423.839844 C 430.882812 422.839844 432.382812 422.839844 432.382812 423.839844 "/>
<path fill-rule="nonzero" fill="rgb(70.196078%, 70.196078%, 70.196078%)" fill-opacity="1" stroke-width="1" stroke-linecap="butt" stroke-linejoin="miter" stroke="rgb(70.196078%, 70.196078%, 70.196078%)" stroke-opacity="1" stroke-miterlimit="10" d="M 461.941406 625.84375 C 461.941406 629.175781 456.941406 629.175781 456.941406 625.84375 C 456.941406 622.507812 461.941406 622.507812 461.941406 625.84375 "/>
<path fill-rule="nonzero" fill="rgb(70.196078%, 70.196078%, 70.196078%)" fill-opacity="1" stroke-width="1" stroke-linecap="butt" stroke-linejoin="miter" stroke="rgb(70.196078%, 70.196078%, 70.196078%)" stroke-opacity="1" stroke-miterlimit="10" d="M 230.585938 195.175781 C 230.585938 198.511719 225.585938 198.511719 225.585938 195.175781 C 225.585938 191.84375 230.585938 191.84375 230.585938 195.175781 "/>
<path fill-rule="nonzero" fill="rgb(70.196078%, 70.196078%, 70.196078%)" fill-opacity="1" stroke-width="1" stroke-linecap="butt" stroke-linejoin="miter" stroke="rgb(70.196078%, 70.196078%, 70.196078%)" stroke-opacity="1" stroke-miterlimit="10" d="M 413.019531 317.863281 C 413.019531 321.195312 408.019531 321.195312 408.019531 317.863281 C 408.019531 314.53125 413.019531 314.53125 413.019531 317.863281 "/>
<path fill-rule="nonzero" fill="rgb(12.156863%, 47.058824%, 70.588235%)" fill-opacity="1" stroke-width="1" stroke-linecap="butt" stroke-linejoin="miter" stroke="rgb(12.156863%, 47.058824%, 70.588235%)" stroke-opacity="1" stroke-miterlimit="10" d="M 260.140625 453.460938 C 260.140625 454.460938 258.640625 454.460938 258.640625 453.460938 C 258.640625 452.460938 260.140625 452.460938 260.140625 453.460938 "/>
<path fill-rule="nonzero" fill="rgb(70.196078%, 70.196078%, 70.196078%)" fill-opacity="1" stroke-width="1" stroke-linecap="butt" stroke-linejoin="miter" stroke="rgb(70.196078%, 70.196078%, 70.196078%)" stroke-opacity="1" stroke-miterlimit="10" d="M 238.855469 350.347656 C 238.855469 353.679688 233.855469 353.679688 233.855469 350.347656 C 233.855469 347.011719 238.855469 347.011719 238.855469 350.347656 "/>
<path fill-rule="nonzero" fill="rgb(70.196078%, 70.196078%, 70.196078%)" fill-opacity="1" stroke-width="1" stroke-linecap="butt" stroke-linejoin="miter" stroke="rgb(70.196078%, 70.196078%, 70.196078%)" stroke-opacity="1" stroke-miterlimit="10" d="M 203.058594 290.628906 C 203.058594 293.960938 198.058594 293.960938 198.058594 290.628906 C 198.058594 287.296875 203.058594 287.296875 203.058594 290.628906 "/>
<path fill-rule="nonzero" fill="rgb(12.156863%, 47.058824%, 70.588235%)" fill-opacity="1" stroke-width="1" stroke-linecap="butt" stroke-linejoin="miter" stroke="rgb(12.156863%, 47.058824%, 70.588235%)" stroke-opacity="1" stroke-miterlimit="10" d="M 339.363281 454.144531 C 339.363281 455.144531 337.863281 455.144531 337.863281 454.144531 C 337.863281 453.144531 339.363281 453.144531 339.363281 454.144531 "/>
<path fill-rule="nonzero" fill="rgb(12.156863%, 47.058824%, 70.588235%)" fill-opacity="1" stroke-width="1" stroke-linecap="butt" stroke-linejoin="miter" stroke="rgb(12.156863%, 47.058824%, 70.588235%)" stroke-opacity="1" stroke-miterlimit="10" d="M 299.582031 489.707031 C 299.582031 490.707031 298.082031 490.707031 298.082031 489.707031 C 298.082031 488.707031 299.582031 488.707031 299.582031 489.707031 "/>
<path fill-rule="nonzero" fill="rgb(70.196078%, 70.196078%, 70.196078%)" fill-opacity="1" stroke-width="1" stroke-linecap="butt" stroke-linejoin="miter" stroke="rgb(70.196078%, 70.196078%, 70.196078%)" stroke-opacity="1" stroke-miterlimit="10" d="M 375.292969 379.300781 C 375.292969 382.632812 370.292969 382.632812 370.292969 379.300781 C 370.292969 375.964844 375.292969 375.964844 375.292969 379.300781 "/>
<path fill-rule="nonzero" fill="rgb(12.156863%, 47.058824%, 70.588235%)" fill-opacity="1" stroke-width="1" stroke-linecap="butt" stroke-linejoin="miter" stroke="rgb(12.156863%, 47.058824%, 70.588235%)" stroke-opacity="1" stroke-miterlimit="10" d="M 469.941406 136.085938 C 469.941406 137.085938 468.441406 137.085938 468.441406 136.085938 C 468.441406 135.085938 469.941406 135.085938 469.941406 136.085938 "/>
<path fill-rule="nonzero" fill="rgb(12.156863%, 47.058824%, 70.588235%)" fill-opacity="1" stroke-width="1" stroke-linecap="butt" stroke-linejoin="miter" stroke="rgb(12.156863%, 47.058824%, 70.588235%)" stroke-opacity="1" stroke-miterlimit="10" d="M 436.675781 212.621094 C 436.675781 213.621094 435.175781 213.621094 435.175781 212.621094 C 435.175781 211.621094 436.675781 211.621094 436.675781 212.621094 "/>
<path fill-rule="nonzero" fill="rgb(70.196078%, 70.196078%, 70.196078%)" fill-opacity="1" stroke-width="1" stroke-linecap="butt" stroke-linejoin="miter" stroke="rgb(70.196078%, 70.196078%, 70.196078%)" stroke-opacity="1" stroke-miterlimit="10" d="M 163.898438 296.953125 C 163.898438 300.285156 158.898438 300.285156 158.898438 296.953125 C 158.898438 293.621094 163.898438 293.621094 163.898438 296.953125 "/>
<path fill-rule="nonzero" fill="rgb(70.196078%, 70.196078%, 70.196078%)" fill-opacity="1" stroke-width="1" stroke-linecap="butt" stroke-linejoin="miter" stroke="rgb(70.196078%, 70.196078%, 70.196078%)" stroke-opacity="1" stroke-miterlimit="10" d="M 126.269531 295.113281 C 126.269531 298.445312 121.269531 298.445312 121.269531 295.113281 C 121.269531 291.777344 126.269531 291.777344 126.269531 295.113281 "/>
<path fill-rule="nonzero" fill="rgb(12.156863%, 47.058824%, 70.588235%)" fill-opacity="1" stroke-width="1" stroke-linecap="butt" stroke-linejoin="miter" stroke="rgb(12.156863%, 47.058824%, 70.588235%)" stroke-opacity="1" stroke-miterlimit="10" d="M 509.8125 99.195312 C 509.8125 100.195312 508.3125 100.195312 508.3125 99.195312 C 508.3125 98.195312 509.8125 98.195312 509.8125 99.195312 "/>
<path fill-rule="nonzero" fill="rgb(14.901961%, 14.901961%, 14.901961%)" fill-opacity="1" stroke-width="1" stroke-linecap="butt" stroke-linejoin="miter" stroke="rgb(14.901961%, 14.901961%, 14.901961%)" stroke-opacity="1" stroke-miterlimit="10" d="M 625.726562 215.152344 L 628.226562 210.152344 L 630.726562 215.152344 Z M 625.726562 215.152344 "/>
<path fill-rule="nonzero" fill="rgb(12.156863%, 47.058824%, 70.588235%)" fill-opacity="1" stroke-width="1" stroke-linecap="butt" stroke-linejoin="miter" stroke="rgb(12.156863%, 47.058824%, 70.588235%)" stroke-opacity="1" stroke-miterlimit="10" d="M 590.660156 150.847656 C 590.660156 151.847656 589.160156 151.847656 589.160156 150.847656 C 589.160156 149.847656 590.660156 149.847656 590.660156 150.847656 "/>
<path fill-rule="nonzero" fill="rgb(12.156863%, 47.058824%, 70.588235%)" fill-opacity="1" stroke-width="1" stroke-linecap="butt" stroke-linejoin="miter" stroke="rgb(12.156863%, 47.058824%, 70.588235%)" stroke-opacity="1" stroke-miterlimit="10" d="M 551.523438 104.832031 C 551.523438 105.832031 550.023438 105.832031 550.023438 104.832031 C 550.023438 103.832031 551.523438 103.832031 551.523438 104.832031 "/>
<path fill-rule="nonzero" fill="rgb(70.196078%, 70.196078%, 70.196078%)" fill-opacity="1" stroke-width="1" stroke-linecap="butt" stroke-linejoin="miter" stroke="rgb(70.196078%, 70.196078%, 70.196078%)" stroke-opacity="1" stroke-miterlimit="10" d="M 89.230469 290.511719 C 89.230469 293.847656 84.230469 293.847656 84.230469 290.511719 C 84.230469 287.179688 89.230469 287.179688 89.230469 290.511719 "/>
</svg>
