<?xml version="1.0" encoding="UTF-8"?>
<svg xmlns="http://www.w3.org/2000/svg" xmlns:xlink="http://www.w3.org/1999/xlink" width="800" height="800" viewBox="0 0 800 800">
<rect x="-80" y="-80" width="960" height="960" fill="rgb(100%, 100%, 100%)" fill-opacity="1"/>
<path fill="none" stroke-width="2.5" stroke-linecap="butt" stroke-linejoin="miter" stroke="rgb(30.196078%, 68.627451%, 29.019608%)" stroke-opacity="1" stroke-miterlimit="10" d="M 82.773438 270.046875 C 84.933594 260.738281 84.121094 251.382812 77.710938 244.394531 "/>
<path fill-rule="nonzero" fill="rgb(30.196078%, 68.627451%, 29.019608%)" fill-opacity="1" d="M 72.886719 239.140625 L 79.417969 242.828125 L 76 245.964844 L 72.886719 239.140625 "/>
<path fill="none" stroke-width="3.5" stroke-linecap="butt" stroke-linejoin="miter" stroke="rgb(70.196078%, 70.196078%, 70.196078%)" stroke-opacity="1" stroke-miterlimit="10" d="M 82.773438 270.046875 C 74.421875 272.445312 67.265625 277.210938 64.632812 285.410156 "/>
<path fill-rule="nonzero" fill="rgb(70.196078%, 70.196078%, 70.196078%)" fill-opacity="1" d="M 62.449219 292.203125 L 62.425781 284.703125 L 66.839844 286.117188 L 62.449219 292.203125 "/>
<path fill="none" stroke-width="2.5" stroke-linecap="butt" stroke-linejoin="miter" stroke="rgb(70.196078%, 70.196078%, 70.196078%)" stroke-opacity="1" stroke-miterlimit="10" d="M 82.773438 270.046875 C 92.714844 252.195312 95.394531 233.175781 87.535156 214.351562 "/>
<path fill-rule="nonzero" fill="rgb(70.196078%, 70.196078%, 70.196078%)" fill-opacity="1" d="M 84.789062 207.769531 L 89.675781 213.457031 L 85.398438 215.242188 L 84.789062 207.769531 "/>
<path fill="none" stroke-width="1.5" stroke-linecap="butt" stroke-linejoin="miter" stroke="rgb(30.196078%, 68.627451%, 29.019608%)" stroke-opacity="1" stroke-miterlimit="10" d="M 68.578125 234.449219 C 66.386719 243.582031 67.097656 252.804688 73.363281 259.695312 "/>
<path fill-rule="nonzero" fill="rgb(30.196078%, 68.627451%, 29.019608%)" fill-opacity="1" d="M 78.160156 264.972656 L 71.648438 261.253906 L 75.078125 258.136719 L 78.160156 264.972656 "/>
<path fill="none" stroke-width="1.5" stroke-linecap="butt" stroke-linejoin="miter" stroke="rgb(98.431373%, 60.392157%, 60%)" stroke-opacity="1" stroke-miterlimit="10" d="M 75.410156 143.988281 C 79.5 129.246094 78.285156 114.773438 69.066406 102.621094 "/>
<path fill-rule="nonzero" fill="rgb(98.431373%, 60.392157%, 60%)" fill-opacity="1" d="M 64.753906 96.9375 L 70.914062 101.21875 L 67.21875 104.019531 L 64.753906 96.9375 "/>
<path fill="none" stroke-width="1.5" stroke-linecap="butt" stroke-linejoin="miter" stroke="rgb(12.156863%, 47.058824%, 70.588235%)" stroke-opacity="1" stroke-miterlimit="10" d="M 74.773438 686.109375 C 71.261719 683.035156 66.78125 680.742188 62.554688 682.378906 "/>
<path fill-rule="nonzero" fill="rgb(12.156863%, 47.058824%, 70.588235%)" fill-opacity="1" d="M 55.90625 684.960938 L 61.71875 680.21875 L 63.394531 684.539062 L 55.90625 684.960938 "/>
<path fill="none" stroke-width="2.5" stroke-linecap="butt" stroke-linejoin="miter" stroke="rgb(12.156863%, 47.058824%, 70.588235%)" stroke-opacity="1" stroke-miterlimit="10" d="M 74.773438 686.109375 C 64.113281 702.875 60.433594 721.1875 67 739.902344 "/>
<path fill-rule="nonzero" fill="rgb(12.156863%, 47.058824%, 70.588235%)" fill-opacity="1" d="M 69.359375 746.632812 L 64.8125 740.667969 L 69.1875 739.136719 L 69.359375 746.632812 "/>
<path fill="none" stroke-width="1.5" stroke-linecap="butt" stroke-linejoin="miter" stroke="rgb(12.156863%, 47.058824%, 70.588235%)" stroke-opacity="1" stroke-miterlimit="10" d="M 53.320312 685.964844 C 56.480469 688.953125 60.617188 691.328125 64.554688 689.875 "/>
<path fill-rule="nonzero" fill="rgb(12.156863%, 47.058824%, 70.588235%)" fill-opacity="1" d="M 71.25 687.410156 L 65.359375 692.050781 L 63.753906 687.699219 L 71.25 687.410156 "/>
<path fill="none" stroke-width="4.5" stroke-linecap="butt" stroke-linejoin="miter" stroke="rgb(70.196078%, 70.196078%, 70.196078%)" stroke-opacity="1" stroke-miterlimit="10" d="M 110.929688 366.648438 C 115.632812 351.660156 114.894531 336.753906 105.832031 323.972656 "/>
<path fill-rule="nonzero" fill="rgb(70.196078%, 70.196078%, 70.196078%)" fill-opacity="1" d="M 101.707031 318.152344 L 107.722656 322.632812 L 103.941406 325.3125 L 101.707031 318.152344 "/>
<path fill="none" stroke-width="3.5" stroke-linecap="butt" stroke-linejoin="miter" stroke="rgb(70.196078%, 70.196078%, 70.196078%)" stroke-opacity="1" stroke-miterlimit="10" d="M 60.957031 296.851562 C 68.75 294.910156 75.632812 290.765625 78.222656 283.257812 "/>
<path fill-rule="nonzero" fill="rgb(70.196078%, 70.196078%, 70.196078%)" fill-opacity="1" d="M 80.546875 276.511719 L 80.410156 284.011719 L 76.03125 282.5 L 80.546875 276.511719 "/>
<path fill="none" stroke-width="4.5" stroke-linecap="butt" stroke-linejoin="miter" stroke="rgb(70.196078%, 70.196078%, 70.196078%)" stroke-opacity="1" stroke-miterlimit="10" d="M 98.863281 314.140625 C 101.617188 301.929688 100.242188 289.949219 92.023438 280.585938 "/>
<path fill-rule="nonzero" fill="rgb(70.196078%, 70.196078%, 70.196078%)" fill-opacity="1" d="M 87.320312 275.226562 L 93.765625 279.058594 L 90.28125 282.113281 L 87.320312 275.226562 "/>
<path fill="none" stroke-width="1.5" stroke-linecap="butt" stroke-linejoin="miter" stroke="rgb(98.431373%, 60.392157%, 60%)" stroke-opacity="1" stroke-miterlimit="10" d="M 63.171875 94.851562 C 66.527344 81.792969 65.328125 68.953125 56.878906 58.507812 "/>
<path fill-rule="nonzero" fill="rgb(98.431373%, 60.392157%, 60%)" fill-opacity="1" d="M 52.394531 52.960938 L 58.683594 57.050781 L 55.078125 59.964844 L 52.394531 52.960938 "/>
<path fill="none" stroke-width="1.5" stroke-linecap="butt" stroke-linejoin="miter" stroke="rgb(12.156863%, 47.058824%, 70.588235%)" stroke-opacity="1" stroke-miterlimit="10" d="M 70.542969 750 C 81.203125 733.234375 84.878906 714.921875 78.316406 696.207031 "/>
<path fill-rule="nonzero" fill="rgb(12.156863%, 47.058824%, 70.588235%)" fill-opacity="1" d="M 75.953125 689.476562 L 80.503906 695.441406 L 76.128906 696.972656 L 75.953125 689.476562 "/>
<path fill="none" stroke-width="5.5" stroke-linecap="butt" stroke-linejoin="miter" stroke="rgb(70.196078%, 70.196078%, 70.196078%)" stroke-opacity="1" stroke-miterlimit="10" d="M 219.992188 498.824219 C 218.179688 495.140625 215.28125 491.601562 211.339844 491.660156 "/>
<path fill-rule="nonzero" fill="rgb(70.196078%, 70.196078%, 70.196078%)" fill-opacity="1" d="M 204.207031 491.769531 L 211.300781 489.34375 L 211.375 493.976562 L 204.207031 491.769531 "/>
<path fill="none" stroke-width="1.5" stroke-linecap="butt" stroke-linejoin="miter" stroke="rgb(12.156863%, 47.058824%, 70.588235%)" stroke-opacity="1" stroke-miterlimit="10" d="M 105.0625 709.984375 C 110.664062 693.183594 109.984375 676.484375 100.175781 661.78125 "/>
<path fill-rule="nonzero" fill="rgb(12.156863%, 47.058824%, 70.588235%)" fill-opacity="1" d="M 96.21875 655.847656 L 102.105469 660.496094 L 98.25 663.066406 L 96.21875 655.847656 "/>
<path fill="none" stroke-width="1.5" stroke-linecap="butt" stroke-linejoin="miter" stroke="rgb(12.156863%, 47.058824%, 70.588235%)" stroke-opacity="1" stroke-miterlimit="10" d="M 118.105469 541.4375 C 106.574219 554.589844 100.796875 570.0625 104.105469 587.199219 "/>
<path fill-rule="nonzero" fill="rgb(12.156863%, 47.058824%, 70.588235%)" fill-opacity="1" d="M 105.460938 594.203125 L 101.832031 587.640625 L 106.382812 586.761719 L 105.460938 594.203125 "/>
<path fill="none" stroke-width="1.5" stroke-linecap="butt" stroke-linejoin="miter" stroke="rgb(12.156863%, 47.058824%, 70.588235%)" stroke-opacity="1" stroke-miterlimit="10" d="M 146.289062 514.675781 C 147.941406 506.207031 146.972656 497.71875 140.902344 491.699219 "/>
<path fill-rule="nonzero" fill="rgb(12.156863%, 47.058824%, 70.588235%)" fill-opacity="1" d="M 135.839844 486.679688 L 142.535156 490.054688 L 139.273438 493.347656 L 135.839844 486.679688 "/>
<path fill="none" stroke-width="1.5" stroke-linecap="butt" stroke-linejoin="miter" stroke="rgb(41.568627%, 23.921569%, 60.392157%)" stroke-opacity="1" stroke-miterlimit="10" d="M 82.890625 203.21875 C 75.78125 207.148438 70.160156 212.988281 69.570312 221.003906 "/>
<path fill-rule="nonzero" fill="rgb(41.568627%, 23.921569%, 60.392157%)" fill-opacity="1" d="M 69.042969 228.117188 L 67.257812 220.832031 L 71.878906 221.171875 L 69.042969 228.117188 "/>
<path fill="none" stroke-width="1.5" stroke-linecap="butt" stroke-linejoin="miter" stroke="rgb(98.431373%, 60.392157%, 60%)" stroke-opacity="1" stroke-miterlimit="10" d="M 82.890625 203.21875 C 89.675781 185.898438 89.808594 168.378906 80.367188 152.386719 "/>
<path fill-rule="nonzero" fill="rgb(98.431373%, 60.392157%, 60%)" fill-opacity="1" d="M 76.742188 146.246094 L 82.363281 151.210938 L 78.371094 153.566406 L 76.742188 146.246094 "/>
<path fill="none" stroke-width="1.5" stroke-linecap="butt" stroke-linejoin="miter" stroke="rgb(12.156863%, 47.058824%, 70.588235%)" stroke-opacity="1" stroke-miterlimit="10" d="M 132.019531 482.894531 C 119.476562 496.863281 113.160156 513.375 116.414062 531.832031 "/>
<path fill-rule="nonzero" fill="rgb(12.156863%, 47.058824%, 70.588235%)" fill-opacity="1" d="M 117.652344 538.855469 L 114.132812 532.234375 L 118.695312 531.429688 L 117.652344 538.855469 "/>
<path fill="none" stroke-width="4.5" stroke-linecap="butt" stroke-linejoin="miter" stroke="rgb(70.196078%, 70.196078%, 70.196078%)" stroke-opacity="1" stroke-miterlimit="10" d="M 132.019531 482.894531 C 138.1875 465.699219 137.871094 448.457031 128.09375 433.070312 "/>
<path fill-rule="nonzero" fill="rgb(70.196078%, 70.196078%, 70.196078%)" fill-opacity="1" d="M 124.269531 427.050781 L 130.050781 431.828125 L 126.140625 434.3125 L 124.269531 427.050781 "/>
<path fill="none" stroke-width="5.5" stroke-linecap="butt" stroke-linejoin="miter" stroke="rgb(70.196078%, 70.196078%, 70.196078%)" stroke-opacity="1" stroke-miterlimit="10" d="M 260.53125 513.628906 C 258.890625 509.945312 256.171875 506.34375 252.308594 506.273438 "/>
<path fill-rule="nonzero" fill="rgb(70.196078%, 70.196078%, 70.196078%)" fill-opacity="1" d="M 245.175781 506.152344 L 252.347656 503.957031 L 252.265625 508.59375 L 245.175781 506.152344 "/>
<path fill="none" stroke-width="1.5" stroke-linecap="butt" stroke-linejoin="miter" stroke="rgb(12.156863%, 47.058824%, 70.588235%)" stroke-opacity="1" stroke-miterlimit="10" d="M 94.5 653.273438 C 85.175781 657.910156 78.015625 665.078125 76.441406 675.304688 "/>
<path fill-rule="nonzero" fill="rgb(12.156863%, 47.058824%, 70.588235%)" fill-opacity="1" d="M 75.351562 682.355469 L 74.148438 674.953125 L 78.730469 675.660156 L 75.351562 682.355469 "/>
<path fill="none" stroke-width="1.5" stroke-linecap="butt" stroke-linejoin="miter" stroke="rgb(12.156863%, 47.058824%, 70.588235%)" stroke-opacity="1" stroke-miterlimit="10" d="M 94.5 653.273438 C 88.917969 670.246094 89.683594 687.082031 99.625 701.886719 "/>
<path fill-rule="nonzero" fill="rgb(12.156863%, 47.058824%, 70.588235%)" fill-opacity="1" d="M 103.601562 707.808594 L 97.699219 703.179688 L 101.546875 700.59375 L 103.601562 707.808594 "/>
<path fill="none" stroke-width="1.5" stroke-linecap="butt" stroke-linejoin="miter" stroke="rgb(12.156863%, 47.058824%, 70.588235%)" stroke-opacity="1" stroke-miterlimit="10" d="M 105.957031 596.777344 C 94.472656 610.242188 88.847656 625.96875 92.425781 643.261719 "/>
<path fill-rule="nonzero" fill="rgb(12.156863%, 47.058824%, 70.588235%)" fill-opacity="1" d="M 93.875 650.246094 L 90.15625 643.730469 L 94.695312 642.792969 L 93.875 650.246094 "/>
<path fill="none" stroke-width="1.5" stroke-linecap="butt" stroke-linejoin="miter" stroke="rgb(12.156863%, 47.058824%, 70.588235%)" stroke-opacity="1" stroke-miterlimit="10" d="M 156.480469 477.214844 C 148.503906 484.695312 143.550781 494.050781 144.980469 504.832031 "/>
<path fill-rule="nonzero" fill="rgb(12.156863%, 47.058824%, 70.588235%)" fill-opacity="1" d="M 145.921875 511.902344 L 142.683594 505.136719 L 147.28125 504.527344 L 145.921875 511.902344 "/>
<path fill="none" stroke-width="4.5" stroke-linecap="butt" stroke-linejoin="miter" stroke="rgb(70.196078%, 70.196078%, 70.196078%)" stroke-opacity="1" stroke-miterlimit="10" d="M 156.480469 477.214844 C 151.980469 474.753906 146.683594 473.414062 142.488281 476.128906 "/>
<path fill-rule="nonzero" fill="rgb(70.196078%, 70.196078%, 70.196078%)" fill-opacity="1" d="M 136.5 480 L 141.230469 474.183594 L 143.746094 478.074219 L 136.5 480 "/>
<path fill="none" stroke-width="5.5" stroke-linecap="butt" stroke-linejoin="miter" stroke="rgb(70.196078%, 70.196078%, 70.196078%)" stroke-opacity="1" stroke-miterlimit="10" d="M 178.394531 484.644531 C 176.230469 480.59375 172.890625 476.886719 168.445312 476.972656 "/>
<path fill-rule="nonzero" fill="rgb(70.196078%, 70.196078%, 70.196078%)" fill-opacity="1" d="M 161.316406 477.117188 L 168.398438 474.65625 L 168.492188 479.292969 L 161.316406 477.117188 "/>
<path fill="none" stroke-width="5.5" stroke-linecap="butt" stroke-linejoin="miter" stroke="rgb(70.196078%, 70.196078%, 70.196078%)" stroke-opacity="1" stroke-miterlimit="10" d="M 199.378906 491.847656 C 197.476562 488.039062 194.453125 484.433594 190.355469 484.488281 "/>
<path fill-rule="nonzero" fill="rgb(70.196078%, 70.196078%, 70.196078%)" fill-opacity="1" d="M 183.222656 484.582031 L 190.324219 482.171875 L 190.386719 486.804688 L 183.222656 484.582031 "/>
<path fill="none" stroke-width="4.5" stroke-linecap="butt" stroke-linejoin="miter" stroke="rgb(70.196078%, 70.196078%, 70.196078%)" stroke-opacity="1" stroke-miterlimit="10" d="M 121.628906 422.894531 C 127.191406 406.890625 126.8125 390.859375 117.542969 376.726562 "/>
<path fill-rule="nonzero" fill="rgb(70.196078%, 70.196078%, 70.196078%)" fill-opacity="1" d="M 113.628906 370.765625 L 119.480469 375.457031 L 115.605469 378 L 113.628906 370.765625 "/>
<path fill="none" stroke-width="5.5" stroke-linecap="butt" stroke-linejoin="miter" stroke="rgb(70.196078%, 70.196078%, 70.196078%)" stroke-opacity="1" stroke-miterlimit="10" d="M 280.570312 521.449219 C 278.992188 517.75 276.332031 514.117188 272.480469 514 "/>
<path fill-rule="nonzero" fill="rgb(70.196078%, 70.196078%, 70.196078%)" fill-opacity="1" d="M 265.351562 513.777344 L 272.554688 511.683594 L 272.410156 516.316406 L 265.351562 513.777344 "/>
<path fill="none" stroke-width="5.5" stroke-linecap="butt" stroke-linejoin="miter" stroke="rgb(70.196078%, 70.196078%, 70.196078%)" stroke-opacity="1" stroke-miterlimit="10" d="M 240.351562 506.066406 C 238.636719 502.394531 235.835938 498.832031 231.949219 498.828125 "/>
<path fill-rule="nonzero" fill="rgb(70.196078%, 70.196078%, 70.196078%)" fill-opacity="1" d="M 224.816406 498.828125 L 231.949219 496.511719 L 231.949219 501.148438 L 224.816406 498.828125 "/>
<path fill="none" stroke-width="5.5" stroke-linecap="butt" stroke-linejoin="miter" stroke="rgb(70.196078%, 70.196078%, 70.196078%)" stroke-opacity="1" stroke-miterlimit="10" d="M 320.378906 537.375 C 318.859375 533.691406 316.265625 530.050781 312.457031 529.894531 "/>
<path fill-rule="nonzero" fill="rgb(70.196078%, 70.196078%, 70.196078%)" fill-opacity="1" d="M 305.332031 529.605469 L 312.550781 527.582031 L 312.363281 532.210938 L 305.332031 529.605469 "/>
<path fill="none" stroke-width="5.5" stroke-linecap="butt" stroke-linejoin="miter" stroke="rgb(70.196078%, 70.196078%, 70.196078%)" stroke-opacity="1" stroke-miterlimit="10" d="M 399.597656 560.171875 C 396.941406 557.859375 393.359375 555.898438 390.375 557.378906 "/>
<path fill-rule="nonzero" fill="rgb(70.196078%, 70.196078%, 70.196078%)" fill-opacity="1" d="M 383.984375 560.546875 L 389.34375 555.300781 L 391.40625 559.453125 L 383.984375 560.546875 "/>
<path fill="none" stroke-width="5.5" stroke-linecap="butt" stroke-linejoin="miter" stroke="rgb(70.196078%, 70.196078%, 70.196078%)" stroke-opacity="1" stroke-miterlimit="10" d="M 300.511719 529.410156 C 298.972656 525.714844 296.351562 522.066406 292.519531 521.914062 "/>
<path fill-rule="nonzero" fill="rgb(70.196078%, 70.196078%, 70.196078%)" fill-opacity="1" d="M 285.390625 521.636719 L 292.609375 519.597656 L 292.429688 524.230469 L 285.390625 521.636719 "/>
<path fill="none" stroke-width="5.5" stroke-linecap="butt" stroke-linejoin="miter" stroke="rgb(70.196078%, 70.196078%, 70.196078%)" stroke-opacity="1" stroke-miterlimit="10" d="M 419.472656 561.0625 C 417.308594 558.363281 414.171875 555.832031 411.046875 556.761719 "/>
<path fill-rule="nonzero" fill="rgb(70.196078%, 70.196078%, 70.196078%)" fill-opacity="1" d="M 404.210938 558.800781 L 410.386719 554.542969 L 411.707031 558.984375 L 404.210938 558.800781 "/>
<path fill="none" stroke-width="5.5" stroke-linecap="butt" stroke-linejoin="miter" stroke="rgb(70.196078%, 70.196078%, 70.196078%)" stroke-opacity="1" stroke-miterlimit="10" d="M 379.671875 562.6875 C 378.324219 558.726562 375.859375 554.792969 371.863281 554.320312 "/>
<path fill-rule="nonzero" fill="rgb(70.196078%, 70.196078%, 70.196078%)" fill-opacity="1" d="M 364.78125 553.476562 L 372.136719 552.019531 L 371.589844 556.621094 L 364.78125 553.476562 "/>
<path fill="none" stroke-width="5.5" stroke-linecap="butt" stroke-linejoin="miter" stroke="rgb(70.196078%, 70.196078%, 70.196078%)" stroke-opacity="1" stroke-miterlimit="10" d="M 359.988281 552.90625 C 358.476562 549.28125 355.902344 545.679688 352.148438 545.554688 "/>
<path fill-rule="nonzero" fill="rgb(70.196078%, 70.196078%, 70.196078%)" fill-opacity="1" d="M 345.019531 545.320312 L 352.226562 543.238281 L 352.070312 547.871094 L 345.019531 545.320312 "/>
<path fill="none" stroke-width="5.5" stroke-linecap="butt" stroke-linejoin="miter" stroke="rgb(70.196078%, 70.196078%, 70.196078%)" stroke-opacity="1" stroke-miterlimit="10" d="M 340.199219 545.160156 C 338.683594 541.519531 336.097656 537.910156 332.328125 537.78125 "/>
<path fill-rule="nonzero" fill="rgb(70.196078%, 70.196078%, 70.196078%)" fill-opacity="1" d="M 325.199219 537.539062 L 332.40625 535.464844 L 332.246094 540.097656 L 325.199219 537.539062 "/>
<path fill="none" stroke-width="5.5" stroke-linecap="butt" stroke-linejoin="miter" stroke="rgb(70.196078%, 70.196078%, 70.196078%)" stroke-opacity="1" stroke-miterlimit="10" d="M 439.355469 559.011719 C 436.785156 556.648438 433.28125 554.605469 430.296875 556.003906 "/>
<path fill-rule="nonzero" fill="rgb(70.196078%, 70.196078%, 70.196078%)" fill-opacity="1" d="M 423.835938 559.023438 L 429.316406 553.902344 L 431.277344 558.101562 L 423.835938 559.023438 "/>
<path fill="none" stroke-width="5.5" stroke-linecap="butt" stroke-linejoin="miter" stroke="rgb(70.196078%, 70.196078%, 70.196078%)" stroke-opacity="1" stroke-miterlimit="10" d="M 459.175781 557.671875 C 456.734375 555.238281 453.34375 553.074219 450.351562 554.34375 "/>
<path fill-rule="nonzero" fill="rgb(70.196078%, 70.196078%, 70.196078%)" fill-opacity="1" d="M 443.785156 557.132812 L 449.445312 552.210938 L 451.253906 556.476562 L 443.785156 557.132812 "/>
<path fill="none" stroke-width="5.5" stroke-linecap="butt" stroke-linejoin="miter" stroke="rgb(70.196078%, 70.196078%, 70.196078%)" stroke-opacity="1" stroke-miterlimit="10" d="M 692.644531 434.003906 C 687.085938 434.296875 681.53125 436.105469 679.097656 440.976562 "/>
<path fill-rule="nonzero" fill="rgb(70.196078%, 70.196078%, 70.196078%)" fill-opacity="1" d="M 675.914062 447.359375 L 677.027344 439.941406 L 681.171875 442.011719 L 675.914062 447.359375 "/>
<path fill="none" stroke-width="5.5" stroke-linecap="butt" stroke-linejoin="miter" stroke="rgb(70.196078%, 70.196078%, 70.196078%)" stroke-opacity="1" stroke-miterlimit="10" d="M 478.984375 554.546875 C 476.269531 552.320312 472.636719 550.46875 469.710938 552.035156 "/>
<path fill-rule="nonzero" fill="rgb(70.196078%, 70.196078%, 70.196078%)" fill-opacity="1" d="M 463.421875 555.402344 L 468.617188 549.992188 L 470.804688 554.078125 L 463.421875 555.402344 "/>
<path fill="none" stroke-width="5.5" stroke-linecap="butt" stroke-linejoin="miter" stroke="rgb(70.196078%, 70.196078%, 70.196078%)" stroke-opacity="1" stroke-miterlimit="10" d="M 538.039062 531.898438 C 534.117188 530.574219 529.535156 530.136719 526.769531 532.996094 "/>
<path fill-rule="nonzero" fill="rgb(70.196078%, 70.196078%, 70.196078%)" fill-opacity="1" d="M 521.808594 538.121094 L 525.101562 531.382812 L 528.433594 534.605469 L 521.808594 538.121094 "/>
<path fill="none" stroke-width="5.5" stroke-linecap="butt" stroke-linejoin="miter" stroke="rgb(70.196078%, 70.196078%, 70.196078%)" stroke-opacity="1" stroke-miterlimit="10" d="M 498.761719 549.277344 C 495.679688 547.308594 491.738281 545.875 488.867188 547.828125 "/>
<path fill-rule="nonzero" fill="rgb(70.196078%, 70.196078%, 70.196078%)" fill-opacity="1" d="M 482.96875 551.839844 L 487.5625 545.910156 L 490.171875 549.746094 L 482.96875 551.839844 "/>
<path fill="none" stroke-width="5.5" stroke-linecap="butt" stroke-linejoin="miter" stroke="rgb(70.196078%, 70.196078%, 70.196078%)" stroke-opacity="1" stroke-miterlimit="10" d="M 518.449219 541.589844 C 514.921875 539.953125 510.625 539.042969 507.816406 541.46875 "/>
<path fill-rule="nonzero" fill="rgb(70.196078%, 70.196078%, 70.196078%)" fill-opacity="1" d="M 502.414062 546.125 L 506.300781 539.710938 L 509.328125 543.222656 L 502.414062 546.125 "/>
<path fill="none" stroke-width="5.5" stroke-linecap="butt" stroke-linejoin="miter" stroke="rgb(70.196078%, 70.196078%, 70.196078%)" stroke-opacity="1" stroke-miterlimit="10" d="M 557.5 519.800781 C 553.078125 518.898438 548.160156 519.085938 545.457031 522.507812 "/>
<path fill-rule="nonzero" fill="rgb(70.196078%, 70.196078%, 70.196078%)" fill-opacity="1" d="M 541.035156 528.105469 L 543.636719 521.070312 L 547.273438 523.945312 L 541.035156 528.105469 "/>
<path fill="none" stroke-width="5.5" stroke-linecap="butt" stroke-linejoin="miter" stroke="rgb(70.196078%, 70.196078%, 70.196078%)" stroke-opacity="1" stroke-miterlimit="10" d="M 595.601562 486.035156 C 589.738281 486.65625 584.039062 488.890625 581.671875 494.164062 "/>
<path fill-rule="nonzero" fill="rgb(70.196078%, 70.196078%, 70.196078%)" fill-opacity="1" d="M 578.753906 500.671875 L 579.558594 493.214844 L 583.789062 495.113281 L 578.753906 500.671875 "/>
<path fill="none" stroke-width="5.5" stroke-linecap="butt" stroke-linejoin="miter" stroke="rgb(70.196078%, 70.196078%, 70.196078%)" stroke-opacity="1" stroke-miterlimit="10" d="M 576.765625 505.101562 C 571.800781 504.714844 566.554688 505.628906 563.945312 509.710938 "/>
<path fill-rule="nonzero" fill="rgb(70.196078%, 70.196078%, 70.196078%)" fill-opacity="1" d="M 560.105469 515.722656 L 561.992188 508.464844 L 565.898438 510.960938 L 560.105469 515.722656 "/>
<path fill="none" stroke-width="5.5" stroke-linecap="butt" stroke-linejoin="miter" stroke="rgb(70.196078%, 70.196078%, 70.196078%)" stroke-opacity="1" stroke-miterlimit="10" d="M 732.027344 423.003906 C 728.390625 421.472656 724.011719 420.710938 721.226562 423.269531 "/>
<path fill-rule="nonzero" fill="rgb(70.196078%, 70.196078%, 70.196078%)" fill-opacity="1" d="M 715.972656 428.09375 L 719.660156 421.5625 L 722.792969 424.976562 L 715.972656 428.09375 "/>
<path fill="none" stroke-width="5.5" stroke-linecap="butt" stroke-linejoin="miter" stroke="rgb(70.196078%, 70.196078%, 70.196078%)" stroke-opacity="1" stroke-miterlimit="10" d="M 654.105469 458.632812 C 650.84375 456.804688 646.753906 455.585938 643.914062 457.734375 "/>
<path fill-rule="nonzero" fill="rgb(70.196078%, 70.196078%, 70.196078%)" fill-opacity="1" d="M 638.222656 462.035156 L 642.515625 455.882812 L 645.308594 459.582031 L 638.222656 462.035156 "/>
<path fill="none" stroke-width="5.5" stroke-linecap="butt" stroke-linejoin="miter" stroke="rgb(70.196078%, 70.196078%, 70.196078%)" stroke-opacity="1" stroke-miterlimit="10" d="M 615.53125 483.597656 C 612.886719 481.273438 609.3125 479.300781 606.324219 480.765625 "/>
<path fill-rule="nonzero" fill="rgb(70.196078%, 70.196078%, 70.196078%)" fill-opacity="1" d="M 599.921875 483.910156 L 605.304688 478.6875 L 607.347656 482.847656 L 599.921875 483.910156 "/>
<path fill="none" stroke-width="5.5" stroke-linecap="butt" stroke-linejoin="miter" stroke="rgb(70.196078%, 70.196078%, 70.196078%)" stroke-opacity="1" stroke-miterlimit="10" d="M 634.375 464.9375 C 628.605469 465.460938 622.949219 467.570312 620.566406 472.722656 "/>
<path fill-rule="nonzero" fill="rgb(70.196078%, 70.196078%, 70.196078%)" fill-opacity="1" d="M 617.570312 479.195312 L 618.460938 471.746094 L 622.667969 473.695312 L 617.570312 479.195312 "/>
<path fill="none" stroke-width="5.5" stroke-linecap="butt" stroke-linejoin="miter" stroke="rgb(70.196078%, 70.196078%, 70.196078%)" stroke-opacity="1" stroke-miterlimit="10" d="M 673.746094 451.699219 C 670.386719 449.960938 666.222656 448.882812 663.417969 451.140625 "/>
<path fill-rule="nonzero" fill="rgb(70.196078%, 70.196078%, 70.196078%)" fill-opacity="1" d="M 657.863281 455.613281 L 661.964844 449.332031 L 664.871094 452.945312 L 657.863281 455.613281 "/>
<path fill="none" stroke-width="5.5" stroke-linecap="butt" stroke-linejoin="miter" stroke="rgb(70.196078%, 70.196078%, 70.196078%)" stroke-opacity="1" stroke-miterlimit="10" d="M 750 398.539062 C 743.136719 400.617188 737.082031 404.609375 735.207031 411.433594 "/>
<path fill-rule="nonzero" fill="rgb(70.196078%, 70.196078%, 70.196078%)" fill-opacity="1" d="M 733.320312 418.3125 L 732.972656 410.820312 L 737.445312 412.046875 L 733.320312 418.3125 "/>
<path fill="none" stroke-width="5.5" stroke-linecap="butt" stroke-linejoin="miter" stroke="rgb(70.196078%, 70.196078%, 70.196078%)" stroke-opacity="1" stroke-miterlimit="10" d="M 712.417969 431.355469 C 709.792969 429.078125 706.238281 427.140625 703.308594 428.621094 "/>
<path fill-rule="nonzero" fill="rgb(70.196078%, 70.196078%, 70.196078%)" fill-opacity="1" d="M 696.941406 431.835938 L 702.265625 426.550781 L 704.355469 430.6875 L 696.941406 431.835938 "/>
<path fill-rule="nonzero" fill="rgb(14.901961%, 14.901961%, 14.901961%)" fill-opacity="1" stroke-width="1" stroke-linecap="butt" stroke-linejoin="miter" stroke="rgb(14.901961%, 14.901961%, 14.901961%)" stroke-opacity="1" stroke-miterlimit="10" d="M 75.925781 276.898438 L 82.773438 263.199219 L 89.625 276.898438 Z M 75.925781 276.898438 "/>
<path fill-rule="nonzero" fill="rgb(14.901961%, 14.901961%, 14.901961%)" fill-opacity="1" stroke-width="1" stroke-linecap="butt" stroke-linejoin="miter" stroke="rgb(14.901961%, 14.901961%, 14.901961%)" stroke-opacity="1" stroke-miterlimit="10" d="M 62.226562 240.800781 L 68.578125 228.101562 L 74.929688 240.800781 Z M 62.226562 240.800781 "/>
<path fill-rule="nonzero" fill="rgb(98.431373%, 60.392157%, 60%)" fill-opacity="1" stroke-width="1" stroke-linecap="butt" stroke-linejoin="miter" stroke="rgb(98.431373%, 60.392157%, 60%)" stroke-opacity="1" stroke-miterlimit="10" d="M 78.160156 143.988281 C 78.160156 147.65625 72.660156 147.65625 72.660156 143.988281 C 72.660156 140.324219 78.160156 140.324219 78.160156 143.988281 "/>
<path fill-rule="nonzero" fill="rgb(14.901961%, 14.901961%, 14.901961%)" fill-opacity="1" stroke-width="1" stroke-linecap="butt" stroke-linejoin="miter" stroke="rgb(14.901961%, 14.901961%, 14.901961%)" stroke-opacity="1" stroke-miterlimit="10" d="M 46.25 53.75 L 50 46.25 L 53.75 53.75 Z M 46.25 53.75 "/>
<path fill-rule="nonzero" fill="rgb(12.156863%, 47.058824%, 70.588235%)" fill-opacity="1" stroke-width="1" stroke-linecap="butt" stroke-linejoin="miter" stroke="rgb(12.156863%, 47.058824%, 70.588235%)" stroke-opacity="1" stroke-miterlimit="10" d="M 78.523438 686.109375 C 78.523438 691.109375 71.023438 691.109375 71.023438 686.109375 C 71.023438 681.109375 78.523438 681.109375 78.523438 686.109375 "/>
<path fill-rule="nonzero" fill="rgb(12.156863%, 47.058824%, 70.588235%)" fill-opacity="1" stroke-width="1" stroke-linecap="butt" stroke-linejoin="miter" stroke="rgb(12.156863%, 47.058824%, 70.588235%)" stroke-opacity="1" stroke-miterlimit="10" d="M 56.070312 685.964844 C 56.070312 689.632812 50.570312 689.632812 50.570312 685.964844 C 50.570312 682.296875 56.070312 682.296875 56.070312 685.964844 "/>
<path fill-rule="nonzero" fill="rgb(70.196078%, 70.196078%, 70.196078%)" fill-opacity="1" stroke-width="1" stroke-linecap="butt" stroke-linejoin="miter" stroke="rgb(70.196078%, 70.196078%, 70.196078%)" stroke-opacity="1" stroke-miterlimit="10" d="M 115.777344 366.648438 C 115.777344 373.117188 106.078125 373.117188 106.078125 366.648438 C 106.078125 360.183594 115.777344 360.183594 115.777344 366.648438 "/>
<path fill-rule="nonzero" fill="rgb(70.196078%, 70.196078%, 70.196078%)" fill-opacity="1" stroke-width="1" stroke-linecap="butt" stroke-linejoin="miter" stroke="rgb(70.196078%, 70.196078%, 70.196078%)" stroke-opacity="1" stroke-miterlimit="10" d="M 65.808594 296.851562 C 65.808594 303.316406 56.109375 303.316406 56.109375 296.851562 C 56.109375 290.382812 65.808594 290.382812 65.808594 296.851562 "/>
<path fill-rule="nonzero" fill="rgb(70.196078%, 70.196078%, 70.196078%)" fill-opacity="1" stroke-width="1" stroke-linecap="butt" stroke-linejoin="miter" stroke="rgb(70.196078%, 70.196078%, 70.196078%)" stroke-opacity="1" stroke-miterlimit="10" d="M 103.714844 314.140625 C 103.714844 320.609375 94.011719 320.609375 94.011719 314.140625 C 94.011719 307.675781 103.714844 307.675781 103.714844 314.140625 "/>
<path fill-rule="nonzero" fill="rgb(98.431373%, 60.392157%, 60%)" fill-opacity="1" stroke-width="1" stroke-linecap="butt" stroke-linejoin="miter" stroke="rgb(98.431373%, 60.392157%, 60%)" stroke-opacity="1" stroke-miterlimit="10" d="M 65.921875 94.851562 C 65.921875 98.519531 60.421875 98.519531 60.421875 94.851562 C 60.421875 91.183594 65.921875 91.183594 65.921875 94.851562 "/>
<path fill-rule="nonzero" fill="rgb(14.901961%, 14.901961%, 14.901961%)" fill-opacity="1" stroke-width="1" stroke-linecap="butt" stroke-linejoin="miter" stroke="rgb(14.901961%, 14.901961%, 14.901961%)" stroke-opacity="1" stroke-miterlimit="10" d="M 66.792969 753.75 L 70.542969 746.25 L 74.292969 753.75 Z M 66.792969 753.75 "/>
<path fill-rule="nonzero" fill="rgb(70.196078%, 70.196078%, 70.196078%)" fill-opacity="1" stroke-width="1" stroke-linecap="butt" stroke-linejoin="miter" stroke="rgb(70.196078%, 70.196078%, 70.196078%)" stroke-opacity="1" stroke-miterlimit="10" d="M 224.839844 498.824219 C 224.839844 505.292969 215.140625 505.292969 215.140625 498.824219 C 215.140625 492.359375 224.839844 492.359375 224.839844 498.824219 "/>
<path fill-rule="nonzero" fill="rgb(12.156863%, 47.058824%, 70.588235%)" fill-opacity="1" stroke-width="1" stroke-linecap="butt" stroke-linejoin="miter" stroke="rgb(12.156863%, 47.058824%, 70.588235%)" stroke-opacity="1" stroke-miterlimit="10" d="M 107.8125 709.984375 C 107.8125 713.652344 102.3125 713.652344 102.3125 709.984375 C 102.3125 706.316406 107.8125 706.316406 107.8125 709.984375 "/>
<path fill-rule="nonzero" fill="rgb(12.156863%, 47.058824%, 70.588235%)" fill-opacity="1" stroke-width="1" stroke-linecap="butt" stroke-linejoin="miter" stroke="rgb(12.156863%, 47.058824%, 70.588235%)" stroke-opacity="1" stroke-miterlimit="10" d="M 120.855469 541.4375 C 120.855469 545.101562 115.355469 545.101562 115.355469 541.4375 C 115.355469 537.769531 120.855469 537.769531 120.855469 541.4375 "/>
<path fill-rule="nonzero" fill="rgb(12.156863%, 47.058824%, 70.588235%)" fill-opacity="1" stroke-width="1" stroke-linecap="butt" stroke-linejoin="miter" stroke="rgb(12.156863%, 47.058824%, 70.588235%)" stroke-opacity="1" stroke-miterlimit="10" d="M 149.039062 514.675781 C 149.039062 518.339844 143.539062 518.339844 143.539062 514.675781 C 143.539062 511.007812 149.039062 511.007812 149.039062 514.675781 "/>
<path fill-rule="nonzero" fill="rgb(70.196078%, 70.196078%, 70.196078%)" fill-opacity="1" stroke-width="1" stroke-linecap="butt" stroke-linejoin="miter" stroke="rgb(70.196078%, 70.196078%, 70.196078%)" stroke-opacity="1" stroke-miterlimit="10" d="M 87.742188 203.21875 C 87.742188 209.683594 78.039062 209.683594 78.039062 203.21875 C 78.039062 196.75 87.742188 196.75 87.742188 203.21875 "/>
<path fill-rule="nonzero" fill="rgb(70.196078%, 70.196078%, 70.196078%)" fill-opacity="1" stroke-width="1" stroke-linecap="butt" stroke-linejoin="miter" stroke="rgb(70.196078%, 70.196078%, 70.196078%)" stroke-opacity="1" stroke-miterlimit="10" d="M 137.371094 482.894531 C 137.371094 490.027344 126.671875 490.027344 126.671875 482.894531 C 126.671875 475.761719 137.371094 475.761719 137.371094 482.894531 "/>
<path fill-rule="nonzero" fill="rgb(70.196078%, 70.196078%, 70.196078%)" fill-opacity="1" stroke-width="1" stroke-linecap="butt" stroke-linejoin="miter" stroke="rgb(70.196078%, 70.196078%, 70.196078%)" stroke-opacity="1" stroke-miterlimit="10" d="M 265.378906 513.628906 C 265.378906 520.097656 255.679688 520.097656 255.679688 513.628906 C 255.679688 507.164062 265.378906 507.164062 265.378906 513.628906 "/>
<path fill-rule="nonzero" fill="rgb(12.156863%, 47.058824%, 70.588235%)" fill-opacity="1" stroke-width="1" stroke-linecap="butt" stroke-linejoin="miter" stroke="rgb(12.156863%, 47.058824%, 70.588235%)" stroke-opacity="1" stroke-miterlimit="10" d="M 97.75 653.273438 C 97.75 657.609375 91.25 657.609375 91.25 653.273438 C 91.25 648.941406 97.75 648.941406 97.75 653.273438 "/>
<path fill-rule="nonzero" fill="rgb(12.156863%, 47.058824%, 70.588235%)" fill-opacity="1" stroke-width="1" stroke-linecap="butt" stroke-linejoin="miter" stroke="rgb(12.156863%, 47.058824%, 70.588235%)" stroke-opacity="1" stroke-miterlimit="10" d="M 108.707031 596.777344 C 108.707031 600.445312 103.207031 600.445312 103.207031 596.777344 C 103.207031 593.109375 108.707031 593.109375 108.707031 596.777344 "/>
<path fill-rule="nonzero" fill="rgb(70.196078%, 70.196078%, 70.196078%)" fill-opacity="1" stroke-width="1" stroke-linecap="butt" stroke-linejoin="miter" stroke="rgb(70.196078%, 70.196078%, 70.196078%)" stroke-opacity="1" stroke-miterlimit="10" d="M 161.332031 477.214844 C 161.332031 483.679688 151.632812 483.679688 151.632812 477.214844 C 151.632812 470.746094 161.332031 470.746094 161.332031 477.214844 "/>
<path fill-rule="nonzero" fill="rgb(70.196078%, 70.196078%, 70.196078%)" fill-opacity="1" stroke-width="1" stroke-linecap="butt" stroke-linejoin="miter" stroke="rgb(70.196078%, 70.196078%, 70.196078%)" stroke-opacity="1" stroke-miterlimit="10" d="M 183.246094 484.644531 C 183.246094 491.109375 173.542969 491.109375 173.542969 484.644531 C 173.542969 478.175781 183.246094 478.175781 183.246094 484.644531 "/>
<path fill-rule="nonzero" fill="rgb(70.196078%, 70.196078%, 70.196078%)" fill-opacity="1" stroke-width="1" stroke-linecap="butt" stroke-linejoin="miter" stroke="rgb(70.196078%, 70.196078%, 70.196078%)" stroke-opacity="1" stroke-miterlimit="10" d="M 204.230469 491.847656 C 204.230469 498.3125 194.53125 498.3125 194.53125 491.847656 C 194.53125 485.378906 204.230469 485.378906 204.230469 491.847656 "/>
<path fill-rule="nonzero" fill="rgb(70.196078%, 70.196078%, 70.196078%)" fill-opacity="1" stroke-width="1" stroke-linecap="butt" stroke-linejoin="miter" stroke="rgb(70.196078%, 70.196078%, 70.196078%)" stroke-opacity="1" stroke-miterlimit="10" d="M 126.476562 422.894531 C 126.476562 429.359375 116.777344 429.359375 116.777344 422.894531 C 116.777344 416.425781 126.476562 416.425781 126.476562 422.894531 "/>
<path fill-rule="nonzero" fill="rgb(70.196078%, 70.196078%, 70.196078%)" fill-opacity="1" stroke-width="1" stroke-linecap="butt" stroke-linejoin="miter" stroke="rgb(70.196078%, 70.196078%, 70.196078%)" stroke-opacity="1" stroke-miterlimit="10" d="M 285.421875 521.449219 C 285.421875 527.914062 275.71875 527.914062 275.71875 521.449219 C 275.71875 514.980469 285.421875 514.980469 285.421875 521.449219 "/>
<path fill-rule="nonzero" fill="rgb(70.196078%, 70.196078%, 70.196078%)" fill-opacity="1" stroke-width="1" stroke-linecap="butt" stroke-linejoin="miter" stroke="rgb(70.196078%, 70.196078%, 70.196078%)" stroke-opacity="1" stroke-miterlimit="10" d="M 245.203125 506.066406 C 245.203125 512.535156 235.5 512.535156 235.5 506.066406 C 235.5 499.601562 245.203125 499.601562 245.203125 506.066406 "/>
<path fill-rule="nonzero" fill="rgb(70.196078%, 70.196078%, 70.196078%)" fill-opacity="1" stroke-width="1" stroke-linecap="butt" stroke-linejoin="miter" stroke="rgb(70.196078%, 70.196078%, 70.196078%)" stroke-opacity="1" stroke-miterlimit="10" d="M 325.226562 537.375 C 325.226562 543.839844 315.527344 543.839844 315.527344 537.375 C 315.527344 530.90625 325.226562 530.90625 325.226562 537.375 "/>
<path fill-rule="nonzero" fill="rgb(70.196078%, 70.196078%, 70.196078%)" fill-opacity="1" stroke-width="1" stroke-linecap="butt" stroke-linejoin="miter" stroke="rgb(70.196078%, 70.196078%, 70.196078%)" stroke-opacity="1" stroke-miterlimit="10" d="M 404.449219 560.171875 C 404.449219 566.640625 394.746094 566.640625 394.746094 560.171875 C 394.746094 553.707031 404.449219 553.707031 404.449219 560.171875 "/>
<path fill-rule="nonzero" fill="rgb(70.196078%, 70.196078%, 70.196078%)" fill-opacity="1" stroke-width="1" stroke-linecap="butt" stroke-linejoin="miter" stroke="rgb(70.196078%, 70.196078%, 70.196078%)" stroke-opacity="1" stroke-miterlimit="10" d="M 305.359375 529.410156 C 305.359375 535.878906 295.660156 535.878906 295.660156 529.410156 C 295.660156 522.945312 305.359375 522.945312 305.359375 529.410156 "/>
<path fill-rule="nonzero" fill="rgb(70.196078%, 70.196078%, 70.196078%)" fill-opacity="1" stroke-width="1" stroke-linecap="butt" stroke-linejoin="miter" stroke="rgb(70.196078%, 70.196078%, 70.196078%)" stroke-opacity="1" stroke-miterlimit="10" d="M 424.324219 561.0625 C 424.324219 567.527344 414.625 567.527344 414.625 561.0625 C 414.625 554.59375 424.324219 554.59375 424.324219 561.0625 "/>
<path fill-rule="nonzero" fill="rgb(70.196078%, 70.196078%, 70.196078%)" fill-opacity="1" stroke-width="1" stroke-linecap="butt" stroke-linejoin="miter" stroke="rgb(70.196078%, 70.196078%, 70.196078%)" stroke-opacity="1" stroke-miterlimit="10" d="M 384.523438 562.6875 C 384.523438 569.152344 374.820312 569.152344 374.820312 562.6875 C 374.820312 556.21875 384.523438 556.21875 384.523438 562.6875 "/>
<path fill-rule="nonzero" fill="rgb(70.196078%, 70.196078%, 70.196078%)" fill-opacity="1" stroke-width="1" stroke-linecap="butt" stroke-linejoin="miter" stroke="rgb(70.196078%, 70.196078%, 70.196078%)" stroke-opacity="1" stroke-miterlimit="10" d="M 364.839844 552.90625 C 364.839844 559.375 355.136719 559.375 355.136719 552.90625 C 355.136719 546.441406 364.839844 546.441406 364.839844 552.90625 "/>
<path fill-rule="nonzero" fill="rgb(70.196078%, 70.196078%, 70.196078%)" fill-opacity="1" stroke-width="1" stroke-linecap="butt" stroke-linejoin="miter" stroke="rgb(70.196078%, 70.196078%, 70.196078%)" stroke-opacity="1" stroke-miterlimit="10" d="M 345.050781 545.160156 C 345.050781 551.625 335.347656 551.625 335.347656 545.160156 C 335.347656 538.691406 345.050781 538.691406 345.050781 545.160156 "/>
<path fill-rule="nonzero" fill="rgb(70.196078%, 70.196078%, 70.196078%)" fill-opacity="1" stroke-width="1" stroke-linecap="butt" stroke-linejoin="miter" stroke="rgb(70.196078%, 70.196078%, 70.196078%)" stroke-opacity="1" stroke-miterlimit="10" d="M 444.203125 559.011719 C 444.203125 565.476562 434.503906 565.476562 434.503906 559.011719 C 434.503906 552.546875 444.203125 552.546875 444.203125 559.011719 "/>
<path fill-rule="nonzero" fill="rgb(70.196078%, 70.196078%, 70.196078%)" fill-opacity="1" stroke-width="1" stroke-linecap="butt" stroke-linejoin="miter" stroke="rgb(70.196078%, 70.196078%, 70.196078%)" stroke-opacity="1" stroke-miterlimit="10" d="M 464.027344 557.671875 C 464.027344 564.140625 454.324219 564.140625 454.324219 557.671875 C 454.324219 551.207031 464.027344 551.207031 464.027344 557.671875 "/>
<path fill-rule="nonzero" fill="rgb(70.196078%, 70.196078%, 70.196078%)" fill-opacity="1" stroke-width="1" stroke-linecap="butt" stroke-linejoin="miter" stroke="rgb(70.196078%, 70.196078%, 70.196078%)" stroke-opacity="1" stroke-miterlimit="10" d="M 697.496094 434.003906 C 697.496094 440.472656 687.796875 440.472656 687.796875 434.003906 C 687.796875 427.539062 697.496094 427.539062 697.496094 434.003906 "/>
<path fill-rule="nonzero" fill="rgb(70.196078%, 70.196078%, 70.196078%)" fill-opacity="1" stroke-width="1" stroke-linecap="butt" stroke-linejoin="miter" stroke="rgb(70.196078%, 70.196078%, 70.196078%)" stroke-opacity="1" stroke-miterlimit="10" d="M 483.835938 554.546875 C 483.835938 561.015625 474.136719 561.015625 474.136719 554.546875 C 474.136719 548.082031 483.835938 548.082031 483.835938 554.546875 "/>
<path fill-rule="nonzero" fill="rgb(70.196078%, 70.196078%, 70.196078%)" fill-opacity="1" stroke-width="1" stroke-linecap="butt" stroke-linejoin="miter" stroke="rgb(70.196078%, 70.196078%, 70.196078%)" stroke-opacity="1" stroke-miterlimit="10" d="M 542.890625 531.898438 C 542.890625 538.363281 533.191406 538.363281 533.191406 531.898438 C 533.191406 525.429688 542.890625 525.429688 542.890625 531.898438 "/>
<path fill-rule="nonzero" fill="rgb(70.196078%, 70.196078%, 70.196078%)" fill-opacity="1" stroke-width="1" stroke-linecap="butt" stroke-linejoin="miter" stroke="rgb(70.196078%, 70.196078%, 70.196078%)" stroke-opacity="1" stroke-miterlimit="10" d="M 503.613281 549.277344 C 503.613281 555.742188 493.914062 555.742188 493.914062 549.277344 C 493.914062 542.808594 503.613281 542.808594 503.613281 549.277344 "/>
<path fill-rule="nonzero" fill="rgb(70.196078%, 70.196078%, 70.196078%)" fill-opacity="1" stroke-width="1" stroke-linecap="butt" stroke-linejoin="miter" stroke="rgb(70.196078%, 70.196078%, 70.196078%)" stroke-opacity="1" stroke-miterlimit="10" d="M 523.300781 541.589844 C 523.300781 548.054688 513.601562 548.054688 513.601562 541.589844 C 513.601562 535.121094 523.300781 535.121094 523.300781 541.589844 "/>
<path fill-rule="nonzero" fill="rgb(70.196078%, 70.196078%, 70.196078%)" fill-opacity="1" stroke-width="1" stroke-linecap="butt" stroke-linejoin="miter" stroke="rgb(70.196078%, 70.196078%, 70.196078%)" stroke-opacity="1" stroke-miterlimit="10" d="M 562.351562 519.800781 C 562.351562 526.269531 552.648438 526.269531 552.648438 519.800781 C 552.648438 513.335938 562.351562 513.335938 562.351562 519.800781 "/>
<path fill-rule="nonzero" fill="rgb(70.196078%, 70.196078%, 70.196078%)" fill-opacity="1" stroke-width="1" stroke-linecap="butt" stroke-linejoin="miter" stroke="rgb(70.196078%, 70.196078%, 70.196078%)" stroke-opacity="1" stroke-miterlimit="10" d="M 600.453125 486.035156 C 600.453125 492.5 590.753906 492.5 590.753906 486.035156 C 590.753906 479.566406 600.453125 479.566406 600.453125 486.035156 "/>
<path fill-rule="nonzero" fill="rgb(70.196078%, 70.196078%, 70.196078%)" fill-opacity="1" stroke-width="1" stroke-linecap="butt" stroke-linejoin="miter" stroke="rgb(70.196078%, 70.196078%, 70.196078%)" stroke-opacity="1" stroke-miterlimit="10" d="M 581.617188 505.101562 C 581.617188 511.566406 571.917969 511.566406 571.917969 505.101562 C 571.917969 498.632812 581.617188 498.632812 581.617188 505.101562 "/>
<path fill-rule="nonzero" fill="rgb(70.196078%, 70.196078%, 70.196078%)" fill-opacity="1" stroke-width="1" stroke-linecap="butt" stroke-linejoin="miter" stroke="rgb(70.196078%, 70.196078%, 70.196078%)" stroke-opacity="1" stroke-miterlimit="10" d="M 736.878906 423.003906 C 736.878906 429.472656 727.179688 429.472656 727.179688 423.003906 C 727.179688 416.539062 736.878906 416.539062 736.878906 423.003906 "/>
<path fill-rule="nonzero" fill="rgb(70.196078%, 70.196078%, 70.196078%)" fill-opacity="1" stroke-width="1" stroke-linecap="butt" stroke-linejoin="miter" stroke="rgb(70.196078%, 70.196078%, 70.196078%)" stroke-opacity="1" stroke-miterlimit="10" d="M 658.957031 458.632812 C 658.957031 465.101562 649.257812 465.101562 649.257812 458.632812 C 649.257812 452.167969 658.957031 452.167969 658.957031 458.632812 "/>
<path fill-rule="nonzero" fill="rgb(70.196078%, 70.196078%, 70.196078%)" fill-opacity="1" stroke-width="1" stroke-linecap="butt" stroke-linejoin="miter" stroke="rgb(70.196078%, 70.196078%, 70.196078%)" stroke-opacity="1" stroke-miterlimit="10" d="M 620.382812 483.597656 C 620.382812 490.066406 610.679688 490.066406 610.679688 483.597656 C 610.679688 477.132812 620.382812 477.132812 620.382812 483.597656 "/>
<path fill-rule="nonzero" fill="rgb(70.196078%, 70.196078%, 70.196078%)" fill-opacity="1" stroke-width="1" stroke-linecap="butt" stroke-linejoin="miter" stroke="rgb(70.196078%, 70.196078%, 70.196078%)" stroke-opacity="1" stroke-miterlimit="10" d="M 639.226562 464.9375 C 639.226562 471.40625 629.527344 471.40625 629.527344 464.9375 C 629.527344 458.472656 639.226562 458.472656 639.226562 464.9375 "/>
<path fill-rule="nonzero" fill="rgb(70.196078%, 70.196078%, 70.196078%)" fill-opacity="1" stroke-width="1" stroke-linecap="butt" stroke-linejoin="miter" stroke="rgb(70.196078%, 70.196078%, 70.196078%)" stroke-opacity="1" stroke-miterlimit="10" d="M 678.597656 451.699219 C 678.597656 458.164062 668.894531 458.164062 668.894531 451.699219 C 668.894531 445.230469 678.597656 445.230469 678.597656 451.699219 "/>
<path fill-rule="nonzero" fill="rgb(100%, 84.313725%, 0%)" fill-opacity="1" stroke-width="1" stroke-linecap="butt" stroke-linejoin="miter" stroke="rgb(100%, 84.313725%, 0%)" stroke-opacity="1" stroke-miterlimit="10" d="M 744.648438 393.191406 L 755.347656 393.191406 L 755.347656 403.890625 L 744.648438 403.890625 Z M 744.648438 393.191406 "/>
<path fill-rule="nonzero" fill="rgb(70.196078%, 70.196078%, 70.196078%)" fill-opacity="1" stroke-width="1" stroke-linecap="butt" stroke-linejoin="miter" stroke="rgb(70.196078%, 70.196078%, 70.196078%)" stroke-opacity="1" stroke-miterlimit="10" d="M 717.269531 431.355469 C 717.269531 437.820312 707.570312 437.820312 707.570312 431.355469 C 707.570312 424.886719 717.269531 424.886719 717.269531 431.355469 "/>
</svg>
