<?xml version="1.0" encoding="UTF-8"?>
<svg xmlns="http://www.w3.org/2000/svg" xmlns:xlink="http://www.w3.org/1999/xlink" width="800" height="800" viewBox="0 0 800 800">
<rect x="-80" y="-80" width="960" height="960" fill="rgb(100%, 100%, 100%)" fill-opacity="1"/>
<path fill="none" stroke-width="1.5" stroke-linecap="butt" stroke-linejoin="miter" stroke="rgb(99.215686%, 74.901961%, 43.529412%)" stroke-opacity="1" stroke-miterlimit="10" d="M 73.140625 317.652344 C 78.625 307.660156 80.429688 296.839844 75.609375 286.574219 "/>
<path fill-rule="nonzero" fill="rgb(99.215686%, 74.901961%, 43.529412%)" fill-opacity="1" d="M 72.574219 280.117188 L 77.707031 285.589844 L 73.511719 287.558594 L 72.574219 280.117188 "/>
<path fill="none" stroke-width="1.5" stroke-linecap="butt" stroke-linejoin="miter" stroke="rgb(99.215686%, 74.901961%, 43.529412%)" stroke-opacity="1" stroke-miterlimit="10" d="M 72.269531 279.46875 C 80.964844 272.207031 86.558594 262.839844 85.804688 251.589844 "/>
<path fill-rule="nonzero" fill="rgb(99.215686%, 74.901961%, 43.529412%)" fill-opacity="1" d="M 85.324219 244.472656 L 88.117188 251.433594 L 83.492188 251.746094 L 85.324219 244.472656 "/>
<path fill="none" stroke-width="1.5" stroke-linecap="butt" stroke-linejoin="miter" stroke="rgb(99.215686%, 74.901961%, 43.529412%)" stroke-opacity="1" stroke-miterlimit="10" d="M 112.679688 218.054688 C 121.9375 224.109375 132.289062 226.695312 142.574219 222.765625 "/>
<path fill-rule="nonzero" fill="rgb(99.215686%, 74.901961%, 43.529412%)" fill-opacity="1" d="M 149.234375 220.21875 L 143.402344 224.929688 L 141.746094 220.597656 L 149.234375 220.21875 "/>
<path fill="none" stroke-width="1.5" stroke-linecap="butt" stroke-linejoin="miter" stroke="rgb(99.215686%, 74.901961%, 43.529412%)" stroke-opacity="1" stroke-miterlimit="10" d="M 221.140625 123.445312 C 229.785156 116.429688 235.433594 107.296875 234.828125 96.230469 "/>
<path fill-rule="nonzero" fill="rgb(99.215686%, 74.901961%, 43.529412%)" fill-opacity="1" d="M 234.4375 89.109375 L 237.144531 96.105469 L 232.515625 96.359375 L 234.4375 89.109375 "/>
<path fill="none" stroke-width="1.5" stroke-linecap="butt" stroke-linejoin="miter" stroke="rgb(99.215686%, 74.901961%, 43.529412%)" stroke-opacity="1" stroke-miterlimit="10" d="M 216.578125 197.875 C 224.988281 190.3125 230.234375 180.761719 229.070312 169.5625 "/>
<path fill-rule="nonzero" fill="rgb(99.215686%, 74.901961%, 43.529412%)" fill-opacity="1" d="M 228.335938 162.46875 L 231.375 169.324219 L 226.765625 169.800781 L 228.335938 162.46875 "/>
<path fill="none" stroke-width="1.5" stroke-linecap="butt" stroke-linejoin="miter" stroke="rgb(99.215686%, 74.901961%, 43.529412%)" stroke-opacity="1" stroke-miterlimit="10" d="M 186.949219 220.898438 C 198.003906 219.414062 207.59375 214.558594 212.855469 204.785156 "/>
<path fill-rule="nonzero" fill="rgb(99.215686%, 74.901961%, 43.529412%)" fill-opacity="1" d="M 216.234375 198.503906 L 214.894531 205.886719 L 210.816406 203.6875 L 216.234375 198.503906 "/>
<path fill="none" stroke-width="1.5" stroke-linecap="butt" stroke-linejoin="miter" stroke="rgb(99.215686%, 74.901961%, 43.529412%)" stroke-opacity="1" stroke-miterlimit="10" d="M 85.277344 243.757812 C 96.160156 241.25 105.273438 235.515625 109.613281 225.28125 "/>
<path fill-rule="nonzero" fill="rgb(99.215686%, 74.901961%, 43.529412%)" fill-opacity="1" d="M 112.398438 218.714844 L 111.746094 226.1875 L 107.480469 224.378906 L 112.398438 218.714844 "/>
<path fill="none" stroke-width="1.5" stroke-linecap="butt" stroke-linejoin="miter" stroke="rgb(99.215686%, 74.901961%, 43.529412%)" stroke-opacity="1" stroke-miterlimit="10" d="M 149.90625 219.960938 C 159.246094 225.738281 169.589844 228.054688 179.691406 223.890625 "/>
<path fill-rule="nonzero" fill="rgb(99.215686%, 74.901961%, 43.529412%)" fill-opacity="1" d="M 186.289062 221.171875 L 180.574219 226.03125 L 178.808594 221.746094 L 186.289062 221.171875 "/>
<path fill="none" stroke-width="1.5" stroke-linecap="butt" stroke-linejoin="miter" stroke="rgb(99.215686%, 74.901961%, 43.529412%)" stroke-opacity="1" stroke-miterlimit="10" d="M 234.398438 88.394531 C 245.402344 87.800781 255.246094 83.78125 261.1875 74.566406 "/>
<path fill-rule="nonzero" fill="rgb(99.215686%, 74.901961%, 43.529412%)" fill-opacity="1" d="M 265.050781 68.570312 L 263.132812 75.824219 L 259.238281 73.3125 L 265.050781 68.570312 "/>
<path fill="none" stroke-width="1.5" stroke-linecap="butt" stroke-linejoin="miter" stroke="rgb(99.215686%, 74.901961%, 43.529412%)" stroke-opacity="1" stroke-miterlimit="10" d="M 301.0625 58.636719 C 310.164062 63.933594 320.167969 65.941406 329.710938 61.632812 "/>
<path fill-rule="nonzero" fill="rgb(99.215686%, 74.901961%, 43.529412%)" fill-opacity="1" d="M 336.210938 58.699219 L 330.664062 63.746094 L 328.757812 59.519531 L 336.210938 58.699219 "/>
<path fill="none" stroke-width="1.5" stroke-linecap="butt" stroke-linejoin="miter" stroke="rgb(99.215686%, 74.901961%, 43.529412%)" stroke-opacity="1" stroke-miterlimit="10" d="M 265.4375 67.96875 C 275.933594 70.910156 286.4375 70.28125 294.921875 63.523438 "/>
<path fill-rule="nonzero" fill="rgb(99.215686%, 74.901961%, 43.529412%)" fill-opacity="1" d="M 300.503906 59.082031 L 296.367188 65.339844 L 293.480469 61.710938 L 300.503906 59.082031 "/>
<path fill="none" stroke-width="1.5" stroke-linecap="butt" stroke-linejoin="miter" stroke="rgb(99.215686%, 74.901961%, 43.529412%)" stroke-opacity="1" stroke-miterlimit="10" d="M 228.261719 161.753906 C 232.140625 150.742188 232.144531 139.519531 225.578125 129.925781 "/>
<path fill-rule="nonzero" fill="rgb(99.215686%, 74.901961%, 43.529412%)" fill-opacity="1" d="M 221.546875 124.039062 L 227.488281 128.617188 L 223.664062 131.234375 L 221.546875 124.039062 "/>
<path fill="none" stroke-width="1.5" stroke-linecap="butt" stroke-linejoin="miter" stroke="rgb(99.215686%, 74.901961%, 43.529412%)" stroke-opacity="1" stroke-miterlimit="10" d="M 50 346.957031 C 60.316406 342.898438 68.429688 335.9375 71.179688 325.253906 "/>
<path fill-rule="nonzero" fill="rgb(99.215686%, 74.901961%, 43.529412%)" fill-opacity="1" d="M 72.960938 318.34375 L 73.425781 325.832031 L 68.9375 324.675781 L 72.960938 318.34375 "/>
<path fill="none" stroke-width="1.5" stroke-linecap="butt" stroke-linejoin="miter" stroke="rgb(98.431373%, 60.392157%, 60%)" stroke-opacity="1" stroke-miterlimit="10" d="M 585.585938 154.476562 C 595.542969 159.351562 606.15625 160.640625 615.894531 155.460938 "/>
<path fill-rule="nonzero" fill="rgb(98.431373%, 60.392157%, 60%)" fill-opacity="1" d="M 622.191406 152.109375 L 616.980469 157.507812 L 614.804688 153.414062 L 622.191406 152.109375 "/>
<path fill="none" stroke-width="1.5" stroke-linecap="butt" stroke-linejoin="miter" stroke="rgb(98.431373%, 60.392157%, 60%)" stroke-opacity="1" stroke-miterlimit="10" d="M 656.28125 166.335938 C 658.464844 177.074219 663.851562 186.175781 673.785156 190.671875 "/>
<path fill-rule="nonzero" fill="rgb(98.431373%, 60.392157%, 60%)" fill-opacity="1" d="M 680.28125 193.613281 L 672.828125 192.785156 L 674.742188 188.5625 L 680.28125 193.613281 "/>
<path fill="none" stroke-width="1.5" stroke-linecap="butt" stroke-linejoin="miter" stroke="rgb(41.568627%, 23.921569%, 60.392157%)" stroke-opacity="1" stroke-miterlimit="10" d="M 376.015625 745.136719 C 386.96875 742.0625 395.945312 735.789062 399.890625 725.175781 "/>
<path fill-rule="nonzero" fill="rgb(41.568627%, 23.921569%, 60.392157%)" fill-opacity="1" d="M 402.375 718.488281 L 402.0625 725.980469 L 397.714844 724.367188 L 402.375 718.488281 "/>
<path fill="none" stroke-width="1.5" stroke-linecap="butt" stroke-linejoin="miter" stroke="rgb(98.431373%, 60.392157%, 60%)" stroke-opacity="1" stroke-miterlimit="10" d="M 528.414062 65.65625 C 525.652344 76.492188 526.574219 87.234375 533.6875 95.796875 "/>
<path fill-rule="nonzero" fill="rgb(98.431373%, 60.392157%, 60%)" fill-opacity="1" d="M 538.246094 101.28125 L 531.90625 97.277344 L 535.46875 94.316406 L 538.246094 101.28125 "/>
<path fill="none" stroke-width="1.5" stroke-linecap="butt" stroke-linejoin="miter" stroke="rgb(98.431373%, 60.392157%, 60%)" stroke-opacity="1" stroke-miterlimit="10" d="M 691.019531 229.863281 C 687.476562 240.40625 687.585938 251.132812 694.011719 260.144531 "/>
<path fill-rule="nonzero" fill="rgb(98.431373%, 60.392157%, 60%)" fill-opacity="1" d="M 698.152344 265.953125 L 692.125 261.492188 L 695.898438 258.800781 L 698.152344 265.953125 "/>
<path fill="none" stroke-width="1.5" stroke-linecap="butt" stroke-linejoin="miter" stroke="rgb(98.431373%, 60.392157%, 60%)" stroke-opacity="1" stroke-miterlimit="10" d="M 680.9375 193.910156 C 678.148438 204.640625 679.003906 215.296875 686.023438 223.808594 "/>
<path fill-rule="nonzero" fill="rgb(98.431373%, 60.392157%, 60%)" fill-opacity="1" d="M 690.5625 229.3125 L 684.238281 225.28125 L 687.8125 222.332031 L 690.5625 229.3125 "/>
<path fill="none" stroke-width="1.5" stroke-linecap="butt" stroke-linejoin="miter" stroke="rgb(41.568627%, 23.921569%, 60.392157%)" stroke-opacity="1" stroke-miterlimit="10" d="M 339.101562 739.058594 C 347.664062 746.136719 357.710938 749.871094 368.417969 747.101562 "/>
<path fill-rule="nonzero" fill="rgb(41.568627%, 23.921569%, 60.392157%)" fill-opacity="1" d="M 375.320312 745.316406 L 368.996094 749.34375 L 367.835938 744.859375 L 375.320312 745.316406 "/>
<path fill="none" stroke-width="1.5" stroke-linecap="butt" stroke-linejoin="miter" stroke="rgb(98.431373%, 60.392157%, 60%)" stroke-opacity="1" stroke-miterlimit="10" d="M 729.988281 287.554688 C 727.972656 298.453125 729.585938 309.019531 737.195312 317.003906 "/>
<path fill-rule="nonzero" fill="rgb(98.431373%, 60.392157%, 60%)" fill-opacity="1" d="M 742.113281 322.167969 L 735.515625 318.601562 L 738.871094 315.40625 L 742.113281 322.167969 "/>
<path fill="none" stroke-width="1.5" stroke-linecap="butt" stroke-linejoin="miter" stroke="rgb(41.568627%, 23.921569%, 60.392157%)" stroke-opacity="1" stroke-miterlimit="10" d="M 569.15625 681.703125 C 580.019531 679.769531 589.308594 674.566406 594.085938 664.675781 "/>
<path fill-rule="nonzero" fill="rgb(41.568627%, 23.921569%, 60.392157%)" fill-opacity="1" d="M 597.191406 658.253906 L 596.175781 665.683594 L 592 663.667969 L 597.191406 658.253906 "/>
<path fill="none" stroke-width="1.5" stroke-linecap="butt" stroke-linejoin="miter" stroke="rgb(98.431373%, 60.392157%, 60%)" stroke-opacity="1" stroke-miterlimit="10" d="M 698.570312 266.539062 C 703.515625 276.644531 711.222656 284.269531 722.253906 286.199219 "/>
<path fill-rule="nonzero" fill="rgb(98.431373%, 60.392157%, 60%)" fill-opacity="1" d="M 729.28125 287.429688 L 721.855469 288.484375 L 722.652344 283.917969 L 729.28125 287.429688 "/>
<path fill="none" stroke-width="1.5" stroke-linecap="butt" stroke-linejoin="miter" stroke="rgb(98.431373%, 60.392157%, 60%)" stroke-opacity="1" stroke-miterlimit="10" d="M 538.707031 101.835938 C 537.140625 112.941406 539.242188 123.542969 547.269531 131.296875 "/>
<path fill-rule="nonzero" fill="rgb(98.431373%, 60.392157%, 60%)" fill-opacity="1" d="M 552.402344 136.25 L 545.660156 132.964844 L 548.878906 129.628906 L 552.402344 136.25 "/>
<path fill="none" stroke-width="1.5" stroke-linecap="butt" stroke-linejoin="miter" stroke="rgb(41.568627%, 23.921569%, 60.392157%)" stroke-opacity="1" stroke-miterlimit="10" d="M 597.503906 657.609375 C 607.476562 662.304688 618.054688 663.429688 627.660156 658.128906 "/>
<path fill-rule="nonzero" fill="rgb(41.568627%, 23.921569%, 60.392157%)" fill-opacity="1" d="M 633.90625 654.683594 L 628.78125 660.15625 L 626.539062 656.101562 L 633.90625 654.683594 "/>
<path fill="none" stroke-width="1.5" stroke-linecap="butt" stroke-linejoin="miter" stroke="rgb(41.568627%, 23.921569%, 60.392157%)" stroke-opacity="1" stroke-miterlimit="10" d="M 634.53125 654.335938 C 645.273438 652.648438 654.546875 647.71875 659.4375 638.070312 "/>
<path fill-rule="nonzero" fill="rgb(41.568627%, 23.921569%, 60.392157%)" fill-opacity="1" d="M 662.660156 631.710938 L 661.503906 639.121094 L 657.371094 637.023438 L 662.660156 631.710938 "/>
<path fill="none" stroke-width="1.5" stroke-linecap="butt" stroke-linejoin="miter" stroke="rgb(98.431373%, 60.392157%, 60%)" stroke-opacity="1" stroke-miterlimit="10" d="M 622.824219 151.773438 C 629.167969 160.484375 637.710938 166.441406 648.433594 166.382812 "/>
<path fill-rule="nonzero" fill="rgb(98.431373%, 60.392157%, 60%)" fill-opacity="1" d="M 655.566406 166.34375 L 648.445312 168.699219 L 648.417969 164.0625 L 655.566406 166.34375 "/>
<path fill="none" stroke-width="1.5" stroke-linecap="butt" stroke-linejoin="miter" stroke="rgb(41.568627%, 23.921569%, 60.392157%)" stroke-opacity="1" stroke-miterlimit="10" d="M 468.746094 696.714844 C 477.1875 703.703125 487.09375 707.410156 497.648438 704.675781 "/>
<path fill-rule="nonzero" fill="rgb(41.568627%, 23.921569%, 60.392157%)" fill-opacity="1" d="M 504.550781 702.886719 L 498.226562 706.917969 L 497.066406 702.433594 L 504.550781 702.886719 "/>
<path fill="none" stroke-width="1.5" stroke-linecap="butt" stroke-linejoin="miter" stroke="rgb(41.568627%, 23.921569%, 60.392157%)" stroke-opacity="1" stroke-miterlimit="10" d="M 662.984375 631.070312 C 673.136719 627.660156 681.363281 621.347656 684.484375 611.164062 "/>
<path fill-rule="nonzero" fill="rgb(41.568627%, 23.921569%, 60.392157%)" fill-opacity="1" d="M 686.570312 604.34375 L 686.699219 611.839844 L 682.265625 610.484375 L 686.570312 604.34375 "/>
<path fill="none" stroke-width="1.5" stroke-linecap="butt" stroke-linejoin="miter" stroke="rgb(30.196078%, 68.627451%, 29.019608%)" stroke-opacity="1" stroke-miterlimit="10" d="M 382.933594 424.699219 C 393.71875 424.734375 403.609375 421.382812 409.878906 412.683594 "/>
<path fill-rule="nonzero" fill="rgb(30.196078%, 68.627451%, 29.019608%)" fill-opacity="1" d="M 414.050781 406.894531 L 411.761719 414.039062 L 408 411.328125 L 414.050781 406.894531 "/>
<path fill="none" stroke-width="1.5" stroke-linecap="butt" stroke-linejoin="miter" stroke="rgb(30.196078%, 68.627451%, 29.019608%)" stroke-opacity="1" stroke-miterlimit="10" d="M 557.566406 430.683594 C 564.804688 439.34375 574.136719 444.921875 585.347656 444.164062 "/>
<path fill-rule="nonzero" fill="rgb(30.196078%, 68.627451%, 29.019608%)" fill-opacity="1" d="M 592.464844 443.683594 L 585.503906 446.476562 L 585.191406 441.851562 L 592.464844 443.683594 "/>
<path fill="none" stroke-width="1.5" stroke-linecap="butt" stroke-linejoin="miter" stroke="rgb(30.196078%, 68.627451%, 29.019608%)" stroke-opacity="1" stroke-miterlimit="10" d="M 557.566406 430.683594 C 547.816406 425.074219 537.164062 423.070312 526.945312 427.640625 "/>
<path fill-rule="nonzero" fill="rgb(30.196078%, 68.627451%, 29.019608%)" fill-opacity="1" d="M 520.433594 430.554688 L 526 425.527344 L 527.890625 429.757812 L 520.433594 430.554688 "/>
<path fill="none" stroke-width="1.5" stroke-linecap="butt" stroke-linejoin="miter" stroke="rgb(30.196078%, 68.627451%, 29.019608%)" stroke-opacity="1" stroke-miterlimit="10" d="M 593.179688 443.632812 C 586.257812 435.121094 577.25 429.523438 566.351562 430.164062 "/>
<path fill-rule="nonzero" fill="rgb(30.196078%, 68.627451%, 29.019608%)" fill-opacity="1" d="M 559.230469 430.582031 L 566.214844 427.851562 L 566.488281 432.476562 L 559.230469 430.582031 "/>
<path fill="none" stroke-width="1.5" stroke-linecap="butt" stroke-linejoin="miter" stroke="rgb(30.196078%, 68.627451%, 29.019608%)" stroke-opacity="1" stroke-miterlimit="10" d="M 452.226562 399.597656 C 442.445312 395.476562 432.183594 394.753906 423.195312 400.292969 "/>
<path fill-rule="nonzero" fill="rgb(30.196078%, 68.627451%, 29.019608%)" fill-opacity="1" d="M 417.125 404.035156 L 421.980469 398.320312 L 424.414062 402.265625 L 417.125 404.035156 "/>
<path fill="none" stroke-width="1.5" stroke-linecap="butt" stroke-linejoin="miter" stroke="rgb(30.196078%, 68.627451%, 29.019608%)" stroke-opacity="1" stroke-miterlimit="10" d="M 415.300781 405.160156 C 404.046875 405.351562 393.871094 409.097656 387.441406 418.269531 "/>
<path fill-rule="nonzero" fill="rgb(30.196078%, 68.627451%, 29.019608%)" fill-opacity="1" d="M 383.34375 424.109375 L 385.542969 416.941406 L 389.335938 419.601562 L 383.34375 424.109375 "/>
<path fill="none" stroke-width="1.5" stroke-linecap="butt" stroke-linejoin="miter" stroke="rgb(30.196078%, 68.627451%, 29.019608%)" stroke-opacity="1" stroke-miterlimit="10" d="M 487.742188 410.589844 C 480.289062 402.464844 470.921875 397.417969 460.027344 398.6875 "/>
<path fill-rule="nonzero" fill="rgb(30.196078%, 68.627451%, 29.019608%)" fill-opacity="1" d="M 452.941406 399.515625 L 459.757812 396.386719 L 460.292969 400.992188 L 452.941406 399.515625 "/>
<path fill="none" stroke-width="1.5" stroke-linecap="butt" stroke-linejoin="miter" stroke="rgb(30.196078%, 68.627451%, 29.019608%)" stroke-opacity="1" stroke-miterlimit="10" d="M 519.78125 430.847656 C 514.554688 420.839844 506.625 413.394531 495.507812 411.742188 "/>
<path fill-rule="nonzero" fill="rgb(30.196078%, 68.627451%, 29.019608%)" fill-opacity="1" d="M 488.449219 410.695312 L 495.847656 409.449219 L 495.164062 414.035156 L 488.449219 410.695312 "/>
<path fill="none" stroke-width="1.5" stroke-linecap="butt" stroke-linejoin="miter" stroke="rgb(41.568627%, 23.921569%, 60.392157%)" stroke-opacity="1" stroke-miterlimit="10" d="M 439.339844 720.421875 C 450.449219 718.714844 460.019531 713.636719 465.148438 703.691406 "/>
<path fill-rule="nonzero" fill="rgb(41.568627%, 23.921569%, 60.392157%)" fill-opacity="1" d="M 468.417969 697.351562 L 467.210938 704.753906 L 463.089844 702.628906 L 468.417969 697.351562 "/>
<path fill="none" stroke-width="1.5" stroke-linecap="butt" stroke-linejoin="miter" stroke="rgb(41.568627%, 23.921569%, 60.392157%)" stroke-opacity="1" stroke-miterlimit="10" d="M 402.625 717.816406 C 411.609375 723.96875 421.753906 726.746094 431.949219 723.078125 "/>
<path fill-rule="nonzero" fill="rgb(41.568627%, 23.921569%, 60.392157%)" fill-opacity="1" d="M 438.664062 720.664062 L 432.734375 725.257812 L 431.167969 720.898438 L 438.664062 720.664062 "/>
<path fill="none" stroke-width="1.5" stroke-linecap="butt" stroke-linejoin="miter" stroke="rgb(41.568627%, 23.921569%, 60.392157%)" stroke-opacity="1" stroke-miterlimit="10" d="M 505.246094 702.707031 C 513.636719 710.414062 523.714844 714.761719 534.828125 712.519531 "/>
<path fill-rule="nonzero" fill="rgb(41.568627%, 23.921569%, 60.392157%)" fill-opacity="1" d="M 541.820312 711.105469 L 535.285156 714.789062 L 534.371094 710.246094 L 541.820312 711.105469 "/>
<path fill="none" stroke-width="1.5" stroke-linecap="butt" stroke-linejoin="miter" stroke="rgb(41.568627%, 23.921569%, 60.392157%)" stroke-opacity="1" stroke-miterlimit="10" d="M 542.988281 710.871094 C 554.15625 707.195312 563.101562 700.300781 566.726562 689.167969 "/>
<path fill-rule="nonzero" fill="rgb(41.568627%, 23.921569%, 60.392157%)" fill-opacity="1" d="M 568.933594 682.386719 L 568.929688 689.886719 L 564.519531 688.453125 L 568.933594 682.386719 "/>
<path fill="none" stroke-width="1.5" stroke-linecap="butt" stroke-linejoin="miter" stroke="rgb(41.568627%, 23.921569%, 60.392157%)" stroke-opacity="1" stroke-miterlimit="10" d="M 542.988281 710.871094 C 540.28125 722.953125 541.726562 734.730469 549.796875 744.0625 "/>
<path fill-rule="nonzero" fill="rgb(41.568627%, 23.921569%, 60.392157%)" fill-opacity="1" d="M 554.460938 749.457031 L 548.042969 745.578125 L 551.546875 742.546875 L 554.460938 749.457031 "/>
<path fill="none" stroke-width="1.5" stroke-linecap="butt" stroke-linejoin="miter" stroke="rgb(41.568627%, 23.921569%, 60.392157%)" stroke-opacity="1" stroke-miterlimit="10" d="M 554.929688 750 C 557.679688 738.085938 556.339844 726.433594 548.410156 717.191406 "/>
<path fill-rule="nonzero" fill="rgb(41.568627%, 23.921569%, 60.392157%)" fill-opacity="1" d="M 543.765625 711.777344 L 550.171875 715.683594 L 546.652344 718.699219 L 543.765625 711.777344 "/>
<path fill="none" stroke-width="1.5" stroke-linecap="butt" stroke-linejoin="miter" stroke="rgb(98.431373%, 60.392157%, 60%)" stroke-opacity="1" stroke-miterlimit="10" d="M 494.253906 50 C 500.691406 59.128906 509.449219 65.402344 520.566406 65.550781 "/>
<path fill-rule="nonzero" fill="rgb(98.431373%, 60.392157%, 60%)" fill-opacity="1" d="M 527.699219 65.644531 L 520.535156 67.867188 L 520.597656 63.230469 L 527.699219 65.644531 "/>
<path fill="none" stroke-width="1.5" stroke-linecap="butt" stroke-linejoin="miter" stroke="rgb(98.431373%, 60.392157%, 60%)" stroke-opacity="1" stroke-miterlimit="10" d="M 552.917969 136.75 C 558.636719 146.175781 566.828125 152.957031 577.761719 153.84375 "/>
<path fill-rule="nonzero" fill="rgb(98.431373%, 60.392157%, 60%)" fill-opacity="1" d="M 584.871094 154.417969 L 577.574219 156.152344 L 577.949219 151.53125 L 584.871094 154.417969 "/>
<path fill="none" stroke-width="1.5" stroke-linecap="butt" stroke-linejoin="miter" stroke="rgb(98.431373%, 60.392157%, 60%)" stroke-opacity="1" stroke-miterlimit="10" d="M 742.609375 322.6875 C 738.972656 332.890625 738.855469 343.363281 744.988281 352.21875 "/>
<path fill-rule="nonzero" fill="rgb(98.431373%, 60.392157%, 60%)" fill-opacity="1" d="M 749.050781 358.082031 L 743.082031 353.539062 L 746.894531 350.898438 L 749.050781 358.082031 "/>
<path fill="none" stroke-width="1.5" stroke-linecap="butt" stroke-linejoin="miter" stroke="rgb(12.156863%, 47.058824%, 70.588235%)" stroke-opacity="1" stroke-miterlimit="10" d="M 117.542969 495.648438 C 106.824219 499.078125 98.15625 505.601562 94.644531 516.242188 "/>
<path fill-rule="nonzero" fill="rgb(12.156863%, 47.058824%, 70.588235%)" fill-opacity="1" d="M 92.410156 523.015625 L 92.445312 515.515625 L 96.847656 516.96875 L 92.410156 523.015625 "/>
<path fill="none" stroke-width="1.5" stroke-linecap="butt" stroke-linejoin="miter" stroke="rgb(12.156863%, 47.058824%, 70.588235%)" stroke-opacity="1" stroke-miterlimit="10" d="M 92.1875 523.695312 C 84.851562 532.292969 80.914062 542.445312 83.542969 553.382812 "/>
<path fill-rule="nonzero" fill="rgb(12.156863%, 47.058824%, 70.588235%)" fill-opacity="1" d="M 85.207031 560.316406 L 81.289062 553.921875 L 85.796875 552.839844 L 85.207031 560.316406 "/>
<path fill="none" stroke-width="1.5" stroke-linecap="butt" stroke-linejoin="miter" stroke="rgb(12.156863%, 47.058824%, 70.588235%)" stroke-opacity="1" stroke-miterlimit="10" d="M 152.101562 640.761719 C 150.699219 651.898438 152.957031 662.476562 161.105469 670.121094 "/>
<path fill-rule="nonzero" fill="rgb(12.156863%, 47.058824%, 70.588235%)" fill-opacity="1" d="M 166.308594 675 L 159.519531 671.8125 L 162.691406 668.429688 L 166.308594 675 "/>
<path fill="none" stroke-width="1.5" stroke-linecap="butt" stroke-linejoin="miter" stroke="rgb(12.156863%, 47.058824%, 70.588235%)" stroke-opacity="1" stroke-miterlimit="10" d="M 166.832031 675.492188 C 173.546875 683.679688 182.265625 689.078125 192.769531 688.378906 "/>
<path fill-rule="nonzero" fill="rgb(12.156863%, 47.058824%, 70.588235%)" fill-opacity="1" d="M 199.886719 687.902344 L 192.925781 690.691406 L 192.617188 686.066406 L 199.886719 687.902344 "/>
<path fill="none" stroke-width="1.5" stroke-linecap="butt" stroke-linejoin="miter" stroke="rgb(12.156863%, 47.058824%, 70.588235%)" stroke-opacity="1" stroke-miterlimit="10" d="M 117.390625 627.222656 C 124.261719 635.882812 133.269531 641.597656 144.261719 641.109375 "/>
<path fill-rule="nonzero" fill="rgb(12.156863%, 47.058824%, 70.588235%)" fill-opacity="1" d="M 151.386719 640.792969 L 144.363281 643.425781 L 144.15625 638.792969 L 151.386719 640.792969 "/>
<path fill="none" stroke-width="1.5" stroke-linecap="butt" stroke-linejoin="miter" stroke="rgb(12.156863%, 47.058824%, 70.588235%)" stroke-opacity="1" stroke-miterlimit="10" d="M 95.558594 597.203125 C 96.660156 608.152344 101.128906 617.785156 110.597656 623.285156 "/>
<path fill-rule="nonzero" fill="rgb(12.156863%, 47.058824%, 70.588235%)" fill-opacity="1" d="M 116.769531 626.863281 L 109.4375 625.289062 L 111.761719 621.277344 L 116.769531 626.863281 "/>
<path fill="none" stroke-width="1.5" stroke-linecap="butt" stroke-linejoin="miter" stroke="rgb(12.156863%, 47.058824%, 70.588235%)" stroke-opacity="1" stroke-miterlimit="10" d="M 85.375 561.015625 C 82.582031 571.835938 83.472656 582.578125 90.558594 591.152344 "/>
<path fill-rule="nonzero" fill="rgb(12.156863%, 47.058824%, 70.588235%)" fill-opacity="1" d="M 95.101562 596.652344 L 88.773438 592.628906 L 92.34375 589.675781 L 95.101562 596.652344 "/>
<path fill="none" stroke-width="1.5" stroke-linecap="butt" stroke-linejoin="miter" stroke="rgb(12.156863%, 47.058824%, 70.588235%)" stroke-opacity="1" stroke-miterlimit="10" d="M 153.34375 482.5625 C 142.148438 480.585938 131.347656 482.351562 123.199219 490.203125 "/>
<path fill-rule="nonzero" fill="rgb(12.156863%, 47.058824%, 70.588235%)" fill-opacity="1" d="M 118.0625 495.152344 L 121.589844 488.53125 L 124.804688 491.871094 L 118.0625 495.152344 "/>
<path fill-rule="nonzero" fill="rgb(99.215686%, 74.901961%, 43.529412%)" fill-opacity="1" stroke-width="1" stroke-linecap="butt" stroke-linejoin="miter" stroke="rgb(99.215686%, 74.901961%, 43.529412%)" stroke-opacity="1" stroke-miterlimit="10" d="M 73.890625 317.652344 C 73.890625 318.652344 72.390625 318.652344 72.390625 317.652344 C 72.390625 316.652344 73.890625 316.652344 73.890625 317.652344 "/>
<path fill-rule="nonzero" fill="rgb(99.215686%, 74.901961%, 43.529412%)" fill-opacity="1" stroke-width="1" stroke-linecap="butt" stroke-linejoin="miter" stroke="rgb(99.215686%, 74.901961%, 43.529412%)" stroke-opacity="1" stroke-miterlimit="10" d="M 73.019531 279.46875 C 73.019531 280.46875 71.519531 280.46875 71.519531 279.46875 C 71.519531 278.46875 73.019531 278.46875 73.019531 279.46875 "/>
<path fill-rule="nonzero" fill="rgb(99.215686%, 74.901961%, 43.529412%)" fill-opacity="1" stroke-width="1" stroke-linecap="butt" stroke-linejoin="miter" stroke="rgb(99.215686%, 74.901961%, 43.529412%)" stroke-opacity="1" stroke-miterlimit="10" d="M 113.429688 218.054688 C 113.429688 219.054688 111.929688 219.054688 111.929688 218.054688 C 111.929688 217.054688 113.429688 217.054688 113.429688 218.054688 "/>
<path fill-rule="nonzero" fill="rgb(99.215686%, 74.901961%, 43.529412%)" fill-opacity="1" stroke-width="1" stroke-linecap="butt" stroke-linejoin="miter" stroke="rgb(99.215686%, 74.901961%, 43.529412%)" stroke-opacity="1" stroke-miterlimit="10" d="M 221.890625 123.445312 C 221.890625 124.445312 220.390625 124.445312 220.390625 123.445312 C 220.390625 122.445312 221.890625 122.445312 221.890625 123.445312 "/>
<path fill-rule="nonzero" fill="rgb(99.215686%, 74.901961%, 43.529412%)" fill-opacity="1" stroke-width="1" stroke-linecap="butt" stroke-linejoin="miter" stroke="rgb(99.215686%, 74.901961%, 43.529412%)" stroke-opacity="1" stroke-miterlimit="10" d="M 217.328125 197.875 C 217.328125 198.875 215.828125 198.875 215.828125 197.875 C 215.828125 196.875 217.328125 196.875 217.328125 197.875 "/>
<path fill-rule="nonzero" fill="rgb(99.215686%, 74.901961%, 43.529412%)" fill-opacity="1" stroke-width="1" stroke-linecap="butt" stroke-linejoin="miter" stroke="rgb(99.215686%, 74.901961%, 43.529412%)" stroke-opacity="1" stroke-miterlimit="10" d="M 187.699219 220.898438 C 187.699219 221.898438 186.199219 221.898438 186.199219 220.898438 C 186.199219 219.898438 187.699219 219.898438 187.699219 220.898438 "/>
<path fill-rule="nonzero" fill="rgb(99.215686%, 74.901961%, 43.529412%)" fill-opacity="1" stroke-width="1" stroke-linecap="butt" stroke-linejoin="miter" stroke="rgb(99.215686%, 74.901961%, 43.529412%)" stroke-opacity="1" stroke-miterlimit="10" d="M 86.027344 243.757812 C 86.027344 244.757812 84.527344 244.757812 84.527344 243.757812 C 84.527344 242.757812 86.027344 242.757812 86.027344 243.757812 "/>
<path fill-rule="nonzero" fill="rgb(99.215686%, 74.901961%, 43.529412%)" fill-opacity="1" stroke-width="1" stroke-linecap="butt" stroke-linejoin="miter" stroke="rgb(99.215686%, 74.901961%, 43.529412%)" stroke-opacity="1" stroke-miterlimit="10" d="M 150.65625 219.960938 C 150.65625 220.960938 149.15625 220.960938 149.15625 219.960938 C 149.15625 218.960938 150.65625 218.960938 150.65625 219.960938 "/>
<path fill-rule="nonzero" fill="rgb(99.215686%, 74.901961%, 43.529412%)" fill-opacity="1" stroke-width="1" stroke-linecap="butt" stroke-linejoin="miter" stroke="rgb(99.215686%, 74.901961%, 43.529412%)" stroke-opacity="1" stroke-miterlimit="10" d="M 235.148438 88.394531 C 235.148438 89.394531 233.648438 89.394531 233.648438 88.394531 C 233.648438 87.394531 235.148438 87.394531 235.148438 88.394531 "/>
<path fill-rule="nonzero" fill="rgb(99.215686%, 74.901961%, 43.529412%)" fill-opacity="1" stroke-width="1" stroke-linecap="butt" stroke-linejoin="miter" stroke="rgb(99.215686%, 74.901961%, 43.529412%)" stroke-opacity="1" stroke-miterlimit="10" d="M 301.8125 58.636719 C 301.8125 59.636719 300.3125 59.636719 300.3125 58.636719 C 300.3125 57.636719 301.8125 57.636719 301.8125 58.636719 "/>
<path fill-rule="nonzero" fill="rgb(14.901961%, 14.901961%, 14.901961%)" fill-opacity="1" stroke-width="1" stroke-linecap="butt" stroke-linejoin="miter" stroke="rgb(14.901961%, 14.901961%, 14.901961%)" stroke-opacity="1" stroke-miterlimit="10" d="M 335.980469 59.761719 L 337.730469 56.261719 L 339.480469 59.761719 Z M 335.980469 59.761719 "/>
<path fill-rule="nonzero" fill="rgb(99.215686%, 74.901961%, 43.529412%)" fill-opacity="1" stroke-width="1" stroke-linecap="butt" stroke-linejoin="miter" stroke="rgb(99.215686%, 74.901961%, 43.529412%)" stroke-opacity="1" stroke-miterlimit="10" d="M 266.1875 67.96875 C 266.1875 68.96875 264.6875 68.96875 264.6875 67.96875 C 264.6875 66.96875 266.1875 66.96875 266.1875 67.96875 "/>
<path fill-rule="nonzero" fill="rgb(99.215686%, 74.901961%, 43.529412%)" fill-opacity="1" stroke-width="1" stroke-linecap="butt" stroke-linejoin="miter" stroke="rgb(99.215686%, 74.901961%, 43.529412%)" stroke-opacity="1" stroke-miterlimit="10" d="M 229.011719 161.753906 C 229.011719 162.753906 227.511719 162.753906 227.511719 161.753906 C 227.511719 160.753906 229.011719 160.753906 229.011719 161.753906 "/>
<path fill-rule="nonzero" fill="rgb(100%, 84.313725%, 0%)" fill-opacity="1" stroke-width="1" stroke-linecap="butt" stroke-linejoin="miter" stroke="rgb(100%, 84.313725%, 0%)" stroke-opacity="1" stroke-miterlimit="10" d="M 48.75 345.707031 L 51.25 345.707031 L 51.25 348.207031 L 48.75 348.207031 Z M 48.75 345.707031 "/>
<path fill-rule="nonzero" fill="rgb(98.431373%, 60.392157%, 60%)" fill-opacity="1" stroke-width="1" stroke-linecap="butt" stroke-linejoin="miter" stroke="rgb(98.431373%, 60.392157%, 60%)" stroke-opacity="1" stroke-miterlimit="10" d="M 586.335938 154.476562 C 586.335938 155.476562 584.835938 155.476562 584.835938 154.476562 C 584.835938 153.476562 586.335938 153.476562 586.335938 154.476562 "/>
<path fill-rule="nonzero" fill="rgb(98.431373%, 60.392157%, 60%)" fill-opacity="1" stroke-width="1" stroke-linecap="butt" stroke-linejoin="miter" stroke="rgb(98.431373%, 60.392157%, 60%)" stroke-opacity="1" stroke-miterlimit="10" d="M 657.03125 166.335938 C 657.03125 167.335938 655.53125 167.335938 655.53125 166.335938 C 655.53125 165.335938 657.03125 165.335938 657.03125 166.335938 "/>
<path fill-rule="nonzero" fill="rgb(41.568627%, 23.921569%, 60.392157%)" fill-opacity="1" stroke-width="1" stroke-linecap="butt" stroke-linejoin="miter" stroke="rgb(41.568627%, 23.921569%, 60.392157%)" stroke-opacity="1" stroke-miterlimit="10" d="M 376.765625 745.136719 C 376.765625 746.136719 375.265625 746.136719 375.265625 745.136719 C 375.265625 744.136719 376.765625 744.136719 376.765625 745.136719 "/>
<path fill-rule="nonzero" fill="rgb(98.431373%, 60.392157%, 60%)" fill-opacity="1" stroke-width="1" stroke-linecap="butt" stroke-linejoin="miter" stroke="rgb(98.431373%, 60.392157%, 60%)" stroke-opacity="1" stroke-miterlimit="10" d="M 529.164062 65.65625 C 529.164062 66.65625 527.664062 66.65625 527.664062 65.65625 C 527.664062 64.65625 529.164062 64.65625 529.164062 65.65625 "/>
<path fill-rule="nonzero" fill="rgb(98.431373%, 60.392157%, 60%)" fill-opacity="1" stroke-width="1" stroke-linecap="butt" stroke-linejoin="miter" stroke="rgb(98.431373%, 60.392157%, 60%)" stroke-opacity="1" stroke-miterlimit="10" d="M 691.769531 229.863281 C 691.769531 230.863281 690.269531 230.863281 690.269531 229.863281 C 690.269531 228.863281 691.769531 228.863281 691.769531 229.863281 "/>
<path fill-rule="nonzero" fill="rgb(98.431373%, 60.392157%, 60%)" fill-opacity="1" stroke-width="1" stroke-linecap="butt" stroke-linejoin="miter" stroke="rgb(98.431373%, 60.392157%, 60%)" stroke-opacity="1" stroke-miterlimit="10" d="M 681.6875 193.910156 C 681.6875 194.910156 680.1875 194.910156 680.1875 193.910156 C 680.1875 192.910156 681.6875 192.910156 681.6875 193.910156 "/>
<path fill-rule="nonzero" fill="rgb(100%, 84.313725%, 0%)" fill-opacity="1" stroke-width="1" stroke-linecap="butt" stroke-linejoin="miter" stroke="rgb(100%, 84.313725%, 0%)" stroke-opacity="1" stroke-miterlimit="10" d="M 337.851562 737.808594 L 340.351562 737.808594 L 340.351562 740.308594 L 337.851562 740.308594 Z M 337.851562 737.808594 "/>
<path fill-rule="nonzero" fill="rgb(98.431373%, 60.392157%, 60%)" fill-opacity="1" stroke-width="1" stroke-linecap="butt" stroke-linejoin="miter" stroke="rgb(98.431373%, 60.392157%, 60%)" stroke-opacity="1" stroke-miterlimit="10" d="M 730.738281 287.554688 C 730.738281 288.554688 729.238281 288.554688 729.238281 287.554688 C 729.238281 286.554688 730.738281 286.554688 730.738281 287.554688 "/>
<path fill-rule="nonzero" fill="rgb(41.568627%, 23.921569%, 60.392157%)" fill-opacity="1" stroke-width="1" stroke-linecap="butt" stroke-linejoin="miter" stroke="rgb(41.568627%, 23.921569%, 60.392157%)" stroke-opacity="1" stroke-miterlimit="10" d="M 569.90625 681.703125 C 569.90625 682.703125 568.40625 682.703125 568.40625 681.703125 C 568.40625 680.703125 569.90625 680.703125 569.90625 681.703125 "/>
<path fill-rule="nonzero" fill="rgb(98.431373%, 60.392157%, 60%)" fill-opacity="1" stroke-width="1" stroke-linecap="butt" stroke-linejoin="miter" stroke="rgb(98.431373%, 60.392157%, 60%)" stroke-opacity="1" stroke-miterlimit="10" d="M 699.320312 266.539062 C 699.320312 267.539062 697.820312 267.539062 697.820312 266.539062 C 697.820312 265.539062 699.320312 265.539062 699.320312 266.539062 "/>
<path fill-rule="nonzero" fill="rgb(98.431373%, 60.392157%, 60%)" fill-opacity="1" stroke-width="1" stroke-linecap="butt" stroke-linejoin="miter" stroke="rgb(98.431373%, 60.392157%, 60%)" stroke-opacity="1" stroke-miterlimit="10" d="M 539.457031 101.835938 C 539.457031 102.835938 537.957031 102.835938 537.957031 101.835938 C 537.957031 100.835938 539.457031 100.835938 539.457031 101.835938 "/>
<path fill-rule="nonzero" fill="rgb(41.568627%, 23.921569%, 60.392157%)" fill-opacity="1" stroke-width="1" stroke-linecap="butt" stroke-linejoin="miter" stroke="rgb(41.568627%, 23.921569%, 60.392157%)" stroke-opacity="1" stroke-miterlimit="10" d="M 598.253906 657.609375 C 598.253906 658.609375 596.753906 658.609375 596.753906 657.609375 C 596.753906 656.609375 598.253906 656.609375 598.253906 657.609375 "/>
<path fill-rule="nonzero" fill="rgb(41.568627%, 23.921569%, 60.392157%)" fill-opacity="1" stroke-width="1" stroke-linecap="butt" stroke-linejoin="miter" stroke="rgb(41.568627%, 23.921569%, 60.392157%)" stroke-opacity="1" stroke-miterlimit="10" d="M 635.28125 654.335938 C 635.28125 655.335938 633.78125 655.335938 633.78125 654.335938 C 633.78125 653.335938 635.28125 653.335938 635.28125 654.335938 "/>
<path fill-rule="nonzero" fill="rgb(98.431373%, 60.392157%, 60%)" fill-opacity="1" stroke-width="1" stroke-linecap="butt" stroke-linejoin="miter" stroke="rgb(98.431373%, 60.392157%, 60%)" stroke-opacity="1" stroke-miterlimit="10" d="M 623.574219 151.773438 C 623.574219 152.773438 622.074219 152.773438 622.074219 151.773438 C 622.074219 150.773438 623.574219 150.773438 623.574219 151.773438 "/>
<path fill-rule="nonzero" fill="rgb(41.568627%, 23.921569%, 60.392157%)" fill-opacity="1" stroke-width="1" stroke-linecap="butt" stroke-linejoin="miter" stroke="rgb(41.568627%, 23.921569%, 60.392157%)" stroke-opacity="1" stroke-miterlimit="10" d="M 469.496094 696.714844 C 469.496094 697.714844 467.996094 697.714844 467.996094 696.714844 C 467.996094 695.714844 469.496094 695.714844 469.496094 696.714844 "/>
<path fill-rule="nonzero" fill="rgb(41.568627%, 23.921569%, 60.392157%)" fill-opacity="1" stroke-width="1" stroke-linecap="butt" stroke-linejoin="miter" stroke="rgb(41.568627%, 23.921569%, 60.392157%)" stroke-opacity="1" stroke-miterlimit="10" d="M 663.734375 631.070312 C 663.734375 632.070312 662.234375 632.070312 662.234375 631.070312 C 662.234375 630.070312 663.734375 630.070312 663.734375 631.070312 "/>
<path fill-rule="nonzero" fill="rgb(14.901961%, 14.901961%, 14.901961%)" fill-opacity="1" stroke-width="1" stroke-linecap="butt" stroke-linejoin="miter" stroke="rgb(14.901961%, 14.901961%, 14.901961%)" stroke-opacity="1" stroke-miterlimit="10" d="M 748.25 361.203125 L 750 357.703125 L 751.75 361.203125 Z M 748.25 361.203125 "/>
<path fill-rule="nonzero" fill="rgb(30.196078%, 68.627451%, 29.019608%)" fill-opacity="1" stroke-width="1" stroke-linecap="butt" stroke-linejoin="miter" stroke="rgb(30.196078%, 68.627451%, 29.019608%)" stroke-opacity="1" stroke-miterlimit="10" d="M 383.683594 424.699219 C 383.683594 425.699219 382.183594 425.699219 382.183594 424.699219 C 382.183594 423.699219 383.683594 423.699219 383.683594 424.699219 "/>
<path fill-rule="nonzero" fill="rgb(14.901961%, 14.901961%, 14.901961%)" fill-opacity="1" stroke-width="1" stroke-linecap="butt" stroke-linejoin="miter" stroke="rgb(14.901961%, 14.901961%, 14.901961%)" stroke-opacity="1" stroke-miterlimit="10" d="M 685.308594 604.5 L 687.058594 601 L 688.808594 604.5 Z M 685.308594 604.5 "/>
<path fill-rule="nonzero" fill="rgb(100%, 84.313725%, 0%)" fill-opacity="1" stroke-width="1" stroke-linecap="butt" stroke-linejoin="miter" stroke="rgb(100%, 84.313725%, 0%)" stroke-opacity="1" stroke-miterlimit="10" d="M 555.816406 428.933594 L 559.316406 428.933594 L 559.316406 432.433594 L 555.816406 432.433594 Z M 555.816406 428.933594 "/>
<path fill-rule="nonzero" fill="rgb(30.196078%, 68.627451%, 29.019608%)" fill-opacity="1" stroke-width="1" stroke-linecap="butt" stroke-linejoin="miter" stroke="rgb(30.196078%, 68.627451%, 29.019608%)" stroke-opacity="1" stroke-miterlimit="10" d="M 593.929688 443.632812 C 593.929688 444.632812 592.429688 444.632812 592.429688 443.632812 C 592.429688 442.632812 593.929688 442.632812 593.929688 443.632812 "/>
<path fill-rule="nonzero" fill="rgb(30.196078%, 68.627451%, 29.019608%)" fill-opacity="1" stroke-width="1" stroke-linecap="butt" stroke-linejoin="miter" stroke="rgb(30.196078%, 68.627451%, 29.019608%)" stroke-opacity="1" stroke-miterlimit="10" d="M 452.976562 399.597656 C 452.976562 400.597656 451.476562 400.597656 451.476562 399.597656 C 451.476562 398.597656 452.976562 398.597656 452.976562 399.597656 "/>
<path fill-rule="nonzero" fill="rgb(14.901961%, 14.901961%, 14.901961%)" fill-opacity="1" stroke-width="1" stroke-linecap="butt" stroke-linejoin="miter" stroke="rgb(14.901961%, 14.901961%, 14.901961%)" stroke-opacity="1" stroke-miterlimit="10" d="M 413.050781 407.410156 L 415.300781 402.910156 L 417.550781 407.410156 Z M 413.050781 407.410156 "/>
<path fill-rule="nonzero" fill="rgb(30.196078%, 68.627451%, 29.019608%)" fill-opacity="1" stroke-width="1" stroke-linecap="butt" stroke-linejoin="miter" stroke="rgb(30.196078%, 68.627451%, 29.019608%)" stroke-opacity="1" stroke-miterlimit="10" d="M 488.492188 410.589844 C 488.492188 411.589844 486.992188 411.589844 486.992188 410.589844 C 486.992188 409.589844 488.492188 409.589844 488.492188 410.589844 "/>
<path fill-rule="nonzero" fill="rgb(30.196078%, 68.627451%, 29.019608%)" fill-opacity="1" stroke-width="1" stroke-linecap="butt" stroke-linejoin="miter" stroke="rgb(30.196078%, 68.627451%, 29.019608%)" stroke-opacity="1" stroke-miterlimit="10" d="M 520.53125 430.847656 C 520.53125 431.847656 519.03125 431.847656 519.03125 430.847656 C 519.03125 429.847656 520.53125 429.847656 520.53125 430.847656 "/>
<path fill-rule="nonzero" fill="rgb(41.568627%, 23.921569%, 60.392157%)" fill-opacity="1" stroke-width="1" stroke-linecap="butt" stroke-linejoin="miter" stroke="rgb(41.568627%, 23.921569%, 60.392157%)" stroke-opacity="1" stroke-miterlimit="10" d="M 440.089844 720.421875 C 440.089844 721.421875 438.589844 721.421875 438.589844 720.421875 C 438.589844 719.421875 440.089844 719.421875 440.089844 720.421875 "/>
<path fill-rule="nonzero" fill="rgb(41.568627%, 23.921569%, 60.392157%)" fill-opacity="1" stroke-width="1" stroke-linecap="butt" stroke-linejoin="miter" stroke="rgb(41.568627%, 23.921569%, 60.392157%)" stroke-opacity="1" stroke-miterlimit="10" d="M 403.375 717.816406 C 403.375 718.816406 401.875 718.816406 401.875 717.816406 C 401.875 716.816406 403.375 716.816406 403.375 717.816406 "/>
<path fill-rule="nonzero" fill="rgb(41.568627%, 23.921569%, 60.392157%)" fill-opacity="1" stroke-width="1" stroke-linecap="butt" stroke-linejoin="miter" stroke="rgb(41.568627%, 23.921569%, 60.392157%)" stroke-opacity="1" stroke-miterlimit="10" d="M 505.996094 702.707031 C 505.996094 703.707031 504.496094 703.707031 504.496094 702.707031 C 504.496094 701.707031 505.996094 701.707031 505.996094 702.707031 "/>
<path fill-rule="nonzero" fill="rgb(41.568627%, 23.921569%, 60.392157%)" fill-opacity="1" stroke-width="1" stroke-linecap="butt" stroke-linejoin="miter" stroke="rgb(41.568627%, 23.921569%, 60.392157%)" stroke-opacity="1" stroke-miterlimit="10" d="M 544.238281 710.871094 C 544.238281 712.535156 541.738281 712.535156 541.738281 710.871094 C 541.738281 709.203125 544.238281 709.203125 544.238281 710.871094 "/>
<path fill-rule="nonzero" fill="rgb(41.568627%, 23.921569%, 60.392157%)" fill-opacity="1" stroke-width="1" stroke-linecap="butt" stroke-linejoin="miter" stroke="rgb(41.568627%, 23.921569%, 60.392157%)" stroke-opacity="1" stroke-miterlimit="10" d="M 555.679688 750 C 555.679688 751 554.179688 751 554.179688 750 C 554.179688 749 555.679688 749 555.679688 750 "/>
<path fill-rule="nonzero" fill="rgb(100%, 84.313725%, 0%)" fill-opacity="1" stroke-width="1" stroke-linecap="butt" stroke-linejoin="miter" stroke="rgb(100%, 84.313725%, 0%)" stroke-opacity="1" stroke-miterlimit="10" d="M 493.003906 48.75 L 495.503906 48.75 L 495.503906 51.25 L 493.003906 51.25 Z M 493.003906 48.75 "/>
<path fill-rule="nonzero" fill="rgb(98.431373%, 60.392157%, 60%)" fill-opacity="1" stroke-width="1" stroke-linecap="butt" stroke-linejoin="miter" stroke="rgb(98.431373%, 60.392157%, 60%)" stroke-opacity="1" stroke-miterlimit="10" d="M 553.667969 136.75 C 553.667969 137.75 552.167969 137.75 552.167969 136.75 C 552.167969 135.75 553.667969 135.75 553.667969 136.75 "/>
<path fill-rule="nonzero" fill="rgb(98.431373%, 60.392157%, 60%)" fill-opacity="1" stroke-width="1" stroke-linecap="butt" stroke-linejoin="miter" stroke="rgb(98.431373%, 60.392157%, 60%)" stroke-opacity="1" stroke-miterlimit="10" d="M 743.359375 322.6875 C 743.359375 323.6875 741.859375 323.6875 741.859375 322.6875 C 741.859375 321.6875 743.359375 321.6875 743.359375 322.6875 "/>
<path fill-rule="nonzero" fill="rgb(12.156863%, 47.058824%, 70.588235%)" fill-opacity="1" stroke-width="1" stroke-linecap="butt" stroke-linejoin="miter" stroke="rgb(12.156863%, 47.058824%, 70.588235%)" stroke-opacity="1" stroke-miterlimit="10" d="M 118.292969 495.648438 C 118.292969 496.648438 116.792969 496.648438 116.792969 495.648438 C 116.792969 494.648438 118.292969 494.648438 118.292969 495.648438 "/>
<path fill-rule="nonzero" fill="rgb(12.156863%, 47.058824%, 70.588235%)" fill-opacity="1" stroke-width="1" stroke-linecap="butt" stroke-linejoin="miter" stroke="rgb(12.156863%, 47.058824%, 70.588235%)" stroke-opacity="1" stroke-miterlimit="10" d="M 92.9375 523.695312 C 92.9375 524.695312 91.4375 524.695312 91.4375 523.695312 C 91.4375 522.695312 92.9375 522.695312 92.9375 523.695312 "/>
<path fill-rule="nonzero" fill="rgb(12.156863%, 47.058824%, 70.588235%)" fill-opacity="1" stroke-width="1" stroke-linecap="butt" stroke-linejoin="miter" stroke="rgb(12.156863%, 47.058824%, 70.588235%)" stroke-opacity="1" stroke-miterlimit="10" d="M 152.851562 640.761719 C 152.851562 641.761719 151.351562 641.761719 151.351562 640.761719 C 151.351562 639.761719 152.851562 639.761719 152.851562 640.761719 "/>
<path fill-rule="nonzero" fill="rgb(14.901961%, 14.901961%, 14.901961%)" fill-opacity="1" stroke-width="1" stroke-linecap="butt" stroke-linejoin="miter" stroke="rgb(14.901961%, 14.901961%, 14.901961%)" stroke-opacity="1" stroke-miterlimit="10" d="M 199.800781 689.539062 L 201.550781 686.039062 L 203.300781 689.539062 Z M 199.800781 689.539062 "/>
<path fill-rule="nonzero" fill="rgb(12.156863%, 47.058824%, 70.588235%)" fill-opacity="1" stroke-width="1" stroke-linecap="butt" stroke-linejoin="miter" stroke="rgb(12.156863%, 47.058824%, 70.588235%)" stroke-opacity="1" stroke-miterlimit="10" d="M 167.582031 675.492188 C 167.582031 676.492188 166.082031 676.492188 166.082031 675.492188 C 166.082031 674.492188 167.582031 674.492188 167.582031 675.492188 "/>
<path fill-rule="nonzero" fill="rgb(12.156863%, 47.058824%, 70.588235%)" fill-opacity="1" stroke-width="1" stroke-linecap="butt" stroke-linejoin="miter" stroke="rgb(12.156863%, 47.058824%, 70.588235%)" stroke-opacity="1" stroke-miterlimit="10" d="M 118.140625 627.222656 C 118.140625 628.222656 116.640625 628.222656 116.640625 627.222656 C 116.640625 626.222656 118.140625 626.222656 118.140625 627.222656 "/>
<path fill-rule="nonzero" fill="rgb(12.156863%, 47.058824%, 70.588235%)" fill-opacity="1" stroke-width="1" stroke-linecap="butt" stroke-linejoin="miter" stroke="rgb(12.156863%, 47.058824%, 70.588235%)" stroke-opacity="1" stroke-miterlimit="10" d="M 96.308594 597.203125 C 96.308594 598.203125 94.808594 598.203125 94.808594 597.203125 C 94.808594 596.203125 96.308594 596.203125 96.308594 597.203125 "/>
<path fill-rule="nonzero" fill="rgb(12.156863%, 47.058824%, 70.588235%)" fill-opacity="1" stroke-width="1" stroke-linecap="butt" stroke-linejoin="miter" stroke="rgb(12.156863%, 47.058824%, 70.588235%)" stroke-opacity="1" stroke-miterlimit="10" d="M 86.125 561.015625 C 86.125 562.015625 84.625 562.015625 84.625 561.015625 C 84.625 560.015625 86.125 560.015625 86.125 561.015625 "/>
<path fill-rule="nonzero" fill="rgb(100%, 84.313725%, 0%)" fill-opacity="1" stroke-width="1" stroke-linecap="butt" stroke-linejoin="miter" stroke="rgb(100%, 84.313725%, 0%)" stroke-opacity="1" stroke-miterlimit="10" d="M 152.09375 481.3125 L 154.59375 481.3125 L 154.59375 483.8125 L 152.09375 483.8125 Z M 152.09375 481.3125 "/>
</svg>
