<?xml version="1.0" encoding="UTF-8"?>
<svg xmlns="http://www.w3.org/2000/svg" xmlns:xlink="http://www.w3.org/1999/xlink" width="800" height="800" viewBox="0 0 800 800">
<rect x="-80" y="-80" width="960" height="960" fill="rgb(100%, 100%, 100%)" fill-opacity="1"/>
<path fill="none" stroke-width="1.5" stroke-linecap="butt" stroke-linejoin="miter" stroke="rgb(12.156863%, 47.058824%, 70.588235%)" stroke-opacity="1" stroke-miterlimit="10" d="M 67.496094 223.300781 C 42.738281 276.390625 40.988281 330.277344 65.335938 383.542969 "/>
<path fill-rule="nonzero" fill="rgb(12.156863%, 47.058824%, 70.588235%)" fill-opacity="1" d="M 68.304688 390.03125 L 63.230469 384.507812 L 67.445312 382.578125 L 68.304688 390.03125 "/>
<path fill="none" stroke-width="4.5" stroke-linecap="butt" stroke-linejoin="miter" stroke="rgb(70.196078%, 70.196078%, 70.196078%)" stroke-opacity="1" stroke-miterlimit="10" d="M 67.496094 223.300781 C 41.050781 269.457031 35.222656 318.140625 53.34375 368.144531 "/>
<path fill-rule="nonzero" fill="rgb(70.196078%, 70.196078%, 70.196078%)" fill-opacity="1" d="M 55.773438 374.847656 L 51.164062 368.933594 L 55.523438 367.355469 L 55.773438 374.847656 "/>
<path fill="none" stroke-width="1.5" stroke-linecap="butt" stroke-linejoin="miter" stroke="rgb(12.156863%, 47.058824%, 70.588235%)" stroke-opacity="1" stroke-miterlimit="10" d="M 67.496094 223.300781 C 75.675781 195.980469 73.195312 169.5625 57.234375 145.957031 "/>
<path fill-rule="nonzero" fill="rgb(12.156863%, 47.058824%, 70.588235%)" fill-opacity="1" d="M 53.238281 140.046875 L 59.152344 144.65625 L 55.3125 147.253906 L 53.238281 140.046875 "/>
<path fill="none" stroke-width="1.5" stroke-linecap="butt" stroke-linejoin="miter" stroke="rgb(12.156863%, 47.058824%, 70.588235%)" stroke-opacity="1" stroke-miterlimit="10" d="M 67.496094 223.300781 C 55.726562 233.378906 48.582031 246.230469 49.453125 261.664062 "/>
<path fill-rule="nonzero" fill="rgb(12.156863%, 47.058824%, 70.588235%)" fill-opacity="1" d="M 49.851562 268.785156 L 47.136719 261.792969 L 51.765625 261.53125 L 49.851562 268.785156 "/>
<path fill="none" stroke-width="1.5" stroke-linecap="butt" stroke-linejoin="miter" stroke="rgb(12.156863%, 47.058824%, 70.588235%)" stroke-opacity="1" stroke-miterlimit="10" d="M 67.496094 223.300781 C 91.605469 168.207031 92.058594 112.871094 65.792969 58.785156 "/>
<path fill-rule="nonzero" fill="rgb(12.156863%, 47.058824%, 70.588235%)" fill-opacity="1" d="M 62.675781 52.367188 L 67.878906 57.773438 L 63.707031 59.796875 L 62.675781 52.367188 "/>
<path fill="none" stroke-width="1.5" stroke-linecap="butt" stroke-linejoin="miter" stroke="rgb(12.156863%, 47.058824%, 70.588235%)" stroke-opacity="1" stroke-miterlimit="10" d="M 67.496094 223.300781 C 93.609375 174.003906 97.933594 122.816406 77.304688 70.996094 "/>
<path fill-rule="nonzero" fill="rgb(12.156863%, 47.058824%, 70.588235%)" fill-opacity="1" d="M 74.667969 64.367188 L 79.457031 70.136719 L 75.152344 71.851562 L 74.667969 64.367188 "/>
<path fill="none" stroke-width="1.5" stroke-linecap="butt" stroke-linejoin="miter" stroke="rgb(12.156863%, 47.058824%, 70.588235%)" stroke-opacity="1" stroke-miterlimit="10" d="M 69.398438 392.421875 C 94.097656 341.453125 96.722656 289.304688 73.796875 237.527344 "/>
<path fill-rule="nonzero" fill="rgb(12.156863%, 47.058824%, 70.588235%)" fill-opacity="1" d="M 70.90625 231.003906 L 75.914062 236.589844 L 71.675781 238.464844 L 70.90625 231.003906 "/>
<path fill="none" stroke-width="4.5" stroke-linecap="butt" stroke-linejoin="miter" stroke="rgb(70.196078%, 70.196078%, 70.196078%)" stroke-opacity="1" stroke-miterlimit="10" d="M 57.351562 379.203125 C 83.644531 334.421875 89.945312 286.921875 72.671875 237.96875 "/>
<path fill-rule="nonzero" fill="rgb(70.196078%, 70.196078%, 70.196078%)" fill-opacity="1" d="M 70.296875 231.242188 L 74.855469 237.195312 L 70.484375 238.738281 L 70.296875 231.242188 "/>
<path fill="none" stroke-width="1.5" stroke-linecap="butt" stroke-linejoin="miter" stroke="rgb(12.156863%, 47.058824%, 70.588235%)" stroke-opacity="1" stroke-miterlimit="10" d="M 51.769531 137.871094 C 43.339844 162.886719 44.632812 187.523438 58.832031 209.742188 "/>
<path fill-rule="nonzero" fill="rgb(12.156863%, 47.058824%, 70.588235%)" fill-opacity="1" d="M 62.671875 215.75 L 56.878906 210.988281 L 60.785156 208.492188 L 62.671875 215.75 "/>
<path fill="none" stroke-width="1.5" stroke-linecap="butt" stroke-linejoin="miter" stroke="rgb(12.156863%, 47.058824%, 70.588235%)" stroke-opacity="1" stroke-miterlimit="10" d="M 50 271.398438 C 60.710938 263.351562 67.839844 252.636719 67.683594 239.296875 "/>
<path fill-rule="nonzero" fill="rgb(12.156863%, 47.058824%, 70.588235%)" fill-opacity="1" d="M 67.597656 232.164062 L 70 239.269531 L 65.363281 239.324219 L 67.597656 232.164062 "/>
<path fill="none" stroke-width="1.5" stroke-linecap="butt" stroke-linejoin="miter" stroke="rgb(12.156863%, 47.058824%, 70.588235%)" stroke-opacity="1" stroke-miterlimit="10" d="M 61.527344 50 C 37.421875 102.972656 36.054688 156.589844 60.859375 209.222656 "/>
<path fill-rule="nonzero" fill="rgb(12.156863%, 47.058824%, 70.588235%)" fill-opacity="1" d="M 63.902344 215.675781 L 58.765625 210.210938 L 62.957031 208.234375 L 63.902344 215.675781 "/>
<path fill="none" stroke-width="5.5" stroke-linecap="butt" stroke-linejoin="miter" stroke="rgb(70.196078%, 70.196078%, 70.196078%)" stroke-opacity="1" stroke-miterlimit="10" d="M 86.273438 245.667969 C 86.652344 240.414062 85.644531 234.898438 81.320312 232.132812 "/>
<path fill-rule="nonzero" fill="rgb(70.196078%, 70.196078%, 70.196078%)" fill-opacity="1" d="M 75.3125 228.292969 L 82.570312 230.179688 L 80.074219 234.085938 L 75.3125 228.292969 "/>
<path fill="none" stroke-width="1.5" stroke-linecap="butt" stroke-linejoin="miter" stroke="rgb(12.156863%, 47.058824%, 70.588235%)" stroke-opacity="1" stroke-miterlimit="10" d="M 73.691406 61.921875 C 47.742188 109.105469 42.636719 158.511719 61.921875 208.773438 "/>
<path fill-rule="nonzero" fill="rgb(12.156863%, 47.058824%, 70.588235%)" fill-opacity="1" d="M 64.476562 215.433594 L 59.757812 209.605469 L 64.085938 207.945312 L 64.476562 215.433594 "/>
<path fill="none" stroke-width="5.5" stroke-linecap="butt" stroke-linejoin="miter" stroke="rgb(70.196078%, 70.196078%, 70.196078%)" stroke-opacity="1" stroke-miterlimit="10" d="M 103.234375 266.695312 C 103.261719 260.722656 101.636719 254.75 96.589844 251.769531 "/>
<path fill-rule="nonzero" fill="rgb(70.196078%, 70.196078%, 70.196078%)" fill-opacity="1" d="M 90.449219 248.140625 L 97.769531 249.773438 L 95.414062 253.765625 L 90.449219 248.140625 "/>
<path fill="none" stroke-width="5.5" stroke-linecap="butt" stroke-linejoin="miter" stroke="rgb(70.196078%, 70.196078%, 70.196078%)" stroke-opacity="1" stroke-miterlimit="10" d="M 119.527344 287.582031 C 119.691406 281.800781 118.269531 275.945312 113.445312 272.976562 "/>
<path fill-rule="nonzero" fill="rgb(70.196078%, 70.196078%, 70.196078%)" fill-opacity="1" d="M 107.367188 269.238281 L 114.660156 271.003906 L 112.230469 274.949219 L 107.367188 269.238281 "/>
<path fill="none" stroke-width="5.5" stroke-linecap="butt" stroke-linejoin="miter" stroke="rgb(70.196078%, 70.196078%, 70.196078%)" stroke-opacity="1" stroke-miterlimit="10" d="M 151.46875 333.441406 C 151.933594 326.957031 150.5625 320.445312 145.347656 316.746094 "/>
<path fill-rule="nonzero" fill="rgb(70.196078%, 70.196078%, 70.196078%)" fill-opacity="1" d="M 139.527344 312.617188 L 146.6875 314.855469 L 144.003906 318.636719 L 139.527344 312.617188 "/>
<path fill="none" stroke-width="5.5" stroke-linecap="butt" stroke-linejoin="miter" stroke="rgb(70.196078%, 70.196078%, 70.196078%)" stroke-opacity="1" stroke-miterlimit="10" d="M 135.5625 309.804688 C 135.882812 303.703125 134.511719 297.542969 129.511719 294.21875 "/>
<path fill-rule="nonzero" fill="rgb(70.196078%, 70.196078%, 70.196078%)" fill-opacity="1" d="M 123.574219 290.269531 L 130.796875 292.289062 L 128.230469 296.148438 L 123.574219 290.269531 "/>
<path fill="none" stroke-width="5.5" stroke-linecap="butt" stroke-linejoin="miter" stroke="rgb(70.196078%, 70.196078%, 70.196078%)" stroke-opacity="1" stroke-miterlimit="10" d="M 167.296875 358.472656 C 167.898438 351.59375 166.519531 344.71875 161.070312 340.636719 "/>
<path fill-rule="nonzero" fill="rgb(70.196078%, 70.196078%, 70.196078%)" fill-opacity="1" d="M 155.363281 336.359375 L 162.460938 338.78125 L 159.683594 342.492188 L 155.363281 336.359375 "/>
<path fill="none" stroke-width="5.5" stroke-linecap="butt" stroke-linejoin="miter" stroke="rgb(70.196078%, 70.196078%, 70.196078%)" stroke-opacity="1" stroke-miterlimit="10" d="M 182.976562 388.296875 C 184.0625 379.992188 182.625 371.792969 176.363281 366.351562 "/>
<path fill-rule="nonzero" fill="rgb(70.196078%, 70.196078%, 70.196078%)" fill-opacity="1" d="M 170.980469 361.671875 L 177.882812 364.601562 L 174.84375 368.101562 L 170.980469 361.671875 "/>
<path fill="none" stroke-width="5.5" stroke-linecap="butt" stroke-linejoin="miter" stroke="rgb(70.196078%, 70.196078%, 70.196078%)" stroke-opacity="1" stroke-miterlimit="10" d="M 198.765625 413.402344 C 199.382812 406.507812 198.011719 399.617188 192.5625 395.515625 "/>
<path fill-rule="nonzero" fill="rgb(70.196078%, 70.196078%, 70.196078%)" fill-opacity="1" d="M 186.863281 391.226562 L 193.957031 393.664062 L 191.167969 397.367188 L 186.863281 391.226562 "/>
<path fill="none" stroke-width="5.5" stroke-linecap="butt" stroke-linejoin="miter" stroke="rgb(70.196078%, 70.196078%, 70.196078%)" stroke-opacity="1" stroke-miterlimit="10" d="M 467.371094 731.09375 C 464.507812 730.03125 460.851562 729.484375 459.039062 731.65625 "/>
<path fill-rule="nonzero" fill="rgb(70.196078%, 70.196078%, 70.196078%)" fill-opacity="1" d="M 454.46875 737.132812 L 457.261719 730.171875 L 460.820312 733.144531 L 454.46875 737.132812 "/>
<path fill="none" stroke-width="5.5" stroke-linecap="butt" stroke-linejoin="miter" stroke="rgb(70.196078%, 70.196078%, 70.196078%)" stroke-opacity="1" stroke-miterlimit="10" d="M 483.335938 718.820312 C 479.855469 718.167969 475.757812 718.296875 473.921875 721.101562 "/>
<path fill-rule="nonzero" fill="rgb(70.196078%, 70.196078%, 70.196078%)" fill-opacity="1" d="M 470.011719 727.066406 L 471.980469 719.828125 L 475.859375 722.371094 L 470.011719 727.066406 "/>
<path fill="none" stroke-width="5.5" stroke-linecap="butt" stroke-linejoin="miter" stroke="rgb(70.196078%, 70.196078%, 70.196078%)" stroke-opacity="1" stroke-miterlimit="10" d="M 499.300781 707.226562 C 495.988281 706.457031 492.003906 706.398438 490.171875 709.023438 "/>
<path fill-rule="nonzero" fill="rgb(70.196078%, 70.196078%, 70.196078%)" fill-opacity="1" d="M 486.089844 714.875 L 488.269531 707.699219 L 492.070312 710.351562 L 486.089844 714.875 "/>
<path fill="none" stroke-width="5.5" stroke-linecap="butt" stroke-linejoin="miter" stroke="rgb(70.196078%, 70.196078%, 70.196078%)" stroke-opacity="1" stroke-miterlimit="10" d="M 515.230469 691.339844 C 510.867188 691.410156 506.222656 692.605469 504.417969 696.410156 "/>
<path fill-rule="nonzero" fill="rgb(70.196078%, 70.196078%, 70.196078%)" fill-opacity="1" d="M 501.367188 702.859375 L 502.324219 695.421875 L 506.515625 697.402344 L 501.367188 702.859375 "/>
<path fill="none" stroke-width="5.5" stroke-linecap="butt" stroke-linejoin="miter" stroke="rgb(70.196078%, 70.196078%, 70.196078%)" stroke-opacity="1" stroke-miterlimit="10" d="M 214.609375 434.449219 C 214.882812 428.726562 213.589844 422.886719 208.863281 419.859375 "/>
<path fill-rule="nonzero" fill="rgb(70.196078%, 70.196078%, 70.196078%)" fill-opacity="1" d="M 202.851562 416.015625 L 210.109375 417.910156 L 207.613281 421.8125 L 202.851562 416.015625 "/>
<path fill="none" stroke-width="5.5" stroke-linecap="butt" stroke-linejoin="miter" stroke="rgb(70.196078%, 70.196078%, 70.196078%)" stroke-opacity="1" stroke-miterlimit="10" d="M 230.070312 473.613281 C 232.238281 462.394531 230.691406 451.449219 222.878906 443.191406 "/>
<path fill-rule="nonzero" fill="rgb(70.196078%, 70.196078%, 70.196078%)" fill-opacity="1" d="M 217.976562 438.011719 L 224.5625 441.597656 L 221.195312 444.785156 L 217.976562 438.011719 "/>
<path fill="none" stroke-width="5.5" stroke-linecap="butt" stroke-linejoin="miter" stroke="rgb(70.196078%, 70.196078%, 70.196078%)" stroke-opacity="1" stroke-miterlimit="10" d="M 245.824219 498.164062 C 246.398438 491.445312 245.054688 484.707031 239.710938 480.753906 "/>
<path fill-rule="nonzero" fill="rgb(70.196078%, 70.196078%, 70.196078%)" fill-opacity="1" d="M 233.980469 476.507812 L 241.089844 478.890625 L 238.332031 482.613281 L 233.980469 476.507812 "/>
<path fill="none" stroke-width="5.5" stroke-linecap="butt" stroke-linejoin="miter" stroke="rgb(70.196078%, 70.196078%, 70.196078%)" stroke-opacity="1" stroke-miterlimit="10" d="M 261.589844 523.332031 C 262.214844 516.425781 260.851562 509.519531 255.398438 505.398438 "/>
<path fill-rule="nonzero" fill="rgb(70.196078%, 70.196078%, 70.196078%)" fill-opacity="1" d="M 249.707031 501.097656 L 256.796875 503.550781 L 254 507.246094 L 249.707031 501.097656 "/>
<path fill="none" stroke-width="5.5" stroke-linecap="butt" stroke-linejoin="miter" stroke="rgb(70.196078%, 70.196078%, 70.196078%)" stroke-opacity="1" stroke-miterlimit="10" d="M 546.753906 637.96875 C 538.847656 642.453125 532.785156 649.050781 532.0625 658.035156 "/>
<path fill-rule="nonzero" fill="rgb(70.196078%, 70.196078%, 70.196078%)" fill-opacity="1" d="M 531.492188 665.148438 L 529.753906 657.851562 L 534.375 658.222656 L 531.492188 665.148438 "/>
<path fill="none" stroke-width="5.5" stroke-linecap="butt" stroke-linejoin="miter" stroke="rgb(70.196078%, 70.196078%, 70.196078%)" stroke-opacity="1" stroke-miterlimit="10" d="M 531.101562 670.015625 C 525.453125 671.410156 520.167969 674.355469 518.578125 679.828125 "/>
<path fill-rule="nonzero" fill="rgb(70.196078%, 70.196078%, 70.196078%)" fill-opacity="1" d="M 516.585938 686.679688 L 516.351562 679.183594 L 520.800781 680.476562 L 516.585938 686.679688 "/>
<path fill="none" stroke-width="5.5" stroke-linecap="butt" stroke-linejoin="miter" stroke="rgb(70.196078%, 70.196078%, 70.196078%)" stroke-opacity="1" stroke-miterlimit="10" d="M 626.210938 570.449219 C 622.066406 570.335938 617.550781 571.269531 615.746094 574.816406 "/>
<path fill-rule="nonzero" fill="rgb(70.196078%, 70.196078%, 70.196078%)" fill-opacity="1" d="M 612.507812 581.171875 L 613.679688 573.765625 L 617.808594 575.867188 L 612.507812 581.171875 "/>
<path fill="none" stroke-width="5.5" stroke-linecap="butt" stroke-linejoin="miter" stroke="rgb(70.196078%, 70.196078%, 70.196078%)" stroke-opacity="1" stroke-miterlimit="10" d="M 610.316406 585.472656 C 608.996094 583.765625 606.726562 581.835938 605.109375 582.695312 "/>
<path fill-rule="nonzero" fill="rgb(70.196078%, 70.196078%, 70.196078%)" fill-opacity="1" d="M 598.8125 586.042969 L 604.023438 580.648438 L 606.199219 584.742188 L 598.8125 586.042969 "/>
<path fill="none" stroke-width="5.5" stroke-linecap="butt" stroke-linejoin="miter" stroke="rgb(70.196078%, 70.196078%, 70.196078%)" stroke-opacity="1" stroke-miterlimit="10" d="M 642.066406 554.242188 C 637.640625 554.382812 632.96875 555.679688 631.191406 559.566406 "/>
<path fill-rule="nonzero" fill="rgb(70.196078%, 70.196078%, 70.196078%)" fill-opacity="1" d="M 628.222656 566.054688 L 629.082031 558.601562 L 633.296875 560.53125 L 628.222656 566.054688 "/>
<path fill="none" stroke-width="5.5" stroke-linecap="butt" stroke-linejoin="miter" stroke="rgb(70.196078%, 70.196078%, 70.196078%)" stroke-opacity="1" stroke-miterlimit="10" d="M 562.3125 598.550781 C 552.992188 605.332031 546.609375 614.46875 546.679688 625.933594 "/>
<path fill-rule="nonzero" fill="rgb(70.196078%, 70.196078%, 70.196078%)" fill-opacity="1" d="M 546.722656 633.066406 L 544.363281 625.949219 L 548.996094 625.921875 L 546.722656 633.066406 "/>
<path fill="none" stroke-width="5.5" stroke-linecap="butt" stroke-linejoin="miter" stroke="rgb(70.196078%, 70.196078%, 70.196078%)" stroke-opacity="1" stroke-miterlimit="10" d="M 277.546875 535.019531 C 277.257812 531.613281 276.082031 527.792969 273.007812 526.84375 "/>
<path fill-rule="nonzero" fill="rgb(70.196078%, 70.196078%, 70.196078%)" fill-opacity="1" d="M 266.1875 524.746094 L 273.6875 524.628906 L 272.324219 529.058594 L 266.1875 524.746094 "/>
<path fill="none" stroke-width="5.5" stroke-linecap="butt" stroke-linejoin="miter" stroke="rgb(70.196078%, 70.196078%, 70.196078%)" stroke-opacity="1" stroke-miterlimit="10" d="M 293.019531 573.808594 C 295.140625 562.707031 293.597656 551.875 285.84375 543.734375 "/>
<path fill-rule="nonzero" fill="rgb(70.196078%, 70.196078%, 70.196078%)" fill-opacity="1" d="M 280.925781 538.566406 L 287.523438 542.136719 L 284.164062 545.332031 L 280.925781 538.566406 "/>
<path fill="none" stroke-width="5.5" stroke-linecap="butt" stroke-linejoin="miter" stroke="rgb(70.196078%, 70.196078%, 70.196078%)" stroke-opacity="1" stroke-miterlimit="10" d="M 308.863281 595.25 C 309.167969 589.410156 307.867188 583.472656 303.066406 580.347656 "/>
<path fill-rule="nonzero" fill="rgb(70.196078%, 70.196078%, 70.196078%)" fill-opacity="1" d="M 297.089844 576.457031 L 304.332031 578.40625 L 301.800781 582.289062 L 297.089844 576.457031 "/>
<path fill="none" stroke-width="5.5" stroke-linecap="butt" stroke-linejoin="miter" stroke="rgb(70.196078%, 70.196078%, 70.196078%)" stroke-opacity="1" stroke-miterlimit="10" d="M 689.34375 479.921875 C 683.242188 481.882812 677.773438 485.53125 676.328125 491.664062 "/>
<path fill-rule="nonzero" fill="rgb(70.196078%, 70.196078%, 70.196078%)" fill-opacity="1" d="M 674.6875 498.605469 L 674.070312 491.132812 L 678.582031 492.195312 L 674.6875 498.605469 "/>
<path fill="none" stroke-width="5.5" stroke-linecap="butt" stroke-linejoin="miter" stroke="rgb(70.196078%, 70.196078%, 70.196078%)" stroke-opacity="1" stroke-miterlimit="10" d="M 324.804688 610.261719 C 324.675781 606.109375 323.476562 601.648438 319.820312 600.046875 "/>
<path fill-rule="nonzero" fill="rgb(70.196078%, 70.196078%, 70.196078%)" fill-opacity="1" d="M 313.285156 597.1875 L 320.75 597.925781 L 318.890625 602.171875 L 313.285156 597.1875 "/>
<path fill="none" stroke-width="5.5" stroke-linecap="butt" stroke-linejoin="miter" stroke="rgb(70.196078%, 70.196078%, 70.196078%)" stroke-opacity="1" stroke-miterlimit="10" d="M 340.191406 652.226562 C 342.710938 640.117188 341.144531 628.316406 332.882812 619.183594 "/>
<path fill-rule="nonzero" fill="rgb(70.196078%, 70.196078%, 70.196078%)" fill-opacity="1" d="M 328.09375 613.898438 L 334.597656 617.628906 L 331.164062 620.742188 L 328.09375 613.898438 "/>
<path fill="none" stroke-width="5.5" stroke-linecap="butt" stroke-linejoin="miter" stroke="rgb(70.196078%, 70.196078%, 70.196078%)" stroke-opacity="1" stroke-miterlimit="10" d="M 355.761719 687.691406 C 357.476562 677.632812 355.960938 667.796875 348.746094 660.675781 "/>
<path fill-rule="nonzero" fill="rgb(70.196078%, 70.196078%, 70.196078%)" fill-opacity="1" d="M 343.671875 655.664062 L 350.375 659.023438 L 347.117188 662.324219 L 343.671875 655.664062 "/>
<path fill="none" stroke-width="5.5" stroke-linecap="butt" stroke-linejoin="miter" stroke="rgb(70.196078%, 70.196078%, 70.196078%)" stroke-opacity="1" stroke-miterlimit="10" d="M 387.417969 732.648438 C 387.464844 727.753906 386.222656 722.648438 382.042969 720.382812 "/>
<path fill-rule="nonzero" fill="rgb(70.196078%, 70.196078%, 70.196078%)" fill-opacity="1" d="M 375.773438 716.984375 L 383.148438 718.347656 L 380.9375 722.421875 L 375.773438 716.984375 "/>
<path fill="none" stroke-width="5.5" stroke-linecap="butt" stroke-linejoin="miter" stroke="rgb(70.196078%, 70.196078%, 70.196078%)" stroke-opacity="1" stroke-miterlimit="10" d="M 371.515625 714.679688 C 372.3125 707.226562 370.910156 699.824219 365.132812 695.195312 "/>
<path fill-rule="nonzero" fill="rgb(70.196078%, 70.196078%, 70.196078%)" fill-opacity="1" d="M 359.5625 690.738281 L 366.582031 693.386719 L 363.683594 697.003906 L 359.5625 690.738281 "/>
<path fill="none" stroke-width="5.5" stroke-linecap="butt" stroke-linejoin="miter" stroke="rgb(70.196078%, 70.196078%, 70.196078%)" stroke-opacity="1" stroke-miterlimit="10" d="M 705.21875 459.960938 C 699.890625 461 694.746094 463.5 693.089844 468.539062 "/>
<path fill-rule="nonzero" fill="rgb(70.196078%, 70.196078%, 70.196078%)" fill-opacity="1" d="M 690.859375 475.316406 L 690.886719 467.816406 L 695.289062 469.261719 L 690.859375 475.316406 "/>
<path fill="none" stroke-width="5.5" stroke-linecap="butt" stroke-linejoin="miter" stroke="rgb(70.196078%, 70.196078%, 70.196078%)" stroke-opacity="1" stroke-miterlimit="10" d="M 578.339844 594.9375 C 576.898438 593.261719 574.496094 591.429688 572.863281 592.382812 "/>
<path fill-rule="nonzero" fill="rgb(70.196078%, 70.196078%, 70.196078%)" fill-opacity="1" d="M 566.703125 595.984375 L 571.691406 590.382812 L 574.03125 594.382812 L 566.703125 595.984375 "/>
<path fill="none" stroke-width="5.5" stroke-linecap="butt" stroke-linejoin="miter" stroke="rgb(70.196078%, 70.196078%, 70.196078%)" stroke-opacity="1" stroke-miterlimit="10" d="M 451.390625 740.820312 C 449.050781 739.472656 445.820312 738.394531 444.046875 740.078125 "/>
<path fill-rule="nonzero" fill="rgb(70.196078%, 70.196078%, 70.196078%)" fill-opacity="1" d="M 438.875 744.992188 L 442.449219 738.398438 L 445.640625 741.761719 L 438.875 744.992188 "/>
<path fill="none" stroke-width="5.5" stroke-linecap="butt" stroke-linejoin="miter" stroke="rgb(70.196078%, 70.196078%, 70.196078%)" stroke-opacity="1" stroke-miterlimit="10" d="M 403.375 744.996094 C 403.117188 741.449219 401.9375 737.511719 398.746094 736.441406 "/>
<path fill-rule="nonzero" fill="rgb(70.196078%, 70.196078%, 70.196078%)" fill-opacity="1" d="M 391.984375 734.175781 L 399.484375 734.246094 L 398.011719 738.640625 L 391.984375 734.175781 "/>
<path fill="none" stroke-width="5.5" stroke-linecap="butt" stroke-linejoin="miter" stroke="rgb(70.196078%, 70.196078%, 70.196078%)" stroke-opacity="1" stroke-miterlimit="10" d="M 419.378906 750 C 418.882812 747.738281 417.613281 744.902344 415.601562 744.917969 "/>
<path fill-rule="nonzero" fill="rgb(70.196078%, 70.196078%, 70.196078%)" fill-opacity="1" d="M 408.46875 744.960938 L 415.585938 742.597656 L 415.613281 747.234375 L 408.46875 744.960938 "/>
<path fill="none" stroke-width="5.5" stroke-linecap="butt" stroke-linejoin="miter" stroke="rgb(70.196078%, 70.196078%, 70.196078%)" stroke-opacity="1" stroke-miterlimit="10" d="M 435.398438 748.292969 C 434.269531 746.511719 432.207031 744.410156 430.578125 745.121094 "/>
<path fill-rule="nonzero" fill="rgb(70.196078%, 70.196078%, 70.196078%)" fill-opacity="1" d="M 424.039062 747.96875 L 429.652344 742.996094 L 431.503906 747.246094 L 424.039062 747.96875 "/>
<path fill="none" stroke-width="5.5" stroke-linecap="butt" stroke-linejoin="miter" stroke="rgb(70.196078%, 70.196078%, 70.196078%)" stroke-opacity="1" stroke-miterlimit="10" d="M 594.320312 588.429688 C 592.203125 586.980469 589.15625 585.703125 587.410156 587.195312 "/>
<path fill-rule="nonzero" fill="rgb(70.196078%, 70.196078%, 70.196078%)" fill-opacity="1" d="M 581.984375 591.824219 L 585.902344 585.429688 L 588.914062 588.957031 L 581.984375 591.824219 "/>
<path fill="none" stroke-width="5.5" stroke-linecap="butt" stroke-linejoin="miter" stroke="rgb(70.196078%, 70.196078%, 70.196078%)" stroke-opacity="1" stroke-miterlimit="10" d="M 673.574219 503.335938 C 666.476562 506.625 660.652344 511.847656 659.5625 519.503906 "/>
<path fill-rule="nonzero" fill="rgb(70.196078%, 70.196078%, 70.196078%)" fill-opacity="1" d="M 658.554688 526.566406 L 657.265625 519.175781 L 661.855469 519.832031 L 658.554688 526.566406 "/>
<path fill="none" stroke-width="5.5" stroke-linecap="butt" stroke-linejoin="miter" stroke="rgb(70.196078%, 70.196078%, 70.196078%)" stroke-opacity="1" stroke-miterlimit="10" d="M 657.867188 531.390625 C 651.886719 533.195312 646.464844 536.652344 644.976562 542.605469 "/>
<path fill-rule="nonzero" fill="rgb(70.196078%, 70.196078%, 70.196078%)" fill-opacity="1" d="M 643.246094 549.527344 L 642.726562 542.046875 L 647.222656 543.167969 L 643.246094 549.527344 "/>
<path fill="none" stroke-width="5.5" stroke-linecap="butt" stroke-linejoin="miter" stroke="rgb(70.196078%, 70.196078%, 70.196078%)" stroke-opacity="1" stroke-miterlimit="10" d="M 750 300.105469 C 734.988281 318.726562 728.324219 340.085938 733.453125 363.417969 "/>
<path fill-rule="nonzero" fill="rgb(70.196078%, 70.196078%, 70.196078%)" fill-opacity="1" d="M 734.988281 370.386719 L 731.191406 363.917969 L 735.71875 362.921875 L 734.988281 370.386719 "/>
<path fill="none" stroke-width="5.5" stroke-linecap="butt" stroke-linejoin="miter" stroke="rgb(70.196078%, 70.196078%, 70.196078%)" stroke-opacity="1" stroke-miterlimit="10" d="M 735.976562 374.890625 C 725.066406 384.675781 718.484375 396.996094 719.746094 411.550781 "/>
<path fill-rule="nonzero" fill="rgb(70.196078%, 70.196078%, 70.196078%)" fill-opacity="1" d="M 720.359375 418.65625 L 717.433594 411.75 L 722.054688 411.347656 L 720.359375 418.65625 "/>
<path fill="none" stroke-width="5.5" stroke-linecap="butt" stroke-linejoin="miter" stroke="rgb(70.196078%, 70.196078%, 70.196078%)" stroke-opacity="1" stroke-miterlimit="10" d="M 720.78125 423.550781 C 712.035156 429.390625 705.777344 437.492188 705.519531 447.9375 "/>
<path fill-rule="nonzero" fill="rgb(70.196078%, 70.196078%, 70.196078%)" fill-opacity="1" d="M 705.339844 455.070312 L 703.203125 447.878906 L 707.835938 447.996094 L 705.339844 455.070312 "/>
<path fill-rule="nonzero" fill="rgb(14.901961%, 14.901961%, 14.901961%)" fill-opacity="1" stroke-width="1" stroke-linecap="butt" stroke-linejoin="miter" stroke="rgb(14.901961%, 14.901961%, 14.901961%)" stroke-opacity="1" stroke-miterlimit="10" d="M 58.644531 232.148438 L 67.496094 214.449219 L 76.34375 232.148438 Z M 58.644531 232.148438 "/>
<path fill-rule="nonzero" fill="rgb(12.156863%, 47.058824%, 70.588235%)" fill-opacity="1" stroke-width="1" stroke-linecap="butt" stroke-linejoin="miter" stroke="rgb(12.156863%, 47.058824%, 70.588235%)" stroke-opacity="1" stroke-miterlimit="10" d="M 72.148438 392.421875 C 72.148438 396.089844 66.648438 396.089844 66.648438 392.421875 C 66.648438 388.757812 72.148438 388.757812 72.148438 392.421875 "/>
<path fill-rule="nonzero" fill="rgb(70.196078%, 70.196078%, 70.196078%)" fill-opacity="1" stroke-width="1" stroke-linecap="butt" stroke-linejoin="miter" stroke="rgb(70.196078%, 70.196078%, 70.196078%)" stroke-opacity="1" stroke-miterlimit="10" d="M 62.203125 379.203125 C 62.203125 385.671875 52.503906 385.671875 52.503906 379.203125 C 52.503906 372.738281 62.203125 372.738281 62.203125 379.203125 "/>
<path fill-rule="nonzero" fill="rgb(12.156863%, 47.058824%, 70.588235%)" fill-opacity="1" stroke-width="1" stroke-linecap="butt" stroke-linejoin="miter" stroke="rgb(12.156863%, 47.058824%, 70.588235%)" stroke-opacity="1" stroke-miterlimit="10" d="M 54.519531 137.871094 C 54.519531 141.539062 49.019531 141.539062 49.019531 137.871094 C 49.019531 134.203125 54.519531 134.203125 54.519531 137.871094 "/>
<path fill-rule="nonzero" fill="rgb(12.156863%, 47.058824%, 70.588235%)" fill-opacity="1" stroke-width="1" stroke-linecap="butt" stroke-linejoin="miter" stroke="rgb(12.156863%, 47.058824%, 70.588235%)" stroke-opacity="1" stroke-miterlimit="10" d="M 52.75 271.398438 C 52.75 275.066406 47.25 275.066406 47.25 271.398438 C 47.25 267.730469 52.75 267.730469 52.75 271.398438 "/>
<path fill-rule="nonzero" fill="rgb(12.156863%, 47.058824%, 70.588235%)" fill-opacity="1" stroke-width="1" stroke-linecap="butt" stroke-linejoin="miter" stroke="rgb(12.156863%, 47.058824%, 70.588235%)" stroke-opacity="1" stroke-miterlimit="10" d="M 64.277344 50 C 64.277344 53.667969 58.777344 53.667969 58.777344 50 C 58.777344 46.332031 64.277344 46.332031 64.277344 50 "/>
<path fill-rule="nonzero" fill="rgb(70.196078%, 70.196078%, 70.196078%)" fill-opacity="1" stroke-width="1" stroke-linecap="butt" stroke-linejoin="miter" stroke="rgb(70.196078%, 70.196078%, 70.196078%)" stroke-opacity="1" stroke-miterlimit="10" d="M 91.121094 245.667969 C 91.121094 252.136719 81.421875 252.136719 81.421875 245.667969 C 81.421875 239.203125 91.121094 239.203125 91.121094 245.667969 "/>
<path fill-rule="nonzero" fill="rgb(12.156863%, 47.058824%, 70.588235%)" fill-opacity="1" stroke-width="1" stroke-linecap="butt" stroke-linejoin="miter" stroke="rgb(12.156863%, 47.058824%, 70.588235%)" stroke-opacity="1" stroke-miterlimit="10" d="M 76.441406 61.921875 C 76.441406 65.589844 70.941406 65.589844 70.941406 61.921875 C 70.941406 58.253906 76.441406 58.253906 76.441406 61.921875 "/>
<path fill-rule="nonzero" fill="rgb(70.196078%, 70.196078%, 70.196078%)" fill-opacity="1" stroke-width="1" stroke-linecap="butt" stroke-linejoin="miter" stroke="rgb(70.196078%, 70.196078%, 70.196078%)" stroke-opacity="1" stroke-miterlimit="10" d="M 108.085938 266.695312 C 108.085938 273.164062 98.386719 273.164062 98.386719 266.695312 C 98.386719 260.230469 108.085938 260.230469 108.085938 266.695312 "/>
<path fill-rule="nonzero" fill="rgb(70.196078%, 70.196078%, 70.196078%)" fill-opacity="1" stroke-width="1" stroke-linecap="butt" stroke-linejoin="miter" stroke="rgb(70.196078%, 70.196078%, 70.196078%)" stroke-opacity="1" stroke-miterlimit="10" d="M 124.378906 287.582031 C 124.378906 294.046875 114.679688 294.046875 114.679688 287.582031 C 114.679688 281.117188 124.378906 281.117188 124.378906 287.582031 "/>
<path fill-rule="nonzero" fill="rgb(70.196078%, 70.196078%, 70.196078%)" fill-opacity="1" stroke-width="1" stroke-linecap="butt" stroke-linejoin="miter" stroke="rgb(70.196078%, 70.196078%, 70.196078%)" stroke-opacity="1" stroke-miterlimit="10" d="M 156.320312 333.441406 C 156.320312 339.910156 146.617188 339.910156 146.617188 333.441406 C 146.617188 326.976562 156.320312 326.976562 156.320312 333.441406 "/>
<path fill-rule="nonzero" fill="rgb(70.196078%, 70.196078%, 70.196078%)" fill-opacity="1" stroke-width="1" stroke-linecap="butt" stroke-linejoin="miter" stroke="rgb(70.196078%, 70.196078%, 70.196078%)" stroke-opacity="1" stroke-miterlimit="10" d="M 140.414062 309.804688 C 140.414062 316.273438 130.714844 316.273438 130.714844 309.804688 C 130.714844 303.339844 140.414062 303.339844 140.414062 309.804688 "/>
<path fill-rule="nonzero" fill="rgb(70.196078%, 70.196078%, 70.196078%)" fill-opacity="1" stroke-width="1" stroke-linecap="butt" stroke-linejoin="miter" stroke="rgb(70.196078%, 70.196078%, 70.196078%)" stroke-opacity="1" stroke-miterlimit="10" d="M 172.144531 358.472656 C 172.144531 364.9375 162.445312 364.9375 162.445312 358.472656 C 162.445312 352.003906 172.144531 352.003906 172.144531 358.472656 "/>
<path fill-rule="nonzero" fill="rgb(70.196078%, 70.196078%, 70.196078%)" fill-opacity="1" stroke-width="1" stroke-linecap="butt" stroke-linejoin="miter" stroke="rgb(70.196078%, 70.196078%, 70.196078%)" stroke-opacity="1" stroke-miterlimit="10" d="M 187.828125 388.296875 C 187.828125 394.765625 178.128906 394.765625 178.128906 388.296875 C 178.128906 381.832031 187.828125 381.832031 187.828125 388.296875 "/>
<path fill-rule="nonzero" fill="rgb(70.196078%, 70.196078%, 70.196078%)" fill-opacity="1" stroke-width="1" stroke-linecap="butt" stroke-linejoin="miter" stroke="rgb(70.196078%, 70.196078%, 70.196078%)" stroke-opacity="1" stroke-miterlimit="10" d="M 203.617188 413.402344 C 203.617188 419.867188 193.917969 419.867188 193.917969 413.402344 C 193.917969 406.933594 203.617188 406.933594 203.617188 413.402344 "/>
<path fill-rule="nonzero" fill="rgb(70.196078%, 70.196078%, 70.196078%)" fill-opacity="1" stroke-width="1" stroke-linecap="butt" stroke-linejoin="miter" stroke="rgb(70.196078%, 70.196078%, 70.196078%)" stroke-opacity="1" stroke-miterlimit="10" d="M 472.21875 731.09375 C 472.21875 737.558594 462.519531 737.558594 462.519531 731.09375 C 462.519531 724.625 472.21875 724.625 472.21875 731.09375 "/>
<path fill-rule="nonzero" fill="rgb(70.196078%, 70.196078%, 70.196078%)" fill-opacity="1" stroke-width="1" stroke-linecap="butt" stroke-linejoin="miter" stroke="rgb(70.196078%, 70.196078%, 70.196078%)" stroke-opacity="1" stroke-miterlimit="10" d="M 488.1875 718.820312 C 488.1875 725.285156 478.484375 725.285156 478.484375 718.820312 C 478.484375 712.355469 488.1875 712.355469 488.1875 718.820312 "/>
<path fill-rule="nonzero" fill="rgb(70.196078%, 70.196078%, 70.196078%)" fill-opacity="1" stroke-width="1" stroke-linecap="butt" stroke-linejoin="miter" stroke="rgb(70.196078%, 70.196078%, 70.196078%)" stroke-opacity="1" stroke-miterlimit="10" d="M 504.152344 707.226562 C 504.152344 713.691406 494.449219 713.691406 494.449219 707.226562 C 494.449219 700.757812 504.152344 700.757812 504.152344 707.226562 "/>
<path fill-rule="nonzero" fill="rgb(70.196078%, 70.196078%, 70.196078%)" fill-opacity="1" stroke-width="1" stroke-linecap="butt" stroke-linejoin="miter" stroke="rgb(70.196078%, 70.196078%, 70.196078%)" stroke-opacity="1" stroke-miterlimit="10" d="M 520.082031 691.339844 C 520.082031 697.804688 510.382812 697.804688 510.382812 691.339844 C 510.382812 684.875 520.082031 684.875 520.082031 691.339844 "/>
<path fill-rule="nonzero" fill="rgb(70.196078%, 70.196078%, 70.196078%)" fill-opacity="1" stroke-width="1" stroke-linecap="butt" stroke-linejoin="miter" stroke="rgb(70.196078%, 70.196078%, 70.196078%)" stroke-opacity="1" stroke-miterlimit="10" d="M 219.460938 434.449219 C 219.460938 440.917969 209.757812 440.917969 209.757812 434.449219 C 209.757812 427.984375 219.460938 427.984375 219.460938 434.449219 "/>
<path fill-rule="nonzero" fill="rgb(70.196078%, 70.196078%, 70.196078%)" fill-opacity="1" stroke-width="1" stroke-linecap="butt" stroke-linejoin="miter" stroke="rgb(70.196078%, 70.196078%, 70.196078%)" stroke-opacity="1" stroke-miterlimit="10" d="M 234.921875 473.613281 C 234.921875 480.082031 225.21875 480.082031 225.21875 473.613281 C 225.21875 467.148438 234.921875 467.148438 234.921875 473.613281 "/>
<path fill-rule="nonzero" fill="rgb(70.196078%, 70.196078%, 70.196078%)" fill-opacity="1" stroke-width="1" stroke-linecap="butt" stroke-linejoin="miter" stroke="rgb(70.196078%, 70.196078%, 70.196078%)" stroke-opacity="1" stroke-miterlimit="10" d="M 250.675781 498.164062 C 250.675781 504.632812 240.972656 504.632812 240.972656 498.164062 C 240.972656 491.699219 250.675781 491.699219 250.675781 498.164062 "/>
<path fill-rule="nonzero" fill="rgb(70.196078%, 70.196078%, 70.196078%)" fill-opacity="1" stroke-width="1" stroke-linecap="butt" stroke-linejoin="miter" stroke="rgb(70.196078%, 70.196078%, 70.196078%)" stroke-opacity="1" stroke-miterlimit="10" d="M 266.441406 523.332031 C 266.441406 529.796875 256.738281 529.796875 256.738281 523.332031 C 256.738281 516.863281 266.441406 516.863281 266.441406 523.332031 "/>
<path fill-rule="nonzero" fill="rgb(70.196078%, 70.196078%, 70.196078%)" fill-opacity="1" stroke-width="1" stroke-linecap="butt" stroke-linejoin="miter" stroke="rgb(70.196078%, 70.196078%, 70.196078%)" stroke-opacity="1" stroke-miterlimit="10" d="M 551.601562 637.96875 C 551.601562 644.433594 541.902344 644.433594 541.902344 637.96875 C 541.902344 631.5 551.601562 631.5 551.601562 637.96875 "/>
<path fill-rule="nonzero" fill="rgb(70.196078%, 70.196078%, 70.196078%)" fill-opacity="1" stroke-width="1" stroke-linecap="butt" stroke-linejoin="miter" stroke="rgb(70.196078%, 70.196078%, 70.196078%)" stroke-opacity="1" stroke-miterlimit="10" d="M 535.953125 670.015625 C 535.953125 676.484375 526.253906 676.484375 526.253906 670.015625 C 526.253906 663.550781 535.953125 663.550781 535.953125 670.015625 "/>
<path fill-rule="nonzero" fill="rgb(70.196078%, 70.196078%, 70.196078%)" fill-opacity="1" stroke-width="1" stroke-linecap="butt" stroke-linejoin="miter" stroke="rgb(70.196078%, 70.196078%, 70.196078%)" stroke-opacity="1" stroke-miterlimit="10" d="M 631.0625 570.449219 C 631.0625 576.914062 621.363281 576.914062 621.363281 570.449219 C 621.363281 563.980469 631.0625 563.980469 631.0625 570.449219 "/>
<path fill-rule="nonzero" fill="rgb(70.196078%, 70.196078%, 70.196078%)" fill-opacity="1" stroke-width="1" stroke-linecap="butt" stroke-linejoin="miter" stroke="rgb(70.196078%, 70.196078%, 70.196078%)" stroke-opacity="1" stroke-miterlimit="10" d="M 615.167969 585.472656 C 615.167969 591.941406 605.464844 591.941406 605.464844 585.472656 C 605.464844 579.007812 615.167969 579.007812 615.167969 585.472656 "/>
<path fill-rule="nonzero" fill="rgb(70.196078%, 70.196078%, 70.196078%)" fill-opacity="1" stroke-width="1" stroke-linecap="butt" stroke-linejoin="miter" stroke="rgb(70.196078%, 70.196078%, 70.196078%)" stroke-opacity="1" stroke-miterlimit="10" d="M 646.917969 554.242188 C 646.917969 560.707031 637.21875 560.707031 637.21875 554.242188 C 637.21875 547.773438 646.917969 547.773438 646.917969 554.242188 "/>
<path fill-rule="nonzero" fill="rgb(70.196078%, 70.196078%, 70.196078%)" fill-opacity="1" stroke-width="1" stroke-linecap="butt" stroke-linejoin="miter" stroke="rgb(70.196078%, 70.196078%, 70.196078%)" stroke-opacity="1" stroke-miterlimit="10" d="M 567.160156 598.550781 C 567.160156 605.015625 557.460938 605.015625 557.460938 598.550781 C 557.460938 592.082031 567.160156 592.082031 567.160156 598.550781 "/>
<path fill-rule="nonzero" fill="rgb(70.196078%, 70.196078%, 70.196078%)" fill-opacity="1" stroke-width="1" stroke-linecap="butt" stroke-linejoin="miter" stroke="rgb(70.196078%, 70.196078%, 70.196078%)" stroke-opacity="1" stroke-miterlimit="10" d="M 282.398438 535.019531 C 282.398438 541.488281 272.695312 541.488281 272.695312 535.019531 C 272.695312 528.554688 282.398438 528.554688 282.398438 535.019531 "/>
<path fill-rule="nonzero" fill="rgb(70.196078%, 70.196078%, 70.196078%)" fill-opacity="1" stroke-width="1" stroke-linecap="butt" stroke-linejoin="miter" stroke="rgb(70.196078%, 70.196078%, 70.196078%)" stroke-opacity="1" stroke-miterlimit="10" d="M 297.871094 573.808594 C 297.871094 580.273438 288.171875 580.273438 288.171875 573.808594 C 288.171875 567.339844 297.871094 567.339844 297.871094 573.808594 "/>
<path fill-rule="nonzero" fill="rgb(70.196078%, 70.196078%, 70.196078%)" fill-opacity="1" stroke-width="1" stroke-linecap="butt" stroke-linejoin="miter" stroke="rgb(70.196078%, 70.196078%, 70.196078%)" stroke-opacity="1" stroke-miterlimit="10" d="M 313.714844 595.25 C 313.714844 601.714844 304.015625 601.714844 304.015625 595.25 C 304.015625 588.78125 313.714844 588.78125 313.714844 595.25 "/>
<path fill-rule="nonzero" fill="rgb(70.196078%, 70.196078%, 70.196078%)" fill-opacity="1" stroke-width="1" stroke-linecap="butt" stroke-linejoin="miter" stroke="rgb(70.196078%, 70.196078%, 70.196078%)" stroke-opacity="1" stroke-miterlimit="10" d="M 694.195312 479.921875 C 694.195312 486.386719 684.496094 486.386719 684.496094 479.921875 C 684.496094 473.453125 694.195312 473.453125 694.195312 479.921875 "/>
<path fill-rule="nonzero" fill="rgb(70.196078%, 70.196078%, 70.196078%)" fill-opacity="1" stroke-width="1" stroke-linecap="butt" stroke-linejoin="miter" stroke="rgb(70.196078%, 70.196078%, 70.196078%)" stroke-opacity="1" stroke-miterlimit="10" d="M 329.652344 610.261719 C 329.652344 616.726562 319.953125 616.726562 319.953125 610.261719 C 319.953125 603.792969 329.652344 603.792969 329.652344 610.261719 "/>
<path fill-rule="nonzero" fill="rgb(70.196078%, 70.196078%, 70.196078%)" fill-opacity="1" stroke-width="1" stroke-linecap="butt" stroke-linejoin="miter" stroke="rgb(70.196078%, 70.196078%, 70.196078%)" stroke-opacity="1" stroke-miterlimit="10" d="M 345.039062 652.226562 C 345.039062 658.691406 335.339844 658.691406 335.339844 652.226562 C 335.339844 645.757812 345.039062 645.757812 345.039062 652.226562 "/>
<path fill-rule="nonzero" fill="rgb(70.196078%, 70.196078%, 70.196078%)" fill-opacity="1" stroke-width="1" stroke-linecap="butt" stroke-linejoin="miter" stroke="rgb(70.196078%, 70.196078%, 70.196078%)" stroke-opacity="1" stroke-miterlimit="10" d="M 360.613281 687.691406 C 360.613281 694.15625 350.910156 694.15625 350.910156 687.691406 C 350.910156 681.226562 360.613281 681.226562 360.613281 687.691406 "/>
<path fill-rule="nonzero" fill="rgb(70.196078%, 70.196078%, 70.196078%)" fill-opacity="1" stroke-width="1" stroke-linecap="butt" stroke-linejoin="miter" stroke="rgb(70.196078%, 70.196078%, 70.196078%)" stroke-opacity="1" stroke-miterlimit="10" d="M 392.265625 732.648438 C 392.265625 739.113281 382.566406 739.113281 382.566406 732.648438 C 382.566406 726.179688 392.265625 726.179688 392.265625 732.648438 "/>
<path fill-rule="nonzero" fill="rgb(70.196078%, 70.196078%, 70.196078%)" fill-opacity="1" stroke-width="1" stroke-linecap="butt" stroke-linejoin="miter" stroke="rgb(70.196078%, 70.196078%, 70.196078%)" stroke-opacity="1" stroke-miterlimit="10" d="M 376.367188 714.679688 C 376.367188 721.144531 366.667969 721.144531 366.667969 714.679688 C 366.667969 708.210938 376.367188 708.210938 376.367188 714.679688 "/>
<path fill-rule="nonzero" fill="rgb(70.196078%, 70.196078%, 70.196078%)" fill-opacity="1" stroke-width="1" stroke-linecap="butt" stroke-linejoin="miter" stroke="rgb(70.196078%, 70.196078%, 70.196078%)" stroke-opacity="1" stroke-miterlimit="10" d="M 710.070312 459.960938 C 710.070312 466.429688 700.371094 466.429688 700.371094 459.960938 C 700.371094 453.496094 710.070312 453.496094 710.070312 459.960938 "/>
<path fill-rule="nonzero" fill="rgb(70.196078%, 70.196078%, 70.196078%)" fill-opacity="1" stroke-width="1" stroke-linecap="butt" stroke-linejoin="miter" stroke="rgb(70.196078%, 70.196078%, 70.196078%)" stroke-opacity="1" stroke-miterlimit="10" d="M 583.191406 594.9375 C 583.191406 601.402344 573.492188 601.402344 573.492188 594.9375 C 573.492188 588.46875 583.191406 588.46875 583.191406 594.9375 "/>
<path fill-rule="nonzero" fill="rgb(70.196078%, 70.196078%, 70.196078%)" fill-opacity="1" stroke-width="1" stroke-linecap="butt" stroke-linejoin="miter" stroke="rgb(70.196078%, 70.196078%, 70.196078%)" stroke-opacity="1" stroke-miterlimit="10" d="M 456.238281 740.820312 C 456.238281 747.285156 446.539062 747.285156 446.539062 740.820312 C 446.539062 734.351562 456.238281 734.351562 456.238281 740.820312 "/>
<path fill-rule="nonzero" fill="rgb(70.196078%, 70.196078%, 70.196078%)" fill-opacity="1" stroke-width="1" stroke-linecap="butt" stroke-linejoin="miter" stroke="rgb(70.196078%, 70.196078%, 70.196078%)" stroke-opacity="1" stroke-miterlimit="10" d="M 408.226562 744.996094 C 408.226562 751.464844 398.523438 751.464844 398.523438 744.996094 C 398.523438 738.53125 408.226562 738.53125 408.226562 744.996094 "/>
<path fill-rule="nonzero" fill="rgb(70.196078%, 70.196078%, 70.196078%)" fill-opacity="1" stroke-width="1" stroke-linecap="butt" stroke-linejoin="miter" stroke="rgb(70.196078%, 70.196078%, 70.196078%)" stroke-opacity="1" stroke-miterlimit="10" d="M 424.230469 750 C 424.230469 756.464844 414.53125 756.464844 414.53125 750 C 414.53125 743.535156 424.230469 743.535156 424.230469 750 "/>
<path fill-rule="nonzero" fill="rgb(70.196078%, 70.196078%, 70.196078%)" fill-opacity="1" stroke-width="1" stroke-linecap="butt" stroke-linejoin="miter" stroke="rgb(70.196078%, 70.196078%, 70.196078%)" stroke-opacity="1" stroke-miterlimit="10" d="M 440.246094 748.292969 C 440.246094 754.757812 430.546875 754.757812 430.546875 748.292969 C 430.546875 741.824219 440.246094 741.824219 440.246094 748.292969 "/>
<path fill-rule="nonzero" fill="rgb(70.196078%, 70.196078%, 70.196078%)" fill-opacity="1" stroke-width="1" stroke-linecap="butt" stroke-linejoin="miter" stroke="rgb(70.196078%, 70.196078%, 70.196078%)" stroke-opacity="1" stroke-miterlimit="10" d="M 599.171875 588.429688 C 599.171875 594.898438 589.472656 594.898438 589.472656 588.429688 C 589.472656 581.964844 599.171875 581.964844 599.171875 588.429688 "/>
<path fill-rule="nonzero" fill="rgb(70.196078%, 70.196078%, 70.196078%)" fill-opacity="1" stroke-width="1" stroke-linecap="butt" stroke-linejoin="miter" stroke="rgb(70.196078%, 70.196078%, 70.196078%)" stroke-opacity="1" stroke-miterlimit="10" d="M 678.421875 503.335938 C 678.421875 509.804688 668.722656 509.804688 668.722656 503.335938 C 668.722656 496.871094 678.421875 496.871094 678.421875 503.335938 "/>
<path fill-rule="nonzero" fill="rgb(70.196078%, 70.196078%, 70.196078%)" fill-opacity="1" stroke-width="1" stroke-linecap="butt" stroke-linejoin="miter" stroke="rgb(70.196078%, 70.196078%, 70.196078%)" stroke-opacity="1" stroke-miterlimit="10" d="M 662.714844 531.390625 C 662.714844 537.859375 653.015625 537.859375 653.015625 531.390625 C 653.015625 524.925781 662.714844 524.925781 662.714844 531.390625 "/>
<path fill-rule="nonzero" fill="rgb(100%, 84.313725%, 0%)" fill-opacity="1" stroke-width="1" stroke-linecap="butt" stroke-linejoin="miter" stroke="rgb(100%, 84.313725%, 0%)" stroke-opacity="1" stroke-miterlimit="10" d="M 744.648438 294.753906 L 755.347656 294.753906 L 755.347656 305.453125 L 744.648438 305.453125 Z M 744.648438 294.753906 "/>
<path fill-rule="nonzero" fill="rgb(70.196078%, 70.196078%, 70.196078%)" fill-opacity="1" stroke-width="1" stroke-linecap="butt" stroke-linejoin="miter" stroke="rgb(70.196078%, 70.196078%, 70.196078%)" stroke-opacity="1" stroke-miterlimit="10" d="M 740.828125 374.890625 C 740.828125 381.355469 731.125 381.355469 731.125 374.890625 C 731.125 368.421875 740.828125 368.421875 740.828125 374.890625 "/>
<path fill-rule="nonzero" fill="rgb(70.196078%, 70.196078%, 70.196078%)" fill-opacity="1" stroke-width="1" stroke-linecap="butt" stroke-linejoin="miter" stroke="rgb(70.196078%, 70.196078%, 70.196078%)" stroke-opacity="1" stroke-miterlimit="10" d="M 725.632812 423.550781 C 725.632812 430.019531 715.933594 430.019531 715.933594 423.550781 C 715.933594 417.085938 725.632812 417.085938 725.632812 423.550781 "/>
</svg>
