<?xml version="1.0" encoding="UTF-8"?>
<svg xmlns="http://www.w3.org/2000/svg" xmlns:xlink="http://www.w3.org/1999/xlink" width="800" height="800" viewBox="0 0 800 800">
<rect x="-80" y="-80" width="960" height="960" fill="rgb(100%, 100%, 100%)" fill-opacity="1"/>
<path fill="none" stroke-width="2.5" stroke-linecap="butt" stroke-linejoin="miter" stroke="rgb(70.196078%, 70.196078%, 70.196078%)" stroke-opacity="1" stroke-miterlimit="10" d="M 61.992188 505.882812 C 55.792969 534.621094 60.511719 561.539062 78.789062 584.53125 "/>
<path fill-rule="nonzero" fill="rgb(70.196078%, 70.196078%, 70.196078%)" fill-opacity="1" d="M 83.226562 590.117188 L 76.976562 585.976562 L 80.605469 583.089844 L 83.226562 590.117188 "/>
<path fill="none" stroke-width="2.5" stroke-linecap="butt" stroke-linejoin="miter" stroke="rgb(70.196078%, 70.196078%, 70.196078%)" stroke-opacity="1" stroke-miterlimit="10" d="M 70.441406 324.023438 C 50.734375 347.972656 42.203125 375.480469 48.167969 405.894531 "/>
<path fill-rule="nonzero" fill="rgb(70.196078%, 70.196078%, 70.196078%)" fill-opacity="1" d="M 49.539062 412.894531 L 45.894531 406.339844 L 50.441406 405.445312 L 49.539062 412.894531 "/>
<path fill="none" stroke-width="1.5" stroke-linecap="butt" stroke-linejoin="miter" stroke="rgb(12.156863%, 47.058824%, 70.588235%)" stroke-opacity="1" stroke-miterlimit="10" d="M 70.441406 324.023438 C 78.648438 293.332031 74.875 264.101562 56.464844 238.230469 "/>
<path fill-rule="nonzero" fill="rgb(12.156863%, 47.058824%, 70.588235%)" fill-opacity="1" d="M 52.328125 232.421875 L 58.351562 236.886719 L 54.574219 239.574219 L 52.328125 232.421875 "/>
<path fill="none" stroke-width="1.5" stroke-linecap="butt" stroke-linejoin="miter" stroke="rgb(12.156863%, 47.058824%, 70.588235%)" stroke-opacity="1" stroke-miterlimit="10" d="M 72.238281 142.175781 C 94.097656 122.285156 105.945312 97.507812 104.445312 68.011719 "/>
<path fill-rule="nonzero" fill="rgb(12.156863%, 47.058824%, 70.588235%)" fill-opacity="1" d="M 104.082031 60.886719 L 106.757812 67.894531 L 102.128906 68.128906 L 104.082031 60.886719 "/>
<path fill="none" stroke-width="2.5" stroke-linecap="butt" stroke-linejoin="miter" stroke="rgb(70.196078%, 70.196078%, 70.196078%)" stroke-opacity="1" stroke-miterlimit="10" d="M 50 415.238281 C 39.972656 443.796875 41.359375 471.882812 57.050781 497.742188 "/>
<path fill-rule="nonzero" fill="rgb(70.196078%, 70.196078%, 70.196078%)" fill-opacity="1" d="M 60.75 503.839844 L 55.070312 498.945312 L 59.03125 496.539062 L 60.75 503.839844 "/>
<path fill="none" stroke-width="1.5" stroke-linecap="butt" stroke-linejoin="miter" stroke="rgb(12.156863%, 47.058824%, 70.588235%)" stroke-opacity="1" stroke-miterlimit="10" d="M 51.910156 231.835938 C 71.492188 207.792969 79.847656 180.261719 73.777344 149.875 "/>
<path fill-rule="nonzero" fill="rgb(12.156863%, 47.058824%, 70.588235%)" fill-opacity="1" d="M 72.378906 142.878906 L 76.050781 149.417969 L 71.503906 150.328125 L 72.378906 142.878906 "/>
<path fill="none" stroke-width="1.5" stroke-linecap="butt" stroke-linejoin="miter" stroke="rgb(30.196078%, 68.627451%, 29.019608%)" stroke-opacity="1" stroke-miterlimit="10" d="M 652.332031 404.707031 C 664.226562 431.941406 684.011719 451.183594 712.582031 459.300781 "/>
<path fill-rule="nonzero" fill="rgb(30.196078%, 68.627451%, 29.019608%)" fill-opacity="1" d="M 719.441406 461.246094 L 711.945312 461.527344 L 713.214844 457.070312 L 719.441406 461.246094 "/>
<path fill="none" stroke-width="1.5" stroke-linecap="butt" stroke-linejoin="miter" stroke="rgb(99.215686%, 74.901961%, 43.529412%)" stroke-opacity="1" stroke-miterlimit="10" d="M 652.332031 404.707031 C 626.125 425.082031 610.871094 451.796875 609.828125 484.953125 "/>
<path fill-rule="nonzero" fill="rgb(99.215686%, 74.901961%, 43.529412%)" fill-opacity="1" d="M 609.605469 492.085938 L 607.511719 484.882812 L 612.144531 485.027344 L 609.605469 492.085938 "/>
<path fill="none" stroke-width="3.5" stroke-linecap="butt" stroke-linejoin="miter" stroke="rgb(70.196078%, 70.196078%, 70.196078%)" stroke-opacity="1" stroke-miterlimit="10" d="M 148.675781 319.175781 C 125.34375 308.878906 101.574219 308.042969 78.910156 319.675781 "/>
<path fill-rule="nonzero" fill="rgb(70.196078%, 70.196078%, 70.196078%)" fill-opacity="1" d="M 72.5625 322.933594 L 77.851562 317.613281 L 79.96875 321.738281 L 72.5625 322.933594 "/>
<path fill="none" stroke-width="2.5" stroke-linecap="butt" stroke-linejoin="miter" stroke="rgb(70.196078%, 70.196078%, 70.196078%)" stroke-opacity="1" stroke-miterlimit="10" d="M 652.90625 303.28125 C 637.550781 333.523438 635.058594 364.867188 648.542969 395.96875 "/>
<path fill-rule="nonzero" fill="rgb(70.196078%, 70.196078%, 70.196078%)" fill-opacity="1" d="M 651.382812 402.515625 L 646.417969 396.890625 L 650.671875 395.046875 L 651.382812 402.515625 "/>
<path fill="none" stroke-width="2.5" stroke-linecap="butt" stroke-linejoin="miter" stroke="rgb(70.196078%, 70.196078%, 70.196078%)" stroke-opacity="1" stroke-miterlimit="10" d="M 84.714844 591.984375 C 80.636719 620.679688 87.15625 646.832031 106.761719 668.152344 "/>
<path fill-rule="nonzero" fill="rgb(70.196078%, 70.196078%, 70.196078%)" fill-opacity="1" d="M 111.589844 673.402344 L 105.054688 669.722656 L 108.464844 666.582031 L 111.589844 673.402344 "/>
<path fill="none" stroke-width="1.5" stroke-linecap="butt" stroke-linejoin="miter" stroke="rgb(30.196078%, 68.627451%, 29.019608%)" stroke-opacity="1" stroke-miterlimit="10" d="M 574.210938 662.304688 C 551.71875 683.816406 539.957031 710.199219 542.246094 741.214844 "/>
<path fill-rule="nonzero" fill="rgb(30.196078%, 68.627451%, 29.019608%)" fill-opacity="1" d="M 542.773438 748.328125 L 539.933594 741.386719 L 544.558594 741.046875 L 542.773438 748.328125 "/>
<path fill="none" stroke-width="1.5" stroke-linecap="butt" stroke-linejoin="miter" stroke="rgb(99.215686%, 74.901961%, 43.529412%)" stroke-opacity="1" stroke-miterlimit="10" d="M 633.871094 592.421875 C 636.144531 624.601562 649.429688 651.414062 675.667969 670.152344 "/>
<path fill-rule="nonzero" fill="rgb(99.215686%, 74.901961%, 43.529412%)" fill-opacity="1" d="M 681.472656 674.296875 L 674.320312 672.039062 L 677.011719 668.265625 L 681.472656 674.296875 "/>
<path fill="none" stroke-width="1.5" stroke-linecap="butt" stroke-linejoin="miter" stroke="rgb(30.196078%, 68.627451%, 29.019608%)" stroke-opacity="1" stroke-miterlimit="10" d="M 633.871094 592.421875 C 605.371094 604.589844 585.179688 625.066406 576.429688 654.773438 "/>
<path fill-rule="nonzero" fill="rgb(30.196078%, 68.627451%, 29.019608%)" fill-opacity="1" d="M 574.414062 661.617188 L 574.207031 654.121094 L 578.652344 655.429688 L 574.414062 661.617188 "/>
<path fill="none" stroke-width="1.5" stroke-linecap="butt" stroke-linejoin="miter" stroke="rgb(30.196078%, 68.627451%, 29.019608%)" stroke-opacity="1" stroke-miterlimit="10" d="M 720.132812 461.445312 C 702.613281 488.761719 697.230469 518.367188 707.09375 549.265625 "/>
<path fill-rule="nonzero" fill="rgb(30.196078%, 68.627451%, 29.019608%)" fill-opacity="1" d="M 709.261719 556.058594 L 704.886719 549.96875 L 709.300781 548.558594 L 709.261719 556.058594 "/>
<path fill="none" stroke-width="1.5" stroke-linecap="butt" stroke-linejoin="miter" stroke="rgb(30.196078%, 68.627451%, 29.019608%)" stroke-opacity="1" stroke-miterlimit="10" d="M 709.480469 556.746094 C 682.089844 555.839844 658.121094 564.597656 640.128906 585.242188 "/>
<path fill-rule="nonzero" fill="rgb(30.196078%, 68.627451%, 29.019608%)" fill-opacity="1" d="M 635.441406 590.621094 L 638.382812 583.71875 L 641.875 586.765625 L 635.441406 590.621094 "/>
<path fill="none" stroke-width="1.5" stroke-linecap="butt" stroke-linejoin="miter" stroke="rgb(99.215686%, 74.901961%, 43.529412%)" stroke-opacity="1" stroke-miterlimit="10" d="M 609.582031 492.804688 C 601.9375 526.265625 607.210938 557.636719 628.078125 584.863281 "/>
<path fill-rule="nonzero" fill="rgb(99.215686%, 74.901961%, 43.529412%)" fill-opacity="1" d="M 632.417969 590.523438 L 626.238281 586.273438 L 629.917969 583.453125 L 632.417969 590.523438 "/>
<path fill="none" stroke-width="1.5" stroke-linecap="butt" stroke-linejoin="miter" stroke="rgb(30.196078%, 68.627451%, 29.019608%)" stroke-opacity="1" stroke-miterlimit="10" d="M 635.96875 50 C 656.949219 66.390625 680.773438 73.230469 706.71875 67.335938 "/>
<path fill-rule="nonzero" fill="rgb(30.196078%, 68.627451%, 29.019608%)" fill-opacity="1" d="M 713.671875 65.753906 L 707.230469 69.59375 L 706.203125 65.074219 L 713.671875 65.753906 "/>
<path fill="none" stroke-width="1.5" stroke-linecap="butt" stroke-linejoin="miter" stroke="rgb(30.196078%, 68.627451%, 29.019608%)" stroke-opacity="1" stroke-miterlimit="10" d="M 714.375 65.597656 C 711.597656 98.507812 720.84375 127.691406 744.398438 150.816406 "/>
<path fill-rule="nonzero" fill="rgb(30.196078%, 68.627451%, 29.019608%)" fill-opacity="1" d="M 749.488281 155.816406 L 742.773438 152.472656 L 746.019531 149.164062 L 749.488281 155.816406 "/>
<path fill="none" stroke-width="2.5" stroke-linecap="butt" stroke-linejoin="miter" stroke="rgb(70.196078%, 70.196078%, 70.196078%)" stroke-opacity="1" stroke-miterlimit="10" d="M 518.054688 63.882812 C 526.882812 91.90625 544.289062 112.953125 571.539062 123.882812 "/>
<path fill-rule="nonzero" fill="rgb(70.196078%, 70.196078%, 70.196078%)" fill-opacity="1" d="M 578.160156 126.539062 L 570.675781 126.035156 L 572.402344 121.734375 L 578.160156 126.539062 "/>
<path fill="none" stroke-width="1.5" stroke-linecap="butt" stroke-linejoin="miter" stroke="rgb(30.196078%, 68.627451%, 29.019608%)" stroke-opacity="1" stroke-miterlimit="10" d="M 726.078125 249.863281 C 696.503906 254.667969 672.734375 269.160156 657.691406 295.046875 "/>
<path fill-rule="nonzero" fill="rgb(30.196078%, 68.627451%, 29.019608%)" fill-opacity="1" d="M 654.109375 301.214844 L 655.6875 293.882812 L 659.695312 296.210938 L 654.109375 301.214844 "/>
<path fill="none" stroke-width="1.5" stroke-linecap="butt" stroke-linejoin="miter" stroke="rgb(99.215686%, 74.901961%, 43.529412%)" stroke-opacity="1" stroke-miterlimit="10" d="M 593.542969 229.046875 C 600.046875 259.960938 616.5 284.230469 644.46875 298.867188 "/>
<path fill-rule="nonzero" fill="rgb(99.215686%, 74.901961%, 43.529412%)" fill-opacity="1" d="M 650.789062 302.171875 L 643.394531 300.917969 L 645.542969 296.8125 L 650.789062 302.171875 "/>
<path fill="none" stroke-width="1.5" stroke-linecap="butt" stroke-linejoin="miter" stroke="rgb(30.196078%, 68.627451%, 29.019608%)" stroke-opacity="1" stroke-miterlimit="10" d="M 750 156.320312 C 728.710938 181.132812 719.222656 209.917969 724.75 242.125 "/>
<path fill-rule="nonzero" fill="rgb(30.196078%, 68.627451%, 29.019608%)" fill-opacity="1" d="M 725.953125 249.15625 L 722.464844 242.515625 L 727.03125 241.734375 L 725.953125 249.15625 "/>
<path fill="none" stroke-width="1.5" stroke-linecap="butt" stroke-linejoin="miter" stroke="rgb(30.196078%, 68.627451%, 29.019608%)" stroke-opacity="1" stroke-miterlimit="10" d="M 580.375 127.429688 C 608.839844 112.285156 627.910156 89.257812 634.390625 57.691406 "/>
<path fill-rule="nonzero" fill="rgb(30.196078%, 68.627451%, 29.019608%)" fill-opacity="1" d="M 635.824219 50.703125 L 636.660156 58.15625 L 632.117188 57.226562 L 635.824219 50.703125 "/>
<path fill="none" stroke-width="1.5" stroke-linecap="butt" stroke-linejoin="miter" stroke="rgb(99.215686%, 74.901961%, 43.529412%)" stroke-opacity="1" stroke-miterlimit="10" d="M 580.375 127.429688 C 569.160156 160.429688 571.253906 192.636719 589.445312 222.351562 "/>
<path fill-rule="nonzero" fill="rgb(99.215686%, 74.901961%, 43.529412%)" fill-opacity="1" d="M 593.167969 228.433594 L 587.46875 223.5625 L 591.421875 221.140625 L 593.167969 228.433594 "/>
<path fill-rule="nonzero" fill="rgb(70.196078%, 70.196078%, 70.196078%)" fill-opacity="1" stroke-width="1" stroke-linecap="butt" stroke-linejoin="miter" stroke="rgb(70.196078%, 70.196078%, 70.196078%)" stroke-opacity="1" stroke-miterlimit="10" d="M 64.492188 505.882812 C 64.492188 509.21875 59.492188 509.21875 59.492188 505.882812 C 59.492188 502.550781 64.492188 502.550781 64.492188 505.882812 "/>
<path fill-rule="nonzero" fill="rgb(70.196078%, 70.196078%, 70.196078%)" fill-opacity="1" stroke-width="1" stroke-linecap="butt" stroke-linejoin="miter" stroke="rgb(70.196078%, 70.196078%, 70.196078%)" stroke-opacity="1" stroke-miterlimit="10" d="M 72.941406 324.023438 C 72.941406 327.359375 67.941406 327.359375 67.941406 324.023438 C 67.941406 320.691406 72.941406 320.691406 72.941406 324.023438 "/>
<path fill-rule="nonzero" fill="rgb(12.156863%, 47.058824%, 70.588235%)" fill-opacity="1" stroke-width="1" stroke-linecap="butt" stroke-linejoin="miter" stroke="rgb(12.156863%, 47.058824%, 70.588235%)" stroke-opacity="1" stroke-miterlimit="10" d="M 72.988281 142.175781 C 72.988281 143.175781 71.488281 143.175781 71.488281 142.175781 C 71.488281 141.175781 72.988281 141.175781 72.988281 142.175781 "/>
<path fill-rule="nonzero" fill="rgb(70.196078%, 70.196078%, 70.196078%)" fill-opacity="1" stroke-width="1" stroke-linecap="butt" stroke-linejoin="miter" stroke="rgb(70.196078%, 70.196078%, 70.196078%)" stroke-opacity="1" stroke-miterlimit="10" d="M 52.5 415.238281 C 52.5 418.570312 47.5 418.570312 47.5 415.238281 C 47.5 411.902344 52.5 411.902344 52.5 415.238281 "/>
<path fill-rule="nonzero" fill="rgb(12.156863%, 47.058824%, 70.588235%)" fill-opacity="1" stroke-width="1" stroke-linecap="butt" stroke-linejoin="miter" stroke="rgb(12.156863%, 47.058824%, 70.588235%)" stroke-opacity="1" stroke-miterlimit="10" d="M 52.660156 231.835938 C 52.660156 232.835938 51.160156 232.835938 51.160156 231.835938 C 51.160156 230.835938 52.660156 230.835938 52.660156 231.835938 "/>
<path fill-rule="nonzero" fill="rgb(70.196078%, 70.196078%, 70.196078%)" fill-opacity="1" stroke-width="1" stroke-linecap="butt" stroke-linejoin="miter" stroke="rgb(70.196078%, 70.196078%, 70.196078%)" stroke-opacity="1" stroke-miterlimit="10" d="M 654.832031 404.707031 C 654.832031 408.039062 649.832031 408.039062 649.832031 404.707031 C 649.832031 401.375 654.832031 401.375 654.832031 404.707031 "/>
<path fill-rule="nonzero" fill="rgb(100%, 84.313725%, 0%)" fill-opacity="1" stroke-width="1" stroke-linecap="butt" stroke-linejoin="miter" stroke="rgb(100%, 84.313725%, 0%)" stroke-opacity="1" stroke-miterlimit="10" d="M 146.175781 316.675781 L 151.175781 316.675781 L 151.175781 321.675781 L 146.175781 321.675781 Z M 146.175781 316.675781 "/>
<path fill-rule="nonzero" fill="rgb(70.196078%, 70.196078%, 70.196078%)" fill-opacity="1" stroke-width="1" stroke-linecap="butt" stroke-linejoin="miter" stroke="rgb(70.196078%, 70.196078%, 70.196078%)" stroke-opacity="1" stroke-miterlimit="10" d="M 655.40625 303.28125 C 655.40625 306.613281 650.40625 306.613281 650.40625 303.28125 C 650.40625 299.945312 655.40625 299.945312 655.40625 303.28125 "/>
<path fill-rule="nonzero" fill="rgb(14.901961%, 14.901961%, 14.901961%)" fill-opacity="1" stroke-width="1" stroke-linecap="butt" stroke-linejoin="miter" stroke="rgb(14.901961%, 14.901961%, 14.901961%)" stroke-opacity="1" stroke-miterlimit="10" d="M 110.703125 677.660156 L 113.203125 672.660156 L 115.703125 677.660156 Z M 110.703125 677.660156 "/>
<path fill-rule="nonzero" fill="rgb(70.196078%, 70.196078%, 70.196078%)" fill-opacity="1" stroke-width="1" stroke-linecap="butt" stroke-linejoin="miter" stroke="rgb(70.196078%, 70.196078%, 70.196078%)" stroke-opacity="1" stroke-miterlimit="10" d="M 87.214844 591.984375 C 87.214844 595.320312 82.214844 595.320312 82.214844 591.984375 C 82.214844 588.652344 87.214844 588.652344 87.214844 591.984375 "/>
<path fill-rule="nonzero" fill="rgb(14.901961%, 14.901961%, 14.901961%)" fill-opacity="1" stroke-width="1" stroke-linecap="butt" stroke-linejoin="miter" stroke="rgb(14.901961%, 14.901961%, 14.901961%)" stroke-opacity="1" stroke-miterlimit="10" d="M 102.25 60.964844 L 104 57.464844 L 105.75 60.964844 Z M 102.25 60.964844 "/>
<path fill-rule="nonzero" fill="rgb(14.901961%, 14.901961%, 14.901961%)" fill-opacity="1" stroke-width="1" stroke-linecap="butt" stroke-linejoin="miter" stroke="rgb(14.901961%, 14.901961%, 14.901961%)" stroke-opacity="1" stroke-miterlimit="10" d="M 681.085938 677.019531 L 682.835938 673.519531 L 684.585938 677.019531 Z M 681.085938 677.019531 "/>
<path fill-rule="nonzero" fill="rgb(14.901961%, 14.901961%, 14.901961%)" fill-opacity="1" stroke-width="1" stroke-linecap="butt" stroke-linejoin="miter" stroke="rgb(14.901961%, 14.901961%, 14.901961%)" stroke-opacity="1" stroke-miterlimit="10" d="M 541.144531 751.75 L 542.894531 748.25 L 544.644531 751.75 Z M 541.144531 751.75 "/>
<path fill-rule="nonzero" fill="rgb(30.196078%, 68.627451%, 29.019608%)" fill-opacity="1" stroke-width="1" stroke-linecap="butt" stroke-linejoin="miter" stroke="rgb(30.196078%, 68.627451%, 29.019608%)" stroke-opacity="1" stroke-miterlimit="10" d="M 574.960938 662.304688 C 574.960938 663.304688 573.460938 663.304688 573.460938 662.304688 C 573.460938 661.304688 574.960938 661.304688 574.960938 662.304688 "/>
<path fill-rule="nonzero" fill="rgb(70.196078%, 70.196078%, 70.196078%)" fill-opacity="1" stroke-width="1" stroke-linecap="butt" stroke-linejoin="miter" stroke="rgb(70.196078%, 70.196078%, 70.196078%)" stroke-opacity="1" stroke-miterlimit="10" d="M 636.371094 592.421875 C 636.371094 595.753906 631.371094 595.753906 631.371094 592.421875 C 631.371094 589.085938 636.371094 589.085938 636.371094 592.421875 "/>
<path fill-rule="nonzero" fill="rgb(30.196078%, 68.627451%, 29.019608%)" fill-opacity="1" stroke-width="1" stroke-linecap="butt" stroke-linejoin="miter" stroke="rgb(30.196078%, 68.627451%, 29.019608%)" stroke-opacity="1" stroke-miterlimit="10" d="M 720.882812 461.445312 C 720.882812 462.445312 719.382812 462.445312 719.382812 461.445312 C 719.382812 460.445312 720.882812 460.445312 720.882812 461.445312 "/>
<path fill-rule="nonzero" fill="rgb(30.196078%, 68.627451%, 29.019608%)" fill-opacity="1" stroke-width="1" stroke-linecap="butt" stroke-linejoin="miter" stroke="rgb(30.196078%, 68.627451%, 29.019608%)" stroke-opacity="1" stroke-miterlimit="10" d="M 710.230469 556.746094 C 710.230469 557.746094 708.730469 557.746094 708.730469 556.746094 C 708.730469 555.746094 710.230469 555.746094 710.230469 556.746094 "/>
<path fill-rule="nonzero" fill="rgb(99.215686%, 74.901961%, 43.529412%)" fill-opacity="1" stroke-width="1" stroke-linecap="butt" stroke-linejoin="miter" stroke="rgb(99.215686%, 74.901961%, 43.529412%)" stroke-opacity="1" stroke-miterlimit="10" d="M 610.332031 492.804688 C 610.332031 493.804688 608.832031 493.804688 608.832031 492.804688 C 608.832031 491.804688 610.332031 491.804688 610.332031 492.804688 "/>
<path fill-rule="nonzero" fill="rgb(30.196078%, 68.627451%, 29.019608%)" fill-opacity="1" stroke-width="1" stroke-linecap="butt" stroke-linejoin="miter" stroke="rgb(30.196078%, 68.627451%, 29.019608%)" stroke-opacity="1" stroke-miterlimit="10" d="M 636.71875 50 C 636.71875 51 635.21875 51 635.21875 50 C 635.21875 49 636.71875 49 636.71875 50 "/>
<path fill-rule="nonzero" fill="rgb(30.196078%, 68.627451%, 29.019608%)" fill-opacity="1" stroke-width="1" stroke-linecap="butt" stroke-linejoin="miter" stroke="rgb(30.196078%, 68.627451%, 29.019608%)" stroke-opacity="1" stroke-miterlimit="10" d="M 715.125 65.597656 C 715.125 66.597656 713.625 66.597656 713.625 65.597656 C 713.625 64.597656 715.125 64.597656 715.125 65.597656 "/>
<path fill-rule="nonzero" fill="rgb(100%, 84.313725%, 0%)" fill-opacity="1" stroke-width="1" stroke-linecap="butt" stroke-linejoin="miter" stroke="rgb(100%, 84.313725%, 0%)" stroke-opacity="1" stroke-miterlimit="10" d="M 515.554688 61.382812 L 520.554688 61.382812 L 520.554688 66.382812 L 515.554688 66.382812 Z M 515.554688 61.382812 "/>
<path fill-rule="nonzero" fill="rgb(30.196078%, 68.627451%, 29.019608%)" fill-opacity="1" stroke-width="1" stroke-linecap="butt" stroke-linejoin="miter" stroke="rgb(30.196078%, 68.627451%, 29.019608%)" stroke-opacity="1" stroke-miterlimit="10" d="M 726.828125 249.863281 C 726.828125 250.863281 725.328125 250.863281 725.328125 249.863281 C 725.328125 248.863281 726.828125 248.863281 726.828125 249.863281 "/>
<path fill-rule="nonzero" fill="rgb(99.215686%, 74.901961%, 43.529412%)" fill-opacity="1" stroke-width="1" stroke-linecap="butt" stroke-linejoin="miter" stroke="rgb(99.215686%, 74.901961%, 43.529412%)" stroke-opacity="1" stroke-miterlimit="10" d="M 594.292969 229.046875 C 594.292969 230.046875 592.792969 230.046875 592.792969 229.046875 C 592.792969 228.046875 594.292969 228.046875 594.292969 229.046875 "/>
<path fill-rule="nonzero" fill="rgb(30.196078%, 68.627451%, 29.019608%)" fill-opacity="1" stroke-width="1" stroke-linecap="butt" stroke-linejoin="miter" stroke="rgb(30.196078%, 68.627451%, 29.019608%)" stroke-opacity="1" stroke-miterlimit="10" d="M 750.75 156.320312 C 750.75 157.320312 749.25 157.320312 749.25 156.320312 C 749.25 155.320312 750.75 155.320312 750.75 156.320312 "/>
<path fill-rule="nonzero" fill="rgb(70.196078%, 70.196078%, 70.196078%)" fill-opacity="1" stroke-width="1" stroke-linecap="butt" stroke-linejoin="miter" stroke="rgb(70.196078%, 70.196078%, 70.196078%)" stroke-opacity="1" stroke-miterlimit="10" d="M 582.875 127.429688 C 582.875 130.761719 577.875 130.761719 577.875 127.429688 C 577.875 124.09375 582.875 124.09375 582.875 127.429688 "/>
</svg>
