<?xml version="1.0" encoding="UTF-8"?>
<svg xmlns="http://www.w3.org/2000/svg" xmlns:xlink="http://www.w3.org/1999/xlink" width="800" height="800" viewBox="0 0 800 800">
<rect x="-80" y="-80" width="960" height="960" fill="rgb(100%, 100%, 100%)" fill-opacity="1"/>
<path fill="none" stroke-width="2.5" stroke-linecap="butt" stroke-linejoin="miter" stroke="rgb(70.196078%, 70.196078%, 70.196078%)" stroke-opacity="1" stroke-miterlimit="10" d="M 497.847656 169.878906 C 500.992188 151.339844 497.539062 133.949219 484.878906 120.097656 "/>
<path fill-rule="nonzero" fill="rgb(70.196078%, 70.196078%, 70.196078%)" fill-opacity="1" d="M 480.066406 114.832031 L 486.589844 118.535156 L 483.167969 121.660156 L 480.066406 114.832031 "/>
<path fill="none" stroke-width="2.5" stroke-linecap="butt" stroke-linejoin="miter" stroke="rgb(70.196078%, 70.196078%, 70.196078%)" stroke-opacity="1" stroke-miterlimit="10" d="M 476.742188 111.195312 C 482.515625 93.605469 481.726562 76.148438 471.398438 60.828125 "/>
<path fill-rule="nonzero" fill="rgb(70.196078%, 70.196078%, 70.196078%)" fill-opacity="1" d="M 467.410156 54.914062 L 473.320312 59.53125 L 469.476562 62.125 L 467.410156 54.914062 "/>
<path fill="none" stroke-width="2.5" stroke-linecap="butt" stroke-linejoin="miter" stroke="rgb(70.196078%, 70.196078%, 70.196078%)" stroke-opacity="1" stroke-miterlimit="10" d="M 535.605469 291.566406 C 541.496094 272.199219 540.117188 253.21875 528.5625 236.640625 "/>
<path fill-rule="nonzero" fill="rgb(70.196078%, 70.196078%, 70.196078%)" fill-opacity="1" d="M 524.480469 230.789062 L 530.460938 235.316406 L 526.660156 237.96875 L 524.480469 230.789062 "/>
<path fill="none" stroke-width="1.5" stroke-linecap="butt" stroke-linejoin="miter" stroke="rgb(30.196078%, 68.627451%, 29.019608%)" stroke-opacity="1" stroke-miterlimit="10" d="M 521.664062 226.746094 C 523.894531 208.503906 519.765625 191.65625 506.757812 178.730469 "/>
<path fill-rule="nonzero" fill="rgb(30.196078%, 68.627451%, 29.019608%)" fill-opacity="1" d="M 501.699219 173.703125 L 508.390625 177.085938 L 505.125 180.375 L 501.699219 173.703125 "/>
<path fill="none" stroke-width="1.5" stroke-linecap="butt" stroke-linejoin="miter" stroke="rgb(99.215686%, 74.901961%, 43.529412%)" stroke-opacity="1" stroke-miterlimit="10" d="M 521.664062 226.746094 C 535.9375 213.636719 544.03125 197.308594 542.5625 178.019531 "/>
<path fill-rule="nonzero" fill="rgb(99.215686%, 74.901961%, 43.529412%)" fill-opacity="1" d="M 542.019531 170.90625 L 544.871094 177.84375 L 540.25 178.195312 L 542.019531 170.90625 "/>
<path fill="none" stroke-width="1.5" stroke-linecap="butt" stroke-linejoin="miter" stroke="rgb(99.215686%, 74.901961%, 43.529412%)" stroke-opacity="1" stroke-miterlimit="10" d="M 541.820312 168.292969 C 531.503906 162.257812 520.195312 160.023438 509.3125 164.820312 "/>
<path fill-rule="nonzero" fill="rgb(99.215686%, 74.901961%, 43.529412%)" fill-opacity="1" d="M 502.789062 167.699219 L 508.378906 162.699219 L 510.25 166.941406 L 502.789062 167.699219 "/>
<path fill="none" stroke-width="2.5" stroke-linecap="butt" stroke-linejoin="miter" stroke="rgb(70.196078%, 70.196078%, 70.196078%)" stroke-opacity="1" stroke-miterlimit="10" d="M 555.765625 355.070312 C 559.796875 335.113281 556.582031 316.246094 543.417969 300.757812 "/>
<path fill-rule="nonzero" fill="rgb(70.196078%, 70.196078%, 70.196078%)" fill-opacity="1" d="M 538.800781 295.320312 L 545.183594 299.257812 L 541.652344 302.257812 L 538.800781 295.320312 "/>
<path fill="none" stroke-width="1.5" stroke-linecap="butt" stroke-linejoin="miter" stroke="rgb(98.431373%, 60.392157%, 60%)" stroke-opacity="1" stroke-miterlimit="10" d="M 687.910156 630.804688 C 685.386719 649.832031 689.597656 667.390625 702.976562 681.109375 "/>
<path fill-rule="nonzero" fill="rgb(98.431373%, 60.392157%, 60%)" fill-opacity="1" d="M 707.957031 686.21875 L 701.316406 682.730469 L 704.636719 679.492188 L 707.957031 686.21875 "/>
<path fill="none" stroke-width="2.5" stroke-linecap="butt" stroke-linejoin="miter" stroke="rgb(70.196078%, 70.196078%, 70.196078%)" stroke-opacity="1" stroke-miterlimit="10" d="M 550.324219 559.136719 C 566.296875 545.445312 575.644531 528.03125 574.796875 507.042969 "/>
<path fill-rule="nonzero" fill="rgb(70.196078%, 70.196078%, 70.196078%)" fill-opacity="1" d="M 574.511719 499.917969 L 577.113281 506.949219 L 572.480469 507.136719 L 574.511719 499.917969 "/>
<path fill="none" stroke-width="1.5" stroke-linecap="butt" stroke-linejoin="miter" stroke="rgb(41.568627%, 23.921569%, 60.392157%)" stroke-opacity="1" stroke-miterlimit="10" d="M 674.5 360.300781 C 690.109375 357.484375 703.042969 349.820312 710.28125 335.75 "/>
<path fill-rule="nonzero" fill="rgb(41.568627%, 23.921569%, 60.392157%)" fill-opacity="1" d="M 713.546875 329.410156 L 712.34375 336.8125 L 708.222656 334.691406 L 713.546875 329.410156 "/>
<path fill="none" stroke-width="2.5" stroke-linecap="butt" stroke-linejoin="miter" stroke="rgb(70.196078%, 70.196078%, 70.196078%)" stroke-opacity="1" stroke-miterlimit="10" d="M 583.484375 418.28125 C 585.398438 397.136719 579.886719 377.976562 564.515625 363.378906 "/>
<path fill-rule="nonzero" fill="rgb(70.196078%, 70.196078%, 70.196078%)" fill-opacity="1" d="M 559.34375 358.464844 L 566.113281 361.699219 L 562.917969 365.058594 L 559.34375 358.464844 "/>
<path fill="none" stroke-width="1.5" stroke-linecap="butt" stroke-linejoin="miter" stroke="rgb(41.568627%, 23.921569%, 60.392157%)" stroke-opacity="1" stroke-miterlimit="10" d="M 583.484375 418.28125 C 600.3125 417.980469 615.105469 412.109375 625.132812 398.636719 "/>
<path fill-rule="nonzero" fill="rgb(41.568627%, 23.921569%, 60.392157%)" fill-opacity="1" d="M 629.390625 392.914062 L 626.992188 400.023438 L 623.273438 397.253906 L 629.390625 392.914062 "/>
<path fill="none" stroke-width="3.5" stroke-linecap="butt" stroke-linejoin="miter" stroke="rgb(70.196078%, 70.196078%, 70.196078%)" stroke-opacity="1" stroke-miterlimit="10" d="M 574.292969 494.488281 C 588.183594 474.714844 593.464844 452.746094 586.753906 429.5625 "/>
<path fill-rule="nonzero" fill="rgb(70.196078%, 70.196078%, 70.196078%)" fill-opacity="1" d="M 584.769531 422.710938 L 588.976562 428.917969 L 584.527344 430.207031 L 584.769531 422.710938 "/>
<path fill="none" stroke-width="1.5" stroke-linecap="butt" stroke-linejoin="miter" stroke="rgb(98.431373%, 60.392157%, 60%)" stroke-opacity="1" stroke-miterlimit="10" d="M 574.292969 494.488281 C 580.679688 512.023438 592.207031 525.292969 609.921875 531.0625 "/>
<path fill-rule="nonzero" fill="rgb(98.431373%, 60.392157%, 60%)" fill-opacity="1" d="M 616.703125 533.273438 L 609.203125 533.269531 L 610.640625 528.859375 L 616.703125 533.273438 "/>
<path fill="none" stroke-width="1.5" stroke-linecap="butt" stroke-linejoin="miter" stroke="rgb(98.431373%, 60.392157%, 60%)" stroke-opacity="1" stroke-miterlimit="10" d="M 709.785156 688.09375 C 703.683594 706.589844 704.566406 724.890625 715.320312 741.085938 "/>
<path fill-rule="nonzero" fill="rgb(98.431373%, 60.392157%, 60%)" fill-opacity="1" d="M 719.265625 747.027344 L 713.386719 742.367188 L 717.25 739.804688 L 719.265625 747.027344 "/>
<path fill="none" stroke-width="2.5" stroke-linecap="butt" stroke-linejoin="miter" stroke="rgb(70.196078%, 70.196078%, 70.196078%)" stroke-opacity="1" stroke-miterlimit="10" d="M 514.628906 614.339844 C 532.320312 604.933594 544.667969 590.695312 548.195312 571.011719 "/>
<path fill-rule="nonzero" fill="rgb(70.196078%, 70.196078%, 70.196078%)" fill-opacity="1" d="M 549.453125 563.988281 L 550.476562 571.417969 L 545.914062 570.601562 L 549.453125 563.988281 "/>
<path fill="none" stroke-width="1.5" stroke-linecap="butt" stroke-linejoin="miter" stroke="rgb(98.431373%, 60.392157%, 60%)" stroke-opacity="1" stroke-miterlimit="10" d="M 656.957031 579.984375 C 657.84375 598.492188 664.855469 614.476562 679.949219 625.167969 "/>
<path fill-rule="nonzero" fill="rgb(98.431373%, 60.392157%, 60%)" fill-opacity="1" d="M 685.773438 629.289062 L 678.613281 627.058594 L 681.289062 623.273438 L 685.773438 629.289062 "/>
<path fill="none" stroke-width="1.5" stroke-linecap="butt" stroke-linejoin="miter" stroke="rgb(98.431373%, 60.392157%, 60%)" stroke-opacity="1" stroke-miterlimit="10" d="M 619.195312 534.085938 C 622.675781 552.261719 631.855469 567.082031 648.28125 575.527344 "/>
<path fill-rule="nonzero" fill="rgb(98.431373%, 60.392157%, 60%)" fill-opacity="1" d="M 654.628906 578.785156 L 647.222656 577.585938 L 649.34375 573.464844 L 654.628906 578.785156 "/>
<path fill="none" stroke-width="1.5" stroke-linecap="butt" stroke-linejoin="miter" stroke="rgb(41.568627%, 23.921569%, 60.392157%)" stroke-opacity="1" stroke-miterlimit="10" d="M 714.742188 327.082031 C 729.796875 321.941406 741.484375 312.402344 746.523438 297.359375 "/>
<path fill-rule="nonzero" fill="rgb(41.568627%, 23.921569%, 60.392157%)" fill-opacity="1" d="M 748.789062 290.59375 L 748.71875 298.09375 L 744.324219 296.621094 L 748.789062 290.59375 "/>
<path fill="none" stroke-width="1.5" stroke-linecap="butt" stroke-linejoin="miter" stroke="rgb(41.568627%, 23.921569%, 60.392157%)" stroke-opacity="1" stroke-miterlimit="10" d="M 630.957031 390.816406 C 647.09375 389.171875 660.863281 382.359375 669.371094 368.59375 "/>
<path fill-rule="nonzero" fill="rgb(41.568627%, 23.921569%, 60.392157%)" fill-opacity="1" d="M 673.125 362.527344 L 671.34375 369.8125 L 667.402344 367.375 L 673.125 362.527344 "/>
<path fill="none" stroke-width="1.5" stroke-linecap="butt" stroke-linejoin="miter" stroke="rgb(98.431373%, 60.392157%, 60%)" stroke-opacity="1" stroke-miterlimit="10" d="M 513.042969 684.261719 C 523.832031 665.78125 526.996094 645.941406 519.210938 626.042969 "/>
<path fill-rule="nonzero" fill="rgb(98.431373%, 60.392157%, 60%)" fill-opacity="1" d="M 516.609375 619.402344 L 521.367188 625.199219 L 517.050781 626.890625 L 516.609375 619.402344 "/>
<path fill="none" stroke-width="1.5" stroke-linecap="butt" stroke-linejoin="miter" stroke="rgb(12.156863%, 47.058824%, 70.588235%)" stroke-opacity="1" stroke-miterlimit="10" d="M 50.738281 499.207031 C 42.84375 516.601562 41.78125 534.546875 50.570312 551.472656 "/>
<path fill-rule="nonzero" fill="rgb(12.156863%, 47.058824%, 70.588235%)" fill-opacity="1" d="M 53.859375 557.800781 L 48.515625 552.539062 L 52.628906 550.402344 L 53.859375 557.800781 "/>
<path fill="none" stroke-width="2.5" stroke-linecap="butt" stroke-linejoin="miter" stroke="rgb(70.196078%, 70.196078%, 70.196078%)" stroke-opacity="1" stroke-miterlimit="10" d="M 479 529.828125 C 495.699219 527.363281 509.691406 519.640625 517.890625 504.933594 "/>
<path fill-rule="nonzero" fill="rgb(70.196078%, 70.196078%, 70.196078%)" fill-opacity="1" d="M 521.367188 498.707031 L 519.914062 506.0625 L 515.867188 503.804688 L 521.367188 498.707031 "/>
<path fill="none" stroke-width="2.5" stroke-linecap="butt" stroke-linejoin="miter" stroke="rgb(70.196078%, 70.196078%, 70.196078%)" stroke-opacity="1" stroke-miterlimit="10" d="M 523.761719 494.40625 C 536.011719 501.832031 549.417969 504.523438 562.65625 499.179688 "/>
<path fill-rule="nonzero" fill="rgb(70.196078%, 70.196078%, 70.196078%)" fill-opacity="1" d="M 569.273438 496.511719 L 563.523438 501.332031 L 561.789062 497.03125 L 569.273438 496.511719 "/>
<path fill="none" stroke-width="1.5" stroke-linecap="butt" stroke-linejoin="miter" stroke="rgb(12.156863%, 47.058824%, 70.588235%)" stroke-opacity="1" stroke-miterlimit="10" d="M 59.148438 316.449219 C 48.375 332.152344 44.210938 349.582031 49.898438 367.722656 "/>
<path fill-rule="nonzero" fill="rgb(12.156863%, 47.058824%, 70.588235%)" fill-opacity="1" d="M 52.03125 374.53125 L 47.6875 368.417969 L 52.109375 367.03125 L 52.03125 374.53125 "/>
<path fill="none" stroke-width="1.5" stroke-linecap="butt" stroke-linejoin="miter" stroke="rgb(12.156863%, 47.058824%, 70.588235%)" stroke-opacity="1" stroke-miterlimit="10" d="M 55.066406 560.128906 C 48.25 577.886719 48.253906 595.785156 57.996094 612.085938 "/>
<path fill-rule="nonzero" fill="rgb(12.156863%, 47.058824%, 70.588235%)" fill-opacity="1" d="M 61.65625 618.207031 L 56.007812 613.273438 L 59.984375 610.894531 L 61.65625 618.207031 "/>
<path fill="none" stroke-width="3.5" stroke-linecap="butt" stroke-linejoin="miter" stroke="rgb(70.196078%, 70.196078%, 70.196078%)" stroke-opacity="1" stroke-miterlimit="10" d="M 421.511719 626.648438 C 436.949219 625.410156 450.316406 619.234375 458.632812 606.222656 "/>
<path fill-rule="nonzero" fill="rgb(70.196078%, 70.196078%, 70.196078%)" fill-opacity="1" d="M 462.476562 600.214844 L 460.585938 607.472656 L 456.683594 604.976562 L 462.476562 600.214844 "/>
<path fill="none" stroke-width="1.5" stroke-linecap="butt" stroke-linejoin="miter" stroke="rgb(98.431373%, 60.392157%, 60%)" stroke-opacity="1" stroke-miterlimit="10" d="M 500.804688 748.742188 C 513.84375 732.578125 519.742188 714.007812 515.1875 693.78125 "/>
<path fill-rule="nonzero" fill="rgb(98.431373%, 60.392157%, 60%)" fill-opacity="1" d="M 513.621094 686.820312 L 517.449219 693.269531 L 512.925781 694.289062 L 513.621094 686.820312 "/>
<path fill="none" stroke-width="1.5" stroke-linecap="butt" stroke-linejoin="miter" stroke="rgb(12.156863%, 47.058824%, 70.588235%)" stroke-opacity="1" stroke-miterlimit="10" d="M 52.816406 377.03125 C 42.941406 393.394531 39.792969 411.09375 46.546875 428.9375 "/>
<path fill-rule="nonzero" fill="rgb(12.156863%, 47.058824%, 70.588235%)" fill-opacity="1" d="M 49.070312 435.609375 L 44.378906 429.757812 L 48.714844 428.117188 L 49.070312 435.609375 "/>
<path fill="none" stroke-width="1.5" stroke-linecap="butt" stroke-linejoin="miter" stroke="rgb(12.156863%, 47.058824%, 70.588235%)" stroke-opacity="1" stroke-miterlimit="10" d="M 63 620.457031 C 57.28125 638.128906 58.183594 655.609375 68.570312 670.964844 "/>
<path fill-rule="nonzero" fill="rgb(12.156863%, 47.058824%, 70.588235%)" fill-opacity="1" d="M 72.566406 676.875 L 66.648438 672.265625 L 70.488281 669.667969 L 72.566406 676.875 "/>
<path fill="none" stroke-width="1.5" stroke-linecap="butt" stroke-linejoin="miter" stroke="rgb(12.156863%, 47.058824%, 70.588235%)" stroke-opacity="1" stroke-miterlimit="10" d="M 50 438.058594 C 41.082031 454.988281 38.96875 472.863281 46.757812 490.300781 "/>
<path fill-rule="nonzero" fill="rgb(12.156863%, 47.058824%, 70.588235%)" fill-opacity="1" d="M 49.667969 496.8125 L 44.644531 491.246094 L 48.875 489.355469 L 49.667969 496.8125 "/>
<path fill="none" stroke-width="1.5" stroke-linecap="butt" stroke-linejoin="miter" stroke="rgb(41.568627%, 23.921569%, 60.392157%)" stroke-opacity="1" stroke-miterlimit="10" d="M 465.125 596.070312 C 474.644531 607.84375 487.003906 615.257812 502.089844 614.757812 "/>
<path fill-rule="nonzero" fill="rgb(41.568627%, 23.921569%, 60.392157%)" fill-opacity="1" d="M 509.21875 614.519531 L 502.164062 617.074219 L 502.011719 612.441406 L 509.21875 614.519531 "/>
<path fill="none" stroke-width="2.5" stroke-linecap="butt" stroke-linejoin="miter" stroke="rgb(70.196078%, 70.196078%, 70.196078%)" stroke-opacity="1" stroke-miterlimit="10" d="M 465.125 596.070312 C 478.675781 580.363281 485.222656 562.003906 481.289062 541.671875 "/>
<path fill-rule="nonzero" fill="rgb(70.196078%, 70.196078%, 70.196078%)" fill-opacity="1" d="M 479.9375 534.667969 L 483.566406 541.230469 L 479.015625 542.113281 L 479.9375 534.667969 "/>
<path fill="none" stroke-width="1.5" stroke-linecap="butt" stroke-linejoin="miter" stroke="rgb(12.156863%, 47.058824%, 70.588235%)" stroke-opacity="1" stroke-miterlimit="10" d="M 68.949219 256.613281 C 57.335938 271.582031 52.179688 288.644531 56.777344 306.988281 "/>
<path fill-rule="nonzero" fill="rgb(12.156863%, 47.058824%, 70.588235%)" fill-opacity="1" d="M 58.511719 313.90625 L 54.527344 307.550781 L 59.023438 306.425781 L 58.511719 313.90625 "/>
<path fill-rule="nonzero" fill="rgb(70.196078%, 70.196078%, 70.196078%)" fill-opacity="1" stroke-width="1" stroke-linecap="butt" stroke-linejoin="miter" stroke="rgb(70.196078%, 70.196078%, 70.196078%)" stroke-opacity="1" stroke-miterlimit="10" d="M 503.199219 169.878906 C 503.199219 177.011719 492.496094 177.011719 492.496094 169.878906 C 492.496094 162.746094 503.199219 162.746094 503.199219 169.878906 "/>
<path fill-rule="nonzero" fill="rgb(70.196078%, 70.196078%, 70.196078%)" fill-opacity="1" stroke-width="1" stroke-linecap="butt" stroke-linejoin="miter" stroke="rgb(70.196078%, 70.196078%, 70.196078%)" stroke-opacity="1" stroke-miterlimit="10" d="M 481.59375 111.195312 C 481.59375 117.664062 471.890625 117.664062 471.890625 111.195312 C 471.890625 104.730469 481.59375 104.730469 481.59375 111.195312 "/>
<path fill-rule="nonzero" fill="rgb(70.196078%, 70.196078%, 70.196078%)" fill-opacity="1" stroke-width="1" stroke-linecap="butt" stroke-linejoin="miter" stroke="rgb(70.196078%, 70.196078%, 70.196078%)" stroke-opacity="1" stroke-miterlimit="10" d="M 540.457031 291.566406 C 540.457031 298.03125 530.757812 298.03125 530.757812 291.566406 C 530.757812 285.097656 540.457031 285.097656 540.457031 291.566406 "/>
<path fill-rule="nonzero" fill="rgb(70.196078%, 70.196078%, 70.196078%)" fill-opacity="1" stroke-width="1" stroke-linecap="butt" stroke-linejoin="miter" stroke="rgb(70.196078%, 70.196078%, 70.196078%)" stroke-opacity="1" stroke-miterlimit="10" d="M 526.511719 226.746094 C 526.511719 233.210938 516.8125 233.210938 516.8125 226.746094 C 516.8125 220.277344 526.511719 220.277344 526.511719 226.746094 "/>
<path fill-rule="nonzero" fill="rgb(14.901961%, 14.901961%, 14.901961%)" fill-opacity="1" stroke-width="1" stroke-linecap="butt" stroke-linejoin="miter" stroke="rgb(14.901961%, 14.901961%, 14.901961%)" stroke-opacity="1" stroke-miterlimit="10" d="M 458.246094 55.851562 L 464.09375 44.148438 L 469.945312 55.851562 Z M 458.246094 55.851562 "/>
<path fill-rule="nonzero" fill="rgb(99.215686%, 74.901961%, 43.529412%)" fill-opacity="1" stroke-width="1" stroke-linecap="butt" stroke-linejoin="miter" stroke="rgb(99.215686%, 74.901961%, 43.529412%)" stroke-opacity="1" stroke-miterlimit="10" d="M 544.570312 168.292969 C 544.570312 171.960938 539.070312 171.960938 539.070312 168.292969 C 539.070312 164.625 544.570312 164.625 544.570312 168.292969 "/>
<path fill-rule="nonzero" fill="rgb(70.196078%, 70.196078%, 70.196078%)" fill-opacity="1" stroke-width="1" stroke-linecap="butt" stroke-linejoin="miter" stroke="rgb(70.196078%, 70.196078%, 70.196078%)" stroke-opacity="1" stroke-miterlimit="10" d="M 560.617188 355.070312 C 560.617188 361.535156 550.917969 361.535156 550.917969 355.070312 C 550.917969 348.601562 560.617188 348.601562 560.617188 355.070312 "/>
<path fill-rule="nonzero" fill="rgb(98.431373%, 60.392157%, 60%)" fill-opacity="1" stroke-width="1" stroke-linecap="butt" stroke-linejoin="miter" stroke="rgb(98.431373%, 60.392157%, 60%)" stroke-opacity="1" stroke-miterlimit="10" d="M 690.660156 630.804688 C 690.660156 634.46875 685.160156 634.46875 685.160156 630.804688 C 685.160156 627.136719 690.660156 627.136719 690.660156 630.804688 "/>
<path fill-rule="nonzero" fill="rgb(14.901961%, 14.901961%, 14.901961%)" fill-opacity="1" stroke-width="1" stroke-linecap="butt" stroke-linejoin="miter" stroke="rgb(14.901961%, 14.901961%, 14.901961%)" stroke-opacity="1" stroke-miterlimit="10" d="M 746.25 290.730469 L 750 283.230469 L 753.75 290.730469 Z M 746.25 290.730469 "/>
<path fill-rule="nonzero" fill="rgb(70.196078%, 70.196078%, 70.196078%)" fill-opacity="1" stroke-width="1" stroke-linecap="butt" stroke-linejoin="miter" stroke="rgb(70.196078%, 70.196078%, 70.196078%)" stroke-opacity="1" stroke-miterlimit="10" d="M 555.175781 559.136719 C 555.175781 565.605469 545.472656 565.605469 545.472656 559.136719 C 545.472656 552.671875 555.175781 552.671875 555.175781 559.136719 "/>
<path fill-rule="nonzero" fill="rgb(41.568627%, 23.921569%, 60.392157%)" fill-opacity="1" stroke-width="1" stroke-linecap="butt" stroke-linejoin="miter" stroke="rgb(41.568627%, 23.921569%, 60.392157%)" stroke-opacity="1" stroke-miterlimit="10" d="M 677.25 360.300781 C 677.25 363.96875 671.75 363.96875 671.75 360.300781 C 671.75 356.632812 677.25 356.632812 677.25 360.300781 "/>
<path fill-rule="nonzero" fill="rgb(70.196078%, 70.196078%, 70.196078%)" fill-opacity="1" stroke-width="1" stroke-linecap="butt" stroke-linejoin="miter" stroke="rgb(70.196078%, 70.196078%, 70.196078%)" stroke-opacity="1" stroke-miterlimit="10" d="M 588.335938 418.28125 C 588.335938 424.75 578.636719 424.75 578.636719 418.28125 C 578.636719 411.816406 588.335938 411.816406 588.335938 418.28125 "/>
<path fill-rule="nonzero" fill="rgb(70.196078%, 70.196078%, 70.196078%)" fill-opacity="1" stroke-width="1" stroke-linecap="butt" stroke-linejoin="miter" stroke="rgb(70.196078%, 70.196078%, 70.196078%)" stroke-opacity="1" stroke-miterlimit="10" d="M 579.640625 494.488281 C 579.640625 501.621094 568.941406 501.621094 568.941406 494.488281 C 568.941406 487.351562 579.640625 487.351562 579.640625 494.488281 "/>
<path fill-rule="nonzero" fill="rgb(98.431373%, 60.392157%, 60%)" fill-opacity="1" stroke-width="1" stroke-linecap="butt" stroke-linejoin="miter" stroke="rgb(98.431373%, 60.392157%, 60%)" stroke-opacity="1" stroke-miterlimit="10" d="M 712.535156 688.09375 C 712.535156 691.761719 707.035156 691.761719 707.035156 688.09375 C 707.035156 684.429688 712.535156 684.429688 712.535156 688.09375 "/>
<path fill-rule="nonzero" fill="rgb(70.196078%, 70.196078%, 70.196078%)" fill-opacity="1" stroke-width="1" stroke-linecap="butt" stroke-linejoin="miter" stroke="rgb(70.196078%, 70.196078%, 70.196078%)" stroke-opacity="1" stroke-miterlimit="10" d="M 519.980469 614.339844 C 519.980469 621.472656 509.28125 621.472656 509.28125 614.339844 C 509.28125 607.207031 519.980469 607.207031 519.980469 614.339844 "/>
<path fill-rule="nonzero" fill="rgb(98.431373%, 60.392157%, 60%)" fill-opacity="1" stroke-width="1" stroke-linecap="butt" stroke-linejoin="miter" stroke="rgb(98.431373%, 60.392157%, 60%)" stroke-opacity="1" stroke-miterlimit="10" d="M 659.707031 579.984375 C 659.707031 583.652344 654.207031 583.652344 654.207031 579.984375 C 654.207031 576.316406 659.707031 576.316406 659.707031 579.984375 "/>
<path fill-rule="nonzero" fill="rgb(98.431373%, 60.392157%, 60%)" fill-opacity="1" stroke-width="1" stroke-linecap="butt" stroke-linejoin="miter" stroke="rgb(98.431373%, 60.392157%, 60%)" stroke-opacity="1" stroke-miterlimit="10" d="M 621.945312 534.085938 C 621.945312 537.753906 616.445312 537.753906 616.445312 534.085938 C 616.445312 530.417969 621.945312 530.417969 621.945312 534.085938 "/>
<path fill-rule="nonzero" fill="rgb(41.568627%, 23.921569%, 60.392157%)" fill-opacity="1" stroke-width="1" stroke-linecap="butt" stroke-linejoin="miter" stroke="rgb(41.568627%, 23.921569%, 60.392157%)" stroke-opacity="1" stroke-miterlimit="10" d="M 717.492188 327.082031 C 717.492188 330.746094 711.992188 330.746094 711.992188 327.082031 C 711.992188 323.414062 717.492188 323.414062 717.492188 327.082031 "/>
<path fill-rule="nonzero" fill="rgb(14.901961%, 14.901961%, 14.901961%)" fill-opacity="1" stroke-width="1" stroke-linecap="butt" stroke-linejoin="miter" stroke="rgb(14.901961%, 14.901961%, 14.901961%)" stroke-opacity="1" stroke-miterlimit="10" d="M 717.488281 753.75 L 721.238281 746.25 L 724.988281 753.75 Z M 717.488281 753.75 "/>
<path fill-rule="nonzero" fill="rgb(41.568627%, 23.921569%, 60.392157%)" fill-opacity="1" stroke-width="1" stroke-linecap="butt" stroke-linejoin="miter" stroke="rgb(41.568627%, 23.921569%, 60.392157%)" stroke-opacity="1" stroke-miterlimit="10" d="M 633.707031 390.816406 C 633.707031 394.480469 628.207031 394.480469 628.207031 390.816406 C 628.207031 387.148438 633.707031 387.148438 633.707031 390.816406 "/>
<path fill-rule="nonzero" fill="rgb(98.431373%, 60.392157%, 60%)" fill-opacity="1" stroke-width="1" stroke-linecap="butt" stroke-linejoin="miter" stroke="rgb(98.431373%, 60.392157%, 60%)" stroke-opacity="1" stroke-miterlimit="10" d="M 515.792969 684.261719 C 515.792969 687.929688 510.292969 687.929688 510.292969 684.261719 C 510.292969 680.597656 515.792969 680.597656 515.792969 684.261719 "/>
<path fill-rule="nonzero" fill="rgb(12.156863%, 47.058824%, 70.588235%)" fill-opacity="1" stroke-width="1" stroke-linecap="butt" stroke-linejoin="miter" stroke="rgb(12.156863%, 47.058824%, 70.588235%)" stroke-opacity="1" stroke-miterlimit="10" d="M 53.488281 499.207031 C 53.488281 502.871094 47.988281 502.871094 47.988281 499.207031 C 47.988281 495.539062 53.488281 495.539062 53.488281 499.207031 "/>
<path fill-rule="nonzero" fill="rgb(70.196078%, 70.196078%, 70.196078%)" fill-opacity="1" stroke-width="1" stroke-linecap="butt" stroke-linejoin="miter" stroke="rgb(70.196078%, 70.196078%, 70.196078%)" stroke-opacity="1" stroke-miterlimit="10" d="M 483.851562 529.828125 C 483.851562 536.292969 474.148438 536.292969 474.148438 529.828125 C 474.148438 523.359375 483.851562 523.359375 483.851562 529.828125 "/>
<path fill-rule="nonzero" fill="rgb(70.196078%, 70.196078%, 70.196078%)" fill-opacity="1" stroke-width="1" stroke-linecap="butt" stroke-linejoin="miter" stroke="rgb(70.196078%, 70.196078%, 70.196078%)" stroke-opacity="1" stroke-miterlimit="10" d="M 528.613281 494.40625 C 528.613281 500.875 518.914062 500.875 518.914062 494.40625 C 518.914062 487.941406 528.613281 487.941406 528.613281 494.40625 "/>
<path fill-rule="nonzero" fill="rgb(12.156863%, 47.058824%, 70.588235%)" fill-opacity="1" stroke-width="1" stroke-linecap="butt" stroke-linejoin="miter" stroke="rgb(12.156863%, 47.058824%, 70.588235%)" stroke-opacity="1" stroke-miterlimit="10" d="M 61.898438 316.449219 C 61.898438 320.117188 56.398438 320.117188 56.398438 316.449219 C 56.398438 312.785156 61.898438 312.785156 61.898438 316.449219 "/>
<path fill-rule="nonzero" fill="rgb(14.901961%, 14.901961%, 14.901961%)" fill-opacity="1" stroke-width="1" stroke-linecap="butt" stroke-linejoin="miter" stroke="rgb(14.901961%, 14.901961%, 14.901961%)" stroke-opacity="1" stroke-miterlimit="10" d="M 70.8125 683.578125 L 74.5625 676.078125 L 78.3125 683.578125 Z M 70.8125 683.578125 "/>
<path fill-rule="nonzero" fill="rgb(12.156863%, 47.058824%, 70.588235%)" fill-opacity="1" stroke-width="1" stroke-linecap="butt" stroke-linejoin="miter" stroke="rgb(12.156863%, 47.058824%, 70.588235%)" stroke-opacity="1" stroke-miterlimit="10" d="M 57.816406 560.128906 C 57.816406 563.792969 52.316406 563.792969 52.316406 560.128906 C 52.316406 556.460938 57.816406 556.460938 57.816406 560.128906 "/>
<path fill-rule="nonzero" fill="rgb(100%, 84.313725%, 0%)" fill-opacity="1" stroke-width="1" stroke-linecap="butt" stroke-linejoin="miter" stroke="rgb(100%, 84.313725%, 0%)" stroke-opacity="1" stroke-miterlimit="10" d="M 416.160156 621.300781 L 426.859375 621.300781 L 426.859375 632 L 416.160156 632 Z M 416.160156 621.300781 "/>
<path fill-rule="nonzero" fill="rgb(100%, 84.313725%, 0%)" fill-opacity="1" stroke-width="1" stroke-linecap="butt" stroke-linejoin="miter" stroke="rgb(100%, 84.313725%, 0%)" stroke-opacity="1" stroke-miterlimit="10" d="M 497.554688 745.492188 L 504.054688 745.492188 L 504.054688 751.992188 L 497.554688 751.992188 Z M 497.554688 745.492188 "/>
<path fill-rule="nonzero" fill="rgb(12.156863%, 47.058824%, 70.588235%)" fill-opacity="1" stroke-width="1" stroke-linecap="butt" stroke-linejoin="miter" stroke="rgb(12.156863%, 47.058824%, 70.588235%)" stroke-opacity="1" stroke-miterlimit="10" d="M 55.566406 377.03125 C 55.566406 380.699219 50.066406 380.699219 50.066406 377.03125 C 50.066406 373.363281 55.566406 373.363281 55.566406 377.03125 "/>
<path fill-rule="nonzero" fill="rgb(12.156863%, 47.058824%, 70.588235%)" fill-opacity="1" stroke-width="1" stroke-linecap="butt" stroke-linejoin="miter" stroke="rgb(12.156863%, 47.058824%, 70.588235%)" stroke-opacity="1" stroke-miterlimit="10" d="M 65.75 620.457031 C 65.75 624.125 60.25 624.125 60.25 620.457031 C 60.25 616.792969 65.75 616.792969 65.75 620.457031 "/>
<path fill-rule="nonzero" fill="rgb(12.156863%, 47.058824%, 70.588235%)" fill-opacity="1" stroke-width="1" stroke-linecap="butt" stroke-linejoin="miter" stroke="rgb(12.156863%, 47.058824%, 70.588235%)" stroke-opacity="1" stroke-miterlimit="10" d="M 52.75 438.058594 C 52.75 441.726562 47.25 441.726562 47.25 438.058594 C 47.25 434.394531 52.75 434.394531 52.75 438.058594 "/>
<path fill-rule="nonzero" fill="rgb(70.196078%, 70.196078%, 70.196078%)" fill-opacity="1" stroke-width="1" stroke-linecap="butt" stroke-linejoin="miter" stroke="rgb(70.196078%, 70.196078%, 70.196078%)" stroke-opacity="1" stroke-miterlimit="10" d="M 469.976562 596.070312 C 469.976562 602.539062 460.277344 602.539062 460.277344 596.070312 C 460.277344 589.605469 469.976562 589.605469 469.976562 596.070312 "/>
<path fill-rule="nonzero" fill="rgb(100%, 84.313725%, 0%)" fill-opacity="1" stroke-width="1" stroke-linecap="butt" stroke-linejoin="miter" stroke="rgb(100%, 84.313725%, 0%)" stroke-opacity="1" stroke-miterlimit="10" d="M 65.699219 253.363281 L 72.199219 253.363281 L 72.199219 259.863281 L 65.699219 259.863281 Z M 65.699219 253.363281 "/>
</svg>
