<?xml version="1.0" encoding="UTF-8"?>
<svg xmlns="http://www.w3.org/2000/svg" xmlns:xlink="http://www.w3.org/1999/xlink" width="800" height="800" viewBox="0 0 800 800">
<rect x="-80" y="-80" width="960" height="960" fill="rgb(100%, 100%, 100%)" fill-opacity="1"/>
<path fill="none" stroke-width="3.5" stroke-linecap="butt" stroke-linejoin="miter" stroke="rgb(70.196078%, 70.196078%, 70.196078%)" stroke-opacity="1" stroke-miterlimit="10" d="M 77.109375 180.078125 C 80.160156 191.039062 86.410156 200.066406 97.027344 203.996094 "/>
<path fill-rule="nonzero" fill="rgb(70.196078%, 70.196078%, 70.196078%)" fill-opacity="1" d="M 103.71875 206.472656 L 96.222656 206.171875 L 97.832031 201.824219 L 103.71875 206.472656 "/>
<path fill="none" stroke-width="1.5" stroke-linecap="butt" stroke-linejoin="miter" stroke="rgb(12.156863%, 47.058824%, 70.588235%)" stroke-opacity="1" stroke-miterlimit="10" d="M 77.109375 180.078125 C 94.589844 138.609375 94.578125 97.089844 74.167969 56.996094 "/>
<path fill-rule="nonzero" fill="rgb(12.156863%, 47.058824%, 70.588235%)" fill-opacity="1" d="M 70.929688 50.640625 L 76.234375 55.945312 L 72.101562 58.046875 L 70.929688 50.640625 "/>
<path fill="none" stroke-width="3.5" stroke-linecap="butt" stroke-linejoin="miter" stroke="rgb(70.196078%, 70.196078%, 70.196078%)" stroke-opacity="1" stroke-miterlimit="10" d="M 77.109375 180.078125 C 69.0625 179.269531 61.199219 180.890625 56.125 187.085938 "/>
<path fill-rule="nonzero" fill="rgb(70.196078%, 70.196078%, 70.196078%)" fill-opacity="1" d="M 51.609375 192.605469 L 54.332031 185.617188 L 57.917969 188.554688 L 51.609375 192.605469 "/>
<path fill="none" stroke-width="2.5" stroke-linecap="butt" stroke-linejoin="miter" stroke="rgb(70.196078%, 70.196078%, 70.196078%)" stroke-opacity="1" stroke-miterlimit="10" d="M 77.109375 180.078125 C 56.5625 205.953125 48.058594 235.390625 54.902344 267.695312 "/>
<path fill-rule="nonzero" fill="rgb(70.196078%, 70.196078%, 70.196078%)" fill-opacity="1" d="M 56.378906 274.671875 L 52.632812 268.175781 L 57.167969 267.214844 L 56.378906 274.671875 "/>
<path fill="none" stroke-width="1.5" stroke-linecap="butt" stroke-linejoin="miter" stroke="rgb(12.156863%, 47.058824%, 70.588235%)" stroke-opacity="1" stroke-miterlimit="10" d="M 77.109375 180.078125 C 58.085938 216.398438 54.851562 254.132812 70.425781 292.042969 "/>
<path fill-rule="nonzero" fill="rgb(12.156863%, 47.058824%, 70.588235%)" fill-opacity="1" d="M 73.136719 298.640625 L 68.28125 292.921875 L 72.570312 291.160156 L 73.136719 298.640625 "/>
<path fill="none" stroke-width="5.5" stroke-linecap="butt" stroke-linejoin="miter" stroke="rgb(70.196078%, 70.196078%, 70.196078%)" stroke-opacity="1" stroke-miterlimit="10" d="M 77.109375 180.078125 C 82.105469 155.113281 77.785156 131.761719 61.542969 112.183594 "/>
<path fill-rule="nonzero" fill="rgb(70.196078%, 70.196078%, 70.196078%)" fill-opacity="1" d="M 56.988281 106.695312 L 63.328125 110.707031 L 59.757812 113.664062 L 56.988281 106.695312 "/>
<path fill="none" stroke-width="1.5" stroke-linecap="butt" stroke-linejoin="miter" stroke="rgb(12.156863%, 47.058824%, 70.588235%)" stroke-opacity="1" stroke-miterlimit="10" d="M 77.109375 180.078125 C 97.6875 145.875 103.03125 109.375 90.050781 71.640625 "/>
<path fill-rule="nonzero" fill="rgb(12.156863%, 47.058824%, 70.588235%)" fill-opacity="1" d="M 87.730469 64.894531 L 92.242188 70.886719 L 87.859375 72.394531 L 87.730469 64.894531 "/>
<path fill="none" stroke-width="8.5" stroke-linecap="butt" stroke-linejoin="miter" stroke="rgb(70.196078%, 70.196078%, 70.196078%)" stroke-opacity="1" stroke-miterlimit="10" d="M 105.945312 207.296875 C 102.894531 196.335938 96.644531 187.3125 86.027344 183.378906 "/>
<path fill-rule="nonzero" fill="rgb(70.196078%, 70.196078%, 70.196078%)" fill-opacity="1" d="M 79.339844 180.90625 L 86.832031 181.207031 L 85.222656 185.554688 L 79.339844 180.90625 "/>
<path fill="none" stroke-width="1.5" stroke-linecap="butt" stroke-linejoin="miter" stroke="rgb(12.156863%, 47.058824%, 70.588235%)" stroke-opacity="1" stroke-miterlimit="10" d="M 105.945312 207.296875 C 127.296875 175.570312 134.21875 140.890625 123.585938 104.171875 "/>
<path fill-rule="nonzero" fill="rgb(12.156863%, 47.058824%, 70.588235%)" fill-opacity="1" d="M 121.601562 97.320312 L 125.8125 103.527344 L 121.359375 104.816406 L 121.601562 97.320312 "/>
<path fill="none" stroke-width="1.5" stroke-linecap="butt" stroke-linejoin="miter" stroke="rgb(12.156863%, 47.058824%, 70.588235%)" stroke-opacity="1" stroke-miterlimit="10" d="M 121.402344 96.628906 C 100.15625 127.757812 93.050781 161.902344 103.34375 198.136719 "/>
<path fill-rule="nonzero" fill="rgb(12.156863%, 47.058824%, 70.588235%)" fill-opacity="1" d="M 105.292969 205 L 101.113281 198.769531 L 105.574219 197.503906 L 105.292969 205 "/>
<path fill="none" stroke-width="1.5" stroke-linecap="butt" stroke-linejoin="miter" stroke="rgb(12.156863%, 47.058824%, 70.588235%)" stroke-opacity="1" stroke-miterlimit="10" d="M 70.605469 50 C 53.109375 90.855469 52.839844 131.890625 72.824219 171.574219 "/>
<path fill-rule="nonzero" fill="rgb(12.156863%, 47.058824%, 70.588235%)" fill-opacity="1" d="M 76.035156 177.941406 L 70.753906 172.613281 L 74.894531 170.53125 L 76.035156 177.941406 "/>
<path fill="none" stroke-width="5.5" stroke-linecap="butt" stroke-linejoin="miter" stroke="rgb(70.196078%, 70.196078%, 70.196078%)" stroke-opacity="1" stroke-miterlimit="10" d="M 125.257812 295.625 C 132.785156 266.691406 129.125 239.152344 111.550781 214.996094 "/>
<path fill-rule="nonzero" fill="rgb(70.196078%, 70.196078%, 70.196078%)" fill-opacity="1" d="M 107.351562 209.230469 L 113.421875 213.632812 L 109.675781 216.359375 L 107.351562 209.230469 "/>
<path fill="none" stroke-width="3.5" stroke-linecap="butt" stroke-linejoin="miter" stroke="rgb(70.196078%, 70.196078%, 70.196078%)" stroke-opacity="1" stroke-miterlimit="10" d="M 50 194.570312 C 58.046875 195.382812 65.910156 193.757812 70.984375 187.5625 "/>
<path fill-rule="nonzero" fill="rgb(70.196078%, 70.196078%, 70.196078%)" fill-opacity="1" d="M 75.5 182.042969 L 72.777344 189.03125 L 69.191406 186.09375 L 75.5 182.042969 "/>
<path fill="none" stroke-width="5.5" stroke-linecap="butt" stroke-linejoin="miter" stroke="rgb(70.196078%, 70.196078%, 70.196078%)" stroke-opacity="1" stroke-miterlimit="10" d="M 145.417969 368.539062 C 150.523438 344.574219 146.679688 322.023438 131.257812 303.019531 "/>
<path fill-rule="nonzero" fill="rgb(70.196078%, 70.196078%, 70.196078%)" fill-opacity="1" d="M 126.761719 297.480469 L 133.058594 301.558594 L 129.457031 304.480469 L 126.761719 297.480469 "/>
<path fill="none" stroke-width="5.5" stroke-linecap="butt" stroke-linejoin="miter" stroke="rgb(70.196078%, 70.196078%, 70.196078%)" stroke-opacity="1" stroke-miterlimit="10" d="M 165.296875 440.511719 C 170.355469 416.902344 166.601562 394.667969 151.414062 375.933594 "/>
<path fill-rule="nonzero" fill="rgb(70.196078%, 70.196078%, 70.196078%)" fill-opacity="1" d="M 146.921875 370.394531 L 153.210938 374.476562 L 149.613281 377.394531 L 146.921875 370.394531 "/>
<path fill="none" stroke-width="2.5" stroke-linecap="butt" stroke-linejoin="miter" stroke="rgb(70.196078%, 70.196078%, 70.196078%)" stroke-opacity="1" stroke-miterlimit="10" d="M 56.875 277.011719 C 77.417969 251.136719 85.925781 221.699219 79.082031 189.394531 "/>
<path fill-rule="nonzero" fill="rgb(70.196078%, 70.196078%, 70.196078%)" fill-opacity="1" d="M 77.605469 182.417969 L 81.351562 188.914062 L 76.816406 189.875 L 77.605469 182.417969 "/>
<path fill="none" stroke-width="1.5" stroke-linecap="butt" stroke-linejoin="miter" stroke="rgb(12.156863%, 47.058824%, 70.588235%)" stroke-opacity="1" stroke-miterlimit="10" d="M 73.410156 299.304688 C 92.394531 263.597656 95.867188 226.375 80.6875 188.90625 "/>
<path fill-rule="nonzero" fill="rgb(12.156863%, 47.058824%, 70.588235%)" fill-opacity="1" d="M 78.007812 182.296875 L 82.835938 188.035156 L 78.539062 189.777344 L 78.007812 182.296875 "/>
<path fill="none" stroke-width="5.5" stroke-linecap="butt" stroke-linejoin="miter" stroke="rgb(70.196078%, 70.196078%, 70.196078%)" stroke-opacity="1" stroke-miterlimit="10" d="M 55.464844 104.859375 C 50.46875 129.824219 54.789062 153.175781 71.03125 172.753906 "/>
<path fill-rule="nonzero" fill="rgb(70.196078%, 70.196078%, 70.196078%)" fill-opacity="1" d="M 75.585938 178.242188 L 69.246094 174.230469 L 72.8125 171.273438 L 75.585938 178.242188 "/>
<path fill="none" stroke-width="5.5" stroke-linecap="butt" stroke-linejoin="miter" stroke="rgb(70.196078%, 70.196078%, 70.196078%)" stroke-opacity="1" stroke-miterlimit="10" d="M 184.066406 521.769531 C 190.746094 495.265625 187.292969 470.054688 170.984375 448.148438 "/>
<path fill-rule="nonzero" fill="rgb(70.196078%, 70.196078%, 70.196078%)" fill-opacity="1" d="M 166.722656 442.425781 L 172.84375 446.765625 L 169.125 449.53125 L 166.722656 442.425781 "/>
<path fill="none" stroke-width="5.5" stroke-linecap="butt" stroke-linejoin="miter" stroke="rgb(70.196078%, 70.196078%, 70.196078%)" stroke-opacity="1" stroke-miterlimit="10" d="M 200.644531 623.871094 C 210.964844 590.789062 208.113281 558.804688 189.25 529.757812 "/>
<path fill-rule="nonzero" fill="rgb(70.196078%, 70.196078%, 70.196078%)" fill-opacity="1" d="M 185.367188 523.773438 L 191.195312 528.492188 L 187.308594 531.019531 L 185.367188 523.773438 "/>
<path fill="none" stroke-width="1.5" stroke-linecap="butt" stroke-linejoin="miter" stroke="rgb(12.156863%, 47.058824%, 70.588235%)" stroke-opacity="1" stroke-miterlimit="10" d="M 200.644531 623.871094 C 181.433594 662.902344 179.066406 702.984375 196.535156 742.808594 "/>
<path fill-rule="nonzero" fill="rgb(12.156863%, 47.058824%, 70.588235%)" fill-opacity="1" d="M 199.398438 749.339844 L 194.410156 743.738281 L 198.65625 741.878906 L 199.398438 749.339844 "/>
<path fill="none" stroke-width="5.5" stroke-linecap="butt" stroke-linejoin="miter" stroke="rgb(70.196078%, 70.196078%, 70.196078%)" stroke-opacity="1" stroke-miterlimit="10" d="M 227.523438 606.171875 C 218.914062 606.175781 210.820312 608.773438 206.050781 615.851562 "/>
<path fill-rule="nonzero" fill="rgb(70.196078%, 70.196078%, 70.196078%)" fill-opacity="1" d="M 202.0625 621.765625 L 204.128906 614.554688 L 207.972656 617.144531 L 202.0625 621.765625 "/>
<path fill="none" stroke-width="1.5" stroke-linecap="butt" stroke-linejoin="miter" stroke="rgb(12.156863%, 47.058824%, 70.588235%)" stroke-opacity="1" stroke-miterlimit="10" d="M 183.417969 721.140625 C 203.117188 694.726562 210.707031 665.117188 202.902344 633.121094 "/>
<path fill-rule="nonzero" fill="rgb(12.156863%, 47.058824%, 70.588235%)" fill-opacity="1" d="M 201.210938 626.191406 L 205.152344 632.574219 L 200.648438 633.671875 L 201.210938 626.191406 "/>
<path fill="none" stroke-width="1.5" stroke-linecap="butt" stroke-linejoin="miter" stroke="rgb(12.156863%, 47.058824%, 70.588235%)" stroke-opacity="1" stroke-miterlimit="10" d="M 199.6875 750 C 199.984375 740.449219 197.308594 731.527344 189.707031 725.84375 "/>
<path fill-rule="nonzero" fill="rgb(12.156863%, 47.058824%, 70.588235%)" fill-opacity="1" d="M 183.992188 721.570312 L 191.09375 723.988281 L 188.316406 727.699219 L 183.992188 721.570312 "/>
<path fill="none" stroke-width="1.5" stroke-linecap="butt" stroke-linejoin="miter" stroke="rgb(12.156863%, 47.058824%, 70.588235%)" stroke-opacity="1" stroke-miterlimit="10" d="M 87.496094 64.214844 C 66.988281 97.8125 61.441406 133.789062 74.054688 171.058594 "/>
<path fill-rule="nonzero" fill="rgb(12.156863%, 47.058824%, 70.588235%)" fill-opacity="1" d="M 76.34375 177.816406 L 71.859375 171.800781 L 76.25 170.316406 L 76.34375 177.816406 "/>
<path fill="none" stroke-width="5.5" stroke-linecap="butt" stroke-linejoin="miter" stroke="rgb(70.196078%, 70.196078%, 70.196078%)" stroke-opacity="1" stroke-miterlimit="10" d="M 252.765625 610.539062 C 248.464844 606.019531 242.953125 602.773438 236.960938 604.09375 "/>
<path fill-rule="nonzero" fill="rgb(70.196078%, 70.196078%, 70.196078%)" fill-opacity="1" d="M 229.996094 605.625 L 236.464844 601.828125 L 237.460938 606.355469 L 229.996094 605.625 "/>
<path fill="none" stroke-width="5.5" stroke-linecap="butt" stroke-linejoin="miter" stroke="rgb(70.196078%, 70.196078%, 70.196078%)" stroke-opacity="1" stroke-miterlimit="10" d="M 277.003906 630.046875 C 274.542969 622.203125 269.871094 615.519531 262.050781 613.242188 "/>
<path fill-rule="nonzero" fill="rgb(70.196078%, 70.196078%, 70.196078%)" fill-opacity="1" d="M 255.203125 611.25 L 262.699219 611.019531 L 261.40625 615.46875 L 255.203125 611.25 "/>
<path fill="none" stroke-width="5.5" stroke-linecap="butt" stroke-linejoin="miter" stroke="rgb(70.196078%, 70.196078%, 70.196078%)" stroke-opacity="1" stroke-miterlimit="10" d="M 585.78125 647.140625 C 577.46875 648.367188 569.996094 652.015625 566.417969 659.539062 "/>
<path fill-rule="nonzero" fill="rgb(70.196078%, 70.196078%, 70.196078%)" fill-opacity="1" d="M 563.351562 665.980469 L 564.324219 658.542969 L 568.511719 660.535156 L 563.351562 665.980469 "/>
<path fill="none" stroke-width="5.5" stroke-linecap="butt" stroke-linejoin="miter" stroke="rgb(70.196078%, 70.196078%, 70.196078%)" stroke-opacity="1" stroke-miterlimit="10" d="M 419.578125 718.894531 C 415.382812 715.113281 410.136719 712.46875 404.867188 714.171875 "/>
<path fill-rule="nonzero" fill="rgb(70.196078%, 70.196078%, 70.196078%)" fill-opacity="1" d="M 398.082031 716.367188 L 404.15625 711.96875 L 405.582031 716.378906 L 398.082031 716.367188 "/>
<path fill="none" stroke-width="5.5" stroke-linecap="butt" stroke-linejoin="miter" stroke="rgb(70.196078%, 70.196078%, 70.196078%)" stroke-opacity="1" stroke-miterlimit="10" d="M 443.46875 718.914062 C 439.039062 715.457031 433.640625 713.203125 428.535156 715.269531 "/>
<path fill-rule="nonzero" fill="rgb(70.196078%, 70.196078%, 70.196078%)" fill-opacity="1" d="M 421.925781 717.945312 L 427.667969 713.121094 L 429.40625 717.417969 L 421.925781 717.945312 "/>
<path fill="none" stroke-width="5.5" stroke-linecap="butt" stroke-linejoin="miter" stroke="rgb(70.196078%, 70.196078%, 70.196078%)" stroke-opacity="1" stroke-miterlimit="10" d="M 395.675781 717.144531 C 391.449219 713.378906 386.175781 710.765625 380.910156 712.5 "/>
<path fill-rule="nonzero" fill="rgb(70.196078%, 70.196078%, 70.196078%)" fill-opacity="1" d="M 374.136719 714.726562 L 380.1875 710.296875 L 381.632812 714.699219 L 374.136719 714.726562 "/>
<path fill="none" stroke-width="5.5" stroke-linecap="butt" stroke-linejoin="miter" stroke="rgb(70.196078%, 70.196078%, 70.196078%)" stroke-opacity="1" stroke-miterlimit="10" d="M 300.878906 651.453125 C 298.699219 643.167969 294.15625 636.03125 286.136719 633.234375 "/>
<path fill-rule="nonzero" fill="rgb(70.196078%, 70.196078%, 70.196078%)" fill-opacity="1" d="M 279.402344 630.882812 L 286.902344 631.046875 L 285.375 635.421875 L 279.402344 630.882812 "/>
<path fill="none" stroke-width="5.5" stroke-linecap="butt" stroke-linejoin="miter" stroke="rgb(70.196078%, 70.196078%, 70.196078%)" stroke-opacity="1" stroke-miterlimit="10" d="M 324.535156 673.96875 C 322.519531 665.421875 318.050781 658.015625 309.914062 654.90625 "/>
<path fill-rule="nonzero" fill="rgb(70.196078%, 70.196078%, 70.196078%)" fill-opacity="1" d="M 303.25 652.359375 L 310.742188 652.742188 L 309.085938 657.070312 L 303.25 652.359375 "/>
<path fill="none" stroke-width="5.5" stroke-linecap="butt" stroke-linejoin="miter" stroke="rgb(70.196078%, 70.196078%, 70.196078%)" stroke-opacity="1" stroke-miterlimit="10" d="M 348.160156 694.5 C 345.964844 686.503906 341.503906 679.609375 333.710938 677.019531 "/>
<path fill-rule="nonzero" fill="rgb(70.196078%, 70.196078%, 70.196078%)" fill-opacity="1" d="M 326.945312 674.769531 L 334.441406 674.820312 L 332.980469 679.21875 L 326.945312 674.769531 "/>
<path fill="none" stroke-width="5.5" stroke-linecap="butt" stroke-linejoin="miter" stroke="rgb(70.196078%, 70.196078%, 70.196078%)" stroke-opacity="1" stroke-miterlimit="10" d="M 371.730469 715.519531 C 369.597656 707.402344 365.15625 700.386719 357.296875 697.664062 "/>
<path fill-rule="nonzero" fill="rgb(70.196078%, 70.196078%, 70.196078%)" fill-opacity="1" d="M 350.558594 695.328125 L 358.058594 695.476562 L 356.539062 699.855469 L 350.558594 695.328125 "/>
<path fill="none" stroke-width="5.5" stroke-linecap="butt" stroke-linejoin="miter" stroke="rgb(70.196078%, 70.196078%, 70.196078%)" stroke-opacity="1" stroke-miterlimit="10" d="M 750 555.96875 C 745.636719 552.597656 740.316406 550.390625 735.332031 552.457031 "/>
<path fill-rule="nonzero" fill="rgb(70.196078%, 70.196078%, 70.196078%)" fill-opacity="1" d="M 728.742188 555.191406 L 734.445312 550.316406 L 736.21875 554.597656 L 728.742188 555.191406 "/>
<path fill="none" stroke-width="5.5" stroke-linecap="butt" stroke-linejoin="miter" stroke="rgb(70.196078%, 70.196078%, 70.196078%)" stroke-opacity="1" stroke-miterlimit="10" d="M 726.40625 556.160156 C 721.859375 552.96875 716.402344 551.003906 711.476562 553.3125 "/>
<path fill-rule="nonzero" fill="rgb(70.196078%, 70.196078%, 70.196078%)" fill-opacity="1" d="M 705.015625 556.335938 L 710.492188 551.210938 L 712.457031 555.410156 L 705.015625 556.335938 "/>
<path fill="none" stroke-width="5.5" stroke-linecap="butt" stroke-linejoin="miter" stroke="rgb(70.196078%, 70.196078%, 70.196078%)" stroke-opacity="1" stroke-miterlimit="10" d="M 608.65625 614.714844 C 598.230469 619.292969 590.175781 626.765625 587.785156 637.84375 "/>
<path fill-rule="nonzero" fill="rgb(70.196078%, 70.196078%, 70.196078%)" fill-opacity="1" d="M 586.28125 644.816406 L 585.519531 637.355469 L 590.050781 638.332031 L 586.28125 644.816406 "/>
<path fill="none" stroke-width="5.5" stroke-linecap="butt" stroke-linejoin="miter" stroke="rgb(70.196078%, 70.196078%, 70.196078%)" stroke-opacity="1" stroke-miterlimit="10" d="M 632.433594 606.683594 C 626.6875 604.785156 620.460938 604.503906 615.964844 608.394531 "/>
<path fill-rule="nonzero" fill="rgb(70.196078%, 70.196078%, 70.196078%)" fill-opacity="1" d="M 610.570312 613.058594 L 614.449219 606.640625 L 617.480469 610.144531 L 610.570312 613.058594 "/>
<path fill="none" stroke-width="5.5" stroke-linecap="butt" stroke-linejoin="miter" stroke="rgb(70.196078%, 70.196078%, 70.196078%)" stroke-opacity="1" stroke-miterlimit="10" d="M 515 699.722656 C 508.84375 698.253906 502.378906 698.546875 497.996094 702.972656 "/>
<path fill-rule="nonzero" fill="rgb(70.196078%, 70.196078%, 70.196078%)" fill-opacity="1" d="M 492.976562 708.042969 L 496.347656 701.34375 L 499.644531 704.605469 L 492.976562 708.042969 "/>
<path fill="none" stroke-width="5.5" stroke-linecap="butt" stroke-linejoin="miter" stroke="rgb(70.196078%, 70.196078%, 70.196078%)" stroke-opacity="1" stroke-miterlimit="10" d="M 538.738281 686.230469 C 531.929688 685.519531 525.117188 686.789062 520.957031 692.105469 "/>
<path fill-rule="nonzero" fill="rgb(70.196078%, 70.196078%, 70.196078%)" fill-opacity="1" d="M 516.5625 697.726562 L 519.128906 690.679688 L 522.78125 693.535156 L 516.5625 697.726562 "/>
<path fill="none" stroke-width="5.5" stroke-linecap="butt" stroke-linejoin="miter" stroke="rgb(70.196078%, 70.196078%, 70.196078%)" stroke-opacity="1" stroke-miterlimit="10" d="M 491.195312 709.84375 C 485.765625 707.566406 479.726562 706.800781 475.09375 710.257812 "/>
<path fill-rule="nonzero" fill="rgb(70.196078%, 70.196078%, 70.196078%)" fill-opacity="1" d="M 469.375 714.519531 L 473.710938 708.398438 L 476.480469 712.113281 L 469.375 714.519531 "/>
<path fill="none" stroke-width="5.5" stroke-linecap="butt" stroke-linejoin="miter" stroke="rgb(70.196078%, 70.196078%, 70.196078%)" stroke-opacity="1" stroke-miterlimit="10" d="M 562.261719 668.273438 C 554.601562 668.671875 547.402344 671.304688 543.59375 677.867188 "/>
<path fill-rule="nonzero" fill="rgb(70.196078%, 70.196078%, 70.196078%)" fill-opacity="1" d="M 540.011719 684.035156 L 541.589844 676.703125 L 545.597656 679.03125 L 540.011719 684.035156 "/>
<path fill="none" stroke-width="5.5" stroke-linecap="butt" stroke-linejoin="miter" stroke="rgb(70.196078%, 70.196078%, 70.196078%)" stroke-opacity="1" stroke-miterlimit="10" d="M 467.347656 716.03125 C 462.476562 713.117188 456.789062 711.535156 451.921875 714.230469 "/>
<path fill-rule="nonzero" fill="rgb(70.196078%, 70.196078%, 70.196078%)" fill-opacity="1" d="M 445.683594 717.6875 L 450.800781 712.203125 L 453.046875 716.257812 L 445.683594 717.6875 "/>
<path fill="none" stroke-width="5.5" stroke-linecap="butt" stroke-linejoin="miter" stroke="rgb(70.196078%, 70.196078%, 70.196078%)" stroke-opacity="1" stroke-miterlimit="10" d="M 655.609375 579.65625 C 646.199219 582.5625 638.386719 588.15625 635.394531 597.472656 "/>
<path fill-rule="nonzero" fill="rgb(70.196078%, 70.196078%, 70.196078%)" fill-opacity="1" d="M 633.210938 604.261719 L 633.1875 596.761719 L 637.601562 598.179688 L 633.210938 604.261719 "/>
<path fill="none" stroke-width="5.5" stroke-linecap="butt" stroke-linejoin="miter" stroke="rgb(70.196078%, 70.196078%, 70.196078%)" stroke-opacity="1" stroke-miterlimit="10" d="M 679.40625 577.339844 C 674.652344 574.328125 669.050781 572.613281 664.167969 575.171875 "/>
<path fill-rule="nonzero" fill="rgb(70.196078%, 70.196078%, 70.196078%)" fill-opacity="1" d="M 657.851562 578.480469 L 663.09375 573.117188 L 665.242188 577.222656 L 657.851562 578.480469 "/>
<path fill="none" stroke-width="5.5" stroke-linecap="butt" stroke-linejoin="miter" stroke="rgb(70.196078%, 70.196078%, 70.196078%)" stroke-opacity="1" stroke-miterlimit="10" d="M 702.726562 557.410156 C 694.714844 558.335938 687.398438 561.59375 683.78125 568.714844 "/>
<path fill-rule="nonzero" fill="rgb(70.196078%, 70.196078%, 70.196078%)" fill-opacity="1" d="M 680.554688 575.074219 L 681.714844 567.664062 L 685.847656 569.761719 L 680.554688 575.074219 "/>
<path fill-rule="nonzero" fill="rgb(14.901961%, 14.901961%, 14.901961%)" fill-opacity="1" stroke-width="1" stroke-linecap="butt" stroke-linejoin="miter" stroke="rgb(14.901961%, 14.901961%, 14.901961%)" stroke-opacity="1" stroke-miterlimit="10" d="M 74.609375 182.578125 L 77.109375 177.578125 L 79.609375 182.578125 Z M 74.609375 182.578125 "/>
<path fill-rule="nonzero" fill="rgb(70.196078%, 70.196078%, 70.196078%)" fill-opacity="1" stroke-width="1" stroke-linecap="butt" stroke-linejoin="miter" stroke="rgb(70.196078%, 70.196078%, 70.196078%)" stroke-opacity="1" stroke-miterlimit="10" d="M 108.445312 207.296875 C 108.445312 210.632812 103.445312 210.632812 103.445312 207.296875 C 103.445312 203.964844 108.445312 203.964844 108.445312 207.296875 "/>
<path fill-rule="nonzero" fill="rgb(12.156863%, 47.058824%, 70.588235%)" fill-opacity="1" stroke-width="1" stroke-linecap="butt" stroke-linejoin="miter" stroke="rgb(12.156863%, 47.058824%, 70.588235%)" stroke-opacity="1" stroke-miterlimit="10" d="M 122.152344 96.628906 C 122.152344 97.628906 120.652344 97.628906 120.652344 96.628906 C 120.652344 95.628906 122.152344 95.628906 122.152344 96.628906 "/>
<path fill-rule="nonzero" fill="rgb(12.156863%, 47.058824%, 70.588235%)" fill-opacity="1" stroke-width="1" stroke-linecap="butt" stroke-linejoin="miter" stroke="rgb(12.156863%, 47.058824%, 70.588235%)" stroke-opacity="1" stroke-miterlimit="10" d="M 71.355469 50 C 71.355469 51 69.855469 51 69.855469 50 C 69.855469 49 71.355469 49 71.355469 50 "/>
<path fill-rule="nonzero" fill="rgb(70.196078%, 70.196078%, 70.196078%)" fill-opacity="1" stroke-width="1" stroke-linecap="butt" stroke-linejoin="miter" stroke="rgb(70.196078%, 70.196078%, 70.196078%)" stroke-opacity="1" stroke-miterlimit="10" d="M 127.757812 295.625 C 127.757812 298.960938 122.757812 298.960938 122.757812 295.625 C 122.757812 292.292969 127.757812 292.292969 127.757812 295.625 "/>
<path fill-rule="nonzero" fill="rgb(70.196078%, 70.196078%, 70.196078%)" fill-opacity="1" stroke-width="1" stroke-linecap="butt" stroke-linejoin="miter" stroke="rgb(70.196078%, 70.196078%, 70.196078%)" stroke-opacity="1" stroke-miterlimit="10" d="M 52.5 194.570312 C 52.5 197.902344 47.5 197.902344 47.5 194.570312 C 47.5 191.238281 52.5 191.238281 52.5 194.570312 "/>
<path fill-rule="nonzero" fill="rgb(70.196078%, 70.196078%, 70.196078%)" fill-opacity="1" stroke-width="1" stroke-linecap="butt" stroke-linejoin="miter" stroke="rgb(70.196078%, 70.196078%, 70.196078%)" stroke-opacity="1" stroke-miterlimit="10" d="M 147.917969 368.539062 C 147.917969 371.875 142.917969 371.875 142.917969 368.539062 C 142.917969 365.207031 147.917969 365.207031 147.917969 368.539062 "/>
<path fill-rule="nonzero" fill="rgb(70.196078%, 70.196078%, 70.196078%)" fill-opacity="1" stroke-width="1" stroke-linecap="butt" stroke-linejoin="miter" stroke="rgb(70.196078%, 70.196078%, 70.196078%)" stroke-opacity="1" stroke-miterlimit="10" d="M 167.796875 440.511719 C 167.796875 443.84375 162.796875 443.84375 162.796875 440.511719 C 162.796875 437.179688 167.796875 437.179688 167.796875 440.511719 "/>
<path fill-rule="nonzero" fill="rgb(70.196078%, 70.196078%, 70.196078%)" fill-opacity="1" stroke-width="1" stroke-linecap="butt" stroke-linejoin="miter" stroke="rgb(70.196078%, 70.196078%, 70.196078%)" stroke-opacity="1" stroke-miterlimit="10" d="M 59.375 277.011719 C 59.375 280.34375 54.375 280.34375 54.375 277.011719 C 54.375 273.675781 59.375 273.675781 59.375 277.011719 "/>
<path fill-rule="nonzero" fill="rgb(12.156863%, 47.058824%, 70.588235%)" fill-opacity="1" stroke-width="1" stroke-linecap="butt" stroke-linejoin="miter" stroke="rgb(12.156863%, 47.058824%, 70.588235%)" stroke-opacity="1" stroke-miterlimit="10" d="M 74.160156 299.304688 C 74.160156 300.304688 72.660156 300.304688 72.660156 299.304688 C 72.660156 298.304688 74.160156 298.304688 74.160156 299.304688 "/>
<path fill-rule="nonzero" fill="rgb(70.196078%, 70.196078%, 70.196078%)" fill-opacity="1" stroke-width="1" stroke-linecap="butt" stroke-linejoin="miter" stroke="rgb(70.196078%, 70.196078%, 70.196078%)" stroke-opacity="1" stroke-miterlimit="10" d="M 57.964844 104.859375 C 57.964844 108.191406 52.964844 108.191406 52.964844 104.859375 C 52.964844 101.523438 57.964844 101.523438 57.964844 104.859375 "/>
<path fill-rule="nonzero" fill="rgb(70.196078%, 70.196078%, 70.196078%)" fill-opacity="1" stroke-width="1" stroke-linecap="butt" stroke-linejoin="miter" stroke="rgb(70.196078%, 70.196078%, 70.196078%)" stroke-opacity="1" stroke-miterlimit="10" d="M 186.566406 521.769531 C 186.566406 525.101562 181.566406 525.101562 181.566406 521.769531 C 181.566406 518.4375 186.566406 518.4375 186.566406 521.769531 "/>
<path fill-rule="nonzero" fill="rgb(70.196078%, 70.196078%, 70.196078%)" fill-opacity="1" stroke-width="1" stroke-linecap="butt" stroke-linejoin="miter" stroke="rgb(70.196078%, 70.196078%, 70.196078%)" stroke-opacity="1" stroke-miterlimit="10" d="M 203.144531 623.871094 C 203.144531 627.203125 198.144531 627.203125 198.144531 623.871094 C 198.144531 620.539062 203.144531 620.539062 203.144531 623.871094 "/>
<path fill-rule="nonzero" fill="rgb(70.196078%, 70.196078%, 70.196078%)" fill-opacity="1" stroke-width="1" stroke-linecap="butt" stroke-linejoin="miter" stroke="rgb(70.196078%, 70.196078%, 70.196078%)" stroke-opacity="1" stroke-miterlimit="10" d="M 230.023438 606.171875 C 230.023438 609.503906 225.023438 609.503906 225.023438 606.171875 C 225.023438 602.835938 230.023438 602.835938 230.023438 606.171875 "/>
<path fill-rule="nonzero" fill="rgb(12.156863%, 47.058824%, 70.588235%)" fill-opacity="1" stroke-width="1" stroke-linecap="butt" stroke-linejoin="miter" stroke="rgb(12.156863%, 47.058824%, 70.588235%)" stroke-opacity="1" stroke-miterlimit="10" d="M 184.167969 721.140625 C 184.167969 722.140625 182.667969 722.140625 182.667969 721.140625 C 182.667969 720.140625 184.167969 720.140625 184.167969 721.140625 "/>
<path fill-rule="nonzero" fill="rgb(12.156863%, 47.058824%, 70.588235%)" fill-opacity="1" stroke-width="1" stroke-linecap="butt" stroke-linejoin="miter" stroke="rgb(12.156863%, 47.058824%, 70.588235%)" stroke-opacity="1" stroke-miterlimit="10" d="M 200.4375 750 C 200.4375 751 198.9375 751 198.9375 750 C 198.9375 749 200.4375 749 200.4375 750 "/>
<path fill-rule="nonzero" fill="rgb(12.156863%, 47.058824%, 70.588235%)" fill-opacity="1" stroke-width="1" stroke-linecap="butt" stroke-linejoin="miter" stroke="rgb(12.156863%, 47.058824%, 70.588235%)" stroke-opacity="1" stroke-miterlimit="10" d="M 88.246094 64.214844 C 88.246094 65.214844 86.746094 65.214844 86.746094 64.214844 C 86.746094 63.214844 88.246094 63.214844 88.246094 64.214844 "/>
<path fill-rule="nonzero" fill="rgb(70.196078%, 70.196078%, 70.196078%)" fill-opacity="1" stroke-width="1" stroke-linecap="butt" stroke-linejoin="miter" stroke="rgb(70.196078%, 70.196078%, 70.196078%)" stroke-opacity="1" stroke-miterlimit="10" d="M 255.265625 610.539062 C 255.265625 613.875 250.265625 613.875 250.265625 610.539062 C 250.265625 607.207031 255.265625 607.207031 255.265625 610.539062 "/>
<path fill-rule="nonzero" fill="rgb(70.196078%, 70.196078%, 70.196078%)" fill-opacity="1" stroke-width="1" stroke-linecap="butt" stroke-linejoin="miter" stroke="rgb(70.196078%, 70.196078%, 70.196078%)" stroke-opacity="1" stroke-miterlimit="10" d="M 279.503906 630.046875 C 279.503906 633.378906 274.503906 633.378906 274.503906 630.046875 C 274.503906 626.714844 279.503906 626.714844 279.503906 630.046875 "/>
<path fill-rule="nonzero" fill="rgb(70.196078%, 70.196078%, 70.196078%)" fill-opacity="1" stroke-width="1" stroke-linecap="butt" stroke-linejoin="miter" stroke="rgb(70.196078%, 70.196078%, 70.196078%)" stroke-opacity="1" stroke-miterlimit="10" d="M 588.28125 647.140625 C 588.28125 650.472656 583.28125 650.472656 583.28125 647.140625 C 583.28125 643.804688 588.28125 643.804688 588.28125 647.140625 "/>
<path fill-rule="nonzero" fill="rgb(70.196078%, 70.196078%, 70.196078%)" fill-opacity="1" stroke-width="1" stroke-linecap="butt" stroke-linejoin="miter" stroke="rgb(70.196078%, 70.196078%, 70.196078%)" stroke-opacity="1" stroke-miterlimit="10" d="M 422.078125 718.894531 C 422.078125 722.226562 417.078125 722.226562 417.078125 718.894531 C 417.078125 715.5625 422.078125 715.5625 422.078125 718.894531 "/>
<path fill-rule="nonzero" fill="rgb(70.196078%, 70.196078%, 70.196078%)" fill-opacity="1" stroke-width="1" stroke-linecap="butt" stroke-linejoin="miter" stroke="rgb(70.196078%, 70.196078%, 70.196078%)" stroke-opacity="1" stroke-miterlimit="10" d="M 445.96875 718.914062 C 445.96875 722.246094 440.96875 722.246094 440.96875 718.914062 C 440.96875 715.582031 445.96875 715.582031 445.96875 718.914062 "/>
<path fill-rule="nonzero" fill="rgb(70.196078%, 70.196078%, 70.196078%)" fill-opacity="1" stroke-width="1" stroke-linecap="butt" stroke-linejoin="miter" stroke="rgb(70.196078%, 70.196078%, 70.196078%)" stroke-opacity="1" stroke-miterlimit="10" d="M 398.175781 717.144531 C 398.175781 720.476562 393.175781 720.476562 393.175781 717.144531 C 393.175781 713.808594 398.175781 713.808594 398.175781 717.144531 "/>
<path fill-rule="nonzero" fill="rgb(70.196078%, 70.196078%, 70.196078%)" fill-opacity="1" stroke-width="1" stroke-linecap="butt" stroke-linejoin="miter" stroke="rgb(70.196078%, 70.196078%, 70.196078%)" stroke-opacity="1" stroke-miterlimit="10" d="M 303.378906 651.453125 C 303.378906 654.785156 298.378906 654.785156 298.378906 651.453125 C 298.378906 648.121094 303.378906 648.121094 303.378906 651.453125 "/>
<path fill-rule="nonzero" fill="rgb(70.196078%, 70.196078%, 70.196078%)" fill-opacity="1" stroke-width="1" stroke-linecap="butt" stroke-linejoin="miter" stroke="rgb(70.196078%, 70.196078%, 70.196078%)" stroke-opacity="1" stroke-miterlimit="10" d="M 327.035156 673.96875 C 327.035156 677.300781 322.035156 677.300781 322.035156 673.96875 C 322.035156 670.632812 327.035156 670.632812 327.035156 673.96875 "/>
<path fill-rule="nonzero" fill="rgb(70.196078%, 70.196078%, 70.196078%)" fill-opacity="1" stroke-width="1" stroke-linecap="butt" stroke-linejoin="miter" stroke="rgb(70.196078%, 70.196078%, 70.196078%)" stroke-opacity="1" stroke-miterlimit="10" d="M 350.660156 694.5 C 350.660156 697.832031 345.660156 697.832031 345.660156 694.5 C 345.660156 691.164062 350.660156 691.164062 350.660156 694.5 "/>
<path fill-rule="nonzero" fill="rgb(70.196078%, 70.196078%, 70.196078%)" fill-opacity="1" stroke-width="1" stroke-linecap="butt" stroke-linejoin="miter" stroke="rgb(70.196078%, 70.196078%, 70.196078%)" stroke-opacity="1" stroke-miterlimit="10" d="M 374.230469 715.519531 C 374.230469 718.851562 369.230469 718.851562 369.230469 715.519531 C 369.230469 712.1875 374.230469 712.1875 374.230469 715.519531 "/>
<path fill-rule="nonzero" fill="rgb(100%, 84.313725%, 0%)" fill-opacity="1" stroke-width="1" stroke-linecap="butt" stroke-linejoin="miter" stroke="rgb(100%, 84.313725%, 0%)" stroke-opacity="1" stroke-miterlimit="10" d="M 747.5 553.46875 L 752.5 553.46875 L 752.5 558.46875 L 747.5 558.46875 Z M 747.5 553.46875 "/>
<path fill-rule="nonzero" fill="rgb(70.196078%, 70.196078%, 70.196078%)" fill-opacity="1" stroke-width="1" stroke-linecap="butt" stroke-linejoin="miter" stroke="rgb(70.196078%, 70.196078%, 70.196078%)" stroke-opacity="1" stroke-miterlimit="10" d="M 728.90625 556.160156 C 728.90625 559.492188 723.90625 559.492188 723.90625 556.160156 C 723.90625 552.828125 728.90625 552.828125 728.90625 556.160156 "/>
<path fill-rule="nonzero" fill="rgb(70.196078%, 70.196078%, 70.196078%)" fill-opacity="1" stroke-width="1" stroke-linecap="butt" stroke-linejoin="miter" stroke="rgb(70.196078%, 70.196078%, 70.196078%)" stroke-opacity="1" stroke-miterlimit="10" d="M 611.15625 614.714844 C 611.15625 618.046875 606.15625 618.046875 606.15625 614.714844 C 606.15625 611.382812 611.15625 611.382812 611.15625 614.714844 "/>
<path fill-rule="nonzero" fill="rgb(70.196078%, 70.196078%, 70.196078%)" fill-opacity="1" stroke-width="1" stroke-linecap="butt" stroke-linejoin="miter" stroke="rgb(70.196078%, 70.196078%, 70.196078%)" stroke-opacity="1" stroke-miterlimit="10" d="M 634.933594 606.683594 C 634.933594 610.015625 629.933594 610.015625 629.933594 606.683594 C 629.933594 603.351562 634.933594 603.351562 634.933594 606.683594 "/>
<path fill-rule="nonzero" fill="rgb(70.196078%, 70.196078%, 70.196078%)" fill-opacity="1" stroke-width="1" stroke-linecap="butt" stroke-linejoin="miter" stroke="rgb(70.196078%, 70.196078%, 70.196078%)" stroke-opacity="1" stroke-miterlimit="10" d="M 517.5 699.722656 C 517.5 703.054688 512.5 703.054688 512.5 699.722656 C 512.5 696.386719 517.5 696.386719 517.5 699.722656 "/>
<path fill-rule="nonzero" fill="rgb(70.196078%, 70.196078%, 70.196078%)" fill-opacity="1" stroke-width="1" stroke-linecap="butt" stroke-linejoin="miter" stroke="rgb(70.196078%, 70.196078%, 70.196078%)" stroke-opacity="1" stroke-miterlimit="10" d="M 541.238281 686.230469 C 541.238281 689.5625 536.238281 689.5625 536.238281 686.230469 C 536.238281 682.894531 541.238281 682.894531 541.238281 686.230469 "/>
<path fill-rule="nonzero" fill="rgb(70.196078%, 70.196078%, 70.196078%)" fill-opacity="1" stroke-width="1" stroke-linecap="butt" stroke-linejoin="miter" stroke="rgb(70.196078%, 70.196078%, 70.196078%)" stroke-opacity="1" stroke-miterlimit="10" d="M 493.695312 709.84375 C 493.695312 713.175781 488.695312 713.175781 488.695312 709.84375 C 488.695312 706.511719 493.695312 706.511719 493.695312 709.84375 "/>
<path fill-rule="nonzero" fill="rgb(70.196078%, 70.196078%, 70.196078%)" fill-opacity="1" stroke-width="1" stroke-linecap="butt" stroke-linejoin="miter" stroke="rgb(70.196078%, 70.196078%, 70.196078%)" stroke-opacity="1" stroke-miterlimit="10" d="M 564.761719 668.273438 C 564.761719 671.605469 559.761719 671.605469 559.761719 668.273438 C 559.761719 664.9375 564.761719 664.9375 564.761719 668.273438 "/>
<path fill-rule="nonzero" fill="rgb(70.196078%, 70.196078%, 70.196078%)" fill-opacity="1" stroke-width="1" stroke-linecap="butt" stroke-linejoin="miter" stroke="rgb(70.196078%, 70.196078%, 70.196078%)" stroke-opacity="1" stroke-miterlimit="10" d="M 469.847656 716.03125 C 469.847656 719.363281 464.847656 719.363281 464.847656 716.03125 C 464.847656 712.699219 469.847656 712.699219 469.847656 716.03125 "/>
<path fill-rule="nonzero" fill="rgb(70.196078%, 70.196078%, 70.196078%)" fill-opacity="1" stroke-width="1" stroke-linecap="butt" stroke-linejoin="miter" stroke="rgb(70.196078%, 70.196078%, 70.196078%)" stroke-opacity="1" stroke-miterlimit="10" d="M 658.109375 579.65625 C 658.109375 582.988281 653.109375 582.988281 653.109375 579.65625 C 653.109375 576.324219 658.109375 576.324219 658.109375 579.65625 "/>
<path fill-rule="nonzero" fill="rgb(70.196078%, 70.196078%, 70.196078%)" fill-opacity="1" stroke-width="1" stroke-linecap="butt" stroke-linejoin="miter" stroke="rgb(70.196078%, 70.196078%, 70.196078%)" stroke-opacity="1" stroke-miterlimit="10" d="M 681.90625 577.339844 C 681.90625 580.671875 676.90625 580.671875 676.90625 577.339844 C 676.90625 574.003906 681.90625 574.003906 681.90625 577.339844 "/>
<path fill-rule="nonzero" fill="rgb(70.196078%, 70.196078%, 70.196078%)" fill-opacity="1" stroke-width="1" stroke-linecap="butt" stroke-linejoin="miter" stroke="rgb(70.196078%, 70.196078%, 70.196078%)" stroke-opacity="1" stroke-miterlimit="10" d="M 705.226562 557.410156 C 705.226562 560.742188 700.226562 560.742188 700.226562 557.410156 C 700.226562 554.074219 705.226562 554.074219 705.226562 557.410156 "/>
</svg>
