<?xml version="1.0" encoding="UTF-8"?>
<svg xmlns="http://www.w3.org/2000/svg" xmlns:xlink="http://www.w3.org/1999/xlink" width="800" height="800" viewBox="0 0 800 800">
<rect x="-80" y="-80" width="960" height="960" fill="rgb(100%, 100%, 100%)" fill-opacity="1"/>
<path fill="none" stroke-width="5.5" stroke-linecap="butt" stroke-linejoin="miter" stroke="rgb(70.196078%, 70.196078%, 70.196078%)" stroke-opacity="1" stroke-miterlimit="10" d="M 729.128906 137.664062 C 748.398438 114.953125 757.035156 88.652344 751.703125 59.367188 "/>
<path fill-rule="nonzero" fill="rgb(70.196078%, 70.196078%, 70.196078%)" fill-opacity="1" d="M 750.429688 52.351562 L 753.984375 58.953125 L 749.425781 59.78125 L 750.429688 52.351562 "/>
<path fill="none" stroke-width="5.5" stroke-linecap="butt" stroke-linejoin="miter" stroke="rgb(70.196078%, 70.196078%, 70.196078%)" stroke-opacity="1" stroke-miterlimit="10" d="M 708.183594 219.367188 C 726.523438 198.636719 735.132812 174.351562 730.667969 147.0625 "/>
<path fill-rule="nonzero" fill="rgb(70.196078%, 70.196078%, 70.196078%)" fill-opacity="1" d="M 729.515625 140.023438 L 732.953125 146.6875 L 728.378906 147.433594 L 729.515625 140.023438 "/>
<path fill="none" stroke-width="5.5" stroke-linecap="butt" stroke-linejoin="miter" stroke="rgb(70.196078%, 70.196078%, 70.196078%)" stroke-opacity="1" stroke-miterlimit="10" d="M 687.425781 320.671875 C 708.8125 293.421875 717.507812 262.519531 710.195312 228.675781 "/>
<path fill-rule="nonzero" fill="rgb(70.196078%, 70.196078%, 70.196078%)" fill-opacity="1" d="M 708.6875 221.703125 L 712.460938 228.1875 L 707.929688 229.164062 L 708.6875 221.703125 "/>
<path fill="none" stroke-width="5.5" stroke-linecap="butt" stroke-linejoin="miter" stroke="rgb(70.196078%, 70.196078%, 70.196078%)" stroke-opacity="1" stroke-miterlimit="10" d="M 666.351562 391.601562 C 682.988281 374.445312 691.519531 353.8125 688.59375 330.121094 "/>
<path fill-rule="nonzero" fill="rgb(70.196078%, 70.196078%, 70.196078%)" fill-opacity="1" d="M 687.71875 323.039062 L 690.890625 329.835938 L 686.292969 330.402344 L 687.71875 323.039062 "/>
<path fill="none" stroke-width="5.5" stroke-linecap="butt" stroke-linejoin="miter" stroke="rgb(70.196078%, 70.196078%, 70.196078%)" stroke-opacity="1" stroke-miterlimit="10" d="M 645.21875 454.230469 C 660.503906 439.804688 668.941406 421.996094 667.160156 401.085938 "/>
<path fill-rule="nonzero" fill="rgb(70.196078%, 70.196078%, 70.196078%)" fill-opacity="1" d="M 666.554688 393.980469 L 669.46875 400.890625 L 664.847656 401.28125 L 666.554688 393.980469 "/>
<path fill="none" stroke-width="5.5" stroke-linecap="butt" stroke-linejoin="miter" stroke="rgb(70.196078%, 70.196078%, 70.196078%)" stroke-opacity="1" stroke-miterlimit="10" d="M 624.042969 509.929688 C 638.175781 497.773438 646.503906 482.324219 645.652344 463.738281 "/>
<path fill-rule="nonzero" fill="rgb(70.196078%, 70.196078%, 70.196078%)" fill-opacity="1" d="M 645.328125 456.609375 L 647.96875 463.628906 L 643.339844 463.84375 L 645.328125 456.609375 "/>
<path fill="none" stroke-width="5.5" stroke-linecap="butt" stroke-linejoin="miter" stroke="rgb(70.196078%, 70.196078%, 70.196078%)" stroke-opacity="1" stroke-miterlimit="10" d="M 602.824219 558.144531 C 615.679688 548.417969 623.855469 535.527344 623.972656 519.445312 "/>
<path fill-rule="nonzero" fill="rgb(70.196078%, 70.196078%, 70.196078%)" fill-opacity="1" d="M 624.027344 512.3125 L 626.289062 519.464844 L 621.65625 519.429688 L 624.027344 512.3125 "/>
<path fill="none" stroke-width="5.5" stroke-linecap="butt" stroke-linejoin="miter" stroke="rgb(70.196078%, 70.196078%, 70.196078%)" stroke-opacity="1" stroke-miterlimit="10" d="M 581.574219 600.605469 C 593.417969 592.722656 601.4375 581.800781 602.265625 567.640625 "/>
<path fill-rule="nonzero" fill="rgb(70.196078%, 70.196078%, 70.196078%)" fill-opacity="1" d="M 602.683594 560.523438 L 604.582031 567.777344 L 599.953125 567.507812 L 602.683594 560.523438 "/>
<path fill="none" stroke-width="5.5" stroke-linecap="butt" stroke-linejoin="miter" stroke="rgb(70.196078%, 70.196078%, 70.196078%)" stroke-opacity="1" stroke-miterlimit="10" d="M 560.292969 633.46875 C 570.363281 628.585938 578.019531 620.945312 579.9375 609.976562 "/>
<path fill-rule="nonzero" fill="rgb(70.196078%, 70.196078%, 70.196078%)" fill-opacity="1" d="M 581.164062 602.949219 L 582.222656 610.375 L 577.65625 609.574219 L 581.164062 602.949219 "/>
<path fill="none" stroke-width="5.5" stroke-linecap="butt" stroke-linejoin="miter" stroke="rgb(70.196078%, 70.196078%, 70.196078%)" stroke-opacity="1" stroke-miterlimit="10" d="M 368.332031 698.246094 C 370.101562 705.121094 373.800781 711.242188 380.464844 713.40625 "/>
<path fill-rule="nonzero" fill="rgb(70.196078%, 70.196078%, 70.196078%)" fill-opacity="1" d="M 387.25 715.605469 L 379.75 715.609375 L 381.183594 711.203125 L 387.25 715.605469 "/>
<path fill="none" stroke-width="5.5" stroke-linecap="butt" stroke-linejoin="miter" stroke="rgb(70.196078%, 70.196078%, 70.196078%)" stroke-opacity="1" stroke-miterlimit="10" d="M 347.007812 676.917969 C 348.492188 684.65625 352.191406 691.574219 359.394531 694.550781 "/>
<path fill-rule="nonzero" fill="rgb(70.196078%, 70.196078%, 70.196078%)" fill-opacity="1" d="M 365.988281 697.277344 L 358.507812 696.691406 L 360.28125 692.410156 L 365.988281 697.277344 "/>
<path fill="none" stroke-width="5.5" stroke-linecap="butt" stroke-linejoin="miter" stroke="rgb(70.196078%, 70.196078%, 70.196078%)" stroke-opacity="1" stroke-miterlimit="10" d="M 325.695312 651.78125 C 326.816406 660.597656 330.535156 668.515625 338.390625 672.523438 "/>
<path fill-rule="nonzero" fill="rgb(70.196078%, 70.196078%, 70.196078%)" fill-opacity="1" d="M 344.746094 675.765625 L 337.335938 674.589844 L 339.445312 670.460938 L 344.746094 675.765625 "/>
<path fill="none" stroke-width="5.5" stroke-linecap="butt" stroke-linejoin="miter" stroke="rgb(70.196078%, 70.196078%, 70.196078%)" stroke-opacity="1" stroke-miterlimit="10" d="M 539.003906 668.070312 C 549.410156 662.652344 557.144531 654.421875 558.878906 642.875 "/>
<path fill-rule="nonzero" fill="rgb(70.196078%, 70.196078%, 70.196078%)" fill-opacity="1" d="M 559.941406 635.820312 L 561.171875 643.21875 L 556.589844 642.53125 L 559.941406 635.820312 "/>
<path fill="none" stroke-width="5.5" stroke-linecap="butt" stroke-linejoin="miter" stroke="rgb(70.196078%, 70.196078%, 70.196078%)" stroke-opacity="1" stroke-miterlimit="10" d="M 432.335938 750 C 437.15625 751.785156 442.566406 752.316406 446.367188 749.042969 "/>
<path fill-rule="nonzero" fill="rgb(70.196078%, 70.196078%, 70.196078%)" fill-opacity="1" d="M 451.769531 744.386719 L 447.878906 750.796875 L 444.855469 747.285156 L 451.769531 744.386719 "/>
<path fill="none" stroke-width="5.5" stroke-linecap="butt" stroke-linejoin="miter" stroke="rgb(70.196078%, 70.196078%, 70.196078%)" stroke-opacity="1" stroke-miterlimit="10" d="M 517.691406 690.925781 C 525.738281 689.019531 532.777344 684.816406 535.632812 677.132812 "/>
<path fill-rule="nonzero" fill="rgb(70.196078%, 70.196078%, 70.196078%)" fill-opacity="1" d="M 538.121094 670.449219 L 537.804688 677.941406 L 533.460938 676.328125 L 538.121094 670.449219 "/>
<path fill="none" stroke-width="5.5" stroke-linecap="butt" stroke-linejoin="miter" stroke="rgb(70.196078%, 70.196078%, 70.196078%)" stroke-opacity="1" stroke-miterlimit="10" d="M 496.371094 715.230469 C 504.71875 712.917969 511.863281 708.234375 514.605469 700.09375 "/>
<path fill-rule="nonzero" fill="rgb(70.196078%, 70.196078%, 70.196078%)" fill-opacity="1" d="M 516.878906 693.332031 L 516.800781 700.832031 L 512.40625 699.355469 L 516.878906 693.332031 "/>
<path fill="none" stroke-width="5.5" stroke-linecap="butt" stroke-linejoin="miter" stroke="rgb(70.196078%, 70.196078%, 70.196078%)" stroke-opacity="1" stroke-miterlimit="10" d="M 475.03125 730.996094 C 481.601562 730.945312 488.003906 729.027344 491.359375 723.496094 "/>
<path fill-rule="nonzero" fill="rgb(70.196078%, 70.196078%, 70.196078%)" fill-opacity="1" d="M 495.058594 717.394531 L 493.339844 724.695312 L 489.378906 722.292969 L 495.058594 717.394531 "/>
<path fill="none" stroke-width="5.5" stroke-linecap="butt" stroke-linejoin="miter" stroke="rgb(70.196078%, 70.196078%, 70.196078%)" stroke-opacity="1" stroke-miterlimit="10" d="M 453.6875 742.738281 C 459.40625 743.613281 465.367188 742.910156 468.945312 738.5 "/>
<path fill-rule="nonzero" fill="rgb(70.196078%, 70.196078%, 70.196078%)" fill-opacity="1" d="M 473.4375 732.960938 L 470.742188 739.960938 L 467.144531 737.039062 L 473.4375 732.960938 "/>
<path fill="none" stroke-width="5.5" stroke-linecap="butt" stroke-linejoin="miter" stroke="rgb(70.196078%, 70.196078%, 70.196078%)" stroke-opacity="1" stroke-miterlimit="10" d="M 410.996094 735.066406 C 413.042969 741.121094 416.765625 746.488281 422.90625 747.871094 "/>
<path fill-rule="nonzero" fill="rgb(70.196078%, 70.196078%, 70.196078%)" fill-opacity="1" d="M 429.863281 749.441406 L 422.394531 750.132812 L 423.414062 745.613281 L 429.863281 749.441406 "/>
<path fill="none" stroke-width="5.5" stroke-linecap="butt" stroke-linejoin="miter" stroke="rgb(70.196078%, 70.196078%, 70.196078%)" stroke-opacity="1" stroke-miterlimit="10" d="M 304.390625 622.828125 C 305.125 632.773438 308.878906 641.738281 317.386719 646.820312 "/>
<path fill-rule="nonzero" fill="rgb(70.196078%, 70.196078%, 70.196078%)" fill-opacity="1" d="M 323.511719 650.476562 L 316.199219 648.808594 L 318.574219 644.828125 L 323.511719 650.476562 "/>
<path fill="none" stroke-width="5.5" stroke-linecap="butt" stroke-linejoin="miter" stroke="rgb(70.196078%, 70.196078%, 70.196078%)" stroke-opacity="1" stroke-miterlimit="10" d="M 283.105469 590.964844 C 283.554688 601.847656 287.382812 611.667969 296.441406 617.609375 "/>
<path fill-rule="nonzero" fill="rgb(70.196078%, 70.196078%, 70.196078%)" fill-opacity="1" d="M 302.40625 621.523438 L 295.167969 619.546875 L 297.710938 615.671875 L 302.40625 621.523438 "/>
<path fill="none" stroke-width="5.5" stroke-linecap="butt" stroke-linejoin="miter" stroke="rgb(70.196078%, 70.196078%, 70.196078%)" stroke-opacity="1" stroke-miterlimit="10" d="M 261.839844 554.242188 C 261.734375 566.628906 265.613281 577.871094 275.492188 585.265625 "/>
<path fill-rule="nonzero" fill="rgb(70.196078%, 70.196078%, 70.196078%)" fill-opacity="1" d="M 281.203125 589.539062 L 274.101562 587.121094 L 276.878906 583.410156 L 281.203125 589.539062 "/>
<path fill="none" stroke-width="5.5" stroke-linecap="butt" stroke-linejoin="miter" stroke="rgb(70.196078%, 70.196078%, 70.196078%)" stroke-opacity="1" stroke-miterlimit="10" d="M 389.664062 716.390625 C 391.386719 723.40625 395.085938 729.660156 401.839844 731.957031 "/>
<path fill-rule="nonzero" fill="rgb(70.196078%, 70.196078%, 70.196078%)" fill-opacity="1" d="M 408.59375 734.25 L 401.09375 734.148438 L 402.585938 729.761719 L 408.59375 734.25 "/>
<path fill="none" stroke-width="5.5" stroke-linecap="butt" stroke-linejoin="miter" stroke="rgb(70.196078%, 70.196078%, 70.196078%)" stroke-opacity="1" stroke-miterlimit="10" d="M 219.386719 464.050781 C 217.898438 480.039062 221.878906 494.714844 233.621094 505.605469 "/>
<path fill-rule="nonzero" fill="rgb(70.196078%, 70.196078%, 70.196078%)" fill-opacity="1" d="M 238.851562 510.457031 L 232.046875 507.304688 L 235.199219 503.90625 L 238.851562 510.457031 "/>
<path fill="none" stroke-width="5.5" stroke-linecap="butt" stroke-linejoin="miter" stroke="rgb(70.196078%, 70.196078%, 70.196078%)" stroke-opacity="1" stroke-miterlimit="10" d="M 198.230469 406.863281 C 195.542969 425.820312 199.585938 443.371094 212.804688 457.175781 "/>
<path fill-rule="nonzero" fill="rgb(70.196078%, 70.196078%, 70.196078%)" fill-opacity="1" d="M 217.738281 462.328125 L 211.132812 458.78125 L 214.480469 455.574219 L 217.738281 462.328125 "/>
<path fill="none" stroke-width="5.5" stroke-linecap="butt" stroke-linejoin="miter" stroke="rgb(70.196078%, 70.196078%, 70.196078%)" stroke-opacity="1" stroke-miterlimit="10" d="M 240.597656 512.078125 C 239.84375 526.183594 243.773438 539.0625 254.554688 548.121094 "/>
<path fill-rule="nonzero" fill="rgb(70.196078%, 70.196078%, 70.196078%)" fill-opacity="1" d="M 260.015625 552.710938 L 253.066406 549.894531 L 256.046875 546.347656 L 260.015625 552.710938 "/>
<path fill="none" stroke-width="5.5" stroke-linecap="butt" stroke-linejoin="miter" stroke="rgb(70.196078%, 70.196078%, 70.196078%)" stroke-opacity="1" stroke-miterlimit="10" d="M 177.128906 342.328125 C 173.441406 363.6875 177.523438 383.574219 191.90625 399.75 "/>
<path fill-rule="nonzero" fill="rgb(70.196078%, 70.196078%, 70.196078%)" fill-opacity="1" d="M 196.644531 405.082031 L 190.175781 401.289062 L 193.636719 398.210938 L 196.644531 405.082031 "/>
<path fill="none" stroke-width="5.5" stroke-linecap="butt" stroke-linejoin="miter" stroke="rgb(70.196078%, 70.196078%, 70.196078%)" stroke-opacity="1" stroke-miterlimit="10" d="M 92.621094 104.910156 C 87.90625 128.691406 92.019531 150.957031 107.554688 169.53125 "/>
<path fill-rule="nonzero" fill="rgb(70.196078%, 70.196078%, 70.196078%)" fill-opacity="1" d="M 112.128906 175.003906 L 105.777344 171.019531 L 109.332031 168.046875 L 112.128906 175.003906 "/>
<path fill="none" stroke-width="5.5" stroke-linecap="butt" stroke-linejoin="miter" stroke="rgb(70.196078%, 70.196078%, 70.196078%)" stroke-opacity="1" stroke-miterlimit="10" d="M 71.332031 69.574219 C 71.394531 81.53125 75.261719 92.367188 84.910156 99.339844 "/>
<path fill-rule="nonzero" fill="rgb(70.196078%, 70.196078%, 70.196078%)" fill-opacity="1" d="M 90.691406 103.519531 L 83.554688 101.21875 L 86.269531 97.460938 L 90.691406 103.519531 "/>
<path fill="none" stroke-width="5.5" stroke-linecap="butt" stroke-linejoin="miter" stroke="rgb(70.196078%, 70.196078%, 70.196078%)" stroke-opacity="1" stroke-miterlimit="10" d="M 50 54.070312 C 52 60.265625 55.710938 65.761719 61.941406 67.28125 "/>
<path fill-rule="nonzero" fill="rgb(70.196078%, 70.196078%, 70.196078%)" fill-opacity="1" d="M 68.871094 68.972656 L 61.390625 69.535156 L 62.492188 65.03125 L 68.871094 68.972656 "/>
<path fill="none" stroke-width="5.5" stroke-linecap="butt" stroke-linejoin="miter" stroke="rgb(70.196078%, 70.196078%, 70.196078%)" stroke-opacity="1" stroke-miterlimit="10" d="M 134.679688 250.527344 C 133.488281 265.769531 137.449219 279.726562 148.816406 289.890625 "/>
<path fill-rule="nonzero" fill="rgb(70.196078%, 70.196078%, 70.196078%)" fill-opacity="1" d="M 154.132812 294.644531 L 147.269531 291.617188 L 150.359375 288.164062 L 154.132812 294.644531 "/>
<path fill="none" stroke-width="5.5" stroke-linecap="butt" stroke-linejoin="miter" stroke="rgb(70.196078%, 70.196078%, 70.196078%)" stroke-opacity="1" stroke-miterlimit="10" d="M 155.90625 296.230469 C 154.664062 311.597656 158.625 325.679688 170.054688 335.964844 "/>
<path fill-rule="nonzero" fill="rgb(70.196078%, 70.196078%, 70.196078%)" fill-opacity="1" d="M 175.359375 340.738281 L 168.503906 337.6875 L 171.605469 334.242188 L 175.359375 340.738281 "/>
<path fill="none" stroke-width="5.5" stroke-linecap="butt" stroke-linejoin="miter" stroke="rgb(70.196078%, 70.196078%, 70.196078%)" stroke-opacity="1" stroke-miterlimit="10" d="M 113.660156 176.835938 C 108.695312 201.195312 112.8125 224.027344 128.621094 243.183594 "/>
<path fill-rule="nonzero" fill="rgb(70.196078%, 70.196078%, 70.196078%)" fill-opacity="1" d="M 133.160156 248.683594 L 126.832031 244.660156 L 130.40625 241.707031 L 133.160156 248.683594 "/>
<path fill-rule="nonzero" fill="rgb(14.901961%, 14.901961%, 14.901961%)" fill-opacity="1" stroke-width="1" stroke-linecap="butt" stroke-linejoin="miter" stroke="rgb(14.901961%, 14.901961%, 14.901961%)" stroke-opacity="1" stroke-miterlimit="10" d="M 747.5 52.5 L 750 47.5 L 752.5 52.5 Z M 747.5 52.5 "/>
<path fill-rule="nonzero" fill="rgb(70.196078%, 70.196078%, 70.196078%)" fill-opacity="1" stroke-width="1" stroke-linecap="butt" stroke-linejoin="miter" stroke="rgb(70.196078%, 70.196078%, 70.196078%)" stroke-opacity="1" stroke-miterlimit="10" d="M 731.628906 137.664062 C 731.628906 140.996094 726.628906 140.996094 726.628906 137.664062 C 726.628906 134.332031 731.628906 134.332031 731.628906 137.664062 "/>
<path fill-rule="nonzero" fill="rgb(70.196078%, 70.196078%, 70.196078%)" fill-opacity="1" stroke-width="1" stroke-linecap="butt" stroke-linejoin="miter" stroke="rgb(70.196078%, 70.196078%, 70.196078%)" stroke-opacity="1" stroke-miterlimit="10" d="M 710.683594 219.367188 C 710.683594 222.699219 705.683594 222.699219 705.683594 219.367188 C 705.683594 216.035156 710.683594 216.035156 710.683594 219.367188 "/>
<path fill-rule="nonzero" fill="rgb(70.196078%, 70.196078%, 70.196078%)" fill-opacity="1" stroke-width="1" stroke-linecap="butt" stroke-linejoin="miter" stroke="rgb(70.196078%, 70.196078%, 70.196078%)" stroke-opacity="1" stroke-miterlimit="10" d="M 689.925781 320.671875 C 689.925781 324.003906 684.925781 324.003906 684.925781 320.671875 C 684.925781 317.339844 689.925781 317.339844 689.925781 320.671875 "/>
<path fill-rule="nonzero" fill="rgb(70.196078%, 70.196078%, 70.196078%)" fill-opacity="1" stroke-width="1" stroke-linecap="butt" stroke-linejoin="miter" stroke="rgb(70.196078%, 70.196078%, 70.196078%)" stroke-opacity="1" stroke-miterlimit="10" d="M 668.851562 391.601562 C 668.851562 394.933594 663.851562 394.933594 663.851562 391.601562 C 663.851562 388.269531 668.851562 388.269531 668.851562 391.601562 "/>
<path fill-rule="nonzero" fill="rgb(70.196078%, 70.196078%, 70.196078%)" fill-opacity="1" stroke-width="1" stroke-linecap="butt" stroke-linejoin="miter" stroke="rgb(70.196078%, 70.196078%, 70.196078%)" stroke-opacity="1" stroke-miterlimit="10" d="M 647.71875 454.230469 C 647.71875 457.5625 642.71875 457.5625 642.71875 454.230469 C 642.71875 450.894531 647.71875 450.894531 647.71875 454.230469 "/>
<path fill-rule="nonzero" fill="rgb(70.196078%, 70.196078%, 70.196078%)" fill-opacity="1" stroke-width="1" stroke-linecap="butt" stroke-linejoin="miter" stroke="rgb(70.196078%, 70.196078%, 70.196078%)" stroke-opacity="1" stroke-miterlimit="10" d="M 626.542969 509.929688 C 626.542969 513.265625 621.542969 513.265625 621.542969 509.929688 C 621.542969 506.597656 626.542969 506.597656 626.542969 509.929688 "/>
<path fill-rule="nonzero" fill="rgb(70.196078%, 70.196078%, 70.196078%)" fill-opacity="1" stroke-width="1" stroke-linecap="butt" stroke-linejoin="miter" stroke="rgb(70.196078%, 70.196078%, 70.196078%)" stroke-opacity="1" stroke-miterlimit="10" d="M 605.324219 558.144531 C 605.324219 561.476562 600.324219 561.476562 600.324219 558.144531 C 600.324219 554.8125 605.324219 554.8125 605.324219 558.144531 "/>
<path fill-rule="nonzero" fill="rgb(70.196078%, 70.196078%, 70.196078%)" fill-opacity="1" stroke-width="1" stroke-linecap="butt" stroke-linejoin="miter" stroke="rgb(70.196078%, 70.196078%, 70.196078%)" stroke-opacity="1" stroke-miterlimit="10" d="M 584.074219 600.605469 C 584.074219 603.941406 579.074219 603.941406 579.074219 600.605469 C 579.074219 597.273438 584.074219 597.273438 584.074219 600.605469 "/>
<path fill-rule="nonzero" fill="rgb(70.196078%, 70.196078%, 70.196078%)" fill-opacity="1" stroke-width="1" stroke-linecap="butt" stroke-linejoin="miter" stroke="rgb(70.196078%, 70.196078%, 70.196078%)" stroke-opacity="1" stroke-miterlimit="10" d="M 562.792969 633.46875 C 562.792969 636.800781 557.792969 636.800781 557.792969 633.46875 C 557.792969 630.136719 562.792969 630.136719 562.792969 633.46875 "/>
<path fill-rule="nonzero" fill="rgb(70.196078%, 70.196078%, 70.196078%)" fill-opacity="1" stroke-width="1" stroke-linecap="butt" stroke-linejoin="miter" stroke="rgb(70.196078%, 70.196078%, 70.196078%)" stroke-opacity="1" stroke-miterlimit="10" d="M 370.832031 698.246094 C 370.832031 701.578125 365.832031 701.578125 365.832031 698.246094 C 365.832031 694.914062 370.832031 694.914062 370.832031 698.246094 "/>
<path fill-rule="nonzero" fill="rgb(70.196078%, 70.196078%, 70.196078%)" fill-opacity="1" stroke-width="1" stroke-linecap="butt" stroke-linejoin="miter" stroke="rgb(70.196078%, 70.196078%, 70.196078%)" stroke-opacity="1" stroke-miterlimit="10" d="M 349.507812 676.917969 C 349.507812 680.253906 344.507812 680.253906 344.507812 676.917969 C 344.507812 673.585938 349.507812 673.585938 349.507812 676.917969 "/>
<path fill-rule="nonzero" fill="rgb(70.196078%, 70.196078%, 70.196078%)" fill-opacity="1" stroke-width="1" stroke-linecap="butt" stroke-linejoin="miter" stroke="rgb(70.196078%, 70.196078%, 70.196078%)" stroke-opacity="1" stroke-miterlimit="10" d="M 328.195312 651.78125 C 328.195312 655.113281 323.195312 655.113281 323.195312 651.78125 C 323.195312 648.445312 328.195312 648.445312 328.195312 651.78125 "/>
<path fill-rule="nonzero" fill="rgb(70.196078%, 70.196078%, 70.196078%)" fill-opacity="1" stroke-width="1" stroke-linecap="butt" stroke-linejoin="miter" stroke="rgb(70.196078%, 70.196078%, 70.196078%)" stroke-opacity="1" stroke-miterlimit="10" d="M 541.503906 668.070312 C 541.503906 671.402344 536.503906 671.402344 536.503906 668.070312 C 536.503906 664.734375 541.503906 664.734375 541.503906 668.070312 "/>
<path fill-rule="nonzero" fill="rgb(70.196078%, 70.196078%, 70.196078%)" fill-opacity="1" stroke-width="1" stroke-linecap="butt" stroke-linejoin="miter" stroke="rgb(70.196078%, 70.196078%, 70.196078%)" stroke-opacity="1" stroke-miterlimit="10" d="M 434.835938 750 C 434.835938 753.332031 429.835938 753.332031 429.835938 750 C 429.835938 746.667969 434.835938 746.667969 434.835938 750 "/>
<path fill-rule="nonzero" fill="rgb(70.196078%, 70.196078%, 70.196078%)" fill-opacity="1" stroke-width="1" stroke-linecap="butt" stroke-linejoin="miter" stroke="rgb(70.196078%, 70.196078%, 70.196078%)" stroke-opacity="1" stroke-miterlimit="10" d="M 520.191406 690.925781 C 520.191406 694.261719 515.191406 694.261719 515.191406 690.925781 C 515.191406 687.59375 520.191406 687.59375 520.191406 690.925781 "/>
<path fill-rule="nonzero" fill="rgb(70.196078%, 70.196078%, 70.196078%)" fill-opacity="1" stroke-width="1" stroke-linecap="butt" stroke-linejoin="miter" stroke="rgb(70.196078%, 70.196078%, 70.196078%)" stroke-opacity="1" stroke-miterlimit="10" d="M 498.871094 715.230469 C 498.871094 718.5625 493.871094 718.5625 493.871094 715.230469 C 493.871094 711.898438 498.871094 711.898438 498.871094 715.230469 "/>
<path fill-rule="nonzero" fill="rgb(70.196078%, 70.196078%, 70.196078%)" fill-opacity="1" stroke-width="1" stroke-linecap="butt" stroke-linejoin="miter" stroke="rgb(70.196078%, 70.196078%, 70.196078%)" stroke-opacity="1" stroke-miterlimit="10" d="M 477.53125 730.996094 C 477.53125 734.328125 472.53125 734.328125 472.53125 730.996094 C 472.53125 727.664062 477.53125 727.664062 477.53125 730.996094 "/>
<path fill-rule="nonzero" fill="rgb(70.196078%, 70.196078%, 70.196078%)" fill-opacity="1" stroke-width="1" stroke-linecap="butt" stroke-linejoin="miter" stroke="rgb(70.196078%, 70.196078%, 70.196078%)" stroke-opacity="1" stroke-miterlimit="10" d="M 456.1875 742.738281 C 456.1875 746.070312 451.1875 746.070312 451.1875 742.738281 C 451.1875 739.402344 456.1875 739.402344 456.1875 742.738281 "/>
<path fill-rule="nonzero" fill="rgb(70.196078%, 70.196078%, 70.196078%)" fill-opacity="1" stroke-width="1" stroke-linecap="butt" stroke-linejoin="miter" stroke="rgb(70.196078%, 70.196078%, 70.196078%)" stroke-opacity="1" stroke-miterlimit="10" d="M 413.496094 735.066406 C 413.496094 738.402344 408.496094 738.402344 408.496094 735.066406 C 408.496094 731.734375 413.496094 731.734375 413.496094 735.066406 "/>
<path fill-rule="nonzero" fill="rgb(70.196078%, 70.196078%, 70.196078%)" fill-opacity="1" stroke-width="1" stroke-linecap="butt" stroke-linejoin="miter" stroke="rgb(70.196078%, 70.196078%, 70.196078%)" stroke-opacity="1" stroke-miterlimit="10" d="M 306.890625 622.828125 C 306.890625 626.160156 301.890625 626.160156 301.890625 622.828125 C 301.890625 619.492188 306.890625 619.492188 306.890625 622.828125 "/>
<path fill-rule="nonzero" fill="rgb(70.196078%, 70.196078%, 70.196078%)" fill-opacity="1" stroke-width="1" stroke-linecap="butt" stroke-linejoin="miter" stroke="rgb(70.196078%, 70.196078%, 70.196078%)" stroke-opacity="1" stroke-miterlimit="10" d="M 285.605469 590.964844 C 285.605469 594.296875 280.605469 594.296875 280.605469 590.964844 C 280.605469 587.632812 285.605469 587.632812 285.605469 590.964844 "/>
<path fill-rule="nonzero" fill="rgb(70.196078%, 70.196078%, 70.196078%)" fill-opacity="1" stroke-width="1" stroke-linecap="butt" stroke-linejoin="miter" stroke="rgb(70.196078%, 70.196078%, 70.196078%)" stroke-opacity="1" stroke-miterlimit="10" d="M 264.339844 554.242188 C 264.339844 557.574219 259.339844 557.574219 259.339844 554.242188 C 259.339844 550.90625 264.339844 550.90625 264.339844 554.242188 "/>
<path fill-rule="nonzero" fill="rgb(70.196078%, 70.196078%, 70.196078%)" fill-opacity="1" stroke-width="1" stroke-linecap="butt" stroke-linejoin="miter" stroke="rgb(70.196078%, 70.196078%, 70.196078%)" stroke-opacity="1" stroke-miterlimit="10" d="M 392.164062 716.390625 C 392.164062 719.722656 387.164062 719.722656 387.164062 716.390625 C 387.164062 713.054688 392.164062 713.054688 392.164062 716.390625 "/>
<path fill-rule="nonzero" fill="rgb(70.196078%, 70.196078%, 70.196078%)" fill-opacity="1" stroke-width="1" stroke-linecap="butt" stroke-linejoin="miter" stroke="rgb(70.196078%, 70.196078%, 70.196078%)" stroke-opacity="1" stroke-miterlimit="10" d="M 221.886719 464.050781 C 221.886719 467.386719 216.886719 467.386719 216.886719 464.050781 C 216.886719 460.71875 221.886719 460.71875 221.886719 464.050781 "/>
<path fill-rule="nonzero" fill="rgb(70.196078%, 70.196078%, 70.196078%)" fill-opacity="1" stroke-width="1" stroke-linecap="butt" stroke-linejoin="miter" stroke="rgb(70.196078%, 70.196078%, 70.196078%)" stroke-opacity="1" stroke-miterlimit="10" d="M 200.730469 406.863281 C 200.730469 410.195312 195.730469 410.195312 195.730469 406.863281 C 195.730469 403.53125 200.730469 403.53125 200.730469 406.863281 "/>
<path fill-rule="nonzero" fill="rgb(70.196078%, 70.196078%, 70.196078%)" fill-opacity="1" stroke-width="1" stroke-linecap="butt" stroke-linejoin="miter" stroke="rgb(70.196078%, 70.196078%, 70.196078%)" stroke-opacity="1" stroke-miterlimit="10" d="M 243.097656 512.078125 C 243.097656 515.410156 238.097656 515.410156 238.097656 512.078125 C 238.097656 508.742188 243.097656 508.742188 243.097656 512.078125 "/>
<path fill-rule="nonzero" fill="rgb(70.196078%, 70.196078%, 70.196078%)" fill-opacity="1" stroke-width="1" stroke-linecap="butt" stroke-linejoin="miter" stroke="rgb(70.196078%, 70.196078%, 70.196078%)" stroke-opacity="1" stroke-miterlimit="10" d="M 179.628906 342.328125 C 179.628906 345.664062 174.628906 345.664062 174.628906 342.328125 C 174.628906 338.996094 179.628906 338.996094 179.628906 342.328125 "/>
<path fill-rule="nonzero" fill="rgb(70.196078%, 70.196078%, 70.196078%)" fill-opacity="1" stroke-width="1" stroke-linecap="butt" stroke-linejoin="miter" stroke="rgb(70.196078%, 70.196078%, 70.196078%)" stroke-opacity="1" stroke-miterlimit="10" d="M 95.121094 104.910156 C 95.121094 108.246094 90.121094 108.246094 90.121094 104.910156 C 90.121094 101.578125 95.121094 101.578125 95.121094 104.910156 "/>
<path fill-rule="nonzero" fill="rgb(70.196078%, 70.196078%, 70.196078%)" fill-opacity="1" stroke-width="1" stroke-linecap="butt" stroke-linejoin="miter" stroke="rgb(70.196078%, 70.196078%, 70.196078%)" stroke-opacity="1" stroke-miterlimit="10" d="M 73.832031 69.574219 C 73.832031 72.90625 68.832031 72.90625 68.832031 69.574219 C 68.832031 66.242188 73.832031 66.242188 73.832031 69.574219 "/>
<path fill-rule="nonzero" fill="rgb(100%, 84.313725%, 0%)" fill-opacity="1" stroke-width="1" stroke-linecap="butt" stroke-linejoin="miter" stroke="rgb(100%, 84.313725%, 0%)" stroke-opacity="1" stroke-miterlimit="10" d="M 47.5 51.570312 L 52.5 51.570312 L 52.5 56.570312 L 47.5 56.570312 Z M 47.5 51.570312 "/>
<path fill-rule="nonzero" fill="rgb(70.196078%, 70.196078%, 70.196078%)" fill-opacity="1" stroke-width="1" stroke-linecap="butt" stroke-linejoin="miter" stroke="rgb(70.196078%, 70.196078%, 70.196078%)" stroke-opacity="1" stroke-miterlimit="10" d="M 137.179688 250.527344 C 137.179688 253.859375 132.179688 253.859375 132.179688 250.527344 C 132.179688 247.191406 137.179688 247.191406 137.179688 250.527344 "/>
<path fill-rule="nonzero" fill="rgb(70.196078%, 70.196078%, 70.196078%)" fill-opacity="1" stroke-width="1" stroke-linecap="butt" stroke-linejoin="miter" stroke="rgb(70.196078%, 70.196078%, 70.196078%)" stroke-opacity="1" stroke-miterlimit="10" d="M 158.40625 296.230469 C 158.40625 299.566406 153.40625 299.566406 153.40625 296.230469 C 153.40625 292.898438 158.40625 292.898438 158.40625 296.230469 "/>
<path fill-rule="nonzero" fill="rgb(70.196078%, 70.196078%, 70.196078%)" fill-opacity="1" stroke-width="1" stroke-linecap="butt" stroke-linejoin="miter" stroke="rgb(70.196078%, 70.196078%, 70.196078%)" stroke-opacity="1" stroke-miterlimit="10" d="M 116.160156 176.835938 C 116.160156 180.167969 111.160156 180.167969 111.160156 176.835938 C 111.160156 173.5 116.160156 173.5 116.160156 176.835938 "/>
</svg>
