<?xml version="1.0" encoding="UTF-8"?>
<svg xmlns="http://www.w3.org/2000/svg" xmlns:xlink="http://www.w3.org/1999/xlink" width="800" height="800" viewBox="0 0 800 800">
<rect x="-80" y="-80" width="960" height="960" fill="rgb(100%, 100%, 100%)" fill-opacity="1"/>
<path fill="none" stroke-width="5.5" stroke-linecap="butt" stroke-linejoin="miter" stroke="rgb(70.196078%, 70.196078%, 70.196078%)" stroke-opacity="1" stroke-miterlimit="10" d="M 77.027344 84.253906 C 75.925781 72.65625 71.265625 62.398438 61.253906 56.5625 "/>
<path fill-rule="nonzero" fill="rgb(70.196078%, 70.196078%, 70.196078%)" fill-opacity="1" d="M 55.089844 52.96875 L 62.421875 54.558594 L 60.085938 58.5625 L 55.089844 52.96875 "/>
<path fill="none" stroke-width="5.5" stroke-linecap="butt" stroke-linejoin="miter" stroke="rgb(70.196078%, 70.196078%, 70.196078%)" stroke-opacity="1" stroke-miterlimit="10" d="M 103.554688 219.375 C 115.761719 174.585938 110.121094 132.097656 83.71875 93.929688 "/>
<path fill-rule="nonzero" fill="rgb(70.196078%, 70.196078%, 70.196078%)" fill-opacity="1" d="M 79.664062 88.0625 L 85.625 92.609375 L 81.8125 95.246094 L 79.664062 88.0625 "/>
<path fill="none" stroke-width="5.5" stroke-linecap="butt" stroke-linejoin="miter" stroke="rgb(70.196078%, 70.196078%, 70.196078%)" stroke-opacity="1" stroke-miterlimit="10" d="M 130.226562 331.648438 C 139.109375 294.417969 133.511719 259.425781 110.597656 228.792969 "/>
<path fill-rule="nonzero" fill="rgb(70.196078%, 70.196078%, 70.196078%)" fill-opacity="1" d="M 106.324219 223.078125 L 112.453125 227.402344 L 108.742188 230.179688 L 106.324219 223.078125 "/>
<path fill="none" stroke-width="5.5" stroke-linecap="butt" stroke-linejoin="miter" stroke="rgb(70.196078%, 70.196078%, 70.196078%)" stroke-opacity="1" stroke-miterlimit="10" d="M 157.050781 417.558594 C 162.203125 389.019531 156.703125 362.59375 137.863281 340.574219 "/>
<path fill-rule="nonzero" fill="rgb(70.196078%, 70.196078%, 70.196078%)" fill-opacity="1" d="M 133.226562 335.15625 L 139.625 339.070312 L 136.101562 342.082031 L 133.226562 335.15625 "/>
<path fill="none" stroke-width="5.5" stroke-linecap="butt" stroke-linejoin="miter" stroke="rgb(70.196078%, 70.196078%, 70.196078%)" stroke-opacity="1" stroke-miterlimit="10" d="M 183.945312 488.324219 C 187.035156 464.746094 181.628906 443.167969 165.183594 426.03125 "/>
<path fill-rule="nonzero" fill="rgb(70.196078%, 70.196078%, 70.196078%)" fill-opacity="1" d="M 160.242188 420.882812 L 166.855469 424.425781 L 163.511719 427.636719 L 160.242188 420.882812 "/>
<path fill="none" stroke-width="5.5" stroke-linecap="butt" stroke-linejoin="miter" stroke="rgb(70.196078%, 70.196078%, 70.196078%)" stroke-opacity="1" stroke-miterlimit="10" d="M 210.875 548.179688 C 212.582031 528.253906 207.347656 510.1875 192.757812 496.558594 "/>
<path fill-rule="nonzero" fill="rgb(70.196078%, 70.196078%, 70.196078%)" fill-opacity="1" d="M 187.546875 491.691406 L 194.339844 494.867188 L 191.175781 498.253906 L 187.546875 491.691406 "/>
<path fill="none" stroke-width="5.5" stroke-linecap="butt" stroke-linejoin="miter" stroke="rgb(70.196078%, 70.196078%, 70.196078%)" stroke-opacity="1" stroke-miterlimit="10" d="M 237.835938 599.488281 C 238.480469 582.300781 233.335938 566.863281 220.144531 555.890625 "/>
<path fill-rule="nonzero" fill="rgb(70.196078%, 70.196078%, 70.196078%)" fill-opacity="1" d="M 214.660156 551.328125 L 221.625 554.109375 L 218.664062 557.671875 L 214.660156 551.328125 "/>
<path fill="none" stroke-width="5.5" stroke-linecap="butt" stroke-linejoin="miter" stroke="rgb(70.196078%, 70.196078%, 70.196078%)" stroke-opacity="1" stroke-miterlimit="10" d="M 264.816406 643.078125 C 264.550781 628.320312 259.5 615.195312 247.589844 606.5625 "/>
<path fill-rule="nonzero" fill="rgb(70.196078%, 70.196078%, 70.196078%)" fill-opacity="1" d="M 241.816406 602.375 L 248.949219 604.683594 L 246.230469 608.4375 L 241.816406 602.375 "/>
<path fill="none" stroke-width="5.5" stroke-linecap="butt" stroke-linejoin="miter" stroke="rgb(70.196078%, 70.196078%, 70.196078%)" stroke-opacity="1" stroke-miterlimit="10" d="M 291.8125 679.746094 C 290.785156 667.117188 285.820312 655.996094 275.070312 649.382812 "/>
<path fill-rule="nonzero" fill="rgb(70.196078%, 70.196078%, 70.196078%)" fill-opacity="1" d="M 268.996094 645.648438 L 276.285156 647.410156 L 273.859375 651.359375 L 268.996094 645.648438 "/>
<path fill="none" stroke-width="5.5" stroke-linecap="butt" stroke-linejoin="miter" stroke="rgb(70.196078%, 70.196078%, 70.196078%)" stroke-opacity="1" stroke-miterlimit="10" d="M 372.855469 750 C 370.804688 740.375 365.945312 732.058594 356.929688 728.292969 "/>
<path fill-rule="nonzero" fill="rgb(70.196078%, 70.196078%, 70.196078%)" fill-opacity="1" d="M 350.351562 725.539062 L 357.824219 726.152344 L 356.039062 730.429688 L 350.351562 725.539062 "/>
<path fill="none" stroke-width="5.5" stroke-linecap="butt" stroke-linejoin="miter" stroke="rgb(70.196078%, 70.196078%, 70.196078%)" stroke-opacity="1" stroke-miterlimit="10" d="M 399.878906 725.851562 C 390.660156 727.082031 382.410156 731.027344 378.261719 739.265625 "/>
<path fill-rule="nonzero" fill="rgb(70.196078%, 70.196078%, 70.196078%)" fill-opacity="1" d="M 375.054688 745.636719 L 376.191406 738.222656 L 380.332031 740.308594 L 375.054688 745.636719 "/>
<path fill="none" stroke-width="5.5" stroke-linecap="butt" stroke-linejoin="miter" stroke="rgb(70.196078%, 70.196078%, 70.196078%)" stroke-opacity="1" stroke-miterlimit="10" d="M 318.820312 710.582031 C 317.195312 699.679688 312.300781 690.175781 302.53125 685.207031 "/>
<path fill-rule="nonzero" fill="rgb(70.196078%, 70.196078%, 70.196078%)" fill-opacity="1" d="M 296.175781 681.96875 L 303.585938 683.140625 L 301.480469 687.269531 L 296.175781 681.96875 "/>
<path fill="none" stroke-width="5.5" stroke-linecap="butt" stroke-linejoin="miter" stroke="rgb(70.196078%, 70.196078%, 70.196078%)" stroke-opacity="1" stroke-miterlimit="10" d="M 345.839844 723.652344 C 342.625 717.378906 337.703125 712.207031 330.773438 711.609375 "/>
<path fill-rule="nonzero" fill="rgb(70.196078%, 70.196078%, 70.196078%)" fill-opacity="1" d="M 323.667969 711 L 330.972656 709.300781 L 330.574219 713.917969 L 323.667969 711 "/>
<path fill="none" stroke-width="5.5" stroke-linecap="butt" stroke-linejoin="miter" stroke="rgb(70.196078%, 70.196078%, 70.196078%)" stroke-opacity="1" stroke-miterlimit="10" d="M 426.898438 706.847656 C 418.761719 706.796875 411.003906 709.152344 406.535156 715.855469 "/>
<path fill-rule="nonzero" fill="rgb(70.196078%, 70.196078%, 70.196078%)" fill-opacity="1" d="M 402.582031 721.792969 L 404.609375 714.570312 L 408.464844 717.140625 L 402.582031 721.792969 "/>
<path fill="none" stroke-width="5.5" stroke-linecap="butt" stroke-linejoin="miter" stroke="rgb(70.196078%, 70.196078%, 70.196078%)" stroke-opacity="1" stroke-miterlimit="10" d="M 453.914062 683.746094 C 444.917969 684.707031 436.765625 688.324219 432.546875 696.242188 "/>
<path fill-rule="nonzero" fill="rgb(70.196078%, 70.196078%, 70.196078%)" fill-opacity="1" d="M 429.195312 702.539062 L 430.503906 695.152344 L 434.59375 697.332031 L 429.195312 702.539062 "/>
<path fill="none" stroke-width="5.5" stroke-linecap="butt" stroke-linejoin="miter" stroke="rgb(70.196078%, 70.196078%, 70.196078%)" stroke-opacity="1" stroke-miterlimit="10" d="M 588.765625 465.875 C 572.375 478.460938 562.273438 495.046875 562.003906 515.675781 "/>
<path fill-rule="nonzero" fill="rgb(70.196078%, 70.196078%, 70.196078%)" fill-opacity="1" d="M 561.910156 522.808594 L 559.683594 515.644531 L 564.320312 515.707031 L 561.910156 522.808594 "/>
<path fill="none" stroke-width="5.5" stroke-linecap="butt" stroke-linejoin="miter" stroke="rgb(70.196078%, 70.196078%, 70.196078%)" stroke-opacity="1" stroke-miterlimit="10" d="M 561.84375 527.738281 C 547.390625 536.847656 537.609375 549.71875 536.015625 566.6875 "/>
<path fill-rule="nonzero" fill="rgb(70.196078%, 70.196078%, 70.196078%)" fill-opacity="1" d="M 535.347656 573.789062 L 533.707031 566.472656 L 538.324219 566.90625 L 535.347656 573.789062 "/>
<path fill="none" stroke-width="5.5" stroke-linecap="butt" stroke-linejoin="miter" stroke="rgb(70.196078%, 70.196078%, 70.196078%)" stroke-opacity="1" stroke-miterlimit="10" d="M 615.578125 378.378906 C 594.847656 399.4375 584.316406 424.835938 587.5 454.191406 "/>
<path fill-rule="nonzero" fill="rgb(70.196078%, 70.196078%, 70.196078%)" fill-opacity="1" d="M 588.265625 461.28125 L 585.195312 454.441406 L 589.800781 453.941406 L 588.265625 461.28125 "/>
<path fill="none" stroke-width="5.5" stroke-linecap="butt" stroke-linejoin="miter" stroke="rgb(70.196078%, 70.196078%, 70.196078%)" stroke-opacity="1" stroke-miterlimit="10" d="M 480.921875 655.175781 C 470.792969 657.589844 462.183594 662.957031 458.359375 672.570312 "/>
<path fill-rule="nonzero" fill="rgb(70.196078%, 70.196078%, 70.196078%)" fill-opacity="1" d="M 455.722656 679.199219 L 456.207031 671.714844 L 460.515625 673.425781 L 455.722656 679.199219 "/>
<path fill="none" stroke-width="5.5" stroke-linecap="butt" stroke-linejoin="miter" stroke="rgb(70.196078%, 70.196078%, 70.196078%)" stroke-opacity="1" stroke-miterlimit="10" d="M 507.914062 621.199219 C 496.691406 625.140625 487.710938 632.289062 484.34375 643.636719 "/>
<path fill-rule="nonzero" fill="rgb(70.196078%, 70.196078%, 70.196078%)" fill-opacity="1" d="M 482.316406 650.476562 L 482.125 642.976562 L 486.566406 644.296875 L 482.316406 650.476562 "/>
<path fill="none" stroke-width="5.5" stroke-linecap="butt" stroke-linejoin="miter" stroke="rgb(70.196078%, 70.196078%, 70.196078%)" stroke-opacity="1" stroke-miterlimit="10" d="M 534.886719 578.691406 C 522.007812 585.179688 512.5625 595.1875 510.035156 609.339844 "/>
<path fill-rule="nonzero" fill="rgb(70.196078%, 70.196078%, 70.196078%)" fill-opacity="1" d="M 508.777344 616.359375 L 507.753906 608.933594 L 512.316406 609.746094 L 508.777344 616.359375 "/>
<path fill="none" stroke-width="5.5" stroke-linecap="butt" stroke-linejoin="miter" stroke="rgb(70.196078%, 70.196078%, 70.196078%)" stroke-opacity="1" stroke-miterlimit="10" d="M 722.980469 70.359375 C 705.296875 85.386719 695.039062 104.535156 695.734375 127.699219 "/>
<path fill-rule="nonzero" fill="rgb(70.196078%, 70.196078%, 70.196078%)" fill-opacity="1" d="M 695.945312 134.832031 L 693.417969 127.769531 L 698.050781 127.632812 L 695.945312 134.832031 "/>
<path fill="none" stroke-width="5.5" stroke-linecap="butt" stroke-linejoin="miter" stroke="rgb(70.196078%, 70.196078%, 70.196078%)" stroke-opacity="1" stroke-miterlimit="10" d="M 642.53125 325.222656 C 627.679688 335.027344 617.820312 348.648438 616.484375 366.355469 "/>
<path fill-rule="nonzero" fill="rgb(70.196078%, 70.196078%, 70.196078%)" fill-opacity="1" d="M 615.949219 373.46875 L 614.175781 366.179688 L 618.796875 366.53125 L 615.949219 373.46875 "/>
<path fill="none" stroke-width="5.5" stroke-linecap="butt" stroke-linejoin="miter" stroke="rgb(70.196078%, 70.196078%, 70.196078%)" stroke-opacity="1" stroke-miterlimit="10" d="M 669.394531 249.097656 C 650.53125 266.425781 640.152344 287.964844 641.78125 313.5 "/>
<path fill-rule="nonzero" fill="rgb(70.196078%, 70.196078%, 70.196078%)" fill-opacity="1" d="M 642.238281 320.617188 L 639.46875 313.648438 L 644.097656 313.351562 L 642.238281 320.617188 "/>
<path fill="none" stroke-width="5.5" stroke-linecap="butt" stroke-linejoin="miter" stroke="rgb(70.196078%, 70.196078%, 70.196078%)" stroke-opacity="1" stroke-miterlimit="10" d="M 696.085938 139.4375 C 671.8125 167.828125 661.089844 200.71875 667.40625 237.511719 "/>
<path fill-rule="nonzero" fill="rgb(70.196078%, 70.196078%, 70.196078%)" fill-opacity="1" d="M 668.609375 244.542969 L 665.121094 237.902344 L 669.6875 237.117188 L 668.609375 244.542969 "/>
<path fill="none" stroke-width="5.5" stroke-linecap="butt" stroke-linejoin="miter" stroke="rgb(70.196078%, 70.196078%, 70.196078%)" stroke-opacity="1" stroke-miterlimit="10" d="M 750 51.917969 C 741.980469 51.734375 734.28125 53.921875 729.785156 60.464844 "/>
<path fill-rule="nonzero" fill="rgb(70.196078%, 70.196078%, 70.196078%)" fill-opacity="1" d="M 725.742188 66.339844 L 727.875 59.152344 L 731.695312 61.777344 L 725.742188 66.339844 "/>
<path fill-rule="nonzero" fill="rgb(14.901961%, 14.901961%, 14.901961%)" fill-opacity="1" stroke-width="1" stroke-linecap="butt" stroke-linejoin="miter" stroke="rgb(14.901961%, 14.901961%, 14.901961%)" stroke-opacity="1" stroke-miterlimit="10" d="M 44.148438 55.851562 L 50 44.148438 L 55.851562 55.851562 Z M 44.148438 55.851562 "/>
<path fill-rule="nonzero" fill="rgb(70.196078%, 70.196078%, 70.196078%)" fill-opacity="1" stroke-width="1" stroke-linecap="butt" stroke-linejoin="miter" stroke="rgb(70.196078%, 70.196078%, 70.196078%)" stroke-opacity="1" stroke-miterlimit="10" d="M 81.878906 84.253906 C 81.878906 90.722656 72.179688 90.722656 72.179688 84.253906 C 72.179688 77.789062 81.878906 77.789062 81.878906 84.253906 "/>
<path fill-rule="nonzero" fill="rgb(70.196078%, 70.196078%, 70.196078%)" fill-opacity="1" stroke-width="1" stroke-linecap="butt" stroke-linejoin="miter" stroke="rgb(70.196078%, 70.196078%, 70.196078%)" stroke-opacity="1" stroke-miterlimit="10" d="M 108.40625 219.375 C 108.40625 225.84375 98.707031 225.84375 98.707031 219.375 C 98.707031 212.910156 108.40625 212.910156 108.40625 219.375 "/>
<path fill-rule="nonzero" fill="rgb(70.196078%, 70.196078%, 70.196078%)" fill-opacity="1" stroke-width="1" stroke-linecap="butt" stroke-linejoin="miter" stroke="rgb(70.196078%, 70.196078%, 70.196078%)" stroke-opacity="1" stroke-miterlimit="10" d="M 135.074219 331.648438 C 135.074219 338.113281 125.375 338.113281 125.375 331.648438 C 125.375 325.179688 135.074219 325.179688 135.074219 331.648438 "/>
<path fill-rule="nonzero" fill="rgb(70.196078%, 70.196078%, 70.196078%)" fill-opacity="1" stroke-width="1" stroke-linecap="butt" stroke-linejoin="miter" stroke="rgb(70.196078%, 70.196078%, 70.196078%)" stroke-opacity="1" stroke-miterlimit="10" d="M 161.902344 417.558594 C 161.902344 424.023438 152.203125 424.023438 152.203125 417.558594 C 152.203125 411.089844 161.902344 411.089844 161.902344 417.558594 "/>
<path fill-rule="nonzero" fill="rgb(70.196078%, 70.196078%, 70.196078%)" fill-opacity="1" stroke-width="1" stroke-linecap="butt" stroke-linejoin="miter" stroke="rgb(70.196078%, 70.196078%, 70.196078%)" stroke-opacity="1" stroke-miterlimit="10" d="M 188.792969 488.324219 C 188.792969 494.792969 179.09375 494.792969 179.09375 488.324219 C 179.09375 481.859375 188.792969 481.859375 188.792969 488.324219 "/>
<path fill-rule="nonzero" fill="rgb(70.196078%, 70.196078%, 70.196078%)" fill-opacity="1" stroke-width="1" stroke-linecap="butt" stroke-linejoin="miter" stroke="rgb(70.196078%, 70.196078%, 70.196078%)" stroke-opacity="1" stroke-miterlimit="10" d="M 215.726562 548.179688 C 215.726562 554.648438 206.027344 554.648438 206.027344 548.179688 C 206.027344 541.714844 215.726562 541.714844 215.726562 548.179688 "/>
<path fill-rule="nonzero" fill="rgb(70.196078%, 70.196078%, 70.196078%)" fill-opacity="1" stroke-width="1" stroke-linecap="butt" stroke-linejoin="miter" stroke="rgb(70.196078%, 70.196078%, 70.196078%)" stroke-opacity="1" stroke-miterlimit="10" d="M 242.6875 599.488281 C 242.6875 605.957031 232.988281 605.957031 232.988281 599.488281 C 232.988281 593.023438 242.6875 593.023438 242.6875 599.488281 "/>
<path fill-rule="nonzero" fill="rgb(70.196078%, 70.196078%, 70.196078%)" fill-opacity="1" stroke-width="1" stroke-linecap="butt" stroke-linejoin="miter" stroke="rgb(70.196078%, 70.196078%, 70.196078%)" stroke-opacity="1" stroke-miterlimit="10" d="M 269.667969 643.078125 C 269.667969 649.546875 259.96875 649.546875 259.96875 643.078125 C 259.96875 636.613281 269.667969 636.613281 269.667969 643.078125 "/>
<path fill-rule="nonzero" fill="rgb(70.196078%, 70.196078%, 70.196078%)" fill-opacity="1" stroke-width="1" stroke-linecap="butt" stroke-linejoin="miter" stroke="rgb(70.196078%, 70.196078%, 70.196078%)" stroke-opacity="1" stroke-miterlimit="10" d="M 296.660156 679.746094 C 296.660156 686.214844 286.960938 686.214844 286.960938 679.746094 C 286.960938 673.28125 296.660156 673.28125 296.660156 679.746094 "/>
<path fill-rule="nonzero" fill="rgb(70.196078%, 70.196078%, 70.196078%)" fill-opacity="1" stroke-width="1" stroke-linecap="butt" stroke-linejoin="miter" stroke="rgb(70.196078%, 70.196078%, 70.196078%)" stroke-opacity="1" stroke-miterlimit="10" d="M 377.707031 750 C 377.707031 756.464844 368.003906 756.464844 368.003906 750 C 368.003906 743.535156 377.707031 743.535156 377.707031 750 "/>
<path fill-rule="nonzero" fill="rgb(70.196078%, 70.196078%, 70.196078%)" fill-opacity="1" stroke-width="1" stroke-linecap="butt" stroke-linejoin="miter" stroke="rgb(70.196078%, 70.196078%, 70.196078%)" stroke-opacity="1" stroke-miterlimit="10" d="M 404.726562 725.851562 C 404.726562 732.320312 395.027344 732.320312 395.027344 725.851562 C 395.027344 719.386719 404.726562 719.386719 404.726562 725.851562 "/>
<path fill-rule="nonzero" fill="rgb(70.196078%, 70.196078%, 70.196078%)" fill-opacity="1" stroke-width="1" stroke-linecap="butt" stroke-linejoin="miter" stroke="rgb(70.196078%, 70.196078%, 70.196078%)" stroke-opacity="1" stroke-miterlimit="10" d="M 323.667969 710.582031 C 323.667969 717.046875 313.96875 717.046875 313.96875 710.582031 C 313.96875 704.113281 323.667969 704.113281 323.667969 710.582031 "/>
<path fill-rule="nonzero" fill="rgb(70.196078%, 70.196078%, 70.196078%)" fill-opacity="1" stroke-width="1" stroke-linecap="butt" stroke-linejoin="miter" stroke="rgb(70.196078%, 70.196078%, 70.196078%)" stroke-opacity="1" stroke-miterlimit="10" d="M 350.6875 723.652344 C 350.6875 730.121094 340.988281 730.121094 340.988281 723.652344 C 340.988281 717.1875 350.6875 717.1875 350.6875 723.652344 "/>
<path fill-rule="nonzero" fill="rgb(70.196078%, 70.196078%, 70.196078%)" fill-opacity="1" stroke-width="1" stroke-linecap="butt" stroke-linejoin="miter" stroke="rgb(70.196078%, 70.196078%, 70.196078%)" stroke-opacity="1" stroke-miterlimit="10" d="M 431.75 706.847656 C 431.75 713.316406 422.050781 713.316406 422.050781 706.847656 C 422.050781 700.382812 431.75 700.382812 431.75 706.847656 "/>
<path fill-rule="nonzero" fill="rgb(70.196078%, 70.196078%, 70.196078%)" fill-opacity="1" stroke-width="1" stroke-linecap="butt" stroke-linejoin="miter" stroke="rgb(70.196078%, 70.196078%, 70.196078%)" stroke-opacity="1" stroke-miterlimit="10" d="M 458.765625 683.746094 C 458.765625 690.210938 449.066406 690.210938 449.066406 683.746094 C 449.066406 677.28125 458.765625 677.28125 458.765625 683.746094 "/>
<path fill-rule="nonzero" fill="rgb(70.196078%, 70.196078%, 70.196078%)" fill-opacity="1" stroke-width="1" stroke-linecap="butt" stroke-linejoin="miter" stroke="rgb(70.196078%, 70.196078%, 70.196078%)" stroke-opacity="1" stroke-miterlimit="10" d="M 593.613281 465.875 C 593.613281 472.339844 583.914062 472.339844 583.914062 465.875 C 583.914062 459.40625 593.613281 459.40625 593.613281 465.875 "/>
<path fill-rule="nonzero" fill="rgb(70.196078%, 70.196078%, 70.196078%)" fill-opacity="1" stroke-width="1" stroke-linecap="butt" stroke-linejoin="miter" stroke="rgb(70.196078%, 70.196078%, 70.196078%)" stroke-opacity="1" stroke-miterlimit="10" d="M 566.695312 527.738281 C 566.695312 534.203125 556.992188 534.203125 556.992188 527.738281 C 556.992188 521.273438 566.695312 521.273438 566.695312 527.738281 "/>
<path fill-rule="nonzero" fill="rgb(70.196078%, 70.196078%, 70.196078%)" fill-opacity="1" stroke-width="1" stroke-linecap="butt" stroke-linejoin="miter" stroke="rgb(70.196078%, 70.196078%, 70.196078%)" stroke-opacity="1" stroke-miterlimit="10" d="M 620.425781 378.378906 C 620.425781 384.84375 610.726562 384.84375 610.726562 378.378906 C 610.726562 371.910156 620.425781 371.910156 620.425781 378.378906 "/>
<path fill-rule="nonzero" fill="rgb(70.196078%, 70.196078%, 70.196078%)" fill-opacity="1" stroke-width="1" stroke-linecap="butt" stroke-linejoin="miter" stroke="rgb(70.196078%, 70.196078%, 70.196078%)" stroke-opacity="1" stroke-miterlimit="10" d="M 485.773438 655.175781 C 485.773438 661.640625 476.074219 661.640625 476.074219 655.175781 C 476.074219 648.707031 485.773438 648.707031 485.773438 655.175781 "/>
<path fill-rule="nonzero" fill="rgb(70.196078%, 70.196078%, 70.196078%)" fill-opacity="1" stroke-width="1" stroke-linecap="butt" stroke-linejoin="miter" stroke="rgb(70.196078%, 70.196078%, 70.196078%)" stroke-opacity="1" stroke-miterlimit="10" d="M 512.765625 621.199219 C 512.765625 627.664062 503.0625 627.664062 503.0625 621.199219 C 503.0625 614.730469 512.765625 614.730469 512.765625 621.199219 "/>
<path fill-rule="nonzero" fill="rgb(70.196078%, 70.196078%, 70.196078%)" fill-opacity="1" stroke-width="1" stroke-linecap="butt" stroke-linejoin="miter" stroke="rgb(70.196078%, 70.196078%, 70.196078%)" stroke-opacity="1" stroke-miterlimit="10" d="M 539.738281 578.691406 C 539.738281 585.15625 530.039062 585.15625 530.039062 578.691406 C 530.039062 572.222656 539.738281 572.222656 539.738281 578.691406 "/>
<path fill-rule="nonzero" fill="rgb(70.196078%, 70.196078%, 70.196078%)" fill-opacity="1" stroke-width="1" stroke-linecap="butt" stroke-linejoin="miter" stroke="rgb(70.196078%, 70.196078%, 70.196078%)" stroke-opacity="1" stroke-miterlimit="10" d="M 727.832031 70.359375 C 727.832031 76.828125 718.132812 76.828125 718.132812 70.359375 C 718.132812 63.894531 727.832031 63.894531 727.832031 70.359375 "/>
<path fill-rule="nonzero" fill="rgb(70.196078%, 70.196078%, 70.196078%)" fill-opacity="1" stroke-width="1" stroke-linecap="butt" stroke-linejoin="miter" stroke="rgb(70.196078%, 70.196078%, 70.196078%)" stroke-opacity="1" stroke-miterlimit="10" d="M 647.382812 325.222656 C 647.382812 331.6875 637.683594 331.6875 637.683594 325.222656 C 637.683594 318.753906 647.382812 318.753906 647.382812 325.222656 "/>
<path fill-rule="nonzero" fill="rgb(70.196078%, 70.196078%, 70.196078%)" fill-opacity="1" stroke-width="1" stroke-linecap="butt" stroke-linejoin="miter" stroke="rgb(70.196078%, 70.196078%, 70.196078%)" stroke-opacity="1" stroke-miterlimit="10" d="M 674.242188 249.097656 C 674.242188 255.566406 664.542969 255.566406 664.542969 249.097656 C 664.542969 242.632812 674.242188 242.632812 674.242188 249.097656 "/>
<path fill-rule="nonzero" fill="rgb(70.196078%, 70.196078%, 70.196078%)" fill-opacity="1" stroke-width="1" stroke-linecap="butt" stroke-linejoin="miter" stroke="rgb(70.196078%, 70.196078%, 70.196078%)" stroke-opacity="1" stroke-miterlimit="10" d="M 700.933594 139.4375 C 700.933594 145.90625 691.234375 145.90625 691.234375 139.4375 C 691.234375 132.972656 700.933594 132.972656 700.933594 139.4375 "/>
<path fill-rule="nonzero" fill="rgb(100%, 84.313725%, 0%)" fill-opacity="1" stroke-width="1" stroke-linecap="butt" stroke-linejoin="miter" stroke="rgb(100%, 84.313725%, 0%)" stroke-opacity="1" stroke-miterlimit="10" d="M 744.648438 46.570312 L 755.347656 46.570312 L 755.347656 57.269531 L 744.648438 57.269531 Z M 744.648438 46.570312 "/>
</svg>
