<?xml version="1.0" encoding="UTF-8"?>
<svg xmlns="http://www.w3.org/2000/svg" xmlns:xlink="http://www.w3.org/1999/xlink" width="800" height="800" viewBox="0 0 800 800">
<rect x="-80" y="-80" width="960" height="960" fill="rgb(100%, 100%, 100%)" fill-opacity="1"/>
<path fill="none" stroke-width="4.5" stroke-linecap="butt" stroke-linejoin="miter" stroke="rgb(70.196078%, 70.196078%, 70.196078%)" stroke-opacity="1" stroke-miterlimit="10" d="M 451.101562 567.65625 C 476.082031 535.234375 485.882812 498.667969 477.019531 458.730469 "/>
<path fill-rule="nonzero" fill="rgb(70.196078%, 70.196078%, 70.196078%)" fill-opacity="1" d="M 475.472656 451.765625 L 479.28125 458.226562 L 474.757812 459.230469 L 475.472656 451.765625 "/>
<path fill="none" stroke-width="4.5" stroke-linecap="butt" stroke-linejoin="miter" stroke="rgb(70.196078%, 70.196078%, 70.196078%)" stroke-opacity="1" stroke-miterlimit="10" d="M 423.300781 667.164062 C 446.273438 642.285156 457.238281 612.839844 452.683594 579.304688 "/>
<path fill-rule="nonzero" fill="rgb(70.196078%, 70.196078%, 70.196078%)" fill-opacity="1" d="M 451.726562 572.238281 L 454.980469 578.992188 L 450.386719 579.617188 L 451.726562 572.238281 "/>
<path fill="none" stroke-width="5.5" stroke-linecap="butt" stroke-linejoin="miter" stroke="rgb(70.196078%, 70.196078%, 70.196078%)" stroke-opacity="1" stroke-miterlimit="10" d="M 155.355469 448.402344 C 164.832031 451.394531 174.546875 451.261719 182.359375 445.226562 "/>
<path fill-rule="nonzero" fill="rgb(70.196078%, 70.196078%, 70.196078%)" fill-opacity="1" d="M 188 440.863281 L 183.773438 447.058594 L 180.941406 443.390625 L 188 440.863281 "/>
<path fill="none" stroke-width="4.5" stroke-linecap="butt" stroke-linejoin="miter" stroke="rgb(70.196078%, 70.196078%, 70.196078%)" stroke-opacity="1" stroke-miterlimit="10" d="M 230.863281 425.75 C 218.253906 466.546875 222.046875 505.832031 245.210938 541.6875 "/>
<path fill-rule="nonzero" fill="rgb(70.196078%, 70.196078%, 70.196078%)" fill-opacity="1" d="M 249.082031 547.675781 L 243.265625 542.945312 L 247.160156 540.429688 L 249.082031 547.675781 "/>
<path fill="none" stroke-width="1.5" stroke-linecap="butt" stroke-linejoin="miter" stroke="rgb(12.156863%, 47.058824%, 70.588235%)" stroke-opacity="1" stroke-miterlimit="10" d="M 230.863281 425.75 C 255.566406 385.328125 262.0625 342.109375 247.121094 297.171875 "/>
<path fill-rule="nonzero" fill="rgb(12.156863%, 47.058824%, 70.588235%)" fill-opacity="1" d="M 244.871094 290.402344 L 249.320312 296.4375 L 244.921875 297.902344 L 244.871094 290.402344 "/>
<path fill="none" stroke-width="5.5" stroke-linecap="butt" stroke-linejoin="miter" stroke="rgb(70.196078%, 70.196078%, 70.196078%)" stroke-opacity="1" stroke-miterlimit="10" d="M 191.871094 437.875 C 202.4375 440.808594 213.058594 440.203125 221.523438 433.332031 "/>
<path fill-rule="nonzero" fill="rgb(70.196078%, 70.196078%, 70.196078%)" fill-opacity="1" d="M 227.058594 428.835938 L 222.984375 435.132812 L 220.0625 431.53125 L 227.058594 428.835938 "/>
<path fill="none" stroke-width="4.5" stroke-linecap="butt" stroke-linejoin="miter" stroke="rgb(70.196078%, 70.196078%, 70.196078%)" stroke-opacity="1" stroke-miterlimit="10" d="M 388.605469 730.523438 C 407.527344 718.324219 419.871094 701.21875 422.125 678.847656 "/>
<path fill-rule="nonzero" fill="rgb(70.196078%, 70.196078%, 70.196078%)" fill-opacity="1" d="M 422.839844 671.75 L 424.429688 679.082031 L 419.820312 678.617188 L 422.839844 671.75 "/>
<path fill="none" stroke-width="4.5" stroke-linecap="butt" stroke-linejoin="miter" stroke="rgb(70.196078%, 70.196078%, 70.196078%)" stroke-opacity="1" stroke-miterlimit="10" d="M 350.007812 750 C 361.792969 751.121094 372.890625 748.414062 380.664062 739.566406 "/>
<path fill-rule="nonzero" fill="rgb(70.196078%, 70.196078%, 70.196078%)" fill-opacity="1" d="M 385.371094 734.207031 L 382.40625 741.09375 L 378.921875 738.035156 L 385.371094 734.207031 "/>
<path fill="none" stroke-width="4.5" stroke-linecap="butt" stroke-linejoin="miter" stroke="rgb(70.196078%, 70.196078%, 70.196078%)" stroke-opacity="1" stroke-miterlimit="10" d="M 277.699219 656.222656 C 276.941406 680.214844 284.519531 701.339844 302.734375 716.925781 "/>
<path fill-rule="nonzero" fill="rgb(70.196078%, 70.196078%, 70.196078%)" fill-opacity="1" d="M 308.15625 721.566406 L 301.226562 718.6875 L 304.242188 715.167969 L 308.15625 721.566406 "/>
<path fill="none" stroke-width="4.5" stroke-linecap="butt" stroke-linejoin="miter" stroke="rgb(70.196078%, 70.196078%, 70.196078%)" stroke-opacity="1" stroke-miterlimit="10" d="M 251.59375 551.5625 C 243.621094 586.183594 249.003906 618.671875 270.5625 646.882812 "/>
<path fill-rule="nonzero" fill="rgb(70.196078%, 70.196078%, 70.196078%)" fill-opacity="1" d="M 274.894531 652.550781 L 268.722656 648.289062 L 272.40625 645.476562 L 274.894531 652.550781 "/>
<path fill="none" stroke-width="4.5" stroke-linecap="butt" stroke-linejoin="miter" stroke="rgb(70.196078%, 70.196078%, 70.196078%)" stroke-opacity="1" stroke-miterlimit="10" d="M 311.65625 724.5625 C 317.050781 736.226562 325.667969 745.054688 338.207031 747.605469 "/>
<path fill-rule="nonzero" fill="rgb(70.196078%, 70.196078%, 70.196078%)" fill-opacity="1" d="M 345.199219 749.023438 L 337.746094 749.875 L 338.671875 745.332031 L 345.199219 749.023438 "/>
<path fill="none" stroke-width="5.5" stroke-linecap="butt" stroke-linejoin="miter" stroke="rgb(70.196078%, 70.196078%, 70.196078%)" stroke-opacity="1" stroke-miterlimit="10" d="M 119.789062 457.207031 C 128.652344 460.457031 137.917969 460.796875 145.558594 455.367188 "/>
<path fill-rule="nonzero" fill="rgb(70.196078%, 70.196078%, 70.196078%)" fill-opacity="1" d="M 151.371094 451.234375 L 146.898438 457.257812 L 144.214844 453.480469 L 151.371094 451.234375 "/>
<path fill="none" stroke-width="5.5" stroke-linecap="butt" stroke-linejoin="miter" stroke="rgb(70.196078%, 70.196078%, 70.196078%)" stroke-opacity="1" stroke-miterlimit="10" d="M 84.726562 465.433594 C 93.328125 468.746094 102.382812 469.242188 109.902344 464.042969 "/>
<path fill-rule="nonzero" fill="rgb(70.196078%, 70.196078%, 70.196078%)" fill-opacity="1" d="M 115.769531 459.984375 L 111.222656 465.949219 L 108.585938 462.136719 L 115.769531 459.984375 "/>
<path fill="none" stroke-width="5.5" stroke-linecap="butt" stroke-linejoin="miter" stroke="rgb(70.196078%, 70.196078%, 70.196078%)" stroke-opacity="1" stroke-miterlimit="10" d="M 50 475.371094 C 58.789062 478.269531 67.894531 478.320312 75.183594 472.742188 "/>
<path fill-rule="nonzero" fill="rgb(70.196078%, 70.196078%, 70.196078%)" fill-opacity="1" d="M 80.847656 468.402344 L 76.59375 474.582031 L 73.773438 470.898438 L 80.847656 468.402344 "/>
<path fill="none" stroke-width="1.5" stroke-linecap="butt" stroke-linejoin="miter" stroke="rgb(12.156863%, 47.058824%, 70.588235%)" stroke-opacity="1" stroke-miterlimit="10" d="M 658.261719 566.195312 C 638.847656 609.601562 637.90625 653.464844 658.558594 696.28125 "/>
<path fill-rule="nonzero" fill="rgb(12.156863%, 47.058824%, 70.588235%)" fill-opacity="1" d="M 661.660156 702.703125 L 656.472656 697.289062 L 660.648438 695.273438 L 661.660156 702.703125 "/>
<path fill="none" stroke-width="4.5" stroke-linecap="butt" stroke-linejoin="miter" stroke="rgb(70.196078%, 70.196078%, 70.196078%)" stroke-opacity="1" stroke-miterlimit="10" d="M 658.261719 566.195312 C 675.136719 558.90625 687.589844 546.824219 692.183594 529.0625 "/>
<path fill-rule="nonzero" fill="rgb(70.196078%, 70.196078%, 70.196078%)" fill-opacity="1" d="M 693.972656 522.160156 L 694.429688 529.644531 L 689.941406 528.484375 L 693.972656 522.160156 "/>
<path fill="none" stroke-width="5.5" stroke-linecap="butt" stroke-linejoin="miter" stroke="rgb(70.196078%, 70.196078%, 70.196078%)" stroke-opacity="1" stroke-miterlimit="10" d="M 622.273438 522.144531 C 624.980469 538.730469 632.878906 552.546875 647.644531 560.488281 "/>
<path fill-rule="nonzero" fill="rgb(70.196078%, 70.196078%, 70.196078%)" fill-opacity="1" d="M 653.925781 563.863281 L 646.546875 562.527344 L 648.742188 558.445312 L 653.925781 563.863281 "/>
<path fill="none" stroke-width="5.5" stroke-linecap="butt" stroke-linejoin="miter" stroke="rgb(70.196078%, 70.196078%, 70.196078%)" stroke-opacity="1" stroke-miterlimit="10" d="M 586.386719 497.59375 C 591.140625 508.535156 598.929688 517 610.523438 519.554688 "/>
<path fill-rule="nonzero" fill="rgb(70.196078%, 70.196078%, 70.196078%)" fill-opacity="1" d="M 617.488281 521.089844 L 610.023438 521.816406 L 611.019531 517.289062 L 617.488281 521.089844 "/>
<path fill="none" stroke-width="5.5" stroke-linecap="butt" stroke-linejoin="miter" stroke="rgb(70.196078%, 70.196078%, 70.196078%)" stroke-opacity="1" stroke-miterlimit="10" d="M 550.289062 480.625 C 555.882812 489.65625 563.84375 496.238281 574.382812 496.875 "/>
<path fill-rule="nonzero" fill="rgb(70.196078%, 70.196078%, 70.196078%)" fill-opacity="1" d="M 581.5 497.300781 L 574.242188 499.1875 L 574.519531 494.558594 L 581.5 497.300781 "/>
<path fill="none" stroke-width="1.5" stroke-linecap="butt" stroke-linejoin="miter" stroke="rgb(12.156863%, 47.058824%, 70.588235%)" stroke-opacity="1" stroke-miterlimit="10" d="M 244.039062 287.90625 C 268.058594 255.773438 277.109375 219.800781 267.882812 180.777344 "/>
<path fill-rule="nonzero" fill="rgb(12.156863%, 47.058824%, 70.588235%)" fill-opacity="1" d="M 266.242188 173.835938 L 270.140625 180.242188 L 265.628906 181.308594 L 266.242188 173.835938 "/>
<path fill="none" stroke-width="5.5" stroke-linecap="butt" stroke-linejoin="miter" stroke="rgb(70.196078%, 70.196078%, 70.196078%)" stroke-opacity="1" stroke-miterlimit="10" d="M 513.476562 464.484375 C 519.378906 473.449219 527.601562 479.867188 538.265625 480.222656 "/>
<path fill-rule="nonzero" fill="rgb(70.196078%, 70.196078%, 70.196078%)" fill-opacity="1" d="M 545.394531 480.460938 L 538.1875 482.539062 L 538.34375 477.90625 L 545.394531 480.460938 "/>
<path fill="none" stroke-width="1.5" stroke-linecap="butt" stroke-linejoin="miter" stroke="rgb(12.156863%, 47.058824%, 70.588235%)" stroke-opacity="1" stroke-miterlimit="10" d="M 410.828125 100.375 C 406.574219 130.816406 413.597656 158.492188 434.394531 181.09375 "/>
<path fill-rule="nonzero" fill="rgb(12.156863%, 47.058824%, 70.588235%)" fill-opacity="1" d="M 439.222656 186.34375 L 432.6875 182.664062 L 436.101562 179.527344 L 439.222656 186.34375 "/>
<path fill="none" stroke-width="1.5" stroke-linecap="butt" stroke-linejoin="miter" stroke="rgb(12.156863%, 47.058824%, 70.588235%)" stroke-opacity="1" stroke-miterlimit="10" d="M 441.003906 188.277344 C 429.21875 227.777344 433.257812 265.65625 455.949219 300.046875 "/>
<path fill-rule="nonzero" fill="rgb(12.156863%, 47.058824%, 70.588235%)" fill-opacity="1" d="M 459.878906 306 L 454.015625 301.320312 L 457.882812 298.769531 L 459.878906 306 "/>
<path fill="none" stroke-width="5.5" stroke-linecap="butt" stroke-linejoin="miter" stroke="rgb(70.196078%, 70.196078%, 70.196078%)" stroke-opacity="1" stroke-miterlimit="10" d="M 474.367188 446.785156 C 480.820312 456.578125 489.796875 463.480469 501.453125 463.976562 "/>
<path fill-rule="nonzero" fill="rgb(70.196078%, 70.196078%, 70.196078%)" fill-opacity="1" d="M 508.578125 464.277344 L 501.355469 466.289062 L 501.550781 461.660156 L 508.578125 464.277344 "/>
<path fill="none" stroke-width="1.5" stroke-linecap="butt" stroke-linejoin="miter" stroke="rgb(12.156863%, 47.058824%, 70.588235%)" stroke-opacity="1" stroke-miterlimit="10" d="M 461.328125 308.195312 C 444.523438 351.890625 445.855469 395.089844 468.457031 436.070312 "/>
<path fill-rule="nonzero" fill="rgb(12.156863%, 47.058824%, 70.588235%)" fill-opacity="1" d="M 471.902344 442.316406 L 466.429688 437.191406 L 470.488281 434.949219 L 471.902344 442.316406 "/>
<path fill="none" stroke-width="1.5" stroke-linecap="butt" stroke-linejoin="miter" stroke="rgb(12.156863%, 47.058824%, 70.588235%)" stroke-opacity="1" stroke-miterlimit="10" d="M 374.042969 53.5 C 377.113281 71.804688 385.980469 86.875 402.257812 95.71875 "/>
<path fill-rule="nonzero" fill="rgb(12.156863%, 47.058824%, 70.588235%)" fill-opacity="1" d="M 408.523438 99.125 L 401.152344 97.753906 L 403.363281 93.683594 L 408.523438 99.125 "/>
<path fill="none" stroke-width="1.5" stroke-linecap="butt" stroke-linejoin="miter" stroke="rgb(12.156863%, 47.058824%, 70.588235%)" stroke-opacity="1" stroke-miterlimit="10" d="M 334.855469 50 C 343.785156 56.632812 354.039062 59.886719 364.582031 56.519531 "/>
<path fill-rule="nonzero" fill="rgb(12.156863%, 47.058824%, 70.588235%)" fill-opacity="1" d="M 371.378906 54.351562 L 365.289062 58.726562 L 363.878906 54.3125 L 371.378906 54.351562 "/>
<path fill="none" stroke-width="1.5" stroke-linecap="butt" stroke-linejoin="miter" stroke="rgb(12.156863%, 47.058824%, 70.588235%)" stroke-opacity="1" stroke-miterlimit="10" d="M 297.300781 89.785156 C 313.296875 84.707031 325.761719 74.886719 331.507812 59.160156 "/>
<path fill-rule="nonzero" fill="rgb(12.156863%, 47.058824%, 70.588235%)" fill-opacity="1" d="M 333.957031 52.460938 L 333.6875 59.957031 L 329.332031 58.363281 L 333.957031 52.460938 "/>
<path fill="none" stroke-width="1.5" stroke-linecap="butt" stroke-linejoin="miter" stroke="rgb(12.156863%, 47.058824%, 70.588235%)" stroke-opacity="1" stroke-miterlimit="10" d="M 265.636719 171.277344 C 287.089844 152.171875 298.914062 128.214844 297.710938 99.539062 "/>
<path fill-rule="nonzero" fill="rgb(12.156863%, 47.058824%, 70.588235%)" fill-opacity="1" d="M 297.410156 92.410156 L 300.023438 99.441406 L 295.394531 99.632812 L 297.410156 92.410156 "/>
<path fill="none" stroke-width="3.5" stroke-linecap="butt" stroke-linejoin="miter" stroke="rgb(70.196078%, 70.196078%, 70.196078%)" stroke-opacity="1" stroke-miterlimit="10" d="M 719.355469 412.519531 C 737.796875 398.546875 749.105469 380.054688 749.675781 356.957031 "/>
<path fill-rule="nonzero" fill="rgb(70.196078%, 70.196078%, 70.196078%)" fill-opacity="1" d="M 749.851562 349.824219 L 751.992188 357.011719 L 747.359375 356.898438 L 749.851562 349.824219 "/>
<path fill="none" stroke-width="1.5" stroke-linecap="butt" stroke-linejoin="miter" stroke="rgb(99.215686%, 74.901961%, 43.529412%)" stroke-opacity="1" stroke-miterlimit="10" d="M 695.207031 517.390625 C 688.921875 550.253906 695.101562 580.671875 716.417969 606.433594 "/>
<path fill-rule="nonzero" fill="rgb(99.215686%, 74.901961%, 43.529412%)" fill-opacity="1" d="M 720.964844 611.929688 L 714.632812 607.914062 L 718.203125 604.957031 L 720.964844 611.929688 "/>
<path fill="none" stroke-width="3.5" stroke-linecap="butt" stroke-linejoin="miter" stroke="rgb(70.196078%, 70.196078%, 70.196078%)" stroke-opacity="1" stroke-miterlimit="10" d="M 695.207031 517.390625 C 717.960938 490.230469 727.878906 458.914062 721.480469 424.082031 "/>
<path fill-rule="nonzero" fill="rgb(70.196078%, 70.196078%, 70.196078%)" fill-opacity="1" d="M 720.191406 417.066406 L 723.761719 423.664062 L 719.199219 424.5 L 720.191406 417.066406 "/>
<path fill-rule="nonzero" fill="rgb(70.196078%, 70.196078%, 70.196078%)" fill-opacity="1" stroke-width="1" stroke-linecap="butt" stroke-linejoin="miter" stroke="rgb(70.196078%, 70.196078%, 70.196078%)" stroke-opacity="1" stroke-miterlimit="10" d="M 455.953125 567.65625 C 455.953125 574.125 446.253906 574.125 446.253906 567.65625 C 446.253906 561.191406 455.953125 561.191406 455.953125 567.65625 "/>
<path fill-rule="nonzero" fill="rgb(70.196078%, 70.196078%, 70.196078%)" fill-opacity="1" stroke-width="1" stroke-linecap="butt" stroke-linejoin="miter" stroke="rgb(70.196078%, 70.196078%, 70.196078%)" stroke-opacity="1" stroke-miterlimit="10" d="M 428.152344 667.164062 C 428.152344 673.632812 418.453125 673.632812 418.453125 667.164062 C 418.453125 660.699219 428.152344 660.699219 428.152344 667.164062 "/>
<path fill-rule="nonzero" fill="rgb(70.196078%, 70.196078%, 70.196078%)" fill-opacity="1" stroke-width="1" stroke-linecap="butt" stroke-linejoin="miter" stroke="rgb(70.196078%, 70.196078%, 70.196078%)" stroke-opacity="1" stroke-miterlimit="10" d="M 160.203125 448.402344 C 160.203125 454.871094 150.503906 454.871094 150.503906 448.402344 C 150.503906 441.9375 160.203125 441.9375 160.203125 448.402344 "/>
<path fill-rule="nonzero" fill="rgb(70.196078%, 70.196078%, 70.196078%)" fill-opacity="1" stroke-width="1" stroke-linecap="butt" stroke-linejoin="miter" stroke="rgb(70.196078%, 70.196078%, 70.196078%)" stroke-opacity="1" stroke-miterlimit="10" d="M 235.710938 425.75 C 235.710938 432.214844 226.011719 432.214844 226.011719 425.75 C 226.011719 419.28125 235.710938 419.28125 235.710938 425.75 "/>
<path fill-rule="nonzero" fill="rgb(70.196078%, 70.196078%, 70.196078%)" fill-opacity="1" stroke-width="1" stroke-linecap="butt" stroke-linejoin="miter" stroke="rgb(70.196078%, 70.196078%, 70.196078%)" stroke-opacity="1" stroke-miterlimit="10" d="M 196.722656 437.875 C 196.722656 444.339844 187.019531 444.339844 187.019531 437.875 C 187.019531 431.40625 196.722656 431.40625 196.722656 437.875 "/>
<path fill-rule="nonzero" fill="rgb(70.196078%, 70.196078%, 70.196078%)" fill-opacity="1" stroke-width="1" stroke-linecap="butt" stroke-linejoin="miter" stroke="rgb(70.196078%, 70.196078%, 70.196078%)" stroke-opacity="1" stroke-miterlimit="10" d="M 393.453125 730.523438 C 393.453125 736.988281 383.753906 736.988281 383.753906 730.523438 C 383.753906 724.054688 393.453125 724.054688 393.453125 730.523438 "/>
<path fill-rule="nonzero" fill="rgb(70.196078%, 70.196078%, 70.196078%)" fill-opacity="1" stroke-width="1" stroke-linecap="butt" stroke-linejoin="miter" stroke="rgb(70.196078%, 70.196078%, 70.196078%)" stroke-opacity="1" stroke-miterlimit="10" d="M 354.855469 750 C 354.855469 756.464844 345.15625 756.464844 345.15625 750 C 345.15625 743.535156 354.855469 743.535156 354.855469 750 "/>
<path fill-rule="nonzero" fill="rgb(70.196078%, 70.196078%, 70.196078%)" fill-opacity="1" stroke-width="1" stroke-linecap="butt" stroke-linejoin="miter" stroke="rgb(70.196078%, 70.196078%, 70.196078%)" stroke-opacity="1" stroke-miterlimit="10" d="M 282.550781 656.222656 C 282.550781 662.691406 272.851562 662.691406 272.851562 656.222656 C 272.851562 649.757812 282.550781 649.757812 282.550781 656.222656 "/>
<path fill-rule="nonzero" fill="rgb(70.196078%, 70.196078%, 70.196078%)" fill-opacity="1" stroke-width="1" stroke-linecap="butt" stroke-linejoin="miter" stroke="rgb(70.196078%, 70.196078%, 70.196078%)" stroke-opacity="1" stroke-miterlimit="10" d="M 256.445312 551.5625 C 256.445312 558.03125 246.746094 558.03125 246.746094 551.5625 C 246.746094 545.097656 256.445312 545.097656 256.445312 551.5625 "/>
<path fill-rule="nonzero" fill="rgb(70.196078%, 70.196078%, 70.196078%)" fill-opacity="1" stroke-width="1" stroke-linecap="butt" stroke-linejoin="miter" stroke="rgb(70.196078%, 70.196078%, 70.196078%)" stroke-opacity="1" stroke-miterlimit="10" d="M 316.507812 724.5625 C 316.507812 731.03125 306.808594 731.03125 306.808594 724.5625 C 306.808594 718.097656 316.507812 718.097656 316.507812 724.5625 "/>
<path fill-rule="nonzero" fill="rgb(70.196078%, 70.196078%, 70.196078%)" fill-opacity="1" stroke-width="1" stroke-linecap="butt" stroke-linejoin="miter" stroke="rgb(70.196078%, 70.196078%, 70.196078%)" stroke-opacity="1" stroke-miterlimit="10" d="M 124.636719 457.207031 C 124.636719 463.671875 114.9375 463.671875 114.9375 457.207031 C 114.9375 450.738281 124.636719 450.738281 124.636719 457.207031 "/>
<path fill-rule="nonzero" fill="rgb(70.196078%, 70.196078%, 70.196078%)" fill-opacity="1" stroke-width="1" stroke-linecap="butt" stroke-linejoin="miter" stroke="rgb(70.196078%, 70.196078%, 70.196078%)" stroke-opacity="1" stroke-miterlimit="10" d="M 89.578125 465.433594 C 89.578125 471.898438 79.875 471.898438 79.875 465.433594 C 79.875 458.96875 89.578125 458.96875 89.578125 465.433594 "/>
<path fill-rule="nonzero" fill="rgb(100%, 84.313725%, 0%)" fill-opacity="1" stroke-width="1" stroke-linecap="butt" stroke-linejoin="miter" stroke="rgb(100%, 84.313725%, 0%)" stroke-opacity="1" stroke-miterlimit="10" d="M 44.648438 470.019531 L 55.347656 470.019531 L 55.347656 480.71875 L 44.648438 480.71875 Z M 44.648438 470.019531 "/>
<path fill-rule="nonzero" fill="rgb(14.901961%, 14.901961%, 14.901961%)" fill-opacity="1" stroke-width="1" stroke-linecap="butt" stroke-linejoin="miter" stroke="rgb(14.901961%, 14.901961%, 14.901961%)" stroke-opacity="1" stroke-miterlimit="10" d="M 659.46875 709.683594 L 663.21875 702.183594 L 666.96875 709.683594 Z M 659.46875 709.683594 "/>
<path fill-rule="nonzero" fill="rgb(70.196078%, 70.196078%, 70.196078%)" fill-opacity="1" stroke-width="1" stroke-linecap="butt" stroke-linejoin="miter" stroke="rgb(70.196078%, 70.196078%, 70.196078%)" stroke-opacity="1" stroke-miterlimit="10" d="M 663.109375 566.195312 C 663.109375 572.660156 653.410156 572.660156 653.410156 566.195312 C 653.410156 559.726562 663.109375 559.726562 663.109375 566.195312 "/>
<path fill-rule="nonzero" fill="rgb(70.196078%, 70.196078%, 70.196078%)" fill-opacity="1" stroke-width="1" stroke-linecap="butt" stroke-linejoin="miter" stroke="rgb(70.196078%, 70.196078%, 70.196078%)" stroke-opacity="1" stroke-miterlimit="10" d="M 627.125 522.144531 C 627.125 528.609375 617.425781 528.609375 617.425781 522.144531 C 617.425781 515.675781 627.125 515.675781 627.125 522.144531 "/>
<path fill-rule="nonzero" fill="rgb(70.196078%, 70.196078%, 70.196078%)" fill-opacity="1" stroke-width="1" stroke-linecap="butt" stroke-linejoin="miter" stroke="rgb(70.196078%, 70.196078%, 70.196078%)" stroke-opacity="1" stroke-miterlimit="10" d="M 591.238281 497.59375 C 591.238281 504.0625 581.539062 504.0625 581.539062 497.59375 C 581.539062 491.128906 591.238281 491.128906 591.238281 497.59375 "/>
<path fill-rule="nonzero" fill="rgb(70.196078%, 70.196078%, 70.196078%)" fill-opacity="1" stroke-width="1" stroke-linecap="butt" stroke-linejoin="miter" stroke="rgb(70.196078%, 70.196078%, 70.196078%)" stroke-opacity="1" stroke-miterlimit="10" d="M 555.136719 480.625 C 555.136719 487.09375 545.4375 487.09375 545.4375 480.625 C 545.4375 474.160156 555.136719 474.160156 555.136719 480.625 "/>
<path fill-rule="nonzero" fill="rgb(12.156863%, 47.058824%, 70.588235%)" fill-opacity="1" stroke-width="1" stroke-linecap="butt" stroke-linejoin="miter" stroke="rgb(12.156863%, 47.058824%, 70.588235%)" stroke-opacity="1" stroke-miterlimit="10" d="M 246.789062 287.90625 C 246.789062 291.570312 241.289062 291.570312 241.289062 287.90625 C 241.289062 284.238281 246.789062 284.238281 246.789062 287.90625 "/>
<path fill-rule="nonzero" fill="rgb(70.196078%, 70.196078%, 70.196078%)" fill-opacity="1" stroke-width="1" stroke-linecap="butt" stroke-linejoin="miter" stroke="rgb(70.196078%, 70.196078%, 70.196078%)" stroke-opacity="1" stroke-miterlimit="10" d="M 518.328125 464.484375 C 518.328125 470.953125 508.625 470.953125 508.625 464.484375 C 508.625 458.019531 518.328125 458.019531 518.328125 464.484375 "/>
<path fill-rule="nonzero" fill="rgb(12.156863%, 47.058824%, 70.588235%)" fill-opacity="1" stroke-width="1" stroke-linecap="butt" stroke-linejoin="miter" stroke="rgb(12.156863%, 47.058824%, 70.588235%)" stroke-opacity="1" stroke-miterlimit="10" d="M 413.578125 100.375 C 413.578125 104.042969 408.078125 104.042969 408.078125 100.375 C 408.078125 96.710938 413.578125 96.710938 413.578125 100.375 "/>
<path fill-rule="nonzero" fill="rgb(12.156863%, 47.058824%, 70.588235%)" fill-opacity="1" stroke-width="1" stroke-linecap="butt" stroke-linejoin="miter" stroke="rgb(12.156863%, 47.058824%, 70.588235%)" stroke-opacity="1" stroke-miterlimit="10" d="M 443.753906 188.277344 C 443.753906 191.945312 438.253906 191.945312 438.253906 188.277344 C 438.253906 184.609375 443.753906 184.609375 443.753906 188.277344 "/>
<path fill-rule="nonzero" fill="rgb(70.196078%, 70.196078%, 70.196078%)" fill-opacity="1" stroke-width="1" stroke-linecap="butt" stroke-linejoin="miter" stroke="rgb(70.196078%, 70.196078%, 70.196078%)" stroke-opacity="1" stroke-miterlimit="10" d="M 479.71875 446.785156 C 479.71875 453.917969 469.019531 453.917969 469.019531 446.785156 C 469.019531 439.652344 479.71875 439.652344 479.71875 446.785156 "/>
<path fill-rule="nonzero" fill="rgb(12.156863%, 47.058824%, 70.588235%)" fill-opacity="1" stroke-width="1" stroke-linecap="butt" stroke-linejoin="miter" stroke="rgb(12.156863%, 47.058824%, 70.588235%)" stroke-opacity="1" stroke-miterlimit="10" d="M 464.078125 308.195312 C 464.078125 311.859375 458.578125 311.859375 458.578125 308.195312 C 458.578125 304.527344 464.078125 304.527344 464.078125 308.195312 "/>
<path fill-rule="nonzero" fill="rgb(12.156863%, 47.058824%, 70.588235%)" fill-opacity="1" stroke-width="1" stroke-linecap="butt" stroke-linejoin="miter" stroke="rgb(12.156863%, 47.058824%, 70.588235%)" stroke-opacity="1" stroke-miterlimit="10" d="M 376.792969 53.5 C 376.792969 57.167969 371.292969 57.167969 371.292969 53.5 C 371.292969 49.835938 376.792969 49.835938 376.792969 53.5 "/>
<path fill-rule="nonzero" fill="rgb(12.156863%, 47.058824%, 70.588235%)" fill-opacity="1" stroke-width="1" stroke-linecap="butt" stroke-linejoin="miter" stroke="rgb(12.156863%, 47.058824%, 70.588235%)" stroke-opacity="1" stroke-miterlimit="10" d="M 337.605469 50 C 337.605469 53.667969 332.105469 53.667969 332.105469 50 C 332.105469 46.332031 337.605469 46.332031 337.605469 50 "/>
<path fill-rule="nonzero" fill="rgb(12.156863%, 47.058824%, 70.588235%)" fill-opacity="1" stroke-width="1" stroke-linecap="butt" stroke-linejoin="miter" stroke="rgb(12.156863%, 47.058824%, 70.588235%)" stroke-opacity="1" stroke-miterlimit="10" d="M 300.050781 89.785156 C 300.050781 93.453125 294.550781 93.453125 294.550781 89.785156 C 294.550781 86.121094 300.050781 86.121094 300.050781 89.785156 "/>
<path fill-rule="nonzero" fill="rgb(12.156863%, 47.058824%, 70.588235%)" fill-opacity="1" stroke-width="1" stroke-linecap="butt" stroke-linejoin="miter" stroke="rgb(12.156863%, 47.058824%, 70.588235%)" stroke-opacity="1" stroke-miterlimit="10" d="M 268.386719 171.277344 C 268.386719 174.941406 262.886719 174.941406 262.886719 171.277344 C 262.886719 167.609375 268.386719 167.609375 268.386719 171.277344 "/>
<path fill-rule="nonzero" fill="rgb(14.901961%, 14.901961%, 14.901961%)" fill-opacity="1" stroke-width="1" stroke-linecap="butt" stroke-linejoin="miter" stroke="rgb(14.901961%, 14.901961%, 14.901961%)" stroke-opacity="1" stroke-miterlimit="10" d="M 719.496094 618.4375 L 723.246094 610.9375 L 726.996094 618.4375 Z M 719.496094 618.4375 "/>
<path fill-rule="nonzero" fill="rgb(14.901961%, 14.901961%, 14.901961%)" fill-opacity="1" stroke-width="1" stroke-linecap="butt" stroke-linejoin="miter" stroke="rgb(14.901961%, 14.901961%, 14.901961%)" stroke-opacity="1" stroke-miterlimit="10" d="M 744.148438 349.734375 L 750 338.035156 L 755.851562 349.734375 Z M 744.148438 349.734375 "/>
<path fill-rule="nonzero" fill="rgb(70.196078%, 70.196078%, 70.196078%)" fill-opacity="1" stroke-width="1" stroke-linecap="butt" stroke-linejoin="miter" stroke="rgb(70.196078%, 70.196078%, 70.196078%)" stroke-opacity="1" stroke-miterlimit="10" d="M 724.207031 412.519531 C 724.207031 418.988281 714.507812 418.988281 714.507812 412.519531 C 714.507812 406.054688 724.207031 406.054688 724.207031 412.519531 "/>
<path fill-rule="nonzero" fill="rgb(70.196078%, 70.196078%, 70.196078%)" fill-opacity="1" stroke-width="1" stroke-linecap="butt" stroke-linejoin="miter" stroke="rgb(70.196078%, 70.196078%, 70.196078%)" stroke-opacity="1" stroke-miterlimit="10" d="M 700.054688 517.390625 C 700.054688 523.855469 690.355469 523.855469 690.355469 517.390625 C 690.355469 510.925781 700.054688 510.925781 700.054688 517.390625 "/>
</svg>
