<?xml version="1.0" encoding="UTF-8"?>
<svg xmlns="http://www.w3.org/2000/svg" xmlns:xlink="http://www.w3.org/1999/xlink" width="800" height="800" viewBox="0 0 800 800">
<rect x="-80" y="-80" width="960" height="960" fill="rgb(100%, 100%, 100%)" fill-opacity="1"/>
<path fill="none" stroke-width="4.5" stroke-linecap="butt" stroke-linejoin="miter" stroke="rgb(70.196078%, 70.196078%, 70.196078%)" stroke-opacity="1" stroke-miterlimit="10" d="M 147.480469 607.628906 C 151.328125 621.523438 159.300781 632.742188 172.6875 637.972656 "/>
<path fill-rule="nonzero" fill="rgb(70.196078%, 70.196078%, 70.196078%)" fill-opacity="1" d="M 179.332031 640.570312 L 171.84375 640.132812 L 173.53125 635.816406 L 179.332031 640.570312 "/>
<path fill="none" stroke-width="4.5" stroke-linecap="butt" stroke-linejoin="miter" stroke="rgb(70.196078%, 70.196078%, 70.196078%)" stroke-opacity="1" stroke-miterlimit="10" d="M 108.375 630.101562 C 120.886719 630.519531 132.367188 626.910156 140.054688 617.101562 "/>
<path fill-rule="nonzero" fill="rgb(70.196078%, 70.196078%, 70.196078%)" fill-opacity="1" d="M 144.453125 611.488281 L 141.878906 618.53125 L 138.230469 615.671875 L 144.453125 611.488281 "/>
<path fill="none" stroke-width="4.5" stroke-linecap="butt" stroke-linejoin="miter" stroke="rgb(70.196078%, 70.196078%, 70.196078%)" stroke-opacity="1" stroke-miterlimit="10" d="M 89.421875 692.351562 C 103.683594 678.628906 111.582031 661.761719 109.589844 642.105469 "/>
<path fill-rule="nonzero" fill="rgb(70.196078%, 70.196078%, 70.196078%)" fill-opacity="1" d="M 108.871094 635.007812 L 111.898438 641.871094 L 107.285156 642.335938 L 108.871094 635.007812 "/>
<path fill="none" stroke-width="1.5" stroke-linecap="butt" stroke-linejoin="miter" stroke="rgb(12.156863%, 47.058824%, 70.588235%)" stroke-opacity="1" stroke-miterlimit="10" d="M 89.421875 692.351562 C 94.824219 706.238281 104.203125 716.851562 118.488281 720.929688 "/>
<path fill-rule="nonzero" fill="rgb(12.156863%, 47.058824%, 70.588235%)" fill-opacity="1" d="M 125.347656 722.886719 L 117.851562 723.160156 L 119.125 718.699219 L 125.347656 722.886719 "/>
<path fill="none" stroke-width="4.5" stroke-linecap="butt" stroke-linejoin="miter" stroke="rgb(70.196078%, 70.196078%, 70.196078%)" stroke-opacity="1" stroke-miterlimit="10" d="M 50 669.289062 C 55.828125 680.414062 64.660156 688.652344 77.027344 690.5 "/>
<path fill-rule="nonzero" fill="rgb(70.196078%, 70.196078%, 70.196078%)" fill-opacity="1" d="M 84.078125 691.554688 L 76.683594 692.792969 L 77.367188 688.207031 L 84.078125 691.554688 "/>
<path fill="none" stroke-width="1.5" stroke-linecap="butt" stroke-linejoin="miter" stroke="rgb(12.156863%, 47.058824%, 70.588235%)" stroke-opacity="1" stroke-miterlimit="10" d="M 67.71875 750 C 81.851562 738.285156 90.40625 723.214844 89.824219 704.90625 "/>
<path fill-rule="nonzero" fill="rgb(12.156863%, 47.058824%, 70.588235%)" fill-opacity="1" d="M 89.597656 697.777344 L 92.140625 704.832031 L 87.507812 704.980469 L 89.597656 697.777344 "/>
<path fill="none" stroke-width="5.5" stroke-linecap="butt" stroke-linejoin="miter" stroke="rgb(70.196078%, 70.196078%, 70.196078%)" stroke-opacity="1" stroke-miterlimit="10" d="M 184.371094 642.539062 C 195.863281 643.859375 206.777344 641.445312 214.519531 632.933594 "/>
<path fill-rule="nonzero" fill="rgb(70.196078%, 70.196078%, 70.196078%)" fill-opacity="1" d="M 219.316406 627.65625 L 216.234375 634.492188 L 212.804688 631.371094 L 219.316406 627.65625 "/>
<path fill="none" stroke-width="1.5" stroke-linecap="butt" stroke-linejoin="miter" stroke="rgb(12.156863%, 47.058824%, 70.588235%)" stroke-opacity="1" stroke-miterlimit="10" d="M 720.59375 202.289062 C 727.132812 183.386719 726.511719 164.566406 715.6875 147.792969 "/>
<path fill-rule="nonzero" fill="rgb(12.156863%, 47.058824%, 70.588235%)" fill-opacity="1" d="M 711.820312 141.800781 L 717.632812 146.535156 L 713.738281 149.050781 L 711.820312 141.800781 "/>
<path fill="none" stroke-width="1.5" stroke-linecap="butt" stroke-linejoin="miter" stroke="rgb(12.156863%, 47.058824%, 70.588235%)" stroke-opacity="1" stroke-miterlimit="10" d="M 127.863281 723.605469 C 140.585938 725.050781 152.535156 722.261719 161.226562 712.925781 "/>
<path fill-rule="nonzero" fill="rgb(12.156863%, 47.058824%, 70.588235%)" fill-opacity="1" d="M 166.089844 707.707031 L 162.925781 714.503906 L 159.53125 711.347656 L 166.089844 707.707031 "/>
<path fill="none" stroke-width="1.5" stroke-linecap="butt" stroke-linejoin="miter" stroke="rgb(12.156863%, 47.058824%, 70.588235%)" stroke-opacity="1" stroke-miterlimit="10" d="M 167.871094 705.792969 C 181.570312 691.589844 188.828125 674.492188 186.105469 654.984375 "/>
<path fill-rule="nonzero" fill="rgb(12.156863%, 47.058824%, 70.588235%)" fill-opacity="1" d="M 185.121094 647.917969 L 188.402344 654.664062 L 183.8125 655.304688 L 185.121094 647.917969 "/>
<path fill="none" stroke-width="1.5" stroke-linecap="butt" stroke-linejoin="miter" stroke="rgb(12.156863%, 47.058824%, 70.588235%)" stroke-opacity="1" stroke-miterlimit="10" d="M 628.042969 91.488281 C 630.15625 103.222656 635.785156 113.28125 646.488281 118.386719 "/>
<path fill-rule="nonzero" fill="rgb(12.156863%, 47.058824%, 70.588235%)" fill-opacity="1" d="M 652.925781 121.457031 L 645.492188 120.476562 L 647.488281 116.292969 L 652.925781 121.457031 "/>
<path fill="none" stroke-width="1.5" stroke-linecap="butt" stroke-linejoin="miter" stroke="rgb(12.156863%, 47.058824%, 70.588235%)" stroke-opacity="1" stroke-miterlimit="10" d="M 505.328125 274.972656 C 507.859375 290.410156 515.183594 303.347656 528.96875 310.644531 "/>
<path fill-rule="nonzero" fill="rgb(12.156863%, 47.058824%, 70.588235%)" fill-opacity="1" d="M 535.273438 313.980469 L 527.886719 312.691406 L 530.054688 308.59375 L 535.273438 313.980469 "/>
<path fill="none" stroke-width="5.5" stroke-linecap="butt" stroke-linejoin="miter" stroke="rgb(70.196078%, 70.196078%, 70.196078%)" stroke-opacity="1" stroke-miterlimit="10" d="M 401.613281 524.703125 C 413.53125 523.070312 423.863281 517.800781 429.507812 507.242188 "/>
<path fill-rule="nonzero" fill="rgb(70.196078%, 70.196078%, 70.196078%)" fill-opacity="1" d="M 432.871094 500.953125 L 431.550781 508.335938 L 427.464844 506.152344 L 432.871094 500.953125 "/>
<path fill="none" stroke-width="1.5" stroke-linecap="butt" stroke-linejoin="miter" stroke="rgb(12.156863%, 47.058824%, 70.588235%)" stroke-opacity="1" stroke-miterlimit="10" d="M 540.0625 316.515625 C 536.957031 300.230469 528.789062 286.839844 514.03125 279.375 "/>
<path fill-rule="nonzero" fill="rgb(12.156863%, 47.058824%, 70.588235%)" fill-opacity="1" d="M 507.664062 276.15625 L 515.078125 277.308594 L 512.984375 281.441406 L 507.664062 276.15625 "/>
<path fill="none" stroke-width="5.5" stroke-linecap="butt" stroke-linejoin="miter" stroke="rgb(70.196078%, 70.196078%, 70.196078%)" stroke-opacity="1" stroke-miterlimit="10" d="M 540.0625 316.515625 C 553.195312 317.597656 565.414062 314.363281 574.042969 304.476562 "/>
<path fill-rule="nonzero" fill="rgb(70.196078%, 70.196078%, 70.196078%)" fill-opacity="1" d="M 578.734375 299.105469 L 575.789062 306 L 572.296875 302.953125 L 578.734375 299.105469 "/>
<path fill="none" stroke-width="5.5" stroke-linecap="butt" stroke-linejoin="miter" stroke="rgb(70.196078%, 70.196078%, 70.196078%)" stroke-opacity="1" stroke-miterlimit="10" d="M 521.253906 375.113281 C 534.777344 362.730469 542.570312 347.269531 541.082031 329.03125 "/>
<path fill-rule="nonzero" fill="rgb(70.196078%, 70.196078%, 70.196078%)" fill-opacity="1" d="M 540.503906 321.921875 L 543.394531 328.84375 L 538.773438 329.222656 L 540.503906 321.921875 "/>
<path fill="none" stroke-width="5.5" stroke-linecap="butt" stroke-linejoin="miter" stroke="rgb(70.196078%, 70.196078%, 70.196078%)" stroke-opacity="1" stroke-miterlimit="10" d="M 495.917969 422.851562 C 509.335938 414.5625 518.5625 402.761719 520.085938 387.109375 "/>
<path fill-rule="nonzero" fill="rgb(70.196078%, 70.196078%, 70.196078%)" fill-opacity="1" d="M 520.777344 380.011719 L 522.394531 387.332031 L 517.78125 386.882812 L 520.777344 380.011719 "/>
<path fill="none" stroke-width="5.5" stroke-linecap="butt" stroke-linejoin="miter" stroke="rgb(70.196078%, 70.196078%, 70.196078%)" stroke-opacity="1" stroke-miterlimit="10" d="M 466.199219 461.5 C 479.097656 456.464844 489.074219 447.765625 492.726562 434.464844 "/>
<path fill-rule="nonzero" fill="rgb(70.196078%, 70.196078%, 70.196078%)" fill-opacity="1" d="M 494.617188 427.585938 L 494.960938 435.078125 L 490.492188 433.847656 L 494.617188 427.585938 "/>
<path fill="none" stroke-width="5.5" stroke-linecap="butt" stroke-linejoin="miter" stroke="rgb(70.196078%, 70.196078%, 70.196078%)" stroke-opacity="1" stroke-miterlimit="10" d="M 435.183594 496.628906 C 447.757812 492.761719 457.878906 485.226562 462.214844 472.859375 "/>
<path fill-rule="nonzero" fill="rgb(70.196078%, 70.196078%, 70.196078%)" fill-opacity="1" d="M 464.574219 466.128906 L 464.402344 473.628906 L 460.027344 472.09375 L 464.574219 466.128906 "/>
<path fill="none" stroke-width="1.5" stroke-linecap="butt" stroke-linejoin="miter" stroke="rgb(12.156863%, 47.058824%, 70.588235%)" stroke-opacity="1" stroke-miterlimit="10" d="M 722.644531 66.246094 C 708.496094 82.65625 701.679688 101.824219 705.765625 123.066406 "/>
<path fill-rule="nonzero" fill="rgb(12.156863%, 47.058824%, 70.588235%)" fill-opacity="1" d="M 707.113281 130.070312 L 703.492188 123.503906 L 708.042969 122.628906 L 707.113281 130.070312 "/>
<path fill="none" stroke-width="5.5" stroke-linecap="butt" stroke-linejoin="miter" stroke="rgb(70.196078%, 70.196078%, 70.196078%)" stroke-opacity="1" stroke-miterlimit="10" d="M 332.019531 571.871094 C 343.253906 571.941406 353.570312 568.480469 360.121094 559.429688 "/>
<path fill-rule="nonzero" fill="rgb(70.196078%, 70.196078%, 70.196078%)" fill-opacity="1" d="M 364.304688 553.652344 L 362 560.789062 L 358.242188 558.070312 L 364.304688 553.652344 "/>
<path fill="none" stroke-width="5.5" stroke-linecap="butt" stroke-linejoin="miter" stroke="rgb(70.196078%, 70.196078%, 70.196078%)" stroke-opacity="1" stroke-miterlimit="10" d="M 367.175781 549.683594 C 378.738281 548.957031 389.078125 544.652344 395.210938 534.894531 "/>
<path fill-rule="nonzero" fill="rgb(70.196078%, 70.196078%, 70.196078%)" fill-opacity="1" d="M 399.003906 528.855469 L 397.171875 536.125 L 393.246094 533.660156 L 399.003906 528.855469 "/>
<path fill="none" stroke-width="1.5" stroke-linecap="butt" stroke-linejoin="miter" stroke="rgb(12.156863%, 47.058824%, 70.588235%)" stroke-opacity="1" stroke-miterlimit="10" d="M 571.769531 240.710938 C 579.132812 244.679688 587.300781 246.257812 594.601562 242.34375 "/>
<path fill-rule="nonzero" fill="rgb(12.156863%, 47.058824%, 70.588235%)" fill-opacity="1" d="M 600.886719 238.972656 L 595.695312 244.386719 L 593.507812 240.300781 L 600.886719 238.972656 "/>
<path fill="none" stroke-width="1.5" stroke-linecap="butt" stroke-linejoin="miter" stroke="rgb(12.156863%, 47.058824%, 70.588235%)" stroke-opacity="1" stroke-miterlimit="10" d="M 741.960938 182.3125 C 740.402344 166.070312 733.664062 152.125 719.84375 143.542969 "/>
<path fill-rule="nonzero" fill="rgb(12.156863%, 47.058824%, 70.588235%)" fill-opacity="1" d="M 713.78125 139.78125 L 721.066406 141.574219 L 718.621094 145.511719 L 713.78125 139.78125 "/>
<path fill="none" stroke-width="1.5" stroke-linecap="butt" stroke-linejoin="miter" stroke="rgb(12.156863%, 47.058824%, 70.588235%)" stroke-opacity="1" stroke-miterlimit="10" d="M 607.914062 349.941406 C 609.417969 332.011719 604.765625 315.664062 591.542969 303.523438 "/>
<path fill-rule="nonzero" fill="rgb(12.156863%, 47.058824%, 70.588235%)" fill-opacity="1" d="M 586.289062 298.699219 L 593.109375 301.816406 L 589.972656 305.230469 L 586.289062 298.699219 "/>
<path fill="none" stroke-width="1.5" stroke-linecap="butt" stroke-linejoin="miter" stroke="rgb(12.156863%, 47.058824%, 70.588235%)" stroke-opacity="1" stroke-miterlimit="10" d="M 708.328125 136.394531 C 701.929688 156.683594 703.257812 176.585938 715.136719 194.199219 "/>
<path fill-rule="nonzero" fill="rgb(12.156863%, 47.058824%, 70.588235%)" fill-opacity="1" d="M 719.125 200.113281 L 713.21875 195.496094 L 717.058594 192.902344 L 719.125 200.113281 "/>
<path fill="none" stroke-width="1.5" stroke-linecap="butt" stroke-linejoin="miter" stroke="rgb(12.156863%, 47.058824%, 70.588235%)" stroke-opacity="1" stroke-miterlimit="10" d="M 708.328125 136.394531 C 710.589844 153.835938 718.425781 168.46875 733.554688 177.367188 "/>
<path fill-rule="nonzero" fill="rgb(12.156863%, 47.058824%, 70.588235%)" fill-opacity="1" d="M 739.703125 180.984375 L 732.378906 179.363281 L 734.726562 175.367188 L 739.703125 180.984375 "/>
<path fill="none" stroke-width="5.5" stroke-linecap="butt" stroke-linejoin="miter" stroke="rgb(70.196078%, 70.196078%, 70.196078%)" stroke-opacity="1" stroke-miterlimit="10" d="M 708.328125 136.394531 C 717.089844 142.996094 727.203125 146.335938 737.59375 143.027344 "/>
<path fill-rule="nonzero" fill="rgb(70.196078%, 70.196078%, 70.196078%)" fill-opacity="1" d="M 744.390625 140.859375 L 738.296875 145.234375 L 736.890625 140.816406 L 744.390625 140.859375 "/>
<path fill="none" stroke-width="1.5" stroke-linecap="butt" stroke-linejoin="miter" stroke="rgb(12.156863%, 47.058824%, 70.588235%)" stroke-opacity="1" stroke-miterlimit="10" d="M 708.328125 136.394531 C 723.558594 130.042969 734.941406 119.355469 739.195312 103.453125 "/>
<path fill-rule="nonzero" fill="rgb(12.156863%, 47.058824%, 70.588235%)" fill-opacity="1" d="M 741.039062 96.5625 L 741.433594 104.054688 L 736.957031 102.855469 L 741.039062 96.5625 "/>
<path fill="none" stroke-width="1.5" stroke-linecap="butt" stroke-linejoin="miter" stroke="rgb(12.156863%, 47.058824%, 70.588235%)" stroke-opacity="1" stroke-miterlimit="10" d="M 659.585938 124.632812 C 656.449219 111.484375 649.367188 100.683594 636.996094 95.347656 "/>
<path fill-rule="nonzero" fill="rgb(12.156863%, 47.058824%, 70.588235%)" fill-opacity="1" d="M 630.445312 92.523438 L 637.914062 93.222656 L 636.078125 97.476562 L 630.445312 92.523438 "/>
<path fill="none" stroke-width="5.5" stroke-linecap="butt" stroke-linejoin="miter" stroke="rgb(70.196078%, 70.196078%, 70.196078%)" stroke-opacity="1" stroke-miterlimit="10" d="M 659.585938 124.632812 C 669.316406 134.488281 681.265625 140.230469 694.925781 138.292969 "/>
<path fill-rule="nonzero" fill="rgb(70.196078%, 70.196078%, 70.196078%)" fill-opacity="1" d="M 701.988281 137.292969 L 695.25 140.589844 L 694.601562 136 L 701.988281 137.292969 "/>
<path fill="none" stroke-width="1.5" stroke-linecap="butt" stroke-linejoin="miter" stroke="rgb(12.156863%, 47.058824%, 70.588235%)" stroke-opacity="1" stroke-miterlimit="10" d="M 659.585938 124.632812 C 670.933594 114.96875 677.882812 102.621094 677.046875 87.78125 "/>
<path fill-rule="nonzero" fill="rgb(12.156863%, 47.058824%, 70.588235%)" fill-opacity="1" d="M 676.644531 80.660156 L 679.359375 87.648438 L 674.730469 87.910156 L 676.644531 80.660156 "/>
<path fill="none" stroke-width="1.5" stroke-linecap="butt" stroke-linejoin="miter" stroke="rgb(12.156863%, 47.058824%, 70.588235%)" stroke-opacity="1" stroke-miterlimit="10" d="M 659.585938 124.632812 C 670.496094 103.195312 672.578125 80.820312 662.738281 58.902344 "/>
<path fill-rule="nonzero" fill="rgb(12.156863%, 47.058824%, 70.588235%)" fill-opacity="1" d="M 659.816406 52.394531 L 664.851562 57.953125 L 660.625 59.851562 L 659.816406 52.394531 "/>
<path fill="none" stroke-width="1.5" stroke-linecap="butt" stroke-linejoin="miter" stroke="rgb(12.156863%, 47.058824%, 70.588235%)" stroke-opacity="1" stroke-miterlimit="10" d="M 659.585938 124.632812 C 662.800781 101.761719 657.738281 80.765625 641.929688 63.972656 "/>
<path fill-rule="nonzero" fill="rgb(12.156863%, 47.058824%, 70.588235%)" fill-opacity="1" d="M 637.042969 58.777344 L 643.617188 62.382812 L 640.242188 65.558594 L 637.042969 58.777344 "/>
<path fill="none" stroke-width="1.5" stroke-linecap="butt" stroke-linejoin="miter" stroke="rgb(12.156863%, 47.058824%, 70.588235%)" stroke-opacity="1" stroke-miterlimit="10" d="M 676.496094 78.046875 C 665.945312 86.152344 658.992188 96.867188 659.273438 110.113281 "/>
<path fill-rule="nonzero" fill="rgb(12.156863%, 47.058824%, 70.588235%)" fill-opacity="1" d="M 659.425781 117.242188 L 656.957031 110.160156 L 661.589844 110.0625 L 659.425781 117.242188 "/>
<path fill="none" stroke-width="1.5" stroke-linecap="butt" stroke-linejoin="miter" stroke="rgb(12.156863%, 47.058824%, 70.588235%)" stroke-opacity="1" stroke-miterlimit="10" d="M 658.742188 50 C 647.953125 69.675781 645.214844 90.554688 653.921875 111.199219 "/>
<path fill-rule="nonzero" fill="rgb(12.156863%, 47.058824%, 70.588235%)" fill-opacity="1" d="M 656.691406 117.773438 L 651.785156 112.101562 L 656.054688 110.300781 L 656.691406 117.773438 "/>
<path fill="none" stroke-width="1.5" stroke-linecap="butt" stroke-linejoin="miter" stroke="rgb(12.156863%, 47.058824%, 70.588235%)" stroke-opacity="1" stroke-miterlimit="10" d="M 741.714844 94.035156 C 741.492188 84.960938 738.527344 76.550781 730.972656 71.648438 "/>
<path fill-rule="nonzero" fill="rgb(12.156863%, 47.058824%, 70.588235%)" fill-opacity="1" d="M 724.988281 67.765625 L 732.234375 69.703125 L 729.710938 73.59375 L 724.988281 67.765625 "/>
<path fill="none" stroke-width="4.5" stroke-linecap="butt" stroke-linejoin="miter" stroke="rgb(70.196078%, 70.196078%, 70.196078%)" stroke-opacity="1" stroke-miterlimit="10" d="M 623.390625 172.136719 C 639.175781 165.8125 651.113281 154.980469 655.671875 138.644531 "/>
<path fill-rule="nonzero" fill="rgb(70.196078%, 70.196078%, 70.196078%)" fill-opacity="1" d="M 657.589844 131.773438 L 657.90625 139.269531 L 653.441406 138.023438 L 657.589844 131.773438 "/>
<path fill="none" stroke-width="1.5" stroke-linecap="butt" stroke-linejoin="miter" stroke="rgb(12.156863%, 47.058824%, 70.588235%)" stroke-opacity="1" stroke-miterlimit="10" d="M 623.390625 172.136719 C 620.03125 155.574219 611.539062 142.046875 596.417969 134.59375 "/>
<path fill-rule="nonzero" fill="rgb(12.156863%, 47.058824%, 70.588235%)" fill-opacity="1" d="M 590.019531 131.4375 L 597.441406 132.511719 L 595.394531 136.671875 L 590.019531 131.4375 "/>
<path fill="none" stroke-width="1.5" stroke-linecap="butt" stroke-linejoin="miter" stroke="rgb(12.156863%, 47.058824%, 70.588235%)" stroke-opacity="1" stroke-miterlimit="10" d="M 623.390625 172.136719 C 629.050781 178.59375 636.3125 182.972656 644.757812 181.898438 "/>
<path fill-rule="nonzero" fill="rgb(12.156863%, 47.058824%, 70.588235%)" fill-opacity="1" d="M 651.832031 181 L 645.050781 184.199219 L 644.464844 179.601562 L 651.832031 181 "/>
<path fill="none" stroke-width="1.5" stroke-linecap="butt" stroke-linejoin="miter" stroke="rgb(12.156863%, 47.058824%, 70.588235%)" stroke-opacity="1" stroke-miterlimit="10" d="M 587.667969 130.28125 C 590.441406 146 598.089844 159.089844 612.234375 166.382812 "/>
<path fill-rule="nonzero" fill="rgb(12.156863%, 47.058824%, 70.588235%)" fill-opacity="1" d="M 618.574219 169.652344 L 611.175781 168.441406 L 613.296875 164.324219 L 618.574219 169.652344 "/>
<path fill="none" stroke-width="1.5" stroke-linecap="butt" stroke-linejoin="miter" stroke="rgb(12.156863%, 47.058824%, 70.588235%)" stroke-opacity="1" stroke-miterlimit="10" d="M 654.601562 180.648438 C 663.949219 167.992188 668.152344 153.621094 663.707031 138.578125 "/>
<path fill-rule="nonzero" fill="rgb(12.156863%, 47.058824%, 70.588235%)" fill-opacity="1" d="M 661.683594 131.734375 L 665.929688 137.917969 L 661.484375 139.234375 L 661.683594 131.734375 "/>
<path fill="none" stroke-width="5.5" stroke-linecap="butt" stroke-linejoin="miter" stroke="rgb(70.196078%, 70.196078%, 70.196078%)" stroke-opacity="1" stroke-miterlimit="10" d="M 605.625 236.4375 C 619.84375 222.058594 627.46875 204.632812 624.957031 184.601562 "/>
<path fill-rule="nonzero" fill="rgb(70.196078%, 70.196078%, 70.196078%)" fill-opacity="1" d="M 624.066406 177.527344 L 627.253906 184.316406 L 622.65625 184.890625 L 624.066406 177.527344 "/>
<path fill="none" stroke-width="1.5" stroke-linecap="butt" stroke-linejoin="miter" stroke="rgb(12.156863%, 47.058824%, 70.588235%)" stroke-opacity="1" stroke-miterlimit="10" d="M 582.289062 295.03125 C 587.550781 278.855469 586.808594 262.800781 577.257812 248.769531 "/>
<path fill-rule="nonzero" fill="rgb(12.156863%, 47.058824%, 70.588235%)" fill-opacity="1" d="M 573.242188 242.875 L 579.171875 247.46875 L 575.339844 250.074219 L 573.242188 242.875 "/>
<path fill="none" stroke-width="1.5" stroke-linecap="butt" stroke-linejoin="miter" stroke="rgb(12.156863%, 47.058824%, 70.588235%)" stroke-opacity="1" stroke-miterlimit="10" d="M 582.289062 295.03125 C 581.136719 313.925781 586.496094 330.914062 600.621094 343.460938 "/>
<path fill-rule="nonzero" fill="rgb(12.156863%, 47.058824%, 70.588235%)" fill-opacity="1" d="M 605.957031 348.199219 L 599.082031 345.195312 L 602.160156 341.730469 L 605.957031 348.199219 "/>
<path fill="none" stroke-width="4.5" stroke-linecap="butt" stroke-linejoin="miter" stroke="rgb(70.196078%, 70.196078%, 70.196078%)" stroke-opacity="1" stroke-miterlimit="10" d="M 582.289062 295.03125 C 597.03125 283.210938 606.054688 267.851562 605.796875 248.996094 "/>
<path fill-rule="nonzero" fill="rgb(70.196078%, 70.196078%, 70.196078%)" fill-opacity="1" d="M 605.699219 241.863281 L 608.113281 248.964844 L 603.476562 249.027344 L 605.699219 241.863281 "/>
<path fill="none" stroke-width="5.5" stroke-linecap="butt" stroke-linejoin="miter" stroke="rgb(70.196078%, 70.196078%, 70.196078%)" stroke-opacity="1" stroke-miterlimit="10" d="M 296.152344 591.144531 C 307.039062 592.015625 317.320312 589.417969 324.292969 581.09375 "/>
<path fill-rule="nonzero" fill="rgb(70.196078%, 70.196078%, 70.196078%)" fill-opacity="1" d="M 328.875 575.625 L 326.070312 582.582031 L 322.515625 579.605469 L 328.875 575.625 "/>
<path fill="none" stroke-width="1.5" stroke-linecap="butt" stroke-linejoin="miter" stroke="rgb(12.156863%, 47.058824%, 70.588235%)" stroke-opacity="1" stroke-miterlimit="10" d="M 635.242188 56.867188 C 631.574219 78.03125 635.53125 97.824219 649.851562 113.785156 "/>
<path fill-rule="nonzero" fill="rgb(12.156863%, 47.058824%, 70.588235%)" fill-opacity="1" d="M 654.617188 119.09375 L 648.128906 115.332031 L 651.578125 112.238281 L 654.617188 119.09375 "/>
<path fill="none" stroke-width="5.5" stroke-linecap="butt" stroke-linejoin="miter" stroke="rgb(70.196078%, 70.196078%, 70.196078%)" stroke-opacity="1" stroke-miterlimit="10" d="M 259.65625 607.90625 C 270.265625 609.457031 280.515625 607.578125 287.859375 599.859375 "/>
<path fill-rule="nonzero" fill="rgb(70.196078%, 70.196078%, 70.196078%)" fill-opacity="1" d="M 292.777344 594.691406 L 289.539062 601.457031 L 286.183594 598.261719 L 292.777344 594.691406 "/>
<path fill="none" stroke-width="5.5" stroke-linecap="butt" stroke-linejoin="miter" stroke="rgb(70.196078%, 70.196078%, 70.196078%)" stroke-opacity="1" stroke-miterlimit="10" d="M 222.613281 624.027344 C 233.277344 625.792969 243.636719 624.089844 251.195312 616.457031 "/>
<path fill-rule="nonzero" fill="rgb(70.196078%, 70.196078%, 70.196078%)" fill-opacity="1" d="M 256.210938 611.386719 L 252.839844 618.085938 L 249.546875 614.824219 L 256.210938 611.386719 "/>
<path fill-rule="nonzero" fill="rgb(70.196078%, 70.196078%, 70.196078%)" fill-opacity="1" stroke-width="1" stroke-linecap="butt" stroke-linejoin="miter" stroke="rgb(70.196078%, 70.196078%, 70.196078%)" stroke-opacity="1" stroke-miterlimit="10" d="M 152.328125 607.628906 C 152.328125 614.09375 142.628906 614.09375 142.628906 607.628906 C 142.628906 601.160156 152.328125 601.160156 152.328125 607.628906 "/>
<path fill-rule="nonzero" fill="rgb(70.196078%, 70.196078%, 70.196078%)" fill-opacity="1" stroke-width="1" stroke-linecap="butt" stroke-linejoin="miter" stroke="rgb(70.196078%, 70.196078%, 70.196078%)" stroke-opacity="1" stroke-miterlimit="10" d="M 113.226562 630.101562 C 113.226562 636.570312 103.527344 636.570312 103.527344 630.101562 C 103.527344 623.636719 113.226562 623.636719 113.226562 630.101562 "/>
<path fill-rule="nonzero" fill="rgb(70.196078%, 70.196078%, 70.196078%)" fill-opacity="1" stroke-width="1" stroke-linecap="butt" stroke-linejoin="miter" stroke="rgb(70.196078%, 70.196078%, 70.196078%)" stroke-opacity="1" stroke-miterlimit="10" d="M 94.773438 692.351562 C 94.773438 699.488281 84.074219 699.488281 84.074219 692.351562 C 84.074219 685.21875 94.773438 685.21875 94.773438 692.351562 "/>
<path fill-rule="nonzero" fill="rgb(100%, 84.313725%, 0%)" fill-opacity="1" stroke-width="1" stroke-linecap="butt" stroke-linejoin="miter" stroke="rgb(100%, 84.313725%, 0%)" stroke-opacity="1" stroke-miterlimit="10" d="M 44.648438 663.941406 L 55.347656 663.941406 L 55.347656 674.640625 L 44.648438 674.640625 Z M 44.648438 663.941406 "/>
<path fill-rule="nonzero" fill="rgb(100%, 84.313725%, 0%)" fill-opacity="1" stroke-width="1" stroke-linecap="butt" stroke-linejoin="miter" stroke="rgb(100%, 84.313725%, 0%)" stroke-opacity="1" stroke-miterlimit="10" d="M 64.46875 746.75 L 70.96875 746.75 L 70.96875 753.25 L 64.46875 753.25 Z M 64.46875 746.75 "/>
<path fill-rule="nonzero" fill="rgb(70.196078%, 70.196078%, 70.196078%)" fill-opacity="1" stroke-width="1" stroke-linecap="butt" stroke-linejoin="miter" stroke="rgb(70.196078%, 70.196078%, 70.196078%)" stroke-opacity="1" stroke-miterlimit="10" d="M 189.722656 642.539062 C 189.722656 649.671875 179.023438 649.671875 179.023438 642.539062 C 179.023438 635.40625 189.722656 635.40625 189.722656 642.539062 "/>
<path fill-rule="nonzero" fill="rgb(12.156863%, 47.058824%, 70.588235%)" fill-opacity="1" stroke-width="1" stroke-linecap="butt" stroke-linejoin="miter" stroke="rgb(12.156863%, 47.058824%, 70.588235%)" stroke-opacity="1" stroke-miterlimit="10" d="M 723.34375 202.289062 C 723.34375 205.953125 717.84375 205.953125 717.84375 202.289062 C 717.84375 198.621094 723.34375 198.621094 723.34375 202.289062 "/>
<path fill-rule="nonzero" fill="rgb(12.156863%, 47.058824%, 70.588235%)" fill-opacity="1" stroke-width="1" stroke-linecap="butt" stroke-linejoin="miter" stroke="rgb(12.156863%, 47.058824%, 70.588235%)" stroke-opacity="1" stroke-miterlimit="10" d="M 130.613281 723.605469 C 130.613281 727.273438 125.113281 727.273438 125.113281 723.605469 C 125.113281 719.941406 130.613281 719.941406 130.613281 723.605469 "/>
<path fill-rule="nonzero" fill="rgb(12.156863%, 47.058824%, 70.588235%)" fill-opacity="1" stroke-width="1" stroke-linecap="butt" stroke-linejoin="miter" stroke="rgb(12.156863%, 47.058824%, 70.588235%)" stroke-opacity="1" stroke-miterlimit="10" d="M 170.621094 705.792969 C 170.621094 709.460938 165.121094 709.460938 165.121094 705.792969 C 165.121094 702.125 170.621094 702.125 170.621094 705.792969 "/>
<path fill-rule="nonzero" fill="rgb(12.156863%, 47.058824%, 70.588235%)" fill-opacity="1" stroke-width="1" stroke-linecap="butt" stroke-linejoin="miter" stroke="rgb(12.156863%, 47.058824%, 70.588235%)" stroke-opacity="1" stroke-miterlimit="10" d="M 630.792969 91.488281 C 630.792969 95.15625 625.292969 95.15625 625.292969 91.488281 C 625.292969 87.824219 630.792969 87.824219 630.792969 91.488281 "/>
<path fill-rule="nonzero" fill="rgb(12.156863%, 47.058824%, 70.588235%)" fill-opacity="1" stroke-width="1" stroke-linecap="butt" stroke-linejoin="miter" stroke="rgb(12.156863%, 47.058824%, 70.588235%)" stroke-opacity="1" stroke-miterlimit="10" d="M 508.078125 274.972656 C 508.078125 278.640625 502.578125 278.640625 502.578125 274.972656 C 502.578125 271.308594 508.078125 271.308594 508.078125 274.972656 "/>
<path fill-rule="nonzero" fill="rgb(70.196078%, 70.196078%, 70.196078%)" fill-opacity="1" stroke-width="1" stroke-linecap="butt" stroke-linejoin="miter" stroke="rgb(70.196078%, 70.196078%, 70.196078%)" stroke-opacity="1" stroke-miterlimit="10" d="M 406.464844 524.703125 C 406.464844 531.171875 396.761719 531.171875 396.761719 524.703125 C 396.761719 518.238281 406.464844 518.238281 406.464844 524.703125 "/>
<path fill-rule="nonzero" fill="rgb(70.196078%, 70.196078%, 70.196078%)" fill-opacity="1" stroke-width="1" stroke-linecap="butt" stroke-linejoin="miter" stroke="rgb(70.196078%, 70.196078%, 70.196078%)" stroke-opacity="1" stroke-miterlimit="10" d="M 545.414062 316.515625 C 545.414062 323.648438 534.710938 323.648438 534.710938 316.515625 C 534.710938 309.382812 545.414062 309.382812 545.414062 316.515625 "/>
<path fill-rule="nonzero" fill="rgb(70.196078%, 70.196078%, 70.196078%)" fill-opacity="1" stroke-width="1" stroke-linecap="butt" stroke-linejoin="miter" stroke="rgb(70.196078%, 70.196078%, 70.196078%)" stroke-opacity="1" stroke-miterlimit="10" d="M 526.105469 375.113281 C 526.105469 381.582031 516.40625 381.582031 516.40625 375.113281 C 516.40625 368.648438 526.105469 368.648438 526.105469 375.113281 "/>
<path fill-rule="nonzero" fill="rgb(70.196078%, 70.196078%, 70.196078%)" fill-opacity="1" stroke-width="1" stroke-linecap="butt" stroke-linejoin="miter" stroke="rgb(70.196078%, 70.196078%, 70.196078%)" stroke-opacity="1" stroke-miterlimit="10" d="M 500.765625 422.851562 C 500.765625 429.316406 491.066406 429.316406 491.066406 422.851562 C 491.066406 416.382812 500.765625 416.382812 500.765625 422.851562 "/>
<path fill-rule="nonzero" fill="rgb(70.196078%, 70.196078%, 70.196078%)" fill-opacity="1" stroke-width="1" stroke-linecap="butt" stroke-linejoin="miter" stroke="rgb(70.196078%, 70.196078%, 70.196078%)" stroke-opacity="1" stroke-miterlimit="10" d="M 471.050781 461.5 C 471.050781 467.964844 461.351562 467.964844 461.351562 461.5 C 461.351562 455.03125 471.050781 455.03125 471.050781 461.5 "/>
<path fill-rule="nonzero" fill="rgb(70.196078%, 70.196078%, 70.196078%)" fill-opacity="1" stroke-width="1" stroke-linecap="butt" stroke-linejoin="miter" stroke="rgb(70.196078%, 70.196078%, 70.196078%)" stroke-opacity="1" stroke-miterlimit="10" d="M 440.03125 496.628906 C 440.03125 503.097656 430.332031 503.097656 430.332031 496.628906 C 430.332031 490.164062 440.03125 490.164062 440.03125 496.628906 "/>
<path fill-rule="nonzero" fill="rgb(12.156863%, 47.058824%, 70.588235%)" fill-opacity="1" stroke-width="1" stroke-linecap="butt" stroke-linejoin="miter" stroke="rgb(12.156863%, 47.058824%, 70.588235%)" stroke-opacity="1" stroke-miterlimit="10" d="M 725.394531 66.246094 C 725.394531 69.914062 719.894531 69.914062 719.894531 66.246094 C 719.894531 62.582031 725.394531 62.582031 725.394531 66.246094 "/>
<path fill-rule="nonzero" fill="rgb(70.196078%, 70.196078%, 70.196078%)" fill-opacity="1" stroke-width="1" stroke-linecap="butt" stroke-linejoin="miter" stroke="rgb(70.196078%, 70.196078%, 70.196078%)" stroke-opacity="1" stroke-miterlimit="10" d="M 336.867188 571.871094 C 336.867188 578.339844 327.167969 578.339844 327.167969 571.871094 C 327.167969 565.40625 336.867188 565.40625 336.867188 571.871094 "/>
<path fill-rule="nonzero" fill="rgb(70.196078%, 70.196078%, 70.196078%)" fill-opacity="1" stroke-width="1" stroke-linecap="butt" stroke-linejoin="miter" stroke="rgb(70.196078%, 70.196078%, 70.196078%)" stroke-opacity="1" stroke-miterlimit="10" d="M 372.027344 549.683594 C 372.027344 556.152344 362.328125 556.152344 362.328125 549.683594 C 362.328125 543.21875 372.027344 543.21875 372.027344 549.683594 "/>
<path fill-rule="nonzero" fill="rgb(12.156863%, 47.058824%, 70.588235%)" fill-opacity="1" stroke-width="1" stroke-linecap="butt" stroke-linejoin="miter" stroke="rgb(12.156863%, 47.058824%, 70.588235%)" stroke-opacity="1" stroke-miterlimit="10" d="M 574.519531 240.710938 C 574.519531 244.375 569.019531 244.375 569.019531 240.710938 C 569.019531 237.042969 574.519531 237.042969 574.519531 240.710938 "/>
<path fill-rule="nonzero" fill="rgb(12.156863%, 47.058824%, 70.588235%)" fill-opacity="1" stroke-width="1" stroke-linecap="butt" stroke-linejoin="miter" stroke="rgb(12.156863%, 47.058824%, 70.588235%)" stroke-opacity="1" stroke-miterlimit="10" d="M 744.710938 182.3125 C 744.710938 185.976562 739.210938 185.976562 739.210938 182.3125 C 739.210938 178.644531 744.710938 178.644531 744.710938 182.3125 "/>
<path fill-rule="nonzero" fill="rgb(12.156863%, 47.058824%, 70.588235%)" fill-opacity="1" stroke-width="1" stroke-linecap="butt" stroke-linejoin="miter" stroke="rgb(12.156863%, 47.058824%, 70.588235%)" stroke-opacity="1" stroke-miterlimit="10" d="M 610.664062 349.941406 C 610.664062 353.605469 605.164062 353.605469 605.164062 349.941406 C 605.164062 346.273438 610.664062 346.273438 610.664062 349.941406 "/>
<path fill-rule="nonzero" fill="rgb(14.901961%, 14.901961%, 14.901961%)" fill-opacity="1" stroke-width="1" stroke-linecap="butt" stroke-linejoin="miter" stroke="rgb(14.901961%, 14.901961%, 14.901961%)" stroke-opacity="1" stroke-miterlimit="10" d="M 744.148438 144.921875 L 750 133.222656 L 755.851562 144.921875 Z M 744.148438 144.921875 "/>
<path fill-rule="nonzero" fill="rgb(70.196078%, 70.196078%, 70.196078%)" fill-opacity="1" stroke-width="1" stroke-linecap="butt" stroke-linejoin="miter" stroke="rgb(70.196078%, 70.196078%, 70.196078%)" stroke-opacity="1" stroke-miterlimit="10" d="M 714.679688 136.394531 C 714.679688 139.902344 711.835938 142.746094 708.328125 142.746094 C 704.824219 142.746094 701.980469 139.902344 701.980469 136.394531 C 701.980469 132.886719 704.824219 130.042969 708.328125 130.042969 C 711.835938 130.042969 714.679688 132.886719 714.679688 136.394531 "/>
<path fill-rule="nonzero" fill="rgb(70.196078%, 70.196078%, 70.196078%)" fill-opacity="1" stroke-width="1" stroke-linecap="butt" stroke-linejoin="miter" stroke="rgb(70.196078%, 70.196078%, 70.196078%)" stroke-opacity="1" stroke-miterlimit="10" d="M 666.933594 124.632812 C 666.933594 128.691406 663.644531 131.980469 659.585938 131.980469 C 655.527344 131.980469 652.234375 128.691406 652.234375 124.632812 C 652.234375 120.574219 655.527344 117.28125 659.585938 117.28125 C 663.644531 117.28125 666.933594 120.574219 666.933594 124.632812 "/>
<path fill-rule="nonzero" fill="rgb(12.156863%, 47.058824%, 70.588235%)" fill-opacity="1" stroke-width="1" stroke-linecap="butt" stroke-linejoin="miter" stroke="rgb(12.156863%, 47.058824%, 70.588235%)" stroke-opacity="1" stroke-miterlimit="10" d="M 679.246094 78.046875 C 679.246094 81.710938 673.746094 81.710938 673.746094 78.046875 C 673.746094 74.378906 679.246094 74.378906 679.246094 78.046875 "/>
<path fill-rule="nonzero" fill="rgb(12.156863%, 47.058824%, 70.588235%)" fill-opacity="1" stroke-width="1" stroke-linecap="butt" stroke-linejoin="miter" stroke="rgb(12.156863%, 47.058824%, 70.588235%)" stroke-opacity="1" stroke-miterlimit="10" d="M 661.492188 50 C 661.492188 53.667969 655.992188 53.667969 655.992188 50 C 655.992188 46.332031 661.492188 46.332031 661.492188 50 "/>
<path fill-rule="nonzero" fill="rgb(12.156863%, 47.058824%, 70.588235%)" fill-opacity="1" stroke-width="1" stroke-linecap="butt" stroke-linejoin="miter" stroke="rgb(12.156863%, 47.058824%, 70.588235%)" stroke-opacity="1" stroke-miterlimit="10" d="M 744.464844 94.035156 C 744.464844 97.699219 738.964844 97.699219 738.964844 94.035156 C 738.964844 90.367188 744.464844 90.367188 744.464844 94.035156 "/>
<path fill-rule="nonzero" fill="rgb(70.196078%, 70.196078%, 70.196078%)" fill-opacity="1" stroke-width="1" stroke-linecap="butt" stroke-linejoin="miter" stroke="rgb(70.196078%, 70.196078%, 70.196078%)" stroke-opacity="1" stroke-miterlimit="10" d="M 628.742188 172.136719 C 628.742188 179.269531 618.042969 179.269531 618.042969 172.136719 C 618.042969 165 628.742188 165 628.742188 172.136719 "/>
<path fill-rule="nonzero" fill="rgb(12.156863%, 47.058824%, 70.588235%)" fill-opacity="1" stroke-width="1" stroke-linecap="butt" stroke-linejoin="miter" stroke="rgb(12.156863%, 47.058824%, 70.588235%)" stroke-opacity="1" stroke-miterlimit="10" d="M 590.417969 130.28125 C 590.417969 133.949219 584.917969 133.949219 584.917969 130.28125 C 584.917969 126.613281 590.417969 126.613281 590.417969 130.28125 "/>
<path fill-rule="nonzero" fill="rgb(12.156863%, 47.058824%, 70.588235%)" fill-opacity="1" stroke-width="1" stroke-linecap="butt" stroke-linejoin="miter" stroke="rgb(12.156863%, 47.058824%, 70.588235%)" stroke-opacity="1" stroke-miterlimit="10" d="M 657.351562 180.648438 C 657.351562 184.316406 651.851562 184.316406 651.851562 180.648438 C 651.851562 176.980469 657.351562 176.980469 657.351562 180.648438 "/>
<path fill-rule="nonzero" fill="rgb(70.196078%, 70.196078%, 70.196078%)" fill-opacity="1" stroke-width="1" stroke-linecap="butt" stroke-linejoin="miter" stroke="rgb(70.196078%, 70.196078%, 70.196078%)" stroke-opacity="1" stroke-miterlimit="10" d="M 610.972656 236.4375 C 610.972656 243.570312 600.273438 243.570312 600.273438 236.4375 C 600.273438 229.300781 610.972656 229.300781 610.972656 236.4375 "/>
<path fill-rule="nonzero" fill="rgb(70.196078%, 70.196078%, 70.196078%)" fill-opacity="1" stroke-width="1" stroke-linecap="butt" stroke-linejoin="miter" stroke="rgb(70.196078%, 70.196078%, 70.196078%)" stroke-opacity="1" stroke-miterlimit="10" d="M 587.640625 295.03125 C 587.640625 302.164062 576.941406 302.164062 576.941406 295.03125 C 576.941406 287.898438 587.640625 287.898438 587.640625 295.03125 "/>
<path fill-rule="nonzero" fill="rgb(70.196078%, 70.196078%, 70.196078%)" fill-opacity="1" stroke-width="1" stroke-linecap="butt" stroke-linejoin="miter" stroke="rgb(70.196078%, 70.196078%, 70.196078%)" stroke-opacity="1" stroke-miterlimit="10" d="M 301.003906 591.144531 C 301.003906 597.613281 291.304688 597.613281 291.304688 591.144531 C 291.304688 584.679688 301.003906 584.679688 301.003906 591.144531 "/>
<path fill-rule="nonzero" fill="rgb(12.156863%, 47.058824%, 70.588235%)" fill-opacity="1" stroke-width="1" stroke-linecap="butt" stroke-linejoin="miter" stroke="rgb(12.156863%, 47.058824%, 70.588235%)" stroke-opacity="1" stroke-miterlimit="10" d="M 637.992188 56.867188 C 637.992188 60.535156 632.492188 60.535156 632.492188 56.867188 C 632.492188 53.199219 637.992188 53.199219 637.992188 56.867188 "/>
<path fill-rule="nonzero" fill="rgb(70.196078%, 70.196078%, 70.196078%)" fill-opacity="1" stroke-width="1" stroke-linecap="butt" stroke-linejoin="miter" stroke="rgb(70.196078%, 70.196078%, 70.196078%)" stroke-opacity="1" stroke-miterlimit="10" d="M 264.507812 607.90625 C 264.507812 614.375 254.808594 614.375 254.808594 607.90625 C 254.808594 601.441406 264.507812 601.441406 264.507812 607.90625 "/>
<path fill-rule="nonzero" fill="rgb(70.196078%, 70.196078%, 70.196078%)" fill-opacity="1" stroke-width="1" stroke-linecap="butt" stroke-linejoin="miter" stroke="rgb(70.196078%, 70.196078%, 70.196078%)" stroke-opacity="1" stroke-miterlimit="10" d="M 227.464844 624.027344 C 227.464844 630.496094 217.765625 630.496094 217.765625 624.027344 C 217.765625 617.5625 227.464844 617.5625 227.464844 624.027344 "/>
</svg>
