<?xml version="1.0" encoding="UTF-8"?>
<svg xmlns="http://www.w3.org/2000/svg" xmlns:xlink="http://www.w3.org/1999/xlink" width="800" height="800" viewBox="0 0 800 800">
<rect x="-80" y="-80" width="960" height="960" fill="rgb(100%, 100%, 100%)" fill-opacity="1"/>
<path fill="none" stroke-width="1.5" stroke-linecap="butt" stroke-linejoin="miter" stroke="rgb(99.215686%, 74.901961%, 43.529412%)" stroke-opacity="1" stroke-miterlimit="10" d="M 223.734375 50 C 214.730469 48.898438 205.984375 50.601562 200.039062 57.355469 "/>
<path fill-rule="nonzero" fill="rgb(99.215686%, 74.901961%, 43.529412%)" fill-opacity="1" d="M 195.324219 62.710938 L 198.296875 55.824219 L 201.777344 58.886719 L 195.324219 62.710938 "/>
<path fill="none" stroke-width="1.5" stroke-linecap="butt" stroke-linejoin="miter" stroke="rgb(99.215686%, 74.901961%, 43.529412%)" stroke-opacity="1" stroke-miterlimit="10" d="M 161.929688 75.890625 C 152.789062 76.269531 144.367188 79.402344 139.542969 87.097656 "/>
<path fill-rule="nonzero" fill="rgb(99.215686%, 74.901961%, 43.529412%)" fill-opacity="1" d="M 135.753906 93.140625 L 137.578125 85.867188 L 141.507812 88.328125 L 135.753906 93.140625 "/>
<path fill="none" stroke-width="1.5" stroke-linecap="butt" stroke-linejoin="miter" stroke="rgb(99.215686%, 74.901961%, 43.529412%)" stroke-opacity="1" stroke-miterlimit="10" d="M 77.09375 130.46875 C 68.28125 130.9375 60.140625 134.03125 55.628906 141.53125 "/>
<path fill-rule="nonzero" fill="rgb(99.215686%, 74.901961%, 43.529412%)" fill-opacity="1" d="M 51.953125 147.644531 L 53.644531 140.339844 L 57.617188 142.726562 L 51.953125 147.644531 "/>
<path fill="none" stroke-width="1.5" stroke-linecap="butt" stroke-linejoin="miter" stroke="rgb(99.215686%, 74.901961%, 43.529412%)" stroke-opacity="1" stroke-miterlimit="10" d="M 103.519531 109.207031 C 94.410156 110.136719 86.195312 113.777344 81.847656 121.753906 "/>
<path fill-rule="nonzero" fill="rgb(99.215686%, 74.901961%, 43.529412%)" fill-opacity="1" d="M 78.429688 128.015625 L 79.8125 120.644531 L 83.878906 122.863281 L 78.429688 128.015625 "/>
<path fill="none" stroke-width="1.5" stroke-linecap="butt" stroke-linejoin="miter" stroke="rgb(99.215686%, 74.901961%, 43.529412%)" stroke-opacity="1" stroke-miterlimit="10" d="M 134.273438 95.507812 C 125.320312 94.082031 116.523438 95.464844 110.339844 101.996094 "/>
<path fill-rule="nonzero" fill="rgb(99.215686%, 74.901961%, 43.529412%)" fill-opacity="1" d="M 105.4375 107.179688 L 108.65625 100.40625 L 112.023438 103.589844 L 105.4375 107.179688 "/>
<path fill="none" stroke-width="1.5" stroke-linecap="butt" stroke-linejoin="miter" stroke="rgb(99.215686%, 74.901961%, 43.529412%)" stroke-opacity="1" stroke-miterlimit="10" d="M 193.480469 64.808594 C 184.757812 62.667969 175.945312 63.3125 169.316406 69.261719 "/>
<path fill-rule="nonzero" fill="rgb(99.215686%, 74.901961%, 43.529412%)" fill-opacity="1" d="M 164.007812 74.027344 L 167.769531 67.539062 L 170.863281 70.988281 L 164.007812 74.027344 "/>
<path fill="none" stroke-width="1.5" stroke-linecap="butt" stroke-linejoin="miter" stroke="rgb(12.156863%, 47.058824%, 70.588235%)" stroke-opacity="1" stroke-miterlimit="10" d="M 644.863281 76.121094 C 639.449219 84.847656 637.164062 94.578125 641.15625 103.96875 "/>
<path fill-rule="nonzero" fill="rgb(12.156863%, 47.058824%, 70.588235%)" fill-opacity="1" d="M 643.949219 110.53125 L 639.023438 104.875 L 643.289062 103.0625 L 643.949219 110.53125 "/>
<path fill="none" stroke-width="1.5" stroke-linecap="butt" stroke-linejoin="miter" stroke="rgb(98.431373%, 60.392157%, 60%)" stroke-opacity="1" stroke-miterlimit="10" d="M 284.851562 671.007812 C 289.660156 672.851562 295.101562 673.464844 298.910156 670.207031 "/>
<path fill-rule="nonzero" fill="rgb(98.431373%, 60.392157%, 60%)" fill-opacity="1" d="M 304.332031 665.570312 L 300.417969 671.96875 L 297.40625 668.445312 L 304.332031 665.570312 "/>
<path fill="none" stroke-width="1.5" stroke-linecap="butt" stroke-linejoin="miter" stroke="rgb(41.568627%, 23.921569%, 60.392157%)" stroke-opacity="1" stroke-miterlimit="10" d="M 308.382812 662.105469 C 314.757812 670.671875 323.289062 676.539062 333.902344 676.316406 "/>
<path fill-rule="nonzero" fill="rgb(41.568627%, 23.921569%, 60.392157%)" fill-opacity="1" d="M 341.035156 676.167969 L 333.949219 678.632812 L 333.851562 674 L 341.035156 676.167969 "/>
<path fill="none" stroke-width="1.5" stroke-linecap="butt" stroke-linejoin="miter" stroke="rgb(98.431373%, 60.392157%, 60%)" stroke-opacity="1" stroke-miterlimit="10" d="M 308.382812 662.105469 C 295.585938 667.789062 285.96875 677.046875 282.835938 690.648438 "/>
<path fill-rule="nonzero" fill="rgb(98.431373%, 60.392157%, 60%)" fill-opacity="1" d="M 281.234375 697.597656 L 280.578125 690.128906 L 285.09375 691.167969 L 281.234375 697.597656 "/>
<path fill="none" stroke-width="1.5" stroke-linecap="butt" stroke-linejoin="miter" stroke="rgb(41.568627%, 23.921569%, 60.392157%)" stroke-opacity="1" stroke-miterlimit="10" d="M 377.191406 690.011719 C 383.035156 697.636719 390.800781 702.917969 400.328125 702.472656 "/>
<path fill-rule="nonzero" fill="rgb(41.568627%, 23.921569%, 60.392157%)" fill-opacity="1" d="M 407.453125 702.136719 L 400.4375 704.785156 L 400.21875 700.15625 L 407.453125 702.136719 "/>
<path fill="none" stroke-width="1.5" stroke-linecap="butt" stroke-linejoin="miter" stroke="rgb(41.568627%, 23.921569%, 60.392157%)" stroke-opacity="1" stroke-miterlimit="10" d="M 410.242188 702.003906 C 416.605469 708.921875 424.640625 713.417969 433.882812 712.125 "/>
<path fill-rule="nonzero" fill="rgb(41.568627%, 23.921569%, 60.392157%)" fill-opacity="1" d="M 440.949219 711.136719 L 434.203125 714.417969 L 433.5625 709.828125 L 440.949219 711.136719 "/>
<path fill="none" stroke-width="1.5" stroke-linecap="butt" stroke-linejoin="miter" stroke="rgb(12.156863%, 47.058824%, 70.588235%)" stroke-opacity="1" stroke-miterlimit="10" d="M 610.597656 123.503906 C 619.9375 126.320312 629.46875 126.0625 637.066406 120.042969 "/>
<path fill-rule="nonzero" fill="rgb(12.156863%, 47.058824%, 70.588235%)" fill-opacity="1" d="M 642.65625 115.613281 L 638.503906 121.859375 L 635.625 118.226562 L 642.65625 115.613281 "/>
<path fill="none" stroke-width="1.5" stroke-linecap="butt" stroke-linejoin="miter" stroke="rgb(41.568627%, 23.921569%, 60.392157%)" stroke-opacity="1" stroke-miterlimit="10" d="M 343.828125 676.109375 C 349.554688 684.261719 357.367188 690.03125 367.261719 690.023438 "/>
<path fill-rule="nonzero" fill="rgb(41.568627%, 23.921569%, 60.392157%)" fill-opacity="1" d="M 374.394531 690.015625 L 367.265625 692.339844 L 367.261719 687.703125 L 374.394531 690.015625 "/>
<path fill="none" stroke-width="1.5" stroke-linecap="butt" stroke-linejoin="miter" stroke="rgb(98.431373%, 60.392157%, 60%)" stroke-opacity="1" stroke-miterlimit="10" d="M 181.871094 747.832031 C 173.46875 743.167969 164.238281 741.414062 155.671875 745.621094 "/>
<path fill-rule="nonzero" fill="rgb(98.431373%, 60.392157%, 60%)" fill-opacity="1" d="M 149.269531 748.769531 L 154.648438 743.542969 L 156.695312 747.703125 L 149.269531 748.769531 "/>
<path fill="none" stroke-width="1.5" stroke-linecap="butt" stroke-linejoin="miter" stroke="rgb(41.568627%, 23.921569%, 60.392157%)" stroke-opacity="1" stroke-miterlimit="10" d="M 511.8125 716.46875 C 520.214844 720.464844 529.265625 721.625 537.261719 717.003906 "/>
<path fill-rule="nonzero" fill="rgb(41.568627%, 23.921569%, 60.392157%)" fill-opacity="1" d="M 543.441406 713.4375 L 538.421875 719.011719 L 536.105469 714.996094 L 543.441406 713.4375 "/>
<path fill="none" stroke-width="1.5" stroke-linecap="butt" stroke-linejoin="miter" stroke="rgb(12.156863%, 47.058824%, 70.588235%)" stroke-opacity="1" stroke-miterlimit="10" d="M 645.238281 113.566406 C 635.714844 110.777344 626.042969 111.136719 618.347656 117.296875 "/>
<path fill-rule="nonzero" fill="rgb(12.156863%, 47.058824%, 70.588235%)" fill-opacity="1" d="M 612.78125 121.757812 L 616.898438 115.488281 L 619.796875 119.109375 L 612.78125 121.757812 "/>
<path fill="none" stroke-width="1.5" stroke-linecap="butt" stroke-linejoin="miter" stroke="rgb(12.156863%, 47.058824%, 70.588235%)" stroke-opacity="1" stroke-miterlimit="10" d="M 645.238281 113.566406 C 648.550781 122.789062 654.460938 130.308594 663.855469 132.851562 "/>
<path fill-rule="nonzero" fill="rgb(12.156863%, 47.058824%, 70.588235%)" fill-opacity="1" d="M 670.742188 134.71875 L 663.25 135.089844 L 664.460938 130.617188 L 670.742188 134.71875 "/>
<path fill="none" stroke-width="1.5" stroke-linecap="butt" stroke-linejoin="miter" stroke="rgb(98.431373%, 60.392157%, 60%)" stroke-opacity="1" stroke-miterlimit="10" d="M 249.085938 722.523438 C 239.015625 721.53125 229.410156 723.734375 222.847656 731.355469 "/>
<path fill-rule="nonzero" fill="rgb(98.431373%, 60.392157%, 60%)" fill-opacity="1" d="M 218.191406 736.757812 L 221.089844 729.839844 L 224.601562 732.867188 L 218.191406 736.757812 "/>
<path fill="none" stroke-width="1.5" stroke-linecap="butt" stroke-linejoin="miter" stroke="rgb(41.568627%, 23.921569%, 60.392157%)" stroke-opacity="1" stroke-miterlimit="10" d="M 545.859375 712.042969 C 554.597656 715.503906 563.792969 716.058594 571.554688 710.871094 "/>
<path fill-rule="nonzero" fill="rgb(41.568627%, 23.921569%, 60.392157%)" fill-opacity="1" d="M 577.484375 706.910156 L 572.84375 712.796875 L 570.269531 708.945312 L 577.484375 706.910156 "/>
<path fill="none" stroke-width="1.5" stroke-linecap="butt" stroke-linejoin="miter" stroke="rgb(30.196078%, 68.627451%, 29.019608%)" stroke-opacity="1" stroke-miterlimit="10" d="M 307.5625 580.292969 C 311.386719 569.796875 311.574219 559 305.320312 549.816406 "/>
<path fill-rule="nonzero" fill="rgb(30.196078%, 68.627451%, 29.019608%)" fill-opacity="1" d="M 301.304688 543.921875 L 307.234375 548.511719 L 303.40625 551.121094 L 301.304688 543.921875 "/>
<path fill="none" stroke-width="1.5" stroke-linecap="butt" stroke-linejoin="miter" stroke="rgb(30.196078%, 68.627451%, 29.019608%)" stroke-opacity="1" stroke-miterlimit="10" d="M 299.730469 541.609375 C 301.167969 531.777344 299.476562 522.21875 292.277344 515.46875 "/>
<path fill-rule="nonzero" fill="rgb(30.196078%, 68.627451%, 29.019608%)" fill-opacity="1" d="M 287.074219 510.589844 L 293.863281 513.777344 L 290.691406 517.160156 L 287.074219 510.589844 "/>
<path fill="none" stroke-width="1.5" stroke-linecap="butt" stroke-linejoin="miter" stroke="rgb(98.431373%, 60.392157%, 60%)" stroke-opacity="1" stroke-miterlimit="10" d="M 112.085938 746.464844 C 105.953125 739.667969 98.152344 735.171875 89.152344 736.394531 "/>
<path fill-rule="nonzero" fill="rgb(98.431373%, 60.392157%, 60%)" fill-opacity="1" d="M 82.085938 737.355469 L 88.839844 734.097656 L 89.464844 738.691406 L 82.085938 737.355469 "/>
<path fill="none" stroke-width="1.5" stroke-linecap="butt" stroke-linejoin="miter" stroke="rgb(98.431373%, 60.392157%, 60%)" stroke-opacity="1" stroke-miterlimit="10" d="M 216.367188 738.875 C 207.0625 735.871094 197.511719 735.953125 189.773438 741.828125 "/>
<path fill-rule="nonzero" fill="rgb(98.431373%, 60.392157%, 60%)" fill-opacity="1" d="M 184.09375 746.144531 L 188.375 739.984375 L 191.175781 743.675781 L 184.09375 746.144531 "/>
<path fill="none" stroke-width="1.5" stroke-linecap="butt" stroke-linejoin="miter" stroke="rgb(41.568627%, 23.921569%, 60.392157%)" stroke-opacity="1" stroke-miterlimit="10" d="M 579.808594 705.355469 C 588.621094 709.375 598.035156 710.402344 606.304688 705.488281 "/>
<path fill-rule="nonzero" fill="rgb(41.568627%, 23.921569%, 60.392157%)" fill-opacity="1" d="M 612.4375 701.847656 L 607.488281 707.480469 L 605.121094 703.496094 L 612.4375 701.847656 "/>
<path fill="none" stroke-width="1.5" stroke-linecap="butt" stroke-linejoin="miter" stroke="rgb(41.568627%, 23.921569%, 60.392157%)" stroke-opacity="1" stroke-miterlimit="10" d="M 642.65625 727.496094 C 652.960938 729.203125 662.972656 727.5625 670.277344 720.1875 "/>
<path fill-rule="nonzero" fill="rgb(41.568627%, 23.921569%, 60.392157%)" fill-opacity="1" d="M 675.296875 715.121094 L 671.925781 721.816406 L 668.632812 718.554688 L 675.296875 715.121094 "/>
<path fill="none" stroke-width="1.5" stroke-linecap="butt" stroke-linejoin="miter" stroke="rgb(41.568627%, 23.921569%, 60.392157%)" stroke-opacity="1" stroke-miterlimit="10" d="M 677.265625 713.132812 C 682.328125 703.636719 684.003906 693.339844 679.238281 683.753906 "/>
<path fill-rule="nonzero" fill="rgb(41.568627%, 23.921569%, 60.392157%)" fill-opacity="1" d="M 676.066406 677.363281 L 681.316406 682.722656 L 677.164062 684.785156 L 676.066406 677.363281 "/>
<path fill="none" stroke-width="1.5" stroke-linecap="butt" stroke-linejoin="miter" stroke="rgb(41.568627%, 23.921569%, 60.392157%)" stroke-opacity="1" stroke-miterlimit="10" d="M 674.820312 674.859375 C 667.761719 668.109375 659.136719 664.003906 649.632812 665.945312 "/>
<path fill-rule="nonzero" fill="rgb(41.568627%, 23.921569%, 60.392157%)" fill-opacity="1" d="M 642.644531 667.375 L 649.171875 663.675781 L 650.097656 668.214844 L 642.644531 667.375 "/>
<path fill="none" stroke-width="1.5" stroke-linecap="butt" stroke-linejoin="miter" stroke="rgb(12.156863%, 47.058824%, 70.588235%)" stroke-opacity="1" stroke-miterlimit="10" d="M 700.703125 156.019531 C 703.289062 164.820312 708.382812 172.25 717.039062 175.074219 "/>
<path fill-rule="nonzero" fill="rgb(12.156863%, 47.058824%, 70.588235%)" fill-opacity="1" d="M 723.820312 177.289062 L 716.320312 177.277344 L 717.757812 172.871094 L 723.820312 177.289062 "/>
<path fill="none" stroke-width="1.5" stroke-linecap="butt" stroke-linejoin="miter" stroke="rgb(30.196078%, 68.627451%, 29.019608%)" stroke-opacity="1" stroke-miterlimit="10" d="M 264.089844 477.515625 C 264.039062 486.957031 266.867188 495.78125 274.558594 501.128906 "/>
<path fill-rule="nonzero" fill="rgb(30.196078%, 68.627451%, 29.019608%)" fill-opacity="1" d="M 280.417969 505.203125 L 273.238281 503.035156 L 275.882812 499.226562 L 280.417969 505.203125 "/>
<path fill="none" stroke-width="1.5" stroke-linecap="butt" stroke-linejoin="miter" stroke="rgb(41.568627%, 23.921569%, 60.392157%)" stroke-opacity="1" stroke-miterlimit="10" d="M 638.4375 668.234375 C 628.253906 672.382812 620.226562 679.378906 617.6875 690.015625 "/>
<path fill-rule="nonzero" fill="rgb(41.568627%, 23.921569%, 60.392157%)" fill-opacity="1" d="M 616.035156 696.953125 L 615.433594 689.480469 L 619.945312 690.554688 L 616.035156 696.953125 "/>
<path fill="none" stroke-width="1.5" stroke-linecap="butt" stroke-linejoin="miter" stroke="rgb(41.568627%, 23.921569%, 60.392157%)" stroke-opacity="1" stroke-miterlimit="10" d="M 295.488281 620.085938 C 292.332031 631.59375 293.089844 643.085938 300.53125 652.339844 "/>
<path fill-rule="nonzero" fill="rgb(41.568627%, 23.921569%, 60.392157%)" fill-opacity="1" d="M 305 657.898438 L 298.726562 653.792969 L 302.335938 650.886719 L 305 657.898438 "/>
<path fill="none" stroke-width="1.5" stroke-linecap="butt" stroke-linejoin="miter" stroke="rgb(30.196078%, 68.627451%, 29.019608%)" stroke-opacity="1" stroke-miterlimit="10" d="M 295.488281 620.085938 C 304.371094 612.019531 309.867188 601.867188 308.597656 589.984375 "/>
<path fill-rule="nonzero" fill="rgb(30.196078%, 68.627451%, 29.019608%)" fill-opacity="1" d="M 307.839844 582.894531 L 310.902344 589.738281 L 306.292969 590.230469 L 307.839844 582.894531 "/>
<path fill="none" stroke-width="1.5" stroke-linecap="butt" stroke-linejoin="miter" stroke="rgb(30.196078%, 68.627451%, 29.019608%)" stroke-opacity="1" stroke-miterlimit="10" d="M 295.488281 620.085938 C 293.070312 610.695312 287.945312 602.726562 278.917969 599.367188 "/>
<path fill-rule="nonzero" fill="rgb(30.196078%, 68.627451%, 29.019608%)" fill-opacity="1" d="M 272.234375 596.878906 L 279.726562 597.195312 L 278.109375 601.539062 L 272.234375 596.878906 "/>
<path fill="none" stroke-width="1.5" stroke-linecap="butt" stroke-linejoin="miter" stroke="rgb(30.196078%, 68.627451%, 29.019608%)" stroke-opacity="1" stroke-miterlimit="10" d="M 295.488281 620.085938 C 285.882812 614.367188 275.308594 612.167969 265.113281 616.605469 "/>
<path fill-rule="nonzero" fill="rgb(30.196078%, 68.627451%, 29.019608%)" fill-opacity="1" d="M 258.570312 619.449219 L 264.1875 614.480469 L 266.035156 618.730469 L 258.570312 619.449219 "/>
<path fill="none" stroke-width="1.5" stroke-linecap="butt" stroke-linejoin="miter" stroke="rgb(30.196078%, 68.627451%, 29.019608%)" stroke-opacity="1" stroke-miterlimit="10" d="M 269.613281 595.90625 C 271.234375 604.253906 275.25 611.6875 283.027344 614.914062 "/>
<path fill-rule="nonzero" fill="rgb(30.196078%, 68.627451%, 29.019608%)" fill-opacity="1" d="M 289.617188 617.648438 L 282.140625 617.054688 L 283.917969 612.773438 L 289.617188 617.648438 "/>
<path fill="none" stroke-width="1.5" stroke-linecap="butt" stroke-linejoin="miter" stroke="rgb(30.196078%, 68.627451%, 29.019608%)" stroke-opacity="1" stroke-miterlimit="10" d="M 256.007812 620.566406 C 264.308594 626.101562 273.722656 628.707031 282.929688 625.058594 "/>
<path fill-rule="nonzero" fill="rgb(30.196078%, 68.627451%, 29.019608%)" fill-opacity="1" d="M 289.5625 622.433594 L 283.785156 627.214844 L 282.078125 622.90625 L 289.5625 622.433594 "/>
<path fill="none" stroke-width="1.5" stroke-linecap="butt" stroke-linejoin="miter" stroke="rgb(30.196078%, 68.627451%, 29.019608%)" stroke-opacity="1" stroke-miterlimit="10" d="M 283.941406 507.652344 C 283.757812 497.710938 280.519531 488.574219 272.324219 483.058594 "/>
<path fill-rule="nonzero" fill="rgb(30.196078%, 68.627451%, 29.019608%)" fill-opacity="1" d="M 266.40625 479.074219 L 273.617188 481.136719 L 271.03125 484.980469 L 266.40625 479.074219 "/>
<path fill="none" stroke-width="1.5" stroke-linecap="butt" stroke-linejoin="miter" stroke="rgb(41.568627%, 23.921569%, 60.392157%)" stroke-opacity="1" stroke-miterlimit="10" d="M 477.53125 717.121094 C 485.429688 722.011719 494.28125 724.160156 502.722656 720.453125 "/>
<path fill-rule="nonzero" fill="rgb(41.568627%, 23.921569%, 60.392157%)" fill-opacity="1" d="M 509.257812 717.589844 L 503.65625 722.578125 L 501.792969 718.332031 L 509.257812 717.589844 "/>
<path fill="none" stroke-width="1.5" stroke-linecap="butt" stroke-linejoin="miter" stroke="rgb(41.568627%, 23.921569%, 60.392157%)" stroke-opacity="1" stroke-miterlimit="10" d="M 615.269531 700.164062 C 617.792969 710.753906 623.433594 719.667969 633.460938 723.75 "/>
<path fill-rule="nonzero" fill="rgb(41.568627%, 23.921569%, 60.392157%)" fill-opacity="1" d="M 640.066406 726.441406 L 632.585938 725.898438 L 634.335938 721.605469 L 640.066406 726.441406 "/>
<path fill="none" stroke-width="1.5" stroke-linecap="butt" stroke-linejoin="miter" stroke="rgb(41.568627%, 23.921569%, 60.392157%)" stroke-opacity="1" stroke-miterlimit="10" d="M 615.269531 700.164062 C 625.199219 696.28125 633.132812 689.613281 635.683594 679.328125 "/>
<path fill-rule="nonzero" fill="rgb(41.568627%, 23.921569%, 60.392157%)" fill-opacity="1" d="M 637.402344 672.40625 L 637.933594 679.886719 L 633.4375 678.769531 L 637.402344 672.40625 "/>
<path fill="none" stroke-width="1.5" stroke-linecap="butt" stroke-linejoin="miter" stroke="rgb(41.568627%, 23.921569%, 60.392157%)" stroke-opacity="1" stroke-miterlimit="10" d="M 443.714844 710.746094 C 450.484375 717.171875 458.757812 721.085938 467.820312 719.171875 "/>
<path fill-rule="nonzero" fill="rgb(41.568627%, 23.921569%, 60.392157%)" fill-opacity="1" d="M 474.800781 717.695312 L 468.300781 721.4375 L 467.34375 716.902344 L 474.800781 717.695312 "/>
<path fill="none" stroke-width="1.5" stroke-linecap="butt" stroke-linejoin="miter" stroke="rgb(98.431373%, 60.392157%, 60%)" stroke-opacity="1" stroke-miterlimit="10" d="M 280.648438 700.148438 C 269.785156 700.847656 260.050781 704.898438 254.328125 714.089844 "/>
<path fill-rule="nonzero" fill="rgb(98.431373%, 60.392157%, 60%)" fill-opacity="1" d="M 250.5625 720.148438 L 252.363281 712.867188 L 256.296875 715.316406 L 250.5625 720.148438 "/>
<path fill="none" stroke-width="1.5" stroke-linecap="butt" stroke-linejoin="miter" stroke="rgb(98.431373%, 60.392157%, 60%)" stroke-opacity="1" stroke-miterlimit="10" d="M 146.761719 750 C 139.332031 744.089844 130.613281 740.871094 121.589844 743.597656 "/>
<path fill-rule="nonzero" fill="rgb(98.431373%, 60.392157%, 60%)" fill-opacity="1" d="M 114.761719 745.65625 L 120.917969 741.378906 L 122.257812 745.8125 L 114.761719 745.65625 "/>
<path fill="none" stroke-width="1.5" stroke-linecap="butt" stroke-linejoin="miter" stroke="rgb(12.156863%, 47.058824%, 70.588235%)" stroke-opacity="1" stroke-miterlimit="10" d="M 673.4375 135.449219 C 676.609375 144.128906 682.210938 151.253906 691.09375 153.542969 "/>
<path fill-rule="nonzero" fill="rgb(12.156863%, 47.058824%, 70.588235%)" fill-opacity="1" d="M 698 155.324219 L 690.515625 155.789062 L 691.671875 151.300781 L 698 155.324219 "/>
<path fill="none" stroke-width="1.5" stroke-linecap="butt" stroke-linejoin="miter" stroke="rgb(12.156863%, 47.058824%, 70.588235%)" stroke-opacity="1" stroke-miterlimit="10" d="M 726.472656 178.15625 C 727.964844 186.949219 732.015625 194.75 740.0625 198.417969 "/>
<path fill-rule="nonzero" fill="rgb(12.156863%, 47.058824%, 70.588235%)" fill-opacity="1" d="M 746.550781 201.378906 L 739.097656 200.527344 L 741.023438 196.308594 L 746.550781 201.378906 "/>
<path fill-rule="nonzero" fill="rgb(100%, 84.313725%, 0%)" fill-opacity="1" stroke-width="1" stroke-linecap="butt" stroke-linejoin="miter" stroke="rgb(100%, 84.313725%, 0%)" stroke-opacity="1" stroke-miterlimit="10" d="M 220.484375 46.75 L 226.984375 46.75 L 226.984375 53.25 L 220.484375 53.25 Z M 220.484375 46.75 "/>
<path fill-rule="nonzero" fill="rgb(99.215686%, 74.901961%, 43.529412%)" fill-opacity="1" stroke-width="1" stroke-linecap="butt" stroke-linejoin="miter" stroke="rgb(99.215686%, 74.901961%, 43.529412%)" stroke-opacity="1" stroke-miterlimit="10" d="M 164.679688 75.890625 C 164.679688 79.558594 159.179688 79.558594 159.179688 75.890625 C 159.179688 72.226562 164.679688 72.226562 164.679688 75.890625 "/>
<path fill-rule="nonzero" fill="rgb(14.901961%, 14.901961%, 14.901961%)" fill-opacity="1" stroke-width="1" stroke-linecap="butt" stroke-linejoin="miter" stroke="rgb(14.901961%, 14.901961%, 14.901961%)" stroke-opacity="1" stroke-miterlimit="10" d="M 46.25 154.644531 L 50 147.144531 L 53.75 154.644531 Z M 46.25 154.644531 "/>
<path fill-rule="nonzero" fill="rgb(99.215686%, 74.901961%, 43.529412%)" fill-opacity="1" stroke-width="1" stroke-linecap="butt" stroke-linejoin="miter" stroke="rgb(99.215686%, 74.901961%, 43.529412%)" stroke-opacity="1" stroke-miterlimit="10" d="M 79.84375 130.46875 C 79.84375 134.132812 74.34375 134.132812 74.34375 130.46875 C 74.34375 126.800781 79.84375 126.800781 79.84375 130.46875 "/>
<path fill-rule="nonzero" fill="rgb(99.215686%, 74.901961%, 43.529412%)" fill-opacity="1" stroke-width="1" stroke-linecap="butt" stroke-linejoin="miter" stroke="rgb(99.215686%, 74.901961%, 43.529412%)" stroke-opacity="1" stroke-miterlimit="10" d="M 106.269531 109.207031 C 106.269531 112.871094 100.769531 112.871094 100.769531 109.207031 C 100.769531 105.539062 106.269531 105.539062 106.269531 109.207031 "/>
<path fill-rule="nonzero" fill="rgb(99.215686%, 74.901961%, 43.529412%)" fill-opacity="1" stroke-width="1" stroke-linecap="butt" stroke-linejoin="miter" stroke="rgb(99.215686%, 74.901961%, 43.529412%)" stroke-opacity="1" stroke-miterlimit="10" d="M 137.023438 95.507812 C 137.023438 99.171875 131.523438 99.171875 131.523438 95.507812 C 131.523438 91.839844 137.023438 91.839844 137.023438 95.507812 "/>
<path fill-rule="nonzero" fill="rgb(99.215686%, 74.901961%, 43.529412%)" fill-opacity="1" stroke-width="1" stroke-linecap="butt" stroke-linejoin="miter" stroke="rgb(99.215686%, 74.901961%, 43.529412%)" stroke-opacity="1" stroke-miterlimit="10" d="M 196.230469 64.808594 C 196.230469 68.472656 190.730469 68.472656 190.730469 64.808594 C 190.730469 61.140625 196.230469 61.140625 196.230469 64.808594 "/>
<path fill-rule="nonzero" fill="rgb(100%, 84.313725%, 0%)" fill-opacity="1" stroke-width="1" stroke-linecap="butt" stroke-linejoin="miter" stroke="rgb(100%, 84.313725%, 0%)" stroke-opacity="1" stroke-miterlimit="10" d="M 641.613281 72.871094 L 648.113281 72.871094 L 648.113281 79.371094 L 641.613281 79.371094 Z M 641.613281 72.871094 "/>
<path fill-rule="nonzero" fill="rgb(100%, 84.313725%, 0%)" fill-opacity="1" stroke-width="1" stroke-linecap="butt" stroke-linejoin="miter" stroke="rgb(100%, 84.313725%, 0%)" stroke-opacity="1" stroke-miterlimit="10" d="M 281.601562 667.757812 L 288.101562 667.757812 L 288.101562 674.257812 L 281.601562 674.257812 Z M 281.601562 667.757812 "/>
<path fill-rule="nonzero" fill="rgb(70.196078%, 70.196078%, 70.196078%)" fill-opacity="1" stroke-width="1" stroke-linecap="butt" stroke-linejoin="miter" stroke="rgb(70.196078%, 70.196078%, 70.196078%)" stroke-opacity="1" stroke-miterlimit="10" d="M 313.734375 662.105469 C 313.734375 669.238281 303.035156 669.238281 303.035156 662.105469 C 303.035156 654.972656 313.734375 654.972656 313.734375 662.105469 "/>
<path fill-rule="nonzero" fill="rgb(41.568627%, 23.921569%, 60.392157%)" fill-opacity="1" stroke-width="1" stroke-linecap="butt" stroke-linejoin="miter" stroke="rgb(41.568627%, 23.921569%, 60.392157%)" stroke-opacity="1" stroke-miterlimit="10" d="M 379.941406 690.011719 C 379.941406 693.679688 374.441406 693.679688 374.441406 690.011719 C 374.441406 686.347656 379.941406 686.347656 379.941406 690.011719 "/>
<path fill-rule="nonzero" fill="rgb(41.568627%, 23.921569%, 60.392157%)" fill-opacity="1" stroke-width="1" stroke-linecap="butt" stroke-linejoin="miter" stroke="rgb(41.568627%, 23.921569%, 60.392157%)" stroke-opacity="1" stroke-miterlimit="10" d="M 412.992188 702.003906 C 412.992188 705.671875 407.492188 705.671875 407.492188 702.003906 C 407.492188 698.335938 412.992188 698.335938 412.992188 702.003906 "/>
<path fill-rule="nonzero" fill="rgb(12.156863%, 47.058824%, 70.588235%)" fill-opacity="1" stroke-width="1" stroke-linecap="butt" stroke-linejoin="miter" stroke="rgb(12.156863%, 47.058824%, 70.588235%)" stroke-opacity="1" stroke-miterlimit="10" d="M 613.347656 123.503906 C 613.347656 127.167969 607.847656 127.167969 607.847656 123.503906 C 607.847656 119.835938 613.347656 119.835938 613.347656 123.503906 "/>
<path fill-rule="nonzero" fill="rgb(41.568627%, 23.921569%, 60.392157%)" fill-opacity="1" stroke-width="1" stroke-linecap="butt" stroke-linejoin="miter" stroke="rgb(41.568627%, 23.921569%, 60.392157%)" stroke-opacity="1" stroke-miterlimit="10" d="M 346.578125 676.109375 C 346.578125 679.773438 341.078125 679.773438 341.078125 676.109375 C 341.078125 672.441406 346.578125 672.441406 346.578125 676.109375 "/>
<path fill-rule="nonzero" fill="rgb(98.431373%, 60.392157%, 60%)" fill-opacity="1" stroke-width="1" stroke-linecap="butt" stroke-linejoin="miter" stroke="rgb(98.431373%, 60.392157%, 60%)" stroke-opacity="1" stroke-miterlimit="10" d="M 184.621094 747.832031 C 184.621094 751.5 179.121094 751.5 179.121094 747.832031 C 179.121094 744.167969 184.621094 744.167969 184.621094 747.832031 "/>
<path fill-rule="nonzero" fill="rgb(41.568627%, 23.921569%, 60.392157%)" fill-opacity="1" stroke-width="1" stroke-linecap="butt" stroke-linejoin="miter" stroke="rgb(41.568627%, 23.921569%, 60.392157%)" stroke-opacity="1" stroke-miterlimit="10" d="M 514.5625 716.46875 C 514.5625 720.132812 509.0625 720.132812 509.0625 716.46875 C 509.0625 712.800781 514.5625 712.800781 514.5625 716.46875 "/>
<path fill-rule="nonzero" fill="rgb(12.156863%, 47.058824%, 70.588235%)" fill-opacity="1" stroke-width="1" stroke-linecap="butt" stroke-linejoin="miter" stroke="rgb(12.156863%, 47.058824%, 70.588235%)" stroke-opacity="1" stroke-miterlimit="10" d="M 648.488281 113.566406 C 648.488281 117.898438 641.988281 117.898438 641.988281 113.566406 C 641.988281 109.234375 648.488281 109.234375 648.488281 113.566406 "/>
<path fill-rule="nonzero" fill="rgb(98.431373%, 60.392157%, 60%)" fill-opacity="1" stroke-width="1" stroke-linecap="butt" stroke-linejoin="miter" stroke="rgb(98.431373%, 60.392157%, 60%)" stroke-opacity="1" stroke-miterlimit="10" d="M 251.835938 722.523438 C 251.835938 726.1875 246.335938 726.1875 246.335938 722.523438 C 246.335938 718.855469 251.835938 718.855469 251.835938 722.523438 "/>
<path fill-rule="nonzero" fill="rgb(41.568627%, 23.921569%, 60.392157%)" fill-opacity="1" stroke-width="1" stroke-linecap="butt" stroke-linejoin="miter" stroke="rgb(41.568627%, 23.921569%, 60.392157%)" stroke-opacity="1" stroke-miterlimit="10" d="M 548.609375 712.042969 C 548.609375 715.707031 543.109375 715.707031 543.109375 712.042969 C 543.109375 708.375 548.609375 708.375 548.609375 712.042969 "/>
<path fill-rule="nonzero" fill="rgb(30.196078%, 68.627451%, 29.019608%)" fill-opacity="1" stroke-width="1" stroke-linecap="butt" stroke-linejoin="miter" stroke="rgb(30.196078%, 68.627451%, 29.019608%)" stroke-opacity="1" stroke-miterlimit="10" d="M 310.3125 580.292969 C 310.3125 583.960938 304.8125 583.960938 304.8125 580.292969 C 304.8125 576.628906 310.3125 576.628906 310.3125 580.292969 "/>
<path fill-rule="nonzero" fill="rgb(30.196078%, 68.627451%, 29.019608%)" fill-opacity="1" stroke-width="1" stroke-linecap="butt" stroke-linejoin="miter" stroke="rgb(30.196078%, 68.627451%, 29.019608%)" stroke-opacity="1" stroke-miterlimit="10" d="M 302.480469 541.609375 C 302.480469 545.277344 296.980469 545.277344 296.980469 541.609375 C 296.980469 537.941406 302.480469 537.941406 302.480469 541.609375 "/>
<path fill-rule="nonzero" fill="rgb(98.431373%, 60.392157%, 60%)" fill-opacity="1" stroke-width="1" stroke-linecap="butt" stroke-linejoin="miter" stroke="rgb(98.431373%, 60.392157%, 60%)" stroke-opacity="1" stroke-miterlimit="10" d="M 114.835938 746.464844 C 114.835938 750.132812 109.335938 750.132812 109.335938 746.464844 C 109.335938 742.796875 114.835938 742.796875 114.835938 746.464844 "/>
<path fill-rule="nonzero" fill="rgb(98.431373%, 60.392157%, 60%)" fill-opacity="1" stroke-width="1" stroke-linecap="butt" stroke-linejoin="miter" stroke="rgb(98.431373%, 60.392157%, 60%)" stroke-opacity="1" stroke-miterlimit="10" d="M 219.117188 738.875 C 219.117188 742.542969 213.617188 742.542969 213.617188 738.875 C 213.617188 735.207031 219.117188 735.207031 219.117188 738.875 "/>
<path fill-rule="nonzero" fill="rgb(41.568627%, 23.921569%, 60.392157%)" fill-opacity="1" stroke-width="1" stroke-linecap="butt" stroke-linejoin="miter" stroke="rgb(41.568627%, 23.921569%, 60.392157%)" stroke-opacity="1" stroke-miterlimit="10" d="M 582.558594 705.355469 C 582.558594 709.023438 577.058594 709.023438 577.058594 705.355469 C 577.058594 701.691406 582.558594 701.691406 582.558594 705.355469 "/>
<path fill-rule="nonzero" fill="rgb(41.568627%, 23.921569%, 60.392157%)" fill-opacity="1" stroke-width="1" stroke-linecap="butt" stroke-linejoin="miter" stroke="rgb(41.568627%, 23.921569%, 60.392157%)" stroke-opacity="1" stroke-miterlimit="10" d="M 645.40625 727.496094 C 645.40625 731.164062 639.90625 731.164062 639.90625 727.496094 C 639.90625 723.828125 645.40625 723.828125 645.40625 727.496094 "/>
<path fill-rule="nonzero" fill="rgb(41.568627%, 23.921569%, 60.392157%)" fill-opacity="1" stroke-width="1" stroke-linecap="butt" stroke-linejoin="miter" stroke="rgb(41.568627%, 23.921569%, 60.392157%)" stroke-opacity="1" stroke-miterlimit="10" d="M 680.015625 713.132812 C 680.015625 716.800781 674.515625 716.800781 674.515625 713.132812 C 674.515625 709.464844 680.015625 709.464844 680.015625 713.132812 "/>
<path fill-rule="nonzero" fill="rgb(41.568627%, 23.921569%, 60.392157%)" fill-opacity="1" stroke-width="1" stroke-linecap="butt" stroke-linejoin="miter" stroke="rgb(41.568627%, 23.921569%, 60.392157%)" stroke-opacity="1" stroke-miterlimit="10" d="M 677.570312 674.859375 C 677.570312 678.527344 672.070312 678.527344 672.070312 674.859375 C 672.070312 671.195312 677.570312 671.195312 677.570312 674.859375 "/>
<path fill-rule="nonzero" fill="rgb(12.156863%, 47.058824%, 70.588235%)" fill-opacity="1" stroke-width="1" stroke-linecap="butt" stroke-linejoin="miter" stroke="rgb(12.156863%, 47.058824%, 70.588235%)" stroke-opacity="1" stroke-miterlimit="10" d="M 703.453125 156.019531 C 703.453125 159.6875 697.953125 159.6875 697.953125 156.019531 C 697.953125 152.351562 703.453125 152.351562 703.453125 156.019531 "/>
<path fill-rule="nonzero" fill="rgb(30.196078%, 68.627451%, 29.019608%)" fill-opacity="1" stroke-width="1" stroke-linecap="butt" stroke-linejoin="miter" stroke="rgb(30.196078%, 68.627451%, 29.019608%)" stroke-opacity="1" stroke-miterlimit="10" d="M 266.839844 477.515625 C 266.839844 481.179688 261.339844 481.179688 261.339844 477.515625 C 261.339844 473.847656 266.839844 473.847656 266.839844 477.515625 "/>
<path fill-rule="nonzero" fill="rgb(14.901961%, 14.901961%, 14.901961%)" fill-opacity="1" stroke-width="1" stroke-linecap="butt" stroke-linejoin="miter" stroke="rgb(14.901961%, 14.901961%, 14.901961%)" stroke-opacity="1" stroke-miterlimit="10" d="M 634.1875 672.484375 L 638.4375 663.984375 L 642.6875 672.484375 Z M 634.1875 672.484375 "/>
<path fill-rule="nonzero" fill="rgb(100%, 84.313725%, 0%)" fill-opacity="1" stroke-width="1" stroke-linecap="butt" stroke-linejoin="miter" stroke="rgb(100%, 84.313725%, 0%)" stroke-opacity="1" stroke-miterlimit="10" d="M 289.136719 613.734375 L 301.835938 613.734375 L 301.835938 626.433594 L 289.136719 626.433594 Z M 289.136719 613.734375 "/>
<path fill-rule="nonzero" fill="rgb(30.196078%, 68.627451%, 29.019608%)" fill-opacity="1" stroke-width="1" stroke-linecap="butt" stroke-linejoin="miter" stroke="rgb(30.196078%, 68.627451%, 29.019608%)" stroke-opacity="1" stroke-miterlimit="10" d="M 272.363281 595.90625 C 272.363281 599.570312 266.863281 599.570312 266.863281 595.90625 C 266.863281 592.238281 272.363281 592.238281 272.363281 595.90625 "/>
<path fill-rule="nonzero" fill="rgb(30.196078%, 68.627451%, 29.019608%)" fill-opacity="1" stroke-width="1" stroke-linecap="butt" stroke-linejoin="miter" stroke="rgb(30.196078%, 68.627451%, 29.019608%)" stroke-opacity="1" stroke-miterlimit="10" d="M 258.757812 620.566406 C 258.757812 624.234375 253.257812 624.234375 253.257812 620.566406 C 253.257812 616.898438 258.757812 616.898438 258.757812 620.566406 "/>
<path fill-rule="nonzero" fill="rgb(14.901961%, 14.901961%, 14.901961%)" fill-opacity="1" stroke-width="1" stroke-linecap="butt" stroke-linejoin="miter" stroke="rgb(14.901961%, 14.901961%, 14.901961%)" stroke-opacity="1" stroke-miterlimit="10" d="M 279.691406 511.902344 L 283.941406 503.402344 L 288.191406 511.902344 Z M 279.691406 511.902344 "/>
<path fill-rule="nonzero" fill="rgb(41.568627%, 23.921569%, 60.392157%)" fill-opacity="1" stroke-width="1" stroke-linecap="butt" stroke-linejoin="miter" stroke="rgb(41.568627%, 23.921569%, 60.392157%)" stroke-opacity="1" stroke-miterlimit="10" d="M 480.28125 717.121094 C 480.28125 720.785156 474.78125 720.785156 474.78125 717.121094 C 474.78125 713.453125 480.28125 713.453125 480.28125 717.121094 "/>
<path fill-rule="nonzero" fill="rgb(41.568627%, 23.921569%, 60.392157%)" fill-opacity="1" stroke-width="1" stroke-linecap="butt" stroke-linejoin="miter" stroke="rgb(41.568627%, 23.921569%, 60.392157%)" stroke-opacity="1" stroke-miterlimit="10" d="M 618.519531 700.164062 C 618.519531 704.496094 612.019531 704.496094 612.019531 700.164062 C 612.019531 695.832031 618.519531 695.832031 618.519531 700.164062 "/>
<path fill-rule="nonzero" fill="rgb(41.568627%, 23.921569%, 60.392157%)" fill-opacity="1" stroke-width="1" stroke-linecap="butt" stroke-linejoin="miter" stroke="rgb(41.568627%, 23.921569%, 60.392157%)" stroke-opacity="1" stroke-miterlimit="10" d="M 446.464844 710.746094 C 446.464844 714.414062 440.964844 714.414062 440.964844 710.746094 C 440.964844 707.082031 446.464844 707.082031 446.464844 710.746094 "/>
<path fill-rule="nonzero" fill="rgb(98.431373%, 60.392157%, 60%)" fill-opacity="1" stroke-width="1" stroke-linecap="butt" stroke-linejoin="miter" stroke="rgb(98.431373%, 60.392157%, 60%)" stroke-opacity="1" stroke-miterlimit="10" d="M 283.398438 700.148438 C 283.398438 703.816406 277.898438 703.816406 277.898438 700.148438 C 277.898438 696.480469 283.398438 696.480469 283.398438 700.148438 "/>
<path fill-rule="nonzero" fill="rgb(98.431373%, 60.392157%, 60%)" fill-opacity="1" stroke-width="1" stroke-linecap="butt" stroke-linejoin="miter" stroke="rgb(98.431373%, 60.392157%, 60%)" stroke-opacity="1" stroke-miterlimit="10" d="M 149.511719 750 C 149.511719 753.667969 144.011719 753.667969 144.011719 750 C 144.011719 746.332031 149.511719 746.332031 149.511719 750 "/>
<path fill-rule="nonzero" fill="rgb(14.901961%, 14.901961%, 14.901961%)" fill-opacity="1" stroke-width="1" stroke-linecap="butt" stroke-linejoin="miter" stroke="rgb(14.901961%, 14.901961%, 14.901961%)" stroke-opacity="1" stroke-miterlimit="10" d="M 74.578125 741.617188 L 78.328125 734.117188 L 82.078125 741.617188 Z M 74.578125 741.617188 "/>
<path fill-rule="nonzero" fill="rgb(12.156863%, 47.058824%, 70.588235%)" fill-opacity="1" stroke-width="1" stroke-linecap="butt" stroke-linejoin="miter" stroke="rgb(12.156863%, 47.058824%, 70.588235%)" stroke-opacity="1" stroke-miterlimit="10" d="M 676.1875 135.449219 C 676.1875 139.113281 670.6875 139.113281 670.6875 135.449219 C 670.6875 131.78125 676.1875 131.78125 676.1875 135.449219 "/>
<path fill-rule="nonzero" fill="rgb(12.156863%, 47.058824%, 70.588235%)" fill-opacity="1" stroke-width="1" stroke-linecap="butt" stroke-linejoin="miter" stroke="rgb(12.156863%, 47.058824%, 70.588235%)" stroke-opacity="1" stroke-miterlimit="10" d="M 729.222656 178.15625 C 729.222656 181.820312 723.722656 181.820312 723.722656 178.15625 C 723.722656 174.488281 729.222656 174.488281 729.222656 178.15625 "/>
<path fill-rule="nonzero" fill="rgb(14.901961%, 14.901961%, 14.901961%)" fill-opacity="1" stroke-width="1" stroke-linecap="butt" stroke-linejoin="miter" stroke="rgb(14.901961%, 14.901961%, 14.901961%)" stroke-opacity="1" stroke-miterlimit="10" d="M 746.25 206.703125 L 750 199.203125 L 753.75 206.703125 Z M 746.25 206.703125 "/>
</svg>
