<?xml version="1.0" encoding="UTF-8"?>
<svg xmlns="http://www.w3.org/2000/svg" xmlns:xlink="http://www.w3.org/1999/xlink" width="800" height="800" viewBox="0 0 800 800">
<rect x="-80" y="-80" width="960" height="960" fill="rgb(100%, 100%, 100%)" fill-opacity="1"/>
<path fill="none" stroke-width="6.5" stroke-linecap="butt" stroke-linejoin="miter" stroke="rgb(41.568627%, 23.921569%, 60.392157%)" stroke-opacity="1" stroke-miterlimit="10" d="M 201.753906 502.800781 C 175.214844 526.425781 160.859375 556.042969 162.066406 591.535156 "/>
<path fill-rule="nonzero" fill="rgb(41.568627%, 23.921569%, 60.392157%)" fill-opacity="1" d="M 162.308594 598.664062 L 159.75 591.613281 L 164.382812 591.457031 L 162.308594 598.664062 "/>
<path fill="none" stroke-width="2.5" stroke-linecap="butt" stroke-linejoin="miter" stroke="rgb(70.196078%, 70.196078%, 70.196078%)" stroke-opacity="1" stroke-miterlimit="10" d="M 201.753906 502.800781 C 183.613281 495.140625 165.117188 494.578125 147.894531 504.0625 "/>
<path fill-rule="nonzero" fill="rgb(70.196078%, 70.196078%, 70.196078%)" fill-opacity="1" d="M 141.648438 507.507812 L 146.777344 502.035156 L 149.015625 506.09375 L 141.648438 507.507812 "/>
<path fill="none" stroke-width="5.5" stroke-linecap="butt" stroke-linejoin="miter" stroke="rgb(41.568627%, 23.921569%, 60.392157%)" stroke-opacity="1" stroke-miterlimit="10" d="M 162.390625 601.054688 C 188.929688 577.429688 203.289062 547.8125 202.078125 512.316406 "/>
<path fill-rule="nonzero" fill="rgb(41.568627%, 23.921569%, 60.392157%)" fill-opacity="1" d="M 201.835938 505.1875 L 204.394531 512.238281 L 199.761719 512.398438 L 201.835938 505.1875 "/>
<path fill="none" stroke-width="2.5" stroke-linecap="butt" stroke-linejoin="miter" stroke="rgb(98.431373%, 60.392157%, 60%)" stroke-opacity="1" stroke-miterlimit="10" d="M 162.390625 601.054688 C 135.128906 631.894531 122.890625 667.90625 129.003906 708.597656 "/>
<path fill-rule="nonzero" fill="rgb(98.431373%, 60.392157%, 60%)" fill-opacity="1" d="M 130.0625 715.652344 L 126.710938 708.941406 L 131.292969 708.253906 L 130.0625 715.652344 "/>
<path fill="none" stroke-width="2.5" stroke-linecap="butt" stroke-linejoin="miter" stroke="rgb(41.568627%, 23.921569%, 60.392157%)" stroke-opacity="1" stroke-miterlimit="10" d="M 162.390625 601.054688 C 167.636719 610.15625 175.296875 616.882812 185.691406 617.875 "/>
<path fill-rule="nonzero" fill="rgb(41.568627%, 23.921569%, 60.392157%)" fill-opacity="1" d="M 192.792969 618.550781 L 185.472656 620.179688 L 185.914062 615.566406 L 192.792969 618.550781 "/>
<path fill="none" stroke-width="1.5" stroke-linecap="butt" stroke-linejoin="miter" stroke="rgb(98.431373%, 60.392157%, 60%)" stroke-opacity="1" stroke-miterlimit="10" d="M 162.390625 601.054688 C 165.738281 640.484375 182.648438 672.914062 215.007812 695.671875 "/>
<path fill-rule="nonzero" fill="rgb(98.431373%, 60.392157%, 60%)" fill-opacity="1" d="M 220.839844 699.777344 L 213.671875 697.570312 L 216.339844 693.777344 L 220.839844 699.777344 "/>
<path fill="none" stroke-width="1.5" stroke-linecap="butt" stroke-linejoin="miter" stroke="rgb(98.431373%, 60.392157%, 60%)" stroke-opacity="1" stroke-miterlimit="10" d="M 162.390625 601.054688 C 142.9375 603.214844 126.644531 611.714844 116.285156 628.285156 "/>
<path fill-rule="nonzero" fill="rgb(98.431373%, 60.392157%, 60%)" fill-opacity="1" d="M 112.503906 634.335938 L 114.320312 627.058594 L 118.25 629.515625 L 112.503906 634.335938 "/>
<path fill="none" stroke-width="2.5" stroke-linecap="butt" stroke-linejoin="miter" stroke="rgb(98.431373%, 60.392157%, 60%)" stroke-opacity="1" stroke-miterlimit="10" d="M 130.382812 717.78125 C 157.617188 687.023438 169.871094 651.089844 163.800781 610.472656 "/>
<path fill-rule="nonzero" fill="rgb(98.431373%, 60.392157%, 60%)" fill-opacity="1" d="M 162.746094 603.417969 L 166.09375 610.132812 L 161.507812 610.816406 L 162.746094 603.417969 "/>
<path fill="none" stroke-width="1.5" stroke-linecap="butt" stroke-linejoin="miter" stroke="rgb(12.156863%, 47.058824%, 70.588235%)" stroke-opacity="1" stroke-miterlimit="10" d="M 135.917969 235.910156 C 151.683594 255.324219 172.0625 266.695312 197.046875 266.640625 "/>
<path fill-rule="nonzero" fill="rgb(12.156863%, 47.058824%, 70.588235%)" fill-opacity="1" d="M 204.179688 266.625 L 197.050781 268.960938 L 197.042969 264.324219 L 204.179688 266.625 "/>
<path fill="none" stroke-width="1.5" stroke-linecap="butt" stroke-linejoin="miter" stroke="rgb(12.156863%, 47.058824%, 70.588235%)" stroke-opacity="1" stroke-miterlimit="10" d="M 135.789062 61.097656 C 118.515625 74.246094 107.964844 91.621094 107.464844 113.292969 "/>
<path fill-rule="nonzero" fill="rgb(12.156863%, 47.058824%, 70.588235%)" fill-opacity="1" d="M 107.300781 120.425781 L 105.148438 113.242188 L 109.78125 113.347656 L 107.300781 120.425781 "/>
<path fill="none" stroke-width="1.5" stroke-linecap="butt" stroke-linejoin="miter" stroke="rgb(12.156863%, 47.058824%, 70.588235%)" stroke-opacity="1" stroke-miterlimit="10" d="M 206.566406 266.621094 C 235.269531 245.21875 252.226562 216.742188 254.144531 181.007812 "/>
<path fill-rule="nonzero" fill="rgb(12.156863%, 47.058824%, 70.588235%)" fill-opacity="1" d="M 254.527344 173.882812 L 256.457031 181.128906 L 251.828125 180.882812 L 254.527344 173.882812 "/>
<path fill="none" stroke-width="2.5" stroke-linecap="butt" stroke-linejoin="miter" stroke="rgb(12.156863%, 47.058824%, 70.588235%)" stroke-opacity="1" stroke-miterlimit="10" d="M 206.566406 266.621094 C 215.292969 230.902344 210.054688 197.285156 188.230469 167.714844 "/>
<path fill-rule="nonzero" fill="rgb(12.156863%, 47.058824%, 70.588235%)" fill-opacity="1" d="M 183.996094 161.972656 L 190.097656 166.335938 L 186.367188 169.089844 L 183.996094 161.972656 "/>
<path fill="none" stroke-width="5.5" stroke-linecap="butt" stroke-linejoin="miter" stroke="rgb(70.196078%, 70.196078%, 70.196078%)" stroke-opacity="1" stroke-miterlimit="10" d="M 442.769531 410.316406 C 425.453125 399.117188 406.503906 395.21875 387.003906 401.820312 "/>
<path fill-rule="nonzero" fill="rgb(70.196078%, 70.196078%, 70.196078%)" fill-opacity="1" d="M 380.246094 404.105469 L 386.257812 399.625 L 387.746094 404.015625 L 380.246094 404.105469 "/>
<path fill="none" stroke-width="5.5" stroke-linecap="butt" stroke-linejoin="miter" stroke="rgb(70.196078%, 70.196078%, 70.196078%)" stroke-opacity="1" stroke-miterlimit="10" d="M 505.753906 415.171875 C 488.953125 404.417969 470.585938 400.695312 451.765625 407.207031 "/>
<path fill-rule="nonzero" fill="rgb(70.196078%, 70.196078%, 70.196078%)" fill-opacity="1" d="M 445.023438 409.535156 L 451.007812 405.015625 L 452.519531 409.394531 L 445.023438 409.535156 "/>
<path fill="none" stroke-width="5.5" stroke-linecap="butt" stroke-linejoin="miter" stroke="rgb(70.196078%, 70.196078%, 70.196078%)" stroke-opacity="1" stroke-miterlimit="10" d="M 567.660156 419.78125 C 551.179688 409.261719 533.171875 405.617188 514.742188 412.039062 "/>
<path fill-rule="nonzero" fill="rgb(70.196078%, 70.196078%, 70.196078%)" fill-opacity="1" d="M 508.003906 414.386719 L 513.980469 409.851562 L 515.503906 414.226562 L 508.003906 414.386719 "/>
<path fill="none" stroke-width="1.5" stroke-linecap="butt" stroke-linejoin="miter" stroke="rgb(12.156863%, 47.058824%, 70.588235%)" stroke-opacity="1" stroke-miterlimit="10" d="M 239.988281 50 C 226.105469 90.0625 228.601562 129.136719 250.324219 165.535156 "/>
<path fill-rule="nonzero" fill="rgb(12.156863%, 47.058824%, 70.588235%)" fill-opacity="1" d="M 253.976562 171.660156 L 248.332031 166.722656 L 252.3125 164.347656 L 253.976562 171.660156 "/>
<path fill="none" stroke-width="2.5" stroke-linecap="butt" stroke-linejoin="miter" stroke="rgb(12.156863%, 47.058824%, 70.588235%)" stroke-opacity="1" stroke-miterlimit="10" d="M 254.589844 172.6875 C 226.101562 193.707031 209.148438 221.785156 207.113281 257.113281 "/>
<path fill-rule="nonzero" fill="rgb(12.156863%, 47.058824%, 70.588235%)" fill-opacity="1" d="M 206.703125 264.234375 L 204.800781 256.980469 L 209.429688 257.246094 L 206.703125 264.234375 "/>
<path fill="none" stroke-width="4.5" stroke-linecap="butt" stroke-linejoin="miter" stroke="rgb(70.196078%, 70.196078%, 70.196078%)" stroke-opacity="1" stroke-miterlimit="10" d="M 236.6875 388.125 C 208.878906 417.785156 195.734375 452.996094 200.609375 493.34375 "/>
<path fill-rule="nonzero" fill="rgb(70.196078%, 70.196078%, 70.196078%)" fill-opacity="1" d="M 201.46875 500.425781 L 198.308594 493.621094 L 202.910156 493.066406 L 201.46875 500.425781 "/>
<path fill="none" stroke-width="1.5" stroke-linecap="butt" stroke-linejoin="miter" stroke="rgb(12.156863%, 47.058824%, 70.588235%)" stroke-opacity="1" stroke-miterlimit="10" d="M 236.6875 388.125 C 245.691406 346.492188 238.484375 307.808594 212.402344 274.148438 "/>
<path fill-rule="nonzero" fill="rgb(12.156863%, 47.058824%, 70.588235%)" fill-opacity="1" d="M 208.03125 268.511719 L 214.234375 272.730469 L 210.570312 275.570312 L 208.03125 268.511719 "/>
<path fill="none" stroke-width="5.5" stroke-linecap="butt" stroke-linejoin="miter" stroke="rgb(70.196078%, 70.196078%, 70.196078%)" stroke-opacity="1" stroke-miterlimit="10" d="M 377.984375 404.871094 C 359.839844 392.75 339.875 388.382812 319.109375 394.996094 "/>
<path fill-rule="nonzero" fill="rgb(70.196078%, 70.196078%, 70.196078%)" fill-opacity="1" d="M 312.3125 397.160156 L 318.40625 392.789062 L 319.8125 397.203125 L 312.3125 397.160156 "/>
<path fill="none" stroke-width="5.5" stroke-linecap="butt" stroke-linejoin="miter" stroke="rgb(70.196078%, 70.196078%, 70.196078%)" stroke-opacity="1" stroke-miterlimit="10" d="M 310.039062 397.886719 C 290.496094 384.128906 268.785156 378.914062 245.839844 385.5 "/>
<path fill-rule="nonzero" fill="rgb(70.196078%, 70.196078%, 70.196078%)" fill-opacity="1" d="M 238.984375 387.46875 L 245.199219 383.273438 L 246.480469 387.726562 L 238.984375 387.46875 "/>
<path fill="none" stroke-width="1.5" stroke-linecap="butt" stroke-linejoin="miter" stroke="rgb(41.568627%, 23.921569%, 60.392157%)" stroke-opacity="1" stroke-miterlimit="10" d="M 195.160156 618.777344 C 214.53125 584.582031 218.902344 548.5 205.101562 511.71875 "/>
<path fill-rule="nonzero" fill="rgb(41.568627%, 23.921569%, 60.392157%)" fill-opacity="1" d="M 202.59375 505.039062 L 207.269531 510.902344 L 202.929688 512.53125 L 202.59375 505.039062 "/>
<path fill="none" stroke-width="1.5" stroke-linecap="butt" stroke-linejoin="miter" stroke="rgb(41.568627%, 23.921569%, 60.392157%)" stroke-opacity="1" stroke-miterlimit="10" d="M 195.160156 618.777344 C 189.914062 609.675781 182.253906 602.949219 171.855469 601.957031 "/>
<path fill-rule="nonzero" fill="rgb(41.568627%, 23.921569%, 60.392157%)" fill-opacity="1" d="M 164.757812 601.28125 L 172.078125 599.652344 L 171.636719 604.265625 L 164.757812 601.28125 "/>
<path fill="none" stroke-width="1.5" stroke-linecap="butt" stroke-linejoin="miter" stroke="rgb(98.431373%, 60.392157%, 60%)" stroke-opacity="1" stroke-miterlimit="10" d="M 195.160156 618.777344 C 171.546875 657.765625 165.46875 699.375 180.019531 742.558594 "/>
<path fill-rule="nonzero" fill="rgb(98.431373%, 60.392157%, 60%)" fill-opacity="1" d="M 182.300781 749.320312 L 177.824219 743.300781 L 182.21875 741.820312 L 182.300781 749.320312 "/>
<path fill="none" stroke-width="1.5" stroke-linecap="butt" stroke-linejoin="miter" stroke="rgb(98.431373%, 60.392157%, 60%)" stroke-opacity="1" stroke-miterlimit="10" d="M 221.429688 700.191406 C 218.378906 661.292969 201.941406 629.167969 170.15625 606.570312 "/>
<path fill-rule="nonzero" fill="rgb(98.431373%, 60.392157%, 60%)" fill-opacity="1" d="M 164.339844 602.441406 L 171.496094 604.683594 L 168.8125 608.460938 L 164.339844 602.441406 "/>
<path fill="none" stroke-width="1.5" stroke-linecap="butt" stroke-linejoin="miter" stroke="rgb(98.431373%, 60.392157%, 60%)" stroke-opacity="1" stroke-miterlimit="10" d="M 182.527344 750 C 172.84375 733.257812 158.683594 721.847656 139.566406 719.101562 "/>
<path fill-rule="nonzero" fill="rgb(98.431373%, 60.392157%, 60%)" fill-opacity="1" d="M 132.507812 718.085938 L 139.898438 716.804688 L 139.238281 721.394531 L 132.507812 718.085938 "/>
<path fill="none" stroke-width="1.5" stroke-linecap="butt" stroke-linejoin="miter" stroke="rgb(98.431373%, 60.392157%, 60%)" stroke-opacity="1" stroke-miterlimit="10" d="M 112.121094 634.945312 C 138.804688 642.644531 164.515625 639.988281 187.328125 624.195312 "/>
<path fill-rule="nonzero" fill="rgb(98.431373%, 60.392157%, 60%)" fill-opacity="1" d="M 193.195312 620.136719 L 188.648438 626.101562 L 186.011719 622.289062 L 193.195312 620.136719 "/>
<path fill="none" stroke-width="5.5" stroke-linecap="butt" stroke-linejoin="miter" stroke="rgb(70.196078%, 70.196078%, 70.196078%)" stroke-opacity="1" stroke-miterlimit="10" d="M 628.871094 424.285156 C 612.609375 413.90625 594.828125 410.292969 576.644531 416.644531 "/>
<path fill-rule="nonzero" fill="rgb(70.196078%, 70.196078%, 70.196078%)" fill-opacity="1" d="M 569.910156 418.996094 L 575.878906 414.457031 L 577.410156 418.832031 L 569.910156 418.996094 "/>
<path fill="none" stroke-width="1.5" stroke-linecap="butt" stroke-linejoin="miter" stroke="rgb(41.568627%, 23.921569%, 60.392157%)" stroke-opacity="1" stroke-miterlimit="10" d="M 139.558594 508.65625 C 157.703125 516.3125 176.199219 516.878906 193.417969 507.394531 "/>
<path fill-rule="nonzero" fill="rgb(41.568627%, 23.921569%, 60.392157%)" fill-opacity="1" d="M 199.664062 503.949219 L 194.535156 509.421875 L 192.300781 505.363281 L 199.664062 503.949219 "/>
<path fill="none" stroke-width="1.5" stroke-linecap="butt" stroke-linejoin="miter" stroke="rgb(98.431373%, 60.392157%, 60%)" stroke-opacity="1" stroke-miterlimit="10" d="M 139.558594 508.65625 C 132.503906 539.496094 137.285156 568.46875 156.578125 593.511719 "/>
<path fill-rule="nonzero" fill="rgb(98.431373%, 60.392157%, 60%)" fill-opacity="1" d="M 160.933594 599.160156 L 154.742188 594.925781 L 158.414062 592.097656 L 160.933594 599.160156 "/>
<path fill="none" stroke-width="1.5" stroke-linecap="butt" stroke-linejoin="miter" stroke="rgb(12.156863%, 47.058824%, 70.588235%)" stroke-opacity="1" stroke-miterlimit="10" d="M 176.621094 57.539062 C 196.023438 64.859375 215.453125 64.621094 233.246094 54.019531 "/>
<path fill-rule="nonzero" fill="rgb(12.156863%, 47.058824%, 70.588235%)" fill-opacity="1" d="M 239.371094 50.367188 L 234.429688 56.011719 L 232.058594 52.027344 L 239.371094 50.367188 "/>
<path fill="none" stroke-width="1.5" stroke-linecap="butt" stroke-linejoin="miter" stroke="rgb(12.156863%, 47.058824%, 70.588235%)" stroke-opacity="1" stroke-miterlimit="10" d="M 176.621094 57.539062 C 146.1875 66.472656 123.199219 84.859375 110.726562 114 "/>
<path fill-rule="nonzero" fill="rgb(12.156863%, 47.058824%, 70.588235%)" fill-opacity="1" d="M 107.917969 120.558594 L 108.597656 113.089844 L 112.855469 114.914062 L 107.917969 120.558594 "/>
<path fill="none" stroke-width="1.5" stroke-linecap="butt" stroke-linejoin="miter" stroke="rgb(12.156863%, 47.058824%, 70.588235%)" stroke-opacity="1" stroke-miterlimit="10" d="M 183.570312 161.394531 C 183.914062 123.390625 170.6875 90.824219 141.765625 66.1875 "/>
<path fill-rule="nonzero" fill="rgb(12.156863%, 47.058824%, 70.588235%)" fill-opacity="1" d="M 136.335938 61.5625 L 143.265625 64.425781 L 140.261719 67.953125 L 136.335938 61.5625 "/>
<path fill="none" stroke-width="1.5" stroke-linecap="butt" stroke-linejoin="miter" stroke="rgb(12.156863%, 47.058824%, 70.588235%)" stroke-opacity="1" stroke-miterlimit="10" d="M 183.570312 161.394531 C 197.023438 128.773438 196.976562 96.097656 180.511719 64.90625 "/>
<path fill-rule="nonzero" fill="rgb(12.156863%, 47.058824%, 70.588235%)" fill-opacity="1" d="M 177.179688 58.597656 L 182.558594 63.824219 L 178.460938 65.988281 L 177.179688 58.597656 "/>
<path fill="none" stroke-width="1.5" stroke-linecap="butt" stroke-linejoin="miter" stroke="rgb(12.156863%, 47.058824%, 70.588235%)" stroke-opacity="1" stroke-miterlimit="10" d="M 50 59.375 C 57.523438 86.480469 73.476562 107.21875 99.199219 118.546875 "/>
<path fill-rule="nonzero" fill="rgb(12.156863%, 47.058824%, 70.588235%)" fill-opacity="1" d="M 105.730469 121.421875 L 98.265625 120.667969 L 100.132812 116.425781 L 105.730469 121.421875 "/>
<path fill="none" stroke-width="1.5" stroke-linecap="butt" stroke-linejoin="miter" stroke="rgb(12.156863%, 47.058824%, 70.588235%)" stroke-opacity="1" stroke-miterlimit="10" d="M 107.261719 122.097656 C 99.046875 161.550781 106.121094 198.105469 131.054688 229.746094 "/>
<path fill-rule="nonzero" fill="rgb(12.156863%, 47.058824%, 70.588235%)" fill-opacity="1" d="M 135.472656 235.347656 L 129.234375 231.179688 L 132.875 228.308594 L 135.472656 235.347656 "/>
<path fill="none" stroke-width="1.5" stroke-linecap="butt" stroke-linejoin="miter" stroke="rgb(12.156863%, 47.058824%, 70.588235%)" stroke-opacity="1" stroke-miterlimit="10" d="M 107.261719 122.097656 C 137.828125 113.046875 160.871094 94.511719 173.355469 65.203125 "/>
<path fill-rule="nonzero" fill="rgb(12.156863%, 47.058824%, 70.588235%)" fill-opacity="1" d="M 176.152344 58.640625 L 175.488281 66.109375 L 171.222656 64.292969 L 176.152344 58.640625 "/>
<path fill="none" stroke-width="1.5" stroke-linecap="butt" stroke-linejoin="miter" stroke="rgb(12.156863%, 47.058824%, 70.588235%)" stroke-opacity="1" stroke-miterlimit="10" d="M 107.261719 122.097656 C 99.511719 94.726562 83.257812 73.867188 57.199219 62.511719 "/>
<path fill-rule="nonzero" fill="rgb(12.156863%, 47.058824%, 70.588235%)" fill-opacity="1" d="M 50.660156 59.660156 L 58.125 60.386719 L 56.273438 64.636719 L 50.660156 59.660156 "/>
<path fill="none" stroke-width="5.5" stroke-linecap="butt" stroke-linejoin="miter" stroke="rgb(70.196078%, 70.196078%, 70.196078%)" stroke-opacity="1" stroke-miterlimit="10" d="M 689.613281 428.75 C 673.5 418.453125 655.878906 414.855469 637.859375 421.148438 "/>
<path fill-rule="nonzero" fill="rgb(70.196078%, 70.196078%, 70.196078%)" fill-opacity="1" d="M 631.125 423.5 L 637.09375 418.960938 L 638.621094 423.335938 L 631.125 423.5 "/>
<path fill="none" stroke-width="5.5" stroke-linecap="butt" stroke-linejoin="miter" stroke="rgb(70.196078%, 70.196078%, 70.196078%)" stroke-opacity="1" stroke-miterlimit="10" d="M 750 433.199219 C 734.003906 422.960938 716.5 419.367188 698.597656 425.613281 "/>
<path fill-rule="nonzero" fill="rgb(70.196078%, 70.196078%, 70.196078%)" fill-opacity="1" d="M 691.863281 427.964844 L 697.835938 423.425781 L 699.363281 427.800781 L 691.863281 427.964844 "/>
<path fill-rule="nonzero" fill="rgb(14.901961%, 14.901961%, 14.901961%)" fill-opacity="1" stroke-width="1" stroke-linecap="butt" stroke-linejoin="miter" stroke="rgb(14.901961%, 14.901961%, 14.901961%)" stroke-opacity="1" stroke-miterlimit="10" d="M 199.253906 505.300781 L 201.753906 500.300781 L 204.253906 505.300781 Z M 199.253906 505.300781 "/>
<path fill-rule="nonzero" fill="rgb(70.196078%, 70.196078%, 70.196078%)" fill-opacity="1" stroke-width="1" stroke-linecap="butt" stroke-linejoin="miter" stroke="rgb(70.196078%, 70.196078%, 70.196078%)" stroke-opacity="1" stroke-miterlimit="10" d="M 164.890625 601.054688 C 164.890625 604.386719 159.890625 604.386719 159.890625 601.054688 C 159.890625 597.722656 164.890625 597.722656 164.890625 601.054688 "/>
<path fill-rule="nonzero" fill="rgb(14.901961%, 14.901961%, 14.901961%)" fill-opacity="1" stroke-width="1" stroke-linecap="butt" stroke-linejoin="miter" stroke="rgb(14.901961%, 14.901961%, 14.901961%)" stroke-opacity="1" stroke-miterlimit="10" d="M 128.132812 720.03125 L 130.382812 715.53125 L 132.632812 720.03125 Z M 128.132812 720.03125 "/>
<path fill-rule="nonzero" fill="rgb(12.156863%, 47.058824%, 70.588235%)" fill-opacity="1" stroke-width="1" stroke-linecap="butt" stroke-linejoin="miter" stroke="rgb(12.156863%, 47.058824%, 70.588235%)" stroke-opacity="1" stroke-miterlimit="10" d="M 136.667969 235.910156 C 136.667969 236.910156 135.167969 236.910156 135.167969 235.910156 C 135.167969 234.910156 136.667969 234.910156 136.667969 235.910156 "/>
<path fill-rule="nonzero" fill="rgb(12.156863%, 47.058824%, 70.588235%)" fill-opacity="1" stroke-width="1" stroke-linecap="butt" stroke-linejoin="miter" stroke="rgb(12.156863%, 47.058824%, 70.588235%)" stroke-opacity="1" stroke-miterlimit="10" d="M 136.539062 61.097656 C 136.539062 62.097656 135.039062 62.097656 135.039062 61.097656 C 135.039062 60.097656 136.539062 60.097656 136.539062 61.097656 "/>
<path fill-rule="nonzero" fill="rgb(14.901961%, 14.901961%, 14.901961%)" fill-opacity="1" stroke-width="1" stroke-linecap="butt" stroke-linejoin="miter" stroke="rgb(14.901961%, 14.901961%, 14.901961%)" stroke-opacity="1" stroke-miterlimit="10" d="M 204.066406 269.121094 L 206.566406 264.121094 L 209.066406 269.121094 Z M 204.066406 269.121094 "/>
<path fill-rule="nonzero" fill="rgb(70.196078%, 70.196078%, 70.196078%)" fill-opacity="1" stroke-width="1" stroke-linecap="butt" stroke-linejoin="miter" stroke="rgb(70.196078%, 70.196078%, 70.196078%)" stroke-opacity="1" stroke-miterlimit="10" d="M 445.269531 410.316406 C 445.269531 413.648438 440.269531 413.648438 440.269531 410.316406 C 440.269531 406.984375 445.269531 406.984375 445.269531 410.316406 "/>
<path fill-rule="nonzero" fill="rgb(70.196078%, 70.196078%, 70.196078%)" fill-opacity="1" stroke-width="1" stroke-linecap="butt" stroke-linejoin="miter" stroke="rgb(70.196078%, 70.196078%, 70.196078%)" stroke-opacity="1" stroke-miterlimit="10" d="M 508.253906 415.171875 C 508.253906 418.503906 503.253906 418.503906 503.253906 415.171875 C 503.253906 411.835938 508.253906 411.835938 508.253906 415.171875 "/>
<path fill-rule="nonzero" fill="rgb(70.196078%, 70.196078%, 70.196078%)" fill-opacity="1" stroke-width="1" stroke-linecap="butt" stroke-linejoin="miter" stroke="rgb(70.196078%, 70.196078%, 70.196078%)" stroke-opacity="1" stroke-miterlimit="10" d="M 570.160156 419.78125 C 570.160156 423.113281 565.160156 423.113281 565.160156 419.78125 C 565.160156 416.449219 570.160156 416.449219 570.160156 419.78125 "/>
<path fill-rule="nonzero" fill="rgb(12.156863%, 47.058824%, 70.588235%)" fill-opacity="1" stroke-width="1" stroke-linecap="butt" stroke-linejoin="miter" stroke="rgb(12.156863%, 47.058824%, 70.588235%)" stroke-opacity="1" stroke-miterlimit="10" d="M 240.738281 50 C 240.738281 51 239.238281 51 239.238281 50 C 239.238281 49 240.738281 49 240.738281 50 "/>
<path fill-rule="nonzero" fill="rgb(12.156863%, 47.058824%, 70.588235%)" fill-opacity="1" stroke-width="1" stroke-linecap="butt" stroke-linejoin="miter" stroke="rgb(12.156863%, 47.058824%, 70.588235%)" stroke-opacity="1" stroke-miterlimit="10" d="M 255.839844 172.6875 C 255.839844 174.355469 253.339844 174.355469 253.339844 172.6875 C 253.339844 171.023438 255.839844 171.023438 255.839844 172.6875 "/>
<path fill-rule="nonzero" fill="rgb(70.196078%, 70.196078%, 70.196078%)" fill-opacity="1" stroke-width="1" stroke-linecap="butt" stroke-linejoin="miter" stroke="rgb(70.196078%, 70.196078%, 70.196078%)" stroke-opacity="1" stroke-miterlimit="10" d="M 239.1875 388.125 C 239.1875 391.457031 234.1875 391.457031 234.1875 388.125 C 234.1875 384.792969 239.1875 384.792969 239.1875 388.125 "/>
<path fill-rule="nonzero" fill="rgb(70.196078%, 70.196078%, 70.196078%)" fill-opacity="1" stroke-width="1" stroke-linecap="butt" stroke-linejoin="miter" stroke="rgb(70.196078%, 70.196078%, 70.196078%)" stroke-opacity="1" stroke-miterlimit="10" d="M 380.484375 404.871094 C 380.484375 408.203125 375.484375 408.203125 375.484375 404.871094 C 375.484375 401.539062 380.484375 401.539062 380.484375 404.871094 "/>
<path fill-rule="nonzero" fill="rgb(70.196078%, 70.196078%, 70.196078%)" fill-opacity="1" stroke-width="1" stroke-linecap="butt" stroke-linejoin="miter" stroke="rgb(70.196078%, 70.196078%, 70.196078%)" stroke-opacity="1" stroke-miterlimit="10" d="M 312.539062 397.886719 C 312.539062 401.21875 307.539062 401.21875 307.539062 397.886719 C 307.539062 394.550781 312.539062 394.550781 312.539062 397.886719 "/>
<path fill-rule="nonzero" fill="rgb(70.196078%, 70.196078%, 70.196078%)" fill-opacity="1" stroke-width="1" stroke-linecap="butt" stroke-linejoin="miter" stroke="rgb(70.196078%, 70.196078%, 70.196078%)" stroke-opacity="1" stroke-miterlimit="10" d="M 197.660156 618.777344 C 197.660156 622.109375 192.660156 622.109375 192.660156 618.777344 C 192.660156 615.445312 197.660156 615.445312 197.660156 618.777344 "/>
<path fill-rule="nonzero" fill="rgb(98.431373%, 60.392157%, 60%)" fill-opacity="1" stroke-width="1" stroke-linecap="butt" stroke-linejoin="miter" stroke="rgb(98.431373%, 60.392157%, 60%)" stroke-opacity="1" stroke-miterlimit="10" d="M 222.179688 700.191406 C 222.179688 701.191406 220.679688 701.191406 220.679688 700.191406 C 220.679688 699.191406 222.179688 699.191406 222.179688 700.191406 "/>
<path fill-rule="nonzero" fill="rgb(98.431373%, 60.392157%, 60%)" fill-opacity="1" stroke-width="1" stroke-linecap="butt" stroke-linejoin="miter" stroke="rgb(98.431373%, 60.392157%, 60%)" stroke-opacity="1" stroke-miterlimit="10" d="M 183.277344 750 C 183.277344 751 181.777344 751 181.777344 750 C 181.777344 749 183.277344 749 183.277344 750 "/>
<path fill-rule="nonzero" fill="rgb(98.431373%, 60.392157%, 60%)" fill-opacity="1" stroke-width="1" stroke-linecap="butt" stroke-linejoin="miter" stroke="rgb(98.431373%, 60.392157%, 60%)" stroke-opacity="1" stroke-miterlimit="10" d="M 112.871094 634.945312 C 112.871094 635.945312 111.371094 635.945312 111.371094 634.945312 C 111.371094 633.945312 112.871094 633.945312 112.871094 634.945312 "/>
<path fill-rule="nonzero" fill="rgb(70.196078%, 70.196078%, 70.196078%)" fill-opacity="1" stroke-width="1" stroke-linecap="butt" stroke-linejoin="miter" stroke="rgb(70.196078%, 70.196078%, 70.196078%)" stroke-opacity="1" stroke-miterlimit="10" d="M 631.371094 424.285156 C 631.371094 427.621094 626.371094 427.621094 626.371094 424.285156 C 626.371094 420.953125 631.371094 420.953125 631.371094 424.285156 "/>
<path fill-rule="nonzero" fill="rgb(70.196078%, 70.196078%, 70.196078%)" fill-opacity="1" stroke-width="1" stroke-linecap="butt" stroke-linejoin="miter" stroke="rgb(70.196078%, 70.196078%, 70.196078%)" stroke-opacity="1" stroke-miterlimit="10" d="M 142.058594 508.65625 C 142.058594 511.992188 137.058594 511.992188 137.058594 508.65625 C 137.058594 505.324219 142.058594 505.324219 142.058594 508.65625 "/>
<path fill-rule="nonzero" fill="rgb(12.156863%, 47.058824%, 70.588235%)" fill-opacity="1" stroke-width="1" stroke-linecap="butt" stroke-linejoin="miter" stroke="rgb(12.156863%, 47.058824%, 70.588235%)" stroke-opacity="1" stroke-miterlimit="10" d="M 177.871094 57.539062 C 177.871094 59.203125 175.371094 59.203125 175.371094 57.539062 C 175.371094 55.871094 177.871094 55.871094 177.871094 57.539062 "/>
<path fill-rule="nonzero" fill="rgb(12.156863%, 47.058824%, 70.588235%)" fill-opacity="1" stroke-width="1" stroke-linecap="butt" stroke-linejoin="miter" stroke="rgb(12.156863%, 47.058824%, 70.588235%)" stroke-opacity="1" stroke-miterlimit="10" d="M 184.320312 161.394531 C 184.320312 162.394531 182.820312 162.394531 182.820312 161.394531 C 182.820312 160.394531 184.320312 160.394531 184.320312 161.394531 "/>
<path fill-rule="nonzero" fill="rgb(12.156863%, 47.058824%, 70.588235%)" fill-opacity="1" stroke-width="1" stroke-linecap="butt" stroke-linejoin="miter" stroke="rgb(12.156863%, 47.058824%, 70.588235%)" stroke-opacity="1" stroke-miterlimit="10" d="M 50.75 59.375 C 50.75 60.375 49.25 60.375 49.25 59.375 C 49.25 58.375 50.75 58.375 50.75 59.375 "/>
<path fill-rule="nonzero" fill="rgb(12.156863%, 47.058824%, 70.588235%)" fill-opacity="1" stroke-width="1" stroke-linecap="butt" stroke-linejoin="miter" stroke="rgb(12.156863%, 47.058824%, 70.588235%)" stroke-opacity="1" stroke-miterlimit="10" d="M 109.011719 122.097656 C 109.011719 124.429688 105.511719 124.429688 105.511719 122.097656 C 105.511719 119.765625 109.011719 119.765625 109.011719 122.097656 "/>
<path fill-rule="nonzero" fill="rgb(70.196078%, 70.196078%, 70.196078%)" fill-opacity="1" stroke-width="1" stroke-linecap="butt" stroke-linejoin="miter" stroke="rgb(70.196078%, 70.196078%, 70.196078%)" stroke-opacity="1" stroke-miterlimit="10" d="M 692.113281 428.75 C 692.113281 432.082031 687.113281 432.082031 687.113281 428.75 C 687.113281 425.414062 692.113281 425.414062 692.113281 428.75 "/>
<path fill-rule="nonzero" fill="rgb(100%, 84.313725%, 0%)" fill-opacity="1" stroke-width="1" stroke-linecap="butt" stroke-linejoin="miter" stroke="rgb(100%, 84.313725%, 0%)" stroke-opacity="1" stroke-miterlimit="10" d="M 747.5 430.699219 L 752.5 430.699219 L 752.5 435.699219 L 747.5 435.699219 Z M 747.5 430.699219 "/>
</svg>
