<?xml version="1.0" encoding="UTF-8"?>
<svg xmlns="http://www.w3.org/2000/svg" xmlns:xlink="http://www.w3.org/1999/xlink" width="800" height="800" viewBox="0 0 800 800">
<rect x="-80" y="-80" width="960" height="960" fill="rgb(100%, 100%, 100%)" fill-opacity="1"/>
<path fill="none" stroke-width="2.5" stroke-linecap="butt" stroke-linejoin="miter" stroke="rgb(70.196078%, 70.196078%, 70.196078%)" stroke-opacity="1" stroke-miterlimit="10" d="M 210.277344 400 C 266.914062 288.734375 273.421875 174.589844 226.660156 58.835938 "/>
<path fill-rule="nonzero" fill="rgb(70.196078%, 70.196078%, 70.196078%)" fill-opacity="1" d="M 223.988281 52.222656 L 228.808594 57.96875 L 224.511719 59.703125 L 223.988281 52.222656 "/>
<path fill="none" stroke-width="1.5" stroke-linecap="butt" stroke-linejoin="miter" stroke="rgb(12.156863%, 47.058824%, 70.588235%)" stroke-opacity="1" stroke-miterlimit="10" d="M 210.277344 400 C 186.878906 315.554688 136.285156 253.105469 57.097656 215.597656 "/>
<path fill-rule="nonzero" fill="rgb(12.156863%, 47.058824%, 70.588235%)" fill-opacity="1" d="M 50.648438 212.542969 L 58.089844 213.503906 L 56.105469 217.691406 L 50.648438 212.542969 "/>
<path fill="none" stroke-width="1.5" stroke-linecap="butt" stroke-linejoin="miter" stroke="rgb(12.156863%, 47.058824%, 70.588235%)" stroke-opacity="1" stroke-miterlimit="10" d="M 210.277344 400 C 130.554688 436.363281 76.820312 496.136719 52.207031 580.226562 "/>
<path fill-rule="nonzero" fill="rgb(12.156863%, 47.058824%, 70.588235%)" fill-opacity="1" d="M 50.203125 587.074219 L 49.980469 579.578125 L 54.429688 580.878906 L 50.203125 587.074219 "/>
<path fill="none" stroke-width="1.5" stroke-linecap="butt" stroke-linejoin="miter" stroke="rgb(12.156863%, 47.058824%, 70.588235%)" stroke-opacity="1" stroke-miterlimit="10" d="M 210.277344 400 C 161.945312 515.71875 164.082031 630.523438 219.613281 742.960938 "/>
<path fill-rule="nonzero" fill="rgb(12.156863%, 47.058824%, 70.588235%)" fill-opacity="1" d="M 222.773438 749.355469 L 217.535156 743.984375 L 221.691406 741.933594 L 222.773438 749.355469 "/>
<path fill="none" stroke-width="2.5" stroke-linecap="butt" stroke-linejoin="miter" stroke="rgb(70.196078%, 70.196078%, 70.196078%)" stroke-opacity="1" stroke-miterlimit="10" d="M 223.089844 50 C 166.457031 161.265625 159.949219 275.410156 206.710938 391.164062 "/>
<path fill-rule="nonzero" fill="rgb(70.196078%, 70.196078%, 70.196078%)" fill-opacity="1" d="M 209.382812 397.777344 L 204.5625 392.03125 L 208.859375 390.296875 L 209.382812 397.777344 "/>
<path fill="none" stroke-width="1.5" stroke-linecap="butt" stroke-linejoin="miter" stroke="rgb(12.156863%, 47.058824%, 70.588235%)" stroke-opacity="1" stroke-miterlimit="10" d="M 50 212.234375 C 73.007812 296.210938 123.082031 358.449219 201.679688 395.902344 "/>
<path fill-rule="nonzero" fill="rgb(12.156863%, 47.058824%, 70.588235%)" fill-opacity="1" d="M 208.117188 398.96875 L 200.679688 397.992188 L 202.675781 393.808594 L 208.117188 398.96875 "/>
<path fill="none" stroke-width="1.5" stroke-linecap="butt" stroke-linejoin="miter" stroke="rgb(12.156863%, 47.058824%, 70.588235%)" stroke-opacity="1" stroke-miterlimit="10" d="M 50 587.765625 C 129.320312 551.859375 182.929688 492.636719 207.582031 409.136719 "/>
<path fill-rule="nonzero" fill="rgb(12.156863%, 47.058824%, 70.588235%)" fill-opacity="1" d="M 209.601562 402.296875 L 209.804688 409.792969 L 205.359375 408.480469 L 209.601562 402.296875 "/>
<path fill="none" stroke-width="1.5" stroke-linecap="butt" stroke-linejoin="miter" stroke="rgb(12.156863%, 47.058824%, 70.588235%)" stroke-opacity="1" stroke-miterlimit="10" d="M 223.089844 750 C 271.441406 634.894531 269.585938 520.578125 214.484375 408.550781 "/>
<path fill-rule="nonzero" fill="rgb(12.156863%, 47.058824%, 70.588235%)" fill-opacity="1" d="M 211.335938 402.148438 L 216.566406 407.527344 L 212.40625 409.574219 L 211.335938 402.148438 "/>
<path fill="none" stroke-width="5.5" stroke-linecap="butt" stroke-linejoin="miter" stroke="rgb(70.196078%, 70.196078%, 70.196078%)" stroke-opacity="1" stroke-miterlimit="10" d="M 401.457031 400 C 341.214844 371.339844 279.929688 369.015625 218.984375 396.128906 "/>
<path fill-rule="nonzero" fill="rgb(70.196078%, 70.196078%, 70.196078%)" fill-opacity="1" d="M 212.464844 399.027344 L 218.042969 394.011719 L 219.925781 398.246094 L 212.464844 399.027344 "/>
<path fill="none" stroke-width="5.5" stroke-linecap="butt" stroke-linejoin="miter" stroke="rgb(70.196078%, 70.196078%, 70.196078%)" stroke-opacity="1" stroke-miterlimit="10" d="M 578.363281 400 C 522.878906 373.480469 466.351562 371.160156 410.164062 396.132812 "/>
<path fill-rule="nonzero" fill="rgb(70.196078%, 70.196078%, 70.196078%)" fill-opacity="1" d="M 403.644531 399.027344 L 409.222656 394.011719 L 411.105469 398.25 L 403.644531 399.027344 "/>
<path fill="none" stroke-width="5.5" stroke-linecap="butt" stroke-linejoin="miter" stroke="rgb(70.196078%, 70.196078%, 70.196078%)" stroke-opacity="1" stroke-miterlimit="10" d="M 750 400 C 696.269531 374.269531 641.5 371.949219 587.070312 396.132812 "/>
<path fill-rule="nonzero" fill="rgb(70.196078%, 70.196078%, 70.196078%)" fill-opacity="1" d="M 580.550781 399.027344 L 586.128906 394.015625 L 588.011719 398.25 L 580.550781 399.027344 "/>
<path fill-rule="nonzero" fill="rgb(14.901961%, 14.901961%, 14.901961%)" fill-opacity="1" stroke-width="1" stroke-linecap="butt" stroke-linejoin="miter" stroke="rgb(14.901961%, 14.901961%, 14.901961%)" stroke-opacity="1" stroke-miterlimit="10" d="M 207.777344 402.5 L 210.277344 397.5 L 212.777344 402.5 Z M 207.777344 402.5 "/>
<path fill-rule="nonzero" fill="rgb(70.196078%, 70.196078%, 70.196078%)" fill-opacity="1" stroke-width="1" stroke-linecap="butt" stroke-linejoin="miter" stroke="rgb(70.196078%, 70.196078%, 70.196078%)" stroke-opacity="1" stroke-miterlimit="10" d="M 225.589844 50 C 225.589844 53.332031 220.589844 53.332031 220.589844 50 C 220.589844 46.667969 225.589844 46.667969 225.589844 50 "/>
<path fill-rule="nonzero" fill="rgb(12.156863%, 47.058824%, 70.588235%)" fill-opacity="1" stroke-width="1" stroke-linecap="butt" stroke-linejoin="miter" stroke="rgb(12.156863%, 47.058824%, 70.588235%)" stroke-opacity="1" stroke-miterlimit="10" d="M 50.75 212.234375 C 50.75 213.234375 49.25 213.234375 49.25 212.234375 C 49.25 211.234375 50.75 211.234375 50.75 212.234375 "/>
<path fill-rule="nonzero" fill="rgb(12.156863%, 47.058824%, 70.588235%)" fill-opacity="1" stroke-width="1" stroke-linecap="butt" stroke-linejoin="miter" stroke="rgb(12.156863%, 47.058824%, 70.588235%)" stroke-opacity="1" stroke-miterlimit="10" d="M 50.75 587.765625 C 50.75 588.765625 49.25 588.765625 49.25 587.765625 C 49.25 586.765625 50.75 586.765625 50.75 587.765625 "/>
<path fill-rule="nonzero" fill="rgb(12.156863%, 47.058824%, 70.588235%)" fill-opacity="1" stroke-width="1" stroke-linecap="butt" stroke-linejoin="miter" stroke="rgb(12.156863%, 47.058824%, 70.588235%)" stroke-opacity="1" stroke-miterlimit="10" d="M 223.839844 750 C 223.839844 751 222.339844 751 222.339844 750 C 222.339844 749 223.839844 749 223.839844 750 "/>
<path fill-rule="nonzero" fill="rgb(70.196078%, 70.196078%, 70.196078%)" fill-opacity="1" stroke-width="1" stroke-linecap="butt" stroke-linejoin="miter" stroke="rgb(70.196078%, 70.196078%, 70.196078%)" stroke-opacity="1" stroke-miterlimit="10" d="M 403.957031 400 C 403.957031 403.332031 398.957031 403.332031 398.957031 400 C 398.957031 396.667969 403.957031 396.667969 403.957031 400 "/>
<path fill-rule="nonzero" fill="rgb(70.196078%, 70.196078%, 70.196078%)" fill-opacity="1" stroke-width="1" stroke-linecap="butt" stroke-linejoin="miter" stroke="rgb(70.196078%, 70.196078%, 70.196078%)" stroke-opacity="1" stroke-miterlimit="10" d="M 580.863281 400 C 580.863281 403.332031 575.863281 403.332031 575.863281 400 C 575.863281 396.667969 580.863281 396.667969 580.863281 400 "/>
<path fill-rule="nonzero" fill="rgb(100%, 84.313725%, 0%)" fill-opacity="1" stroke-width="1" stroke-linecap="butt" stroke-linejoin="miter" stroke="rgb(100%, 84.313725%, 0%)" stroke-opacity="1" stroke-miterlimit="10" d="M 747.5 397.5 L 752.5 397.5 L 752.5 402.5 L 747.5 402.5 Z M 747.5 397.5 "/>
</svg>
