<?xml version="1.0" encoding="UTF-8"?>
<svg xmlns="http://www.w3.org/2000/svg" xmlns:xlink="http://www.w3.org/1999/xlink" width="800" height="800" viewBox="0 0 800 800">
<rect x="-80" y="-80" width="960" height="960" fill="rgb(100%, 100%, 100%)" fill-opacity="1"/>
<path fill="none" stroke-width="1.5" stroke-linecap="butt" stroke-linejoin="miter" stroke="rgb(30.196078%, 68.627451%, 29.019608%)" stroke-opacity="1" stroke-miterlimit="10" d="M 100.648438 609.488281 C 100.816406 617.179688 103.234375 624.472656 109.699219 628.488281 "/>
<path fill-rule="nonzero" fill="rgb(30.196078%, 68.627451%, 29.019608%)" fill-opacity="1" d="M 115.757812 632.25 L 108.476562 630.457031 L 110.921875 626.519531 L 115.757812 632.25 "/>
<path fill="none" stroke-width="1.5" stroke-linecap="butt" stroke-linejoin="miter" stroke="rgb(12.156863%, 47.058824%, 70.588235%)" stroke-opacity="1" stroke-miterlimit="10" d="M 218.550781 193.644531 C 211.683594 197.542969 206.304688 203.277344 205.796875 211.074219 "/>
<path fill-rule="nonzero" fill="rgb(12.156863%, 47.058824%, 70.588235%)" fill-opacity="1" d="M 205.335938 218.195312 L 203.484375 210.925781 L 208.109375 211.226562 L 205.335938 218.195312 "/>
<path fill="none" stroke-width="1.5" stroke-linecap="butt" stroke-linejoin="miter" stroke="rgb(12.156863%, 47.058824%, 70.588235%)" stroke-opacity="1" stroke-miterlimit="10" d="M 146.804688 285.285156 C 139.703125 282.933594 132.214844 282.753906 126.453125 287.386719 "/>
<path fill-rule="nonzero" fill="rgb(12.156863%, 47.058824%, 70.588235%)" fill-opacity="1" d="M 120.894531 291.855469 L 125 285.578125 L 127.90625 289.191406 L 120.894531 291.855469 "/>
<path fill="none" stroke-width="1.5" stroke-linecap="butt" stroke-linejoin="miter" stroke="rgb(30.196078%, 68.627451%, 29.019608%)" stroke-opacity="1" stroke-miterlimit="10" d="M 324.667969 687.5 C 329.148438 693.515625 335.199219 697.96875 342.597656 697.476562 "/>
<path fill-rule="nonzero" fill="rgb(30.196078%, 68.627451%, 29.019608%)" fill-opacity="1" d="M 349.714844 697.003906 L 342.75 699.789062 L 342.441406 695.164062 L 349.714844 697.003906 "/>
<path fill="none" stroke-width="1.5" stroke-linecap="butt" stroke-linejoin="miter" stroke="rgb(12.156863%, 47.058824%, 70.588235%)" stroke-opacity="1" stroke-miterlimit="10" d="M 118.722656 293.601562 C 111.96875 290.113281 104.484375 288.757812 97.949219 292.480469 "/>
<path fill-rule="nonzero" fill="rgb(12.156863%, 47.058824%, 70.588235%)" fill-opacity="1" d="M 91.753906 296.015625 L 96.800781 290.46875 L 99.097656 294.496094 L 91.753906 296.015625 "/>
<path fill="none" stroke-width="1.5" stroke-linecap="butt" stroke-linejoin="miter" stroke="rgb(12.156863%, 47.058824%, 70.588235%)" stroke-opacity="1" stroke-miterlimit="10" d="M 171.632812 269.644531 C 164.140625 269.304688 156.863281 271.167969 152.558594 277.207031 "/>
<path fill-rule="nonzero" fill="rgb(12.156863%, 47.058824%, 70.588235%)" fill-opacity="1" d="M 148.421875 283.015625 L 150.671875 275.863281 L 154.449219 278.554688 L 148.421875 283.015625 "/>
<path fill="none" stroke-width="1.5" stroke-linecap="butt" stroke-linejoin="miter" stroke="rgb(12.156863%, 47.058824%, 70.588235%)" stroke-opacity="1" stroke-miterlimit="10" d="M 89.332031 297.394531 C 81.839844 297.722656 74.757812 300.226562 71.007812 306.621094 "/>
<path fill-rule="nonzero" fill="rgb(12.156863%, 47.058824%, 70.588235%)" fill-opacity="1" d="M 67.402344 312.773438 L 69.007812 305.449219 L 73.007812 307.792969 L 67.402344 312.773438 "/>
<path fill="none" stroke-width="1.5" stroke-linecap="butt" stroke-linejoin="miter" stroke="rgb(30.196078%, 68.627451%, 29.019608%)" stroke-opacity="1" stroke-miterlimit="10" d="M 118.125 633.722656 C 123.027344 639.132812 129.3125 642.917969 136.429688 641.722656 "/>
<path fill-rule="nonzero" fill="rgb(30.196078%, 68.627451%, 29.019608%)" fill-opacity="1" d="M 143.464844 640.542969 L 136.8125 644.007812 L 136.046875 639.4375 L 143.464844 640.542969 "/>
<path fill="none" stroke-width="1.5" stroke-linecap="butt" stroke-linejoin="miter" stroke="rgb(30.196078%, 68.627451%, 29.019608%)" stroke-opacity="1" stroke-miterlimit="10" d="M 296.316406 695.746094 C 303.488281 698.144531 311.058594 698.339844 316.910156 693.679688 "/>
<path fill-rule="nonzero" fill="rgb(30.196078%, 68.627451%, 29.019608%)" fill-opacity="1" d="M 322.488281 689.234375 L 318.351562 695.492188 L 315.464844 691.867188 L 322.488281 689.234375 "/>
<path fill="none" stroke-width="1.5" stroke-linecap="butt" stroke-linejoin="miter" stroke="rgb(30.196078%, 68.627451%, 29.019608%)" stroke-opacity="1" stroke-miterlimit="10" d="M 170.660156 655.300781 C 177.304688 659.082031 184.769531 660.746094 191.488281 657.273438 "/>
<path fill-rule="nonzero" fill="rgb(30.196078%, 68.627451%, 29.019608%)" fill-opacity="1" d="M 197.824219 654 L 192.550781 659.332031 L 190.425781 655.214844 L 197.824219 654 "/>
<path fill="none" stroke-width="1.5" stroke-linecap="butt" stroke-linejoin="miter" stroke="rgb(30.196078%, 68.627451%, 29.019608%)" stroke-opacity="1" stroke-miterlimit="10" d="M 220.453125 674.304688 C 221.316406 681.773438 224.328125 688.675781 230.992188 691.96875 "/>
<path fill-rule="nonzero" fill="rgb(30.196078%, 68.627451%, 29.019608%)" fill-opacity="1" d="M 237.386719 695.128906 L 229.964844 694.046875 L 232.019531 689.890625 L 237.386719 695.128906 "/>
<path fill="none" stroke-width="1.5" stroke-linecap="butt" stroke-linejoin="miter" stroke="rgb(30.196078%, 68.627451%, 29.019608%)" stroke-opacity="1" stroke-miterlimit="10" d="M 418.214844 750 C 424.710938 753.179688 431.898438 754.367188 437.984375 750.636719 "/>
<path fill-rule="nonzero" fill="rgb(30.196078%, 68.627451%, 29.019608%)" fill-opacity="1" d="M 444.066406 746.910156 L 439.195312 752.613281 L 436.773438 748.660156 L 444.066406 746.910156 "/>
<path fill="none" stroke-width="1.5" stroke-linecap="butt" stroke-linejoin="miter" stroke="rgb(30.196078%, 68.627451%, 29.019608%)" stroke-opacity="1" stroke-miterlimit="10" d="M 389.957031 742.542969 C 394.785156 748.226562 401.074219 752.265625 408.382812 751.300781 "/>
<path fill-rule="nonzero" fill="rgb(30.196078%, 68.627451%, 29.019608%)" fill-opacity="1" d="M 415.453125 750.363281 L 408.683594 753.597656 L 408.078125 749 L 415.453125 750.363281 "/>
<path fill="none" stroke-width="1.5" stroke-linecap="butt" stroke-linejoin="miter" stroke="rgb(30.196078%, 68.627451%, 29.019608%)" stroke-opacity="1" stroke-miterlimit="10" d="M 371.675781 719.328125 C 372.140625 726.886719 374.800781 733.984375 381.320312 737.664062 "/>
<path fill-rule="nonzero" fill="rgb(30.196078%, 68.627451%, 29.019608%)" fill-opacity="1" d="M 387.53125 741.171875 L 380.179688 739.683594 L 382.460938 735.648438 L 387.53125 741.171875 "/>
<path fill="none" stroke-width="1.5" stroke-linecap="butt" stroke-linejoin="miter" stroke="rgb(30.196078%, 68.627451%, 29.019608%)" stroke-opacity="1" stroke-miterlimit="10" d="M 352.496094 696.820312 C 353.253906 704.363281 356.191406 711.359375 362.855469 714.789062 "/>
<path fill-rule="nonzero" fill="rgb(30.196078%, 68.627451%, 29.019608%)" fill-opacity="1" d="M 369.199219 718.050781 L 361.796875 716.851562 L 363.917969 712.726562 L 369.199219 718.050781 "/>
<path fill="none" stroke-width="1.5" stroke-linecap="butt" stroke-linejoin="miter" stroke="rgb(98.431373%, 60.392157%, 60%)" stroke-opacity="1" stroke-miterlimit="10" d="M 294.160156 160.820312 C 300.421875 165.164062 307.683594 167.480469 314.65625 164.625 "/>
<path fill-rule="nonzero" fill="rgb(98.431373%, 60.392157%, 60%)" fill-opacity="1" d="M 321.257812 161.925781 L 315.535156 166.769531 L 313.78125 162.480469 L 321.257812 161.925781 "/>
<path fill="none" stroke-width="1.5" stroke-linecap="butt" stroke-linejoin="miter" stroke="rgb(12.156863%, 47.058824%, 70.588235%)" stroke-opacity="1" stroke-miterlimit="10" d="M 190.027344 246.585938 C 182.789062 248.753906 176.5 252.949219 174.410156 260.121094 "/>
<path fill-rule="nonzero" fill="rgb(12.156863%, 47.058824%, 70.588235%)" fill-opacity="1" d="M 172.414062 266.96875 L 172.183594 259.472656 L 176.636719 260.769531 L 172.414062 266.96875 "/>
<path fill="none" stroke-width="1.5" stroke-linecap="butt" stroke-linejoin="miter" stroke="rgb(30.196078%, 68.627451%, 29.019608%)" stroke-opacity="1" stroke-miterlimit="10" d="M 200.300781 652.71875 C 201.394531 660.207031 204.636719 667.050781 211.4375 670.171875 "/>
<path fill-rule="nonzero" fill="rgb(30.196078%, 68.627451%, 29.019608%)" fill-opacity="1" d="M 217.921875 673.144531 L 210.46875 672.277344 L 212.402344 668.0625 L 217.921875 673.144531 "/>
<path fill="none" stroke-width="1.5" stroke-linecap="butt" stroke-linejoin="miter" stroke="rgb(98.431373%, 60.392157%, 60%)" stroke-opacity="1" stroke-miterlimit="10" d="M 264.105469 162.203125 C 270.703125 166.300781 278.203125 168.261719 285.167969 165.015625 "/>
<path fill-rule="nonzero" fill="rgb(98.431373%, 60.392157%, 60%)" fill-opacity="1" d="M 291.632812 162 L 286.148438 167.113281 L 284.191406 162.914062 L 291.632812 162 "/>
<path fill="none" stroke-width="1.5" stroke-linecap="butt" stroke-linejoin="miter" stroke="rgb(30.196078%, 68.627451%, 29.019608%)" stroke-opacity="1" stroke-miterlimit="10" d="M 146.210938 640.085938 C 149.066406 646.804688 153.765625 652.4375 160.878906 653.644531 "/>
<path fill-rule="nonzero" fill="rgb(30.196078%, 68.627451%, 29.019608%)" fill-opacity="1" d="M 167.914062 654.835938 L 160.492188 655.929688 L 161.265625 651.359375 L 167.914062 654.835938 "/>
<path fill="none" stroke-width="1.5" stroke-linecap="butt" stroke-linejoin="miter" stroke="rgb(99.215686%, 74.901961%, 43.529412%)" stroke-opacity="1" stroke-miterlimit="10" d="M 708.816406 489.144531 C 714.828125 483.902344 719 477.132812 717.925781 469.3125 "/>
<path fill-rule="nonzero" fill="rgb(99.215686%, 74.901961%, 43.529412%)" fill-opacity="1" d="M 716.953125 462.246094 L 720.222656 468.996094 L 715.628906 469.625 L 716.953125 462.246094 "/>
<path fill="none" stroke-width="1.5" stroke-linecap="butt" stroke-linejoin="miter" stroke="rgb(99.215686%, 74.901961%, 43.529412%)" stroke-opacity="1" stroke-miterlimit="10" d="M 652.8125 583.789062 C 660.464844 583.597656 667.722656 581.167969 671.695312 574.71875 "/>
<path fill-rule="nonzero" fill="rgb(99.215686%, 74.901961%, 43.529412%)" fill-opacity="1" d="M 675.433594 568.644531 L 673.667969 575.933594 L 669.71875 573.503906 L 675.433594 568.644531 "/>
<path fill="none" stroke-width="1.5" stroke-linecap="butt" stroke-linejoin="miter" stroke="rgb(30.196078%, 68.627451%, 29.019608%)" stroke-opacity="1" stroke-miterlimit="10" d="M 239.886719 696.363281 C 244.644531 702.074219 250.878906 706.164062 258.171875 705.265625 "/>
<path fill-rule="nonzero" fill="rgb(30.196078%, 68.627451%, 29.019608%)" fill-opacity="1" d="M 265.25 704.394531 L 258.453125 707.566406 L 257.890625 702.964844 L 265.25 704.394531 "/>
<path fill="none" stroke-width="1.5" stroke-linecap="butt" stroke-linejoin="miter" stroke="rgb(99.215686%, 74.901961%, 43.529412%)" stroke-opacity="1" stroke-miterlimit="10" d="M 731.503906 566.863281 C 727.984375 559.207031 722.371094 553.035156 714.125 551.71875 "/>
<path fill-rule="nonzero" fill="rgb(99.215686%, 74.901961%, 43.529412%)" fill-opacity="1" d="M 707.082031 550.59375 L 714.492188 549.429688 L 713.761719 554.007812 L 707.082031 550.59375 "/>
<path fill="none" stroke-width="1.5" stroke-linecap="butt" stroke-linejoin="miter" stroke="rgb(99.215686%, 74.901961%, 43.529412%)" stroke-opacity="1" stroke-miterlimit="10" d="M 716.4375 458.492188 C 712.1875 450.570312 705.808594 444.449219 696.941406 443.5 "/>
<path fill-rule="nonzero" fill="rgb(99.215686%, 74.901961%, 43.529412%)" fill-opacity="1" d="M 689.847656 442.742188 L 697.1875 441.195312 L 696.695312 445.804688 L 689.847656 442.742188 "/>
<path fill="none" stroke-width="1.5" stroke-linecap="butt" stroke-linejoin="miter" stroke="rgb(99.215686%, 74.901961%, 43.529412%)" stroke-opacity="1" stroke-miterlimit="10" d="M 716.4375 458.492188 C 722.351562 453.277344 726.453125 446.558594 725.335938 438.839844 "/>
<path fill-rule="nonzero" fill="rgb(99.215686%, 74.901961%, 43.529412%)" fill-opacity="1" d="M 724.3125 431.78125 L 727.628906 438.507812 L 723.042969 439.171875 L 724.3125 431.78125 "/>
<path fill="none" stroke-width="1.5" stroke-linecap="butt" stroke-linejoin="miter" stroke="rgb(99.215686%, 74.901961%, 43.529412%)" stroke-opacity="1" stroke-miterlimit="10" d="M 716.4375 458.492188 C 724.214844 463.066406 732.875 464.980469 740.96875 461.167969 "/>
<path fill-rule="nonzero" fill="rgb(99.215686%, 74.901961%, 43.529412%)" fill-opacity="1" d="M 747.421875 458.132812 L 741.957031 463.265625 L 739.984375 459.074219 L 747.421875 458.132812 "/>
<path fill="none" stroke-width="1.5" stroke-linecap="butt" stroke-linejoin="miter" stroke="rgb(30.196078%, 68.627451%, 29.019608%)" stroke-opacity="1" stroke-miterlimit="10" d="M 268.015625 704.054688 C 275.1875 706.4375 282.746094 706.613281 288.574219 701.945312 "/>
<path fill-rule="nonzero" fill="rgb(30.196078%, 68.627451%, 29.019608%)" fill-opacity="1" d="M 294.140625 697.488281 L 290.023438 703.753906 L 287.125 700.136719 L 294.140625 697.488281 "/>
<path fill="none" stroke-width="1.5" stroke-linecap="butt" stroke-linejoin="miter" stroke="rgb(41.568627%, 23.921569%, 60.392157%)" stroke-opacity="1" stroke-miterlimit="10" d="M 750 206.414062 C 746.402344 199.675781 740.984375 194.296875 733.457031 193.648438 "/>
<path fill-rule="nonzero" fill="rgb(41.568627%, 23.921569%, 60.392157%)" fill-opacity="1" d="M 726.351562 193.039062 L 733.65625 191.339844 L 733.257812 195.957031 L 726.351562 193.039062 "/>
<path fill="none" stroke-width="1.5" stroke-linecap="butt" stroke-linejoin="miter" stroke="rgb(99.215686%, 74.901961%, 43.529412%)" stroke-opacity="1" stroke-miterlimit="10" d="M 703.832031 550.078125 C 707.496094 557.847656 713.277344 564.058594 721.699219 565.355469 "/>
<path fill-rule="nonzero" fill="rgb(99.215686%, 74.901961%, 43.529412%)" fill-opacity="1" d="M 728.746094 566.441406 L 721.34375 567.644531 L 722.050781 563.0625 L 728.746094 566.441406 "/>
<path fill="none" stroke-width="1.5" stroke-linecap="butt" stroke-linejoin="miter" stroke="rgb(99.215686%, 74.901961%, 43.529412%)" stroke-opacity="1" stroke-miterlimit="10" d="M 703.832031 550.078125 C 708.539062 543.339844 710.984375 535.5625 708.011719 527.984375 "/>
<path fill-rule="nonzero" fill="rgb(99.215686%, 74.901961%, 43.529412%)" fill-opacity="1" d="M 705.402344 521.34375 L 710.167969 527.136719 L 705.851562 528.828125 L 705.402344 521.34375 "/>
<path fill="none" stroke-width="1.5" stroke-linecap="butt" stroke-linejoin="miter" stroke="rgb(99.215686%, 74.901961%, 43.529412%)" stroke-opacity="1" stroke-miterlimit="10" d="M 676.894531 566.269531 C 684.96875 566.753906 692.773438 564.820312 697.578125 558.414062 "/>
<path fill-rule="nonzero" fill="rgb(99.215686%, 74.901961%, 43.529412%)" fill-opacity="1" d="M 701.859375 552.707031 L 699.433594 559.804688 L 695.726562 557.023438 L 701.859375 552.707031 "/>
<path fill="none" stroke-width="1.5" stroke-linecap="butt" stroke-linejoin="miter" stroke="rgb(99.215686%, 74.901961%, 43.529412%)" stroke-opacity="1" stroke-miterlimit="10" d="M 687.070312 442.445312 C 691.03125 450.144531 697.066406 456.210938 705.589844 457.214844 "/>
<path fill-rule="nonzero" fill="rgb(99.215686%, 74.901961%, 43.529412%)" fill-opacity="1" d="M 712.675781 458.050781 L 705.320312 459.515625 L 705.859375 454.914062 L 712.675781 458.050781 "/>
<path fill="none" stroke-width="1.5" stroke-linecap="butt" stroke-linejoin="miter" stroke="rgb(41.568627%, 23.921569%, 60.392157%)" stroke-opacity="1" stroke-miterlimit="10" d="M 723.574219 192.796875 C 725.609375 185.621094 725.460938 178.140625 720.585938 172.605469 "/>
<path fill-rule="nonzero" fill="rgb(41.568627%, 23.921569%, 60.392157%)" fill-opacity="1" d="M 715.875 167.253906 L 722.328125 171.074219 L 718.847656 174.136719 L 715.875 167.253906 "/>
<path fill="none" stroke-width="1.5" stroke-linecap="butt" stroke-linejoin="miter" stroke="rgb(98.431373%, 60.392157%, 60%)" stroke-opacity="1" stroke-miterlimit="10" d="M 398.242188 117.214844 C 405.265625 114.59375 411.226562 110.03125 412.816406 102.796875 "/>
<path fill-rule="nonzero" fill="rgb(98.431373%, 60.392157%, 60%)" fill-opacity="1" d="M 414.351562 95.832031 L 415.082031 103.296875 L 410.554688 102.300781 L 414.351562 95.832031 "/>
<path fill="none" stroke-width="1.5" stroke-linecap="butt" stroke-linejoin="miter" stroke="rgb(12.156863%, 47.058824%, 70.588235%)" stroke-opacity="1" stroke-miterlimit="10" d="M 65.992188 315.175781 C 59.191406 317.878906 53.417969 322.453125 52.058594 329.554688 "/>
<path fill-rule="nonzero" fill="rgb(12.156863%, 47.058824%, 70.588235%)" fill-opacity="1" d="M 50.710938 336.558594 L 49.78125 329.117188 L 54.332031 329.988281 L 50.710938 336.558594 "/>
<path fill="none" stroke-width="1.5" stroke-linecap="butt" stroke-linejoin="miter" stroke="rgb(99.215686%, 74.901961%, 43.529412%)" stroke-opacity="1" stroke-miterlimit="10" d="M 704.386719 518.746094 C 709.648438 513.109375 713.011719 506.183594 711.1875 498.777344 "/>
<path fill-rule="nonzero" fill="rgb(99.215686%, 74.901961%, 43.529412%)" fill-opacity="1" d="M 709.480469 491.851562 L 713.4375 498.222656 L 708.9375 499.332031 L 709.480469 491.851562 "/>
<path fill="none" stroke-width="1.5" stroke-linecap="butt" stroke-linejoin="miter" stroke="rgb(99.215686%, 74.901961%, 43.529412%)" stroke-opacity="1" stroke-miterlimit="10" d="M 641.464844 611.28125 C 647.878906 607.125 652.785156 601.269531 652.796875 593.710938 "/>
<path fill-rule="nonzero" fill="rgb(99.215686%, 74.901961%, 43.529412%)" fill-opacity="1" d="M 652.808594 586.578125 L 655.113281 593.714844 L 650.480469 593.707031 L 652.808594 586.578125 "/>
<path fill="none" stroke-width="1.5" stroke-linecap="butt" stroke-linejoin="miter" stroke="rgb(98.431373%, 60.392157%, 60%)" stroke-opacity="1" stroke-miterlimit="10" d="M 377.0625 137.503906 C 384.464844 136.339844 391.21875 133.054688 394.222656 126.28125 "/>
<path fill-rule="nonzero" fill="rgb(98.431373%, 60.392157%, 60%)" fill-opacity="1" d="M 397.113281 119.761719 L 396.339844 127.222656 L 392.105469 125.34375 L 397.113281 119.761719 "/>
<path fill="none" stroke-width="1.5" stroke-linecap="butt" stroke-linejoin="miter" stroke="rgb(98.431373%, 60.392157%, 60%)" stroke-opacity="1" stroke-miterlimit="10" d="M 323.839844 160.871094 C 330.9375 163.257812 338.4375 163.46875 344.230469 158.855469 "/>
<path fill-rule="nonzero" fill="rgb(98.431373%, 60.392157%, 60%)" fill-opacity="1" d="M 349.808594 154.410156 L 345.671875 160.667969 L 342.785156 157.042969 L 349.808594 154.410156 "/>
<path fill="none" stroke-width="1.5" stroke-linecap="butt" stroke-linejoin="miter" stroke="rgb(99.215686%, 74.901961%, 43.529412%)" stroke-opacity="1" stroke-miterlimit="10" d="M 749.949219 456.941406 C 742.539062 452.40625 734.199219 450.363281 726.371094 453.949219 "/>
<path fill-rule="nonzero" fill="rgb(99.215686%, 74.901961%, 43.529412%)" fill-opacity="1" d="M 719.882812 456.917969 L 725.40625 451.839844 L 727.335938 456.054688 L 719.882812 456.917969 "/>
<path fill="none" stroke-width="1.5" stroke-linecap="butt" stroke-linejoin="miter" stroke="rgb(41.568627%, 23.921569%, 60.392157%)" stroke-opacity="1" stroke-miterlimit="10" d="M 695.148438 143.527344 C 697.351562 136.300781 697.339844 128.738281 692.527344 123.027344 "/>
<path fill-rule="nonzero" fill="rgb(41.568627%, 23.921569%, 60.392157%)" fill-opacity="1" d="M 687.929688 117.574219 L 694.296875 121.535156 L 690.753906 124.523438 L 687.929688 117.574219 "/>
<path fill="none" stroke-width="1.5" stroke-linecap="butt" stroke-linejoin="miter" stroke="rgb(98.431373%, 60.392157%, 60%)" stroke-opacity="1" stroke-miterlimit="10" d="M 427.425781 66.078125 C 434.613281 66.441406 441.660156 64.714844 445.757812 58.914062 "/>
<path fill-rule="nonzero" fill="rgb(98.431373%, 60.392157%, 60%)" fill-opacity="1" d="M 449.875 53.089844 L 447.652344 60.25 L 443.867188 57.574219 L 449.875 53.089844 "/>
<path fill="none" stroke-width="1.5" stroke-linecap="butt" stroke-linejoin="miter" stroke="rgb(12.156863%, 47.058824%, 70.588235%)" stroke-opacity="1" stroke-miterlimit="10" d="M 231.5 163.160156 C 224.128906 168.082031 218.707031 174.925781 218.632812 183.71875 "/>
<path fill-rule="nonzero" fill="rgb(12.156863%, 47.058824%, 70.588235%)" fill-opacity="1" d="M 218.574219 190.851562 L 216.316406 183.699219 L 220.949219 183.738281 L 218.574219 190.851562 "/>
<path fill="none" stroke-width="1.5" stroke-linecap="butt" stroke-linejoin="miter" stroke="rgb(98.431373%, 60.392157%, 60%)" stroke-opacity="1" stroke-miterlimit="10" d="M 231.5 163.160156 C 238.886719 167.730469 247.199219 169.796875 255.054688 166.269531 "/>
<path fill-rule="nonzero" fill="rgb(98.431373%, 60.392157%, 60%)" fill-opacity="1" d="M 261.558594 163.347656 L 256.003906 168.382812 L 254.101562 164.15625 L 261.558594 163.347656 "/>
<path fill="none" stroke-width="1.5" stroke-linecap="butt" stroke-linejoin="miter" stroke="rgb(41.568627%, 23.921569%, 60.392157%)" stroke-opacity="1" stroke-miterlimit="10" d="M 686.132812 115.441406 C 684.585938 108.460938 681.070312 102.152344 674.429688 99.757812 "/>
<path fill-rule="nonzero" fill="rgb(41.568627%, 23.921569%, 60.392157%)" fill-opacity="1" d="M 667.71875 97.339844 L 675.214844 97.578125 L 673.644531 101.941406 L 667.71875 97.339844 "/>
<path fill="none" stroke-width="1.5" stroke-linecap="butt" stroke-linejoin="miter" stroke="rgb(98.431373%, 60.392157%, 60%)" stroke-opacity="1" stroke-miterlimit="10" d="M 414.949219 93.109375 C 421.535156 89.210938 426.683594 83.554688 427.007812 75.992188 "/>
<path fill-rule="nonzero" fill="rgb(98.431373%, 60.392157%, 60%)" fill-opacity="1" d="M 427.308594 68.863281 L 429.320312 76.089844 L 424.691406 75.894531 L 427.308594 68.863281 "/>
<path fill="none" stroke-width="1.5" stroke-linecap="butt" stroke-linejoin="miter" stroke="rgb(98.431373%, 60.392157%, 60%)" stroke-opacity="1" stroke-miterlimit="10" d="M 351.988281 152.675781 C 359.457031 153.152344 366.757812 151.425781 371.160156 145.476562 "/>
<path fill-rule="nonzero" fill="rgb(98.431373%, 60.392157%, 60%)" fill-opacity="1" d="M 375.402344 139.746094 L 373.019531 146.859375 L 369.296875 144.097656 L 375.402344 139.746094 "/>
<path fill="none" stroke-width="1.5" stroke-linecap="butt" stroke-linejoin="miter" stroke="rgb(12.156863%, 47.058824%, 70.588235%)" stroke-opacity="1" stroke-miterlimit="10" d="M 205.152344 220.976562 C 198.214844 224.183594 192.527344 229.285156 191.445312 236.765625 "/>
<path fill-rule="nonzero" fill="rgb(12.156863%, 47.058824%, 70.588235%)" fill-opacity="1" d="M 190.425781 243.828125 L 189.152344 236.4375 L 193.738281 237.097656 L 190.425781 243.828125 "/>
<path fill="none" stroke-width="1.5" stroke-linecap="butt" stroke-linejoin="miter" stroke="rgb(99.215686%, 74.901961%, 43.529412%)" stroke-opacity="1" stroke-miterlimit="10" d="M 640.890625 641.089844 C 645.363281 634.863281 647.808594 627.597656 645.058594 620.53125 "/>
<path fill-rule="nonzero" fill="rgb(99.215686%, 74.901961%, 43.529412%)" fill-opacity="1" d="M 642.476562 613.882812 L 647.21875 619.691406 L 642.898438 621.367188 L 642.476562 613.882812 "/>
<path fill="none" stroke-width="2.5" stroke-linecap="butt" stroke-linejoin="miter" stroke="rgb(70.196078%, 70.196078%, 70.196078%)" stroke-opacity="1" stroke-miterlimit="10" d="M 212.046875 135.179688 C 212.015625 143.695312 214.527344 151.757812 221.527344 156.460938 "/>
<path fill-rule="nonzero" fill="rgb(70.196078%, 70.196078%, 70.196078%)" fill-opacity="1" d="M 227.449219 160.4375 L 220.238281 158.386719 L 222.820312 154.539062 L 227.449219 160.4375 "/>
<path fill="none" stroke-width="1.5" stroke-linecap="butt" stroke-linejoin="miter" stroke="rgb(41.568627%, 23.921569%, 60.392157%)" stroke-opacity="1" stroke-miterlimit="10" d="M 714.03125 165.160156 C 713.273438 157.925781 710.441406 151.1875 704.019531 147.96875 "/>
<path fill-rule="nonzero" fill="rgb(41.568627%, 23.921569%, 60.392157%)" fill-opacity="1" d="M 697.640625 144.773438 L 705.054688 145.898438 L 702.980469 150.039062 L 697.640625 144.773438 "/>
<path fill="none" stroke-width="1.5" stroke-linecap="butt" stroke-linejoin="miter" stroke="rgb(12.156863%, 47.058824%, 70.588235%)" stroke-opacity="1" stroke-miterlimit="10" d="M 210.675781 102.796875 C 206.351562 109.226562 204.089844 116.65625 207.113281 123.695312 "/>
<path fill-rule="nonzero" fill="rgb(12.156863%, 47.058824%, 70.588235%)" fill-opacity="1" d="M 209.929688 130.246094 L 204.984375 124.609375 L 209.242188 122.78125 L 209.929688 130.246094 "/>
<path fill="none" stroke-width="1.5" stroke-linecap="butt" stroke-linejoin="miter" stroke="rgb(98.431373%, 60.392157%, 60%)" stroke-opacity="1" stroke-miterlimit="10" d="M 180.253906 132.464844 C 185.921875 137.476562 192.835938 140.648438 200.027344 138.601562 "/>
<path fill-rule="nonzero" fill="rgb(98.431373%, 60.392157%, 60%)" fill-opacity="1" d="M 206.890625 136.648438 L 200.664062 140.828125 L 199.394531 136.371094 L 206.890625 136.648438 "/>
<path fill="none" stroke-width="1.5" stroke-linecap="butt" stroke-linejoin="miter" stroke="rgb(12.156863%, 47.058824%, 70.588235%)" stroke-opacity="1" stroke-miterlimit="10" d="M 199.328125 74.476562 C 197.621094 82.210938 198.285156 90.070312 203.753906 95.6875 "/>
<path fill-rule="nonzero" fill="rgb(12.156863%, 47.058824%, 70.588235%)" fill-opacity="1" d="M 208.730469 100.796875 L 202.09375 97.304688 L 205.414062 94.070312 L 208.730469 100.796875 "/>
<path fill-rule="nonzero" fill="rgb(100%, 84.313725%, 0%)" fill-opacity="1" stroke-width="1" stroke-linecap="butt" stroke-linejoin="miter" stroke="rgb(100%, 84.313725%, 0%)" stroke-opacity="1" stroke-miterlimit="10" d="M 97.398438 606.238281 L 103.898438 606.238281 L 103.898438 612.738281 L 97.398438 612.738281 Z M 97.398438 606.238281 "/>
<path fill-rule="nonzero" fill="rgb(12.156863%, 47.058824%, 70.588235%)" fill-opacity="1" stroke-width="1" stroke-linecap="butt" stroke-linejoin="miter" stroke="rgb(12.156863%, 47.058824%, 70.588235%)" stroke-opacity="1" stroke-miterlimit="10" d="M 221.300781 193.644531 C 221.300781 197.308594 215.800781 197.308594 215.800781 193.644531 C 215.800781 189.976562 221.300781 189.976562 221.300781 193.644531 "/>
<path fill-rule="nonzero" fill="rgb(12.156863%, 47.058824%, 70.588235%)" fill-opacity="1" stroke-width="1" stroke-linecap="butt" stroke-linejoin="miter" stroke="rgb(12.156863%, 47.058824%, 70.588235%)" stroke-opacity="1" stroke-miterlimit="10" d="M 149.554688 285.285156 C 149.554688 288.953125 144.054688 288.953125 144.054688 285.285156 C 144.054688 281.621094 149.554688 281.621094 149.554688 285.285156 "/>
<path fill-rule="nonzero" fill="rgb(30.196078%, 68.627451%, 29.019608%)" fill-opacity="1" stroke-width="1" stroke-linecap="butt" stroke-linejoin="miter" stroke="rgb(30.196078%, 68.627451%, 29.019608%)" stroke-opacity="1" stroke-miterlimit="10" d="M 327.417969 687.5 C 327.417969 691.164062 321.917969 691.164062 321.917969 687.5 C 321.917969 683.832031 327.417969 683.832031 327.417969 687.5 "/>
<path fill-rule="nonzero" fill="rgb(12.156863%, 47.058824%, 70.588235%)" fill-opacity="1" stroke-width="1" stroke-linecap="butt" stroke-linejoin="miter" stroke="rgb(12.156863%, 47.058824%, 70.588235%)" stroke-opacity="1" stroke-miterlimit="10" d="M 121.472656 293.601562 C 121.472656 297.269531 115.972656 297.269531 115.972656 293.601562 C 115.972656 289.9375 121.472656 289.9375 121.472656 293.601562 "/>
<path fill-rule="nonzero" fill="rgb(12.156863%, 47.058824%, 70.588235%)" fill-opacity="1" stroke-width="1" stroke-linecap="butt" stroke-linejoin="miter" stroke="rgb(12.156863%, 47.058824%, 70.588235%)" stroke-opacity="1" stroke-miterlimit="10" d="M 174.382812 269.644531 C 174.382812 273.3125 168.882812 273.3125 168.882812 269.644531 C 168.882812 265.976562 174.382812 265.976562 174.382812 269.644531 "/>
<path fill-rule="nonzero" fill="rgb(12.156863%, 47.058824%, 70.588235%)" fill-opacity="1" stroke-width="1" stroke-linecap="butt" stroke-linejoin="miter" stroke="rgb(12.156863%, 47.058824%, 70.588235%)" stroke-opacity="1" stroke-miterlimit="10" d="M 92.082031 297.394531 C 92.082031 301.0625 86.582031 301.0625 86.582031 297.394531 C 86.582031 293.726562 92.082031 293.726562 92.082031 297.394531 "/>
<path fill-rule="nonzero" fill="rgb(30.196078%, 68.627451%, 29.019608%)" fill-opacity="1" stroke-width="1" stroke-linecap="butt" stroke-linejoin="miter" stroke="rgb(30.196078%, 68.627451%, 29.019608%)" stroke-opacity="1" stroke-miterlimit="10" d="M 120.875 633.722656 C 120.875 637.386719 115.375 637.386719 115.375 633.722656 C 115.375 630.054688 120.875 630.054688 120.875 633.722656 "/>
<path fill-rule="nonzero" fill="rgb(30.196078%, 68.627451%, 29.019608%)" fill-opacity="1" stroke-width="1" stroke-linecap="butt" stroke-linejoin="miter" stroke="rgb(30.196078%, 68.627451%, 29.019608%)" stroke-opacity="1" stroke-miterlimit="10" d="M 299.066406 695.746094 C 299.066406 699.410156 293.566406 699.410156 293.566406 695.746094 C 293.566406 692.078125 299.066406 692.078125 299.066406 695.746094 "/>
<path fill-rule="nonzero" fill="rgb(30.196078%, 68.627451%, 29.019608%)" fill-opacity="1" stroke-width="1" stroke-linecap="butt" stroke-linejoin="miter" stroke="rgb(30.196078%, 68.627451%, 29.019608%)" stroke-opacity="1" stroke-miterlimit="10" d="M 173.410156 655.300781 C 173.410156 658.96875 167.910156 658.96875 167.910156 655.300781 C 167.910156 651.632812 173.410156 651.632812 173.410156 655.300781 "/>
<path fill-rule="nonzero" fill="rgb(30.196078%, 68.627451%, 29.019608%)" fill-opacity="1" stroke-width="1" stroke-linecap="butt" stroke-linejoin="miter" stroke="rgb(30.196078%, 68.627451%, 29.019608%)" stroke-opacity="1" stroke-miterlimit="10" d="M 223.203125 674.304688 C 223.203125 677.972656 217.703125 677.972656 217.703125 674.304688 C 217.703125 670.640625 223.203125 670.640625 223.203125 674.304688 "/>
<path fill-rule="nonzero" fill="rgb(30.196078%, 68.627451%, 29.019608%)" fill-opacity="1" stroke-width="1" stroke-linecap="butt" stroke-linejoin="miter" stroke="rgb(30.196078%, 68.627451%, 29.019608%)" stroke-opacity="1" stroke-miterlimit="10" d="M 420.964844 750 C 420.964844 753.667969 415.464844 753.667969 415.464844 750 C 415.464844 746.332031 420.964844 746.332031 420.964844 750 "/>
<path fill-rule="nonzero" fill="rgb(30.196078%, 68.627451%, 29.019608%)" fill-opacity="1" stroke-width="1" stroke-linecap="butt" stroke-linejoin="miter" stroke="rgb(30.196078%, 68.627451%, 29.019608%)" stroke-opacity="1" stroke-miterlimit="10" d="M 392.707031 742.542969 C 392.707031 746.210938 387.207031 746.210938 387.207031 742.542969 C 387.207031 738.878906 392.707031 738.878906 392.707031 742.542969 "/>
<path fill-rule="nonzero" fill="rgb(30.196078%, 68.627451%, 29.019608%)" fill-opacity="1" stroke-width="1" stroke-linecap="butt" stroke-linejoin="miter" stroke="rgb(30.196078%, 68.627451%, 29.019608%)" stroke-opacity="1" stroke-miterlimit="10" d="M 374.425781 719.328125 C 374.425781 722.996094 368.925781 722.996094 368.925781 719.328125 C 368.925781 715.660156 374.425781 715.660156 374.425781 719.328125 "/>
<path fill-rule="nonzero" fill="rgb(14.901961%, 14.901961%, 14.901961%)" fill-opacity="1" stroke-width="1" stroke-linecap="butt" stroke-linejoin="miter" stroke="rgb(14.901961%, 14.901961%, 14.901961%)" stroke-opacity="1" stroke-miterlimit="10" d="M 443.542969 748.683594 L 447.292969 741.183594 L 451.042969 748.683594 Z M 443.542969 748.683594 "/>
<path fill-rule="nonzero" fill="rgb(30.196078%, 68.627451%, 29.019608%)" fill-opacity="1" stroke-width="1" stroke-linecap="butt" stroke-linejoin="miter" stroke="rgb(30.196078%, 68.627451%, 29.019608%)" stroke-opacity="1" stroke-miterlimit="10" d="M 355.246094 696.820312 C 355.246094 700.488281 349.746094 700.488281 349.746094 696.820312 C 349.746094 693.152344 355.246094 693.152344 355.246094 696.820312 "/>
<path fill-rule="nonzero" fill="rgb(98.431373%, 60.392157%, 60%)" fill-opacity="1" stroke-width="1" stroke-linecap="butt" stroke-linejoin="miter" stroke="rgb(98.431373%, 60.392157%, 60%)" stroke-opacity="1" stroke-miterlimit="10" d="M 296.910156 160.820312 C 296.910156 164.488281 291.410156 164.488281 291.410156 160.820312 C 291.410156 157.15625 296.910156 157.15625 296.910156 160.820312 "/>
<path fill-rule="nonzero" fill="rgb(12.156863%, 47.058824%, 70.588235%)" fill-opacity="1" stroke-width="1" stroke-linecap="butt" stroke-linejoin="miter" stroke="rgb(12.156863%, 47.058824%, 70.588235%)" stroke-opacity="1" stroke-miterlimit="10" d="M 192.777344 246.585938 C 192.777344 250.253906 187.277344 250.253906 187.277344 246.585938 C 187.277344 242.917969 192.777344 242.917969 192.777344 246.585938 "/>
<path fill-rule="nonzero" fill="rgb(30.196078%, 68.627451%, 29.019608%)" fill-opacity="1" stroke-width="1" stroke-linecap="butt" stroke-linejoin="miter" stroke="rgb(30.196078%, 68.627451%, 29.019608%)" stroke-opacity="1" stroke-miterlimit="10" d="M 203.050781 652.71875 C 203.050781 656.386719 197.550781 656.386719 197.550781 652.71875 C 197.550781 649.054688 203.050781 649.054688 203.050781 652.71875 "/>
<path fill-rule="nonzero" fill="rgb(98.431373%, 60.392157%, 60%)" fill-opacity="1" stroke-width="1" stroke-linecap="butt" stroke-linejoin="miter" stroke="rgb(98.431373%, 60.392157%, 60%)" stroke-opacity="1" stroke-miterlimit="10" d="M 266.855469 162.203125 C 266.855469 165.867188 261.355469 165.867188 261.355469 162.203125 C 261.355469 158.535156 266.855469 158.535156 266.855469 162.203125 "/>
<path fill-rule="nonzero" fill="rgb(30.196078%, 68.627451%, 29.019608%)" fill-opacity="1" stroke-width="1" stroke-linecap="butt" stroke-linejoin="miter" stroke="rgb(30.196078%, 68.627451%, 29.019608%)" stroke-opacity="1" stroke-miterlimit="10" d="M 148.960938 640.085938 C 148.960938 643.75 143.460938 643.75 143.460938 640.085938 C 143.460938 636.417969 148.960938 636.417969 148.960938 640.085938 "/>
<path fill-rule="nonzero" fill="rgb(99.215686%, 74.901961%, 43.529412%)" fill-opacity="1" stroke-width="1" stroke-linecap="butt" stroke-linejoin="miter" stroke="rgb(99.215686%, 74.901961%, 43.529412%)" stroke-opacity="1" stroke-miterlimit="10" d="M 711.566406 489.144531 C 711.566406 492.8125 706.066406 492.8125 706.066406 489.144531 C 706.066406 485.480469 711.566406 485.480469 711.566406 489.144531 "/>
<path fill-rule="nonzero" fill="rgb(99.215686%, 74.901961%, 43.529412%)" fill-opacity="1" stroke-width="1" stroke-linecap="butt" stroke-linejoin="miter" stroke="rgb(99.215686%, 74.901961%, 43.529412%)" stroke-opacity="1" stroke-miterlimit="10" d="M 655.5625 583.789062 C 655.5625 587.457031 650.0625 587.457031 650.0625 583.789062 C 650.0625 580.125 655.5625 580.125 655.5625 583.789062 "/>
<path fill-rule="nonzero" fill="rgb(30.196078%, 68.627451%, 29.019608%)" fill-opacity="1" stroke-width="1" stroke-linecap="butt" stroke-linejoin="miter" stroke="rgb(30.196078%, 68.627451%, 29.019608%)" stroke-opacity="1" stroke-miterlimit="10" d="M 242.636719 696.363281 C 242.636719 700.03125 237.136719 700.03125 237.136719 696.363281 C 237.136719 692.695312 242.636719 692.695312 242.636719 696.363281 "/>
<path fill-rule="nonzero" fill="rgb(99.215686%, 74.901961%, 43.529412%)" fill-opacity="1" stroke-width="1" stroke-linecap="butt" stroke-linejoin="miter" stroke="rgb(99.215686%, 74.901961%, 43.529412%)" stroke-opacity="1" stroke-miterlimit="10" d="M 734.253906 566.863281 C 734.253906 570.53125 728.753906 570.53125 728.753906 566.863281 C 728.753906 563.195312 734.253906 563.195312 734.253906 566.863281 "/>
<path fill-rule="nonzero" fill="rgb(99.215686%, 74.901961%, 43.529412%)" fill-opacity="1" stroke-width="1" stroke-linecap="butt" stroke-linejoin="miter" stroke="rgb(99.215686%, 74.901961%, 43.529412%)" stroke-opacity="1" stroke-miterlimit="10" d="M 720.1875 458.492188 C 720.1875 463.492188 712.6875 463.492188 712.6875 458.492188 C 712.6875 453.492188 720.1875 453.492188 720.1875 458.492188 "/>
<path fill-rule="nonzero" fill="rgb(30.196078%, 68.627451%, 29.019608%)" fill-opacity="1" stroke-width="1" stroke-linecap="butt" stroke-linejoin="miter" stroke="rgb(30.196078%, 68.627451%, 29.019608%)" stroke-opacity="1" stroke-miterlimit="10" d="M 270.765625 704.054688 C 270.765625 707.722656 265.265625 707.722656 265.265625 704.054688 C 265.265625 700.390625 270.765625 700.390625 270.765625 704.054688 "/>
<path fill-rule="nonzero" fill="rgb(100%, 84.313725%, 0%)" fill-opacity="1" stroke-width="1" stroke-linecap="butt" stroke-linejoin="miter" stroke="rgb(100%, 84.313725%, 0%)" stroke-opacity="1" stroke-miterlimit="10" d="M 746.75 203.164062 L 753.25 203.164062 L 753.25 209.664062 L 746.75 209.664062 Z M 746.75 203.164062 "/>
<path fill-rule="nonzero" fill="rgb(99.215686%, 74.901961%, 43.529412%)" fill-opacity="1" stroke-width="1" stroke-linecap="butt" stroke-linejoin="miter" stroke="rgb(99.215686%, 74.901961%, 43.529412%)" stroke-opacity="1" stroke-miterlimit="10" d="M 707.082031 550.078125 C 707.082031 554.410156 700.582031 554.410156 700.582031 550.078125 C 700.582031 545.742188 707.082031 545.742188 707.082031 550.078125 "/>
<path fill-rule="nonzero" fill="rgb(99.215686%, 74.901961%, 43.529412%)" fill-opacity="1" stroke-width="1" stroke-linecap="butt" stroke-linejoin="miter" stroke="rgb(99.215686%, 74.901961%, 43.529412%)" stroke-opacity="1" stroke-miterlimit="10" d="M 679.644531 566.269531 C 679.644531 569.9375 674.144531 569.9375 674.144531 566.269531 C 674.144531 562.605469 679.644531 562.605469 679.644531 566.269531 "/>
<path fill-rule="nonzero" fill="rgb(99.215686%, 74.901961%, 43.529412%)" fill-opacity="1" stroke-width="1" stroke-linecap="butt" stroke-linejoin="miter" stroke="rgb(99.215686%, 74.901961%, 43.529412%)" stroke-opacity="1" stroke-miterlimit="10" d="M 689.820312 442.445312 C 689.820312 446.113281 684.320312 446.113281 684.320312 442.445312 C 684.320312 438.777344 689.820312 438.777344 689.820312 442.445312 "/>
<path fill-rule="nonzero" fill="rgb(41.568627%, 23.921569%, 60.392157%)" fill-opacity="1" stroke-width="1" stroke-linecap="butt" stroke-linejoin="miter" stroke="rgb(41.568627%, 23.921569%, 60.392157%)" stroke-opacity="1" stroke-miterlimit="10" d="M 726.324219 192.796875 C 726.324219 196.464844 720.824219 196.464844 720.824219 192.796875 C 720.824219 189.132812 726.324219 189.132812 726.324219 192.796875 "/>
<path fill-rule="nonzero" fill="rgb(98.431373%, 60.392157%, 60%)" fill-opacity="1" stroke-width="1" stroke-linecap="butt" stroke-linejoin="miter" stroke="rgb(98.431373%, 60.392157%, 60%)" stroke-opacity="1" stroke-miterlimit="10" d="M 400.992188 117.214844 C 400.992188 120.882812 395.492188 120.882812 395.492188 117.214844 C 395.492188 113.546875 400.992188 113.546875 400.992188 117.214844 "/>
<path fill-rule="nonzero" fill="rgb(12.156863%, 47.058824%, 70.588235%)" fill-opacity="1" stroke-width="1" stroke-linecap="butt" stroke-linejoin="miter" stroke="rgb(12.156863%, 47.058824%, 70.588235%)" stroke-opacity="1" stroke-miterlimit="10" d="M 68.742188 315.175781 C 68.742188 318.84375 63.242188 318.84375 63.242188 315.175781 C 63.242188 311.511719 68.742188 311.511719 68.742188 315.175781 "/>
<path fill-rule="nonzero" fill="rgb(14.901961%, 14.901961%, 14.901961%)" fill-opacity="1" stroke-width="1" stroke-linecap="butt" stroke-linejoin="miter" stroke="rgb(14.901961%, 14.901961%, 14.901961%)" stroke-opacity="1" stroke-miterlimit="10" d="M 46.25 344.023438 L 50 336.523438 L 53.75 344.023438 Z M 46.25 344.023438 "/>
<path fill-rule="nonzero" fill="rgb(99.215686%, 74.901961%, 43.529412%)" fill-opacity="1" stroke-width="1" stroke-linecap="butt" stroke-linejoin="miter" stroke="rgb(99.215686%, 74.901961%, 43.529412%)" stroke-opacity="1" stroke-miterlimit="10" d="M 707.136719 518.746094 C 707.136719 522.414062 701.636719 522.414062 701.636719 518.746094 C 701.636719 515.078125 707.136719 515.078125 707.136719 518.746094 "/>
<path fill-rule="nonzero" fill="rgb(99.215686%, 74.901961%, 43.529412%)" fill-opacity="1" stroke-width="1" stroke-linecap="butt" stroke-linejoin="miter" stroke="rgb(99.215686%, 74.901961%, 43.529412%)" stroke-opacity="1" stroke-miterlimit="10" d="M 644.214844 611.28125 C 644.214844 614.949219 638.714844 614.949219 638.714844 611.28125 C 638.714844 607.617188 644.214844 607.617188 644.214844 611.28125 "/>
<path fill-rule="nonzero" fill="rgb(98.431373%, 60.392157%, 60%)" fill-opacity="1" stroke-width="1" stroke-linecap="butt" stroke-linejoin="miter" stroke="rgb(98.431373%, 60.392157%, 60%)" stroke-opacity="1" stroke-miterlimit="10" d="M 379.8125 137.503906 C 379.8125 141.171875 374.3125 141.171875 374.3125 137.503906 C 374.3125 133.839844 379.8125 133.839844 379.8125 137.503906 "/>
<path fill-rule="nonzero" fill="rgb(98.431373%, 60.392157%, 60%)" fill-opacity="1" stroke-width="1" stroke-linecap="butt" stroke-linejoin="miter" stroke="rgb(98.431373%, 60.392157%, 60%)" stroke-opacity="1" stroke-miterlimit="10" d="M 326.589844 160.871094 C 326.589844 164.535156 321.089844 164.535156 321.089844 160.871094 C 321.089844 157.203125 326.589844 157.203125 326.589844 160.871094 "/>
<path fill-rule="nonzero" fill="rgb(14.901961%, 14.901961%, 14.901961%)" fill-opacity="1" stroke-width="1" stroke-linecap="butt" stroke-linejoin="miter" stroke="rgb(14.901961%, 14.901961%, 14.901961%)" stroke-opacity="1" stroke-miterlimit="10" d="M 720.019531 431.78125 L 723.769531 424.28125 L 727.519531 431.78125 Z M 720.019531 431.78125 "/>
<path fill-rule="nonzero" fill="rgb(99.215686%, 74.901961%, 43.529412%)" fill-opacity="1" stroke-width="1" stroke-linecap="butt" stroke-linejoin="miter" stroke="rgb(99.215686%, 74.901961%, 43.529412%)" stroke-opacity="1" stroke-miterlimit="10" d="M 752.699219 456.941406 C 752.699219 460.609375 747.199219 460.609375 747.199219 456.941406 C 747.199219 453.273438 752.699219 453.273438 752.699219 456.941406 "/>
<path fill-rule="nonzero" fill="rgb(41.568627%, 23.921569%, 60.392157%)" fill-opacity="1" stroke-width="1" stroke-linecap="butt" stroke-linejoin="miter" stroke="rgb(41.568627%, 23.921569%, 60.392157%)" stroke-opacity="1" stroke-miterlimit="10" d="M 697.898438 143.527344 C 697.898438 147.191406 692.398438 147.191406 692.398438 143.527344 C 692.398438 139.859375 697.898438 139.859375 697.898438 143.527344 "/>
<path fill-rule="nonzero" fill="rgb(98.431373%, 60.392157%, 60%)" fill-opacity="1" stroke-width="1" stroke-linecap="butt" stroke-linejoin="miter" stroke="rgb(98.431373%, 60.392157%, 60%)" stroke-opacity="1" stroke-miterlimit="10" d="M 430.175781 66.078125 C 430.175781 69.746094 424.675781 69.746094 424.675781 66.078125 C 424.675781 62.414062 430.175781 62.414062 430.175781 66.078125 "/>
<path fill-rule="nonzero" fill="rgb(70.196078%, 70.196078%, 70.196078%)" fill-opacity="1" stroke-width="1" stroke-linecap="butt" stroke-linejoin="miter" stroke="rgb(70.196078%, 70.196078%, 70.196078%)" stroke-opacity="1" stroke-miterlimit="10" d="M 236.351562 163.160156 C 236.351562 169.625 226.652344 169.625 226.652344 163.160156 C 226.652344 156.691406 236.351562 156.691406 236.351562 163.160156 "/>
<path fill-rule="nonzero" fill="rgb(41.568627%, 23.921569%, 60.392157%)" fill-opacity="1" stroke-width="1" stroke-linecap="butt" stroke-linejoin="miter" stroke="rgb(41.568627%, 23.921569%, 60.392157%)" stroke-opacity="1" stroke-miterlimit="10" d="M 688.882812 115.441406 C 688.882812 119.109375 683.382812 119.109375 683.382812 115.441406 C 683.382812 111.777344 688.882812 111.777344 688.882812 115.441406 "/>
<path fill-rule="nonzero" fill="rgb(14.901961%, 14.901961%, 14.901961%)" fill-opacity="1" stroke-width="1" stroke-linecap="butt" stroke-linejoin="miter" stroke="rgb(14.901961%, 14.901961%, 14.901961%)" stroke-opacity="1" stroke-miterlimit="10" d="M 660.410156 99.808594 L 664.160156 92.308594 L 667.910156 99.808594 Z M 660.410156 99.808594 "/>
<path fill-rule="nonzero" fill="rgb(98.431373%, 60.392157%, 60%)" fill-opacity="1" stroke-width="1" stroke-linecap="butt" stroke-linejoin="miter" stroke="rgb(98.431373%, 60.392157%, 60%)" stroke-opacity="1" stroke-miterlimit="10" d="M 417.699219 93.109375 C 417.699219 96.777344 412.199219 96.777344 412.199219 93.109375 C 412.199219 89.445312 417.699219 89.445312 417.699219 93.109375 "/>
<path fill-rule="nonzero" fill="rgb(98.431373%, 60.392157%, 60%)" fill-opacity="1" stroke-width="1" stroke-linecap="butt" stroke-linejoin="miter" stroke="rgb(98.431373%, 60.392157%, 60%)" stroke-opacity="1" stroke-miterlimit="10" d="M 354.738281 152.675781 C 354.738281 156.34375 349.238281 156.34375 349.238281 152.675781 C 349.238281 149.007812 354.738281 149.007812 354.738281 152.675781 "/>
<path fill-rule="nonzero" fill="rgb(12.156863%, 47.058824%, 70.588235%)" fill-opacity="1" stroke-width="1" stroke-linecap="butt" stroke-linejoin="miter" stroke="rgb(12.156863%, 47.058824%, 70.588235%)" stroke-opacity="1" stroke-miterlimit="10" d="M 207.902344 220.976562 C 207.902344 224.644531 202.402344 224.644531 202.402344 220.976562 C 202.402344 217.308594 207.902344 217.308594 207.902344 220.976562 "/>
<path fill-rule="nonzero" fill="rgb(100%, 84.313725%, 0%)" fill-opacity="1" stroke-width="1" stroke-linecap="butt" stroke-linejoin="miter" stroke="rgb(100%, 84.313725%, 0%)" stroke-opacity="1" stroke-miterlimit="10" d="M 637.640625 637.839844 L 644.140625 637.839844 L 644.140625 644.339844 L 637.640625 644.339844 Z M 637.640625 637.839844 "/>
<path fill-rule="nonzero" fill="rgb(70.196078%, 70.196078%, 70.196078%)" fill-opacity="1" stroke-width="1" stroke-linecap="butt" stroke-linejoin="miter" stroke="rgb(70.196078%, 70.196078%, 70.196078%)" stroke-opacity="1" stroke-miterlimit="10" d="M 217.398438 135.179688 C 217.398438 142.3125 206.699219 142.3125 206.699219 135.179688 C 206.699219 128.042969 217.398438 128.042969 217.398438 135.179688 "/>
<path fill-rule="nonzero" fill="rgb(41.568627%, 23.921569%, 60.392157%)" fill-opacity="1" stroke-width="1" stroke-linecap="butt" stroke-linejoin="miter" stroke="rgb(41.568627%, 23.921569%, 60.392157%)" stroke-opacity="1" stroke-miterlimit="10" d="M 716.78125 165.160156 C 716.78125 168.828125 711.28125 168.828125 711.28125 165.160156 C 711.28125 161.492188 716.78125 161.492188 716.78125 165.160156 "/>
<path fill-rule="nonzero" fill="rgb(14.901961%, 14.901961%, 14.901961%)" fill-opacity="1" stroke-width="1" stroke-linecap="butt" stroke-linejoin="miter" stroke="rgb(14.901961%, 14.901961%, 14.901961%)" stroke-opacity="1" stroke-miterlimit="10" d="M 448.308594 53.75 L 452.058594 46.25 L 455.808594 53.75 Z M 448.308594 53.75 "/>
<path fill-rule="nonzero" fill="rgb(12.156863%, 47.058824%, 70.588235%)" fill-opacity="1" stroke-width="1" stroke-linecap="butt" stroke-linejoin="miter" stroke="rgb(12.156863%, 47.058824%, 70.588235%)" stroke-opacity="1" stroke-miterlimit="10" d="M 213.425781 102.796875 C 213.425781 106.464844 207.925781 106.464844 207.925781 102.796875 C 207.925781 99.128906 213.425781 99.128906 213.425781 102.796875 "/>
<path fill-rule="nonzero" fill="rgb(100%, 84.313725%, 0%)" fill-opacity="1" stroke-width="1" stroke-linecap="butt" stroke-linejoin="miter" stroke="rgb(100%, 84.313725%, 0%)" stroke-opacity="1" stroke-miterlimit="10" d="M 177.003906 129.214844 L 183.503906 129.214844 L 183.503906 135.714844 L 177.003906 135.714844 Z M 177.003906 129.214844 "/>
<path fill-rule="nonzero" fill="rgb(100%, 84.313725%, 0%)" fill-opacity="1" stroke-width="1" stroke-linecap="butt" stroke-linejoin="miter" stroke="rgb(100%, 84.313725%, 0%)" stroke-opacity="1" stroke-miterlimit="10" d="M 196.078125 71.226562 L 202.578125 71.226562 L 202.578125 77.726562 L 196.078125 77.726562 Z M 196.078125 71.226562 "/>
</svg>
