<?xml version="1.0" encoding="UTF-8"?>
<svg xmlns="http://www.w3.org/2000/svg" xmlns:xlink="http://www.w3.org/1999/xlink" width="800" height="800" viewBox="0 0 800 800">
<rect x="-80" y="-80" width="960" height="960" fill="rgb(100%, 100%, 100%)" fill-opacity="1"/>
<path fill="none" stroke-width="2.5" stroke-linecap="butt" stroke-linejoin="miter" stroke="rgb(70.196078%, 70.196078%, 70.196078%)" stroke-opacity="1" stroke-miterlimit="10" d="M 52.710938 458.734375 C 36.605469 487.9375 33.027344 518.6875 45.316406 549.667969 "/>
<path fill-rule="nonzero" fill="rgb(70.196078%, 70.196078%, 70.196078%)" fill-opacity="1" d="M 47.945312 556.296875 L 43.164062 550.523438 L 47.472656 548.8125 L 47.945312 556.296875 "/>
<path fill="none" stroke-width="2.5" stroke-linecap="butt" stroke-linejoin="miter" stroke="rgb(70.196078%, 70.196078%, 70.196078%)" stroke-opacity="1" stroke-miterlimit="10" d="M 173.089844 355.527344 C 148.519531 350.925781 125.605469 355.402344 106.632812 371.632812 "/>
<path fill-rule="nonzero" fill="rgb(70.196078%, 70.196078%, 70.196078%)" fill-opacity="1" d="M 101.210938 376.269531 L 105.125 369.871094 L 108.140625 373.394531 L 101.210938 376.269531 "/>
<path fill="none" stroke-width="1.5" stroke-linecap="butt" stroke-linejoin="miter" stroke="rgb(12.156863%, 47.058824%, 70.588235%)" stroke-opacity="1" stroke-miterlimit="10" d="M 173.089844 355.527344 C 189.84375 322.695312 192.535156 288.675781 178.035156 254.808594 "/>
<path fill-rule="nonzero" fill="rgb(12.156863%, 47.058824%, 70.588235%)" fill-opacity="1" d="M 175.226562 248.253906 L 180.164062 253.898438 L 175.902344 255.722656 L 175.226562 248.253906 "/>
<path fill="none" stroke-width="2.5" stroke-linecap="butt" stroke-linejoin="miter" stroke="rgb(70.196078%, 70.196078%, 70.196078%)" stroke-opacity="1" stroke-miterlimit="10" d="M 97.707031 379.265625 C 72.96875 395.308594 57.230469 417.773438 54 447.054688 "/>
<path fill-rule="nonzero" fill="rgb(70.196078%, 70.196078%, 70.196078%)" fill-opacity="1" d="M 53.21875 454.144531 L 51.695312 446.800781 L 56.304688 447.308594 L 53.21875 454.144531 "/>
<path fill="none" stroke-width="1.5" stroke-linecap="butt" stroke-linejoin="miter" stroke="rgb(12.156863%, 47.058824%, 70.588235%)" stroke-opacity="1" stroke-miterlimit="10" d="M 181.066406 145.117188 C 201.671875 120.484375 210.726562 92.074219 204.820312 60.527344 "/>
<path fill-rule="nonzero" fill="rgb(12.156863%, 47.058824%, 70.588235%)" fill-opacity="1" d="M 203.507812 53.515625 L 207.101562 60.101562 L 202.542969 60.953125 L 203.507812 53.515625 "/>
<path fill="none" stroke-width="1.5" stroke-linecap="butt" stroke-linejoin="miter" stroke="rgb(99.215686%, 74.901961%, 43.529412%)" stroke-opacity="1" stroke-miterlimit="10" d="M 640.164062 69.144531 C 638.910156 103.855469 650.0625 134.078125 676.003906 157.152344 "/>
<path fill-rule="nonzero" fill="rgb(99.215686%, 74.901961%, 43.529412%)" fill-opacity="1" d="M 681.332031 161.890625 L 674.460938 158.882812 L 677.542969 155.421875 L 681.332031 161.890625 "/>
<path fill="none" stroke-width="2.5" stroke-linecap="butt" stroke-linejoin="miter" stroke="rgb(70.196078%, 70.196078%, 70.196078%)" stroke-opacity="1" stroke-miterlimit="10" d="M 647.433594 576.453125 C 666.707031 548.039062 673.234375 516.867188 663.617188 483.929688 "/>
<path fill-rule="nonzero" fill="rgb(70.196078%, 70.196078%, 70.196078%)" fill-opacity="1" d="M 661.617188 477.082031 L 665.84375 483.277344 L 661.394531 484.578125 L 661.617188 477.082031 "/>
<path fill="none" stroke-width="1.5" stroke-linecap="butt" stroke-linejoin="miter" stroke="rgb(30.196078%, 68.627451%, 29.019608%)" stroke-opacity="1" stroke-miterlimit="10" d="M 581.023438 203.933594 C 592.089844 230.980469 611.066406 250.460938 638.996094 258.980469 "/>
<path fill-rule="nonzero" fill="rgb(30.196078%, 68.627451%, 29.019608%)" fill-opacity="1" d="M 645.816406 261.058594 L 638.320312 261.195312 L 639.671875 256.761719 L 645.816406 261.058594 "/>
<path fill="none" stroke-width="1.5" stroke-linecap="butt" stroke-linejoin="miter" stroke="rgb(99.215686%, 74.901961%, 43.529412%)" stroke-opacity="1" stroke-miterlimit="10" d="M 581.023438 203.933594 C 593.78125 169.527344 592.5 135.574219 574.226562 103.773438 "/>
<path fill-rule="nonzero" fill="rgb(99.215686%, 74.901961%, 43.529412%)" fill-opacity="1" d="M 570.671875 97.589844 L 576.234375 102.617188 L 572.214844 104.929688 L 570.671875 97.589844 "/>
<path fill="none" stroke-width="1.5" stroke-linecap="butt" stroke-linejoin="miter" stroke="rgb(30.196078%, 68.627451%, 29.019608%)" stroke-opacity="1" stroke-miterlimit="10" d="M 660.324219 472.644531 C 676.933594 442.824219 680.699219 411.375 668.289062 379.597656 "/>
<path fill-rule="nonzero" fill="rgb(30.196078%, 68.627451%, 29.019608%)" fill-opacity="1" d="M 665.691406 372.953125 L 670.445312 378.753906 L 666.128906 380.441406 L 665.691406 372.953125 "/>
<path fill="none" stroke-width="1.5" stroke-linecap="butt" stroke-linejoin="miter" stroke="rgb(99.215686%, 74.901961%, 43.529412%)" stroke-opacity="1" stroke-miterlimit="10" d="M 660.324219 472.644531 C 685.546875 468.570312 705.984375 456.304688 718.679688 434.160156 "/>
<path fill-rule="nonzero" fill="rgb(99.215686%, 74.901961%, 43.529412%)" fill-opacity="1" d="M 722.226562 427.972656 L 720.691406 435.3125 L 716.667969 433.007812 L 722.226562 427.972656 "/>
<path fill="none" stroke-width="1.5" stroke-linecap="butt" stroke-linejoin="miter" stroke="rgb(12.156863%, 47.058824%, 70.588235%)" stroke-opacity="1" stroke-miterlimit="10" d="M 211.136719 455.703125 C 215 420.808594 206.007812 389.519531 181.597656 364.3125 "/>
<path fill-rule="nonzero" fill="rgb(12.156863%, 47.058824%, 70.588235%)" fill-opacity="1" d="M 176.632812 359.1875 L 183.261719 362.699219 L 179.929688 365.925781 L 176.632812 359.1875 "/>
<path fill="none" stroke-width="2.5" stroke-linecap="butt" stroke-linejoin="miter" stroke="rgb(70.196078%, 70.196078%, 70.196078%)" stroke-opacity="1" stroke-miterlimit="10" d="M 211.136719 455.703125 C 231.929688 438.355469 243.90625 416.132812 243.53125 389.082031 "/>
<path fill-rule="nonzero" fill="rgb(70.196078%, 70.196078%, 70.196078%)" fill-opacity="1" d="M 243.433594 381.949219 L 245.851562 389.050781 L 241.214844 389.113281 L 243.433594 381.949219 "/>
<path fill="none" stroke-width="2.5" stroke-linecap="butt" stroke-linejoin="miter" stroke="rgb(70.196078%, 70.196078%, 70.196078%)" stroke-opacity="1" stroke-miterlimit="10" d="M 663.839844 368.207031 C 675.78125 335.457031 674.484375 303.152344 656.871094 273.09375 "/>
<path fill-rule="nonzero" fill="rgb(70.196078%, 70.196078%, 70.196078%)" fill-opacity="1" d="M 653.261719 266.941406 L 658.867188 271.921875 L 654.871094 274.265625 L 653.261719 266.941406 "/>
<path fill="none" stroke-width="3.5" stroke-linecap="butt" stroke-linejoin="miter" stroke="rgb(70.196078%, 70.196078%, 70.196078%)" stroke-opacity="1" stroke-miterlimit="10" d="M 232.046875 558.328125 C 241.265625 525.207031 237.503906 493.539062 217.859375 465.347656 "/>
<path fill-rule="nonzero" fill="rgb(70.196078%, 70.196078%, 70.196078%)" fill-opacity="1" d="M 213.78125 459.496094 L 219.757812 464.023438 L 215.957031 466.675781 L 213.78125 459.496094 "/>
<path fill="none" stroke-width="1.5" stroke-linecap="butt" stroke-linejoin="miter" stroke="rgb(30.196078%, 68.627451%, 29.019608%)" stroke-opacity="1" stroke-miterlimit="10" d="M 678.089844 674.28125 C 683.808594 641.359375 677.148438 611.070312 655.398438 585.730469 "/>
<path fill-rule="nonzero" fill="rgb(30.196078%, 68.627451%, 29.019608%)" fill-opacity="1" d="M 650.753906 580.320312 L 657.15625 584.222656 L 653.640625 587.242188 L 650.753906 580.320312 "/>
<path fill="none" stroke-width="1.5" stroke-linecap="butt" stroke-linejoin="miter" stroke="rgb(12.156863%, 47.058824%, 70.588235%)" stroke-opacity="1" stroke-miterlimit="10" d="M 174.191406 245.835938 C 191.316406 216.851562 195.777344 185.953125 184.375 154.296875 "/>
<path fill-rule="nonzero" fill="rgb(12.156863%, 47.058824%, 70.588235%)" fill-opacity="1" d="M 181.957031 147.589844 L 186.554688 153.511719 L 182.195312 155.085938 L 181.957031 147.589844 "/>
<path fill="none" stroke-width="2.5" stroke-linecap="butt" stroke-linejoin="miter" stroke="rgb(70.196078%, 70.196078%, 70.196078%)" stroke-opacity="1" stroke-miterlimit="10" d="M 685.140625 165.277344 C 710.167969 161.550781 730.625 149.6875 743.390625 127.875 "/>
<path fill-rule="nonzero" fill="rgb(70.196078%, 70.196078%, 70.196078%)" fill-opacity="1" d="M 746.996094 121.71875 L 745.390625 129.046875 L 741.390625 126.703125 L 746.996094 121.71875 "/>
<path fill="none" stroke-width="2.5" stroke-linecap="butt" stroke-linejoin="miter" stroke="rgb(70.196078%, 70.196078%, 70.196078%)" stroke-opacity="1" stroke-miterlimit="10" d="M 650.6875 262.546875 C 639.492188 235.382812 620.363281 215.851562 592.269531 207.34375 "/>
<path fill-rule="nonzero" fill="rgb(70.196078%, 70.196078%, 70.196078%)" fill-opacity="1" d="M 585.441406 205.273438 L 592.941406 205.125 L 591.597656 209.558594 L 585.441406 205.273438 "/>
<path fill="none" stroke-width="1.5" stroke-linecap="butt" stroke-linejoin="miter" stroke="rgb(30.196078%, 68.627451%, 29.019608%)" stroke-opacity="1" stroke-miterlimit="10" d="M 650.6875 262.546875 C 675.195312 239.476562 688.132812 211.046875 685.9375 177.480469 "/>
<path fill-rule="nonzero" fill="rgb(30.196078%, 68.627451%, 29.019608%)" fill-opacity="1" d="M 685.472656 170.363281 L 688.25 177.328125 L 683.625 177.632812 L 685.472656 170.363281 "/>
<path fill="none" stroke-width="1.5" stroke-linecap="butt" stroke-linejoin="miter" stroke="rgb(99.215686%, 74.901961%, 43.529412%)" stroke-opacity="1" stroke-miterlimit="10" d="M 723.535156 425.695312 C 715.410156 400.746094 699.738281 381.925781 675.253906 372.570312 "/>
<path fill-rule="nonzero" fill="rgb(99.215686%, 74.901961%, 43.529412%)" fill-opacity="1" d="M 668.589844 370.023438 L 676.078125 370.402344 L 674.425781 374.734375 L 668.589844 370.023438 "/>
<path fill="none" stroke-width="1.5" stroke-linecap="butt" stroke-linejoin="miter" stroke="rgb(99.215686%, 74.901961%, 43.529412%)" stroke-opacity="1" stroke-miterlimit="10" d="M 569.359375 95.308594 C 593.527344 98.402344 615.566406 92.75 633.125 75.898438 "/>
<path fill-rule="nonzero" fill="rgb(99.215686%, 74.901961%, 43.529412%)" fill-opacity="1" d="M 638.269531 70.960938 L 634.726562 77.570312 L 631.519531 74.226562 L 638.269531 70.960938 "/>
<path fill="none" stroke-width="2.5" stroke-linecap="butt" stroke-linejoin="miter" stroke="rgb(70.196078%, 70.196078%, 70.196078%)" stroke-opacity="1" stroke-miterlimit="10" d="M 243.371094 377.335938 C 227.566406 360.996094 208.195312 352.140625 185.601562 354.320312 "/>
<path fill-rule="nonzero" fill="rgb(70.196078%, 70.196078%, 70.196078%)" fill-opacity="1" d="M 178.5 355.003906 L 185.378906 352.011719 L 185.824219 356.625 L 178.5 355.003906 "/>
<path fill="none" stroke-width="3.5" stroke-linecap="butt" stroke-linejoin="miter" stroke="rgb(70.196078%, 70.196078%, 70.196078%)" stroke-opacity="1" stroke-miterlimit="10" d="M 242.304688 660.558594 C 254.582031 629.222656 254.097656 598 237.757812 568.601562 "/>
<path fill-rule="nonzero" fill="rgb(70.196078%, 70.196078%, 70.196078%)" fill-opacity="1" d="M 234.292969 562.367188 L 239.785156 567.476562 L 235.734375 569.726562 L 234.292969 562.367188 "/>
<path fill="none" stroke-width="1.5" stroke-linecap="butt" stroke-linejoin="miter" stroke="rgb(30.196078%, 68.627451%, 29.019608%)" stroke-opacity="1" stroke-miterlimit="10" d="M 619.503906 750 C 648.179688 736.347656 668.019531 714.539062 675.722656 683.75 "/>
<path fill-rule="nonzero" fill="rgb(30.196078%, 68.627451%, 29.019608%)" fill-opacity="1" d="M 677.453125 676.832031 L 677.96875 684.3125 L 673.472656 683.1875 L 677.453125 676.832031 "/>
<path fill="none" stroke-width="1.5" stroke-linecap="butt" stroke-linejoin="miter" stroke="rgb(99.215686%, 74.901961%, 43.529412%)" stroke-opacity="1" stroke-miterlimit="10" d="M 619.503906 750 C 625.214844 716.894531 618.4375 686.484375 596.582031 660.992188 "/>
<path fill-rule="nonzero" fill="rgb(99.215686%, 74.901961%, 43.529412%)" fill-opacity="1" d="M 591.941406 655.578125 L 598.34375 659.484375 L 594.824219 662.5 L 591.941406 655.578125 "/>
<path fill="none" stroke-width="1.5" stroke-linecap="butt" stroke-linejoin="miter" stroke="rgb(99.215686%, 74.901961%, 43.529412%)" stroke-opacity="1" stroke-miterlimit="10" d="M 590.230469 653.582031 C 618.140625 639.992188 637.421875 618.523438 644.605469 588.347656 "/>
<path fill-rule="nonzero" fill="rgb(99.215686%, 74.901961%, 43.529412%)" fill-opacity="1" d="M 646.253906 581.40625 L 646.859375 588.882812 L 642.347656 587.808594 L 646.253906 581.40625 "/>
<path fill-rule="nonzero" fill="rgb(70.196078%, 70.196078%, 70.196078%)" fill-opacity="1" stroke-width="1" stroke-linecap="butt" stroke-linejoin="miter" stroke="rgb(70.196078%, 70.196078%, 70.196078%)" stroke-opacity="1" stroke-miterlimit="10" d="M 57.5625 458.734375 C 57.5625 465.199219 47.863281 465.199219 47.863281 458.734375 C 47.863281 452.265625 57.5625 452.265625 57.5625 458.734375 "/>
<path fill-rule="nonzero" fill="rgb(70.196078%, 70.196078%, 70.196078%)" fill-opacity="1" stroke-width="1" stroke-linecap="butt" stroke-linejoin="miter" stroke="rgb(70.196078%, 70.196078%, 70.196078%)" stroke-opacity="1" stroke-miterlimit="10" d="M 178.4375 355.527344 C 178.4375 362.660156 167.738281 362.660156 167.738281 355.527344 C 167.738281 348.394531 178.4375 348.394531 178.4375 355.527344 "/>
<path fill-rule="nonzero" fill="rgb(70.196078%, 70.196078%, 70.196078%)" fill-opacity="1" stroke-width="1" stroke-linecap="butt" stroke-linejoin="miter" stroke="rgb(70.196078%, 70.196078%, 70.196078%)" stroke-opacity="1" stroke-miterlimit="10" d="M 102.558594 379.265625 C 102.558594 385.734375 92.859375 385.734375 92.859375 379.265625 C 92.859375 372.800781 102.558594 372.800781 102.558594 379.265625 "/>
<path fill-rule="nonzero" fill="rgb(12.156863%, 47.058824%, 70.588235%)" fill-opacity="1" stroke-width="1" stroke-linecap="butt" stroke-linejoin="miter" stroke="rgb(12.156863%, 47.058824%, 70.588235%)" stroke-opacity="1" stroke-miterlimit="10" d="M 183.816406 145.117188 C 183.816406 148.78125 178.316406 148.78125 178.316406 145.117188 C 178.316406 141.449219 183.816406 141.449219 183.816406 145.117188 "/>
<path fill-rule="nonzero" fill="rgb(99.215686%, 74.901961%, 43.529412%)" fill-opacity="1" stroke-width="1" stroke-linecap="butt" stroke-linejoin="miter" stroke="rgb(99.215686%, 74.901961%, 43.529412%)" stroke-opacity="1" stroke-miterlimit="10" d="M 642.914062 69.144531 C 642.914062 72.808594 637.414062 72.808594 637.414062 69.144531 C 637.414062 65.476562 642.914062 65.476562 642.914062 69.144531 "/>
<path fill-rule="nonzero" fill="rgb(70.196078%, 70.196078%, 70.196078%)" fill-opacity="1" stroke-width="1" stroke-linecap="butt" stroke-linejoin="miter" stroke="rgb(70.196078%, 70.196078%, 70.196078%)" stroke-opacity="1" stroke-miterlimit="10" d="M 652.785156 576.453125 C 652.785156 583.585938 642.085938 583.585938 642.085938 576.453125 C 642.085938 569.320312 652.785156 569.320312 652.785156 576.453125 "/>
<path fill-rule="nonzero" fill="rgb(70.196078%, 70.196078%, 70.196078%)" fill-opacity="1" stroke-width="1" stroke-linecap="butt" stroke-linejoin="miter" stroke="rgb(70.196078%, 70.196078%, 70.196078%)" stroke-opacity="1" stroke-miterlimit="10" d="M 585.875 203.933594 C 585.875 210.402344 576.171875 210.402344 576.171875 203.933594 C 576.171875 197.46875 585.875 197.46875 585.875 203.933594 "/>
<path fill-rule="nonzero" fill="rgb(70.196078%, 70.196078%, 70.196078%)" fill-opacity="1" stroke-width="1" stroke-linecap="butt" stroke-linejoin="miter" stroke="rgb(70.196078%, 70.196078%, 70.196078%)" stroke-opacity="1" stroke-miterlimit="10" d="M 665.171875 472.644531 C 665.171875 479.109375 655.472656 479.109375 655.472656 472.644531 C 655.472656 466.175781 665.171875 466.175781 665.171875 472.644531 "/>
<path fill-rule="nonzero" fill="rgb(70.196078%, 70.196078%, 70.196078%)" fill-opacity="1" stroke-width="1" stroke-linecap="butt" stroke-linejoin="miter" stroke="rgb(70.196078%, 70.196078%, 70.196078%)" stroke-opacity="1" stroke-miterlimit="10" d="M 215.988281 455.703125 C 215.988281 462.171875 206.289062 462.171875 206.289062 455.703125 C 206.289062 449.238281 215.988281 449.238281 215.988281 455.703125 "/>
<path fill-rule="nonzero" fill="rgb(70.196078%, 70.196078%, 70.196078%)" fill-opacity="1" stroke-width="1" stroke-linecap="butt" stroke-linejoin="miter" stroke="rgb(70.196078%, 70.196078%, 70.196078%)" stroke-opacity="1" stroke-miterlimit="10" d="M 669.1875 368.207031 C 669.1875 375.339844 658.488281 375.339844 658.488281 368.207031 C 658.488281 361.074219 669.1875 361.074219 669.1875 368.207031 "/>
<path fill-rule="nonzero" fill="rgb(70.196078%, 70.196078%, 70.196078%)" fill-opacity="1" stroke-width="1" stroke-linecap="butt" stroke-linejoin="miter" stroke="rgb(70.196078%, 70.196078%, 70.196078%)" stroke-opacity="1" stroke-miterlimit="10" d="M 236.898438 558.328125 C 236.898438 564.792969 227.199219 564.792969 227.199219 558.328125 C 227.199219 551.859375 236.898438 551.859375 236.898438 558.328125 "/>
<path fill-rule="nonzero" fill="rgb(30.196078%, 68.627451%, 29.019608%)" fill-opacity="1" stroke-width="1" stroke-linecap="butt" stroke-linejoin="miter" stroke="rgb(30.196078%, 68.627451%, 29.019608%)" stroke-opacity="1" stroke-miterlimit="10" d="M 680.839844 674.28125 C 680.839844 677.949219 675.339844 677.949219 675.339844 674.28125 C 675.339844 670.613281 680.839844 670.613281 680.839844 674.28125 "/>
<path fill-rule="nonzero" fill="rgb(14.901961%, 14.901961%, 14.901961%)" fill-opacity="1" stroke-width="1" stroke-linecap="butt" stroke-linejoin="miter" stroke="rgb(14.901961%, 14.901961%, 14.901961%)" stroke-opacity="1" stroke-miterlimit="10" d="M 199.101562 53.75 L 202.851562 46.25 L 206.601562 53.75 Z M 199.101562 53.75 "/>
<path fill-rule="nonzero" fill="rgb(12.156863%, 47.058824%, 70.588235%)" fill-opacity="1" stroke-width="1" stroke-linecap="butt" stroke-linejoin="miter" stroke="rgb(12.156863%, 47.058824%, 70.588235%)" stroke-opacity="1" stroke-miterlimit="10" d="M 176.941406 245.835938 C 176.941406 249.503906 171.441406 249.503906 171.441406 245.835938 C 171.441406 242.167969 176.941406 242.167969 176.941406 245.835938 "/>
<path fill-rule="nonzero" fill="rgb(14.901961%, 14.901961%, 14.901961%)" fill-opacity="1" stroke-width="1" stroke-linecap="butt" stroke-linejoin="miter" stroke="rgb(14.901961%, 14.901961%, 14.901961%)" stroke-opacity="1" stroke-miterlimit="10" d="M 744.148438 122.4375 L 750 110.738281 L 755.851562 122.4375 Z M 744.148438 122.4375 "/>
<path fill-rule="nonzero" fill="rgb(70.196078%, 70.196078%, 70.196078%)" fill-opacity="1" stroke-width="1" stroke-linecap="butt" stroke-linejoin="miter" stroke="rgb(70.196078%, 70.196078%, 70.196078%)" stroke-opacity="1" stroke-miterlimit="10" d="M 690.488281 165.277344 C 690.488281 172.414062 679.789062 172.414062 679.789062 165.277344 C 679.789062 158.144531 690.488281 158.144531 690.488281 165.277344 "/>
<path fill-rule="nonzero" fill="rgb(14.901961%, 14.901961%, 14.901961%)" fill-opacity="1" stroke-width="1" stroke-linecap="butt" stroke-linejoin="miter" stroke="rgb(14.901961%, 14.901961%, 14.901961%)" stroke-opacity="1" stroke-miterlimit="10" d="M 44.148438 567.320312 L 50 555.621094 L 55.851562 567.320312 Z M 44.148438 567.320312 "/>
<path fill-rule="nonzero" fill="rgb(70.196078%, 70.196078%, 70.196078%)" fill-opacity="1" stroke-width="1" stroke-linecap="butt" stroke-linejoin="miter" stroke="rgb(70.196078%, 70.196078%, 70.196078%)" stroke-opacity="1" stroke-miterlimit="10" d="M 656.035156 262.546875 C 656.035156 269.679688 645.335938 269.679688 645.335938 262.546875 C 645.335938 255.410156 656.035156 255.410156 656.035156 262.546875 "/>
<path fill-rule="nonzero" fill="rgb(99.215686%, 74.901961%, 43.529412%)" fill-opacity="1" stroke-width="1" stroke-linecap="butt" stroke-linejoin="miter" stroke="rgb(99.215686%, 74.901961%, 43.529412%)" stroke-opacity="1" stroke-miterlimit="10" d="M 726.285156 425.695312 C 726.285156 429.363281 720.785156 429.363281 720.785156 425.695312 C 720.785156 422.027344 726.285156 422.027344 726.285156 425.695312 "/>
<path fill-rule="nonzero" fill="rgb(99.215686%, 74.901961%, 43.529412%)" fill-opacity="1" stroke-width="1" stroke-linecap="butt" stroke-linejoin="miter" stroke="rgb(99.215686%, 74.901961%, 43.529412%)" stroke-opacity="1" stroke-miterlimit="10" d="M 572.109375 95.308594 C 572.109375 98.976562 566.609375 98.976562 566.609375 95.308594 C 566.609375 91.640625 572.109375 91.640625 572.109375 95.308594 "/>
<path fill-rule="nonzero" fill="rgb(70.196078%, 70.196078%, 70.196078%)" fill-opacity="1" stroke-width="1" stroke-linecap="butt" stroke-linejoin="miter" stroke="rgb(70.196078%, 70.196078%, 70.196078%)" stroke-opacity="1" stroke-miterlimit="10" d="M 248.222656 377.335938 C 248.222656 383.800781 238.519531 383.800781 238.519531 377.335938 C 238.519531 370.867188 248.222656 370.867188 248.222656 377.335938 "/>
<path fill-rule="nonzero" fill="rgb(100%, 84.313725%, 0%)" fill-opacity="1" stroke-width="1" stroke-linecap="butt" stroke-linejoin="miter" stroke="rgb(100%, 84.313725%, 0%)" stroke-opacity="1" stroke-miterlimit="10" d="M 236.953125 655.207031 L 247.652344 655.207031 L 247.652344 665.90625 L 236.953125 665.90625 Z M 236.953125 655.207031 "/>
<path fill-rule="nonzero" fill="rgb(100%, 84.313725%, 0%)" fill-opacity="1" stroke-width="1" stroke-linecap="butt" stroke-linejoin="miter" stroke="rgb(100%, 84.313725%, 0%)" stroke-opacity="1" stroke-miterlimit="10" d="M 614.15625 744.648438 L 624.855469 744.648438 L 624.855469 755.347656 L 614.15625 755.347656 Z M 614.15625 744.648438 "/>
<path fill-rule="nonzero" fill="rgb(99.215686%, 74.901961%, 43.529412%)" fill-opacity="1" stroke-width="1" stroke-linecap="butt" stroke-linejoin="miter" stroke="rgb(99.215686%, 74.901961%, 43.529412%)" stroke-opacity="1" stroke-miterlimit="10" d="M 592.980469 653.582031 C 592.980469 657.25 587.480469 657.25 587.480469 653.582031 C 587.480469 649.914062 592.980469 649.914062 592.980469 653.582031 "/>
</svg>
