<?xml version="1.0" encoding="UTF-8"?>
<svg xmlns="http://www.w3.org/2000/svg" xmlns:xlink="http://www.w3.org/1999/xlink" width="800" height="800" viewBox="0 0 800 800">
<rect x="-80" y="-80" width="960" height="960" fill="rgb(100%, 100%, 100%)" fill-opacity="1"/>
<path fill="none" stroke-width="1.5" stroke-linecap="butt" stroke-linejoin="miter" stroke="rgb(30.196078%, 68.627451%, 29.019608%)" stroke-opacity="1" stroke-miterlimit="10" d="M 520.753906 400 C 593.25 434.367188 666.867188 436.875 740.199219 404.347656 "/>
<path fill-rule="nonzero" fill="rgb(30.196078%, 68.627451%, 29.019608%)" fill-opacity="1" d="M 746.71875 401.453125 L 741.136719 406.464844 L 739.257812 402.226562 L 746.71875 401.453125 "/>
<path fill="none" stroke-width="2.5" stroke-linecap="butt" stroke-linejoin="miter" stroke="rgb(70.196078%, 70.196078%, 70.196078%)" stroke-opacity="1" stroke-miterlimit="10" d="M 520.753906 400 C 460.53125 508.394531 449.882812 621.484375 492.207031 738.03125 "/>
<path fill-rule="nonzero" fill="rgb(70.196078%, 70.196078%, 70.196078%)" fill-opacity="1" d="M 494.640625 744.738281 L 490.027344 738.824219 L 494.386719 737.242188 L 494.640625 744.738281 "/>
<path fill="none" stroke-width="1.5" stroke-linecap="butt" stroke-linejoin="miter" stroke="rgb(12.156863%, 47.058824%, 70.588235%)" stroke-opacity="1" stroke-miterlimit="10" d="M 50 400 C 21.40625 507.085938 36.738281 607.488281 98.882812 699.261719 "/>
<path fill-rule="nonzero" fill="rgb(12.156863%, 47.058824%, 70.588235%)" fill-opacity="1" d="M 102.882812 705.167969 L 96.964844 700.558594 L 100.800781 697.960938 L 102.882812 705.167969 "/>
<path fill="none" stroke-width="4.5" stroke-linecap="butt" stroke-linejoin="miter" stroke="rgb(70.196078%, 70.196078%, 70.196078%)" stroke-opacity="1" stroke-miterlimit="10" d="M 496.554688 50 C 451.824219 165.652344 456.839844 279.132812 514.800781 388.746094 "/>
<path fill-rule="nonzero" fill="rgb(70.196078%, 70.196078%, 70.196078%)" fill-opacity="1" d="M 518.132812 395.050781 L 512.75 389.828125 L 516.847656 387.660156 L 518.132812 395.050781 "/>
<path fill="none" stroke-width="1.5" stroke-linecap="butt" stroke-linejoin="miter" stroke="rgb(12.156863%, 47.058824%, 70.588235%)" stroke-opacity="1" stroke-miterlimit="10" d="M 104.898438 91.859375 C 41.011719 182.824219 20.828125 282.652344 47.644531 390.519531 "/>
<path fill-rule="nonzero" fill="rgb(12.156863%, 47.058824%, 70.588235%)" fill-opacity="1" d="M 49.363281 397.441406 L 45.394531 391.078125 L 49.890625 389.960938 L 49.363281 397.441406 "/>
<path fill-rule="nonzero" fill="rgb(14.901961%, 14.901961%, 14.901961%)" fill-opacity="1" stroke-width="1" stroke-linecap="butt" stroke-linejoin="miter" stroke="rgb(14.901961%, 14.901961%, 14.901961%)" stroke-opacity="1" stroke-miterlimit="10" d="M 514.902344 405.851562 L 520.753906 394.148438 L 526.601562 405.851562 Z M 514.902344 405.851562 "/>
<path fill-rule="nonzero" fill="rgb(14.901961%, 14.901961%, 14.901961%)" fill-opacity="1" stroke-width="1" stroke-linecap="butt" stroke-linejoin="miter" stroke="rgb(14.901961%, 14.901961%, 14.901961%)" stroke-opacity="1" stroke-miterlimit="10" d="M 746.25 403.75 L 750 396.25 L 753.75 403.75 Z M 746.25 403.75 "/>
<path fill-rule="nonzero" fill="rgb(12.156863%, 47.058824%, 70.588235%)" fill-opacity="1" stroke-width="1" stroke-linecap="butt" stroke-linejoin="miter" stroke="rgb(12.156863%, 47.058824%, 70.588235%)" stroke-opacity="1" stroke-miterlimit="10" d="M 52.75 400 C 52.75 403.667969 47.25 403.667969 47.25 400 C 47.25 396.332031 52.75 396.332031 52.75 400 "/>
<path fill-rule="nonzero" fill="rgb(100%, 84.313725%, 0%)" fill-opacity="1" stroke-width="1" stroke-linecap="butt" stroke-linejoin="miter" stroke="rgb(100%, 84.313725%, 0%)" stroke-opacity="1" stroke-miterlimit="10" d="M 491.203125 44.648438 L 501.902344 44.648438 L 501.902344 55.347656 L 491.203125 55.347656 Z M 491.203125 44.648438 "/>
<path fill-rule="nonzero" fill="rgb(14.901961%, 14.901961%, 14.901961%)" fill-opacity="1" stroke-width="1" stroke-linecap="butt" stroke-linejoin="miter" stroke="rgb(14.901961%, 14.901961%, 14.901961%)" stroke-opacity="1" stroke-miterlimit="10" d="M 490.703125 755.851562 L 496.554688 744.148438 L 502.402344 755.851562 Z M 490.703125 755.851562 "/>
<path fill-rule="nonzero" fill="rgb(14.901961%, 14.901961%, 14.901961%)" fill-opacity="1" stroke-width="1" stroke-linecap="butt" stroke-linejoin="miter" stroke="rgb(14.901961%, 14.901961%, 14.901961%)" stroke-opacity="1" stroke-miterlimit="10" d="M 101.148438 711.890625 L 104.898438 704.390625 L 108.648438 711.890625 Z M 101.148438 711.890625 "/>
<path fill-rule="nonzero" fill="rgb(100%, 84.313725%, 0%)" fill-opacity="1" stroke-width="1" stroke-linecap="butt" stroke-linejoin="miter" stroke="rgb(100%, 84.313725%, 0%)" stroke-opacity="1" stroke-miterlimit="10" d="M 101.648438 88.609375 L 108.148438 88.609375 L 108.148438 95.109375 L 101.648438 95.109375 Z M 101.648438 88.609375 "/>
</svg>
