<?xml version="1.0" encoding="UTF-8"?>
<svg xmlns="http://www.w3.org/2000/svg" xmlns:xlink="http://www.w3.org/1999/xlink" width="800" height="800" viewBox="0 0 800 800">
<rect x="-80" y="-80" width="960" height="960" fill="rgb(100%, 100%, 100%)" fill-opacity="1"/>
<path fill="none" stroke-width="5.5" stroke-linecap="butt" stroke-linejoin="miter" stroke="rgb(70.196078%, 70.196078%, 70.196078%)" stroke-opacity="1" stroke-miterlimit="10" d="M 729.882812 137.324219 C 748.214844 116.40625 756.8125 91.945312 752.136719 64.554688 "/>
<path fill-rule="nonzero" fill="rgb(70.196078%, 70.196078%, 70.196078%)" fill-opacity="1" d="M 750.9375 57.523438 L 754.421875 64.164062 L 749.851562 64.945312 L 750.9375 57.523438 "/>
<path fill="none" stroke-width="5.5" stroke-linecap="butt" stroke-linejoin="miter" stroke="rgb(70.196078%, 70.196078%, 70.196078%)" stroke-opacity="1" stroke-miterlimit="10" d="M 709.523438 204.738281 C 725.089844 189.398438 733.460938 170.691406 731.136719 148.996094 "/>
<path fill-rule="nonzero" fill="rgb(70.196078%, 70.196078%, 70.196078%)" fill-opacity="1" d="M 730.375 141.902344 L 733.4375 148.75 L 728.832031 149.242188 L 730.375 141.902344 "/>
<path fill="none" stroke-width="5.5" stroke-linecap="butt" stroke-linejoin="miter" stroke="rgb(70.196078%, 70.196078%, 70.196078%)" stroke-opacity="1" stroke-miterlimit="10" d="M 688.96875 254.8125 C 701.53125 245.222656 709.566406 232.546875 709.542969 216.789062 "/>
<path fill-rule="nonzero" fill="rgb(70.196078%, 70.196078%, 70.196078%)" fill-opacity="1" d="M 709.53125 209.65625 L 711.859375 216.785156 L 707.222656 216.792969 L 709.53125 209.65625 "/>
<path fill="none" stroke-width="5.5" stroke-linecap="butt" stroke-linejoin="miter" stroke="rgb(70.196078%, 70.196078%, 70.196078%)" stroke-opacity="1" stroke-miterlimit="10" d="M 668.394531 305.109375 C 681 295.453125 689.046875 282.699219 689.003906 266.863281 "/>
<path fill-rule="nonzero" fill="rgb(70.196078%, 70.196078%, 70.196078%)" fill-opacity="1" d="M 688.980469 259.730469 L 691.320312 266.859375 L 686.683594 266.871094 L 688.980469 259.730469 "/>
<path fill="none" stroke-width="5.5" stroke-linecap="butt" stroke-linejoin="miter" stroke="rgb(70.196078%, 70.196078%, 70.196078%)" stroke-opacity="1" stroke-miterlimit="10" d="M 647.746094 343.980469 C 658.246094 337.921875 665.875 329.078125 667.136719 317.082031 "/>
<path fill-rule="nonzero" fill="rgb(70.196078%, 70.196078%, 70.196078%)" fill-opacity="1" d="M 667.882812 309.988281 L 669.441406 317.324219 L 664.832031 316.839844 L 667.882812 309.988281 "/>
<path fill="none" stroke-width="5.5" stroke-linecap="butt" stroke-linejoin="miter" stroke="rgb(70.196078%, 70.196078%, 70.196078%)" stroke-opacity="1" stroke-miterlimit="10" d="M 627.367188 412.628906 C 643.144531 396.890625 651.542969 377.765625 649.058594 355.648438 "/>
<path fill-rule="nonzero" fill="rgb(70.196078%, 70.196078%, 70.196078%)" fill-opacity="1" d="M 648.261719 348.558594 L 651.363281 355.390625 L 646.753906 355.90625 L 648.261719 348.558594 "/>
<path fill="none" stroke-width="5.5" stroke-linecap="butt" stroke-linejoin="miter" stroke="rgb(70.196078%, 70.196078%, 70.196078%)" stroke-opacity="1" stroke-miterlimit="10" d="M 606.90625 472.589844 C 621.183594 459.804688 629.449219 443.75 628.171875 424.660156 "/>
<path fill-rule="nonzero" fill="rgb(70.196078%, 70.196078%, 70.196078%)" fill-opacity="1" d="M 627.695312 417.546875 L 630.484375 424.507812 L 625.859375 424.816406 L 627.695312 417.546875 "/>
<path fill="none" stroke-width="5.5" stroke-linecap="butt" stroke-linejoin="miter" stroke="rgb(70.196078%, 70.196078%, 70.196078%)" stroke-opacity="1" stroke-miterlimit="10" d="M 586.324219 519.246094 C 598.269531 510.75 606.199219 499.242188 606.585938 484.632812 "/>
<path fill-rule="nonzero" fill="rgb(70.196078%, 70.196078%, 70.196078%)" fill-opacity="1" d="M 606.777344 477.503906 L 608.902344 484.695312 L 604.269531 484.574219 L 606.777344 477.503906 "/>
<path fill="none" stroke-width="5.5" stroke-linecap="butt" stroke-linejoin="miter" stroke="rgb(70.196078%, 70.196078%, 70.196078%)" stroke-opacity="1" stroke-miterlimit="10" d="M 565.679688 558.792969 C 576.308594 552.523438 583.96875 543.449219 585.15625 531.226562 "/>
<path fill-rule="nonzero" fill="rgb(70.196078%, 70.196078%, 70.196078%)" fill-opacity="1" d="M 585.847656 524.128906 L 587.464844 531.453125 L 582.851562 531.003906 L 585.847656 524.128906 "/>
<path fill="none" stroke-width="5.5" stroke-linecap="butt" stroke-linejoin="miter" stroke="rgb(70.196078%, 70.196078%, 70.196078%)" stroke-opacity="1" stroke-miterlimit="10" d="M 545.019531 593.632812 C 554.730469 588.800781 562.15625 581.328125 563.820312 570.675781 "/>
<path fill-rule="nonzero" fill="rgb(70.196078%, 70.196078%, 70.196078%)" fill-opacity="1" d="M 564.925781 563.628906 L 566.113281 571.035156 L 561.53125 570.316406 L 564.925781 563.628906 "/>
<path fill="none" stroke-width="5.5" stroke-linecap="butt" stroke-linejoin="miter" stroke="rgb(70.196078%, 70.196078%, 70.196078%)" stroke-opacity="1" stroke-miterlimit="10" d="M 524.328125 624.09375 C 533.15625 620.558594 540.316406 614.570312 542.382812 605.363281 "/>
<path fill-rule="nonzero" fill="rgb(70.196078%, 70.196078%, 70.196078%)" fill-opacity="1" d="M 543.949219 598.402344 L 544.644531 605.871094 L 540.121094 604.851562 L 543.949219 598.402344 "/>
<path fill="none" stroke-width="5.5" stroke-linecap="butt" stroke-linejoin="miter" stroke="rgb(70.196078%, 70.196078%, 70.196078%)" stroke-opacity="1" stroke-miterlimit="10" d="M 420.65625 726.679688 C 426.578125 726.65625 432.5 725 435.410156 719.972656 "/>
<path fill-rule="nonzero" fill="rgb(70.196078%, 70.196078%, 70.196078%)" fill-opacity="1" d="M 438.980469 713.796875 L 437.414062 721.132812 L 433.402344 718.8125 L 438.980469 713.796875 "/>
<path fill="none" stroke-width="5.5" stroke-linecap="butt" stroke-linejoin="miter" stroke="rgb(70.196078%, 70.196078%, 70.196078%)" stroke-opacity="1" stroke-miterlimit="10" d="M 399.90625 750 C 407.226562 748.449219 413.820312 744.832031 416.425781 737.914062 "/>
<path fill-rule="nonzero" fill="rgb(70.196078%, 70.196078%, 70.196078%)" fill-opacity="1" d="M 418.9375 731.238281 L 418.59375 738.730469 L 414.257812 737.097656 L 418.9375 731.238281 "/>
<path fill="none" stroke-width="5.5" stroke-linecap="butt" stroke-linejoin="miter" stroke="rgb(70.196078%, 70.196078%, 70.196078%)" stroke-opacity="1" stroke-miterlimit="10" d="M 379.152344 731.773438 C 380.234375 737.867188 383 743.617188 388.6875 745.765625 "/>
<path fill-rule="nonzero" fill="rgb(70.196078%, 70.196078%, 70.196078%)" fill-opacity="1" d="M 395.359375 748.285156 L 387.871094 747.933594 L 389.507812 743.597656 L 395.359375 748.285156 "/>
<path fill="none" stroke-width="5.5" stroke-linecap="butt" stroke-linejoin="miter" stroke="rgb(70.196078%, 70.196078%, 70.196078%)" stroke-opacity="1" stroke-miterlimit="10" d="M 358.390625 721.722656 C 360.023438 725.988281 362.855469 730.070312 367.25 730.53125 "/>
<path fill-rule="nonzero" fill="rgb(70.196078%, 70.196078%, 70.196078%)" fill-opacity="1" d="M 374.34375 731.273438 L 367.007812 732.835938 L 367.492188 728.226562 L 374.34375 731.273438 "/>
<path fill="none" stroke-width="5.5" stroke-linecap="butt" stroke-linejoin="miter" stroke="rgb(70.196078%, 70.196078%, 70.196078%)" stroke-opacity="1" stroke-miterlimit="10" d="M 503.617188 650.816406 C 511.664062 648.34375 518.546875 643.605469 520.917969 635.609375 "/>
<path fill-rule="nonzero" fill="rgb(70.196078%, 70.196078%, 70.196078%)" fill-opacity="1" d="M 522.941406 628.769531 L 523.136719 636.269531 L 518.695312 634.953125 L 522.941406 628.769531 "/>
<path fill="none" stroke-width="5.5" stroke-linecap="butt" stroke-linejoin="miter" stroke="rgb(70.196078%, 70.196078%, 70.196078%)" stroke-opacity="1" stroke-miterlimit="10" d="M 482.894531 672.886719 C 489.929688 671.660156 496.398438 668.445312 499.070312 661.921875 "/>
<path fill-rule="nonzero" fill="rgb(70.196078%, 70.196078%, 70.196078%)" fill-opacity="1" d="M 501.769531 655.320312 L 501.214844 662.800781 L 496.921875 661.046875 L 501.769531 655.320312 "/>
<path fill="none" stroke-width="5.5" stroke-linecap="butt" stroke-linejoin="miter" stroke="rgb(70.196078%, 70.196078%, 70.196078%)" stroke-opacity="1" stroke-miterlimit="10" d="M 462.15625 693.796875 C 468.9375 692.863281 475.289062 690.019531 478.027344 683.855469 "/>
<path fill-rule="nonzero" fill="rgb(70.196078%, 70.196078%, 70.196078%)" fill-opacity="1" d="M 480.921875 677.335938 L 480.144531 684.792969 L 475.90625 682.914062 L 480.921875 677.335938 "/>
<path fill="none" stroke-width="5.5" stroke-linecap="butt" stroke-linejoin="miter" stroke="rgb(70.196078%, 70.196078%, 70.196078%)" stroke-opacity="1" stroke-miterlimit="10" d="M 337.644531 704.769531 C 338.8125 710.546875 341.570312 716.007812 347.042969 717.867188 "/>
<path fill-rule="nonzero" fill="rgb(70.196078%, 70.196078%, 70.196078%)" fill-opacity="1" d="M 353.796875 720.164062 L 346.296875 720.0625 L 347.789062 715.671875 L 353.796875 720.164062 "/>
<path fill="none" stroke-width="5.5" stroke-linecap="butt" stroke-linejoin="miter" stroke="rgb(70.196078%, 70.196078%, 70.196078%)" stroke-opacity="1" stroke-miterlimit="10" d="M 316.90625 685.71875 C 317.921875 692.019531 320.691406 697.957031 326.515625 700.296875 "/>
<path fill-rule="nonzero" fill="rgb(70.196078%, 70.196078%, 70.196078%)" fill-opacity="1" d="M 333.136719 702.957031 L 325.652344 702.449219 L 327.382812 698.148438 L 333.136719 702.957031 "/>
<path fill="none" stroke-width="5.5" stroke-linecap="butt" stroke-linejoin="miter" stroke="rgb(70.196078%, 70.196078%, 70.196078%)" stroke-opacity="1" stroke-miterlimit="10" d="M 441.410156 709.59375 C 447.039062 709.855469 452.796875 708.582031 455.746094 703.921875 "/>
<path fill-rule="nonzero" fill="rgb(70.196078%, 70.196078%, 70.196078%)" fill-opacity="1" d="M 459.5625 697.894531 L 457.703125 705.160156 L 453.789062 702.683594 L 459.5625 697.894531 "/>
<path fill="none" stroke-width="5.5" stroke-linecap="butt" stroke-linejoin="miter" stroke="rgb(70.196078%, 70.196078%, 70.196078%)" stroke-opacity="1" stroke-miterlimit="10" d="M 296.175781 663.332031 C 296.9375 670.519531 299.742188 677.253906 306.140625 680.410156 "/>
<path fill-rule="nonzero" fill="rgb(70.196078%, 70.196078%, 70.196078%)" fill-opacity="1" d="M 312.539062 683.566406 L 305.117188 682.488281 L 307.164062 678.332031 L 312.539062 683.566406 "/>
<path fill="none" stroke-width="5.5" stroke-linecap="butt" stroke-linejoin="miter" stroke="rgb(70.196078%, 70.196078%, 70.196078%)" stroke-opacity="1" stroke-miterlimit="10" d="M 275.460938 637.167969 C 275.902344 645.417969 278.761719 653.121094 285.816406 657.257812 "/>
<path fill-rule="nonzero" fill="rgb(70.196078%, 70.196078%, 70.196078%)" fill-opacity="1" d="M 291.96875 660.863281 L 284.644531 659.253906 L 286.988281 655.257812 L 291.96875 660.863281 "/>
<path fill="none" stroke-width="5.5" stroke-linecap="butt" stroke-linejoin="miter" stroke="rgb(70.196078%, 70.196078%, 70.196078%)" stroke-opacity="1" stroke-miterlimit="10" d="M 254.765625 606.90625 C 254.820312 616.359375 257.746094 625.167969 265.511719 630.425781 "/>
<path fill-rule="nonzero" fill="rgb(70.196078%, 70.196078%, 70.196078%)" fill-opacity="1" d="M 271.417969 634.429688 L 264.210938 632.347656 L 266.8125 628.507812 L 271.417969 634.429688 "/>
<path fill="none" stroke-width="5.5" stroke-linecap="butt" stroke-linejoin="miter" stroke="rgb(70.196078%, 70.196078%, 70.196078%)" stroke-opacity="1" stroke-miterlimit="10" d="M 234.09375 572.207031 C 233.695312 583.003906 236.691406 593.0625 245.21875 599.59375 "/>
<path fill-rule="nonzero" fill="rgb(70.196078%, 70.196078%, 70.196078%)" fill-opacity="1" d="M 250.878906 603.929688 L 243.808594 601.433594 L 246.625 597.753906 L 250.878906 603.929688 "/>
<path fill="none" stroke-width="5.5" stroke-linecap="butt" stroke-linejoin="miter" stroke="rgb(70.196078%, 70.196078%, 70.196078%)" stroke-opacity="1" stroke-miterlimit="10" d="M 213.449219 532.777344 C 212.527344 545.042969 215.59375 556.484375 224.921875 564.414062 "/>
<path fill-rule="nonzero" fill="rgb(70.196078%, 70.196078%, 70.196078%)" fill-opacity="1" d="M 230.359375 569.03125 L 223.421875 566.179688 L 226.425781 562.648438 L 230.359375 569.03125 "/>
<path fill="none" stroke-width="5.5" stroke-linecap="butt" stroke-linejoin="miter" stroke="rgb(70.196078%, 70.196078%, 70.196078%)" stroke-opacity="1" stroke-miterlimit="10" d="M 111.238281 226.070312 C 104.351562 253.117188 107.796875 278.890625 124.414062 301.28125 "/>
<path fill-rule="nonzero" fill="rgb(70.196078%, 70.196078%, 70.196078%)" fill-opacity="1" d="M 128.667969 307.007812 L 122.554688 302.660156 L 126.277344 299.898438 L 128.667969 307.007812 "/>
<path fill="none" stroke-width="5.5" stroke-linecap="butt" stroke-linejoin="miter" stroke="rgb(70.196078%, 70.196078%, 70.196078%)" stroke-opacity="1" stroke-miterlimit="10" d="M 192.855469 487.636719 C 191.261719 501.707031 194.398438 514.859375 204.675781 524.523438 "/>
<path fill-rule="nonzero" fill="rgb(70.196078%, 70.196078%, 70.196078%)" fill-opacity="1" d="M 209.871094 529.410156 L 203.085938 526.214844 L 206.261719 522.835938 L 209.871094 529.410156 "/>
<path fill="none" stroke-width="5.5" stroke-linecap="butt" stroke-linejoin="miter" stroke="rgb(70.196078%, 70.196078%, 70.196078%)" stroke-opacity="1" stroke-miterlimit="10" d="M 151.816406 378.035156 C 148.535156 396.390625 151.800781 413.675781 164.242188 427.515625 "/>
<path fill-rule="nonzero" fill="rgb(70.196078%, 70.196078%, 70.196078%)" fill-opacity="1" d="M 169.011719 432.820312 L 162.519531 429.066406 L 165.964844 425.964844 L 169.011719 432.820312 "/>
<path fill="none" stroke-width="5.5" stroke-linecap="butt" stroke-linejoin="miter" stroke="rgb(70.196078%, 70.196078%, 70.196078%)" stroke-opacity="1" stroke-miterlimit="10" d="M 131.417969 310.714844 C 126.96875 332.082031 130.359375 352.265625 144.304688 369.011719 "/>
<path fill-rule="nonzero" fill="rgb(70.196078%, 70.196078%, 70.196078%)" fill-opacity="1" d="M 148.867188 374.492188 L 142.523438 370.496094 L 146.085938 367.527344 L 148.867188 374.492188 "/>
<path fill="none" stroke-width="5.5" stroke-linecap="butt" stroke-linejoin="miter" stroke="rgb(70.196078%, 70.196078%, 70.196078%)" stroke-opacity="1" stroke-miterlimit="10" d="M 172.304688 436.484375 C 169.96875 452.480469 173.167969 467.480469 184.433594 479.015625 "/>
<path fill-rule="nonzero" fill="rgb(70.196078%, 70.196078%, 70.196078%)" fill-opacity="1" d="M 189.417969 484.117188 L 182.777344 480.632812 L 186.09375 477.394531 L 189.417969 484.117188 "/>
<path fill="none" stroke-width="5.5" stroke-linecap="butt" stroke-linejoin="miter" stroke="rgb(70.196078%, 70.196078%, 70.196078%)" stroke-opacity="1" stroke-miterlimit="10" d="M 50 50 C 51.167969 55.820312 53.9375 61.320312 59.445312 63.210938 "/>
<path fill-rule="nonzero" fill="rgb(70.196078%, 70.196078%, 70.196078%)" fill-opacity="1" d="M 66.191406 65.527344 L 58.695312 65.40625 L 60.199219 61.019531 L 66.191406 65.527344 "/>
<path fill="none" stroke-width="5.5" stroke-linecap="butt" stroke-linejoin="miter" stroke="rgb(70.196078%, 70.196078%, 70.196078%)" stroke-opacity="1" stroke-miterlimit="10" d="M 91.273438 127.777344 C 82.394531 159.3125 85.847656 189.535156 104.53125 216.417969 "/>
<path fill-rule="nonzero" fill="rgb(70.196078%, 70.196078%, 70.196078%)" fill-opacity="1" d="M 108.601562 222.277344 L 102.628906 217.742188 L 106.433594 215.097656 L 108.601562 222.277344 "/>
<path fill="none" stroke-width="5.5" stroke-linecap="butt" stroke-linejoin="miter" stroke="rgb(70.196078%, 70.196078%, 70.196078%)" stroke-opacity="1" stroke-miterlimit="10" d="M 70.785156 67.105469 C 67.214844 86.1875 70.503906 104.175781 83.304688 118.722656 "/>
<path fill-rule="nonzero" fill="rgb(70.196078%, 70.196078%, 70.196078%)" fill-opacity="1" d="M 88.015625 124.078125 L 81.566406 120.253906 L 85.046875 117.191406 L 88.015625 124.078125 "/>
<path fill-rule="nonzero" fill="rgb(14.901961%, 14.901961%, 14.901961%)" fill-opacity="1" stroke-width="1" stroke-linecap="butt" stroke-linejoin="miter" stroke="rgb(14.901961%, 14.901961%, 14.901961%)" stroke-opacity="1" stroke-miterlimit="10" d="M 744.148438 57.894531 L 750 46.191406 L 755.851562 57.894531 Z M 744.148438 57.894531 "/>
<path fill-rule="nonzero" fill="rgb(70.196078%, 70.196078%, 70.196078%)" fill-opacity="1" stroke-width="1" stroke-linecap="butt" stroke-linejoin="miter" stroke="rgb(70.196078%, 70.196078%, 70.196078%)" stroke-opacity="1" stroke-miterlimit="10" d="M 734.734375 137.324219 C 734.734375 143.789062 725.035156 143.789062 725.035156 137.324219 C 725.035156 130.855469 734.734375 130.855469 734.734375 137.324219 "/>
<path fill-rule="nonzero" fill="rgb(70.196078%, 70.196078%, 70.196078%)" fill-opacity="1" stroke-width="1" stroke-linecap="butt" stroke-linejoin="miter" stroke="rgb(70.196078%, 70.196078%, 70.196078%)" stroke-opacity="1" stroke-miterlimit="10" d="M 714.375 204.738281 C 714.375 211.203125 704.675781 211.203125 704.675781 204.738281 C 704.675781 198.269531 714.375 198.269531 714.375 204.738281 "/>
<path fill-rule="nonzero" fill="rgb(70.196078%, 70.196078%, 70.196078%)" fill-opacity="1" stroke-width="1" stroke-linecap="butt" stroke-linejoin="miter" stroke="rgb(70.196078%, 70.196078%, 70.196078%)" stroke-opacity="1" stroke-miterlimit="10" d="M 693.816406 254.8125 C 693.816406 261.28125 684.117188 261.28125 684.117188 254.8125 C 684.117188 248.347656 693.816406 248.347656 693.816406 254.8125 "/>
<path fill-rule="nonzero" fill="rgb(70.196078%, 70.196078%, 70.196078%)" fill-opacity="1" stroke-width="1" stroke-linecap="butt" stroke-linejoin="miter" stroke="rgb(70.196078%, 70.196078%, 70.196078%)" stroke-opacity="1" stroke-miterlimit="10" d="M 673.246094 305.109375 C 673.246094 311.578125 663.542969 311.578125 663.542969 305.109375 C 663.542969 298.644531 673.246094 298.644531 673.246094 305.109375 "/>
<path fill-rule="nonzero" fill="rgb(70.196078%, 70.196078%, 70.196078%)" fill-opacity="1" stroke-width="1" stroke-linecap="butt" stroke-linejoin="miter" stroke="rgb(70.196078%, 70.196078%, 70.196078%)" stroke-opacity="1" stroke-miterlimit="10" d="M 652.597656 343.980469 C 652.597656 350.449219 642.898438 350.449219 642.898438 343.980469 C 642.898438 337.515625 652.597656 337.515625 652.597656 343.980469 "/>
<path fill-rule="nonzero" fill="rgb(70.196078%, 70.196078%, 70.196078%)" fill-opacity="1" stroke-width="1" stroke-linecap="butt" stroke-linejoin="miter" stroke="rgb(70.196078%, 70.196078%, 70.196078%)" stroke-opacity="1" stroke-miterlimit="10" d="M 632.21875 412.628906 C 632.21875 419.09375 622.519531 419.09375 622.519531 412.628906 C 622.519531 406.160156 632.21875 406.160156 632.21875 412.628906 "/>
<path fill-rule="nonzero" fill="rgb(70.196078%, 70.196078%, 70.196078%)" fill-opacity="1" stroke-width="1" stroke-linecap="butt" stroke-linejoin="miter" stroke="rgb(70.196078%, 70.196078%, 70.196078%)" stroke-opacity="1" stroke-miterlimit="10" d="M 611.757812 472.589844 C 611.757812 479.058594 602.054688 479.058594 602.054688 472.589844 C 602.054688 466.125 611.757812 466.125 611.757812 472.589844 "/>
<path fill-rule="nonzero" fill="rgb(70.196078%, 70.196078%, 70.196078%)" fill-opacity="1" stroke-width="1" stroke-linecap="butt" stroke-linejoin="miter" stroke="rgb(70.196078%, 70.196078%, 70.196078%)" stroke-opacity="1" stroke-miterlimit="10" d="M 591.175781 519.246094 C 591.175781 525.714844 581.472656 525.714844 581.472656 519.246094 C 581.472656 512.78125 591.175781 512.78125 591.175781 519.246094 "/>
<path fill-rule="nonzero" fill="rgb(70.196078%, 70.196078%, 70.196078%)" fill-opacity="1" stroke-width="1" stroke-linecap="butt" stroke-linejoin="miter" stroke="rgb(70.196078%, 70.196078%, 70.196078%)" stroke-opacity="1" stroke-miterlimit="10" d="M 570.53125 558.792969 C 570.53125 565.257812 560.832031 565.257812 560.832031 558.792969 C 560.832031 552.324219 570.53125 552.324219 570.53125 558.792969 "/>
<path fill-rule="nonzero" fill="rgb(70.196078%, 70.196078%, 70.196078%)" fill-opacity="1" stroke-width="1" stroke-linecap="butt" stroke-linejoin="miter" stroke="rgb(70.196078%, 70.196078%, 70.196078%)" stroke-opacity="1" stroke-miterlimit="10" d="M 549.871094 593.632812 C 549.871094 600.101562 540.167969 600.101562 540.167969 593.632812 C 540.167969 587.167969 549.871094 587.167969 549.871094 593.632812 "/>
<path fill-rule="nonzero" fill="rgb(70.196078%, 70.196078%, 70.196078%)" fill-opacity="1" stroke-width="1" stroke-linecap="butt" stroke-linejoin="miter" stroke="rgb(70.196078%, 70.196078%, 70.196078%)" stroke-opacity="1" stroke-miterlimit="10" d="M 529.175781 624.09375 C 529.175781 630.558594 519.476562 630.558594 519.476562 624.09375 C 519.476562 617.625 529.175781 617.625 529.175781 624.09375 "/>
<path fill-rule="nonzero" fill="rgb(70.196078%, 70.196078%, 70.196078%)" fill-opacity="1" stroke-width="1" stroke-linecap="butt" stroke-linejoin="miter" stroke="rgb(70.196078%, 70.196078%, 70.196078%)" stroke-opacity="1" stroke-miterlimit="10" d="M 425.503906 726.679688 C 425.503906 733.148438 415.804688 733.148438 415.804688 726.679688 C 415.804688 720.214844 425.503906 720.214844 425.503906 726.679688 "/>
<path fill-rule="nonzero" fill="rgb(70.196078%, 70.196078%, 70.196078%)" fill-opacity="1" stroke-width="1" stroke-linecap="butt" stroke-linejoin="miter" stroke="rgb(70.196078%, 70.196078%, 70.196078%)" stroke-opacity="1" stroke-miterlimit="10" d="M 404.753906 750 C 404.753906 756.464844 395.054688 756.464844 395.054688 750 C 395.054688 743.535156 404.753906 743.535156 404.753906 750 "/>
<path fill-rule="nonzero" fill="rgb(70.196078%, 70.196078%, 70.196078%)" fill-opacity="1" stroke-width="1" stroke-linecap="butt" stroke-linejoin="miter" stroke="rgb(70.196078%, 70.196078%, 70.196078%)" stroke-opacity="1" stroke-miterlimit="10" d="M 384.003906 731.773438 C 384.003906 738.242188 374.300781 738.242188 374.300781 731.773438 C 374.300781 725.308594 384.003906 725.308594 384.003906 731.773438 "/>
<path fill-rule="nonzero" fill="rgb(70.196078%, 70.196078%, 70.196078%)" fill-opacity="1" stroke-width="1" stroke-linecap="butt" stroke-linejoin="miter" stroke="rgb(70.196078%, 70.196078%, 70.196078%)" stroke-opacity="1" stroke-miterlimit="10" d="M 363.242188 721.722656 C 363.242188 728.191406 353.542969 728.191406 353.542969 721.722656 C 353.542969 715.257812 363.242188 715.257812 363.242188 721.722656 "/>
<path fill-rule="nonzero" fill="rgb(70.196078%, 70.196078%, 70.196078%)" fill-opacity="1" stroke-width="1" stroke-linecap="butt" stroke-linejoin="miter" stroke="rgb(70.196078%, 70.196078%, 70.196078%)" stroke-opacity="1" stroke-miterlimit="10" d="M 508.464844 650.816406 C 508.464844 657.285156 498.765625 657.285156 498.765625 650.816406 C 498.765625 644.351562 508.464844 644.351562 508.464844 650.816406 "/>
<path fill-rule="nonzero" fill="rgb(70.196078%, 70.196078%, 70.196078%)" fill-opacity="1" stroke-width="1" stroke-linecap="butt" stroke-linejoin="miter" stroke="rgb(70.196078%, 70.196078%, 70.196078%)" stroke-opacity="1" stroke-miterlimit="10" d="M 487.742188 672.886719 C 487.742188 679.355469 478.042969 679.355469 478.042969 672.886719 C 478.042969 666.421875 487.742188 666.421875 487.742188 672.886719 "/>
<path fill-rule="nonzero" fill="rgb(70.196078%, 70.196078%, 70.196078%)" fill-opacity="1" stroke-width="1" stroke-linecap="butt" stroke-linejoin="miter" stroke="rgb(70.196078%, 70.196078%, 70.196078%)" stroke-opacity="1" stroke-miterlimit="10" d="M 467.003906 693.796875 C 467.003906 700.261719 457.304688 700.261719 457.304688 693.796875 C 457.304688 687.328125 467.003906 687.328125 467.003906 693.796875 "/>
<path fill-rule="nonzero" fill="rgb(70.196078%, 70.196078%, 70.196078%)" fill-opacity="1" stroke-width="1" stroke-linecap="butt" stroke-linejoin="miter" stroke="rgb(70.196078%, 70.196078%, 70.196078%)" stroke-opacity="1" stroke-miterlimit="10" d="M 342.496094 704.769531 C 342.496094 711.238281 332.792969 711.238281 332.792969 704.769531 C 332.792969 698.304688 342.496094 698.304688 342.496094 704.769531 "/>
<path fill-rule="nonzero" fill="rgb(70.196078%, 70.196078%, 70.196078%)" fill-opacity="1" stroke-width="1" stroke-linecap="butt" stroke-linejoin="miter" stroke="rgb(70.196078%, 70.196078%, 70.196078%)" stroke-opacity="1" stroke-miterlimit="10" d="M 321.753906 685.71875 C 321.753906 692.183594 312.054688 692.183594 312.054688 685.71875 C 312.054688 679.25 321.753906 679.25 321.753906 685.71875 "/>
<path fill-rule="nonzero" fill="rgb(70.196078%, 70.196078%, 70.196078%)" fill-opacity="1" stroke-width="1" stroke-linecap="butt" stroke-linejoin="miter" stroke="rgb(70.196078%, 70.196078%, 70.196078%)" stroke-opacity="1" stroke-miterlimit="10" d="M 446.257812 709.59375 C 446.257812 716.0625 436.558594 716.0625 436.558594 709.59375 C 436.558594 703.128906 446.257812 703.128906 446.257812 709.59375 "/>
<path fill-rule="nonzero" fill="rgb(70.196078%, 70.196078%, 70.196078%)" fill-opacity="1" stroke-width="1" stroke-linecap="butt" stroke-linejoin="miter" stroke="rgb(70.196078%, 70.196078%, 70.196078%)" stroke-opacity="1" stroke-miterlimit="10" d="M 301.027344 663.332031 C 301.027344 669.800781 291.328125 669.800781 291.328125 663.332031 C 291.328125 656.867188 301.027344 656.867188 301.027344 663.332031 "/>
<path fill-rule="nonzero" fill="rgb(70.196078%, 70.196078%, 70.196078%)" fill-opacity="1" stroke-width="1" stroke-linecap="butt" stroke-linejoin="miter" stroke="rgb(70.196078%, 70.196078%, 70.196078%)" stroke-opacity="1" stroke-miterlimit="10" d="M 280.3125 637.167969 C 280.3125 643.636719 270.613281 643.636719 270.613281 637.167969 C 270.613281 630.703125 280.3125 630.703125 280.3125 637.167969 "/>
<path fill-rule="nonzero" fill="rgb(70.196078%, 70.196078%, 70.196078%)" fill-opacity="1" stroke-width="1" stroke-linecap="butt" stroke-linejoin="miter" stroke="rgb(70.196078%, 70.196078%, 70.196078%)" stroke-opacity="1" stroke-miterlimit="10" d="M 259.617188 606.90625 C 259.617188 613.375 249.917969 613.375 249.917969 606.90625 C 249.917969 600.441406 259.617188 600.441406 259.617188 606.90625 "/>
<path fill-rule="nonzero" fill="rgb(70.196078%, 70.196078%, 70.196078%)" fill-opacity="1" stroke-width="1" stroke-linecap="butt" stroke-linejoin="miter" stroke="rgb(70.196078%, 70.196078%, 70.196078%)" stroke-opacity="1" stroke-miterlimit="10" d="M 238.945312 572.207031 C 238.945312 578.675781 229.246094 578.675781 229.246094 572.207031 C 229.246094 565.742188 238.945312 565.742188 238.945312 572.207031 "/>
<path fill-rule="nonzero" fill="rgb(70.196078%, 70.196078%, 70.196078%)" fill-opacity="1" stroke-width="1" stroke-linecap="butt" stroke-linejoin="miter" stroke="rgb(70.196078%, 70.196078%, 70.196078%)" stroke-opacity="1" stroke-miterlimit="10" d="M 218.300781 532.777344 C 218.300781 539.242188 208.597656 539.242188 208.597656 532.777344 C 208.597656 526.308594 218.300781 526.308594 218.300781 532.777344 "/>
<path fill-rule="nonzero" fill="rgb(70.196078%, 70.196078%, 70.196078%)" fill-opacity="1" stroke-width="1" stroke-linecap="butt" stroke-linejoin="miter" stroke="rgb(70.196078%, 70.196078%, 70.196078%)" stroke-opacity="1" stroke-miterlimit="10" d="M 116.089844 226.070312 C 116.089844 232.539062 106.390625 232.539062 106.390625 226.070312 C 106.390625 219.605469 116.089844 219.605469 116.089844 226.070312 "/>
<path fill-rule="nonzero" fill="rgb(70.196078%, 70.196078%, 70.196078%)" fill-opacity="1" stroke-width="1" stroke-linecap="butt" stroke-linejoin="miter" stroke="rgb(70.196078%, 70.196078%, 70.196078%)" stroke-opacity="1" stroke-miterlimit="10" d="M 197.707031 487.636719 C 197.707031 494.105469 188.007812 494.105469 188.007812 487.636719 C 188.007812 481.171875 197.707031 481.171875 197.707031 487.636719 "/>
<path fill-rule="nonzero" fill="rgb(70.196078%, 70.196078%, 70.196078%)" fill-opacity="1" stroke-width="1" stroke-linecap="butt" stroke-linejoin="miter" stroke="rgb(70.196078%, 70.196078%, 70.196078%)" stroke-opacity="1" stroke-miterlimit="10" d="M 156.664062 378.035156 C 156.664062 384.5 146.964844 384.5 146.964844 378.035156 C 146.964844 371.566406 156.664062 371.566406 156.664062 378.035156 "/>
<path fill-rule="nonzero" fill="rgb(70.196078%, 70.196078%, 70.196078%)" fill-opacity="1" stroke-width="1" stroke-linecap="butt" stroke-linejoin="miter" stroke="rgb(70.196078%, 70.196078%, 70.196078%)" stroke-opacity="1" stroke-miterlimit="10" d="M 136.269531 310.714844 C 136.269531 317.179688 126.566406 317.179688 126.566406 310.714844 C 126.566406 304.25 136.269531 304.25 136.269531 310.714844 "/>
<path fill-rule="nonzero" fill="rgb(70.196078%, 70.196078%, 70.196078%)" fill-opacity="1" stroke-width="1" stroke-linecap="butt" stroke-linejoin="miter" stroke="rgb(70.196078%, 70.196078%, 70.196078%)" stroke-opacity="1" stroke-miterlimit="10" d="M 177.152344 436.484375 C 177.152344 442.949219 167.453125 442.949219 167.453125 436.484375 C 167.453125 430.015625 177.152344 430.015625 177.152344 436.484375 "/>
<path fill-rule="nonzero" fill="rgb(100%, 84.313725%, 0%)" fill-opacity="1" stroke-width="1" stroke-linecap="butt" stroke-linejoin="miter" stroke="rgb(100%, 84.313725%, 0%)" stroke-opacity="1" stroke-miterlimit="10" d="M 44.648438 44.648438 L 55.347656 44.648438 L 55.347656 55.347656 L 44.648438 55.347656 Z M 44.648438 44.648438 "/>
<path fill-rule="nonzero" fill="rgb(70.196078%, 70.196078%, 70.196078%)" fill-opacity="1" stroke-width="1" stroke-linecap="butt" stroke-linejoin="miter" stroke="rgb(70.196078%, 70.196078%, 70.196078%)" stroke-opacity="1" stroke-miterlimit="10" d="M 96.121094 127.777344 C 96.121094 134.242188 86.421875 134.242188 86.421875 127.777344 C 86.421875 121.308594 96.121094 121.308594 96.121094 127.777344 "/>
<path fill-rule="nonzero" fill="rgb(70.196078%, 70.196078%, 70.196078%)" fill-opacity="1" stroke-width="1" stroke-linecap="butt" stroke-linejoin="miter" stroke="rgb(70.196078%, 70.196078%, 70.196078%)" stroke-opacity="1" stroke-miterlimit="10" d="M 75.632812 67.105469 C 75.632812 73.570312 65.933594 73.570312 65.933594 67.105469 C 65.933594 60.636719 75.632812 60.636719 75.632812 67.105469 "/>
</svg>
