<?xml version="1.0" encoding="UTF-8"?>
<svg xmlns="http://www.w3.org/2000/svg" xmlns:xlink="http://www.w3.org/1999/xlink" width="800" height="800" viewBox="0 0 800 800">
<rect x="-80" y="-80" width="960" height="960" fill="rgb(100%, 100%, 100%)" fill-opacity="1"/>
<path fill="none" stroke-width="1.5" stroke-linecap="butt" stroke-linejoin="miter" stroke="rgb(41.568627%, 23.921569%, 60.392157%)" stroke-opacity="1" stroke-miterlimit="10" d="M 476.851562 461.25 C 466.613281 496.878906 470.417969 531.027344 491.300781 561.632812 "/>
<path fill-rule="nonzero" fill="rgb(41.568627%, 23.921569%, 60.392157%)" fill-opacity="1" d="M 495.320312 567.527344 L 489.386719 562.941406 L 493.214844 560.328125 L 495.320312 567.527344 "/>
<path fill="none" stroke-width="3.5" stroke-linecap="butt" stroke-linejoin="miter" stroke="rgb(70.196078%, 70.196078%, 70.196078%)" stroke-opacity="1" stroke-miterlimit="10" d="M 476.851562 461.25 C 452.203125 506.171875 447.402344 553.183594 465.789062 600.996094 "/>
<path fill-rule="nonzero" fill="rgb(70.196078%, 70.196078%, 70.196078%)" fill-opacity="1" d="M 468.347656 607.652344 L 463.625 601.828125 L 467.949219 600.164062 L 468.347656 607.652344 "/>
<path fill="none" stroke-width="1.5" stroke-linecap="butt" stroke-linejoin="miter" stroke="rgb(98.431373%, 60.392157%, 60%)" stroke-opacity="1" stroke-miterlimit="10" d="M 476.851562 461.25 C 492.242188 456.625 504.371094 447.417969 510.058594 432.429688 "/>
<path fill-rule="nonzero" fill="rgb(98.431373%, 60.392157%, 60%)" fill-opacity="1" d="M 512.585938 425.761719 L 512.222656 433.253906 L 507.890625 431.609375 L 512.585938 425.761719 "/>
<path fill="none" stroke-width="1.5" stroke-linecap="butt" stroke-linejoin="miter" stroke="rgb(41.568627%, 23.921569%, 60.392157%)" stroke-opacity="1" stroke-miterlimit="10" d="M 498.992188 572.910156 C 509.234375 537.28125 505.425781 503.128906 484.546875 472.523438 "/>
<path fill-rule="nonzero" fill="rgb(41.568627%, 23.921569%, 60.392157%)" fill-opacity="1" d="M 480.523438 466.632812 L 486.460938 471.21875 L 482.628906 473.828125 L 480.523438 466.632812 "/>
<path fill="none" stroke-width="1.5" stroke-linecap="butt" stroke-linejoin="miter" stroke="rgb(98.431373%, 60.392157%, 60%)" stroke-opacity="1" stroke-miterlimit="10" d="M 498.992188 572.910156 C 499.183594 587.164062 504.003906 599.859375 515.464844 608.257812 "/>
<path fill-rule="nonzero" fill="rgb(98.431373%, 60.392157%, 60%)" fill-opacity="1" d="M 521.21875 612.476562 L 514.09375 610.128906 L 516.835938 606.390625 L 521.21875 612.476562 "/>
<path fill="none" stroke-width="1.5" stroke-linecap="butt" stroke-linejoin="miter" stroke="rgb(41.568627%, 23.921569%, 60.392157%)" stroke-opacity="1" stroke-miterlimit="10" d="M 498.992188 572.910156 C 486.304688 578.160156 476.574219 586.988281 473.238281 600.257812 "/>
<path fill-rule="nonzero" fill="rgb(41.568627%, 23.921569%, 60.392157%)" fill-opacity="1" d="M 471.5 607.175781 L 470.992188 599.691406 L 475.484375 600.820312 L 471.5 607.175781 "/>
<path fill="none" stroke-width="2.5" stroke-linecap="butt" stroke-linejoin="miter" stroke="rgb(70.196078%, 70.196078%, 70.196078%)" stroke-opacity="1" stroke-miterlimit="10" d="M 549.566406 473.539062 C 520.738281 535.464844 518.863281 598.238281 547.167969 660.390625 "/>
<path fill-rule="nonzero" fill="rgb(70.196078%, 70.196078%, 70.196078%)" fill-opacity="1" d="M 550.125 666.882812 L 545.058594 661.351562 L 549.277344 659.429688 L 550.125 666.882812 "/>
<path fill="none" stroke-width="1.5" stroke-linecap="butt" stroke-linejoin="miter" stroke="rgb(98.431373%, 60.392157%, 60%)" stroke-opacity="1" stroke-miterlimit="10" d="M 549.566406 473.539062 C 535.289062 494.351562 530.109375 517.328125 537.3125 541.492188 "/>
<path fill-rule="nonzero" fill="rgb(98.431373%, 60.392157%, 60%)" fill-opacity="1" d="M 539.351562 548.328125 L 535.089844 542.152344 L 539.535156 540.828125 L 539.351562 548.328125 "/>
<path fill="none" stroke-width="1.5" stroke-linecap="butt" stroke-linejoin="miter" stroke="rgb(12.156863%, 47.058824%, 70.588235%)" stroke-opacity="1" stroke-miterlimit="10" d="M 549.566406 473.539062 C 552.625 484.226562 558.777344 493.089844 569.199219 496.765625 "/>
<path fill-rule="nonzero" fill="rgb(12.156863%, 47.058824%, 70.588235%)" fill-opacity="1" d="M 575.925781 499.140625 L 568.429688 498.953125 L 569.972656 494.582031 L 575.925781 499.140625 "/>
<path fill="none" stroke-width="1.5" stroke-linecap="butt" stroke-linejoin="miter" stroke="rgb(98.431373%, 60.392157%, 60%)" stroke-opacity="1" stroke-miterlimit="10" d="M 549.566406 473.539062 C 540.808594 508.957031 545.863281 542.355469 567.476562 571.726562 "/>
<path fill-rule="nonzero" fill="rgb(98.431373%, 60.392157%, 60%)" fill-opacity="1" d="M 571.703125 577.472656 L 565.609375 573.101562 L 569.34375 570.355469 L 571.703125 577.472656 "/>
<path fill="none" stroke-width="2.5" stroke-linecap="butt" stroke-linejoin="miter" stroke="rgb(70.196078%, 70.196078%, 70.196078%)" stroke-opacity="1" stroke-miterlimit="10" d="M 552.046875 671.101562 C 580.851562 610.222656 583.160156 548.300781 555.558594 486.875 "/>
<path fill-rule="nonzero" fill="rgb(70.196078%, 70.196078%, 70.196078%)" fill-opacity="1" d="M 552.636719 480.371094 L 557.671875 485.925781 L 553.445312 487.828125 L 552.636719 480.371094 "/>
<path fill="none" stroke-width="1.5" stroke-linecap="butt" stroke-linejoin="miter" stroke="rgb(12.156863%, 47.058824%, 70.588235%)" stroke-opacity="1" stroke-miterlimit="10" d="M 480.910156 52.5 C 490.402344 57.542969 500.6875 59.203125 510.25 54.429688 "/>
<path fill-rule="nonzero" fill="rgb(12.156863%, 47.058824%, 70.588235%)" fill-opacity="1" d="M 516.632812 51.246094 L 511.285156 56.503906 L 509.21875 52.359375 L 516.632812 51.246094 "/>
<path fill="none" stroke-width="1.5" stroke-linecap="butt" stroke-linejoin="miter" stroke="rgb(98.431373%, 60.392157%, 60%)" stroke-opacity="1" stroke-miterlimit="10" d="M 523.328125 614.023438 C 552.070312 576.359375 563.09375 534.011719 552.753906 487.792969 "/>
<path fill-rule="nonzero" fill="rgb(98.431373%, 60.392157%, 60%)" fill-opacity="1" d="M 551.199219 480.832031 L 555.015625 487.285156 L 550.492188 488.296875 L 551.199219 480.832031 "/>
<path fill="none" stroke-width="5.5" stroke-linecap="butt" stroke-linejoin="miter" stroke="rgb(70.196078%, 70.196078%, 70.196078%)" stroke-opacity="1" stroke-miterlimit="10" d="M 345.242188 382.777344 C 353.84375 385.367188 362.707031 385.207031 369.613281 379.582031 "/>
<path fill-rule="nonzero" fill="rgb(70.196078%, 70.196078%, 70.196078%)" fill-opacity="1" d="M 375.144531 375.078125 L 371.078125 381.378906 L 368.148438 377.785156 L 375.144531 375.078125 "/>
<path fill="none" stroke-width="5.5" stroke-linecap="butt" stroke-linejoin="miter" stroke="rgb(70.196078%, 70.196078%, 70.196078%)" stroke-opacity="1" stroke-miterlimit="10" d="M 180.585938 434.5625 C 188.753906 437.183594 197.253906 437.222656 203.910156 431.933594 "/>
<path fill-rule="nonzero" fill="rgb(70.196078%, 70.196078%, 70.196078%)" fill-opacity="1" d="M 209.492188 427.496094 L 205.351562 433.75 L 202.46875 430.121094 L 209.492188 427.496094 "/>
<path fill="none" stroke-width="2.5" stroke-linecap="butt" stroke-linejoin="miter" stroke="rgb(70.196078%, 70.196078%, 70.196078%)" stroke-opacity="1" stroke-miterlimit="10" d="M 470.179688 612.421875 C 494.785156 568.015625 499.773438 521.445312 481.714844 474.015625 "/>
<path fill-rule="nonzero" fill="rgb(70.196078%, 70.196078%, 70.196078%)" fill-opacity="1" d="M 479.175781 467.351562 L 483.878906 473.191406 L 479.550781 474.84375 L 479.175781 467.351562 "/>
<path fill="none" stroke-width="2.5" stroke-linecap="butt" stroke-linejoin="miter" stroke="rgb(41.568627%, 23.921569%, 60.392157%)" stroke-opacity="1" stroke-miterlimit="10" d="M 470.179688 612.421875 C 482.488281 607.558594 492.066406 599.214844 495.421875 586.476562 "/>
<path fill-rule="nonzero" fill="rgb(41.568627%, 23.921569%, 60.392157%)" fill-opacity="1" d="M 497.238281 579.578125 L 497.664062 587.066406 L 493.179688 585.882812 L 497.238281 579.578125 "/>
<path fill="none" stroke-width="1.5" stroke-linecap="butt" stroke-linejoin="miter" stroke="rgb(98.431373%, 60.392157%, 60%)" stroke-opacity="1" stroke-miterlimit="10" d="M 540.238281 551.296875 C 527.90625 550.179688 516.324219 553.070312 508.21875 562.351562 "/>
<path fill-rule="nonzero" fill="rgb(98.431373%, 60.392157%, 60%)" fill-opacity="1" d="M 503.527344 567.722656 L 506.472656 560.824219 L 509.964844 563.875 L 503.527344 567.722656 "/>
<path fill="none" stroke-width="1.5" stroke-linecap="butt" stroke-linejoin="miter" stroke="rgb(98.431373%, 60.392157%, 60%)" stroke-opacity="1" stroke-miterlimit="10" d="M 540.238281 551.296875 C 558.367188 544.34375 571.988281 532.125 577.660156 513.589844 "/>
<path fill-rule="nonzero" fill="rgb(98.431373%, 60.392157%, 60%)" fill-opacity="1" d="M 579.746094 506.769531 L 579.875 514.269531 L 575.441406 512.914062 L 579.746094 506.769531 "/>
<path fill="none" stroke-width="1.5" stroke-linecap="butt" stroke-linejoin="miter" stroke="rgb(98.431373%, 60.392157%, 60%)" stroke-opacity="1" stroke-miterlimit="10" d="M 581.480469 501.097656 C 578.871094 490.976562 573.335938 482.394531 563.605469 478.769531 "/>
<path fill-rule="nonzero" fill="rgb(98.431373%, 60.392157%, 60%)" fill-opacity="1" d="M 556.921875 476.28125 L 564.417969 476.597656 L 562.796875 480.941406 L 556.921875 476.28125 "/>
<path fill="none" stroke-width="1.5" stroke-linecap="butt" stroke-linejoin="miter" stroke="rgb(98.431373%, 60.392157%, 60%)" stroke-opacity="1" stroke-miterlimit="10" d="M 581.480469 501.097656 C 562.625 508.796875 548.726562 521.9375 543.078125 541.472656 "/>
<path fill-rule="nonzero" fill="rgb(98.431373%, 60.392157%, 60%)" fill-opacity="1" d="M 541.097656 548.324219 L 540.851562 540.828125 L 545.304688 542.117188 L 541.097656 548.324219 "/>
<path fill="none" stroke-width="1.5" stroke-linecap="butt" stroke-linejoin="miter" stroke="rgb(12.156863%, 47.058824%, 70.588235%)" stroke-opacity="1" stroke-miterlimit="10" d="M 581.480469 501.097656 C 578.382812 532.054688 586.578125 559.769531 608.503906 581.8125 "/>
<path fill-rule="nonzero" fill="rgb(12.156863%, 47.058824%, 70.588235%)" fill-opacity="1" d="M 613.535156 586.867188 L 606.863281 583.445312 L 610.148438 580.175781 L 613.535156 586.867188 "/>
<path fill="none" stroke-width="1.5" stroke-linecap="butt" stroke-linejoin="miter" stroke="rgb(12.156863%, 47.058824%, 70.588235%)" stroke-opacity="1" stroke-miterlimit="10" d="M 624.640625 750 C 645.988281 698.757812 645.589844 647.636719 620.375 598.191406 "/>
<path fill-rule="nonzero" fill="rgb(12.156863%, 47.058824%, 70.588235%)" fill-opacity="1" d="M 617.136719 591.839844 L 622.441406 597.140625 L 618.3125 599.246094 L 617.136719 591.839844 "/>
<path fill="none" stroke-width="1.5" stroke-linecap="butt" stroke-linejoin="miter" stroke="rgb(98.431373%, 60.392157%, 60%)" stroke-opacity="1" stroke-miterlimit="10" d="M 513.515625 423.3125 C 514.996094 440.851562 522.128906 455.917969 536.902344 465.40625 "/>
<path fill-rule="nonzero" fill="rgb(98.431373%, 60.392157%, 60%)" fill-opacity="1" d="M 542.90625 469.261719 L 535.652344 467.359375 L 538.15625 463.457031 L 542.90625 469.261719 "/>
<path fill="none" stroke-width="1.5" stroke-linecap="butt" stroke-linejoin="miter" stroke="rgb(12.156863%, 47.058824%, 70.588235%)" stroke-opacity="1" stroke-miterlimit="10" d="M 650.007812 540.78125 C 659.054688 543.925781 668.421875 544.074219 676.109375 538.476562 "/>
<path fill-rule="nonzero" fill="rgb(12.156863%, 47.058824%, 70.588235%)" fill-opacity="1" d="M 681.875 534.277344 L 677.472656 540.347656 L 674.742188 536.601562 L 681.875 534.277344 "/>
<path fill="none" stroke-width="4.5" stroke-linecap="butt" stroke-linejoin="miter" stroke="rgb(70.196078%, 70.196078%, 70.196078%)" stroke-opacity="1" stroke-miterlimit="10" d="M 450.382812 340.554688 C 440.125 379.863281 445.304688 417.101562 468.914062 450.140625 "/>
<path fill-rule="nonzero" fill="rgb(70.196078%, 70.196078%, 70.196078%)" fill-opacity="1" d="M 473.0625 455.945312 L 467.03125 451.488281 L 470.800781 448.792969 L 473.0625 455.945312 "/>
<path fill="none" stroke-width="1.5" stroke-linecap="butt" stroke-linejoin="miter" stroke="rgb(12.156863%, 47.058824%, 70.588235%)" stroke-opacity="1" stroke-miterlimit="10" d="M 450.382812 340.554688 C 477.273438 289.671875 481.652344 236.875 460.347656 183.425781 "/>
<path fill-rule="nonzero" fill="rgb(12.156863%, 47.058824%, 70.588235%)" fill-opacity="1" d="M 457.707031 176.796875 L 462.503906 182.566406 L 458.195312 184.28125 L 457.707031 176.796875 "/>
<path fill="none" stroke-width="1.5" stroke-linecap="butt" stroke-linejoin="miter" stroke="rgb(12.156863%, 47.058824%, 70.588235%)" stroke-opacity="1" stroke-miterlimit="10" d="M 557.421875 307.09375 C 530.171875 356.066406 524.671875 407.429688 544.417969 459.863281 "/>
<path fill-rule="nonzero" fill="rgb(12.156863%, 47.058824%, 70.588235%)" fill-opacity="1" d="M 546.929688 466.539062 L 542.246094 460.679688 L 546.585938 459.046875 L 546.929688 466.539062 "/>
<path fill="none" stroke-width="1.5" stroke-linecap="butt" stroke-linejoin="miter" stroke="rgb(12.156863%, 47.058824%, 70.588235%)" stroke-opacity="1" stroke-miterlimit="10" d="M 456.734375 174.351562 C 482.351562 140.855469 492.226562 103.167969 483.039062 62.027344 "/>
<path fill-rule="nonzero" fill="rgb(12.156863%, 47.058824%, 70.588235%)" fill-opacity="1" d="M 481.484375 55.066406 L 485.300781 61.523438 L 480.777344 62.53125 L 481.484375 55.066406 "/>
<path fill="none" stroke-width="5.5" stroke-linecap="butt" stroke-linejoin="miter" stroke="rgb(70.196078%, 70.196078%, 70.196078%)" stroke-opacity="1" stroke-miterlimit="10" d="M 311.992188 393.375 C 320.417969 395.953125 329.128906 395.851562 335.910156 390.347656 "/>
<path fill-rule="nonzero" fill="rgb(70.196078%, 70.196078%, 70.196078%)" fill-opacity="1" d="M 341.449219 385.851562 L 337.371094 392.144531 L 334.449219 388.546875 L 341.449219 385.851562 "/>
<path fill="none" stroke-width="5.5" stroke-linecap="butt" stroke-linejoin="miter" stroke="rgb(70.196078%, 70.196078%, 70.196078%)" stroke-opacity="1" stroke-miterlimit="10" d="M 246.101562 414.226562 C 254.367188 416.808594 262.9375 416.773438 269.621094 411.394531 "/>
<path fill-rule="nonzero" fill="rgb(70.196078%, 70.196078%, 70.196078%)" fill-opacity="1" d="M 275.175781 406.917969 L 271.074219 413.199219 L 268.164062 409.589844 L 275.175781 406.917969 "/>
<path fill="none" stroke-width="5.5" stroke-linecap="butt" stroke-linejoin="miter" stroke="rgb(70.196078%, 70.196078%, 70.196078%)" stroke-opacity="1" stroke-miterlimit="10" d="M 50 473.761719 C 58.046875 476.472656 66.464844 476.636719 73.113281 471.488281 "/>
<path fill-rule="nonzero" fill="rgb(70.196078%, 70.196078%, 70.196078%)" fill-opacity="1" d="M 78.753906 467.121094 L 74.53125 473.320312 L 71.695312 469.65625 L 78.753906 467.121094 "/>
<path fill="none" stroke-width="1.5" stroke-linecap="butt" stroke-linejoin="miter" stroke="rgb(98.431373%, 60.392157%, 60%)" stroke-opacity="1" stroke-miterlimit="10" d="M 573.261719 579.589844 C 587.152344 559.398438 592.300781 537.0625 585.25 513.625 "/>
<path fill-rule="nonzero" fill="rgb(98.431373%, 60.392157%, 60%)" fill-opacity="1" d="M 583.195312 506.792969 L 587.46875 512.957031 L 583.027344 514.289062 L 583.195312 506.792969 "/>
<path fill="none" stroke-width="1.5" stroke-linecap="butt" stroke-linejoin="miter" stroke="rgb(12.156863%, 47.058824%, 70.588235%)" stroke-opacity="1" stroke-miterlimit="10" d="M 519.136719 50 C 513.046875 84.566406 520.054688 116.328125 542.75 143.078125 "/>
<path fill-rule="nonzero" fill="rgb(12.156863%, 47.058824%, 70.588235%)" fill-opacity="1" d="M 547.367188 148.515625 L 540.984375 144.578125 L 544.519531 141.578125 L 547.367188 148.515625 "/>
<path fill="none" stroke-width="1.5" stroke-linecap="butt" stroke-linejoin="miter" stroke="rgb(12.156863%, 47.058824%, 70.588235%)" stroke-opacity="1" stroke-miterlimit="10" d="M 615.722656 589.070312 C 594.378906 640.484375 594.859375 691.746094 620.195312 741.304688 "/>
<path fill-rule="nonzero" fill="rgb(12.156863%, 47.058824%, 70.588235%)" fill-opacity="1" d="M 623.441406 747.65625 L 618.128906 742.359375 L 622.257812 740.25 L 623.441406 747.65625 "/>
<path fill="none" stroke-width="1.5" stroke-linecap="butt" stroke-linejoin="miter" stroke="rgb(12.156863%, 47.058824%, 70.588235%)" stroke-opacity="1" stroke-miterlimit="10" d="M 615.722656 589.070312 C 632.285156 580.992188 644.144531 568.3125 647.976562 550.320312 "/>
<path fill-rule="nonzero" fill="rgb(12.156863%, 47.058824%, 70.588235%)" fill-opacity="1" d="M 649.464844 543.34375 L 650.242188 550.804688 L 645.710938 549.839844 L 649.464844 543.34375 "/>
<path fill="none" stroke-width="1.5" stroke-linecap="butt" stroke-linejoin="miter" stroke="rgb(12.156863%, 47.058824%, 70.588235%)" stroke-opacity="1" stroke-miterlimit="10" d="M 717.421875 545.417969 C 721.59375 555.691406 728.640625 563.789062 739.367188 566.359375 "/>
<path fill-rule="nonzero" fill="rgb(12.156863%, 47.058824%, 70.588235%)" fill-opacity="1" d="M 746.304688 568.019531 L 738.828125 568.613281 L 739.90625 564.105469 L 746.304688 568.019531 "/>
<path fill="none" stroke-width="1.5" stroke-linecap="butt" stroke-linejoin="miter" stroke="rgb(12.156863%, 47.058824%, 70.588235%)" stroke-opacity="1" stroke-miterlimit="10" d="M 684.132812 532.632812 C 689.960938 540.492188 697.78125 545.984375 707.5 545.703125 "/>
<path fill-rule="nonzero" fill="rgb(12.156863%, 47.058824%, 70.588235%)" fill-opacity="1" d="M 714.628906 545.5 L 707.566406 548.019531 L 707.433594 543.386719 L 714.628906 545.5 "/>
<path fill="none" stroke-width="1.5" stroke-linecap="butt" stroke-linejoin="miter" stroke="rgb(12.156863%, 47.058824%, 70.588235%)" stroke-opacity="1" stroke-miterlimit="10" d="M 549.066406 150.519531 C 528.195312 200.398438 528.496094 250.203125 552.996094 298.390625 "/>
<path fill-rule="nonzero" fill="rgb(12.156863%, 47.058824%, 70.588235%)" fill-opacity="1" d="M 556.230469 304.75 L 550.929688 299.441406 L 555.0625 297.339844 L 556.230469 304.75 "/>
<path fill="none" stroke-width="5.5" stroke-linecap="butt" stroke-linejoin="miter" stroke="rgb(70.196078%, 70.196078%, 70.196078%)" stroke-opacity="1" stroke-miterlimit="10" d="M 378.929688 371.996094 C 388.023438 374.464844 397.269531 374.007812 404.394531 367.949219 "/>
<path fill-rule="nonzero" fill="rgb(70.196078%, 70.196078%, 70.196078%)" fill-opacity="1" d="M 409.828125 363.328125 L 405.894531 369.714844 L 402.894531 366.183594 L 409.828125 363.328125 "/>
<path fill="none" stroke-width="5.5" stroke-linecap="butt" stroke-linejoin="miter" stroke="rgb(70.196078%, 70.196078%, 70.196078%)" stroke-opacity="1" stroke-miterlimit="10" d="M 413.550781 360.164062 C 424.804688 361.054688 435.394531 358.339844 442.628906 349.753906 "/>
<path fill-rule="nonzero" fill="rgb(70.196078%, 70.196078%, 70.196078%)" fill-opacity="1" d="M 447.226562 344.300781 L 444.402344 351.25 L 440.859375 348.261719 L 447.226562 344.300781 "/>
<path fill="none" stroke-width="5.5" stroke-linecap="butt" stroke-linejoin="miter" stroke="rgb(70.196078%, 70.196078%, 70.196078%)" stroke-opacity="1" stroke-miterlimit="10" d="M 147.902344 444.539062 C 156.03125 447.183594 164.507812 447.253906 171.15625 442.003906 "/>
<path fill-rule="nonzero" fill="rgb(70.196078%, 70.196078%, 70.196078%)" fill-opacity="1" d="M 176.757812 437.585938 L 172.59375 443.824219 L 169.722656 440.1875 L 176.757812 437.585938 "/>
<path fill="none" stroke-width="5.5" stroke-linecap="butt" stroke-linejoin="miter" stroke="rgb(70.196078%, 70.196078%, 70.196078%)" stroke-opacity="1" stroke-miterlimit="10" d="M 278.976562 403.859375 C 287.308594 406.433594 295.933594 406.363281 302.652344 400.929688 "/>
<path fill-rule="nonzero" fill="rgb(70.196078%, 70.196078%, 70.196078%)" fill-opacity="1" d="M 308.195312 396.445312 L 304.109375 402.730469 L 301.191406 399.128906 L 308.195312 396.445312 "/>
<path fill="none" stroke-width="5.5" stroke-linecap="butt" stroke-linejoin="miter" stroke="rgb(70.196078%, 70.196078%, 70.196078%)" stroke-opacity="1" stroke-miterlimit="10" d="M 213.316406 424.460938 C 221.527344 427.0625 230.058594 427.0625 236.71875 421.730469 "/>
<path fill-rule="nonzero" fill="rgb(70.196078%, 70.196078%, 70.196078%)" fill-opacity="1" d="M 242.289062 417.273438 L 238.167969 423.539062 L 235.273438 419.921875 L 242.289062 417.273438 "/>
<path fill="none" stroke-width="5.5" stroke-linecap="butt" stroke-linejoin="miter" stroke="rgb(70.196078%, 70.196078%, 70.196078%)" stroke-opacity="1" stroke-miterlimit="10" d="M 82.613281 464.136719 C 90.683594 466.824219 99.121094 466.957031 105.769531 461.777344 "/>
<path fill-rule="nonzero" fill="rgb(70.196078%, 70.196078%, 70.196078%)" fill-opacity="1" d="M 111.394531 457.394531 L 107.191406 463.605469 L 104.34375 459.949219 L 111.394531 457.394531 "/>
<path fill="none" stroke-width="5.5" stroke-linecap="butt" stroke-linejoin="miter" stroke="rgb(70.196078%, 70.196078%, 70.196078%)" stroke-opacity="1" stroke-miterlimit="10" d="M 115.246094 454.394531 C 123.34375 457.0625 131.800781 457.164062 138.445312 451.953125 "/>
<path fill-rule="nonzero" fill="rgb(70.196078%, 70.196078%, 70.196078%)" fill-opacity="1" d="M 144.058594 447.550781 L 139.878906 453.777344 L 137.015625 450.128906 L 144.058594 447.550781 "/>
<path fill-rule="nonzero" fill="rgb(14.901961%, 14.901961%, 14.901961%)" fill-opacity="1" stroke-width="1" stroke-linecap="butt" stroke-linejoin="miter" stroke="rgb(14.901961%, 14.901961%, 14.901961%)" stroke-opacity="1" stroke-miterlimit="10" d="M 470.003906 468.097656 L 476.851562 454.398438 L 483.703125 468.097656 Z M 470.003906 468.097656 "/>
<path fill-rule="nonzero" fill="rgb(14.901961%, 14.901961%, 14.901961%)" fill-opacity="1" stroke-width="1" stroke-linecap="butt" stroke-linejoin="miter" stroke="rgb(14.901961%, 14.901961%, 14.901961%)" stroke-opacity="1" stroke-miterlimit="10" d="M 492.144531 579.757812 L 498.992188 566.058594 L 505.84375 579.757812 Z M 492.144531 579.757812 "/>
<path fill-rule="nonzero" fill="rgb(14.901961%, 14.901961%, 14.901961%)" fill-opacity="1" stroke-width="1" stroke-linecap="butt" stroke-linejoin="miter" stroke="rgb(14.901961%, 14.901961%, 14.901961%)" stroke-opacity="1" stroke-miterlimit="10" d="M 541.714844 481.390625 L 549.566406 465.6875 L 557.417969 481.390625 Z M 541.714844 481.390625 "/>
<path fill-rule="nonzero" fill="rgb(70.196078%, 70.196078%, 70.196078%)" fill-opacity="1" stroke-width="1" stroke-linecap="butt" stroke-linejoin="miter" stroke="rgb(70.196078%, 70.196078%, 70.196078%)" stroke-opacity="1" stroke-miterlimit="10" d="M 556.898438 671.101562 C 556.898438 677.570312 547.199219 677.570312 547.199219 671.101562 C 547.199219 664.636719 556.898438 664.636719 556.898438 671.101562 "/>
<path fill-rule="nonzero" fill="rgb(12.156863%, 47.058824%, 70.588235%)" fill-opacity="1" stroke-width="1" stroke-linecap="butt" stroke-linejoin="miter" stroke="rgb(12.156863%, 47.058824%, 70.588235%)" stroke-opacity="1" stroke-miterlimit="10" d="M 483.660156 52.5 C 483.660156 56.164062 478.160156 56.164062 478.160156 52.5 C 478.160156 48.832031 483.660156 48.832031 483.660156 52.5 "/>
<path fill-rule="nonzero" fill="rgb(98.431373%, 60.392157%, 60%)" fill-opacity="1" stroke-width="1" stroke-linecap="butt" stroke-linejoin="miter" stroke="rgb(98.431373%, 60.392157%, 60%)" stroke-opacity="1" stroke-miterlimit="10" d="M 526.078125 614.023438 C 526.078125 617.6875 520.578125 617.6875 520.578125 614.023438 C 520.578125 610.355469 526.078125 610.355469 526.078125 614.023438 "/>
<path fill-rule="nonzero" fill="rgb(70.196078%, 70.196078%, 70.196078%)" fill-opacity="1" stroke-width="1" stroke-linecap="butt" stroke-linejoin="miter" stroke="rgb(70.196078%, 70.196078%, 70.196078%)" stroke-opacity="1" stroke-miterlimit="10" d="M 350.09375 382.777344 C 350.09375 389.242188 340.390625 389.242188 340.390625 382.777344 C 340.390625 376.308594 350.09375 376.308594 350.09375 382.777344 "/>
<path fill-rule="nonzero" fill="rgb(70.196078%, 70.196078%, 70.196078%)" fill-opacity="1" stroke-width="1" stroke-linecap="butt" stroke-linejoin="miter" stroke="rgb(70.196078%, 70.196078%, 70.196078%)" stroke-opacity="1" stroke-miterlimit="10" d="M 185.4375 434.5625 C 185.4375 441.027344 175.738281 441.027344 175.738281 434.5625 C 175.738281 428.097656 185.4375 428.097656 185.4375 434.5625 "/>
<path fill-rule="nonzero" fill="rgb(70.196078%, 70.196078%, 70.196078%)" fill-opacity="1" stroke-width="1" stroke-linecap="butt" stroke-linejoin="miter" stroke="rgb(70.196078%, 70.196078%, 70.196078%)" stroke-opacity="1" stroke-miterlimit="10" d="M 475.53125 612.421875 C 475.53125 619.554688 464.832031 619.554688 464.832031 612.421875 C 464.832031 605.285156 475.53125 605.285156 475.53125 612.421875 "/>
<path fill-rule="nonzero" fill="rgb(98.431373%, 60.392157%, 60%)" fill-opacity="1" stroke-width="1" stroke-linecap="butt" stroke-linejoin="miter" stroke="rgb(98.431373%, 60.392157%, 60%)" stroke-opacity="1" stroke-miterlimit="10" d="M 543.488281 551.296875 C 543.488281 555.632812 536.988281 555.632812 536.988281 551.296875 C 536.988281 546.964844 543.488281 546.964844 543.488281 551.296875 "/>
<path fill-rule="nonzero" fill="rgb(70.196078%, 70.196078%, 70.196078%)" fill-opacity="1" stroke-width="1" stroke-linecap="butt" stroke-linejoin="miter" stroke="rgb(70.196078%, 70.196078%, 70.196078%)" stroke-opacity="1" stroke-miterlimit="10" d="M 587.332031 501.097656 C 587.332031 504.328125 584.710938 506.949219 581.480469 506.949219 C 578.25 506.949219 575.632812 504.328125 575.632812 501.097656 C 575.632812 497.867188 578.25 495.25 581.480469 495.25 C 584.710938 495.25 587.332031 497.867188 587.332031 501.097656 "/>
<path fill-rule="nonzero" fill="rgb(12.156863%, 47.058824%, 70.588235%)" fill-opacity="1" stroke-width="1" stroke-linecap="butt" stroke-linejoin="miter" stroke="rgb(12.156863%, 47.058824%, 70.588235%)" stroke-opacity="1" stroke-miterlimit="10" d="M 627.390625 750 C 627.390625 753.667969 621.890625 753.667969 621.890625 750 C 621.890625 746.332031 627.390625 746.332031 627.390625 750 "/>
<path fill-rule="nonzero" fill="rgb(98.431373%, 60.392157%, 60%)" fill-opacity="1" stroke-width="1" stroke-linecap="butt" stroke-linejoin="miter" stroke="rgb(98.431373%, 60.392157%, 60%)" stroke-opacity="1" stroke-miterlimit="10" d="M 516.265625 423.3125 C 516.265625 426.980469 510.765625 426.980469 510.765625 423.3125 C 510.765625 419.644531 516.265625 419.644531 516.265625 423.3125 "/>
<path fill-rule="nonzero" fill="rgb(12.156863%, 47.058824%, 70.588235%)" fill-opacity="1" stroke-width="1" stroke-linecap="butt" stroke-linejoin="miter" stroke="rgb(12.156863%, 47.058824%, 70.588235%)" stroke-opacity="1" stroke-miterlimit="10" d="M 652.757812 540.78125 C 652.757812 544.449219 647.257812 544.449219 647.257812 540.78125 C 647.257812 537.113281 652.757812 537.113281 652.757812 540.78125 "/>
<path fill-rule="nonzero" fill="rgb(70.196078%, 70.196078%, 70.196078%)" fill-opacity="1" stroke-width="1" stroke-linecap="butt" stroke-linejoin="miter" stroke="rgb(70.196078%, 70.196078%, 70.196078%)" stroke-opacity="1" stroke-miterlimit="10" d="M 455.234375 340.554688 C 455.234375 347.019531 445.535156 347.019531 445.535156 340.554688 C 445.535156 334.085938 455.234375 334.085938 455.234375 340.554688 "/>
<path fill-rule="nonzero" fill="rgb(12.156863%, 47.058824%, 70.588235%)" fill-opacity="1" stroke-width="1" stroke-linecap="butt" stroke-linejoin="miter" stroke="rgb(12.156863%, 47.058824%, 70.588235%)" stroke-opacity="1" stroke-miterlimit="10" d="M 560.171875 307.09375 C 560.171875 310.761719 554.671875 310.761719 554.671875 307.09375 C 554.671875 303.429688 560.171875 303.429688 560.171875 307.09375 "/>
<path fill-rule="nonzero" fill="rgb(12.156863%, 47.058824%, 70.588235%)" fill-opacity="1" stroke-width="1" stroke-linecap="butt" stroke-linejoin="miter" stroke="rgb(12.156863%, 47.058824%, 70.588235%)" stroke-opacity="1" stroke-miterlimit="10" d="M 459.484375 174.351562 C 459.484375 178.019531 453.984375 178.019531 453.984375 174.351562 C 453.984375 170.6875 459.484375 170.6875 459.484375 174.351562 "/>
<path fill-rule="nonzero" fill="rgb(70.196078%, 70.196078%, 70.196078%)" fill-opacity="1" stroke-width="1" stroke-linecap="butt" stroke-linejoin="miter" stroke="rgb(70.196078%, 70.196078%, 70.196078%)" stroke-opacity="1" stroke-miterlimit="10" d="M 316.839844 393.375 C 316.839844 399.839844 307.140625 399.839844 307.140625 393.375 C 307.140625 386.90625 316.839844 386.90625 316.839844 393.375 "/>
<path fill-rule="nonzero" fill="rgb(70.196078%, 70.196078%, 70.196078%)" fill-opacity="1" stroke-width="1" stroke-linecap="butt" stroke-linejoin="miter" stroke="rgb(70.196078%, 70.196078%, 70.196078%)" stroke-opacity="1" stroke-miterlimit="10" d="M 250.953125 414.226562 C 250.953125 420.691406 241.25 420.691406 241.25 414.226562 C 241.25 407.757812 250.953125 407.757812 250.953125 414.226562 "/>
<path fill-rule="nonzero" fill="rgb(100%, 84.313725%, 0%)" fill-opacity="1" stroke-width="1" stroke-linecap="butt" stroke-linejoin="miter" stroke="rgb(100%, 84.313725%, 0%)" stroke-opacity="1" stroke-miterlimit="10" d="M 44.648438 468.414062 L 55.347656 468.414062 L 55.347656 479.113281 L 44.648438 479.113281 Z M 44.648438 468.414062 "/>
<path fill-rule="nonzero" fill="rgb(98.431373%, 60.392157%, 60%)" fill-opacity="1" stroke-width="1" stroke-linecap="butt" stroke-linejoin="miter" stroke="rgb(98.431373%, 60.392157%, 60%)" stroke-opacity="1" stroke-miterlimit="10" d="M 576.011719 579.589844 C 576.011719 583.257812 570.511719 583.257812 570.511719 579.589844 C 570.511719 575.921875 576.011719 575.921875 576.011719 579.589844 "/>
<path fill-rule="nonzero" fill="rgb(12.156863%, 47.058824%, 70.588235%)" fill-opacity="1" stroke-width="1" stroke-linecap="butt" stroke-linejoin="miter" stroke="rgb(12.156863%, 47.058824%, 70.588235%)" stroke-opacity="1" stroke-miterlimit="10" d="M 521.886719 50 C 521.886719 53.667969 516.386719 53.667969 516.386719 50 C 516.386719 46.332031 521.886719 46.332031 521.886719 50 "/>
<path fill-rule="nonzero" fill="rgb(12.156863%, 47.058824%, 70.588235%)" fill-opacity="1" stroke-width="1" stroke-linecap="butt" stroke-linejoin="miter" stroke="rgb(12.156863%, 47.058824%, 70.588235%)" stroke-opacity="1" stroke-miterlimit="10" d="M 618.972656 589.070312 C 618.972656 593.402344 612.472656 593.402344 612.472656 589.070312 C 612.472656 584.734375 618.972656 584.734375 618.972656 589.070312 "/>
<path fill-rule="nonzero" fill="rgb(14.901961%, 14.901961%, 14.901961%)" fill-opacity="1" stroke-width="1" stroke-linecap="butt" stroke-linejoin="miter" stroke="rgb(14.901961%, 14.901961%, 14.901961%)" stroke-opacity="1" stroke-miterlimit="10" d="M 746.25 572.652344 L 750 565.152344 L 753.75 572.652344 Z M 746.25 572.652344 "/>
<path fill-rule="nonzero" fill="rgb(12.156863%, 47.058824%, 70.588235%)" fill-opacity="1" stroke-width="1" stroke-linecap="butt" stroke-linejoin="miter" stroke="rgb(12.156863%, 47.058824%, 70.588235%)" stroke-opacity="1" stroke-miterlimit="10" d="M 720.171875 545.417969 C 720.171875 549.085938 714.671875 549.085938 714.671875 545.417969 C 714.671875 541.753906 720.171875 541.753906 720.171875 545.417969 "/>
<path fill-rule="nonzero" fill="rgb(12.156863%, 47.058824%, 70.588235%)" fill-opacity="1" stroke-width="1" stroke-linecap="butt" stroke-linejoin="miter" stroke="rgb(12.156863%, 47.058824%, 70.588235%)" stroke-opacity="1" stroke-miterlimit="10" d="M 686.882812 532.632812 C 686.882812 536.296875 681.382812 536.296875 681.382812 532.632812 C 681.382812 528.964844 686.882812 528.964844 686.882812 532.632812 "/>
<path fill-rule="nonzero" fill="rgb(12.156863%, 47.058824%, 70.588235%)" fill-opacity="1" stroke-width="1" stroke-linecap="butt" stroke-linejoin="miter" stroke="rgb(12.156863%, 47.058824%, 70.588235%)" stroke-opacity="1" stroke-miterlimit="10" d="M 551.816406 150.519531 C 551.816406 154.1875 546.316406 154.1875 546.316406 150.519531 C 546.316406 146.855469 551.816406 146.855469 551.816406 150.519531 "/>
<path fill-rule="nonzero" fill="rgb(70.196078%, 70.196078%, 70.196078%)" fill-opacity="1" stroke-width="1" stroke-linecap="butt" stroke-linejoin="miter" stroke="rgb(70.196078%, 70.196078%, 70.196078%)" stroke-opacity="1" stroke-miterlimit="10" d="M 383.78125 371.996094 C 383.78125 378.460938 374.082031 378.460938 374.082031 371.996094 C 374.082031 365.527344 383.78125 365.527344 383.78125 371.996094 "/>
<path fill-rule="nonzero" fill="rgb(70.196078%, 70.196078%, 70.196078%)" fill-opacity="1" stroke-width="1" stroke-linecap="butt" stroke-linejoin="miter" stroke="rgb(70.196078%, 70.196078%, 70.196078%)" stroke-opacity="1" stroke-miterlimit="10" d="M 418.402344 360.164062 C 418.402344 366.628906 408.703125 366.628906 408.703125 360.164062 C 408.703125 353.699219 418.402344 353.699219 418.402344 360.164062 "/>
<path fill-rule="nonzero" fill="rgb(70.196078%, 70.196078%, 70.196078%)" fill-opacity="1" stroke-width="1" stroke-linecap="butt" stroke-linejoin="miter" stroke="rgb(70.196078%, 70.196078%, 70.196078%)" stroke-opacity="1" stroke-miterlimit="10" d="M 152.75 444.539062 C 152.75 451.003906 143.050781 451.003906 143.050781 444.539062 C 143.050781 438.074219 152.75 438.074219 152.75 444.539062 "/>
<path fill-rule="nonzero" fill="rgb(70.196078%, 70.196078%, 70.196078%)" fill-opacity="1" stroke-width="1" stroke-linecap="butt" stroke-linejoin="miter" stroke="rgb(70.196078%, 70.196078%, 70.196078%)" stroke-opacity="1" stroke-miterlimit="10" d="M 283.828125 403.859375 C 283.828125 410.324219 274.128906 410.324219 274.128906 403.859375 C 274.128906 397.390625 283.828125 397.390625 283.828125 403.859375 "/>
<path fill-rule="nonzero" fill="rgb(70.196078%, 70.196078%, 70.196078%)" fill-opacity="1" stroke-width="1" stroke-linecap="butt" stroke-linejoin="miter" stroke="rgb(70.196078%, 70.196078%, 70.196078%)" stroke-opacity="1" stroke-miterlimit="10" d="M 218.164062 424.460938 C 218.164062 430.925781 208.464844 430.925781 208.464844 424.460938 C 208.464844 417.992188 218.164062 417.992188 218.164062 424.460938 "/>
<path fill-rule="nonzero" fill="rgb(70.196078%, 70.196078%, 70.196078%)" fill-opacity="1" stroke-width="1" stroke-linecap="butt" stroke-linejoin="miter" stroke="rgb(70.196078%, 70.196078%, 70.196078%)" stroke-opacity="1" stroke-miterlimit="10" d="M 87.460938 464.136719 C 87.460938 470.601562 77.761719 470.601562 77.761719 464.136719 C 77.761719 457.667969 87.460938 457.667969 87.460938 464.136719 "/>
<path fill-rule="nonzero" fill="rgb(70.196078%, 70.196078%, 70.196078%)" fill-opacity="1" stroke-width="1" stroke-linecap="butt" stroke-linejoin="miter" stroke="rgb(70.196078%, 70.196078%, 70.196078%)" stroke-opacity="1" stroke-miterlimit="10" d="M 120.09375 454.394531 C 120.09375 460.863281 110.394531 460.863281 110.394531 454.394531 C 110.394531 447.929688 120.09375 447.929688 120.09375 454.394531 "/>
</svg>
