<?xml version="1.0" encoding="UTF-8"?>
<svg xmlns="http://www.w3.org/2000/svg" xmlns:xlink="http://www.w3.org/1999/xlink" width="800" height="800" viewBox="0 0 800 800">
<rect x="-80" y="-80" width="960" height="960" fill="rgb(100%, 100%, 100%)" fill-opacity="1"/>
<path fill="none" stroke-width="2.5" stroke-linecap="butt" stroke-linejoin="miter" stroke="rgb(70.196078%, 70.196078%, 70.196078%)" stroke-opacity="1" stroke-miterlimit="10" d="M 624.714844 381.097656 C 559.289062 495.917969 546.78125 616.261719 590.394531 741.003906 "/>
<path fill-rule="nonzero" fill="rgb(70.196078%, 70.196078%, 70.196078%)" fill-opacity="1" d="M 592.746094 747.738281 L 588.207031 741.769531 L 592.582031 740.238281 L 592.746094 747.738281 "/>
<path fill="none" stroke-width="1.5" stroke-linecap="butt" stroke-linejoin="miter" stroke="rgb(12.156863%, 47.058824%, 70.588235%)" stroke-opacity="1" stroke-miterlimit="10" d="M 624.714844 381.097656 C 635.726562 462.363281 674.699219 526.734375 743.417969 571.476562 "/>
<path fill-rule="nonzero" fill="rgb(12.156863%, 47.058824%, 70.588235%)" fill-opacity="1" d="M 749.398438 575.367188 L 742.15625 573.417969 L 744.683594 569.53125 L 749.398438 575.367188 "/>
<path fill="none" stroke-width="1.5" stroke-linecap="butt" stroke-linejoin="miter" stroke="rgb(12.156863%, 47.058824%, 70.588235%)" stroke-opacity="1" stroke-miterlimit="10" d="M 624.714844 381.097656 C 700.339844 305.675781 736.089844 214.578125 728.707031 108.035156 "/>
<path fill-rule="nonzero" fill="rgb(12.156863%, 47.058824%, 70.588235%)" fill-opacity="1" d="M 728.214844 100.917969 L 731.019531 107.875 L 726.394531 108.195312 L 728.214844 100.917969 "/>
<path fill="none" stroke-width="1.5" stroke-linecap="butt" stroke-linejoin="miter" stroke="rgb(12.156863%, 47.058824%, 70.588235%)" stroke-opacity="1" stroke-miterlimit="10" d="M 624.714844 381.097656 C 654.207031 264.238281 635.894531 155.398438 567.097656 56.445312 "/>
<path fill-rule="nonzero" fill="rgb(12.156863%, 47.058824%, 70.588235%)" fill-opacity="1" d="M 563.023438 50.589844 L 569 55.125 L 565.195312 57.769531 L 563.023438 50.589844 "/>
<path fill="none" stroke-width="2.5" stroke-linecap="butt" stroke-linejoin="miter" stroke="rgb(70.196078%, 70.196078%, 70.196078%)" stroke-opacity="1" stroke-miterlimit="10" d="M 593.539062 750 C 658.964844 635.179688 671.472656 514.835938 627.859375 390.09375 "/>
<path fill-rule="nonzero" fill="rgb(70.196078%, 70.196078%, 70.196078%)" fill-opacity="1" d="M 625.503906 383.359375 L 630.046875 389.328125 L 625.671875 390.855469 L 625.503906 383.359375 "/>
<path fill="none" stroke-width="1.5" stroke-linecap="butt" stroke-linejoin="miter" stroke="rgb(12.156863%, 47.058824%, 70.588235%)" stroke-opacity="1" stroke-miterlimit="10" d="M 750 575.757812 C 739.3125 495.015625 700.824219 430.921875 632.6875 386.316406 "/>
<path fill-rule="nonzero" fill="rgb(12.156863%, 47.058824%, 70.588235%)" fill-opacity="1" d="M 626.71875 382.410156 L 633.957031 384.375 L 631.417969 388.253906 L 626.71875 382.410156 "/>
<path fill="none" stroke-width="1.5" stroke-linecap="butt" stroke-linejoin="miter" stroke="rgb(12.156863%, 47.058824%, 70.588235%)" stroke-opacity="1" stroke-miterlimit="10" d="M 728.164062 100.199219 C 652.757812 175.050781 616.933594 265.589844 624.074219 371.589844 "/>
<path fill-rule="nonzero" fill="rgb(12.156863%, 47.058824%, 70.588235%)" fill-opacity="1" d="M 624.554688 378.707031 L 621.761719 371.746094 L 626.386719 371.433594 L 624.554688 378.707031 "/>
<path fill="none" stroke-width="1.5" stroke-linecap="butt" stroke-linejoin="miter" stroke="rgb(12.156863%, 47.058824%, 70.588235%)" stroke-opacity="1" stroke-miterlimit="10" d="M 562.613281 50 C 533.015625 166.253906 550.976562 274.652344 619.289062 373.265625 "/>
<path fill-rule="nonzero" fill="rgb(12.156863%, 47.058824%, 70.588235%)" fill-opacity="1" d="M 623.351562 379.128906 L 617.382812 374.582031 L 621.191406 371.945312 L 623.351562 379.128906 "/>
<path fill="none" stroke-width="5.5" stroke-linecap="butt" stroke-linejoin="miter" stroke="rgb(70.196078%, 70.196078%, 70.196078%)" stroke-opacity="1" stroke-miterlimit="10" d="M 384.835938 448.746094 C 471.585938 463.113281 549.828125 443.460938 617.390625 387.195312 "/>
<path fill-rule="nonzero" fill="rgb(70.196078%, 70.196078%, 70.196078%)" fill-opacity="1" d="M 622.875 382.628906 L 618.875 388.976562 L 615.910156 385.414062 L 622.875 382.628906 "/>
<path fill="none" stroke-width="5.5" stroke-linecap="butt" stroke-linejoin="miter" stroke="rgb(70.196078%, 70.196078%, 70.196078%)" stroke-opacity="1" stroke-miterlimit="10" d="M 202.808594 453.691406 C 260.746094 479.425781 319.042969 480.164062 376.238281 452.851562 "/>
<path fill-rule="nonzero" fill="rgb(70.196078%, 70.196078%, 70.196078%)" fill-opacity="1" d="M 382.675781 449.777344 L 377.238281 454.941406 L 375.242188 450.757812 L 382.675781 449.777344 "/>
<path fill="none" stroke-width="5.5" stroke-linecap="butt" stroke-linejoin="miter" stroke="rgb(70.196078%, 70.196078%, 70.196078%)" stroke-opacity="1" stroke-miterlimit="10" d="M 50 399.058594 C 89.46875 439.003906 137.320312 458.574219 193.308594 454.402344 "/>
<path fill-rule="nonzero" fill="rgb(70.196078%, 70.196078%, 70.196078%)" fill-opacity="1" d="M 200.421875 453.871094 L 193.480469 456.710938 L 193.136719 452.089844 L 200.421875 453.871094 "/>
<path fill-rule="nonzero" fill="rgb(14.901961%, 14.901961%, 14.901961%)" fill-opacity="1" stroke-width="1" stroke-linecap="butt" stroke-linejoin="miter" stroke="rgb(14.901961%, 14.901961%, 14.901961%)" stroke-opacity="1" stroke-miterlimit="10" d="M 622.214844 383.597656 L 624.714844 378.597656 L 627.214844 383.597656 Z M 622.214844 383.597656 "/>
<path fill-rule="nonzero" fill="rgb(70.196078%, 70.196078%, 70.196078%)" fill-opacity="1" stroke-width="1" stroke-linecap="butt" stroke-linejoin="miter" stroke="rgb(70.196078%, 70.196078%, 70.196078%)" stroke-opacity="1" stroke-miterlimit="10" d="M 596.039062 750 C 596.039062 753.332031 591.039062 753.332031 591.039062 750 C 591.039062 746.667969 596.039062 746.667969 596.039062 750 "/>
<path fill-rule="nonzero" fill="rgb(12.156863%, 47.058824%, 70.588235%)" fill-opacity="1" stroke-width="1" stroke-linecap="butt" stroke-linejoin="miter" stroke="rgb(12.156863%, 47.058824%, 70.588235%)" stroke-opacity="1" stroke-miterlimit="10" d="M 750.75 575.757812 C 750.75 576.757812 749.25 576.757812 749.25 575.757812 C 749.25 574.757812 750.75 574.757812 750.75 575.757812 "/>
<path fill-rule="nonzero" fill="rgb(12.156863%, 47.058824%, 70.588235%)" fill-opacity="1" stroke-width="1" stroke-linecap="butt" stroke-linejoin="miter" stroke="rgb(12.156863%, 47.058824%, 70.588235%)" stroke-opacity="1" stroke-miterlimit="10" d="M 728.914062 100.199219 C 728.914062 101.199219 727.414062 101.199219 727.414062 100.199219 C 727.414062 99.199219 728.914062 99.199219 728.914062 100.199219 "/>
<path fill-rule="nonzero" fill="rgb(12.156863%, 47.058824%, 70.588235%)" fill-opacity="1" stroke-width="1" stroke-linecap="butt" stroke-linejoin="miter" stroke="rgb(12.156863%, 47.058824%, 70.588235%)" stroke-opacity="1" stroke-miterlimit="10" d="M 563.363281 50 C 563.363281 51 561.863281 51 561.863281 50 C 561.863281 49 563.363281 49 563.363281 50 "/>
<path fill-rule="nonzero" fill="rgb(70.196078%, 70.196078%, 70.196078%)" fill-opacity="1" stroke-width="1" stroke-linecap="butt" stroke-linejoin="miter" stroke="rgb(70.196078%, 70.196078%, 70.196078%)" stroke-opacity="1" stroke-miterlimit="10" d="M 387.335938 448.746094 C 387.335938 452.078125 382.335938 452.078125 382.335938 448.746094 C 382.335938 445.410156 387.335938 445.410156 387.335938 448.746094 "/>
<path fill-rule="nonzero" fill="rgb(70.196078%, 70.196078%, 70.196078%)" fill-opacity="1" stroke-width="1" stroke-linecap="butt" stroke-linejoin="miter" stroke="rgb(70.196078%, 70.196078%, 70.196078%)" stroke-opacity="1" stroke-miterlimit="10" d="M 205.308594 453.691406 C 205.308594 457.027344 200.308594 457.027344 200.308594 453.691406 C 200.308594 450.359375 205.308594 450.359375 205.308594 453.691406 "/>
<path fill-rule="nonzero" fill="rgb(100%, 84.313725%, 0%)" fill-opacity="1" stroke-width="1" stroke-linecap="butt" stroke-linejoin="miter" stroke="rgb(100%, 84.313725%, 0%)" stroke-opacity="1" stroke-miterlimit="10" d="M 47.5 396.558594 L 52.5 396.558594 L 52.5 401.558594 L 47.5 401.558594 Z M 47.5 396.558594 "/>
</svg>
