<?xml version="1.0" encoding="UTF-8"?>
<svg xmlns="http://www.w3.org/2000/svg" xmlns:xlink="http://www.w3.org/1999/xlink" width="800" height="800" viewBox="0 0 800 800">
<rect x="-80" y="-80" width="960" height="960" fill="rgb(100%, 100%, 100%)" fill-opacity="1"/>
<path fill="none" stroke-width="6.5" stroke-linecap="butt" stroke-linejoin="miter" stroke="rgb(41.568627%, 23.921569%, 60.392157%)" stroke-opacity="1" stroke-miterlimit="10" d="M 408.414062 519.472656 C 423.265625 473.976562 419.546875 429.992188 394.386719 389.296875 "/>
<path fill-rule="nonzero" fill="rgb(41.568627%, 23.921569%, 60.392157%)" fill-opacity="1" d="M 390.636719 383.230469 L 396.359375 388.078125 L 392.414062 390.515625 L 390.636719 383.230469 "/>
<path fill="none" stroke-width="2.5" stroke-linecap="butt" stroke-linejoin="miter" stroke="rgb(70.196078%, 70.196078%, 70.196078%)" stroke-opacity="1" stroke-miterlimit="10" d="M 408.414062 519.472656 C 392.695312 564.046875 395.332031 607.566406 419.242188 648.324219 "/>
<path fill-rule="nonzero" fill="rgb(70.196078%, 70.196078%, 70.196078%)" fill-opacity="1" d="M 422.851562 654.476562 L 417.242188 649.496094 L 421.238281 647.148438 L 422.851562 654.476562 "/>
<path fill="none" stroke-width="5.5" stroke-linecap="butt" stroke-linejoin="miter" stroke="rgb(41.568627%, 23.921569%, 60.392157%)" stroke-opacity="1" stroke-miterlimit="10" d="M 389.378906 381.195312 C 374.527344 426.691406 378.242188 470.675781 403.40625 511.371094 "/>
<path fill-rule="nonzero" fill="rgb(41.568627%, 23.921569%, 60.392157%)" fill-opacity="1" d="M 407.15625 517.4375 L 401.433594 512.589844 L 405.375 510.148438 L 407.15625 517.4375 "/>
<path fill="none" stroke-width="2.5" stroke-linecap="butt" stroke-linejoin="miter" stroke="rgb(98.431373%, 60.392157%, 60%)" stroke-opacity="1" stroke-miterlimit="10" d="M 389.378906 381.195312 C 352.679688 426.980469 338.191406 478.996094 349.226562 536.613281 "/>
<path fill-rule="nonzero" fill="rgb(98.431373%, 60.392157%, 60%)" fill-opacity="1" d="M 350.566406 543.617188 L 346.949219 537.050781 L 351.5 536.175781 L 350.566406 543.617188 "/>
<path fill="none" stroke-width="2.5" stroke-linecap="butt" stroke-linejoin="miter" stroke="rgb(41.568627%, 23.921569%, 60.392157%)" stroke-opacity="1" stroke-miterlimit="10" d="M 389.378906 381.195312 C 379.445312 371.898438 367.511719 366.777344 354.164062 369.152344 "/>
<path fill-rule="nonzero" fill="rgb(41.568627%, 23.921569%, 60.392157%)" fill-opacity="1" d="M 347.140625 370.398438 L 353.757812 366.867188 L 354.570312 371.433594 L 347.140625 370.398438 "/>
<path fill="none" stroke-width="1.5" stroke-linecap="butt" stroke-linejoin="miter" stroke="rgb(98.431373%, 60.392157%, 60%)" stroke-opacity="1" stroke-miterlimit="10" d="M 389.378906 381.195312 C 429.269531 329.214844 444.058594 270.835938 430.546875 206.730469 "/>
<path fill-rule="nonzero" fill="rgb(98.431373%, 60.392157%, 60%)" fill-opacity="1" d="M 429.074219 199.75 L 432.8125 206.253906 L 428.277344 207.207031 L 429.074219 199.75 "/>
<path fill="none" stroke-width="1.5" stroke-linecap="butt" stroke-linejoin="miter" stroke="rgb(98.431373%, 60.392157%, 60%)" stroke-opacity="1" stroke-miterlimit="10" d="M 389.378906 381.195312 C 410.113281 307.429688 400.65625 237.722656 358.289062 173.882812 "/>
<path fill-rule="nonzero" fill="rgb(98.431373%, 60.392157%, 60%)" fill-opacity="1" d="M 354.347656 167.941406 L 360.222656 172.601562 L 356.359375 175.164062 L 354.347656 167.941406 "/>
<path fill="none" stroke-width="2.5" stroke-linecap="butt" stroke-linejoin="miter" stroke="rgb(98.431373%, 60.392157%, 60%)" stroke-opacity="1" stroke-miterlimit="10" d="M 350.972656 545.734375 C 387.644531 500.035156 402.152344 448.097656 391.164062 390.554688 "/>
<path fill-rule="nonzero" fill="rgb(98.431373%, 60.392157%, 60%)" fill-opacity="1" d="M 389.824219 383.546875 L 393.441406 390.117188 L 388.886719 390.988281 L 389.824219 383.546875 "/>
<path fill="none" stroke-width="1.5" stroke-linecap="butt" stroke-linejoin="miter" stroke="rgb(12.156863%, 47.058824%, 70.588235%)" stroke-opacity="1" stroke-miterlimit="10" d="M 175.101562 549.976562 C 213.980469 511.820312 233.160156 465.464844 229.261719 411.144531 "/>
<path fill-rule="nonzero" fill="rgb(12.156863%, 47.058824%, 70.588235%)" fill-opacity="1" d="M 228.75 404.03125 L 231.574219 410.980469 L 226.949219 411.3125 L 228.75 404.03125 "/>
<path fill="none" stroke-width="1.5" stroke-linecap="butt" stroke-linejoin="miter" stroke="rgb(12.156863%, 47.058824%, 70.588235%)" stroke-opacity="1" stroke-miterlimit="10" d="M 50 111.015625 C 54.390625 160.074219 75.757812 200.140625 116.027344 228.480469 "/>
<path fill-rule="nonzero" fill="rgb(12.156863%, 47.058824%, 70.588235%)" fill-opacity="1" d="M 121.863281 232.585938 L 114.695312 230.375 L 117.363281 226.585938 L 121.863281 232.585938 "/>
<path fill="none" stroke-width="1.5" stroke-linecap="butt" stroke-linejoin="miter" stroke="rgb(12.156863%, 47.058824%, 70.588235%)" stroke-opacity="1" stroke-miterlimit="10" d="M 228.578125 401.644531 C 213.996094 396.277344 199.269531 396.339844 186.167969 404.625 "/>
<path fill-rule="nonzero" fill="rgb(12.156863%, 47.058824%, 70.588235%)" fill-opacity="1" d="M 180.140625 408.4375 L 184.929688 402.667969 L 187.40625 406.585938 L 180.140625 408.4375 "/>
<path fill="none" stroke-width="2.5" stroke-linecap="butt" stroke-linejoin="miter" stroke="rgb(12.156863%, 47.058824%, 70.588235%)" stroke-opacity="1" stroke-miterlimit="10" d="M 228.578125 401.644531 C 199.964844 336.910156 152.261719 292.742188 84.519531 272.265625 "/>
<path fill-rule="nonzero" fill="rgb(12.156863%, 47.058824%, 70.588235%)" fill-opacity="1" d="M 77.691406 270.203125 L 85.191406 270.046875 L 83.847656 274.484375 L 77.691406 270.203125 "/>
<path fill="none" stroke-width="5.5" stroke-linecap="butt" stroke-linejoin="miter" stroke="rgb(70.196078%, 70.196078%, 70.196078%)" stroke-opacity="1" stroke-miterlimit="10" d="M 616.34375 507.570312 C 642.019531 451.175781 643.292969 394.191406 617.09375 338.046875 "/>
<path fill-rule="nonzero" fill="rgb(70.196078%, 70.196078%, 70.196078%)" fill-opacity="1" d="M 614.074219 331.582031 L 619.191406 337.066406 L 614.992188 339.027344 L 614.074219 331.582031 "/>
<path fill="none" stroke-width="5.5" stroke-linecap="butt" stroke-linejoin="miter" stroke="rgb(70.196078%, 70.196078%, 70.196078%)" stroke-opacity="1" stroke-miterlimit="10" d="M 628.921875 708.625 C 655.089844 643.195312 653.367188 578.46875 620.753906 516.015625 "/>
<path fill-rule="nonzero" fill="rgb(70.196078%, 70.196078%, 70.196078%)" fill-opacity="1" d="M 617.449219 509.695312 L 622.804688 514.945312 L 618.699219 517.089844 L 617.449219 509.695312 "/>
<path fill="none" stroke-width="5.5" stroke-linecap="butt" stroke-linejoin="miter" stroke="rgb(70.196078%, 70.196078%, 70.196078%)" stroke-opacity="1" stroke-miterlimit="10" d="M 692.652344 750 C 680.515625 728.574219 662.585938 714.1875 638.316406 710.175781 "/>
<path fill-rule="nonzero" fill="rgb(70.196078%, 70.196078%, 70.196078%)" fill-opacity="1" d="M 631.277344 709.011719 L 638.695312 707.890625 L 637.9375 712.460938 L 631.277344 709.011719 "/>
<path fill="none" stroke-width="1.5" stroke-linecap="butt" stroke-linejoin="miter" stroke="rgb(12.156863%, 47.058824%, 70.588235%)" stroke-opacity="1" stroke-miterlimit="10" d="M 102.878906 586.554688 C 153.710938 541.628906 180.269531 485.230469 179.253906 417.40625 "/>
<path fill-rule="nonzero" fill="rgb(12.156863%, 47.058824%, 70.588235%)" fill-opacity="1" d="M 179.148438 410.277344 L 181.570312 417.371094 L 176.9375 417.441406 L 179.148438 410.277344 "/>
<path fill="none" stroke-width="2.5" stroke-linecap="butt" stroke-linejoin="miter" stroke="rgb(12.156863%, 47.058824%, 70.588235%)" stroke-opacity="1" stroke-miterlimit="10" d="M 179.128906 409.078125 C 193.28125 414.476562 207.664062 414.628906 220.496094 406.660156 "/>
<path fill-rule="nonzero" fill="rgb(12.156863%, 47.058824%, 70.588235%)" fill-opacity="1" d="M 226.554688 402.898438 L 221.71875 408.632812 L 219.273438 404.691406 L 226.554688 402.898438 "/>
<path fill="none" stroke-width="4.5" stroke-linecap="butt" stroke-linejoin="miter" stroke="rgb(70.196078%, 70.196078%, 70.196078%)" stroke-opacity="1" stroke-miterlimit="10" d="M 446.769531 431.441406 C 422.199219 451.851562 408.273438 478.023438 408.382812 509.949219 "/>
<path fill-rule="nonzero" fill="rgb(70.196078%, 70.196078%, 70.196078%)" fill-opacity="1" d="M 408.40625 517.082031 L 406.0625 509.957031 L 410.699219 509.941406 L 408.40625 517.082031 "/>
<path fill="none" stroke-width="1.5" stroke-linecap="butt" stroke-linejoin="miter" stroke="rgb(12.156863%, 47.058824%, 70.588235%)" stroke-opacity="1" stroke-miterlimit="10" d="M 446.769531 431.441406 C 381.957031 389.261719 311.960938 377.359375 237.726562 398.980469 "/>
<path fill-rule="nonzero" fill="rgb(12.156863%, 47.058824%, 70.588235%)" fill-opacity="1" d="M 230.878906 400.972656 L 237.078125 396.753906 L 238.375 401.203125 L 230.878906 400.972656 "/>
<path fill="none" stroke-width="5.5" stroke-linecap="butt" stroke-linejoin="miter" stroke="rgb(70.196078%, 70.196078%, 70.196078%)" stroke-opacity="1" stroke-miterlimit="10" d="M 613.0625 329.414062 C 575.691406 347.832031 550.40625 376.867188 540.503906 417.320312 "/>
<path fill-rule="nonzero" fill="rgb(70.196078%, 70.196078%, 70.196078%)" fill-opacity="1" d="M 538.808594 424.25 L 538.253906 416.769531 L 542.753906 417.871094 L 538.808594 424.25 "/>
<path fill="none" stroke-width="5.5" stroke-linecap="butt" stroke-linejoin="miter" stroke="rgb(70.196078%, 70.196078%, 70.196078%)" stroke-opacity="1" stroke-miterlimit="10" d="M 538.238281 426.574219 C 510.496094 414.320312 482.332031 413.507812 455.273438 427.152344 "/>
<path fill-rule="nonzero" fill="rgb(70.196078%, 70.196078%, 70.196078%)" fill-opacity="1" d="M 448.902344 430.363281 L 454.230469 425.082031 L 456.316406 429.222656 L 448.902344 430.363281 "/>
<path fill="none" stroke-width="1.5" stroke-linecap="butt" stroke-linejoin="miter" stroke="rgb(41.568627%, 23.921569%, 60.392157%)" stroke-opacity="1" stroke-miterlimit="10" d="M 344.796875 370.816406 C 342.351562 426.703125 360.460938 474.917969 401.433594 512.988281 "/>
<path fill-rule="nonzero" fill="rgb(41.568627%, 23.921569%, 60.392157%)" fill-opacity="1" d="M 406.660156 517.84375 L 399.859375 514.683594 L 403.011719 511.289062 L 406.660156 517.84375 "/>
<path fill="none" stroke-width="1.5" stroke-linecap="butt" stroke-linejoin="miter" stroke="rgb(41.568627%, 23.921569%, 60.392157%)" stroke-opacity="1" stroke-miterlimit="10" d="M 344.796875 370.816406 C 354.730469 380.113281 366.664062 385.238281 380.011719 382.863281 "/>
<path fill-rule="nonzero" fill="rgb(41.568627%, 23.921569%, 60.392157%)" fill-opacity="1" d="M 387.035156 381.613281 L 380.417969 385.144531 L 379.605469 380.582031 L 387.035156 381.613281 "/>
<path fill="none" stroke-width="1.5" stroke-linecap="butt" stroke-linejoin="miter" stroke="rgb(98.431373%, 60.392157%, 60%)" stroke-opacity="1" stroke-miterlimit="10" d="M 344.796875 370.816406 C 294.53125 447.175781 280.261719 529.78125 305.121094 617.746094 "/>
<path fill-rule="nonzero" fill="rgb(98.431373%, 60.392157%, 60%)" fill-opacity="1" d="M 307.0625 624.609375 L 302.894531 618.375 L 307.351562 617.117188 L 307.0625 624.609375 "/>
<path fill="none" stroke-width="1.5" stroke-linecap="butt" stroke-linejoin="miter" stroke="rgb(98.431373%, 60.392157%, 60%)" stroke-opacity="1" stroke-miterlimit="10" d="M 428.925781 199.046875 C 389.175781 250.429688 374.242188 308.265625 387.441406 371.867188 "/>
<path fill-rule="nonzero" fill="rgb(98.431373%, 60.392157%, 60%)" fill-opacity="1" d="M 388.890625 378.851562 L 385.171875 372.339844 L 389.710938 371.394531 L 388.890625 378.851562 "/>
<path fill="none" stroke-width="1.5" stroke-linecap="butt" stroke-linejoin="miter" stroke="rgb(98.431373%, 60.392157%, 60%)" stroke-opacity="1" stroke-miterlimit="10" d="M 307.257812 625.304688 C 332.105469 608.296875 347.523438 584.957031 350.160156 554.984375 "/>
<path fill-rule="nonzero" fill="rgb(98.431373%, 60.392157%, 60%)" fill-opacity="1" d="M 350.78125 547.878906 L 352.46875 555.1875 L 347.851562 554.78125 L 350.78125 547.878906 "/>
<path fill="none" stroke-width="1.5" stroke-linecap="butt" stroke-linejoin="miter" stroke="rgb(98.431373%, 60.392157%, 60%)" stroke-opacity="1" stroke-miterlimit="10" d="M 353.949219 167.339844 C 320.546875 230.316406 315.285156 295.597656 341.316406 361.949219 "/>
<path fill-rule="nonzero" fill="rgb(98.431373%, 60.392157%, 60%)" fill-opacity="1" d="M 343.921875 368.589844 L 339.160156 362.792969 L 343.476562 361.101562 L 343.921875 368.589844 "/>
<path fill="none" stroke-width="5.5" stroke-linecap="butt" stroke-linejoin="miter" stroke="rgb(70.196078%, 70.196078%, 70.196078%)" stroke-opacity="1" stroke-miterlimit="10" d="M 737.347656 544.347656 C 692.355469 602.792969 675.703125 668.464844 690.714844 740.671875 "/>
<path fill-rule="nonzero" fill="rgb(70.196078%, 70.196078%, 70.196078%)" fill-opacity="1" d="M 692.164062 747.65625 L 688.445312 741.144531 L 692.984375 740.199219 L 692.164062 747.65625 "/>
<path fill="none" stroke-width="1.5" stroke-linecap="butt" stroke-linejoin="miter" stroke="rgb(41.568627%, 23.921569%, 60.392157%)" stroke-opacity="1" stroke-miterlimit="10" d="M 424.058594 656.539062 C 439.78125 611.964844 437.144531 568.441406 413.234375 527.6875 "/>
<path fill-rule="nonzero" fill="rgb(41.568627%, 23.921569%, 60.392157%)" fill-opacity="1" d="M 409.625 521.535156 L 415.234375 526.515625 L 411.234375 528.859375 L 409.625 521.535156 "/>
<path fill="none" stroke-width="1.5" stroke-linecap="butt" stroke-linejoin="miter" stroke="rgb(98.431373%, 60.392157%, 60%)" stroke-opacity="1" stroke-miterlimit="10" d="M 424.058594 656.539062 C 454.226562 563.011719 445.277344 473.359375 394.320312 389.34375 "/>
<path fill-rule="nonzero" fill="rgb(98.431373%, 60.392157%, 60%)" fill-opacity="1" d="M 390.621094 383.242188 L 396.300781 388.140625 L 392.335938 390.542969 L 390.621094 383.242188 "/>
<path fill="none" stroke-width="1.5" stroke-linecap="butt" stroke-linejoin="miter" stroke="rgb(12.156863%, 47.058824%, 70.588235%)" stroke-opacity="1" stroke-miterlimit="10" d="M 88.414062 403.871094 C 65.609375 464.074219 68.222656 523.195312 99.113281 579.667969 "/>
<path fill-rule="nonzero" fill="rgb(12.156863%, 47.058824%, 70.588235%)" fill-opacity="1" d="M 102.535156 585.925781 L 97.078125 580.78125 L 101.144531 578.554688 L 102.535156 585.925781 "/>
<path fill="none" stroke-width="1.5" stroke-linecap="butt" stroke-linejoin="miter" stroke="rgb(12.156863%, 47.058824%, 70.588235%)" stroke-opacity="1" stroke-miterlimit="10" d="M 88.414062 403.871094 C 124.914062 355.472656 138.238281 301.328125 125.136719 242.152344 "/>
<path fill-rule="nonzero" fill="rgb(12.156863%, 47.058824%, 70.588235%)" fill-opacity="1" d="M 123.59375 235.1875 L 127.398438 241.652344 L 122.875 242.652344 L 123.59375 235.1875 "/>
<path fill="none" stroke-width="1.5" stroke-linecap="butt" stroke-linejoin="miter" stroke="rgb(12.156863%, 47.058824%, 70.588235%)" stroke-opacity="1" stroke-miterlimit="10" d="M 77.003906 269.996094 C 92.324219 215.78125 85.683594 164.359375 54.367188 117.542969 "/>
<path fill-rule="nonzero" fill="rgb(12.156863%, 47.058824%, 70.588235%)" fill-opacity="1" d="M 50.398438 111.613281 L 56.292969 116.253906 L 52.441406 118.828125 L 50.398438 111.613281 "/>
<path fill="none" stroke-width="1.5" stroke-linecap="butt" stroke-linejoin="miter" stroke="rgb(12.156863%, 47.058824%, 70.588235%)" stroke-opacity="1" stroke-miterlimit="10" d="M 77.003906 269.996094 C 60.476562 313.296875 61.972656 356.023438 84.382812 396.578125 "/>
<path fill-rule="nonzero" fill="rgb(12.156863%, 47.058824%, 70.588235%)" fill-opacity="1" d="M 87.835938 402.820312 L 82.355469 397.699219 L 86.414062 395.457031 L 87.835938 402.820312 "/>
<path fill="none" stroke-width="1.5" stroke-linecap="butt" stroke-linejoin="miter" stroke="rgb(12.156863%, 47.058824%, 70.588235%)" stroke-opacity="1" stroke-miterlimit="10" d="M 137.34375 50 C 105.367188 105.855469 98.625 164.648438 120.269531 225.253906 "/>
<path fill-rule="nonzero" fill="rgb(12.156863%, 47.058824%, 70.588235%)" fill-opacity="1" d="M 122.667969 231.972656 L 118.085938 226.035156 L 122.453125 224.476562 L 122.667969 231.972656 "/>
<path fill="none" stroke-width="1.5" stroke-linecap="butt" stroke-linejoin="miter" stroke="rgb(12.156863%, 47.058824%, 70.588235%)" stroke-opacity="1" stroke-miterlimit="10" d="M 123.234375 233.550781 C 92.597656 343.972656 107.535156 447.867188 170.769531 543.425781 "/>
<path fill-rule="nonzero" fill="rgb(12.156863%, 47.058824%, 70.588235%)" fill-opacity="1" d="M 174.707031 549.375 L 168.835938 544.707031 L 172.703125 542.148438 L 174.707031 549.375 "/>
<path fill="none" stroke-width="1.5" stroke-linecap="butt" stroke-linejoin="miter" stroke="rgb(12.156863%, 47.058824%, 70.588235%)" stroke-opacity="1" stroke-miterlimit="10" d="M 123.234375 233.550781 C 86.695312 282.121094 73.414062 336.421875 86.605469 395.738281 "/>
<path fill-rule="nonzero" fill="rgb(12.156863%, 47.058824%, 70.588235%)" fill-opacity="1" d="M 88.152344 402.699219 L 84.34375 396.242188 L 88.867188 395.234375 L 88.152344 402.699219 "/>
<path fill="none" stroke-width="1.5" stroke-linecap="butt" stroke-linejoin="miter" stroke="rgb(12.156863%, 47.058824%, 70.588235%)" stroke-opacity="1" stroke-miterlimit="10" d="M 123.234375 233.550781 C 155.246094 177.347656 161.859375 118.257812 140 57.390625 "/>
<path fill-rule="nonzero" fill="rgb(12.156863%, 47.058824%, 70.588235%)" fill-opacity="1" d="M 137.589844 50.675781 L 142.179688 56.605469 L 137.816406 58.171875 L 137.589844 50.675781 "/>
<path fill="none" stroke-width="5.5" stroke-linecap="butt" stroke-linejoin="miter" stroke="rgb(70.196078%, 70.196078%, 70.196078%)" stroke-opacity="1" stroke-miterlimit="10" d="M 750 277.273438 C 705.898438 360.921875 699.472656 447.398438 733.882812 535.472656 "/>
<path fill-rule="nonzero" fill="rgb(70.196078%, 70.196078%, 70.196078%)" fill-opacity="1" d="M 736.476562 542.117188 L 731.722656 536.316406 L 736.039062 534.628906 L 736.476562 542.117188 "/>
<path fill="none" stroke-width="5.5" stroke-linecap="butt" stroke-linejoin="miter" stroke="rgb(70.196078%, 70.196078%, 70.196078%)" stroke-opacity="1" stroke-miterlimit="10" d="M 742.359375 51.527344 C 710.941406 124.441406 711.082031 197.328125 745.828125 268.707031 "/>
<path fill-rule="nonzero" fill="rgb(70.196078%, 70.196078%, 70.196078%)" fill-opacity="1" d="M 748.953125 275.121094 L 743.746094 269.71875 L 747.914062 267.691406 L 748.953125 275.121094 "/>
<path fill-rule="nonzero" fill="rgb(14.901961%, 14.901961%, 14.901961%)" fill-opacity="1" stroke-width="1" stroke-linecap="butt" stroke-linejoin="miter" stroke="rgb(14.901961%, 14.901961%, 14.901961%)" stroke-opacity="1" stroke-miterlimit="10" d="M 405.914062 521.972656 L 408.414062 516.972656 L 410.914062 521.972656 Z M 405.914062 521.972656 "/>
<path fill-rule="nonzero" fill="rgb(70.196078%, 70.196078%, 70.196078%)" fill-opacity="1" stroke-width="1" stroke-linecap="butt" stroke-linejoin="miter" stroke="rgb(70.196078%, 70.196078%, 70.196078%)" stroke-opacity="1" stroke-miterlimit="10" d="M 391.878906 381.195312 C 391.878906 384.527344 386.878906 384.527344 386.878906 381.195312 C 386.878906 377.863281 391.878906 377.863281 391.878906 381.195312 "/>
<path fill-rule="nonzero" fill="rgb(14.901961%, 14.901961%, 14.901961%)" fill-opacity="1" stroke-width="1" stroke-linecap="butt" stroke-linejoin="miter" stroke="rgb(14.901961%, 14.901961%, 14.901961%)" stroke-opacity="1" stroke-miterlimit="10" d="M 348.722656 547.984375 L 350.972656 543.484375 L 353.222656 547.984375 Z M 348.722656 547.984375 "/>
<path fill-rule="nonzero" fill="rgb(12.156863%, 47.058824%, 70.588235%)" fill-opacity="1" stroke-width="1" stroke-linecap="butt" stroke-linejoin="miter" stroke="rgb(12.156863%, 47.058824%, 70.588235%)" stroke-opacity="1" stroke-miterlimit="10" d="M 175.851562 549.976562 C 175.851562 550.976562 174.351562 550.976562 174.351562 549.976562 C 174.351562 548.976562 175.851562 548.976562 175.851562 549.976562 "/>
<path fill-rule="nonzero" fill="rgb(12.156863%, 47.058824%, 70.588235%)" fill-opacity="1" stroke-width="1" stroke-linecap="butt" stroke-linejoin="miter" stroke="rgb(12.156863%, 47.058824%, 70.588235%)" stroke-opacity="1" stroke-miterlimit="10" d="M 50.75 111.015625 C 50.75 112.015625 49.25 112.015625 49.25 111.015625 C 49.25 110.015625 50.75 110.015625 50.75 111.015625 "/>
<path fill-rule="nonzero" fill="rgb(14.901961%, 14.901961%, 14.901961%)" fill-opacity="1" stroke-width="1" stroke-linecap="butt" stroke-linejoin="miter" stroke="rgb(14.901961%, 14.901961%, 14.901961%)" stroke-opacity="1" stroke-miterlimit="10" d="M 226.078125 404.144531 L 228.578125 399.144531 L 231.078125 404.144531 Z M 226.078125 404.144531 "/>
<path fill-rule="nonzero" fill="rgb(70.196078%, 70.196078%, 70.196078%)" fill-opacity="1" stroke-width="1" stroke-linecap="butt" stroke-linejoin="miter" stroke="rgb(70.196078%, 70.196078%, 70.196078%)" stroke-opacity="1" stroke-miterlimit="10" d="M 618.84375 507.570312 C 618.84375 510.90625 613.84375 510.90625 613.84375 507.570312 C 613.84375 504.238281 618.84375 504.238281 618.84375 507.570312 "/>
<path fill-rule="nonzero" fill="rgb(70.196078%, 70.196078%, 70.196078%)" fill-opacity="1" stroke-width="1" stroke-linecap="butt" stroke-linejoin="miter" stroke="rgb(70.196078%, 70.196078%, 70.196078%)" stroke-opacity="1" stroke-miterlimit="10" d="M 631.421875 708.625 C 631.421875 711.957031 626.421875 711.957031 626.421875 708.625 C 626.421875 705.289062 631.421875 705.289062 631.421875 708.625 "/>
<path fill-rule="nonzero" fill="rgb(70.196078%, 70.196078%, 70.196078%)" fill-opacity="1" stroke-width="1" stroke-linecap="butt" stroke-linejoin="miter" stroke="rgb(70.196078%, 70.196078%, 70.196078%)" stroke-opacity="1" stroke-miterlimit="10" d="M 695.152344 750 C 695.152344 753.332031 690.152344 753.332031 690.152344 750 C 690.152344 746.667969 695.152344 746.667969 695.152344 750 "/>
<path fill-rule="nonzero" fill="rgb(12.156863%, 47.058824%, 70.588235%)" fill-opacity="1" stroke-width="1" stroke-linecap="butt" stroke-linejoin="miter" stroke="rgb(12.156863%, 47.058824%, 70.588235%)" stroke-opacity="1" stroke-miterlimit="10" d="M 103.628906 586.554688 C 103.628906 587.554688 102.128906 587.554688 102.128906 586.554688 C 102.128906 585.554688 103.628906 585.554688 103.628906 586.554688 "/>
<path fill-rule="nonzero" fill="rgb(12.156863%, 47.058824%, 70.588235%)" fill-opacity="1" stroke-width="1" stroke-linecap="butt" stroke-linejoin="miter" stroke="rgb(12.156863%, 47.058824%, 70.588235%)" stroke-opacity="1" stroke-miterlimit="10" d="M 180.378906 409.078125 C 180.378906 410.742188 177.878906 410.742188 177.878906 409.078125 C 177.878906 407.410156 180.378906 407.410156 180.378906 409.078125 "/>
<path fill-rule="nonzero" fill="rgb(70.196078%, 70.196078%, 70.196078%)" fill-opacity="1" stroke-width="1" stroke-linecap="butt" stroke-linejoin="miter" stroke="rgb(70.196078%, 70.196078%, 70.196078%)" stroke-opacity="1" stroke-miterlimit="10" d="M 449.269531 431.441406 C 449.269531 434.773438 444.269531 434.773438 444.269531 431.441406 C 444.269531 428.105469 449.269531 428.105469 449.269531 431.441406 "/>
<path fill-rule="nonzero" fill="rgb(70.196078%, 70.196078%, 70.196078%)" fill-opacity="1" stroke-width="1" stroke-linecap="butt" stroke-linejoin="miter" stroke="rgb(70.196078%, 70.196078%, 70.196078%)" stroke-opacity="1" stroke-miterlimit="10" d="M 615.5625 329.414062 C 615.5625 332.746094 610.5625 332.746094 610.5625 329.414062 C 610.5625 326.082031 615.5625 326.082031 615.5625 329.414062 "/>
<path fill-rule="nonzero" fill="rgb(70.196078%, 70.196078%, 70.196078%)" fill-opacity="1" stroke-width="1" stroke-linecap="butt" stroke-linejoin="miter" stroke="rgb(70.196078%, 70.196078%, 70.196078%)" stroke-opacity="1" stroke-miterlimit="10" d="M 540.738281 426.574219 C 540.738281 429.90625 535.738281 429.90625 535.738281 426.574219 C 535.738281 423.238281 540.738281 423.238281 540.738281 426.574219 "/>
<path fill-rule="nonzero" fill="rgb(70.196078%, 70.196078%, 70.196078%)" fill-opacity="1" stroke-width="1" stroke-linecap="butt" stroke-linejoin="miter" stroke="rgb(70.196078%, 70.196078%, 70.196078%)" stroke-opacity="1" stroke-miterlimit="10" d="M 347.296875 370.816406 C 347.296875 374.152344 342.296875 374.152344 342.296875 370.816406 C 342.296875 367.484375 347.296875 367.484375 347.296875 370.816406 "/>
<path fill-rule="nonzero" fill="rgb(98.431373%, 60.392157%, 60%)" fill-opacity="1" stroke-width="1" stroke-linecap="butt" stroke-linejoin="miter" stroke="rgb(98.431373%, 60.392157%, 60%)" stroke-opacity="1" stroke-miterlimit="10" d="M 429.675781 199.046875 C 429.675781 200.046875 428.175781 200.046875 428.175781 199.046875 C 428.175781 198.046875 429.675781 198.046875 429.675781 199.046875 "/>
<path fill-rule="nonzero" fill="rgb(98.431373%, 60.392157%, 60%)" fill-opacity="1" stroke-width="1" stroke-linecap="butt" stroke-linejoin="miter" stroke="rgb(98.431373%, 60.392157%, 60%)" stroke-opacity="1" stroke-miterlimit="10" d="M 308.007812 625.304688 C 308.007812 626.304688 306.507812 626.304688 306.507812 625.304688 C 306.507812 624.304688 308.007812 624.304688 308.007812 625.304688 "/>
<path fill-rule="nonzero" fill="rgb(98.431373%, 60.392157%, 60%)" fill-opacity="1" stroke-width="1" stroke-linecap="butt" stroke-linejoin="miter" stroke="rgb(98.431373%, 60.392157%, 60%)" stroke-opacity="1" stroke-miterlimit="10" d="M 354.699219 167.339844 C 354.699219 168.339844 353.199219 168.339844 353.199219 167.339844 C 353.199219 166.339844 354.699219 166.339844 354.699219 167.339844 "/>
<path fill-rule="nonzero" fill="rgb(70.196078%, 70.196078%, 70.196078%)" fill-opacity="1" stroke-width="1" stroke-linecap="butt" stroke-linejoin="miter" stroke="rgb(70.196078%, 70.196078%, 70.196078%)" stroke-opacity="1" stroke-miterlimit="10" d="M 739.847656 544.347656 C 739.847656 547.683594 734.847656 547.683594 734.847656 544.347656 C 734.847656 541.015625 739.847656 541.015625 739.847656 544.347656 "/>
<path fill-rule="nonzero" fill="rgb(70.196078%, 70.196078%, 70.196078%)" fill-opacity="1" stroke-width="1" stroke-linecap="butt" stroke-linejoin="miter" stroke="rgb(70.196078%, 70.196078%, 70.196078%)" stroke-opacity="1" stroke-miterlimit="10" d="M 426.558594 656.539062 C 426.558594 659.871094 421.558594 659.871094 421.558594 656.539062 C 421.558594 653.203125 426.558594 653.203125 426.558594 656.539062 "/>
<path fill-rule="nonzero" fill="rgb(12.156863%, 47.058824%, 70.588235%)" fill-opacity="1" stroke-width="1" stroke-linecap="butt" stroke-linejoin="miter" stroke="rgb(12.156863%, 47.058824%, 70.588235%)" stroke-opacity="1" stroke-miterlimit="10" d="M 89.664062 403.871094 C 89.664062 405.535156 87.164062 405.535156 87.164062 403.871094 C 87.164062 402.203125 89.664062 402.203125 89.664062 403.871094 "/>
<path fill-rule="nonzero" fill="rgb(12.156863%, 47.058824%, 70.588235%)" fill-opacity="1" stroke-width="1" stroke-linecap="butt" stroke-linejoin="miter" stroke="rgb(12.156863%, 47.058824%, 70.588235%)" stroke-opacity="1" stroke-miterlimit="10" d="M 77.753906 269.996094 C 77.753906 270.996094 76.253906 270.996094 76.253906 269.996094 C 76.253906 268.996094 77.753906 268.996094 77.753906 269.996094 "/>
<path fill-rule="nonzero" fill="rgb(12.156863%, 47.058824%, 70.588235%)" fill-opacity="1" stroke-width="1" stroke-linecap="butt" stroke-linejoin="miter" stroke="rgb(12.156863%, 47.058824%, 70.588235%)" stroke-opacity="1" stroke-miterlimit="10" d="M 138.09375 50 C 138.09375 51 136.59375 51 136.59375 50 C 136.59375 49 138.09375 49 138.09375 50 "/>
<path fill-rule="nonzero" fill="rgb(12.156863%, 47.058824%, 70.588235%)" fill-opacity="1" stroke-width="1" stroke-linecap="butt" stroke-linejoin="miter" stroke="rgb(12.156863%, 47.058824%, 70.588235%)" stroke-opacity="1" stroke-miterlimit="10" d="M 124.984375 233.550781 C 124.984375 235.882812 121.484375 235.882812 121.484375 233.550781 C 121.484375 231.21875 124.984375 231.21875 124.984375 233.550781 "/>
<path fill-rule="nonzero" fill="rgb(70.196078%, 70.196078%, 70.196078%)" fill-opacity="1" stroke-width="1" stroke-linecap="butt" stroke-linejoin="miter" stroke="rgb(70.196078%, 70.196078%, 70.196078%)" stroke-opacity="1" stroke-miterlimit="10" d="M 752.5 277.273438 C 752.5 280.605469 747.5 280.605469 747.5 277.273438 C 747.5 273.9375 752.5 273.9375 752.5 277.273438 "/>
<path fill-rule="nonzero" fill="rgb(100%, 84.313725%, 0%)" fill-opacity="1" stroke-width="1" stroke-linecap="butt" stroke-linejoin="miter" stroke="rgb(100%, 84.313725%, 0%)" stroke-opacity="1" stroke-miterlimit="10" d="M 739.859375 49.027344 L 744.859375 49.027344 L 744.859375 54.027344 L 739.859375 54.027344 Z M 739.859375 49.027344 "/>
</svg>
