<?xml version="1.0" encoding="UTF-8"?>
<svg xmlns="http://www.w3.org/2000/svg" xmlns:xlink="http://www.w3.org/1999/xlink" width="800" height="800" viewBox="0 0 800 800">
<rect x="-80" y="-80" width="960" height="960" fill="rgb(100%, 100%, 100%)" fill-opacity="1"/>
<path fill="none" stroke-width="1.5" stroke-linecap="butt" stroke-linejoin="miter" stroke="rgb(99.215686%, 74.901961%, 43.529412%)" stroke-opacity="1" stroke-miterlimit="10" d="M 227.40625 92.496094 C 211.28125 97.855469 198.8125 107.96875 193.199219 123.964844 "/>
<path fill-rule="nonzero" fill="rgb(99.215686%, 74.901961%, 43.529412%)" fill-opacity="1" d="M 190.835938 130.695312 L 191.011719 123.195312 L 195.386719 124.730469 L 190.835938 130.695312 "/>
<path fill="none" stroke-width="1.5" stroke-linecap="butt" stroke-linejoin="miter" stroke="rgb(99.215686%, 74.901961%, 43.529412%)" stroke-opacity="1" stroke-miterlimit="10" d="M 151.144531 187.535156 C 131.550781 200.761719 119.082031 219 117.117188 242.527344 "/>
<path fill-rule="nonzero" fill="rgb(99.215686%, 74.901961%, 43.529412%)" fill-opacity="1" d="M 116.523438 249.632812 L 114.808594 242.332031 L 119.425781 242.71875 L 116.523438 249.632812 "/>
<path fill="none" stroke-width="1.5" stroke-linecap="butt" stroke-linejoin="miter" stroke="rgb(99.215686%, 74.901961%, 43.529412%)" stroke-opacity="1" stroke-miterlimit="10" d="M 65.363281 392.5 C 52.039062 406.917969 45.21875 424.078125 48.3125 443.429688 "/>
<path fill-rule="nonzero" fill="rgb(99.215686%, 74.901961%, 43.529412%)" fill-opacity="1" d="M 49.4375 450.472656 L 46.023438 443.792969 L 50.601562 443.0625 L 49.4375 450.472656 "/>
<path fill="none" stroke-width="1.5" stroke-linecap="butt" stroke-linejoin="miter" stroke="rgb(99.215686%, 74.901961%, 43.529412%)" stroke-opacity="1" stroke-miterlimit="10" d="M 87.519531 322.542969 C 70.761719 339.152344 61.910156 359.355469 64.351562 382.796875 "/>
<path fill-rule="nonzero" fill="rgb(99.215686%, 74.901961%, 43.529412%)" fill-opacity="1" d="M 65.09375 389.890625 L 62.046875 383.035156 L 66.660156 382.554688 L 65.09375 389.890625 "/>
<path fill="none" stroke-width="1.5" stroke-linecap="butt" stroke-linejoin="miter" stroke="rgb(99.215686%, 74.901961%, 43.529412%)" stroke-opacity="1" stroke-miterlimit="10" d="M 116.304688 252.25 C 97.558594 268.078125 86.757812 288.285156 87.304688 312.789062 "/>
<path fill-rule="nonzero" fill="rgb(99.215686%, 74.901961%, 43.529412%)" fill-opacity="1" d="M 87.460938 319.921875 L 84.988281 312.839844 L 89.621094 312.738281 L 87.460938 319.921875 "/>
<path fill="none" stroke-width="1.5" stroke-linecap="butt" stroke-linejoin="miter" stroke="rgb(99.215686%, 74.901961%, 43.529412%)" stroke-opacity="1" stroke-miterlimit="10" d="M 189.96875 133.167969 C 170.984375 142.59375 157.613281 157.296875 153.183594 177.996094 "/>
<path fill-rule="nonzero" fill="rgb(99.215686%, 74.901961%, 43.529412%)" fill-opacity="1" d="M 151.691406 184.972656 L 150.917969 177.511719 L 155.449219 178.480469 L 151.691406 184.972656 "/>
<path fill="none" stroke-width="1.5" stroke-linecap="butt" stroke-linejoin="miter" stroke="rgb(12.156863%, 47.058824%, 70.588235%)" stroke-opacity="1" stroke-miterlimit="10" d="M 680.535156 272.417969 C 693.925781 277.507812 707.574219 277.691406 719.65625 270.078125 "/>
<path fill-rule="nonzero" fill="rgb(12.156863%, 47.058824%, 70.588235%)" fill-opacity="1" d="M 725.691406 266.277344 L 720.890625 272.039062 L 718.417969 268.117188 L 725.691406 266.277344 "/>
<path fill="none" stroke-width="1.5" stroke-linecap="butt" stroke-linejoin="miter" stroke="rgb(98.431373%, 60.392157%, 60%)" stroke-opacity="1" stroke-miterlimit="10" d="M 323.242188 499.613281 C 316.484375 532.257812 322.160156 562.679688 343.039062 588.640625 "/>
<path fill-rule="nonzero" fill="rgb(98.431373%, 60.392157%, 60%)" fill-opacity="1" d="M 347.507812 594.199219 L 341.234375 590.09375 L 344.84375 587.1875 L 347.507812 594.199219 "/>
<path fill="none" stroke-width="1.5" stroke-linecap="butt" stroke-linejoin="miter" stroke="rgb(41.568627%, 23.921569%, 60.392157%)" stroke-opacity="1" stroke-miterlimit="10" d="M 350.703125 598.167969 C 331.242188 575.128906 306.417969 562.117188 276.285156 562.539062 "/>
<path fill-rule="nonzero" fill="rgb(41.568627%, 23.921569%, 60.392157%)" fill-opacity="1" d="M 269.152344 562.636719 L 276.25 560.21875 L 276.316406 564.855469 L 269.152344 562.636719 "/>
<path fill="none" stroke-width="1.5" stroke-linecap="butt" stroke-linejoin="miter" stroke="rgb(98.431373%, 60.392157%, 60%)" stroke-opacity="1" stroke-miterlimit="10" d="M 350.703125 598.167969 C 363.753906 607.339844 378.378906 611.15625 393.558594 606.390625 "/>
<path fill-rule="nonzero" fill="rgb(98.431373%, 60.392157%, 60%)" fill-opacity="1" d="M 400.363281 604.253906 L 394.253906 608.601562 L 392.863281 604.179688 L 400.363281 604.253906 "/>
<path fill="none" stroke-width="1.5" stroke-linecap="butt" stroke-linejoin="miter" stroke="rgb(41.568627%, 23.921569%, 60.392157%)" stroke-opacity="1" stroke-miterlimit="10" d="M 206.648438 537.972656 C 194.875 550.484375 188.652344 565.472656 191.324219 582.40625 "/>
<path fill-rule="nonzero" fill="rgb(41.568627%, 23.921569%, 60.392157%)" fill-opacity="1" d="M 192.4375 589.449219 L 189.035156 582.765625 L 193.613281 582.042969 L 192.4375 589.449219 "/>
<path fill="none" stroke-width="1.5" stroke-linecap="butt" stroke-linejoin="miter" stroke="rgb(41.568627%, 23.921569%, 60.392157%)" stroke-opacity="1" stroke-miterlimit="10" d="M 192.847656 592.039062 C 203.703125 601.640625 216.546875 606.671875 230.707031 603.808594 "/>
<path fill-rule="nonzero" fill="rgb(41.568627%, 23.921569%, 60.392157%)" fill-opacity="1" d="M 237.699219 602.394531 L 231.167969 606.082031 L 230.25 601.539062 L 237.699219 602.394531 "/>
<path fill="none" stroke-width="1.5" stroke-linecap="butt" stroke-linejoin="miter" stroke="rgb(12.156863%, 47.058824%, 70.588235%)" stroke-opacity="1" stroke-miterlimit="10" d="M 750 304.304688 C 750.464844 291.21875 746.664062 279.265625 736.464844 271.136719 "/>
<path fill-rule="nonzero" fill="rgb(12.156863%, 47.058824%, 70.588235%)" fill-opacity="1" d="M 730.886719 266.691406 L 737.910156 269.324219 L 735.019531 272.949219 L 730.886719 266.691406 "/>
<path fill="none" stroke-width="1.5" stroke-linecap="butt" stroke-linejoin="miter" stroke="rgb(41.568627%, 23.921569%, 60.392157%)" stroke-opacity="1" stroke-miterlimit="10" d="M 266.523438 562.671875 C 253.546875 546.863281 236.820312 537.441406 216.402344 537.800781 "/>
<path fill-rule="nonzero" fill="rgb(41.568627%, 23.921569%, 60.392157%)" fill-opacity="1" d="M 209.269531 537.925781 L 216.359375 535.484375 L 216.441406 540.117188 L 209.269531 537.925781 "/>
<path fill="none" stroke-width="1.5" stroke-linecap="butt" stroke-linejoin="miter" stroke="rgb(98.431373%, 60.392157%, 60%)" stroke-opacity="1" stroke-miterlimit="10" d="M 554.9375 496.703125 C 572.449219 489.105469 585.265625 476.523438 590.101562 458.09375 "/>
<path fill-rule="nonzero" fill="rgb(98.431373%, 60.392157%, 60%)" fill-opacity="1" d="M 591.910156 451.191406 L 592.34375 458.679688 L 587.859375 457.503906 L 591.910156 451.191406 "/>
<path fill="none" stroke-width="1.5" stroke-linecap="butt" stroke-linejoin="miter" stroke="rgb(41.568627%, 23.921569%, 60.392157%)" stroke-opacity="1" stroke-miterlimit="10" d="M 303.535156 410.886719 C 322.679688 385.40625 330.167969 356.78125 322.691406 325.820312 "/>
<path fill-rule="nonzero" fill="rgb(41.568627%, 23.921569%, 60.392157%)" fill-opacity="1" d="M 321.019531 318.886719 L 324.945312 325.277344 L 320.441406 326.363281 L 321.019531 318.886719 "/>
<path fill="none" stroke-width="1.5" stroke-linecap="butt" stroke-linejoin="miter" stroke="rgb(12.156863%, 47.058824%, 70.588235%)" stroke-opacity="1" stroke-miterlimit="10" d="M 728.300781 264.628906 C 727.9375 277.949219 731.917969 290.050781 742.34375 298.269531 "/>
<path fill-rule="nonzero" fill="rgb(12.156863%, 47.058824%, 70.588235%)" fill-opacity="1" d="M 747.945312 302.683594 L 740.910156 300.089844 L 743.777344 296.449219 L 747.945312 302.683594 "/>
<path fill="none" stroke-width="1.5" stroke-linecap="butt" stroke-linejoin="miter" stroke="rgb(12.156863%, 47.058824%, 70.588235%)" stroke-opacity="1" stroke-miterlimit="10" d="M 728.300781 264.628906 C 739.574219 244.351562 742.410156 222.84375 733.660156 201.386719 "/>
<path fill-rule="nonzero" fill="rgb(12.156863%, 47.058824%, 70.588235%)" fill-opacity="1" d="M 730.964844 194.78125 L 735.804688 200.511719 L 731.511719 202.261719 L 730.964844 194.78125 "/>
<path fill="none" stroke-width="1.5" stroke-linecap="butt" stroke-linejoin="miter" stroke="rgb(98.431373%, 60.392157%, 60%)" stroke-opacity="1" stroke-miterlimit="10" d="M 460.789062 585.289062 C 480.917969 583.089844 497.789062 574.335938 508.535156 557.210938 "/>
<path fill-rule="nonzero" fill="rgb(98.431373%, 60.392157%, 60%)" fill-opacity="1" d="M 512.324219 551.171875 L 510.496094 558.445312 L 506.570312 555.980469 L 512.324219 551.171875 "/>
<path fill="none" stroke-width="1.5" stroke-linecap="butt" stroke-linejoin="miter" stroke="rgb(41.568627%, 23.921569%, 60.392157%)" stroke-opacity="1" stroke-miterlimit="10" d="M 320.402344 316.332031 C 322.113281 328.605469 327.59375 339.167969 338.453125 345.03125 "/>
<path fill-rule="nonzero" fill="rgb(41.568627%, 23.921569%, 60.392157%)" fill-opacity="1" d="M 344.730469 348.421875 L 337.351562 347.070312 L 339.554688 342.992188 L 344.730469 348.421875 "/>
<path fill="none" stroke-width="1.5" stroke-linecap="butt" stroke-linejoin="miter" stroke="rgb(30.196078%, 68.627451%, 29.019608%)" stroke-opacity="1" stroke-miterlimit="10" d="M 536.667969 721.574219 C 558.898438 731.214844 581.519531 731.914062 602.953125 720.664062 "/>
<path fill-rule="nonzero" fill="rgb(30.196078%, 68.627451%, 29.019608%)" fill-opacity="1" d="M 609.265625 717.347656 L 604.027344 722.714844 L 601.875 718.609375 L 609.265625 717.347656 "/>
<path fill="none" stroke-width="1.5" stroke-linecap="butt" stroke-linejoin="miter" stroke="rgb(30.196078%, 68.627451%, 29.019608%)" stroke-opacity="1" stroke-miterlimit="10" d="M 611.589844 716.128906 C 631.203125 720.929688 650.023438 718.5 665.910156 706.09375 "/>
<path fill-rule="nonzero" fill="rgb(30.196078%, 68.627451%, 29.019608%)" fill-opacity="1" d="M 671.53125 701.703125 L 667.335938 707.917969 L 664.484375 704.265625 L 671.53125 701.703125 "/>
<path fill="none" stroke-width="1.5" stroke-linecap="butt" stroke-linejoin="miter" stroke="rgb(98.431373%, 60.392157%, 60%)" stroke-opacity="1" stroke-miterlimit="10" d="M 639.894531 450.988281 C 642.796875 465.714844 650.214844 477.914062 663.671875 484.46875 "/>
<path fill-rule="nonzero" fill="rgb(98.431373%, 60.392157%, 60%)" fill-opacity="1" d="M 670.082031 487.59375 L 662.65625 486.550781 L 664.683594 482.386719 L 670.082031 487.59375 "/>
<path fill="none" stroke-width="1.5" stroke-linecap="butt" stroke-linejoin="miter" stroke="rgb(98.431373%, 60.392157%, 60%)" stroke-opacity="1" stroke-miterlimit="10" d="M 513.71875 548.949219 C 533.050781 540.484375 547.050781 526.503906 552.441406 506.132812 "/>
<path fill-rule="nonzero" fill="rgb(98.431373%, 60.392157%, 60%)" fill-opacity="1" d="M 554.265625 499.238281 L 554.683594 506.726562 L 550.203125 505.542969 L 554.265625 499.238281 "/>
<path fill="none" stroke-width="1.5" stroke-linecap="butt" stroke-linejoin="miter" stroke="rgb(41.568627%, 23.921569%, 60.392157%)" stroke-opacity="1" stroke-miterlimit="10" d="M 347.027344 349.664062 C 353.605469 365.3125 364.636719 376.96875 381.003906 381.320312 "/>
<path fill-rule="nonzero" fill="rgb(41.568627%, 23.921569%, 60.392157%)" fill-opacity="1" d="M 387.898438 383.15625 L 380.410156 383.5625 L 381.601562 379.082031 L 387.898438 383.15625 "/>
<path fill="none" stroke-width="1.5" stroke-linecap="butt" stroke-linejoin="miter" stroke="rgb(41.568627%, 23.921569%, 60.392157%)" stroke-opacity="1" stroke-miterlimit="10" d="M 423.390625 439.976562 C 438.085938 440.804688 451.476562 436.722656 460.976562 425.542969 "/>
<path fill-rule="nonzero" fill="rgb(41.568627%, 23.921569%, 60.392157%)" fill-opacity="1" d="M 465.597656 420.105469 L 462.742188 427.042969 L 459.210938 424.042969 L 465.597656 420.105469 "/>
<path fill="none" stroke-width="1.5" stroke-linecap="butt" stroke-linejoin="miter" stroke="rgb(41.568627%, 23.921569%, 60.392157%)" stroke-opacity="1" stroke-miterlimit="10" d="M 467.289062 418.113281 C 475.847656 401.160156 477.648438 383.382812 469.609375 366.214844 "/>
<path fill-rule="nonzero" fill="rgb(41.568627%, 23.921569%, 60.392157%)" fill-opacity="1" d="M 466.585938 359.757812 L 471.710938 365.234375 L 467.511719 367.199219 L 466.585938 359.757812 "/>
<path fill="none" stroke-width="1.5" stroke-linecap="butt" stroke-linejoin="miter" stroke="rgb(41.568627%, 23.921569%, 60.392157%)" stroke-opacity="1" stroke-miterlimit="10" d="M 465.476562 357.382812 C 454.808594 349.613281 442.683594 346.035156 430.144531 349.976562 "/>
<path fill-rule="nonzero" fill="rgb(41.568627%, 23.921569%, 60.392157%)" fill-opacity="1" d="M 423.339844 352.113281 L 429.449219 347.765625 L 430.835938 352.1875 L 423.339844 352.113281 "/>
<path fill="none" stroke-width="1.5" stroke-linecap="butt" stroke-linejoin="miter" stroke="rgb(12.156863%, 47.058824%, 70.588235%)" stroke-opacity="1" stroke-miterlimit="10" d="M 707.867188 129.730469 C 704.890625 111.414062 696.109375 96.304688 679.882812 87.375 "/>
<path fill-rule="nonzero" fill="rgb(12.156863%, 47.058824%, 70.588235%)" fill-opacity="1" d="M 673.632812 83.9375 L 681 85.34375 L 678.765625 89.40625 L 673.632812 83.9375 "/>
<path fill="none" stroke-width="1.5" stroke-linecap="butt" stroke-linejoin="miter" stroke="rgb(30.196078%, 68.627451%, 29.019608%)" stroke-opacity="1" stroke-miterlimit="10" d="M 710.5625 685.285156 C 700.472656 683.191406 690.507812 684.382812 683.046875 691.390625 "/>
<path fill-rule="nonzero" fill="rgb(30.196078%, 68.627451%, 29.019608%)" fill-opacity="1" d="M 677.847656 696.273438 L 681.460938 689.699219 L 684.632812 693.078125 L 677.847656 696.273438 "/>
<path fill="none" stroke-width="1.5" stroke-linecap="butt" stroke-linejoin="miter" stroke="rgb(41.568627%, 23.921569%, 60.392157%)" stroke-opacity="1" stroke-miterlimit="10" d="M 419.226562 353.40625 C 407.871094 356.613281 398.550781 363.136719 394.492188 374.15625 "/>
<path fill-rule="nonzero" fill="rgb(41.568627%, 23.921569%, 60.392157%)" fill-opacity="1" d="M 392.027344 380.851562 L 392.316406 373.355469 L 396.667969 374.957031 L 392.027344 380.851562 "/>
<path fill="none" stroke-width="1.5" stroke-linecap="butt" stroke-linejoin="miter" stroke="rgb(41.568627%, 23.921569%, 60.392157%)" stroke-opacity="1" stroke-miterlimit="10" d="M 440.902344 711.136719 C 430.527344 663.480469 404.625 626.675781 361.523438 603.890625 "/>
<path fill-rule="nonzero" fill="rgb(41.568627%, 23.921569%, 60.392157%)" fill-opacity="1" d="M 355.214844 600.554688 L 362.605469 601.839844 L 360.4375 605.9375 L 355.214844 600.554688 "/>
<path fill="none" stroke-width="1.5" stroke-linecap="butt" stroke-linejoin="miter" stroke="rgb(30.196078%, 68.627451%, 29.019608%)" stroke-opacity="1" stroke-miterlimit="10" d="M 440.902344 711.136719 C 467.714844 728.5625 496.875 734.097656 527.359375 724.503906 "/>
<path fill-rule="nonzero" fill="rgb(30.196078%, 68.627451%, 29.019608%)" fill-opacity="1" d="M 534.164062 722.363281 L 528.054688 726.714844 L 526.664062 722.292969 L 534.164062 722.363281 "/>
<path fill="none" stroke-width="1.5" stroke-linecap="butt" stroke-linejoin="miter" stroke="rgb(30.196078%, 68.627451%, 29.019608%)" stroke-opacity="1" stroke-miterlimit="10" d="M 440.902344 711.136719 C 428.410156 716.59375 418.964844 725.550781 415.867188 738.777344 "/>
<path fill-rule="nonzero" fill="rgb(30.196078%, 68.627451%, 29.019608%)" fill-opacity="1" d="M 414.238281 745.722656 L 413.609375 738.25 L 418.121094 739.304688 L 414.238281 745.722656 "/>
<path fill="none" stroke-width="1.5" stroke-linecap="butt" stroke-linejoin="miter" stroke="rgb(30.196078%, 68.627451%, 29.019608%)" stroke-opacity="1" stroke-miterlimit="10" d="M 440.902344 711.136719 C 441.363281 724.691406 446.171875 736.71875 457.269531 744.433594 "/>
<path fill-rule="nonzero" fill="rgb(30.196078%, 68.627451%, 29.019608%)" fill-opacity="1" d="M 463.125 748.507812 L 455.945312 746.335938 L 458.589844 742.53125 L 463.125 748.507812 "/>
<path fill="none" stroke-width="1.5" stroke-linecap="butt" stroke-linejoin="miter" stroke="rgb(30.196078%, 68.627451%, 29.019608%)" stroke-opacity="1" stroke-miterlimit="10" d="M 413.640625 748.269531 C 425.179688 743.816406 434.265625 736.105469 437.425781 724.210938 "/>
<path fill-rule="nonzero" fill="rgb(30.196078%, 68.627451%, 29.019608%)" fill-opacity="1" d="M 439.257812 717.316406 L 439.667969 724.804688 L 435.1875 723.613281 L 439.257812 717.316406 "/>
<path fill="none" stroke-width="1.5" stroke-linecap="butt" stroke-linejoin="miter" stroke="rgb(30.196078%, 68.627451%, 29.019608%)" stroke-opacity="1" stroke-miterlimit="10" d="M 465.269531 750 C 465.394531 737.703125 461.605469 726.472656 451.769531 719.1875 "/>
<path fill-rule="nonzero" fill="rgb(30.196078%, 68.627451%, 29.019608%)" fill-opacity="1" d="M 446.039062 714.941406 L 453.152344 717.324219 L 450.390625 721.050781 L 446.039062 714.941406 "/>
<path fill="none" stroke-width="1.5" stroke-linecap="butt" stroke-linejoin="miter" stroke="rgb(30.196078%, 68.627451%, 29.019608%)" stroke-opacity="1" stroke-miterlimit="10" d="M 674.714844 699.214844 C 685.339844 701.175781 695.695312 699.648438 703.421875 692.183594 "/>
<path fill-rule="nonzero" fill="rgb(30.196078%, 68.627451%, 29.019608%)" fill-opacity="1" d="M 708.550781 687.226562 L 705.03125 693.847656 L 701.8125 690.515625 L 708.550781 687.226562 "/>
<path fill="none" stroke-width="1.5" stroke-linecap="butt" stroke-linejoin="miter" stroke="rgb(41.568627%, 23.921569%, 60.392157%)" stroke-opacity="1" stroke-miterlimit="10" d="M 286.933594 520.230469 C 308.304688 489.796875 315.78125 456.191406 306.082031 420.308594 "/>
<path fill-rule="nonzero" fill="rgb(41.568627%, 23.921569%, 60.392157%)" fill-opacity="1" d="M 304.21875 413.425781 L 308.320312 419.707031 L 303.84375 420.914062 L 304.21875 413.425781 "/>
<path fill="none" stroke-width="1.5" stroke-linecap="butt" stroke-linejoin="miter" stroke="rgb(41.568627%, 23.921569%, 60.392157%)" stroke-opacity="1" stroke-miterlimit="10" d="M 390.886719 383.949219 C 391.570312 404.390625 399.117188 422.046875 415.546875 434.179688 "/>
<path fill-rule="nonzero" fill="rgb(41.568627%, 23.921569%, 60.392157%)" fill-opacity="1" d="M 421.28125 438.417969 L 414.167969 436.042969 L 416.921875 432.316406 L 421.28125 438.417969 "/>
<path fill="none" stroke-width="1.5" stroke-linecap="butt" stroke-linejoin="miter" stroke="rgb(41.568627%, 23.921569%, 60.392157%)" stroke-opacity="1" stroke-miterlimit="10" d="M 390.886719 383.949219 C 401.960938 380.976562 411.148438 374.773438 415.183594 364.101562 "/>
<path fill-rule="nonzero" fill="rgb(41.568627%, 23.921569%, 60.392157%)" fill-opacity="1" d="M 417.707031 357.429688 L 417.351562 364.921875 L 413.015625 363.28125 L 417.707031 357.429688 "/>
<path fill="none" stroke-width="1.5" stroke-linecap="butt" stroke-linejoin="miter" stroke="rgb(41.568627%, 23.921569%, 60.392157%)" stroke-opacity="1" stroke-miterlimit="10" d="M 240.265625 601.878906 C 266.269531 584.742188 282.609375 560.882812 285.902344 529.9375 "/>
<path fill-rule="nonzero" fill="rgb(41.568627%, 23.921569%, 60.392157%)" fill-opacity="1" d="M 286.65625 522.84375 L 288.207031 530.183594 L 283.597656 529.691406 L 286.65625 522.84375 "/>
<path fill="none" stroke-width="1.5" stroke-linecap="butt" stroke-linejoin="miter" stroke="rgb(98.431373%, 60.392157%, 60%)" stroke-opacity="1" stroke-miterlimit="10" d="M 402.863281 603.46875 C 421.480469 607.117188 439.070312 604.035156 453.40625 591.664062 "/>
<path fill-rule="nonzero" fill="rgb(98.431373%, 60.392157%, 60%)" fill-opacity="1" d="M 458.804688 587 L 454.921875 593.417969 L 451.890625 589.90625 L 458.804688 587 "/>
<path fill="none" stroke-width="1.5" stroke-linecap="butt" stroke-linejoin="miter" stroke="rgb(98.431373%, 60.392157%, 60%)" stroke-opacity="1" stroke-miterlimit="10" d="M 592.574219 448.65625 C 604.441406 456.289062 617.558594 459.253906 630.75 454.371094 "/>
<path fill-rule="nonzero" fill="rgb(98.431373%, 60.392157%, 60%)" fill-opacity="1" d="M 637.4375 451.898438 L 631.554688 456.546875 L 629.945312 452.199219 L 637.4375 451.898438 "/>
<path fill="none" stroke-width="1.5" stroke-linecap="butt" stroke-linejoin="miter" stroke="rgb(12.156863%, 47.058824%, 70.588235%)" stroke-opacity="1" stroke-miterlimit="10" d="M 729.976562 192.351562 C 733.140625 171.542969 728.8125 152.28125 714.507812 136.878906 "/>
<path fill-rule="nonzero" fill="rgb(12.156863%, 47.058824%, 70.588235%)" fill-opacity="1" d="M 709.652344 131.652344 L 716.203125 135.300781 L 712.808594 138.457031 L 709.652344 131.652344 "/>
<path fill="none" stroke-width="1.5" stroke-linecap="butt" stroke-linejoin="miter" stroke="rgb(12.156863%, 47.058824%, 70.588235%)" stroke-opacity="1" stroke-miterlimit="10" d="M 671.335938 82.671875 C 666.316406 68.628906 657.230469 57.730469 643.046875 53.277344 "/>
<path fill-rule="nonzero" fill="rgb(12.156863%, 47.058824%, 70.588235%)" fill-opacity="1" d="M 636.242188 51.140625 L 643.738281 51.066406 L 642.351562 55.488281 L 636.242188 51.140625 "/>
<path fill-rule="nonzero" fill="rgb(100%, 84.313725%, 0%)" fill-opacity="1" stroke-width="1" stroke-linecap="butt" stroke-linejoin="miter" stroke="rgb(100%, 84.313725%, 0%)" stroke-opacity="1" stroke-miterlimit="10" d="M 224.15625 89.246094 L 230.65625 89.246094 L 230.65625 95.746094 L 224.15625 95.746094 Z M 224.15625 89.246094 "/>
<path fill-rule="nonzero" fill="rgb(99.215686%, 74.901961%, 43.529412%)" fill-opacity="1" stroke-width="1" stroke-linecap="butt" stroke-linejoin="miter" stroke="rgb(99.215686%, 74.901961%, 43.529412%)" stroke-opacity="1" stroke-miterlimit="10" d="M 153.894531 187.535156 C 153.894531 191.203125 148.394531 191.203125 148.394531 187.535156 C 148.394531 183.871094 153.894531 183.871094 153.894531 187.535156 "/>
<path fill-rule="nonzero" fill="rgb(14.901961%, 14.901961%, 14.901961%)" fill-opacity="1" stroke-width="1" stroke-linecap="butt" stroke-linejoin="miter" stroke="rgb(14.901961%, 14.901961%, 14.901961%)" stroke-opacity="1" stroke-miterlimit="10" d="M 46.25 457.746094 L 50 450.246094 L 53.75 457.746094 Z M 46.25 457.746094 "/>
<path fill-rule="nonzero" fill="rgb(99.215686%, 74.901961%, 43.529412%)" fill-opacity="1" stroke-width="1" stroke-linecap="butt" stroke-linejoin="miter" stroke="rgb(99.215686%, 74.901961%, 43.529412%)" stroke-opacity="1" stroke-miterlimit="10" d="M 68.113281 392.5 C 68.113281 396.167969 62.613281 396.167969 62.613281 392.5 C 62.613281 388.835938 68.113281 388.835938 68.113281 392.5 "/>
<path fill-rule="nonzero" fill="rgb(99.215686%, 74.901961%, 43.529412%)" fill-opacity="1" stroke-width="1" stroke-linecap="butt" stroke-linejoin="miter" stroke="rgb(99.215686%, 74.901961%, 43.529412%)" stroke-opacity="1" stroke-miterlimit="10" d="M 90.269531 322.542969 C 90.269531 326.210938 84.769531 326.210938 84.769531 322.542969 C 84.769531 318.878906 90.269531 318.878906 90.269531 322.542969 "/>
<path fill-rule="nonzero" fill="rgb(99.215686%, 74.901961%, 43.529412%)" fill-opacity="1" stroke-width="1" stroke-linecap="butt" stroke-linejoin="miter" stroke="rgb(99.215686%, 74.901961%, 43.529412%)" stroke-opacity="1" stroke-miterlimit="10" d="M 119.054688 252.25 C 119.054688 255.917969 113.554688 255.917969 113.554688 252.25 C 113.554688 248.582031 119.054688 248.582031 119.054688 252.25 "/>
<path fill-rule="nonzero" fill="rgb(99.215686%, 74.901961%, 43.529412%)" fill-opacity="1" stroke-width="1" stroke-linecap="butt" stroke-linejoin="miter" stroke="rgb(99.215686%, 74.901961%, 43.529412%)" stroke-opacity="1" stroke-miterlimit="10" d="M 192.71875 133.167969 C 192.71875 136.832031 187.21875 136.832031 187.21875 133.167969 C 187.21875 129.5 192.71875 129.5 192.71875 133.167969 "/>
<path fill-rule="nonzero" fill="rgb(100%, 84.313725%, 0%)" fill-opacity="1" stroke-width="1" stroke-linecap="butt" stroke-linejoin="miter" stroke="rgb(100%, 84.313725%, 0%)" stroke-opacity="1" stroke-miterlimit="10" d="M 677.285156 269.167969 L 683.785156 269.167969 L 683.785156 275.667969 L 677.285156 275.667969 Z M 677.285156 269.167969 "/>
<path fill-rule="nonzero" fill="rgb(100%, 84.313725%, 0%)" fill-opacity="1" stroke-width="1" stroke-linecap="butt" stroke-linejoin="miter" stroke="rgb(100%, 84.313725%, 0%)" stroke-opacity="1" stroke-miterlimit="10" d="M 319.992188 496.363281 L 326.492188 496.363281 L 326.492188 502.863281 L 319.992188 502.863281 Z M 319.992188 496.363281 "/>
<path fill-rule="nonzero" fill="rgb(70.196078%, 70.196078%, 70.196078%)" fill-opacity="1" stroke-width="1" stroke-linecap="butt" stroke-linejoin="miter" stroke="rgb(70.196078%, 70.196078%, 70.196078%)" stroke-opacity="1" stroke-miterlimit="10" d="M 356.050781 598.167969 C 356.050781 605.300781 345.351562 605.300781 345.351562 598.167969 C 345.351562 591.035156 356.050781 591.035156 356.050781 598.167969 "/>
<path fill-rule="nonzero" fill="rgb(41.568627%, 23.921569%, 60.392157%)" fill-opacity="1" stroke-width="1" stroke-linecap="butt" stroke-linejoin="miter" stroke="rgb(41.568627%, 23.921569%, 60.392157%)" stroke-opacity="1" stroke-miterlimit="10" d="M 209.398438 537.972656 C 209.398438 541.640625 203.898438 541.640625 203.898438 537.972656 C 203.898438 534.308594 209.398438 534.308594 209.398438 537.972656 "/>
<path fill-rule="nonzero" fill="rgb(41.568627%, 23.921569%, 60.392157%)" fill-opacity="1" stroke-width="1" stroke-linecap="butt" stroke-linejoin="miter" stroke="rgb(41.568627%, 23.921569%, 60.392157%)" stroke-opacity="1" stroke-miterlimit="10" d="M 195.597656 592.039062 C 195.597656 595.707031 190.097656 595.707031 190.097656 592.039062 C 190.097656 588.371094 195.597656 588.371094 195.597656 592.039062 "/>
<path fill-rule="nonzero" fill="rgb(12.156863%, 47.058824%, 70.588235%)" fill-opacity="1" stroke-width="1" stroke-linecap="butt" stroke-linejoin="miter" stroke="rgb(12.156863%, 47.058824%, 70.588235%)" stroke-opacity="1" stroke-miterlimit="10" d="M 752.75 304.304688 C 752.75 307.96875 747.25 307.96875 747.25 304.304688 C 747.25 300.636719 752.75 300.636719 752.75 304.304688 "/>
<path fill-rule="nonzero" fill="rgb(41.568627%, 23.921569%, 60.392157%)" fill-opacity="1" stroke-width="1" stroke-linecap="butt" stroke-linejoin="miter" stroke="rgb(41.568627%, 23.921569%, 60.392157%)" stroke-opacity="1" stroke-miterlimit="10" d="M 269.273438 562.671875 C 269.273438 566.339844 263.773438 566.339844 263.773438 562.671875 C 263.773438 559.007812 269.273438 559.007812 269.273438 562.671875 "/>
<path fill-rule="nonzero" fill="rgb(98.431373%, 60.392157%, 60%)" fill-opacity="1" stroke-width="1" stroke-linecap="butt" stroke-linejoin="miter" stroke="rgb(98.431373%, 60.392157%, 60%)" stroke-opacity="1" stroke-miterlimit="10" d="M 557.6875 496.703125 C 557.6875 500.371094 552.1875 500.371094 552.1875 496.703125 C 552.1875 493.035156 557.6875 493.035156 557.6875 496.703125 "/>
<path fill-rule="nonzero" fill="rgb(41.568627%, 23.921569%, 60.392157%)" fill-opacity="1" stroke-width="1" stroke-linecap="butt" stroke-linejoin="miter" stroke="rgb(41.568627%, 23.921569%, 60.392157%)" stroke-opacity="1" stroke-miterlimit="10" d="M 306.285156 410.886719 C 306.285156 414.554688 300.785156 414.554688 300.785156 410.886719 C 300.785156 407.21875 306.285156 407.21875 306.285156 410.886719 "/>
<path fill-rule="nonzero" fill="rgb(12.156863%, 47.058824%, 70.588235%)" fill-opacity="1" stroke-width="1" stroke-linecap="butt" stroke-linejoin="miter" stroke="rgb(12.156863%, 47.058824%, 70.588235%)" stroke-opacity="1" stroke-miterlimit="10" d="M 731.550781 264.628906 C 731.550781 268.964844 725.050781 268.964844 725.050781 264.628906 C 725.050781 260.296875 731.550781 260.296875 731.550781 264.628906 "/>
<path fill-rule="nonzero" fill="rgb(98.431373%, 60.392157%, 60%)" fill-opacity="1" stroke-width="1" stroke-linecap="butt" stroke-linejoin="miter" stroke="rgb(98.431373%, 60.392157%, 60%)" stroke-opacity="1" stroke-miterlimit="10" d="M 463.539062 585.289062 C 463.539062 588.957031 458.039062 588.957031 458.039062 585.289062 C 458.039062 581.621094 463.539062 581.621094 463.539062 585.289062 "/>
<path fill-rule="nonzero" fill="rgb(41.568627%, 23.921569%, 60.392157%)" fill-opacity="1" stroke-width="1" stroke-linecap="butt" stroke-linejoin="miter" stroke="rgb(41.568627%, 23.921569%, 60.392157%)" stroke-opacity="1" stroke-miterlimit="10" d="M 323.152344 316.332031 C 323.152344 320 317.652344 320 317.652344 316.332031 C 317.652344 312.664062 323.152344 312.664062 323.152344 316.332031 "/>
<path fill-rule="nonzero" fill="rgb(30.196078%, 68.627451%, 29.019608%)" fill-opacity="1" stroke-width="1" stroke-linecap="butt" stroke-linejoin="miter" stroke="rgb(30.196078%, 68.627451%, 29.019608%)" stroke-opacity="1" stroke-miterlimit="10" d="M 539.417969 721.574219 C 539.417969 725.242188 533.917969 725.242188 533.917969 721.574219 C 533.917969 717.910156 539.417969 717.910156 539.417969 721.574219 "/>
<path fill-rule="nonzero" fill="rgb(30.196078%, 68.627451%, 29.019608%)" fill-opacity="1" stroke-width="1" stroke-linecap="butt" stroke-linejoin="miter" stroke="rgb(30.196078%, 68.627451%, 29.019608%)" stroke-opacity="1" stroke-miterlimit="10" d="M 614.339844 716.128906 C 614.339844 719.792969 608.839844 719.792969 608.839844 716.128906 C 608.839844 712.460938 614.339844 712.460938 614.339844 716.128906 "/>
<path fill-rule="nonzero" fill="rgb(98.431373%, 60.392157%, 60%)" fill-opacity="1" stroke-width="1" stroke-linecap="butt" stroke-linejoin="miter" stroke="rgb(98.431373%, 60.392157%, 60%)" stroke-opacity="1" stroke-miterlimit="10" d="M 642.644531 450.988281 C 642.644531 454.65625 637.144531 454.65625 637.144531 450.988281 C 637.144531 447.324219 642.644531 447.324219 642.644531 450.988281 "/>
<path fill-rule="nonzero" fill="rgb(98.431373%, 60.392157%, 60%)" fill-opacity="1" stroke-width="1" stroke-linecap="butt" stroke-linejoin="miter" stroke="rgb(98.431373%, 60.392157%, 60%)" stroke-opacity="1" stroke-miterlimit="10" d="M 516.46875 548.949219 C 516.46875 552.617188 510.96875 552.617188 510.96875 548.949219 C 510.96875 545.28125 516.46875 545.28125 516.46875 548.949219 "/>
<path fill-rule="nonzero" fill="rgb(41.568627%, 23.921569%, 60.392157%)" fill-opacity="1" stroke-width="1" stroke-linecap="butt" stroke-linejoin="miter" stroke="rgb(41.568627%, 23.921569%, 60.392157%)" stroke-opacity="1" stroke-miterlimit="10" d="M 349.777344 349.664062 C 349.777344 353.332031 344.277344 353.332031 344.277344 349.664062 C 344.277344 345.996094 349.777344 345.996094 349.777344 349.664062 "/>
<path fill-rule="nonzero" fill="rgb(41.568627%, 23.921569%, 60.392157%)" fill-opacity="1" stroke-width="1" stroke-linecap="butt" stroke-linejoin="miter" stroke="rgb(41.568627%, 23.921569%, 60.392157%)" stroke-opacity="1" stroke-miterlimit="10" d="M 426.140625 439.976562 C 426.140625 443.644531 420.640625 443.644531 420.640625 439.976562 C 420.640625 436.308594 426.140625 436.308594 426.140625 439.976562 "/>
<path fill-rule="nonzero" fill="rgb(41.568627%, 23.921569%, 60.392157%)" fill-opacity="1" stroke-width="1" stroke-linecap="butt" stroke-linejoin="miter" stroke="rgb(41.568627%, 23.921569%, 60.392157%)" stroke-opacity="1" stroke-miterlimit="10" d="M 470.039062 418.113281 C 470.039062 421.777344 464.539062 421.777344 464.539062 418.113281 C 464.539062 414.445312 470.039062 414.445312 470.039062 418.113281 "/>
<path fill-rule="nonzero" fill="rgb(41.568627%, 23.921569%, 60.392157%)" fill-opacity="1" stroke-width="1" stroke-linecap="butt" stroke-linejoin="miter" stroke="rgb(41.568627%, 23.921569%, 60.392157%)" stroke-opacity="1" stroke-miterlimit="10" d="M 468.226562 357.382812 C 468.226562 361.050781 462.726562 361.050781 462.726562 357.382812 C 462.726562 353.714844 468.226562 353.714844 468.226562 357.382812 "/>
<path fill-rule="nonzero" fill="rgb(12.156863%, 47.058824%, 70.588235%)" fill-opacity="1" stroke-width="1" stroke-linecap="butt" stroke-linejoin="miter" stroke="rgb(12.156863%, 47.058824%, 70.588235%)" stroke-opacity="1" stroke-miterlimit="10" d="M 710.617188 129.730469 C 710.617188 133.398438 705.117188 133.398438 705.117188 129.730469 C 705.117188 126.066406 710.617188 126.066406 710.617188 129.730469 "/>
<path fill-rule="nonzero" fill="rgb(30.196078%, 68.627451%, 29.019608%)" fill-opacity="1" stroke-width="1" stroke-linecap="butt" stroke-linejoin="miter" stroke="rgb(30.196078%, 68.627451%, 29.019608%)" stroke-opacity="1" stroke-miterlimit="10" d="M 713.3125 685.285156 C 713.3125 688.949219 707.8125 688.949219 707.8125 685.285156 C 707.8125 681.617188 713.3125 681.617188 713.3125 685.285156 "/>
<path fill-rule="nonzero" fill="rgb(14.901961%, 14.901961%, 14.901961%)" fill-opacity="1" stroke-width="1" stroke-linecap="butt" stroke-linejoin="miter" stroke="rgb(14.901961%, 14.901961%, 14.901961%)" stroke-opacity="1" stroke-miterlimit="10" d="M 414.976562 357.65625 L 419.226562 349.15625 L 423.476562 357.65625 Z M 414.976562 357.65625 "/>
<path fill-rule="nonzero" fill="rgb(100%, 84.313725%, 0%)" fill-opacity="1" stroke-width="1" stroke-linecap="butt" stroke-linejoin="miter" stroke="rgb(100%, 84.313725%, 0%)" stroke-opacity="1" stroke-miterlimit="10" d="M 434.550781 704.785156 L 447.25 704.785156 L 447.25 717.484375 L 434.550781 717.484375 Z M 434.550781 704.785156 "/>
<path fill-rule="nonzero" fill="rgb(30.196078%, 68.627451%, 29.019608%)" fill-opacity="1" stroke-width="1" stroke-linecap="butt" stroke-linejoin="miter" stroke="rgb(30.196078%, 68.627451%, 29.019608%)" stroke-opacity="1" stroke-miterlimit="10" d="M 416.390625 748.269531 C 416.390625 751.9375 410.890625 751.9375 410.890625 748.269531 C 410.890625 744.601562 416.390625 744.601562 416.390625 748.269531 "/>
<path fill-rule="nonzero" fill="rgb(30.196078%, 68.627451%, 29.019608%)" fill-opacity="1" stroke-width="1" stroke-linecap="butt" stroke-linejoin="miter" stroke="rgb(30.196078%, 68.627451%, 29.019608%)" stroke-opacity="1" stroke-miterlimit="10" d="M 468.019531 750 C 468.019531 753.667969 462.519531 753.667969 462.519531 750 C 462.519531 746.332031 468.019531 746.332031 468.019531 750 "/>
<path fill-rule="nonzero" fill="rgb(14.901961%, 14.901961%, 14.901961%)" fill-opacity="1" stroke-width="1" stroke-linecap="butt" stroke-linejoin="miter" stroke="rgb(14.901961%, 14.901961%, 14.901961%)" stroke-opacity="1" stroke-miterlimit="10" d="M 670.464844 703.464844 L 674.714844 694.964844 L 678.964844 703.464844 Z M 670.464844 703.464844 "/>
<path fill-rule="nonzero" fill="rgb(41.568627%, 23.921569%, 60.392157%)" fill-opacity="1" stroke-width="1" stroke-linecap="butt" stroke-linejoin="miter" stroke="rgb(41.568627%, 23.921569%, 60.392157%)" stroke-opacity="1" stroke-miterlimit="10" d="M 289.683594 520.230469 C 289.683594 523.898438 284.183594 523.898438 284.183594 520.230469 C 284.183594 516.566406 289.683594 516.566406 289.683594 520.230469 "/>
<path fill-rule="nonzero" fill="rgb(41.568627%, 23.921569%, 60.392157%)" fill-opacity="1" stroke-width="1" stroke-linecap="butt" stroke-linejoin="miter" stroke="rgb(41.568627%, 23.921569%, 60.392157%)" stroke-opacity="1" stroke-miterlimit="10" d="M 394.136719 383.949219 C 394.136719 388.28125 387.636719 388.28125 387.636719 383.949219 C 387.636719 379.617188 394.136719 379.617188 394.136719 383.949219 "/>
<path fill-rule="nonzero" fill="rgb(41.568627%, 23.921569%, 60.392157%)" fill-opacity="1" stroke-width="1" stroke-linecap="butt" stroke-linejoin="miter" stroke="rgb(41.568627%, 23.921569%, 60.392157%)" stroke-opacity="1" stroke-miterlimit="10" d="M 243.015625 601.878906 C 243.015625 605.542969 237.515625 605.542969 237.515625 601.878906 C 237.515625 598.210938 243.015625 598.210938 243.015625 601.878906 "/>
<path fill-rule="nonzero" fill="rgb(98.431373%, 60.392157%, 60%)" fill-opacity="1" stroke-width="1" stroke-linecap="butt" stroke-linejoin="miter" stroke="rgb(98.431373%, 60.392157%, 60%)" stroke-opacity="1" stroke-miterlimit="10" d="M 405.613281 603.46875 C 405.613281 607.136719 400.113281 607.136719 400.113281 603.46875 C 400.113281 599.804688 405.613281 599.804688 405.613281 603.46875 "/>
<path fill-rule="nonzero" fill="rgb(98.431373%, 60.392157%, 60%)" fill-opacity="1" stroke-width="1" stroke-linecap="butt" stroke-linejoin="miter" stroke="rgb(98.431373%, 60.392157%, 60%)" stroke-opacity="1" stroke-miterlimit="10" d="M 595.324219 448.65625 C 595.324219 452.324219 589.824219 452.324219 589.824219 448.65625 C 589.824219 444.992188 595.324219 444.992188 595.324219 448.65625 "/>
<path fill-rule="nonzero" fill="rgb(14.901961%, 14.901961%, 14.901961%)" fill-opacity="1" stroke-width="1" stroke-linecap="butt" stroke-linejoin="miter" stroke="rgb(14.901961%, 14.901961%, 14.901961%)" stroke-opacity="1" stroke-miterlimit="10" d="M 669.757812 493.011719 L 673.507812 485.511719 L 677.257812 493.011719 Z M 669.757812 493.011719 "/>
<path fill-rule="nonzero" fill="rgb(12.156863%, 47.058824%, 70.588235%)" fill-opacity="1" stroke-width="1" stroke-linecap="butt" stroke-linejoin="miter" stroke="rgb(12.156863%, 47.058824%, 70.588235%)" stroke-opacity="1" stroke-miterlimit="10" d="M 732.726562 192.351562 C 732.726562 196.019531 727.226562 196.019531 727.226562 192.351562 C 727.226562 188.6875 732.726562 188.6875 732.726562 192.351562 "/>
<path fill-rule="nonzero" fill="rgb(12.156863%, 47.058824%, 70.588235%)" fill-opacity="1" stroke-width="1" stroke-linecap="butt" stroke-linejoin="miter" stroke="rgb(12.156863%, 47.058824%, 70.588235%)" stroke-opacity="1" stroke-miterlimit="10" d="M 674.085938 82.671875 C 674.085938 86.339844 668.585938 86.339844 668.585938 82.671875 C 668.585938 79.003906 674.085938 79.003906 674.085938 82.671875 "/>
<path fill-rule="nonzero" fill="rgb(14.901961%, 14.901961%, 14.901961%)" fill-opacity="1" stroke-width="1" stroke-linecap="butt" stroke-linejoin="miter" stroke="rgb(14.901961%, 14.901961%, 14.901961%)" stroke-opacity="1" stroke-miterlimit="10" d="M 628.855469 53.75 L 632.605469 46.25 L 636.355469 53.75 Z M 628.855469 53.75 "/>
</svg>
