<?xml version="1.0" encoding="UTF-8"?>
<svg xmlns="http://www.w3.org/2000/svg" xmlns:xlink="http://www.w3.org/1999/xlink" width="800" height="800" viewBox="0 0 800 800">
<rect x="-80" y="-80" width="960" height="960" fill="rgb(100%, 100%, 100%)" fill-opacity="1"/>
<path fill="none" stroke-width="3.5" stroke-linecap="butt" stroke-linejoin="miter" stroke="rgb(70.196078%, 70.196078%, 70.196078%)" stroke-opacity="1" stroke-miterlimit="10" d="M 522.105469 675.746094 C 531.296875 639.0625 526.121094 604.449219 503.847656 573.910156 "/>
<path fill-rule="nonzero" fill="rgb(70.196078%, 70.196078%, 70.196078%)" fill-opacity="1" d="M 499.644531 568.144531 L 505.71875 572.542969 L 501.976562 575.273438 L 499.644531 568.144531 "/>
<path fill="none" stroke-width="1.5" stroke-linecap="butt" stroke-linejoin="miter" stroke="rgb(12.156863%, 47.058824%, 70.588235%)" stroke-opacity="1" stroke-miterlimit="10" d="M 522.105469 675.746094 C 523.101562 699.054688 532.007812 718.941406 550.757812 732.78125 "/>
<path fill-rule="nonzero" fill="rgb(12.156863%, 47.058824%, 70.588235%)" fill-opacity="1" d="M 556.5 737.015625 L 549.382812 734.644531 L 552.136719 730.917969 L 556.5 737.015625 "/>
<path fill="none" stroke-width="3.5" stroke-linecap="butt" stroke-linejoin="miter" stroke="rgb(70.196078%, 70.196078%, 70.196078%)" stroke-opacity="1" stroke-miterlimit="10" d="M 522.105469 675.746094 C 538.460938 667.730469 550.160156 655.175781 553.90625 637.386719 "/>
<path fill-rule="nonzero" fill="rgb(70.196078%, 70.196078%, 70.196078%)" fill-opacity="1" d="M 555.375 630.40625 L 556.171875 637.867188 L 551.636719 636.910156 L 555.375 630.40625 "/>
<path fill="none" stroke-width="2.5" stroke-linecap="butt" stroke-linejoin="miter" stroke="rgb(70.196078%, 70.196078%, 70.196078%)" stroke-opacity="1" stroke-miterlimit="10" d="M 522.105469 675.746094 C 506.90625 694.945312 500.347656 716.851562 505.738281 740.714844 "/>
<path fill-rule="nonzero" fill="rgb(70.196078%, 70.196078%, 70.196078%)" fill-opacity="1" d="M 507.308594 747.671875 L 503.476562 741.222656 L 507.996094 740.203125 L 507.308594 747.671875 "/>
<path fill="none" stroke-width="1.5" stroke-linecap="butt" stroke-linejoin="miter" stroke="rgb(12.156863%, 47.058824%, 70.588235%)" stroke-opacity="1" stroke-miterlimit="10" d="M 522.105469 675.746094 C 538.75 686.929688 557.109375 691.042969 576.191406 684.964844 "/>
<path fill-rule="nonzero" fill="rgb(12.156863%, 47.058824%, 70.588235%)" fill-opacity="1" d="M 582.984375 682.800781 L 576.894531 687.171875 L 575.488281 682.757812 L 582.984375 682.800781 "/>
<path fill="none" stroke-width="5.5" stroke-linecap="butt" stroke-linejoin="miter" stroke="rgb(70.196078%, 70.196078%, 70.196078%)" stroke-opacity="1" stroke-miterlimit="10" d="M 522.105469 675.746094 C 515.148438 661.929688 504.398438 651.933594 489.234375 649.082031 "/>
<path fill-rule="nonzero" fill="rgb(70.196078%, 70.196078%, 70.196078%)" fill-opacity="1" d="M 482.226562 647.765625 L 489.664062 646.804688 L 488.808594 651.359375 L 482.226562 647.765625 "/>
<path fill="none" stroke-width="1.5" stroke-linecap="butt" stroke-linejoin="miter" stroke="rgb(12.156863%, 47.058824%, 70.588235%)" stroke-opacity="1" stroke-miterlimit="10" d="M 522.105469 675.746094 C 501.15625 677.542969 483.503906 686.273438 471.859375 703.746094 "/>
<path fill-rule="nonzero" fill="rgb(12.156863%, 47.058824%, 70.588235%)" fill-opacity="1" d="M 467.90625 709.683594 L 469.933594 702.460938 L 473.789062 705.03125 L 467.90625 709.683594 "/>
<path fill="none" stroke-width="8.5" stroke-linecap="butt" stroke-linejoin="miter" stroke="rgb(70.196078%, 70.196078%, 70.196078%)" stroke-opacity="1" stroke-miterlimit="10" d="M 498.234375 566.214844 C 489.046875 602.898438 494.222656 637.507812 516.496094 668.050781 "/>
<path fill-rule="nonzero" fill="rgb(70.196078%, 70.196078%, 70.196078%)" fill-opacity="1" d="M 520.699219 673.8125 L 514.621094 669.417969 L 518.367188 666.6875 L 520.699219 673.8125 "/>
<path fill="none" stroke-width="1.5" stroke-linecap="butt" stroke-linejoin="miter" stroke="rgb(12.156863%, 47.058824%, 70.588235%)" stroke-opacity="1" stroke-miterlimit="10" d="M 498.234375 566.214844 C 511.78125 555.46875 520.113281 541.457031 519.96875 524.203125 "/>
<path fill-rule="nonzero" fill="rgb(12.156863%, 47.058824%, 70.588235%)" fill-opacity="1" d="M 519.90625 517.070312 L 522.285156 524.183594 L 517.652344 524.222656 L 519.90625 517.070312 "/>
<path fill="none" stroke-width="1.5" stroke-linecap="butt" stroke-linejoin="miter" stroke="rgb(12.156863%, 47.058824%, 70.588235%)" stroke-opacity="1" stroke-miterlimit="10" d="M 519.902344 516.351562 C 506.636719 526.554688 498.292969 540 498.257812 556.699219 "/>
<path fill-rule="nonzero" fill="rgb(12.156863%, 47.058824%, 70.588235%)" fill-opacity="1" d="M 498.242188 563.832031 L 495.9375 556.691406 L 500.574219 556.703125 L 498.242188 563.832031 "/>
<path fill="none" stroke-width="1.5" stroke-linecap="butt" stroke-linejoin="miter" stroke="rgb(12.156863%, 47.058824%, 70.588235%)" stroke-opacity="1" stroke-miterlimit="10" d="M 557.078125 737.445312 C 556.355469 714.679688 547.914062 695.117188 529.71875 681.460938 "/>
<path fill-rule="nonzero" fill="rgb(12.156863%, 47.058824%, 70.588235%)" fill-opacity="1" d="M 524.015625 677.179688 L 531.109375 679.605469 L 528.328125 683.3125 L 524.015625 677.179688 "/>
<path fill="none" stroke-width="5.5" stroke-linecap="butt" stroke-linejoin="miter" stroke="rgb(70.196078%, 70.196078%, 70.196078%)" stroke-opacity="1" stroke-miterlimit="10" d="M 444.152344 456.359375 C 444.183594 497.957031 459.054688 533.402344 490.933594 560.097656 "/>
<path fill-rule="nonzero" fill="rgb(70.196078%, 70.196078%, 70.196078%)" fill-opacity="1" d="M 496.402344 564.679688 L 489.445312 561.875 L 492.421875 558.320312 L 496.402344 564.679688 "/>
<path fill="none" stroke-width="3.5" stroke-linecap="butt" stroke-linejoin="miter" stroke="rgb(70.196078%, 70.196078%, 70.196078%)" stroke-opacity="1" stroke-miterlimit="10" d="M 555.863281 628.074219 C 539.511719 636.089844 527.808594 648.644531 524.066406 666.433594 "/>
<path fill-rule="nonzero" fill="rgb(70.196078%, 70.196078%, 70.196078%)" fill-opacity="1" d="M 522.597656 673.414062 L 521.796875 665.957031 L 526.335938 666.910156 L 522.597656 673.414062 "/>
<path fill="none" stroke-width="5.5" stroke-linecap="butt" stroke-linejoin="miter" stroke="rgb(70.196078%, 70.196078%, 70.196078%)" stroke-opacity="1" stroke-miterlimit="10" d="M 405.484375 360.347656 C 402.699219 394.914062 412.527344 425.507812 437.335938 449.710938 "/>
<path fill-rule="nonzero" fill="rgb(70.196078%, 70.196078%, 70.196078%)" fill-opacity="1" d="M 442.441406 454.691406 L 435.714844 451.371094 L 438.953125 448.050781 L 442.441406 454.691406 "/>
<path fill="none" stroke-width="5.5" stroke-linecap="butt" stroke-linejoin="miter" stroke="rgb(70.196078%, 70.196078%, 70.196078%)" stroke-opacity="1" stroke-miterlimit="10" d="M 372.734375 262.773438 C 367.933594 296.902344 375.878906 327.839844 399.074219 353.308594 "/>
<path fill-rule="nonzero" fill="rgb(70.196078%, 70.196078%, 70.196078%)" fill-opacity="1" d="M 403.875 358.582031 L 397.359375 354.867188 L 400.785156 351.746094 L 403.875 358.582031 "/>
<path fill="none" stroke-width="2.5" stroke-linecap="butt" stroke-linejoin="miter" stroke="rgb(70.196078%, 70.196078%, 70.196078%)" stroke-opacity="1" stroke-miterlimit="10" d="M 507.832031 750 C 523.035156 730.800781 529.589844 708.894531 524.203125 685.03125 "/>
<path fill-rule="nonzero" fill="rgb(70.196078%, 70.196078%, 70.196078%)" fill-opacity="1" d="M 522.632812 678.074219 L 526.464844 684.523438 L 521.941406 685.542969 L 522.632812 678.074219 "/>
<path fill="none" stroke-width="1.5" stroke-linecap="butt" stroke-linejoin="miter" stroke="rgb(12.156863%, 47.058824%, 70.588235%)" stroke-opacity="1" stroke-miterlimit="10" d="M 583.671875 682.582031 C 567.628906 671.5 549.804688 667.210938 531.203125 672.941406 "/>
<path fill-rule="nonzero" fill="rgb(12.156863%, 47.058824%, 70.588235%)" fill-opacity="1" d="M 524.386719 675.042969 L 530.519531 670.726562 L 531.882812 675.15625 L 524.386719 675.042969 "/>
<path fill="none" stroke-width="5.5" stroke-linecap="butt" stroke-linejoin="miter" stroke="rgb(70.196078%, 70.196078%, 70.196078%)" stroke-opacity="1" stroke-miterlimit="10" d="M 479.886719 647.324219 C 486.84375 661.144531 497.589844 671.136719 512.753906 673.988281 "/>
<path fill-rule="nonzero" fill="rgb(70.196078%, 70.196078%, 70.196078%)" fill-opacity="1" d="M 519.765625 675.304688 L 512.328125 676.265625 L 513.183594 671.710938 L 519.765625 675.304688 "/>
<path fill="none" stroke-width="5.5" stroke-linecap="butt" stroke-linejoin="miter" stroke="rgb(70.196078%, 70.196078%, 70.196078%)" stroke-opacity="1" stroke-miterlimit="10" d="M 334.101562 153.316406 C 329.425781 192.304688 339.304688 227.253906 366.207031 255.839844 "/>
<path fill-rule="nonzero" fill="rgb(70.196078%, 70.196078%, 70.196078%)" fill-opacity="1" d="M 371.09375 261.035156 L 364.519531 257.425781 L 367.894531 254.25 L 371.09375 261.035156 "/>
<path fill="none" stroke-width="5.5" stroke-linecap="butt" stroke-linejoin="miter" stroke="rgb(70.196078%, 70.196078%, 70.196078%)" stroke-opacity="1" stroke-miterlimit="10" d="M 373.660156 166.039062 C 365.667969 156.996094 355.535156 151.34375 343.570312 152.445312 "/>
<path fill-rule="nonzero" fill="rgb(70.196078%, 70.196078%, 70.196078%)" fill-opacity="1" d="M 336.46875 153.097656 L 343.359375 150.136719 L 343.785156 154.753906 L 336.46875 153.097656 "/>
<path fill="none" stroke-width="1.5" stroke-linecap="butt" stroke-linejoin="miter" stroke="rgb(12.156863%, 47.058824%, 70.588235%)" stroke-opacity="1" stroke-miterlimit="10" d="M 373.660156 166.039062 C 396.5 161.257812 414.675781 149.230469 425.28125 128.46875 "/>
<path fill-rule="nonzero" fill="rgb(12.156863%, 47.058824%, 70.588235%)" fill-opacity="1" d="M 428.523438 122.117188 L 427.34375 129.523438 L 423.214844 127.414062 L 428.523438 122.117188 "/>
<path fill="none" stroke-width="5.5" stroke-linecap="butt" stroke-linejoin="miter" stroke="rgb(70.196078%, 70.196078%, 70.196078%)" stroke-opacity="1" stroke-miterlimit="10" d="M 281.167969 317.164062 C 332.835938 283.625 364.371094 236.546875 372.414062 175.484375 "/>
<path fill-rule="nonzero" fill="rgb(70.196078%, 70.196078%, 70.196078%)" fill-opacity="1" d="M 373.347656 168.414062 L 374.710938 175.789062 L 370.117188 175.183594 L 373.347656 168.414062 "/>
<path fill="none" stroke-width="1.5" stroke-linecap="butt" stroke-linejoin="miter" stroke="rgb(12.156863%, 47.058824%, 70.588235%)" stroke-opacity="1" stroke-miterlimit="10" d="M 400.921875 77.988281 C 379.683594 99.933594 369.117188 126.257812 372.578125 156.578125 "/>
<path fill-rule="nonzero" fill="rgb(12.156863%, 47.058824%, 70.588235%)" fill-opacity="1" d="M 373.386719 163.664062 L 370.277344 156.839844 L 374.882812 156.316406 L 373.386719 163.664062 "/>
<path fill="none" stroke-width="1.5" stroke-linecap="butt" stroke-linejoin="miter" stroke="rgb(12.156863%, 47.058824%, 70.588235%)" stroke-opacity="1" stroke-miterlimit="10" d="M 428.851562 121.476562 C 427.601562 105.214844 421.078125 91.246094 407.480469 82.300781 "/>
<path fill-rule="nonzero" fill="rgb(12.156863%, 47.058824%, 70.588235%)" fill-opacity="1" d="M 401.519531 78.382812 L 408.753906 80.367188 L 406.207031 84.238281 L 401.519531 78.382812 "/>
<path fill="none" stroke-width="1.5" stroke-linecap="butt" stroke-linejoin="miter" stroke="rgb(12.156863%, 47.058824%, 70.588235%)" stroke-opacity="1" stroke-miterlimit="10" d="M 467.507812 710.28125 C 487.921875 708.78125 505.273438 700.527344 516.757812 683.621094 "/>
<path fill-rule="nonzero" fill="rgb(12.156863%, 47.058824%, 70.588235%)" fill-opacity="1" d="M 520.765625 677.71875 L 518.675781 684.921875 L 514.839844 682.316406 L 520.765625 677.71875 "/>
<path fill="none" stroke-width="5.5" stroke-linecap="butt" stroke-linejoin="miter" stroke="rgb(70.196078%, 70.196078%, 70.196078%)" stroke-opacity="1" stroke-miterlimit="10" d="M 210.433594 422.5 C 247.855469 400.875 271.988281 369.085938 279.507812 326.542969 "/>
<path fill-rule="nonzero" fill="rgb(70.196078%, 70.196078%, 70.196078%)" fill-opacity="1" d="M 280.75 319.519531 L 281.792969 326.945312 L 277.226562 326.140625 L 280.75 319.519531 "/>
<path fill="none" stroke-width="5.5" stroke-linecap="butt" stroke-linejoin="miter" stroke="rgb(70.196078%, 70.196078%, 70.196078%)" stroke-opacity="1" stroke-miterlimit="10" d="M 132.6875 534.308594 C 173.367188 511.550781 199.789062 477.613281 208.628906 431.855469 "/>
<path fill-rule="nonzero" fill="rgb(70.196078%, 70.196078%, 70.196078%)" fill-opacity="1" d="M 209.980469 424.851562 L 210.90625 432.292969 L 206.351562 431.414062 L 209.980469 424.851562 "/>
<path fill="none" stroke-width="5.5" stroke-linecap="butt" stroke-linejoin="miter" stroke="rgb(70.196078%, 70.196078%, 70.196078%)" stroke-opacity="1" stroke-miterlimit="10" d="M 446.320312 221.546875 C 405.652344 201.980469 364.046875 199.898438 322.894531 218.390625 "/>
<path fill-rule="nonzero" fill="rgb(70.196078%, 70.196078%, 70.196078%)" fill-opacity="1" d="M 316.386719 221.3125 L 321.945312 216.277344 L 323.84375 220.503906 L 316.386719 221.3125 "/>
<path fill="none" stroke-width="5.5" stroke-linecap="butt" stroke-linejoin="miter" stroke="rgb(70.196078%, 70.196078%, 70.196078%)" stroke-opacity="1" stroke-miterlimit="10" d="M 73.058594 295.234375 C 70.730469 330.832031 81.34375 362.125 107.21875 386.65625 "/>
<path fill-rule="nonzero" fill="rgb(70.196078%, 70.196078%, 70.196078%)" fill-opacity="1" d="M 112.394531 391.5625 L 105.625 388.339844 L 108.8125 384.976562 L 112.394531 391.5625 "/>
<path fill="none" stroke-width="5.5" stroke-linecap="butt" stroke-linejoin="miter" stroke="rgb(70.196078%, 70.196078%, 70.196078%)" stroke-opacity="1" stroke-miterlimit="10" d="M 50 199.578125 C 42.550781 231.53125 47.414062 261.574219 67.289062 287.65625 "/>
<path fill-rule="nonzero" fill="rgb(70.196078%, 70.196078%, 70.196078%)" fill-opacity="1" d="M 71.609375 293.332031 L 65.445312 289.0625 L 69.132812 286.253906 L 71.609375 293.332031 "/>
<path fill="none" stroke-width="5.5" stroke-linecap="butt" stroke-linejoin="miter" stroke="rgb(70.196078%, 70.196078%, 70.196078%)" stroke-opacity="1" stroke-miterlimit="10" d="M 114.128906 393.207031 C 116.839844 432.734375 133.21875 465.5 165.261719 488.773438 "/>
<path fill-rule="nonzero" fill="rgb(70.196078%, 70.196078%, 70.196078%)" fill-opacity="1" d="M 171.03125 492.964844 L 163.898438 490.648438 L 166.621094 486.898438 L 171.03125 492.964844 "/>
<path fill="none" stroke-width="5.5" stroke-linecap="butt" stroke-linejoin="miter" stroke="rgb(70.196078%, 70.196078%, 70.196078%)" stroke-opacity="1" stroke-miterlimit="10" d="M 122.167969 623.617188 C 138.632812 598.878906 144.144531 571.816406 135.46875 543.417969 "/>
<path fill-rule="nonzero" fill="rgb(70.196078%, 70.196078%, 70.196078%)" fill-opacity="1" d="M 133.382812 536.59375 L 137.683594 542.738281 L 133.25 544.09375 L 133.382812 536.59375 "/>
<path fill="none" stroke-width="5.5" stroke-linecap="butt" stroke-linejoin="miter" stroke="rgb(70.196078%, 70.196078%, 70.196078%)" stroke-opacity="1" stroke-miterlimit="10" d="M 171.488281 661.445312 C 163.453125 643.589844 150.367188 630.65625 131.402344 625.921875 "/>
<path fill-rule="nonzero" fill="rgb(70.196078%, 70.196078%, 70.196078%)" fill-opacity="1" d="M 124.480469 624.195312 L 131.964844 623.675781 L 130.839844 628.171875 L 124.480469 624.195312 "/>
<path fill="none" stroke-width="5.5" stroke-linecap="butt" stroke-linejoin="miter" stroke="rgb(70.196078%, 70.196078%, 70.196078%)" stroke-opacity="1" stroke-miterlimit="10" d="M 200.25 592.796875 C 181.746094 608.171875 170.984375 627.898438 171.34375 651.925781 "/>
<path fill-rule="nonzero" fill="rgb(70.196078%, 70.196078%, 70.196078%)" fill-opacity="1" d="M 171.453125 659.058594 L 169.027344 651.960938 L 173.664062 651.890625 L 171.453125 659.058594 "/>
<path fill="none" stroke-width="5.5" stroke-linecap="butt" stroke-linejoin="miter" stroke="rgb(70.196078%, 70.196078%, 70.196078%)" stroke-opacity="1" stroke-miterlimit="10" d="M 172.964844 494.371094 C 166.394531 527.910156 172.605469 558.976562 194.222656 585.421875 "/>
<path fill-rule="nonzero" fill="rgb(70.196078%, 70.196078%, 70.196078%)" fill-opacity="1" d="M 198.738281 590.945312 L 192.429688 586.890625 L 196.015625 583.957031 L 198.738281 590.945312 "/>
<path fill="none" stroke-width="5.5" stroke-linecap="butt" stroke-linejoin="miter" stroke="rgb(70.196078%, 70.196078%, 70.196078%)" stroke-opacity="1" stroke-miterlimit="10" d="M 750 303.007812 C 754.296875 281.832031 750.804688 261.890625 736.941406 245.359375 "/>
<path fill-rule="nonzero" fill="rgb(70.196078%, 70.196078%, 70.196078%)" fill-opacity="1" d="M 732.359375 239.890625 L 738.71875 243.867188 L 735.167969 246.847656 L 732.359375 239.890625 "/>
<path fill="none" stroke-width="5.5" stroke-linecap="butt" stroke-linejoin="miter" stroke="rgb(70.196078%, 70.196078%, 70.196078%)" stroke-opacity="1" stroke-miterlimit="10" d="M 730.828125 238.0625 C 736.554688 214.5625 733.417969 192.191406 718.734375 173.003906 "/>
<path fill-rule="nonzero" fill="rgb(70.196078%, 70.196078%, 70.196078%)" fill-opacity="1" d="M 714.398438 167.339844 L 720.574219 171.597656 L 716.890625 174.414062 L 714.398438 167.339844 "/>
<path fill="none" stroke-width="5.5" stroke-linecap="butt" stroke-linejoin="miter" stroke="rgb(70.196078%, 70.196078%, 70.196078%)" stroke-opacity="1" stroke-miterlimit="10" d="M 532.777344 174.035156 C 499.898438 175.25 472.113281 187.882812 452.109375 213.988281 "/>
<path fill-rule="nonzero" fill="rgb(70.196078%, 70.196078%, 70.196078%)" fill-opacity="1" d="M 447.773438 219.648438 L 450.269531 212.578125 L 453.949219 215.394531 L 447.773438 219.648438 "/>
<path fill="none" stroke-width="5.5" stroke-linecap="butt" stroke-linejoin="miter" stroke="rgb(70.196078%, 70.196078%, 70.196078%)" stroke-opacity="1" stroke-miterlimit="10" d="M 591.929688 104.863281 C 564.125 116.421875 544.246094 136.113281 535.535156 164.917969 "/>
<path fill-rule="nonzero" fill="rgb(70.196078%, 70.196078%, 70.196078%)" fill-opacity="1" d="M 533.472656 171.746094 L 533.316406 164.246094 L 537.753906 165.589844 L 533.472656 171.746094 "/>
<path fill="none" stroke-width="5.5" stroke-linecap="butt" stroke-linejoin="miter" stroke="rgb(70.196078%, 70.196078%, 70.196078%)" stroke-opacity="1" stroke-miterlimit="10" d="M 174.128906 133.214844 C 165.015625 112.5625 150.003906 97.707031 128.214844 91.921875 "/>
<path fill-rule="nonzero" fill="rgb(70.196078%, 70.196078%, 70.196078%)" fill-opacity="1" d="M 121.320312 90.089844 L 128.808594 89.679688 L 127.617188 94.160156 L 121.320312 90.089844 "/>
<path fill="none" stroke-width="5.5" stroke-linecap="butt" stroke-linejoin="miter" stroke="rgb(70.196078%, 70.196078%, 70.196078%)" stroke-opacity="1" stroke-miterlimit="10" d="M 232.695312 184.503906 C 223.460938 160.941406 207.304688 143.730469 183.203125 136.089844 "/>
<path fill-rule="nonzero" fill="rgb(70.196078%, 70.196078%, 70.196078%)" fill-opacity="1" d="M 176.402344 133.9375 L 183.902344 133.882812 L 182.503906 138.300781 L 176.402344 133.9375 "/>
<path fill="none" stroke-width="5.5" stroke-linecap="butt" stroke-linejoin="miter" stroke="rgb(70.196078%, 70.196078%, 70.196078%)" stroke-opacity="1" stroke-miterlimit="10" d="M 119.015625 89.476562 C 99.261719 87.804688 81.386719 93.039062 67.859375 107.484375 "/>
<path fill-rule="nonzero" fill="rgb(70.196078%, 70.196078%, 70.196078%)" fill-opacity="1" d="M 62.984375 112.691406 L 66.167969 105.898438 L 69.550781 109.070312 L 62.984375 112.691406 "/>
<path fill="none" stroke-width="5.5" stroke-linecap="butt" stroke-linejoin="miter" stroke="rgb(70.196078%, 70.196078%, 70.196078%)" stroke-opacity="1" stroke-miterlimit="10" d="M 314.207031 222.292969 C 295.847656 198.964844 271.875 185.304688 242.214844 184.695312 "/>
<path fill-rule="nonzero" fill="rgb(70.196078%, 70.196078%, 70.196078%)" fill-opacity="1" d="M 235.085938 184.550781 L 242.261719 182.378906 L 242.167969 187.015625 L 235.085938 184.550781 "/>
<path fill="none" stroke-width="5.5" stroke-linecap="butt" stroke-linejoin="miter" stroke="rgb(70.196078%, 70.196078%, 70.196078%)" stroke-opacity="1" stroke-miterlimit="10" d="M 61.351562 114.429688 C 45.289062 137.664062 39.542969 163.308594 47.363281 190.425781 "/>
<path fill-rule="nonzero" fill="rgb(70.196078%, 70.196078%, 70.196078%)" fill-opacity="1" d="M 49.339844 197.28125 L 45.136719 191.070312 L 49.589844 189.785156 L 49.339844 197.28125 "/>
<path fill="none" stroke-width="5.5" stroke-linecap="butt" stroke-linejoin="miter" stroke="rgb(70.196078%, 70.196078%, 70.196078%)" stroke-opacity="1" stroke-miterlimit="10" d="M 646.316406 50 C 622.433594 57.683594 604.398438 72.605469 595.363281 95.980469 "/>
<path fill-rule="nonzero" fill="rgb(70.196078%, 70.196078%, 70.196078%)" fill-opacity="1" d="M 592.792969 102.636719 L 593.203125 95.148438 L 597.523438 96.816406 L 592.792969 102.636719 "/>
<path fill="none" stroke-width="5.5" stroke-linecap="butt" stroke-linejoin="miter" stroke="rgb(70.196078%, 70.196078%, 70.196078%)" stroke-opacity="1" stroke-miterlimit="10" d="M 691.914062 93.601562 C 685.738281 74.664062 673.902344 60.171875 655.246094 53.292969 "/>
<path fill-rule="nonzero" fill="rgb(70.196078%, 70.196078%, 70.196078%)" fill-opacity="1" d="M 648.554688 50.824219 L 656.046875 51.117188 L 654.445312 55.46875 L 648.554688 50.824219 "/>
<path fill="none" stroke-width="5.5" stroke-linecap="butt" stroke-linejoin="miter" stroke="rgb(70.196078%, 70.196078%, 70.196078%)" stroke-opacity="1" stroke-miterlimit="10" d="M 712.945312 165.445312 C 717.652344 141.691406 713.542969 119.453125 698.023438 100.902344 "/>
<path fill-rule="nonzero" fill="rgb(70.196078%, 70.196078%, 70.196078%)" fill-opacity="1" d="M 693.445312 95.429688 L 699.800781 99.414062 L 696.246094 102.390625 L 693.445312 95.429688 "/>
<path fill-rule="nonzero" fill="rgb(14.901961%, 14.901961%, 14.901961%)" fill-opacity="1" stroke-width="1" stroke-linecap="butt" stroke-linejoin="miter" stroke="rgb(14.901961%, 14.901961%, 14.901961%)" stroke-opacity="1" stroke-miterlimit="10" d="M 519.605469 678.246094 L 522.105469 673.246094 L 524.605469 678.246094 Z M 519.605469 678.246094 "/>
<path fill-rule="nonzero" fill="rgb(70.196078%, 70.196078%, 70.196078%)" fill-opacity="1" stroke-width="1" stroke-linecap="butt" stroke-linejoin="miter" stroke="rgb(70.196078%, 70.196078%, 70.196078%)" stroke-opacity="1" stroke-miterlimit="10" d="M 500.734375 566.214844 C 500.734375 569.546875 495.734375 569.546875 495.734375 566.214844 C 495.734375 562.878906 500.734375 562.878906 500.734375 566.214844 "/>
<path fill-rule="nonzero" fill="rgb(12.156863%, 47.058824%, 70.588235%)" fill-opacity="1" stroke-width="1" stroke-linecap="butt" stroke-linejoin="miter" stroke="rgb(12.156863%, 47.058824%, 70.588235%)" stroke-opacity="1" stroke-miterlimit="10" d="M 520.652344 516.351562 C 520.652344 517.351562 519.152344 517.351562 519.152344 516.351562 C 519.152344 515.351562 520.652344 515.351562 520.652344 516.351562 "/>
<path fill-rule="nonzero" fill="rgb(12.156863%, 47.058824%, 70.588235%)" fill-opacity="1" stroke-width="1" stroke-linecap="butt" stroke-linejoin="miter" stroke="rgb(12.156863%, 47.058824%, 70.588235%)" stroke-opacity="1" stroke-miterlimit="10" d="M 557.828125 737.445312 C 557.828125 738.445312 556.328125 738.445312 556.328125 737.445312 C 556.328125 736.445312 557.828125 736.445312 557.828125 737.445312 "/>
<path fill-rule="nonzero" fill="rgb(70.196078%, 70.196078%, 70.196078%)" fill-opacity="1" stroke-width="1" stroke-linecap="butt" stroke-linejoin="miter" stroke="rgb(70.196078%, 70.196078%, 70.196078%)" stroke-opacity="1" stroke-miterlimit="10" d="M 446.652344 456.359375 C 446.652344 459.695312 441.652344 459.695312 441.652344 456.359375 C 441.652344 453.027344 446.652344 453.027344 446.652344 456.359375 "/>
<path fill-rule="nonzero" fill="rgb(70.196078%, 70.196078%, 70.196078%)" fill-opacity="1" stroke-width="1" stroke-linecap="butt" stroke-linejoin="miter" stroke="rgb(70.196078%, 70.196078%, 70.196078%)" stroke-opacity="1" stroke-miterlimit="10" d="M 558.363281 628.074219 C 558.363281 631.410156 553.363281 631.410156 553.363281 628.074219 C 553.363281 624.742188 558.363281 624.742188 558.363281 628.074219 "/>
<path fill-rule="nonzero" fill="rgb(70.196078%, 70.196078%, 70.196078%)" fill-opacity="1" stroke-width="1" stroke-linecap="butt" stroke-linejoin="miter" stroke="rgb(70.196078%, 70.196078%, 70.196078%)" stroke-opacity="1" stroke-miterlimit="10" d="M 407.984375 360.347656 C 407.984375 363.683594 402.984375 363.683594 402.984375 360.347656 C 402.984375 357.015625 407.984375 357.015625 407.984375 360.347656 "/>
<path fill-rule="nonzero" fill="rgb(70.196078%, 70.196078%, 70.196078%)" fill-opacity="1" stroke-width="1" stroke-linecap="butt" stroke-linejoin="miter" stroke="rgb(70.196078%, 70.196078%, 70.196078%)" stroke-opacity="1" stroke-miterlimit="10" d="M 375.234375 262.773438 C 375.234375 266.109375 370.234375 266.109375 370.234375 262.773438 C 370.234375 259.441406 375.234375 259.441406 375.234375 262.773438 "/>
<path fill-rule="nonzero" fill="rgb(70.196078%, 70.196078%, 70.196078%)" fill-opacity="1" stroke-width="1" stroke-linecap="butt" stroke-linejoin="miter" stroke="rgb(70.196078%, 70.196078%, 70.196078%)" stroke-opacity="1" stroke-miterlimit="10" d="M 510.332031 750 C 510.332031 753.332031 505.332031 753.332031 505.332031 750 C 505.332031 746.667969 510.332031 746.667969 510.332031 750 "/>
<path fill-rule="nonzero" fill="rgb(12.156863%, 47.058824%, 70.588235%)" fill-opacity="1" stroke-width="1" stroke-linecap="butt" stroke-linejoin="miter" stroke="rgb(12.156863%, 47.058824%, 70.588235%)" stroke-opacity="1" stroke-miterlimit="10" d="M 584.421875 682.582031 C 584.421875 683.582031 582.921875 683.582031 582.921875 682.582031 C 582.921875 681.582031 584.421875 681.582031 584.421875 682.582031 "/>
<path fill-rule="nonzero" fill="rgb(70.196078%, 70.196078%, 70.196078%)" fill-opacity="1" stroke-width="1" stroke-linecap="butt" stroke-linejoin="miter" stroke="rgb(70.196078%, 70.196078%, 70.196078%)" stroke-opacity="1" stroke-miterlimit="10" d="M 482.386719 647.324219 C 482.386719 650.660156 477.386719 650.660156 477.386719 647.324219 C 477.386719 643.992188 482.386719 643.992188 482.386719 647.324219 "/>
<path fill-rule="nonzero" fill="rgb(70.196078%, 70.196078%, 70.196078%)" fill-opacity="1" stroke-width="1" stroke-linecap="butt" stroke-linejoin="miter" stroke="rgb(70.196078%, 70.196078%, 70.196078%)" stroke-opacity="1" stroke-miterlimit="10" d="M 336.601562 153.316406 C 336.601562 156.648438 331.601562 156.648438 331.601562 153.316406 C 331.601562 149.984375 336.601562 149.984375 336.601562 153.316406 "/>
<path fill-rule="nonzero" fill="rgb(70.196078%, 70.196078%, 70.196078%)" fill-opacity="1" stroke-width="1" stroke-linecap="butt" stroke-linejoin="miter" stroke="rgb(70.196078%, 70.196078%, 70.196078%)" stroke-opacity="1" stroke-miterlimit="10" d="M 376.160156 166.039062 C 376.160156 169.371094 371.160156 169.371094 371.160156 166.039062 C 371.160156 162.707031 376.160156 162.707031 376.160156 166.039062 "/>
<path fill-rule="nonzero" fill="rgb(70.196078%, 70.196078%, 70.196078%)" fill-opacity="1" stroke-width="1" stroke-linecap="butt" stroke-linejoin="miter" stroke="rgb(70.196078%, 70.196078%, 70.196078%)" stroke-opacity="1" stroke-miterlimit="10" d="M 283.667969 317.164062 C 283.667969 320.496094 278.667969 320.496094 278.667969 317.164062 C 278.667969 313.832031 283.667969 313.832031 283.667969 317.164062 "/>
<path fill-rule="nonzero" fill="rgb(12.156863%, 47.058824%, 70.588235%)" fill-opacity="1" stroke-width="1" stroke-linecap="butt" stroke-linejoin="miter" stroke="rgb(12.156863%, 47.058824%, 70.588235%)" stroke-opacity="1" stroke-miterlimit="10" d="M 401.671875 77.988281 C 401.671875 78.988281 400.171875 78.988281 400.171875 77.988281 C 400.171875 76.988281 401.671875 76.988281 401.671875 77.988281 "/>
<path fill-rule="nonzero" fill="rgb(12.156863%, 47.058824%, 70.588235%)" fill-opacity="1" stroke-width="1" stroke-linecap="butt" stroke-linejoin="miter" stroke="rgb(12.156863%, 47.058824%, 70.588235%)" stroke-opacity="1" stroke-miterlimit="10" d="M 429.601562 121.476562 C 429.601562 122.476562 428.101562 122.476562 428.101562 121.476562 C 428.101562 120.476562 429.601562 120.476562 429.601562 121.476562 "/>
<path fill-rule="nonzero" fill="rgb(12.156863%, 47.058824%, 70.588235%)" fill-opacity="1" stroke-width="1" stroke-linecap="butt" stroke-linejoin="miter" stroke="rgb(12.156863%, 47.058824%, 70.588235%)" stroke-opacity="1" stroke-miterlimit="10" d="M 468.257812 710.28125 C 468.257812 711.28125 466.757812 711.28125 466.757812 710.28125 C 466.757812 709.28125 468.257812 709.28125 468.257812 710.28125 "/>
<path fill-rule="nonzero" fill="rgb(70.196078%, 70.196078%, 70.196078%)" fill-opacity="1" stroke-width="1" stroke-linecap="butt" stroke-linejoin="miter" stroke="rgb(70.196078%, 70.196078%, 70.196078%)" stroke-opacity="1" stroke-miterlimit="10" d="M 212.933594 422.5 C 212.933594 425.835938 207.933594 425.835938 207.933594 422.5 C 207.933594 419.167969 212.933594 419.167969 212.933594 422.5 "/>
<path fill-rule="nonzero" fill="rgb(70.196078%, 70.196078%, 70.196078%)" fill-opacity="1" stroke-width="1" stroke-linecap="butt" stroke-linejoin="miter" stroke="rgb(70.196078%, 70.196078%, 70.196078%)" stroke-opacity="1" stroke-miterlimit="10" d="M 135.1875 534.308594 C 135.1875 537.644531 130.1875 537.644531 130.1875 534.308594 C 130.1875 530.976562 135.1875 530.976562 135.1875 534.308594 "/>
<path fill-rule="nonzero" fill="rgb(70.196078%, 70.196078%, 70.196078%)" fill-opacity="1" stroke-width="1" stroke-linecap="butt" stroke-linejoin="miter" stroke="rgb(70.196078%, 70.196078%, 70.196078%)" stroke-opacity="1" stroke-miterlimit="10" d="M 448.820312 221.546875 C 448.820312 224.878906 443.820312 224.878906 443.820312 221.546875 C 443.820312 218.210938 448.820312 218.210938 448.820312 221.546875 "/>
<path fill-rule="nonzero" fill="rgb(70.196078%, 70.196078%, 70.196078%)" fill-opacity="1" stroke-width="1" stroke-linecap="butt" stroke-linejoin="miter" stroke="rgb(70.196078%, 70.196078%, 70.196078%)" stroke-opacity="1" stroke-miterlimit="10" d="M 75.558594 295.234375 C 75.558594 298.566406 70.558594 298.566406 70.558594 295.234375 C 70.558594 291.898438 75.558594 291.898438 75.558594 295.234375 "/>
<path fill-rule="nonzero" fill="rgb(70.196078%, 70.196078%, 70.196078%)" fill-opacity="1" stroke-width="1" stroke-linecap="butt" stroke-linejoin="miter" stroke="rgb(70.196078%, 70.196078%, 70.196078%)" stroke-opacity="1" stroke-miterlimit="10" d="M 52.5 199.578125 C 52.5 202.910156 47.5 202.910156 47.5 199.578125 C 47.5 196.242188 52.5 196.242188 52.5 199.578125 "/>
<path fill-rule="nonzero" fill="rgb(70.196078%, 70.196078%, 70.196078%)" fill-opacity="1" stroke-width="1" stroke-linecap="butt" stroke-linejoin="miter" stroke="rgb(70.196078%, 70.196078%, 70.196078%)" stroke-opacity="1" stroke-miterlimit="10" d="M 116.628906 393.207031 C 116.628906 396.542969 111.628906 396.542969 111.628906 393.207031 C 111.628906 389.875 116.628906 389.875 116.628906 393.207031 "/>
<path fill-rule="nonzero" fill="rgb(70.196078%, 70.196078%, 70.196078%)" fill-opacity="1" stroke-width="1" stroke-linecap="butt" stroke-linejoin="miter" stroke="rgb(70.196078%, 70.196078%, 70.196078%)" stroke-opacity="1" stroke-miterlimit="10" d="M 124.667969 623.617188 C 124.667969 626.949219 119.667969 626.949219 119.667969 623.617188 C 119.667969 620.285156 124.667969 620.285156 124.667969 623.617188 "/>
<path fill-rule="nonzero" fill="rgb(70.196078%, 70.196078%, 70.196078%)" fill-opacity="1" stroke-width="1" stroke-linecap="butt" stroke-linejoin="miter" stroke="rgb(70.196078%, 70.196078%, 70.196078%)" stroke-opacity="1" stroke-miterlimit="10" d="M 173.988281 661.445312 C 173.988281 664.777344 168.988281 664.777344 168.988281 661.445312 C 168.988281 658.109375 173.988281 658.109375 173.988281 661.445312 "/>
<path fill-rule="nonzero" fill="rgb(70.196078%, 70.196078%, 70.196078%)" fill-opacity="1" stroke-width="1" stroke-linecap="butt" stroke-linejoin="miter" stroke="rgb(70.196078%, 70.196078%, 70.196078%)" stroke-opacity="1" stroke-miterlimit="10" d="M 202.75 592.796875 C 202.75 596.128906 197.75 596.128906 197.75 592.796875 C 197.75 589.464844 202.75 589.464844 202.75 592.796875 "/>
<path fill-rule="nonzero" fill="rgb(70.196078%, 70.196078%, 70.196078%)" fill-opacity="1" stroke-width="1" stroke-linecap="butt" stroke-linejoin="miter" stroke="rgb(70.196078%, 70.196078%, 70.196078%)" stroke-opacity="1" stroke-miterlimit="10" d="M 175.464844 494.371094 C 175.464844 497.703125 170.464844 497.703125 170.464844 494.371094 C 170.464844 491.039062 175.464844 491.039062 175.464844 494.371094 "/>
<path fill-rule="nonzero" fill="rgb(100%, 84.313725%, 0%)" fill-opacity="1" stroke-width="1" stroke-linecap="butt" stroke-linejoin="miter" stroke="rgb(100%, 84.313725%, 0%)" stroke-opacity="1" stroke-miterlimit="10" d="M 747.5 300.507812 L 752.5 300.507812 L 752.5 305.507812 L 747.5 305.507812 Z M 747.5 300.507812 "/>
<path fill-rule="nonzero" fill="rgb(70.196078%, 70.196078%, 70.196078%)" fill-opacity="1" stroke-width="1" stroke-linecap="butt" stroke-linejoin="miter" stroke="rgb(70.196078%, 70.196078%, 70.196078%)" stroke-opacity="1" stroke-miterlimit="10" d="M 733.328125 238.0625 C 733.328125 241.398438 728.328125 241.398438 728.328125 238.0625 C 728.328125 234.730469 733.328125 234.730469 733.328125 238.0625 "/>
<path fill-rule="nonzero" fill="rgb(70.196078%, 70.196078%, 70.196078%)" fill-opacity="1" stroke-width="1" stroke-linecap="butt" stroke-linejoin="miter" stroke="rgb(70.196078%, 70.196078%, 70.196078%)" stroke-opacity="1" stroke-miterlimit="10" d="M 535.277344 174.035156 C 535.277344 177.367188 530.277344 177.367188 530.277344 174.035156 C 530.277344 170.699219 535.277344 170.699219 535.277344 174.035156 "/>
<path fill-rule="nonzero" fill="rgb(70.196078%, 70.196078%, 70.196078%)" fill-opacity="1" stroke-width="1" stroke-linecap="butt" stroke-linejoin="miter" stroke="rgb(70.196078%, 70.196078%, 70.196078%)" stroke-opacity="1" stroke-miterlimit="10" d="M 594.429688 104.863281 C 594.429688 108.195312 589.429688 108.195312 589.429688 104.863281 C 589.429688 101.527344 594.429688 101.527344 594.429688 104.863281 "/>
<path fill-rule="nonzero" fill="rgb(70.196078%, 70.196078%, 70.196078%)" fill-opacity="1" stroke-width="1" stroke-linecap="butt" stroke-linejoin="miter" stroke="rgb(70.196078%, 70.196078%, 70.196078%)" stroke-opacity="1" stroke-miterlimit="10" d="M 176.628906 133.214844 C 176.628906 136.546875 171.628906 136.546875 171.628906 133.214844 C 171.628906 129.882812 176.628906 129.882812 176.628906 133.214844 "/>
<path fill-rule="nonzero" fill="rgb(70.196078%, 70.196078%, 70.196078%)" fill-opacity="1" stroke-width="1" stroke-linecap="butt" stroke-linejoin="miter" stroke="rgb(70.196078%, 70.196078%, 70.196078%)" stroke-opacity="1" stroke-miterlimit="10" d="M 235.195312 184.503906 C 235.195312 187.835938 230.195312 187.835938 230.195312 184.503906 C 230.195312 181.167969 235.195312 181.167969 235.195312 184.503906 "/>
<path fill-rule="nonzero" fill="rgb(70.196078%, 70.196078%, 70.196078%)" fill-opacity="1" stroke-width="1" stroke-linecap="butt" stroke-linejoin="miter" stroke="rgb(70.196078%, 70.196078%, 70.196078%)" stroke-opacity="1" stroke-miterlimit="10" d="M 121.515625 89.476562 C 121.515625 92.808594 116.515625 92.808594 116.515625 89.476562 C 116.515625 86.144531 121.515625 86.144531 121.515625 89.476562 "/>
<path fill-rule="nonzero" fill="rgb(70.196078%, 70.196078%, 70.196078%)" fill-opacity="1" stroke-width="1" stroke-linecap="butt" stroke-linejoin="miter" stroke="rgb(70.196078%, 70.196078%, 70.196078%)" stroke-opacity="1" stroke-miterlimit="10" d="M 316.707031 222.292969 C 316.707031 225.628906 311.707031 225.628906 311.707031 222.292969 C 311.707031 218.960938 316.707031 218.960938 316.707031 222.292969 "/>
<path fill-rule="nonzero" fill="rgb(70.196078%, 70.196078%, 70.196078%)" fill-opacity="1" stroke-width="1" stroke-linecap="butt" stroke-linejoin="miter" stroke="rgb(70.196078%, 70.196078%, 70.196078%)" stroke-opacity="1" stroke-miterlimit="10" d="M 63.851562 114.429688 C 63.851562 117.765625 58.851562 117.765625 58.851562 114.429688 C 58.851562 111.097656 63.851562 111.097656 63.851562 114.429688 "/>
<path fill-rule="nonzero" fill="rgb(70.196078%, 70.196078%, 70.196078%)" fill-opacity="1" stroke-width="1" stroke-linecap="butt" stroke-linejoin="miter" stroke="rgb(70.196078%, 70.196078%, 70.196078%)" stroke-opacity="1" stroke-miterlimit="10" d="M 648.816406 50 C 648.816406 53.332031 643.816406 53.332031 643.816406 50 C 643.816406 46.667969 648.816406 46.667969 648.816406 50 "/>
<path fill-rule="nonzero" fill="rgb(70.196078%, 70.196078%, 70.196078%)" fill-opacity="1" stroke-width="1" stroke-linecap="butt" stroke-linejoin="miter" stroke="rgb(70.196078%, 70.196078%, 70.196078%)" stroke-opacity="1" stroke-miterlimit="10" d="M 694.414062 93.601562 C 694.414062 96.933594 689.414062 96.933594 689.414062 93.601562 C 689.414062 90.265625 694.414062 90.265625 694.414062 93.601562 "/>
<path fill-rule="nonzero" fill="rgb(70.196078%, 70.196078%, 70.196078%)" fill-opacity="1" stroke-width="1" stroke-linecap="butt" stroke-linejoin="miter" stroke="rgb(70.196078%, 70.196078%, 70.196078%)" stroke-opacity="1" stroke-miterlimit="10" d="M 715.445312 165.445312 C 715.445312 168.777344 710.445312 168.777344 710.445312 165.445312 C 710.445312 162.113281 715.445312 162.113281 715.445312 165.445312 "/>
</svg>
