<?xml version="1.0" encoding="UTF-8"?>
<svg xmlns="http://www.w3.org/2000/svg" xmlns:xlink="http://www.w3.org/1999/xlink" width="800" height="800" viewBox="0 0 800 800">
<rect x="-80" y="-80" width="960" height="960" fill="rgb(100%, 100%, 100%)" fill-opacity="1"/>
<path fill="none" stroke-width="2.5" stroke-linecap="butt" stroke-linejoin="miter" stroke="rgb(70.196078%, 70.196078%, 70.196078%)" stroke-opacity="1" stroke-miterlimit="10" d="M 302.386719 490.921875 C 278.429688 497.75 259.976562 511.9375 250.28125 534.859375 "/>
<path fill-rule="nonzero" fill="rgb(70.196078%, 70.196078%, 70.196078%)" fill-opacity="1" d="M 247.503906 541.425781 L 248.148438 533.953125 L 252.417969 535.761719 L 247.503906 541.425781 "/>
<path fill="none" stroke-width="2.5" stroke-linecap="butt" stroke-linejoin="miter" stroke="rgb(70.196078%, 70.196078%, 70.196078%)" stroke-opacity="1" stroke-miterlimit="10" d="M 553.355469 187.109375 C 571.207031 240.9375 605.753906 280.113281 658.324219 301.351562 "/>
<path fill-rule="nonzero" fill="rgb(70.196078%, 70.196078%, 70.196078%)" fill-opacity="1" d="M 664.9375 304.023438 L 657.453125 303.5 L 659.191406 299.203125 L 664.9375 304.023438 "/>
<path fill="none" stroke-width="2.5" stroke-linecap="butt" stroke-linejoin="miter" stroke="rgb(70.196078%, 70.196078%, 70.196078%)" stroke-opacity="1" stroke-miterlimit="10" d="M 731.691406 445.382812 C 714.191406 473.65625 709.105469 504.097656 719.78125 535.566406 "/>
<path fill-rule="nonzero" fill="rgb(70.196078%, 70.196078%, 70.196078%)" fill-opacity="1" d="M 722.070312 542.324219 L 717.585938 536.3125 L 721.976562 534.824219 L 722.070312 542.324219 "/>
<path fill="none" stroke-width="2.5" stroke-linecap="butt" stroke-linejoin="miter" stroke="rgb(70.196078%, 70.196078%, 70.196078%)" stroke-opacity="1" stroke-miterlimit="10" d="M 723.554688 546.699219 C 702.152344 569.964844 691.890625 597.484375 696.277344 628.769531 "/>
<path fill-rule="nonzero" fill="rgb(70.196078%, 70.196078%, 70.196078%)" fill-opacity="1" d="M 697.265625 635.832031 L 693.980469 629.089844 L 698.570312 628.449219 L 697.265625 635.832031 "/>
<path fill="none" stroke-width="2.5" stroke-linecap="butt" stroke-linejoin="miter" stroke="rgb(70.196078%, 70.196078%, 70.196078%)" stroke-opacity="1" stroke-miterlimit="10" d="M 174.476562 550.214844 C 164.9375 529.117188 149.40625 514.007812 127.003906 508.292969 "/>
<path fill-rule="nonzero" fill="rgb(70.196078%, 70.196078%, 70.196078%)" fill-opacity="1" d="M 120.089844 506.53125 L 127.574219 506.046875 L 126.429688 510.539062 L 120.089844 506.53125 "/>
<path fill="none" stroke-width="1.5" stroke-linecap="butt" stroke-linejoin="miter" stroke="rgb(99.215686%, 74.901961%, 43.529412%)" stroke-opacity="1" stroke-miterlimit="10" d="M 379.917969 55.527344 C 380.617188 80.640625 389.875 102.207031 409.851562 117.390625 "/>
<path fill-rule="nonzero" fill="rgb(99.215686%, 74.901961%, 43.529412%)" fill-opacity="1" d="M 415.53125 121.710938 L 408.449219 119.238281 L 411.253906 115.546875 L 415.53125 121.710938 "/>
<path fill="none" stroke-width="1.5" stroke-linecap="butt" stroke-linejoin="miter" stroke="rgb(12.156863%, 47.058824%, 70.588235%)" stroke-opacity="1" stroke-miterlimit="10" d="M 621.730469 235.925781 C 653.449219 219.304688 674.746094 193.855469 682.199219 158.847656 "/>
<path fill-rule="nonzero" fill="rgb(12.156863%, 47.058824%, 70.588235%)" fill-opacity="1" d="M 683.6875 151.871094 L 684.46875 159.328125 L 679.933594 158.363281 L 683.6875 151.871094 "/>
<path fill="none" stroke-width="1.5" stroke-linecap="butt" stroke-linejoin="miter" stroke="rgb(99.215686%, 74.901961%, 43.529412%)" stroke-opacity="1" stroke-miterlimit="10" d="M 711.140625 714.441406 C 692.84375 715.910156 677.167969 723.320312 667.144531 738.648438 "/>
<path fill-rule="nonzero" fill="rgb(99.215686%, 74.901961%, 43.529412%)" fill-opacity="1" d="M 663.242188 744.621094 L 665.207031 737.382812 L 669.085938 739.917969 L 663.242188 744.621094 "/>
<path fill="none" stroke-width="2.5" stroke-linecap="butt" stroke-linejoin="miter" stroke="rgb(70.196078%, 70.196078%, 70.196078%)" stroke-opacity="1" stroke-miterlimit="10" d="M 269.960938 284.613281 C 283.324219 297.980469 299.585938 305.273438 318.304688 302.957031 "/>
<path fill-rule="nonzero" fill="rgb(70.196078%, 70.196078%, 70.196078%)" fill-opacity="1" d="M 325.382812 302.078125 L 318.589844 305.253906 L 318.019531 300.65625 L 325.382812 302.078125 "/>
<path fill="none" stroke-width="2.5" stroke-linecap="butt" stroke-linejoin="miter" stroke="rgb(70.196078%, 70.196078%, 70.196078%)" stroke-opacity="1" stroke-miterlimit="10" d="M 59.125 364.101562 C 66.558594 345.320312 66.75 326.316406 56.585938 308.902344 "/>
<path fill-rule="nonzero" fill="rgb(70.196078%, 70.196078%, 70.196078%)" fill-opacity="1" d="M 52.992188 302.738281 L 58.585938 307.734375 L 54.585938 310.070312 L 52.992188 302.738281 "/>
<path fill="none" stroke-width="1.5" stroke-linecap="butt" stroke-linejoin="miter" stroke="rgb(12.156863%, 47.058824%, 70.588235%)" stroke-opacity="1" stroke-miterlimit="10" d="M 495.785156 390.105469 C 523.3125 379.5625 543.335938 360.851562 552.625 332.898438 "/>
<path fill-rule="nonzero" fill="rgb(12.156863%, 47.058824%, 70.588235%)" fill-opacity="1" d="M 554.875 326.128906 L 554.824219 333.628906 L 550.425781 332.164062 L 554.875 326.128906 "/>
<path fill="none" stroke-width="1.5" stroke-linecap="butt" stroke-linejoin="miter" stroke="rgb(12.156863%, 47.058824%, 70.588235%)" stroke-opacity="1" stroke-miterlimit="10" d="M 684.53125 147.90625 C 698.015625 126.636719 702.339844 103.542969 694.292969 79.707031 "/>
<path fill-rule="nonzero" fill="rgb(12.156863%, 47.058824%, 70.588235%)" fill-opacity="1" d="M 692.007812 72.949219 L 696.488281 78.964844 L 692.097656 80.449219 L 692.007812 72.949219 "/>
<path fill="none" stroke-width="1.5" stroke-linecap="butt" stroke-linejoin="miter" stroke="rgb(12.156863%, 47.058824%, 70.588235%)" stroke-opacity="1" stroke-miterlimit="10" d="M 747.980469 50 C 738.835938 68.414062 737.101562 87.632812 745.84375 106.207031 "/>
<path fill-rule="nonzero" fill="rgb(12.156863%, 47.058824%, 70.588235%)" fill-opacity="1" d="M 748.882812 112.660156 L 743.746094 107.195312 L 747.941406 105.21875 L 748.882812 112.660156 "/>
<path fill="none" stroke-width="1.5" stroke-linecap="butt" stroke-linejoin="miter" stroke="rgb(99.215686%, 74.901961%, 43.529412%)" stroke-opacity="1" stroke-miterlimit="10" d="M 743.40625 360.890625 C 727.53125 382.886719 721.417969 407.429688 728.496094 433.585938 "/>
<path fill-rule="nonzero" fill="rgb(99.215686%, 74.901961%, 43.529412%)" fill-opacity="1" d="M 730.363281 440.472656 L 726.261719 434.191406 L 730.734375 432.980469 L 730.363281 440.472656 "/>
<path fill="none" stroke-width="2.5" stroke-linecap="butt" stroke-linejoin="miter" stroke="rgb(70.196078%, 70.196078%, 70.196078%)" stroke-opacity="1" stroke-miterlimit="10" d="M 115.625 505.390625 C 115.550781 481.035156 107.109375 459.886719 88.101562 444.707031 "/>
<path fill-rule="nonzero" fill="rgb(70.196078%, 70.196078%, 70.196078%)" fill-opacity="1" d="M 82.527344 440.257812 L 89.546875 442.898438 L 86.65625 446.519531 L 82.527344 440.257812 "/>
<path fill="none" stroke-width="1.5" stroke-linecap="butt" stroke-linejoin="miter" stroke="rgb(30.196078%, 68.627451%, 29.019608%)" stroke-opacity="1" stroke-miterlimit="10" d="M 642.742188 688.546875 C 638.035156 706.757812 639.980469 724.398438 651.441406 739.261719 "/>
<path fill-rule="nonzero" fill="rgb(30.196078%, 68.627451%, 29.019608%)" fill-opacity="1" d="M 655.796875 744.910156 L 649.605469 740.675781 L 653.277344 737.84375 L 655.796875 744.910156 "/>
<path fill="none" stroke-width="2.5" stroke-linecap="butt" stroke-linejoin="miter" stroke="rgb(70.196078%, 70.196078%, 70.196078%)" stroke-opacity="1" stroke-miterlimit="10" d="M 78.921875 437.378906 C 84.347656 414.152344 81.089844 392.078125 66.375 373.339844 "/>
<path fill-rule="nonzero" fill="rgb(70.196078%, 70.196078%, 70.196078%)" fill-opacity="1" d="M 61.972656 367.726562 L 68.199219 371.90625 L 64.554688 374.769531 L 61.972656 367.726562 "/>
<path fill="none" stroke-width="1.5" stroke-linecap="butt" stroke-linejoin="miter" stroke="rgb(12.156863%, 47.058824%, 70.588235%)" stroke-opacity="1" stroke-miterlimit="10" d="M 691.167969 70.460938 C 709.804688 73.320312 727.144531 69.550781 740.867188 56.675781 "/>
<path fill-rule="nonzero" fill="rgb(12.156863%, 47.058824%, 70.588235%)" fill-opacity="1" d="M 746.066406 51.792969 L 742.453125 58.363281 L 739.28125 54.984375 L 746.066406 51.792969 "/>
<path fill="none" stroke-width="1.5" stroke-linecap="butt" stroke-linejoin="miter" stroke="rgb(99.215686%, 74.901961%, 43.529412%)" stroke-opacity="1" stroke-miterlimit="10" d="M 697.90625 640.410156 C 690.628906 663.550781 692.292969 686.152344 705.730469 706.320312 "/>
<path fill-rule="nonzero" fill="rgb(99.215686%, 74.901961%, 43.529412%)" fill-opacity="1" d="M 709.6875 712.253906 L 703.804688 707.605469 L 707.660156 705.035156 L 709.6875 712.253906 "/>
<path fill="none" stroke-width="1.5" stroke-linecap="butt" stroke-linejoin="miter" stroke="rgb(30.196078%, 68.627451%, 29.019608%)" stroke-opacity="1" stroke-miterlimit="10" d="M 697.90625 640.410156 C 675.015625 645.867188 656.996094 658.492188 646.921875 679.730469 "/>
<path fill-rule="nonzero" fill="rgb(30.196078%, 68.627451%, 29.019608%)" fill-opacity="1" d="M 643.867188 686.175781 L 644.828125 678.738281 L 649.015625 680.726562 L 643.867188 686.175781 "/>
<path fill="none" stroke-width="1.5" stroke-linecap="butt" stroke-linejoin="miter" stroke="rgb(30.196078%, 68.627451%, 29.019608%)" stroke-opacity="1" stroke-miterlimit="10" d="M 687.714844 386.8125 C 690.925781 409.1875 701.363281 427.621094 720.84375 439.027344 "/>
<path fill-rule="nonzero" fill="rgb(30.196078%, 68.627451%, 29.019608%)" fill-opacity="1" d="M 726.996094 442.632812 L 719.671875 441.027344 L 722.015625 437.027344 L 726.996094 442.632812 "/>
<path fill="none" stroke-width="1.5" stroke-linecap="butt" stroke-linejoin="miter" stroke="rgb(12.156863%, 47.058824%, 70.588235%)" stroke-opacity="1" stroke-miterlimit="10" d="M 750 115.03125 C 726.929688 114.40625 706.625 121.769531 691.746094 139.371094 "/>
<path fill-rule="nonzero" fill="rgb(12.156863%, 47.058824%, 70.588235%)" fill-opacity="1" d="M 687.140625 144.816406 L 689.976562 137.875 L 693.515625 140.867188 L 687.140625 144.816406 "/>
<path fill="none" stroke-width="1.5" stroke-linecap="butt" stroke-linejoin="miter" stroke="rgb(12.156863%, 47.058824%, 70.588235%)" stroke-opacity="1" stroke-miterlimit="10" d="M 555.703125 323.636719 C 588.699219 307.136719 611.066406 281.328125 619.496094 245.429688 "/>
<path fill-rule="nonzero" fill="rgb(12.156863%, 47.058824%, 70.588235%)" fill-opacity="1" d="M 621.128906 238.484375 L 621.753906 245.960938 L 617.242188 244.898438 L 621.128906 238.484375 "/>
<path fill="none" stroke-width="1.5" stroke-linecap="butt" stroke-linejoin="miter" stroke="rgb(12.156863%, 47.058824%, 70.588235%)" stroke-opacity="1" stroke-miterlimit="10" d="M 424.6875 421.5625 C 449.824219 423.148438 472.160156 415.824219 489.183594 397.292969 "/>
<path fill-rule="nonzero" fill="rgb(12.156863%, 47.058824%, 70.588235%)" fill-opacity="1" d="M 494.007812 392.039062 L 490.890625 398.859375 L 487.476562 395.722656 L 494.007812 392.039062 "/>
<path fill="none" stroke-width="1.5" stroke-linecap="butt" stroke-linejoin="miter" stroke="rgb(99.215686%, 74.901961%, 43.529412%)" stroke-opacity="1" stroke-miterlimit="10" d="M 669.234375 305.761719 C 682.84375 333.105469 704.144531 351.859375 733.894531 358.703125 "/>
<path fill-rule="nonzero" fill="rgb(99.215686%, 74.901961%, 43.529412%)" fill-opacity="1" d="M 740.84375 360.300781 L 733.375 360.960938 L 734.414062 356.445312 L 740.84375 360.300781 "/>
<path fill="none" stroke-width="1.5" stroke-linecap="butt" stroke-linejoin="miter" stroke="rgb(30.196078%, 68.627451%, 29.019608%)" stroke-opacity="1" stroke-miterlimit="10" d="M 669.234375 305.761719 C 662.480469 332.0625 665.796875 357.136719 681.914062 378.964844 "/>
<path fill-rule="nonzero" fill="rgb(30.196078%, 68.627451%, 29.019608%)" fill-opacity="1" d="M 686.152344 384.703125 L 680.050781 380.339844 L 683.78125 377.585938 L 686.152344 384.703125 "/>
<path fill="none" stroke-width="2.5" stroke-linecap="butt" stroke-linejoin="miter" stroke="rgb(70.196078%, 70.196078%, 70.196078%)" stroke-opacity="1" stroke-miterlimit="10" d="M 347.554688 409 C 322.347656 425.808594 306.503906 449.101562 303.539062 479.226562 "/>
<path fill-rule="nonzero" fill="rgb(70.196078%, 70.196078%, 70.196078%)" fill-opacity="1" d="M 302.839844 486.324219 L 301.230469 479 L 305.84375 479.453125 L 302.839844 486.324219 "/>
<path fill="none" stroke-width="1.5" stroke-linecap="butt" stroke-linejoin="miter" stroke="rgb(12.156863%, 47.058824%, 70.588235%)" stroke-opacity="1" stroke-miterlimit="10" d="M 347.554688 409 C 367.867188 424.144531 390.707031 430.234375 415.230469 423.976562 "/>
<path fill-rule="nonzero" fill="rgb(12.156863%, 47.058824%, 70.588235%)" fill-opacity="1" d="M 422.140625 422.214844 L 415.804688 426.222656 L 414.65625 421.730469 L 422.140625 422.214844 "/>
<path fill="none" stroke-width="1.5" stroke-linecap="butt" stroke-linejoin="miter" stroke="rgb(99.215686%, 74.901961%, 43.529412%)" stroke-opacity="1" stroke-miterlimit="10" d="M 498.351562 107.617188 C 502.285156 138.644531 516.539062 163.980469 543.003906 180.605469 "/>
<path fill-rule="nonzero" fill="rgb(99.215686%, 74.901961%, 43.529412%)" fill-opacity="1" d="M 549.042969 184.402344 L 541.769531 182.570312 L 544.234375 178.644531 L 549.042969 184.402344 "/>
<path fill="none" stroke-width="1.5" stroke-linecap="butt" stroke-linejoin="miter" stroke="rgb(99.215686%, 74.901961%, 43.529412%)" stroke-opacity="1" stroke-miterlimit="10" d="M 419.578125 124.785156 C 444.917969 131.601562 469.203125 128.703125 490.445312 113.335938 "/>
<path fill-rule="nonzero" fill="rgb(99.215686%, 74.901961%, 43.529412%)" fill-opacity="1" d="M 496.222656 109.15625 L 491.804688 115.214844 L 489.085938 111.457031 L 496.222656 109.15625 "/>
<path fill="none" stroke-width="1.5" stroke-linecap="butt" stroke-linejoin="miter" stroke="rgb(30.196078%, 68.627451%, 29.019608%)" stroke-opacity="1" stroke-miterlimit="10" d="M 419.578125 124.785156 C 429.976562 145.925781 446.289062 160.722656 469.257812 165.851562 "/>
<path fill-rule="nonzero" fill="rgb(30.196078%, 68.627451%, 29.019608%)" fill-opacity="1" d="M 476.21875 167.410156 L 468.75 168.113281 L 469.761719 163.589844 L 476.21875 167.410156 "/>
<path fill="none" stroke-width="2.5" stroke-linecap="butt" stroke-linejoin="miter" stroke="rgb(70.196078%, 70.196078%, 70.196078%)" stroke-opacity="1" stroke-miterlimit="10" d="M 245.707031 545.675781 C 225.570312 536.328125 204.800781 535.039062 184.972656 544.960938 "/>
<path fill-rule="nonzero" fill="rgb(70.196078%, 70.196078%, 70.196078%)" fill-opacity="1" d="M 178.59375 548.152344 L 183.9375 542.886719 L 186.011719 547.03125 L 178.59375 548.152344 "/>
<path fill="none" stroke-width="3.5" stroke-linecap="butt" stroke-linejoin="miter" stroke="rgb(70.196078%, 70.196078%, 70.196078%)" stroke-opacity="1" stroke-miterlimit="10" d="M 330.769531 301.410156 C 319.625 335.539062 322.132812 368.714844 341.28125 399.058594 "/>
<path fill-rule="nonzero" fill="rgb(70.196078%, 70.196078%, 70.196078%)" fill-opacity="1" d="M 345.085938 405.089844 L 339.320312 400.296875 L 343.242188 397.820312 L 345.085938 405.089844 "/>
<path fill="none" stroke-width="1.5" stroke-linecap="butt" stroke-linejoin="miter" stroke="rgb(30.196078%, 68.627451%, 29.019608%)" stroke-opacity="1" stroke-miterlimit="10" d="M 361.695312 204.429688 C 390.242188 190.132812 409.792969 167.820312 416.867188 136.707031 "/>
<path fill-rule="nonzero" fill="rgb(30.196078%, 68.627451%, 29.019608%)" fill-opacity="1" d="M 418.449219 129.753906 L 419.125 137.222656 L 414.605469 136.195312 L 418.449219 129.753906 "/>
<path fill="none" stroke-width="1.5" stroke-linecap="butt" stroke-linejoin="miter" stroke="rgb(12.156863%, 47.058824%, 70.588235%)" stroke-opacity="1" stroke-miterlimit="10" d="M 361.695312 204.429688 C 338.269531 227.882812 326.386719 256.269531 329.585938 289.242188 "/>
<path fill-rule="nonzero" fill="rgb(12.156863%, 47.058824%, 70.588235%)" fill-opacity="1" d="M 330.277344 296.339844 L 327.28125 289.464844 L 331.894531 289.015625 L 330.277344 296.339844 "/>
<path fill="none" stroke-width="1.5" stroke-linecap="butt" stroke-linejoin="miter" stroke="rgb(30.196078%, 68.627451%, 29.019608%)" stroke-opacity="1" stroke-miterlimit="10" d="M 478.777344 167.980469 C 496.34375 184.292969 517.234375 192.464844 540.917969 188.953125 "/>
<path fill-rule="nonzero" fill="rgb(30.196078%, 68.627451%, 29.019608%)" fill-opacity="1" d="M 547.972656 187.90625 L 541.257812 191.246094 L 540.578125 186.660156 L 547.972656 187.90625 "/>
<path fill-rule="nonzero" fill="rgb(70.196078%, 70.196078%, 70.196078%)" fill-opacity="1" stroke-width="1" stroke-linecap="butt" stroke-linejoin="miter" stroke="rgb(70.196078%, 70.196078%, 70.196078%)" stroke-opacity="1" stroke-miterlimit="10" d="M 307.234375 490.921875 C 307.234375 497.386719 297.535156 497.386719 297.535156 490.921875 C 297.535156 484.457031 307.234375 484.457031 307.234375 490.921875 "/>
<path fill-rule="nonzero" fill="rgb(70.196078%, 70.196078%, 70.196078%)" fill-opacity="1" stroke-width="1" stroke-linecap="butt" stroke-linejoin="miter" stroke="rgb(70.196078%, 70.196078%, 70.196078%)" stroke-opacity="1" stroke-miterlimit="10" d="M 558.703125 187.109375 C 558.703125 194.242188 548.003906 194.242188 548.003906 187.109375 C 548.003906 179.976562 558.703125 179.976562 558.703125 187.109375 "/>
<path fill-rule="nonzero" fill="rgb(70.196078%, 70.196078%, 70.196078%)" fill-opacity="1" stroke-width="1" stroke-linecap="butt" stroke-linejoin="miter" stroke="rgb(70.196078%, 70.196078%, 70.196078%)" stroke-opacity="1" stroke-miterlimit="10" d="M 737.039062 445.382812 C 737.039062 452.515625 726.339844 452.515625 726.339844 445.382812 C 726.339844 438.25 737.039062 438.25 737.039062 445.382812 "/>
<path fill-rule="nonzero" fill="rgb(70.196078%, 70.196078%, 70.196078%)" fill-opacity="1" stroke-width="1" stroke-linecap="butt" stroke-linejoin="miter" stroke="rgb(70.196078%, 70.196078%, 70.196078%)" stroke-opacity="1" stroke-miterlimit="10" d="M 728.40625 546.699219 C 728.40625 553.167969 718.707031 553.167969 718.707031 546.699219 C 718.707031 540.234375 728.40625 540.234375 728.40625 546.699219 "/>
<path fill-rule="nonzero" fill="rgb(14.901961%, 14.901961%, 14.901961%)" fill-opacity="1" stroke-width="1" stroke-linecap="butt" stroke-linejoin="miter" stroke="rgb(14.901961%, 14.901961%, 14.901961%)" stroke-opacity="1" stroke-miterlimit="10" d="M 653.375 756.351562 L 659.726562 743.648438 L 666.074219 756.351562 Z M 653.375 756.351562 "/>
<path fill-rule="nonzero" fill="rgb(70.196078%, 70.196078%, 70.196078%)" fill-opacity="1" stroke-width="1" stroke-linecap="butt" stroke-linejoin="miter" stroke="rgb(70.196078%, 70.196078%, 70.196078%)" stroke-opacity="1" stroke-miterlimit="10" d="M 179.324219 550.214844 C 179.324219 556.679688 169.625 556.679688 169.625 550.214844 C 169.625 543.746094 179.324219 543.746094 179.324219 550.214844 "/>
<path fill-rule="nonzero" fill="rgb(100%, 84.313725%, 0%)" fill-opacity="1" stroke-width="1" stroke-linecap="butt" stroke-linejoin="miter" stroke="rgb(100%, 84.313725%, 0%)" stroke-opacity="1" stroke-miterlimit="10" d="M 376.667969 52.277344 L 383.167969 52.277344 L 383.167969 58.777344 L 376.667969 58.777344 Z M 376.667969 52.277344 "/>
<path fill-rule="nonzero" fill="rgb(12.156863%, 47.058824%, 70.588235%)" fill-opacity="1" stroke-width="1" stroke-linecap="butt" stroke-linejoin="miter" stroke="rgb(12.156863%, 47.058824%, 70.588235%)" stroke-opacity="1" stroke-miterlimit="10" d="M 624.480469 235.925781 C 624.480469 239.59375 618.980469 239.59375 618.980469 235.925781 C 618.980469 232.257812 624.480469 232.257812 624.480469 235.925781 "/>
<path fill-rule="nonzero" fill="rgb(99.215686%, 74.901961%, 43.529412%)" fill-opacity="1" stroke-width="1" stroke-linecap="butt" stroke-linejoin="miter" stroke="rgb(99.215686%, 74.901961%, 43.529412%)" stroke-opacity="1" stroke-miterlimit="10" d="M 713.890625 714.441406 C 713.890625 718.105469 708.390625 718.105469 708.390625 714.441406 C 708.390625 710.773438 713.890625 710.773438 713.890625 714.441406 "/>
<path fill-rule="nonzero" fill="rgb(100%, 84.313725%, 0%)" fill-opacity="1" stroke-width="1" stroke-linecap="butt" stroke-linejoin="miter" stroke="rgb(100%, 84.313725%, 0%)" stroke-opacity="1" stroke-miterlimit="10" d="M 264.609375 279.265625 L 275.308594 279.265625 L 275.308594 289.964844 L 264.609375 289.964844 Z M 264.609375 279.265625 "/>
<path fill-rule="nonzero" fill="rgb(70.196078%, 70.196078%, 70.196078%)" fill-opacity="1" stroke-width="1" stroke-linecap="butt" stroke-linejoin="miter" stroke="rgb(70.196078%, 70.196078%, 70.196078%)" stroke-opacity="1" stroke-miterlimit="10" d="M 63.972656 364.101562 C 63.972656 370.566406 54.273438 370.566406 54.273438 364.101562 C 54.273438 357.636719 63.972656 357.636719 63.972656 364.101562 "/>
<path fill-rule="nonzero" fill="rgb(12.156863%, 47.058824%, 70.588235%)" fill-opacity="1" stroke-width="1" stroke-linecap="butt" stroke-linejoin="miter" stroke="rgb(12.156863%, 47.058824%, 70.588235%)" stroke-opacity="1" stroke-miterlimit="10" d="M 498.535156 390.105469 C 498.535156 393.773438 493.035156 393.773438 493.035156 390.105469 C 493.035156 386.4375 498.535156 386.4375 498.535156 390.105469 "/>
<path fill-rule="nonzero" fill="rgb(14.901961%, 14.901961%, 14.901961%)" fill-opacity="1" stroke-width="1" stroke-linecap="butt" stroke-linejoin="miter" stroke="rgb(14.901961%, 14.901961%, 14.901961%)" stroke-opacity="1" stroke-miterlimit="10" d="M 680.28125 152.15625 L 684.53125 143.65625 L 688.78125 152.15625 Z M 680.28125 152.15625 "/>
<path fill-rule="nonzero" fill="rgb(12.156863%, 47.058824%, 70.588235%)" fill-opacity="1" stroke-width="1" stroke-linecap="butt" stroke-linejoin="miter" stroke="rgb(12.156863%, 47.058824%, 70.588235%)" stroke-opacity="1" stroke-miterlimit="10" d="M 750.730469 50 C 750.730469 53.667969 745.230469 53.667969 745.230469 50 C 745.230469 46.332031 750.730469 46.332031 750.730469 50 "/>
<path fill-rule="nonzero" fill="rgb(99.215686%, 74.901961%, 43.529412%)" fill-opacity="1" stroke-width="1" stroke-linecap="butt" stroke-linejoin="miter" stroke="rgb(99.215686%, 74.901961%, 43.529412%)" stroke-opacity="1" stroke-miterlimit="10" d="M 746.15625 360.890625 C 746.15625 364.558594 740.65625 364.558594 740.65625 360.890625 C 740.65625 357.222656 746.15625 357.222656 746.15625 360.890625 "/>
<path fill-rule="nonzero" fill="rgb(70.196078%, 70.196078%, 70.196078%)" fill-opacity="1" stroke-width="1" stroke-linecap="butt" stroke-linejoin="miter" stroke="rgb(70.196078%, 70.196078%, 70.196078%)" stroke-opacity="1" stroke-miterlimit="10" d="M 120.472656 505.390625 C 120.472656 511.855469 110.773438 511.855469 110.773438 505.390625 C 110.773438 498.921875 120.472656 498.921875 120.472656 505.390625 "/>
<path fill-rule="nonzero" fill="rgb(30.196078%, 68.627451%, 29.019608%)" fill-opacity="1" stroke-width="1" stroke-linecap="butt" stroke-linejoin="miter" stroke="rgb(30.196078%, 68.627451%, 29.019608%)" stroke-opacity="1" stroke-miterlimit="10" d="M 645.492188 688.546875 C 645.492188 692.214844 639.992188 692.214844 639.992188 688.546875 C 639.992188 684.882812 645.492188 684.882812 645.492188 688.546875 "/>
<path fill-rule="nonzero" fill="rgb(70.196078%, 70.196078%, 70.196078%)" fill-opacity="1" stroke-width="1" stroke-linecap="butt" stroke-linejoin="miter" stroke="rgb(70.196078%, 70.196078%, 70.196078%)" stroke-opacity="1" stroke-miterlimit="10" d="M 83.773438 437.378906 C 83.773438 443.847656 74.074219 443.847656 74.074219 437.378906 C 74.074219 430.914062 83.773438 430.914062 83.773438 437.378906 "/>
<path fill-rule="nonzero" fill="rgb(12.156863%, 47.058824%, 70.588235%)" fill-opacity="1" stroke-width="1" stroke-linecap="butt" stroke-linejoin="miter" stroke="rgb(12.156863%, 47.058824%, 70.588235%)" stroke-opacity="1" stroke-miterlimit="10" d="M 693.917969 70.460938 C 693.917969 74.128906 688.417969 74.128906 688.417969 70.460938 C 688.417969 66.796875 693.917969 66.796875 693.917969 70.460938 "/>
<path fill-rule="nonzero" fill="rgb(70.196078%, 70.196078%, 70.196078%)" fill-opacity="1" stroke-width="1" stroke-linecap="butt" stroke-linejoin="miter" stroke="rgb(70.196078%, 70.196078%, 70.196078%)" stroke-opacity="1" stroke-miterlimit="10" d="M 702.757812 640.410156 C 702.757812 646.875 693.058594 646.875 693.058594 640.410156 C 693.058594 633.941406 702.757812 633.941406 702.757812 640.410156 "/>
<path fill-rule="nonzero" fill="rgb(14.901961%, 14.901961%, 14.901961%)" fill-opacity="1" stroke-width="1" stroke-linecap="butt" stroke-linejoin="miter" stroke="rgb(14.901961%, 14.901961%, 14.901961%)" stroke-opacity="1" stroke-miterlimit="10" d="M 44.148438 303.464844 L 50 291.765625 L 55.851562 303.464844 Z M 44.148438 303.464844 "/>
<path fill-rule="nonzero" fill="rgb(30.196078%, 68.627451%, 29.019608%)" fill-opacity="1" stroke-width="1" stroke-linecap="butt" stroke-linejoin="miter" stroke="rgb(30.196078%, 68.627451%, 29.019608%)" stroke-opacity="1" stroke-miterlimit="10" d="M 690.464844 386.8125 C 690.464844 390.480469 684.964844 390.480469 684.964844 386.8125 C 684.964844 383.148438 690.464844 383.148438 690.464844 386.8125 "/>
<path fill-rule="nonzero" fill="rgb(12.156863%, 47.058824%, 70.588235%)" fill-opacity="1" stroke-width="1" stroke-linecap="butt" stroke-linejoin="miter" stroke="rgb(12.156863%, 47.058824%, 70.588235%)" stroke-opacity="1" stroke-miterlimit="10" d="M 752.75 115.03125 C 752.75 118.699219 747.25 118.699219 747.25 115.03125 C 747.25 111.367188 752.75 111.367188 752.75 115.03125 "/>
<path fill-rule="nonzero" fill="rgb(12.156863%, 47.058824%, 70.588235%)" fill-opacity="1" stroke-width="1" stroke-linecap="butt" stroke-linejoin="miter" stroke="rgb(12.156863%, 47.058824%, 70.588235%)" stroke-opacity="1" stroke-miterlimit="10" d="M 558.453125 323.636719 C 558.453125 327.300781 552.953125 327.300781 552.953125 323.636719 C 552.953125 319.96875 558.453125 319.96875 558.453125 323.636719 "/>
<path fill-rule="nonzero" fill="rgb(12.156863%, 47.058824%, 70.588235%)" fill-opacity="1" stroke-width="1" stroke-linecap="butt" stroke-linejoin="miter" stroke="rgb(12.156863%, 47.058824%, 70.588235%)" stroke-opacity="1" stroke-miterlimit="10" d="M 427.4375 421.5625 C 427.4375 425.230469 421.9375 425.230469 421.9375 421.5625 C 421.9375 417.898438 427.4375 417.898438 427.4375 421.5625 "/>
<path fill-rule="nonzero" fill="rgb(70.196078%, 70.196078%, 70.196078%)" fill-opacity="1" stroke-width="1" stroke-linecap="butt" stroke-linejoin="miter" stroke="rgb(70.196078%, 70.196078%, 70.196078%)" stroke-opacity="1" stroke-miterlimit="10" d="M 674.082031 305.761719 C 674.082031 312.226562 664.382812 312.226562 664.382812 305.761719 C 664.382812 299.292969 674.082031 299.292969 674.082031 305.761719 "/>
<path fill-rule="nonzero" fill="rgb(70.196078%, 70.196078%, 70.196078%)" fill-opacity="1" stroke-width="1" stroke-linecap="butt" stroke-linejoin="miter" stroke="rgb(70.196078%, 70.196078%, 70.196078%)" stroke-opacity="1" stroke-miterlimit="10" d="M 352.40625 409 C 352.40625 415.46875 342.703125 415.46875 342.703125 409 C 342.703125 402.535156 352.40625 402.535156 352.40625 409 "/>
<path fill-rule="nonzero" fill="rgb(99.215686%, 74.901961%, 43.529412%)" fill-opacity="1" stroke-width="1" stroke-linecap="butt" stroke-linejoin="miter" stroke="rgb(99.215686%, 74.901961%, 43.529412%)" stroke-opacity="1" stroke-miterlimit="10" d="M 501.101562 107.617188 C 501.101562 111.285156 495.601562 111.285156 495.601562 107.617188 C 495.601562 103.949219 501.101562 103.949219 501.101562 107.617188 "/>
<path fill-rule="nonzero" fill="rgb(70.196078%, 70.196078%, 70.196078%)" fill-opacity="1" stroke-width="1" stroke-linecap="butt" stroke-linejoin="miter" stroke="rgb(70.196078%, 70.196078%, 70.196078%)" stroke-opacity="1" stroke-miterlimit="10" d="M 424.925781 124.785156 C 424.925781 131.917969 414.226562 131.917969 414.226562 124.785156 C 414.226562 117.652344 424.925781 117.652344 424.925781 124.785156 "/>
<path fill-rule="nonzero" fill="rgb(70.196078%, 70.196078%, 70.196078%)" fill-opacity="1" stroke-width="1" stroke-linecap="butt" stroke-linejoin="miter" stroke="rgb(70.196078%, 70.196078%, 70.196078%)" stroke-opacity="1" stroke-miterlimit="10" d="M 250.558594 545.675781 C 250.558594 552.140625 240.855469 552.140625 240.855469 545.675781 C 240.855469 539.207031 250.558594 539.207031 250.558594 545.675781 "/>
<path fill-rule="nonzero" fill="rgb(70.196078%, 70.196078%, 70.196078%)" fill-opacity="1" stroke-width="1" stroke-linecap="butt" stroke-linejoin="miter" stroke="rgb(70.196078%, 70.196078%, 70.196078%)" stroke-opacity="1" stroke-miterlimit="10" d="M 336.121094 301.410156 C 336.121094 308.542969 325.421875 308.542969 325.421875 301.410156 C 325.421875 294.277344 336.121094 294.277344 336.121094 301.410156 "/>
<path fill-rule="nonzero" fill="rgb(100%, 84.313725%, 0%)" fill-opacity="1" stroke-width="1" stroke-linecap="butt" stroke-linejoin="miter" stroke="rgb(100%, 84.313725%, 0%)" stroke-opacity="1" stroke-miterlimit="10" d="M 356.34375 199.078125 L 367.042969 199.078125 L 367.042969 209.777344 L 356.34375 209.777344 Z M 356.34375 199.078125 "/>
<path fill-rule="nonzero" fill="rgb(30.196078%, 68.627451%, 29.019608%)" fill-opacity="1" stroke-width="1" stroke-linecap="butt" stroke-linejoin="miter" stroke="rgb(30.196078%, 68.627451%, 29.019608%)" stroke-opacity="1" stroke-miterlimit="10" d="M 481.527344 167.980469 C 481.527344 171.648438 476.027344 171.648438 476.027344 167.980469 C 476.027344 164.3125 481.527344 164.3125 481.527344 167.980469 "/>
</svg>
