<?xml version="1.0" encoding="UTF-8"?>
<svg xmlns="http://www.w3.org/2000/svg" xmlns:xlink="http://www.w3.org/1999/xlink" width="800" height="800" viewBox="0 0 800 800">
<rect x="-80" y="-80" width="960" height="960" fill="rgb(100%, 100%, 100%)" fill-opacity="1"/>
<path fill="none" stroke-width="1.5" stroke-linecap="butt" stroke-linejoin="miter" stroke="rgb(30.196078%, 68.627451%, 29.019608%)" stroke-opacity="1" stroke-miterlimit="10" d="M 512.410156 181.933594 C 498.0625 188.785156 487.589844 199.621094 484.3125 215.140625 "/>
<path fill-rule="nonzero" fill="rgb(30.196078%, 68.627451%, 29.019608%)" fill-opacity="1" d="M 482.839844 222.117188 L 482.046875 214.660156 L 486.582031 215.617188 L 482.839844 222.117188 "/>
<path fill="none" stroke-width="1.5" stroke-linecap="butt" stroke-linejoin="miter" stroke="rgb(12.156863%, 47.058824%, 70.588235%)" stroke-opacity="1" stroke-miterlimit="10" d="M 486.316406 452.320312 C 455.84375 432.46875 422.734375 426.28125 388 437.007812 "/>
<path fill-rule="nonzero" fill="rgb(12.156863%, 47.058824%, 70.588235%)" fill-opacity="1" d="M 381.183594 439.113281 L 387.316406 434.792969 L 388.683594 439.222656 L 381.183594 439.113281 "/>
<path fill="none" stroke-width="1.5" stroke-linecap="butt" stroke-linejoin="miter" stroke="rgb(12.156863%, 47.058824%, 70.588235%)" stroke-opacity="1" stroke-miterlimit="10" d="M 118.632812 363.683594 C 106.820312 354.832031 93.375 350.804688 79.226562 354.863281 "/>
<path fill-rule="nonzero" fill="rgb(12.156863%, 47.058824%, 70.588235%)" fill-opacity="1" d="M 72.371094 356.828125 L 78.589844 352.632812 L 79.867188 357.089844 L 72.371094 356.828125 "/>
<path fill="none" stroke-width="1.5" stroke-linecap="butt" stroke-linejoin="miter" stroke="rgb(30.196078%, 68.627451%, 29.019608%)" stroke-opacity="1" stroke-miterlimit="10" d="M 347.042969 186.519531 C 362.273438 192.976562 377.914062 193.632812 392.296875 185.53125 "/>
<path fill-rule="nonzero" fill="rgb(30.196078%, 68.627451%, 29.019608%)" fill-opacity="1" d="M 398.511719 182.03125 L 393.433594 187.550781 L 391.160156 183.511719 L 398.511719 182.03125 "/>
<path fill="none" stroke-width="1.5" stroke-linecap="butt" stroke-linejoin="miter" stroke="rgb(12.156863%, 47.058824%, 70.588235%)" stroke-opacity="1" stroke-miterlimit="10" d="M 69.855469 357.550781 C 58.78125 364.925781 51.203125 375.144531 50.511719 388.386719 "/>
<path fill-rule="nonzero" fill="rgb(12.156863%, 47.058824%, 70.588235%)" fill-opacity="1" d="M 50.136719 395.507812 L 48.195312 388.265625 L 52.824219 388.507812 L 50.136719 395.507812 "/>
<path fill="none" stroke-width="1.5" stroke-linecap="butt" stroke-linejoin="miter" stroke="rgb(12.156863%, 47.058824%, 70.588235%)" stroke-opacity="1" stroke-miterlimit="10" d="M 175.960938 390.269531 C 164.050781 374.355469 148.222656 364.445312 128.386719 363.933594 "/>
<path fill-rule="nonzero" fill="rgb(12.156863%, 47.058824%, 70.588235%)" fill-opacity="1" d="M 121.253906 363.75 L 128.445312 361.617188 L 128.324219 366.25 L 121.253906 363.75 "/>
<path fill="none" stroke-width="1.5" stroke-linecap="butt" stroke-linejoin="miter" stroke="rgb(12.156863%, 47.058824%, 70.588235%)" stroke-opacity="1" stroke-miterlimit="10" d="M 50 398.121094 C 44.183594 410.882812 43.132812 424.214844 49.820312 436.492188 "/>
<path fill-rule="nonzero" fill="rgb(12.156863%, 47.058824%, 70.588235%)" fill-opacity="1" d="M 53.234375 442.753906 L 47.785156 437.601562 L 51.855469 435.382812 L 53.234375 442.753906 "/>
<path fill="none" stroke-width="1.5" stroke-linecap="butt" stroke-linejoin="miter" stroke="rgb(30.196078%, 68.627451%, 29.019608%)" stroke-opacity="1" stroke-miterlimit="10" d="M 482.296875 224.679688 C 453.78125 233.941406 432.480469 251.902344 421.554688 279.800781 "/>
<path fill-rule="nonzero" fill="rgb(30.196078%, 68.627451%, 29.019608%)" fill-opacity="1" d="M 418.953125 286.441406 L 419.394531 278.953125 L 423.710938 280.644531 L 418.953125 286.441406 "/>
<path fill="none" stroke-width="1.5" stroke-linecap="butt" stroke-linejoin="miter" stroke="rgb(30.196078%, 68.627451%, 29.019608%)" stroke-opacity="1" stroke-miterlimit="10" d="M 273.414062 232.121094 C 301.746094 229.808594 325.375 217.929688 341.5 194.550781 "/>
<path fill-rule="nonzero" fill="rgb(30.196078%, 68.627451%, 29.019608%)" fill-opacity="1" d="M 345.550781 188.679688 L 343.40625 195.867188 L 339.59375 193.234375 L 345.550781 188.679688 "/>
<path fill="none" stroke-width="1.5" stroke-linecap="butt" stroke-linejoin="miter" stroke="rgb(30.196078%, 68.627451%, 29.019608%)" stroke-opacity="1" stroke-miterlimit="10" d="M 349.773438 358.199219 C 323.925781 368.554688 305.226562 386.496094 296.914062 413.046875 "/>
<path fill-rule="nonzero" fill="rgb(30.196078%, 68.627451%, 29.019608%)" fill-opacity="1" d="M 294.785156 419.855469 L 294.703125 412.355469 L 299.125 413.738281 L 294.785156 419.855469 "/>
<path fill="none" stroke-width="1.5" stroke-linecap="butt" stroke-linejoin="miter" stroke="rgb(30.196078%, 68.627451%, 29.019608%)" stroke-opacity="1" stroke-miterlimit="10" d="M 230.511719 412.332031 C 235.738281 392.804688 233.6875 373.933594 221.632812 357.746094 "/>
<path fill-rule="nonzero" fill="rgb(30.196078%, 68.627451%, 29.019608%)" fill-opacity="1" d="M 217.375 352.023438 L 223.492188 356.363281 L 219.773438 359.128906 L 217.375 352.023438 "/>
<path fill="none" stroke-width="1.5" stroke-linecap="butt" stroke-linejoin="miter" stroke="rgb(30.196078%, 68.627451%, 29.019608%)" stroke-opacity="1" stroke-miterlimit="10" d="M 478.078125 334.496094 C 470.21875 343.902344 466.082031 354.945312 469.027344 366.785156 "/>
<path fill-rule="nonzero" fill="rgb(30.196078%, 68.627451%, 29.019608%)" fill-opacity="1" d="M 470.75 373.707031 L 466.78125 367.34375 L 471.277344 366.226562 L 470.75 373.707031 "/>
<path fill="none" stroke-width="1.5" stroke-linecap="butt" stroke-linejoin="miter" stroke="rgb(30.196078%, 68.627451%, 29.019608%)" stroke-opacity="1" stroke-miterlimit="10" d="M 470.578125 280.605469 C 464.5625 296.152344 464.410156 311.921875 473.027344 326.152344 "/>
<path fill-rule="nonzero" fill="rgb(30.196078%, 68.627451%, 29.019608%)" fill-opacity="1" d="M 476.71875 332.253906 L 471.042969 327.351562 L 475.007812 324.953125 L 476.71875 332.253906 "/>
<path fill="none" stroke-width="1.5" stroke-linecap="butt" stroke-linejoin="miter" stroke="rgb(30.196078%, 68.627451%, 29.019608%)" stroke-opacity="1" stroke-miterlimit="10" d="M 436.390625 220.976562 C 437.109375 242.863281 445.222656 261.703125 462.753906 274.773438 "/>
<path fill-rule="nonzero" fill="rgb(30.196078%, 68.627451%, 29.019608%)" fill-opacity="1" d="M 468.472656 279.035156 L 461.371094 276.632812 L 464.140625 272.914062 L 468.472656 279.035156 "/>
<path fill="none" stroke-width="1.5" stroke-linecap="butt" stroke-linejoin="miter" stroke="rgb(30.196078%, 68.627451%, 29.019608%)" stroke-opacity="1" stroke-miterlimit="10" d="M 400.792969 180.746094 C 404.308594 196.785156 412.75 209.835938 427.570312 216.820312 "/>
<path fill-rule="nonzero" fill="rgb(30.196078%, 68.627451%, 29.019608%)" fill-opacity="1" d="M 434.023438 219.859375 L 426.582031 218.914062 L 428.558594 214.722656 L 434.023438 219.859375 "/>
<path fill="none" stroke-width="1.5" stroke-linecap="butt" stroke-linejoin="miter" stroke="rgb(98.431373%, 60.392157%, 60%)" stroke-opacity="1" stroke-miterlimit="10" d="M 501.832031 502.367188 C 482.679688 480.730469 458.605469 468.777344 429.753906 469.894531 "/>
<path fill-rule="nonzero" fill="rgb(98.431373%, 60.392157%, 60%)" fill-opacity="1" d="M 422.625 470.171875 L 429.664062 467.578125 L 429.84375 472.210938 L 422.625 470.171875 "/>
<path fill="none" stroke-width="1.5" stroke-linecap="butt" stroke-linejoin="miter" stroke="rgb(12.156863%, 47.058824%, 70.588235%)" stroke-opacity="1" stroke-miterlimit="10" d="M 267.160156 405.871094 C 242.609375 387.625 215.09375 380.539062 185.433594 387.914062 "/>
<path fill-rule="nonzero" fill="rgb(12.156863%, 47.058824%, 70.588235%)" fill-opacity="1" d="M 178.511719 389.632812 L 184.875 385.664062 L 185.992188 390.164062 L 178.511719 389.632812 "/>
<path fill="none" stroke-width="1.5" stroke-linecap="butt" stroke-linejoin="miter" stroke="rgb(30.196078%, 68.627451%, 29.019608%)" stroke-opacity="1" stroke-miterlimit="10" d="M 294 422.359375 C 277.855469 410.101562 259.558594 404.847656 239.957031 409.898438 "/>
<path fill-rule="nonzero" fill="rgb(30.196078%, 68.627451%, 29.019608%)" fill-opacity="1" d="M 233.050781 411.675781 L 239.378906 407.652344 L 240.535156 412.140625 L 233.050781 411.675781 "/>
<path fill="none" stroke-width="1.5" stroke-linecap="butt" stroke-linejoin="miter" stroke="rgb(98.431373%, 60.392157%, 60%)" stroke-opacity="1" stroke-miterlimit="10" d="M 558.5 504.507812 C 543.492188 495.488281 527.226562 492.546875 510.929688 498.851562 "/>
<path fill-rule="nonzero" fill="rgb(98.431373%, 60.392157%, 60%)" fill-opacity="1" d="M 504.277344 501.421875 L 510.09375 496.6875 L 511.765625 501.011719 L 504.277344 501.421875 "/>
<path fill="none" stroke-width="1.5" stroke-linecap="butt" stroke-linejoin="miter" stroke="rgb(30.196078%, 68.627451%, 29.019608%)" stroke-opacity="1" stroke-miterlimit="10" d="M 417.996094 288.886719 C 387.382812 299.238281 364.742188 318.898438 353.25 349.078125 "/>
<path fill-rule="nonzero" fill="rgb(30.196078%, 68.627451%, 29.019608%)" fill-opacity="1" d="M 350.710938 355.742188 L 351.082031 348.253906 L 355.414062 349.902344 L 350.710938 355.742188 "/>
<path fill="none" stroke-width="1.5" stroke-linecap="butt" stroke-linejoin="miter" stroke="rgb(99.215686%, 74.901961%, 43.529412%)" stroke-opacity="1" stroke-miterlimit="10" d="M 540.476562 422.871094 C 570.273438 404.382812 589.273438 378.011719 594.050781 343.292969 "/>
<path fill-rule="nonzero" fill="rgb(99.215686%, 74.901961%, 43.529412%)" fill-opacity="1" d="M 595.019531 336.226562 L 596.34375 343.609375 L 591.753906 342.976562 L 595.019531 336.226562 "/>
<path fill="none" stroke-width="1.5" stroke-linecap="butt" stroke-linejoin="miter" stroke="rgb(99.215686%, 74.901961%, 43.529412%)" stroke-opacity="1" stroke-miterlimit="10" d="M 449.15625 700.566406 C 450.128906 685.742188 446.128906 672.199219 434.941406 662.5 "/>
<path fill-rule="nonzero" fill="rgb(99.215686%, 74.901961%, 43.529412%)" fill-opacity="1" d="M 429.550781 657.824219 L 436.457031 660.746094 L 433.421875 664.25 L 429.550781 657.824219 "/>
<path fill="none" stroke-width="1.5" stroke-linecap="butt" stroke-linejoin="miter" stroke="rgb(30.196078%, 68.627451%, 29.019608%)" stroke-opacity="1" stroke-miterlimit="10" d="M 215.808594 349.921875 C 228.058594 334.144531 233.441406 316.171875 228.660156 296.808594 "/>
<path fill-rule="nonzero" fill="rgb(30.196078%, 68.627451%, 29.019608%)" fill-opacity="1" d="M 226.949219 289.886719 L 230.910156 296.253906 L 226.410156 297.367188 L 226.949219 289.886719 "/>
<path fill="none" stroke-width="1.5" stroke-linecap="butt" stroke-linejoin="miter" stroke="rgb(99.215686%, 74.901961%, 43.529412%)" stroke-opacity="1" stroke-miterlimit="10" d="M 387.167969 606.300781 C 396.152344 609.457031 405.476562 609.644531 413.128906 604.089844 "/>
<path fill-rule="nonzero" fill="rgb(99.215686%, 74.901961%, 43.529412%)" fill-opacity="1" d="M 418.902344 599.898438 L 414.492188 605.964844 L 411.765625 602.214844 L 418.902344 599.898438 "/>
<path fill="none" stroke-width="1.5" stroke-linecap="butt" stroke-linejoin="miter" stroke="rgb(99.215686%, 74.901961%, 43.529412%)" stroke-opacity="1" stroke-miterlimit="10" d="M 595.507812 332.679688 C 602.410156 338.0625 610.507812 341.03125 618.765625 338.359375 "/>
<path fill-rule="nonzero" fill="rgb(99.215686%, 74.901961%, 43.529412%)" fill-opacity="1" d="M 625.550781 336.164062 L 619.476562 340.566406 L 618.050781 336.15625 L 625.550781 336.164062 "/>
<path fill="none" stroke-width="1.5" stroke-linecap="butt" stroke-linejoin="miter" stroke="rgb(99.215686%, 74.901961%, 43.529412%)" stroke-opacity="1" stroke-miterlimit="10" d="M 595.507812 332.679688 C 613.117188 322.375 625.042969 307.371094 627.863281 287.199219 "/>
<path fill-rule="nonzero" fill="rgb(99.215686%, 74.901961%, 43.529412%)" fill-opacity="1" d="M 628.851562 280.136719 L 630.160156 287.519531 L 625.570312 286.878906 L 628.851562 280.136719 "/>
<path fill="none" stroke-width="1.5" stroke-linecap="butt" stroke-linejoin="miter" stroke="rgb(99.215686%, 74.901961%, 43.529412%)" stroke-opacity="1" stroke-miterlimit="10" d="M 595.507812 332.679688 C 597.464844 323.628906 596.527344 314.589844 590.222656 307.898438 "/>
<path fill-rule="nonzero" fill="rgb(99.215686%, 74.901961%, 43.529412%)" fill-opacity="1" d="M 585.332031 302.707031 L 591.910156 306.3125 L 588.535156 309.488281 L 585.332031 302.707031 "/>
<path fill="none" stroke-width="1.5" stroke-linecap="butt" stroke-linejoin="miter" stroke="rgb(30.196078%, 68.627451%, 29.019608%)" stroke-opacity="1" stroke-miterlimit="10" d="M 226.320312 287.339844 C 247.953125 278.683594 263.785156 263.714844 270.570312 241.453125 "/>
<path fill-rule="nonzero" fill="rgb(30.196078%, 68.627451%, 29.019608%)" fill-opacity="1" d="M 272.648438 234.628906 L 272.789062 242.128906 L 268.351562 240.777344 L 272.648438 234.628906 "/>
<path fill="none" stroke-width="1.5" stroke-linecap="butt" stroke-linejoin="miter" stroke="rgb(41.568627%, 23.921569%, 60.392157%)" stroke-opacity="1" stroke-miterlimit="10" d="M 296.152344 73.84375 C 289.800781 84.347656 287.402344 95.890625 292.089844 107.175781 "/>
<path fill-rule="nonzero" fill="rgb(41.568627%, 23.921569%, 60.392157%)" fill-opacity="1" d="M 294.828125 113.761719 L 289.953125 108.0625 L 294.230469 106.285156 L 294.828125 113.761719 "/>
<path fill="none" stroke-width="1.5" stroke-linecap="butt" stroke-linejoin="miter" stroke="rgb(99.215686%, 74.901961%, 43.529412%)" stroke-opacity="1" stroke-miterlimit="10" d="M 421.566406 597.960938 C 412.398438 594.824219 402.929688 594.734375 395.167969 600.429688 "/>
<path fill-rule="nonzero" fill="rgb(99.215686%, 74.901961%, 43.529412%)" fill-opacity="1" d="M 389.417969 604.648438 L 393.796875 598.5625 L 396.539062 602.296875 L 389.417969 604.648438 "/>
<path fill="none" stroke-width="1.5" stroke-linecap="butt" stroke-linejoin="miter" stroke="rgb(99.215686%, 74.901961%, 43.529412%)" stroke-opacity="1" stroke-miterlimit="10" d="M 421.566406 597.960938 C 445.859375 584.878906 462.277344 565.125 467.484375 538.054688 "/>
<path fill-rule="nonzero" fill="rgb(99.215686%, 74.901961%, 43.529412%)" fill-opacity="1" d="M 468.828125 531.050781 L 469.757812 538.492188 L 465.207031 537.617188 L 468.828125 531.050781 "/>
<path fill="none" stroke-width="1.5" stroke-linecap="butt" stroke-linejoin="miter" stroke="rgb(99.215686%, 74.901961%, 43.529412%)" stroke-opacity="1" stroke-miterlimit="10" d="M 427.574219 656.109375 C 434.609375 639.550781 435.261719 622.59375 426.535156 606.898438 "/>
<path fill-rule="nonzero" fill="rgb(99.215686%, 74.901961%, 43.529412%)" fill-opacity="1" d="M 423.070312 600.664062 L 428.5625 605.773438 L 424.511719 608.027344 L 423.070312 600.664062 "/>
<path fill="none" stroke-width="1.5" stroke-linecap="butt" stroke-linejoin="miter" stroke="rgb(99.215686%, 74.901961%, 43.529412%)" stroke-opacity="1" stroke-miterlimit="10" d="M 628.207031 335.304688 C 621.664062 330.007812 613.898438 326.953125 605.9375 329.433594 "/>
<path fill-rule="nonzero" fill="rgb(99.215686%, 74.901961%, 43.529412%)" fill-opacity="1" d="M 599.125 331.554688 L 605.246094 327.21875 L 606.625 331.644531 L 599.125 331.554688 "/>
<path fill="none" stroke-width="1.5" stroke-linecap="butt" stroke-linejoin="miter" stroke="rgb(41.568627%, 23.921569%, 60.392157%)" stroke-opacity="1" stroke-miterlimit="10" d="M 295.832031 116.175781 C 289.859375 129.949219 289.0625 144.195312 296.394531 157.246094 "/>
<path fill-rule="nonzero" fill="rgb(41.568627%, 23.921569%, 60.392157%)" fill-opacity="1" d="M 299.890625 163.464844 L 294.375 158.382812 L 298.414062 156.113281 L 299.890625 163.464844 "/>
<path fill="none" stroke-width="1.5" stroke-linecap="butt" stroke-linejoin="miter" stroke="rgb(98.431373%, 60.392157%, 60%)" stroke-opacity="1" stroke-miterlimit="10" d="M 209.515625 225 C 210.96875 200.144531 203.640625 178.09375 185.242188 161.359375 "/>
<path fill-rule="nonzero" fill="rgb(98.431373%, 60.392157%, 60%)" fill-opacity="1" d="M 179.964844 156.5625 L 186.800781 159.644531 L 183.683594 163.074219 L 179.964844 156.5625 "/>
<path fill="none" stroke-width="1.5" stroke-linecap="butt" stroke-linejoin="miter" stroke="rgb(12.156863%, 47.058824%, 70.588235%)" stroke-opacity="1" stroke-miterlimit="10" d="M 54.484375 445.050781 C 50.054688 456.179688 49.5625 467.707031 55.929688 477.785156 "/>
<path fill-rule="nonzero" fill="rgb(12.156863%, 47.058824%, 70.588235%)" fill-opacity="1" d="M 59.738281 483.8125 L 53.96875 479.019531 L 57.886719 476.546875 L 59.738281 483.8125 "/>
<path fill="none" stroke-width="1.5" stroke-linecap="butt" stroke-linejoin="miter" stroke="rgb(99.215686%, 74.901961%, 43.529412%)" stroke-opacity="1" stroke-miterlimit="10" d="M 469.324219 528.472656 C 506.867188 506.890625 531.128906 475.09375 538.757812 432.484375 "/>
<path fill-rule="nonzero" fill="rgb(99.215686%, 74.901961%, 43.529412%)" fill-opacity="1" d="M 540.015625 425.460938 L 541.039062 432.890625 L 536.476562 432.074219 L 540.015625 425.460938 "/>
<path fill="none" stroke-width="1.5" stroke-linecap="butt" stroke-linejoin="miter" stroke="rgb(99.215686%, 74.901961%, 43.529412%)" stroke-opacity="1" stroke-miterlimit="10" d="M 484.671875 730.460938 C 480 717.515625 471.597656 707.417969 458.480469 703.414062 "/>
<path fill-rule="nonzero" fill="rgb(99.215686%, 74.901961%, 43.529412%)" fill-opacity="1" d="M 451.660156 701.328125 L 459.15625 701.195312 L 457.804688 705.628906 L 451.660156 701.328125 "/>
<path fill="none" stroke-width="1.5" stroke-linecap="butt" stroke-linejoin="miter" stroke="rgb(98.431373%, 60.392157%, 60%)" stroke-opacity="1" stroke-miterlimit="10" d="M 274.332031 316.085938 C 268.433594 278.925781 250.203125 249.253906 217.898438 229.996094 "/>
<path fill-rule="nonzero" fill="rgb(98.431373%, 60.392157%, 60%)" fill-opacity="1" d="M 211.773438 226.34375 L 219.085938 228.007812 L 216.714844 231.988281 L 211.773438 226.34375 "/>
<path fill="none" stroke-width="1.5" stroke-linecap="butt" stroke-linejoin="miter" stroke="rgb(98.431373%, 60.392157%, 60%)" stroke-opacity="1" stroke-miterlimit="10" d="M 420 470.273438 C 407.035156 439.804688 385.167969 418.230469 353.441406 408.816406 "/>
<path fill-rule="nonzero" fill="rgb(98.431373%, 60.392157%, 60%)" fill-opacity="1" d="M 346.605469 406.785156 L 354.101562 406.59375 L 352.78125 411.035156 L 346.605469 406.785156 "/>
<path fill="none" stroke-width="1.5" stroke-linecap="butt" stroke-linejoin="miter" stroke="rgb(99.215686%, 74.901961%, 43.529412%)" stroke-opacity="1" stroke-miterlimit="10" d="M 583.417969 300.675781 C 581.382812 309.371094 582.097656 318.140625 588.101562 324.652344 "/>
<path fill-rule="nonzero" fill="rgb(99.215686%, 74.901961%, 43.529412%)" fill-opacity="1" d="M 592.9375 329.894531 L 586.398438 326.222656 L 589.804688 323.078125 L 592.9375 329.894531 "/>
<path fill="none" stroke-width="1.5" stroke-linecap="butt" stroke-linejoin="miter" stroke="rgb(41.568627%, 23.921569%, 60.392157%)" stroke-opacity="1" stroke-miterlimit="10" d="M 324.492188 224.042969 C 323.605469 239.289062 327.835938 253.160156 339.398438 263.074219 "/>
<path fill-rule="nonzero" fill="rgb(41.568627%, 23.921569%, 60.392157%)" fill-opacity="1" d="M 344.8125 267.71875 L 337.886719 264.835938 L 340.90625 261.316406 L 344.8125 267.71875 "/>
<path fill="none" stroke-width="1.5" stroke-linecap="butt" stroke-linejoin="miter" stroke="rgb(98.431373%, 60.392157%, 60%)" stroke-opacity="1" stroke-miterlimit="10" d="M 162.417969 96.320312 C 167.34375 83.6875 167.691406 70.726562 160.527344 59.273438 "/>
<path fill-rule="nonzero" fill="rgb(98.431373%, 60.392157%, 60%)" fill-opacity="1" d="M 156.742188 53.226562 L 162.492188 58.046875 L 158.5625 60.503906 L 156.742188 53.226562 "/>
<path fill="none" stroke-width="1.5" stroke-linecap="butt" stroke-linejoin="miter" stroke="rgb(12.156863%, 47.058824%, 70.588235%)" stroke-opacity="1" stroke-miterlimit="10" d="M 586.472656 464.960938 C 558.519531 446.203125 527.929688 439.976562 495.675781 449.546875 "/>
<path fill-rule="nonzero" fill="rgb(12.156863%, 47.058824%, 70.588235%)" fill-opacity="1" d="M 488.835938 451.574219 L 495.015625 447.324219 L 496.335938 451.769531 L 488.835938 451.574219 "/>
<path fill="none" stroke-width="1.5" stroke-linecap="butt" stroke-linejoin="miter" stroke="rgb(98.431373%, 60.392157%, 60%)" stroke-opacity="1" stroke-miterlimit="10" d="M 586.472656 464.960938 C 573.328125 471.078125 563.582031 480.84375 560.546875 494.976562 "/>
<path fill-rule="nonzero" fill="rgb(98.431373%, 60.392157%, 60%)" fill-opacity="1" d="M 559.050781 501.949219 L 558.28125 494.492188 L 562.8125 495.464844 L 559.050781 501.949219 "/>
<path fill="none" stroke-width="1.5" stroke-linecap="butt" stroke-linejoin="miter" stroke="rgb(41.568627%, 23.921569%, 60.392157%)" stroke-opacity="1" stroke-miterlimit="10" d="M 346.796875 269.425781 C 346.363281 281.417969 349.777344 292.464844 359.179688 299.835938 "/>
<path fill-rule="nonzero" fill="rgb(41.568627%, 23.921569%, 60.392157%)" fill-opacity="1" d="M 364.792969 304.238281 L 357.75 301.660156 L 360.609375 298.011719 L 364.792969 304.238281 "/>
<path fill="none" stroke-width="1.5" stroke-linecap="butt" stroke-linejoin="miter" stroke="rgb(98.431373%, 60.392157%, 60%)" stroke-opacity="1" stroke-miterlimit="10" d="M 178.023438 154.796875 C 182.460938 136.421875 180.160156 118.777344 168.464844 103.972656 "/>
<path fill-rule="nonzero" fill="rgb(98.431373%, 60.392157%, 60%)" fill-opacity="1" d="M 164.042969 98.375 L 170.28125 102.535156 L 166.644531 105.410156 L 164.042969 98.375 "/>
<path fill="none" stroke-width="1.5" stroke-linecap="butt" stroke-linejoin="miter" stroke="rgb(98.431373%, 60.392157%, 60%)" stroke-opacity="1" stroke-miterlimit="10" d="M 344.085938 406.039062 C 336.488281 368.429688 316.640625 338.996094 282.917969 320.734375 "/>
<path fill-rule="nonzero" fill="rgb(98.431373%, 60.392157%, 60%)" fill-opacity="1" d="M 276.644531 317.339844 L 284.019531 318.699219 L 281.8125 322.773438 L 276.644531 317.339844 "/>
<path fill="none" stroke-width="1.5" stroke-linecap="butt" stroke-linejoin="miter" stroke="rgb(12.156863%, 47.058824%, 70.588235%)" stroke-opacity="1" stroke-miterlimit="10" d="M 378.671875 439.890625 C 350.007812 412.890625 315.933594 400.039062 276.851562 404.710938 "/>
<path fill-rule="nonzero" fill="rgb(12.156863%, 47.058824%, 70.588235%)" fill-opacity="1" d="M 269.769531 405.558594 L 276.578125 402.410156 L 277.128906 407.011719 L 269.769531 405.558594 "/>
<path fill="none" stroke-width="1.5" stroke-linecap="butt" stroke-linejoin="miter" stroke="rgb(99.215686%, 74.901961%, 43.529412%)" stroke-opacity="1" stroke-miterlimit="10" d="M 521.304688 750 C 515.128906 739.738281 506.253906 732.390625 494.378906 731.328125 "/>
<path fill-rule="nonzero" fill="rgb(99.215686%, 74.901961%, 43.529412%)" fill-opacity="1" d="M 487.277344 730.695312 L 494.585938 729.019531 L 494.175781 733.636719 L 487.277344 730.695312 "/>
<path fill="none" stroke-width="2.5" stroke-linecap="butt" stroke-linejoin="miter" stroke="rgb(70.196078%, 70.196078%, 70.196078%)" stroke-opacity="1" stroke-miterlimit="10" d="M 672.488281 435.054688 C 643.410156 430.78125 616.839844 437.238281 595.152344 457.039062 "/>
<path fill-rule="nonzero" fill="rgb(70.196078%, 70.196078%, 70.196078%)" fill-opacity="1" d="M 589.882812 461.847656 L 593.589844 455.324219 L 596.714844 458.75 L 589.882812 461.847656 "/>
<path fill="none" stroke-width="1.5" stroke-linecap="butt" stroke-linejoin="miter" stroke="rgb(41.568627%, 23.921569%, 60.392157%)" stroke-opacity="1" stroke-miterlimit="10" d="M 301.171875 165.75 C 298.925781 185.347656 303.59375 203.292969 317.570312 217.167969 "/>
<path fill-rule="nonzero" fill="rgb(41.568627%, 23.921569%, 60.392157%)" fill-opacity="1" d="M 322.632812 222.195312 L 315.9375 218.8125 L 319.203125 215.523438 L 322.632812 222.195312 "/>
<path fill="none" stroke-width="1.5" stroke-linecap="butt" stroke-linejoin="miter" stroke="rgb(12.156863%, 47.058824%, 70.588235%)" stroke-opacity="1" stroke-miterlimit="10" d="M 719.292969 386.210938 C 699.632812 392.246094 684.433594 404.191406 677.023438 423.335938 "/>
<path fill-rule="nonzero" fill="rgb(12.156863%, 47.058824%, 70.588235%)" fill-opacity="1" d="M 674.449219 429.988281 L 674.863281 422.5 L 679.183594 424.171875 L 674.449219 429.988281 "/>
<path fill="none" stroke-width="1.5" stroke-linecap="butt" stroke-linejoin="miter" stroke="rgb(98.431373%, 60.392157%, 60%)" stroke-opacity="1" stroke-miterlimit="10" d="M 713.144531 455.402344 C 706.652344 444.742188 697.363281 437.128906 684.980469 436.097656 "/>
<path fill-rule="nonzero" fill="rgb(98.431373%, 60.392157%, 60%)" fill-opacity="1" d="M 677.871094 435.503906 L 685.171875 433.789062 L 684.785156 438.40625 L 677.871094 435.503906 "/>
<path fill="none" stroke-width="1.5" stroke-linecap="butt" stroke-linejoin="miter" stroke="rgb(12.156863%, 47.058824%, 70.588235%)" stroke-opacity="1" stroke-miterlimit="10" d="M 750 348.042969 C 736.324219 353.425781 725.875 362.714844 721.921875 376.824219 "/>
<path fill-rule="nonzero" fill="rgb(12.156863%, 47.058824%, 70.588235%)" fill-opacity="1" d="M 720 383.691406 L 719.691406 376.199219 L 724.15625 377.449219 L 720 383.691406 "/>
<path fill-rule="nonzero" fill="rgb(100%, 84.313725%, 0%)" fill-opacity="1" stroke-width="1" stroke-linecap="butt" stroke-linejoin="miter" stroke="rgb(100%, 84.313725%, 0%)" stroke-opacity="1" stroke-miterlimit="10" d="M 509.160156 178.683594 L 515.660156 178.683594 L 515.660156 185.183594 L 509.160156 185.183594 Z M 509.160156 178.683594 "/>
<path fill-rule="nonzero" fill="rgb(12.156863%, 47.058824%, 70.588235%)" fill-opacity="1" stroke-width="1" stroke-linecap="butt" stroke-linejoin="miter" stroke="rgb(12.156863%, 47.058824%, 70.588235%)" stroke-opacity="1" stroke-miterlimit="10" d="M 489.066406 452.320312 C 489.066406 455.988281 483.566406 455.988281 483.566406 452.320312 C 483.566406 448.65625 489.066406 448.65625 489.066406 452.320312 "/>
<path fill-rule="nonzero" fill="rgb(12.156863%, 47.058824%, 70.588235%)" fill-opacity="1" stroke-width="1" stroke-linecap="butt" stroke-linejoin="miter" stroke="rgb(12.156863%, 47.058824%, 70.588235%)" stroke-opacity="1" stroke-miterlimit="10" d="M 121.382812 363.683594 C 121.382812 367.351562 115.882812 367.351562 115.882812 363.683594 C 115.882812 360.015625 121.382812 360.015625 121.382812 363.683594 "/>
<path fill-rule="nonzero" fill="rgb(30.196078%, 68.627451%, 29.019608%)" fill-opacity="1" stroke-width="1" stroke-linecap="butt" stroke-linejoin="miter" stroke="rgb(30.196078%, 68.627451%, 29.019608%)" stroke-opacity="1" stroke-miterlimit="10" d="M 349.792969 186.519531 C 349.792969 190.183594 344.292969 190.183594 344.292969 186.519531 C 344.292969 182.851562 349.792969 182.851562 349.792969 186.519531 "/>
<path fill-rule="nonzero" fill="rgb(12.156863%, 47.058824%, 70.588235%)" fill-opacity="1" stroke-width="1" stroke-linecap="butt" stroke-linejoin="miter" stroke="rgb(12.156863%, 47.058824%, 70.588235%)" stroke-opacity="1" stroke-miterlimit="10" d="M 72.605469 357.550781 C 72.605469 361.21875 67.105469 361.21875 67.105469 357.550781 C 67.105469 353.882812 72.605469 353.882812 72.605469 357.550781 "/>
<path fill-rule="nonzero" fill="rgb(12.156863%, 47.058824%, 70.588235%)" fill-opacity="1" stroke-width="1" stroke-linecap="butt" stroke-linejoin="miter" stroke="rgb(12.156863%, 47.058824%, 70.588235%)" stroke-opacity="1" stroke-miterlimit="10" d="M 178.710938 390.269531 C 178.710938 393.933594 173.210938 393.933594 173.210938 390.269531 C 173.210938 386.601562 178.710938 386.601562 178.710938 390.269531 "/>
<path fill-rule="nonzero" fill="rgb(12.156863%, 47.058824%, 70.588235%)" fill-opacity="1" stroke-width="1" stroke-linecap="butt" stroke-linejoin="miter" stroke="rgb(12.156863%, 47.058824%, 70.588235%)" stroke-opacity="1" stroke-miterlimit="10" d="M 52.75 398.121094 C 52.75 401.785156 47.25 401.785156 47.25 398.121094 C 47.25 394.453125 52.75 394.453125 52.75 398.121094 "/>
<path fill-rule="nonzero" fill="rgb(30.196078%, 68.627451%, 29.019608%)" fill-opacity="1" stroke-width="1" stroke-linecap="butt" stroke-linejoin="miter" stroke="rgb(30.196078%, 68.627451%, 29.019608%)" stroke-opacity="1" stroke-miterlimit="10" d="M 485.046875 224.679688 C 485.046875 228.347656 479.546875 228.347656 479.546875 224.679688 C 479.546875 221.015625 485.046875 221.015625 485.046875 224.679688 "/>
<path fill-rule="nonzero" fill="rgb(30.196078%, 68.627451%, 29.019608%)" fill-opacity="1" stroke-width="1" stroke-linecap="butt" stroke-linejoin="miter" stroke="rgb(30.196078%, 68.627451%, 29.019608%)" stroke-opacity="1" stroke-miterlimit="10" d="M 276.164062 232.121094 C 276.164062 235.785156 270.664062 235.785156 270.664062 232.121094 C 270.664062 228.453125 276.164062 228.453125 276.164062 232.121094 "/>
<path fill-rule="nonzero" fill="rgb(30.196078%, 68.627451%, 29.019608%)" fill-opacity="1" stroke-width="1" stroke-linecap="butt" stroke-linejoin="miter" stroke="rgb(30.196078%, 68.627451%, 29.019608%)" stroke-opacity="1" stroke-miterlimit="10" d="M 352.523438 358.199219 C 352.523438 361.867188 347.023438 361.867188 347.023438 358.199219 C 347.023438 354.53125 352.523438 354.53125 352.523438 358.199219 "/>
<path fill-rule="nonzero" fill="rgb(30.196078%, 68.627451%, 29.019608%)" fill-opacity="1" stroke-width="1" stroke-linecap="butt" stroke-linejoin="miter" stroke="rgb(30.196078%, 68.627451%, 29.019608%)" stroke-opacity="1" stroke-miterlimit="10" d="M 233.261719 412.332031 C 233.261719 415.996094 227.761719 415.996094 227.761719 412.332031 C 227.761719 408.664062 233.261719 408.664062 233.261719 412.332031 "/>
<path fill-rule="nonzero" fill="rgb(30.196078%, 68.627451%, 29.019608%)" fill-opacity="1" stroke-width="1" stroke-linecap="butt" stroke-linejoin="miter" stroke="rgb(30.196078%, 68.627451%, 29.019608%)" stroke-opacity="1" stroke-miterlimit="10" d="M 480.828125 334.496094 C 480.828125 338.160156 475.328125 338.160156 475.328125 334.496094 C 475.328125 330.828125 480.828125 330.828125 480.828125 334.496094 "/>
<path fill-rule="nonzero" fill="rgb(30.196078%, 68.627451%, 29.019608%)" fill-opacity="1" stroke-width="1" stroke-linecap="butt" stroke-linejoin="miter" stroke="rgb(30.196078%, 68.627451%, 29.019608%)" stroke-opacity="1" stroke-miterlimit="10" d="M 473.328125 280.605469 C 473.328125 284.269531 467.828125 284.269531 467.828125 280.605469 C 467.828125 276.9375 473.328125 276.9375 473.328125 280.605469 "/>
<path fill-rule="nonzero" fill="rgb(30.196078%, 68.627451%, 29.019608%)" fill-opacity="1" stroke-width="1" stroke-linecap="butt" stroke-linejoin="miter" stroke="rgb(30.196078%, 68.627451%, 29.019608%)" stroke-opacity="1" stroke-miterlimit="10" d="M 439.140625 220.976562 C 439.140625 224.644531 433.640625 224.644531 433.640625 220.976562 C 433.640625 217.3125 439.140625 217.3125 439.140625 220.976562 "/>
<path fill-rule="nonzero" fill="rgb(14.901961%, 14.901961%, 14.901961%)" fill-opacity="1" stroke-width="1" stroke-linecap="butt" stroke-linejoin="miter" stroke="rgb(14.901961%, 14.901961%, 14.901961%)" stroke-opacity="1" stroke-miterlimit="10" d="M 467.917969 381.148438 L 471.667969 373.648438 L 475.417969 381.148438 Z M 467.917969 381.148438 "/>
<path fill-rule="nonzero" fill="rgb(30.196078%, 68.627451%, 29.019608%)" fill-opacity="1" stroke-width="1" stroke-linecap="butt" stroke-linejoin="miter" stroke="rgb(30.196078%, 68.627451%, 29.019608%)" stroke-opacity="1" stroke-miterlimit="10" d="M 403.542969 180.746094 C 403.542969 184.414062 398.042969 184.414062 398.042969 180.746094 C 398.042969 177.078125 403.542969 177.078125 403.542969 180.746094 "/>
<path fill-rule="nonzero" fill="rgb(98.431373%, 60.392157%, 60%)" fill-opacity="1" stroke-width="1" stroke-linecap="butt" stroke-linejoin="miter" stroke="rgb(98.431373%, 60.392157%, 60%)" stroke-opacity="1" stroke-miterlimit="10" d="M 504.582031 502.367188 C 504.582031 506.035156 499.082031 506.035156 499.082031 502.367188 C 499.082031 498.703125 504.582031 498.703125 504.582031 502.367188 "/>
<path fill-rule="nonzero" fill="rgb(12.156863%, 47.058824%, 70.588235%)" fill-opacity="1" stroke-width="1" stroke-linecap="butt" stroke-linejoin="miter" stroke="rgb(12.156863%, 47.058824%, 70.588235%)" stroke-opacity="1" stroke-miterlimit="10" d="M 269.910156 405.871094 C 269.910156 409.539062 264.410156 409.539062 264.410156 405.871094 C 264.410156 402.203125 269.910156 402.203125 269.910156 405.871094 "/>
<path fill-rule="nonzero" fill="rgb(30.196078%, 68.627451%, 29.019608%)" fill-opacity="1" stroke-width="1" stroke-linecap="butt" stroke-linejoin="miter" stroke="rgb(30.196078%, 68.627451%, 29.019608%)" stroke-opacity="1" stroke-miterlimit="10" d="M 296.75 422.359375 C 296.75 426.027344 291.25 426.027344 291.25 422.359375 C 291.25 418.695312 296.75 418.695312 296.75 422.359375 "/>
<path fill-rule="nonzero" fill="rgb(98.431373%, 60.392157%, 60%)" fill-opacity="1" stroke-width="1" stroke-linecap="butt" stroke-linejoin="miter" stroke="rgb(98.431373%, 60.392157%, 60%)" stroke-opacity="1" stroke-miterlimit="10" d="M 561.25 504.507812 C 561.25 508.175781 555.75 508.175781 555.75 504.507812 C 555.75 500.84375 561.25 500.84375 561.25 504.507812 "/>
<path fill-rule="nonzero" fill="rgb(30.196078%, 68.627451%, 29.019608%)" fill-opacity="1" stroke-width="1" stroke-linecap="butt" stroke-linejoin="miter" stroke="rgb(30.196078%, 68.627451%, 29.019608%)" stroke-opacity="1" stroke-miterlimit="10" d="M 420.746094 288.886719 C 420.746094 292.554688 415.246094 292.554688 415.246094 288.886719 C 415.246094 285.21875 420.746094 285.21875 420.746094 288.886719 "/>
<path fill-rule="nonzero" fill="rgb(99.215686%, 74.901961%, 43.529412%)" fill-opacity="1" stroke-width="1" stroke-linecap="butt" stroke-linejoin="miter" stroke="rgb(99.215686%, 74.901961%, 43.529412%)" stroke-opacity="1" stroke-miterlimit="10" d="M 543.226562 422.871094 C 543.226562 426.539062 537.726562 426.539062 537.726562 422.871094 C 537.726562 419.207031 543.226562 419.207031 543.226562 422.871094 "/>
<path fill-rule="nonzero" fill="rgb(99.215686%, 74.901961%, 43.529412%)" fill-opacity="1" stroke-width="1" stroke-linecap="butt" stroke-linejoin="miter" stroke="rgb(99.215686%, 74.901961%, 43.529412%)" stroke-opacity="1" stroke-miterlimit="10" d="M 451.90625 700.566406 C 451.90625 704.230469 446.40625 704.230469 446.40625 700.566406 C 446.40625 696.898438 451.90625 696.898438 451.90625 700.566406 "/>
<path fill-rule="nonzero" fill="rgb(30.196078%, 68.627451%, 29.019608%)" fill-opacity="1" stroke-width="1" stroke-linecap="butt" stroke-linejoin="miter" stroke="rgb(30.196078%, 68.627451%, 29.019608%)" stroke-opacity="1" stroke-miterlimit="10" d="M 218.558594 349.921875 C 218.558594 353.589844 213.058594 353.589844 213.058594 349.921875 C 213.058594 346.253906 218.558594 346.253906 218.558594 349.921875 "/>
<path fill-rule="nonzero" fill="rgb(99.215686%, 74.901961%, 43.529412%)" fill-opacity="1" stroke-width="1" stroke-linecap="butt" stroke-linejoin="miter" stroke="rgb(99.215686%, 74.901961%, 43.529412%)" stroke-opacity="1" stroke-miterlimit="10" d="M 389.917969 606.300781 C 389.917969 609.96875 384.417969 609.96875 384.417969 606.300781 C 384.417969 602.636719 389.917969 602.636719 389.917969 606.300781 "/>
<path fill-rule="nonzero" fill="rgb(99.215686%, 74.901961%, 43.529412%)" fill-opacity="1" stroke-width="1" stroke-linecap="butt" stroke-linejoin="miter" stroke="rgb(99.215686%, 74.901961%, 43.529412%)" stroke-opacity="1" stroke-miterlimit="10" d="M 599.257812 332.679688 C 599.257812 337.679688 591.757812 337.679688 591.757812 332.679688 C 591.757812 327.679688 599.257812 327.679688 599.257812 332.679688 "/>
<path fill-rule="nonzero" fill="rgb(30.196078%, 68.627451%, 29.019608%)" fill-opacity="1" stroke-width="1" stroke-linecap="butt" stroke-linejoin="miter" stroke="rgb(30.196078%, 68.627451%, 29.019608%)" stroke-opacity="1" stroke-miterlimit="10" d="M 229.070312 287.339844 C 229.070312 291.007812 223.570312 291.007812 223.570312 287.339844 C 223.570312 283.671875 229.070312 283.671875 229.070312 287.339844 "/>
<path fill-rule="nonzero" fill="rgb(100%, 84.313725%, 0%)" fill-opacity="1" stroke-width="1" stroke-linecap="butt" stroke-linejoin="miter" stroke="rgb(100%, 84.313725%, 0%)" stroke-opacity="1" stroke-miterlimit="10" d="M 292.902344 70.59375 L 299.402344 70.59375 L 299.402344 77.09375 L 292.902344 77.09375 Z M 292.902344 70.59375 "/>
<path fill-rule="nonzero" fill="rgb(99.215686%, 74.901961%, 43.529412%)" fill-opacity="1" stroke-width="1" stroke-linecap="butt" stroke-linejoin="miter" stroke="rgb(99.215686%, 74.901961%, 43.529412%)" stroke-opacity="1" stroke-miterlimit="10" d="M 424.816406 597.960938 C 424.816406 602.296875 418.316406 602.296875 418.316406 597.960938 C 418.316406 593.628906 424.816406 593.628906 424.816406 597.960938 "/>
<path fill-rule="nonzero" fill="rgb(99.215686%, 74.901961%, 43.529412%)" fill-opacity="1" stroke-width="1" stroke-linecap="butt" stroke-linejoin="miter" stroke="rgb(99.215686%, 74.901961%, 43.529412%)" stroke-opacity="1" stroke-miterlimit="10" d="M 430.324219 656.109375 C 430.324219 659.777344 424.824219 659.777344 424.824219 656.109375 C 424.824219 652.445312 430.324219 652.445312 430.324219 656.109375 "/>
<path fill-rule="nonzero" fill="rgb(99.215686%, 74.901961%, 43.529412%)" fill-opacity="1" stroke-width="1" stroke-linecap="butt" stroke-linejoin="miter" stroke="rgb(99.215686%, 74.901961%, 43.529412%)" stroke-opacity="1" stroke-miterlimit="10" d="M 630.957031 335.304688 C 630.957031 338.972656 625.457031 338.972656 625.457031 335.304688 C 625.457031 331.640625 630.957031 331.640625 630.957031 335.304688 "/>
<path fill-rule="nonzero" fill="rgb(41.568627%, 23.921569%, 60.392157%)" fill-opacity="1" stroke-width="1" stroke-linecap="butt" stroke-linejoin="miter" stroke="rgb(41.568627%, 23.921569%, 60.392157%)" stroke-opacity="1" stroke-miterlimit="10" d="M 298.582031 116.175781 C 298.582031 119.839844 293.082031 119.839844 293.082031 116.175781 C 293.082031 112.507812 298.582031 112.507812 298.582031 116.175781 "/>
<path fill-rule="nonzero" fill="rgb(98.431373%, 60.392157%, 60%)" fill-opacity="1" stroke-width="1" stroke-linecap="butt" stroke-linejoin="miter" stroke="rgb(98.431373%, 60.392157%, 60%)" stroke-opacity="1" stroke-miterlimit="10" d="M 212.265625 225 C 212.265625 228.664062 206.765625 228.664062 206.765625 225 C 206.765625 221.332031 212.265625 221.332031 212.265625 225 "/>
<path fill-rule="nonzero" fill="rgb(12.156863%, 47.058824%, 70.588235%)" fill-opacity="1" stroke-width="1" stroke-linecap="butt" stroke-linejoin="miter" stroke="rgb(12.156863%, 47.058824%, 70.588235%)" stroke-opacity="1" stroke-miterlimit="10" d="M 57.234375 445.050781 C 57.234375 448.71875 51.734375 448.71875 51.734375 445.050781 C 51.734375 441.386719 57.234375 441.386719 57.234375 445.050781 "/>
<path fill-rule="nonzero" fill="rgb(14.901961%, 14.901961%, 14.901961%)" fill-opacity="1" stroke-width="1" stroke-linecap="butt" stroke-linejoin="miter" stroke="rgb(14.901961%, 14.901961%, 14.901961%)" stroke-opacity="1" stroke-miterlimit="10" d="M 58.019531 490.78125 L 61.769531 483.28125 L 65.519531 490.78125 Z M 58.019531 490.78125 "/>
<path fill-rule="nonzero" fill="rgb(99.215686%, 74.901961%, 43.529412%)" fill-opacity="1" stroke-width="1" stroke-linecap="butt" stroke-linejoin="miter" stroke="rgb(99.215686%, 74.901961%, 43.529412%)" stroke-opacity="1" stroke-miterlimit="10" d="M 472.074219 528.472656 C 472.074219 532.136719 466.574219 532.136719 466.574219 528.472656 C 466.574219 524.804688 472.074219 524.804688 472.074219 528.472656 "/>
<path fill-rule="nonzero" fill="rgb(99.215686%, 74.901961%, 43.529412%)" fill-opacity="1" stroke-width="1" stroke-linecap="butt" stroke-linejoin="miter" stroke="rgb(99.215686%, 74.901961%, 43.529412%)" stroke-opacity="1" stroke-miterlimit="10" d="M 487.421875 730.460938 C 487.421875 734.128906 481.921875 734.128906 481.921875 730.460938 C 481.921875 726.796875 487.421875 726.796875 487.421875 730.460938 "/>
<path fill-rule="nonzero" fill="rgb(98.431373%, 60.392157%, 60%)" fill-opacity="1" stroke-width="1" stroke-linecap="butt" stroke-linejoin="miter" stroke="rgb(98.431373%, 60.392157%, 60%)" stroke-opacity="1" stroke-miterlimit="10" d="M 277.082031 316.085938 C 277.082031 319.753906 271.582031 319.753906 271.582031 316.085938 C 271.582031 312.421875 277.082031 312.421875 277.082031 316.085938 "/>
<path fill-rule="nonzero" fill="rgb(98.431373%, 60.392157%, 60%)" fill-opacity="1" stroke-width="1" stroke-linecap="butt" stroke-linejoin="miter" stroke="rgb(98.431373%, 60.392157%, 60%)" stroke-opacity="1" stroke-miterlimit="10" d="M 422.75 470.273438 C 422.75 473.941406 417.25 473.941406 417.25 470.273438 C 417.25 466.609375 422.75 466.609375 422.75 470.273438 "/>
<path fill-rule="nonzero" fill="rgb(14.901961%, 14.901961%, 14.901961%)" fill-opacity="1" stroke-width="1" stroke-linecap="butt" stroke-linejoin="miter" stroke="rgb(14.901961%, 14.901961%, 14.901961%)" stroke-opacity="1" stroke-miterlimit="10" d="M 625.597656 280.351562 L 629.347656 272.851562 L 633.097656 280.351562 Z M 625.597656 280.351562 "/>
<path fill-rule="nonzero" fill="rgb(99.215686%, 74.901961%, 43.529412%)" fill-opacity="1" stroke-width="1" stroke-linecap="butt" stroke-linejoin="miter" stroke="rgb(99.215686%, 74.901961%, 43.529412%)" stroke-opacity="1" stroke-miterlimit="10" d="M 586.167969 300.675781 C 586.167969 304.34375 580.667969 304.34375 580.667969 300.675781 C 580.667969 297.007812 586.167969 297.007812 586.167969 300.675781 "/>
<path fill-rule="nonzero" fill="rgb(41.568627%, 23.921569%, 60.392157%)" fill-opacity="1" stroke-width="1" stroke-linecap="butt" stroke-linejoin="miter" stroke="rgb(41.568627%, 23.921569%, 60.392157%)" stroke-opacity="1" stroke-miterlimit="10" d="M 327.242188 224.042969 C 327.242188 227.710938 321.742188 227.710938 321.742188 224.042969 C 321.742188 220.375 327.242188 220.375 327.242188 224.042969 "/>
<path fill-rule="nonzero" fill="rgb(98.431373%, 60.392157%, 60%)" fill-opacity="1" stroke-width="1" stroke-linecap="butt" stroke-linejoin="miter" stroke="rgb(98.431373%, 60.392157%, 60%)" stroke-opacity="1" stroke-miterlimit="10" d="M 165.167969 96.320312 C 165.167969 99.984375 159.667969 99.984375 159.667969 96.320312 C 159.667969 92.652344 165.167969 92.652344 165.167969 96.320312 "/>
<path fill-rule="nonzero" fill="rgb(70.196078%, 70.196078%, 70.196078%)" fill-opacity="1" stroke-width="1" stroke-linecap="butt" stroke-linejoin="miter" stroke="rgb(70.196078%, 70.196078%, 70.196078%)" stroke-opacity="1" stroke-miterlimit="10" d="M 591.320312 464.960938 C 591.320312 471.425781 581.621094 471.425781 581.621094 464.960938 C 581.621094 458.492188 591.320312 458.492188 591.320312 464.960938 "/>
<path fill-rule="nonzero" fill="rgb(41.568627%, 23.921569%, 60.392157%)" fill-opacity="1" stroke-width="1" stroke-linecap="butt" stroke-linejoin="miter" stroke="rgb(41.568627%, 23.921569%, 60.392157%)" stroke-opacity="1" stroke-miterlimit="10" d="M 349.546875 269.425781 C 349.546875 273.089844 344.046875 273.089844 344.046875 269.425781 C 344.046875 265.757812 349.546875 265.757812 349.546875 269.425781 "/>
<path fill-rule="nonzero" fill="rgb(14.901961%, 14.901961%, 14.901961%)" fill-opacity="1" stroke-width="1" stroke-linecap="butt" stroke-linejoin="miter" stroke="rgb(14.901961%, 14.901961%, 14.901961%)" stroke-opacity="1" stroke-miterlimit="10" d="M 364.035156 310.335938 L 367.785156 302.835938 L 371.535156 310.335938 Z M 364.035156 310.335938 "/>
<path fill-rule="nonzero" fill="rgb(98.431373%, 60.392157%, 60%)" fill-opacity="1" stroke-width="1" stroke-linecap="butt" stroke-linejoin="miter" stroke="rgb(98.431373%, 60.392157%, 60%)" stroke-opacity="1" stroke-miterlimit="10" d="M 180.773438 154.796875 C 180.773438 158.460938 175.273438 158.460938 175.273438 154.796875 C 175.273438 151.128906 180.773438 151.128906 180.773438 154.796875 "/>
<path fill-rule="nonzero" fill="rgb(98.431373%, 60.392157%, 60%)" fill-opacity="1" stroke-width="1" stroke-linecap="butt" stroke-linejoin="miter" stroke="rgb(98.431373%, 60.392157%, 60%)" stroke-opacity="1" stroke-miterlimit="10" d="M 346.835938 406.039062 C 346.835938 409.703125 341.335938 409.703125 341.335938 406.039062 C 341.335938 402.371094 346.835938 402.371094 346.835938 406.039062 "/>
<path fill-rule="nonzero" fill="rgb(12.156863%, 47.058824%, 70.588235%)" fill-opacity="1" stroke-width="1" stroke-linecap="butt" stroke-linejoin="miter" stroke="rgb(12.156863%, 47.058824%, 70.588235%)" stroke-opacity="1" stroke-miterlimit="10" d="M 381.421875 439.890625 C 381.421875 443.554688 375.921875 443.554688 375.921875 439.890625 C 375.921875 436.222656 381.421875 436.222656 381.421875 439.890625 "/>
<path fill-rule="nonzero" fill="rgb(100%, 84.313725%, 0%)" fill-opacity="1" stroke-width="1" stroke-linecap="butt" stroke-linejoin="miter" stroke="rgb(100%, 84.313725%, 0%)" stroke-opacity="1" stroke-miterlimit="10" d="M 518.054688 746.75 L 524.554688 746.75 L 524.554688 753.25 L 518.054688 753.25 Z M 518.054688 746.75 "/>
<path fill-rule="nonzero" fill="rgb(70.196078%, 70.196078%, 70.196078%)" fill-opacity="1" stroke-width="1" stroke-linecap="butt" stroke-linejoin="miter" stroke="rgb(70.196078%, 70.196078%, 70.196078%)" stroke-opacity="1" stroke-miterlimit="10" d="M 677.835938 435.054688 C 677.835938 442.1875 667.136719 442.1875 667.136719 435.054688 C 667.136719 427.921875 677.835938 427.921875 677.835938 435.054688 "/>
<path fill-rule="nonzero" fill="rgb(41.568627%, 23.921569%, 60.392157%)" fill-opacity="1" stroke-width="1" stroke-linecap="butt" stroke-linejoin="miter" stroke="rgb(41.568627%, 23.921569%, 60.392157%)" stroke-opacity="1" stroke-miterlimit="10" d="M 303.921875 165.75 C 303.921875 169.414062 298.421875 169.414062 298.421875 165.75 C 298.421875 162.082031 303.921875 162.082031 303.921875 165.75 "/>
<path fill-rule="nonzero" fill="rgb(14.901961%, 14.901961%, 14.901961%)" fill-opacity="1" stroke-width="1" stroke-linecap="butt" stroke-linejoin="miter" stroke="rgb(14.901961%, 14.901961%, 14.901961%)" stroke-opacity="1" stroke-miterlimit="10" d="M 150.972656 53.75 L 154.722656 46.25 L 158.472656 53.75 Z M 150.972656 53.75 "/>
<path fill-rule="nonzero" fill="rgb(12.156863%, 47.058824%, 70.588235%)" fill-opacity="1" stroke-width="1" stroke-linecap="butt" stroke-linejoin="miter" stroke="rgb(12.156863%, 47.058824%, 70.588235%)" stroke-opacity="1" stroke-miterlimit="10" d="M 722.042969 386.210938 C 722.042969 389.878906 716.542969 389.878906 716.542969 386.210938 C 716.542969 382.546875 722.042969 382.546875 722.042969 386.210938 "/>
<path fill-rule="nonzero" fill="rgb(100%, 84.313725%, 0%)" fill-opacity="1" stroke-width="1" stroke-linecap="butt" stroke-linejoin="miter" stroke="rgb(100%, 84.313725%, 0%)" stroke-opacity="1" stroke-miterlimit="10" d="M 709.894531 452.152344 L 716.394531 452.152344 L 716.394531 458.652344 L 709.894531 458.652344 Z M 709.894531 452.152344 "/>
<path fill-rule="nonzero" fill="rgb(100%, 84.313725%, 0%)" fill-opacity="1" stroke-width="1" stroke-linecap="butt" stroke-linejoin="miter" stroke="rgb(100%, 84.313725%, 0%)" stroke-opacity="1" stroke-miterlimit="10" d="M 746.75 344.792969 L 753.25 344.792969 L 753.25 351.292969 L 746.75 351.292969 Z M 746.75 344.792969 "/>
</svg>
