<?xml version="1.0" encoding="UTF-8"?>
<svg xmlns="http://www.w3.org/2000/svg" xmlns:xlink="http://www.w3.org/1999/xlink" width="800" height="800" viewBox="0 0 800 800">
<rect x="-80" y="-80" width="960" height="960" fill="rgb(100%, 100%, 100%)" fill-opacity="1"/>
<path fill="none" stroke-width="2.5" stroke-linecap="butt" stroke-linejoin="miter" stroke="rgb(70.196078%, 70.196078%, 70.196078%)" stroke-opacity="1" stroke-miterlimit="10" d="M 540.785156 366.691406 C 548.320312 341.773438 546.257812 317.554688 531.609375 296.066406 "/>
<path fill-rule="nonzero" fill="rgb(70.196078%, 70.196078%, 70.196078%)" fill-opacity="1" d="M 527.59375 290.171875 L 533.523438 294.761719 L 529.695312 297.371094 L 527.59375 290.171875 "/>
<path fill="none" stroke-width="2.5" stroke-linecap="butt" stroke-linejoin="miter" stroke="rgb(70.196078%, 70.196078%, 70.196078%)" stroke-opacity="1" stroke-miterlimit="10" d="M 697.222656 448.335938 C 671.214844 429.703125 642.308594 422.800781 611.417969 431.050781 "/>
<path fill-rule="nonzero" fill="rgb(70.196078%, 70.196078%, 70.196078%)" fill-opacity="1" d="M 604.523438 432.890625 L 610.820312 428.808594 L 612.015625 433.289062 L 604.523438 432.890625 "/>
<path fill="none" stroke-width="1.5" stroke-linecap="butt" stroke-linejoin="miter" stroke="rgb(12.156863%, 47.058824%, 70.588235%)" stroke-opacity="1" stroke-miterlimit="10" d="M 697.222656 448.335938 C 687.597656 488.285156 693.628906 525.785156 718.050781 558.808594 "/>
<path fill-rule="nonzero" fill="rgb(12.156863%, 47.058824%, 70.588235%)" fill-opacity="1" d="M 722.292969 564.542969 L 716.1875 560.1875 L 719.917969 557.429688 L 722.292969 564.542969 "/>
<path fill="none" stroke-width="2.5" stroke-linecap="butt" stroke-linejoin="miter" stroke="rgb(70.196078%, 70.196078%, 70.196078%)" stroke-opacity="1" stroke-miterlimit="10" d="M 600.058594 434.082031 C 593.1875 406 577.472656 384.160156 551.394531 371.742188 "/>
<path fill-rule="nonzero" fill="rgb(70.196078%, 70.196078%, 70.196078%)" fill-opacity="1" d="M 544.953125 368.675781 L 552.390625 369.652344 L 550.398438 373.835938 L 544.953125 368.675781 "/>
<path fill="none" stroke-width="1.5" stroke-linecap="butt" stroke-linejoin="miter" stroke="rgb(12.156863%, 47.058824%, 70.588235%)" stroke-opacity="1" stroke-miterlimit="10" d="M 731.597656 666.1875 C 715.90625 688.59375 710.128906 713.414062 717.601562 739.699219 "/>
<path fill-rule="nonzero" fill="rgb(12.156863%, 47.058824%, 70.588235%)" fill-opacity="1" d="M 719.554688 746.5625 L 715.375 740.332031 L 719.832031 739.066406 L 719.554688 746.5625 "/>
<path fill="none" stroke-width="1.5" stroke-linecap="butt" stroke-linejoin="miter" stroke="rgb(99.215686%, 74.901961%, 43.529412%)" stroke-opacity="1" stroke-miterlimit="10" d="M 306.714844 99.789062 C 283.253906 119.859375 270.066406 145.355469 270.71875 176.199219 "/>
<path fill-rule="nonzero" fill="rgb(99.215686%, 74.901961%, 43.529412%)" fill-opacity="1" d="M 270.871094 183.332031 L 268.402344 176.246094 L 273.035156 176.148438 L 270.871094 183.332031 "/>
<path fill="none" stroke-width="2.5" stroke-linecap="butt" stroke-linejoin="miter" stroke="rgb(70.196078%, 70.196078%, 70.196078%)" stroke-opacity="1" stroke-miterlimit="10" d="M 122.214844 553.371094 C 133.644531 511.984375 128.632812 472.617188 104.261719 437.285156 "/>
<path fill-rule="nonzero" fill="rgb(70.196078%, 70.196078%, 70.196078%)" fill-opacity="1" d="M 100.210938 431.414062 L 106.167969 435.972656 L 102.355469 438.601562 L 100.210938 431.414062 "/>
<path fill="none" stroke-width="1.5" stroke-linecap="butt" stroke-linejoin="miter" stroke="rgb(30.196078%, 68.627451%, 29.019608%)" stroke-opacity="1" stroke-miterlimit="10" d="M 174.414062 116.925781 C 161.675781 136.949219 157.445312 158.757812 165.117188 181.1875 "/>
<path fill-rule="nonzero" fill="rgb(30.196078%, 68.627451%, 29.019608%)" fill-opacity="1" d="M 167.421875 187.9375 L 162.921875 181.9375 L 167.308594 180.4375 L 167.421875 187.9375 "/>
<path fill="none" stroke-width="1.5" stroke-linecap="butt" stroke-linejoin="miter" stroke="rgb(99.215686%, 74.901961%, 43.529412%)" stroke-opacity="1" stroke-miterlimit="10" d="M 174.414062 116.925781 C 204.542969 107.289062 227.042969 88.425781 238.761719 59.066406 "/>
<path fill-rule="nonzero" fill="rgb(99.215686%, 74.901961%, 43.529412%)" fill-opacity="1" d="M 241.40625 52.441406 L 240.914062 59.925781 L 236.609375 58.207031 L 241.40625 52.441406 "/>
<path fill="none" stroke-width="1.5" stroke-linecap="butt" stroke-linejoin="miter" stroke="rgb(30.196078%, 68.627451%, 29.019608%)" stroke-opacity="1" stroke-miterlimit="10" d="M 97.585938 427.605469 C 118.265625 395.675781 124.648438 361.03125 113.332031 324.734375 "/>
<path fill-rule="nonzero" fill="rgb(30.196078%, 68.627451%, 29.019608%)" fill-opacity="1" d="M 111.207031 317.925781 L 115.542969 324.042969 L 111.121094 325.425781 L 111.207031 317.925781 "/>
<path fill="none" stroke-width="1.5" stroke-linecap="butt" stroke-linejoin="miter" stroke="rgb(99.215686%, 74.901961%, 43.529412%)" stroke-opacity="1" stroke-miterlimit="10" d="M 97.585938 427.605469 C 93.324219 402.25 80.855469 381.769531 58.496094 369.125 "/>
<path fill-rule="nonzero" fill="rgb(99.215686%, 74.901961%, 43.529412%)" fill-opacity="1" d="M 52.285156 365.613281 L 59.636719 367.109375 L 57.355469 371.144531 L 52.285156 365.613281 "/>
<path fill="none" stroke-width="1.5" stroke-linecap="butt" stroke-linejoin="miter" stroke="rgb(12.156863%, 47.058824%, 70.588235%)" stroke-opacity="1" stroke-miterlimit="10" d="M 731.242188 327.296875 C 703.015625 358.25 689.949219 394.71875 695.578125 436.214844 "/>
<path fill-rule="nonzero" fill="rgb(12.156863%, 47.058824%, 70.588235%)" fill-opacity="1" d="M 696.539062 443.28125 L 693.28125 436.523438 L 697.875 435.902344 L 696.539062 443.28125 "/>
<path fill="none" stroke-width="2.5" stroke-linecap="butt" stroke-linejoin="miter" stroke="rgb(70.196078%, 70.196078%, 70.196078%)" stroke-opacity="1" stroke-miterlimit="10" d="M 731.242188 327.296875 C 726.078125 349.027344 728.992188 369.757812 742.753906 387.3125 "/>
<path fill-rule="nonzero" fill="rgb(70.196078%, 70.196078%, 70.196078%)" fill-opacity="1" d="M 747.15625 392.925781 L 740.929688 388.742188 L 744.578125 385.882812 L 747.15625 392.925781 "/>
<path fill="none" stroke-width="2.5" stroke-linecap="butt" stroke-linejoin="miter" stroke="rgb(70.196078%, 70.196078%, 70.196078%)" stroke-opacity="1" stroke-miterlimit="10" d="M 109.691406 313.058594 C 145.476562 285.96875 166.292969 250.113281 168.5625 205.304688 "/>
<path fill-rule="nonzero" fill="rgb(70.196078%, 70.196078%, 70.196078%)" fill-opacity="1" d="M 168.925781 198.179688 L 170.878906 205.421875 L 166.25 205.1875 L 168.925781 198.179688 "/>
<path fill="none" stroke-width="3.5" stroke-linecap="butt" stroke-linejoin="miter" stroke="rgb(70.196078%, 70.196078%, 70.196078%)" stroke-opacity="1" stroke-miterlimit="10" d="M 734.964844 216.246094 C 717.273438 248.410156 713.5 282.214844 726.9375 316.355469 "/>
<path fill-rule="nonzero" fill="rgb(70.196078%, 70.196078%, 70.196078%)" fill-opacity="1" d="M 729.550781 322.992188 L 724.78125 317.203125 L 729.09375 315.507812 L 729.550781 322.992188 "/>
<path fill="none" stroke-width="1.5" stroke-linecap="butt" stroke-linejoin="miter" stroke="rgb(30.196078%, 68.627451%, 29.019608%)" stroke-opacity="1" stroke-miterlimit="10" d="M 188.84375 620.730469 C 179.820312 591.519531 161.832031 569.5 133.539062 557.980469 "/>
<path fill-rule="nonzero" fill="rgb(30.196078%, 68.627451%, 29.019608%)" fill-opacity="1" d="M 126.929688 555.292969 L 134.410156 555.835938 L 132.664062 560.128906 L 126.929688 555.292969 "/>
<path fill="none" stroke-width="1.5" stroke-linecap="butt" stroke-linejoin="miter" stroke="rgb(12.156863%, 47.058824%, 70.588235%)" stroke-opacity="1" stroke-miterlimit="10" d="M 723.859375 566.65625 C 711.261719 597.433594 711.308594 628.277344 726.992188 657.582031 "/>
<path fill-rule="nonzero" fill="rgb(12.156863%, 47.058824%, 70.588235%)" fill-opacity="1" d="M 730.355469 663.871094 L 724.945312 658.675781 L 729.035156 656.488281 L 730.355469 663.871094 "/>
<path fill="none" stroke-width="2.5" stroke-linecap="butt" stroke-linejoin="miter" stroke="rgb(70.196078%, 70.196078%, 70.196078%)" stroke-opacity="1" stroke-miterlimit="10" d="M 270.976562 188.421875 C 271.34375 215.347656 280.984375 238.542969 302.121094 255.1875 "/>
<path fill-rule="nonzero" fill="rgb(70.196078%, 70.196078%, 70.196078%)" fill-opacity="1" d="M 307.726562 259.601562 L 300.6875 257.007812 L 303.554688 253.367188 L 307.726562 259.601562 "/>
<path fill="none" stroke-width="2.5" stroke-linecap="butt" stroke-linejoin="miter" stroke="rgb(70.196078%, 70.196078%, 70.196078%)" stroke-opacity="1" stroke-miterlimit="10" d="M 169.183594 193.085938 C 181.964844 172.757812 186.101562 150.683594 178.253906 128.023438 "/>
<path fill-rule="nonzero" fill="rgb(70.196078%, 70.196078%, 70.196078%)" fill-opacity="1" d="M 175.921875 121.28125 L 180.445312 127.265625 L 176.066406 128.78125 L 175.921875 121.28125 "/>
<path fill="none" stroke-width="1.5" stroke-linecap="butt" stroke-linejoin="miter" stroke="rgb(30.196078%, 68.627451%, 29.019608%)" stroke-opacity="1" stroke-miterlimit="10" d="M 169.183594 193.085938 C 199.347656 206.925781 230.128906 208.21875 259.972656 193.753906 "/>
<path fill-rule="nonzero" fill="rgb(30.196078%, 68.627451%, 29.019608%)" fill-opacity="1" d="M 266.390625 190.644531 L 260.984375 195.839844 L 258.960938 191.667969 L 266.390625 190.644531 "/>
<path fill="none" stroke-width="1.5" stroke-linecap="butt" stroke-linejoin="miter" stroke="rgb(99.215686%, 74.901961%, 43.529412%)" stroke-opacity="1" stroke-miterlimit="10" d="M 50 364.324219 C 74.136719 359.019531 93.28125 346.105469 104.257812 324 "/>
<path fill-rule="nonzero" fill="rgb(99.215686%, 74.901961%, 43.529412%)" fill-opacity="1" d="M 107.429688 317.609375 L 106.335938 325.03125 L 102.183594 322.96875 L 107.429688 317.609375 "/>
<path fill="none" stroke-width="1.5" stroke-linecap="butt" stroke-linejoin="miter" stroke="rgb(99.215686%, 74.901961%, 43.529412%)" stroke-opacity="1" stroke-miterlimit="10" d="M 242.378906 50 C 253.558594 74.03125 271.570312 90.933594 297.25 97.40625 "/>
<path fill-rule="nonzero" fill="rgb(99.215686%, 74.901961%, 43.529412%)" fill-opacity="1" d="M 304.167969 99.148438 L 296.683594 99.652344 L 297.816406 95.15625 L 304.167969 99.148438 "/>
<path fill="none" stroke-width="2.5" stroke-linecap="butt" stroke-linejoin="miter" stroke="rgb(70.196078%, 70.196078%, 70.196078%)" stroke-opacity="1" stroke-miterlimit="10" d="M 750 396.554688 C 728 402.765625 710.933594 415.699219 702.09375 436.746094 "/>
<path fill-rule="nonzero" fill="rgb(70.196078%, 70.196078%, 70.196078%)" fill-opacity="1" d="M 699.328125 443.324219 L 699.957031 435.847656 L 704.230469 437.644531 L 699.328125 443.324219 "/>
<path fill="none" stroke-width="3.5" stroke-linecap="butt" stroke-linejoin="miter" stroke="rgb(70.196078%, 70.196078%, 70.196078%)" stroke-opacity="1" stroke-miterlimit="10" d="M 721.53125 128.59375 C 712.289062 155.570312 713.699219 182.085938 728.757812 206.269531 "/>
<path fill-rule="nonzero" fill="rgb(70.196078%, 70.196078%, 70.196078%)" fill-opacity="1" d="M 732.527344 212.328125 L 726.789062 207.496094 L 730.722656 205.046875 L 732.527344 212.328125 "/>
<path fill="none" stroke-width="1.5" stroke-linecap="butt" stroke-linejoin="miter" stroke="rgb(30.196078%, 68.627451%, 29.019608%)" stroke-opacity="1" stroke-miterlimit="10" d="M 160.957031 696.867188 C 180.40625 679.003906 191.03125 656.804688 189.433594 630.46875 "/>
<path fill-rule="nonzero" fill="rgb(30.196078%, 68.627451%, 29.019608%)" fill-opacity="1" d="M 189 623.351562 L 191.746094 630.328125 L 187.121094 630.609375 L 189 623.351562 "/>
<path fill="none" stroke-width="1.5" stroke-linecap="butt" stroke-linejoin="miter" stroke="rgb(99.215686%, 74.901961%, 43.529412%)" stroke-opacity="1" stroke-miterlimit="10" d="M 160.957031 696.867188 C 150.089844 672.765625 132.324219 655.695312 106.792969 648.9375 "/>
<path fill-rule="nonzero" fill="rgb(99.215686%, 74.901961%, 43.529412%)" fill-opacity="1" d="M 99.894531 647.113281 L 107.382812 646.695312 L 106.199219 651.179688 L 99.894531 647.113281 "/>
<path fill="none" stroke-width="1.5" stroke-linecap="butt" stroke-linejoin="miter" stroke="rgb(99.215686%, 74.901961%, 43.529412%)" stroke-opacity="1" stroke-miterlimit="10" d="M 97.355469 646.441406 C 118.371094 623.441406 128.417969 596.28125 123.964844 565.472656 "/>
<path fill-rule="nonzero" fill="rgb(99.215686%, 74.901961%, 43.529412%)" fill-opacity="1" d="M 122.945312 558.414062 L 126.257812 565.140625 L 121.671875 565.804688 L 122.945312 558.414062 "/>
<path fill-rule="nonzero" fill="rgb(70.196078%, 70.196078%, 70.196078%)" fill-opacity="1" stroke-width="1" stroke-linecap="butt" stroke-linejoin="miter" stroke="rgb(70.196078%, 70.196078%, 70.196078%)" stroke-opacity="1" stroke-miterlimit="10" d="M 545.636719 366.691406 C 545.636719 373.160156 535.933594 373.160156 535.933594 366.691406 C 535.933594 360.226562 545.636719 360.226562 545.636719 366.691406 "/>
<path fill-rule="nonzero" fill="rgb(70.196078%, 70.196078%, 70.196078%)" fill-opacity="1" stroke-width="1" stroke-linecap="butt" stroke-linejoin="miter" stroke="rgb(70.196078%, 70.196078%, 70.196078%)" stroke-opacity="1" stroke-miterlimit="10" d="M 702.574219 448.335938 C 702.574219 455.46875 691.875 455.46875 691.875 448.335938 C 691.875 441.203125 702.574219 441.203125 702.574219 448.335938 "/>
<path fill-rule="nonzero" fill="rgb(70.196078%, 70.196078%, 70.196078%)" fill-opacity="1" stroke-width="1" stroke-linecap="butt" stroke-linejoin="miter" stroke="rgb(70.196078%, 70.196078%, 70.196078%)" stroke-opacity="1" stroke-miterlimit="10" d="M 604.910156 434.082031 C 604.910156 440.546875 595.210938 440.546875 595.210938 434.082031 C 595.210938 427.613281 604.910156 427.613281 604.910156 434.082031 "/>
<path fill-rule="nonzero" fill="rgb(12.156863%, 47.058824%, 70.588235%)" fill-opacity="1" stroke-width="1" stroke-linecap="butt" stroke-linejoin="miter" stroke="rgb(12.156863%, 47.058824%, 70.588235%)" stroke-opacity="1" stroke-miterlimit="10" d="M 734.347656 666.1875 C 734.347656 669.855469 728.847656 669.855469 728.847656 666.1875 C 728.847656 662.519531 734.347656 662.519531 734.347656 666.1875 "/>
<path fill-rule="nonzero" fill="rgb(99.215686%, 74.901961%, 43.529412%)" fill-opacity="1" stroke-width="1" stroke-linecap="butt" stroke-linejoin="miter" stroke="rgb(99.215686%, 74.901961%, 43.529412%)" stroke-opacity="1" stroke-miterlimit="10" d="M 309.464844 99.789062 C 309.464844 103.457031 303.964844 103.457031 303.964844 99.789062 C 303.964844 96.125 309.464844 96.125 309.464844 99.789062 "/>
<path fill-rule="nonzero" fill="rgb(70.196078%, 70.196078%, 70.196078%)" fill-opacity="1" stroke-width="1" stroke-linecap="butt" stroke-linejoin="miter" stroke="rgb(70.196078%, 70.196078%, 70.196078%)" stroke-opacity="1" stroke-miterlimit="10" d="M 127.566406 553.371094 C 127.566406 560.507812 116.867188 560.507812 116.867188 553.371094 C 116.867188 546.238281 127.566406 546.238281 127.566406 553.371094 "/>
<path fill-rule="nonzero" fill="rgb(70.196078%, 70.196078%, 70.196078%)" fill-opacity="1" stroke-width="1" stroke-linecap="butt" stroke-linejoin="miter" stroke="rgb(70.196078%, 70.196078%, 70.196078%)" stroke-opacity="1" stroke-miterlimit="10" d="M 179.261719 116.925781 C 179.261719 123.390625 169.5625 123.390625 169.5625 116.925781 C 169.5625 110.457031 179.261719 110.457031 179.261719 116.925781 "/>
<path fill-rule="nonzero" fill="rgb(70.196078%, 70.196078%, 70.196078%)" fill-opacity="1" stroke-width="1" stroke-linecap="butt" stroke-linejoin="miter" stroke="rgb(70.196078%, 70.196078%, 70.196078%)" stroke-opacity="1" stroke-miterlimit="10" d="M 102.433594 427.605469 C 102.433594 434.070312 92.734375 434.070312 92.734375 427.605469 C 92.734375 421.136719 102.433594 421.136719 102.433594 427.605469 "/>
<path fill-rule="nonzero" fill="rgb(70.196078%, 70.196078%, 70.196078%)" fill-opacity="1" stroke-width="1" stroke-linecap="butt" stroke-linejoin="miter" stroke="rgb(70.196078%, 70.196078%, 70.196078%)" stroke-opacity="1" stroke-miterlimit="10" d="M 736.09375 327.296875 C 736.09375 333.761719 726.394531 333.761719 726.394531 327.296875 C 726.394531 320.828125 736.09375 320.828125 736.09375 327.296875 "/>
<path fill-rule="nonzero" fill="rgb(70.196078%, 70.196078%, 70.196078%)" fill-opacity="1" stroke-width="1" stroke-linecap="butt" stroke-linejoin="miter" stroke="rgb(70.196078%, 70.196078%, 70.196078%)" stroke-opacity="1" stroke-miterlimit="10" d="M 115.042969 313.058594 C 115.042969 320.191406 104.339844 320.191406 104.339844 313.058594 C 104.339844 305.925781 115.042969 305.925781 115.042969 313.058594 "/>
<path fill-rule="nonzero" fill="rgb(70.196078%, 70.196078%, 70.196078%)" fill-opacity="1" stroke-width="1" stroke-linecap="butt" stroke-linejoin="miter" stroke="rgb(70.196078%, 70.196078%, 70.196078%)" stroke-opacity="1" stroke-miterlimit="10" d="M 739.816406 216.246094 C 739.816406 222.710938 730.117188 222.710938 730.117188 216.246094 C 730.117188 209.777344 739.816406 209.777344 739.816406 216.246094 "/>
<path fill-rule="nonzero" fill="rgb(30.196078%, 68.627451%, 29.019608%)" fill-opacity="1" stroke-width="1" stroke-linecap="butt" stroke-linejoin="miter" stroke="rgb(30.196078%, 68.627451%, 29.019608%)" stroke-opacity="1" stroke-miterlimit="10" d="M 191.59375 620.730469 C 191.59375 624.394531 186.09375 624.394531 186.09375 620.730469 C 186.09375 617.0625 191.59375 617.0625 191.59375 620.730469 "/>
<path fill-rule="nonzero" fill="rgb(14.901961%, 14.901961%, 14.901961%)" fill-opacity="1" stroke-width="1" stroke-linecap="butt" stroke-linejoin="miter" stroke="rgb(14.901961%, 14.901961%, 14.901961%)" stroke-opacity="1" stroke-miterlimit="10" d="M 716.78125 753.75 L 720.53125 746.25 L 724.28125 753.75 Z M 716.78125 753.75 "/>
<path fill-rule="nonzero" fill="rgb(12.156863%, 47.058824%, 70.588235%)" fill-opacity="1" stroke-width="1" stroke-linecap="butt" stroke-linejoin="miter" stroke="rgb(12.156863%, 47.058824%, 70.588235%)" stroke-opacity="1" stroke-miterlimit="10" d="M 726.609375 566.65625 C 726.609375 570.324219 721.109375 570.324219 721.109375 566.65625 C 721.109375 562.992188 726.609375 562.992188 726.609375 566.65625 "/>
<path fill-rule="nonzero" fill="rgb(14.901961%, 14.901961%, 14.901961%)" fill-opacity="1" stroke-width="1" stroke-linecap="butt" stroke-linejoin="miter" stroke="rgb(14.901961%, 14.901961%, 14.901961%)" stroke-opacity="1" stroke-miterlimit="10" d="M 306.242188 268.886719 L 312.09375 257.1875 L 317.941406 268.886719 Z M 306.242188 268.886719 "/>
<path fill-rule="nonzero" fill="rgb(70.196078%, 70.196078%, 70.196078%)" fill-opacity="1" stroke-width="1" stroke-linecap="butt" stroke-linejoin="miter" stroke="rgb(70.196078%, 70.196078%, 70.196078%)" stroke-opacity="1" stroke-miterlimit="10" d="M 276.328125 188.421875 C 276.328125 195.554688 265.625 195.554688 265.625 188.421875 C 265.625 181.289062 276.328125 181.289062 276.328125 188.421875 "/>
<path fill-rule="nonzero" fill="rgb(14.901961%, 14.901961%, 14.901961%)" fill-opacity="1" stroke-width="1" stroke-linecap="butt" stroke-linejoin="miter" stroke="rgb(14.901961%, 14.901961%, 14.901961%)" stroke-opacity="1" stroke-miterlimit="10" d="M 518.390625 291.109375 L 524.242188 279.40625 L 530.09375 291.109375 Z M 518.390625 291.109375 "/>
<path fill-rule="nonzero" fill="rgb(70.196078%, 70.196078%, 70.196078%)" fill-opacity="1" stroke-width="1" stroke-linecap="butt" stroke-linejoin="miter" stroke="rgb(70.196078%, 70.196078%, 70.196078%)" stroke-opacity="1" stroke-miterlimit="10" d="M 174.535156 193.085938 C 174.535156 200.21875 163.832031 200.21875 163.832031 193.085938 C 163.832031 185.949219 174.535156 185.949219 174.535156 193.085938 "/>
<path fill-rule="nonzero" fill="rgb(99.215686%, 74.901961%, 43.529412%)" fill-opacity="1" stroke-width="1" stroke-linecap="butt" stroke-linejoin="miter" stroke="rgb(99.215686%, 74.901961%, 43.529412%)" stroke-opacity="1" stroke-miterlimit="10" d="M 52.75 364.324219 C 52.75 367.988281 47.25 367.988281 47.25 364.324219 C 47.25 360.65625 52.75 360.65625 52.75 364.324219 "/>
<path fill-rule="nonzero" fill="rgb(99.215686%, 74.901961%, 43.529412%)" fill-opacity="1" stroke-width="1" stroke-linecap="butt" stroke-linejoin="miter" stroke="rgb(99.215686%, 74.901961%, 43.529412%)" stroke-opacity="1" stroke-miterlimit="10" d="M 245.128906 50 C 245.128906 53.667969 239.628906 53.667969 239.628906 50 C 239.628906 46.332031 245.128906 46.332031 245.128906 50 "/>
<path fill-rule="nonzero" fill="rgb(70.196078%, 70.196078%, 70.196078%)" fill-opacity="1" stroke-width="1" stroke-linecap="butt" stroke-linejoin="miter" stroke="rgb(70.196078%, 70.196078%, 70.196078%)" stroke-opacity="1" stroke-miterlimit="10" d="M 754.851562 396.554688 C 754.851562 403.019531 745.148438 403.019531 745.148438 396.554688 C 745.148438 390.085938 754.851562 390.085938 754.851562 396.554688 "/>
<path fill-rule="nonzero" fill="rgb(100%, 84.313725%, 0%)" fill-opacity="1" stroke-width="1" stroke-linecap="butt" stroke-linejoin="miter" stroke="rgb(100%, 84.313725%, 0%)" stroke-opacity="1" stroke-miterlimit="10" d="M 716.183594 123.246094 L 726.882812 123.246094 L 726.882812 133.945312 L 716.183594 133.945312 Z M 716.183594 123.246094 "/>
<path fill-rule="nonzero" fill="rgb(100%, 84.313725%, 0%)" fill-opacity="1" stroke-width="1" stroke-linecap="butt" stroke-linejoin="miter" stroke="rgb(100%, 84.313725%, 0%)" stroke-opacity="1" stroke-miterlimit="10" d="M 155.605469 691.515625 L 166.304688 691.515625 L 166.304688 702.214844 L 155.605469 702.214844 Z M 155.605469 691.515625 "/>
<path fill-rule="nonzero" fill="rgb(99.215686%, 74.901961%, 43.529412%)" fill-opacity="1" stroke-width="1" stroke-linecap="butt" stroke-linejoin="miter" stroke="rgb(99.215686%, 74.901961%, 43.529412%)" stroke-opacity="1" stroke-miterlimit="10" d="M 100.105469 646.441406 C 100.105469 650.109375 94.605469 650.109375 94.605469 646.441406 C 94.605469 642.773438 100.105469 642.773438 100.105469 646.441406 "/>
</svg>
