<?xml version="1.0" encoding="UTF-8"?>
<svg xmlns="http://www.w3.org/2000/svg" xmlns:xlink="http://www.w3.org/1999/xlink" width="800" height="800" viewBox="0 0 800 800">
<rect x="-80" y="-80" width="960" height="960" fill="rgb(100%, 100%, 100%)" fill-opacity="1"/>
<path fill="none" stroke-width="4.5" stroke-linecap="butt" stroke-linejoin="miter" stroke="rgb(70.196078%, 70.196078%, 70.196078%)" stroke-opacity="1" stroke-miterlimit="10" d="M 473.175781 74.652344 C 446.664062 52 415.933594 41.910156 381.601562 47.898438 "/>
<path fill-rule="nonzero" fill="rgb(70.196078%, 70.196078%, 70.196078%)" fill-opacity="1" d="M 374.574219 49.125 L 381.203125 45.613281 L 382 50.179688 L 374.574219 49.125 "/>
<path fill="none" stroke-width="4.5" stroke-linecap="butt" stroke-linejoin="miter" stroke="rgb(70.196078%, 70.196078%, 70.196078%)" stroke-opacity="1" stroke-miterlimit="10" d="M 564.414062 120.875 C 544.734375 93.78125 518.308594 77.441406 484.910156 75.378906 "/>
<path fill-rule="nonzero" fill="rgb(70.196078%, 70.196078%, 70.196078%)" fill-opacity="1" d="M 477.789062 74.9375 L 485.050781 73.0625 L 484.765625 77.691406 L 477.789062 74.9375 "/>
<path fill="none" stroke-width="5.5" stroke-linecap="butt" stroke-linejoin="miter" stroke="rgb(70.196078%, 70.196078%, 70.196078%)" stroke-opacity="1" stroke-miterlimit="10" d="M 310.238281 627.179688 C 339.503906 614.347656 360.175781 593.046875 368.851562 562.3125 "/>
<path fill-rule="nonzero" fill="rgb(70.196078%, 70.196078%, 70.196078%)" fill-opacity="1" d="M 370.785156 555.449219 L 371.082031 562.941406 L 366.621094 561.683594 L 370.785156 555.449219 "/>
<path fill="none" stroke-width="4.5" stroke-linecap="butt" stroke-linejoin="miter" stroke="rgb(70.196078%, 70.196078%, 70.196078%)" stroke-opacity="1" stroke-miterlimit="10" d="M 417.949219 454.65625 C 468.824219 439.863281 506.671875 409.003906 528.261719 360.636719 "/>
<path fill-rule="nonzero" fill="rgb(70.196078%, 70.196078%, 70.196078%)" fill-opacity="1" d="M 531.167969 354.125 L 530.378906 361.582031 L 526.144531 359.695312 L 531.167969 354.125 "/>
<path fill="none" stroke-width="1.5" stroke-linecap="butt" stroke-linejoin="miter" stroke="rgb(12.156863%, 47.058824%, 70.588235%)" stroke-opacity="1" stroke-miterlimit="10" d="M 417.949219 454.65625 C 391.230469 434.699219 361.273438 427.007812 328.882812 434.875 "/>
<path fill-rule="nonzero" fill="rgb(12.156863%, 47.058824%, 70.588235%)" fill-opacity="1" d="M 321.953125 436.558594 L 328.335938 432.621094 L 329.429688 437.125 L 321.953125 436.558594 "/>
<path fill="none" stroke-width="5.5" stroke-linecap="butt" stroke-linejoin="miter" stroke="rgb(70.196078%, 70.196078%, 70.196078%)" stroke-opacity="1" stroke-miterlimit="10" d="M 372.042969 551 C 399.890625 529.621094 416.226562 501.464844 417.519531 466.402344 "/>
<path fill-rule="nonzero" fill="rgb(70.196078%, 70.196078%, 70.196078%)" fill-opacity="1" d="M 417.78125 459.273438 L 419.835938 466.488281 L 415.203125 466.316406 L 417.78125 459.273438 "/>
<path fill="none" stroke-width="4.5" stroke-linecap="butt" stroke-linejoin="miter" stroke="rgb(70.196078%, 70.196078%, 70.196078%)" stroke-opacity="1" stroke-miterlimit="10" d="M 647.574219 185.226562 C 632.867188 153.984375 609.234375 132.363281 575.800781 123.792969 "/>
<path fill-rule="nonzero" fill="rgb(70.196078%, 70.196078%, 70.196078%)" fill-opacity="1" d="M 568.890625 122.023438 L 576.375 121.546875 L 575.226562 126.039062 L 568.890625 122.023438 "/>
<path fill="none" stroke-width="4.5" stroke-linecap="butt" stroke-linejoin="miter" stroke="rgb(70.196078%, 70.196078%, 70.196078%)" stroke-opacity="1" stroke-miterlimit="10" d="M 731.3125 188.933594 C 708.242188 175.410156 683.582031 171.695312 658.570312 181.09375 "/>
<path fill-rule="nonzero" fill="rgb(70.196078%, 70.196078%, 70.196078%)" fill-opacity="1" d="M 651.894531 183.605469 L 657.757812 178.925781 L 659.386719 183.265625 L 651.894531 183.605469 "/>
<path fill="none" stroke-width="4.5" stroke-linecap="butt" stroke-linejoin="miter" stroke="rgb(70.196078%, 70.196078%, 70.196078%)" stroke-opacity="1" stroke-miterlimit="10" d="M 607.210938 258.34375 C 647.863281 238.335938 675.328125 206.765625 686.167969 162.785156 "/>
<path fill-rule="nonzero" fill="rgb(70.196078%, 70.196078%, 70.196078%)" fill-opacity="1" d="M 687.875 155.859375 L 688.417969 163.339844 L 683.917969 162.230469 L 687.875 155.859375 "/>
<path fill="none" stroke-width="4.5" stroke-linecap="butt" stroke-linejoin="miter" stroke="rgb(70.196078%, 70.196078%, 70.196078%)" stroke-opacity="1" stroke-miterlimit="10" d="M 533.058594 349.894531 C 568.757812 333.804688 593.558594 307.378906 604.054688 269.671875 "/>
<path fill-rule="nonzero" fill="rgb(70.196078%, 70.196078%, 70.196078%)" fill-opacity="1" d="M 605.96875 262.800781 L 606.289062 270.292969 L 601.824219 269.050781 L 605.96875 262.800781 "/>
<path fill="none" stroke-width="4.5" stroke-linecap="butt" stroke-linejoin="miter" stroke="rgb(70.196078%, 70.196078%, 70.196078%)" stroke-opacity="1" stroke-miterlimit="10" d="M 688.984375 151.363281 C 694.253906 167.210938 704.179688 179.535156 719.925781 184.988281 "/>
<path fill-rule="nonzero" fill="rgb(70.196078%, 70.196078%, 70.196078%)" fill-opacity="1" d="M 726.664062 187.320312 L 719.164062 187.175781 L 720.683594 182.796875 L 726.664062 187.320312 "/>
<path fill="none" stroke-width="5.5" stroke-linecap="butt" stroke-linejoin="miter" stroke="rgb(70.196078%, 70.196078%, 70.196078%)" stroke-opacity="1" stroke-miterlimit="10" d="M 240.023438 680.683594 C 267.992188 675.921875 290.492188 662.074219 304.449219 637.40625 "/>
<path fill-rule="nonzero" fill="rgb(70.196078%, 70.196078%, 70.196078%)" fill-opacity="1" d="M 307.964844 631.195312 L 306.46875 638.546875 L 302.433594 636.265625 L 307.964844 631.195312 "/>
<path fill="none" stroke-width="5.5" stroke-linecap="butt" stroke-linejoin="miter" stroke="rgb(70.196078%, 70.196078%, 70.196078%)" stroke-opacity="1" stroke-miterlimit="10" d="M 166.226562 712.066406 C 191.550781 714.277344 214.28125 707.453125 231.882812 689.148438 "/>
<path fill-rule="nonzero" fill="rgb(70.196078%, 70.196078%, 70.196078%)" fill-opacity="1" d="M 236.824219 684.007812 L 233.550781 690.757812 L 230.210938 687.542969 L 236.824219 684.007812 "/>
<path fill="none" stroke-width="5.5" stroke-linecap="butt" stroke-linejoin="miter" stroke="rgb(70.196078%, 70.196078%, 70.196078%)" stroke-opacity="1" stroke-miterlimit="10" d="M 98.582031 726.914062 C 119.027344 732.953125 138.96875 731.285156 156.367188 719.019531 "/>
<path fill-rule="nonzero" fill="rgb(70.196078%, 70.196078%, 70.196078%)" fill-opacity="1" d="M 162.195312 714.910156 L 157.699219 720.914062 L 155.03125 717.125 L 162.195312 714.910156 "/>
<path fill="none" stroke-width="1.5" stroke-linecap="butt" stroke-linejoin="miter" stroke="rgb(12.156863%, 47.058824%, 70.588235%)" stroke-opacity="1" stroke-miterlimit="10" d="M 516.703125 555.339844 C 496.738281 574.058594 485.988281 597.175781 487.910156 624.453125 "/>
<path fill-rule="nonzero" fill="rgb(12.156863%, 47.058824%, 70.588235%)" fill-opacity="1" d="M 488.410156 631.566406 L 485.597656 624.617188 L 490.222656 624.289062 L 488.410156 631.566406 "/>
<path fill="none" stroke-width="4.5" stroke-linecap="butt" stroke-linejoin="miter" stroke="rgb(70.196078%, 70.196078%, 70.196078%)" stroke-opacity="1" stroke-miterlimit="10" d="M 516.703125 555.339844 C 525.039062 598.464844 547.53125 632.242188 585.910156 653.574219 "/>
<path fill-rule="nonzero" fill="rgb(70.196078%, 70.196078%, 70.196078%)" fill-opacity="1" d="M 592.144531 657.039062 L 584.785156 655.601562 L 587.035156 651.546875 L 592.144531 657.039062 "/>
<path fill="none" stroke-width="5.5" stroke-linecap="butt" stroke-linejoin="miter" stroke="rgb(70.196078%, 70.196078%, 70.196078%)" stroke-opacity="1" stroke-miterlimit="10" d="M 446.511719 384.503906 C 442.683594 447.984375 462.4375 503.058594 508.230469 547.175781 "/>
<path fill-rule="nonzero" fill="rgb(70.196078%, 70.196078%, 70.196078%)" fill-opacity="1" d="M 513.367188 552.121094 L 506.621094 548.84375 L 509.835938 545.503906 L 513.367188 552.121094 "/>
<path fill="none" stroke-width="5.5" stroke-linecap="butt" stroke-linejoin="miter" stroke="rgb(70.196078%, 70.196078%, 70.196078%)" stroke-opacity="1" stroke-miterlimit="10" d="M 382.578125 265.085938 C 383.992188 310.667969 401.496094 348.972656 437.28125 377.214844 "/>
<path fill-rule="nonzero" fill="rgb(70.196078%, 70.196078%, 70.196078%)" fill-opacity="1" d="M 442.878906 381.636719 L 435.84375 379.035156 L 438.714844 375.394531 L 442.878906 381.636719 "/>
<path fill="none" stroke-width="5.5" stroke-linecap="butt" stroke-linejoin="miter" stroke="rgb(70.196078%, 70.196078%, 70.196078%)" stroke-opacity="1" stroke-miterlimit="10" d="M 340.460938 161.132812 C 337.351562 198.09375 347.769531 230.835938 374.195312 256.839844 "/>
<path fill-rule="nonzero" fill="rgb(70.196078%, 70.196078%, 70.196078%)" fill-opacity="1" d="M 379.28125 261.839844 L 372.570312 258.492188 L 375.824219 255.1875 L 379.28125 261.839844 "/>
<path fill="none" stroke-width="1.5" stroke-linecap="butt" stroke-linejoin="miter" stroke="rgb(12.156863%, 47.058824%, 70.588235%)" stroke-opacity="1" stroke-miterlimit="10" d="M 319.398438 437.179688 C 293.324219 420.34375 264.996094 415.019531 235.445312 424.449219 "/>
<path fill-rule="nonzero" fill="rgb(12.156863%, 47.058824%, 70.588235%)" fill-opacity="1" d="M 228.648438 426.617188 L 234.742188 422.242188 L 236.148438 426.65625 L 228.648438 426.617188 "/>
<path fill="none" stroke-width="5.5" stroke-linecap="butt" stroke-linejoin="miter" stroke="rgb(70.196078%, 70.196078%, 70.196078%)" stroke-opacity="1" stroke-miterlimit="10" d="M 319.816406 61.273438 C 310.914062 93.4375 314.582031 124.1875 333.71875 151.503906 "/>
<path fill-rule="nonzero" fill="rgb(70.196078%, 70.196078%, 70.196078%)" fill-opacity="1" d="M 337.808594 157.347656 L 331.820312 152.832031 L 335.617188 150.175781 L 337.808594 157.347656 "/>
<path fill="none" stroke-width="1.5" stroke-linecap="butt" stroke-linejoin="miter" stroke="rgb(12.156863%, 47.058824%, 70.588235%)" stroke-opacity="1" stroke-miterlimit="10" d="M 77.800781 175.320312 C 107.6875 165.464844 129.910156 146.496094 141.300781 117.179688 "/>
<path fill-rule="nonzero" fill="rgb(12.156863%, 47.058824%, 70.588235%)" fill-opacity="1" d="M 143.882812 110.53125 L 143.460938 118.019531 L 139.140625 116.339844 L 143.882812 110.53125 "/>
<path fill="none" stroke-width="1.5" stroke-linecap="butt" stroke-linejoin="miter" stroke="rgb(12.156863%, 47.058824%, 70.588235%)" stroke-opacity="1" stroke-miterlimit="10" d="M 144.832031 108.082031 C 178.53125 109.726562 208.007812 99.246094 230.75 74.351562 "/>
<path fill-rule="nonzero" fill="rgb(12.156863%, 47.058824%, 70.588235%)" fill-opacity="1" d="M 235.5625 69.085938 L 232.460938 75.914062 L 229.039062 72.789062 L 235.5625 69.085938 "/>
<path fill="none" stroke-width="5.5" stroke-linecap="butt" stroke-linejoin="miter" stroke="rgb(70.196078%, 70.196078%, 70.196078%)" stroke-opacity="1" stroke-miterlimit="10" d="M 369.554688 50 C 355.609375 45.46875 341.640625 45.957031 329.675781 54.355469 "/>
<path fill-rule="nonzero" fill="rgb(70.196078%, 70.196078%, 70.196078%)" fill-opacity="1" d="M 323.839844 58.453125 L 328.347656 52.457031 L 331.007812 56.25 L 323.839844 58.453125 "/>
<path fill="none" stroke-width="1.5" stroke-linecap="butt" stroke-linejoin="miter" stroke="rgb(12.156863%, 47.058824%, 70.588235%)" stroke-opacity="1" stroke-miterlimit="10" d="M 237.335938 67.144531 C 279.535156 81.78125 320.71875 79.179688 359.050781 56.277344 "/>
<path fill-rule="nonzero" fill="rgb(12.156863%, 47.058824%, 70.588235%)" fill-opacity="1" d="M 365.171875 52.617188 L 360.238281 58.265625 L 357.859375 54.285156 L 365.171875 52.617188 "/>
<path fill="none" stroke-width="1.5" stroke-linecap="butt" stroke-linejoin="miter" stroke="rgb(12.156863%, 47.058824%, 70.588235%)" stroke-opacity="1" stroke-miterlimit="10" d="M 50 264.460938 C 71.542969 242.3125 82.296875 215.707031 78.882812 185.019531 "/>
<path fill-rule="nonzero" fill="rgb(12.156863%, 47.058824%, 70.588235%)" fill-opacity="1" d="M 78.09375 177.933594 L 81.183594 184.765625 L 76.578125 185.277344 L 78.09375 177.933594 "/>
<path fill="none" stroke-width="1.5" stroke-linecap="butt" stroke-linejoin="miter" stroke="rgb(12.156863%, 47.058824%, 70.588235%)" stroke-opacity="1" stroke-miterlimit="10" d="M 74.484375 351.207031 C 80.269531 322.0625 75.050781 294.941406 56.195312 272 "/>
<path fill-rule="nonzero" fill="rgb(12.156863%, 47.058824%, 70.588235%)" fill-opacity="1" d="M 51.667969 266.488281 L 57.988281 270.527344 L 54.40625 273.472656 L 51.667969 266.488281 "/>
<path fill="none" stroke-width="1.5" stroke-linecap="butt" stroke-linejoin="miter" stroke="rgb(12.156863%, 47.058824%, 70.588235%)" stroke-opacity="1" stroke-miterlimit="10" d="M 141.035156 405.449219 C 129.730469 379.667969 110.984375 361.371094 83.886719 353.828125 "/>
<path fill-rule="nonzero" fill="rgb(12.156863%, 47.058824%, 70.588235%)" fill-opacity="1" d="M 77.015625 351.914062 L 84.507812 351.59375 L 83.265625 356.058594 L 77.015625 351.914062 "/>
<path fill="none" stroke-width="1.5" stroke-linecap="butt" stroke-linejoin="miter" stroke="rgb(12.156863%, 47.058824%, 70.588235%)" stroke-opacity="1" stroke-miterlimit="10" d="M 226.148438 427.417969 C 204.515625 408.253906 179.175781 399.296875 150.671875 403.894531 "/>
<path fill-rule="nonzero" fill="rgb(12.156863%, 47.058824%, 70.588235%)" fill-opacity="1" d="M 143.628906 405.03125 L 150.300781 401.605469 L 151.039062 406.183594 L 143.628906 405.03125 "/>
<path fill="none" stroke-width="3.5" stroke-linecap="butt" stroke-linejoin="miter" stroke="rgb(70.196078%, 70.196078%, 70.196078%)" stroke-opacity="1" stroke-miterlimit="10" d="M 680.484375 671.976562 C 698.089844 683.703125 717.492188 688.011719 737.570312 681.472656 "/>
<path fill-rule="nonzero" fill="rgb(70.196078%, 70.196078%, 70.196078%)" fill-opacity="1" d="M 744.355469 679.265625 L 738.289062 683.675781 L 736.855469 679.269531 L 744.355469 679.265625 "/>
<path fill="none" stroke-width="1.5" stroke-linecap="butt" stroke-linejoin="miter" stroke="rgb(99.215686%, 74.901961%, 43.529412%)" stroke-opacity="1" stroke-miterlimit="10" d="M 596.191406 659.289062 C 581.371094 684.964844 577.574219 712.269531 588.042969 739.980469 "/>
<path fill-rule="nonzero" fill="rgb(99.215686%, 74.901961%, 43.529412%)" fill-opacity="1" d="M 590.5625 746.652344 L 585.875 740.800781 L 590.210938 739.164062 L 590.5625 746.652344 "/>
<path fill="none" stroke-width="3.5" stroke-linecap="butt" stroke-linejoin="miter" stroke="rgb(70.196078%, 70.196078%, 70.196078%)" stroke-opacity="1" stroke-miterlimit="10" d="M 596.191406 659.289062 C 618.152344 675.441406 642.757812 681.796875 669.117188 674.933594 "/>
<path fill-rule="nonzero" fill="rgb(70.196078%, 70.196078%, 70.196078%)" fill-opacity="1" d="M 676.019531 673.136719 L 669.699219 677.175781 L 668.53125 672.691406 L 676.019531 673.136719 "/>
<path fill-rule="nonzero" fill="rgb(70.196078%, 70.196078%, 70.196078%)" fill-opacity="1" stroke-width="1" stroke-linecap="butt" stroke-linejoin="miter" stroke="rgb(70.196078%, 70.196078%, 70.196078%)" stroke-opacity="1" stroke-miterlimit="10" d="M 478.027344 74.652344 C 478.027344 81.121094 468.328125 81.121094 468.328125 74.652344 C 468.328125 68.1875 478.027344 68.1875 478.027344 74.652344 "/>
<path fill-rule="nonzero" fill="rgb(70.196078%, 70.196078%, 70.196078%)" fill-opacity="1" stroke-width="1" stroke-linecap="butt" stroke-linejoin="miter" stroke="rgb(70.196078%, 70.196078%, 70.196078%)" stroke-opacity="1" stroke-miterlimit="10" d="M 569.261719 120.875 C 569.261719 127.339844 559.5625 127.339844 559.5625 120.875 C 559.5625 114.40625 569.261719 114.40625 569.261719 120.875 "/>
<path fill-rule="nonzero" fill="rgb(70.196078%, 70.196078%, 70.196078%)" fill-opacity="1" stroke-width="1" stroke-linecap="butt" stroke-linejoin="miter" stroke="rgb(70.196078%, 70.196078%, 70.196078%)" stroke-opacity="1" stroke-miterlimit="10" d="M 315.085938 627.179688 C 315.085938 633.644531 305.386719 633.644531 305.386719 627.179688 C 305.386719 620.710938 315.085938 620.710938 315.085938 627.179688 "/>
<path fill-rule="nonzero" fill="rgb(70.196078%, 70.196078%, 70.196078%)" fill-opacity="1" stroke-width="1" stroke-linecap="butt" stroke-linejoin="miter" stroke="rgb(70.196078%, 70.196078%, 70.196078%)" stroke-opacity="1" stroke-miterlimit="10" d="M 422.800781 454.65625 C 422.800781 461.121094 413.101562 461.121094 413.101562 454.65625 C 413.101562 448.1875 422.800781 448.1875 422.800781 454.65625 "/>
<path fill-rule="nonzero" fill="rgb(70.196078%, 70.196078%, 70.196078%)" fill-opacity="1" stroke-width="1" stroke-linecap="butt" stroke-linejoin="miter" stroke="rgb(70.196078%, 70.196078%, 70.196078%)" stroke-opacity="1" stroke-miterlimit="10" d="M 376.890625 551 C 376.890625 557.46875 367.191406 557.46875 367.191406 551 C 367.191406 544.535156 376.890625 544.535156 376.890625 551 "/>
<path fill-rule="nonzero" fill="rgb(70.196078%, 70.196078%, 70.196078%)" fill-opacity="1" stroke-width="1" stroke-linecap="butt" stroke-linejoin="miter" stroke="rgb(70.196078%, 70.196078%, 70.196078%)" stroke-opacity="1" stroke-miterlimit="10" d="M 652.425781 185.226562 C 652.425781 191.695312 642.726562 191.695312 642.726562 185.226562 C 642.726562 178.761719 652.425781 178.761719 652.425781 185.226562 "/>
<path fill-rule="nonzero" fill="rgb(70.196078%, 70.196078%, 70.196078%)" fill-opacity="1" stroke-width="1" stroke-linecap="butt" stroke-linejoin="miter" stroke="rgb(70.196078%, 70.196078%, 70.196078%)" stroke-opacity="1" stroke-miterlimit="10" d="M 736.164062 188.933594 C 736.164062 195.398438 726.464844 195.398438 726.464844 188.933594 C 726.464844 182.464844 736.164062 182.464844 736.164062 188.933594 "/>
<path fill-rule="nonzero" fill="rgb(70.196078%, 70.196078%, 70.196078%)" fill-opacity="1" stroke-width="1" stroke-linecap="butt" stroke-linejoin="miter" stroke="rgb(70.196078%, 70.196078%, 70.196078%)" stroke-opacity="1" stroke-miterlimit="10" d="M 612.058594 258.34375 C 612.058594 264.8125 602.359375 264.8125 602.359375 258.34375 C 602.359375 251.878906 612.058594 251.878906 612.058594 258.34375 "/>
<path fill-rule="nonzero" fill="rgb(70.196078%, 70.196078%, 70.196078%)" fill-opacity="1" stroke-width="1" stroke-linecap="butt" stroke-linejoin="miter" stroke="rgb(70.196078%, 70.196078%, 70.196078%)" stroke-opacity="1" stroke-miterlimit="10" d="M 537.90625 349.894531 C 537.90625 356.359375 528.207031 356.359375 528.207031 349.894531 C 528.207031 343.429688 537.90625 343.429688 537.90625 349.894531 "/>
<path fill-rule="nonzero" fill="rgb(70.196078%, 70.196078%, 70.196078%)" fill-opacity="1" stroke-width="1" stroke-linecap="butt" stroke-linejoin="miter" stroke="rgb(70.196078%, 70.196078%, 70.196078%)" stroke-opacity="1" stroke-miterlimit="10" d="M 693.832031 151.363281 C 693.832031 157.832031 684.132812 157.832031 684.132812 151.363281 C 684.132812 144.898438 693.832031 144.898438 693.832031 151.363281 "/>
<path fill-rule="nonzero" fill="rgb(70.196078%, 70.196078%, 70.196078%)" fill-opacity="1" stroke-width="1" stroke-linecap="butt" stroke-linejoin="miter" stroke="rgb(70.196078%, 70.196078%, 70.196078%)" stroke-opacity="1" stroke-miterlimit="10" d="M 244.875 680.683594 C 244.875 687.148438 235.171875 687.148438 235.171875 680.683594 C 235.171875 674.214844 244.875 674.214844 244.875 680.683594 "/>
<path fill-rule="nonzero" fill="rgb(70.196078%, 70.196078%, 70.196078%)" fill-opacity="1" stroke-width="1" stroke-linecap="butt" stroke-linejoin="miter" stroke="rgb(70.196078%, 70.196078%, 70.196078%)" stroke-opacity="1" stroke-miterlimit="10" d="M 171.078125 712.066406 C 171.078125 718.535156 161.375 718.535156 161.375 712.066406 C 161.375 705.601562 171.078125 705.601562 171.078125 712.066406 "/>
<path fill-rule="nonzero" fill="rgb(100%, 84.313725%, 0%)" fill-opacity="1" stroke-width="1" stroke-linecap="butt" stroke-linejoin="miter" stroke="rgb(100%, 84.313725%, 0%)" stroke-opacity="1" stroke-miterlimit="10" d="M 93.230469 721.566406 L 103.929688 721.566406 L 103.929688 732.265625 L 93.230469 732.265625 Z M 93.230469 721.566406 "/>
<path fill-rule="nonzero" fill="rgb(14.901961%, 14.901961%, 14.901961%)" fill-opacity="1" stroke-width="1" stroke-linecap="butt" stroke-linejoin="miter" stroke="rgb(14.901961%, 14.901961%, 14.901961%)" stroke-opacity="1" stroke-miterlimit="10" d="M 484.910156 638.882812 L 488.660156 631.382812 L 492.410156 638.882812 Z M 484.910156 638.882812 "/>
<path fill-rule="nonzero" fill="rgb(70.196078%, 70.196078%, 70.196078%)" fill-opacity="1" stroke-width="1" stroke-linecap="butt" stroke-linejoin="miter" stroke="rgb(70.196078%, 70.196078%, 70.196078%)" stroke-opacity="1" stroke-miterlimit="10" d="M 521.554688 555.339844 C 521.554688 561.804688 511.855469 561.804688 511.855469 555.339844 C 511.855469 548.871094 521.554688 548.871094 521.554688 555.339844 "/>
<path fill-rule="nonzero" fill="rgb(70.196078%, 70.196078%, 70.196078%)" fill-opacity="1" stroke-width="1" stroke-linecap="butt" stroke-linejoin="miter" stroke="rgb(70.196078%, 70.196078%, 70.196078%)" stroke-opacity="1" stroke-miterlimit="10" d="M 451.363281 384.503906 C 451.363281 390.96875 441.664062 390.96875 441.664062 384.503906 C 441.664062 378.035156 451.363281 378.035156 451.363281 384.503906 "/>
<path fill-rule="nonzero" fill="rgb(70.196078%, 70.196078%, 70.196078%)" fill-opacity="1" stroke-width="1" stroke-linecap="butt" stroke-linejoin="miter" stroke="rgb(70.196078%, 70.196078%, 70.196078%)" stroke-opacity="1" stroke-miterlimit="10" d="M 387.429688 265.085938 C 387.429688 271.550781 377.726562 271.550781 377.726562 265.085938 C 377.726562 258.617188 387.429688 258.617188 387.429688 265.085938 "/>
<path fill-rule="nonzero" fill="rgb(70.196078%, 70.196078%, 70.196078%)" fill-opacity="1" stroke-width="1" stroke-linecap="butt" stroke-linejoin="miter" stroke="rgb(70.196078%, 70.196078%, 70.196078%)" stroke-opacity="1" stroke-miterlimit="10" d="M 345.3125 161.132812 C 345.3125 167.597656 335.613281 167.597656 335.613281 161.132812 C 335.613281 154.664062 345.3125 154.664062 345.3125 161.132812 "/>
<path fill-rule="nonzero" fill="rgb(12.156863%, 47.058824%, 70.588235%)" fill-opacity="1" stroke-width="1" stroke-linecap="butt" stroke-linejoin="miter" stroke="rgb(12.156863%, 47.058824%, 70.588235%)" stroke-opacity="1" stroke-miterlimit="10" d="M 322.148438 437.179688 C 322.148438 440.84375 316.648438 440.84375 316.648438 437.179688 C 316.648438 433.511719 322.148438 433.511719 322.148438 437.179688 "/>
<path fill-rule="nonzero" fill="rgb(70.196078%, 70.196078%, 70.196078%)" fill-opacity="1" stroke-width="1" stroke-linecap="butt" stroke-linejoin="miter" stroke="rgb(70.196078%, 70.196078%, 70.196078%)" stroke-opacity="1" stroke-miterlimit="10" d="M 324.664062 61.273438 C 324.664062 67.742188 314.964844 67.742188 314.964844 61.273438 C 314.964844 54.808594 324.664062 54.808594 324.664062 61.273438 "/>
<path fill-rule="nonzero" fill="rgb(12.156863%, 47.058824%, 70.588235%)" fill-opacity="1" stroke-width="1" stroke-linecap="butt" stroke-linejoin="miter" stroke="rgb(12.156863%, 47.058824%, 70.588235%)" stroke-opacity="1" stroke-miterlimit="10" d="M 80.550781 175.320312 C 80.550781 178.988281 75.050781 178.988281 75.050781 175.320312 C 75.050781 171.652344 80.550781 171.652344 80.550781 175.320312 "/>
<path fill-rule="nonzero" fill="rgb(12.156863%, 47.058824%, 70.588235%)" fill-opacity="1" stroke-width="1" stroke-linecap="butt" stroke-linejoin="miter" stroke="rgb(12.156863%, 47.058824%, 70.588235%)" stroke-opacity="1" stroke-miterlimit="10" d="M 147.582031 108.082031 C 147.582031 111.75 142.082031 111.75 142.082031 108.082031 C 142.082031 104.414062 147.582031 104.414062 147.582031 108.082031 "/>
<path fill-rule="nonzero" fill="rgb(70.196078%, 70.196078%, 70.196078%)" fill-opacity="1" stroke-width="1" stroke-linecap="butt" stroke-linejoin="miter" stroke="rgb(70.196078%, 70.196078%, 70.196078%)" stroke-opacity="1" stroke-miterlimit="10" d="M 374.902344 50 C 374.902344 57.132812 364.203125 57.132812 364.203125 50 C 364.203125 42.867188 374.902344 42.867188 374.902344 50 "/>
<path fill-rule="nonzero" fill="rgb(12.156863%, 47.058824%, 70.588235%)" fill-opacity="1" stroke-width="1" stroke-linecap="butt" stroke-linejoin="miter" stroke="rgb(12.156863%, 47.058824%, 70.588235%)" stroke-opacity="1" stroke-miterlimit="10" d="M 240.085938 67.144531 C 240.085938 70.8125 234.585938 70.8125 234.585938 67.144531 C 234.585938 63.480469 240.085938 63.480469 240.085938 67.144531 "/>
<path fill-rule="nonzero" fill="rgb(12.156863%, 47.058824%, 70.588235%)" fill-opacity="1" stroke-width="1" stroke-linecap="butt" stroke-linejoin="miter" stroke="rgb(12.156863%, 47.058824%, 70.588235%)" stroke-opacity="1" stroke-miterlimit="10" d="M 52.75 264.460938 C 52.75 268.125 47.25 268.125 47.25 264.460938 C 47.25 260.792969 52.75 260.792969 52.75 264.460938 "/>
<path fill-rule="nonzero" fill="rgb(12.156863%, 47.058824%, 70.588235%)" fill-opacity="1" stroke-width="1" stroke-linecap="butt" stroke-linejoin="miter" stroke="rgb(12.156863%, 47.058824%, 70.588235%)" stroke-opacity="1" stroke-miterlimit="10" d="M 77.234375 351.207031 C 77.234375 354.875 71.734375 354.875 71.734375 351.207031 C 71.734375 347.542969 77.234375 347.542969 77.234375 351.207031 "/>
<path fill-rule="nonzero" fill="rgb(12.156863%, 47.058824%, 70.588235%)" fill-opacity="1" stroke-width="1" stroke-linecap="butt" stroke-linejoin="miter" stroke="rgb(12.156863%, 47.058824%, 70.588235%)" stroke-opacity="1" stroke-miterlimit="10" d="M 143.785156 405.449219 C 143.785156 409.117188 138.285156 409.117188 138.285156 405.449219 C 138.285156 401.78125 143.785156 401.78125 143.785156 405.449219 "/>
<path fill-rule="nonzero" fill="rgb(12.156863%, 47.058824%, 70.588235%)" fill-opacity="1" stroke-width="1" stroke-linecap="butt" stroke-linejoin="miter" stroke="rgb(12.156863%, 47.058824%, 70.588235%)" stroke-opacity="1" stroke-miterlimit="10" d="M 228.898438 427.417969 C 228.898438 431.082031 223.398438 431.082031 223.398438 427.417969 C 223.398438 423.75 228.898438 423.75 228.898438 427.417969 "/>
<path fill-rule="nonzero" fill="rgb(14.901961%, 14.901961%, 14.901961%)" fill-opacity="1" stroke-width="1" stroke-linecap="butt" stroke-linejoin="miter" stroke="rgb(14.901961%, 14.901961%, 14.901961%)" stroke-opacity="1" stroke-miterlimit="10" d="M 588.078125 753.75 L 591.828125 746.25 L 595.578125 753.75 Z M 588.078125 753.75 "/>
<path fill-rule="nonzero" fill="rgb(14.901961%, 14.901961%, 14.901961%)" fill-opacity="1" stroke-width="1" stroke-linecap="butt" stroke-linejoin="miter" stroke="rgb(14.901961%, 14.901961%, 14.901961%)" stroke-opacity="1" stroke-miterlimit="10" d="M 744.148438 683.277344 L 750 671.578125 L 755.851562 683.277344 Z M 744.148438 683.277344 "/>
<path fill-rule="nonzero" fill="rgb(70.196078%, 70.196078%, 70.196078%)" fill-opacity="1" stroke-width="1" stroke-linecap="butt" stroke-linejoin="miter" stroke="rgb(70.196078%, 70.196078%, 70.196078%)" stroke-opacity="1" stroke-miterlimit="10" d="M 685.335938 671.976562 C 685.335938 678.441406 675.636719 678.441406 675.636719 671.976562 C 675.636719 665.507812 685.335938 665.507812 685.335938 671.976562 "/>
<path fill-rule="nonzero" fill="rgb(70.196078%, 70.196078%, 70.196078%)" fill-opacity="1" stroke-width="1" stroke-linecap="butt" stroke-linejoin="miter" stroke="rgb(70.196078%, 70.196078%, 70.196078%)" stroke-opacity="1" stroke-miterlimit="10" d="M 601.039062 659.289062 C 601.039062 665.753906 591.339844 665.753906 591.339844 659.289062 C 591.339844 652.820312 601.039062 652.820312 601.039062 659.289062 "/>
</svg>
