<?xml version="1.0" encoding="UTF-8"?>
<svg xmlns="http://www.w3.org/2000/svg" xmlns:xlink="http://www.w3.org/1999/xlink" width="800" height="800" viewBox="0 0 800 800">
<rect x="-80" y="-80" width="960" height="960" fill="rgb(100%, 100%, 100%)" fill-opacity="1"/>
<path fill="none" stroke-width="2.5" stroke-linecap="butt" stroke-linejoin="miter" stroke="rgb(70.196078%, 70.196078%, 70.196078%)" stroke-opacity="1" stroke-miterlimit="10" d="M 549.804688 366.757812 C 539.621094 419.605469 550.050781 468.074219 583.730469 510.039062 "/>
<path fill-rule="nonzero" fill="rgb(70.196078%, 70.196078%, 70.196078%)" fill-opacity="1" d="M 588.195312 515.605469 L 581.925781 511.492188 L 585.539062 508.589844 L 588.195312 515.605469 "/>
<path fill="none" stroke-width="2.5" stroke-linecap="butt" stroke-linejoin="miter" stroke="rgb(70.196078%, 70.196078%, 70.196078%)" stroke-opacity="1" stroke-miterlimit="10" d="M 493.925781 167.5 C 487.488281 199.976562 493.410156 230.105469 514.320312 255.746094 "/>
<path fill-rule="nonzero" fill="rgb(70.196078%, 70.196078%, 70.196078%)" fill-opacity="1" d="M 518.828125 261.273438 L 512.523438 257.210938 L 516.117188 254.28125 L 518.828125 261.273438 "/>
<path fill="none" stroke-width="1.5" stroke-linecap="butt" stroke-linejoin="miter" stroke="rgb(12.156863%, 47.058824%, 70.588235%)" stroke-opacity="1" stroke-miterlimit="10" d="M 493.925781 167.5 C 478.960938 139.5625 456.28125 120.863281 425.230469 114.601562 "/>
<path fill-rule="nonzero" fill="rgb(12.156863%, 47.058824%, 70.588235%)" fill-opacity="1" d="M 418.238281 113.191406 L 425.691406 112.328125 L 424.773438 116.875 L 418.238281 113.191406 "/>
<path fill="none" stroke-width="1.5" stroke-linecap="butt" stroke-linejoin="miter" stroke="rgb(12.156863%, 47.058824%, 70.588235%)" stroke-opacity="1" stroke-miterlimit="10" d="M 343.480469 74.285156 C 327.410156 57.0625 307.515625 47.644531 284.046875 49.359375 "/>
<path fill-rule="nonzero" fill="rgb(12.156863%, 47.058824%, 70.588235%)" fill-opacity="1" d="M 276.933594 49.878906 L 283.878906 47.046875 L 284.214844 51.671875 L 276.933594 49.878906 "/>
<path fill="none" stroke-width="2.5" stroke-linecap="butt" stroke-linejoin="miter" stroke="rgb(70.196078%, 70.196078%, 70.196078%)" stroke-opacity="1" stroke-miterlimit="10" d="M 520.339844 263.128906 C 513.691406 298.734375 520.617188 331.554688 543.726562 359.425781 "/>
<path fill-rule="nonzero" fill="rgb(70.196078%, 70.196078%, 70.196078%)" fill-opacity="1" d="M 548.277344 364.914062 L 541.941406 360.902344 L 545.511719 357.945312 L 548.277344 364.914062 "/>
<path fill="none" stroke-width="1.5" stroke-linecap="butt" stroke-linejoin="miter" stroke="rgb(12.156863%, 47.058824%, 70.588235%)" stroke-opacity="1" stroke-miterlimit="10" d="M 417.535156 113.050781 C 401.203125 90.359375 379.199219 76.515625 351.316406 74.773438 "/>
<path fill-rule="nonzero" fill="rgb(12.156863%, 47.058824%, 70.588235%)" fill-opacity="1" d="M 344.199219 74.332031 L 351.460938 72.460938 L 351.171875 77.085938 L 344.199219 74.332031 "/>
<path fill="none" stroke-width="1.5" stroke-linecap="butt" stroke-linejoin="miter" stroke="rgb(30.196078%, 68.627451%, 29.019608%)" stroke-opacity="1" stroke-miterlimit="10" d="M 358.015625 472.1875 C 371.324219 493.765625 390.332031 507.808594 415.449219 511.082031 "/>
<path fill-rule="nonzero" fill="rgb(30.196078%, 68.627451%, 29.019608%)" fill-opacity="1" d="M 422.523438 512.003906 L 415.152344 513.378906 L 415.75 508.78125 L 422.523438 512.003906 "/>
<path fill="none" stroke-width="1.5" stroke-linecap="butt" stroke-linejoin="miter" stroke="rgb(99.215686%, 74.901961%, 43.529412%)" stroke-opacity="1" stroke-miterlimit="10" d="M 358.015625 472.1875 C 395.234375 472.011719 426.957031 458.636719 450.671875 429.972656 "/>
<path fill-rule="nonzero" fill="rgb(99.215686%, 74.901961%, 43.529412%)" fill-opacity="1" d="M 455.21875 424.476562 L 452.457031 431.449219 L 448.886719 428.496094 L 455.21875 424.476562 "/>
<path fill="none" stroke-width="3.5" stroke-linecap="butt" stroke-linejoin="miter" stroke="rgb(70.196078%, 70.196078%, 70.196078%)" stroke-opacity="1" stroke-miterlimit="10" d="M 557.742188 126.234375 C 533.222656 128.558594 512.761719 139.046875 499.179688 159.5625 "/>
<path fill-rule="nonzero" fill="rgb(70.196078%, 70.196078%, 70.196078%)" fill-opacity="1" d="M 495.242188 165.511719 L 497.246094 158.285156 L 501.113281 160.84375 L 495.242188 165.511719 "/>
<path fill="none" stroke-width="2.5" stroke-linecap="butt" stroke-linejoin="miter" stroke="rgb(70.196078%, 70.196078%, 70.196078%)" stroke-opacity="1" stroke-miterlimit="10" d="M 248.933594 507.238281 C 287.230469 512.957031 321.96875 504.226562 350.894531 478.511719 "/>
<path fill-rule="nonzero" fill="rgb(70.196078%, 70.196078%, 70.196078%)" fill-opacity="1" d="M 356.226562 473.773438 L 352.4375 480.246094 L 349.355469 476.78125 L 356.226562 473.773438 "/>
<path fill="none" stroke-width="2.5" stroke-linecap="butt" stroke-linejoin="miter" stroke="rgb(70.196078%, 70.196078%, 70.196078%)" stroke-opacity="1" stroke-miterlimit="10" d="M 589.695312 517.46875 C 581.074219 545.121094 583.3125 571.960938 599.234375 596.132812 "/>
<path fill-rule="nonzero" fill="rgb(70.196078%, 70.196078%, 70.196078%)" fill-opacity="1" d="M 603.15625 602.089844 L 597.296875 597.40625 L 601.167969 594.855469 L 603.15625 602.089844 "/>
<path fill="none" stroke-width="1.5" stroke-linecap="butt" stroke-linejoin="miter" stroke="rgb(30.196078%, 68.627451%, 29.019608%)" stroke-opacity="1" stroke-miterlimit="10" d="M 686.300781 358.285156 C 712.632812 352.875 733.492188 339.035156 745.925781 315.226562 "/>
<path fill-rule="nonzero" fill="rgb(30.196078%, 68.627451%, 29.019608%)" fill-opacity="1" d="M 749.226562 308.902344 L 747.980469 316.296875 L 743.871094 314.152344 L 749.226562 308.902344 "/>
<path fill="none" stroke-width="1.5" stroke-linecap="butt" stroke-linejoin="miter" stroke="rgb(99.215686%, 74.901961%, 43.529412%)" stroke-opacity="1" stroke-miterlimit="10" d="M 589.582031 431.621094 C 610.363281 453.421875 635.882812 464.878906 665.894531 462.675781 "/>
<path fill-rule="nonzero" fill="rgb(99.215686%, 74.901961%, 43.529412%)" fill-opacity="1" d="M 673.011719 462.152344 L 666.066406 464.988281 L 665.726562 460.363281 L 673.011719 462.152344 "/>
<path fill="none" stroke-width="1.5" stroke-linecap="butt" stroke-linejoin="miter" stroke="rgb(30.196078%, 68.627451%, 29.019608%)" stroke-opacity="1" stroke-miterlimit="10" d="M 589.582031 431.621094 C 630.53125 423.414062 662.464844 401.785156 682.527344 365.171875 "/>
<path fill-rule="nonzero" fill="rgb(30.196078%, 68.627451%, 29.019608%)" fill-opacity="1" d="M 685.953125 358.914062 L 684.558594 366.285156 L 680.492188 364.058594 L 685.953125 358.914062 "/>
<path fill="none" stroke-width="1.5" stroke-linecap="butt" stroke-linejoin="miter" stroke="rgb(30.196078%, 68.627451%, 29.019608%)" stroke-opacity="1" stroke-miterlimit="10" d="M 423.234375 512.09375 C 451.460938 518.179688 477.886719 513.527344 500.480469 495.585938 "/>
<path fill-rule="nonzero" fill="rgb(30.196078%, 68.627451%, 29.019608%)" fill-opacity="1" d="M 506.066406 491.148438 L 501.921875 497.398438 L 499.039062 493.769531 L 506.066406 491.148438 "/>
<path fill="none" stroke-width="1.5" stroke-linecap="butt" stroke-linejoin="miter" stroke="rgb(30.196078%, 68.627451%, 29.019608%)" stroke-opacity="1" stroke-miterlimit="10" d="M 506.628906 490.703125 C 540.289062 485.449219 567.285156 469.058594 584.707031 439.804688 "/>
<path fill-rule="nonzero" fill="rgb(30.196078%, 68.627451%, 29.019608%)" fill-opacity="1" d="M 588.359375 433.675781 L 586.699219 440.992188 L 582.71875 438.617188 L 588.359375 433.675781 "/>
<path fill="none" stroke-width="1.5" stroke-linecap="butt" stroke-linejoin="miter" stroke="rgb(99.215686%, 74.901961%, 43.529412%)" stroke-opacity="1" stroke-miterlimit="10" d="M 455.675781 423.921875 C 495.683594 446.355469 537.742188 451.09375 580.664062 434.972656 "/>
<path fill-rule="nonzero" fill="rgb(99.215686%, 74.901961%, 43.529412%)" fill-opacity="1" d="M 587.34375 432.464844 L 581.480469 437.140625 L 579.847656 432.800781 L 587.34375 432.464844 "/>
<path fill="none" stroke-width="1.5" stroke-linecap="butt" stroke-linejoin="miter" stroke="rgb(30.196078%, 68.627451%, 29.019608%)" stroke-opacity="1" stroke-miterlimit="10" d="M 87.433594 637.574219 C 87.367188 609.800781 77.605469 585.886719 56.089844 568.363281 "/>
<path fill-rule="nonzero" fill="rgb(30.196078%, 68.627451%, 29.019608%)" fill-opacity="1" d="M 50.558594 563.855469 L 57.550781 566.566406 L 54.625 570.160156 L 50.558594 563.855469 "/>
<path fill="none" stroke-width="1.5" stroke-linecap="butt" stroke-linejoin="miter" stroke="rgb(30.196078%, 68.627451%, 29.019608%)" stroke-opacity="1" stroke-miterlimit="10" d="M 50 563.402344 C 69.953125 545.605469 80.976562 523.292969 79.800781 496.605469 "/>
<path fill-rule="nonzero" fill="rgb(30.196078%, 68.627451%, 29.019608%)" fill-opacity="1" d="M 79.488281 489.476562 L 82.117188 496.503906 L 77.488281 496.707031 L 79.488281 489.476562 "/>
<path fill="none" stroke-width="2.5" stroke-linecap="butt" stroke-linejoin="miter" stroke="rgb(70.196078%, 70.196078%, 70.196078%)" stroke-opacity="1" stroke-miterlimit="10" d="M 190.667969 750 C 195.292969 724.28125 190.371094 700.421875 173.332031 680.636719 "/>
<path fill-rule="nonzero" fill="rgb(70.196078%, 70.196078%, 70.196078%)" fill-opacity="1" d="M 168.679688 675.234375 L 175.089844 679.125 L 171.578125 682.152344 L 168.679688 675.234375 "/>
<path fill="none" stroke-width="1.5" stroke-linecap="butt" stroke-linejoin="miter" stroke="rgb(30.196078%, 68.627451%, 29.019608%)" stroke-opacity="1" stroke-miterlimit="10" d="M 160.757812 470.296875 C 181.410156 494.464844 207.648438 507.960938 239.414062 507.40625 "/>
<path fill-rule="nonzero" fill="rgb(30.196078%, 68.627451%, 29.019608%)" fill-opacity="1" d="M 246.546875 507.28125 L 239.453125 509.722656 L 239.371094 505.085938 L 246.546875 507.28125 "/>
<path fill="none" stroke-width="1.5" stroke-linecap="butt" stroke-linejoin="miter" stroke="rgb(99.215686%, 74.901961%, 43.529412%)" stroke-opacity="1" stroke-miterlimit="10" d="M 220.160156 599.125 C 242.464844 576.125 253.527344 548.527344 249.988281 516.703125 "/>
<path fill-rule="nonzero" fill="rgb(99.215686%, 74.901961%, 43.529412%)" fill-opacity="1" d="M 249.199219 509.613281 L 252.289062 516.445312 L 247.683594 516.957031 L 249.199219 509.613281 "/>
<path fill="none" stroke-width="1.5" stroke-linecap="butt" stroke-linejoin="miter" stroke="rgb(30.196078%, 68.627451%, 29.019608%)" stroke-opacity="1" stroke-miterlimit="10" d="M 79.457031 488.757812 C 106.527344 495.429688 132.1875 491.714844 154.476562 475.003906 "/>
<path fill-rule="nonzero" fill="rgb(30.196078%, 68.627451%, 29.019608%)" fill-opacity="1" d="M 160.183594 470.726562 L 155.867188 476.859375 L 153.085938 473.152344 L 160.183594 470.726562 "/>
<path fill="none" stroke-width="1.5" stroke-linecap="butt" stroke-linejoin="miter" stroke="rgb(30.196078%, 68.627451%, 29.019608%)" stroke-opacity="1" stroke-miterlimit="10" d="M 167.121094 673.421875 C 148.550781 650.707031 124.609375 637.675781 95.285156 637.59375 "/>
<path fill-rule="nonzero" fill="rgb(30.196078%, 68.627451%, 29.019608%)" fill-opacity="1" d="M 88.152344 637.574219 L 95.292969 635.277344 L 95.28125 639.914062 L 88.152344 637.574219 "/>
<path fill="none" stroke-width="1.5" stroke-linecap="butt" stroke-linejoin="miter" stroke="rgb(99.215686%, 74.901961%, 43.529412%)" stroke-opacity="1" stroke-miterlimit="10" d="M 167.121094 673.421875 C 194.269531 658.945312 212.496094 636.957031 218.601562 606.820312 "/>
<path fill-rule="nonzero" fill="rgb(99.215686%, 74.901961%, 43.529412%)" fill-opacity="1" d="M 220.015625 599.828125 L 220.871094 607.28125 L 216.328125 606.359375 L 220.015625 599.828125 "/>
<path fill-rule="nonzero" fill="rgb(70.196078%, 70.196078%, 70.196078%)" fill-opacity="1" stroke-width="1" stroke-linecap="butt" stroke-linejoin="miter" stroke="rgb(70.196078%, 70.196078%, 70.196078%)" stroke-opacity="1" stroke-miterlimit="10" d="M 552.304688 366.757812 C 552.304688 370.089844 547.304688 370.089844 547.304688 366.757812 C 547.304688 363.421875 552.304688 363.421875 552.304688 366.757812 "/>
<path fill-rule="nonzero" fill="rgb(70.196078%, 70.196078%, 70.196078%)" fill-opacity="1" stroke-width="1" stroke-linecap="butt" stroke-linejoin="miter" stroke="rgb(70.196078%, 70.196078%, 70.196078%)" stroke-opacity="1" stroke-miterlimit="10" d="M 496.425781 167.5 C 496.425781 170.835938 491.425781 170.835938 491.425781 167.5 C 491.425781 164.167969 496.425781 164.167969 496.425781 167.5 "/>
<path fill-rule="nonzero" fill="rgb(12.156863%, 47.058824%, 70.588235%)" fill-opacity="1" stroke-width="1" stroke-linecap="butt" stroke-linejoin="miter" stroke="rgb(12.156863%, 47.058824%, 70.588235%)" stroke-opacity="1" stroke-miterlimit="10" d="M 344.230469 74.285156 C 344.230469 75.285156 342.730469 75.285156 342.730469 74.285156 C 342.730469 73.285156 344.230469 73.285156 344.230469 74.285156 "/>
<path fill-rule="nonzero" fill="rgb(70.196078%, 70.196078%, 70.196078%)" fill-opacity="1" stroke-width="1" stroke-linecap="butt" stroke-linejoin="miter" stroke="rgb(70.196078%, 70.196078%, 70.196078%)" stroke-opacity="1" stroke-miterlimit="10" d="M 522.839844 263.128906 C 522.839844 266.460938 517.839844 266.460938 517.839844 263.128906 C 517.839844 259.792969 522.839844 259.792969 522.839844 263.128906 "/>
<path fill-rule="nonzero" fill="rgb(12.156863%, 47.058824%, 70.588235%)" fill-opacity="1" stroke-width="1" stroke-linecap="butt" stroke-linejoin="miter" stroke="rgb(12.156863%, 47.058824%, 70.588235%)" stroke-opacity="1" stroke-miterlimit="10" d="M 418.285156 113.050781 C 418.285156 114.050781 416.785156 114.050781 416.785156 113.050781 C 416.785156 112.050781 418.285156 112.050781 418.285156 113.050781 "/>
<path fill-rule="nonzero" fill="rgb(70.196078%, 70.196078%, 70.196078%)" fill-opacity="1" stroke-width="1" stroke-linecap="butt" stroke-linejoin="miter" stroke="rgb(70.196078%, 70.196078%, 70.196078%)" stroke-opacity="1" stroke-miterlimit="10" d="M 360.515625 472.1875 C 360.515625 475.519531 355.515625 475.519531 355.515625 472.1875 C 355.515625 468.851562 360.515625 468.851562 360.515625 472.1875 "/>
<path fill-rule="nonzero" fill="rgb(100%, 84.313725%, 0%)" fill-opacity="1" stroke-width="1" stroke-linecap="butt" stroke-linejoin="miter" stroke="rgb(100%, 84.313725%, 0%)" stroke-opacity="1" stroke-miterlimit="10" d="M 555.242188 123.734375 L 560.242188 123.734375 L 560.242188 128.734375 L 555.242188 128.734375 Z M 555.242188 123.734375 "/>
<path fill-rule="nonzero" fill="rgb(70.196078%, 70.196078%, 70.196078%)" fill-opacity="1" stroke-width="1" stroke-linecap="butt" stroke-linejoin="miter" stroke="rgb(70.196078%, 70.196078%, 70.196078%)" stroke-opacity="1" stroke-miterlimit="10" d="M 251.433594 507.238281 C 251.433594 510.570312 246.433594 510.570312 246.433594 507.238281 C 246.433594 503.90625 251.433594 503.90625 251.433594 507.238281 "/>
<path fill-rule="nonzero" fill="rgb(14.901961%, 14.901961%, 14.901961%)" fill-opacity="1" stroke-width="1" stroke-linecap="butt" stroke-linejoin="miter" stroke="rgb(14.901961%, 14.901961%, 14.901961%)" stroke-opacity="1" stroke-miterlimit="10" d="M 601.972656 606.582031 L 604.472656 601.582031 L 606.972656 606.582031 Z M 601.972656 606.582031 "/>
<path fill-rule="nonzero" fill="rgb(70.196078%, 70.196078%, 70.196078%)" fill-opacity="1" stroke-width="1" stroke-linecap="butt" stroke-linejoin="miter" stroke="rgb(70.196078%, 70.196078%, 70.196078%)" stroke-opacity="1" stroke-miterlimit="10" d="M 592.195312 517.46875 C 592.195312 520.804688 587.195312 520.804688 587.195312 517.46875 C 587.195312 514.136719 592.195312 514.136719 592.195312 517.46875 "/>
<path fill-rule="nonzero" fill="rgb(14.901961%, 14.901961%, 14.901961%)" fill-opacity="1" stroke-width="1" stroke-linecap="butt" stroke-linejoin="miter" stroke="rgb(14.901961%, 14.901961%, 14.901961%)" stroke-opacity="1" stroke-miterlimit="10" d="M 273.515625 51.75 L 275.265625 48.25 L 277.015625 51.75 Z M 273.515625 51.75 "/>
<path fill-rule="nonzero" fill="rgb(14.901961%, 14.901961%, 14.901961%)" fill-opacity="1" stroke-width="1" stroke-linecap="butt" stroke-linejoin="miter" stroke="rgb(14.901961%, 14.901961%, 14.901961%)" stroke-opacity="1" stroke-miterlimit="10" d="M 672.929688 463.78125 L 674.679688 460.28125 L 676.429688 463.78125 Z M 672.929688 463.78125 "/>
<path fill-rule="nonzero" fill="rgb(14.901961%, 14.901961%, 14.901961%)" fill-opacity="1" stroke-width="1" stroke-linecap="butt" stroke-linejoin="miter" stroke="rgb(14.901961%, 14.901961%, 14.901961%)" stroke-opacity="1" stroke-miterlimit="10" d="M 748.25 309.167969 L 750 305.667969 L 751.75 309.167969 Z M 748.25 309.167969 "/>
<path fill-rule="nonzero" fill="rgb(30.196078%, 68.627451%, 29.019608%)" fill-opacity="1" stroke-width="1" stroke-linecap="butt" stroke-linejoin="miter" stroke="rgb(30.196078%, 68.627451%, 29.019608%)" stroke-opacity="1" stroke-miterlimit="10" d="M 687.050781 358.285156 C 687.050781 359.285156 685.550781 359.285156 685.550781 358.285156 C 685.550781 357.285156 687.050781 357.285156 687.050781 358.285156 "/>
<path fill-rule="nonzero" fill="rgb(70.196078%, 70.196078%, 70.196078%)" fill-opacity="1" stroke-width="1" stroke-linecap="butt" stroke-linejoin="miter" stroke="rgb(70.196078%, 70.196078%, 70.196078%)" stroke-opacity="1" stroke-miterlimit="10" d="M 592.082031 431.621094 C 592.082031 434.957031 587.082031 434.957031 587.082031 431.621094 C 587.082031 428.289062 592.082031 428.289062 592.082031 431.621094 "/>
<path fill-rule="nonzero" fill="rgb(30.196078%, 68.627451%, 29.019608%)" fill-opacity="1" stroke-width="1" stroke-linecap="butt" stroke-linejoin="miter" stroke="rgb(30.196078%, 68.627451%, 29.019608%)" stroke-opacity="1" stroke-miterlimit="10" d="M 423.984375 512.09375 C 423.984375 513.09375 422.484375 513.09375 422.484375 512.09375 C 422.484375 511.09375 423.984375 511.09375 423.984375 512.09375 "/>
<path fill-rule="nonzero" fill="rgb(30.196078%, 68.627451%, 29.019608%)" fill-opacity="1" stroke-width="1" stroke-linecap="butt" stroke-linejoin="miter" stroke="rgb(30.196078%, 68.627451%, 29.019608%)" stroke-opacity="1" stroke-miterlimit="10" d="M 507.378906 490.703125 C 507.378906 491.703125 505.878906 491.703125 505.878906 490.703125 C 505.878906 489.703125 507.378906 489.703125 507.378906 490.703125 "/>
<path fill-rule="nonzero" fill="rgb(99.215686%, 74.901961%, 43.529412%)" fill-opacity="1" stroke-width="1" stroke-linecap="butt" stroke-linejoin="miter" stroke="rgb(99.215686%, 74.901961%, 43.529412%)" stroke-opacity="1" stroke-miterlimit="10" d="M 456.425781 423.921875 C 456.425781 424.921875 454.925781 424.921875 454.925781 423.921875 C 454.925781 422.921875 456.425781 422.921875 456.425781 423.921875 "/>
<path fill-rule="nonzero" fill="rgb(30.196078%, 68.627451%, 29.019608%)" fill-opacity="1" stroke-width="1" stroke-linecap="butt" stroke-linejoin="miter" stroke="rgb(30.196078%, 68.627451%, 29.019608%)" stroke-opacity="1" stroke-miterlimit="10" d="M 88.183594 637.574219 C 88.183594 638.574219 86.683594 638.574219 86.683594 637.574219 C 86.683594 636.574219 88.183594 636.574219 88.183594 637.574219 "/>
<path fill-rule="nonzero" fill="rgb(30.196078%, 68.627451%, 29.019608%)" fill-opacity="1" stroke-width="1" stroke-linecap="butt" stroke-linejoin="miter" stroke="rgb(30.196078%, 68.627451%, 29.019608%)" stroke-opacity="1" stroke-miterlimit="10" d="M 50.75 563.402344 C 50.75 564.402344 49.25 564.402344 49.25 563.402344 C 49.25 562.402344 50.75 562.402344 50.75 563.402344 "/>
<path fill-rule="nonzero" fill="rgb(100%, 84.313725%, 0%)" fill-opacity="1" stroke-width="1" stroke-linecap="butt" stroke-linejoin="miter" stroke="rgb(100%, 84.313725%, 0%)" stroke-opacity="1" stroke-miterlimit="10" d="M 188.167969 747.5 L 193.167969 747.5 L 193.167969 752.5 L 188.167969 752.5 Z M 188.167969 747.5 "/>
<path fill-rule="nonzero" fill="rgb(30.196078%, 68.627451%, 29.019608%)" fill-opacity="1" stroke-width="1" stroke-linecap="butt" stroke-linejoin="miter" stroke="rgb(30.196078%, 68.627451%, 29.019608%)" stroke-opacity="1" stroke-miterlimit="10" d="M 161.507812 470.296875 C 161.507812 471.296875 160.007812 471.296875 160.007812 470.296875 C 160.007812 469.296875 161.507812 469.296875 161.507812 470.296875 "/>
<path fill-rule="nonzero" fill="rgb(99.215686%, 74.901961%, 43.529412%)" fill-opacity="1" stroke-width="1" stroke-linecap="butt" stroke-linejoin="miter" stroke="rgb(99.215686%, 74.901961%, 43.529412%)" stroke-opacity="1" stroke-miterlimit="10" d="M 220.910156 599.125 C 220.910156 600.125 219.410156 600.125 219.410156 599.125 C 219.410156 598.125 220.910156 598.125 220.910156 599.125 "/>
<path fill-rule="nonzero" fill="rgb(30.196078%, 68.627451%, 29.019608%)" fill-opacity="1" stroke-width="1" stroke-linecap="butt" stroke-linejoin="miter" stroke="rgb(30.196078%, 68.627451%, 29.019608%)" stroke-opacity="1" stroke-miterlimit="10" d="M 80.207031 488.757812 C 80.207031 489.757812 78.707031 489.757812 78.707031 488.757812 C 78.707031 487.757812 80.207031 487.757812 80.207031 488.757812 "/>
<path fill-rule="nonzero" fill="rgb(70.196078%, 70.196078%, 70.196078%)" fill-opacity="1" stroke-width="1" stroke-linecap="butt" stroke-linejoin="miter" stroke="rgb(70.196078%, 70.196078%, 70.196078%)" stroke-opacity="1" stroke-miterlimit="10" d="M 169.621094 673.421875 C 169.621094 676.757812 164.621094 676.757812 164.621094 673.421875 C 164.621094 670.089844 169.621094 670.089844 169.621094 673.421875 "/>
</svg>
