<?xml version="1.0" encoding="UTF-8"?>
<svg xmlns="http://www.w3.org/2000/svg" xmlns:xlink="http://www.w3.org/1999/xlink" width="800" height="800" viewBox="0 0 800 800">
<rect x="-80" y="-80" width="960" height="960" fill="rgb(100%, 100%, 100%)" fill-opacity="1"/>
<path fill="none" stroke-width="2.5" stroke-linecap="butt" stroke-linejoin="miter" stroke="rgb(70.196078%, 70.196078%, 70.196078%)" stroke-opacity="1" stroke-miterlimit="10" d="M 108.25 147.839844 C 83.816406 168.519531 70.058594 194.878906 70.507812 226.863281 "/>
<path fill-rule="nonzero" fill="rgb(70.196078%, 70.196078%, 70.196078%)" fill-opacity="1" d="M 70.609375 233.996094 L 68.191406 226.894531 L 72.824219 226.832031 L 70.609375 233.996094 "/>
<path fill="none" stroke-width="2.5" stroke-linecap="butt" stroke-linejoin="miter" stroke="rgb(70.196078%, 70.196078%, 70.196078%)" stroke-opacity="1" stroke-miterlimit="10" d="M 70.675781 238.617188 C 53.675781 256.429688 45.015625 277.761719 48.269531 302.140625 "/>
<path fill-rule="nonzero" fill="rgb(70.196078%, 70.196078%, 70.196078%)" fill-opacity="1" d="M 49.214844 309.210938 L 45.972656 302.445312 L 50.566406 301.832031 L 49.214844 309.210938 "/>
<path fill="none" stroke-width="2.5" stroke-linecap="butt" stroke-linejoin="miter" stroke="rgb(70.196078%, 70.196078%, 70.196078%)" stroke-opacity="1" stroke-miterlimit="10" d="M 266.324219 50 C 233.472656 44.066406 203.167969 50.527344 177.695312 72.078125 "/>
<path fill-rule="nonzero" fill="rgb(70.196078%, 70.196078%, 70.196078%)" fill-opacity="1" d="M 172.25 76.6875 L 176.199219 70.308594 L 179.195312 73.847656 L 172.25 76.6875 "/>
<path fill="none" stroke-width="1.5" stroke-linecap="butt" stroke-linejoin="miter" stroke="rgb(30.196078%, 68.627451%, 29.019608%)" stroke-opacity="1" stroke-miterlimit="10" d="M 168.722656 79.671875 C 141.371094 90.039062 121.375 108.519531 112.121094 136.246094 "/>
<path fill-rule="nonzero" fill="rgb(30.196078%, 68.627451%, 29.019608%)" fill-opacity="1" d="M 109.863281 143.011719 L 109.921875 135.511719 L 114.320312 136.976562 L 109.863281 143.011719 "/>
<path fill="none" stroke-width="1.5" stroke-linecap="butt" stroke-linejoin="miter" stroke="rgb(99.215686%, 74.901961%, 43.529412%)" stroke-opacity="1" stroke-miterlimit="10" d="M 168.722656 79.671875 C 154.15625 71.265625 138.464844 68.675781 122.941406 75.050781 "/>
<path fill-rule="nonzero" fill="rgb(99.215686%, 74.901961%, 43.529412%)" fill-opacity="1" d="M 116.34375 77.757812 L 122.0625 72.90625 L 123.824219 77.195312 L 116.34375 77.757812 "/>
<path fill="none" stroke-width="1.5" stroke-linecap="butt" stroke-linejoin="miter" stroke="rgb(99.215686%, 74.901961%, 43.529412%)" stroke-opacity="1" stroke-miterlimit="10" d="M 113.921875 78.753906 C 102.167969 96.367188 97.855469 115.777344 104.375 135.882812 "/>
<path fill-rule="nonzero" fill="rgb(99.215686%, 74.901961%, 43.529412%)" fill-opacity="1" d="M 106.574219 142.667969 L 102.171875 136.597656 L 106.578125 135.167969 L 106.574219 142.667969 "/>
<path fill="none" stroke-width="2.5" stroke-linecap="butt" stroke-linejoin="miter" stroke="rgb(70.196078%, 70.196078%, 70.196078%)" stroke-opacity="1" stroke-miterlimit="10" d="M 367.253906 87.308594 C 343.214844 61.28125 313.421875 47.457031 278.066406 49.367188 "/>
<path fill-rule="nonzero" fill="rgb(70.196078%, 70.196078%, 70.196078%)" fill-opacity="1" d="M 270.941406 49.75 L 277.941406 47.050781 L 278.191406 51.679688 L 270.941406 49.75 "/>
<path fill="none" stroke-width="1.5" stroke-linecap="butt" stroke-linejoin="miter" stroke="rgb(98.431373%, 60.392157%, 60%)" stroke-opacity="1" stroke-miterlimit="10" d="M 622.546875 685.75 C 630.789062 705.882812 644.863281 720.625 665.714844 726.71875 "/>
<path fill-rule="nonzero" fill="rgb(98.431373%, 60.392157%, 60%)" fill-opacity="1" d="M 672.5625 728.722656 L 665.066406 728.945312 L 666.363281 724.496094 L 672.5625 728.722656 "/>
<path fill="none" stroke-width="2.5" stroke-linecap="butt" stroke-linejoin="miter" stroke="rgb(70.196078%, 70.196078%, 70.196078%)" stroke-opacity="1" stroke-miterlimit="10" d="M 467.640625 478.789062 C 480 453.699219 481.964844 427.714844 470.300781 402.320312 "/>
<path fill-rule="nonzero" fill="rgb(70.196078%, 70.196078%, 70.196078%)" fill-opacity="1" d="M 467.324219 395.839844 L 472.40625 401.355469 L 468.195312 403.289062 L 467.324219 395.839844 "/>
<path fill="none" stroke-width="1.5" stroke-linecap="butt" stroke-linejoin="miter" stroke="rgb(41.568627%, 23.921569%, 60.392157%)" stroke-opacity="1" stroke-miterlimit="10" d="M 631.261719 124.902344 C 646.171875 143.390625 665.492188 154.316406 689.214844 154.285156 "/>
<path fill-rule="nonzero" fill="rgb(41.568627%, 23.921569%, 60.392157%)" fill-opacity="1" d="M 696.347656 154.277344 L 689.214844 156.605469 L 689.210938 151.96875 L 696.347656 154.277344 "/>
<path fill="none" stroke-width="2.5" stroke-linecap="butt" stroke-linejoin="miter" stroke="rgb(70.196078%, 70.196078%, 70.196078%)" stroke-opacity="1" stroke-miterlimit="10" d="M 459.339844 178.171875 C 445.296875 137.128906 418.683594 107.152344 378.226562 91.542969 "/>
<path fill-rule="nonzero" fill="rgb(70.196078%, 70.196078%, 70.196078%)" fill-opacity="1" d="M 371.574219 88.976562 L 379.0625 89.378906 L 377.394531 93.703125 L 371.574219 88.976562 "/>
<path fill="none" stroke-width="1.5" stroke-linecap="butt" stroke-linejoin="miter" stroke="rgb(41.568627%, 23.921569%, 60.392157%)" stroke-opacity="1" stroke-miterlimit="10" d="M 459.339844 178.171875 C 494.175781 175.746094 523.15625 161.355469 543.523438 133.015625 "/>
<path fill-rule="nonzero" fill="rgb(41.568627%, 23.921569%, 60.392157%)" fill-opacity="1" d="M 547.6875 127.222656 L 545.40625 134.367188 L 541.640625 131.664062 L 547.6875 127.222656 "/>
<path fill="none" stroke-width="3.5" stroke-linecap="butt" stroke-linejoin="miter" stroke="rgb(70.196078%, 70.196078%, 70.196078%)" stroke-opacity="1" stroke-miterlimit="10" d="M 465.199219 391.214844 C 495.289062 323.625 496.085938 255.648438 464.386719 188.808594 "/>
<path fill-rule="nonzero" fill="rgb(70.196078%, 70.196078%, 70.196078%)" fill-opacity="1" d="M 461.328125 182.363281 L 466.480469 187.816406 L 462.292969 189.800781 L 461.328125 182.363281 "/>
<path fill="none" stroke-width="1.5" stroke-linecap="butt" stroke-linejoin="miter" stroke="rgb(98.431373%, 60.392157%, 60%)" stroke-opacity="1" stroke-miterlimit="10" d="M 465.199219 391.214844 C 470.628906 429.585938 488.90625 460.425781 521.824219 480.847656 "/>
<path fill-rule="nonzero" fill="rgb(98.431373%, 60.392157%, 60%)" fill-opacity="1" d="M 527.886719 484.605469 L 520.601562 482.816406 L 523.046875 478.875 L 527.886719 484.605469 "/>
<path fill="none" stroke-width="1.5" stroke-linecap="butt" stroke-linejoin="miter" stroke="rgb(98.431373%, 60.392157%, 60%)" stroke-opacity="1" stroke-miterlimit="10" d="M 675.078125 729.457031 C 685.558594 742.496094 699.171875 750.566406 715.855469 750.222656 "/>
<path fill-rule="nonzero" fill="rgb(98.431373%, 60.392157%, 60%)" fill-opacity="1" d="M 722.988281 750.074219 L 715.902344 752.539062 L 715.808594 747.90625 L 722.988281 750.074219 "/>
<path fill="none" stroke-width="2.5" stroke-linecap="butt" stroke-linejoin="miter" stroke="rgb(70.196078%, 70.196078%, 70.196078%)" stroke-opacity="1" stroke-miterlimit="10" d="M 483.121094 564.054688 C 491.441406 537.550781 489.421875 511.746094 474.121094 488.589844 "/>
<path fill-rule="nonzero" fill="rgb(70.196078%, 70.196078%, 70.196078%)" fill-opacity="1" d="M 470.1875 482.640625 L 476.054688 487.3125 L 472.1875 489.867188 L 470.1875 482.640625 "/>
<path fill="none" stroke-width="1.5" stroke-linecap="butt" stroke-linejoin="miter" stroke="rgb(98.431373%, 60.392157%, 60%)" stroke-opacity="1" stroke-miterlimit="10" d="M 575.9375 613.039062 C 578.675781 641.242188 590.875 664.617188 614.429688 680.332031 "/>
<path fill-rule="nonzero" fill="rgb(98.431373%, 60.392157%, 60%)" fill-opacity="1" d="M 620.363281 684.292969 L 613.140625 682.261719 L 615.714844 678.40625 L 620.363281 684.292969 "/>
<path fill="none" stroke-width="1.5" stroke-linecap="butt" stroke-linejoin="miter" stroke="rgb(98.431373%, 60.392157%, 60%)" stroke-opacity="1" stroke-miterlimit="10" d="M 530.121094 485.992188 C 525.148438 531.847656 537.351562 572.628906 569.195312 605.976562 "/>
<path fill-rule="nonzero" fill="rgb(98.431373%, 60.392157%, 60%)" fill-opacity="1" d="M 574.121094 611.136719 L 567.519531 607.578125 L 570.871094 604.375 L 574.121094 611.136719 "/>
<path fill="none" stroke-width="1.5" stroke-linecap="butt" stroke-linejoin="miter" stroke="rgb(41.568627%, 23.921569%, 60.392157%)" stroke-opacity="1" stroke-miterlimit="10" d="M 698.972656 154.273438 C 707.160156 172.265625 720.433594 185.285156 739.605469 189.96875 "/>
<path fill-rule="nonzero" fill="rgb(41.568627%, 23.921569%, 60.392157%)" fill-opacity="1" d="M 746.535156 191.660156 L 739.054688 192.21875 L 740.15625 187.71875 L 746.535156 191.660156 "/>
<path fill="none" stroke-width="1.5" stroke-linecap="butt" stroke-linejoin="miter" stroke="rgb(41.568627%, 23.921569%, 60.392157%)" stroke-opacity="1" stroke-miterlimit="10" d="M 549.21875 125.089844 C 573.027344 137.300781 597.855469 139.585938 622.328125 128.828125 "/>
<path fill-rule="nonzero" fill="rgb(41.568627%, 23.921569%, 60.392157%)" fill-opacity="1" d="M 628.859375 125.957031 L 623.261719 130.949219 L 621.394531 126.707031 L 628.859375 125.957031 "/>
<path fill="none" stroke-width="1.5" stroke-linecap="butt" stroke-linejoin="miter" stroke="rgb(98.431373%, 60.392157%, 60%)" stroke-opacity="1" stroke-miterlimit="10" d="M 577.007812 528.964844 C 544.664062 525.085938 515.492188 533.109375 491.960938 555.605469 "/>
<path fill-rule="nonzero" fill="rgb(98.431373%, 60.392157%, 60%)" fill-opacity="1" d="M 486.804688 560.535156 L 490.359375 553.929688 L 493.5625 557.28125 L 486.804688 560.535156 "/>
<path fill="none" stroke-width="1.5" stroke-linecap="butt" stroke-linejoin="miter" stroke="rgb(12.156863%, 47.058824%, 70.588235%)" stroke-opacity="1" stroke-miterlimit="10" d="M 291.046875 329.535156 C 282.773438 312.621094 269.796875 300.539062 251.414062 296.621094 "/>
<path fill-rule="nonzero" fill="rgb(12.156863%, 47.058824%, 70.588235%)" fill-opacity="1" d="M 244.4375 295.132812 L 251.898438 294.355469 L 250.929688 298.886719 L 244.4375 295.132812 "/>
<path fill="none" stroke-width="2.5" stroke-linecap="butt" stroke-linejoin="miter" stroke="rgb(70.196078%, 70.196078%, 70.196078%)" stroke-opacity="1" stroke-miterlimit="10" d="M 373.324219 543.949219 C 393.070312 523.457031 402.992188 498.882812 399.582031 470.652344 "/>
<path fill-rule="nonzero" fill="rgb(70.196078%, 70.196078%, 70.196078%)" fill-opacity="1" d="M 398.726562 463.570312 L 401.882812 470.371094 L 397.28125 470.929688 L 398.726562 463.570312 "/>
<path fill="none" stroke-width="2.5" stroke-linecap="butt" stroke-linejoin="miter" stroke="rgb(70.196078%, 70.196078%, 70.196078%)" stroke-opacity="1" stroke-miterlimit="10" d="M 398.171875 458.984375 C 427.480469 449.566406 449.433594 431.203125 460.714844 402.589844 "/>
<path fill-rule="nonzero" fill="rgb(70.196078%, 70.196078%, 70.196078%)" fill-opacity="1" d="M 463.332031 395.953125 L 462.871094 403.4375 L 458.558594 401.738281 L 463.332031 395.953125 "/>
<path fill="none" stroke-width="1.5" stroke-linecap="butt" stroke-linejoin="miter" stroke="rgb(12.156863%, 47.058824%, 70.588235%)" stroke-opacity="1" stroke-miterlimit="10" d="M 494.203125 265.214844 C 471.492188 257.636719 449.160156 258.882812 429.042969 271.808594 "/>
<path fill-rule="nonzero" fill="rgb(12.156863%, 47.058824%, 70.588235%)" fill-opacity="1" d="M 423.042969 275.664062 L 427.789062 269.859375 L 430.296875 273.757812 L 423.042969 275.664062 "/>
<path fill="none" stroke-width="1.5" stroke-linecap="butt" stroke-linejoin="miter" stroke="rgb(12.156863%, 47.058824%, 70.588235%)" stroke-opacity="1" stroke-miterlimit="10" d="M 241.875 294.585938 C 253.863281 273.382812 256.949219 250.847656 247.976562 228.234375 "/>
<path fill-rule="nonzero" fill="rgb(12.156863%, 47.058824%, 70.588235%)" fill-opacity="1" d="M 245.347656 221.601562 L 250.132812 227.378906 L 245.824219 229.089844 L 245.347656 221.601562 "/>
<path fill="none" stroke-width="3.5" stroke-linecap="butt" stroke-linejoin="miter" stroke="rgb(70.196078%, 70.196078%, 70.196078%)" stroke-opacity="1" stroke-miterlimit="10" d="M 373.527344 686.285156 C 393.792969 671.402344 406.253906 651.496094 407.378906 626.40625 "/>
<path fill-rule="nonzero" fill="rgb(70.196078%, 70.196078%, 70.196078%)" fill-opacity="1" d="M 407.699219 619.28125 L 409.695312 626.511719 L 405.0625 626.300781 L 407.699219 619.28125 "/>
<path fill="none" stroke-width="1.5" stroke-linecap="butt" stroke-linejoin="miter" stroke="rgb(98.431373%, 60.392157%, 60%)" stroke-opacity="1" stroke-miterlimit="10" d="M 636.109375 496.347656 C 614.664062 496.671875 596.050781 504.277344 582.96875 521.238281 "/>
<path fill-rule="nonzero" fill="rgb(98.431373%, 60.392157%, 60%)" fill-opacity="1" d="M 578.609375 526.886719 L 581.132812 519.824219 L 584.804688 522.652344 L 578.609375 526.886719 "/>
<path fill="none" stroke-width="1.5" stroke-linecap="butt" stroke-linejoin="miter" stroke="rgb(12.156863%, 47.058824%, 70.588235%)" stroke-opacity="1" stroke-miterlimit="10" d="M 420.832031 277.082031 C 397.46875 274.808594 376.375 280.871094 359.988281 297.644531 "/>
<path fill-rule="nonzero" fill="rgb(12.156863%, 47.058824%, 70.588235%)" fill-opacity="1" d="M 355.003906 302.746094 L 358.328125 296.023438 L 361.644531 299.261719 L 355.003906 302.746094 "/>
<path fill="none" stroke-width="1.5" stroke-linecap="butt" stroke-linejoin="miter" stroke="rgb(12.156863%, 47.058824%, 70.588235%)" stroke-opacity="1" stroke-miterlimit="10" d="M 244.378906 219.164062 C 260.867188 206.765625 271.09375 190.316406 271.597656 169.726562 "/>
<path fill-rule="nonzero" fill="rgb(12.156863%, 47.058824%, 70.588235%)" fill-opacity="1" d="M 271.773438 162.597656 L 273.914062 169.785156 L 269.28125 169.671875 L 271.773438 162.597656 "/>
<path fill="none" stroke-width="1.5" stroke-linecap="butt" stroke-linejoin="miter" stroke="rgb(12.156863%, 47.058824%, 70.588235%)" stroke-opacity="1" stroke-miterlimit="10" d="M 353.167969 304.621094 C 332.050781 302.324219 312.828125 307.523438 297.90625 322.601562 "/>
<path fill-rule="nonzero" fill="rgb(12.156863%, 47.058824%, 70.588235%)" fill-opacity="1" d="M 292.890625 327.671875 L 296.261719 320.96875 L 299.554688 324.230469 L 292.890625 327.671875 "/>
<path fill="none" stroke-width="1.5" stroke-linecap="butt" stroke-linejoin="miter" stroke="rgb(41.568627%, 23.921569%, 60.392157%)" stroke-opacity="1" stroke-miterlimit="10" d="M 407.90625 614.671875 C 436.816406 611.503906 460.667969 598.699219 476.472656 574.3125 "/>
<path fill-rule="nonzero" fill="rgb(41.568627%, 23.921569%, 60.392157%)" fill-opacity="1" d="M 480.355469 568.328125 L 478.417969 575.574219 L 474.53125 573.050781 L 480.355469 568.328125 "/>
<path fill="none" stroke-width="2.5" stroke-linecap="butt" stroke-linejoin="miter" stroke="rgb(70.196078%, 70.196078%, 70.196078%)" stroke-opacity="1" stroke-miterlimit="10" d="M 407.90625 614.671875 C 408.792969 589.804688 400.996094 567.90625 382.203125 551.636719 "/>
<path fill-rule="nonzero" fill="rgb(70.196078%, 70.196078%, 70.196078%)" fill-opacity="1" d="M 376.8125 546.96875 L 383.722656 549.886719 L 380.6875 553.390625 L 376.8125 546.96875 "/>
<path fill="none" stroke-width="1.5" stroke-linecap="butt" stroke-linejoin="miter" stroke="rgb(12.156863%, 47.058824%, 70.588235%)" stroke-opacity="1" stroke-miterlimit="10" d="M 552.871094 259.621094 C 536.027344 252.398438 518.777344 251.707031 502.75 260.515625 "/>
<path fill-rule="nonzero" fill="rgb(12.156863%, 47.058824%, 70.588235%)" fill-opacity="1" d="M 496.5 263.953125 L 501.632812 258.484375 L 503.867188 262.546875 L 496.5 263.953125 "/>
<path fill-rule="nonzero" fill="rgb(70.196078%, 70.196078%, 70.196078%)" fill-opacity="1" stroke-width="1" stroke-linecap="butt" stroke-linejoin="miter" stroke="rgb(70.196078%, 70.196078%, 70.196078%)" stroke-opacity="1" stroke-miterlimit="10" d="M 113.601562 147.839844 C 113.601562 154.972656 102.902344 154.972656 102.902344 147.839844 C 102.902344 140.703125 113.601562 140.703125 113.601562 147.839844 "/>
<path fill-rule="nonzero" fill="rgb(70.196078%, 70.196078%, 70.196078%)" fill-opacity="1" stroke-width="1" stroke-linecap="butt" stroke-linejoin="miter" stroke="rgb(70.196078%, 70.196078%, 70.196078%)" stroke-opacity="1" stroke-miterlimit="10" d="M 75.523438 238.617188 C 75.523438 245.082031 65.824219 245.082031 65.824219 238.617188 C 65.824219 232.148438 75.523438 232.148438 75.523438 238.617188 "/>
<path fill-rule="nonzero" fill="rgb(70.196078%, 70.196078%, 70.196078%)" fill-opacity="1" stroke-width="1" stroke-linecap="butt" stroke-linejoin="miter" stroke="rgb(70.196078%, 70.196078%, 70.196078%)" stroke-opacity="1" stroke-miterlimit="10" d="M 271.175781 50 C 271.175781 56.464844 261.476562 56.464844 261.476562 50 C 261.476562 43.535156 271.175781 43.535156 271.175781 50 "/>
<path fill-rule="nonzero" fill="rgb(70.196078%, 70.196078%, 70.196078%)" fill-opacity="1" stroke-width="1" stroke-linecap="butt" stroke-linejoin="miter" stroke="rgb(70.196078%, 70.196078%, 70.196078%)" stroke-opacity="1" stroke-miterlimit="10" d="M 173.574219 79.671875 C 173.574219 86.140625 163.875 86.140625 163.875 79.671875 C 163.875 73.207031 173.574219 73.207031 173.574219 79.671875 "/>
<path fill-rule="nonzero" fill="rgb(14.901961%, 14.901961%, 14.901961%)" fill-opacity="1" stroke-width="1" stroke-linecap="butt" stroke-linejoin="miter" stroke="rgb(14.901961%, 14.901961%, 14.901961%)" stroke-opacity="1" stroke-miterlimit="10" d="M 44.148438 320.953125 L 50 309.253906 L 55.851562 320.953125 Z M 44.148438 320.953125 "/>
<path fill-rule="nonzero" fill="rgb(99.215686%, 74.901961%, 43.529412%)" fill-opacity="1" stroke-width="1" stroke-linecap="butt" stroke-linejoin="miter" stroke="rgb(99.215686%, 74.901961%, 43.529412%)" stroke-opacity="1" stroke-miterlimit="10" d="M 116.671875 78.753906 C 116.671875 82.421875 111.171875 82.421875 111.171875 78.753906 C 111.171875 75.085938 116.671875 75.085938 116.671875 78.753906 "/>
<path fill-rule="nonzero" fill="rgb(70.196078%, 70.196078%, 70.196078%)" fill-opacity="1" stroke-width="1" stroke-linecap="butt" stroke-linejoin="miter" stroke="rgb(70.196078%, 70.196078%, 70.196078%)" stroke-opacity="1" stroke-miterlimit="10" d="M 372.105469 87.308594 C 372.105469 93.777344 362.402344 93.777344 362.402344 87.308594 C 362.402344 80.84375 372.105469 80.84375 372.105469 87.308594 "/>
<path fill-rule="nonzero" fill="rgb(98.431373%, 60.392157%, 60%)" fill-opacity="1" stroke-width="1" stroke-linecap="butt" stroke-linejoin="miter" stroke="rgb(98.431373%, 60.392157%, 60%)" stroke-opacity="1" stroke-miterlimit="10" d="M 625.296875 685.75 C 625.296875 689.414062 619.796875 689.414062 619.796875 685.75 C 619.796875 682.082031 625.296875 682.082031 625.296875 685.75 "/>
<path fill-rule="nonzero" fill="rgb(14.901961%, 14.901961%, 14.901961%)" fill-opacity="1" stroke-width="1" stroke-linecap="butt" stroke-linejoin="miter" stroke="rgb(14.901961%, 14.901961%, 14.901961%)" stroke-opacity="1" stroke-miterlimit="10" d="M 746.25 196.257812 L 750 188.757812 L 753.75 196.257812 Z M 746.25 196.257812 "/>
<path fill-rule="nonzero" fill="rgb(70.196078%, 70.196078%, 70.196078%)" fill-opacity="1" stroke-width="1" stroke-linecap="butt" stroke-linejoin="miter" stroke="rgb(70.196078%, 70.196078%, 70.196078%)" stroke-opacity="1" stroke-miterlimit="10" d="M 472.492188 478.789062 C 472.492188 485.257812 462.792969 485.257812 462.792969 478.789062 C 462.792969 472.324219 472.492188 472.324219 472.492188 478.789062 "/>
<path fill-rule="nonzero" fill="rgb(41.568627%, 23.921569%, 60.392157%)" fill-opacity="1" stroke-width="1" stroke-linecap="butt" stroke-linejoin="miter" stroke="rgb(41.568627%, 23.921569%, 60.392157%)" stroke-opacity="1" stroke-miterlimit="10" d="M 634.011719 124.902344 C 634.011719 128.566406 628.511719 128.566406 628.511719 124.902344 C 628.511719 121.234375 634.011719 121.234375 634.011719 124.902344 "/>
<path fill-rule="nonzero" fill="rgb(70.196078%, 70.196078%, 70.196078%)" fill-opacity="1" stroke-width="1" stroke-linecap="butt" stroke-linejoin="miter" stroke="rgb(70.196078%, 70.196078%, 70.196078%)" stroke-opacity="1" stroke-miterlimit="10" d="M 464.191406 178.171875 C 464.191406 184.640625 454.492188 184.640625 454.492188 178.171875 C 454.492188 171.707031 464.191406 171.707031 464.191406 178.171875 "/>
<path fill-rule="nonzero" fill="rgb(70.196078%, 70.196078%, 70.196078%)" fill-opacity="1" stroke-width="1" stroke-linecap="butt" stroke-linejoin="miter" stroke="rgb(70.196078%, 70.196078%, 70.196078%)" stroke-opacity="1" stroke-miterlimit="10" d="M 470.546875 391.214844 C 470.546875 398.347656 459.847656 398.347656 459.847656 391.214844 C 459.847656 384.082031 470.546875 384.082031 470.546875 391.214844 "/>
<path fill-rule="nonzero" fill="rgb(98.431373%, 60.392157%, 60%)" fill-opacity="1" stroke-width="1" stroke-linecap="butt" stroke-linejoin="miter" stroke="rgb(98.431373%, 60.392157%, 60%)" stroke-opacity="1" stroke-miterlimit="10" d="M 677.828125 729.457031 C 677.828125 733.125 672.328125 733.125 672.328125 729.457031 C 672.328125 725.789062 677.828125 725.789062 677.828125 729.457031 "/>
<path fill-rule="nonzero" fill="rgb(70.196078%, 70.196078%, 70.196078%)" fill-opacity="1" stroke-width="1" stroke-linecap="butt" stroke-linejoin="miter" stroke="rgb(70.196078%, 70.196078%, 70.196078%)" stroke-opacity="1" stroke-miterlimit="10" d="M 488.472656 564.054688 C 488.472656 571.1875 477.773438 571.1875 477.773438 564.054688 C 477.773438 556.921875 488.472656 556.921875 488.472656 564.054688 "/>
<path fill-rule="nonzero" fill="rgb(98.431373%, 60.392157%, 60%)" fill-opacity="1" stroke-width="1" stroke-linecap="butt" stroke-linejoin="miter" stroke="rgb(98.431373%, 60.392157%, 60%)" stroke-opacity="1" stroke-miterlimit="10" d="M 578.6875 613.039062 C 578.6875 616.707031 573.1875 616.707031 573.1875 613.039062 C 573.1875 609.371094 578.6875 609.371094 578.6875 613.039062 "/>
<path fill-rule="nonzero" fill="rgb(98.431373%, 60.392157%, 60%)" fill-opacity="1" stroke-width="1" stroke-linecap="butt" stroke-linejoin="miter" stroke="rgb(98.431373%, 60.392157%, 60%)" stroke-opacity="1" stroke-miterlimit="10" d="M 532.871094 485.992188 C 532.871094 489.660156 527.371094 489.660156 527.371094 485.992188 C 527.371094 482.324219 532.871094 482.324219 532.871094 485.992188 "/>
<path fill-rule="nonzero" fill="rgb(41.568627%, 23.921569%, 60.392157%)" fill-opacity="1" stroke-width="1" stroke-linecap="butt" stroke-linejoin="miter" stroke="rgb(41.568627%, 23.921569%, 60.392157%)" stroke-opacity="1" stroke-miterlimit="10" d="M 701.722656 154.273438 C 701.722656 157.941406 696.222656 157.941406 696.222656 154.273438 C 696.222656 150.605469 701.722656 150.605469 701.722656 154.273438 "/>
<path fill-rule="nonzero" fill="rgb(14.901961%, 14.901961%, 14.901961%)" fill-opacity="1" stroke-width="1" stroke-linecap="butt" stroke-linejoin="miter" stroke="rgb(14.901961%, 14.901961%, 14.901961%)" stroke-opacity="1" stroke-miterlimit="10" d="M 722.800781 753.75 L 726.550781 746.25 L 730.300781 753.75 Z M 722.800781 753.75 "/>
<path fill-rule="nonzero" fill="rgb(41.568627%, 23.921569%, 60.392157%)" fill-opacity="1" stroke-width="1" stroke-linecap="butt" stroke-linejoin="miter" stroke="rgb(41.568627%, 23.921569%, 60.392157%)" stroke-opacity="1" stroke-miterlimit="10" d="M 551.96875 125.089844 C 551.96875 128.753906 546.46875 128.753906 546.46875 125.089844 C 546.46875 121.421875 551.96875 121.421875 551.96875 125.089844 "/>
<path fill-rule="nonzero" fill="rgb(98.431373%, 60.392157%, 60%)" fill-opacity="1" stroke-width="1" stroke-linecap="butt" stroke-linejoin="miter" stroke="rgb(98.431373%, 60.392157%, 60%)" stroke-opacity="1" stroke-miterlimit="10" d="M 579.757812 528.964844 C 579.757812 532.628906 574.257812 532.628906 574.257812 528.964844 C 574.257812 525.296875 579.757812 525.296875 579.757812 528.964844 "/>
<path fill-rule="nonzero" fill="rgb(12.156863%, 47.058824%, 70.588235%)" fill-opacity="1" stroke-width="1" stroke-linecap="butt" stroke-linejoin="miter" stroke="rgb(12.156863%, 47.058824%, 70.588235%)" stroke-opacity="1" stroke-miterlimit="10" d="M 293.796875 329.535156 C 293.796875 333.203125 288.296875 333.203125 288.296875 329.535156 C 288.296875 325.867188 293.796875 325.867188 293.796875 329.535156 "/>
<path fill-rule="nonzero" fill="rgb(70.196078%, 70.196078%, 70.196078%)" fill-opacity="1" stroke-width="1" stroke-linecap="butt" stroke-linejoin="miter" stroke="rgb(70.196078%, 70.196078%, 70.196078%)" stroke-opacity="1" stroke-miterlimit="10" d="M 378.175781 543.949219 C 378.175781 550.417969 368.472656 550.417969 368.472656 543.949219 C 368.472656 537.484375 378.175781 537.484375 378.175781 543.949219 "/>
<path fill-rule="nonzero" fill="rgb(70.196078%, 70.196078%, 70.196078%)" fill-opacity="1" stroke-width="1" stroke-linecap="butt" stroke-linejoin="miter" stroke="rgb(70.196078%, 70.196078%, 70.196078%)" stroke-opacity="1" stroke-miterlimit="10" d="M 403.023438 458.984375 C 403.023438 465.453125 393.320312 465.453125 393.320312 458.984375 C 393.320312 452.519531 403.023438 452.519531 403.023438 458.984375 "/>
<path fill-rule="nonzero" fill="rgb(12.156863%, 47.058824%, 70.588235%)" fill-opacity="1" stroke-width="1" stroke-linecap="butt" stroke-linejoin="miter" stroke="rgb(12.156863%, 47.058824%, 70.588235%)" stroke-opacity="1" stroke-miterlimit="10" d="M 496.953125 265.214844 C 496.953125 268.878906 491.453125 268.878906 491.453125 265.214844 C 491.453125 261.546875 496.953125 261.546875 496.953125 265.214844 "/>
<path fill-rule="nonzero" fill="rgb(14.901961%, 14.901961%, 14.901961%)" fill-opacity="1" stroke-width="1" stroke-linecap="butt" stroke-linejoin="miter" stroke="rgb(14.901961%, 14.901961%, 14.901961%)" stroke-opacity="1" stroke-miterlimit="10" d="M 268.109375 162.777344 L 271.859375 155.277344 L 275.609375 162.777344 Z M 268.109375 162.777344 "/>
<path fill-rule="nonzero" fill="rgb(12.156863%, 47.058824%, 70.588235%)" fill-opacity="1" stroke-width="1" stroke-linecap="butt" stroke-linejoin="miter" stroke="rgb(12.156863%, 47.058824%, 70.588235%)" stroke-opacity="1" stroke-miterlimit="10" d="M 244.625 294.585938 C 244.625 298.253906 239.125 298.253906 239.125 294.585938 C 239.125 290.921875 244.625 290.921875 244.625 294.585938 "/>
<path fill-rule="nonzero" fill="rgb(100%, 84.313725%, 0%)" fill-opacity="1" stroke-width="1" stroke-linecap="butt" stroke-linejoin="miter" stroke="rgb(100%, 84.313725%, 0%)" stroke-opacity="1" stroke-miterlimit="10" d="M 368.179688 680.933594 L 378.878906 680.933594 L 378.878906 691.632812 L 368.179688 691.632812 Z M 368.179688 680.933594 "/>
<path fill-rule="nonzero" fill="rgb(100%, 84.313725%, 0%)" fill-opacity="1" stroke-width="1" stroke-linecap="butt" stroke-linejoin="miter" stroke="rgb(100%, 84.313725%, 0%)" stroke-opacity="1" stroke-miterlimit="10" d="M 632.859375 493.097656 L 639.359375 493.097656 L 639.359375 499.597656 L 632.859375 499.597656 Z M 632.859375 493.097656 "/>
<path fill-rule="nonzero" fill="rgb(12.156863%, 47.058824%, 70.588235%)" fill-opacity="1" stroke-width="1" stroke-linecap="butt" stroke-linejoin="miter" stroke="rgb(12.156863%, 47.058824%, 70.588235%)" stroke-opacity="1" stroke-miterlimit="10" d="M 423.582031 277.082031 C 423.582031 280.75 418.082031 280.75 418.082031 277.082031 C 418.082031 273.414062 423.582031 273.414062 423.582031 277.082031 "/>
<path fill-rule="nonzero" fill="rgb(12.156863%, 47.058824%, 70.588235%)" fill-opacity="1" stroke-width="1" stroke-linecap="butt" stroke-linejoin="miter" stroke="rgb(12.156863%, 47.058824%, 70.588235%)" stroke-opacity="1" stroke-miterlimit="10" d="M 247.128906 219.164062 C 247.128906 222.828125 241.628906 222.828125 241.628906 219.164062 C 241.628906 215.496094 247.128906 215.496094 247.128906 219.164062 "/>
<path fill-rule="nonzero" fill="rgb(12.156863%, 47.058824%, 70.588235%)" fill-opacity="1" stroke-width="1" stroke-linecap="butt" stroke-linejoin="miter" stroke="rgb(12.156863%, 47.058824%, 70.588235%)" stroke-opacity="1" stroke-miterlimit="10" d="M 355.917969 304.621094 C 355.917969 308.289062 350.417969 308.289062 350.417969 304.621094 C 350.417969 300.957031 355.917969 300.957031 355.917969 304.621094 "/>
<path fill-rule="nonzero" fill="rgb(70.196078%, 70.196078%, 70.196078%)" fill-opacity="1" stroke-width="1" stroke-linecap="butt" stroke-linejoin="miter" stroke="rgb(70.196078%, 70.196078%, 70.196078%)" stroke-opacity="1" stroke-miterlimit="10" d="M 412.753906 614.671875 C 412.753906 621.140625 403.054688 621.140625 403.054688 614.671875 C 403.054688 608.207031 412.753906 608.207031 412.753906 614.671875 "/>
<path fill-rule="nonzero" fill="rgb(100%, 84.313725%, 0%)" fill-opacity="1" stroke-width="1" stroke-linecap="butt" stroke-linejoin="miter" stroke="rgb(100%, 84.313725%, 0%)" stroke-opacity="1" stroke-miterlimit="10" d="M 549.621094 256.371094 L 556.121094 256.371094 L 556.121094 262.871094 L 549.621094 262.871094 Z M 549.621094 256.371094 "/>
</svg>
