<?xml version="1.0" encoding="UTF-8"?>
<svg xmlns="http://www.w3.org/2000/svg" xmlns:xlink="http://www.w3.org/1999/xlink" width="800" height="800" viewBox="0 0 800 800">
<rect x="-80" y="-80" width="960" height="960" fill="rgb(100%, 100%, 100%)" fill-opacity="1"/>
<path fill="none" stroke-width="3.5" stroke-linecap="butt" stroke-linejoin="miter" stroke="rgb(70.196078%, 70.196078%, 70.196078%)" stroke-opacity="1" stroke-miterlimit="10" d="M 532.074219 455.457031 C 514.9375 474.980469 506.835938 497.824219 511.246094 523.398438 "/>
<path fill-rule="nonzero" fill="rgb(70.196078%, 70.196078%, 70.196078%)" fill-opacity="1" d="M 512.457031 530.425781 L 508.960938 523.792969 L 513.527344 523.003906 L 512.457031 530.425781 "/>
<path fill="none" stroke-width="2.5" stroke-linecap="butt" stroke-linejoin="miter" stroke="rgb(70.196078%, 70.196078%, 70.196078%)" stroke-opacity="1" stroke-miterlimit="10" d="M 532.074219 455.457031 C 545.179688 463.363281 559.472656 466.125 573.648438 460.464844 "/>
<path fill-rule="nonzero" fill="rgb(70.196078%, 70.196078%, 70.196078%)" fill-opacity="1" d="M 580.273438 457.820312 L 574.507812 462.617188 L 572.789062 458.3125 L 580.273438 457.820312 "/>
<path fill="none" stroke-width="1.5" stroke-linecap="butt" stroke-linejoin="miter" stroke="rgb(12.156863%, 47.058824%, 70.588235%)" stroke-opacity="1" stroke-miterlimit="10" d="M 532.074219 455.457031 C 545.523438 441.453125 552.59375 424.621094 549.914062 405.425781 "/>
<path fill-rule="nonzero" fill="rgb(12.156863%, 47.058824%, 70.588235%)" fill-opacity="1" d="M 548.929688 398.359375 L 552.210938 405.105469 L 547.617188 405.746094 L 548.929688 398.359375 "/>
<path fill="none" stroke-width="2.5" stroke-linecap="butt" stroke-linejoin="miter" stroke="rgb(70.196078%, 70.196078%, 70.196078%)" stroke-opacity="1" stroke-miterlimit="10" d="M 532.074219 455.457031 C 528.835938 436.601562 519.648438 421.09375 502.832031 412.046875 "/>
<path fill-rule="nonzero" fill="rgb(70.196078%, 70.196078%, 70.196078%)" fill-opacity="1" d="M 496.550781 408.671875 L 503.929688 410.007812 L 501.734375 414.089844 L 496.550781 408.671875 "/>
<path fill="none" stroke-width="2.5" stroke-linecap="butt" stroke-linejoin="miter" stroke="rgb(70.196078%, 70.196078%, 70.196078%)" stroke-opacity="1" stroke-miterlimit="10" d="M 532.074219 455.457031 C 530.371094 478.695312 536.855469 499.519531 553.921875 515.34375 "/>
<path fill-rule="nonzero" fill="rgb(70.196078%, 70.196078%, 70.196078%)" fill-opacity="1" d="M 559.152344 520.195312 L 552.347656 517.046875 L 555.496094 513.644531 L 559.152344 520.195312 "/>
<path fill="none" stroke-width="1.5" stroke-linecap="butt" stroke-linejoin="miter" stroke="rgb(12.156863%, 47.058824%, 70.588235%)" stroke-opacity="1" stroke-miterlimit="10" d="M 532.074219 455.457031 C 514.433594 454.453125 498.539062 459.472656 486.941406 472.753906 "/>
<path fill-rule="nonzero" fill="rgb(12.156863%, 47.058824%, 70.588235%)" fill-opacity="1" d="M 482.25 478.125 L 485.195312 471.226562 L 488.6875 474.277344 L 482.25 478.125 "/>
<path fill="none" stroke-width="3.5" stroke-linecap="butt" stroke-linejoin="miter" stroke="rgb(70.196078%, 70.196078%, 70.196078%)" stroke-opacity="1" stroke-miterlimit="10" d="M 513.242188 534.972656 C 529.871094 516.957031 538.203125 495.558594 534.503906 471.351562 "/>
<path fill-rule="nonzero" fill="rgb(70.196078%, 70.196078%, 70.196078%)" fill-opacity="1" d="M 533.425781 464.300781 L 536.792969 471.003906 L 532.210938 471.703125 L 533.425781 464.300781 "/>
<path fill="none" stroke-width="5.5" stroke-linecap="butt" stroke-linejoin="miter" stroke="rgb(70.196078%, 70.196078%, 70.196078%)" stroke-opacity="1" stroke-miterlimit="10" d="M 559.714844 296.785156 C 527.777344 339.945312 516.140625 388.078125 528.492188 440.316406 "/>
<path fill-rule="nonzero" fill="rgb(70.196078%, 70.196078%, 70.196078%)" fill-opacity="1" d="M 530.132812 447.257812 L 526.238281 440.847656 L 530.746094 439.78125 L 530.132812 447.257812 "/>
<path fill="none" stroke-width="5.5" stroke-linecap="butt" stroke-linejoin="miter" stroke="rgb(70.196078%, 70.196078%, 70.196078%)" stroke-opacity="1" stroke-miterlimit="10" d="M 578.703125 186.679688 C 556.648438 216.3125 548.25 249.480469 556.949219 285.359375 "/>
<path fill-rule="nonzero" fill="rgb(70.196078%, 70.196078%, 70.196078%)" fill-opacity="1" d="M 558.628906 292.292969 L 554.695312 285.90625 L 559.199219 284.8125 L 558.628906 292.292969 "/>
<path fill="none" stroke-width="2.5" stroke-linecap="butt" stroke-linejoin="miter" stroke="rgb(70.196078%, 70.196078%, 70.196078%)" stroke-opacity="1" stroke-miterlimit="10" d="M 584.839844 456 C 573.167969 448.316406 560.160156 445.132812 547.097656 449.933594 "/>
<path fill-rule="nonzero" fill="rgb(70.196078%, 70.196078%, 70.196078%)" fill-opacity="1" d="M 540.402344 452.394531 L 546.296875 447.757812 L 547.894531 452.109375 L 540.402344 452.394531 "/>
<path fill="none" stroke-width="5.5" stroke-linecap="butt" stroke-linejoin="miter" stroke="rgb(70.196078%, 70.196078%, 70.196078%)" stroke-opacity="1" stroke-miterlimit="10" d="M 602.953125 94.132812 C 582.144531 117.210938 572.3125 144.359375 576.949219 175.0625 "/>
<path fill-rule="nonzero" fill="rgb(70.196078%, 70.196078%, 70.196078%)" fill-opacity="1" d="M 578.011719 182.113281 L 574.65625 175.40625 L 579.238281 174.714844 L 578.011719 182.113281 "/>
<path fill="none" stroke-width="5.5" stroke-linecap="butt" stroke-linejoin="miter" stroke="rgb(70.196078%, 70.196078%, 70.196078%)" stroke-opacity="1" stroke-miterlimit="10" d="M 654.425781 50 C 634.066406 54.207031 617.65625 64.792969 608.355469 83.347656 "/>
<path fill-rule="nonzero" fill="rgb(70.196078%, 70.196078%, 70.196078%)" fill-opacity="1" d="M 605.160156 89.726562 L 606.285156 82.308594 L 610.429688 84.386719 L 605.160156 89.726562 "/>
<path fill="none" stroke-width="1.5" stroke-linecap="butt" stroke-linejoin="miter" stroke="rgb(12.156863%, 47.058824%, 70.588235%)" stroke-opacity="1" stroke-miterlimit="10" d="M 548.566406 395.765625 C 535.964844 407.625 528.679688 422.332031 530.441406 439.5 "/>
<path fill-rule="nonzero" fill="rgb(12.156863%, 47.058824%, 70.588235%)" fill-opacity="1" d="M 531.164062 446.597656 L 528.132812 439.738281 L 532.746094 439.265625 L 531.164062 446.597656 "/>
<path fill="none" stroke-width="5.5" stroke-linecap="butt" stroke-linejoin="miter" stroke="rgb(70.196078%, 70.196078%, 70.196078%)" stroke-opacity="1" stroke-miterlimit="10" d="M 703.476562 109.640625 C 698.730469 85.777344 686.394531 66.660156 664.84375 55.429688 "/>
<path fill-rule="nonzero" fill="rgb(70.196078%, 70.196078%, 70.196078%)" fill-opacity="1" d="M 658.515625 52.132812 L 665.914062 53.371094 L 663.769531 57.484375 L 658.515625 52.132812 "/>
<path fill="none" stroke-width="5.5" stroke-linecap="butt" stroke-linejoin="miter" stroke="rgb(70.196078%, 70.196078%, 70.196078%)" stroke-opacity="1" stroke-miterlimit="10" d="M 733.90625 205.441406 C 739.367188 173.058594 732.683594 143.3125 711.179688 118.523438 "/>
<path fill-rule="nonzero" fill="rgb(70.196078%, 70.196078%, 70.196078%)" fill-opacity="1" d="M 706.503906 113.132812 L 712.929688 117.003906 L 709.429688 120.039062 L 706.503906 113.132812 "/>
<path fill="none" stroke-width="2.5" stroke-linecap="butt" stroke-linejoin="miter" stroke="rgb(70.196078%, 70.196078%, 70.196078%)" stroke-opacity="1" stroke-miterlimit="10" d="M 492.210938 406.335938 C 494.667969 423.957031 502.6875 438.773438 518.121094 447.535156 "/>
<path fill-rule="nonzero" fill="rgb(70.196078%, 70.196078%, 70.196078%)" fill-opacity="1" d="M 524.324219 451.058594 L 516.980469 449.550781 L 519.265625 445.519531 L 524.324219 451.058594 "/>
<path fill="none" stroke-width="5.5" stroke-linecap="butt" stroke-linejoin="miter" stroke="rgb(70.196078%, 70.196078%, 70.196078%)" stroke-opacity="1" stroke-miterlimit="10" d="M 750 316.601562 C 761.863281 281.394531 759.5625 247.058594 740.078125 215.449219 "/>
<path fill-rule="nonzero" fill="rgb(70.196078%, 70.196078%, 70.196078%)" fill-opacity="1" d="M 736.332031 209.375 L 742.050781 214.234375 L 738.105469 216.664062 L 736.332031 209.375 "/>
<path fill="none" stroke-width="5.5" stroke-linecap="butt" stroke-linejoin="miter" stroke="rgb(70.196078%, 70.196078%, 70.196078%)" stroke-opacity="1" stroke-miterlimit="10" d="M 746.179688 437.332031 C 765.371094 401.953125 769.1875 364.917969 754.339844 327.53125 "/>
<path fill-rule="nonzero" fill="rgb(70.196078%, 70.196078%, 70.196078%)" fill-opacity="1" d="M 751.707031 320.898438 L 756.492188 326.675781 L 752.1875 328.386719 L 751.707031 320.898438 "/>
<path fill="none" stroke-width="5.5" stroke-linecap="butt" stroke-linejoin="miter" stroke="rgb(70.196078%, 70.196078%, 70.196078%)" stroke-opacity="1" stroke-miterlimit="10" d="M 716.664062 558.929688 C 743.675781 526.988281 755.347656 490.117188 748.191406 448.917969 "/>
<path fill-rule="nonzero" fill="rgb(70.196078%, 70.196078%, 70.196078%)" fill-opacity="1" d="M 746.972656 441.890625 L 750.476562 448.519531 L 745.910156 449.3125 L 746.972656 441.890625 "/>
<path fill="none" stroke-width="5.5" stroke-linecap="butt" stroke-linejoin="miter" stroke="rgb(70.196078%, 70.196078%, 70.196078%)" stroke-opacity="1" stroke-miterlimit="10" d="M 659.058594 665.414062 C 692.136719 642.3125 712.179688 610.828125 715.652344 570.644531 "/>
<path fill-rule="nonzero" fill="rgb(70.196078%, 70.196078%, 70.196078%)" fill-opacity="1" d="M 716.265625 563.539062 L 717.960938 570.847656 L 713.34375 570.445312 L 716.265625 563.539062 "/>
<path fill="none" stroke-width="5.5" stroke-linecap="butt" stroke-linejoin="miter" stroke="rgb(70.196078%, 70.196078%, 70.196078%)" stroke-opacity="1" stroke-miterlimit="10" d="M 578.703125 735.210938 C 612.671875 726.769531 638.824219 707.546875 653.96875 676.011719 "/>
<path fill-rule="nonzero" fill="rgb(70.196078%, 70.196078%, 70.196078%)" fill-opacity="1" d="M 657.058594 669.582031 L 656.058594 677.015625 L 651.878906 675.007812 L 657.058594 669.582031 "/>
<path fill="none" stroke-width="5.5" stroke-linecap="butt" stroke-linejoin="miter" stroke="rgb(70.196078%, 70.196078%, 70.196078%)" stroke-opacity="1" stroke-miterlimit="10" d="M 489.609375 750 C 517.277344 759.0625 544.308594 757.238281 568.808594 741.550781 "/>
<path fill-rule="nonzero" fill="rgb(70.196078%, 70.196078%, 70.196078%)" fill-opacity="1" d="M 574.8125 737.703125 L 570.058594 743.5 L 567.558594 739.597656 L 574.8125 737.703125 "/>
<path fill="none" stroke-width="2.5" stroke-linecap="butt" stroke-linejoin="miter" stroke="rgb(70.196078%, 70.196078%, 70.196078%)" stroke-opacity="1" stroke-miterlimit="10" d="M 562.53125 523.328125 C 564.734375 501.59375 559.304688 481.789062 543.625 466.625 "/>
<path fill-rule="nonzero" fill="rgb(70.196078%, 70.196078%, 70.196078%)" fill-opacity="1" d="M 538.496094 461.667969 L 545.234375 464.960938 L 542.011719 468.292969 L 538.496094 461.667969 "/>
<path fill="none" stroke-width="1.5" stroke-linecap="butt" stroke-linejoin="miter" stroke="rgb(12.156863%, 47.058824%, 70.588235%)" stroke-opacity="1" stroke-miterlimit="10" d="M 480.527344 480.097656 C 495.988281 481.84375 510.402344 478.363281 521.0625 467.09375 "/>
<path fill-rule="nonzero" fill="rgb(12.156863%, 47.058824%, 70.588235%)" fill-opacity="1" d="M 525.964844 461.914062 L 522.746094 468.6875 L 519.378906 465.503906 L 525.964844 461.914062 "/>
<path fill="none" stroke-width="5.5" stroke-linecap="butt" stroke-linejoin="miter" stroke="rgb(70.196078%, 70.196078%, 70.196078%)" stroke-opacity="1" stroke-miterlimit="10" d="M 411.070312 698.003906 C 425.910156 724.683594 448.023438 742.476562 478.042969 747.910156 "/>
<path fill-rule="nonzero" fill="rgb(70.196078%, 70.196078%, 70.196078%)" fill-opacity="1" d="M 485.0625 749.179688 L 477.632812 750.1875 L 478.457031 745.628906 L 485.0625 749.179688 "/>
<path fill="none" stroke-width="5.5" stroke-linecap="butt" stroke-linejoin="miter" stroke="rgb(70.196078%, 70.196078%, 70.196078%)" stroke-opacity="1" stroke-miterlimit="10" d="M 363.082031 583.203125 C 360.25 624.683594 372.601562 661.085938 402.585938 689.859375 "/>
<path fill-rule="nonzero" fill="rgb(70.196078%, 70.196078%, 70.196078%)" fill-opacity="1" d="M 407.734375 694.800781 L 400.980469 691.53125 L 404.191406 688.1875 L 407.734375 694.800781 "/>
<path fill="none" stroke-width="5.5" stroke-linecap="butt" stroke-linejoin="miter" stroke="rgb(70.196078%, 70.196078%, 70.196078%)" stroke-opacity="1" stroke-miterlimit="10" d="M 334.171875 279.503906 C 315.121094 326.410156 315.789062 373.097656 339.3125 417.914062 "/>
<path fill-rule="nonzero" fill="rgb(70.196078%, 70.196078%, 70.196078%)" fill-opacity="1" d="M 342.625 424.230469 L 337.257812 418.988281 L 341.363281 416.835938 L 342.625 424.230469 "/>
<path fill="none" stroke-width="5.5" stroke-linecap="butt" stroke-linejoin="miter" stroke="rgb(70.196078%, 70.196078%, 70.196078%)" stroke-opacity="1" stroke-miterlimit="10" d="M 320.03125 158.050781 C 306.085938 196.378906 307.808594 234.066406 328.269531 269.332031 "/>
<path fill-rule="nonzero" fill="rgb(70.196078%, 70.196078%, 70.196078%)" fill-opacity="1" d="M 331.847656 275.5 L 326.265625 270.496094 L 330.273438 268.167969 L 331.847656 275.5 "/>
<path fill="none" stroke-width="5.5" stroke-linecap="butt" stroke-linejoin="miter" stroke="rgb(70.196078%, 70.196078%, 70.196078%)" stroke-opacity="1" stroke-miterlimit="10" d="M 344.777344 428.328125 C 327.1875 478.425781 330.285156 527.265625 357.132812 573.054688 "/>
<path fill-rule="nonzero" fill="rgb(70.196078%, 70.196078%, 70.196078%)" fill-opacity="1" d="M 360.738281 579.207031 L 355.132812 574.226562 L 359.128906 571.882812 L 360.738281 579.207031 "/>
<path fill="none" stroke-width="5.5" stroke-linecap="butt" stroke-linejoin="miter" stroke="rgb(70.196078%, 70.196078%, 70.196078%)" stroke-opacity="1" stroke-miterlimit="10" d="M 285.769531 71.332031 C 282.671875 101.355469 290.496094 128.3125 311.75 149.714844 "/>
<path fill-rule="nonzero" fill="rgb(70.196078%, 70.196078%, 70.196078%)" fill-opacity="1" d="M 316.777344 154.773438 L 310.105469 151.347656 L 313.394531 148.078125 L 316.777344 154.773438 "/>
<path fill="none" stroke-width="5.5" stroke-linecap="butt" stroke-linejoin="miter" stroke="rgb(70.196078%, 70.196078%, 70.196078%)" stroke-opacity="1" stroke-miterlimit="10" d="M 226.476562 67.265625 C 241.246094 77.085938 257.578125 80.84375 274.34375 75.1875 "/>
<path fill-rule="nonzero" fill="rgb(70.196078%, 70.196078%, 70.196078%)" fill-opacity="1" d="M 281.105469 72.90625 L 275.085938 77.382812 L 273.605469 72.992188 L 281.105469 72.90625 "/>
<path fill="none" stroke-width="5.5" stroke-linecap="butt" stroke-linejoin="miter" stroke="rgb(70.196078%, 70.196078%, 70.196078%)" stroke-opacity="1" stroke-miterlimit="10" d="M 198.40625 146.773438 C 218.183594 128.503906 228.964844 105.832031 227.234375 78.988281 "/>
<path fill-rule="nonzero" fill="rgb(70.196078%, 70.196078%, 70.196078%)" fill-opacity="1" d="M 226.773438 71.871094 L 229.546875 78.839844 L 224.921875 79.136719 L 226.773438 71.871094 "/>
<path fill="none" stroke-width="5.5" stroke-linecap="butt" stroke-linejoin="miter" stroke="rgb(70.196078%, 70.196078%, 70.196078%)" stroke-opacity="1" stroke-miterlimit="10" d="M 206.425781 243.71875 C 218.578125 214.488281 218.785156 185.078125 203.925781 157.148438 "/>
<path fill-rule="nonzero" fill="rgb(70.196078%, 70.196078%, 70.196078%)" fill-opacity="1" d="M 200.574219 150.851562 L 205.972656 156.058594 L 201.878906 158.238281 L 200.574219 150.851562 "/>
<path fill="none" stroke-width="5.5" stroke-linecap="butt" stroke-linejoin="miter" stroke="rgb(70.196078%, 70.196078%, 70.196078%)" stroke-opacity="1" stroke-miterlimit="10" d="M 242.226562 438.441406 C 252.511719 408.097656 250.710938 378.390625 233.820312 351.1875 "/>
<path fill-rule="nonzero" fill="rgb(70.196078%, 70.196078%, 70.196078%)" fill-opacity="1" d="M 230.054688 345.128906 L 235.789062 349.964844 L 231.851562 352.410156 L 230.054688 345.128906 "/>
<path fill="none" stroke-width="5.5" stroke-linecap="butt" stroke-linejoin="miter" stroke="rgb(70.196078%, 70.196078%, 70.196078%)" stroke-opacity="1" stroke-miterlimit="10" d="M 227.617188 341.203125 C 236.023438 309.742188 232.195312 279.75 213.265625 253.28125 "/>
<path fill-rule="nonzero" fill="rgb(70.196078%, 70.196078%, 70.196078%)" fill-opacity="1" d="M 209.113281 247.476562 L 215.148438 251.929688 L 211.378906 254.628906 L 209.113281 247.476562 "/>
<path fill="none" stroke-width="5.5" stroke-linecap="butt" stroke-linejoin="miter" stroke="rgb(70.196078%, 70.196078%, 70.196078%)" stroke-opacity="1" stroke-miterlimit="10" d="M 116.867188 508.984375 C 127.484375 524.15625 141.933594 533.980469 160.394531 534.917969 "/>
<path fill-rule="nonzero" fill="rgb(70.196078%, 70.196078%, 70.196078%)" fill-opacity="1" d="M 167.515625 535.277344 L 160.273438 537.230469 L 160.511719 532.601562 L 167.515625 535.277344 "/>
<path fill="none" stroke-width="5.5" stroke-linecap="butt" stroke-linejoin="miter" stroke="rgb(70.196078%, 70.196078%, 70.196078%)" stroke-opacity="1" stroke-miterlimit="10" d="M 62.980469 530.542969 C 80.039062 532.953125 95.949219 529.417969 108.242188 517.410156 "/>
<path fill-rule="nonzero" fill="rgb(70.196078%, 70.196078%, 70.196078%)" fill-opacity="1" d="M 113.34375 512.425781 L 109.863281 519.066406 L 106.625 515.75 L 113.34375 512.425781 "/>
<path fill="none" stroke-width="5.5" stroke-linecap="butt" stroke-linejoin="miter" stroke="rgb(70.196078%, 70.196078%, 70.196078%)" stroke-opacity="1" stroke-miterlimit="10" d="M 227.203125 523.6875 C 244.175781 501.742188 251.222656 476.871094 244.902344 449.882812 "/>
<path fill-rule="nonzero" fill="rgb(70.196078%, 70.196078%, 70.196078%)" fill-opacity="1" d="M 243.277344 442.9375 L 247.160156 449.351562 L 242.648438 450.410156 L 243.277344 442.9375 "/>
<path fill="none" stroke-width="5.5" stroke-linecap="butt" stroke-linejoin="miter" stroke="rgb(70.196078%, 70.196078%, 70.196078%)" stroke-opacity="1" stroke-miterlimit="10" d="M 172.4375 535.527344 C 188.136719 540.59375 203.757812 539.902344 217.289062 530.542969 "/>
<path fill-rule="nonzero" fill="rgb(70.196078%, 70.196078%, 70.196078%)" fill-opacity="1" d="M 223.15625 526.488281 L 218.609375 532.449219 L 215.972656 528.636719 L 223.15625 526.488281 "/>
<path fill="none" stroke-width="5.5" stroke-linecap="butt" stroke-linejoin="miter" stroke="rgb(70.196078%, 70.196078%, 70.196078%)" stroke-opacity="1" stroke-miterlimit="10" d="M 50 609.710938 C 65.421875 589.492188 71.824219 566.625 65.777344 541.953125 "/>
<path fill-rule="nonzero" fill="rgb(70.196078%, 70.196078%, 70.196078%)" fill-opacity="1" d="M 64.078125 535.023438 L 68.027344 541.398438 L 63.527344 542.503906 L 64.078125 535.023438 "/>
<path fill="none" stroke-width="5.5" stroke-linecap="butt" stroke-linejoin="miter" stroke="rgb(70.196078%, 70.196078%, 70.196078%)" stroke-opacity="1" stroke-miterlimit="10" d="M 71.703125 680.921875 C 76.3125 658.0625 72.492188 636.570312 57.539062 618.714844 "/>
<path fill-rule="nonzero" fill="rgb(70.196078%, 70.196078%, 70.196078%)" fill-opacity="1" d="M 52.960938 613.246094 L 59.316406 617.226562 L 55.761719 620.203125 L 52.960938 613.246094 "/>
<path fill-rule="nonzero" fill="rgb(14.901961%, 14.901961%, 14.901961%)" fill-opacity="1" stroke-width="1" stroke-linecap="butt" stroke-linejoin="miter" stroke="rgb(14.901961%, 14.901961%, 14.901961%)" stroke-opacity="1" stroke-miterlimit="10" d="M 523.222656 464.304688 L 532.074219 446.605469 L 540.921875 464.304688 Z M 523.222656 464.304688 "/>
<path fill-rule="nonzero" fill="rgb(70.196078%, 70.196078%, 70.196078%)" fill-opacity="1" stroke-width="1" stroke-linecap="butt" stroke-linejoin="miter" stroke="rgb(70.196078%, 70.196078%, 70.196078%)" stroke-opacity="1" stroke-miterlimit="10" d="M 518.089844 534.972656 C 518.089844 541.441406 508.390625 541.441406 508.390625 534.972656 C 508.390625 528.507812 518.089844 528.507812 518.089844 534.972656 "/>
<path fill-rule="nonzero" fill="rgb(70.196078%, 70.196078%, 70.196078%)" fill-opacity="1" stroke-width="1" stroke-linecap="butt" stroke-linejoin="miter" stroke="rgb(70.196078%, 70.196078%, 70.196078%)" stroke-opacity="1" stroke-miterlimit="10" d="M 564.566406 296.785156 C 564.566406 303.253906 554.867188 303.253906 554.867188 296.785156 C 554.867188 290.320312 564.566406 290.320312 564.566406 296.785156 "/>
<path fill-rule="nonzero" fill="rgb(70.196078%, 70.196078%, 70.196078%)" fill-opacity="1" stroke-width="1" stroke-linecap="butt" stroke-linejoin="miter" stroke="rgb(70.196078%, 70.196078%, 70.196078%)" stroke-opacity="1" stroke-miterlimit="10" d="M 583.554688 186.679688 C 583.554688 193.148438 573.851562 193.148438 573.851562 186.679688 C 573.851562 180.214844 583.554688 180.214844 583.554688 186.679688 "/>
<path fill-rule="nonzero" fill="rgb(70.196078%, 70.196078%, 70.196078%)" fill-opacity="1" stroke-width="1" stroke-linecap="butt" stroke-linejoin="miter" stroke="rgb(70.196078%, 70.196078%, 70.196078%)" stroke-opacity="1" stroke-miterlimit="10" d="M 589.6875 456 C 589.6875 462.464844 579.988281 462.464844 579.988281 456 C 579.988281 449.53125 589.6875 449.53125 589.6875 456 "/>
<path fill-rule="nonzero" fill="rgb(70.196078%, 70.196078%, 70.196078%)" fill-opacity="1" stroke-width="1" stroke-linecap="butt" stroke-linejoin="miter" stroke="rgb(70.196078%, 70.196078%, 70.196078%)" stroke-opacity="1" stroke-miterlimit="10" d="M 607.800781 94.132812 C 607.800781 100.601562 598.101562 100.601562 598.101562 94.132812 C 598.101562 87.667969 607.800781 87.667969 607.800781 94.132812 "/>
<path fill-rule="nonzero" fill="rgb(70.196078%, 70.196078%, 70.196078%)" fill-opacity="1" stroke-width="1" stroke-linecap="butt" stroke-linejoin="miter" stroke="rgb(70.196078%, 70.196078%, 70.196078%)" stroke-opacity="1" stroke-miterlimit="10" d="M 659.277344 50 C 659.277344 56.464844 649.578125 56.464844 649.578125 50 C 649.578125 43.535156 659.277344 43.535156 659.277344 50 "/>
<path fill-rule="nonzero" fill="rgb(12.156863%, 47.058824%, 70.588235%)" fill-opacity="1" stroke-width="1" stroke-linecap="butt" stroke-linejoin="miter" stroke="rgb(12.156863%, 47.058824%, 70.588235%)" stroke-opacity="1" stroke-miterlimit="10" d="M 551.316406 395.765625 C 551.316406 399.429688 545.816406 399.429688 545.816406 395.765625 C 545.816406 392.097656 551.316406 392.097656 551.316406 395.765625 "/>
<path fill-rule="nonzero" fill="rgb(70.196078%, 70.196078%, 70.196078%)" fill-opacity="1" stroke-width="1" stroke-linecap="butt" stroke-linejoin="miter" stroke="rgb(70.196078%, 70.196078%, 70.196078%)" stroke-opacity="1" stroke-miterlimit="10" d="M 708.328125 109.640625 C 708.328125 116.109375 698.628906 116.109375 698.628906 109.640625 C 698.628906 103.175781 708.328125 103.175781 708.328125 109.640625 "/>
<path fill-rule="nonzero" fill="rgb(70.196078%, 70.196078%, 70.196078%)" fill-opacity="1" stroke-width="1" stroke-linecap="butt" stroke-linejoin="miter" stroke="rgb(70.196078%, 70.196078%, 70.196078%)" stroke-opacity="1" stroke-miterlimit="10" d="M 738.757812 205.441406 C 738.757812 211.90625 729.058594 211.90625 729.058594 205.441406 C 729.058594 198.972656 738.757812 198.972656 738.757812 205.441406 "/>
<path fill-rule="nonzero" fill="rgb(70.196078%, 70.196078%, 70.196078%)" fill-opacity="1" stroke-width="1" stroke-linecap="butt" stroke-linejoin="miter" stroke="rgb(70.196078%, 70.196078%, 70.196078%)" stroke-opacity="1" stroke-miterlimit="10" d="M 497.058594 406.335938 C 497.058594 412.804688 487.359375 412.804688 487.359375 406.335938 C 487.359375 399.871094 497.058594 399.871094 497.058594 406.335938 "/>
<path fill-rule="nonzero" fill="rgb(70.196078%, 70.196078%, 70.196078%)" fill-opacity="1" stroke-width="1" stroke-linecap="butt" stroke-linejoin="miter" stroke="rgb(70.196078%, 70.196078%, 70.196078%)" stroke-opacity="1" stroke-miterlimit="10" d="M 754.851562 316.601562 C 754.851562 323.066406 745.148438 323.066406 745.148438 316.601562 C 745.148438 310.132812 754.851562 310.132812 754.851562 316.601562 "/>
<path fill-rule="nonzero" fill="rgb(70.196078%, 70.196078%, 70.196078%)" fill-opacity="1" stroke-width="1" stroke-linecap="butt" stroke-linejoin="miter" stroke="rgb(70.196078%, 70.196078%, 70.196078%)" stroke-opacity="1" stroke-miterlimit="10" d="M 751.03125 437.332031 C 751.03125 443.796875 741.328125 443.796875 741.328125 437.332031 C 741.328125 430.863281 751.03125 430.863281 751.03125 437.332031 "/>
<path fill-rule="nonzero" fill="rgb(70.196078%, 70.196078%, 70.196078%)" fill-opacity="1" stroke-width="1" stroke-linecap="butt" stroke-linejoin="miter" stroke="rgb(70.196078%, 70.196078%, 70.196078%)" stroke-opacity="1" stroke-miterlimit="10" d="M 721.515625 558.929688 C 721.515625 565.398438 711.816406 565.398438 711.816406 558.929688 C 711.816406 552.464844 721.515625 552.464844 721.515625 558.929688 "/>
<path fill-rule="nonzero" fill="rgb(70.196078%, 70.196078%, 70.196078%)" fill-opacity="1" stroke-width="1" stroke-linecap="butt" stroke-linejoin="miter" stroke="rgb(70.196078%, 70.196078%, 70.196078%)" stroke-opacity="1" stroke-miterlimit="10" d="M 663.910156 665.414062 C 663.910156 671.882812 654.207031 671.882812 654.207031 665.414062 C 654.207031 658.949219 663.910156 658.949219 663.910156 665.414062 "/>
<path fill-rule="nonzero" fill="rgb(70.196078%, 70.196078%, 70.196078%)" fill-opacity="1" stroke-width="1" stroke-linecap="butt" stroke-linejoin="miter" stroke="rgb(70.196078%, 70.196078%, 70.196078%)" stroke-opacity="1" stroke-miterlimit="10" d="M 583.554688 735.210938 C 583.554688 741.679688 573.851562 741.679688 573.851562 735.210938 C 573.851562 728.746094 583.554688 728.746094 583.554688 735.210938 "/>
<path fill-rule="nonzero" fill="rgb(70.196078%, 70.196078%, 70.196078%)" fill-opacity="1" stroke-width="1" stroke-linecap="butt" stroke-linejoin="miter" stroke="rgb(70.196078%, 70.196078%, 70.196078%)" stroke-opacity="1" stroke-miterlimit="10" d="M 494.457031 750 C 494.457031 756.464844 484.757812 756.464844 484.757812 750 C 484.757812 743.535156 494.457031 743.535156 494.457031 750 "/>
<path fill-rule="nonzero" fill="rgb(70.196078%, 70.196078%, 70.196078%)" fill-opacity="1" stroke-width="1" stroke-linecap="butt" stroke-linejoin="miter" stroke="rgb(70.196078%, 70.196078%, 70.196078%)" stroke-opacity="1" stroke-miterlimit="10" d="M 567.382812 523.328125 C 567.382812 529.796875 557.683594 529.796875 557.683594 523.328125 C 557.683594 516.863281 567.382812 516.863281 567.382812 523.328125 "/>
<path fill-rule="nonzero" fill="rgb(12.156863%, 47.058824%, 70.588235%)" fill-opacity="1" stroke-width="1" stroke-linecap="butt" stroke-linejoin="miter" stroke="rgb(12.156863%, 47.058824%, 70.588235%)" stroke-opacity="1" stroke-miterlimit="10" d="M 483.277344 480.097656 C 483.277344 483.765625 477.777344 483.765625 477.777344 480.097656 C 477.777344 476.433594 483.277344 476.433594 483.277344 480.097656 "/>
<path fill-rule="nonzero" fill="rgb(70.196078%, 70.196078%, 70.196078%)" fill-opacity="1" stroke-width="1" stroke-linecap="butt" stroke-linejoin="miter" stroke="rgb(70.196078%, 70.196078%, 70.196078%)" stroke-opacity="1" stroke-miterlimit="10" d="M 415.921875 698.003906 C 415.921875 704.46875 406.222656 704.46875 406.222656 698.003906 C 406.222656 691.535156 415.921875 691.535156 415.921875 698.003906 "/>
<path fill-rule="nonzero" fill="rgb(70.196078%, 70.196078%, 70.196078%)" fill-opacity="1" stroke-width="1" stroke-linecap="butt" stroke-linejoin="miter" stroke="rgb(70.196078%, 70.196078%, 70.196078%)" stroke-opacity="1" stroke-miterlimit="10" d="M 367.933594 583.203125 C 367.933594 589.671875 358.230469 589.671875 358.230469 583.203125 C 358.230469 576.738281 367.933594 576.738281 367.933594 583.203125 "/>
<path fill-rule="nonzero" fill="rgb(70.196078%, 70.196078%, 70.196078%)" fill-opacity="1" stroke-width="1" stroke-linecap="butt" stroke-linejoin="miter" stroke="rgb(70.196078%, 70.196078%, 70.196078%)" stroke-opacity="1" stroke-miterlimit="10" d="M 339.019531 279.503906 C 339.019531 285.96875 329.320312 285.96875 329.320312 279.503906 C 329.320312 273.035156 339.019531 273.035156 339.019531 279.503906 "/>
<path fill-rule="nonzero" fill="rgb(70.196078%, 70.196078%, 70.196078%)" fill-opacity="1" stroke-width="1" stroke-linecap="butt" stroke-linejoin="miter" stroke="rgb(70.196078%, 70.196078%, 70.196078%)" stroke-opacity="1" stroke-miterlimit="10" d="M 324.878906 158.050781 C 324.878906 164.519531 315.179688 164.519531 315.179688 158.050781 C 315.179688 151.585938 324.878906 151.585938 324.878906 158.050781 "/>
<path fill-rule="nonzero" fill="rgb(70.196078%, 70.196078%, 70.196078%)" fill-opacity="1" stroke-width="1" stroke-linecap="butt" stroke-linejoin="miter" stroke="rgb(70.196078%, 70.196078%, 70.196078%)" stroke-opacity="1" stroke-miterlimit="10" d="M 349.628906 428.328125 C 349.628906 434.796875 339.925781 434.796875 339.925781 428.328125 C 339.925781 421.863281 349.628906 421.863281 349.628906 428.328125 "/>
<path fill-rule="nonzero" fill="rgb(70.196078%, 70.196078%, 70.196078%)" fill-opacity="1" stroke-width="1" stroke-linecap="butt" stroke-linejoin="miter" stroke="rgb(70.196078%, 70.196078%, 70.196078%)" stroke-opacity="1" stroke-miterlimit="10" d="M 290.621094 71.332031 C 290.621094 77.800781 280.917969 77.800781 280.917969 71.332031 C 280.917969 64.867188 290.621094 64.867188 290.621094 71.332031 "/>
<path fill-rule="nonzero" fill="rgb(70.196078%, 70.196078%, 70.196078%)" fill-opacity="1" stroke-width="1" stroke-linecap="butt" stroke-linejoin="miter" stroke="rgb(70.196078%, 70.196078%, 70.196078%)" stroke-opacity="1" stroke-miterlimit="10" d="M 231.328125 67.265625 C 231.328125 73.734375 221.628906 73.734375 221.628906 67.265625 C 221.628906 60.800781 231.328125 60.800781 231.328125 67.265625 "/>
<path fill-rule="nonzero" fill="rgb(70.196078%, 70.196078%, 70.196078%)" fill-opacity="1" stroke-width="1" stroke-linecap="butt" stroke-linejoin="miter" stroke="rgb(70.196078%, 70.196078%, 70.196078%)" stroke-opacity="1" stroke-miterlimit="10" d="M 203.253906 146.773438 C 203.253906 153.238281 193.554688 153.238281 193.554688 146.773438 C 193.554688 140.304688 203.253906 140.304688 203.253906 146.773438 "/>
<path fill-rule="nonzero" fill="rgb(70.196078%, 70.196078%, 70.196078%)" fill-opacity="1" stroke-width="1" stroke-linecap="butt" stroke-linejoin="miter" stroke="rgb(70.196078%, 70.196078%, 70.196078%)" stroke-opacity="1" stroke-miterlimit="10" d="M 211.277344 243.71875 C 211.277344 250.1875 201.578125 250.1875 201.578125 243.71875 C 201.578125 237.253906 211.277344 237.253906 211.277344 243.71875 "/>
<path fill-rule="nonzero" fill="rgb(70.196078%, 70.196078%, 70.196078%)" fill-opacity="1" stroke-width="1" stroke-linecap="butt" stroke-linejoin="miter" stroke="rgb(70.196078%, 70.196078%, 70.196078%)" stroke-opacity="1" stroke-miterlimit="10" d="M 247.074219 438.441406 C 247.074219 444.910156 237.375 444.910156 237.375 438.441406 C 237.375 431.976562 247.074219 431.976562 247.074219 438.441406 "/>
<path fill-rule="nonzero" fill="rgb(70.196078%, 70.196078%, 70.196078%)" fill-opacity="1" stroke-width="1" stroke-linecap="butt" stroke-linejoin="miter" stroke="rgb(70.196078%, 70.196078%, 70.196078%)" stroke-opacity="1" stroke-miterlimit="10" d="M 232.46875 341.203125 C 232.46875 347.671875 222.769531 347.671875 222.769531 341.203125 C 222.769531 334.738281 232.46875 334.738281 232.46875 341.203125 "/>
<path fill-rule="nonzero" fill="rgb(70.196078%, 70.196078%, 70.196078%)" fill-opacity="1" stroke-width="1" stroke-linecap="butt" stroke-linejoin="miter" stroke="rgb(70.196078%, 70.196078%, 70.196078%)" stroke-opacity="1" stroke-miterlimit="10" d="M 121.714844 508.984375 C 121.714844 515.453125 112.015625 515.453125 112.015625 508.984375 C 112.015625 502.519531 121.714844 502.519531 121.714844 508.984375 "/>
<path fill-rule="nonzero" fill="rgb(70.196078%, 70.196078%, 70.196078%)" fill-opacity="1" stroke-width="1" stroke-linecap="butt" stroke-linejoin="miter" stroke="rgb(70.196078%, 70.196078%, 70.196078%)" stroke-opacity="1" stroke-miterlimit="10" d="M 67.832031 530.542969 C 67.832031 537.011719 58.128906 537.011719 58.128906 530.542969 C 58.128906 524.078125 67.832031 524.078125 67.832031 530.542969 "/>
<path fill-rule="nonzero" fill="rgb(70.196078%, 70.196078%, 70.196078%)" fill-opacity="1" stroke-width="1" stroke-linecap="butt" stroke-linejoin="miter" stroke="rgb(70.196078%, 70.196078%, 70.196078%)" stroke-opacity="1" stroke-miterlimit="10" d="M 232.054688 523.6875 C 232.054688 530.15625 222.355469 530.15625 222.355469 523.6875 C 222.355469 517.222656 232.054688 517.222656 232.054688 523.6875 "/>
<path fill-rule="nonzero" fill="rgb(70.196078%, 70.196078%, 70.196078%)" fill-opacity="1" stroke-width="1" stroke-linecap="butt" stroke-linejoin="miter" stroke="rgb(70.196078%, 70.196078%, 70.196078%)" stroke-opacity="1" stroke-miterlimit="10" d="M 177.285156 535.527344 C 177.285156 541.996094 167.585938 541.996094 167.585938 535.527344 C 167.585938 529.0625 177.285156 529.0625 177.285156 535.527344 "/>
<path fill-rule="nonzero" fill="rgb(70.196078%, 70.196078%, 70.196078%)" fill-opacity="1" stroke-width="1" stroke-linecap="butt" stroke-linejoin="miter" stroke="rgb(70.196078%, 70.196078%, 70.196078%)" stroke-opacity="1" stroke-miterlimit="10" d="M 54.851562 609.710938 C 54.851562 616.179688 45.148438 616.179688 45.148438 609.710938 C 45.148438 603.246094 54.851562 603.246094 54.851562 609.710938 "/>
<path fill-rule="nonzero" fill="rgb(100%, 84.313725%, 0%)" fill-opacity="1" stroke-width="1" stroke-linecap="butt" stroke-linejoin="miter" stroke="rgb(100%, 84.313725%, 0%)" stroke-opacity="1" stroke-miterlimit="10" d="M 66.351562 675.570312 L 77.050781 675.570312 L 77.050781 686.269531 L 66.351562 686.269531 Z M 66.351562 675.570312 "/>
</svg>
