<?xml version="1.0" encoding="UTF-8"?>
<svg xmlns="http://www.w3.org/2000/svg" xmlns:xlink="http://www.w3.org/1999/xlink" width="800" height="800" viewBox="0 0 800 800">
<rect x="-80" y="-80" width="960" height="960" fill="rgb(100%, 100%, 100%)" fill-opacity="1"/>
<path fill="none" stroke-width="1.5" stroke-linecap="butt" stroke-linejoin="miter" stroke="rgb(98.431373%, 60.392157%, 60%)" stroke-opacity="1" stroke-miterlimit="10" d="M 126.296875 368.292969 C 109.421875 358.539062 91.320312 355.695312 73.246094 362.898438 "/>
<path fill-rule="nonzero" fill="rgb(98.431373%, 60.392157%, 60%)" fill-opacity="1" d="M 66.621094 365.539062 L 72.386719 360.746094 L 74.105469 365.050781 L 66.621094 365.539062 "/>
<path fill="none" stroke-width="1.5" stroke-linecap="butt" stroke-linejoin="miter" stroke="rgb(98.431373%, 60.392157%, 60%)" stroke-opacity="1" stroke-miterlimit="10" d="M 170.082031 440.878906 C 167.851562 412.578125 156.023438 388.984375 132.742188 372.78125 "/>
<path fill-rule="nonzero" fill="rgb(98.431373%, 60.392157%, 60%)" fill-opacity="1" d="M 126.886719 368.707031 L 134.0625 370.878906 L 131.417969 374.683594 L 126.886719 368.707031 "/>
<path fill="none" stroke-width="1.5" stroke-linecap="butt" stroke-linejoin="miter" stroke="rgb(98.431373%, 60.392157%, 60%)" stroke-opacity="1" stroke-miterlimit="10" d="M 220.625 544.375 C 220.554688 504.878906 206.414062 471.222656 176.109375 445.914062 "/>
<path fill-rule="nonzero" fill="rgb(98.431373%, 60.392157%, 60%)" fill-opacity="1" d="M 170.636719 441.339844 L 177.597656 444.136719 L 174.625 447.691406 L 170.636719 441.339844 "/>
<path fill="none" stroke-width="1.5" stroke-linecap="butt" stroke-linejoin="miter" stroke="rgb(98.431373%, 60.392157%, 60%)" stroke-opacity="1" stroke-miterlimit="10" d="M 352.039062 441.941406 C 345.933594 423.402344 334.308594 409.210938 316 402.542969 "/>
<path fill-rule="nonzero" fill="rgb(98.431373%, 60.392157%, 60%)" fill-opacity="1" d="M 309.296875 400.101562 L 316.792969 400.363281 L 315.207031 404.71875 L 309.296875 400.101562 "/>
<path fill="none" stroke-width="1.5" stroke-linecap="butt" stroke-linejoin="miter" stroke="rgb(98.431373%, 60.392157%, 60%)" stroke-opacity="1" stroke-miterlimit="10" d="M 378.839844 383.503906 C 362.347656 396.359375 352.351562 413.207031 352.125 434.089844 "/>
<path fill-rule="nonzero" fill="rgb(98.431373%, 60.392157%, 60%)" fill-opacity="1" d="M 352.046875 441.222656 L 349.804688 434.0625 L 354.441406 434.113281 L 352.046875 441.222656 "/>
<path fill="none" stroke-width="5.5" stroke-linecap="butt" stroke-linejoin="miter" stroke="rgb(70.196078%, 70.196078%, 70.196078%)" stroke-opacity="1" stroke-miterlimit="10" d="M 581.371094 539.785156 C 594.375 555.445312 611.078125 564.730469 631.398438 564.253906 "/>
<path fill-rule="nonzero" fill="rgb(70.196078%, 70.196078%, 70.196078%)" fill-opacity="1" d="M 638.53125 564.085938 L 631.453125 566.570312 L 631.34375 561.9375 L 638.53125 564.085938 "/>
<path fill="none" stroke-width="3.5" stroke-linecap="butt" stroke-linejoin="miter" stroke="rgb(70.196078%, 70.196078%, 70.196078%)" stroke-opacity="1" stroke-miterlimit="10" d="M 527.625 155.1875 C 547.445312 157.589844 565.621094 152.96875 579.769531 138.925781 "/>
<path fill-rule="nonzero" fill="rgb(70.196078%, 70.196078%, 70.196078%)" fill-opacity="1" d="M 584.832031 133.902344 L 581.402344 140.574219 L 578.136719 137.28125 L 584.832031 133.902344 "/>
<path fill="none" stroke-width="4.5" stroke-linecap="butt" stroke-linejoin="miter" stroke="rgb(70.196078%, 70.196078%, 70.196078%)" stroke-opacity="1" stroke-miterlimit="10" d="M 639.40625 348.59375 C 614.222656 330.269531 586.136719 323.359375 556 331.144531 "/>
<path fill-rule="nonzero" fill="rgb(70.196078%, 70.196078%, 70.196078%)" fill-opacity="1" d="M 549.09375 332.929688 L 555.421875 328.902344 L 556.582031 333.390625 L 549.09375 332.929688 "/>
<path fill="none" stroke-width="4.5" stroke-linecap="butt" stroke-linejoin="miter" stroke="rgb(70.196078%, 70.196078%, 70.196078%)" stroke-opacity="1" stroke-miterlimit="10" d="M 479.144531 310.925781 C 491.808594 298.527344 498.824219 283.355469 496.824219 265.78125 "/>
<path fill-rule="nonzero" fill="rgb(70.196078%, 70.196078%, 70.196078%)" fill-opacity="1" d="M 496.019531 258.695312 L 499.128906 265.519531 L 494.523438 266.042969 L 496.019531 258.695312 "/>
<path fill="none" stroke-width="4.5" stroke-linecap="butt" stroke-linejoin="miter" stroke="rgb(70.196078%, 70.196078%, 70.196078%)" stroke-opacity="1" stroke-miterlimit="10" d="M 546.78125 333.527344 C 530.914062 316.988281 511.429688 308.050781 488.628906 310.082031 "/>
<path fill-rule="nonzero" fill="rgb(70.196078%, 70.196078%, 70.196078%)" fill-opacity="1" d="M 481.523438 310.710938 L 488.421875 307.773438 L 488.832031 312.386719 L 481.523438 310.710938 "/>
<path fill="none" stroke-width="4.5" stroke-linecap="butt" stroke-linejoin="miter" stroke="rgb(70.196078%, 70.196078%, 70.196078%)" stroke-opacity="1" stroke-miterlimit="10" d="M 307.054688 399.285156 C 277.882812 411.171875 256.996094 431.636719 247.621094 461.691406 "/>
<path fill-rule="nonzero" fill="rgb(70.196078%, 70.196078%, 70.196078%)" fill-opacity="1" d="M 245.5 468.5 L 245.410156 461 L 249.835938 462.378906 L 245.5 468.5 "/>
<path fill="none" stroke-width="1.5" stroke-linecap="butt" stroke-linejoin="miter" stroke="rgb(98.431373%, 60.392157%, 60%)" stroke-opacity="1" stroke-miterlimit="10" d="M 369.109375 303.527344 C 360.019531 328.796875 360.980469 353.773438 374.796875 376.773438 "/>
<path fill-rule="nonzero" fill="rgb(98.431373%, 60.392157%, 60%)" fill-opacity="1" d="M 378.46875 382.886719 L 372.808594 377.964844 L 376.78125 375.578125 L 378.46875 382.886719 "/>
<path fill="none" stroke-width="3.5" stroke-linecap="butt" stroke-linejoin="miter" stroke="rgb(70.196078%, 70.196078%, 70.196078%)" stroke-opacity="1" stroke-miterlimit="10" d="M 369.109375 303.527344 C 335.976562 323.230469 314.679688 351.835938 308.566406 389.882812 "/>
<path fill-rule="nonzero" fill="rgb(70.196078%, 70.196078%, 70.196078%)" fill-opacity="1" d="M 307.433594 396.921875 L 306.277344 389.511719 L 310.855469 390.25 L 307.433594 396.921875 "/>
<path fill="none" stroke-width="3.5" stroke-linecap="butt" stroke-linejoin="miter" stroke="rgb(70.196078%, 70.196078%, 70.196078%)" stroke-opacity="1" stroke-miterlimit="10" d="M 50 439.203125 C 65.003906 420.511719 71.589844 399.109375 66.449219 375.722656 "/>
<path fill-rule="nonzero" fill="rgb(70.196078%, 70.196078%, 70.196078%)" fill-opacity="1" d="M 64.917969 368.753906 L 68.714844 375.222656 L 64.1875 376.21875 L 64.917969 368.753906 "/>
<path fill="none" stroke-width="3.5" stroke-linecap="butt" stroke-linejoin="miter" stroke="rgb(70.196078%, 70.196078%, 70.196078%)" stroke-opacity="1" stroke-miterlimit="10" d="M 90.347656 510.847656 C 89.324219 483.964844 79.085938 461.089844 57.609375 444.929688 "/>
<path fill-rule="nonzero" fill="rgb(70.196078%, 70.196078%, 70.196078%)" fill-opacity="1" d="M 51.910156 440.640625 L 59 443.078125 L 56.214844 446.78125 L 51.910156 440.640625 "/>
<path fill="none" stroke-width="3.5" stroke-linecap="butt" stroke-linejoin="miter" stroke="rgb(70.196078%, 70.196078%, 70.196078%)" stroke-opacity="1" stroke-miterlimit="10" d="M 169.234375 549.75 C 151.882812 526.519531 128.808594 512.566406 99.863281 511.273438 "/>
<path fill-rule="nonzero" fill="rgb(70.196078%, 70.196078%, 70.196078%)" fill-opacity="1" d="M 92.734375 510.953125 L 99.964844 508.957031 L 99.757812 513.585938 L 92.734375 510.953125 "/>
<path fill="none" stroke-width="1.5" stroke-linecap="butt" stroke-linejoin="miter" stroke="rgb(98.431373%, 60.392157%, 60%)" stroke-opacity="1" stroke-miterlimit="10" d="M 169.234375 549.75 C 178.507812 581.195312 197.539062 604.910156 227.667969 617.789062 "/>
<path fill-rule="nonzero" fill="rgb(98.431373%, 60.392157%, 60%)" fill-opacity="1" d="M 234.226562 620.589844 L 226.757812 619.917969 L 228.578125 615.65625 L 234.226562 620.589844 "/>
<path fill="none" stroke-width="4.5" stroke-linecap="butt" stroke-linejoin="miter" stroke="rgb(70.196078%, 70.196078%, 70.196078%)" stroke-opacity="1" stroke-miterlimit="10" d="M 244.785156 470.78125 C 210.183594 483.273438 185.019531 506.230469 172.480469 540.796875 "/>
<path fill-rule="nonzero" fill="rgb(70.196078%, 70.196078%, 70.196078%)" fill-opacity="1" d="M 170.050781 547.503906 L 170.304688 540.007812 L 174.660156 541.589844 L 170.050781 547.503906 "/>
<path fill="none" stroke-width="4.5" stroke-linecap="butt" stroke-linejoin="miter" stroke="rgb(70.196078%, 70.196078%, 70.196078%)" stroke-opacity="1" stroke-miterlimit="10" d="M 437.578125 147.136719 C 392.707031 185.816406 368.738281 234.777344 369.058594 294.003906 "/>
<path fill-rule="nonzero" fill="rgb(70.196078%, 70.196078%, 70.196078%)" fill-opacity="1" d="M 369.09375 301.136719 L 366.738281 294.015625 L 371.375 293.988281 L 369.09375 301.136719 "/>
<path fill="none" stroke-width="4.5" stroke-linecap="butt" stroke-linejoin="miter" stroke="rgb(70.196078%, 70.196078%, 70.196078%)" stroke-opacity="1" stroke-miterlimit="10" d="M 499.84375 60.851562 C 468.203125 77.46875 447.007812 102.890625 439.5625 137.824219 "/>
<path fill-rule="nonzero" fill="rgb(70.196078%, 70.196078%, 70.196078%)" fill-opacity="1" d="M 438.078125 144.800781 L 437.296875 137.339844 L 441.828125 138.308594 L 438.078125 144.800781 "/>
<path fill="none" stroke-width="4.5" stroke-linecap="butt" stroke-linejoin="miter" stroke="rgb(70.196078%, 70.196078%, 70.196078%)" stroke-opacity="1" stroke-miterlimit="10" d="M 586.527344 132.222656 C 594.007812 105.757812 591.25 80.300781 575.480469 57.796875 "/>
<path fill-rule="nonzero" fill="rgb(70.196078%, 70.196078%, 70.196078%)" fill-opacity="1" d="M 571.386719 51.957031 L 577.378906 56.46875 L 573.582031 59.128906 L 571.386719 51.957031 "/>
<path fill="none" stroke-width="1.5" stroke-linecap="butt" stroke-linejoin="miter" stroke="rgb(98.431373%, 60.392157%, 60%)" stroke-opacity="1" stroke-miterlimit="10" d="M 582.558594 267.191406 C 604.003906 226.277344 607.570312 183.800781 590.125 141.042969 "/>
<path fill-rule="nonzero" fill="rgb(98.431373%, 60.392157%, 60%)" fill-opacity="1" d="M 587.429688 134.4375 L 592.269531 140.167969 L 587.980469 141.917969 L 587.429688 134.4375 "/>
<path fill="none" stroke-width="4.5" stroke-linecap="butt" stroke-linejoin="miter" stroke="rgb(70.196078%, 70.196078%, 70.196078%)" stroke-opacity="1" stroke-miterlimit="10" d="M 570.019531 50 C 548.441406 42.597656 527.128906 43.566406 507.882812 55.757812 "/>
<path fill-rule="nonzero" fill="rgb(70.196078%, 70.196078%, 70.196078%)" fill-opacity="1" d="M 501.859375 59.574219 L 506.644531 53.800781 L 509.125 57.714844 L 501.859375 59.574219 "/>
<path fill="none" stroke-width="3.5" stroke-linecap="butt" stroke-linejoin="miter" stroke="rgb(70.196078%, 70.196078%, 70.196078%)" stroke-opacity="1" stroke-miterlimit="10" d="M 687.960938 393.636719 C 681.054688 373.738281 668.234375 358.710938 648.386719 351.746094 "/>
<path fill-rule="nonzero" fill="rgb(70.196078%, 70.196078%, 70.196078%)" fill-opacity="1" d="M 641.65625 349.386719 L 649.15625 349.558594 L 647.621094 353.933594 L 641.65625 349.386719 "/>
<path fill="none" stroke-width="1.5" stroke-linecap="butt" stroke-linejoin="miter" stroke="rgb(98.431373%, 60.392157%, 60%)" stroke-opacity="1" stroke-miterlimit="10" d="M 538.984375 396.527344 C 571.988281 362.671875 587.847656 322.058594 583.3125 275.007812 "/>
<path fill-rule="nonzero" fill="rgb(98.431373%, 60.392157%, 60%)" fill-opacity="1" d="M 582.628906 267.90625 L 585.621094 274.785156 L 581.007812 275.230469 L 582.628906 267.90625 "/>
<path fill="none" stroke-width="1.5" stroke-linecap="butt" stroke-linejoin="miter" stroke="rgb(12.156863%, 47.058824%, 70.588235%)" stroke-opacity="1" stroke-miterlimit="10" d="M 538.984375 396.527344 C 509.808594 455.839844 506.746094 516.507812 532.785156 577.25 "/>
<path fill-rule="nonzero" fill="rgb(12.156863%, 47.058824%, 70.588235%)" fill-opacity="1" d="M 535.597656 583.804688 L 530.65625 578.164062 L 534.917969 576.335938 L 535.597656 583.804688 "/>
<path fill="none" stroke-width="1.5" stroke-linecap="butt" stroke-linejoin="miter" stroke="rgb(12.156863%, 47.058824%, 70.588235%)" stroke-opacity="1" stroke-miterlimit="10" d="M 663.667969 229.40625 C 639.289062 207.324219 610.59375 197.007812 578.054688 201.6875 "/>
<path fill-rule="nonzero" fill="rgb(12.156863%, 47.058824%, 70.588235%)" fill-opacity="1" d="M 570.992188 202.703125 L 577.722656 199.394531 L 578.382812 203.980469 L 570.992188 202.703125 "/>
<path fill="none" stroke-width="1.5" stroke-linecap="butt" stroke-linejoin="miter" stroke="rgb(98.431373%, 60.392157%, 60%)" stroke-opacity="1" stroke-miterlimit="10" d="M 702.164062 310.492188 C 678.523438 312.007812 658.507812 321.464844 644.886719 340.8125 "/>
<path fill-rule="nonzero" fill="rgb(98.431373%, 60.392157%, 60%)" fill-opacity="1" d="M 640.78125 346.644531 L 642.992188 339.476562 L 646.78125 342.144531 L 640.78125 346.644531 "/>
<path fill="none" stroke-width="1.5" stroke-linecap="butt" stroke-linejoin="miter" stroke="rgb(12.156863%, 47.058824%, 70.588235%)" stroke-opacity="1" stroke-miterlimit="10" d="M 702.164062 310.492188 C 702.71875 280.285156 692.582031 254.132812 669.636719 234.511719 "/>
<path fill-rule="nonzero" fill="rgb(12.156863%, 47.058824%, 70.588235%)" fill-opacity="1" d="M 664.214844 229.875 L 671.140625 232.75 L 668.128906 236.273438 L 664.214844 229.875 "/>
<path fill="none" stroke-width="3.5" stroke-linecap="butt" stroke-linejoin="miter" stroke="rgb(70.196078%, 70.196078%, 70.196078%)" stroke-opacity="1" stroke-miterlimit="10" d="M 741.914062 396.886719 C 727.886719 387.972656 712.5 384.75 696.910156 390.398438 "/>
<path fill-rule="nonzero" fill="rgb(70.196078%, 70.196078%, 70.196078%)" fill-opacity="1" d="M 690.203125 392.828125 L 696.121094 388.21875 L 697.699219 392.578125 L 690.203125 392.828125 "/>
<path fill="none" stroke-width="2.5" stroke-linecap="butt" stroke-linejoin="miter" stroke="rgb(70.196078%, 70.196078%, 70.196078%)" stroke-opacity="1" stroke-miterlimit="10" d="M 741.914062 396.886719 C 743.050781 365.300781 732.925781 337.761719 709.289062 316.808594 "/>
<path fill-rule="nonzero" fill="rgb(70.196078%, 70.196078%, 70.196078%)" fill-opacity="1" d="M 703.953125 312.074219 L 710.828125 315.074219 L 707.753906 318.542969 L 703.953125 312.074219 "/>
<path fill="none" stroke-width="1.5" stroke-linecap="butt" stroke-linejoin="miter" stroke="rgb(12.156863%, 47.058824%, 70.588235%)" stroke-opacity="1" stroke-miterlimit="10" d="M 461.957031 208.769531 C 464.113281 226.828125 472.082031 242 487.609375 251.398438 "/>
<path fill-rule="nonzero" fill="rgb(12.156863%, 47.058824%, 70.588235%)" fill-opacity="1" d="M 493.710938 255.09375 L 486.410156 253.382812 L 488.808594 249.417969 L 493.710938 255.09375 "/>
<path fill="none" stroke-width="1.5" stroke-linecap="butt" stroke-linejoin="miter" stroke="rgb(12.156863%, 47.058824%, 70.588235%)" stroke-opacity="1" stroke-miterlimit="10" d="M 570.28125 202.804688 C 536.144531 188.394531 501.867188 188.214844 468.9375 205.175781 "/>
<path fill-rule="nonzero" fill="rgb(12.156863%, 47.058824%, 70.588235%)" fill-opacity="1" d="M 462.597656 208.441406 L 467.878906 203.113281 L 470 207.234375 L 462.597656 208.441406 "/>
<path fill="none" stroke-width="3.5" stroke-linecap="butt" stroke-linejoin="miter" stroke="rgb(70.196078%, 70.196078%, 70.196078%)" stroke-opacity="1" stroke-miterlimit="10" d="M 495.75 256.328125 C 520.472656 230.707031 532.566406 200.023438 528.667969 164.652344 "/>
<path fill-rule="nonzero" fill="rgb(70.196078%, 70.196078%, 70.196078%)" fill-opacity="1" d="M 527.886719 157.5625 L 530.96875 164.398438 L 526.363281 164.90625 L 527.886719 157.5625 "/>
<path fill="none" stroke-width="2.5" stroke-linecap="butt" stroke-linejoin="miter" stroke="rgb(70.196078%, 70.196078%, 70.196078%)" stroke-opacity="1" stroke-miterlimit="10" d="M 495.75 256.328125 C 488.125 306.210938 499.597656 351.292969 532.726562 389.34375 "/>
<path fill-rule="nonzero" fill="rgb(70.196078%, 70.196078%, 70.196078%)" fill-opacity="1" d="M 537.414062 394.722656 L 530.980469 390.863281 L 534.476562 387.820312 L 537.414062 394.722656 "/>
<path fill="none" stroke-width="1.5" stroke-linecap="butt" stroke-linejoin="miter" stroke="rgb(12.156863%, 47.058824%, 70.588235%)" stroke-opacity="1" stroke-miterlimit="10" d="M 528.199219 691.871094 C 503.074219 700.898438 484.535156 717.445312 475.652344 742.597656 "/>
<path fill-rule="nonzero" fill="rgb(12.156863%, 47.058824%, 70.588235%)" fill-opacity="1" d="M 473.277344 749.324219 L 473.464844 741.824219 L 477.835938 743.367188 L 473.277344 749.324219 "/>
<path fill="none" stroke-width="1.5" stroke-linecap="butt" stroke-linejoin="miter" stroke="rgb(12.156863%, 47.058824%, 70.588235%)" stroke-opacity="1" stroke-miterlimit="10" d="M 535.882812 584.464844 C 517.421875 616.253906 512.941406 649.96875 525.515625 684.496094 "/>
<path fill-rule="nonzero" fill="rgb(12.156863%, 47.058824%, 70.588235%)" fill-opacity="1" d="M 527.953125 691.195312 L 523.335938 685.289062 L 527.691406 683.703125 L 527.953125 691.195312 "/>
<path fill="none" stroke-width="5.5" stroke-linecap="butt" stroke-linejoin="miter" stroke="rgb(70.196078%, 70.196078%, 70.196078%)" stroke-opacity="1" stroke-miterlimit="10" d="M 750 485.660156 C 760.90625 458.324219 760.730469 430.96875 746.519531 405.222656 "/>
<path fill-rule="nonzero" fill="rgb(70.196078%, 70.196078%, 70.196078%)" fill-opacity="1" d="M 743.070312 398.980469 L 748.546875 404.105469 L 744.488281 406.34375 L 743.070312 398.980469 "/>
<path fill="none" stroke-width="5.5" stroke-linecap="butt" stroke-linejoin="miter" stroke="rgb(70.196078%, 70.196078%, 70.196078%)" stroke-opacity="1" stroke-miterlimit="10" d="M 707.410156 549.246094 C 729.175781 537.308594 743.921875 519.4375 748.3125 495.03125 "/>
<path fill-rule="nonzero" fill="rgb(70.196078%, 70.196078%, 70.196078%)" fill-opacity="1" d="M 749.578125 488.007812 L 750.59375 495.441406 L 746.03125 494.617188 L 749.578125 488.007812 "/>
<path fill="none" stroke-width="1.5" stroke-linecap="butt" stroke-linejoin="miter" stroke="rgb(12.156863%, 47.058824%, 70.588235%)" stroke-opacity="1" stroke-miterlimit="10" d="M 473.039062 750 C 449.828125 737.601562 425.46875 734.972656 401.21875 745.125 "/>
<path fill-rule="nonzero" fill="rgb(12.156863%, 47.058824%, 70.588235%)" fill-opacity="1" d="M 394.640625 747.878906 L 400.324219 742.988281 L 402.113281 747.261719 L 394.640625 747.878906 "/>
<path fill="none" stroke-width="1.5" stroke-linecap="butt" stroke-linejoin="miter" stroke="rgb(98.431373%, 60.392157%, 60%)" stroke-opacity="1" stroke-miterlimit="10" d="M 236.421875 621.53125 C 243.296875 596.253906 240.441406 572.03125 225.195312 550.757812 "/>
<path fill-rule="nonzero" fill="rgb(98.431373%, 60.392157%, 60%)" fill-opacity="1" d="M 221.042969 544.960938 L 227.082031 549.40625 L 223.3125 552.105469 L 221.042969 544.960938 "/>
<path fill="none" stroke-width="1.5" stroke-linecap="butt" stroke-linejoin="miter" stroke="rgb(12.156863%, 47.058824%, 70.588235%)" stroke-opacity="1" stroke-miterlimit="10" d="M 313.929688 702.078125 C 302.574219 666.128906 280.101562 639.441406 245.234375 625.144531 "/>
<path fill-rule="nonzero" fill="rgb(12.156863%, 47.058824%, 70.588235%)" fill-opacity="1" d="M 238.636719 622.4375 L 246.113281 623 L 244.355469 627.289062 L 238.636719 622.4375 "/>
<path fill="none" stroke-width="1.5" stroke-linecap="butt" stroke-linejoin="miter" stroke="rgb(12.156863%, 47.058824%, 70.588235%)" stroke-opacity="1" stroke-miterlimit="10" d="M 393.976562 748.15625 C 376.691406 722.230469 352.722656 706.054688 321.742188 702.878906 "/>
<path fill-rule="nonzero" fill="rgb(12.156863%, 47.058824%, 70.588235%)" fill-opacity="1" d="M 314.644531 702.152344 L 321.976562 700.574219 L 321.503906 705.183594 L 314.644531 702.152344 "/>
<path fill="none" stroke-width="5.5" stroke-linecap="butt" stroke-linejoin="miter" stroke="rgb(70.196078%, 70.196078%, 70.196078%)" stroke-opacity="1" stroke-miterlimit="10" d="M 640.914062 564.03125 C 661.894531 569.792969 682.15625 567.640625 699.714844 554.851562 "/>
<path fill-rule="nonzero" fill="rgb(70.196078%, 70.196078%, 70.196078%)" fill-opacity="1" d="M 705.480469 550.652344 L 701.082031 556.722656 L 698.351562 552.976562 L 705.480469 550.652344 "/>
<path fill-rule="nonzero" fill="rgb(98.431373%, 60.392157%, 60%)" fill-opacity="1" stroke-width="1" stroke-linecap="butt" stroke-linejoin="miter" stroke="rgb(98.431373%, 60.392157%, 60%)" stroke-opacity="1" stroke-miterlimit="10" d="M 127.046875 368.292969 C 127.046875 369.292969 125.546875 369.292969 125.546875 368.292969 C 125.546875 367.292969 127.046875 367.292969 127.046875 368.292969 "/>
<path fill-rule="nonzero" fill="rgb(98.431373%, 60.392157%, 60%)" fill-opacity="1" stroke-width="1" stroke-linecap="butt" stroke-linejoin="miter" stroke="rgb(98.431373%, 60.392157%, 60%)" stroke-opacity="1" stroke-miterlimit="10" d="M 170.832031 440.878906 C 170.832031 441.878906 169.332031 441.878906 169.332031 440.878906 C 169.332031 439.878906 170.832031 439.878906 170.832031 440.878906 "/>
<path fill-rule="nonzero" fill="rgb(98.431373%, 60.392157%, 60%)" fill-opacity="1" stroke-width="1" stroke-linecap="butt" stroke-linejoin="miter" stroke="rgb(98.431373%, 60.392157%, 60%)" stroke-opacity="1" stroke-miterlimit="10" d="M 221.375 544.375 C 221.375 545.375 219.875 545.375 219.875 544.375 C 219.875 543.375 221.375 543.375 221.375 544.375 "/>
<path fill-rule="nonzero" fill="rgb(98.431373%, 60.392157%, 60%)" fill-opacity="1" stroke-width="1" stroke-linecap="butt" stroke-linejoin="miter" stroke="rgb(98.431373%, 60.392157%, 60%)" stroke-opacity="1" stroke-miterlimit="10" d="M 352.789062 441.941406 C 352.789062 442.941406 351.289062 442.941406 351.289062 441.941406 C 351.289062 440.941406 352.789062 440.941406 352.789062 441.941406 "/>
<path fill-rule="nonzero" fill="rgb(98.431373%, 60.392157%, 60%)" fill-opacity="1" stroke-width="1" stroke-linecap="butt" stroke-linejoin="miter" stroke="rgb(98.431373%, 60.392157%, 60%)" stroke-opacity="1" stroke-miterlimit="10" d="M 379.589844 383.503906 C 379.589844 384.503906 378.089844 384.503906 378.089844 383.503906 C 378.089844 382.503906 379.589844 382.503906 379.589844 383.503906 "/>
<path fill-rule="nonzero" fill="rgb(100%, 84.313725%, 0%)" fill-opacity="1" stroke-width="1" stroke-linecap="butt" stroke-linejoin="miter" stroke="rgb(100%, 84.313725%, 0%)" stroke-opacity="1" stroke-miterlimit="10" d="M 578.871094 537.285156 L 583.871094 537.285156 L 583.871094 542.285156 L 578.871094 542.285156 Z M 578.871094 537.285156 "/>
<path fill-rule="nonzero" fill="rgb(70.196078%, 70.196078%, 70.196078%)" fill-opacity="1" stroke-width="1" stroke-linecap="butt" stroke-linejoin="miter" stroke="rgb(70.196078%, 70.196078%, 70.196078%)" stroke-opacity="1" stroke-miterlimit="10" d="M 530.125 155.1875 C 530.125 158.519531 525.125 158.519531 525.125 155.1875 C 525.125 151.855469 530.125 151.855469 530.125 155.1875 "/>
<path fill-rule="nonzero" fill="rgb(70.196078%, 70.196078%, 70.196078%)" fill-opacity="1" stroke-width="1" stroke-linecap="butt" stroke-linejoin="miter" stroke="rgb(70.196078%, 70.196078%, 70.196078%)" stroke-opacity="1" stroke-miterlimit="10" d="M 641.90625 348.59375 C 641.90625 351.929688 636.90625 351.929688 636.90625 348.59375 C 636.90625 345.261719 641.90625 345.261719 641.90625 348.59375 "/>
<path fill-rule="nonzero" fill="rgb(70.196078%, 70.196078%, 70.196078%)" fill-opacity="1" stroke-width="1" stroke-linecap="butt" stroke-linejoin="miter" stroke="rgb(70.196078%, 70.196078%, 70.196078%)" stroke-opacity="1" stroke-miterlimit="10" d="M 481.644531 310.925781 C 481.644531 314.257812 476.644531 314.257812 476.644531 310.925781 C 476.644531 307.589844 481.644531 307.589844 481.644531 310.925781 "/>
<path fill-rule="nonzero" fill="rgb(70.196078%, 70.196078%, 70.196078%)" fill-opacity="1" stroke-width="1" stroke-linecap="butt" stroke-linejoin="miter" stroke="rgb(70.196078%, 70.196078%, 70.196078%)" stroke-opacity="1" stroke-miterlimit="10" d="M 549.28125 333.527344 C 549.28125 336.859375 544.28125 336.859375 544.28125 333.527344 C 544.28125 330.195312 549.28125 330.195312 549.28125 333.527344 "/>
<path fill-rule="nonzero" fill="rgb(14.901961%, 14.901961%, 14.901961%)" fill-opacity="1" stroke-width="1" stroke-linecap="butt" stroke-linejoin="miter" stroke="rgb(14.901961%, 14.901961%, 14.901961%)" stroke-opacity="1" stroke-miterlimit="10" d="M 61.90625 368.921875 L 64.40625 363.921875 L 66.90625 368.921875 Z M 61.90625 368.921875 "/>
<path fill-rule="nonzero" fill="rgb(70.196078%, 70.196078%, 70.196078%)" fill-opacity="1" stroke-width="1" stroke-linecap="butt" stroke-linejoin="miter" stroke="rgb(70.196078%, 70.196078%, 70.196078%)" stroke-opacity="1" stroke-miterlimit="10" d="M 309.554688 399.285156 C 309.554688 402.617188 304.554688 402.617188 304.554688 399.285156 C 304.554688 395.949219 309.554688 395.949219 309.554688 399.285156 "/>
<path fill-rule="nonzero" fill="rgb(70.196078%, 70.196078%, 70.196078%)" fill-opacity="1" stroke-width="1" stroke-linecap="butt" stroke-linejoin="miter" stroke="rgb(70.196078%, 70.196078%, 70.196078%)" stroke-opacity="1" stroke-miterlimit="10" d="M 371.609375 303.527344 C 371.609375 306.863281 366.609375 306.863281 366.609375 303.527344 C 366.609375 300.195312 371.609375 300.195312 371.609375 303.527344 "/>
<path fill-rule="nonzero" fill="rgb(70.196078%, 70.196078%, 70.196078%)" fill-opacity="1" stroke-width="1" stroke-linecap="butt" stroke-linejoin="miter" stroke="rgb(70.196078%, 70.196078%, 70.196078%)" stroke-opacity="1" stroke-miterlimit="10" d="M 52.5 439.203125 C 52.5 442.539062 47.5 442.539062 47.5 439.203125 C 47.5 435.871094 52.5 435.871094 52.5 439.203125 "/>
<path fill-rule="nonzero" fill="rgb(70.196078%, 70.196078%, 70.196078%)" fill-opacity="1" stroke-width="1" stroke-linecap="butt" stroke-linejoin="miter" stroke="rgb(70.196078%, 70.196078%, 70.196078%)" stroke-opacity="1" stroke-miterlimit="10" d="M 92.847656 510.847656 C 92.847656 514.179688 87.847656 514.179688 87.847656 510.847656 C 87.847656 507.515625 92.847656 507.515625 92.847656 510.847656 "/>
<path fill-rule="nonzero" fill="rgb(70.196078%, 70.196078%, 70.196078%)" fill-opacity="1" stroke-width="1" stroke-linecap="butt" stroke-linejoin="miter" stroke="rgb(70.196078%, 70.196078%, 70.196078%)" stroke-opacity="1" stroke-miterlimit="10" d="M 171.734375 549.75 C 171.734375 553.085938 166.734375 553.085938 166.734375 549.75 C 166.734375 546.417969 171.734375 546.417969 171.734375 549.75 "/>
<path fill-rule="nonzero" fill="rgb(70.196078%, 70.196078%, 70.196078%)" fill-opacity="1" stroke-width="1" stroke-linecap="butt" stroke-linejoin="miter" stroke="rgb(70.196078%, 70.196078%, 70.196078%)" stroke-opacity="1" stroke-miterlimit="10" d="M 247.285156 470.78125 C 247.285156 474.113281 242.285156 474.113281 242.285156 470.78125 C 242.285156 467.449219 247.285156 467.449219 247.285156 470.78125 "/>
<path fill-rule="nonzero" fill="rgb(70.196078%, 70.196078%, 70.196078%)" fill-opacity="1" stroke-width="1" stroke-linecap="butt" stroke-linejoin="miter" stroke="rgb(70.196078%, 70.196078%, 70.196078%)" stroke-opacity="1" stroke-miterlimit="10" d="M 440.078125 147.136719 C 440.078125 150.472656 435.078125 150.472656 435.078125 147.136719 C 435.078125 143.804688 440.078125 143.804688 440.078125 147.136719 "/>
<path fill-rule="nonzero" fill="rgb(70.196078%, 70.196078%, 70.196078%)" fill-opacity="1" stroke-width="1" stroke-linecap="butt" stroke-linejoin="miter" stroke="rgb(70.196078%, 70.196078%, 70.196078%)" stroke-opacity="1" stroke-miterlimit="10" d="M 502.34375 60.851562 C 502.34375 64.183594 497.34375 64.183594 497.34375 60.851562 C 497.34375 57.519531 502.34375 57.519531 502.34375 60.851562 "/>
<path fill-rule="nonzero" fill="rgb(70.196078%, 70.196078%, 70.196078%)" fill-opacity="1" stroke-width="1" stroke-linecap="butt" stroke-linejoin="miter" stroke="rgb(70.196078%, 70.196078%, 70.196078%)" stroke-opacity="1" stroke-miterlimit="10" d="M 589.027344 132.222656 C 589.027344 135.554688 584.027344 135.554688 584.027344 132.222656 C 584.027344 128.890625 589.027344 128.890625 589.027344 132.222656 "/>
<path fill-rule="nonzero" fill="rgb(98.431373%, 60.392157%, 60%)" fill-opacity="1" stroke-width="1" stroke-linecap="butt" stroke-linejoin="miter" stroke="rgb(98.431373%, 60.392157%, 60%)" stroke-opacity="1" stroke-miterlimit="10" d="M 583.308594 267.191406 C 583.308594 268.191406 581.808594 268.191406 581.808594 267.191406 C 581.808594 266.191406 583.308594 266.191406 583.308594 267.191406 "/>
<path fill-rule="nonzero" fill="rgb(70.196078%, 70.196078%, 70.196078%)" fill-opacity="1" stroke-width="1" stroke-linecap="butt" stroke-linejoin="miter" stroke="rgb(70.196078%, 70.196078%, 70.196078%)" stroke-opacity="1" stroke-miterlimit="10" d="M 572.519531 50 C 572.519531 53.332031 567.519531 53.332031 567.519531 50 C 567.519531 46.667969 572.519531 46.667969 572.519531 50 "/>
<path fill-rule="nonzero" fill="rgb(70.196078%, 70.196078%, 70.196078%)" fill-opacity="1" stroke-width="1" stroke-linecap="butt" stroke-linejoin="miter" stroke="rgb(70.196078%, 70.196078%, 70.196078%)" stroke-opacity="1" stroke-miterlimit="10" d="M 690.460938 393.636719 C 690.460938 396.972656 685.460938 396.972656 685.460938 393.636719 C 685.460938 390.304688 690.460938 390.304688 690.460938 393.636719 "/>
<path fill-rule="nonzero" fill="rgb(70.196078%, 70.196078%, 70.196078%)" fill-opacity="1" stroke-width="1" stroke-linecap="butt" stroke-linejoin="miter" stroke="rgb(70.196078%, 70.196078%, 70.196078%)" stroke-opacity="1" stroke-miterlimit="10" d="M 541.484375 396.527344 C 541.484375 399.859375 536.484375 399.859375 536.484375 396.527344 C 536.484375 393.195312 541.484375 393.195312 541.484375 396.527344 "/>
<path fill-rule="nonzero" fill="rgb(12.156863%, 47.058824%, 70.588235%)" fill-opacity="1" stroke-width="1" stroke-linecap="butt" stroke-linejoin="miter" stroke="rgb(12.156863%, 47.058824%, 70.588235%)" stroke-opacity="1" stroke-miterlimit="10" d="M 664.417969 229.40625 C 664.417969 230.40625 662.917969 230.40625 662.917969 229.40625 C 662.917969 228.40625 664.417969 228.40625 664.417969 229.40625 "/>
<path fill-rule="nonzero" fill="rgb(70.196078%, 70.196078%, 70.196078%)" fill-opacity="1" stroke-width="1" stroke-linecap="butt" stroke-linejoin="miter" stroke="rgb(70.196078%, 70.196078%, 70.196078%)" stroke-opacity="1" stroke-miterlimit="10" d="M 704.664062 310.492188 C 704.664062 313.824219 699.664062 313.824219 699.664062 310.492188 C 699.664062 307.15625 704.664062 307.15625 704.664062 310.492188 "/>
<path fill-rule="nonzero" fill="rgb(70.196078%, 70.196078%, 70.196078%)" fill-opacity="1" stroke-width="1" stroke-linecap="butt" stroke-linejoin="miter" stroke="rgb(70.196078%, 70.196078%, 70.196078%)" stroke-opacity="1" stroke-miterlimit="10" d="M 744.414062 396.886719 C 744.414062 400.222656 739.414062 400.222656 739.414062 396.886719 C 739.414062 393.554688 744.414062 393.554688 744.414062 396.886719 "/>
<path fill-rule="nonzero" fill="rgb(12.156863%, 47.058824%, 70.588235%)" fill-opacity="1" stroke-width="1" stroke-linecap="butt" stroke-linejoin="miter" stroke="rgb(12.156863%, 47.058824%, 70.588235%)" stroke-opacity="1" stroke-miterlimit="10" d="M 462.707031 208.769531 C 462.707031 209.769531 461.207031 209.769531 461.207031 208.769531 C 461.207031 207.769531 462.707031 207.769531 462.707031 208.769531 "/>
<path fill-rule="nonzero" fill="rgb(12.156863%, 47.058824%, 70.588235%)" fill-opacity="1" stroke-width="1" stroke-linecap="butt" stroke-linejoin="miter" stroke="rgb(12.156863%, 47.058824%, 70.588235%)" stroke-opacity="1" stroke-miterlimit="10" d="M 571.03125 202.804688 C 571.03125 203.804688 569.53125 203.804688 569.53125 202.804688 C 569.53125 201.804688 571.03125 201.804688 571.03125 202.804688 "/>
<path fill-rule="nonzero" fill="rgb(70.196078%, 70.196078%, 70.196078%)" fill-opacity="1" stroke-width="1" stroke-linecap="butt" stroke-linejoin="miter" stroke="rgb(70.196078%, 70.196078%, 70.196078%)" stroke-opacity="1" stroke-miterlimit="10" d="M 498.25 256.328125 C 498.25 259.660156 493.25 259.660156 493.25 256.328125 C 493.25 252.992188 498.25 252.992188 498.25 256.328125 "/>
<path fill-rule="nonzero" fill="rgb(12.156863%, 47.058824%, 70.588235%)" fill-opacity="1" stroke-width="1" stroke-linecap="butt" stroke-linejoin="miter" stroke="rgb(12.156863%, 47.058824%, 70.588235%)" stroke-opacity="1" stroke-miterlimit="10" d="M 528.949219 691.871094 C 528.949219 692.871094 527.449219 692.871094 527.449219 691.871094 C 527.449219 690.871094 528.949219 690.871094 528.949219 691.871094 "/>
<path fill-rule="nonzero" fill="rgb(12.156863%, 47.058824%, 70.588235%)" fill-opacity="1" stroke-width="1" stroke-linecap="butt" stroke-linejoin="miter" stroke="rgb(12.156863%, 47.058824%, 70.588235%)" stroke-opacity="1" stroke-miterlimit="10" d="M 536.632812 584.464844 C 536.632812 585.464844 535.132812 585.464844 535.132812 584.464844 C 535.132812 583.464844 536.632812 583.464844 536.632812 584.464844 "/>
<path fill-rule="nonzero" fill="rgb(70.196078%, 70.196078%, 70.196078%)" fill-opacity="1" stroke-width="1" stroke-linecap="butt" stroke-linejoin="miter" stroke="rgb(70.196078%, 70.196078%, 70.196078%)" stroke-opacity="1" stroke-miterlimit="10" d="M 752.5 485.660156 C 752.5 488.992188 747.5 488.992188 747.5 485.660156 C 747.5 482.328125 752.5 482.328125 752.5 485.660156 "/>
<path fill-rule="nonzero" fill="rgb(70.196078%, 70.196078%, 70.196078%)" fill-opacity="1" stroke-width="1" stroke-linecap="butt" stroke-linejoin="miter" stroke="rgb(70.196078%, 70.196078%, 70.196078%)" stroke-opacity="1" stroke-miterlimit="10" d="M 709.910156 549.246094 C 709.910156 552.578125 704.910156 552.578125 704.910156 549.246094 C 704.910156 545.914062 709.910156 545.914062 709.910156 549.246094 "/>
<path fill-rule="nonzero" fill="rgb(12.156863%, 47.058824%, 70.588235%)" fill-opacity="1" stroke-width="1" stroke-linecap="butt" stroke-linejoin="miter" stroke="rgb(12.156863%, 47.058824%, 70.588235%)" stroke-opacity="1" stroke-miterlimit="10" d="M 473.789062 750 C 473.789062 751 472.289062 751 472.289062 750 C 472.289062 749 473.789062 749 473.789062 750 "/>
<path fill-rule="nonzero" fill="rgb(14.901961%, 14.901961%, 14.901961%)" fill-opacity="1" stroke-width="1" stroke-linecap="butt" stroke-linejoin="miter" stroke="rgb(14.901961%, 14.901961%, 14.901961%)" stroke-opacity="1" stroke-miterlimit="10" d="M 233.921875 624.03125 L 236.421875 619.03125 L 238.921875 624.03125 Z M 233.921875 624.03125 "/>
<path fill-rule="nonzero" fill="rgb(12.156863%, 47.058824%, 70.588235%)" fill-opacity="1" stroke-width="1" stroke-linecap="butt" stroke-linejoin="miter" stroke="rgb(12.156863%, 47.058824%, 70.588235%)" stroke-opacity="1" stroke-miterlimit="10" d="M 314.679688 702.078125 C 314.679688 703.078125 313.179688 703.078125 313.179688 702.078125 C 313.179688 701.078125 314.679688 701.078125 314.679688 702.078125 "/>
<path fill-rule="nonzero" fill="rgb(12.156863%, 47.058824%, 70.588235%)" fill-opacity="1" stroke-width="1" stroke-linecap="butt" stroke-linejoin="miter" stroke="rgb(12.156863%, 47.058824%, 70.588235%)" stroke-opacity="1" stroke-miterlimit="10" d="M 394.726562 748.15625 C 394.726562 749.15625 393.226562 749.15625 393.226562 748.15625 C 393.226562 747.15625 394.726562 747.15625 394.726562 748.15625 "/>
<path fill-rule="nonzero" fill="rgb(70.196078%, 70.196078%, 70.196078%)" fill-opacity="1" stroke-width="1" stroke-linecap="butt" stroke-linejoin="miter" stroke="rgb(70.196078%, 70.196078%, 70.196078%)" stroke-opacity="1" stroke-miterlimit="10" d="M 643.414062 564.03125 C 643.414062 567.363281 638.414062 567.363281 638.414062 564.03125 C 638.414062 560.699219 643.414062 560.699219 643.414062 564.03125 "/>
</svg>
