<?xml version="1.0" encoding="UTF-8"?>
<svg xmlns="http://www.w3.org/2000/svg" xmlns:xlink="http://www.w3.org/1999/xlink" width="800" height="800" viewBox="0 0 800 800">
<rect x="-80" y="-80" width="960" height="960" fill="rgb(100%, 100%, 100%)" fill-opacity="1"/>
<path fill="none" stroke-width="1.5" stroke-linecap="butt" stroke-linejoin="miter" stroke="rgb(30.196078%, 68.627451%, 29.019608%)" stroke-opacity="1" stroke-miterlimit="10" d="M 651.636719 439.941406 C 655.976562 427.203125 655.742188 414.351562 648.15625 403.292969 "/>
<path fill-rule="nonzero" fill="rgb(30.196078%, 68.627451%, 29.019608%)" fill-opacity="1" d="M 644.121094 397.414062 L 650.066406 401.984375 L 646.246094 404.605469 L 644.121094 397.414062 "/>
<path fill="none" stroke-width="2.5" stroke-linecap="butt" stroke-linejoin="miter" stroke="rgb(70.196078%, 70.196078%, 70.196078%)" stroke-opacity="1" stroke-miterlimit="10" d="M 642.777344 395.449219 C 638.4375 408.1875 638.671875 421.039062 646.257812 432.097656 "/>
<path fill-rule="nonzero" fill="rgb(70.196078%, 70.196078%, 70.196078%)" fill-opacity="1" d="M 650.292969 437.980469 L 644.347656 433.410156 L 648.167969 430.785156 L 650.292969 437.980469 "/>
<path fill="none" stroke-width="2.5" stroke-linecap="butt" stroke-linejoin="miter" stroke="rgb(41.568627%, 23.921569%, 60.392157%)" stroke-opacity="1" stroke-miterlimit="10" d="M 642.777344 395.449219 C 654.007812 397.425781 664.863281 395.664062 673.019531 387.769531 "/>
<path fill-rule="nonzero" fill="rgb(41.568627%, 23.921569%, 60.392157%)" fill-opacity="1" d="M 678.144531 382.808594 L 674.632812 389.433594 L 671.40625 386.101562 L 678.144531 382.808594 "/>
<path fill="none" stroke-width="1.5" stroke-linecap="butt" stroke-linejoin="miter" stroke="rgb(41.568627%, 23.921569%, 60.392157%)" stroke-opacity="1" stroke-miterlimit="10" d="M 679.34375 381.648438 C 668.363281 379.605469 657.6875 381.203125 649.652344 388.878906 "/>
<path fill-rule="nonzero" fill="rgb(41.568627%, 23.921569%, 60.392157%)" fill-opacity="1" d="M 644.496094 393.808594 L 648.050781 387.203125 L 651.253906 390.554688 L 644.496094 393.808594 "/>
<path fill="none" stroke-width="2.5" stroke-linecap="butt" stroke-linejoin="miter" stroke="rgb(98.431373%, 60.392157%, 60%)" stroke-opacity="1" stroke-miterlimit="10" d="M 398.097656 210.175781 C 393.078125 200.097656 385.3125 192.523438 374.261719 190.671875 "/>
<path fill-rule="nonzero" fill="rgb(98.431373%, 60.392157%, 60%)" fill-opacity="1" d="M 367.226562 189.492188 L 374.644531 188.386719 L 373.878906 192.957031 L 367.226562 189.492188 "/>
<path fill="none" stroke-width="2.5" stroke-linecap="butt" stroke-linejoin="miter" stroke="rgb(98.431373%, 60.392157%, 60%)" stroke-opacity="1" stroke-miterlimit="10" d="M 366.519531 189.371094 C 371.132812 199.121094 378.417969 206.605469 388.972656 208.519531 "/>
<path fill-rule="nonzero" fill="rgb(98.431373%, 60.392157%, 60%)" fill-opacity="1" d="M 395.992188 209.792969 L 388.558594 210.800781 L 389.386719 206.238281 L 395.992188 209.792969 "/>
<path fill="none" stroke-width="1.5" stroke-linecap="butt" stroke-linejoin="miter" stroke="rgb(12.156863%, 47.058824%, 70.588235%)" stroke-opacity="1" stroke-miterlimit="10" d="M 99.015625 571.449219 C 89.808594 556.027344 76.523438 545.546875 58.734375 543.308594 "/>
<path fill-rule="nonzero" fill="rgb(12.156863%, 47.058824%, 70.588235%)" fill-opacity="1" d="M 51.660156 542.417969 L 59.023438 541.007812 L 58.445312 545.609375 L 51.660156 542.417969 "/>
<path fill="none" stroke-width="4.5" stroke-linecap="butt" stroke-linejoin="miter" stroke="rgb(70.196078%, 70.196078%, 70.196078%)" stroke-opacity="1" stroke-miterlimit="10" d="M 481.316406 458.203125 C 504.28125 436.21875 516.273438 409.257812 513.921875 377.570312 "/>
<path fill-rule="nonzero" fill="rgb(70.196078%, 70.196078%, 70.196078%)" fill-opacity="1" d="M 513.394531 370.457031 L 516.234375 377.402344 L 511.609375 377.742188 L 513.394531 370.457031 "/>
<path fill="none" stroke-width="1.5" stroke-linecap="butt" stroke-linejoin="miter" stroke="rgb(12.156863%, 47.058824%, 70.588235%)" stroke-opacity="1" stroke-miterlimit="10" d="M 481.316406 458.203125 C 445.511719 482.511719 423.746094 516.015625 419.273438 559.046875 "/>
<path fill-rule="nonzero" fill="rgb(12.156863%, 47.058824%, 70.588235%)" fill-opacity="1" d="M 418.535156 566.140625 L 416.96875 558.808594 L 421.578125 559.285156 L 418.535156 566.140625 "/>
<path fill="none" stroke-width="3.5" stroke-linecap="butt" stroke-linejoin="miter" stroke="rgb(70.196078%, 70.196078%, 70.196078%)" stroke-opacity="1" stroke-miterlimit="10" d="M 581.539062 366.546875 C 594.488281 383.84375 611.695312 394.507812 633.261719 395.160156 "/>
<path fill-rule="nonzero" fill="rgb(70.196078%, 70.196078%, 70.196078%)" fill-opacity="1" d="M 640.390625 395.378906 L 633.191406 397.476562 L 633.332031 392.84375 L 640.390625 395.378906 "/>
<path fill="none" stroke-width="3.5" stroke-linecap="butt" stroke-linejoin="miter" stroke="rgb(70.196078%, 70.196078%, 70.196078%)" stroke-opacity="1" stroke-miterlimit="10" d="M 513.214844 368.074219 C 532.742188 377.851562 553.109375 379.695312 572.898438 370.542969 "/>
<path fill-rule="nonzero" fill="rgb(70.196078%, 70.196078%, 70.196078%)" fill-opacity="1" d="M 579.371094 367.546875 L 573.871094 372.644531 L 571.925781 368.4375 L 579.371094 367.546875 "/>
<path fill="none" stroke-width="1.5" stroke-linecap="butt" stroke-linejoin="miter" stroke="rgb(98.431373%, 60.392157%, 60%)" stroke-opacity="1" stroke-miterlimit="10" d="M 513.214844 368.074219 C 512.914062 343.082031 503.980469 321.558594 484.398438 306.0625 "/>
<path fill-rule="nonzero" fill="rgb(98.431373%, 60.392157%, 60%)" fill-opacity="1" d="M 478.804688 301.636719 L 485.835938 304.246094 L 482.960938 307.878906 L 478.804688 301.636719 "/>
<path fill="none" stroke-width="1.5" stroke-linecap="butt" stroke-linejoin="miter" stroke="rgb(98.431373%, 60.392157%, 60%)" stroke-opacity="1" stroke-miterlimit="10" d="M 478.238281 301.191406 C 474.855469 280.636719 464.878906 263.863281 446.722656 253.71875 "/>
<path fill-rule="nonzero" fill="rgb(98.431373%, 60.392157%, 60%)" fill-opacity="1" d="M 440.496094 250.238281 L 447.851562 251.695312 L 445.589844 255.738281 L 440.496094 250.238281 "/>
<path fill="none" stroke-width="1.5" stroke-linecap="butt" stroke-linejoin="miter" stroke="rgb(98.431373%, 60.392157%, 60%)" stroke-opacity="1" stroke-miterlimit="10" d="M 439.867188 249.886719 C 434.328125 232.753906 423.695312 219.523438 406.8125 213.359375 "/>
<path fill-rule="nonzero" fill="rgb(98.431373%, 60.392157%, 60%)" fill-opacity="1" d="M 400.113281 210.910156 L 407.609375 211.179688 L 406.019531 215.535156 L 400.113281 210.910156 "/>
<path fill="none" stroke-width="5.5" stroke-linecap="butt" stroke-linejoin="miter" stroke="rgb(70.196078%, 70.196078%, 70.196078%)" stroke-opacity="1" stroke-miterlimit="10" d="M 533.472656 478.175781 C 522.3125 464.984375 508.050781 457.070312 490.824219 457.800781 "/>
<path fill-rule="nonzero" fill="rgb(70.196078%, 70.196078%, 70.196078%)" fill-opacity="1" d="M 483.699219 458.101562 L 490.726562 455.484375 L 490.925781 460.117188 L 483.699219 458.101562 "/>
<path fill="none" stroke-width="1.5" stroke-linecap="butt" stroke-linejoin="miter" stroke="rgb(12.156863%, 47.058824%, 70.588235%)" stroke-opacity="1" stroke-miterlimit="10" d="M 400.421875 737.464844 C 388.996094 735.214844 377.914062 736.820312 369.386719 744.679688 "/>
<path fill-rule="nonzero" fill="rgb(12.156863%, 47.058824%, 70.588235%)" fill-opacity="1" d="M 364.140625 749.511719 L 367.816406 742.976562 L 370.957031 746.382812 L 364.140625 749.511719 "/>
<path fill="none" stroke-width="1.5" stroke-linecap="butt" stroke-linejoin="miter" stroke="rgb(12.156863%, 47.058824%, 70.588235%)" stroke-opacity="1" stroke-miterlimit="10" d="M 260.164062 650.175781 C 237.523438 623.878906 208.835938 609.394531 174.15625 609.984375 "/>
<path fill-rule="nonzero" fill="rgb(12.156863%, 47.058824%, 70.588235%)" fill-opacity="1" d="M 167.027344 610.105469 L 174.117188 607.667969 L 174.199219 612.300781 L 167.027344 610.105469 "/>
<path fill="none" stroke-width="1.5" stroke-linecap="butt" stroke-linejoin="miter" stroke="rgb(12.156863%, 47.058824%, 70.588235%)" stroke-opacity="1" stroke-miterlimit="10" d="M 359.328125 680.171875 C 362.769531 703.097656 373.65625 721.8125 393.644531 733.5 "/>
<path fill-rule="nonzero" fill="rgb(12.156863%, 47.058824%, 70.588235%)" fill-opacity="1" d="M 399.800781 737.101562 L 392.476562 735.5 L 394.816406 731.5 L 399.800781 737.101562 "/>
<path fill="none" stroke-width="1.5" stroke-linecap="butt" stroke-linejoin="miter" stroke="rgb(12.156863%, 47.058824%, 70.588235%)" stroke-opacity="1" stroke-miterlimit="10" d="M 359.328125 680.171875 C 333.519531 656.136719 302.921875 644.726562 267.953125 649.183594 "/>
<path fill-rule="nonzero" fill="rgb(12.156863%, 47.058824%, 70.588235%)" fill-opacity="1" d="M 260.878906 650.085938 L 267.660156 646.882812 L 268.246094 651.480469 L 260.878906 650.085938 "/>
<path fill="none" stroke-width="1.5" stroke-linecap="butt" stroke-linejoin="miter" stroke="rgb(12.156863%, 47.058824%, 70.588235%)" stroke-opacity="1" stroke-miterlimit="10" d="M 418.460938 566.855469 C 383.171875 593.0625 362.53125 627.996094 359.839844 671.855469 "/>
<path fill-rule="nonzero" fill="rgb(12.156863%, 47.058824%, 70.588235%)" fill-opacity="1" d="M 359.402344 678.976562 L 357.527344 671.714844 L 362.152344 672 L 359.402344 678.976562 "/>
<path fill="none" stroke-width="1.5" stroke-linecap="butt" stroke-linejoin="miter" stroke="rgb(12.156863%, 47.058824%, 70.588235%)" stroke-opacity="1" stroke-miterlimit="10" d="M 166.308594 610.121094 C 152.160156 588.574219 132.445312 574.867188 106.824219 572.246094 "/>
<path fill-rule="nonzero" fill="rgb(12.156863%, 47.058824%, 70.588235%)" fill-opacity="1" d="M 99.730469 571.523438 L 107.0625 569.941406 L 106.589844 574.554688 L 99.730469 571.523438 "/>
<path fill="none" stroke-width="5.5" stroke-linecap="butt" stroke-linejoin="miter" stroke="rgb(70.196078%, 70.196078%, 70.196078%)" stroke-opacity="1" stroke-miterlimit="10" d="M 402.628906 642.207031 C 423.238281 654.089844 445.234375 657.308594 467.390625 648.707031 "/>
<path fill-rule="nonzero" fill="rgb(70.196078%, 70.196078%, 70.196078%)" fill-opacity="1" d="M 474.039062 646.128906 L 468.230469 650.871094 L 466.550781 646.546875 L 474.039062 646.128906 "/>
<path fill="none" stroke-width="5.5" stroke-linecap="butt" stroke-linejoin="miter" stroke="rgb(70.196078%, 70.196078%, 70.196078%)" stroke-opacity="1" stroke-miterlimit="10" d="M 553.78125 547.464844 C 558.34375 524.671875 554.476562 503.285156 539.582031 485.476562 "/>
<path fill-rule="nonzero" fill="rgb(70.196078%, 70.196078%, 70.196078%)" fill-opacity="1" d="M 535.003906 480.003906 L 541.359375 483.988281 L 537.804688 486.964844 L 535.003906 480.003906 "/>
<path fill="none" stroke-width="1.5" stroke-linecap="butt" stroke-linejoin="miter" stroke="rgb(12.156863%, 47.058824%, 70.588235%)" stroke-opacity="1" stroke-miterlimit="10" d="M 363.613281 750 C 372.828125 729.121094 373.65625 707.804688 363.164062 687.566406 "/>
<path fill-rule="nonzero" fill="rgb(12.156863%, 47.058824%, 70.588235%)" fill-opacity="1" d="M 359.878906 681.234375 L 365.21875 686.5 L 361.105469 688.632812 L 359.878906 681.234375 "/>
<path fill="none" stroke-width="5.5" stroke-linecap="butt" stroke-linejoin="miter" stroke="rgb(70.196078%, 70.196078%, 70.196078%)" stroke-opacity="1" stroke-miterlimit="10" d="M 459.285156 87.179688 C 428.191406 79.589844 398.820312 84.007812 373.191406 103.148438 "/>
<path fill-rule="nonzero" fill="rgb(70.196078%, 70.196078%, 70.196078%)" fill-opacity="1" d="M 367.476562 107.414062 L 371.804688 101.289062 L 374.578125 105.003906 L 367.476562 107.414062 "/>
<path fill="none" stroke-width="5.5" stroke-linecap="butt" stroke-linejoin="miter" stroke="rgb(70.196078%, 70.196078%, 70.196078%)" stroke-opacity="1" stroke-miterlimit="10" d="M 532.097656 614.207031 C 548.222656 598.511719 556.878906 579.3125 554.703125 556.941406 "/>
<path fill-rule="nonzero" fill="rgb(70.196078%, 70.196078%, 70.196078%)" fill-opacity="1" d="M 554.011719 549.839844 L 557.007812 556.714844 L 552.394531 557.164062 L 554.011719 549.839844 "/>
<path fill="none" stroke-width="5.5" stroke-linecap="butt" stroke-linejoin="miter" stroke="rgb(70.196078%, 70.196078%, 70.196078%)" stroke-opacity="1" stroke-miterlimit="10" d="M 314.859375 632.933594 C 339.265625 648.792969 365.839844 653.921875 393.554688 645.09375 "/>
<path fill-rule="nonzero" fill="rgb(70.196078%, 70.196078%, 70.196078%)" fill-opacity="1" d="M 400.351562 642.929688 L 394.257812 647.304688 L 392.851562 642.886719 L 400.351562 642.929688 "/>
<path fill="none" stroke-width="5.5" stroke-linecap="butt" stroke-linejoin="miter" stroke="rgb(70.196078%, 70.196078%, 70.196078%)" stroke-opacity="1" stroke-miterlimit="10" d="M 236.738281 589.085938 C 253.179688 613.6875 275.953125 629.117188 305.382812 632.003906 "/>
<path fill-rule="nonzero" fill="rgb(70.196078%, 70.196078%, 70.196078%)" fill-opacity="1" d="M 312.480469 632.699219 L 305.15625 634.308594 L 305.609375 629.695312 L 312.480469 632.699219 "/>
<path fill="none" stroke-width="5.5" stroke-linecap="butt" stroke-linejoin="miter" stroke="rgb(70.196078%, 70.196078%, 70.196078%)" stroke-opacity="1" stroke-miterlimit="10" d="M 193.765625 503.289062 C 193.6875 535.207031 204.847656 562.648438 229.40625 583.007812 "/>
<path fill-rule="nonzero" fill="rgb(70.196078%, 70.196078%, 70.196078%)" fill-opacity="1" d="M 234.898438 587.5625 L 227.925781 584.792969 L 230.886719 581.222656 L 234.898438 587.5625 "/>
<path fill="none" stroke-width="5.5" stroke-linecap="butt" stroke-linejoin="miter" stroke="rgb(70.196078%, 70.196078%, 70.196078%)" stroke-opacity="1" stroke-miterlimit="10" d="M 476.265625 645.265625 C 496.472656 644.9375 514.050781 637.792969 526.3125 621.765625 "/>
<path fill-rule="nonzero" fill="rgb(70.196078%, 70.196078%, 70.196078%)" fill-opacity="1" d="M 530.648438 616.101562 L 528.152344 623.175781 L 524.472656 620.359375 L 530.648438 616.101562 "/>
<path fill="none" stroke-width="5.5" stroke-linecap="butt" stroke-linejoin="miter" stroke="rgb(70.196078%, 70.196078%, 70.196078%)" stroke-opacity="1" stroke-miterlimit="10" d="M 545.683594 88.613281 C 520.578125 75.265625 494.269531 72.523438 468.066406 83.5 "/>
<path fill-rule="nonzero" fill="rgb(70.196078%, 70.196078%, 70.196078%)" fill-opacity="1" d="M 461.488281 86.257812 L 467.171875 81.363281 L 468.964844 85.636719 L 461.488281 86.257812 "/>
<path fill="none" stroke-width="5.5" stroke-linecap="butt" stroke-linejoin="miter" stroke="rgb(70.196078%, 70.196078%, 70.196078%)" stroke-opacity="1" stroke-miterlimit="10" d="M 707.554688 149.730469 C 722.597656 120.023438 725.027344 89.242188 711.734375 58.730469 "/>
<path fill-rule="nonzero" fill="rgb(70.196078%, 70.196078%, 70.196078%)" fill-opacity="1" d="M 708.886719 52.191406 L 713.859375 57.804688 L 709.609375 59.65625 L 708.886719 52.191406 "/>
<path fill="none" stroke-width="5.5" stroke-linecap="butt" stroke-linejoin="miter" stroke="rgb(70.196078%, 70.196078%, 70.196078%)" stroke-opacity="1" stroke-miterlimit="10" d="M 188.144531 382.964844 C 171.828125 420.4375 171.277344 458.207031 189.511719 494.765625 "/>
<path fill-rule="nonzero" fill="rgb(70.196078%, 70.196078%, 70.196078%)" fill-opacity="1" d="M 192.695312 501.148438 L 187.4375 495.800781 L 191.585938 493.730469 L 192.695312 501.148438 "/>
<path fill="none" stroke-width="5.5" stroke-linecap="butt" stroke-linejoin="miter" stroke="rgb(70.196078%, 70.196078%, 70.196078%)" stroke-opacity="1" stroke-miterlimit="10" d="M 222.71875 274.402344 C 195.988281 302.09375 183 335.246094 187.125 373.496094 "/>
<path fill-rule="nonzero" fill="rgb(70.196078%, 70.196078%, 70.196078%)" fill-opacity="1" d="M 187.886719 380.589844 L 184.820312 373.746094 L 189.425781 373.25 L 187.886719 380.589844 "/>
<path fill="none" stroke-width="5.5" stroke-linecap="butt" stroke-linejoin="miter" stroke="rgb(70.196078%, 70.196078%, 70.196078%)" stroke-opacity="1" stroke-miterlimit="10" d="M 280.839844 181.34375 C 249.371094 200.707031 229.332031 228.421875 224.074219 264.976562 "/>
<path fill-rule="nonzero" fill="rgb(70.196078%, 70.196078%, 70.196078%)" fill-opacity="1" d="M 223.058594 272.035156 L 221.78125 264.644531 L 226.367188 265.304688 L 223.058594 272.035156 "/>
<path fill="none" stroke-width="5.5" stroke-linecap="butt" stroke-linejoin="miter" stroke="rgb(70.196078%, 70.196078%, 70.196078%)" stroke-opacity="1" stroke-miterlimit="10" d="M 729.304688 228.765625 C 734.800781 202.519531 730.421875 177.929688 713.550781 157.125 "/>
<path fill-rule="nonzero" fill="rgb(70.196078%, 70.196078%, 70.196078%)" fill-opacity="1" d="M 709.058594 151.585938 L 715.351562 155.664062 L 711.75 158.585938 L 709.058594 151.585938 "/>
<path fill="none" stroke-width="5.5" stroke-linecap="butt" stroke-linejoin="miter" stroke="rgb(70.196078%, 70.196078%, 70.196078%)" stroke-opacity="1" stroke-miterlimit="10" d="M 359.339844 432.710938 C 369.996094 453.414062 386.382812 467.75 409.171875 472.398438 "/>
<path fill-rule="nonzero" fill="rgb(70.196078%, 70.196078%, 70.196078%)" fill-opacity="1" d="M 416.160156 473.824219 L 408.710938 474.667969 L 409.636719 470.128906 L 416.160156 473.824219 "/>
<path fill="none" stroke-width="5.5" stroke-linecap="butt" stroke-linejoin="miter" stroke="rgb(70.196078%, 70.196078%, 70.196078%)" stroke-opacity="1" stroke-miterlimit="10" d="M 707.933594 50 C 718.144531 56.425781 729.453125 58.992188 740.617188 54.566406 "/>
<path fill-rule="nonzero" fill="rgb(70.196078%, 70.196078%, 70.196078%)" fill-opacity="1" d="M 747.25 51.9375 L 741.472656 56.71875 L 739.765625 52.410156 L 747.25 51.9375 "/>
<path fill="none" stroke-width="5.5" stroke-linecap="butt" stroke-linejoin="miter" stroke="rgb(70.196078%, 70.196078%, 70.196078%)" stroke-opacity="1" stroke-miterlimit="10" d="M 365.5625 108.84375 C 329.109375 118.058594 301.222656 138.875 284.960938 172.757812 "/>
<path fill-rule="nonzero" fill="rgb(70.196078%, 70.196078%, 70.196078%)" fill-opacity="1" d="M 281.871094 179.191406 L 282.871094 171.757812 L 287.046875 173.761719 L 281.871094 179.191406 "/>
<path fill="none" stroke-width="5.5" stroke-linecap="butt" stroke-linejoin="miter" stroke="rgb(70.196078%, 70.196078%, 70.196078%)" stroke-opacity="1" stroke-miterlimit="10" d="M 626.21875 93.375 C 603.558594 79.949219 579.300781 76.203125 554.613281 85.316406 "/>
<path fill-rule="nonzero" fill="rgb(70.196078%, 70.196078%, 70.196078%)" fill-opacity="1" d="M 547.921875 87.785156 L 553.8125 83.140625 L 555.417969 87.492188 L 547.921875 87.785156 "/>
<path fill="none" stroke-width="5.5" stroke-linecap="butt" stroke-linejoin="miter" stroke="rgb(70.196078%, 70.196078%, 70.196078%)" stroke-opacity="1" stroke-miterlimit="10" d="M 707.832031 92.484375 C 683.976562 80.535156 659.199219 78.5 634.898438 89.460938 "/>
<path fill-rule="nonzero" fill="rgb(70.196078%, 70.196078%, 70.196078%)" fill-opacity="1" d="M 628.394531 92.394531 L 633.945312 87.347656 L 635.851562 91.574219 L 628.394531 92.394531 "/>
<path fill="none" stroke-width="5.5" stroke-linecap="butt" stroke-linejoin="miter" stroke="rgb(70.196078%, 70.196078%, 70.196078%)" stroke-opacity="1" stroke-miterlimit="10" d="M 750 318.824219 C 757.359375 289.097656 753.261719 260.953125 734.988281 236.402344 "/>
<path fill-rule="nonzero" fill="rgb(70.196078%, 70.196078%, 70.196078%)" fill-opacity="1" d="M 730.730469 230.679688 L 736.847656 235.019531 L 733.128906 237.785156 L 730.730469 230.679688 "/>
<path fill="none" stroke-width="5.5" stroke-linecap="butt" stroke-linejoin="miter" stroke="rgb(70.196078%, 70.196078%, 70.196078%)" stroke-opacity="1" stroke-miterlimit="10" d="M 748.019531 422.726562 C 764.171875 391.871094 767.097656 359.730469 753.671875 327.609375 "/>
<path fill-rule="nonzero" fill="rgb(70.196078%, 70.196078%, 70.196078%)" fill-opacity="1" d="M 750.921875 321.027344 L 755.8125 326.714844 L 751.535156 328.503906 L 750.921875 321.027344 "/>
<path fill="none" stroke-width="5.5" stroke-linecap="butt" stroke-linejoin="miter" stroke="rgb(70.196078%, 70.196078%, 70.196078%)" stroke-opacity="1" stroke-miterlimit="10" d="M 700.617188 509.410156 C 727.726562 490.664062 744.375 465.03125 747.199219 432.214844 "/>
<path fill-rule="nonzero" fill="rgb(70.196078%, 70.196078%, 70.196078%)" fill-opacity="1" d="M 747.8125 425.109375 L 749.511719 432.414062 L 744.890625 432.015625 L 747.8125 425.109375 "/>
<path fill="none" stroke-width="5.5" stroke-linecap="butt" stroke-linejoin="miter" stroke="rgb(70.196078%, 70.196078%, 70.196078%)" stroke-opacity="1" stroke-miterlimit="10" d="M 307.703125 405.757812 C 317.8125 420.832031 331.777344 430.710938 349.847656 432.023438 "/>
<path fill-rule="nonzero" fill="rgb(70.196078%, 70.196078%, 70.196078%)" fill-opacity="1" d="M 356.960938 432.539062 L 349.679688 434.335938 L 350.015625 429.710938 L 356.960938 432.539062 "/>
<path fill="none" stroke-width="5.5" stroke-linecap="butt" stroke-linejoin="miter" stroke="rgb(70.196078%, 70.196078%, 70.196078%)" stroke-opacity="1" stroke-miterlimit="10" d="M 618.683594 542.996094 C 647.800781 545.382812 673.71875 537.253906 694.003906 516.257812 "/>
<path fill-rule="nonzero" fill="rgb(70.196078%, 70.196078%, 70.196078%)" fill-opacity="1" d="M 698.957031 511.128906 L 695.667969 517.867188 L 692.335938 514.644531 L 698.957031 511.128906 "/>
<path fill="none" stroke-width="5.5" stroke-linecap="butt" stroke-linejoin="miter" stroke="rgb(70.196078%, 70.196078%, 70.196078%)" stroke-opacity="1" stroke-miterlimit="10" d="M 260.402344 417.648438 C 274.570312 421.570312 288.5 420.425781 300.144531 411.53125 "/>
<path fill-rule="nonzero" fill="rgb(70.196078%, 70.196078%, 70.196078%)" fill-opacity="1" d="M 305.8125 407.203125 L 301.550781 413.375 L 298.738281 409.691406 L 305.8125 407.203125 "/>
<path fill="none" stroke-width="5.5" stroke-linecap="butt" stroke-linejoin="miter" stroke="rgb(70.196078%, 70.196078%, 70.196078%)" stroke-opacity="1" stroke-miterlimit="10" d="M 239.738281 462.996094 C 251.933594 454.121094 259.882812 442.199219 260.203125 427.164062 "/>
<path fill-rule="nonzero" fill="rgb(70.196078%, 70.196078%, 70.196078%)" fill-opacity="1" d="M 260.351562 420.03125 L 262.519531 427.210938 L 257.882812 427.113281 L 260.351562 420.03125 "/>
<path fill="none" stroke-width="5.5" stroke-linecap="butt" stroke-linejoin="miter" stroke="rgb(70.196078%, 70.196078%, 70.196078%)" stroke-opacity="1" stroke-miterlimit="10" d="M 749.460938 51.058594 C 731.871094 56.203125 718.121094 66.648438 711.355469 83.644531 "/>
<path fill-rule="nonzero" fill="rgb(70.196078%, 70.196078%, 70.196078%)" fill-opacity="1" d="M 708.714844 90.269531 L 709.199219 82.785156 L 713.507812 84.5 L 708.714844 90.269531 "/>
<path fill="none" stroke-width="5.5" stroke-linecap="butt" stroke-linejoin="miter" stroke="rgb(70.196078%, 70.196078%, 70.196078%)" stroke-opacity="1" stroke-miterlimit="10" d="M 504.285156 526.246094 C 536.464844 548.460938 571.839844 555.980469 609.503906 545.542969 "/>
<path fill-rule="nonzero" fill="rgb(70.196078%, 70.196078%, 70.196078%)" fill-opacity="1" d="M 616.378906 543.636719 L 610.125 547.773438 L 608.886719 543.308594 L 616.378906 543.636719 "/>
<path fill="none" stroke-width="5.5" stroke-linecap="butt" stroke-linejoin="miter" stroke="rgb(70.196078%, 70.196078%, 70.196078%)" stroke-opacity="1" stroke-miterlimit="10" d="M 418.5 474.300781 C 436.339844 502.65625 461.640625 520.679688 494.839844 525.015625 "/>
<path fill-rule="nonzero" fill="rgb(70.196078%, 70.196078%, 70.196078%)" fill-opacity="1" d="M 501.914062 525.9375 L 494.542969 527.3125 L 495.140625 522.714844 L 501.914062 525.9375 "/>
<path fill-rule="nonzero" fill="rgb(14.901961%, 14.901961%, 14.901961%)" fill-opacity="1" stroke-width="1" stroke-linecap="butt" stroke-linejoin="miter" stroke="rgb(14.901961%, 14.901961%, 14.901961%)" stroke-opacity="1" stroke-miterlimit="10" d="M 649.136719 442.441406 L 651.636719 437.441406 L 654.136719 442.441406 Z M 649.136719 442.441406 "/>
<path fill-rule="nonzero" fill="rgb(14.901961%, 14.901961%, 14.901961%)" fill-opacity="1" stroke-width="1" stroke-linecap="butt" stroke-linejoin="miter" stroke="rgb(14.901961%, 14.901961%, 14.901961%)" stroke-opacity="1" stroke-miterlimit="10" d="M 640.277344 397.949219 L 642.777344 392.949219 L 645.277344 397.949219 Z M 640.277344 397.949219 "/>
<path fill-rule="nonzero" fill="rgb(14.901961%, 14.901961%, 14.901961%)" fill-opacity="1" stroke-width="1" stroke-linecap="butt" stroke-linejoin="miter" stroke="rgb(14.901961%, 14.901961%, 14.901961%)" stroke-opacity="1" stroke-miterlimit="10" d="M 677.59375 383.398438 L 679.34375 379.898438 L 681.09375 383.398438 Z M 677.59375 383.398438 "/>
<path fill-rule="nonzero" fill="rgb(14.901961%, 14.901961%, 14.901961%)" fill-opacity="1" stroke-width="1" stroke-linecap="butt" stroke-linejoin="miter" stroke="rgb(14.901961%, 14.901961%, 14.901961%)" stroke-opacity="1" stroke-miterlimit="10" d="M 395.847656 212.425781 L 398.097656 207.925781 L 400.347656 212.425781 Z M 395.847656 212.425781 "/>
<path fill-rule="nonzero" fill="rgb(98.431373%, 60.392157%, 60%)" fill-opacity="1" stroke-width="1" stroke-linecap="butt" stroke-linejoin="miter" stroke="rgb(98.431373%, 60.392157%, 60%)" stroke-opacity="1" stroke-miterlimit="10" d="M 367.269531 189.371094 C 367.269531 190.371094 365.769531 190.371094 365.769531 189.371094 C 365.769531 188.371094 367.269531 188.371094 367.269531 189.371094 "/>
<path fill-rule="nonzero" fill="rgb(12.156863%, 47.058824%, 70.588235%)" fill-opacity="1" stroke-width="1" stroke-linecap="butt" stroke-linejoin="miter" stroke="rgb(12.156863%, 47.058824%, 70.588235%)" stroke-opacity="1" stroke-miterlimit="10" d="M 99.765625 571.449219 C 99.765625 572.449219 98.265625 572.449219 98.265625 571.449219 C 98.265625 570.449219 99.765625 570.449219 99.765625 571.449219 "/>
<path fill-rule="nonzero" fill="rgb(14.901961%, 14.901961%, 14.901961%)" fill-opacity="1" stroke-width="1" stroke-linecap="butt" stroke-linejoin="miter" stroke="rgb(14.901961%, 14.901961%, 14.901961%)" stroke-opacity="1" stroke-miterlimit="10" d="M 48.25 543.960938 L 50 540.460938 L 51.75 543.960938 Z M 48.25 543.960938 "/>
<path fill-rule="nonzero" fill="rgb(70.196078%, 70.196078%, 70.196078%)" fill-opacity="1" stroke-width="1" stroke-linecap="butt" stroke-linejoin="miter" stroke="rgb(70.196078%, 70.196078%, 70.196078%)" stroke-opacity="1" stroke-miterlimit="10" d="M 483.816406 458.203125 C 483.816406 461.535156 478.816406 461.535156 478.816406 458.203125 C 478.816406 454.871094 483.816406 454.871094 483.816406 458.203125 "/>
<path fill-rule="nonzero" fill="rgb(70.196078%, 70.196078%, 70.196078%)" fill-opacity="1" stroke-width="1" stroke-linecap="butt" stroke-linejoin="miter" stroke="rgb(70.196078%, 70.196078%, 70.196078%)" stroke-opacity="1" stroke-miterlimit="10" d="M 584.039062 366.546875 C 584.039062 369.878906 579.039062 369.878906 579.039062 366.546875 C 579.039062 363.214844 584.039062 363.214844 584.039062 366.546875 "/>
<path fill-rule="nonzero" fill="rgb(70.196078%, 70.196078%, 70.196078%)" fill-opacity="1" stroke-width="1" stroke-linecap="butt" stroke-linejoin="miter" stroke="rgb(70.196078%, 70.196078%, 70.196078%)" stroke-opacity="1" stroke-miterlimit="10" d="M 515.714844 368.074219 C 515.714844 371.410156 510.714844 371.410156 510.714844 368.074219 C 510.714844 364.742188 515.714844 364.742188 515.714844 368.074219 "/>
<path fill-rule="nonzero" fill="rgb(98.431373%, 60.392157%, 60%)" fill-opacity="1" stroke-width="1" stroke-linecap="butt" stroke-linejoin="miter" stroke="rgb(98.431373%, 60.392157%, 60%)" stroke-opacity="1" stroke-miterlimit="10" d="M 478.988281 301.191406 C 478.988281 302.191406 477.488281 302.191406 477.488281 301.191406 C 477.488281 300.191406 478.988281 300.191406 478.988281 301.191406 "/>
<path fill-rule="nonzero" fill="rgb(98.431373%, 60.392157%, 60%)" fill-opacity="1" stroke-width="1" stroke-linecap="butt" stroke-linejoin="miter" stroke="rgb(98.431373%, 60.392157%, 60%)" stroke-opacity="1" stroke-miterlimit="10" d="M 440.617188 249.886719 C 440.617188 250.886719 439.117188 250.886719 439.117188 249.886719 C 439.117188 248.886719 440.617188 248.886719 440.617188 249.886719 "/>
<path fill-rule="nonzero" fill="rgb(70.196078%, 70.196078%, 70.196078%)" fill-opacity="1" stroke-width="1" stroke-linecap="butt" stroke-linejoin="miter" stroke="rgb(70.196078%, 70.196078%, 70.196078%)" stroke-opacity="1" stroke-miterlimit="10" d="M 535.972656 478.175781 C 535.972656 481.507812 530.972656 481.507812 530.972656 478.175781 C 530.972656 474.839844 535.972656 474.839844 535.972656 478.175781 "/>
<path fill-rule="nonzero" fill="rgb(12.156863%, 47.058824%, 70.588235%)" fill-opacity="1" stroke-width="1" stroke-linecap="butt" stroke-linejoin="miter" stroke="rgb(12.156863%, 47.058824%, 70.588235%)" stroke-opacity="1" stroke-miterlimit="10" d="M 401.171875 737.464844 C 401.171875 738.464844 399.671875 738.464844 399.671875 737.464844 C 399.671875 736.464844 401.171875 736.464844 401.171875 737.464844 "/>
<path fill-rule="nonzero" fill="rgb(12.156863%, 47.058824%, 70.588235%)" fill-opacity="1" stroke-width="1" stroke-linecap="butt" stroke-linejoin="miter" stroke="rgb(12.156863%, 47.058824%, 70.588235%)" stroke-opacity="1" stroke-miterlimit="10" d="M 260.914062 650.175781 C 260.914062 651.175781 259.414062 651.175781 259.414062 650.175781 C 259.414062 649.175781 260.914062 649.175781 260.914062 650.175781 "/>
<path fill-rule="nonzero" fill="rgb(12.156863%, 47.058824%, 70.588235%)" fill-opacity="1" stroke-width="1" stroke-linecap="butt" stroke-linejoin="miter" stroke="rgb(12.156863%, 47.058824%, 70.588235%)" stroke-opacity="1" stroke-miterlimit="10" d="M 360.578125 680.171875 C 360.578125 681.839844 358.078125 681.839844 358.078125 680.171875 C 358.078125 678.503906 360.578125 678.503906 360.578125 680.171875 "/>
<path fill-rule="nonzero" fill="rgb(12.156863%, 47.058824%, 70.588235%)" fill-opacity="1" stroke-width="1" stroke-linecap="butt" stroke-linejoin="miter" stroke="rgb(12.156863%, 47.058824%, 70.588235%)" stroke-opacity="1" stroke-miterlimit="10" d="M 419.210938 566.855469 C 419.210938 567.855469 417.710938 567.855469 417.710938 566.855469 C 417.710938 565.855469 419.210938 565.855469 419.210938 566.855469 "/>
<path fill-rule="nonzero" fill="rgb(12.156863%, 47.058824%, 70.588235%)" fill-opacity="1" stroke-width="1" stroke-linecap="butt" stroke-linejoin="miter" stroke="rgb(12.156863%, 47.058824%, 70.588235%)" stroke-opacity="1" stroke-miterlimit="10" d="M 167.058594 610.121094 C 167.058594 611.121094 165.558594 611.121094 165.558594 610.121094 C 165.558594 609.121094 167.058594 609.121094 167.058594 610.121094 "/>
<path fill-rule="nonzero" fill="rgb(70.196078%, 70.196078%, 70.196078%)" fill-opacity="1" stroke-width="1" stroke-linecap="butt" stroke-linejoin="miter" stroke="rgb(70.196078%, 70.196078%, 70.196078%)" stroke-opacity="1" stroke-miterlimit="10" d="M 405.128906 642.207031 C 405.128906 645.539062 400.128906 645.539062 400.128906 642.207031 C 400.128906 638.871094 405.128906 638.871094 405.128906 642.207031 "/>
<path fill-rule="nonzero" fill="rgb(70.196078%, 70.196078%, 70.196078%)" fill-opacity="1" stroke-width="1" stroke-linecap="butt" stroke-linejoin="miter" stroke="rgb(70.196078%, 70.196078%, 70.196078%)" stroke-opacity="1" stroke-miterlimit="10" d="M 556.28125 547.464844 C 556.28125 550.800781 551.28125 550.800781 551.28125 547.464844 C 551.28125 544.132812 556.28125 544.132812 556.28125 547.464844 "/>
<path fill-rule="nonzero" fill="rgb(12.156863%, 47.058824%, 70.588235%)" fill-opacity="1" stroke-width="1" stroke-linecap="butt" stroke-linejoin="miter" stroke="rgb(12.156863%, 47.058824%, 70.588235%)" stroke-opacity="1" stroke-miterlimit="10" d="M 364.363281 750 C 364.363281 751 362.863281 751 362.863281 750 C 362.863281 749 364.363281 749 364.363281 750 "/>
<path fill-rule="nonzero" fill="rgb(70.196078%, 70.196078%, 70.196078%)" fill-opacity="1" stroke-width="1" stroke-linecap="butt" stroke-linejoin="miter" stroke="rgb(70.196078%, 70.196078%, 70.196078%)" stroke-opacity="1" stroke-miterlimit="10" d="M 461.785156 87.179688 C 461.785156 90.511719 456.785156 90.511719 456.785156 87.179688 C 456.785156 83.847656 461.785156 83.847656 461.785156 87.179688 "/>
<path fill-rule="nonzero" fill="rgb(70.196078%, 70.196078%, 70.196078%)" fill-opacity="1" stroke-width="1" stroke-linecap="butt" stroke-linejoin="miter" stroke="rgb(70.196078%, 70.196078%, 70.196078%)" stroke-opacity="1" stroke-miterlimit="10" d="M 534.597656 614.207031 C 534.597656 617.542969 529.597656 617.542969 529.597656 614.207031 C 529.597656 610.875 534.597656 610.875 534.597656 614.207031 "/>
<path fill-rule="nonzero" fill="rgb(70.196078%, 70.196078%, 70.196078%)" fill-opacity="1" stroke-width="1" stroke-linecap="butt" stroke-linejoin="miter" stroke="rgb(70.196078%, 70.196078%, 70.196078%)" stroke-opacity="1" stroke-miterlimit="10" d="M 317.359375 632.933594 C 317.359375 636.265625 312.359375 636.265625 312.359375 632.933594 C 312.359375 629.597656 317.359375 629.597656 317.359375 632.933594 "/>
<path fill-rule="nonzero" fill="rgb(70.196078%, 70.196078%, 70.196078%)" fill-opacity="1" stroke-width="1" stroke-linecap="butt" stroke-linejoin="miter" stroke="rgb(70.196078%, 70.196078%, 70.196078%)" stroke-opacity="1" stroke-miterlimit="10" d="M 239.238281 589.085938 C 239.238281 592.417969 234.238281 592.417969 234.238281 589.085938 C 234.238281 585.753906 239.238281 585.753906 239.238281 589.085938 "/>
<path fill-rule="nonzero" fill="rgb(70.196078%, 70.196078%, 70.196078%)" fill-opacity="1" stroke-width="1" stroke-linecap="butt" stroke-linejoin="miter" stroke="rgb(70.196078%, 70.196078%, 70.196078%)" stroke-opacity="1" stroke-miterlimit="10" d="M 196.265625 503.289062 C 196.265625 506.621094 191.265625 506.621094 191.265625 503.289062 C 191.265625 499.957031 196.265625 499.957031 196.265625 503.289062 "/>
<path fill-rule="nonzero" fill="rgb(70.196078%, 70.196078%, 70.196078%)" fill-opacity="1" stroke-width="1" stroke-linecap="butt" stroke-linejoin="miter" stroke="rgb(70.196078%, 70.196078%, 70.196078%)" stroke-opacity="1" stroke-miterlimit="10" d="M 478.765625 645.265625 C 478.765625 648.597656 473.765625 648.597656 473.765625 645.265625 C 473.765625 641.929688 478.765625 641.929688 478.765625 645.265625 "/>
<path fill-rule="nonzero" fill="rgb(70.196078%, 70.196078%, 70.196078%)" fill-opacity="1" stroke-width="1" stroke-linecap="butt" stroke-linejoin="miter" stroke="rgb(70.196078%, 70.196078%, 70.196078%)" stroke-opacity="1" stroke-miterlimit="10" d="M 548.183594 88.613281 C 548.183594 91.945312 543.183594 91.945312 543.183594 88.613281 C 543.183594 85.28125 548.183594 85.28125 548.183594 88.613281 "/>
<path fill-rule="nonzero" fill="rgb(70.196078%, 70.196078%, 70.196078%)" fill-opacity="1" stroke-width="1" stroke-linecap="butt" stroke-linejoin="miter" stroke="rgb(70.196078%, 70.196078%, 70.196078%)" stroke-opacity="1" stroke-miterlimit="10" d="M 710.054688 149.730469 C 710.054688 153.0625 705.054688 153.0625 705.054688 149.730469 C 705.054688 146.394531 710.054688 146.394531 710.054688 149.730469 "/>
<path fill-rule="nonzero" fill="rgb(70.196078%, 70.196078%, 70.196078%)" fill-opacity="1" stroke-width="1" stroke-linecap="butt" stroke-linejoin="miter" stroke="rgb(70.196078%, 70.196078%, 70.196078%)" stroke-opacity="1" stroke-miterlimit="10" d="M 190.644531 382.964844 C 190.644531 386.300781 185.644531 386.300781 185.644531 382.964844 C 185.644531 379.632812 190.644531 379.632812 190.644531 382.964844 "/>
<path fill-rule="nonzero" fill="rgb(70.196078%, 70.196078%, 70.196078%)" fill-opacity="1" stroke-width="1" stroke-linecap="butt" stroke-linejoin="miter" stroke="rgb(70.196078%, 70.196078%, 70.196078%)" stroke-opacity="1" stroke-miterlimit="10" d="M 225.21875 274.402344 C 225.21875 277.734375 220.21875 277.734375 220.21875 274.402344 C 220.21875 271.070312 225.21875 271.070312 225.21875 274.402344 "/>
<path fill-rule="nonzero" fill="rgb(70.196078%, 70.196078%, 70.196078%)" fill-opacity="1" stroke-width="1" stroke-linecap="butt" stroke-linejoin="miter" stroke="rgb(70.196078%, 70.196078%, 70.196078%)" stroke-opacity="1" stroke-miterlimit="10" d="M 283.339844 181.34375 C 283.339844 184.679688 278.339844 184.679688 278.339844 181.34375 C 278.339844 178.011719 283.339844 178.011719 283.339844 181.34375 "/>
<path fill-rule="nonzero" fill="rgb(70.196078%, 70.196078%, 70.196078%)" fill-opacity="1" stroke-width="1" stroke-linecap="butt" stroke-linejoin="miter" stroke="rgb(70.196078%, 70.196078%, 70.196078%)" stroke-opacity="1" stroke-miterlimit="10" d="M 731.804688 228.765625 C 731.804688 232.097656 726.804688 232.097656 726.804688 228.765625 C 726.804688 225.429688 731.804688 225.429688 731.804688 228.765625 "/>
<path fill-rule="nonzero" fill="rgb(70.196078%, 70.196078%, 70.196078%)" fill-opacity="1" stroke-width="1" stroke-linecap="butt" stroke-linejoin="miter" stroke="rgb(70.196078%, 70.196078%, 70.196078%)" stroke-opacity="1" stroke-miterlimit="10" d="M 361.839844 432.710938 C 361.839844 436.042969 356.839844 436.042969 356.839844 432.710938 C 356.839844 429.378906 361.839844 429.378906 361.839844 432.710938 "/>
<path fill-rule="nonzero" fill="rgb(70.196078%, 70.196078%, 70.196078%)" fill-opacity="1" stroke-width="1" stroke-linecap="butt" stroke-linejoin="miter" stroke="rgb(70.196078%, 70.196078%, 70.196078%)" stroke-opacity="1" stroke-miterlimit="10" d="M 710.433594 50 C 710.433594 53.332031 705.433594 53.332031 705.433594 50 C 705.433594 46.667969 710.433594 46.667969 710.433594 50 "/>
<path fill-rule="nonzero" fill="rgb(70.196078%, 70.196078%, 70.196078%)" fill-opacity="1" stroke-width="1" stroke-linecap="butt" stroke-linejoin="miter" stroke="rgb(70.196078%, 70.196078%, 70.196078%)" stroke-opacity="1" stroke-miterlimit="10" d="M 368.0625 108.84375 C 368.0625 112.179688 363.0625 112.179688 363.0625 108.84375 C 363.0625 105.511719 368.0625 105.511719 368.0625 108.84375 "/>
<path fill-rule="nonzero" fill="rgb(70.196078%, 70.196078%, 70.196078%)" fill-opacity="1" stroke-width="1" stroke-linecap="butt" stroke-linejoin="miter" stroke="rgb(70.196078%, 70.196078%, 70.196078%)" stroke-opacity="1" stroke-miterlimit="10" d="M 628.71875 93.375 C 628.71875 96.707031 623.71875 96.707031 623.71875 93.375 C 623.71875 90.042969 628.71875 90.042969 628.71875 93.375 "/>
<path fill-rule="nonzero" fill="rgb(70.196078%, 70.196078%, 70.196078%)" fill-opacity="1" stroke-width="1" stroke-linecap="butt" stroke-linejoin="miter" stroke="rgb(70.196078%, 70.196078%, 70.196078%)" stroke-opacity="1" stroke-miterlimit="10" d="M 710.332031 92.484375 C 710.332031 95.816406 705.332031 95.816406 705.332031 92.484375 C 705.332031 89.152344 710.332031 89.152344 710.332031 92.484375 "/>
<path fill-rule="nonzero" fill="rgb(70.196078%, 70.196078%, 70.196078%)" fill-opacity="1" stroke-width="1" stroke-linecap="butt" stroke-linejoin="miter" stroke="rgb(70.196078%, 70.196078%, 70.196078%)" stroke-opacity="1" stroke-miterlimit="10" d="M 752.5 318.824219 C 752.5 322.15625 747.5 322.15625 747.5 318.824219 C 747.5 315.488281 752.5 315.488281 752.5 318.824219 "/>
<path fill-rule="nonzero" fill="rgb(70.196078%, 70.196078%, 70.196078%)" fill-opacity="1" stroke-width="1" stroke-linecap="butt" stroke-linejoin="miter" stroke="rgb(70.196078%, 70.196078%, 70.196078%)" stroke-opacity="1" stroke-miterlimit="10" d="M 750.519531 422.726562 C 750.519531 426.0625 745.519531 426.0625 745.519531 422.726562 C 745.519531 419.394531 750.519531 419.394531 750.519531 422.726562 "/>
<path fill-rule="nonzero" fill="rgb(70.196078%, 70.196078%, 70.196078%)" fill-opacity="1" stroke-width="1" stroke-linecap="butt" stroke-linejoin="miter" stroke="rgb(70.196078%, 70.196078%, 70.196078%)" stroke-opacity="1" stroke-miterlimit="10" d="M 703.117188 509.410156 C 703.117188 512.742188 698.117188 512.742188 698.117188 509.410156 C 698.117188 506.074219 703.117188 506.074219 703.117188 509.410156 "/>
<path fill-rule="nonzero" fill="rgb(70.196078%, 70.196078%, 70.196078%)" fill-opacity="1" stroke-width="1" stroke-linecap="butt" stroke-linejoin="miter" stroke="rgb(70.196078%, 70.196078%, 70.196078%)" stroke-opacity="1" stroke-miterlimit="10" d="M 310.203125 405.757812 C 310.203125 409.089844 305.203125 409.089844 305.203125 405.757812 C 305.203125 402.421875 310.203125 402.421875 310.203125 405.757812 "/>
<path fill-rule="nonzero" fill="rgb(70.196078%, 70.196078%, 70.196078%)" fill-opacity="1" stroke-width="1" stroke-linecap="butt" stroke-linejoin="miter" stroke="rgb(70.196078%, 70.196078%, 70.196078%)" stroke-opacity="1" stroke-miterlimit="10" d="M 621.183594 542.996094 C 621.183594 546.332031 616.183594 546.332031 616.183594 542.996094 C 616.183594 539.664062 621.183594 539.664062 621.183594 542.996094 "/>
<path fill-rule="nonzero" fill="rgb(70.196078%, 70.196078%, 70.196078%)" fill-opacity="1" stroke-width="1" stroke-linecap="butt" stroke-linejoin="miter" stroke="rgb(70.196078%, 70.196078%, 70.196078%)" stroke-opacity="1" stroke-miterlimit="10" d="M 262.902344 417.648438 C 262.902344 420.984375 257.902344 420.984375 257.902344 417.648438 C 257.902344 414.316406 262.902344 414.316406 262.902344 417.648438 "/>
<path fill-rule="nonzero" fill="rgb(100%, 84.313725%, 0%)" fill-opacity="1" stroke-width="1" stroke-linecap="butt" stroke-linejoin="miter" stroke="rgb(100%, 84.313725%, 0%)" stroke-opacity="1" stroke-miterlimit="10" d="M 237.238281 460.496094 L 242.238281 460.496094 L 242.238281 465.496094 L 237.238281 465.496094 Z M 237.238281 460.496094 "/>
<path fill-rule="nonzero" fill="rgb(70.196078%, 70.196078%, 70.196078%)" fill-opacity="1" stroke-width="1" stroke-linecap="butt" stroke-linejoin="miter" stroke="rgb(70.196078%, 70.196078%, 70.196078%)" stroke-opacity="1" stroke-miterlimit="10" d="M 751.960938 51.058594 C 751.960938 54.394531 746.960938 54.394531 746.960938 51.058594 C 746.960938 47.726562 751.960938 47.726562 751.960938 51.058594 "/>
<path fill-rule="nonzero" fill="rgb(70.196078%, 70.196078%, 70.196078%)" fill-opacity="1" stroke-width="1" stroke-linecap="butt" stroke-linejoin="miter" stroke="rgb(70.196078%, 70.196078%, 70.196078%)" stroke-opacity="1" stroke-miterlimit="10" d="M 506.785156 526.246094 C 506.785156 529.582031 501.785156 529.582031 501.785156 526.246094 C 501.785156 522.914062 506.785156 522.914062 506.785156 526.246094 "/>
<path fill-rule="nonzero" fill="rgb(70.196078%, 70.196078%, 70.196078%)" fill-opacity="1" stroke-width="1" stroke-linecap="butt" stroke-linejoin="miter" stroke="rgb(70.196078%, 70.196078%, 70.196078%)" stroke-opacity="1" stroke-miterlimit="10" d="M 421 474.300781 C 421 477.632812 416 477.632812 416 474.300781 C 416 470.96875 421 470.96875 421 474.300781 "/>
</svg>
