<?xml version="1.0" encoding="UTF-8"?>
<svg xmlns="http://www.w3.org/2000/svg" xmlns:xlink="http://www.w3.org/1999/xlink" width="800" height="800" viewBox="0 0 800 800">
<rect x="-80" y="-80" width="960" height="960" fill="rgb(100%, 100%, 100%)" fill-opacity="1"/>
<path fill="none" stroke-width="1.5" stroke-linecap="butt" stroke-linejoin="miter" stroke="rgb(99.215686%, 74.901961%, 43.529412%)" stroke-opacity="1" stroke-miterlimit="10" d="M 96.933594 187.949219 C 109.570312 179.464844 118.105469 167.75 118.9375 152.601562 "/>
<path fill-rule="nonzero" fill="rgb(99.215686%, 74.901961%, 43.529412%)" fill-opacity="1" d="M 119.328125 145.480469 L 121.253906 152.730469 L 116.625 152.476562 L 119.328125 145.480469 "/>
<path fill="none" stroke-width="1.5" stroke-linecap="butt" stroke-linejoin="miter" stroke="rgb(30.196078%, 68.627451%, 29.019608%)" stroke-opacity="1" stroke-miterlimit="10" d="M 161.820312 185.609375 C 157.945312 167.570312 148.496094 152.929688 131.902344 144.953125 "/>
<path fill-rule="nonzero" fill="rgb(30.196078%, 68.627451%, 29.019608%)" fill-opacity="1" d="M 125.472656 141.863281 L 132.90625 142.863281 L 130.898438 147.042969 L 125.472656 141.863281 "/>
<path fill="none" stroke-width="1.5" stroke-linecap="butt" stroke-linejoin="miter" stroke="rgb(99.215686%, 74.901961%, 43.529412%)" stroke-opacity="1" stroke-miterlimit="10" d="M 161.820312 185.609375 C 143.40625 176.578125 124.226562 174.933594 105.742188 183.75 "/>
<path fill-rule="nonzero" fill="rgb(99.215686%, 74.901961%, 43.529412%)" fill-opacity="1" d="M 99.300781 186.820312 L 104.742188 181.65625 L 106.738281 185.839844 L 99.300781 186.820312 "/>
<path fill="none" stroke-width="1.5" stroke-linecap="butt" stroke-linejoin="miter" stroke="rgb(41.568627%, 23.921569%, 60.392157%)" stroke-opacity="1" stroke-miterlimit="10" d="M 343.015625 530.914062 C 352.308594 515.851562 355.457031 499.453125 349.285156 482.90625 "/>
<path fill-rule="nonzero" fill="rgb(41.568627%, 23.921569%, 60.392157%)" fill-opacity="1" d="M 346.792969 476.226562 L 351.457031 482.097656 L 347.113281 483.71875 L 346.792969 476.226562 "/>
<path fill="none" stroke-width="1.5" stroke-linecap="butt" stroke-linejoin="miter" stroke="rgb(98.431373%, 60.392157%, 60%)" stroke-opacity="1" stroke-miterlimit="10" d="M 343.015625 530.914062 C 370.875 519.863281 391.039062 500.605469 400.113281 472.066406 "/>
<path fill-rule="nonzero" fill="rgb(98.431373%, 60.392157%, 60%)" fill-opacity="1" d="M 402.273438 465.269531 L 402.320312 472.769531 L 397.902344 471.363281 L 402.273438 465.269531 "/>
<path fill="none" stroke-width="2.5" stroke-linecap="butt" stroke-linejoin="miter" stroke="rgb(70.196078%, 70.196078%, 70.196078%)" stroke-opacity="1" stroke-miterlimit="10" d="M 302.839844 618.09375 C 327.445312 598.929688 341.914062 573.816406 342.714844 542.660156 "/>
<path fill-rule="nonzero" fill="rgb(70.196078%, 70.196078%, 70.196078%)" fill-opacity="1" d="M 342.898438 535.53125 L 345.03125 542.722656 L 340.398438 542.601562 L 342.898438 535.53125 "/>
<path fill="none" stroke-width="1.5" stroke-linecap="butt" stroke-linejoin="miter" stroke="rgb(41.568627%, 23.921569%, 60.392157%)" stroke-opacity="1" stroke-miterlimit="10" d="M 345.875 473.769531 C 362.6875 478.898438 379.277344 477.835938 393.574219 467.6875 "/>
<path fill-rule="nonzero" fill="rgb(41.568627%, 23.921569%, 60.392157%)" fill-opacity="1" d="M 399.390625 463.554688 L 394.917969 469.574219 L 392.234375 465.796875 L 399.390625 463.554688 "/>
<path fill="none" stroke-width="1.5" stroke-linecap="butt" stroke-linejoin="miter" stroke="rgb(41.568627%, 23.921569%, 60.392157%)" stroke-opacity="1" stroke-miterlimit="10" d="M 403.816406 460.417969 C 400.480469 495.445312 410.015625 526.621094 434.824219 551.546875 "/>
<path fill-rule="nonzero" fill="rgb(41.568627%, 23.921569%, 60.392157%)" fill-opacity="1" d="M 439.855469 556.605469 L 433.183594 553.183594 L 436.46875 549.914062 L 439.855469 556.605469 "/>
<path fill="none" stroke-width="1.5" stroke-linecap="butt" stroke-linejoin="miter" stroke="rgb(98.431373%, 60.392157%, 60%)" stroke-opacity="1" stroke-miterlimit="10" d="M 403.816406 460.417969 C 434.867188 416.972656 445.53125 368.949219 432.511719 317.175781 "/>
<path fill-rule="nonzero" fill="rgb(98.431373%, 60.392157%, 60%)" fill-opacity="1" d="M 430.773438 310.257812 L 434.757812 316.609375 L 430.265625 317.742188 L 430.773438 310.257812 "/>
<path fill="none" stroke-width="1.5" stroke-linecap="butt" stroke-linejoin="miter" stroke="rgb(41.568627%, 23.921569%, 60.392157%)" stroke-opacity="1" stroke-miterlimit="10" d="M 441.710938 558.46875 C 434.089844 582.410156 435.746094 605.808594 449.574219 626.757812 "/>
<path fill-rule="nonzero" fill="rgb(41.568627%, 23.921569%, 60.392157%)" fill-opacity="1" d="M 453.503906 632.710938 L 447.640625 628.03125 L 451.507812 625.480469 L 453.503906 632.710938 "/>
<path fill="none" stroke-width="1.5" stroke-linecap="butt" stroke-linejoin="miter" stroke="rgb(98.431373%, 60.392157%, 60%)" stroke-opacity="1" stroke-miterlimit="10" d="M 430.128906 307.707031 C 440.671875 278.820312 439.621094 250.265625 424 223.808594 "/>
<path fill-rule="nonzero" fill="rgb(98.431373%, 60.392157%, 60%)" fill-opacity="1" d="M 420.371094 217.664062 L 425.996094 222.628906 L 422.003906 224.984375 L 420.371094 217.664062 "/>
<path fill="none" stroke-width="1.5" stroke-linecap="butt" stroke-linejoin="miter" stroke="rgb(98.431373%, 60.392157%, 60%)" stroke-opacity="1" stroke-miterlimit="10" d="M 124.871094 707.125 C 130.625 691.238281 130.46875 675.234375 121.394531 661.03125 "/>
<path fill-rule="nonzero" fill="rgb(98.431373%, 60.392157%, 60%)" fill-opacity="1" d="M 117.554688 655.019531 L 123.347656 659.785156 L 119.441406 662.28125 L 117.554688 655.019531 "/>
<path fill="none" stroke-width="1.5" stroke-linecap="butt" stroke-linejoin="miter" stroke="rgb(41.568627%, 23.921569%, 60.392157%)" stroke-opacity="1" stroke-miterlimit="10" d="M 124.871094 707.125 C 136.5 728.816406 154.078125 743.617188 178.234375 748.1875 "/>
<path fill-rule="nonzero" fill="rgb(41.568627%, 23.921569%, 60.392157%)" fill-opacity="1" d="M 185.242188 749.511719 L 177.804688 750.464844 L 178.664062 745.910156 L 185.242188 749.511719 "/>
<path fill="none" stroke-width="1.5" stroke-linecap="butt" stroke-linejoin="miter" stroke="rgb(98.431373%, 60.392157%, 60%)" stroke-opacity="1" stroke-miterlimit="10" d="M 258.640625 645.929688 C 273.582031 645.582031 286.839844 640.390625 295.523438 628.289062 "/>
<path fill-rule="nonzero" fill="rgb(98.431373%, 60.392157%, 60%)" fill-opacity="1" d="M 299.683594 622.492188 L 297.40625 629.640625 L 293.640625 626.9375 L 299.683594 622.492188 "/>
<path fill="none" stroke-width="1.5" stroke-linecap="butt" stroke-linejoin="miter" stroke="rgb(98.431373%, 60.392157%, 60%)" stroke-opacity="1" stroke-miterlimit="10" d="M 189.429688 637.148438 C 207.652344 649.960938 227.914062 654.886719 249.273438 648.660156 "/>
<path fill-rule="nonzero" fill="rgb(98.431373%, 60.392157%, 60%)" fill-opacity="1" d="M 256.121094 646.664062 L 249.921875 650.882812 L 248.625 646.433594 L 256.121094 646.664062 "/>
<path fill="none" stroke-width="2.5" stroke-linecap="butt" stroke-linejoin="miter" stroke="rgb(70.196078%, 70.196078%, 70.196078%)" stroke-opacity="1" stroke-miterlimit="10" d="M 114.636719 650.449219 C 108.894531 666.519531 109.140625 682.667969 118.351562 696.988281 "/>
<path fill-rule="nonzero" fill="rgb(70.196078%, 70.196078%, 70.196078%)" fill-opacity="1" d="M 122.207031 702.984375 L 116.398438 698.242188 L 120.300781 695.734375 L 122.207031 702.984375 "/>
<path fill="none" stroke-width="1.5" stroke-linecap="butt" stroke-linejoin="miter" stroke="rgb(98.431373%, 60.392157%, 60%)" stroke-opacity="1" stroke-miterlimit="10" d="M 114.636719 650.449219 C 138.042969 657.816406 160.894531 656.128906 181.304688 642.550781 "/>
<path fill-rule="nonzero" fill="rgb(98.431373%, 60.392157%, 60%)" fill-opacity="1" d="M 187.246094 638.601562 L 182.589844 644.480469 L 180.023438 640.621094 L 187.246094 638.601562 "/>
<path fill="none" stroke-width="1.5" stroke-linecap="butt" stroke-linejoin="miter" stroke="rgb(12.156863%, 47.058824%, 70.588235%)" stroke-opacity="1" stroke-miterlimit="10" d="M 750 514.144531 C 762.9375 488.191406 765.019531 461.304688 753.140625 434.871094 "/>
<path fill-rule="nonzero" fill="rgb(12.156863%, 47.058824%, 70.588235%)" fill-opacity="1" d="M 750.214844 428.367188 L 755.253906 433.921875 L 751.027344 435.820312 L 750.214844 428.367188 "/>
<path fill="none" stroke-width="2.5" stroke-linecap="butt" stroke-linejoin="miter" stroke="rgb(70.196078%, 70.196078%, 70.196078%)" stroke-opacity="1" stroke-miterlimit="10" d="M 50 501.789062 C 70.535156 488.820312 83.929688 470.484375 86.675781 446.378906 "/>
<path fill-rule="nonzero" fill="rgb(70.196078%, 70.196078%, 70.196078%)" fill-opacity="1" d="M 87.480469 439.292969 L 88.976562 446.640625 L 84.371094 446.117188 L 87.480469 439.292969 "/>
<path fill="none" stroke-width="2.5" stroke-linecap="butt" stroke-linejoin="miter" stroke="rgb(70.196078%, 70.196078%, 70.196078%)" stroke-opacity="1" stroke-miterlimit="10" d="M 50 501.789062 C 41.941406 525.488281 43.113281 548.84375 56.5 569.964844 "/>
<path fill-rule="nonzero" fill="rgb(70.196078%, 70.196078%, 70.196078%)" fill-opacity="1" d="M 60.316406 575.988281 L 54.539062 571.203125 L 58.457031 568.722656 L 60.316406 575.988281 "/>
<path fill="none" stroke-width="1.5" stroke-linecap="butt" stroke-linejoin="miter" stroke="rgb(12.156863%, 47.058824%, 70.588235%)" stroke-opacity="1" stroke-miterlimit="10" d="M 712.660156 252.390625 C 714.542969 224.457031 706.429688 199.699219 686 180.589844 "/>
<path fill-rule="nonzero" fill="rgb(12.156863%, 47.058824%, 70.588235%)" fill-opacity="1" d="M 680.789062 175.71875 L 687.582031 178.898438 L 684.417969 182.285156 L 680.789062 175.71875 "/>
<path fill="none" stroke-width="2.5" stroke-linecap="butt" stroke-linejoin="miter" stroke="rgb(70.196078%, 70.196078%, 70.196078%)" stroke-opacity="1" stroke-miterlimit="10" d="M 311.703125 360.839844 C 329.550781 356.417969 343.816406 346.539062 351.265625 329.769531 "/>
<path fill-rule="nonzero" fill="rgb(70.196078%, 70.196078%, 70.196078%)" fill-opacity="1" d="M 354.164062 323.25 L 353.386719 330.710938 L 349.148438 328.828125 L 354.164062 323.25 "/>
<path fill="none" stroke-width="1.5" stroke-linecap="butt" stroke-linejoin="miter" stroke="rgb(12.156863%, 47.058824%, 70.588235%)" stroke-opacity="1" stroke-miterlimit="10" d="M 749.140625 425.96875 C 758.726562 398.167969 757.261719 370.863281 741.847656 345.84375 "/>
<path fill-rule="nonzero" fill="rgb(12.156863%, 47.058824%, 70.588235%)" fill-opacity="1" d="M 738.105469 339.773438 L 743.820312 344.628906 L 739.875 347.058594 L 738.105469 339.773438 "/>
<path fill="none" stroke-width="1.5" stroke-linecap="butt" stroke-linejoin="miter" stroke="rgb(12.156863%, 47.058824%, 70.588235%)" stroke-opacity="1" stroke-miterlimit="10" d="M 736.730469 337.535156 C 742.414062 308.988281 737.332031 282.398438 718.859375 259.929688 "/>
<path fill-rule="nonzero" fill="rgb(12.156863%, 47.058824%, 70.588235%)" fill-opacity="1" d="M 714.332031 254.421875 L 720.652344 258.457031 L 717.070312 261.402344 L 714.332031 254.421875 "/>
<path fill="none" stroke-width="1.5" stroke-linecap="butt" stroke-linejoin="miter" stroke="rgb(12.156863%, 47.058824%, 70.588235%)" stroke-opacity="1" stroke-miterlimit="10" d="M 741.253906 598.671875 C 756.441406 575.351562 761.425781 549.929688 752.96875 523.441406 "/>
<path fill-rule="nonzero" fill="rgb(12.156863%, 47.058824%, 70.588235%)" fill-opacity="1" d="M 750.800781 516.648438 L 755.175781 522.738281 L 750.761719 524.148438 L 750.800781 516.648438 "/>
<path fill="none" stroke-width="2.5" stroke-linecap="butt" stroke-linejoin="miter" stroke="rgb(70.196078%, 70.196078%, 70.196078%)" stroke-opacity="1" stroke-miterlimit="10" d="M 157.503906 395.941406 C 182.71875 401.910156 206.640625 398.371094 227.109375 382.527344 "/>
<path fill-rule="nonzero" fill="rgb(70.196078%, 70.196078%, 70.196078%)" fill-opacity="1" d="M 232.75 378.164062 L 228.527344 384.359375 L 225.691406 380.695312 L 232.75 378.164062 "/>
<path fill="none" stroke-width="1.5" stroke-linecap="butt" stroke-linejoin="miter" stroke="rgb(12.156863%, 47.058824%, 70.588235%)" stroke-opacity="1" stroke-miterlimit="10" d="M 709.226562 741.527344 C 723.726562 725.734375 730.988281 707 727.664062 685.851562 "/>
<path fill-rule="nonzero" fill="rgb(12.156863%, 47.058824%, 70.588235%)" fill-opacity="1" d="M 726.554688 678.804688 L 729.953125 685.492188 L 725.375 686.210938 L 726.554688 678.804688 "/>
<path fill="none" stroke-width="2.5" stroke-linecap="butt" stroke-linejoin="miter" stroke="rgb(70.196078%, 70.196078%, 70.196078%)" stroke-opacity="1" stroke-miterlimit="10" d="M 308.269531 257.320312 C 294.894531 235.183594 275.648438 220.617188 250.050781 217.113281 "/>
<path fill-rule="nonzero" fill="rgb(70.196078%, 70.196078%, 70.196078%)" fill-opacity="1" d="M 242.984375 216.144531 L 250.363281 214.816406 L 249.738281 219.410156 L 242.984375 216.144531 "/>
<path fill="none" stroke-width="1.5" stroke-linecap="butt" stroke-linejoin="miter" stroke="rgb(12.156863%, 47.058824%, 70.588235%)" stroke-opacity="1" stroke-miterlimit="10" d="M 726.148438 676.214844 C 742.09375 656.125 748.941406 633.207031 743.371094 608.195312 "/>
<path fill-rule="nonzero" fill="rgb(12.156863%, 47.058824%, 70.588235%)" fill-opacity="1" d="M 741.824219 601.234375 L 745.636719 607.691406 L 741.109375 608.699219 L 741.824219 601.234375 "/>
<path fill="none" stroke-width="2.5" stroke-linecap="butt" stroke-linejoin="miter" stroke="rgb(70.196078%, 70.196078%, 70.196078%)" stroke-opacity="1" stroke-miterlimit="10" d="M 356.164062 318.75 C 351.980469 294.527344 340.011719 274.921875 318.539062 263.015625 "/>
<path fill-rule="nonzero" fill="rgb(70.196078%, 70.196078%, 70.196078%)" fill-opacity="1" d="M 312.300781 259.554688 L 319.664062 260.988281 L 317.417969 265.039062 L 312.300781 259.554688 "/>
<path fill="none" stroke-width="1.5" stroke-linecap="butt" stroke-linejoin="miter" stroke="rgb(12.156863%, 47.058824%, 70.588235%)" stroke-opacity="1" stroke-miterlimit="10" d="M 639.277344 105.175781 C 636.84375 84.222656 627.585938 66.730469 609.683594 55.636719 "/>
<path fill-rule="nonzero" fill="rgb(12.156863%, 47.058824%, 70.588235%)" fill-opacity="1" d="M 603.621094 51.878906 L 610.902344 53.667969 L 608.460938 57.605469 L 603.621094 51.878906 "/>
<path fill="none" stroke-width="2.5" stroke-linecap="butt" stroke-linejoin="miter" stroke="rgb(70.196078%, 70.196078%, 70.196078%)" stroke-opacity="1" stroke-miterlimit="10" d="M 88.003906 434.710938 C 113.195312 434.226562 134.894531 425.121094 150.308594 405.226562 "/>
<path fill-rule="nonzero" fill="rgb(70.196078%, 70.196078%, 70.196078%)" fill-opacity="1" d="M 154.679688 399.585938 L 152.140625 406.644531 L 148.476562 403.804688 L 154.679688 399.585938 "/>
<path fill="none" stroke-width="2.5" stroke-linecap="butt" stroke-linejoin="miter" stroke="rgb(70.196078%, 70.196078%, 70.196078%)" stroke-opacity="1" stroke-miterlimit="10" d="M 236.398438 375.339844 C 259.445312 382.523438 281.953125 380.851562 301.957031 367.394531 "/>
<path fill-rule="nonzero" fill="rgb(70.196078%, 70.196078%, 70.196078%)" fill-opacity="1" d="M 307.875 363.414062 L 303.25 369.316406 L 300.664062 365.472656 L 307.875 363.414062 "/>
<path fill="none" stroke-width="2.5" stroke-linecap="butt" stroke-linejoin="miter" stroke="rgb(70.196078%, 70.196078%, 70.196078%)" stroke-opacity="1" stroke-miterlimit="10" d="M 238.414062 215.519531 C 221.335938 195.699219 199.683594 184.429688 173.5625 185.242188 "/>
<path fill-rule="nonzero" fill="rgb(70.196078%, 70.196078%, 70.196078%)" fill-opacity="1" d="M 166.433594 185.464844 L 173.488281 182.925781 L 173.632812 187.558594 L 166.433594 185.464844 "/>
<path fill="none" stroke-width="1.5" stroke-linecap="butt" stroke-linejoin="miter" stroke="rgb(12.156863%, 47.058824%, 70.588235%)" stroke-opacity="1" stroke-miterlimit="10" d="M 678.871094 173.925781 C 677.730469 148.179688 667.820312 126.289062 647.125 110.980469 "/>
<path fill-rule="nonzero" fill="rgb(12.156863%, 47.058824%, 70.588235%)" fill-opacity="1" d="M 641.390625 106.738281 L 648.503906 109.117188 L 645.746094 112.84375 L 641.390625 106.738281 "/>
<path fill="none" stroke-width="2.5" stroke-linecap="butt" stroke-linejoin="miter" stroke="rgb(70.196078%, 70.196078%, 70.196078%)" stroke-opacity="1" stroke-miterlimit="10" d="M 62.785156 579.882812 C 66.914062 607.53125 80.085938 630 104.121094 644.226562 "/>
<path fill-rule="nonzero" fill="rgb(70.196078%, 70.196078%, 70.196078%)" fill-opacity="1" d="M 110.257812 647.859375 L 102.9375 646.21875 L 105.300781 642.230469 L 110.257812 647.859375 "/>
<path fill="none" stroke-width="1.5" stroke-linecap="butt" stroke-linejoin="miter" stroke="rgb(41.568627%, 23.921569%, 60.392157%)" stroke-opacity="1" stroke-miterlimit="10" d="M 258.230469 716.675781 C 285.976562 694.550781 301.960938 665.785156 302.613281 630.320312 "/>
<path fill-rule="nonzero" fill="rgb(41.568627%, 23.921569%, 60.392157%)" fill-opacity="1" d="M 302.746094 623.1875 L 304.929688 630.363281 L 300.296875 630.277344 L 302.746094 623.1875 "/>
<path fill="none" stroke-width="1.5" stroke-linecap="butt" stroke-linejoin="miter" stroke="rgb(41.568627%, 23.921569%, 60.392157%)" stroke-opacity="1" stroke-miterlimit="10" d="M 187.824219 750 C 213.046875 750.941406 235.230469 743.027344 251.8125 724.027344 "/>
<path fill-rule="nonzero" fill="rgb(41.568627%, 23.921569%, 60.392157%)" fill-opacity="1" d="M 256.503906 718.65625 L 253.558594 725.550781 L 250.066406 722.503906 L 256.503906 718.65625 "/>
<path fill-rule="nonzero" fill="rgb(14.901961%, 14.901961%, 14.901961%)" fill-opacity="1" stroke-width="1" stroke-linecap="butt" stroke-linejoin="miter" stroke="rgb(14.901961%, 14.901961%, 14.901961%)" stroke-opacity="1" stroke-miterlimit="10" d="M 113.332031 145.425781 L 119.679688 132.726562 L 126.03125 145.425781 Z M 113.332031 145.425781 "/>
<path fill-rule="nonzero" fill="rgb(99.215686%, 74.901961%, 43.529412%)" fill-opacity="1" stroke-width="1" stroke-linecap="butt" stroke-linejoin="miter" stroke="rgb(99.215686%, 74.901961%, 43.529412%)" stroke-opacity="1" stroke-miterlimit="10" d="M 99.683594 187.949219 C 99.683594 191.613281 94.183594 191.613281 94.183594 187.949219 C 94.183594 184.28125 99.683594 184.28125 99.683594 187.949219 "/>
<path fill-rule="nonzero" fill="rgb(70.196078%, 70.196078%, 70.196078%)" fill-opacity="1" stroke-width="1" stroke-linecap="butt" stroke-linejoin="miter" stroke="rgb(70.196078%, 70.196078%, 70.196078%)" stroke-opacity="1" stroke-miterlimit="10" d="M 166.667969 185.609375 C 166.667969 192.074219 156.96875 192.074219 156.96875 185.609375 C 156.96875 179.140625 166.667969 179.140625 166.667969 185.609375 "/>
<path fill-rule="nonzero" fill="rgb(70.196078%, 70.196078%, 70.196078%)" fill-opacity="1" stroke-width="1" stroke-linecap="butt" stroke-linejoin="miter" stroke="rgb(70.196078%, 70.196078%, 70.196078%)" stroke-opacity="1" stroke-miterlimit="10" d="M 347.867188 530.914062 C 347.867188 537.378906 338.167969 537.378906 338.167969 530.914062 C 338.167969 524.445312 347.867188 524.445312 347.867188 530.914062 "/>
<path fill-rule="nonzero" fill="rgb(14.901961%, 14.901961%, 14.901961%)" fill-opacity="1" stroke-width="1" stroke-linecap="butt" stroke-linejoin="miter" stroke="rgb(14.901961%, 14.901961%, 14.901961%)" stroke-opacity="1" stroke-miterlimit="10" d="M 414.804688 218.335938 L 418.554688 210.835938 L 422.304688 218.335938 Z M 414.804688 218.335938 "/>
<path fill-rule="nonzero" fill="rgb(70.196078%, 70.196078%, 70.196078%)" fill-opacity="1" stroke-width="1" stroke-linecap="butt" stroke-linejoin="miter" stroke="rgb(70.196078%, 70.196078%, 70.196078%)" stroke-opacity="1" stroke-miterlimit="10" d="M 308.1875 618.09375 C 308.1875 625.226562 297.488281 625.226562 297.488281 618.09375 C 297.488281 610.960938 308.1875 610.960938 308.1875 618.09375 "/>
<path fill-rule="nonzero" fill="rgb(14.901961%, 14.901961%, 14.901961%)" fill-opacity="1" stroke-width="1" stroke-linecap="butt" stroke-linejoin="miter" stroke="rgb(14.901961%, 14.901961%, 14.901961%)" stroke-opacity="1" stroke-miterlimit="10" d="M 451.722656 639.441406 L 455.472656 631.941406 L 459.222656 639.441406 Z M 451.722656 639.441406 "/>
<path fill-rule="nonzero" fill="rgb(41.568627%, 23.921569%, 60.392157%)" fill-opacity="1" stroke-width="1" stroke-linecap="butt" stroke-linejoin="miter" stroke="rgb(41.568627%, 23.921569%, 60.392157%)" stroke-opacity="1" stroke-miterlimit="10" d="M 348.625 473.769531 C 348.625 477.4375 343.125 477.4375 343.125 473.769531 C 343.125 470.101562 348.625 470.101562 348.625 473.769531 "/>
<path fill-rule="nonzero" fill="rgb(70.196078%, 70.196078%, 70.196078%)" fill-opacity="1" stroke-width="1" stroke-linecap="butt" stroke-linejoin="miter" stroke="rgb(70.196078%, 70.196078%, 70.196078%)" stroke-opacity="1" stroke-miterlimit="10" d="M 409.164062 460.417969 C 409.164062 467.550781 398.464844 467.550781 398.464844 460.417969 C 398.464844 453.28125 409.164062 453.28125 409.164062 460.417969 "/>
<path fill-rule="nonzero" fill="rgb(41.568627%, 23.921569%, 60.392157%)" fill-opacity="1" stroke-width="1" stroke-linecap="butt" stroke-linejoin="miter" stroke="rgb(41.568627%, 23.921569%, 60.392157%)" stroke-opacity="1" stroke-miterlimit="10" d="M 444.460938 558.46875 C 444.460938 562.132812 438.960938 562.132812 438.960938 558.46875 C 438.960938 554.800781 444.460938 554.800781 444.460938 558.46875 "/>
<path fill-rule="nonzero" fill="rgb(98.431373%, 60.392157%, 60%)" fill-opacity="1" stroke-width="1" stroke-linecap="butt" stroke-linejoin="miter" stroke="rgb(98.431373%, 60.392157%, 60%)" stroke-opacity="1" stroke-miterlimit="10" d="M 432.878906 307.707031 C 432.878906 311.371094 427.378906 311.371094 427.378906 307.707031 C 427.378906 304.039062 432.878906 304.039062 432.878906 307.707031 "/>
<path fill-rule="nonzero" fill="rgb(70.196078%, 70.196078%, 70.196078%)" fill-opacity="1" stroke-width="1" stroke-linecap="butt" stroke-linejoin="miter" stroke="rgb(70.196078%, 70.196078%, 70.196078%)" stroke-opacity="1" stroke-miterlimit="10" d="M 129.722656 707.125 C 129.722656 713.59375 120.019531 713.59375 120.019531 707.125 C 120.019531 700.660156 129.722656 700.660156 129.722656 707.125 "/>
<path fill-rule="nonzero" fill="rgb(98.431373%, 60.392157%, 60%)" fill-opacity="1" stroke-width="1" stroke-linecap="butt" stroke-linejoin="miter" stroke="rgb(98.431373%, 60.392157%, 60%)" stroke-opacity="1" stroke-miterlimit="10" d="M 261.390625 645.929688 C 261.390625 649.59375 255.890625 649.59375 255.890625 645.929688 C 255.890625 642.261719 261.390625 642.261719 261.390625 645.929688 "/>
<path fill-rule="nonzero" fill="rgb(98.431373%, 60.392157%, 60%)" fill-opacity="1" stroke-width="1" stroke-linecap="butt" stroke-linejoin="miter" stroke="rgb(98.431373%, 60.392157%, 60%)" stroke-opacity="1" stroke-miterlimit="10" d="M 192.179688 637.148438 C 192.179688 640.8125 186.679688 640.8125 186.679688 637.148438 C 186.679688 633.480469 192.179688 633.480469 192.179688 637.148438 "/>
<path fill-rule="nonzero" fill="rgb(70.196078%, 70.196078%, 70.196078%)" fill-opacity="1" stroke-width="1" stroke-linecap="butt" stroke-linejoin="miter" stroke="rgb(70.196078%, 70.196078%, 70.196078%)" stroke-opacity="1" stroke-miterlimit="10" d="M 119.988281 650.449219 C 119.988281 657.585938 109.285156 657.585938 109.285156 650.449219 C 109.285156 643.316406 119.988281 643.316406 119.988281 650.449219 "/>
<path fill-rule="nonzero" fill="rgb(12.156863%, 47.058824%, 70.588235%)" fill-opacity="1" stroke-width="1" stroke-linecap="butt" stroke-linejoin="miter" stroke="rgb(12.156863%, 47.058824%, 70.588235%)" stroke-opacity="1" stroke-miterlimit="10" d="M 752.75 514.144531 C 752.75 517.8125 747.25 517.8125 747.25 514.144531 C 747.25 510.480469 752.75 510.480469 752.75 514.144531 "/>
<path fill-rule="nonzero" fill="rgb(100%, 84.313725%, 0%)" fill-opacity="1" stroke-width="1" stroke-linecap="butt" stroke-linejoin="miter" stroke="rgb(100%, 84.313725%, 0%)" stroke-opacity="1" stroke-miterlimit="10" d="M 44.648438 496.441406 L 55.347656 496.441406 L 55.347656 507.140625 L 44.648438 507.140625 Z M 44.648438 496.441406 "/>
<path fill-rule="nonzero" fill="rgb(12.156863%, 47.058824%, 70.588235%)" fill-opacity="1" stroke-width="1" stroke-linecap="butt" stroke-linejoin="miter" stroke="rgb(12.156863%, 47.058824%, 70.588235%)" stroke-opacity="1" stroke-miterlimit="10" d="M 715.410156 252.390625 C 715.410156 256.058594 709.910156 256.058594 709.910156 252.390625 C 709.910156 248.726562 715.410156 248.726562 715.410156 252.390625 "/>
<path fill-rule="nonzero" fill="rgb(70.196078%, 70.196078%, 70.196078%)" fill-opacity="1" stroke-width="1" stroke-linecap="butt" stroke-linejoin="miter" stroke="rgb(70.196078%, 70.196078%, 70.196078%)" stroke-opacity="1" stroke-miterlimit="10" d="M 316.550781 360.839844 C 316.550781 367.304688 306.851562 367.304688 306.851562 360.839844 C 306.851562 354.371094 316.550781 354.371094 316.550781 360.839844 "/>
<path fill-rule="nonzero" fill="rgb(12.156863%, 47.058824%, 70.588235%)" fill-opacity="1" stroke-width="1" stroke-linecap="butt" stroke-linejoin="miter" stroke="rgb(12.156863%, 47.058824%, 70.588235%)" stroke-opacity="1" stroke-miterlimit="10" d="M 751.890625 425.96875 C 751.890625 429.636719 746.390625 429.636719 746.390625 425.96875 C 746.390625 422.304688 751.890625 422.304688 751.890625 425.96875 "/>
<path fill-rule="nonzero" fill="rgb(12.156863%, 47.058824%, 70.588235%)" fill-opacity="1" stroke-width="1" stroke-linecap="butt" stroke-linejoin="miter" stroke="rgb(12.156863%, 47.058824%, 70.588235%)" stroke-opacity="1" stroke-miterlimit="10" d="M 739.480469 337.535156 C 739.480469 341.203125 733.980469 341.203125 733.980469 337.535156 C 733.980469 333.867188 739.480469 333.867188 739.480469 337.535156 "/>
<path fill-rule="nonzero" fill="rgb(12.156863%, 47.058824%, 70.588235%)" fill-opacity="1" stroke-width="1" stroke-linecap="butt" stroke-linejoin="miter" stroke="rgb(12.156863%, 47.058824%, 70.588235%)" stroke-opacity="1" stroke-miterlimit="10" d="M 744.003906 598.671875 C 744.003906 602.339844 738.503906 602.339844 738.503906 598.671875 C 738.503906 595.003906 744.003906 595.003906 744.003906 598.671875 "/>
<path fill-rule="nonzero" fill="rgb(70.196078%, 70.196078%, 70.196078%)" fill-opacity="1" stroke-width="1" stroke-linecap="butt" stroke-linejoin="miter" stroke="rgb(70.196078%, 70.196078%, 70.196078%)" stroke-opacity="1" stroke-miterlimit="10" d="M 162.355469 395.941406 C 162.355469 402.40625 152.65625 402.40625 152.65625 395.941406 C 152.65625 389.472656 162.355469 389.472656 162.355469 395.941406 "/>
<path fill-rule="nonzero" fill="rgb(100%, 84.313725%, 0%)" fill-opacity="1" stroke-width="1" stroke-linecap="butt" stroke-linejoin="miter" stroke="rgb(100%, 84.313725%, 0%)" stroke-opacity="1" stroke-miterlimit="10" d="M 705.976562 738.277344 L 712.476562 738.277344 L 712.476562 744.777344 L 705.976562 744.777344 Z M 705.976562 738.277344 "/>
<path fill-rule="nonzero" fill="rgb(70.196078%, 70.196078%, 70.196078%)" fill-opacity="1" stroke-width="1" stroke-linecap="butt" stroke-linejoin="miter" stroke="rgb(70.196078%, 70.196078%, 70.196078%)" stroke-opacity="1" stroke-miterlimit="10" d="M 313.117188 257.320312 C 313.117188 263.785156 303.417969 263.785156 303.417969 257.320312 C 303.417969 250.851562 313.117188 250.851562 313.117188 257.320312 "/>
<path fill-rule="nonzero" fill="rgb(12.156863%, 47.058824%, 70.588235%)" fill-opacity="1" stroke-width="1" stroke-linecap="butt" stroke-linejoin="miter" stroke="rgb(12.156863%, 47.058824%, 70.588235%)" stroke-opacity="1" stroke-miterlimit="10" d="M 728.898438 676.214844 C 728.898438 679.882812 723.398438 679.882812 723.398438 676.214844 C 723.398438 672.546875 728.898438 672.546875 728.898438 676.214844 "/>
<path fill-rule="nonzero" fill="rgb(70.196078%, 70.196078%, 70.196078%)" fill-opacity="1" stroke-width="1" stroke-linecap="butt" stroke-linejoin="miter" stroke="rgb(70.196078%, 70.196078%, 70.196078%)" stroke-opacity="1" stroke-miterlimit="10" d="M 361.011719 318.75 C 361.011719 325.214844 351.3125 325.214844 351.3125 318.75 C 351.3125 312.28125 361.011719 312.28125 361.011719 318.75 "/>
<path fill-rule="nonzero" fill="rgb(12.156863%, 47.058824%, 70.588235%)" fill-opacity="1" stroke-width="1" stroke-linecap="butt" stroke-linejoin="miter" stroke="rgb(12.156863%, 47.058824%, 70.588235%)" stroke-opacity="1" stroke-miterlimit="10" d="M 642.027344 105.175781 C 642.027344 108.84375 636.527344 108.84375 636.527344 105.175781 C 636.527344 101.511719 642.027344 101.511719 642.027344 105.175781 "/>
<path fill-rule="nonzero" fill="rgb(70.196078%, 70.196078%, 70.196078%)" fill-opacity="1" stroke-width="1" stroke-linecap="butt" stroke-linejoin="miter" stroke="rgb(70.196078%, 70.196078%, 70.196078%)" stroke-opacity="1" stroke-miterlimit="10" d="M 92.851562 434.710938 C 92.851562 441.175781 83.152344 441.175781 83.152344 434.710938 C 83.152344 428.242188 92.851562 428.242188 92.851562 434.710938 "/>
<path fill-rule="nonzero" fill="rgb(70.196078%, 70.196078%, 70.196078%)" fill-opacity="1" stroke-width="1" stroke-linecap="butt" stroke-linejoin="miter" stroke="rgb(70.196078%, 70.196078%, 70.196078%)" stroke-opacity="1" stroke-miterlimit="10" d="M 241.25 375.339844 C 241.25 381.804688 231.550781 381.804688 231.550781 375.339844 C 231.550781 368.871094 241.25 368.871094 241.25 375.339844 "/>
<path fill-rule="nonzero" fill="rgb(14.901961%, 14.901961%, 14.901961%)" fill-opacity="1" stroke-width="1" stroke-linecap="butt" stroke-linejoin="miter" stroke="rgb(14.901961%, 14.901961%, 14.901961%)" stroke-opacity="1" stroke-miterlimit="10" d="M 596.835938 53.75 L 600.585938 46.25 L 604.335938 53.75 Z M 596.835938 53.75 "/>
<path fill-rule="nonzero" fill="rgb(70.196078%, 70.196078%, 70.196078%)" fill-opacity="1" stroke-width="1" stroke-linecap="butt" stroke-linejoin="miter" stroke="rgb(70.196078%, 70.196078%, 70.196078%)" stroke-opacity="1" stroke-miterlimit="10" d="M 243.261719 215.519531 C 243.261719 221.984375 233.5625 221.984375 233.5625 215.519531 C 233.5625 209.054688 243.261719 209.054688 243.261719 215.519531 "/>
<path fill-rule="nonzero" fill="rgb(12.156863%, 47.058824%, 70.588235%)" fill-opacity="1" stroke-width="1" stroke-linecap="butt" stroke-linejoin="miter" stroke="rgb(12.156863%, 47.058824%, 70.588235%)" stroke-opacity="1" stroke-miterlimit="10" d="M 681.621094 173.925781 C 681.621094 177.59375 676.121094 177.59375 676.121094 173.925781 C 676.121094 170.257812 681.621094 170.257812 681.621094 173.925781 "/>
<path fill-rule="nonzero" fill="rgb(70.196078%, 70.196078%, 70.196078%)" fill-opacity="1" stroke-width="1" stroke-linecap="butt" stroke-linejoin="miter" stroke="rgb(70.196078%, 70.196078%, 70.196078%)" stroke-opacity="1" stroke-miterlimit="10" d="M 67.636719 579.882812 C 67.636719 586.351562 57.9375 586.351562 57.9375 579.882812 C 57.9375 573.417969 67.636719 573.417969 67.636719 579.882812 "/>
<path fill-rule="nonzero" fill="rgb(41.568627%, 23.921569%, 60.392157%)" fill-opacity="1" stroke-width="1" stroke-linecap="butt" stroke-linejoin="miter" stroke="rgb(41.568627%, 23.921569%, 60.392157%)" stroke-opacity="1" stroke-miterlimit="10" d="M 260.980469 716.675781 C 260.980469 720.34375 255.480469 720.34375 255.480469 716.675781 C 255.480469 713.011719 260.980469 713.011719 260.980469 716.675781 "/>
<path fill-rule="nonzero" fill="rgb(41.568627%, 23.921569%, 60.392157%)" fill-opacity="1" stroke-width="1" stroke-linecap="butt" stroke-linejoin="miter" stroke="rgb(41.568627%, 23.921569%, 60.392157%)" stroke-opacity="1" stroke-miterlimit="10" d="M 190.574219 750 C 190.574219 753.667969 185.074219 753.667969 185.074219 750 C 185.074219 746.332031 190.574219 746.332031 190.574219 750 "/>
</svg>
