<?xml version="1.0" encoding="UTF-8"?>
<svg xmlns="http://www.w3.org/2000/svg" xmlns:xlink="http://www.w3.org/1999/xlink" width="800" height="800" viewBox="0 0 800 800">
<rect x="-80" y="-80" width="960" height="960" fill="rgb(100%, 100%, 100%)" fill-opacity="1"/>
<path fill="none" stroke-width="5.5" stroke-linecap="butt" stroke-linejoin="miter" stroke="rgb(70.196078%, 70.196078%, 70.196078%)" stroke-opacity="1" stroke-miterlimit="10" d="M 231.117188 201.496094 C 243.105469 186.0625 248.390625 168.472656 243.699219 149.535156 "/>
<path fill-rule="nonzero" fill="rgb(70.196078%, 70.196078%, 70.196078%)" fill-opacity="1" d="M 241.980469 142.609375 L 245.945312 148.976562 L 241.449219 150.09375 L 241.980469 142.609375 "/>
<path fill="none" stroke-width="5.5" stroke-linecap="butt" stroke-linejoin="miter" stroke="rgb(70.196078%, 70.196078%, 70.196078%)" stroke-opacity="1" stroke-miterlimit="10" d="M 244.933594 266.347656 C 250.738281 246.070312 248.894531 226.378906 236.648438 209.242188 "/>
<path fill-rule="nonzero" fill="rgb(70.196078%, 70.196078%, 70.196078%)" fill-opacity="1" d="M 232.503906 203.4375 L 238.535156 207.894531 L 234.765625 210.585938 L 232.503906 203.4375 "/>
<path fill="none" stroke-width="5.5" stroke-linecap="butt" stroke-linejoin="miter" stroke="rgb(70.196078%, 70.196078%, 70.196078%)" stroke-opacity="1" stroke-miterlimit="10" d="M 282.816406 316.742188 C 279.800781 297.070312 270.488281 280.859375 253.210938 271.046875 "/>
<path fill-rule="nonzero" fill="rgb(70.196078%, 70.196078%, 70.196078%)" fill-opacity="1" d="M 247.007812 267.527344 L 254.355469 269.03125 L 252.066406 273.0625 L 247.007812 267.527344 "/>
<path fill="none" stroke-width="5.5" stroke-linecap="butt" stroke-linejoin="miter" stroke="rgb(70.196078%, 70.196078%, 70.196078%)" stroke-opacity="1" stroke-miterlimit="10" d="M 317.234375 373.246094 C 316.011719 352.242188 307.78125 334.3125 290.597656 322.21875 "/>
<path fill-rule="nonzero" fill="rgb(70.196078%, 70.196078%, 70.196078%)" fill-opacity="1" d="M 284.765625 318.113281 L 291.933594 320.324219 L 289.265625 324.113281 L 284.765625 318.113281 "/>
<path fill="none" stroke-width="5.5" stroke-linecap="butt" stroke-linejoin="miter" stroke="rgb(70.196078%, 70.196078%, 70.196078%)" stroke-opacity="1" stroke-miterlimit="10" d="M 324.84375 447.097656 C 333.703125 424.804688 333.710938 402.394531 321.917969 381.53125 "/>
<path fill-rule="nonzero" fill="rgb(70.196078%, 70.196078%, 70.196078%)" fill-opacity="1" d="M 318.410156 375.324219 L 323.9375 380.390625 L 319.902344 382.671875 L 318.410156 375.324219 "/>
<path fill="none" stroke-width="5.5" stroke-linecap="butt" stroke-linejoin="miter" stroke="rgb(70.196078%, 70.196078%, 70.196078%)" stroke-opacity="1" stroke-miterlimit="10" d="M 309.945312 522.699219 C 325.542969 503.140625 332.296875 480.796875 326.898438 456.394531 "/>
<path fill-rule="nonzero" fill="rgb(70.196078%, 70.196078%, 70.196078%)" fill-opacity="1" d="M 325.359375 449.429688 L 329.164062 455.894531 L 324.636719 456.894531 L 325.359375 449.429688 "/>
<path fill="none" stroke-width="5.5" stroke-linecap="butt" stroke-linejoin="miter" stroke="rgb(70.196078%, 70.196078%, 70.196078%)" stroke-opacity="1" stroke-miterlimit="10" d="M 279.496094 591.75 C 298.566406 576.46875 309.832031 556.628906 309.914062 532.21875 "/>
<path fill-rule="nonzero" fill="rgb(70.196078%, 70.196078%, 70.196078%)" fill-opacity="1" d="M 309.9375 525.085938 L 312.230469 532.226562 L 307.597656 532.210938 L 309.9375 525.085938 "/>
<path fill="none" stroke-width="5.5" stroke-linecap="butt" stroke-linejoin="miter" stroke="rgb(70.196078%, 70.196078%, 70.196078%)" stroke-opacity="1" stroke-miterlimit="10" d="M 230.875 639.988281 C 251.820312 633.625 267.902344 620.910156 275.980469 600.597656 "/>
<path fill-rule="nonzero" fill="rgb(70.196078%, 70.196078%, 70.196078%)" fill-opacity="1" d="M 278.617188 593.96875 L 278.132812 601.453125 L 273.824219 599.738281 L 278.617188 593.96875 "/>
<path fill="none" stroke-width="5.5" stroke-linecap="butt" stroke-linejoin="miter" stroke="rgb(70.196078%, 70.196078%, 70.196078%)" stroke-opacity="1" stroke-miterlimit="10" d="M 168.84375 643.871094 C 186.628906 652.054688 204.992188 653.203125 222.398438 644.316406 "/>
<path fill-rule="nonzero" fill="rgb(70.196078%, 70.196078%, 70.196078%)" fill-opacity="1" d="M 228.753906 641.074219 L 223.453125 646.378906 L 221.347656 642.253906 L 228.753906 641.074219 "/>
<path fill="none" stroke-width="5.5" stroke-linecap="butt" stroke-linejoin="miter" stroke="rgb(70.196078%, 70.196078%, 70.196078%)" stroke-opacity="1" stroke-miterlimit="10" d="M 361.359375 87.4375 C 342.097656 63.785156 317.234375 50.191406 286.75 50.046875 "/>
<path fill-rule="nonzero" fill="rgb(70.196078%, 70.196078%, 70.196078%)" fill-opacity="1" d="M 279.617188 50.011719 L 286.761719 47.726562 L 286.738281 52.363281 L 279.617188 50.011719 "/>
<path fill="none" stroke-width="5.5" stroke-linecap="butt" stroke-linejoin="miter" stroke="rgb(70.196078%, 70.196078%, 70.196078%)" stroke-opacity="1" stroke-miterlimit="10" d="M 424.269531 161.066406 C 416.582031 129.753906 398.960938 105.574219 369.9375 91.574219 "/>
<path fill-rule="nonzero" fill="rgb(70.196078%, 70.196078%, 70.196078%)" fill-opacity="1" d="M 363.511719 88.476562 L 370.945312 89.488281 L 368.929688 93.664062 L 363.511719 88.476562 "/>
<path fill="none" stroke-width="5.5" stroke-linecap="butt" stroke-linejoin="miter" stroke="rgb(70.196078%, 70.196078%, 70.196078%)" stroke-opacity="1" stroke-miterlimit="10" d="M 462.523438 258.390625 C 465.617188 223.460938 455.914062 192.453125 431.03125 167.773438 "/>
<path fill-rule="nonzero" fill="rgb(70.196078%, 70.196078%, 70.196078%)" fill-opacity="1" d="M 425.964844 162.75 L 432.660156 166.128906 L 429.398438 169.417969 L 425.964844 162.75 "/>
<path fill="none" stroke-width="5.5" stroke-linecap="butt" stroke-linejoin="miter" stroke="rgb(70.196078%, 70.196078%, 70.196078%)" stroke-opacity="1" stroke-miterlimit="10" d="M 113.082031 600.664062 C 122.460938 621.269531 137.695312 635.984375 159.613281 641.535156 "/>
<path fill-rule="nonzero" fill="rgb(70.196078%, 70.196078%, 70.196078%)" fill-opacity="1" d="M 166.527344 643.285156 L 159.046875 643.78125 L 160.183594 639.289062 L 166.527344 643.285156 "/>
<path fill="none" stroke-width="5.5" stroke-linecap="butt" stroke-linejoin="miter" stroke="rgb(70.196078%, 70.196078%, 70.196078%)" stroke-opacity="1" stroke-miterlimit="10" d="M 111.808594 145.667969 C 84.785156 167.496094 69.351562 195.742188 68.894531 230.457031 "/>
<path fill-rule="nonzero" fill="rgb(70.196078%, 70.196078%, 70.196078%)" fill-opacity="1" d="M 68.796875 237.589844 L 66.574219 230.425781 L 71.210938 230.488281 L 68.796875 237.589844 "/>
<path fill="none" stroke-width="5.5" stroke-linecap="butt" stroke-linejoin="miter" stroke="rgb(70.196078%, 70.196078%, 70.196078%)" stroke-opacity="1" stroke-miterlimit="10" d="M 73.847656 527.757812 C 74.371094 554.867188 84.253906 578.097656 105.582031 594.796875 "/>
<path fill-rule="nonzero" fill="rgb(70.196078%, 70.196078%, 70.196078%)" fill-opacity="1" d="M 111.199219 599.191406 L 104.15625 596.621094 L 107.011719 592.972656 L 111.199219 599.191406 "/>
<path fill="none" stroke-width="5.5" stroke-linecap="butt" stroke-linejoin="miter" stroke="rgb(70.196078%, 70.196078%, 70.196078%)" stroke-opacity="1" stroke-miterlimit="10" d="M 52.472656 438.441406 C 45.417969 468.027344 49.726562 495.953125 68.09375 520.171875 "/>
<path fill-rule="nonzero" fill="rgb(70.196078%, 70.196078%, 70.196078%)" fill-opacity="1" d="M 72.402344 525.855469 L 66.246094 521.570312 L 69.941406 518.769531 L 72.402344 525.855469 "/>
<path fill="none" stroke-width="5.5" stroke-linecap="butt" stroke-linejoin="miter" stroke="rgb(70.196078%, 70.196078%, 70.196078%)" stroke-opacity="1" stroke-miterlimit="10" d="M 50 340.359375 C 36.054688 369.941406 34.503906 400.246094 48.417969 429.824219 "/>
<path fill-rule="nonzero" fill="rgb(70.196078%, 70.196078%, 70.196078%)" fill-opacity="1" d="M 51.453125 436.277344 L 46.320312 430.808594 L 50.515625 428.835938 L 51.453125 436.277344 "/>
<path fill="none" stroke-width="5.5" stroke-linecap="butt" stroke-linejoin="miter" stroke="rgb(70.196078%, 70.196078%, 70.196078%)" stroke-opacity="1" stroke-miterlimit="10" d="M 68.765625 239.980469 C 48.121094 267.207031 40.042969 297.835938 47.828125 331.085938 "/>
<path fill-rule="nonzero" fill="rgb(70.196078%, 70.196078%, 70.196078%)" fill-opacity="1" d="M 49.457031 338.03125 L 45.574219 331.613281 L 50.085938 330.558594 L 49.457031 338.03125 "/>
<path fill="none" stroke-width="5.5" stroke-linecap="butt" stroke-linejoin="miter" stroke="rgb(70.196078%, 70.196078%, 70.196078%)" stroke-opacity="1" stroke-miterlimit="10" d="M 182.34375 72.003906 C 150.207031 83.484375 126.722656 104.667969 115.0625 136.71875 "/>
<path fill-rule="nonzero" fill="rgb(70.196078%, 70.196078%, 70.196078%)" fill-opacity="1" d="M 112.625 143.421875 L 112.882812 135.925781 L 117.242188 137.511719 L 112.625 143.421875 "/>
<path fill="none" stroke-width="5.5" stroke-linecap="butt" stroke-linejoin="miter" stroke="rgb(70.196078%, 70.196078%, 70.196078%)" stroke-opacity="1" stroke-miterlimit="10" d="M 477.421875 368.75 C 489.449219 333.183594 487.105469 298.511719 467.5 266.511719 "/>
<path fill-rule="nonzero" fill="rgb(70.196078%, 70.196078%, 70.196078%)" fill-opacity="1" d="M 463.773438 260.429688 L 469.476562 265.300781 L 465.523438 267.722656 L 463.773438 260.429688 "/>
<path fill="none" stroke-width="5.5" stroke-linecap="butt" stroke-linejoin="miter" stroke="rgb(70.196078%, 70.196078%, 70.196078%)" stroke-opacity="1" stroke-miterlimit="10" d="M 476.4375 483.074219 C 493.859375 448.59375 496.480469 412.953125 481.191406 377.496094 "/>
<path fill-rule="nonzero" fill="rgb(70.196078%, 70.196078%, 70.196078%)" fill-opacity="1" d="M 478.367188 370.945312 L 483.320312 376.578125 L 479.0625 378.410156 L 478.367188 370.945312 "/>
<path fill="none" stroke-width="5.5" stroke-linecap="butt" stroke-linejoin="miter" stroke="rgb(70.196078%, 70.196078%, 70.196078%)" stroke-opacity="1" stroke-miterlimit="10" d="M 472.707031 591.679688 C 490.09375 559.515625 493.566406 525.839844 479.980469 491.914062 "/>
<path fill-rule="nonzero" fill="rgb(70.196078%, 70.196078%, 70.196078%)" fill-opacity="1" d="M 477.328125 485.292969 L 482.132812 491.050781 L 477.828125 492.773438 L 477.328125 485.292969 "/>
<path fill="none" stroke-width="5.5" stroke-linecap="butt" stroke-linejoin="miter" stroke="rgb(70.196078%, 70.196078%, 70.196078%)" stroke-opacity="1" stroke-miterlimit="10" d="M 277.230469 50 C 245.695312 42.34375 215.933594 46.875 189.96875 66.296875 "/>
<path fill-rule="nonzero" fill="rgb(70.196078%, 70.196078%, 70.196078%)" fill-opacity="1" d="M 184.257812 70.570312 L 188.578125 64.441406 L 191.355469 68.152344 L 184.257812 70.570312 "/>
<path fill="none" stroke-width="5.5" stroke-linecap="butt" stroke-linejoin="miter" stroke="rgb(70.196078%, 70.196078%, 70.196078%)" stroke-opacity="1" stroke-miterlimit="10" d="M 528.976562 747.363281 C 525.058594 722.894531 513.207031 703.039062 491.734375 690.722656 "/>
<path fill-rule="nonzero" fill="rgb(70.196078%, 70.196078%, 70.196078%)" fill-opacity="1" d="M 485.550781 687.171875 L 492.890625 688.710938 L 490.582031 692.730469 L 485.550781 687.171875 "/>
<path fill="none" stroke-width="5.5" stroke-linecap="butt" stroke-linejoin="miter" stroke="rgb(70.196078%, 70.196078%, 70.196078%)" stroke-opacity="1" stroke-miterlimit="10" d="M 596.90625 750 C 578.132812 739.109375 558.035156 736.027344 537.84375 743.902344 "/>
<path fill-rule="nonzero" fill="rgb(70.196078%, 70.196078%, 70.196078%)" fill-opacity="1" d="M 531.199219 746.496094 L 537 741.742188 L 538.6875 746.0625 L 531.199219 746.496094 "/>
<path fill="none" stroke-width="5.5" stroke-linecap="butt" stroke-linejoin="miter" stroke="rgb(70.196078%, 70.196078%, 70.196078%)" stroke-opacity="1" stroke-miterlimit="10" d="M 483.476562 685.984375 C 494.398438 656.394531 493.378906 627.132812 477.503906 599.90625 "/>
<path fill-rule="nonzero" fill="rgb(70.196078%, 70.196078%, 70.196078%)" fill-opacity="1" d="M 473.910156 593.742188 L 479.503906 598.738281 L 475.5 601.074219 L 473.910156 593.742188 "/>
<path fill="none" stroke-width="5.5" stroke-linecap="butt" stroke-linejoin="miter" stroke="rgb(70.196078%, 70.196078%, 70.196078%)" stroke-opacity="1" stroke-miterlimit="10" d="M 664.621094 710.5 C 639.148438 711.785156 617.535156 721.726562 602.515625 742.308594 "/>
<path fill-rule="nonzero" fill="rgb(70.196078%, 70.196078%, 70.196078%)" fill-opacity="1" d="M 598.3125 748.070312 L 600.644531 740.941406 L 604.386719 743.675781 L 598.3125 748.070312 "/>
<path fill="none" stroke-width="5.5" stroke-linecap="butt" stroke-linejoin="miter" stroke="rgb(70.196078%, 70.196078%, 70.196078%)" stroke-opacity="1" stroke-miterlimit="10" d="M 683.085938 451.523438 C 694.847656 465.097656 709.765625 473.109375 727.667969 472.1875 "/>
<path fill-rule="nonzero" fill="rgb(70.196078%, 70.196078%, 70.196078%)" fill-opacity="1" d="M 734.792969 471.820312 L 727.789062 474.5 L 727.550781 469.871094 L 734.792969 471.820312 "/>
<path fill="none" stroke-width="5.5" stroke-linecap="butt" stroke-linejoin="miter" stroke="rgb(70.196078%, 70.196078%, 70.196078%)" stroke-opacity="1" stroke-miterlimit="10" d="M 646.097656 505.136719 C 664.457031 495.652344 677.28125 481.109375 681.253906 460.863281 "/>
<path fill-rule="nonzero" fill="rgb(70.196078%, 70.196078%, 70.196078%)" fill-opacity="1" d="M 682.625 453.863281 L 683.527344 461.308594 L 678.976562 460.417969 L 682.625 453.863281 "/>
<path fill="none" stroke-width="5.5" stroke-linecap="butt" stroke-linejoin="miter" stroke="rgb(70.196078%, 70.196078%, 70.196078%)" stroke-opacity="1" stroke-miterlimit="10" d="M 635.429688 570.648438 C 648.210938 553.835938 653.640625 534.796875 648.441406 514.359375 "/>
<path fill-rule="nonzero" fill="rgb(70.196078%, 70.196078%, 70.196078%)" fill-opacity="1" d="M 646.683594 507.445312 L 650.6875 513.789062 L 646.195312 514.929688 L 646.683594 507.445312 "/>
<path fill="none" stroke-width="5.5" stroke-linecap="butt" stroke-linejoin="miter" stroke="rgb(70.196078%, 70.196078%, 70.196078%)" stroke-opacity="1" stroke-miterlimit="10" d="M 750 553.089844 C 728.355469 574.824219 717.371094 601.113281 720.40625 631.617188 "/>
<path fill-rule="nonzero" fill="rgb(70.196078%, 70.196078%, 70.196078%)" fill-opacity="1" d="M 721.113281 638.714844 L 718.101562 631.847656 L 722.714844 631.386719 L 721.113281 638.714844 "/>
<path fill="none" stroke-width="5.5" stroke-linecap="butt" stroke-linejoin="miter" stroke="rgb(70.196078%, 70.196078%, 70.196078%)" stroke-opacity="1" stroke-miterlimit="10" d="M 721.351562 641.089844 C 694.257812 653.042969 675.109375 672.820312 667.171875 701.324219 "/>
<path fill-rule="nonzero" fill="rgb(70.196078%, 70.196078%, 70.196078%)" fill-opacity="1" d="M 665.261719 708.199219 L 664.941406 700.703125 L 669.40625 701.949219 L 665.261719 708.199219 "/>
<path fill="none" stroke-width="5.5" stroke-linecap="butt" stroke-linejoin="miter" stroke="rgb(70.196078%, 70.196078%, 70.196078%)" stroke-opacity="1" stroke-miterlimit="10" d="M 737.171875 471.695312 C 728.734375 497.308594 730.347656 522.375 744.867188 545.070312 "/>
<path fill-rule="nonzero" fill="rgb(70.196078%, 70.196078%, 70.196078%)" fill-opacity="1" d="M 748.714844 551.078125 L 742.917969 546.316406 L 746.820312 543.820312 L 748.714844 551.078125 "/>
<path fill-rule="nonzero" fill="rgb(14.901961%, 14.901961%, 14.901961%)" fill-opacity="1" stroke-width="1" stroke-linecap="butt" stroke-linejoin="miter" stroke="rgb(14.901961%, 14.901961%, 14.901961%)" stroke-opacity="1" stroke-miterlimit="10" d="M 238.90625 142.796875 L 241.40625 137.796875 L 243.90625 142.796875 Z M 238.90625 142.796875 "/>
<path fill-rule="nonzero" fill="rgb(70.196078%, 70.196078%, 70.196078%)" fill-opacity="1" stroke-width="1" stroke-linecap="butt" stroke-linejoin="miter" stroke="rgb(70.196078%, 70.196078%, 70.196078%)" stroke-opacity="1" stroke-miterlimit="10" d="M 233.617188 201.496094 C 233.617188 204.828125 228.617188 204.828125 228.617188 201.496094 C 228.617188 198.160156 233.617188 198.160156 233.617188 201.496094 "/>
<path fill-rule="nonzero" fill="rgb(70.196078%, 70.196078%, 70.196078%)" fill-opacity="1" stroke-width="1" stroke-linecap="butt" stroke-linejoin="miter" stroke="rgb(70.196078%, 70.196078%, 70.196078%)" stroke-opacity="1" stroke-miterlimit="10" d="M 247.433594 266.347656 C 247.433594 269.683594 242.433594 269.683594 242.433594 266.347656 C 242.433594 263.015625 247.433594 263.015625 247.433594 266.347656 "/>
<path fill-rule="nonzero" fill="rgb(70.196078%, 70.196078%, 70.196078%)" fill-opacity="1" stroke-width="1" stroke-linecap="butt" stroke-linejoin="miter" stroke="rgb(70.196078%, 70.196078%, 70.196078%)" stroke-opacity="1" stroke-miterlimit="10" d="M 285.316406 316.742188 C 285.316406 320.074219 280.316406 320.074219 280.316406 316.742188 C 280.316406 313.410156 285.316406 313.410156 285.316406 316.742188 "/>
<path fill-rule="nonzero" fill="rgb(70.196078%, 70.196078%, 70.196078%)" fill-opacity="1" stroke-width="1" stroke-linecap="butt" stroke-linejoin="miter" stroke="rgb(70.196078%, 70.196078%, 70.196078%)" stroke-opacity="1" stroke-miterlimit="10" d="M 319.734375 373.246094 C 319.734375 376.578125 314.734375 376.578125 314.734375 373.246094 C 314.734375 369.910156 319.734375 369.910156 319.734375 373.246094 "/>
<path fill-rule="nonzero" fill="rgb(70.196078%, 70.196078%, 70.196078%)" fill-opacity="1" stroke-width="1" stroke-linecap="butt" stroke-linejoin="miter" stroke="rgb(70.196078%, 70.196078%, 70.196078%)" stroke-opacity="1" stroke-miterlimit="10" d="M 327.34375 447.097656 C 327.34375 450.433594 322.34375 450.433594 322.34375 447.097656 C 322.34375 443.765625 327.34375 443.765625 327.34375 447.097656 "/>
<path fill-rule="nonzero" fill="rgb(70.196078%, 70.196078%, 70.196078%)" fill-opacity="1" stroke-width="1" stroke-linecap="butt" stroke-linejoin="miter" stroke="rgb(70.196078%, 70.196078%, 70.196078%)" stroke-opacity="1" stroke-miterlimit="10" d="M 312.445312 522.699219 C 312.445312 526.03125 307.445312 526.03125 307.445312 522.699219 C 307.445312 519.363281 312.445312 519.363281 312.445312 522.699219 "/>
<path fill-rule="nonzero" fill="rgb(70.196078%, 70.196078%, 70.196078%)" fill-opacity="1" stroke-width="1" stroke-linecap="butt" stroke-linejoin="miter" stroke="rgb(70.196078%, 70.196078%, 70.196078%)" stroke-opacity="1" stroke-miterlimit="10" d="M 281.996094 591.75 C 281.996094 595.085938 276.996094 595.085938 276.996094 591.75 C 276.996094 588.417969 281.996094 588.417969 281.996094 591.75 "/>
<path fill-rule="nonzero" fill="rgb(70.196078%, 70.196078%, 70.196078%)" fill-opacity="1" stroke-width="1" stroke-linecap="butt" stroke-linejoin="miter" stroke="rgb(70.196078%, 70.196078%, 70.196078%)" stroke-opacity="1" stroke-miterlimit="10" d="M 233.375 639.988281 C 233.375 643.320312 228.375 643.320312 228.375 639.988281 C 228.375 636.65625 233.375 636.65625 233.375 639.988281 "/>
<path fill-rule="nonzero" fill="rgb(70.196078%, 70.196078%, 70.196078%)" fill-opacity="1" stroke-width="1" stroke-linecap="butt" stroke-linejoin="miter" stroke="rgb(70.196078%, 70.196078%, 70.196078%)" stroke-opacity="1" stroke-miterlimit="10" d="M 171.34375 643.871094 C 171.34375 647.203125 166.34375 647.203125 166.34375 643.871094 C 166.34375 640.539062 171.34375 640.539062 171.34375 643.871094 "/>
<path fill-rule="nonzero" fill="rgb(70.196078%, 70.196078%, 70.196078%)" fill-opacity="1" stroke-width="1" stroke-linecap="butt" stroke-linejoin="miter" stroke="rgb(70.196078%, 70.196078%, 70.196078%)" stroke-opacity="1" stroke-miterlimit="10" d="M 363.859375 87.4375 C 363.859375 90.773438 358.859375 90.773438 358.859375 87.4375 C 358.859375 84.105469 363.859375 84.105469 363.859375 87.4375 "/>
<path fill-rule="nonzero" fill="rgb(70.196078%, 70.196078%, 70.196078%)" fill-opacity="1" stroke-width="1" stroke-linecap="butt" stroke-linejoin="miter" stroke="rgb(70.196078%, 70.196078%, 70.196078%)" stroke-opacity="1" stroke-miterlimit="10" d="M 426.769531 161.066406 C 426.769531 164.402344 421.769531 164.402344 421.769531 161.066406 C 421.769531 157.734375 426.769531 157.734375 426.769531 161.066406 "/>
<path fill-rule="nonzero" fill="rgb(70.196078%, 70.196078%, 70.196078%)" fill-opacity="1" stroke-width="1" stroke-linecap="butt" stroke-linejoin="miter" stroke="rgb(70.196078%, 70.196078%, 70.196078%)" stroke-opacity="1" stroke-miterlimit="10" d="M 465.023438 258.390625 C 465.023438 261.726562 460.023438 261.726562 460.023438 258.390625 C 460.023438 255.058594 465.023438 255.058594 465.023438 258.390625 "/>
<path fill-rule="nonzero" fill="rgb(70.196078%, 70.196078%, 70.196078%)" fill-opacity="1" stroke-width="1" stroke-linecap="butt" stroke-linejoin="miter" stroke="rgb(70.196078%, 70.196078%, 70.196078%)" stroke-opacity="1" stroke-miterlimit="10" d="M 115.582031 600.664062 C 115.582031 604 110.582031 604 110.582031 600.664062 C 110.582031 597.332031 115.582031 597.332031 115.582031 600.664062 "/>
<path fill-rule="nonzero" fill="rgb(70.196078%, 70.196078%, 70.196078%)" fill-opacity="1" stroke-width="1" stroke-linecap="butt" stroke-linejoin="miter" stroke="rgb(70.196078%, 70.196078%, 70.196078%)" stroke-opacity="1" stroke-miterlimit="10" d="M 114.308594 145.667969 C 114.308594 149 109.308594 149 109.308594 145.667969 C 109.308594 142.335938 114.308594 142.335938 114.308594 145.667969 "/>
<path fill-rule="nonzero" fill="rgb(70.196078%, 70.196078%, 70.196078%)" fill-opacity="1" stroke-width="1" stroke-linecap="butt" stroke-linejoin="miter" stroke="rgb(70.196078%, 70.196078%, 70.196078%)" stroke-opacity="1" stroke-miterlimit="10" d="M 76.347656 527.757812 C 76.347656 531.09375 71.347656 531.09375 71.347656 527.757812 C 71.347656 524.425781 76.347656 524.425781 76.347656 527.757812 "/>
<path fill-rule="nonzero" fill="rgb(70.196078%, 70.196078%, 70.196078%)" fill-opacity="1" stroke-width="1" stroke-linecap="butt" stroke-linejoin="miter" stroke="rgb(70.196078%, 70.196078%, 70.196078%)" stroke-opacity="1" stroke-miterlimit="10" d="M 54.972656 438.441406 C 54.972656 441.773438 49.972656 441.773438 49.972656 438.441406 C 49.972656 435.105469 54.972656 435.105469 54.972656 438.441406 "/>
<path fill-rule="nonzero" fill="rgb(70.196078%, 70.196078%, 70.196078%)" fill-opacity="1" stroke-width="1" stroke-linecap="butt" stroke-linejoin="miter" stroke="rgb(70.196078%, 70.196078%, 70.196078%)" stroke-opacity="1" stroke-miterlimit="10" d="M 52.5 340.359375 C 52.5 343.691406 47.5 343.691406 47.5 340.359375 C 47.5 337.027344 52.5 337.027344 52.5 340.359375 "/>
<path fill-rule="nonzero" fill="rgb(70.196078%, 70.196078%, 70.196078%)" fill-opacity="1" stroke-width="1" stroke-linecap="butt" stroke-linejoin="miter" stroke="rgb(70.196078%, 70.196078%, 70.196078%)" stroke-opacity="1" stroke-miterlimit="10" d="M 71.265625 239.980469 C 71.265625 243.3125 66.265625 243.3125 66.265625 239.980469 C 66.265625 236.648438 71.265625 236.648438 71.265625 239.980469 "/>
<path fill-rule="nonzero" fill="rgb(70.196078%, 70.196078%, 70.196078%)" fill-opacity="1" stroke-width="1" stroke-linecap="butt" stroke-linejoin="miter" stroke="rgb(70.196078%, 70.196078%, 70.196078%)" stroke-opacity="1" stroke-miterlimit="10" d="M 184.84375 72.003906 C 184.84375 75.335938 179.84375 75.335938 179.84375 72.003906 C 179.84375 68.667969 184.84375 68.667969 184.84375 72.003906 "/>
<path fill-rule="nonzero" fill="rgb(70.196078%, 70.196078%, 70.196078%)" fill-opacity="1" stroke-width="1" stroke-linecap="butt" stroke-linejoin="miter" stroke="rgb(70.196078%, 70.196078%, 70.196078%)" stroke-opacity="1" stroke-miterlimit="10" d="M 479.921875 368.75 C 479.921875 372.082031 474.921875 372.082031 474.921875 368.75 C 474.921875 365.414062 479.921875 365.414062 479.921875 368.75 "/>
<path fill-rule="nonzero" fill="rgb(70.196078%, 70.196078%, 70.196078%)" fill-opacity="1" stroke-width="1" stroke-linecap="butt" stroke-linejoin="miter" stroke="rgb(70.196078%, 70.196078%, 70.196078%)" stroke-opacity="1" stroke-miterlimit="10" d="M 478.9375 483.074219 C 478.9375 486.40625 473.9375 486.40625 473.9375 483.074219 C 473.9375 479.738281 478.9375 479.738281 478.9375 483.074219 "/>
<path fill-rule="nonzero" fill="rgb(70.196078%, 70.196078%, 70.196078%)" fill-opacity="1" stroke-width="1" stroke-linecap="butt" stroke-linejoin="miter" stroke="rgb(70.196078%, 70.196078%, 70.196078%)" stroke-opacity="1" stroke-miterlimit="10" d="M 475.207031 591.679688 C 475.207031 595.011719 470.207031 595.011719 470.207031 591.679688 C 470.207031 588.347656 475.207031 588.347656 475.207031 591.679688 "/>
<path fill-rule="nonzero" fill="rgb(70.196078%, 70.196078%, 70.196078%)" fill-opacity="1" stroke-width="1" stroke-linecap="butt" stroke-linejoin="miter" stroke="rgb(70.196078%, 70.196078%, 70.196078%)" stroke-opacity="1" stroke-miterlimit="10" d="M 279.730469 50 C 279.730469 53.332031 274.730469 53.332031 274.730469 50 C 274.730469 46.667969 279.730469 46.667969 279.730469 50 "/>
<path fill-rule="nonzero" fill="rgb(70.196078%, 70.196078%, 70.196078%)" fill-opacity="1" stroke-width="1" stroke-linecap="butt" stroke-linejoin="miter" stroke="rgb(70.196078%, 70.196078%, 70.196078%)" stroke-opacity="1" stroke-miterlimit="10" d="M 531.476562 747.363281 C 531.476562 750.695312 526.476562 750.695312 526.476562 747.363281 C 526.476562 744.027344 531.476562 744.027344 531.476562 747.363281 "/>
<path fill-rule="nonzero" fill="rgb(70.196078%, 70.196078%, 70.196078%)" fill-opacity="1" stroke-width="1" stroke-linecap="butt" stroke-linejoin="miter" stroke="rgb(70.196078%, 70.196078%, 70.196078%)" stroke-opacity="1" stroke-miterlimit="10" d="M 599.40625 750 C 599.40625 753.332031 594.40625 753.332031 594.40625 750 C 594.40625 746.667969 599.40625 746.667969 599.40625 750 "/>
<path fill-rule="nonzero" fill="rgb(70.196078%, 70.196078%, 70.196078%)" fill-opacity="1" stroke-width="1" stroke-linecap="butt" stroke-linejoin="miter" stroke="rgb(70.196078%, 70.196078%, 70.196078%)" stroke-opacity="1" stroke-miterlimit="10" d="M 485.976562 685.984375 C 485.976562 689.316406 480.976562 689.316406 480.976562 685.984375 C 480.976562 682.652344 485.976562 682.652344 485.976562 685.984375 "/>
<path fill-rule="nonzero" fill="rgb(70.196078%, 70.196078%, 70.196078%)" fill-opacity="1" stroke-width="1" stroke-linecap="butt" stroke-linejoin="miter" stroke="rgb(70.196078%, 70.196078%, 70.196078%)" stroke-opacity="1" stroke-miterlimit="10" d="M 667.121094 710.5 C 667.121094 713.832031 662.121094 713.832031 662.121094 710.5 C 662.121094 707.164062 667.121094 707.164062 667.121094 710.5 "/>
<path fill-rule="nonzero" fill="rgb(70.196078%, 70.196078%, 70.196078%)" fill-opacity="1" stroke-width="1" stroke-linecap="butt" stroke-linejoin="miter" stroke="rgb(70.196078%, 70.196078%, 70.196078%)" stroke-opacity="1" stroke-miterlimit="10" d="M 685.585938 451.523438 C 685.585938 454.855469 680.585938 454.855469 680.585938 451.523438 C 680.585938 448.1875 685.585938 448.1875 685.585938 451.523438 "/>
<path fill-rule="nonzero" fill="rgb(70.196078%, 70.196078%, 70.196078%)" fill-opacity="1" stroke-width="1" stroke-linecap="butt" stroke-linejoin="miter" stroke="rgb(70.196078%, 70.196078%, 70.196078%)" stroke-opacity="1" stroke-miterlimit="10" d="M 648.597656 505.136719 C 648.597656 508.46875 643.597656 508.46875 643.597656 505.136719 C 643.597656 501.800781 648.597656 501.800781 648.597656 505.136719 "/>
<path fill-rule="nonzero" fill="rgb(100%, 84.313725%, 0%)" fill-opacity="1" stroke-width="1" stroke-linecap="butt" stroke-linejoin="miter" stroke="rgb(100%, 84.313725%, 0%)" stroke-opacity="1" stroke-miterlimit="10" d="M 632.929688 568.148438 L 637.929688 568.148438 L 637.929688 573.148438 L 632.929688 573.148438 Z M 632.929688 568.148438 "/>
<path fill-rule="nonzero" fill="rgb(70.196078%, 70.196078%, 70.196078%)" fill-opacity="1" stroke-width="1" stroke-linecap="butt" stroke-linejoin="miter" stroke="rgb(70.196078%, 70.196078%, 70.196078%)" stroke-opacity="1" stroke-miterlimit="10" d="M 752.5 553.089844 C 752.5 556.421875 747.5 556.421875 747.5 553.089844 C 747.5 549.753906 752.5 549.753906 752.5 553.089844 "/>
<path fill-rule="nonzero" fill="rgb(70.196078%, 70.196078%, 70.196078%)" fill-opacity="1" stroke-width="1" stroke-linecap="butt" stroke-linejoin="miter" stroke="rgb(70.196078%, 70.196078%, 70.196078%)" stroke-opacity="1" stroke-miterlimit="10" d="M 723.851562 641.089844 C 723.851562 644.425781 718.851562 644.425781 718.851562 641.089844 C 718.851562 637.757812 723.851562 637.757812 723.851562 641.089844 "/>
<path fill-rule="nonzero" fill="rgb(70.196078%, 70.196078%, 70.196078%)" fill-opacity="1" stroke-width="1" stroke-linecap="butt" stroke-linejoin="miter" stroke="rgb(70.196078%, 70.196078%, 70.196078%)" stroke-opacity="1" stroke-miterlimit="10" d="M 739.671875 471.695312 C 739.671875 475.027344 734.671875 475.027344 734.671875 471.695312 C 734.671875 468.363281 739.671875 468.363281 739.671875 471.695312 "/>
</svg>
