<?xml version="1.0" encoding="UTF-8"?>
<svg xmlns="http://www.w3.org/2000/svg" xmlns:xlink="http://www.w3.org/1999/xlink" width="800" height="800" viewBox="0 0 800 800">
<rect x="-80" y="-80" width="960" height="960" fill="rgb(100%, 100%, 100%)" fill-opacity="1"/>
<path fill="none" stroke-width="4.5" stroke-linecap="butt" stroke-linejoin="miter" stroke="rgb(70.196078%, 70.196078%, 70.196078%)" stroke-opacity="1" stroke-miterlimit="10" d="M 619.910156 490.914062 C 631.339844 469.648438 633.984375 447.21875 624.550781 425.03125 "/>
<path fill-rule="nonzero" fill="rgb(70.196078%, 70.196078%, 70.196078%)" fill-opacity="1" d="M 621.757812 418.464844 L 626.683594 424.121094 L 622.417969 425.9375 L 621.757812 418.464844 "/>
<path fill="none" stroke-width="4.5" stroke-linecap="butt" stroke-linejoin="miter" stroke="rgb(70.196078%, 70.196078%, 70.196078%)" stroke-opacity="1" stroke-miterlimit="10" d="M 660.277344 548.367188 C 657.886719 526.832031 648.464844 508.816406 630.136719 497.324219 "/>
<path fill-rule="nonzero" fill="rgb(70.196078%, 70.196078%, 70.196078%)" fill-opacity="1" d="M 624.089844 493.535156 L 631.367188 495.359375 L 628.902344 499.289062 L 624.089844 493.535156 "/>
<path fill="none" stroke-width="4.5" stroke-linecap="butt" stroke-linejoin="miter" stroke="rgb(70.196078%, 70.196078%, 70.196078%)" stroke-opacity="1" stroke-miterlimit="10" d="M 709.894531 591.363281 C 703.058594 572.5625 690.710938 558.367188 671.738281 552.132812 "/>
<path fill-rule="nonzero" fill="rgb(70.196078%, 70.196078%, 70.196078%)" fill-opacity="1" d="M 664.960938 549.90625 L 672.460938 549.929688 L 671.015625 554.335938 L 664.960938 549.90625 "/>
<path fill="none" stroke-width="1.5" stroke-linecap="butt" stroke-linejoin="miter" stroke="rgb(12.156863%, 47.058824%, 70.588235%)" stroke-opacity="1" stroke-miterlimit="10" d="M 709.894531 591.363281 C 730.648438 564.871094 739.101562 534.832031 731.929688 501.96875 "/>
<path fill-rule="nonzero" fill="rgb(12.156863%, 47.058824%, 70.588235%)" fill-opacity="1" d="M 730.410156 495 L 734.195312 501.472656 L 729.667969 502.460938 L 730.410156 495 "/>
<path fill="none" stroke-width="4.5" stroke-linecap="butt" stroke-linejoin="miter" stroke="rgb(70.196078%, 70.196078%, 70.196078%)" stroke-opacity="1" stroke-miterlimit="10" d="M 750 653.523438 C 748.347656 630.710938 739.109375 611.375 720.265625 598.46875 "/>
<path fill-rule="nonzero" fill="rgb(70.196078%, 70.196078%, 70.196078%)" fill-opacity="1" d="M 714.378906 594.4375 L 721.574219 596.558594 L 718.957031 600.382812 L 714.378906 594.4375 "/>
<path fill="none" stroke-width="1.5" stroke-linecap="butt" stroke-linejoin="miter" stroke="rgb(12.156863%, 47.058824%, 70.588235%)" stroke-opacity="1" stroke-miterlimit="10" d="M 662.800781 656.085938 C 685.5 645.128906 701.433594 627.789062 707.128906 603.265625 "/>
<path fill-rule="nonzero" fill="rgb(12.156863%, 47.058824%, 70.588235%)" fill-opacity="1" d="M 708.742188 596.316406 L 709.386719 603.789062 L 704.871094 602.742188 L 708.742188 596.316406 "/>
<path fill="none" stroke-width="5.5" stroke-linecap="butt" stroke-linejoin="miter" stroke="rgb(70.196078%, 70.196078%, 70.196078%)" stroke-opacity="1" stroke-miterlimit="10" d="M 619.628906 413.457031 C 615.285156 389.199219 603.160156 369.621094 581.5625 357.816406 "/>
<path fill-rule="nonzero" fill="rgb(70.196078%, 70.196078%, 70.196078%)" fill-opacity="1" d="M 575.300781 354.398438 L 582.671875 355.785156 L 580.449219 359.851562 L 575.300781 354.398438 "/>
<path fill="none" stroke-width="1.5" stroke-linecap="butt" stroke-linejoin="miter" stroke="rgb(12.156863%, 47.058824%, 70.588235%)" stroke-opacity="1" stroke-miterlimit="10" d="M 50.285156 677.605469 C 67.46875 678.304688 82.949219 673.226562 93.941406 660.054688 "/>
<path fill-rule="nonzero" fill="rgb(12.156863%, 47.058824%, 70.588235%)" fill-opacity="1" d="M 98.511719 654.578125 L 95.722656 661.539062 L 92.164062 658.570312 L 98.511719 654.578125 "/>
<path fill="none" stroke-width="1.5" stroke-linecap="butt" stroke-linejoin="miter" stroke="rgb(12.156863%, 47.058824%, 70.588235%)" stroke-opacity="1" stroke-miterlimit="10" d="M 729.851562 492.429688 C 729.386719 465.808594 719.738281 442.949219 698.804688 426.53125 "/>
<path fill-rule="nonzero" fill="rgb(12.156863%, 47.058824%, 70.588235%)" fill-opacity="1" d="M 693.195312 422.128906 L 700.238281 424.707031 L 697.375 428.355469 L 693.195312 422.128906 "/>
<path fill="none" stroke-width="1.5" stroke-linecap="butt" stroke-linejoin="miter" stroke="rgb(12.156863%, 47.058824%, 70.588235%)" stroke-opacity="1" stroke-miterlimit="10" d="M 691.128906 420.507812 C 672.910156 408.003906 652.734375 403.285156 631.644531 409.765625 "/>
<path fill-rule="nonzero" fill="rgb(12.156863%, 47.058824%, 70.588235%)" fill-opacity="1" d="M 624.828125 411.859375 L 630.964844 407.550781 L 632.328125 411.980469 L 624.828125 411.859375 "/>
<path fill="none" stroke-width="1.5" stroke-linecap="butt" stroke-linejoin="miter" stroke="rgb(12.156863%, 47.058824%, 70.588235%)" stroke-opacity="1" stroke-miterlimit="10" d="M 63.019531 372.308594 C 66.53125 394.832031 77.273438 413.320312 97.066406 424.5625 "/>
<path fill-rule="nonzero" fill="rgb(12.156863%, 47.058824%, 70.588235%)" fill-opacity="1" d="M 103.269531 428.082031 L 95.921875 426.578125 L 98.210938 422.546875 L 103.269531 428.082031 "/>
<path fill="none" stroke-width="1.5" stroke-linecap="butt" stroke-linejoin="miter" stroke="rgb(12.156863%, 47.058824%, 70.588235%)" stroke-opacity="1" stroke-miterlimit="10" d="M 282.667969 558.59375 C 297.441406 551.515625 308.238281 540.34375 311.574219 524.347656 "/>
<path fill-rule="nonzero" fill="rgb(12.156863%, 47.058824%, 70.588235%)" fill-opacity="1" d="M 313.03125 517.367188 L 313.84375 524.820312 L 309.304688 523.875 L 313.03125 517.367188 "/>
<path fill="none" stroke-width="5.5" stroke-linecap="butt" stroke-linejoin="miter" stroke="rgb(70.196078%, 70.196078%, 70.196078%)" stroke-opacity="1" stroke-miterlimit="10" d="M 557.222656 50 C 533.066406 46.28125 510.796875 51.363281 492.792969 67.839844 "/>
<path fill-rule="nonzero" fill="rgb(70.196078%, 70.196078%, 70.196078%)" fill-opacity="1" d="M 487.527344 72.65625 L 491.226562 66.132812 L 494.355469 69.550781 L 487.527344 72.65625 "/>
<path fill="none" stroke-width="1.5" stroke-linecap="butt" stroke-linejoin="miter" stroke="rgb(12.156863%, 47.058824%, 70.588235%)" stroke-opacity="1" stroke-miterlimit="10" d="M 314.140625 512.058594 C 298.714844 519.929688 287.71875 532.035156 284.492188 549.011719 "/>
<path fill-rule="nonzero" fill="rgb(12.156863%, 47.058824%, 70.588235%)" fill-opacity="1" d="M 283.15625 556.019531 L 282.214844 548.582031 L 286.765625 549.445312 L 283.15625 556.019531 "/>
<path fill="none" stroke-width="5.5" stroke-linecap="butt" stroke-linejoin="miter" stroke="rgb(70.196078%, 70.196078%, 70.196078%)" stroke-opacity="1" stroke-miterlimit="10" d="M 314.140625 512.058594 C 321.8125 533.65625 335.886719 549.875 357.527344 557.328125 "/>
<path fill-rule="nonzero" fill="rgb(70.196078%, 70.196078%, 70.196078%)" fill-opacity="1" d="M 364.269531 559.648438 L 356.769531 559.519531 L 358.28125 555.136719 L 364.269531 559.648438 "/>
<path fill="none" stroke-width="5.5" stroke-linecap="butt" stroke-linejoin="miter" stroke="rgb(70.196078%, 70.196078%, 70.196078%)" stroke-opacity="1" stroke-miterlimit="10" d="M 357.96875 361.109375 C 322.011719 400.566406 305.695312 446.992188 312.5625 499.921875 "/>
<path fill-rule="nonzero" fill="rgb(70.196078%, 70.196078%, 70.196078%)" fill-opacity="1" d="M 313.480469 506.996094 L 310.265625 500.21875 L 314.863281 499.621094 L 313.480469 506.996094 "/>
<path fill="none" stroke-width="5.5" stroke-linecap="butt" stroke-linejoin="miter" stroke="rgb(70.196078%, 70.196078%, 70.196078%)" stroke-opacity="1" stroke-miterlimit="10" d="M 385.355469 240.636719 C 359.164062 272.507812 348.148438 309.03125 355.789062 349.550781 "/>
<path fill-rule="nonzero" fill="rgb(70.196078%, 70.196078%, 70.196078%)" fill-opacity="1" d="M 357.113281 356.5625 L 353.511719 349.980469 L 358.066406 349.121094 L 357.113281 356.5625 "/>
<path fill="none" stroke-width="5.5" stroke-linecap="butt" stroke-linejoin="miter" stroke="rgb(70.196078%, 70.196078%, 70.196078%)" stroke-opacity="1" stroke-miterlimit="10" d="M 424.453125 143.226562 C 398.46875 165.867188 384.15625 194.453125 385.050781 228.886719 "/>
<path fill-rule="nonzero" fill="rgb(70.196078%, 70.196078%, 70.196078%)" fill-opacity="1" d="M 385.234375 236.015625 L 382.734375 228.945312 L 387.367188 228.824219 L 385.234375 236.015625 "/>
<path fill="none" stroke-width="5.5" stroke-linecap="butt" stroke-linejoin="miter" stroke="rgb(70.196078%, 70.196078%, 70.196078%)" stroke-opacity="1" stroke-miterlimit="10" d="M 484.128906 75.769531 C 457.019531 86.136719 437.238281 104.535156 428.140625 132.070312 "/>
<path fill-rule="nonzero" fill="rgb(70.196078%, 70.196078%, 70.196078%)" fill-opacity="1" d="M 425.902344 138.839844 L 425.9375 131.339844 L 430.339844 132.796875 L 425.902344 138.839844 "/>
<path fill="none" stroke-width="1.5" stroke-linecap="butt" stroke-linejoin="miter" stroke="rgb(12.156863%, 47.058824%, 70.588235%)" stroke-opacity="1" stroke-miterlimit="10" d="M 171.214844 699.195312 C 159.730469 675.40625 141.554688 658.738281 115.859375 652.738281 "/>
<path fill-rule="nonzero" fill="rgb(12.156863%, 47.058824%, 70.588235%)" fill-opacity="1" d="M 108.914062 651.113281 L 116.386719 650.480469 L 115.332031 654.992188 L 108.914062 651.113281 "/>
<path fill="none" stroke-width="5.5" stroke-linecap="butt" stroke-linejoin="miter" stroke="rgb(70.196078%, 70.196078%, 70.196078%)" stroke-opacity="1" stroke-miterlimit="10" d="M 637.871094 150.105469 C 644.347656 127.9375 642.398438 106.402344 629.136719 87.53125 "/>
<path fill-rule="nonzero" fill="rgb(70.196078%, 70.196078%, 70.196078%)" fill-opacity="1" d="M 625.035156 81.691406 L 631.035156 86.195312 L 627.242188 88.863281 L 625.035156 81.691406 "/>
<path fill="none" stroke-width="5.5" stroke-linecap="butt" stroke-linejoin="miter" stroke="rgb(70.196078%, 70.196078%, 70.196078%)" stroke-opacity="1" stroke-miterlimit="10" d="M 622.386719 77.921875 C 608.757812 60.617188 590.957031 50.152344 568.960938 50.054688 "/>
<path fill-rule="nonzero" fill="rgb(70.196078%, 70.196078%, 70.196078%)" fill-opacity="1" d="M 561.828125 50.019531 L 568.972656 47.734375 L 568.949219 52.371094 L 561.828125 50.019531 "/>
<path fill="none" stroke-width="1.5" stroke-linecap="butt" stroke-linejoin="miter" stroke="rgb(12.156863%, 47.058824%, 70.588235%)" stroke-opacity="1" stroke-miterlimit="10" d="M 403.308594 510.699219 C 394.148438 490.570312 379.285156 476.101562 357.855469 470.761719 "/>
<path fill-rule="nonzero" fill="rgb(12.156863%, 47.058824%, 70.588235%)" fill-opacity="1" d="M 350.933594 469.039062 L 358.417969 468.515625 L 357.296875 473.011719 L 350.933594 469.039062 "/>
<path fill="none" stroke-width="1.5" stroke-linecap="butt" stroke-linejoin="miter" stroke="rgb(12.156863%, 47.058824%, 70.588235%)" stroke-opacity="1" stroke-miterlimit="10" d="M 98.226562 707.296875 C 107.773438 693.660156 111.753906 678.386719 106.730469 662.566406 "/>
<path fill-rule="nonzero" fill="rgb(12.156863%, 47.058824%, 70.588235%)" fill-opacity="1" d="M 104.570312 655.765625 L 108.9375 661.863281 L 104.519531 663.265625 L 104.570312 655.765625 "/>
<path fill="none" stroke-width="1.5" stroke-linecap="butt" stroke-linejoin="miter" stroke="rgb(12.156863%, 47.058824%, 70.588235%)" stroke-opacity="1" stroke-miterlimit="10" d="M 385.347656 623.585938 C 390.371094 604.953125 388.523438 586.867188 376.957031 571.464844 "/>
<path fill-rule="nonzero" fill="rgb(12.156863%, 47.058824%, 70.588235%)" fill-opacity="1" d="M 372.671875 565.761719 L 378.8125 570.074219 L 375.105469 572.859375 L 372.671875 565.761719 "/>
<path fill="none" stroke-width="1.5" stroke-linecap="butt" stroke-linejoin="miter" stroke="rgb(12.156863%, 47.058824%, 70.588235%)" stroke-opacity="1" stroke-miterlimit="10" d="M 102.628906 649.648438 C 84.15625 649.484375 67.847656 655.554688 56.363281 669.976562 "/>
<path fill-rule="nonzero" fill="rgb(12.156863%, 47.058824%, 70.588235%)" fill-opacity="1" d="M 51.917969 675.558594 L 54.550781 668.535156 L 58.175781 671.421875 L 51.917969 675.558594 "/>
<path fill="none" stroke-width="1.5" stroke-linecap="butt" stroke-linejoin="miter" stroke="rgb(12.156863%, 47.058824%, 70.588235%)" stroke-opacity="1" stroke-miterlimit="10" d="M 102.628906 649.648438 C 92.839844 664.652344 89.25 681.164062 95.058594 698.070312 "/>
<path fill-rule="nonzero" fill="rgb(12.156863%, 47.058824%, 70.588235%)" fill-opacity="1" d="M 97.375 704.816406 L 92.867188 698.824219 L 97.25 697.316406 L 97.375 704.816406 "/>
<path fill="none" stroke-width="5.5" stroke-linecap="butt" stroke-linejoin="miter" stroke="rgb(70.196078%, 70.196078%, 70.196078%)" stroke-opacity="1" stroke-miterlimit="10" d="M 102.628906 649.648438 C 95.542969 629.53125 82.511719 614.320312 62.363281 607.417969 "/>
<path fill-rule="nonzero" fill="rgb(70.196078%, 70.196078%, 70.196078%)" fill-opacity="1" d="M 55.617188 605.105469 L 63.117188 605.222656 L 61.613281 609.609375 L 55.617188 605.105469 "/>
<path fill="none" stroke-width="1.5" stroke-linecap="butt" stroke-linejoin="miter" stroke="rgb(12.156863%, 47.058824%, 70.588235%)" stroke-opacity="1" stroke-miterlimit="10" d="M 102.628906 649.648438 C 101.53125 686.789062 113.769531 718.933594 141.589844 743.535156 "/>
<path fill-rule="nonzero" fill="rgb(12.156863%, 47.058824%, 70.588235%)" fill-opacity="1" d="M 146.933594 748.257812 L 140.054688 745.269531 L 143.125 741.796875 L 146.933594 748.257812 "/>
<path fill="none" stroke-width="1.5" stroke-linecap="butt" stroke-linejoin="miter" stroke="rgb(12.156863%, 47.058824%, 70.588235%)" stroke-opacity="1" stroke-miterlimit="10" d="M 109.742188 431.761719 C 105.257812 407.765625 93.085938 388.492188 71.613281 376.933594 "/>
<path fill-rule="nonzero" fill="rgb(12.156863%, 47.058824%, 70.588235%)" fill-opacity="1" d="M 65.332031 373.550781 L 72.710938 374.890625 L 70.515625 378.972656 L 65.332031 373.550781 "/>
<path fill="none" stroke-width="5.5" stroke-linecap="butt" stroke-linejoin="miter" stroke="rgb(70.196078%, 70.196078%, 70.196078%)" stroke-opacity="1" stroke-miterlimit="10" d="M 109.742188 431.761719 C 74.894531 498.5 69.757812 567.496094 97.726562 637.390625 "/>
<path fill-rule="nonzero" fill="rgb(70.196078%, 70.196078%, 70.196078%)" fill-opacity="1" d="M 100.375 644.015625 L 95.574219 638.253906 L 99.875 636.53125 L 100.375 644.015625 "/>
<path fill="none" stroke-width="1.5" stroke-linecap="butt" stroke-linejoin="miter" stroke="rgb(12.156863%, 47.058824%, 70.588235%)" stroke-opacity="1" stroke-miterlimit="10" d="M 109.742188 431.761719 C 93.019531 425.191406 76.078125 425.011719 60.644531 434.148438 "/>
<path fill-rule="nonzero" fill="rgb(12.156863%, 47.058824%, 70.588235%)" fill-opacity="1" d="M 54.507812 437.78125 L 59.464844 432.152344 L 61.824219 436.140625 L 54.507812 437.78125 "/>
<path fill="none" stroke-width="1.5" stroke-linecap="butt" stroke-linejoin="miter" stroke="rgb(12.156863%, 47.058824%, 70.588235%)" stroke-opacity="1" stroke-miterlimit="10" d="M 109.742188 431.761719 C 101.488281 445.816406 98.835938 461.023438 104.933594 476.097656 "/>
<path fill-rule="nonzero" fill="rgb(12.156863%, 47.058824%, 70.588235%)" fill-opacity="1" d="M 107.609375 482.710938 L 102.785156 476.96875 L 107.082031 475.230469 L 107.609375 482.710938 "/>
<path fill="none" stroke-width="1.5" stroke-linecap="butt" stroke-linejoin="miter" stroke="rgb(12.156863%, 47.058824%, 70.588235%)" stroke-opacity="1" stroke-miterlimit="10" d="M 109.742188 431.761719 C 121.09375 414.785156 125.257812 396.070312 119 376.664062 "/>
<path fill-rule="nonzero" fill="rgb(12.156863%, 47.058824%, 70.588235%)" fill-opacity="1" d="M 116.8125 369.875 L 121.207031 375.953125 L 116.792969 377.375 L 116.8125 369.875 "/>
<path fill="none" stroke-width="1.5" stroke-linecap="butt" stroke-linejoin="miter" stroke="rgb(12.156863%, 47.058824%, 70.588235%)" stroke-opacity="1" stroke-miterlimit="10" d="M 52.253906 439.117188 C 67.21875 445.722656 82.730469 446.683594 97.011719 438.792969 "/>
<path fill-rule="nonzero" fill="rgb(12.156863%, 47.058824%, 70.588235%)" fill-opacity="1" d="M 103.253906 435.34375 L 98.132812 440.824219 L 95.890625 436.765625 L 103.253906 435.34375 "/>
<path fill="none" stroke-width="1.5" stroke-linecap="butt" stroke-linejoin="miter" stroke="rgb(12.156863%, 47.058824%, 70.588235%)" stroke-opacity="1" stroke-miterlimit="10" d="M 108.589844 485.140625 C 116.605469 472.820312 119.800781 459.152344 114.753906 445.402344 "/>
<path fill-rule="nonzero" fill="rgb(12.156863%, 47.058824%, 70.588235%)" fill-opacity="1" d="M 112.292969 438.707031 L 116.929688 444.605469 L 112.578125 446.203125 L 112.292969 438.707031 "/>
<path fill="none" stroke-width="1.5" stroke-linecap="butt" stroke-linejoin="miter" stroke="rgb(12.156863%, 47.058824%, 70.588235%)" stroke-opacity="1" stroke-miterlimit="10" d="M 148.902344 750 C 162.476562 739.652344 171.019531 725.976562 171.144531 708.945312 "/>
<path fill-rule="nonzero" fill="rgb(12.156863%, 47.058824%, 70.588235%)" fill-opacity="1" d="M 171.195312 701.8125 L 173.460938 708.964844 L 168.828125 708.929688 L 171.195312 701.8125 "/>
<path fill="none" stroke-width="4.5" stroke-linecap="butt" stroke-linejoin="miter" stroke="rgb(70.196078%, 70.196078%, 70.196078%)" stroke-opacity="1" stroke-miterlimit="10" d="M 232.085938 401.847656 C 191.859375 392.339844 154.105469 398.5 121.046875 423.285156 "/>
<path fill-rule="nonzero" fill="rgb(70.196078%, 70.196078%, 70.196078%)" fill-opacity="1" d="M 115.339844 427.566406 L 119.65625 421.433594 L 122.4375 425.140625 L 115.339844 427.566406 "/>
<path fill="none" stroke-width="1.5" stroke-linecap="butt" stroke-linejoin="miter" stroke="rgb(12.156863%, 47.058824%, 70.588235%)" stroke-opacity="1" stroke-miterlimit="10" d="M 232.085938 401.847656 C 245.316406 388.890625 252.597656 373.035156 250.546875 354.664062 "/>
<path fill-rule="nonzero" fill="rgb(12.156863%, 47.058824%, 70.588235%)" fill-opacity="1" d="M 249.753906 347.574219 L 252.851562 354.40625 L 248.242188 354.921875 L 249.753906 347.574219 "/>
<path fill="none" stroke-width="1.5" stroke-linecap="butt" stroke-linejoin="miter" stroke="rgb(12.156863%, 47.058824%, 70.588235%)" stroke-opacity="1" stroke-miterlimit="10" d="M 232.085938 401.847656 C 218.710938 389.859375 202.902344 383.785156 185.257812 386.957031 "/>
<path fill-rule="nonzero" fill="rgb(12.156863%, 47.058824%, 70.588235%)" fill-opacity="1" d="M 178.238281 388.222656 L 184.847656 384.675781 L 185.667969 389.238281 L 178.238281 388.222656 "/>
<path fill="none" stroke-width="1.5" stroke-linecap="butt" stroke-linejoin="miter" stroke="rgb(12.156863%, 47.058824%, 70.588235%)" stroke-opacity="1" stroke-miterlimit="10" d="M 249.464844 344.96875 C 236.621094 356.980469 229.253906 371.882812 230.90625 389.347656 "/>
<path fill-rule="nonzero" fill="rgb(12.156863%, 47.058824%, 70.588235%)" fill-opacity="1" d="M 231.578125 396.449219 L 228.597656 389.566406 L 233.210938 389.128906 L 231.578125 396.449219 "/>
<path fill="none" stroke-width="1.5" stroke-linecap="butt" stroke-linejoin="miter" stroke="rgb(12.156863%, 47.058824%, 70.588235%)" stroke-opacity="1" stroke-miterlimit="10" d="M 175.65625 388.683594 C 151.78125 390.390625 131.550781 400.046875 118.003906 419.746094 "/>
<path fill-rule="nonzero" fill="rgb(12.156863%, 47.058824%, 70.588235%)" fill-opacity="1" d="M 113.964844 425.621094 L 116.097656 418.429688 L 119.914062 421.058594 L 113.964844 425.621094 "/>
<path fill="none" stroke-width="5.5" stroke-linecap="butt" stroke-linejoin="miter" stroke="rgb(70.196078%, 70.196078%, 70.196078%)" stroke-opacity="1" stroke-miterlimit="10" d="M 345.660156 467.722656 C 321.523438 431.027344 287.855469 408.355469 244.242188 403.265625 "/>
<path fill-rule="nonzero" fill="rgb(70.196078%, 70.196078%, 70.196078%)" fill-opacity="1" d="M 237.15625 402.441406 L 244.507812 400.964844 L 243.972656 405.570312 L 237.15625 402.441406 "/>
<path fill="none" stroke-width="1.5" stroke-linecap="butt" stroke-linejoin="miter" stroke="rgb(12.156863%, 47.058824%, 70.588235%)" stroke-opacity="1" stroke-miterlimit="10" d="M 369.414062 561.421875 C 386.292969 552.53125 398.121094 539.027344 401.550781 520.292969 "/>
<path fill-rule="nonzero" fill="rgb(12.156863%, 47.058824%, 70.588235%)" fill-opacity="1" d="M 402.835938 513.277344 L 403.832031 520.710938 L 399.273438 519.875 L 402.835938 513.277344 "/>
<path fill="none" stroke-width="1.5" stroke-linecap="butt" stroke-linejoin="miter" stroke="rgb(12.156863%, 47.058824%, 70.588235%)" stroke-opacity="1" stroke-miterlimit="10" d="M 369.414062 561.421875 C 364.5625 581.066406 366.988281 599.914062 379.371094 615.875 "/>
<path fill-rule="nonzero" fill="rgb(12.156863%, 47.058824%, 70.588235%)" fill-opacity="1" d="M 383.742188 621.511719 L 377.539062 617.296875 L 381.203125 614.457031 L 383.742188 621.511719 "/>
<path fill="none" stroke-width="4.5" stroke-linecap="butt" stroke-linejoin="miter" stroke="rgb(70.196078%, 70.196078%, 70.196078%)" stroke-opacity="1" stroke-miterlimit="10" d="M 369.414062 561.421875 C 376.566406 530.976562 372.070312 502.261719 353.085938 477.433594 "/>
<path fill-rule="nonzero" fill="rgb(70.196078%, 70.196078%, 70.196078%)" fill-opacity="1" d="M 348.753906 471.769531 L 354.925781 476.027344 L 351.246094 478.84375 L 348.753906 471.769531 "/>
<path fill="none" stroke-width="5.5" stroke-linecap="butt" stroke-linejoin="miter" stroke="rgb(70.196078%, 70.196078%, 70.196078%)" stroke-opacity="1" stroke-miterlimit="10" d="M 601.652344 213.523438 C 621.027344 201.496094 633.804688 184.382812 636.488281 161.765625 "/>
<path fill-rule="nonzero" fill="rgb(70.196078%, 70.196078%, 70.196078%)" fill-opacity="1" d="M 637.328125 154.683594 L 638.789062 162.039062 L 634.1875 161.492188 L 637.328125 154.683594 "/>
<path fill="none" stroke-width="1.5" stroke-linecap="butt" stroke-linejoin="miter" stroke="rgb(12.156863%, 47.058824%, 70.588235%)" stroke-opacity="1" stroke-miterlimit="10" d="M 116.007812 367.382812 C 104.992188 382.628906 100.363281 399.777344 105.644531 417.789062 "/>
<path fill-rule="nonzero" fill="rgb(12.156863%, 47.058824%, 70.588235%)" fill-opacity="1" d="M 107.652344 424.632812 L 103.421875 418.441406 L 107.871094 417.136719 L 107.652344 424.632812 "/>
<path fill="none" stroke-width="5.5" stroke-linecap="butt" stroke-linejoin="miter" stroke="rgb(70.196078%, 70.196078%, 70.196078%)" stroke-opacity="1" stroke-miterlimit="10" d="M 565.394531 277.175781 C 584.820312 265.078125 597.617188 247.886719 600.28125 225.1875 "/>
<path fill-rule="nonzero" fill="rgb(70.196078%, 70.196078%, 70.196078%)" fill-opacity="1" d="M 601.113281 218.101562 L 602.585938 225.457031 L 597.980469 224.914062 L 601.113281 218.101562 "/>
<path fill="none" stroke-width="5.5" stroke-linecap="butt" stroke-linejoin="miter" stroke="rgb(70.196078%, 70.196078%, 70.196078%)" stroke-opacity="1" stroke-miterlimit="10" d="M 571.253906 352.183594 C 580.796875 330.589844 581.691406 308.515625 570.8125 287.59375 "/>
<path fill-rule="nonzero" fill="rgb(70.196078%, 70.196078%, 70.196078%)" fill-opacity="1" d="M 567.519531 281.265625 L 572.867188 286.523438 L 568.753906 288.664062 L 567.519531 281.265625 "/>
<path fill-rule="nonzero" fill="rgb(70.196078%, 70.196078%, 70.196078%)" fill-opacity="1" stroke-width="1" stroke-linecap="butt" stroke-linejoin="miter" stroke="rgb(70.196078%, 70.196078%, 70.196078%)" stroke-opacity="1" stroke-miterlimit="10" d="M 624.761719 490.914062 C 624.761719 497.382812 615.0625 497.382812 615.0625 490.914062 C 615.0625 484.449219 624.761719 484.449219 624.761719 490.914062 "/>
<path fill-rule="nonzero" fill="rgb(70.196078%, 70.196078%, 70.196078%)" fill-opacity="1" stroke-width="1" stroke-linecap="butt" stroke-linejoin="miter" stroke="rgb(70.196078%, 70.196078%, 70.196078%)" stroke-opacity="1" stroke-miterlimit="10" d="M 665.128906 548.367188 C 665.128906 554.835938 655.425781 554.835938 655.425781 548.367188 C 655.425781 541.902344 665.128906 541.902344 665.128906 548.367188 "/>
<path fill-rule="nonzero" fill="rgb(70.196078%, 70.196078%, 70.196078%)" fill-opacity="1" stroke-width="1" stroke-linecap="butt" stroke-linejoin="miter" stroke="rgb(70.196078%, 70.196078%, 70.196078%)" stroke-opacity="1" stroke-miterlimit="10" d="M 715.242188 591.363281 C 715.242188 598.5 704.542969 598.5 704.542969 591.363281 C 704.542969 584.230469 715.242188 584.230469 715.242188 591.363281 "/>
<path fill-rule="nonzero" fill="rgb(100%, 84.313725%, 0%)" fill-opacity="1" stroke-width="1" stroke-linecap="butt" stroke-linejoin="miter" stroke="rgb(100%, 84.313725%, 0%)" stroke-opacity="1" stroke-miterlimit="10" d="M 744.648438 648.171875 L 755.347656 648.171875 L 755.347656 658.871094 L 744.648438 658.871094 Z M 744.648438 648.171875 "/>
<path fill-rule="nonzero" fill="rgb(100%, 84.313725%, 0%)" fill-opacity="1" stroke-width="1" stroke-linecap="butt" stroke-linejoin="miter" stroke="rgb(100%, 84.313725%, 0%)" stroke-opacity="1" stroke-miterlimit="10" d="M 659.550781 652.835938 L 666.050781 652.835938 L 666.050781 659.335938 L 659.550781 659.335938 Z M 659.550781 652.835938 "/>
<path fill-rule="nonzero" fill="rgb(70.196078%, 70.196078%, 70.196078%)" fill-opacity="1" stroke-width="1" stroke-linecap="butt" stroke-linejoin="miter" stroke="rgb(70.196078%, 70.196078%, 70.196078%)" stroke-opacity="1" stroke-miterlimit="10" d="M 624.980469 413.457031 C 624.980469 420.589844 614.28125 420.589844 614.28125 413.457031 C 614.28125 406.324219 624.980469 406.324219 624.980469 413.457031 "/>
<path fill-rule="nonzero" fill="rgb(12.156863%, 47.058824%, 70.588235%)" fill-opacity="1" stroke-width="1" stroke-linecap="butt" stroke-linejoin="miter" stroke="rgb(12.156863%, 47.058824%, 70.588235%)" stroke-opacity="1" stroke-miterlimit="10" d="M 53.035156 677.605469 C 53.035156 681.273438 47.535156 681.273438 47.535156 677.605469 C 47.535156 673.941406 53.035156 673.941406 53.035156 677.605469 "/>
<path fill-rule="nonzero" fill="rgb(12.156863%, 47.058824%, 70.588235%)" fill-opacity="1" stroke-width="1" stroke-linecap="butt" stroke-linejoin="miter" stroke="rgb(12.156863%, 47.058824%, 70.588235%)" stroke-opacity="1" stroke-miterlimit="10" d="M 732.601562 492.429688 C 732.601562 496.097656 727.101562 496.097656 727.101562 492.429688 C 727.101562 488.765625 732.601562 488.765625 732.601562 492.429688 "/>
<path fill-rule="nonzero" fill="rgb(12.156863%, 47.058824%, 70.588235%)" fill-opacity="1" stroke-width="1" stroke-linecap="butt" stroke-linejoin="miter" stroke="rgb(12.156863%, 47.058824%, 70.588235%)" stroke-opacity="1" stroke-miterlimit="10" d="M 693.878906 420.507812 C 693.878906 424.175781 688.378906 424.175781 688.378906 420.507812 C 688.378906 416.84375 693.878906 416.84375 693.878906 420.507812 "/>
<path fill-rule="nonzero" fill="rgb(12.156863%, 47.058824%, 70.588235%)" fill-opacity="1" stroke-width="1" stroke-linecap="butt" stroke-linejoin="miter" stroke="rgb(12.156863%, 47.058824%, 70.588235%)" stroke-opacity="1" stroke-miterlimit="10" d="M 65.769531 372.308594 C 65.769531 375.972656 60.269531 375.972656 60.269531 372.308594 C 60.269531 368.640625 65.769531 368.640625 65.769531 372.308594 "/>
<path fill-rule="nonzero" fill="rgb(12.156863%, 47.058824%, 70.588235%)" fill-opacity="1" stroke-width="1" stroke-linecap="butt" stroke-linejoin="miter" stroke="rgb(12.156863%, 47.058824%, 70.588235%)" stroke-opacity="1" stroke-miterlimit="10" d="M 285.417969 558.59375 C 285.417969 562.261719 279.917969 562.261719 279.917969 558.59375 C 279.917969 554.929688 285.417969 554.929688 285.417969 558.59375 "/>
<path fill-rule="nonzero" fill="rgb(70.196078%, 70.196078%, 70.196078%)" fill-opacity="1" stroke-width="1" stroke-linecap="butt" stroke-linejoin="miter" stroke="rgb(70.196078%, 70.196078%, 70.196078%)" stroke-opacity="1" stroke-miterlimit="10" d="M 562.070312 50 C 562.070312 56.464844 552.371094 56.464844 552.371094 50 C 552.371094 43.535156 562.070312 43.535156 562.070312 50 "/>
<path fill-rule="nonzero" fill="rgb(70.196078%, 70.196078%, 70.196078%)" fill-opacity="1" stroke-width="1" stroke-linecap="butt" stroke-linejoin="miter" stroke="rgb(70.196078%, 70.196078%, 70.196078%)" stroke-opacity="1" stroke-miterlimit="10" d="M 319.488281 512.058594 C 319.488281 519.191406 308.789062 519.191406 308.789062 512.058594 C 308.789062 504.925781 319.488281 504.925781 319.488281 512.058594 "/>
<path fill-rule="nonzero" fill="rgb(70.196078%, 70.196078%, 70.196078%)" fill-opacity="1" stroke-width="1" stroke-linecap="butt" stroke-linejoin="miter" stroke="rgb(70.196078%, 70.196078%, 70.196078%)" stroke-opacity="1" stroke-miterlimit="10" d="M 362.820312 361.109375 C 362.820312 367.574219 353.121094 367.574219 353.121094 361.109375 C 353.121094 354.640625 362.820312 354.640625 362.820312 361.109375 "/>
<path fill-rule="nonzero" fill="rgb(70.196078%, 70.196078%, 70.196078%)" fill-opacity="1" stroke-width="1" stroke-linecap="butt" stroke-linejoin="miter" stroke="rgb(70.196078%, 70.196078%, 70.196078%)" stroke-opacity="1" stroke-miterlimit="10" d="M 390.203125 240.636719 C 390.203125 247.105469 380.503906 247.105469 380.503906 240.636719 C 380.503906 234.171875 390.203125 234.171875 390.203125 240.636719 "/>
<path fill-rule="nonzero" fill="rgb(70.196078%, 70.196078%, 70.196078%)" fill-opacity="1" stroke-width="1" stroke-linecap="butt" stroke-linejoin="miter" stroke="rgb(70.196078%, 70.196078%, 70.196078%)" stroke-opacity="1" stroke-miterlimit="10" d="M 429.300781 143.226562 C 429.300781 149.691406 419.601562 149.691406 419.601562 143.226562 C 419.601562 136.757812 429.300781 136.757812 429.300781 143.226562 "/>
<path fill-rule="nonzero" fill="rgb(70.196078%, 70.196078%, 70.196078%)" fill-opacity="1" stroke-width="1" stroke-linecap="butt" stroke-linejoin="miter" stroke="rgb(70.196078%, 70.196078%, 70.196078%)" stroke-opacity="1" stroke-miterlimit="10" d="M 488.976562 75.769531 C 488.976562 82.238281 479.277344 82.238281 479.277344 75.769531 C 479.277344 69.304688 488.976562 69.304688 488.976562 75.769531 "/>
<path fill-rule="nonzero" fill="rgb(12.156863%, 47.058824%, 70.588235%)" fill-opacity="1" stroke-width="1" stroke-linecap="butt" stroke-linejoin="miter" stroke="rgb(12.156863%, 47.058824%, 70.588235%)" stroke-opacity="1" stroke-miterlimit="10" d="M 173.964844 699.195312 C 173.964844 702.859375 168.464844 702.859375 168.464844 699.195312 C 168.464844 695.527344 173.964844 695.527344 173.964844 699.195312 "/>
<path fill-rule="nonzero" fill="rgb(70.196078%, 70.196078%, 70.196078%)" fill-opacity="1" stroke-width="1" stroke-linecap="butt" stroke-linejoin="miter" stroke="rgb(70.196078%, 70.196078%, 70.196078%)" stroke-opacity="1" stroke-miterlimit="10" d="M 642.71875 150.105469 C 642.71875 156.574219 633.019531 156.574219 633.019531 150.105469 C 633.019531 143.640625 642.71875 143.640625 642.71875 150.105469 "/>
<path fill-rule="nonzero" fill="rgb(70.196078%, 70.196078%, 70.196078%)" fill-opacity="1" stroke-width="1" stroke-linecap="butt" stroke-linejoin="miter" stroke="rgb(70.196078%, 70.196078%, 70.196078%)" stroke-opacity="1" stroke-miterlimit="10" d="M 627.238281 77.921875 C 627.238281 84.386719 617.535156 84.386719 617.535156 77.921875 C 617.535156 71.453125 627.238281 71.453125 627.238281 77.921875 "/>
<path fill-rule="nonzero" fill="rgb(12.156863%, 47.058824%, 70.588235%)" fill-opacity="1" stroke-width="1" stroke-linecap="butt" stroke-linejoin="miter" stroke="rgb(12.156863%, 47.058824%, 70.588235%)" stroke-opacity="1" stroke-miterlimit="10" d="M 406.058594 510.699219 C 406.058594 514.363281 400.558594 514.363281 400.558594 510.699219 C 400.558594 507.03125 406.058594 507.03125 406.058594 510.699219 "/>
<path fill-rule="nonzero" fill="rgb(12.156863%, 47.058824%, 70.588235%)" fill-opacity="1" stroke-width="1" stroke-linecap="butt" stroke-linejoin="miter" stroke="rgb(12.156863%, 47.058824%, 70.588235%)" stroke-opacity="1" stroke-miterlimit="10" d="M 100.976562 707.296875 C 100.976562 710.960938 95.476562 710.960938 95.476562 707.296875 C 95.476562 703.628906 100.976562 703.628906 100.976562 707.296875 "/>
<path fill-rule="nonzero" fill="rgb(12.156863%, 47.058824%, 70.588235%)" fill-opacity="1" stroke-width="1" stroke-linecap="butt" stroke-linejoin="miter" stroke="rgb(12.156863%, 47.058824%, 70.588235%)" stroke-opacity="1" stroke-miterlimit="10" d="M 388.097656 623.585938 C 388.097656 627.25 382.597656 627.25 382.597656 623.585938 C 382.597656 619.917969 388.097656 619.917969 388.097656 623.585938 "/>
<path fill-rule="nonzero" fill="rgb(14.901961%, 14.901961%, 14.901961%)" fill-opacity="1" stroke-width="1" stroke-linecap="butt" stroke-linejoin="miter" stroke="rgb(14.901961%, 14.901961%, 14.901961%)" stroke-opacity="1" stroke-miterlimit="10" d="M 44.148438 609.03125 L 50 597.332031 L 55.851562 609.03125 Z M 44.148438 609.03125 "/>
<path fill-rule="nonzero" fill="rgb(70.196078%, 70.196078%, 70.196078%)" fill-opacity="1" stroke-width="1" stroke-linecap="butt" stroke-linejoin="miter" stroke="rgb(70.196078%, 70.196078%, 70.196078%)" stroke-opacity="1" stroke-miterlimit="10" d="M 108.980469 649.648438 C 108.980469 653.15625 106.136719 655.996094 102.628906 655.996094 C 99.121094 655.996094 96.277344 653.15625 96.277344 649.648438 C 96.277344 646.140625 99.121094 643.296875 102.628906 643.296875 C 106.136719 643.296875 108.980469 646.140625 108.980469 649.648438 "/>
<path fill-rule="nonzero" fill="rgb(70.196078%, 70.196078%, 70.196078%)" fill-opacity="1" stroke-width="1" stroke-linecap="butt" stroke-linejoin="miter" stroke="rgb(70.196078%, 70.196078%, 70.196078%)" stroke-opacity="1" stroke-miterlimit="10" d="M 117.09375 431.761719 C 117.09375 435.820312 113.804688 439.109375 109.742188 439.109375 C 105.683594 439.109375 102.394531 435.820312 102.394531 431.761719 C 102.394531 427.699219 105.683594 424.410156 109.742188 424.410156 C 113.804688 424.410156 117.09375 427.699219 117.09375 431.761719 "/>
<path fill-rule="nonzero" fill="rgb(12.156863%, 47.058824%, 70.588235%)" fill-opacity="1" stroke-width="1" stroke-linecap="butt" stroke-linejoin="miter" stroke="rgb(12.156863%, 47.058824%, 70.588235%)" stroke-opacity="1" stroke-miterlimit="10" d="M 55.003906 439.117188 C 55.003906 442.78125 49.503906 442.78125 49.503906 439.117188 C 49.503906 435.449219 55.003906 435.449219 55.003906 439.117188 "/>
<path fill-rule="nonzero" fill="rgb(12.156863%, 47.058824%, 70.588235%)" fill-opacity="1" stroke-width="1" stroke-linecap="butt" stroke-linejoin="miter" stroke="rgb(12.156863%, 47.058824%, 70.588235%)" stroke-opacity="1" stroke-miterlimit="10" d="M 111.339844 485.140625 C 111.339844 488.804688 105.839844 488.804688 105.839844 485.140625 C 105.839844 481.472656 111.339844 481.472656 111.339844 485.140625 "/>
<path fill-rule="nonzero" fill="rgb(12.156863%, 47.058824%, 70.588235%)" fill-opacity="1" stroke-width="1" stroke-linecap="butt" stroke-linejoin="miter" stroke="rgb(12.156863%, 47.058824%, 70.588235%)" stroke-opacity="1" stroke-miterlimit="10" d="M 151.652344 750 C 151.652344 753.667969 146.152344 753.667969 146.152344 750 C 146.152344 746.332031 151.652344 746.332031 151.652344 750 "/>
<path fill-rule="nonzero" fill="rgb(70.196078%, 70.196078%, 70.196078%)" fill-opacity="1" stroke-width="1" stroke-linecap="butt" stroke-linejoin="miter" stroke="rgb(70.196078%, 70.196078%, 70.196078%)" stroke-opacity="1" stroke-miterlimit="10" d="M 237.4375 401.847656 C 237.4375 408.980469 226.738281 408.980469 226.738281 401.847656 C 226.738281 394.714844 237.4375 394.714844 237.4375 401.847656 "/>
<path fill-rule="nonzero" fill="rgb(12.156863%, 47.058824%, 70.588235%)" fill-opacity="1" stroke-width="1" stroke-linecap="butt" stroke-linejoin="miter" stroke="rgb(12.156863%, 47.058824%, 70.588235%)" stroke-opacity="1" stroke-miterlimit="10" d="M 252.214844 344.96875 C 252.214844 348.636719 246.714844 348.636719 246.714844 344.96875 C 246.714844 341.304688 252.214844 341.304688 252.214844 344.96875 "/>
<path fill-rule="nonzero" fill="rgb(12.156863%, 47.058824%, 70.588235%)" fill-opacity="1" stroke-width="1" stroke-linecap="butt" stroke-linejoin="miter" stroke="rgb(12.156863%, 47.058824%, 70.588235%)" stroke-opacity="1" stroke-miterlimit="10" d="M 178.40625 388.683594 C 178.40625 392.351562 172.90625 392.351562 172.90625 388.683594 C 172.90625 385.019531 178.40625 385.019531 178.40625 388.683594 "/>
<path fill-rule="nonzero" fill="rgb(70.196078%, 70.196078%, 70.196078%)" fill-opacity="1" stroke-width="1" stroke-linecap="butt" stroke-linejoin="miter" stroke="rgb(70.196078%, 70.196078%, 70.196078%)" stroke-opacity="1" stroke-miterlimit="10" d="M 351.007812 467.722656 C 351.007812 474.859375 340.308594 474.859375 340.308594 467.722656 C 340.308594 460.589844 351.007812 460.589844 351.007812 467.722656 "/>
<path fill-rule="nonzero" fill="rgb(70.196078%, 70.196078%, 70.196078%)" fill-opacity="1" stroke-width="1" stroke-linecap="butt" stroke-linejoin="miter" stroke="rgb(70.196078%, 70.196078%, 70.196078%)" stroke-opacity="1" stroke-miterlimit="10" d="M 374.761719 561.421875 C 374.761719 568.554688 364.0625 568.554688 364.0625 561.421875 C 364.0625 554.289062 374.761719 554.289062 374.761719 561.421875 "/>
<path fill-rule="nonzero" fill="rgb(70.196078%, 70.196078%, 70.196078%)" fill-opacity="1" stroke-width="1" stroke-linecap="butt" stroke-linejoin="miter" stroke="rgb(70.196078%, 70.196078%, 70.196078%)" stroke-opacity="1" stroke-miterlimit="10" d="M 606.5 213.523438 C 606.5 219.988281 596.800781 219.988281 596.800781 213.523438 C 596.800781 207.058594 606.5 207.058594 606.5 213.523438 "/>
<path fill-rule="nonzero" fill="rgb(12.156863%, 47.058824%, 70.588235%)" fill-opacity="1" stroke-width="1" stroke-linecap="butt" stroke-linejoin="miter" stroke="rgb(12.156863%, 47.058824%, 70.588235%)" stroke-opacity="1" stroke-miterlimit="10" d="M 118.757812 367.382812 C 118.757812 371.046875 113.257812 371.046875 113.257812 367.382812 C 113.257812 363.714844 118.757812 363.714844 118.757812 367.382812 "/>
<path fill-rule="nonzero" fill="rgb(70.196078%, 70.196078%, 70.196078%)" fill-opacity="1" stroke-width="1" stroke-linecap="butt" stroke-linejoin="miter" stroke="rgb(70.196078%, 70.196078%, 70.196078%)" stroke-opacity="1" stroke-miterlimit="10" d="M 570.242188 277.175781 C 570.242188 283.640625 560.542969 283.640625 560.542969 277.175781 C 560.542969 270.707031 570.242188 270.707031 570.242188 277.175781 "/>
<path fill-rule="nonzero" fill="rgb(70.196078%, 70.196078%, 70.196078%)" fill-opacity="1" stroke-width="1" stroke-linecap="butt" stroke-linejoin="miter" stroke="rgb(70.196078%, 70.196078%, 70.196078%)" stroke-opacity="1" stroke-miterlimit="10" d="M 576.105469 352.183594 C 576.105469 358.652344 566.40625 358.652344 566.40625 352.183594 C 566.40625 345.71875 576.105469 345.71875 576.105469 352.183594 "/>
</svg>
