<?xml version="1.0" encoding="UTF-8"?>
<svg xmlns="http://www.w3.org/2000/svg" xmlns:xlink="http://www.w3.org/1999/xlink" width="800" height="800" viewBox="0 0 800 800">
<rect x="-80" y="-80" width="960" height="960" fill="rgb(100%, 100%, 100%)" fill-opacity="1"/>
<path fill="none" stroke-width="1.5" stroke-linecap="butt" stroke-linejoin="miter" stroke="rgb(99.215686%, 74.901961%, 43.529412%)" stroke-opacity="1" stroke-miterlimit="10" d="M 401.320312 456.699219 C 390.722656 451.304688 379.402344 449.8125 368.824219 455.140625 "/>
<path fill-rule="nonzero" fill="rgb(99.215686%, 74.901961%, 43.529412%)" fill-opacity="1" d="M 362.453125 458.347656 L 367.78125 453.070312 L 369.867188 457.207031 L 362.453125 458.347656 "/>
<path fill="none" stroke-width="1.5" stroke-linecap="butt" stroke-linejoin="miter" stroke="rgb(99.215686%, 74.901961%, 43.529412%)" stroke-opacity="1" stroke-miterlimit="10" d="M 361.8125 458.667969 C 348.558594 459.925781 337.078125 465.363281 330.15625 476.683594 "/>
<path fill-rule="nonzero" fill="rgb(99.215686%, 74.901961%, 43.529412%)" fill-opacity="1" d="M 326.433594 482.769531 L 328.179688 475.472656 L 332.132812 477.890625 L 326.433594 482.769531 "/>
<path fill="none" stroke-width="1.5" stroke-linecap="butt" stroke-linejoin="miter" stroke="rgb(99.215686%, 74.901961%, 43.529412%)" stroke-opacity="1" stroke-miterlimit="10" d="M 296.527344 522.214844 C 282.554688 526.347656 271.464844 534.632812 266.3125 548.21875 "/>
<path fill-rule="nonzero" fill="rgb(99.215686%, 74.901961%, 43.529412%)" fill-opacity="1" d="M 263.785156 554.886719 L 264.148438 547.394531 L 268.480469 549.039062 L 263.785156 554.886719 "/>
<path fill="none" stroke-width="1.5" stroke-linecap="butt" stroke-linejoin="miter" stroke="rgb(99.215686%, 74.901961%, 43.529412%)" stroke-opacity="1" stroke-miterlimit="10" d="M 163.792969 406.261719 C 166.023438 388.558594 162.019531 372.238281 149.476562 359.59375 "/>
<path fill-rule="nonzero" fill="rgb(99.215686%, 74.901961%, 43.529412%)" fill-opacity="1" d="M 144.453125 354.53125 L 151.121094 357.964844 L 147.832031 361.226562 L 144.453125 354.53125 "/>
<path fill="none" stroke-width="1.5" stroke-linecap="butt" stroke-linejoin="miter" stroke="rgb(99.215686%, 74.901961%, 43.529412%)" stroke-opacity="1" stroke-miterlimit="10" d="M 191.328125 519.40625 C 195.058594 501.378906 192.242188 484.289062 180.390625 470.246094 "/>
<path fill-rule="nonzero" fill="rgb(99.215686%, 74.901961%, 43.529412%)" fill-opacity="1" d="M 175.792969 464.792969 L 182.164062 468.75 L 178.621094 471.738281 L 175.792969 464.792969 "/>
<path fill="none" stroke-width="1.5" stroke-linecap="butt" stroke-linejoin="miter" stroke="rgb(99.215686%, 74.901961%, 43.529412%)" stroke-opacity="1" stroke-miterlimit="10" d="M 222.777344 557.191406 C 219.789062 542.09375 212.132812 529.683594 198.367188 522.882812 "/>
<path fill-rule="nonzero" fill="rgb(99.215686%, 74.901961%, 43.529412%)" fill-opacity="1" d="M 191.972656 519.726562 L 199.394531 520.804688 L 197.34375 524.960938 L 191.972656 519.726562 "/>
<path fill="none" stroke-width="1.5" stroke-linecap="butt" stroke-linejoin="miter" stroke="rgb(99.215686%, 74.901961%, 43.529412%)" stroke-opacity="1" stroke-miterlimit="10" d="M 326.058594 483.382812 C 312.140625 489.621094 301.839844 499.765625 298.335938 514.574219 "/>
<path fill-rule="nonzero" fill="rgb(99.215686%, 74.901961%, 43.529412%)" fill-opacity="1" d="M 296.691406 521.515625 L 296.078125 514.039062 L 300.589844 515.105469 L 296.691406 521.515625 "/>
<path fill="none" stroke-width="1.5" stroke-linecap="butt" stroke-linejoin="miter" stroke="rgb(99.215686%, 74.901961%, 43.529412%)" stroke-opacity="1" stroke-miterlimit="10" d="M 263.53125 555.558594 C 252.570312 549.894531 240.851562 548.308594 229.824219 553.726562 "/>
<path fill-rule="nonzero" fill="rgb(99.215686%, 74.901961%, 43.529412%)" fill-opacity="1" d="M 223.421875 556.875 L 228.800781 551.648438 L 230.84375 555.808594 L 223.421875 556.875 "/>
<path fill="none" stroke-width="1.5" stroke-linecap="butt" stroke-linejoin="miter" stroke="rgb(99.215686%, 74.901961%, 43.529412%)" stroke-opacity="1" stroke-miterlimit="10" d="M 143.945312 354.023438 C 138.421875 341.410156 129.359375 331.929688 116.007812 328.753906 "/>
<path fill-rule="nonzero" fill="rgb(99.215686%, 74.901961%, 43.529412%)" fill-opacity="1" d="M 109.066406 327.105469 L 116.542969 326.5 L 115.46875 331.011719 L 109.066406 327.105469 "/>
<path fill="none" stroke-width="1.5" stroke-linecap="butt" stroke-linejoin="miter" stroke="rgb(99.215686%, 74.901961%, 43.529412%)" stroke-opacity="1" stroke-miterlimit="10" d="M 71.679688 346.921875 C 59.878906 354.449219 51.773438 365.039062 50.6875 378.953125 "/>
<path fill-rule="nonzero" fill="rgb(99.215686%, 74.901961%, 43.529412%)" fill-opacity="1" d="M 50.128906 386.0625 L 48.375 378.773438 L 52.996094 379.132812 L 50.128906 386.0625 "/>
<path fill="none" stroke-width="1.5" stroke-linecap="butt" stroke-linejoin="miter" stroke="rgb(99.215686%, 74.901961%, 43.529412%)" stroke-opacity="1" stroke-miterlimit="10" d="M 108.367188 326.941406 C 95.667969 326.738281 84.171875 330.664062 76.464844 340.699219 "/>
<path fill-rule="nonzero" fill="rgb(99.215686%, 74.901961%, 43.529412%)" fill-opacity="1" d="M 72.117188 346.355469 L 74.625 339.285156 L 78.300781 342.109375 L 72.117188 346.355469 "/>
<path fill="none" stroke-width="1.5" stroke-linecap="butt" stroke-linejoin="miter" stroke="rgb(99.215686%, 74.901961%, 43.529412%)" stroke-opacity="1" stroke-miterlimit="10" d="M 175.328125 464.242188 C 180.730469 446.003906 179.28125 428.1875 168.324219 412.675781 "/>
<path fill-rule="nonzero" fill="rgb(99.215686%, 74.901961%, 43.529412%)" fill-opacity="1" d="M 164.207031 406.847656 L 170.21875 411.339844 L 166.429688 414.011719 L 164.207031 406.847656 "/>
<path fill="none" stroke-width="1.5" stroke-linecap="butt" stroke-linejoin="miter" stroke="rgb(99.215686%, 74.901961%, 43.529412%)" stroke-opacity="1" stroke-miterlimit="10" d="M 438.808594 466.191406 C 430.515625 458.125 420.414062 453.449219 409.058594 455.382812 "/>
<path fill-rule="nonzero" fill="rgb(99.215686%, 74.901961%, 43.529412%)" fill-opacity="1" d="M 402.027344 456.578125 L 408.671875 453.097656 L 409.449219 457.667969 L 402.027344 456.578125 "/>
<path fill="none" stroke-width="1.5" stroke-linecap="butt" stroke-linejoin="miter" stroke="rgb(98.431373%, 60.392157%, 60%)" stroke-opacity="1" stroke-miterlimit="10" d="M 528.292969 353.550781 C 542.246094 370.570312 560.226562 380.585938 582.207031 380.34375 "/>
<path fill-rule="nonzero" fill="rgb(98.431373%, 60.392157%, 60%)" fill-opacity="1" d="M 589.339844 380.265625 L 582.230469 382.660156 L 582.179688 378.027344 L 589.339844 380.265625 "/>
<path fill="none" stroke-width="1.5" stroke-linecap="butt" stroke-linejoin="miter" stroke="rgb(98.431373%, 60.392157%, 60%)" stroke-opacity="1" stroke-miterlimit="10" d="M 660.296875 382.875 C 678.179688 381.613281 693.484375 374.480469 703.5 359.652344 "/>
<path fill-rule="nonzero" fill="rgb(98.431373%, 60.392157%, 60%)" fill-opacity="1" d="M 707.492188 353.742188 L 705.417969 360.949219 L 701.578125 358.355469 L 707.492188 353.742188 "/>
<path fill="none" stroke-width="1.5" stroke-linecap="butt" stroke-linejoin="miter" stroke="rgb(41.568627%, 23.921569%, 60.392157%)" stroke-opacity="1" stroke-miterlimit="10" d="M 494.339844 609.742188 C 511.679688 586.363281 518.40625 560.171875 511.351562 531.953125 "/>
<path fill-rule="nonzero" fill="rgb(41.568627%, 23.921569%, 60.392157%)" fill-opacity="1" d="M 509.621094 525.035156 L 513.601562 531.390625 L 509.105469 532.515625 L 509.621094 525.035156 "/>
<path fill="none" stroke-width="1.5" stroke-linecap="butt" stroke-linejoin="miter" stroke="rgb(98.431373%, 60.392157%, 60%)" stroke-opacity="1" stroke-miterlimit="10" d="M 381.324219 242.164062 C 385.109375 257.929688 393.714844 270.617188 408.46875 277.246094 "/>
<path fill-rule="nonzero" fill="rgb(98.431373%, 60.392157%, 60%)" fill-opacity="1" d="M 414.976562 280.167969 L 407.519531 279.359375 L 409.421875 275.132812 L 414.976562 280.167969 "/>
<path fill="none" stroke-width="1.5" stroke-linecap="butt" stroke-linejoin="miter" stroke="rgb(98.431373%, 60.392157%, 60%)" stroke-opacity="1" stroke-miterlimit="10" d="M 737.664062 300.898438 C 750.742188 284.398438 756.503906 265.535156 751.769531 245.046875 "/>
<path fill-rule="nonzero" fill="rgb(98.431373%, 60.392157%, 60%)" fill-opacity="1" d="M 750.160156 238.097656 L 754.027344 244.527344 L 749.511719 245.570312 L 750.160156 238.097656 "/>
<path fill="none" stroke-width="1.5" stroke-linecap="butt" stroke-linejoin="miter" stroke="rgb(98.431373%, 60.392157%, 60%)" stroke-opacity="1" stroke-miterlimit="10" d="M 707.890625 353.144531 C 724.222656 342.683594 734.96875 327.980469 736.886719 308.710938 "/>
<path fill-rule="nonzero" fill="rgb(98.431373%, 60.392157%, 60%)" fill-opacity="1" d="M 737.589844 301.613281 L 739.191406 308.941406 L 734.578125 308.480469 L 737.589844 301.613281 "/>
<path fill="none" stroke-width="1.5" stroke-linecap="butt" stroke-linejoin="miter" stroke="rgb(41.568627%, 23.921569%, 60.392157%)" stroke-opacity="1" stroke-miterlimit="10" d="M 475.65625 667.289062 C 489.621094 653.636719 497.203125 636.941406 495.164062 617.550781 "/>
<path fill-rule="nonzero" fill="rgb(41.568627%, 23.921569%, 60.392157%)" fill-opacity="1" d="M 494.414062 610.457031 L 497.46875 617.308594 L 492.859375 617.792969 L 494.414062 610.457031 "/>
<path fill="none" stroke-width="1.5" stroke-linecap="butt" stroke-linejoin="miter" stroke="rgb(98.431373%, 60.392157%, 60%)" stroke-opacity="1" stroke-miterlimit="10" d="M 749.949219 172.464844 C 757.0625 153.925781 756.976562 135.296875 746.882812 118.234375 "/>
<path fill-rule="nonzero" fill="rgb(98.431373%, 60.392157%, 60%)" fill-opacity="1" d="M 743.25 112.097656 L 748.875 117.054688 L 744.886719 119.417969 L 743.25 112.097656 "/>
<path fill="none" stroke-width="1.5" stroke-linecap="butt" stroke-linejoin="miter" stroke="rgb(41.568627%, 23.921569%, 60.392157%)" stroke-opacity="1" stroke-miterlimit="10" d="M 328.386719 91.289062 C 311.609375 92.71875 297.277344 99.59375 288.128906 113.6875 "/>
<path fill-rule="nonzero" fill="rgb(41.568627%, 23.921569%, 60.392157%)" fill-opacity="1" d="M 284.246094 119.671875 L 286.1875 112.425781 L 290.074219 114.949219 L 284.246094 119.671875 "/>
<path fill="none" stroke-width="1.5" stroke-linecap="butt" stroke-linejoin="miter" stroke="rgb(98.431373%, 60.392157%, 60%)" stroke-opacity="1" stroke-miterlimit="10" d="M 750 237.398438 C 759.714844 218.617188 761.757812 198.917969 753.148438 179.632812 "/>
<path fill-rule="nonzero" fill="rgb(98.431373%, 60.392157%, 60%)" fill-opacity="1" d="M 750.242188 173.121094 L 755.265625 178.6875 L 751.035156 180.578125 L 750.242188 173.121094 "/>
<path fill="none" stroke-width="1.5" stroke-linecap="butt" stroke-linejoin="miter" stroke="rgb(98.431373%, 60.392157%, 60%)" stroke-opacity="1" stroke-miterlimit="10" d="M 415.632812 280.464844 C 422.835938 299.292969 435.542969 313.292969 454.738281 319.351562 "/>
<path fill-rule="nonzero" fill="rgb(98.431373%, 60.392157%, 60%)" fill-opacity="1" d="M 461.542969 321.5 L 454.042969 321.5625 L 455.4375 317.140625 L 461.542969 321.5 "/>
<path fill="none" stroke-width="1.5" stroke-linecap="butt" stroke-linejoin="miter" stroke="rgb(41.568627%, 23.921569%, 60.392157%)" stroke-opacity="1" stroke-miterlimit="10" d="M 283.855469 120.273438 C 268.691406 131.488281 259.191406 146.453125 258.613281 165.273438 "/>
<path fill-rule="nonzero" fill="rgb(41.568627%, 23.921569%, 60.392157%)" fill-opacity="1" d="M 258.394531 172.402344 L 256.296875 165.203125 L 260.929688 165.34375 L 258.394531 172.402344 "/>
<path fill="none" stroke-width="1.5" stroke-linecap="butt" stroke-linejoin="miter" stroke="rgb(41.568627%, 23.921569%, 60.392157%)" stroke-opacity="1" stroke-miterlimit="10" d="M 258.371094 173.121094 C 247.949219 189.285156 244.300781 206.980469 250.515625 225.152344 "/>
<path fill-rule="nonzero" fill="rgb(41.568627%, 23.921569%, 60.392157%)" fill-opacity="1" d="M 252.824219 231.902344 L 248.324219 225.902344 L 252.707031 224.402344 L 252.824219 231.902344 "/>
<path fill="none" stroke-width="1.5" stroke-linecap="butt" stroke-linejoin="miter" stroke="rgb(98.431373%, 60.392157%, 60%)" stroke-opacity="1" stroke-miterlimit="10" d="M 590.058594 380.253906 C 610.210938 391.546875 631.601562 394.40625 653.011719 385.800781 "/>
<path fill-rule="nonzero" fill="rgb(98.431373%, 60.392157%, 60%)" fill-opacity="1" d="M 659.628906 383.140625 L 653.875 387.953125 L 652.148438 383.652344 L 659.628906 383.140625 "/>
<path fill="none" stroke-width="1.5" stroke-linecap="butt" stroke-linejoin="miter" stroke="rgb(41.568627%, 23.921569%, 60.392157%)" stroke-opacity="1" stroke-miterlimit="10" d="M 473.855469 267.40625 C 476.660156 230.175781 465.816406 197.386719 439.054688 171.378906 "/>
<path fill-rule="nonzero" fill="rgb(41.568627%, 23.921569%, 60.392157%)" fill-opacity="1" d="M 433.9375 166.40625 L 440.667969 169.714844 L 437.4375 173.039062 L 433.9375 166.40625 "/>
<path fill="none" stroke-width="1.5" stroke-linecap="butt" stroke-linejoin="miter" stroke="rgb(41.568627%, 23.921569%, 60.392157%)" stroke-opacity="1" stroke-miterlimit="10" d="M 253.054688 232.582031 C 247.058594 247.675781 246.761719 263.039062 255.035156 276.972656 "/>
<path fill-rule="nonzero" fill="rgb(41.568627%, 23.921569%, 60.392157%)" fill-opacity="1" d="M 258.675781 283.105469 L 253.042969 278.15625 L 257.027344 275.789062 L 258.675781 283.105469 "/>
<path fill="none" stroke-width="1.5" stroke-linecap="butt" stroke-linejoin="miter" stroke="rgb(30.196078%, 68.627451%, 29.019608%)" stroke-opacity="1" stroke-miterlimit="10" d="M 602.421875 71.707031 C 594.449219 82.152344 590.648438 94.128906 594.253906 106.714844 "/>
<path fill-rule="nonzero" fill="rgb(30.196078%, 68.627451%, 29.019608%)" fill-opacity="1" d="M 596.21875 113.570312 L 592.023438 107.351562 L 596.480469 106.078125 L 596.21875 113.570312 "/>
<path fill="none" stroke-width="1.5" stroke-linecap="butt" stroke-linejoin="miter" stroke="rgb(30.196078%, 68.627451%, 29.019608%)" stroke-opacity="1" stroke-miterlimit="10" d="M 438.011719 519.386719 C 427.394531 527.238281 420.417969 537.734375 420.34375 550.894531 "/>
<path fill-rule="nonzero" fill="rgb(30.196078%, 68.627451%, 29.019608%)" fill-opacity="1" d="M 420.300781 558.027344 L 418.023438 550.878906 L 422.660156 550.90625 L 420.300781 558.027344 "/>
<path fill="none" stroke-width="1.5" stroke-linecap="butt" stroke-linejoin="miter" stroke="rgb(30.196078%, 68.627451%, 29.019608%)" stroke-opacity="1" stroke-miterlimit="10" d="M 438.011719 519.386719 C 465.25 490.0625 478.007812 455.347656 473.046875 415.648438 "/>
<path fill-rule="nonzero" fill="rgb(30.196078%, 68.627451%, 29.019608%)" fill-opacity="1" d="M 472.160156 408.570312 L 475.34375 415.359375 L 470.746094 415.933594 L 472.160156 408.570312 "/>
<path fill="none" stroke-width="1.5" stroke-linecap="butt" stroke-linejoin="miter" stroke="rgb(30.196078%, 68.627451%, 29.019608%)" stroke-opacity="1" stroke-miterlimit="10" d="M 420.296875 558.742188 C 430.746094 551.199219 437.71875 541.027344 437.890625 528.1875 "/>
<path fill-rule="nonzero" fill="rgb(30.196078%, 68.627451%, 29.019608%)" fill-opacity="1" d="M 437.988281 521.058594 L 440.210938 528.21875 L 435.574219 528.160156 L 437.988281 521.058594 "/>
<path fill="none" stroke-width="1.5" stroke-linecap="butt" stroke-linejoin="miter" stroke="rgb(30.196078%, 68.627451%, 29.019608%)" stroke-opacity="1" stroke-miterlimit="10" d="M 568.410156 211.992188 C 591.347656 187.378906 602.324219 158.183594 598 124.839844 "/>
<path fill-rule="nonzero" fill="rgb(30.196078%, 68.627451%, 29.019608%)" fill-opacity="1" d="M 597.085938 117.765625 L 600.300781 124.542969 L 595.703125 125.136719 L 597.085938 117.765625 "/>
<path fill="none" stroke-width="1.5" stroke-linecap="butt" stroke-linejoin="miter" stroke="rgb(30.196078%, 68.627451%, 29.019608%)" stroke-opacity="1" stroke-miterlimit="10" d="M 596.808594 115.632812 C 604.886719 104.675781 608.550781 92.230469 604.667969 79.230469 "/>
<path fill-rule="nonzero" fill="rgb(30.196078%, 68.627451%, 29.019608%)" fill-opacity="1" d="M 602.625 72.394531 L 606.886719 78.566406 L 602.445312 79.894531 L 602.625 72.394531 "/>
<path fill="none" stroke-width="1.5" stroke-linecap="butt" stroke-linejoin="miter" stroke="rgb(30.196078%, 68.627451%, 29.019608%)" stroke-opacity="1" stroke-miterlimit="10" d="M 528.625 295.136719 C 553.113281 275.972656 567.394531 250.902344 568.207031 219.839844 "/>
<path fill-rule="nonzero" fill="rgb(30.196078%, 68.627451%, 29.019608%)" fill-opacity="1" d="M 568.394531 212.707031 L 570.523438 219.898438 L 565.890625 219.777344 L 568.394531 212.707031 "/>
<path fill="none" stroke-width="1.5" stroke-linecap="butt" stroke-linejoin="miter" stroke="rgb(30.196078%, 68.627451%, 29.019608%)" stroke-opacity="1" stroke-miterlimit="10" d="M 472.070312 407.855469 C 506.539062 381.328125 526.363281 346.417969 528.28125 302.980469 "/>
<path fill-rule="nonzero" fill="rgb(30.196078%, 68.627451%, 29.019608%)" fill-opacity="1" d="M 528.59375 295.851562 L 530.597656 303.082031 L 525.964844 302.875 L 528.59375 295.851562 "/>
<path fill="none" stroke-width="1.5" stroke-linecap="butt" stroke-linejoin="miter" stroke="rgb(41.568627%, 23.921569%, 60.392157%)" stroke-opacity="1" stroke-miterlimit="10" d="M 507.519531 412.488281 C 518.707031 361.875 509.933594 314.941406 478.601562 273.660156 "/>
<path fill-rule="nonzero" fill="rgb(41.568627%, 23.921569%, 60.392157%)" fill-opacity="1" d="M 474.289062 267.976562 L 480.449219 272.257812 L 476.757812 275.0625 L 474.289062 267.976562 "/>
<path fill="none" stroke-width="1.5" stroke-linecap="butt" stroke-linejoin="miter" stroke="rgb(41.568627%, 23.921569%, 60.392157%)" stroke-opacity="1" stroke-miterlimit="10" d="M 509.449219 524.335938 C 525.625 489.632812 527.078125 454.261719 510.847656 419.597656 "/>
<path fill-rule="nonzero" fill="rgb(41.568627%, 23.921569%, 60.392157%)" fill-opacity="1" d="M 507.824219 413.136719 L 512.949219 418.617188 L 508.75 420.582031 L 507.824219 413.136719 "/>
<path fill="none" stroke-width="1.5" stroke-linecap="butt" stroke-linejoin="miter" stroke="rgb(41.568627%, 23.921569%, 60.392157%)" stroke-opacity="1" stroke-miterlimit="10" d="M 433.421875 165.90625 C 429.941406 136.75 416.730469 112.882812 392.007812 97.078125 "/>
<path fill-rule="nonzero" fill="rgb(41.568627%, 23.921569%, 60.392157%)" fill-opacity="1" d="M 385.996094 93.238281 L 393.253906 95.125 L 390.757812 99.03125 L 385.996094 93.238281 "/>
<path fill="none" stroke-width="1.5" stroke-linecap="butt" stroke-linejoin="miter" stroke="rgb(41.568627%, 23.921569%, 60.392157%)" stroke-opacity="1" stroke-miterlimit="10" d="M 384.988281 92.59375 C 369.1875 83.746094 352.316406 81.300781 335.632812 88.265625 "/>
<path fill-rule="nonzero" fill="rgb(41.568627%, 23.921569%, 60.392157%)" fill-opacity="1" d="M 329.050781 91.015625 L 334.738281 86.128906 L 336.527344 90.40625 L 329.050781 91.015625 "/>
<path fill="none" stroke-width="1.5" stroke-linecap="butt" stroke-linejoin="miter" stroke="rgb(41.568627%, 23.921569%, 60.392157%)" stroke-opacity="1" stroke-miterlimit="10" d="M 384.988281 92.59375 C 392.0625 81.652344 394.871094 69.53125 390.355469 57.359375 "/>
<path fill-rule="nonzero" fill="rgb(41.568627%, 23.921569%, 60.392157%)" fill-opacity="1" d="M 387.875 50.671875 L 392.53125 56.554688 L 388.183594 58.167969 L 387.875 50.671875 "/>
<path fill="none" stroke-width="1.5" stroke-linecap="butt" stroke-linejoin="miter" stroke="rgb(41.568627%, 23.921569%, 60.392157%)" stroke-opacity="1" stroke-miterlimit="10" d="M 387.625 50 C 380.574219 60.765625 377.710938 72.734375 382.121094 84.773438 "/>
<path fill-rule="nonzero" fill="rgb(41.568627%, 23.921569%, 60.392157%)" fill-opacity="1" d="M 384.578125 91.472656 L 379.945312 85.574219 L 384.296875 83.976562 L 384.578125 91.472656 "/>
<path fill="none" stroke-width="1.5" stroke-linecap="butt" stroke-linejoin="miter" stroke="rgb(98.431373%, 60.392157%, 60%)" stroke-opacity="1" stroke-miterlimit="10" d="M 351.925781 211.050781 C 355.097656 223.734375 362.0625 234.101562 374.082031 239.132812 "/>
<path fill-rule="nonzero" fill="rgb(98.431373%, 60.392157%, 60%)" fill-opacity="1" d="M 380.664062 241.890625 L 373.1875 241.269531 L 374.976562 236.996094 L 380.664062 241.890625 "/>
<path fill="none" stroke-width="1.5" stroke-linecap="butt" stroke-linejoin="miter" stroke="rgb(98.431373%, 60.392157%, 60%)" stroke-opacity="1" stroke-miterlimit="10" d="M 462.226562 321.714844 C 476.890625 340.984375 496.265625 352.605469 520.441406 353.320312 "/>
<path fill-rule="nonzero" fill="rgb(98.431373%, 60.392157%, 60%)" fill-opacity="1" d="M 527.574219 353.53125 L 520.375 355.636719 L 520.511719 351.003906 L 527.574219 353.53125 "/>
<path fill="none" stroke-width="1.5" stroke-linecap="butt" stroke-linejoin="miter" stroke="rgb(98.431373%, 60.392157%, 60%)" stroke-opacity="1" stroke-miterlimit="10" d="M 742.882812 111.480469 C 748.011719 95.914062 747.371094 80.433594 738.207031 66.894531 "/>
<path fill-rule="nonzero" fill="rgb(98.431373%, 60.392157%, 60%)" fill-opacity="1" d="M 734.207031 60.988281 L 740.125 65.597656 L 736.289062 68.195312 L 734.207031 60.988281 "/>
<path fill="none" stroke-width="1.5" stroke-linecap="butt" stroke-linejoin="miter" stroke="rgb(12.156863%, 47.058824%, 70.588235%)" stroke-opacity="1" stroke-miterlimit="10" d="M 566.703125 167.132812 C 565.394531 200.523438 576.078125 229.589844 600.925781 251.902344 "/>
<path fill-rule="nonzero" fill="rgb(12.156863%, 47.058824%, 70.588235%)" fill-opacity="1" d="M 606.234375 256.667969 L 599.378906 253.628906 L 602.476562 250.179688 L 606.234375 256.667969 "/>
<path fill="none" stroke-width="1.5" stroke-linecap="butt" stroke-linejoin="miter" stroke="rgb(12.156863%, 47.058824%, 70.588235%)" stroke-opacity="1" stroke-miterlimit="10" d="M 606.769531 257.148438 C 598.8125 288.917969 603.203125 318.960938 622.582031 345.339844 "/>
<path fill-rule="nonzero" fill="rgb(12.156863%, 47.058824%, 70.588235%)" fill-opacity="1" d="M 626.804688 351.089844 L 620.714844 346.710938 L 624.449219 343.96875 L 626.804688 351.089844 "/>
<path fill="none" stroke-width="1.5" stroke-linecap="butt" stroke-linejoin="miter" stroke="rgb(12.156863%, 47.058824%, 70.588235%)" stroke-opacity="1" stroke-miterlimit="10" d="M 625.8125 637.597656 C 610.386719 653.195312 602.316406 672.0625 604.839844 693.824219 "/>
<path fill-rule="nonzero" fill="rgb(12.156863%, 47.058824%, 70.588235%)" fill-opacity="1" d="M 605.660156 700.910156 L 602.535156 694.09375 L 607.140625 693.558594 L 605.660156 700.910156 "/>
<path fill="none" stroke-width="1.5" stroke-linecap="butt" stroke-linejoin="miter" stroke="rgb(12.156863%, 47.058824%, 70.588235%)" stroke-opacity="1" stroke-miterlimit="10" d="M 605.742188 701.625 C 592.628906 711.585938 584.339844 724.765625 584.207031 741.195312 "/>
<path fill-rule="nonzero" fill="rgb(12.156863%, 47.058824%, 70.588235%)" fill-opacity="1" d="M 584.148438 748.328125 L 581.890625 741.175781 L 586.523438 741.214844 L 584.148438 748.328125 "/>
<path fill="none" stroke-width="1.5" stroke-linecap="butt" stroke-linejoin="miter" stroke="rgb(12.156863%, 47.058824%, 70.588235%)" stroke-opacity="1" stroke-miterlimit="10" d="M 638.183594 559.875 C 622.859375 581.09375 617.007812 604.753906 623.777344 630.015625 "/>
<path fill-rule="nonzero" fill="rgb(12.156863%, 47.058824%, 70.588235%)" fill-opacity="1" d="M 625.625 636.90625 L 621.539062 630.613281 L 626.015625 629.414062 L 625.625 636.90625 "/>
<path fill="none" stroke-width="1.5" stroke-linecap="butt" stroke-linejoin="miter" stroke="rgb(12.156863%, 47.058824%, 70.588235%)" stroke-opacity="1" stroke-miterlimit="10" d="M 638.804688 468.316406 C 624.890625 495.871094 622.636719 524.429688 635.03125 552.683594 "/>
<path fill-rule="nonzero" fill="rgb(12.156863%, 47.058824%, 70.588235%)" fill-opacity="1" d="M 637.894531 559.214844 L 632.90625 553.613281 L 637.152344 551.753906 L 637.894531 559.214844 "/>
<path fill="none" stroke-width="1.5" stroke-linecap="butt" stroke-linejoin="miter" stroke="rgb(12.156863%, 47.058824%, 70.588235%)" stroke-opacity="1" stroke-miterlimit="10" d="M 627.230469 351.667969 C 613.3125 389.429688 614.925781 426.582031 634.90625 461.5 "/>
<path fill-rule="nonzero" fill="rgb(12.156863%, 47.058824%, 70.588235%)" fill-opacity="1" d="M 638.445312 467.691406 L 632.894531 462.648438 L 636.917969 460.347656 L 638.445312 467.691406 "/>
<path fill="none" stroke-width="1.5" stroke-linecap="butt" stroke-linejoin="miter" stroke="rgb(12.156863%, 47.058824%, 70.588235%)" stroke-opacity="1" stroke-miterlimit="10" d="M 537.484375 116.722656 C 538.234375 135.417969 545.21875 151.566406 560.347656 162.527344 "/>
<path fill-rule="nonzero" fill="rgb(12.156863%, 47.058824%, 70.588235%)" fill-opacity="1" d="M 566.121094 166.710938 L 558.988281 164.402344 L 561.707031 160.648438 L 566.121094 166.710938 "/>
<path fill-rule="nonzero" fill="rgb(99.215686%, 74.901961%, 43.529412%)" fill-opacity="1" stroke-width="1" stroke-linecap="butt" stroke-linejoin="miter" stroke="rgb(99.215686%, 74.901961%, 43.529412%)" stroke-opacity="1" stroke-miterlimit="10" d="M 402.070312 456.699219 C 402.070312 457.699219 400.570312 457.699219 400.570312 456.699219 C 400.570312 455.699219 402.070312 455.699219 402.070312 456.699219 "/>
<path fill-rule="nonzero" fill="rgb(99.215686%, 74.901961%, 43.529412%)" fill-opacity="1" stroke-width="1" stroke-linecap="butt" stroke-linejoin="miter" stroke="rgb(99.215686%, 74.901961%, 43.529412%)" stroke-opacity="1" stroke-miterlimit="10" d="M 362.5625 458.667969 C 362.5625 459.667969 361.0625 459.667969 361.0625 458.667969 C 361.0625 457.667969 362.5625 457.667969 362.5625 458.667969 "/>
<path fill-rule="nonzero" fill="rgb(99.215686%, 74.901961%, 43.529412%)" fill-opacity="1" stroke-width="1" stroke-linecap="butt" stroke-linejoin="miter" stroke="rgb(99.215686%, 74.901961%, 43.529412%)" stroke-opacity="1" stroke-miterlimit="10" d="M 297.277344 522.214844 C 297.277344 523.214844 295.777344 523.214844 295.777344 522.214844 C 295.777344 521.214844 297.277344 521.214844 297.277344 522.214844 "/>
<path fill-rule="nonzero" fill="rgb(99.215686%, 74.901961%, 43.529412%)" fill-opacity="1" stroke-width="1" stroke-linecap="butt" stroke-linejoin="miter" stroke="rgb(99.215686%, 74.901961%, 43.529412%)" stroke-opacity="1" stroke-miterlimit="10" d="M 164.542969 406.261719 C 164.542969 407.261719 163.042969 407.261719 163.042969 406.261719 C 163.042969 405.261719 164.542969 405.261719 164.542969 406.261719 "/>
<path fill-rule="nonzero" fill="rgb(99.215686%, 74.901961%, 43.529412%)" fill-opacity="1" stroke-width="1" stroke-linecap="butt" stroke-linejoin="miter" stroke="rgb(99.215686%, 74.901961%, 43.529412%)" stroke-opacity="1" stroke-miterlimit="10" d="M 192.078125 519.40625 C 192.078125 520.40625 190.578125 520.40625 190.578125 519.40625 C 190.578125 518.40625 192.078125 518.40625 192.078125 519.40625 "/>
<path fill-rule="nonzero" fill="rgb(99.215686%, 74.901961%, 43.529412%)" fill-opacity="1" stroke-width="1" stroke-linecap="butt" stroke-linejoin="miter" stroke="rgb(99.215686%, 74.901961%, 43.529412%)" stroke-opacity="1" stroke-miterlimit="10" d="M 223.527344 557.191406 C 223.527344 558.191406 222.027344 558.191406 222.027344 557.191406 C 222.027344 556.191406 223.527344 556.191406 223.527344 557.191406 "/>
<path fill-rule="nonzero" fill="rgb(99.215686%, 74.901961%, 43.529412%)" fill-opacity="1" stroke-width="1" stroke-linecap="butt" stroke-linejoin="miter" stroke="rgb(99.215686%, 74.901961%, 43.529412%)" stroke-opacity="1" stroke-miterlimit="10" d="M 326.808594 483.382812 C 326.808594 484.382812 325.308594 484.382812 325.308594 483.382812 C 325.308594 482.382812 326.808594 482.382812 326.808594 483.382812 "/>
<path fill-rule="nonzero" fill="rgb(99.215686%, 74.901961%, 43.529412%)" fill-opacity="1" stroke-width="1" stroke-linecap="butt" stroke-linejoin="miter" stroke="rgb(99.215686%, 74.901961%, 43.529412%)" stroke-opacity="1" stroke-miterlimit="10" d="M 264.28125 555.558594 C 264.28125 556.558594 262.78125 556.558594 262.78125 555.558594 C 262.78125 554.558594 264.28125 554.558594 264.28125 555.558594 "/>
<path fill-rule="nonzero" fill="rgb(99.215686%, 74.901961%, 43.529412%)" fill-opacity="1" stroke-width="1" stroke-linecap="butt" stroke-linejoin="miter" stroke="rgb(99.215686%, 74.901961%, 43.529412%)" stroke-opacity="1" stroke-miterlimit="10" d="M 144.695312 354.023438 C 144.695312 355.023438 143.195312 355.023438 143.195312 354.023438 C 143.195312 353.023438 144.695312 353.023438 144.695312 354.023438 "/>
<path fill-rule="nonzero" fill="rgb(99.215686%, 74.901961%, 43.529412%)" fill-opacity="1" stroke-width="1" stroke-linecap="butt" stroke-linejoin="miter" stroke="rgb(99.215686%, 74.901961%, 43.529412%)" stroke-opacity="1" stroke-miterlimit="10" d="M 72.429688 346.921875 C 72.429688 347.921875 70.929688 347.921875 70.929688 346.921875 C 70.929688 345.921875 72.429688 345.921875 72.429688 346.921875 "/>
<path fill-rule="nonzero" fill="rgb(14.901961%, 14.901961%, 14.901961%)" fill-opacity="1" stroke-width="1" stroke-linecap="butt" stroke-linejoin="miter" stroke="rgb(14.901961%, 14.901961%, 14.901961%)" stroke-opacity="1" stroke-miterlimit="10" d="M 48.25 389.476562 L 50 385.976562 L 51.75 389.476562 Z M 48.25 389.476562 "/>
<path fill-rule="nonzero" fill="rgb(99.215686%, 74.901961%, 43.529412%)" fill-opacity="1" stroke-width="1" stroke-linecap="butt" stroke-linejoin="miter" stroke="rgb(99.215686%, 74.901961%, 43.529412%)" stroke-opacity="1" stroke-miterlimit="10" d="M 109.117188 326.941406 C 109.117188 327.941406 107.617188 327.941406 107.617188 326.941406 C 107.617188 325.941406 109.117188 325.941406 109.117188 326.941406 "/>
<path fill-rule="nonzero" fill="rgb(99.215686%, 74.901961%, 43.529412%)" fill-opacity="1" stroke-width="1" stroke-linecap="butt" stroke-linejoin="miter" stroke="rgb(99.215686%, 74.901961%, 43.529412%)" stroke-opacity="1" stroke-miterlimit="10" d="M 176.078125 464.242188 C 176.078125 465.242188 174.578125 465.242188 174.578125 464.242188 C 174.578125 463.242188 176.078125 463.242188 176.078125 464.242188 "/>
<path fill-rule="nonzero" fill="rgb(100%, 84.313725%, 0%)" fill-opacity="1" stroke-width="1" stroke-linecap="butt" stroke-linejoin="miter" stroke="rgb(100%, 84.313725%, 0%)" stroke-opacity="1" stroke-miterlimit="10" d="M 437.558594 464.941406 L 440.058594 464.941406 L 440.058594 467.441406 L 437.558594 467.441406 Z M 437.558594 464.941406 "/>
<path fill-rule="nonzero" fill="rgb(98.431373%, 60.392157%, 60%)" fill-opacity="1" stroke-width="1" stroke-linecap="butt" stroke-linejoin="miter" stroke="rgb(98.431373%, 60.392157%, 60%)" stroke-opacity="1" stroke-miterlimit="10" d="M 529.042969 353.550781 C 529.042969 354.550781 527.542969 354.550781 527.542969 353.550781 C 527.542969 352.550781 529.042969 352.550781 529.042969 353.550781 "/>
<path fill-rule="nonzero" fill="rgb(98.431373%, 60.392157%, 60%)" fill-opacity="1" stroke-width="1" stroke-linecap="butt" stroke-linejoin="miter" stroke="rgb(98.431373%, 60.392157%, 60%)" stroke-opacity="1" stroke-miterlimit="10" d="M 661.046875 382.875 C 661.046875 383.875 659.546875 383.875 659.546875 382.875 C 659.546875 381.875 661.046875 381.875 661.046875 382.875 "/>
<path fill-rule="nonzero" fill="rgb(41.568627%, 23.921569%, 60.392157%)" fill-opacity="1" stroke-width="1" stroke-linecap="butt" stroke-linejoin="miter" stroke="rgb(41.568627%, 23.921569%, 60.392157%)" stroke-opacity="1" stroke-miterlimit="10" d="M 495.089844 609.742188 C 495.089844 610.742188 493.589844 610.742188 493.589844 609.742188 C 493.589844 608.742188 495.089844 608.742188 495.089844 609.742188 "/>
<path fill-rule="nonzero" fill="rgb(98.431373%, 60.392157%, 60%)" fill-opacity="1" stroke-width="1" stroke-linecap="butt" stroke-linejoin="miter" stroke="rgb(98.431373%, 60.392157%, 60%)" stroke-opacity="1" stroke-miterlimit="10" d="M 382.074219 242.164062 C 382.074219 243.164062 380.574219 243.164062 380.574219 242.164062 C 380.574219 241.164062 382.074219 241.164062 382.074219 242.164062 "/>
<path fill-rule="nonzero" fill="rgb(98.431373%, 60.392157%, 60%)" fill-opacity="1" stroke-width="1" stroke-linecap="butt" stroke-linejoin="miter" stroke="rgb(98.431373%, 60.392157%, 60%)" stroke-opacity="1" stroke-miterlimit="10" d="M 738.414062 300.898438 C 738.414062 301.898438 736.914062 301.898438 736.914062 300.898438 C 736.914062 299.898438 738.414062 299.898438 738.414062 300.898438 "/>
<path fill-rule="nonzero" fill="rgb(98.431373%, 60.392157%, 60%)" fill-opacity="1" stroke-width="1" stroke-linecap="butt" stroke-linejoin="miter" stroke="rgb(98.431373%, 60.392157%, 60%)" stroke-opacity="1" stroke-miterlimit="10" d="M 708.640625 353.144531 C 708.640625 354.144531 707.140625 354.144531 707.140625 353.144531 C 707.140625 352.144531 708.640625 352.144531 708.640625 353.144531 "/>
<path fill-rule="nonzero" fill="rgb(100%, 84.313725%, 0%)" fill-opacity="1" stroke-width="1" stroke-linecap="butt" stroke-linejoin="miter" stroke="rgb(100%, 84.313725%, 0%)" stroke-opacity="1" stroke-miterlimit="10" d="M 474.40625 666.039062 L 476.90625 666.039062 L 476.90625 668.539062 L 474.40625 668.539062 Z M 474.40625 666.039062 "/>
<path fill-rule="nonzero" fill="rgb(98.431373%, 60.392157%, 60%)" fill-opacity="1" stroke-width="1" stroke-linecap="butt" stroke-linejoin="miter" stroke="rgb(98.431373%, 60.392157%, 60%)" stroke-opacity="1" stroke-miterlimit="10" d="M 750.699219 172.464844 C 750.699219 173.464844 749.199219 173.464844 749.199219 172.464844 C 749.199219 171.464844 750.699219 171.464844 750.699219 172.464844 "/>
<path fill-rule="nonzero" fill="rgb(41.568627%, 23.921569%, 60.392157%)" fill-opacity="1" stroke-width="1" stroke-linecap="butt" stroke-linejoin="miter" stroke="rgb(41.568627%, 23.921569%, 60.392157%)" stroke-opacity="1" stroke-miterlimit="10" d="M 329.136719 91.289062 C 329.136719 92.289062 327.636719 92.289062 327.636719 91.289062 C 327.636719 90.289062 329.136719 90.289062 329.136719 91.289062 "/>
<path fill-rule="nonzero" fill="rgb(98.431373%, 60.392157%, 60%)" fill-opacity="1" stroke-width="1" stroke-linecap="butt" stroke-linejoin="miter" stroke="rgb(98.431373%, 60.392157%, 60%)" stroke-opacity="1" stroke-miterlimit="10" d="M 750.75 237.398438 C 750.75 238.398438 749.25 238.398438 749.25 237.398438 C 749.25 236.398438 750.75 236.398438 750.75 237.398438 "/>
<path fill-rule="nonzero" fill="rgb(98.431373%, 60.392157%, 60%)" fill-opacity="1" stroke-width="1" stroke-linecap="butt" stroke-linejoin="miter" stroke="rgb(98.431373%, 60.392157%, 60%)" stroke-opacity="1" stroke-miterlimit="10" d="M 416.382812 280.464844 C 416.382812 281.464844 414.882812 281.464844 414.882812 280.464844 C 414.882812 279.464844 416.382812 279.464844 416.382812 280.464844 "/>
<path fill-rule="nonzero" fill="rgb(41.568627%, 23.921569%, 60.392157%)" fill-opacity="1" stroke-width="1" stroke-linecap="butt" stroke-linejoin="miter" stroke="rgb(41.568627%, 23.921569%, 60.392157%)" stroke-opacity="1" stroke-miterlimit="10" d="M 284.605469 120.273438 C 284.605469 121.273438 283.105469 121.273438 283.105469 120.273438 C 283.105469 119.273438 284.605469 119.273438 284.605469 120.273438 "/>
<path fill-rule="nonzero" fill="rgb(41.568627%, 23.921569%, 60.392157%)" fill-opacity="1" stroke-width="1" stroke-linecap="butt" stroke-linejoin="miter" stroke="rgb(41.568627%, 23.921569%, 60.392157%)" stroke-opacity="1" stroke-miterlimit="10" d="M 259.121094 173.121094 C 259.121094 174.121094 257.621094 174.121094 257.621094 173.121094 C 257.621094 172.121094 259.121094 172.121094 259.121094 173.121094 "/>
<path fill-rule="nonzero" fill="rgb(98.431373%, 60.392157%, 60%)" fill-opacity="1" stroke-width="1" stroke-linecap="butt" stroke-linejoin="miter" stroke="rgb(98.431373%, 60.392157%, 60%)" stroke-opacity="1" stroke-miterlimit="10" d="M 590.808594 380.253906 C 590.808594 381.253906 589.308594 381.253906 589.308594 380.253906 C 589.308594 379.253906 590.808594 379.253906 590.808594 380.253906 "/>
<path fill-rule="nonzero" fill="rgb(41.568627%, 23.921569%, 60.392157%)" fill-opacity="1" stroke-width="1" stroke-linecap="butt" stroke-linejoin="miter" stroke="rgb(41.568627%, 23.921569%, 60.392157%)" stroke-opacity="1" stroke-miterlimit="10" d="M 474.605469 267.40625 C 474.605469 268.40625 473.105469 268.40625 473.105469 267.40625 C 473.105469 266.40625 474.605469 266.40625 474.605469 267.40625 "/>
<path fill-rule="nonzero" fill="rgb(41.568627%, 23.921569%, 60.392157%)" fill-opacity="1" stroke-width="1" stroke-linecap="butt" stroke-linejoin="miter" stroke="rgb(41.568627%, 23.921569%, 60.392157%)" stroke-opacity="1" stroke-miterlimit="10" d="M 253.804688 232.582031 C 253.804688 233.582031 252.304688 233.582031 252.304688 232.582031 C 252.304688 231.582031 253.804688 231.582031 253.804688 232.582031 "/>
<path fill-rule="nonzero" fill="rgb(14.901961%, 14.901961%, 14.901961%)" fill-opacity="1" stroke-width="1" stroke-linecap="butt" stroke-linejoin="miter" stroke="rgb(14.901961%, 14.901961%, 14.901961%)" stroke-opacity="1" stroke-miterlimit="10" d="M 731.519531 61.355469 L 733.269531 57.855469 L 735.019531 61.355469 Z M 731.519531 61.355469 "/>
<path fill-rule="nonzero" fill="rgb(30.196078%, 68.627451%, 29.019608%)" fill-opacity="1" stroke-width="1" stroke-linecap="butt" stroke-linejoin="miter" stroke="rgb(30.196078%, 68.627451%, 29.019608%)" stroke-opacity="1" stroke-miterlimit="10" d="M 603.171875 71.707031 C 603.171875 72.707031 601.671875 72.707031 601.671875 71.707031 C 601.671875 70.707031 603.171875 70.707031 603.171875 71.707031 "/>
<path fill-rule="nonzero" fill="rgb(14.901961%, 14.901961%, 14.901961%)" fill-opacity="1" stroke-width="1" stroke-linecap="butt" stroke-linejoin="miter" stroke="rgb(14.901961%, 14.901961%, 14.901961%)" stroke-opacity="1" stroke-miterlimit="10" d="M 257.78125 286.292969 L 259.53125 282.792969 L 261.28125 286.292969 Z M 257.78125 286.292969 "/>
<path fill-rule="nonzero" fill="rgb(100%, 84.313725%, 0%)" fill-opacity="1" stroke-width="1" stroke-linecap="butt" stroke-linejoin="miter" stroke="rgb(100%, 84.313725%, 0%)" stroke-opacity="1" stroke-miterlimit="10" d="M 436.261719 517.636719 L 439.761719 517.636719 L 439.761719 521.136719 L 436.261719 521.136719 Z M 436.261719 517.636719 "/>
<path fill-rule="nonzero" fill="rgb(30.196078%, 68.627451%, 29.019608%)" fill-opacity="1" stroke-width="1" stroke-linecap="butt" stroke-linejoin="miter" stroke="rgb(30.196078%, 68.627451%, 29.019608%)" stroke-opacity="1" stroke-miterlimit="10" d="M 421.046875 558.742188 C 421.046875 559.742188 419.546875 559.742188 419.546875 558.742188 C 419.546875 557.742188 421.046875 557.742188 421.046875 558.742188 "/>
<path fill-rule="nonzero" fill="rgb(30.196078%, 68.627451%, 29.019608%)" fill-opacity="1" stroke-width="1" stroke-linecap="butt" stroke-linejoin="miter" stroke="rgb(30.196078%, 68.627451%, 29.019608%)" stroke-opacity="1" stroke-miterlimit="10" d="M 569.160156 211.992188 C 569.160156 212.992188 567.660156 212.992188 567.660156 211.992188 C 567.660156 210.992188 569.160156 210.992188 569.160156 211.992188 "/>
<path fill-rule="nonzero" fill="rgb(14.901961%, 14.901961%, 14.901961%)" fill-opacity="1" stroke-width="1" stroke-linecap="butt" stroke-linejoin="miter" stroke="rgb(14.901961%, 14.901961%, 14.901961%)" stroke-opacity="1" stroke-miterlimit="10" d="M 594.558594 117.882812 L 596.808594 113.382812 L 599.058594 117.882812 Z M 594.558594 117.882812 "/>
<path fill-rule="nonzero" fill="rgb(30.196078%, 68.627451%, 29.019608%)" fill-opacity="1" stroke-width="1" stroke-linecap="butt" stroke-linejoin="miter" stroke="rgb(30.196078%, 68.627451%, 29.019608%)" stroke-opacity="1" stroke-miterlimit="10" d="M 529.375 295.136719 C 529.375 296.136719 527.875 296.136719 527.875 295.136719 C 527.875 294.136719 529.375 294.136719 529.375 295.136719 "/>
<path fill-rule="nonzero" fill="rgb(30.196078%, 68.627451%, 29.019608%)" fill-opacity="1" stroke-width="1" stroke-linecap="butt" stroke-linejoin="miter" stroke="rgb(30.196078%, 68.627451%, 29.019608%)" stroke-opacity="1" stroke-miterlimit="10" d="M 472.820312 407.855469 C 472.820312 408.855469 471.320312 408.855469 471.320312 407.855469 C 471.320312 406.855469 472.820312 406.855469 472.820312 407.855469 "/>
<path fill-rule="nonzero" fill="rgb(41.568627%, 23.921569%, 60.392157%)" fill-opacity="1" stroke-width="1" stroke-linecap="butt" stroke-linejoin="miter" stroke="rgb(41.568627%, 23.921569%, 60.392157%)" stroke-opacity="1" stroke-miterlimit="10" d="M 508.269531 412.488281 C 508.269531 413.488281 506.769531 413.488281 506.769531 412.488281 C 506.769531 411.488281 508.269531 411.488281 508.269531 412.488281 "/>
<path fill-rule="nonzero" fill="rgb(41.568627%, 23.921569%, 60.392157%)" fill-opacity="1" stroke-width="1" stroke-linecap="butt" stroke-linejoin="miter" stroke="rgb(41.568627%, 23.921569%, 60.392157%)" stroke-opacity="1" stroke-miterlimit="10" d="M 510.199219 524.335938 C 510.199219 525.335938 508.699219 525.335938 508.699219 524.335938 C 508.699219 523.335938 510.199219 523.335938 510.199219 524.335938 "/>
<path fill-rule="nonzero" fill="rgb(41.568627%, 23.921569%, 60.392157%)" fill-opacity="1" stroke-width="1" stroke-linecap="butt" stroke-linejoin="miter" stroke="rgb(41.568627%, 23.921569%, 60.392157%)" stroke-opacity="1" stroke-miterlimit="10" d="M 434.171875 165.90625 C 434.171875 166.90625 432.671875 166.90625 432.671875 165.90625 C 432.671875 164.90625 434.171875 164.90625 434.171875 165.90625 "/>
<path fill-rule="nonzero" fill="rgb(41.568627%, 23.921569%, 60.392157%)" fill-opacity="1" stroke-width="1" stroke-linecap="butt" stroke-linejoin="miter" stroke="rgb(41.568627%, 23.921569%, 60.392157%)" stroke-opacity="1" stroke-miterlimit="10" d="M 386.238281 92.59375 C 386.238281 94.257812 383.738281 94.257812 383.738281 92.59375 C 383.738281 90.925781 386.238281 90.925781 386.238281 92.59375 "/>
<path fill-rule="nonzero" fill="rgb(41.568627%, 23.921569%, 60.392157%)" fill-opacity="1" stroke-width="1" stroke-linecap="butt" stroke-linejoin="miter" stroke="rgb(41.568627%, 23.921569%, 60.392157%)" stroke-opacity="1" stroke-miterlimit="10" d="M 388.375 50 C 388.375 51 386.875 51 386.875 50 C 386.875 49 388.375 49 388.375 50 "/>
<path fill-rule="nonzero" fill="rgb(100%, 84.313725%, 0%)" fill-opacity="1" stroke-width="1" stroke-linecap="butt" stroke-linejoin="miter" stroke="rgb(100%, 84.313725%, 0%)" stroke-opacity="1" stroke-miterlimit="10" d="M 350.675781 209.800781 L 353.175781 209.800781 L 353.175781 212.300781 L 350.675781 212.300781 Z M 350.675781 209.800781 "/>
<path fill-rule="nonzero" fill="rgb(98.431373%, 60.392157%, 60%)" fill-opacity="1" stroke-width="1" stroke-linecap="butt" stroke-linejoin="miter" stroke="rgb(98.431373%, 60.392157%, 60%)" stroke-opacity="1" stroke-miterlimit="10" d="M 462.976562 321.714844 C 462.976562 322.714844 461.476562 322.714844 461.476562 321.714844 C 461.476562 320.714844 462.976562 320.714844 462.976562 321.714844 "/>
<path fill-rule="nonzero" fill="rgb(98.431373%, 60.392157%, 60%)" fill-opacity="1" stroke-width="1" stroke-linecap="butt" stroke-linejoin="miter" stroke="rgb(98.431373%, 60.392157%, 60%)" stroke-opacity="1" stroke-miterlimit="10" d="M 743.632812 111.480469 C 743.632812 112.480469 742.132812 112.480469 742.132812 111.480469 C 742.132812 110.480469 743.632812 110.480469 743.632812 111.480469 "/>
<path fill-rule="nonzero" fill="rgb(12.156863%, 47.058824%, 70.588235%)" fill-opacity="1" stroke-width="1" stroke-linecap="butt" stroke-linejoin="miter" stroke="rgb(12.156863%, 47.058824%, 70.588235%)" stroke-opacity="1" stroke-miterlimit="10" d="M 567.453125 167.132812 C 567.453125 168.132812 565.953125 168.132812 565.953125 167.132812 C 565.953125 166.132812 567.453125 166.132812 567.453125 167.132812 "/>
<path fill-rule="nonzero" fill="rgb(12.156863%, 47.058824%, 70.588235%)" fill-opacity="1" stroke-width="1" stroke-linecap="butt" stroke-linejoin="miter" stroke="rgb(12.156863%, 47.058824%, 70.588235%)" stroke-opacity="1" stroke-miterlimit="10" d="M 607.519531 257.148438 C 607.519531 258.148438 606.019531 258.148438 606.019531 257.148438 C 606.019531 256.148438 607.519531 256.148438 607.519531 257.148438 "/>
<path fill-rule="nonzero" fill="rgb(12.156863%, 47.058824%, 70.588235%)" fill-opacity="1" stroke-width="1" stroke-linecap="butt" stroke-linejoin="miter" stroke="rgb(12.156863%, 47.058824%, 70.588235%)" stroke-opacity="1" stroke-miterlimit="10" d="M 626.5625 637.597656 C 626.5625 638.597656 625.0625 638.597656 625.0625 637.597656 C 625.0625 636.597656 626.5625 636.597656 626.5625 637.597656 "/>
<path fill-rule="nonzero" fill="rgb(14.901961%, 14.901961%, 14.901961%)" fill-opacity="1" stroke-width="1" stroke-linecap="butt" stroke-linejoin="miter" stroke="rgb(14.901961%, 14.901961%, 14.901961%)" stroke-opacity="1" stroke-miterlimit="10" d="M 582.386719 751.75 L 584.136719 748.25 L 585.886719 751.75 Z M 582.386719 751.75 "/>
<path fill-rule="nonzero" fill="rgb(12.156863%, 47.058824%, 70.588235%)" fill-opacity="1" stroke-width="1" stroke-linecap="butt" stroke-linejoin="miter" stroke="rgb(12.156863%, 47.058824%, 70.588235%)" stroke-opacity="1" stroke-miterlimit="10" d="M 606.492188 701.625 C 606.492188 702.625 604.992188 702.625 604.992188 701.625 C 604.992188 700.625 606.492188 700.625 606.492188 701.625 "/>
<path fill-rule="nonzero" fill="rgb(12.156863%, 47.058824%, 70.588235%)" fill-opacity="1" stroke-width="1" stroke-linecap="butt" stroke-linejoin="miter" stroke="rgb(12.156863%, 47.058824%, 70.588235%)" stroke-opacity="1" stroke-miterlimit="10" d="M 638.933594 559.875 C 638.933594 560.875 637.433594 560.875 637.433594 559.875 C 637.433594 558.875 638.933594 558.875 638.933594 559.875 "/>
<path fill-rule="nonzero" fill="rgb(12.156863%, 47.058824%, 70.588235%)" fill-opacity="1" stroke-width="1" stroke-linecap="butt" stroke-linejoin="miter" stroke="rgb(12.156863%, 47.058824%, 70.588235%)" stroke-opacity="1" stroke-miterlimit="10" d="M 639.554688 468.316406 C 639.554688 469.316406 638.054688 469.316406 638.054688 468.316406 C 638.054688 467.316406 639.554688 467.316406 639.554688 468.316406 "/>
<path fill-rule="nonzero" fill="rgb(12.156863%, 47.058824%, 70.588235%)" fill-opacity="1" stroke-width="1" stroke-linecap="butt" stroke-linejoin="miter" stroke="rgb(12.156863%, 47.058824%, 70.588235%)" stroke-opacity="1" stroke-miterlimit="10" d="M 627.980469 351.667969 C 627.980469 352.667969 626.480469 352.667969 626.480469 351.667969 C 626.480469 350.667969 627.980469 350.667969 627.980469 351.667969 "/>
<path fill-rule="nonzero" fill="rgb(100%, 84.313725%, 0%)" fill-opacity="1" stroke-width="1" stroke-linecap="butt" stroke-linejoin="miter" stroke="rgb(100%, 84.313725%, 0%)" stroke-opacity="1" stroke-miterlimit="10" d="M 536.234375 115.472656 L 538.734375 115.472656 L 538.734375 117.972656 L 536.234375 117.972656 Z M 536.234375 115.472656 "/>
</svg>
