<?xml version="1.0" encoding="UTF-8"?>
<svg xmlns="http://www.w3.org/2000/svg" xmlns:xlink="http://www.w3.org/1999/xlink" width="800" height="800" viewBox="0 0 800 800">
<rect x="-80" y="-80" width="960" height="960" fill="rgb(100%, 100%, 100%)" fill-opacity="1"/>
<path fill="none" stroke-width="1.5" stroke-linecap="butt" stroke-linejoin="miter" stroke="rgb(41.568627%, 23.921569%, 60.392157%)" stroke-opacity="1" stroke-miterlimit="10" d="M 519.183594 300.238281 C 534.652344 300.59375 548.601562 295.851562 558.175781 283.757812 "/>
<path fill-rule="nonzero" fill="rgb(41.568627%, 23.921569%, 60.392157%)" fill-opacity="1" d="M 562.601562 278.164062 L 559.992188 285.195312 L 556.359375 282.316406 L 562.601562 278.164062 "/>
<path fill="none" stroke-width="3.5" stroke-linecap="butt" stroke-linejoin="miter" stroke="rgb(70.196078%, 70.196078%, 70.196078%)" stroke-opacity="1" stroke-miterlimit="10" d="M 519.183594 300.238281 C 523.402344 312.289062 531.070312 321.863281 543.230469 325.570312 "/>
<path fill-rule="nonzero" fill="rgb(70.196078%, 70.196078%, 70.196078%)" fill-opacity="1" d="M 550.054688 327.648438 L 542.554688 327.785156 L 543.90625 323.351562 L 550.054688 327.648438 "/>
<path fill="none" stroke-width="1.5" stroke-linecap="butt" stroke-linejoin="miter" stroke="rgb(98.431373%, 60.392157%, 60%)" stroke-opacity="1" stroke-miterlimit="10" d="M 519.183594 300.238281 C 536.160156 269.070312 539.667969 236.378906 526.546875 203.421875 "/>
<path fill-rule="nonzero" fill="rgb(98.431373%, 60.392157%, 60%)" fill-opacity="1" d="M 523.90625 196.792969 L 528.699219 202.5625 L 524.394531 204.277344 L 523.90625 196.792969 "/>
<path fill="none" stroke-width="1.5" stroke-linecap="butt" stroke-linejoin="miter" stroke="rgb(41.568627%, 23.921569%, 60.392157%)" stroke-opacity="1" stroke-miterlimit="10" d="M 566.894531 272.746094 C 551.421875 272.390625 537.476562 277.132812 527.902344 289.226562 "/>
<path fill-rule="nonzero" fill="rgb(41.568627%, 23.921569%, 60.392157%)" fill-opacity="1" d="M 523.472656 294.820312 L 526.085938 287.789062 L 529.71875 290.664062 L 523.472656 294.820312 "/>
<path fill="none" stroke-width="1.5" stroke-linecap="butt" stroke-linejoin="miter" stroke="rgb(98.431373%, 60.392157%, 60%)" stroke-opacity="1" stroke-miterlimit="10" d="M 566.894531 272.746094 C 582.484375 247.578125 587.105469 220.445312 577.535156 192.453125 "/>
<path fill-rule="nonzero" fill="rgb(98.431373%, 60.392157%, 60%)" fill-opacity="1" d="M 575.226562 185.703125 L 579.726562 191.703125 L 575.339844 193.203125 L 575.226562 185.703125 "/>
<path fill="none" stroke-width="1.5" stroke-linecap="butt" stroke-linejoin="miter" stroke="rgb(41.568627%, 23.921569%, 60.392157%)" stroke-opacity="1" stroke-miterlimit="10" d="M 566.894531 272.746094 C 555.609375 285.359375 549.777344 300.292969 552.898438 316.886719 "/>
<path fill-rule="nonzero" fill="rgb(41.568627%, 23.921569%, 60.392157%)" fill-opacity="1" d="M 554.21875 323.894531 L 550.621094 317.3125 L 555.175781 316.457031 L 554.21875 323.894531 "/>
<path fill="none" stroke-width="2.5" stroke-linecap="butt" stroke-linejoin="miter" stroke="rgb(70.196078%, 70.196078%, 70.196078%)" stroke-opacity="1" stroke-miterlimit="10" d="M 601.75 123.214844 C 612.289062 102.910156 614.527344 81.605469 605.246094 60.730469 "/>
<path fill-rule="nonzero" fill="rgb(70.196078%, 70.196078%, 70.196078%)" fill-opacity="1" d="M 602.347656 54.210938 L 607.363281 59.789062 L 603.128906 61.671875 L 602.347656 54.210938 "/>
<path fill="none" stroke-width="1.5" stroke-linecap="butt" stroke-linejoin="miter" stroke="rgb(98.431373%, 60.392157%, 60%)" stroke-opacity="1" stroke-miterlimit="10" d="M 601.75 123.214844 C 596.285156 151.601562 601.484375 177.984375 619.984375 200.167969 "/>
<path fill-rule="nonzero" fill="rgb(98.431373%, 60.392157%, 60%)" fill-opacity="1" d="M 624.554688 205.644531 L 618.207031 201.652344 L 621.765625 198.683594 L 624.554688 205.644531 "/>
<path fill="none" stroke-width="1.5" stroke-linecap="butt" stroke-linejoin="miter" stroke="rgb(12.156863%, 47.058824%, 70.588235%)" stroke-opacity="1" stroke-miterlimit="10" d="M 601.75 123.214844 C 609.210938 146.675781 623.761719 164.519531 646.703125 173.378906 "/>
<path fill-rule="nonzero" fill="rgb(12.156863%, 47.058824%, 70.588235%)" fill-opacity="1" d="M 653.355469 175.945312 L 645.867188 175.539062 L 647.535156 171.214844 L 653.355469 175.945312 "/>
<path fill="none" stroke-width="1.5" stroke-linecap="butt" stroke-linejoin="miter" stroke="rgb(98.431373%, 60.392157%, 60%)" stroke-opacity="1" stroke-miterlimit="10" d="M 601.75 123.214844 C 624.097656 126.292969 644.609375 121.3125 660.953125 105.804688 "/>
<path fill-rule="nonzero" fill="rgb(98.431373%, 60.392157%, 60%)" fill-opacity="1" d="M 666.128906 100.898438 L 662.550781 107.488281 L 659.359375 104.125 L 666.128906 100.898438 "/>
<path fill="none" stroke-width="2.5" stroke-linecap="butt" stroke-linejoin="miter" stroke="rgb(70.196078%, 70.196078%, 70.196078%)" stroke-opacity="1" stroke-miterlimit="10" d="M 600.476562 50 C 590.035156 69.085938 587.355469 89.351562 595.855469 109.34375 "/>
<path fill-rule="nonzero" fill="rgb(70.196078%, 70.196078%, 70.196078%)" fill-opacity="1" d="M 598.644531 115.90625 L 593.722656 110.25 L 597.988281 108.4375 L 598.644531 115.90625 "/>
<path fill="none" stroke-width="1.5" stroke-linecap="butt" stroke-linejoin="miter" stroke="rgb(12.156863%, 47.058824%, 70.588235%)" stroke-opacity="1" stroke-miterlimit="10" d="M 374.585938 222.808594 C 390.257812 196.496094 394.511719 168.367188 384.148438 139.570312 "/>
<path fill-rule="nonzero" fill="rgb(12.156863%, 47.058824%, 70.588235%)" fill-opacity="1" d="M 381.730469 132.859375 L 386.328125 138.785156 L 381.96875 140.355469 L 381.730469 132.859375 "/>
<path fill="none" stroke-width="1.5" stroke-linecap="butt" stroke-linejoin="miter" stroke="rgb(98.431373%, 60.392157%, 60%)" stroke-opacity="1" stroke-miterlimit="10" d="M 574.378906 183.21875 C 590.007812 172.230469 600.125 157.300781 601.035156 138.253906 "/>
<path fill-rule="nonzero" fill="rgb(98.431373%, 60.392157%, 60%)" fill-opacity="1" d="M 601.375 131.132812 L 603.347656 138.367188 L 598.71875 138.144531 L 601.375 131.132812 "/>
<path fill="none" stroke-width="5.5" stroke-linecap="butt" stroke-linejoin="miter" stroke="rgb(70.196078%, 70.196078%, 70.196078%)" stroke-opacity="1" stroke-miterlimit="10" d="M 255.527344 387.953125 C 262.375 413.125 277.011719 432.574219 300.863281 443.066406 "/>
<path fill-rule="nonzero" fill="rgb(70.196078%, 70.196078%, 70.196078%)" fill-opacity="1" d="M 307.390625 445.9375 L 299.929688 445.1875 L 301.792969 440.945312 L 307.390625 445.9375 "/>
<path fill="none" stroke-width="5.5" stroke-linecap="butt" stroke-linejoin="miter" stroke="rgb(70.196078%, 70.196078%, 70.196078%)" stroke-opacity="1" stroke-miterlimit="10" d="M 50 374.683594 C 66.386719 350.148438 71.957031 323.265625 63.335938 295.070312 "/>
<path fill-rule="nonzero" fill="rgb(70.196078%, 70.196078%, 70.196078%)" fill-opacity="1" d="M 61.25 288.25 L 65.550781 294.394531 L 61.121094 295.75 L 61.25 288.25 "/>
<path fill="none" stroke-width="2.5" stroke-linecap="butt" stroke-linejoin="miter" stroke="rgb(70.196078%, 70.196078%, 70.196078%)" stroke-opacity="1" stroke-miterlimit="10" d="M 555.222656 329.222656 C 551.375 317.574219 544.179688 308.179688 532.546875 304.484375 "/>
<path fill-rule="nonzero" fill="rgb(70.196078%, 70.196078%, 70.196078%)" fill-opacity="1" d="M 525.75 302.324219 L 533.25 302.273438 L 531.84375 306.691406 L 525.75 302.324219 "/>
<path fill="none" stroke-width="2.5" stroke-linecap="butt" stroke-linejoin="miter" stroke="rgb(41.568627%, 23.921569%, 60.392157%)" stroke-opacity="1" stroke-miterlimit="10" d="M 555.222656 329.222656 C 566.332031 317.128906 572.238281 302.699219 569.363281 286.574219 "/>
<path fill-rule="nonzero" fill="rgb(41.568627%, 23.921569%, 60.392157%)" fill-opacity="1" d="M 568.109375 279.554688 L 571.644531 286.167969 L 567.082031 286.984375 L 568.109375 279.554688 "/>
<path fill="none" stroke-width="1.5" stroke-linecap="butt" stroke-linejoin="miter" stroke="rgb(98.431373%, 60.392157%, 60%)" stroke-opacity="1" stroke-miterlimit="10" d="M 626.539062 208.027344 C 600.542969 216.964844 581.117188 233.703125 571.71875 259.503906 "/>
<path fill-rule="nonzero" fill="rgb(98.431373%, 60.392157%, 60%)" fill-opacity="1" d="M 569.273438 266.207031 L 569.539062 258.710938 L 573.894531 260.300781 L 569.273438 266.207031 "/>
<path fill="none" stroke-width="1.5" stroke-linecap="butt" stroke-linejoin="miter" stroke="rgb(98.431373%, 60.392157%, 60%)" stroke-opacity="1" stroke-miterlimit="10" d="M 626.539062 208.027344 C 638.171875 205.964844 648.148438 200.414062 653.25 189.824219 "/>
<path fill-rule="nonzero" fill="rgb(98.431373%, 60.392157%, 60%)" fill-opacity="1" d="M 656.34375 183.398438 L 655.335938 190.828125 L 651.160156 188.816406 L 656.34375 183.398438 "/>
<path fill="none" stroke-width="1.5" stroke-linecap="butt" stroke-linejoin="miter" stroke="rgb(98.431373%, 60.392157%, 60%)" stroke-opacity="1" stroke-miterlimit="10" d="M 658.902344 178.085938 C 651.921875 155.179688 638.003906 137.589844 615.769531 128.773438 "/>
<path fill-rule="nonzero" fill="rgb(98.431373%, 60.392157%, 60%)" fill-opacity="1" d="M 609.140625 126.144531 L 616.625 126.617188 L 614.917969 130.929688 L 609.140625 126.144531 "/>
<path fill="none" stroke-width="1.5" stroke-linecap="butt" stroke-linejoin="miter" stroke="rgb(98.431373%, 60.392157%, 60%)" stroke-opacity="1" stroke-miterlimit="10" d="M 658.902344 178.085938 C 646.492188 180.695312 636.105469 187.035156 630.867188 198.53125 "/>
<path fill-rule="nonzero" fill="rgb(98.431373%, 60.392157%, 60%)" fill-opacity="1" d="M 627.910156 205.023438 L 628.757812 197.570312 L 632.976562 199.492188 L 627.910156 205.023438 "/>
<path fill="none" stroke-width="1.5" stroke-linecap="butt" stroke-linejoin="miter" stroke="rgb(12.156863%, 47.058824%, 70.588235%)" stroke-opacity="1" stroke-miterlimit="10" d="M 658.902344 178.085938 C 649.457031 235.082031 662.058594 286.757812 699.328125 330.886719 "/>
<path fill-rule="nonzero" fill="rgb(12.156863%, 47.058824%, 70.588235%)" fill-opacity="1" d="M 703.929688 336.335938 L 697.558594 332.382812 L 701.097656 329.390625 L 703.929688 336.335938 "/>
<path fill="none" stroke-width="1.5" stroke-linecap="butt" stroke-linejoin="miter" stroke="rgb(12.156863%, 47.058824%, 70.588235%)" stroke-opacity="1" stroke-miterlimit="10" d="M 750 349.160156 C 740.570312 340.042969 729.125 334.859375 716.234375 337 "/>
<path fill-rule="nonzero" fill="rgb(12.156863%, 47.058824%, 70.588235%)" fill-opacity="1" d="M 709.199219 338.167969 L 715.855469 334.714844 L 716.613281 339.285156 L 709.199219 338.167969 "/>
<path fill="none" stroke-width="1.5" stroke-linecap="butt" stroke-linejoin="miter" stroke="rgb(98.431373%, 60.392157%, 60%)" stroke-opacity="1" stroke-miterlimit="10" d="M 522.933594 194.351562 C 555.679688 186.054688 580.9375 167.429688 595.316406 136.886719 "/>
<path fill-rule="nonzero" fill="rgb(98.431373%, 60.392157%, 60%)" fill-opacity="1" d="M 598.351562 130.433594 L 597.414062 137.875 L 593.21875 135.898438 L 598.351562 130.433594 "/>
<path fill="none" stroke-width="1.5" stroke-linecap="butt" stroke-linejoin="miter" stroke="rgb(12.156863%, 47.058824%, 70.588235%)" stroke-opacity="1" stroke-miterlimit="10" d="M 688.292969 478 C 662.8125 507.523438 651.554688 541.796875 657.871094 580.265625 "/>
<path fill-rule="nonzero" fill="rgb(12.156863%, 47.058824%, 70.588235%)" fill-opacity="1" d="M 659.027344 587.300781 L 655.585938 580.640625 L 660.160156 579.886719 L 659.027344 587.300781 "/>
<path fill="none" stroke-width="4.5" stroke-linecap="butt" stroke-linejoin="miter" stroke="rgb(70.196078%, 70.196078%, 70.196078%)" stroke-opacity="1" stroke-miterlimit="10" d="M 439.070312 376.609375 C 473.550781 366.539062 499.574219 345.742188 513.785156 312.769531 "/>
<path fill-rule="nonzero" fill="rgb(70.196078%, 70.196078%, 70.196078%)" fill-opacity="1" d="M 516.605469 306.21875 L 515.914062 313.6875 L 511.65625 311.851562 L 516.605469 306.21875 "/>
<path fill="none" stroke-width="1.5" stroke-linecap="butt" stroke-linejoin="miter" stroke="rgb(12.156863%, 47.058824%, 70.588235%)" stroke-opacity="1" stroke-miterlimit="10" d="M 439.070312 376.609375 C 437 351.382812 426.476562 330.242188 405.585938 315.992188 "/>
<path fill-rule="nonzero" fill="rgb(12.156863%, 47.058824%, 70.588235%)" fill-opacity="1" d="M 399.691406 311.976562 L 406.890625 314.078125 L 404.28125 317.910156 L 399.691406 311.976562 "/>
<path fill="none" stroke-width="1.5" stroke-linecap="butt" stroke-linejoin="miter" stroke="rgb(12.156863%, 47.058824%, 70.588235%)" stroke-opacity="1" stroke-miterlimit="10" d="M 505.148438 56.191406 C 522.980469 89.886719 550.167969 112.449219 587.464844 120.234375 "/>
<path fill-rule="nonzero" fill="rgb(12.156863%, 47.058824%, 70.588235%)" fill-opacity="1" d="M 594.449219 121.691406 L 586.992188 122.5 L 587.941406 117.964844 L 594.449219 121.691406 "/>
<path fill="none" stroke-width="1.5" stroke-linecap="butt" stroke-linejoin="miter" stroke="rgb(12.156863%, 47.058824%, 70.588235%)" stroke-opacity="1" stroke-miterlimit="10" d="M 397.523438 310.496094 C 403.898438 281.285156 399.160156 253.90625 380.636719 230.464844 "/>
<path fill-rule="nonzero" fill="rgb(12.156863%, 47.058824%, 70.588235%)" fill-opacity="1" d="M 376.214844 224.867188 L 382.457031 229.027344 L 378.820312 231.902344 L 376.214844 224.867188 "/>
<path fill="none" stroke-width="5.5" stroke-linecap="butt" stroke-linejoin="miter" stroke="rgb(70.196078%, 70.196078%, 70.196078%)" stroke-opacity="1" stroke-miterlimit="10" d="M 212.023438 309.191406 C 212.703125 338.175781 223.390625 362.953125 246.253906 380.738281 "/>
<path fill-rule="nonzero" fill="rgb(70.196078%, 70.196078%, 70.196078%)" fill-opacity="1" d="M 251.882812 385.121094 L 244.832031 382.570312 L 247.675781 378.910156 L 251.882812 385.121094 "/>
<path fill="none" stroke-width="5.5" stroke-linecap="butt" stroke-linejoin="miter" stroke="rgb(70.196078%, 70.196078%, 70.196078%)" stroke-opacity="1" stroke-miterlimit="10" d="M 104.527344 223.4375 C 118.222656 236.988281 134.835938 244.296875 153.910156 241.863281 "/>
<path fill-rule="nonzero" fill="rgb(70.196078%, 70.196078%, 70.196078%)" fill-opacity="1" d="M 160.984375 240.957031 L 154.203125 244.160156 L 153.617188 239.5625 L 160.984375 240.957031 "/>
<path fill="none" stroke-width="5.5" stroke-linecap="butt" stroke-linejoin="miter" stroke="rgb(70.196078%, 70.196078%, 70.196078%)" stroke-opacity="1" stroke-miterlimit="10" d="M 152.585938 702.117188 C 153.675781 679.515625 146.898438 659.433594 129.925781 644.511719 "/>
<path fill-rule="nonzero" fill="rgb(70.196078%, 70.196078%, 70.196078%)" fill-opacity="1" d="M 124.570312 639.800781 L 131.457031 642.769531 L 128.394531 646.253906 L 124.570312 639.800781 "/>
<path fill="none" stroke-width="1.5" stroke-linecap="butt" stroke-linejoin="miter" stroke="rgb(98.431373%, 60.392157%, 60%)" stroke-opacity="1" stroke-miterlimit="10" d="M 668.03125 99.089844 C 653.8125 119.320312 648.402344 141.800781 655.265625 165.523438 "/>
<path fill-rule="nonzero" fill="rgb(98.431373%, 60.392157%, 60%)" fill-opacity="1" d="M 657.25 172.375 L 653.039062 166.167969 L 657.492188 164.878906 L 657.25 172.375 "/>
<path fill="none" stroke-width="1.5" stroke-linecap="butt" stroke-linejoin="miter" stroke="rgb(12.156863%, 47.058824%, 70.588235%)" stroke-opacity="1" stroke-miterlimit="10" d="M 380.84375 130.386719 C 404.648438 117.769531 420.835938 98.585938 426.066406 72.179688 "/>
<path fill-rule="nonzero" fill="rgb(12.156863%, 47.058824%, 70.588235%)" fill-opacity="1" d="M 427.453125 65.183594 L 428.339844 72.628906 L 423.792969 71.730469 L 427.453125 65.183594 "/>
<path fill="none" stroke-width="1.5" stroke-linecap="butt" stroke-linejoin="miter" stroke="rgb(12.156863%, 47.058824%, 70.588235%)" stroke-opacity="1" stroke-miterlimit="10" d="M 705.9375 338.710938 C 715.609375 347.910156 727.285156 353.058594 740.390625 350.808594 "/>
<path fill-rule="nonzero" fill="rgb(12.156863%, 47.058824%, 70.588235%)" fill-opacity="1" d="M 747.421875 349.601562 L 740.785156 353.09375 L 740 348.523438 L 747.421875 349.601562 "/>
<path fill="none" stroke-width="1.5" stroke-linecap="butt" stroke-linejoin="miter" stroke="rgb(12.156863%, 47.058824%, 70.588235%)" stroke-opacity="1" stroke-miterlimit="10" d="M 705.9375 338.710938 C 679.632812 378.957031 671.734375 422.589844 685.5 468.644531 "/>
<path fill-rule="nonzero" fill="rgb(12.156863%, 47.058824%, 70.588235%)" fill-opacity="1" d="M 687.539062 475.476562 L 683.277344 469.308594 L 687.71875 467.980469 L 687.539062 475.476562 "/>
<path fill="none" stroke-width="1.5" stroke-linecap="butt" stroke-linejoin="miter" stroke="rgb(12.156863%, 47.058824%, 70.588235%)" stroke-opacity="1" stroke-miterlimit="10" d="M 625.433594 680.570312 C 605.9375 695.339844 594.101562 714.878906 593.378906 739.300781 "/>
<path fill-rule="nonzero" fill="rgb(12.156863%, 47.058824%, 70.588235%)" fill-opacity="1" d="M 593.167969 746.429688 L 591.0625 739.230469 L 595.695312 739.367188 L 593.167969 746.429688 "/>
<path fill="none" stroke-width="1.5" stroke-linecap="butt" stroke-linejoin="miter" stroke="rgb(12.156863%, 47.058824%, 70.588235%)" stroke-opacity="1" stroke-miterlimit="10" d="M 659.453125 589.898438 C 635.796875 611.691406 623.148438 638.726562 624.902344 670.824219 "/>
<path fill-rule="nonzero" fill="rgb(12.156863%, 47.058824%, 70.588235%)" fill-opacity="1" d="M 625.289062 677.945312 L 622.585938 670.949219 L 627.214844 670.699219 L 625.289062 677.945312 "/>
<path fill="none" stroke-width="1.5" stroke-linecap="butt" stroke-linejoin="miter" stroke="rgb(12.156863%, 47.058824%, 70.588235%)" stroke-opacity="1" stroke-miterlimit="10" d="M 427.964844 62.605469 C 451.097656 72.300781 474.5 72.703125 496.558594 60.820312 "/>
<path fill-rule="nonzero" fill="rgb(12.156863%, 47.058824%, 70.588235%)" fill-opacity="1" d="M 502.835938 57.4375 L 497.65625 62.859375 L 495.457031 58.78125 L 502.835938 57.4375 "/>
<path fill="none" stroke-width="5.5" stroke-linecap="butt" stroke-linejoin="miter" stroke="rgb(70.196078%, 70.196078%, 70.196078%)" stroke-opacity="1" stroke-miterlimit="10" d="M 311.613281 447.796875 C 330.007812 458.648438 349.789062 461.890625 369.683594 454.21875 "/>
<path fill-rule="nonzero" fill="rgb(70.196078%, 70.196078%, 70.196078%)" fill-opacity="1" d="M 376.335938 451.652344 L 370.515625 456.378906 L 368.847656 452.054688 L 376.335938 451.652344 "/>
<path fill="none" stroke-width="5.5" stroke-linecap="butt" stroke-linejoin="miter" stroke="rgb(70.196078%, 70.196078%, 70.196078%)" stroke-opacity="1" stroke-miterlimit="10" d="M 380.9375 449.875 C 408.578125 437.492188 428.066406 417.160156 435.992188 387.953125 "/>
<path fill-rule="nonzero" fill="rgb(70.196078%, 70.196078%, 70.196078%)" fill-opacity="1" d="M 437.859375 381.070312 L 438.226562 388.558594 L 433.753906 387.34375 L 437.859375 381.070312 "/>
<path fill="none" stroke-width="5.5" stroke-linecap="butt" stroke-linejoin="miter" stroke="rgb(70.196078%, 70.196078%, 70.196078%)" stroke-opacity="1" stroke-miterlimit="10" d="M 63.058594 468.808594 C 73.34375 439.738281 72.027344 411.105469 56.082031 384.742188 "/>
<path fill-rule="nonzero" fill="rgb(70.196078%, 70.196078%, 70.196078%)" fill-opacity="1" d="M 52.390625 378.636719 L 58.066406 383.542969 L 54.097656 385.941406 L 52.390625 378.636719 "/>
<path fill="none" stroke-width="5.5" stroke-linecap="butt" stroke-linejoin="miter" stroke="rgb(70.196078%, 70.196078%, 70.196078%)" stroke-opacity="1" stroke-miterlimit="10" d="M 165.875 240.332031 C 168.605469 266.597656 180.066406 288.398438 202.175781 302.785156 "/>
<path fill-rule="nonzero" fill="rgb(70.196078%, 70.196078%, 70.196078%)" fill-opacity="1" d="M 208.15625 306.675781 L 200.914062 304.726562 L 203.441406 300.839844 L 208.15625 306.675781 "/>
<path fill="none" stroke-width="5.5" stroke-linecap="butt" stroke-linejoin="miter" stroke="rgb(70.196078%, 70.196078%, 70.196078%)" stroke-opacity="1" stroke-miterlimit="10" d="M 59.898438 283.835938 C 81.210938 273.792969 96.316406 257.742188 101.792969 234.859375 "/>
<path fill-rule="nonzero" fill="rgb(70.196078%, 70.196078%, 70.196078%)" fill-opacity="1" d="M 103.453125 227.921875 L 104.046875 235.398438 L 99.539062 234.320312 L 103.453125 227.921875 "/>
<path fill="none" stroke-width="5.5" stroke-linecap="butt" stroke-linejoin="miter" stroke="rgb(70.196078%, 70.196078%, 70.196078%)" stroke-opacity="1" stroke-miterlimit="10" d="M 121.109375 636.757812 C 123.84375 609.542969 116.765625 585.050781 97.382812 565.789062 "/>
<path fill-rule="nonzero" fill="rgb(70.196078%, 70.196078%, 70.196078%)" fill-opacity="1" d="M 92.324219 560.761719 L 99.019531 564.144531 L 95.75 567.433594 L 92.324219 560.761719 "/>
<path fill="none" stroke-width="5.5" stroke-linecap="butt" stroke-linejoin="miter" stroke="rgb(70.196078%, 70.196078%, 70.196078%)" stroke-opacity="1" stroke-miterlimit="10" d="M 89.050781 557.507812 C 94.828125 528.183594 89.566406 500.886719 70.542969 477.867188 "/>
<path fill-rule="nonzero" fill="rgb(70.196078%, 70.196078%, 70.196078%)" fill-opacity="1" d="M 66 472.371094 L 72.332031 476.390625 L 68.757812 479.34375 L 66 472.371094 "/>
<path fill-rule="nonzero" fill="rgb(14.901961%, 14.901961%, 14.901961%)" fill-opacity="1" stroke-width="1" stroke-linecap="butt" stroke-linejoin="miter" stroke="rgb(14.901961%, 14.901961%, 14.901961%)" stroke-opacity="1" stroke-miterlimit="10" d="M 512.335938 307.085938 L 519.183594 293.386719 L 526.035156 307.085938 Z M 512.335938 307.085938 "/>
<path fill-rule="nonzero" fill="rgb(14.901961%, 14.901961%, 14.901961%)" fill-opacity="1" stroke-width="1" stroke-linecap="butt" stroke-linejoin="miter" stroke="rgb(14.901961%, 14.901961%, 14.901961%)" stroke-opacity="1" stroke-miterlimit="10" d="M 560.042969 279.59375 L 566.894531 265.894531 L 573.742188 279.59375 Z M 560.042969 279.59375 "/>
<path fill-rule="nonzero" fill="rgb(14.901961%, 14.901961%, 14.901961%)" fill-opacity="1" stroke-width="1" stroke-linecap="butt" stroke-linejoin="miter" stroke="rgb(14.901961%, 14.901961%, 14.901961%)" stroke-opacity="1" stroke-miterlimit="10" d="M 593.902344 131.0625 L 601.75 115.363281 L 609.601562 131.0625 Z M 593.902344 131.0625 "/>
<path fill-rule="nonzero" fill="rgb(70.196078%, 70.196078%, 70.196078%)" fill-opacity="1" stroke-width="1" stroke-linecap="butt" stroke-linejoin="miter" stroke="rgb(70.196078%, 70.196078%, 70.196078%)" stroke-opacity="1" stroke-miterlimit="10" d="M 605.328125 50 C 605.328125 56.464844 595.625 56.464844 595.625 50 C 595.625 43.535156 605.328125 43.535156 605.328125 50 "/>
<path fill-rule="nonzero" fill="rgb(12.156863%, 47.058824%, 70.588235%)" fill-opacity="1" stroke-width="1" stroke-linecap="butt" stroke-linejoin="miter" stroke="rgb(12.156863%, 47.058824%, 70.588235%)" stroke-opacity="1" stroke-miterlimit="10" d="M 377.335938 222.808594 C 377.335938 226.472656 371.835938 226.472656 371.835938 222.808594 C 371.835938 219.140625 377.335938 219.140625 377.335938 222.808594 "/>
<path fill-rule="nonzero" fill="rgb(98.431373%, 60.392157%, 60%)" fill-opacity="1" stroke-width="1" stroke-linecap="butt" stroke-linejoin="miter" stroke="rgb(98.431373%, 60.392157%, 60%)" stroke-opacity="1" stroke-miterlimit="10" d="M 577.128906 183.21875 C 577.128906 186.882812 571.628906 186.882812 571.628906 183.21875 C 571.628906 179.550781 577.128906 179.550781 577.128906 183.21875 "/>
<path fill-rule="nonzero" fill="rgb(70.196078%, 70.196078%, 70.196078%)" fill-opacity="1" stroke-width="1" stroke-linecap="butt" stroke-linejoin="miter" stroke="rgb(70.196078%, 70.196078%, 70.196078%)" stroke-opacity="1" stroke-miterlimit="10" d="M 260.378906 387.953125 C 260.378906 394.421875 250.679688 394.421875 250.679688 387.953125 C 250.679688 381.488281 260.378906 381.488281 260.378906 387.953125 "/>
<path fill-rule="nonzero" fill="rgb(70.196078%, 70.196078%, 70.196078%)" fill-opacity="1" stroke-width="1" stroke-linecap="butt" stroke-linejoin="miter" stroke="rgb(70.196078%, 70.196078%, 70.196078%)" stroke-opacity="1" stroke-miterlimit="10" d="M 54.851562 374.683594 C 54.851562 381.152344 45.148438 381.152344 45.148438 374.683594 C 45.148438 368.21875 54.851562 368.21875 54.851562 374.683594 "/>
<path fill-rule="nonzero" fill="rgb(70.196078%, 70.196078%, 70.196078%)" fill-opacity="1" stroke-width="1" stroke-linecap="butt" stroke-linejoin="miter" stroke="rgb(70.196078%, 70.196078%, 70.196078%)" stroke-opacity="1" stroke-miterlimit="10" d="M 560.574219 329.222656 C 560.574219 336.355469 549.871094 336.355469 549.871094 329.222656 C 549.871094 322.089844 560.574219 322.089844 560.574219 329.222656 "/>
<path fill-rule="nonzero" fill="rgb(98.431373%, 60.392157%, 60%)" fill-opacity="1" stroke-width="1" stroke-linecap="butt" stroke-linejoin="miter" stroke="rgb(98.431373%, 60.392157%, 60%)" stroke-opacity="1" stroke-miterlimit="10" d="M 629.789062 208.027344 C 629.789062 212.359375 623.289062 212.359375 623.289062 208.027344 C 623.289062 203.695312 629.789062 203.695312 629.789062 208.027344 "/>
<path fill-rule="nonzero" fill="rgb(70.196078%, 70.196078%, 70.196078%)" fill-opacity="1" stroke-width="1" stroke-linecap="butt" stroke-linejoin="miter" stroke="rgb(70.196078%, 70.196078%, 70.196078%)" stroke-opacity="1" stroke-miterlimit="10" d="M 664.753906 178.085938 C 664.753906 181.316406 662.132812 183.9375 658.902344 183.9375 C 655.671875 183.9375 653.050781 181.316406 653.050781 178.085938 C 653.050781 174.855469 655.671875 172.238281 658.902344 172.238281 C 662.132812 172.238281 664.753906 174.855469 664.753906 178.085938 "/>
<path fill-rule="nonzero" fill="rgb(12.156863%, 47.058824%, 70.588235%)" fill-opacity="1" stroke-width="1" stroke-linecap="butt" stroke-linejoin="miter" stroke="rgb(12.156863%, 47.058824%, 70.588235%)" stroke-opacity="1" stroke-miterlimit="10" d="M 752.75 349.160156 C 752.75 352.824219 747.25 352.824219 747.25 349.160156 C 747.25 345.492188 752.75 345.492188 752.75 349.160156 "/>
<path fill-rule="nonzero" fill="rgb(98.431373%, 60.392157%, 60%)" fill-opacity="1" stroke-width="1" stroke-linecap="butt" stroke-linejoin="miter" stroke="rgb(98.431373%, 60.392157%, 60%)" stroke-opacity="1" stroke-miterlimit="10" d="M 525.683594 194.351562 C 525.683594 198.019531 520.183594 198.019531 520.183594 194.351562 C 520.183594 190.683594 525.683594 190.683594 525.683594 194.351562 "/>
<path fill-rule="nonzero" fill="rgb(12.156863%, 47.058824%, 70.588235%)" fill-opacity="1" stroke-width="1" stroke-linecap="butt" stroke-linejoin="miter" stroke="rgb(12.156863%, 47.058824%, 70.588235%)" stroke-opacity="1" stroke-miterlimit="10" d="M 691.042969 478 C 691.042969 481.664062 685.542969 481.664062 685.542969 478 C 685.542969 474.332031 691.042969 474.332031 691.042969 478 "/>
<path fill-rule="nonzero" fill="rgb(70.196078%, 70.196078%, 70.196078%)" fill-opacity="1" stroke-width="1" stroke-linecap="butt" stroke-linejoin="miter" stroke="rgb(70.196078%, 70.196078%, 70.196078%)" stroke-opacity="1" stroke-miterlimit="10" d="M 443.917969 376.609375 C 443.917969 383.078125 434.21875 383.078125 434.21875 376.609375 C 434.21875 370.144531 443.917969 370.144531 443.917969 376.609375 "/>
<path fill-rule="nonzero" fill="rgb(12.156863%, 47.058824%, 70.588235%)" fill-opacity="1" stroke-width="1" stroke-linecap="butt" stroke-linejoin="miter" stroke="rgb(12.156863%, 47.058824%, 70.588235%)" stroke-opacity="1" stroke-miterlimit="10" d="M 507.898438 56.191406 C 507.898438 59.859375 502.398438 59.859375 502.398438 56.191406 C 502.398438 52.527344 507.898438 52.527344 507.898438 56.191406 "/>
<path fill-rule="nonzero" fill="rgb(12.156863%, 47.058824%, 70.588235%)" fill-opacity="1" stroke-width="1" stroke-linecap="butt" stroke-linejoin="miter" stroke="rgb(12.156863%, 47.058824%, 70.588235%)" stroke-opacity="1" stroke-miterlimit="10" d="M 400.273438 310.496094 C 400.273438 314.164062 394.773438 314.164062 394.773438 310.496094 C 394.773438 306.828125 400.273438 306.828125 400.273438 310.496094 "/>
<path fill-rule="nonzero" fill="rgb(70.196078%, 70.196078%, 70.196078%)" fill-opacity="1" stroke-width="1" stroke-linecap="butt" stroke-linejoin="miter" stroke="rgb(70.196078%, 70.196078%, 70.196078%)" stroke-opacity="1" stroke-miterlimit="10" d="M 216.875 309.191406 C 216.875 315.65625 207.171875 315.65625 207.171875 309.191406 C 207.171875 302.722656 216.875 302.722656 216.875 309.191406 "/>
<path fill-rule="nonzero" fill="rgb(70.196078%, 70.196078%, 70.196078%)" fill-opacity="1" stroke-width="1" stroke-linecap="butt" stroke-linejoin="miter" stroke="rgb(70.196078%, 70.196078%, 70.196078%)" stroke-opacity="1" stroke-miterlimit="10" d="M 109.375 223.4375 C 109.375 229.90625 99.675781 229.90625 99.675781 223.4375 C 99.675781 216.972656 109.375 216.972656 109.375 223.4375 "/>
<path fill-rule="nonzero" fill="rgb(100%, 84.313725%, 0%)" fill-opacity="1" stroke-width="1" stroke-linecap="butt" stroke-linejoin="miter" stroke="rgb(100%, 84.313725%, 0%)" stroke-opacity="1" stroke-miterlimit="10" d="M 147.238281 696.765625 L 157.9375 696.765625 L 157.9375 707.464844 L 147.238281 707.464844 Z M 147.238281 696.765625 "/>
<path fill-rule="nonzero" fill="rgb(98.431373%, 60.392157%, 60%)" fill-opacity="1" stroke-width="1" stroke-linecap="butt" stroke-linejoin="miter" stroke="rgb(98.431373%, 60.392157%, 60%)" stroke-opacity="1" stroke-miterlimit="10" d="M 670.78125 99.089844 C 670.78125 102.757812 665.28125 102.757812 665.28125 99.089844 C 665.28125 95.425781 670.78125 95.425781 670.78125 99.089844 "/>
<path fill-rule="nonzero" fill="rgb(12.156863%, 47.058824%, 70.588235%)" fill-opacity="1" stroke-width="1" stroke-linecap="butt" stroke-linejoin="miter" stroke="rgb(12.156863%, 47.058824%, 70.588235%)" stroke-opacity="1" stroke-miterlimit="10" d="M 383.59375 130.386719 C 383.59375 134.054688 378.09375 134.054688 378.09375 130.386719 C 378.09375 126.71875 383.59375 126.71875 383.59375 130.386719 "/>
<path fill-rule="nonzero" fill="rgb(12.156863%, 47.058824%, 70.588235%)" fill-opacity="1" stroke-width="1" stroke-linecap="butt" stroke-linejoin="miter" stroke="rgb(12.156863%, 47.058824%, 70.588235%)" stroke-opacity="1" stroke-miterlimit="10" d="M 709.1875 338.710938 C 709.1875 343.042969 702.6875 343.042969 702.6875 338.710938 C 702.6875 334.378906 709.1875 334.378906 709.1875 338.710938 "/>
<path fill-rule="nonzero" fill="rgb(14.901961%, 14.901961%, 14.901961%)" fill-opacity="1" stroke-width="1" stroke-linecap="butt" stroke-linejoin="miter" stroke="rgb(14.901961%, 14.901961%, 14.901961%)" stroke-opacity="1" stroke-miterlimit="10" d="M 589.3125 753.75 L 593.0625 746.25 L 596.8125 753.75 Z M 589.3125 753.75 "/>
<path fill-rule="nonzero" fill="rgb(12.156863%, 47.058824%, 70.588235%)" fill-opacity="1" stroke-width="1" stroke-linecap="butt" stroke-linejoin="miter" stroke="rgb(12.156863%, 47.058824%, 70.588235%)" stroke-opacity="1" stroke-miterlimit="10" d="M 628.183594 680.570312 C 628.183594 684.238281 622.683594 684.238281 622.683594 680.570312 C 622.683594 676.902344 628.183594 676.902344 628.183594 680.570312 "/>
<path fill-rule="nonzero" fill="rgb(12.156863%, 47.058824%, 70.588235%)" fill-opacity="1" stroke-width="1" stroke-linecap="butt" stroke-linejoin="miter" stroke="rgb(12.156863%, 47.058824%, 70.588235%)" stroke-opacity="1" stroke-miterlimit="10" d="M 662.203125 589.898438 C 662.203125 593.5625 656.703125 593.5625 656.703125 589.898438 C 656.703125 586.230469 662.203125 586.230469 662.203125 589.898438 "/>
<path fill-rule="nonzero" fill="rgb(12.156863%, 47.058824%, 70.588235%)" fill-opacity="1" stroke-width="1" stroke-linecap="butt" stroke-linejoin="miter" stroke="rgb(12.156863%, 47.058824%, 70.588235%)" stroke-opacity="1" stroke-miterlimit="10" d="M 430.714844 62.605469 C 430.714844 66.273438 425.214844 66.273438 425.214844 62.605469 C 425.214844 58.941406 430.714844 58.941406 430.714844 62.605469 "/>
<path fill-rule="nonzero" fill="rgb(70.196078%, 70.196078%, 70.196078%)" fill-opacity="1" stroke-width="1" stroke-linecap="butt" stroke-linejoin="miter" stroke="rgb(70.196078%, 70.196078%, 70.196078%)" stroke-opacity="1" stroke-miterlimit="10" d="M 316.464844 447.796875 C 316.464844 454.265625 306.765625 454.265625 306.765625 447.796875 C 306.765625 441.332031 316.464844 441.332031 316.464844 447.796875 "/>
<path fill-rule="nonzero" fill="rgb(70.196078%, 70.196078%, 70.196078%)" fill-opacity="1" stroke-width="1" stroke-linecap="butt" stroke-linejoin="miter" stroke="rgb(70.196078%, 70.196078%, 70.196078%)" stroke-opacity="1" stroke-miterlimit="10" d="M 385.789062 449.875 C 385.789062 456.34375 376.089844 456.34375 376.089844 449.875 C 376.089844 443.410156 385.789062 443.410156 385.789062 449.875 "/>
<path fill-rule="nonzero" fill="rgb(70.196078%, 70.196078%, 70.196078%)" fill-opacity="1" stroke-width="1" stroke-linecap="butt" stroke-linejoin="miter" stroke="rgb(70.196078%, 70.196078%, 70.196078%)" stroke-opacity="1" stroke-miterlimit="10" d="M 67.910156 468.808594 C 67.910156 475.277344 58.210938 475.277344 58.210938 468.808594 C 58.210938 462.34375 67.910156 462.34375 67.910156 468.808594 "/>
<path fill-rule="nonzero" fill="rgb(70.196078%, 70.196078%, 70.196078%)" fill-opacity="1" stroke-width="1" stroke-linecap="butt" stroke-linejoin="miter" stroke="rgb(70.196078%, 70.196078%, 70.196078%)" stroke-opacity="1" stroke-miterlimit="10" d="M 170.722656 240.332031 C 170.722656 246.800781 161.023438 246.800781 161.023438 240.332031 C 161.023438 233.867188 170.722656 233.867188 170.722656 240.332031 "/>
<path fill-rule="nonzero" fill="rgb(70.196078%, 70.196078%, 70.196078%)" fill-opacity="1" stroke-width="1" stroke-linecap="butt" stroke-linejoin="miter" stroke="rgb(70.196078%, 70.196078%, 70.196078%)" stroke-opacity="1" stroke-miterlimit="10" d="M 64.75 283.835938 C 64.75 290.300781 55.050781 290.300781 55.050781 283.835938 C 55.050781 277.367188 64.75 277.367188 64.75 283.835938 "/>
<path fill-rule="nonzero" fill="rgb(70.196078%, 70.196078%, 70.196078%)" fill-opacity="1" stroke-width="1" stroke-linecap="butt" stroke-linejoin="miter" stroke="rgb(70.196078%, 70.196078%, 70.196078%)" stroke-opacity="1" stroke-miterlimit="10" d="M 125.957031 636.757812 C 125.957031 643.226562 116.257812 643.226562 116.257812 636.757812 C 116.257812 630.292969 125.957031 630.292969 125.957031 636.757812 "/>
<path fill-rule="nonzero" fill="rgb(70.196078%, 70.196078%, 70.196078%)" fill-opacity="1" stroke-width="1" stroke-linecap="butt" stroke-linejoin="miter" stroke="rgb(70.196078%, 70.196078%, 70.196078%)" stroke-opacity="1" stroke-miterlimit="10" d="M 93.902344 557.507812 C 93.902344 563.972656 84.199219 563.972656 84.199219 557.507812 C 84.199219 551.039062 93.902344 551.039062 93.902344 557.507812 "/>
</svg>
