<?xml version="1.0" encoding="UTF-8"?>
<svg xmlns="http://www.w3.org/2000/svg" xmlns:xlink="http://www.w3.org/1999/xlink" width="800" height="800" viewBox="0 0 800 800">
<rect x="-80" y="-80" width="960" height="960" fill="rgb(100%, 100%, 100%)" fill-opacity="1"/>
<path fill="none" stroke-width="1.5" stroke-linecap="butt" stroke-linejoin="miter" stroke="rgb(12.156863%, 47.058824%, 70.588235%)" stroke-opacity="1" stroke-miterlimit="10" d="M 667.867188 106.292969 C 684.277344 99.660156 696.53125 88.3125 701.363281 71.324219 "/>
<path fill-rule="nonzero" fill="rgb(12.156863%, 47.058824%, 70.588235%)" fill-opacity="1" d="M 703.316406 64.460938 L 703.59375 71.957031 L 699.136719 70.6875 L 703.316406 64.460938 "/>
<path fill="none" stroke-width="4.5" stroke-linecap="butt" stroke-linejoin="miter" stroke="rgb(70.196078%, 70.196078%, 70.196078%)" stroke-opacity="1" stroke-miterlimit="10" d="M 667.867188 106.292969 C 656.953125 114.761719 649.875 125.914062 650.152344 139.671875 "/>
<path fill-rule="nonzero" fill="rgb(70.196078%, 70.196078%, 70.196078%)" fill-opacity="1" d="M 650.296875 146.804688 L 647.835938 139.71875 L 652.46875 139.625 L 650.296875 146.804688 "/>
<path fill="none" stroke-width="1.5" stroke-linecap="butt" stroke-linejoin="miter" stroke="rgb(12.156863%, 47.058824%, 70.588235%)" stroke-opacity="1" stroke-miterlimit="10" d="M 667.867188 106.292969 C 682.804688 115.324219 699.011719 118.296875 715.273438 112.050781 "/>
<path fill-rule="nonzero" fill="rgb(12.156863%, 47.058824%, 70.588235%)" fill-opacity="1" d="M 721.929688 109.492188 L 716.105469 114.214844 L 714.441406 109.886719 L 721.929688 109.492188 "/>
<path fill="none" stroke-width="1.5" stroke-linecap="butt" stroke-linejoin="miter" stroke="rgb(12.156863%, 47.058824%, 70.588235%)" stroke-opacity="1" stroke-miterlimit="10" d="M 667.867188 106.292969 C 669.699219 123.875 677.203125 138.765625 692.175781 148.09375 "/>
<path fill-rule="nonzero" fill="rgb(12.156863%, 47.058824%, 70.588235%)" fill-opacity="1" d="M 698.230469 151.867188 L 690.949219 150.0625 L 693.402344 146.128906 L 698.230469 151.867188 "/>
<path fill="none" stroke-width="1.5" stroke-linecap="butt" stroke-linejoin="miter" stroke="rgb(12.156863%, 47.058824%, 70.588235%)" stroke-opacity="1" stroke-miterlimit="10" d="M 667.867188 106.292969 C 658.964844 96.644531 647.835938 90.824219 634.828125 92.210938 "/>
<path fill-rule="nonzero" fill="rgb(12.156863%, 47.058824%, 70.588235%)" fill-opacity="1" d="M 627.738281 92.964844 L 634.585938 89.90625 L 635.074219 94.511719 L 627.738281 92.964844 "/>
<path fill="none" stroke-width="1.5" stroke-linecap="butt" stroke-linejoin="miter" stroke="rgb(12.156863%, 47.058824%, 70.588235%)" stroke-opacity="1" stroke-miterlimit="10" d="M 667.867188 106.292969 C 673.441406 89.488281 672.730469 72.796875 662.910156 58.109375 "/>
<path fill-rule="nonzero" fill="rgb(12.156863%, 47.058824%, 70.588235%)" fill-opacity="1" d="M 658.945312 52.179688 L 664.839844 56.820312 L 660.984375 59.394531 L 658.945312 52.179688 "/>
<path fill="none" stroke-width="1.5" stroke-linecap="butt" stroke-linejoin="miter" stroke="rgb(12.156863%, 47.058824%, 70.588235%)" stroke-opacity="1" stroke-miterlimit="10" d="M 704.03125 61.941406 C 689.273438 66.972656 677.699219 76.296875 672.859375 91.070312 "/>
<path fill-rule="nonzero" fill="rgb(12.156863%, 47.058824%, 70.588235%)" fill-opacity="1" d="M 670.636719 97.847656 L 670.65625 90.347656 L 675.058594 91.789062 L 670.636719 97.847656 "/>
<path fill="none" stroke-width="4.5" stroke-linecap="butt" stroke-linejoin="miter" stroke="rgb(70.196078%, 70.196078%, 70.196078%)" stroke-opacity="1" stroke-miterlimit="10" d="M 650.394531 151.714844 C 660.582031 144.5 667.582031 134.703125 667.707031 122.28125 "/>
<path fill-rule="nonzero" fill="rgb(70.196078%, 70.196078%, 70.196078%)" fill-opacity="1" d="M 667.777344 115.148438 L 670.023438 122.304688 L 665.390625 122.257812 L 667.777344 115.148438 "/>
<path fill="none" stroke-width="1.5" stroke-linecap="butt" stroke-linejoin="miter" stroke="rgb(12.156863%, 47.058824%, 70.588235%)" stroke-opacity="1" stroke-miterlimit="10" d="M 724.375 108.550781 C 711.707031 99.886719 697.53125 96.242188 683.039062 101.152344 "/>
<path fill-rule="nonzero" fill="rgb(12.156863%, 47.058824%, 70.588235%)" fill-opacity="1" d="M 676.285156 103.441406 L 682.296875 98.957031 L 683.78125 103.347656 L 676.285156 103.441406 "/>
<path fill="none" stroke-width="1.5" stroke-linecap="butt" stroke-linejoin="miter" stroke="rgb(12.156863%, 47.058824%, 70.588235%)" stroke-opacity="1" stroke-miterlimit="10" d="M 700.453125 153.25 C 699.699219 137.699219 693.953125 124.023438 681.117188 115.300781 "/>
<path fill-rule="nonzero" fill="rgb(12.156863%, 47.058824%, 70.588235%)" fill-opacity="1" d="M 675.21875 111.289062 L 682.421875 113.382812 L 679.816406 117.214844 L 675.21875 111.289062 "/>
<path fill="none" stroke-width="1.5" stroke-linecap="butt" stroke-linejoin="miter" stroke="rgb(12.156863%, 47.058824%, 70.588235%)" stroke-opacity="1" stroke-miterlimit="10" d="M 625.136719 93.242188 C 631.976562 101.902344 640.96875 107.769531 651.921875 107.167969 "/>
<path fill-rule="nonzero" fill="rgb(12.156863%, 47.058824%, 70.588235%)" fill-opacity="1" d="M 659.042969 106.777344 L 652.046875 109.480469 L 651.792969 104.855469 L 659.042969 106.777344 "/>
<path fill="none" stroke-width="5.5" stroke-linecap="butt" stroke-linejoin="miter" stroke="rgb(70.196078%, 70.196078%, 70.196078%)" stroke-opacity="1" stroke-miterlimit="10" d="M 538.992188 151.207031 C 583.28125 157.320312 623.25 146.765625 656.351562 116.738281 "/>
<path fill-rule="nonzero" fill="rgb(70.196078%, 70.196078%, 70.196078%)" fill-opacity="1" d="M 661.636719 111.945312 L 657.910156 118.457031 L 654.796875 115.023438 L 661.636719 111.945312 "/>
<path fill="none" stroke-width="1.5" stroke-linecap="butt" stroke-linejoin="miter" stroke="rgb(12.156863%, 47.058824%, 70.588235%)" stroke-opacity="1" stroke-miterlimit="10" d="M 657.492188 50 C 651.765625 64.511719 651.375 79.371094 659.496094 92.628906 "/>
<path fill-rule="nonzero" fill="rgb(12.156863%, 47.058824%, 70.588235%)" fill-opacity="1" d="M 663.222656 98.714844 L 657.519531 93.839844 L 661.472656 91.421875 L 663.222656 98.714844 "/>
<path fill="none" stroke-width="5.5" stroke-linecap="butt" stroke-linejoin="miter" stroke="rgb(70.196078%, 70.196078%, 70.196078%)" stroke-opacity="1" stroke-miterlimit="10" d="M 409.777344 211.574219 C 457.988281 212.609375 499.355469 196.210938 531.21875 160.035156 "/>
<path fill-rule="nonzero" fill="rgb(70.196078%, 70.196078%, 70.196078%)" fill-opacity="1" d="M 535.933594 154.683594 L 532.957031 161.566406 L 529.476562 158.503906 L 535.933594 154.683594 "/>
<path fill="none" stroke-width="5.5" stroke-linecap="butt" stroke-linejoin="miter" stroke="rgb(70.196078%, 70.196078%, 70.196078%)" stroke-opacity="1" stroke-miterlimit="10" d="M 298.804688 259.523438 C 339.019531 261.839844 374.191406 249.523438 401.734375 220.152344 "/>
<path fill-rule="nonzero" fill="rgb(70.196078%, 70.196078%, 70.196078%)" fill-opacity="1" d="M 406.613281 214.949219 L 403.421875 221.738281 L 400.042969 218.566406 L 406.613281 214.949219 "/>
<path fill="none" stroke-width="5.5" stroke-linecap="butt" stroke-linejoin="miter" stroke="rgb(70.196078%, 70.196078%, 70.196078%)" stroke-opacity="1" stroke-miterlimit="10" d="M 103.140625 341.167969 C 129.65625 341.691406 152.804688 332.964844 169.882812 312.707031 "/>
<path fill-rule="nonzero" fill="rgb(70.196078%, 70.196078%, 70.196078%)" fill-opacity="1" d="M 174.480469 307.253906 L 171.65625 314.199219 L 168.113281 311.210938 L 174.480469 307.253906 "/>
<path fill="none" stroke-width="5.5" stroke-linecap="butt" stroke-linejoin="miter" stroke="rgb(70.196078%, 70.196078%, 70.196078%)" stroke-opacity="1" stroke-miterlimit="10" d="M 177.457031 303.722656 C 220.476562 308.613281 258.898438 297.4375 290.277344 267.625 "/>
<path fill-rule="nonzero" fill="rgb(70.196078%, 70.196078%, 70.196078%)" fill-opacity="1" d="M 295.449219 262.710938 L 291.875 269.304688 L 288.683594 265.945312 L 295.449219 262.710938 "/>
<path fill="none" stroke-width="5.5" stroke-linecap="butt" stroke-linejoin="miter" stroke="rgb(70.196078%, 70.196078%, 70.196078%)" stroke-opacity="1" stroke-miterlimit="10" d="M 56.363281 398.484375 C 77.769531 389.664062 93.394531 374.644531 99.859375 352.441406 "/>
<path fill-rule="nonzero" fill="rgb(70.196078%, 70.196078%, 70.196078%)" fill-opacity="1" d="M 101.851562 345.59375 L 102.082031 353.089844 L 97.632812 351.792969 L 101.851562 345.59375 "/>
<path fill="none" stroke-width="5.5" stroke-linecap="butt" stroke-linejoin="miter" stroke="rgb(70.196078%, 70.196078%, 70.196078%)" stroke-opacity="1" stroke-miterlimit="10" d="M 50 475.34375 C 63.207031 454.949219 67.671875 432.675781 60.050781 409.636719 "/>
<path fill-rule="nonzero" fill="rgb(70.196078%, 70.196078%, 70.196078%)" fill-opacity="1" d="M 57.8125 402.863281 L 62.253906 408.910156 L 57.851562 410.363281 L 57.8125 402.863281 "/>
<path fill="none" stroke-width="5.5" stroke-linecap="butt" stroke-linejoin="miter" stroke="rgb(70.196078%, 70.196078%, 70.196078%)" stroke-opacity="1" stroke-miterlimit="10" d="M 80.234375 554.851562 C 83.53125 527.855469 77.019531 503.355469 58.15625 483.796875 "/>
<path fill-rule="nonzero" fill="rgb(70.196078%, 70.196078%, 70.196078%)" fill-opacity="1" d="M 53.203125 478.664062 L 59.824219 482.191406 L 56.488281 485.40625 L 53.203125 478.664062 "/>
<path fill="none" stroke-width="5.5" stroke-linecap="butt" stroke-linejoin="miter" stroke="rgb(70.196078%, 70.196078%, 70.196078%)" stroke-opacity="1" stroke-miterlimit="10" d="M 247.074219 516.144531 C 256.285156 495.171875 257.132812 473.742188 246.503906 453.492188 "/>
<path fill-rule="nonzero" fill="rgb(70.196078%, 70.196078%, 70.196078%)" fill-opacity="1" d="M 243.191406 447.175781 L 248.558594 452.414062 L 244.453125 454.566406 L 243.191406 447.175781 "/>
<path fill="none" stroke-width="5.5" stroke-linecap="butt" stroke-linejoin="miter" stroke="rgb(70.196078%, 70.196078%, 70.196078%)" stroke-opacity="1" stroke-miterlimit="10" d="M 257.351562 584.164062 C 264.679688 564.324219 264.355469 544.46875 253.359375 526.441406 "/>
<path fill-rule="nonzero" fill="rgb(70.196078%, 70.196078%, 70.196078%)" fill-opacity="1" d="M 249.644531 520.355469 L 255.335938 525.234375 L 251.378906 527.648438 L 249.644531 520.355469 "/>
<path fill="none" stroke-width="5.5" stroke-linecap="butt" stroke-linejoin="miter" stroke="rgb(70.196078%, 70.196078%, 70.196078%)" stroke-opacity="1" stroke-miterlimit="10" d="M 285.246094 641.316406 C 286.347656 622.09375 280.847656 604.8125 266.410156 592.125 "/>
<path fill-rule="nonzero" fill="rgb(70.196078%, 70.196078%, 70.196078%)" fill-opacity="1" d="M 261.050781 587.417969 L 267.941406 590.386719 L 264.878906 593.867188 L 261.050781 587.417969 "/>
<path fill="none" stroke-width="5.5" stroke-linecap="butt" stroke-linejoin="miter" stroke="rgb(70.196078%, 70.196078%, 70.196078%)" stroke-opacity="1" stroke-miterlimit="10" d="M 336.6875 666.886719 C 327.261719 652.726562 314.203125 643.300781 297.273438 642.140625 "/>
<path fill-rule="nonzero" fill="rgb(70.196078%, 70.196078%, 70.196078%)" fill-opacity="1" d="M 290.15625 641.652344 L 297.433594 639.828125 L 297.113281 644.453125 L 290.15625 641.652344 "/>
<path fill="none" stroke-width="5.5" stroke-linecap="butt" stroke-linejoin="miter" stroke="rgb(70.196078%, 70.196078%, 70.196078%)" stroke-opacity="1" stroke-miterlimit="10" d="M 137.367188 632.863281 C 132.507812 601.796875 117.433594 576.765625 90.359375 560.816406 "/>
<path fill-rule="nonzero" fill="rgb(70.196078%, 70.196078%, 70.196078%)" fill-opacity="1" d="M 84.214844 557.195312 L 91.535156 558.820312 L 89.183594 562.816406 L 84.214844 557.195312 "/>
<path fill="none" stroke-width="5.5" stroke-linecap="butt" stroke-linejoin="miter" stroke="rgb(70.196078%, 70.196078%, 70.196078%)" stroke-opacity="1" stroke-miterlimit="10" d="M 221.738281 705.351562 C 207.707031 671.382812 183.675781 647.253906 148.597656 636.355469 "/>
<path fill-rule="nonzero" fill="rgb(70.196078%, 70.196078%, 70.196078%)" fill-opacity="1" d="M 141.785156 634.238281 L 149.285156 634.140625 L 147.910156 638.566406 L 141.785156 634.238281 "/>
<path fill="none" stroke-width="5.5" stroke-linecap="butt" stroke-linejoin="miter" stroke="rgb(70.196078%, 70.196078%, 70.196078%)" stroke-opacity="1" stroke-miterlimit="10" d="M 337.011719 750 C 309.269531 719.429688 274.714844 703.210938 233.488281 704.878906 "/>
<path fill-rule="nonzero" fill="rgb(70.196078%, 70.196078%, 70.196078%)" fill-opacity="1" d="M 226.359375 705.164062 L 233.394531 702.5625 L 233.582031 707.191406 L 226.359375 705.164062 "/>
<path fill="none" stroke-width="5.5" stroke-linecap="butt" stroke-linejoin="miter" stroke="rgb(70.196078%, 70.196078%, 70.196078%)" stroke-opacity="1" stroke-miterlimit="10" d="M 458.261719 739.039062 C 420.484375 724.171875 382.941406 724.914062 347.332031 744.363281 "/>
<path fill-rule="nonzero" fill="rgb(70.196078%, 70.196078%, 70.196078%)" fill-opacity="1" d="M 341.070312 747.78125 L 346.21875 742.328125 L 348.441406 746.398438 L 341.070312 747.78125 "/>
<path fill="none" stroke-width="5.5" stroke-linecap="butt" stroke-linejoin="miter" stroke="rgb(70.196078%, 70.196078%, 70.196078%)" stroke-opacity="1" stroke-miterlimit="10" d="M 458.65625 648.789062 C 439.300781 644.265625 420.773438 646.828125 405.289062 659.238281 "/>
<path fill-rule="nonzero" fill="rgb(70.196078%, 70.196078%, 70.196078%)" fill-opacity="1" d="M 399.722656 663.699219 L 403.839844 657.429688 L 406.738281 661.046875 L 399.722656 663.699219 "/>
<path fill="none" stroke-width="5.5" stroke-linecap="butt" stroke-linejoin="miter" stroke="rgb(70.196078%, 70.196078%, 70.196078%)" stroke-opacity="1" stroke-miterlimit="10" d="M 395.878906 666.78125 C 380.539062 658.058594 364.0625 655.457031 347.816406 662.242188 "/>
<path fill-rule="nonzero" fill="rgb(70.196078%, 70.196078%, 70.196078%)" fill-opacity="1" d="M 341.234375 664.988281 L 346.921875 660.101562 L 348.707031 664.378906 L 341.234375 664.988281 "/>
<path fill="none" stroke-width="5.5" stroke-linecap="butt" stroke-linejoin="miter" stroke="rgb(70.196078%, 70.196078%, 70.196078%)" stroke-opacity="1" stroke-miterlimit="10" d="M 495.726562 522.769531 C 488.265625 538.339844 486.835938 554.609375 494.589844 569.988281 "/>
<path fill-rule="nonzero" fill="rgb(70.196078%, 70.196078%, 70.196078%)" fill-opacity="1" d="M 497.804688 576.355469 L 492.523438 571.03125 L 496.660156 568.941406 L 497.804688 576.355469 "/>
<path fill="none" stroke-width="5.5" stroke-linecap="butt" stroke-linejoin="miter" stroke="rgb(70.196078%, 70.196078%, 70.196078%)" stroke-opacity="1" stroke-miterlimit="10" d="M 500.019531 580.75 C 497.1875 603.746094 502.59375 624.75 518.765625 641.296875 "/>
<path fill-rule="nonzero" fill="rgb(70.196078%, 70.196078%, 70.196078%)" fill-opacity="1" d="M 523.75 646.398438 L 517.109375 642.917969 L 520.421875 639.679688 L 523.75 646.398438 "/>
<path fill="none" stroke-width="5.5" stroke-linecap="butt" stroke-linejoin="miter" stroke="rgb(70.196078%, 70.196078%, 70.196078%)" stroke-opacity="1" stroke-miterlimit="10" d="M 469.890625 474.132812 C 469.265625 490.265625 474.03125 504.828125 486.441406 515.089844 "/>
<path fill-rule="nonzero" fill="rgb(70.196078%, 70.196078%, 70.196078%)" fill-opacity="1" d="M 491.9375 519.636719 L 484.960938 516.875 L 487.917969 513.304688 L 491.9375 519.636719 "/>
<path fill="none" stroke-width="5.5" stroke-linecap="butt" stroke-linejoin="miter" stroke="rgb(70.196078%, 70.196078%, 70.196078%)" stroke-opacity="1" stroke-miterlimit="10" d="M 539.894531 610.480469 C 510.984375 609.300781 485.621094 618.359375 466.449219 639.996094 "/>
<path fill-rule="nonzero" fill="rgb(70.196078%, 70.196078%, 70.196078%)" fill-opacity="1" d="M 461.71875 645.332031 L 464.714844 638.457031 L 468.183594 641.53125 L 461.71875 645.332031 "/>
<path fill="none" stroke-width="5.5" stroke-linecap="butt" stroke-linejoin="miter" stroke="rgb(70.196078%, 70.196078%, 70.196078%)" stroke-opacity="1" stroke-miterlimit="10" d="M 563.113281 669.644531 C 521.367188 674.722656 487.5625 693.921875 464.667969 729.175781 "/>
<path fill-rule="nonzero" fill="rgb(70.196078%, 70.196078%, 70.196078%)" fill-opacity="1" d="M 460.78125 735.15625 L 462.722656 727.914062 L 466.609375 730.4375 L 460.78125 735.15625 "/>
<path fill="none" stroke-width="5.5" stroke-linecap="butt" stroke-linejoin="miter" stroke="rgb(70.196078%, 70.196078%, 70.196078%)" stroke-opacity="1" stroke-miterlimit="10" d="M 577.992188 491.355469 C 546.6875 544.269531 539.335938 600.375 559.292969 658.515625 "/>
<path fill-rule="nonzero" fill="rgb(70.196078%, 70.196078%, 70.196078%)" fill-opacity="1" d="M 561.609375 665.261719 L 557.101562 659.265625 L 561.484375 657.761719 L 561.609375 665.261719 "/>
<path fill="none" stroke-width="5.5" stroke-linecap="butt" stroke-linejoin="miter" stroke="rgb(70.196078%, 70.196078%, 70.196078%)" stroke-opacity="1" stroke-miterlimit="10" d="M 541.585938 320.796875 C 527.277344 378.898438 536.164062 433.257812 571.117188 481.808594 "/>
<path fill-rule="nonzero" fill="rgb(70.196078%, 70.196078%, 70.196078%)" fill-opacity="1" d="M 575.285156 487.59375 L 569.234375 483.160156 L 572.996094 480.453125 L 575.285156 487.59375 "/>
<path fill="none" stroke-width="5.5" stroke-linecap="butt" stroke-linejoin="miter" stroke="rgb(70.196078%, 70.196078%, 70.196078%)" stroke-opacity="1" stroke-miterlimit="10" d="M 503.8125 362.0625 C 487.933594 356.6875 472.066406 357.179688 458.171875 366.476562 "/>
<path fill-rule="nonzero" fill="rgb(70.196078%, 70.196078%, 70.196078%)" fill-opacity="1" d="M 452.242188 370.441406 L 456.882812 364.546875 L 459.457031 368.402344 L 452.242188 370.441406 "/>
<path fill="none" stroke-width="5.5" stroke-linecap="butt" stroke-linejoin="miter" stroke="rgb(70.196078%, 70.196078%, 70.196078%)" stroke-opacity="1" stroke-miterlimit="10" d="M 484.289062 218.125 C 485.941406 257.160156 501.210938 289.945312 532.242188 313.660156 "/>
<path fill-rule="nonzero" fill="rgb(70.196078%, 70.196078%, 70.196078%)" fill-opacity="1" d="M 537.910156 317.988281 L 530.835938 315.5 L 533.652344 311.816406 L 537.910156 317.988281 "/>
<path fill="none" stroke-width="5.5" stroke-linecap="butt" stroke-linejoin="miter" stroke="rgb(70.196078%, 70.196078%, 70.196078%)" stroke-opacity="1" stroke-miterlimit="10" d="M 421.984375 134.980469 C 427.757812 168.5625 444.539062 195.351562 474.085938 212.28125 "/>
<path fill-rule="nonzero" fill="rgb(70.196078%, 70.196078%, 70.196078%)" fill-opacity="1" d="M 480.277344 215.824219 L 472.9375 214.289062 L 475.238281 210.269531 L 480.277344 215.824219 "/>
<path fill="none" stroke-width="5.5" stroke-linecap="butt" stroke-linejoin="miter" stroke="rgb(70.196078%, 70.196078%, 70.196078%)" stroke-opacity="1" stroke-miterlimit="10" d="M 355.375 96.707031 C 368.160156 117.238281 386.335938 130.699219 410.324219 133.582031 "/>
<path fill-rule="nonzero" fill="rgb(70.196078%, 70.196078%, 70.196078%)" fill-opacity="1" d="M 417.40625 134.433594 L 410.046875 135.882812 L 410.601562 131.28125 L 417.40625 134.433594 "/>
<path fill="none" stroke-width="5.5" stroke-linecap="butt" stroke-linejoin="miter" stroke="rgb(70.196078%, 70.196078%, 70.196078%)" stroke-opacity="1" stroke-miterlimit="10" d="M 234.34375 130.542969 C 253.964844 129.394531 270.828125 121.765625 282.011719 105.644531 "/>
<path fill-rule="nonzero" fill="rgb(70.196078%, 70.196078%, 70.196078%)" fill-opacity="1" d="M 286.078125 99.785156 L 283.917969 106.964844 L 280.109375 104.324219 L 286.078125 99.785156 "/>
<path fill="none" stroke-width="5.5" stroke-linecap="butt" stroke-linejoin="miter" stroke="rgb(70.196078%, 70.196078%, 70.196078%)" stroke-opacity="1" stroke-miterlimit="10" d="M 288.886719 95.734375 C 306.5 105.851562 325.371094 108.773438 344.183594 101.207031 "/>
<path fill-rule="nonzero" fill="rgb(70.196078%, 70.196078%, 70.196078%)" fill-opacity="1" d="M 350.800781 98.546875 L 345.046875 103.355469 L 343.316406 99.058594 L 350.800781 98.546875 "/>
<path fill="none" stroke-width="5.5" stroke-linecap="butt" stroke-linejoin="miter" stroke="rgb(70.196078%, 70.196078%, 70.196078%)" stroke-opacity="1" stroke-miterlimit="10" d="M 577.117188 370.019531 C 558.132812 356.925781 537.105469 352.019531 515.054688 358.671875 "/>
<path fill-rule="nonzero" fill="rgb(70.196078%, 70.196078%, 70.196078%)" fill-opacity="1" d="M 508.222656 360.730469 L 514.382812 356.453125 L 515.722656 360.890625 L 508.222656 360.730469 "/>
<path fill="none" stroke-width="5.5" stroke-linecap="butt" stroke-linejoin="miter" stroke="rgb(70.196078%, 70.196078%, 70.196078%)" stroke-opacity="1" stroke-miterlimit="10" d="M 587.804688 622.058594 C 577.8125 612.195312 565.636719 606.574219 551.804688 608.671875 "/>
<path fill-rule="nonzero" fill="rgb(70.196078%, 70.196078%, 70.196078%)" fill-opacity="1" d="M 544.75 609.742188 L 551.457031 606.382812 L 552.152344 610.964844 L 544.75 609.742188 "/>
<path fill="none" stroke-width="5.5" stroke-linecap="butt" stroke-linejoin="miter" stroke="rgb(70.196078%, 70.196078%, 70.196078%)" stroke-opacity="1" stroke-miterlimit="10" d="M 241.050781 443.09375 C 250.871094 420.125 251.484375 396.796875 239.769531 374.761719 "/>
<path fill-rule="nonzero" fill="rgb(70.196078%, 70.196078%, 70.196078%)" fill-opacity="1" d="M 236.421875 368.464844 L 241.816406 373.675781 L 237.722656 375.851562 L 236.421875 368.464844 "/>
<path fill="none" stroke-width="5.5" stroke-linecap="butt" stroke-linejoin="miter" stroke="rgb(70.196078%, 70.196078%, 70.196078%)" stroke-opacity="1" stroke-miterlimit="10" d="M 211 195.425781 C 226.917969 181.410156 236.089844 163.734375 234.976562 142.589844 "/>
<path fill-rule="nonzero" fill="rgb(70.196078%, 70.196078%, 70.196078%)" fill-opacity="1" d="M 234.601562 135.464844 L 237.289062 142.46875 L 232.660156 142.710938 L 234.601562 135.464844 "/>
<path fill="none" stroke-width="5.5" stroke-linecap="butt" stroke-linejoin="miter" stroke="rgb(70.196078%, 70.196078%, 70.196078%)" stroke-opacity="1" stroke-miterlimit="10" d="M 223.515625 273.957031 C 231.714844 250.15625 230.621094 226.667969 217.246094 205.371094 "/>
<path fill-rule="nonzero" fill="rgb(70.196078%, 70.196078%, 70.196078%)" fill-opacity="1" d="M 213.453125 199.332031 L 219.210938 204.140625 L 215.285156 206.605469 L 213.453125 199.332031 "/>
<path fill="none" stroke-width="5.5" stroke-linecap="butt" stroke-linejoin="miter" stroke="rgb(70.196078%, 70.196078%, 70.196078%)" stroke-opacity="1" stroke-miterlimit="10" d="M 234.253906 364.390625 C 244.671875 336.910156 244.070312 309.570312 229.390625 284.136719 "/>
<path fill-rule="nonzero" fill="rgb(70.196078%, 70.196078%, 70.196078%)" fill-opacity="1" d="M 225.824219 277.957031 L 231.398438 282.976562 L 227.382812 285.292969 L 225.824219 277.957031 "/>
<path fill="none" stroke-width="5.5" stroke-linecap="butt" stroke-linejoin="miter" stroke="rgb(70.196078%, 70.196078%, 70.196078%)" stroke-opacity="1" stroke-miterlimit="10" d="M 526.972656 649.695312 C 547.335938 651.328125 565.746094 645.867188 579.605469 630.910156 "/>
<path fill-rule="nonzero" fill="rgb(70.196078%, 70.196078%, 70.196078%)" fill-opacity="1" d="M 584.453125 625.675781 L 581.304688 632.484375 L 577.902344 629.332031 L 584.453125 625.675781 "/>
<path fill="none" stroke-width="5.5" stroke-linecap="butt" stroke-linejoin="miter" stroke="rgb(70.196078%, 70.196078%, 70.196078%)" stroke-opacity="1" stroke-miterlimit="10" d="M 448.152344 373.175781 C 437.582031 385.84375 432.382812 400.589844 436.003906 416.640625 "/>
<path fill-rule="nonzero" fill="rgb(70.196078%, 70.196078%, 70.196078%)" fill-opacity="1" d="M 437.570312 423.597656 L 433.742188 417.148438 L 438.265625 416.128906 L 437.570312 423.597656 "/>
<path fill="none" stroke-width="5.5" stroke-linecap="butt" stroke-linejoin="miter" stroke="rgb(70.196078%, 70.196078%, 70.196078%)" stroke-opacity="1" stroke-miterlimit="10" d="M 438.65625 428.398438 C 439.835938 444.613281 446.242188 458.644531 459.808594 467.527344 "/>
<path fill-rule="nonzero" fill="rgb(70.196078%, 70.196078%, 70.196078%)" fill-opacity="1" d="M 465.777344 471.4375 L 458.539062 469.46875 L 461.078125 465.589844 L 465.777344 471.4375 "/>
<path fill="none" stroke-width="5.5" stroke-linecap="butt" stroke-linejoin="miter" stroke="rgb(70.196078%, 70.196078%, 70.196078%)" stroke-opacity="1" stroke-miterlimit="10" d="M 750 383.417969 C 739.023438 373.515625 725.96875 368.234375 711.5 371.035156 "/>
<path fill-rule="nonzero" fill="rgb(70.196078%, 70.196078%, 70.196078%)" fill-opacity="1" d="M 704.5 372.390625 L 711.0625 368.757812 L 711.941406 373.308594 L 704.5 372.390625 "/>
<path fill="none" stroke-width="5.5" stroke-linecap="butt" stroke-linejoin="miter" stroke="rgb(70.196078%, 70.196078%, 70.196078%)" stroke-opacity="1" stroke-miterlimit="10" d="M 699.675781 373.324219 C 685.421875 363.171875 669.429688 358.9375 652.722656 364 "/>
<path fill-rule="nonzero" fill="rgb(70.196078%, 70.196078%, 70.196078%)" fill-opacity="1" d="M 645.894531 366.070312 L 652.050781 361.78125 L 653.394531 366.21875 L 645.894531 366.070312 "/>
<path fill="none" stroke-width="5.5" stroke-linecap="butt" stroke-linejoin="miter" stroke="rgb(70.196078%, 70.196078%, 70.196078%)" stroke-opacity="1" stroke-miterlimit="10" d="M 641.183594 367.496094 C 623.859375 358.671875 605.652344 356.75 588.054688 364.933594 "/>
<path fill-rule="nonzero" fill="rgb(70.196078%, 70.196078%, 70.196078%)" fill-opacity="1" d="M 581.585938 367.941406 L 587.078125 362.832031 L 589.03125 367.035156 L 581.585938 367.941406 "/>
<path fill-rule="nonzero" fill="rgb(14.901961%, 14.901961%, 14.901961%)" fill-opacity="1" stroke-width="1" stroke-linecap="butt" stroke-linejoin="miter" stroke="rgb(14.901961%, 14.901961%, 14.901961%)" stroke-opacity="1" stroke-miterlimit="10" d="M 659.015625 115.144531 L 667.867188 97.445312 L 676.714844 115.144531 Z M 659.015625 115.144531 "/>
<path fill-rule="nonzero" fill="rgb(12.156863%, 47.058824%, 70.588235%)" fill-opacity="1" stroke-width="1" stroke-linecap="butt" stroke-linejoin="miter" stroke="rgb(12.156863%, 47.058824%, 70.588235%)" stroke-opacity="1" stroke-miterlimit="10" d="M 706.78125 61.941406 C 706.78125 65.609375 701.28125 65.609375 701.28125 61.941406 C 701.28125 58.273438 706.78125 58.273438 706.78125 61.941406 "/>
<path fill-rule="nonzero" fill="rgb(70.196078%, 70.196078%, 70.196078%)" fill-opacity="1" stroke-width="1" stroke-linecap="butt" stroke-linejoin="miter" stroke="rgb(70.196078%, 70.196078%, 70.196078%)" stroke-opacity="1" stroke-miterlimit="10" d="M 655.246094 151.714844 C 655.246094 158.179688 645.546875 158.179688 645.546875 151.714844 C 645.546875 145.246094 655.246094 145.246094 655.246094 151.714844 "/>
<path fill-rule="nonzero" fill="rgb(12.156863%, 47.058824%, 70.588235%)" fill-opacity="1" stroke-width="1" stroke-linecap="butt" stroke-linejoin="miter" stroke="rgb(12.156863%, 47.058824%, 70.588235%)" stroke-opacity="1" stroke-miterlimit="10" d="M 727.125 108.550781 C 727.125 112.21875 721.625 112.21875 721.625 108.550781 C 721.625 104.886719 727.125 104.886719 727.125 108.550781 "/>
<path fill-rule="nonzero" fill="rgb(12.156863%, 47.058824%, 70.588235%)" fill-opacity="1" stroke-width="1" stroke-linecap="butt" stroke-linejoin="miter" stroke="rgb(12.156863%, 47.058824%, 70.588235%)" stroke-opacity="1" stroke-miterlimit="10" d="M 703.203125 153.25 C 703.203125 156.917969 697.703125 156.917969 697.703125 153.25 C 697.703125 149.585938 703.203125 149.585938 703.203125 153.25 "/>
<path fill-rule="nonzero" fill="rgb(12.156863%, 47.058824%, 70.588235%)" fill-opacity="1" stroke-width="1" stroke-linecap="butt" stroke-linejoin="miter" stroke="rgb(12.156863%, 47.058824%, 70.588235%)" stroke-opacity="1" stroke-miterlimit="10" d="M 627.886719 93.242188 C 627.886719 96.90625 622.386719 96.90625 622.386719 93.242188 C 622.386719 89.574219 627.886719 89.574219 627.886719 93.242188 "/>
<path fill-rule="nonzero" fill="rgb(70.196078%, 70.196078%, 70.196078%)" fill-opacity="1" stroke-width="1" stroke-linecap="butt" stroke-linejoin="miter" stroke="rgb(70.196078%, 70.196078%, 70.196078%)" stroke-opacity="1" stroke-miterlimit="10" d="M 543.84375 151.207031 C 543.84375 157.671875 534.144531 157.671875 534.144531 151.207031 C 534.144531 144.742188 543.84375 144.742188 543.84375 151.207031 "/>
<path fill-rule="nonzero" fill="rgb(12.156863%, 47.058824%, 70.588235%)" fill-opacity="1" stroke-width="1" stroke-linecap="butt" stroke-linejoin="miter" stroke="rgb(12.156863%, 47.058824%, 70.588235%)" stroke-opacity="1" stroke-miterlimit="10" d="M 660.242188 50 C 660.242188 53.667969 654.742188 53.667969 654.742188 50 C 654.742188 46.332031 660.242188 46.332031 660.242188 50 "/>
<path fill-rule="nonzero" fill="rgb(70.196078%, 70.196078%, 70.196078%)" fill-opacity="1" stroke-width="1" stroke-linecap="butt" stroke-linejoin="miter" stroke="rgb(70.196078%, 70.196078%, 70.196078%)" stroke-opacity="1" stroke-miterlimit="10" d="M 414.628906 211.574219 C 414.628906 218.042969 404.925781 218.042969 404.925781 211.574219 C 404.925781 205.109375 414.628906 205.109375 414.628906 211.574219 "/>
<path fill-rule="nonzero" fill="rgb(70.196078%, 70.196078%, 70.196078%)" fill-opacity="1" stroke-width="1" stroke-linecap="butt" stroke-linejoin="miter" stroke="rgb(70.196078%, 70.196078%, 70.196078%)" stroke-opacity="1" stroke-miterlimit="10" d="M 303.65625 259.523438 C 303.65625 265.988281 293.953125 265.988281 293.953125 259.523438 C 293.953125 253.054688 303.65625 253.054688 303.65625 259.523438 "/>
<path fill-rule="nonzero" fill="rgb(70.196078%, 70.196078%, 70.196078%)" fill-opacity="1" stroke-width="1" stroke-linecap="butt" stroke-linejoin="miter" stroke="rgb(70.196078%, 70.196078%, 70.196078%)" stroke-opacity="1" stroke-miterlimit="10" d="M 107.988281 341.167969 C 107.988281 347.632812 98.289062 347.632812 98.289062 341.167969 C 98.289062 334.703125 107.988281 334.703125 107.988281 341.167969 "/>
<path fill-rule="nonzero" fill="rgb(70.196078%, 70.196078%, 70.196078%)" fill-opacity="1" stroke-width="1" stroke-linecap="butt" stroke-linejoin="miter" stroke="rgb(70.196078%, 70.196078%, 70.196078%)" stroke-opacity="1" stroke-miterlimit="10" d="M 182.304688 303.722656 C 182.304688 310.191406 172.605469 310.191406 172.605469 303.722656 C 172.605469 297.257812 182.304688 297.257812 182.304688 303.722656 "/>
<path fill-rule="nonzero" fill="rgb(70.196078%, 70.196078%, 70.196078%)" fill-opacity="1" stroke-width="1" stroke-linecap="butt" stroke-linejoin="miter" stroke="rgb(70.196078%, 70.196078%, 70.196078%)" stroke-opacity="1" stroke-miterlimit="10" d="M 61.214844 398.484375 C 61.214844 404.953125 51.511719 404.953125 51.511719 398.484375 C 51.511719 392.019531 61.214844 392.019531 61.214844 398.484375 "/>
<path fill-rule="nonzero" fill="rgb(70.196078%, 70.196078%, 70.196078%)" fill-opacity="1" stroke-width="1" stroke-linecap="butt" stroke-linejoin="miter" stroke="rgb(70.196078%, 70.196078%, 70.196078%)" stroke-opacity="1" stroke-miterlimit="10" d="M 54.851562 475.34375 C 54.851562 481.808594 45.148438 481.808594 45.148438 475.34375 C 45.148438 468.875 54.851562 468.875 54.851562 475.34375 "/>
<path fill-rule="nonzero" fill="rgb(70.196078%, 70.196078%, 70.196078%)" fill-opacity="1" stroke-width="1" stroke-linecap="butt" stroke-linejoin="miter" stroke="rgb(70.196078%, 70.196078%, 70.196078%)" stroke-opacity="1" stroke-miterlimit="10" d="M 85.082031 554.851562 C 85.082031 561.320312 75.382812 561.320312 75.382812 554.851562 C 75.382812 548.386719 85.082031 548.386719 85.082031 554.851562 "/>
<path fill-rule="nonzero" fill="rgb(70.196078%, 70.196078%, 70.196078%)" fill-opacity="1" stroke-width="1" stroke-linecap="butt" stroke-linejoin="miter" stroke="rgb(70.196078%, 70.196078%, 70.196078%)" stroke-opacity="1" stroke-miterlimit="10" d="M 251.925781 516.144531 C 251.925781 522.609375 242.226562 522.609375 242.226562 516.144531 C 242.226562 509.675781 251.925781 509.675781 251.925781 516.144531 "/>
<path fill-rule="nonzero" fill="rgb(70.196078%, 70.196078%, 70.196078%)" fill-opacity="1" stroke-width="1" stroke-linecap="butt" stroke-linejoin="miter" stroke="rgb(70.196078%, 70.196078%, 70.196078%)" stroke-opacity="1" stroke-miterlimit="10" d="M 262.199219 584.164062 C 262.199219 590.632812 252.5 590.632812 252.5 584.164062 C 252.5 577.699219 262.199219 577.699219 262.199219 584.164062 "/>
<path fill-rule="nonzero" fill="rgb(70.196078%, 70.196078%, 70.196078%)" fill-opacity="1" stroke-width="1" stroke-linecap="butt" stroke-linejoin="miter" stroke="rgb(70.196078%, 70.196078%, 70.196078%)" stroke-opacity="1" stroke-miterlimit="10" d="M 290.097656 641.316406 C 290.097656 647.785156 280.398438 647.785156 280.398438 641.316406 C 280.398438 634.851562 290.097656 634.851562 290.097656 641.316406 "/>
<path fill-rule="nonzero" fill="rgb(70.196078%, 70.196078%, 70.196078%)" fill-opacity="1" stroke-width="1" stroke-linecap="butt" stroke-linejoin="miter" stroke="rgb(70.196078%, 70.196078%, 70.196078%)" stroke-opacity="1" stroke-miterlimit="10" d="M 341.539062 666.886719 C 341.539062 673.351562 331.839844 673.351562 331.839844 666.886719 C 331.839844 660.417969 341.539062 660.417969 341.539062 666.886719 "/>
<path fill-rule="nonzero" fill="rgb(70.196078%, 70.196078%, 70.196078%)" fill-opacity="1" stroke-width="1" stroke-linecap="butt" stroke-linejoin="miter" stroke="rgb(70.196078%, 70.196078%, 70.196078%)" stroke-opacity="1" stroke-miterlimit="10" d="M 142.21875 632.863281 C 142.21875 639.332031 132.519531 639.332031 132.519531 632.863281 C 132.519531 626.398438 142.21875 626.398438 142.21875 632.863281 "/>
<path fill-rule="nonzero" fill="rgb(70.196078%, 70.196078%, 70.196078%)" fill-opacity="1" stroke-width="1" stroke-linecap="butt" stroke-linejoin="miter" stroke="rgb(70.196078%, 70.196078%, 70.196078%)" stroke-opacity="1" stroke-miterlimit="10" d="M 226.585938 705.351562 C 226.585938 711.820312 216.886719 711.820312 216.886719 705.351562 C 216.886719 698.886719 226.585938 698.886719 226.585938 705.351562 "/>
<path fill-rule="nonzero" fill="rgb(70.196078%, 70.196078%, 70.196078%)" fill-opacity="1" stroke-width="1" stroke-linecap="butt" stroke-linejoin="miter" stroke="rgb(70.196078%, 70.196078%, 70.196078%)" stroke-opacity="1" stroke-miterlimit="10" d="M 341.859375 750 C 341.859375 756.464844 332.160156 756.464844 332.160156 750 C 332.160156 743.535156 341.859375 743.535156 341.859375 750 "/>
<path fill-rule="nonzero" fill="rgb(70.196078%, 70.196078%, 70.196078%)" fill-opacity="1" stroke-width="1" stroke-linecap="butt" stroke-linejoin="miter" stroke="rgb(70.196078%, 70.196078%, 70.196078%)" stroke-opacity="1" stroke-miterlimit="10" d="M 463.109375 739.039062 C 463.109375 745.503906 453.410156 745.503906 453.410156 739.039062 C 453.410156 732.570312 463.109375 732.570312 463.109375 739.039062 "/>
<path fill-rule="nonzero" fill="rgb(70.196078%, 70.196078%, 70.196078%)" fill-opacity="1" stroke-width="1" stroke-linecap="butt" stroke-linejoin="miter" stroke="rgb(70.196078%, 70.196078%, 70.196078%)" stroke-opacity="1" stroke-miterlimit="10" d="M 463.507812 648.789062 C 463.507812 655.253906 453.804688 655.253906 453.804688 648.789062 C 453.804688 642.324219 463.507812 642.324219 463.507812 648.789062 "/>
<path fill-rule="nonzero" fill="rgb(70.196078%, 70.196078%, 70.196078%)" fill-opacity="1" stroke-width="1" stroke-linecap="butt" stroke-linejoin="miter" stroke="rgb(70.196078%, 70.196078%, 70.196078%)" stroke-opacity="1" stroke-miterlimit="10" d="M 400.726562 666.78125 C 400.726562 673.25 391.027344 673.25 391.027344 666.78125 C 391.027344 660.316406 400.726562 660.316406 400.726562 666.78125 "/>
<path fill-rule="nonzero" fill="rgb(70.196078%, 70.196078%, 70.196078%)" fill-opacity="1" stroke-width="1" stroke-linecap="butt" stroke-linejoin="miter" stroke="rgb(70.196078%, 70.196078%, 70.196078%)" stroke-opacity="1" stroke-miterlimit="10" d="M 500.578125 522.769531 C 500.578125 529.238281 490.878906 529.238281 490.878906 522.769531 C 490.878906 516.304688 500.578125 516.304688 500.578125 522.769531 "/>
<path fill-rule="nonzero" fill="rgb(70.196078%, 70.196078%, 70.196078%)" fill-opacity="1" stroke-width="1" stroke-linecap="butt" stroke-linejoin="miter" stroke="rgb(70.196078%, 70.196078%, 70.196078%)" stroke-opacity="1" stroke-miterlimit="10" d="M 504.871094 580.75 C 504.871094 587.21875 495.167969 587.21875 495.167969 580.75 C 495.167969 574.285156 504.871094 574.285156 504.871094 580.75 "/>
<path fill-rule="nonzero" fill="rgb(70.196078%, 70.196078%, 70.196078%)" fill-opacity="1" stroke-width="1" stroke-linecap="butt" stroke-linejoin="miter" stroke="rgb(70.196078%, 70.196078%, 70.196078%)" stroke-opacity="1" stroke-miterlimit="10" d="M 474.742188 474.132812 C 474.742188 480.597656 465.042969 480.597656 465.042969 474.132812 C 465.042969 467.664062 474.742188 467.664062 474.742188 474.132812 "/>
<path fill-rule="nonzero" fill="rgb(70.196078%, 70.196078%, 70.196078%)" fill-opacity="1" stroke-width="1" stroke-linecap="butt" stroke-linejoin="miter" stroke="rgb(70.196078%, 70.196078%, 70.196078%)" stroke-opacity="1" stroke-miterlimit="10" d="M 544.746094 610.480469 C 544.746094 616.945312 535.046875 616.945312 535.046875 610.480469 C 535.046875 604.011719 544.746094 604.011719 544.746094 610.480469 "/>
<path fill-rule="nonzero" fill="rgb(70.196078%, 70.196078%, 70.196078%)" fill-opacity="1" stroke-width="1" stroke-linecap="butt" stroke-linejoin="miter" stroke="rgb(70.196078%, 70.196078%, 70.196078%)" stroke-opacity="1" stroke-miterlimit="10" d="M 567.964844 669.644531 C 567.964844 676.113281 558.261719 676.113281 558.261719 669.644531 C 558.261719 663.179688 567.964844 663.179688 567.964844 669.644531 "/>
<path fill-rule="nonzero" fill="rgb(70.196078%, 70.196078%, 70.196078%)" fill-opacity="1" stroke-width="1" stroke-linecap="butt" stroke-linejoin="miter" stroke="rgb(70.196078%, 70.196078%, 70.196078%)" stroke-opacity="1" stroke-miterlimit="10" d="M 582.84375 491.355469 C 582.84375 497.824219 573.144531 497.824219 573.144531 491.355469 C 573.144531 484.890625 582.84375 484.890625 582.84375 491.355469 "/>
<path fill-rule="nonzero" fill="rgb(70.196078%, 70.196078%, 70.196078%)" fill-opacity="1" stroke-width="1" stroke-linecap="butt" stroke-linejoin="miter" stroke="rgb(70.196078%, 70.196078%, 70.196078%)" stroke-opacity="1" stroke-miterlimit="10" d="M 546.4375 320.796875 C 546.4375 327.265625 536.738281 327.265625 536.738281 320.796875 C 536.738281 314.332031 546.4375 314.332031 546.4375 320.796875 "/>
<path fill-rule="nonzero" fill="rgb(70.196078%, 70.196078%, 70.196078%)" fill-opacity="1" stroke-width="1" stroke-linecap="butt" stroke-linejoin="miter" stroke="rgb(70.196078%, 70.196078%, 70.196078%)" stroke-opacity="1" stroke-miterlimit="10" d="M 508.660156 362.0625 C 508.660156 368.527344 498.960938 368.527344 498.960938 362.0625 C 498.960938 355.59375 508.660156 355.59375 508.660156 362.0625 "/>
<path fill-rule="nonzero" fill="rgb(70.196078%, 70.196078%, 70.196078%)" fill-opacity="1" stroke-width="1" stroke-linecap="butt" stroke-linejoin="miter" stroke="rgb(70.196078%, 70.196078%, 70.196078%)" stroke-opacity="1" stroke-miterlimit="10" d="M 489.136719 218.125 C 489.136719 224.589844 479.4375 224.589844 479.4375 218.125 C 479.4375 211.65625 489.136719 211.65625 489.136719 218.125 "/>
<path fill-rule="nonzero" fill="rgb(70.196078%, 70.196078%, 70.196078%)" fill-opacity="1" stroke-width="1" stroke-linecap="butt" stroke-linejoin="miter" stroke="rgb(70.196078%, 70.196078%, 70.196078%)" stroke-opacity="1" stroke-miterlimit="10" d="M 426.835938 134.980469 C 426.835938 141.449219 417.132812 141.449219 417.132812 134.980469 C 417.132812 128.515625 426.835938 128.515625 426.835938 134.980469 "/>
<path fill-rule="nonzero" fill="rgb(70.196078%, 70.196078%, 70.196078%)" fill-opacity="1" stroke-width="1" stroke-linecap="butt" stroke-linejoin="miter" stroke="rgb(70.196078%, 70.196078%, 70.196078%)" stroke-opacity="1" stroke-miterlimit="10" d="M 360.226562 96.707031 C 360.226562 103.171875 350.523438 103.171875 350.523438 96.707031 C 350.523438 90.238281 360.226562 90.238281 360.226562 96.707031 "/>
<path fill-rule="nonzero" fill="rgb(70.196078%, 70.196078%, 70.196078%)" fill-opacity="1" stroke-width="1" stroke-linecap="butt" stroke-linejoin="miter" stroke="rgb(70.196078%, 70.196078%, 70.196078%)" stroke-opacity="1" stroke-miterlimit="10" d="M 239.191406 130.542969 C 239.191406 137.007812 229.492188 137.007812 229.492188 130.542969 C 229.492188 124.074219 239.191406 124.074219 239.191406 130.542969 "/>
<path fill-rule="nonzero" fill="rgb(70.196078%, 70.196078%, 70.196078%)" fill-opacity="1" stroke-width="1" stroke-linecap="butt" stroke-linejoin="miter" stroke="rgb(70.196078%, 70.196078%, 70.196078%)" stroke-opacity="1" stroke-miterlimit="10" d="M 293.738281 95.734375 C 293.738281 102.203125 284.039062 102.203125 284.039062 95.734375 C 284.039062 89.269531 293.738281 89.269531 293.738281 95.734375 "/>
<path fill-rule="nonzero" fill="rgb(70.196078%, 70.196078%, 70.196078%)" fill-opacity="1" stroke-width="1" stroke-linecap="butt" stroke-linejoin="miter" stroke="rgb(70.196078%, 70.196078%, 70.196078%)" stroke-opacity="1" stroke-miterlimit="10" d="M 581.96875 370.019531 C 581.96875 376.484375 572.265625 376.484375 572.265625 370.019531 C 572.265625 363.554688 581.96875 363.554688 581.96875 370.019531 "/>
<path fill-rule="nonzero" fill="rgb(70.196078%, 70.196078%, 70.196078%)" fill-opacity="1" stroke-width="1" stroke-linecap="butt" stroke-linejoin="miter" stroke="rgb(70.196078%, 70.196078%, 70.196078%)" stroke-opacity="1" stroke-miterlimit="10" d="M 592.652344 622.058594 C 592.652344 628.527344 582.953125 628.527344 582.953125 622.058594 C 582.953125 615.59375 592.652344 615.59375 592.652344 622.058594 "/>
<path fill-rule="nonzero" fill="rgb(70.196078%, 70.196078%, 70.196078%)" fill-opacity="1" stroke-width="1" stroke-linecap="butt" stroke-linejoin="miter" stroke="rgb(70.196078%, 70.196078%, 70.196078%)" stroke-opacity="1" stroke-miterlimit="10" d="M 245.898438 443.09375 C 245.898438 449.558594 236.199219 449.558594 236.199219 443.09375 C 236.199219 436.625 245.898438 436.625 245.898438 443.09375 "/>
<path fill-rule="nonzero" fill="rgb(70.196078%, 70.196078%, 70.196078%)" fill-opacity="1" stroke-width="1" stroke-linecap="butt" stroke-linejoin="miter" stroke="rgb(70.196078%, 70.196078%, 70.196078%)" stroke-opacity="1" stroke-miterlimit="10" d="M 215.851562 195.425781 C 215.851562 201.890625 206.152344 201.890625 206.152344 195.425781 C 206.152344 188.957031 215.851562 188.957031 215.851562 195.425781 "/>
<path fill-rule="nonzero" fill="rgb(70.196078%, 70.196078%, 70.196078%)" fill-opacity="1" stroke-width="1" stroke-linecap="butt" stroke-linejoin="miter" stroke="rgb(70.196078%, 70.196078%, 70.196078%)" stroke-opacity="1" stroke-miterlimit="10" d="M 228.367188 273.957031 C 228.367188 280.425781 218.667969 280.425781 218.667969 273.957031 C 218.667969 267.492188 228.367188 267.492188 228.367188 273.957031 "/>
<path fill-rule="nonzero" fill="rgb(70.196078%, 70.196078%, 70.196078%)" fill-opacity="1" stroke-width="1" stroke-linecap="butt" stroke-linejoin="miter" stroke="rgb(70.196078%, 70.196078%, 70.196078%)" stroke-opacity="1" stroke-miterlimit="10" d="M 239.105469 364.390625 C 239.105469 370.859375 229.40625 370.859375 229.40625 364.390625 C 229.40625 357.925781 239.105469 357.925781 239.105469 364.390625 "/>
<path fill-rule="nonzero" fill="rgb(70.196078%, 70.196078%, 70.196078%)" fill-opacity="1" stroke-width="1" stroke-linecap="butt" stroke-linejoin="miter" stroke="rgb(70.196078%, 70.196078%, 70.196078%)" stroke-opacity="1" stroke-miterlimit="10" d="M 531.824219 649.695312 C 531.824219 656.164062 522.121094 656.164062 522.121094 649.695312 C 522.121094 643.230469 531.824219 643.230469 531.824219 649.695312 "/>
<path fill-rule="nonzero" fill="rgb(70.196078%, 70.196078%, 70.196078%)" fill-opacity="1" stroke-width="1" stroke-linecap="butt" stroke-linejoin="miter" stroke="rgb(70.196078%, 70.196078%, 70.196078%)" stroke-opacity="1" stroke-miterlimit="10" d="M 453 373.175781 C 453 379.644531 443.300781 379.644531 443.300781 373.175781 C 443.300781 366.710938 453 366.710938 453 373.175781 "/>
<path fill-rule="nonzero" fill="rgb(70.196078%, 70.196078%, 70.196078%)" fill-opacity="1" stroke-width="1" stroke-linecap="butt" stroke-linejoin="miter" stroke="rgb(70.196078%, 70.196078%, 70.196078%)" stroke-opacity="1" stroke-miterlimit="10" d="M 443.503906 428.398438 C 443.503906 434.863281 433.804688 434.863281 433.804688 428.398438 C 433.804688 421.929688 443.503906 421.929688 443.503906 428.398438 "/>
<path fill-rule="nonzero" fill="rgb(100%, 84.313725%, 0%)" fill-opacity="1" stroke-width="1" stroke-linecap="butt" stroke-linejoin="miter" stroke="rgb(100%, 84.313725%, 0%)" stroke-opacity="1" stroke-miterlimit="10" d="M 744.648438 378.070312 L 755.347656 378.070312 L 755.347656 388.769531 L 744.648438 388.769531 Z M 744.648438 378.070312 "/>
<path fill-rule="nonzero" fill="rgb(70.196078%, 70.196078%, 70.196078%)" fill-opacity="1" stroke-width="1" stroke-linecap="butt" stroke-linejoin="miter" stroke="rgb(70.196078%, 70.196078%, 70.196078%)" stroke-opacity="1" stroke-miterlimit="10" d="M 704.523438 373.324219 C 704.523438 379.792969 694.824219 379.792969 694.824219 373.324219 C 694.824219 366.859375 704.523438 366.859375 704.523438 373.324219 "/>
<path fill-rule="nonzero" fill="rgb(70.196078%, 70.196078%, 70.196078%)" fill-opacity="1" stroke-width="1" stroke-linecap="butt" stroke-linejoin="miter" stroke="rgb(70.196078%, 70.196078%, 70.196078%)" stroke-opacity="1" stroke-miterlimit="10" d="M 646.035156 367.496094 C 646.035156 373.964844 636.332031 373.964844 636.332031 367.496094 C 636.332031 361.03125 646.035156 361.03125 646.035156 367.496094 "/>
</svg>
