<?xml version="1.0" encoding="UTF-8"?>
<svg xmlns="http://www.w3.org/2000/svg" xmlns:xlink="http://www.w3.org/1999/xlink" width="800" height="800" viewBox="0 0 800 800">
<rect x="-80" y="-80" width="960" height="960" fill="rgb(100%, 100%, 100%)" fill-opacity="1"/>
<path fill="none" stroke-width="4.5" stroke-linecap="butt" stroke-linejoin="miter" stroke="rgb(70.196078%, 70.196078%, 70.196078%)" stroke-opacity="1" stroke-miterlimit="10" d="M 90.488281 198.976562 C 84.21875 227.132812 88.613281 253.625 106.449219 276.265625 "/>
<path fill-rule="nonzero" fill="rgb(70.196078%, 70.196078%, 70.196078%)" fill-opacity="1" d="M 110.863281 281.867188 L 104.628906 277.699219 L 108.269531 274.832031 L 110.863281 281.867188 "/>
<path fill="none" stroke-width="4.5" stroke-linecap="butt" stroke-linejoin="miter" stroke="rgb(70.196078%, 70.196078%, 70.196078%)" stroke-opacity="1" stroke-miterlimit="10" d="M 640.402344 211.765625 C 629.851562 241.378906 631.140625 270.5625 647.320312 297.484375 "/>
<path fill-rule="nonzero" fill="rgb(70.196078%, 70.196078%, 70.196078%)" fill-opacity="1" d="M 650.996094 303.597656 L 645.335938 298.679688 L 649.308594 296.289062 L 650.996094 303.597656 "/>
<path fill="none" stroke-width="4.5" stroke-linecap="butt" stroke-linejoin="miter" stroke="rgb(70.196078%, 70.196078%, 70.196078%)" stroke-opacity="1" stroke-miterlimit="10" d="M 686.617188 163.03125 C 667.015625 169.222656 651.929688 181.289062 644.667969 200.484375 "/>
<path fill-rule="nonzero" fill="rgb(70.196078%, 70.196078%, 70.196078%)" fill-opacity="1" d="M 642.144531 207.15625 L 642.5 199.664062 L 646.835938 201.304688 L 642.144531 207.15625 "/>
<path fill="none" stroke-width="1.5" stroke-linecap="butt" stroke-linejoin="miter" stroke="rgb(12.156863%, 47.058824%, 70.588235%)" stroke-opacity="1" stroke-miterlimit="10" d="M 686.617188 163.03125 C 680.816406 186.835938 684 209.488281 698.867188 228.925781 "/>
<path fill-rule="nonzero" fill="rgb(12.156863%, 47.058824%, 70.588235%)" fill-opacity="1" d="M 703.199219 234.589844 L 697.027344 230.335938 L 700.707031 227.519531 L 703.199219 234.589844 "/>
<path fill="none" stroke-width="2.5" stroke-linecap="butt" stroke-linejoin="miter" stroke="rgb(70.196078%, 70.196078%, 70.196078%)" stroke-opacity="1" stroke-miterlimit="10" d="M 750 609.660156 C 743.082031 589.449219 730.160156 574.105469 710.046875 567.003906 "/>
<path fill-rule="nonzero" fill="rgb(70.196078%, 70.196078%, 70.196078%)" fill-opacity="1" d="M 703.320312 564.628906 L 710.820312 564.816406 L 709.277344 569.1875 L 703.320312 564.628906 "/>
<path fill="none" stroke-width="1.5" stroke-linecap="butt" stroke-linejoin="miter" stroke="rgb(12.156863%, 47.058824%, 70.588235%)" stroke-opacity="1" stroke-miterlimit="10" d="M 704.796875 236.675781 C 679.722656 249.1875 662.394531 268.714844 656.285156 296.035156 "/>
<path fill-rule="nonzero" fill="rgb(12.156863%, 47.058824%, 70.588235%)" fill-opacity="1" d="M 654.730469 302.996094 L 654.023438 295.53125 L 658.546875 296.539062 L 654.730469 302.996094 "/>
<path fill="none" stroke-width="1.5" stroke-linecap="butt" stroke-linejoin="miter" stroke="rgb(12.156863%, 47.058824%, 70.588235%)" stroke-opacity="1" stroke-miterlimit="10" d="M 628.40625 742.320312 C 651.363281 723.789062 664.710938 699.792969 664.878906 670.3125 "/>
<path fill-rule="nonzero" fill="rgb(12.156863%, 47.058824%, 70.588235%)" fill-opacity="1" d="M 664.917969 663.179688 L 667.195312 670.324219 L 662.558594 670.300781 L 664.917969 663.179688 "/>
<path fill="none" stroke-width="1.5" stroke-linecap="butt" stroke-linejoin="miter" stroke="rgb(12.156863%, 47.058824%, 70.588235%)" stroke-opacity="1" stroke-miterlimit="10" d="M 579.300781 704.816406 C 587.242188 722.476562 600.179688 735.292969 618.941406 739.964844 "/>
<path fill-rule="nonzero" fill="rgb(12.156863%, 47.058824%, 70.588235%)" fill-opacity="1" d="M 625.863281 741.6875 L 618.378906 742.210938 L 619.5 737.714844 L 625.863281 741.6875 "/>
<path fill="none" stroke-width="1.5" stroke-linecap="butt" stroke-linejoin="miter" stroke="rgb(12.156863%, 47.058824%, 70.588235%)" stroke-opacity="1" stroke-miterlimit="10" d="M 186.175781 615.941406 C 164.066406 593.339844 137.128906 581.6875 105.644531 584.375 "/>
<path fill-rule="nonzero" fill="rgb(12.156863%, 47.058824%, 70.588235%)" fill-opacity="1" d="M 98.539062 584.980469 L 105.449219 582.0625 L 105.84375 586.683594 L 98.539062 584.980469 "/>
<path fill="none" stroke-width="1.5" stroke-linecap="butt" stroke-linejoin="miter" stroke="rgb(12.156863%, 47.058824%, 70.588235%)" stroke-opacity="1" stroke-miterlimit="10" d="M 265.371094 599.472656 C 240.003906 592.398438 215.601562 595.082031 194.136719 610.296875 "/>
<path fill-rule="nonzero" fill="rgb(12.156863%, 47.058824%, 70.588235%)" fill-opacity="1" d="M 188.316406 614.425781 L 192.796875 608.40625 L 195.476562 612.191406 L 188.316406 614.425781 "/>
<path fill="none" stroke-width="1.5" stroke-linecap="butt" stroke-linejoin="miter" stroke="rgb(12.156863%, 47.058824%, 70.588235%)" stroke-opacity="1" stroke-miterlimit="10" d="M 50 519.957031 C 68.390625 512.789062 82.082031 500.28125 87.832031 481.433594 "/>
<path fill-rule="nonzero" fill="rgb(12.156863%, 47.058824%, 70.588235%)" fill-opacity="1" d="M 89.914062 474.613281 L 90.050781 482.109375 L 85.617188 480.757812 L 89.914062 474.613281 "/>
<path fill="none" stroke-width="1.5" stroke-linecap="butt" stroke-linejoin="miter" stroke="rgb(12.156863%, 47.058824%, 70.588235%)" stroke-opacity="1" stroke-miterlimit="10" d="M 95.921875 585.203125 C 92.421875 559.507812 80.480469 538.476562 58.339844 525.023438 "/>
<path fill-rule="nonzero" fill="rgb(12.156863%, 47.058824%, 70.588235%)" fill-opacity="1" d="M 52.242188 521.320312 L 59.542969 523.042969 L 57.136719 527.003906 L 52.242188 521.320312 "/>
<path fill="none" stroke-width="4.5" stroke-linecap="butt" stroke-linejoin="miter" stroke="rgb(70.196078%, 70.196078%, 70.196078%)" stroke-opacity="1" stroke-miterlimit="10" d="M 134.644531 511.777344 C 103.761719 554.644531 92.976562 602.136719 105.726562 653.390625 "/>
<path fill-rule="nonzero" fill="rgb(70.196078%, 70.196078%, 70.196078%)" fill-opacity="1" d="M 107.449219 660.316406 L 103.480469 653.953125 L 107.976562 652.832031 L 107.449219 660.316406 "/>
<path fill="none" stroke-width="1.5" stroke-linecap="butt" stroke-linejoin="miter" stroke="rgb(12.156863%, 47.058824%, 70.588235%)" stroke-opacity="1" stroke-miterlimit="10" d="M 90.679688 472.105469 C 95.835938 488.464844 105.832031 501.277344 121.910156 507.136719 "/>
<path fill-rule="nonzero" fill="rgb(12.156863%, 47.058824%, 70.588235%)" fill-opacity="1" d="M 128.609375 509.578125 L 121.113281 509.3125 L 122.703125 504.957031 L 128.609375 509.578125 "/>
<path fill="none" stroke-width="1.5" stroke-linecap="butt" stroke-linejoin="miter" stroke="rgb(12.156863%, 47.058824%, 70.588235%)" stroke-opacity="1" stroke-miterlimit="10" d="M 335.753906 526.265625 C 303.804688 537.558594 280.402344 558.519531 268.734375 590.308594 "/>
<path fill-rule="nonzero" fill="rgb(12.156863%, 47.058824%, 70.588235%)" fill-opacity="1" d="M 266.277344 597.003906 L 266.558594 589.511719 L 270.910156 591.109375 L 266.277344 597.003906 "/>
<path fill="none" stroke-width="4.5" stroke-linecap="butt" stroke-linejoin="miter" stroke="rgb(70.196078%, 70.196078%, 70.196078%)" stroke-opacity="1" stroke-miterlimit="10" d="M 335.753906 526.265625 C 348.28125 513.605469 355.136719 498.234375 352.792969 480.621094 "/>
<path fill-rule="nonzero" fill="rgb(70.196078%, 70.196078%, 70.196078%)" fill-opacity="1" d="M 351.851562 473.550781 L 355.089844 480.316406 L 350.496094 480.925781 L 351.851562 473.550781 "/>
<path fill="none" stroke-width="2.5" stroke-linecap="butt" stroke-linejoin="miter" stroke="rgb(70.196078%, 70.196078%, 70.196078%)" stroke-opacity="1" stroke-miterlimit="10" d="M 729.816406 679.988281 C 745.820312 663.671875 754.1875 643.972656 751.421875 621.316406 "/>
<path fill-rule="nonzero" fill="rgb(70.196078%, 70.196078%, 70.196078%)" fill-opacity="1" d="M 750.558594 614.234375 L 753.722656 621.035156 L 749.121094 621.597656 L 750.558594 614.234375 "/>
<path fill="none" stroke-width="1.5" stroke-linecap="butt" stroke-linejoin="miter" stroke="rgb(12.156863%, 47.058824%, 70.588235%)" stroke-opacity="1" stroke-miterlimit="10" d="M 410.21875 460.609375 C 378.953125 468.429688 354.804688 486.121094 340.996094 515.21875 "/>
<path fill-rule="nonzero" fill="rgb(12.156863%, 47.058824%, 70.588235%)" fill-opacity="1" d="M 337.9375 521.664062 L 338.902344 514.226562 L 343.089844 516.214844 L 337.9375 521.664062 "/>
<path fill="none" stroke-width="1.5" stroke-linecap="butt" stroke-linejoin="miter" stroke="rgb(12.156863%, 47.058824%, 70.588235%)" stroke-opacity="1" stroke-miterlimit="10" d="M 479.054688 461.316406 C 459.78125 450.839844 439.390625 448.296875 419.207031 456.816406 "/>
<path fill-rule="nonzero" fill="rgb(12.156863%, 47.058824%, 70.588235%)" fill-opacity="1" d="M 412.636719 459.589844 L 418.308594 454.679688 L 420.109375 458.949219 L 412.636719 459.589844 "/>
<path fill="none" stroke-width="4.5" stroke-linecap="butt" stroke-linejoin="miter" stroke="rgb(70.196078%, 70.196078%, 70.196078%)" stroke-opacity="1" stroke-miterlimit="10" d="M 479.054688 461.316406 C 456.132812 470.824219 439.5 486.984375 432.542969 510.777344 "/>
<path fill-rule="nonzero" fill="rgb(70.196078%, 70.196078%, 70.196078%)" fill-opacity="1" d="M 430.542969 517.625 L 430.320312 510.128906 L 434.769531 511.429688 L 430.542969 517.625 "/>
<path fill="none" stroke-width="5.5" stroke-linecap="butt" stroke-linejoin="miter" stroke="rgb(70.196078%, 70.196078%, 70.196078%)" stroke-opacity="1" stroke-miterlimit="10" d="M 561.363281 432.585938 C 533.699219 428.476562 508.359375 434.539062 487.730469 453.390625 "/>
<path fill-rule="nonzero" fill="rgb(70.196078%, 70.196078%, 70.196078%)" fill-opacity="1" d="M 482.464844 458.199219 L 486.164062 451.679688 L 489.292969 455.101562 L 482.464844 458.199219 "/>
<path fill="none" stroke-width="4.5" stroke-linecap="butt" stroke-linejoin="miter" stroke="rgb(70.196078%, 70.196078%, 70.196078%)" stroke-opacity="1" stroke-miterlimit="10" d="M 108.570312 664.808594 C 91.082031 686.105469 83.335938 710.59375 88.851562 737.566406 "/>
<path fill-rule="nonzero" fill="rgb(70.196078%, 70.196078%, 70.196078%)" fill-opacity="1" d="M 90.277344 744.554688 L 86.578125 738.03125 L 91.121094 737.101562 L 90.277344 744.554688 "/>
<path fill="none" stroke-width="4.5" stroke-linecap="butt" stroke-linejoin="miter" stroke="rgb(70.196078%, 70.196078%, 70.196078%)" stroke-opacity="1" stroke-miterlimit="10" d="M 134.070312 384.214844 C 115.183594 422.003906 112.511719 460.980469 129.378906 499.695312 "/>
<path fill-rule="nonzero" fill="rgb(70.196078%, 70.196078%, 70.196078%)" fill-opacity="1" d="M 132.226562 506.234375 L 127.253906 500.621094 L 131.503906 498.769531 L 132.226562 506.234375 "/>
<path fill="none" stroke-width="4.5" stroke-linecap="butt" stroke-linejoin="miter" stroke="rgb(70.196078%, 70.196078%, 70.196078%)" stroke-opacity="1" stroke-miterlimit="10" d="M 145.644531 54.507812 C 124.671875 41.675781 102.03125 37.742188 78.914062 46.035156 "/>
<path fill-rule="nonzero" fill="rgb(70.196078%, 70.196078%, 70.196078%)" fill-opacity="1" d="M 72.199219 48.441406 L 78.132812 43.851562 L 79.699219 48.214844 L 72.199219 48.441406 "/>
<path fill="none" stroke-width="4.5" stroke-linecap="butt" stroke-linejoin="miter" stroke="rgb(70.196078%, 70.196078%, 70.196078%)" stroke-opacity="1" stroke-miterlimit="10" d="M 220.289062 90.515625 C 204.640625 69.257812 183.722656 56.257812 157.382812 55.046875 "/>
<path fill-rule="nonzero" fill="rgb(70.196078%, 70.196078%, 70.196078%)" fill-opacity="1" d="M 150.253906 54.722656 L 157.488281 52.734375 L 157.273438 57.363281 L 150.253906 54.722656 "/>
<path fill="none" stroke-width="4.5" stroke-linecap="butt" stroke-linejoin="miter" stroke="rgb(70.196078%, 70.196078%, 70.196078%)" stroke-opacity="1" stroke-miterlimit="10" d="M 281.25 152.496094 C 273.183594 125.808594 256.929688 105.546875 231.160156 94.972656 "/>
<path fill-rule="nonzero" fill="rgb(70.196078%, 70.196078%, 70.196078%)" fill-opacity="1" d="M 224.558594 92.265625 L 232.039062 92.828125 L 230.28125 97.117188 L 224.558594 92.265625 "/>
<path fill="none" stroke-width="4.5" stroke-linecap="butt" stroke-linejoin="miter" stroke="rgb(70.196078%, 70.196078%, 70.196078%)" stroke-opacity="1" stroke-miterlimit="10" d="M 319.363281 240.914062 C 321.554688 209.699219 312.507812 182.0625 289.789062 160.570312 "/>
<path fill-rule="nonzero" fill="rgb(70.196078%, 70.196078%, 70.196078%)" fill-opacity="1" d="M 284.605469 155.671875 L 291.382812 158.886719 L 288.195312 162.253906 L 284.605469 155.671875 "/>
<path fill="none" stroke-width="4.5" stroke-linecap="butt" stroke-linejoin="miter" stroke="rgb(70.196078%, 70.196078%, 70.196078%)" stroke-opacity="1" stroke-miterlimit="10" d="M 336.539062 346.5 C 347.277344 312.980469 344.660156 280.449219 325.699219 250.816406 "/>
<path fill-rule="nonzero" fill="rgb(70.196078%, 70.196078%, 70.196078%)" fill-opacity="1" d="M 321.855469 244.808594 L 327.652344 249.566406 L 323.746094 252.066406 L 321.855469 244.808594 "/>
<path fill="none" stroke-width="4.5" stroke-linecap="butt" stroke-linejoin="miter" stroke="rgb(70.196078%, 70.196078%, 70.196078%)" stroke-opacity="1" stroke-miterlimit="10" d="M 351.136719 468.171875 C 338.609375 480.832031 331.753906 496.203125 334.097656 513.816406 "/>
<path fill-rule="nonzero" fill="rgb(70.196078%, 70.196078%, 70.196078%)" fill-opacity="1" d="M 335.035156 520.886719 L 331.796875 514.121094 L 336.394531 513.511719 L 335.035156 520.886719 "/>
<path fill="none" stroke-width="4.5" stroke-linecap="butt" stroke-linejoin="miter" stroke="rgb(70.196078%, 70.196078%, 70.196078%)" stroke-opacity="1" stroke-miterlimit="10" d="M 351.136719 468.171875 C 364.980469 429.699219 363.109375 391.929688 342.476562 356.652344 "/>
<path fill-rule="nonzero" fill="rgb(70.196078%, 70.196078%, 70.196078%)" fill-opacity="1" d="M 338.875 350.496094 L 344.476562 355.484375 L 340.476562 357.824219 L 338.875 350.496094 "/>
<path fill="none" stroke-width="4.5" stroke-linecap="butt" stroke-linejoin="miter" stroke="rgb(70.196078%, 70.196078%, 70.196078%)" stroke-opacity="1" stroke-miterlimit="10" d="M 429.25 522.050781 C 414.921875 494.980469 393.117188 476.664062 363.121094 470.597656 "/>
<path fill-rule="nonzero" fill="rgb(70.196078%, 70.196078%, 70.196078%)" fill-opacity="1" d="M 356.128906 469.179688 L 363.578125 468.324219 L 362.660156 472.867188 L 356.128906 469.179688 "/>
<path fill="none" stroke-width="5.5" stroke-linecap="butt" stroke-linejoin="miter" stroke="rgb(70.196078%, 70.196078%, 70.196078%)" stroke-opacity="1" stroke-miterlimit="10" d="M 666.507812 468.550781 C 640.902344 442.242188 609.667969 428.765625 573.085938 431.660156 "/>
<path fill-rule="nonzero" fill="rgb(70.196078%, 70.196078%, 70.196078%)" fill-opacity="1" d="M 565.972656 432.222656 L 572.902344 429.347656 L 573.269531 433.96875 L 565.972656 432.222656 "/>
<path fill="none" stroke-width="5.5" stroke-linecap="butt" stroke-linejoin="miter" stroke="rgb(70.196078%, 70.196078%, 70.196078%)" stroke-opacity="1" stroke-miterlimit="10" d="M 698.195312 562.816406 C 703.078125 530.734375 696.007812 501.445312 674.355469 477.300781 "/>
<path fill-rule="nonzero" fill="rgb(70.196078%, 70.196078%, 70.196078%)" fill-opacity="1" d="M 669.59375 471.992188 L 676.082031 475.753906 L 672.632812 478.851562 L 669.59375 471.992188 "/>
<path fill="none" stroke-width="2.5" stroke-linecap="butt" stroke-linejoin="miter" stroke="rgb(70.196078%, 70.196078%, 70.196078%)" stroke-opacity="1" stroke-miterlimit="10" d="M 664.949219 658.089844 C 679.144531 673.605469 696.839844 682.371094 717.785156 680.859375 "/>
<path fill-rule="nonzero" fill="rgb(70.196078%, 70.196078%, 70.196078%)" fill-opacity="1" d="M 724.898438 680.34375 L 717.949219 683.171875 L 717.617188 678.546875 L 724.898438 680.34375 "/>
<path fill="none" stroke-width="3.5" stroke-linecap="butt" stroke-linejoin="miter" stroke="rgb(70.196078%, 70.196078%, 70.196078%)" stroke-opacity="1" stroke-miterlimit="10" d="M 664.949219 658.089844 C 688.777344 635.511719 701.328125 607.738281 699.046875 575.015625 "/>
<path fill-rule="nonzero" fill="rgb(70.196078%, 70.196078%, 70.196078%)" fill-opacity="1" d="M 698.550781 567.898438 L 701.359375 574.851562 L 696.734375 575.175781 L 698.550781 567.898438 "/>
<path fill="none" stroke-width="4.5" stroke-linecap="butt" stroke-linejoin="miter" stroke="rgb(70.196078%, 70.196078%, 70.196078%)" stroke-opacity="1" stroke-miterlimit="10" d="M 113.722656 285.492188 C 104.894531 317.230469 108.46875 347.601562 127.335938 374.582031 "/>
<path fill-rule="nonzero" fill="rgb(70.196078%, 70.196078%, 70.196078%)" fill-opacity="1" d="M 131.421875 380.425781 L 125.4375 375.910156 L 129.234375 373.253906 L 131.421875 380.425781 "/>
<path fill="none" stroke-width="4.5" stroke-linecap="butt" stroke-linejoin="miter" stroke="rgb(70.196078%, 70.196078%, 70.196078%)" stroke-opacity="1" stroke-miterlimit="10" d="M 71.871094 120.292969 C 65.371094 145.117188 68.304688 168.890625 83.519531 189.523438 "/>
<path fill-rule="nonzero" fill="rgb(70.196078%, 70.196078%, 70.196078%)" fill-opacity="1" d="M 87.753906 195.265625 L 81.652344 190.898438 L 85.382812 188.148438 L 87.753906 195.265625 "/>
<path fill="none" stroke-width="4.5" stroke-linecap="butt" stroke-linejoin="miter" stroke="rgb(70.196078%, 70.196078%, 70.196078%)" stroke-opacity="1" stroke-miterlimit="10" d="M 67.859375 50 C 58.507812 69.742188 57.0625 90.179688 66.691406 109.757812 "/>
<path fill-rule="nonzero" fill="rgb(70.196078%, 70.196078%, 70.196078%)" fill-opacity="1" d="M 69.839844 116.15625 L 64.609375 110.78125 L 68.769531 108.734375 L 69.839844 116.15625 "/>
<path fill="none" stroke-width="1.5" stroke-linecap="butt" stroke-linejoin="miter" stroke="rgb(12.156863%, 47.058824%, 70.588235%)" stroke-opacity="1" stroke-miterlimit="10" d="M 605.277344 609.0625 C 583.21875 633.648438 572.957031 662.515625 577.851562 695.164062 "/>
<path fill-rule="nonzero" fill="rgb(12.156863%, 47.058824%, 70.588235%)" fill-opacity="1" d="M 578.910156 702.21875 L 575.558594 695.507812 L 580.144531 694.820312 L 578.910156 702.21875 "/>
<path fill="none" stroke-width="4.5" stroke-linecap="butt" stroke-linejoin="miter" stroke="rgb(70.196078%, 70.196078%, 70.196078%)" stroke-opacity="1" stroke-miterlimit="10" d="M 605.277344 609.0625 C 614.335938 631.351562 629.867188 647.640625 652.898438 654.5 "/>
<path fill-rule="nonzero" fill="rgb(70.196078%, 70.196078%, 70.196078%)" fill-opacity="1" d="M 659.734375 656.535156 L 652.234375 656.722656 L 653.558594 652.277344 L 659.734375 656.535156 "/>
<path fill="none" stroke-width="5.5" stroke-linecap="butt" stroke-linejoin="miter" stroke="rgb(70.196078%, 70.196078%, 70.196078%)" stroke-opacity="1" stroke-miterlimit="10" d="M 616.753906 463.476562 C 591.476562 506.003906 585.25 551.210938 601.429688 597.945312 "/>
<path fill-rule="nonzero" fill="rgb(70.196078%, 70.196078%, 70.196078%)" fill-opacity="1" d="M 603.761719 604.6875 L 599.238281 598.703125 L 603.617188 597.1875 L 603.761719 604.6875 "/>
<path fill="none" stroke-width="5.5" stroke-linecap="butt" stroke-linejoin="miter" stroke="rgb(70.196078%, 70.196078%, 70.196078%)" stroke-opacity="1" stroke-miterlimit="10" d="M 653.621094 307.960938 C 619.039062 350.097656 604.882812 398.289062 614.644531 451.902344 "/>
<path fill-rule="nonzero" fill="rgb(70.196078%, 70.196078%, 70.196078%)" fill-opacity="1" d="M 615.921875 458.921875 L 612.367188 452.316406 L 616.925781 451.488281 L 615.921875 458.921875 "/>
<path fill-rule="nonzero" fill="rgb(70.196078%, 70.196078%, 70.196078%)" fill-opacity="1" stroke-width="1" stroke-linecap="butt" stroke-linejoin="miter" stroke="rgb(70.196078%, 70.196078%, 70.196078%)" stroke-opacity="1" stroke-miterlimit="10" d="M 95.339844 198.976562 C 95.339844 205.445312 85.640625 205.445312 85.640625 198.976562 C 85.640625 192.511719 95.339844 192.511719 95.339844 198.976562 "/>
<path fill-rule="nonzero" fill="rgb(70.196078%, 70.196078%, 70.196078%)" fill-opacity="1" stroke-width="1" stroke-linecap="butt" stroke-linejoin="miter" stroke="rgb(70.196078%, 70.196078%, 70.196078%)" stroke-opacity="1" stroke-miterlimit="10" d="M 645.25 211.765625 C 645.25 218.234375 635.550781 218.234375 635.550781 211.765625 C 635.550781 205.300781 645.25 205.300781 645.25 211.765625 "/>
<path fill-rule="nonzero" fill="rgb(100%, 84.313725%, 0%)" fill-opacity="1" stroke-width="1" stroke-linecap="butt" stroke-linejoin="miter" stroke="rgb(100%, 84.313725%, 0%)" stroke-opacity="1" stroke-miterlimit="10" d="M 681.265625 157.683594 L 691.964844 157.683594 L 691.964844 168.382812 L 681.265625 168.382812 Z M 681.265625 157.683594 "/>
<path fill-rule="nonzero" fill="rgb(70.196078%, 70.196078%, 70.196078%)" fill-opacity="1" stroke-width="1" stroke-linecap="butt" stroke-linejoin="miter" stroke="rgb(70.196078%, 70.196078%, 70.196078%)" stroke-opacity="1" stroke-miterlimit="10" d="M 754.851562 609.660156 C 754.851562 616.128906 745.148438 616.128906 745.148438 609.660156 C 745.148438 603.195312 754.851562 603.195312 754.851562 609.660156 "/>
<path fill-rule="nonzero" fill="rgb(12.156863%, 47.058824%, 70.588235%)" fill-opacity="1" stroke-width="1" stroke-linecap="butt" stroke-linejoin="miter" stroke="rgb(12.156863%, 47.058824%, 70.588235%)" stroke-opacity="1" stroke-miterlimit="10" d="M 707.546875 236.675781 C 707.546875 240.34375 702.046875 240.34375 702.046875 236.675781 C 702.046875 233.011719 707.546875 233.011719 707.546875 236.675781 "/>
<path fill-rule="nonzero" fill="rgb(12.156863%, 47.058824%, 70.588235%)" fill-opacity="1" stroke-width="1" stroke-linecap="butt" stroke-linejoin="miter" stroke="rgb(12.156863%, 47.058824%, 70.588235%)" stroke-opacity="1" stroke-miterlimit="10" d="M 631.15625 742.320312 C 631.15625 745.988281 625.65625 745.988281 625.65625 742.320312 C 625.65625 738.652344 631.15625 738.652344 631.15625 742.320312 "/>
<path fill-rule="nonzero" fill="rgb(12.156863%, 47.058824%, 70.588235%)" fill-opacity="1" stroke-width="1" stroke-linecap="butt" stroke-linejoin="miter" stroke="rgb(12.156863%, 47.058824%, 70.588235%)" stroke-opacity="1" stroke-miterlimit="10" d="M 582.050781 704.816406 C 582.050781 708.484375 576.550781 708.484375 576.550781 704.816406 C 576.550781 701.148438 582.050781 701.148438 582.050781 704.816406 "/>
<path fill-rule="nonzero" fill="rgb(12.156863%, 47.058824%, 70.588235%)" fill-opacity="1" stroke-width="1" stroke-linecap="butt" stroke-linejoin="miter" stroke="rgb(12.156863%, 47.058824%, 70.588235%)" stroke-opacity="1" stroke-miterlimit="10" d="M 188.925781 615.941406 C 188.925781 619.609375 183.425781 619.609375 183.425781 615.941406 C 183.425781 612.277344 188.925781 612.277344 188.925781 615.941406 "/>
<path fill-rule="nonzero" fill="rgb(12.156863%, 47.058824%, 70.588235%)" fill-opacity="1" stroke-width="1" stroke-linecap="butt" stroke-linejoin="miter" stroke="rgb(12.156863%, 47.058824%, 70.588235%)" stroke-opacity="1" stroke-miterlimit="10" d="M 268.121094 599.472656 C 268.121094 603.140625 262.621094 603.140625 262.621094 599.472656 C 262.621094 595.804688 268.121094 595.804688 268.121094 599.472656 "/>
<path fill-rule="nonzero" fill="rgb(12.156863%, 47.058824%, 70.588235%)" fill-opacity="1" stroke-width="1" stroke-linecap="butt" stroke-linejoin="miter" stroke="rgb(12.156863%, 47.058824%, 70.588235%)" stroke-opacity="1" stroke-miterlimit="10" d="M 52.75 519.957031 C 52.75 523.621094 47.25 523.621094 47.25 519.957031 C 47.25 516.289062 52.75 516.289062 52.75 519.957031 "/>
<path fill-rule="nonzero" fill="rgb(12.156863%, 47.058824%, 70.588235%)" fill-opacity="1" stroke-width="1" stroke-linecap="butt" stroke-linejoin="miter" stroke="rgb(12.156863%, 47.058824%, 70.588235%)" stroke-opacity="1" stroke-miterlimit="10" d="M 98.671875 585.203125 C 98.671875 588.871094 93.171875 588.871094 93.171875 585.203125 C 93.171875 581.535156 98.671875 581.535156 98.671875 585.203125 "/>
<path fill-rule="nonzero" fill="rgb(14.901961%, 14.901961%, 14.901961%)" fill-opacity="1" stroke-width="1" stroke-linecap="butt" stroke-linejoin="miter" stroke="rgb(14.901961%, 14.901961%, 14.901961%)" stroke-opacity="1" stroke-miterlimit="10" d="M 128.292969 518.128906 L 134.644531 505.429688 L 140.996094 518.128906 Z M 128.292969 518.128906 "/>
<path fill-rule="nonzero" fill="rgb(12.156863%, 47.058824%, 70.588235%)" fill-opacity="1" stroke-width="1" stroke-linecap="butt" stroke-linejoin="miter" stroke="rgb(12.156863%, 47.058824%, 70.588235%)" stroke-opacity="1" stroke-miterlimit="10" d="M 93.429688 472.105469 C 93.429688 475.769531 87.929688 475.769531 87.929688 472.105469 C 87.929688 468.4375 93.429688 468.4375 93.429688 472.105469 "/>
<path fill-rule="nonzero" fill="rgb(70.196078%, 70.196078%, 70.196078%)" fill-opacity="1" stroke-width="1" stroke-linecap="butt" stroke-linejoin="miter" stroke="rgb(70.196078%, 70.196078%, 70.196078%)" stroke-opacity="1" stroke-miterlimit="10" d="M 341.101562 526.265625 C 341.101562 533.398438 330.402344 533.398438 330.402344 526.265625 C 330.402344 519.132812 341.101562 519.132812 341.101562 526.265625 "/>
<path fill-rule="nonzero" fill="rgb(70.196078%, 70.196078%, 70.196078%)" fill-opacity="1" stroke-width="1" stroke-linecap="butt" stroke-linejoin="miter" stroke="rgb(70.196078%, 70.196078%, 70.196078%)" stroke-opacity="1" stroke-miterlimit="10" d="M 734.667969 679.988281 C 734.667969 686.457031 724.964844 686.457031 724.964844 679.988281 C 724.964844 673.523438 734.667969 673.523438 734.667969 679.988281 "/>
<path fill-rule="nonzero" fill="rgb(12.156863%, 47.058824%, 70.588235%)" fill-opacity="1" stroke-width="1" stroke-linecap="butt" stroke-linejoin="miter" stroke="rgb(12.156863%, 47.058824%, 70.588235%)" stroke-opacity="1" stroke-miterlimit="10" d="M 412.96875 460.609375 C 412.96875 464.277344 407.46875 464.277344 407.46875 460.609375 C 407.46875 456.941406 412.96875 456.941406 412.96875 460.609375 "/>
<path fill-rule="nonzero" fill="rgb(70.196078%, 70.196078%, 70.196078%)" fill-opacity="1" stroke-width="1" stroke-linecap="butt" stroke-linejoin="miter" stroke="rgb(70.196078%, 70.196078%, 70.196078%)" stroke-opacity="1" stroke-miterlimit="10" d="M 483.90625 461.316406 C 483.90625 467.78125 474.203125 467.78125 474.203125 461.316406 C 474.203125 454.847656 483.90625 454.847656 483.90625 461.316406 "/>
<path fill-rule="nonzero" fill="rgb(70.196078%, 70.196078%, 70.196078%)" fill-opacity="1" stroke-width="1" stroke-linecap="butt" stroke-linejoin="miter" stroke="rgb(70.196078%, 70.196078%, 70.196078%)" stroke-opacity="1" stroke-miterlimit="10" d="M 566.214844 432.585938 C 566.214844 439.050781 556.515625 439.050781 556.515625 432.585938 C 556.515625 426.117188 566.214844 426.117188 566.214844 432.585938 "/>
<path fill-rule="nonzero" fill="rgb(14.901961%, 14.901961%, 14.901961%)" fill-opacity="1" stroke-width="1" stroke-linecap="butt" stroke-linejoin="miter" stroke="rgb(14.901961%, 14.901961%, 14.901961%)" stroke-opacity="1" stroke-miterlimit="10" d="M 85.542969 755.851562 L 91.390625 744.148438 L 97.242188 755.851562 Z M 85.542969 755.851562 "/>
<path fill-rule="nonzero" fill="rgb(70.196078%, 70.196078%, 70.196078%)" fill-opacity="1" stroke-width="1" stroke-linecap="butt" stroke-linejoin="miter" stroke="rgb(70.196078%, 70.196078%, 70.196078%)" stroke-opacity="1" stroke-miterlimit="10" d="M 113.417969 664.808594 C 113.417969 671.277344 103.71875 671.277344 103.71875 664.808594 C 103.71875 658.34375 113.417969 658.34375 113.417969 664.808594 "/>
<path fill-rule="nonzero" fill="rgb(70.196078%, 70.196078%, 70.196078%)" fill-opacity="1" stroke-width="1" stroke-linecap="butt" stroke-linejoin="miter" stroke="rgb(70.196078%, 70.196078%, 70.196078%)" stroke-opacity="1" stroke-miterlimit="10" d="M 138.921875 384.214844 C 138.921875 390.679688 129.222656 390.679688 129.222656 384.214844 C 129.222656 377.746094 138.921875 377.746094 138.921875 384.214844 "/>
<path fill-rule="nonzero" fill="rgb(70.196078%, 70.196078%, 70.196078%)" fill-opacity="1" stroke-width="1" stroke-linecap="butt" stroke-linejoin="miter" stroke="rgb(70.196078%, 70.196078%, 70.196078%)" stroke-opacity="1" stroke-miterlimit="10" d="M 150.496094 54.507812 C 150.496094 60.976562 140.796875 60.976562 140.796875 54.507812 C 140.796875 48.042969 150.496094 48.042969 150.496094 54.507812 "/>
<path fill-rule="nonzero" fill="rgb(70.196078%, 70.196078%, 70.196078%)" fill-opacity="1" stroke-width="1" stroke-linecap="butt" stroke-linejoin="miter" stroke="rgb(70.196078%, 70.196078%, 70.196078%)" stroke-opacity="1" stroke-miterlimit="10" d="M 225.140625 90.515625 C 225.140625 96.980469 215.4375 96.980469 215.4375 90.515625 C 215.4375 84.050781 225.140625 84.050781 225.140625 90.515625 "/>
<path fill-rule="nonzero" fill="rgb(70.196078%, 70.196078%, 70.196078%)" fill-opacity="1" stroke-width="1" stroke-linecap="butt" stroke-linejoin="miter" stroke="rgb(70.196078%, 70.196078%, 70.196078%)" stroke-opacity="1" stroke-miterlimit="10" d="M 286.101562 152.496094 C 286.101562 158.960938 276.402344 158.960938 276.402344 152.496094 C 276.402344 146.027344 286.101562 146.027344 286.101562 152.496094 "/>
<path fill-rule="nonzero" fill="rgb(70.196078%, 70.196078%, 70.196078%)" fill-opacity="1" stroke-width="1" stroke-linecap="butt" stroke-linejoin="miter" stroke="rgb(70.196078%, 70.196078%, 70.196078%)" stroke-opacity="1" stroke-miterlimit="10" d="M 324.210938 240.914062 C 324.210938 247.382812 314.511719 247.382812 314.511719 240.914062 C 314.511719 234.449219 324.210938 234.449219 324.210938 240.914062 "/>
<path fill-rule="nonzero" fill="rgb(70.196078%, 70.196078%, 70.196078%)" fill-opacity="1" stroke-width="1" stroke-linecap="butt" stroke-linejoin="miter" stroke="rgb(70.196078%, 70.196078%, 70.196078%)" stroke-opacity="1" stroke-miterlimit="10" d="M 341.390625 346.5 C 341.390625 352.96875 331.691406 352.96875 331.691406 346.5 C 331.691406 340.035156 341.390625 340.035156 341.390625 346.5 "/>
<path fill-rule="nonzero" fill="rgb(70.196078%, 70.196078%, 70.196078%)" fill-opacity="1" stroke-width="1" stroke-linecap="butt" stroke-linejoin="miter" stroke="rgb(70.196078%, 70.196078%, 70.196078%)" stroke-opacity="1" stroke-miterlimit="10" d="M 356.488281 468.171875 C 356.488281 475.304688 345.789062 475.304688 345.789062 468.171875 C 345.789062 461.039062 356.488281 461.039062 356.488281 468.171875 "/>
<path fill-rule="nonzero" fill="rgb(70.196078%, 70.196078%, 70.196078%)" fill-opacity="1" stroke-width="1" stroke-linecap="butt" stroke-linejoin="miter" stroke="rgb(70.196078%, 70.196078%, 70.196078%)" stroke-opacity="1" stroke-miterlimit="10" d="M 434.097656 522.050781 C 434.097656 528.519531 424.398438 528.519531 424.398438 522.050781 C 424.398438 515.585938 434.097656 515.585938 434.097656 522.050781 "/>
<path fill-rule="nonzero" fill="rgb(70.196078%, 70.196078%, 70.196078%)" fill-opacity="1" stroke-width="1" stroke-linecap="butt" stroke-linejoin="miter" stroke="rgb(70.196078%, 70.196078%, 70.196078%)" stroke-opacity="1" stroke-miterlimit="10" d="M 671.359375 468.550781 C 671.359375 475.019531 661.660156 475.019531 661.660156 468.550781 C 661.660156 462.085938 671.359375 462.085938 671.359375 468.550781 "/>
<path fill-rule="nonzero" fill="rgb(70.196078%, 70.196078%, 70.196078%)" fill-opacity="1" stroke-width="1" stroke-linecap="butt" stroke-linejoin="miter" stroke="rgb(70.196078%, 70.196078%, 70.196078%)" stroke-opacity="1" stroke-miterlimit="10" d="M 703.546875 562.816406 C 703.546875 569.949219 692.847656 569.949219 692.847656 562.816406 C 692.847656 555.683594 703.546875 555.683594 703.546875 562.816406 "/>
<path fill-rule="nonzero" fill="rgb(70.196078%, 70.196078%, 70.196078%)" fill-opacity="1" stroke-width="1" stroke-linecap="butt" stroke-linejoin="miter" stroke="rgb(70.196078%, 70.196078%, 70.196078%)" stroke-opacity="1" stroke-miterlimit="10" d="M 670.296875 658.089844 C 670.296875 665.222656 659.597656 665.222656 659.597656 658.089844 C 659.597656 650.957031 670.296875 650.957031 670.296875 658.089844 "/>
<path fill-rule="nonzero" fill="rgb(70.196078%, 70.196078%, 70.196078%)" fill-opacity="1" stroke-width="1" stroke-linecap="butt" stroke-linejoin="miter" stroke="rgb(70.196078%, 70.196078%, 70.196078%)" stroke-opacity="1" stroke-miterlimit="10" d="M 118.570312 285.492188 C 118.570312 291.960938 108.871094 291.960938 108.871094 285.492188 C 108.871094 279.027344 118.570312 279.027344 118.570312 285.492188 "/>
<path fill-rule="nonzero" fill="rgb(70.196078%, 70.196078%, 70.196078%)" fill-opacity="1" stroke-width="1" stroke-linecap="butt" stroke-linejoin="miter" stroke="rgb(70.196078%, 70.196078%, 70.196078%)" stroke-opacity="1" stroke-miterlimit="10" d="M 76.722656 120.292969 C 76.722656 126.757812 67.023438 126.757812 67.023438 120.292969 C 67.023438 113.824219 76.722656 113.824219 76.722656 120.292969 "/>
<path fill-rule="nonzero" fill="rgb(70.196078%, 70.196078%, 70.196078%)" fill-opacity="1" stroke-width="1" stroke-linecap="butt" stroke-linejoin="miter" stroke="rgb(70.196078%, 70.196078%, 70.196078%)" stroke-opacity="1" stroke-miterlimit="10" d="M 72.710938 50 C 72.710938 56.464844 63.011719 56.464844 63.011719 50 C 63.011719 43.535156 72.710938 43.535156 72.710938 50 "/>
<path fill-rule="nonzero" fill="rgb(70.196078%, 70.196078%, 70.196078%)" fill-opacity="1" stroke-width="1" stroke-linecap="butt" stroke-linejoin="miter" stroke="rgb(70.196078%, 70.196078%, 70.196078%)" stroke-opacity="1" stroke-miterlimit="10" d="M 610.128906 609.0625 C 610.128906 615.53125 600.425781 615.53125 600.425781 609.0625 C 600.425781 602.597656 610.128906 602.597656 610.128906 609.0625 "/>
<path fill-rule="nonzero" fill="rgb(70.196078%, 70.196078%, 70.196078%)" fill-opacity="1" stroke-width="1" stroke-linecap="butt" stroke-linejoin="miter" stroke="rgb(70.196078%, 70.196078%, 70.196078%)" stroke-opacity="1" stroke-miterlimit="10" d="M 621.605469 463.476562 C 621.605469 469.945312 611.902344 469.945312 611.902344 463.476562 C 611.902344 457.011719 621.605469 457.011719 621.605469 463.476562 "/>
<path fill-rule="nonzero" fill="rgb(70.196078%, 70.196078%, 70.196078%)" fill-opacity="1" stroke-width="1" stroke-linecap="butt" stroke-linejoin="miter" stroke="rgb(70.196078%, 70.196078%, 70.196078%)" stroke-opacity="1" stroke-miterlimit="10" d="M 658.96875 307.960938 C 658.96875 315.09375 648.269531 315.09375 648.269531 307.960938 C 648.269531 300.828125 658.96875 300.828125 658.96875 307.960938 "/>
</svg>
