<?xml version="1.0" encoding="UTF-8"?>
<svg xmlns="http://www.w3.org/2000/svg" xmlns:xlink="http://www.w3.org/1999/xlink" width="800" height="800" viewBox="0 0 800 800">
<rect x="-80" y="-80" width="960" height="960" fill="rgb(100%, 100%, 100%)" fill-opacity="1"/>
<path fill="none" stroke-width="1.5" stroke-linecap="butt" stroke-linejoin="miter" stroke="rgb(99.215686%, 74.901961%, 43.529412%)" stroke-opacity="1" stroke-miterlimit="10" d="M 625.960938 197.804688 C 608.703125 194.300781 592.300781 196.984375 578.96875 208.4375 "/>
<path fill-rule="nonzero" fill="rgb(99.215686%, 74.901961%, 43.529412%)" fill-opacity="1" d="M 573.558594 213.085938 L 577.460938 206.679688 L 580.480469 210.195312 L 573.558594 213.085938 "/>
<path fill="none" stroke-width="1.5" stroke-linecap="butt" stroke-linejoin="miter" stroke="rgb(99.215686%, 74.901961%, 43.529412%)" stroke-opacity="1" stroke-miterlimit="10" d="M 669.824219 178.757812 C 655.644531 177.171875 642.433594 180.382812 632.660156 190.71875 "/>
<path fill-rule="nonzero" fill="rgb(99.215686%, 74.901961%, 43.529412%)" fill-opacity="1" d="M 627.757812 195.902344 L 630.976562 189.128906 L 634.34375 192.3125 L 627.757812 195.902344 "/>
<path fill="none" stroke-width="1.5" stroke-linecap="butt" stroke-linejoin="miter" stroke="rgb(99.215686%, 74.901961%, 43.529412%)" stroke-opacity="1" stroke-miterlimit="10" d="M 571.570312 214.792969 C 551.65625 209.09375 532.304688 210.886719 515.488281 222.933594 "/>
<path fill-rule="nonzero" fill="rgb(99.215686%, 74.901961%, 43.529412%)" fill-opacity="1" d="M 509.691406 227.085938 L 514.140625 221.046875 L 516.839844 224.816406 L 509.691406 227.085938 "/>
<path fill="none" stroke-width="1.5" stroke-linecap="butt" stroke-linejoin="miter" stroke="rgb(99.215686%, 74.901961%, 43.529412%)" stroke-opacity="1" stroke-miterlimit="10" d="M 507.558594 228.613281 C 481.503906 215.832031 454.582031 213.921875 428.207031 225.980469 "/>
<path fill-rule="nonzero" fill="rgb(99.215686%, 74.901961%, 43.529412%)" fill-opacity="1" d="M 421.722656 228.945312 L 427.246094 223.871094 L 429.171875 228.085938 L 421.722656 228.945312 "/>
<path fill="none" stroke-width="1.5" stroke-linecap="butt" stroke-linejoin="miter" stroke="rgb(99.215686%, 74.901961%, 43.529412%)" stroke-opacity="1" stroke-miterlimit="10" d="M 361.441406 216.367188 C 351.972656 206.011719 340.113281 199.792969 326.195312 201.160156 "/>
<path fill-rule="nonzero" fill="rgb(99.215686%, 74.901961%, 43.529412%)" fill-opacity="1" d="M 319.097656 201.859375 L 325.96875 198.855469 L 326.421875 203.46875 L 319.097656 201.859375 "/>
<path fill="none" stroke-width="1.5" stroke-linecap="butt" stroke-linejoin="miter" stroke="rgb(99.215686%, 74.901961%, 43.529412%)" stroke-opacity="1" stroke-miterlimit="10" d="M 419.332031 230.035156 C 405.542969 217.667969 389.25 211.429688 371.042969 214.660156 "/>
<path fill-rule="nonzero" fill="rgb(99.215686%, 74.901961%, 43.529412%)" fill-opacity="1" d="M 364.019531 215.90625 L 370.636719 212.378906 L 371.449219 216.941406 L 364.019531 215.90625 "/>
<path fill="none" stroke-width="1.5" stroke-linecap="butt" stroke-linejoin="miter" stroke="rgb(12.156863%, 47.058824%, 70.588235%)" stroke-opacity="1" stroke-miterlimit="10" d="M 320.058594 513.5625 C 340.550781 509.917969 357.226562 499.757812 367.09375 481.46875 "/>
<path fill-rule="nonzero" fill="rgb(12.156863%, 47.058824%, 70.588235%)" fill-opacity="1" d="M 370.480469 475.191406 L 369.132812 482.566406 L 365.050781 480.367188 L 370.480469 475.191406 "/>
<path fill="none" stroke-width="1.5" stroke-linecap="butt" stroke-linejoin="miter" stroke="rgb(12.156863%, 47.058824%, 70.588235%)" stroke-opacity="1" stroke-miterlimit="10" d="M 511.421875 382.003906 C 525.960938 392.855469 542.410156 397.535156 559.878906 392.757812 "/>
<path fill-rule="nonzero" fill="rgb(12.156863%, 47.058824%, 70.588235%)" fill-opacity="1" d="M 566.757812 390.878906 L 560.488281 394.996094 L 559.265625 390.523438 L 566.757812 390.878906 "/>
<path fill="none" stroke-width="1.5" stroke-linecap="butt" stroke-linejoin="miter" stroke="rgb(12.156863%, 47.058824%, 70.588235%)" stroke-opacity="1" stroke-miterlimit="10" d="M 440.378906 407.839844 C 464.570312 411.0625 486.671875 405.511719 504.347656 388.722656 "/>
<path fill-rule="nonzero" fill="rgb(12.156863%, 47.058824%, 70.588235%)" fill-opacity="1" d="M 509.519531 383.8125 L 505.945312 390.402344 L 502.75 387.042969 L 509.519531 383.8125 "/>
<path fill="none" stroke-width="1.5" stroke-linecap="butt" stroke-linejoin="miter" stroke="rgb(98.431373%, 60.392157%, 60%)" stroke-opacity="1" stroke-miterlimit="10" d="M 565.816406 696.582031 C 564.039062 673.902344 554.710938 654.769531 535.921875 641.992188 "/>
<path fill-rule="nonzero" fill="rgb(98.431373%, 60.392157%, 60%)" fill-opacity="1" d="M 530.023438 637.980469 L 537.226562 640.078125 L 534.621094 643.910156 L 530.023438 637.980469 "/>
<path fill="none" stroke-width="1.5" stroke-linecap="butt" stroke-linejoin="miter" stroke="rgb(41.568627%, 23.921569%, 60.392157%)" stroke-opacity="1" stroke-miterlimit="10" d="M 661.941406 750 C 678.925781 750.484375 694.105469 745.253906 704.859375 732.144531 "/>
<path fill-rule="nonzero" fill="rgb(41.568627%, 23.921569%, 60.392157%)" fill-opacity="1" d="M 709.382812 726.632812 L 706.648438 733.617188 L 703.066406 730.675781 L 709.382812 726.632812 "/>
<path fill="none" stroke-width="1.5" stroke-linecap="butt" stroke-linejoin="miter" stroke="rgb(98.431373%, 60.392157%, 60%)" stroke-opacity="1" stroke-miterlimit="10" d="M 661.941406 750 C 649.324219 739.03125 634.507812 733.523438 618.152344 736.800781 "/>
<path fill-rule="nonzero" fill="rgb(98.431373%, 60.392157%, 60%)" fill-opacity="1" d="M 611.15625 738.199219 L 617.695312 734.527344 L 618.605469 739.070312 L 611.15625 738.199219 "/>
<path fill="none" stroke-width="1.5" stroke-linecap="butt" stroke-linejoin="miter" stroke="rgb(41.568627%, 23.921569%, 60.392157%)" stroke-opacity="1" stroke-miterlimit="10" d="M 742.148438 674.992188 C 753.238281 659.71875 757.835938 642.5625 752.671875 624.445312 "/>
<path fill-rule="nonzero" fill="rgb(41.568627%, 23.921569%, 60.392157%)" fill-opacity="1" d="M 750.71875 617.582031 L 754.902344 623.808594 L 750.445312 625.078125 L 750.71875 617.582031 "/>
<path fill="none" stroke-width="1.5" stroke-linecap="butt" stroke-linejoin="miter" stroke="rgb(12.156863%, 47.058824%, 70.588235%)" stroke-opacity="1" stroke-miterlimit="10" d="M 371.722656 472.882812 C 401.753906 463.929688 424.417969 445.683594 436.585938 416.832031 "/>
<path fill-rule="nonzero" fill="rgb(12.156863%, 47.058824%, 70.588235%)" fill-opacity="1" d="M 439.359375 410.257812 L 438.722656 417.730469 L 434.453125 415.929688 L 439.359375 410.257812 "/>
<path fill="none" stroke-width="1.5" stroke-linecap="butt" stroke-linejoin="miter" stroke="rgb(12.156863%, 47.058824%, 70.588235%)" stroke-opacity="1" stroke-miterlimit="10" d="M 584.246094 444.828125 C 567.257812 463.25 558.90625 485.09375 562.550781 509.863281 "/>
<path fill-rule="nonzero" fill="rgb(12.156863%, 47.058824%, 70.588235%)" fill-opacity="1" d="M 563.589844 516.917969 L 560.257812 510.199219 L 564.84375 509.523438 L 563.589844 516.917969 "/>
<path fill="none" stroke-width="1.5" stroke-linecap="butt" stroke-linejoin="miter" stroke="rgb(12.156863%, 47.058824%, 70.588235%)" stroke-opacity="1" stroke-miterlimit="10" d="M 278.472656 543.039062 C 293.8125 541.460938 306.941406 535 314.96875 521.878906 "/>
<path fill-rule="nonzero" fill="rgb(12.156863%, 47.058824%, 70.588235%)" fill-opacity="1" d="M 318.691406 515.796875 L 316.945312 523.089844 L 312.992188 520.671875 L 318.691406 515.796875 "/>
<path fill="none" stroke-width="1.5" stroke-linecap="butt" stroke-linejoin="miter" stroke="rgb(98.431373%, 60.392157%, 60%)" stroke-opacity="1" stroke-miterlimit="10" d="M 452.273438 325.496094 C 471.300781 294.21875 476.496094 260.71875 464.636719 226.101562 "/>
<path fill-rule="nonzero" fill="rgb(98.431373%, 60.392157%, 60%)" fill-opacity="1" d="M 462.324219 219.355469 L 466.828125 225.351562 L 462.441406 226.851562 L 462.324219 219.355469 "/>
<path fill="none" stroke-width="1.5" stroke-linecap="butt" stroke-linejoin="miter" stroke="rgb(41.568627%, 23.921569%, 60.392157%)" stroke-opacity="1" stroke-miterlimit="10" d="M 685.789062 514.769531 C 670.980469 497.28125 652.089844 487.148438 629.210938 487.769531 "/>
<path fill-rule="nonzero" fill="rgb(41.568627%, 23.921569%, 60.392157%)" fill-opacity="1" d="M 622.082031 487.960938 L 629.148438 485.453125 L 629.273438 490.085938 L 622.082031 487.960938 "/>
<path fill="none" stroke-width="1.5" stroke-linecap="butt" stroke-linejoin="miter" stroke="rgb(12.156863%, 47.058824%, 70.588235%)" stroke-opacity="1" stroke-miterlimit="10" d="M 569.285156 390.1875 C 565.191406 407.191406 567.265625 423.570312 578.160156 437.207031 "/>
<path fill-rule="nonzero" fill="rgb(12.156863%, 47.058824%, 70.588235%)" fill-opacity="1" d="M 582.609375 442.78125 L 576.347656 438.652344 L 579.96875 435.761719 L 582.609375 442.78125 "/>
<path fill="none" stroke-width="1.5" stroke-linecap="butt" stroke-linejoin="miter" stroke="rgb(41.568627%, 23.921569%, 60.392157%)" stroke-opacity="1" stroke-miterlimit="10" d="M 619.457031 488.03125 C 591.515625 462.808594 558.683594 451.167969 521.4375 456.476562 "/>
<path fill-rule="nonzero" fill="rgb(41.568627%, 23.921569%, 60.392157%)" fill-opacity="1" d="M 514.375 457.480469 L 521.109375 454.179688 L 521.761719 458.769531 L 514.375 457.480469 "/>
<path fill="none" stroke-width="1.5" stroke-linecap="butt" stroke-linejoin="miter" stroke="rgb(98.431373%, 60.392157%, 60%)" stroke-opacity="1" stroke-miterlimit="10" d="M 461.472656 216.867188 C 476.773438 196.652344 483.03125 173.84375 476.949219 149.253906 "/>
<path fill-rule="nonzero" fill="rgb(98.431373%, 60.392157%, 60%)" fill-opacity="1" d="M 475.234375 142.332031 L 479.199219 148.699219 L 474.699219 149.8125 L 475.234375 142.332031 "/>
<path fill="none" stroke-width="1.5" stroke-linecap="butt" stroke-linejoin="miter" stroke="rgb(98.431373%, 60.392157%, 60%)" stroke-opacity="1" stroke-miterlimit="10" d="M 527.855469 636.507812 C 526.335938 602.707031 513.105469 574.257812 486.117188 553.882812 "/>
<path fill-rule="nonzero" fill="rgb(98.431373%, 60.392157%, 60%)" fill-opacity="1" d="M 480.425781 549.585938 L 487.515625 552.035156 L 484.722656 555.734375 L 480.425781 549.585938 "/>
<path fill="none" stroke-width="1.5" stroke-linecap="butt" stroke-linejoin="miter" stroke="rgb(41.568627%, 23.921569%, 60.392157%)" stroke-opacity="1" stroke-miterlimit="10" d="M 391.027344 420.792969 C 367.464844 403.570312 341.140625 396.964844 312.90625 404.273438 "/>
<path fill-rule="nonzero" fill="rgb(41.568627%, 23.921569%, 60.392157%)" fill-opacity="1" d="M 306 406.0625 L 312.324219 402.03125 L 313.488281 406.519531 L 306 406.0625 "/>
<path fill="none" stroke-width="1.5" stroke-linecap="butt" stroke-linejoin="miter" stroke="rgb(41.568627%, 23.921569%, 60.392157%)" stroke-opacity="1" stroke-miterlimit="10" d="M 303.457031 406.71875 C 283.796875 395.746094 262.914062 392.929688 242.089844 401.414062 "/>
<path fill-rule="nonzero" fill="rgb(41.568627%, 23.921569%, 60.392157%)" fill-opacity="1" d="M 235.484375 404.105469 L 241.214844 399.265625 L 242.964844 403.558594 L 235.484375 404.105469 "/>
<path fill="none" stroke-width="1.5" stroke-linecap="butt" stroke-linejoin="miter" stroke="rgb(41.568627%, 23.921569%, 60.392157%)" stroke-opacity="1" stroke-miterlimit="10" d="M 750 615.0625 C 753.363281 596.394531 750.015625 578.855469 737.425781 564.710938 "/>
<path fill-rule="nonzero" fill="rgb(41.568627%, 23.921569%, 60.392157%)" fill-opacity="1" d="M 732.683594 559.382812 L 739.160156 563.167969 L 735.695312 566.25 L 732.683594 559.382812 "/>
<path fill="none" stroke-width="1.5" stroke-linecap="butt" stroke-linejoin="miter" stroke="rgb(41.568627%, 23.921569%, 60.392157%)" stroke-opacity="1" stroke-miterlimit="10" d="M 233.054688 405.09375 C 216.789062 396.703125 199.652344 394.785156 183.054688 402.417969 "/>
<path fill-rule="nonzero" fill="rgb(41.568627%, 23.921569%, 60.392157%)" fill-opacity="1" d="M 176.578125 405.402344 L 182.085938 400.3125 L 184.023438 404.523438 L 176.578125 405.402344 "/>
<path fill="none" stroke-width="1.5" stroke-linecap="butt" stroke-linejoin="miter" stroke="rgb(41.568627%, 23.921569%, 60.392157%)" stroke-opacity="1" stroke-miterlimit="10" d="M 174.195312 406.496094 C 162.21875 399.25 149.113281 396.636719 136.179688 401.867188 "/>
<path fill-rule="nonzero" fill="rgb(41.568627%, 23.921569%, 60.392157%)" fill-opacity="1" d="M 129.566406 404.542969 L 135.3125 399.71875 L 137.050781 404.015625 L 129.566406 404.542969 "/>
<path fill="none" stroke-width="1.5" stroke-linecap="butt" stroke-linejoin="miter" stroke="rgb(98.431373%, 60.392157%, 60%)" stroke-opacity="1" stroke-miterlimit="10" d="M 502.089844 85.777344 C 515.96875 81.777344 527.089844 73.671875 532.222656 60.222656 "/>
<path fill-rule="nonzero" fill="rgb(98.431373%, 60.392157%, 60%)" fill-opacity="1" d="M 534.765625 53.558594 L 534.386719 61.050781 L 530.058594 59.398438 L 534.765625 53.558594 "/>
<path fill="none" stroke-width="1.5" stroke-linecap="butt" stroke-linejoin="miter" stroke="rgb(98.431373%, 60.392157%, 60%)" stroke-opacity="1" stroke-miterlimit="10" d="M 474.605469 139.78125 C 490.203125 129.054688 500.289062 114.371094 501.476562 95.511719 "/>
<path fill-rule="nonzero" fill="rgb(98.431373%, 60.392157%, 60%)" fill-opacity="1" d="M 501.925781 88.390625 L 503.792969 95.65625 L 499.164062 95.367188 L 501.925781 88.390625 "/>
<path fill="none" stroke-width="1.5" stroke-linecap="butt" stroke-linejoin="miter" stroke="rgb(30.196078%, 68.627451%, 29.019608%)" stroke-opacity="1" stroke-miterlimit="10" d="M 122.929688 746.300781 C 122.929688 732.292969 118.371094 719.742188 107.210938 711.355469 "/>
<path fill-rule="nonzero" fill="rgb(30.196078%, 68.627451%, 29.019608%)" fill-opacity="1" d="M 101.507812 707.070312 L 108.601562 709.503906 L 105.820312 713.207031 L 101.507812 707.070312 "/>
<path fill="none" stroke-width="1.5" stroke-linecap="butt" stroke-linejoin="miter" stroke="rgb(30.196078%, 68.627451%, 29.019608%)" stroke-opacity="1" stroke-miterlimit="10" d="M 73.894531 661.710938 C 73.9375 648.128906 69.585938 635.890625 58.753906 627.769531 "/>
<path fill-rule="nonzero" fill="rgb(30.196078%, 68.627451%, 29.019608%)" fill-opacity="1" d="M 53.046875 623.492188 L 60.144531 625.917969 L 57.363281 629.625 L 53.046875 623.492188 "/>
<path fill="none" stroke-width="1.5" stroke-linecap="butt" stroke-linejoin="miter" stroke="rgb(30.196078%, 68.627451%, 29.019608%)" stroke-opacity="1" stroke-miterlimit="10" d="M 99.417969 705.5 C 99.21875 690.1875 93.992188 676.617188 81.726562 667.519531 "/>
<path fill-rule="nonzero" fill="rgb(30.196078%, 68.627451%, 29.019608%)" fill-opacity="1" d="M 75.996094 663.273438 L 83.105469 665.660156 L 80.347656 669.382812 L 75.996094 663.273438 "/>
<path fill="none" stroke-width="1.5" stroke-linecap="butt" stroke-linejoin="miter" stroke="rgb(41.568627%, 23.921569%, 60.392157%)" stroke-opacity="1" stroke-miterlimit="10" d="M 711.042969 724.605469 C 726.914062 715.722656 737.90625 702.570312 740.664062 684.628906 "/>
<path fill-rule="nonzero" fill="rgb(41.568627%, 23.921569%, 60.392157%)" fill-opacity="1" d="M 741.75 677.582031 L 742.957031 684.984375 L 738.375 684.277344 L 741.75 677.582031 "/>
<path fill="none" stroke-width="1.5" stroke-linecap="butt" stroke-linejoin="miter" stroke="rgb(41.568627%, 23.921569%, 60.392157%)" stroke-opacity="1" stroke-miterlimit="10" d="M 730.941406 557.421875 C 724.847656 538.917969 713.238281 524.746094 694.957031 518.101562 "/>
<path fill-rule="nonzero" fill="rgb(41.568627%, 23.921569%, 60.392157%)" fill-opacity="1" d="M 688.253906 515.664062 L 695.75 515.921875 L 694.164062 520.277344 L 688.253906 515.664062 "/>
<path fill="none" stroke-width="1.5" stroke-linecap="butt" stroke-linejoin="miter" stroke="rgb(41.568627%, 23.921569%, 60.392157%)" stroke-opacity="1" stroke-miterlimit="10" d="M 511.773438 457.851562 C 480.488281 428.457031 443.335938 414.597656 400.722656 419.644531 "/>
<path fill-rule="nonzero" fill="rgb(41.568627%, 23.921569%, 60.392157%)" fill-opacity="1" d="M 393.640625 420.484375 L 400.453125 417.34375 L 400.996094 421.945312 L 393.640625 420.484375 "/>
<path fill="none" stroke-width="1.5" stroke-linecap="butt" stroke-linejoin="miter" stroke="rgb(98.431373%, 60.392157%, 60%)" stroke-opacity="1" stroke-miterlimit="10" d="M 458.105469 453.320312 C 475.472656 413.402344 475.992188 373.203125 456.621094 334.238281 "/>
<path fill-rule="nonzero" fill="rgb(98.431373%, 60.392157%, 60%)" fill-opacity="1" d="M 453.445312 327.851562 L 458.695312 333.207031 L 454.542969 335.269531 L 453.445312 327.851562 "/>
<path fill="none" stroke-width="1.5" stroke-linecap="butt" stroke-linejoin="miter" stroke="rgb(98.431373%, 60.392157%, 60%)" stroke-opacity="1" stroke-miterlimit="10" d="M 478.328125 548.003906 C 486.5 516.902344 482.582031 487.320312 463.808594 461.242188 "/>
<path fill-rule="nonzero" fill="rgb(98.431373%, 60.392157%, 60%)" fill-opacity="1" d="M 459.640625 455.453125 L 465.6875 459.886719 L 461.925781 462.597656 L 459.640625 455.453125 "/>
<path fill="none" stroke-width="1.5" stroke-linecap="butt" stroke-linejoin="miter" stroke="rgb(98.431373%, 60.392157%, 60%)" stroke-opacity="1" stroke-miterlimit="10" d="M 608.589844 738.714844 C 603.152344 720.796875 592.335938 706.871094 574.910156 700.109375 "/>
<path fill-rule="nonzero" fill="rgb(98.431373%, 60.392157%, 60%)" fill-opacity="1" d="M 568.261719 697.53125 L 575.75 697.949219 L 574.070312 702.269531 L 568.261719 697.53125 "/>
<path fill="none" stroke-width="1.5" stroke-linecap="butt" stroke-linejoin="miter" stroke="rgb(12.156863%, 47.058824%, 70.588235%)" stroke-opacity="1" stroke-miterlimit="10" d="M 563.972656 519.515625 C 543.722656 531.761719 530.347656 549.375 527.207031 572.800781 "/>
<path fill-rule="nonzero" fill="rgb(12.156863%, 47.058824%, 70.588235%)" fill-opacity="1" d="M 526.261719 579.871094 L 524.910156 572.496094 L 529.503906 573.109375 L 526.261719 579.871094 "/>
<path fill="none" stroke-width="1.5" stroke-linecap="butt" stroke-linejoin="miter" stroke="rgb(12.156863%, 47.058824%, 70.588235%)" stroke-opacity="1" stroke-miterlimit="10" d="M 525.910156 582.472656 C 499.710938 592.945312 480.757812 611.121094 472.300781 638.019531 "/>
<path fill-rule="nonzero" fill="rgb(12.156863%, 47.058824%, 70.588235%)" fill-opacity="1" d="M 470.164062 644.824219 L 470.089844 637.324219 L 474.511719 638.714844 L 470.164062 644.824219 "/>
<path fill="none" stroke-width="1.5" stroke-linecap="butt" stroke-linejoin="miter" stroke="rgb(12.156863%, 47.058824%, 70.588235%)" stroke-opacity="1" stroke-miterlimit="10" d="M 338.6875 745.378906 C 330.628906 735.269531 320.097656 728.722656 307.230469 729.203125 "/>
<path fill-rule="nonzero" fill="rgb(12.156863%, 47.058824%, 70.588235%)" fill-opacity="1" d="M 300.101562 729.472656 L 307.144531 726.890625 L 307.316406 731.519531 L 300.101562 729.472656 "/>
<path fill="none" stroke-width="1.5" stroke-linecap="butt" stroke-linejoin="miter" stroke="rgb(12.156863%, 47.058824%, 70.588235%)" stroke-opacity="1" stroke-miterlimit="10" d="M 387.945312 736.75 C 373.753906 731.6875 359.4375 731.839844 346.851562 740.050781 "/>
<path fill-rule="nonzero" fill="rgb(12.156863%, 47.058824%, 70.588235%)" fill-opacity="1" d="M 340.878906 743.949219 L 345.585938 738.109375 L 348.121094 741.992188 L 340.878906 743.949219 "/>
<path fill="none" stroke-width="1.5" stroke-linecap="butt" stroke-linejoin="miter" stroke="rgb(12.156863%, 47.058824%, 70.588235%)" stroke-opacity="1" stroke-miterlimit="10" d="M 430.371094 700.117188 C 413.46875 703.675781 399.730469 712.46875 392.203125 727.976562 "/>
<path fill-rule="nonzero" fill="rgb(12.156863%, 47.058824%, 70.588235%)" fill-opacity="1" d="M 389.089844 734.394531 L 390.117188 726.964844 L 394.289062 728.988281 L 389.089844 734.394531 "/>
<path fill="none" stroke-width="1.5" stroke-linecap="butt" stroke-linejoin="miter" stroke="rgb(12.156863%, 47.058824%, 70.588235%)" stroke-opacity="1" stroke-miterlimit="10" d="M 469.375 647.328125 C 450.613281 656.234375 437.242188 670.40625 432.570312 690.609375 "/>
<path fill-rule="nonzero" fill="rgb(12.156863%, 47.058824%, 70.588235%)" fill-opacity="1" d="M 430.960938 697.5625 L 430.3125 690.089844 L 434.828125 691.132812 L 430.960938 697.5625 "/>
<path fill-rule="nonzero" fill="rgb(99.215686%, 74.901961%, 43.529412%)" fill-opacity="1" stroke-width="1" stroke-linecap="butt" stroke-linejoin="miter" stroke="rgb(99.215686%, 74.901961%, 43.529412%)" stroke-opacity="1" stroke-miterlimit="10" d="M 628.710938 197.804688 C 628.710938 201.472656 623.210938 201.472656 623.210938 197.804688 C 623.210938 194.136719 628.710938 194.136719 628.710938 197.804688 "/>
<path fill-rule="nonzero" fill="rgb(100%, 84.313725%, 0%)" fill-opacity="1" stroke-width="1" stroke-linecap="butt" stroke-linejoin="miter" stroke="rgb(100%, 84.313725%, 0%)" stroke-opacity="1" stroke-miterlimit="10" d="M 666.574219 175.507812 L 673.074219 175.507812 L 673.074219 182.007812 L 666.574219 182.007812 Z M 666.574219 175.507812 "/>
<path fill-rule="nonzero" fill="rgb(99.215686%, 74.901961%, 43.529412%)" fill-opacity="1" stroke-width="1" stroke-linecap="butt" stroke-linejoin="miter" stroke="rgb(99.215686%, 74.901961%, 43.529412%)" stroke-opacity="1" stroke-miterlimit="10" d="M 574.320312 214.792969 C 574.320312 218.457031 568.820312 218.457031 568.820312 214.792969 C 568.820312 211.125 574.320312 211.125 574.320312 214.792969 "/>
<path fill-rule="nonzero" fill="rgb(99.215686%, 74.901961%, 43.529412%)" fill-opacity="1" stroke-width="1" stroke-linecap="butt" stroke-linejoin="miter" stroke="rgb(99.215686%, 74.901961%, 43.529412%)" stroke-opacity="1" stroke-miterlimit="10" d="M 510.308594 228.613281 C 510.308594 232.28125 504.808594 232.28125 504.808594 228.613281 C 504.808594 224.945312 510.308594 224.945312 510.308594 228.613281 "/>
<path fill-rule="nonzero" fill="rgb(14.901961%, 14.901961%, 14.901961%)" fill-opacity="1" stroke-width="1" stroke-linecap="butt" stroke-linejoin="miter" stroke="rgb(14.901961%, 14.901961%, 14.901961%)" stroke-opacity="1" stroke-miterlimit="10" d="M 311.558594 205.980469 L 315.308594 198.480469 L 319.058594 205.980469 Z M 311.558594 205.980469 "/>
<path fill-rule="nonzero" fill="rgb(99.215686%, 74.901961%, 43.529412%)" fill-opacity="1" stroke-width="1" stroke-linecap="butt" stroke-linejoin="miter" stroke="rgb(99.215686%, 74.901961%, 43.529412%)" stroke-opacity="1" stroke-miterlimit="10" d="M 364.191406 216.367188 C 364.191406 220.03125 358.691406 220.03125 358.691406 216.367188 C 358.691406 212.699219 364.191406 212.699219 364.191406 216.367188 "/>
<path fill-rule="nonzero" fill="rgb(99.215686%, 74.901961%, 43.529412%)" fill-opacity="1" stroke-width="1" stroke-linecap="butt" stroke-linejoin="miter" stroke="rgb(99.215686%, 74.901961%, 43.529412%)" stroke-opacity="1" stroke-miterlimit="10" d="M 422.082031 230.035156 C 422.082031 233.703125 416.582031 233.703125 416.582031 230.035156 C 416.582031 226.371094 422.082031 226.371094 422.082031 230.035156 "/>
<path fill-rule="nonzero" fill="rgb(12.156863%, 47.058824%, 70.588235%)" fill-opacity="1" stroke-width="1" stroke-linecap="butt" stroke-linejoin="miter" stroke="rgb(12.156863%, 47.058824%, 70.588235%)" stroke-opacity="1" stroke-miterlimit="10" d="M 322.808594 513.5625 C 322.808594 517.230469 317.308594 517.230469 317.308594 513.5625 C 317.308594 509.894531 322.808594 509.894531 322.808594 513.5625 "/>
<path fill-rule="nonzero" fill="rgb(12.156863%, 47.058824%, 70.588235%)" fill-opacity="1" stroke-width="1" stroke-linecap="butt" stroke-linejoin="miter" stroke="rgb(12.156863%, 47.058824%, 70.588235%)" stroke-opacity="1" stroke-miterlimit="10" d="M 514.171875 382.003906 C 514.171875 385.671875 508.671875 385.671875 508.671875 382.003906 C 508.671875 378.335938 514.171875 378.335938 514.171875 382.003906 "/>
<path fill-rule="nonzero" fill="rgb(12.156863%, 47.058824%, 70.588235%)" fill-opacity="1" stroke-width="1" stroke-linecap="butt" stroke-linejoin="miter" stroke="rgb(12.156863%, 47.058824%, 70.588235%)" stroke-opacity="1" stroke-miterlimit="10" d="M 443.128906 407.839844 C 443.128906 411.503906 437.628906 411.503906 437.628906 407.839844 C 437.628906 404.171875 443.128906 404.171875 443.128906 407.839844 "/>
<path fill-rule="nonzero" fill="rgb(98.431373%, 60.392157%, 60%)" fill-opacity="1" stroke-width="1" stroke-linecap="butt" stroke-linejoin="miter" stroke="rgb(98.431373%, 60.392157%, 60%)" stroke-opacity="1" stroke-miterlimit="10" d="M 568.566406 696.582031 C 568.566406 700.25 563.066406 700.25 563.066406 696.582031 C 563.066406 692.914062 568.566406 692.914062 568.566406 696.582031 "/>
<path fill-rule="nonzero" fill="rgb(100%, 84.313725%, 0%)" fill-opacity="1" stroke-width="1" stroke-linecap="butt" stroke-linejoin="miter" stroke="rgb(100%, 84.313725%, 0%)" stroke-opacity="1" stroke-miterlimit="10" d="M 656.59375 744.648438 L 667.292969 744.648438 L 667.292969 755.347656 L 656.59375 755.347656 Z M 656.59375 744.648438 "/>
<path fill-rule="nonzero" fill="rgb(41.568627%, 23.921569%, 60.392157%)" fill-opacity="1" stroke-width="1" stroke-linecap="butt" stroke-linejoin="miter" stroke="rgb(41.568627%, 23.921569%, 60.392157%)" stroke-opacity="1" stroke-miterlimit="10" d="M 744.898438 674.992188 C 744.898438 678.65625 739.398438 678.65625 739.398438 674.992188 C 739.398438 671.324219 744.898438 671.324219 744.898438 674.992188 "/>
<path fill-rule="nonzero" fill="rgb(12.156863%, 47.058824%, 70.588235%)" fill-opacity="1" stroke-width="1" stroke-linecap="butt" stroke-linejoin="miter" stroke="rgb(12.156863%, 47.058824%, 70.588235%)" stroke-opacity="1" stroke-miterlimit="10" d="M 374.472656 472.882812 C 374.472656 476.546875 368.972656 476.546875 368.972656 472.882812 C 368.972656 469.214844 374.472656 469.214844 374.472656 472.882812 "/>
<path fill-rule="nonzero" fill="rgb(12.156863%, 47.058824%, 70.588235%)" fill-opacity="1" stroke-width="1" stroke-linecap="butt" stroke-linejoin="miter" stroke="rgb(12.156863%, 47.058824%, 70.588235%)" stroke-opacity="1" stroke-miterlimit="10" d="M 586.996094 444.828125 C 586.996094 448.492188 581.496094 448.492188 581.496094 444.828125 C 581.496094 441.160156 586.996094 441.160156 586.996094 444.828125 "/>
<path fill-rule="nonzero" fill="rgb(100%, 84.313725%, 0%)" fill-opacity="1" stroke-width="1" stroke-linecap="butt" stroke-linejoin="miter" stroke="rgb(100%, 84.313725%, 0%)" stroke-opacity="1" stroke-miterlimit="10" d="M 275.222656 539.789062 L 281.722656 539.789062 L 281.722656 546.289062 L 275.222656 546.289062 Z M 275.222656 539.789062 "/>
<path fill-rule="nonzero" fill="rgb(98.431373%, 60.392157%, 60%)" fill-opacity="1" stroke-width="1" stroke-linecap="butt" stroke-linejoin="miter" stroke="rgb(98.431373%, 60.392157%, 60%)" stroke-opacity="1" stroke-miterlimit="10" d="M 455.023438 325.496094 C 455.023438 329.160156 449.523438 329.160156 449.523438 325.496094 C 449.523438 321.828125 455.023438 321.828125 455.023438 325.496094 "/>
<path fill-rule="nonzero" fill="rgb(41.568627%, 23.921569%, 60.392157%)" fill-opacity="1" stroke-width="1" stroke-linecap="butt" stroke-linejoin="miter" stroke="rgb(41.568627%, 23.921569%, 60.392157%)" stroke-opacity="1" stroke-miterlimit="10" d="M 688.539062 514.769531 C 688.539062 518.433594 683.039062 518.433594 683.039062 514.769531 C 683.039062 511.101562 688.539062 511.101562 688.539062 514.769531 "/>
<path fill-rule="nonzero" fill="rgb(12.156863%, 47.058824%, 70.588235%)" fill-opacity="1" stroke-width="1" stroke-linecap="butt" stroke-linejoin="miter" stroke="rgb(12.156863%, 47.058824%, 70.588235%)" stroke-opacity="1" stroke-miterlimit="10" d="M 572.035156 390.1875 C 572.035156 393.855469 566.535156 393.855469 566.535156 390.1875 C 566.535156 386.519531 572.035156 386.519531 572.035156 390.1875 "/>
<path fill-rule="nonzero" fill="rgb(41.568627%, 23.921569%, 60.392157%)" fill-opacity="1" stroke-width="1" stroke-linecap="butt" stroke-linejoin="miter" stroke="rgb(41.568627%, 23.921569%, 60.392157%)" stroke-opacity="1" stroke-miterlimit="10" d="M 622.207031 488.03125 C 622.207031 491.699219 616.707031 491.699219 616.707031 488.03125 C 616.707031 484.367188 622.207031 484.367188 622.207031 488.03125 "/>
<path fill-rule="nonzero" fill="rgb(98.431373%, 60.392157%, 60%)" fill-opacity="1" stroke-width="1" stroke-linecap="butt" stroke-linejoin="miter" stroke="rgb(98.431373%, 60.392157%, 60%)" stroke-opacity="1" stroke-miterlimit="10" d="M 464.222656 216.867188 C 464.222656 220.535156 458.722656 220.535156 458.722656 216.867188 C 458.722656 213.199219 464.222656 213.199219 464.222656 216.867188 "/>
<path fill-rule="nonzero" fill="rgb(98.431373%, 60.392157%, 60%)" fill-opacity="1" stroke-width="1" stroke-linecap="butt" stroke-linejoin="miter" stroke="rgb(98.431373%, 60.392157%, 60%)" stroke-opacity="1" stroke-miterlimit="10" d="M 530.605469 636.507812 C 530.605469 640.171875 525.105469 640.171875 525.105469 636.507812 C 525.105469 632.839844 530.605469 632.839844 530.605469 636.507812 "/>
<path fill-rule="nonzero" fill="rgb(41.568627%, 23.921569%, 60.392157%)" fill-opacity="1" stroke-width="1" stroke-linecap="butt" stroke-linejoin="miter" stroke="rgb(41.568627%, 23.921569%, 60.392157%)" stroke-opacity="1" stroke-miterlimit="10" d="M 393.777344 420.792969 C 393.777344 424.460938 388.277344 424.460938 388.277344 420.792969 C 388.277344 417.128906 393.777344 417.128906 393.777344 420.792969 "/>
<path fill-rule="nonzero" fill="rgb(41.568627%, 23.921569%, 60.392157%)" fill-opacity="1" stroke-width="1" stroke-linecap="butt" stroke-linejoin="miter" stroke="rgb(41.568627%, 23.921569%, 60.392157%)" stroke-opacity="1" stroke-miterlimit="10" d="M 306.207031 406.71875 C 306.207031 410.386719 300.707031 410.386719 300.707031 406.71875 C 300.707031 403.054688 306.207031 403.054688 306.207031 406.71875 "/>
<path fill-rule="nonzero" fill="rgb(41.568627%, 23.921569%, 60.392157%)" fill-opacity="1" stroke-width="1" stroke-linecap="butt" stroke-linejoin="miter" stroke="rgb(41.568627%, 23.921569%, 60.392157%)" stroke-opacity="1" stroke-miterlimit="10" d="M 752.75 615.0625 C 752.75 618.730469 747.25 618.730469 747.25 615.0625 C 747.25 611.394531 752.75 611.394531 752.75 615.0625 "/>
<path fill-rule="nonzero" fill="rgb(41.568627%, 23.921569%, 60.392157%)" fill-opacity="1" stroke-width="1" stroke-linecap="butt" stroke-linejoin="miter" stroke="rgb(41.568627%, 23.921569%, 60.392157%)" stroke-opacity="1" stroke-miterlimit="10" d="M 235.804688 405.09375 C 235.804688 408.761719 230.304688 408.761719 230.304688 405.09375 C 230.304688 401.429688 235.804688 401.429688 235.804688 405.09375 "/>
<path fill-rule="nonzero" fill="rgb(41.568627%, 23.921569%, 60.392157%)" fill-opacity="1" stroke-width="1" stroke-linecap="butt" stroke-linejoin="miter" stroke="rgb(41.568627%, 23.921569%, 60.392157%)" stroke-opacity="1" stroke-miterlimit="10" d="M 176.945312 406.496094 C 176.945312 410.164062 171.445312 410.164062 171.445312 406.496094 C 171.445312 402.832031 176.945312 402.832031 176.945312 406.496094 "/>
<path fill-rule="nonzero" fill="rgb(98.431373%, 60.392157%, 60%)" fill-opacity="1" stroke-width="1" stroke-linecap="butt" stroke-linejoin="miter" stroke="rgb(98.431373%, 60.392157%, 60%)" stroke-opacity="1" stroke-miterlimit="10" d="M 504.839844 85.777344 C 504.839844 89.441406 499.339844 89.441406 499.339844 85.777344 C 499.339844 82.109375 504.839844 82.109375 504.839844 85.777344 "/>
<path fill-rule="nonzero" fill="rgb(98.431373%, 60.392157%, 60%)" fill-opacity="1" stroke-width="1" stroke-linecap="butt" stroke-linejoin="miter" stroke="rgb(98.431373%, 60.392157%, 60%)" stroke-opacity="1" stroke-miterlimit="10" d="M 477.355469 139.78125 C 477.355469 143.449219 471.855469 143.449219 471.855469 139.78125 C 471.855469 136.117188 477.355469 136.117188 477.355469 139.78125 "/>
<path fill-rule="nonzero" fill="rgb(100%, 84.313725%, 0%)" fill-opacity="1" stroke-width="1" stroke-linecap="butt" stroke-linejoin="miter" stroke="rgb(100%, 84.313725%, 0%)" stroke-opacity="1" stroke-miterlimit="10" d="M 119.679688 743.050781 L 126.179688 743.050781 L 126.179688 749.550781 L 119.679688 749.550781 Z M 119.679688 743.050781 "/>
<path fill-rule="nonzero" fill="rgb(14.901961%, 14.901961%, 14.901961%)" fill-opacity="1" stroke-width="1" stroke-linecap="butt" stroke-linejoin="miter" stroke="rgb(14.901961%, 14.901961%, 14.901961%)" stroke-opacity="1" stroke-miterlimit="10" d="M 46.25 624.957031 L 50 617.457031 L 53.75 624.957031 Z M 46.25 624.957031 "/>
<path fill-rule="nonzero" fill="rgb(30.196078%, 68.627451%, 29.019608%)" fill-opacity="1" stroke-width="1" stroke-linecap="butt" stroke-linejoin="miter" stroke="rgb(30.196078%, 68.627451%, 29.019608%)" stroke-opacity="1" stroke-miterlimit="10" d="M 76.644531 661.710938 C 76.644531 665.378906 71.144531 665.378906 71.144531 661.710938 C 71.144531 658.046875 76.644531 658.046875 76.644531 661.710938 "/>
<path fill-rule="nonzero" fill="rgb(30.196078%, 68.627451%, 29.019608%)" fill-opacity="1" stroke-width="1" stroke-linecap="butt" stroke-linejoin="miter" stroke="rgb(30.196078%, 68.627451%, 29.019608%)" stroke-opacity="1" stroke-miterlimit="10" d="M 102.167969 705.5 C 102.167969 709.164062 96.667969 709.164062 96.667969 705.5 C 96.667969 701.832031 102.167969 701.832031 102.167969 705.5 "/>
<path fill-rule="nonzero" fill="rgb(41.568627%, 23.921569%, 60.392157%)" fill-opacity="1" stroke-width="1" stroke-linecap="butt" stroke-linejoin="miter" stroke="rgb(41.568627%, 23.921569%, 60.392157%)" stroke-opacity="1" stroke-miterlimit="10" d="M 713.792969 724.605469 C 713.792969 728.273438 708.292969 728.273438 708.292969 724.605469 C 708.292969 720.941406 713.792969 720.941406 713.792969 724.605469 "/>
<path fill-rule="nonzero" fill="rgb(41.568627%, 23.921569%, 60.392157%)" fill-opacity="1" stroke-width="1" stroke-linecap="butt" stroke-linejoin="miter" stroke="rgb(41.568627%, 23.921569%, 60.392157%)" stroke-opacity="1" stroke-miterlimit="10" d="M 733.691406 557.421875 C 733.691406 561.089844 728.191406 561.089844 728.191406 557.421875 C 728.191406 553.757812 733.691406 553.757812 733.691406 557.421875 "/>
<path fill-rule="nonzero" fill="rgb(41.568627%, 23.921569%, 60.392157%)" fill-opacity="1" stroke-width="1" stroke-linecap="butt" stroke-linejoin="miter" stroke="rgb(41.568627%, 23.921569%, 60.392157%)" stroke-opacity="1" stroke-miterlimit="10" d="M 514.523438 457.851562 C 514.523438 461.519531 509.023438 461.519531 509.023438 457.851562 C 509.023438 454.183594 514.523438 454.183594 514.523438 457.851562 "/>
<path fill-rule="nonzero" fill="rgb(14.901961%, 14.901961%, 14.901961%)" fill-opacity="1" stroke-width="1" stroke-linecap="butt" stroke-linejoin="miter" stroke="rgb(14.901961%, 14.901961%, 14.901961%)" stroke-opacity="1" stroke-miterlimit="10" d="M 122.285156 409.71875 L 126.035156 402.21875 L 129.785156 409.71875 Z M 122.285156 409.71875 "/>
<path fill-rule="nonzero" fill="rgb(98.431373%, 60.392157%, 60%)" fill-opacity="1" stroke-width="1" stroke-linecap="butt" stroke-linejoin="miter" stroke="rgb(98.431373%, 60.392157%, 60%)" stroke-opacity="1" stroke-miterlimit="10" d="M 460.855469 453.320312 C 460.855469 456.988281 455.355469 456.988281 455.355469 453.320312 C 455.355469 449.652344 460.855469 449.652344 460.855469 453.320312 "/>
<path fill-rule="nonzero" fill="rgb(98.431373%, 60.392157%, 60%)" fill-opacity="1" stroke-width="1" stroke-linecap="butt" stroke-linejoin="miter" stroke="rgb(98.431373%, 60.392157%, 60%)" stroke-opacity="1" stroke-miterlimit="10" d="M 481.078125 548.003906 C 481.078125 551.667969 475.578125 551.667969 475.578125 548.003906 C 475.578125 544.335938 481.078125 544.335938 481.078125 548.003906 "/>
<path fill-rule="nonzero" fill="rgb(14.901961%, 14.901961%, 14.901961%)" fill-opacity="1" stroke-width="1" stroke-linecap="butt" stroke-linejoin="miter" stroke="rgb(14.901961%, 14.901961%, 14.901961%)" stroke-opacity="1" stroke-miterlimit="10" d="M 532.375 53.75 L 536.125 46.25 L 539.875 53.75 Z M 532.375 53.75 "/>
<path fill-rule="nonzero" fill="rgb(98.431373%, 60.392157%, 60%)" fill-opacity="1" stroke-width="1" stroke-linecap="butt" stroke-linejoin="miter" stroke="rgb(98.431373%, 60.392157%, 60%)" stroke-opacity="1" stroke-miterlimit="10" d="M 611.339844 738.714844 C 611.339844 742.382812 605.839844 742.382812 605.839844 738.714844 C 605.839844 735.050781 611.339844 735.050781 611.339844 738.714844 "/>
<path fill-rule="nonzero" fill="rgb(12.156863%, 47.058824%, 70.588235%)" fill-opacity="1" stroke-width="1" stroke-linecap="butt" stroke-linejoin="miter" stroke="rgb(12.156863%, 47.058824%, 70.588235%)" stroke-opacity="1" stroke-miterlimit="10" d="M 566.722656 519.515625 C 566.722656 523.183594 561.222656 523.183594 561.222656 519.515625 C 561.222656 515.847656 566.722656 515.847656 566.722656 519.515625 "/>
<path fill-rule="nonzero" fill="rgb(12.156863%, 47.058824%, 70.588235%)" fill-opacity="1" stroke-width="1" stroke-linecap="butt" stroke-linejoin="miter" stroke="rgb(12.156863%, 47.058824%, 70.588235%)" stroke-opacity="1" stroke-miterlimit="10" d="M 528.660156 582.472656 C 528.660156 586.140625 523.160156 586.140625 523.160156 582.472656 C 523.160156 578.804688 528.660156 578.804688 528.660156 582.472656 "/>
<path fill-rule="nonzero" fill="rgb(12.156863%, 47.058824%, 70.588235%)" fill-opacity="1" stroke-width="1" stroke-linecap="butt" stroke-linejoin="miter" stroke="rgb(12.156863%, 47.058824%, 70.588235%)" stroke-opacity="1" stroke-miterlimit="10" d="M 341.4375 745.378906 C 341.4375 749.046875 335.9375 749.046875 335.9375 745.378906 C 335.9375 741.710938 341.4375 741.710938 341.4375 745.378906 "/>
<path fill-rule="nonzero" fill="rgb(14.901961%, 14.901961%, 14.901961%)" fill-opacity="1" stroke-width="1" stroke-linecap="butt" stroke-linejoin="miter" stroke="rgb(14.901961%, 14.901961%, 14.901961%)" stroke-opacity="1" stroke-miterlimit="10" d="M 292.550781 733.363281 L 296.300781 725.863281 L 300.050781 733.363281 Z M 292.550781 733.363281 "/>
<path fill-rule="nonzero" fill="rgb(12.156863%, 47.058824%, 70.588235%)" fill-opacity="1" stroke-width="1" stroke-linecap="butt" stroke-linejoin="miter" stroke="rgb(12.156863%, 47.058824%, 70.588235%)" stroke-opacity="1" stroke-miterlimit="10" d="M 390.695312 736.75 C 390.695312 740.417969 385.195312 740.417969 385.195312 736.75 C 385.195312 733.082031 390.695312 733.082031 390.695312 736.75 "/>
<path fill-rule="nonzero" fill="rgb(12.156863%, 47.058824%, 70.588235%)" fill-opacity="1" stroke-width="1" stroke-linecap="butt" stroke-linejoin="miter" stroke="rgb(12.156863%, 47.058824%, 70.588235%)" stroke-opacity="1" stroke-miterlimit="10" d="M 433.121094 700.117188 C 433.121094 703.78125 427.621094 703.78125 427.621094 700.117188 C 427.621094 696.449219 433.121094 696.449219 433.121094 700.117188 "/>
<path fill-rule="nonzero" fill="rgb(12.156863%, 47.058824%, 70.588235%)" fill-opacity="1" stroke-width="1" stroke-linecap="butt" stroke-linejoin="miter" stroke="rgb(12.156863%, 47.058824%, 70.588235%)" stroke-opacity="1" stroke-miterlimit="10" d="M 472.125 647.328125 C 472.125 650.996094 466.625 650.996094 466.625 647.328125 C 466.625 643.664062 472.125 643.664062 472.125 647.328125 "/>
</svg>
