<?xml version="1.0" encoding="UTF-8"?>
<svg xmlns="http://www.w3.org/2000/svg" xmlns:xlink="http://www.w3.org/1999/xlink" width="800" height="800" viewBox="0 0 800 800">
<rect x="-80" y="-80" width="960" height="960" fill="rgb(100%, 100%, 100%)" fill-opacity="1"/>
<path fill="none" stroke-width="5.5" stroke-linecap="butt" stroke-linejoin="miter" stroke="rgb(70.196078%, 70.196078%, 70.196078%)" stroke-opacity="1" stroke-miterlimit="10" d="M 50 521.070312 C 35.101562 552.636719 33.441406 584.972656 48.269531 616.546875 "/>
<path fill-rule="nonzero" fill="rgb(70.196078%, 70.196078%, 70.196078%)" fill-opacity="1" d="M 51.304688 623.003906 L 46.171875 617.53125 L 50.367188 615.5625 L 51.304688 623.003906 "/>
<path fill="none" stroke-width="5.5" stroke-linecap="butt" stroke-linejoin="miter" stroke="rgb(70.196078%, 70.196078%, 70.196078%)" stroke-opacity="1" stroke-miterlimit="10" d="M 51.683594 397.847656 C 32.753906 434.375 29.589844 472.285156 45.460938 510.222656 "/>
<path fill-rule="nonzero" fill="rgb(70.196078%, 70.196078%, 70.196078%)" fill-opacity="1" d="M 48.214844 516.804688 L 43.324219 511.117188 L 47.597656 509.328125 L 48.214844 516.804688 "/>
<path fill="none" stroke-width="5.5" stroke-linecap="butt" stroke-linejoin="miter" stroke="rgb(70.196078%, 70.196078%, 70.196078%)" stroke-opacity="1" stroke-miterlimit="10" d="M 63.976562 270.3125 C 41.214844 306.707031 34.78125 345.855469 48.046875 386.664062 "/>
<path fill-rule="nonzero" fill="rgb(70.196078%, 70.196078%, 70.196078%)" fill-opacity="1" d="M 50.253906 393.449219 L 45.84375 387.382812 L 50.253906 385.949219 L 50.253906 393.449219 "/>
<path fill="none" stroke-width="5.5" stroke-linecap="butt" stroke-linejoin="miter" stroke="rgb(70.196078%, 70.196078%, 70.196078%)" stroke-opacity="1" stroke-miterlimit="10" d="M 93.734375 150.996094 C 67.011719 182.148438 55.28125 218.246094 62.039062 258.714844 "/>
<path fill-rule="nonzero" fill="rgb(70.196078%, 70.196078%, 70.196078%)" fill-opacity="1" d="M 63.214844 265.75 L 59.753906 259.09375 L 64.324219 258.332031 L 63.214844 265.75 "/>
<path fill="none" stroke-width="5.5" stroke-linecap="butt" stroke-linejoin="miter" stroke="rgb(70.196078%, 70.196078%, 70.196078%)" stroke-opacity="1" stroke-miterlimit="10" d="M 148.515625 65.566406 C 119.816406 82.246094 101.03125 106.664062 95.644531 139.398438 "/>
<path fill-rule="nonzero" fill="rgb(70.196078%, 70.196078%, 70.196078%)" fill-opacity="1" d="M 94.484375 146.433594 L 93.359375 139.019531 L 97.929688 139.773438 L 94.484375 146.433594 "/>
<path fill="none" stroke-width="5.5" stroke-linecap="butt" stroke-linejoin="miter" stroke="rgb(70.196078%, 70.196078%, 70.196078%)" stroke-opacity="1" stroke-miterlimit="10" d="M 220.625 65.085938 C 200.808594 54.496094 179.902344 52.027344 159.296875 60.917969 "/>
<path fill-rule="nonzero" fill="rgb(70.196078%, 70.196078%, 70.196078%)" fill-opacity="1" d="M 152.75 63.742188 L 158.378906 58.789062 L 160.214844 63.042969 L 152.75 63.742188 "/>
<path fill="none" stroke-width="5.5" stroke-linecap="butt" stroke-linejoin="miter" stroke="rgb(70.196078%, 70.196078%, 70.196078%)" stroke-opacity="1" stroke-miterlimit="10" d="M 267.003906 163.089844 C 268.027344 127.375 256.289062 96.40625 229.460938 72.84375 "/>
<path fill-rule="nonzero" fill="rgb(70.196078%, 70.196078%, 70.196078%)" fill-opacity="1" d="M 224.101562 68.136719 L 230.988281 71.101562 L 227.929688 74.585938 L 224.101562 68.136719 "/>
<path fill="none" stroke-width="5.5" stroke-linecap="butt" stroke-linejoin="miter" stroke="rgb(70.196078%, 70.196078%, 70.196078%)" stroke-opacity="1" stroke-miterlimit="10" d="M 282.546875 302.507812 C 298.707031 257.980469 296.503906 214.316406 272.875 173.285156 "/>
<path fill-rule="nonzero" fill="rgb(70.196078%, 70.196078%, 70.196078%)" fill-opacity="1" d="M 269.316406 167.101562 L 274.882812 172.125 L 270.867188 174.441406 L 269.316406 167.101562 "/>
<path fill="none" stroke-width="5.5" stroke-linecap="butt" stroke-linejoin="miter" stroke="rgb(70.196078%, 70.196078%, 70.196078%)" stroke-opacity="1" stroke-miterlimit="10" d="M 288.84375 456.515625 C 309.976562 408.53125 310.65625 360.203125 287.699219 313.082031 "/>
<path fill-rule="nonzero" fill="rgb(70.196078%, 70.196078%, 70.196078%)" fill-opacity="1" d="M 284.574219 306.671875 L 289.78125 312.066406 L 285.617188 314.097656 L 284.574219 306.671875 "/>
<path fill="none" stroke-width="5.5" stroke-linecap="butt" stroke-linejoin="miter" stroke="rgb(70.196078%, 70.196078%, 70.196078%)" stroke-opacity="1" stroke-miterlimit="10" d="M 400.914062 750 C 385.835938 734.203125 367.28125 725.542969 345.566406 727.519531 "/>
<path fill-rule="nonzero" fill="rgb(70.196078%, 70.196078%, 70.196078%)" fill-opacity="1" d="M 338.464844 728.167969 L 345.355469 725.214844 L 345.777344 729.828125 L 338.464844 728.167969 "/>
<path fill="none" stroke-width="5.5" stroke-linecap="butt" stroke-linejoin="miter" stroke="rgb(70.196078%, 70.196078%, 70.196078%)" stroke-opacity="1" stroke-miterlimit="10" d="M 431.148438 639.046875 C 405.613281 667.363281 393.8125 700.636719 399.238281 738.363281 "/>
<path fill-rule="nonzero" fill="rgb(70.196078%, 70.196078%, 70.196078%)" fill-opacity="1" d="M 400.257812 745.421875 L 396.945312 738.691406 L 401.535156 738.03125 L 400.257812 745.421875 "/>
<path fill="none" stroke-width="5.5" stroke-linecap="butt" stroke-linejoin="miter" stroke="rgb(70.196078%, 70.196078%, 70.196078%)" stroke-opacity="1" stroke-miterlimit="10" d="M 300.625 607.027344 C 319.566406 559.378906 318.527344 512.113281 294.382812 466.890625 "/>
<path fill-rule="nonzero" fill="rgb(70.196078%, 70.196078%, 70.196078%)" fill-opacity="1" d="M 291.023438 460.601562 L 296.429688 465.800781 L 292.339844 467.984375 L 291.023438 460.601562 "/>
<path fill="none" stroke-width="5.5" stroke-linecap="butt" stroke-linejoin="miter" stroke="rgb(70.196078%, 70.196078%, 70.196078%)" stroke-opacity="1" stroke-miterlimit="10" d="M 333.875 728.585938 C 342.105469 687.242188 334.398438 649.035156 307.996094 616.195312 "/>
<path fill-rule="nonzero" fill="rgb(70.196078%, 70.196078%, 70.196078%)" fill-opacity="1" d="M 303.523438 610.636719 L 309.800781 614.742188 L 306.1875 617.648438 L 303.523438 610.636719 "/>
<path fill="none" stroke-width="5.5" stroke-linecap="butt" stroke-linejoin="miter" stroke="rgb(70.196078%, 70.196078%, 70.196078%)" stroke-opacity="1" stroke-miterlimit="10" d="M 435.03125 494.167969 C 412.167969 537.582031 408.304688 582.683594 426.730469 628.144531 "/>
<path fill-rule="nonzero" fill="rgb(70.196078%, 70.196078%, 70.196078%)" fill-opacity="1" d="M 429.410156 634.753906 L 424.582031 629.011719 L 428.878906 627.273438 L 429.410156 634.753906 "/>
<path fill="none" stroke-width="5.5" stroke-linecap="butt" stroke-linejoin="miter" stroke="rgb(70.196078%, 70.196078%, 70.196078%)" stroke-opacity="1" stroke-miterlimit="10" d="M 444.574219 338.679688 C 418.375 384.789062 412.738281 433.34375 430.984375 483.121094 "/>
<path fill-rule="nonzero" fill="rgb(70.196078%, 70.196078%, 70.196078%)" fill-opacity="1" d="M 433.4375 489.820312 L 428.808594 483.917969 L 433.160156 482.324219 L 433.4375 489.820312 "/>
<path fill="none" stroke-width="5.5" stroke-linecap="butt" stroke-linejoin="miter" stroke="rgb(70.196078%, 70.196078%, 70.196078%)" stroke-opacity="1" stroke-miterlimit="10" d="M 722.839844 202.761719 C 722.738281 164.140625 708.953125 131.152344 679.226562 106.519531 "/>
<path fill-rule="nonzero" fill="rgb(70.196078%, 70.196078%, 70.196078%)" fill-opacity="1" d="M 673.734375 101.96875 L 680.703125 104.734375 L 677.746094 108.304688 L 673.734375 101.96875 "/>
<path fill="none" stroke-width="5.5" stroke-linecap="butt" stroke-linejoin="miter" stroke="rgb(70.196078%, 70.196078%, 70.196078%)" stroke-opacity="1" stroke-miterlimit="10" d="M 670.171875 99.019531 C 656.492188 74.070312 635.996094 57.28125 608.035156 52.128906 "/>
<path fill-rule="nonzero" fill="rgb(70.196078%, 70.196078%, 70.196078%)" fill-opacity="1" d="M 601.023438 50.835938 L 608.457031 49.851562 L 607.617188 54.410156 L 601.023438 50.835938 "/>
<path fill="none" stroke-width="5.5" stroke-linecap="butt" stroke-linejoin="miter" stroke="rgb(70.196078%, 70.196078%, 70.196078%)" stroke-opacity="1" stroke-miterlimit="10" d="M 750 331.890625 C 761.148438 288.988281 755.328125 248.457031 729.652344 212.347656 "/>
<path fill-rule="nonzero" fill="rgb(70.196078%, 70.196078%, 70.196078%)" fill-opacity="1" d="M 725.519531 206.535156 L 731.542969 211.003906 L 727.765625 213.691406 L 725.519531 206.535156 "/>
<path fill="none" stroke-width="5.5" stroke-linecap="butt" stroke-linejoin="miter" stroke="rgb(70.196078%, 70.196078%, 70.196078%)" stroke-opacity="1" stroke-miterlimit="10" d="M 470.890625 194.542969 C 441.316406 234.417969 430.492188 278.917969 441.875 327.230469 "/>
<path fill-rule="nonzero" fill="rgb(70.196078%, 70.196078%, 70.196078%)" fill-opacity="1" d="M 443.511719 334.171875 L 439.617188 327.761719 L 444.128906 326.699219 L 443.511719 334.171875 "/>
<path fill="none" stroke-width="5.5" stroke-linecap="butt" stroke-linejoin="miter" stroke="rgb(70.196078%, 70.196078%, 70.196078%)" stroke-opacity="1" stroke-miterlimit="10" d="M 521.34375 86.265625 C 490.152344 110.917969 472.261719 143.0625 471.203125 182.785156 "/>
<path fill-rule="nonzero" fill="rgb(70.196078%, 70.196078%, 70.196078%)" fill-opacity="1" d="M 471.015625 189.917969 L 468.886719 182.726562 L 473.519531 182.847656 L 471.015625 189.917969 "/>
<path fill="none" stroke-width="5.5" stroke-linecap="butt" stroke-linejoin="miter" stroke="rgb(70.196078%, 70.196078%, 70.196078%)" stroke-opacity="1" stroke-miterlimit="10" d="M 596.480469 50 C 569.898438 49.027344 546.539062 57.390625 529.066406 77.414062 "/>
<path fill-rule="nonzero" fill="rgb(70.196078%, 70.196078%, 70.196078%)" fill-opacity="1" d="M 524.378906 82.789062 L 527.320312 75.890625 L 530.8125 78.9375 L 524.378906 82.789062 "/>
<path fill="none" stroke-width="5.5" stroke-linecap="butt" stroke-linejoin="miter" stroke="rgb(70.196078%, 70.196078%, 70.196078%)" stroke-opacity="1" stroke-miterlimit="10" d="M 601.484375 499.613281 C 600.78125 530.253906 610.894531 556.890625 634.128906 576.847656 "/>
<path fill-rule="nonzero" fill="rgb(70.196078%, 70.196078%, 70.196078%)" fill-opacity="1" d="M 639.539062 581.496094 L 632.617188 578.605469 L 635.636719 575.089844 L 639.539062 581.496094 "/>
<path fill="none" stroke-width="5.5" stroke-linecap="butt" stroke-linejoin="miter" stroke="rgb(70.196078%, 70.196078%, 70.196078%)" stroke-opacity="1" stroke-miterlimit="10" d="M 748.050781 464.300781 C 768.445312 424.753906 771.699219 383.777344 754.539062 342.742188 "/>
<path fill-rule="nonzero" fill="rgb(70.196078%, 70.196078%, 70.196078%)" fill-opacity="1" d="M 751.785156 336.160156 L 756.675781 341.847656 L 752.398438 343.636719 L 751.785156 336.160156 "/>
<path fill="none" stroke-width="5.5" stroke-linecap="butt" stroke-linejoin="miter" stroke="rgb(70.196078%, 70.196078%, 70.196078%)" stroke-opacity="1" stroke-miterlimit="10" d="M 710.199219 569.707031 C 737.117188 544.273438 751.160156 512.972656 748.800781 476.03125 "/>
<path fill-rule="nonzero" fill="rgb(70.196078%, 70.196078%, 70.196078%)" fill-opacity="1" d="M 748.34375 468.914062 L 751.113281 475.882812 L 746.488281 476.179688 L 748.34375 468.914062 "/>
<path fill="none" stroke-width="5.5" stroke-linecap="butt" stroke-linejoin="miter" stroke="rgb(70.196078%, 70.196078%, 70.196078%)" stroke-opacity="1" stroke-miterlimit="10" d="M 643.042969 584.503906 C 663.320312 590.484375 683.101562 588.835938 700.34375 576.664062 "/>
<path fill-rule="nonzero" fill="rgb(70.196078%, 70.196078%, 70.196078%)" fill-opacity="1" d="M 706.171875 572.550781 L 701.679688 578.558594 L 699.007812 574.769531 L 706.171875 572.550781 "/>
<path fill="none" stroke-width="5.5" stroke-linecap="butt" stroke-linejoin="miter" stroke="rgb(70.196078%, 70.196078%, 70.196078%)" stroke-opacity="1" stroke-miterlimit="10" d="M 589.1875 399.753906 C 577.851562 430.613281 578.953125 461.113281 595.546875 489.46875 "/>
<path fill-rule="nonzero" fill="rgb(70.196078%, 70.196078%, 70.196078%)" fill-opacity="1" d="M 599.152344 495.625 L 593.546875 490.640625 L 597.546875 488.296875 L 599.152344 495.625 "/>
<path fill-rule="nonzero" fill="rgb(14.901961%, 14.901961%, 14.901961%)" fill-opacity="1" stroke-width="1" stroke-linecap="butt" stroke-linejoin="miter" stroke="rgb(14.901961%, 14.901961%, 14.901961%)" stroke-opacity="1" stroke-miterlimit="10" d="M 47.820312 633.894531 L 53.671875 622.195312 L 59.519531 633.894531 Z M 47.820312 633.894531 "/>
<path fill-rule="nonzero" fill="rgb(70.196078%, 70.196078%, 70.196078%)" fill-opacity="1" stroke-width="1" stroke-linecap="butt" stroke-linejoin="miter" stroke="rgb(70.196078%, 70.196078%, 70.196078%)" stroke-opacity="1" stroke-miterlimit="10" d="M 54.851562 521.070312 C 54.851562 527.539062 45.148438 527.539062 45.148438 521.070312 C 45.148438 514.605469 54.851562 514.605469 54.851562 521.070312 "/>
<path fill-rule="nonzero" fill="rgb(70.196078%, 70.196078%, 70.196078%)" fill-opacity="1" stroke-width="1" stroke-linecap="butt" stroke-linejoin="miter" stroke="rgb(70.196078%, 70.196078%, 70.196078%)" stroke-opacity="1" stroke-miterlimit="10" d="M 56.535156 397.847656 C 56.535156 404.316406 46.835938 404.316406 46.835938 397.847656 C 46.835938 391.382812 56.535156 391.382812 56.535156 397.847656 "/>
<path fill-rule="nonzero" fill="rgb(70.196078%, 70.196078%, 70.196078%)" fill-opacity="1" stroke-width="1" stroke-linecap="butt" stroke-linejoin="miter" stroke="rgb(70.196078%, 70.196078%, 70.196078%)" stroke-opacity="1" stroke-miterlimit="10" d="M 68.824219 270.3125 C 68.824219 276.777344 59.125 276.777344 59.125 270.3125 C 59.125 263.847656 68.824219 263.847656 68.824219 270.3125 "/>
<path fill-rule="nonzero" fill="rgb(70.196078%, 70.196078%, 70.196078%)" fill-opacity="1" stroke-width="1" stroke-linecap="butt" stroke-linejoin="miter" stroke="rgb(70.196078%, 70.196078%, 70.196078%)" stroke-opacity="1" stroke-miterlimit="10" d="M 98.585938 150.996094 C 98.585938 157.460938 88.886719 157.460938 88.886719 150.996094 C 88.886719 144.527344 98.585938 144.527344 98.585938 150.996094 "/>
<path fill-rule="nonzero" fill="rgb(70.196078%, 70.196078%, 70.196078%)" fill-opacity="1" stroke-width="1" stroke-linecap="butt" stroke-linejoin="miter" stroke="rgb(70.196078%, 70.196078%, 70.196078%)" stroke-opacity="1" stroke-miterlimit="10" d="M 153.367188 65.566406 C 153.367188 72.035156 143.667969 72.035156 143.667969 65.566406 C 143.667969 59.101562 153.367188 59.101562 153.367188 65.566406 "/>
<path fill-rule="nonzero" fill="rgb(70.196078%, 70.196078%, 70.196078%)" fill-opacity="1" stroke-width="1" stroke-linecap="butt" stroke-linejoin="miter" stroke="rgb(70.196078%, 70.196078%, 70.196078%)" stroke-opacity="1" stroke-miterlimit="10" d="M 225.476562 65.085938 C 225.476562 71.550781 215.777344 71.550781 215.777344 65.085938 C 215.777344 58.617188 225.476562 58.617188 225.476562 65.085938 "/>
<path fill-rule="nonzero" fill="rgb(70.196078%, 70.196078%, 70.196078%)" fill-opacity="1" stroke-width="1" stroke-linecap="butt" stroke-linejoin="miter" stroke="rgb(70.196078%, 70.196078%, 70.196078%)" stroke-opacity="1" stroke-miterlimit="10" d="M 271.855469 163.089844 C 271.855469 169.554688 262.15625 169.554688 262.15625 163.089844 C 262.15625 156.621094 271.855469 156.621094 271.855469 163.089844 "/>
<path fill-rule="nonzero" fill="rgb(70.196078%, 70.196078%, 70.196078%)" fill-opacity="1" stroke-width="1" stroke-linecap="butt" stroke-linejoin="miter" stroke="rgb(70.196078%, 70.196078%, 70.196078%)" stroke-opacity="1" stroke-miterlimit="10" d="M 287.398438 302.507812 C 287.398438 308.972656 277.695312 308.972656 277.695312 302.507812 C 277.695312 296.039062 287.398438 296.039062 287.398438 302.507812 "/>
<path fill-rule="nonzero" fill="rgb(70.196078%, 70.196078%, 70.196078%)" fill-opacity="1" stroke-width="1" stroke-linecap="butt" stroke-linejoin="miter" stroke="rgb(70.196078%, 70.196078%, 70.196078%)" stroke-opacity="1" stroke-miterlimit="10" d="M 293.691406 456.515625 C 293.691406 462.980469 283.992188 462.980469 283.992188 456.515625 C 283.992188 450.046875 293.691406 450.046875 293.691406 456.515625 "/>
<path fill-rule="nonzero" fill="rgb(70.196078%, 70.196078%, 70.196078%)" fill-opacity="1" stroke-width="1" stroke-linecap="butt" stroke-linejoin="miter" stroke="rgb(70.196078%, 70.196078%, 70.196078%)" stroke-opacity="1" stroke-miterlimit="10" d="M 405.765625 750 C 405.765625 756.464844 396.066406 756.464844 396.066406 750 C 396.066406 743.535156 405.765625 743.535156 405.765625 750 "/>
<path fill-rule="nonzero" fill="rgb(70.196078%, 70.196078%, 70.196078%)" fill-opacity="1" stroke-width="1" stroke-linecap="butt" stroke-linejoin="miter" stroke="rgb(70.196078%, 70.196078%, 70.196078%)" stroke-opacity="1" stroke-miterlimit="10" d="M 435.996094 639.046875 C 435.996094 645.511719 426.296875 645.511719 426.296875 639.046875 C 426.296875 632.578125 435.996094 632.578125 435.996094 639.046875 "/>
<path fill-rule="nonzero" fill="rgb(70.196078%, 70.196078%, 70.196078%)" fill-opacity="1" stroke-width="1" stroke-linecap="butt" stroke-linejoin="miter" stroke="rgb(70.196078%, 70.196078%, 70.196078%)" stroke-opacity="1" stroke-miterlimit="10" d="M 305.476562 607.027344 C 305.476562 613.496094 295.773438 613.496094 295.773438 607.027344 C 295.773438 600.5625 305.476562 600.5625 305.476562 607.027344 "/>
<path fill-rule="nonzero" fill="rgb(70.196078%, 70.196078%, 70.196078%)" fill-opacity="1" stroke-width="1" stroke-linecap="butt" stroke-linejoin="miter" stroke="rgb(70.196078%, 70.196078%, 70.196078%)" stroke-opacity="1" stroke-miterlimit="10" d="M 338.726562 728.585938 C 338.726562 735.054688 329.027344 735.054688 329.027344 728.585938 C 329.027344 722.121094 338.726562 722.121094 338.726562 728.585938 "/>
<path fill-rule="nonzero" fill="rgb(70.196078%, 70.196078%, 70.196078%)" fill-opacity="1" stroke-width="1" stroke-linecap="butt" stroke-linejoin="miter" stroke="rgb(70.196078%, 70.196078%, 70.196078%)" stroke-opacity="1" stroke-miterlimit="10" d="M 439.882812 494.167969 C 439.882812 500.636719 430.183594 500.636719 430.183594 494.167969 C 430.183594 487.703125 439.882812 487.703125 439.882812 494.167969 "/>
<path fill-rule="nonzero" fill="rgb(70.196078%, 70.196078%, 70.196078%)" fill-opacity="1" stroke-width="1" stroke-linecap="butt" stroke-linejoin="miter" stroke="rgb(70.196078%, 70.196078%, 70.196078%)" stroke-opacity="1" stroke-miterlimit="10" d="M 449.421875 338.679688 C 449.421875 345.148438 439.722656 345.148438 439.722656 338.679688 C 439.722656 332.214844 449.421875 332.214844 449.421875 338.679688 "/>
<path fill-rule="nonzero" fill="rgb(70.196078%, 70.196078%, 70.196078%)" fill-opacity="1" stroke-width="1" stroke-linecap="butt" stroke-linejoin="miter" stroke="rgb(70.196078%, 70.196078%, 70.196078%)" stroke-opacity="1" stroke-miterlimit="10" d="M 727.6875 202.761719 C 727.6875 209.226562 717.988281 209.226562 717.988281 202.761719 C 717.988281 196.292969 727.6875 196.292969 727.6875 202.761719 "/>
<path fill-rule="nonzero" fill="rgb(70.196078%, 70.196078%, 70.196078%)" fill-opacity="1" stroke-width="1" stroke-linecap="butt" stroke-linejoin="miter" stroke="rgb(70.196078%, 70.196078%, 70.196078%)" stroke-opacity="1" stroke-miterlimit="10" d="M 675.023438 99.019531 C 675.023438 105.484375 665.320312 105.484375 665.320312 99.019531 C 665.320312 92.550781 675.023438 92.550781 675.023438 99.019531 "/>
<path fill-rule="nonzero" fill="rgb(70.196078%, 70.196078%, 70.196078%)" fill-opacity="1" stroke-width="1" stroke-linecap="butt" stroke-linejoin="miter" stroke="rgb(70.196078%, 70.196078%, 70.196078%)" stroke-opacity="1" stroke-miterlimit="10" d="M 754.851562 331.890625 C 754.851562 338.355469 745.148438 338.355469 745.148438 331.890625 C 745.148438 325.421875 754.851562 325.421875 754.851562 331.890625 "/>
<path fill-rule="nonzero" fill="rgb(70.196078%, 70.196078%, 70.196078%)" fill-opacity="1" stroke-width="1" stroke-linecap="butt" stroke-linejoin="miter" stroke="rgb(70.196078%, 70.196078%, 70.196078%)" stroke-opacity="1" stroke-miterlimit="10" d="M 475.742188 194.542969 C 475.742188 201.007812 466.042969 201.007812 466.042969 194.542969 C 466.042969 188.074219 475.742188 188.074219 475.742188 194.542969 "/>
<path fill-rule="nonzero" fill="rgb(70.196078%, 70.196078%, 70.196078%)" fill-opacity="1" stroke-width="1" stroke-linecap="butt" stroke-linejoin="miter" stroke="rgb(70.196078%, 70.196078%, 70.196078%)" stroke-opacity="1" stroke-miterlimit="10" d="M 526.195312 86.265625 C 526.195312 92.734375 516.496094 92.734375 516.496094 86.265625 C 516.496094 79.800781 526.195312 79.800781 526.195312 86.265625 "/>
<path fill-rule="nonzero" fill="rgb(70.196078%, 70.196078%, 70.196078%)" fill-opacity="1" stroke-width="1" stroke-linecap="butt" stroke-linejoin="miter" stroke="rgb(70.196078%, 70.196078%, 70.196078%)" stroke-opacity="1" stroke-miterlimit="10" d="M 601.332031 50 C 601.332031 56.464844 591.632812 56.464844 591.632812 50 C 591.632812 43.535156 601.332031 43.535156 601.332031 50 "/>
<path fill-rule="nonzero" fill="rgb(70.196078%, 70.196078%, 70.196078%)" fill-opacity="1" stroke-width="1" stroke-linecap="butt" stroke-linejoin="miter" stroke="rgb(70.196078%, 70.196078%, 70.196078%)" stroke-opacity="1" stroke-miterlimit="10" d="M 606.335938 499.613281 C 606.335938 506.082031 596.632812 506.082031 596.632812 499.613281 C 596.632812 493.148438 606.335938 493.148438 606.335938 499.613281 "/>
<path fill-rule="nonzero" fill="rgb(70.196078%, 70.196078%, 70.196078%)" fill-opacity="1" stroke-width="1" stroke-linecap="butt" stroke-linejoin="miter" stroke="rgb(70.196078%, 70.196078%, 70.196078%)" stroke-opacity="1" stroke-miterlimit="10" d="M 752.898438 464.300781 C 752.898438 470.765625 743.199219 470.765625 743.199219 464.300781 C 743.199219 457.832031 752.898438 457.832031 752.898438 464.300781 "/>
<path fill-rule="nonzero" fill="rgb(70.196078%, 70.196078%, 70.196078%)" fill-opacity="1" stroke-width="1" stroke-linecap="butt" stroke-linejoin="miter" stroke="rgb(70.196078%, 70.196078%, 70.196078%)" stroke-opacity="1" stroke-miterlimit="10" d="M 715.050781 569.707031 C 715.050781 576.171875 705.351562 576.171875 705.351562 569.707031 C 705.351562 563.238281 715.050781 563.238281 715.050781 569.707031 "/>
<path fill-rule="nonzero" fill="rgb(70.196078%, 70.196078%, 70.196078%)" fill-opacity="1" stroke-width="1" stroke-linecap="butt" stroke-linejoin="miter" stroke="rgb(70.196078%, 70.196078%, 70.196078%)" stroke-opacity="1" stroke-miterlimit="10" d="M 647.894531 584.503906 C 647.894531 590.96875 638.191406 590.96875 638.191406 584.503906 C 638.191406 578.035156 647.894531 578.035156 647.894531 584.503906 "/>
<path fill-rule="nonzero" fill="rgb(100%, 84.313725%, 0%)" fill-opacity="1" stroke-width="1" stroke-linecap="butt" stroke-linejoin="miter" stroke="rgb(100%, 84.313725%, 0%)" stroke-opacity="1" stroke-miterlimit="10" d="M 583.839844 394.40625 L 594.539062 394.40625 L 594.539062 405.105469 L 583.839844 405.105469 Z M 583.839844 394.40625 "/>
</svg>
