<?xml version="1.0" encoding="UTF-8"?>
<svg xmlns="http://www.w3.org/2000/svg" xmlns:xlink="http://www.w3.org/1999/xlink" width="800" height="800" viewBox="0 0 800 800">
<rect x="-80" y="-80" width="960" height="960" fill="rgb(100%, 100%, 100%)" fill-opacity="1"/>
<path fill="none" stroke-width="2.5" stroke-linecap="butt" stroke-linejoin="miter" stroke="rgb(30.196078%, 68.627451%, 29.019608%)" stroke-opacity="1" stroke-miterlimit="10" d="M 407.179688 557.730469 C 402.664062 564.296875 400.269531 571.898438 403.28125 579.179688 "/>
<path fill-rule="nonzero" fill="rgb(30.196078%, 68.627451%, 29.019608%)" fill-opacity="1" d="M 406.007812 585.769531 L 401.140625 580.066406 L 405.421875 578.292969 L 406.007812 585.769531 "/>
<path fill="none" stroke-width="3.5" stroke-linecap="butt" stroke-linejoin="miter" stroke="rgb(70.196078%, 70.196078%, 70.196078%)" stroke-opacity="1" stroke-miterlimit="10" d="M 407.179688 557.730469 C 408.058594 547.375 405.660156 537.539062 397.742188 530.914062 "/>
<path fill-rule="nonzero" fill="rgb(70.196078%, 70.196078%, 70.196078%)" fill-opacity="1" d="M 392.269531 526.335938 L 399.226562 529.136719 L 396.253906 532.691406 L 392.269531 526.335938 "/>
<path fill="none" stroke-width="2.5" stroke-linecap="butt" stroke-linejoin="miter" stroke="rgb(70.196078%, 70.196078%, 70.196078%)" stroke-opacity="1" stroke-miterlimit="10" d="M 407.179688 557.730469 C 391.335938 565.421875 379.878906 577.5 376.277344 594.703125 "/>
<path fill-rule="nonzero" fill="rgb(70.196078%, 70.196078%, 70.196078%)" fill-opacity="1" d="M 374.8125 601.683594 L 374.007812 594.226562 L 378.542969 595.175781 L 374.8125 601.683594 "/>
<path fill="none" stroke-width="1.5" stroke-linecap="butt" stroke-linejoin="miter" stroke="rgb(30.196078%, 68.627451%, 29.019608%)" stroke-opacity="1" stroke-miterlimit="10" d="M 408.433594 591.636719 C 412.917969 585.25 415.359375 577.8125 412.449219 570.667969 "/>
<path fill-rule="nonzero" fill="rgb(30.196078%, 68.627451%, 29.019608%)" fill-opacity="1" d="M 409.761719 564.0625 L 414.597656 569.796875 L 410.304688 571.542969 L 409.761719 564.0625 "/>
<path fill="none" stroke-width="1.5" stroke-linecap="butt" stroke-linejoin="miter" stroke="rgb(98.431373%, 60.392157%, 60%)" stroke-opacity="1" stroke-miterlimit="10" d="M 359.453125 657.847656 C 351.214844 670.046875 347.855469 683.640625 352.59375 697.535156 "/>
<path fill-rule="nonzero" fill="rgb(98.431373%, 60.392157%, 60%)" fill-opacity="1" d="M 354.894531 704.285156 L 350.398438 698.28125 L 354.785156 696.785156 L 354.894531 704.285156 "/>
<path fill="none" stroke-width="1.5" stroke-linecap="butt" stroke-linejoin="miter" stroke="rgb(12.156863%, 47.058824%, 70.588235%)" stroke-opacity="1" stroke-miterlimit="10" d="M 83.917969 319.503906 C 78.550781 310.007812 70.660156 302.992188 59.871094 301.835938 "/>
<path fill-rule="nonzero" fill="rgb(12.156863%, 47.058824%, 70.588235%)" fill-opacity="1" d="M 52.78125 301.074219 L 60.121094 299.53125 L 59.625 304.140625 L 52.78125 301.074219 "/>
<path fill="none" stroke-width="2.5" stroke-linecap="butt" stroke-linejoin="miter" stroke="rgb(12.156863%, 47.058824%, 70.588235%)" stroke-opacity="1" stroke-miterlimit="10" d="M 83.917969 319.503906 C 74.84375 325.355469 68.335938 333.566406 67.847656 344.289062 "/>
<path fill-rule="nonzero" fill="rgb(12.156863%, 47.058824%, 70.588235%)" fill-opacity="1" d="M 67.523438 351.417969 L 65.535156 344.183594 L 70.164062 344.394531 L 67.523438 351.417969 "/>
<path fill="none" stroke-width="1.5" stroke-linecap="butt" stroke-linejoin="miter" stroke="rgb(12.156863%, 47.058824%, 70.588235%)" stroke-opacity="1" stroke-miterlimit="10" d="M 50 300.777344 C 55.066406 310.054688 62.621094 317.019531 73.058594 318.238281 "/>
<path fill-rule="nonzero" fill="rgb(12.156863%, 47.058824%, 70.588235%)" fill-opacity="1" d="M 80.144531 319.0625 L 72.789062 320.539062 L 73.328125 315.933594 L 80.144531 319.0625 "/>
<path fill="none" stroke-width="4.5" stroke-linecap="butt" stroke-linejoin="miter" stroke="rgb(70.196078%, 70.196078%, 70.196078%)" stroke-opacity="1" stroke-miterlimit="10" d="M 508.511719 528.878906 C 494.457031 529.378906 481.988281 534.382812 474.007812 545.902344 "/>
<path fill-rule="nonzero" fill="rgb(70.196078%, 70.196078%, 70.196078%)" fill-opacity="1" d="M 469.945312 551.765625 L 472.101562 544.582031 L 475.910156 547.222656 L 469.945312 551.765625 "/>
<path fill="none" stroke-width="3.5" stroke-linecap="butt" stroke-linejoin="miter" stroke="rgb(70.196078%, 70.196078%, 70.196078%)" stroke-opacity="1" stroke-miterlimit="10" d="M 388.515625 523.195312 C 387.414062 532.863281 389.328125 542.21875 396.617188 548.554688 "/>
<path fill-rule="nonzero" fill="rgb(70.196078%, 70.196078%, 70.196078%)" fill-opacity="1" d="M 402 553.230469 L 395.097656 550.304688 L 398.136719 546.804688 L 402 553.230469 "/>
<path fill="none" stroke-width="4.5" stroke-linecap="butt" stroke-linejoin="miter" stroke="rgb(70.196078%, 70.196078%, 70.196078%)" stroke-opacity="1" stroke-miterlimit="10" d="M 467.144531 555.800781 C 452.003906 547.496094 435.816406 545.140625 420.046875 552.074219 "/>
<path fill-rule="nonzero" fill="rgb(70.196078%, 70.196078%, 70.196078%)" fill-opacity="1" d="M 413.515625 554.945312 L 419.113281 549.953125 L 420.980469 554.195312 L 413.515625 554.945312 "/>
<path fill="none" stroke-width="1.5" stroke-linecap="butt" stroke-linejoin="miter" stroke="rgb(98.431373%, 60.392157%, 60%)" stroke-opacity="1" stroke-miterlimit="10" d="M 355.738281 706.761719 C 346.675781 715.675781 341.335938 726.644531 343.140625 739.171875 "/>
<path fill-rule="nonzero" fill="rgb(98.431373%, 60.392157%, 60%)" fill-opacity="1" d="M 344.15625 746.234375 L 340.84375 739.503906 L 345.433594 738.84375 L 344.15625 746.234375 "/>
<path fill="none" stroke-width="1.5" stroke-linecap="butt" stroke-linejoin="miter" stroke="rgb(12.156863%, 47.058824%, 70.588235%)" stroke-opacity="1" stroke-miterlimit="10" d="M 67.351562 355.210938 C 76.425781 349.359375 82.933594 341.148438 83.421875 330.425781 "/>
<path fill-rule="nonzero" fill="rgb(12.156863%, 47.058824%, 70.588235%)" fill-opacity="1" d="M 83.746094 323.296875 L 85.734375 330.527344 L 81.105469 330.320312 L 83.746094 323.296875 "/>
<path fill="none" stroke-width="5.5" stroke-linecap="butt" stroke-linejoin="miter" stroke="rgb(70.196078%, 70.196078%, 70.196078%)" stroke-opacity="1" stroke-miterlimit="10" d="M 738.824219 335.171875 C 729.457031 322.328125 716.886719 313.972656 701.035156 313.640625 "/>
<path fill-rule="nonzero" fill="rgb(70.196078%, 70.196078%, 70.196078%)" fill-opacity="1" d="M 693.90625 313.492188 L 701.085938 311.324219 L 700.988281 315.957031 L 693.90625 313.492188 "/>
<path fill="none" stroke-width="1.5" stroke-linecap="butt" stroke-linejoin="miter" stroke="rgb(12.156863%, 47.058824%, 70.588235%)" stroke-opacity="1" stroke-miterlimit="10" d="M 146.992188 263.738281 C 144.832031 274.410156 146.195312 284.871094 153.582031 292.785156 "/>
<path fill-rule="nonzero" fill="rgb(12.156863%, 47.058824%, 70.588235%)" fill-opacity="1" d="M 158.449219 298 L 151.890625 294.367188 L 155.277344 291.203125 L 158.449219 298 "/>
<path fill="none" stroke-width="1.5" stroke-linecap="butt" stroke-linejoin="miter" stroke="rgb(12.156863%, 47.058824%, 70.588235%)" stroke-opacity="1" stroke-miterlimit="10" d="M 362.757812 355.820312 C 336.34375 334.945312 306.324219 326.363281 273.417969 333.398438 "/>
<path fill-rule="nonzero" fill="rgb(12.156863%, 47.058824%, 70.588235%)" fill-opacity="1" d="M 266.445312 334.886719 L 272.933594 331.128906 L 273.902344 335.664062 L 266.445312 334.886719 "/>
<path fill="none" stroke-width="1.5" stroke-linecap="butt" stroke-linejoin="miter" stroke="rgb(12.156863%, 47.058824%, 70.588235%)" stroke-opacity="1" stroke-miterlimit="10" d="M 524.363281 393.84375 C 513.140625 388.347656 501.199219 386.929688 490.195312 392.730469 "/>
<path fill-rule="nonzero" fill="rgb(12.156863%, 47.058824%, 70.588235%)" fill-opacity="1" d="M 483.882812 396.058594 L 489.113281 390.679688 L 491.273438 394.78125 L 483.882812 396.058594 "/>
<path fill="none" stroke-width="1.5" stroke-linecap="butt" stroke-linejoin="miter" stroke="rgb(41.568627%, 23.921569%, 60.392157%)" stroke-opacity="1" stroke-miterlimit="10" d="M 373.804688 606.503906 C 382.933594 608.410156 392.066406 607.4375 398.722656 601.011719 "/>
<path fill-rule="nonzero" fill="rgb(41.568627%, 23.921569%, 60.392157%)" fill-opacity="1" d="M 403.855469 596.058594 L 400.332031 602.679688 L 397.113281 599.34375 L 403.855469 596.058594 "/>
<path fill="none" stroke-width="1.5" stroke-linecap="butt" stroke-linejoin="miter" stroke="rgb(98.431373%, 60.392157%, 60%)" stroke-opacity="1" stroke-miterlimit="10" d="M 373.804688 606.503906 C 362.335938 618.050781 356 632.09375 358.15625 648.183594 "/>
<path fill-rule="nonzero" fill="rgb(98.431373%, 60.392157%, 60%)" fill-opacity="1" d="M 359.105469 655.253906 L 355.859375 648.492188 L 360.457031 647.875 L 359.105469 655.253906 "/>
<path fill="none" stroke-width="1.5" stroke-linecap="butt" stroke-linejoin="miter" stroke="rgb(12.156863%, 47.058824%, 70.588235%)" stroke-opacity="1" stroke-miterlimit="10" d="M 479.105469 398.574219 C 450.078125 368.128906 414.46875 352.539062 372.503906 355.203125 "/>
<path fill-rule="nonzero" fill="rgb(12.156863%, 47.058824%, 70.588235%)" fill-opacity="1" d="M 365.382812 355.65625 L 372.355469 352.890625 L 372.648438 357.515625 L 365.382812 355.65625 "/>
<path fill="none" stroke-width="4.5" stroke-linecap="butt" stroke-linejoin="miter" stroke="rgb(70.196078%, 70.196078%, 70.196078%)" stroke-opacity="1" stroke-miterlimit="10" d="M 479.105469 398.574219 C 474.886719 422.058594 479.277344 443.941406 494.941406 461.898438 "/>
<path fill-rule="nonzero" fill="rgb(70.196078%, 70.196078%, 70.196078%)" fill-opacity="1" d="M 499.628906 467.273438 L 493.195312 463.421875 L 496.6875 460.375 L 499.628906 467.273438 "/>
<path fill="none" stroke-width="5.5" stroke-linecap="butt" stroke-linejoin="miter" stroke="rgb(70.196078%, 70.196078%, 70.196078%)" stroke-opacity="1" stroke-miterlimit="10" d="M 714.261719 426.441406 C 729.003906 421.859375 740.65625 412.933594 745.898438 398.457031 "/>
<path fill-rule="nonzero" fill="rgb(70.196078%, 70.196078%, 70.196078%)" fill-opacity="1" d="M 748.324219 391.75 L 748.078125 399.246094 L 743.71875 397.667969 L 748.324219 391.75 "/>
<path fill="none" stroke-width="1.5" stroke-linecap="butt" stroke-linejoin="miter" stroke="rgb(12.156863%, 47.058824%, 70.588235%)" stroke-opacity="1" stroke-miterlimit="10" d="M 160.703125 300.410156 C 136.054688 294.371094 112.601562 297.65625 92.433594 313.015625 "/>
<path fill-rule="nonzero" fill="rgb(12.156863%, 47.058824%, 70.588235%)" fill-opacity="1" d="M 86.757812 317.335938 L 91.03125 311.171875 L 93.839844 314.859375 L 86.757812 317.335938 "/>
<path fill="none" stroke-width="1.5" stroke-linecap="butt" stroke-linejoin="miter" stroke="rgb(12.156863%, 47.058824%, 70.588235%)" stroke-opacity="1" stroke-miterlimit="10" d="M 160.703125 300.410156 C 162.820312 289.558594 161.34375 278.96875 153.800781 270.964844 "/>
<path fill-rule="nonzero" fill="rgb(12.156863%, 47.058824%, 70.588235%)" fill-opacity="1" d="M 148.910156 265.773438 L 155.488281 269.375 L 152.117188 272.554688 L 148.910156 265.773438 "/>
<path fill="none" stroke-width="1.5" stroke-linecap="butt" stroke-linejoin="miter" stroke="rgb(12.156863%, 47.058824%, 70.588235%)" stroke-opacity="1" stroke-miterlimit="10" d="M 263.875 335.4375 C 238.269531 309.523438 207.179688 296.414062 170.902344 299.535156 "/>
<path fill-rule="nonzero" fill="rgb(12.156863%, 47.058824%, 70.588235%)" fill-opacity="1" d="M 163.796875 300.144531 L 170.703125 297.226562 L 171.101562 301.84375 L 163.796875 300.144531 "/>
<path fill="none" stroke-width="1.5" stroke-linecap="butt" stroke-linejoin="miter" stroke="rgb(12.156863%, 47.058824%, 70.588235%)" stroke-opacity="1" stroke-miterlimit="10" d="M 552.859375 359.300781 C 540.503906 363.839844 530.839844 371.917969 527.125 384.492188 "/>
<path fill-rule="nonzero" fill="rgb(12.156863%, 47.058824%, 70.588235%)" fill-opacity="1" d="M 525.101562 391.335938 L 524.902344 383.835938 L 529.347656 385.148438 L 525.101562 391.335938 "/>
<path fill="none" stroke-width="4.5" stroke-linecap="butt" stroke-linejoin="miter" stroke="rgb(70.196078%, 70.196078%, 70.196078%)" stroke-opacity="1" stroke-miterlimit="10" d="M 552.859375 359.300781 C 526.371094 359.316406 503.421875 368.492188 486.785156 389.074219 "/>
<path fill-rule="nonzero" fill="rgb(70.196078%, 70.196078%, 70.196078%)" fill-opacity="1" d="M 482.300781 394.621094 L 484.984375 387.617188 L 488.589844 390.53125 L 482.300781 394.621094 "/>
<path fill="none" stroke-width="5.5" stroke-linecap="butt" stroke-linejoin="miter" stroke="rgb(70.196078%, 70.196078%, 70.196078%)" stroke-opacity="1" stroke-miterlimit="10" d="M 626.769531 324.023438 C 600.75 322.921875 577.820312 330.964844 560.625 350.488281 "/>
<path fill-rule="nonzero" fill="rgb(70.196078%, 70.196078%, 70.196078%)" fill-opacity="1" d="M 555.910156 355.839844 L 558.886719 348.957031 L 562.363281 352.019531 L 555.910156 355.839844 "/>
<path fill="none" stroke-width="5.5" stroke-linecap="butt" stroke-linejoin="miter" stroke="rgb(70.196078%, 70.196078%, 70.196078%)" stroke-opacity="1" stroke-miterlimit="10" d="M 688.988281 313.390625 C 671.019531 306.976562 653.042969 307.375 636.957031 317.566406 "/>
<path fill-rule="nonzero" fill="rgb(70.196078%, 70.196078%, 70.196078%)" fill-opacity="1" d="M 630.933594 321.386719 L 635.714844 315.609375 L 638.199219 319.523438 L 630.933594 321.386719 "/>
<path fill="none" stroke-width="4.5" stroke-linecap="butt" stroke-linejoin="miter" stroke="rgb(70.196078%, 70.196078%, 70.196078%)" stroke-opacity="1" stroke-miterlimit="10" d="M 502.660156 470.75 C 495.578125 486.609375 494.589844 503.003906 502.796875 518.261719 "/>
<path fill-rule="nonzero" fill="rgb(70.196078%, 70.196078%, 70.196078%)" fill-opacity="1" d="M 506.179688 524.542969 L 500.757812 519.359375 L 504.839844 517.164062 L 506.179688 524.542969 "/>
<path fill="none" stroke-width="5.5" stroke-linecap="butt" stroke-linejoin="miter" stroke="rgb(70.196078%, 70.196078%, 70.196078%)" stroke-opacity="1" stroke-miterlimit="10" d="M 656.867188 425.894531 C 671.511719 434.511719 687.359375 437.292969 703.082031 430.949219 "/>
<path fill-rule="nonzero" fill="rgb(70.196078%, 70.196078%, 70.196078%)" fill-opacity="1" d="M 709.699219 428.285156 L 703.949219 433.101562 L 702.214844 428.800781 L 709.699219 428.285156 "/>
<path fill="none" stroke-width="5.5" stroke-linecap="butt" stroke-linejoin="miter" stroke="rgb(70.196078%, 70.196078%, 70.196078%)" stroke-opacity="1" stroke-miterlimit="10" d="M 750 387.128906 C 754.855469 372.464844 754.375 357.792969 745.648438 345.101562 "/>
<path fill-rule="nonzero" fill="rgb(70.196078%, 70.196078%, 70.196078%)" fill-opacity="1" d="M 741.609375 339.222656 L 747.558594 343.789062 L 743.742188 346.414062 L 741.609375 339.222656 "/>
<path fill="none" stroke-width="5.5" stroke-linecap="butt" stroke-linejoin="miter" stroke="rgb(70.196078%, 70.196078%, 70.196078%)" stroke-opacity="1" stroke-miterlimit="10" d="M 495.867188 324.527344 C 514.589844 358.863281 542.78125 381.566406 581.125 389.164062 "/>
<path fill-rule="nonzero" fill="rgb(70.196078%, 70.196078%, 70.196078%)" fill-opacity="1" d="M 588.125 390.550781 L 580.675781 391.4375 L 581.578125 386.890625 L 588.125 390.550781 "/>
<path fill="none" stroke-width="5.5" stroke-linecap="butt" stroke-linejoin="miter" stroke="rgb(70.196078%, 70.196078%, 70.196078%)" stroke-opacity="1" stroke-miterlimit="10" d="M 210.644531 373.640625 C 233.335938 356.496094 246.964844 333.785156 248.003906 305.390625 "/>
<path fill-rule="nonzero" fill="rgb(70.196078%, 70.196078%, 70.196078%)" fill-opacity="1" d="M 248.261719 298.261719 L 250.320312 305.472656 L 245.6875 305.304688 L 248.261719 298.261719 "/>
<path fill="none" stroke-width="5.5" stroke-linecap="butt" stroke-linejoin="miter" stroke="rgb(70.196078%, 70.196078%, 70.196078%)" stroke-opacity="1" stroke-miterlimit="10" d="M 592.660156 391.453125 C 605.160156 410.453125 622.554688 422.746094 645.171875 424.824219 "/>
<path fill-rule="nonzero" fill="rgb(70.196078%, 70.196078%, 70.196078%)" fill-opacity="1" d="M 652.277344 425.476562 L 644.960938 427.128906 L 645.386719 422.515625 L 652.277344 425.476562 "/>
<path fill="none" stroke-width="5.5" stroke-linecap="butt" stroke-linejoin="miter" stroke="rgb(70.196078%, 70.196078%, 70.196078%)" stroke-opacity="1" stroke-miterlimit="10" d="M 192.761719 447.5 C 208.703125 429.714844 216.464844 408.765625 212.5625 385.226562 "/>
<path fill-rule="nonzero" fill="rgb(70.196078%, 70.196078%, 70.196078%)" fill-opacity="1" d="M 211.398438 378.191406 L 214.851562 384.847656 L 210.277344 385.605469 L 211.398438 378.191406 "/>
<path fill="none" stroke-width="5.5" stroke-linecap="butt" stroke-linejoin="miter" stroke="rgb(70.196078%, 70.196078%, 70.196078%)" stroke-opacity="1" stroke-miterlimit="10" d="M 248.433594 293.648438 C 269.773438 296.644531 289.457031 292.003906 305.039062 277.164062 "/>
<path fill-rule="nonzero" fill="rgb(70.196078%, 70.196078%, 70.196078%)" fill-opacity="1" d="M 310.203125 272.246094 L 306.636719 278.84375 L 303.441406 275.488281 L 310.203125 272.246094 "/>
<path fill="none" stroke-width="5.5" stroke-linecap="butt" stroke-linejoin="miter" stroke="rgb(70.196078%, 70.196078%, 70.196078%)" stroke-opacity="1" stroke-miterlimit="10" d="M 313.777344 268.84375 C 333.929688 283.886719 356.609375 289.996094 380.941406 283.75 "/>
<path fill-rule="nonzero" fill="rgb(70.196078%, 70.196078%, 70.196078%)" fill-opacity="1" d="M 387.851562 281.976562 L 381.519531 285.992188 L 380.367188 281.503906 L 387.851562 281.976562 "/>
<path fill="none" stroke-width="5.5" stroke-linecap="butt" stroke-linejoin="miter" stroke="rgb(70.196078%, 70.196078%, 70.196078%)" stroke-opacity="1" stroke-miterlimit="10" d="M 392.320312 280.828125 C 416.34375 309.199219 446.953125 324.980469 484.109375 324.636719 "/>
<path fill-rule="nonzero" fill="rgb(70.196078%, 70.196078%, 70.196078%)" fill-opacity="1" d="M 491.242188 324.570312 L 484.132812 326.953125 L 484.089844 322.320312 L 491.242188 324.570312 "/>
<path fill="none" stroke-width="5.5" stroke-linecap="butt" stroke-linejoin="miter" stroke="rgb(70.196078%, 70.196078%, 70.196078%)" stroke-opacity="1" stroke-miterlimit="10" d="M 196.746094 519.550781 C 206.367188 499.226562 207.816406 478.207031 197.929688 458.042969 "/>
<path fill-rule="nonzero" fill="rgb(70.196078%, 70.196078%, 70.196078%)" fill-opacity="1" d="M 194.789062 451.636719 L 200.011719 457.023438 L 195.847656 459.0625 L 194.789062 451.636719 "/>
<path fill="none" stroke-width="5.5" stroke-linecap="butt" stroke-linejoin="miter" stroke="rgb(70.196078%, 70.196078%, 70.196078%)" stroke-opacity="1" stroke-miterlimit="10" d="M 181.316406 579.753906 C 194.277344 566.238281 201.164062 549.980469 198.480469 531.484375 "/>
<path fill-rule="nonzero" fill="rgb(70.196078%, 70.196078%, 70.196078%)" fill-opacity="1" d="M 197.457031 524.425781 L 200.773438 531.152344 L 196.1875 531.820312 L 197.457031 524.425781 "/>
<path fill="none" stroke-width="5.5" stroke-linecap="butt" stroke-linejoin="miter" stroke="rgb(70.196078%, 70.196078%, 70.196078%)" stroke-opacity="1" stroke-miterlimit="10" d="M 488.371094 57.640625 C 474.597656 47.128906 458.910156 42.40625 442.214844 46.878906 "/>
<path fill-rule="nonzero" fill="rgb(70.196078%, 70.196078%, 70.196078%)" fill-opacity="1" d="M 435.324219 48.726562 L 441.613281 44.640625 L 442.8125 49.117188 L 435.324219 48.726562 "/>
<path fill="none" stroke-width="5.5" stroke-linecap="butt" stroke-linejoin="miter" stroke="rgb(70.196078%, 70.196078%, 70.196078%)" stroke-opacity="1" stroke-miterlimit="10" d="M 170.492188 544.101562 C 167.671875 553.347656 167.871094 562.820312 173.839844 570.339844 "/>
<path fill-rule="nonzero" fill="rgb(70.196078%, 70.196078%, 70.196078%)" fill-opacity="1" d="M 178.273438 575.925781 L 172.023438 571.777344 L 175.65625 568.898438 L 178.273438 575.925781 "/>
<path fill="none" stroke-width="5.5" stroke-linecap="butt" stroke-linejoin="miter" stroke="rgb(70.196078%, 70.196078%, 70.196078%)" stroke-opacity="1" stroke-miterlimit="10" d="M 362.1875 402.773438 C 337.566406 407.230469 317.730469 419.585938 305.773438 441.535156 "/>
<path fill-rule="nonzero" fill="rgb(70.196078%, 70.196078%, 70.196078%)" fill-opacity="1" d="M 302.359375 447.796875 L 303.738281 440.425781 L 307.808594 442.640625 L 302.359375 447.796875 "/>
<path fill="none" stroke-width="5.5" stroke-linecap="butt" stroke-linejoin="miter" stroke="rgb(70.196078%, 70.196078%, 70.196078%)" stroke-opacity="1" stroke-miterlimit="10" d="M 242.21875 499.894531 C 215.375 501.6875 192.761719 512.546875 177.265625 534.503906 "/>
<path fill-rule="nonzero" fill="rgb(70.196078%, 70.196078%, 70.196078%)" fill-opacity="1" d="M 173.152344 540.332031 L 175.371094 533.167969 L 179.160156 535.839844 L 173.152344 540.332031 "/>
<path fill="none" stroke-width="5.5" stroke-linecap="butt" stroke-linejoin="miter" stroke="rgb(70.196078%, 70.196078%, 70.196078%)" stroke-opacity="1" stroke-miterlimit="10" d="M 300.152344 451.847656 C 276.996094 456.503906 258.4375 468.5 247.609375 489.460938 "/>
<path fill-rule="nonzero" fill="rgb(70.196078%, 70.196078%, 70.196078%)" fill-opacity="1" d="M 244.335938 495.796875 L 245.550781 488.394531 L 249.667969 490.523438 L 244.335938 495.796875 "/>
<path fill="none" stroke-width="5.5" stroke-linecap="butt" stroke-linejoin="miter" stroke="rgb(70.196078%, 70.196078%, 70.196078%)" stroke-opacity="1" stroke-miterlimit="10" d="M 417.289062 326.660156 C 390.082031 340.332031 371.425781 361.621094 364.761719 391.304688 "/>
<path fill-rule="nonzero" fill="rgb(70.196078%, 70.196078%, 70.196078%)" fill-opacity="1" d="M 363.199219 398.265625 L 362.5 390.796875 L 367.023438 391.8125 L 363.199219 398.265625 "/>
<path fill="none" stroke-width="5.5" stroke-linecap="butt" stroke-linejoin="miter" stroke="rgb(70.196078%, 70.196078%, 70.196078%)" stroke-opacity="1" stroke-miterlimit="10" d="M 442.78125 193.527344 C 435.328125 209.230469 433.957031 225.609375 441.816406 241.070312 "/>
<path fill-rule="nonzero" fill="rgb(70.196078%, 70.196078%, 70.196078%)" fill-opacity="1" d="M 445.050781 247.425781 L 439.75 242.117188 L 443.882812 240.019531 L 445.050781 247.425781 "/>
<path fill="none" stroke-width="5.5" stroke-linecap="butt" stroke-linejoin="miter" stroke="rgb(70.196078%, 70.196078%, 70.196078%)" stroke-opacity="1" stroke-miterlimit="10" d="M 447.28125 251.816406 C 427.734375 268.3125 416.472656 289.371094 417.03125 314.917969 "/>
<path fill-rule="nonzero" fill="rgb(70.196078%, 70.196078%, 70.196078%)" fill-opacity="1" d="M 417.1875 322.050781 L 414.714844 314.96875 L 419.347656 314.867188 L 417.1875 322.050781 "/>
<path fill="none" stroke-width="5.5" stroke-linecap="butt" stroke-linejoin="miter" stroke="rgb(70.196078%, 70.196078%, 70.196078%)" stroke-opacity="1" stroke-miterlimit="10" d="M 592.949219 106.152344 C 584.445312 91.953125 572.195312 82.15625 555.792969 80.273438 "/>
<path fill-rule="nonzero" fill="rgb(70.196078%, 70.196078%, 70.196078%)" fill-opacity="1" d="M 548.707031 79.460938 L 556.058594 77.96875 L 555.53125 82.574219 L 548.707031 79.460938 "/>
<path fill="none" stroke-width="5.5" stroke-linecap="butt" stroke-linejoin="miter" stroke="rgb(70.196078%, 70.196078%, 70.196078%)" stroke-opacity="1" stroke-miterlimit="10" d="M 380.222656 67.742188 C 370.554688 78.207031 365.277344 90.742188 367.851562 104.707031 "/>
<path fill-rule="nonzero" fill="rgb(70.196078%, 70.196078%, 70.196078%)" fill-opacity="1" d="M 369.148438 111.722656 L 365.574219 105.128906 L 370.132812 104.285156 L 369.148438 111.722656 "/>
<path fill="none" stroke-width="5.5" stroke-linecap="butt" stroke-linejoin="miter" stroke="rgb(70.196078%, 70.196078%, 70.196078%)" stroke-opacity="1" stroke-miterlimit="10" d="M 405.679688 154.503906 C 409.261719 169.789062 417.480469 182.234375 431.777344 188.613281 "/>
<path fill-rule="nonzero" fill="rgb(70.196078%, 70.196078%, 70.196078%)" fill-opacity="1" d="M 438.292969 191.519531 L 430.832031 190.730469 L 432.722656 186.496094 L 438.292969 191.519531 "/>
<path fill="none" stroke-width="5.5" stroke-linecap="butt" stroke-linejoin="miter" stroke="rgb(70.196078%, 70.196078%, 70.196078%)" stroke-opacity="1" stroke-miterlimit="10" d="M 370.039062 116.554688 C 373.320312 131.242188 381.058594 143.296875 394.714844 149.511719 "/>
<path fill-rule="nonzero" fill="rgb(70.196078%, 70.196078%, 70.196078%)" fill-opacity="1" d="M 401.207031 152.46875 L 393.753906 151.621094 L 395.671875 147.402344 L 401.207031 152.46875 "/>
<path fill="none" stroke-width="5.5" stroke-linecap="butt" stroke-linejoin="miter" stroke="rgb(70.196078%, 70.196078%, 70.196078%)" stroke-opacity="1" stroke-miterlimit="10" d="M 430.570312 50 C 415.324219 47.03125 400.753906 49.390625 389.207031 59.710938 "/>
<path fill-rule="nonzero" fill="rgb(70.196078%, 70.196078%, 70.196078%)" fill-opacity="1" d="M 383.890625 64.464844 L 387.664062 57.984375 L 390.753906 61.4375 L 383.890625 64.464844 "/>
<path fill="none" stroke-width="5.5" stroke-linecap="butt" stroke-linejoin="miter" stroke="rgb(70.196078%, 70.196078%, 70.196078%)" stroke-opacity="1" stroke-miterlimit="10" d="M 632.957031 132.777344 C 627.1875 120.472656 618.023438 111.242188 604.75 108.546875 "/>
<path fill-rule="nonzero" fill="rgb(70.196078%, 70.196078%, 70.196078%)" fill-opacity="1" d="M 597.761719 107.128906 L 605.214844 106.277344 L 604.289062 110.820312 L 597.761719 107.128906 "/>
<path fill="none" stroke-width="5.5" stroke-linecap="butt" stroke-linejoin="miter" stroke="rgb(70.196078%, 70.196078%, 70.196078%)" stroke-opacity="1" stroke-miterlimit="10" d="M 543.820312 78.898438 C 532.59375 65.191406 518.09375 56.816406 500.421875 57.308594 "/>
<path fill-rule="nonzero" fill="rgb(70.196078%, 70.196078%, 70.196078%)" fill-opacity="1" d="M 493.292969 57.503906 L 500.359375 54.988281 L 500.488281 59.625 L 493.292969 57.503906 "/>
<path fill-rule="nonzero" fill="rgb(14.901961%, 14.901961%, 14.901961%)" fill-opacity="1" stroke-width="1" stroke-linecap="butt" stroke-linejoin="miter" stroke="rgb(14.901961%, 14.901961%, 14.901961%)" stroke-opacity="1" stroke-miterlimit="10" d="M 400.332031 564.582031 L 407.179688 550.882812 L 414.03125 564.582031 Z M 400.332031 564.582031 "/>
<path fill-rule="nonzero" fill="rgb(14.901961%, 14.901961%, 14.901961%)" fill-opacity="1" stroke-width="1" stroke-linecap="butt" stroke-linejoin="miter" stroke="rgb(14.901961%, 14.901961%, 14.901961%)" stroke-opacity="1" stroke-miterlimit="10" d="M 402.085938 597.988281 L 408.433594 585.289062 L 414.785156 597.988281 Z M 402.085938 597.988281 "/>
<path fill-rule="nonzero" fill="rgb(98.431373%, 60.392157%, 60%)" fill-opacity="1" stroke-width="1" stroke-linecap="butt" stroke-linejoin="miter" stroke="rgb(98.431373%, 60.392157%, 60%)" stroke-opacity="1" stroke-miterlimit="10" d="M 362.203125 657.847656 C 362.203125 661.515625 356.703125 661.515625 356.703125 657.847656 C 356.703125 654.183594 362.203125 654.183594 362.203125 657.847656 "/>
<path fill-rule="nonzero" fill="rgb(14.901961%, 14.901961%, 14.901961%)" fill-opacity="1" stroke-width="1" stroke-linecap="butt" stroke-linejoin="miter" stroke="rgb(14.901961%, 14.901961%, 14.901961%)" stroke-opacity="1" stroke-miterlimit="10" d="M 340.945312 753.75 L 344.695312 746.25 L 348.445312 753.75 Z M 340.945312 753.75 "/>
<path fill-rule="nonzero" fill="rgb(12.156863%, 47.058824%, 70.588235%)" fill-opacity="1" stroke-width="1" stroke-linecap="butt" stroke-linejoin="miter" stroke="rgb(12.156863%, 47.058824%, 70.588235%)" stroke-opacity="1" stroke-miterlimit="10" d="M 87.667969 319.503906 C 87.667969 324.503906 80.167969 324.503906 80.167969 319.503906 C 80.167969 314.503906 87.667969 314.503906 87.667969 319.503906 "/>
<path fill-rule="nonzero" fill="rgb(12.156863%, 47.058824%, 70.588235%)" fill-opacity="1" stroke-width="1" stroke-linecap="butt" stroke-linejoin="miter" stroke="rgb(12.156863%, 47.058824%, 70.588235%)" stroke-opacity="1" stroke-miterlimit="10" d="M 52.75 300.777344 C 52.75 304.441406 47.25 304.441406 47.25 300.777344 C 47.25 297.109375 52.75 297.109375 52.75 300.777344 "/>
<path fill-rule="nonzero" fill="rgb(70.196078%, 70.196078%, 70.196078%)" fill-opacity="1" stroke-width="1" stroke-linecap="butt" stroke-linejoin="miter" stroke="rgb(70.196078%, 70.196078%, 70.196078%)" stroke-opacity="1" stroke-miterlimit="10" d="M 513.359375 528.878906 C 513.359375 535.34375 503.660156 535.34375 503.660156 528.878906 C 503.660156 522.410156 513.359375 522.410156 513.359375 528.878906 "/>
<path fill-rule="nonzero" fill="rgb(70.196078%, 70.196078%, 70.196078%)" fill-opacity="1" stroke-width="1" stroke-linecap="butt" stroke-linejoin="miter" stroke="rgb(70.196078%, 70.196078%, 70.196078%)" stroke-opacity="1" stroke-miterlimit="10" d="M 393.367188 523.195312 C 393.367188 529.664062 383.667969 529.664062 383.667969 523.195312 C 383.667969 516.730469 393.367188 516.730469 393.367188 523.195312 "/>
<path fill-rule="nonzero" fill="rgb(70.196078%, 70.196078%, 70.196078%)" fill-opacity="1" stroke-width="1" stroke-linecap="butt" stroke-linejoin="miter" stroke="rgb(70.196078%, 70.196078%, 70.196078%)" stroke-opacity="1" stroke-miterlimit="10" d="M 471.996094 555.800781 C 471.996094 562.269531 462.296875 562.269531 462.296875 555.800781 C 462.296875 549.335938 471.996094 549.335938 471.996094 555.800781 "/>
<path fill-rule="nonzero" fill="rgb(98.431373%, 60.392157%, 60%)" fill-opacity="1" stroke-width="1" stroke-linecap="butt" stroke-linejoin="miter" stroke="rgb(98.431373%, 60.392157%, 60%)" stroke-opacity="1" stroke-miterlimit="10" d="M 358.488281 706.761719 C 358.488281 710.429688 352.988281 710.429688 352.988281 706.761719 C 352.988281 703.097656 358.488281 703.097656 358.488281 706.761719 "/>
<path fill-rule="nonzero" fill="rgb(14.901961%, 14.901961%, 14.901961%)" fill-opacity="1" stroke-width="1" stroke-linecap="butt" stroke-linejoin="miter" stroke="rgb(14.901961%, 14.901961%, 14.901961%)" stroke-opacity="1" stroke-miterlimit="10" d="M 63.601562 358.960938 L 67.351562 351.460938 L 71.101562 358.960938 Z M 63.601562 358.960938 "/>
<path fill-rule="nonzero" fill="rgb(70.196078%, 70.196078%, 70.196078%)" fill-opacity="1" stroke-width="1" stroke-linecap="butt" stroke-linejoin="miter" stroke="rgb(70.196078%, 70.196078%, 70.196078%)" stroke-opacity="1" stroke-miterlimit="10" d="M 743.675781 335.171875 C 743.675781 341.640625 733.972656 341.640625 733.972656 335.171875 C 733.972656 328.707031 743.675781 328.707031 743.675781 335.171875 "/>
<path fill-rule="nonzero" fill="rgb(12.156863%, 47.058824%, 70.588235%)" fill-opacity="1" stroke-width="1" stroke-linecap="butt" stroke-linejoin="miter" stroke="rgb(12.156863%, 47.058824%, 70.588235%)" stroke-opacity="1" stroke-miterlimit="10" d="M 149.742188 263.738281 C 149.742188 267.402344 144.242188 267.402344 144.242188 263.738281 C 144.242188 260.070312 149.742188 260.070312 149.742188 263.738281 "/>
<path fill-rule="nonzero" fill="rgb(12.156863%, 47.058824%, 70.588235%)" fill-opacity="1" stroke-width="1" stroke-linecap="butt" stroke-linejoin="miter" stroke="rgb(12.156863%, 47.058824%, 70.588235%)" stroke-opacity="1" stroke-miterlimit="10" d="M 365.507812 355.820312 C 365.507812 359.488281 360.007812 359.488281 360.007812 355.820312 C 360.007812 352.15625 365.507812 352.15625 365.507812 355.820312 "/>
<path fill-rule="nonzero" fill="rgb(12.156863%, 47.058824%, 70.588235%)" fill-opacity="1" stroke-width="1" stroke-linecap="butt" stroke-linejoin="miter" stroke="rgb(12.156863%, 47.058824%, 70.588235%)" stroke-opacity="1" stroke-miterlimit="10" d="M 527.113281 393.84375 C 527.113281 397.507812 521.613281 397.507812 521.613281 393.84375 C 521.613281 390.175781 527.113281 390.175781 527.113281 393.84375 "/>
<path fill-rule="nonzero" fill="rgb(70.196078%, 70.196078%, 70.196078%)" fill-opacity="1" stroke-width="1" stroke-linecap="butt" stroke-linejoin="miter" stroke="rgb(70.196078%, 70.196078%, 70.196078%)" stroke-opacity="1" stroke-miterlimit="10" d="M 378.652344 606.503906 C 378.652344 612.96875 368.953125 612.96875 368.953125 606.503906 C 368.953125 600.035156 378.652344 600.035156 378.652344 606.503906 "/>
<path fill-rule="nonzero" fill="rgb(70.196078%, 70.196078%, 70.196078%)" fill-opacity="1" stroke-width="1" stroke-linecap="butt" stroke-linejoin="miter" stroke="rgb(70.196078%, 70.196078%, 70.196078%)" stroke-opacity="1" stroke-miterlimit="10" d="M 484.453125 398.574219 C 484.453125 405.710938 473.753906 405.710938 473.753906 398.574219 C 473.753906 391.441406 484.453125 391.441406 484.453125 398.574219 "/>
<path fill-rule="nonzero" fill="rgb(70.196078%, 70.196078%, 70.196078%)" fill-opacity="1" stroke-width="1" stroke-linecap="butt" stroke-linejoin="miter" stroke="rgb(70.196078%, 70.196078%, 70.196078%)" stroke-opacity="1" stroke-miterlimit="10" d="M 719.113281 426.441406 C 719.113281 432.910156 709.410156 432.910156 709.410156 426.441406 C 709.410156 419.976562 719.113281 419.976562 719.113281 426.441406 "/>
<path fill-rule="nonzero" fill="rgb(12.156863%, 47.058824%, 70.588235%)" fill-opacity="1" stroke-width="1" stroke-linecap="butt" stroke-linejoin="miter" stroke="rgb(12.156863%, 47.058824%, 70.588235%)" stroke-opacity="1" stroke-miterlimit="10" d="M 163.953125 300.410156 C 163.953125 304.742188 157.453125 304.742188 157.453125 300.410156 C 157.453125 296.078125 163.953125 296.078125 163.953125 300.410156 "/>
<path fill-rule="nonzero" fill="rgb(12.156863%, 47.058824%, 70.588235%)" fill-opacity="1" stroke-width="1" stroke-linecap="butt" stroke-linejoin="miter" stroke="rgb(12.156863%, 47.058824%, 70.588235%)" stroke-opacity="1" stroke-miterlimit="10" d="M 266.625 335.4375 C 266.625 339.105469 261.125 339.105469 261.125 335.4375 C 261.125 331.769531 266.625 331.769531 266.625 335.4375 "/>
<path fill-rule="nonzero" fill="rgb(70.196078%, 70.196078%, 70.196078%)" fill-opacity="1" stroke-width="1" stroke-linecap="butt" stroke-linejoin="miter" stroke="rgb(70.196078%, 70.196078%, 70.196078%)" stroke-opacity="1" stroke-miterlimit="10" d="M 557.710938 359.300781 C 557.710938 365.769531 548.007812 365.769531 548.007812 359.300781 C 548.007812 352.835938 557.710938 352.835938 557.710938 359.300781 "/>
<path fill-rule="nonzero" fill="rgb(70.196078%, 70.196078%, 70.196078%)" fill-opacity="1" stroke-width="1" stroke-linecap="butt" stroke-linejoin="miter" stroke="rgb(70.196078%, 70.196078%, 70.196078%)" stroke-opacity="1" stroke-miterlimit="10" d="M 631.621094 324.023438 C 631.621094 330.488281 621.921875 330.488281 621.921875 324.023438 C 621.921875 317.554688 631.621094 317.554688 631.621094 324.023438 "/>
<path fill-rule="nonzero" fill="rgb(70.196078%, 70.196078%, 70.196078%)" fill-opacity="1" stroke-width="1" stroke-linecap="butt" stroke-linejoin="miter" stroke="rgb(70.196078%, 70.196078%, 70.196078%)" stroke-opacity="1" stroke-miterlimit="10" d="M 693.835938 313.390625 C 693.835938 319.855469 684.136719 319.855469 684.136719 313.390625 C 684.136719 306.921875 693.835938 306.921875 693.835938 313.390625 "/>
<path fill-rule="nonzero" fill="rgb(70.196078%, 70.196078%, 70.196078%)" fill-opacity="1" stroke-width="1" stroke-linecap="butt" stroke-linejoin="miter" stroke="rgb(70.196078%, 70.196078%, 70.196078%)" stroke-opacity="1" stroke-miterlimit="10" d="M 507.511719 470.75 C 507.511719 477.214844 497.8125 477.214844 497.8125 470.75 C 497.8125 464.285156 507.511719 464.285156 507.511719 470.75 "/>
<path fill-rule="nonzero" fill="rgb(70.196078%, 70.196078%, 70.196078%)" fill-opacity="1" stroke-width="1" stroke-linecap="butt" stroke-linejoin="miter" stroke="rgb(70.196078%, 70.196078%, 70.196078%)" stroke-opacity="1" stroke-miterlimit="10" d="M 661.714844 425.894531 C 661.714844 432.363281 652.015625 432.363281 652.015625 425.894531 C 652.015625 419.429688 661.714844 419.429688 661.714844 425.894531 "/>
<path fill-rule="nonzero" fill="rgb(70.196078%, 70.196078%, 70.196078%)" fill-opacity="1" stroke-width="1" stroke-linecap="butt" stroke-linejoin="miter" stroke="rgb(70.196078%, 70.196078%, 70.196078%)" stroke-opacity="1" stroke-miterlimit="10" d="M 754.851562 387.128906 C 754.851562 393.59375 745.148438 393.59375 745.148438 387.128906 C 745.148438 380.660156 754.851562 380.660156 754.851562 387.128906 "/>
<path fill-rule="nonzero" fill="rgb(70.196078%, 70.196078%, 70.196078%)" fill-opacity="1" stroke-width="1" stroke-linecap="butt" stroke-linejoin="miter" stroke="rgb(70.196078%, 70.196078%, 70.196078%)" stroke-opacity="1" stroke-miterlimit="10" d="M 500.71875 324.527344 C 500.71875 330.996094 491.019531 330.996094 491.019531 324.527344 C 491.019531 318.0625 500.71875 318.0625 500.71875 324.527344 "/>
<path fill-rule="nonzero" fill="rgb(70.196078%, 70.196078%, 70.196078%)" fill-opacity="1" stroke-width="1" stroke-linecap="butt" stroke-linejoin="miter" stroke="rgb(70.196078%, 70.196078%, 70.196078%)" stroke-opacity="1" stroke-miterlimit="10" d="M 215.496094 373.640625 C 215.496094 380.109375 205.792969 380.109375 205.792969 373.640625 C 205.792969 367.175781 215.496094 367.175781 215.496094 373.640625 "/>
<path fill-rule="nonzero" fill="rgb(70.196078%, 70.196078%, 70.196078%)" fill-opacity="1" stroke-width="1" stroke-linecap="butt" stroke-linejoin="miter" stroke="rgb(70.196078%, 70.196078%, 70.196078%)" stroke-opacity="1" stroke-miterlimit="10" d="M 597.511719 391.453125 C 597.511719 397.917969 587.8125 397.917969 587.8125 391.453125 C 587.8125 384.984375 597.511719 384.984375 597.511719 391.453125 "/>
<path fill-rule="nonzero" fill="rgb(70.196078%, 70.196078%, 70.196078%)" fill-opacity="1" stroke-width="1" stroke-linecap="butt" stroke-linejoin="miter" stroke="rgb(70.196078%, 70.196078%, 70.196078%)" stroke-opacity="1" stroke-miterlimit="10" d="M 197.609375 447.5 C 197.609375 453.96875 187.910156 453.96875 187.910156 447.5 C 187.910156 441.035156 197.609375 441.035156 197.609375 447.5 "/>
<path fill-rule="nonzero" fill="rgb(70.196078%, 70.196078%, 70.196078%)" fill-opacity="1" stroke-width="1" stroke-linecap="butt" stroke-linejoin="miter" stroke="rgb(70.196078%, 70.196078%, 70.196078%)" stroke-opacity="1" stroke-miterlimit="10" d="M 253.28125 293.648438 C 253.28125 300.113281 243.582031 300.113281 243.582031 293.648438 C 243.582031 287.179688 253.28125 287.179688 253.28125 293.648438 "/>
<path fill-rule="nonzero" fill="rgb(70.196078%, 70.196078%, 70.196078%)" fill-opacity="1" stroke-width="1" stroke-linecap="butt" stroke-linejoin="miter" stroke="rgb(70.196078%, 70.196078%, 70.196078%)" stroke-opacity="1" stroke-miterlimit="10" d="M 318.625 268.84375 C 318.625 275.308594 308.925781 275.308594 308.925781 268.84375 C 308.925781 262.375 318.625 262.375 318.625 268.84375 "/>
<path fill-rule="nonzero" fill="rgb(70.196078%, 70.196078%, 70.196078%)" fill-opacity="1" stroke-width="1" stroke-linecap="butt" stroke-linejoin="miter" stroke="rgb(70.196078%, 70.196078%, 70.196078%)" stroke-opacity="1" stroke-miterlimit="10" d="M 397.167969 280.828125 C 397.167969 287.296875 387.46875 287.296875 387.46875 280.828125 C 387.46875 274.363281 397.167969 274.363281 397.167969 280.828125 "/>
<path fill-rule="nonzero" fill="rgb(70.196078%, 70.196078%, 70.196078%)" fill-opacity="1" stroke-width="1" stroke-linecap="butt" stroke-linejoin="miter" stroke="rgb(70.196078%, 70.196078%, 70.196078%)" stroke-opacity="1" stroke-miterlimit="10" d="M 201.597656 519.550781 C 201.597656 526.019531 191.898438 526.019531 191.898438 519.550781 C 191.898438 513.085938 201.597656 513.085938 201.597656 519.550781 "/>
<path fill-rule="nonzero" fill="rgb(70.196078%, 70.196078%, 70.196078%)" fill-opacity="1" stroke-width="1" stroke-linecap="butt" stroke-linejoin="miter" stroke="rgb(70.196078%, 70.196078%, 70.196078%)" stroke-opacity="1" stroke-miterlimit="10" d="M 186.164062 579.753906 C 186.164062 586.21875 176.464844 586.21875 176.464844 579.753906 C 176.464844 573.285156 186.164062 573.285156 186.164062 579.753906 "/>
<path fill-rule="nonzero" fill="rgb(70.196078%, 70.196078%, 70.196078%)" fill-opacity="1" stroke-width="1" stroke-linecap="butt" stroke-linejoin="miter" stroke="rgb(70.196078%, 70.196078%, 70.196078%)" stroke-opacity="1" stroke-miterlimit="10" d="M 493.21875 57.640625 C 493.21875 64.109375 483.519531 64.109375 483.519531 57.640625 C 483.519531 51.175781 493.21875 51.175781 493.21875 57.640625 "/>
<path fill-rule="nonzero" fill="rgb(70.196078%, 70.196078%, 70.196078%)" fill-opacity="1" stroke-width="1" stroke-linecap="butt" stroke-linejoin="miter" stroke="rgb(70.196078%, 70.196078%, 70.196078%)" stroke-opacity="1" stroke-miterlimit="10" d="M 175.339844 544.101562 C 175.339844 550.566406 165.640625 550.566406 165.640625 544.101562 C 165.640625 537.636719 175.339844 537.636719 175.339844 544.101562 "/>
<path fill-rule="nonzero" fill="rgb(70.196078%, 70.196078%, 70.196078%)" fill-opacity="1" stroke-width="1" stroke-linecap="butt" stroke-linejoin="miter" stroke="rgb(70.196078%, 70.196078%, 70.196078%)" stroke-opacity="1" stroke-miterlimit="10" d="M 367.039062 402.773438 C 367.039062 409.238281 357.335938 409.238281 357.335938 402.773438 C 357.335938 396.304688 367.039062 396.304688 367.039062 402.773438 "/>
<path fill-rule="nonzero" fill="rgb(70.196078%, 70.196078%, 70.196078%)" fill-opacity="1" stroke-width="1" stroke-linecap="butt" stroke-linejoin="miter" stroke="rgb(70.196078%, 70.196078%, 70.196078%)" stroke-opacity="1" stroke-miterlimit="10" d="M 247.066406 499.894531 C 247.066406 506.359375 237.367188 506.359375 237.367188 499.894531 C 237.367188 493.425781 247.066406 493.425781 247.066406 499.894531 "/>
<path fill-rule="nonzero" fill="rgb(70.196078%, 70.196078%, 70.196078%)" fill-opacity="1" stroke-width="1" stroke-linecap="butt" stroke-linejoin="miter" stroke="rgb(70.196078%, 70.196078%, 70.196078%)" stroke-opacity="1" stroke-miterlimit="10" d="M 305.003906 451.847656 C 305.003906 458.3125 295.300781 458.3125 295.300781 451.847656 C 295.300781 445.378906 305.003906 445.378906 305.003906 451.847656 "/>
<path fill-rule="nonzero" fill="rgb(70.196078%, 70.196078%, 70.196078%)" fill-opacity="1" stroke-width="1" stroke-linecap="butt" stroke-linejoin="miter" stroke="rgb(70.196078%, 70.196078%, 70.196078%)" stroke-opacity="1" stroke-miterlimit="10" d="M 422.140625 326.660156 C 422.140625 333.128906 412.4375 333.128906 412.4375 326.660156 C 412.4375 320.195312 422.140625 320.195312 422.140625 326.660156 "/>
<path fill-rule="nonzero" fill="rgb(70.196078%, 70.196078%, 70.196078%)" fill-opacity="1" stroke-width="1" stroke-linecap="butt" stroke-linejoin="miter" stroke="rgb(70.196078%, 70.196078%, 70.196078%)" stroke-opacity="1" stroke-miterlimit="10" d="M 447.632812 193.527344 C 447.632812 199.992188 437.933594 199.992188 437.933594 193.527344 C 437.933594 187.058594 447.632812 187.058594 447.632812 193.527344 "/>
<path fill-rule="nonzero" fill="rgb(70.196078%, 70.196078%, 70.196078%)" fill-opacity="1" stroke-width="1" stroke-linecap="butt" stroke-linejoin="miter" stroke="rgb(70.196078%, 70.196078%, 70.196078%)" stroke-opacity="1" stroke-miterlimit="10" d="M 452.132812 251.816406 C 452.132812 258.28125 442.433594 258.28125 442.433594 251.816406 C 442.433594 245.347656 452.132812 245.347656 452.132812 251.816406 "/>
<path fill-rule="nonzero" fill="rgb(70.196078%, 70.196078%, 70.196078%)" fill-opacity="1" stroke-width="1" stroke-linecap="butt" stroke-linejoin="miter" stroke="rgb(70.196078%, 70.196078%, 70.196078%)" stroke-opacity="1" stroke-miterlimit="10" d="M 597.800781 106.152344 C 597.800781 112.617188 588.101562 112.617188 588.101562 106.152344 C 588.101562 99.683594 597.800781 99.683594 597.800781 106.152344 "/>
<path fill-rule="nonzero" fill="rgb(70.196078%, 70.196078%, 70.196078%)" fill-opacity="1" stroke-width="1" stroke-linecap="butt" stroke-linejoin="miter" stroke="rgb(70.196078%, 70.196078%, 70.196078%)" stroke-opacity="1" stroke-miterlimit="10" d="M 385.074219 67.742188 C 385.074219 74.207031 375.375 74.207031 375.375 67.742188 C 375.375 61.273438 385.074219 61.273438 385.074219 67.742188 "/>
<path fill-rule="nonzero" fill="rgb(70.196078%, 70.196078%, 70.196078%)" fill-opacity="1" stroke-width="1" stroke-linecap="butt" stroke-linejoin="miter" stroke="rgb(70.196078%, 70.196078%, 70.196078%)" stroke-opacity="1" stroke-miterlimit="10" d="M 410.53125 154.503906 C 410.53125 160.96875 400.828125 160.96875 400.828125 154.503906 C 400.828125 148.035156 410.53125 148.035156 410.53125 154.503906 "/>
<path fill-rule="nonzero" fill="rgb(70.196078%, 70.196078%, 70.196078%)" fill-opacity="1" stroke-width="1" stroke-linecap="butt" stroke-linejoin="miter" stroke="rgb(70.196078%, 70.196078%, 70.196078%)" stroke-opacity="1" stroke-miterlimit="10" d="M 374.890625 116.554688 C 374.890625 123.019531 365.1875 123.019531 365.1875 116.554688 C 365.1875 110.085938 374.890625 110.085938 374.890625 116.554688 "/>
<path fill-rule="nonzero" fill="rgb(70.196078%, 70.196078%, 70.196078%)" fill-opacity="1" stroke-width="1" stroke-linecap="butt" stroke-linejoin="miter" stroke="rgb(70.196078%, 70.196078%, 70.196078%)" stroke-opacity="1" stroke-miterlimit="10" d="M 435.417969 50 C 435.417969 56.464844 425.71875 56.464844 425.71875 50 C 425.71875 43.535156 435.417969 43.535156 435.417969 50 "/>
<path fill-rule="nonzero" fill="rgb(100%, 84.313725%, 0%)" fill-opacity="1" stroke-width="1" stroke-linecap="butt" stroke-linejoin="miter" stroke="rgb(100%, 84.313725%, 0%)" stroke-opacity="1" stroke-miterlimit="10" d="M 627.605469 127.429688 L 638.304688 127.429688 L 638.304688 138.128906 L 627.605469 138.128906 Z M 627.605469 127.429688 "/>
<path fill-rule="nonzero" fill="rgb(70.196078%, 70.196078%, 70.196078%)" fill-opacity="1" stroke-width="1" stroke-linecap="butt" stroke-linejoin="miter" stroke="rgb(70.196078%, 70.196078%, 70.196078%)" stroke-opacity="1" stroke-miterlimit="10" d="M 548.667969 78.898438 C 548.667969 85.367188 538.96875 85.367188 538.96875 78.898438 C 538.96875 72.433594 548.667969 72.433594 548.667969 78.898438 "/>
</svg>
