<?xml version="1.0" encoding="UTF-8"?>
<svg xmlns="http://www.w3.org/2000/svg" xmlns:xlink="http://www.w3.org/1999/xlink" width="800" height="800" viewBox="0 0 800 800">
<rect x="-80" y="-80" width="960" height="960" fill="rgb(100%, 100%, 100%)" fill-opacity="1"/>
<path fill="none" stroke-width="5.5" stroke-linecap="butt" stroke-linejoin="miter" stroke="rgb(70.196078%, 70.196078%, 70.196078%)" stroke-opacity="1" stroke-miterlimit="10" d="M 711.996094 504.484375 C 728.277344 498.613281 740.757812 488.007812 746.019531 471.566406 "/>
<path fill-rule="nonzero" fill="rgb(70.196078%, 70.196078%, 70.196078%)" fill-opacity="1" d="M 748.195312 464.773438 L 748.226562 472.273438 L 743.8125 470.859375 L 748.195312 464.773438 "/>
<path fill="none" stroke-width="5.5" stroke-linecap="butt" stroke-linejoin="miter" stroke="rgb(70.196078%, 70.196078%, 70.196078%)" stroke-opacity="1" stroke-miterlimit="10" d="M 652.554688 533.726562 C 672.75 534.738281 690.8125 528.796875 704.074219 513.578125 "/>
<path fill-rule="nonzero" fill="rgb(70.196078%, 70.196078%, 70.196078%)" fill-opacity="1" d="M 708.757812 508.199219 L 705.820312 515.101562 L 702.328125 512.054688 L 708.757812 508.199219 "/>
<path fill="none" stroke-width="5.5" stroke-linecap="butt" stroke-linejoin="miter" stroke="rgb(70.196078%, 70.196078%, 70.196078%)" stroke-opacity="1" stroke-miterlimit="10" d="M 580.898438 528.390625 C 599.710938 540.503906 620.265625 544.652344 641.433594 537.492188 "/>
<path fill-rule="nonzero" fill="rgb(70.196078%, 70.196078%, 70.196078%)" fill-opacity="1" d="M 648.191406 535.203125 L 642.175781 539.6875 L 640.691406 535.296875 L 648.191406 535.203125 "/>
<path fill="none" stroke-width="5.5" stroke-linecap="butt" stroke-linejoin="miter" stroke="rgb(70.196078%, 70.196078%, 70.196078%)" stroke-opacity="1" stroke-miterlimit="10" d="M 505.148438 490.070312 C 520.855469 512.195312 542.121094 525.894531 569.171875 527.636719 "/>
<path fill-rule="nonzero" fill="rgb(70.196078%, 70.196078%, 70.196078%)" fill-opacity="1" d="M 576.289062 528.09375 L 569.023438 529.949219 L 569.320312 525.324219 L 576.289062 528.09375 "/>
<path fill="none" stroke-width="5.5" stroke-linecap="butt" stroke-linejoin="miter" stroke="rgb(70.196078%, 70.196078%, 70.196078%)" stroke-opacity="1" stroke-miterlimit="10" d="M 410.964844 408.453125 C 426.902344 446.929688 454.203125 474.089844 493.925781 486.550781 "/>
<path fill-rule="nonzero" fill="rgb(70.196078%, 70.196078%, 70.196078%)" fill-opacity="1" d="M 500.734375 488.6875 L 493.234375 488.761719 L 494.621094 484.339844 L 500.734375 488.6875 "/>
<path fill="none" stroke-width="5.5" stroke-linecap="butt" stroke-linejoin="miter" stroke="rgb(70.196078%, 70.196078%, 70.196078%)" stroke-opacity="1" stroke-miterlimit="10" d="M 340.882812 329.835938 C 349.640625 363.304688 368.949219 388.925781 400.304688 403.496094 "/>
<path fill-rule="nonzero" fill="rgb(70.196078%, 70.196078%, 70.196078%)" fill-opacity="1" d="M 406.773438 406.503906 L 399.328125 405.601562 L 401.28125 401.394531 L 406.773438 406.503906 "/>
<path fill="none" stroke-width="5.5" stroke-linecap="butt" stroke-linejoin="miter" stroke="rgb(70.196078%, 70.196078%, 70.196078%)" stroke-opacity="1" stroke-miterlimit="10" d="M 274.910156 227.992188 C 279.335938 268.199219 297.410156 300.960938 331.085938 323.328125 "/>
<path fill-rule="nonzero" fill="rgb(70.196078%, 70.196078%, 70.196078%)" fill-opacity="1" d="M 337.027344 327.277344 L 329.804688 325.261719 L 332.371094 321.398438 L 337.027344 327.277344 "/>
<path fill="none" stroke-width="5.5" stroke-linecap="butt" stroke-linejoin="miter" stroke="rgb(70.196078%, 70.196078%, 70.196078%)" stroke-opacity="1" stroke-miterlimit="10" d="M 240.273438 145.34375 C 237.832031 174.097656 245.742188 199.773438 266.464844 219.824219 "/>
<path fill-rule="nonzero" fill="rgb(70.196078%, 70.196078%, 70.196078%)" fill-opacity="1" d="M 271.59375 224.78125 L 264.855469 221.488281 L 268.078125 218.15625 L 271.59375 224.78125 "/>
<path fill="none" stroke-width="5.5" stroke-linecap="butt" stroke-linejoin="miter" stroke="rgb(70.196078%, 70.196078%, 70.196078%)" stroke-opacity="1" stroke-miterlimit="10" d="M 205.851562 78.746094 C 205.445312 102.253906 213.15625 122.859375 231.230469 137.847656 "/>
<path fill-rule="nonzero" fill="rgb(70.196078%, 70.196078%, 70.196078%)" fill-opacity="1" d="M 236.722656 142.402344 L 229.753906 139.632812 L 232.710938 136.0625 L 236.722656 142.402344 "/>
<path fill="none" stroke-width="5.5" stroke-linecap="butt" stroke-linejoin="miter" stroke="rgb(70.196078%, 70.196078%, 70.196078%)" stroke-opacity="1" stroke-miterlimit="10" d="M 148.796875 50 C 159.621094 66.050781 174.546875 76.527344 193.820312 77.894531 "/>
<path fill-rule="nonzero" fill="rgb(70.196078%, 70.196078%, 70.196078%)" fill-opacity="1" d="M 200.9375 78.398438 L 193.65625 80.207031 L 193.984375 75.582031 L 200.9375 78.398438 "/>
<path fill="none" stroke-width="5.5" stroke-linecap="butt" stroke-linejoin="miter" stroke="rgb(70.196078%, 70.196078%, 70.196078%)" stroke-opacity="1" stroke-miterlimit="10" d="M 101.984375 96 C 121.265625 90.695312 136.398438 79.527344 144.128906 61.121094 "/>
<path fill-rule="nonzero" fill="rgb(70.196078%, 70.196078%, 70.196078%)" fill-opacity="1" d="M 146.890625 54.546875 L 146.265625 62.019531 L 141.992188 60.222656 L 146.890625 54.546875 "/>
<path fill="none" stroke-width="5.5" stroke-linecap="butt" stroke-linejoin="miter" stroke="rgb(70.196078%, 70.196078%, 70.196078%)" stroke-opacity="1" stroke-miterlimit="10" d="M 328.019531 236.34375 C 293.097656 235.269531 262.769531 246.667969 239.691406 272.871094 "/>
<path fill-rule="nonzero" fill="rgb(70.196078%, 70.196078%, 70.196078%)" fill-opacity="1" d="M 234.980469 278.222656 L 237.953125 271.339844 L 241.433594 274.402344 L 234.980469 278.222656 "/>
<path fill="none" stroke-width="5.5" stroke-linecap="butt" stroke-linejoin="miter" stroke="rgb(70.196078%, 70.196078%, 70.196078%)" stroke-opacity="1" stroke-miterlimit="10" d="M 388.066406 179.632812 C 362.722656 186.640625 343.191406 201.484375 332.707031 225.570312 "/>
<path fill-rule="nonzero" fill="rgb(70.196078%, 70.196078%, 70.196078%)" fill-opacity="1" d="M 329.859375 232.113281 L 330.582031 224.648438 L 334.832031 226.496094 L 329.859375 232.113281 "/>
<path fill="none" stroke-width="5.5" stroke-linecap="butt" stroke-linejoin="miter" stroke="rgb(70.196078%, 70.196078%, 70.196078%)" stroke-opacity="1" stroke-miterlimit="10" d="M 445.789062 131.984375 C 422.769531 136.546875 404.292969 148.414062 393.484375 169.214844 "/>
<path fill-rule="nonzero" fill="rgb(70.196078%, 70.196078%, 70.196078%)" fill-opacity="1" d="M 390.195312 175.542969 L 391.425781 168.144531 L 395.539062 170.28125 L 390.195312 175.542969 "/>
<path fill="none" stroke-width="5.5" stroke-linecap="butt" stroke-linejoin="miter" stroke="rgb(70.196078%, 70.196078%, 70.196078%)" stroke-opacity="1" stroke-miterlimit="10" d="M 511.449219 107.617188 C 490.078125 104.457031 470.316406 108.96875 454.589844 123.726562 "/>
<path fill-rule="nonzero" fill="rgb(70.196078%, 70.196078%, 70.196078%)" fill-opacity="1" d="M 449.386719 128.609375 L 453.003906 122.035156 L 456.175781 125.417969 L 449.386719 128.609375 "/>
<path fill="none" stroke-width="5.5" stroke-linecap="butt" stroke-linejoin="miter" stroke="rgb(70.196078%, 70.196078%, 70.196078%)" stroke-opacity="1" stroke-miterlimit="10" d="M 85.34375 165.40625 C 100.207031 148.914062 107.558594 129.449219 103.914062 107.578125 "/>
<path fill-rule="nonzero" fill="rgb(70.196078%, 70.196078%, 70.196078%)" fill-opacity="1" d="M 102.742188 100.542969 L 106.199219 107.199219 L 101.628906 107.960938 L 102.742188 100.542969 "/>
<path fill="none" stroke-width="5.5" stroke-linecap="butt" stroke-linejoin="miter" stroke="rgb(70.196078%, 70.196078%, 70.196078%)" stroke-opacity="1" stroke-miterlimit="10" d="M 100.34375 235.253906 C 106.628906 213.933594 104.835938 193.179688 92.085938 175.015625 "/>
<path fill-rule="nonzero" fill="rgb(70.196078%, 70.196078%, 70.196078%)" fill-opacity="1" d="M 87.988281 169.175781 L 93.984375 173.683594 L 90.191406 176.347656 L 87.988281 169.175781 "/>
<path fill="none" stroke-width="5.5" stroke-linecap="butt" stroke-linejoin="miter" stroke="rgb(70.196078%, 70.196078%, 70.196078%)" stroke-opacity="1" stroke-miterlimit="10" d="M 154.597656 280.417969 C 146.523438 260.042969 132.523438 245 111.582031 238.65625 "/>
<path fill-rule="nonzero" fill="rgb(70.196078%, 70.196078%, 70.196078%)" fill-opacity="1" d="M 104.753906 236.589844 L 112.253906 236.4375 L 110.910156 240.875 L 104.753906 236.589844 "/>
<path fill="none" stroke-width="5.5" stroke-linecap="butt" stroke-linejoin="miter" stroke="rgb(70.196078%, 70.196078%, 70.196078%)" stroke-opacity="1" stroke-miterlimit="10" d="M 577.980469 120.269531 C 562.011719 107.007812 543.519531 100.796875 523.25 105.109375 "/>
<path fill-rule="nonzero" fill="rgb(70.196078%, 70.196078%, 70.196078%)" fill-opacity="1" d="M 516.273438 106.59375 L 522.765625 102.839844 L 523.730469 107.375 L 516.273438 106.59375 "/>
<path fill="none" stroke-width="5.5" stroke-linecap="butt" stroke-linejoin="miter" stroke="rgb(70.196078%, 70.196078%, 70.196078%)" stroke-opacity="1" stroke-miterlimit="10" d="M 624.011719 170.082031 C 619.046875 149.886719 607.855469 133.875 588.957031 125.269531 "/>
<path fill-rule="nonzero" fill="rgb(70.196078%, 70.196078%, 70.196078%)" fill-opacity="1" d="M 582.46875 122.316406 L 589.917969 123.160156 L 588 127.378906 L 582.46875 122.316406 "/>
<path fill="none" stroke-width="5.5" stroke-linecap="butt" stroke-linejoin="miter" stroke="rgb(70.196078%, 70.196078%, 70.196078%)" stroke-opacity="1" stroke-miterlimit="10" d="M 231.921875 281.695312 C 210.628906 269.828125 188.039062 266.839844 165.480469 276 "/>
<path fill-rule="nonzero" fill="rgb(70.196078%, 70.196078%, 70.196078%)" fill-opacity="1" d="M 158.871094 278.683594 L 164.605469 273.851562 L 166.351562 278.148438 L 158.871094 278.683594 "/>
<path fill="none" stroke-width="5.5" stroke-linecap="butt" stroke-linejoin="miter" stroke="rgb(70.196078%, 70.196078%, 70.196078%)" stroke-opacity="1" stroke-miterlimit="10" d="M 630.53125 239.515625 C 639.078125 219.792969 639.84375 199.636719 629.707031 180.714844 "/>
<path fill-rule="nonzero" fill="rgb(70.196078%, 70.196078%, 70.196078%)" fill-opacity="1" d="M 626.339844 174.429688 L 631.75 179.621094 L 627.664062 181.8125 L 626.339844 174.429688 "/>
<path fill="none" stroke-width="5.5" stroke-linecap="butt" stroke-linejoin="miter" stroke="rgb(70.196078%, 70.196078%, 70.196078%)" stroke-opacity="1" stroke-miterlimit="10" d="M 600.285156 306.703125 C 618.597656 292.71875 629.769531 274.261719 630.273438 251.257812 "/>
<path fill-rule="nonzero" fill="rgb(70.196078%, 70.196078%, 70.196078%)" fill-opacity="1" d="M 630.429688 244.125 L 632.589844 251.308594 L 627.957031 251.207031 L 630.429688 244.125 "/>
<path fill="none" stroke-width="5.5" stroke-linecap="butt" stroke-linejoin="miter" stroke="rgb(70.196078%, 70.196078%, 70.196078%)" stroke-opacity="1" stroke-miterlimit="10" d="M 549.839844 367.886719 C 573.035156 358.316406 589.871094 342.011719 596.964844 317.96875 "/>
<path fill-rule="nonzero" fill="rgb(70.196078%, 70.196078%, 70.196078%)" fill-opacity="1" d="M 598.980469 311.128906 L 599.1875 318.625 L 594.742188 317.316406 L 598.980469 311.128906 "/>
<path fill="none" stroke-width="5.5" stroke-linecap="butt" stroke-linejoin="miter" stroke="rgb(70.196078%, 70.196078%, 70.196078%)" stroke-opacity="1" stroke-miterlimit="10" d="M 488.558594 430.46875 C 515.3125 421.8125 535.421875 405.03125 545.589844 378.839844 "/>
<path fill-rule="nonzero" fill="rgb(70.196078%, 70.196078%, 70.196078%)" fill-opacity="1" d="M 548.171875 372.191406 L 547.75 379.679688 L 543.429688 378 L 548.171875 372.191406 "/>
<path fill="none" stroke-width="5.5" stroke-linecap="butt" stroke-linejoin="miter" stroke="rgb(70.196078%, 70.196078%, 70.196078%)" stroke-opacity="1" stroke-miterlimit="10" d="M 425.800781 513.277344 C 456.492188 498.472656 477.621094 474.957031 485.753906 441.882812 "/>
<path fill-rule="nonzero" fill="rgb(70.196078%, 70.196078%, 70.196078%)" fill-opacity="1" d="M 487.457031 434.957031 L 488.003906 442.4375 L 483.503906 441.332031 L 487.457031 434.957031 "/>
<path fill="none" stroke-width="5.5" stroke-linecap="butt" stroke-linejoin="miter" stroke="rgb(70.196078%, 70.196078%, 70.196078%)" stroke-opacity="1" stroke-miterlimit="10" d="M 197.023438 750 C 214.652344 758.65625 233.066406 760.316406 250.722656 751.800781 "/>
<path fill-rule="nonzero" fill="rgb(70.196078%, 70.196078%, 70.196078%)" fill-opacity="1" d="M 257.148438 748.699219 L 251.730469 753.886719 L 249.714844 749.710938 L 257.148438 748.699219 "/>
<path fill="none" stroke-width="5.5" stroke-linecap="butt" stroke-linejoin="miter" stroke="rgb(70.196078%, 70.196078%, 70.196078%)" stroke-opacity="1" stroke-miterlimit="10" d="M 380.792969 579.914062 C 403.316406 567.960938 418.730469 549.816406 423.570312 524.808594 "/>
<path fill-rule="nonzero" fill="rgb(70.196078%, 70.196078%, 70.196078%)" fill-opacity="1" d="M 424.925781 517.808594 L 425.84375 525.25 L 421.292969 524.371094 L 424.925781 517.808594 "/>
<path fill="none" stroke-width="5.5" stroke-linecap="butt" stroke-linejoin="miter" stroke="rgb(70.196078%, 70.196078%, 70.196078%)" stroke-opacity="1" stroke-miterlimit="10" d="M 311.175781 703.128906 C 329.1875 691.882812 341.128906 675.921875 343.484375 654.851562 "/>
<path fill-rule="nonzero" fill="rgb(70.196078%, 70.196078%, 70.196078%)" fill-opacity="1" d="M 344.277344 647.765625 L 345.789062 655.109375 L 341.183594 654.59375 L 344.277344 647.765625 "/>
<path fill="none" stroke-width="5.5" stroke-linecap="butt" stroke-linejoin="miter" stroke="rgb(70.196078%, 70.196078%, 70.196078%)" stroke-opacity="1" stroke-miterlimit="10" d="M 261.585938 746.558594 C 281.238281 742.335938 297.0625 731.992188 305.875 713.964844 "/>
<path fill-rule="nonzero" fill="rgb(70.196078%, 70.196078%, 70.196078%)" fill-opacity="1" d="M 309.011719 707.558594 L 307.960938 714.984375 L 303.792969 712.949219 L 309.011719 707.558594 "/>
<path fill="none" stroke-width="5.5" stroke-linecap="butt" stroke-linejoin="miter" stroke="rgb(70.196078%, 70.196078%, 70.196078%)" stroke-opacity="1" stroke-miterlimit="10" d="M 344.824219 642.863281 C 364.046875 630.953125 376.738281 613.996094 379.40625 591.574219 "/>
<path fill-rule="nonzero" fill="rgb(70.196078%, 70.196078%, 70.196078%)" fill-opacity="1" d="M 380.25 584.488281 L 381.707031 591.847656 L 377.105469 591.300781 L 380.25 584.488281 "/>
<path fill="none" stroke-width="5.5" stroke-linecap="butt" stroke-linejoin="miter" stroke="rgb(70.196078%, 70.196078%, 70.196078%)" stroke-opacity="1" stroke-miterlimit="10" d="M 50 634.976562 C 54.09375 651.734375 63.289062 665.210938 79.019531 672.183594 "/>
<path fill-rule="nonzero" fill="rgb(70.196078%, 70.196078%, 70.196078%)" fill-opacity="1" d="M 85.542969 675.074219 L 78.082031 674.300781 L 79.960938 670.066406 L 85.542969 675.074219 "/>
<path fill="none" stroke-width="5.5" stroke-linecap="butt" stroke-linejoin="miter" stroke="rgb(70.196078%, 70.196078%, 70.196078%)" stroke-opacity="1" stroke-miterlimit="10" d="M 138.492188 720.007812 C 149.632812 736.671875 165.042969 747.539062 184.996094 749.074219 "/>
<path fill-rule="nonzero" fill="rgb(70.196078%, 70.196078%, 70.196078%)" fill-opacity="1" d="M 192.109375 749.621094 L 184.820312 751.382812 L 185.175781 746.761719 L 192.109375 749.621094 "/>
<path fill="none" stroke-width="5.5" stroke-linecap="butt" stroke-linejoin="miter" stroke="rgb(70.196078%, 70.196078%, 70.196078%)" stroke-opacity="1" stroke-miterlimit="10" d="M 90.042969 677.066406 C 96.53125 695.636719 108.492188 709.769531 127.074219 716.109375 "/>
<path fill-rule="nonzero" fill="rgb(70.196078%, 70.196078%, 70.196078%)" fill-opacity="1" d="M 133.828125 718.414062 L 126.328125 718.304688 L 127.824219 713.917969 L 133.828125 718.414062 "/>
<path fill-rule="nonzero" fill="rgb(14.901961%, 14.901961%, 14.901961%)" fill-opacity="1" stroke-width="1" stroke-linecap="butt" stroke-linejoin="miter" stroke="rgb(14.901961%, 14.901961%, 14.901961%)" stroke-opacity="1" stroke-miterlimit="10" d="M 744.148438 464.980469 L 750 453.28125 L 755.851562 464.980469 Z M 744.148438 464.980469 "/>
<path fill-rule="nonzero" fill="rgb(70.196078%, 70.196078%, 70.196078%)" fill-opacity="1" stroke-width="1" stroke-linecap="butt" stroke-linejoin="miter" stroke="rgb(70.196078%, 70.196078%, 70.196078%)" stroke-opacity="1" stroke-miterlimit="10" d="M 716.847656 504.484375 C 716.847656 510.949219 707.148438 510.949219 707.148438 504.484375 C 707.148438 498.015625 716.847656 498.015625 716.847656 504.484375 "/>
<path fill-rule="nonzero" fill="rgb(70.196078%, 70.196078%, 70.196078%)" fill-opacity="1" stroke-width="1" stroke-linecap="butt" stroke-linejoin="miter" stroke="rgb(70.196078%, 70.196078%, 70.196078%)" stroke-opacity="1" stroke-miterlimit="10" d="M 657.40625 533.726562 C 657.40625 540.195312 647.707031 540.195312 647.707031 533.726562 C 647.707031 527.261719 657.40625 527.261719 657.40625 533.726562 "/>
<path fill-rule="nonzero" fill="rgb(70.196078%, 70.196078%, 70.196078%)" fill-opacity="1" stroke-width="1" stroke-linecap="butt" stroke-linejoin="miter" stroke="rgb(70.196078%, 70.196078%, 70.196078%)" stroke-opacity="1" stroke-miterlimit="10" d="M 585.746094 528.390625 C 585.746094 534.859375 576.046875 534.859375 576.046875 528.390625 C 576.046875 521.925781 585.746094 521.925781 585.746094 528.390625 "/>
<path fill-rule="nonzero" fill="rgb(70.196078%, 70.196078%, 70.196078%)" fill-opacity="1" stroke-width="1" stroke-linecap="butt" stroke-linejoin="miter" stroke="rgb(70.196078%, 70.196078%, 70.196078%)" stroke-opacity="1" stroke-miterlimit="10" d="M 510 490.070312 C 510 496.539062 500.296875 496.539062 500.296875 490.070312 C 500.296875 483.605469 510 483.605469 510 490.070312 "/>
<path fill-rule="nonzero" fill="rgb(70.196078%, 70.196078%, 70.196078%)" fill-opacity="1" stroke-width="1" stroke-linecap="butt" stroke-linejoin="miter" stroke="rgb(70.196078%, 70.196078%, 70.196078%)" stroke-opacity="1" stroke-miterlimit="10" d="M 415.8125 408.453125 C 415.8125 414.917969 406.113281 414.917969 406.113281 408.453125 C 406.113281 401.984375 415.8125 401.984375 415.8125 408.453125 "/>
<path fill-rule="nonzero" fill="rgb(70.196078%, 70.196078%, 70.196078%)" fill-opacity="1" stroke-width="1" stroke-linecap="butt" stroke-linejoin="miter" stroke="rgb(70.196078%, 70.196078%, 70.196078%)" stroke-opacity="1" stroke-miterlimit="10" d="M 345.734375 329.835938 C 345.734375 336.300781 336.03125 336.300781 336.03125 329.835938 C 336.03125 323.367188 345.734375 323.367188 345.734375 329.835938 "/>
<path fill-rule="nonzero" fill="rgb(70.196078%, 70.196078%, 70.196078%)" fill-opacity="1" stroke-width="1" stroke-linecap="butt" stroke-linejoin="miter" stroke="rgb(70.196078%, 70.196078%, 70.196078%)" stroke-opacity="1" stroke-miterlimit="10" d="M 279.761719 227.992188 C 279.761719 234.460938 270.058594 234.460938 270.058594 227.992188 C 270.058594 221.527344 279.761719 221.527344 279.761719 227.992188 "/>
<path fill-rule="nonzero" fill="rgb(70.196078%, 70.196078%, 70.196078%)" fill-opacity="1" stroke-width="1" stroke-linecap="butt" stroke-linejoin="miter" stroke="rgb(70.196078%, 70.196078%, 70.196078%)" stroke-opacity="1" stroke-miterlimit="10" d="M 245.121094 145.34375 C 245.121094 151.808594 235.421875 151.808594 235.421875 145.34375 C 235.421875 138.875 245.121094 138.875 245.121094 145.34375 "/>
<path fill-rule="nonzero" fill="rgb(70.196078%, 70.196078%, 70.196078%)" fill-opacity="1" stroke-width="1" stroke-linecap="butt" stroke-linejoin="miter" stroke="rgb(70.196078%, 70.196078%, 70.196078%)" stroke-opacity="1" stroke-miterlimit="10" d="M 210.703125 78.746094 C 210.703125 85.214844 201.003906 85.214844 201.003906 78.746094 C 201.003906 72.28125 210.703125 72.28125 210.703125 78.746094 "/>
<path fill-rule="nonzero" fill="rgb(70.196078%, 70.196078%, 70.196078%)" fill-opacity="1" stroke-width="1" stroke-linecap="butt" stroke-linejoin="miter" stroke="rgb(70.196078%, 70.196078%, 70.196078%)" stroke-opacity="1" stroke-miterlimit="10" d="M 153.648438 50 C 153.648438 56.464844 143.949219 56.464844 143.949219 50 C 143.949219 43.535156 153.648438 43.535156 153.648438 50 "/>
<path fill-rule="nonzero" fill="rgb(70.196078%, 70.196078%, 70.196078%)" fill-opacity="1" stroke-width="1" stroke-linecap="butt" stroke-linejoin="miter" stroke="rgb(70.196078%, 70.196078%, 70.196078%)" stroke-opacity="1" stroke-miterlimit="10" d="M 106.835938 96 C 106.835938 102.464844 97.136719 102.464844 97.136719 96 C 97.136719 89.53125 106.835938 89.53125 106.835938 96 "/>
<path fill-rule="nonzero" fill="rgb(70.196078%, 70.196078%, 70.196078%)" fill-opacity="1" stroke-width="1" stroke-linecap="butt" stroke-linejoin="miter" stroke="rgb(70.196078%, 70.196078%, 70.196078%)" stroke-opacity="1" stroke-miterlimit="10" d="M 332.867188 236.34375 C 332.867188 242.808594 323.167969 242.808594 323.167969 236.34375 C 323.167969 229.875 332.867188 229.875 332.867188 236.34375 "/>
<path fill-rule="nonzero" fill="rgb(70.196078%, 70.196078%, 70.196078%)" fill-opacity="1" stroke-width="1" stroke-linecap="butt" stroke-linejoin="miter" stroke="rgb(70.196078%, 70.196078%, 70.196078%)" stroke-opacity="1" stroke-miterlimit="10" d="M 392.917969 179.632812 C 392.917969 186.101562 383.21875 186.101562 383.21875 179.632812 C 383.21875 173.167969 392.917969 173.167969 392.917969 179.632812 "/>
<path fill-rule="nonzero" fill="rgb(70.196078%, 70.196078%, 70.196078%)" fill-opacity="1" stroke-width="1" stroke-linecap="butt" stroke-linejoin="miter" stroke="rgb(70.196078%, 70.196078%, 70.196078%)" stroke-opacity="1" stroke-miterlimit="10" d="M 450.640625 131.984375 C 450.640625 138.449219 440.941406 138.449219 440.941406 131.984375 C 440.941406 125.515625 450.640625 125.515625 450.640625 131.984375 "/>
<path fill-rule="nonzero" fill="rgb(70.196078%, 70.196078%, 70.196078%)" fill-opacity="1" stroke-width="1" stroke-linecap="butt" stroke-linejoin="miter" stroke="rgb(70.196078%, 70.196078%, 70.196078%)" stroke-opacity="1" stroke-miterlimit="10" d="M 516.296875 107.617188 C 516.296875 114.085938 506.597656 114.085938 506.597656 107.617188 C 506.597656 101.152344 516.296875 101.152344 516.296875 107.617188 "/>
<path fill-rule="nonzero" fill="rgb(70.196078%, 70.196078%, 70.196078%)" fill-opacity="1" stroke-width="1" stroke-linecap="butt" stroke-linejoin="miter" stroke="rgb(70.196078%, 70.196078%, 70.196078%)" stroke-opacity="1" stroke-miterlimit="10" d="M 90.191406 165.40625 C 90.191406 171.871094 80.492188 171.871094 80.492188 165.40625 C 80.492188 158.9375 90.191406 158.9375 90.191406 165.40625 "/>
<path fill-rule="nonzero" fill="rgb(70.196078%, 70.196078%, 70.196078%)" fill-opacity="1" stroke-width="1" stroke-linecap="butt" stroke-linejoin="miter" stroke="rgb(70.196078%, 70.196078%, 70.196078%)" stroke-opacity="1" stroke-miterlimit="10" d="M 105.195312 235.253906 C 105.195312 241.71875 95.496094 241.71875 95.496094 235.253906 C 95.496094 228.785156 105.195312 228.785156 105.195312 235.253906 "/>
<path fill-rule="nonzero" fill="rgb(70.196078%, 70.196078%, 70.196078%)" fill-opacity="1" stroke-width="1" stroke-linecap="butt" stroke-linejoin="miter" stroke="rgb(70.196078%, 70.196078%, 70.196078%)" stroke-opacity="1" stroke-miterlimit="10" d="M 159.445312 280.417969 C 159.445312 286.882812 149.746094 286.882812 149.746094 280.417969 C 149.746094 273.949219 159.445312 273.949219 159.445312 280.417969 "/>
<path fill-rule="nonzero" fill="rgb(70.196078%, 70.196078%, 70.196078%)" fill-opacity="1" stroke-width="1" stroke-linecap="butt" stroke-linejoin="miter" stroke="rgb(70.196078%, 70.196078%, 70.196078%)" stroke-opacity="1" stroke-miterlimit="10" d="M 582.828125 120.269531 C 582.828125 126.738281 573.128906 126.738281 573.128906 120.269531 C 573.128906 113.804688 582.828125 113.804688 582.828125 120.269531 "/>
<path fill-rule="nonzero" fill="rgb(70.196078%, 70.196078%, 70.196078%)" fill-opacity="1" stroke-width="1" stroke-linecap="butt" stroke-linejoin="miter" stroke="rgb(70.196078%, 70.196078%, 70.196078%)" stroke-opacity="1" stroke-miterlimit="10" d="M 628.859375 170.082031 C 628.859375 176.546875 619.160156 176.546875 619.160156 170.082031 C 619.160156 163.613281 628.859375 163.613281 628.859375 170.082031 "/>
<path fill-rule="nonzero" fill="rgb(70.196078%, 70.196078%, 70.196078%)" fill-opacity="1" stroke-width="1" stroke-linecap="butt" stroke-linejoin="miter" stroke="rgb(70.196078%, 70.196078%, 70.196078%)" stroke-opacity="1" stroke-miterlimit="10" d="M 236.773438 281.695312 C 236.773438 288.160156 227.074219 288.160156 227.074219 281.695312 C 227.074219 275.226562 236.773438 275.226562 236.773438 281.695312 "/>
<path fill-rule="nonzero" fill="rgb(70.196078%, 70.196078%, 70.196078%)" fill-opacity="1" stroke-width="1" stroke-linecap="butt" stroke-linejoin="miter" stroke="rgb(70.196078%, 70.196078%, 70.196078%)" stroke-opacity="1" stroke-miterlimit="10" d="M 635.378906 239.515625 C 635.378906 245.984375 625.679688 245.984375 625.679688 239.515625 C 625.679688 233.050781 635.378906 233.050781 635.378906 239.515625 "/>
<path fill-rule="nonzero" fill="rgb(70.196078%, 70.196078%, 70.196078%)" fill-opacity="1" stroke-width="1" stroke-linecap="butt" stroke-linejoin="miter" stroke="rgb(70.196078%, 70.196078%, 70.196078%)" stroke-opacity="1" stroke-miterlimit="10" d="M 605.136719 306.703125 C 605.136719 313.171875 595.4375 313.171875 595.4375 306.703125 C 595.4375 300.238281 605.136719 300.238281 605.136719 306.703125 "/>
<path fill-rule="nonzero" fill="rgb(70.196078%, 70.196078%, 70.196078%)" fill-opacity="1" stroke-width="1" stroke-linecap="butt" stroke-linejoin="miter" stroke="rgb(70.196078%, 70.196078%, 70.196078%)" stroke-opacity="1" stroke-miterlimit="10" d="M 554.691406 367.886719 C 554.691406 374.355469 544.992188 374.355469 544.992188 367.886719 C 544.992188 361.421875 554.691406 361.421875 554.691406 367.886719 "/>
<path fill-rule="nonzero" fill="rgb(70.196078%, 70.196078%, 70.196078%)" fill-opacity="1" stroke-width="1" stroke-linecap="butt" stroke-linejoin="miter" stroke="rgb(70.196078%, 70.196078%, 70.196078%)" stroke-opacity="1" stroke-miterlimit="10" d="M 493.410156 430.46875 C 493.410156 436.933594 483.710938 436.933594 483.710938 430.46875 C 483.710938 424 493.410156 424 493.410156 430.46875 "/>
<path fill-rule="nonzero" fill="rgb(70.196078%, 70.196078%, 70.196078%)" fill-opacity="1" stroke-width="1" stroke-linecap="butt" stroke-linejoin="miter" stroke="rgb(70.196078%, 70.196078%, 70.196078%)" stroke-opacity="1" stroke-miterlimit="10" d="M 430.652344 513.277344 C 430.652344 519.746094 420.949219 519.746094 420.949219 513.277344 C 420.949219 506.8125 430.652344 506.8125 430.652344 513.277344 "/>
<path fill-rule="nonzero" fill="rgb(70.196078%, 70.196078%, 70.196078%)" fill-opacity="1" stroke-width="1" stroke-linecap="butt" stroke-linejoin="miter" stroke="rgb(70.196078%, 70.196078%, 70.196078%)" stroke-opacity="1" stroke-miterlimit="10" d="M 201.875 750 C 201.875 756.464844 192.175781 756.464844 192.175781 750 C 192.175781 743.535156 201.875 743.535156 201.875 750 "/>
<path fill-rule="nonzero" fill="rgb(70.196078%, 70.196078%, 70.196078%)" fill-opacity="1" stroke-width="1" stroke-linecap="butt" stroke-linejoin="miter" stroke="rgb(70.196078%, 70.196078%, 70.196078%)" stroke-opacity="1" stroke-miterlimit="10" d="M 385.644531 579.914062 C 385.644531 586.378906 375.945312 586.378906 375.945312 579.914062 C 375.945312 573.445312 385.644531 573.445312 385.644531 579.914062 "/>
<path fill-rule="nonzero" fill="rgb(70.196078%, 70.196078%, 70.196078%)" fill-opacity="1" stroke-width="1" stroke-linecap="butt" stroke-linejoin="miter" stroke="rgb(70.196078%, 70.196078%, 70.196078%)" stroke-opacity="1" stroke-miterlimit="10" d="M 316.027344 703.128906 C 316.027344 709.59375 306.324219 709.59375 306.324219 703.128906 C 306.324219 696.664062 316.027344 696.664062 316.027344 703.128906 "/>
<path fill-rule="nonzero" fill="rgb(70.196078%, 70.196078%, 70.196078%)" fill-opacity="1" stroke-width="1" stroke-linecap="butt" stroke-linejoin="miter" stroke="rgb(70.196078%, 70.196078%, 70.196078%)" stroke-opacity="1" stroke-miterlimit="10" d="M 266.4375 746.558594 C 266.4375 753.023438 256.734375 753.023438 256.734375 746.558594 C 256.734375 740.089844 266.4375 740.089844 266.4375 746.558594 "/>
<path fill-rule="nonzero" fill="rgb(70.196078%, 70.196078%, 70.196078%)" fill-opacity="1" stroke-width="1" stroke-linecap="butt" stroke-linejoin="miter" stroke="rgb(70.196078%, 70.196078%, 70.196078%)" stroke-opacity="1" stroke-miterlimit="10" d="M 349.675781 642.863281 C 349.675781 649.328125 339.976562 649.328125 339.976562 642.863281 C 339.976562 636.394531 349.675781 636.394531 349.675781 642.863281 "/>
<path fill-rule="nonzero" fill="rgb(100%, 84.313725%, 0%)" fill-opacity="1" stroke-width="1" stroke-linecap="butt" stroke-linejoin="miter" stroke="rgb(100%, 84.313725%, 0%)" stroke-opacity="1" stroke-miterlimit="10" d="M 44.648438 629.628906 L 55.347656 629.628906 L 55.347656 640.328125 L 44.648438 640.328125 Z M 44.648438 629.628906 "/>
<path fill-rule="nonzero" fill="rgb(70.196078%, 70.196078%, 70.196078%)" fill-opacity="1" stroke-width="1" stroke-linecap="butt" stroke-linejoin="miter" stroke="rgb(70.196078%, 70.196078%, 70.196078%)" stroke-opacity="1" stroke-miterlimit="10" d="M 143.339844 720.007812 C 143.339844 726.472656 133.640625 726.472656 133.640625 720.007812 C 133.640625 713.539062 143.339844 713.539062 143.339844 720.007812 "/>
<path fill-rule="nonzero" fill="rgb(70.196078%, 70.196078%, 70.196078%)" fill-opacity="1" stroke-width="1" stroke-linecap="butt" stroke-linejoin="miter" stroke="rgb(70.196078%, 70.196078%, 70.196078%)" stroke-opacity="1" stroke-miterlimit="10" d="M 94.894531 677.066406 C 94.894531 683.535156 85.191406 683.535156 85.191406 677.066406 C 85.191406 670.601562 94.894531 670.601562 94.894531 677.066406 "/>
</svg>
